<?xml version="1.0" encoding="UTF-8" standalone="no"?>
<!-- Created with Inkscape (http://www.inkscape.org/) -->

<svg
   xmlns:dc="http://purl.org/dc/elements/1.1/"
   xmlns:cc="http://creativecommons.org/ns#"
   xmlns:rdf="http://www.w3.org/1999/02/22-rdf-syntax-ns#"
   xmlns:svg="http://www.w3.org/2000/svg"
   xmlns="http://www.w3.org/2000/svg"
   xmlns:sodipodi="http://sodipodi.sourceforge.net/DTD/sodipodi-0.dtd"
   xmlns:inkscape="http://www.inkscape.org/namespaces/inkscape"
   width="256.13281"
   height="146.64062"
   id="svg8637"
   version="1.1"
   inkscape:version="0.48.3.1 r9886"
   sodipodi:docname="New document 37">
  <defs
     id="defs8639">
    <clipPath
       clipPathUnits="userSpaceOnUse"
       id="clipPath7597">
      <path
         inkscape:connector-curvature="0"
         d="m 112.8,43.969 371.064,0 0,451.775 -371.064,0 0,-451.775 z"
         id="path7599" />
    </clipPath>
  </defs>
  <sodipodi:namedview
     id="base"
     pagecolor="#ffffff"
     bordercolor="#666666"
     borderopacity="1.0"
     inkscape:pageopacity="0.0"
     inkscape:pageshadow="2"
     inkscape:zoom="0.35"
     inkscape:cx="117.3504"
     inkscape:cy="27.609467"
     inkscape:document-units="px"
     inkscape:current-layer="layer1"
     showgrid="false"
     fit-margin-top="0"
     fit-margin-left="0"
     fit-margin-right="0"
     fit-margin-bottom="0"
     inkscape:window-width="451"
     inkscape:window-height="398"
     inkscape:window-x="50"
     inkscape:window-y="50"
     inkscape:window-maximized="0" />
  <metadata
     id="metadata8642">
    <rdf:RDF>
      <cc:Work
         rdf:about="">
        <dc:format>image/svg+xml</dc:format>
        <dc:type
           rdf:resource="http://purl.org/dc/dcmitype/StillImage" />
        <dc:title></dc:title>
      </cc:Work>
    </rdf:RDF>
  </metadata>
  <g
     inkscape:label="Layer 1"
     inkscape:groupmode="layer"
     id="layer1"
     transform="translate(-257.6496,-413.33102)">
    <g
       transform="matrix(1.25,0,0,-1.25,116.64354,1005.3679)"
       id="g7593">
      <g
         id="g7595"
         clip-path="url(#clipPath7597)">
        <g
           id="g7601"
           transform="translate(119.7111,473.3795)">
          <path
             inkscape:connector-curvature="0"
             d="m 0,0 191.087,0 c 3.665,0 6.665,-2.999 6.665,-6.665 l 0,-103.475 c 0,-3.668 -3,-6.667 -6.665,-6.667 l -191.087,0 c -3.664,0 -6.661,2.999 -6.661,6.667 l 0,103.475 C -6.661,-2.999 -3.664,0 0,0 z"
             style="fill:none;stroke:#231f20;stroke-width:0.5;stroke-linecap:butt;stroke-linejoin:miter;stroke-miterlimit:4;stroke-opacity:1;stroke-dasharray:none"
             id="path7603" />
        </g>
      </g>
    </g>
    <g
       id="g7613"
       transform="matrix(1.25,0,0,-1.25,266.28242,417.29527)">
      <path
         d="m 0,0 191.086,0 c 2.058,0 3.746,-1.686 3.746,-3.743 l 0,-103.475 c 0,-2.065 -1.688,-3.751 -3.746,-3.751 l -191.086,0 c -2.056,0 -3.743,1.686 -3.743,3.751 l 0,103.475 C -3.743,-1.686 -2.056,0 0,0"
         style="fill:#155196;fill-opacity:1;fill-rule:evenodd;stroke:none"
         id="path7615"
         inkscape:connector-curvature="0" />
    </g>
    <g
       id="g7617"
       transform="matrix(1.25,0,0,-1.25,405.18979,440.59002)">
      <path
         d="m 0,0 c 0,-1.078 -0.82,-1.792 -2.101,-1.792 l -4.145,0 0,3.639 4.145,0 C -0.82,1.847 0,1.126 0,0 M 2.918,-10.137 0.256,-3.891 C 1.742,-3.073 2.609,-1.637 2.609,0 2.609,1.641 1.742,3.071 0.358,3.841 -0.41,4.301 -1.074,4.455 -2.15,4.455 l -6.711,0 0,-14.592 2.615,0 0,5.734 3.891,0 2.355,-5.734 2.918,0 z m -14.695,0 0,2.612 -8.24,0 0,3.993 4.351,0 0,2.661 -4.351,0 0,2.718 7.986,0 0,2.608 -10.65,0 0,-14.592 10.904,0 z m -14.691,0 0,14.592 -2.611,0 0,-5.633 -6.553,0 0,5.633 -2.613,0 0,-14.592 2.613,0 0,6.349 6.553,0.05 0,-6.399 2.611,0 z m -14.233,12.033 0,2.559 -10.958,0 0,-2.559 4.198,0 0,-12.033 2.56,0 0,12.033 4.2,0 z m -17.46,-5.989 -4.096,0 2.047,4.913 2.049,-4.913 z m 5.374,-6.044 -6.092,14.592 -2.66,0 -6.147,-14.592 2.87,0 1.433,3.432 6.35,0 1.433,-3.432 2.813,0 z m -16.483,0 0,2.612 -8.244,0 0,3.993 4.352,0 0,2.661 -4.352,0 0,2.718 7.988,0 0,2.608 -10.648,0 0,-14.592 10.904,0 z m -13.363,14.592 -2.664,0 -1.485,-9.419 -2.25,9.419 -2.612,0 -2.151,-9.419 -1.587,9.419 -2.713,0 2.663,-14.592 2.764,0 2.304,9.78 2.355,-9.78 2.763,0 2.613,14.592 z"
         style="fill:#ffffff;fill-opacity:1;fill-rule:evenodd;stroke:none"
         id="path7619"
         inkscape:connector-curvature="0" />
    </g>
    <g
       id="g7621"
       transform="matrix(1.25,0,0,-1.25,485.64104,444.1099)">
      <path
         d="m 0,0 c 0,-2.253 -0.662,-4.965 -3.425,-4.965 -2.203,0 -3.534,1.843 -3.534,4.965 0,3.07 1.331,4.917 3.534,4.917 C -1.226,4.917 0,3.07 0,0 m 2.614,0.053 c 0,4.453 -2.455,7.475 -6.039,7.475 -3.844,0 -6.196,-2.865 -6.196,-7.528 0,-3.683 1.893,-7.587 6.196,-7.587 3.685,0 6.039,3.081 6.039,7.64 m -14.233,4.61 0,2.608 -10.904,0 0,-14.592 2.662,0 0,6.348 4.557,0 0,2.662 -4.557,0 0,2.974 8.242,0 z m -14.693,-11.984 0,14.592 -2.51,0 0,-9.625 -6.705,9.625 -2.562,0 0,-14.592 2.562,0 0,10.036 6.959,-10.036 2.256,0 z m -15.514,14.592 -2.611,0 0,-14.592 2.611,0 0,14.592 z"
         style="fill:#ffffff;fill-opacity:1;fill-rule:evenodd;stroke:none"
         id="path7623"
         inkscape:connector-curvature="0" />
    </g>
    <g
       id="g7625"
       transform="matrix(1.25,0,0,-1.25,398.57854,535.69702)">
      <path
         d="m 0,0 c 0,1.382 -0.41,2.153 -1.844,3.433 0.871,1.127 1.178,1.792 1.178,2.762 0,2.355 -2.15,4.097 -5.07,4.097 -2.096,0 -3.887,-0.772 -5.324,-2.252 l 1.943,-1.795 c 0.873,0.926 2.002,1.436 3.226,1.436 1.538,0 2.561,-0.668 2.561,-1.536 0,-0.821 -0.82,-1.432 -1.945,-1.432 l -0.616,0 0,-2.611 0.719,0 c 0.561,0 1.022,-0.106 1.434,-0.312 0.666,-0.355 1.127,-1.174 1.127,-1.89 0,-1.231 -1.229,-2.052 -3.02,-2.052 -1.691,0 -3.023,0.566 -4.045,1.899 l -2.097,-1.587 c 0.507,-0.616 0.765,-0.871 1.125,-1.183 1.279,-1.174 3.07,-1.795 4.863,-1.795 C -2.506,-4.818 0,-2.711 0,0 m -13.36,-3.377 c 0,0.766 -0.618,1.381 -1.384,1.381 -0.719,0 -1.384,-0.615 -1.384,-1.381 0,-0.72 0.665,-1.341 1.384,-1.341 0.766,0 1.384,0.621 1.384,1.341 m -7.835,3.017 c 0,-1.071 -1.228,-1.792 -3.07,-1.792 -1.794,0 -3.023,0.721 -3.023,1.848 0,1.074 1.229,1.79 3.023,1.79 1.842,0 3.07,-0.716 3.07,-1.846 m 2.61,0.056 c 0,2.557 -2.303,4.402 -5.477,4.402 -1.174,0 -1.997,-0.106 -3.277,-0.459 0.717,1.536 1.487,2.407 2.817,3.172 1.024,0.614 2.099,0.87 3.634,0.87 l 0.256,0 0,2.611 c -2.512,0 -4.197,-0.46 -5.887,-1.64 -2.455,-1.687 -3.838,-4.349 -3.838,-7.419 0,-1.998 0.562,-3.435 1.736,-4.458 1.184,-1.021 2.719,-1.593 4.457,-1.593 3.276,0 5.579,1.901 5.579,4.514 M -36.351,5.84 c 0,-1.078 -1.229,-1.848 -2.969,-1.848 -1.893,0 -3.122,0.77 -3.122,1.848 0,1.125 1.229,1.841 3.071,1.841 1.791,0 3.02,-0.767 3.02,-1.841 m 3.073,-1.537 c 0,1.942 -0.51,3.378 -1.741,4.452 -1.126,0.971 -2.662,1.537 -4.454,1.537 -3.278,0 -5.579,-1.841 -5.579,-4.452 0,-2.563 2.301,-4.458 5.478,-4.458 1.179,0 1.994,0.104 3.274,0.514 -0.716,-1.592 -1.484,-2.456 -2.813,-3.227 -1.025,-0.566 -2.1,-0.821 -3.587,-0.821 l -0.254,0 0,-2.666 c 2.51,0 4.195,0.466 5.837,1.646 2.51,1.686 3.839,4.405 3.839,7.475"
         style="fill:#ffffff;fill-opacity:1;fill-rule:evenodd;stroke:none"
         id="path7627"
         inkscape:connector-curvature="0" />
    </g>
    <g
       id="g7629"
       transform="matrix(1.25,0,0,-1.25,328.37841,501.75265)">
      <path
         d="m 0,0 c 0,-3.022 -1.331,-5.02 -3.479,-5.02 -2.204,0 -3.532,1.792 -3.532,5.02 0,2.145 0.919,4.861 3.532,4.861 C -1.278,4.861 0,3.017 0,-0.056 L 0,0 z m 2.613,0 c 0,3.68 -1.743,7.468 -6.092,7.468 -4.303,0 -6.145,-3.682 -6.145,-7.524 0,-3.838 1.793,-7.586 6.145,-7.586 4.4,0 6.092,3.9 6.092,7.642 m -15.156,-2.357 c 0,3.022 -2.408,5.273 -5.735,5.273 -0.922,0 -1.639,-0.106 -2.817,-0.359 l 0.155,2.101 7.218,0 0.054,2.557 -9.73,0 -0.46,-6.862 2.612,-0.666 c 1.074,0.412 1.841,0.566 2.815,0.566 1.073,0 1.842,-0.202 2.355,-0.614 0.562,-0.46 0.923,-1.232 0.923,-1.996 0,-1.642 -1.334,-2.612 -3.535,-2.612 -1.484,0 -2.97,0.41 -4.251,1.176 l -1.379,-2.201 c 1.839,-1.126 3.634,-1.648 5.63,-1.648 3.586,0 6.145,2.214 6.145,5.285 m -14.232,6.959 0,2.613 -11.827,0 0.048,-2.557 8.245,0 c -0.615,-0.928 -0.922,-1.387 -1.179,-1.848 -0.872,-1.431 -1.586,-3.123 -2.098,-4.964 -0.458,-1.788 -0.615,-3.021 -0.665,-5.222 l 2.61,0 c 0.052,2.201 0.258,3.533 0.818,5.273 0.565,1.691 1.486,3.633 2.459,4.968 0.355,0.56 0.613,0.815 1.589,1.737"
         style="fill:#ffffff;fill-opacity:1;fill-rule:evenodd;stroke:none"
         id="path7631"
         inkscape:connector-curvature="0" />
    </g>
    <g
       id="g7633"
       transform="matrix(1.25,0,0,-1.25,451.83354,501.75265)">
      <path
         d="m 0,0 c 0,-3.022 -1.332,-5.02 -3.485,-5.02 -2.199,0 -3.531,1.792 -3.531,5.02 0,2.145 0.92,4.861 3.531,4.861 C -1.282,4.861 0,3.017 0,-0.056 L 0,0 z m 2.613,0 c 0,3.68 -1.744,7.468 -6.098,7.468 -4.297,0 -6.14,-3.682 -6.14,-7.524 0,-3.838 1.793,-7.586 6.14,-7.586 4.404,0 6.098,3.9 6.098,7.642 m -15.156,-2.819 c 0,1.383 -0.411,2.147 -1.844,3.428 0.871,1.127 1.178,1.79 1.178,2.766 0,2.357 -2.151,4.093 -5.067,4.093 -2.103,0 -3.892,-0.765 -5.326,-2.252 l 1.947,-1.791 c 0.867,0.92 1.994,1.436 3.221,1.436 1.537,0 2.564,-0.665 2.564,-1.536 0,-0.819 -0.822,-1.435 -1.947,-1.435 l -0.617,0 0,-2.612 0.721,0 c 0.558,0 1.021,-0.099 1.431,-0.305 0.666,-0.36 1.127,-1.181 1.127,-1.895 0,-1.226 -1.228,-2.047 -3.019,-2.047 -1.688,0 -3.024,0.561 -4.045,1.896 l -2.1,-1.592 c 0.514,-0.61 0.768,-0.87 1.125,-1.175 1.281,-1.175 3.074,-1.802 4.867,-1.802 3.274,0 5.784,2.107 5.784,4.823 m -13.825,-4.557 0,2.611 -8.599,0 c 0.51,0.972 0.918,1.537 1.584,2.097 0.871,0.77 1.437,1.026 3.381,1.592 1.023,0.306 1.689,0.664 2.148,1.02 0.977,0.821 1.486,1.946 1.486,3.178 0,2.661 -2.201,4.346 -5.63,4.346 -2.356,0 -4.456,-0.765 -6.145,-2.252 l 1.793,-1.994 c 1.227,1.123 2.611,1.586 4.504,1.586 1.844,0 2.867,-0.612 2.867,-1.686 0,-0.872 -0.56,-1.386 -2.203,-1.849 -2.66,-0.714 -4.502,-2.043 -5.781,-4.195 -0.821,-1.432 -1.18,-2.712 -1.18,-4.454 l 11.775,0 z m -14.642,0 0,14.591 -2.098,0 c -0.568,-0.922 -1.178,-1.333 -2.305,-1.587 l 0.051,-2.097 1.842,0 -0.047,-10.907 2.557,0 z"
         style="fill:#ffffff;fill-opacity:1;fill-rule:evenodd;stroke:none"
         id="path7635"
         inkscape:connector-curvature="0" />
    </g>
    <g
       id="g7637"
       transform="matrix(1.25,0,0,-1.25,359.20116,480.52165)">
      <path
         d="m 0,0 0,1.74 -5.497,0 0,2.661 2.898,0 0,1.778 -2.898,0 0,1.809 5.323,0 0,1.74 -7.097,0 L -7.271,0 0,0 z m -9.798,0 0,9.728 -1.674,0 0,-6.418 -4.468,6.418 -1.707,0 0,-9.728 1.707,0 0,6.692 L -11.3,0 -9.798,0 z m -10.376,3.926 0,5.802 -1.741,0 0,-5.802 c 0,-0.545 -0.066,-0.887 -0.306,-1.265 -0.379,-0.646 -1.091,-1.054 -1.881,-1.054 -0.779,0 -1.499,0.408 -1.873,1.054 -0.239,0.378 -0.31,0.687 -0.31,1.265 l 0,5.802 -1.739,0 0,-5.802 c 0,-2.39 1.639,-4.101 3.922,-4.101 2.293,0 3.928,1.711 3.928,4.101 m -9.488,4.096 0,1.706 -7.304,0 0,-1.706 2.797,0 0,-8.022 1.705,0 0,8.022 2.802,0 z"
         style="fill:#ffffff;fill-opacity:1;fill-rule:evenodd;stroke:none"
         id="path7639"
         inkscape:connector-curvature="0" />
    </g>
    <g
       id="g7641"
       transform="matrix(1.25,0,0,-1.25,423.88854,474.41927)">
      <path
         d="m 0,0 c 0,-1.501 -0.443,-3.311 -2.287,-3.311 -1.471,0 -2.357,1.229 -2.357,3.311 0,2.05 0.886,3.277 2.357,3.277 C -0.818,3.277 0,2.05 0,0 m 1.738,0.035 c 0,2.969 -1.636,4.981 -4.025,4.981 -2.559,0 -4.133,-1.91 -4.133,-5.016 0,-2.459 1.264,-5.057 4.133,-5.057 2.455,0 4.025,2.054 4.025,5.092 m -10.341,4.811 -1.743,0 0,-9.728 1.743,0 0,9.728 z M -14.305,0 c 0,-1.33 -0.478,-2.221 -1.498,-2.765 -0.412,-0.238 -0.886,-0.377 -1.402,-0.377 l -1.363,0 0,6.248 1.363,0 c 0.516,0 1.025,-0.136 1.471,-0.375 0.951,-0.547 1.429,-1.434 1.429,-2.731 m 1.741,0 c 0,1.911 -0.819,3.379 -2.317,4.233 -0.719,0.41 -1.502,0.613 -2.324,0.613 l -3.137,0 0,-9.728 3.137,0 c 0.787,0 1.605,0.203 2.287,0.582 1.535,0.854 2.354,2.358 2.354,4.3 m -13,-0.853 -2.733,0 1.365,3.277 1.368,-3.277 z m 3.582,-4.029 -4.061,9.728 -1.775,0 -4.092,-9.728 1.906,0 0.957,2.29 4.233,0 0.955,-2.29 1.877,0 z m -12.934,6.759 c 0,-0.716 -0.548,-1.192 -1.396,-1.192 l -2.77,0 0,2.421 2.77,0 c 0.848,0 1.396,-0.476 1.396,-1.229 m 1.946,-6.759 -1.773,4.163 c 0.986,0.551 1.568,1.503 1.568,2.596 0,1.093 -0.582,2.047 -1.503,2.562 -0.51,0.305 -0.955,0.407 -1.672,0.407 l -4.47,0 0,-9.728 1.738,0 0,3.827 2.596,0 1.57,-3.827 1.946,0 z"
         style="fill:#ffffff;fill-opacity:1;fill-rule:evenodd;stroke:none"
         id="path7643"
         inkscape:connector-curvature="0" />
    </g>
    <g
       id="g7645"
       transform="matrix(1.25,0,0,-1.25,456.44229,474.41927)">
      <path
         d="m 0,0 c 0,-1.501 -0.443,-3.311 -2.289,-3.311 -1.467,0 -2.352,1.229 -2.352,3.311 0,2.05 0.885,3.277 2.352,3.277 C -0.82,3.277 0,2.05 0,0 m 1.738,0.035 c 0,2.969 -1.634,4.981 -4.027,4.981 -2.559,0 -4.127,-1.91 -4.127,-5.016 0,-2.459 1.264,-5.057 4.127,-5.057 2.459,0 4.027,2.054 4.027,5.092 m -9.486,3.105 0,1.706 -7.303,0 0,-1.706 2.799,0 0,-8.022 1.707,0 0,8.022 2.797,0 z"
         style="fill:#ffffff;fill-opacity:1;fill-rule:evenodd;stroke:none"
         id="path7647"
         inkscape:connector-curvature="0" />
    </g>
    <g
       id="g7649"
       transform="matrix(1.25,0,0,-1.25,431.54479,541.39452)">
      <path
         d="m 0,0 0,9.726 -1.705,0 -2.867,-5.767 -2.832,5.767 -1.707,0 0,-9.726 1.707,0 0,5.94 L -4.572,0 -1.705,5.94 -1.705,0 0,0 z m -10.75,7.984 0,1.742 -7.273,0 0,-9.726 1.773,0 0,4.232 3.041,0 0,1.774 -3.041,0 0,1.978 5.5,0 z"
         style="fill:#ffffff;fill-opacity:1;fill-rule:evenodd;stroke:none"
         id="path7651"
         inkscape:connector-curvature="0" />
    </g>
    <g
       id="g7653"
       transform="matrix(1.25,0,0,-1.25,346.43804,501.87665)">
      <path
         d="m 0,0 -1.363,-3.272 2.726,0 L 0,0 z m 3.067,-7.293 -0.954,2.283 -4.226,0 -0.954,-2.283 -1.909,0 4.09,9.713 1.773,0 4.055,-9.713 -1.875,0 z"
         style="fill:#ffffff;fill-opacity:1;fill-rule:nonzero;stroke:none"
         id="path7655"
         inkscape:connector-curvature="0" />
    </g>
    <g
       id="g7657"
       transform="matrix(1.25,0,0,-1.25,363.94666,510.99327)">
      <path
         d="M 0,0 0,5.93 -2.862,0 l -2.829,5.93 0,-5.93 -1.705,0 0,9.713 1.705,0 L -2.862,3.954 0,9.713 1.704,9.713 1.704,0 0,0 z"
         style="fill:#ffffff;fill-opacity:1;fill-rule:nonzero;stroke:none"
         id="path7659"
         inkscape:connector-curvature="0" />
    </g>
    <g
       id="g7661"
       transform="matrix(1.25,0,0,-1.25,469.88729,501.87665)">
      <path
         d="m 0,0 -1.363,-3.272 2.726,0 L 0,0 z m 3.067,-7.293 -0.954,2.283 -4.226,0 -0.954,-2.283 -1.909,0 4.09,9.713 1.773,0 4.055,-9.713 -1.875,0 z"
         style="fill:#ffffff;fill-opacity:1;fill-rule:nonzero;stroke:none"
         id="path7663"
         inkscape:connector-curvature="0" />
    </g>
    <g
       id="g7665"
       transform="matrix(1.25,0,0,-1.25,487.39604,510.99327)">
      <path
         d="M 0,0 0,5.93 -2.863,0 l -2.829,5.93 0,-5.93 -1.704,0 0,9.713 1.704,0 L -2.863,3.954 0,9.713 1.704,9.713 1.704,0 0,0 z"
         style="fill:#ffffff;fill-opacity:1;fill-rule:nonzero;stroke:none"
         id="path7667"
         inkscape:connector-curvature="0" />
    </g>
  </g>
</svg>
