<?xml version="1.0" encoding="UTF-8" standalone="no"?>
<!-- Created with Inkscape (http://www.inkscape.org/) -->

<svg
   xmlns:dc="http://purl.org/dc/elements/1.1/"
   xmlns:cc="http://creativecommons.org/ns#"
   xmlns:rdf="http://www.w3.org/1999/02/22-rdf-syntax-ns#"
   xmlns:svg="http://www.w3.org/2000/svg"
   xmlns="http://www.w3.org/2000/svg"
   xmlns:sodipodi="http://sodipodi.sourceforge.net/DTD/sodipodi-0.dtd"
   xmlns:inkscape="http://www.inkscape.org/namespaces/inkscape"
   width="185.81688"
   height="128.39844"
   id="svg8795"
   version="1.1"
   inkscape:version="0.48.3.1 r9886"
   sodipodi:docname="New document 39">
  <defs
     id="defs8797">
    <clipPath
       clipPathUnits="userSpaceOnUse"
       id="clipPath7729">
      <path
         inkscape:connector-curvature="0"
         d="m 27,42 513,0 0,453.744 -513,0 L 27,42 z"
         id="path7731" />
    </clipPath>
    <clipPath
       clipPathUnits="userSpaceOnUse"
       id="clipPath7713">
      <path
         inkscape:connector-curvature="0"
         d="m 27,42 513,0 0,453.744 -513,0 L 27,42 z"
         id="path7715" />
    </clipPath>
    <clipPath
       clipPathUnits="userSpaceOnUse"
       id="clipPath7701">
      <path
         inkscape:connector-curvature="0"
         d="m 112.8,43.969 371.064,0 0,451.775 -371.064,0 0,-451.775 z"
         id="path7703" />
    </clipPath>
    <clipPath
       clipPathUnits="userSpaceOnUse"
       id="clipPath7689">
      <path
         inkscape:connector-curvature="0"
         d="m 27,42 513,0 0,453.744 -513,0 L 27,42 z"
         id="path7691" />
    </clipPath>
    <clipPath
       clipPathUnits="userSpaceOnUse"
       id="clipPath7677">
      <path
         inkscape:connector-curvature="0"
         d="m 112.8,43.969 371.064,0 0,451.775 -371.064,0 0,-451.775 z"
         id="path7679" />
    </clipPath>
  </defs>
  <sodipodi:namedview
     id="base"
     pagecolor="#ffffff"
     bordercolor="#666666"
     borderopacity="1.0"
     inkscape:pageopacity="0.0"
     inkscape:pageshadow="2"
     inkscape:zoom="0.35"
     inkscape:cx="92.909375"
     inkscape:cy="64.20348"
     inkscape:document-units="px"
     inkscape:current-layer="layer1"
     showgrid="false"
     fit-margin-top="0"
     fit-margin-left="0"
     fit-margin-right="0"
     fit-margin-bottom="0"
     inkscape:window-width="451"
     inkscape:window-height="398"
     inkscape:window-x="125"
     inkscape:window-y="125"
     inkscape:window-maximized="0" />
  <metadata
     id="metadata8800">
    <rdf:RDF>
      <cc:Work
         rdf:about="">
        <dc:format>image/svg+xml</dc:format>
        <dc:type
           rdf:resource="http://purl.org/dc/dcmitype/StillImage" />
        <dc:title></dc:title>
      </cc:Work>
    </rdf:RDF>
  </metadata>
  <g
     inkscape:label="Layer 1"
     inkscape:groupmode="layer"
     id="layer1"
     transform="translate(-282.09063,-468.16723)">
    <g
       id="g7669"
       transform="matrix(1.25,0,0,-1.25,290.91875,468.47969)">
      <path
         d="m 0,0 134.531,0 c 3.748,0 6.809,-3.064 6.809,-6.809 l 0,-88.594 c 0,-3.744 -3.061,-6.809 -6.809,-6.809 l -134.531,0 c -3.748,0 -6.81,3.065 -6.81,6.809 l 0,88.594 C -6.81,-3.107 -3.701,0 0,0"
         style="fill:#ffffff;fill-opacity:1;fill-rule:nonzero;stroke:none"
         id="path7671"
         inkscape:connector-curvature="0" />
    </g>
    <g
       transform="matrix(1.25,0,0,-1.25,-136.9225,1041.9601)"
       id="g7673">
      <g
         id="g7675"
         clip-path="url(#clipPath7677)">
        <g
           id="g7681"
           transform="translate(342.273,458.7843)">
          <path
             inkscape:connector-curvature="0"
             d="m 0,0 134.531,0 c 3.748,0 6.809,-3.064 6.809,-6.809 l 0,-88.594 c 0,-3.744 -3.061,-6.809 -6.809,-6.809 l -134.531,0 c -3.748,0 -6.81,3.065 -6.81,6.809 l 0,88.594 C -6.81,-3.107 -3.701,0 0,0"
             style="fill:none;stroke:#231f20;stroke-width:0.5;stroke-linecap:butt;stroke-linejoin:miter;stroke-miterlimit:4;stroke-opacity:1;stroke-dasharray:none"
             id="path7683" />
        </g>
      </g>
    </g>
    <g
       transform="matrix(1.25,0,0,-1.25,-136.9225,1041.9601)"
       id="g7685">
      <g
         id="g7687"
         clip-path="url(#clipPath7689)">
        <g
           id="g7693"
           transform="translate(342.273,458.7843)">
          <path
             inkscape:connector-curvature="0"
             d="m 0,0 134.531,0 c 3.748,0 6.809,-3.064 6.809,-6.809 l 0,-88.594 c 0,-3.744 -3.061,-6.809 -6.809,-6.809 l -134.531,0 c -3.748,0 -6.81,3.065 -6.81,6.809 l 0,88.594 C -6.81,-3.107 -3.701,0 0,0"
             style="fill:#ffffff;fill-opacity:1;fill-rule:nonzero;stroke:none"
             id="path7695" />
        </g>
      </g>
    </g>
    <g
       transform="matrix(1.25,0,0,-1.25,-136.9225,1041.9601)"
       id="g7697">
      <g
         id="g7699"
         clip-path="url(#clipPath7701)">
        <g
           id="g7705"
           transform="translate(342.273,458.7843)">
          <path
             inkscape:connector-curvature="0"
             d="m 0,0 134.531,0 c 3.748,0 6.809,-3.064 6.809,-6.809 l 0,-88.594 c 0,-3.744 -3.061,-6.809 -6.809,-6.809 l -134.531,0 c -3.748,0 -6.81,3.065 -6.81,6.809 l 0,88.594 C -6.81,-3.107 -3.701,0 0,0"
             style="fill:none;stroke:#231f20;stroke-width:0.5;stroke-linecap:butt;stroke-linejoin:miter;stroke-miterlimit:4;stroke-opacity:1;stroke-dasharray:none"
             id="path7707" />
        </g>
      </g>
    </g>
    <g
       transform="matrix(1.25,0,0,-1.25,-136.9225,1041.9601)"
       id="g7709">
      <g
         id="g7711"
         clip-path="url(#clipPath7713)">
        <g
           id="g7717"
           transform="translate(476.769,455.8663)">
          <path
             inkscape:connector-curvature="0"
             d="M 0,0 C 2.184,-0.063 3.881,-1.73 3.926,-3.928 L 3.916,-92.685 C 3.774,-94.751 2.076,-96.36 0,-96.374 l -134.699,0.006 c -2.061,0.146 -3.68,1.846 -3.687,3.92 l 0.007,88.757 c 0.153,2.062 1.838,3.681 3.916,3.691 L 0,0"
             style="fill:#155196;fill-opacity:1;fill-rule:evenodd;stroke:none"
             id="path7719" />
        </g>
      </g>
    </g>
    <g
       transform="matrix(1.25,0,0,-1.25,-136.9225,1041.9601)"
       id="g7725">
      <g
         id="g7727"
         clip-path="url(#clipPath7729)">
        <g
           id="g7733"
           transform="translate(364.713,432.6309)">
          <path
             inkscape:connector-curvature="0"
             d="m 0,0 c -0.623,-0.946 -1.413,-1.706 -2.366,-2.281 -1.033,-0.614 -2.117,-0.921 -3.255,-0.921 -1.823,0 -3.327,0.76 -4.514,2.28 -1.129,1.432 -1.694,3.156 -1.694,5.173 0,1.938 0.516,3.619 1.549,5.041 1.178,1.608 2.735,2.412 4.672,2.412 1.149,0 2.264,-0.317 3.344,-0.951 C -1.223,10.139 -0.469,9.389 0,8.501 L -2.393,7.2 c -0.846,1.245 -1.932,1.867 -3.254,1.867 -1.215,0 -2.129,-0.496 -2.742,-1.488 -0.535,-0.847 -0.803,-1.956 -0.803,-3.328 0,-1.343 0.287,-2.452 0.862,-3.328 0.65,-0.992 1.55,-1.488 2.699,-1.488 1.058,0 2.125,0.612 3.193,1.837 L 0,0 z"
             style="fill:#ffffff;fill-opacity:1;fill-rule:nonzero;stroke:none"
             id="path7735" />
        </g>
        <g
           id="g7737"
           transform="translate(376.289,435.5635)">
          <path
             inkscape:connector-curvature="0"
             d="M 0,0 -2.088,5.012 -4.192,0 0,0 z m 5.359,-5.982 -2.848,0 -1.402,3.346 -6.394,0 -1.403,-3.346 -2.847,0 6.103,14.601 2.672,0 6.119,-14.601 z"
             style="fill:#ffffff;fill-opacity:1;fill-rule:nonzero;stroke:none"
             id="path7739" />
        </g>
        <g
           id="g7741"
           transform="translate(393.191,439.6915)">
          <path
             inkscape:connector-curvature="0"
             d="m 0,0 c 0,0.477 -0.201,0.905 -0.603,1.285 -0.403,0.38 -0.848,0.57 -1.332,0.57 l -4.487,0 0,-3.651 4.516,0 c 0.484,0 0.924,0.18 1.316,0.541 C -0.195,-0.895 0,-0.477 0,0 m 0.17,-3.949 2.6,-6.161 -2.86,0 -2.406,5.678 -3.926,0 0,-5.678 -2.636,0 0,14.601 7.197,0 c 1.226,0 2.281,-0.433 3.168,-1.3 C 2.192,2.325 2.631,1.264 2.621,0.008 2.611,-0.887 2.385,-1.683 1.942,-2.379 1.5,-3.075 0.91,-3.598 0.17,-3.949"
             style="fill:#ffffff;fill-opacity:1;fill-rule:nonzero;stroke:none"
             id="path7743" />
        </g>
        <g
           id="g7745"
           transform="translate(419.773,439.6915)">
          <path
             inkscape:connector-curvature="0"
             d="m 0,0 c 0,0.477 -0.201,0.905 -0.605,1.285 -0.403,0.38 -0.848,0.57 -1.334,0.57 l -4.635,0 0,-3.651 4.664,0 c 0.486,0 0.926,0.18 1.32,0.541 C -0.197,-0.895 0,-0.477 0,0 M 2.619,0 C 2.61,-1.287 2.166,-2.348 1.291,-3.182 0.416,-4.016 -0.635,-4.432 -1.861,-4.432 l -4.713,0 0,-5.678 -2.637,0 0,14.601 7.346,0 c 1.226,0 2.283,-0.434 3.17,-1.302 C 2.192,2.321 2.629,1.258 2.619,0"
             style="fill:#ffffff;fill-opacity:1;fill-rule:nonzero;stroke:none"
             id="path7747" />
        </g>
        <g
           id="g7749"
           transform="translate(434.15,436.8829)">
          <path
             inkscape:connector-curvature="0"
             d="M 0,0 C 0,1.304 -0.297,2.423 -0.892,3.357 -1.564,4.408 -2.463,4.934 -3.584,4.934 -4.695,4.934 -5.586,4.408 -6.26,3.357 -6.863,2.423 -7.166,1.304 -7.166,0 c 0,-1.294 0.303,-2.408 0.906,-3.343 0.674,-1.051 1.565,-1.576 2.676,-1.576 1.121,0 2.02,0.525 2.692,1.576 C -0.297,-2.408 0,-1.294 0,0 m 2.551,-0.001 c 0,-1.995 -0.549,-3.717 -1.651,-5.166 -1.177,-1.547 -2.671,-2.321 -4.484,-2.321 -1.81,0 -3.305,0.774 -4.482,2.321 -1.102,1.449 -1.653,3.171 -1.653,5.166 0,1.994 0.551,3.716 1.653,5.166 1.177,1.547 2.672,2.32 4.482,2.32 1.813,0 3.307,-0.773 4.484,-2.32 1.102,-1.45 1.651,-3.172 1.651,-5.166"
             style="fill:#ffffff;fill-opacity:1;fill-rule:nonzero;stroke:none"
             id="path7751" />
        </g>
        <g
           id="g7753"
           transform="translate(449.336,436.8829)">
          <path
             inkscape:connector-curvature="0"
             d="M 0,0 C 0,1.304 -0.297,2.423 -0.893,3.357 -1.565,4.408 -2.461,4.934 -3.584,4.934 -4.696,4.934 -5.586,4.408 -6.26,3.357 -6.864,2.423 -7.166,1.304 -7.166,0 c 0,-1.294 0.302,-2.408 0.906,-3.343 0.674,-1.051 1.564,-1.576 2.676,-1.576 1.123,0 2.019,0.525 2.691,1.576 C -0.297,-2.408 0,-1.294 0,0 m 2.55,-0.001 c 0,-1.995 -0.548,-3.717 -1.65,-5.166 -1.178,-1.547 -2.672,-2.321 -4.484,-2.321 -1.811,0 -3.305,0.774 -4.483,2.321 -1.101,1.449 -1.652,3.171 -1.652,5.166 0,1.994 0.551,3.716 1.652,5.166 1.178,1.547 2.672,2.32 4.483,2.32 1.812,0 3.306,-0.773 4.484,-2.32 1.102,-1.45 1.65,-3.172 1.65,-5.166"
             style="fill:#ffffff;fill-opacity:1;fill-rule:nonzero;stroke:none"
             id="path7755" />
        </g>
        <g
           id="g7757"
           transform="translate(466.193,429.5811)">
          <path
             inkscape:connector-curvature="0"
             d="m 0,0 -10.951,0 0,14.602 2.637,0 0,-11.966 L 0,2.636 0,0 z"
             style="fill:#ffffff;fill-opacity:1;fill-rule:nonzero;stroke:none"
             id="path7759" />
        </g>
        <path
           inkscape:connector-curvature="0"
           d="m 388.521,400.378 -2.637,0 0,14.602 2.637,0 0,-14.602 z"
           style="fill:#ffffff;fill-opacity:1;fill-rule:nonzero;stroke:none"
           id="path7761" />
        <g
           id="g7763"
           transform="translate(404.138,400.3775)">
          <path
             inkscape:connector-curvature="0"
             d="m 0,0 -2.636,0 c -1.186,1.772 -3.371,5.047 -6.557,9.827 l 0,-9.827 -2.637,0 0,14.602 2.629,0 6.571,-9.856 -0.006,9.856 2.636,0 L 0,0 z"
             style="fill:#ffffff;fill-opacity:1;fill-rule:nonzero;stroke:none"
             id="path7765" />
        </g>
        <g
           id="g7767"
           transform="translate(418.883,412.3428)">
          <path
             inkscape:connector-curvature="0"
             d="m 0,0 -8.315,0 0,-2.907 4.664,0 0,-2.636 -4.664,0 0,-6.422 -2.637,0 0,14.602 L 0,2.637 0,0 z"
             style="fill:#ffffff;fill-opacity:1;fill-rule:nonzero;stroke:none"
             id="path7769" />
        </g>
        <g
           id="g7771"
           transform="translate(430.644,407.6798)">
          <path
             inkscape:connector-curvature="0"
             d="M 0,0 C 0,1.304 -0.299,2.423 -0.892,3.357 -1.566,4.408 -2.463,4.934 -3.584,4.934 -4.695,4.934 -5.588,4.408 -6.26,3.357 -6.865,2.423 -7.166,1.304 -7.166,0 c 0,-1.294 0.301,-2.408 0.906,-3.343 0.672,-1.051 1.565,-1.576 2.676,-1.576 1.121,0 2.018,0.525 2.692,1.576 C -0.299,-2.408 0,-1.294 0,0 m 2.551,-0.001 c 0,-1.995 -0.551,-3.717 -1.65,-5.167 -1.178,-1.546 -2.674,-2.32 -4.485,-2.32 -1.81,0 -3.304,0.774 -4.484,2.32 -1.1,1.45 -1.651,3.172 -1.651,5.167 0,1.994 0.551,3.716 1.651,5.166 1.18,1.547 2.674,2.32 4.484,2.32 1.811,0 3.307,-0.773 4.485,-2.32 C 2,3.715 2.551,1.993 2.551,-0.001"
             style="fill:#ffffff;fill-opacity:1;fill-rule:nonzero;stroke:none"
             id="path7773" />
        </g>
        <g
           id="g7775"
           transform="translate(355.799,374.2247)">
          <path
             inkscape:connector-curvature="0"
             d="m 0,0 c -0.624,-0.946 -1.413,-1.706 -2.366,-2.281 -1.033,-0.615 -2.117,-0.921 -3.256,-0.921 -1.82,0 -3.324,0.76 -4.511,2.28 -1.131,1.431 -1.696,3.156 -1.696,5.172 0,1.939 0.516,3.62 1.549,5.042 1.178,1.608 2.735,2.412 4.672,2.412 1.149,0 2.264,-0.317 3.344,-0.951 C -1.223,10.139 -0.467,9.389 0,8.501 L -2.393,7.2 c -0.846,1.245 -1.932,1.867 -3.254,1.867 -1.215,0 -2.129,-0.496 -2.742,-1.488 -0.535,-0.847 -0.803,-1.956 -0.803,-3.329 0,-1.342 0.287,-2.452 0.861,-3.327 0.653,-0.993 1.551,-1.489 2.7,-1.489 1.058,0 2.125,0.613 3.195,1.838 L 0,0 z"
             style="fill:#ffffff;fill-opacity:1;fill-rule:nonzero;stroke:none"
             id="path7777" />
        </g>
        <g
           id="g7779"
           transform="translate(367.375,377.1577)">
          <path
             inkscape:connector-curvature="0"
             d="M 0,0 -2.088,5.012 -4.192,0 0,0 z m 5.359,-5.983 -2.848,0 -1.402,3.346 -6.394,0 -1.403,-3.346 -2.847,0 6.103,14.601 2.672,0 6.119,-14.601 z"
             style="fill:#ffffff;fill-opacity:1;fill-rule:nonzero;stroke:none"
             id="path7781" />
        </g>
        <g
           id="g7783"
           transform="translate(386.172,371.1747)">
          <path
             inkscape:connector-curvature="0"
             d="m 0,0 -10.952,0 0,14.601 2.635,0 0,-11.965 L 0,2.636 0,0 z"
             style="fill:#ffffff;fill-opacity:1;fill-rule:nonzero;stroke:none"
             id="path7785" />
        </g>
        <g
           id="g7787"
           transform="translate(399.605,371.1747)">
          <path
             inkscape:connector-curvature="0"
             d="m 0,0 -10.951,0 0,14.601 2.635,0 0,-11.965 L 0,2.636 0,0 z"
             style="fill:#ffffff;fill-opacity:1;fill-rule:nonzero;stroke:none"
             id="path7789" />
        </g>
        <g
           id="g7791"
           transform="translate(443.8589,374.2247)">
          <path
             inkscape:connector-curvature="0"
             d="m 0,0 c -0.623,-0.946 -1.412,-1.706 -2.365,-2.281 -1.031,-0.615 -2.117,-0.921 -3.256,-0.921 -1.82,0 -3.324,0.76 -4.512,2.28 -1.129,1.431 -1.693,3.156 -1.693,5.172 0,1.939 0.516,3.62 1.547,5.042 1.178,1.608 2.734,2.412 4.672,2.412 1.148,0 2.263,-0.317 3.343,-0.951 C -1.223,10.139 -0.467,9.389 0,8.501 L -2.392,7.2 c -0.846,1.245 -1.93,1.867 -3.254,1.867 -1.215,0 -2.129,-0.496 -2.743,-1.488 -0.535,-0.847 -0.802,-1.956 -0.802,-3.329 0,-1.342 0.287,-2.452 0.861,-3.327 0.652,-0.993 1.551,-1.489 2.699,-1.489 1.061,0 2.125,0.613 3.196,1.838 L 0,0 z"
             style="fill:#ffffff;fill-opacity:1;fill-rule:nonzero;stroke:none"
             id="path7793" />
        </g>
        <g
           id="g7795"
           transform="translate(455.435,377.1577)">
          <path
             inkscape:connector-curvature="0"
             d="M 0,0 -2.088,5.012 -4.191,0 0,0 z m 5.36,-5.983 -2.848,0 -1.402,3.346 -6.395,0 -1.402,-3.346 -2.848,0 6.104,14.601 2.671,0 6.12,-14.601 z"
             style="fill:#ffffff;fill-opacity:1;fill-rule:nonzero;stroke:none"
             id="path7797" />
        </g>
        <g
           id="g7799"
           transform="translate(472.34,381.2857)">
          <path
             inkscape:connector-curvature="0"
             d="m 0,0 c 0,0.477 -0.204,0.905 -0.606,1.285 -0.402,0.379 -0.848,0.569 -1.332,0.569 l -4.484,0 0,-3.65 4.513,0 c 0.485,0 0.924,0.18 1.319,0.54 C -0.198,-0.896 0,-0.478 0,0 m 0.169,-3.949 2.598,-6.162 -2.859,0 -2.406,5.678 -3.924,0 0,-5.678 -2.637,0 0,14.601 7.195,0 C -0.637,4.49 0.419,4.057 1.304,3.191 2.191,2.324 2.628,1.263 2.619,0.008 2.609,-0.888 2.382,-1.684 1.941,-2.38 1.498,-3.076 0.908,-3.599 0.169,-3.949"
             style="fill:#ffffff;fill-opacity:1;fill-rule:nonzero;stroke:none"
             id="path7801" />
        </g>
        <g
           id="g7803"
           transform="translate(429.111,379.7937)">
          <path
             inkscape:connector-curvature="0"
             d="M 0,0 -5.17,0 -2.584,4.477 -4.867,5.795 -7.453,1.318 -10.037,5.795 -12.32,4.477 -9.736,0 l -5.168,0 0,-2.636 5.168,0 -2.584,-4.477 2.283,-1.319 2.584,4.477 2.586,-4.477 2.283,1.319 -2.586,4.477 5.17,0 L 0,0 z"
             style="fill:#ffffff;fill-opacity:1;fill-rule:nonzero;stroke:none"
             id="path7805" />
        </g>
      </g>
    </g>
  </g>
</svg>
