<?xml version="1.0" encoding="UTF-8" standalone="no"?>
<!-- Created with Inkscape (http://www.inkscape.org/) -->

<svg
   xmlns:dc="http://purl.org/dc/elements/1.1/"
   xmlns:cc="http://creativecommons.org/ns#"
   xmlns:rdf="http://www.w3.org/1999/02/22-rdf-syntax-ns#"
   xmlns:svg="http://www.w3.org/2000/svg"
   xmlns="http://www.w3.org/2000/svg"
   xmlns:sodipodi="http://sodipodi.sourceforge.net/DTD/sodipodi-0.dtd"
   xmlns:inkscape="http://www.inkscape.org/namespaces/inkscape"
   width="183.125"
   height="91.875"
   id="svg9166"
   version="1.1"
   inkscape:version="0.48.3.1 r9886"
   sodipodi:docname="New document 43">
  <defs
     id="defs9168" />
  <sodipodi:namedview
     id="base"
     pagecolor="#ffffff"
     bordercolor="#666666"
     borderopacity="1.0"
     inkscape:pageopacity="0.0"
     inkscape:pageshadow="2"
     inkscape:zoom="0.35"
     inkscape:cx="91.570625"
     inkscape:cy="45.935627"
     inkscape:document-units="px"
     inkscape:current-layer="layer1"
     showgrid="false"
     fit-margin-top="0"
     fit-margin-left="0"
     fit-margin-right="0"
     fit-margin-bottom="0"
     inkscape:window-width="451"
     inkscape:window-height="398"
     inkscape:window-x="25"
     inkscape:window-y="25"
     inkscape:window-maximized="0" />
  <metadata
     id="metadata9171">
    <rdf:RDF>
      <cc:Work
         rdf:about="">
        <dc:format>image/svg+xml</dc:format>
        <dc:type
           rdf:resource="http://purl.org/dc/dcmitype/StillImage" />
        <dc:title></dc:title>
      </cc:Work>
    </rdf:RDF>
  </metadata>
  <g
     inkscape:label="Layer 1"
     inkscape:groupmode="layer"
     id="layer1"
     transform="translate(-283.42937,-486.42281)">
    <g
       id="g7509"
       transform="matrix(1.25,0,0,-1.25,292.2575,486.73531)">
      <path
         d="m 0,0 132.389,0 c 3.748,0 6.809,-3.064 6.809,-6.808 l 0,-59.387 c 0,-3.744 -3.061,-6.808 -6.809,-6.808 L 0,-73.003 c -3.748,0 -6.81,3.064 -6.81,6.808 l 0,59.387 C -6.81,-3.107 -3.701,0 0,0"
         style="fill:#ffffff;fill-opacity:1;fill-rule:nonzero;stroke:#231f20;stroke-width:0.5;stroke-linecap:butt;stroke-linejoin:miter;stroke-miterlimit:4;stroke-opacity:1;stroke-dasharray:none"
         id="path7511"
         inkscape:connector-curvature="0" />
    </g>
    <g
       id="g7513"
       transform="matrix(1.25,0,0,-1.25,292.2575,486.73531)">
      <path
         d="m 0,0 132.389,0 c 3.748,0 6.809,-3.064 6.809,-6.808 l 0,-59.387 c 0,-3.744 -3.061,-6.808 -6.809,-6.808 L 0,-73.003 c -3.748,0 -6.81,3.064 -6.81,6.808 l 0,59.387 C -6.81,-3.107 -3.701,0 0,0"
         style="fill:#ffffff;fill-opacity:1;fill-rule:nonzero;stroke:#231f20;stroke-width:0.5;stroke-linecap:butt;stroke-linejoin:miter;stroke-miterlimit:4;stroke-opacity:1;stroke-dasharray:none"
         id="path7515"
         inkscape:connector-curvature="0" />
    </g>
    <g
       id="g7517"
       transform="matrix(1.25,0,0,-1.25,457.7,490.38281)">
      <path
         d="M 0,0 C 2.184,-0.062 3.881,-1.73 3.926,-3.927 L 3.916,-63.476 C 3.773,-65.542 2.076,-67.152 0,-67.165 l -132.557,0.006 c -2.06,0.146 -3.679,1.845 -3.687,3.92 l 0.008,59.548 c 0.152,2.062 1.837,3.682 3.916,3.691 L 0,0"
         style="fill:#155196;fill-opacity:1;fill-rule:evenodd;stroke:none"
         id="path7519"
         inkscape:connector-curvature="0" />
    </g>
    <g
       id="g7521"
       transform="matrix(1.25,0,0,-1.25,305.1925,524.91656)">
      <path
         d="m 0,0 0,14.643 8.633,0 0,-2.312 -6.318,0 0,-3.596 4.263,0 0,-2.364 -4.263,0 0,-4.007 6.781,0 L 9.096,0 0,0 z"
         style="fill:#ffffff;fill-opacity:1;fill-rule:nonzero;stroke:none"
         id="path7523"
         inkscape:connector-curvature="0" />
    </g>
    <g
       id="g7525"
       transform="matrix(1.25,0,0,-1.25,331.0125,524.91656)">
      <path
         d="M 0,0 0,8.478 -3.39,0 l -3.393,8.478 0,-8.478 -2.31,0 0,14.643 2.31,0 3.393,-8.22 3.39,8.22 2.311,0 L 2.311,0 0,0 z"
         style="fill:#ffffff;fill-opacity:1;fill-rule:nonzero;stroke:none"
         id="path7527"
         inkscape:connector-curvature="0" />
    </g>
    <g
       id="g7529"
       transform="matrix(1.25,0,0,-1.25,338.26875,524.91656)">
      <path
         d="m 0,0 0,14.643 8.631,0 0,-2.312 -6.318,0 0,-3.596 4.263,0 0,-2.364 -4.263,0 0,-4.007 6.781,0 L 9.094,0 0,0 z"
         style="fill:#ffffff;fill-opacity:1;fill-rule:nonzero;stroke:none"
         id="path7531"
         inkscape:connector-curvature="0" />
    </g>
    <g
       id="g7533"
       transform="matrix(1.25,0,0,-1.25,365.1775,524.91656)">
      <path
         d="m 0,0 -2.57,6.834 c 1.336,0.616 2.262,2.158 2.262,3.699 0,1.49 -0.926,3.031 -2.209,3.647 -0.721,0.36 -1.49,0.463 -2.621,0.463 l -4.83,0 0,-14.643 2.312,0 0,6.371 2.775,0 L -2.517,0 0,0 z M -2.621,10.533 C -2.621,9.916 -2.98,9.3 -3.545,8.992 -3.906,8.786 -4.162,8.735 -4.881,8.735 l -2.775,0 0,3.596 2.775,0 c 0.77,0 0.975,-0.051 1.336,-0.257 0.565,-0.308 0.924,-0.925 0.924,-1.541"
         style="fill:#ffffff;fill-opacity:1;fill-rule:nonzero;stroke:none"
         id="path7535"
         inkscape:connector-curvature="0" />
    </g>
    <g
       id="g7537"
       transform="matrix(1.25,0,0,-1.25,374.5525,525.23781)">
      <path
         d="m 0,0 c -2.209,0 -3.494,0.822 -4.367,2.672 -0.617,1.285 -0.976,3.083 -0.976,4.881 0,2.363 0.668,4.676 1.644,5.96 0.873,1.079 2.106,1.644 3.75,1.644 2.262,0 3.598,-0.925 4.572,-3.237 L 2.414,11.047 c -0.615,1.284 -1.232,1.746 -2.363,1.746 -1.182,0 -1.951,-0.513 -2.465,-1.797 -0.361,-0.874 -0.566,-2.21 -0.566,-3.443 0,-1.541 0.258,-3.083 0.719,-4.008 0.463,-0.821 1.13,-1.181 2.004,-1.181 1.49,0 2.57,0.925 2.57,2.261 l 0,0.616 -2.672,0 0,2.312 4.982,0 0,-2.928 C 4.623,1.953 2.672,0 0,0"
         style="fill:#ffffff;fill-opacity:1;fill-rule:nonzero;stroke:none"
         id="path7539"
         inkscape:connector-curvature="0" />
    </g>
    <g
       id="g7541"
       transform="matrix(1.25,0,0,-1.25,384.31375,524.91656)">
      <path
         d="m 0,0 0,14.643 8.633,0 0,-2.312 -6.321,0 0,-3.596 4.264,0 0,-2.364 -4.264,0 0,-4.007 6.782,0 L 9.094,0 0,0 z"
         style="fill:#ffffff;fill-opacity:1;fill-rule:nonzero;stroke:none"
         id="path7543"
         inkscape:connector-curvature="0" />
    </g>
    <g
       id="g7545"
       transform="matrix(1.25,0,0,-1.25,408.655,524.91656)">
      <path
         d="m 0,0 -5.6,9.916 0,-9.916 -2.313,0 0,14.643 2.313,0 5.342,-9.351 0,9.351 2.312,0 L 2.054,0 0,0 z"
         style="fill:#ffffff;fill-opacity:1;fill-rule:nonzero;stroke:none"
         id="path7547"
         inkscape:connector-curvature="0" />
    </g>
    <g
       id="g7549"
       transform="matrix(1.25,0,0,-1.25,422.14125,525.23781)">
      <path
         d="m 0,0 c -2.159,0 -3.545,0.822 -4.471,2.621 -0.668,1.284 -1.078,3.134 -1.078,4.983 0,2.312 0.617,4.625 1.644,5.909 0.873,1.079 2.106,1.644 3.75,1.644 2.209,0 3.596,-0.925 4.573,-2.98 L 2.259,11.252 c -0.822,1.233 -1.283,1.541 -2.414,1.541 -1.181,0 -1.953,-0.513 -2.466,-1.797 -0.36,-0.874 -0.565,-2.159 -0.565,-3.392 0,-1.592 0.359,-3.185 0.924,-4.11 0.514,-0.77 1.182,-1.13 2.211,-1.13 0.974,0 1.695,0.513 2.26,1.696 L 4.418,3.237 C 3.545,1.08 2.105,0 0,0"
         style="fill:#ffffff;fill-opacity:1;fill-rule:nonzero;stroke:none"
         id="path7551"
         inkscape:connector-curvature="0" />
    </g>
    <g
       id="g7553"
       transform="matrix(1.25,0,0,-1.25,439.6725,516.95281)">
      <path
         d="m 0,0 0,-6.371 -2.312,0 0,6.371 -5.137,8.272 2.773,0 3.494,-5.651 3.545,5.651 2.723,0 L 0,0 z"
         style="fill:#ffffff;fill-opacity:1;fill-rule:nonzero;stroke:none"
         id="path7555"
         inkscape:connector-curvature="0" />
    </g>
    <g
       id="g7557"
       transform="matrix(1.25,0,0,-1.25,334.9975,558.3578)">
      <path
         d="m 0,0 c -2.078,0 -3.414,0.816 -4.305,2.601 -0.642,1.275 -1.039,3.111 -1.039,4.947 0,2.295 0.594,4.59 1.584,5.865 0.842,1.071 2.027,1.632 3.611,1.632 2.127,0 3.463,-0.918 4.403,-2.958 L 2.176,11.169 C 1.385,12.393 0.939,12.7 -0.149,12.7 c -1.138,0 -1.88,-0.511 -2.375,-1.786 -0.345,-0.867 -0.543,-2.142 -0.543,-3.366 0,-1.581 0.346,-3.162 0.889,-4.08 0.496,-0.764 1.139,-1.122 2.129,-1.122 0.939,0 1.631,0.51 2.176,1.684 L 4.254,3.213 C 3.414,1.072 2.027,0 0,0"
         style="fill:#ffffff;fill-opacity:1;fill-rule:nonzero;stroke:none"
         id="path7559"
         inkscape:connector-curvature="0" />
    </g>
    <g
       id="g7561"
       transform="matrix(1.25,0,0,-1.25,350.45625,544.90656)">
      <path
         d="m 0,0 -1.436,-4.08 2.821,0 L 0,0 z m 3.563,-10.506 -1.387,4.08 -4.403,0 -1.384,-4.08 -2.375,0 4.847,14.535 2.227,0 4.848,-14.535 -2.373,0 z"
         style="fill:#ffffff;fill-opacity:1;fill-rule:nonzero;stroke:none"
         id="path7563"
         inkscape:connector-curvature="0" />
    </g>
    <g
       id="g7565"
       transform="matrix(1.25,0,0,-1.25,360.905,558.03906)">
      <path
         d="m 0,0 0,14.535 2.227,0 0,-12.393 6.531,0 L 8.758,0 0,0 z"
         style="fill:#ffffff;fill-opacity:1;fill-rule:nonzero;stroke:none"
         id="path7567"
         inkscape:connector-curvature="0" />
    </g>
    <g
       id="g7569"
       transform="matrix(1.25,0,0,-1.25,374.81875,558.03906)">
      <path
         d="m 0,0 0,14.535 2.227,0 0,-12.393 6.529,0 L 8.756,0 0,0 z"
         style="fill:#ffffff;fill-opacity:1;fill-rule:nonzero;stroke:none"
         id="path7571"
         inkscape:connector-curvature="0" />
    </g>
    <g
       id="g7573"
       transform="matrix(1.25,0,0,-1.25,407.65375,544.97155)">
      <path
         d="m 0,0 c 0,2.671 -2.158,4.675 -4.983,4.675 -2.775,0 -4.984,-1.952 -4.984,-4.47 0,-2.466 2.26,-4.47 4.984,-4.47 0.565,0 0.924,0.052 1.746,0.205 -0.873,-1.9 -1.798,-3.082 -3.544,-4.469 l 1.13,-1.953 C -2.26,-8.169 0,-4.008 0,0 m -2.313,0.205 c 0,-1.182 -1.181,-2.106 -2.67,-2.106 -1.439,0 -2.621,0.924 -2.621,2.106 0,1.182 1.182,2.106 2.621,2.106 1.438,0 2.67,-0.975 2.67,-2.106"
         style="fill:#ffffff;fill-opacity:1;fill-rule:nonzero;stroke:none"
         id="path7575"
         inkscape:connector-curvature="0" />
    </g>
    <g
       id="g7577"
       transform="matrix(1.25,0,0,-1.25,412.92,557.7528)">
      <path
         d="m 0,0 0,11.869 -1.336,0 0,1.85 0.154,0 c 0.617,0 1.285,0.359 1.695,0.924 l 1.85,0 L 2.363,0 0,0 z"
         style="fill:#ffffff;fill-opacity:1;fill-rule:nonzero;stroke:none"
         id="path7579"
         inkscape:connector-curvature="0" />
    </g>
    <g
       id="g7581"
       transform="matrix(1.25,0,0,-1.25,421.525,557.7528)">
      <path
         d="m 0,0 0,11.869 -1.335,0 0,1.85 0.154,0 c 0.615,0 1.283,0.359 1.695,0.924 l 1.85,0 L 2.364,0 0,0 z"
         style="fill:#ffffff;fill-opacity:1;fill-rule:nonzero;stroke:none"
         id="path7583"
         inkscape:connector-curvature="0" />
    </g>
  </g>
</svg>
