<?xml version="1.0" encoding="UTF-8" standalone="no"?>
<!-- Created with Inkscape (http://www.inkscape.org/) -->

<svg
   xmlns:dc="http://purl.org/dc/elements/1.1/"
   xmlns:cc="http://creativecommons.org/ns#"
   xmlns:rdf="http://www.w3.org/1999/02/22-rdf-syntax-ns#"
   xmlns:svg="http://www.w3.org/2000/svg"
   xmlns="http://www.w3.org/2000/svg"
   xmlns:sodipodi="http://sodipodi.sourceforge.net/DTD/sodipodi-0.dtd"
   xmlns:inkscape="http://www.inkscape.org/namespaces/inkscape"
   width="173.20312"
   height="90.078125"
   id="svg5409"
   version="1.1"
   inkscape:version="0.48.3.1 r9886"
   sodipodi:docname="New document 21">
  <defs
     id="defs5411" />
  <sodipodi:namedview
     id="base"
     pagecolor="#ffffff"
     bordercolor="#666666"
     borderopacity="1.0"
     inkscape:pageopacity="0.0"
     inkscape:pageshadow="2"
     inkscape:zoom="0.35"
     inkscape:cx="86.609688"
     inkscape:cy="45.04969"
     inkscape:document-units="px"
     inkscape:current-layer="layer1"
     showgrid="false"
     fit-margin-top="0"
     fit-margin-left="0"
     fit-margin-right="0"
     fit-margin-bottom="0"
     inkscape:window-width="451"
     inkscape:window-height="398"
     inkscape:window-x="175"
     inkscape:window-y="175"
     inkscape:window-maximized="0" />
  <metadata
     id="metadata5414">
    <rdf:RDF>
      <cc:Work
         rdf:about="">
        <dc:format>image/svg+xml</dc:format>
        <dc:type
           rdf:resource="http://purl.org/dc/dcmitype/StillImage" />
        <dc:title></dc:title>
      </cc:Work>
    </rdf:RDF>
  </metadata>
  <g
     inkscape:label="Layer 1"
     inkscape:groupmode="layer"
     id="layer1"
     transform="translate(-288.39031,-487.33375)">
    <g
       id="g4784"
       transform="matrix(1.25,0,0,-1.25,461.32,567.52906)">
      <path
         d="m 0,0 c 0,-4.22 -3.453,-7.673 -7.674,-7.673 l -122.765,0 c -4.219,0 -7.673,3.453 -7.673,7.673 l 0,56.268 c 0,4.22 3.454,7.672 7.673,7.672 l 122.765,0 C -3.453,63.94 0,60.488 0,56.268 L 0,0 z"
         style="fill:#ffffff;fill-opacity:1;fill-rule:nonzero;stroke:none"
         id="path4786"
         inkscape:connector-curvature="0" />
    </g>
    <g
       id="g4788"
       transform="matrix(1.25,0,0,-1.25,461.32,567.52906)">
      <path
         d="m 0,0 c 0,-4.22 -3.453,-7.673 -7.674,-7.673 l -122.765,0 c -4.219,0 -7.673,3.453 -7.673,7.673 l 0,56.268 c 0,4.22 3.454,7.672 7.673,7.672 l 122.765,0 C -3.453,63.94 0,60.488 0,56.268 L 0,0 z"
         style="fill:none;stroke:#231f20;stroke-width:0.461;stroke-linecap:butt;stroke-linejoin:miter;stroke-miterlimit:4;stroke-opacity:1;stroke-dasharray:none"
         id="path4790"
         inkscape:connector-curvature="0" />
    </g>
    <g
       id="g4792"
       transform="matrix(1.25,0,0,-1.25,298.27113,574.98894)">
      <path
         d="m 0,0 c -0.8,0 -1.579,0.159 -2.312,0.47 -0.711,0.302 -1.351,0.734 -1.901,1.285 -0.551,0.55 -0.983,1.19 -1.285,1.901 -0.311,0.733 -0.469,1.512 -0.469,2.312 l 0,56.267 c 0,0.802 0.158,1.579 0.469,2.313 0.302,0.71 0.734,1.35 1.285,1.901 0.55,0.551 1.19,0.982 1.901,1.284 0.733,0.312 1.512,0.47 2.312,0.47 l 122.765,0 c 0.802,0 1.579,-0.158 2.312,-0.47 0.71,-0.302 1.35,-0.733 1.902,-1.284 0.55,-0.551 0.982,-1.191 1.284,-1.901 0.312,-0.734 0.47,-1.511 0.47,-2.313 l 0,-56.267 c 0,-0.8 -0.158,-1.579 -0.47,-2.312 C 127.961,2.945 127.529,2.305 126.979,1.755 126.427,1.204 125.787,0.772 125.077,0.47 124.344,0.159 123.567,0 122.765,0 L 0,0 z"
         style="fill:#155196;fill-opacity:1;fill-rule:nonzero;stroke:none"
         id="path4794"
         inkscape:connector-curvature="0" />
    </g>
    <g
       id="g4796"
       transform="matrix(1.25,0,0,-1.25,337.41613,503.62406)">
      <path
         d="m 0,0 -1.436,-3.446 2.871,0 L 0,0 z m 3.229,-7.682 -1.004,2.405 -4.45,0 -1.005,-2.405 -2.009,0 4.305,10.231 1.866,0 4.271,-10.231 -1.974,0 z"
         style="fill:#ffffff;fill-opacity:1;fill-rule:nonzero;stroke:none"
         id="path4798"
         inkscape:connector-curvature="0" />
    </g>
    <g
       id="g4800"
       transform="matrix(1.25,0,0,-1.25,312.16737,507.57306)">
      <path
         d="m 0,0 -2.921,0 0,-2.692 2.921,0 c 0.973,0 1.658,0.539 1.658,1.293 C 1.658,-0.61 0.936,0 0,0 m 0,3.877 -2.921,0 0,-2.046 2.921,0 c 0.793,0 1.334,0.43 1.334,1.041 0,0.61 -0.505,1.005 -1.334,1.005 M 1.946,-4.091 C 1.441,-4.379 0.9,-4.523 0.359,-4.523 l -0.504,0 -4.65,0 0,10.231 4.795,0 C 0.9,5.708 1.225,5.636 1.765,5.349 2.631,4.846 3.171,3.985 3.171,3.015 3.171,2.19 2.847,1.472 2.162,0.898 3.063,0.251 3.497,-0.538 3.497,-1.507 c 0,-1.041 -0.614,-2.082 -1.551,-2.584"
         style="fill:#ffffff;fill-opacity:1;fill-rule:nonzero;stroke:none"
         id="path4802"
         inkscape:connector-curvature="0" />
    </g>
    <g
       id="g4804"
       transform="matrix(1.25,0,0,-1.25,386.56864,513.45031)">
      <path
         d="m 0,0 c -2.691,0 -4.343,2.117 -4.343,5.312 0,3.231 1.652,5.277 4.343,5.277 1.651,0 3.159,-0.826 3.948,-2.261 L 2.334,7.466 C 2.046,7.897 1.902,8.041 1.615,8.22 1.22,8.543 0.538,8.758 0,8.758 c -1.866,0 -2.477,-1.831 -2.477,-3.41 0,-2.225 0.933,-3.518 2.477,-3.518 0.933,0 1.437,0.323 2.334,1.293 L 3.948,2.261 C 3.195,0.825 1.651,0 0,0"
         style="fill:#ffffff;fill-opacity:1;fill-rule:nonzero;stroke:none"
         id="path4806"
         inkscape:connector-curvature="0" />
    </g>
    <g
       id="g4808"
       transform="matrix(1.25,0,0,-1.25,425.32875,513.45031)">
      <path
         d="m 0,0 c -2.692,0 -4.343,2.117 -4.343,5.312 0,3.231 1.651,5.277 4.343,5.277 1.651,0 3.159,-0.826 3.949,-2.261 L 2.333,7.466 C 2.047,7.897 1.902,8.041 1.615,8.22 1.222,8.543 0.539,8.758 0,8.758 c -1.866,0 -2.477,-1.831 -2.477,-3.41 0,-2.225 0.933,-3.518 2.477,-3.518 0.933,0 1.436,0.323 2.333,1.293 L 3.949,2.261 C 3.195,0.825 1.651,0 0,0"
         style="fill:#ffffff;fill-opacity:1;fill-rule:nonzero;stroke:none"
         id="path4810"
         inkscape:connector-curvature="0" />
    </g>
    <g
       id="g4812"
       transform="matrix(1.25,0,0,-1.25,358.76001,513.22681)">
      <path
         d="m 0,0 0,10.231 7.493,0 0,-1.831 -5.619,0 0,-1.902 3.062,0 0,-1.867 -3.062,0 0,-2.8 5.799,0 L 7.673,0 0,0 z"
         style="fill:#ffffff;fill-opacity:1;fill-rule:nonzero;stroke:none"
         id="path4814"
         inkscape:connector-curvature="0" />
    </g>
    <g
       id="g4816"
       transform="matrix(1.25,0,0,-1.25,408.135,513.22681)">
      <path
         d="m 0,0 0,10.231 7.492,0 0,-1.831 -5.619,0 0,-1.902 3.062,0 0,-1.867 -3.062,0 0,-2.8 5.8,0 L 7.673,0 0,0 z"
         style="fill:#ffffff;fill-opacity:1;fill-rule:nonzero;stroke:none"
         id="path4818"
         inkscape:connector-curvature="0" />
    </g>
    <g
       id="g4820"
       transform="matrix(1.25,0,0,-1.25,402.51125,513.22681)">
      <path
         d="m 0,0 0,4.452 -4.614,0 0,-4.452 -1.839,0 0,10.231 1.839,0 0,-3.949 4.614,0 0,3.949 1.839,0 L 1.839,0 0,0 z"
         style="fill:#ffffff;fill-opacity:1;fill-rule:nonzero;stroke:none"
         id="path4822"
         inkscape:connector-curvature="0" />
    </g>
    <g
       id="g4824"
       transform="matrix(1.25,0,0,-1.25,354.10376,513.22681)">
      <path
         d="m 0,0 -2.628,5.313 -1.944,-2.441 0,-2.872 -1.836,0 0,10.231 1.836,0 0,-4.452 3.637,4.452 2.376,0 L -1.296,6.893 2.088,0 0,0 z"
         style="fill:#ffffff;fill-opacity:1;fill-rule:nonzero;stroke:none"
         id="path4826"
         inkscape:connector-curvature="0" />
    </g>
    <g
       id="g4828"
       transform="matrix(1.25,0,0,-1.25,441.21737,513.22681)">
      <path
         d="m 0,0 -2.629,5.313 -1.943,-2.441 0,-2.872 -1.836,0 0,10.231 1.836,0 0,-4.452 3.634,4.452 2.377,0 L -1.296,6.893 2.087,0 0,0 z"
         style="fill:#ffffff;fill-opacity:1;fill-rule:nonzero;stroke:none"
         id="path4830"
         inkscape:connector-curvature="0" />
    </g>
    <g
       id="g4832"
       transform="matrix(1.25,0,0,-1.25,325.06625,502.72681)">
      <path
         d="m 0,0 -2.947,0 0,-2.548 2.947,0 c 0.895,0 1.471,0.502 1.471,1.256 C 1.471,-0.502 0.895,0 0,0 m 1.471,-8.4 -1.652,4.021 -2.766,0 0,-4.021 -1.829,0 0,10.231 4.74,0 C 0.716,1.831 1.183,1.724 1.722,1.4 2.69,0.862 3.3,-0.144 3.3,-1.292 3.3,-2.441 2.69,-3.446 1.649,-4.02 l 1.866,-4.38 -2.044,0 z"
         style="fill:#ffffff;fill-opacity:1;fill-rule:nonzero;stroke:none"
         id="path4834"
         inkscape:connector-curvature="0" />
    </g>
    <g
       id="g4836"
       transform="matrix(1.25,0,0,-1.25,394.595,526.05018)">
      <path
         d="m 0,0 -1.435,-3.446 2.871,0 L 0,0 z m 3.229,-7.682 -1.004,2.406 -4.45,0 -1.005,-2.406 -2.009,0 4.306,10.231 1.867,0 4.269,-10.231 -1.974,0 z"
         style="fill:#ffffff;fill-opacity:1;fill-rule:nonzero;stroke:none"
         id="path4838"
         inkscape:connector-curvature="0" />
    </g>
    <g
       id="g4840"
       transform="matrix(1.25,0,0,-1.25,355.44864,526.05018)">
      <path
         d="m 0,0 -1.436,-3.446 2.871,0 L 0,0 z m 3.229,-7.682 -1.005,2.406 -4.449,0 -1.006,-2.406 -2.009,0 4.307,10.231 1.865,0 4.271,-10.231 -1.974,0 z"
         style="fill:#ffffff;fill-opacity:1;fill-rule:nonzero;stroke:none"
         id="path4842"
         inkscape:connector-curvature="0" />
    </g>
    <g
       id="g4844"
       transform="matrix(1.25,0,0,-1.25,377.04988,535.65231)">
      <path
         d="m 0,0 0,10.23 7.492,0 0,-1.83 -5.619,0 0,-1.902 3.062,0 0,-1.868 -3.062,0 0,-2.799 5.799,0 L 7.672,0 0,0 z"
         style="fill:#ffffff;fill-opacity:1;fill-rule:nonzero;stroke:none"
         id="path4846"
         inkscape:connector-curvature="0" />
    </g>
    <g
       id="g4848"
       transform="matrix(1.25,0,0,-1.25,370.09626,525.15244)">
      <path
         d="m 0,0 -2.946,0 0,-2.549 2.946,0 c 0.897,0 1.471,0.503 1.471,1.256 C 1.471,-0.502 0.897,0 0,0 m 1.471,-8.4 -1.651,4.021 -2.766,0 0,-4.021 -1.83,0 0,10.231 4.74,0 c 0.753,0 1.22,-0.108 1.758,-0.431 0.969,-0.539 1.579,-1.543 1.579,-2.693 0,-1.148 -0.61,-2.153 -1.65,-2.728 l 1.865,-4.379 -2.045,0 z"
         style="fill:#ffffff;fill-opacity:1;fill-rule:nonzero;stroke:none"
         id="path4850"
         inkscape:connector-curvature="0" />
    </g>
    <g
       id="g4852"
       transform="matrix(1.25,0,0,-1.25,384.06362,561.96693)">
      <path
         d="m 0,0 c 0.005,0.007 0.009,0.014 0.014,0.021 0.025,0.046 0.044,0.094 0.058,0.142 0,0.004 0.003,0.008 0.004,0.013 l -0.001,0 c 0.003,0.016 0.009,0.033 0.013,0.05 l 0.022,0.163 2.32,11.966 0.031,0.226 c 0.031,0.225 -0.044,0.449 -0.193,0.599 -0.171,0.17 -0.396,0.245 -0.61,0.203 l -0.149,-0.029 -12.002,-2.339 -0.211,-0.034 c -0.139,-0.032 -0.245,-0.096 -0.353,-0.203 -0.267,-0.267 -0.277,-0.705 0,-0.983 0.033,-0.032 0.085,-0.065 0.128,-0.086 l 0.129,-0.07 4.272,-2.627 -10.442,-9.586 3.495,-3.495 9.586,10.421 0,0.02 2.586,-4.207 0.109,-0.153 c 0.031,-0.054 0.063,-0.107 0.106,-0.149 0.267,-0.268 0.716,-0.268 0.984,-0.001 C -0.062,-0.095 -0.029,-0.048 0,0"
         style="fill:#ffffff;fill-opacity:1;fill-rule:nonzero;stroke:none"
         id="path4854"
         inkscape:connector-curvature="0" />
    </g>
  </g>
</svg>
