<?xml version="1.0" encoding="UTF-8" standalone="no"?>
<!-- Created with Inkscape (http://www.inkscape.org/) -->

<svg
   xmlns:dc="http://purl.org/dc/elements/1.1/"
   xmlns:cc="http://creativecommons.org/ns#"
   xmlns:rdf="http://www.w3.org/1999/02/22-rdf-syntax-ns#"
   xmlns:svg="http://www.w3.org/2000/svg"
   xmlns="http://www.w3.org/2000/svg"
   xmlns:sodipodi="http://sodipodi.sourceforge.net/DTD/sodipodi-0.dtd"
   xmlns:inkscape="http://www.inkscape.org/namespaces/inkscape"
   width="129.84375"
   height="55.039062"
   id="svg16956"
   version="1.1"
   inkscape:version="0.48.3.1 r9886"
   sodipodi:docname="New document 123">
  <defs
     id="defs16958">
    <clipPath
       clipPathUnits="userSpaceOnUse"
       id="clipPath15692">
      <path
         inkscape:connector-curvature="0"
         d="m 111.432,61.319 344.137,0 0,169.115 -344.137,0 0,-169.115 z"
         id="path15694" />
    </clipPath>
    <clipPath
       clipPathUnits="userSpaceOnUse"
       id="clipPath15680">
      <path
         inkscape:connector-curvature="0"
         d="m 27,45 513,0 0,201.6 -513,0 L 27,45 z"
         id="path15682" />
    </clipPath>
  </defs>
  <sodipodi:namedview
     id="base"
     pagecolor="#ffffff"
     bordercolor="#666666"
     borderopacity="1.0"
     inkscape:pageopacity="0.0"
     inkscape:pageshadow="2"
     inkscape:zoom="0.35"
     inkscape:cx="64.920625"
     inkscape:cy="27.514377"
     inkscape:document-units="px"
     inkscape:current-layer="layer1"
     showgrid="false"
     fit-margin-top="0"
     fit-margin-left="0"
     fit-margin-right="0"
     fit-margin-bottom="0"
     inkscape:window-width="451"
     inkscape:window-height="398"
     inkscape:window-x="100"
     inkscape:window-y="100"
     inkscape:window-maximized="0" />
  <metadata
     id="metadata16961">
    <rdf:RDF>
      <cc:Work
         rdf:about="">
        <dc:format>image/svg+xml</dc:format>
        <dc:type
           rdf:resource="http://purl.org/dc/dcmitype/StillImage" />
        <dc:title></dc:title>
      </cc:Work>
    </rdf:RDF>
  </metadata>
  <g
     inkscape:label="Layer 1"
     inkscape:groupmode="layer"
     id="layer1"
     transform="translate(-310.07938,-504.8375)">
    <g
       transform="matrix(1.25,0,0,-1.25,-64.846125,636.52856)"
       id="g15676">
      <g
         id="g15678"
         clip-path="url(#clipPath15680)">
        <g
           id="g15684"
           transform="translate(403.5654,67.0091)">
          <path
             inkscape:connector-curvature="0"
             d="m 0,0 c 0,-2.992 -2.447,-5.44 -5.439,-5.44 l -92.496,0 c -2.992,0 -5.442,2.448 -5.442,5.44 l 0,32.646 c 0,2.993 2.45,5.442 5.442,5.442 l 92.496,0 C -2.447,38.088 0,35.639 0,32.646 L 0,0 z"
             style="fill:#ffffff;fill-opacity:1;fill-rule:nonzero;stroke:none"
             id="path15686" />
        </g>
      </g>
    </g>
    <g
       transform="matrix(1.25,0,0,-1.25,-64.846125,636.52856)"
       id="g15688">
      <g
         id="g15690"
         clip-path="url(#clipPath15692)">
        <g
           id="g15696"
           transform="translate(403.5654,67.0091)">
          <path
             inkscape:connector-curvature="0"
             d="m 0,0 c 0,-2.992 -2.447,-5.44 -5.439,-5.44 l -92.496,0 c -2.992,0 -5.442,2.448 -5.442,5.44 l 0,32.646 c 0,2.993 2.45,5.442 5.442,5.442 l 92.496,0 C -2.447,38.088 0,35.639 0,32.646 L 0,0 z"
             style="fill:none;stroke:#231f20;stroke-width:0.5;stroke-linecap:butt;stroke-linejoin:miter;stroke-miterlimit:4;stroke-opacity:1;stroke-dasharray:none"
             id="path15698" />
        </g>
      </g>
    </g>
    <g
       id="g15708"
       transform="matrix(1.25,0,0,-1.25,317.19187,557.30093)">
      <path
         d="m 0,0 c -0.963,0 -1.873,0.379 -2.561,1.068 -0.687,0.688 -1.068,1.597 -1.068,2.559 l 0,32.646 c 0,0.964 0.381,1.872 1.068,2.56 0.688,0.689 1.598,1.068 2.561,1.068 l 92.496,0 c 0.963,0 1.871,-0.379 2.56,-1.068 0.688,-0.688 1.067,-1.596 1.067,-2.56 l 0,-32.646 C 96.123,2.665 95.744,1.756 95.056,1.068 94.367,0.379 93.459,0 92.496,0 L 0,0 z"
         style="fill:#155196;fill-opacity:1;fill-rule:nonzero;stroke:none"
         id="path15710"
         inkscape:connector-curvature="0" />
    </g>
    <g
       id="g15712"
       transform="matrix(1.25,0,0,-1.25,367.47937,539.84093)">
      <path
         d="m 0,0 -1.271,-3.054 2.545,0 L 0,0 z m 2.862,-6.809 -0.889,2.133 -3.945,0 -0.891,-2.133 -1.781,0 3.818,9.069 1.652,0 3.787,-9.069 -1.751,0 z"
         style="fill:#ffffff;fill-opacity:1;fill-rule:nonzero;stroke:none"
         id="path15714"
         inkscape:connector-curvature="0" />
    </g>
    <path
       d="m 385.94637,537.01606 2.0375,0 0,11.33625 -2.0375,0 0,-11.33625 z"
       style="fill:#ffffff;fill-opacity:1;fill-rule:nonzero;stroke:none"
       id="path15716"
       inkscape:connector-curvature="0" />
    <g
       id="g15718"
       transform="matrix(1.25,0,0,-1.25,355.38437,538.84593)">
      <path
         d="m 0,0 c -1.371,0 -2.201,-1.145 -2.201,-3.054 0,-1.941 0.83,-3.087 2.201,-3.087 1.721,0 2.137,1.686 2.137,3.087 C 2.137,-1.145 1.37,0 0,0 m 0,-7.764 c -2.679,0 -3.859,2.419 -3.859,4.71 0,2.895 1.467,4.677 3.859,4.677 2.231,0 3.764,-1.877 3.764,-4.645 0,-2.833 -1.469,-4.742 -3.764,-4.742"
         style="fill:#ffffff;fill-opacity:1;fill-rule:nonzero;stroke:none"
         id="path15720"
         inkscape:connector-curvature="0" />
    </g>
    <g
       id="g15722"
       transform="matrix(1.25,0,0,-1.25,394.48175,543.26469)">
      <path
         d="m 0,0 c -0.405,0.112 -1.42,0.355 -1.762,0.556 -0.684,0.4 -1.205,1.055 -1.205,2.025 0,1.495 1.279,2.513 3.131,2.513 1.342,0 2.461,-0.445 3.388,-1.4 L 2.338,2.613 C 1.763,3.217 1.027,3.504 0.164,3.504 c -0.926,0 -1.469,-0.35 -1.469,-0.923 0,-0.509 0.318,-0.732 1.438,-0.987 C 1.347,1.34 2.146,1.085 2.658,0.83 3.457,0.416 3.967,-0.442 3.967,-1.428 3.967,-2.351 3.552,-3.051 2.689,-3.56 2.051,-3.942 1.219,-4.164 0.388,-4.164 c -1.566,0 -2.748,0.572 -3.769,1.749 l 1.308,1.018 c 0.672,-0.795 1.407,-1.145 2.43,-1.145 1.149,0 1.981,0.509 1.981,1.177 C 2.338,-0.513 1.412,-0.39 0,0"
         style="fill:#ffffff;fill-opacity:1;fill-rule:nonzero;stroke:none"
         id="path15724"
         inkscape:connector-curvature="0" />
    </g>
    <g
       id="g15726"
       transform="matrix(1.25,0,0,-1.25,378.71937,543.26469)">
      <path
         d="m 0,0 c -0.404,0.112 -1.42,0.355 -1.761,0.556 -0.684,0.4 -1.205,1.055 -1.205,2.025 0,1.495 1.277,2.513 3.132,2.513 1.342,0 2.459,-0.445 3.387,-1.4 L 2.338,2.613 c -0.576,0.604 -1.31,0.891 -2.172,0.891 -0.927,0 -1.47,-0.35 -1.47,-0.923 0,-0.509 0.318,-0.732 1.437,-0.987 C 1.348,1.34 2.147,1.085 2.657,0.83 c 0.8,-0.414 1.31,-1.272 1.31,-2.258 0,-0.923 -0.414,-1.623 -1.277,-2.132 -0.639,-0.382 -1.471,-0.604 -2.301,-0.604 -1.566,0 -2.748,0.572 -3.771,1.749 l 1.31,1.018 c 0.672,-0.795 1.406,-1.145 2.43,-1.145 1.15,0 1.98,0.509 1.98,1.177 C 2.338,-0.513 1.412,-0.39 0,0"
         style="fill:#ffffff;fill-opacity:1;fill-rule:nonzero;stroke:none"
         id="path15728"
         inkscape:connector-curvature="0" />
    </g>
    <g
       id="g15730"
       transform="matrix(1.25,0,0,-1.25,399.06187,519.43719)">
      <path
         d="m 0,0 -1.274,-3.054 2.545,0 L 0,0 z m 2.861,-6.809 -0.89,2.133 -3.946,0 -0.888,-2.133 -1.782,0 3.817,9.069 1.654,0 3.783,-9.069 -1.748,0 z"
         style="fill:#ffffff;fill-opacity:1;fill-rule:nonzero;stroke:none"
         id="path15732"
         inkscape:connector-curvature="0" />
    </g>
    <g
       id="g15734"
       transform="matrix(1.25,0,0,-1.25,351.86924,527.94844)">
      <path
         d="m 0,0 0,9.069 6.642,0 0,-1.623 -4.982,0 0,-1.686 2.715,0 0,-1.655 -2.715,0 0,-2.482 5.141,0 L 6.801,0 0,0 z"
         style="fill:#ffffff;fill-opacity:1;fill-rule:nonzero;stroke:none"
         id="path15736"
         inkscape:connector-curvature="0" />
    </g>
    <g
       id="g15738"
       transform="matrix(1.25,0,0,-1.25,416.16187,527.94844)">
      <path
         d="m 0,0 0,9.069 6.64,0 0,-1.623 -4.98,0 0,-1.686 2.713,0 0,-1.655 -2.713,0 0,-2.482 5.14,0 L 6.8,0 0,0 z"
         style="fill:#ffffff;fill-opacity:1;fill-rule:nonzero;stroke:none"
         id="path15740"
         inkscape:connector-curvature="0" />
    </g>
    <path
       d="m 325.33762,516.61231 2.04125,0 0,11.33625 -2.04125,0 0,-11.33625 z"
       style="fill:#ffffff;fill-opacity:1;fill-rule:nonzero;stroke:none"
       id="path15742"
       inkscape:connector-curvature="0" />
    <g
       id="g15744"
       transform="matrix(1.25,0,0,-1.25,337.75562,527.94844)">
      <path
         d="m 0,0 -4.344,6.237 0,-6.237 -1.599,0 0,9.069 1.599,0 4.184,-5.982 0,5.982 1.566,0 L 1.406,0 0,0 z"
         style="fill:#ffffff;fill-opacity:1;fill-rule:nonzero;stroke:none"
         id="path15746"
         inkscape:connector-curvature="0" />
    </g>
    <g
       id="g15748"
       transform="matrix(1.25,0,0,-1.25,367.92937,518.64093)">
      <path
         d="m 0,0 -2.612,0 0,-2.259 2.612,0 c 0.794,0 1.304,0.445 1.304,1.114 C 1.304,-0.445 0.794,0 0,0 m 1.304,-7.446 -1.463,3.564 -2.453,0 0,-3.564 -1.621,0 0,9.069 4.201,0 c 0.668,0 1.082,-0.096 1.559,-0.382 0.859,-0.477 1.398,-1.368 1.398,-2.386 0,-1.019 -0.539,-1.91 -1.461,-2.419 l 1.653,-3.882 -1.813,0 z"
         style="fill:#ffffff;fill-opacity:1;fill-rule:nonzero;stroke:none"
         id="path15750"
         inkscape:connector-curvature="0" />
    </g>
    <g
       id="g15752"
       transform="matrix(1.25,0,0,-1.25,377.63812,522.86218)">
      <path
         d="m 0,0 c -0.404,0.112 -1.418,0.355 -1.76,0.557 -0.683,0.4 -1.205,1.054 -1.205,2.025 0,1.495 1.28,2.513 3.131,2.513 1.342,0 2.461,-0.446 3.387,-1.399 L 2.338,2.613 C 1.766,3.217 1.029,3.504 0.166,3.504 c -0.926,0 -1.471,-0.35 -1.471,-0.922 0,-0.51 0.321,-0.733 1.44,-0.987 C 1.35,1.341 2.149,1.086 2.658,0.831 3.459,0.417 3.969,-0.442 3.969,-1.428 3.969,-2.35 3.553,-3.05 2.692,-3.56 2.051,-3.941 1.221,-4.164 0.389,-4.164 c -1.565,0 -2.746,0.573 -3.77,1.75 l 1.311,1.018 c 0.67,-0.796 1.406,-1.146 2.428,-1.146 1.15,0 1.98,0.509 1.98,1.178 C 2.338,-0.513 1.412,-0.389 0,0"
         style="fill:#ffffff;fill-opacity:1;fill-rule:nonzero;stroke:none"
         id="path15754"
         inkscape:connector-curvature="0" />
    </g>
    <g
       id="g15756"
       transform="matrix(1.25,0,0,-1.25,346.6855,518.60093)">
      <path
         d="m 0,0 0,-7.478 -1.589,0 0,7.478 -2.606,0 0,1.591 6.801,0 L 2.606,0 0,0 z"
         style="fill:#ffffff;fill-opacity:1;fill-rule:nonzero;stroke:none"
         id="path15758"
         inkscape:connector-curvature="0" />
    </g>
    <g
       id="g15760"
       transform="matrix(1.25,0,0,-1.25,389.09062,518.60093)">
      <path
         d="m 0,0 0,-7.478 -1.59,0 0,7.478 -2.605,0 0,1.591 6.801,0 L 2.606,0 0,0 z"
         style="fill:#ffffff;fill-opacity:1;fill-rule:nonzero;stroke:none"
         id="path15762"
         inkscape:connector-curvature="0" />
    </g>
    <g
       id="g15764"
       transform="matrix(1.25,0,0,-1.25,410.97562,518.60093)">
      <path
         d="m 0,0 0,-7.478 -1.59,0 0,7.478 -2.605,0 0,1.591 6.801,0 L 2.606,0 0,0 z"
         style="fill:#ffffff;fill-opacity:1;fill-rule:nonzero;stroke:none"
         id="path15766"
         inkscape:connector-curvature="0" />
    </g>
  </g>
</svg>
