<?xml version="1.0" encoding="UTF-8" standalone="no"?>
<!-- Created with Inkscape (http://www.inkscape.org/) -->

<svg
   xmlns:dc="http://purl.org/dc/elements/1.1/"
   xmlns:cc="http://creativecommons.org/ns#"
   xmlns:rdf="http://www.w3.org/1999/02/22-rdf-syntax-ns#"
   xmlns:svg="http://www.w3.org/2000/svg"
   xmlns="http://www.w3.org/2000/svg"
   xmlns:sodipodi="http://sodipodi.sourceforge.net/DTD/sodipodi-0.dtd"
   xmlns:inkscape="http://www.inkscape.org/namespaces/inkscape"
   width="160.655"
   height="111.30287"
   id="svg7188"
   version="1.1"
   inkscape:version="0.48.3.1 r9886"
   sodipodi:docname="New document 32">
  <defs
     id="defs7190">
    <clipPath
       clipPathUnits="userSpaceOnUse"
       id="clipPath6261">
      <path
         inkscape:connector-curvature="0"
         d="m 63,41 513,0 0,161.663 -513,0 L 63,41 z"
         id="path6263" />
    </clipPath>
  </defs>
  <sodipodi:namedview
     id="base"
     pagecolor="#ffffff"
     bordercolor="#666666"
     borderopacity="1.0"
     inkscape:pageopacity="0.0"
     inkscape:pageshadow="2"
     inkscape:zoom="0.35"
     inkscape:cx="80.3275"
     inkscape:cy="55.651442"
     inkscape:document-units="px"
     inkscape:current-layer="layer1"
     showgrid="false"
     fit-margin-top="0"
     fit-margin-left="0"
     fit-margin-right="0"
     fit-margin-bottom="0"
     inkscape:window-width="451"
     inkscape:window-height="398"
     inkscape:window-x="100"
     inkscape:window-y="100"
     inkscape:window-maximized="0" />
  <metadata
     id="metadata7193">
    <rdf:RDF>
      <cc:Work
         rdf:about="">
        <dc:format>image/svg+xml</dc:format>
        <dc:type
           rdf:resource="http://purl.org/dc/dcmitype/StillImage" />
        <dc:title></dc:title>
      </cc:Work>
    </rdf:RDF>
  </metadata>
  <g
     inkscape:label="Layer 1"
     inkscape:groupmode="layer"
     id="layer1"
     transform="translate(-294.6725,-476.71075)">
    <g
       transform="matrix(1.25,0,0,-1.25,-226.448,698.3055)"
       id="g6257">
      <g
         id="g6259"
         clip-path="url(#clipPath6261)">
        <g
           id="g6265"
           transform="translate(423.6404,177.2758)">
          <path
             inkscape:connector-curvature="0"
             d="m 0,0 115.036,0 c 3.709,0 6.744,-3.035 6.744,-6.744 l 0,-18.561 -128.524,0 0,18.561 C -6.744,-3.035 -3.711,0 0,0"
             style="fill:#155196;fill-opacity:1;fill-rule:evenodd;stroke:none"
             id="path6267" />
        </g>
        <g
           id="g6269"
           transform="translate(423.6404,88.2335)">
          <path
             inkscape:connector-curvature="0"
             d="m 0,0 115.036,0 c 3.709,0 6.744,3.033 6.744,6.744 l 0,55.22 -128.524,0 0,-55.22 C -6.744,3.033 -3.711,0 0,0"
             style="fill:#155196;fill-opacity:1;fill-rule:evenodd;stroke:none"
             id="path6271" />
        </g>
        <g
           id="g6273"
           transform="translate(447.0234,159.0404)">
          <path
             inkscape:connector-curvature="0"
             d="m 0,0 -1.949,5.189 c 1.014,0.468 1.715,1.639 1.715,2.809 0,1.131 -0.701,2.302 -1.678,2.77 -0.545,0.273 -1.131,0.351 -1.988,0.351 l -3.668,0 0,-11.119 1.756,0 0,4.838 2.107,0 L -1.912,0 0,0 z M -1.988,7.998 C -1.988,7.53 -2.261,7.062 -2.691,6.828 -2.965,6.671 -3.16,6.632 -3.705,6.632 l -2.107,0 0,2.732 2.107,0 c 0.584,0 0.74,-0.039 1.014,-0.195 0.43,-0.234 0.703,-0.703 0.703,-1.171"
             style="fill:#ffffff;fill-opacity:1;fill-rule:nonzero;stroke:none"
             id="path6275" />
        </g>
        <g
           id="g6277"
           transform="translate(448.8574,159.0404)">
          <path
             inkscape:connector-curvature="0"
             d="m 0,0 0,11.119 6.555,0 0,-1.755 -4.799,0 0,-2.732 3.238,0 0,-1.794 -3.238,0 0,-3.043 5.149,0 L 6.905,0 0,0 z"
             style="fill:#ffffff;fill-opacity:1;fill-rule:nonzero;stroke:none"
             id="path6279" />
        </g>
        <g
           id="g6281"
           transform="translate(463.2914,159.7035)">
          <path
             inkscape:connector-curvature="0"
             d="m 0,0 c -0.623,-0.546 -1.483,-0.858 -2.418,-0.858 -1.912,0 -3.317,1.132 -4.057,2.809 l 1.676,0.624 c 0.469,-1.053 1.328,-1.639 2.381,-1.639 1.014,0 1.717,0.703 1.717,1.639 0,1.483 -1.717,1.717 -3.161,2.302 -0.664,0.273 -2.146,0.937 -2.146,2.77 0,2.185 1.482,3.004 3.473,3.004 1.56,0 2.613,-0.897 3.16,-2.263 L -0.936,7.92 c 0,0 -0.39,0.937 -1.638,0.976 C -3.393,8.935 -4.369,8.623 -4.291,7.608 -4.135,5.54 1.094,6.906 1.094,2.536 1.094,1.522 0.703,0.625 0,0"
             style="fill:#ffffff;fill-opacity:1;fill-rule:nonzero;stroke:none"
             id="path6283" />
        </g>
        <g
           id="g6285"
           transform="translate(469.5334,168.599)">
          <path
             inkscape:connector-curvature="0"
             d="m 0,0 0,-9.559 -1.756,0 0,9.559 -2.535,0 0,1.561 6.867,0 L 2.576,0 0,0 z"
             style="fill:#ffffff;fill-opacity:1;fill-rule:nonzero;stroke:none"
             id="path6287" />
        </g>
        <g
           id="g6289"
           transform="translate(494.6684,159.0404)">
          <path
             inkscape:connector-curvature="0"
             d="m 0,0 -3.824,11.119 -1.754,0 L -9.403,0 l 1.873,0 1.092,3.121 3.473,0 L -1.873,0 0,0 z m -3.59,4.916 -2.223,0 1.131,3.121 1.092,-3.121 z"
             style="fill:#ffffff;fill-opacity:1;fill-rule:nonzero;stroke:none"
             id="path6291" />
        </g>
        <g
           id="g6293"
           transform="translate(503.8754,159.0404)">
          <path
             inkscape:connector-curvature="0"
             d="m 0,0 -1.951,5.189 c 1.015,0.468 1.716,1.639 1.716,2.809 0,1.131 -0.701,2.302 -1.677,2.77 -0.545,0.273 -1.131,0.351 -1.989,0.351 l -3.668,0 0,-11.119 1.756,0 0,4.838 2.106,0 L -1.912,0 0,0 z M -1.99,7.998 C -1.99,7.53 -2.262,7.062 -2.692,6.828 -2.965,6.671 -3.16,6.632 -3.707,6.632 l -2.106,0 0,2.732 2.106,0 c 0.586,0 0.742,-0.039 1.015,-0.195 0.43,-0.234 0.702,-0.703 0.702,-1.171"
             style="fill:#ffffff;fill-opacity:1;fill-rule:nonzero;stroke:none"
             id="path6295" />
        </g>
        <g
           id="g6297"
           transform="translate(505.7094,159.0404)">
          <path
             inkscape:connector-curvature="0"
             d="m 0,0 0,11.119 6.554,0 0,-1.755 -4.798,0 0,-2.732 3.238,0 0,-1.794 -3.238,0 0,-3.043 5.148,0 L 6.904,0 0,0 z"
             style="fill:#ffffff;fill-opacity:1;fill-rule:nonzero;stroke:none"
             id="path6299" />
        </g>
        <g
           id="g6301"
           transform="translate(522.8754,159.0404)">
          <path
             inkscape:connector-curvature="0"
             d="m 0,0 -3.824,11.119 -1.756,0 L -9.403,0 l 1.874,0 1.091,3.121 3.473,0 L -1.873,0 0,0 z m -3.59,4.916 -2.223,0 1.131,3.121 1.092,-3.121 z"
             style="fill:#ffffff;fill-opacity:1;fill-rule:nonzero;stroke:none"
             id="path6303" />
        </g>
        <g
           id="g6305"
           transform="translate(434.8943,141.5268)">
          <path
             inkscape:connector-curvature="0"
             d="m 0,0 0,-9.559 -1.754,0 0,9.559 -2.537,0 0,1.561 6.868,0 L 2.577,0 0,0 z"
             style="fill:#ffffff;fill-opacity:1;fill-rule:nonzero;stroke:none"
             id="path6307" />
        </g>
        <g
           id="g6309"
           transform="translate(446.7173,137.5082)">
          <path
             inkscape:connector-curvature="0"
             d="M 0,0 C 0,1.405 -0.274,2.809 -0.743,3.785 -1.444,5.15 -2.42,5.774 -3.825,5.774 -5.112,5.774 -6.008,5.384 -6.672,4.526 -7.413,3.472 -7.881,1.834 -7.881,0 c 0,-1.327 0.312,-2.809 0.779,-3.745 0.664,-1.366 1.639,-1.99 3.199,-1.99 1.172,0 2.069,0.39 2.694,1.248 C -0.43,-3.511 0,-1.755 0,0 m -1.756,0 c 0,-0.858 -0.196,-1.951 -0.43,-2.536 -0.389,-0.975 -0.896,-1.404 -1.717,-1.404 -0.701,0 -1.17,0.272 -1.521,0.858 -0.428,0.702 -0.662,1.912 -0.662,3.082 0,0.936 0.156,1.951 0.427,2.614 0.391,0.975 0.938,1.405 1.795,1.365 C -3.2,3.94 -2.77,3.706 -2.42,3.121 -1.991,2.38 -1.756,1.248 -1.756,0"
             style="fill:#ffffff;fill-opacity:1;fill-rule:nonzero;stroke:none"
             id="path6311" />
        </g>
        <g
           id="g6313"
           transform="translate(456.1974,133.6459)">
          <path
             inkscape:connector-curvature="0"
             d="m 0,0 c -0.586,-1.092 -1.912,-1.873 -3.277,-1.873 -1.367,0 -2.694,0.781 -3.278,1.873 -0.312,0.663 -0.507,1.443 -0.507,2.302 l 0,7.139 1.755,0 0,-7.139 c 0,-1.444 0.819,-2.38 2.03,-2.38 1.209,0 2.027,0.936 2.027,2.38 l 0,7.139 1.756,0 0,-7.139 C 0.506,1.443 0.311,0.663 0,0"
             style="fill:#ffffff;fill-opacity:1;fill-rule:nonzero;stroke:none"
             id="path6315" />
        </g>
        <g
           id="g6317"
           transform="translate(466.8874,131.9682)">
          <path
             inkscape:connector-curvature="0"
             d="m 0,0 -1.952,5.189 c 1.014,0.468 1.717,1.639 1.717,2.809 0,1.131 -0.703,2.302 -1.678,2.77 -0.546,0.273 -1.13,0.351 -1.99,0.351 l -3.668,0 0,-11.119 1.756,0 0,4.838 2.107,0 L -1.913,0 0,0 z M -1.991,7.998 C -1.991,7.53 -2.264,7.062 -2.694,6.828 -2.965,6.671 -3.161,6.632 -3.708,6.632 l -2.107,0 0,2.732 2.107,0 c 0.586,0 0.743,-0.039 1.014,-0.196 0.43,-0.234 0.703,-0.702 0.703,-1.17"
             style="fill:#ffffff;fill-opacity:1;fill-rule:nonzero;stroke:none"
             id="path6319" />
        </g>
        <path
           inkscape:connector-curvature="0"
           d="m 468.719,143.087 1.794,0 0,-11.119 -1.794,0 0,11.119 z"
           style="fill:#ffffff;fill-opacity:1;fill-rule:nonzero;stroke:none"
           id="path6321" />
        <g
           id="g6323"
           transform="translate(478.8243,132.6312)">
          <path
             inkscape:connector-curvature="0"
             d="m 0,0 c -0.625,-0.546 -1.482,-0.858 -2.418,-0.858 -1.912,0 -3.316,1.131 -4.059,2.809 l 1.678,0.624 c 0.469,-1.053 1.326,-1.638 2.381,-1.638 1.014,0 1.715,0.702 1.715,1.638 0,1.483 -1.715,1.717 -3.16,2.302 -0.662,0.273 -2.145,0.937 -2.145,2.77 0,2.185 1.483,3.004 3.473,3.004 1.56,0 2.613,-0.897 3.16,-2.263 L -0.936,7.921 c 0,0 -0.39,0.936 -1.638,0.975 C -3.395,8.935 -4.369,8.623 -4.291,7.608 -4.135,5.54 1.092,6.906 1.092,2.536 1.092,1.522 0.703,0.625 0,0"
             style="fill:#ffffff;fill-opacity:1;fill-rule:nonzero;stroke:none"
             id="path6325" />
        </g>
        <g
           id="g6327"
           transform="translate(485.0664,141.5268)">
          <path
             inkscape:connector-curvature="0"
             d="m 0,0 0,-9.559 -1.756,0 0,9.559 -2.537,0 0,1.561 6.867,0 L 2.574,0 0,0 z"
             style="fill:#ffffff;fill-opacity:1;fill-rule:nonzero;stroke:none"
             id="path6329" />
        </g>
        <path
           inkscape:connector-curvature="0"
           d="m 502.054,143.087 1.795,0 0,-11.119 -1.795,0 0,11.119 z"
           style="fill:#ffffff;fill-opacity:1;fill-rule:nonzero;stroke:none"
           id="path6331" />
        <g
           id="g6333"
           transform="translate(512.4724,131.9682)">
          <path
             inkscape:connector-curvature="0"
             d="m 0,0 -4.251,7.53 0,-7.53 -1.756,0 0,11.119 1.756,0 4.056,-7.101 0,7.101 1.756,0 L 1.561,0 0,0 z"
             style="fill:#ffffff;fill-opacity:1;fill-rule:nonzero;stroke:none"
             id="path6335" />
        </g>
        <g
           id="g6337"
           transform="translate(518.4023,141.3319)">
          <path
             inkscape:connector-curvature="0"
             d="m 0,0 0,-2.731 3.238,0 0,-1.795 -3.238,0 0,-4.838 -1.756,0 0,11.119 6.907,0 L 5.151,0 0,0 z"
             style="fill:#ffffff;fill-opacity:1;fill-rule:nonzero;stroke:none"
             id="path6339" />
        </g>
        <g
           id="g6341"
           transform="translate(532.7994,137.5082)">
          <path
             inkscape:connector-curvature="0"
             d="M 0,0 C 0,1.405 -0.274,2.809 -0.743,3.785 -1.444,5.15 -2.42,5.774 -3.825,5.774 -5.112,5.774 -6.008,5.384 -6.672,4.526 -7.412,3.472 -7.881,1.834 -7.881,0 c 0,-1.327 0.312,-2.809 0.779,-3.745 0.664,-1.366 1.639,-1.99 3.199,-1.99 1.172,0 2.069,0.39 2.694,1.248 C -0.43,-3.511 0,-1.755 0,0 m -1.756,0 c 0,-0.858 -0.196,-1.951 -0.43,-2.536 -0.389,-0.975 -0.896,-1.404 -1.717,-1.404 -0.701,0 -1.17,0.272 -1.521,0.858 -0.428,0.702 -0.662,1.912 -0.662,3.082 0,0.936 0.156,1.951 0.427,2.614 0.391,0.975 0.938,1.405 1.795,1.365 C -3.2,3.94 -2.77,3.706 -2.42,3.121 -1.991,2.38 -1.756,1.248 -1.756,0"
             style="fill:#ffffff;fill-opacity:1;fill-rule:nonzero;stroke:none"
             id="path6343" />
        </g>
        <g
           id="g6345"
           transform="translate(459.4104,113.3061)">
          <path
             inkscape:connector-curvature="0"
             d="m 0,0 c -1.639,0 -2.693,0.625 -3.395,1.99 -0.507,0.975 -0.82,2.38 -0.82,3.784 0,1.756 0.469,3.512 1.25,4.487 0.662,0.82 1.6,1.249 2.848,1.249 1.678,0 2.73,-0.703 3.472,-2.264 L 1.717,8.544 C 1.092,9.481 0.74,9.715 -0.117,9.715 -1.016,9.715 -1.6,9.325 -1.99,8.35 -2.264,7.686 -2.42,6.711 -2.42,5.774 c 0,-1.209 0.273,-2.419 0.703,-3.121 0.391,-0.585 0.897,-0.858 1.678,-0.858 0.74,0 1.287,0.39 1.717,1.287 L 3.355,2.458 C 2.691,0.819 1.6,0 0,0"
             style="fill:#ffffff;fill-opacity:1;fill-rule:nonzero;stroke:none"
             id="path6347" />
        </g>
        <g
           id="g6349"
           transform="translate(465.1443,113.5014)">
          <path
             inkscape:connector-curvature="0"
             d="m 0,0 0,11.119 6.555,0 0,-1.755 -4.799,0 0,-2.732 3.238,0 0,-1.794 -3.238,0 0,-3.043 5.151,0 L 6.907,0 0,0 z"
             style="fill:#ffffff;fill-opacity:1;fill-rule:nonzero;stroke:none"
             id="path6351" />
        </g>
        <g
           id="g6353"
           transform="translate(479.8924,113.5014)">
          <path
             inkscape:connector-curvature="0"
             d="m 0,0 -4.254,7.53 0,-7.53 -1.753,0 0,11.119 1.753,0 4.059,-7.101 0,7.101 1.756,0 L 1.561,0 0,0 z"
             style="fill:#ffffff;fill-opacity:1;fill-rule:nonzero;stroke:none"
             id="path6355" />
        </g>
        <g
           id="g6357"
           transform="translate(487.3834,123.06)">
          <path
             inkscape:connector-curvature="0"
             d="m 0,0 0,-9.559 -1.756,0 0,9.559 -2.535,0 0,1.561 6.865,0 L 2.574,0 0,0 z"
             style="fill:#ffffff;fill-opacity:1;fill-rule:nonzero;stroke:none"
             id="path6359" />
        </g>
        <g
           id="g6361"
           transform="translate(491.5564,113.5014)">
          <path
             inkscape:connector-curvature="0"
             d="m 0,0 0,11.119 6.555,0 0,-1.755 -4.799,0 0,-2.732 3.239,0 0,-1.794 -3.239,0 0,-3.043 5.151,0 L 6.907,0 0,0 z"
             style="fill:#ffffff;fill-opacity:1;fill-rule:nonzero;stroke:none"
             id="path6363" />
        </g>
        <g
           id="g6365"
           transform="translate(507.8654,113.5014)">
          <path
             inkscape:connector-curvature="0"
             d="m 0,0 -1.951,5.189 c 1.015,0.468 1.717,1.639 1.717,2.809 0,1.131 -0.702,2.302 -1.678,2.77 -0.545,0.273 -1.131,0.351 -1.99,0.351 l -3.666,0 0,-11.119 1.756,0 0,4.838 2.105,0 L -1.912,0 0,0 z M -1.99,7.998 C -1.99,7.53 -2.264,7.061 -2.691,6.828 -2.965,6.671 -3.16,6.632 -3.707,6.632 l -2.105,0 0,2.732 2.105,0 c 0.586,0 0.742,-0.039 1.016,-0.196 0.427,-0.233 0.701,-0.702 0.701,-1.17"
             style="fill:#ffffff;fill-opacity:1;fill-rule:nonzero;stroke:none"
             id="path6367" />
        </g>
        <g
           id="g6369"
           transform="translate(444.1094,95.5005)">
          <path
             inkscape:connector-curvature="0"
             d="m 0,0 -4.209,7.455 0,-7.455 -1.738,0 0,11.01 1.738,0 4.016,-7.031 0,7.031 1.738,0 L 1.545,0 0,0 z"
             style="fill:#ffffff;fill-opacity:1;fill-rule:evenodd;stroke:none"
             id="path6371" />
        </g>
        <g
           id="g6373"
           transform="translate(448.2424,95.5005)">
          <path
             inkscape:connector-curvature="0"
             d="m 0,0 0,11.01 6.49,0 0,-1.739 -4.752,0 0,-2.704 3.205,0 0,-1.776 -3.205,0 0,-3.013 5.1,0 L 6.838,0 0,0 z"
             style="fill:#ffffff;fill-opacity:1;fill-rule:evenodd;stroke:none"
             id="path6375" />
        </g>
        <g
           id="g6377"
           transform="translate(461.6444,95.5005)">
          <path
             inkscape:connector-curvature="0"
             d="M 0,0 -1.775,3.67 -3.552,0 l -1.971,0 2.742,5.678 -2.549,5.332 1.971,0 1.584,-3.283 1.582,3.283 1.971,0 L -0.81,5.678 1.971,0 0,0 z"
             style="fill:#ffffff;fill-opacity:1;fill-rule:evenodd;stroke:none"
             id="path6379" />
        </g>
        <g
           id="g6381"
           transform="translate(468.7134,104.9643)">
          <path
             inkscape:connector-curvature="0"
             d="m 0,0 0,-9.464 -1.739,0 0,9.464 -2.509,0 0,1.546 6.797,0 L 2.549,0 0,0 z"
             style="fill:#ffffff;fill-opacity:1;fill-rule:evenodd;stroke:none"
             id="path6383" />
        </g>
        <g
           id="g6385"
           transform="translate(492.4454,95.5005)">
          <path
             inkscape:connector-curvature="0"
             d="m 0,0 -1.932,5.139 c 1.006,0.463 1.702,1.621 1.702,2.779 0,1.121 -0.696,2.28 -1.662,2.744 -0.541,0.269 -1.12,0.348 -1.969,0.348 l -3.631,0 0,-11.01 1.738,0 0,4.791 2.084,0 L -1.892,0 0,0 z M -1.969,7.918 C -1.969,7.455 -2.24,6.993 -2.664,6.76 -2.935,6.606 -3.129,6.567 -3.67,6.567 l -2.084,0 0,2.704 2.084,0 c 0.58,0 0.735,-0.039 1.006,-0.193 0.424,-0.232 0.695,-0.695 0.695,-1.16"
             style="fill:#ffffff;fill-opacity:1;fill-rule:evenodd;stroke:none"
             id="path6387" />
        </g>
        <path
           inkscape:connector-curvature="0"
           d="m 494.26,106.51 1.777,0 0,-11.01 -1.777,0 0,11.01 z"
           style="fill:#ffffff;fill-opacity:1;fill-rule:evenodd;stroke:none"
           id="path6389" />
        <g
           id="g6391"
           transform="translate(502.4104,95.3075)">
          <path
             inkscape:connector-curvature="0"
             d="m 0,0 c -1.66,0 -2.627,0.619 -3.283,2.01 -0.463,0.965 -0.733,2.316 -0.733,3.668 0,1.777 0.502,3.515 1.235,4.482 0.658,0.81 1.584,1.235 2.82,1.235 1.699,0 2.703,-0.695 3.438,-2.434 L 1.816,8.305 C 1.352,9.271 0.889,9.619 0.039,9.619 -0.85,9.619 -1.428,9.232 -1.814,8.268 -2.086,7.609 -2.24,6.605 -2.24,5.678 c 0,-1.158 0.193,-2.317 0.541,-3.012 0.347,-0.617 0.849,-0.889 1.506,-0.889 1.121,0 1.931,0.696 1.931,1.7 l 0,0.464 -2.008,0 0,1.737 3.747,0 0,-2.201 C 3.477,1.469 2.01,0 0,0"
             style="fill:#ffffff;fill-opacity:1;fill-rule:evenodd;stroke:none"
             id="path6393" />
        </g>
        <g
           id="g6395"
           transform="translate(513.9984,95.5005)">
          <path
             inkscape:connector-curvature="0"
             d="m 0,0 0,4.791 -4.018,0 0,-4.791 -1.738,0 0,11.01 1.738,0 0,-4.443 4.018,0 0,4.443 1.738,0 L 1.738,0 0,0 z"
             style="fill:#ffffff;fill-opacity:1;fill-rule:evenodd;stroke:none"
             id="path6397" />
        </g>
        <g
           id="g6399"
           transform="translate(521.6074,104.9643)">
          <path
             inkscape:connector-curvature="0"
             d="m 0,0 0,-9.464 -1.738,0 0,9.464 -2.512,0 0,1.546 6.799,0 L 2.549,0 0,0 z"
             style="fill:#ffffff;fill-opacity:1;fill-rule:evenodd;stroke:none"
             id="path6401" />
        </g>
      </g>
    </g>
  </g>
</svg>
