<?xml version="1.0" encoding="UTF-8" standalone="no"?>
<!-- Created with Inkscape (http://www.inkscape.org/) -->

<svg
   xmlns:dc="http://purl.org/dc/elements/1.1/"
   xmlns:cc="http://creativecommons.org/ns#"
   xmlns:rdf="http://www.w3.org/1999/02/22-rdf-syntax-ns#"
   xmlns:svg="http://www.w3.org/2000/svg"
   xmlns="http://www.w3.org/2000/svg"
   xmlns:sodipodi="http://sodipodi.sourceforge.net/DTD/sodipodi-0.dtd"
   xmlns:inkscape="http://www.inkscape.org/namespaces/inkscape"
   width="75"
   height="75.15625"
   id="svg4020"
   version="1.1"
   inkscape:version="0.48.3.1 r9886"
   sodipodi:docname="New document 10">
  <defs
     id="defs4022">
    <clipPath
       clipPathUnits="userSpaceOnUse"
       id="clipPath3561">
      <path
         inkscape:connector-curvature="0"
         d="m 63,45 513,0 0,209.6 -513,0 L 63,45 z"
         id="path3563" />
    </clipPath>
    <clipPath
       clipPathUnits="userSpaceOnUse"
       id="clipPath3549">
      <path
         inkscape:connector-curvature="0"
         d="m 66.372,45 506.255,0 0,208.6 -506.255,0 0,-208.6 z"
         id="path3551" />
    </clipPath>
  </defs>
  <sodipodi:namedview
     id="base"
     pagecolor="#ffffff"
     bordercolor="#666666"
     borderopacity="1.0"
     inkscape:pageopacity="0.0"
     inkscape:pageshadow="2"
     inkscape:zoom="0.35"
     inkscape:cx="37.492192"
     inkscape:cy="37.579377"
     inkscape:document-units="px"
     inkscape:current-layer="layer1"
     showgrid="false"
     fit-margin-top="0"
     fit-margin-left="0"
     fit-margin-right="0"
     fit-margin-bottom="0"
     inkscape:window-width="451"
     inkscape:window-height="398"
     inkscape:window-x="25"
     inkscape:window-y="25"
     inkscape:window-maximized="0" />
  <metadata
     id="metadata4025">
    <rdf:RDF>
      <cc:Work
         rdf:about="">
        <dc:format>image/svg+xml</dc:format>
        <dc:type
           rdf:resource="http://purl.org/dc/dcmitype/StillImage" />
        <dc:title></dc:title>
      </cc:Work>
    </rdf:RDF>
  </metadata>
  <g
     inkscape:label="Layer 1"
     inkscape:groupmode="layer"
     id="layer1"
     transform="translate(-337.50781,-494.78531)">
    <g
       transform="matrix(1.25,0,0,-1.25,-301.09813,783.74031)"
       id="g3545">
      <g
         id="g3547"
         clip-path="url(#clipPath3549)">
        <g
           id="g3553"
           transform="translate(518.8535,230.914)">
          <path
             inkscape:connector-curvature="0"
             d="m 0,0 44.051,0 c 4.246,0 7.719,-3.474 7.719,-7.719 l 0,-44.184 c 0,-4.246 -3.473,-7.72 -7.719,-7.72 l -44.051,0 c -4.246,0 -7.72,3.474 -7.72,7.72 l 0,44.184 C -7.72,-3.474 -4.246,0 0,0 z"
             style="fill:none;stroke:#231f20;stroke-width:0.5;stroke-linecap:butt;stroke-linejoin:miter;stroke-miterlimit:10;stroke-opacity:1;stroke-dasharray:none"
             id="path3555" />
        </g>
      </g>
    </g>
    <g
       transform="matrix(1.25,0,0,-1.25,-301.09813,783.74031)"
       id="g3557">
      <g
         id="g3559"
         clip-path="url(#clipPath3561)">
        <g
           id="g3565"
           transform="translate(518.8535,229.6493)">
          <path
             inkscape:connector-curvature="0"
             d="m 0,0 44.051,0 c 3.551,0 6.455,-2.904 6.455,-6.454 l 0,-44.185 c 0,-3.55 -2.904,-6.455 -6.455,-6.455 l -44.051,0 c -3.55,0 -6.455,2.905 -6.455,6.455 l 0,44.185 C -6.455,-2.904 -3.55,0 0,0"
             style="fill:#155196;fill-opacity:1;fill-rule:evenodd;stroke:none"
             id="path3567" />
        </g>
        <g
           id="g3569"
           transform="translate(531.3325,221.8456)">
          <path
             inkscape:connector-curvature="0"
             d="m 0,0 c -0.225,0.129 -0.354,0.161 -0.836,0.161 l -1.74,0 0,-2.254 1.74,0 c 0.449,0 0.611,0.032 0.836,0.16 0.355,0.194 0.58,0.581 0.58,0.967 C 0.58,-0.58 0.355,-0.193 0,0 m 0.644,-7.567 -1.48,3.993 -1.74,0 0,-3.993 -1.449,0 0,9.177 3.027,0 c 0.709,0 1.191,-0.064 1.642,-0.29 0.805,-0.386 1.385,-1.352 1.385,-2.286 0,-0.967 -0.58,-1.932 -1.418,-2.318 l 1.612,-4.283 -1.579,0 z"
             style="fill:#ffffff;fill-opacity:1;fill-rule:nonzero;stroke:none"
             id="path3571" />
        </g>
        <g
           id="g3573"
           transform="translate(535.1005,214.2782)">
          <path
             inkscape:connector-curvature="0"
             d="m 0,0 0,9.178 5.41,0 0,-1.449 -3.961,0 0,-2.254 2.672,0 0,-1.482 -2.672,0 0,-2.511 4.25,0 L 5.699,0 0,0 z"
             style="fill:#ffffff;fill-opacity:1;fill-rule:nonzero;stroke:none"
             id="path3575" />
        </g>
        <g
           id="g3577"
           transform="translate(547.0475,214.8251)">
          <path
             inkscape:connector-curvature="0"
             d="m 0,0 c -0.516,-0.45 -1.225,-0.708 -1.996,-0.708 -1.578,0 -2.739,0.935 -3.35,2.318 l 1.385,0.516 c 0.387,-0.869 1.094,-1.353 1.965,-1.353 0.836,0 1.416,0.579 1.416,1.353 0,1.224 -1.416,1.417 -2.608,1.899 -0.549,0.226 -1.771,0.774 -1.771,2.288 0,1.802 1.222,2.479 2.865,2.479 1.289,0 2.158,-0.741 2.609,-1.868 L -0.774,6.537 c 0,0 -0.322,0.774 -1.351,0.806 C -2.803,7.375 -3.608,7.117 -3.543,6.28 -3.414,4.573 0.9,5.7 0.9,2.094 0.9,1.257 0.58,0.516 0,0"
             style="fill:#ffffff;fill-opacity:1;fill-rule:nonzero;stroke:none"
             id="path3579" />
        </g>
        <g
           id="g3581"
           transform="translate(552.2305,222.1679)">
          <path
             inkscape:connector-curvature="0"
             d="m 0,0 0,-7.89 -1.449,0 0,7.89 -2.094,0 0,1.288 5.668,0 L 2.125,0 0,0 z"
             style="fill:#ffffff;fill-opacity:1;fill-rule:nonzero;stroke:none"
             id="path3583" />
        </g>
        <g
           id="g3585"
           transform="translate(529.4395,205.4735)">
          <path
             inkscape:connector-curvature="0"
             d="m 0,0 -0.933,-2.576 1.836,0 L 0,0 z m 2.319,-6.634 -0.901,2.576 -2.867,0 -0.9,-2.576 -1.547,0 3.156,9.178 1.449,0 3.157,-9.178 -1.547,0 z"
             style="fill:#ffffff;fill-opacity:1;fill-rule:nonzero;stroke:none"
             id="path3587" />
        </g>
        <g
           id="g3589"
           transform="translate(538.7135,206.4071)">
          <path
             inkscape:connector-curvature="0"
             d="m 0,0 c -0.225,0.129 -0.354,0.161 -0.836,0.161 l -1.738,0 0,-2.254 1.738,0 c 0.451,0 0.611,0.032 0.836,0.161 0.355,0.194 0.58,0.58 0.58,0.966 C 0.58,-0.579 0.355,-0.193 0,0 m 0.644,-7.567 -1.48,3.993 -1.738,0 0,-3.993 -1.45,0 0,9.177 3.026,0 c 0.709,0 1.191,-0.064 1.642,-0.29 0.805,-0.385 1.385,-1.352 1.385,-2.286 0,-0.966 -0.58,-1.931 -1.416,-2.318 l 1.609,-4.283 -1.578,0 z"
             style="fill:#ffffff;fill-opacity:1;fill-rule:nonzero;stroke:none"
             id="path3591" />
        </g>
        <g
           id="g3593"
           transform="translate(542.4805,198.8397)">
          <path
             inkscape:connector-curvature="0"
             d="m 0,0 0,9.178 5.411,0 0,-1.449 -3.961,0 0,-2.254 2.673,0 0,-1.482 -2.673,0 0,-2.512 4.252,0 L 5.702,0 0,0 z"
             style="fill:#ffffff;fill-opacity:1;fill-rule:nonzero;stroke:none"
             id="path3595" />
        </g>
        <g
           id="g3597"
           transform="translate(552.8185,205.4735)">
          <path
             inkscape:connector-curvature="0"
             d="m 0,0 -0.933,-2.576 1.834,0 L 0,0 z m 2.319,-6.634 -0.903,2.576 -2.865,0 -0.902,-2.576 -1.545,0 3.154,9.178 1.449,0 3.157,-9.178 -1.545,0 z"
             style="fill:#ffffff;fill-opacity:1;fill-rule:nonzero;stroke:none"
             id="path3599" />
        </g>
        <g
           id="g3601"
           transform="translate(550.7445,193.7665)">
          <path
             inkscape:connector-curvature="0"
             d="M 0,0 C -0.141,0.204 -0.387,0.32 -0.621,0.303 L -11.1,0.307 c -0.142,0.002 -0.285,-0.039 -0.404,-0.121 -0.318,-0.215 -0.4,-0.651 -0.185,-0.968 0.048,-0.073 0.115,-0.136 0.185,-0.184 l 3.477,-2.721 -12.895,-7.896 2.33,-3.377 12.225,8.94 1.238,-4.331 c 0.018,-0.077 0.053,-0.16 0.102,-0.23 0.215,-0.317 0.65,-0.4 0.967,-0.185 0.107,0.073 0.189,0.172 0.246,0.291 l 3.873,9.783 C 0.154,-0.451 0.147,-0.217 0,0"
             style="fill:#ffffff;fill-opacity:1;fill-rule:evenodd;stroke:none"
             id="path3603" />
        </g>
      </g>
    </g>
  </g>
</svg>
