<?xml version="1.0" encoding="UTF-8" standalone="no"?>
<!-- Created with Inkscape (http://www.inkscape.org/) -->

<svg
   xmlns:dc="http://purl.org/dc/elements/1.1/"
   xmlns:cc="http://creativecommons.org/ns#"
   xmlns:rdf="http://www.w3.org/1999/02/22-rdf-syntax-ns#"
   xmlns:svg="http://www.w3.org/2000/svg"
   xmlns="http://www.w3.org/2000/svg"
   xmlns:sodipodi="http://sodipodi.sourceforge.net/DTD/sodipodi-0.dtd"
   xmlns:inkscape="http://www.inkscape.org/namespaces/inkscape"
   width="81.601562"
   height="61.367188"
   id="svg9767"
   version="1.1"
   inkscape:version="0.48.3.1 r9886"
   sodipodi:docname="New document 58">
  <defs
     id="defs9769" />
  <sodipodi:namedview
     id="base"
     pagecolor="#ffffff"
     bordercolor="#666666"
     borderopacity="1.0"
     inkscape:pageopacity="0.0"
     inkscape:pageshadow="2"
     inkscape:zoom="0.35"
     inkscape:cx="84.36705"
     inkscape:cy="-35.033975"
     inkscape:document-units="px"
     inkscape:current-layer="layer1"
     showgrid="false"
     fit-margin-top="0"
     fit-margin-left="0"
     fit-margin-right="0"
     fit-margin-bottom="0"
     inkscape:window-width="451"
     inkscape:window-height="398"
     inkscape:window-x="80"
     inkscape:window-y="88"
     inkscape:window-maximized="0" />
  <metadata
     id="metadata9772">
    <rdf:RDF>
      <cc:Work
         rdf:about="">
        <dc:format>image/svg+xml</dc:format>
        <dc:type
           rdf:resource="http://purl.org/dc/dcmitype/StillImage" />
        <dc:title></dc:title>
      </cc:Work>
    </rdf:RDF>
  </metadata>
  <g
     inkscape:label="Layer 1"
     inkscape:groupmode="layer"
     id="layer1"
     transform="translate(-290.63295,-435.96102)">
    <g
       id="g6580"
       transform="matrix(1.25,0,0,-1.25,298.13295,436.27352)">
      <path
         d="m 0,0 53.271,0 c 3.17,0 5.766,-2.593 5.766,-5.763 l 0,-37.071 c 0,-3.172 -2.596,-5.765 -5.766,-5.765 l -53.271,0 c -3.171,0 -5.764,2.593 -5.764,5.765 l 0,37.071 C -5.764,-2.593 -3.171,0 0,0"
         style="fill:#ffffff;fill-opacity:1;fill-rule:nonzero;stroke:none"
         id="path6582"
         inkscape:connector-curvature="0" />
    </g>
    <g
       id="g6584"
       transform="matrix(1.25,0,0,-1.25,298.13295,436.27352)">
      <path
         d="m 0,0 53.271,0 c 3.17,0 5.766,-2.593 5.766,-5.763 l 0,-37.071 c 0,-3.172 -2.596,-5.765 -5.766,-5.765 l -53.271,0 c -3.171,0 -5.764,2.593 -5.764,5.765 l 0,37.071 C -5.764,-2.593 -3.171,0 0,0 z"
         style="fill:none;stroke:#231f20;stroke-width:0.5;stroke-linecap:butt;stroke-linejoin:miter;stroke-miterlimit:4;stroke-opacity:1;stroke-dasharray:none"
         id="path6586"
         inkscape:connector-curvature="0" />
    </g>
    <g
       id="g6588"
       transform="matrix(1.25,0,0,-1.25,298.13295,438.07228)">
      <path
         d="m 0,0 53.271,0 c 2.379,0 4.327,-1.947 4.327,-4.324 l 0,-37.071 c 0,-2.381 -1.948,-4.326 -4.327,-4.326 l -53.271,0 c -2.379,0 -4.324,1.945 -4.324,4.326 l 0,37.071 C -4.324,-1.947 -2.379,0 0,0"
         style="fill:#155196;fill-opacity:1;fill-rule:evenodd;stroke:none"
         id="path6590"
         inkscape:connector-curvature="0" />
    </g>
    <g
       id="g6592"
       transform="matrix(1.25,0,0,-1.25,299.13795,453.48727)">
      <path
         d="m 0,0 0,8.094 3.805,0 0,-1.137 -2.641,0 0,-2.045 1.676,0 0,-1.108 -1.676,0 0,-2.667 2.953,0 L 4.117,0 0,0 z"
         style="fill:#ffffff;fill-opacity:1;fill-rule:nonzero;stroke:none"
         id="path6594"
         inkscape:connector-curvature="0" />
    </g>
    <g
       id="g6596"
       transform="matrix(1.25,0,0,-1.25,311.2067,453.48727)">
      <path
         d="M 0,0 0,4.543 -1.505,0 -3.01,4.543 -3.01,0 l -1.164,0 0,8.094 1.164,0 L -1.505,3.551 0,8.094 1.164,8.094 1.164,0 0,0 z"
         style="fill:#ffffff;fill-opacity:1;fill-rule:nonzero;stroke:none"
         id="path6598"
         inkscape:connector-curvature="0" />
    </g>
    <g
       id="g6600"
       transform="matrix(1.25,0,0,-1.25,314.86295,453.48727)">
      <path
         d="m 0,0 0,8.094 3.805,0 0,-1.137 -2.641,0 0,-2.045 1.675,0 0,-1.108 -1.675,0 0,-2.667 2.953,0 L 4.117,0 0,0 z"
         style="fill:#ffffff;fill-opacity:1;fill-rule:nonzero;stroke:none"
         id="path6602"
         inkscape:connector-curvature="0" />
    </g>
    <g
       id="g6604"
       transform="matrix(1.25,0,0,-1.25,324.65795,444.79103)">
      <path
         d="m 0,0 -1.192,0 0,-2.045 1.192,0 c 0.682,0 1.051,0.369 1.051,1.023 C 1.051,-0.397 0.625,0 0,0 m 0.994,-6.957 -1.079,3.804 -1.107,0 0,-3.804 -1.164,0 0,8.094 2.414,0 c 1.277,0 2.129,-0.852 2.129,-2.159 0,-0.966 -0.398,-1.675 -1.164,-1.959 l 1.164,-3.976 -1.193,0 z"
         style="fill:#ffffff;fill-opacity:1;fill-rule:nonzero;stroke:none"
         id="path6606"
         inkscape:connector-curvature="0" />
    </g>
    <g
       id="g6608"
       transform="matrix(1.25,0,0,-1.25,334.27795,452.24477)">
      <path
         d="m 0,0 c -0.312,-0.709 -0.965,-1.137 -1.789,-1.137 -0.965,0 -1.675,0.485 -2.073,1.393 -0.256,0.596 -0.426,1.732 -0.426,2.783 0,1.135 0.085,1.959 0.37,2.725 0.284,0.853 1.107,1.476 2.044,1.476 1.165,0 2.044,-0.851 2.101,-2.043 l -1.164,0 C -0.965,5.736 -1.334,6.105 -1.902,6.105 -2.299,6.105 -2.612,5.906 -2.811,5.51 -3.039,5.111 -3.18,4.203 -3.18,3.236 -3.18,2.557 -3.124,1.846 -3.009,1.221 -2.839,0.426 -2.442,0 -1.817,0 c 0.596,0 0.88,0.398 0.88,1.25 l 0,0.539 -0.908,0 0,1.137 2.072,0 0,-1.676 C 0.227,0.682 0.17,0.34 0,0"
         style="fill:#ffffff;fill-opacity:1;fill-rule:nonzero;stroke:none"
         id="path6610"
         inkscape:connector-curvature="0" />
    </g>
    <g
       id="g6612"
       transform="matrix(1.25,0,0,-1.25,336.5842,453.48727)">
      <path
         d="m 0,0 0,8.094 3.806,0 0,-1.137 -2.641,0 0,-2.045 1.675,0 0,-1.108 -1.675,0 0,-2.667 2.953,0 L 4.118,0 0,0 z"
         style="fill:#ffffff;fill-opacity:1;fill-rule:nonzero;stroke:none"
         id="path6614"
         inkscape:connector-curvature="0" />
    </g>
    <g
       id="g6616"
       transform="matrix(1.25,0,0,-1.25,348.01545,453.48727)">
      <path
         d="m 0,0 -2.499,5.424 0,-5.424 -1.165,0 0,8.094 1.165,0 2.215,-4.856 0,4.856 1.164,0 L 0.88,0 0,0 z"
         style="fill:#ffffff;fill-opacity:1;fill-rule:nonzero;stroke:none"
         id="path6618"
         inkscape:connector-curvature="0" />
    </g>
    <g
       id="g6620"
       transform="matrix(1.25,0,0,-1.25,355.32545,446.06853)">
      <path
         d="m 0,0 c -0.113,0.795 -0.425,1.164 -0.964,1.164 -0.938,0 -1.279,-0.738 -1.279,-2.839 0,-2.329 0.398,-3.266 1.392,-3.266 0.681,0 0.851,0.568 0.851,1.164 l 1.164,0 c -0.028,-1.334 -0.879,-2.301 -2.015,-2.301 -1.733,0 -2.499,1.393 -2.499,4.373 0,2.614 0.823,4.004 2.414,4.004 0.652,0 1.221,-0.283 1.59,-0.822 C 0.966,1.078 1.079,0.739 1.164,0 L 0,0 z"
         style="fill:#ffffff;fill-opacity:1;fill-rule:nonzero;stroke:none"
         id="path6622"
         inkscape:connector-curvature="0" />
    </g>
    <g
       id="g6624"
       transform="matrix(1.25,0,0,-1.25,361.96295,448.90727)">
      <path
         d="m 0,0 0,-3.664 -1.164,0 0,3.664 -1.987,4.43 1.22,0 1.364,-2.926 1.334,2.926 1.25,0 L 0,0 z"
         style="fill:#ffffff;fill-opacity:1;fill-rule:nonzero;stroke:none"
         id="path6626"
         inkscape:connector-curvature="0" />
    </g>
    <g
       id="g6628"
       transform="matrix(1.25,0,0,-1.25,313.5192,471.61727)">
      <path
         d="M 0,0 0,4.543 -1.505,0 l -1.506,4.543 0,-4.543 -1.164,0 0,8.092 1.164,0 L -1.505,3.549 0,8.092 1.164,8.092 1.164,0 0,0 z"
         style="fill:#ffffff;fill-opacity:1;fill-rule:nonzero;stroke:none"
         id="path6630"
         inkscape:connector-curvature="0" />
    </g>
    <g
       id="g6632"
       transform="matrix(1.25,0,0,-1.25,317.1742,471.61727)">
      <path
         d="m 0,0 0,8.092 3.806,0 0,-1.135 -2.642,0 0,-2.045 1.676,0 0,-1.107 -1.676,0 0,-2.67 2.954,0 L 4.118,0 0,0 z"
         style="fill:#ffffff;fill-opacity:1;fill-rule:nonzero;stroke:none"
         id="path6634"
         inkscape:connector-curvature="0" />
    </g>
    <g
       id="g6636"
       transform="matrix(1.25,0,0,-1.25,328.00045,463.95102)">
      <path
         d="m 0,0 c -0.198,0.568 -0.539,0.824 -1.051,0.824 l -0.965,0 0,-5.822 0.965,0 c 0.682,0 1.051,0.539 1.164,1.164 0.058,0.511 0.115,1.08 0.115,1.705 C 0.228,-1.221 0.143,-0.34 0,0 M 0.199,-5.764 C -0.085,-6.02 -0.482,-6.133 -0.937,-6.133 l -2.244,0 0,8.092 2.074,0 c 0.681,0 1.022,-0.084 1.306,-0.313 0.483,-0.34 0.823,-0.965 0.965,-1.789 0.114,-0.596 0.199,-1.305 0.199,-1.93 0,-1.875 -0.369,-3.068 -1.164,-3.691"
         style="fill:#ffffff;fill-opacity:1;fill-rule:nonzero;stroke:none"
         id="path6638"
         inkscape:connector-curvature="0" />
    </g>
    <path
       d="m 331.69095,461.50165 1.42125,0 0,10.115 -1.42125,0 0,-10.115 z"
       style="fill:#ffffff;fill-opacity:1;fill-rule:nonzero;stroke:none"
       id="path6640"
       inkscape:connector-curvature="0" />
    <g
       id="g6642"
       transform="matrix(1.25,0,0,-1.25,339.35795,464.20102)">
      <path
         d="m 0,0 c -0.113,0.795 -0.426,1.165 -0.965,1.165 -0.937,0 -1.278,-0.739 -1.278,-2.84 0,-2.328 0.397,-3.266 1.391,-3.266 0.682,0 0.852,0.568 0.852,1.166 l 1.164,0 c -0.028,-1.336 -0.88,-2.301 -2.016,-2.301 -1.732,0 -2.499,1.391 -2.499,4.373 0,2.614 0.824,4.004 2.414,4.004 0.653,0 1.221,-0.283 1.59,-0.824 C 0.966,1.081 1.079,0.739 1.164,0 L 0,0 z"
         style="fill:#ffffff;fill-opacity:1;fill-rule:nonzero;stroke:none"
         id="path6644"
         inkscape:connector-curvature="0" />
    </g>
    <g
       id="g6646"
       transform="matrix(1.25,0,0,-1.25,345.25045,464.51978)">
      <path
         d="m 0,0 -0.569,-2.328 1.165,0 L 0,0 z m 1.448,-5.678 -0.568,2.215 -1.733,0 -0.539,-2.215 -1.164,0 2.016,8.092 1.136,0 2.016,-8.092 -1.164,0 z"
         style="fill:#ffffff;fill-opacity:1;fill-rule:nonzero;stroke:none"
         id="path6648"
         inkscape:connector-curvature="0" />
    </g>
    <g
       id="g6650"
       transform="matrix(1.25,0,0,-1.25,349.8992,471.61727)">
      <path
         d="m 0,0 0,8.092 1.165,0 0,-7.014 2.953,0 L 4.118,0 0,0 z"
         style="fill:#ffffff;fill-opacity:1;fill-rule:nonzero;stroke:none"
         id="path6652"
         inkscape:connector-curvature="0" />
    </g>
    <g
       id="g6654"
       transform="matrix(1.25,0,0,-1.25,322.45045,482.50602)">
      <path
         d="m 0,0 c -0.114,0.795 -0.427,1.164 -0.966,1.164 -0.937,0 -1.278,-0.738 -1.278,-2.84 0,-2.328 0.397,-3.265 1.392,-3.265 0.681,0 0.852,0.568 0.852,1.166 l 1.164,0 c -0.029,-1.336 -0.88,-2.301 -2.016,-2.301 -1.733,0 -2.499,1.39 -2.499,4.373 0,2.613 0.823,4.004 2.413,4.004 0.653,0 1.222,-0.283 1.591,-0.824 C 0.964,1.08 1.079,0.738 1.164,0 L 0,0 z"
         style="fill:#ffffff;fill-opacity:1;fill-rule:nonzero;stroke:none"
         id="path6656"
         inkscape:connector-curvature="0" />
    </g>
    <g
       id="g6658"
       transform="matrix(1.25,0,0,-1.25,328.3417,482.82602)">
      <path
         d="m 0,0 -0.568,-2.328 1.164,0 L 0,0 z m 1.449,-5.678 -0.569,2.215 -1.732,0 -0.539,-2.215 -1.164,0 2.015,8.092 1.136,0 2.017,-8.092 -1.164,0 z"
         style="fill:#ffffff;fill-opacity:1;fill-rule:nonzero;stroke:none"
         id="path6660"
         inkscape:connector-curvature="0" />
    </g>
    <g
       id="g6662"
       transform="matrix(1.25,0,0,-1.25,335.93795,481.22727)">
      <path
         d="m 0,0 -1.193,0 0,-2.045 1.193,0 c 0.681,0 1.05,0.37 1.05,1.022 C 1.05,-0.398 0.625,0 0,0 m 0.994,-6.957 -1.079,3.805 -1.108,0 0,-3.805 -1.165,0 0,8.092 2.414,0 c 1.279,0 2.13,-0.851 2.13,-2.158 0,-0.965 -0.397,-1.676 -1.164,-1.959 l 1.164,-3.975 -1.192,0 z"
         style="fill:#ffffff;fill-opacity:1;fill-rule:nonzero;stroke:none"
         id="path6664"
         inkscape:connector-curvature="0" />
    </g>
    <g
       id="g6666"
       transform="matrix(1.25,0,0,-1.25,340.37295,489.92352)">
      <path
         d="m 0,0 0,8.092 3.806,0 0,-1.135 -2.641,0 0,-2.045 1.675,0 0,-1.107 -1.675,0 0,-2.67 2.954,0 L 4.119,0 0,0 z"
         style="fill:#ffffff;fill-opacity:1;fill-rule:nonzero;stroke:none"
         id="path6668"
         inkscape:connector-curvature="0" />
    </g>
  </g>
</svg>
