<?xml version="1.0" encoding="UTF-8" standalone="no"?>
<!-- Created with Inkscape (http://www.inkscape.org/) -->

<svg
   xmlns:dc="http://purl.org/dc/elements/1.1/"
   xmlns:cc="http://creativecommons.org/ns#"
   xmlns:rdf="http://www.w3.org/1999/02/22-rdf-syntax-ns#"
   xmlns:svg="http://www.w3.org/2000/svg"
   xmlns="http://www.w3.org/2000/svg"
   xmlns:sodipodi="http://sodipodi.sourceforge.net/DTD/sodipodi-0.dtd"
   xmlns:inkscape="http://www.inkscape.org/namespaces/inkscape"
   width="81.601562"
   height="81.640625"
   id="svg9165"
   version="1.1"
   inkscape:version="0.48.3.1 r9886"
   sodipodi:docname="New document 50">
  <defs
     id="defs9167">
    <clipPath
       clipPathUnits="userSpaceOnUse"
       id="clipPath6180">
      <path
         inkscape:connector-curvature="0"
         d="m 63.125,45.278 513.625,0 0,691.943 -513.625,0 0,-691.943 z"
         id="path6182" />
    </clipPath>
  </defs>
  <sodipodi:namedview
     id="base"
     pagecolor="#ffffff"
     bordercolor="#666666"
     borderopacity="1.0"
     inkscape:pageopacity="0.0"
     inkscape:pageshadow="2"
     inkscape:zoom="0.35"
     inkscape:cx="40.79375"
     inkscape:cy="40.828167"
     inkscape:document-units="px"
     inkscape:current-layer="layer1"
     showgrid="false"
     fit-margin-top="0"
     fit-margin-left="0"
     fit-margin-right="0"
     fit-margin-bottom="0"
     inkscape:window-width="451"
     inkscape:window-height="398"
     inkscape:window-x="50"
     inkscape:window-y="50"
     inkscape:window-maximized="0" />
  <metadata
     id="metadata9170">
    <rdf:RDF>
      <cc:Work
         rdf:about="">
        <dc:format>image/svg+xml</dc:format>
        <dc:type
           rdf:resource="http://purl.org/dc/dcmitype/StillImage" />
        <dc:title></dc:title>
      </cc:Work>
    </rdf:RDF>
  </metadata>
  <g
     inkscape:label="Layer 1"
     inkscape:groupmode="layer"
     id="layer1"
     transform="translate(-334.20625,-491.54973)">
    <g
       transform="matrix(1.25,0,0,-1.25,-187.192,1121.7416)"
       id="g6176">
      <g
         id="g6178"
         clip-path="url(#clipPath6180)">
        <g
           id="g6184"
           transform="translate(423.1186,503.9035)">
          <path
             inkscape:connector-curvature="0"
             d="m 0,0 53.269,0 c 3.171,0 5.766,-2.594 5.766,-5.764 l 0,-53.27 c 0,-3.171 -2.595,-5.766 -5.766,-5.766 L 0,-64.8 c -3.171,0 -5.765,2.595 -5.765,5.766 l 0,53.27 C -5.765,-2.594 -3.171,0 0,0"
             style="fill:#ffffff;fill-opacity:1;fill-rule:nonzero;stroke:none"
             id="path6186" />
        </g>
        <g
           id="g6188"
           transform="translate(423.1186,503.9035)">
          <path
             inkscape:connector-curvature="0"
             d="m 0,0 53.269,0 c 3.171,0 5.766,-2.594 5.766,-5.764 l 0,-53.27 c 0,-3.171 -2.595,-5.766 -5.766,-5.766 L 0,-64.8 c -3.171,0 -5.765,2.595 -5.765,5.766 l 0,53.27 C -5.765,-2.594 -3.171,0 0,0 z"
             style="fill:none;stroke:#231f20;stroke-width:0.5;stroke-linecap:butt;stroke-linejoin:miter;stroke-miterlimit:4;stroke-opacity:1;stroke-dasharray:none"
             id="path6190" />
        </g>
        <g
           id="g6192"
           transform="translate(423.1186,502.4645)">
          <path
             inkscape:connector-curvature="0"
             d="m 0,0 53.269,0 c 2.38,0 4.325,-1.947 4.325,-4.325 l 0,-53.27 c 0,-2.38 -1.945,-4.326 -4.325,-4.326 l -53.269,0 c -2.378,0 -4.325,1.946 -4.325,4.326 l 0,53.27 C -4.325,-1.947 -2.378,0 0,0"
             style="fill:#155196;fill-opacity:1;fill-rule:evenodd;stroke:none"
             id="path6194" />
        </g>
        <g
           id="g6196"
           transform="translate(428.5876,475.8255)">
          <path
             inkscape:connector-curvature="0"
             d="m 0,0 0,1.369 4.787,0 c 0,5.965 -0.052,13.323 0,17.897 0.045,3.92 10.715,3.785 17.897,3.92 7.181,0.137 19.933,0.002 19.949,-3.464 0.022,-4.951 0,-12.235 0,-18.353 C 42.557,0.475 42.1,-0.106 40.809,0 l -5.072,0 0,-13.582 1.625,0.012 -2.209,-3.629 -2.336,3.597 1.694,0.013 0,13.589 -6.925,0 C 27.069,2.672 25.868,4.786 22.229,4.903 18.928,4.625 17.535,2.76 17.213,0 L 0,0 z"
             style="fill:#ffffff;fill-opacity:1;fill-rule:evenodd;stroke:none"
             id="path6198" />
        </g>
        <g
           id="g6200"
           transform="translate(447.0816,475.7345)">
          <path
             inkscape:connector-curvature="0"
             d="m 0,0 c 0,-2.144 1.751,-3.894 3.897,-3.894 2.144,0 3.894,1.75 3.894,3.894 0,2.147 -1.75,3.896 -3.894,3.896 C 1.751,3.896 0,2.147 0,0"
             style="fill:#ffffff;fill-opacity:1;fill-rule:evenodd;stroke:none"
             id="path6202" />
        </g>
        <g
           id="g6204"
           transform="translate(449.1036,475.7345)">
          <path
             inkscape:connector-curvature="0"
             d="m 0,0 c 0,-1.032 0.842,-1.874 1.875,-1.874 1.031,0 1.873,0.842 1.873,1.874 0,1.032 -0.842,1.874 -1.873,1.874 C 0.842,1.874 0,1.032 0,0"
             style="fill:#155196;fill-opacity:1;fill-rule:evenodd;stroke:none"
             id="path6206" />
        </g>
        <path
           inkscape:connector-curvature="0"
           d="m 437.585,493.461 7.319,0 0,-6.654 -7.319,0 0,6.654 z"
           style="fill:#155196;fill-opacity:1;fill-rule:evenodd;stroke:none"
           id="path6208" />
        <path
           inkscape:connector-curvature="0"
           d="m 452.127,493.461 14.448,0 0,-6.654 -14.448,0 0,6.654 z"
           style="fill:#155196;fill-opacity:1;fill-rule:evenodd;stroke:none"
           id="path6210" />
        <g
           id="g6212"
           transform="translate(432.1606,473.5465)">
          <path
             inkscape:connector-curvature="0"
             d="m 0,0 c 0,0.773 -0.631,1.402 -1.403,1.402 -0.773,0 -1.403,-0.629 -1.403,-1.402 0,-0.773 0.63,-1.403 1.403,-1.403 C -0.631,-1.403 0,-0.773 0,0"
             style="fill:#ffffff;fill-opacity:1;fill-rule:evenodd;stroke:none"
             id="path6214" />
        </g>
        <g
           id="g6216"
           transform="translate(461.5016,471.4475)">
          <path
             inkscape:connector-curvature="0"
             d="m 0,0 -37.705,0 c -0.613,0 -1.115,-0.501 -1.115,-1.114 l 0,-24.912 c 0,-0.614 0.502,-1.115 1.115,-1.115 l 51.914,0 c 0.614,0 1.115,0.501 1.115,1.115 l 0,24.912 C 15.324,-0.501 14.823,0 14.209,0 l -9.75,0 0,-6.223 6.407,0 c 0.511,0 0.929,-0.419 0.929,-0.928 l 0,-7.801 c 0,-0.512 -0.418,-0.93 -0.929,-0.93 l -17.368,0 c -0.509,0 -0.927,0.418 -0.927,0.93 l 0,7.801 c 0,0.509 0.418,0.928 0.927,0.928 l 6.493,0 L 0,0 z"
             style="fill:#ffffff;fill-opacity:1;fill-rule:evenodd;stroke:none"
             id="path6218" />
        </g>
      </g>
    </g>
  </g>
</svg>
