<?xml version="1.0" encoding="UTF-8" standalone="no"?>
<!-- Created with Inkscape (http://www.inkscape.org/) -->

<svg
   xmlns:dc="http://purl.org/dc/elements/1.1/"
   xmlns:cc="http://creativecommons.org/ns#"
   xmlns:rdf="http://www.w3.org/1999/02/22-rdf-syntax-ns#"
   xmlns:svg="http://www.w3.org/2000/svg"
   xmlns="http://www.w3.org/2000/svg"
   xmlns:sodipodi="http://sodipodi.sourceforge.net/DTD/sodipodi-0.dtd"
   xmlns:inkscape="http://www.inkscape.org/namespaces/inkscape"
   width="81.640625"
   height="81.640625"
   id="svg8550"
   version="1.1"
   inkscape:version="0.48.3.1 r9886"
   sodipodi:docname="New document 38">
  <defs
     id="defs8552" />
  <sodipodi:namedview
     id="base"
     pagecolor="#ffffff"
     bordercolor="#666666"
     borderopacity="1.0"
     inkscape:pageopacity="0.0"
     inkscape:pageshadow="2"
     inkscape:zoom="0.35"
     inkscape:cx="40.822505"
     inkscape:cy="40.827502"
     inkscape:document-units="px"
     inkscape:current-layer="layer1"
     showgrid="false"
     fit-margin-top="0"
     fit-margin-left="0"
     fit-margin-right="0"
     fit-margin-bottom="0"
     inkscape:window-width="451"
     inkscape:window-height="398"
     inkscape:window-x="25"
     inkscape:window-y="25"
     inkscape:window-maximized="0" />
  <metadata
     id="metadata8555">
    <rdf:RDF>
      <cc:Work
         rdf:about="">
        <dc:format>image/svg+xml</dc:format>
        <dc:type
           rdf:resource="http://purl.org/dc/dcmitype/StillImage" />
        <dc:title></dc:title>
      </cc:Work>
    </rdf:RDF>
  </metadata>
  <g
     inkscape:label="Layer 1"
     inkscape:groupmode="layer"
     id="layer1"
     transform="translate(-334.1775,-491.54906)">
    <g
       id="g6940"
       transform="matrix(1.25,0,0,-1.25,339.88062,491.86156)">
      <path
         d="m 0,0 56.193,0 c 2.366,0 4.303,-1.936 4.303,-4.304 l 0,-56.194 c 0,-2.365 -1.937,-4.303 -4.303,-4.303 l -56.193,0 c -2.369,0 -4.305,1.938 -4.305,4.303 l 0,56.194 C -4.305,-1.936 -2.369,0 0,0"
         style="fill:#ffffff;fill-opacity:1;fill-rule:nonzero;stroke:none"
         id="path6942"
         inkscape:connector-curvature="0" />
    </g>
    <g
       id="g6944"
       transform="matrix(1.25,0,0,-1.25,339.88062,491.86156)">
      <path
         d="m 0,0 56.193,0 c 2.366,0 4.303,-1.936 4.303,-4.304 l 0,-56.194 c 0,-2.365 -1.937,-4.303 -4.303,-4.303 l -56.193,0 c -2.369,0 -4.305,1.938 -4.305,4.303 l 0,56.194 C -4.305,-1.936 -2.369,0 0,0 z"
         style="fill:none;stroke:#231f20;stroke-width:0.5;stroke-linecap:butt;stroke-linejoin:miter;stroke-miterlimit:4;stroke-opacity:1;stroke-dasharray:none"
         id="path6946"
         inkscape:connector-curvature="0" />
    </g>
    <g
       id="g6948"
       transform="matrix(1.25,0,0,-1.25,339.88062,493.88531)">
      <path
         d="m 0,0 56.193,0 c 1.475,0 2.682,-1.208 2.682,-2.685 l 0,-56.194 c 0,-1.475 -1.207,-2.682 -2.682,-2.682 l -56.193,0 c -1.476,0 -2.685,1.207 -2.685,2.682 l 0,56.194 C -2.685,-1.208 -1.476,0 0,0"
         style="fill:#155196;fill-opacity:1;fill-rule:evenodd;stroke:none"
         id="path6950"
         inkscape:connector-curvature="0" />
    </g>
    <path
       d="m 348.62862,550.36219 -4.6875,0 0,-36 4.6875,0 0,36 z"
       style="fill:#ffffff;fill-opacity:1;fill-rule:nonzero;stroke:none"
       id="path6952"
       inkscape:connector-curvature="0" />
    <g
       id="g6954"
       transform="matrix(1.25,0,0,-1.25,369.34062,550.36156)">
      <path
         d="m 0,0 -3.451,0 -5.174,16.502 0,-16.502 -3.75,0 0,28.8 3.737,0 4.888,-15.495 0,15.495 L 0,28.8 0,0 z"
         style="fill:#ffffff;fill-opacity:1;fill-rule:nonzero;stroke:none"
         id="path6956"
         inkscape:connector-curvature="0" />
    </g>
    <g
       id="g6958"
       transform="matrix(1.25,0,0,-1.25,374.53937,550.36156)">
      <path
         d="m 0,0 0,28.8 10.945,0 0,-3.75 -7.201,0 0,-7.776 4.332,0 0,-3.75 -4.332,0 L 3.744,0 0,0 z"
         style="fill:#ffffff;fill-opacity:1;fill-rule:nonzero;stroke:none"
         id="path6960"
         inkscape:connector-curvature="0" />
    </g>
    <g
       id="g6962"
       transform="matrix(1.25,0,0,-1.25,397.77812,518.67407)">
      <path
         d="m 0,0 c -1.13,0 -1.916,-1.009 -2.357,-3.026 -0.346,-1.633 -0.518,-4.274 -0.518,-7.925 0,-3.208 0.067,-5.359 0.202,-6.454 0.402,-2.997 1.293,-4.495 2.673,-4.495 1.342,0 2.213,1.498 2.618,4.495 0.172,1.268 0.257,3.419 0.257,6.454 0,3.651 -0.171,6.292 -0.517,7.925 C 1.916,-1.009 1.131,0 0,0 m 0,3.75 c 2.67,0 4.495,-1.355 5.473,-4.064 0.768,-2.115 1.152,-5.66 1.152,-10.637 0,-4.861 -0.345,-8.32 -1.037,-10.376 C 4.61,-24.209 2.747,-25.65 0,-25.65 c -2.804,0 -4.685,1.498 -5.646,4.496 -0.652,2.018 -0.979,5.419 -0.979,10.203 0,4.881 0.413,8.426 1.239,10.637 C -4.369,2.395 -2.574,3.75 0,3.75"
         style="fill:#ffffff;fill-opacity:1;fill-rule:nonzero;stroke:none"
         id="path6964"
         inkscape:connector-curvature="0" />
    </g>
  </g>
</svg>
