<?xml version="1.0" encoding="UTF-8" standalone="no"?>
<!-- Created with Inkscape (http://www.inkscape.org/) -->

<svg
   xmlns:dc="http://purl.org/dc/elements/1.1/"
   xmlns:cc="http://creativecommons.org/ns#"
   xmlns:rdf="http://www.w3.org/1999/02/22-rdf-syntax-ns#"
   xmlns:svg="http://www.w3.org/2000/svg"
   xmlns="http://www.w3.org/2000/svg"
   xmlns:sodipodi="http://sodipodi.sourceforge.net/DTD/sodipodi-0.dtd"
   xmlns:inkscape="http://www.inkscape.org/namespaces/inkscape"
   width="264.21875"
   height="77.695312"
   id="svg11455"
   version="1.1"
   inkscape:version="0.48.3.1 r9886"
   sodipodi:docname="New document 91">
  <defs
     id="defs11457">
    <clipPath
       clipPathUnits="userSpaceOnUse"
       id="clipPath11368">
      <path
         inkscape:connector-curvature="0"
         d="m 268.601,410.58 270.898,0 0,110.92 -270.898,0 0,-110.92 z"
         id="path11370" />
    </clipPath>
  </defs>
  <sodipodi:namedview
     id="base"
     pagecolor="#ffffff"
     bordercolor="#666666"
     borderopacity="1.0"
     inkscape:pageopacity="0.0"
     inkscape:pageshadow="2"
     inkscape:zoom="0.35"
     inkscape:cx="132.11719"
     inkscape:cy="38.83908"
     inkscape:document-units="px"
     inkscape:current-layer="layer1"
     showgrid="false"
     fit-margin-top="0"
     fit-margin-left="0"
     fit-margin-right="0"
     fit-margin-bottom="0"
     inkscape:window-width="451"
     inkscape:window-height="398"
     inkscape:window-x="50"
     inkscape:window-y="50"
     inkscape:window-maximized="0" />
  <metadata
     id="metadata11460">
    <rdf:RDF>
      <cc:Work
         rdf:about="">
        <dc:format>image/svg+xml</dc:format>
        <dc:type
           rdf:resource="http://purl.org/dc/dcmitype/StillImage" />
        <dc:title></dc:title>
      </cc:Work>
    </rdf:RDF>
  </metadata>
  <g
     inkscape:label="Layer 1"
     inkscape:groupmode="layer"
     id="layer1"
     transform="translate(-242.88281,-493.50595)">
    <g
       transform="matrix(1.25,0,0,-1.25,-130.30188,1110.2352)"
       id="g11364">
      <g
         id="g11366"
         clip-path="url(#clipPath11368)">
        <g
           id="g11372"
           transform="translate(304.954,493.1334)">
          <path
             inkscape:connector-curvature="0"
             d="m 0,0 198.573,0 c 3.383,0 6.151,-2.768 6.151,-6.15 l 0,-49.37 c 0,-3.382 -2.768,-6.15 -6.151,-6.15 L 0,-61.67 c -3.382,0 -6.149,2.768 -6.149,6.15 l 0,49.37 C -6.149,-2.768 -3.382,0 0,0"
             style="fill:#ffffff;fill-opacity:1;fill-rule:nonzero;stroke:none"
             id="path11374" />
        </g>
        <g
           id="g11376"
           transform="translate(304.954,493.1334)">
          <path
             inkscape:connector-curvature="0"
             d="m 0,0 198.573,0 c 3.383,0 6.151,-2.768 6.151,-6.15 l 0,-49.37 c 0,-3.382 -2.768,-6.15 -6.151,-6.15 L 0,-61.67 c -3.382,0 -6.149,2.768 -6.149,6.15 l 0,49.37 C -6.149,-2.768 -3.382,0 0,0 z"
             style="fill:none;stroke:#231f20;stroke-width:0.5;stroke-linecap:butt;stroke-linejoin:miter;stroke-miterlimit:4;stroke-opacity:1;stroke-dasharray:none"
             id="path11378" />
        </g>
        <g
           id="g11380"
           transform="translate(304.954,491.5983)">
          <path
             inkscape:connector-curvature="0"
             d="m 0,0 198.573,0 c 2.537,0 4.616,-2.076 4.616,-4.615 l 0,-49.369 c 0,-2.539 -2.079,-4.616 -4.616,-4.616 L 0,-58.6 c -2.538,0 -4.614,2.077 -4.614,4.616 l 0,49.369 C -4.614,-2.076 -2.538,0 0,0"
             style="fill:#155196;fill-opacity:1;fill-rule:evenodd;stroke:none"
             id="path11382" />
        </g>
        <g
           id="g11384"
           transform="translate(323.2255,466.5417)">
          <path
             inkscape:connector-curvature="0"
             d="m 0,0 0,16.532 -2.843,0 0,-10.905 -7.599,10.905 -2.901,0 0,-16.532 2.901,0 0,11.37 L -2.553,0 0,0 z m 16.649,0 0,2.959 -9.34,0 0,4.522 4.932,0 0,3.019 -4.932,0 0,3.073 9.049,0 0,2.959 -12.066,0 0,-16.532 12.357,0 z m 16.648,0 -5.395,8.702 4.873,7.83 -3.538,0 -3.133,-5.048 -3.132,5.048 -3.538,0 4.93,-7.83 L 18.969,0 22.45,0 26.104,5.858 29.817,0 l 3.48,0 z m 14.213,13.633 0,2.899 -12.414,0 0,-2.899 4.757,0 0,-13.633 2.9,0 0,13.633 4.757,0 z M 71.353,4.815 c 0,1.798 -0.929,3.365 -2.378,4.119 -0.929,0.462 -2.38,0.927 -4.584,1.392 -2.03,0.462 -2.61,0.87 -2.61,1.797 0,1.045 0.986,1.682 2.668,1.682 1.567,0 2.9,-0.521 3.944,-1.624 l 2.205,1.971 c -1.681,1.741 -3.713,2.554 -6.149,2.554 -3.364,0 -5.684,-1.857 -5.684,-4.583 0,-1.044 0.348,-2.031 1.044,-2.784 0.696,-0.811 1.566,-1.219 3.248,-1.624 L 63.869,7.481 64.624,7.31 65.378,7.076 c 0.752,-0.174 1.392,-0.405 1.971,-0.637 0.697,-0.347 1.044,-0.87 1.044,-1.508 0,-1.219 -1.508,-2.147 -3.596,-2.147 -1.855,0 -3.189,0.637 -4.409,2.089 L 58.01,3.016 c 1.857,-2.146 4.003,-3.199 6.846,-3.199 1.508,0 3.016,0.414 4.175,1.113 1.567,0.927 2.322,2.203 2.322,3.885 M 87.016,0 l 0,2.959 -9.34,0 0,4.522 4.931,0 0,3.019 -4.931,0 0,3.073 9.05,0 0,2.959 -12.067,0 0,-16.532 12.357,0 z m 16.648,0 -3.016,7.076 c 1.683,0.93 2.667,2.554 2.667,4.408 0,1.858 -0.984,3.482 -2.552,4.352 -0.868,0.521 -1.623,0.696 -2.841,0.696 l -7.599,0 0,-16.532 2.958,0 0,6.497 4.409,0 2.669,-6.497 3.305,0 z m -3.305,11.484 c 0,-1.215 -0.929,-2.029 -2.38,-2.029 l -4.698,0 0,4.118 4.698,0 c 1.451,0 2.38,-0.81 2.38,-2.089 m 20.534,5.048 -3.19,0 -4.526,-12.064 -4.523,12.064 -3.191,0 6.09,-16.532 3.192,0 6.148,16.532 z m 5.686,0 -2.959,0 0,-16.532 2.959,0 0,16.532 z m 17.112,-13.166 -2.61,1.391 C 139.63,3.19 138.819,2.668 137.31,2.668 c -2.495,0 -4.003,2.089 -4.003,5.686 0,2.551 0.987,5.51 4.003,5.51 0.871,0 1.973,-0.348 2.611,-0.87 0.464,-0.291 0.696,-0.522 1.16,-1.219 l 2.61,1.393 c -1.274,2.319 -3.712,3.654 -6.381,3.654 -4.352,0 -7.018,-3.306 -7.018,-8.527 0,-5.162 2.666,-8.595 7.018,-8.595 2.669,0 5.161,1.344 6.381,3.666 M 159.82,0 l 0,2.959 -9.341,0 0,4.522 4.93,0 0,3.019 -4.93,0 0,3.073 9.05,0 0,2.959 -12.068,0 0,-16.532 12.359,0 z m 15.66,4.815 c 0,1.798 -0.925,3.365 -2.377,4.119 -0.931,0.462 -2.377,0.927 -4.585,1.392 -2.028,0.462 -2.609,0.87 -2.609,1.797 0,1.045 0.987,1.682 2.669,1.682 1.566,0 2.901,-0.521 3.943,-1.624 l 2.208,1.971 c -1.684,1.741 -3.715,2.554 -6.151,2.554 -3.367,0 -5.684,-1.857 -5.684,-4.583 0,-1.044 0.348,-2.031 1.044,-2.784 0.696,-0.811 1.566,-1.219 3.248,-1.624 l 0.813,-0.234 0.753,-0.171 0.755,-0.234 c 0.752,-0.174 1.393,-0.405 1.972,-0.637 0.693,-0.347 1.042,-0.87 1.042,-1.508 0,-1.219 -1.507,-2.147 -3.595,-2.147 -1.855,0 -3.19,0.637 -4.408,2.089 l -2.38,-1.857 c 1.858,-2.146 4.003,-3.199 6.848,-3.199 1.507,0 3.014,0.414 4.177,1.113 1.566,0.927 2.317,2.203 2.317,3.885"
             style="fill:#ffffff;fill-opacity:1;fill-rule:evenodd;stroke:none"
             id="path11386" />
        </g>
        <g
           id="g11388"
           transform="translate(356.9521,441.7106)">
          <path
             inkscape:connector-curvature="0"
             d="m 0,0 c 0,1.972 0.406,3.422 1.334,5.046 1.45,2.435 3.538,3.944 6.554,4.756 1.856,0.522 2.493,1.101 2.493,2.088 0,1.217 -1.159,1.914 -3.247,1.914 -2.146,0 -3.712,-0.523 -5.104,-1.798 L 0,14.268 c 1.914,1.681 4.292,2.551 6.959,2.551 3.887,0 6.38,-1.914 6.38,-4.929 0,-1.392 -0.579,-2.668 -1.681,-3.596 C 11.136,7.888 10.381,7.481 9.222,7.134 7.018,6.496 6.38,6.206 5.394,5.336 4.64,4.698 4.176,4.06 3.596,2.958 l 9.743,0 L 13.339,0 0,0 z"
             style="fill:#ffffff;fill-opacity:1;fill-rule:nonzero;stroke:none"
             id="path11390" />
        </g>
        <g
           id="g11392"
           transform="translate(379.398,441.4206)">
          <path
             inkscape:connector-curvature="0"
             d="m 0,0 c -2.029,0 -4.06,0.696 -5.509,2.03 -0.407,0.348 -0.697,0.638 -1.276,1.334 l 2.378,1.798 c 1.159,-1.508 2.668,-2.146 4.581,-2.146 2.03,0 3.422,0.928 3.422,2.32 0,0.811 -0.522,1.74 -1.276,2.145 C 1.856,7.714 1.334,7.83 0.696,7.83 l -0.812,0 0,2.958 0.696,0 c 1.276,0 2.205,0.695 2.205,1.624 0,0.985 -1.161,1.739 -2.901,1.739 -1.391,0 -2.667,-0.58 -3.654,-1.624 l -2.203,2.031 c 1.623,1.681 3.654,2.551 6.031,2.551 C 3.364,17.109 5.8,15.138 5.8,12.47 5.8,11.368 5.453,10.614 4.466,9.338 6.09,7.888 6.554,7.017 6.554,5.452 6.554,2.378 3.712,0 0,0"
             style="fill:#ffffff;fill-opacity:1;fill-rule:nonzero;stroke:none"
             id="path11394" />
        </g>
        <g
           id="g11396"
           transform="translate(408.672,443.8668)">
          <path
             inkscape:connector-curvature="0"
             d="M 0,0 0,7.569 -3.654,0 l -3.611,7.569 0,-7.569 -2.176,0 0,12.399 2.176,0 3.611,-7.353 3.654,7.353 2.175,0 L 2.175,0 0,0 z"
             style="fill:#ffffff;fill-opacity:1;fill-rule:nonzero;stroke:none"
             id="path11398" />
        </g>
        <path
           inkscape:connector-curvature="0"
           d="m 414.065,456.265 2.219,0 0,-12.399 -2.219,0 0,12.399 z"
           style="fill:#ffffff;fill-opacity:1;fill-rule:nonzero;stroke:none"
           id="path11400" />
        <g
           id="g11402"
           transform="translate(419.46,443.8668)">
          <path
             inkscape:connector-curvature="0"
             d="m 0,0 0,12.399 2.219,0 0,-10.485 7.047,0 L 9.266,0 0,0 z"
             style="fill:#ffffff;fill-opacity:1;fill-rule:nonzero;stroke:none"
             id="path11404" />
        </g>
        <g
           id="g11406"
           transform="translate(430.858,443.8668)">
          <path
             inkscape:connector-curvature="0"
             d="m 0,0 0,12.399 9.049,0 0,-2.219 -6.786,0 0,-2.306 3.697,0 0,-2.262 -3.697,0 0,-3.393 7.004,0 L 9.267,0 0,0 z"
             style="fill:#ffffff;fill-opacity:1;fill-rule:nonzero;stroke:none"
             id="path11408" />
        </g>
        <g
           id="g11410"
           transform="translate(450.13,444.5631)">
          <path
             inkscape:connector-curvature="0"
             d="m 0,0 c -0.87,-0.522 -2.001,-0.827 -3.133,-0.827 -2.131,0 -3.741,0.783 -5.133,2.393 l 1.783,1.392 c 0.914,-1.088 1.914,-1.566 3.307,-1.566 1.566,0 2.697,0.696 2.697,1.609 0,0.479 -0.26,0.87 -0.783,1.132 -0.434,0.174 -0.914,0.347 -1.479,0.478 L -3.307,4.785 -3.872,4.916 -4.481,5.09 C -5.742,5.395 -6.396,5.698 -6.917,6.308 -7.44,6.873 -7.7,7.612 -7.7,8.396 c 0,2.044 1.74,3.436 4.263,3.436 1.827,0 3.35,-0.608 4.612,-1.914 L -0.479,8.44 c -0.783,0.826 -1.784,1.217 -2.958,1.217 -1.261,0 -2.002,-0.478 -2.002,-1.261 0,-0.696 0.436,-1 1.958,-1.349 C -1.827,6.699 -0.739,6.352 -0.044,6.003 1.044,5.438 1.74,4.263 1.74,2.914 1.74,1.653 1.175,0.695 0,0"
             style="fill:#ffffff;fill-opacity:1;fill-rule:nonzero;stroke:none"
             id="path11412" />
        </g>
      </g>
    </g>
  </g>
</svg>
