<?xml version="1.0" encoding="UTF-8" standalone="no"?>
<!-- Created with Inkscape (http://www.inkscape.org/) -->

<svg
   xmlns:dc="http://purl.org/dc/elements/1.1/"
   xmlns:cc="http://creativecommons.org/ns#"
   xmlns:rdf="http://www.w3.org/1999/02/22-rdf-syntax-ns#"
   xmlns:svg="http://www.w3.org/2000/svg"
   xmlns="http://www.w3.org/2000/svg"
   xmlns:sodipodi="http://sodipodi.sourceforge.net/DTD/sodipodi-0.dtd"
   xmlns:inkscape="http://www.inkscape.org/namespaces/inkscape"
   width="81.640625"
   height="81.640625"
   id="svg9309"
   version="1.1"
   inkscape:version="0.48.3.1 r9886"
   sodipodi:docname="New document 52">
  <defs
     id="defs9311" />
  <sodipodi:namedview
     id="base"
     pagecolor="#ffffff"
     bordercolor="#666666"
     borderopacity="1.0"
     inkscape:pageopacity="0.0"
     inkscape:pageshadow="2"
     inkscape:zoom="0.35"
     inkscape:cx="40.82187"
     inkscape:cy="40.828122"
     inkscape:document-units="px"
     inkscape:current-layer="layer1"
     showgrid="false"
     fit-margin-top="0"
     fit-margin-left="0"
     fit-margin-right="0"
     fit-margin-bottom="0"
     inkscape:window-width="451"
     inkscape:window-height="398"
     inkscape:window-x="100"
     inkscape:window-y="100"
     inkscape:window-maximized="0" />
  <metadata
     id="metadata9314">
    <rdf:RDF>
      <cc:Work
         rdf:about="">
        <dc:format>image/svg+xml</dc:format>
        <dc:type
           rdf:resource="http://purl.org/dc/dcmitype/StillImage" />
        <dc:title></dc:title>
      </cc:Work>
    </rdf:RDF>
  </metadata>
  <g
     inkscape:label="Layer 1"
     inkscape:groupmode="layer"
     id="layer1"
     transform="translate(-334.17813,-491.54968)">
    <g
       id="g6236"
       transform="matrix(1.25,0,0,-1.25,341.67813,491.86218)">
      <path
         d="m 0,0 53.316,0 c 3.157,0 5.741,-2.584 5.741,-5.741 l 0,-53.316 c 0,-3.159 -2.584,-5.743 -5.741,-5.743 L 0,-64.8 c -3.158,0 -5.742,2.584 -5.742,5.743 l 0,53.316 C -5.742,-2.584 -3.158,0 0,0"
         style="fill:#ffffff;fill-opacity:1;fill-rule:nonzero;stroke:none"
         id="path6238"
         inkscape:connector-curvature="0" />
    </g>
    <g
       id="g6240"
       transform="matrix(1.25,0,0,-1.25,341.67813,491.86218)">
      <path
         d="m 0,0 53.316,0 c 3.157,0 5.741,-2.584 5.741,-5.741 l 0,-53.316 c 0,-3.159 -2.584,-5.743 -5.741,-5.743 L 0,-64.8 c -3.158,0 -5.742,2.584 -5.742,5.743 l 0,53.316 C -5.742,-2.584 -3.158,0 0,0 z"
         style="fill:none;stroke:#231f20;stroke-width:0.5;stroke-linecap:butt;stroke-linejoin:miter;stroke-miterlimit:4;stroke-opacity:1;stroke-dasharray:none"
         id="path6242"
         inkscape:connector-curvature="0" />
    </g>
    <g
       id="g6244"
       transform="matrix(1.25,0,0,-1.25,341.67813,493.91217)">
      <path
         d="m 0,0 53.316,0 c 2.256,0 4.102,-1.846 4.102,-4.101 l 0,-53.316 c 0,-2.257 -1.846,-4.103 -4.102,-4.103 L 0,-61.52 c -2.256,0 -4.102,1.846 -4.102,4.103 l 0,53.316 C -4.102,-1.846 -2.256,0 0,0"
         style="fill:#155196;fill-opacity:1;fill-rule:evenodd;stroke:none"
         id="path6246"
         inkscape:connector-curvature="0" />
    </g>
    <g
       id="g6248"
       transform="matrix(1.25,0,0,-1.25,343.38188,523.01717)">
      <path
         d="m 0,0 6.137,10.633 13.027,-7.521 0,15.043 12.278,0 0,-15.043 13.025,7.521 L 50.608,0 37.58,-7.519 l 13.028,-7.523 -6.141,-10.631 -13.025,7.52 0,-15.042 -12.278,0 0,15.042 L 6.137,-25.673 0,-15.042 13.026,-7.519 0,0 z"
         style="fill:#ffffff;fill-opacity:1;fill-rule:evenodd;stroke:none"
         id="path6250"
         inkscape:connector-curvature="0" />
    </g>
    <g
       id="g6252"
       transform="matrix(1.25,0,0,-1.25,373.52562,513.10218)">
      <path
         d="M 0,0 C 0.557,-0.266 1.616,-0.447 2.149,-0.022 2.407,0.185 2.424,0.574 2.12,0.746 2.625,1.141 3.592,0.95 3.188,1.922 2.985,2.413 2.448,2.461 2.012,2.617 1.579,2.771 1.727,2.971 1.366,3.225 0.809,3.617 -0.164,2.836 -0.16,3.555 c 0.006,0.584 0.01,1.17 0.014,1.754 0.008,0.976 0.654,1.576 1.787,1.525 C 2.774,6.783 3.571,6.285 3.483,5.261 3.377,0.314 3.428,-4.673 3.323,-9.62 3.151,-11.156 1.957,-12.42 0.522,-13.601 L 0,0"
         style="fill:#155196;fill-opacity:1;fill-rule:evenodd;stroke:none"
         id="path6254"
         inkscape:connector-curvature="0" />
    </g>
    <g
       id="g6256"
       transform="matrix(1.25,0,0,-1.25,368.95812,511.22218)">
      <path
         d="M 0,0 C 0.152,1.118 1.014,1.557 2.063,1.468 2.567,1.424 3.057,1.353 3.563,1.408 3.711,1.424 4.449,1.605 4.568,1.487 4.977,1.512 4.922,1.029 5.231,0.885 5.606,0.709 6.108,0.693 6.42,0.416 6.826,0.058 6.397,-0.095 6.137,-0.174 5.719,-0.298 5.346,-0.576 5.1,-0.924 5.205,-0.928 5.588,-0.965 5.625,-1.111 5.692,-1.373 4.598,-1.408 4.422,-1.387 3.912,-1.325 3.504,-0.976 2.973,-1.192 2.533,-1.371 2.35,-1.899 2.363,-2.346 2.41,-3.901 3.297,-4.937 3.455,-6.25 3.551,-7.043 3.5,-8.407 3.553,-9.428 1.393,-7.785 -0.353,-5.942 0,0"
         style="fill:#155196;fill-opacity:1;fill-rule:evenodd;stroke:none"
         id="path6258"
         inkscape:connector-curvature="0" />
    </g>
    <g
       id="g6260"
       transform="matrix(1.25,0,0,-1.25,374.60813,552.09967)">
      <path
         d="M 0,0 C -0.678,1.745 0.507,3.628 2.228,5.187 4.238,7.007 4.859,9.591 2.179,11.018 2.855,9.27 1.672,7.387 -0.049,5.831 -2.059,4.009 -2.68,1.425 0,0"
         style="fill:#155196;fill-opacity:1;fill-rule:evenodd;stroke:none"
         id="path6262"
         inkscape:connector-curvature="0" />
    </g>
    <g
       id="g6264"
       transform="matrix(1.25,0,0,-1.25,374.71825,543.84218)">
      <path
         d="M 0,0 C -0.065,2.188 -0.54,4.275 0.511,6.34 0.904,7.102 1.378,7.68 2.087,8.23 1.996,5.545 2.128,2.789 1.142,1.337 0.761,0.893 0.38,0.445 0,0"
         style="fill:#155196;fill-opacity:1;fill-rule:evenodd;stroke:none"
         id="path6266"
         inkscape:connector-curvature="0" />
    </g>
    <g
       id="g6268"
       transform="matrix(1.25,0,0,-1.25,375.83062,556.45093)">
      <path
         d="M 0,0 C 0.235,0.337 0.678,1.176 0.709,1.861 0.719,1.98 0.729,2.101 0.74,2.22 1.137,1.878 1.194,1.404 1.02,0.839 0.699,0.138 -0.015,0.021 0,0"
         style="fill:#155196;fill-opacity:1;fill-rule:evenodd;stroke:none"
         id="path6270"
         inkscape:connector-curvature="0" />
    </g>
    <g
       id="g6272"
       transform="matrix(1.25,0,0,-1.25,376.71701,546.80468)">
      <path
         d="m 0,0 c -1.316,-1.538 -1.435,-2.151 -1.383,-2.634 0.071,-2.027 0.143,-4.058 0.213,-6.087 0.164,-0.186 0.328,-0.372 0.494,-0.558 0.164,0.196 0.328,0.393 0.494,0.593 -0.005,0.261 -0.011,0.525 -0.017,0.789 -0.231,-0.029 -0.455,-0.039 -0.643,0.064 -0.257,0.167 -0.152,0.485 0.118,0.872 0.267,0.329 0.529,0.681 0.574,1.761 0.051,1.734 0.099,3.467 0.15,5.2"
         style="fill:#155196;fill-opacity:1;fill-rule:evenodd;stroke:none"
         id="path6274"
         inkscape:connector-curvature="0" />
    </g>
    <g
       id="g6276"
       transform="matrix(1.25,0,0,-1.25,374.16563,509.98967)">
      <path
         d="m 0,0 c 0.057,-0.119 -0.029,-0.269 -0.17,-0.269 -0.351,0 0.037,0.211 -0.484,0.211 0.465,0.201 0.533,0.222 0.986,0 C 0.219,-0.051 0.108,-0.031 0,0"
         style="fill:#ffffff;fill-opacity:1;fill-rule:evenodd;stroke:none"
         id="path6278"
         inkscape:connector-curvature="0" />
    </g>
    <g
       id="g6280"
       transform="matrix(1.25,0,0,-1.25,374.30687,540.14343)">
      <path
         d="M 0,0 C -0.836,2.161 0.627,4.49 2.756,6.418 5.245,8.67 6.288,11.785 2.975,13.55 3.809,11.39 2.346,9.219 0.02,7.33 -2.584,5.216 -3.312,1.766 0,0"
         style="fill:#155196;fill-opacity:1;fill-rule:evenodd;stroke:none"
         id="path6282"
         inkscape:connector-curvature="0" />
    </g>
  </g>
</svg>
