<?xml version="1.0" encoding="UTF-8" standalone="no"?>
<!-- Created with Inkscape (http://www.inkscape.org/) -->

<svg
   xmlns:dc="http://purl.org/dc/elements/1.1/"
   xmlns:cc="http://creativecommons.org/ns#"
   xmlns:rdf="http://www.w3.org/1999/02/22-rdf-syntax-ns#"
   xmlns:svg="http://www.w3.org/2000/svg"
   xmlns="http://www.w3.org/2000/svg"
   xmlns:sodipodi="http://sodipodi.sourceforge.net/DTD/sodipodi-0.dtd"
   xmlns:inkscape="http://www.inkscape.org/namespaces/inkscape"
   width="81.640625"
   height="81.640625"
   id="svg10164"
   version="1.1"
   inkscape:version="0.48.3.1 r9886"
   sodipodi:docname="New document 66">
  <defs
     id="defs10166">
    <clipPath
       clipPathUnits="userSpaceOnUse"
       id="clipPath7226">
      <path
         inkscape:connector-curvature="0"
         d="m 63.125,45.278 513.625,0 0,691.943 -513.625,0 0,-691.943 z"
         id="path7228" />
    </clipPath>
    <clipPath
       clipPathUnits="userSpaceOnUse"
       id="clipPath7214">
      <path
         inkscape:connector-curvature="0"
         d="m 67.015,56.896 505.846,0 0,680.325 -505.846,0 0,-680.325 z"
         id="path7216" />
    </clipPath>
    <clipPath
       clipPathUnits="userSpaceOnUse"
       id="clipPath7202">
      <path
         inkscape:connector-curvature="0"
         d="m 63.125,45.278 513.625,0 0,691.943 -513.625,0 0,-691.943 z"
         id="path7204" />
    </clipPath>
  </defs>
  <sodipodi:namedview
     id="base"
     pagecolor="#ffffff"
     bordercolor="#666666"
     borderopacity="1.0"
     inkscape:pageopacity="0.0"
     inkscape:pageshadow="2"
     inkscape:zoom="0.35"
     inkscape:cx="40.832193"
     inkscape:cy="40.828747"
     inkscape:document-units="px"
     inkscape:current-layer="layer1"
     showgrid="false"
     fit-margin-top="0"
     fit-margin-left="0"
     fit-margin-right="0"
     fit-margin-bottom="0"
     inkscape:window-width="451"
     inkscape:window-height="398"
     inkscape:window-x="75"
     inkscape:window-y="75"
     inkscape:window-maximized="0" />
  <metadata
     id="metadata10169">
    <rdf:RDF>
      <cc:Work
         rdf:about="">
        <dc:format>image/svg+xml</dc:format>
        <dc:type
           rdf:resource="http://purl.org/dc/dcmitype/StillImage" />
        <dc:title></dc:title>
      </cc:Work>
    </rdf:RDF>
  </metadata>
  <g
     inkscape:label="Layer 1"
     inkscape:groupmode="layer"
     id="layer1"
     transform="translate(-334.16781,-491.5503)">
    <g
       transform="matrix(1.25,0,0,-1.25,250.28237,850.43718)"
       id="g7198">
      <g
         id="g7200"
         clip-path="url(#clipPath7202)">
        <g
           id="g7206"
           transform="translate(73.1396,286.8595)">
          <path
             inkscape:connector-curvature="0"
             d="m 0,0 53.269,0 c 3.172,0 5.766,-2.594 5.766,-5.764 l 0,-53.27 c 0,-3.171 -2.594,-5.765 -5.766,-5.765 l -53.269,0 c -3.17,0 -5.766,2.594 -5.766,5.765 l 0,53.27 C -5.766,-2.594 -3.17,0 0,0"
             style="fill:#ffffff;fill-opacity:1;fill-rule:nonzero;stroke:none"
             id="path7208" />
        </g>
      </g>
    </g>
    <g
       transform="matrix(1.25,0,0,-1.25,250.28237,850.43718)"
       id="g7210">
      <g
         id="g7212"
         clip-path="url(#clipPath7214)">
        <g
           id="g7218"
           transform="translate(73.1396,286.8595)">
          <path
             inkscape:connector-curvature="0"
             d="m 0,0 53.269,0 c 3.172,0 5.766,-2.594 5.766,-5.764 l 0,-53.27 c 0,-3.171 -2.594,-5.765 -5.766,-5.765 l -53.269,0 c -3.17,0 -5.766,2.594 -5.766,5.765 l 0,53.27 C -5.766,-2.594 -3.17,0 0,0 z"
             style="fill:none;stroke:#231f20;stroke-width:0.5;stroke-linecap:butt;stroke-linejoin:miter;stroke-miterlimit:4;stroke-opacity:1;stroke-dasharray:none"
             id="path7220" />
        </g>
      </g>
    </g>
    <g
       transform="matrix(1.25,0,0,-1.25,250.28237,850.43718)"
       id="g7222">
      <g
         id="g7224"
         clip-path="url(#clipPath7226)">
        <g
           id="g7230"
           transform="translate(73.1396,285.4195)">
          <path
             inkscape:connector-curvature="0"
             d="m 0,0 53.269,0 c 2.379,0 4.327,-1.945 4.327,-4.324 l 0,-53.27 c 0,-2.378 -1.948,-4.324 -4.327,-4.324 l -53.269,0 c -2.379,0 -4.324,1.946 -4.324,4.324 l 0,53.27 C -4.324,-1.945 -2.379,0 0,0"
             style="fill:#155196;fill-opacity:1;fill-rule:evenodd;stroke:none"
             id="path7232" />
        </g>
        <g
           id="g7234"
           transform="translate(105.0019,276.8245)">
          <path
             inkscape:connector-curvature="0"
             d="m 0,0 c -1.066,0.927 -2.494,1.392 -4.283,1.392 l -7.768,0 0,-19.484 3.266,0 0,7.959 4.254,-0.002 c 1.967,0 3.478,0.439 4.539,1.318 1.058,0.879 1.588,2.381 1.588,4.506 C 1.596,-2.366 1.065,-0.928 0,0"
             style="fill:#ffffff;fill-opacity:1;fill-rule:nonzero;stroke:none"
             id="path7236" />
        </g>
        <g
           id="g7238"
           transform="translate(102.0996,274.1976)">
          <path
             inkscape:connector-curvature="0"
             d="m 0,0 c -0.52,0.322 -1.248,0.482 -2.184,0.482 l -3.699,0 0,-4.271 3.699,0 c 0.936,0 1.664,0.173 2.184,0.521 0.52,0.348 0.779,0.898 0.779,1.652 C 0.779,-0.86 0.52,-0.323 0,0"
             style="fill:#155196;fill-opacity:1;fill-rule:nonzero;stroke:none"
             id="path7240" />
        </g>
        <g
           id="g7242"
           transform="translate(92.0869,235.2735)">
          <path
             inkscape:connector-curvature="0"
             d="m 0,0 0.022,0 3.59,0 -1.501,1.646 -10.299,0 -0.003,9.307 -4.884,0 c -1.277,0 -2.075,0 -2.605,-1.789 l -0.881,-3.496 -2.037,0 c -1.001,0 -1.001,0 -1.001,-0.979 l 0,-4.689 -1.069,0 0,-1.086 3.833,0 c 0.194,-1.475 1.125,-2.485 2.592,-2.485 1.456,0 2.444,1.032 2.771,2.485 l 1.538,0 0,1.086 4.158,0 c -0.024,-0.141 -0.035,-0.446 -0.035,-0.596 0,-1.639 1.319,-2.975 2.934,-2.975 1.616,0 2.934,1.336 2.934,2.975 C 0.057,-0.41 0.034,-0.176 0,0"
             style="fill:#ffffff;fill-opacity:1;fill-rule:evenodd;stroke:none"
             id="path7244" />
        </g>
        <g
           id="g7246"
           transform="translate(120.1103,231.3865)">
          <path
             inkscape:connector-curvature="0"
             d="m 0,0 c 1.73,0 3.141,1.432 3.141,3.186 0,0.222 -0.023,0.439 -0.066,0.65 l 4.945,0 0,14.209 -43.069,0 0,-11.498 10.271,0 2.433,-2.711 19.27,0 C -3.119,3.625 -3.142,3.408 -3.142,3.186 -3.142,1.432 -1.731,0 0,0"
             style="fill:#ffffff;fill-opacity:1;fill-rule:evenodd;stroke:none"
             id="path7248" />
        </g>
      </g>
    </g>
  </g>
</svg>
