<?xml version="1.0" encoding="UTF-8" standalone="no"?>
<!-- Created with Inkscape (http://www.inkscape.org/) -->

<svg
   xmlns:dc="http://purl.org/dc/elements/1.1/"
   xmlns:cc="http://creativecommons.org/ns#"
   xmlns:rdf="http://www.w3.org/1999/02/22-rdf-syntax-ns#"
   xmlns:svg="http://www.w3.org/2000/svg"
   xmlns="http://www.w3.org/2000/svg"
   xmlns:sodipodi="http://sodipodi.sourceforge.net/DTD/sodipodi-0.dtd"
   xmlns:inkscape="http://www.inkscape.org/namespaces/inkscape"
   width="81.640625"
   height="81.640625"
   id="svg7795"
   version="1.1"
   inkscape:version="0.48.3.1 r9886"
   sodipodi:docname="New document 20">
  <defs
     id="defs7797">
    <clipPath
       clipPathUnits="userSpaceOnUse"
       id="clipPath6862">
      <path
         inkscape:connector-curvature="0"
         d="m 63.125,45.278 513.625,0 0,691.943 -513.625,0 0,-691.943 z"
         id="path6864" />
    </clipPath>
  </defs>
  <sodipodi:namedview
     id="base"
     pagecolor="#ffffff"
     bordercolor="#666666"
     borderopacity="1.0"
     inkscape:pageopacity="0.0"
     inkscape:pageshadow="2"
     inkscape:zoom="0.35"
     inkscape:cx="40.82313"
     inkscape:cy="40.828142"
     inkscape:document-units="px"
     inkscape:current-layer="layer1"
     showgrid="false"
     fit-margin-top="0"
     fit-margin-left="0"
     fit-margin-right="0"
     fit-margin-bottom="0"
     inkscape:window-width="451"
     inkscape:window-height="398"
     inkscape:window-x="175"
     inkscape:window-y="175"
     inkscape:window-maximized="0" />
  <metadata
     id="metadata7800">
    <rdf:RDF>
      <cc:Work
         rdf:about="">
        <dc:format>image/svg+xml</dc:format>
        <dc:type
           rdf:resource="http://purl.org/dc/dcmitype/StillImage" />
        <dc:title></dc:title>
      </cc:Work>
    </rdf:RDF>
  </metadata>
  <g
     inkscape:label="Layer 1"
     inkscape:groupmode="layer"
     id="layer1"
     transform="translate(-334.17687,-491.5497)">
    <g
       transform="matrix(1.25,0,0,-1.25,140.80112,1365.4972)"
       id="g6858">
      <g
         id="g6860"
         clip-path="url(#clipPath6862)">
        <g
           id="g6866"
           transform="translate(159.2631,698.908)">
          <path
             inkscape:connector-curvature="0"
             d="m 0,0 56.193,0 c 2.366,0 4.303,-1.936 4.303,-4.303 l 0,-56.194 c 0,-2.366 -1.937,-4.303 -4.303,-4.303 L 0,-64.8 c -2.367,0 -4.304,1.937 -4.304,4.303 l 0,56.194 C -4.304,-1.936 -2.367,0 0,0"
             style="fill:#ffffff;fill-opacity:1;fill-rule:nonzero;stroke:none"
             id="path6868" />
        </g>
        <g
           id="g6870"
           transform="translate(159.2631,698.908)">
          <path
             inkscape:connector-curvature="0"
             d="m 0,0 56.193,0 c 2.366,0 4.303,-1.936 4.303,-4.303 l 0,-56.194 c 0,-2.366 -1.937,-4.303 -4.303,-4.303 L 0,-64.8 c -2.367,0 -4.304,1.937 -4.304,4.303 l 0,56.194 C -4.304,-1.936 -2.367,0 0,0 z"
             style="fill:none;stroke:#231f20;stroke-width:0.5;stroke-linecap:butt;stroke-linejoin:miter;stroke-miterlimit:4;stroke-opacity:1;stroke-dasharray:none"
             id="path6872" />
        </g>
        <g
           id="g6874"
           transform="translate(159.2631,697.2879)">
          <path
             inkscape:connector-curvature="0"
             d="m 0,0 56.193,0 c 1.477,0 2.684,-1.207 2.684,-2.683 l 0,-56.194 c 0,-1.475 -1.207,-2.682 -2.684,-2.682 l -56.193,0 c -1.477,0 -2.684,1.207 -2.684,2.682 l 0,56.194 C -2.684,-1.207 -1.477,0 0,0"
             style="fill:#155196;fill-opacity:1;fill-rule:evenodd;stroke:none"
             id="path6876" />
        </g>
        <g
           id="g6878"
           transform="translate(209.0336,639.5424)">
          <path
             inkscape:connector-curvature="0"
             d="m 0,0 0,53.968 -10.603,0 0,-19.505 -22.345,0 0,19.505 -10.605,0 0,-53.968 10.605,0 0,23.669 22.345,0 L -10.603,0 0,0 z"
             style="fill:#ffffff;fill-opacity:1;fill-rule:evenodd;stroke:none"
             id="path6880" />
        </g>
      </g>
    </g>
  </g>
</svg>
