<?xml version="1.0" encoding="UTF-8" standalone="no"?>
<!-- Created with Inkscape (http://www.inkscape.org/) -->

<svg
   xmlns:dc="http://purl.org/dc/elements/1.1/"
   xmlns:cc="http://creativecommons.org/ns#"
   xmlns:rdf="http://www.w3.org/1999/02/22-rdf-syntax-ns#"
   xmlns:svg="http://www.w3.org/2000/svg"
   xmlns="http://www.w3.org/2000/svg"
   xmlns:sodipodi="http://sodipodi.sourceforge.net/DTD/sodipodi-0.dtd"
   xmlns:inkscape="http://www.inkscape.org/namespaces/inkscape"
   width="81.640625"
   height="81.640625"
   id="svg10509"
   version="1.1"
   inkscape:version="0.48.3.1 r9886"
   sodipodi:docname="New document 74">
  <defs
     id="defs10511">
    <clipPath
       clipPathUnits="userSpaceOnUse"
       id="clipPath7038">
      <path
         inkscape:connector-curvature="0"
         d="m 63.125,45.278 513.625,0 0,691.943 -513.625,0 0,-691.943 z"
         id="path7040" />
    </clipPath>
  </defs>
  <sodipodi:namedview
     id="base"
     pagecolor="#ffffff"
     bordercolor="#666666"
     borderopacity="1.0"
     inkscape:pageopacity="0.0"
     inkscape:pageshadow="2"
     inkscape:zoom="0.35"
     inkscape:cx="40.828125"
     inkscape:cy="40.820935"
     inkscape:document-units="px"
     inkscape:current-layer="layer1"
     showgrid="false"
     fit-margin-top="0"
     fit-margin-left="0"
     fit-margin-right="0"
     fit-margin-bottom="0"
     inkscape:window-width="451"
     inkscape:window-height="398"
     inkscape:window-x="175"
     inkscape:window-y="175"
     inkscape:window-maximized="0" />
  <metadata
     id="metadata10514">
    <rdf:RDF>
      <cc:Work
         rdf:about="">
        <dc:format>image/svg+xml</dc:format>
        <dc:type
           rdf:resource="http://purl.org/dc/dcmitype/StillImage" />
        <dc:title></dc:title>
      </cc:Work>
    </rdf:RDF>
  </metadata>
  <g
     inkscape:label="Layer 1"
     inkscape:groupmode="layer"
     id="layer1"
     transform="translate(-334.17187,-491.54249)">
    <g
       transform="matrix(1.25,0,0,-1.25,-41.067,850.43843)"
       id="g7034">
      <g
         id="g7036"
         clip-path="url(#clipPath7038)">
        <g
           id="g7042"
           transform="translate(365.2536,227.4605)">
          <path
             inkscape:connector-curvature="0"
             d="m 0,0 c 0,-2.982 -2.418,-5.4 -5.4,-5.4 l -54,0 c -2.983,0 -5.4,2.418 -5.4,5.4 l 0,54 c 0,2.983 2.417,5.401 5.4,5.401 l 54,0 C -2.418,59.401 0,56.983 0,54 L 0,0 z"
             style="fill:#ffffff;fill-opacity:1;fill-rule:nonzero;stroke:none"
             id="path7044" />
        </g>
        <g
           id="g7046"
           transform="translate(365.2536,227.4605)">
          <path
             inkscape:connector-curvature="0"
             d="m 0,0 c 0,-2.982 -2.418,-5.4 -5.4,-5.4 l -54,0 c -2.983,0 -5.4,2.418 -5.4,5.4 l 0,54 c 0,2.983 2.417,5.401 5.4,5.401 l 54,0 C -2.418,59.401 0,56.983 0,54 L 0,0 z"
             style="fill:none;stroke:#231f20;stroke-width:0.5;stroke-linecap:butt;stroke-linejoin:miter;stroke-miterlimit:4;stroke-opacity:1;stroke-dasharray:none"
             id="path7048" />
        </g>
        <g
           id="g7050"
           transform="translate(302.2536,227.4605)">
          <path
             inkscape:connector-curvature="0"
             d="m 0,0 0,54 c 0,1.985 1.615,3.6 3.6,3.6 l 54,0 c 1.985,0 3.6,-1.615 3.6,-3.6 l 0,-54 c 0,-1.984 -1.615,-3.599 -3.6,-3.599 l -54,0 C 1.615,-3.599 0,-1.984 0,0"
             style="fill:#155196;fill-opacity:1;fill-rule:nonzero;stroke:none"
             id="path7052" />
        </g>
        <g
           id="g7054"
           transform="translate(357.1146,254.5875)">
          <path
             inkscape:connector-curvature="0"
             d="m 0,0 0,4.422 c 0,0.506 -0.443,1.264 -1.264,1.264 l -4.423,0 c -0.82,0 -1.264,-0.758 -1.264,-1.264 l 0,-4.422 c 0,-0.695 0.633,-1.263 1.264,-1.263 l 4.486,0 C -0.569,-1.263 0,-0.695 0,0"
             style="fill:#ffffff;fill-opacity:1;fill-rule:nonzero;stroke:none"
             id="path7056" />
        </g>
        <g
           id="g7058"
           transform="translate(356.0396,262.8005)">
          <path
             inkscape:connector-curvature="0"
             d="m 0,0 c 4.675,2.338 3.98,8.465 -0.315,14.594 -7.96,2.844 -15.162,4.043 -22.871,4.043 -7.771,0 -14.973,-1.199 -22.869,-4.043 C -50.352,8.465 -51.046,2.338 -46.372,0 l 11.751,4.295 c 1.706,0.633 1.327,1.328 1.265,2.275 l -0.065,3.034 c -0.125,2.779 6.256,2.4 10.235,2.4 3.98,0 10.361,0.379 10.235,-2.4 L -13.077,6.57 c 0,-0.947 -0.38,-1.642 1.326,-2.275 L 0,0 z"
             style="fill:#ffffff;fill-opacity:1;fill-rule:nonzero;stroke:none"
             id="path7060" />
        </g>
        <g
           id="g7062"
           transform="translate(346.6906,254.5875)">
          <path
             inkscape:connector-curvature="0"
             d="m 0,0 0,4.422 c 0,0.506 -0.443,1.264 -1.265,1.264 l -4.422,0 c -0.82,0 -1.263,-0.758 -1.263,-1.264 L -6.95,0 c 0,-0.695 0.695,-1.263 1.263,-1.263 l 4.487,0 C -0.57,-1.263 0,-0.695 0,0"
             style="fill:#ffffff;fill-opacity:1;fill-rule:nonzero;stroke:none"
             id="path7064" />
        </g>
        <g
           id="g7066"
           transform="translate(351.9336,245.4275)">
          <path
             inkscape:connector-curvature="0"
             d="m 0,0 0,4.422 c 0,0.506 -0.506,1.264 -1.264,1.264 l -4.422,0 c -0.884,0 -1.263,-0.758 -1.263,-1.264 l 0,-4.422 c 0,-0.76 0.632,-1.264 1.263,-1.264 l 4.486,0 C -0.568,-1.264 0,-0.76 0,0"
             style="fill:#ffffff;fill-opacity:1;fill-rule:nonzero;stroke:none"
             id="path7068" />
        </g>
        <g
           id="g7070"
           transform="translate(357.1146,236.2025)">
          <path
             inkscape:connector-curvature="0"
             d="m 0,0 0,4.487 c 0,0.441 -0.443,1.261 -1.264,1.261 l -4.423,0 c -0.82,0 -1.264,-0.82 -1.264,-1.261 l 0,-4.487 c 0,-0.693 0.633,-1.263 1.264,-1.263 l 4.486,0 C -0.569,-1.263 0,-0.693 0,0"
             style="fill:#ffffff;fill-opacity:1;fill-rule:nonzero;stroke:none"
             id="path7072" />
        </g>
        <g
           id="g7074"
           transform="translate(336.3296,254.5875)">
          <path
             inkscape:connector-curvature="0"
             d="m 0,0 0,4.422 c 0,0.506 -0.505,1.264 -1.263,1.264 l -4.423,0 C -6.507,5.686 -6.95,4.928 -6.95,4.422 L -6.95,0 c 0,-0.695 0.632,-1.263 1.264,-1.263 l 4.485,0 C -0.569,-1.263 0,-0.695 0,0"
             style="fill:#ffffff;fill-opacity:1;fill-rule:nonzero;stroke:none"
             id="path7076" />
        </g>
        <g
           id="g7078"
           transform="translate(341.5736,245.4275)">
          <path
             inkscape:connector-curvature="0"
             d="m 0,0 0,4.422 c 0,0.506 -0.505,1.264 -1.264,1.264 l -4.485,0 c -0.758,0 -1.264,-0.758 -1.264,-1.264 l 0,-4.422 c 0,-0.76 0.695,-1.264 1.264,-1.264 l 4.548,0 C -0.632,-1.264 0,-0.76 0,0"
             style="fill:#ffffff;fill-opacity:1;fill-rule:nonzero;stroke:none"
             id="path7080" />
        </g>
        <g
           id="g7082"
           transform="translate(346.6906,236.2025)">
          <path
             inkscape:connector-curvature="0"
             d="m 0,0 0,4.487 c 0,0.441 -0.443,1.261 -1.265,1.261 l -4.422,0 c -0.82,0 -1.263,-0.82 -1.263,-1.261 L -6.95,0 c 0,-0.693 0.695,-1.263 1.263,-1.263 l 4.487,0 c 0.63,0 1.2,0.57 1.2,1.263"
             style="fill:#ffffff;fill-opacity:1;fill-rule:nonzero;stroke:none"
             id="path7084" />
        </g>
        <g
           id="g7086"
           transform="translate(325.9046,254.5875)">
          <path
             inkscape:connector-curvature="0"
             d="m 0,0 0,4.422 c 0,0.506 -0.443,1.264 -1.262,1.264 l -4.424,0 c -0.822,0 -1.263,-0.758 -1.263,-1.264 l 0,-4.422 c 0,-0.695 0.63,-1.263 1.263,-1.263 l 4.486,0 C -0.569,-1.263 0,-0.695 0,0"
             style="fill:#ffffff;fill-opacity:1;fill-rule:nonzero;stroke:none"
             id="path7088" />
        </g>
        <g
           id="g7090"
           transform="translate(331.0836,245.4275)">
          <path
             inkscape:connector-curvature="0"
             d="m 0,0 0,4.422 c 0,0.506 -0.377,1.264 -1.261,1.264 l -4.424,0 c -0.756,0 -1.262,-0.758 -1.262,-1.264 l 0,-4.422 c 0,-0.76 0.695,-1.264 1.262,-1.264 l 4.486,0 C -0.504,-1.264 0,-0.76 0,0"
             style="fill:#ffffff;fill-opacity:1;fill-rule:nonzero;stroke:none"
             id="path7092" />
        </g>
        <g
           id="g7094"
           transform="translate(336.3296,236.2025)">
          <path
             inkscape:connector-curvature="0"
             d="m 0,0 0,4.487 c 0,0.441 -0.505,1.261 -1.263,1.261 l -4.423,0 c -0.821,0 -1.264,-0.82 -1.264,-1.261 L -6.95,0 c 0,-0.693 0.632,-1.263 1.264,-1.263 l 4.485,0 C -0.569,-1.263 0,-0.693 0,0"
             style="fill:#ffffff;fill-opacity:1;fill-rule:nonzero;stroke:none"
             id="path7096" />
        </g>
        <g
           id="g7098"
           transform="translate(315.4166,254.5875)">
          <path
             inkscape:connector-curvature="0"
             d="m 0,0 0,4.422 c 0,0.506 -0.379,1.264 -1.2,1.264 l -4.422,0 c -0.822,0 -1.263,-0.758 -1.263,-1.264 l 0,-4.422 c 0,-0.695 0.63,-1.263 1.263,-1.263 l 4.422,0 C -0.505,-1.263 0,-0.695 0,0"
             style="fill:#ffffff;fill-opacity:1;fill-rule:nonzero;stroke:none"
             id="path7100" />
        </g>
        <g
           id="g7102"
           transform="translate(320.6606,245.4275)">
          <path
             inkscape:connector-curvature="0"
             d="m 0,0 0,4.422 c 0,0.506 -0.316,1.264 -1.137,1.264 l -4.486,0 c -0.821,0 -1.264,-0.758 -1.264,-1.264 l 0,-4.422 c 0,-0.76 0.569,-1.264 1.264,-1.264 l 4.359,0 C -0.569,-1.264 0,-0.76 0,0"
             style="fill:#ffffff;fill-opacity:1;fill-rule:nonzero;stroke:none"
             id="path7104" />
        </g>
        <g
           id="g7106"
           transform="translate(351.8706,228.6855)">
          <path
             inkscape:connector-curvature="0"
             d="m 0,0 0,2.4 c 0,0.442 -0.443,1.199 -1.201,1.199 l -35.632,0 c -0.821,0 -1.2,-0.757 -1.2,-1.199 l 0,-2.4 c 0,-0.695 0.569,-1.201 1.2,-1.201 l 35.696,0 C -0.505,-1.201 0,-0.695 0,0"
             style="fill:#ffffff;fill-opacity:1;fill-rule:nonzero;stroke:none"
             id="path7108" />
        </g>
        <g
           id="g7110"
           transform="translate(325.9046,236.2025)">
          <path
             inkscape:connector-curvature="0"
             d="m 0,0 0,4.487 c 0,0.441 -0.443,1.261 -1.262,1.261 l -4.424,0 c -0.822,0 -1.263,-0.82 -1.263,-1.261 l 0,-4.487 c 0,-0.693 0.63,-1.263 1.263,-1.263 l 4.486,0 c 0.631,0 1.2,0.57 1.2,1.263"
             style="fill:#ffffff;fill-opacity:1;fill-rule:nonzero;stroke:none"
             id="path7112" />
        </g>
        <g
           id="g7114"
           transform="translate(315.4166,236.2025)">
          <path
             inkscape:connector-curvature="0"
             d="m 0,0 0,4.487 c 0,0.441 -0.253,1.261 -1.137,1.261 l -4.485,0 c -0.822,0 -1.263,-0.82 -1.263,-1.261 l 0,-4.487 c 0,-0.693 0.63,-1.263 1.263,-1.263 l 4.422,0 c 0.695,0 1.2,0.57 1.2,1.263"
             style="fill:#ffffff;fill-opacity:1;fill-rule:nonzero;stroke:none"
             id="path7116" />
        </g>
      </g>
    </g>
  </g>
</svg>
