<?xml version="1.0" encoding="UTF-8" standalone="no"?>
<!-- Created with Inkscape (http://www.inkscape.org/) -->

<svg
   xmlns:dc="http://purl.org/dc/elements/1.1/"
   xmlns:cc="http://creativecommons.org/ns#"
   xmlns:rdf="http://www.w3.org/1999/02/22-rdf-syntax-ns#"
   xmlns:svg="http://www.w3.org/2000/svg"
   xmlns="http://www.w3.org/2000/svg"
   xmlns:sodipodi="http://sodipodi.sourceforge.net/DTD/sodipodi-0.dtd"
   xmlns:inkscape="http://www.inkscape.org/namespaces/inkscape"
   width="61.367188"
   height="31.015625"
   id="svg8243"
   version="1.1"
   inkscape:version="0.48.3.1 r9886"
   sodipodi:docname="New document 30">
  <defs
     id="defs8245" />
  <sodipodi:namedview
     id="base"
     pagecolor="#ffffff"
     bordercolor="#666666"
     borderopacity="1.0"
     inkscape:pageopacity="0.0"
     inkscape:pageshadow="2"
     inkscape:zoom="0.35"
     inkscape:cx="-248.59821"
     inkscape:cy="172.65785"
     inkscape:document-units="px"
     inkscape:current-layer="layer1"
     showgrid="false"
     fit-margin-top="0"
     fit-margin-left="0"
     fit-margin-right="0"
     fit-margin-bottom="0"
     inkscape:window-width="451"
     inkscape:window-height="398"
     inkscape:window-x="25"
     inkscape:window-y="25"
     inkscape:window-maximized="0" />
  <metadata
     id="metadata8248">
    <rdf:RDF>
      <cc:Work
         rdf:about="">
        <dc:format>image/svg+xml</dc:format>
        <dc:type
           rdf:resource="http://purl.org/dc/dcmitype/StillImage" />
        <dc:title></dc:title>
      </cc:Work>
    </rdf:RDF>
  </metadata>
  <g
     inkscape:label="Layer 1"
     inkscape:groupmode="layer"
     id="layer1"
     transform="translate(-623.59821,-674.00441)">
    <g
       id="g6966"
       transform="matrix(1.25,0,0,-1.25,623.91071,699.62941)">
      <path
         d="m 0,0 0,16.2 c 0,2.231 1.819,4.05 4.05,4.05 l 40.5,0 c 2.231,0 4.05,-1.819 4.05,-4.05 L 48.6,0 c 0,-2.232 -1.819,-4.051 -4.05,-4.051 l -40.5,0 C 1.848,-4.051 0,-2.203 0,0"
         style="fill:#ffffff;fill-opacity:1;fill-rule:nonzero;stroke:#231f20;stroke-width:0.5;stroke-linecap:butt;stroke-linejoin:miter;stroke-miterlimit:4;stroke-opacity:1;stroke-dasharray:none"
         id="path6968"
         inkscape:connector-curvature="0" />
    </g>
    <g
       id="g6970"
       transform="matrix(1.25,0,0,-1.25,625.17646,699.61316)">
      <path
         d="m 0,0 0,16.174 c 0.007,1.673 1.38,3.04 3.05,3.05 l 40.474,0 c 1.671,-0.01 3.042,-1.377 3.051,-3.05 L 46.575,0 c -0.009,-1.669 -1.38,-3.046 -3.051,-3.051 l -40.474,0 C 1.38,-3.045 0.007,-1.669 0,0"
         style="fill:#155196;fill-opacity:1;fill-rule:evenodd;stroke:none"
         id="path6972"
         inkscape:connector-curvature="0" />
    </g>
    <g
       id="g6974"
       transform="matrix(1.25,0,0,-1.25,648.17096,689.51816)">
      <path
         d="m 0,0 -0.747,0 -1.918,6.071 1.002,0 1.3,-4.048 1.278,4.048 1.024,0 L 0,0 z"
         style="fill:#ffffff;fill-opacity:1;fill-rule:nonzero;stroke:none"
         id="path6976"
         inkscape:connector-curvature="0" />
    </g>
    <g
       id="g6978"
       transform="matrix(1.25,0,0,-1.25,654.27071,684.03316)">
      <path
         d="m 0,0 -0.618,-1.704 1.215,0 L 0,0 z m 1.535,-4.388 -0.597,1.704 -1.896,0 -0.597,-1.704 -1.024,0 2.089,6.071 0.959,0 2.089,-6.071 -1.023,0 z"
         style="fill:#ffffff;fill-opacity:1;fill-rule:nonzero;stroke:none"
         id="path6980"
         inkscape:connector-curvature="0" />
    </g>
    <g
       id="g6982"
       transform="matrix(1.25,0,0,-1.25,662.71683,689.51816)">
      <path
         d="m 0,0 -2.323,4.111 0,-4.111 -0.959,0 0,6.071 0.959,0 2.217,-3.877 0,3.877 0.959,0 L 0.853,0 0,0 z"
         style="fill:#ffffff;fill-opacity:1;fill-rule:nonzero;stroke:none"
         id="path6984"
         inkscape:connector-curvature="0" />
    </g>
    <g
       id="g6986"
       transform="matrix(1.25,0,0,-1.25,636.89771,693.42941)">
      <path
         d="m 0,0 -0.412,-1.136 0.81,0 L 0,0 z m 1.023,-2.926 -0.398,1.137 -1.264,0 -0.398,-1.137 -0.682,0 1.392,4.048 0.639,0 1.393,-4.048 -0.682,0 z"
         style="fill:#ffffff;fill-opacity:1;fill-rule:nonzero;stroke:none"
         id="path6988"
         inkscape:connector-curvature="0" />
    </g>
    <g
       id="g6990"
       transform="matrix(1.25,0,0,-1.25,641.60409,697.17554)">
      <path
         d="m 0,0 c -0.597,0 -0.98,0.227 -1.236,0.725 -0.184,0.355 -0.299,0.866 -0.299,1.377 0,0.64 0.171,1.279 0.456,1.633 0.242,0.299 0.583,0.455 1.037,0.455 0.611,0 0.995,-0.256 1.264,-0.824 L 0.625,3.111 c -0.227,0.341 -0.354,0.426 -0.667,0.426 -0.327,0 -0.54,-0.143 -0.682,-0.496 -0.099,-0.243 -0.157,-0.598 -0.157,-0.939 0,-0.44 0.099,-0.881 0.256,-1.136 0.141,-0.212 0.327,-0.312 0.611,-0.312 0.269,0 0.469,0.143 0.625,0.469 L 1.222,0.895 C 0.981,0.299 0.583,0 0,0"
         style="fill:#ffffff;fill-opacity:1;fill-rule:nonzero;stroke:none"
         id="path6992"
         inkscape:connector-curvature="0" />
    </g>
    <g
       id="g6994"
       transform="matrix(1.25,0,0,-1.25,646.04633,697.17554)">
      <path
         d="m 0,0 c -0.598,0 -0.981,0.227 -1.237,0.725 -0.184,0.355 -0.299,0.866 -0.299,1.377 0,0.64 0.17,1.279 0.454,1.633 0.243,0.299 0.583,0.455 1.038,0.455 0.611,0 0.996,-0.256 1.264,-0.824 L 0.624,3.111 C 0.397,3.452 0.268,3.537 -0.044,3.537 -0.37,3.537 -0.583,3.394 -0.726,3.041 -0.825,2.798 -0.882,2.443 -0.882,2.102 c 0,-0.44 0.099,-0.881 0.256,-1.136 0.142,-0.212 0.327,-0.312 0.611,-0.312 0.27,0 0.468,0.143 0.625,0.469 L 1.22,0.895 C 0.979,0.299 0.582,0 0,0"
         style="fill:#ffffff;fill-opacity:1;fill-rule:nonzero;stroke:none"
         id="path6996"
         inkscape:connector-curvature="0" />
    </g>
    <g
       id="g6998"
       transform="matrix(1.25,0,0,-1.25,648.67384,697.08692)">
      <path
         d="m 0,0 0,4.048 2.388,0 0,-0.639 -1.748,0 0,-0.994 1.179,0 0,-0.653 -1.179,0 0,-1.108 1.876,0 L 2.516,0 0,0 z"
         style="fill:#ffffff;fill-opacity:1;fill-rule:nonzero;stroke:none"
         id="path7000"
         inkscape:connector-curvature="0" />
    </g>
    <g
       id="g7002"
       transform="matrix(1.25,0,0,-1.25,655.26446,696.78442)">
      <path
         d="m 0,0 c -0.228,-0.199 -0.541,-0.313 -0.882,-0.313 -0.696,0 -1.207,0.412 -1.478,1.023 l 0.612,0.227 c 0.17,-0.383 0.482,-0.596 0.866,-0.596 0.369,0 0.626,0.256 0.626,0.596 0,0.541 -0.626,0.626 -1.152,0.839 -0.241,0.098 -0.78,0.339 -0.78,1.007 0,0.796 0.539,1.094 1.264,1.094 0.568,0 0.952,-0.327 1.151,-0.824 l -0.569,-0.17 c 0,0 -0.142,0.341 -0.596,0.355 C -1.236,3.252 -1.592,3.139 -1.563,2.77 -1.507,2.016 0.397,2.514 0.397,0.924 0.397,0.554 0.256,0.228 0,0"
         style="fill:#ffffff;fill-opacity:1;fill-rule:nonzero;stroke:none"
         id="path7004"
         inkscape:connector-curvature="0" />
    </g>
    <g
       id="g7006"
       transform="matrix(1.25,0,0,-1.25,659.20671,696.78442)">
      <path
         d="m 0,0 c -0.227,-0.199 -0.54,-0.313 -0.881,-0.313 -0.696,0 -1.207,0.412 -1.477,1.023 l 0.609,0.227 c 0.172,-0.383 0.484,-0.596 0.868,-0.596 0.369,0 0.625,0.256 0.625,0.596 0,0.541 -0.625,0.626 -1.15,0.839 -0.242,0.098 -0.783,0.339 -0.783,1.007 0,0.796 0.541,1.094 1.266,1.094 0.568,0 0.952,-0.327 1.151,-0.824 L -0.34,2.883 c 0,0 -0.143,0.341 -0.598,0.355 C -1.237,3.252 -1.591,3.139 -1.562,2.77 -1.506,2.016 0.398,2.514 0.398,0.924 0.398,0.554 0.255,0.228 0,0"
         style="fill:#ffffff;fill-opacity:1;fill-rule:nonzero;stroke:none"
         id="path7008"
         inkscape:connector-curvature="0" />
    </g>
    <path
       d="m 660.55621,692.02629 0.8175,0 0,5.06 -0.8175,0 0,-5.06 z"
       style="fill:#ffffff;fill-opacity:1;fill-rule:nonzero;stroke:none"
       id="path7010"
       inkscape:connector-curvature="0" />
    <g
       id="g7012"
       transform="matrix(1.25,0,0,-1.25,664.72971,694.92067)">
      <path
         d="m 0,0 c -0.085,0.029 -0.127,0.029 -0.269,0.029 l -0.812,0 0,-1.108 0.967,0 c 0.327,0 0.499,0.156 0.499,0.469 C 0.385,-0.34 0.227,-0.085 0,0 m -0.142,1.676 -0.939,0 0,-0.994 0.768,0 c 0.186,0 0.271,0.027 0.384,0.114 0.142,0.114 0.227,0.284 0.227,0.468 0,0.271 -0.156,0.412 -0.44,0.412 M 0.385,-1.632 C 0.242,-1.69 0,-1.733 -0.185,-1.733 l -1.535,0 0,4.048 1.535,0 c 0.641,0 1.123,-0.441 1.123,-1.023 0,-0.397 -0.184,-0.696 -0.569,-0.909 0.427,-0.199 0.668,-0.539 0.668,-0.979 0,-0.44 -0.269,-0.88 -0.652,-1.036"
         style="fill:#ffffff;fill-opacity:1;fill-rule:nonzero;stroke:none"
         id="path7014"
         inkscape:connector-curvature="0" />
    </g>
    <g
       id="g7016"
       transform="matrix(1.25,0,0,-1.25,666.87946,697.08692)">
      <path
         d="m 0,0 0,4.048 0.64,0 0,-3.451 1.875,0 L 2.515,0 0,0 z"
         style="fill:#ffffff;fill-opacity:1;fill-rule:nonzero;stroke:none"
         id="path7018"
         inkscape:connector-curvature="0" />
    </g>
    <g
       id="g7020"
       transform="matrix(1.25,0,0,-1.25,670.76858,697.08692)">
      <path
         d="m 0,0 0,4.048 2.388,0 0,-0.639 -1.748,0 0,-0.994 1.179,0 0,-0.653 -1.179,0 0,-1.108 1.875,0 L 2.515,0 0,0 z"
         style="fill:#ffffff;fill-opacity:1;fill-rule:nonzero;stroke:none"
         id="path7022"
         inkscape:connector-curvature="0" />
    </g>
  </g>
</svg>
