<?xml version="1.0" encoding="UTF-8" standalone="no"?>
<!-- Created with Inkscape (http://www.inkscape.org/) -->

<svg
   xmlns:dc="http://purl.org/dc/elements/1.1/"
   xmlns:cc="http://creativecommons.org/ns#"
   xmlns:rdf="http://www.w3.org/1999/02/22-rdf-syntax-ns#"
   xmlns:svg="http://www.w3.org/2000/svg"
   xmlns="http://www.w3.org/2000/svg"
   xmlns:sodipodi="http://sodipodi.sourceforge.net/DTD/sodipodi-0.dtd"
   xmlns:inkscape="http://www.inkscape.org/namespaces/inkscape"
   width="81.640625"
   height="132.25127"
   id="svg11065"
   version="1.1"
   inkscape:version="0.48.3.1 r9886"
   sodipodi:docname="New document 88">
  <defs
     id="defs11067" />
  <sodipodi:namedview
     id="base"
     pagecolor="#ffffff"
     bordercolor="#666666"
     borderopacity="1.0"
     inkscape:pageopacity="0.0"
     inkscape:pageshadow="2"
     inkscape:zoom="0.35"
     inkscape:cx="40.823745"
     inkscape:cy="66.125627"
     inkscape:document-units="px"
     inkscape:current-layer="layer1"
     showgrid="false"
     fit-margin-top="0"
     fit-margin-left="0"
     fit-margin-right="0"
     fit-margin-bottom="0"
     inkscape:window-width="451"
     inkscape:window-height="398"
     inkscape:window-x="125"
     inkscape:window-y="125"
     inkscape:window-maximized="0" />
  <metadata
     id="metadata11070">
    <rdf:RDF>
      <cc:Work
         rdf:about="">
        <dc:format>image/svg+xml</dc:format>
        <dc:type
           rdf:resource="http://purl.org/dc/dcmitype/StillImage" />
        <dc:title></dc:title>
      </cc:Work>
    </rdf:RDF>
  </metadata>
  <g
     inkscape:label="Layer 1"
     inkscape:groupmode="layer"
     id="layer1"
     transform="translate(-334.17626,-466.23655)">
    <g
       id="g7580"
       transform="matrix(1.25,0,0,-1.25,339.87938,466.54905)">
      <path
         d="m 0,0 56.193,0 c 2.367,0 4.303,-1.938 4.303,-4.305 l 0,-56.193 c 0,-2.365 -1.936,-4.303 -4.303,-4.303 l -56.193,0 c -2.367,0 -4.303,1.938 -4.303,4.303 l 0,56.193 C -4.303,-1.938 -2.367,0 0,0"
         style="fill:#ffffff;fill-opacity:1;fill-rule:nonzero;stroke:none"
         id="path7582"
         inkscape:connector-curvature="0" />
    </g>
    <g
       id="g7584"
       transform="matrix(1.25,0,0,-1.25,339.87938,466.54905)">
      <path
         d="m 0,0 56.193,0 c 2.367,0 4.303,-1.938 4.303,-4.305 l 0,-56.193 c 0,-2.365 -1.936,-4.303 -4.303,-4.303 l -56.193,0 c -2.367,0 -4.303,1.938 -4.303,4.303 l 0,56.193 C -4.303,-1.938 -2.367,0 0,0 z"
         style="fill:none;stroke:#231f20;stroke-width:0.5;stroke-linecap:butt;stroke-linejoin:miter;stroke-miterlimit:4;stroke-opacity:1;stroke-dasharray:none"
         id="path7586"
         inkscape:connector-curvature="0" />
    </g>
    <g
       id="g7588"
       transform="matrix(1.25,0,0,-1.25,339.87938,468.5753)">
      <path
         d="m 0,0 56.193,0 c 1.477,0 2.684,-1.207 2.684,-2.684 l 0,-56.193 c 0,-1.475 -1.207,-2.682 -2.684,-2.682 l -56.193,0 c -1.477,0 -2.684,1.207 -2.684,2.682 l 0,56.193 C -2.684,-1.207 -1.477,0 0,0"
         style="fill:#155196;fill-opacity:1;fill-rule:evenodd;stroke:none"
         id="path7590"
         inkscape:connector-curvature="0" />
    </g>
    <g
       id="g7592"
       transform="matrix(1.25,0,0,-1.25,402.09325,540.75781)">
      <path
         d="m 0,0 0,53.968 -10.603,0 0,-19.503 -22.346,0 0,19.503 -10.603,0 0,-53.968 10.603,0 0,23.67 22.346,0 0,-23.67 L 0,0 z"
         style="fill:#ffffff;fill-opacity:1;fill-rule:evenodd;stroke:none"
         id="path7594"
         inkscape:connector-curvature="0" />
    </g>
    <g
       id="g7596"
       transform="matrix(1.25,0,0,-1.25,403.68563,598.17531)">
      <path
         d="m 0,0 -45.901,0 c -2.972,0 -5.398,2.426 -5.398,5.399 l 0,29.701 c 0,2.974 2.426,5.4 5.398,5.4 L 0,40.5 c 2.974,0 5.4,-2.426 5.4,-5.4 L 5.4,5.399 C 5.4,2.426 2.974,0 0,0"
         style="fill:#ffffff;fill-opacity:1;fill-rule:nonzero;stroke:none"
         id="path7598"
         inkscape:connector-curvature="0" />
    </g>
    <g
       id="g7600"
       transform="matrix(1.25,0,0,-1.25,403.68563,598.17531)">
      <path
         d="m 0,0 -45.901,0 c -2.972,0 -5.398,2.426 -5.398,5.399 l 0,29.701 c 0,2.974 2.426,5.4 5.398,5.4 L 0,40.5 c 2.974,0 5.4,-2.426 5.4,-5.4 L 5.4,5.399 C 5.4,2.426 2.974,0 0,0 z"
         style="fill:none;stroke:#231f20;stroke-width:0.5;stroke-linecap:butt;stroke-linejoin:miter;stroke-miterlimit:10;stroke-opacity:1;stroke-dasharray:none"
         id="path7602"
         inkscape:connector-curvature="0" />
    </g>
    <g
       id="g7604"
       transform="matrix(1.25,0,0,-1.25,346.327,596.8253)">
      <path
         d="m 0,0 c -0.226,0.006 -0.443,0.022 -0.67,0.049 -0.213,0.039 -0.416,0.086 -0.623,0.145 -0.203,0.068 -0.392,0.144 -0.588,0.232 -0.187,0.098 -0.363,0.197 -0.543,0.312 -0.172,0.124 -0.33,0.249 -0.49,0.387 -0.258,0.246 -0.473,0.492 -0.68,0.783 -0.115,0.18 -0.214,0.356 -0.312,0.543 -0.088,0.196 -0.164,0.385 -0.233,0.588 -0.058,0.207 -0.105,0.41 -0.144,0.623 -0.029,0.227 -0.045,0.444 -0.049,0.67 l 0.006,29.91 c 0.016,0.219 0.043,0.428 0.082,0.647 0.049,0.209 0.105,0.408 0.174,0.611 0.078,0.197 0.162,0.383 0.26,0.572 0.105,0.184 0.214,0.354 0.337,0.528 0.131,0.166 0.262,0.318 0.409,0.471 0.259,0.248 0.515,0.449 0.816,0.642 0.184,0.106 0.365,0.199 0.559,0.287 0.199,0.078 0.392,0.145 0.599,0.203 0.213,0.049 0.418,0.086 0.635,0.114 L 0,38.34 46.11,38.334 c 0.22,-0.017 0.429,-0.045 0.646,-0.084 0.211,-0.049 0.408,-0.103 0.611,-0.174 0.2,-0.078 0.385,-0.162 0.575,-0.259 0.183,-0.106 0.353,-0.215 0.525,-0.338 0.166,-0.129 0.318,-0.262 0.471,-0.408 0.248,-0.258 0.449,-0.516 0.642,-0.817 0.106,-0.183 0.199,-0.365 0.287,-0.558 0.078,-0.2 0.145,-0.393 0.203,-0.6 0.049,-0.213 0.086,-0.418 0.114,-0.635 L 50.207,34.006 50.201,4.098 C 50.184,3.877 50.158,3.668 50.119,3.451 50.07,3.24 50.014,3.043 49.943,2.838 49.865,2.641 49.781,2.455 49.686,2.266 49.578,2.082 49.471,1.912 49.348,1.738 49.217,1.574 49.084,1.42 48.938,1.268 48.68,1.022 48.422,0.819 48.121,0.625 47.938,0.52 47.758,0.428 47.565,0.34 47.363,0.26 47.17,0.196 46.963,0.137 46.75,0.086 46.545,0.049 46.328,0.022 L 45.873,0 0,0 z"
         style="fill:#155196;fill-opacity:1;fill-rule:evenodd;stroke:none"
         id="path7606"
         inkscape:connector-curvature="0" />
    </g>
    <g
       id="g7608"
       transform="matrix(1.25,0,0,-1.25,366.29563,584.13655)">
      <path
         d="M 0,0 -13.342,9.023 0,18.062 c 0.586,0.4 1.392,0.246 1.793,-0.342 0.265,-0.392 0.218,-0.799 0.095,-1.283 l -1.177,-3.916 24.597,0 0,-6.988 -24.597,0 1.15,-3.854 C 2.01,1.146 2.072,0.752 1.793,0.341 1.392,-0.246 0.586,-0.401 0,0"
         style="fill:#ffffff;fill-opacity:1;fill-rule:evenodd;stroke:none"
         id="path7610"
         inkscape:connector-curvature="0" />
    </g>
  </g>
</svg>
