<?xml version="1.0" encoding="UTF-8" standalone="no"?>
<!-- Created with Inkscape (http://www.inkscape.org/) -->

<svg
   xmlns:dc="http://purl.org/dc/elements/1.1/"
   xmlns:cc="http://creativecommons.org/ns#"
   xmlns:rdf="http://www.w3.org/1999/02/22-rdf-syntax-ns#"
   xmlns:svg="http://www.w3.org/2000/svg"
   xmlns="http://www.w3.org/2000/svg"
   xmlns:sodipodi="http://sodipodi.sourceforge.net/DTD/sodipodi-0.dtd"
   xmlns:inkscape="http://www.inkscape.org/namespaces/inkscape"
   width="71.523438"
   height="51.25"
   id="svg10859"
   version="1.1"
   inkscape:version="0.48.3.1 r9886"
   sodipodi:docname="New document 82">
  <defs
     id="defs10861">
    <clipPath
       clipPathUnits="userSpaceOnUse"
       id="clipPath7504">
      <path
         inkscape:connector-curvature="0"
         d="m 63.125,45.278 513.625,0 0,691.943 -513.625,0 0,-691.943 z"
         id="path7506" />
    </clipPath>
  </defs>
  <sodipodi:namedview
     id="base"
     pagecolor="#ffffff"
     bordercolor="#666666"
     borderopacity="1.0"
     inkscape:pageopacity="0.0"
     inkscape:pageshadow="2"
     inkscape:zoom="0.35"
     inkscape:cx="35.758438"
     inkscape:cy="25.625002"
     inkscape:document-units="px"
     inkscape:current-layer="layer1"
     showgrid="false"
     fit-margin-top="0"
     fit-margin-left="0"
     fit-margin-right="0"
     fit-margin-bottom="0"
     inkscape:window-width="451"
     inkscape:window-height="398"
     inkscape:window-x="175"
     inkscape:window-y="175"
     inkscape:window-maximized="0" />
  <metadata
     id="metadata10864">
    <rdf:RDF>
      <cc:Work
         rdf:about="">
        <dc:format>image/svg+xml</dc:format>
        <dc:type
           rdf:resource="http://purl.org/dc/dcmitype/StillImage" />
        <dc:title></dc:title>
      </cc:Work>
    </rdf:RDF>
  </metadata>
  <g
     inkscape:label="Layer 1"
     inkscape:groupmode="layer"
     id="layer1"
     transform="translate(-339.24156,-506.73718)">
    <g
       transform="matrix(1.25,0,0,-1.25,41.199875,671.38781)"
       id="g7500">
      <g
         id="g7502"
         clip-path="url(#clipPath7504)">
        <g
           id="g7508"
           transform="translate(244.0896,131.4705)">
          <path
             inkscape:connector-curvature="0"
             d="M 0,0 45.901,0 C 48.874,0 51.3,-2.426 51.3,-5.398 l 0,-29.702 c 0,-2.974 -2.426,-5.4 -5.399,-5.4 L 0,-40.5 c -2.973,0 -5.399,2.426 -5.399,5.4 l 0,29.702 C -5.399,-2.426 -2.973,0 0,0"
             style="fill:#ffffff;fill-opacity:1;fill-rule:nonzero;stroke:none"
             id="path7510" />
        </g>
        <g
           id="g7512"
           transform="translate(244.0896,131.4705)">
          <path
             inkscape:connector-curvature="0"
             d="M 0,0 45.901,0 C 48.874,0 51.3,-2.426 51.3,-5.398 l 0,-29.702 c 0,-2.974 -2.426,-5.4 -5.399,-5.4 L 0,-40.5 c -2.973,0 -5.399,2.426 -5.399,5.4 l 0,29.702 C -5.399,-2.426 -2.973,0 0,0 z"
             style="fill:none;stroke:#231f20;stroke-width:0.5;stroke-linecap:butt;stroke-linejoin:miter;stroke-miterlimit:10;stroke-opacity:1;stroke-dasharray:none"
             id="path7514" />
        </g>
        <g
           id="g7516"
           transform="translate(289.9766,130.3905)">
          <path
             inkscape:connector-curvature="0"
             d="m 0,0 c 0.227,-0.006 0.444,-0.022 0.67,-0.049 0.214,-0.039 0.416,-0.086 0.624,-0.144 0.203,-0.069 0.392,-0.145 0.588,-0.233 0.187,-0.097 0.363,-0.197 0.542,-0.312 0.172,-0.123 0.331,-0.248 0.491,-0.387 0.258,-0.246 0.473,-0.492 0.68,-0.783 0.114,-0.18 0.214,-0.356 0.312,-0.543 0.088,-0.196 0.163,-0.385 0.232,-0.588 0.059,-0.207 0.106,-0.41 0.144,-0.623 0.029,-0.227 0.045,-0.444 0.05,-0.67 L 4.327,-34.242 C 4.31,-34.461 4.284,-34.67 4.245,-34.889 4.196,-35.098 4.14,-35.297 4.071,-35.5 3.993,-35.697 3.909,-35.883 3.811,-36.072 3.706,-36.256 3.597,-36.426 3.474,-36.6 3.343,-36.766 3.211,-36.918 3.065,-37.07 2.806,-37.318 2.55,-37.52 2.249,-37.713 2.064,-37.818 1.884,-37.912 1.69,-38 1.491,-38.078 1.297,-38.145 1.091,-38.203 0.877,-38.252 0.672,-38.289 0.455,-38.316 L 0,-38.34 l -46.108,0.006 c -0.221,0.018 -0.43,0.045 -0.647,0.084 -0.211,0.049 -0.408,0.103 -0.612,0.174 -0.199,0.078 -0.384,0.162 -0.574,0.26 -0.183,0.105 -0.353,0.214 -0.525,0.337 -0.166,0.129 -0.319,0.262 -0.472,0.409 -0.247,0.257 -0.449,0.515 -0.642,0.816 -0.106,0.184 -0.198,0.365 -0.286,0.559 -0.079,0.199 -0.145,0.392 -0.203,0.599 -0.05,0.213 -0.086,0.418 -0.115,0.635 l -0.022,0.455 0.006,29.908 c 0.016,0.221 0.043,0.43 0.082,0.647 0.049,0.211 0.105,0.408 0.175,0.613 0.078,0.197 0.162,0.383 0.258,0.572 0.107,0.184 0.215,0.354 0.338,0.528 0.131,0.164 0.264,0.318 0.409,0.47 0.259,0.246 0.516,0.45 0.817,0.643 0.183,0.105 0.364,0.197 0.557,0.285 0.201,0.08 0.395,0.145 0.601,0.203 0.213,0.051 0.419,0.088 0.636,0.115 L -45.872,0 0,0 z"
             style="fill:#155196;fill-opacity:1;fill-rule:evenodd;stroke:none"
             id="path7518" />
        </g>
        <g
           id="g7520"
           transform="translate(274.0026,120.2405)">
          <path
             inkscape:connector-curvature="0"
             d="M 0,0 13.342,-9.024 0,-18.063 c -0.587,-0.4 -1.392,-0.246 -1.793,0.342 -0.266,0.392 -0.218,0.799 -0.095,1.283 l 1.177,3.916 -24.597,0 0,6.988 24.597,0 -1.15,3.854 c -0.148,0.533 -0.211,0.928 0.068,1.338 C -1.392,0.246 -0.587,0.4 0,0"
             style="fill:#ffffff;fill-opacity:1;fill-rule:evenodd;stroke:none"
             id="path7522" />
        </g>
      </g>
    </g>
  </g>
</svg>
