<?xml version="1.0" encoding="UTF-8" standalone="no"?>
<!-- Created with Inkscape (http://www.inkscape.org/) -->

<svg
   xmlns:dc="http://purl.org/dc/elements/1.1/"
   xmlns:cc="http://creativecommons.org/ns#"
   xmlns:rdf="http://www.w3.org/1999/02/22-rdf-syntax-ns#"
   xmlns:svg="http://www.w3.org/2000/svg"
   xmlns="http://www.w3.org/2000/svg"
   xmlns:sodipodi="http://sodipodi.sourceforge.net/DTD/sodipodi-0.dtd"
   xmlns:inkscape="http://www.inkscape.org/namespaces/inkscape"
   width="71.523438"
   height="51.25"
   id="svg10918"
   version="1.1"
   inkscape:version="0.48.3.1 r9886"
   sodipodi:docname="New document 84">
  <defs
     id="defs10920">
    <clipPath
       clipPathUnits="userSpaceOnUse"
       id="clipPath7532">
      <path
         inkscape:connector-curvature="0"
         d="m 63.125,45.278 513.625,0 0,691.943 -513.625,0 0,-691.943 z"
         id="path7534" />
    </clipPath>
  </defs>
  <sodipodi:namedview
     id="base"
     pagecolor="#ffffff"
     bordercolor="#666666"
     borderopacity="1.0"
     inkscape:pageopacity="0.0"
     inkscape:pageshadow="2"
     inkscape:zoom="0.35"
     inkscape:cx="35.755938"
     inkscape:cy="25.625002"
     inkscape:document-units="px"
     inkscape:current-layer="layer1"
     showgrid="false"
     fit-margin-top="0"
     fit-margin-left="0"
     fit-margin-right="0"
     fit-margin-bottom="0"
     inkscape:window-width="451"
     inkscape:window-height="398"
     inkscape:window-x="25"
     inkscape:window-y="25"
     inkscape:window-maximized="0" />
  <metadata
     id="metadata10923">
    <rdf:RDF>
      <cc:Work
         rdf:about="">
        <dc:format>image/svg+xml</dc:format>
        <dc:type
           rdf:resource="http://purl.org/dc/dcmitype/StillImage" />
        <dc:title></dc:title>
      </cc:Work>
    </rdf:RDF>
  </metadata>
  <g
     inkscape:label="Layer 1"
     inkscape:groupmode="layer"
     id="layer1"
     transform="translate(-339.24406,-506.73718)">
    <g
       transform="matrix(1.25,0,0,-1.25,-68.723875,671.38781)"
       id="g7528">
      <g
         id="g7530"
         clip-path="url(#clipPath7532)">
        <g
           id="g7536"
           transform="translate(332.0306,131.4705)">
          <path
             inkscape:connector-curvature="0"
             d="m 0,0 45.898,0 c 2.975,0 5.4,-2.426 5.4,-5.4 l 0,-29.7 c 0,-2.974 -2.425,-5.4 -5.4,-5.4 L 0,-40.5 c -2.975,0 -5.401,2.426 -5.401,5.4 l 0,29.7 C -5.401,-2.426 -2.975,0 0,0"
             style="fill:#ffffff;fill-opacity:1;fill-rule:nonzero;stroke:none"
             id="path7538" />
        </g>
        <g
           id="g7540"
           transform="translate(332.0306,131.4705)">
          <path
             inkscape:connector-curvature="0"
             d="m 0,0 45.898,0 c 2.975,0 5.4,-2.426 5.4,-5.4 l 0,-29.7 c 0,-2.974 -2.425,-5.4 -5.4,-5.4 L 0,-40.5 c -2.975,0 -5.401,2.426 -5.401,5.4 l 0,29.7 C -5.401,-2.426 -2.975,0 0,0 z"
             style="fill:none;stroke:#231f20;stroke-width:0.5;stroke-linecap:butt;stroke-linejoin:miter;stroke-miterlimit:10;stroke-opacity:1;stroke-dasharray:none"
             id="path7542" />
        </g>
        <g
           id="g7544"
           transform="translate(377.9146,130.3905)">
          <path
             inkscape:connector-curvature="0"
             d="M 0,0 C 0.229,-0.006 0.446,-0.022 0.672,-0.051 0.885,-0.09 1.086,-0.135 1.295,-0.195 1.498,-0.264 1.688,-0.34 1.883,-0.428 2.071,-0.523 2.246,-0.625 2.426,-0.74 c 0.172,-0.121 0.33,-0.246 0.49,-0.385 0.258,-0.248 0.473,-0.494 0.68,-0.785 0.113,-0.178 0.215,-0.354 0.313,-0.543 0.087,-0.194 0.162,-0.385 0.232,-0.586 0.059,-0.209 0.105,-0.41 0.143,-0.625 0.029,-0.227 0.045,-0.442 0.05,-0.67 L 4.329,-34.242 C 4.313,-34.463 4.286,-34.672 4.246,-34.889 4.198,-35.1 4.141,-35.297 4.073,-35.502 3.995,-35.699 3.911,-35.885 3.813,-36.074 3.707,-36.258 3.598,-36.428 3.475,-36.6 3.344,-36.766 3.211,-36.92 3.067,-37.072 2.807,-37.318 2.551,-37.522 2.25,-37.715 2.065,-37.82 1.885,-37.912 1.692,-38 c -0.199,-0.08 -0.395,-0.145 -0.6,-0.203 -0.213,-0.051 -0.42,-0.086 -0.637,-0.115 L 0,-38.34 l -46.106,0.006 c -0.221,0.016 -0.43,0.043 -0.647,0.082 -0.209,0.049 -0.408,0.105 -0.612,0.174 -0.198,0.078 -0.384,0.162 -0.573,0.26 -0.184,0.105 -0.354,0.214 -0.526,0.337 -0.166,0.131 -0.319,0.264 -0.472,0.409 -0.246,0.259 -0.448,0.515 -0.642,0.816 -0.106,0.186 -0.199,0.365 -0.286,0.559 -0.079,0.199 -0.144,0.394 -0.204,0.599 -0.049,0.213 -0.086,0.42 -0.113,0.637 l -0.024,0.455 0.007,29.908 c 0.017,0.219 0.043,0.428 0.082,0.647 0.049,0.209 0.106,0.408 0.174,0.611 0.079,0.199 0.163,0.383 0.26,0.572 0.105,0.184 0.216,0.356 0.338,0.528 0.131,0.166 0.262,0.318 0.408,0.47 0.26,0.248 0.516,0.45 0.817,0.643 0.184,0.105 0.365,0.199 0.558,0.287 0.2,0.078 0.393,0.145 0.6,0.203 0.213,0.049 0.418,0.086 0.635,0.114 L -45.871,0 0,0 z"
             style="fill:#155196;fill-opacity:1;fill-rule:evenodd;stroke:none"
             id="path7546" />
        </g>
        <g
           id="g7548"
           transform="translate(354.3496,122.9955)">
          <path
             inkscape:connector-curvature="0"
             d="M 0,0 15.977,2.038 11.932,-13.56 c -0.178,-0.69 -0.885,-1.106 -1.573,-0.928 -0.461,0.117 -0.693,0.455 -0.92,0.901 l -1.703,3.716 -18.467,-16.246 -4.618,5.248 18.468,16.246 -3.408,2.133 c -0.463,0.303 -0.77,0.559 -0.832,1.051 C -1.209,-0.734 -0.705,-0.087 0,0"
             style="fill:#ffffff;fill-opacity:1;fill-rule:evenodd;stroke:none"
             id="path7550" />
        </g>
      </g>
    </g>
  </g>
</svg>
