<?xml version="1.0" encoding="UTF-8" standalone="no"?>
<!-- Created with Inkscape (http://www.inkscape.org/) -->

<svg
   xmlns:dc="http://purl.org/dc/elements/1.1/"
   xmlns:cc="http://creativecommons.org/ns#"
   xmlns:rdf="http://www.w3.org/1999/02/22-rdf-syntax-ns#"
   xmlns:svg="http://www.w3.org/2000/svg"
   xmlns="http://www.w3.org/2000/svg"
   xmlns:sodipodi="http://sodipodi.sourceforge.net/DTD/sodipodi-0.dtd"
   xmlns:inkscape="http://www.inkscape.org/namespaces/inkscape"
   width="167.89062"
   height="90.703125"
   id="svg13391"
   version="1.1"
   inkscape:version="0.48.2 r9819"
   sodipodi:docname="New document 130">
  <defs
     id="defs13393">
    <clipPath
       clipPathUnits="userSpaceOnUse"
       id="clipPath12912">
      <path
         inkscape:connector-curvature="0"
         d="m 27,426.649 513,0 0,312.601 -513,0 0,-312.601 z"
         id="path12914" />
    </clipPath>
  </defs>
  <sodipodi:namedview
     id="base"
     pagecolor="#ffffff"
     bordercolor="#666666"
     borderopacity="1.0"
     inkscape:pageopacity="0.0"
     inkscape:pageshadow="2"
     inkscape:zoom="0.35"
     inkscape:cx="119.25223"
     inkscape:cy="48.21308"
     inkscape:document-units="px"
     inkscape:current-layer="layer1"
     showgrid="false"
     fit-margin-top="0"
     fit-margin-left="0"
     fit-margin-right="0"
     fit-margin-bottom="0"
     inkscape:window-width="469"
     inkscape:window-height="425"
     inkscape:window-x="1451"
     inkscape:window-y="120"
     inkscape:window-maximized="0" />
  <metadata
     id="metadata13396">
    <rdf:RDF>
      <cc:Work
         rdf:about="">
        <dc:format>image/svg+xml</dc:format>
        <dc:type
           rdf:resource="http://purl.org/dc/dcmitype/StillImage" />
        <dc:title></dc:title>
      </cc:Work>
    </rdf:RDF>
  </metadata>
  <g
     inkscape:label="Layer 1"
     inkscape:groupmode="layer"
     id="layer1"
     transform="translate(-236.05,-489.87214)">
    <g
       transform="matrix(1.25,0,0,-1.25,51.6705,1363.0907)"
       id="g12908">
      <g
         id="g12910"
         clip-path="url(#clipPath12912)">
        <g
           id="g12916"
           transform="translate(281.5661,631.4186)">
          <path
             inkscape:connector-curvature="0"
             d="m 0,0 c 0,-2.83 -2.315,-5.146 -5.146,-5.146 l -123.512,0 c -2.83,0 -5.147,2.316 -5.147,5.146 l 0,61.757 c 0,2.83 2.317,5.146 5.147,5.146 l 123.512,0 C -2.315,66.903 0,64.587 0,61.757 L 0,0 z"
             style="fill:#ffffff;fill-opacity:1;fill-rule:nonzero;stroke:none"
             id="path12918" />
        </g>
        <g
           id="g12920"
           transform="translate(281.5661,631.4186)">
          <path
             inkscape:connector-curvature="0"
             d="m 0,0 c 0,-2.83 -2.315,-5.146 -5.146,-5.146 l -123.512,0 c -2.83,0 -5.147,2.316 -5.147,5.146 l 0,61.757 c 0,2.83 2.317,5.146 5.147,5.146 l 123.512,0 C -2.315,66.903 0,64.587 0,61.757 L 0,0 z"
             style="fill:none;stroke:#231f20;stroke-width:0.5;stroke-linecap:butt;stroke-linejoin:miter;stroke-miterlimit:3.86400008;stroke-opacity:1;stroke-dasharray:none"
             id="path12922" />
        </g>
        <g
           id="g12924"
           transform="translate(152.9081,628.4166)">
          <path
             inkscape:connector-curvature="0"
             d="m 0,0 c -0.797,0 -1.549,0.314 -2.118,0.884 -0.571,0.57 -0.884,1.322 -0.884,2.118 l 0,61.757 c 0,0.796 0.313,1.548 0.884,2.118 0.569,0.57 1.321,0.884 2.118,0.884 l 123.512,0 c 0.796,0 1.548,-0.314 2.118,-0.884 0.57,-0.57 0.884,-1.322 0.884,-2.118 l 0,-61.757 C 126.514,2.206 126.2,1.454 125.63,0.884 125.06,0.314 124.308,0 123.512,0 L 0,0 z"
             style="fill:#00674c;fill-opacity:1;fill-rule:nonzero;stroke:none"
             id="path12926" />
        </g>
        <g
           id="g12928"
           transform="translate(209.7061,676.3634)">
          <path
             inkscape:connector-curvature="0"
             d="m 0,0 -3.937,6.97 0,-6.97 -1.625,0 0,10.293 1.625,0 3.756,-6.573 0,6.573 1.625,0 L 1.444,0 0,0 z"
             style="fill:#ffffff;fill-opacity:1;fill-rule:nonzero;stroke:none"
             id="path12930" />
        </g>
        <g
           id="g12932"
           transform="translate(216.4511,681.6988)">
          <path
             inkscape:connector-curvature="0"
             d="m 0,0 c -0.217,0.361 -0.484,0.506 -0.893,0.529 -0.531,0.025 -0.869,-0.24 -1.11,-0.842 -0.169,-0.409 -0.266,-1.035 -0.266,-1.613 0,-0.723 0.145,-1.469 0.41,-1.903 0.218,-0.36 0.507,-0.529 0.942,-0.529 0.507,0 0.82,0.265 1.062,0.867 C 0.289,-3.13 0.41,-2.456 0.41,-1.926 0.41,-1.156 0.264,-0.457 0,0 m 0.748,-4.695 c -0.387,-0.53 -0.942,-0.77 -1.665,-0.77 -0.966,0 -1.569,0.385 -1.98,1.228 -0.289,0.577 -0.482,1.492 -0.482,2.311 0,1.132 0.289,2.142 0.748,2.793 0.41,0.529 0.966,0.77 1.763,0.77 0.868,0 1.471,-0.385 1.905,-1.228 0.29,-0.602 0.459,-1.469 0.459,-2.335 0,-1.084 -0.266,-2.167 -0.748,-2.769"
             style="fill:#ffffff;fill-opacity:1;fill-rule:nonzero;stroke:none"
             id="path12934" />
        </g>
        <g
           id="g12936"
           transform="translate(227.3371,682.2608)">
          <path
             inkscape:connector-curvature="0"
             d="m 0,0 0,-5.899 -1.088,0 0,5.899 -1.573,0 0,0.963 4.257,0 L 1.596,0 0,0 z"
             style="fill:#ffffff;fill-opacity:1;fill-rule:nonzero;stroke:none"
             id="path12938" />
        </g>
        <g
           id="g12940"
           transform="translate(222.4661,682.0201)">
          <path
             inkscape:connector-curvature="0"
             d="m 0,0 c -0.169,0.097 -0.263,0.12 -0.626,0.12 l -1.3,0 0,-1.685 1.3,0 c 0.338,0 0.457,0.024 0.626,0.121 0.266,0.144 0.434,0.433 0.434,0.721 C 0.434,-0.434 0.266,-0.145 0,0 m 0.482,-5.658 -1.108,2.986 -1.3,0 0,-2.986 -1.083,0 0,6.862 2.263,0 c 0.53,0 0.891,-0.048 1.228,-0.217 0.602,-0.289 1.035,-1.011 1.035,-1.71 0,-0.721 -0.433,-1.444 -1.06,-1.733 l 1.205,-3.202 -1.18,0 z"
             style="fill:#ffffff;fill-opacity:1;fill-rule:nonzero;stroke:none"
             id="path12942" />
        </g>
        <g
           id="g12944"
           transform="translate(233.5491,676.3619)">
          <path
             inkscape:connector-curvature="0"
             d="m 0,0 0,2.986 -2.503,0 0,-2.986 -1.085,0 0,6.862 1.085,0 0,-2.769 2.503,0 0,2.769 1.085,0 L 1.085,0 0,0 z"
             style="fill:#ffffff;fill-opacity:1;fill-rule:nonzero;stroke:none"
             id="path12946" />
        </g>
        <g
           id="g12948"
           transform="translate(229.5071,641.6915)">
          <path
             inkscape:connector-curvature="0"
             d="m 0,0 c 0.037,-1.048 0.361,-2.422 1.481,-2.458 0.577,-0.036 0.974,0.109 1.373,0.506 l 0,3.796 C 2.419,2.314 2.058,2.386 1.589,2.386 0.325,2.35 -0.036,1.085 0,0 M -1.663,0 C -1.627,1.988 -0.976,4.122 1.481,3.904 1.986,3.868 2.708,3.652 2.89,3.471 l 0,2.422 1.625,0.795 0,-10.483 -1.625,0 0,0.217 c -0.506,-0.29 -0.867,-0.398 -1.445,-0.398 -2.276,0 -3.144,1.844 -3.108,3.976"
             style="fill:#ffffff;fill-opacity:1;fill-rule:nonzero;stroke:none"
             id="path12950" />
        </g>
        <g
           id="g12952"
           transform="translate(218.5801,644.0777)">
          <path
             inkscape:connector-curvature="0"
             d="m 0,0 c -1.258,0 -1.437,-0.831 -1.437,-1.59 l 2.801,0 C 1.364,-0.868 1.22,0 0,0 m -1.401,-3.108 c 0.071,-0.832 0.394,-1.7 1.401,-1.7 0.681,0 1.22,0.398 1.4,1.048 L 2.729,-4.59 C 2.298,-5.567 1.507,-6.326 0,-6.326 c -2.586,0 -3.09,1.988 -3.09,3.94 0,1.664 0.504,3.904 3.09,3.904 2.944,0 3.016,-2.783 2.98,-4.626 l -4.381,0 z"
             style="fill:#ffffff;fill-opacity:1;fill-rule:nonzero;stroke:none"
             id="path12954" />
        </g>
        <g
           id="g12956"
           transform="translate(200.6041,639.2336)">
          <path
             inkscape:connector-curvature="0"
             d="m 0,0 c 0.575,-0.036 0.971,0.109 1.367,0.506 l 0,3.796 C 0.936,4.736 0.575,4.844 0.108,4.844 -1.151,4.808 -1.512,3.543 -1.476,2.458 -1.439,1.41 -1.115,0.036 0,0 M -3.13,2.458 C -3.094,4.446 -2.447,6.58 0,6.362 0.504,6.326 1.223,6.11 1.402,5.929 l 0,0.253 1.621,0 0,-6.542 c 0,-0.977 0.539,-4.339 -3.418,-4.737 l -0.792,1.229 c 0.935,0.217 2.589,0.579 2.589,1.843 l 0,0.905 C 0.936,-1.41 0.54,-1.518 -0.036,-1.518 c -2.267,0 -3.13,1.844 -3.094,3.976"
             style="fill:#ffffff;fill-opacity:1;fill-rule:nonzero;stroke:none"
             id="path12958" />
        </g>
        <path
           inkscape:connector-curvature="0"
           d="m 184.347,645.416 1.647,0 0,-7.519 -1.647,0 0,7.519 z m 0.823,1.265 c -0.47,0 -0.868,0.361 -0.868,0.831 0,0.47 0.398,0.868 0.868,0.868 0.47,0 0.868,-0.398 0.868,-0.868 0,-0.47 -0.398,-0.831 -0.868,-0.831"
           style="fill:#ffffff;fill-opacity:1;fill-rule:nonzero;stroke:none"
           id="path12960" />
        <path
           inkscape:connector-curvature="0"
           d="m 211.373,645.416 1.647,0 0,-7.519 -1.647,0 0,7.519 z m 0.823,1.265 c -0.47,0 -0.867,0.361 -0.867,0.831 0,0.47 0.397,0.868 0.867,0.868 0.471,0 0.868,-0.398 0.868,-0.868 0,-0.47 -0.397,-0.831 -0.868,-0.831"
           style="fill:#ffffff;fill-opacity:1;fill-rule:nonzero;stroke:none"
           id="path12962" />
        <g
           id="g12964"
           transform="translate(223.7261,637.8966)">
          <path
             inkscape:connector-curvature="0"
             d="M 0,0 0,9.688 1.648,10.483 1.648,0 0,0 z"
             style="fill:#ffffff;fill-opacity:1;fill-rule:nonzero;stroke:none"
             id="path12966" />
        </g>
        <g
           id="g12968"
           transform="translate(193.5301,637.8966)">
          <path
             inkscape:connector-curvature="0"
             d="M 0,0 0,4.989 C 0,5.965 -0.652,6.181 -1.52,6.181 -2.17,6.145 -2.785,5.783 -2.785,4.917 l 0,-4.917 -1.663,0 0,7.519 1.627,0 0,-0.253 c 1.7,1.085 4.448,0.217 4.448,-2.097 L 1.627,0 0,0 z"
             style="fill:#ffffff;fill-opacity:1;fill-rule:nonzero;stroke:none"
             id="path12970" />
        </g>
        <g
           id="g12972"
           transform="translate(182.2771,643.6436)">
          <path
             inkscape:connector-curvature="0"
             d="m 0,0 c -0.326,0.254 -0.58,0.434 -0.979,0.434 -0.942,0 -1.05,-0.542 -1.05,-1.482 l 0,-4.699 -1.667,0 0,7.519 1.667,0 0,-0.362 c 0.398,0.362 0.58,0.542 1.159,0.542 0.58,0 0.834,-0.216 1.088,-0.506 L 0,0 z"
             style="fill:#ffffff;fill-opacity:1;fill-rule:nonzero;stroke:none"
             id="path12974" />
        </g>
        <g
           id="g12976"
           transform="translate(172.8781,644.0777)">
          <path
             inkscape:connector-curvature="0"
             d="m 0,0 c -0.467,0 -0.863,-0.072 -1.257,-0.542 l 0,-3.796 c 0.394,-0.397 0.79,-0.542 1.364,-0.506 1.114,0.036 1.436,1.41 1.473,2.458 C 1.616,-1.301 1.256,-0.036 0,0 m 0.143,-6.362 c -0.574,0 -0.934,0.108 -1.436,0.398 l 0,-2.386 -1.653,-0.723 0,10.411 1.653,0 0,-0.253 c 0.179,0.181 0.862,0.397 1.364,0.433 2.443,0.218 3.126,-1.916 3.161,-3.904 0,-2.132 -0.861,-3.976 -3.089,-3.976"
             style="fill:#ffffff;fill-opacity:1;fill-rule:nonzero;stroke:none"
             id="path12978" />
        </g>
        <g
           id="g12980"
           transform="translate(166.6051,638.5226)">
          <path
             inkscape:connector-curvature="0"
             d="m 0,0 c -0.578,-0.505 -1.373,-0.794 -2.239,-0.794 -1.77,0 -3.071,1.046 -3.756,2.6 l 1.553,0.578 c 0.433,-0.975 1.228,-1.517 2.203,-1.517 0.938,0 1.589,0.65 1.589,1.517 0,1.373 -1.589,1.589 -2.925,2.131 -0.614,0.253 -1.986,0.867 -1.986,2.564 0,2.022 1.372,2.781 3.213,2.781 1.445,0 2.42,-0.831 2.926,-2.094 L -0.866,7.332 c 0,0 -0.361,0.866 -1.518,0.902 C -3.143,8.271 -4.046,7.982 -3.973,7.043 -3.828,5.128 1.011,6.393 1.011,2.348 1.011,1.409 0.649,0.578 0,0"
             style="fill:#ffffff;fill-opacity:1;fill-rule:nonzero;stroke:none"
             id="path12982" />
        </g>
        <g
           id="g12984"
           transform="translate(208.4401,643.9337)">
          <path
             inkscape:connector-curvature="0"
             d="m 0,0 0,-6.037 -1.656,0 0,6.037 -0.972,0 0,1.482 0.972,0 0,1.302 c 0,0.758 0.324,1.662 1.476,1.662 0.504,0 0.756,-0.072 1.26,-0.18 l 0,-1.41 C 0.721,2.928 0,3.218 0,2.566 l 0,-1.084 1.08,0 L 1.08,0 0,0 z"
             style="fill:#ffffff;fill-opacity:1;fill-rule:nonzero;stroke:none"
             id="path12986" />
        </g>
        <g
           id="g12988"
           transform="translate(193.8581,671.2433)">
          <path
             inkscape:connector-curvature="0"
             d="m 0,0 c 0,-8.526 -6.913,-15.438 -15.439,-15.438 -8.528,0 -15.44,6.912 -15.44,15.438 0,8.527 6.912,15.439 15.44,15.439 C -6.913,15.439 0,8.527 0,0"
             style="fill:#ffffff;fill-opacity:1;fill-rule:nonzero;stroke:none"
             id="path12990" />
        </g>
        <g
           id="g12992"
           transform="translate(182.3121,674.6837)">
          <path
             inkscape:connector-curvature="0"
             d="m 0,0 c -1.361,-2.275 -2.395,-4.876 -2.886,-7.368 -0.217,-1.3 -0.327,-2.275 -0.327,-3.792 l -2.505,0 c 0.055,3.576 0.708,6.556 2.233,9.806 0.545,1.191 1.198,2.329 1.743,3.195 l -7.406,0 0,2.438 10.51,0 0,-2.438 C 0.816,1.138 0.49,0.813 0,0"
             style="fill:#231f20;fill-opacity:1;fill-rule:nonzero;stroke:none"
             id="path12994" />
        </g>
        <g
           id="g12996"
           transform="translate(266.5181,660.6803)">
          <path
             inkscape:connector-curvature="0"
             d="M 0,0 0.022,0.074 2.2,11.66 -9.513,9.479 -9.569,9.464 c -0.155,-0.044 -0.308,-0.14 -0.432,-0.265 -0.384,-0.384 -0.401,-0.994 0,-1.396 0.069,-0.07 0.14,-0.104 0.227,-0.157 l 2.863,-1.466 -10.694,-10.937 3.614,-3.614 10.693,10.937 1.449,-2.845 0.059,-0.098 c 0.03,-0.051 0.067,-0.099 0.115,-0.147 0.384,-0.384 1.012,-0.384 1.396,0 C -0.14,-0.384 -0.052,-0.192 0,0"
             style="fill:#ffffff;fill-opacity:1;fill-rule:nonzero;stroke:none"
             id="path12998" />
        </g>
      </g>
    </g>
  </g>
</svg>
