<?xml version="1.0" encoding="UTF-8" standalone="no"?>
<!-- Created with Inkscape (http://www.inkscape.org/) -->

<svg
   xmlns:dc="http://purl.org/dc/elements/1.1/"
   xmlns:cc="http://creativecommons.org/ns#"
   xmlns:rdf="http://www.w3.org/1999/02/22-rdf-syntax-ns#"
   xmlns:svg="http://www.w3.org/2000/svg"
   xmlns="http://www.w3.org/2000/svg"
   xmlns:sodipodi="http://sodipodi.sourceforge.net/DTD/sodipodi-0.dtd"
   xmlns:inkscape="http://www.inkscape.org/namespaces/inkscape"
   width="126.60156"
   height="36.640625"
   id="svg13250"
   version="1.1"
   inkscape:version="0.48.2 r9819"
   sodipodi:docname="New document 128">
  <defs
     id="defs13252">
    <clipPath
       clipPathUnits="userSpaceOnUse"
       id="clipPath12510">
      <path
         inkscape:connector-curvature="0"
         d="m 27,426.649 513,0 0,312.601 -513,0 0,-312.601 z"
         id="path12512" />
    </clipPath>
    <clipPath
       clipPathUnits="userSpaceOnUse"
       id="clipPath12498">
      <path
         inkscape:connector-curvature="0"
         d="m 31.378,428.619 504.244,0 0,310.631 -504.244,0 0,-310.631 z"
         id="path12500" />
    </clipPath>
    <clipPath
       clipPathUnits="userSpaceOnUse"
       id="clipPath12486">
      <path
         inkscape:connector-curvature="0"
         d="m 27,426.649 513,0 0,312.601 -513,0 0,-312.601 z"
         id="path12488" />
    </clipPath>
  </defs>
  <sodipodi:namedview
     id="base"
     pagecolor="#ffffff"
     bordercolor="#666666"
     borderopacity="1.0"
     inkscape:pageopacity="0.0"
     inkscape:pageshadow="2"
     inkscape:zoom="0.35"
     inkscape:cx="-10.27518"
     inkscape:cy="21.185292"
     inkscape:document-units="px"
     inkscape:current-layer="layer1"
     showgrid="false"
     fit-margin-top="0"
     fit-margin-left="0"
     fit-margin-right="0"
     fit-margin-bottom="0"
     inkscape:window-width="469"
     inkscape:window-height="425"
     inkscape:window-x="1445"
     inkscape:window-y="56"
     inkscape:window-maximized="0" />
  <metadata
     id="metadata13255">
    <rdf:RDF>
      <cc:Work
         rdf:about="">
        <dc:format>image/svg+xml</dc:format>
        <dc:type
           rdf:resource="http://purl.org/dc/dcmitype/StillImage" />
        <dc:title></dc:title>
      </cc:Work>
    </rdf:RDF>
  </metadata>
  <g
     inkscape:label="Layer 1"
     inkscape:groupmode="layer"
     id="layer1"
     transform="translate(-385.27518,-516.90685)">
    <g
       transform="matrix(1.25,0,0,-1.25,346.03668,1336.1666)"
       id="g12482">
      <g
         id="g12484"
         clip-path="url(#clipPath12486)">
        <g
           id="g12490"
           transform="translate(38.8283,655.1578)">
          <path
             inkscape:connector-curvature="0"
             d="m 0,0 86.399,0 c 3.977,0 7.2,-3.224 7.2,-7.2 l 0,-14.4 c 0,-3.976 -3.223,-7.2 -7.2,-7.2 L 0,-28.8 c -3.977,0 -7.2,3.224 -7.2,7.2 l 0,14.4 C -7.2,-3.224 -3.977,0 0,0"
             style="fill:#ffffff;fill-opacity:1;fill-rule:nonzero;stroke:none"
             id="path12492" />
        </g>
      </g>
    </g>
    <g
       transform="matrix(1.25,0,0,-1.25,346.03668,1336.1666)"
       id="g12494">
      <g
         id="g12496"
         clip-path="url(#clipPath12498)">
        <g
           id="g12502"
           transform="translate(38.8283,655.1578)">
          <path
             inkscape:connector-curvature="0"
             d="m 0,0 86.399,0 c 3.977,0 7.2,-3.224 7.2,-7.2 l 0,-14.4 c 0,-3.976 -3.223,-7.2 -7.2,-7.2 L 0,-28.8 c -3.977,0 -7.2,3.224 -7.2,7.2 l 0,14.4 C -7.2,-3.224 -3.977,0 0,0 z"
             style="fill:none;stroke:#231f20;stroke-width:0.5;stroke-linecap:butt;stroke-linejoin:miter;stroke-miterlimit:3.86400008;stroke-opacity:1;stroke-dasharray:none"
             id="path12504" />
        </g>
      </g>
    </g>
    <g
       transform="matrix(1.25,0,0,-1.25,346.03668,1336.1666)"
       id="g12506">
      <g
         id="g12508"
         clip-path="url(#clipPath12510)">
        <g
           id="g12514"
           transform="translate(38.8283,652.7579)">
          <path
             inkscape:connector-curvature="0"
             d="m 0,0 86.399,0 c 2.651,0 4.799,-2.149 4.799,-4.8 l 0,-14.4 c 0,-2.651 -2.148,-4.8 -4.799,-4.8 L 0,-24 c -2.651,0 -4.8,2.149 -4.8,4.8 l 0,14.4 C -4.8,-2.149 -2.651,0 0,0"
             style="fill:#00674c;fill-opacity:1;fill-rule:nonzero;stroke:none"
             id="path12516" />
        </g>
        <g
           id="g12518"
           transform="translate(118.1554,639.3551)">
          <path
             inkscape:connector-curvature="0"
             d="m 0,0 1.011,-1.972 c 0,0 0.192,-0.406 0.673,-0.416 0.587,-0.011 0.726,0.596 0.726,0.596 l 1.527,8.297 -8.381,-1.57 c 0,0 -0.47,-0.17 -0.492,-0.704 -0.01,-0.438 0.384,-0.64 0.384,-0.64 L -2.541,2.554 -7.509,-2.414 -4.96,-4.963 0,0 z"
             style="fill:#ffffff;fill-opacity:1;fill-rule:nonzero;stroke:none"
             id="path12520" />
        </g>
        <g
           id="g12522"
           transform="translate(41.964,635.9576)">
          <path
             inkscape:connector-curvature="0"
             d="m 0,0 0,10 6.2,0 0,-1.601 -4.598,0 0,-2.399 2.999,0 0,-1.601 -2.999,0 L 1.602,0 0,0 z"
             style="fill:#ffffff;fill-opacity:1;fill-rule:nonzero;stroke:none"
             id="path12524" />
        </g>
        <g
           id="g12526"
           transform="translate(53.2687,643.0567)">
          <path
             inkscape:connector-curvature="0"
             d="m 0,0 -0.24,-1.599 c 0,0.034 -0.09,0.103 -0.27,0.21 -0.213,0.126 -0.423,0.189 -0.629,0.189 -0.707,0 -1.059,-0.397 -1.059,-1.19 l 0,-4.709 -1.602,0 0,7.301 1.602,0 0,-0.47 C -1.905,0.11 -1.476,0.3 -0.909,0.3 -0.736,0.3 -0.433,0.2 0,0"
             style="fill:#ffffff;fill-opacity:1;fill-rule:nonzero;stroke:none"
             id="path12528" />
        </g>
        <g
           id="g12530"
           transform="translate(58.5705,639.6065)">
          <path
             inkscape:connector-curvature="0"
             d="m 0,0 c 0,0.62 -0.107,1.13 -0.32,1.53 -0.253,0.48 -0.629,0.72 -1.129,0.72 -0.48,0 -0.847,-0.22 -1.1,-0.66 C -2.782,1.19 -2.898,0.66 -2.898,0 c 0,-0.62 0.106,-1.13 0.319,-1.53 0.254,-0.48 0.63,-0.72 1.13,-0.72 0.5,0 0.876,0.24 1.129,0.72 C -0.107,-1.13 0,-0.62 0,0 m 1.602,0 c 0,-1.086 -0.231,-1.96 -0.691,-2.62 -0.533,-0.754 -1.32,-1.13 -2.36,-1.13 -0.961,0 -1.709,0.327 -2.246,0.98 C -4.232,-2.117 -4.5,-1.193 -4.5,0 c 0,1.06 0.22,1.917 0.66,2.57 0.526,0.787 1.323,1.18 2.391,1.18 1.054,0 1.846,-0.39 2.381,-1.17 C 1.378,1.92 1.602,1.06 1.602,0"
             style="fill:#ffffff;fill-opacity:1;fill-rule:nonzero;stroke:none"
             id="path12532" />
        </g>
        <g
           id="g12534"
           transform="translate(67.6672,635.9576)">
          <path
             inkscape:connector-curvature="0"
             d="m 0,0 -1.602,0 0,4.699 c 0,0.413 -0.15,0.727 -0.449,0.94 -0.246,0.174 -0.549,0.26 -0.908,0.26 -0.347,0 -0.643,-0.09 -0.889,-0.27 -0.299,-0.22 -0.449,-0.53 -0.449,-0.93 l 0,-4.699 -1.602,0 0,7.301 1.602,0 0,-0.29 c 0.446,0.258 0.989,0.388 1.629,0.388 0.706,0 1.313,-0.197 1.818,-0.59 C -0.283,6.369 0,5.766 0,4.999 L 0,0 z"
             style="fill:#ffffff;fill-opacity:1;fill-rule:nonzero;stroke:none"
             id="path12536" />
        </g>
        <g
           id="g12538"
           transform="translate(72.6701,637.5586)">
          <path
             inkscape:connector-curvature="0"
             d="m 0,0 -0.141,-1.372 c -0.407,-0.22 -0.821,-0.33 -1.241,-0.33 -0.975,0 -1.462,0.533 -1.462,1.6 l 0,4.4 -1.156,0 0,1.398 1.156,0 0,1.944 1.602,0.861 0,-2.805 1.242,0 0,-1.398 -1.242,0 0,-4.082 c 0,-0.346 0.14,-0.52 0.421,-0.52 0.266,0 0.541,0.101 0.821,0.304"
             style="fill:#ffffff;fill-opacity:1;fill-rule:nonzero;stroke:none"
             id="path12540" />
        </g>
        <g
           id="g12542"
           transform="translate(85.3654,640.3565)">
          <path
             inkscape:connector-curvature="0"
             d="M 0,0 -1.05,3.051 -2.09,0 0,0 z m 3.2,-4.399 -1.69,0 -0.96,2.797 -3.21,0 -0.94,-2.797 -1.7,0 3.44,10.001 1.62,0 3.44,-10.001 z"
             style="fill:#ffffff;fill-opacity:1;fill-rule:nonzero;stroke:none"
             id="path12544" />
        </g>
        <g
           id="g12546"
           transform="translate(96.1633,643.255)">
          <path
             inkscape:connector-curvature="0"
             d="m 0,0 -2.779,-7.297 -1.531,0 L -7.1,0 -5.38,0 -3.55,-4.817 -1.7,0 0,0 z"
             style="fill:#ffffff;fill-opacity:1;fill-rule:nonzero;stroke:none"
             id="path12548" />
        </g>
        <g
           id="g12550"
           transform="translate(101.2668,640.3565)">
          <path
             inkscape:connector-curvature="0"
             d="M 0,0 C 0,0.44 -0.111,0.8 -0.335,1.08 -0.558,1.36 -0.862,1.5 -1.249,1.5 -1.615,1.5 -1.928,1.352 -2.188,1.055 -2.447,0.758 -2.594,0.407 -2.627,0 L 0,0 z m 1.393,-2.899 c -0.206,-0.48 -0.534,-0.864 -0.98,-1.151 -0.474,-0.3 -1.026,-0.45 -1.66,-0.45 -0.96,0 -1.708,0.327 -2.245,0.98 -0.536,0.653 -0.805,1.577 -0.805,2.77 0,1.06 0.22,1.917 0.659,2.57 0.528,0.787 1.324,1.18 2.39,1.18 1.899,0 2.85,-1.25 2.85,-3.75 0,-0.374 -0.007,-0.624 -0.021,-0.75 l -4.208,0 c 0.06,-0.433 0.203,-0.784 0.43,-1.05 0.254,-0.3 0.57,-0.45 0.95,-0.45 0.606,0 1.03,0.347 1.27,1.041 l 1.37,-0.94 z"
             style="fill:#ffffff;fill-opacity:1;fill-rule:nonzero;stroke:none"
             id="path12552" />
        </g>
      </g>
    </g>
  </g>
</svg>
