<?xml version="1.0" encoding="UTF-8" standalone="no"?>
<!-- Created with Inkscape (http://www.inkscape.org/) -->

<svg
   xmlns:dc="http://purl.org/dc/elements/1.1/"
   xmlns:cc="http://creativecommons.org/ns#"
   xmlns:rdf="http://www.w3.org/1999/02/22-rdf-syntax-ns#"
   xmlns:svg="http://www.w3.org/2000/svg"
   xmlns="http://www.w3.org/2000/svg"
   xmlns:sodipodi="http://sodipodi.sourceforge.net/DTD/sodipodi-0.dtd"
   xmlns:inkscape="http://www.inkscape.org/namespaces/inkscape"
   width="135.89626"
   height="36.6175"
   id="svg11367"
   version="1.1"
   inkscape:version="0.48.2 r9819"
   sodipodi:docname="New document 114">
  <defs
     id="defs11369">
    <clipPath
       clipPathUnits="userSpaceOnUse"
       id="clipPath9900">
      <path
         inkscape:connector-curvature="0"
         d="m 63.125,401.382 513.652,0 0,336.868 -513.652,0 0,-336.868 z"
         id="path9902" />
    </clipPath>
    <clipPath
       clipPathUnits="userSpaceOnUse"
       id="clipPath9888">
      <path
         inkscape:connector-curvature="0"
         d="m 67.562,407.792 504.778,0 0,324.048 -504.778,0 0,-324.048 z"
         id="path9890" />
    </clipPath>
    <clipPath
       clipPathUnits="userSpaceOnUse"
       id="clipPath9876">
      <path
         inkscape:connector-curvature="0"
         d="m 63.125,401.382 513.652,0 0,336.868 -513.652,0 0,-336.868 z"
         id="path9878" />
    </clipPath>
  </defs>
  <sodipodi:namedview
     id="base"
     pagecolor="#ffffff"
     bordercolor="#666666"
     borderopacity="1.0"
     inkscape:pageopacity="0.0"
     inkscape:pageshadow="2"
     inkscape:zoom="0.35"
     inkscape:cx="148.66241"
     inkscape:cy="-50.262708"
     inkscape:document-units="px"
     inkscape:current-layer="layer1"
     showgrid="false"
     fit-margin-top="0"
     fit-margin-left="0"
     fit-margin-right="0"
     fit-margin-bottom="0"
     inkscape:window-width="469"
     inkscape:window-height="425"
     inkscape:window-x="1441"
     inkscape:window-y="75"
     inkscape:window-maximized="0" />
  <metadata
     id="metadata11372">
    <rdf:RDF>
      <cc:Work
         rdf:about="">
        <dc:format>image/svg+xml</dc:format>
        <dc:type
           rdf:resource="http://purl.org/dc/dcmitype/StillImage" />
        <dc:title></dc:title>
      </cc:Work>
    </rdf:RDF>
  </metadata>
  <g
     inkscape:label="Layer 1"
     inkscape:groupmode="layer"
     id="layer1"
     transform="translate(-226.33759,-445.48198)">
    <g
       transform="matrix(1.25,0,0,-1.25,141.88459,1142.3966)"
       id="g9872">
      <g
         id="g9874"
         clip-path="url(#clipPath9876)">
        <g
           id="g9880"
           transform="translate(72.5684,557.2817)">
          <path
             inkscape:connector-curvature="0"
             d="m 0,0 98.705,0 c 2.621,0 4.756,-2.136 4.756,-4.755 l 0,-19.283 c 0,-2.619 -2.135,-4.756 -4.756,-4.756 l -98.705,0 c -2.619,0 -4.756,2.137 -4.756,4.756 l 0,19.283 C -4.756,-2.168 -2.588,0 0,0"
             style="fill:#ffffff;fill-opacity:1;fill-rule:nonzero;stroke:none"
             id="path9882" />
        </g>
      </g>
    </g>
    <g
       transform="matrix(1.25,0,0,-1.25,141.88459,1142.3966)"
       id="g9884">
      <g
         id="g9886"
         clip-path="url(#clipPath9888)">
        <g
           id="g9892"
           transform="translate(72.5684,557.2817)">
          <path
             inkscape:connector-curvature="0"
             d="m 0,0 98.705,0 c 2.621,0 4.756,-2.136 4.756,-4.755 l 0,-19.283 c 0,-2.619 -2.135,-4.756 -4.756,-4.756 l -98.705,0 c -2.619,0 -4.756,2.137 -4.756,4.756 l 0,19.283 C -4.756,-2.168 -2.588,0 0,0"
             style="fill:none;stroke:#231f20;stroke-width:0.5;stroke-linecap:butt;stroke-linejoin:miter;stroke-miterlimit:4;stroke-opacity:1;stroke-dasharray:none"
             id="path9894" />
        </g>
      </g>
    </g>
    <g
       transform="matrix(1.25,0,0,-1.25,141.88459,1142.3966)"
       id="g9896">
      <g
         id="g9898"
         clip-path="url(#clipPath9900)">
        <g
           id="g9904"
           transform="translate(171.2485,555.2427)">
          <path
             inkscape:connector-curvature="0"
             d="M 0,0 C 1.527,-0.037 2.707,-1.213 2.742,-2.742 L 2.74,-22.139 C 2.625,-23.573 1.457,-24.717 0,-24.716 l -98.821,0.004 c -1.431,0.112 -2.58,1.282 -2.576,2.739 l 0.004,19.397 c 0.111,1.434 1.281,2.578 2.738,2.576 L 0,0"
             style="fill:#00674c;fill-opacity:1;fill-rule:evenodd;stroke:none"
             id="path9906" />
        </g>
        <g
           id="g9908"
           transform="translate(82.2256,538.8957)">
          <path
             inkscape:connector-curvature="0"
             d="M 0,0 -6.311,4.244 0,8.496 C 0.279,8.683 0.659,8.612 0.849,8.336 0.975,8.15 0.952,7.96 0.894,7.732 L 0.338,5.89 l 6.888,0 0,-3.287 -6.888,0 0.543,-1.812 C 0.951,0.54 0.98,0.355 0.849,0.162 0.659,-0.114 0.279,-0.186 0,0"
             style="fill:#ffffff;fill-opacity:1;fill-rule:evenodd;stroke:none"
             id="path9910" />
        </g>
        <g
           id="g9912"
           transform="translate(113.5703,540.2297)">
          <path
             inkscape:connector-curvature="0"
             d="m 0,0 c 0,-0.703 -0.408,-1.056 -1.19,-1.056 l -2.313,0 0,2.495 1.939,0 c 0.34,0 0.442,0 0.646,-0.063 C -0.374,1.183 0,0.607 0,0 m 1.564,0.032 c 0,0.991 -0.578,1.76 -1.598,2.208 0.919,0.48 1.361,1.152 1.361,2.048 0,1.311 -1.157,2.303 -2.687,2.303 l -3.673,0 0,-9.119 3.673,0 c 0.442,0 1.02,0.096 1.36,0.224 0.919,0.352 1.564,1.344 1.564,2.336 M -0.204,4.224 C -0.204,3.808 -0.408,3.423 -0.748,3.168 -1.02,2.976 -1.224,2.912 -1.666,2.912 l -1.837,0 0,2.24 2.245,0 c 0.68,0 1.054,-0.32 1.054,-0.928"
             style="fill:#ffffff;fill-opacity:1;fill-rule:nonzero;stroke:none"
             id="path9914" />
        </g>
        <g
           id="g9916"
           transform="translate(120.6787,537.7017)">
          <path
             inkscape:connector-curvature="0"
             d="M 0,0 0,0.224 C -1.871,-0.8 -4.184,0.032 -4.184,2.08 l 0,4.576 1.531,0 0,-4.416 c 0,-0.865 0.612,-1.056 1.428,-1.056 0.613,0.031 1.191,0.288 1.191,1.056 l 0,4.416 1.53,0 L 1.496,0 0,0 z"
             style="fill:#ffffff;fill-opacity:1;fill-rule:nonzero;stroke:none"
             id="path9918" />
        </g>
        <g
           id="g9920"
           transform="translate(126.0176,543.0457)">
          <path
             inkscape:connector-curvature="0"
             d="m 0,0 0,-5.344 -1.564,0 0,5.344 -0.918,0 0,1.312 0.918,0 0,1.152 c 0,0.672 0.306,1.472 1.394,1.472 0.477,0 0.714,-0.065 1.19,-0.161 l 0,-1.248 C 0.681,2.592 0,2.848 0,2.272 l 0,-0.96 1.02,0 L 1.02,0 0,0 z"
             style="fill:#ffffff;fill-opacity:1;fill-rule:nonzero;stroke:none"
             id="path9922" />
        </g>
        <g
           id="g9924"
           transform="translate(130.0986,543.0457)">
          <path
             inkscape:connector-curvature="0"
             d="m 0,0 0,-5.344 -1.564,0 0,5.344 -0.918,0 0,1.312 0.918,0 0,1.152 c 0,0.672 0.306,1.472 1.394,1.472 0.477,0 0.715,-0.065 1.19,-0.161 l 0,-1.248 C 0.681,2.592 0,2.848 0,2.272 l 0,-0.96 1.02,0 L 1.02,0 0,0 z"
             style="fill:#ffffff;fill-opacity:1;fill-rule:nonzero;stroke:none"
             id="path9926" />
        </g>
        <g
           id="g9928"
           transform="translate(137.3428,537.7017)">
          <path
             inkscape:connector-curvature="0"
             d="M 0,0 0,4.448 C 0,7.039 -3.299,7.392 -5.067,6.047 L -4.625,4.64 c 0.204,0.288 0.986,0.96 1.973,0.832 1.088,-0.097 1.054,-1.152 1.054,-1.152 -1.565,0.608 -3.945,-0.064 -3.945,-1.953 0,-1.599 1.224,-2.463 2.652,-2.463 0.544,0 1.157,0.096 1.395,0.288 L -1.496,0 0,0 z m -1.564,1.472 c -0.579,-0.288 -2.449,-0.769 -2.449,0.864 0,1.344 1.803,0.959 2.449,0.672 l 0,-1.536 z"
             style="fill:#ffffff;fill-opacity:1;fill-rule:nonzero;stroke:none"
             id="path9930" />
        </g>
        <g
           id="g9932"
           transform="translate(139.1455,537.7017)">
          <path
             inkscape:connector-curvature="0"
             d="M 0,0 0,8.575 1.565,9.28 1.565,0 0,0 z"
             style="fill:#ffffff;fill-opacity:1;fill-rule:nonzero;stroke:none"
             id="path9934" />
        </g>
        <g
           id="g9936"
           transform="translate(148.125,541.0617)">
          <path
             inkscape:connector-curvature="0"
             d="m 0,0 c 0,1.599 -0.511,3.456 -2.925,3.456 -2.449,0 -2.959,-1.984 -2.959,-3.456 0,-1.729 0.51,-3.489 2.959,-3.489 C -0.511,-3.489 0,-1.6 0,0 m -1.564,0 c 0,-0.672 -0.17,-2.176 -1.361,-2.176 -1.19,0 -1.394,1.472 -1.394,2.144 0,0.672 0.204,2.144 1.394,2.144 1.156,0 1.361,-1.472 1.361,-2.112"
             style="fill:#ffffff;fill-opacity:1;fill-rule:nonzero;stroke:none"
             id="path9938" />
        </g>
        <g
           id="g9940"
           transform="translate(156.7285,537.7017)">
          <path
             inkscape:connector-curvature="0"
             d="m 0,0 0,7.392 -0.884,0 0,1.151 0.102,0 c 0.408,0 0.85,0.225 1.123,0.576 l 1.224,0 L 1.565,0 0,0 z"
             style="fill:#ffffff;fill-opacity:1;fill-rule:nonzero;stroke:none"
             id="path9942" />
        </g>
        <g
           id="g9944"
           transform="translate(166.8975,539.9737)">
          <path
             inkscape:connector-curvature="0"
             d="m 0,0 0,1.312 -0.918,0 0,5.535 -1.53,0 -4.796,-5.984 0,-0.863 4.796,0 0,-2.272 1.53,0 0,2.272 L 0,0 z m -2.448,1.312 -2.755,0 2.755,3.424 0,-3.424 z"
             style="fill:#ffffff;fill-opacity:1;fill-rule:nonzero;stroke:none"
             id="path9946" />
        </g>
      </g>
    </g>
  </g>
</svg>
