<?xml version="1.0" encoding="UTF-8" standalone="no"?>
<!-- Created with Inkscape (http://www.inkscape.org/) -->

<svg
   xmlns:dc="http://purl.org/dc/elements/1.1/"
   xmlns:cc="http://creativecommons.org/ns#"
   xmlns:rdf="http://www.w3.org/1999/02/22-rdf-syntax-ns#"
   xmlns:svg="http://www.w3.org/2000/svg"
   xmlns="http://www.w3.org/2000/svg"
   xmlns:sodipodi="http://sodipodi.sourceforge.net/DTD/sodipodi-0.dtd"
   xmlns:inkscape="http://www.inkscape.org/namespaces/inkscape"
   width="150.39062"
   height="72.617188"
   id="svg13545"
   version="1.1"
   inkscape:version="0.48.2 r9819"
   sodipodi:docname="New document 132">
  <defs
     id="defs13547">
    <clipPath
       clipPathUnits="userSpaceOnUse"
       id="clipPath12562">
      <path
         inkscape:connector-curvature="0"
         d="m 27,426.649 513,0 0,312.601 -513,0 0,-312.601 z"
         id="path12564" />
    </clipPath>
  </defs>
  <sodipodi:namedview
     id="base"
     pagecolor="#ffffff"
     bordercolor="#666666"
     borderopacity="1.0"
     inkscape:pageopacity="0.0"
     inkscape:pageshadow="2"
     inkscape:zoom="0.35"
     inkscape:cx="55.913036"
     inkscape:cy="7.7410674"
     inkscape:document-units="px"
     inkscape:current-layer="layer1"
     showgrid="false"
     fit-margin-top="0"
     fit-margin-left="0"
     fit-margin-right="0"
     fit-margin-bottom="0"
     inkscape:window-width="469"
     inkscape:window-height="425"
     inkscape:window-x="1391"
     inkscape:window-y="25"
     inkscape:window-maximized="0" />
  <metadata
     id="metadata13550">
    <rdf:RDF>
      <cc:Work
         rdf:about="">
        <dc:format>image/svg+xml</dc:format>
        <dc:type
           rdf:resource="http://purl.org/dc/dcmitype/StillImage" />
        <dc:title></dc:title>
      </cc:Work>
    </rdf:RDF>
  </metadata>
  <g
     inkscape:label="Layer 1"
     inkscape:groupmode="layer"
     id="layer1"
     transform="translate(-319.08696,-467.48606)">
    <g
       transform="matrix(1.25,0,0,-1.25,-51.720036,1322.6315)"
       id="g12558">
      <g
         id="g12560"
         clip-path="url(#clipPath12562)">
        <g
           id="g12566"
           transform="translate(414.0182,632.7176)">
          <path
             inkscape:connector-curvature="0"
             d="m 0,0 c 0,-2.209 -1.791,-4 -4,-4 l -106.428,0 c -2.209,0 -4,1.791 -4,4 l 0,44.707 c 0,2.209 1.791,4 4,4 l 106.428,0 c 2.209,0 4,-1.791 4,-4 L 0,0 z"
             style="fill:#00674c;fill-opacity:1;fill-rule:evenodd;stroke:none"
             id="path12568" />
        </g>
        <path
           inkscape:connector-curvature="0"
           d="m 415.934,653.849 -117.67,0 0,2.4 117.67,0 0,-2.4 z"
           style="fill:#ffffff;fill-opacity:1;fill-rule:nonzero;stroke:none"
           id="path12570" />
        <g
           id="g12572"
           transform="translate(317.5031,644.8468)">
          <path
             inkscape:connector-curvature="0"
             d="m 0,0 -2.301,0 0,-8.398 -1.602,0 0,8.398 -2.297,0 0,1.602 6.2,0 L 0,0 z"
             style="fill:#ffffff;fill-opacity:1;fill-rule:nonzero;stroke:none"
             id="path12574" />
        </g>
        <g
           id="g12576"
           transform="translate(324.4381,643.7452)">
          <path
             inkscape:connector-curvature="0"
             d="M 0,0 1.852,-4.867 3.231,0 l 1.64,0 -2.06,-7.297 -1.731,0 -1.859,4.86 -1.86,-4.86 -1.73,0 L -6.43,0 -4.789,0 -3.41,-4.867 -1.559,0 0,0 z"
             style="fill:#ffffff;fill-opacity:1;fill-rule:nonzero;stroke:none"
             id="path12578" />
        </g>
        <path
           inkscape:connector-curvature="0"
           d="m 332.1,636.449 -1.594,0 0,7.3 1.594,0 0,-7.3 z m -0.797,8.398 c -0.234,0 -0.435,0.084 -0.601,0.251 -0.168,0.167 -0.25,0.367 -0.25,0.6 0,0.235 0.082,0.435 0.25,0.602 0.166,0.167 0.367,0.25 0.601,0.25 0.233,0 0.434,-0.083 0.6,-0.25 0.168,-0.167 0.252,-0.367 0.252,-0.602 0,-0.233 -0.084,-0.433 -0.252,-0.6 -0.166,-0.167 -0.367,-0.251 -0.6,-0.251"
           style="fill:#ffffff;fill-opacity:1;fill-rule:nonzero;stroke:none"
           id="path12580" />
        <g
           id="g12582"
           transform="translate(340.0042,636.4486)">
          <path
             inkscape:connector-curvature="0"
             d="m 0,0 -1.601,0 0,4.699 c 0,0.413 -0.15,0.726 -0.449,0.939 -0.246,0.174 -0.549,0.26 -0.909,0.26 -0.347,0 -0.642,-0.09 -0.888,-0.269 -0.301,-0.22 -0.449,-0.53 -0.449,-0.93 l 0,-4.699 -1.602,0 0,7.3 1.602,0 0,-0.29 c 0.445,0.259 0.988,0.388 1.628,0.388 0.706,0 1.313,-0.196 1.819,-0.59 C -0.283,6.369 0,5.765 0,5 L 0,0 z"
             style="fill:#ffffff;fill-opacity:1;fill-rule:nonzero;stroke:none"
             id="path12584" />
        </g>
        <g
           id="g12586"
           transform="translate(349.1001,636.4486)">
          <path
             inkscape:connector-curvature="0"
             d="m 0,0 0,10 6.201,0 0,-1.602 -4.599,0 0,-2.398 2.998,0 0,-1.602 -2.998,0 L 1.602,0 0,0 z"
             style="fill:#ffffff;fill-opacity:1;fill-rule:nonzero;stroke:none"
             id="path12588" />
        </g>
        <g
           id="g12590"
           transform="translate(360.2151,638.1656)">
          <path
             inkscape:connector-curvature="0"
             d="m 0,0 0,1.441 c -0.627,0.207 -1.179,0.311 -1.66,0.311 -0.56,0 -0.84,-0.371 -0.84,-1.112 0,-0.774 0.34,-1.162 1.02,-1.162 0.473,0 0.967,0.174 1.48,0.522 m 1.602,-1.717 -1.602,0 0,0.301 c -0.339,-0.268 -0.894,-0.403 -1.662,-0.403 -0.726,0 -1.322,0.254 -1.789,0.76 -0.433,0.474 -0.65,1.04 -0.65,1.7 0,0.673 0.207,1.246 0.619,1.72 0.453,0.526 1.061,0.789 1.82,0.789 0.649,0 1.201,-0.143 1.662,-0.427 l 0,0.34 c 0,0.353 -0.144,0.632 -0.431,0.839 -0.266,0.186 -0.614,0.279 -1.039,0.279 -0.621,0 -1.192,-0.303 -1.711,-0.908 l -0.43,1.439 c 0.74,0.647 1.49,0.969 2.25,0.969 0.774,0 1.469,-0.256 2.082,-0.769 0.586,-0.487 0.881,-1.013 0.881,-1.58 l 0,-5.049 z"
             style="fill:#ffffff;fill-opacity:1;fill-rule:nonzero;stroke:none"
             id="path12592" />
        </g>
        <g
           id="g12594"
           transform="translate(365.3071,636.4486)">
          <path
             inkscape:connector-curvature="0"
             d="m 0,0 -1.601,0 0,9.242 L 0,10.101 0,0 z"
             style="fill:#ffffff;fill-opacity:1;fill-rule:nonzero;stroke:none"
             id="path12596" />
        </g>
        <g
           id="g12598"
           transform="translate(368.9071,636.4486)">
          <path
             inkscape:connector-curvature="0"
             d="m 0,0 -1.602,0 0,9.242 L 0,10.101 0,0 z"
             style="fill:#ffffff;fill-opacity:1;fill-rule:nonzero;stroke:none"
             id="path12600" />
        </g>
        <g
           id="g12602"
           transform="translate(375.0061,638.4506)">
          <path
             inkscape:connector-curvature="0"
             d="m 0,0 c 0,-0.547 -0.181,-1.016 -0.541,-1.409 -0.447,-0.474 -1.093,-0.71 -1.941,-0.71 -1,0 -1.74,0.376 -2.221,1.128 l 1.17,0.989 c 0.268,-0.396 0.617,-0.594 1.051,-0.594 0.586,0 0.881,0.184 0.881,0.55 0,0.305 -0.24,0.642 -0.721,1.009 -0.441,0.333 -0.885,0.666 -1.332,0.998 -0.48,0.439 -0.721,0.906 -0.721,1.398 0,0.42 0.114,0.813 0.34,1.179 0.354,0.572 0.924,0.858 1.711,0.858 0.707,0 1.397,-0.379 2.071,-1.138 l -1.139,-0.95 c -0.315,0.393 -0.623,0.588 -0.93,0.588 -0.281,0 -0.42,-0.142 -0.42,-0.429 0,-0.166 0.237,-0.42 0.711,-0.759 0.647,-0.453 1.086,-0.803 1.32,-1.05 C -0.238,1.145 0,0.592 0,0"
             style="fill:#ffffff;fill-opacity:1;fill-rule:nonzero;stroke:none"
             id="path12604" />
        </g>
        <g
           id="g12606"
           transform="translate(394.4281,643.0479)">
          <path
             inkscape:connector-curvature="0"
             d="m 0,0 -0.679,2.111 c 0,0 -0.151,0.422 0.181,0.77 0.406,0.422 0.936,0.09 0.936,0.09 L 7.383,-1.814 0.348,-6.632 c 0,0 -0.453,-0.211 -0.846,0.152 -0.318,0.301 -0.181,0.724 -0.181,0.724 l 0.687,2.154 -7.025,0 0,3.606 L 0,0 z"
             style="fill:#ffffff;fill-opacity:1;fill-rule:nonzero;stroke:none"
             id="path12608" />
        </g>
        <g
           id="g12610"
           transform="translate(345.1631,668.6729)">
          <path
             inkscape:connector-curvature="0"
             d="M 0,0 -1.049,3.051 -2.09,0 0,0 z m 3.201,-4.398 -1.692,0 -0.959,2.796 -3.21,0 -0.94,-2.796 -1.699,0 3.439,10 1.619,0 3.442,-10 z"
             style="fill:#ffffff;fill-opacity:1;fill-rule:nonzero;stroke:none"
             id="path12612" />
        </g>
        <g
           id="g12614"
           transform="translate(354.8271,670.9034)">
          <path
             inkscape:connector-curvature="0"
             d="m 0,0 c 0.599,0.513 1.289,0.769 2.068,0.769 0.707,0 1.311,-0.197 1.811,-0.589 0.572,-0.441 0.859,-1.044 0.859,-1.811 l 0,-4.998 -1.602,0 0,4.698 c 0,0.413 -0.154,0.727 -0.46,0.941 -0.239,0.173 -0.54,0.259 -0.899,0.259 -0.326,0 -0.6,-0.093 -0.818,-0.28 C 0.713,-1.225 0.59,-1.531 0.59,-1.931 l 0,-4.698 -1.602,0 0,4.698 c 0,0.8 -0.404,1.2 -1.209,1.2 -0.346,0 -0.643,-0.089 -0.889,-0.27 -0.3,-0.22 -0.449,-0.53 -0.449,-0.93 l 0,-4.698 -1.601,0 0,7.3 1.601,0 0,-0.29 C -3.114,0.64 -2.571,0.769 -1.93,0.769 -1.071,0.769 -0.428,0.513 0,0"
             style="fill:#ffffff;fill-opacity:1;fill-rule:nonzero;stroke:none"
             id="path12616" />
        </g>
        <path
           inkscape:connector-curvature="0"
           d="m 363.059,664.275 -1.594,0 0,7.3 1.594,0 0,-7.3 z m -0.797,8.398 c -0.232,0 -0.433,0.083 -0.601,0.25 -0.166,0.167 -0.25,0.367 -0.25,0.602 0,0.233 0.084,0.433 0.25,0.6 0.168,0.167 0.369,0.251 0.601,0.251 0.235,0 0.434,-0.084 0.602,-0.251 0.166,-0.167 0.25,-0.367 0.25,-0.6 0,-0.235 -0.084,-0.435 -0.25,-0.602 -0.168,-0.167 -0.367,-0.25 -0.602,-0.25"
           style="fill:#ffffff;fill-opacity:1;fill-rule:nonzero;stroke:none"
           id="path12618" />
        <g
           id="g12620"
           transform="translate(368.1671,665.8741)">
          <path
             inkscape:connector-curvature="0"
             d="m 0,0 -0.141,-1.371 c -0.406,-0.221 -0.82,-0.33 -1.24,-0.33 -0.975,0 -1.463,0.533 -1.463,1.599 l 0,4.401 -1.156,0 0,1.398 1.156,0 0,1.944 1.601,0.861 0,-2.805 1.243,0 0,-1.398 -1.243,0 0,-4.082 c 0,-0.347 0.141,-0.52 0.422,-0.52 0.266,0 0.541,0.101 0.821,0.303"
             style="fill:#ffffff;fill-opacity:1;fill-rule:nonzero;stroke:none"
             id="path12622" />
        </g>
        <g
           id="g12624"
           transform="translate(375.9611,671.5714)">
          <path
             inkscape:connector-curvature="0"
             d="m 0,0 -4.14,-10.203 -1.721,0.01 1.24,3.078 L -7.5,0 -5.781,0 -3.75,-4.997 -1.72,0 0,0 z"
             style="fill:#ffffff;fill-opacity:1;fill-rule:nonzero;stroke:none"
             id="path12626" />
        </g>
        <g
           id="g12628"
           transform="translate(324.2491,671.1339)">
          <path
             inkscape:connector-curvature="0"
             d="m 0,0 c -1.641,1.611 -4.389,1.564 -6.397,1.531 l -0.125,-0.002 0,0.266 0.598,1.877 c 0,0 0.119,0.367 -0.158,0.631 -0.342,0.316 -0.737,0.132 -0.737,0.132 l -6.127,-4.197 6.049,-4.168 c 0,0 0.461,-0.289 0.815,0.079 0.289,0.303 0.158,0.67 0.158,0.67 l -0.592,1.839 0,0.172 0.166,0.002 c 1.443,0.023 3.623,0.061 4.457,-0.758 0.174,-0.172 0.408,-0.486 0.408,-1.222 0,-0.446 -0.678,-1.345 -1.22,-2.067 -0.954,-1.267 -2.034,-2.704 -2.034,-4.408 l 0,-1.389 2.7,0 0,1.389 c 0,0.802 0.793,1.855 1.492,2.785 0.865,1.15 1.761,2.342 1.761,3.69 C 1.214,-1.854 0.806,-0.793 0,0"
             style="fill:#ffffff;fill-opacity:1;fill-rule:nonzero;stroke:none"
             id="path12630" />
        </g>
        <g
           id="g12632"
           transform="translate(416.7081,632.2726)">
          <path
             inkscape:connector-curvature="0"
             d="m 0,0 c 0,-3.315 -2.686,-6 -6,-6 l -107.807,0 c -3.313,0 -6,2.685 -6,6 l 0,45.6 c 0,3.312 2.687,6 6,6 L -6,51.6 c 3.314,0 6,-2.688 6,-6 L 0,0 z"
             style="fill:none;stroke:#231f20;stroke-width:0.5;stroke-linecap:butt;stroke-linejoin:miter;stroke-miterlimit:4;stroke-opacity:1;stroke-dasharray:none"
             id="path12634" />
        </g>
      </g>
    </g>
  </g>
</svg>
