<?xml version="1.0" encoding="UTF-8" standalone="no"?>
<!-- Created with Inkscape (http://www.inkscape.org/) -->

<svg
   xmlns:dc="http://purl.org/dc/elements/1.1/"
   xmlns:cc="http://creativecommons.org/ns#"
   xmlns:rdf="http://www.w3.org/1999/02/22-rdf-syntax-ns#"
   xmlns:svg="http://www.w3.org/2000/svg"
   xmlns="http://www.w3.org/2000/svg"
   xmlns:sodipodi="http://sodipodi.sourceforge.net/DTD/sodipodi-0.dtd"
   xmlns:inkscape="http://www.inkscape.org/namespaces/inkscape"
   width="129.78737"
   height="108.75"
   id="svg13698"
   version="1.1"
   inkscape:version="0.48.2 r9819"
   sodipodi:docname="New document 134">
  <defs
     id="defs13700">
    <clipPath
       clipPathUnits="userSpaceOnUse"
       id="clipPath12736">
      <path
         inkscape:connector-curvature="0"
         d="m 31.378,428.619 504.244,0 0,310.631 -504.244,0 0,-310.631 z"
         id="path12738" />
    </clipPath>
    <clipPath
       clipPathUnits="userSpaceOnUse"
       id="clipPath12644">
      <path
         inkscape:connector-curvature="0"
         d="m 27,426.649 513,0 0,312.601 -513,0 0,-312.601 z"
         id="path12646" />
    </clipPath>
  </defs>
  <sodipodi:namedview
     id="base"
     pagecolor="#ffffff"
     bordercolor="#666666"
     borderopacity="1.0"
     inkscape:pageopacity="0.0"
     inkscape:pageshadow="2"
     inkscape:zoom="0.35"
     inkscape:cx="117.03654"
     inkscape:cy="67.615858"
     inkscape:document-units="px"
     inkscape:current-layer="layer1"
     showgrid="false"
     fit-margin-top="0"
     fit-margin-left="0"
     fit-margin-right="0"
     fit-margin-bottom="0"
     inkscape:window-width="469"
     inkscape:window-height="425"
     inkscape:window-x="1467"
     inkscape:window-y="65"
     inkscape:window-maximized="0" />
  <metadata
     id="metadata13703">
    <rdf:RDF>
      <cc:Work
         rdf:about="">
        <dc:format>image/svg+xml</dc:format>
        <dc:type
           rdf:resource="http://purl.org/dc/dcmitype/StillImage" />
        <dc:title></dc:title>
      </cc:Work>
    </rdf:RDF>
  </metadata>
  <g
     inkscape:label="Layer 1"
     inkscape:groupmode="layer"
     id="layer1"
     transform="translate(-257.96345,-460.8443)">
    <g
       transform="matrix(1.25,0,0,-1.25,-281.77667,1354.3888)"
       id="g12640">
      <g
         id="g12642"
         clip-path="url(#clipPath12644)">
        <g
           id="g12648"
           transform="translate(532.9241,634.5516)">
          <path
             inkscape:connector-curvature="0"
             d="m 0,0 c 0,-2.209 -1.791,-4 -4,-4 l -90.435,0 c -2.209,0 -4,1.791 -4,4 l 0,73.569 c 0,2.209 1.791,4 4,4 l 90.435,0 c 2.209,0 4,-1.791 4,-4 L 0,0 z"
             style="fill:#00674c;fill-opacity:1;fill-rule:evenodd;stroke:none"
             id="path12650" />
        </g>
        <path
           inkscape:connector-curvature="0"
           d="m 534.745,684.52 -101.264,0 0,2.399 101.264,0 0,-2.399 z"
           style="fill:#ffffff;fill-opacity:1;fill-rule:nonzero;stroke:none"
           id="path12652" />
        <path
           inkscape:connector-curvature="0"
           d="m 534.596,655.72 -101.115,0 0,2.4 101.115,0 0,-2.4 z"
           style="fill:#ffffff;fill-opacity:1;fill-rule:nonzero;stroke:none"
           id="path12654" />
        <g
           id="g12656"
           transform="translate(455.2891,699.3365)">
          <path
             inkscape:connector-curvature="0"
             d="m 0,0 2.109,-0.68 c 0,0 0.422,-0.151 0.77,0.182 0.421,0.407 0.089,0.936 0.089,0.936 L -1.817,7.384 -6.635,0.347 c 0,0 -0.211,-0.453 0.152,-0.845 0.301,-0.317 0.725,-0.182 0.725,-0.182 l 2.154,0.689 0,-7.026 3.606,0 L 0,0 z"
             style="fill:#ffffff;fill-opacity:1;fill-rule:nonzero;stroke:none"
             id="path12658" />
        </g>
        <g
           id="g12660"
           transform="translate(516.9951,644.9195)">
          <path
             inkscape:connector-curvature="0"
             d="m 0,0 -0.68,2.11 c 0,0 -0.152,0.423 0.18,0.771 0.408,0.422 0.937,0.09 0.937,0.09 L 7.383,-1.815 0.345,-6.633 c 0,0 -0.453,-0.211 -0.845,0.151 -0.317,0.302 -0.18,0.725 -0.18,0.725 l 0.688,2.155 -7.026,0 0,3.605 L 0,0 z"
             style="fill:#ffffff;fill-opacity:1;fill-rule:nonzero;stroke:none"
             id="path12662" />
        </g>
        <g
           id="g12664"
           transform="translate(467.7751,641.3199)">
          <path
             inkscape:connector-curvature="0"
             d="m 0,0 c 0,0.434 -0.15,0.779 -0.45,1.039 -0.274,0.24 -0.59,0.359 -0.95,0.359 l -2.202,0 0,-2.796 2.202,0 C -0.467,-1.398 0,-0.932 0,0 m -0.203,4.219 c 0,0.414 -0.147,0.722 -0.44,0.929 -0.233,0.167 -0.52,0.25 -0.86,0.25 l -2.099,0 0,-2.398 2.219,0 c 0.267,0 0.514,0.086 0.74,0.26 0.293,0.233 0.44,0.553 0.44,0.959 m -5,-2.299 0.002,0.01 0.002,-0.01 c 0,-0.006 0,-0.01 -0.002,-0.01 L -5.203,1.92 z M 1.602,0 C 1.602,-0.853 1.318,-1.566 0.751,-2.14 0.184,-2.713 -0.533,-3 -1.4,-3 l -3.803,0 0,10 3.741,0 C -0.642,7 0.04,6.738 0.583,6.215 1.127,5.691 1.398,5.027 1.398,4.221 1.398,3.347 0.986,2.674 0.161,2.199 1.121,1.779 1.602,1.047 1.602,0"
             style="fill:#ffffff;fill-opacity:1;fill-rule:nonzero;stroke:none"
             id="path12666" />
        </g>
        <g
           id="g12668"
           transform="translate(470.7831,645.6168)">
          <path
             inkscape:connector-curvature="0"
             d="m 0,0 1.601,0 0,-4.699 c 0,-0.412 0.154,-0.727 0.459,-0.94 0.24,-0.174 0.539,-0.259 0.899,-0.259 0.346,0 0.642,0.089 0.888,0.269 0.3,0.221 0.45,0.53 0.45,0.93 l 0,4.699 1.601,0 0,-7.297 -1.601,0 0,0.29 c -0.447,-0.26 -0.99,-0.391 -1.629,-0.391 -0.706,0 -1.313,0.193 -1.819,0.58 C 0.283,-6.372 0,-5.766 0,-4.999 L 0,0 z"
             style="fill:#ffffff;fill-opacity:1;fill-rule:nonzero;stroke:none"
             id="path12670" />
        </g>
        <g
           id="g12672"
           transform="translate(482.4761,645.4185)">
          <path
             inkscape:connector-curvature="0"
             d="m 0,0 -0.24,-1.599 c 0,0.034 -0.09,0.104 -0.27,0.209 -0.213,0.127 -0.423,0.19 -0.629,0.19 -0.707,0 -1.06,-0.397 -1.06,-1.19 l 0,-4.709 -1.601,0 0,7.301 1.601,0 0,-0.47 C -1.906,0.11 -1.476,0.3 -0.91,0.3 -0.736,0.3 -0.433,0.2 0,0"
             style="fill:#ffffff;fill-opacity:1;fill-rule:nonzero;stroke:none"
             id="path12674" />
        </g>
        <g
           id="g12676"
           transform="translate(489.5742,638.3196)">
          <path
             inkscape:connector-curvature="0"
             d="m 0,0 -1.602,0 0,4.7 c 0,0.412 -0.148,0.726 -0.449,0.939 -0.246,0.174 -0.549,0.26 -0.908,0.26 -0.346,0 -0.643,-0.09 -0.889,-0.27 C -4.147,5.409 -4.297,5.099 -4.297,4.7 l 0,-4.7 -1.602,0 0,7.301 1.602,0 0,-0.291 c 0.447,0.26 0.99,0.389 1.629,0.389 0.707,0 1.312,-0.197 1.818,-0.59 C -0.283,6.37 0,5.766 0,4.999 L 0,0 z"
             style="fill:#ffffff;fill-opacity:1;fill-rule:nonzero;stroke:none"
             id="path12678" />
        </g>
        <g
           id="g12680"
           transform="translate(495.5782,640.3219)">
          <path
             inkscape:connector-curvature="0"
             d="m 0,0 c 0,-0.547 -0.182,-1.017 -0.541,-1.41 -0.448,-0.473 -1.094,-0.709 -1.942,-0.709 -1,0 -1.74,0.376 -2.22,1.129 l 1.17,0.988 c 0.267,-0.396 0.617,-0.594 1.05,-0.594 0.586,0 0.881,0.184 0.881,0.549 0,0.307 -0.24,0.643 -0.721,1.01 -0.441,0.332 -0.884,0.665 -1.332,0.998 -0.48,0.439 -0.72,0.906 -0.72,1.398 0,0.42 0.113,0.813 0.34,1.178 0.353,0.572 0.923,0.859 1.71,0.859 0.708,0 1.397,-0.379 2.071,-1.138 L -1.393,3.309 c -0.314,0.391 -0.623,0.587 -0.93,0.587 -0.281,0 -0.419,-0.142 -0.419,-0.429 0,-0.166 0.236,-0.42 0.71,-0.76 C -1.385,2.254 -0.946,1.904 -0.711,1.658 -0.239,1.145 0,0.592 0,0"
             style="fill:#ffffff;fill-opacity:1;fill-rule:nonzero;stroke:none"
             id="path12682" />
        </g>
        <g
           id="g12684"
           transform="translate(474.2682,669.7457)">
          <path
             inkscape:connector-curvature="0"
             d="m 0,0 c 0,0.433 -0.15,0.778 -0.45,1.038 -0.273,0.24 -0.59,0.36 -0.95,0.36 l -2.201,0 0,-2.796 2.201,0 C -0.467,-1.398 0,-0.933 0,0 m -0.203,4.22 c 0,0.412 -0.146,0.722 -0.439,0.928 -0.234,0.167 -0.521,0.25 -0.861,0.25 l -2.098,0 0,-2.398 2.218,0 c 0.267,0 0.514,0.087 0.741,0.26 0.293,0.233 0.439,0.553 0.439,0.96 m -5,-2.3 0.002,0.01 0.002,-0.01 c 0,-0.007 0,-0.01 -0.002,-0.01 L -5.203,1.92 z M 1.602,0 C 1.602,-0.854 1.318,-1.567 0.751,-2.14 0.184,-2.714 -0.533,-3 -1.4,-3 l -3.803,0 0,10 3.741,0 C -0.641,7 0.04,6.738 0.583,6.215 1.127,5.692 1.399,5.026 1.399,4.22 1.399,3.347 0.986,2.673 0.161,2.2 1.121,1.78 1.602,1.046 1.602,0"
             style="fill:#ffffff;fill-opacity:1;fill-rule:nonzero;stroke:none"
             id="path12686" />
        </g>
        <g
           id="g12688"
           transform="translate(481.2682,671.1441)">
          <path
             inkscape:connector-curvature="0"
             d="M 0,0 C 0,0.44 -0.111,0.8 -0.335,1.08 -0.557,1.36 -0.862,1.5 -1.249,1.5 -1.614,1.5 -1.928,1.352 -2.187,1.056 -2.447,0.759 -2.594,0.407 -2.627,0 L 0,0 z M 1.394,-2.899 C 1.187,-3.38 0.86,-3.763 0.413,-4.05 -0.06,-4.351 -0.613,-4.5 -1.247,-4.5 c -0.96,0 -1.708,0.327 -2.245,0.979 -0.536,0.655 -0.805,1.578 -0.805,2.771 0,1.06 0.22,1.917 0.66,2.569 C -3.11,2.607 -2.314,3 -1.248,3 c 1.9,0 2.85,-1.25 2.85,-3.75 0,-0.374 -0.007,-0.624 -0.021,-0.75 l -4.208,0 c 0.06,-0.433 0.203,-0.784 0.431,-1.05 0.253,-0.301 0.569,-0.45 0.949,-0.45 0.607,0 1.03,0.347 1.271,1.042 l 1.37,-0.941 z"
             style="fill:#ffffff;fill-opacity:1;fill-rule:nonzero;stroke:none"
             id="path12690" />
        </g>
        <g
           id="g12692"
           transform="translate(490.1682,666.7457)">
          <path
             inkscape:connector-curvature="0"
             d="m 0,0 -1.602,0 0,4.698 c 0,0.414 -0.149,0.727 -0.449,0.941 -0.246,0.172 -0.549,0.259 -0.908,0.259 -0.347,0 -0.643,-0.089 -0.889,-0.27 -0.3,-0.219 -0.449,-0.529 -0.449,-0.93 l 0,-4.698 -1.602,0 0,7.3 1.602,0 0,-0.289 c 0.446,0.257 0.989,0.387 1.629,0.387 0.706,0 1.312,-0.196 1.818,-0.589 C -0.284,6.368 0,5.765 0,4.999 L 0,0 z"
             style="fill:#ffffff;fill-opacity:1;fill-rule:nonzero;stroke:none"
             id="path12694" />
        </g>
        <g
           id="g12696"
           transform="translate(496.0771,668.7115)">
          <path
             inkscape:connector-curvature="0"
             d="m 0,0 0,3.234 c -0.234,0.465 -0.716,0.699 -1.449,0.699 -0.439,0 -0.779,-0.224 -1.019,-0.669 -0.219,-0.4 -0.329,-0.926 -0.329,-1.577 0,-1.497 0.449,-2.247 1.348,-2.247 0.667,0 1.149,0.187 1.449,0.56 m 1.601,-1.966 -1.601,0 0,0.239 c -0.493,-0.237 -0.977,-0.356 -1.449,-0.356 -1.966,0 -2.95,1.256 -2.95,3.769 0,2.498 0.984,3.747 2.95,3.747 0.499,0 0.982,-0.157 1.449,-0.468 l 0,2.31 1.601,0.861 0,-10.102 z"
             style="fill:#ffffff;fill-opacity:1;fill-rule:nonzero;stroke:none"
             id="path12698" />
        </g>
        <g
           id="g12700"
           transform="translate(474.1351,701.9391)">
          <path
             inkscape:connector-curvature="0"
             d="M 0,0 C 0,0.334 -0.111,0.613 -0.336,0.84 -0.558,1.066 -0.838,1.18 -1.17,1.18 l -2.298,0 0,-2.399 2.298,0 c 0.332,0 0.612,0.118 0.834,0.356 C -0.111,-0.627 0,-0.34 0,0 m 1.729,-7.219 -1.69,0 -1.609,4.399 -1.898,0 0,-4.399 -1.602,0 0,10 3.891,0 C -0.412,2.781 0.243,2.51 0.785,1.967 1.33,1.423 1.602,0.768 1.602,0.002 1.602,-1.119 1.071,-1.959 0.01,-2.52 l 1.719,-4.699 z"
             style="fill:#ffffff;fill-opacity:1;fill-rule:nonzero;stroke:none"
             id="path12702" />
        </g>
        <g
           id="g12704"
           transform="translate(481.2682,699.1187)">
          <path
             inkscape:connector-curvature="0"
             d="M 0,0 C 0,0.44 -0.111,0.8 -0.336,1.08 -0.558,1.359 -0.863,1.5 -1.25,1.5 -1.615,1.5 -1.928,1.352 -2.187,1.055 -2.447,0.758 -2.594,0.406 -2.627,0 L 0,0 z M 1.393,-2.898 C 1.186,-3.379 0.86,-3.764 0.412,-4.05 -0.06,-4.35 -0.613,-4.5 -1.248,-4.5 c -0.959,0 -1.707,0.326 -2.244,0.981 -0.537,0.652 -0.805,1.576 -0.805,2.769 0,1.061 0.219,1.916 0.66,2.57 0.526,0.787 1.323,1.18 2.389,1.18 1.899,0 2.85,-1.25 2.85,-3.75 0,-0.373 -0.008,-0.623 -0.022,-0.75 l -4.207,0 c 0.059,-0.434 0.203,-0.783 0.43,-1.051 C -1.943,-2.85 -1.627,-3 -1.248,-3 c 0.608,0 1.031,0.348 1.272,1.041 l 1.369,-0.939 z"
             style="fill:#ffffff;fill-opacity:1;fill-rule:nonzero;stroke:none"
             id="path12706" />
        </g>
        <g
           id="g12708"
           transform="translate(488.2761,696.6851)">
          <path
             inkscape:connector-curvature="0"
             d="m 0,0 0,3.234 c -0.232,0.467 -0.715,0.7 -1.447,0.7 -0.44,0 -0.78,-0.223 -1.02,-0.669 -0.221,-0.4 -0.33,-0.925 -0.33,-1.577 0,-1.498 0.449,-2.247 1.35,-2.247 0.666,0 1.148,0.186 1.447,0.559 m 1.602,-1.965 -1.602,0 0,0.24 c -0.492,-0.238 -0.977,-0.357 -1.449,-0.357 -1.967,0 -2.949,1.256 -2.949,3.768 0,2.498 0.982,3.748 2.949,3.748 0.5,0 0.982,-0.157 1.449,-0.469 l 0,2.311 1.602,0.861 0,-10.102 z"
             style="fill:#ffffff;fill-opacity:1;fill-rule:nonzero;stroke:none"
             id="path12710" />
        </g>
        <g
           id="g12712"
           transform="translate(497.0302,701.3502)">
          <path
             inkscape:connector-curvature="0"
             d="m 0,0 c 0.599,0.513 1.289,0.768 2.068,0.768 0.707,0 1.311,-0.197 1.811,-0.589 0.572,-0.44 0.859,-1.043 0.859,-1.81 l 0,-4.999 -1.601,0 0,4.699 c 0,0.412 -0.155,0.727 -0.461,0.94 -0.239,0.174 -0.539,0.259 -0.899,0.259 -0.326,0 -0.599,-0.093 -0.818,-0.279 C 0.713,-1.225 0.59,-1.531 0.59,-1.931 l 0,-4.699 -1.602,0 0,4.699 c 0,0.799 -0.404,1.199 -1.209,1.199 -0.346,0 -0.642,-0.089 -0.889,-0.269 -0.3,-0.221 -0.449,-0.53 -0.449,-0.93 l 0,-4.699 -1.601,0 0,7.301 1.601,0 0,-0.291 C -3.113,0.64 -2.57,0.768 -1.93,0.768 -1.07,0.768 -0.428,0.513 0,0"
             style="fill:#ffffff;fill-opacity:1;fill-rule:nonzero;stroke:none"
             id="path12714" />
        </g>
        <g
           id="g12716"
           transform="translate(507.7701,698.3687)">
          <path
             inkscape:connector-curvature="0"
             d="M 0,0 C 0,0.62 -0.105,1.13 -0.32,1.529 -0.572,2.01 -0.949,2.25 -1.449,2.25 -1.928,2.25 -2.295,2.029 -2.549,1.59 -2.781,1.19 -2.898,0.66 -2.898,0 c 0,-0.62 0.107,-1.131 0.32,-1.529 0.254,-0.481 0.629,-0.721 1.129,-0.721 0.5,0 0.877,0.24 1.129,0.721 C -0.105,-1.131 0,-0.62 0,0 m 1.602,0 c 0,-1.086 -0.231,-1.96 -0.69,-2.62 -0.533,-0.753 -1.32,-1.13 -2.361,-1.13 -0.959,0 -1.709,0.326 -2.246,0.981 C -4.23,-2.117 -4.5,-1.193 -4.5,0 c 0,1.061 0.221,1.916 0.66,2.57 0.528,0.787 1.324,1.18 2.391,1.18 1.055,0 1.848,-0.391 2.381,-1.17 C 1.379,1.92 1.602,1.061 1.602,0"
             style="fill:#ffffff;fill-opacity:1;fill-rule:nonzero;stroke:none"
             id="path12718" />
        </g>
        <g
           id="g12720"
           transform="translate(516.8682,694.7203)">
          <path
             inkscape:connector-curvature="0"
             d="m 0,0 -1.602,0 0,4.699 c 0,0.412 -0.15,0.727 -0.449,0.94 -0.246,0.174 -0.549,0.259 -0.908,0.259 -0.348,0 -0.643,-0.089 -0.889,-0.269 -0.301,-0.221 -0.449,-0.53 -0.449,-0.93 l 0,-4.699 -1.602,0 0,7.301 1.602,0 0,-0.291 c 0.445,0.259 0.988,0.388 1.629,0.388 0.705,0 1.312,-0.197 1.818,-0.589 C -0.283,6.369 0,5.766 0,4.999 L 0,0 z"
             style="fill:#ffffff;fill-opacity:1;fill-rule:nonzero;stroke:none"
             id="path12722" />
        </g>
        <g
           id="g12724"
           transform="translate(522.7761,696.6851)">
          <path
             inkscape:connector-curvature="0"
             d="m 0,0 0,3.234 c -0.232,0.467 -0.715,0.7 -1.447,0.7 -0.44,0 -0.78,-0.223 -1.02,-0.669 -0.221,-0.4 -0.33,-0.925 -0.33,-1.577 0,-1.498 0.449,-2.247 1.35,-2.247 0.666,0 1.148,0.186 1.447,0.559 m 1.602,-1.965 -1.602,0 0,0.24 c -0.492,-0.238 -0.977,-0.357 -1.449,-0.357 -1.967,0 -2.949,1.256 -2.949,3.768 0,2.498 0.982,3.748 2.949,3.748 0.5,0 0.982,-0.157 1.449,-0.469 l 0,2.311 1.602,0.861 0,-10.102 z"
             style="fill:#ffffff;fill-opacity:1;fill-rule:nonzero;stroke:none"
             id="path12726" />
        </g>
        <g
           id="g12728"
           transform="translate(459.3501,674.9996)">
          <path
             inkscape:connector-curvature="0"
             d="m 0,0 c -1.639,1.611 -4.387,1.564 -6.394,1.531 l -0.125,-0.002 0,0.266 0.597,1.877 c 0,0 0.119,0.367 -0.158,0.631 -0.342,0.316 -0.736,0.132 -0.736,0.132 l -6.127,-4.197 6.049,-4.168 c 0,0 0.461,-0.289 0.814,0.08 0.289,0.303 0.158,0.67 0.158,0.67 l -0.592,1.838 0,0.172 0.167,0.002 c 1.441,0.023 3.623,0.061 4.455,-0.758 0.175,-0.172 0.408,-0.486 0.408,-1.222 0,-0.446 -0.676,-1.344 -1.219,-2.067 -0.953,-1.267 -2.033,-2.703 -2.033,-4.408 l 0,-1.389 2.699,0 0,1.389 c 0,0.803 0.793,1.855 1.492,2.785 0.865,1.15 1.762,2.342 1.762,3.69 C 1.217,-1.854 0.807,-0.793 0,0"
             style="fill:#ffffff;fill-opacity:1;fill-rule:nonzero;stroke:none"
             id="path12730" />
        </g>
      </g>
    </g>
    <g
       transform="matrix(1.25,0,0,-1.25,-281.77667,1354.3888)"
       id="g12732">
      <g
         id="g12734"
         clip-path="url(#clipPath12736)">
        <g
           id="g12740"
           transform="translate(535.3721,634.0856)">
          <path
             inkscape:connector-curvature="0"
             d="m 0,0 c 0,-3.314 -2.688,-6 -6,-6 l -91.33,0 c -3.315,0 -6,2.686 -6,6 l 0,74.5 c 0,3.314 2.685,6 6,6 l 91.33,0 c 3.312,0 6,-2.686 6,-6 L 0,0 z"
             style="fill:none;stroke:#231f20;stroke-width:0.5;stroke-linecap:butt;stroke-linejoin:miter;stroke-miterlimit:4;stroke-opacity:1;stroke-dasharray:none"
             id="path12742" />
        </g>
      </g>
    </g>
  </g>
</svg>
