<?xml version="1.0" encoding="UTF-8" standalone="no"?>
<!-- Created with Inkscape (http://www.inkscape.org/) -->

<svg
   xmlns:dc="http://purl.org/dc/elements/1.1/"
   xmlns:cc="http://creativecommons.org/ns#"
   xmlns:rdf="http://www.w3.org/1999/02/22-rdf-syntax-ns#"
   xmlns:svg="http://www.w3.org/2000/svg"
   xmlns="http://www.w3.org/2000/svg"
   xmlns:sodipodi="http://sodipodi.sourceforge.net/DTD/sodipodi-0.dtd"
   xmlns:inkscape="http://www.inkscape.org/namespaces/inkscape"
   width="135.85938"
   height="89.765625"
   id="svg10892"
   version="1.1"
   inkscape:version="0.48.2 r9819"
   sodipodi:docname="New document 108">
  <defs
     id="defs10894">
    <clipPath
       clipPathUnits="userSpaceOnUse"
       id="clipPath9762">
      <path
         inkscape:connector-curvature="0"
         d="m 63.125,401.382 513.652,0 0,336.868 -513.652,0 0,-336.868 z"
         id="path9764" />
    </clipPath>
  </defs>
  <sodipodi:namedview
     id="base"
     pagecolor="#ffffff"
     bordercolor="#666666"
     borderopacity="1.0"
     inkscape:pageopacity="0.0"
     inkscape:pageshadow="2"
     inkscape:zoom="0.35"
     inkscape:cx="134.35982"
     inkscape:cy="-40.836783"
     inkscape:document-units="px"
     inkscape:current-layer="layer1"
     showgrid="false"
     fit-margin-top="0"
     fit-margin-left="0"
     fit-margin-right="0"
     fit-margin-bottom="0"
     inkscape:window-width="469"
     inkscape:window-height="425"
     inkscape:window-x="1566"
     inkscape:window-y="200"
     inkscape:window-maximized="0" />
  <metadata
     id="metadata10897">
    <rdf:RDF>
      <cc:Work
         rdf:about="">
        <dc:format>image/svg+xml</dc:format>
        <dc:type
           rdf:resource="http://purl.org/dc/dcmitype/StillImage" />
        <dc:title></dc:title>
      </cc:Work>
    </rdf:RDF>
  </metadata>
  <g
     inkscape:label="Layer 1"
     inkscape:groupmode="layer"
     id="layer1"
     transform="translate(-240.64017,-401.75978)">
    <g
       transform="matrix(1.25,0,0,-1.25,-164.70545,1288.9679)"
       id="g9758">
      <g
         id="g9760"
         clip-path="url(#clipPath9762)">
        <g
           id="g9766"
           transform="translate(329.2765,709.5165)">
          <path
             inkscape:connector-curvature="0"
             d="m 0,0 98.69,0 c 2.621,0 4.756,-2.135 4.756,-4.755 l 0,-61.811 c 0,-2.619 -2.135,-4.755 -4.756,-4.755 l -98.69,0 c -2.619,0 -4.756,2.136 -4.756,4.755 l 0,61.811 C -4.756,-2.168 -2.588,0 0,0"
             style="fill:#ffffff;fill-opacity:1;fill-rule:nonzero;stroke:#231f20;stroke-width:0.5;stroke-linecap:butt;stroke-linejoin:miter;stroke-miterlimit:4;stroke-opacity:1;stroke-dasharray:none"
             id="path9768" />
        </g>
        <g
           id="g9770"
           transform="translate(427.9405,707.4789)">
          <path
             inkscape:connector-curvature="0"
             d="M 0,0 C 1.528,-0.038 2.707,-1.214 2.743,-2.743 L 2.741,-64.669 C 2.625,-66.102 1.457,-67.247 0,-67.245 l -98.804,0.004 c -1.432,0.111 -2.58,1.281 -2.576,2.738 l 0.003,61.926 c 0.112,1.433 1.282,2.578 2.739,2.577 L 0,0"
             style="fill:#00674c;fill-opacity:1;fill-rule:evenodd;stroke:none"
             id="path9772" />
        </g>
        <g
           id="g9774"
           transform="translate(338.1045,697.037)">
          <path
             inkscape:connector-curvature="0"
             d="M 0,0 4.245,6.302 8.497,0 C 8.685,-0.278 8.613,-0.659 8.336,-0.848 8.152,-0.973 7.96,-0.95 7.732,-0.893 l -1.843,0.557 0,-6.898 -3.288,0 0,6.898 L 0.788,-0.88 C 0.538,-0.95 0.354,-0.979 0.159,-0.848 -0.117,-0.659 -0.19,-0.278 0,0"
             style="fill:#ffffff;fill-opacity:1;fill-rule:evenodd;stroke:none"
             id="path9776" />
        </g>
        <g
           id="g9778"
           transform="translate(363.3095,691.4959)">
          <path
             inkscape:connector-curvature="0"
             d="m 0,0 0,3.968 -3.538,0 0,-3.968 -1.531,0 0,9.12 1.531,0 0,-3.68 3.538,0 0,3.68 1.53,0 L 1.53,0 0,0 z"
             style="fill:#ffffff;fill-opacity:1;fill-rule:nonzero;stroke:none"
             id="path9780" />
        </g>
        <g
           id="g9782"
           transform="translate(372.4575,694.8558)">
          <path
             inkscape:connector-curvature="0"
             d="m 0,0 c 0,1.6 -0.51,3.456 -2.925,3.456 -2.449,0 -2.959,-1.984 -2.959,-3.456 0,-1.728 0.51,-3.488 2.959,-3.488 C -0.51,-3.488 0,-1.6 0,0 m -1.564,0 c 0,-0.672 -0.17,-2.176 -1.361,-2.176 -1.19,0 -1.394,1.472 -1.394,2.144 0,0.672 0.204,2.144 1.394,2.144 1.156,0 1.361,-1.472 1.361,-2.112"
             style="fill:#ffffff;fill-opacity:1;fill-rule:nonzero;stroke:none"
             id="path9784" />
        </g>
        <g
           id="g9786"
           transform="translate(377.4565,696.5838)">
          <path
             inkscape:connector-curvature="0"
             d="m 0,0 c -0.306,0.224 -0.544,0.384 -0.918,0.384 -0.885,0 -0.986,-0.48 -0.986,-1.312 l 0,-4.16 -1.565,0 0,6.656 1.565,0 0,-0.32 c 0.374,0.32 0.544,0.48 1.088,0.48 0.545,0 0.782,-0.192 1.02,-0.448 L 0,0 z"
             style="fill:#ffffff;fill-opacity:1;fill-rule:nonzero;stroke:none"
             id="path9788" />
        </g>
        <g
           id="g9790"
           transform="translate(381.6055,691.6561)">
          <path
             inkscape:connector-curvature="0"
             d="M 0,0 C -0.509,-0.224 -0.782,-0.288 -1.156,-0.288 -2.278,-0.352 -2.619,0.48 -2.619,1.44 l 0,3.712 -1.019,0 0,1.344 1.019,0 0,1.919 1.497,0.705 0,-2.624 1.225,0 0,-1.312 -1.225,0 0,-3.52 c 0,-0.448 0.068,-0.64 0.51,-0.64 0.34,0 0.511,0.096 0.817,0.32 L 0,0 z"
             style="fill:#ffffff;fill-opacity:1;fill-rule:nonzero;stroke:none"
             id="path9792" />
        </g>
        <g
           id="g9794"
           transform="translate(388.3735,694.8558)">
          <path
             inkscape:connector-curvature="0"
             d="m 0,0 c 0,1.6 -0.51,3.456 -2.925,3.456 -2.448,0 -2.959,-1.984 -2.959,-3.456 0,-1.728 0.511,-3.488 2.959,-3.488 C -0.51,-3.488 0,-1.6 0,0 m -1.564,0 c 0,-0.672 -0.17,-2.176 -1.361,-2.176 -1.19,0 -1.394,1.472 -1.394,2.144 0,0.672 0.204,2.144 1.394,2.144 1.156,0 1.361,-1.472 1.361,-2.112"
             style="fill:#ffffff;fill-opacity:1;fill-rule:nonzero;stroke:none"
             id="path9796" />
        </g>
        <g
           id="g9798"
           transform="translate(394.0875,691.4959)">
          <path
             inkscape:connector-curvature="0"
             d="M 0,0 0,4.416 C 0,5.28 -0.612,5.472 -1.429,5.472 -2.041,5.44 -2.619,5.12 -2.619,4.352 l 0,-4.352 -1.565,0 0,6.656 1.531,0 0,-0.224 C -1.055,7.392 1.53,6.624 1.53,4.576 L 1.53,0 0,0 z"
             style="fill:#ffffff;fill-opacity:1;fill-rule:nonzero;stroke:none"
             id="path9800" />
        </g>
        <g
           id="g9802"
           transform="translate(363.3095,669.1654)">
          <path
             inkscape:connector-curvature="0"
             d="m 0,0 0,3.968 -3.538,0 0,-3.968 -1.531,0 0,9.12 1.531,0 0,-3.68 3.538,0 0,3.68 1.53,0 L 1.53,0 0,0 z"
             style="fill:#ffffff;fill-opacity:1;fill-rule:nonzero;stroke:none"
             id="path9804" />
        </g>
        <g
           id="g9806"
           transform="translate(372.0155,669.1654)">
          <path
             inkscape:connector-curvature="0"
             d="m 0,0 0,4.448 c 0,2.592 -3.299,2.944 -5.068,1.6 L -4.625,4.64 c 0.204,0.288 0.986,0.96 1.972,0.832 1.088,-0.096 1.054,-1.152 1.054,-1.152 -1.564,0.608 -3.945,-0.064 -3.945,-1.952 0,-1.6 1.224,-2.464 2.653,-2.464 0.544,0 1.156,0.096 1.395,0.288 L -1.496,0 0,0 z m -1.565,1.472 c -0.578,-0.288 -2.448,-0.768 -2.448,0.864 0,1.344 1.803,0.96 2.448,0.672 l 0,-1.536 z"
             style="fill:#ffffff;fill-opacity:1;fill-rule:nonzero;stroke:none"
             id="path9808" />
        </g>
        <g
           id="g9810"
           transform="translate(378.0015,669.1654)">
          <path
             inkscape:connector-curvature="0"
             d="M 0,0 0,4.416 C 0,5.28 -0.612,5.472 -1.429,5.472 -2.041,5.44 -2.619,5.12 -2.619,4.352 l 0,-4.352 -1.565,0 0,6.656 1.531,0 0,-0.224 C -1.055,7.392 1.53,6.624 1.53,4.576 L 1.53,0 0,0 z"
             style="fill:#ffffff;fill-opacity:1;fill-rule:nonzero;stroke:none"
             id="path9812" />
        </g>
        <g
           id="g9814"
           transform="translate(386.8775,672.5252)">
          <path
             inkscape:connector-curvature="0"
             d="m 0,0 c 0,1.6 -0.51,3.456 -2.925,3.456 -2.449,0 -2.959,-1.984 -2.959,-3.456 0,-1.728 0.51,-3.488 2.959,-3.488 C -0.51,-3.488 0,-1.6 0,0 m -1.565,0 c 0,-0.672 -0.169,-2.176 -1.36,-2.176 -1.19,0 -1.394,1.472 -1.394,2.144 0,0.672 0.204,2.144 1.394,2.144 1.156,0 1.36,-1.472 1.36,-2.112"
             style="fill:#ffffff;fill-opacity:1;fill-rule:nonzero;stroke:none"
             id="path9816" />
        </g>
        <g
           id="g9818"
           transform="translate(391.7405,669.1654)">
          <path
             inkscape:connector-curvature="0"
             d="m 0,0 -1.36,0 -2.721,6.656 1.632,0 1.769,-4.48 1.701,4.48 1.734,0 L 0,0 z"
             style="fill:#ffffff;fill-opacity:1;fill-rule:nonzero;stroke:none"
             id="path9820" />
        </g>
        <g
           id="g9822"
           transform="translate(401.0255,671.8851)">
          <path
             inkscape:connector-curvature="0"
             d="m 0,0 c 0.035,1.632 -0.034,4.096 -2.823,4.096 -2.448,0 -2.925,-1.984 -2.925,-3.456 0,-1.728 0.477,-3.488 2.925,-3.488 1.429,0 2.177,0.672 2.585,1.536 l -1.259,0.736 c -0.17,-0.576 -0.679,-0.928 -1.326,-0.928 -0.952,0 -1.259,0.768 -1.326,1.504 L 0,0 z m -1.53,1.344 -2.653,0 c 0,0.672 0.17,1.408 1.36,1.408 1.156,0 1.293,-0.768 1.293,-1.408"
             style="fill:#ffffff;fill-opacity:1;fill-rule:nonzero;stroke:none"
             id="path9824" />
        </g>
        <g
           id="g9826"
           transform="translate(405.8205,674.2533)">
          <path
             inkscape:connector-curvature="0"
             d="m 0,0 c -0.305,0.224 -0.544,0.384 -0.918,0.384 -0.884,0 -0.986,-0.48 -0.986,-1.312 l 0,-4.16 -1.564,0 0,6.656 1.564,0 0,-0.32 c 0.374,0.32 0.544,0.48 1.088,0.48 0.544,0 0.782,-0.192 1.02,-0.448 L 0,0 z"
             style="fill:#ffffff;fill-opacity:1;fill-rule:nonzero;stroke:none"
             id="path9828" />
        </g>
        <g
           id="g9830"
           transform="translate(415.3565,654.3265)">
          <path
             inkscape:connector-curvature="0"
             d="M 0,0 6.302,-4.246 0,-8.496 c -0.278,-0.189 -0.658,-0.117 -0.847,0.159 -0.126,0.185 -0.104,0.378 -0.045,0.604 l 0.556,1.843 -6.897,0 0,3.286 6.897,0 -0.543,1.814 c -0.07,0.249 -0.099,0.435 0.032,0.628 C -0.658,0.114 -0.278,0.188 0,0"
             style="fill:#ffffff;fill-opacity:1;fill-rule:evenodd;stroke:none"
             id="path9832" />
        </g>
        <g
           id="g9834"
           transform="translate(334.7245,645.9637)">
          <path
             inkscape:connector-curvature="0"
             d="m 0,0 0,9.12 1.53,0 0,-7.776 4.49,0 L 6.02,0 0,0 z"
             style="fill:#ffffff;fill-opacity:1;fill-rule:nonzero;stroke:none"
             id="path9836" />
        </g>
        <path
           inkscape:connector-curvature="0"
           d="m 342.036,652.62 1.53,0 0,-6.656 -1.53,0 0,6.656 z m 0.748,1.12 c -0.442,0 -0.816,0.319 -0.816,0.735 0,0.416 0.374,0.769 0.816,0.769 0.443,0 0.818,-0.353 0.818,-0.769 0,-0.416 -0.375,-0.735 -0.818,-0.735"
           style="fill:#ffffff;fill-opacity:1;fill-rule:nonzero;stroke:none"
           id="path9838" />
        <g
           id="g9840"
           transform="translate(351.3545,649.3236)">
          <path
             inkscape:connector-curvature="0"
             d="M 0,0 C -0.034,1.76 -0.679,3.648 -2.993,3.456 -3.468,3.424 -4.115,3.232 -4.285,3.072 l 0,2.848 -1.564,-0.704 0,-8.576 1.564,0 0,0.192 C -3.809,-3.424 -3.468,-3.52 -2.924,-3.52 -0.782,-3.52 0,-1.888 0,0 m -1.564,0 c -0.034,-0.928 -0.34,-2.144 -1.395,-2.176 -0.543,-0.032 -0.917,0.096 -1.291,0.448 l 0,3.36 c 0.374,0.416 0.748,0.48 1.19,0.48 C -1.87,2.08 -1.53,0.96 -1.564,0"
             style="fill:#ffffff;fill-opacity:1;fill-rule:nonzero;stroke:none"
             id="path9842" />
        </g>
        <g
           id="g9844"
           transform="translate(358.2595,648.6834)">
          <path
             inkscape:connector-curvature="0"
             d="m 0,0 c 0.034,1.632 -0.034,4.096 -2.823,4.096 -2.449,0 -2.925,-1.984 -2.925,-3.456 0,-1.728 0.476,-3.488 2.925,-3.488 1.428,0 2.176,0.672 2.584,1.537 l -1.258,0.735 c -0.17,-0.576 -0.68,-0.928 -1.326,-0.928 -0.953,0 -1.258,0.768 -1.327,1.504 L 0,0 z m -1.53,1.344 -2.654,0 c 0,0.672 0.17,1.409 1.361,1.409 1.156,0 1.293,-0.769 1.293,-1.409"
             style="fill:#ffffff;fill-opacity:1;fill-rule:nonzero;stroke:none"
             id="path9846" />
        </g>
        <g
           id="g9848"
           transform="translate(363.0545,651.0516)">
          <path
             inkscape:connector-curvature="0"
             d="m 0,0 c -0.306,0.224 -0.544,0.384 -0.918,0.384 -0.885,0 -0.987,-0.48 -0.987,-1.312 l 0,-4.16 -1.564,0 0,6.656 1.564,0 0,-0.32 c 0.374,0.32 0.544,0.48 1.088,0.48 0.545,0 0.783,-0.192 1.021,-0.448 L 0,0 z"
             style="fill:#ffffff;fill-opacity:1;fill-rule:nonzero;stroke:none"
             id="path9850" />
        </g>
        <g
           id="g9852"
           transform="translate(367.2035,646.1239)">
          <path
             inkscape:connector-curvature="0"
             d="M 0,0 C -0.51,-0.224 -0.782,-0.288 -1.156,-0.288 -2.278,-0.352 -2.619,0.48 -2.619,1.44 l 0,3.712 -1.02,0 0,1.344 1.02,0 0,1.92 1.497,0.704 0,-2.624 1.225,0 0,-1.312 -1.225,0 0,-3.52 c 0,-0.448 0.067,-0.64 0.51,-0.64 0.34,0 0.511,0.096 0.816,0.32 L 0,0 z"
             style="fill:#ffffff;fill-opacity:1;fill-rule:nonzero;stroke:none"
             id="path9854" />
        </g>
        <g
           id="g9856"
           transform="translate(371.0805,643.4037)">
          <path
             inkscape:connector-curvature="0"
             d="m 0,0 -1.7,0 1.054,2.56 -2.721,6.656 1.667,0 1.938,-4.672 1.87,4.672 1.735,0 L 0,0 z"
             style="fill:#ffffff;fill-opacity:1;fill-rule:nonzero;stroke:none"
             id="path9858" />
        </g>
        <path
           inkscape:connector-curvature="0"
           d="m 431.574,684.329 -105.923,0 0,1.95 105.923,0 0,-1.95 z"
           style="fill:#ffffff;fill-opacity:1;fill-rule:evenodd;stroke:none"
           id="path9860" />
        <path
           inkscape:connector-curvature="0"
           d="m 431.574,661.343 -105.923,0 0,1.95 105.923,0 0,-1.95 z"
           style="fill:#ffffff;fill-opacity:1;fill-rule:evenodd;stroke:none"
           id="path9862" />
        <g
           id="g9864"
           transform="translate(341.8865,669.4144)">
          <path
             inkscape:connector-curvature="0"
             d="M 0,0 -6.302,4.244 0,8.496 C 0.278,8.682 0.658,8.61 0.847,8.335 0.973,8.15 0.951,7.959 0.892,7.731 L 0.337,5.89 l 6.896,0 0,-3.289 -6.896,0 L 0.88,0.789 C 0.951,0.538 0.978,0.353 0.847,0.16 0.658,-0.117 0.278,-0.188 0,0"
             style="fill:#ffffff;fill-opacity:1;fill-rule:evenodd;stroke:none"
             id="path9866" />
        </g>
      </g>
    </g>
  </g>
</svg>
