<?xml version="1.0" encoding="UTF-8" standalone="no"?>
<!-- Created with Inkscape (http://www.inkscape.org/) -->

<svg
   xmlns:dc="http://purl.org/dc/elements/1.1/"
   xmlns:cc="http://creativecommons.org/ns#"
   xmlns:rdf="http://www.w3.org/1999/02/22-rdf-syntax-ns#"
   xmlns:svg="http://www.w3.org/2000/svg"
   xmlns="http://www.w3.org/2000/svg"
   xmlns:sodipodi="http://sodipodi.sourceforge.net/DTD/sodipodi-0.dtd"
   xmlns:inkscape="http://www.inkscape.org/namespaces/inkscape"
   width="244.17969"
   height="194.64844"
   id="svg14126"
   version="1.1"
   inkscape:version="0.48.2 r9819"
   sodipodi:docname="New document 138">
  <defs
     id="defs14128">
    <clipPath
       clipPathUnits="userSpaceOnUse"
       id="clipPath13020">
      <path
         inkscape:connector-curvature="0"
         d="m 31.378,428.619 504.244,0 0,310.631 -504.244,0 0,-310.631 z"
         id="path13022" />
    </clipPath>
    <clipPath
       clipPathUnits="userSpaceOnUse"
       id="clipPath13008">
      <path
         inkscape:connector-curvature="0"
         d="m 27,426.649 513,0 0,312.601 -513,0 0,-312.601 z"
         id="path13010" />
    </clipPath>
  </defs>
  <sodipodi:namedview
     id="base"
     pagecolor="#ffffff"
     bordercolor="#666666"
     borderopacity="1.0"
     inkscape:pageopacity="0.0"
     inkscape:pageshadow="2"
     inkscape:zoom="0.35"
     inkscape:cx="139.94589"
     inkscape:cy="71.603555"
     inkscape:document-units="px"
     inkscape:current-layer="layer1"
     showgrid="false"
     fit-margin-top="0"
     fit-margin-left="0"
     fit-margin-right="0"
     fit-margin-bottom="0"
     inkscape:window-width="469"
     inkscape:window-height="425"
     inkscape:window-x="1491"
     inkscape:window-y="125"
     inkscape:window-maximized="0" />
  <metadata
     id="metadata14131">
    <rdf:RDF>
      <cc:Work
         rdf:about="">
        <dc:format>image/svg+xml</dc:format>
        <dc:type
           rdf:resource="http://purl.org/dc/dcmitype/StillImage" />
        <dc:title></dc:title>
      </cc:Work>
    </rdf:RDF>
  </metadata>
  <g
     inkscape:label="Layer 1"
     inkscape:groupmode="layer"
     id="layer1"
     transform="translate(-235.0541,-409.3173)">
    <g
       transform="matrix(1.25,0,0,-1.25,195.82898,1157.8893)"
       id="g13004">
      <g
         id="g13006"
         clip-path="url(#clipPath13008)">
        <g
           id="g13012"
           transform="translate(39.4426,598.6076)">
          <path
             inkscape:connector-curvature="0"
             d="m 0,0 179.218,0 c 4.303,0 7.813,-3.509 7.813,-7.814 l 0,-139.601 c 0,-4.301 -3.51,-7.814 -7.813,-7.814 l -179.218,0 c -4.305,0 -7.814,3.513 -7.814,7.814 l 0,139.601 C -7.814,-3.562 -4.251,0 0,0"
             style="fill:#ffffff;fill-opacity:1;fill-rule:nonzero;stroke:none"
             id="path13014" />
        </g>
      </g>
    </g>
    <g
       transform="matrix(1.25,0,0,-1.25,195.82898,1157.8893)"
       id="g13016">
      <g
         id="g13018"
         clip-path="url(#clipPath13020)">
        <g
           id="g13024"
           transform="translate(39.4426,598.6076)">
          <path
             inkscape:connector-curvature="0"
             d="m 0,0 179.218,0 c 4.303,0 7.813,-3.509 7.813,-7.814 l 0,-139.601 c 0,-4.301 -3.51,-7.814 -7.813,-7.814 l -179.218,0 c -4.305,0 -7.814,3.513 -7.814,7.814 l 0,139.601 C -7.814,-3.562 -4.251,0 0,0"
             style="fill:none;stroke:#231f20;stroke-width:0.5;stroke-linecap:butt;stroke-linejoin:miter;stroke-miterlimit:4;stroke-opacity:1;stroke-dasharray:none"
             id="path13026" />
        </g>
      </g>
    </g>
    <g
       id="g13036"
       transform="matrix(1.25,0,0,-1.25,469.0991,413.81727)">
      <path
         d="M 0,0 C 2.524,-0.056 4.44,-1.992 4.508,-4.508 L 4.5,-144.295 c -0.183,-2.374 -2.103,-4.221 -4.5,-4.234 l -179.404,0.01 c -2.375,0.158 -4.225,2.117 -4.235,4.498 l 0.005,139.787 c 0.183,2.373 2.106,4.225 4.502,4.234 L 0,0"
         style="fill:#00674c;fill-opacity:1;fill-rule:evenodd;stroke:none"
         id="path13038"
         inkscape:connector-curvature="0" />
    </g>
    <g
       id="g13040"
       transform="matrix(1.25,0,0,-1.25,345.93785,438.66227)">
      <path
         d="m 0,0 -1.859,0 -4.438,8.052 0,-8.052 -1.937,0 0,12.14 1.884,0 4.412,-7.999 0,7.999 L 0,12.14 0,0 z"
         style="fill:#ffffff;fill-opacity:1;fill-rule:nonzero;stroke:none"
         id="path13042"
         inkscape:connector-curvature="0" />
    </g>
    <g
       id="g13044"
       transform="matrix(1.25,0,0,-1.25,355.99885,432.33977)">
      <path
         d="M 0,0 C 0,1.033 -0.152,1.86 -0.457,2.481 -0.801,3.189 -1.309,3.543 -1.976,3.543 -2.652,3.543 -3.16,3.189 -3.498,2.481 -3.801,1.867 -3.953,1.039 -3.953,0 c 0,-1.032 0.152,-1.859 0.455,-2.48 0.346,-0.708 0.852,-1.063 1.522,-1.063 0.667,0 1.175,0.355 1.519,1.063 C -0.152,-1.859 0,-1.032 0,0 m 1.617,0 c 0,-1.362 -0.244,-2.499 -0.728,-3.41 -0.629,-1.167 -1.584,-1.75 -2.865,-1.75 -1.29,0 -2.245,0.583 -2.866,1.75 -0.486,0.905 -0.728,2.041 -0.728,3.41 0,1.37 0.242,2.506 0.728,3.411 0.621,1.167 1.576,1.75 2.866,1.75 1.281,0 2.236,-0.583 2.865,-1.75 C 1.373,2.499 1.617,1.363 1.617,0"
         style="fill:#ffffff;fill-opacity:1;fill-rule:nonzero;stroke:none"
         id="path13046"
         inkscape:connector-curvature="0" />
    </g>
    <g
       id="g13048"
       transform="matrix(1.25,0,0,-1.25,367.2166,429.53102)">
      <path
         d="m 0,0 c 0,0.337 -0.113,0.622 -0.339,0.85 -0.227,0.231 -0.508,0.345 -0.846,0.345 l -2.33,0 0,-2.43 2.33,0 c 0.338,0 0.619,0.12 0.846,0.36 C -0.113,-0.636 0,-0.344 0,0 m 1.75,-7.305 -1.711,0 -1.63,4.453 -1.924,0 0,-4.453 -1.617,0 0,10.117 3.937,0 c 0.776,0 1.438,-0.274 1.988,-0.824 C 1.342,1.438 1.618,0.775 1.618,0 c 0,-1.133 -0.536,-1.984 -1.61,-2.55 L 1.75,-7.305 z"
         style="fill:#ffffff;fill-opacity:1;fill-rule:nonzero;stroke:none"
         id="path13050"
         inkscape:connector-curvature="0" />
    </g>
    <g
       id="g13052"
       transform="matrix(1.25,0,0,-1.25,378.26411,428.03727)">
      <path
         d="m 0,0 -2.328,0 0,-8.5 -1.617,0 0,8.5 -2.328,0 0,1.617 L 0,1.617 0,0 z"
         style="fill:#ffffff;fill-opacity:1;fill-rule:nonzero;stroke:none"
         id="path13054"
         inkscape:connector-curvature="0" />
    </g>
    <g
       id="g13056"
       transform="matrix(1.25,0,0,-1.25,388.76035,438.66227)">
      <path
         d="m 0,0 -1.617,0 0,4.453 -3.649,0 0,-4.453 -1.617,0 0,10.117 1.617,0 0,-4.047 3.649,0 0,4.047 1.617,0 L 0,0 z"
         style="fill:#ffffff;fill-opacity:1;fill-rule:nonzero;stroke:none"
         id="path13058"
         inkscape:connector-curvature="0" />
    </g>
    <g
       id="g13060"
       transform="matrix(1.25,0,0,-1.25,261.89973,505.11102)">
      <path
         d="m 0,0 -1.968,-7.846 -1.846,0 -1.591,12.141 1.966,0 0.852,-6.554 1.651,6.554 1.872,0 1.65,-6.554 0.852,6.554 1.966,0 -1.591,-12.141 -1.846,0 L 0,0 z"
         style="fill:#ffffff;fill-opacity:1;fill-rule:nonzero;stroke:none"
         id="path13062"
         inkscape:connector-curvature="0" />
    </g>
    <g
       id="g13064"
       transform="matrix(1.25,0,0,-1.25,278.47448,514.91852)">
      <path
         d="m 0,0 -6.275,0 0,10.117 6.072,0 0,-1.617 -4.455,0 0,-2.43 3.078,0 0,-1.617 -3.078,0 0,-2.836 L 0,1.617 0,0 z"
         style="fill:#ffffff;fill-opacity:1;fill-rule:nonzero;stroke:none"
         id="path13066"
         inkscape:connector-curvature="0" />
    </g>
    <g
       id="g13068"
       transform="matrix(1.25,0,0,-1.25,288.34748,511.16227)">
      <path
         d="m 0,0 c 0,-0.91 -0.326,-1.656 -0.98,-2.236 -0.655,-0.581 -1.461,-0.871 -2.42,-0.871 -1.215,0 -2.159,0.439 -2.834,1.316 -0.284,0.364 -0.5,0.803 -0.649,1.316 l 1.5,0.476 c 0.276,-0.993 0.945,-1.49 2.004,-1.49 0.453,0 0.852,0.131 1.195,0.394 0.379,0.29 0.567,0.654 0.567,1.093 0,0.574 -0.428,1.029 -1.285,1.366 -0.797,0.311 -1.594,0.621 -2.389,0.932 -0.857,0.499 -1.287,1.227 -1.287,2.185 0,0.817 0.236,1.461 0.709,1.933 0.539,0.533 1.353,0.8 2.439,0.8 1.416,0 2.436,-0.681 3.055,-2.042 L -1.883,4.697 c -0.291,0.6 -0.802,0.9 -1.539,0.9 -1.025,0 -1.539,-0.372 -1.539,-1.114 0,-0.478 0.43,-0.863 1.287,-1.153 C -2.332,2.871 -1.535,2.564 -1.285,2.409 -0.428,1.869 0,1.066 0,0"
         style="fill:#ffffff;fill-opacity:1;fill-rule:nonzero;stroke:none"
         id="path13070"
         inkscape:connector-curvature="0" />
    </g>
    <g
       id="g13072"
       transform="matrix(1.25,0,0,-1.25,297.20248,504.29352)">
      <path
         d="m 0,0 -2.33,0 0,-8.5 -1.617,0 0,8.5 -2.328,0 0,1.617 L 0,1.617 0,0 z"
         style="fill:#ffffff;fill-opacity:1;fill-rule:nonzero;stroke:none"
         id="path13074"
         inkscape:connector-curvature="0" />
    </g>
    <g
       id="g13076"
       transform="matrix(1.25,0,0,-1.25,437.7041,514.91852)">
      <path
         d="m 0,0 -7.531,0 0,12.141 7.287,0 0,-1.938 -5.35,0 0,-2.922 3.7,0 0,-1.937 -3.7,0 0,-3.407 L 0,1.937 0,0 z"
         style="fill:#ffffff;fill-opacity:1;fill-rule:nonzero;stroke:none"
         id="path13078"
         inkscape:connector-curvature="0" />
    </g>
    <g
       id="g13080"
       transform="matrix(1.25,0,0,-1.25,445.55285,509.35227)">
      <path
         d="M 0,0 -1.062,3.087 -2.115,0 0,0 z m 3.239,-4.453 -1.711,0 -0.971,2.836 -3.248,0 -0.951,-2.836 -1.721,0 3.481,10.117 1.64,0 3.481,-10.117 z"
         style="fill:#ffffff;fill-opacity:1;fill-rule:nonzero;stroke:none"
         id="path13082"
         inkscape:connector-curvature="0" />
    </g>
    <g
       id="g13084"
       transform="matrix(1.25,0,0,-1.25,459.21785,511.16227)">
      <path
         d="m 0,0 c 0,-0.91 -0.328,-1.656 -0.982,-2.236 -0.655,-0.581 -1.461,-0.871 -2.418,-0.871 -1.215,0 -2.161,0.439 -2.834,1.316 -0.286,0.364 -0.5,0.803 -0.649,1.316 l 1.498,0.476 c 0.278,-0.993 0.946,-1.49 2.006,-1.49 0.451,0 0.85,0.131 1.195,0.394 0.377,0.29 0.567,0.654 0.567,1.093 0,0.574 -0.43,1.029 -1.285,1.366 -0.797,0.311 -1.594,0.621 -2.391,0.932 -0.857,0.499 -1.285,1.227 -1.285,2.185 0,0.817 0.236,1.461 0.709,1.933 0.539,0.533 1.351,0.8 2.437,0.8 1.416,0 2.436,-0.681 3.057,-2.042 L -1.883,4.697 c -0.291,0.6 -0.804,0.9 -1.539,0.9 -1.027,0 -1.539,-0.372 -1.539,-1.114 0,-0.478 0.428,-0.863 1.285,-1.153 C -2.332,2.871 -1.535,2.564 -1.285,2.409 -0.43,1.869 0,1.066 0,0"
         style="fill:#ffffff;fill-opacity:1;fill-rule:nonzero;stroke:none"
         id="path13086"
         inkscape:connector-curvature="0" />
    </g>
    <g
       id="g13088"
       transform="matrix(1.25,0,0,-1.25,468.07035,504.29352)">
      <path
         d="m 0,0 -2.33,0 0,-8.5 -1.617,0 0,8.5 -2.328,0 0,1.617 L 0,1.617 0,0 z"
         style="fill:#ffffff;fill-opacity:1;fill-rule:nonzero;stroke:none"
         id="path13090"
         inkscape:connector-curvature="0" />
    </g>
    <g
       id="g13092"
       transform="matrix(1.25,0,0,-1.25,244.72698,576.68727)">
      <path
         d="m 0,0 0,10 6.2,0 0,-1.602 -4.598,0 0,-2.398 2.999,0 0,-1.602 -2.999,0 L 1.602,0 0,0 z"
         style="fill:#ffffff;fill-opacity:1;fill-rule:nonzero;stroke:none"
         id="path13094"
         inkscape:connector-curvature="0" />
    </g>
    <g
       id="g13096"
       transform="matrix(1.25,0,0,-1.25,259.23498,572.12727)">
      <path
         d="M 0,0 C 0,0.62 -0.105,1.13 -0.32,1.531 -0.572,2.011 -0.949,2.25 -1.449,2.25 -1.928,2.25 -2.295,2.031 -2.549,1.59 -2.781,1.191 -2.898,0.66 -2.898,0 c 0,-0.62 0.107,-1.13 0.32,-1.53 0.254,-0.48 0.629,-0.72 1.129,-0.72 0.5,0 0.877,0.24 1.129,0.72 C -0.105,-1.13 0,-0.62 0,0 m 1.602,0 c 0,-1.087 -0.231,-1.96 -0.69,-2.62 -0.533,-0.754 -1.32,-1.13 -2.361,-1.13 -0.959,0 -1.709,0.327 -2.246,0.98 C -4.23,-2.116 -4.5,-1.193 -4.5,0 c 0,1.06 0.221,1.917 0.66,2.57 0.528,0.787 1.324,1.18 2.391,1.18 1.054,0 1.847,-0.389 2.381,-1.17 C 1.379,1.92 1.602,1.06 1.602,0"
         style="fill:#ffffff;fill-opacity:1;fill-rule:nonzero;stroke:none"
         id="path13098"
         inkscape:connector-curvature="0" />
    </g>
    <g
       id="g13100"
       transform="matrix(1.25,0,0,-1.25,267.98248,567.81352)">
      <path
         d="m 0,0 -0.238,-1.599 c 0,0.033 -0.092,0.102 -0.272,0.21 -0.213,0.125 -0.422,0.188 -0.629,0.188 -0.707,0 -1.058,-0.396 -1.058,-1.19 l 0,-4.708 -1.602,0 0,7.3 1.602,0 0,-0.47 c 0.293,0.379 0.722,0.568 1.289,0.568 0.172,0 0.476,-0.1 0.908,-0.299"
         style="fill:#ffffff;fill-opacity:1;fill-rule:nonzero;stroke:none"
         id="path13102"
         inkscape:connector-curvature="0" />
    </g>
    <g
       id="g13104"
       transform="matrix(1.25,0,0,-1.25,274.61098,574.18602)">
      <path
         d="m 0,0 c 0,-0.546 -0.182,-1.016 -0.541,-1.408 -0.447,-0.474 -1.094,-0.71 -1.941,-0.71 -1.001,0 -1.741,0.376 -2.221,1.128 l 1.17,0.989 c 0.267,-0.396 0.617,-0.594 1.051,-0.594 0.586,0 0.88,0.183 0.88,0.55 0,0.306 -0.24,0.643 -0.72,1.008 -0.442,0.334 -0.885,0.666 -1.332,0.999 -0.481,0.439 -0.721,0.905 -0.721,1.397 0,0.42 0.113,0.813 0.34,1.18 0.353,0.572 0.924,0.858 1.711,0.858 0.707,0 1.396,-0.38 2.07,-1.139 l -1.139,-0.95 c -0.314,0.393 -0.623,0.589 -0.929,0.589 -0.282,0 -0.42,-0.143 -0.42,-0.429 0,-0.167 0.236,-0.42 0.711,-0.759 0.646,-0.453 1.086,-0.803 1.32,-1.05 C -0.238,1.146 0,0.594 0,0"
         style="fill:#ffffff;fill-opacity:1;fill-rule:nonzero;stroke:none"
         id="path13106"
         inkscape:connector-curvature="0" />
    </g>
    <g
       id="g13108"
       transform="matrix(1.25,0,0,-1.25,281.73011,572.12227)">
      <path
         d="m 0,0 c 0,0.652 -0.109,1.178 -0.33,1.577 -0.238,0.446 -0.578,0.669 -1.018,0.669 -0.732,0 -1.214,-0.233 -1.449,-0.698 l 0,-3.234 c 0.301,-0.373 0.783,-0.56 1.449,-0.56 C -0.449,-2.246 0,-1.497 0,0 m 1.602,-0.001 c 0,-2.512 -0.983,-3.768 -2.95,-3.768 -0.472,0 -0.955,0.119 -1.449,0.356 l 0,-0.239 -1.601,0 0,9.241 1.601,0.86 0,-3.17 c 0.467,0.311 0.949,0.467 1.449,0.467 1.967,0 2.95,-1.249 2.95,-3.747"
         style="fill:#ffffff;fill-opacity:1;fill-rule:nonzero;stroke:none"
         id="path13110"
         inkscape:connector-curvature="0" />
    </g>
    <g
       id="g13112"
       transform="matrix(1.25,0,0,-1.25,290.60461,571.18977)">
      <path
         d="M 0,0 C 0,0.441 -0.111,0.8 -0.334,1.08 -0.557,1.361 -0.861,1.5 -1.248,1.5 -1.615,1.5 -1.928,1.352 -2.187,1.056 -2.447,0.759 -2.594,0.408 -2.627,0 L 0,0 z M 1.395,-2.899 C 1.188,-3.38 0.859,-3.762 0.414,-4.049 -0.061,-4.35 -0.613,-4.5 -1.246,-4.5 c -0.961,0 -1.709,0.327 -2.246,0.98 -0.535,0.654 -0.805,1.577 -0.805,2.77 0,1.06 0.221,1.917 0.66,2.57 0.528,0.787 1.323,1.18 2.389,1.18 1.9,0 2.85,-1.25 2.85,-3.75 0,-0.374 -0.006,-0.624 -0.02,-0.75 l -4.209,0 c 0.061,-0.432 0.203,-0.784 0.43,-1.049 C -1.943,-2.85 -1.627,-3 -1.246,-3 c 0.605,0 1.029,0.347 1.269,1.042 l 1.372,-0.941 z"
         style="fill:#ffffff;fill-opacity:1;fill-rule:nonzero;stroke:none"
         id="path13114"
         inkscape:connector-curvature="0" />
    </g>
    <g
       id="g13116"
       transform="matrix(1.25,0,0,-1.25,299.10798,567.81352)">
      <path
         d="m 0,0 -0.24,-1.599 c 0,0.033 -0.09,0.102 -0.27,0.21 -0.213,0.125 -0.424,0.188 -0.629,0.188 -0.707,0 -1.06,-0.396 -1.06,-1.19 l 0,-4.708 -1.602,0 0,7.3 1.602,0 0,-0.47 c 0.293,0.379 0.722,0.568 1.289,0.568 0.174,0 0.476,-0.1 0.91,-0.299"
         style="fill:#ffffff;fill-opacity:1;fill-rule:nonzero;stroke:none"
         id="path13118"
         inkscape:connector-curvature="0" />
    </g>
    <g
       id="g13120"
       transform="matrix(1.25,0,0,-1.25,302.12073,572.12727)">
      <path
         d="m 0,0 c 0,-0.653 0.109,-1.18 0.33,-1.58 0.24,-0.446 0.58,-0.67 1.02,-0.67 0.732,0 1.214,0.234 1.447,0.701 l 0,3.24 C 2.498,2.064 2.016,2.25 1.35,2.25 0.449,2.25 0,1.5 0,0 m -1.602,0.001 c 0,2.516 0.983,3.773 2.95,3.773 0.48,0 0.962,-0.12 1.449,-0.363 l 0,0.241 1.601,0 0,-7.922 c 0,-1.154 -0.504,-2 -1.509,-2.541 -0.42,-0.227 -1.024,-0.406 -1.811,-0.54 l -0.728,1.2 c 1.63,0.4 2.447,0.975 2.447,1.723 l 0,1.15 C 2.324,-3.592 1.842,-3.75 1.348,-3.75 c -1.967,0 -2.95,1.251 -2.95,3.751"
         style="fill:#ffffff;fill-opacity:1;fill-rule:nonzero;stroke:none"
         id="path13122"
         inkscape:connector-curvature="0" />
    </g>
    <g
       id="g13124"
       transform="matrix(1.25,0,0,-1.25,433.3066,572.93727)">
      <path
         d="m 0,0 c 0,0.433 -0.15,0.778 -0.451,1.038 -0.273,0.24 -0.59,0.36 -0.949,0.36 l -2.201,0 0,-2.797 2.201,0 C -0.466,-1.399 0,-0.933 0,0 m -0.203,4.22 c 0,0.412 -0.146,0.722 -0.439,0.928 -0.234,0.167 -0.522,0.25 -0.861,0.25 l -2.098,0 0,-2.398 2.219,0 c 0.265,0 0.513,0.087 0.74,0.26 0.293,0.233 0.439,0.553 0.439,0.96 m -5,-2.3 0.002,0.01 0.002,-0.01 c 0,-0.007 0,-0.01 -0.002,-0.01 L -5.203,1.92 z M 1.602,0 C 1.602,-0.854 1.319,-1.567 0.75,-2.14 0.184,-2.714 -0.533,-3 -1.4,-3 l -3.803,0 0,10 3.741,0 C -0.642,7 0.04,6.738 0.583,6.215 1.127,5.692 1.399,5.026 1.399,4.22 1.399,3.347 0.987,2.673 0.161,2.2 1.122,1.78 1.602,1.046 1.602,0"
         style="fill:#ffffff;fill-opacity:1;fill-rule:nonzero;stroke:none"
         id="path13126"
         inkscape:connector-curvature="0" />
    </g>
    <g
       id="g13128"
       transform="matrix(1.25,0,0,-1.25,437.0666,567.56602)">
      <path
         d="m 0,0 1.602,0 0,-4.698 c 0,-0.415 0.152,-0.727 0.459,-0.941 0.238,-0.173 0.539,-0.26 0.898,-0.26 0.346,0 0.643,0.09 0.889,0.271 0.299,0.219 0.449,0.529 0.449,0.93 l 0,4.698 1.602,0 0,-7.297 -1.602,0 0,0.29 C 3.85,-7.269 3.307,-7.399 2.668,-7.399 1.961,-7.399 1.356,-7.205 0.85,-6.82 0.284,-6.372 0,-5.766 0,-4.999 L 0,0 z"
         style="fill:#ffffff;fill-opacity:1;fill-rule:nonzero;stroke:none"
         id="path13130"
         inkscape:connector-curvature="0" />
    </g>
    <g
       id="g13132"
       transform="matrix(1.25,0,0,-1.25,451.6841,567.81352)">
      <path
         d="m 0,0 -0.241,-1.599 c 0,0.033 -0.089,0.102 -0.269,0.21 -0.213,0.125 -0.424,0.188 -0.629,0.188 -0.707,0 -1.061,-0.396 -1.061,-1.19 l 0,-4.708 -1.601,0 0,7.3 1.601,0 0,-0.47 c 0.293,0.379 0.723,0.568 1.29,0.568 0.173,0 0.476,-0.1 0.91,-0.299"
         style="fill:#ffffff;fill-opacity:1;fill-rule:nonzero;stroke:none"
         id="path13134"
         inkscape:connector-curvature="0" />
    </g>
    <g
       id="g13136"
       transform="matrix(1.25,0,0,-1.25,461.18286,576.68727)">
      <path
         d="m 0,0 -1.799,0 -2.06,3.89 -0.94,-0.97 0,-2.92 -1.601,0 0,9.241 1.601,0.86 0,-4.881 1.969,2.08 2.211,0 L -2.699,5.12 0,0 z"
         style="fill:#ffffff;fill-opacity:1;fill-rule:nonzero;stroke:none"
         id="path13138"
         inkscape:connector-curvature="0" />
    </g>
    <g
       id="g13140"
       transform="matrix(1.25,0,0,-1.25,467.55536,571.18977)">
      <path
         d="M 0,0 C 0,0.441 -0.111,0.8 -0.334,1.08 -0.557,1.361 -0.861,1.5 -1.248,1.5 -1.615,1.5 -1.928,1.352 -2.188,1.056 -2.447,0.759 -2.594,0.408 -2.627,0 L 0,0 z M 1.394,-2.899 C 1.187,-3.38 0.859,-3.762 0.414,-4.049 -0.061,-4.35 -0.613,-4.5 -1.246,-4.5 c -0.961,0 -1.709,0.327 -2.246,0.98 -0.535,0.654 -0.805,1.577 -0.805,2.77 0,1.06 0.221,1.917 0.66,2.57 0.528,0.787 1.322,1.18 2.389,1.18 1.9,0 2.849,-1.25 2.849,-3.75 0,-0.374 -0.005,-0.624 -0.019,-0.75 l -4.209,0 c 0.061,-0.432 0.203,-0.784 0.43,-1.049 C -1.943,-2.85 -1.627,-3 -1.246,-3 c 0.605,0 1.029,0.347 1.269,1.042 l 1.371,-0.941 z"
         style="fill:#ffffff;fill-opacity:1;fill-rule:nonzero;stroke:none"
         id="path13142"
         inkscape:connector-curvature="0" />
    </g>
    <g
       id="g13144"
       transform="matrix(1.25,0,0,-1.25,362.20285,473.33977)">
      <path
         d="m 0,0 c -1.116,1.324 -2.778,2.133 -4.506,2.133 l -4.227,0 c -3.754,0 -6.812,3.061 -6.812,6.814 0,2.319 1.48,4.021 1.48,6.421 0,1.631 -0.554,3.324 -1.508,4.616 l 4.917,4.712 c 1.589,-0.957 3.49,-1.511 5.351,-1.511 1.859,0 3.723,0.554 5.305,1.506 1.584,-0.952 3.445,-1.506 5.304,-1.506 1.862,0 3.762,0.554 5.354,1.511 l 4.916,-4.712 c -0.955,-1.292 -1.51,-2.985 -1.51,-4.616 0,-2.4 1.481,-4.102 1.481,-6.421 0,-3.753 -3.059,-6.814 -6.813,-6.814 l -4.226,0 C 2.777,2.133 1.115,1.324 0,0"
         style="fill:#ffffff;fill-opacity:1;fill-rule:evenodd;stroke:none"
         id="path13146"
         inkscape:connector-curvature="0" />
    </g>
    <g
       id="g13148"
       transform="matrix(1.25,0,0,-1.25,357.82748,460.38477)">
      <path
         d="m 0,0 c 0,-1.246 -0.461,-2.228 -1.381,-2.945 -0.748,-0.59 -1.58,-0.884 -2.492,-0.884 -1.285,0 -2.309,0.498 -3.07,1.494 -0.319,0.407 -0.571,0.902 -0.76,1.483 l 1.699,0.464 c 0.49,-1.086 1.201,-1.629 2.131,-1.629 0.52,0 0.969,0.148 1.348,0.443 0.474,0.361 0.712,0.886 0.712,1.574 0,0.634 -0.259,1.084 -0.781,1.348 -0.355,0.181 -0.783,0.267 -1.281,0.26 l 0,1.703 c 0.498,0 0.865,0.057 1.1,0.17 0.339,0.165 0.509,0.475 0.509,0.927 0,0.468 -0.148,0.853 -0.447,1.154 -0.299,0.301 -0.685,0.453 -1.16,0.453 -0.566,0 -1.02,-0.197 -1.359,-0.589 -0.227,-0.265 -0.34,-0.469 -0.34,-0.612 l -1.633,0.669 c 0.553,1.542 1.662,2.313 3.332,2.313 1.004,0 1.83,-0.34 2.48,-1.02 0.627,-0.657 0.94,-1.45 0.94,-2.38 0,-0.914 -0.25,-1.541 -0.75,-1.88 C -0.4,2.062 0,1.225 0,0"
         style="fill:#231f20;fill-opacity:1;fill-rule:nonzero;stroke:none"
         id="path13150"
         inkscape:connector-curvature="0" />
    </g>
    <g
       id="g13152"
       transform="matrix(1.25,0,0,-1.25,367.3666,457.94852)">
      <path
         d="M 0,0 C 0,1.163 -0.17,2.1 -0.51,2.811 -0.895,3.626 -1.463,4.034 -2.211,4.034 -2.959,4.034 -3.526,3.626 -3.913,2.811 -4.252,2.108 -4.422,1.171 -4.422,0 c 0,-1.156 0.17,-2.081 0.509,-2.776 0.387,-0.793 0.954,-1.19 1.702,-1.19 0.748,0 1.316,0.397 1.701,1.19 C -0.17,-2.081 0,-1.156 0,0 m 1.812,0.003 c 0,-1.526 -0.271,-2.8 -0.816,-3.82 -0.702,-1.308 -1.772,-1.961 -3.207,-1.961 -1.444,0 -2.512,0.653 -3.207,1.961 -0.545,1.012 -0.817,2.286 -0.817,3.82 0,1.534 0.272,2.808 0.817,3.82 0.695,1.308 1.763,1.961 3.207,1.961 1.435,0 2.505,-0.653 3.207,-1.961 0.545,-1.02 0.816,-2.294 0.816,-3.82"
         style="fill:#231f20;fill-opacity:1;fill-rule:nonzero;stroke:none"
         id="path13154"
         inkscape:connector-curvature="0" />
    </g>
    <g
       id="g13156"
       transform="matrix(1.25,0,0,-1.25,374.9566,465.03477)">
      <path
         d="m 0,0 -1.813,0 0,9.188 -1.015,0 0,1.484 c 0.271,0 0.533,0.064 0.787,0.189 0.252,0.126 0.424,0.282 0.513,0.467 L 0,11.328 0,0 z"
         style="fill:#231f20;fill-opacity:1;fill-rule:nonzero;stroke:none"
         id="path13158"
         inkscape:connector-curvature="0" />
    </g>
    <g
       id="g13160"
       transform="matrix(1.25,0,0,-1.25,276.17223,554.80852)">
      <path
         d="m 0,0 c -1.115,1.324 -2.777,2.134 -4.506,2.134 l -4.226,0 c -3.755,0 -6.814,3.06 -6.814,6.813 0,2.319 1.481,4.022 1.481,6.421 0,1.631 -0.555,3.324 -1.508,4.616 l 4.917,4.712 c 1.59,-0.957 3.49,-1.511 5.351,-1.511 1.86,0 3.723,0.554 5.305,1.506 1.584,-0.952 3.445,-1.506 5.305,-1.506 1.861,0 3.761,0.554 5.353,1.511 l 4.916,-4.712 c -0.955,-1.292 -1.51,-2.985 -1.51,-4.616 0,-2.399 1.481,-4.102 1.481,-6.421 0,-3.753 -3.059,-6.813 -6.813,-6.813 l -4.226,0 C 2.777,2.134 1.115,1.324 0,0"
         style="fill:#ffffff;fill-opacity:1;fill-rule:evenodd;stroke:none"
         id="path13162"
         inkscape:connector-curvature="0" />
    </g>
    <g
       id="g13164"
       transform="matrix(1.25,0,0,-1.25,269.36798,546.46352)">
      <path
         d="m 0,0 -7.704,0 c 0,2.412 1.25,4.397 3.751,5.954 1.072,0.674 1.627,1.025 1.666,1.054 0.316,0.258 0.474,0.606 0.474,1.044 0,1.059 -0.724,1.588 -2.173,1.588 C -4.652,9.64 -5.17,9.367 -5.539,8.821 -5.774,8.463 -5.892,8.179 -5.892,7.967 l -1.812,0.465 c 0.234,0.787 0.601,1.443 1.099,1.965 0.688,0.703 1.56,1.056 2.619,1.056 1.259,0 2.257,-0.348 2.99,-1.044 C -0.332,9.774 0,8.988 0,8.05 0,7.378 -0.129,6.826 -0.385,6.395 -0.596,6.04 -0.947,5.692 -1.438,5.351 -1.967,5.026 -2.49,4.701 -3.012,4.376 -4.514,3.423 -5.307,2.569 -5.391,1.813 L 0,1.813 0,0 z"
         style="fill:#231f20;fill-opacity:1;fill-rule:nonzero;stroke:none"
         id="path13166"
         inkscape:connector-curvature="0" />
    </g>
    <g
       id="g13168"
       transform="matrix(1.25,0,0,-1.25,280.77186,546.46352)">
      <path
         d="m 0,0 -7.703,0 c 0,2.412 1.25,4.397 3.75,5.954 1.072,0.674 1.627,1.025 1.666,1.054 0.316,0.258 0.474,0.606 0.474,1.044 0,1.059 -0.724,1.588 -2.173,1.588 C -4.652,9.64 -5.17,9.367 -5.539,8.821 -5.773,8.463 -5.891,8.179 -5.891,7.967 l -1.812,0.465 c 0.234,0.787 0.601,1.443 1.099,1.965 0.688,0.703 1.559,1.056 2.618,1.056 1.259,0 2.257,-0.348 2.99,-1.044 C -0.332,9.774 0,8.988 0,8.05 0,7.378 -0.129,6.826 -0.385,6.395 -0.596,6.04 -0.947,5.692 -1.438,5.351 -1.967,5.026 -2.49,4.701 -3.012,4.376 -4.514,3.423 -5.307,2.569 -5.391,1.813 L 0,1.813 0,0 z"
         style="fill:#231f20;fill-opacity:1;fill-rule:nonzero;stroke:none"
         id="path13170"
         inkscape:connector-curvature="0" />
    </g>
    <g
       id="g13172"
       transform="matrix(1.25,0,0,-1.25,290.33973,539.37727)">
      <path
         d="m 0,0 c 0,1.163 -0.17,2.099 -0.51,2.81 -0.385,0.816 -0.953,1.224 -1.701,1.224 -0.748,0 -1.314,-0.408 -1.701,-1.224 -0.34,-0.703 -0.51,-1.64 -0.51,-2.81 0,-1.157 0.17,-2.081 0.51,-2.777 0.387,-0.793 0.953,-1.189 1.701,-1.189 0.748,0 1.316,0.396 1.701,1.189 C -0.17,-2.081 0,-1.157 0,0 m 1.813,0.002 c 0,-1.526 -0.272,-2.799 -0.817,-3.82 -0.701,-1.307 -1.771,-1.961 -3.207,-1.961 -1.443,0 -2.512,0.654 -3.207,1.961 -0.545,1.013 -0.816,2.286 -0.816,3.82 0,1.535 0.271,2.808 0.816,3.821 0.695,1.307 1.764,1.961 3.207,1.961 1.436,0 2.506,-0.654 3.207,-1.961 C 1.541,2.802 1.813,1.529 1.813,0.002"
         style="fill:#231f20;fill-opacity:1;fill-rule:nonzero;stroke:none"
         id="path13174"
         inkscape:connector-curvature="0" />
    </g>
    <g
       id="g13176"
       transform="matrix(1.25,0,0,-1.25,448.1791,554.80852)">
      <path
         d="m 0,0 c -1.115,1.324 -2.777,2.134 -4.506,2.134 l -4.225,0 c -3.753,0 -6.814,3.06 -6.814,6.813 0,2.319 1.481,4.022 1.481,6.421 0,1.631 -0.555,3.324 -1.508,4.616 l 4.916,4.712 c 1.592,-0.957 3.492,-1.511 5.351,-1.511 1.862,0 3.723,0.554 5.305,1.506 1.584,-0.952 3.445,-1.506 5.307,-1.506 1.859,0 3.759,0.554 5.351,1.511 l 4.916,-4.712 c -0.953,-1.292 -1.508,-2.985 -1.508,-4.616 0,-2.399 1.481,-4.102 1.481,-6.421 0,-3.753 -3.059,-6.813 -6.813,-6.813 l -4.226,0 C 2.777,2.134 1.117,1.324 0,0"
         style="fill:#ffffff;fill-opacity:1;fill-rule:evenodd;stroke:none"
         id="path13178"
         inkscape:connector-curvature="0" />
    </g>
    <g
       id="g13180"
       transform="matrix(1.25,0,0,-1.25,441.37785,546.46352)">
      <path
         d="m 0,0 -7.704,0 c 0,2.412 1.25,4.397 3.748,5.954 1.073,0.674 1.629,1.025 1.666,1.054 0.317,0.258 0.477,0.606 0.477,1.044 0,1.059 -0.727,1.588 -2.176,1.588 -0.664,0 -1.181,-0.273 -1.552,-0.819 -0.233,-0.358 -0.35,-0.642 -0.35,-0.854 l -1.813,0.465 c 0.233,0.787 0.6,1.443 1.098,1.965 0.688,0.703 1.561,1.056 2.617,1.056 1.262,0 2.258,-0.348 2.991,-1.044 C -0.332,9.774 0,8.988 0,8.05 0,7.378 -0.129,6.826 -0.385,6.395 -0.598,6.04 -0.948,5.692 -1.44,5.351 -1.967,5.026 -2.493,4.701 -3.014,4.376 -4.516,3.423 -5.309,2.569 -5.391,1.813 L 0,1.813 0,0 z"
         style="fill:#231f20;fill-opacity:1;fill-rule:nonzero;stroke:none"
         id="path13182"
         inkscape:connector-curvature="0" />
    </g>
    <g
       id="g13184"
       transform="matrix(1.25,0,0,-1.25,452.7816,546.46352)">
      <path
         d="m 0,0 -7.704,0 c 0,2.412 1.25,4.397 3.749,5.954 1.072,0.674 1.628,1.025 1.666,1.054 0.316,0.258 0.476,0.606 0.476,1.044 0,1.059 -0.726,1.588 -2.176,1.588 -0.664,0 -1.181,-0.273 -1.552,-0.819 -0.233,-0.358 -0.35,-0.642 -0.35,-0.854 l -1.813,0.465 c 0.233,0.787 0.6,1.443 1.098,1.965 0.688,0.703 1.561,1.056 2.617,1.056 1.262,0 2.258,-0.348 2.991,-1.044 C -0.332,9.774 0,8.988 0,8.05 0,7.378 -0.129,6.826 -0.385,6.395 -0.598,6.04 -0.948,5.692 -1.44,5.351 -1.967,5.026 -2.493,4.701 -3.014,4.376 -4.516,3.423 -5.309,2.569 -5.391,1.813 L 0,1.813 0,0 z"
         style="fill:#231f20;fill-opacity:1;fill-rule:nonzero;stroke:none"
         id="path13186"
         inkscape:connector-curvature="0" />
    </g>
    <g
       id="g13188"
       transform="matrix(1.25,0,0,-1.25,462.3491,539.37727)">
      <path
         d="m 0,0 c 0,1.163 -0.17,2.099 -0.512,2.81 -0.385,0.816 -0.951,1.224 -1.699,1.224 -0.75,0 -1.316,-0.408 -1.701,-1.224 -0.34,-0.703 -0.51,-1.64 -0.51,-2.81 0,-1.157 0.17,-2.081 0.51,-2.777 0.385,-0.793 0.951,-1.189 1.701,-1.189 0.748,0 1.314,0.396 1.699,1.189 C -0.17,-2.081 0,-1.157 0,0 m 1.812,0.002 c 0,-1.526 -0.273,-2.799 -0.816,-3.82 -0.703,-1.307 -1.771,-1.961 -3.207,-1.961 -1.443,0 -2.514,0.654 -3.209,1.961 -0.543,1.013 -0.814,2.286 -0.814,3.82 0,1.535 0.271,2.808 0.814,3.821 0.695,1.307 1.766,1.961 3.209,1.961 1.436,0 2.504,-0.654 3.207,-1.961 C 1.539,2.802 1.812,1.529 1.812,0.002"
         style="fill:#231f20;fill-opacity:1;fill-rule:nonzero;stroke:none"
         id="path13190"
         inkscape:connector-curvature="0" />
    </g>
    <g
       id="g13192"
       transform="matrix(1.25,0,0,-1.25,403.66535,528.07852)">
      <path
         d="M 0,0 C 0,0 -0.879,0.412 -1.641,-0.292 -2.258,-0.88 -1.996,-1.7 -1.996,-1.7 l 1.331,-4.162 -6.291,0 c -1.002,0 -1.978,-0.149 -2.911,-0.417 -1.246,9.468 -8.143,17.177 -17.186,19.616 -1.544,0.473 -2.618,1.904 -2.618,3.517 l 0,6.283 0.031,0 4.099,-1.322 c 0,0 0.823,-0.293 1.497,0.352 0.824,0.795 0.178,1.82 0.178,1.82 l -9.304,13.5 -9.361,-13.678 c 0,0 -0.412,-0.879 0.292,-1.64 0.588,-0.618 1.408,-0.356 1.408,-0.356 l 4.162,1.332 0,-6.291 c 0,-1.003 0.15,-1.98 0.417,-2.913 -9.467,-1.246 -17.176,-8.142 -19.616,-17.183 -0.471,-1.545 -1.903,-2.62 -3.517,-2.62 l -6.283,0 0,0.032 1.322,4.098 c 0,0 0.293,0.823 -0.352,1.497 -0.795,0.824 -1.82,0.179 -1.82,0.179 l -13.5,-9.305 13.678,-9.36 c 0,0 0.879,-0.412 1.64,0.292 0.618,0.588 0.356,1.407 0.356,1.407 l -1.332,4.162 6.291,0 c 1.003,0 1.979,0.151 2.913,0.417 0.349,-2.644 1.144,-5.199 2.39,-7.625 l -0.002,-0.006 -4.249,-0.701 c 0,0 -0.867,-0.116 -1.17,-0.997 -0.369,-1.085 0.674,-1.7 0.674,-1.7 l 14.453,-7.742 2.059,16.445 c 0,0 -0.035,0.97 -1.01,1.325 -0.805,0.28 -1.414,-0.329 -1.414,-0.329 l -3.109,-3.107 -0.002,10e-4 c -1.214,2.358 -1.83,4.887 -1.83,7.518 0,9.105 7.407,16.512 16.512,16.512 9.105,0 16.513,-7.407 16.513,-16.512 0,-1.452 -0.196,-2.9 -0.584,-4.305 -1.58,-5.597 -5.988,-10.033 -11.504,-11.578 -4.666,-1.306 -7.924,-5.555 -7.924,-10.334 l 0,-13.806 6.998,0 0,13.806 c 0,1.68 1.131,3.125 2.813,3.596 7.853,2.199 14.12,8.493 16.356,16.426 0.447,1.587 1.905,2.696 3.546,2.696 l 6.284,0 0,-0.031 -1.323,-4.099 c 0,0 -0.292,-0.823 0.352,-1.497 0.795,-0.824 1.82,-0.178 1.82,-0.178 l 13.5,9.304 L 0,0 z"
         style="fill:#ffffff;fill-opacity:1;fill-rule:nonzero;stroke:none"
         id="path13194"
         inkscape:connector-curvature="0" />
    </g>
  </g>
</svg>
