<?xml version="1.0" encoding="UTF-8" standalone="no"?>
<!-- Created with Inkscape (http://www.inkscape.org/) -->

<svg
   xmlns:dc="http://purl.org/dc/elements/1.1/"
   xmlns:cc="http://creativecommons.org/ns#"
   xmlns:rdf="http://www.w3.org/1999/02/22-rdf-syntax-ns#"
   xmlns:svg="http://www.w3.org/2000/svg"
   xmlns="http://www.w3.org/2000/svg"
   xmlns:sodipodi="http://sodipodi.sourceforge.net/DTD/sodipodi-0.dtd"
   xmlns:inkscape="http://www.inkscape.org/namespaces/inkscape"
   width="128.38075"
   height="146.64062"
   id="svg19037"
   version="1.1"
   inkscape:version="0.48.2 r9819"
   sodipodi:docname="New document 168">
  <defs
     id="defs19039">
    <clipPath
       clipPathUnits="userSpaceOnUse"
       id="clipPath18218">
      <path
         inkscape:connector-curvature="0"
         d="M 27.125,45 540,45 l 0,270.17 -512.875,0 0,-270.17 z"
         id="path18220" />
    </clipPath>
    <clipPath
       clipPathUnits="userSpaceOnUse"
       id="clipPath18206">
      <path
         inkscape:connector-curvature="0"
         d="m 56.756,45 453.613,0 0,270.17 -453.613,0 0,-270.17 z"
         id="path18208" />
    </clipPath>
    <clipPath
       clipPathUnits="userSpaceOnUse"
       id="clipPath18194">
      <path
         inkscape:connector-curvature="0"
         d="M 27.125,45 540,45 l 0,270.17 -512.875,0 0,-270.17 z"
         id="path18196" />
    </clipPath>
  </defs>
  <sodipodi:namedview
     id="base"
     pagecolor="#ffffff"
     bordercolor="#666666"
     borderopacity="1.0"
     inkscape:pageopacity="0.0"
     inkscape:pageshadow="2"
     inkscape:zoom="0.35"
     inkscape:cx="-23.66677"
     inkscape:cy="139.04491"
     inkscape:document-units="px"
     inkscape:current-layer="layer1"
     showgrid="false"
     fit-margin-top="0"
     fit-margin-left="0"
     fit-margin-right="0"
     fit-margin-bottom="0"
     inkscape:window-width="469"
     inkscape:window-height="425"
     inkscape:window-x="1466"
     inkscape:window-y="100"
     inkscape:window-maximized="0" />
  <metadata
     id="metadata19042">
    <rdf:RDF>
      <cc:Work
         rdf:about="">
        <dc:format>image/svg+xml</dc:format>
        <dc:type
           rdf:resource="http://purl.org/dc/dcmitype/StillImage" />
        <dc:title></dc:title>
      </cc:Work>
    </rdf:RDF>
  </metadata>
  <g
     inkscape:label="Layer 1"
     inkscape:groupmode="layer"
     id="layer1"
     transform="translate(-398.66677,-524.76647)">
    <g
       transform="matrix(1.25,0,0,-1.25,327.72177,767.24647)"
       id="g18190">
      <g
         id="g18192"
         clip-path="url(#clipPath18194)">
        <g
           id="g18198"
           transform="translate(159.2106,84.234)">
          <path
             inkscape:connector-curvature="0"
             d="m 0,0 c 0,-4.032 -3.268,-7.301 -7.301,-7.301 l -87.604,0 c -4.031,0 -7.3,3.269 -7.3,7.301 l 0,102.204 c 0,4.032 3.269,7.301 7.3,7.301 l 87.604,0 c 4.033,0 7.301,-3.269 7.301,-7.301 L 0,0 z"
             style="fill:#ffffff;fill-opacity:1;fill-rule:nonzero;stroke:none"
             id="path18200" />
        </g>
      </g>
    </g>
    <g
       transform="matrix(1.25,0,0,-1.25,327.72177,767.24647)"
       id="g18202">
      <g
         id="g18204"
         clip-path="url(#clipPath18206)">
        <g
           id="g18210"
           transform="translate(159.2106,84.234)">
          <path
             inkscape:connector-curvature="0"
             d="m 0,0 c 0,-4.032 -3.268,-7.301 -7.301,-7.301 l -87.604,0 c -4.031,0 -7.3,3.269 -7.3,7.301 l 0,102.204 c 0,4.032 3.269,7.301 7.3,7.301 l 87.604,0 c 4.033,0 7.301,-3.269 7.301,-7.301 L 0,0 z"
             style="fill:none;stroke:#231f20;stroke-width:0.5;stroke-linecap:butt;stroke-linejoin:miter;stroke-miterlimit:4;stroke-opacity:1;stroke-dasharray:none"
             id="path18212" />
        </g>
      </g>
    </g>
    <g
       transform="matrix(1.25,0,0,-1.25,327.72177,767.24647)"
       id="g18214">
      <g
         id="g18216"
         clip-path="url(#clipPath18218)">
        <g
           id="g18222"
           transform="translate(59.4392,84.234)">
          <path
             inkscape:connector-curvature="0"
             d="m 0,0 0,102.204 c 0,2.684 2.183,4.867 4.866,4.867 l 87.605,0 c 2.683,0 4.866,-2.183 4.866,-4.867 L 97.337,0 c 0,-2.684 -2.183,-4.867 -4.866,-4.867 l -87.605,0 C 2.183,-4.867 0,-2.684 0,0"
             style="fill:#00674c;fill-opacity:1;fill-rule:nonzero;stroke:none"
             id="path18224" />
        </g>
        <g
           id="g18226"
           transform="translate(95.9675,165.754)">
          <path
             inkscape:connector-curvature="0"
             d="m 0,0 -2.236,0 -5.335,9.68 0,-9.68 -2.332,0 0,14.601 2.265,0 5.306,-9.622 0,9.622 2.332,0 L 0,0 z"
             style="fill:#ffffff;fill-opacity:1;fill-rule:nonzero;stroke:none"
             id="path18228" />
        </g>
        <g
           id="g18230"
           transform="translate(108.531,165.754)">
          <path
             inkscape:connector-curvature="0"
             d="m 0,0 -9.052,0 0,14.601 8.759,0 0,-2.332 -6.427,0 0,-3.515 4.444,0 0,-2.332 -4.444,0 0,-4.089 6.72,0 L 0,0 z"
             style="fill:#ffffff;fill-opacity:1;fill-rule:nonzero;stroke:none"
             id="path18232" />
        </g>
        <g
           id="g18234"
           transform="translate(119.9275,165.754)">
          <path
             inkscape:connector-curvature="0"
             d="M 0,0 -2.627,0 -4.965,4.848 -7.301,0 l -2.627,0 3.651,7.594 -3.36,7.007 2.629,0 2.043,-4.264 2.059,4.264 2.615,0 L -3.65,7.594 0,0 z"
             style="fill:#ffffff;fill-opacity:1;fill-rule:nonzero;stroke:none"
             id="path18236" />
        </g>
        <g
           id="g18238"
           transform="translate(130.1511,178.023)">
          <path
             inkscape:connector-curvature="0"
             d="m 0,0 -3.357,0 0,-12.269 -2.332,0 0,12.269 -3.363,0 0,2.332 L 0,2.332 0,0 z"
             style="fill:#ffffff;fill-opacity:1;fill-rule:nonzero;stroke:none"
             id="path18240" />
        </g>
        <g
           id="g18242"
           transform="translate(87.0906,153.691)">
          <path
             inkscape:connector-curvature="0"
             d="m 0,0 -3.358,0 0,-12.269 -2.332,0 0,12.269 -3.361,0 0,2.332 L 0,2.332 0,0 z"
             style="fill:#ffffff;fill-opacity:1;fill-rule:nonzero;stroke:none"
             id="path18244" />
        </g>
        <g
           id="g18246"
           transform="translate(96.6687,151.962)">
          <path
             inkscape:connector-curvature="0"
             d="m 0,0 c 0,0.489 -0.163,0.897 -0.489,1.231 -0.326,0.332 -0.734,0.498 -1.22,0.498 l -3.36,0 0,-3.516 3.36,0 c 0.486,0 0.894,0.174 1.22,0.52 C -0.163,-0.921 0,-0.498 0,0 m 2.527,-10.54 -2.468,0 -2.353,6.421 -2.775,0 0,-6.421 -2.331,0 0,14.601 5.675,0 C -0.607,4.061 0.35,3.662 1.143,2.87 1.935,2.077 2.332,1.12 2.332,0 2.332,-1.634 1.56,-2.861 0.016,-3.679 l 2.511,-6.861 z"
             style="fill:#ffffff;fill-opacity:1;fill-rule:nonzero;stroke:none"
             id="path18248" />
        </g>
        <g
           id="g18250"
           transform="translate(111.613,146.132)">
          <path
             inkscape:connector-curvature="0"
             d="m 0,0 c 0,-1.246 -0.452,-2.35 -1.358,-3.313 -0.975,-1.033 -2.178,-1.549 -3.61,-1.549 -1.44,0 -2.645,0.512 -3.609,1.533 -0.905,0.954 -1.359,2.064 -1.359,3.329 l 0,9.891 2.332,0 0,-9.895 c 0,-0.71 0.258,-1.309 0.776,-1.795 0.518,-0.487 1.139,-0.731 1.86,-0.731 0.733,0 1.355,0.244 1.867,0.731 0.513,0.486 0.77,1.085 0.77,1.795 l 0,9.895 L 0,9.891 0,0 z"
             style="fill:#ffffff;fill-opacity:1;fill-rule:nonzero;stroke:none"
             id="path18252" />
        </g>
        <g
           id="g18254"
           transform="translate(124.7204,144.444)">
          <path
             inkscape:connector-curvature="0"
             d="m 0,0 c -0.885,-2.116 -2.428,-3.174 -4.629,-3.174 -1.896,0 -3.299,0.842 -4.203,2.526 -0.711,1.308 -1.066,2.948 -1.066,4.926 0,1.987 0.349,3.629 1.05,4.924 0.916,1.686 2.323,2.527 4.221,2.527 2.141,0 3.692,-1.027 4.656,-3.084 L -2.177,7.737 c -0.438,1.108 -1.256,1.66 -2.454,1.66 -1.011,0 -1.771,-0.511 -2.277,-1.535 -0.44,-0.879 -0.658,-2.072 -0.658,-3.584 0,-1.511 0.218,-2.707 0.658,-3.584 0.496,-1.024 1.256,-1.536 2.277,-1.536 1.121,0 1.948,0.568 2.485,1.703 L 0,0 z"
             style="fill:#ffffff;fill-opacity:1;fill-rule:nonzero;stroke:none"
             id="path18256" />
        </g>
        <g
           id="g18258"
           transform="translate(138.1765,141.422)">
          <path
             inkscape:connector-curvature="0"
             d="m 0,0 -2.629,0 -3.754,7.007 -1.505,-1.912 0,-5.095 -2.332,0 0,14.601 2.332,0 0,-5.738 4.544,5.738 2.994,0 L -4.789,9.007 0,0 z"
             style="fill:#ffffff;fill-opacity:1;fill-rule:nonzero;stroke:none"
             id="path18260" />
        </g>
        <g
           id="g18262"
           transform="translate(93.655,117.087)">
          <path
             inkscape:connector-curvature="0"
             d="m 0,0 -9.053,0 0,14.601 2.332,0 0,-12.268 L 0,2.333 0,0 z"
             style="fill:#ffffff;fill-opacity:1;fill-rule:nonzero;stroke:none"
             id="path18264" />
        </g>
        <g
           id="g18266"
           transform="translate(102.281,123.509)">
          <path
             inkscape:connector-curvature="0"
             d="M 0,0 -1.533,4.457 -3.053,0 0,0 z m 4.672,-6.422 -2.469,0 -1.4,4.09 -4.688,0 -1.372,-4.09 -2.48,0 5.02,14.601 2.365,0 5.024,-14.601 z"
             style="fill:#ffffff;fill-opacity:1;fill-rule:nonzero;stroke:none"
             id="path18268" />
        </g>
        <g
           id="g18270"
           transform="translate(119.0476,117.087)">
          <path
             inkscape:connector-curvature="0"
             d="m 0,0 -2.234,0 -5.335,9.682 0,-9.682 -2.333,0 0,14.601 2.266,0 5.304,-9.622 0,9.622 2.332,0 L 0,0 z"
             style="fill:#ffffff;fill-opacity:1;fill-rule:nonzero;stroke:none"
             id="path18272" />
        </g>
        <g
           id="g18274"
           transform="translate(131.613,117.087)">
          <path
             inkscape:connector-curvature="0"
             d="m 0,0 -9.052,0 0,14.601 8.759,0 0,-2.331 -6.427,0 0,-3.516 4.443,0 0,-2.332 -4.443,0 0,-4.089 6.72,0 L 0,0 z"
             style="fill:#ffffff;fill-opacity:1;fill-rule:nonzero;stroke:none"
             id="path18276" />
        </g>
        <g
           id="g18278"
           transform="translate(101.489,99.0211)">
          <path
             inkscape:connector-curvature="0"
             d="m 0,0 3.357,8.35 2.34,0 0,-14.601 -2.34,0 0.009,8.369 -3.359,-8.369 -3.358,8.369 0,-8.369 -2.339,0 0,14.601 2.334,0 L 0,0 z"
             style="fill:#ffffff;fill-opacity:1;fill-rule:nonzero;stroke:none"
             id="path18280" />
        </g>
        <path
           inkscape:connector-curvature="0"
           d="m 113.038,92.77 -2.34,0 0,14.601 2.34,0 0,-14.601 z"
           style="fill:#ffffff;fill-opacity:1;fill-rule:nonzero;stroke:none"
           id="path18282" />
        <g
           id="g18284"
           transform="translate(125.5974,92.7701)">
          <path
             inkscape:connector-curvature="0"
             d="m 0,0 -9.058,0 0,14.601 2.34,0 0,-12.261 L 0,2.34 0,0 z"
             style="fill:#ffffff;fill-opacity:1;fill-rule:nonzero;stroke:none"
             id="path18286" />
        </g>
        <g
           id="g18288"
           transform="translate(136.8445,92.7701)">
          <path
             inkscape:connector-curvature="0"
             d="m 0,0 -9.057,0 0,14.601 8.765,0 0,-2.34 -6.425,0 0,-3.494 4.438,0 0,-2.34 -4.438,0 0,-4.087 L 0,2.34 0,0 z"
             style="fill:#ffffff;fill-opacity:1;fill-rule:nonzero;stroke:none"
             id="path18290" />
        </g>
        <g
           id="g18292"
           transform="translate(148.2497,97.113)">
          <path
             inkscape:connector-curvature="0"
             d="m 0,0 c 0,-1.315 -0.472,-2.391 -1.418,-3.228 -0.943,-0.838 -2.107,-1.255 -3.492,-1.255 -1.753,0 -3.117,0.631 -4.091,1.895 -0.409,0.526 -0.721,1.158 -0.935,1.897 l 2.162,0.687 c 0.4,-1.428 1.363,-2.14 2.893,-2.14 0.652,0 1.227,0.19 1.724,0.571 0.544,0.417 0.817,0.943 0.817,1.575 0,0.828 -0.618,1.485 -1.854,1.971 C -5.345,2.422 -6.493,2.87 -7.644,3.316 -8.88,4.038 -9.5,5.089 -9.5,6.471 c 0,1.177 0.341,2.108 1.023,2.789 0.779,0.767 1.953,1.154 3.52,1.154 2.046,0 3.518,-0.984 4.413,-2.954 L -2.72,6.773 c -0.42,0.867 -1.158,1.301 -2.219,1.301 -1.48,0 -2.221,-0.536 -2.221,-1.606 0,-0.693 0.62,-1.246 1.856,-1.665 C -3.365,4.141 -2.215,3.698 -1.855,3.474 -0.618,2.694 0,1.536 0,0"
             style="fill:#ffffff;fill-opacity:1;fill-rule:nonzero;stroke:none"
             id="path18294" />
        </g>
        <g
           id="g18296"
           transform="translate(81.198,90.317)">
          <path
             inkscape:connector-curvature="0"
             d="m 0,0 -13.232,0 c 0,4.144 2.148,7.554 6.444,10.229 1.843,1.156 2.797,1.76 2.861,1.812 0.545,0.441 0.818,1.039 0.818,1.793 0,1.817 -1.247,2.727 -3.738,2.727 -1.142,0 -2.031,-0.469 -2.667,-1.408 -0.402,-0.613 -0.603,-1.102 -0.603,-1.467 l -3.115,0.799 c 0.403,1.352 1.032,2.476 1.887,3.372 1.181,1.209 2.679,1.814 4.495,1.814 2.167,0 3.879,-0.598 5.138,-1.792 C -0.57,16.788 0,15.437 0,13.827 0,12.672 -0.221,11.724 -0.661,10.983 -1.024,10.373 -1.628,9.776 -2.471,9.192 -3.379,8.634 -4.28,8.075 -5.175,7.517 -7.756,5.881 -9.118,4.413 -9.261,3.115 L 0,3.115 0,0 z"
             style="fill:#ffffff;fill-opacity:1;fill-rule:nonzero;stroke:none"
             id="path18298" />
        </g>
      </g>
    </g>
  </g>
</svg>
