<?xml version="1.0" encoding="UTF-8" standalone="no"?>
<!-- Created with Inkscape (http://www.inkscape.org/) -->

<svg
   xmlns:dc="http://purl.org/dc/elements/1.1/"
   xmlns:cc="http://creativecommons.org/ns#"
   xmlns:rdf="http://www.w3.org/1999/02/22-rdf-syntax-ns#"
   xmlns:svg="http://www.w3.org/2000/svg"
   xmlns="http://www.w3.org/2000/svg"
   xmlns:sodipodi="http://sodipodi.sourceforge.net/DTD/sodipodi-0.dtd"
   xmlns:inkscape="http://www.inkscape.org/namespaces/inkscape"
   width="219.64844"
   height="128.35938"
   id="svg19379"
   version="1.1"
   inkscape:version="0.48.2 r9819"
   sodipodi:docname="New document 172">
  <defs
     id="defs19381">
    <clipPath
       clipPathUnits="userSpaceOnUse"
       id="clipPath18406">
      <path
         inkscape:connector-curvature="0"
         d="m 56.756,45 453.613,0 0,270.17 -453.613,0 0,-270.17 z"
         id="path18408" />
    </clipPath>
    <clipPath
       clipPathUnits="userSpaceOnUse"
       id="clipPath18394">
      <path
         inkscape:connector-curvature="0"
         d="M 27.125,45 540,45 l 0,270.17 -512.875,0 0,-270.17 z"
         id="path18396" />
    </clipPath>
  </defs>
  <sodipodi:namedview
     id="base"
     pagecolor="#ffffff"
     bordercolor="#666666"
     borderopacity="1.0"
     inkscape:pageopacity="0.0"
     inkscape:pageshadow="2"
     inkscape:zoom="0.35"
     inkscape:cx="67.49442"
     inkscape:cy="-10.112593"
     inkscape:document-units="px"
     inkscape:current-layer="layer1"
     showgrid="false"
     fit-margin-top="0"
     fit-margin-left="0"
     fit-margin-right="0"
     fit-margin-bottom="0"
     inkscape:window-width="469"
     inkscape:window-height="425"
     inkscape:window-x="1566"
     inkscape:window-y="200"
     inkscape:window-maximized="0" />
  <metadata
     id="metadata19384">
    <rdf:RDF>
      <cc:Work
         rdf:about="">
        <dc:format>image/svg+xml</dc:format>
        <dc:type
           rdf:resource="http://purl.org/dc/dcmitype/StillImage" />
        <dc:title></dc:title>
      </cc:Work>
    </rdf:RDF>
  </metadata>
  <g
     inkscape:label="Layer 1"
     inkscape:groupmode="layer"
     id="layer1"
     transform="translate(-295.88147,-393.89021)">
    <g
       transform="matrix(1.25,0,0,-1.25,-122.43084,618.11959)"
       id="g18390">
      <g
         id="g18392"
         clip-path="url(#clipPath18394)">
        <g
           id="g18398"
           transform="translate(510.1186,83.321)">
          <path
             inkscape:connector-curvature="0"
             d="m 0,0 c 0,-3.528 -2.861,-6.388 -6.389,-6.388 l -162.429,0 c -3.527,0 -6.387,2.86 -6.387,6.388 l 0,89.428 c 0,3.527 2.86,6.387 6.387,6.387 l 162.429,0 C -2.861,95.815 0,92.955 0,89.428 L 0,0 z"
             style="fill:#ffffff;fill-opacity:1;fill-rule:nonzero;stroke:none"
             id="path18400" />
        </g>
      </g>
    </g>
    <g
       transform="matrix(1.25,0,0,-1.25,-122.43084,618.11959)"
       id="g18402">
      <g
         id="g18404"
         clip-path="url(#clipPath18406)">
        <g
           id="g18410"
           transform="translate(510.1186,83.321)">
          <path
             inkscape:connector-curvature="0"
             d="m 0,0 c 0,-3.528 -2.861,-6.388 -6.389,-6.388 l -162.429,0 c -3.527,0 -6.387,2.86 -6.387,6.388 l 0,89.428 c 0,3.527 2.86,6.387 6.387,6.387 l 162.429,0 C -2.861,95.815 0,92.955 0,89.428 L 0,0 z"
             style="fill:none;stroke:#231f20;stroke-width:0.5;stroke-linecap:butt;stroke-linejoin:miter;stroke-miterlimit:4;stroke-opacity:1;stroke-dasharray:none"
             id="path18412" />
        </g>
      </g>
    </g>
    <g
       id="g18422"
       transform="matrix(1.25,0,0,-1.25,298.87241,513.96834)">
      <path
         d="m 0,0 0,89.428 c 0,2.347 1.911,4.257 4.258,4.257 l 162.429,0 c 2.349,0 4.259,-1.91 4.259,-4.257 l 0,-89.428 c 0,-2.349 -1.91,-4.259 -4.259,-4.259 l -162.429,0 C 1.911,-4.259 0,-2.349 0,0"
         style="fill:#00674c;fill-opacity:1;fill-rule:nonzero;stroke:none"
         id="path18424"
         inkscape:connector-curvature="0" />
    </g>
    <g
       id="g18426"
       transform="matrix(1.25,0,0,-1.25,324.82241,423.34709)">
      <path
         d="m 0,0 c 0,-1.535 -0.551,-2.792 -1.654,-3.77 -1.101,-0.978 -2.46,-1.466 -4.074,-1.466 -2.046,0 -3.637,0.739 -4.774,2.216 -0.477,0.615 -0.84,1.354 -1.09,2.218 L -9.067,0 c 0.466,-1.678 1.592,-2.516 3.378,-2.516 0.762,0 1.433,0.222 2.013,0.665 0.637,0.49 0.956,1.103 0.956,1.842 0,0.967 -0.723,1.735 -2.167,2.303 -1.342,0.523 -2.684,1.046 -4.026,1.569 -1.445,0.842 -2.167,2.07 -2.167,3.684 0,1.376 0.398,2.462 1.193,3.258 0.908,0.898 2.276,1.347 4.104,1.347 2.384,0 4.099,-1.149 5.144,-3.447 L -3.178,7.903 c -0.49,1.019 -1.353,1.529 -2.591,1.529 -1.727,0 -2.59,-0.625 -2.59,-1.876 0,-0.808 0.722,-1.456 2.166,-1.945 C -3.929,4.838 -2.588,4.32 -2.167,4.059 -0.722,3.149 0,1.797 0,0"
         style="fill:#ffffff;fill-opacity:1;fill-rule:nonzero;stroke:none"
         id="path18428"
         inkscape:connector-curvature="0" />
    </g>
    <g
       id="g18430"
       transform="matrix(1.25,0,0,-1.25,340.34116,429.67084)">
      <path
         d="m 0,0 -10.56,0 0,17.034 2.721,0 0,-14.313 L 0,2.721 0,0 z"
         style="fill:#ffffff;fill-opacity:1;fill-rule:nonzero;stroke:none"
         id="path18432"
         inkscape:connector-curvature="0" />
    </g>
    <g
       id="g18434"
       transform="matrix(1.25,0,0,-1.25,353.54491,419.02446)">
      <path
         d="M 0,0 C 0,1.741 -0.256,3.135 -0.767,4.182 -1.346,5.376 -2.197,5.974 -3.322,5.974 -4.458,5.974 -5.31,5.376 -5.877,4.182 -6.389,3.145 -6.644,1.752 -6.644,0 c 0,-1.741 0.255,-3.135 0.767,-4.182 0.579,-1.194 1.431,-1.792 2.555,-1.792 1.125,0 1.976,0.598 2.555,1.792 C -0.256,-3.135 0,-1.741 0,0 m 2.721,0 c 0,-2.296 -0.409,-4.211 -1.226,-5.745 -1.056,-1.967 -2.661,-2.949 -4.817,-2.949 -2.167,0 -3.774,0.982 -4.818,2.949 -0.816,1.523 -1.224,3.437 -1.224,5.745 0,2.307 0.408,4.222 1.224,5.745 1.044,1.966 2.651,2.949 4.818,2.949 2.156,0 3.761,-0.983 4.817,-2.949 C 2.312,4.211 2.721,2.296 2.721,0"
         style="fill:#ffffff;fill-opacity:1;fill-rule:nonzero;stroke:none"
         id="path18436"
         inkscape:connector-curvature="0" />
    </g>
    <g
       id="g18438"
       transform="matrix(1.25,0,0,-1.25,367.93366,415.91584)">
      <path
         d="m 0,0 -2.759,-11.004 -2.59,0 -2.231,17.034 2.759,0 1.193,-9.199 2.316,9.199 2.623,0 2.317,-9.199 1.192,9.199 2.76,0 -2.232,-17.034 -2.589,0 L 0,0 z"
         style="fill:#ffffff;fill-opacity:1;fill-rule:nonzero;stroke:none"
         id="path18440"
         inkscape:connector-curvature="0" />
    </g>
    <g
       id="g18442"
       transform="matrix(1.25,0,0,-1.25,412.32604,408.37834)">
      <path
         d="m 0,0 -5.365,-17.034 -2.215,0 L -12.945,0 -10.083,0 -6.472,-11.532 -2.861,0 0,0 z"
         style="fill:#ffffff;fill-opacity:1;fill-rule:nonzero;stroke:none"
         id="path18444"
         inkscape:connector-curvature="0" />
    </g>
    <g
       id="g18446"
       transform="matrix(1.25,0,0,-1.25,427.42491,429.67084)">
      <path
         d="m 0,0 -10.56,0 0,17.034 10.22,0 0,-2.721 -7.499,0 0,-4.101 5.182,0 0,-2.72 -5.182,0 0,-4.771 L 0,2.721 0,0 z"
         style="fill:#ffffff;fill-opacity:1;fill-rule:nonzero;stroke:none"
         id="path18448"
         inkscape:connector-curvature="0" />
    </g>
    <g
       id="g18450"
       transform="matrix(1.25,0,0,-1.25,444.25741,429.67084)">
      <path
         d="m 0,0 -2.72,0 0,7.492 -6.151,0 0,-7.492 -2.721,0 0,17.034 2.721,0 0,-6.822 6.151,0 0,6.822 2.72,0 L 0,0 z"
         style="fill:#ffffff;fill-opacity:1;fill-rule:nonzero;stroke:none"
         id="path18452"
         inkscape:connector-curvature="0" />
    </g>
    <path
       d="m 451.50416,429.67084 -3.40125,0 0,-21.2925 3.40125,0 0,21.2925 z"
       style="fill:#ffffff;fill-opacity:1;fill-rule:nonzero;stroke:none"
       id="path18454"
       inkscape:connector-curvature="0" />
    <g
       id="g18456"
       transform="matrix(1.25,0,0,-1.25,469.33491,425.26446)">
      <path
         d="m 0,0 c -1.033,-2.468 -2.833,-3.702 -5.4,-3.702 -2.215,0 -3.849,0.982 -4.905,2.949 -0.829,1.523 -1.243,3.437 -1.243,5.745 0,2.318 0.408,4.233 1.225,5.745 1.068,1.966 2.708,2.949 4.923,2.949 2.498,0 4.31,-1.2 5.434,-3.599 L -2.539,9.029 c -0.511,1.291 -1.466,1.937 -2.864,1.937 -1.181,0 -2.067,-0.598 -2.658,-1.792 -0.512,-1.025 -0.766,-2.418 -0.766,-4.182 0,-1.764 0.254,-3.157 0.766,-4.182 0.579,-1.194 1.466,-1.792 2.658,-1.792 1.307,0 2.273,0.662 2.898,1.989 L 0,0 z"
         style="fill:#ffffff;fill-opacity:1;fill-rule:nonzero;stroke:none"
         id="path18458"
         inkscape:connector-curvature="0" />
    </g>
    <g
       id="g18460"
       transform="matrix(1.25,0,0,-1.25,485.97866,429.67084)">
      <path
         d="m 0,0 -10.561,0 0,17.034 2.72,0 0,-14.313 L 0,2.721 0,0 z"
         style="fill:#ffffff;fill-opacity:1;fill-rule:nonzero;stroke:none"
         id="path18462"
         inkscape:connector-curvature="0" />
    </g>
    <g
       id="g18464"
       transform="matrix(1.25,0,0,-1.25,501.09616,429.67084)">
      <path
         d="m 0,0 -10.562,0 0,17.034 10.221,0 0,-2.721 -7.5,0 0,-4.101 5.183,0 0,-2.72 -5.183,0 0,-4.771 L 0,2.721 0,0 z"
         style="fill:#ffffff;fill-opacity:1;fill-rule:nonzero;stroke:none"
         id="path18466"
         inkscape:connector-curvature="0" />
    </g>
    <path
       d="m 426.46291,481.38084 3.405,0 0,21.2925 -3.405,0 0,-21.2925 z"
       style="fill:#ffffff;fill-opacity:1;fill-rule:nonzero;stroke:none"
       id="path18468"
       inkscape:connector-curvature="0" />
    <g
       id="g18470"
       transform="matrix(1.25,0,0,-1.25,434.97741,502.67334)">
      <path
         d="m 0,0 0,17.034 2.687,0 0,-14.523 7.879,0 L 10.566,0 0,0 z"
         style="fill:#ffffff;fill-opacity:1;fill-rule:nonzero;stroke:none"
         id="path18472"
         inkscape:connector-curvature="0" />
    </g>
    <g
       id="g18474"
       transform="matrix(1.25,0,0,-1.25,417.98366,502.67334)">
      <path
         d="M 0,0 0,9.862 -3.953,0 l -3.953,9.862 0,-9.862 -2.695,0 0,17.034 2.695,0 3.953,-9.562 3.953,9.562 2.694,0 L 2.694,0 0,0 z"
         style="fill:#ffffff;fill-opacity:1;fill-rule:nonzero;stroke:none"
         id="path18476"
         inkscape:connector-curvature="0" />
    </g>
    <g
       id="g18478"
       transform="matrix(1.25,0,0,-1.25,451.37866,502.67334)">
      <path
         d="m 0,0 0,17.034 10.028,0 0,-2.689 -7.342,0 0,-4.184 4.955,0 0,-2.749 -4.955,0 0,-4.662 7.879,0 0,-2.75 L 0,0 z"
         style="fill:#ffffff;fill-opacity:1;fill-rule:nonzero;stroke:none"
         id="path18480"
         inkscape:connector-curvature="0" />
    </g>
    <g
       id="g18482"
       transform="matrix(1.25,0,0,-1.25,348.76491,497.34959)">
      <path
         d="m 0,0 0,13.806 -1.538,0 0,2.152 0.177,0 c 0.71,0 1.479,0.418 1.952,1.076 l 2.129,0 L 2.72,0 0,0 z"
         style="fill:#ffffff;fill-opacity:1;fill-rule:nonzero;stroke:none"
         id="path18484"
         inkscape:connector-curvature="0" />
    </g>
    <g
       id="g18486"
       transform="matrix(1.25,0,0,-1.25,380.07741,498.02709)">
      <path
         d="m 0,0 c -2.293,-1.426 -4.403,-2.057 -5.677,-5.226 l 8.368,0 0,-2.749 -11.596,0 c 0.06,1.972 0.471,3.59 1.435,5.199 C -4.482,2.221 0,1.669 0,4.337 c 0,1.256 -1.434,2.271 -3.107,2.271 -1.733,0 -2.81,-0.837 -3.108,-2.39 l -2.69,0.597 c 0.598,2.81 2.809,4.542 5.798,4.542 3.228,0 5.798,-2.27 5.798,-5.08 C 2.691,2.24 1.519,0.943 0,0"
         style="fill:#ffffff;fill-opacity:1;fill-rule:nonzero;stroke:none"
         id="path18488"
         inkscape:connector-curvature="0" />
    </g>
    <g
       id="g18490"
       transform="matrix(1.25,0,0,-1.25,354.76491,507.99584)">
      <path
         d="m 0,0 -2.812,0 14.745,25.551 2.813,0 L 0,0 z"
         style="fill:#ffffff;fill-opacity:1;fill-rule:nonzero;stroke:none"
         id="path18492"
         inkscape:connector-curvature="0" />
    </g>
    <g
       id="g18494"
       transform="matrix(1.25,0,0,-1.25,404.96866,466.17209)">
      <path
         d="m 0,0 -6.515,11.535 0,-11.535 -2.69,0 0,17.034 2.69,0 6.216,-10.878 0,10.878 2.69,0 L 2.391,0 0,0 z"
         style="fill:#ffffff;fill-opacity:1;fill-rule:nonzero;stroke:none"
         id="path18496"
         inkscape:connector-curvature="0" />
    </g>
    <g
       id="g18498"
       transform="matrix(1.25,0,0,-1.25,431.86116,449.61334)">
      <path
         d="m 0,0 c -0.539,0.898 -1.198,1.256 -2.217,1.316 -1.317,0.059 -2.157,-0.598 -2.755,-2.092 -0.419,-1.017 -0.66,-2.57 -0.66,-4.005 0,-1.793 0.36,-3.646 1.019,-4.722 0.54,-0.896 1.259,-1.314 2.337,-1.314 1.258,0 2.037,0.657 2.637,2.151 0.359,0.897 0.658,2.571 0.658,3.885 C 1.019,-2.868 0.659,-1.135 0,0 m 1.858,-11.654 c -0.958,-1.315 -2.337,-1.913 -4.134,-1.913 -2.397,0 -3.895,0.957 -4.913,3.049 -0.719,1.434 -1.198,3.705 -1.198,5.737 0,2.81 0.718,5.319 1.857,6.934 1.019,1.314 2.396,1.912 4.374,1.912 2.156,0 3.654,-0.956 4.733,-3.048 0.719,-1.494 1.138,-3.647 1.138,-5.798 0,-2.689 -0.659,-5.379 -1.857,-6.873"
         style="fill:#ffffff;fill-opacity:1;fill-rule:nonzero;stroke:none"
         id="path18500"
         inkscape:connector-curvature="0" />
    </g>
    <g
       id="g18502"
       transform="matrix(1.25,0,0,-1.25,369.26741,462.95959)">
      <path
         d="m 0,0 c -0.896,-1.673 -2.929,-2.869 -5.021,-2.869 -2.092,0 -4.124,1.196 -5.021,2.869 -0.478,1.016 -0.777,2.211 -0.777,3.527 l 0,10.936 2.69,0 0,-10.936 c 0,-2.212 1.255,-3.647 3.108,-3.647 1.853,0 3.108,1.435 3.108,3.647 l 0,10.936 2.689,0 0,-10.936 C 0.776,2.211 0.478,1.016 0,0"
         style="fill:#ffffff;fill-opacity:1;fill-rule:nonzero;stroke:none"
         id="path18504"
         inkscape:connector-curvature="0" />
    </g>
    <g
       id="g18506"
       transform="matrix(1.25,0,0,-1.25,454.71241,462.95959)">
      <path
         d="m 0,0 c -0.897,-1.673 -2.928,-2.869 -5.02,-2.869 -2.093,0 -4.125,1.196 -5.022,2.869 -0.478,1.016 -0.777,2.211 -0.777,3.527 l 0,10.936 2.691,0 0,-10.936 c 0,-2.212 1.254,-3.647 3.108,-3.647 1.853,0 3.107,1.435 3.107,3.647 l 0,10.936 2.69,0 0,-10.936 C 0.777,2.211 0.478,1.016 0,0"
         style="fill:#ffffff;fill-opacity:1;fill-rule:nonzero;stroke:none"
         id="path18508"
         inkscape:connector-curvature="0" />
    </g>
    <g
       id="g18510"
       transform="matrix(1.25,0,0,-1.25,347.59741,447.86834)">
      <path
         d="m 0,0 0,-14.643 -2.701,0 0,14.643 -3.902,0 0,2.391 10.565,0 L 3.962,0 0,0 z"
         style="fill:#ffffff;fill-opacity:1;fill-rule:nonzero;stroke:none"
         id="path18512"
         inkscape:connector-curvature="0" />
    </g>
    <g
       id="g18514"
       transform="matrix(1.25,0,0,-1.25,467.13116,447.86834)">
      <path
         d="m 0,0 0,-14.643 -2.701,0 0,14.643 -3.901,0 0,2.391 10.565,0 L 3.963,0 0,0 z"
         style="fill:#ffffff;fill-opacity:1;fill-rule:nonzero;stroke:none"
         id="path18516"
         inkscape:connector-curvature="0" />
    </g>
    <g
       id="g18518"
       transform="matrix(1.25,0,0,-1.25,384.68741,448.61584)">
      <path
         d="m 0,0 c -0.418,0.239 -0.657,0.299 -1.554,0.299 l -3.227,0 0,-4.184 3.227,0 c 0.837,0 1.136,0.061 1.554,0.299 0.658,0.36 1.076,1.076 1.076,1.793 C 1.076,-1.075 0.658,-0.358 0,0 m 1.195,-14.045 -2.749,7.411 -3.227,0 0,-7.411 -2.69,0 0,17.034 5.618,0 c 1.315,0 2.212,-0.12 3.048,-0.538 1.494,-0.717 2.571,-2.51 2.571,-4.244 0,-1.793 -1.077,-3.586 -2.63,-4.303 l 2.989,-7.949 -2.93,0 z"
         style="fill:#ffffff;fill-opacity:1;fill-rule:nonzero;stroke:none"
         id="path18520"
         inkscape:connector-curvature="0" />
    </g>
    <path
       d="m 411.15166,453.99459 7.4575,0 0,3.36125 -7.4575,0 0,-3.36125 z"
       style="fill:#ffffff;fill-opacity:1;fill-rule:nonzero;stroke:none"
       id="path18522"
       inkscape:connector-curvature="0" />
  </g>
</svg>
