<?xml version="1.0" encoding="UTF-8" standalone="no"?>
<!-- Created with Inkscape (http://www.inkscape.org/) -->

<svg
   xmlns:dc="http://purl.org/dc/elements/1.1/"
   xmlns:cc="http://creativecommons.org/ns#"
   xmlns:rdf="http://www.w3.org/1999/02/22-rdf-syntax-ns#"
   xmlns:svg="http://www.w3.org/2000/svg"
   xmlns="http://www.w3.org/2000/svg"
   xmlns:sodipodi="http://sodipodi.sourceforge.net/DTD/sodipodi-0.dtd"
   xmlns:inkscape="http://www.inkscape.org/namespaces/inkscape"
   width="110.89844"
   height="36.601562"
   id="svg11872"
   version="1.1"
   inkscape:version="0.48.2 r9819"
   sodipodi:docname="New document 120">
  <defs
     id="defs11874">
    <clipPath
       clipPathUnits="userSpaceOnUse"
       id="clipPath10188">
      <path
         inkscape:connector-curvature="0"
         d="m 63.125,401.382 513.652,0 0,336.868 -513.652,0 0,-336.868 z"
         id="path10190" />
    </clipPath>
  </defs>
  <sodipodi:namedview
     id="base"
     pagecolor="#ffffff"
     bordercolor="#666666"
     borderopacity="1.0"
     inkscape:pageopacity="0.0"
     inkscape:pageshadow="2"
     inkscape:zoom="0.35"
     inkscape:cx="110.4475"
     inkscape:cy="-101.70094"
     inkscape:document-units="px"
     inkscape:current-layer="layer1"
     showgrid="false"
     fit-margin-top="0"
     fit-margin-left="0"
     fit-margin-right="0"
     fit-margin-bottom="0"
     inkscape:window-width="469"
     inkscape:window-height="425"
     inkscape:window-x="1437"
     inkscape:window-y="177"
     inkscape:window-maximized="0" />
  <metadata
     id="metadata11877">
    <rdf:RDF>
      <cc:Work
         rdf:about="">
        <dc:format>image/svg+xml</dc:format>
        <dc:type
           rdf:resource="http://purl.org/dc/dcmitype/StillImage" />
        <dc:title></dc:title>
      </cc:Work>
    </rdf:RDF>
  </metadata>
  <g
     inkscape:label="Layer 1"
     inkscape:groupmode="layer"
     id="layer1"
     transform="translate(-264.5525,-394.05969)">
    <g
       transform="matrix(1.25,0,0,-1.25,167.59875,958.80681)"
       id="g10184">
      <g
         id="g10186"
         clip-path="url(#clipPath10188)">
        <g
           id="g10192"
           transform="translate(83.3755,451.5477)">
          <path
             inkscape:connector-curvature="0"
             d="m 0,0 77.091,0 c 3.066,0 5.566,-2.501 5.566,-5.566 l 0,-17.652 c 0,-3.066 -2.5,-5.566 -5.566,-5.566 l -77.091,0 c -3.065,0 -5.566,2.5 -5.566,5.566 l 0,17.652 C -5.566,-2.538 -3.028,0 0,0"
             style="fill:#ffffff;fill-opacity:1;fill-rule:nonzero;stroke:#231f20;stroke-width:0.5;stroke-linecap:butt;stroke-linejoin:miter;stroke-miterlimit:4;stroke-opacity:1;stroke-dasharray:none"
             id="path10194" />
        </g>
        <g
           id="g10196"
           transform="translate(160.436,449.1627)">
          <path
             inkscape:connector-curvature="0"
             d="M 0,0 C 1.803,-0.055 3.156,-1.409 3.212,-3.212 L 3.206,-20.997 C 3.074,-22.679 1.709,-24.016 0,-24.014 l -77.225,0.005 c -1.68,0.131 -3.021,1.499 -3.016,3.207 l 0.005,17.786 c 0.131,1.681 1.499,3.018 3.206,3.016 L 0,0"
             style="fill:#00674c;fill-opacity:1;fill-rule:evenodd;stroke:none"
             id="path10198" />
        </g>
        <g
           id="g10200"
           transform="translate(97.7397,436.5477)">
          <path
             inkscape:connector-curvature="0"
             d="m 0,0 c 0,1.792 -0.578,3.231 -1.598,4.063 -0.51,0.385 -0.884,0.481 -1.871,0.481 l -3.129,0 0,-9.12 2.959,0 0.544,0 c 0.511,0.032 1.021,0.192 1.395,0.513 C -0.611,-3.265 0,-1.824 0,0 m -1.564,0 c 0,-1.216 -0.306,-2.208 -0.884,-2.752 -0.273,-0.257 -0.578,-0.352 -1.089,-0.352 l -1.53,0 0,6.208 1.734,0 c 0.408,0 0.749,-0.16 0.986,-0.384 C -1.87,2.239 -1.564,1.216 -1.564,0"
             style="fill:#ffffff;fill-opacity:1;fill-rule:nonzero;stroke:none"
             id="path10202" />
        </g>
        <g
           id="g10204"
           transform="translate(105.0181,434.6917)">
          <path
             inkscape:connector-curvature="0"
             d="m 0,0 c 0.034,1.632 -0.033,4.095 -2.822,4.095 -2.449,0 -2.925,-1.983 -2.925,-3.455 0,-1.728 0.476,-3.488 2.925,-3.488 1.427,0 2.177,0.672 2.585,1.536 l -1.259,0.735 c -0.17,-0.576 -0.681,-0.927 -1.326,-0.927 -0.952,0 -1.259,0.767 -1.327,1.504 L 0,0 z m -1.53,1.343 -2.653,0 c 0,0.672 0.17,1.409 1.361,1.409 1.156,0 1.292,-0.768 1.292,-1.409"
             style="fill:#ffffff;fill-opacity:1;fill-rule:nonzero;stroke:none"
             id="path10206" />
        </g>
        <g
           id="g10208"
           transform="translate(110.5278,431.9717)">
          <path
             inkscape:connector-curvature="0"
             d="M 0,0 0,4.416 C 0,5.28 -0.612,5.472 -1.429,5.472 -2.04,5.44 -2.619,5.12 -2.619,4.352 l 0,-4.352 -1.565,0 0,6.655 1.532,0 0,-0.223 C -1.055,7.391 1.53,6.624 1.53,4.576 L 1.53,0 0,0 z"
             style="fill:#ffffff;fill-opacity:1;fill-rule:nonzero;stroke:none"
             id="path10210" />
        </g>
        <g
           id="g10212"
           transform="translate(117.228,431.9717)">
          <path
             inkscape:connector-curvature="0"
             d="m 0,0 -1.36,0 -2.722,6.655 1.633,0 1.768,-4.479 1.701,4.479 1.735,0 L 0,0 z"
             style="fill:#ffffff;fill-opacity:1;fill-rule:nonzero;stroke:none"
             id="path10214" />
        </g>
        <g
           id="g10216"
           transform="translate(126.5122,434.6917)">
          <path
             inkscape:connector-curvature="0"
             d="m 0,0 c 0.034,1.632 -0.033,4.095 -2.822,4.095 -2.449,0 -2.925,-1.983 -2.925,-3.455 0,-1.728 0.476,-3.488 2.925,-3.488 1.427,0 2.177,0.672 2.585,1.536 l -1.259,0.735 c -0.17,-0.576 -0.681,-0.927 -1.326,-0.927 -0.952,0 -1.259,0.767 -1.327,1.504 L 0,0 z m -1.53,1.343 -2.653,0 c 0,0.672 0.17,1.409 1.361,1.409 1.156,0 1.292,-0.768 1.292,-1.409"
             style="fill:#ffffff;fill-opacity:1;fill-rule:nonzero;stroke:none"
             id="path10218" />
        </g>
        <g
           id="g10220"
           transform="translate(131.3081,437.0597)">
          <path
             inkscape:connector-curvature="0"
             d="m 0,0 c -0.307,0.223 -0.545,0.384 -0.919,0.384 -0.884,0 -0.986,-0.48 -0.986,-1.312 l 0,-4.16 -1.565,0 0,6.655 1.565,0 0,-0.319 c 0.374,0.319 0.545,0.479 1.089,0.479 0.543,0 0.782,-0.191 1.02,-0.447 L 0,0 z"
             style="fill:#ffffff;fill-opacity:1;fill-rule:nonzero;stroke:none"
             id="path10222" />
        </g>
        <g
           id="g10224"
           transform="translate(137.4976,431.9717)">
          <path
             inkscape:connector-curvature="0"
             d="m 0,0 c 0.034,1.055 0.272,1.92 0.816,2.784 0.409,0.703 1.021,1.279 1.701,1.76 0.17,0.095 0.306,0.191 0.442,0.288 L 3.47,5.088 3.946,5.344 4.422,5.6 C 4.796,5.823 5.068,6.208 5.068,6.592 5.068,7.264 4.252,7.807 3.3,7.807 2.312,7.807 1.701,7.36 1.53,6.528 L 0,6.848 C 0.34,8.352 1.599,9.28 3.3,9.28 5.137,9.28 6.599,8.063 6.599,6.559 6.599,5.856 6.259,5.151 5.612,4.608 5.476,4.512 5.341,4.416 5.204,4.352 L 4.728,4.063 4.218,3.807 3.742,3.552 C 2.823,3.04 2.312,2.496 1.837,1.472 l 4.762,0 L 6.599,0 0,0 z"
             style="fill:#ffffff;fill-opacity:1;fill-rule:nonzero;stroke:none"
             id="path10226" />
        </g>
        <g
           id="g10228"
           transform="translate(152.8716,436.5157)">
          <path
             inkscape:connector-curvature="0"
             d="m 0,0 c 0,1.152 -0.238,2.304 -0.647,3.103 -0.612,1.121 -1.462,1.633 -2.686,1.633 -1.123,0 -1.905,-0.32 -2.483,-1.024 C -6.463,2.847 -6.87,1.504 -6.87,0 c 0,-1.088 0.271,-2.305 0.68,-3.072 0.578,-1.12 1.428,-1.632 2.789,-1.632 1.02,0 1.802,0.32 2.346,1.024 C -0.374,-2.88 0,-1.44 0,0 m -1.531,0 c 0,-0.704 -0.17,-1.6 -0.374,-2.08 -0.34,-0.8 -0.783,-1.153 -1.496,-1.153 -0.613,0 -1.021,0.225 -1.327,0.705 -0.374,0.576 -0.578,1.568 -0.578,2.528 0,0.767 0.136,1.599 0.374,2.144 0.34,0.799 0.817,1.152 1.565,1.119 C -2.789,3.232 -2.415,3.04 -2.109,2.56 -1.735,1.952 -1.531,1.023 -1.531,0"
             style="fill:#ffffff;fill-opacity:1;fill-rule:nonzero;stroke:none"
             id="path10230" />
        </g>
      </g>
    </g>
  </g>
</svg>
