<?xml version="1.0" encoding="UTF-8" standalone="no"?>
<!-- Created with Inkscape (http://www.inkscape.org/) -->

<svg
   xmlns:dc="http://purl.org/dc/elements/1.1/"
   xmlns:cc="http://creativecommons.org/ns#"
   xmlns:rdf="http://www.w3.org/1999/02/22-rdf-syntax-ns#"
   xmlns:svg="http://www.w3.org/2000/svg"
   xmlns="http://www.w3.org/2000/svg"
   xmlns:sodipodi="http://sodipodi.sourceforge.net/DTD/sodipodi-0.dtd"
   xmlns:inkscape="http://www.inkscape.org/namespaces/inkscape"
   width="93.268753"
   height="32.96125"
   id="svg15902"
   version="1.1"
   inkscape:version="0.48.2 r9819"
   sodipodi:docname="New document 144">
  <defs
     id="defs15904" />
  <sodipodi:namedview
     id="base"
     pagecolor="#ffffff"
     bordercolor="#666666"
     borderopacity="1.0"
     inkscape:pageopacity="0.0"
     inkscape:pageshadow="2"
     inkscape:zoom="1.4"
     inkscape:cx="78.734091"
     inkscape:cy="-4.3878046"
     inkscape:document-units="px"
     inkscape:current-layer="layer1"
     showgrid="false"
     fit-margin-top="0"
     fit-margin-left="0"
     fit-margin-right="0"
     fit-margin-bottom="0"
     inkscape:window-width="469"
     inkscape:window-height="425"
     inkscape:window-x="1526"
     inkscape:window-y="115"
     inkscape:window-maximized="0" />
  <metadata
     id="metadata15907">
    <rdf:RDF>
      <cc:Work
         rdf:about="">
        <dc:format>image/svg+xml</dc:format>
        <dc:type
           rdf:resource="http://purl.org/dc/dcmitype/StillImage" />
        <dc:title></dc:title>
      </cc:Work>
    </rdf:RDF>
  </metadata>
  <g
     inkscape:label="Layer 1"
     inkscape:groupmode="layer"
     id="layer1"
     transform="translate(-233.36563,-527.31013)">
    <g
       id="g15524"
       transform="matrix(1.25,0,0,-1.25,240.14563,527.62263)">
      <path
         d="m 0,0 63.768,0 c 2.849,0 5.173,-2.324 5.173,-5.174 l 0,-15.521 c 0,-2.85 -2.324,-5.174 -5.173,-5.174 l -63.768,0 c -2.85,0 -5.174,2.324 -5.174,5.174 l 0,15.521 C -5.174,-2.359 -2.813,0 0,0"
         style="fill:#ffffff;fill-opacity:1;fill-rule:nonzero;stroke:#231f20;stroke-width:0.5;stroke-linecap:butt;stroke-linejoin:miter;stroke-miterlimit:4;stroke-opacity:1;stroke-dasharray:none"
         id="path15526"
         inkscape:connector-curvature="0" />
    </g>
    <g
       id="g15528"
       transform="matrix(1.25,0,0,-1.25,319.82625,530.04688)">
      <path
         d="M 0,0 C 1.783,-0.012 3.254,-1.471 3.257,-3.26 L 3.254,-18.924 c -0.098,-1.654 -1.432,-2.941 -3.063,-3.06 l -63.91,-0.006 c -1.783,0.006 -3.254,1.472 -3.26,3.258 l 0.006,15.664 c 0.098,1.658 1.428,2.939 3.062,3.062 L 0,0"
         style="fill:#00674c;fill-opacity:1;fill-rule:evenodd;stroke:none"
         id="path15530"
         inkscape:connector-curvature="0" />
    </g>
    <g
       id="g15544"
       transform="matrix(1.25,0,0,-1.25,242.46013,551.9085)">
      <path
         d="m 0,0 0,9.618 4.523,0 0,-1.349 -3.139,0 0,-2.43 1.991,0 0,-1.317 -1.991,0 0,-3.172 3.51,0 L 4.894,0 0,0 z"
         style="fill:#ffffff;fill-opacity:1;fill-rule:nonzero;stroke:none"
         id="path15546"
         inkscape:connector-curvature="0" />
    </g>
    <g
       id="g15548"
       transform="matrix(1.25,0,0,-1.25,267.29374,551.9085)">
      <path
         d="M 0,0 0,7.2 -2.384,0 l -2.385,7.2 0,-7.2 -1.845,0 0,12.825 1.845,0 2.385,-7.2 2.384,7.2 1.846,0 L 1.846,0 0,0 z"
         style="fill:#ffffff;fill-opacity:1;fill-rule:nonzero;stroke:none"
         id="path15550"
         inkscape:connector-curvature="0" />
    </g>
    <g
       id="g15552"
       transform="matrix(1.25,0,0,-1.25,277.47626,546.73387)">
      <path
         d="m 0,0 c -0.946,0.855 -2.611,0.631 -2.611,-1.034 0,-1.171 0.63,-1.665 1.531,-1.665 0.63,0 1.08,0.269 1.08,0.854 L 0,0 z m 0.09,-4.14 0,0.27 c -0.315,-0.27 -0.991,-0.404 -1.576,-0.404 -1.574,0 -2.924,1.394 -2.924,3.285 0,2.654 2.25,3.824 4.41,2.79 -0.045,1.125 -0.045,1.979 -1.486,1.979 -0.809,0 -1.62,-0.675 -1.934,-1.17 l -0.45,1.755 c 0.764,0.72 1.71,1.08 2.61,1.08 2.475,0 3.015,-1.799 3.015,-3.33 l 0,-6.255 -1.665,0 z"
         style="fill:#ffffff;fill-opacity:1;fill-rule:nonzero;stroke:none"
         id="path15554"
         inkscape:connector-curvature="0" />
    </g>
    <path
       d="m 282.36988,540.20825 2.25,0 0,11.7 -2.25,0 0,-11.7 z m 1.12374,-2.25 c -0.6175,0 -1.12374,-0.50625 -1.12374,-1.12375 0,-0.675 0.50624,-1.1825 1.12374,-1.1825 0.67501,0 1.18251,0.5075 1.18251,1.1825 0,0.6175 -0.5075,1.12375 -1.18251,1.12375"
       style="fill:#ffffff;fill-opacity:1;fill-rule:nonzero;stroke:none"
       id="path15556"
       inkscape:connector-curvature="0" />
    <g
       id="g15558"
       transform="matrix(1.25,0,0,-1.25,293.39375,551.9085)">
      <path
         d="M 0,0 0,6.39 C 0,7.605 -0.675,7.875 -1.575,7.875 -2.25,7.83 -2.88,7.47 -2.88,6.39 l 0,-6.39 -1.8,0 0,9.36 1.755,0 0,-0.405 C -2.115,9.99 1.8,10.08 1.8,6.435 L 1.8,0 0,0 z"
         style="fill:#ffffff;fill-opacity:1;fill-rule:nonzero;stroke:none"
         id="path15560"
         inkscape:connector-curvature="0" />
    </g>
    <g
       id="g15562"
       transform="matrix(1.25,0,0,-1.25,309.0175,552.11963)">
      <path
         d="m 0,0 c -1.687,0 -2.7,1.418 -2.7,3.004 l 1.35,0 c 0,-0.81 0.405,-1.653 1.35,-1.653 0.742,0 1.35,0.674 1.35,1.451 0,0.54 -0.202,0.944 -0.777,1.384 -0.202,0.202 0.338,-0.169 -1.62,1.147 -0.776,0.54 -1.18,1.282 -1.18,2.126 0,1.384 1.079,2.497 2.463,2.497 1.35,0 2.396,-1.046 2.43,-2.497 l -1.316,0 C 1.316,8.134 0.844,8.572 0.236,8.572 -0.405,8.572 -0.912,8.1 -0.912,7.459 -0.912,6.986 -0.709,6.717 0,6.312 1.856,5.231 2.666,4.186 2.666,2.802 2.666,1.249 1.485,0 0,0"
         style="fill:#ffffff;fill-opacity:1;fill-rule:nonzero;stroke:none"
         id="path15564"
         inkscape:connector-curvature="0" />
    </g>
    <g
       id="g15566"
       transform="matrix(1.25,0,0,-1.25,317.285,551.69725)">
      <path
         d="m 0,0 c -0.438,-0.236 -0.709,-0.304 -1.045,-0.304 -1.013,-0.067 -1.317,0.81 -1.317,1.823 l 0,4.049 -0.911,0 0,1.283 0.911,0 0,2.025 1.35,0.742 0,-2.767 1.114,0 0,-1.283 -1.114,0 0,-3.915 c 0,-0.472 0.068,-0.674 0.472,-0.674 0.304,0 0.44,0.101 0.744,0.337 L 0,0 z"
         style="fill:#ffffff;fill-opacity:1;fill-rule:nonzero;stroke:none"
         id="path15568"
         inkscape:connector-curvature="0" />
    </g>
  </g>
</svg>
