<?xml version="1.0" encoding="UTF-8" standalone="no"?>
<!-- Created with Inkscape (http://www.inkscape.org/) -->

<svg
   xmlns:dc="http://purl.org/dc/elements/1.1/"
   xmlns:cc="http://creativecommons.org/ns#"
   xmlns:rdf="http://www.w3.org/1999/02/22-rdf-syntax-ns#"
   xmlns:svg="http://www.w3.org/2000/svg"
   xmlns="http://www.w3.org/2000/svg"
   xmlns:sodipodi="http://sodipodi.sourceforge.net/DTD/sodipodi-0.dtd"
   xmlns:inkscape="http://www.inkscape.org/namespaces/inkscape"
   width="161.8125"
   height="79.263748"
   id="svg17561"
   version="1.1"
   inkscape:version="0.48.2 r9819"
   sodipodi:docname="New document 157">
  <defs
     id="defs17563">
    <clipPath
       clipPathUnits="userSpaceOnUse"
       id="clipPath14802">
      <path
         inkscape:connector-curvature="0"
         d="m 31.373,477.193 504.321,0 0,261.789 -504.321,0 0,-261.789 z"
         id="path14804" />
    </clipPath>
    <clipPath
       clipPathUnits="userSpaceOnUse"
       id="clipPath14790">
      <path
         inkscape:connector-curvature="0"
         d="m 27,475.204 513,0 0,263.795 -513,0 0,-263.795 z"
         id="path14792" />
    </clipPath>
  </defs>
  <sodipodi:namedview
     id="base"
     pagecolor="#ffffff"
     bordercolor="#666666"
     borderopacity="1.0"
     inkscape:pageopacity="0.0"
     inkscape:pageshadow="2"
     inkscape:zoom="0.7"
     inkscape:cx="113.80452"
     inkscape:cy="48.397944"
     inkscape:document-units="px"
     inkscape:current-layer="layer1"
     showgrid="false"
     fit-margin-top="0"
     fit-margin-left="0"
     fit-margin-right="0"
     fit-margin-bottom="0"
     inkscape:window-width="469"
     inkscape:window-height="425"
     inkscape:window-x="1391"
     inkscape:window-y="25"
     inkscape:window-maximized="0" />
  <metadata
     id="metadata17566">
    <rdf:RDF>
      <cc:Work
         rdf:about="">
        <dc:format>image/svg+xml</dc:format>
        <dc:type
           rdf:resource="http://purl.org/dc/dcmitype/StillImage" />
        <dc:title></dc:title>
      </cc:Work>
    </rdf:RDF>
  </metadata>
  <g
     inkscape:label="Layer 1"
     inkscape:groupmode="layer"
     id="layer1"
     transform="translate(-247.66517,-472.73035)">
    <g
       transform="matrix(1.25,0,0,-1.25,208.4483,1165.3681)"
       id="g14786">
      <g
         id="g14788"
         clip-path="url(#clipPath14790)">
        <g
           id="g14794"
           transform="translate(37.8745,553.8602)">
          <path
             inkscape:connector-curvature="0"
             d="m 0,0 116.449,0 c 3.442,0 6.25,-2.808 6.25,-6.251 l 0,-50.408 c 0,-3.44 -2.808,-6.252 -6.25,-6.252 L 0,-62.911 c -3.443,0 -6.251,2.812 -6.251,6.252 l 0,50.408 C -6.251,-2.85 -3.4,0 0,0"
             style="fill:#ffffff;fill-opacity:1;fill-rule:nonzero;stroke:none"
             id="path14796" />
        </g>
      </g>
    </g>
    <g
       transform="matrix(1.25,0,0,-1.25,208.4483,1165.3681)"
       id="g14798">
      <g
         id="g14800"
         clip-path="url(#clipPath14802)">
        <g
           id="g14806"
           transform="translate(37.8745,553.8602)">
          <path
             inkscape:connector-curvature="0"
             d="m 0,0 116.449,0 c 3.442,0 6.25,-2.808 6.25,-6.251 l 0,-50.408 c 0,-3.44 -2.808,-6.252 -6.25,-6.252 L 0,-62.911 c -3.443,0 -6.251,2.812 -6.251,6.252 l 0,50.408 C -6.251,-2.85 -3.4,0 0,0"
             style="fill:none;stroke:#231f20;stroke-width:0.5;stroke-linecap:butt;stroke-linejoin:miter;stroke-miterlimit:4;stroke-opacity:1;stroke-dasharray:none"
             id="path14808" />
        </g>
      </g>
    </g>
    <g
       id="g14818"
       transform="matrix(1.25,0,0,-1.25,401.30967,476.39143)">
      <path
         d="M 0,0 C 2.019,-0.045 3.551,-1.594 3.606,-3.607 L 3.6,-54.162 C 3.453,-56.063 1.917,-57.541 0,-57.55 l -116.598,0.008 c -1.9,0.126 -3.38,1.693 -3.388,3.598 l 0.005,50.556 c 0.146,1.898 1.684,3.38 3.601,3.388 L 0,0"
         style="fill:#00674c;fill-opacity:1;fill-rule:evenodd;stroke:none"
         id="path14820"
         inkscape:connector-curvature="0" />
    </g>
    <g
       id="g14822"
       transform="matrix(1.25,0,0,-1.25,264.78793,508.36518)">
      <path
         d="m 0,0 c -1.217,0 -2.434,0.514 -3.324,1.357 -0.281,0.28 -0.467,0.515 -0.796,1.077 l 1.92,0.889 c 0.655,-0.842 1.311,-1.17 2.2,-1.17 1.451,0 2.248,0.936 2.248,2.528 l 0,8.895 2.152,0 0,-9.317 C 4.4,1.731 2.622,0 0,0"
         style="fill:#ffffff;fill-opacity:1;fill-rule:nonzero;stroke:none"
         id="path14824"
         inkscape:connector-curvature="0" />
    </g>
    <g
       id="g14826"
       transform="matrix(1.25,0,0,-1.25,283.39705,501.92893)">
      <path
         d="m 0,0 c 0,2.341 -0.702,5.057 -4.026,5.057 -3.371,0 -4.073,-2.904 -4.073,-5.057 0,-2.528 0.702,-5.102 4.073,-5.102 C -0.702,-5.102 0,-2.341 0,0 m -2.154,0 c 0,-0.983 -0.234,-3.184 -1.872,-3.184 -1.638,0 -1.92,2.154 -1.92,3.137 0,0.984 0.282,3.137 1.92,3.137 1.592,0 1.872,-2.153 1.872,-3.09"
         style="fill:#ffffff;fill-opacity:1;fill-rule:nonzero;stroke:none"
         id="path14828"
         inkscape:connector-curvature="0" />
    </g>
    <g
       id="g14830"
       transform="matrix(1.25,0,0,-1.25,293.22743,508.07394)">
      <path
         d="M 0,0 0,6.461 C 0,7.725 -0.843,8.006 -1.966,8.006 -2.81,7.959 -3.605,7.491 -3.605,6.367 l 0,-6.367 -2.154,0 0,12.547 2.107,1.03 0,-4.167 c 2.2,1.404 5.758,0.281 5.758,-2.715 L 2.106,0 0,0 z"
         style="fill:#ffffff;fill-opacity:1;fill-rule:nonzero;stroke:none"
         id="path14832"
         inkscape:connector-curvature="0" />
    </g>
    <g
       id="g14834"
       transform="matrix(1.25,0,0,-1.25,306.2188,508.07394)">
      <path
         d="M 0,0 0,6.461 C 0,7.725 -0.844,8.006 -1.967,8.006 -2.81,7.959 -3.605,7.491 -3.605,6.367 l 0,-6.367 -2.155,0 0,9.738 2.108,0 0,-0.328 c 2.2,1.404 5.758,0.281 5.758,-2.715 L 2.106,0 0,0 z"
         style="fill:#ffffff;fill-opacity:1;fill-rule:nonzero;stroke:none"
         id="path14836"
         inkscape:connector-curvature="0" />
    </g>
    <g
       id="g14838"
       transform="matrix(1.25,0,0,-1.25,314.58542,508.30643)">
      <path
         d="m 0,0 c -1.404,0 -2.247,0.608 -2.856,1.544 l 1.499,1.264 C -0.889,2.2 -0.281,1.778 0.328,1.965 1.217,2.2 1.311,3.042 0.608,3.791 c -1.264,1.452 -3.276,2.06 -3.417,3.558 -0.094,1.311 0.608,2.388 2.014,2.716 1.123,0.28 2.527,0 3.652,-1.358 L 1.358,7.49 c 0,0 -1.03,1.217 -1.733,0.514 C -1.545,6.881 3.605,5.617 3.371,2.714 3.277,1.263 2.107,0 0,0"
         style="fill:#ffffff;fill-opacity:1;fill-rule:nonzero;stroke:none"
         id="path14840"
         inkscape:connector-curvature="0" />
    </g>
    <g
       id="g14842"
       transform="matrix(1.25,0,0,-1.25,330.44417,501.92893)">
      <path
         d="m 0,0 c 0,2.341 -0.703,5.057 -4.026,5.057 -3.37,0 -4.073,-2.904 -4.073,-5.057 0,-2.528 0.703,-5.102 4.073,-5.102 C -0.703,-5.102 0,-2.341 0,0 m -2.154,0 c 0,-0.983 -0.233,-3.184 -1.872,-3.184 -1.639,0 -1.92,2.154 -1.92,3.137 0,0.984 0.281,3.137 1.92,3.137 1.592,0 1.872,-2.153 1.872,-3.09"
         style="fill:#ffffff;fill-opacity:1;fill-rule:nonzero;stroke:none"
         id="path14844"
         inkscape:connector-curvature="0" />
    </g>
    <g
       id="g14846"
       transform="matrix(1.25,0,0,-1.25,340.27392,508.07394)">
      <path
         d="M 0,0 0,6.461 C 0,7.725 -0.842,8.006 -1.965,8.006 -2.808,7.959 -3.605,7.491 -3.605,6.367 l 0,-6.367 -2.153,0 0,9.738 2.107,0 0,-0.328 c 2.2,1.404 5.757,0.281 5.757,-2.715 L 2.106,0 0,0 z"
         style="fill:#ffffff;fill-opacity:1;fill-rule:nonzero;stroke:none"
         id="path14848"
         inkscape:connector-curvature="0" />
    </g>
    <g
       id="g14850"
       transform="matrix(1.25,0,0,-1.25,363.3873,503.45018)">
      <path
         d="m 0,0 c 0,-1.03 -0.561,-1.545 -1.637,-1.545 l -3.185,0 0,3.652 2.669,0 c 0.469,0 0.61,0 0.891,-0.094 C -0.514,1.732 0,0.889 0,0 m 2.155,0.047 c 0,1.451 -0.797,2.574 -2.2,3.23 1.262,0.702 1.872,1.685 1.872,2.997 0,1.919 -1.593,3.37 -3.699,3.37 l -5.056,0 0,-13.343 5.056,0 c 0.61,0 1.405,0.141 1.872,0.328 1.264,0.515 2.155,1.967 2.155,3.418 M -0.28,6.18 C -0.28,5.571 -0.561,5.009 -1.03,4.635 -1.403,4.354 -1.684,4.26 -2.293,4.26 l -2.529,0 0,3.277 3.091,0 c 0.936,0 1.451,-0.468 1.451,-1.357"
         style="fill:#ffffff;fill-opacity:1;fill-rule:nonzero;stroke:none"
         id="path14852"
         inkscape:connector-curvature="0" />
    </g>
    <g
       id="g14854"
       transform="matrix(1.25,0,0,-1.25,368.53806,508.07394)">
      <path
         d="M 0,0 0,12.547 2.153,13.577 2.153,0 0,0 z"
         style="fill:#ffffff;fill-opacity:1;fill-rule:nonzero;stroke:none"
         id="path14856"
         inkscape:connector-curvature="0" />
    </g>
    <g
       id="g14858"
       transform="matrix(1.25,0,0,-1.25,380.24092,508.07394)">
      <path
         d="m 0,0 -1.873,0 -3.746,9.738 2.249,0 2.434,-6.554 2.341,6.554 2.387,0 L 0,0 z"
         style="fill:#ffffff;fill-opacity:1;fill-rule:nonzero;stroke:none"
         id="path14860"
         inkscape:connector-curvature="0" />
    </g>
    <g
       id="g14862"
       transform="matrix(1.25,0,0,-1.25,389.01843,501.92893)">
      <path
         d="m 0,0 c 0.047,-1.357 0.469,-3.137 1.92,-3.184 0.748,-0.046 1.264,0.141 1.778,0.656 l 0,4.916 C 3.137,2.996 2.668,3.09 2.059,3.09 0.422,3.043 -0.047,1.404 0,0 M -2.153,0 C -2.106,2.575 -1.264,5.337 1.92,5.057 2.575,5.01 3.511,4.729 3.745,4.494 l 0,3.137 2.107,1.03 0,-13.577 -2.107,0 0,0.281 C 3.09,-5.01 2.622,-5.149 1.874,-5.149 -1.077,-5.149 -2.2,-2.762 -2.153,0"
         style="fill:#ffffff;fill-opacity:1;fill-rule:nonzero;stroke:none"
         id="path14864"
         inkscape:connector-curvature="0" />
    </g>
    <g
       id="g14866"
       transform="matrix(1.25,0,0,-1.25,280.50155,536.01769)">
      <path
         d="m 0,0 -3.821,6.766 0,-6.766 -1.577,0 0,9.991 1.577,0 3.646,-6.38 0,6.38 1.577,0 L 1.402,0 0,0 z"
         style="fill:#ffffff;fill-opacity:1;fill-rule:nonzero;stroke:none"
         id="path14868"
         inkscape:connector-curvature="0" />
    </g>
    <g
       id="g14870"
       transform="matrix(1.25,0,0,-1.25,286.11005,536.01769)">
      <path
         d="m 0,0 0,9.991 5.89,0 0,-1.577 -4.312,0 0,-2.454 2.909,0 0,-1.613 -2.909,0 0,-2.734 4.628,0 L 6.206,0 0,0 z"
         style="fill:#ffffff;fill-opacity:1;fill-rule:nonzero;stroke:none"
         id="path14872"
         inkscape:connector-curvature="0" />
    </g>
    <g
       id="g14874"
       transform="matrix(1.25,0,0,-1.25,302.23618,536.01769)">
      <path
         d="M 0,0 -1.613,3.331 -3.225,0 l -1.788,0 2.489,5.153 -2.314,4.838 1.788,0 1.437,-2.98 1.437,2.98 1.788,0 L -0.736,5.153 1.788,0 0,0 z"
         style="fill:#ffffff;fill-opacity:1;fill-rule:nonzero;stroke:none"
         id="path14876"
         inkscape:connector-curvature="0" />
    </g>
    <g
       id="g14878"
       transform="matrix(1.25,0,0,-1.25,311.17543,525.28281)">
      <path
         d="m 0,0 0,-8.588 -1.578,0 0,8.588 -2.278,0 0,1.403 6.17,0 L 2.314,0 0,0 z"
         style="fill:#ffffff;fill-opacity:1;fill-rule:nonzero;stroke:none"
         id="path14880"
         inkscape:connector-curvature="0" />
    </g>
    <g
       id="g14882"
       transform="matrix(1.25,0,0,-1.25,330.28005,535.27268)">
      <path
         d="m 0,0 c -0.561,-0.491 -1.332,-0.771 -2.173,-0.771 -1.719,0 -2.979,1.016 -3.646,2.524 l 1.508,0.561 c 0.419,-0.947 1.191,-1.473 2.138,-1.473 0.911,0 1.543,0.631 1.543,1.473 0,1.332 -1.543,1.543 -2.841,2.068 -0.595,0.245 -1.926,0.842 -1.926,2.489 0,1.963 1.331,2.7 3.118,2.7 1.403,0 2.349,-0.807 2.84,-2.034 L -0.841,7.116 c 0,0 -0.35,0.842 -1.472,0.876 C -3.049,8.028 -3.926,7.747 -3.855,6.836 -3.716,4.978 0.981,6.204 0.981,2.279 0.981,1.367 0.631,0.561 0,0"
         style="fill:#ffffff;fill-opacity:1;fill-rule:nonzero;stroke:none"
         id="path14884"
         inkscape:connector-curvature="0" />
    </g>
    <path
       d="m 334.48705,523.52931 2.015,0 0,12.48875 -2.015,0 0,-12.48875 z"
       style="fill:#ffffff;fill-opacity:1;fill-rule:nonzero;stroke:none"
       id="path14886"
       inkscape:connector-curvature="0" />
    <g
       id="g14888"
       transform="matrix(1.25,0,0,-1.25,344.65317,536.23644)">
      <path
         d="m 0,0 c -1.508,0 -2.384,0.56 -2.98,1.823 -0.42,0.876 -0.666,2.104 -0.666,3.33 0,1.612 0.455,3.19 1.123,4.066 0.595,0.737 1.436,1.123 2.557,1.123 1.544,0 2.455,-0.632 3.121,-2.209 L 1.647,7.537 C 1.227,8.413 0.806,8.729 0.034,8.729 -0.772,8.729 -1.297,8.378 -1.648,7.502 -1.894,6.906 -2.033,5.995 -2.033,5.153 c 0,-1.052 0.175,-2.103 0.491,-2.734 0.315,-0.561 0.77,-0.807 1.367,-0.807 1.015,0 1.753,0.631 1.753,1.543 l 0,0.42 -1.824,0 0,1.578 3.401,0 0,-1.998 C 3.155,1.332 1.823,0 0,0"
         style="fill:#ffffff;fill-opacity:1;fill-rule:nonzero;stroke:none"
         id="path14890"
         inkscape:connector-curvature="0" />
    </g>
    <g
       id="g14892"
       transform="matrix(1.25,0,0,-1.25,358.93842,536.01769)">
      <path
         d="m 0,0 -3.82,6.766 0,-6.766 -1.578,0 0,9.991 1.578,0 3.645,-6.38 0,6.38 1.576,0 L 1.401,0 0,0 z"
         style="fill:#ffffff;fill-opacity:1;fill-rule:nonzero;stroke:none"
         id="path14894"
         inkscape:connector-curvature="0" />
    </g>
    <g
       id="g14896"
       transform="matrix(1.25,0,0,-1.25,374.01218,536.01769)">
      <path
         d="m 0,0 -3.436,9.991 -1.576,0 L -8.448,0 l 1.682,0 0.982,2.804 3.12,0 L -1.682,0 0,0 z m -3.225,4.418 -1.998,0 1.017,2.803 0.981,-2.803 z"
         style="fill:#ffffff;fill-opacity:1;fill-rule:nonzero;stroke:none"
         id="path14898"
         inkscape:connector-curvature="0" />
    </g>
    <g
       id="g14900"
       transform="matrix(1.25,0,0,-1.25,376.77217,536.01769)">
      <path
         d="m 0,0 0,9.991 1.578,0 0,-8.519 4.627,0 L 6.205,0 0,0 z"
         style="fill:#ffffff;fill-opacity:1;fill-rule:nonzero;stroke:none"
         id="path14902"
         inkscape:connector-curvature="0" />
    </g>
  </g>
</svg>
