<?xml version="1.0" encoding="UTF-8" standalone="no"?>
<!-- Created with Inkscape (http://www.inkscape.org/) -->

<svg
   xmlns:dc="http://purl.org/dc/elements/1.1/"
   xmlns:cc="http://creativecommons.org/ns#"
   xmlns:rdf="http://www.w3.org/1999/02/22-rdf-syntax-ns#"
   xmlns:svg="http://www.w3.org/2000/svg"
   xmlns="http://www.w3.org/2000/svg"
   xmlns:sodipodi="http://sodipodi.sourceforge.net/DTD/sodipodi-0.dtd"
   xmlns:inkscape="http://www.inkscape.org/namespaces/inkscape"
   width="153.78906"
   height="79.53125"
   id="svg20248"
   version="1.1"
   inkscape:version="0.48.2 r9819"
   sodipodi:docname="New document 177">
  <defs
     id="defs20250" />
  <sodipodi:namedview
     id="base"
     pagecolor="#ffffff"
     bordercolor="#666666"
     borderopacity="1.0"
     inkscape:pageopacity="0.0"
     inkscape:pageshadow="2"
     inkscape:zoom="0.35"
     inkscape:cx="114.73527"
     inkscape:cy="-17.386603"
     inkscape:document-units="px"
     inkscape:current-layer="layer1"
     showgrid="false"
     fit-margin-top="0"
     fit-margin-left="0"
     fit-margin-right="0"
     fit-margin-bottom="0"
     inkscape:window-width="469"
     inkscape:window-height="425"
     inkscape:window-x="1466"
     inkscape:window-y="100"
     inkscape:window-maximized="0" />
  <metadata
     id="metadata20253">
    <rdf:RDF>
      <cc:Work
         rdf:about="">
        <dc:format>image/svg+xml</dc:format>
        <dc:type
           rdf:resource="http://purl.org/dc/dcmitype/StillImage" />
        <dc:title></dc:title>
      </cc:Work>
    </rdf:RDF>
  </metadata>
  <g
     inkscape:label="Layer 1"
     inkscape:groupmode="layer"
     id="layer1"
     transform="translate(-260.26473,-435.44433)">
    <g
       id="g19958"
       transform="matrix(1.25,0,0,-1.25,270.73348,435.75683)">
      <path
         d="m 0,0 106.253,0 c 4.478,0 8.138,-3.66 8.138,-8.137 l 0,-46.867 c 0,-4.474 -3.66,-8.136 -8.138,-8.136 L 0,-63.14 c -4.474,0 -8.136,3.662 -8.136,8.136 l 0,46.867 C -8.136,-3.66 -4.474,0 0,0"
         style="fill:#ffffff;fill-opacity:1;fill-rule:nonzero;stroke:none"
         id="path19960"
         inkscape:connector-curvature="0" />
    </g>
    <g
       id="g19962"
       transform="matrix(1.25,0,0,-1.25,270.73348,435.75683)">
      <path
         d="m 0,0 106.253,0 c 4.478,0 8.138,-3.66 8.138,-8.137 l 0,-46.867 c 0,-4.474 -3.66,-8.136 -8.138,-8.136 L 0,-63.14 c -4.474,0 -8.136,3.662 -8.136,8.136 l 0,46.867 C -8.136,-3.66 -4.474,0 0,0 z"
         style="fill:none;stroke:#231f20;stroke-width:0.5;stroke-linecap:butt;stroke-linejoin:miter;stroke-miterlimit:4;stroke-opacity:1;stroke-dasharray:none"
         id="path19964"
         inkscape:connector-curvature="0" />
    </g>
    <g
       id="g19966"
       transform="matrix(1.25,0,0,-1.25,270.73348,438.31045)">
      <path
         d="m 0,0 106.253,0 c 3.353,0 6.097,-2.742 6.097,-6.094 l 0,-46.867 c 0,-3.349 -2.744,-6.093 -6.097,-6.093 L 0,-59.054 c -3.351,0 -6.093,2.744 -6.093,6.093 l 0,46.867 C -6.093,-2.742 -3.351,0 0,0"
         style="fill:#0b335e;fill-opacity:1;fill-rule:evenodd;stroke:none"
         id="path19968"
         inkscape:connector-curvature="0" />
    </g>
    <g
       id="g19970"
       transform="matrix(1.25,0,0,-1.25,270.73348,442.14108)">
      <path
         d="m 0,0 106.253,0 c 1.67,0 3.031,-1.363 3.031,-3.029 l 0,-46.868 c 0,-1.666 -1.361,-3.031 -3.031,-3.031 L 0,-52.928 c -1.666,0 -3.031,1.365 -3.031,3.031 l 0,46.868 C -3.031,-1.363 -1.666,0 0,0"
         style="fill:#ffffff;fill-opacity:1;fill-rule:evenodd;stroke:none"
         id="path19972"
         inkscape:connector-curvature="0" />
    </g>
    <g
       id="g19974"
       transform="matrix(1.25,0,0,-1.25,350.20848,497.6907)">
      <path
         d="m 0,0 -0.127,0.08 c -0.093,-0.115 -0.164,-0.15 -0.259,-0.15 -0.076,0 -0.157,0.027 -0.407,0.15 -0.556,0.258 -1.136,0.393 -1.753,0.393 -0.6,0 -1.071,-0.107 -1.444,-0.34 -0.498,-0.301 -0.805,-0.797 -0.805,-1.349 0,-0.379 0.166,-0.752 0.436,-1.002 0.26,-0.248 0.648,-0.426 1.34,-0.62 l 0.785,-0.222 c 0.518,-0.143 0.672,-0.196 0.844,-0.293 0.232,-0.115 0.363,-0.311 0.363,-0.522 0,-0.48 -0.582,-0.81 -1.428,-0.81 -0.816,0 -1.748,0.381 -1.748,0.709 0,0.045 0.01,0.08 0.037,0.189 l -0.136,0.069 -0.854,-1.455 0.133,-0.063 c 0.156,0.133 0.193,0.16 0.26,0.16 0.039,0 0.076,-0.008 0.125,-0.027 0.199,-0.078 0.349,-0.143 0.422,-0.168 0.619,-0.258 1.254,-0.391 1.892,-0.391 1.496,0 2.477,0.729 2.477,1.838 0,0.887 -0.539,1.422 -1.842,1.774 l -0.82,0.232 c -0.616,0.178 -0.616,0.178 -0.793,0.25 -0.219,0.105 -0.352,0.266 -0.352,0.441 0,0.364 0.465,0.621 1.127,0.621 0.725,0 1.496,-0.326 1.496,-0.63 0,-0.041 -0.01,-0.086 -0.07,-0.194 L -0.974,-1.41 0,0 z m -7.134,-2.359 c 1.07,0.283 1.765,0.975 1.765,1.775 0,0.621 -0.377,1.057 -0.908,1.057 -0.451,0 -0.762,-0.303 -0.762,-0.756 0,-0.416 0.303,-0.701 0.746,-0.701 0.082,0 0.163,0.01 0.332,0.055 -0.085,-0.489 -0.419,-0.809 -1.173,-1.102 l 0,-0.328 z m -1.705,-0.824 -1.524,0 0.772,2.138 0.752,-2.138 z m 0.259,-0.871 0.289,-0.825 c 0.096,-0.25 0.096,-0.25 0.096,-0.322 0,-0.105 -0.057,-0.148 -0.269,-0.203 l 0,-0.152 1.927,0 0,0.152 c -0.252,0.055 -0.318,0.125 -0.47,0.504 l -1.67,4.635 c -0.077,0.23 -0.09,0.25 -0.09,0.302 0,0.096 0.074,0.143 0.273,0.176 l 0,0.153 -2.054,0 0,-0.153 c 0.195,-0.033 0.263,-0.08 0.263,-0.176 0,-0.052 -0.041,-0.187 -0.078,-0.302 L -12.087,-4.9 c -0.137,-0.379 -0.204,-0.449 -0.446,-0.504 l 0,-0.152 1.746,0 0,0.152 c -0.203,0.063 -0.259,0.098 -0.259,0.203 0,0.072 0.025,0.168 0.085,0.322 l 0.299,0.825 2.082,0 z m -5.408,0.408 -0.123,-0.08 c 0.035,-0.098 0.049,-0.143 0.049,-0.223 0,-0.383 -0.598,-0.736 -1.264,-0.736 -1.039,0 -1.709,0.816 -1.709,2.096 0,1.267 0.67,2.083 1.717,2.083 0.658,0 1.256,-0.345 1.256,-0.736 0,-0.08 -0.014,-0.123 -0.049,-0.221 l 0.123,-0.08 1.166,1.315 -0.113,0.088 c -0.117,-0.063 -0.195,-0.088 -0.262,-0.088 -0.088,0 -0.193,0.043 -0.357,0.15 -0.655,0.426 -1.08,0.551 -1.825,0.551 -0.876,0 -1.533,-0.26 -2.05,-0.791 -0.563,-0.576 -0.858,-1.365 -0.858,-2.271 0,-0.917 0.295,-1.706 0.858,-2.284 0.517,-0.531 1.183,-0.789 2.031,-0.789 0.687,0 1.197,0.143 1.709,0.471 0.346,0.223 0.389,0.24 0.492,0.24 0.057,0 0.145,-0.027 0.262,-0.088 l 0.113,0.078 -1.166,1.315 z m -5.406,3.558 c 0,0.168 0.084,0.258 0.297,0.301 l 0,0.153 -1.813,0 0,-0.153 c 0.223,-0.051 0.299,-0.133 0.299,-0.301 l 0,-5.015 c 0,-0.168 -0.076,-0.238 -0.299,-0.301 l 0,-0.152 1.813,0 0,0.152 c -0.223,0.055 -0.297,0.133 -0.297,0.301 l 0,5.015 z m -6.123,-2.091 0,1.595 1.416,0 c 0.711,0 1.037,-0.248 1.037,-0.791 0,-0.548 -0.336,-0.804 -1.037,-0.804 l -1.416,0 z m 0,-0.952 1.07,0 1.047,-1.882 c 0.066,-0.116 0.098,-0.196 0.098,-0.258 0,-0.088 -0.075,-0.123 -0.258,-0.141 l 0,-0.144 2.031,0 0,0.144 c -0.252,0.043 -0.465,0.221 -0.658,0.549 l -1.039,1.856 c 0.887,0.22 1.373,0.789 1.373,1.615 0,0.488 -0.184,0.941 -0.51,1.26 -0.398,0.365 -0.863,0.498 -1.785,0.498 l -2.881,0 0,-0.153 c 0.223,-0.051 0.291,-0.133 0.291,-0.301 l 0,-5.015 c 0,-0.168 -0.068,-0.238 -0.291,-0.309 l 0,-0.144 1.807,0 0,0.144 c -0.223,0.063 -0.295,0.141 -0.295,0.309 l 0,1.972 z m -5.602,0.176 1.563,0 c 0.193,0 0.279,-0.072 0.34,-0.285 l 0.148,0 0,1.467 -0.148,0 c -0.061,-0.205 -0.157,-0.277 -0.34,-0.277 l -1.563,0 0,1.466 2.686,0 c 0.199,0 0.269,-0.072 0.34,-0.277 l 0.156,0 0,1.502 -0.156,0 c -0.061,-0.205 -0.153,-0.275 -0.34,-0.275 l -4.201,0 0,-0.153 c 0.222,-0.051 0.302,-0.133 0.302,-0.301 l 0,-5.015 c 0,-0.168 -0.08,-0.238 -0.302,-0.301 l 0,-0.152 4.31,0 c 0.194,0 0.279,-0.071 0.34,-0.276 l 0.156,0 0,1.493 -0.156,0 c -0.07,-0.194 -0.152,-0.266 -0.34,-0.266 l -2.795,0 0,1.65 z m -6.084,-2.601 2.129,4.261 0,-3.808 c 0,-0.168 -0.074,-0.246 -0.297,-0.301 l 0,-0.152 1.813,0 0,0.152 c -0.231,0.063 -0.299,0.133 -0.299,0.301 l 0,5.015 c 0,0.168 0.076,0.25 0.299,0.301 l 0,0.153 -2.321,0 0,-0.153 c 0.18,-0.025 0.266,-0.088 0.266,-0.185 0,-0.055 0,-0.055 -0.133,-0.346 l -1.396,-2.85 -1.365,2.85 c -0.055,0.143 -0.098,0.248 -0.098,0.328 0,0.108 0.09,0.17 0.275,0.203 l 0,0.153 -2.312,0 0,-0.153 c 0.219,-0.051 0.299,-0.133 0.299,-0.301 l 0,-5.015 c 0,-0.168 -0.08,-0.238 -0.299,-0.301 l 0,-0.152 1.695,0 0,0.152 c -0.223,0.063 -0.299,0.133 -0.299,0.301 l 0,3.808 2.043,-4.261 z m -6.179,2.373 -1.522,0 0.768,2.138 0.754,-2.138 z m 0.259,-0.871 0.289,-0.825 c 0.098,-0.25 0.098,-0.25 0.098,-0.322 0,-0.105 -0.057,-0.148 -0.269,-0.203 l 0,-0.152 1.927,0 0,0.152 c -0.252,0.055 -0.318,0.125 -0.472,0.504 l -1.668,4.635 c -0.077,0.23 -0.09,0.25 -0.09,0.302 0,0.096 0.066,0.143 0.271,0.176 l 0,0.153 -2.052,0 0,-0.153 c 0.195,-0.033 0.257,-0.08 0.257,-0.176 0,-0.052 -0.035,-0.187 -0.072,-0.302 L -46.629,-4.9 c -0.136,-0.379 -0.203,-0.449 -0.445,-0.504 l 0,-0.152 1.74,0 0,0.152 c -0.195,0.063 -0.255,0.098 -0.255,0.203 0,0.072 0.027,0.168 0.089,0.322 l 0.297,0.825 2.08,0 z"
         style="fill:#aa0c31;fill-opacity:1;fill-rule:evenodd;stroke:none"
         id="path19976"
         inkscape:connector-curvature="0" />
    </g>
    <g
       id="g19978"
       transform="matrix(1.25,0,0,-1.25,400.38348,497.68582)">
      <path
         d="m 0,0 -0.125,0.078 c -0.098,-0.115 -0.168,-0.152 -0.26,-0.152 -0.08,0 -0.156,0.029 -0.406,0.152 -0.563,0.258 -1.141,0.391 -1.758,0.391 -0.6,0 -1.069,-0.107 -1.444,-0.338 -0.498,-0.301 -0.8,-0.797 -0.8,-1.349 0,-0.381 0.166,-0.754 0.431,-1.002 0.264,-0.25 0.653,-0.426 1.34,-0.622 l 0.781,-0.222 c 0.522,-0.141 0.678,-0.196 0.852,-0.291 0.228,-0.117 0.365,-0.313 0.365,-0.524 0,-0.48 -0.588,-0.808 -1.426,-0.808 -0.824,0 -1.756,0.383 -1.756,0.709 0,0.045 0.01,0.08 0.041,0.187 l -0.136,0.069 -0.858,-1.454 0.133,-0.064 c 0.156,0.133 0.192,0.16 0.26,0.16 0.043,0 0.082,-0.006 0.125,-0.027 0.207,-0.078 0.35,-0.139 0.426,-0.166 0.615,-0.258 1.254,-0.393 1.89,-0.393 1.496,0 2.477,0.731 2.477,1.838 0,0.889 -0.537,1.422 -1.84,1.777 L -2.51,-1.82 c -0.615,0.176 -0.615,0.176 -0.787,0.248 -0.223,0.105 -0.36,0.266 -0.36,0.443 0,0.364 0.465,0.623 1.131,0.623 0.721,0 1.492,-0.33 1.492,-0.63 0,-0.045 -0.007,-0.088 -0.066,-0.198 L -0.975,-1.414 0,0 z m -7.356,-3.099 1.711,2.797 c 0.254,0.433 0.303,0.48 0.533,0.513 l 0,0.151 -1.879,0 0,-0.151 c 0.194,-0.033 0.26,-0.08 0.26,-0.158 0,-0.053 -0.037,-0.152 -0.117,-0.285 l -1.076,-1.846 -1.102,1.846 C -9.094,-0.119 -9.139,0 -9.139,0.053 c 0,0.078 0.074,0.125 0.256,0.158 l 0,0.151 -1.948,0 0,-0.151 c 0.237,-0.033 0.284,-0.08 0.532,-0.513 l 1.728,-2.797 0,-2.008 c 0,-0.166 -0.082,-0.236 -0.299,-0.301 l 0,-0.148 1.813,0 0,0.148 c -0.223,0.055 -0.299,0.135 -0.299,0.301 l 0,2.008 z m -5.07,-0.088 -1.53,0 0.776,2.14 0.754,-2.14 z m 0.26,-0.869 0.289,-0.827 c 0.095,-0.25 0.095,-0.25 0.095,-0.32 0,-0.105 -0.058,-0.15 -0.271,-0.205 l 0,-0.148 1.931,0 0,0.148 c -0.253,0.055 -0.324,0.125 -0.472,0.508 l -1.67,4.633 c -0.078,0.23 -0.088,0.248 -0.088,0.302 0,0.096 0.066,0.143 0.268,0.176 l 0,0.151 -2.054,0 0,-0.151 c 0.2,-0.033 0.262,-0.08 0.262,-0.176 0,-0.054 -0.037,-0.189 -0.08,-0.302 L -15.677,-4.9 c -0.136,-0.383 -0.201,-0.453 -0.443,-0.508 l 0,-0.148 1.746,0 0,0.148 c -0.207,0.065 -0.26,0.1 -0.26,0.205 0,0.07 0.024,0.17 0.084,0.32 l 0.299,0.827 2.085,0 z m -11.968,4.418 0,-0.151 c 0.262,-0.053 0.389,-0.195 0.522,-0.601 l 1.492,-4.537 c 0.08,-0.213 0.08,-0.213 0.08,-0.284 0,-0.107 -0.086,-0.17 -0.27,-0.197 l 0,-0.148 1.791,0 0,0.148 c -0.201,0.045 -0.267,0.08 -0.267,0.168 0,0.055 0.01,0.072 0.076,0.313 l 0.887,3.025 0.828,-3.025 c 0.07,-0.268 0.07,-0.268 0.07,-0.313 0,-0.088 -0.06,-0.123 -0.26,-0.168 l 0,-0.148 1.833,0 0,0.148 c -0.188,0.027 -0.278,0.09 -0.278,0.197 0,0.071 0,0.071 0.08,0.284 l 1.5,4.537 c 0.123,0.406 0.26,0.548 0.516,0.601 l 0,0.151 -1.856,0 0,-0.151 c 0.213,-0.053 0.284,-0.115 0.284,-0.23 0,-0.037 0,-0.037 -0.071,-0.283 l -1.027,-3.258 -0.867,3.258 c -0.067,0.22 -0.067,0.22 -0.067,0.292 0,0.125 0.08,0.188 0.289,0.221 l 0,0.151 -1.826,0 0,-0.151 c 0.227,-0.033 0.303,-0.088 0.303,-0.221 0,-0.072 0,-0.072 -0.066,-0.292 l -0.948,-3.258 -1.041,3.258 c -0.066,0.246 -0.066,0.246 -0.066,0.292 0,0.106 0.074,0.168 0.279,0.221 l 0,0.151 -1.92,0 z m -2.072,-3.461 1.719,2.797 c 0.25,0.433 0.297,0.48 0.529,0.513 l 0,0.151 -1.879,0 0,-0.151 c 0.19,-0.033 0.256,-0.08 0.256,-0.158 0,-0.053 -0.035,-0.152 -0.115,-0.285 l -1.078,-1.846 -1.1,1.846 c -0.07,0.113 -0.113,0.232 -0.113,0.285 0,0.078 0.072,0.125 0.26,0.158 l 0,0.151 -1.952,0 0,-0.151 c 0.237,-0.033 0.282,-0.08 0.532,-0.513 l 1.728,-2.797 0,-2.008 c 0,-0.166 -0.08,-0.236 -0.299,-0.301 l 0,-0.148 1.811,0 0,0.148 c -0.223,0.055 -0.299,0.135 -0.299,0.301 l 0,2.008 z m -7.336,-1.508 0,1.748 1.426,0 c 0.814,0 1.197,-0.276 1.197,-0.879 0,-0.594 -0.383,-0.869 -1.197,-0.869 l -1.426,0 z m 0,2.654 0,1.365 1.303,0 c 0.789,0 1.097,-0.193 1.097,-0.681 0,-0.491 -0.316,-0.684 -1.097,-0.684 l -1.303,0 z m -1.512,2.315 0,-0.151 c 0.223,-0.053 0.295,-0.133 0.295,-0.303 l 0,-5.015 c 0,-0.166 -0.072,-0.236 -0.295,-0.301 l 0,-0.148 3.17,0 c 0.735,0 1.158,0.097 1.539,0.361 0.446,0.295 0.682,0.766 0.682,1.342 0,0.781 -0.428,1.295 -1.231,1.48 0.69,0.322 0.928,0.641 0.928,1.244 0,0.434 -0.162,0.827 -0.465,1.073 -0.355,0.304 -0.773,0.418 -1.599,0.418 l -3.024,0 z"
         style="fill:#aa0c31;fill-opacity:1;fill-rule:evenodd;stroke:none"
         id="path19980"
         inkscape:connector-curvature="0" />
    </g>
    <g
       id="g19982"
       transform="matrix(1.25,0,0,-1.25,270.06473,465.87445)">
      <path
         d="m 0,0 c 0.913,1.529 2.294,2.628 3.925,3.725 5.467,3.559 10.996,6.877 16.661,9.671 5.647,2.376 10.25,3.354 13.329,2.292 2.074,-2.196 4.043,-4.252 6.117,-6.449 -0.663,0.066 -1.393,-0.216 -1.852,-0.378 0.311,-0.4 0.49,-0.569 0.839,-1.065 0.606,0.356 1.476,0.48 1.994,0.31 1.383,-1.337 2.702,-2.613 4.085,-3.951 2.555,1.326 5.23,2.292 7.923,3.224 2.837,0.982 4.715,1.397 6.295,1.217 1.234,-0.74 2.411,-1.453 3.645,-2.192 -0.459,-0.023 -1.004,-0.17 -1.373,-0.435 0.249,-0.278 0.548,-0.424 0.808,-0.685 0.518,0.31 0.913,0.407 1.511,0.518 C 65.438,4.49 66.968,3.176 68.498,1.863 66.302,1.362 64.36,0.313 62.5,-1.074 60.038,-2.912 57.459,-4.6 54.947,-6.375 c -1.475,-1.042 -3,-1.862 -4.666,-2.148 -0.962,-0.263 -1.333,0.047 -1.11,0.931 0.346,1.265 0.69,2.531 1.036,3.797 0.099,1.742 -0.987,2.339 -3.258,1.79 -3.023,-0.776 -5.222,-2.208 -7.478,-3.798 -9.646,-6.74 -19.09,-14.031 -28.289,-21.345 -2,4.823 -3.999,9.647 -5.998,14.469 2.387,2.532 5.016,4.753 7.998,6.52 -0.396,0.596 -0.864,1.335 -1.259,1.932 C 8.887,-5.946 6.32,-7.998 4.072,-10.1 2.715,-6.732 1.358,-3.366 0,0"
         style="fill:#0b335e;fill-opacity:1;fill-rule:evenodd;stroke:none"
         id="path19984"
         inkscape:connector-curvature="0" />
    </g>
    <g
       id="g19986"
       transform="matrix(1.25,0,0,-1.25,307.25098,458.77195)">
      <path
         d="M 0,0 C 1.433,0.908 3.046,1.642 4.924,2.119 5.356,1.635 5.64,1.434 6.071,0.949 4.27,0.445 2.552,-0.302 0.917,-1.29 0.563,-0.766 0.355,-0.524 0,0"
         style="fill:#ffffff;fill-opacity:1;fill-rule:evenodd;stroke:none"
         id="path19988"
         inkscape:connector-curvature="0" />
    </g>
    <g
       id="g19990"
       transform="matrix(1.25,0,0,-1.25,331.05099,465.38332)">
      <path
         d="M 0,0 C 0.244,-0.283 0.489,-0.566 0.734,-0.85 1.686,-0.181 2.646,0.421 3.751,0.721 3.484,1.075 3.385,1.208 3.117,1.563 1.946,1.244 0.935,0.695 0,0"
         style="fill:#ffffff;fill-opacity:1;fill-rule:evenodd;stroke:none"
         id="path19992"
         inkscape:connector-curvature="0" />
    </g>
    <g
       id="g19994"
       transform="matrix(1.25,0,0,-1.25,339.69848,461.30083)">
      <path
         d="m 0,0 c 0.274,-0.249 0.546,-0.553 0.763,-0.857 1.015,0.58 2.169,1.093 3.3,1.293 C 3.772,0.785 3.545,1.065 3.254,1.276 2.056,1.065 0.998,0.609 0,0"
         style="fill:#ffffff;fill-opacity:1;fill-rule:evenodd;stroke:none"
         id="path19996"
         inkscape:connector-curvature="0" />
    </g>
    <g
       id="g19998"
       transform="matrix(1.25,0,0,-1.25,306.57348,464.62957)">
      <path
         d="M 0,0 -5.801,0 -7.593,5.703 -9.386,0 l -5.799,0 4.692,-3.526 -1.792,-5.703 4.692,3.525 L -2.9,-9.229 -4.692,-3.526 0,0 z"
         style="fill:#ffffff;fill-opacity:1;fill-rule:evenodd;stroke:none"
         id="path20000"
         inkscape:connector-curvature="0" />
    </g>
  </g>
</svg>
