<?xml version="1.0" encoding="UTF-8" standalone="no"?>
<!-- Created with Inkscape (http://www.inkscape.org/) -->

<svg
   xmlns:dc="http://purl.org/dc/elements/1.1/"
   xmlns:cc="http://creativecommons.org/ns#"
   xmlns:rdf="http://www.w3.org/1999/02/22-rdf-syntax-ns#"
   xmlns:svg="http://www.w3.org/2000/svg"
   xmlns="http://www.w3.org/2000/svg"
   xmlns:sodipodi="http://sodipodi.sourceforge.net/DTD/sodipodi-0.dtd"
   xmlns:inkscape="http://www.inkscape.org/namespaces/inkscape"
   width="124.2"
   height="85.388748"
   id="svg3486"
   version="1.1"
   inkscape:version="0.48.2 r9819"
   sodipodi:docname="New document 14">
  <defs
     id="defs3488">
    <clipPath
       clipPathUnits="userSpaceOnUse"
       id="clipPath3165">
      <path
         inkscape:connector-curvature="0"
         d="m 62.625,446.038 513.375,0 0,291.962 -513.375,0 0,-291.962 z"
         id="path3167" />
    </clipPath>
  </defs>
  <sodipodi:namedview
     id="base"
     pagecolor="#ffffff"
     bordercolor="#666666"
     borderopacity="1.0"
     inkscape:pageopacity="0.0"
     inkscape:pageshadow="2"
     inkscape:zoom="0.35"
     inkscape:cx="-122.9"
     inkscape:cy="31.265767"
     inkscape:document-units="px"
     inkscape:current-layer="layer1"
     showgrid="false"
     fit-margin-top="0"
     fit-margin-left="0"
     fit-margin-right="0"
     fit-margin-bottom="0"
     inkscape:window-width="469"
     inkscape:window-height="425"
     inkscape:window-x="1416"
     inkscape:window-y="50"
     inkscape:window-maximized="0" />
  <metadata
     id="metadata3491">
    <rdf:RDF>
      <cc:Work
         rdf:about="">
        <dc:format>image/svg+xml</dc:format>
        <dc:type
           rdf:resource="http://purl.org/dc/dcmitype/StillImage" />
        <dc:title></dc:title>
      </cc:Work>
    </rdf:RDF>
  </metadata>
  <g
     inkscape:label="Layer 1"
     inkscape:groupmode="layer"
     id="layer1"
     transform="translate(-497.9,-478.2392)">
    <g
       transform="matrix(1.25,0,0,-1.25,161.08487,1121.4007)"
       id="g3161">
      <g
         id="g3163"
         clip-path="url(#clipPath3165)">
        <g
           id="g3169"
           transform="translate(365.7081,495.8992)">
          <path
             inkscape:connector-curvature="0"
             d="m 0,0 c -0.338,0 -0.607,0 -0.879,-0.067 l -35.639,-9.249 0,27.946 -20.183,0 0,-27.946 -35.708,9.249 C -92.679,0 -92.948,0 -93.151,0 c -1.755,0 -3.105,-1.351 -3.105,-3.106 0,-0.809 0.337,-1.62 0.945,-2.226 l 0.068,-0.068 48.667,-44.281 48.6,44.281 c 0.674,0.607 1.08,1.485 1.08,2.294 C 3.104,-1.351 1.688,0 0,0"
             style="fill:#231f20;fill-opacity:1;fill-rule:nonzero;stroke:none"
             id="path3171" />
        </g>
      </g>
    </g>
  </g>
</svg>
