<?xml version="1.0" encoding="UTF-8" standalone="no"?>
<!-- Created with Inkscape (http://www.inkscape.org/) -->

<svg
   xmlns:dc="http://purl.org/dc/elements/1.1/"
   xmlns:cc="http://creativecommons.org/ns#"
   xmlns:rdf="http://www.w3.org/1999/02/22-rdf-syntax-ns#"
   xmlns:svg="http://www.w3.org/2000/svg"
   xmlns="http://www.w3.org/2000/svg"
   xmlns:sodipodi="http://sodipodi.sourceforge.net/DTD/sodipodi-0.dtd"
   xmlns:inkscape="http://www.inkscape.org/namespaces/inkscape"
   width="68.125"
   height="34.375"
   id="svg6500"
   version="1.1"
   inkscape:version="0.48.2 r9819"
   sodipodi:docname="New document 44">
  <defs
     id="defs6502">
    <clipPath
       clipPathUnits="userSpaceOnUse"
       id="clipPath5663">
      <path
         inkscape:connector-curvature="0"
         d="m 62.625,537.021 513.625,0 0,200.979 -513.625,0 0,-200.979 z"
         id="path5665" />
    </clipPath>
  </defs>
  <sodipodi:namedview
     id="base"
     pagecolor="#ffffff"
     bordercolor="#666666"
     borderopacity="1.0"
     inkscape:pageopacity="0.0"
     inkscape:pageshadow="2"
     inkscape:zoom="0.35"
     inkscape:cx="34.062505"
     inkscape:cy="17.187467"
     inkscape:document-units="px"
     inkscape:current-layer="layer1"
     showgrid="false"
     fit-margin-top="0"
     fit-margin-left="0"
     fit-margin-right="0"
     fit-margin-bottom="0"
     inkscape:window-width="469"
     inkscape:window-height="425"
     inkscape:window-x="1616"
     inkscape:window-y="250"
     inkscape:window-maximized="0" />
  <metadata
     id="metadata6505">
    <rdf:RDF>
      <cc:Work
         rdf:about="">
        <dc:format>image/svg+xml</dc:format>
        <dc:type
           rdf:resource="http://purl.org/dc/dcmitype/StillImage" />
        <dc:title></dc:title>
      </cc:Work>
    </rdf:RDF>
  </metadata>
  <g
     inkscape:label="Layer 1"
     inkscape:groupmode="layer"
     id="layer1"
     transform="translate(-340.9375,-515.17465)">
    <g
       transform="matrix(1.25,0,0,-1.25,-113.96963,1403.5144)"
       id="g5659">
      <g
         id="g5661"
         clip-path="url(#clipPath5663)">
        <g
           id="g5667"
           transform="translate(368.6757,710.4218)">
          <path
             inkscape:connector-curvature="0"
             d="m 0,0 45,0 c 2.479,0 4.5,-1.97 4.5,-4.384 l 0,-18.233 C 49.5,-25.031 47.479,-27 45,-27 l -45,0 c -2.478,0 -4.5,1.969 -4.5,4.383 l 0,18.233 C -4.5,-1.95 -2.398,0 0,0"
             style="fill:#ffffff;fill-opacity:1;fill-rule:nonzero;stroke:#231f20;stroke-width:0.5;stroke-linecap:butt;stroke-linejoin:miter;stroke-miterlimit:4;stroke-opacity:1;stroke-dasharray:none"
             id="path5669" />
        </g>
        <g
           id="g5671"
           transform="translate(413.6637,709.5214)">
          <path
             inkscape:connector-curvature="0"
             d="M 0,0 C 1.995,-0.046 3.512,-1.512 3.612,-3.495 L 3.607,-21.894 c -0.144,-1.825 -1.605,-3.171 -3.409,-3.3 l -45.175,-0.005 c -1.995,0.046 -3.51,1.512 -3.612,3.494 l 0.005,18.4 c 0.144,1.827 1.607,3.167 3.41,3.3 L 0,0"
             style="fill:#231f20;fill-opacity:1;fill-rule:evenodd;stroke:none"
             id="path5673" />
        </g>
        <g
           id="g5675"
           transform="translate(368.6757,708.1718)">
          <path
             inkscape:connector-curvature="0"
             d="m 0,0 45,0 c 1.239,0 2.25,-1.011 2.25,-2.25 l 0,-18 c 0,-1.239 -1.011,-2.25 -2.25,-2.25 l -45,0 c -1.239,0 -2.25,1.011 -2.25,2.25 l 0,18 C -2.25,-1.026 -1.224,0 0,0"
             style="fill:#ffffff;fill-opacity:1;fill-rule:evenodd;stroke:none"
             id="path5677" />
        </g>
        <g
           id="g5679"
           transform="translate(407.9377,701.1898)">
          <path
             inkscape:connector-curvature="0"
             d="m 0,0 0,1.799 -6.865,0 0,-1.799 2.462,0 0,-11.693 1.941,0 L -2.462,0 0,0 z"
             style="fill:#231f20;fill-opacity:1;fill-rule:evenodd;stroke:none"
             id="path5681" />
        </g>
        <g
           id="g5683"
           transform="translate(399.8417,693.1933)">
          <path
             inkscape:connector-curvature="0"
             d="m 0,0 c 0,1.94 -1.136,3.408 -3.74,4.924 -0.994,0.567 -1.278,0.946 -1.278,1.609 0,0.9 0.71,1.563 1.61,1.563 0.851,0 1.514,-0.617 1.561,-1.563 l 1.847,0 c -0.047,2.036 -1.515,3.503 -3.408,3.503 -1.942,0 -3.456,-1.562 -3.456,-3.503 0,-1.183 0.568,-2.225 1.657,-2.982 C -2.462,1.704 -3.22,2.225 -2.935,1.94 -2.13,1.325 -1.847,0.758 -1.847,0 c 0,-1.089 -0.851,-2.035 -1.893,-2.035 -1.325,0 -1.894,1.183 -1.894,2.319 l -1.893,0 c 0,-2.225 1.42,-4.221 3.787,-4.221 C -1.656,-3.937 0,-2.178 0,0"
             style="fill:#231f20;fill-opacity:1;fill-rule:evenodd;stroke:none"
             id="path5685" />
        </g>
        <g
           id="g5687"
           transform="translate(381.8837,689.497)">
          <path
             inkscape:connector-curvature="0"
             d="m 0,0 0,2.084 -5.41,0 0,4.897 3.069,0 0,2.033 -3.069,0 0,3.752 4.838,0 0,2.084 -6.97,0 L -7.542,0 0,0 z"
             style="fill:#231f20;fill-opacity:1;fill-rule:evenodd;stroke:none"
             id="path5689" />
        </g>
        <g
           id="g5691"
           transform="translate(391.1307,689.497)">
          <path
             inkscape:connector-curvature="0"
             d="m 0,0 -3.361,13.492 -1.894,0 L -8.616,0 l 1.942,0 0.899,3.692 2.887,0 L -1.94,0 0,0 z"
             style="fill:#231f20;fill-opacity:1;fill-rule:evenodd;stroke:none"
             id="path5693" />
        </g>
        <g
           id="g5695"
           transform="translate(387.7697,695.0824)">
          <path
             inkscape:connector-curvature="0"
             d="M 0,0 -1.941,0 -0.994,3.882 0,0 z"
             style="fill:#ffffff;fill-opacity:1;fill-rule:evenodd;stroke:none"
             id="path5697" />
        </g>
      </g>
    </g>
  </g>
</svg>
