<?xml version="1.0" encoding="UTF-8" standalone="no"?>
<!-- Created with Inkscape (http://www.inkscape.org/) -->

<svg
   xmlns:dc="http://purl.org/dc/elements/1.1/"
   xmlns:cc="http://creativecommons.org/ns#"
   xmlns:rdf="http://www.w3.org/1999/02/22-rdf-syntax-ns#"
   xmlns:svg="http://www.w3.org/2000/svg"
   xmlns="http://www.w3.org/2000/svg"
   xmlns:sodipodi="http://sodipodi.sourceforge.net/DTD/sodipodi-0.dtd"
   xmlns:inkscape="http://www.inkscape.org/namespaces/inkscape"
   width="68.125"
   height="34.375"
   id="svg6869"
   version="1.1"
   inkscape:version="0.48.2 r9819"
   sodipodi:docname="New document 52">
  <defs
     id="defs6871">
    <clipPath
       clipPathUnits="userSpaceOnUse"
       id="clipPath5555">
      <path
         inkscape:connector-curvature="0"
         d="m 62.625,537.021 513.625,0 0,200.979 -513.625,0 0,-200.979 z"
         id="path5557" />
    </clipPath>
  </defs>
  <sodipodi:namedview
     id="base"
     pagecolor="#ffffff"
     bordercolor="#666666"
     borderopacity="1.0"
     inkscape:pageopacity="0.0"
     inkscape:pageshadow="2"
     inkscape:zoom="0.35"
     inkscape:cx="31.919645"
     inkscape:cy="25.758892"
     inkscape:document-units="px"
     inkscape:current-layer="layer1"
     showgrid="false"
     fit-margin-top="0"
     fit-margin-left="0"
     fit-margin-right="0"
     fit-margin-bottom="0"
     inkscape:window-width="469"
     inkscape:window-height="425"
     inkscape:window-x="1541"
     inkscape:window-y="175"
     inkscape:window-maximized="0" />
  <metadata
     id="metadata6874">
    <rdf:RDF>
      <cc:Work
         rdf:about="">
        <dc:format>image/svg+xml</dc:format>
        <dc:type
           rdf:resource="http://purl.org/dc/dcmitype/StillImage" />
        <dc:title></dc:title>
      </cc:Work>
    </rdf:RDF>
  </metadata>
  <g
     inkscape:label="Layer 1"
     inkscape:groupmode="layer"
     id="layer1"
     transform="translate(-343.08035,-523.74608)">
    <g
       transform="matrix(1.25,0,0,-1.25,-111.82677,1312.0847)"
       id="g5551">
      <g
         id="g5553"
         clip-path="url(#clipPath5555)">
        <g
           id="g5559"
           transform="translate(368.6757,630.4209)">
          <path
             inkscape:connector-curvature="0"
             d="m 0,0 45,0 c 2.479,0 4.5,-1.968 4.5,-4.382 l 0,-18.235 C 49.5,-25.031 47.479,-27 45,-27 l -45,0 c -2.478,0 -4.5,1.969 -4.5,4.383 l 0,18.235 C -4.5,-1.949 -2.398,0 0,0"
             style="fill:#ffffff;fill-opacity:1;fill-rule:nonzero;stroke:#231f20;stroke-width:0.5;stroke-linecap:butt;stroke-linejoin:miter;stroke-miterlimit:4;stroke-opacity:1;stroke-dasharray:none"
             id="path5561" />
        </g>
        <g
           id="g5563"
           transform="translate(413.6637,629.5209)">
          <path
             inkscape:connector-curvature="0"
             d="m 0,0 c 1.995,-0.045 3.512,-1.511 3.612,-3.494 l -0.005,-18.4 c -0.136,-1.825 -1.612,-3.172 -3.409,-3.3 L -44.978,-25.2 c -1.993,0.054 -3.51,1.506 -3.611,3.495 l 0.005,18.4 c 0.145,1.829 1.607,3.164 3.409,3.301 L 0,0"
             style="fill:#231f20;fill-opacity:1;fill-rule:evenodd;stroke:none"
             id="path5565" />
        </g>
        <g
           id="g5567"
           transform="translate(368.6757,628.1709)">
          <path
             inkscape:connector-curvature="0"
             d="m 0,0 45,0 c 1.239,0 2.25,-1.01 2.25,-2.25 l 0,-18 c 0,-1.239 -1.011,-2.25 -2.25,-2.25 l -45,0 c -1.239,0 -2.25,1.011 -2.25,2.25 l 0,18 C -2.25,-1.026 -1.225,0 0,0"
             style="fill:#ffffff;fill-opacity:1;fill-rule:evenodd;stroke:none"
             id="path5569" />
        </g>
        <g
           id="g5571"
           transform="translate(406.8397,621.7779)">
          <path
             inkscape:connector-curvature="0"
             d="m 0,0 0,1.894 -8.332,0 0,-1.894 3.076,0 0,-11.598 2.131,0 L -3.125,0 0,0 z m -9.139,-11.598 0,1.988 -6.248,0 0,11.504 -2.13,0 0,-13.492 8.378,0 z m -14.769,5.965 -2.698,0 1.372,3.787 1.326,-3.787 z m 4.355,-5.965 -4.639,13.492 -2.13,0 -4.639,-13.492 2.272,0 1.326,3.787 4.213,0 1.325,-3.787 2.272,0 z"
             style="fill:#231f20;fill-opacity:1;fill-rule:evenodd;stroke:none"
             id="path5573" />
        </g>
      </g>
    </g>
  </g>
</svg>
