<?xml version="1.0" encoding="UTF-8" standalone="no"?>
<!-- Created with Inkscape (http://www.inkscape.org/) -->

<svg
   xmlns:dc="http://purl.org/dc/elements/1.1/"
   xmlns:cc="http://creativecommons.org/ns#"
   xmlns:rdf="http://www.w3.org/1999/02/22-rdf-syntax-ns#"
   xmlns:svg="http://www.w3.org/2000/svg"
   xmlns="http://www.w3.org/2000/svg"
   xmlns:sodipodi="http://sodipodi.sourceforge.net/DTD/sodipodi-0.dtd"
   xmlns:inkscape="http://www.inkscape.org/namespaces/inkscape"
   width="68.125"
   height="34.375"
   id="svg7076"
   version="1.1"
   inkscape:version="0.48.2 r9819"
   sodipodi:docname="New document 58">
  <defs
     id="defs7078">
    <clipPath
       clipPathUnits="userSpaceOnUse"
       id="clipPath5301">
      <path
         inkscape:connector-curvature="0"
         d="m 62.625,537.021 513.625,0 0,200.979 -513.625,0 0,-200.979 z"
         id="path5303" />
    </clipPath>
  </defs>
  <sodipodi:namedview
     id="base"
     pagecolor="#ffffff"
     bordercolor="#666666"
     borderopacity="1.0"
     inkscape:pageopacity="0.0"
     inkscape:pageshadow="2"
     inkscape:zoom="0.35"
     inkscape:cx="100.49107"
     inkscape:cy="-19.955358"
     inkscape:document-units="px"
     inkscape:current-layer="layer1"
     showgrid="false"
     fit-margin-top="0"
     fit-margin-left="0"
     fit-margin-right="0"
     fit-margin-bottom="0"
     inkscape:window-width="469"
     inkscape:window-height="425"
     inkscape:window-x="1416"
     inkscape:window-y="50"
     inkscape:window-maximized="0" />
  <metadata
     id="metadata7081">
    <rdf:RDF>
      <cc:Work
         rdf:about="">
        <dc:format>image/svg+xml</dc:format>
        <dc:type
           rdf:resource="http://purl.org/dc/dcmitype/StillImage" />
        <dc:title></dc:title>
      </cc:Work>
    </rdf:RDF>
  </metadata>
  <g
     inkscape:label="Layer 1"
     inkscape:groupmode="layer"
     id="layer1"
     transform="translate(-274.50893,-478.03183)">
    <g
       transform="matrix(1.25,0,0,-1.25,133.46093,1201.7492)"
       id="g5297">
      <g
         id="g5299"
         clip-path="url(#clipPath5301)">
        <g
           id="g5305"
           transform="translate(117.5884,578.7239)">
          <path
             inkscape:connector-curvature="0"
             d="m 0,0 45,0 c 2.479,0 4.5,-1.969 4.5,-4.383 l 0,-18.234 C 49.5,-25.031 47.479,-27 45,-27 l -45,0 c -2.478,0 -4.5,1.969 -4.5,4.383 l 0,18.234 C -4.5,-1.95 -2.397,0 0,0"
             style="fill:#ffffff;fill-opacity:1;fill-rule:nonzero;stroke:#231f20;stroke-width:0.5;stroke-linecap:butt;stroke-linejoin:miter;stroke-miterlimit:4;stroke-opacity:1;stroke-dasharray:none"
             id="path5307" />
        </g>
        <g
           id="g5309"
           transform="translate(162.5767,577.8239)">
          <path
             inkscape:connector-curvature="0"
             d="m 0,0 c 1.995,-0.045 3.512,-1.511 3.612,-3.494 l -0.006,-18.4 c -0.135,-1.825 -1.61,-3.172 -3.408,-3.301 L -44.977,-25.2 c -1.995,0.053 -3.51,1.507 -3.611,3.495 l 0.005,18.401 c 0.143,1.828 1.605,3.164 3.409,3.3 L 0,0"
             style="fill:#231f20;fill-opacity:1;fill-rule:evenodd;stroke:none"
             id="path5311" />
        </g>
        <g
           id="g5313"
           transform="translate(117.5884,576.4739)">
          <path
             inkscape:connector-curvature="0"
             d="m 0,0 45,0 c 1.239,0 2.25,-1.011 2.25,-2.25 l 0,-18 c 0,-1.239 -1.011,-2.25 -2.25,-2.25 l -45,0 c -1.239,0 -2.25,1.011 -2.25,2.25 l 0,18 C -2.25,-1.026 -1.224,0 0,0"
             style="fill:#ffffff;fill-opacity:1;fill-rule:evenodd;stroke:none"
             id="path5315" />
        </g>
        <g
           id="g5317"
           transform="translate(163.5835,558.4829)">
          <path
             inkscape:connector-curvature="0"
             d="m 0,0 -3.125,8.758 2.794,4.734 -2.226,0 -3.076,-5.396 0,5.396 -1.941,0 0,-13.492 1.941,0 0,4.309 L -4.402,6.58 -2.035,0 0,0 z m -10.226,9.894 c -0.141,1.231 -0.332,1.799 -0.851,2.462 -0.615,0.9 -1.563,1.372 -2.652,1.372 -2.651,0 -4.024,-2.319 -4.024,-6.674 0,-4.971 1.278,-7.298 4.166,-7.298 1.895,0 3.314,1.617 3.361,3.842 l -1.941,0 c 0,-0.995 -0.283,-1.941 -1.42,-1.941 -1.656,0 -2.319,1.562 -2.319,5.444 0,3.503 0.567,4.734 2.131,4.734 0.899,0 1.418,-0.615 1.608,-1.941 l 1.941,0 z m -10.178,-5.87 0,9.468 -1.941,0 0,-9.705 c 0,-1.278 -0.758,-2.13 -1.799,-2.13 -1.136,0 -1.893,0.852 -1.893,2.13 l 0,9.705 -1.942,0 0,-9.468 c 0,-1.089 0.142,-1.657 0.522,-2.367 0.662,-1.137 1.987,-1.901 3.313,-1.901 1.278,0 2.556,0.812 3.22,1.901 0.378,0.71 0.52,1.278 0.52,2.367 m -11.693,5.87 c 0,-1.088 -0.615,-1.704 -1.752,-1.704 l -1.988,0 0,3.409 1.988,0 c 1.042,0 1.752,-0.663 1.752,-1.705 M -30.204,0 l -1.94,6.628 c 1.278,0.473 1.94,1.657 1.94,3.266 0,2.178 -1.419,3.598 -3.55,3.598 l -4.024,0 0,-13.492 1.941,0 0,6.344 1.847,0 1.799,-6.344 1.987,0 z m -9.42,11.693 0,1.799 -6.864,0 0,-1.799 2.461,0 0,-11.693 1.941,0 0,11.693 2.462,0 z"
             style="fill:#231f20;fill-opacity:1;fill-rule:evenodd;stroke:none"
             id="path5319" />
        </g>
      </g>
    </g>
  </g>
</svg>
