<?xml version="1.0" encoding="UTF-8" standalone="no"?>
<!-- Created with Inkscape (http://www.inkscape.org/) -->

<svg
   xmlns:dc="http://purl.org/dc/elements/1.1/"
   xmlns:cc="http://creativecommons.org/ns#"
   xmlns:rdf="http://www.w3.org/1999/02/22-rdf-syntax-ns#"
   xmlns:svg="http://www.w3.org/2000/svg"
   xmlns="http://www.w3.org/2000/svg"
   xmlns:sodipodi="http://sodipodi.sourceforge.net/DTD/sodipodi-0.dtd"
   xmlns:inkscape="http://www.inkscape.org/namespaces/inkscape"
   width="68.125"
   height="34.375"
   id="svg7252"
   version="1.1"
   inkscape:version="0.48.2 r9819"
   sodipodi:docname="New document 62">
  <defs
     id="defs7254">
    <clipPath
       clipPathUnits="userSpaceOnUse"
       id="clipPath5245">
      <path
         inkscape:connector-curvature="0"
         d="m 62.625,537.021 513.625,0 0,200.979 -513.625,0 0,-200.979 z"
         id="path5247" />
    </clipPath>
  </defs>
  <sodipodi:namedview
     id="base"
     pagecolor="#ffffff"
     bordercolor="#666666"
     borderopacity="1.0"
     inkscape:pageopacity="0.0"
     inkscape:pageshadow="2"
     inkscape:zoom="0.35"
     inkscape:cx="80.491071"
     inkscape:cy="48.616042"
     inkscape:document-units="px"
     inkscape:current-layer="layer1"
     showgrid="false"
     fit-margin-top="0"
     fit-margin-left="0"
     fit-margin-right="0"
     fit-margin-bottom="0"
     inkscape:window-width="469"
     inkscape:window-height="425"
     inkscape:window-x="1516"
     inkscape:window-y="150"
     inkscape:window-maximized="0" />
  <metadata
     id="metadata7257">
    <rdf:RDF>
      <cc:Work
         rdf:about="">
        <dc:format>image/svg+xml</dc:format>
        <dc:type
           rdf:resource="http://purl.org/dc/dcmitype/StillImage" />
        <dc:title></dc:title>
      </cc:Work>
    </rdf:RDF>
  </metadata>
  <g
     inkscape:label="Layer 1"
     inkscape:groupmode="layer"
     id="layer1"
     transform="translate(-294.50893,-546.60323)">
    <g
       transform="matrix(1.25,0,0,-1.25,-25.886946,1270.3206)"
       id="g5241">
      <g
         id="g5243"
         clip-path="url(#clipPath5245)">
        <g
           id="g5249"
           transform="translate(261.0667,578.7239)">
          <path
             inkscape:connector-curvature="0"
             d="m 0,0 45,0 c 2.479,0 4.5,-1.969 4.5,-4.383 l 0,-18.234 C 49.5,-25.031 47.479,-27 45,-27 l -45,0 c -2.478,0 -4.5,1.969 -4.5,4.383 l 0,18.234 C -4.5,-1.951 -2.398,0 0,0"
             style="fill:#ffffff;fill-opacity:1;fill-rule:nonzero;stroke:#231f20;stroke-width:0.5;stroke-linecap:butt;stroke-linejoin:miter;stroke-miterlimit:4;stroke-opacity:1;stroke-dasharray:none"
             id="path5251" />
        </g>
        <g
           id="g5253"
           transform="translate(306.0557,577.8239)">
          <path
             inkscape:connector-curvature="0"
             d="M 0,0 C 1.994,-0.046 3.511,-1.512 3.611,-3.495 L 3.606,-21.894 C 3.462,-23.719 2.001,-25.066 0.197,-25.195 L -44.978,-25.2 c -1.994,0.052 -3.51,1.505 -3.61,3.495 l 0.004,18.4 c 0.144,1.829 1.606,3.164 3.409,3.3 L 0,0"
             style="fill:#231f20;fill-opacity:1;fill-rule:evenodd;stroke:none"
             id="path5255" />
        </g>
        <g
           id="g5257"
           transform="translate(261.0667,576.4739)">
          <path
             inkscape:connector-curvature="0"
             d="m 0,0 45,0 c 1.239,0 2.25,-1.011 2.25,-2.25 l 0,-18 c 0,-1.239 -1.011,-2.25 -2.25,-2.25 l -45,0 c -1.239,0 -2.25,1.011 -2.25,2.25 l 0,18 C -2.25,-1.026 -1.223,0 0,0"
             style="fill:#ffffff;fill-opacity:1;fill-rule:evenodd;stroke:none"
             id="path5259" />
        </g>
        <g
           id="g5261"
           transform="translate(297.4037,565.2519)">
          <path
             inkscape:connector-curvature="0"
             d="M 0,0 C 0,-1.798 -0.427,-3.266 -1.231,-4.071 -1.61,-4.45 -2.035,-4.592 -2.746,-4.592 l -2.13,0 0,9.184 2.414,0 c 0.569,0 1.042,-0.237 1.373,-0.568 C -0.427,3.314 0,1.799 0,0 m 2.178,0 c 0,2.652 -0.806,4.782 -2.226,6.012 -0.709,0.569 -1.23,0.71 -2.603,0.71 l -4.356,0 0,-13.491 4.119,0 0.757,0 c 0.711,0.047 1.421,0.283 1.942,0.758 1.514,1.183 2.367,3.313 2.367,6.011 m -12.357,-6.769 0,13.491 -2.129,0 0,-8.616 -4.923,8.616 -2.131,0 0,-13.491 2.131,0 0,9.137 5.16,-9.137 1.892,0 z m -11.408,0 0,2.177 -6.249,0 0,3.693 3.929,0 0,2.177 -3.929,0 0,3.314 5.822,0 0,2.13 -7.952,0 0,-13.491 8.379,0 z"
             style="fill:#231f20;fill-opacity:1;fill-rule:evenodd;stroke:none"
             id="path5263" />
        </g>
      </g>
    </g>
  </g>
</svg>
