<?xml version="1.0" encoding="UTF-8" standalone="no"?>
<!-- Created with Inkscape (http://www.inkscape.org/) -->

<svg
   xmlns:dc="http://purl.org/dc/elements/1.1/"
   xmlns:cc="http://creativecommons.org/ns#"
   xmlns:rdf="http://www.w3.org/1999/02/22-rdf-syntax-ns#"
   xmlns:svg="http://www.w3.org/2000/svg"
   xmlns="http://www.w3.org/2000/svg"
   xmlns:sodipodi="http://sodipodi.sourceforge.net/DTD/sodipodi-0.dtd"
   xmlns:inkscape="http://www.inkscape.org/namespaces/inkscape"
   width="90.625"
   height="64.921875"
   id="svg8375"
   version="1.1"
   inkscape:version="0.48.2 r9819"
   sodipodi:docname="New document 75">
  <defs
     id="defs8377">
    <clipPath
       clipPathUnits="userSpaceOnUse"
       id="clipPath7989">
      <path
         inkscape:connector-curvature="0"
         d="m 63,45 512.875,0 0,250.47 L 63,295.47 63,45 z"
         id="path7991" />
    </clipPath>
  </defs>
  <sodipodi:namedview
     id="base"
     pagecolor="#ffffff"
     bordercolor="#666666"
     borderopacity="1.0"
     inkscape:pageopacity="0.0"
     inkscape:pageshadow="2"
     inkscape:zoom="0.35"
     inkscape:cx="40.296557"
     inkscape:cy="18.179912"
     inkscape:document-units="px"
     inkscape:current-layer="layer1"
     showgrid="false"
     fit-margin-top="0"
     fit-margin-left="0"
     fit-margin-right="0"
     fit-margin-bottom="0"
     inkscape:window-width="469"
     inkscape:window-height="425"
     inkscape:window-x="1566"
     inkscape:window-y="200"
     inkscape:window-maximized="0" />
  <metadata
     id="metadata8380">
    <rdf:RDF>
      <cc:Work
         rdf:about="">
        <dc:format>image/svg+xml</dc:format>
        <dc:type
           rdf:resource="http://purl.org/dc/dcmitype/StillImage" />
        <dc:title></dc:title>
      </cc:Work>
    </rdf:RDF>
  </metadata>
  <g
     inkscape:label="Layer 1"
     inkscape:groupmode="layer"
     id="layer1"
     transform="translate(-334.70344,-485.62022)">
    <g
       transform="matrix(1.25,0,0,-1.25,150.56288,814.52072)"
       id="g7985">
      <g
         id="g7987"
         clip-path="url(#clipPath7989)">
        <g
           id="g7993"
           transform="translate(154.4062,262.8704)">
          <path
             inkscape:connector-curvature="0"
             d="m 0,0 58.286,0 c 3.777,0 6.857,-3.08 6.857,-6.857 l 0,-37.715 c 0,-3.777 -3.08,-6.858 -6.857,-6.858 L 0,-51.43 c -3.776,0 -6.856,3.081 -6.856,6.858 l 0,37.715 C -6.856,-3.128 -3.729,0 0,0"
             style="fill:#ffffff;fill-opacity:1;fill-rule:nonzero;stroke:#231f20;stroke-width:0.5;stroke-linecap:butt;stroke-linejoin:miter;stroke-miterlimit:4;stroke-opacity:1;stroke-dasharray:none"
             id="path7995" />
        </g>
        <g
           id="g7997"
           transform="translate(212.6743,261.4983)">
          <path
             inkscape:connector-curvature="0"
             d="M 0,0 C 3.053,-0.077 5.422,-2.451 5.504,-5.503 L 5.497,-43.481 C 5.268,-46.46 2.929,-48.542 0,-48.686 l -58.55,0.008 c -2.98,0.23 -5.057,2.567 -5.203,5.495 l 0.007,37.98 c 0.229,2.979 2.567,5.057 5.495,5.203 L 0,0"
             style="fill:#231f20;fill-opacity:1;fill-rule:evenodd;stroke:none"
             id="path7999" />
        </g>
        <g
           id="g8001"
           transform="translate(212.6493,259.4417)">
          <path
             inkscape:connector-curvature="0"
             d="M 0,0 C 1.84,-0.003 3.324,-1.432 3.467,-3.251 L 3.473,-41.1 c -0.008,-1.836 -1.429,-3.33 -3.252,-3.466 l -58.42,-0.005 c -1.837,0.003 -3.327,1.429 -3.467,3.25 l -0.005,37.848 c 0.002,1.838 1.431,3.327 3.251,3.467 L 0,0"
             style="fill:#ffffff;fill-opacity:1;fill-rule:evenodd;stroke:none"
             id="path8003" />
        </g>
        <g
           id="g8005"
           transform="translate(186.8493,232.3704)">
          <path
             inkscape:connector-curvature="0"
             d="m 0,0 -7.509,6.272 -2.03,-4.708 c -0.291,-0.642 -0.553,-1.08 -1.162,-1.251 -0.871,-0.249 -1.784,0.261 -2.032,1.132 L -18.39,21.187 2.05,19.105 c 0.902,-0.09 1.564,-0.9 1.473,-1.801 C 3.463,16.701 3.083,16.343 2.567,15.97 L -1.789,13.105 8.733,4.297 C 9.183,3.919 9.456,3.324 9.456,2.731 l -0.015,-16.865 -8.9,-0.005 0,13.046 C 0.541,-0.67 0.332,-0.252 0,0"
             style="fill:#231f20;fill-opacity:1;fill-rule:evenodd;stroke:none"
             id="path8007" />
        </g>
      </g>
    </g>
  </g>
</svg>
