<?xml version="1.0" encoding="UTF-8" standalone="no"?>
<!-- Created with Inkscape (http://www.inkscape.org/) -->

<svg
   xmlns:dc="http://purl.org/dc/elements/1.1/"
   xmlns:cc="http://creativecommons.org/ns#"
   xmlns:rdf="http://www.w3.org/1999/02/22-rdf-syntax-ns#"
   xmlns:svg="http://www.w3.org/2000/svg"
   xmlns="http://www.w3.org/2000/svg"
   xmlns:sodipodi="http://sodipodi.sourceforge.net/DTD/sodipodi-0.dtd"
   xmlns:inkscape="http://www.inkscape.org/namespaces/inkscape"
   width="90.625"
   height="64.921875"
   id="svg9041"
   version="1.1"
   inkscape:version="0.48.2 r9819"
   sodipodi:docname="New document 93">
  <defs
     id="defs9043">
    <clipPath
       clipPathUnits="userSpaceOnUse"
       id="clipPath7733">
      <path
         inkscape:connector-curvature="0"
         d="m 63,45 512.875,0 0,250.47 L 63,295.47 63,45 z"
         id="path7735" />
    </clipPath>
  </defs>
  <sodipodi:namedview
     id="base"
     pagecolor="#ffffff"
     bordercolor="#666666"
     borderopacity="1.0"
     inkscape:pageopacity="0.0"
     inkscape:pageshadow="2"
     inkscape:zoom="0.35"
     inkscape:cx="91.724509"
     inkscape:cy="-44.676608"
     inkscape:document-units="px"
     inkscape:current-layer="layer1"
     showgrid="false"
     fit-margin-top="0"
     fit-margin-left="0"
     fit-margin-right="0"
     fit-margin-bottom="0"
     inkscape:window-width="469"
     inkscape:window-height="425"
     inkscape:window-x="1466"
     inkscape:window-y="100"
     inkscape:window-maximized="0" />
  <metadata
     id="metadata9046">
    <rdf:RDF>
      <cc:Work
         rdf:about="">
        <dc:format>image/svg+xml</dc:format>
        <dc:type
           rdf:resource="http://purl.org/dc/dcmitype/StillImage" />
        <dc:title></dc:title>
      </cc:Work>
    </rdf:RDF>
  </metadata>
  <g
     inkscape:label="Layer 1"
     inkscape:groupmode="layer"
     id="layer1"
     transform="translate(-283.27549,-422.7637)">
    <g
       transform="matrix(1.25,0,0,-1.25,98.023429,561.77245)"
       id="g7729">
      <g
         id="g7731"
         clip-path="url(#clipPath7733)">
        <g
           id="g7737"
           transform="translate(155.2954,110.957)">
          <path
             inkscape:connector-curvature="0"
             d="m 0,0 58.285,0 c 3.778,0 6.858,-3.08 6.858,-6.857 l 0,-37.714 c 0,-3.777 -3.08,-6.858 -6.858,-6.858 l -58.285,0 c -3.777,0 -6.857,3.081 -6.857,6.858 l 0,37.714 C -6.857,-3.128 -3.731,0 0,0"
             style="fill:#ffffff;fill-opacity:1;fill-rule:nonzero;stroke:#231f20;stroke-width:0.5;stroke-linecap:butt;stroke-linejoin:miter;stroke-miterlimit:4;stroke-opacity:1;stroke-dasharray:none"
             id="path7739" />
        </g>
        <g
           id="g7741"
           transform="translate(213.5633,109.586)">
          <path
             inkscape:connector-curvature="0"
             d="M 0,0 C 3.052,-0.078 5.422,-2.453 5.504,-5.504 L 5.496,-43.482 C 5.267,-46.464 2.929,-48.538 0,-48.686 l -58.551,0.007 c -2.981,0.23 -5.055,2.567 -5.203,5.496 l 0.008,37.979 c 0.228,2.98 2.566,5.058 5.496,5.204 L 0,0"
             style="fill:#231f20;fill-opacity:1;fill-rule:evenodd;stroke:none"
             id="path7743" />
        </g>
        <g
           id="g7745"
           transform="translate(213.5373,107.529)">
          <path
             inkscape:connector-curvature="0"
             d="M 0,0 C 1.84,-0.007 3.324,-1.429 3.467,-3.251 L 3.473,-41.1 c -0.002,-1.837 -1.432,-3.327 -3.252,-3.467 l -58.42,-0.005 c -1.838,0.003 -3.326,1.43 -3.467,3.251 l -0.006,37.848 c 0.006,1.839 1.43,3.327 3.252,3.467 L 0,0"
             style="fill:#ffffff;fill-opacity:1;fill-rule:evenodd;stroke:none"
             id="path7747" />
        </g>
        <g
           id="g7749"
           transform="translate(192.3873,80.794)">
          <path
             inkscape:connector-curvature="0"
             d="m 0,0 -1.506,-4.972 c -0.156,-0.615 -0.217,-1.131 0.123,-1.63 0.508,-0.746 1.529,-0.942 2.275,-0.434 L 17.836,4.442 0.892,15.902 c -0.746,0.506 -1.767,0.312 -2.275,-0.434 -0.355,-0.521 -0.275,-1.023 -0.088,-1.699 l 1.449,-4.893 -16.119,0 1.459,4.893 c 0.19,0.676 0.268,1.178 -0.086,1.699 -0.508,0.746 -1.531,0.94 -2.277,0.434 L -33.986,4.442 -17.045,-7.036 c 0.746,-0.508 1.769,-0.312 2.277,0.434 0.338,0.499 0.278,1.015 0.121,1.63 L -16.141,0 0,0 z"
             style="fill:#231f20;fill-opacity:1;fill-rule:evenodd;stroke:none"
             id="path7751" />
        </g>
      </g>
    </g>
  </g>
</svg>
