<?xml version="1.0" encoding="UTF-8" standalone="no"?>
<!-- Created with Inkscape (http://www.inkscape.org/) -->

<svg
   xmlns:dc="http://purl.org/dc/elements/1.1/"
   xmlns:cc="http://creativecommons.org/ns#"
   xmlns:rdf="http://www.w3.org/1999/02/22-rdf-syntax-ns#"
   xmlns:svg="http://www.w3.org/2000/svg"
   xmlns="http://www.w3.org/2000/svg"
   xmlns:sodipodi="http://sodipodi.sourceforge.net/DTD/sodipodi-0.dtd"
   xmlns:inkscape="http://www.inkscape.org/namespaces/inkscape"
   width="90.625"
   height="64.921875"
   id="svg9153"
   version="1.1"
   inkscape:version="0.48.2 r9819"
   sodipodi:docname="New document 95">
  <defs
     id="defs9155" />
  <sodipodi:namedview
     id="base"
     pagecolor="#ffffff"
     bordercolor="#666666"
     borderopacity="1.0"
     inkscape:pageopacity="0.0"
     inkscape:pageshadow="2"
     inkscape:zoom="1.4"
     inkscape:cx="66.309965"
     inkscape:cy="17.90779"
     inkscape:document-units="px"
     inkscape:current-layer="layer1"
     showgrid="false"
     fit-margin-top="0"
     fit-margin-left="0"
     fit-margin-right="0"
     fit-margin-bottom="0"
     inkscape:window-width="469"
     inkscape:window-height="425"
     inkscape:window-x="1516"
     inkscape:window-y="150"
     inkscape:window-maximized="0" />
  <metadata
     id="metadata9158">
    <rdf:RDF>
      <cc:Work
         rdf:about="">
        <dc:format>image/svg+xml</dc:format>
        <dc:type
           rdf:resource="http://purl.org/dc/dcmitype/StillImage" />
        <dc:title></dc:title>
      </cc:Work>
    </rdf:RDF>
  </metadata>
  <g
     inkscape:label="Layer 1"
     inkscape:groupmode="layer"
     id="layer1"
     transform="translate(-286.13263,-497.04941)">
    <g
       id="g7765"
       transform="matrix(1.25,0,0,-1.25,294.99982,497.36191)">
      <path
         d="m 0,0 58.285,0 c 3.778,0 6.858,-3.08 6.858,-6.857 l 0,-37.715 c 0,-3.776 -3.08,-6.857 -6.858,-6.857 l -58.285,0 c -3.777,0 -6.857,3.081 -6.857,6.857 l 0,37.715 C -6.857,-3.128 -3.729,0 0,0"
         style="fill:#ffffff;fill-opacity:1;fill-rule:nonzero;stroke:#231f20;stroke-width:0.5;stroke-linecap:butt;stroke-linejoin:miter;stroke-miterlimit:4;stroke-opacity:1;stroke-dasharray:none"
         id="path7767"
         inkscape:connector-curvature="0" />
    </g>
    <g
       id="g7769"
       transform="matrix(1.25,0,0,-1.25,367.83483,499.07566)">
      <path
         d="M 0,0 C 3.052,-0.078 5.422,-2.453 5.504,-5.504 L 5.496,-43.482 C 5.267,-46.464 2.927,-48.538 0,-48.686 l -58.55,0.007 c -2.982,0.229 -5.056,2.567 -5.204,5.496 l 0.008,37.979 c 0.229,2.98 2.566,5.058 5.496,5.204 L 0,0"
         style="fill:#231f20;fill-opacity:1;fill-rule:evenodd;stroke:none"
         id="path7771"
         inkscape:connector-curvature="0" />
    </g>
    <g
       id="g7773"
       transform="matrix(1.25,0,0,-1.25,367.80232,501.64691)">
      <path
         d="M 0,0 C 1.838,-0.006 3.326,-1.429 3.467,-3.251 L 3.473,-41.1 c -0.002,-1.837 -1.432,-3.327 -3.252,-3.467 l -58.42,-0.005 c -1.838,0.003 -3.326,1.43 -3.467,3.251 l -0.005,37.848 c 0.006,1.839 1.429,3.327 3.251,3.467 L 0,0"
         style="fill:#ffffff;fill-opacity:1;fill-rule:evenodd;stroke:none"
         id="path7775"
         inkscape:connector-curvature="0" />
    </g>
    <g
       id="g7777"
       transform="matrix(1.25,0,0,-1.25,346.22607,522.34816)">
      <path
         d="m 0,0 1.796,-3.895 c 0.241,-0.465 0.487,-0.819 0.969,-0.94 0.723,-0.184 1.461,0.258 1.645,0.981 L 8.574,12.523 -8.17,10.308 C -8.909,10.211 -9.434,9.53 -9.338,8.791 -9.272,8.274 -8.948,8.009 -8.461,7.694 l 3.58,-2.226 -18.903,-16.875 -1.781,3.821 c -0.256,0.521 -0.48,0.874 -0.986,1.001 -0.723,0.183 -1.461,-0.258 -1.643,-0.98 l -4.176,-16.368 16.754,2.206 c 0.741,0.095 1.264,0.777 1.168,1.516 -0.064,0.494 -0.384,0.779 -0.818,1.073 l -3.65,2.251 L 0,0 z"
         style="fill:#231f20;fill-opacity:1;fill-rule:evenodd;stroke:none"
         id="path7779"
         inkscape:connector-curvature="0" />
    </g>
  </g>
</svg>
