<?xml version="1.0" encoding="UTF-8" standalone="no"?>
<!-- Created with Inkscape (http://www.inkscape.org/) -->

<svg
   xmlns:dc="http://purl.org/dc/elements/1.1/"
   xmlns:cc="http://creativecommons.org/ns#"
   xmlns:rdf="http://www.w3.org/1999/02/22-rdf-syntax-ns#"
   xmlns:svg="http://www.w3.org/2000/svg"
   xmlns="http://www.w3.org/2000/svg"
   xmlns:sodipodi="http://sodipodi.sourceforge.net/DTD/sodipodi-0.dtd"
   xmlns:inkscape="http://www.inkscape.org/namespaces/inkscape"
   width="86.317497"
   height="138.125"
   id="svg3281"
   version="1.1"
   inkscape:version="0.48.2 r9819"
   sodipodi:docname="New document 4">
  <defs
     id="defs3283">
    <clipPath
       clipPathUnits="userSpaceOnUse"
       id="clipPath3189">
      <path
         inkscape:connector-curvature="0"
         d="m 62.625,446.038 513.375,0 0,291.962 -513.375,0 0,-291.962 z"
         id="path3191" />
    </clipPath>
  </defs>
  <sodipodi:namedview
     id="base"
     pagecolor="#ffffff"
     bordercolor="#666666"
     borderopacity="1.0"
     inkscape:pageopacity="0.0"
     inkscape:pageshadow="2"
     inkscape:zoom="0.35"
     inkscape:cx="112.44447"
     inkscape:cy="-68.080333"
     inkscape:document-units="px"
     inkscape:current-layer="layer1"
     showgrid="false"
     fit-margin-top="0"
     fit-margin-left="0"
     fit-margin-right="0"
     fit-margin-bottom="0"
     inkscape:window-width="469"
     inkscape:window-height="425"
     inkscape:window-x="157"
     inkscape:window-y="75"
     inkscape:window-maximized="1" />
  <metadata
     id="metadata3286">
    <rdf:RDF>
      <cc:Work
         rdf:about="">
        <dc:format>image/svg+xml</dc:format>
        <dc:type
           rdf:resource="http://purl.org/dc/dcmitype/StillImage" />
        <dc:title></dc:title>
      </cc:Work>
    </rdf:RDF>
  </metadata>
  <g
     inkscape:label="Layer 1"
     inkscape:groupmode="layer"
     id="layer1"
     transform="translate(-262.55553,-326.15685)">
    <g
       transform="matrix(1.25,0,0,-1.25,170.99028,1166.2946)"
       id="g3185">
      <g
         id="g3187"
         clip-path="url(#clipPath3189)">
        <g
           id="g3193"
           transform="translate(142.2052,623.3312)">
          <path
             inkscape:connector-curvature="0"
             d="m 0,0 c -0.009,0.037 -0.016,0.072 -0.025,0.108 -0.066,0.228 -0.157,0.437 -0.267,0.633 -0.01,0.018 -0.015,0.04 -0.024,0.058 L -0.321,0.791 c -0.04,0.066 -0.074,0.135 -0.118,0.197 l -0.445,0.588 -30.466,45.112 -0.612,0.808 c -0.608,0.811 -1.554,1.283 -2.499,1.283 -1.079,0 -2.024,-0.472 -2.563,-1.283 L -37.405,46.931 -67.924,1.647 -68.48,0.875 c -0.337,-0.539 -0.473,-1.08 -0.473,-1.755 0,-1.687 1.351,-3.104 3.105,-3.104 0.203,0 0.473,0.067 0.675,0.134 l 0.63,0.18 21.78,5.197 -2.699,-63.248 22.071,0 -2.632,63.182 -0.068,0.066 21.453,-5.12 0.824,-0.143 c 0.269,-0.069 0.54,-0.135 0.809,-0.135 1.688,0 3.106,1.416 3.106,3.103 C 0.101,-0.498 0.06,-0.244 0,0"
             style="fill:#231f20;fill-opacity:1;fill-rule:nonzero;stroke:none"
             id="path3195" />
        </g>
      </g>
    </g>
  </g>
</svg>
