<?xml version="1.0" encoding="UTF-8" standalone="no"?>
<!-- Created with Inkscape (http://www.inkscape.org/) -->

<svg
   xmlns:dc="http://purl.org/dc/elements/1.1/"
   xmlns:cc="http://creativecommons.org/ns#"
   xmlns:rdf="http://www.w3.org/1999/02/22-rdf-syntax-ns#"
   xmlns:svg="http://www.w3.org/2000/svg"
   xmlns="http://www.w3.org/2000/svg"
   xmlns:sodipodi="http://sodipodi.sourceforge.net/DTD/sodipodi-0.dtd"
   xmlns:inkscape="http://www.inkscape.org/namespaces/inkscape"
   width="55.820312"
   height="44.765625"
   id="svg3934"
   version="1.1"
   inkscape:version="0.48.3.1 r9886"
   sodipodi:docname="New document 14">
  <defs
     id="defs3936" />
  <sodipodi:namedview
     id="base"
     pagecolor="#ffffff"
     bordercolor="#666666"
     borderopacity="1.0"
     inkscape:pageopacity="0.0"
     inkscape:pageshadow="2"
     inkscape:zoom="0.35"
     inkscape:cx="27.904375"
     inkscape:cy="22.373122"
     inkscape:document-units="px"
     inkscape:current-layer="layer1"
     showgrid="false"
     fit-margin-top="0"
     fit-margin-left="0"
     fit-margin-right="0"
     fit-margin-bottom="0"
     inkscape:window-width="451"
     inkscape:window-height="398"
     inkscape:window-x="25"
     inkscape:window-y="25"
     inkscape:window-maximized="0" />
  <metadata
     id="metadata3939">
    <rdf:RDF>
      <cc:Work
         rdf:about="">
        <dc:format>image/svg+xml</dc:format>
        <dc:type
           rdf:resource="http://purl.org/dc/dcmitype/StillImage" />
        <dc:title></dc:title>
      </cc:Work>
    </rdf:RDF>
  </metadata>
  <g
     inkscape:label="Layer 1"
     inkscape:groupmode="layer"
     id="layer1"
     transform="translate(-347.09562,-509.96968)">
    <g
       id="g3233"
       transform="matrix(1.25,0,0,-1.25,351.08,510.28218)">
      <path
         d="m 0,0 38.273,0 c 1.621,0 2.943,-1.323 2.943,-2.945 l 0,-29.439 c 0,-1.622 -1.322,-2.944 -2.943,-2.944 l -38.273,0 c -1.622,0 -2.944,1.322 -2.944,2.944 l 0,29.439 C -2.944,-1.323 -1.622,0 0,0"
         style="fill:#f03e78;fill-opacity:1;fill-rule:nonzero;stroke:none"
         id="path3235"
         inkscape:connector-curvature="0" />
    </g>
    <g
       id="g3237"
       transform="matrix(1.25,0,0,-1.25,351.08,510.28218)">
      <path
         d="m 0,0 38.273,0 c 1.621,0 2.943,-1.323 2.943,-2.945 l 0,-29.439 c 0,-1.622 -1.322,-2.944 -2.943,-2.944 l -38.273,0 c -1.622,0 -2.944,1.322 -2.944,2.944 l 0,29.439 C -2.944,-1.323 -1.622,0 0,0 z"
         style="fill:none;stroke:#231f20;stroke-width:0.5;stroke-linecap:butt;stroke-linejoin:miter;stroke-miterlimit:4;stroke-opacity:1;stroke-dasharray:none"
         id="path3239"
         inkscape:connector-curvature="0" />
    </g>
    <g
       id="g3241"
       transform="matrix(1.25,0,0,-1.25,351.29125,511.23968)">
      <path
         d="m 0,0 37.934,0 c 1.293,0 2.347,-1.052 2.347,-2.343 l 0,-29.111 c 0,-1.29 -1.054,-2.343 -2.347,-2.343 l -37.934,0 c -1.293,0 -2.348,1.053 -2.348,2.343 l 0,29.111 C -2.348,-1.052 -1.293,0 0,0"
         style="fill:#231f20;fill-opacity:1;fill-rule:evenodd;stroke:none"
         id="path3243"
         inkscape:connector-curvature="0" />
    </g>
    <g
       id="g3245"
       transform="matrix(1.25,0,0,-1.25,351.3225,512.71218)">
      <path
         d="m 0,0 37.883,0 c 0.658,0 1.196,-0.535 1.196,-1.192 l 0,-29.057 c 0,-0.656 -0.538,-1.192 -1.196,-1.192 l -37.883,0 c -0.658,0 -1.195,0.536 -1.195,1.192 l 0,29.057 C -1.195,-0.535 -0.658,0 0,0"
         style="fill:#f03e78;fill-opacity:1;fill-rule:evenodd;stroke:none"
         id="path3247"
         inkscape:connector-curvature="0" />
    </g>
    <g
       id="g3249"
       transform="matrix(1.25,0,0,-1.25,395.76125,520.30843)">
      <path
         d="m 0,0 c 0,-0.31 -0.181,-0.619 -0.465,-0.775 -0.181,-0.103 -0.31,-0.128 -0.671,-0.128 l -1.395,0 0,1.807 1.395,0 c 0.387,0 0.49,-0.026 0.671,-0.129 C -0.181,0.62 0,0.31 0,0 M 1.317,-5.291 0.025,-1.858 C 0.696,-1.548 1.16,-0.775 1.16,0 1.16,0.749 0.696,1.523 0.051,1.833 -0.31,2.014 -0.697,2.065 -1.265,2.065 l -2.427,0 0,-7.356 1.161,0 0,3.2 1.395,0 1.187,-3.2 1.266,0 z m -6.738,2.633 0,4.723 -1.162,0 0,-4.723 c 0,-0.955 -0.542,-1.575 -1.342,-1.575 -0.799,0 -1.342,0.62 -1.342,1.575 l 0,4.723 -1.16,0 0,-4.723 c 0,-0.568 0.126,-1.084 0.334,-1.523 0.387,-0.723 1.264,-1.244 2.168,-1.244 0.904,0 1.781,0.521 2.169,1.244 0.205,0.439 0.335,0.955 0.335,1.523 m -7.77,1.032 c 0,-0.568 -0.129,-1.29 -0.283,-1.678 -0.258,-0.645 -0.594,-0.929 -1.136,-0.929 -0.465,0 -0.775,0.181 -1.007,0.568 -0.283,0.465 -0.437,1.265 -0.437,2.039 0,0.62 0.101,1.291 0.283,1.73 0.258,0.645 0.619,0.929 1.186,0.903 0.44,-0.026 0.724,-0.181 0.956,-0.568 0.284,-0.49 0.438,-1.239 0.438,-2.065 m 1.162,0 c 0,0.93 -0.18,1.858 -0.49,2.504 -0.465,0.904 -1.11,1.316 -2.039,1.316 -0.852,0 -1.446,-0.258 -1.885,-0.826 -0.49,-0.696 -0.8,-1.781 -0.8,-2.994 0,-0.878 0.207,-1.858 0.517,-2.478 0.439,-0.903 1.084,-1.321 2.116,-1.321 0.774,0 1.368,0.263 1.781,0.831 0.517,0.645 0.8,1.807 0.8,2.968 m -6.143,2.659 0,1.032 -4.543,0 0,-1.032 1.678,0 0,-6.324 1.16,0 0,6.324 1.705,0 z m -5.111,-6.324 0,1.187 -3.406,0 0,2.013 2.14,0 0,1.188 -2.14,0 0,1.807 3.174,0 0,1.161 -4.336,0 0,-7.356 4.568,0 z m -7.356,3.691 c 0,-0.981 -0.233,-1.781 -0.671,-2.22 -0.205,-0.206 -0.438,-0.284 -0.826,-0.284 l -1.162,0 0,5.008 1.318,0 c 0.308,0 0.567,-0.129 0.748,-0.31 0.36,-0.387 0.593,-1.213 0.593,-2.194 m 1.187,0 c 0,1.445 -0.438,2.607 -1.212,3.279 -0.388,0.309 -0.672,0.386 -1.422,0.386 l -2.373,0 0,-7.356 2.246,0 0.412,0 c 0.388,0.026 0.775,0.155 1.059,0.412 0.826,0.646 1.29,1.808 1.29,3.279"
         style="fill:#231f20;fill-opacity:1;fill-rule:evenodd;stroke:none"
         id="path3251"
         inkscape:connector-curvature="0" />
    </g>
    <g
       id="g3253"
       transform="matrix(1.25,0,0,-1.25,375.84,529.11331)">
      <path
         d="M 0,0 12.586,-8.514 0,-17.041 c -0.553,-0.377 -1.315,-0.233 -1.692,0.322 -0.252,0.371 -0.206,0.755 -0.09,1.211 l 1.111,3.694 -13.249,0 0,6.595 13.249,0 -1.085,3.634 c -0.141,0.503 -0.199,0.875 0.064,1.263 C -1.315,0.232 -0.553,0.377 0,0"
         style="fill:#231f20;fill-opacity:1;fill-rule:evenodd;stroke:none"
         id="path3255"
         inkscape:connector-curvature="0" />
    </g>
  </g>
</svg>
