<?xml version="1.0" encoding="UTF-8" standalone="no"?>
<!-- Created with Inkscape (http://www.inkscape.org/) -->

<svg
   xmlns:dc="http://purl.org/dc/elements/1.1/"
   xmlns:cc="http://creativecommons.org/ns#"
   xmlns:rdf="http://www.w3.org/1999/02/22-rdf-syntax-ns#"
   xmlns:svg="http://www.w3.org/2000/svg"
   xmlns="http://www.w3.org/2000/svg"
   xmlns:sodipodi="http://sodipodi.sourceforge.net/DTD/sodipodi-0.dtd"
   xmlns:inkscape="http://www.inkscape.org/namespaces/inkscape"
   width="90.612541"
   height="90.631676"
   id="svg3475"
   version="1.1"
   inkscape:version="0.48.3.1 r9886"
   sodipodi:docname="New document 4">
  <defs
     id="defs3477">
    <clipPath
       clipPathUnits="userSpaceOnUse"
       id="clipPath3321">
      <path
         inkscape:connector-curvature="0"
         d="m 62.75,568.19 513.25,0 0,169.81 -513.25,0 0,-169.81 z"
         id="path3323" />
    </clipPath>
    <clipPath
       clipPathUnits="userSpaceOnUse"
       id="clipPath3309">
      <path
         inkscape:connector-curvature="0"
         d="m 117.371,568.19 404.009,0 0,169.81 -404.009,0 0,-169.81 z"
         id="path3311" />
    </clipPath>
  </defs>
  <sodipodi:namedview
     id="base"
     pagecolor="#ffffff"
     bordercolor="#666666"
     borderopacity="1.0"
     inkscape:pageopacity="0.0"
     inkscape:pageshadow="2"
     inkscape:zoom="0.35"
     inkscape:cx="45.30497"
     inkscape:cy="45.32238"
     inkscape:document-units="px"
     inkscape:current-layer="layer1"
     showgrid="false"
     fit-margin-top="0"
     fit-margin-left="0"
     fit-margin-right="0"
     fit-margin-bottom="0"
     inkscape:window-width="451"
     inkscape:window-height="398"
     inkscape:window-x="150"
     inkscape:window-y="150"
     inkscape:window-maximized="0" />
  <metadata
     id="metadata3480">
    <rdf:RDF>
      <cc:Work
         rdf:about="">
        <dc:format>image/svg+xml</dc:format>
        <dc:type
           rdf:resource="http://purl.org/dc/dcmitype/StillImage" />
        <dc:title></dc:title>
      </cc:Work>
    </rdf:RDF>
  </metadata>
  <g
     inkscape:label="Layer 1"
     inkscape:groupmode="layer"
     id="layer1"
     transform="translate(-329.69503,-487.05289)">
    <g
       transform="matrix(1.25,0,0,-1.25,182.98128,1381.305)"
       id="g3305">
      <g
         id="g3307"
         clip-path="url(#clipPath3309)">
        <g
           id="g3313"
           transform="translate(118.5737,681.4901)">
          <path
             inkscape:connector-curvature="0"
             d="m 0,0 32.699,32.7 c 1.286,1.286 3.385,1.286 4.672,0 L 70.07,0 c 1.287,-1.286 1.287,-3.384 0,-4.671 l -32.699,-32.7 c -1.287,-1.287 -3.386,-1.287 -4.672,0 L 0,-4.671 c -1.271,1.27 -1.271,3.4 0,4.671"
             style="fill:#f03e78;fill-opacity:1;fill-rule:evenodd;stroke:#231f20;stroke-width:0.5;stroke-linecap:butt;stroke-linejoin:miter;stroke-miterlimit:4;stroke-opacity:1;stroke-dasharray:none"
             id="path3315" />
        </g>
      </g>
    </g>
    <g
       transform="matrix(1.25,0,0,-1.25,182.98128,1381.305)"
       id="g3317">
      <g
         id="g3319"
         clip-path="url(#clipPath3321)">
        <g
           id="g3325"
           transform="translate(119.1645,680.914)">
          <path
             inkscape:connector-curvature="0"
             d="m 0,0 32.686,32.685 c 0.966,0.96 2.55,0.957 3.518,0 L 68.888,0 c 0.962,-0.959 0.96,-2.559 0,-3.519 L 36.204,-36.203 c -0.96,-0.959 -2.559,-0.963 -3.518,0 L 0,-3.519 C -0.959,-2.555 -0.961,-0.963 0,0"
             style="fill:#231f20;fill-opacity:1;fill-rule:evenodd;stroke:none"
             id="path3327" />
        </g>
        <g
           id="g3329"
           transform="translate(120.1509,679.953)">
          <path
             inkscape:connector-curvature="0"
             d="m 0,0 32.66,32.66 c 0.431,0.447 1.165,0.446 1.596,0 L 66.916,0 c 0.446,-0.431 0.446,-1.166 0,-1.597 l -32.66,-32.659 c -0.43,-0.447 -1.166,-0.447 -1.596,0 L 0,-1.597 C -0.446,-1.166 -0.446,-0.431 0,0"
             style="fill:#f03e78;fill-opacity:1;fill-rule:evenodd;stroke:none"
             id="path3331" />
        </g>
        <g
           id="g3333"
           transform="translate(159.0044,691.9351)">
          <path
             inkscape:connector-curvature="0"
             d="m 0,0 0,1.236 -3.213,0 0,2.903 1.823,0 0,1.205 -1.823,0 0,2.224 2.873,0 0,1.236 -4.139,0 L -4.479,0 0,0 z m -7.168,2.502 c 0,-0.772 -0.463,-1.266 -1.174,-1.266 l -1.265,0 0,2.749 1.265,0 c 0.65,0 1.174,-0.649 1.174,-1.483 m -0.154,4.015 c 0,-0.803 -0.37,-1.297 -0.957,-1.297 l -1.328,0 0,2.348 1.328,0 c 0.679,0 0.957,-0.309 0.957,-1.051 m 1.39,-4.107 c 0,0.895 -0.402,1.637 -1.082,2.192 0.711,0.742 0.928,1.112 0.928,1.915 0,1.36 -0.834,2.287 -2.008,2.287 l -2.781,0 0,-8.804 2.596,0 c 1.297,0 2.347,1.081 2.347,2.41"
             style="fill:#231f20;fill-opacity:1;fill-rule:evenodd;stroke:none"
             id="path3335" />
        </g>
        <g
           id="g3337"
           transform="translate(176.3862,682.1938)">
          <path
             inkscape:connector-curvature="0"
             d="M 0,0 C 0,-0.68 -0.062,-1.297 -0.124,-1.854 -0.248,-2.533 -0.648,-3.12 -1.391,-3.12 l -1.05,0 0,6.332 1.05,0 c 0.557,0 0.928,-0.278 1.143,-0.896 C -0.093,1.946 0,0.988 0,0 m 1.235,0.062 c 0,0.679 -0.092,1.452 -0.215,2.1 -0.155,0.896 -0.526,1.575 -1.051,1.946 -0.309,0.247 -0.68,0.34 -1.421,0.34 l -2.255,0 0,-8.804 2.44,0 c 0.495,0 0.927,0.124 1.236,0.402 0.865,0.68 1.266,1.977 1.266,4.016 m -6.425,-4.418 0,1.236 -3.212,0 0,2.904 1.822,0 0,1.204 -1.822,0 0,2.224 2.873,0 0,1.236 -4.141,0 0,-8.804 4.48,0 z M -12.357,2.1 c 0,-0.71 -0.402,-1.112 -1.143,-1.112 l -1.298,0 0,2.224 1.298,0 c 0.68,0 1.143,-0.432 1.143,-1.112 m 1.236,-6.456 -1.268,4.325 c 0.834,0.309 1.268,1.081 1.268,2.131 0,1.421 -0.928,2.348 -2.317,2.348 l -2.626,0 0,-8.804 1.266,0 0,4.14 1.205,0 1.174,-4.14 1.298,0 z m -8.342,3.645 -1.266,0 0.618,2.533 0.648,-2.533 z m 2.194,-3.645 -2.194,8.804 -1.235,0 -2.194,-8.804 1.267,0 0.587,2.41 1.884,0 0.619,-2.41 1.266,0 z m -7.384,6.333 c 0,-0.803 -0.401,-1.267 -1.143,-1.267 l -1.297,0 0,2.502 1.297,0 c 0.68,0 1.143,-0.494 1.143,-1.235 m 1.236,0 c 0,1.482 -0.927,2.471 -2.316,2.471 l -2.627,0 0,-8.804 1.267,0 0,3.862 1.36,0 c 1.482,0 2.316,0.865 2.316,2.471 m -6.426,-6.333 0,1.236 -3.213,0 0,2.904 1.823,0 0,1.204 -1.823,0 0,2.224 2.873,0 0,1.236 -4.138,0 0,-8.804 4.478,0 z M -37.01,2.1 c 0,-0.71 -0.401,-1.112 -1.143,-1.112 l -1.297,0 0,2.224 1.297,0 c 0.679,0 1.143,-0.432 1.143,-1.112 m 1.236,-6.456 -1.266,4.325 c 0.834,0.309 1.266,1.081 1.266,2.131 0,1.421 -0.926,2.348 -2.317,2.348 l -2.626,0 0,-8.804 1.267,0 0,4.14 1.205,0 1.174,-4.14 1.297,0 z m -7.383,6.333 c 0,-0.803 -0.402,-1.267 -1.143,-1.267 l -1.298,0 0,2.502 1.298,0 c 0.68,0 1.143,-0.494 1.143,-1.235 m 1.235,0 c 0,1.482 -0.927,2.471 -2.317,2.471 l -2.625,0 0,-8.804 1.266,0 0,3.862 1.359,0 c 1.483,0 2.317,0.865 2.317,2.471"
             style="fill:#231f20;fill-opacity:1;fill-rule:evenodd;stroke:none"
             id="path3339" />
        </g>
        <g
           id="g3341"
           transform="translate(172.6831,670.0746)">
          <path
             inkscape:connector-curvature="0"
             d="m 0,0 c 0,-0.804 -0.401,-1.268 -1.143,-1.268 l -1.297,0 0,2.502 1.297,0 C -0.463,1.234 0,0.74 0,0 m 1.236,0 c 0,1.482 -0.927,2.471 -2.317,2.471 l -2.626,0 0,-8.804 1.267,0 0,3.862 1.359,0 c 1.483,0 2.317,0.863 2.317,2.471 m -7.909,-1.917 c 0,-1.019 -0.061,-1.542 -0.278,-2.253 -0.216,-0.743 -0.556,-1.082 -1.081,-1.082 -0.556,0 -0.896,0.339 -1.112,1.082 -0.186,0.711 -0.278,1.265 -0.278,2.222 0,0.991 0.062,1.577 0.278,2.257 0.216,0.74 0.556,1.081 1.112,1.081 0.525,0 0.865,-0.341 1.081,-1.113 0.185,-0.648 0.278,-1.205 0.278,-2.194 m 1.205,0 c 0,1.329 -0.124,2.163 -0.494,3.028 -0.433,1.081 -1.051,1.514 -2.07,1.514 -1.019,0 -1.638,-0.433 -2.101,-1.482 -0.371,-0.834 -0.494,-1.731 -0.494,-3.06 0,-1.359 0.123,-2.193 0.494,-3.056 0.433,-1.051 1.051,-1.52 2.101,-1.52 0.989,0 1.637,0.469 2.07,1.52 0.37,0.834 0.494,1.697 0.494,3.056 m -6.21,3.214 0,1.174 -4.478,0 0,-1.174 1.605,0 0,-7.63 1.268,0 0,7.63 1.605,0 z m -5.282,-5.221 c 0,1.267 -0.741,2.224 -2.44,3.213 -0.65,0.371 -0.835,0.617 -0.835,1.051 0,0.586 0.465,1.018 1.05,1.018 0.557,0 0.989,-0.401 1.02,-1.018 l 1.205,0 c -0.03,1.328 -0.988,2.285 -2.225,2.285 -1.265,0 -2.254,-1.019 -2.254,-2.285 0,-0.774 0.37,-1.454 1.081,-1.948 1.792,-1.203 1.298,-0.863 1.482,-1.049 0.525,-0.402 0.711,-0.773 0.711,-1.267 0,-0.709 -0.556,-1.328 -1.235,-1.328 -0.866,0 -1.236,0.773 -1.236,1.513 l -1.236,0 c 0,-1.451 0.927,-2.754 2.472,-2.754 1.359,0 2.44,1.149 2.44,2.569 m -11.832,2.007 c 0,-1.019 -0.062,-1.542 -0.277,-2.253 -0.217,-0.743 -0.557,-1.082 -1.082,-1.082 -0.557,0 -0.896,0.339 -1.112,1.082 -0.185,0.711 -0.279,1.265 -0.279,2.222 0,0.991 0.063,1.577 0.279,2.257 0.216,0.74 0.555,1.081 1.112,1.081 0.525,0 0.865,-0.341 1.082,-1.113 0.184,-0.648 0.277,-1.205 0.277,-2.194 m 1.205,0 c 0,1.329 -0.123,2.163 -0.494,3.028 -0.433,1.081 -1.051,1.514 -2.07,1.514 -1.02,0 -1.637,-0.433 -2.101,-1.482 -0.37,-0.834 -0.494,-1.731 -0.494,-3.06 0,-1.359 0.124,-2.193 0.494,-3.056 0.433,-1.051 1.05,-1.52 2.101,-1.52 0.988,0 1.637,0.469 2.07,1.52 0.371,0.834 0.494,1.697 0.494,3.056 m -6.209,3.214 0,1.174 -4.48,0 0,-1.174 1.607,0 0,-7.63 1.266,0 0,7.63 1.607,0 z"
             style="fill:#231f20;fill-opacity:1;fill-rule:evenodd;stroke:none"
             id="path3343" />
        </g>
      </g>
    </g>
  </g>
</svg>
