<?xml version="1.0" encoding="UTF-8" standalone="no"?>
<!-- Created with Inkscape (http://www.inkscape.org/) -->

<svg
   xmlns:dc="http://purl.org/dc/elements/1.1/"
   xmlns:cc="http://creativecommons.org/ns#"
   xmlns:rdf="http://www.w3.org/1999/02/22-rdf-syntax-ns#"
   xmlns:svg="http://www.w3.org/2000/svg"
   xmlns="http://www.w3.org/2000/svg"
   xmlns:sodipodi="http://sodipodi.sourceforge.net/DTD/sodipodi-0.dtd"
   xmlns:inkscape="http://www.inkscape.org/namespaces/inkscape"
   width="90.647636"
   height="90.63636"
   id="svg3656"
   version="1.1"
   inkscape:version="0.48.3.1 r9886"
   sodipodi:docname="New document 8">
  <defs
     id="defs3658">
    <clipPath
       clipPathUnits="userSpaceOnUse"
       id="clipPath3265">
      <path
         inkscape:connector-curvature="0"
         d="m 62.75,568.19 513.25,0 0,169.81 -513.25,0 0,-169.81 z"
         id="path3267" />
    </clipPath>
  </defs>
  <sodipodi:namedview
     id="base"
     pagecolor="#ffffff"
     bordercolor="#666666"
     borderopacity="1.0"
     inkscape:pageopacity="0.0"
     inkscape:pageshadow="2"
     inkscape:zoom="0.35"
     inkscape:cx="45.324723"
     inkscape:cy="45.314992"
     inkscape:document-units="px"
     inkscape:current-layer="layer1"
     showgrid="false"
     fit-margin-top="0"
     fit-margin-left="0"
     fit-margin-right="0"
     fit-margin-bottom="0"
     inkscape:window-width="451"
     inkscape:window-height="398"
     inkscape:window-x="75"
     inkscape:window-y="75"
     inkscape:window-maximized="0" />
  <metadata
     id="metadata3661">
    <rdf:RDF>
      <cc:Work
         rdf:about="">
        <dc:format>image/svg+xml</dc:format>
        <dc:type
           rdf:resource="http://purl.org/dc/dcmitype/StillImage" />
        <dc:title></dc:title>
      </cc:Work>
    </rdf:RDF>
  </metadata>
  <g
     inkscape:label="Layer 1"
     inkscape:groupmode="layer"
     id="layer1"
     transform="translate(-329.67528,-487.04082)">
    <g
       transform="matrix(1.25,0,0,-1.25,-94.397312,1381.3868)"
       id="g3261">
      <g
         id="g3263"
         clip-path="url(#clipPath3265)">
        <g
           id="g3269"
           transform="translate(340.5476,681.7177)">
          <path
             inkscape:connector-curvature="0"
             d="m 0,0 32.472,32.472 c 1.373,1.374 3.622,1.374 4.997,0 L 69.939,0 c 1.375,-1.374 1.375,-3.622 0,-4.996 l -32.47,-32.472 c -1.375,-1.374 -3.624,-1.374 -4.997,0 L 0,-4.996 C -1.373,-3.622 -1.373,-1.374 0,0"
             style="fill:#f03e78;fill-opacity:1;fill-rule:nonzero;stroke:none"
             id="path3271" />
        </g>
        <g
           id="g3273"
           transform="translate(340.5476,681.7177)">
          <path
             inkscape:connector-curvature="0"
             d="m 0,0 32.472,32.472 c 1.373,1.374 3.622,1.374 4.997,0 L 69.939,0 c 1.375,-1.374 1.375,-3.622 0,-4.996 l -32.47,-32.472 c -1.375,-1.374 -3.624,-1.374 -4.997,0 L 0,-4.996 C -1.373,-3.622 -1.373,-1.374 0,0 z"
             style="fill:none;stroke:#231f20;stroke-width:0.5;stroke-linecap:butt;stroke-linejoin:miter;stroke-miterlimit:4;stroke-opacity:1;stroke-dasharray:none"
             id="path3275" />
        </g>
        <g
           id="g3277"
           transform="translate(341.3306,681.2011)">
          <path
             inkscape:connector-curvature="0"
             d="m 0,0 32.205,32.205 c 1.09,1.09 2.873,1.09 3.965,0 L 68.373,0 c 1.09,-1.09 1.09,-2.873 0,-3.963 L 36.17,-36.168 c -1.092,-1.09 -2.875,-1.09 -3.965,0 L 0,-3.963 C -1.09,-2.873 -1.09,-1.09 0,0"
             style="fill:#231f20;fill-opacity:1;fill-rule:evenodd;stroke:none"
             id="path3279" />
        </g>
        <g
           id="g3281"
           transform="translate(342.3386,680.2099)">
          <path
             inkscape:connector-curvature="0"
             d="m 0,0 32.189,32.189 c 0.545,0.545 1.436,0.545 1.981,0 L 66.359,0 c 0.545,-0.544 0.545,-1.437 0,-1.981 L 34.17,-34.17 c -0.545,-0.545 -1.436,-0.545 -1.981,0 L 0,-1.981 C -0.545,-1.437 -0.545,-0.544 0,0"
             style="fill:#f03e78;fill-opacity:1;fill-rule:evenodd;stroke:none"
             id="path3283" />
        </g>
        <g
           id="g3285"
           transform="translate(388.7236,696.9814)">
          <path
             inkscape:connector-curvature="0"
             d="m 0,0 c 0,-0.57 -0.323,-0.892 -0.916,-0.892 l -1.041,0 0,1.784 1.041,0 C -0.372,0.892 0,0.545 0,0 m 0.992,-5.178 -1.016,3.468 c 0.668,0.248 1.016,0.867 1.016,1.71 0,1.14 -0.744,1.883 -1.86,1.883 l -2.105,0 0,-7.061 1.016,0 0,3.32 0.966,0 0.942,-3.32 1.041,0 z m -5.155,0 0,0.99 -2.576,0 0,2.33 1.461,0 0,0.966 -1.461,0 0,1.784 2.305,0 0,0.991 -3.32,0 0,-7.061 3.591,0 z m -4.558,6.119 0,0.942 -3.592,0 0,-0.942 1.287,0 0,-6.119 1.016,0 0,6.119 1.289,0 z m -4.559,-6.119 0,7.061 -1.015,0 0,-4.237 -1.934,4.237 -1.016,0 0,-7.061 1.016,0 0,4.732 2.182,-4.732 0.767,0 z m -5.154,0 0,0.99 -2.576,0 0,2.33 1.463,0 0,0.966 -1.463,0 0,1.784 2.304,0 0,0.991 -3.32,0 0,-7.061 3.592,0 z M -23.413,0 c -0.074,0.644 -0.173,0.941 -0.447,1.288 -0.322,0.471 -0.816,0.719 -1.387,0.719 -1.386,0 -2.105,-1.214 -2.105,-3.493 0,-2.602 0.668,-3.821 2.18,-3.821 0.99,0 1.734,0.847 1.759,2.012 l -1.015,0 c 0,-0.521 -0.149,-1.017 -0.744,-1.017 -0.868,0 -1.213,0.819 -1.213,2.85 0,1.833 0.297,2.478 1.113,2.478 0.471,0 0.744,-0.323 0.844,-1.016 l 1.015,0 z"
             style="fill:#231f20;fill-opacity:1;fill-rule:evenodd;stroke:none"
             id="path3287" />
        </g>
        <g
           id="g3289"
           transform="translate(384.8326,680.786)">
          <path
             inkscape:connector-curvature="0"
             d="m 0,0 0,0.991 -2.576,0 0,2.328 1.463,0 0,0.967 -1.463,0 0,1.784 2.304,0 0,0.991 -3.32,0 L -3.592,0 0,0 z m -5.104,0 0,7.061 -1.015,0 0,-4.237 -1.932,4.237 -1.015,0 0,-7.061 1.015,0 0,4.732 2.18,-4.732 0.767,0 z m -6.689,2.923 -1.016,0 0.496,2.032 0.52,-2.032 z m 1.76,-2.923 -1.76,7.061 -0.99,0 -1.76,-7.061 1.016,0 0.47,1.933 1.512,0 0.496,-1.933 1.016,0 z m -4.932,0 0,0.942 -2.576,0 0,6.119 -1.016,0 0,-7.061 3.592,0 z"
             style="fill:#231f20;fill-opacity:1;fill-rule:evenodd;stroke:none"
             id="path3291" />
        </g>
        <g
           id="g3293"
           transform="translate(388.9716,673.2743)">
          <path
             inkscape:connector-curvature="0"
             d="m 0,0 c 0,-0.545 -0.049,-1.04 -0.1,-1.486 -0.098,-0.545 -0.42,-1.016 -1.016,-1.016 l -0.841,0 0,5.079 0.841,0 c 0.448,0 0.744,-0.223 0.918,-0.719 C -0.075,1.562 0,0.793 0,0 m 0.992,0.05 c 0,0.545 -0.074,1.165 -0.174,1.684 -0.125,0.719 -0.422,1.264 -0.844,1.562 -0.246,0.198 -0.545,0.272 -1.138,0.272 l -1.809,0 0,-7.061 1.957,0 c 0.396,0 0.744,0.1 0.99,0.322 0.696,0.545 1.018,1.586 1.018,3.221 m -5.155,-3.543 0,0.991 -2.576,0 0,2.329 1.461,0 0,0.966 -1.461,0 0,1.784 2.303,0 0,0.991 -3.318,0 0,-7.061 3.591,0 z m -4.781,1.933 c 0,1.015 -0.595,1.784 -1.957,2.577 -0.521,0.296 -0.67,0.495 -0.67,0.841 0,0.471 0.371,0.818 0.842,0.818 0.447,0 0.793,-0.322 0.818,-0.818 l 0.967,0 c -0.025,1.066 -0.793,1.834 -1.785,1.834 -1.016,0 -1.809,-0.818 -1.809,-1.834 0,-0.619 0.299,-1.164 0.868,-1.56 1.437,-0.967 1.041,-0.694 1.189,-0.843 0.422,-0.322 0.57,-0.619 0.57,-1.015 0,-0.57 -0.445,-1.066 -0.99,-1.066 -0.695,0 -0.992,0.619 -0.992,1.214 l -0.99,0 c 0,-1.164 0.742,-2.209 1.982,-2.209 1.09,0 1.957,0.921 1.957,2.061 m -5.97,1.61 c 0,-0.818 -0.051,-1.238 -0.225,-1.809 -0.172,-0.595 -0.445,-0.867 -0.865,-0.867 -0.448,0 -0.719,0.272 -0.893,0.867 -0.148,0.571 -0.223,1.016 -0.223,1.784 0,0.793 0.049,1.264 0.223,1.809 0.174,0.595 0.445,0.867 0.893,0.867 0.42,0 0.693,-0.272 0.865,-0.892 0.15,-0.52 0.225,-0.966 0.225,-1.759 m 0.964,0 c 0,1.065 -0.097,1.734 -0.396,2.428 -0.346,0.867 -0.842,1.214 -1.658,1.214 -0.819,0 -1.315,-0.347 -1.686,-1.189 -0.297,-0.669 -0.396,-1.388 -0.396,-2.453 0,-1.09 0.099,-1.759 0.396,-2.453 0.346,-0.842 0.842,-1.218 1.686,-1.218 0.791,0 1.312,0.376 1.658,1.218 0.299,0.67 0.396,1.363 0.396,2.453 m -4.978,-3.543 0,0.941 -2.578,0 0,6.12 -1.016,0 0,-7.061 3.594,0 z m -4.981,5.179 c -0.074,0.643 -0.173,0.941 -0.445,1.288 -0.322,0.47 -0.818,0.718 -1.389,0.718 -1.386,0 -2.105,-1.214 -2.105,-3.494 0,-2.601 0.668,-3.819 2.18,-3.819 0.992,0 1.734,0.847 1.759,2.011 l -1.015,0 c 0,-0.52 -0.149,-1.016 -0.744,-1.016 -0.868,0 -1.213,0.817 -1.213,2.85 0,1.833 0.297,2.477 1.113,2.477 0.471,0 0.744,-0.322 0.844,-1.015 l 1.015,0 z"
             style="fill:#231f20;fill-opacity:1;fill-rule:evenodd;stroke:none"
             id="path3295" />
        </g>
        <g
           id="g3297"
           transform="translate(386.8536,662.2196)">
          <path
             inkscape:connector-curvature="0"
             d="m 0,0 c 0,-0.545 -0.048,-1.04 -0.099,-1.486 -0.098,-0.545 -0.42,-1.016 -1.016,-1.016 l -0.842,0 0,5.079 0.842,0 c 0.447,0 0.744,-0.223 0.918,-0.719 C -0.074,1.562 0,0.793 0,0 M 0.993,0.05 C 0.993,0.595 0.918,1.215 0.819,1.734 0.694,2.453 0.397,2.998 -0.025,3.296 -0.271,3.494 -0.57,3.568 -1.164,3.568 l -1.808,0 0,-7.061 1.957,0 c 0.396,0 0.744,0.1 0.99,0.322 0.695,0.545 1.018,1.586 1.018,3.221 m -6.69,-0.619 -1.017,0 0.496,2.031 0.521,-2.031 z m 1.758,-2.924 -1.758,7.061 -0.992,0 -1.76,-7.061 1.018,0 0.47,1.933 1.51,0 0.496,-1.933 1.016,0 z m -5.152,0 0,0.991 -2.579,0 0,2.329 1.463,0 0,0.966 -1.463,0 0,1.784 2.305,0 0,0.991 -3.32,0 0,-7.061 3.594,0 z m -5.104,0 0,7.061 -1.017,0 0,-2.874 -1.932,0 0,2.874 -1.016,0 0,-7.061 1.016,0 0,3.196 1.932,0 0,-3.196 1.017,0 z m -6.691,2.924 -1.016,0 0.496,2.031 0.52,-2.031 z m 1.759,-2.924 -1.759,7.061 -0.991,0 -1.759,-7.061 1.015,0 0.473,1.933 1.51,0 0.496,-1.933 1.015,0 z"
             style="fill:#231f20;fill-opacity:1;fill-rule:evenodd;stroke:none"
             id="path3299" />
        </g>
      </g>
    </g>
  </g>
</svg>
