<?xml version="1.0" encoding="UTF-8" standalone="no"?>
<!-- Created with Inkscape (http://www.inkscape.org/) -->

<svg
   xmlns:dc="http://purl.org/dc/elements/1.1/"
   xmlns:cc="http://creativecommons.org/ns#"
   xmlns:rdf="http://www.w3.org/1999/02/22-rdf-syntax-ns#"
   xmlns:svg="http://www.w3.org/2000/svg"
   xmlns="http://www.w3.org/2000/svg"
   xmlns:sodipodi="http://sodipodi.sourceforge.net/DTD/sodipodi-0.dtd"
   xmlns:inkscape="http://www.inkscape.org/namespaces/inkscape"
   width="334.64807"
   height="54.335938"
   id="svg22467"
   version="1.1"
   inkscape:version="0.48.2 r9819"
   sodipodi:docname="New document 196">
  <defs
     id="defs22469">
    <clipPath
       clipPathUnits="userSpaceOnUse"
       id="clipPath21530">
      <path
         inkscape:connector-curvature="0"
         d="m 27,398 513,0 0,339.251 -513,0 L 27,398 z"
         id="path21532" />
    </clipPath>
    <clipPath
       clipPathUnits="userSpaceOnUse"
       id="clipPath21518">
      <path
         inkscape:connector-curvature="0"
         d="m 40.434,416.855 486.146,0 0,301.54 -486.146,0 0,-301.54 z"
         id="path21520" />
    </clipPath>
    <clipPath
       clipPathUnits="userSpaceOnUse"
       id="clipPath21506">
      <path
         inkscape:connector-curvature="0"
         d="m 27,398 513,0 0,339.251 -513,0 L 27,398 z"
         id="path21508" />
    </clipPath>
  </defs>
  <sodipodi:namedview
     id="base"
     pagecolor="#ffffff"
     bordercolor="#666666"
     borderopacity="1.0"
     inkscape:pageopacity="0.0"
     inkscape:pageshadow="2"
     inkscape:zoom="0.35"
     inkscape:cx="265.18727"
     inkscape:cy="15.815455"
     inkscape:document-units="px"
     inkscape:current-layer="layer1"
     showgrid="false"
     fit-margin-top="0"
     fit-margin-left="0"
     fit-margin-right="0"
     fit-margin-bottom="0"
     inkscape:window-width="469"
     inkscape:window-height="425"
     inkscape:window-x="1466"
     inkscape:window-y="100"
     inkscape:window-maximized="0" />
  <metadata
     id="metadata22472">
    <rdf:RDF>
      <cc:Work
         rdf:about="">
        <dc:format>image/svg+xml</dc:format>
        <dc:type
           rdf:resource="http://purl.org/dc/dcmitype/StillImage" />
        <dc:title></dc:title>
      </cc:Work>
    </rdf:RDF>
  </metadata>
  <g
     inkscape:label="Layer 1"
     inkscape:groupmode="layer"
     id="layer1"
     transform="translate(-109.81273,-493.8417)">
    <g
       transform="matrix(1.25,0,0,-1.25,-213.76421,1185.5967)"
       id="g21502">
      <g
         id="g21504"
         clip-path="url(#clipPath21506)">
        <g
           id="g21510"
           transform="translate(526.4553,553.404)">
          <path
             inkscape:connector-curvature="0"
             d="m 0,0 0,-28.891 c 0,-7.983 -6.472,-14.456 -14.458,-14.456 l -238.544,0 c -7.985,0 -14.457,6.473 -14.457,14.456 l 0,28.891"
             style="fill:#fccf34;fill-opacity:1;fill-rule:nonzero;stroke:none"
             id="path21512" />
        </g>
      </g>
    </g>
    <g
       transform="matrix(1.25,0,0,-1.25,-213.76421,1185.5967)"
       id="g21514">
      <g
         id="g21516"
         clip-path="url(#clipPath21518)">
        <g
           id="g21522"
           transform="translate(526.4553,553.404)">
          <path
             inkscape:connector-curvature="0"
             d="m 0,0 0,-28.891 c 0,-7.983 -6.472,-14.456 -14.458,-14.456 l -238.544,0 c -7.985,0 -14.457,6.473 -14.457,14.456 l 0,28.891"
             style="fill:none;stroke:#231f20;stroke-width:0.25;stroke-linecap:butt;stroke-linejoin:miter;stroke-miterlimit:4;stroke-opacity:1;stroke-dasharray:none"
             id="path21524" />
        </g>
      </g>
    </g>
    <g
       transform="matrix(1.25,0,0,-1.25,-213.76421,1185.5967)"
       id="g21526">
      <g
         id="g21528"
         clip-path="url(#clipPath21530)">
        <g
           id="g21534"
           transform="translate(524.0443,553.404)">
          <path
             inkscape:connector-curvature="0"
             d="m 0,0 0,-28.891 c 0,-1.627 -0.318,-3.204 -0.945,-4.688 -0.605,-1.434 -1.477,-2.723 -2.583,-3.829 -1.106,-1.109 -2.394,-1.977 -3.829,-2.584 -1.486,-0.628 -3.063,-0.946 -4.69,-0.946 l -238.544,0 c -1.629,0 -3.206,0.318 -4.688,0.946 -1.435,0.607 -2.725,1.475 -3.831,2.584 -1.108,1.106 -1.977,2.395 -2.583,3.829 -0.628,1.484 -0.946,3.061 -0.946,4.688 l 0,28.891 -1.807,0 0,-28.891 c 0,-1.87 0.367,-3.684 1.088,-5.392 0.698,-1.65 1.697,-3.133 2.97,-4.403 1.273,-1.273 2.754,-2.273 4.405,-2.97 1.707,-0.723 3.521,-1.089 5.392,-1.089 l 238.544,0 c 1.872,0 3.685,0.366 5.392,1.089 1.651,0.697 3.134,1.697 4.403,2.97 1.276,1.27 2.276,2.753 2.973,4.403 0.721,1.708 1.087,3.522 1.087,5.392 L 1.808,0 0,0 z"
             style="fill:#231f20;fill-opacity:1;fill-rule:nonzero;stroke:none"
             id="path21536" />
        </g>
        <g
           id="g21538"
           transform="translate(336.8303,525.719)">
          <path
             inkscape:connector-curvature="0"
             d="m 0,0 0,14.457 10.587,0 0,-2.588 -7.941,0 0,-2.688 4.326,0 0,-2.638 -4.326,0 0,-3.956 8.195,0 L 10.841,0 0,0 z"
             style="fill:#231f20;fill-opacity:1;fill-rule:nonzero;stroke:none"
             id="path21540" />
        </g>
        <path
           inkscape:connector-curvature="0"
           d="m 365.171,540.176 2.604,0 0,-14.457 -2.604,0 0,14.457 z"
           style="fill:#231f20;fill-opacity:1;fill-rule:nonzero;stroke:none"
           id="path21542" />
        <g
           id="g21544"
           transform="translate(430.1013,525.719)">
          <path
             inkscape:connector-curvature="0"
             d="m 0,0 0,14.457 2.596,0 0,-12.225 8.246,0 L 10.842,0 0,0 z"
             style="fill:#231f20;fill-opacity:1;fill-rule:nonzero;stroke:none"
             id="path21546" />
        </g>
        <g
           id="g21548"
           transform="translate(424.0993,525.719)">
          <path
             inkscape:connector-curvature="0"
             d="m 0,0 -6.928,9.943 0,-9.943 -2.547,0 0,14.457 2.547,0 6.672,-9.536 0,9.536 2.498,0 L 2.242,0 0,0 z"
             style="fill:#231f20;fill-opacity:1;fill-rule:nonzero;stroke:none"
             id="path21550" />
        </g>
        <g
           id="g21552"
           transform="translate(405.2993,537.843)">
          <path
             inkscape:connector-curvature="0"
             d="m 0,0 c -2.186,0 -3.509,-1.827 -3.509,-4.87 0,-3.094 1.323,-4.921 3.509,-4.921 2.746,0 3.406,2.689 3.406,4.921 C 3.406,-1.827 2.187,0 0,0 m 0,-12.379 c -4.272,0 -6.151,3.856 -6.151,7.509 0,4.615 2.339,7.456 6.151,7.456 3.558,0 5.998,-2.992 5.998,-7.406 0,-4.515 -2.337,-7.559 -5.998,-7.559"
             style="fill:#231f20;fill-opacity:1;fill-rule:nonzero;stroke:none"
             id="path21554" />
        </g>
        <g
           id="g21556"
           transform="translate(376.9213,537.641)">
          <path
             inkscape:connector-curvature="0"
             d="m 0,0 0,-11.922 -2.534,0 0,11.922 -4.155,0 0,2.535 10.842,0 L 4.153,0 0,0 z"
             style="fill:#231f20;fill-opacity:1;fill-rule:nonzero;stroke:none"
             id="path21558" />
        </g>
        <g
           id="g21560"
           transform="translate(359.2233,525.719)">
          <path
             inkscape:connector-curvature="0"
             d="M 0,0 -3.261,5.123 -6.471,0 l -3.055,0 4.738,7.61 -4.331,6.847 3.106,0 2.752,-4.413 2.752,4.413 3.108,0 L -1.681,7.61 3.058,0 0,0 z"
             style="fill:#231f20;fill-opacity:1;fill-rule:nonzero;stroke:none"
             id="path21562" />
        </g>
        <g
           id="g21564"
           transform="translate(450.7723,531.603)">
          <path
             inkscape:connector-curvature="0"
             d="m 0,0 0,-5.884 -2.586,0 0,5.884 -6.087,8.573 3.195,0 4.208,-5.884 4.161,5.884 3.194,0 L 0,0 z"
             style="fill:#231f20;fill-opacity:1;fill-rule:nonzero;stroke:none"
             id="path21566" />
        </g>
        <g
           id="g21568"
           transform="translate(501.4683,526.598)">
          <path
             inkscape:connector-curvature="0"
             d="M 0,0 C 0.007,0.014 0.015,0.024 0.022,0.038 0.066,0.118 0.1,0.199 0.121,0.284 0.125,0.292 0.13,0.299 0.132,0.306 l -0.003,0 c 0.005,0.03 0.016,0.057 0.022,0.087 l 0.037,0.283 4.021,20.741 0.053,0.388 c 0.057,0.391 -0.074,0.78 -0.333,1.038 -0.296,0.297 -0.687,0.427 -1.056,0.352 l -0.26,-0.05 -20.802,-4.052 -0.365,-0.06 c -0.241,-0.055 -0.424,-0.166 -0.612,-0.353 -0.462,-0.461 -0.478,-1.222 0,-1.703 0.059,-0.055 0.151,-0.11 0.226,-0.148 l 0.22,-0.123 7.406,-4.552 -18.101,-16.615 6.059,-6.057 16.616,18.061 0,0.037 4.481,-7.292 0.186,-0.265 c 0.055,-0.094 0.11,-0.185 0.184,-0.26 C -1.424,-0.7 -0.646,-0.7 -0.184,-0.238 -0.11,-0.163 -0.052,-0.083 0,0"
             style="fill:#231f20;fill-opacity:1;fill-rule:nonzero;stroke:none"
             id="path21570" />
        </g>
        <g
           id="g21572"
           transform="translate(309.1203,526.598)">
          <path
             inkscape:connector-curvature="0"
             d="m 0,0 c 0.008,0.014 0.016,0.024 0.024,0.038 0.044,0.08 0.076,0.161 0.1,0.246 0.002,0.008 0.008,0.015 0.01,0.022 l -0.004,0 c 0.007,0.03 0.017,0.057 0.022,0.087 L 0.191,0.676 4.21,21.417 4.264,21.805 C 4.319,22.196 4.19,22.585 3.93,22.843 3.635,23.14 3.245,23.27 2.875,23.195 l -0.261,-0.05 -20.802,-4.052 -0.364,-0.06 c -0.238,-0.055 -0.426,-0.166 -0.612,-0.353 -0.46,-0.461 -0.479,-1.222 0,-1.703 0.056,-0.055 0.149,-0.11 0.224,-0.148 l 0.222,-0.123 7.404,-4.552 -18.098,-16.615 6.055,-6.057 16.617,18.061 0,0.037 4.483,-7.292 0.187,-0.265 c 0.056,-0.094 0.111,-0.185 0.183,-0.26 C -1.423,-0.7 -0.646,-0.7 -0.181,-0.238 -0.107,-0.163 -0.05,-0.083 0,0"
             style="fill:#231f20;fill-opacity:1;fill-rule:nonzero;stroke:none"
             id="path21574" />
        </g>
      </g>
    </g>
  </g>
</svg>
