<?xml version="1.0" encoding="UTF-8" standalone="no"?>
<!-- Created with Inkscape (http://www.inkscape.org/) -->

<svg
   xmlns:dc="http://purl.org/dc/elements/1.1/"
   xmlns:cc="http://creativecommons.org/ns#"
   xmlns:rdf="http://www.w3.org/1999/02/22-rdf-syntax-ns#"
   xmlns:svg="http://www.w3.org/2000/svg"
   xmlns="http://www.w3.org/2000/svg"
   xmlns:sodipodi="http://sodipodi.sourceforge.net/DTD/sodipodi-0.dtd"
   xmlns:inkscape="http://www.inkscape.org/namespaces/inkscape"
   width="90.625"
   height="90.664062"
   id="svg24423"
   version="1.1"
   inkscape:version="0.48.2 r9819"
   sodipodi:docname="New document 214">
  <defs
     id="defs24425">
    <clipPath
       clipPathUnits="userSpaceOnUse"
       id="clipPath23459">
      <path
         inkscape:connector-curvature="0"
         d="m 27,41.25 513,0 0,244.158 -513,0 0,-244.158 z"
         id="path23461" />
    </clipPath>
  </defs>
  <sodipodi:namedview
     id="base"
     pagecolor="#ffffff"
     bordercolor="#666666"
     borderopacity="1.0"
     inkscape:pageopacity="0.0"
     inkscape:pageshadow="2"
     inkscape:zoom="0.35"
     inkscape:cx="34.61571"
     inkscape:cy="-17.544643"
     inkscape:document-units="px"
     inkscape:current-layer="layer1"
     showgrid="false"
     fit-margin-top="0"
     fit-margin-left="0"
     fit-margin-right="0"
     fit-margin-bottom="0"
     inkscape:window-width="469"
     inkscape:window-height="425"
     inkscape:window-x="1566"
     inkscape:window-y="200"
     inkscape:window-maximized="0" />
  <metadata
     id="metadata24428">
    <rdf:RDF>
      <cc:Work
         rdf:about="">
        <dc:format>image/svg+xml</dc:format>
        <dc:type
           rdf:resource="http://purl.org/dc/dcmitype/StillImage" />
        <dc:title></dc:title>
      </cc:Work>
    </rdf:RDF>
  </metadata>
  <g
     inkscape:label="Layer 1"
     inkscape:groupmode="layer"
     id="layer1"
     transform="translate(-340.38429,-424.15348)">
    <g
       id="g22969"
       transform="matrix(1.25,0,0,-1.25,345.35804,444.73779)">
      <path
         d="M 0,0 -0.344,-0.938 -1.313,-1.234 -0.891,0.5 0,0 z"
         style="fill:#ffffff;fill-opacity:1;fill-rule:evenodd;stroke:none"
         id="path22971"
         inkscape:connector-curvature="0" />
    </g>
    <g
       id="g22973"
       transform="matrix(1.25,0,0,-1.25,385.69679,514.50504)">
      <path
         d="m 0,0 c -20.744,4.219 -35.986,22.85 -35.986,44.12 0,10.019 3.463,20.146 9.617,27.88 4.043,-1.232 8.805,-1.96 13.199,-1.96 4.395,0 9.141,0.703 13.184,1.934 4.043,-1.231 8.789,-1.934 13.184,-1.934 4.394,0 9.156,0.728 13.199,1.96 6.154,-7.734 9.617,-17.861 9.617,-27.88 C 36.014,22.85 20.743,4.22 0,0"
         style="fill:#ffffff;fill-opacity:1;fill-rule:evenodd;stroke:none"
         id="path22975"
         inkscape:connector-curvature="0" />
    </g>
    <g
       id="g22977"
       transform="matrix(1.25,0,0,-1.25,385.69679,514.50504)">
      <path
         d="m 0,0 c -20.744,4.219 -35.986,22.85 -35.986,44.12 0,10.019 3.463,20.146 9.617,27.88 4.043,-1.232 8.805,-1.96 13.199,-1.96 4.395,0 9.141,0.703 13.184,1.934 4.043,-1.231 8.789,-1.934 13.184,-1.934 4.394,0 9.156,0.728 13.199,1.96 6.154,-7.734 9.617,-17.861 9.617,-27.88 C 36.014,22.85 20.743,4.22 0,0 z"
         style="fill:none;stroke:#231f20;stroke-width:0.5;stroke-linecap:butt;stroke-linejoin:miter;stroke-miterlimit:4;stroke-opacity:1;stroke-dasharray:none"
         id="path22979"
         inkscape:connector-curvature="0" />
    </g>
    <g
       id="g22981"
       transform="matrix(1.25,0,0,-1.25,427.04054,445.35667)">
      <path
         d="m 0,0 c 0.044,-0.177 0.265,-1.194 0.302,-1.365 0.53,-2.369 0.924,-4.779 1.055,-7.206 0.135,-2.517 0.07,-5.023 -0.209,-7.528 -0.275,-2.462 -0.783,-4.888 -1.482,-7.262 -0.702,-2.384 -1.614,-4.689 -2.707,-6.917 -1.116,-2.276 -2.442,-4.423 -3.918,-6.48 -1.473,-2.05 -3.157,-3.922 -4.946,-5.697 -1.787,-1.774 -3.777,-3.316 -5.832,-4.766 -2.023,-1.429 -4.226,-2.581 -6.459,-3.642 -2.246,-1.067 -4.627,-1.827 -7.019,-2.482 -0.588,-0.16 -1.184,-0.283 -1.778,-0.418 -0.224,-0.051 -0.509,0.079 -0.728,0.128 -0.307,0.069 -0.617,0.125 -0.92,0.208 -1.219,0.336 -2.418,0.693 -3.621,1.081 -2.367,0.765 -4.61,1.891 -6.803,3.05 -1.086,0.575 -2.115,1.271 -3.148,1.936 -1.02,0.657 -2.041,1.412 -2.969,2.192 -1.412,1.188 -2.81,2.365 -4.065,3.718 -1.668,1.8 -3.308,3.657 -4.66,5.713 -1.361,2.074 -2.677,4.2 -3.675,6.477 -0.993,2.259 -1.924,4.568 -2.518,6.969 -0.596,2.409 -1.129,4.86 -1.295,7.343 -0.166,2.479 -0.244,4.961 -0.006,7.441 0.242,2.509 0.674,4.965 1.295,7.408"
         style="fill:#00674c;fill-opacity:1;fill-rule:evenodd;stroke:#ffffff;stroke-width:1;stroke-linecap:butt;stroke-linejoin:miter;stroke-miterlimit:4;stroke-opacity:1;stroke-dasharray:none"
         id="path22983"
         inkscape:connector-curvature="0" />
    </g>
    <g
       id="g22985"
       transform="matrix(1.25,0,0,-1.25,344.9843,443.48167)">
      <path
         d="m 0,0 c 0.668,2.298 1.543,4.562 2.619,6.702 1.127,2.242 2.399,4.399 3.893,6.415 0.103,0.141 0.177,0.36 0.357,0.311 0.461,-0.127 0.922,-0.245 1.387,-0.357 0.889,-0.212 1.783,-0.4 2.682,-0.564 1.796,-0.327 3.611,-0.553 5.433,-0.678 3.621,-0.248 7.254,-0.034 10.834,0.549 1.779,0.291 3.541,0.688 5.275,1.182 0.196,0.055 0.432,-0.064 0.625,-0.117 0.209,-0.058 0.42,-0.114 0.629,-0.169 0.454,-0.118 0.907,-0.23 1.364,-0.334 0.879,-0.199 1.761,-0.373 2.65,-0.526 3.57,-0.619 7.213,-0.82 10.83,-0.6 1.824,0.111 3.639,0.344 5.44,0.653 0.892,0.161 1.783,0.341 2.666,0.55 0.433,0.102 0.863,0.209 1.293,0.323 0.064,0.017 0.406,0.147 0.441,0.1 0.057,-0.077 0.115,-0.155 0.172,-0.232 0.764,-1.03 1.471,-2.093 2.14,-3.185 1.284,-2.09 2.342,-4.307 3.256,-6.58 C 64.441,2.315 64.826,1.161 65.18,0"
         style="fill:#00674c;fill-opacity:1;fill-rule:evenodd;stroke:#ffffff;stroke-width:1;stroke-linecap:butt;stroke-linejoin:miter;stroke-miterlimit:4;stroke-opacity:1;stroke-dasharray:none"
         id="path22987"
         inkscape:connector-curvature="0" />
    </g>
    <g
       id="g22989"
       transform="matrix(1.25,0,0,-1.25,426.23679,444.85491)">
      <path
         d="M 0,0 0.266,-0.953 0.937,-0.781 0.703,0.141 0,0 z"
         style="fill:#ffffff;fill-opacity:1;fill-rule:evenodd;stroke:none"
         id="path22991"
         inkscape:connector-curvature="0" />
    </g>
    <g
       transform="matrix(1.25,0,0,-1.25,-173.63808,733.32979)"
       id="g23455">
      <g
         id="g23457"
         clip-path="url(#clipPath23459)">
        <g
           id="g23463"
           transform="translate(430.3919,237.463)">
          <path
             inkscape:connector-curvature="0"
             d="m 0,0 -1.068,0 0,-2.322 1.068,0 c 0.602,0 0.992,0.417 0.992,1.069 C 0.992,-0.548 0.549,0 0,0 m 0.053,3.026 -1.121,0 0,-1.982 1.121,0 c 0.496,0 0.808,0.417 0.808,1.096 0,0.626 -0.234,0.886 -0.808,0.886 m 0,-6.392 -2.192,0 0,7.436 2.348,0 c 0.992,0 1.697,-0.782 1.697,-1.93 0,-0.679 -0.183,-0.993 -0.783,-1.618 0.574,-0.47 0.912,-1.096 0.912,-1.853 0,-1.121 -0.886,-2.035 -1.982,-2.035"
             style="fill:#ffffff;fill-opacity:1;fill-rule:nonzero;stroke:none"
             id="path23465" />
        </g>
        <g
           id="g23467"
           transform="translate(437.5679,235.0108)">
          <path
             inkscape:connector-curvature="0"
             d="m 0,0 c -0.365,-0.601 -1.07,-1.044 -1.774,-1.044 -0.732,0 -1.462,0.417 -1.828,1.044 -0.207,0.391 -0.287,0.704 -0.287,1.305 l 0,5.217 1.071,0 0,-5.348 C -2.818,0.469 -2.4,0 -1.774,0 c 0.573,0 0.991,0.469 0.991,1.174 l 0,5.348 1.07,0 0,-5.217 C 0.287,0.704 0.209,0.391 0,0"
             style="fill:#ffffff;fill-opacity:1;fill-rule:nonzero;stroke:none"
             id="path23469" />
        </g>
        <g
           id="g23471"
           transform="translate(441.1929,233.9669)">
          <path
             inkscape:connector-curvature="0"
             d="m 0,0 c -1.305,0 -2.086,1.096 -2.086,2.321 l 1.043,0 c 0,-0.625 0.312,-1.277 1.043,-1.277 0.574,0 1.045,0.521 1.045,1.121 0,0.418 -0.156,0.73 -0.602,1.07 -0.156,0.157 0.262,-0.131 -1.252,0.887 -0.599,0.418 -0.912,0.992 -0.912,1.645 0,1.068 0.834,1.929 1.905,1.929 1.042,0 1.851,-0.808 1.878,-1.929 l -1.017,0 C 1.018,6.288 0.652,6.627 0.184,6.627 -0.313,6.627 -0.703,6.262 -0.703,5.767 -0.703,5.401 -0.547,5.192 0,4.879 1.435,4.044 2.062,3.235 2.062,2.165 2.062,0.966 1.148,0 0,0"
             style="fill:#ffffff;fill-opacity:1;fill-rule:nonzero;stroke:none"
             id="path23473" />
        </g>
        <path
           inkscape:connector-curvature="0"
           d="m 444.507,241.533 1.043,0 0,-7.436 -1.043,0 0,7.436 z"
           style="fill:#ffffff;fill-opacity:1;fill-rule:nonzero;stroke:none"
           id="path23475" />
        <g
           id="g23477"
           transform="translate(450.5599,234.0968)">
          <path
             inkscape:connector-curvature="0"
             d="m 0,0 -2.297,4.984 0,-4.984 -1.068,0 0,7.436 1.068,0 2.035,-4.461 0,4.461 1.071,0 L 0.809,0 0,0 z"
             style="fill:#ffffff;fill-opacity:1;fill-rule:nonzero;stroke:none"
             id="path23479" />
        </g>
        <g
           id="g23481"
           transform="translate(452.9859,234.0968)">
          <path
             inkscape:connector-curvature="0"
             d="m 0,0 0,7.436 3.496,0 0,-1.043 -2.426,0 0,-1.879 1.539,0 0,-1.018 -1.539,0 0,-2.452 2.713,0 L 3.783,0 0,0 z"
             style="fill:#ffffff;fill-opacity:1;fill-rule:nonzero;stroke:none"
             id="path23483" />
        </g>
        <g
           id="g23485"
           transform="translate(459.7439,233.9669)">
          <path
             inkscape:connector-curvature="0"
             d="m 0,0 c -1.305,0 -2.088,1.096 -2.088,2.321 l 1.045,0 c 0,-0.625 0.312,-1.277 1.043,-1.277 0.574,0 1.043,0.521 1.043,1.121 0,0.418 -0.157,0.73 -0.6,1.07 -0.156,0.157 0.262,-0.131 -1.252,0.887 -0.599,0.418 -0.914,0.992 -0.914,1.645 0,1.068 0.836,1.929 1.904,1.929 1.045,0 1.854,-0.808 1.879,-1.929 l -1.017,0 C 1.017,6.288 0.652,6.627 0.181,6.627 -0.313,6.627 -0.705,6.262 -0.705,5.767 -0.705,5.401 -0.549,5.192 0,4.879 1.435,4.044 2.06,3.235 2.06,2.165 2.06,0.966 1.148,0 0,0"
             style="fill:#ffffff;fill-opacity:1;fill-rule:nonzero;stroke:none"
             id="path23487" />
        </g>
        <g
           id="g23489"
           transform="translate(464.7789,233.9669)">
          <path
             inkscape:connector-curvature="0"
             d="m 0,0 c -1.305,0 -2.088,1.096 -2.088,2.321 l 1.045,0 c 0,-0.625 0.312,-1.277 1.043,-1.277 0.574,0 1.043,0.521 1.043,1.121 0,0.418 -0.156,0.73 -0.6,1.07 -0.156,0.157 0.262,-0.131 -1.252,0.887 -0.599,0.418 -0.914,0.992 -0.914,1.645 0,1.068 0.836,1.929 1.905,1.929 1.044,0 1.853,-0.808 1.878,-1.929 l -1.017,0 C 1.017,6.288 0.652,6.627 0.182,6.627 -0.313,6.627 -0.705,6.262 -0.705,5.767 -0.705,5.401 -0.549,5.192 0,4.879 1.435,4.044 2.06,3.235 2.06,2.165 2.06,0.966 1.148,0 0,0"
             style="fill:#ffffff;fill-opacity:1;fill-rule:nonzero;stroke:none"
             id="path23491" />
        </g>
        <g
           id="g23493"
           transform="translate(442.2589,211.5948)">
          <path
             inkscape:connector-curvature="0"
             d="m 0,0 c -2.103,-3.535 -3.703,-7.574 -4.461,-11.445 -0.336,-2.022 -0.504,-3.535 -0.504,-5.893 l -3.873,0 c 0.086,5.555 1.096,10.184 3.452,15.234 0.841,1.852 1.851,3.62 2.693,4.965 l -11.445,0 0,3.787 16.242,0 0,-3.787 C 1.264,1.768 0.758,1.264 0,0"
             style="fill:#ffffff;fill-opacity:1;fill-rule:nonzero;stroke:none"
             id="path23495" />
        </g>
        <g
           id="g23497"
           transform="translate(460.1849,212.9425)">
          <path
             inkscape:connector-curvature="0"
             d="m 0,0 c -0.758,1.262 -1.683,1.768 -3.113,1.852 -1.852,0.084 -3.031,-0.842 -3.873,-2.948 -0.588,-1.429 -0.926,-3.619 -0.926,-5.638 0,-2.524 0.506,-5.133 1.432,-6.649 0.757,-1.262 1.767,-1.851 3.283,-1.851 1.765,0 2.861,0.925 3.703,3.029 0.504,1.264 0.926,3.619 0.926,5.471 C 1.432,-4.041 0.926,-1.6 0,0 m 2.609,-16.412 c -1.347,-1.852 -3.283,-2.693 -5.806,-2.693 -3.367,0 -5.471,1.345 -6.902,4.291 -1.01,2.021 -1.684,5.218 -1.684,8.08 0,3.957 1.01,7.49 2.609,9.763 1.432,1.852 3.367,2.694 6.145,2.694 3.029,0 5.133,-1.348 6.648,-4.293 1.01,-2.104 1.6,-5.133 1.6,-8.164 0,-3.787 -0.926,-7.575 -2.61,-9.678"
             style="fill:#ffffff;fill-opacity:1;fill-rule:nonzero;stroke:none"
             id="path23499" />
        </g>
        <g
           id="g23501"
           transform="translate(442.4369,224.1827)">
          <path
             inkscape:connector-curvature="0"
             d="m 0,0 c -0.268,-0.235 -0.639,-0.369 -1.043,-0.369 -0.824,0 -1.43,0.487 -1.75,1.211 l 0.723,0.269 c 0.203,-0.454 0.572,-0.707 1.027,-0.707 0.438,0 0.74,0.303 0.74,0.707 0,0.64 -0.74,0.741 -1.363,0.993 -0.285,0.119 -0.926,0.405 -0.926,1.196 0,0.942 0.641,1.296 1.498,1.296 0.674,0 1.129,-0.387 1.364,-0.977 L -0.402,3.418 c 0,0 -0.17,0.404 -0.707,0.42 C -1.463,3.855 -1.885,3.721 -1.851,3.283 -1.783,2.391 0.473,2.98 0.473,1.095 0.473,0.657 0.305,0.27 0,0"
             style="fill:#ffffff;fill-opacity:1;fill-rule:nonzero;stroke:none"
             id="path23503" />
        </g>
        <g
           id="g23505"
           transform="translate(445.9209,227.8526)">
          <path
             inkscape:connector-curvature="0"
             d="m 0,0 c -0.134,0.067 -0.218,0.084 -0.455,0.084 l -0.992,0 0,-1.178 0.992,0 c 0.237,0 0.321,0.017 0.455,0.084 0.168,0.084 0.288,0.303 0.288,0.505 C 0.288,-0.303 0.168,-0.102 0,0 M 0.321,-1.7 C 0.102,-1.801 -0.185,-1.868 -0.554,-1.868 l -0.893,0 0,-2.087 -0.758,0 0,4.797 1.651,0 c 0.386,0 0.638,-0.033 0.875,-0.152 0.42,-0.202 0.74,-0.707 0.74,-1.195 0,-0.505 -0.32,-1.01 -0.74,-1.195"
             style="fill:#ffffff;fill-opacity:1;fill-rule:nonzero;stroke:none"
             id="path23507" />
        </g>
        <g
           id="g23509"
           transform="translate(450.7359,224.6202)">
          <path
             inkscape:connector-curvature="0"
             d="m 0,0 c -0.252,-0.471 -0.824,-0.807 -1.414,-0.807 -0.59,0 -1.162,0.336 -1.414,0.807 -0.135,0.287 -0.219,0.623 -0.219,0.994 l 0,3.08 0.758,0 0,-3.08 c 0,-0.623 0.353,-1.027 0.875,-1.027 0.521,0 0.875,0.404 0.875,1.027 l 0,3.08 0.758,0 0,-3.08 C 0.219,0.623 0.135,0.287 0,0"
             style="fill:#ffffff;fill-opacity:1;fill-rule:nonzero;stroke:none"
             id="path23511" />
        </g>
        <g
           id="g23513"
           transform="translate(454.2029,227.8526)">
          <path
             inkscape:connector-curvature="0"
             d="m 0,0 c -0.117,0.067 -0.184,0.084 -0.438,0.084 l -0.908,0 0,-1.178 0.908,0 c 0.237,0 0.321,0.017 0.438,0.084 0.185,0.102 0.304,0.303 0.304,0.505 C 0.304,-0.303 0.185,-0.102 0,0 m 0.338,-3.955 -0.776,2.087 -0.908,0 0,-2.087 -0.758,0 0,4.797 1.582,0 c 0.371,0 0.623,-0.033 0.86,-0.152 0.42,-0.202 0.722,-0.707 0.722,-1.195 0,-0.505 -0.302,-1.01 -0.74,-1.212 l 0.842,-2.238 -0.824,0 z"
             style="fill:#ffffff;fill-opacity:1;fill-rule:nonzero;stroke:none"
             id="path23515" />
        </g>
      </g>
    </g>
  </g>
</svg>
