<?xml version="1.0" encoding="UTF-8" standalone="no"?>
<!-- Created with Inkscape (http://www.inkscape.org/) -->

<svg
   xmlns:dc="http://purl.org/dc/elements/1.1/"
   xmlns:cc="http://creativecommons.org/ns#"
   xmlns:rdf="http://www.w3.org/1999/02/22-rdf-syntax-ns#"
   xmlns:svg="http://www.w3.org/2000/svg"
   xmlns="http://www.w3.org/2000/svg"
   xmlns:sodipodi="http://sodipodi.sourceforge.net/DTD/sodipodi-0.dtd"
   xmlns:inkscape="http://www.inkscape.org/namespaces/inkscape"
   width="91.640625"
   height="91.523438"
   id="svg24599"
   version="1.1"
   inkscape:version="0.48.2 r9819"
   sodipodi:docname="M1-4.svg">
  <defs
     id="defs24601">
    <clipPath
       clipPathUnits="userSpaceOnUse"
       id="clipPath23185">
      <path
         inkscape:connector-curvature="0"
         d="m 59.314,43.22 448.37,0 0,242.188 -448.37,0 0,-242.188 z"
         id="path23187" />
    </clipPath>
    <clipPath
       clipPathUnits="userSpaceOnUse"
       id="clipPath23173">
      <path
         inkscape:connector-curvature="0"
         d="m 27,41.25 513,0 0,244.158 -513,0 0,-244.158 z"
         id="path23175" />
    </clipPath>
  </defs>
  <sodipodi:namedview
     id="base"
     pagecolor="#ffffff"
     bordercolor="#666666"
     borderopacity="1.0"
     inkscape:pageopacity="0.0"
     inkscape:pageshadow="2"
     inkscape:zoom="0.35"
     inkscape:cx="3.6774525"
     inkscape:cy="17.26513"
     inkscape:document-units="px"
     inkscape:current-layer="layer1"
     showgrid="false"
     fit-margin-top="0"
     fit-margin-left="0"
     fit-margin-right="0"
     fit-margin-bottom="0"
     inkscape:window-width="469"
     inkscape:window-height="425"
     inkscape:window-x="1616"
     inkscape:window-y="250"
     inkscape:window-maximized="0" />
  <metadata
     id="metadata24604">
    <rdf:RDF>
      <cc:Work
         rdf:about="">
        <dc:format>image/svg+xml</dc:format>
        <dc:type
           rdf:resource="http://purl.org/dc/dcmitype/StillImage" />
        <dc:title></dc:title>
      </cc:Work>
    </rdf:RDF>
  </metadata>
  <g
     inkscape:label="Layer 1"
     inkscape:groupmode="layer"
     id="layer1"
     transform="translate(-371.32255,-458.10388)">
    <g
       transform="matrix(1.25,0,0,-1.25,297.17036,621.753)"
       id="g23169">
      <g
         id="g23171"
         clip-path="url(#clipPath23173)">
        <g
           id="g23177"
           transform="translate(95.978,58.4818)">
          <path
             inkscape:connector-curvature="0"
             d="m 0,0 c -3.213,3.844 -8.037,6.192 -13.057,6.192 l -1.296,0 -1.786,0 c -10.896,0 -19.781,8.884 -19.781,19.778 0,6.736 4.297,11.678 4.297,18.643 0,4.736 -1.607,9.65 -4.377,13.401 l 14.256,13.701 c 2.931,-2.478 6.879,-4.045 10.791,-4.045 3.976,0 8.019,1.5 10.953,4.106 2.934,-2.606 6.978,-4.106 10.953,-4.106 3.91,0 7.86,1.567 10.793,4.045 L 36,58.014 c -2.771,-3.751 -4.379,-8.665 -4.379,-13.401 0,-6.965 4.301,-11.907 4.301,-18.643 0,-10.894 -8.887,-19.778 -19.779,-19.778 l -1.786,0 -1.3,0 C 8.035,6.192 3.211,3.844 0,0"
             style="fill:#ffffff;fill-opacity:1;fill-rule:evenodd;stroke:none"
             id="path23179" />
        </g>
      </g>
    </g>
    <g
       transform="matrix(1.25,0,0,-1.25,297.17036,621.753)"
       id="g23181">
      <g
         id="g23183"
         clip-path="url(#clipPath23185)">
        <g
           id="g23189"
           transform="translate(95.978,58.4818)">
          <path
             inkscape:connector-curvature="0"
             d="m 0,0 c -3.213,3.844 -8.037,6.192 -13.057,6.192 l -1.296,0 -1.786,0 c -10.896,0 -19.781,8.884 -19.781,19.778 0,6.736 4.297,11.678 4.297,18.643 0,4.736 -1.607,9.65 -4.377,13.401 l 14.256,13.701 c 2.931,-2.478 6.879,-4.045 10.791,-4.045 3.976,0 8.019,1.5 10.953,4.106 2.934,-2.606 6.978,-4.106 10.953,-4.106 3.91,0 7.86,1.567 10.793,4.045 L 36,58.014 c -2.771,-3.751 -4.379,-8.665 -4.379,-13.401 0,-6.965 4.301,-11.907 4.301,-18.643 0,-10.894 -8.887,-19.778 -19.779,-19.778 l -1.786,0 -1.3,0 C 8.035,6.192 3.211,3.844 0,0 z"
             style="fill:none;stroke:#231f20;stroke-width:1;stroke-linecap:butt;stroke-linejoin:miter;stroke-miterlimit:4;stroke-opacity:1;stroke-dasharray:none"
             id="path23191" />
        </g>
      </g>
    </g>
    <g
       id="g23201"
       transform="matrix(1.25,0,0,-1.25,381.94511,526.05325)">
      <path
         d="m 0,0 c 0.129,4.282 1.037,7.786 3.113,11.29 1.557,2.854 3.893,5.19 6.489,7.137 0.648,0.389 1.168,0.778 1.687,1.168 l 1.947,1.038 1.817,1.038 1.816,1.038 c 1.428,0.909 2.465,2.466 2.465,4.023 0,2.725 -3.113,4.931 -6.748,4.931 -3.762,0 -6.098,-1.816 -6.748,-5.19 L 0,27.77 c 1.297,6.099 6.098,9.863 12.586,9.863 7.008,0 12.588,-4.931 12.588,-11.031 0,-2.855 -1.297,-5.71 -3.764,-7.916 -0.517,-0.389 -1.037,-0.778 -1.556,-1.038 L 18.037,16.48 16.09,15.442 14.273,14.404 C 10.77,12.328 8.824,10.122 7.006,5.969 l 18.168,0 L 25.174,0 0,0 z"
         style="fill:#231f20;fill-opacity:1;fill-rule:evenodd;stroke:none"
         id="path23203"
         inkscape:connector-curvature="0" />
    </g>
    <g
       id="g23205"
       transform="matrix(1.25,0,0,-1.25,420.87573,526.05325)">
      <path
         d="m 0,0 c 0.129,4.282 1.037,7.786 3.113,11.29 1.557,2.854 3.893,5.19 6.489,7.137 0.648,0.389 1.168,0.778 1.687,1.168 l 1.947,1.038 1.817,1.038 1.816,1.038 c 1.428,0.909 2.465,2.466 2.465,4.023 0,2.725 -3.113,4.931 -6.748,4.931 -3.762,0 -6.098,-1.816 -6.748,-5.19 L 0,27.77 c 1.297,6.099 6.098,9.863 12.586,9.863 7.008,0 12.588,-4.931 12.588,-11.031 0,-2.855 -1.297,-5.71 -3.764,-7.916 -0.517,-0.389 -1.037,-0.778 -1.556,-1.038 L 18.037,16.48 16.09,15.442 14.273,14.404 C 10.77,12.328 8.824,10.122 7.006,5.969 l 18.168,0 L 25.174,0 0,0 z"
         style="fill:#231f20;fill-opacity:1;fill-rule:evenodd;stroke:none"
         id="path23207"
         inkscape:connector-curvature="0" />
    </g>
  </g>
</svg>
