<?xml version="1.0" encoding="UTF-8" standalone="no"?>
<!-- Created with Inkscape (http://www.inkscape.org/) -->

<svg
   xmlns:dc="http://purl.org/dc/elements/1.1/"
   xmlns:cc="http://creativecommons.org/ns#"
   xmlns:rdf="http://www.w3.org/1999/02/22-rdf-syntax-ns#"
   xmlns:svg="http://www.w3.org/2000/svg"
   xmlns="http://www.w3.org/2000/svg"
   xmlns:sodipodi="http://sodipodi.sourceforge.net/DTD/sodipodi-0.dtd"
   xmlns:inkscape="http://www.inkscape.org/namespaces/inkscape"
   width="112.5"
   height="90.001251"
   id="svg24806"
   version="1.1"
   inkscape:version="0.48.2 r9819"
   sodipodi:docname="New document 223">
  <defs
     id="defs24808" />
  <sodipodi:namedview
     id="base"
     pagecolor="#ffffff"
     bordercolor="#666666"
     borderopacity="1.0"
     inkscape:pageopacity="0.0"
     inkscape:pageshadow="2"
     inkscape:zoom="0.35"
     inkscape:cx="36.96429"
     inkscape:cy="13.572057"
     inkscape:document-units="px"
     inkscape:current-layer="layer1"
     showgrid="false"
     fit-margin-top="0"
     fit-margin-left="0"
     fit-margin-right="0"
     fit-margin-bottom="0"
     inkscape:window-width="469"
     inkscape:window-height="425"
     inkscape:window-x="1516"
     inkscape:window-y="150"
     inkscape:window-maximized="0" />
  <metadata
     id="metadata24811">
    <rdf:RDF>
      <cc:Work
         rdf:about="">
        <dc:format>image/svg+xml</dc:format>
        <dc:type
           rdf:resource="http://purl.org/dc/dcmitype/StillImage" />
        <dc:title></dc:title>
      </cc:Work>
    </rdf:RDF>
  </metadata>
  <g
     inkscape:label="Layer 1"
     inkscape:groupmode="layer"
     id="layer1"
     transform="translate(-338.03571,-455.93299)">
    <g
       id="g23075"
       transform="matrix(1.25,0,0,-1.25,345.53571,455.93299)">
      <path
         d="m 0,0 78,0 c 3.305,0 6,-2.695 6,-6.001 l 0,-59.998 c 0,-3.307 -2.695,-6.002 -6,-6.002 l -78,0 c -3.305,0 -6,2.695 -6,6.002 l 0,59.998 C -6,-2.695 -3.305,0 0,0"
         style="fill:#231f20;fill-opacity:1;fill-rule:evenodd;stroke:none"
         id="path23077"
         inkscape:connector-curvature="0" />
    </g>
    <g
       id="g23079"
       transform="matrix(1.25,0,0,-1.25,394.29821,544.44799)">
      <path
         d="m 0,0 c -3.143,3.732 -7.826,6.011 -12.699,6.011 l -11.909,0 c -10.576,0 -19.201,8.624 -19.201,19.2 0,6.537 4.174,11.335 4.174,18.094 0,4.596 -1.56,9.367 -4.248,13.008 l 13.854,13.278 c 4.482,-2.695 9.837,-4.256 15.08,-4.256 5.244,0 10.488,1.561 14.949,4.24 4.463,-2.679 9.707,-4.24 14.951,-4.24 5.242,0 10.598,1.561 15.08,4.256 L 43.887,56.313 c -2.69,-3.641 -4.252,-8.412 -4.252,-13.008 0,-6.759 4.173,-11.557 4.173,-18.094 0,-10.576 -8.623,-19.2 -19.199,-19.2 l -11.91,0 C 7.826,6.011 3.144,3.732 0,0"
         style="fill:#ffffff;fill-opacity:1;fill-rule:evenodd;stroke:none"
         id="path23081"
         inkscape:connector-curvature="0" />
    </g>
    <g
       id="g23083"
       transform="matrix(1.25,0,0,-1.25,373.1632,491.43299)">
      <path
         d="m 0,0 c -2.979,-5.002 -5.243,-10.719 -6.315,-16.198 -0.476,-2.859 -0.715,-5.003 -0.715,-8.338 l -5.478,0 c 0.119,7.861 1.549,14.412 4.885,21.559 1.189,2.62 2.619,5.121 3.81,7.027 l -16.199,0 0,5.36 22.988,0 0,-5.36 C 1.785,2.502 1.07,1.787 0,0"
         style="fill:#231f20;fill-opacity:1;fill-rule:evenodd;stroke:none"
         id="path23085"
         inkscape:connector-curvature="0" />
    </g>
    <g
       id="g23087"
       transform="matrix(1.25,0,0,-1.25,408.4457,492.47424)">
      <path
         d="m 0,0 c 0,6.193 -5.002,10.839 -11.554,10.839 -6.432,0 -11.553,-4.527 -11.553,-10.363 0,-5.717 5.24,-10.362 11.553,-10.362 1.31,0 2.144,0.119 4.05,0.476 -2.025,-4.408 -4.17,-7.147 -8.218,-10.363 l 2.621,-4.526 C -5.24,-18.939 0,-9.291 0,0 m -5.359,0.476 c 0,-2.739 -2.74,-4.883 -6.195,-4.883 -3.334,0 -6.075,2.144 -6.075,4.883 0,2.74 2.741,4.884 6.075,4.884 3.335,0 6.195,-2.264 6.195,-4.884"
         style="fill:#231f20;fill-opacity:1;fill-rule:evenodd;stroke:none"
         id="path23089"
         inkscape:connector-curvature="0" />
    </g>
    <g
       id="g23091"
       transform="matrix(1.25,0,0,-1.25,434.5007,508.70424)">
      <path
         d="m 0,0 c 0,-3.215 -2.738,-5.836 -6.193,-5.836 -3.336,0 -6.075,2.621 -6.075,5.836 0,2.859 2.739,5.122 6.075,5.122 C -2.857,5.122 0,2.859 0,0 m 5.361,0.119 c 0,3.098 -1.31,5.837 -3.931,7.862 1.668,1.786 2.621,3.811 2.621,6.194 0,5.24 -4.766,9.648 -10.244,9.648 -5.479,0 -10.125,-4.408 -10.125,-9.648 0,-2.383 0.834,-4.408 2.502,-6.194 -2.502,-2.025 -3.93,-4.645 -3.93,-7.862 0,-6.193 5.359,-11.434 11.553,-11.434 6.193,0 11.554,5.241 11.554,11.434 M -1.43,14.294 c 0,-2.025 -2.142,-3.693 -4.763,-3.693 -2.621,0 -4.764,1.668 -4.764,3.693 0,2.263 2.143,4.05 4.764,4.05 2.621,0 4.763,-1.787 4.763,-4.05"
         style="fill:#231f20;fill-opacity:1;fill-rule:evenodd;stroke:none"
         id="path23093"
         inkscape:connector-curvature="0" />
    </g>
  </g>
</svg>
