<?xml version="1.0" encoding="UTF-8" standalone="no"?>
<!-- Created with Inkscape (http://www.inkscape.org/) -->

<svg
   xmlns:dc="http://purl.org/dc/elements/1.1/"
   xmlns:cc="http://creativecommons.org/ns#"
   xmlns:rdf="http://www.w3.org/1999/02/22-rdf-syntax-ns#"
   xmlns:svg="http://www.w3.org/2000/svg"
   xmlns="http://www.w3.org/2000/svg"
   xmlns:sodipodi="http://sodipodi.sourceforge.net/DTD/sodipodi-0.dtd"
   xmlns:inkscape="http://www.inkscape.org/namespaces/inkscape"
   width="203.125"
   height="203.125"
   id="svg5189"
   version="1.1"
   inkscape:version="0.48.3.1 r9886"
   sodipodi:docname="New document 16">
  <defs
     id="defs5191" />
  <sodipodi:namedview
     id="base"
     pagecolor="#ffffff"
     bordercolor="#666666"
     borderopacity="1.0"
     inkscape:pageopacity="0.0"
     inkscape:pageshadow="2"
     inkscape:zoom="1.4"
     inkscape:cx="129.82095"
     inkscape:cy="84.550801"
     inkscape:document-units="px"
     inkscape:current-layer="layer1"
     showgrid="false"
     fit-margin-top="0"
     fit-margin-left="0"
     fit-margin-right="0"
     fit-margin-bottom="0"
     inkscape:window-width="1366"
     inkscape:window-height="706"
     inkscape:window-x="-8"
     inkscape:window-y="-8"
     inkscape:window-maximized="1" />
  <metadata
     id="metadata5194">
    <rdf:RDF>
      <cc:Work
         rdf:about="">
        <dc:format>image/svg+xml</dc:format>
        <dc:type
           rdf:resource="http://purl.org/dc/dcmitype/StillImage" />
        <dc:title></dc:title>
      </cc:Work>
    </rdf:RDF>
  </metadata>
  <g
     inkscape:label="Layer 1"
     inkscape:groupmode="layer"
     id="layer1"
     transform="translate(-281.29464,-465.08539)">
    <g
       id="g4258"
       transform="matrix(1.25,0,0,-1.25,484.10714,655.24164)">
      <path
         d="m 0,0 c 0,-5.591 -4.533,-10.125 -10.125,-10.125 l -141.75,0 C -157.467,-10.125 -162,-5.591 -162,0 l 0,141.75 c 0,5.592 4.533,10.125 10.125,10.125 l 141.75,0 C -4.533,151.875 0,147.342 0,141.75 L 0,0 z"
         style="fill:#ffffff;fill-opacity:1;fill-rule:nonzero;stroke:none"
         id="path4260"
         inkscape:connector-curvature="0" />
    </g>
    <g
       id="g4262"
       transform="matrix(1.25,0,0,-1.25,484.10714,655.24164)">
      <path
         d="m 0,0 c 0,-5.591 -4.533,-10.125 -10.125,-10.125 l -141.75,0 C -157.467,-10.125 -162,-5.591 -162,0 l 0,141.75 c 0,5.592 4.533,10.125 10.125,10.125 l 141.75,0 C -4.533,151.875 0,147.342 0,141.75 L 0,0 z"
         style="fill:none;stroke:#231f20;stroke-width:0.5;stroke-linecap:butt;stroke-linejoin:miter;stroke-miterlimit:4;stroke-opacity:1;stroke-dasharray:none"
         id="path4264"
         inkscape:connector-curvature="0" />
    </g>
    <path
       inkscape:connector-curvature="0"
       id="path4268"
       style="fill:#652168;fill-opacity:1;fill-rule:nonzero;stroke:none"
       d="m 285.82602,655.24164 0,-177.1875 c 0,-4.65375 3.78499,-8.4375 8.4375,-8.4375 l 177.18749,0 c 4.65375,0 8.4375,3.78375 8.4375,8.4375 l 0,177.1875 c 0,4.65 -3.78375,8.4375 -8.4375,8.4375 l -177.18749,0 c -4.65251,0 -8.4375,-3.7875 -8.4375,-8.4375" />
    <g
       id="g4270"
       transform="matrix(1.25,0,0,-1.25,461.55589,634.94914)">
      <path
         d="m 0,0 c 0,-1.857 -1.518,-3.375 -3.375,-3.375 l -119.169,0 c -1.856,0 -3.375,1.518 -3.375,3.375 l 0,38.409 c 0,1.856 1.519,3.375 3.375,3.375 l 119.169,0 C -1.518,41.784 0,40.265 0,38.409 L 0,0 z"
         style="fill:#ffffff;fill-opacity:1;fill-rule:evenodd;stroke:none"
         id="path4272"
         inkscape:connector-curvature="0" />
    </g>
    <path
       d="m 467.23214,556.10014 -168.75,0 0,-67.5 168.75,0 0,67.5 z"
       style="fill:#ffffff;fill-opacity:1;fill-rule:nonzero;stroke:none"
       id="path4472"
       inkscape:connector-curvature="0" />
    <g
       id="g4474"
       transform="matrix(1.25,0,0,-1.25,337.96226,610.94539)">
      <path
         d="m 0,0 c 0,2.41 -0.549,4.478 -1.649,6.207 -1.242,1.943 -2.898,2.916 -4.97,2.916 -2.053,0 -3.702,-0.973 -4.943,-2.916 C -12.681,4.478 -13.237,2.41 -13.237,0 c 0,-2.393 0.556,-4.451 1.675,-6.18 1.241,-1.945 2.89,-2.916 4.943,-2.916 2.072,0 3.728,0.971 4.97,2.916 C -0.549,-4.451 0,-2.393 0,0 m 4.721,0 c 0,-3.687 -1.02,-6.869 -3.05,-9.551 -2.18,-2.859 -4.943,-4.29 -8.29,-4.29 -3.347,0 -6.108,1.431 -8.288,4.29 -2.029,2.682 -3.049,5.864 -3.049,9.551 0,3.688 1.02,6.872 3.049,9.554 2.18,2.859 4.941,4.289 8.288,4.289 3.347,0 6.11,-1.43 8.29,-4.289 C 3.701,6.872 4.721,3.688 4.721,0"
         style="fill:#231f20;fill-opacity:1;fill-rule:nonzero;stroke:none"
         id="path4476"
         inkscape:connector-curvature="0" />
    </g>
    <g
       id="g4478"
       transform="matrix(1.25,0,0,-1.25,378.96214,627.82152)">
      <path
         d="m 0,0 -4.853,0 c -2.196,3.275 -6.248,9.335 -12.152,18.172 l 0,-18.172 -4.853,0 0,27 4.861,0 L -4.847,8.775 -4.853,27 0,27 0,0 z"
         style="fill:#231f20;fill-opacity:1;fill-rule:nonzero;stroke:none"
         id="path4480"
         inkscape:connector-curvature="0" />
    </g>
    <g
       id="g4482"
       transform="matrix(1.25,0,0,-1.25,413.06589,627.82152)">
      <path
         d="m 0,0 -20.252,0 0,27 4.851,0 0,-22.148 L 0,4.852 0,0 z"
         style="fill:#231f20;fill-opacity:1;fill-rule:nonzero;stroke:none"
         id="path4484"
         inkscape:connector-curvature="0" />
    </g>
    <g
       id="g4486"
       transform="matrix(1.25,0,0,-1.25,450.19714,594.07152)">
      <path
         d="m 0,0 -11.349,-16.551 0,-10.449 -4.853,0 0,10.449 L -27.543,0 -21.841,0 -13.769,-11.5 -5.887,0 0,0 z"
         style="fill:#231f20;fill-opacity:1;fill-rule:nonzero;stroke:none"
         id="path4488"
         inkscape:connector-curvature="0" />
    </g>
    <g
       id="g4490"
       transform="matrix(1.25,0,0,-1.25,447.89589,539.93164)">
      <path
         d="m 0,0 -66.861,0 0.176,0.759 66.863,0 L 0,0 z"
         style="fill:#652168;fill-opacity:1;fill-rule:nonzero;stroke:none"
         id="path4492"
         inkscape:connector-curvature="0" />
    </g>
    <g
       id="g4494"
       transform="matrix(1.25,0,0,-1.25,352.08526,542.56114)">
      <path
         d="m 0,0 -5.681,0 0.178,0.765 5.684,0 L 0,0 z"
         style="fill:#652168;fill-opacity:1;fill-rule:nonzero;stroke:none"
         id="path4496"
         inkscape:connector-curvature="0" />
    </g>
    <g
       id="g4498"
       transform="matrix(1.25,0,0,-1.25,375.88839,542.56114)">
      <path
         d="m 0,0 -5.672,0 0.165,0.765 5.684,0 L 0,0 z"
         style="fill:#652168;fill-opacity:1;fill-rule:nonzero;stroke:none"
         id="path4500"
         inkscape:connector-curvature="0" />
    </g>
    <g
       id="g4502"
       transform="matrix(1.25,0,0,-1.25,399.70714,542.56114)">
      <path
         d="m 0,0 -5.693,0 0.177,0.765 5.685,0 L 0,0 z"
         style="fill:#652168;fill-opacity:1;fill-rule:nonzero;stroke:none"
         id="path4504"
         inkscape:connector-curvature="0" />
    </g>
    <g
       id="g4506"
       transform="matrix(1.25,0,0,-1.25,423.49964,542.56114)">
      <path
         d="m 0,0 -5.685,0 0.169,0.765 5.693,0 L 0,0 z"
         style="fill:#652168;fill-opacity:1;fill-rule:nonzero;stroke:none"
         id="path4508"
         inkscape:connector-curvature="0" />
    </g>
    <g
       id="g4510"
       transform="matrix(1.25,0,0,-1.25,447.30714,542.56114)">
      <path
         d="m 0,0 -5.692,0 0.177,0.765 5.685,0 L 0,0 z"
         style="fill:#652168;fill-opacity:1;fill-rule:nonzero;stroke:none"
         id="path4512"
         inkscape:connector-curvature="0" />
    </g>
    <g
       id="g4514"
       transform="matrix(1.25,0,0,-1.25,446.70839,545.18314)">
      <path
         d="m 0,0 -88.006,0 0.173,0.762 88.002,0 L 0,0 z"
         style="fill:#652168;fill-opacity:1;fill-rule:nonzero;stroke:none"
         id="path4516"
         inkscape:connector-curvature="0" />
    </g>
    <g
       id="g4518"
       transform="matrix(1.25,0,0,-1.25,314.79514,507.21802)">
      <path
         d="m 0,0 -1.32,-5.709 10.354,0 -5.688,-24.663 6.647,0 5.688,24.663 17.154,0 L 34.152,0 0,0 z"
         style="fill:#231f20;fill-opacity:1;fill-rule:nonzero;stroke:none"
         id="path4520"
         inkscape:connector-curvature="0" />
    </g>
    <g
       id="g4522"
       transform="matrix(1.25,0,0,-1.25,341.76901,528.83789)">
      <path
         d="m 0,0 c -0.387,0 -0.894,0.055 -1.107,0.322 -0.258,0.326 -0.282,1.072 -0.065,1.997 0.661,2.91 2.408,2.91 2.984,2.91 0.382,0 0.889,-0.055 1.103,-0.326 C 3.172,4.582 3.192,3.837 2.979,2.913 2.311,0 0.576,0 0,0 m 8.341,8.302 c -1.239,1.559 -3.329,2.422 -5.873,2.422 -3.777,0 -8.664,-2.048 -9.989,-7.811 -0.7,-3.042 0.153,-4.934 0.991,-5.984 1.24,-1.563 3.329,-2.42 5.874,-2.42 3.784,0 8.667,2.047 9.98,7.81 0.704,3.032 -0.145,4.926 -0.983,5.983"
         style="fill:#231f20;fill-opacity:1;fill-rule:nonzero;stroke:none"
         id="path4524"
         inkscape:connector-curvature="0" />
    </g>
    <g
       id="g4526"
       transform="matrix(1.25,0,0,-1.25,359.51326,499.52402)">
      <path
         d="m 0,0 -7.412,-32.326 6.377,0 L 6.381,0 0,0 z"
         style="fill:#231f20;fill-opacity:1;fill-rule:nonzero;stroke:none"
         id="path4528"
         inkscape:connector-curvature="0" />
    </g>
    <g
       id="g4530"
       transform="matrix(1.25,0,0,-1.25,368.64214,499.52402)">
      <path
         d="m 0,0 -7.416,-32.326 6.377,0 L 6.385,0 0,0 z"
         style="fill:#231f20;fill-opacity:1;fill-rule:nonzero;stroke:none"
         id="path4532"
         inkscape:connector-curvature="0" />
    </g>
    <g
       id="g4534"
       transform="matrix(1.25,0,0,-1.25,441.78214,529.20039)">
      <path
         d="m 0,0 c -1.132,0 -1.409,0.222 -1.329,0.286 l 0.016,0.066 C -0.978,0.282 -0.648,0.218 -0.33,0.159 -0.121,0.115 0.129,0.069 0.378,0.017 0.265,0.005 0.137,0 0,0 m -14.606,0 c -1.132,0 -1.405,0.222 -1.324,0.274 l 0.02,0.078 c 0.33,-0.07 0.656,-0.134 0.974,-0.193 0.213,-0.044 0.459,-0.09 0.708,-0.142 C -14.341,0.005 -14.469,0 -14.606,0 m -7.951,-1.932 c 0.016,0.141 0.044,0.34 0.109,0.608 l 0.104,0.443 c 0.053,-0.476 0.169,-0.89 0.326,-1.24 l -0.539,0.189 z m -8.229,1.723 c 0.101,0.423 0.274,0.696 1.84,0.938 0.181,0.024 0.35,0.05 0.515,0.075 -0.503,-0.586 -1.486,-0.964 -2.355,-1.013 m -7.689,11.357 c -0.182,-0.756 -0.399,-1.691 -2.283,-1.691 l -1.993,0 0.568,2.488 2.081,0 c 1.357,0 1.663,-0.246 1.671,-0.246 0.004,-0.014 0.044,-0.16 -0.044,-0.551 M 8.45,5.23 C 8.696,6.828 8.386,8.144 7.528,9.14 6.445,10.399 4.59,11.014 1.86,11.014 c -4.944,0 -7.339,-2.76 -7.927,-5.337 -0.27,-1.159 -0.125,-2.178 0.431,-3.028 0.185,-0.29 0.41,-0.539 0.66,-0.758 l -1.828,0 c -0.072,0.485 -0.242,0.94 -0.511,1.354 -0.214,0.334 -0.479,0.62 -0.781,0.866 l 1.767,0 0.169,1.119 c 0.246,1.598 -0.064,2.914 -0.922,3.91 -1.083,1.259 -2.943,1.874 -5.672,1.874 -4.948,0 -7.359,-2.877 -7.923,-5.337 -0.27,-1.159 -0.121,-2.178 0.431,-3.028 0.185,-0.29 0.41,-0.539 0.66,-0.758 l -2.122,0 0.866,3.774 c 0.386,1.673 -0.141,2.781 -0.644,3.424 -1.333,1.677 -3.921,1.925 -5.347,1.925 -1.123,0 -3.373,-0.017 -5.37,-1.246 0.064,0.212 0.145,0.434 0.189,0.624 0.604,2.626 -0.133,4.258 -0.853,5.168 -0.737,0.922 -2.199,2.026 -4.993,2.026 l -9.67,0 -5.185,-22.453 6.646,0 2.005,8.686 3.479,0 c 2.17,0 3.857,0.653 5.153,1.578 l -0.511,-1.532 1.252,0 c -1.2,-0.891 -2.025,-2.153 -2.383,-3.7 -0.427,-1.835 0.124,-3.031 0.664,-3.709 0.849,-1.069 2.275,-1.657 4.005,-1.657 1.559,0 2.771,0.358 3.72,0.813 l 0.057,-0.479 6.167,0 0.58,2.426 c 0.129,-0.236 0.27,-0.441 0.407,-0.61 1.461,-1.78 4.163,-2.15 6.172,-2.15 2.874,0 6.107,1.011 7.665,3.636 0.181,-0.641 0.483,-1.134 0.773,-1.491 1.461,-1.775 4.159,-2.145 6.168,-2.145 3.466,0 7.503,1.433 8.426,5.455 C 7.991,1.393 7.846,2.396 7.299,3.245 7.081,3.579 6.816,3.865 6.514,4.111 l 1.767,0 0.169,1.119 z"
         style="fill:#231f20;fill-opacity:1;fill-rule:nonzero;stroke:none"
         id="path4536"
         inkscape:connector-curvature="0" />
    </g>
    <g
       id="g4538"
       transform="matrix(1.25,0,0,-1.25,326.63176,544.35801)">
      <path
         d="m 0,0 -5.294,0 5.692,24.663 -10.358,0 1.018,4.391 32.795,0 -1.014,-4.391 -17.151,0 L 0,0 z"
         style="fill:#ffffff;fill-opacity:1;fill-rule:nonzero;stroke:none"
         id="path4540"
         inkscape:connector-curvature="0" />
    </g>
    <g
       id="g4542"
       transform="matrix(1.25,0,0,-1.25,344.03351,521.47464)">
      <path
         d="m 0,0 c -2.347,0 -3.269,-1.864 -3.631,-3.423 -0.262,-1.151 -0.194,-2.06 0.201,-2.552 0.302,-0.382 0.849,-0.576 1.618,-0.576 2.343,0 3.261,1.861 3.623,3.422 0.262,1.155 0.198,2.06 -0.197,2.553 C 1.316,-0.193 0.769,0 0,0 m -2.468,-10.722 c -2.339,0 -4.247,0.77 -5.358,2.17 -1.072,1.349 -1.373,3.221 -0.866,5.423 1.244,5.393 5.814,7.301 9.348,7.301 2.339,0 4.243,-0.771 5.359,-2.174 1.07,-1.347 1.368,-3.223 0.857,-5.423 -1.228,-5.388 -5.797,-7.297 -9.34,-7.297"
         style="fill:#ffffff;fill-opacity:1;fill-rule:nonzero;stroke:none"
         id="path4544"
         inkscape:connector-curvature="0" />
    </g>
    <g
       id="g4546"
       transform="matrix(1.25,0,0,-1.25,357.56551,539.10639)">
      <path
         d="m 0,0 -5.028,0 7.105,31.006 5.032,0 L 0,0 z"
         style="fill:#ffffff;fill-opacity:1;fill-rule:nonzero;stroke:none"
         id="path4548"
         inkscape:connector-curvature="0" />
    </g>
    <g
       id="g4550"
       transform="matrix(1.25,0,0,-1.25,366.69339,539.10639)">
      <path
         d="m 0,0 -5.028,0 7.11,31.006 5.036,0 L 0,0 z"
         style="fill:#ffffff;fill-opacity:1;fill-rule:nonzero;stroke:none"
         id="path4552"
         inkscape:connector-curvature="0" />
    </g>
    <g
       id="g4554"
       transform="matrix(1.25,0,0,-1.25,387.31214,518.20439)">
      <path
         d="M 0,0 2.818,0 C 5.225,0 5.559,1.434 5.74,2.2 5.861,2.722 5.837,3.088 5.672,3.297 5.487,3.529 4.956,3.809 3.474,3.809 l -2.605,0 L 0,0 z m -3.016,-13.004 -5.294,0 4.884,21.135 9.142,0 c 2.001,0 3.551,-0.614 4.477,-1.776 0.91,-1.141 1.16,-2.736 0.729,-4.608 -0.479,-2.1 -2.754,-6.064 -7.931,-6.064 l -4.002,0 -2.005,-8.687 z"
         style="fill:#ffffff;fill-opacity:1;fill-rule:nonzero;stroke:none"
         id="path4556"
         inkscape:connector-curvature="0" />
    </g>
    <g
       id="g4558"
       transform="matrix(1.25,0,0,-1.25,407.55714,527.10089)">
      <path
         d="m 0,0 c -0.439,-0.109 -0.979,-0.206 -1.655,-0.299 -1.441,-0.221 -2.17,-0.495 -2.391,-1.438 -0.053,-0.239 -0.041,-0.417 0.048,-0.522 0.109,-0.14 0.37,-0.229 0.668,-0.229 1.325,0 2.935,0.781 3.225,2.043 L 0,0 z m -0.524,4.649 c -1.421,0 -1.807,-0.712 -2.057,-1.377 l -0.068,-0.193 2.592,0.349 c 0.576,0.07 0.898,0.243 0.959,0.517 0.028,0.117 0.06,0.33 -0.016,0.431 -0.149,0.179 -0.62,0.273 -1.41,0.273 m -4.501,-10.87 c -1.529,0 -2.77,0.499 -3.49,1.408 -0.447,0.565 -0.906,1.568 -0.539,3.154 0.539,2.339 2.294,3.953 4.859,4.505 l -3.455,0 0.287,0.868 c 1.469,4.397 4.996,4.959 7.91,4.959 1.305,0 3.668,-0.215 4.831,-1.677 C 5.982,6.235 6.16,5.27 5.894,4.134 L 4.291,-2.853 C 4.058,-3.857 4.183,-4.083 4.187,-4.091 L 4.746,-4.284 4.4,-5.887 l -5.065,0 -0.072,0.576 c -0.016,0.109 -0.028,0.209 -0.036,0.296 -0.97,-0.614 -2.331,-1.206 -4.252,-1.206"
         style="fill:#ffffff;fill-opacity:1;fill-rule:nonzero;stroke:none"
         id="path4560"
         inkscape:connector-curvature="0" />
    </g>
    <g
       id="g4562"
       transform="matrix(1.25,0,0,-1.25,425.36214,521.11339)">
      <path
         d="M 0,0 C -1.736,0 -1.865,-0.547 -1.913,-0.753 -1.748,-0.93 -0.52,-1.171 0.285,-1.33 0.644,-1.396 1.018,-1.474 1.397,-1.556 L 1.424,-1.01 C 1.445,-0.615 1.404,-0.414 1.292,-0.294 1.187,-0.185 0.881,0 0,0 m -3.266,-5.33 -0.169,-0.717 c -0.1,-0.431 0.017,-0.579 0.057,-0.628 0.105,-0.133 0.511,-0.455 1.908,-0.455 1.493,0 1.952,0.599 2.009,0.825 -0.157,0.242 -1.401,0.48 -2.219,0.639 -0.519,0.103 -1.058,0.205 -1.586,0.336 m 1.1,-5.681 c -1.869,0 -4.369,0.326 -5.661,1.905 -0.721,0.881 -0.95,2.004 -0.684,3.341 l 0.108,0.526 4.775,0 c -1.212,0.332 -2.319,0.833 -2.927,1.777 -0.455,0.696 -0.571,1.542 -0.346,2.521 0.535,2.335 2.73,4.824 7.283,4.824 2.528,0 4.219,-0.537 5.173,-1.645 0.725,-0.841 0.983,-1.98 0.773,-3.377 l -0.084,-0.559 -4.24,0 c 1.325,-0.343 2.605,-0.866 3.265,-1.885 0.451,-0.692 0.564,-1.525 0.346,-2.483 -1.054,-4.59 -6.223,-4.945 -7.781,-4.945"
         style="fill:#ffffff;fill-opacity:1;fill-rule:nonzero;stroke:none"
         id="path4564"
         inkscape:connector-curvature="0" />
    </g>
    <g
       id="g4566"
       transform="matrix(1.25,0,0,-1.25,443.62839,521.11339)">
      <path
         d="m 0,0 c -1.747,0 -1.868,-0.543 -1.916,-0.748 0.165,-0.182 1.389,-0.423 2.198,-0.582 0.355,-0.066 0.729,-0.144 1.107,-0.226 l 0.024,0.541 C 1.43,-0.611 1.393,-0.41 1.277,-0.289 1.176,-0.181 0.87,0 0,0 M -3.289,-5.326 -3.45,-6.038 c -0.097,-0.44 0.025,-0.588 0.065,-0.637 0.108,-0.136 0.511,-0.455 1.908,-0.455 1.493,0 1.952,0.594 2.001,0.821 -0.153,0.246 -1.393,0.484 -2.211,0.643 -0.519,0.103 -1.067,0.205 -1.602,0.34 m 1.116,-5.685 c -1.865,0 -4.365,0.326 -5.657,1.905 -0.72,0.881 -0.954,2.004 -0.688,3.337 l 0.104,0.53 4.783,0 c -1.212,0.332 -2.315,0.833 -2.931,1.777 -0.455,0.696 -0.568,1.542 -0.342,2.521 0.531,2.335 2.73,4.824 7.287,4.824 2.524,0 4.215,-0.537 5.169,-1.645 0.729,-0.841 0.983,-1.98 0.773,-3.377 l -0.084,-0.559 -4.244,0 c 1.325,-0.343 2.609,-0.866 3.269,-1.885 0.451,-0.692 0.564,-1.525 0.347,-2.483 -1.056,-4.59 -6.224,-4.945 -7.786,-4.945"
         style="fill:#ffffff;fill-opacity:1;fill-rule:nonzero;stroke:none"
         id="path4568"
         inkscape:connector-curvature="0" />
    </g>
    <g
       id="g4570"
       transform="matrix(1.25,0,0,-1.25,325.97739,543.53764)">
      <path
         d="m 0,0 -3.945,0 5.692,24.661 -10.354,0 0.708,3.08 31.45,0 -0.712,-3.08 -17.151,0 L 0,0 z"
         style="fill:#60c332;fill-opacity:1;fill-rule:nonzero;stroke:none"
         id="path4572"
         inkscape:connector-curvature="0" />
    </g>
    <g
       id="g4574"
       transform="matrix(1.25,0,0,-1.25,344.03351,520.65552)">
      <path
         d="m 0,0 c -2.835,0 -3.889,-2.278 -4.271,-3.929 -0.379,-1.652 -0.379,-3.933 2.459,-3.933 2.83,0 3.881,2.281 4.264,3.933 C 2.834,-2.278 2.83,0 0,0 m -2.468,-10.721 c -3.76,0 -6.655,2.126 -5.584,6.792 1.075,4.655 4.952,6.792 8.708,6.792 3.756,0 6.655,-2.137 5.576,-6.792 -1.063,-4.666 -4.944,-6.792 -8.7,-6.792"
         style="fill:#60c332;fill-opacity:1;fill-rule:nonzero;stroke:none"
         id="path4576"
         inkscape:connector-curvature="0" />
    </g>
    <g
       id="g4578"
       transform="matrix(1.25,0,0,-1.25,356.90639,538.28852)">
      <path
         d="m 0,0 -3.676,0 6.808,29.695 3.68,0 L 0,0 z"
         style="fill:#60c332;fill-opacity:1;fill-rule:nonzero;stroke:none"
         id="path4580"
         inkscape:connector-curvature="0" />
    </g>
    <g
       id="g4582"
       transform="matrix(1.25,0,0,-1.25,366.03464,538.28852)">
      <path
         d="m 0,0 -3.676,0 6.812,29.695 3.684,0 L 0,0 z"
         style="fill:#60c332;fill-opacity:1;fill-rule:nonzero;stroke:none"
         id="path4584"
         inkscape:connector-curvature="0" />
    </g>
    <g
       id="g4586"
       transform="matrix(1.25,0,0,-1.25,390.83464,519.02476)">
      <path
         d="M 0,0 C 2.943,0 3.386,1.944 3.567,2.718 3.961,4.419 3.1,5.121 0.656,5.121 l -3.132,0 L -3.644,0 0,0 z m -6.357,-11.689 -3.945,0 4.577,19.82 8.623,0 C 6.546,8.131 8.249,5.967 7.464,2.549 7.102,0.971 5.242,-3.005 0.173,-3.005 l -4.525,0 -2.005,-8.684 z"
         style="fill:#60c332;fill-opacity:1;fill-rule:nonzero;stroke:none"
         id="path4588"
         inkscape:connector-curvature="0" />
    </g>
    <g
       id="g4590"
       transform="matrix(1.25,0,0,-1.25,408.69839,525.78002)">
      <path
         d="m 0,0 c -0.426,-0.268 -1.082,-0.485 -2.656,-0.703 -1.413,-0.217 -2.613,-0.535 -2.943,-1.941 -0.27,-1.191 0.644,-1.557 1.356,-1.557 1.627,0 3.503,0.978 3.865,2.553 L 0,0 z M 2.738,-3.763 C 2.384,-5.292 2.674,-5.629 3.093,-5.775 l -0.121,-0.51 -3.97,0 c -0.076,0.606 -0.084,0.803 0.012,1.528 -1.026,-0.801 -2.455,-1.864 -4.952,-1.864 -2.097,0 -4.005,1.091 -3.389,3.754 0.583,2.522 2.617,3.81 5.028,4.129 l 3.414,0.459 c 0.596,0.068 1.344,0.292 1.518,1.018 0.326,1.434 -1.119,1.51 -2.07,1.51 -1.843,0 -2.387,-1.043 -2.673,-1.804 l -3.538,0 c 1.316,3.962 4.424,4.518 7.282,4.518 1.969,0 5.443,-0.556 4.707,-3.736 l -1.603,-6.99 z"
         style="fill:#60c332;fill-opacity:1;fill-rule:nonzero;stroke:none"
         id="path4592"
         inkscape:connector-curvature="0" />
    </g>
    <g
       id="g4594"
       transform="matrix(1.25,0,0,-1.25,427.96339,522.41577)">
      <path
         d="m 0,0 c 0.04,0.829 -0.081,1.7 -2.081,1.7 -1.994,0 -2.424,-0.704 -2.553,-1.262 -0.459,-2.039 8.623,-0.557 7.529,-5.316 -0.862,-3.754 -4.969,-4.435 -7.142,-4.435 -3.177,0 -6.386,1.019 -5.701,4.458 l 3.792,0 c -0.257,-1.089 0.302,-1.889 2.605,-1.889 1.888,0 2.536,0.85 2.649,1.337 0.499,2.158 -8.555,0.529 -7.44,5.36 0.435,1.895 2.287,4.318 6.643,4.318 C 1.034,4.271 4.15,3.646 3.595,0 L 0,0 z"
         style="fill:#60c332;fill-opacity:1;fill-rule:nonzero;stroke:none"
         id="path4596"
         inkscape:connector-curvature="0" />
    </g>
    <g
       id="g4598"
       transform="matrix(1.25,0,0,-1.25,446.21589,522.41577)">
      <path
         d="m 0,0 c 0.036,0.829 -0.081,1.7 -2.07,1.7 -2.005,0 -2.431,-0.704 -2.556,-1.262 -0.467,-2.039 8.628,-0.557 7.529,-5.316 -0.866,-3.754 -4.964,-4.435 -7.146,-4.435 -3.177,0 -6.382,1.019 -5.701,4.458 l 3.784,0 c -0.246,-1.089 0.31,-1.889 2.613,-1.889 1.888,0 2.536,0.85 2.645,1.337 0.503,2.158 -8.547,0.529 -7.432,5.36 0.435,1.895 2.279,4.318 6.647,4.318 2.73,0 5.845,-0.625 5.29,-4.271 L 0,0 z"
         style="fill:#60c332;fill-opacity:1;fill-rule:nonzero;stroke:none"
         id="path4600"
         inkscape:connector-curvature="0" />
    </g>
  </g>
</svg>
