<?xml version="1.0" encoding="UTF-8" standalone="no"?>
<!-- Created with Inkscape (http://www.inkscape.org/) -->

<svg
   xmlns:dc="http://purl.org/dc/elements/1.1/"
   xmlns:cc="http://creativecommons.org/ns#"
   xmlns:rdf="http://www.w3.org/1999/02/22-rdf-syntax-ns#"
   xmlns:svg="http://www.w3.org/2000/svg"
   xmlns="http://www.w3.org/2000/svg"
   xmlns:sodipodi="http://sodipodi.sourceforge.net/DTD/sodipodi-0.dtd"
   xmlns:inkscape="http://www.inkscape.org/namespaces/inkscape"
   width="234.75162"
   height="99.21875"
   id="svg4642"
   version="1.1"
   inkscape:version="0.48.2 r9819"
   sodipodi:docname="New document 9">
  <defs
     id="defs4644">
    <clipPath
       clipPathUnits="userSpaceOnUse"
       id="clipPath4380">
      <path
         inkscape:connector-curvature="0"
         d="M 27.125,32 540,32 l 0,120 -512.875,0 0,-120 z"
         id="path4382" />
    </clipPath>
    <clipPath
       clipPathUnits="userSpaceOnUse"
       id="clipPath4368">
      <path
         inkscape:connector-curvature="0"
         d="m 76.172,42.445 414.78,0 0,109.555 -414.78,0 0,-109.555 z"
         id="path4370" />
    </clipPath>
    <clipPath
       clipPathUnits="userSpaceOnUse"
       id="clipPath4356">
      <path
         inkscape:connector-curvature="0"
         d="M 27.125,32 540,32 l 0,120 -512.875,0 0,-120 z"
         id="path4358" />
    </clipPath>
  </defs>
  <sodipodi:namedview
     id="base"
     pagecolor="#ffffff"
     bordercolor="#666666"
     borderopacity="1.0"
     inkscape:pageopacity="0.0"
     inkscape:pageshadow="2"
     inkscape:zoom="0.35"
     inkscape:cx="209.51886"
     inkscape:cy="112.47027"
     inkscape:document-units="px"
     inkscape:current-layer="layer1"
     showgrid="false"
     fit-margin-top="0"
     fit-margin-left="0"
     fit-margin-right="0"
     fit-margin-bottom="0"
     inkscape:window-width="469"
     inkscape:window-height="425"
     inkscape:window-x="1566"
     inkscape:window-y="200"
     inkscape:window-maximized="0" />
  <metadata
     id="metadata4647">
    <rdf:RDF>
      <cc:Work
         rdf:about="">
        <dc:format>image/svg+xml</dc:format>
        <dc:type
           rdf:resource="http://purl.org/dc/dcmitype/StillImage" />
        <dc:title></dc:title>
      </cc:Work>
    </rdf:RDF>
  </metadata>
  <g
     inkscape:label="Layer 1"
     inkscape:groupmode="layer"
     id="layer1"
     transform="translate(-165.48114,-545.6137)">
    <g
       transform="matrix(1.25,0,0,-1.25,70.266143,715.4627)"
       id="g4352">
      <g
         id="g4354"
         clip-path="url(#clipPath4356)">
        <g
           id="g4360"
           transform="translate(263.7233,61.6917)">
          <path
             inkscape:connector-curvature="0"
             d="m 0,0 c 0,-2.722 -2.207,-4.929 -4.93,-4.929 l -177.442,0 c -2.722,0 -4.929,2.207 -4.929,4.929 l 0,69.005 c 0,2.722 2.207,4.93 4.929,4.93 l 177.442,0 c 2.723,0 4.93,-2.208 4.93,-4.93 L 0,0 z"
             style="fill:#ffffff;fill-opacity:1;fill-rule:nonzero;stroke:none"
             id="path4362" />
        </g>
      </g>
    </g>
    <g
       transform="matrix(1.25,0,0,-1.25,70.266143,715.4627)"
       id="g4364">
      <g
         id="g4366"
         clip-path="url(#clipPath4368)">
        <g
           id="g4372"
           transform="translate(263.7233,61.6917)">
          <path
             inkscape:connector-curvature="0"
             d="m 0,0 c 0,-2.722 -2.207,-4.929 -4.93,-4.929 l -177.442,0 c -2.722,0 -4.929,2.207 -4.929,4.929 l 0,69.005 c 0,2.722 2.207,4.93 4.929,4.93 l 177.442,0 c 2.723,0 4.93,-2.208 4.93,-4.93 L 0,0 z"
             style="fill:none;stroke:#231f20;stroke-width:0.5;stroke-linecap:butt;stroke-linejoin:miter;stroke-miterlimit:4;stroke-opacity:1;stroke-dasharray:none"
             id="path4374" />
        </g>
      </g>
    </g>
    <g
       transform="matrix(1.25,0,0,-1.25,70.266143,715.4627)"
       id="g4376">
      <g
         id="g4378"
         clip-path="url(#clipPath4380)">
        <g
           id="g4384"
           transform="translate(260.4373,61.6917)">
          <path
             inkscape:connector-curvature="0"
             d="m 0,0 c 0,-0.906 -0.738,-1.643 -1.644,-1.643 l -177.442,0 c -0.906,0 -1.643,0.737 -1.643,1.643 l 0,69.005 c 0,0.906 0.737,1.643 1.643,1.643 l 177.442,0 C -0.738,70.648 0,69.911 0,69.005 L 0,0 z m -1.644,72.702 -177.442,0 c -2.038,0 -3.697,-1.658 -3.697,-3.697 l 0,-69.005 c 0,-2.039 1.659,-3.697 3.697,-3.697 l 177.442,0 c 2.039,0 3.697,1.658 3.697,3.697 l 0,69.005 c 0,2.039 -1.658,3.697 -3.697,3.697"
             style="fill:#231f20;fill-opacity:1;fill-rule:nonzero;stroke:none"
             id="path4386" />
        </g>
        <g
           id="g4388"
           transform="translate(152.8051,116.3211)">
          <path
             inkscape:connector-curvature="0"
             d="m 0,0 -4.445,0 0,-13.144 -3.286,0 0,13.144 -4.427,0 0,3.286 L 0,3.286 0,0 z"
             style="fill:#231f20;fill-opacity:1;fill-rule:nonzero;stroke:none"
             id="path4390" />
        </g>
        <g
           id="g4392"
           transform="translate(165.6196,111.3919)">
          <path
             inkscape:connector-curvature="0"
             d="m 0,0 c 0,1.346 -0.296,2.5 -0.888,3.464 -0.669,1.083 -1.578,1.625 -2.728,1.625 -1.152,0 -2.061,-0.542 -2.73,-1.625 C -6.938,2.5 -7.233,1.346 -7.233,0 c 0,-1.346 0.295,-2.501 0.887,-3.463 0.669,-1.084 1.578,-1.625 2.73,-1.625 1.15,0 2.059,0.541 2.728,1.625 C -0.296,-2.501 0,-1.346 0,0 m 3.286,0 c 0,-2.233 -0.619,-4.16 -1.857,-5.78 -1.315,-1.73 -2.996,-2.595 -5.045,-2.595 -2.05,0 -3.732,0.865 -5.046,2.595 -1.238,1.62 -1.858,3.547 -1.858,5.78 0,2.233 0.62,4.16 1.858,5.78 1.314,1.73 2.996,2.595 5.046,2.595 2.049,0 3.73,-0.865 5.045,-2.595 C 2.667,4.16 3.286,2.233 3.286,0"
             style="fill:#231f20;fill-opacity:1;fill-rule:nonzero;stroke:none"
             id="path4394" />
        </g>
        <g
           id="g4396"
           transform="translate(185.0073,103.177)">
          <path
             inkscape:connector-curvature="0"
             d="m 0,0 -12.158,0 0,16.43 3.286,0 0,-13.144 L 0,3.286 0,0 z"
             style="fill:#231f20;fill-opacity:1;fill-rule:nonzero;stroke:none"
             id="path4398" />
        </g>
        <g
           id="g4400"
           transform="translate(199.7933,103.177)">
          <path
             inkscape:connector-curvature="0"
             d="m 0,0 -12.157,0 0,16.43 3.285,0 0,-13.144 L 0,3.286 0,0 z"
             style="fill:#231f20;fill-opacity:1;fill-rule:nonzero;stroke:none"
             id="path4402" />
        </g>
        <g
           id="g4404"
           transform="translate(228.3833,93.3616)">
          <path
             inkscape:connector-curvature="0"
             d="m 0,0 0,1.441 1.381,0 0,-1.451 c 1.119,-0.243 1.731,-1 1.837,-2.27 l -1.381,0 c 0,0.165 -0.056,0.329 -0.168,0.494 -0.197,0.31 -0.53,0.466 -0.998,0.466 -0.797,0 -1.196,-0.352 -1.196,-1.056 0,-0.388 0.323,-0.776 0.967,-1.164 0.962,-0.566 1.564,-0.967 1.808,-1.204 0.644,-0.638 0.968,-1.46 0.968,-2.466 0,-0.573 -0.129,-1.092 -0.386,-1.56 C 2.503,-9.361 2.019,-9.74 1.381,-9.904 l 0,-1.48 -1.381,0 0,1.421 c -0.808,0.119 -1.412,0.49 -1.813,1.115 -0.328,0.5 -0.492,1.099 -0.492,1.797 l 1.381,0 c 0,-0.574 0.181,-0.998 0.543,-1.275 0.27,-0.198 0.599,-0.296 0.987,-0.296 0.79,0 1.185,0.47 1.185,1.41 0,0.737 -0.318,1.338 -0.956,1.806 -0.592,0.368 -1.187,0.733 -1.784,1.095 -0.638,0.493 -0.956,1.138 -0.956,1.934 0,0.441 0.107,0.858 0.324,1.252 C -1.247,-0.513 -0.721,-0.138 0,0"
             style="fill:#231f20;fill-opacity:1;fill-rule:nonzero;stroke:none"
             id="path4406" />
        </g>
        <g
           id="g4408"
           transform="translate(238.9983,83.4612)">
          <path
             inkscape:connector-curvature="0"
             d="m 0,0 -1.381,0 0,8.084 -0.684,0 0,1.084 c 0.171,0.013 0.289,0.026 0.354,0.04 0.118,0.025 0.246,0.078 0.384,0.157 0.137,0.079 0.298,0.243 0.481,0.493 L 0,9.858 0,0 z"
             style="fill:#231f20;fill-opacity:1;fill-rule:nonzero;stroke:none"
             id="path4410" />
        </g>
        <g
           id="g4412"
           transform="translate(240.4613,84.1512)">
          <path
             inkscape:connector-curvature="0"
             d="M 0,0 C 0,0.218 0.077,0.405 0.232,0.56 0.386,0.715 0.571,0.793 0.787,0.793 1.004,0.793 1.19,0.715 1.344,0.56 1.498,0.405 1.575,0.218 1.575,0 1.575,-0.218 1.498,-0.405 1.344,-0.56 1.19,-0.715 1.004,-0.793 0.787,-0.793 0.571,-0.793 0.386,-0.715 0.232,-0.56 0.077,-0.405 0,-0.218 0,0"
             style="fill:#231f20;fill-opacity:1;fill-rule:nonzero;stroke:none"
             id="path4414" />
        </g>
        <g
           id="g4416"
           transform="translate(248.5513,83.4612)">
          <path
             inkscape:connector-curvature="0"
             d="m 0,0 -5.507,0 c -0.016,0.105 -0.023,0.233 -0.023,0.385 0,1.881 0.608,3.41 1.823,4.587 0.276,0.263 0.641,0.559 1.095,0.888 0.42,0.296 0.692,0.513 0.817,0.651 0.21,0.23 0.315,0.493 0.315,0.789 0,0.29 -0.101,0.559 -0.304,0.809 C -2.04,8.438 -2.388,8.603 -2.827,8.603 -3.359,8.603 -3.733,8.372 -3.949,7.91 -4.067,7.665 -4.126,7.427 -4.126,7.196 l -1.381,0 c 0.013,0.788 0.272,1.45 0.776,1.985 0.505,0.535 1.141,0.802 1.909,0.802 0.799,0 1.461,-0.282 1.986,-0.847 C -0.345,8.61 -0.1,7.996 -0.1,7.293 -0.1,6.695 -0.25,6.19 -0.553,5.775 -0.756,5.5 -1.085,5.217 -1.538,4.928 -2.064,4.593 -2.389,4.363 -2.514,4.238 -3.42,3.345 -3.933,2.392 -4.051,1.38 L 0,1.38 0,0 z"
             style="fill:#231f20;fill-opacity:1;fill-rule:nonzero;stroke:none"
             id="path4418" />
        </g>
        <g
           id="g4420"
           transform="translate(255.2463,86.887)">
          <path
             inkscape:connector-curvature="0"
             d="m 0,0 c 0,-1.314 -0.407,-2.274 -1.22,-2.878 -0.592,-0.434 -1.344,-0.651 -2.256,-0.651 -0.717,0 -1.383,0.31 -2,0.929 l 0.965,0.998 c 0,-0.053 0.108,-0.146 0.325,-0.278 0.288,-0.179 0.63,-0.268 1.024,-0.268 0.526,0 0.958,0.213 1.299,0.64 0.322,0.414 0.482,0.913 0.482,1.498 0,0.584 -0.154,1.048 -0.463,1.389 C -2.099,1.675 -2.39,1.823 -2.719,1.823 -3.277,1.829 -3.638,1.64 -3.803,1.257 l -1.447,0.197 0.346,4.978 4.544,0 0,-1.381 -3.185,0 -0.146,-2.11 c 0.275,0.175 0.594,0.262 0.954,0.262 0.834,0 1.507,-0.325 2.018,-0.975 C -0.24,1.623 0,0.88 0,0"
             style="fill:#231f20;fill-opacity:1;fill-rule:nonzero;stroke:none"
             id="path4422" />
        </g>
        <g
           id="g4424"
           transform="translate(90.8364,66.1985)">
          <path
             inkscape:connector-curvature="0"
             d="m 0,0 -5.027,0.011 0,9.858 5.027,0 0,-1.38 -3.647,0 0,-2.568 2.168,0 0,-1.38 -2.168,0 0,-3.149 L 0,1.392 0,0 z"
             style="fill:#231f20;fill-opacity:1;fill-rule:nonzero;stroke:none"
             id="path4426" />
        </g>
        <g
           id="g4428"
           transform="translate(95.6489,70.2488)">
          <path
             inkscape:connector-curvature="0"
             d="M 0,0 -0.77,3.207 -1.548,0 0,0 z m 2.385,-4.039 -1.41,0 -0.64,2.658 -2.219,0 -0.641,-2.658 -1.399,0 2.386,9.858 1.538,0 2.385,-9.858 z"
             style="fill:#231f20;fill-opacity:1;fill-rule:nonzero;stroke:none"
             id="path4430" />
        </g>
        <g
           id="g4432"
           transform="translate(104.7387,68.8025)">
          <path
             inkscape:connector-curvature="0"
             d="m 0,0 c -0.092,-0.527 -0.239,-0.974 -0.443,-1.343 -0.487,-0.902 -1.209,-1.352 -2.169,-1.352 -1.19,0 -2.021,0.674 -2.494,2.022 -0.276,0.796 -0.413,1.799 -0.413,3.009 0,3.355 0.968,5.032 2.907,5.032 0.927,0 1.639,-0.405 2.139,-1.215 C -0.263,5.817 -0.104,5.412 0,4.938 l -1.478,0 c -0.223,0.699 -0.601,1.049 -1.133,1.049 -0.592,0 -1.016,-0.483 -1.272,-1.45 C -4.054,3.912 -4.14,3.178 -4.14,2.336 c 0,-0.842 0.086,-1.575 0.257,-2.2 0.256,-0.967 0.68,-1.451 1.272,-1.451 0.578,0 0.968,0.438 1.173,1.315 L 0,0 z"
             style="fill:#231f20;fill-opacity:1;fill-rule:nonzero;stroke:none"
             id="path4434" />
        </g>
        <g
           id="g4436"
           transform="translate(112.2299,66.2098)">
          <path
             inkscape:connector-curvature="0"
             d="m 0,0 -1.381,0 0,4.53 -2.761,0 0,-4.53 -1.38,0 0,9.858 1.38,0 0,-3.948 2.761,0 0,3.948 L 0,9.858 0,0 z"
             style="fill:#231f20;fill-opacity:1;fill-rule:nonzero;stroke:none"
             id="path4438" />
        </g>
        <g
           id="g4440"
           transform="translate(124.5746,70.2488)">
          <path
             inkscape:connector-curvature="0"
             d="M 0,0 -0.768,3.207 -1.548,0 0,0 z m 2.386,-4.039 -1.409,0 -0.641,2.658 -2.219,0 -0.64,-2.658 -1.4,0 2.386,9.858 1.537,0 2.386,-9.858 z"
             style="fill:#231f20;fill-opacity:1;fill-rule:nonzero;stroke:none"
             id="path4442" />
        </g>
        <g
           id="g4444"
           transform="translate(132.4809,71.1331)">
          <path
             inkscape:connector-curvature="0"
             d="m 0,0 c 0,2.369 -0.559,3.554 -1.676,3.554 l -1.085,0 0,-7.108 1.085,0 C -0.559,-3.554 0,-2.37 0,0 m 1.381,0.005 c 0,-1.972 -0.388,-3.369 -1.164,-4.19 -0.474,-0.5 -1.032,-0.75 -1.676,-0.75 l -0.217,0 -2.466,0 0,9.87 2.575,0 c 0.643,0 1.196,-0.211 1.656,-0.631 C 0.95,3.515 1.381,2.082 1.381,0.005"
             style="fill:#231f20;fill-opacity:1;fill-rule:nonzero;stroke:none"
             id="path4446" />
        </g>
        <g
           id="g4448"
           transform="translate(139.9731,71.1331)">
          <path
             inkscape:connector-curvature="0"
             d="m 0,0 c 0,2.369 -0.56,3.554 -1.677,3.554 l -1.085,0 0,-7.108 1.085,0 C -0.56,-3.554 0,-2.37 0,0 m 1.38,0.005 c 0,-1.972 -0.388,-3.369 -1.163,-4.19 -0.474,-0.5 -1.032,-0.75 -1.677,-0.75 l -0.217,0 -2.465,0 0,9.87 2.574,0 c 0.644,0 1.196,-0.211 1.657,-0.631 C 0.949,3.515 1.38,2.082 1.38,0.005"
             style="fill:#231f20;fill-opacity:1;fill-rule:nonzero;stroke:none"
             id="path4450" />
        </g>
        <path
           inkscape:connector-curvature="0"
           d="m 144.704,66.21 -1.381,0 0,9.858 1.381,0 0,-9.858 z"
           style="fill:#231f20;fill-opacity:1;fill-rule:nonzero;stroke:none"
           id="path4452" />
        <g
           id="g4454"
           transform="translate(151.1118,74.6873)">
          <path
             inkscape:connector-curvature="0"
             d="m 0,0 -1.821,0 0,-8.478 -1.381,0 0,8.478 -1.825,0 0,1.38 L 0,1.38 0,0 z"
             style="fill:#231f20;fill-opacity:1;fill-rule:nonzero;stroke:none"
             id="path4456" />
        </g>
        <path
           inkscape:connector-curvature="0"
           d="m 153.872,66.21 -1.381,0 0,9.858 1.381,0 0,-9.858 z"
           style="fill:#231f20;fill-opacity:1;fill-rule:nonzero;stroke:none"
           id="path4458" />
        <g
           id="g4460"
           transform="translate(160.2836,71.1385)">
          <path
             inkscape:connector-curvature="0"
             d="m 0,0 c 0,0.842 -0.086,1.576 -0.257,2.201 -0.256,0.966 -0.681,1.45 -1.272,1.45 -0.592,0 -1.016,-0.484 -1.272,-1.45 C -2.973,1.576 -3.058,0.842 -3.058,0 c 0,-0.842 0.085,-1.575 0.257,-2.2 0.256,-0.968 0.68,-1.451 1.272,-1.451 0.591,0 1.016,0.483 1.272,1.451 C -0.086,-1.575 0,-0.842 0,0 m 1.381,0 c 0,-1.21 -0.139,-2.213 -0.415,-3.009 -0.473,-1.349 -1.305,-2.022 -2.495,-2.022 -1.19,0 -2.022,0.673 -2.495,2.022 -0.277,0.796 -0.414,1.799 -0.414,3.009 0,3.354 0.969,5.032 2.909,5.032 1.94,0 2.91,-1.678 2.91,-5.032"
             style="fill:#231f20;fill-opacity:1;fill-rule:nonzero;stroke:none"
             id="path4462" />
        </g>
        <g
           id="g4464"
           transform="translate(169.1518,66.2098)">
          <path
             inkscape:connector-curvature="0"
             d="m 0,0 -1.381,0 -2.761,6.378 0,-6.378 -1.38,0 0,9.858 1.379,0 L -1.382,3.49 -1.381,9.858 0,9.858 0,0 z"
             style="fill:#231f20;fill-opacity:1;fill-rule:nonzero;stroke:none"
             id="path4466" />
        </g>
        <g
           id="g4468"
           transform="translate(174.4545,70.2488)">
          <path
             inkscape:connector-curvature="0"
             d="M 0,0 -0.769,3.207 -1.548,0 0,0 z m 2.386,-4.039 -1.409,0 -0.641,2.658 -2.219,0 -0.64,-2.658 -1.4,0 2.385,9.858 1.538,0 2.386,-9.858 z"
             style="fill:#231f20;fill-opacity:1;fill-rule:nonzero;stroke:none"
             id="path4470" />
        </g>
        <g
           id="g4472"
           transform="translate(183.2463,66.2098)">
          <path
             inkscape:connector-curvature="0"
             d="m 0,0 -5.027,0 0,9.858 1.381,0 0,-8.478 L 0,1.38 0,0 z"
             style="fill:#231f20;fill-opacity:1;fill-rule:nonzero;stroke:none"
             id="path4474" />
        </g>
        <g
           id="g4476"
           transform="translate(195.5783,70.2488)">
          <path
             inkscape:connector-curvature="0"
             d="M 0,0 -0.768,3.207 -1.548,0 0,0 z m 2.386,-4.039 -1.41,0 -0.641,2.658 -2.218,0 -0.64,-2.658 -1.401,0 2.386,9.858 1.538,0 2.386,-9.858 z"
             style="fill:#231f20;fill-opacity:1;fill-rule:nonzero;stroke:none"
             id="path4478" />
        </g>
        <g
           id="g4480"
           transform="translate(204.3713,66.2098)">
          <path
             inkscape:connector-curvature="0"
             d="M 0,0 -1.478,0 -2.908,3.421 -4.338,0 l -1.478,0 2.159,5.175 -1.972,4.683 1.49,0 1.231,-2.938 1.203,2.938 1.479,0 L -2.178,5.175 0,0 z"
             style="fill:#231f20;fill-opacity:1;fill-rule:nonzero;stroke:none"
             id="path4482" />
        </g>
        <g
           id="g4484"
           transform="translate(210.7773,66.2098)">
          <path
             inkscape:connector-curvature="0"
             d="m 0,0 -5.027,0 0,9.858 1.38,0 0,-8.478 L 0,1.38 0,0 z"
             style="fill:#231f20;fill-opacity:1;fill-rule:nonzero;stroke:none"
             id="path4486" />
        </g>
        <g
           id="g4488"
           transform="translate(217.1853,66.1985)">
          <path
             inkscape:connector-curvature="0"
             d="m 0,0 -5.028,0.011 0,9.858 5.028,0 0,-1.38 -3.647,0 0,-2.568 2.168,0 0,-1.38 -2.168,0 0,-3.149 L 0,1.392 0,0 z"
             style="fill:#231f20;fill-opacity:1;fill-rule:nonzero;stroke:none"
             id="path4490" />
        </g>
        <g
           id="g4492"
           transform="translate(228.3833,76.1121)">
          <path
             inkscape:connector-curvature="0"
             d="m 0,0 0,1.44 1.381,0 0,-1.451 c 1.119,-0.243 1.731,-1 1.837,-2.27 l -1.381,0 c 0,0.165 -0.056,0.33 -0.168,0.495 -0.197,0.31 -0.53,0.465 -0.998,0.465 -0.797,0 -1.196,-0.352 -1.196,-1.055 0,-0.389 0.323,-0.777 0.967,-1.164 C 1.404,-4.106 2.006,-4.507 2.25,-4.744 2.894,-5.382 3.218,-6.205 3.218,-7.211 3.218,-7.783 3.089,-8.303 2.832,-8.77 2.503,-9.362 2.019,-9.74 1.381,-9.904 l 0,-1.48 -1.381,0 0,1.421 c -0.808,0.118 -1.412,0.49 -1.813,1.115 -0.328,0.5 -0.492,1.099 -0.492,1.796 l 1.381,0 c 0,-0.573 0.181,-0.998 0.543,-1.275 0.27,-0.197 0.599,-0.296 0.987,-0.296 0.79,0 1.185,0.47 1.185,1.411 0,0.736 -0.318,1.338 -0.956,1.805 -0.592,0.368 -1.187,0.734 -1.784,1.096 -0.638,0.493 -0.956,1.137 -0.956,1.933 0,0.441 0.107,0.858 0.324,1.253 C -1.247,-0.513 -0.721,-0.138 0,0"
             style="fill:#231f20;fill-opacity:1;fill-rule:nonzero;stroke:none"
             id="path4494" />
        </g>
        <g
           id="g4496"
           transform="translate(237.8123,71.1399)">
          <path
             inkscape:connector-curvature="0"
             d="m 0,0 c 0,0.842 -0.086,1.576 -0.257,2.201 -0.257,0.966 -0.681,1.45 -1.273,1.45 -0.591,0 -1.015,-0.484 -1.272,-1.45 C -2.973,1.576 -3.059,0.842 -3.059,0 c 0,-0.842 0.086,-1.575 0.257,-2.2 0.257,-0.967 0.681,-1.451 1.272,-1.451 0.592,0 1.016,0.484 1.273,1.451 C -0.086,-1.575 0,-0.842 0,0 m 1.38,0 c 0,-1.21 -0.138,-2.213 -0.415,-3.009 -0.473,-1.348 -1.304,-2.022 -2.495,-2.022 -1.19,0 -2.021,0.674 -2.495,2.022 -0.276,0.796 -0.414,1.799 -0.414,3.009 0,3.355 0.97,5.032 2.909,5.032 1.94,0 2.91,-1.677 2.91,-5.032"
             style="fill:#231f20;fill-opacity:1;fill-rule:nonzero;stroke:none"
             id="path4498" />
        </g>
        <g
           id="g4500"
           transform="translate(240.4613,66.9017)">
          <path
             inkscape:connector-curvature="0"
             d="M 0,0 C 0,0.218 0.077,0.404 0.232,0.56 0.386,0.715 0.571,0.793 0.787,0.793 1.004,0.793 1.19,0.715 1.344,0.56 1.498,0.404 1.575,0.218 1.575,0 1.575,-0.218 1.498,-0.405 1.344,-0.561 1.19,-0.715 1.004,-0.793 0.787,-0.793 0.571,-0.793 0.386,-0.715 0.232,-0.561 0.077,-0.405 0,-0.218 0,0"
             style="fill:#231f20;fill-opacity:1;fill-rule:nonzero;stroke:none"
             id="path4502" />
        </g>
        <g
           id="g4504"
           transform="translate(248.2683,74.6888)">
          <path
             inkscape:connector-curvature="0"
             d="M 0,0 C -0.586,-0.756 -1.089,-1.554 -1.51,-2.396 -2.511,-4.393 -3.011,-6.42 -3.011,-8.478 l -1.38,0 c 0,2.208 0.45,4.285 1.353,6.23 0.375,0.809 0.826,1.558 1.352,2.248 l -3.835,0 0,1.38 L 0,1.38 0,0 z"
             style="fill:#231f20;fill-opacity:1;fill-rule:nonzero;stroke:none"
             id="path4506" />
        </g>
        <g
           id="g4508"
           transform="translate(255.2463,69.637)">
          <path
             inkscape:connector-curvature="0"
             d="m 0,0 c 0,-1.314 -0.407,-2.273 -1.22,-2.878 -0.592,-0.433 -1.344,-0.65 -2.256,-0.65 -0.717,0 -1.383,0.309 -2,0.928 l 0.965,0.998 c 0,-0.053 0.108,-0.146 0.325,-0.278 0.288,-0.179 0.63,-0.268 1.024,-0.268 0.526,0 0.958,0.213 1.299,0.641 0.322,0.413 0.482,0.912 0.482,1.497 0,0.585 -0.154,1.048 -0.463,1.389 C -2.099,1.675 -2.39,1.823 -2.719,1.823 -3.277,1.829 -3.638,1.641 -3.803,1.257 l -1.447,0.197 0.346,4.978 4.544,0 0,-1.38 -3.185,0 -0.146,-2.111 c 0.275,0.175 0.594,0.262 0.954,0.262 0.834,0 1.507,-0.325 2.018,-0.975 C -0.24,1.623 0,0.88 0,0"
             style="fill:#231f20;fill-opacity:1;fill-rule:nonzero;stroke:none"
             id="path4510" />
        </g>
        <g
           id="g4512"
           transform="translate(91.3168,83.4612)">
          <path
             inkscape:connector-curvature="0"
             d="m 0,0 -5.508,0 c -0.015,0.105 -0.022,0.233 -0.022,0.385 0,1.881 0.607,3.41 1.823,4.587 0.275,0.263 0.641,0.559 1.094,0.888 0.42,0.296 0.693,0.513 0.817,0.651 0.211,0.23 0.316,0.493 0.316,0.789 0,0.29 -0.102,0.559 -0.305,0.809 C -2.041,8.438 -2.389,8.603 -2.828,8.603 -3.359,8.603 -3.733,8.372 -3.95,7.91 -4.068,7.665 -4.127,7.427 -4.127,7.196 l -1.381,0 c 0.013,0.788 0.272,1.45 0.777,1.985 0.505,0.535 1.14,0.802 1.908,0.802 0.8,0 1.462,-0.282 1.986,-0.847 C -0.346,8.61 -0.1,7.996 -0.1,7.293 -0.1,6.695 -0.251,6.19 -0.553,5.775 -0.757,5.5 -1.085,5.217 -1.539,4.928 -2.064,4.593 -2.39,4.363 -2.515,4.238 -3.421,3.345 -3.934,2.392 -4.052,1.38 L 0,1.38 0,0 z"
             style="fill:#231f20;fill-opacity:1;fill-rule:nonzero;stroke:none"
             id="path4514" />
        </g>
        <g
           id="g4516"
           transform="translate(103.7123,87.5003)">
          <path
             inkscape:connector-curvature="0"
             d="M 0,0 -0.768,3.207 -1.548,0 0,0 z m 2.386,-4.039 -1.41,0 -0.641,2.658 -2.218,0 -0.64,-2.658 -1.401,0 2.386,9.858 1.538,0 2.386,-9.858 z"
             style="fill:#231f20;fill-opacity:1;fill-rule:nonzero;stroke:none"
             id="path4518" />
        </g>
        <g
           id="g4520"
           transform="translate(112.5053,83.4612)">
          <path
             inkscape:connector-curvature="0"
             d="m 0,0 -1.478,0 -1.43,3.42 -1.43,-3.42 -1.478,0 2.159,5.175 -1.972,4.683 1.488,0 1.233,-2.938 1.203,2.938 1.478,0 L -2.179,5.175 0,0 z"
             style="fill:#231f20;fill-opacity:1;fill-rule:nonzero;stroke:none"
             id="path4522" />
        </g>
        <g
           id="g4524"
           transform="translate(118.9116,83.4612)">
          <path
             inkscape:connector-curvature="0"
             d="m 0,0 -5.027,0 0,9.858 1.379,0 0,-8.478 L 0,1.38 0,0 z"
             style="fill:#231f20;fill-opacity:1;fill-rule:nonzero;stroke:none"
             id="path4526" />
        </g>
        <g
           id="g4528"
           transform="translate(125.3188,83.4495)">
          <path
             inkscape:connector-curvature="0"
             d="m 0,0 -5.027,0.012 0,9.858 5.027,0 0,-1.381 -3.646,0 0,-2.567 2.168,0 0,-1.381 -2.168,0 0,-3.149 L 0,1.392 0,0 z"
             style="fill:#231f20;fill-opacity:1;fill-rule:nonzero;stroke:none"
             id="path4530" />
        </g>
        <g
           id="g4532"
           transform="translate(132.0258,86.1507)">
          <path
             inkscape:connector-curvature="0"
             d="m 0,0 c 0,-0.697 -0.181,-1.299 -0.542,-1.806 -0.467,-0.657 -1.157,-0.987 -2.07,-0.987 -1.027,0 -1.792,0.33 -2.298,0.988 -0.408,0.52 -0.611,1.175 -0.611,1.965 l 1.379,0 c 0,-0.574 0.182,-0.998 0.543,-1.275 0.271,-0.198 0.6,-0.297 0.989,-0.297 0.789,0 1.184,0.471 1.184,1.411 0,0.737 -0.318,1.339 -0.956,1.806 -0.592,0.368 -1.186,0.733 -1.784,1.095 -0.638,0.493 -0.956,1.138 -0.956,1.934 0,0.519 0.143,0.997 0.434,1.431 0.446,0.671 1.162,1.006 2.147,1.006 1.037,0 1.773,-0.388 2.206,-1.165 C -0.157,5.783 -0.046,5.391 0,4.931 l -1.38,0 c 0,0.165 -0.056,0.329 -0.168,0.494 -0.198,0.31 -0.53,0.466 -0.998,0.466 -0.798,0 -1.196,-0.352 -1.196,-1.056 0,-0.388 0.323,-0.776 0.968,-1.165 0.96,-0.565 1.563,-0.966 1.807,-1.203 C -0.322,1.829 0,1.006 0,0"
             style="fill:#231f20;fill-opacity:1;fill-rule:nonzero;stroke:none"
             id="path4534" />
        </g>
      </g>
    </g>
  </g>
</svg>
