<?xml version="1.0" encoding="UTF-8" standalone="no"?>
<!-- Created with Inkscape (http://www.inkscape.org/) -->

<svg
   xmlns:dc="http://purl.org/dc/elements/1.1/"
   xmlns:cc="http://creativecommons.org/ns#"
   xmlns:rdf="http://www.w3.org/1999/02/22-rdf-syntax-ns#"
   xmlns:svg="http://www.w3.org/2000/svg"
   xmlns="http://www.w3.org/2000/svg"
   xmlns:sodipodi="http://sodipodi.sourceforge.net/DTD/sodipodi-0.dtd"
   xmlns:inkscape="http://www.inkscape.org/namespaces/inkscape"
   width="71.034622"
   height="53.435001"
   id="svg4973"
   version="1.1"
   inkscape:version="0.48.2 r9819"
   sodipodi:docname="New document 13">
  <defs
     id="defs4975">
    <clipPath
       clipPathUnits="userSpaceOnUse"
       id="clipPath4306">
      <path
         inkscape:connector-curvature="0"
         d="M 27.125,32 540,32 l 0,120 -512.875,0 0,-120 z"
         id="path4308" />
    </clipPath>
    <clipPath
       clipPathUnits="userSpaceOnUse"
       id="clipPath4294">
      <path
         inkscape:connector-curvature="0"
         d="m 76.172,42.445 414.78,0 0,109.555 -414.78,0 0,-109.555 z"
         id="path4296" />
    </clipPath>
    <clipPath
       clipPathUnits="userSpaceOnUse"
       id="clipPath4282">
      <path
         inkscape:connector-curvature="0"
         d="M 27.125,32 540,32 l 0,120 -512.875,0 0,-120 z"
         id="path4284" />
    </clipPath>
  </defs>
  <sodipodi:namedview
     id="base"
     pagecolor="#ffffff"
     bordercolor="#666666"
     borderopacity="1.0"
     inkscape:pageopacity="0.0"
     inkscape:pageshadow="2"
     inkscape:zoom="0.35"
     inkscape:cx="96.231595"
     inkscape:cy="41.003217"
     inkscape:document-units="px"
     inkscape:current-layer="layer1"
     showgrid="false"
     fit-margin-top="0"
     fit-margin-left="0"
     fit-margin-right="0"
     fit-margin-bottom="0"
     inkscape:window-width="469"
     inkscape:window-height="425"
     inkscape:window-x="1391"
     inkscape:window-y="25"
     inkscape:window-maximized="0" />
  <metadata
     id="metadata4978">
    <rdf:RDF>
      <cc:Work
         rdf:about="">
        <dc:format>image/svg+xml</dc:format>
        <dc:type
           rdf:resource="http://purl.org/dc/dcmitype/StillImage" />
        <dc:title></dc:title>
      </cc:Work>
    </rdf:RDF>
  </metadata>
  <g
     inkscape:label="Layer 1"
     inkscape:groupmode="layer"
     id="layer1"
     transform="translate(-278.7684,-519.9304)">
    <g
       transform="matrix(1.25,0,0,-1.25,-263.88697,644.00665)"
       id="g4278">
      <g
         id="g4280"
         clip-path="url(#clipPath4282)">
        <g
           id="g4286"
           transform="translate(488.3573,60.284)">
          <path
             inkscape:connector-curvature="0"
             d="m 0,0 c 0,-0.648 -0.526,-1.174 -1.176,-1.174 l -49.287,0 c -0.649,0 -1.174,0.526 -1.174,1.174 l 0,35.207 c 0,0.646 0.525,1.174 1.174,1.174 l 49.287,0 C -0.526,36.381 0,35.853 0,35.207 L 0,0 z m -1.176,37.847 -49.287,0 c -1.455,0 -2.641,-1.184 -2.641,-2.64 l 0,-35.207 c 0,-1.456 1.186,-2.641 2.641,-2.641 l 49.287,0 c 1.457,0 2.642,1.185 2.642,2.641 l 0,35.207 c 0,1.456 -1.185,2.64 -2.642,2.64"
             style="fill:#231f20;fill-opacity:1;fill-rule:nonzero;stroke:none"
             id="path4288" />
        </g>
      </g>
    </g>
    <g
       transform="matrix(1.25,0,0,-1.25,-263.88697,644.00665)"
       id="g4290">
      <g
         id="g4292"
         clip-path="url(#clipPath4294)">
        <g
           id="g4298"
           transform="translate(490.7023,60.284)">
          <path
             inkscape:connector-curvature="0"
             d="m 0,0 c 0,-1.943 -1.574,-3.521 -3.521,-3.521 l -49.287,0 c -1.948,0 -3.52,1.578 -3.52,3.521 l 0,35.207 c 0,1.943 1.572,3.52 3.52,3.52 l 49.287,0 C -1.574,38.727 0,37.15 0,35.207 L 0,0 z"
             style="fill:none;stroke:#231f20;stroke-width:0.5;stroke-linecap:butt;stroke-linejoin:miter;stroke-miterlimit:4;stroke-opacity:1;stroke-dasharray:none"
             id="path4300" />
        </g>
      </g>
    </g>
    <g
       transform="matrix(1.25,0,0,-1.25,-263.88697,644.00665)"
       id="g4302">
      <g
         id="g4304"
         clip-path="url(#clipPath4306)">
        <g
           id="g4310"
           transform="translate(454.9463,89.4774)">
          <path
             inkscape:connector-curvature="0"
             d="m 0,0 -1.73,0 0,-8.069 -1.322,0 0,8.069 -1.735,0 0,1.32 L 0,1.32 0,0 z"
             style="fill:#231f20;fill-opacity:1;fill-rule:nonzero;stroke:none"
             id="path4312" />
        </g>
        <g
           id="g4314"
           transform="translate(459.2473,85.2586)">
          <path
             inkscape:connector-curvature="0"
             d="M 0,0 -0.732,3.051 -1.474,0 0,0 z m 2.272,-3.851 -1.342,0 -0.609,2.531 -2.114,0 -0.609,-2.531 -1.334,0 2.271,9.39 1.465,0 2.272,-9.39 z"
             style="fill:#231f20;fill-opacity:1;fill-rule:nonzero;stroke:none"
             id="path4316" />
        </g>
        <g
           id="g4318"
           transform="translate(468.0853,81.4081)">
          <path
             inkscape:connector-curvature="0"
             d="m 0,0 -1.377,0 -1.555,4.489 -1.005,-1.738 0,-2.751 -1.319,0 0,9.39 1.319,0 0,-3.998 2.304,3.998 1.522,0 L -2.072,5.99 0,0 z"
             style="fill:#231f20;fill-opacity:1;fill-rule:nonzero;stroke:none"
             id="path4320" />
        </g>
        <g
           id="g4322"
           transform="translate(474.4703,81.3963)">
          <path
             inkscape:connector-curvature="0"
             d="m 0,0 -4.789,0.012 0,9.389 4.789,0 0,-1.32 -3.467,0 0,-2.435 2.059,0 0,-1.319 -2.059,0 0,-2.993 L 0,1.334 0,0 z"
             style="fill:#231f20;fill-opacity:1;fill-rule:nonzero;stroke:none"
             id="path4324" />
        </g>
        <g
           id="g4326"
           transform="translate(450.4873,73.0555)">
          <path
             inkscape:connector-curvature="0"
             d="m 0,0 -1.738,0 0,-8.076 -1.314,0 0,8.076 -1.735,0 0,1.31 L 0,1.31 0,0 z"
             style="fill:#231f20;fill-opacity:1;fill-rule:nonzero;stroke:none"
             id="path4328" />
        </g>
        <path
           inkscape:connector-curvature="0"
           d="m 453.122,64.979 -1.312,0 0,9.387 1.312,0 0,-9.387 z"
           style="fill:#231f20;fill-opacity:1;fill-rule:nonzero;stroke:none"
           id="path4330" />
        <g
           id="g4332"
           transform="translate(460.2493,67.4471)">
          <path
             inkscape:connector-curvature="0"
             d="m 0,0 c -0.084,-0.501 -0.228,-0.929 -0.42,-1.279 -0.463,-0.859 -1.15,-1.287 -2.064,-1.287 -1.133,0 -1.926,0.641 -2.375,1.926 -0.268,0.758 -0.397,1.711 -0.397,2.866 0,3.193 0.922,4.791 2.772,4.791 0.879,0 1.558,-0.383 2.033,-1.151 C -0.25,5.545 -0.098,5.161 0,4.712 l -1.406,0 c -0.213,0.662 -0.572,0.994 -1.082,0.994 -0.563,0 -0.969,-0.461 -1.213,-1.383 -0.16,-0.597 -0.244,-1.296 -0.244,-2.097 0,-0.803 0.084,-1.501 0.244,-2.098 0.244,-0.922 0.65,-1.383 1.213,-1.383 0.553,0 0.924,0.42 1.119,1.255 L 0,0 z"
             style="fill:#231f20;fill-opacity:1;fill-rule:nonzero;stroke:none"
             id="path4334" />
        </g>
        <g
           id="g4336"
           transform="translate(467.3843,64.9793)">
          <path
             inkscape:connector-curvature="0"
             d="m 0,0 -1.377,0 -1.561,4.488 -1.003,-1.738 0,-2.75 -1.315,0 0,9.387 1.315,0 0,-3.997 2.308,3.997 1.522,0 L -2.072,5.988 0,0 z"
             style="fill:#231f20;fill-opacity:1;fill-rule:nonzero;stroke:none"
             id="path4338" />
        </g>
        <g
           id="g4340"
           transform="translate(473.7693,64.9695)">
          <path
             inkscape:connector-curvature="0"
             d="m 0,0 -4.787,0.01 0,9.386 4.787,0 0,-1.31 -3.475,0 0,-2.445 2.066,0 0,-1.314 -2.066,0 0,-3.007 L 0,1.32 0,0 z"
             style="fill:#231f20;fill-opacity:1;fill-rule:nonzero;stroke:none"
             id="path4342" />
        </g>
        <g
           id="g4344"
           transform="translate(479.4033,73.0555)">
          <path
             inkscape:connector-curvature="0"
             d="m 0,0 -1.738,0 0,-8.076 -1.314,0 0,8.076 -1.737,0 0,1.31 L 0,1.31 0,0 z"
             style="fill:#231f20;fill-opacity:1;fill-rule:nonzero;stroke:none"
             id="path4346" />
        </g>
      </g>
    </g>
  </g>
</svg>
