<?xml version="1.0" encoding="UTF-8" standalone="no"?>
<!-- Created with Inkscape (http://www.inkscape.org/) -->

<svg
   xmlns:dc="http://purl.org/dc/elements/1.1/"
   xmlns:cc="http://creativecommons.org/ns#"
   xmlns:rdf="http://www.w3.org/1999/02/22-rdf-syntax-ns#"
   xmlns:svg="http://www.w3.org/2000/svg"
   xmlns="http://www.w3.org/2000/svg"
   xmlns:sodipodi="http://sodipodi.sourceforge.net/DTD/sodipodi-0.dtd"
   xmlns:inkscape="http://www.inkscape.org/namespaces/inkscape"
   width="416.89749"
   height="47.927502"
   id="svg6949"
   version="1.1"
   inkscape:version="0.48.2 r9819"
   sodipodi:docname="New document 23">
  <defs
     id="defs6951" />
  <sodipodi:namedview
     id="base"
     pagecolor="#ffffff"
     bordercolor="#666666"
     borderopacity="1.0"
     inkscape:pageopacity="0.0"
     inkscape:pageshadow="2"
     inkscape:zoom="0.35"
     inkscape:cx="292.02018"
     inkscape:cy="-16.036253"
     inkscape:document-units="px"
     inkscape:current-layer="layer1"
     showgrid="false"
     fit-margin-top="0"
     fit-margin-left="0"
     fit-margin-right="0"
     fit-margin-bottom="0"
     inkscape:window-width="469"
     inkscape:window-height="425"
     inkscape:window-x="1416"
     inkscape:window-y="50"
     inkscape:window-maximized="0" />
  <metadata
     id="metadata6954">
    <rdf:RDF>
      <cc:Work
         rdf:about="">
        <dc:format>image/svg+xml</dc:format>
        <dc:type
           rdf:resource="http://purl.org/dc/dcmitype/StillImage" />
        <dc:title></dc:title>
      </cc:Work>
    </rdf:RDF>
  </metadata>
  <g
     inkscape:label="Layer 1"
     inkscape:groupmode="layer"
     id="layer1"
     transform="translate(-82.97982,-468.39843)">
    <g
       id="g5530"
       transform="matrix(1.25,0,0,-1.25,499.56482,511.28468)">
      <path
         inkscape:connector-curvature="0"
         d="m 0,0 c 0,-2.08 -1.704,-3.783 -3.784,-3.783 l -325.45,0 c -2.081,0 -3.784,1.703 -3.784,3.783 l 0,30.275 c 0,2.08 1.703,3.784 3.784,3.784 l 325.45,0 C -1.704,34.059 0,32.355 0,30.275 L 0,0 z"
         style="fill:#fccf34;fill-opacity:1;fill-rule:nonzero;stroke:none"
         id="path5532" />
    </g>
    <g
       id="g5534"
       transform="matrix(1.25,0,0,-1.25,499.56482,511.28468)">
      <path
         inkscape:connector-curvature="0"
         d="m 0,0 c 0,-2.08 -1.704,-3.783 -3.784,-3.783 l -325.45,0 c -2.081,0 -3.784,1.703 -3.784,3.783 l 0,30.275 c 0,2.08 1.703,3.784 3.784,3.784 l 325.45,0 C -1.704,34.059 0,32.355 0,30.275 L 0,0 z"
         style="fill:none;stroke:#231f20;stroke-width:0.5;stroke-linecap:butt;stroke-linejoin:miter;stroke-miterlimit:4;stroke-opacity:1;stroke-dasharray:none"
         id="path5536" />
    </g>
    <g
       id="g5538"
       transform="matrix(1.25,0,0,-1.25,496.40982,511.28468)">
      <path
         inkscape:connector-curvature="0"
         d="M 0,0 C 0,-0.337 -0.127,-0.645 -0.371,-0.888 -0.615,-1.133 -0.924,-1.261 -1.26,-1.261 l -325.45,0 c -0.337,0 -0.644,0.128 -0.889,0.373 -0.243,0.243 -0.372,0.551 -0.372,0.888 l 0,30.275 c 0,0.337 0.129,0.645 0.372,0.889 0.245,0.244 0.552,0.372 0.889,0.372 l 325.45,0 c 0.336,0 0.645,-0.128 0.889,-0.372 C -0.127,30.92 0,30.612 0,30.275 L 0,0 z m 0.967,32.502 c -0.598,0.597 -1.389,0.925 -2.227,0.925 l -325.45,0 c -0.838,0 -1.629,-0.328 -2.226,-0.925 -0.598,-0.598 -0.927,-1.389 -0.927,-2.227 l 0,-30.275 c 0,-0.838 0.329,-1.629 0.927,-2.227 0.597,-0.597 1.388,-0.927 2.226,-0.927 l 325.45,0 c 0.838,0 1.629,0.33 2.227,0.927 0.598,0.598 0.926,1.389 0.926,2.227 l 0,30.275 c 0,0.838 -0.328,1.629 -0.926,2.227"
         style="fill:#231f20;fill-opacity:1;fill-rule:nonzero;stroke:none"
         id="path5540" />
    </g>
    <g
       id="g5542"
       transform="matrix(1.25,0,0,-1.25,269.60607,487.61593)">
      <path
         inkscape:connector-curvature="0"
         d="m 0,0 -2.125,-5.099 4.248,0 L 0,0 z m 4.777,-11.367 -1.486,3.559 -6.584,0 -1.487,-3.559 -2.973,0 6.372,15.139 2.761,0 6.319,-15.139 -2.922,0 z"
         style="fill:#231f20;fill-opacity:1;fill-rule:nonzero;stroke:none"
         id="path5544" />
    </g>
    <g
       id="g5546"
       transform="matrix(1.25,0,0,-1.25,210.54733,487.61593)">
      <path
         inkscape:connector-curvature="0"
         d="m 0,0 -2.124,-5.099 4.248,0 L 0,0 z m 4.778,-11.367 -1.486,3.559 -6.584,0 -1.488,-3.559 -2.972,0 6.371,15.139 2.761,0 6.319,-15.139 -2.921,0 z"
         style="fill:#231f20;fill-opacity:1;fill-rule:nonzero;stroke:none"
         id="path5548" />
    </g>
    <g
       id="g5550"
       transform="matrix(1.25,0,0,-1.25,352.70358,487.61593)">
      <path
         inkscape:connector-curvature="0"
         d="m 0,0 -2.123,-5.099 4.246,0 L 0,0 z m 4.78,-11.367 -1.489,3.559 -6.584,0 -1.486,-3.559 -2.973,0 6.371,15.139 2.762,0 6.318,-15.139 -2.919,0 z"
         style="fill:#231f20;fill-opacity:1;fill-rule:nonzero;stroke:none"
         id="path5552" />
    </g>
    <g
       id="g5554"
       transform="matrix(1.25,0,0,-1.25,291.61495,487.01844)">
      <path
         inkscape:connector-curvature="0"
         d="m 0,0 c -0.689,0.372 -1.484,0.585 -2.281,0.585 l -2.295,0 0,-9.72 2.295,0 c 0.797,0 1.539,0.212 2.176,0.583 1.591,0.851 2.334,2.233 2.334,4.303 C 2.229,-2.23 1.486,-0.849 0,0 m 1.274,-10.941 c -1.061,-0.585 -2.334,-0.904 -3.555,-0.904 l -5.055,0 0,15.139 5.055,0 c 1.273,0 2.494,-0.32 3.607,-0.957 2.334,-1.327 3.608,-3.612 3.608,-6.586 0,-3.028 -1.274,-5.364 -3.66,-6.692"
         style="fill:#231f20;fill-opacity:1;fill-rule:nonzero;stroke:none"
         id="path5556" />
    </g>
    <g
       id="g5558"
       transform="matrix(1.25,0,0,-1.25,243.64232,501.82468)">
      <path
         inkscape:connector-curvature="0"
         d="m 0,0 0,15.139 11.087,0 0,-2.709 -8.315,0 0,-2.815 4.53,0 0,-2.762 -4.53,0 0,-4.143 8.581,0 0,-2.71 L 0,0 z"
         style="fill:#231f20;fill-opacity:1;fill-rule:nonzero;stroke:none"
         id="path5560" />
    </g>
    <g
       id="g5562"
       transform="matrix(1.25,0,0,-1.25,439.17107,501.82468)">
      <path
         inkscape:connector-curvature="0"
         d="m 0,0 0,15.139 2.719,0 0,-12.801 8.635,0 L 11.354,0 0,0 z"
         style="fill:#231f20;fill-opacity:1;fill-rule:nonzero;stroke:none"
         id="path5564" />
    </g>
    <g
       id="g5566"
       transform="matrix(1.25,0,0,-1.25,456.5812,501.82468)">
      <path
         inkscape:connector-curvature="0"
         d="m 0,0 0,15.139 2.717,0 0,-12.801 8.634,0 L 11.351,0 0,0 z"
         style="fill:#231f20;fill-opacity:1;fill-rule:nonzero;stroke:none"
         id="path5568" />
    </g>
    <g
       id="g5570"
       transform="matrix(1.25,0,0,-1.25,154.39457,485.95594)">
      <path
         inkscape:connector-curvature="0"
         d="m 0,0 c -2.289,0 -3.673,-1.912 -3.673,-5.099 0,-3.24 1.384,-5.153 3.673,-5.153 2.875,0 3.567,2.817 3.567,5.153 C 3.567,-1.912 2.289,0 0,0 m 0,-12.961 c -4.471,0 -6.44,4.038 -6.44,7.862 0,4.834 2.448,7.808 6.44,7.808 3.727,0 6.282,-3.134 6.282,-7.755 0,-4.727 -2.449,-7.915 -6.282,-7.915"
         style="fill:#231f20;fill-opacity:1;fill-rule:nonzero;stroke:none"
         id="path5572" />
    </g>
    <g
       id="g5574"
       transform="matrix(1.25,0,0,-1.25,426.96857,485.95594)">
      <path
         inkscape:connector-curvature="0"
         d="m 0,0 c -2.289,0 -3.673,-1.912 -3.673,-5.099 0,-3.24 1.384,-5.153 3.673,-5.153 2.875,0 3.567,2.817 3.567,5.153 C 3.567,-1.912 2.289,0 0,0 m 0,-12.961 c -4.472,0 -6.441,4.038 -6.441,7.862 0,4.834 2.449,7.808 6.441,7.808 3.725,0 6.282,-3.134 6.282,-7.755 0,-4.727 -2.45,-7.915 -6.282,-7.915"
         style="fill:#231f20;fill-opacity:1;fill-rule:nonzero;stroke:none"
         id="path5576" />
    </g>
    <g
       id="g5578"
       transform="matrix(1.25,0,0,-1.25,175.76357,486.28719)">
      <path
         inkscape:connector-curvature="0"
         d="m 0,0 -4.571,0 0,-3.772 4.571,0 c 1.328,0 2.23,0.744 2.23,1.86 C 2.23,-0.744 1.328,0 0,0 M 2.601,-5.897 C 1.751,-6.374 1.062,-6.481 -0.106,-6.481 l -4.465,0 0,-5.949 -2.761,0 0,15.139 7.226,0 c 1.168,0 1.857,-0.16 2.707,-0.638 1.434,-0.797 2.336,-2.284 2.336,-3.983 0,-1.594 -0.902,-3.188 -2.336,-3.985"
         style="fill:#231f20;fill-opacity:1;fill-rule:nonzero;stroke:none"
         id="path5580" />
    </g>
    <g
       id="g5582"
       transform="matrix(1.25,0,0,-1.25,335.32857,486.28719)">
      <path
         inkscape:connector-curvature="0"
         d="m 0,0 -4.57,0 0,-3.772 4.57,0 c 1.328,0 2.23,0.744 2.23,1.86 C 2.23,-0.744 1.328,0 0,0 M 2.601,-5.897 C 1.752,-6.374 1.062,-6.481 -0.106,-6.481 l -4.464,0 0,-5.949 -2.762,0 0,15.139 7.226,0 c 1.168,0 1.858,-0.16 2.707,-0.638 1.434,-0.797 2.336,-2.284 2.336,-3.983 0,-1.594 -0.902,-3.188 -2.336,-3.985"
         style="fill:#231f20;fill-opacity:1;fill-rule:nonzero;stroke:none"
         id="path5584" />
    </g>
    <g
       id="g5586"
       transform="matrix(1.25,0,0,-1.25,119.14057,493.33344)">
      <path
         inkscape:connector-curvature="0"
         d="m 0,0 c -0.674,0.187 -2.368,0.594 -2.939,0.929 -1.14,0.668 -2.011,1.761 -2.011,3.38 0,2.496 2.134,4.195 5.227,4.195 2.241,0 4.108,-0.743 5.655,-2.336 L 3.904,4.361 c -0.96,1.01 -2.186,1.488 -3.627,1.488 -1.547,0 -2.454,-0.584 -2.454,-1.54 0,-0.85 0.534,-1.222 2.401,-1.647 2.027,-0.425 3.361,-0.849 4.215,-1.275 1.332,-0.69 2.186,-2.124 2.186,-3.771 0,-1.54 -0.693,-2.708 -2.134,-3.558 -1.066,-0.638 -2.454,-1.009 -3.84,-1.009 -2.614,0 -4.588,0.956 -6.294,2.921 l 2.186,1.7 c 1.121,-1.328 2.348,-1.912 4.055,-1.912 1.92,0 3.306,0.85 3.306,1.965 C 3.904,-0.857 2.359,-0.65 0,0"
         style="fill:#231f20;fill-opacity:1;fill-rule:nonzero;stroke:none"
         id="path5588" />
    </g>
    <g
       id="g5590"
       transform="matrix(1.25,0,0,-1.25,138.25682,486.22093)">
      <path
         inkscape:connector-curvature="0"
         d="m 0,0 0,-12.483 -2.652,0 0,12.483 -4.351,0 0,2.656 11.353,0 L 4.35,0 0,0 z"
         style="fill:#231f20;fill-opacity:1;fill-rule:nonzero;stroke:none"
         id="path5592" />
    </g>
    <g
       id="g5594"
       transform="matrix(1.25,0,0,-1.25,410.8287,486.22093)">
      <path
         inkscape:connector-curvature="0"
         d="m 0,0 0,-12.483 -2.65,0 0,12.483 -4.352,0 0,2.656 11.354,0 L 4.352,0 0,0 z"
         style="fill:#231f20;fill-opacity:1;fill-rule:nonzero;stroke:none"
         id="path5596" />
    </g>
    <g
       id="g5598"
       transform="matrix(1.25,0,0,-1.25,375.18982,494.12219)">
      <path
         inkscape:connector-curvature="0"
         d="m 0,0 0,-6.162 -2.708,0 0,6.162 -6.371,8.977 3.344,0 4.408,-6.162 4.354,6.162 3.346,0 L 0,0 z"
         style="fill:#231f20;fill-opacity:1;fill-rule:nonzero;stroke:none"
         id="path5600" />
    </g>
    <path
       inkscape:connector-curvature="0"
       d="m 307.66545,490.80381 9.46,0 0,3.385 -9.46,0 0,-3.385 z"
       style="fill:#231f20;fill-opacity:1;fill-rule:nonzero;stroke:none"
       id="path5602" />
    <g
       id="g5604"
       transform="matrix(1.25,0,0,-1.25,235.32232,501.82468)">
      <path
         inkscape:connector-curvature="0"
         d="m 0,0 0,6.587 -6.828,0 0,-6.587 -2.72,0 0,15.139 2.72,0 0,-5.844 6.828,0 0,5.844 2.721,0 L 2.721,0 0,0 z"
         style="fill:#231f20;fill-opacity:1;fill-rule:nonzero;stroke:none"
         id="path5606" />
    </g>
  </g>
</svg>
