<?xml version="1.0" encoding="UTF-8" standalone="no"?>
<!-- Created with Inkscape (http://www.inkscape.org/) -->

<svg
   xmlns:dc="http://purl.org/dc/elements/1.1/"
   xmlns:cc="http://creativecommons.org/ns#"
   xmlns:rdf="http://www.w3.org/1999/02/22-rdf-syntax-ns#"
   xmlns:svg="http://www.w3.org/2000/svg"
   xmlns="http://www.w3.org/2000/svg"
   xmlns:sodipodi="http://sodipodi.sourceforge.net/DTD/sodipodi-0.dtd"
   xmlns:inkscape="http://www.inkscape.org/namespaces/inkscape"
   width="90.243477"
   height="90.285561"
   id="svg3894"
   version="1.1"
   inkscape:version="0.48.2 r9819"
   sodipodi:docname="New document 7">
  <defs
     id="defs3896">
    <clipPath
       clipPathUnits="userSpaceOnUse"
       id="clipPath3391">
      <path
         inkscape:connector-curvature="0"
         d="m 331.038,208.117 244.462,0 0,529.383 -244.462,0 0,-529.383 z"
         id="path3393" />
    </clipPath>
  </defs>
  <sodipodi:namedview
     id="base"
     pagecolor="#ffffff"
     bordercolor="#666666"
     borderopacity="1.0"
     inkscape:pageopacity="0.0"
     inkscape:pageshadow="2"
     inkscape:zoom="0.35"
     inkscape:cx="97.259749"
     inkscape:cy="-331.99145"
     inkscape:document-units="px"
     inkscape:current-layer="layer1"
     showgrid="false"
     fit-margin-top="0"
     fit-margin-left="0"
     fit-margin-right="0"
     fit-margin-bottom="0"
     inkscape:window-width="1366"
     inkscape:window-height="706"
     inkscape:window-x="-8"
     inkscape:window-y="-8"
     inkscape:window-maximized="1" />
  <metadata
     id="metadata3899">
    <rdf:RDF>
      <cc:Work
         rdf:about="">
        <dc:format>image/svg+xml</dc:format>
        <dc:type
           rdf:resource="http://purl.org/dc/dcmitype/StillImage" />
        <dc:title></dc:title>
      </cc:Work>
    </rdf:RDF>
  </metadata>
  <g
     inkscape:label="Layer 1"
     inkscape:groupmode="layer"
     id="layer1"
     transform="translate(-277.74025,-110.08517)">
    <g
       transform="matrix(1.25,0,0,-1.25,-243.40473,964.85348)"
       id="g3387">
      <g
         id="g3389"
         clip-path="url(#clipPath3391)">
        <g
           id="g3395"
           transform="translate(418.404,651.0862)">
          <path
             inkscape:connector-curvature="0"
             d="m 0,0 31.227,31.227 c 1.856,1.859 4.898,1.859 6.757,0 L 69.211,0 c 1.859,-1.858 1.859,-4.9 0,-6.758 L 37.984,-37.984 c -1.859,-1.86 -4.901,-1.86 -6.757,0 L 0,-6.758 C -1.859,-4.9 -1.859,-1.858 0,0"
             style="fill:#231f20;fill-opacity:1;fill-rule:nonzero;stroke:none"
             id="path3397" />
        </g>
        <g
           id="g3399"
           transform="translate(418.404,651.0862)">
          <path
             inkscape:connector-curvature="0"
             d="m 0,0 31.227,31.227 c 1.856,1.859 4.898,1.859 6.757,0 L 69.211,0 c 1.859,-1.858 1.859,-4.9 0,-6.758 L 37.984,-37.984 c -1.859,-1.86 -4.901,-1.86 -6.757,0 L 0,-6.758 C -1.859,-4.9 -1.859,-1.858 0,0 z"
             style="fill:none;stroke:#231f20;stroke-width:0.21600001;stroke-linecap:butt;stroke-linejoin:miter;stroke-miterlimit:2.61299992;stroke-opacity:1;stroke-dasharray:none"
             id="path3401" />
        </g>
        <g
           id="g3403"
           transform="translate(427.0231,650.8544)">
          <path
             inkscape:connector-curvature="0"
             d="m 0,0 c 1.744,1.743 4.588,1.743 6.331,0 1.744,-1.744 1.744,-4.588 0,-6.331 C 4.588,-8.075 1.744,-8.075 0,-6.331 -1.743,-4.588 -1.743,-1.744 0,0"
             style="fill:#fccf34;fill-opacity:1;fill-rule:evenodd;stroke:none"
             id="path3405" />
        </g>
        <g
           id="g3407"
           transform="translate(438.5255,662.3671)">
          <path
             inkscape:connector-curvature="0"
             d="m 0,0 c 1.744,1.743 4.587,1.743 6.33,0 1.744,-1.743 1.744,-4.587 0,-6.331 C 4.587,-8.074 1.744,-8.074 0,-6.331 -1.745,-4.587 -1.745,-1.743 0,0"
             style="fill:#fccf34;fill-opacity:1;fill-rule:evenodd;stroke:none"
             id="path3409" />
        </g>
        <g
           id="g3411"
           transform="translate(449.9135,673.7455)">
          <path
             inkscape:connector-curvature="0"
             d="m 0,0 c 1.742,1.743 4.587,1.743 6.329,0 1.744,-1.743 1.744,-4.587 0,-6.331 C 4.587,-8.074 1.742,-8.074 0,-6.331 -1.744,-4.587 -1.744,-1.743 0,0"
             style="fill:#fccf34;fill-opacity:1;fill-rule:evenodd;stroke:none"
             id="path3413" />
        </g>
        <g
           id="g3415"
           transform="translate(438.5405,639.2693)">
          <path
             inkscape:connector-curvature="0"
             d="m 0,0 c 1.744,1.742 4.588,1.742 6.332,0 1.742,-1.744 1.742,-4.588 0,-6.332 C 4.588,-8.075 1.744,-8.075 0,-6.332 -1.743,-4.588 -1.743,-1.744 0,0"
             style="fill:#fccf34;fill-opacity:1;fill-rule:evenodd;stroke:none"
             id="path3417" />
        </g>
        <g
           id="g3419"
           transform="translate(449.9295,650.847)">
          <path
             inkscape:connector-curvature="0"
             d="m 0,0 c 1.743,1.743 4.587,1.743 6.331,0 1.743,-1.743 1.743,-4.587 0,-6.331 C 4.587,-8.074 1.743,-8.074 0,-6.331 -1.744,-4.587 -1.744,-1.743 0,0"
             style="fill:#fccf34;fill-opacity:1;fill-rule:evenodd;stroke:none"
             id="path3421" />
        </g>
        <g
           id="g3423"
           transform="translate(461.4205,662.184)">
          <path
             inkscape:connector-curvature="0"
             d="m 0,0 c 1.743,1.744 4.588,1.744 6.331,0 1.743,-1.743 1.743,-4.587 0,-6.33 C 4.588,-8.074 1.743,-8.074 0,-6.33 -1.744,-4.587 -1.744,-1.743 0,0"
             style="fill:#fccf34;fill-opacity:1;fill-rule:evenodd;stroke:none"
             id="path3425" />
        </g>
        <g
           id="g3427"
           transform="translate(449.8535,628.0209)">
          <path
             inkscape:connector-curvature="0"
             d="m 0,0 c 1.744,1.745 4.587,1.745 6.331,0 1.743,-1.744 1.743,-4.587 0,-6.33 C 4.587,-8.074 1.744,-8.074 0,-6.33 -1.744,-4.587 -1.744,-1.744 0,0"
             style="fill:#fccf34;fill-opacity:1;fill-rule:evenodd;stroke:none"
             id="path3429" />
        </g>
        <g
           id="g3431"
           transform="translate(461.3485,639.535)">
          <path
             inkscape:connector-curvature="0"
             d="m 0,0 c 1.743,1.743 4.588,1.743 6.33,0 1.743,-1.743 1.743,-4.588 0,-6.332 C 4.588,-8.074 1.743,-8.074 0,-6.332 -1.744,-4.588 -1.744,-1.743 0,0"
             style="fill:#fccf34;fill-opacity:1;fill-rule:evenodd;stroke:none"
             id="path3433" />
        </g>
        <g
           id="g3435"
           transform="translate(472.7495,650.8738)">
          <path
             inkscape:connector-curvature="0"
             d="m 0,0 c 1.742,1.744 4.586,1.744 6.33,0 1.744,-1.743 1.744,-4.587 0,-6.331 C 4.586,-8.074 1.742,-8.074 0,-6.331 -1.744,-4.587 -1.744,-1.743 0,0"
             style="fill:#fccf34;fill-opacity:1;fill-rule:evenodd;stroke:none"
             id="path3437" />
        </g>
      </g>
    </g>
  </g>
</svg>
