<?xml version="1.0" encoding="UTF-8" standalone="no"?>
<!-- Created with Inkscape (http://www.inkscape.org/) -->

<svg
   xmlns:dc="http://purl.org/dc/elements/1.1/"
   xmlns:cc="http://creativecommons.org/ns#"
   xmlns:rdf="http://www.w3.org/1999/02/22-rdf-syntax-ns#"
   xmlns:svg="http://www.w3.org/2000/svg"
   xmlns="http://www.w3.org/2000/svg"
   xmlns:sodipodi="http://sodipodi.sourceforge.net/DTD/sodipodi-0.dtd"
   xmlns:inkscape="http://www.inkscape.org/namespaces/inkscape"
   width="44.453125"
   height="132.10938"
   id="svg4470"
   version="1.1"
   inkscape:version="0.48.2 r9819"
   sodipodi:docname="New document 23">
  <defs
     id="defs4472">
    <clipPath
       clipPathUnits="userSpaceOnUse"
       id="clipPath3739">
      <path
         inkscape:connector-curvature="0"
         d="m 331.038,208.117 244.462,0 0,529.383 -244.462,0 0,-529.383 z"
         id="path3741" />
    </clipPath>
  </defs>
  <sodipodi:namedview
     id="base"
     pagecolor="#ffffff"
     bordercolor="#666666"
     borderopacity="1.0"
     inkscape:pageopacity="0.0"
     inkscape:pageshadow="2"
     inkscape:zoom="0.35"
     inkscape:cx="22.93991"
     inkscape:cy="-88.225093"
     inkscape:document-units="px"
     inkscape:current-layer="layer1"
     showgrid="false"
     fit-margin-top="0"
     fit-margin-left="0"
     fit-margin-right="0"
     fit-margin-bottom="0"
     inkscape:window-width="469"
     inkscape:window-height="425"
     inkscape:window-x="1539"
     inkscape:window-y="138"
     inkscape:window-maximized="1" />
  <metadata
     id="metadata4475">
    <rdf:RDF>
      <cc:Work
         rdf:about="">
        <dc:format>image/svg+xml</dc:format>
        <dc:type
           rdf:resource="http://purl.org/dc/dcmitype/StillImage" />
        <dc:title></dc:title>
      </cc:Work>
    </rdf:RDF>
  </metadata>
  <g
     inkscape:label="Layer 1"
     inkscape:groupmode="layer"
     id="layer1"
     transform="translate(-352.06009,-312.02772)">
    <g
       transform="matrix(1.25,0,0,-1.25,-192.23491,890.80134)"
       id="g3735">
      <g
         id="g3737"
         clip-path="url(#clipPath3739)">
        <g
           id="g3743"
           transform="translate(470.7485,458.3939)">
          <path
             inkscape:connector-curvature="0"
             d="m 0,0 c 0,1.21 -0.49,2.306 -1.283,3.099 -0.795,0.793 -1.891,1.283 -3.1,1.283 l -13.15,0 -13.148,0 c -1.21,0 -2.307,-0.49 -3.1,-1.283 C -34.574,2.306 -35.064,1.21 -35.064,0 l 0,-48.213 0,-48.214 c 0,-1.211 0.49,-2.306 1.283,-3.099 0.793,-0.793 1.89,-1.284 3.1,-1.284 l 13.148,0 13.15,0 c 1.209,0 2.305,0.491 3.1,1.284 C -0.49,-98.733 0,-97.638 0,-96.427 L 0,-48.213 0,0 z"
             style="fill:#fccf34;fill-opacity:1;fill-rule:nonzero;stroke:none"
             id="path3745" />
        </g>
        <g
           id="g3747"
           transform="translate(470.7485,458.3939)">
          <path
             inkscape:connector-curvature="0"
             d="m 0,0 c 0,1.21 -0.49,2.306 -1.283,3.099 -0.795,0.793 -1.891,1.283 -3.1,1.283 l -13.15,0 -13.148,0 c -1.21,0 -2.307,-0.49 -3.1,-1.283 C -34.574,2.306 -35.064,1.21 -35.064,0 l 0,-48.213 0,-48.214 c 0,-1.211 0.49,-2.306 1.283,-3.099 0.793,-0.793 1.89,-1.284 3.1,-1.284 l 13.148,0 13.15,0 c 1.209,0 2.305,0.491 3.1,1.284 C -0.49,-98.733 0,-97.638 0,-96.427 L 0,-48.213 0,0 z"
             style="fill:none;stroke:#231f20;stroke-width:0.5;stroke-linecap:butt;stroke-linejoin:miter;stroke-miterlimit:4;stroke-opacity:1;stroke-dasharray:none"
             id="path3749" />
        </g>
        <g
           id="g3751"
           transform="translate(469.4655,358.8679)">
          <path
             inkscape:connector-curvature="0"
             d="M 0,0 C 0.727,0.726 1.199,1.707 1.273,2.799 L -16.25,20.32 -33.771,2.799 c 0.074,-1.092 0.547,-2.073 1.273,-2.799 0.793,-0.793 1.89,-1.284 3.1,-1.284 l 3.942,0 9.206,9.206 9.207,-9.206 3.943,0 c 1.209,0 2.305,0.491 3.1,1.284"
             style="fill:#231f20;fill-opacity:1;fill-rule:nonzero;stroke:none"
             id="path3753" />
        </g>
        <g
           id="g3755"
           transform="translate(453.2155,391.5839)">
          <path
             inkscape:connector-curvature="0"
             d="m 0,0 17.533,-17.531 0,12.397 L 0,12.397 -17.531,-5.134 l 0,-12.397 L 0,0 z"
             style="fill:#231f20;fill-opacity:1;fill-rule:nonzero;stroke:none"
             id="path3757" />
        </g>
        <g
           id="g3759"
           transform="translate(453.2155,416.3788)">
          <path
             inkscape:connector-curvature="0"
             d="m 0,0 17.533,-17.532 0,12.397 L 0,12.397 -17.531,-5.135 l 0,-12.397 L 0,0 z"
             style="fill:#231f20;fill-opacity:1;fill-rule:nonzero;stroke:none"
             id="path3761" />
        </g>
        <g
           id="g3763"
           transform="translate(453.2155,441.1729)">
          <path
             inkscape:connector-curvature="0"
             d="m 0,0 17.533,-17.531 0,12.396 L 0,12.396 -17.531,-5.135 l 0,-12.396 L 0,0 z"
             style="fill:#231f20;fill-opacity:1;fill-rule:nonzero;stroke:none"
             id="path3765" />
        </g>
        <g
           id="g3767"
           transform="translate(470.7485,448.4348)">
          <path
             inkscape:connector-curvature="0"
             d="m 0,0 0,9.959 c 0,1.21 -0.49,2.306 -1.283,3.099 -0.795,0.793 -1.891,1.283 -3.1,1.283 l -9.959,0 L 0,0 z"
             style="fill:#231f20;fill-opacity:1;fill-rule:nonzero;stroke:none"
             id="path3769" />
        </g>
        <g
           id="g3771"
           transform="translate(450.0265,462.7759)">
          <path
             inkscape:connector-curvature="0"
             d="m 0,0 -9.959,0 c -1.21,0 -2.307,-0.49 -3.1,-1.283 -0.793,-0.793 -1.283,-1.889 -1.283,-3.099 l 0,-9.959 L 0,0 z"
             style="fill:#231f20;fill-opacity:1;fill-rule:nonzero;stroke:none"
             id="path3773" />
        </g>
      </g>
    </g>
  </g>
</svg>
