<?xml version="1.0" encoding="UTF-8" standalone="no"?>
<!-- Created with Inkscape (http://www.inkscape.org/) -->

<svg
   xmlns:dc="http://purl.org/dc/elements/1.1/"
   xmlns:cc="http://creativecommons.org/ns#"
   xmlns:rdf="http://www.w3.org/1999/02/22-rdf-syntax-ns#"
   xmlns:svg="http://www.w3.org/2000/svg"
   xmlns="http://www.w3.org/2000/svg"
   xmlns:sodipodi="http://sodipodi.sourceforge.net/DTD/sodipodi-0.dtd"
   xmlns:inkscape="http://www.inkscape.org/namespaces/inkscape"
   width="44.472"
   height="132.10938"
   id="svg4333"
   version="1.1"
   inkscape:version="0.48.2 r9819"
   sodipodi:docname="New document 19">
  <defs
     id="defs4335">
    <clipPath
       clipPathUnits="userSpaceOnUse"
       id="clipPath3643">
      <path
         inkscape:connector-curvature="0"
         d="m 331.038,208.117 244.462,0 0,529.383 -244.462,0 0,-529.383 z"
         id="path3645" />
    </clipPath>
    <clipPath
       clipPathUnits="userSpaceOnUse"
       id="clipPath3631">
      <path
         inkscape:connector-curvature="0"
         d="m 337.07,214.117 232.399,0 0,517.383 -232.399,0 0,-517.383 z"
         id="path3633" />
    </clipPath>
    <clipPath
       clipPathUnits="userSpaceOnUse"
       id="clipPath3619">
      <path
         inkscape:connector-curvature="0"
         d="m 331.038,208.117 244.462,0 0,529.383 -244.462,0 0,-529.383 z"
         id="path3621" />
    </clipPath>
  </defs>
  <sodipodi:namedview
     id="base"
     pagecolor="#ffffff"
     bordercolor="#666666"
     borderopacity="1.0"
     inkscape:pageopacity="0.0"
     inkscape:pageshadow="2"
     inkscape:zoom="0.35"
     inkscape:cx="22.228812"
     inkscape:cy="66.046842"
     inkscape:document-units="px"
     inkscape:current-layer="layer1"
     showgrid="false"
     fit-margin-top="0"
     fit-margin-left="0"
     fit-margin-right="0"
     fit-margin-bottom="0"
     inkscape:window-width="1366"
     inkscape:window-height="706"
     inkscape:window-x="-8"
     inkscape:window-y="-8"
     inkscape:window-maximized="1" />
  <metadata
     id="metadata4338">
    <rdf:RDF>
      <cc:Work
         rdf:about="">
        <dc:format>image/svg+xml</dc:format>
        <dc:type
           rdf:resource="http://purl.org/dc/dcmitype/StillImage" />
        <dc:title></dc:title>
      </cc:Work>
    </rdf:RDF>
  </metadata>
  <g
     inkscape:label="Layer 1"
     inkscape:groupmode="layer"
     id="layer1"
     transform="translate(-352.77119,-466.29965)">
    <g
       transform="matrix(1.25,0,0,-1.25,-68.566312,1044.6994)"
       id="g3615">
      <g
         id="g3617"
         clip-path="url(#clipPath3619)">
        <g
           id="g3623"
           transform="translate(367.7101,462.4698)">
          <path
             inkscape:connector-curvature="0"
             d="m 0,0 -25.715,0 c -2.575,0 -4.676,-2.1 -4.676,-4.676 l 0,-95.846 c 0,-2.574 2.101,-4.678 4.676,-4.678 l 25.715,0 c 2.575,0 4.676,2.104 4.676,4.678 l 0,95.846 C 4.676,-2.1 2.575,0 0,0"
             style="fill:#fccf34;fill-opacity:1;fill-rule:evenodd;stroke:none"
             id="path3625" />
        </g>
      </g>
    </g>
    <g
       transform="matrix(1.25,0,0,-1.25,-68.566312,1044.6994)"
       id="g3627">
      <g
         id="g3629"
         clip-path="url(#clipPath3631)">
        <g
           id="g3635"
           transform="translate(367.7101,462.4698)">
          <path
             inkscape:connector-curvature="0"
             d="m 0,0 -25.715,0 c -2.575,0 -4.676,-2.1 -4.676,-4.676 l 0,-95.846 c 0,-2.574 2.101,-4.678 4.676,-4.678 l 25.715,0 c 2.575,0 4.676,2.104 4.676,4.678 l 0,95.846 C 4.676,-2.1 2.575,0 0,0"
             style="fill:none;stroke:#231f20;stroke-width:0.5;stroke-linecap:butt;stroke-linejoin:miter;stroke-miterlimit:2.61299992;stroke-opacity:1;stroke-dasharray:none"
             id="path3637" />
        </g>
      </g>
    </g>
    <g
       transform="matrix(1.25,0,0,-1.25,-68.566312,1044.6994)"
       id="g3639">
      <g
         id="g3641"
         clip-path="url(#clipPath3643)">
        <g
           id="g3647"
           transform="translate(372.4064,457.7938)">
          <path
             inkscape:connector-curvature="0"
             d="m 0,0 0,-7.826 -12.482,12.482 7.807,0.02 C -2.101,4.676 0,2.576 0,0"
             style="fill:#231f20;fill-opacity:1;fill-rule:nonzero;stroke:none"
             id="path3649" />
        </g>
        <g
           id="g3651"
           transform="translate(372.3586,398.7979)">
          <path
             inkscape:connector-curvature="0"
             d="m 0,0 0.054,13.135 -35.13,35.129 0,-13.188 C -35.076,35.076 -0.055,0.055 0,0"
             style="fill:#231f20;fill-opacity:1;fill-rule:nonzero;stroke:none"
             id="path3653" />
        </g>
        <g
           id="g3655"
           transform="translate(372.4123,373.1269)">
          <path
             inkscape:connector-curvature="0"
             d="M 0,0 0,13.186 -35.075,48.263 -35.13,35.13 0,0 z"
             style="fill:#231f20;fill-opacity:1;fill-rule:nonzero;stroke:none"
             id="path3657" />
        </g>
        <g
           id="g3659"
           transform="translate(337.34,361.9478)">
          <path
             inkscape:connector-curvature="0"
             d="M 0,0 0,7.824 12.482,-4.658 4.675,-4.678 C 2.101,-4.678 0,-2.574 0,0"
             style="fill:#231f20;fill-opacity:1;fill-rule:nonzero;stroke:none"
             id="path3661" />
        </g>
        <g
           id="g3663"
           transform="translate(367.9113,357.2618)">
          <path
             inkscape:connector-curvature="0"
             d="m 0,0 c 2.1,0 3.967,1.463 4.497,3.473 l -0.002,0.015 -35.124,35.075 0,-13.184 L -5.173,0.008 0,0 z"
             style="fill:#231f20;fill-opacity:1;fill-rule:nonzero;stroke:none"
             id="path3665" />
        </g>
        <g
           id="g3667"
           transform="translate(337.4387,459.2838)">
          <path
             inkscape:connector-curvature="0"
             d="m 0,0 34.971,-34.982 0,13.26 L 10.105,3.184 4.416,3.192 C 2.414,3.192 0.623,1.863 0,0"
             style="fill:#231f20;fill-opacity:1;fill-rule:nonzero;stroke:none"
             id="path3669" />
        </g>
      </g>
    </g>
  </g>
</svg>
