<?xml version="1.0" encoding="UTF-8" standalone="no"?>
<!-- Created with Inkscape (http://www.inkscape.org/) -->

<svg
   xmlns:dc="http://purl.org/dc/elements/1.1/"
   xmlns:cc="http://creativecommons.org/ns#"
   xmlns:rdf="http://www.w3.org/1999/02/22-rdf-syntax-ns#"
   xmlns:svg="http://www.w3.org/2000/svg"
   xmlns="http://www.w3.org/2000/svg"
   xmlns:sodipodi="http://sodipodi.sourceforge.net/DTD/sodipodi-0.dtd"
   xmlns:inkscape="http://www.inkscape.org/namespaces/inkscape"
   width="90.244423"
   height="90.298439"
   id="svg4731"
   version="1.1"
   inkscape:version="0.48.2 r9819"
   sodipodi:docname="New document 29">
  <defs
     id="defs4733">
    <clipPath
       clipPathUnits="userSpaceOnUse"
       id="clipPath3289">
      <path
         inkscape:connector-curvature="0"
         d="m 331.038,208.117 244.462,0 0,529.383 -244.462,0 0,-529.383 z"
         id="path3291" />
    </clipPath>
  </defs>
  <sodipodi:namedview
     id="base"
     pagecolor="#ffffff"
     bordercolor="#666666"
     borderopacity="1.0"
     inkscape:pageopacity="0.0"
     inkscape:pageshadow="2"
     inkscape:zoom="0.35"
     inkscape:cx="-65.596923"
     inkscape:cy="-57.705898"
     inkscape:document-units="px"
     inkscape:current-layer="layer1"
     showgrid="false"
     fit-margin-top="0"
     fit-margin-left="0"
     fit-margin-right="0"
     fit-margin-bottom="0"
     inkscape:window-width="469"
     inkscape:window-height="425"
     inkscape:window-x="75"
     inkscape:window-y="75"
     inkscape:window-maximized="0" />
  <metadata
     id="metadata4736">
    <rdf:RDF>
      <cc:Work
         rdf:about="">
        <dc:format>image/svg+xml</dc:format>
        <dc:type
           rdf:resource="http://purl.org/dc/dcmitype/StillImage" />
        <dc:title></dc:title>
      </cc:Work>
    </rdf:RDF>
  </metadata>
  <g
     inkscape:label="Layer 1"
     inkscape:groupmode="layer"
     id="layer1"
     transform="translate(-440.59692,-384.35785)">
    <g
       transform="matrix(1.25,0,0,-1.25,-80.548683,760.51991)"
       id="g3285">
      <g
         id="g3287"
         clip-path="url(#clipPath3289)">
        <g
           id="g3293"
           transform="translate(418.4045,268.1909)">
          <path
             inkscape:connector-curvature="0"
             d="m 0,0 31.227,31.226 c 1.857,1.86 4.898,1.86 6.758,0 L 69.211,0 c 1.86,-1.858 1.86,-4.9 0,-6.758 L 37.985,-37.984 c -1.86,-1.86 -4.901,-1.86 -6.758,0 L 0,-6.758 C -1.859,-4.9 -1.859,-1.858 0,0"
             style="fill:#231f20;fill-opacity:1;fill-rule:nonzero;stroke:none"
             id="path3295" />
        </g>
        <g
           id="g3297"
           transform="translate(418.4045,268.1909)">
          <path
             inkscape:connector-curvature="0"
             d="m 0,0 31.227,31.226 c 1.857,1.86 4.898,1.86 6.758,0 L 69.211,0 c 1.86,-1.858 1.86,-4.9 0,-6.758 L 37.985,-37.984 c -1.86,-1.86 -4.901,-1.86 -6.758,0 L 0,-6.758 C -1.859,-4.9 -1.859,-1.858 0,0 z"
             style="fill:none;stroke:#231f20;stroke-width:0.21600001;stroke-linecap:butt;stroke-linejoin:miter;stroke-miterlimit:2.61299992;stroke-opacity:1;stroke-dasharray:none"
             id="path3299" />
        </g>
        <g
           id="g3301"
           transform="translate(427.0236,267.9579)">
          <path
             inkscape:connector-curvature="0"
             d="m 0,0 c 1.744,1.745 4.588,1.745 6.33,0 1.744,-1.744 1.744,-4.587 0,-6.33 C 4.588,-8.074 1.744,-8.074 0,-6.33 -1.744,-4.587 -1.744,-1.744 0,0"
             style="fill:#bf2519;fill-opacity:1;fill-rule:evenodd;stroke:none"
             id="path3303" />
        </g>
        <g
           id="g3305"
           transform="translate(438.5255,279.4718)">
          <path
             inkscape:connector-curvature="0"
             d="m 0,0 c 1.744,1.742 4.588,1.742 6.33,0 1.744,-1.744 1.744,-4.588 0,-6.332 C 4.588,-8.074 1.744,-8.074 0,-6.332 -1.744,-4.588 -1.744,-1.744 0,0"
             style="fill:#bf2519;fill-opacity:1;fill-rule:evenodd;stroke:none"
             id="path3307" />
        </g>
        <g
           id="g3309"
           transform="translate(449.9145,290.8509)">
          <path
             inkscape:connector-curvature="0"
             d="m 0,0 c 1.742,1.742 4.586,1.742 6.328,0 1.744,-1.744 1.744,-4.588 0,-6.332 C 4.586,-8.074 1.742,-8.074 0,-6.332 -1.744,-4.588 -1.744,-1.744 0,0"
             style="fill:#bf2519;fill-opacity:1;fill-rule:evenodd;stroke:none"
             id="path3311" />
        </g>
        <g
           id="g3313"
           transform="translate(438.5415,256.3748)">
          <path
             inkscape:connector-curvature="0"
             d="m 0,0 c 1.744,1.742 4.588,1.742 6.332,0 1.742,-1.745 1.742,-4.588 0,-6.333 C 4.588,-8.075 1.744,-8.075 0,-6.333 -1.745,-4.588 -1.745,-1.745 0,0"
             style="fill:#bf2519;fill-opacity:1;fill-rule:evenodd;stroke:none"
             id="path3315" />
        </g>
        <g
           id="g3317"
           transform="translate(449.9295,267.9528)">
          <path
             inkscape:connector-curvature="0"
             d="m 0,0 c 1.743,1.742 4.587,1.742 6.331,0 1.744,-1.745 1.744,-4.588 0,-6.332 C 4.587,-8.075 1.743,-8.075 0,-6.332 -1.744,-4.588 -1.744,-1.745 0,0"
             style="fill:#bf2519;fill-opacity:1;fill-rule:evenodd;stroke:none"
             id="path3319" />
        </g>
        <g
           id="g3321"
           transform="translate(461.4205,279.2888)">
          <path
             inkscape:connector-curvature="0"
             d="m 0,0 c 1.744,1.744 4.588,1.744 6.332,0 1.742,-1.743 1.742,-4.586 0,-6.331 C 4.588,-8.075 1.744,-8.075 0,-6.331 -1.744,-4.586 -1.744,-1.743 0,0"
             style="fill:#bf2519;fill-opacity:1;fill-rule:evenodd;stroke:none"
             id="path3323" />
        </g>
        <g
           id="g3325"
           transform="translate(449.8535,245.1259)">
          <path
             inkscape:connector-curvature="0"
             d="m 0,0 c 1.744,1.745 4.586,1.745 6.331,0 1.744,-1.744 1.744,-4.587 0,-6.33 C 4.586,-8.074 1.744,-8.074 0,-6.33 -1.744,-4.587 -1.744,-1.744 0,0"
             style="fill:#bf2519;fill-opacity:1;fill-rule:evenodd;stroke:none"
             id="path3327" />
        </g>
        <g
           id="g3329"
           transform="translate(461.3485,256.6398)">
          <path
             inkscape:connector-curvature="0"
             d="m 0,0 c 1.744,1.742 4.588,1.742 6.33,0 1.744,-1.744 1.744,-4.588 0,-6.332 C 4.588,-8.074 1.744,-8.074 0,-6.332 -1.744,-4.588 -1.744,-1.744 0,0"
             style="fill:#bf2519;fill-opacity:1;fill-rule:evenodd;stroke:none"
             id="path3331" />
        </g>
        <g
           id="g3333"
           transform="translate(472.7505,267.9778)">
          <path
             inkscape:connector-curvature="0"
             d="m 0,0 c 1.742,1.744 4.586,1.744 6.33,0 1.744,-1.742 1.744,-4.586 0,-6.33 C 4.586,-8.074 1.742,-8.074 0,-6.33 -1.744,-4.586 -1.744,-1.742 0,0"
             style="fill:#bf2519;fill-opacity:1;fill-rule:evenodd;stroke:none"
             id="path3335" />
        </g>
      </g>
    </g>
  </g>
</svg>
