<?xml version="1.0" encoding="UTF-8" standalone="no"?>
<!-- Created with Inkscape (http://www.inkscape.org/) -->

<svg
   xmlns:dc="http://purl.org/dc/elements/1.1/"
   xmlns:cc="http://creativecommons.org/ns#"
   xmlns:rdf="http://www.w3.org/1999/02/22-rdf-syntax-ns#"
   xmlns:svg="http://www.w3.org/2000/svg"
   xmlns="http://www.w3.org/2000/svg"
   xmlns:sodipodi="http://sodipodi.sourceforge.net/DTD/sodipodi-0.dtd"
   xmlns:inkscape="http://www.inkscape.org/namespaces/inkscape"
   width="90.629059"
   height="90.612968"
   id="svg4142"
   version="1.1"
   inkscape:version="0.48.1 "
   sodipodi:docname="New document 7">
  <defs
     id="defs4144">
    <clipPath
       clipPathUnits="userSpaceOnUse"
       id="clipPath3247">
      <path
         inkscape:connector-curvature="0"
         d="m 63,45 513,0 0,448.439 -513,0 L 63,45 z"
         id="path3249" />
    </clipPath>
  </defs>
  <sodipodi:namedview
     id="base"
     pagecolor="#ffffff"
     bordercolor="#666666"
     borderopacity="1.0"
     inkscape:pageopacity="0.0"
     inkscape:pageshadow="2"
     inkscape:zoom="0.35"
     inkscape:cx="28.885961"
     inkscape:cy="-17.55067"
     inkscape:document-units="px"
     inkscape:current-layer="layer1"
     showgrid="false"
     fit-margin-top="0"
     fit-margin-left="0"
     fit-margin-right="0"
     fit-margin-bottom="0"
     inkscape:window-width="469"
     inkscape:window-height="403"
     inkscape:window-x="543"
     inkscape:window-y="148"
     inkscape:window-maximized="0" />
  <metadata
     id="metadata4147">
    <rdf:RDF>
      <cc:Work
         rdf:about="">
        <dc:format>image/svg+xml</dc:format>
        <dc:type
           rdf:resource="http://purl.org/dc/dcmitype/StillImage" />
        <dc:title></dc:title>
      </cc:Work>
    </rdf:RDF>
  </metadata>
  <g
     inkscape:label="Layer 1"
     inkscape:groupmode="layer"
     id="layer1"
     transform="translate(-346.11404,-424.19854)">
    <g
       transform="matrix(1.25,0,0,-1.25,154.09282,1013.3337)"
       id="g3243">
      <g
         id="g3245"
         clip-path="url(#clipPath3247)">
        <g
           id="g3251"
           transform="translate(187.9391,399.8545)">
          <path
             inkscape:connector-curvature="0"
             d="m 0,0 -33.274,33.274 c -1.064,1.063 -1.064,2.796 -10e-4,3.859 l 33.274,33.272 c 1.064,1.064 2.797,1.065 3.861,0.002 L 37.133,37.131 c 1.064,-1.063 1.064,-2.794 10e-4,-3.858 L 3.86,0 C 2.809,-1.048 1.051,-1.05 0,0"
             style="fill:#fccf34;fill-opacity:1;fill-rule:nonzero;stroke:#231f20;stroke-width:0.5;stroke-linecap:butt;stroke-linejoin:miter;stroke-miterlimit:4;stroke-opacity:1;stroke-dasharray:none"
             id="path3253" />
        </g>
        <g
           id="g3255"
           transform="translate(188.4691,400.3965)">
          <path
             inkscape:connector-curvature="0"
             d="m 0,0 -33.262,33.261 c -0.765,0.766 -0.763,2.034 0,2.801 l 33.261,33.259 c 0.766,0.766 2.032,0.765 2.801,0 L 36.06,36.06 c 0.765,-0.766 0.767,-2.032 0,-2.799 L 2.8,0 C 2.032,-0.761 0.766,-0.765 0,0"
             style="fill:#231f20;fill-opacity:1;fill-rule:evenodd;stroke:none"
             id="path3257" />
        </g>
        <g
           id="g3259"
           transform="translate(189.2101,401.1568)">
          <path
             inkscape:connector-curvature="0"
             d="m 0,0 -33.243,33.241 c -0.369,0.357 -0.368,0.964 0,1.32 l 33.242,33.24 c 0.355,0.368 0.962,0.368 1.319,0 L 34.56,34.561 c 0.368,-0.357 0.368,-0.965 -0.001,-1.321 L 1.319,0 C 0.962,-0.368 0.356,-0.368 0,0"
             style="fill:#fccf34;fill-opacity:1;fill-rule:evenodd;stroke:none"
             id="path3261" />
        </g>
        <g
           id="g3263"
           transform="translate(175.0521,442.3628)">
          <path
             inkscape:connector-curvature="0"
             d="m 0,0 -0.012,-20.994 6.98,0 0.001,18.126 c 0,1.068 0.914,1.741 1.742,1.741 l 11.673,-0.042 -1.3,-3.919 c -0.114,-0.206 -0.162,-0.451 -0.183,-0.688 -0.068,-0.765 0.623,-1.388 1.388,-1.388 0.358,0 0.71,0.146 0.964,0.391 l 11.968,9.175 -11.968,8.84 c -0.254,0.243 -0.608,0.39 -0.964,0.39 -0.765,0 -1.491,-0.674 -1.388,-1.387 0.033,-0.237 0.069,-0.484 0.183,-0.689 L 20.384,5.771 5.822,5.777 C 2.615,5.777 0,3.163 0,-0.044 L 0,0 z"
             style="fill:#231f20;fill-opacity:1;fill-rule:evenodd;stroke:none"
             id="path3265" />
        </g>
        <g
           id="g3267"
           transform="translate(205.7451,424.9668)">
          <path
             inkscape:connector-curvature="0"
             d="m 0,0 c 0,2.186 -1.743,3.817 -4.151,3.817 -0.668,0 -1.187,-0.075 -2.039,-0.259 l 0.11,1.519 5.226,0 0.038,1.853 -7.042,0 -0.334,-4.966 1.89,-0.482 c 0.779,0.296 1.335,0.407 2.038,0.407 0.779,0 1.335,-0.147 1.706,-0.443 0.407,-0.334 0.667,-0.89 0.667,-1.446 0,-1.186 -0.963,-1.891 -2.558,-1.891 -1.074,0 -2.15,0.297 -3.075,0.854 L -8.525,-2.632 C -7.19,-3.447 -5.894,-3.823 -4.449,-3.823 -1.855,-3.823 0,-2.223 0,0 m -10.007,-3.631 0,1.889 -6.226,0 c 0.37,0.705 0.667,1.112 1.149,1.519 0.629,0.556 1.038,0.742 2.445,1.149 0.742,0.222 1.224,0.482 1.557,0.741 0.704,0.593 1.075,1.408 1.075,2.298 0,1.927 -1.595,3.15 -4.077,3.15 -1.705,0 -3.224,-0.556 -4.447,-1.631 l 1.297,-1.444 c 0.889,0.815 1.89,1.148 3.261,1.148 1.334,0 2.076,-0.445 2.076,-1.223 0,-0.63 -0.409,-1.001 -1.594,-1.334 -1.927,-0.519 -3.261,-1.483 -4.188,-3.038 -0.593,-1.038 -0.852,-1.965 -0.852,-3.224 l 8.524,0 z"
             style="fill:#231f20;fill-opacity:1;fill-rule:evenodd;stroke:none"
             id="path3269" />
        </g>
      </g>
    </g>
  </g>
</svg>
