<?xml version="1.0" encoding="UTF-8" standalone="no"?>
<!-- Created with Inkscape (http://www.inkscape.org/) -->

<svg
   xmlns:dc="http://purl.org/dc/elements/1.1/"
   xmlns:cc="http://creativecommons.org/ns#"
   xmlns:rdf="http://www.w3.org/1999/02/22-rdf-syntax-ns#"
   xmlns:svg="http://www.w3.org/2000/svg"
   xmlns="http://www.w3.org/2000/svg"
   xmlns:sodipodi="http://sodipodi.sourceforge.net/DTD/sodipodi-0.dtd"
   xmlns:inkscape="http://www.inkscape.org/namespaces/inkscape"
   width="90.623749"
   height="90.625"
   id="svg4228"
   version="1.1"
   inkscape:version="0.48.1 "
   sodipodi:docname="New document 9">
  <defs
     id="defs4230" />
  <sodipodi:namedview
     id="base"
     pagecolor="#ffffff"
     bordercolor="#666666"
     borderopacity="1.0"
     inkscape:pageopacity="0.0"
     inkscape:pageshadow="2"
     inkscape:zoom="0.35"
     inkscape:cx="43.169015"
     inkscape:cy="-83.258928"
     inkscape:document-units="px"
     inkscape:current-layer="layer1"
     showgrid="false"
     fit-margin-top="0"
     fit-margin-left="0"
     fit-margin-right="0"
     fit-margin-bottom="0"
     inkscape:window-width="469"
     inkscape:window-height="403"
     inkscape:window-x="725"
     inkscape:window-y="113"
     inkscape:window-maximized="0" />
  <metadata
     id="metadata4233">
    <rdf:RDF>
      <cc:Work
         rdf:about="">
        <dc:format>image/svg+xml</dc:format>
        <dc:type
           rdf:resource="http://purl.org/dc/dcmitype/StillImage" />
        <dc:title></dc:title>
      </cc:Work>
    </rdf:RDF>
  </metadata>
  <g
     inkscape:label="Layer 1"
     inkscape:groupmode="layer"
     id="layer1"
     transform="translate(-331.83098,-358.47825)">
    <g
       id="g3107"
       transform="matrix(1.25,0,0,-1.25,420.94036,400.87638)">
      <path
         d="m 0,0 -32.706,32.707 c -1.283,1.282 -3.38,1.282 -4.663,0 L -70.076,0 c -1.282,-1.282 -1.282,-3.38 0,-4.664 l 32.707,-32.706 c 1.283,-1.282 3.38,-1.282 4.663,0 L 0,-4.664 C 1.282,-3.38 1.282,-1.282 0,0"
         style="fill:#fccf34;fill-opacity:1;fill-rule:nonzero;stroke:none"
         id="path3109"
         inkscape:connector-curvature="0" />
    </g>
    <g
       id="g3111"
       transform="matrix(1.25,0,0,-1.25,420.94036,400.87638)">
      <path
         d="m 0,0 -32.706,32.707 c -1.283,1.282 -3.38,1.282 -4.663,0 L -70.076,0 c -1.282,-1.282 -1.282,-3.38 0,-4.664 l 32.707,-32.706 c 1.283,-1.282 3.38,-1.282 4.663,0 L 0,-4.664 C 1.282,-3.38 1.282,-1.282 0,0 z"
         style="fill:none;stroke:#231f20;stroke-width:0.5;stroke-linecap:butt;stroke-linejoin:miter;stroke-miterlimit:4;stroke-opacity:1;stroke-dasharray:none"
         id="path3113"
         inkscape:connector-curvature="0" />
    </g>
    <g
       id="g3115"
       transform="matrix(1.25,0,0,-1.25,420.1616,401.6545)">
      <path
         d="m 0,0 -32.706,32.706 c -0.939,0.94 -2.477,0.94 -3.418,0 L -68.83,0 c -0.94,-0.94 -0.94,-2.478 0,-3.418 l 32.706,-32.707 c 0.941,-0.94 2.479,-0.94 3.418,0 L 0,-3.418 C 0.94,-2.478 0.94,-0.94 0,0"
         style="fill:#231f20;fill-opacity:1;fill-rule:evenodd;stroke:none"
         id="path3117"
         inkscape:connector-curvature="0" />
    </g>
    <g
       id="g3119"
       transform="matrix(1.25,0,0,-1.25,418.99285,402.82213)">
      <path
         d="m 0,0 -32.704,32.707 c -0.426,0.425 -1.123,0.425 -1.55,0 L -66.96,0 c -0.426,-0.426 -0.426,-1.124 0,-1.549 l 32.706,-32.706 c 0.427,-0.427 1.124,-0.427 1.55,0 L 0,-1.549 C 0.428,-1.124 0.428,-0.426 0,0"
         style="fill:#fccf34;fill-opacity:1;fill-rule:evenodd;stroke:none"
         id="path3121"
         inkscape:connector-curvature="0" />
    </g>
    <g
       id="g3123"
       transform="matrix(1.25,0,0,-1.25,374.15536,399.33763)">
      <path
         d="m 0,0 c -0.342,-1.134 -0.683,-2.268 -1.024,-3.401 -0.134,-0.445 -0.234,-0.943 -0.47,-1.349 -0.512,-0.881 -1.746,-1.043 -2.459,-0.299 -0.394,0.411 -0.608,1.015 -0.854,1.517 -0.506,1.026 -1.012,2.052 -1.517,3.078 -2.091,4.241 -4.182,8.481 -6.272,12.722 4.732,0 9.466,10e-4 14.199,0.002 1.125,0 2.252,0 3.377,0 0.594,0 1.264,0.063 1.844,-0.089 C 7.789,11.927 8.426,10.834 7.76,9.938 7.451,9.523 7.033,9.146 6.683,8.76 5.888,7.881 5.094,7.002 4.299,6.124 c 3.664,-1.664 7.22,-4.217 9.394,-7.662 2.162,-3.431 2.502,-7.154 2.494,-11.101 -0.004,-2.828 -0.01,-5.656 -0.015,-8.484 0,-0.057 0.033,-0.445 -0.028,-0.445 l -1.25,0 -4.648,0 c -0.389,0 -1.762,-0.267 -1.762,0.223 0,1.15 -0.002,2.299 -0.002,3.449 -0.002,2.396 0.02,4.794 -0.006,7.191 C 8.457,-8.814 8.045,-7.029 7.017,-5.426 5.422,-2.936 2.525,-1.321 0,0"
         style="fill:#231f20;fill-opacity:1;fill-rule:evenodd;stroke:none"
         id="path3125"
         inkscape:connector-curvature="0" />
    </g>
  </g>
</svg>
