<?xml version="1.0" encoding="UTF-8" standalone="no"?>
<!-- Created with Inkscape (http://www.inkscape.org/) -->

<svg
   xmlns:dc="http://purl.org/dc/elements/1.1/"
   xmlns:cc="http://creativecommons.org/ns#"
   xmlns:rdf="http://www.w3.org/1999/02/22-rdf-syntax-ns#"
   xmlns:svg="http://www.w3.org/2000/svg"
   xmlns="http://www.w3.org/2000/svg"
   xmlns:sodipodi="http://sodipodi.sourceforge.net/DTD/sodipodi-0.dtd"
   xmlns:inkscape="http://www.inkscape.org/namespaces/inkscape"
   width="106.325"
   height="53.451248"
   id="svg4621"
   version="1.1"
   inkscape:version="0.48.1 "
   sodipodi:docname="New document 21">
  <defs
     id="defs4623">
    <clipPath
       clipPathUnits="userSpaceOnUse"
       id="clipPath3545">
      <path
         inkscape:connector-curvature="0"
         d="m 63,45 513,0 0,448.439 -513,0 L 63,45 z"
         id="path3547" />
    </clipPath>
  </defs>
  <sodipodi:namedview
     id="base"
     pagecolor="#ffffff"
     bordercolor="#666666"
     borderopacity="1.0"
     inkscape:pageopacity="0.0"
     inkscape:pageshadow="2"
     inkscape:zoom="0.35"
     inkscape:cx="62.448216"
     inkscape:cy="23.868477"
     inkscape:document-units="px"
     inkscape:current-layer="layer1"
     showgrid="false"
     fit-margin-top="0"
     fit-margin-left="0"
     fit-margin-right="0"
     fit-margin-bottom="0"
     inkscape:window-width="469"
     inkscape:window-height="403"
     inkscape:window-x="719"
     inkscape:window-y="106"
     inkscape:window-maximized="0" />
  <metadata
     id="metadata4626">
    <rdf:RDF>
      <cc:Work
         rdf:about="">
        <dc:format>image/svg+xml</dc:format>
        <dc:type
           rdf:resource="http://purl.org/dc/dcmitype/StillImage" />
        <dc:title></dc:title>
      </cc:Work>
    </rdf:RDF>
  </metadata>
  <g
     inkscape:label="Layer 1"
     inkscape:groupmode="layer"
     id="layer1"
     transform="translate(-312.55178,-502.77941)">
    <g
       transform="matrix(1.25,0,0,-1.25,115.62666,934.06941)"
       id="g3541">
      <g
         id="g3543"
         clip-path="url(#clipPath3545)">
        <g
           id="g3549"
           transform="translate(239.0471,302.522)">
          <path
             inkscape:connector-curvature="0"
             d="m 0,0 -77.953,-0.001 c -1.821,0 -3.304,1.482 -3.304,3.302 l 0,35.656 c -10e-4,1.819 1.483,3.303 3.304,3.303 L 0,42.259 c 1.82,0 3.302,-1.482 3.302,-3.302 L 3.303,3.303 C 3.302,1.504 1.798,-0.002 0,0"
             style="fill:#fccf34;fill-opacity:1;fill-rule:nonzero;stroke:#231f20;stroke-width:0.5;stroke-linecap:butt;stroke-linejoin:miter;stroke-miterlimit:4;stroke-opacity:1;stroke-dasharray:none"
             id="path3551" />
        </g>
        <g
           id="g3553"
           transform="translate(239.0351,303.437)">
          <path
             inkscape:connector-curvature="0"
             d="m 0,0 -77.931,0.001 c -1.31,0.001 -2.394,1.087 -2.397,2.397 l 0.001,35.632 c -0.001,1.31 1.087,2.393 2.397,2.397 l 77.929,-10e-4 c 1.312,-0.002 2.397,-1.084 2.398,-2.397 l 0,-35.632 C 2.394,1.089 1.313,0 0,0"
             style="fill:#231f20;fill-opacity:1;fill-rule:evenodd;stroke:none"
             id="path3555" />
        </g>
        <g
           id="g3557"
           transform="translate(239.0181,304.721)">
          <path
             inkscape:connector-curvature="0"
             d="m 0,0 -77.897,0.001 c -0.62,-0.012 -1.14,0.509 -1.13,1.13 l 0.001,35.598 c -0.011,0.619 0.509,1.141 1.129,1.129 L -0.001,37.857 C 0.621,37.87 1.141,37.348 1.128,36.728 L 1.13,1.13 C 1.141,0.51 0.621,-0.01 0,0"
             style="fill:#fccf34;fill-opacity:1;fill-rule:evenodd;stroke:none"
             id="path3559" />
        </g>
        <g
           id="g3561"
           transform="translate(234.4341,317.757)">
          <path
             inkscape:connector-curvature="0"
             d="m 0,0 -44.921,0 2.199,-6.948 c 0.071,-0.223 0.121,-0.45 0.125,-0.686 0.025,-1.099 -0.831,-2.096 -1.895,-2.302 -0.63,-0.124 -1.275,0.009 -1.799,0.369 l -22.436,15.439 22.411,15.411 c 0.399,0.275 0.858,0.438 1.343,0.441 1.099,0.011 2.096,-0.799 2.303,-1.877 0.073,-0.39 0.069,-0.78 -0.052,-1.156 L -44.921,11.744 0,11.744 0,0 z"
             style="fill:#231f20;fill-opacity:1;fill-rule:evenodd;stroke:none"
             id="path3563" />
        </g>
      </g>
    </g>
  </g>
</svg>
