<?xml version="1.0" encoding="UTF-8" standalone="no"?>
<!-- Created with Inkscape (http://www.inkscape.org/) -->

<svg
   xmlns:dc="http://purl.org/dc/elements/1.1/"
   xmlns:cc="http://creativecommons.org/ns#"
   xmlns:rdf="http://www.w3.org/1999/02/22-rdf-syntax-ns#"
   xmlns:svg="http://www.w3.org/2000/svg"
   xmlns="http://www.w3.org/2000/svg"
   xmlns:sodipodi="http://sodipodi.sourceforge.net/DTD/sodipodi-0.dtd"
   xmlns:inkscape="http://www.inkscape.org/namespaces/inkscape"
   width="90.625"
   height="90.626251"
   id="svg4389"
   version="1.1"
   inkscape:version="0.48.1 "
   sodipodi:docname="New document 14">
  <defs
     id="defs4391" />
  <sodipodi:namedview
     id="base"
     pagecolor="#ffffff"
     bordercolor="#666666"
     borderopacity="1.0"
     inkscape:pageopacity="0.0"
     inkscape:pageshadow="2"
     inkscape:zoom="0.35"
     inkscape:cx="63.169647"
     inkscape:cy="-37.54402"
     inkscape:document-units="px"
     inkscape:current-layer="layer1"
     showgrid="false"
     fit-margin-top="0"
     fit-margin-left="0"
     fit-margin-right="0"
     fit-margin-bottom="0"
     inkscape:window-width="469"
     inkscape:window-height="403"
     inkscape:window-x="150"
     inkscape:window-y="150"
     inkscape:window-maximized="0" />
  <metadata
     id="metadata4394">
    <rdf:RDF>
      <cc:Work
         rdf:about="">
        <dc:format>image/svg+xml</dc:format>
        <dc:type
           rdf:resource="http://purl.org/dc/dcmitype/StillImage" />
        <dc:title></dc:title>
      </cc:Work>
    </rdf:RDF>
  </metadata>
  <g
     inkscape:label="Layer 1"
     inkscape:groupmode="layer"
     id="layer1"
     transform="translate(-311.83035,-404.19191)">
    <g
       id="g3247"
       transform="matrix(1.25,0,0,-1.25,313.43004,446.38285)">
      <path
         d="m 0,0 32.472,32.473 c 1.373,1.373 3.621,1.373 4.996,0 L 69.939,0 c 1.375,-1.373 1.375,-3.621 0,-4.996 L 37.468,-37.467 c -1.375,-1.375 -3.623,-1.375 -4.996,0 L 0,-4.996 C -1.373,-3.621 -1.373,-1.373 0,0"
         style="fill:#fccf34;fill-opacity:1;fill-rule:nonzero;stroke:none"
         id="path3249"
         inkscape:connector-curvature="0" />
    </g>
    <g
       id="g3251"
       transform="matrix(1.25,0,0,-1.25,313.43004,446.38285)">
      <path
         d="m 0,0 32.472,32.473 c 1.373,1.373 3.621,1.373 4.996,0 L 69.939,0 c 1.375,-1.373 1.375,-3.621 0,-4.996 L 37.468,-37.467 c -1.375,-1.375 -3.623,-1.375 -4.996,0 L 0,-4.996 C -1.373,-3.621 -1.373,-1.373 0,0 z"
         style="fill:none;stroke:#231f20;stroke-width:0.5;stroke-linecap:butt;stroke-linejoin:miter;stroke-miterlimit:4;stroke-opacity:1;stroke-dasharray:none"
         id="path3253"
         inkscape:connector-curvature="0" />
    </g>
    <g
       id="g3255"
       transform="matrix(1.25,0,0,-1.25,314.40879,447.02736)">
      <path
         d="m 0,0 32.205,32.205 c 1.09,1.09 2.873,1.09 3.965,0 L 68.373,0 c 1.09,-1.09 1.09,-2.873 0,-3.963 L 36.17,-36.168 c -1.092,-1.09 -2.875,-1.09 -3.965,0 L 0,-3.963 C -1.09,-2.873 -1.09,-1.09 0,0"
         style="fill:#231f20;fill-opacity:1;fill-rule:evenodd;stroke:none"
         id="path3257"
         inkscape:connector-curvature="0" />
    </g>
    <g
       id="g3259"
       transform="matrix(1.25,0,0,-1.25,315.66628,448.26761)">
      <path
         d="m 0,0 32.191,32.189 c 0.543,0.545 1.436,0.545 1.981,0 L 66.361,0 c 0.545,-0.543 0.545,-1.436 0,-1.98 L 34.172,-34.17 c -0.545,-0.545 -1.438,-0.545 -1.981,0 L 0,-1.98 C -0.543,-1.436 -0.543,-0.543 0,0"
         style="fill:#fccf34;fill-opacity:1;fill-rule:evenodd;stroke:none"
         id="path3261"
         inkscape:connector-curvature="0" />
    </g>
    <g
       id="g3263"
       transform="matrix(1.25,0,0,-1.25,350.27003,443.7266)">
      <path
         d="m 0,0 5.168,2.846 0.489,4.238 3.562,2.844 c 0.422,-0.791 0.828,-1.58 1.182,-2.406 0.398,-0.926 0.748,-1.875 1.033,-2.84 0.529,-1.799 0.906,-3.657 1.057,-5.526 0.107,-1.297 0.083,-2.578 0.009,-3.875 l 6.989,0 2.232,3.053 2.236,0 -1.189,-3.541 c 0.326,-0.293 0.637,-0.586 0.918,-0.922 0.322,-0.391 0.605,-0.82 0.846,-1.264 0.494,-0.91 0.769,-1.902 0.841,-2.929 0.051,-0.715 -0.029,-1.403 -0.158,-2.104 l -28.426,0 -0.07,-0.763 2.162,-0.762 5.311,0 0,-1.113 -13.899,0 c -1.138,0 -2.238,0.48 -3.084,1.22 -0.666,0.584 -1.131,1.33 -1.525,2.112 l 0.836,0.486 1.119,-1.527 c 0.58,-0.791 1.57,-1.192 2.514,-1.319 0.443,-0.06 0.843,0.041 1.259,0.207 l 2.93,1.182 0.211,0.695 c -0.635,0.332 -1.258,0.682 -1.857,1.076 -0.883,0.579 -1.711,1.213 -2.495,1.92 -0.64,0.58 -1.228,1.207 -1.794,1.864 l 0.628,3.47 7.893,3.678 2.932,4.236 0.492,0 L 0,0 z"
         style="fill:#231f20;fill-opacity:1;fill-rule:evenodd;stroke:none"
         id="path3265"
         inkscape:connector-curvature="0" />
    </g>
    <g
       id="g3267"
       transform="matrix(1.25,0,0,-1.25,357.42891,460.4746)">
      <path
         d="m 0,0 16.832,0 c -0.166,-0.211 -0.342,-0.414 -0.541,-0.592 -0.27,-0.244 -0.59,-0.445 -0.883,-0.662 -0.367,-0.273 -0.613,-0.482 -1.09,-0.482 l -11.105,0 c -0.315,0 -0.627,0.056 -0.928,0.15 C 1.916,-1.471 1.566,-1.27 1.224,-1.088 0.736,-0.824 0.34,-0.432 0,0"
         style="fill:#231f20;fill-opacity:1;fill-rule:evenodd;stroke:none"
         id="path3269"
         inkscape:connector-curvature="0" />
    </g>
    <g
       id="g3271"
       transform="matrix(1.25,0,0,-1.25,353.85017,450.40873)">
      <path
         d="M 0,0 3.492,3.055 2.654,5 -1.956,3.195 0,0 z"
         style="fill:#fccf34;fill-opacity:1;fill-rule:evenodd;stroke:none"
         id="path3273"
         inkscape:connector-curvature="0" />
    </g>
    <g
       id="g3275"
       transform="matrix(1.25,0,0,-1.25,359.59891,431.5001)">
      <path
         d="m 0,0 c -0.738,-0.66 -1.64,-0.92 -2.574,-0.559 -2.742,1.063 0.939,0.608 0.17,2.127 -0.207,0.409 -1.738,0.223 -1.627,0.69 0.248,1.021 1.205,1.84 2.252,1.914 C -0.592,4.258 0.395,3.527 0.674,2.373 0.869,1.568 0.639,0.572 0,0"
         style="fill:#231f20;fill-opacity:1;fill-rule:evenodd;stroke:none"
         id="path3277"
         inkscape:connector-curvature="0" />
    </g>
  </g>
</svg>
