<?xml version="1.0" encoding="UTF-8" standalone="no"?>
<!-- Created with Inkscape (http://www.inkscape.org/) -->

<svg
   xmlns:dc="http://purl.org/dc/elements/1.1/"
   xmlns:cc="http://creativecommons.org/ns#"
   xmlns:rdf="http://www.w3.org/1999/02/22-rdf-syntax-ns#"
   xmlns:svg="http://www.w3.org/2000/svg"
   xmlns="http://www.w3.org/2000/svg"
   xmlns:sodipodi="http://sodipodi.sourceforge.net/DTD/sodipodi-0.dtd"
   xmlns:inkscape="http://www.inkscape.org/namespaces/inkscape"
   width="90.632187"
   height="90.626877"
   id="svg4330"
   version="1.1"
   inkscape:version="0.48.1 "
   sodipodi:docname="New document 12">
  <defs
     id="defs4332" />
  <sodipodi:namedview
     id="base"
     pagecolor="#ffffff"
     bordercolor="#666666"
     borderopacity="1.0"
     inkscape:pageopacity="0.0"
     inkscape:pageshadow="2"
     inkscape:zoom="0.35"
     inkscape:cx="-36.826765"
     inkscape:cy="22.45629"
     inkscape:document-units="px"
     inkscape:current-layer="layer1"
     showgrid="false"
     fit-margin-top="0"
     fit-margin-left="0"
     fit-margin-right="0"
     fit-margin-bottom="0"
     inkscape:window-width="469"
     inkscape:window-height="403"
     inkscape:window-x="610"
     inkscape:window-y="62"
     inkscape:window-maximized="0" />
  <metadata
     id="metadata4335">
    <rdf:RDF>
      <cc:Work
         rdf:about="">
        <dc:format>image/svg+xml</dc:format>
        <dc:type
           rdf:resource="http://purl.org/dc/dcmitype/StillImage" />
        <dc:title></dc:title>
      </cc:Work>
    </rdf:RDF>
  </metadata>
  <g
     inkscape:label="Layer 1"
     inkscape:groupmode="layer"
     id="layer1"
     transform="translate(-411.82677,-464.1916)">
    <g
       id="g3215"
       transform="matrix(1.25,0,0,-1.25,413.42739,506.38191)">
      <path
         d="m 0,0 32.471,32.471 c 1.374,1.375 3.621,1.375 4.996,0 L 69.944,0 c 1.375,-1.375 1.375,-3.623 0,-4.996 L 37.467,-37.468 c -1.375,-1.375 -3.622,-1.375 -4.996,0 L 0,-4.996 C -1.374,-3.623 -1.374,-1.375 0,0"
         style="fill:#fccf34;fill-opacity:1;fill-rule:nonzero;stroke:none"
         id="path3217"
         inkscape:connector-curvature="0" />
    </g>
    <g
       id="g3219"
       transform="matrix(1.25,0,0,-1.25,413.42739,506.38191)">
      <path
         d="m 0,0 32.471,32.471 c 1.374,1.375 3.621,1.375 4.996,0 L 69.944,0 c 1.375,-1.375 1.375,-3.623 0,-4.996 L 37.467,-37.468 c -1.375,-1.375 -3.622,-1.375 -4.996,0 L 0,-4.996 C -1.374,-3.623 -1.374,-1.375 0,0 z"
         style="fill:none;stroke:#231f20;stroke-width:0.5;stroke-linecap:butt;stroke-linejoin:miter;stroke-miterlimit:4;stroke-opacity:1;stroke-dasharray:none"
         id="path3221"
         inkscape:connector-curvature="0" />
    </g>
    <g
       id="g3223"
       transform="matrix(1.25,0,0,-1.25,414.40489,507.02766)">
      <path
         d="m 0,0 32.205,32.204 c 1.091,1.09 2.873,1.09 3.965,0 L 68.379,0 c 1.09,-1.091 1.09,-2.874 0,-3.964 L 36.17,-36.168 c -1.092,-1.09 -2.874,-1.09 -3.965,0 L 0,-3.964 C -1.09,-2.874 -1.09,-1.091 0,0"
         style="fill:#231f20;fill-opacity:1;fill-rule:evenodd;stroke:none"
         id="path3225"
         inkscape:connector-curvature="0" />
    </g>
    <g
       id="g3227"
       transform="matrix(1.25,0,0,-1.25,415.66364,508.26665)">
      <path
         d="m 0,0 32.19,32.189 c 0.544,0.545 1.436,0.545 1.981,0 L 66.366,0 c 0.545,-0.545 0.545,-1.437 0,-1.98 L 34.171,-34.171 c -0.545,-0.545 -1.437,-0.545 -1.981,0 L 0,-1.98 C -0.544,-1.437 -0.544,-0.545 0,0"
         style="fill:#fccf34;fill-opacity:1;fill-rule:evenodd;stroke:none"
         id="path3229"
         inkscape:connector-curvature="0" />
    </g>
    <g
       id="g3231"
       transform="matrix(1.25,0,0,-1.25,432.04101,505.70078)">
      <path
         d="M 0,0 C -0.163,0.4 -0.653,1.064 -0.269,1.477 0.163,2.07 0.891,2.411 1.423,2.904 2.03,3.466 2.494,4.096 2.988,4.752 3.36,5.348 4.039,5.66 4.594,6.048 3.416,6.088 1.7,5.594 1.446,7.225 1.489,7.742 2.292,7.029 2.579,6.982 3.225,6.879 3.909,7.068 4.53,7.227 5.002,7.346 5.565,7.584 6.049,7.417 6.629,7.217 6.618,6.734 6.988,6.357 7.343,5.995 8.289,6.616 8.651,6.746 9.305,7.225 9.344,5.87 8.884,5.582 8.746,5.495 7.889,5.25 8.464,5.018 c 0.597,-0.2 1.209,-0.362 1.834,-0.442 0.846,-0.108 1.64,0.004 2.464,0.189 0.751,0.169 1.385,0.139 2.139,-0.003 1.632,-0.309 3.209,-0.605 4.872,-0.672 3.094,-0.124 6.198,0.155 9.286,0.332 1.236,0.07 2.469,0.351 3.703,0.377 0.586,0.012 1.131,-0.161 1.709,-0.205 0.574,-0.045 1.248,0.117 1.676,-0.346 1.918,-1.398 1.89,-3.867 1.791,-6.004 -0.051,-1.115 -0.496,-2.547 0.381,-3.424 0.691,-0.693 1.804,-1.363 1.125,-2.537 -0.307,-0.527 0.377,-2.218 -0.241,-2.223 -0.896,-0.008 -0.939,1.071 -0.992,1.69 -0.072,0.852 -0.732,1.473 -1.105,2.195 -0.299,0.578 -0.08,1.387 -0.063,2.014 0.02,0.707 0.002,1.417 -0.049,2.123 -0.054,0.752 -0.144,1.505 -0.298,2.244 -0.088,0.416 -0.247,1.623 -0.665,1.856 -0.076,0.043 0.26,-1.514 0.301,-1.688 0.287,-0.773 0.383,-1.594 0.362,-2.415 -0.034,-1.337 -0.487,-2.774 -0.358,-4.1 0.059,-0.612 0.526,-0.885 0.832,-1.358 0.375,-0.578 0.086,-1.103 -0.107,-1.684 -0.492,-1.465 -0.227,-2.94 -0.032,-4.43 0.055,-0.408 0.463,-1.322 0.055,-1.633 -0.556,-0.426 0.024,-1.047 -0.289,-1.6 -0.269,-0.476 -3.486,-0.652 -3.254,0.024 0.438,0.428 1.076,0.629 1.379,1.193 0.295,0.547 0.34,1.365 0.385,1.975 0.105,1.414 -0.279,3.25 -1.313,4.302 -0.689,-1.224 -1.205,-2.296 -1.437,-3.693 -0.088,-0.523 -0.1,-1.244 -0.363,-1.713 -0.252,-0.451 -0.741,-0.25 -0.842,-0.906 -0.035,-0.217 -0.033,-0.435 -0.043,-0.654 -0.356,-0.086 -0.715,-0.151 -1.076,-0.196 -0.483,-0.058 -1.416,-0.289 -1.868,-0.082 -0.369,0.172 1.192,1.415 1.372,1.653 0.64,0.857 0.919,1.933 1.4,2.885 0.234,0.47 0.357,1.285 0.16,1.787 -0.158,0.402 -0.801,0.088 -0.9,-0.202 -0.449,-1.279 -0.805,0.167 -1.639,0.032 -0.314,0.06 -0.379,-0.518 -0.723,-0.557 -0.261,-0.029 -0.423,0.199 -0.451,0.426 -0.039,0.316 -0.342,0.451 -0.586,0.611 -0.4,0.262 -0.847,0.55 -1.179,0.898 -0.295,0.31 -0.866,0.105 -1.25,0.101 -1.161,-0.013 -2.233,0.321 -3.358,0.522 -0.73,0.129 -1.793,0.207 -2.483,-0.125 -1.088,-0.524 -0.942,-2.597 -0.964,-3.585 -0.014,-0.629 -0.101,-1.354 0.027,-1.973 0.095,-0.459 0.509,-0.973 0.282,-1.455 -0.105,-0.228 -0.425,-0.09 -0.554,-0.311 -0.098,-0.17 -0.106,-0.429 -0.138,-0.619 -0.127,-0.752 -1.164,-0.574 -1.787,-0.646 -0.112,-0.012 -1.846,-0.266 -1.345,0.273 0.435,0.385 0.949,0.676 1.29,1.157 0.564,0.793 0.629,2.025 0.532,2.953 -0.078,0.732 -0.319,1.416 -0.533,2.117 -0.522,-0.692 -0.92,-1.822 -1.029,-2.697 -0.072,-0.575 0.045,-1.664 -0.237,-2.129 -0.091,-0.151 -0.429,0.006 -0.543,-0.268 -0.095,-0.228 -0.04,-0.59 -0.176,-0.793 -0.185,-0.275 -2.196,-0.129 -2.561,-0.144 -0.125,0.847 0.789,0.97 1.316,1.394 0.771,0.621 0.837,2.617 0.646,3.506 -0.192,0.898 -0.387,1.559 -0.34,2.497 0.027,0.551 -1.127,0.18 -1.522,0.4 -0.683,0.385 -0.694,1.243 -0.896,1.911 -0.296,0.984 -0.939,1.847 -1.545,2.66 -0.937,1.258 -1.853,3.2 -3.583,3.445 C 4.227,-0.633 3.344,-0.812 2.499,-0.799 1.8,-0.786 0.321,-0.787 0,0"
         style="fill:#231f20;fill-opacity:1;fill-rule:evenodd;stroke:none"
         id="path3233"
         inkscape:connector-curvature="0" />
    </g>
  </g>
</svg>
