<?xml version="1.0" encoding="UTF-8" standalone="no"?>
<!-- Created with Inkscape (http://www.inkscape.org/) -->

<svg
   xmlns:dc="http://purl.org/dc/elements/1.1/"
   xmlns:cc="http://creativecommons.org/ns#"
   xmlns:rdf="http://www.w3.org/1999/02/22-rdf-syntax-ns#"
   xmlns:svg="http://www.w3.org/2000/svg"
   xmlns="http://www.w3.org/2000/svg"
   xmlns:sodipodi="http://sodipodi.sourceforge.net/DTD/sodipodi-0.dtd"
   xmlns:inkscape="http://www.inkscape.org/namespaces/inkscape"
   width="90.623749"
   height="90.625313"
   id="svg4618"
   version="1.1"
   inkscape:version="0.48.1 "
   sodipodi:docname="New document 22">
  <defs
     id="defs4620" />
  <sodipodi:namedview
     id="base"
     pagecolor="#ffffff"
     bordercolor="#666666"
     borderopacity="1.0"
     inkscape:pageopacity="0.0"
     inkscape:pageshadow="2"
     inkscape:zoom="0.35"
     inkscape:cx="111.74045"
     inkscape:cy="-14.68734"
     inkscape:document-units="px"
     inkscape:current-layer="layer1"
     showgrid="false"
     inkscape:window-width="469"
     inkscape:window-height="403"
     inkscape:window-x="607"
     inkscape:window-y="51"
     inkscape:window-maximized="0"
     fit-margin-top="0"
     fit-margin-left="0"
     fit-margin-right="0"
     fit-margin-bottom="0" />
  <metadata
     id="metadata4623">
    <rdf:RDF>
      <cc:Work
         rdf:about="">
        <dc:format>image/svg+xml</dc:format>
        <dc:type
           rdf:resource="http://purl.org/dc/dcmitype/StillImage" />
        <dc:title></dc:title>
      </cc:Work>
    </rdf:RDF>
  </metadata>
  <g
     inkscape:label="Layer 1"
     inkscape:groupmode="layer"
     id="layer1"
     transform="translate(-263.25955,-427.04953)">
    <g
       id="g3503"
       transform="matrix(1.25,0,0,-1.25,264.85549,469.25203)">
      <path
         d="m 0,0 32.486,32.486 c 1.368,1.368 3.608,1.368 4.975,0 L 69.947,0 c 1.367,-1.369 1.367,-3.608 0,-4.977 L 37.461,-37.463 c -1.367,-1.367 -3.607,-1.367 -4.975,0 L 0,-4.977 C -1.369,-3.608 -1.369,-1.369 0,0"
         style="fill:#fccf34;fill-opacity:1;fill-rule:nonzero;stroke:none"
         id="path3505"
         inkscape:connector-curvature="0" />
    </g>
    <g
       id="g3507"
       transform="matrix(1.25,0,0,-1.25,264.85549,469.25203)">
      <path
         d="m 0,0 32.486,32.486 c 1.368,1.368 3.608,1.368 4.975,0 L 69.947,0 c 1.367,-1.369 1.367,-3.608 0,-4.977 L 37.461,-37.463 c -1.367,-1.367 -3.607,-1.367 -4.975,0 L 0,-4.977 C -1.369,-3.608 -1.369,-1.369 0,0 z"
         style="fill:none;stroke:#231f20;stroke-width:0.5;stroke-linecap:butt;stroke-linejoin:miter;stroke-miterlimit:4;stroke-opacity:1;stroke-dasharray:none"
         id="path3509"
         inkscape:connector-curvature="0" />
    </g>
    <g
       id="g3511"
       transform="matrix(1.25,0,0,-1.25,266.03674,469.63203)">
      <path
         d="m 0,0 31.844,31.844 c 1.201,1.202 3.168,1.202 4.369,0 L 68.057,0 c 1.201,-1.201 1.201,-3.167 0,-4.368 L 36.213,-36.214 c -1.201,-1.201 -3.168,-1.201 -4.369,0 L 0,-4.368 C -1.201,-3.167 -1.201,-1.201 0,0"
         style="fill:#231f20;fill-opacity:1;fill-rule:evenodd;stroke:none"
         id="path3513"
         inkscape:connector-curvature="0" />
    </g>
    <g
       id="g3515"
       transform="matrix(1.25,0,0,-1.25,267.47299,470.53703)">
      <path
         d="m 0,0 31.42,31.42 c 0.802,0.803 2.117,0.803 2.92,0 L 65.76,0 c 0.802,-0.803 0.802,-2.117 0,-2.92 L 34.34,-34.341 c -0.803,-0.803 -2.118,-0.803 -2.92,0 L 0,-2.92 C -0.803,-2.117 -0.803,-0.803 0,0"
         style="fill:#fccf34;fill-opacity:1;fill-rule:evenodd;stroke:none"
         id="path3517"
         inkscape:connector-curvature="0" />
    </g>
    <g
       id="g3519"
       transform="matrix(1.25,0,0,-1.25,314.67049,462.22703)">
      <path
         d="m 0,0 3.898,0 0,-8.65 L 0,-9.98 0,0 z m 1.847,-16.642 c -0.504,-0.449 -1.16,-0.736 -1.879,-0.769 l 0,2.648 1.879,-1.879 z m 1.018,2.102 c -0.041,-0.721 -0.334,-1.377 -0.793,-1.879 l -1.881,1.879 2.674,0 z m -0.781,2.207 c 0.457,-0.506 0.748,-1.166 0.781,-1.891 l -2.674,0 1.893,1.891 z m -5.301,-1.891 c 0.033,0.719 0.318,1.373 0.769,1.879 l 1.879,-1.879 -2.648,0 z m 0.781,-2.183 c -0.451,0.502 -0.74,1.152 -0.779,1.867 l 2.646,0 -1.867,-1.867 z m 2.09,4.318 -0.094,0 -1.402,0.266 c -0.137,-0.09 -0.264,-0.19 -0.383,-0.297 l 1.879,-1.881 0,1.912 z m 2.185,0 -1.871,0 0,-1.912 1.893,1.892 c -0.008,0.006 -0.016,0.012 -0.022,0.02 m -3.275,0.49 1.047,-0.207 -0.002,0.475 c -0.369,-0.028 -0.723,-0.119 -1.045,-0.268 m 16.215,-5.088 c -0.506,-0.451 -1.16,-0.736 -1.879,-0.769 l 0,2.648 1.879,-1.879 z m 1.016,2.102 c -0.04,-0.721 -0.334,-1.377 -0.792,-1.881 l -1.88,1.881 2.672,0 z m -0.78,2.207 c 0.457,-0.506 0.746,-1.166 0.781,-1.893 l -2.673,0 1.892,1.893 z m -0.519,0.459 c 0.103,-0.072 0.203,-0.152 0.295,-0.236 l -1.891,-1.891 0,1.957 1.596,0 0,0.17 z m -3.791,-0.248 c 0.027,0.027 0.058,0.053 0.088,0.078 l 1.791,0 0,-1.957 -1.879,1.879 z m -0.993,-2.104 c 0.036,0.721 0.321,1.375 0.77,1.879 l 1.879,-1.879 -2.649,0 z m 0.782,-2.181 c -0.451,0.502 -0.741,1.152 -0.78,1.867 l 2.647,0 -1.867,-1.867 z m 2.09,-1.004 c -0.715,0.041 -1.366,0.33 -1.868,0.781 l 1.868,1.867 0,-2.648 z M -24.112,-4.82 c -0.4,-0.236 -0.843,-0.371 -1.363,-0.326 l -0.631,0.121 -0.336,0.233 -0.176,0.242 0.118,0.17 0.63,0.156 0.188,0.032 0.139,0.058 0.505,-0.049 0.315,0.041 0.24,0.08 0.082,0.035 0.049,-0.08 0.188,-0.568 c 0.033,-0.084 0.021,-0.061 0.052,-0.145 m 15.321,-5.578 -0.838,0.182 -0.055,-0.395 0,-0.416 0.041,-0.189 0.184,-0.303 0.156,-0.189 0.224,-0.147 0.416,-0.193 0.381,-0.197 0.071,-0.084 0.045,-0.36 0.263,-0.98 0.305,-0.846 0.301,-0.631 0.236,-0.357 0.242,-0.27 0.129,-0.16 0.031,-0.193 -0.045,-0.197 0.045,-0.125 0.1,-0.049 0.104,0.045 0.07,0.052 0.228,0.059 0.184,-0.035 0.197,-0.188 0.098,-0.238 0.103,-0.291 0.077,-0.412 0,-0.233 -0.094,-0.111 -0.928,0.461 -0.129,0.174 -0.107,0.197 -0.143,0.145 -0.18,0.084 -0.205,0.058 -0.158,0.094 -0.129,0.156 -0.125,0.336 -0.314,0.735 -0.375,0.765 -0.319,0.586 -0.218,0.35 -0.207,0.256 -0.354,0.322 -0.312,0.25 -0.346,0.336 -0.639,0.568 -0.533,0.344 -0.379,0.307 -0.055,-0.221 0,-0.479 0.063,-0.48 0.201,-0.479 0.055,-0.357 0.017,-0.148 -0.041,-0.116 -0.377,-0.332 -1.22,-1.033 -0.471,-0.525 -0.309,-0.375 -0.179,-0.309 -0.104,-0.166 -0.146,-0.086 -0.139,-0.017 -0.037,-0.053 0.072,-0.125 0.112,-0.139 0.041,-0.189 -0.022,-0.16 -0.023,-0.139 -0.451,-0.315 -0.333,-0.164 -0.255,-0.068 -0.17,0.045 0,0.098 0.166,0.73 0.062,0.121 0.135,0.268 0.094,0.193 0.004,0.201 0.041,0.301 0.148,0.205 0.295,0.246 0.371,0.332 0.219,0.201 0.398,0.448 0.457,0.56 0.225,0.321 0.07,0.408 -0.097,0.283 -0.26,0.613 -0.197,0.479 -0.139,0.381 -0.166,0.738 -0.024,0.807 -0.753,-0.338 -0.834,-0.299 -1.055,-0.301 -1.291,-0.381 -0.635,-0.111 -0.646,-0.002 -0.092,-0.979 -0.076,-0.697 -0.024,-0.976 0.082,-0.438 0.166,-0.283 0.25,-0.215 0.426,-0.322 0.441,-0.291 0.207,-0.201 0.049,-0.153 0.035,-0.193 0.131,-0.102 0.143,0.014 0.094,0.088 0.201,0.096 0.144,-0.028 0.237,-0.17 0.287,-0.322 0.211,-0.479 0.035,-0.183 -0.076,-0.072 -0.225,-0.004 -0.51,0.062 -0.304,0.102 -0.268,0.121 -0.291,0.183 -0.18,0.131 -0.246,0.241 -0.25,0.287 -0.478,0.492 -0.623,0.523 -0.305,0.266 -0.135,0.195 -0.084,0.278 -0.041,0.47 c -0.06,0.309 -0.041,0.235 -0.08,0.479 l -0.027,0.22 -0.09,0.583 -0.098,0.675 -0.117,0.873 -0.322,0.121 -0.014,-0.144 -0.191,-0.135 -0.752,-0.603 c -0.319,-0.17 -0.617,-0.33 -0.922,-0.52 l -0.305,-0.236 -0.402,-0.319 -0.238,-0.218 -0.202,-0.297 -0.183,-0.375 -0.219,-0.555 -0.094,-0.519 0,-0.381 -0.054,-0.358 -0.063,-0.259 -0.097,-0.09 -0.069,-0.149 0.041,-0.201 0.094,-0.066 0.076,-0.328 0.014,-0.215 -0.166,-0.254 -0.336,-0.274 -0.344,-0.166 -0.283,-0.07 -0.139,0.049 0.024,0.201 0.134,0.693 0.112,0.166 0.09,0.229 0.011,0.232 -0.004,0.332 0.055,0.368 0.291,0.863 0.115,0.461 0.215,0.963 0.069,0.336 0.138,0.191 0.197,0.197 0.125,0.121 0.163,0.205 0.832,1.264 0.267,0.379 0.072,0.131 0,0.09 -0.681,1.217 -0.039,0.259 0.039,0.416 0.113,0.492 0,0.19 0,0.151 -0.416,1.093 -0.355,1.185 c -0.276,-0.316 -0.723,-0.603 -1.354,-0.443 -0.256,0.039 -0.443,0.147 -0.699,0.188 l -0.565,0.281 -0.201,0.355 -0.135,-0.041 -0.076,0.01 -0.138,0.04 -0.198,0.103 -0.326,0.103 -0.037,0.117 -0.094,0.008 -0.076,0.139 -0.021,0.229 0,0.117 0.035,0.182 0.014,0.202 0.062,0.174 0.193,0.121 0.237,0.112 0.765,0.694 0.358,0.372 0.013,0.184 0.1,0.107 0.209,0.111 0.516,0.368 0.38,0.25 -0.041,0.072 -0.263,0.381 -0.112,0.222 0,0.234 0.071,0.036 0.187,-0.152 0.198,-0.194 0.265,-0.111 -0.082,0.269 -0.035,0.264 0.072,0.115 0.157,0 0.152,-0.191 0.228,-0.305 0.215,-0.187 0.153,-0.19 0.152,-0.226 3.074,-2.942 1.086,-0.615 c 0.57,0.024 0.662,-0.193 0.938,-0.265 l 5.423,0.101 0.362,-0.152 0.611,-0.143 0.838,-0.34 0.486,-0.259 0.453,-0.095 0.319,0 0.334,0.057 0.619,0 0.482,-0.16 0.578,-0.336 0.358,-0.3 0.353,-0.577 0.18,-0.699 0.143,-1.254 0.041,-0.756 0.076,-0.533 -0.026,-0.162 4.811,-1.029 c 0.506,0.342 1.103,0.556 1.748,0.595 l -0.047,10.864 -2.299,0 0,1.361 17.235,0 0,-12.726 c 1.058,-0.608 1.773,-1.749 1.773,-3.051 0,-1.936 -1.58,-3.514 -3.516,-3.514 -1.935,0 -3.513,1.578 -3.513,3.514 0,0.89 0.334,1.705 0.885,2.326 l -7.631,0 c 0.525,-0.615 0.843,-1.412 0.843,-2.281 0,-1.936 -1.578,-3.514 -3.513,-3.514 -1.936,0 -3.514,1.578 -3.514,3.514 0,1.064 0.477,2.019 1.227,2.664 l -4.418,0.894 0.177,-0.412 0.239,-0.461 0.277,-0.582 0.139,-0.537 -0.041,-0.537 -0.215,-0.34 -0.16,-0.082 -0.139,-0.121 -0.322,-0.434 -0.059,0.416 -0.242,0.596 -0.353,0.363 -0.34,0.416 -0.077,0.461 -0.039,0.479 -0.162,0.422 -0.34,0.496 -0.218,0.098 -0.035,0.173 z m -0.793,0.498 0.738,-0.16 -0.031,0.424 -0.018,0.695 0.119,0.836 -0.021,0.52 -0.18,0.56 -0.26,0.336 -0.357,0.197 -0.365,0.092 0.199,-0.281 0.228,-0.603 0.073,-0.377 0,-0.42 -0.038,-0.824 -0.07,-0.87 -0.017,-0.125 z m 9.238,-7.509 c -0.715,0.039 -1.365,0.328 -1.867,0.779 l 1.867,1.867 0,-2.646 z"
         style="fill:#231f20;fill-opacity:1;fill-rule:evenodd;stroke:none"
         id="path3521"
         inkscape:connector-curvature="0" />
    </g>
  </g>
</svg>
