<?xml version="1.0" encoding="UTF-8" standalone="no"?>
<!-- Created with Inkscape (http://www.inkscape.org/) -->

<svg
   xmlns:dc="http://purl.org/dc/elements/1.1/"
   xmlns:cc="http://creativecommons.org/ns#"
   xmlns:rdf="http://www.w3.org/1999/02/22-rdf-syntax-ns#"
   xmlns:svg="http://www.w3.org/2000/svg"
   xmlns="http://www.w3.org/2000/svg"
   xmlns:sodipodi="http://sodipodi.sourceforge.net/DTD/sodipodi-0.dtd"
   xmlns:inkscape="http://www.inkscape.org/namespaces/inkscape"
   width="91.246872"
   height="91.245628"
   id="svg4788"
   version="1.1"
   inkscape:version="0.48.1 "
   sodipodi:docname="New document 27">
  <defs
     id="defs4790" />
  <sodipodi:namedview
     id="base"
     pagecolor="#ffffff"
     bordercolor="#666666"
     borderopacity="1.0"
     inkscape:pageopacity="0.0"
     inkscape:pageshadow="2"
     inkscape:zoom="1.4"
     inkscape:cx="9.6470378"
     inkscape:cy="79.153319"
     inkscape:document-units="px"
     inkscape:current-layer="layer1"
     showgrid="false"
     fit-margin-top="0"
     fit-margin-left="0"
     fit-margin-right="0"
     fit-margin-bottom="0"
     inkscape:window-width="469"
     inkscape:window-height="403"
     inkscape:window-x="313"
     inkscape:window-y="68"
     inkscape:window-maximized="0" />
  <metadata
     id="metadata4793">
    <rdf:RDF>
      <cc:Work
         rdf:about="">
        <dc:format>image/svg+xml</dc:format>
        <dc:type
           rdf:resource="http://purl.org/dc/dcmitype/StillImage" />
        <dc:title></dc:title>
      </cc:Work>
    </rdf:RDF>
  </metadata>
  <g
     inkscape:label="Layer 1"
     inkscape:groupmode="layer"
     id="layer1"
     transform="translate(-357.23371,-375.3108)">
    <g
       id="g3471"
       transform="matrix(1.25,0,0,-1.25,405.79527,465.02611)">
      <path
         d="m 0,0 c -1.299,-1.299 -3.404,-1.299 -4.703,0 l -32.922,32.922 c -1.299,1.299 -1.299,3.405 0,4.704 l 32.922,32.922 c 1.299,1.299 3.404,1.299 4.703,0 L 32.924,37.626 c 1.299,-1.299 1.299,-3.405 0,-4.704 L 0,0 z"
         style="fill:#fccf34;fill-opacity:1;fill-rule:nonzero;stroke:none"
         id="path3473"
         inkscape:connector-curvature="0" />
    </g>
    <g
       id="g3475"
       transform="matrix(1.25,0,0,-1.25,405.79527,465.02611)">
      <path
         d="m 0,0 c -1.299,-1.299 -3.404,-1.299 -4.703,0 l -32.922,32.922 c -1.299,1.299 -1.299,3.405 0,4.704 l 32.922,32.922 c 1.299,1.299 3.404,1.299 4.703,0 L 32.924,37.626 c 1.299,-1.299 1.299,-3.405 0,-4.704 L 0,0 z"
         style="fill:none;stroke:#231f20;stroke-width:0.5;stroke-linecap:butt;stroke-linejoin:miter;stroke-miterlimit:4;stroke-opacity:1;stroke-dasharray:none"
         id="path3477"
         inkscape:connector-curvature="0" />
    </g>
    <g
       id="g3487"
       transform="matrix(1.25,0,0,-1.25,403.8379,463.06611)">
      <path
         d="m 0,0 c -0.434,-0.433 -1.137,-0.433 -1.569,0 l -32.922,32.922 c -0.433,0.432 -0.433,1.136 0,1.568 l 32.922,32.923 c 0.432,0.432 1.135,0.432 1.569,0 L 32.921,34.49 c 0.434,-0.432 0.434,-1.136 0,-1.568 L 0,0 z M 33.863,35.431 0.939,68.353 c -0.951,0.952 -2.498,0.952 -3.449,0 L -35.432,35.431 c -0.951,-0.952 -0.951,-2.498 0,-3.45 L -2.51,-0.941 c 0.951,-0.951 2.498,-0.951 3.449,0 l 32.924,32.922 c 0.951,0.952 0.951,2.498 0,3.45"
         style="fill:#231f20;fill-opacity:1;fill-rule:nonzero;stroke:none"
         id="path3489"
         inkscape:connector-curvature="0" />
    </g>
    <g
       id="g3491"
       transform="matrix(1.25,0,0,-1.25,425.53152,424.70236)">
      <path
         d="m 0,0 c -0.033,0.19 -0.066,0.379 -0.102,0.568 -0.027,0.154 -0.097,0.347 -0.089,0.505 0.025,0.434 0.05,0.87 0.076,1.304 C -0.076,3.064 -0.039,3.748 0.1,4.422 0.174,4.781 0.289,5.15 0.309,5.517 0.328,5.899 0.385,6.291 0.33,6.671 0.297,6.913 0.262,7.155 0.227,7.397 0.207,7.538 0.139,7.676 0.092,7.81 -0.045,8.203 -0.187,8.562 -0.373,8.934 -0.439,9.069 -0.496,9.199 -0.59,9.315 c -0.158,0.193 -0.316,0.387 -0.474,0.581 -0.217,0.265 -0.543,0.478 -0.807,0.696 -0.547,0.452 -1.221,0.713 -1.893,0.927 -0.304,0.098 -0.611,0.195 -0.916,0.293 -0.187,0.059 -0.379,0.074 -0.576,0.098 l 0.055,0 c -0.727,0.112 -1.455,0.187 -2.192,0.13 -0.791,-0.06 -1.568,-0.208 -2.349,-0.335 -0.451,-0.073 -0.897,-0.245 -1.334,-0.369 -0.516,-0.146 -1.029,-0.293 -1.545,-0.439 l 0.082,0 c -0.428,-0.03 -0.85,-0.013 -1.279,0 -0.076,0.003 -0.176,0.065 -0.246,0.092 -0.112,0.042 -0.223,0.084 -0.334,0.127 -0.18,0.068 -0.282,0.316 -0.467,0.383 0.068,-0.275 0.17,-0.53 0.328,-0.766 -0.17,0.034 -0.334,0.103 -0.465,0.218 -0.152,0.133 -0.215,0.263 -0.301,0.439 -0.119,-0.157 -0.213,-0.324 -0.392,-0.415 -0.18,-0.09 -0.346,-0.089 -0.539,-0.051 0.117,0.079 0.203,0.131 0.246,0.275 0.043,0.145 0.029,0.256 -0.055,0.382 0.012,-0.21 -0.135,-0.455 -0.342,-0.524 -0.029,-0.01 -0.113,-0.05 -0.129,-0.007 -0.027,0.075 -0.054,0.151 -0.082,0.226 -0.039,0.107 0.061,0.21 0.116,0.305 -0.182,-0.113 -0.315,-0.231 -0.467,-0.382 -0.049,-0.05 -0.137,-0.184 -0.205,-0.195 -0.116,-0.017 -0.229,-0.035 -0.342,-0.053 0,0.051 -0.024,0.128 0.027,0.149 0.063,0.024 0.102,0.031 0.139,0.086 0.078,0.117 0.139,0.237 0.201,0.363 0.102,0.201 0.313,0.375 0.455,0.553 -0.137,-0.027 -0.305,-0.033 -0.43,-0.091 -0.189,-0.086 -0.376,-0.171 -0.566,-0.257 -0.117,-0.053 -0.293,-0.036 -0.42,-0.036 -0.201,0 -0.314,0.013 -0.502,0.082 l 0.028,0.027 0,-0.027 c 0.029,0.098 0.054,0.19 0.097,0.281 0.045,0.099 0.149,0.239 0.151,0.349 -0.123,-0.122 -0.211,-0.232 -0.372,-0.294 -0.195,-0.075 -0.392,-0.15 -0.587,-0.226 0.046,0.174 0.127,0.343 0.082,0.52 -0.041,-0.108 -0.051,-0.2 -0.151,-0.259 -0.129,-0.075 -0.22,-0.151 -0.369,-0.151 0.053,0.184 0.092,0.354 0.192,0.519 -0.098,-0.07 -0.217,-0.134 -0.301,-0.218 -0.096,-0.093 -0.168,-0.223 -0.248,-0.328 0,0.061 -0.022,0.169 0.004,0.224 0.041,0.09 0.084,0.18 0.125,0.27 0.08,0.172 0.23,0.38 0.228,0.573 -0.266,-0.303 -0.576,-0.821 -1.014,-0.821 0.166,0.147 0.274,0.263 0.393,0.45 0.09,0.14 0.188,0.341 0.182,0.508 -0.176,-0.176 -0.346,-0.356 -0.514,-0.538 -0.145,-0.156 -0.344,-0.261 -0.525,-0.366 0.05,0.051 0.152,0.116 0.17,0.188 0.015,0.066 0.019,0.236 0.103,0.251 -0.1,-0.031 -0.076,0.233 -0.082,0.301 -0.07,-0.141 -0.123,-0.289 -0.236,-0.4 -0.114,-0.113 -0.227,-0.226 -0.34,-0.34 0.008,0.067 -0.006,0.213 0.041,0.26 0.068,0.068 0.121,0.156 0.18,0.233 l -0.358,-0.191 c 0.106,0.253 0.193,0.496 0.248,0.766 -0.064,-0.063 -0.127,-0.125 -0.189,-0.188 -0.051,-0.051 -0.073,-0.136 -0.114,-0.195 -0.105,-0.155 -0.222,-0.246 -0.41,-0.246 0.114,0.113 0.19,0.219 0.274,0.355 l 0,-0.054 c 0.049,0.13 0.088,0.246 0.109,0.383 -0.084,-0.048 -0.199,-0.087 -0.266,-0.159 -0.093,-0.102 -0.181,-0.211 -0.281,-0.306 -0.012,0.097 0.037,0.239 0.047,0.339 0.012,0.106 0.008,0.211 0.008,0.318 -0.026,-0.071 -0.09,-0.124 -0.123,-0.192 -0.045,-0.088 -0.098,-0.166 -0.151,-0.248 -0.097,-0.144 -0.232,-0.259 -0.355,-0.382 0.125,0.283 0.246,0.713 -0.029,0.958 -0.053,-0.076 -0.041,-0.197 -0.049,-0.286 -0.01,-0.091 -0.078,-0.175 -0.123,-0.256 -0.084,-0.149 -0.238,-0.32 -0.403,-0.361 0,0.131 0.053,0.289 0.028,0.414 -0.02,0.093 -0.024,0.416 -0.137,0.435 -0.043,-0.175 -0.084,-0.335 -0.156,-0.5 -0.028,-0.068 -0.131,-0.051 -0.149,0.018 -0.021,0.091 -0.023,0.169 -0.023,0.263 -0.131,-0.131 -0.137,-0.312 -0.137,-0.493 -0.146,0.129 -0.215,0.402 -0.301,0.575 -0.046,-0.184 -0.097,-0.363 -0.136,-0.548 l 0,0.028 c -0.026,-0.038 -0.096,-0.243 -0.121,-0.249 -0.057,-0.015 -0.104,-0.045 -0.133,0.016 -0.022,0.044 -0.049,0.068 -0.061,0.115 -0.029,0.111 -0.041,0.264 -0.097,0.364 -0.049,0.089 -0.151,0.17 -0.219,0.247 l 0.109,-0.575 c -0.103,0.035 -0.158,0.029 -0.191,0.136 -0.027,0.09 -0.051,0.181 -0.078,0.272 -0.055,0.193 -0.114,0.366 -0.196,0.55 0.002,-0.167 -0.066,-0.334 -0.052,-0.5 0.017,-0.208 0.035,-0.416 0.052,-0.623 -0.164,0.165 -0.242,0.375 -0.273,0.603 -0.051,-0.077 -0.033,-0.466 -0.15,-0.466 -0.184,0 -0.233,0.169 -0.245,0.329 -0.029,0.393 -0.072,0.783 -0.072,1.177 -0.025,-0.104 -0.051,-0.209 -0.078,-0.312 -0.025,-0.109 -0.086,-0.144 -0.086,-0.263 l -0.082,0.027 0.027,0 c -0.021,0.065 -0.078,0.087 -0.086,0.154 -0.009,0.085 -0.027,0.171 -0.023,0.257 -0.09,-0.146 -0.082,-0.369 -0.082,-0.535 0,-0.066 -0.029,-0.196 -0.055,-0.259 -0.006,-0.017 -0.027,0.022 -0.027,-0.014 0,-0.025 0.008,-0.036 -0.014,-0.048 -0.062,-0.03 -0.088,0.015 -0.142,0.056 -0.061,0.045 -0.139,0.084 -0.155,0.161 -0.023,0.103 -0.044,0.203 -0.056,0.307 -0.02,0.178 -0.008,0.372 0.094,0.524 -0.219,0.043 -0.27,-0.365 -0.383,-0.466 -0.096,0.127 -0.121,0.173 -0.082,0.329 -0.125,-0.042 -0.166,-0.141 -0.221,-0.255 -0.041,-0.086 -0.082,-0.172 -0.123,-0.259 -0.012,-0.026 -0.041,-0.129 -0.068,-0.143 -0.059,-0.032 -0.118,0.011 -0.088,0.067 0.029,0.061 0.047,0.116 0.066,0.181 0.039,0.138 0.113,0.259 0.186,0.382 -0.217,-0.087 -0.373,-0.263 -0.551,-0.415 -0.192,-0.164 -0.389,-0.322 -0.598,-0.461 -0.056,0.058 0.024,0.109 0.055,0.164 0.041,0.074 0.06,0.157 0.088,0.237 0.049,0.145 0.072,0.292 0.158,0.42 -0.164,-0.164 -0.328,-0.328 -0.492,-0.492 -0.07,-0.071 -0.153,-0.044 -0.065,0.045 0.065,0.064 0.104,0.199 0.147,0.282 -0.055,-0.08 -0.111,-0.135 -0.194,-0.191 -0.054,-0.039 -0.222,-0.146 -0.148,0 0.047,0.096 0.07,0.197 0.119,0.292 0.016,0.035 0.008,0.102 0.039,0.125 0.043,0.033 0.09,0.063 0.129,0.103 -0.174,-0.059 -0.242,-0.132 -0.373,-0.264 -0.099,-0.099 -0.183,-0.214 -0.285,-0.311 0,0.209 0.027,0.379 0.092,0.578 0.06,0.179 0.181,0.323 0.263,0.489 -0.259,-0.174 -0.5,-0.361 -0.664,-0.63 -0.037,-0.057 -0.068,-0.129 -0.115,-0.177 -0.058,-0.059 -0.148,-0.052 -0.088,0.04 0.033,0.05 0.028,0.131 0.053,0.194 0.029,0.074 0.066,0.145 0.103,0.218 -0.162,-0.081 -0.275,-0.221 -0.402,-0.348 -0.035,-0.035 -0.094,-0.162 -0.158,-0.141 -0.061,0.02 -0.07,0.01 -0.063,0.071 0.006,0.055 0.008,0.116 0.022,0.172 0.039,0.167 0.135,0.31 0.191,0.469 0.037,0.098 0.073,0.195 0.108,0.292 0.019,0.056 0.129,0.147 0.166,0.197 -0.084,-0.059 -0.225,-0.119 -0.281,-0.202 -0.081,-0.115 -0.176,-0.227 -0.241,-0.349 -0.068,-0.128 -0.136,-0.257 -0.205,-0.385 -0.029,-0.053 -0.054,-0.107 -0.082,-0.161 -0.027,-0.056 -0.103,-0.014 -0.15,0.002 0.101,0.149 0.137,0.308 0.137,0.485 0,0.173 0.109,0.356 0.193,0.5 -0.158,-0.118 -0.291,-0.262 -0.43,-0.402 -0.035,-0.034 -0.041,-0.118 -0.055,-0.163 -0.041,-0.134 -0.08,-0.269 -0.119,-0.402 -0.011,-0.035 -0.027,-0.167 -0.06,-0.186 -0.08,-0.045 -0.156,-0.139 -0.225,-0.063 -0.127,0.142 -0.213,0.28 -0.316,0.436 -0.223,0.334 -0.488,0.61 -0.77,0.893 -0.263,0.263 -0.511,0.543 -0.767,0.814 -0.129,0.139 -0.28,0.237 -0.436,0.348 -0.127,0.091 -0.246,0.213 -0.406,0.24 -0.195,0.032 -0.344,-0.021 -0.484,-0.162 -0.135,-0.134 -0.163,-0.272 -0.147,-0.457 0.031,-0.352 0.025,-0.774 0.246,-1.073 0.07,-0.096 0.141,-0.191 0.211,-0.287 0.043,-0.057 0.088,-0.151 0.145,-0.195 0.146,-0.112 0.296,-0.22 0.431,-0.343 0.143,-0.127 0.262,-0.228 0.356,-0.394 0.054,-0.1 0.058,-0.113 0.041,-0.226 -0.016,-0.086 -0.043,-0.178 -0.035,-0.267 -0.1,0.148 -0.182,0.318 -0.309,0.444 -0.109,0.11 -0.273,0.189 -0.402,0.276 -0.139,0.092 -0.311,0.137 -0.467,0.201 -0.154,0.061 -0.332,0.136 -0.465,0.235 -0.08,0.06 -0.137,0.103 -0.236,0.128 -0.045,0.012 -0.176,0.087 -0.209,0.118 -0.057,0.059 -0.139,0.084 -0.192,0.138 -0.06,0.059 -0.119,0.119 -0.179,0.178 -0.12,0.121 -0.245,0.253 -0.428,0.253 -0.084,0 -0.176,0.005 -0.242,-0.06 -0.051,-0.052 -0.172,-0.146 -0.186,-0.221 -0.068,-0.341 0.014,-0.755 0.129,-1.08 0.072,-0.202 0.156,-0.376 0.258,-0.565 0.072,-0.131 0.148,-0.305 0.254,-0.411 0.136,-0.136 0.273,-0.274 0.416,-0.405 0.156,-0.142 0.31,-0.243 0.492,-0.353 0.305,-0.188 0.514,-0.495 0.691,-0.793 0.03,-0.048 0.065,-0.195 0.116,-0.191 -0.184,-0.061 -0.362,0.034 -0.493,0.164 0.077,-0.182 0.153,-0.365 0.229,-0.549 0.058,-0.142 0.16,-0.238 0.264,-0.354 l -0.055,0.055 c 0.033,-0.124 -0.262,-0.069 -0.328,-0.055 0.193,-0.172 0.404,-0.316 0.523,-0.554 0.01,-0.021 0.088,-0.153 0.072,-0.162 -0.05,-0.034 -0.105,-0.086 -0.164,-0.107 -0.125,-0.047 -0.25,-0.093 -0.377,-0.136 0.061,-0.101 0.122,-0.202 0.182,-0.304 0.076,-0.127 0.051,-0.135 -0.017,-0.27 l 0,0.027 c -0.063,-0.088 -0.131,-0.16 -0.155,-0.266 -0.035,-0.161 -0.029,-0.189 0.045,-0.336 0.053,0.085 0.104,0.171 0.162,0.253 0.084,0.12 0.114,0.158 0.248,0.212 0.051,-0.179 0.139,-0.372 0.166,-0.554 0.03,-0.214 0.026,-0.409 -0.002,-0.623 0.1,0.048 0.121,0.071 0.178,0.164 0.018,0.028 0.065,0.076 0.068,0.109 0.004,0.018 -0.035,0.07 -0.027,0.11 0.065,-0.19 0.027,-0.425 0.027,-0.625 l 0,-0.649 c 0,-0.461 -0.027,-0.919 -0.027,-1.382 l 0.027,0.028 c 0,-0.306 0.028,-0.611 0.028,-0.916 0,-0.15 0.025,-0.311 0.056,-0.457 0.03,-0.142 0.038,-0.313 0.118,-0.435 0.101,-0.15 0.175,-0.293 0.252,-0.457 0.062,-0.134 0.158,-0.264 0.314,-0.309 0.145,-0.042 0.357,0 0.51,0 0.133,0 0.275,0.074 0.365,0.164 0.041,-0.059 0.074,-0.147 0.143,-0.178 0.07,-0.033 0.193,-0.122 0.271,-0.122 0.182,0 0.367,-0.027 0.537,0.039 0.201,0.077 0.342,0.136 0.446,0.343 0.091,0.18 0,0.342 0,0.528 0,0.373 0.113,0.735 0.386,1.009 0.27,0.269 0.526,0.529 0.758,0.833 0.139,0.184 0.266,0.355 0.436,0.51 0.201,0.182 0.404,0.339 0.546,0.569 0.055,0.087 0.124,0.169 0.196,0.242 0.113,0.113 0.16,0.025 0.17,-0.104 0.017,-0.235 0.052,-0.456 0.109,-0.684 0.039,0.12 0.074,0.257 0.129,0.369 0.031,0.058 0.08,0.104 0.111,0.164 0.028,0.058 0.026,0.123 0.061,0.179 -0.012,-0.078 0.045,-0.145 0.06,-0.219 0.016,-0.081 0.032,-0.188 0.082,-0.255 0.065,-0.084 0.108,-0.164 0.157,-0.259 0.027,-0.055 0.002,-0.192 0.002,-0.253 0.048,0.098 0.152,0.175 0.191,0.274 0.041,0.1 0.029,0.246 0.057,0.355 0.121,-0.204 0.164,-0.392 0.164,-0.629 0,-0.244 -0.096,-0.424 -0.221,-0.63 0.068,-0.012 0.143,0.038 0.193,0.077 0.067,0.048 0.157,0.08 0.213,0.136 0.123,0.122 0.19,0.265 0.266,0.418 0.06,0.119 0.072,0.075 0.144,-0.02 0.053,-0.07 0.071,-0.128 0.092,-0.211 0.043,-0.177 0.016,-0.357 -0.086,-0.509 0.266,-0.022 0.356,0.252 0.356,0.465 0.058,-0.077 0.031,-0.2 0.058,-0.286 0.03,-0.086 -0.004,-0.191 -0.004,-0.288 0.166,0.164 0.247,0.338 0.247,0.574 0.107,-0.141 0.203,-0.336 0.166,-0.521 -0.043,-0.207 -0.2,-0.32 -0.358,-0.437 0.377,0.009 0.617,0.328 0.768,0.63 0.041,-0.032 0.041,-0.087 0.051,-0.135 0.025,-0.117 0.052,-0.234 0.078,-0.352 0.039,-0.175 0.078,-0.351 0.117,-0.526 0.055,0.162 0.113,0.371 0.273,0.451 0.196,0.098 0.24,-0.307 0.27,-0.411 0.103,-0.359 0.15,-0.73 0.256,-1.092 0.025,-0.087 0.05,-0.174 0.076,-0.26 0.019,-0.068 0.158,-0.159 0.209,-0.209 0.127,-0.127 0.281,-0.235 0.42,-0.349 0.299,-0.245 0.568,-0.504 0.842,-0.777 0.132,-0.134 0.238,-0.292 0.345,-0.446 0.088,-0.126 0.074,-0.362 0.074,-0.512 0,-0.347 -0.05,-0.714 -0.209,-1.028 -0.334,-0.67 -0.927,-1.136 -1.369,-1.734 -0.097,-0.133 -0.271,-0.293 -0.32,-0.452 -0.066,-0.218 -0.135,-0.436 -0.201,-0.655 -0.102,-0.327 -0.074,-0.687 -0.143,-1.021 -0.074,-0.37 -0.222,-0.71 -0.381,-1.052 -0.15,-0.327 -0.339,-0.657 -0.443,-1.002 -0.029,-0.098 -0.053,-0.179 -0.105,-0.266 -0.045,-0.077 -0.032,-0.146 -0.032,-0.235 0,-0.183 0.006,-0.347 0.035,-0.529 0.059,-0.353 -0.062,-0.705 -0.341,-0.937 -0.268,-0.223 -0.543,-0.456 -0.68,-0.791 -0.137,-0.336 -0.137,-0.683 -0.137,-1.04 0.158,0.053 0.313,0.058 0.477,0.031 0.178,-0.031 0.344,-0.031 0.525,-0.031 0.344,0 0.67,0.066 0.856,0.376 0.031,0.054 0.086,0.132 0.086,0.197 0,0.086 -0.01,0.148 0.033,0.221 0.103,0.173 0.209,0.305 0.344,0.454 0.054,0.063 0.064,0.05 0.084,0.149 0.013,0.069 -0.039,0.157 -0.061,0.222 -0.051,0.154 -0.102,0.308 -0.154,0.462 l 0.027,-0.054 c 0.115,0.172 0.24,0.259 0.408,0.381 0.033,0.024 0.035,0.205 0.041,0.245 0.016,0.09 0.045,0.189 0.045,0.28 0,0.175 -0.037,0.389 0.004,0.56 0.045,0.195 0.092,0.381 0.154,0.571 0.237,0.709 0.684,1.315 1.016,1.981 0.18,0.36 0.449,0.659 0.699,0.972 0.057,0.071 0.266,0.385 0.364,0.237 0.082,-0.123 0.05,-0.411 0.062,-0.558 0.027,-0.364 0.014,-0.722 0.074,-1.085 0.024,-0.143 0.008,-0.294 0.008,-0.437 l 0,-0.822 c 0,-0.143 0.016,-0.289 -0.016,-0.429 -0.043,-0.19 -0.093,-0.378 -0.144,-0.566 -0.041,-0.154 -0.065,-0.328 -0.135,-0.473 -0.109,-0.222 -0.217,-0.445 -0.324,-0.668 -0.031,-0.062 -0.061,-0.125 -0.092,-0.188 -0.031,-0.065 -0.098,-0.105 -0.123,-0.174 -0.07,-0.19 -0.117,-0.403 -0.24,-0.566 -0.053,-0.071 -0.104,-0.143 -0.154,-0.215 -0.047,-0.067 -0.147,-0.12 -0.207,-0.181 -0.057,-0.058 -0.133,-0.113 -0.18,-0.18 -0.057,-0.08 -0.094,-0.188 -0.139,-0.276 -0.053,-0.109 -0.105,-0.213 -0.144,-0.329 -0.018,-0.054 -0.028,-0.108 -0.037,-0.164 -0.014,-0.084 0.054,-0.066 0.132,-0.083 0.229,-0.051 0.461,-0.106 0.698,-0.106 0.496,0 0.976,0.05 1.435,0.246 l 0,-0.027 c 0.037,0.188 0.102,0.352 0.041,0.534 -0.058,0.175 -0.058,0.358 -0.109,0.539 -0.026,0.087 0.043,0.165 0.082,0.243 0.039,0.081 0.066,0.16 0.096,0.245 0.054,0.169 0.136,0.294 0.259,0.426 0.274,0.293 0.549,0.574 0.842,0.844 0.109,0.101 0.35,0.145 0.35,0.313 0,0.208 -0.022,0.346 -0.116,0.533 -0.074,0.152 -0.084,0.302 -0.099,0.469 -0.02,0.205 -0.051,0.412 -0.061,0.618 -0.017,0.403 -0.009,0.809 -0.023,1.213 -0.024,0.757 0.074,1.507 0.142,2.26 0.032,0.332 0.125,0.66 0.215,0.98 0.061,0.217 0.121,0.432 0.182,0.648 0.041,0.144 0.111,0.343 0.215,0.449 0.033,0.032 0.16,0.029 0.209,0.037 0.099,0.016 0.199,0.032 0.299,0.046 0.168,0.024 0.347,0.006 0.517,0.006 l 0.223,0 0.16,0 c 0.041,0 0.012,-0.023 0.051,-0.033 0.187,-0.047 0.375,-0.095 0.562,-0.139 1.463,-0.343 2.998,-0.362 4.473,-0.101 0.744,0.131 1.48,0.313 2.185,0.579 0.317,0.118 0.655,0.27 0.952,0.428 0.347,0.185 0.699,0.363 1.031,0.576 0.127,0.082 0.256,0.165 0.383,0.247 0.049,0.03 0.121,0.058 0.162,0.086 0.072,0.051 0.109,0.11 0.191,0.15 0.283,0.143 0.578,0.068 0.795,-0.15 l 0,0.028 c 0.236,-0.304 0.473,-0.609 0.711,-0.914 0.094,-0.122 0.221,-0.211 0.289,-0.349 0.111,-0.223 0.223,-0.446 0.334,-0.669 0.078,-0.155 0.197,-0.288 0.299,-0.427 0.086,-0.117 0.211,-0.2 0.297,-0.317 0.242,-0.325 0.488,-0.642 0.695,-0.989 0.061,-0.101 0.111,-0.212 0.166,-0.316 0.059,-0.116 0.156,-0.246 0.194,-0.372 0.062,-0.216 0.037,-0.518 0.019,-0.74 -0.021,-0.291 -0.061,-0.525 -0.24,-0.766 -0.158,-0.213 -0.363,-0.384 -0.52,-0.603 l 0.082,0.055 -0.082,-0.082 0,0.027 C -5.115,-4.802 -5.215,-4.903 -5.336,-4.975 -5.461,-5.05 -5.557,-5.117 -5.664,-5.214 -5.902,-5.43 -6.129,-5.665 -6.406,-5.831 l 0.027,0.028 c -0.527,-0.376 -0.805,-0.944 -0.957,-1.561 l 0.027,0.027 -0.164,-0.575 0.055,0 c -0.07,-0.069 -0.113,-0.131 -0.209,-0.154 -0.096,-0.025 -0.18,-0.115 -0.256,-0.174 -0.131,-0.097 -0.201,-0.214 -0.252,-0.368 -0.013,-0.044 -0.39,-1.118 -0.322,-1.139 0.367,-0.107 0.717,-0.225 1.09,-0.1 0.197,0.065 0.385,0.141 0.576,0.219 0.102,0.042 0.348,0.094 0.373,0.18 0.033,0.115 0.066,0.231 0.098,0.345 0.015,0.053 0.068,0.152 0.051,0.209 -0.03,0.095 -0.057,0.191 -0.086,0.287 -0.022,0.069 -0.086,0.19 -0.077,0.264 0.006,0.048 -0.004,0.212 0.051,0.212 l 0.379,0 c 0.074,0 0.082,-0.012 0.119,0.049 0.063,0.108 0.125,0.214 0.19,0.321 0.185,0.313 0.351,0.636 0.55,0.942 0.098,0.148 0.184,0.316 0.303,0.449 0.145,0.161 0.287,0.322 0.432,0.483 0.101,0.114 0.172,0.285 0.252,0.416 0.133,0.219 0.265,0.439 0.398,0.658 0.022,0.035 0.039,0.081 0.069,0.11 0.099,0.101 0.13,0.108 0.271,0.128 0.162,0.024 0.168,-0.403 0.18,-0.482 0.023,-0.179 0.035,-0.344 0.035,-0.525 0,-0.156 0.023,-0.331 -0.008,-0.483 -0.051,-0.233 -0.1,-0.464 -0.15,-0.696 -0.03,-0.143 -0.041,-0.31 -0.102,-0.444 -0.074,-0.164 -0.195,-0.347 -0.234,-0.523 -0.045,-0.204 -0.088,-0.409 -0.133,-0.613 -0.037,-0.171 -0.125,-0.332 -0.166,-0.501 -0.02,-0.079 -0.041,-0.167 -0.055,-0.247 -0.019,-0.104 0.037,-0.147 -0.064,-0.194 -0.166,-0.077 -0.315,-0.127 -0.438,-0.259 -0.172,-0.187 -0.345,-0.375 -0.519,-0.562 -0.035,-0.039 -0.072,-0.063 -0.078,-0.115 -0.004,-0.049 -0.051,-0.256 -0.004,-0.274 0.195,-0.073 0.385,-0.109 0.592,-0.148 0.367,-0.069 0.75,0.018 1.107,0.093 0.051,0.01 0.144,0.01 0.184,0.047 0.05,0.053 0.187,0.143 0.207,0.214 0.056,0.193 0.082,0.371 0.082,0.571 0,0.196 0.054,0.355 0.154,0.516 0.086,0.136 0.191,0.31 0.312,0.413 0.166,0.145 0.334,0.289 0.502,0.434 0.137,0.12 0.297,0.197 0.457,0.287 0.079,0.044 0.104,0.078 0.157,0.154 0.058,0.08 0.058,0.132 0.078,0.228 0.013,0.066 0.053,0.151 0.019,0.214 -0.06,0.109 -0.121,0.219 -0.181,0.33 -0.164,0.298 -0.284,0.648 -0.303,0.989 -0.02,0.38 -0.002,0.762 -0.049,1.14 -0.021,0.171 -0.058,0.342 -0.041,0.516 0.022,0.234 0.045,0.467 0.068,0.701 0.038,0.357 0.09,0.711 0.149,1.065 0.019,0.12 0.037,0.24 0.057,0.36 0.017,0.1 0.015,0.099 -0.053,0.18 -0.115,0.14 -0.25,0.263 -0.371,0.398 -0.514,0.57 -0.664,1.364 -0.442,2.091 0.061,0.193 0.149,0.343 0.25,0.519 0.006,0.009 -0.027,0.023 -0.021,0.044 0.01,0.031 0.019,0.062 0.027,0.093 0.039,0.125 0.078,0.251 0.115,0.377 0.108,0.355 0.19,0.705 0.268,1.069 0.158,0.735 0.361,1.449 0.57,2.173 0.164,0.574 0.33,1.148 0.494,1.722 C -0.824,5.442 -0.885,4.587 -0.943,3.732 -0.961,3.474 -0.984,3.217 -0.984,2.959 -0.984,2.601 -0.975,2.247 -1.016,1.892 -1.057,1.525 -1.098,1.158 -1.141,0.79 -1.168,0.549 -1.166,0.366 -1.139,0.121 c 0.03,-0.26 0.147,-0.502 0.237,-0.748 0.047,-0.129 0.062,-0.264 0.084,-0.401 0.025,-0.149 0.062,-0.194 0.162,-0.313 l -0.028,0.274 0.192,-0.548 0.164,0.357 0.246,-0.576 0.164,0.192 c 0.063,-0.169 0.125,-0.333 0.199,-0.496 0.067,-0.145 0.241,-0.25 0.405,-0.244 L 0,0"
         style="fill:#231f20;fill-opacity:1;fill-rule:evenodd;stroke:none"
         id="path3493"
         inkscape:connector-curvature="0" />
    </g>
  </g>
</svg>
