<?xml version="1.0" encoding="UTF-8" standalone="no"?>
<!-- Created with Inkscape (http://www.inkscape.org/) -->

<svg
   xmlns:dc="http://purl.org/dc/elements/1.1/"
   xmlns:cc="http://creativecommons.org/ns#"
   xmlns:rdf="http://www.w3.org/1999/02/22-rdf-syntax-ns#"
   xmlns:svg="http://www.w3.org/2000/svg"
   xmlns="http://www.w3.org/2000/svg"
   xmlns:sodipodi="http://sodipodi.sourceforge.net/DTD/sodipodi-0.dtd"
   xmlns:inkscape="http://www.inkscape.org/namespaces/inkscape"
   width="91.24469"
   height="91.245628"
   id="svg4600"
   version="1.1"
   inkscape:version="0.48.1 "
   sodipodi:docname="New document 20">
  <defs
     id="defs4602" />
  <sodipodi:namedview
     id="base"
     pagecolor="#ffffff"
     bordercolor="#666666"
     borderopacity="1.0"
     inkscape:pageopacity="0.0"
     inkscape:pageshadow="2"
     inkscape:zoom="0.35"
     inkscape:cx="143.47948"
     inkscape:cy="-97.23433"
     inkscape:document-units="px"
     inkscape:current-layer="layer1"
     showgrid="false"
     fit-margin-top="0"
     fit-margin-left="0"
     fit-margin-right="0"
     fit-margin-bottom="0"
     inkscape:window-width="469"
     inkscape:window-height="403"
     inkscape:window-x="666"
     inkscape:window-y="88"
     inkscape:window-maximized="0" />
  <metadata
     id="metadata4605">
    <rdf:RDF>
      <cc:Work
         rdf:about="">
        <dc:format>image/svg+xml</dc:format>
        <dc:type
           rdf:resource="http://purl.org/dc/dcmitype/StillImage" />
        <dc:title></dc:title>
      </cc:Work>
    </rdf:RDF>
  </metadata>
  <g
     inkscape:label="Layer 1"
     inkscape:groupmode="layer"
     id="layer1"
     transform="translate(-231.52052,-343.88223)">
    <g
       id="g3407"
       transform="matrix(1.25,0,0,-1.25,280.08208,433.59754)">
      <path
         d="m 0,0 c -1.299,-1.299 -3.405,-1.299 -4.703,0 l -32.922,32.922 c -1.299,1.299 -1.299,3.405 0,4.704 l 32.922,32.922 c 1.298,1.299 3.404,1.299 4.703,0 L 32.923,37.626 c 1.298,-1.299 1.298,-3.405 0,-4.704 L 0,0 z"
         style="fill:#fccf34;fill-opacity:1;fill-rule:nonzero;stroke:none"
         id="path3409"
         inkscape:connector-curvature="0" />
    </g>
    <g
       id="g3411"
       transform="matrix(1.25,0,0,-1.25,280.08208,433.59754)">
      <path
         d="m 0,0 c -1.299,-1.299 -3.405,-1.299 -4.703,0 l -32.922,32.922 c -1.299,1.299 -1.299,3.405 0,4.704 l 32.922,32.922 c 1.298,1.299 3.404,1.299 4.703,0 L 32.923,37.626 c 1.298,-1.299 1.298,-3.405 0,-4.704 L 0,0 z"
         style="fill:none;stroke:#231f20;stroke-width:0.5;stroke-linecap:butt;stroke-linejoin:miter;stroke-miterlimit:4;stroke-opacity:1;stroke-dasharray:none"
         id="path3413"
         inkscape:connector-curvature="0" />
    </g>
    <g
       id="g3415"
       transform="matrix(1.25,0,0,-1.25,278.12221,431.63754)">
      <path
         d="M 0,0 C -0.431,-0.433 -1.135,-0.433 -1.567,0 L -34.49,32.923 c -0.433,0.431 -0.433,1.135 0,1.567 l 32.923,32.923 c 0.432,0.432 1.136,0.432 1.567,0 L 32.923,34.49 c 0.432,-0.432 0.432,-1.136 0,-1.567 L 0,0 z M 33.864,35.431 0.941,68.353 c -0.95,0.951 -2.498,0.951 -3.449,0 L -35.43,35.431 c -0.952,-0.952 -0.952,-2.498 0,-3.45 L -2.508,-0.941 c 0.951,-0.951 2.499,-0.951 3.449,0 l 32.923,32.922 c 0.951,0.952 0.951,2.498 0,3.45"
         style="fill:#231f20;fill-opacity:1;fill-rule:nonzero;stroke:none"
         id="path3417"
         inkscape:connector-curvature="0" />
    </g>
    <g
       id="g3419"
       transform="matrix(1.25,0,0,-1.25,278.36583,392.86254)">
      <path
         d="M 0,0 -0.27,0.135 -0.539,0.338 -1.012,0.608 -1.079,0 l -0.135,-0.809 -0.54,-1.823 -0.271,-0.945 -0.337,-0.809 -0.27,-0.675 -0.202,-0.474 -0.271,-0.404 -0.135,-0.271 -0.202,-0.202 -0.27,-0.135 -0.337,-0.203 -0.405,-0.067 -4.793,0 0,0.27 0.405,0.608 0.135,0.135 0.203,0.134 0.202,0.068 0.203,0.067 0.675,0.068 0.269,0 0.271,0.135 0.067,0.068 0.068,0.135 0,0.068 0.067,1.012 0,0.877 0.135,0.675 0.134,0.877 0.136,1.216 0.135,0.675 -0.271,0.135 -0.404,0.134 -0.136,0.068 -0.134,0.135 0,-1.215 -0.135,-0.27 -0.27,-0.405 -0.27,-0.135 -0.337,-0.203 -0.811,-0.404 -0.877,-0.406 -1.012,-0.337 0,-1.89 -0.405,0 -0.271,0.067 -0.337,0.069 -0.27,0.066 -0.539,0.271 -0.811,0.607 -0.202,0.203 -0.135,0.202 -0.203,0.27 -0.135,0.27 -0.135,0.54 0,0.81 0.135,0.473 0.202,0.405 0.271,0.337 0.877,0.878 0.27,0.338 0.068,0.066 0,0.136 0.067,0.337 -0.067,0.203 0,0.135 -0.068,0.269 -0.067,0.338 0.067,0.473 0,0.202 -0.067,0.067 -0.945,0.069 -0.81,0.134 -0.54,0.135 -0.608,0.203 -0.27,0 -0.405,-0.068 -0.405,0.135 -0.203,0.134 -0.067,0.136 -0.067,0.067 -0.135,0.27 0,0.203 -0.271,0.068 -0.404,0.27 0,0.202 -0.067,0.202 -0.069,0.135 -0.202,0.135 -0.067,0 -0.202,0.203 -0.068,0.135 0,0.27 0.135,0.27 0.202,0.202 0.271,0 0.269,0.068 0.202,0 0.271,0.135 0.202,0.404 0.135,0.203 0.135,0.135 0.135,0.27 0,1.08 0.202,0.607 0.406,0.407 0.405,0.336 0,0.068 0.067,0.067 0.068,0.136 0,0.135 -0.135,0.269 0,0.54 0.067,0.202 0.135,0.204 0.27,0.269 0.203,0.135 0.202,0.068 0.473,0 0.203,-0.068 0.134,-0.067 0.203,-0.134 0.134,-0.136 0.068,-0.202 0.135,-0.203 0,-0.202 0.27,0.067 0.607,0 0.203,-0.067 0.405,0.134 0.135,0.068 0.203,0.068 0.337,0.202 0.472,0.068 0.54,0.067 0.608,0.067 0.81,-0.067 0.405,-0.067 0.27,-0.068 0.338,0 0.27,0.271 0.202,0.134 0.203,0.067 0.269,0.136 0.608,0.134 0.54,0.068 0.405,-0.068 0.608,-0.067 2.565,-0.404 1.552,-0.203 0.269,-0.068 0.203,-0.067 0.877,0.135 1.553,0.134 1.822,0.135 0.878,0.068 0.877,-0.068 0.743,0 0.877,-0.066 0.811,-0.069 0.675,-0.134 0.607,-0.135 0.27,-0.069 0.337,-0.066 0.541,-0.27 0.607,-0.271 1.08,-0.81 0.54,-0.472 0.945,-1.08 0.472,-0.675 0.405,-0.675 0.337,-0.743 0.54,-1.619 0.203,-0.878 0.135,-0.944 0,-3.308 -0.067,-1.013 0,-0.945 -0.068,-0.405 -0.067,-0.473 0,-0.742 0.067,-0.202 0.068,-0.135 0.202,-0.608 0,-0.27 -0.067,-0.404 0,-0.135 -0.068,-0.203 -0.135,-0.203 -0.203,-0.203 -0.742,-0.472 -0.945,-0.608 -0.337,-0.269 -0.338,-0.203 -3.442,0 0,0.135 0.135,0.405 0.135,0.203 0.202,0.202 0.203,0.135 0.27,0.135 0.405,0.27 -0.675,0.742 -0.675,0.811 -0.608,0.675 -0.202,0.337 -0.135,0.203 -0.743,-0.742 -0.675,-0.541 -0.675,-0.337 0.135,-0.54 0.068,-0.203 0,-0.945 -0.068,-0.27 -0.135,-0.405 -0.269,-0.27 -6.21,0 -0.068,0.135 0.068,0.337 0.135,0.271 0.202,0.337 0.27,0.203 0.337,0.202 0.54,0.27 0.204,0.067 0.471,0.136 0.136,0.135 -0.067,0.134 -0.54,0.473 -0.744,0.675 -0.674,0.81 -0.27,0.27 -0.136,0.27 -0.135,0.135 0,0.27 -0.067,0.203 0,0.269 0.067,0.54 0.135,0.406 0,0.27 -0.067,0.067 -0.27,0.203 L 0,0 z"
         style="fill:#231f20;fill-opacity:1;fill-rule:evenodd;stroke:none"
         id="path3421"
         inkscape:connector-curvature="0" />
    </g>
  </g>
</svg>
