<?xml version="1.0" encoding="UTF-8" standalone="no"?>
<!-- Created with Inkscape (http://www.inkscape.org/) -->

<svg
   xmlns:dc="http://purl.org/dc/elements/1.1/"
   xmlns:cc="http://creativecommons.org/ns#"
   xmlns:rdf="http://www.w3.org/1999/02/22-rdf-syntax-ns#"
   xmlns:svg="http://www.w3.org/2000/svg"
   xmlns="http://www.w3.org/2000/svg"
   xmlns:sodipodi="http://sodipodi.sourceforge.net/DTD/sodipodi-0.dtd"
   xmlns:inkscape="http://www.inkscape.org/namespaces/inkscape"
   width="90.626251"
   height="90.626251"
   id="svg4109"
   version="1.1"
   inkscape:version="0.48.1 "
   sodipodi:docname="New document 13">
  <defs
     id="defs4111" />
  <sodipodi:namedview
     id="base"
     pagecolor="#ffffff"
     bordercolor="#666666"
     borderopacity="1.0"
     inkscape:pageopacity="0.0"
     inkscape:pageshadow="2"
     inkscape:zoom="0.35"
     inkscape:cx="-162.54402"
     inkscape:cy="162.45598"
     inkscape:document-units="px"
     inkscape:current-layer="layer1"
     showgrid="false"
     fit-margin-top="0"
     fit-margin-left="0"
     fit-margin-right="0"
     fit-margin-bottom="0"
     inkscape:window-width="469"
     inkscape:window-height="403"
     inkscape:window-x="25"
     inkscape:window-y="25"
     inkscape:window-maximized="0" />
  <metadata
     id="metadata4114">
    <rdf:RDF>
      <cc:Work
         rdf:about="">
        <dc:format>image/svg+xml</dc:format>
        <dc:type
           rdf:resource="http://purl.org/dc/dcmitype/StillImage" />
        <dc:title></dc:title>
      </cc:Work>
    </rdf:RDF>
  </metadata>
  <g
     inkscape:label="Layer 1"
     inkscape:groupmode="layer"
     id="layer1"
     transform="translate(-537.54402,-604.19191)">
    <g
       id="g3175"
       transform="matrix(1.25,0,0,-1.25,539.14371,646.38254)">
      <path
         d="m 0,0 32.473,32.472 c 1.373,1.374 3.621,1.374 4.996,0 L 69.94,0 c 1.375,-1.374 1.375,-3.622 0,-4.996 L 37.469,-37.468 c -1.375,-1.374 -3.623,-1.374 -4.996,0 L 0,-4.996 C -1.373,-3.622 -1.373,-1.374 0,0"
         style="fill:#fccf34;fill-opacity:1;fill-rule:nonzero;stroke:none"
         id="path3177"
         inkscape:connector-curvature="0" />
    </g>
    <g
       id="g3179"
       transform="matrix(1.25,0,0,-1.25,539.14371,646.38254)">
      <path
         d="m 0,0 32.473,32.472 c 1.373,1.374 3.621,1.374 4.996,0 L 69.94,0 c 1.375,-1.374 1.375,-3.622 0,-4.996 L 37.469,-37.468 c -1.375,-1.374 -3.623,-1.374 -4.996,0 L 0,-4.996 C -1.373,-3.622 -1.373,-1.374 0,0 z"
         style="fill:none;stroke:#231f20;stroke-width:0.5;stroke-linecap:butt;stroke-linejoin:miter;stroke-miterlimit:4;stroke-opacity:1;stroke-dasharray:none"
         id="path3181"
         inkscape:connector-curvature="0" />
    </g>
    <g
       id="g3183"
       transform="matrix(1.25,0,0,-1.25,540.12246,647.0283)">
      <path
         d="m 0,0 32.206,32.205 c 1.089,1.09 2.873,1.09 3.964,0 L 68.373,0 c 1.09,-1.09 1.09,-2.873 0,-3.963 L 36.17,-36.168 c -1.091,-1.09 -2.875,-1.09 -3.964,0 L 0,-3.963 C -1.089,-2.873 -1.089,-1.09 0,0"
         style="fill:#231f20;fill-opacity:1;fill-rule:evenodd;stroke:none"
         id="path3185"
         inkscape:connector-curvature="0" />
    </g>
    <g
       id="g3187"
       transform="matrix(1.25,0,0,-1.25,541.37996,648.26742)">
      <path
         d="m 0,0 32.192,32.189 c 0.543,0.545 1.435,0.545 1.98,0 L 66.362,0 c 0.545,-0.544 0.545,-1.437 0,-1.981 L 34.172,-34.17 c -0.545,-0.545 -1.437,-0.545 -1.98,0 L 0,-1.981 C -0.543,-1.437 -0.543,-0.544 0,0"
         style="fill:#fccf34;fill-opacity:1;fill-rule:evenodd;stroke:none"
         id="path3189"
         inkscape:connector-curvature="0" />
    </g>
    <g
       id="g3191"
       transform="matrix(1.25,0,0,-1.25,552.56246,654.1268)">
      <path
         d="M 0,0 0,1.336 1.191,1.315 C 1.363,1.311 1.529,1.331 1.662,1.442 1.796,1.558 1.879,1.733 1.894,1.908 L 2.3,6.53 c 0.016,0.18 0.135,0.35 0.276,0.462 0.105,0.085 0.246,0.126 0.381,0.143 0.134,0.019 0.271,0.033 0.41,0.05 l 8.181,1.041 0.362,2.71 0.554,0 -0.127,-2.965 0.383,-1.758 1.535,0 0.125,0.677 c 0.063,0.298 0.112,0.599 0.18,0.896 0.033,0.148 0.076,0.294 0.121,0.44 0.043,0.111 0.094,0.217 0.162,0.316 0.078,0.112 0.17,0.213 0.274,0.303 0.086,0.074 0.187,0.132 0.289,0.186 -0.152,0.08 -0.297,0.171 -0.416,0.296 -0.149,0.159 -0.209,0.391 -0.178,0.604 0.024,0.16 0.08,0.308 0.147,0.457 -0.122,0.021 -0.243,0.042 -0.364,0.06 -0.054,0.006 -0.109,0.011 -0.164,0.016 -0.066,0.01 -0.133,0.017 -0.197,0.028 l 0,0.107 0.469,0 0.383,0 0.084,0.572 0,0.02 c 0.119,0.002 0.23,-0.008 0.343,-0.032 0.192,-0.043 0.373,-0.137 0.528,-0.256 0.205,-0.158 0.388,-0.358 0.519,-0.58 0.067,-0.11 0.121,-0.219 0.166,-0.338 L 17.259,9.538 17.195,9.39 16.621,9.813 C 16.611,9.706 16.593,9.601 16.55,9.5 16.498,9.371 16.42,9.273 16.308,9.186 16.23,9.123 16.142,9.083 16.045,9.052 16.168,9.003 16.283,8.943 16.392,8.867 16.662,8.675 16.785,8.308 16.814,7.991 l 0.147,-1.695 0.255,1.994 c 0.055,0.437 0.135,0.903 0.491,1.207 0.357,0.303 0.838,0.278 1.279,0.296 l 1.021,0.044 0,0.804 2.944,0 0,-3.816 3.457,0.003 0,0.544 -2.68,0 0,0.741 0.5,0 -0.002,2.465 -0.404,0 0,0.699 22.375,0 0,-0.678 -0.809,0 0.022,-2.508 0.763,0.022 0,-0.741 -3.148,0 0,-0.544 3.148,0 1.303,-5.492 1.131,0 0,-1.336 -10.848,0 c 0.141,-0.522 0.282,-1.097 0.161,-1.638 -0.172,-0.77 -0.643,-1.469 -1.313,-1.897 -0.514,-0.327 -1.037,-0.394 -1.639,-0.448 -0.523,0.064 -1.097,0.148 -1.545,0.452 -0.65,0.441 -1.121,1.121 -1.281,1.89 -0.117,0.565 0.01,1.094 0.162,1.641 L 9.736,0 C 9.843,-0.523 9.945,-1.097 9.8,-1.625 9.593,-2.38 9.105,-3.056 8.427,-3.462 7.918,-3.771 7.41,-3.831 6.818,-3.879 6.302,-3.814 5.74,-3.731 5.295,-3.44 4.648,-3.021 4.166,-2.366 3.974,-1.618 3.836,-1.07 3.931,-0.546 4.048,0 L 0,0 z"
         style="fill:#231f20;fill-opacity:1;fill-rule:evenodd;stroke:none"
         id="path3193"
         inkscape:connector-curvature="0" />
    </g>
    <path
       d="m 586.22871,645.59217 19.54625,0 0,-0.68 -19.54625,0 0,0.68 z"
       style="fill:#fccf34;fill-opacity:1;fill-rule:evenodd;stroke:none"
       id="path3195"
       inkscape:connector-curvature="0" />
    <g
       id="g3197"
       transform="matrix(1.25,0,0,-1.25,583.4312,640.90417)">
      <path
         d="m 0,0 0,-2.465 1.713,0 L 1.707,0 0,0 z"
         style="fill:#fccf34;fill-opacity:1;fill-rule:evenodd;stroke:none"
         id="path3199"
         inkscape:connector-curvature="0" />
    </g>
    <g
       id="g3201"
       transform="matrix(1.25,0,0,-1.25,586.2312,640.90417)">
      <path
         d="m 0,0 -0.002,-2.465 1.711,0 L 1.703,0 0,0 z"
         style="fill:#fccf34;fill-opacity:1;fill-rule:evenodd;stroke:none"
         id="path3203"
         inkscape:connector-curvature="0" />
    </g>
    <path
       d="m 589.1337,643.97842 2.13125,0 0,-3.075 -2.13125,0 0,3.075 z"
       style="fill:#fccf34;fill-opacity:1;fill-rule:evenodd;stroke:none"
       id="path3205"
       inkscape:connector-curvature="0" />
    <path
       d="m 592.03745,643.97842 2.13375,0 0,-3.075 -2.13375,0 0,3.075 z"
       style="fill:#fccf34;fill-opacity:1;fill-rule:evenodd;stroke:none"
       id="path3207"
       inkscape:connector-curvature="0" />
    <path
       d="m 594.91495,643.97842 2.13125,0 0,-3.075 -2.13125,0 0,3.075 z"
       style="fill:#fccf34;fill-opacity:1;fill-rule:evenodd;stroke:none"
       id="path3209"
       inkscape:connector-curvature="0" />
    <path
       d="m 597.79121,643.97842 2.12874,0 0,-3.075 -2.12874,0 0,3.075 z"
       style="fill:#fccf34;fill-opacity:1;fill-rule:evenodd;stroke:none"
       id="path3211"
       inkscape:connector-curvature="0" />
    <path
       d="m 600.64246,643.97842 2.13,0 0,-3.075 -2.13,0 0,3.075 z"
       style="fill:#fccf34;fill-opacity:1;fill-rule:evenodd;stroke:none"
       id="path3213"
       inkscape:connector-curvature="0" />
    <path
       d="m 603.51871,643.97842 2.12874,0 0,-3.075 -2.12874,0 0,3.075 z"
       style="fill:#fccf34;fill-opacity:1;fill-rule:evenodd;stroke:none"
       id="path3215"
       inkscape:connector-curvature="0" />
    <path
       d="m 606.42121,643.97842 2.1325,0 0,-3.075 -2.1325,0 0,3.075 z"
       style="fill:#fccf34;fill-opacity:1;fill-rule:evenodd;stroke:none"
       id="path3217"
       inkscape:connector-curvature="0" />
  </g>
</svg>
