<?xml version="1.0" encoding="UTF-8" standalone="no"?>
<!-- Created with Inkscape (http://www.inkscape.org/) -->

<svg
   xmlns:dc="http://purl.org/dc/elements/1.1/"
   xmlns:cc="http://creativecommons.org/ns#"
   xmlns:rdf="http://www.w3.org/1999/02/22-rdf-syntax-ns#"
   xmlns:svg="http://www.w3.org/2000/svg"
   xmlns="http://www.w3.org/2000/svg"
   xmlns:sodipodi="http://sodipodi.sourceforge.net/DTD/sodipodi-0.dtd"
   xmlns:inkscape="http://www.inkscape.org/namespaces/inkscape"
   width="90.625"
   height="90.626251"
   id="svg4460"
   version="1.1"
   inkscape:version="0.48.1 "
   sodipodi:docname="New document 16">
  <defs
     id="defs4462" />
  <sodipodi:namedview
     id="base"
     pagecolor="#ffffff"
     bordercolor="#666666"
     borderopacity="1.0"
     inkscape:pageopacity="0.0"
     inkscape:pageshadow="2"
     inkscape:zoom="0.35"
     inkscape:cx="3.1696475"
     inkscape:cy="33.884552"
     inkscape:document-units="px"
     inkscape:current-layer="layer1"
     showgrid="false"
     fit-margin-top="0"
     fit-margin-left="0"
     fit-margin-right="0"
     fit-margin-bottom="0"
     inkscape:window-width="469"
     inkscape:window-height="403"
     inkscape:window-x="567"
     inkscape:window-y="84"
     inkscape:window-maximized="0" />
  <metadata
     id="metadata4465">
    <rdf:RDF>
      <cc:Work
         rdf:about="">
        <dc:format>image/svg+xml</dc:format>
        <dc:type
           rdf:resource="http://purl.org/dc/dcmitype/StillImage" />
        <dc:title></dc:title>
      </cc:Work>
    </rdf:RDF>
  </metadata>
  <g
     inkscape:label="Layer 1"
     inkscape:groupmode="layer"
     id="layer1"
     transform="translate(-371.83035,-475.62048)">
    <g
       id="g3291"
       transform="matrix(1.25,0,0,-1.25,373.43004,517.81111)">
      <path
         d="m 0,0 32.472,32.472 c 1.373,1.374 3.622,1.374 4.997,0 L 69.939,0 c 1.375,-1.374 1.375,-3.622 0,-4.996 l -32.47,-32.472 c -1.375,-1.374 -3.624,-1.374 -4.997,0 L 0,-4.996 C -1.373,-3.622 -1.373,-1.374 0,0"
         style="fill:#fccf34;fill-opacity:1;fill-rule:nonzero;stroke:none"
         id="path3293"
         inkscape:connector-curvature="0" />
    </g>
    <g
       id="g3303"
       transform="matrix(1.25,0,0,-1.25,373.43004,517.81111)">
      <path
         d="m 0,0 32.472,32.472 c 1.373,1.374 3.622,1.374 4.997,0 L 69.939,0 c 1.375,-1.374 1.375,-3.622 0,-4.996 l -32.47,-32.472 c -1.375,-1.374 -3.624,-1.374 -4.997,0 L 0,-4.996 C -1.373,-3.622 -1.373,-1.374 0,0 z"
         style="fill:none;stroke:#231f20;stroke-width:0.5;stroke-linecap:butt;stroke-linejoin:miter;stroke-miterlimit:4;stroke-opacity:1;stroke-dasharray:none"
         id="path3305"
         inkscape:connector-curvature="0" />
    </g>
    <g
       id="g3315"
       transform="matrix(1.25,0,0,-1.25,374.40879,518.45562)">
      <path
         d="m 0,0 32.205,32.204 c 1.09,1.09 2.873,1.09 3.965,0 L 68.373,0 c 1.09,-1.091 1.09,-2.874 0,-3.964 L 36.17,-36.169 c -1.092,-1.09 -2.875,-1.09 -3.965,0 L 0,-3.964 C -1.09,-2.874 -1.09,-1.091 0,0"
         style="fill:#231f20;fill-opacity:1;fill-rule:evenodd;stroke:none"
         id="path3317"
         inkscape:connector-curvature="0" />
    </g>
    <g
       id="g3319"
       transform="matrix(1.25,0,0,-1.25,375.66867,519.69587)">
      <path
         d="m 0,0 32.189,32.189 c 0.545,0.545 1.436,0.545 1.981,0 L 66.359,0 c 0.545,-0.545 0.545,-1.436 0,-1.98 L 34.17,-34.17 c -0.545,-0.545 -1.436,-0.545 -1.981,0 L 0,-1.98 C -0.545,-1.436 -0.545,-0.545 0,0"
         style="fill:#fccf34;fill-opacity:1;fill-rule:evenodd;stroke:none"
         id="path3321"
         inkscape:connector-curvature="0" />
    </g>
    <g
       id="g3323"
       transform="matrix(1.25,0,0,-1.25,415.93755,491.39511)">
      <path
         d="m 0,0 c 1.091,0 1.98,-0.889 1.98,-1.978 0,-1.09 -0.889,-1.979 -1.98,-1.979 -1.088,0 -1.979,0.889 -1.979,1.979 C -1.979,-0.889 -1.088,0 0,0"
         style="fill:#231f20;fill-opacity:1;fill-rule:evenodd;stroke:none"
         id="path3325"
         inkscape:connector-curvature="0" />
    </g>
    <g
       id="g3327"
       transform="matrix(1.25,0,0,-1.25,408.88617,507.01399)">
      <path
         d="m 0,0 c 1.445,1.112 2.889,2.224 4.332,3.335 0.148,0.101 0.24,0.284 0.275,0.551 0.288,1.455 0.575,2.91 0.86,4.366 0.707,0.013 1.377,0.29 2.029,0.687 2.086,-2.653 2.289,-6.294 2.166,-10.108 2.074,-1.32 4.61,-0.922 7.084,-0.757 4.908,-0.133 7.156,-2.219 6.738,-6.258 -0.086,-2.113 0.315,-4.004 1.204,-5.673 -1.19,0.007 -2.323,0.542 -3.334,2.235 -0.104,-0.16 -0.207,-0.32 -0.311,-0.482 0.576,-1.292 1.275,-2.28 2.029,-3.128 0.116,-0.298 0.229,-0.596 0.344,-0.894 0.023,-2.437 0.469,-4.609 1.203,-6.602 0.299,-0.171 0.596,-0.343 0.895,-0.516 -0.116,-0.676 -0.229,-1.353 -0.344,-2.029 -0.563,0.397 -1.123,0.807 -1.686,1.307 -0.113,0.104 -0.228,0.206 -0.343,0.31 -0.11,0.458 -0.387,0.917 -0.653,1.375 -0.15,0.179 -0.281,0.371 -0.275,0.653 -0.172,0.963 -0.344,1.926 -0.516,2.889 -0.23,0.675 -0.39,1.421 -0.894,1.822 -1.41,1.307 -2.821,2.613 -4.229,3.92 -0.465,-0.531 -0.808,-1.43 -1.066,-2.579 -0.012,-0.31 -0.024,-0.619 -0.035,-0.929 0.017,-0.482 -0.069,-0.943 -0.309,-1.375 -0.148,-0.172 -0.299,-0.344 -0.447,-0.516 -0.92,-1.357 -1.764,-2.766 -2.063,-4.539 -0.009,-0.169 -0.043,-0.26 -0.103,-0.274 -0.229,-0.138 -0.459,-0.275 -0.688,-0.413 -0.177,-0.256 -0.322,-0.518 -0.24,-0.825 -0.93,0.011 -1.857,0.023 -2.785,0.034 -0.102,0.112 -0.258,0.211 -0.139,0.379 0.307,0.576 0.963,1.065 1.514,1.581 0.603,0.671 0.959,1.376 1.203,2.098 1.246,2.892 1.436,5.686 1.031,8.423 -1.814,-1 -4.884,-1.324 -8.527,-1.341 0.264,-0.973 0.408,-1.948 0.516,-2.922 0.109,-0.412 0.269,-0.826 0.482,-1.238 0.51,-1.172 1.207,-2.215 2.234,-3.026 0.092,-0.114 0.184,-0.229 0.276,-0.344 0.092,-0.183 0.183,-0.366 0.275,-0.55 0.104,-0.114 0.205,-0.229 0.309,-0.343 0.24,-0.242 0.482,-0.482 0.722,-0.723 0.063,-0.126 0.075,-0.252 0.034,-0.378 -0.618,-0.516 -1.237,-1.031 -1.856,-1.547 -0.121,-0.083 -0.189,-0.037 -0.207,0.138 -0.08,0.572 -0.16,1.145 -0.24,1.719 -0.055,0.14 -0.135,0.255 -0.24,0.343 -0.276,0.127 -0.5,0.303 -0.62,0.585 -2.552,2.494 -4.15,5.26 -5.57,8.115 -2.146,-2.207 -1.746,-2.284 -1.857,-2.785 -0.051,-0.293 -0.155,-0.534 -0.309,-0.722 -1.656,-1.821 -2.402,-3.716 -2.82,-5.64 -0.041,-0.207 -0.096,-0.394 -0.24,-0.446 -0.67,-0.325 -1.067,-0.776 -1.067,-1.41 -0.103,-0.08 -0.205,-0.16 -0.308,-0.241 l -2.409,0 c -0.15,0.05 -0.257,0.1 -0.205,0.31 0.645,0.892 1.649,1.644 2.135,2.65 0.719,1.489 1.369,3.062 2.145,4.713 0.086,0.183 0.127,0.384 0.189,0.579 0.219,1.467 0.436,2.934 0.654,4.402 -0.017,0.32 -0.05,0.641 -0.171,0.963 -0.252,0.847 -0.504,1.695 -0.756,2.544 -0.166,0.275 -0.385,0.549 -0.655,0.825 -0.379,0.378 -0.756,0.757 -1.134,1.135 -1.604,-0.963 -3.209,-1.926 -4.815,-2.889 -0.258,-0.138 -0.545,-0.137 -0.859,0 -0.362,0.213 -0.711,0.447 -0.963,0.825 -0.125,-0.022 -0.252,-0.046 -0.377,-0.068 -0.557,0.295 -1.102,0.618 -1.547,1.134 -0.162,0.208 -0.289,0.424 -0.172,0.688 0.555,2.064 1.623,4.525 2.682,6.979 -0.16,0.459 -0.322,0.919 -0.483,1.376 0.024,0.161 0.047,0.322 0.069,0.482 0.183,-0.115 0.367,-0.23 0.551,-0.344 0.091,0.092 0.183,0.184 0.275,0.276 0.478,-0.379 0.807,-0.757 1.066,-1.135 3.276,-0.421 6.666,-1.182 10.11,-2.098 0.343,0.31 0.687,0.619 1.031,0.928 0.344,-0.252 0.687,-0.504 1.031,-0.756 -0.148,-0.16 -0.299,-0.321 -0.447,-0.481 0.389,-0.138 0.779,-0.276 1.168,-0.414 0.619,0.379 1.238,0.757 1.857,1.135 0.182,0.085 0.321,0.303 0.412,0.654 C 3.875,0.058 3.932,0.39 3.988,0.722 3.096,0.172 2.201,-0.378 1.307,-0.929 0.871,-0.619 0.436,-0.31 0,0"
         style="fill:#231f20;fill-opacity:1;fill-rule:evenodd;stroke:none"
         id="path3329"
         inkscape:connector-curvature="0" />
    </g>
    <g
       id="g3331"
       transform="matrix(1.25,0,0,-1.25,392.70504,517.41562)">
      <path
         d="M 0,0 C 0.002,-0.326 0.152,-0.597 0.556,-0.722 0.822,-0.878 1.052,-0.822 1.279,-0.736 2.818,0.15 4.357,1.038 5.896,1.926 5.771,1.986 5.646,2.046 5.521,2.106 4.365,1.308 3.203,0.512 1.925,-0.165 1.484,-0.402 1.043,-0.46 0.601,-0.256 0.365,-0.195 0.236,-0.06 0,0"
         style="fill:#fccf34;fill-opacity:1;fill-rule:evenodd;stroke:none"
         id="path3333"
         inkscape:connector-curvature="0" />
    </g>
    <g
       id="g3335"
       transform="matrix(1.25,0,0,-1.25,396.71116,513.74861)">
      <path
         d="m 0,0 c 0.756,-0.01 1.433,-0.24 2.029,-0.691 -0.892,-0.657 -1.805,-1.276 -2.736,-1.851 -0.662,-0.332 -1.321,-0.643 -1.942,-0.286 -0.15,0.08 -0.24,0.201 -0.271,0.361 0.232,0.326 0.463,0.652 0.693,0.978 C -1.385,-1.233 -0.643,-0.737 0,0"
         style="fill:#fccf34;fill-opacity:1;fill-rule:evenodd;stroke:none"
         id="path3337"
         inkscape:connector-curvature="0" />
    </g>
  </g>
</svg>
