<?xml version="1.0" encoding="UTF-8" standalone="no"?>
<!-- Created with Inkscape (http://www.inkscape.org/) -->

<svg
   xmlns:dc="http://purl.org/dc/elements/1.1/"
   xmlns:cc="http://creativecommons.org/ns#"
   xmlns:rdf="http://www.w3.org/1999/02/22-rdf-syntax-ns#"
   xmlns:svg="http://www.w3.org/2000/svg"
   xmlns="http://www.w3.org/2000/svg"
   xmlns:sodipodi="http://sodipodi.sourceforge.net/DTD/sodipodi-0.dtd"
   xmlns:inkscape="http://www.inkscape.org/namespaces/inkscape"
   width="53.828125"
   height="40.507812"
   id="svg4746"
   version="1.1"
   inkscape:version="0.48.1 "
   sodipodi:docname="New document 26">
  <defs
     id="defs4748" />
  <sodipodi:namedview
     id="base"
     pagecolor="#ffffff"
     bordercolor="#666666"
     borderopacity="1.0"
     inkscape:pageopacity="0.0"
     inkscape:pageshadow="2"
     inkscape:zoom="0.35"
     inkscape:cx="119.06223"
     inkscape:cy="43.11308"
     inkscape:document-units="px"
     inkscape:current-layer="layer1"
     showgrid="false"
     fit-margin-top="0"
     fit-margin-left="0"
     fit-margin-right="0"
     fit-margin-bottom="0"
     inkscape:window-width="469"
     inkscape:window-height="403"
     inkscape:window-x="125"
     inkscape:window-y="125"
     inkscape:window-maximized="0" />
  <metadata
     id="metadata4751">
    <rdf:RDF>
      <cc:Work
         rdf:about="">
        <dc:format>image/svg+xml</dc:format>
        <dc:type
           rdf:resource="http://purl.org/dc/dcmitype/StillImage" />
        <dc:title></dc:title>
      </cc:Work>
    </rdf:RDF>
  </metadata>
  <g
     inkscape:label="Layer 1"
     inkscape:groupmode="layer"
     id="layer1"
     transform="translate(-255.93777,-534.96745)">
    <path
       d="m 290.97714,552.9627 -1.41625,0 0,-8.86875 1.41625,0 0,8.86875 z"
       style="fill:#231f20;fill-opacity:1;fill-rule:nonzero;stroke:none"
       id="path3539"
       inkscape:connector-curvature="0" />
    <g
       id="g3541"
       transform="matrix(1.25,0,0,-1.25,298.60714,552.96245)">
      <path
         d="m 0,0 -4.399,0 0,7.095 1.133,0 0,-5.962 L 0,1.133 0,0 z"
         style="fill:#231f20;fill-opacity:1;fill-rule:nonzero;stroke:none"
         id="path3543"
         inkscape:connector-curvature="0" />
    </g>
    <g
       id="g3545"
       transform="matrix(1.25,0,0,-1.25,309.45339,571.84245)">
      <path
         d="m 0,0 c 0,-1.468 -1.191,-2.659 -2.66,-2.659 l -37.234,0 c -1.469,0 -2.66,1.191 -2.66,2.659 l 0,26.597 c 0,1.468 1.191,2.659 2.66,2.659 l 37.234,0 C -1.191,29.256 0,28.065 0,26.597 L 0,0 z"
         style="fill:#fccf34;fill-opacity:1;fill-rule:nonzero;stroke:none"
         id="path3547"
         inkscape:connector-curvature="0" />
    </g>
    <g
       id="g3549"
       transform="matrix(1.25,0,0,-1.25,309.45339,571.84245)">
      <path
         d="m 0,0 c 0,-1.468 -1.191,-2.659 -2.66,-2.659 l -37.234,0 c -1.469,0 -2.66,1.191 -2.66,2.659 l 0,26.597 c 0,1.468 1.191,2.659 2.66,2.659 l 37.234,0 C -1.191,29.256 0,28.065 0,26.597 L 0,0 z"
         style="fill:none;stroke:#231f20;stroke-width:0.5;stroke-linecap:butt;stroke-linejoin:miter;stroke-miterlimit:4;stroke-opacity:1;stroke-dasharray:none"
         id="path3551"
         inkscape:connector-curvature="0" />
    </g>
    <g
       id="g3553"
       transform="matrix(1.25,0,0,-1.25,307.23714,571.84245)">
      <path
         d="m 0,0 c 0,-0.488 -0.398,-0.886 -0.887,-0.886 l -37.234,0 c -0.49,0 -0.887,0.398 -0.887,0.886 l 0,26.597 c 0,0.488 0.397,0.886 0.887,0.886 l 37.234,0 C -0.398,27.483 0,27.085 0,26.597 L 0,0 z m -0.887,28.591 -37.234,0 c -1.102,0 -1.996,-0.894 -1.996,-1.994 l 0,-26.597 c 0,-1.1 0.894,-1.994 1.996,-1.994 l 37.234,0 c 1.1,0 1.994,0.894 1.994,1.994 l 0,26.597 c 0,1.1 -0.894,1.994 -1.994,1.994"
         style="fill:#231f20;fill-opacity:1;fill-rule:nonzero;stroke:none"
         id="path3555"
         inkscape:connector-curvature="0" />
    </g>
    <g
       id="g3557"
       transform="matrix(1.25,0,0,-1.25,272.61589,545.50745)">
      <path
         d="m 0,0 -1.633,0 0,-5.96 -1.133,0 0,5.96 -1.631,0 0,1.133 L 0,1.133 0,0 z"
         style="fill:#231f20;fill-opacity:1;fill-rule:nonzero;stroke:none"
         id="path3559"
         inkscape:connector-curvature="0" />
    </g>
    <g
       id="g3561"
       transform="matrix(1.25,0,0,-1.25,278.44339,546.5562)">
      <path
         d="m 0,0 c 0,0.237 -0.08,0.436 -0.238,0.598 -0.159,0.16 -0.356,0.241 -0.592,0.241 l -1.633,0 0,-1.705 1.633,0 c 0.236,0 0.433,0.084 0.592,0.252 C -0.08,-0.446 0,-0.241 0,0 m 1.226,-5.121 -1.199,0 -1.142,3.122 -1.348,0 0,-3.122 -1.133,0 0,7.093 2.758,0 C -0.295,1.972 0.17,1.779 0.555,1.394 0.939,1.008 1.133,0.544 1.133,0 c 0,-0.794 -0.375,-1.39 -1.125,-1.787 l 1.218,-3.334 z"
         style="fill:#231f20;fill-opacity:1;fill-rule:nonzero;stroke:none"
         id="path3563"
         inkscape:connector-curvature="0" />
    </g>
    <g
       id="g3565"
       transform="matrix(1.25,0,0,-1.25,285.38214,549.05495)">
      <path
         d="M 0,0 -0.745,2.162 -1.483,0 0,0 z m 2.269,-3.122 -1.197,0 -0.682,1.989 -2.277,0 -0.666,-1.989 -1.205,0 2.439,7.093 1.149,0 2.439,-7.093 z"
         style="fill:#231f20;fill-opacity:1;fill-rule:nonzero;stroke:none"
         id="path3567"
         inkscape:connector-curvature="0" />
    </g>
    <path
       d="m 290.96714,552.9577 -1.415,0 0,-8.86625 1.415,0 0,8.86625 z"
       style="fill:#231f20;fill-opacity:1;fill-rule:nonzero;stroke:none"
       id="path3569"
       inkscape:connector-curvature="0" />
    <g
       id="g3571"
       transform="matrix(1.25,0,0,-1.25,298.59464,552.95745)">
      <path
         d="m 0,0 -4.398,0 0,7.093 1.132,0 0,-5.96 L 0,1.133 0,0 z"
         style="fill:#231f20;fill-opacity:1;fill-rule:nonzero;stroke:none"
         id="path3573"
         inkscape:connector-curvature="0" />
    </g>
    <g
       id="g3575"
       transform="matrix(1.25,0,0,-1.25,272.94089,566.25495)">
      <path
         d="M 0,0 -1.137,2.35 -2.276,0 l -1.275,0 1.775,3.69 -1.627,3.402 1.278,0 0.988,-2.073 1,2.073 1.265,0 L -0.499,3.69 1.277,0 0,0 z"
         style="fill:#231f20;fill-opacity:1;fill-rule:nonzero;stroke:none"
         id="path3577"
         inkscape:connector-curvature="0" />
    </g>
    <path
       d="m 275.22839,561.20395 3.11,0 0,1.4225 -3.11,0 0,-1.4225 z"
       style="fill:#231f20;fill-opacity:1;fill-rule:nonzero;stroke:none"
       id="path3579"
       inkscape:connector-curvature="0" />
    <path
       d="m 279.66589,557.3902 1.42375,0 0,8.865 -1.42375,0 0,-8.865 z"
       style="fill:#231f20;fill-opacity:1;fill-rule:nonzero;stroke:none"
       id="path3581"
       inkscape:connector-curvature="0" />
    <g
       id="g3583"
       transform="matrix(1.25,0,0,-1.25,287.86714,566.25495)">
      <path
         d="m 0,0 -2.584,4.7 0,-4.7 -1.137,0 0,7.092 1.094,0 2.574,-4.678 0,4.678 1.139,0 L 1.086,0 0,0 z"
         style="fill:#231f20;fill-opacity:1;fill-rule:nonzero;stroke:none"
         id="path3585"
         inkscape:connector-curvature="0" />
    </g>
    <g
       id="g3587"
       transform="matrix(1.25,0,0,-1.25,294.32714,566.3487)">
      <path
         d="m 0,0 c -1.998,0 -2.51,2.063 -2.51,3.616 0,1.552 0.512,3.615 2.51,3.615 1.744,0 2.17,-1.616 2.17,-1.616 L 1.139,5.189 c 0,0 -0.299,0.915 -1.139,0.915 -1,0 -1.383,-1.148 -1.383,-2.488 C -1.383,2.297 -1,1.138 0,1.138 c 1.043,0 1.191,1.149 1.201,1.351 l -1.287,0 0,1.127 2.393,0 0,-1.106 C 2.307,1.723 1.849,0 0,0"
         style="fill:#231f20;fill-opacity:1;fill-rule:nonzero;stroke:none"
         id="path3589"
         inkscape:connector-curvature="0" />
    </g>
  </g>
</svg>
