<?xml version="1.0" encoding="UTF-8" standalone="no"?>
<!-- Created with Inkscape (http://www.inkscape.org/) -->

<svg
   xmlns:dc="http://purl.org/dc/elements/1.1/"
   xmlns:cc="http://creativecommons.org/ns#"
   xmlns:rdf="http://www.w3.org/1999/02/22-rdf-syntax-ns#"
   xmlns:svg="http://www.w3.org/2000/svg"
   xmlns="http://www.w3.org/2000/svg"
   xmlns:sodipodi="http://sodipodi.sourceforge.net/DTD/sodipodi-0.dtd"
   xmlns:inkscape="http://www.inkscape.org/namespaces/inkscape"
   width="91.248436"
   height="91.245628"
   id="svg4929"
   version="1.1"
   inkscape:version="0.48.1 "
   sodipodi:docname="New document 33">
  <defs
     id="defs4931" />
  <sodipodi:namedview
     id="base"
     pagecolor="#ffffff"
     bordercolor="#666666"
     borderopacity="1.0"
     inkscape:pageopacity="0.0"
     inkscape:pageshadow="2"
     inkscape:zoom="0.35"
     inkscape:cx="132.05279"
     inkscape:cy="114.19424"
     inkscape:document-units="px"
     inkscape:current-layer="layer1"
     showgrid="false"
     fit-margin-top="0"
     fit-margin-left="0"
     fit-margin-right="0"
     fit-margin-bottom="0"
     inkscape:window-width="469"
     inkscape:window-height="403"
     inkscape:window-x="52"
     inkscape:window-y="14"
     inkscape:window-maximized="0" />
  <metadata
     id="metadata4934">
    <rdf:RDF>
      <cc:Work
         rdf:about="">
        <dc:format>image/svg+xml</dc:format>
        <dc:type
           rdf:resource="http://purl.org/dc/dcmitype/StillImage" />
        <dc:title></dc:title>
      </cc:Work>
    </rdf:RDF>
  </metadata>
  <g
     inkscape:label="Layer 1"
     inkscape:groupmode="layer"
     id="layer1"
     transform="translate(-242.94721,-555.3108)">
    <g
       id="g3603"
       transform="matrix(1.25,0,0,-1.25,291.51127,645.02611)">
      <path
         d="m 0,0 c -1.299,-1.299 -3.404,-1.299 -4.703,0 l -32.924,32.923 c -1.299,1.298 -1.299,3.404 0,4.703 l 32.924,32.922 c 1.299,1.299 3.404,1.299 4.703,0 L 32.924,37.626 c 1.298,-1.299 1.298,-3.405 0,-4.703 L 0,0 z"
         style="fill:#fccf34;fill-opacity:1;fill-rule:nonzero;stroke:none"
         id="path3605"
         inkscape:connector-curvature="0" />
    </g>
    <g
       id="g3607"
       transform="matrix(1.25,0,0,-1.25,291.51127,645.02611)">
      <path
         d="m 0,0 c -1.299,-1.299 -3.404,-1.299 -4.703,0 l -32.924,32.923 c -1.299,1.298 -1.299,3.404 0,4.703 l 32.924,32.922 c 1.299,1.299 3.404,1.299 4.703,0 L 32.924,37.626 c 1.298,-1.299 1.298,-3.405 0,-4.703 L 0,0 z"
         style="fill:none;stroke:#231f20;stroke-width:0.5;stroke-linecap:butt;stroke-linejoin:miter;stroke-miterlimit:4;stroke-opacity:1;stroke-dasharray:none"
         id="path3609"
         inkscape:connector-curvature="0" />
    </g>
    <g
       id="g3611"
       transform="matrix(1.25,0,0,-1.25,289.55239,643.06736)">
      <path
         d="m 0,0 c -0.433,-0.432 -1.136,-0.432 -1.568,0 l -32.924,32.923 c -0.431,0.433 -0.431,1.136 0,1.568 l 32.924,32.922 c 0.432,0.433 1.135,0.433 1.568,0 L 32.922,34.491 c 0.432,-0.432 0.432,-1.135 0,-1.568 L 0,0 z M 33.864,35.432 0.94,68.355 c -0.951,0.95 -2.498,0.95 -3.449,0 L -35.433,35.432 c -0.949,-0.951 -0.949,-2.498 0,-3.45 L -2.509,-0.94 c 0.951,-0.952 2.498,-0.952 3.449,0 l 32.924,32.922 c 0.949,0.952 0.949,2.499 0,3.45"
         style="fill:#231f20;fill-opacity:1;fill-rule:nonzero;stroke:none"
         id="path3613"
         inkscape:connector-curvature="0" />
    </g>
    <g
       id="g3615"
       transform="matrix(1.25,0,0,-1.25,312.59239,615.17861)">
      <path
         d="M 0,0 C -0.059,0.167 -0.107,0.341 -0.178,0.505 -0.248,0.667 -0.293,0.855 -0.418,0.98 -0.5,1.061 -0.58,1.142 -0.662,1.223 -0.715,1.277 -0.85,1.272 -0.92,1.285 -1.06,1.311 -1.299,1.25 -1.412,1.165 -1.498,1.101 -1.562,1.075 -1.662,1.042 -1.711,1.025 -1.851,1.096 -1.871,1.144 -1.908,1.229 -1.959,1.297 -1.935,1.386 -1.914,1.464 -1.85,1.59 -1.865,1.67 -1.883,1.773 -1.902,1.875 -1.92,1.976 -1.935,2.055 -2.051,2.164 -2.096,2.23 -2.207,2.388 -2.359,2.523 -2.49,2.664 -2.699,2.887 -2.883,3.185 -3.014,3.462 -3.172,3.796 -3.357,4.128 -3.484,4.474 -3.644,4.911 -3.805,5.347 -3.965,5.784 -4.086,6.109 -4.15,6.461 -4.238,6.795 -4.334,7.16 -4.43,7.51 -4.484,7.882 -4.508,8.054 -4.51,8.269 -4.67,8.376 -4.834,8.486 -5.059,8.54 -5.242,8.613 -5.576,8.747 -5.912,8.895 -6.207,9.1 c -0.338,0.234 -0.521,0.544 -0.732,0.889 -0.176,0.289 -0.098,0.77 -0.098,1.09 0,0.142 0.043,0.296 0.062,0.437 0.04,0.262 0.079,0.525 0.116,0.786 0.097,0.67 0.133,1.357 0.162,2.033 0.029,0.716 0.105,1.445 -0.024,2.154 -0.062,0.348 -0.193,0.661 -0.316,0.993 -0.041,0.111 -0.07,0.248 -0.139,0.347 -0.111,0.157 -0.222,0.314 -0.334,0.472 0.198,-0.056 0.393,-0.112 0.59,-0.169 0.172,-0.048 0.342,-0.17 0.5,-0.254 0.168,-0.088 0.227,-0.179 0.344,-0.335 0.094,-0.124 0.225,-0.249 0.271,-0.4 0.116,-0.368 0.266,-0.727 0.291,-1.112 0.016,-0.219 0.03,-0.437 0.045,-0.655 0.01,-0.145 -0.045,-0.318 -0.066,-0.46 -0.047,-0.327 -0.121,-0.662 -0.141,-0.991 -0.019,-0.344 0.018,-0.702 0.026,-1.047 0.007,-0.303 0.033,-0.606 0.052,-0.909 0.02,-0.279 0.1,-0.55 0.159,-0.823 l 0.177,0.62 c 0.047,-0.205 0.094,-0.41 0.141,-0.616 0.037,-0.155 0.092,-0.232 0.184,-0.366 0.138,-0.201 0.277,-0.403 0.416,-0.604 0.093,-0.135 0.132,-0.321 0.191,-0.474 0.059,-0.161 0.104,-0.284 0.121,-0.451 0.024,-0.216 0.047,-0.433 0.07,-0.65 0.022,-0.198 0.059,-0.396 0.088,-0.594 0.008,-0.059 0.004,-0.15 0.03,-0.206 0.027,-0.059 0.099,-0.119 0.14,-0.169 C -3.73,7.456 -3.58,7.275 -3.43,7.095 -3.525,7.341 -3.623,7.587 -3.719,7.833 -3.795,8.027 -3.791,8.25 -3.814,8.455 L -3.43,8.011 C -3.488,8.196 -3.545,8.38 -3.603,8.564 -3.65,8.714 -3.627,8.918 -3.637,9.076 -3.543,8.947 -3.408,8.825 -3.389,8.664 -3.363,8.457 -3.338,8.249 -3.31,8.042 l 0.177,0.65 C -3.074,8.293 -3.021,7.894 -2.975,7.492 -2.955,7.312 -2.996,7.211 -3.053,7.034 -3.119,6.828 -3.185,6.622 -3.252,6.416 L -2.66,7.125 -2.838,6.474 -2.512,6.77 -2.424,6.209 -2.039,7.155 C -2.068,6.853 -2.098,6.552 -2.127,6.252 -2.137,6.142 -2.213,6.018 -2.252,5.918 -2.309,5.768 -2.367,5.619 -2.424,5.469 L -1.98,6.031 C -2.012,5.841 -2.025,5.638 -2.082,5.456 -2.156,5.223 -2.23,4.991 -2.305,4.759 c 0.172,0.24 0.344,0.479 0.516,0.719 0.057,0.078 0.068,0.205 0.096,0.295 0.043,0.146 0.084,0.29 0.127,0.436 l 0.029,-0.503 0.266,0.679 0,-0.561 c 0.117,0.178 0.232,0.355 0.347,0.533 0.084,0.13 0.055,0.332 0.065,0.482 0.009,0.154 0.064,0.366 0.025,0.516 -0.059,0.229 -0.117,0.456 -0.176,0.685 -0.097,0.374 -0.291,0.713 -0.457,1.062 -0.15,0.319 -0.318,0.63 -0.48,0.943 -0.209,0.402 -0.334,0.815 -0.447,1.249 l 0.443,-0.207 c -0.109,0.182 -0.219,0.365 -0.328,0.547 -0.08,0.132 -0.074,0.336 -0.098,0.486 -0.062,0.386 -0.09,0.753 -0.107,1.144 -0.039,0.826 -0.143,1.645 -0.233,2.467 -0.035,0.318 -0.119,0.606 -0.203,0.917 -0.053,0.187 -0.103,0.372 -0.154,0.558 -0.043,0.153 -0.19,0.323 -0.27,0.46 -0.107,0.18 -0.213,0.361 -0.32,0.542 -0.023,0.04 -0.09,0.075 -0.125,0.104 -0.109,0.089 -0.219,0.178 -0.328,0.266 -0.311,0.251 -0.674,0.427 -1.02,0.627 -0.121,0.069 -0.236,0.111 -0.369,0.159 -0.185,0.066 -0.39,0.174 -0.584,0.208 -0.181,0.032 -0.398,0 -0.584,0 -0.158,0 -0.345,0.028 -0.504,-0.004 -0.177,-0.038 -0.379,-0.114 -0.56,-0.114 -0.174,0 -0.387,-0.035 -0.557,0.004 -0.223,0.051 -0.447,0.103 -0.672,0.155 -0.131,0.03 -0.277,0.063 -0.39,0.136 -0.164,0.102 -0.338,0.254 -0.518,0.326 -0.158,0.062 -0.316,0.126 -0.475,0.188 -0.335,0.133 -0.681,0.315 -1.035,0.394 -0.248,0.055 -0.496,0.112 -0.744,0.168 -0.129,0.029 -0.262,0.073 -0.394,0.08 -0.245,0.014 -0.489,0.027 -0.733,0.04 -0.16,0.009 -0.295,0.021 -0.451,-0.012 -0.424,-0.089 -0.818,-0.221 -1.23,-0.357 -0.211,-0.071 -0.418,-0.141 -0.641,-0.156 -0.912,-0.06 -1.822,-0.12 -2.734,-0.18 -0.821,-0.054 -1.641,-0.109 -2.461,-0.162 -0.059,-0.004 -0.114,0.011 -0.172,0.024 -0.237,0.049 -0.473,0.098 -0.709,0.147 -0.367,0.076 -0.746,0.105 -1.069,0.295 -0.103,0.06 -0.207,0.121 -0.308,0.181 0.322,-0.032 0.629,-0.105 0.945,-0.178 l -0.504,0.504 c -0.135,0.136 -0.385,0.161 -0.564,0.219 -0.196,0.062 -0.373,0.23 -0.543,0.342 -0.158,0.105 -0.326,0.198 -0.488,0.296 l 0.769,-0.059 c -0.301,0.111 -0.602,0.22 -0.902,0.325 -0.127,0.044 -0.272,0.074 -0.387,0.148 -0.152,0.098 -0.305,0.197 -0.457,0.296 0.314,-0.064 0.631,-0.12 0.947,-0.178 -0.178,0.159 -0.353,0.318 -0.531,0.478 -0.147,0.131 -0.375,0.176 -0.557,0.248 -0.195,0.075 -0.377,0.228 -0.552,0.34 -0.163,0.101 -0.327,0.197 -0.489,0.294 l 0.797,-0.059 c -0.115,0.058 -0.219,0.101 -0.308,0.192 -0.116,0.113 -0.229,0.227 -0.342,0.34 l 0.681,-0.118 c -0.169,0.18 -0.339,0.358 -0.509,0.538 -0.104,0.11 -0.205,0.22 -0.309,0.329 -0.064,0.069 -0.121,0.148 -0.205,0.192 -0.48,0.253 -0.969,0.485 -1.461,0.715 0.211,-0.046 0.422,-0.092 0.633,-0.137 0.152,-0.034 0.373,0.09 0.519,0.137 -0.203,0.062 -0.408,0.124 -0.613,0.187 -0.17,0.052 -0.316,0.204 -0.459,0.308 -0.14,0.103 -0.289,0.194 -0.435,0.288 -0.133,0.088 -0.268,0.197 -0.413,0.265 -0.337,0.159 -0.673,0.338 -1.019,0.477 -0.225,0.09 -0.451,0.18 -0.676,0.27 -0.15,0.06 -0.283,0.122 -0.441,0.144 -0.098,0.012 -0.194,0.025 -0.291,0.039 -0.053,0.007 -0.082,0.072 -0.115,0.112 -0.108,0.136 -0.208,0.236 -0.342,0.349 -0.11,0.094 -0.196,0.169 -0.28,0.285 -0.099,0.137 -0.191,0.282 -0.298,0.413 -0.053,0.064 -0.202,0.322 -0.284,0.322 -0.056,0 -0.197,0.029 -0.246,0 -0.033,-0.018 -0.111,-0.169 -0.119,-0.207 -0.012,-0.062 0.022,-0.159 0.029,-0.221 0.01,-0.072 0.01,-0.156 0.032,-0.225 0.049,-0.156 0.097,-0.314 0.146,-0.47 -0.084,0.036 -0.168,0.073 -0.252,0.11 -0.066,0.029 -0.177,0.053 -0.228,0.105 -0.129,0.129 -0.254,0.265 -0.395,0.38 -0.082,0.067 -0.164,0.134 -0.246,0.201 -0.01,0.009 -0.096,-0.045 -0.111,-0.053 -0.022,-0.01 -0.01,-0.089 -0.01,-0.112 0,-0.092 -0.021,-0.217 0,-0.306 0.025,-0.098 0.111,-0.205 0.158,-0.294 0.061,-0.112 0.59,-0.835 0.537,-0.869 -0.316,-0.202 -0.632,-0.403 -0.941,-0.619 -0.188,-0.132 -0.377,-0.263 -0.565,-0.393 -0.123,-0.087 -0.3,-0.136 -0.398,-0.252 -0.055,-0.068 -0.117,-0.115 -0.125,-0.202 -0.006,-0.055 0.008,-0.234 -0.029,-0.273 -0.16,-0.159 -0.319,-0.317 -0.477,-0.476 -0.25,-0.25 -0.517,-0.482 -0.777,-0.72 -0.285,-0.259 -0.541,-0.541 -0.885,-0.714 -0.178,-0.088 -0.338,-0.189 -0.506,-0.295 -0.054,-0.035 -0.084,-0.185 -0.107,-0.245 -0.035,-0.087 -0.024,-0.175 -0.024,-0.27 0,-0.178 -0.058,-0.347 -0.058,-0.525 0,-0.164 -0.026,-0.398 0.047,-0.542 0.043,-0.084 0.06,-0.193 0.156,-0.209 0.146,-0.024 0.133,-0.051 0.18,-0.191 0.009,-0.034 0.185,-0.065 0.216,-0.076 0.114,-0.035 0.225,-0.07 0.336,-0.105 0.166,-0.053 0.297,-0.171 0.469,-0.214 0.047,-0.012 0.188,-0.055 0.231,-0.051 0.146,0.012 0.351,0.237 0.435,0.321 0.09,0.091 0.18,0.334 0.297,0.362 0.232,0.057 0.465,0.113 0.697,0.17 0.158,0.039 0.319,0.08 0.479,0.109 0.086,0.016 0.174,0.025 0.254,0.055 0.076,0.028 0.154,0.077 0.234,0.068 0.24,-0.024 0.48,-0.05 0.719,-0.074 0.176,-0.019 0.347,0.031 0.521,0.061 0.178,0.029 0.348,0.085 0.52,0.134 0.123,0.035 0.133,0.099 0.195,-0.027 0.027,-0.056 0.045,-0.117 0.065,-0.177 0.177,-0.534 0.357,-1.066 0.542,-1.597 0.059,-0.174 0.217,-0.603 0.278,-0.776 0.142,-0.411 0.287,-0.821 0.43,-1.232 0.126,-0.363 0.275,-0.72 0.412,-1.078 0.082,-0.22 0.166,-0.44 0.25,-0.659 0.052,-0.137 0.048,-0.238 0.048,-0.389 0,-0.156 0.008,-0.299 -0.029,-0.448 -0.056,-0.229 -0.113,-0.458 -0.172,-0.686 -0.088,-0.356 -0.062,-0.749 -0.015,-1.108 0.013,-0.103 0.072,-0.179 0.123,-0.27 0.117,-0.209 0.234,-0.418 0.353,-0.627 0.229,-0.406 0.457,-0.812 0.686,-1.219 0.136,-0.242 -0.258,-0.644 -0.387,-0.833 -0.168,-0.247 -0.336,-0.494 -0.504,-0.742 C -30.344,9.955 -30.643,9.517 -30.941,9.079 -31.096,8.851 -31.248,8.578 -31.443,8.383 -31.592,8.234 -31.744,8.09 -31.9,7.949 -32.035,7.824 -32.123,7.666 -32.226,7.512 -32.262,7.458 -32.264,7.341 -32.277,7.279 -32.299,7.17 -32.322,7.059 -32.346,6.95 -32.375,6.812 -32.404,6.675 -32.434,6.538 -32.592,5.801 -32.728,5.053 -32.971,4.338 -33.117,3.91 -33.262,3.482 -33.408,3.053 -33.465,2.882 -33.461,2.668 -33.486,2.49 -33.512,2.308 -33.5,2.123 -33.5,1.94 c 0,-0.149 0.022,-0.359 -0.031,-0.495 -0.072,-0.191 -0.139,-0.369 -0.242,-0.544 -0.09,-0.149 -0.11,-0.276 -0.145,-0.449 -0.051,-0.252 -0.1,-0.504 -0.15,-0.756 -0.032,-0.152 -0.039,-0.307 -0.051,-0.462 -0.002,-0.022 0.219,-0.102 0.248,-0.114 0.059,-0.027 0.195,0.049 0.254,0.066 0.33,0.104 0.685,0.227 0.957,0.444 0.103,0.082 0.205,0.165 0.309,0.247 0.048,0.039 0.125,0.079 0.158,0.131 0.06,0.089 0.119,0.179 0.179,0.268 0.038,0.056 0.114,0.128 0.11,0.198 -0.016,0.201 -0.033,0.376 -0.084,0.57 -0.03,0.108 -0.059,0.216 -0.086,0.324 -0.018,0.065 -0.143,0.084 -0.154,0.143 -0.018,0.102 -0.038,0.203 -0.055,0.305 -0.014,0.066 0.082,0.188 0.111,0.248 0.035,0.069 0.115,0.114 0.151,0.183 0.046,0.09 0.058,0.219 0.086,0.318 0.093,0.355 0.121,0.722 0.121,1.088 0,0.398 0.078,0.777 0.144,1.171 0.026,0.151 0.119,0.308 0.178,0.45 0.068,0.171 0.125,0.358 0.211,0.522 0.187,0.358 0.377,0.699 0.596,1.038 0.185,0.286 0.515,0.505 0.781,0.713 0.297,0.233 0.59,0.487 0.898,0.702 0.295,0.204 0.619,0.374 0.932,0.548 0.197,0.11 0.437,0.204 0.613,0.343 0.209,0.168 0.42,0.335 0.631,0.502 0.217,0.173 0.436,0.346 0.652,0.52 0.082,0.064 0.168,0.123 0.252,0.183 0.114,0.083 0.096,0.158 0.114,0.298 0.087,-0.029 0.173,-0.057 0.261,-0.087 0.02,-0.007 0.033,-0.099 0.039,-0.117 0.069,-0.233 0.139,-0.466 0.207,-0.699 0.098,-0.33 0.213,-0.654 0.264,-0.995 0.059,-0.381 0.119,-0.762 0.176,-1.144 0.035,-0.245 0.072,-0.491 0.107,-0.736 0.024,-0.149 0.033,-0.31 0.08,-0.451 0.063,-0.189 0.061,-0.409 0.084,-0.606 0.02,-0.157 0.037,-0.314 0.055,-0.472 0.039,-0.355 0.045,-0.794 0.248,-1.099 0.117,-0.176 0.205,-0.28 0.367,-0.415 0.123,-0.103 0.246,-0.205 0.369,-0.307 0.338,-0.281 0.676,-0.562 1.012,-0.844 0.291,-0.241 0.533,-0.569 0.791,-0.845 0.244,-0.262 0.488,-0.521 0.742,-0.774 0.496,-0.496 1.229,-0.884 1.91,-1.052 0.202,-0.05 0.422,-0.057 0.627,-0.084 0.182,-0.025 0.35,-0.035 0.536,-0.035 0.451,0 0.064,0.688 -0.022,0.888 -0.06,0.142 -0.105,0.317 -0.209,0.433 -0.15,0.169 -0.303,0.338 -0.453,0.507 -0.047,0.051 -0.127,0.089 -0.184,0.128 -0.064,0.045 -0.146,0.13 -0.226,0.148 -0.057,0.013 -0.205,0.076 -0.258,0.048 -0.1,-0.055 -0.201,-0.11 -0.301,-0.164 -0.068,-0.037 -0.127,-0.102 -0.185,-0.152 -0.022,-0.018 -0.221,-0.017 -0.244,0 -0.04,0.027 -0.198,0.107 -0.204,0.149 -0.019,0.112 -0.039,0.223 -0.056,0.336 -0.059,0.349 -0.412,0.584 -0.69,0.765 -0.353,0.231 -0.689,0.466 -1.027,0.719 -0.275,0.207 -0.582,0.411 -0.746,0.718 -0.174,0.33 -0.326,0.682 -0.318,1.066 0.007,0.431 0.013,0.863 0.021,1.294 0.014,0.677 0.141,1.346 0.189,2.022 0.018,0.273 0.038,0.546 0.057,0.819 0.006,0.094 -0.016,0.35 0.057,0.388 0.035,0.018 0.133,0 0.172,0 l 0.41,0 c 0.164,0 0.353,-0.026 0.517,10e-4 0.358,0.057 0.748,0.076 1.094,0.177 0.397,0.117 0.791,0.233 1.186,0.348 0.761,0.224 1.521,0.447 2.283,0.672 0.289,0.086 0.574,0.172 0.859,0.272 0.369,0.131 0.764,0.237 1.121,0.399 0.43,0.195 0.858,0.39 1.287,0.585 0.008,-0.424 0.018,-0.847 0.028,-1.271 0.006,-0.364 0.131,-0.735 0.205,-1.09 0.142,-0.676 0.461,-1.287 0.726,-1.921 0.161,-0.385 0.33,-0.763 0.455,-1.162 0.018,-0.058 0.071,-0.151 0.063,-0.213 -0.012,-0.119 -0.025,-0.237 -0.037,-0.355 -0.018,-0.164 -0.041,-0.313 -0.145,-0.45 -0.468,-0.625 -0.945,-1.241 -1.463,-1.826 -0.503,-0.571 -1.111,-1.057 -1.683,-1.561 -0.139,-0.123 -0.248,-0.259 -0.365,-0.403 -0.098,-0.12 -0.071,-0.396 -0.088,-0.547 -0.02,-0.175 0.017,-0.308 -0.061,-0.467 -0.092,-0.183 -0.187,-0.365 -0.283,-0.546 -0.186,-0.346 -0.25,-0.713 -0.34,-1.093 -0.037,-0.152 -0.117,-0.339 -0.117,-0.497 0,-0.123 -0.031,-0.16 0.086,-0.195 0.084,-0.025 0.172,-0.073 0.256,-0.051 0.359,0.096 0.695,0.219 1.004,0.433 0.203,0.141 0.406,0.281 0.609,0.422 0.035,0.024 0.111,0.055 0.117,0.099 0.012,0.096 0.022,0.192 0.043,0.286 0.02,0.089 0.053,0.167 0.028,0.254 -0.022,0.084 -0.032,0.213 -0.084,0.283 -0.082,0.109 -0.323,0.351 -0.254,0.488 0.047,0.094 0.144,0.073 0.244,0.086 0.082,0.01 0.174,0.098 0.242,0.141 0.111,0.07 0.201,0.288 0.271,0.405 0.221,0.36 0.465,0.684 0.723,1.018 0.238,0.309 0.537,0.582 0.805,0.868 0.191,0.206 0.428,0.378 0.64,0.561 0.403,0.345 0.805,0.69 1.207,1.034 0.235,0.201 0.467,0.401 0.7,0.601 0.14,0.123 0.267,0.197 0.283,0.4 0.004,0.075 -0.057,0.185 -0.024,0.252 0.041,0.082 -0.007,0.188 -0.025,0.275 -0.06,0.283 -0.144,0.522 -0.252,0.793 -0.047,0.122 -0.096,0.243 -0.142,0.365 -0.043,0.105 -0.04,0.255 -0.055,0.367 -0.041,0.268 -0.065,0.507 -0.065,0.777 l 0,0.476 c 0,0.114 0.061,0.25 0.088,0.362 0.278,-0.214 0.547,-0.435 0.84,-0.625 0.307,-0.198 0.625,-0.378 0.899,-0.622 0.607,-0.541 1.21,-1.086 1.82,-1.626 0.121,-0.108 0.244,-0.218 0.365,-0.327 0.145,-0.131 0.332,-0.257 0.455,-0.409 0.258,-0.323 0.485,-0.646 0.709,-0.992 0.209,-0.32 0.367,-0.681 0.545,-1.018 0.184,-0.347 0.352,-0.702 0.527,-1.054 0.329,-0.657 0.598,-1.348 0.852,-2.038 0.049,-0.131 0.178,-0.28 0.293,-0.357 0.068,-0.045 0.16,-0.138 0.24,-0.158 0.112,-0.028 0.223,-0.056 0.334,-0.083 0.391,-0.098 0.559,-0.438 0.756,-0.743 0.047,-0.076 0.135,-0.262 0.213,-0.299 0.101,-0.049 0.201,-0.098 0.303,-0.147 0.365,-0.175 0.728,-0.35 1.093,-0.525 0.036,-0.018 0.176,-0.114 0.207,-0.078 0.026,0.032 0.135,0.124 0.135,0.165 l 0,0.252 C 0.119,-0.556 0.049,-0.279 0,0"
         style="fill:#231f20;fill-opacity:1;fill-rule:evenodd;stroke:none"
         id="path3617"
         inkscape:connector-curvature="0" />
    </g>
  </g>
</svg>
