<?xml version="1.0" encoding="UTF-8" standalone="no"?>
<!-- Created with Inkscape (http://www.inkscape.org/) -->

<svg
   xmlns:dc="http://purl.org/dc/elements/1.1/"
   xmlns:cc="http://creativecommons.org/ns#"
   xmlns:rdf="http://www.w3.org/1999/02/22-rdf-syntax-ns#"
   xmlns:svg="http://www.w3.org/2000/svg"
   xmlns="http://www.w3.org/2000/svg"
   xmlns:sodipodi="http://sodipodi.sourceforge.net/DTD/sodipodi-0.dtd"
   xmlns:inkscape="http://www.inkscape.org/namespaces/inkscape"
   width="91.247185"
   height="91.246872"
   id="svg4647"
   version="1.1"
   inkscape:version="0.48.1 "
   sodipodi:docname="New document 22">
  <defs
     id="defs4649" />
  <sodipodi:namedview
     id="base"
     pagecolor="#ffffff"
     bordercolor="#666666"
     borderopacity="1.0"
     inkscape:pageopacity="0.0"
     inkscape:pageshadow="2"
     inkscape:zoom="0.35"
     inkscape:cx="114.90931"
     inkscape:cy="-125.80513"
     inkscape:document-units="px"
     inkscape:current-layer="layer1"
     showgrid="false"
     fit-margin-top="0"
     fit-margin-left="0"
     fit-margin-right="0"
     fit-margin-bottom="0"
     inkscape:window-width="469"
     inkscape:window-height="403"
     inkscape:window-x="175"
     inkscape:window-y="175"
     inkscape:window-maximized="0" />
  <metadata
     id="metadata4652">
    <rdf:RDF>
      <cc:Work
         rdf:about="">
        <dc:format>image/svg+xml</dc:format>
        <dc:type
           rdf:resource="http://purl.org/dc/dcmitype/StillImage" />
        <dc:title></dc:title>
      </cc:Work>
    </rdf:RDF>
  </metadata>
  <g
     inkscape:label="Layer 1"
     inkscape:groupmode="layer"
     id="layer1"
     transform="translate(-260.09069,-315.31018)">
    <g
       id="g3507"
       transform="matrix(1.25,0,0,-1.25,308.656,405.02674)">
      <path
         d="m 0,0 c -1.3,-1.299 -3.406,-1.299 -4.704,0 l -32.924,32.923 c -1.299,1.299 -1.299,3.404 0,4.703 l 32.924,32.923 c 1.298,1.299 3.404,1.299 4.704,0 L 32.922,37.626 c 1.298,-1.299 1.298,-3.404 0,-4.703 L 0,0 z"
         style="fill:#fccf34;fill-opacity:1;fill-rule:nonzero;stroke:none"
         id="path3509"
         inkscape:connector-curvature="0" />
    </g>
    <g
       id="g3511"
       transform="matrix(1.25,0,0,-1.25,308.656,405.02674)">
      <path
         d="m 0,0 c -1.3,-1.299 -3.406,-1.299 -4.704,0 l -32.924,32.923 c -1.299,1.299 -1.299,3.404 0,4.703 l 32.924,32.923 c 1.298,1.299 3.404,1.299 4.704,0 L 32.922,37.626 c 1.298,-1.299 1.298,-3.404 0,-4.703 L 0,0 z"
         style="fill:none;stroke:#231f20;stroke-width:0.5;stroke-linecap:butt;stroke-linejoin:miter;stroke-miterlimit:4;stroke-opacity:1;stroke-dasharray:none"
         id="path3513"
         inkscape:connector-curvature="0" />
    </g>
    <g
       id="g3515"
       transform="matrix(1.25,0,0,-1.25,306.69337,403.06799)">
      <path
         d="M 0,0 C -0.431,-0.431 -1.134,-0.431 -1.568,0 L -34.49,32.923 c -0.432,0.433 -0.432,1.136 0,1.569 l 32.922,32.922 c 0.434,0.432 1.137,0.432 1.568,0 L 32.925,34.492 c 0.432,-0.433 0.432,-1.136 0,-1.569 L 0,0 z M 33.865,35.432 0.943,68.355 c -0.952,0.95 -2.499,0.95 -3.45,0 L -35.431,35.432 c -0.949,-0.951 -0.949,-2.498 0,-3.449 L -2.507,-0.94 c 0.951,-0.951 2.498,-0.951 3.45,0 l 32.922,32.923 c 0.951,0.951 0.951,2.498 0,3.449"
         style="fill:#231f20;fill-opacity:1;fill-rule:nonzero;stroke:none"
         id="path3517"
         inkscape:connector-curvature="0" />
    </g>
    <g
       id="g3527"
       transform="matrix(1.25,0,0,-1.25,327.85725,374.39924)">
      <path
         d="m 0,0 c -0.088,0.175 -0.17,0.345 -0.238,0.528 -0.069,0.183 0.029,0.382 0.097,0.545 0.073,0.172 0.151,0.327 0.205,0.507 0.043,0.146 -0.16,0.355 -0.248,0.473 -0.054,0.071 -0.103,0.144 -0.154,0.219 -0.07,0.105 -0.072,0.139 -0.072,0.267 0,0.059 0.125,0.173 0.162,0.222 0.047,0.063 0.143,0.081 0.191,0.147 0.065,0.084 0.139,0.148 0.139,0.254 0,0.109 -0.078,0.183 -0.141,0.271 -0.048,0.069 -0.095,0.138 -0.142,0.209 -0.018,0.026 -0.154,0.175 -0.154,0.197 0,0.19 0.021,0.378 0.027,0.568 0.004,0.079 0.004,0.16 -0.006,0.239 -0.012,0.088 0.012,0.188 -0.018,0.252 -0.039,0.084 -0.07,0.177 -0.117,0.256 -0.072,0.118 -0.076,0.137 -0.058,0.271 0.029,0.202 0.068,0.397 0.111,0.596 0.018,0.084 0.016,0.132 0.057,0.212 0.043,0.088 0.062,0.198 0.091,0.29 0.045,0.15 0.034,0.352 -0.06,0.485 -0.049,0.072 -0.149,0.131 -0.215,0.188 -0.07,0.062 -0.123,0.167 -0.178,0.242 -0.091,0.126 -0.148,0.316 -0.123,0.472 0.024,0.145 0.08,0.239 0.164,0.359 0.055,0.076 0.215,0.248 0.215,0.338 0,0.151 -0.055,0.289 -0.096,0.434 -0.015,0.055 -0.013,0.103 -0.013,0.16 0,0.073 -0.028,0.136 -0.051,0.206 -0.094,0.281 -0.053,0.534 0.004,0.818 0.051,0.255 0.225,0.464 0.375,0.671 l 0,-0.055 c 0.055,0.055 0.117,0.104 0.156,0.17 0.041,0.068 0.145,0.18 0.145,0.261 0,0.071 0.027,0.2 -0.004,0.264 -0.055,0.108 -0.108,0.215 -0.162,0.322 -0.172,0.344 0.185,0.732 0.377,0.988 0.074,0.1 -0.01,0.327 -0.049,0.442 -0.053,0.158 -0.162,0.352 -0.162,0.519 0,0.397 0.011,0.787 -0.041,1.181 -0.047,0.345 -0.172,0.705 -0.366,0.994 -0.212,0.32 -0.464,0.609 -0.709,0.903 -0.115,0.138 -0.33,0.243 -0.476,0.348 -0.131,0.096 -0.262,0.16 -0.41,0.231 -0.373,0.179 -0.725,0.306 -1.119,0.431 -0.336,0.106 -0.647,0.178 -0.995,0.24 -0.349,0.061 -0.718,0.17 -1.072,0.182 -0.463,0.017 -0.924,0.034 -1.385,0.05 -0.302,0.011 -0.611,0.042 -0.914,0.028 -1.545,-0.074 -3.091,-0.159 -4.638,-0.211 -1.561,-0.053 -3.112,-0.219 -4.669,-0.348 -0.694,-0.059 -1.397,-0.069 -2.072,0.129 -0.711,0.21 -1.424,0.537 -1.979,1.044 -0.283,0.259 -0.551,0.521 -0.785,0.826 -0.235,0.307 -0.414,0.647 -0.596,0.988 -0.156,0.292 -0.271,0.685 -0.328,1.008 -0.02,0.111 -0.039,0.222 -0.059,0.333 -0.013,0.075 0.164,0.076 0.223,0.089 0.149,0.033 0.359,0.14 0.486,0.224 0.284,0.187 0.508,0.456 0.686,0.739 0.045,0.072 0.09,0.143 0.135,0.215 0.008,0.012 -0.188,0.156 -0.209,0.173 -0.116,0.092 -0.246,0.183 -0.379,0.249 -0.32,0.161 -0.625,0.296 -0.975,0.377 -0.351,0.082 -0.676,0.109 -1.037,0.109 0.004,-0.025 -0.006,-0.042 -0.027,-0.055 -0.002,0.134 -0.16,0.35 -0.221,0.471 -0.084,0.166 -0.168,0.329 -0.303,0.463 -0.256,0.257 -0.504,0.477 -0.828,0.648 -0.332,0.174 -0.662,0.342 -1.031,0.43 -0.357,0.085 -0.742,0.195 -1.115,0.178 -0.186,-0.009 -0.379,-0.003 -0.563,-0.029 -0.191,-0.026 -0.41,-0.026 -0.595,-0.081 -0.383,-0.115 -0.729,-0.246 -1.092,-0.41 l 0.025,0 c -0.439,-0.221 -0.846,-0.509 -1.203,-0.849 -0.113,-0.107 -1,-1.094 -0.877,-1.177 -0.385,0.039 -0.738,0.022 -1.117,-0.054 -0.172,-0.034 -0.361,-0.146 -0.522,-0.218 -0.177,-0.079 -0.324,-0.175 -0.48,-0.291 -0.053,-0.04 0.473,-0.827 0.558,-0.916 0.125,-0.128 0.333,-0.22 0.481,-0.319 0.127,-0.086 0.285,-0.238 0.432,-0.285 0.197,-0.064 0.396,-0.126 0.593,-0.19 -0.129,-0.369 -0.254,-0.739 -0.373,-1.112 -0.045,-0.144 -0.09,-0.327 -0.175,-0.449 -0.118,-0.169 -0.235,-0.338 -0.354,-0.507 -0.09,-0.131 -0.246,-0.285 -0.287,-0.442 -0.027,-0.113 -0.043,-0.168 -0.02,-0.279 0.024,-0.104 0.051,-0.178 0.1,-0.273 0.039,-0.079 0.064,-0.174 0.139,-0.224 0.031,-0.019 0.103,-0.05 0.121,-0.081 0.033,-0.053 0.013,-0.072 -0.01,-0.14 -0.059,-0.176 0.008,-0.347 0.098,-0.498 0.095,-0.159 0.201,-0.271 0.377,-0.341 0.121,-0.048 0.084,-0.11 0.084,-0.237 0,-0.087 0.017,-0.168 0.033,-0.254 0.019,-0.105 0.019,-0.116 0.103,-0.179 0.059,-0.045 0.112,-0.095 0.182,-0.117 0.213,-0.065 0.426,-0.13 0.639,-0.196 0.14,-0.044 0.357,0.021 0.503,0.034 0.155,0.014 0.282,0.069 0.428,0.122 0.156,0.057 0.387,0.096 0.524,0.193 0.154,0.108 0.308,0.218 0.463,0.326 0.025,-0.105 0.228,-0.164 0.312,-0.211 0.102,-0.054 0.19,-0.146 0.277,-0.218 0.184,-0.146 0.315,-0.335 0.448,-0.525 0.287,-0.41 0.304,-0.895 0.304,-1.373 l 0.028,0 c -0.028,-0.844 -0.053,-1.689 -0.08,-2.533 -0.01,-0.33 -0.02,-0.661 -0.03,-0.992 -0.004,-0.137 0.071,-0.311 0.104,-0.444 0.047,-0.2 0.094,-0.401 0.14,-0.601 0.022,-0.086 0.016,-0.187 0.022,-0.275 0.008,-0.095 0.043,-0.162 0.09,-0.247 0.047,-0.087 0.072,-0.132 0.158,-0.175 0.084,-0.042 0.215,-0.078 0.273,-0.155 0.112,-0.148 0.137,-0.351 0.17,-0.532 0.037,-0.208 0.119,-0.343 0.237,-0.519 0.039,-0.058 0.181,-0.084 0.248,-0.11 0.088,-0.035 0.183,-0.048 0.277,-0.069 0.057,-0.012 0.127,-0.15 0.17,-0.192 0.066,-0.067 0.162,-0.118 0.219,-0.192 0.103,-0.136 0.154,-0.343 0.22,-0.498 0.086,-0.202 0.172,-0.302 0.387,-0.364 0.119,-0.034 0.192,-0.064 0.293,-0.137 0.111,-0.079 0.113,-0.117 0.113,-0.253 0,-0.107 -0.005,-0.197 -0.027,-0.301 -0.014,-0.072 -0.072,-0.226 0.025,-0.265 0.1,-0.039 0.204,-0.128 0.303,-0.153 0.035,-0.009 0.119,0.021 0.143,-0.008 0.039,-0.053 0.074,-0.096 0.097,-0.155 0.049,-0.121 0.01,-0.227 -0.011,-0.355 -0.02,-0.109 -0.01,-0.22 -0.01,-0.331 0.062,-0.003 0.123,-0.08 0.172,-0.119 0.097,-0.08 0.195,-0.161 0.293,-0.242 0.043,-0.035 0.146,-0.085 0.164,-0.132 0.027,-0.069 -0.061,-0.179 -0.092,-0.238 -0.18,-0.358 -0.293,-0.747 -0.426,-1.125 -0.058,-0.164 -0.029,-0.409 -0.041,-0.583 -0.01,-0.146 -0.017,-0.291 -0.027,-0.437 -0.014,-0.237 -0.027,-0.475 -0.041,-0.712 -0.008,-0.121 -0.258,-0.204 -0.358,-0.28 -0.617,-0.462 -1.13,-1.105 -1.259,-1.882 0.814,0.001 1.633,-0.035 2.447,-0.052 0.094,-0.002 0.27,0.003 0.305,0.089 0.047,0.11 0.093,0.22 0.14,0.331 0.01,0.026 0.063,0.202 0.1,0.21 0.082,0.016 0.15,0.025 0.234,0.025 0.069,0 0.258,-0.035 0.313,0.006 0.099,0.075 0.101,0.086 0.101,0.209 l 0,0.302 c 0,0.046 -0.025,0.242 0,0.277 0.028,0.036 0.069,0.01 0.088,0.033 0.035,0.044 0.071,0.086 0.104,0.131 0.119,0.161 0.138,0.304 0.138,0.505 0,0.179 0.006,0.363 0.032,0.54 0.015,0.112 0.031,0.224 0.047,0.337 0.011,0.075 0.105,0.138 0.14,0.206 0.016,0.034 0.006,0.089 0.055,0.083 0.037,-0.006 0.045,-0.102 0.051,-0.126 0.015,-0.064 -0.055,-0.232 -0.069,-0.295 -0.037,-0.16 -0.009,-0.343 -0.009,-0.508 0,-0.192 0.005,-0.37 0.029,-0.56 0.019,-0.175 0.019,-0.361 0.076,-0.528 0.027,-0.084 0.113,-0.497 0.195,-0.503 l -0.027,-0.027 0,0.027 c -0.408,-0.203 -0.744,-0.441 -1.066,-0.763 -0.139,-0.14 -0.268,-0.376 -0.358,-0.55 -0.107,-0.206 -0.164,-0.407 -0.219,-0.63 0.784,0.009 1.565,0.018 2.348,0.027 0.07,0 0.113,0.008 0.182,0.031 0.048,0.016 0.099,0.033 0.148,0.049 0.02,0.007 0,0.117 0.004,0.139 0.037,0.169 0.16,0.344 0.223,0.509 0.031,0.082 0.08,0.144 0.131,0.217 0.087,0.128 0.074,0.105 0.222,0.123 0.174,0.02 0.379,0.085 0.547,0.136 0.068,0.022 0.135,0.051 0.201,0.076 0.043,0.016 0.041,0.118 0.049,0.16 0.027,0.138 -0.019,0.221 -0.033,0.36 -0.029,0.29 -0.1,0.555 -0.215,0.823 -0.207,0.487 -0.248,1.046 -0.275,1.566 l 0.027,-0.192 c 0,0.349 0.256,0.692 0.602,0.761 0.066,0.014 0.123,0.084 0.171,0.125 0.094,0.076 0.188,0.153 0.28,0.23 0.068,0.055 0.017,0.107 -0.01,0.188 -0.033,0.103 -0.029,0.187 -0.029,0.295 0,0.094 -0.028,0.177 -0.049,0.268 -0.012,0.043 -0.029,0.184 -0.006,0.214 0.102,0.134 0.369,-0.013 0.478,0.096 0.061,0.062 0.145,0.113 0.159,0.2 0.015,0.111 0.039,0.191 0.08,0.294 0.033,0.082 0.056,0.152 0.131,0.204 0.052,0.036 0.203,0.126 0.218,0.028 0.114,0.113 0.215,0.211 0.297,0.347 0.092,0.154 0.033,0.276 -0.015,0.428 -0.055,0.163 0.123,0.184 0.134,0.322 0.008,0.089 0.016,0.178 0.022,0.267 0.006,0.069 0.086,0.123 0.084,0.196 0.047,0.003 0.218,-0.391 0.268,-0.458 0.041,-0.054 -0.021,-0.159 0.02,-0.22 0.072,-0.109 0.111,-0.154 0.225,-0.221 0.056,-0.033 0.197,0.009 0.255,0.018 0.104,0.018 0.131,0.121 0.178,0.203 0.039,0.067 0.152,0.108 0.215,0.148 0.057,0.034 0.225,-0.042 0.287,-0.058 0.158,-0.04 0.266,-0.213 0.438,-0.237 0.212,-0.03 0.378,-0.01 0.589,0.028 0.059,0.011 0.09,0.131 0.131,0.173 0.098,0.098 0.141,0.113 0.276,0.147 0.103,0.025 0.099,-0.089 0.131,-0.153 0.027,-0.059 0.111,-0.186 0.167,-0.221 0.067,-0.041 0.133,-0.083 0.2,-0.124 0.05,-0.034 0.092,-0.036 0.148,-0.064 0.106,-0.053 0.115,-0.055 0.225,-0.018 0.068,0.022 0.127,0.056 0.189,0.09 0.135,0.075 0.26,0.123 0.406,0.171 0.149,0.05 0.266,0.017 0.409,-0.023 0.127,-0.036 0.232,-0.142 0.359,-0.184 0.123,-0.041 0.313,-0.032 0.422,0.051 0.076,0.056 0.125,0.084 0.215,0.113 0.078,0.027 0.142,-0.005 0.222,-0.025 0.135,-0.034 0.284,-0.081 0.405,-0.149 l 0,0.027 c 0.035,0 0.164,-0.019 0.193,0.002 0.082,0.056 0.162,0.113 0.244,0.169 0.123,0.085 0.24,0.178 0.369,0.251 0.276,0.157 0.549,0.407 0.891,0.4 L -8.678,6.133 c 0.076,-0.12 0.155,-0.24 0.231,-0.361 0.058,-0.089 0.013,-0.238 0.111,-0.293 0.139,-0.08 0.234,-0.1 0.395,-0.126 0.129,-0.022 0.222,-0.106 0.33,-0.179 C -7.703,5.036 -7.734,4.947 -7.77,4.785 -7.797,4.662 -7.738,4.489 -7.723,4.365 -7.711,4.281 -7.557,4.163 -7.502,4.085 -7.416,3.965 -7.338,3.823 -7.227,3.723 -7.338,3.649 -7.389,3.618 -7.447,3.501 -7.473,3.453 -7.576,3.263 -7.555,3.228 -7.432,3.038 -7.316,2.855 -7.172,2.683 -7.33,2.62 -7.363,2.55 -7.461,2.408 -7.557,2.271 -7.555,2.224 -7.555,2.053 L -7.611,2.107 C -7.611,1.953 -7.656,1.726 -7.607,1.58 -7.539,1.373 -7.471,1.167 -7.4,0.96 -7.377,0.89 -7.357,0.818 -7.336,0.747 -7.299,0.621 -7.353,0.622 -7.459,0.54 -7.59,0.438 -7.721,0.3 -7.853,0.233 c -0.342,-0.17 -0.645,-0.397 -0.852,-0.726 -0.201,-0.319 -0.285,-0.69 -0.318,-1.059 -0.004,-0.04 -0.008,-0.079 -0.012,-0.119 0.142,0 0.279,-0.003 0.42,0.021 0.172,0.028 0.338,0.062 0.512,0.062 l -0.028,-0.027 c 0.457,0.021 0.912,0.027 1.369,0.027 l 0,-0.056 c 0.162,0.123 0.311,0.222 0.432,0.384 0.125,0.166 0.17,0.321 0.17,0.525 0,0.091 -0.016,0.144 0.051,0.209 0.097,0.097 0.099,0.117 0.232,0.104 0.209,-0.018 0.315,-0.08 0.492,-0.185 0.131,-0.08 0.309,-0.309 0.463,-0.154 0.029,0.029 0.168,0.141 0.158,0.192 -0.021,0.092 -0.031,0.194 -0.074,0.28 -0.037,0.076 -0.09,0.146 -0.09,0.232 0,0.139 0.02,0.162 0.104,0.275 0.054,0.075 0.115,0.145 0.176,0.217 0.08,0.093 0.115,0.092 0.048,0.208 C -4.654,0.74 -4.664,0.813 -4.68,0.924 -4.691,1 -4.77,1.093 -4.791,1.177 -4.84,1.376 -4.799,1.532 -4.736,1.725 l 0,-0.028 c 0.078,0.197 0.125,0.36 0.16,0.569 0.01,0.069 -0.043,0.128 -0.055,0.196 -0.014,0.087 -0.051,0.186 -0.051,0.273 0,0.161 0.055,0.369 0.205,0.45 0.096,0.05 0.19,0.102 0.286,0.153 0.013,0.008 0.179,-0.214 0.199,-0.236 0.094,-0.117 0.187,-0.322 0.187,-0.471 0,-0.206 -0.113,-0.397 -0.189,-0.586 C -4.055,1.896 -3.861,1.718 -3.779,1.59 -3.746,1.538 -3.65,1.477 -3.639,1.416 -3.617,1.284 -3.615,1.254 -3.676,1.135 -3.709,1.066 -3.838,0.89 -3.748,0.819 c 0.109,-0.085 0.217,-0.17 0.326,-0.256 0.067,-0.05 0.27,-0.156 0.301,-0.235 0.033,-0.081 -0.092,-0.29 -0.137,-0.356 l 0,0.028 c -0.013,-0.124 -0.041,-0.217 0.014,-0.328 0.055,-0.11 0.117,-0.217 0.176,-0.325 0.064,-0.119 -0.1,-0.188 -0.172,-0.239 -0.084,-0.06 -0.166,-0.133 -0.238,-0.207 -0.336,-0.335 -0.571,-0.703 -0.737,-1.146 0.346,-0.033 0.695,-0.088 1.045,-0.077 0.41,0.012 0.817,0.028 1.227,0.053 0.109,0.007 0.218,0.013 0.328,0.02 0.092,0.006 0.099,0.026 0.158,0.104 0.053,0.072 0.123,0.128 0.178,0.2 0.054,0.074 0.093,0.167 0.14,0.248 0.037,0.061 0.162,0.425 0.215,0.407 0.17,-0.056 0.358,-0.106 0.537,-0.106 0.075,0 0.18,-0.032 0.217,0.04 0.029,0.059 0.078,0.111 0.096,0.175 0.019,0.071 0.045,0.14 0.053,0.212 0.005,0.056 -0.006,0.171 0.033,0.214 0.06,0.069 0.123,0.139 0.185,0.209 0.041,0.047 0.024,0.121 0.024,0.183 C 0.221,-0.248 0.08,-0.08 0,0"
         style="fill:#231f20;fill-opacity:1;fill-rule:evenodd;stroke:none"
         id="path3529"
         inkscape:connector-curvature="0" />
    </g>
  </g>
</svg>
