<?xml version="1.0" encoding="UTF-8" standalone="no"?>
<!-- Created with Inkscape (http://www.inkscape.org/) -->

<svg
   xmlns:dc="http://purl.org/dc/elements/1.1/"
   xmlns:cc="http://creativecommons.org/ns#"
   xmlns:rdf="http://www.w3.org/1999/02/22-rdf-syntax-ns#"
   xmlns:svg="http://www.w3.org/2000/svg"
   xmlns="http://www.w3.org/2000/svg"
   xmlns:sodipodi="http://sodipodi.sourceforge.net/DTD/sodipodi-0.dtd"
   xmlns:inkscape="http://www.inkscape.org/namespaces/inkscape"
   width="90.625313"
   height="90.626251"
   id="svg3816"
   version="1.1"
   inkscape:version="0.48.1 "
   sodipodi:docname="New document 6">
  <defs
     id="defs3818">
    <clipPath
       clipPathUnits="userSpaceOnUse"
       id="clipPath3371">
      <path
         inkscape:connector-curvature="0"
         d="m 63,490.866 513.761,0 0,247.384 -513.761,0 0,-247.384 z"
         id="path3373" />
    </clipPath>
  </defs>
  <sodipodi:namedview
     id="base"
     pagecolor="#ffffff"
     bordercolor="#666666"
     borderopacity="1.0"
     inkscape:pageopacity="0.0"
     inkscape:pageshadow="2"
     inkscape:zoom="0.35"
     inkscape:cx="51.741228"
     inkscape:cy="-0.40118262"
     inkscape:document-units="px"
     inkscape:current-layer="layer1"
     showgrid="false"
     fit-margin-top="0"
     fit-margin-left="0"
     fit-margin-right="0"
     fit-margin-bottom="0"
     inkscape:window-width="469"
     inkscape:window-height="403"
     inkscape:window-x="75"
     inkscape:window-y="75"
     inkscape:window-maximized="0" />
  <metadata
     id="metadata3821">
    <rdf:RDF>
      <cc:Work
         rdf:about="">
        <dc:format>image/svg+xml</dc:format>
        <dc:type
           rdf:resource="http://purl.org/dc/dcmitype/StillImage" />
        <dc:title></dc:title>
      </cc:Work>
    </rdf:RDF>
  </metadata>
  <g
     inkscape:label="Layer 1"
     inkscape:groupmode="layer"
     id="layer1"
     transform="translate(-323.25877,-441.33475)">
    <g
       transform="matrix(1.25,0,0,-1.25,130.81421,1335.9255)"
       id="g3367">
      <g
         id="g3369"
         clip-path="url(#clipPath3371)">
        <g
           id="g3375"
           transform="translate(155.2354,681.9201)">
          <path
             inkscape:connector-curvature="0"
             d="m 0,0 32.472,32.472 c 1.374,1.374 3.622,1.374 4.996,0 L 69.94,0 c 1.374,-1.374 1.374,-3.622 0,-4.996 L 37.468,-37.468 c -1.374,-1.374 -3.622,-1.374 -4.996,0 L 0,-4.996 C -1.373,-3.622 -1.373,-1.374 0,0"
             style="fill:#fccf34;fill-opacity:1;fill-rule:nonzero;stroke:none"
             id="path3377" />
        </g>
        <g
           id="g3379"
           transform="translate(155.2354,681.9201)">
          <path
             inkscape:connector-curvature="0"
             d="m 0,0 32.472,32.472 c 1.374,1.374 3.622,1.374 4.996,0 L 69.94,0 c 1.374,-1.374 1.374,-3.622 0,-4.996 L 37.468,-37.468 c -1.374,-1.374 -3.622,-1.374 -4.996,0 L 0,-4.996 C -1.373,-3.622 -1.373,-1.374 0,0 z"
             style="fill:none;stroke:#231f20;stroke-width:0.5;stroke-linecap:butt;stroke-linejoin:miter;stroke-miterlimit:4;stroke-opacity:1;stroke-dasharray:none"
             id="path3381" />
        </g>
        <g
           id="g3383"
           transform="translate(156.0186,681.4036)">
          <path
             inkscape:connector-curvature="0"
             d="m 0,0 32.205,32.205 c 1.089,1.09 2.873,1.09 3.964,0 L 68.373,0 c 1.089,-1.09 1.089,-2.873 0,-3.963 L 36.169,-36.168 c -1.091,-1.09 -2.875,-1.09 -3.964,0 L 0,-3.963 C -1.09,-2.873 -1.09,-1.09 0,0"
             style="fill:#231f20;fill-opacity:1;fill-rule:evenodd;stroke:none"
             id="path3385" />
        </g>
        <g
           id="g3387"
           transform="translate(157.0254,680.4124)">
          <path
             inkscape:connector-curvature="0"
             d="m 0,0 32.19,32.189 c 0.545,0.545 1.436,0.545 1.98,0 L 66.36,0 c 0.545,-0.544 0.545,-1.437 0,-1.981 L 34.17,-34.17 c -0.544,-0.545 -1.435,-0.545 -1.98,0 L 0,-1.981 C -0.545,-1.437 -0.545,-0.544 0,0"
             style="fill:#fccf34;fill-opacity:1;fill-rule:evenodd;stroke:none"
             id="path3389" />
        </g>
        <g
           id="g3391"
           transform="translate(197.629,676.929)">
          <path
             inkscape:connector-curvature="0"
             d="M 0,0 6.345,1.035 2.346,6.23 C 0.273,4.423 0.016,2.253 0,0 m -1.746,-0.38 c -0.01,0.225 -0.047,0.587 -0.047,0.84 0,2.571 0.832,5.069 3.089,7.145 l -2.351,2.815 -3.637,-11.099 2.946,0.299 z m -13.964,11.046 0.202,0.617 12.957,0.018 -3.447,-10.45 -0.149,1.089 0.397,0 -0.049,0.695 -1.734,0 0.05,-0.645 0.445,0 0.099,-1.189 c 0,0 -8.721,9.815 -8.771,9.865 M -21.448,0.628 c 1.74,1.382 3.094,2.699 4.071,5.335 1.541,-1.399 2.421,-3.421 2.421,-5.503 0,-4.133 -3.371,-7.505 -7.505,-7.505 -4.134,0 -7.505,3.372 -7.505,7.505 0,4.134 3.371,7.505 7.505,7.505 1.319,0 2.668,-0.381 3.755,-1.023 -0.735,-2.326 -1.452,-3.525 -3.717,-5.348 -0.55,-0.024 -0.968,-0.465 -0.968,-0.992 0,-0.545 0.446,-0.991 0.991,-0.991 0.546,0 0.952,0.446 0.952,1.017 M 0.266,-1.595 c 0.848,-3.163 3.868,-5.45 7.21,-5.45 4.133,0 7.504,3.372 7.504,7.505 0,4.134 -3.371,7.505 -7.504,7.505 -1.32,0 -2.846,-0.311 -3.959,-0.963 L 7.59,1.594 C 8.088,1.586 8.521,1.141 8.521,0.602 c 0,-0.545 -0.445,-0.991 -0.99,-0.991 -0.151,0 -0.31,0.039 -0.444,0.103 L 0.266,-1.595 z M -18.17,8.68 l 2.658,7.334 -0.842,1.437 1.685,1.833 3.617,0 0.05,-1.04 -3.172,0 -0.643,-0.694 0.743,-1.338 -0.935,-3.313 12.982,0 0.199,0.607 c -1.044,0.135 -2.844,0.778 -3.274,1.151 -0.429,0.373 -0.053,0.717 0.436,0.733 2.562,0.109 6.369,0.323 7.093,0.327 C 3.15,15.72 3.224,15.355 2.74,14.826 2.256,14.297 1.832,13.82 -0.002,13.536 L -0.497,12.198 2.575,8.393 c 1.448,0.878 3.199,1.335 4.901,1.335 5.105,0 9.268,-4.163 9.268,-9.268 0,-5.105 -4.163,-9.268 -9.268,-9.268 -4.2,0 -7.893,2.897 -8.978,6.899 l -2.822,-0.507 c -0.121,-0.333 -0.404,-0.588 -0.741,-0.788 l 0.504,-2.388 0.645,0 0.049,-0.643 -2.032,-0.1 0,0.694 0.497,0 -0.615,2.386 c -0.913,0.149 -1.391,0.932 -1.119,1.708 l -9.222,10.429 -0.413,-1.119 c 2.239,-1.763 3.579,-4.479 3.579,-7.303 0,-5.105 -4.165,-9.268 -9.269,-9.268 -5.105,0 -9.269,4.163 -9.269,9.268 0,5.105 4.164,9.268 9.269,9.268 1.484,0 3.005,-0.361 4.291,-1.048"
             style="fill:#231f20;fill-opacity:1;fill-rule:evenodd;stroke:none"
             id="path3393" />
        </g>
      </g>
    </g>
  </g>
</svg>
