<?xml version="1.0" encoding="UTF-8" standalone="no"?>
<!-- Created with Inkscape (http://www.inkscape.org/) -->

<svg
   xmlns:dc="http://purl.org/dc/elements/1.1/"
   xmlns:cc="http://creativecommons.org/ns#"
   xmlns:rdf="http://www.w3.org/1999/02/22-rdf-syntax-ns#"
   xmlns:svg="http://www.w3.org/2000/svg"
   xmlns="http://www.w3.org/2000/svg"
   xmlns:sodipodi="http://sodipodi.sourceforge.net/DTD/sodipodi-0.dtd"
   xmlns:inkscape="http://www.inkscape.org/namespaces/inkscape"
   width="66.864998"
   height="83.352501"
   id="svg5597"
   version="1.1"
   inkscape:version="0.48.1 "
   sodipodi:docname="New document 48">
  <defs
     id="defs5599">
    <clipPath
       clipPathUnits="userSpaceOnUse"
       id="clipPath3461">
      <path
         inkscape:connector-curvature="0"
         d="m 63,45 513,0 0,448.439 -513,0 L 63,45 z"
         id="path3463" />
    </clipPath>
  </defs>
  <sodipodi:namedview
     id="base"
     pagecolor="#ffffff"
     bordercolor="#666666"
     borderopacity="1.0"
     inkscape:pageopacity="0.0"
     inkscape:pageshadow="2"
     inkscape:zoom="0.35"
     inkscape:cx="-188.71036"
     inkscape:cy="-61.180893"
     inkscape:document-units="px"
     inkscape:current-layer="layer1"
     showgrid="false"
     fit-margin-top="0"
     fit-margin-left="0"
     fit-margin-right="0"
     fit-margin-bottom="0"
     inkscape:window-width="469"
     inkscape:window-height="403"
     inkscape:window-x="75"
     inkscape:window-y="75"
     inkscape:window-maximized="0" />
  <metadata
     id="metadata5602">
    <rdf:RDF>
      <cc:Work
         rdf:about="">
        <dc:format>image/svg+xml</dc:format>
        <dc:type
           rdf:resource="http://purl.org/dc/dcmitype/StillImage" />
        <dc:title></dc:title>
      </cc:Work>
    </rdf:RDF>
  </metadata>
  <g
     inkscape:label="Layer 1"
     inkscape:groupmode="layer"
     id="layer1"
     transform="translate(-563.71036,-387.82879)">
    <g
       id="g3457"
       transform="matrix(1.25,0,0,-1.25,132.00898,580.46754)">
      <g
         id="g3459"
         clip-path="url(#clipPath3461)">
        <g
           id="g3465"
           transform="translate(350.0271,87.679)">
          <path
             d="m 0,0 0,0 44.158,0 c 2.439,0 4.418,1.975 4.418,4.416 l 0,57.35 c 0,2.439 -1.979,4.416 -4.418,4.416 l -44.098,0 -0.06,0 c -2.442,0 -4.416,-1.977 -4.416,-4.416 l 0,-57.35 C -4.416,1.979 -2.44,0 0,0"
             style="fill:#fccf34;fill-opacity:1;fill-rule:evenodd;stroke:none"
             id="path3467"
             inkscape:connector-curvature="0" />
        </g>
        <g
           id="g3469"
           transform="translate(350.0271,87.679)">
          <path
             d="m 0,0 0,0 44.158,0 c 2.439,0 4.418,1.975 4.418,4.416 l 0,57.35 c 0,2.439 -1.979,4.416 -4.418,4.416 l -44.098,0 -0.06,0 c -2.442,0 -4.416,-1.977 -4.416,-4.416 l 0,-57.35 C -4.416,1.979 -2.44,0 0,0 z"
             style="fill:none;stroke:#231f20;stroke-width:0.5;stroke-linecap:butt;stroke-linejoin:miter;stroke-miterlimit:4;stroke-opacity:1;stroke-dasharray:none"
             id="path3471"
             inkscape:connector-curvature="0" />
        </g>
        <g
           id="g3473"
           transform="translate(350.0401,88.599)">
          <path
             d="m 0,0 0,0 44.131,0 c 1.949,0 3.53,1.58 3.53,3.529 l 0,57.36 c 0,1.949 -1.581,3.529 -3.53,3.529 L 0,64.418 c -1.949,0 -3.527,-1.58 -3.527,-3.529 l 0,-57.36 C -3.527,1.582 -1.947,0 0,0"
             style="fill:#231f20;fill-opacity:1;fill-rule:evenodd;stroke:none"
             id="path3475"
             inkscape:connector-curvature="0" />
        </g>
        <g
           id="g3477"
           transform="translate(350.0441,131.9)">
          <path
             d="m 0,0 0,0 44.125,0 c 1.217,0 2.203,0.986 2.203,2.203 l 0,15.381 c 0,1.219 -0.986,2.205 -2.203,2.205 L 0,19.789 c -1.218,0 -2.205,-0.986 -2.205,-2.205 l 0,-15.381 C -2.205,0.984 -1.22,0 0,0"
             style="fill:#fccf34;fill-opacity:1;fill-rule:evenodd;stroke:none"
             id="path3479"
             inkscape:connector-curvature="0" />
        </g>
        <g
           id="g3481"
           transform="translate(350.0441,89.919)">
          <path
             d="m 0,0 0,0 44.125,0 c 1.217,0 2.203,0.987 2.203,2.204 l 0,36.33 c 0,1.22 -0.986,2.207 -2.203,2.207 L 0,40.741 c -1.218,0 -2.205,-0.987 -2.205,-2.207 l 0,-36.33 C -2.205,0.985 -1.22,0 0,0"
             style="fill:#fccf34;fill-opacity:1;fill-rule:evenodd;stroke:none"
             id="path3483"
             inkscape:connector-curvature="0" />
        </g>
        <g
           id="g3485"
           transform="translate(388.6281,143.06)">
          <path
             d="m 0,0 c 0,-0.65 -0.527,-1.082 -1.3,-1.082 l -2.571,0 0,2.197 2.571,0 C -0.527,1.115 0,0.684 0,0 m 1.578,0 c 0,0.992 -0.525,1.859 -1.361,2.324 -0.496,0.278 -0.898,0.371 -1.58,0.371 l -4.119,0 0,-8.826 1.611,0 0,3.469 2.508,0 c 0.682,0 1.084,0.062 1.58,0.34 0.836,0.465 1.361,1.394 1.361,2.322 m -9.351,-6.131 0,8.826 -1.549,0 -2.602,-5.234 -2.57,5.234 -1.549,0 0,-8.826 1.549,0 0,5.389 2.57,-5.389 2.602,5.389 0,-5.389 1.549,0 z m -13.008,3.655 -2.478,0 1.24,2.972 1.238,-2.972 z m 3.252,-3.655 -3.686,8.826 -1.611,0 -3.715,-8.826 1.735,0 0.867,2.074 3.84,0 0.867,-2.074 1.703,0 z M -29.265,0 c 0,-0.65 -0.498,-1.082 -1.272,-1.082 l -2.508,0 0,2.197 2.508,0 c 0.774,0 1.272,-0.431 1.272,-1.115 m 1.763,-6.131 -1.611,3.778 c 0.9,0.496 1.428,1.363 1.428,2.353 0,0.992 -0.528,1.859 -1.364,2.324 -0.464,0.278 -0.869,0.371 -1.517,0.371 l -4.057,0 0,-8.826 1.578,0 0,3.469 2.354,0 1.426,-3.469 1.763,0 z"
             style="fill:#231f20;fill-opacity:1;fill-rule:evenodd;stroke:none"
             id="path3487"
             inkscape:connector-curvature="0" />
        </g>
        <g
           id="g3489"
           transform="translate(385.4211,93.572)">
          <path
             d="m 0,0 0,7.355 -1.316,0 0,-2.84 -3.303,0 0,2.84 -1.316,0 0,-7.355 1.316,0 0,3.199 3.303,0.025 L -1.316,0 0,0 z m -10.746,5.109 c 0,-0.541 -0.439,-0.904 -1.084,-0.904 l -2.142,0 0,1.834 2.142,0 c 0.645,0 1.084,-0.361 1.084,-0.93 m 1.317,0 c 0,0.824 -0.44,1.549 -1.135,1.936 -0.414,0.232 -0.75,0.31 -1.319,0.31 l -3.431,0 0,-7.355 1.342,0 0,2.89 2.089,0 c 0.569,0 0.905,0.051 1.319,0.284 0.695,0.386 1.135,1.16 1.135,1.935 M -19.506,0 l 0,7.355 -1.289,0 -2.168,-4.363 -2.14,4.363 -1.293,0 0,-7.355 1.293,0 0,4.49 2.14,-4.49 2.168,4.49 0,-4.49 1.289,0 z"
             style="fill:#231f20;fill-opacity:1;fill-rule:evenodd;stroke:none"
             id="path3491"
             inkscape:connector-curvature="0" />
        </g>
        <g
           id="g3493"
           transform="translate(363.7511,107.607)">
          <path
             d="m 0,0 c -2.199,0 -4.398,0.754 -5.968,2.199 -0.44,0.377 -0.754,0.69 -1.381,1.444 l 2.574,1.949 c 1.258,-1.635 2.891,-2.326 4.965,-2.326 2.197,0 3.705,1.005 3.705,2.513 0,0.879 -0.565,1.885 -1.381,2.324 C 2.01,8.355 1.446,8.48 0.754,8.48 l -0.879,0 0,3.206 0.754,0 c 1.381,0 2.387,0.753 2.387,1.759 0,1.067 -1.256,1.885 -3.141,1.885 -1.507,0 -2.89,-0.629 -3.959,-1.76 l -2.386,2.199 c 1.759,1.823 3.957,2.764 6.533,2.764 3.582,0 6.221,-2.137 6.221,-5.025 0,-1.194 -0.377,-2.012 -1.446,-3.393 C 6.598,8.545 7.1,7.602 7.1,5.904 7.1,2.576 4.022,0 0,0"
             style="fill:#231f20;fill-opacity:1;fill-rule:nonzero;stroke:none"
             id="path3495"
             inkscape:connector-curvature="0" />
        </g>
      </g>
    </g>
    <g
       id="g3505"
       transform="matrix(1.25,0,0,-1.25,608.47114,447.07706)">
      <path
         d="m 0,0 c -2.451,0 -4.651,0.627 -6.912,2.01 l 1.697,2.701 C -3.645,3.769 -1.822,3.266 0,3.266 c 2.701,0 4.334,1.195 4.334,3.205 0,0.943 -0.44,1.884 -1.131,2.451 -0.629,0.502 -1.57,0.754 -2.891,0.754 -1.193,0 -2.134,-0.19 -3.455,-0.692 l -3.203,0.817 0.565,8.418 11.937,0 -0.062,-3.141 -8.86,0 -0.187,-2.576 c 1.445,0.314 2.324,0.439 3.455,0.439 4.084,0 7.037,-2.763 7.037,-6.47 C 7.539,2.701 4.396,0 0,0"
         style="fill:#231f20;fill-opacity:1;fill-rule:nonzero;stroke:none"
         id="path3507"
         inkscape:connector-curvature="0" />
    </g>
  </g>
</svg>
