<?xml version="1.0" encoding="UTF-8" standalone="no"?>
<!-- Created with Inkscape (http://www.inkscape.org/) -->

<svg
   xmlns:dc="http://purl.org/dc/elements/1.1/"
   xmlns:cc="http://creativecommons.org/ns#"
   xmlns:rdf="http://www.w3.org/1999/02/22-rdf-syntax-ns#"
   xmlns:svg="http://www.w3.org/2000/svg"
   xmlns="http://www.w3.org/2000/svg"
   xmlns:sodipodi="http://sodipodi.sourceforge.net/DTD/sodipodi-0.dtd"
   xmlns:inkscape="http://www.inkscape.org/namespaces/inkscape"
   width="66.864998"
   height="116.54625"
   id="svg5824"
   version="1.1"
   inkscape:version="0.48.1 "
   sodipodi:docname="New document 52">
  <defs
     id="defs5826">
    <clipPath
       clipPathUnits="userSpaceOnUse"
       id="clipPath3961">
      <path
         inkscape:connector-curvature="0"
         d="m 63,45 513,0 0,448.439 -513,0 L 63,45 z"
         id="path3963" />
    </clipPath>
    <clipPath
       clipPathUnits="userSpaceOnUse"
       id="clipPath3945">
      <path
         inkscape:connector-curvature="0"
         d="m 67.182,45 504.635,0 0,448.439 -504.635,0 0,-448.439 z"
         id="path3947" />
    </clipPath>
  </defs>
  <sodipodi:namedview
     id="base"
     pagecolor="#ffffff"
     bordercolor="#666666"
     borderopacity="1.0"
     inkscape:pageopacity="0.0"
     inkscape:pageshadow="2"
     inkscape:zoom="0.35"
     inkscape:cx="25.575355"
     inkscape:cy="92.558837"
     inkscape:document-units="px"
     inkscape:current-layer="layer1"
     showgrid="false"
     fit-margin-top="0"
     fit-margin-left="0"
     fit-margin-right="0"
     fit-margin-bottom="0"
     inkscape:window-width="469"
     inkscape:window-height="403"
     inkscape:window-x="25"
     inkscape:window-y="25"
     inkscape:window-maximized="0" />
  <metadata
     id="metadata5829">
    <rdf:RDF>
      <cc:Work
         rdf:about="">
        <dc:format>image/svg+xml</dc:format>
        <dc:type
           rdf:resource="http://purl.org/dc/dcmitype/StillImage" />
        <dc:title></dc:title>
      </cc:Work>
    </rdf:RDF>
  </metadata>
  <g
     inkscape:label="Layer 1"
     inkscape:groupmode="layer"
     id="layer1"
     transform="translate(-349.42465,-508.37477)">
    <g
       transform="matrix(1.25,0,0,-1.25,-297.78048,734.20727)"
       id="g3941">
      <g
         id="g3943"
         clip-path="url(#clipPath3945)">
        <g
           id="g3949"
           transform="translate(522.4301,87.679)">
          <path
             inkscape:connector-curvature="0"
             d="m 0,0 0,0 44.16,0 c 2.438,0 4.416,1.975 4.416,4.416 l 0,83.905 c 0,2.437 -1.978,4.416 -4.416,4.416 l -44.097,0 -0.063,0 c -2.441,0 -4.416,-1.979 -4.416,-4.416 l 0,-83.905 C -4.416,1.979 -2.437,0 0,0"
             style="fill:#fccf34;fill-opacity:1;fill-rule:evenodd;stroke:none"
             id="path3951" />
        </g>
        <g
           id="g3953"
           transform="translate(522.4301,87.679)">
          <path
             inkscape:connector-curvature="0"
             d="m 0,0 0,0 44.16,0 c 2.438,0 4.416,1.975 4.416,4.416 l 0,83.905 c 0,2.437 -1.978,4.416 -4.416,4.416 l -44.097,0 -0.063,0 c -2.441,0 -4.416,-1.979 -4.416,-4.416 l 0,-83.905 C -4.416,1.979 -2.437,0 0,0 z"
             style="fill:none;stroke:#231f20;stroke-width:0.5;stroke-linecap:butt;stroke-linejoin:miter;stroke-miterlimit:4;stroke-opacity:1;stroke-dasharray:none"
             id="path3955" />
        </g>
      </g>
    </g>
    <g
       transform="matrix(1.25,0,0,-1.25,-297.78048,734.20727)"
       id="g3957">
      <g
         id="g3959"
         clip-path="url(#clipPath3961)">
        <g
           id="g3965"
           transform="translate(522.4461,88.601)">
          <path
             inkscape:connector-curvature="0"
             d="m 0,0 0,0 44.129,0 c 1.949,0 3.531,1.578 3.531,3.529 l 0,83.911 c 0,1.951 -1.582,3.531 -3.531,3.531 L 0,90.971 c -1.951,0 -3.53,-1.58 -3.53,-3.531 l 0,-83.911 C -3.53,1.58 -1.95,0 0,0"
             style="fill:#231f20;fill-opacity:1;fill-rule:evenodd;stroke:none"
             id="path3967" />
        </g>
        <g
           id="g3969"
           transform="translate(522.4481,158.455)">
          <path
             inkscape:connector-curvature="0"
             d="m 0,0 0,0 44.125,0 c 1.218,0 2.205,0.986 2.205,2.203 l 0,15.381 c 0,1.218 -0.987,2.205 -2.205,2.205 L 0,19.789 c -1.217,0 -2.203,-0.987 -2.203,-2.205 l 0,-15.381 C -2.203,0.986 -1.219,0 0,0"
             style="fill:#fccf34;fill-opacity:1;fill-rule:evenodd;stroke:none"
             id="path3971" />
        </g>
        <g
           id="g3973"
           transform="translate(522.4481,89.919)">
          <path
             inkscape:connector-curvature="0"
             d="m 0,0 0,0 44.125,0 c 1.218,0 2.205,0.987 2.205,2.204 l 0,62.884 c 0,1.221 -0.987,2.207 -2.205,2.207 L 0,67.295 c -1.217,0 -2.203,-0.986 -2.203,-2.207 l 0,-62.884 C -2.203,0.985 -1.219,0 0,0"
             style="fill:#fccf34;fill-opacity:1;fill-rule:evenodd;stroke:none"
             id="path3975" />
        </g>
        <g
           id="g3977"
           transform="translate(531.7971,170.072)">
          <path
             inkscape:connector-curvature="0"
             d="m 0,0 c 0,0.289 -0.123,0.549 -0.367,0.777 -0.244,0.231 -0.514,0.346 -0.809,0.346 l -2.718,0 0,-2.209 2.736,0 c 0.295,0 0.561,0.109 0.801,0.326 C -0.119,-0.541 0,-0.287 0,0 m 0.1,-2.397 1.572,-3.726 -1.732,0 -1.457,3.451 -2.377,0 0,-3.451 -1.588,0 0,8.832 4.355,0 c 0.742,0 1.383,-0.262 1.918,-0.785 C 1.328,1.398 1.592,0.758 1.586,-0.002 1.58,-0.543 1.444,-1.026 1.176,-1.446 0.906,-1.867 0.549,-2.184 0.1,-2.397"
             style="fill:#231f20;fill-opacity:1;fill-rule:nonzero;stroke:none"
             id="path3979" />
        </g>
        <g
           id="g3981"
           transform="translate(540.2051,167.568)">
          <path
             inkscape:connector-curvature="0"
             d="M 0,0 -1.263,3.031 -2.535,0 0,0 z m 3.241,-3.619 -1.721,0 -0.848,2.031 -3.869,0 -0.847,-2.031 -1.723,0 3.691,8.832 1.617,0 3.7,-8.832 z"
             style="fill:#231f20;fill-opacity:1;fill-rule:nonzero;stroke:none"
             id="path3983" />
        </g>
        <g
           id="g3985"
           transform="translate(553.2521,163.949)">
          <path
             inkscape:connector-curvature="0"
             d="m 0,0 -1.586,0 0,5.211 L -4.15,0 l -2.565,5.211 0,-5.211 -1.587,0 0,8.832 1.591,0 2.563,-5.201 2.562,5.201 L 0,8.832 0,0 z"
             style="fill:#231f20;fill-opacity:1;fill-rule:nonzero;stroke:none"
             id="path3987" />
        </g>
        <g
           id="g3989"
           transform="translate(561.1141,170.072)">
          <path
             inkscape:connector-curvature="0"
             d="M 0,0 C 0,0.289 -0.121,0.549 -0.366,0.777 -0.61,1.008 -0.879,1.123 -1.172,1.123 l -2.807,0 0,-2.209 2.824,0 c 0.293,0 0.561,0.109 0.799,0.326 C -0.119,-0.541 0,-0.287 0,0 M 1.588,0 C 1.582,-0.776 1.314,-1.416 0.783,-1.918 0.254,-2.422 -0.383,-2.672 -1.125,-2.672 l -2.854,0 0,-3.451 -1.586,0 0,8.832 4.442,0 c 0.742,0 1.38,-0.262 1.916,-0.785 C 1.328,1.4 1.593,0.76 1.588,0"
             style="fill:#231f20;fill-opacity:1;fill-rule:nonzero;stroke:none"
             id="path3991" />
        </g>
        <g
           id="g3993"
           transform="translate(530.9591,102.302)">
          <path
             inkscape:connector-curvature="0"
             d="m 0,0 c 0,1.842 0.379,3.198 1.246,4.715 1.356,2.276 3.305,3.684 6.123,4.442 1.733,0.488 2.331,1.029 2.331,1.951 0,1.136 -1.084,1.787 -3.036,1.787 -2.003,0 -3.466,-0.487 -4.767,-1.68 L 0,13.328 c 1.789,1.573 4.01,2.385 6.502,2.385 3.631,0 5.959,-1.789 5.959,-4.605 0,-1.301 -0.541,-2.492 -1.57,-3.36 C 10.403,7.369 9.7,6.991 8.616,6.664 6.557,6.069 5.961,5.797 5.039,4.985 4.334,4.389 3.901,3.793 3.36,2.764 l 9.101,0 L 12.461,0 0,0 z"
             style="fill:#231f20;fill-opacity:1;fill-rule:nonzero;stroke:none"
             id="path3995" />
        </g>
        <g
           id="g3997"
           transform="translate(551.5471,102.033)">
          <path
             inkscape:connector-curvature="0"
             d="m 0,0 c -2.113,0 -4.01,0.541 -5.959,1.732 l 1.463,2.33 C -3.142,3.25 -1.57,2.816 0,2.816 c 2.33,0 3.739,1.029 3.739,2.764 0,0.812 -0.379,1.625 -0.975,2.113 -0.543,0.434 -1.356,0.65 -2.492,0.65 -1.03,0 -1.842,-0.164 -2.981,-0.597 l -2.763,0.705 0.488,7.26 10.295,0 -0.055,-2.709 -7.641,0 -0.162,-2.221 c 1.246,0.271 2.006,0.379 2.981,0.379 3.521,0 6.068,-2.385 6.068,-5.58 C 6.502,2.328 3.793,0 0,0"
             style="fill:#231f20;fill-opacity:1;fill-rule:nonzero;stroke:none"
             id="path3999" />
        </g>
        <g
           id="g4001"
           transform="translate(538.8031,92.095)">
          <path
             inkscape:connector-curvature="0"
             d="M 0,0 0,3.535 -1.707,0 -3.392,3.535 -3.392,0 -4.41,0 l 0,5.791 1.018,0 L -1.707,2.358 0,5.791 1.016,5.791 1.016,0 0,0 z"
             style="fill:#231f20;fill-opacity:1;fill-rule:nonzero;stroke:none"
             id="path4003" />
        </g>
        <g
           id="g4005"
           transform="translate(545.5881,96.851)">
          <path
             inkscape:connector-curvature="0"
             d="m 0,0 -1.685,0 0,-1.443 1.685,0 c 0.508,0 0.854,0.285 0.854,0.711 C 0.854,-0.285 0.508,0 0,0 M 0.996,-2.256 C 0.67,-2.439 0.407,-2.48 -0.041,-2.48 l -1.644,0 0,-2.276 -1.057,0 0,5.791 2.701,0 c 0.448,0 0.711,-0.06 1.037,-0.244 0.549,-0.305 0.893,-0.873 0.893,-1.523 0,-0.61 -0.344,-1.219 -0.893,-1.524"
             style="fill:#231f20;fill-opacity:1;fill-rule:nonzero;stroke:none"
             id="path4007" />
        </g>
        <g
           id="g4009"
           transform="translate(553.592,92.095)">
          <path
             inkscape:connector-curvature="0"
             d="m 0,0 0,2.541 -2.599,-0.021 0,-2.52 -1.038,0 0,5.791 1.038,0 0,-2.234 2.599,0 0,2.234 1.037,0 L 1.037,0 0,0 z"
             style="fill:#231f20;fill-opacity:1;fill-rule:nonzero;stroke:none"
             id="path4011" />
        </g>
        <g
           id="g4013"
           transform="translate(535.2071,140.36)">
          <path
             inkscape:connector-curvature="0"
             d="m 0,0 c -0.005,-4.938 -0.011,-9.873 -0.017,-14.809 l -5.647,0 c 0,4.942 -0.002,9.885 -0.004,14.826 0,8.183 7.53,14.819 16.721,14.819 9.193,0 16.69,-6.674 16.69,-14.856 0,-7.67 -6.59,-14.015 -14.987,-14.779 l 0.889,-3.203 c 0.1,-0.393 0.139,-0.721 -0.076,-1.039 -0.324,-0.477 -0.977,-0.602 -1.453,-0.277 l -10.813,7.324 10.813,7.312 c 0.476,0.324 1.129,0.201 1.453,-0.275 0.224,-0.334 0.176,-0.652 0.054,-1.084 l -0.892,-3.076 c 5.287,0.677 9.359,4.504 9.359,9.097 0,5.069 -4.957,9.204 -11.037,9.204 C 4.975,9.184 0.016,5.049 0,0"
             style="fill:#231f20;fill-opacity:1;fill-rule:evenodd;stroke:none"
             id="path4015" />
        </g>
      </g>
    </g>
  </g>
</svg>
