<?xml version="1.0" encoding="UTF-8" standalone="no"?>
<!-- Created with Inkscape (http://www.inkscape.org/) -->

<svg
   xmlns:dc="http://purl.org/dc/elements/1.1/"
   xmlns:cc="http://creativecommons.org/ns#"
   xmlns:rdf="http://www.w3.org/1999/02/22-rdf-syntax-ns#"
   xmlns:svg="http://www.w3.org/2000/svg"
   xmlns="http://www.w3.org/2000/svg"
   xmlns:sodipodi="http://sodipodi.sourceforge.net/DTD/sodipodi-0.dtd"
   xmlns:inkscape="http://www.inkscape.org/namespaces/inkscape"
   width="66.688751"
   height="15.305"
   id="svg5097"
   version="1.1"
   inkscape:version="0.48.1 "
   sodipodi:docname="New document 31">
  <defs
     id="defs5099">
    <clipPath
       clipPathUnits="userSpaceOnUse"
       id="clipPath3567">
      <path
         inkscape:connector-curvature="0"
         d="m 27.125,314.737 513.435,0 0,423.263 -513.435,0 0,-423.263 z"
         id="path3569" />
    </clipPath>
    <clipPath
       clipPathUnits="userSpaceOnUse"
       id="clipPath3555">
      <path
         inkscape:connector-curvature="0"
         d="m 31.562,314.737 504.561,0 0,423.263 -504.561,0 0,-423.263 z"
         id="path3557" />
    </clipPath>
    <clipPath
       clipPathUnits="userSpaceOnUse"
       id="clipPath3543">
      <path
         inkscape:connector-curvature="0"
         d="m 27.125,314.737 513.435,0 0,423.263 -513.435,0 0,-423.263 z"
         id="path3545" />
    </clipPath>
  </defs>
  <sodipodi:namedview
     id="base"
     pagecolor="#ffffff"
     bordercolor="#666666"
     borderopacity="1.0"
     inkscape:pageopacity="0.0"
     inkscape:pageshadow="2"
     inkscape:zoom="0.35"
     inkscape:cx="-3.084195"
     inkscape:cy="-9.4903826"
     inkscape:document-units="px"
     inkscape:current-layer="layer1"
     showgrid="false"
     fit-margin-top="0"
     fit-margin-left="0"
     fit-margin-right="0"
     fit-margin-bottom="0"
     inkscape:window-width="469"
     inkscape:window-height="403"
     inkscape:window-x="25"
     inkscape:window-y="25"
     inkscape:window-maximized="0" />
  <metadata
     id="metadata5102">
    <rdf:RDF>
      <cc:Work
         rdf:about="">
        <dc:format>image/svg+xml</dc:format>
        <dc:type
           rdf:resource="http://purl.org/dc/dcmitype/StillImage" />
        <dc:title></dc:title>
      </cc:Work>
    </rdf:RDF>
  </metadata>
  <g
     inkscape:label="Layer 1"
     inkscape:groupmode="layer"
     id="layer1"
     transform="translate(-378.08419,-507.5668)">
    <g
       transform="matrix(1.25,0,0,-1.25,-225.33393,1205.7328)"
       id="g3539">
      <g
         id="g3541"
         clip-path="url(#clipPath3543)">
        <g
           id="g3547"
           transform="translate(485.3855,558.2828)">
          <path
             inkscape:connector-curvature="0"
             d="m 0,0 48.049,0 c 1.322,0 2.401,-1.08 2.401,-2.403 l 0,-6.941 c 0,-1.322 -1.079,-2.4 -2.401,-2.4 l -48.049,0 c -1.323,0 -2.401,1.078 -2.401,2.4 l 0,6.941 C -2.401,-1.08 -1.323,0 0,0"
             style="fill:#fccf34;fill-opacity:1;fill-rule:nonzero;stroke:none"
             id="path3549" />
        </g>
      </g>
    </g>
    <g
       transform="matrix(1.25,0,0,-1.25,-225.33393,1205.7328)"
       id="g3551">
      <g
         id="g3553"
         clip-path="url(#clipPath3555)">
        <g
           id="g3559"
           transform="translate(485.3855,558.2828)">
          <path
             inkscape:connector-curvature="0"
             d="m 0,0 48.049,0 c 1.322,0 2.401,-1.08 2.401,-2.403 l 0,-6.941 c 0,-1.322 -1.079,-2.4 -2.401,-2.4 l -48.049,0 c -1.323,0 -2.401,1.078 -2.401,2.4 l 0,6.941 C -2.401,-1.08 -1.323,0 0,0 z"
             style="fill:none;stroke:#231f20;stroke-width:0.5;stroke-linecap:butt;stroke-linejoin:miter;stroke-miterlimit:4;stroke-opacity:1;stroke-dasharray:none"
             id="path3561" />
        </g>
      </g>
    </g>
    <g
       transform="matrix(1.25,0,0,-1.25,-225.33393,1205.7328)"
       id="g3563">
      <g
         id="g3565"
         clip-path="url(#clipPath3567)">
        <g
           id="g3571"
           transform="translate(485.3855,557.4818)">
          <path
             inkscape:connector-curvature="0"
             d="m 0,0 48.049,0 c 0.882,0 1.601,-0.72 1.601,-1.602 l 0,-6.941 c 0,-0.881 -0.719,-1.6 -1.601,-1.6 l -48.049,0 c -0.882,0 -1.6,0.719 -1.6,1.6 l 0,6.941 C -1.6,-0.72 -0.882,0 0,0"
             style="fill:#231f20;fill-opacity:1;fill-rule:evenodd;stroke:none"
             id="path3573" />
        </g>
        <g
           id="g3575"
           transform="translate(485.3905,556.6808)">
          <path
             inkscape:connector-curvature="0"
             d="m 0,0 48.064,0 c 0.444,0 0.805,-0.361 0.805,-0.806 l 0,-6.93 c 0,-0.444 -0.361,-0.805 -0.805,-0.805 L 0,-8.541 c -0.443,0 -0.806,0.361 -0.806,0.805 l 0,6.93 C -0.806,-0.361 -0.443,0 0,0"
             style="fill:#fccf34;fill-opacity:1;fill-rule:evenodd;stroke:none"
             id="path3577" />
        </g>
        <g
           id="g3579"
           transform="translate(521.6525,554.5848)">
          <path
             inkscape:connector-curvature="0"
             d="m 0,0 0,0.784 -2.988,0 0,-0.784 1.07,0 0,-5.088 0.846,0 0,5.088 L 0,0 z m -3.525,-5.088 0,0.824 -2.141,0 0,1.936 1.215,0 0,0.805 -1.215,0 0,1.482 1.915,0 0,0.825 -2.761,0 0,-5.872 2.987,0 z m -3.791,0 0,0.783 -2.143,0 0,5.089 -0.844,0 0,-5.872 2.987,0 z m -3.79,5.088 0,0.784 -2.988,0 0,-0.784 1.07,0 0,-5.088 0.846,0 0,5.088 1.072,0 z m -3.792,-3.337 0,4.121 -0.844,0 0,-4.225 c 0,-0.556 -0.33,-0.926 -0.784,-0.926 -0.494,0 -0.824,0.37 -0.824,0.926 l 0,4.225 -0.845,0 0,-4.121 c 0,-0.474 0.062,-0.721 0.227,-1.03 0.288,-0.495 0.865,-0.828 1.442,-0.828 0.557,0 1.114,0.354 1.402,0.828 0.165,0.309 0.226,0.556 0.226,1.03 m -5.274,1.195 c 0,-0.68 -0.041,-1.03 -0.187,-1.504 -0.143,-0.494 -0.37,-0.721 -0.721,-0.721 -0.369,0 -0.597,0.227 -0.74,0.721 -0.124,0.474 -0.186,0.846 -0.186,1.482 0,0.661 0.041,1.051 0.186,1.506 0.143,0.493 0.371,0.72 0.74,0.72 0.351,0 0.578,-0.227 0.721,-0.741 0.124,-0.434 0.187,-0.804 0.187,-1.463 m 0.803,0 c 0,0.886 -0.082,1.443 -0.33,2.019 -0.287,0.721 -0.7,1.01 -1.381,1.01 -0.679,0 -1.09,-0.289 -1.401,-0.989 -0.246,-0.556 -0.33,-1.154 -0.33,-2.04 0,-0.906 0.084,-1.463 0.33,-2.039 0.289,-0.701 0.702,-1.014 1.401,-1.014 0.66,0 1.094,0.313 1.381,1.014 0.248,0.555 0.33,1.133 0.33,2.039"
             style="fill:#231f20;fill-opacity:1;fill-rule:evenodd;stroke:none"
             id="path3581" />
        </g>
        <g
           id="g3583"
           transform="translate(524.1065,553.4698)">
          <path
             inkscape:connector-curvature="0"
             d="M 0,0 4.566,-0.002 4.161,1.182 C 4.124,1.245 4.113,1.322 4.102,1.397 4.071,1.619 4.298,1.83 4.536,1.83 4.647,1.83 4.759,1.784 4.839,1.707 L 8.811,-1.054 4.839,-3.924 C 4.759,-4 4.647,-4.046 4.536,-4.046 c -0.238,0 -0.455,0.195 -0.434,0.435 0.006,0.073 0.022,0.15 0.059,0.215 L 4.566,-2.172 0,-2.159 0,0 z"
             style="fill:#231f20;fill-opacity:1;fill-rule:evenodd;stroke:none"
             id="path3585" />
        </g>
        <g
           id="g3587"
           transform="translate(494.4545,552.4428)">
          <path
             inkscape:connector-curvature="0"
             d="m 0,0 c 0,-0.68 -0.042,-1.03 -0.187,-1.504 -0.143,-0.494 -0.37,-0.721 -0.721,-0.721 -0.371,0 -0.597,0.227 -0.742,0.721 -0.123,0.474 -0.184,0.846 -0.184,1.482 0,0.661 0.041,1.051 0.184,1.506 0.145,0.493 0.371,0.72 0.742,0.72 0.351,0 0.578,-0.227 0.721,-0.741 C -0.062,1.029 0,0.659 0,0 m 0.802,0 c 0,0.886 -0.082,1.443 -0.33,2.019 -0.288,0.721 -0.699,1.01 -1.38,1.01 C -1.587,3.029 -1.999,2.74 -2.309,2.04 -2.556,1.484 -2.638,0.886 -2.638,0 c 0,-0.906 0.082,-1.463 0.329,-2.039 0.288,-0.701 0.701,-1.014 1.401,-1.014 0.66,0 1.092,0.313 1.38,1.014 0.248,0.555 0.33,1.133 0.33,2.039 m -4.594,-2.946 0,5.872 -0.845,0 0,-3.524 -1.608,3.524 -0.844,0 0,-5.872 0.844,0 0,3.935 1.814,-3.935 0.639,0 z"
             style="fill:#231f20;fill-opacity:1;fill-rule:evenodd;stroke:none"
             id="path3589" />
        </g>
      </g>
    </g>
  </g>
</svg>
