<?xml version="1.0" encoding="UTF-8" standalone="no"?>
<!-- Created with Inkscape (http://www.inkscape.org/) -->

<svg
   xmlns:dc="http://purl.org/dc/elements/1.1/"
   xmlns:cc="http://creativecommons.org/ns#"
   xmlns:rdf="http://www.w3.org/1999/02/22-rdf-syntax-ns#"
   xmlns:svg="http://www.w3.org/2000/svg"
   xmlns="http://www.w3.org/2000/svg"
   xmlns:sodipodi="http://sodipodi.sourceforge.net/DTD/sodipodi-0.dtd"
   xmlns:inkscape="http://www.inkscape.org/namespaces/inkscape"
   width="66.690002"
   height="15.305"
   id="svg4963"
   version="1.1"
   inkscape:version="0.48.1 "
   sodipodi:docname="New document 27">
  <defs
     id="defs4965">
    <clipPath
       clipPathUnits="userSpaceOnUse"
       id="clipPath3433">
      <path
         inkscape:connector-curvature="0"
         d="m 27.125,314.737 513.435,0 0,423.263 -513.435,0 0,-423.263 z"
         id="path3435" />
    </clipPath>
  </defs>
  <sodipodi:namedview
     id="base"
     pagecolor="#ffffff"
     bordercolor="#666666"
     borderopacity="1.0"
     inkscape:pageopacity="0.0"
     inkscape:pageshadow="2"
     inkscape:zoom="0.35"
     inkscape:cx="154.05929"
     inkscape:cy="27.652517"
     inkscape:document-units="px"
     inkscape:current-layer="layer1"
     showgrid="false"
     fit-margin-top="0"
     fit-margin-left="0"
     fit-margin-right="0"
     fit-margin-bottom="0"
     inkscape:window-width="469"
     inkscape:window-height="403"
     inkscape:window-x="483"
     inkscape:window-y="122"
     inkscape:window-maximized="0" />
  <metadata
     id="metadata4968">
    <rdf:RDF>
      <cc:Work
         rdf:about="">
        <dc:format>image/svg+xml</dc:format>
        <dc:type
           rdf:resource="http://purl.org/dc/dcmitype/StillImage" />
        <dc:title></dc:title>
      </cc:Work>
    </rdf:RDF>
  </metadata>
  <g
     inkscape:label="Layer 1"
     inkscape:groupmode="layer"
     id="layer1"
     transform="translate(-220.94071,-544.7097)">
    <g
       transform="matrix(1.25,0,0,-1.25,-195.75491,1242.8757)"
       id="g3429">
      <g
         id="g3431"
         clip-path="url(#clipPath3433)">
        <g
           id="g3437"
           transform="translate(336.0075,558.2828)">
          <path
             inkscape:connector-curvature="0"
             d="m 0,0 48.049,0 c 1.322,0 2.402,-1.08 2.402,-2.403 l 0,-6.941 c 0,-1.322 -1.08,-2.4 -2.402,-2.4 l -48.049,0 c -1.323,0 -2.401,1.078 -2.401,2.4 l 0,6.941 C -2.401,-1.08 -1.323,0 0,0"
             style="fill:#fccf34;fill-opacity:1;fill-rule:nonzero;stroke:none"
             id="path3439" />
        </g>
        <g
           id="g3441"
           transform="translate(336.0075,558.2828)">
          <path
             inkscape:connector-curvature="0"
             d="m 0,0 48.049,0 c 1.322,0 2.402,-1.08 2.402,-2.403 l 0,-6.941 c 0,-1.322 -1.08,-2.4 -2.402,-2.4 l -48.049,0 c -1.323,0 -2.401,1.078 -2.401,2.4 l 0,6.941 C -2.401,-1.08 -1.323,0 0,0 z"
             style="fill:none;stroke:#231f20;stroke-width:0.5;stroke-linecap:butt;stroke-linejoin:miter;stroke-miterlimit:4;stroke-opacity:1;stroke-dasharray:none"
             id="path3443" />
        </g>
        <g
           id="g3445"
           transform="translate(336.0075,557.4818)">
          <path
             inkscape:connector-curvature="0"
             d="m 0,0 48.049,0 c 0.882,0 1.601,-0.72 1.601,-1.602 l 0,-6.941 c 0,-0.881 -0.719,-1.6 -1.601,-1.6 l -48.049,0 c -0.882,0 -1.6,0.719 -1.6,1.6 l 0,6.941 C -1.6,-0.72 -0.882,0 0,0"
             style="fill:#231f20;fill-opacity:1;fill-rule:evenodd;stroke:none"
             id="path3447" />
        </g>
        <g
           id="g3449"
           transform="translate(336.0125,556.6808)">
          <path
             inkscape:connector-curvature="0"
             d="m 0,0 48.064,0 c 0.444,0 0.805,-0.361 0.805,-0.806 l 0,-6.93 c 0,-0.444 -0.361,-0.805 -0.805,-0.805 L 0,-8.541 c -0.443,0 -0.805,0.361 -0.805,0.805 l 0,6.93 C -0.805,-0.361 -0.443,0 0,0"
             style="fill:#fccf34;fill-opacity:1;fill-rule:evenodd;stroke:none"
             id="path3451" />
        </g>
        <g
           id="g3453"
           transform="translate(368.6135,552.4168)">
          <path
             inkscape:connector-curvature="0"
             d="m 0,0 c 0,-0.456 -0.041,-0.866 -0.082,-1.238 -0.083,-0.453 -0.351,-0.845 -0.846,-0.845 l -0.7,0 0,4.225 0.7,0 c 0.372,0 0.618,-0.185 0.763,-0.599 C -0.063,1.296 0,0.658 0,0 m 0.824,0.04 c 0,0.454 -0.062,0.969 -0.145,1.402 -0.103,0.597 -0.349,1.05 -0.7,1.298 -0.206,0.164 -0.453,0.226 -0.947,0.226 l -1.505,0 0,-5.873 1.628,0 c 0.33,0 0.618,0.084 0.824,0.268 0.577,0.453 0.845,1.32 0.845,2.679 m -4.554,-2.947 0,5.873 -0.844,0 0,-3.523 -1.607,3.523 -0.846,0 0,-5.873 0.846,0 0,3.936 1.813,-3.936 0.638,0 z m -4.285,0 0,0.824 -2.142,0 0,1.938 1.214,0 0,0.803 -1.214,0 0,1.484 1.916,0 0,0.824 -2.762,0 0,-5.873 2.988,0 z M -15.906,0 c 0,-0.456 -0.042,-0.866 -0.083,-1.238 -0.083,-0.453 -0.351,-0.845 -0.845,-0.845 l -0.7,0 0,4.225 0.7,0 c 0.371,0 0.618,-0.185 0.762,-0.599 0.103,-0.247 0.166,-0.885 0.166,-1.543 m 0.824,0.04 c 0,0.454 -0.062,0.969 -0.145,1.402 -0.102,0.597 -0.35,1.05 -0.701,1.298 -0.205,0.164 -0.453,0.226 -0.947,0.226 l -1.504,0 0,-5.873 1.628,0 c 0.33,0 0.618,0.084 0.823,0.268 0.577,0.453 0.846,1.32 0.846,2.679 m -5.563,-0.515 -0.845,0 0.412,1.689 0.433,-1.689 z m 1.462,-2.432 -1.462,5.873 -0.825,0 -1.463,-5.873 0.846,0 0.39,1.608 1.257,0 0.412,-1.608 0.845,0 z m -4.285,0 0,0.824 -2.144,0 0,1.938 1.216,0 0,0.803 -1.216,0 0,1.484 1.917,0 0,0.824 -2.761,0 0,-5.873 2.988,0 z M -28.435,0 c 0,-0.456 -0.041,-0.866 -0.081,-1.238 -0.083,-0.453 -0.35,-0.845 -0.846,-0.845 l -0.7,0 0,4.225 0.7,0 c 0.372,0 0.619,-0.185 0.763,-0.599 0.103,-0.247 0.164,-0.885 0.164,-1.543 m 0.824,0.04 c 0,0.454 -0.061,0.969 -0.143,1.402 -0.104,0.597 -0.351,1.05 -0.7,1.298 -0.207,0.164 -0.453,0.226 -0.949,0.226 l -1.503,0 0,-5.873 1.627,0 c 0.33,0 0.618,0.084 0.825,0.268 0.576,0.453 0.843,1.32 0.843,2.679"
             style="fill:#231f20;fill-opacity:1;fill-rule:evenodd;stroke:none"
             id="path3455" />
        </g>
        <g
           id="g3457"
           transform="translate(373.5455,553.4848)">
          <path
             inkscape:connector-curvature="0"
             d="M 0,0 4.567,-0.003 4.161,1.18 C 4.125,1.244 4.114,1.322 4.103,1.396 4.072,1.619 4.298,1.829 4.537,1.829 4.649,1.829 4.759,1.783 4.838,1.707 L 8.812,-1.055 4.838,-3.924 C 4.759,-4 4.649,-4.046 4.537,-4.046 c -0.239,0 -0.456,0.194 -0.434,0.435 0.007,0.072 0.022,0.15 0.058,0.214 L 4.567,-2.172 0,-2.159 0,0 z"
             style="fill:#231f20;fill-opacity:1;fill-rule:evenodd;stroke:none"
             id="path3459" />
        </g>
      </g>
    </g>
  </g>
</svg>
