<?xml version="1.0" encoding="UTF-8" standalone="no"?>
<!-- Created with Inkscape (http://www.inkscape.org/) -->

<svg
   xmlns:dc="http://purl.org/dc/elements/1.1/"
   xmlns:cc="http://creativecommons.org/ns#"
   xmlns:rdf="http://www.w3.org/1999/02/22-rdf-syntax-ns#"
   xmlns:svg="http://www.w3.org/2000/svg"
   xmlns="http://www.w3.org/2000/svg"
   xmlns:sodipodi="http://sodipodi.sourceforge.net/DTD/sodipodi-0.dtd"
   xmlns:inkscape="http://www.inkscape.org/namespaces/inkscape"
   width="90.625"
   height="75.470001"
   id="svg5766"
   version="1.1"
   inkscape:version="0.48.1 "
   sodipodi:docname="New document 34">
  <defs
     id="defs5768" />
  <sodipodi:namedview
     id="base"
     pagecolor="#ffffff"
     bordercolor="#666666"
     borderopacity="1.0"
     inkscape:pageopacity="0.0"
     inkscape:pageshadow="2"
     inkscape:zoom="0.35"
     inkscape:cx="100.3125"
     inkscape:cy="-99.407853"
     inkscape:document-units="px"
     inkscape:current-layer="layer1"
     showgrid="false"
     fit-margin-top="0"
     fit-margin-left="0"
     fit-margin-right="0"
     fit-margin-bottom="0"
     inkscape:window-width="469"
     inkscape:window-height="403"
     inkscape:window-x="334"
     inkscape:window-y="74"
     inkscape:window-maximized="0" />
  <metadata
     id="metadata5771">
    <rdf:RDF>
      <cc:Work
         rdf:about="">
        <dc:format>image/svg+xml</dc:format>
        <dc:type
           rdf:resource="http://purl.org/dc/dcmitype/StillImage" />
        <dc:title></dc:title>
      </cc:Work>
    </rdf:RDF>
  </metadata>
  <g
     inkscape:label="Layer 1"
     inkscape:groupmode="layer"
     id="layer1"
     transform="translate(-274.6875,-357.48433)">
    <path
       inkscape:connector-curvature="0"
       id="path4079"
       style="fill:#fccf34;fill-opacity:1;fill-rule:nonzero;stroke:none"
       d="m 282.69,358.33808 78.78625,31.91625 c 2.085,0.75 3.52375,2.7925 3.52375,5.0225 0,2.29375 -1.48,4.35625 -3.6475,5.06625 l -78.93375,31.8825 c -0.64625,0.27 -1.37625,0.41625 -2.085,0.41625 -2.93875,0 -5.33375,-2.39625 -5.33375,-5.33625 l 0,-64.17375 c 0,-2.9375 2.395,-5.335 5.33375,-5.335 0.81375,0 1.62625,0.1875 2.35625,0.54125" />
    <path
       inkscape:connector-curvature="0"
       id="path4091"
       style="fill:none;stroke:#231f20;stroke-width:0.625;stroke-linecap:butt;stroke-linejoin:miter;stroke-miterlimit:4;stroke-opacity:1;stroke-dasharray:none"
       d="m 282.69,358.33808 78.78625,31.91625 c 2.085,0.75 3.52375,2.7925 3.52375,5.0225 0,2.29375 -1.48,4.35625 -3.6475,5.06625 l -78.93375,31.8825 c -0.64625,0.27 -1.37625,0.41625 -2.085,0.41625 -2.93875,0 -5.33375,-2.39625 -5.33375,-5.33625 l 0,-64.17375 c 0,-2.9375 2.395,-5.335 5.33375,-5.335 0.81375,0 1.62625,0.1875 2.35625,0.54125 z" />
    <path
       inkscape:connector-curvature="0"
       id="path4103"
       style="fill:#231f20;fill-opacity:1;fill-rule:evenodd;stroke:none"
       d="m 360.98875,391.49558 c 0.15625,0.06 0.305,0.1225 0.45875,0.195 0.27625,0.145 0.5175,0.305 0.75875,0.50125 0.1175,0.1 0.225,0.2025 0.335,0.3125 0.24625,0.27125 0.44625,0.545 0.63,0.8625 0.07,0.13625 0.13375,0.2725 0.195,0.415 0.13375,0.34125 0.22,0.66875 0.27125,1.0325 0.015,0.15625 0.0238,0.3075 0.0263,0.4625 -0.005,0.27125 -0.0288,0.52375 -0.0775,0.79 -0.035,0.155 -0.0738,0.3025 -0.12,0.45375 -0.105,0.30125 -0.22875,0.57 -0.39,0.84625 -0.0838,0.13125 -0.17125,0.25625 -0.26375,0.3825 -0.235,0.2875 -0.47625,0.52625 -0.7725,0.75375 -0.17,0.12125 -0.33875,0.2275 -0.52375,0.32875 -0.1425,0.0687 -0.28375,0.13125 -0.43,0.19 l -0.205,0.0725 -79.02375,31.91875 c -0.47125,0.1875 -0.96625,0.28375 -1.475,0.29375 -0.15375,0.001 -0.305,-0.009 -0.45625,-0.02 -0.27125,-0.035 -0.5175,-0.085 -0.77875,-0.15875 -0.185,-0.0638 -0.36125,-0.13375 -0.5425,-0.215 -0.175,-0.0888 -0.33625,-0.18375 -0.5025,-0.29 -0.16125,-0.1125 -0.3075,-0.22875 -0.45375,-0.3575 -0.14125,-0.135 -0.27125,-0.27125 -0.40125,-0.41875 -0.11875,-0.15375 -0.22875,-0.30625 -0.33375,-0.47125 -0.1,-0.17 -0.18625,-0.3375 -0.26625,-0.5175 -0.0737,-0.18375 -0.13375,-0.36375 -0.1875,-0.555 -0.0462,-0.19625 -0.0812,-0.3875 -0.105,-0.58875 l -0.0225,-0.425 0.005,-64.3625 c 0.0175,-0.205 0.0413,-0.3975 0.0763,-0.59875 0.0462,-0.195 0.0975,-0.3775 0.1625,-0.56625 0.0712,-0.185 0.15,-0.35625 0.24,-0.53125 0.0975,-0.17 0.2,-0.3275 0.3125,-0.4875 0.12125,-0.15375 0.24375,-0.295 0.37875,-0.43625 0.14125,-0.13625 0.2825,-0.25875 0.43625,-0.38 0.16125,-0.11375 0.32,-0.215 0.48875,-0.3125 0.175,-0.09 0.34625,-0.16875 0.53,-0.24125 l 0.375,-0.115 c 0.40875,-0.0962 0.80625,-0.1425 1.22625,-0.12125 0.5225,0.0337 1.015,0.15875 1.49125,0.3775 l 78.93375,31.98125 z" />
    <path
       inkscape:connector-curvature="0"
       id="path4107"
       style="fill:#fccf34;fill-opacity:1;fill-rule:evenodd;stroke:none"
       d="m 360.50513,393.70808 c 0.28749,0.16625 0.5025,0.3825 0.67874,0.665 l 0.0687,0.12375 c 0.24125,0.50625 0.24875,1.01375 0.0238,1.5275 -0.12626,0.26 -0.28501,0.46625 -0.505,0.65125 -0.14625,0.1125 -0.29126,0.19375 -0.46126,0.2625 l -0.2125,0.075 -79.0725,31.93875 c -0.42,0.16625 -0.86375,0.1725 -1.29624,0.025 l -0.15625,-0.0663 c -0.32501,-0.16625 -0.56126,-0.3825 -0.76001,-0.69 -0.105,-0.1825 -0.1725,-0.35375 -0.21875,-0.5575 -0.025,-0.13625 -0.035,-0.26375 -0.0375,-0.4025 l 0.002,-64.22125 0.0175,-0.17875 c 0.0663,-0.36 0.20501,-0.6425 0.44375,-0.91875 l 0.1225,-0.12375 c 0.39126,-0.3375 0.8525,-0.50375 1.37001,-0.455 0.20999,0.0225 0.40999,0.0775 0.59999,0.165 l 0.14251,0.0675 79.07624,32.03 c 0.0588,0.0238 0.11751,0.0525 0.17376,0.0825" />
    <path
       inkscape:connector-curvature="0"
       id="path4111"
       style="fill:#231f20;fill-opacity:1;fill-rule:evenodd;stroke:none"
       d="m 296.22512,376.94058 c 0,1.285 -0.0775,1.94875 -0.34875,2.845 -0.27375,0.93625 -0.70375,1.36375 -1.365,1.36375 -0.7025,0 -1.13,-0.4275 -1.40375,-1.36375 -0.23499,-0.89625 -0.35125,-1.59875 -0.35125,-2.8075 0,-1.2475 0.0775,-1.9875 0.35125,-2.845 0.27375,-0.935 0.70125,-1.365 1.40375,-1.365 0.66125,0 1.09125,0.43 1.365,1.40375 0.23125,0.81875 0.34875,1.52125 0.34875,2.76875 m 1.52125,0 c 0,-1.6775 -0.15625,-2.72875 -0.625,-3.82125 -0.545,-1.36375 -1.32375,-1.91 -2.61,-1.91 -1.28625,0 -2.0675,0.54625 -2.65125,1.87125 -0.46875,1.0525 -0.625,2.1825 -0.625,3.86 0,1.71375 0.15625,2.7675 0.625,3.85875 0.54375,1.32625 1.325,1.91625 2.65125,1.91625 1.2475,0 2.065,-0.59 2.61,-1.91625 0.46875,-1.0525 0.625,-2.145 0.625,-3.85875 m -8.69375,5.57375 0,-11.11125 -1.59875,0 0,6.6675 -3.03999,-6.6675 -1.59875,0 0,11.11125 1.59875,0 0,-7.44625 3.43,7.44625 1.20874,0 z" />
    <path
       inkscape:connector-curvature="0"
       id="path4115"
       style="fill:#231f20;fill-opacity:1;fill-rule:evenodd;stroke:none"
       d="m 332.00125,394.97558 0,-2.3 -2.84625,0 0,1.56 1.2475,0 0,0.74 c 0,1.16875 -0.38875,1.71625 -1.20875,1.71625 -0.85625,0 -1.40375,-0.58625 -1.635,-1.6775 -0.15625,-0.85625 -0.235,-1.8325 -0.235,-2.76875 0,-1.32375 0.195,-2.57125 0.505,-3.1175 0.27375,-0.54625 0.70375,-0.81875 1.2475,-0.81875 0.78125,0 1.2875,0.50625 1.32625,1.2475 l 1.59875,0 c -0.0775,-1.6375 -1.28625,-2.80625 -2.885,-2.80625 -1.2875,0 -2.4175,0.85625 -2.80625,2.02625 -0.39,1.0525 -0.5075,2.18375 -0.5075,3.7425 0,1.4425 0.235,3.00125 0.58625,3.82125 0.545,1.2475 1.51875,1.91625 2.84375,1.91625 1.13125,0 2.02875,-0.59125 2.45625,-1.565 0.235,-0.46875 0.3125,-0.93625 0.3125,-1.71625 m -8.38125,3.08 0,-11.11125 -1.59875,0 0,6.66625 -3.0425,-6.66625 -1.59625,0 0,11.11125 1.59625,0 0,-7.445 3.4325,7.445 1.20875,0 z m -8.655,-11.11125 -1.56,0 0,11.11125 1.56,0 0,-11.11125 z m -3.43,8.07 c 0,-1.5975 -0.9375,-2.8075 -3.08125,-4.05375 -0.8175,-0.4675 -1.05125,-0.78 -1.05125,-1.32625 0,-0.74 0.5825,-1.28625 1.325,-1.28625 0.70125,0 1.2475,0.50625 1.28625,1.28625 l 1.52125,0 c -0.0388,-1.675 -1.2475,-2.88375 -2.8075,-2.88375 -1.59875,0 -2.84625,1.28625 -2.84625,2.88375 0,0.97625 0.46875,1.8325 1.365,2.45625 2.26,1.52 1.6375,1.09125 1.8725,1.32625 0.66125,0.50625 0.895,0.97375 0.895,1.5975 0,0.8975 -0.7025,1.6775 -1.56,1.6775 -1.09125,0 -1.56,-0.975 -1.56,-1.91125 l -1.5575,0 c 0,1.8325 1.17,3.47625 3.1175,3.47625 1.71625,0 3.08125,-1.44875 3.08125,-3.2425 m -7.52375,0 c 0,-1.5975 -0.9375,-2.8075 -3.08125,-4.05375 -0.8175,-0.4675 -1.0525,-0.78 -1.0525,-1.32625 0,-0.74 0.58625,-1.28625 1.32625,-1.28625 0.7,0 1.2475,0.50625 1.28625,1.28625 l 1.52125,0 c -0.04,-1.675 -1.2475,-2.88375 -2.8075,-2.88375 -1.6,0 -2.8475,1.28625 -2.8475,2.88375 0,0.97625 0.46875,1.8325 1.365,2.45625 2.26125,1.52 1.63875,1.09125 1.8725,1.32625 0.66125,0.50625 0.89625,0.97375 0.89625,1.5975 0,0.8975 -0.70125,1.6775 -1.56,1.6775 -1.09125,0 -1.5575,-0.975 -1.5575,-1.91125 l -1.56,0 c 0,1.8325 1.16875,3.47625 3.1175,3.47625 1.71625,0 3.08125,-1.44875 3.08125,-3.2425 m -9.94125,-1.55875 -1.6,0 0.78125,-3.1975 0.81875,3.1975 z m 2.7675,4.6 -2.7675,-11.11125 -1.56125,0 -2.7675,11.11125 1.59875,0 0.74,-3.04125 2.38,0 0.77875,3.04125 1.59875,0 z m -9.31875,-7.9925 c 0,1.01375 -0.505,1.59875 -1.4425,1.59875 l -1.63625,0 0,-3.1575 1.63625,0 c 0.85875,0 1.4425,0.62375 1.4425,1.55875 m 1.56,0 c 0,-1.87125 -1.16875,-3.11875 -2.925,-3.11875 l -3.3125,0 0,11.11125 1.59875,0 0,-4.87375 1.71375,0 c 1.87375,0 2.925,-1.09125 2.925,-3.11875" />
    <path
       inkscape:connector-curvature="0"
       id="path4119"
       style="fill:#231f20;fill-opacity:1;fill-rule:evenodd;stroke:none"
       d="m 312.58012,413.67433 0,-1.55875 -4.0525,0 0,-3.665 2.3,0 0,-1.52125 -2.3,0 0,-2.80625 3.625,0 0,-1.55875 -5.22375,0 0,11.11 5.65125,0 z m -7.65125,0 0,-11.11 -1.59875,0 0,6.66625 -3.04,-6.66625 -1.59875,0 0,11.11 1.59875,0 0,-7.445 3.43,7.445 1.20875,0 z m -9.6025,-5.57375 c 0,1.285 -0.0775,1.9475 -0.34875,2.845 -0.27375,0.935 -0.7025,1.365 -1.365,1.365 -0.7025,0 -1.13,-0.43 -1.40374,-1.365 -0.23376,-0.8975 -0.35126,-1.5975 -0.35126,-2.80625 0,-1.2475 0.0775,-1.98875 0.35126,-2.84625 0.27374,-0.935 0.70124,-1.365 1.40374,-1.365 0.6625,0 1.09125,0.43 1.365,1.40375 0.2325,0.81875 0.34875,1.52125 0.34875,2.76875 m 1.52125,0 c 0,-1.6775 -0.15625,-2.73 -0.6225,-3.82125 -0.54625,-1.365 -1.325,-1.91 -2.6125,-1.91 -1.28625,0 -2.0675,0.545 -2.65125,1.87125 -0.46875,1.0525 -0.625,2.1825 -0.625,3.86 0,1.715 0.15625,2.7675 0.625,3.85875 0.5475,1.325 1.32625,1.91625 2.65125,1.91625 1.2475,0 2.06625,-0.59125 2.6125,-1.91625 0.46625,-1.0525 0.6225,-2.14375 0.6225,-3.85875 m -7.8075,5.57375 0,-1.52 -4.4825,0 4.4825,-8.61625 0,-1.0125 -5.69124,0 0,1.55875 3.70374,0 -4.1325,7.875 0,1.715 6.12,0 z" />
  </g>
</svg>
