<?xml version="1.0" encoding="UTF-8" standalone="no"?>
<!-- Created with Inkscape (http://www.inkscape.org/) -->

<svg
   xmlns:dc="http://purl.org/dc/elements/1.1/"
   xmlns:cc="http://creativecommons.org/ns#"
   xmlns:rdf="http://www.w3.org/1999/02/22-rdf-syntax-ns#"
   xmlns:svg="http://www.w3.org/2000/svg"
   xmlns="http://www.w3.org/2000/svg"
   xmlns:sodipodi="http://sodipodi.sourceforge.net/DTD/sodipodi-0.dtd"
   xmlns:inkscape="http://www.inkscape.org/namespaces/inkscape"
   width="90.625"
   height="72.626251"
   id="svg4606"
   version="1.1"
   inkscape:version="0.48.1 "
   sodipodi:docname="New document 10">
  <defs
     id="defs4608" />
  <sodipodi:namedview
     id="base"
     pagecolor="#ffffff"
     bordercolor="#666666"
     borderopacity="1.0"
     inkscape:pageopacity="0.0"
     inkscape:pageshadow="2"
     inkscape:zoom="0.35"
     inkscape:cx="-42.54464"
     inkscape:cy="-0.82973262"
     inkscape:document-units="px"
     inkscape:current-layer="layer1"
     showgrid="false"
     fit-margin-top="0"
     fit-margin-left="0"
     fit-margin-right="0"
     fit-margin-bottom="0"
     inkscape:window-width="469"
     inkscape:window-height="403"
     inkscape:window-x="75"
     inkscape:window-y="75"
     inkscape:window-maximized="0" />
  <metadata
     id="metadata4611">
    <rdf:RDF>
      <cc:Work
         rdf:about="">
        <dc:format>image/svg+xml</dc:format>
        <dc:type
           rdf:resource="http://purl.org/dc/dcmitype/StillImage" />
        <dc:title></dc:title>
      </cc:Work>
    </rdf:RDF>
  </metadata>
  <g
     inkscape:label="Layer 1"
     inkscape:groupmode="layer"
     id="layer1"
     transform="translate(-417.54464,-458.9062)">
    <path
       inkscape:connector-curvature="0"
       id="path3233"
       style="fill:#fccf34;fill-opacity:1;fill-rule:nonzero;stroke:none"
       d="m 423.85589,459.2187 78.00125,0 c 3.305,0 6,2.695 6,6.00125 l 0,59.99875 c 0,3.305 -2.695,6.00125 -6,6.00125 l -78.00125,0 c -3.3025,0 -5.99875,-2.69625 -5.99875,-6.00125 l 0,-59.99875 c 0,-3.30625 2.69625,-6.00125 5.99875,-6.00125" />
    <path
       inkscape:connector-curvature="0"
       id="path3237"
       style="fill:none;stroke:#231f20;stroke-width:0.625;stroke-linecap:butt;stroke-linejoin:miter;stroke-miterlimit:4;stroke-opacity:1;stroke-dasharray:none"
       d="m 423.85589,459.2187 78.00125,0 c 3.305,0 6,2.695 6,6.00125 l 0,59.99875 c 0,3.305 -2.695,6.00125 -6,6.00125 l -78.00125,0 c -3.3025,0 -5.99875,-2.69625 -5.99875,-6.00125 l 0,-59.99875 c 0,-3.30625 2.69625,-6.00125 5.99875,-6.00125 z" />
    <path
       inkscape:connector-curvature="0"
       id="path3241"
       style="fill:#231f20;fill-opacity:1;fill-rule:evenodd;stroke:none"
       d="m 424.20089,460.77883 77.31125,0 c 2.635,0 4.785,2.145 4.785,4.775 l 0,59.33 c 0,2.63125 -2.15,4.775 -4.785,4.775 l -77.31125,0 c -2.635,0 -4.7825,-2.14375 -4.7825,-4.775 l 0,-59.33 c 0,-2.63 2.1475,-4.775 4.7825,-4.775" />
    <path
       inkscape:connector-curvature="0"
       id="path3245"
       style="fill:#fccf34;fill-opacity:1;fill-rule:evenodd;stroke:none"
       d="m 424.25227,463.17858 77.20875,0 c 1.3425,0 2.43625,1.0925 2.43625,2.43 l 0,59.22 c 0,1.33875 -1.09375,2.43125 -2.43625,2.43125 l -77.20875,0 c -1.34125,0 -2.435,-1.0925 -2.435,-2.43125 l 0,-59.22 c 0,-1.3375 1.09375,-2.43 2.435,-2.43" />
    <path
       inkscape:connector-curvature="0"
       id="path3249"
       style="fill:#231f20;fill-opacity:1;fill-rule:evenodd;stroke:none"
       d="m 468.78352,490.45758 0,-2.9025 -8.83875,0 c 0.88375,-2.02 1.83125,-3.09375 3.53625,-4.1025 l 0.88375,-0.50625 0.94625,-0.505 0.88375,-0.5675 c 0.2525,-0.12625 0.50625,-0.315 0.7575,-0.505 1.19875,-1.07375 1.83125,-2.46125 1.83125,-3.85 0,-2.9675 -2.715,-5.365 -6.12375,-5.365 -3.15625,0 -5.4925,1.83 -6.1225,4.79625 l 2.83875,0.63125 c 0.3175,-1.64 1.4525,-2.52375 3.28375,-2.52375 1.7675,0 3.28125,1.0725 3.28125,2.39875 0,0.75625 -0.5025,1.515 -1.19875,1.95625 l -0.88375,0.50375 -0.88375,0.50625 -0.9475,0.505 c -0.25125,0.18875 -0.505,0.37875 -0.82,0.5675 -1.2625,0.94625 -2.3975,2.0825 -3.15625,3.4725 -1.00875,1.70375 -1.45,3.4075 -1.51375,5.49 l 12.24625,0 z" />
    <path
       inkscape:connector-curvature="0"
       id="path3253"
       style="fill:#231f20;fill-opacity:1;fill-rule:evenodd;stroke:none"
       d="m 494.99589,512.83208 c 0,-7.06875 -8.45875,-4.86 -8.71,-8.205 -0.1275,-1.64125 1.4525,-2.14625 2.7775,-2.0825 2.02,0.0625 2.64875,1.57625 2.64875,1.57625 l 2.5275,-0.75625 c -0.88375,-2.21 -2.5875,-3.66125 -5.115,-3.66125 -3.2175,0 -5.6175,1.32625 -5.6175,4.86 0,2.9675 2.4,4.04 3.47125,4.4825 2.33625,0.94625 5.115,1.325 5.115,3.72375 0,1.515 -1.1375,2.65 -2.77875,2.65 -1.70375,0 -3.0925,-0.94625 -3.85,-2.65 l -2.71375,1.01 c 1.19875,2.71375 3.47125,4.55375 6.56375,4.55375 1.51375,0 2.90375,-0.515 3.91375,-1.39875 1.13625,-1.00875 1.7675,-2.46125 1.7675,-4.1025 m -13.95,5.17625 0,-2.90375 -8.3325,0 0,-4.9225 5.24,0 0,-2.90375 -5.24,0 0,-4.42 7.76375,0 0,-2.84 -10.6025,0 0,17.99 11.17125,0 z m -13.8225,0 0,-2.65 -8.3325,0 0,-15.34 -2.84,0 0,17.99 11.1725,0 z m -15.40375,-17.99 -2.9025,0 0,17.99 2.9025,0 0,-17.99 z m -7.19375,17.99 0,-17.99 -2.84,0 -4.1675,10.1 -4.165,-10.1 -2.84125,0 0,17.99 2.84125,0 0,-10.41375 4.165,10.41375 4.1675,-10.41375 0,10.41375 2.84,0 z" />
  </g>
</svg>
