<?xml version="1.0" encoding="UTF-8" standalone="no"?>
<!-- Created with Inkscape (http://www.inkscape.org/) -->

<svg
   xmlns:dc="http://purl.org/dc/elements/1.1/"
   xmlns:cc="http://creativecommons.org/ns#"
   xmlns:rdf="http://www.w3.org/1999/02/22-rdf-syntax-ns#"
   xmlns:svg="http://www.w3.org/2000/svg"
   xmlns="http://www.w3.org/2000/svg"
   xmlns:sodipodi="http://sodipodi.sourceforge.net/DTD/sodipodi-0.dtd"
   xmlns:inkscape="http://www.inkscape.org/namespaces/inkscape"
   width="90.625"
   height="72.625"
   id="svg4685"
   version="1.1"
   inkscape:version="0.48.1 "
   sodipodi:docname="New document 14">
  <defs
     id="defs4687" />
  <sodipodi:namedview
     id="base"
     pagecolor="#ffffff"
     bordercolor="#666666"
     borderopacity="1.0"
     inkscape:pageopacity="0.0"
     inkscape:pageshadow="2"
     inkscape:zoom="0.35"
     inkscape:cx="146.03125"
     inkscape:cy="-37.987183"
     inkscape:document-units="px"
     inkscape:current-layer="layer1"
     showgrid="false"
     fit-margin-top="0"
     fit-margin-left="0"
     fit-margin-right="0"
     fit-margin-bottom="0"
     inkscape:window-width="469"
     inkscape:window-height="403"
     inkscape:window-x="175"
     inkscape:window-y="175"
     inkscape:window-maximized="0" />
  <metadata
     id="metadata4690">
    <rdf:RDF>
      <cc:Work
         rdf:about="">
        <dc:format>image/svg+xml</dc:format>
        <dc:type
           rdf:resource="http://purl.org/dc/dcmitype/StillImage" />
        <dc:title></dc:title>
      </cc:Work>
    </rdf:RDF>
  </metadata>
  <g
     inkscape:label="Layer 1"
     inkscape:groupmode="layer"
     id="layer1"
     transform="translate(-228.96875,-421.75)">
    <path
       inkscape:connector-curvature="0"
       id="path3329"
       style="fill:#fccf34;fill-opacity:1;fill-rule:nonzero;stroke:none"
       d="m 235.28571,422.07584 78,0 c 3.305,0 6,2.695 6,6.00125 l 0,59.99875 c 0,3.305 -2.695,6.00125 -6,6.00125 l -78,0 c -3.305,0 -6,-2.69625 -6,-6.00125 l 0,-59.99875 c 0,-3.30625 2.695,-6.00125 6,-6.00125" />
    <path
       inkscape:connector-curvature="0"
       id="path3333"
       style="fill:none;stroke:#231f20;stroke-width:0.625;stroke-linecap:butt;stroke-linejoin:miter;stroke-miterlimit:4;stroke-opacity:1;stroke-dasharray:none"
       d="m 235.28571,422.07584 78,0 c 3.305,0 6,2.695 6,6.00125 l 0,59.99875 c 0,3.305 -2.695,6.00125 -6,6.00125 l -78,0 c -3.305,0 -6,-2.69625 -6,-6.00125 l 0,-59.99875 c 0,-3.30625 2.695,-6.00125 6,-6.00125 z" />
    <path
       inkscape:connector-curvature="0"
       id="path3337"
       style="fill:#231f20;fill-opacity:1;fill-rule:evenodd;stroke:none"
       d="m 235.62984,423.63584 77.31125,0 c 2.635,0 4.785,2.145 4.785,4.77625 l 0,59.32875 c 0,2.63125 -2.15,4.77625 -4.785,4.77625 l -77.31125,0 c -2.63375,0 -4.78375,-2.145 -4.78375,-4.77625 l 0,-59.32875 c 0,-2.63125 2.15,-4.77625 4.78375,-4.77625" />
    <path
       inkscape:connector-curvature="0"
       id="path3341"
       style="fill:#fccf34;fill-opacity:1;fill-rule:evenodd;stroke:none"
       d="m 235.68121,426.03572 77.20875,0 c 1.34125,0 2.43625,1.0925 2.43625,2.43125 l 0,59.21875 c 0,1.33875 -1.095,2.43125 -2.43625,2.43125 l -77.20875,0 c -1.34,0 -2.435,-1.0925 -2.435,-2.43125 l 0,-59.21875 c 0,-1.33875 1.095,-2.43125 2.435,-2.43125" />
    <path
       inkscape:connector-curvature="0"
       id="path3345"
       style="fill:#231f20;fill-opacity:1;fill-rule:evenodd;stroke:none"
       d="m 297.02521,437.72584 0,-2.39875 -9.15125,0 0,2.39875 3.2825,0 0,15.58875 2.5875,0 0,-15.58875 3.28125,0 z m -10.225,15.58875 -3.91375,-9.34 3.5975,-8.6475 -2.71375,0 -2.2725,5.4275 -2.27125,-5.4275 -2.715,0 3.66125,8.6475 -3.9125,9.34 2.71375,0 2.52375,-6.12125 2.52625,6.12125 2.77625,0 z m -12.1825,0 0,-2.52375 -6.56375,0 0,-5.93375 3.72375,0 0,-2.46125 -3.72375,0 0,-4.545 5.86875,0 0,-2.52375 -8.45625,0 0,17.9875 9.15125,0 z m -13.0025,0 0,-17.9875 -2.5875,0 0,10.79375 -4.92375,-10.79375 -2.5875,0 0,17.9875 2.5875,0 0,-12.055 5.55375,12.055 1.9575,0 z" />
    <path
       inkscape:connector-curvature="0"
       id="path3349"
       style="fill:#231f20;fill-opacity:1;fill-rule:evenodd;stroke:none"
       d="m 309.06009,465.27447 0,-2.39875 -9.1525,0 0,2.39875 3.2825,0 0,15.59 2.5875,0 0,-15.59 3.2825,0 z m -10.22625,0.12625 0,-2.525 -9.15125,0 0,17.98875 2.5875,0 0,-8.4575 3.5975,0 0,-2.46125 -3.5975,0 0,-4.545 6.56375,0 z m -24.175,6.43875 c 0,2.0825 -0.125,3.155 -0.5675,4.6075 -0.44125,1.515 -1.13625,2.21 -2.20875,2.21 -1.13625,0 -1.83125,-0.695 -2.27375,-2.21 -0.3775,-1.4525 -0.5675,-2.5875 -0.5675,-4.54375 0,-2.02125 0.12625,-3.22 0.5675,-4.60875 0.4425,-1.515 1.1375,-2.21 2.27375,-2.21 1.0725,0 1.7675,0.695 2.20875,2.27375 0.37875,1.325 0.5675,2.46125 0.5675,4.48125 m 2.4625,0 c 0,-2.71375 -0.2525,-4.41875 -1.01,-6.185 -0.88375,-2.21 -2.14625,-3.09375 -4.22875,-3.09375 -2.0825,0 -3.345,0.88375 -4.2925,3.03 -0.7575,1.70375 -1.01,3.535 -1.01,6.24875 0,2.77625 0.2525,4.48125 1.01,6.24875 0.88375,2.14625 2.14625,3.1025 4.2925,3.1025 2.01875,0 3.345,-0.95625 4.22875,-3.1025 0.7575,-1.70375 1.01,-3.4725 1.01,-6.24875 m -16.285,0 c 0,2.0825 -0.12625,3.155 -0.5675,4.6075 -0.4425,1.515 -1.13625,2.21 -2.21,2.21 -1.13625,0 -1.83125,-0.695 -2.2725,-2.21 -0.37875,-1.4525 -0.5675,-2.5875 -0.5675,-4.54375 0,-2.02125 0.125,-3.22 0.5675,-4.60875 0.44125,-1.515 1.13625,-2.21 2.2725,-2.21 1.07375,0 1.7675,0.695 2.21,2.27375 0.37875,1.325 0.5675,2.46125 0.5675,4.48125 m 2.4625,0 c 0,-2.71375 -0.2525,-4.41875 -1.01125,-6.185 -0.88375,-2.21 -2.14625,-3.09375 -4.22875,-3.09375 -2.0825,0 -3.34625,0.88375 -4.29125,3.03 -0.75875,1.70375 -1.01125,3.535 -1.01125,6.24875 0,2.77625 0.2525,4.48125 1.01125,6.24875 0.88375,2.14625 2.145,3.1025 4.29125,3.1025 2.01875,0 3.345,-0.95625 4.22875,-3.1025 0.75875,-1.70375 1.01125,-3.4725 1.01125,-6.24875 m -13.25625,2.715 c 0,-3.41 -2.02,-5.745 -4.9225,-5.745 -0.695,0 -1.13625,0.0638 -2.02125,0.37875 l 0.19,-3.7875 6.05875,0 0,-2.525 -8.4575,0 -0.4425,8.96375 2.4625,0.31625 c 0.63125,-0.56875 1.32625,-0.88375 2.14625,-0.88375 1.515,0 2.4625,1.19875 2.4625,3.155 0,2.4625 -1.39,4.23 -3.34625,4.23 -0.88375,0 -1.57875,-0.2525 -2.46125,-0.88375 l -1.70375,1.83 c 1.32375,1.01 2.83875,1.5875 4.4175,1.5875 3.21875,0 5.6175,-2.85 5.6175,-6.63625" />
  </g>
</svg>
