<?xml version="1.0" encoding="UTF-8" standalone="no"?>
<!-- Created with Inkscape (http://www.inkscape.org/) -->

<svg
   xmlns:dc="http://purl.org/dc/elements/1.1/"
   xmlns:cc="http://creativecommons.org/ns#"
   xmlns:rdf="http://www.w3.org/1999/02/22-rdf-syntax-ns#"
   xmlns:svg="http://www.w3.org/2000/svg"
   xmlns="http://www.w3.org/2000/svg"
   xmlns:sodipodi="http://sodipodi.sourceforge.net/DTD/sodipodi-0.dtd"
   xmlns:inkscape="http://www.inkscape.org/namespaces/inkscape"
   width="90.625"
   height="45.625"
   id="svg5011"
   version="1.1"
   inkscape:version="0.48.1 "
   sodipodi:docname="New document 28">
  <defs
     id="defs5013" />
  <sodipodi:namedview
     id="base"
     pagecolor="#ffffff"
     bordercolor="#666666"
     borderopacity="1.0"
     inkscape:pageopacity="0.0"
     inkscape:pageshadow="2"
     inkscape:zoom="0.35"
     inkscape:cx="-56.83036"
     inkscape:cy="39.955357"
     inkscape:document-units="px"
     inkscape:current-layer="layer1"
     showgrid="false"
     fit-margin-top="0"
     fit-margin-left="0"
     fit-margin-right="0"
     fit-margin-bottom="0"
     inkscape:window-width="469"
     inkscape:window-height="403"
     inkscape:window-x="504"
     inkscape:window-y="61"
     inkscape:window-maximized="0" />
  <metadata
     id="metadata5016">
    <rdf:RDF>
      <cc:Work
         rdf:about="">
        <dc:format>image/svg+xml</dc:format>
        <dc:type
           rdf:resource="http://purl.org/dc/dcmitype/StillImage" />
        <dc:title></dc:title>
      </cc:Work>
    </rdf:RDF>
  </metadata>
  <g
     inkscape:label="Layer 1"
     inkscape:groupmode="layer"
     id="layer1"
     transform="translate(-431.83036,-526.69254)">
    <path
       inkscape:connector-curvature="0"
       id="path3543"
       style="fill:#fccf34;fill-opacity:1;fill-rule:nonzero;stroke:none"
       d="m 439.64286,527.00504 75,0 c 4.13125,0 7.5,3.28125 7.5,7.30625 l 0,30.39 c 0,4.0225 -3.36875,7.30375 -7.5,7.30375 l -75,0 c -4.13125,0 -7.5,-3.28125 -7.5,-7.30375 l 0,-30.39 c 0,-4.025 3.36875,-7.30625 7.5,-7.30625" />
    <path
       inkscape:connector-curvature="0"
       id="path3547"
       style="fill:none;stroke:#231f20;stroke-width:0.625;stroke-linecap:butt;stroke-linejoin:miter;stroke-miterlimit:4;stroke-opacity:1;stroke-dasharray:none"
       d="m 439.64286,527.00504 75,0 c 4.13125,0 7.5,3.28125 7.5,7.30625 l 0,30.39 c 0,4.0225 -3.36875,7.30375 -7.5,7.30375 l -75,0 c -4.13125,0 -7.5,-3.28125 -7.5,-7.30375 l 0,-30.39 c 0,-4.025 3.36875,-7.30625 7.5,-7.30625 z" />
    <path
       inkscape:connector-curvature="0"
       id="path3551"
       style="fill:#231f20;fill-opacity:1;fill-rule:evenodd;stroke:none"
       d="m 514.62411,528.50629 c 3.26125,0.08 5.935,2.51125 6.0175,5.825 0.015,0.5125 0,1.03 0,1.54375 0,3.195 -0.003,6.39 -0.003,9.58625 -0.002,6.44 -0.002,12.8825 -0.005,19.3225 -0.002,3.29875 -2.95875,5.7125 -6.11125,5.7125 l -4.42875,0 c -6.35875,10e-4 -12.72125,0.002 -19.08125,0.002 -14.9375,0.003 -29.8775,0.004 -44.81625,0.005 -4.1725,10e-4 -10.49,1.04625 -12.2375,-3.96125 -0.63625,-1.825 -0.31625,-4.1725 -0.31625,-6.06125 0.002,-3.7525 0.002,-7.505 0.004,-11.2575 10e-4,-3.72875 10e-4,-7.45625 0.004,-11.185 0,-2.4625 -0.36875,-5.0675 1.17625,-7.18 2.6675,-3.30625 8.03375,-2.34625 11.8,-2.34625 15.075,-0.002 30.14875,-0.002 45.22375,-0.004 7.59,-0.001 15.1825,-0.002 22.77375,-0.002" />
    <path
       inkscape:connector-curvature="0"
       id="path3555"
       style="fill:#fccf34;fill-opacity:1;fill-rule:evenodd;stroke:none"
       d="m 439.64286,530.75504 75,0 c 2.065,0 3.75,1.685 3.75,3.75 l 0,30 c 0,2.06625 -1.685,3.75 -3.75,3.75 l -75,0 c -2.065,0 -3.75,-1.68375 -3.75,-3.75 l 0,-30 c 0,-2.065 1.685,-3.75 3.75,-3.75" />
    <path
       inkscape:connector-curvature="0"
       id="path3559"
       style="fill:#231f20;fill-opacity:1;fill-rule:evenodd;stroke:none"
       d="m 506.88398,550.72629 c 0,2 -0.47375,3.6275 -1.3675,4.52375 -0.42,0.42 -0.8925,0.57875 -1.68125,0.57875 l -2.36875,0 0,-10.205 2.68375,0 c 0.63,0 1.15625,0.26375 1.525,0.63 0.735,0.79125 1.20875,2.4725 1.20875,4.4725 m 2.42,0 c 0,-2.94625 -0.89375,-5.3125 -2.47125,-6.68 -0.79125,-0.6325 -1.37,-0.79125 -2.8925,-0.79125 l -4.84125,0 0,14.99375 4.5775,0 0.8425,0 c 0.7875,-0.0538 1.57625,-0.315 2.155,-0.8425 1.6825,-1.31625 2.63,-3.6825 2.63,-6.68 m -17.305,0.89375 -2.99875,0 1.52375,-4.20875 1.475,4.20875 z m 4.83875,6.62875 -5.15625,-14.99375 -2.36625,0 -5.15625,14.99375 2.5275,0 1.4725,-4.21 4.68,0 1.47375,4.21 2.525,0 z m -13.835,0 0,-2.42 -6.94375,0 0,-4.10375 4.3675,0 0,-2.42 -4.3675,0 0,-3.68125 6.47,0 0,-2.36875 -8.83625,0 0,14.99375 9.31,0 z m -12.835,0 0,-14.99375 -2.36625,0 0,6.05 -5.47,0 0,-6.05 -2.36875,0 0,14.99375 2.36875,0 0,-6.52375 5.47,0 0,6.52375 2.36625,0 z m -17.305,-6.62875 -2.9975,0 1.52375,-4.20875 1.47375,4.20875 z m 4.83875,6.62875 -5.15625,-14.99375 -2.365,0 -5.15625,14.99375 2.52625,0 1.4725,-4.21 4.68,0 1.475,4.21 2.52375,0 z" />
  </g>
</svg>
