<?xml version="1.0" encoding="UTF-8" standalone="no"?>
<!-- Created with Inkscape (http://www.inkscape.org/) -->

<svg
   xmlns:dc="http://purl.org/dc/elements/1.1/"
   xmlns:cc="http://creativecommons.org/ns#"
   xmlns:rdf="http://www.w3.org/1999/02/22-rdf-syntax-ns#"
   xmlns:svg="http://www.w3.org/2000/svg"
   xmlns="http://www.w3.org/2000/svg"
   xmlns:sodipodi="http://sodipodi.sourceforge.net/DTD/sodipodi-0.dtd"
   xmlns:inkscape="http://www.inkscape.org/namespaces/inkscape"
   width="90.625"
   height="72.626251"
   id="svg4527"
   version="1.1"
   inkscape:version="0.48.1 "
   sodipodi:docname="New document 6">
  <defs
     id="defs4529" />
  <sodipodi:namedview
     id="base"
     pagecolor="#ffffff"
     bordercolor="#666666"
     borderopacity="1.0"
     inkscape:pageopacity="0.0"
     inkscape:pageshadow="2"
     inkscape:zoom="0.35"
     inkscape:cx="3.16964"
     inkscape:cy="39.170267"
     inkscape:document-units="px"
     inkscape:current-layer="layer1"
     showgrid="false"
     fit-margin-top="0"
     fit-margin-left="0"
     fit-margin-right="0"
     fit-margin-bottom="0"
     inkscape:window-width="469"
     inkscape:window-height="403"
     inkscape:window-x="150"
     inkscape:window-y="150"
     inkscape:window-maximized="0" />
  <metadata
     id="metadata4532">
    <rdf:RDF>
      <cc:Work
         rdf:about="">
        <dc:format>image/svg+xml</dc:format>
        <dc:type
           rdf:resource="http://purl.org/dc/dcmitype/StillImage" />
        <dc:title></dc:title>
      </cc:Work>
    </rdf:RDF>
  </metadata>
  <g
     inkscape:label="Layer 1"
     inkscape:groupmode="layer"
     id="layer1"
     transform="translate(-371.83036,-498.9062)">
    <path
       inkscape:connector-curvature="0"
       id="path3165"
       style="fill:#fccf34;fill-opacity:1;fill-rule:nonzero;stroke:none"
       d="m 378.14286,499.2187 78,0 c 3.305,0 6,2.695 6,6.00125 l 0,59.99875 c 0,3.305 -2.695,6.00125 -6,6.00125 l -78,0 c -3.305,0 -6,-2.69625 -6,-6.00125 l 0,-59.99875 c 0,-3.30625 2.695,-6.00125 6,-6.00125" />
    <path
       inkscape:connector-curvature="0"
       id="path3169"
       style="fill:none;stroke:#231f20;stroke-width:0.625;stroke-linecap:butt;stroke-linejoin:miter;stroke-miterlimit:4;stroke-opacity:1;stroke-dasharray:none"
       d="m 378.14286,499.2187 78,0 c 3.305,0 6,2.695 6,6.00125 l 0,59.99875 c 0,3.305 -2.695,6.00125 -6,6.00125 l -78,0 c -3.305,0 -6,-2.69625 -6,-6.00125 l 0,-59.99875 c 0,-3.30625 2.695,-6.00125 6,-6.00125 z" />
    <path
       inkscape:connector-curvature="0"
       id="path3173"
       style="fill:#231f20;fill-opacity:1;fill-rule:evenodd;stroke:none"
       d="m 378.48661,500.77883 77.31125,0 c 2.635,0 4.785,2.145 4.785,4.775 l 0,59.33 c 0,2.63125 -2.15,4.775 -4.785,4.775 l -77.31125,0 c -2.63375,0 -4.78375,-2.14375 -4.78375,-4.775 l 0,-59.33 c 0,-2.63 2.15,-4.775 4.78375,-4.775" />
    <path
       inkscape:connector-curvature="0"
       id="path3177"
       style="fill:#fccf34;fill-opacity:1;fill-rule:evenodd;stroke:none"
       d="m 378.53786,503.17858 77.20875,0 c 1.3425,0 2.43625,1.0925 2.43625,2.43 l 0,59.22 c 0,1.33875 -1.09375,2.43125 -2.43625,2.43125 l -77.20875,0 c -1.34,0 -2.435,-1.0925 -2.435,-2.43125 l 0,-59.22 c 0,-1.3375 1.095,-2.43 2.435,-2.43" />
    <path
       inkscape:connector-curvature="0"
       id="path3181"
       style="fill:#231f20;fill-opacity:1;fill-rule:evenodd;stroke:none"
       d="m 436.63161,521.40995 c 0,1.38875 -0.31625,3.15625 -0.695,4.10375 -0.63,1.5775 -1.45125,2.27125 -2.7775,2.27125 -1.13625,0 -1.8925,-0.44125 -2.46125,-1.38875 -0.69375,-1.135 -1.0725,-3.09125 -1.0725,-4.98625 0,-1.515 0.25125,-3.15625 0.69375,-4.22875 0.6325,-1.57875 1.515,-2.27125 2.90375,-2.20875 1.07375,0.0625 1.76625,0.44125 2.335,1.38875 0.695,1.19875 1.07375,3.03 1.07375,5.04875 m 2.84,0 c 0,-2.27125 -0.44125,-4.54375 -1.19875,-6.1225 -1.13625,-2.20875 -2.715,-3.21875 -4.9875,-3.21875 -2.0825,0 -3.53375,0.63125 -4.6075,2.01875 -1.19875,1.705 -1.95625,4.35625 -1.95625,7.3225 0,2.1475 0.50375,4.545 1.2625,6.06125 1.0725,2.2075 2.65125,3.22875 5.175,3.22875 1.89375,0 3.34625,-0.6425 4.35625,-2.03 1.2625,-1.57875 1.95625,-4.42 1.95625,-7.26 m -19.12625,0 c 0,1.38875 -0.315,3.15625 -0.6925,4.10375 -0.6325,1.5775 -1.45125,2.27125 -2.7775,2.27125 -1.1375,0 -1.895,-0.44125 -2.46375,-1.38875 -0.6925,-1.135 -1.07125,-3.09125 -1.07125,-4.98625 0,-1.515 0.25125,-3.15625 0.69375,-4.22875 0.63125,-1.57875 1.515,-2.27125 2.90375,-2.20875 1.0725,0.0625 1.7675,0.44125 2.33625,1.38875 0.69375,1.19875 1.07125,3.03 1.07125,5.04875 m 2.8425,0 c 0,-2.27125 -0.4425,-4.54375 -1.2,-6.1225 -1.13625,-2.20875 -2.71375,-3.21875 -4.98625,-3.21875 -2.08375,0 -3.53625,0.63125 -4.60875,2.01875 -1.19875,1.705 -1.95625,4.35625 -1.95625,7.3225 0,2.1475 0.505,4.545 1.26125,6.06125 1.07375,2.2075 2.6525,3.22875 5.1775,3.22875 1.89375,0 3.345,-0.6425 4.35375,-2.03 1.2625,-1.57875 1.95875,-4.42 1.95875,-7.26 m -16.285,2.33625 c 0,-3.2825 -2.715,-6.06 -5.9975,-6.06 -0.8825,0 -1.45125,0.12625 -2.7775,0.505 l 0.19,-2.96625 7.57375,0 0,-2.84125 -10.35125,0 -0.4425,9.27875 2.84125,0.82125 c 1.0725,-1.515 1.64125,-1.89375 2.90375,-1.89375 1.7675,0 3.2175,1.38875 3.2175,3.15625 0,2.335 -2.01875,4.03875 -4.60625,4.03875 -1.32625,0 -2.6525,-0.2525 -3.40875,-0.63 l -1.38875,2.52375 c 1.26125,0.63125 2.84,1.02125 4.41875,1.02125 4.54375,0 7.8275,-2.9775 7.8275,-6.95375" />
    <path
       inkscape:connector-curvature="0"
       id="path3185"
       style="fill:#231f20;fill-opacity:1;fill-rule:evenodd;stroke:none"
       d="m 443.01786,542.58058 0,-2.525 -11.11,0 0,2.525 4.105,0 0,15.465 2.83875,0 0,-15.465 4.16625,0 z m -12.4975,15.465 0,-2.90375 -8.33125,0 0,-4.92375 5.2375,0 0,-2.90375 -5.2375,0 0,-4.4175 7.76375,0 0,-2.84125 -10.605,0 0,17.99 11.1725,0 z m -14.13875,0 0,-2.90375 -8.3325,0 0,-4.92375 5.24,0 0,-2.90375 -5.24,0 0,-4.4175 7.76375,0 0,-2.84125 -10.605,0 0,17.99 11.17375,0 z m -13.82375,-15.14875 0,-2.84125 -11.17375,0 0,17.99 2.8425,0 0,-7.8275 5.23875,0 0,-2.90375 -5.23875,0 0,-4.4175 8.33125,0 z" />
  </g>
</svg>
