<?xml version="1.0" encoding="UTF-8" standalone="no"?>
<!-- Created with Inkscape (http://www.inkscape.org/) -->

<svg
   xmlns:dc="http://purl.org/dc/elements/1.1/"
   xmlns:cc="http://creativecommons.org/ns#"
   xmlns:rdf="http://www.w3.org/1999/02/22-rdf-syntax-ns#"
   xmlns:svg="http://www.w3.org/2000/svg"
   xmlns="http://www.w3.org/2000/svg"
   xmlns:sodipodi="http://sodipodi.sourceforge.net/DTD/sodipodi-0.dtd"
   xmlns:inkscape="http://www.inkscape.org/namespaces/inkscape"
   width="69.390053"
   height="52.162498"
   id="svg5144"
   version="1.1"
   inkscape:version="0.48.1 "
   sodipodi:docname="New document 34">
  <defs
     id="defs5146" />
  <sodipodi:namedview
     id="base"
     pagecolor="#ffffff"
     bordercolor="#666666"
     borderopacity="1.0"
     inkscape:pageopacity="0.0"
     inkscape:pageshadow="2"
     inkscape:zoom="0.35"
     inkscape:cx="-144.59066"
     inkscape:cy="91.795487"
     inkscape:document-units="px"
     inkscape:current-layer="layer1"
     showgrid="false"
     fit-margin-top="0"
     fit-margin-left="0"
     fit-margin-right="0"
     fit-margin-bottom="0"
     inkscape:window-width="469"
     inkscape:window-height="403"
     inkscape:window-x="25"
     inkscape:window-y="25"
     inkscape:window-maximized="0" />
  <metadata
     id="metadata5149">
    <rdf:RDF>
      <cc:Work
         rdf:about="">
        <dc:format>image/svg+xml</dc:format>
        <dc:type
           rdf:resource="http://purl.org/dc/dcmitype/StillImage" />
        <dc:title></dc:title>
      </cc:Work>
    </rdf:RDF>
  </metadata>
  <g
     inkscape:label="Layer 1"
     inkscape:groupmode="layer"
     id="layer1"
     transform="translate(-519.59066,-571.99517)">
    <path
       inkscape:connector-curvature="0"
       id="path3727"
       style="fill:#fccf34;fill-opacity:1;fill-rule:nonzero;stroke:none"
       d="m 527.09696,572.30772 54.3775,0.0412 c 3.96125,0 7.19375,3.23 7.19375,7.19 l 0,37.11625 c 0,3.96 -3.2325,7.19 -7.19375,7.19 l -54.33625,0 c -3.96125,0 -7.19125,-3.23 -7.19125,-7.19 l -0.0438,-37.1575 c 0,-3.96 3.23125,-7.19 7.19375,-7.19" />
    <path
       inkscape:connector-curvature="0"
       id="path3731"
       style="fill:none;stroke:#231f20;stroke-width:0.625;stroke-linecap:butt;stroke-linejoin:miter;stroke-miterlimit:4;stroke-opacity:1;stroke-dasharray:none"
       d="m 527.09696,572.30772 54.3775,0.0412 c 3.96125,0 7.19375,3.23 7.19375,7.19 l 0,37.11625 c 0,3.96 -3.2325,7.19 -7.19375,7.19 l -54.33625,0 c -3.96125,0 -7.19125,-3.23 -7.19125,-7.19 l -0.0438,-37.1575 c 0,-3.96 3.23125,-7.19 7.19375,-7.19 z" />
    <path
       inkscape:connector-curvature="0"
       id="path3735"
       style="fill:#231f20;fill-opacity:1;fill-rule:evenodd;stroke:none"
       d="m 526.59696,573.87772 0.12625,0 55.1725,0 0.02,0 10e-4,0 c 2.86755,0.0113 5.2038,2.6025 5.2038,5.47375 0,0.10875 -0.005,0.21875 -0.0125,0.32875 l 0.0125,0.0125 0,37.13625 0,0.015 c 0,2.7975 -2.21875,5.34125 -4.985,5.46875 l -0.005,0.005 -0.235,0 -55.1725,0 -0.23375,0 -0.005,-0.005 c -2.7,-0.125 -4.875,-2.56125 -4.97875,-5.26625 l -0.005,-0.003 0,-0.2 0,-37.4925 0,-0.19625 0.004,-0.005 c 0.105,-2.74125 2.34,-5.2025 5.09125,-5.27 l 10e-4,-0.003 z" />
    <path
       inkscape:connector-curvature="0"
       id="path3739"
       style="fill:#fccf34;fill-opacity:1;fill-rule:evenodd;stroke:none"
       d="m 526.18696,576.27759 56.3025,0 0.002,0 c 1.22125,0 2.21875,1.845 2.21875,3.06625 0,0.0462 -0.002,0.09 -0.005,0.13625 l 0.005,0.005 0,37.36625 0,0.0775 -0.002,0.002 c -0.0388,1.11125 -0.9025,2.87875 -1.995,2.98875 l -0.009,0.009 -0.2125,0 -56.305,0 -10e-4,0 c -1.195,0 -2.175,-1.81375 -2.21875,-2.9975 l 0,-0.002 0,-0.0775 0,-37.36625 0.004,-0.005 c -0.004,-0.0462 -0.004,-0.09 -0.004,-0.13625 0,-1.22125 0.99625,-3.06625 2.21875,-3.06625 l 10e-4,0 z" />
    <path
       inkscape:connector-curvature="0"
       id="path3743"
       style="fill:#231f20;fill-opacity:1;fill-rule:evenodd;stroke:none"
       d="m 581.72196,610.05884 0,-2.2 -2.75,0 0,1.4775 1.20375,0 0,0.7225 c 0,1.135 -0.37875,1.65 -1.16875,1.65 -0.82625,0 -1.34125,-0.54875 -1.5825,-1.61625 -0.13625,-0.825 -0.24,-1.7525 -0.24,-2.68 0,-1.2725 0.20625,-2.47625 0.515,-2.99375 0.24,-0.54875 0.65375,-0.79125 1.20375,-0.79125 0.75625,0 1.2375,0.48375 1.2725,1.20375 l 1.54625,0 c -0.0688,-1.57875 -1.2375,-2.715 -2.785,-2.715 -1.2375,0 -2.3375,0.82625 -2.71625,1.96125 -0.37875,1.03 -0.48125,2.0975 -0.48125,3.60875 0,1.41 0.20625,2.92375 0.55125,3.7125 0.515,1.20375 1.4775,1.82375 2.75,1.82375 1.1,0 1.95875,-0.55125 2.3725,-1.51375 0.24,-0.44625 0.30875,-0.89375 0.30875,-1.65 m -8.11375,2.99125 0,-10.7625 -1.5475,0 0,6.465 -2.9225,-6.465 -1.5475,0 0,10.7625 1.5475,0 0,-7.22 3.30125,7.22 1.16875,0 z m -8.355,-10.7625 -1.5125,0 0,10.7625 1.5125,0 0,-10.7625 z m -3.81625,10.7625 0,-10.7625 -1.5125,0 0,4.4025 -2.9575,0 0,-4.4025 -1.5475,0 0,10.7625 1.5475,0 0,-4.88125 2.9575,0 0,4.88125 1.5125,0 z m -7.77125,-2.9575 c 0,-1.545 -0.9275,-2.715 -2.99,-3.9175 -0.79125,-0.4475 -1.0325,-0.7575 -1.0325,-1.2725 0,-0.7225 0.585,-1.2375 1.30625,-1.2375 0.65375,0 1.20375,0.48125 1.2375,1.2375 l 1.47875,0 c -0.0337,-1.61625 -1.2025,-2.78625 -2.71625,-2.78625 -1.5475,0 -2.75,1.23875 -2.75,2.78625 0,0.9275 0.44625,1.7875 1.30625,2.37 2.20125,1.48 1.5825,1.0675 1.8225,1.275 0.61875,0.515 0.85875,0.9625 0.85875,1.545 0,0.86 -0.68625,1.61625 -1.51125,1.61625 -1.0675,0 -1.51375,-0.9275 -1.51375,-1.82125 l -1.5125,0 c 0,1.75375 1.135,3.335 3.02625,3.335 1.65,0 2.99,-1.37375 2.99,-3.13 m -9.62625,-1.51125 -1.5475,0 0.75625,-3.06125 0.79125,3.06125 z m 2.68125,4.46875 -2.68125,-10.7625 -1.5125,0 -2.6475,10.7625 1.54625,0 0.6875,-2.9575 2.30375,0 0.75625,2.9575 1.5475,0 z m -7.495,0 0,-1.44375 -3.92,0 0,-9.31875 -1.5475,0 0,10.7625 5.4675,0 z m -6.945,-9.24875 0,-1.51375 -5.4325,0 0,10.7625 1.54625,0 0,-5.05375 2.1325,0 0,-1.4775 -2.1325,0 0,-2.7175 3.88625,0 z" />
    <path
       inkscape:connector-curvature="0"
       id="path3747"
       style="fill:#231f20;fill-opacity:1;fill-rule:evenodd;stroke:none"
       d="m 569.89584,593.66009 0,-10.73 -1.54875,0 0,6.43 -2.9225,-6.43 -1.54625,0 0,10.73 1.54625,0 0,-7.1875 3.30125,7.1875 1.17,0 z m -7.84,0 0,-1.51375 -3.92,0 0,-3.5425 2.235,0 0,-1.4775 -2.235,0 0,-2.7175 3.5075,0 0,-1.47875 -5.05375,0 0,10.73 5.46625,0 z m -7.77125,0 0,-10.73 -1.5125,0 0,4.3675 -2.9225,0 0,-4.3675 -1.5475,0 0,10.73 1.5475,0 0,-4.84875 2.9225,0 0,4.84875 1.5125,0 z m -7.46125,-10.73 -1.5125,0 -0.92875,5.7075 -1.03125,-5.7075 -1.2025,0 -1.0325,5.7075 -0.9275,-5.7075 -1.5125,0 1.71875,10.73 1.34125,0 1.03,-5.60625 0.99875,5.60625 1.34,0 1.71875,-10.73 z" />
  </g>
</svg>
