<?xml version="1.0" encoding="UTF-8" standalone="no"?>
<!-- Created with Inkscape (http://www.inkscape.org/) -->

<svg
   xmlns:dc="http://purl.org/dc/elements/1.1/"
   xmlns:cc="http://creativecommons.org/ns#"
   xmlns:rdf="http://www.w3.org/1999/02/22-rdf-syntax-ns#"
   xmlns:svg="http://www.w3.org/2000/svg"
   xmlns="http://www.w3.org/2000/svg"
   xmlns:sodipodi="http://sodipodi.sourceforge.net/DTD/sodipodi-0.dtd"
   xmlns:inkscape="http://www.inkscape.org/namespaces/inkscape"
   width="90.553749"
   height="34.3475"
   id="svg5185"
   version="1.1"
   inkscape:version="0.48.1 "
   sodipodi:docname="New document 36">
  <defs
     id="defs5187" />
  <sodipodi:namedview
     id="base"
     pagecolor="#ffffff"
     bordercolor="#666666"
     borderopacity="1.0"
     inkscape:pageopacity="0.0"
     inkscape:pageshadow="2"
     inkscape:zoom="0.35"
     inkscape:cx="97.41973"
     inkscape:cy="-102.82625"
     inkscape:document-units="px"
     inkscape:current-layer="layer1"
     showgrid="false"
     fit-margin-top="0"
     fit-margin-left="0"
     fit-margin-right="0"
     fit-margin-bottom="0"
     inkscape:window-width="469"
     inkscape:window-height="403"
     inkscape:window-x="744"
     inkscape:window-y="94"
     inkscape:window-maximized="0" />
  <metadata
     id="metadata5190">
    <rdf:RDF>
      <cc:Work
         rdf:about="">
        <dc:format>image/svg+xml</dc:format>
        <dc:type
           rdf:resource="http://purl.org/dc/dcmitype/StillImage" />
        <dc:title></dc:title>
      </cc:Work>
    </rdf:RDF>
  </metadata>
  <g
     inkscape:label="Layer 1"
     inkscape:groupmode="layer"
     id="layer1"
     transform="translate(-277.58027,-395.18843)">
    <path
       inkscape:connector-curvature="0"
       id="path3763"
       style="fill:#fccf34;fill-opacity:1;fill-rule:nonzero;stroke:none"
       d="m 367.82152,423.60343 c 0,3.10375 -2.51625,5.62 -5.62,5.62 l -78.68625,0 c -3.105,0 -5.6225,-2.51625 -5.6225,-5.62 l 0,-22.4825 c 0,-3.10375 2.5175,-5.62 5.6225,-5.62 l 78.68625,0 c 3.10375,0 5.62,2.51625 5.62,5.62 l 0,22.4825 z" />
    <path
       inkscape:connector-curvature="0"
       id="path3767"
       style="fill:none;stroke:#231f20;stroke-width:0.625;stroke-linecap:butt;stroke-linejoin:miter;stroke-miterlimit:4;stroke-opacity:1;stroke-dasharray:none"
       d="m 367.82152,423.60343 c 0,3.10375 -2.51625,5.62 -5.62,5.62 l -78.68625,0 c -3.105,0 -5.6225,-2.51625 -5.6225,-5.62 l 0,-22.4825 c 0,-3.10375 2.5175,-5.62 5.6225,-5.62 l 78.68625,0 c 3.10375,0 5.62,2.51625 5.62,5.62 l 0,22.4825 z" />
    <path
       inkscape:connector-curvature="0"
       id="path3771"
       style="fill:#231f20;fill-opacity:1;fill-rule:nonzero;stroke:none"
       d="m 364.07414,423.60343 c 0,1.0325 -0.84,1.87375 -1.8725,1.87375 l -78.68625,0 c -1.035,0 -1.875,-0.84125 -1.875,-1.87375 l 0,-22.4825 c 0,-1.03375 0.84,-1.8725 1.875,-1.8725 l 78.68625,0 c 1.0325,0 1.8725,0.83875 1.8725,1.8725 l 0,22.4825 z m -1.8725,-26.6975 -78.68625,0 c -2.32375,0 -4.21625,1.89125 -4.21625,4.215 l 0,22.4825 c 0,2.32375 1.8925,4.215 4.21625,4.215 l 78.68625,0 c 2.325,0 4.21375,-1.89125 4.21375,-4.215 l 0,-22.4825 c 0,-2.32375 -1.88875,-4.215 -4.21375,-4.215" />
    <path
       inkscape:connector-curvature="0"
       id="path3775"
       style="fill:#231f20;fill-opacity:1;fill-rule:nonzero;stroke:none"
       d="m 315.64152,421.72956 0,-18.735 13.72125,0 0,3.3525 -10.29125,0 0,3.48375 5.60875,0 0,3.41875 -5.60875,0 0,5.1275 10.62125,0 0,3.3525 -14.05125,0 z" />
    <path
       inkscape:connector-curvature="0"
       id="path3779"
       style="fill:#231f20;fill-opacity:1;fill-rule:nonzero;stroke:none"
       d="m 307.86652,421.72956 -8.98,-12.885 0,12.885 -3.30125,0 0,-18.735 3.30125,0 8.65,12.35875 0,-12.35875 3.235,0 0,18.735 -2.905,0 z" />
    <path
       inkscape:connector-curvature="0"
       id="path3783"
       style="fill:#231f20;fill-opacity:1;fill-rule:nonzero;stroke:none"
       d="m 348.27152,421.72956 -3.555,0 -3.025,-12.555 -2.96125,12.555 -3.555,0 -3.4225,-18.735 3.48875,0 2.04125,12.095 2.76375,-12.095 3.35375,0 2.89625,12.095 1.90875,-12.095 3.4225,0 -3.35625,18.735 z" />
  </g>
</svg>
