<?xml version="1.0" encoding="UTF-8" standalone="no"?>
<!-- Created with Inkscape (http://www.inkscape.org/) -->

<svg
   xmlns:dc="http://purl.org/dc/elements/1.1/"
   xmlns:cc="http://creativecommons.org/ns#"
   xmlns:rdf="http://www.w3.org/1999/02/22-rdf-syntax-ns#"
   xmlns:svg="http://www.w3.org/2000/svg"
   xmlns="http://www.w3.org/2000/svg"
   xmlns:sodipodi="http://sodipodi.sourceforge.net/DTD/sodipodi-0.dtd"
   xmlns:inkscape="http://www.inkscape.org/namespaces/inkscape"
   width="90.62616"
   height="68.125443"
   id="svg4725"
   version="1.1"
   inkscape:version="0.48.1 "
   sodipodi:docname="New document 16">
  <defs
     id="defs4727" />
  <sodipodi:namedview
     id="base"
     pagecolor="#ffffff"
     bordercolor="#666666"
     borderopacity="1.0"
     inkscape:pageopacity="0.0"
     inkscape:pageshadow="2"
     inkscape:zoom="0.35"
     inkscape:cx="-11.123842"
     inkscape:cy="2.6378174"
     inkscape:document-units="px"
     inkscape:current-layer="layer1"
     showgrid="false"
     fit-margin-top="0"
     fit-margin-left="0"
     fit-margin-right="0"
     fit-margin-bottom="0"
     inkscape:window-width="469"
     inkscape:window-height="403"
     inkscape:window-x="25"
     inkscape:window-y="25"
     inkscape:window-maximized="0" />
  <metadata
     id="metadata4730">
    <rdf:RDF>
      <cc:Work
         rdf:about="">
        <dc:format>image/svg+xml</dc:format>
        <dc:type
           rdf:resource="http://purl.org/dc/dcmitype/StillImage" />
        <dc:title></dc:title>
      </cc:Work>
    </rdf:RDF>
  </metadata>
  <g
     inkscape:label="Layer 1"
     inkscape:groupmode="layer"
     id="layer1"
     transform="translate(-386.12384,-466.87456)">
    <path
       inkscape:connector-curvature="0"
       id="path3365"
       style="fill:#fccf34;fill-opacity:1;fill-rule:nonzero;stroke:none"
       d="m 394.13672,467.18359 74.79125,0 0.325,0 0.007,0.007 c 3.875,0.17 7,3.30125 7.16125,7.1775 l 0.006,0.007 0,0.3075 0,52.5 0,0.0662 0,10e-4 c -0.0337,3.79375 -2.91,6.92875 -6.59375,7.3775 l -0.0487,0.055 -0.8575,0 -74.99875,0 -0.1925,0 -0.002,-0.003 c -3.9275,-0.1 -7.12125,-3.2475 -7.2975,-7.15625 l -0.007,-0.01 0,-0.33125 0,-52.14125 0.007,-0.01 c -0.005,-0.11625 -0.007,-0.23125 -0.007,-0.34875 0,-4.13125 3.37,-7.5 7.5,-7.5 0.0688,0 0.1375,0.001 0.20625,0.002 l 0.001,-0.002 z" />
    <path
       inkscape:connector-curvature="0"
       id="path3369"
       style="fill:none;stroke:#231f20;stroke-width:0.625;stroke-linecap:butt;stroke-linejoin:miter;stroke-miterlimit:4;stroke-opacity:1;stroke-dasharray:none"
       d="m 394.13672,467.18359 74.79125,0 0.325,0 0.007,0.007 c 3.875,0.17 7,3.30125 7.16125,7.1775 l 0.006,0.007 0,0.3075 0,52.5 0,0.0662 0,10e-4 c -0.0337,3.79375 -2.91,6.92875 -6.59375,7.3775 l -0.0487,0.055 -0.8575,0 -74.99875,0 -0.1925,0 -0.002,-0.003 c -3.9275,-0.1 -7.12125,-3.2475 -7.2975,-7.15625 l -0.007,-0.01 0,-0.33125 0,-52.14125 0.007,-0.01 c -0.005,-0.11625 -0.007,-0.23125 -0.007,-0.34875 0,-4.13125 3.37,-7.5 7.5,-7.5 0.0688,0 0.1375,0.001 0.20625,0.002 l 0.001,-0.002 z" />
    <path
       inkscape:connector-curvature="0"
       id="path3373"
       style="fill:#231f20;fill-opacity:1;fill-rule:evenodd;stroke:none"
       d="m 394.67922,468.68371 73.5,0 c 3.7175,0 6.75,3.0325 6.75,6.74875 l 0,51.00125 c 0,3.71875 -3.0325,6.75125 -6.75,6.75125 l -73.5,0 c -3.71875,0 -6.75,-3.0325 -6.75,-6.75125 l 0,-51.00125 c 0,-3.71625 3.03125,-6.74875 6.75,-6.74875" />
    <path
       inkscape:connector-curvature="0"
       id="path3377"
       style="fill:#fccf34;fill-opacity:1;fill-rule:evenodd;stroke:none"
       d="m 394.74422,470.91246 73.36875,0 c 2.53625,0 4.6025,2.0675 4.6025,4.6025 l 0,50.86125 c 0,2.53625 -2.06625,4.60375 -4.6025,4.60375 l -73.36875,0 c -2.535,0 -4.6025,-2.0675 -4.6025,-4.60375 l 0,-50.86125 c 0,-2.535 2.0675,-4.6025 4.6025,-4.6025" />
    <path
       inkscape:connector-curvature="0"
       id="path3381"
       style="fill:#231f20;fill-opacity:1;fill-rule:evenodd;stroke:none"
       d="m 459.71172,496.36359 -40.5725,0.0113 1.795,-5.22875 c 0.1575,-0.28375 0.2075,-0.625 0.25375,-0.95 0.14125,-0.98625 -0.86,-1.9175 -1.91625,-1.9175 -0.49375,0 -0.98125,0.20125 -1.33375,0.5375 l -17.55625,12.2125 17.55625,12.67875 c 0.3525,0.33625 0.84,0.53875 1.33375,0.53875 1.05625,0 2.01125,-0.86125 1.9175,-1.9175 -0.0288,-0.32875 -0.0975,-0.66625 -0.255,-0.95125 l -1.795,-5.415 40.5725,-0.0562 0,-9.5425 z" />
  </g>
</svg>
