<?xml version="1.0" encoding="UTF-8" standalone="no"?>
<!-- Created with Inkscape (http://www.inkscape.org/) -->

<svg
   xmlns:dc="http://purl.org/dc/elements/1.1/"
   xmlns:cc="http://creativecommons.org/ns#"
   xmlns:rdf="http://www.w3.org/1999/02/22-rdf-syntax-ns#"
   xmlns:svg="http://www.w3.org/2000/svg"
   xmlns="http://www.w3.org/2000/svg"
   xmlns:sodipodi="http://sodipodi.sourceforge.net/DTD/sodipodi-0.dtd"
   xmlns:inkscape="http://www.inkscape.org/namespaces/inkscape"
   width="75.052399"
   height="75.056252"
   id="svg11138"
   version="1.1"
   inkscape:version="0.48.1 "
   sodipodi:docname="New document 77">
  <defs
     id="defs11140" />
  <sodipodi:namedview
     id="base"
     pagecolor="#ffffff"
     bordercolor="#666666"
     borderopacity="1.0"
     inkscape:pageopacity="0.0"
     inkscape:pageshadow="2"
     inkscape:zoom="0.35"
     inkscape:cx="32.526201"
     inkscape:cy="-31.043303"
     inkscape:document-units="px"
     inkscape:current-layer="layer1"
     showgrid="false"
     fit-margin-top="0"
     fit-margin-left="0"
     fit-margin-right="0"
     fit-margin-bottom="0"
     inkscape:window-width="469"
     inkscape:window-height="403"
     inkscape:window-x="175"
     inkscape:window-y="175"
     inkscape:window-maximized="0" />
  <metadata
     id="metadata11143">
    <rdf:RDF>
      <cc:Work
         rdf:about="">
        <dc:format>image/svg+xml</dc:format>
        <dc:type
           rdf:resource="http://purl.org/dc/dcmitype/StillImage" />
        <dc:title></dc:title>
      </cc:Work>
    </rdf:RDF>
  </metadata>
  <g
     inkscape:label="Layer 1"
     inkscape:groupmode="layer"
     id="layer1"
     transform="translate(-342.4738,-426.26263)">
    <path
       inkscape:connector-curvature="0"
       id="path3283"
       style="fill:#fccf34;fill-opacity:1;fill-rule:nonzero;stroke:none"
       d="m 416.00632,460.87513 -33.08625,-33.08375 c -0.76625,-0.76875 -1.8275,-1.21625 -2.9175,-1.21625 -1.08625,0 -2.1475,0.4475 -2.92125,1.21625 l -33.08626,33.08375 c -0.76875,0.77125 -1.21125,1.82625 -1.20875,2.92 0.005,1.08625 0.4425,2.15 1.20875,2.9175 l 33.08626,33.0825 c 0.76625,0.7675 1.84,1.20875 2.92125,1.21125 1.0825,-0.002 2.15625,-0.44375 2.9175,-1.21125 l 33.08625,-33.08125 c 0.99125,-0.99125 1.41375,-2.4825 1.11125,-3.8475 -0.17875,-0.78875 -0.6125,-1.37125 -1.11125,-1.99125" />
    <path
       inkscape:connector-curvature="0"
       id="path3287"
       style="fill:none;stroke:#231f20;stroke-width:0.625;stroke-linecap:butt;stroke-linejoin:miter;stroke-miterlimit:4;stroke-opacity:1;stroke-dasharray:none"
       d="m 416.00632,460.87513 -33.08625,-33.08375 c -0.76625,-0.76875 -1.8275,-1.21625 -2.9175,-1.21625 -1.08625,0 -2.1475,0.4475 -2.92125,1.21625 l -33.08626,33.08375 c -0.76875,0.77125 -1.21125,1.82625 -1.20875,2.92 0.005,1.08625 0.4425,2.15 1.20875,2.9175 l 33.08626,33.0825 c 0.76625,0.7675 1.84,1.20875 2.92125,1.21125 1.0825,-0.002 2.15625,-0.44375 2.9175,-1.21125 l 33.08625,-33.08125 c 0.99125,-0.99125 1.41375,-2.4825 1.11125,-3.8475 -0.17875,-0.78875 -0.6125,-1.37125 -1.11125,-1.99125 z" />
    <path
       inkscape:connector-curvature="0"
       id="path3291"
       style="fill:#231f20;fill-opacity:1;fill-rule:evenodd;stroke:none"
       d="m 415.18882,465.89638 -33.08375,33.08125 c -0.55625,0.55375 -1.31875,0.87125 -2.1025,0.87125 -0.78375,0 -1.5425,-0.3175 -2.09875,-0.87125 l -33.09626,-33.08375 c -0.54875,-0.54875 -0.86125,-1.32 -0.86125,-2.09875 0,-0.78 0.3125,-1.55125 0.86125,-2.1025 l 33.09626,-33.09125 c 0.55125,-0.54875 1.32,-0.86125 2.09875,-0.86125 0.77875,0 1.55125,0.3125 2.1025,0.86125 l 33.08625,33.09375 c 0.55125,0.55625 0.86625,1.31625 0.86625,2.1 0,0.7825 -0.315,1.545 -0.86875,2.10125" />
    <path
       inkscape:connector-curvature="0"
       id="path3295"
       style="fill:#fccf34;fill-opacity:1;fill-rule:evenodd;stroke:none"
       d="m 414.04882,464.75388 c 0.25125,-0.24875 0.3975,-0.6075 0.3975,-0.95875 0,-0.3475 -0.14625,-0.71625 -0.3975,-0.965 l -33.08625,-33.08625 c -0.24875,-0.24625 -0.6075,-0.3925 -0.96,-0.3925 -0.34625,0 -0.715,0.14625 -0.96375,0.3925 l -33.08876,33.08625 c -0.25125,0.25125 -0.3875,0.61 -0.3875,0.9625 0.002,0.35375 0.13875,0.7075 0.3875,0.95875 l 33.08876,33.09125 c 0.25125,0.24875 0.6175,0.395 0.96375,0.395 0.3525,0 0.71375,-0.14625 0.96,-0.395 l 33.08625,-33.08875 z" />
    <path
       inkscape:connector-curvature="0"
       id="path3299"
       style="fill:#231f20;fill-opacity:1;fill-rule:evenodd;stroke:none"
       d="m 396.19507,458.21138 c 0,1.2275 -0.29125,2.23125 -0.84,2.7825 -0.26125,0.25875 -0.5525,0.35375 -1.0375,0.35375 l -1.455,0 0,-6.27625 1.65,0 c 0.3875,0 0.71,0.16125 0.9375,0.38625 0.45375,0.4875 0.745,1.5225 0.745,2.75375 m 1.48875,0 c 0,-1.81375 -0.54875,-3.27125 -1.52125,-4.11125 -0.485,-0.38875 -0.8425,-0.48625 -1.78,-0.48625 l -2.9775,0 0,9.22375 2.81625,0 0.51875,0 c 0.4825,-0.0312 0.97125,-0.1925 1.325,-0.5175 1.0375,-0.80875 1.61875,-2.26625 1.61875,-4.10875 m -7.8,4.62625 0,-1.49 -4.2725,0 0,-2.52375 2.685,0 0,-1.48625 -2.685,0 0,-2.26625 3.98125,0 0,-1.4575 -5.43875,0 0,9.22375 5.73,0 z m -7.25125,0 0,-1.49 -4.27,0 0,-2.52375 2.685,0 0,-1.48625 -2.685,0 0,-2.26625 3.98,0 0,-1.4575 -5.4375,0 0,9.22375 5.7275,0 z m -8.57625,-6.63625 c 0,0.39125 -0.2275,0.81125 -0.55,0.9725 -0.25875,0.12875 -0.4225,0.16375 -0.87375,0.16375 l -1.90875,0 0,-2.26625 1.90875,0 c 0.45125,0 0.615,0.0312 0.87375,0.16125 0.3225,0.195 0.55,0.58375 0.55,0.96875 m 1.48875,0 c 0,-0.9375 -0.615,-1.90875 -1.42375,-2.2975 -0.45375,-0.22375 -0.94,-0.29 -1.68375,-0.29 l -3.17125,0 0,9.22375 1.4575,0 0,-4.01375 1.71375,0 c 0.7125,0 1.26375,-0.13 1.68375,-0.3225 0.80875,-0.35625 1.42375,-1.3275 1.42375,-2.3 m -7.8,3.9825 c 0,-3.62625 -4.33625,-2.4925 -4.4675,-4.20625 -0.0638,-0.8425 0.74375,-1.10125 1.425,-1.07 1.035,0.0325 1.3575,0.81125 1.3575,0.81125 l 1.29625,-0.38875 c -0.45375,-1.135 -1.3275,-1.8775 -2.62125,-1.8775 -1.65125,0 -2.88125,0.67875 -2.88125,2.4925 0,1.52125 1.23,2.07 1.78,2.2975 1.19875,0.48625 2.62125,0.67875 2.62125,1.90875 0,0.7775 -0.58,1.36 -1.4225,1.36 -0.87375,0 -1.5875,-0.485 -1.975,-1.36 l -1.3925,0.51875 c 0.61625,1.39125 1.78,2.33625 3.3675,2.33625 0.77625,0 1.48875,-0.26625 2.00625,-0.71875 0.58125,-0.5175 0.90625,-1.26125 0.90625,-2.10375" />
    <path
       inkscape:connector-curvature="0"
       id="path3303"
       style="fill:#231f20;fill-opacity:1;fill-rule:evenodd;stroke:none"
       d="m 394.69007,470.05388 c 0,0.38875 -0.22625,0.81125 -0.55125,0.9725 -0.25875,0.12875 -0.42,0.16125 -0.87375,0.16125 l -1.91,0 0,-2.26625 1.91,0 c 0.45375,0 0.615,0.0312 0.87375,0.16125 0.325,0.195 0.55125,0.58375 0.55125,0.97125 m 1.4875,0 c 0,-0.9375 -0.6125,-1.90875 -1.42375,-2.2975 -0.45375,-0.22625 -0.9375,-0.2925 -1.68125,-0.2925 l -3.1725,0 0,9.22625 1.455,0 0,-4.01375 1.7175,0 c 0.71,0 1.25875,-0.13 1.68125,-0.3225 0.81125,-0.35625 1.42375,-1.3275 1.42375,-2.3 m -8.47875,6.63625 0,-9.22625 -1.4575,0 -2.13625,5.18125 -2.13625,-5.18125 -1.455,0 0,9.22625 1.455,0 0,-5.3425 2.13625,5.3425 2.13625,-5.3425 0,5.3425 1.4575,0 z m -9.35375,-3.30125 0,-5.925 -1.4575,0 0,5.925 c 0,1.19625 -0.67875,1.9725 -1.68375,1.9725 -1.00125,0 -1.6825,-0.77625 -1.6825,-1.9725 l 0,-5.925 -1.455,0 0,5.925 c 0,0.71375 0.16125,1.36 0.42,1.91 0.485,0.905 1.58625,1.56 2.7175,1.56 1.135,0 2.23375,-0.655 2.72125,-1.56 0.25625,-0.55 0.42,-1.19625 0.42,-1.91 m -8.44875,3.30125 0,-9.22625 -1.45625,0 0,3.72375 -3.36625,0 0,-3.72375 -1.455,0 0,9.22625 1.455,0 0,-4.01375 3.36625,0 0,4.01375 1.45625,0 z" />
  </g>
</svg>
