<?xml version="1.0" encoding="UTF-8" standalone="no"?>
<!-- Created with Inkscape (http://www.inkscape.org/) -->

<svg
   xmlns:dc="http://purl.org/dc/elements/1.1/"
   xmlns:cc="http://creativecommons.org/ns#"
   xmlns:rdf="http://www.w3.org/1999/02/22-rdf-syntax-ns#"
   xmlns:svg="http://www.w3.org/2000/svg"
   xmlns="http://www.w3.org/2000/svg"
   xmlns:sodipodi="http://sodipodi.sourceforge.net/DTD/sodipodi-0.dtd"
   xmlns:inkscape="http://www.inkscape.org/namespaces/inkscape"
   width="264.84375"
   height="88.710938"
   id="svg5370"
   version="1.1"
   inkscape:version="0.48.1 "
   sodipodi:docname="New document 33">
  <defs
     id="defs5372" />
  <sodipodi:namedview
     id="base"
     pagecolor="#ffffff"
     bordercolor="#666666"
     borderopacity="1.0"
     inkscape:pageopacity="0.0"
     inkscape:pageshadow="2"
     inkscape:zoom="0.35"
     inkscape:cx="-18.30054"
     inkscape:cy="-92.78879"
     inkscape:document-units="px"
     inkscape:current-layer="layer1"
     showgrid="false"
     fit-margin-top="0"
     fit-margin-left="0"
     fit-margin-right="0"
     fit-margin-bottom="0"
     inkscape:window-width="469"
     inkscape:window-height="403"
     inkscape:window-x="100"
     inkscape:window-y="100"
     inkscape:window-maximized="0" />
  <metadata
     id="metadata5375">
    <rdf:RDF>
      <cc:Work
         rdf:about="">
        <dc:format>image/svg+xml</dc:format>
        <dc:type
           rdf:resource="http://purl.org/dc/dcmitype/StillImage" />
        <dc:title></dc:title>
      </cc:Work>
    </rdf:RDF>
  </metadata>
  <g
     inkscape:label="Layer 1"
     inkscape:groupmode="layer"
     id="layer1"
     transform="translate(-393.30054,-350.86245)">
    <g
       id="g3605"
       transform="matrix(1.25,0,0,-1.25,657.83179,433.75308)">
      <path
         d="m 0,0 c 0,-2.433 -1.972,-4.405 -4.405,-4.405 l -202.58,0 c -2.431,0 -4.403,1.972 -4.403,4.405 l 0,61.655 c 0,2.432 1.972,4.404 4.403,4.404 l 202.58,0 C -1.972,66.059 0,64.087 0,61.655 L 0,0 z"
         style="fill:#fccf34;fill-opacity:1;fill-rule:nonzero;stroke:none"
         id="path3607"
         inkscape:connector-curvature="0" />
    </g>
    <g
       id="g3609"
       transform="matrix(1.25,0,0,-1.25,657.83179,433.75308)">
      <path
         d="m 0,0 c 0,-2.433 -1.972,-4.405 -4.405,-4.405 l -202.58,0 c -2.431,0 -4.403,1.972 -4.403,4.405 l 0,61.655 c 0,2.432 1.972,4.404 4.403,4.404 l 202.58,0 C -1.972,66.059 0,64.087 0,61.655 L 0,0 z"
         style="fill:none;stroke:#231f20;stroke-width:0.5;stroke-linecap:butt;stroke-linejoin:miter;stroke-miterlimit:4;stroke-opacity:1;stroke-dasharray:none"
         id="path3611"
         inkscape:connector-curvature="0" />
    </g>
    <g
       id="g3613"
       transform="matrix(1.25,0,0,-1.25,654.16054,433.75308)">
      <path
         d="m 0,0 c 0,-0.81 -0.658,-1.469 -1.468,-1.469 l -202.58,0 c -0.808,0 -1.468,0.659 -1.468,1.469 l 0,61.655 c 0,0.81 0.66,1.468 1.468,1.468 l 202.58,0 C -0.658,63.123 0,62.465 0,61.655 L 0,0 z m -1.468,64.958 -202.58,0 c -1.82,0 -3.302,-1.482 -3.302,-3.303 l 0,-61.655 c 0,-1.822 1.482,-3.304 3.302,-3.304 l 202.58,0 c 1.822,0 3.303,1.482 3.303,3.304 l 0,61.655 c 0,1.821 -1.481,3.303 -3.303,3.303"
         style="fill:#231f20;fill-opacity:1;fill-rule:nonzero;stroke:none"
         id="path3615"
         inkscape:connector-curvature="0" />
    </g>
    <g
       id="g3617"
       transform="matrix(1.25,0,0,-1.25,429.56229,371.92433)">
      <path
         d="m 0,0 -8.359,0 0,-2.937 4.689,0 0,-2.65 -4.689,0 0,-6.443 -2.651,0 0,14.68 L 0,2.65 0,0 z"
         style="fill:#231f20;fill-opacity:1;fill-rule:nonzero;stroke:none"
         id="path3619"
         inkscape:connector-curvature="0" />
    </g>
    <g
       id="g3621"
       transform="matrix(1.25,0,0,-1.25,444.07392,374.25558)">
      <path
         d="m 0,0 c 0,0.48 -0.203,0.911 -0.608,1.292 -0.406,0.382 -0.853,0.573 -1.341,0.573 l -4.514,0 0,-3.67 4.543,0 c 0.488,0 0.931,0.18 1.326,0.544 C -0.197,-0.9 0,-0.479 0,0 m 0.164,-3.969 2.613,-6.196 -2.875,0 -2.419,5.709 -3.946,0 0,-5.709 -2.65,0 0,14.68 7.236,0 C -0.643,4.515 0.418,4.08 1.309,3.209 2.199,2.338 2.64,1.271 2.63,0.008 2.62,-0.892 2.393,-1.692 1.947,-2.392 1.502,-3.091 0.908,-3.617 0.164,-3.969"
         style="fill:#231f20;fill-opacity:1;fill-rule:nonzero;stroke:none"
         id="path3623"
         inkscape:connector-curvature="0" />
    </g>
    <g
       id="g3625"
       transform="matrix(1.25,0,0,-1.25,464.97729,386.96183)">
      <path
         d="m 0,0 -11.01,0 0,14.68 10.496,0 0,-2.65 -7.845,0 0,-2.937 4.689,0 0,-2.65 -4.689,0 0,-3.791 L 0,2.652 0,0 z"
         style="fill:#231f20;fill-opacity:1;fill-rule:nonzero;stroke:none"
         id="path3627"
         inkscape:connector-curvature="0" />
    </g>
    <g
       id="g3629"
       transform="matrix(1.25,0,0,-1.25,482.40892,386.96183)">
      <path
         d="m 0,0 -11.01,0 0,14.68 10.496,0 0,-2.65 -7.845,0 0,-2.937 4.689,0 0,-2.65 -4.689,0 0,-3.791 L 0,2.652 0,0 z"
         style="fill:#231f20;fill-opacity:1;fill-rule:nonzero;stroke:none"
         id="path3631"
         inkscape:connector-curvature="0" />
    </g>
    <g
       id="g3633"
       transform="matrix(1.25,0,0,-1.25,494.17304,375.47433)">
      <path
         d="m 0,0 -2.495,-9.19 -2.643,0 -2.642,14.68 2.686,0 1.526,-8.558 2.334,8.558 2.467,0 2.334,-8.558 1.527,8.558 2.686,0 -2.642,-14.68 -2.643,0 L 0,0 z"
         style="fill:#231f20;fill-opacity:1;fill-rule:nonzero;stroke:none"
         id="path3635"
         inkscape:connector-curvature="0" />
    </g>
    <g
       id="g3637"
       transform="matrix(1.25,0,0,-1.25,517.34804,379.44308)">
      <path
         d="M 0,0 -2.099,5.039 -4.213,0 0,0 z m 5.389,-6.015 -2.864,0 -1.409,3.365 -6.43,0 -1.409,-3.365 -2.863,0 6.137,14.68 2.685,0 6.153,-14.68 z"
         style="fill:#231f20;fill-opacity:1;fill-rule:nonzero;stroke:none"
         id="path3639"
         inkscape:connector-curvature="0" />
    </g>
    <g
       id="g3641"
       transform="matrix(1.25,0,0,-1.25,544.26679,368.61183)">
      <path
         d="m 0,0 -6.165,-8.999 0,-5.681 -2.65,0 0,5.681 -6.159,8.999 3.098,0 4.39,-6.253 L -3.2,0 0,0 z"
         style="fill:#231f20;fill-opacity:1;fill-rule:nonzero;stroke:none"
         id="path3643"
         inkscape:connector-curvature="0" />
    </g>
    <g
       id="g3645"
       transform="matrix(1.25,0,0,-1.25,579.47679,386.96183)">
      <path
         d="m 0,0 -11.01,0 0,14.68 10.497,0 0,-2.65 -7.845,0 0,-2.937 4.688,0 0,-2.65 -4.688,0 0,-3.791 L 0,2.652 0,0 z"
         style="fill:#231f20;fill-opacity:1;fill-rule:nonzero;stroke:none"
         id="path3647"
         inkscape:connector-curvature="0" />
    </g>
    <g
       id="g3649"
       transform="matrix(1.25,0,0,-1.25,598.00554,386.96183)">
      <path
         d="m 0,0 -2.651,0 c -1.19,1.782 -3.385,5.075 -6.585,9.88 l 0,-9.88 -2.65,0 0,14.68 2.642,0 L -2.638,4.771 -2.651,14.68 0,14.68 0,0 z"
         style="fill:#231f20;fill-opacity:1;fill-rule:nonzero;stroke:none"
         id="path3651"
         inkscape:connector-curvature="0" />
    </g>
    <g
       id="g3653"
       transform="matrix(1.25,0,0,-1.25,614.3268,377.78683)">
      <path
         d="M 0,0 C 0,1.32 -0.433,2.431 -1.296,3.334 -2.159,4.237 -3.239,4.69 -4.537,4.69 l -2.049,0 0,-9.378 2.049,0 c 1.307,0 2.39,0.441 3.249,1.326 C -0.43,-2.479 0,-1.358 0,0 M 2.65,0 C 2.65,-2.026 1.953,-3.756 0.558,-5.189 -0.835,-6.623 -2.535,-7.34 -4.54,-7.34 l -4.696,0 0,14.68 4.696,0 c 2.005,0 3.705,-0.717 5.098,-2.15 C 1.953,3.756 2.65,2.027 2.65,0"
         style="fill:#231f20;fill-opacity:1;fill-rule:nonzero;stroke:none"
         id="path3655"
         inkscape:connector-curvature="0" />
    </g>
    <g
       id="g3657"
       transform="matrix(1.25,0,0,-1.25,635.04429,371.51433)">
      <path
         d="m 0,0 -1.995,-1.642 c -0.724,0.556 -1.242,0.916 -1.555,1.082 -0.617,0.331 -1.282,0.496 -1.996,0.496 -0.616,0 -1.162,-0.164 -1.636,-0.491 -0.474,-0.327 -0.711,-0.691 -0.711,-1.093 0.009,-0.8 1.09,-1.412 3.241,-1.833 1.73,-0.342 3.045,-0.948 3.945,-1.818 0.782,-0.773 1.173,-1.657 1.173,-2.654 0,-1.184 -0.524,-2.23 -1.57,-3.139 -1.106,-0.939 -2.451,-1.408 -4.036,-1.408 -1.545,0 -2.783,0.245 -3.712,0.733 -0.735,0.391 -1.59,1.139 -2.569,2.244 l 2.141,1.628 c 0.479,-0.632 0.972,-1.095 1.481,-1.386 0.694,-0.378 1.578,-0.569 2.654,-0.569 0.83,0 1.531,0.191 2.103,0.571 0.571,0.381 0.858,0.827 0.858,1.334 0,0.86 -0.983,1.486 -2.948,1.877 -3.608,0.723 -5.412,2.174 -5.412,4.353 0,1.251 0.494,2.276 1.484,3.077 0.949,0.762 2.109,1.144 3.48,1.144 1.312,0 2.413,-0.235 3.304,-0.704 C -1.679,1.489 -0.92,0.888 0,0"
         style="fill:#231f20;fill-opacity:1;fill-rule:nonzero;stroke:none"
         id="path3659"
         inkscape:connector-curvature="0" />
    </g>
    <g
       id="g3661"
       transform="matrix(1.25,0,0,-1.25,486.78429,422.74433)">
      <path
         d="m 0,0 -3.182,0 0,13.036 -2.1,0 0,2.643 c 0.423,0.117 0.805,0.259 1.145,0.423 0.81,0.399 1.338,0.904 1.584,1.515 L 0,17.617 0,0 z"
         style="fill:#231f20;fill-opacity:1;fill-rule:nonzero;stroke:none"
         id="path3663"
         inkscape:connector-curvature="0" />
    </g>
    <g
       id="g3665"
       transform="matrix(1.25,0,0,-1.25,527.60929,420.90933)">
      <path
         d="m 0,0 -2.651,0 0,8.661 -4.25,-8.661 -4.251,8.661 0,-8.661 -2.651,0 0,14.681 2.641,0 4.256,-8.648 4.255,8.648 2.651,0 L 0,0 z"
         style="fill:#231f20;fill-opacity:1;fill-rule:nonzero;stroke:none"
         id="path3667"
         inkscape:connector-curvature="0" />
    </g>
    <path
       d="m 535.68867,420.90908 -3.31375,0 0,-18.35125 3.31375,0 0,18.35125 z"
       style="fill:#231f20;fill-opacity:1;fill-rule:nonzero;stroke:none"
       id="path3669"
       inkscape:connector-curvature="0" />
    <g
       id="g3671"
       transform="matrix(1.25,0,0,-1.25,554.21054,420.90933)">
      <path
         d="m 0,0 -11.01,0 0,14.681 2.651,0 0,-12.03 L 0,2.651 0,0 z"
         style="fill:#231f20;fill-opacity:1;fill-rule:nonzero;stroke:none"
         id="path3673"
         inkscape:connector-curvature="0" />
    </g>
    <g
       id="g3675"
       transform="matrix(1.25,0,0,-1.25,571.09179,420.90933)">
      <path
         d="m 0,0 -11.01,0 0,14.681 10.496,0 0,-2.651 -7.845,0 0,-2.937 4.689,0 0,-2.65 -4.689,0 0,-3.792 L 0,2.651 0,0 z"
         style="fill:#231f20;fill-opacity:1;fill-rule:nonzero;stroke:none"
         id="path3677"
         inkscape:connector-curvature="0" />
    </g>
  </g>
</svg>
