<?xml version="1.0" encoding="UTF-8" standalone="no"?>
<!-- Created with Inkscape (http://www.inkscape.org/) -->

<svg
   xmlns:dc="http://purl.org/dc/elements/1.1/"
   xmlns:cc="http://creativecommons.org/ns#"
   xmlns:rdf="http://www.w3.org/1999/02/22-rdf-syntax-ns#"
   xmlns:svg="http://www.w3.org/2000/svg"
   xmlns="http://www.w3.org/2000/svg"
   xmlns:sodipodi="http://sodipodi.sourceforge.net/DTD/sodipodi-0.dtd"
   xmlns:inkscape="http://www.inkscape.org/namespaces/inkscape"
   width="107.54549"
   height="107.54245"
   id="svg5776"
   version="1.1"
   inkscape:version="0.48.1 "
   sodipodi:docname="New document 39">
  <defs
     id="defs5778">
    <clipPath
       clipPathUnits="userSpaceOnUse"
       id="clipPath3841">
      <path
         inkscape:connector-curvature="0"
         d="m 27.125,314.737 513.435,0 0,423.263 -513.435,0 0,-423.263 z"
         id="path3843" />
    </clipPath>
  </defs>
  <sodipodi:namedview
     id="base"
     pagecolor="#ffffff"
     bordercolor="#666666"
     borderopacity="1.0"
     inkscape:pageopacity="0.0"
     inkscape:pageshadow="2"
     inkscape:zoom="0.35"
     inkscape:cx="85.904512"
     inkscape:cy="42.35283"
     inkscape:document-units="px"
     inkscape:current-layer="layer1"
     showgrid="false"
     fit-margin-top="0"
     fit-margin-left="0"
     fit-margin-right="0"
     fit-margin-bottom="0"
     inkscape:window-width="469"
     inkscape:window-height="403"
     inkscape:window-x="521"
     inkscape:window-y="68"
     inkscape:window-maximized="0" />
  <metadata
     id="metadata5781">
    <rdf:RDF>
      <cc:Work
         rdf:about="">
        <dc:format>image/svg+xml</dc:format>
        <dc:type
           rdf:resource="http://purl.org/dc/dcmitype/StillImage" />
        <dc:title></dc:title>
      </cc:Work>
    </rdf:RDF>
  </metadata>
  <g
     inkscape:label="Layer 1"
     inkscape:groupmode="layer"
     id="layer1"
     transform="translate(-289.09549,-467.17257)">
    <g
       transform="matrix(1.25,0,0,-1.25,19.474643,994.14445)"
       id="g3837">
      <g
         id="g3839"
         clip-path="url(#clipPath3841)">
        <g
           id="g3845"
           transform="translate(261.4805,336.9498)">
          <path
             inkscape:connector-curvature="0"
             d="m 0,0 c -1.531,-1.532 -4.016,-1.532 -5.549,0 l -38.844,38.843 c -1.533,1.534 -1.533,4.018 0,5.551 l 38.844,38.843 c 1.533,1.533 4.018,1.533 5.549,0 L 38.844,44.394 c 1.533,-1.533 1.533,-4.017 0,-5.551 L 0,0 z"
             style="fill:#fccf34;fill-opacity:1;fill-rule:nonzero;stroke:none"
             id="path3847" />
        </g>
        <g
           id="g3849"
           transform="translate(261.4805,336.9498)">
          <path
             inkscape:connector-curvature="0"
             d="m 0,0 c -1.531,-1.532 -4.016,-1.532 -5.549,0 l -38.844,38.843 c -1.533,1.534 -1.533,4.018 0,5.551 l 38.844,38.843 c 1.533,1.533 4.018,1.533 5.549,0 L 38.844,44.394 c 1.533,-1.533 1.533,-4.017 0,-5.551 L 0,0 z"
             style="fill:none;stroke:#231f20;stroke-width:0.5;stroke-linecap:butt;stroke-linejoin:miter;stroke-miterlimit:4;stroke-opacity:1;stroke-dasharray:none"
             id="path3851" />
        </g>
        <g
           id="g3853"
           transform="translate(298.4745,377.6428)">
          <path
             inkscape:connector-curvature="0"
             d="m 0,0 -38.844,-38.844 c -0.509,-0.509 -1.339,-0.509 -1.849,0 L -79.537,0 c -0.51,0.512 -0.51,1.342 0,1.852 l 38.844,38.843 c 0.51,0.51 1.34,0.51 1.849,0 L 0,1.852 C 0.51,1.342 0.51,0.512 0,0 m 1.156,3.008 -38.843,38.843 c -1.149,1.147 -3.014,1.147 -4.162,0 L -80.693,3.008 c -1.147,-1.149 -1.147,-3.016 0,-4.162 l 38.844,-38.844 c 1.148,-1.148 3.015,-1.148 4.162,0 L 1.156,-1.154 c 1.149,1.146 1.149,3.013 0,4.162"
             style="fill:#231f20;fill-opacity:1;fill-rule:nonzero;stroke:none"
             id="path3855" />
        </g>
        <g
           id="g3857"
           transform="translate(231.6075,374.0358)">
          <path
             inkscape:connector-curvature="0"
             d="m 0,0 -4.67,0.009 0,9.157 4.67,0 0,-1.282 -3.389,0 0,-2.378 2.016,0 0,-1.282 -2.016,0 0,-2.933 L 0,1.291 0,0 z"
             style="fill:#231f20;fill-opacity:1;fill-rule:nonzero;stroke:none"
             id="path3859" />
        </g>
        <g
           id="g3861"
           transform="translate(237.8305,374.0448)">
          <path
             inkscape:connector-curvature="0"
             d="M 0,0 -1.373,0 -2.702,3.178 -4.028,0 l -1.375,0 2.006,4.807 -1.832,4.35 1.383,0 1.144,-2.729 1.118,2.729 1.373,0 L -2.024,4.807 0,0 z"
             style="fill:#231f20;fill-opacity:1;fill-rule:nonzero;stroke:none"
             id="path3863" />
        </g>
        <g
           id="g3865"
           transform="translate(242.9575,380.5858)">
          <path
             inkscape:connector-curvature="0"
             d="m 0,0 c 0,0.797 -0.315,1.243 -0.942,1.334 l -1.619,0 0,-2.652 1.619,0 C -0.315,-1.287 0,-0.847 0,0 m 1.281,0 c 0,-1.074 -0.379,-1.828 -1.135,-2.259 -0.391,-0.227 -0.775,-0.34 -1.152,-0.34 l -1.555,0 0,-3.942 -1.281,0 0,9.157 2.836,0 c 0.384,0 0.767,-0.11 1.152,-0.33 C 0.902,1.854 1.281,1.09 1.281,0"
             style="fill:#231f20;fill-opacity:1;fill-rule:nonzero;stroke:none"
             id="path3867" />
        </g>
        <g
           id="g3869"
           transform="translate(249.9165,380.7308)">
          <path
             inkscape:connector-curvature="0"
             d="m 0,0 c 0,0.756 -0.315,1.152 -0.944,1.189 l -1.619,0 0,-2.378 1.619,0 C -0.315,-1.154 0,-0.758 0,0 m 1.279,-6.686 -1.326,0 -1.207,4.215 -1.309,0 0,-4.215 -1.281,0 0,9.157 2.836,0 C -0.52,2.428 -0.245,2.4 -0.184,2.389 0.236,2.291 0.566,2.09 0.804,1.783 1.121,1.375 1.279,0.779 1.279,-0.002 c 0,-1.129 -0.422,-1.873 -1.268,-2.234 l 1.268,-4.45 z"
             style="fill:#231f20;fill-opacity:1;fill-rule:nonzero;stroke:none"
             id="path3871" />
        </g>
        <g
           id="g3873"
           transform="translate(257.4255,374.0358)">
          <path
             inkscape:connector-curvature="0"
             d="m 0,0 -4.67,0.009 0,9.157 4.67,0 0,-1.282 -3.388,0 0,-2.378 2.015,0 0,-1.282 -2.015,0 0,-2.933 L 0,1.291 0,0 z"
             style="fill:#231f20;fill-opacity:1;fill-rule:nonzero;stroke:none"
             id="path3875" />
        </g>
        <g
           id="g3877"
           transform="translate(263.6425,376.5448)">
          <path
             inkscape:connector-curvature="0"
             d="m 0,0 c 0,-0.646 -0.168,-1.205 -0.504,-1.675 -0.433,-0.61 -1.072,-0.914 -1.92,-0.914 -0.953,0 -1.662,0.304 -2.133,0.914 -0.377,0.482 -0.566,1.089 -0.566,1.822 l 1.279,0 c 0,-0.531 0.168,-0.926 0.504,-1.182 0.25,-0.183 0.555,-0.275 0.916,-0.275 0.731,0 1.098,0.437 1.098,1.31 0,0.684 -0.297,1.241 -0.889,1.674 -0.549,0.342 -1.101,0.682 -1.656,1.018 -0.594,0.457 -0.889,1.055 -0.889,1.795 0,0.48 0.135,0.924 0.403,1.326 0.414,0.623 1.08,0.934 1.996,0.934 0.963,0 1.646,-0.36 2.049,-1.081 C -0.146,5.368 -0.043,5.004 0,4.579 l -1.281,0 c 0,0.152 -0.053,0.304 -0.156,0.457 -0.182,0.287 -0.491,0.431 -0.924,0.431 -0.74,0 -1.11,-0.328 -1.11,-0.98 0,-0.36 0.299,-0.721 0.899,-1.08 C -1.682,2.881 -1.123,2.51 -0.898,2.289 -0.299,1.698 0,0.934 0,0"
             style="fill:#231f20;fill-opacity:1;fill-rule:nonzero;stroke:none"
             id="path3879" />
        </g>
        <g
           id="g3881"
           transform="translate(269.8675,376.5448)">
          <path
             inkscape:connector-curvature="0"
             d="m 0,0 c 0,-0.646 -0.168,-1.205 -0.502,-1.675 -0.434,-0.61 -1.074,-0.914 -1.922,-0.914 -0.951,0 -1.662,0.304 -2.131,0.914 -0.379,0.482 -0.568,1.089 -0.568,1.822 l 1.281,0 c 0,-0.531 0.168,-0.926 0.504,-1.182 0.25,-0.183 0.554,-0.275 0.914,-0.275 0.732,0 1.098,0.437 1.098,1.31 0,0.684 -0.295,1.241 -0.887,1.674 -0.551,0.342 -1.102,0.682 -1.658,1.018 -0.592,0.457 -0.889,1.055 -0.889,1.795 0,0.48 0.135,0.924 0.404,1.326 0.414,0.623 1.08,0.934 1.994,0.934 0.965,0 1.649,-0.36 2.051,-1.081 C -0.147,5.368 -0.043,5.004 0,4.579 l -1.28,0 c 0,0.152 -0.052,0.304 -0.156,0.457 -0.183,0.287 -0.492,0.431 -0.926,0.431 -0.738,0 -1.107,-0.328 -1.107,-0.98 0,-0.36 0.299,-0.721 0.896,-1.08 C -1.682,2.881 -1.123,2.51 -0.897,2.289 -0.299,1.698 0,0.934 0,0"
             style="fill:#231f20;fill-opacity:1;fill-rule:nonzero;stroke:none"
             id="path3883" />
        </g>
        <g
           id="g3885"
           transform="translate(277.6565,383.2018)">
          <path
             inkscape:connector-curvature="0"
             d="m 0,0 -1.602,-9.157 -1.017,0 -0.86,4.854 -0.861,-4.854 -1.016,0 L -6.959,0 -5.676,0 -4.844,-4.735 -4.01,0 -2.948,0 -2.115,-4.735 -1.281,0 0,0 z"
             style="fill:#231f20;fill-opacity:1;fill-rule:nonzero;stroke:none"
             id="path3887" />
        </g>
        <g
           id="g3889"
           transform="translate(281.8495,377.7968)">
          <path
             inkscape:connector-curvature="0"
             d="M 0,0 -0.715,2.979 -1.437,0 0,0 z m 2.215,-3.752 -1.309,0 -0.595,2.471 -2.059,0 -0.596,-2.471 -1.3,0 2.216,9.157 1.428,0 2.215,-9.157 z"
             style="fill:#231f20;fill-opacity:1;fill-rule:nonzero;stroke:none"
             id="path3891" />
        </g>
        <g
           id="g3893"
           transform="translate(290.4745,383.2018)">
          <path
             inkscape:connector-curvature="0"
             d="m 0,0 -2.291,-4.936 0,-4.221 -1.279,0 0,4.221 L -5.859,0 -4.478,0 -2.93,-3.315 -1.392,0 0,0 z"
             style="fill:#231f20;fill-opacity:1;fill-rule:nonzero;stroke:none"
             id="path3895" />
        </g>
        <g
           id="g3897"
           transform="translate(250.7425,358.0038)">
          <path
             inkscape:connector-curvature="0"
             d="m 0,0 -4.668,0.01 0,9.156 4.668,0 0,-1.281 -3.389,0 0,-2.379 2.016,0 0,-1.281 -2.016,0 0,-2.934 L 0,1.291 0,0 z"
             style="fill:#231f20;fill-opacity:1;fill-rule:nonzero;stroke:none"
             id="path3899" />
        </g>
        <g
           id="g3901"
           transform="translate(257.4215,358.0138)">
          <path
             inkscape:connector-curvature="0"
             d="m 0,0 -1.281,0 -2.56,5.924 0,-5.924 -1.282,0 0,9.156 1.282,0 L -1.277,3.24 -1.281,9.156 0,9.156 0,0 z"
             style="fill:#231f20;fill-opacity:1;fill-rule:nonzero;stroke:none"
             id="path3903" />
        </g>
        <g
           id="g3905"
           transform="translate(263.2835,362.5878)">
          <path
             inkscape:connector-curvature="0"
             d="m 0,0 c 0,2.2 -0.52,3.301 -1.557,3.301 l -1.006,0 0,-6.603 1.006,0 C -0.52,-3.302 0,-2.201 0,0 m 1.279,0.004 c 0,-1.832 -0.359,-3.129 -1.078,-3.89 -0.44,-0.465 -0.959,-0.698 -1.557,-0.698 l -0.201,0 -2.287,0 0,9.166 2.389,0 c 0.597,0 1.109,-0.195 1.537,-0.586 C 0.881,3.264 1.279,1.932 1.279,0.004"
             style="fill:#231f20;fill-opacity:1;fill-rule:nonzero;stroke:none"
             id="path3907" />
        </g>
        <g
           id="g3909"
           transform="translate(271.0585,360.5138)">
          <path
             inkscape:connector-curvature="0"
             d="m 0,0 c 0,-0.646 -0.168,-1.205 -0.504,-1.676 -0.433,-0.609 -1.074,-0.914 -1.92,-0.914 -0.953,0 -1.662,0.305 -2.133,0.914 -0.376,0.483 -0.566,1.09 -0.566,1.823 l 1.281,0 c 0,-0.532 0.166,-0.926 0.502,-1.182 0.25,-0.184 0.555,-0.275 0.916,-0.275 0.731,0 1.098,0.437 1.098,1.31 0,0.682 -0.297,1.24 -0.889,1.674 -0.549,0.342 -1.101,0.682 -1.656,1.018 -0.594,0.457 -0.889,1.054 -0.889,1.793 0,0.482 0.135,0.925 0.403,1.328 0.414,0.623 1.08,0.933 1.996,0.933 0.963,0 1.646,-0.359 2.049,-1.08 C -0.146,5.367 -0.043,5.004 0,4.578 l -1.281,0 c 0,0.153 -0.053,0.305 -0.156,0.457 -0.184,0.287 -0.491,0.43 -0.924,0.43 -0.74,0 -1.11,-0.326 -1.11,-0.979 0,-0.359 0.299,-0.72 0.899,-1.08 0.89,-0.525 1.449,-0.898 1.674,-1.117 C -0.299,1.697 0,0.934 0,0"
             style="fill:#231f20;fill-opacity:1;fill-rule:nonzero;stroke:none"
             id="path3911" />
        </g>
      </g>
    </g>
  </g>
</svg>
