<?xml version="1.0" encoding="UTF-8" standalone="no"?>
<!-- Created with Inkscape (http://www.inkscape.org/) -->

<svg
   xmlns:dc="http://purl.org/dc/elements/1.1/"
   xmlns:cc="http://creativecommons.org/ns#"
   xmlns:rdf="http://www.w3.org/1999/02/22-rdf-syntax-ns#"
   xmlns:svg="http://www.w3.org/2000/svg"
   xmlns="http://www.w3.org/2000/svg"
   xmlns:sodipodi="http://sodipodi.sourceforge.net/DTD/sodipodi-0.dtd"
   xmlns:inkscape="http://www.inkscape.org/namespaces/inkscape"
   width="264.84375"
   height="88.710938"
   id="svg5510"
   version="1.1"
   inkscape:version="0.48.1 "
   sodipodi:docname="New document 35">
  <defs
     id="defs5512" />
  <sodipodi:namedview
     id="base"
     pagecolor="#ffffff"
     bordercolor="#666666"
     borderopacity="1.0"
     inkscape:pageopacity="0.0"
     inkscape:pageshadow="2"
     inkscape:zoom="0.35"
     inkscape:cx="90.27089"
     inkscape:cy="81.49629"
     inkscape:document-units="px"
     inkscape:current-layer="layer1"
     showgrid="false"
     fit-margin-top="0"
     fit-margin-left="0"
     fit-margin-right="0"
     fit-margin-bottom="0"
     inkscape:window-width="469"
     inkscape:window-height="403"
     inkscape:window-x="150"
     inkscape:window-y="150"
     inkscape:window-maximized="0" />
  <metadata
     id="metadata5515">
    <rdf:RDF>
      <cc:Work
         rdf:about="">
        <dc:format>image/svg+xml</dc:format>
        <dc:type
           rdf:resource="http://purl.org/dc/dcmitype/StillImage" />
        <dc:title></dc:title>
      </cc:Work>
    </rdf:RDF>
  </metadata>
  <g
     inkscape:label="Layer 1"
     inkscape:groupmode="layer"
     id="layer1"
     transform="translate(-284.72911,-525.14753)">
    <g
       id="g3679"
       transform="matrix(1.25,0,0,-1.25,549.26036,608.03816)">
      <path
         d="m 0,0 c 0,-2.433 -1.971,-4.405 -4.405,-4.405 l -202.58,0 c -2.431,0 -4.403,1.972 -4.403,4.405 l 0,61.654 c 0,2.432 1.972,4.404 4.403,4.404 l 202.58,0 C -1.971,66.058 0,64.086 0,61.654 L 0,0 z"
         style="fill:#fccf34;fill-opacity:1;fill-rule:nonzero;stroke:none"
         id="path3681"
         inkscape:connector-curvature="0" />
    </g>
    <g
       id="g3683"
       transform="matrix(1.25,0,0,-1.25,549.26036,608.03816)">
      <path
         d="m 0,0 c 0,-2.433 -1.971,-4.405 -4.405,-4.405 l -202.58,0 c -2.431,0 -4.403,1.972 -4.403,4.405 l 0,61.654 c 0,2.432 1.972,4.404 4.403,4.404 l 202.58,0 C -1.971,66.058 0,64.086 0,61.654 L 0,0 z"
         style="fill:none;stroke:#231f20;stroke-width:0.5;stroke-linecap:butt;stroke-linejoin:miter;stroke-miterlimit:4;stroke-opacity:1;stroke-dasharray:none"
         id="path3685"
         inkscape:connector-curvature="0" />
    </g>
    <g
       id="g3687"
       transform="matrix(1.25,0,0,-1.25,545.59036,608.03816)">
      <path
         d="m 0,0 c 0,-0.81 -0.658,-1.469 -1.469,-1.469 l -202.58,0 c -0.808,0 -1.467,0.659 -1.467,1.469 l 0,61.654 c 0,0.81 0.659,1.468 1.467,1.468 l 202.58,0 C -0.658,63.122 0,62.464 0,61.654 L 0,0 z m -1.469,64.957 -202.58,0 c -1.82,0 -3.303,-1.482 -3.303,-3.303 l 0,-61.654 c 0,-1.822 1.483,-3.304 3.303,-3.304 l 202.58,0 c 1.823,0 3.303,1.482 3.303,3.304 l 0,61.654 c 0,1.821 -1.48,3.303 -3.303,3.303"
         style="fill:#231f20;fill-opacity:1;fill-rule:nonzero;stroke:none"
         id="path3689"
         inkscape:connector-curvature="0" />
    </g>
    <g
       id="g3691"
       transform="matrix(1.25,0,0,-1.25,312.90786,561.24816)">
      <path
         d="m 0,0 -9.102,0 0,14.68 8.809,0 0,-2.345 -6.463,0 0,-3.527 4.466,0 0,-2.344 -4.466,0 0,-4.119 L 0,2.345 0,0 z"
         style="fill:#231f20;fill-opacity:1;fill-rule:nonzero;stroke:none"
         id="path3693"
         inkscape:connector-curvature="0" />
    </g>
    <g
       id="g3695"
       transform="matrix(1.25,0,0,-1.25,327.23037,561.24816)">
      <path
         d="M 0,0 -2.642,0 -4.992,4.874 -7.34,0 l -2.642,0 3.67,7.634 -3.377,7.046 2.643,0 2.055,-4.286 2.07,4.286 2.628,0 L -3.67,7.634 0,0 z"
         style="fill:#231f20;fill-opacity:1;fill-rule:nonzero;stroke:none"
         id="path3697"
         inkscape:connector-curvature="0" />
    </g>
    <g
       id="g3699"
       transform="matrix(1.25,0,0,-1.25,339.89661,547.99691)">
      <path
         d="M 0,0 C 0,0.48 -0.195,0.89 -0.582,1.227 -0.97,1.565 -1.414,1.734 -1.915,1.734 l -3.386,0 0,-3.527 3.386,0 c 0.501,0 0.945,0.177 1.333,0.529 C -0.195,-0.91 0,-0.49 0,0 M 2.344,0 C 2.344,-1.106 1.915,-2.07 1.058,-2.898 0.2,-3.725 -0.793,-4.137 -1.919,-4.137 l -3.382,0 0,-6.464 -2.345,0 0,14.68 5.73,0 c 1.136,0 2.13,-0.401 2.983,-1.203 C 1.918,2.074 2.344,1.115 2.344,0"
         style="fill:#231f20;fill-opacity:1;fill-rule:nonzero;stroke:none"
         id="path3701"
         inkscape:connector-curvature="0" />
    </g>
    <g
       id="g3703"
       transform="matrix(1.25,0,0,-1.25,354.87162,547.99691)">
      <path
         d="m 0,0 c 0,0.49 -0.164,0.901 -0.492,1.234 -0.328,0.334 -0.738,0.5 -1.227,0.5 l -3.378,0 0,-3.527 3.378,0 c 0.489,0 0.899,0.174 1.227,0.521 C -0.164,-0.924 0,-0.5 0,0 m 2.54,-10.601 -2.482,0 -2.364,6.464 -2.791,0 0,-6.464 -2.345,0 0,14.68 5.708,0 c 1.125,0 2.085,-0.398 2.883,-1.196 0.797,-0.798 1.196,-1.76 1.196,-2.885 0,-1.645 -0.778,-2.877 -2.33,-3.699 l 2.525,-6.9 z"
         style="fill:#231f20;fill-opacity:1;fill-rule:nonzero;stroke:none"
         id="path3705"
         inkscape:connector-curvature="0" />
    </g>
    <g
       id="g3707"
       transform="matrix(1.25,0,0,-1.25,372.54411,561.24816)">
      <path
         d="m 0,0 -9.102,0 0,14.68 8.808,0 0,-2.345 -6.463,0 0,-3.527 4.466,0 0,-2.344 -4.466,0 0,-4.119 L 0,2.345 0,0 z"
         style="fill:#231f20;fill-opacity:1;fill-rule:nonzero;stroke:none"
         id="path3709"
         inkscape:connector-curvature="0" />
    </g>
    <g
       id="g3711"
       transform="matrix(1.25,0,0,-1.25,386.87537,555.79441)">
      <path
         d="m 0,0 c 0,-1.321 -0.475,-2.403 -1.424,-3.244 -0.951,-0.84 -2.121,-1.261 -3.512,-1.261 -1.763,0 -3.134,0.636 -4.113,1.907 -0.412,0.527 -0.725,1.163 -0.941,1.906 l 2.177,0.69 c 0.401,-1.44 1.371,-2.159 2.91,-2.159 0.657,0 1.235,0.192 1.735,0.573 0.549,0.421 0.824,0.949 0.824,1.585 0,0.831 -0.621,1.491 -1.866,1.981 -1.156,0.449 -2.31,0.9 -3.466,1.35 -1.243,0.723 -1.866,1.781 -1.866,3.17 0,1.183 0.342,2.118 1.028,2.802 0.781,0.774 1.96,1.161 3.534,1.161 2.054,0 3.53,-0.989 4.429,-2.963 l -2.186,-0.69 c -0.42,0.871 -1.164,1.307 -2.229,1.307 -1.488,0 -2.23,-0.537 -2.23,-1.613 0,-0.696 0.621,-1.253 1.865,-1.674 C -3.382,4.163 -2.227,3.717 -1.865,3.492 -0.622,2.71 0,1.546 0,0"
         style="fill:#231f20;fill-opacity:1;fill-rule:nonzero;stroke:none"
         id="path3713"
         inkscape:connector-curvature="0" />
    </g>
    <g
       id="g3715"
       transform="matrix(1.25,0,0,-1.25,401.18911,555.79441)">
      <path
         d="m 0,0 c 0,-1.321 -0.475,-2.403 -1.426,-3.244 -0.949,-0.84 -2.12,-1.261 -3.511,-1.261 -1.763,0 -3.134,0.636 -4.113,1.907 -0.411,0.527 -0.726,1.163 -0.941,1.906 l 2.176,0.69 c 0.403,-1.44 1.372,-2.159 2.911,-2.159 0.658,0 1.236,0.192 1.736,0.573 0.548,0.421 0.823,0.949 0.823,1.585 0,0.831 -0.622,1.491 -1.865,1.981 -1.156,0.449 -2.312,0.9 -3.467,1.35 -1.243,0.723 -1.865,1.781 -1.865,3.17 0,1.183 0.342,2.118 1.026,2.802 0.783,0.774 1.961,1.161 3.535,1.161 2.053,0 3.529,-0.989 4.43,-2.963 l -2.188,-0.69 c -0.42,0.871 -1.163,1.307 -2.228,1.307 -1.487,0 -2.231,-0.537 -2.231,-1.613 0,-0.696 0.621,-1.253 1.866,-1.674 C -3.383,4.163 -2.229,3.717 -1.866,3.492 -0.621,2.71 0,1.546 0,0"
         style="fill:#231f20;fill-opacity:1;fill-rule:nonzero;stroke:none"
         id="path3717"
         inkscape:connector-curvature="0" />
    </g>
    <g
       id="g3719"
       transform="matrix(1.25,0,0,-1.25,410.79537,549.39316)">
      <path
         d="m 0,0 -2.377,-9.484 -2.232,0 -1.922,14.68 2.377,0 1.029,-7.927 1.996,7.927 2.26,0 1.996,-7.927 1.029,7.927 2.377,0 -1.921,-14.68 -2.233,0 L 0,0 z"
         style="fill:#231f20;fill-opacity:1;fill-rule:nonzero;stroke:none"
         id="path3721"
         inkscape:connector-curvature="0" />
    </g>
    <g
       id="g3723"
       transform="matrix(1.25,0,0,-1.25,429.78911,553.16816)">
      <path
         d="M 0,0 -1.542,4.473 -3.068,0 0,0 z m 4.698,-6.464 -2.483,0 -1.408,4.119 -4.713,0 -1.379,-4.119 -2.496,0 5.051,14.68 2.377,0 5.051,-14.68 z"
         style="fill:#231f20;fill-opacity:1;fill-rule:nonzero;stroke:none"
         id="path3725"
         inkscape:connector-curvature="0" />
    </g>
    <g
       id="g3727"
       transform="matrix(1.25,0,0,-1.25,452.54161,542.89816)">
      <path
         d="m 0,0 -5.141,-8.338 0,-6.342 -2.346,0 0,6.342 L -12.623,0 -9.922,0 -6.313,-5.798 -2.744,0 0,0 z"
         style="fill:#231f20;fill-opacity:1;fill-rule:nonzero;stroke:none"
         id="path3729"
         inkscape:connector-curvature="0" />
    </g>
    <g
       id="g3731"
       transform="matrix(1.25,0,0,-1.25,485.02411,561.24816)">
      <path
         d="m 0,0 -9.1,0 0,14.68 8.807,0 0,-2.345 -6.463,0 0,-3.527 4.467,0 0,-2.344 -4.467,0 0,-4.119 L 0,2.345 0,0 z"
         style="fill:#231f20;fill-opacity:1;fill-rule:nonzero;stroke:none"
         id="path3733"
         inkscape:connector-curvature="0" />
    </g>
    <g
       id="g3735"
       transform="matrix(1.25,0,0,-1.25,500.60787,561.24816)">
      <path
         d="m 0,0 -2.246,0 -5.36,9.734 0,-9.734 -2.343,0 0,14.68 2.275,0 5.328,-9.674 0,9.674 L 0,14.68 0,0 z"
         style="fill:#231f20;fill-opacity:1;fill-rule:nonzero;stroke:none"
         id="path3737"
         inkscape:connector-curvature="0" />
    </g>
    <g
       id="g3739"
       transform="matrix(1.25,0,0,-1.25,514.58162,552.07316)">
      <path
         d="m 0,0 c 0,2.175 -0.416,3.639 -1.25,4.394 -0.443,0.4 -1.089,0.601 -1.945,0.601 l -2.105,0 0,-9.99 2.047,0 c 0.863,0 1.521,0.201 1.974,0.603 C -0.425,-3.638 0,-2.175 0,0 m 2.346,0 c 0,-3.112 -0.818,-5.255 -2.453,-6.429 -0.853,-0.607 -1.9,-0.911 -3.144,-0.911 l -4.393,0 0,14.68 4.393,0 c 1.244,0 2.291,-0.308 3.144,-0.925 C 1.528,5.251 2.346,3.112 2.346,0"
         style="fill:#231f20;fill-opacity:1;fill-rule:nonzero;stroke:none"
         id="path3741"
         inkscape:connector-curvature="0" />
    </g>
    <g
       id="g3743"
       transform="matrix(1.25,0,0,-1.25,532.75412,555.79441)">
      <path
         d="m 0,0 c 0,-1.321 -0.475,-2.403 -1.426,-3.244 -0.949,-0.84 -2.119,-1.261 -3.51,-1.261 -1.764,0 -3.135,0.636 -4.113,1.907 -0.412,0.527 -0.727,1.163 -0.942,1.906 l 2.176,0.69 c 0.402,-1.44 1.373,-2.159 2.912,-2.159 0.656,0 1.235,0.192 1.735,0.573 0.548,0.421 0.824,0.949 0.824,1.585 0,0.831 -0.623,1.491 -1.865,1.981 -1.157,0.449 -2.313,0.9 -3.467,1.35 -1.244,0.723 -1.865,1.781 -1.865,3.17 0,1.183 0.341,2.118 1.027,2.802 0.781,0.774 1.959,1.161 3.533,1.161 2.053,0 3.529,-0.989 4.43,-2.963 l -2.186,-0.69 c -0.422,0.871 -1.164,1.307 -2.23,1.307 -1.487,0 -2.231,-0.537 -2.231,-1.613 0,-0.696 0.623,-1.253 1.866,-1.674 C -3.383,4.163 -2.227,3.717 -1.866,3.492 -0.622,2.71 0,1.546 0,0"
         style="fill:#231f20;fill-opacity:1;fill-rule:nonzero;stroke:none"
         id="path3745"
         inkscape:connector-curvature="0" />
    </g>
    <g
       id="g3747"
       transform="matrix(1.25,0,0,-1.25,412.86536,587.34066)">
      <path
         d="m 0,0 3.381,8.397 2.346,0 0,-14.68 -2.346,0 -0.011,8.411 -3.379,-8.411 -3.377,8.411 0,-8.411 -2.346,0 0,14.68 2.352,0 L 0,0 z"
         style="fill:#231f20;fill-opacity:1;fill-rule:nonzero;stroke:none"
         id="path3749"
         inkscape:connector-curvature="0" />
    </g>
    <path
       d="m 427.34849,595.19416 -2.93125,0 0,-18.35 2.93125,0 0,18.35 z"
       style="fill:#231f20;fill-opacity:1;fill-rule:nonzero;stroke:none"
       id="path3751"
       inkscape:connector-curvature="0" />
    <g
       id="g3753"
       transform="matrix(1.25,0,0,-1.25,443.13411,595.19441)">
      <path
         d="m 0,0 -9.101,0 0,14.68 2.343,0 0,-12.335 L 0,2.345 0,0 z"
         style="fill:#231f20;fill-opacity:1;fill-rule:nonzero;stroke:none"
         id="path3755"
         inkscape:connector-curvature="0" />
    </g>
    <g
       id="g3757"
       transform="matrix(1.25,0,0,-1.25,457.26286,595.19441)">
      <path
         d="m 0,0 -9.102,0 0,14.68 8.809,0 0,-2.345 -6.465,0 0,-3.527 4.467,0 0,-2.345 -4.467,0 0,-4.118 L 0,2.345 0,0 z"
         style="fill:#231f20;fill-opacity:1;fill-rule:nonzero;stroke:none"
         id="path3759"
         inkscape:connector-curvature="0" />
    </g>
    <g
       id="g3761"
       transform="matrix(1.25,0,0,-1.25,382.53286,597.02941)">
      <path
         d="m 0,0 -3.181,0 0,13.036 -2.099,0 0,2.642 c 0.421,0.117 0.802,0.259 1.143,0.423 0.81,0.399 1.337,0.904 1.584,1.515 L 0,17.616 0,0 z"
         style="fill:#231f20;fill-opacity:1;fill-rule:nonzero;stroke:none"
         id="path3763"
         inkscape:connector-curvature="0" />
    </g>
  </g>
</svg>
