<?xml version="1.0" encoding="UTF-8" standalone="no"?>
<!-- Created with Inkscape (http://www.inkscape.org/) -->

<svg
   xmlns:dc="http://purl.org/dc/elements/1.1/"
   xmlns:cc="http://creativecommons.org/ns#"
   xmlns:rdf="http://www.w3.org/1999/02/22-rdf-syntax-ns#"
   xmlns:svg="http://www.w3.org/2000/svg"
   xmlns="http://www.w3.org/2000/svg"
   xmlns:sodipodi="http://sodipodi.sourceforge.net/DTD/sodipodi-0.dtd"
   xmlns:inkscape="http://www.inkscape.org/namespaces/inkscape"
   width="107.54375"
   height="107.545"
   id="svg5651"
   version="1.1"
   inkscape:version="0.48.1 "
   sodipodi:docname="New document 37">
  <defs
     id="defs5653">
    <clipPath
       clipPathUnits="userSpaceOnUse"
       id="clipPath3773">
      <path
         inkscape:connector-curvature="0"
         d="m 27.125,314.737 513.435,0 0,423.263 -513.435,0 0,-423.263 z"
         id="path3775" />
    </clipPath>
  </defs>
  <sodipodi:namedview
     id="base"
     pagecolor="#ffffff"
     bordercolor="#666666"
     borderopacity="1.0"
     inkscape:pageopacity="0.0"
     inkscape:pageshadow="2"
     inkscape:zoom="0.35"
     inkscape:cx="54.486163"
     inkscape:cy="93.772492"
     inkscape:document-units="px"
     inkscape:current-layer="layer1"
     showgrid="false"
     fit-margin-top="0"
     fit-margin-left="0"
     fit-margin-right="0"
     fit-margin-bottom="0"
     inkscape:window-width="469"
     inkscape:window-height="403"
     inkscape:window-x="25"
     inkscape:window-y="25"
     inkscape:window-maximized="0" />
  <metadata
     id="metadata5656">
    <rdf:RDF>
      <cc:Work
         rdf:about="">
        <dc:format>image/svg+xml</dc:format>
        <dc:type
           rdf:resource="http://purl.org/dc/dcmitype/StillImage" />
        <dc:title></dc:title>
      </cc:Work>
    </rdf:RDF>
  </metadata>
  <g
     inkscape:label="Layer 1"
     inkscape:groupmode="layer"
     id="layer1"
     transform="translate(-320.51384,-518.58967)">
    <g
       transform="matrix(1.25,0,0,-1.25,187.22165,1045.5738)"
       id="g3769">
      <g
         id="g3771"
         clip-path="url(#clipPath3773)">
        <g
           id="g3777"
           transform="translate(152.4265,336.9518)">
          <path
             inkscape:connector-curvature="0"
             d="m 0,0 c -1.533,-1.534 -4.018,-1.534 -5.549,0 l -38.844,38.843 c -1.533,1.532 -1.533,4.016 0,5.549 l 38.844,38.843 c 1.531,1.534 4.016,1.534 5.549,0 L 38.844,44.392 c 1.531,-1.533 1.531,-4.017 0,-5.549 L 0,0 z"
             style="fill:#fccf34;fill-opacity:1;fill-rule:nonzero;stroke:none"
             id="path3779" />
        </g>
        <g
           id="g3781"
           transform="translate(152.4265,336.9518)">
          <path
             inkscape:connector-curvature="0"
             d="m 0,0 c -1.533,-1.534 -4.018,-1.534 -5.549,0 l -38.844,38.843 c -1.533,1.532 -1.533,4.016 0,5.549 l 38.844,38.843 c 1.531,1.534 4.016,1.534 5.549,0 L 38.844,44.392 c 1.531,-1.533 1.531,-4.017 0,-5.549 L 0,0 z"
             style="fill:none;stroke:#231f20;stroke-width:0.5;stroke-linecap:butt;stroke-linejoin:miter;stroke-miterlimit:4;stroke-opacity:1;stroke-dasharray:none"
             id="path3783" />
        </g>
        <g
           id="g3785"
           transform="translate(189.4205,377.6448)">
          <path
             inkscape:connector-curvature="0"
             d="m 0,0 -38.844,-38.844 c -0.51,-0.509 -1.34,-0.509 -1.849,0 L -79.537,0 c -0.51,0.51 -0.51,1.34 0,1.85 l 38.844,38.843 c 0.509,0.51 1.339,0.51 1.849,0 L 0,1.85 C 0.51,1.34 0.51,0.51 0,0 m 1.156,3.006 -38.844,38.843 c -1.148,1.148 -3.015,1.148 -4.162,0 L -80.693,3.006 c -1.147,-1.149 -1.149,-3.016 0,-4.162 L -41.85,-40 c 1.147,-1.148 3.014,-1.148 4.162,0 L 1.156,-1.156 c 1.147,1.146 1.147,3.013 0,4.162"
             style="fill:#231f20;fill-opacity:1;fill-rule:nonzero;stroke:none"
             id="path3787" />
        </g>
        <g
           id="g3789"
           transform="translate(127.2837,386.3478)">
          <path
             inkscape:connector-curvature="0"
             d="m 0,0 -4.359,0 0,-3.06 2.593,0 0,-1.645 -2.593,0 0,-5.422 -1.645,0 0,11.772 L 0,1.645 0,0 z"
             style="fill:#231f20;fill-opacity:1;fill-rule:nonzero;stroke:none"
             id="path3791" />
        </g>
        <g
           id="g3793"
           transform="translate(133.8815,384.8188)">
          <path
             inkscape:connector-curvature="0"
             d="m 0,0 c 0,0.973 -0.406,1.482 -1.217,1.529 l -2.09,0 0,-3.06 2.09,0 C -0.406,-1.485 0,-0.975 0,0 m 1.642,-8.598 -1.709,0 -1.554,5.422 -1.686,0 0,-5.422 -1.644,0 0,11.772 3.65,0 C -0.672,3.119 -0.319,3.084 -0.24,3.068 0.301,2.941 0.724,2.683 1.031,2.291 1.439,1.765 1.642,1 1.642,-0.004 c 0,-1.453 -0.544,-2.41 -1.636,-2.873 l 1.636,-5.721 z"
             style="fill:#231f20;fill-opacity:1;fill-rule:nonzero;stroke:none"
             id="path3795" />
        </g>
        <g
           id="g3797"
           transform="translate(143.5275,376.2108)">
          <path
             inkscape:connector-curvature="0"
             d="m 0,0 -6.004,0.01 0,11.772 6.004,0 0,-1.645 -4.359,0 0,-3.06 2.594,0 0,-1.645 -2.594,0 0,-3.777 L 0,1.655 0,0 z"
             style="fill:#231f20;fill-opacity:1;fill-rule:nonzero;stroke:none"
             id="path3799" />
        </g>
        <g
           id="g3801"
           transform="translate(151.5315,376.2108)">
          <path
             inkscape:connector-curvature="0"
             d="m 0,0 -6.004,0.01 0,11.772 6.004,0 0,-1.645 -4.359,0 0,-3.06 2.594,0 0,-1.645 -2.594,0 0,-3.777 L 0,1.655 0,0 z"
             style="fill:#231f20;fill-opacity:1;fill-rule:nonzero;stroke:none"
             id="path3803" />
        </g>
        <g
           id="g3805"
           transform="translate(161.5435,387.9928)">
          <path
             inkscape:connector-curvature="0"
             d="m 0,0 -2.061,-11.772 -1.306,0 -1.106,6.238 -1.107,-6.238 -1.307,0 L -8.947,0 -7.299,0 -6.227,-6.086 -5.156,0 -3.791,0 -2.719,-6.086 -1.648,0 0,0 z"
             style="fill:#231f20;fill-opacity:1;fill-rule:nonzero;stroke:none"
             id="path3807" />
        </g>
        <g
           id="g3809"
           transform="translate(166.9345,381.0428)">
          <path
             inkscape:connector-curvature="0"
             d="M 0,0 -0.918,3.831 -1.848,0 0,0 z m 2.849,-4.822 -1.683,0 -0.766,3.18 -2.648,0 -0.766,-3.18 -1.67,0 L -1.836,6.95 0,6.95 2.849,-4.822 z"
             style="fill:#231f20;fill-opacity:1;fill-rule:nonzero;stroke:none"
             id="path3811" />
        </g>
        <g
           id="g3813"
           transform="translate(178.0235,387.9928)">
          <path
             inkscape:connector-curvature="0"
             d="m 0,0 -2.947,-6.346 0,-5.426 -1.644,0 0,5.426 L -7.535,0 -5.757,0 -3.767,-4.262 -1.789,0 0,0 z"
             style="fill:#231f20;fill-opacity:1;fill-rule:nonzero;stroke:none"
             id="path3815" />
        </g>
        <g
           id="g3817"
           transform="translate(139.4065,357.8908)">
          <path
             inkscape:connector-curvature="0"
             d="m 0,0 -6.002,0.01 0,11.771 6.002,0 0,-1.644 -4.359,0 0,-3.061 2.594,0 0,-1.644 -2.594,0 0,-3.778 L 0,1.654 0,0 z"
             style="fill:#231f20;fill-opacity:1;fill-rule:nonzero;stroke:none"
             id="path3819" />
        </g>
        <g
           id="g3821"
           transform="translate(148.0025,357.9008)">
          <path
             inkscape:connector-curvature="0"
             d="m 0,0 -1.645,0 -3.304,7.615 0,-7.615 -1.645,0 0,11.771 1.649,0 3.295,-7.605 0.005,7.605 1.645,0 L 0,0 z"
             style="fill:#231f20;fill-opacity:1;fill-rule:nonzero;stroke:none"
             id="path3823" />
        </g>
        <g
           id="g3825"
           transform="translate(155.5395,363.7818)">
          <path
             inkscape:connector-curvature="0"
             d="m 0,0 c 0,2.83 -0.668,4.246 -2.006,4.246 l -1.299,0 0,-8.492 1.299,0 C -0.668,-4.246 0,-2.83 0,0 m 1.645,0.006 c 0,-2.354 -0.463,-4.022 -1.389,-5.002 -0.566,-0.596 -1.234,-0.895 -2.002,-0.895 l -0.26,0 -2.943,0 0,11.781 3.072,0 c 0.77,0 1.43,-0.252 1.979,-0.754 1.029,-0.941 1.543,-2.652 1.543,-5.13"
             style="fill:#231f20;fill-opacity:1;fill-rule:nonzero;stroke:none"
             id="path3827" />
        </g>
        <g
           id="g3829"
           transform="translate(165.5495,361.1158)">
          <path
             inkscape:connector-curvature="0"
             d="m 0,0 c 0,-0.832 -0.217,-1.551 -0.649,-2.157 -0.556,-0.785 -1.38,-1.177 -2.472,-1.177 -1.225,0 -2.139,0.392 -2.744,1.177 -0.487,0.622 -0.729,1.403 -0.729,2.344 l 1.643,0 c 0,-0.685 0.216,-1.191 0.648,-1.523 0.322,-0.235 0.717,-0.354 1.18,-0.354 0.943,0 1.414,0.563 1.414,1.684 0,0.881 -0.379,1.598 -1.141,2.156 -0.707,0.44 -1.416,0.875 -2.131,1.307 -0.761,0.59 -1.142,1.359 -1.142,2.308 0,0.621 0.174,1.19 0.519,1.707 0.534,0.801 1.389,1.202 2.567,1.202 1.24,0 2.119,-0.463 2.636,-1.389 C -0.19,6.9 -0.055,6.433 0,5.884 l -1.645,0 c 0,0.198 -0.066,0.393 -0.199,0.59 -0.236,0.371 -0.633,0.557 -1.191,0.557 -0.95,0 -1.426,-0.42 -1.426,-1.262 0,-0.463 0.385,-0.926 1.154,-1.388 C -2.162,3.705 -1.444,3.226 -1.154,2.943 -0.385,2.181 0,1.201 0,0"
             style="fill:#231f20;fill-opacity:1;fill-rule:nonzero;stroke:none"
             id="path3831" />
        </g>
      </g>
    </g>
  </g>
</svg>
