<?xml version="1.0" encoding="UTF-8" standalone="no"?>
<!-- Created with Inkscape (http://www.inkscape.org/) -->

<svg
   xmlns:dc="http://purl.org/dc/elements/1.1/"
   xmlns:cc="http://creativecommons.org/ns#"
   xmlns:rdf="http://www.w3.org/1999/02/22-rdf-syntax-ns#"
   xmlns:svg="http://www.w3.org/2000/svg"
   xmlns="http://www.w3.org/2000/svg"
   xmlns:sodipodi="http://sodipodi.sourceforge.net/DTD/sodipodi-0.dtd"
   xmlns:inkscape="http://www.inkscape.org/namespaces/inkscape"
   width="53.6045"
   height="66.861252"
   id="svg8616"
   version="1.1"
   inkscape:version="0.48.1 "
   sodipodi:docname="New document 72">
  <defs
     id="defs8618" />
  <sodipodi:namedview
     id="base"
     pagecolor="#ffffff"
     bordercolor="#666666"
     borderopacity="1.0"
     inkscape:pageopacity="0.0"
     inkscape:pageshadow="2"
     inkscape:zoom="0.35"
     inkscape:cx="1.802"
     inkscape:cy="62.002307"
     inkscape:document-units="px"
     inkscape:current-layer="layer1"
     showgrid="false"
     fit-margin-top="0"
     fit-margin-left="0"
     fit-margin-right="0"
     fit-margin-bottom="0"
     inkscape:window-width="469"
     inkscape:window-height="403"
     inkscape:window-x="75"
     inkscape:window-y="75"
     inkscape:window-maximized="0" />
  <metadata
     id="metadata8621">
    <rdf:RDF>
      <cc:Work
         rdf:about="">
        <dc:format>image/svg+xml</dc:format>
        <dc:type
           rdf:resource="http://purl.org/dc/dcmitype/StillImage" />
        <dc:title></dc:title>
      </cc:Work>
    </rdf:RDF>
  </metadata>
  <g
     inkscape:label="Layer 1"
     inkscape:groupmode="layer"
     id="layer1"
     transform="translate(-373.198,-527.50324)">
    <path
       inkscape:connector-curvature="0"
       id="path6173"
       style="fill:#fccf34;fill-opacity:1;fill-rule:nonzero;stroke:#231f20;stroke-width:0.625;stroke-linecap:butt;stroke-linejoin:miter;stroke-miterlimit:4;stroke-opacity:1;stroke-dasharray:none"
       d="m 377.64,527.81674 44.72,-10e-4 c 2.275,0 4.13,1.85375 4.13,4.13 l 0,57.9775 c 0,2.27375 -1.855,4.12875 -4.13,4.12875 l -44.72,-0.001 c -2.275,0 -4.1275,-1.8525 -4.1275,-4.12875 l -0.002,-57.97505 c 0.002,-2.24875 1.8825,-4.1325 4.13,-4.13" />
    <path
       inkscape:connector-curvature="0"
       id="path6177"
       style="fill:#231f20;fill-opacity:1;fill-rule:evenodd;stroke:none"
       d="m 377.655,528.96174 44.6925,0 c 1.63875,0.003 2.99375,1.36 2.99625,2.9975 l 0,57.95 c 0,1.63625 -1.36,2.99 -2.99875,2.995 l -44.69,0 c -1.6375,-0.004 -2.995,-1.35625 -2.995,-2.9975 l -0.002,-57.95 c 0.005,-1.6325 1.3575,-2.99625 2.9975,-2.995" />
    <path
       inkscape:connector-curvature="0"
       id="path6181"
       style="fill:#fccf34;fill-opacity:1;fill-rule:evenodd;stroke:none"
       d="m 377.675,530.56549 44.65,0.003 c 0.7775,-0.0163 1.42625,0.63625 1.41375,1.41125 l -0.002,57.9075 c 0.015,0.77375 -0.63375,1.42625 -1.41125,1.41125 l -44.6475,0 c -0.77625,0.015 -1.42875,-0.6375 -1.41125,-1.41125 l -0.002,-57.9075 c -0.015,-0.77375 0.6375,-1.42625 1.41125,-1.41375" />
    <path
       inkscape:connector-curvature="0"
       id="path6185"
       style="fill:#231f20;fill-opacity:1;fill-rule:evenodd;stroke:none"
       d="m 418.57125,540.43049 0,-1.37875 -1.695,0 0,0.9275 0.7425,0 0,0.45125 c 0,0.68875 -0.24,1.0325 -0.715,1.0325 -0.53,0 -0.85,-0.34375 -0.9825,-1.00625 -0.105,-0.50375 -0.13125,-1.08625 -0.13125,-1.6425 0,-0.795 0.105,-1.5375 0.29,-1.855 0.15875,-0.34375 0.425,-0.50375 0.7425,-0.50375 0.45125,0 0.76875,0.31875 0.79625,0.7425 l 0.9525,0 c -0.0513,-0.95375 -0.7675,-1.66875 -1.72125,-1.66875 -0.77,0 -1.4575,0.53 -1.67,1.2175 -0.2375,0.63625 -0.3175,1.29875 -0.3175,2.22625 0,0.8475 0.15875,1.775 0.34375,2.2775 0.345,0.7425 0.9275,1.14 1.6975,1.14 0.6875,0 1.2175,-0.34375 1.48125,-0.9275 0.135,-0.29125 0.18625,-0.55625 0.18625,-1.0325 m -5.005,1.8275 0,-6.59625 -0.955,0 0,3.9475 -1.80125,-3.9475 -0.955,0 0,6.59625 0.955,0 0,-4.42375 2.04,4.42375 0.71625,0 z m -5.1425,-6.59625 -0.925,0 0,6.59625 0.925,0 0,-6.59625 z m -2.355,6.59625 0,-6.59625 -0.955,0 -1.245,3.70875 -1.21875,-3.70875 -0.95375,0 0,6.59625 0.95375,0 0,-3.70875 1.21875,3.70875 1.245,-3.70875 0,3.70875 0.955,0 z m -6.57,-3.3125 c 0,0.76875 -0.0537,1.16625 -0.2125,1.6975 -0.15875,0.555 -0.425,0.82 -0.82,0.82 -0.425,0 -0.665,-0.265 -0.82375,-0.82 -0.15875,-0.53125 -0.21,-0.955 -0.21,-1.67 0,-0.7425 0.0512,-1.19125 0.21,-1.69625 0.15875,-0.555 0.39875,-0.82125 0.82375,-0.82125 0.395,0 0.66125,0.26625 0.82,0.84875 0.13125,0.4775 0.2125,0.9 0.2125,1.64125 m 0.87375,0 c 0,-1.005 -0.105,-1.615 -0.37125,-2.2775 -0.29,-0.795 -0.76875,-1.13875 -1.535,-1.13875 -0.77,0 -1.21875,0.34375 -1.5625,1.11125 -0.29375,0.63625 -0.37125,1.3 -0.37125,2.305 0,1.03375 0.0775,1.64375 0.37125,2.305 0.31625,0.79625 0.76625,1.14 1.5625,1.14 0.73875,0 1.245,-0.34375 1.535,-1.14 0.26625,-0.635 0.37125,-1.27125 0.37125,-2.305 m -5.03375,-1.535 c -0.0788,-0.61 -0.15875,-0.875 -0.4225,-1.1925 -0.29375,-0.45125 -0.77,-0.68875 -1.29875,-0.68875 -1.29875,0 -1.96125,1.13875 -1.96125,3.285 0,2.43625 0.61125,3.57625 2.04125,3.57625 0.925,0 1.61375,-0.795 1.64125,-1.88125 l -0.9525,0 c 0,0.4775 -0.135,0.95375 -0.68875,0.95375 -0.8225,0 -1.14,-0.7675 -1.14,-2.67625 0,-1.72125 0.26375,-2.33125 1.0325,-2.33125 0.4525,0 0.715,0.31875 0.79625,0.955 l 0.9525,0 z m -4.98125,4.8475 0,-6.59625 -0.95125,0 0,3.9475 -1.82875,-3.9475 -0.92875,0 0,6.59625 0.92875,0 0,-4.42375 2.065,4.42375 0.715,0 z m -5.95875,-3.3125 c 0,0.76875 -0.0275,1.16625 -0.18625,1.6975 -0.185,0.555 -0.425,0.82 -0.82,0.82 -0.425,0 -0.66375,-0.265 -0.85,-0.82 -0.13125,-0.53125 -0.1825,-0.955 -0.1825,-1.67 0,-0.7425 0.0238,-1.19125 0.1825,-1.69625 0.18625,-0.555 0.425,-0.82125 0.85,-0.82125 0.395,0 0.635,0.26625 0.82,0.84875 0.1325,0.4775 0.18625,0.9 0.18625,1.64125 m 0.9275,0 c 0,-1.005 -0.1075,-1.615 -0.37125,-2.2775 -0.34375,-0.795 -0.79625,-1.13875 -1.5625,-1.13875 -0.76875,0 -1.21875,0.34375 -1.59,1.11125 -0.265,0.63625 -0.37,1.3 -0.37,2.305 0,1.03375 0.105,1.64375 0.37,2.305 0.345,0.79625 0.79375,1.14 1.59,1.14 0.7425,0 1.21875,-0.34375 1.5625,-1.14 0.26375,-0.635 0.37125,-1.27125 0.37125,-2.305" />
    <path
       inkscape:connector-curvature="0"
       id="path6189"
       style="fill:#231f20;fill-opacity:1;fill-rule:evenodd;stroke:none"
       d="m 414.095,548.40424 c -0.08,-0.58375 -0.16,-0.875 -0.42375,-1.1925 -0.29125,-0.45125 -0.77,-0.68875 -1.29875,-0.68875 -1.2975,0 -1.96125,1.13875 -1.96125,3.285 0,2.43625 0.61,3.57625 2.04125,3.57625 0.9275,0 1.61625,-0.79625 1.6425,-1.88125 l -0.95375,0 c 0,0.4775 -0.1325,0.95375 -0.68875,0.95375 -0.8225,0 -1.14,-0.7675 -1.14,-2.67625 0,-1.72125 0.26625,-2.33 1.0325,-2.33 0.45125,0 0.68875,0.3175 0.79625,0.95375 l 0.95375,0 z m -5.00625,-1.74875 -0.92875,0 0,6.59625 0.92875,0 0,-6.59625 z m -1.82875,0.92625 0,-0.92625 -3.365,0 0,6.59625 0.92875,0 0,-3.1 1.3225,0 0,-0.90125 -1.3225,0 0,-1.66875 2.43625,0 z m -4.2925,0 0,-0.92625 -3.3375,0 0,6.59625 0.9275,0 0,-3.1 1.32375,0 0,-0.90125 -1.32375,0 0,-1.66875 2.41,0 z m -5.88125,2.94125 -0.9525,0 0.47625,-1.90625 0.47625,1.90625 z m 1.64375,2.72875 -1.64375,-6.59625 -0.925,0 -1.64375,6.59625 0.955,0 0.4225,-1.8025 1.43,0 0.4525,1.8025 0.9525,0 z m -5.72375,-4.8475 c 0,0.55625 -0.3175,0.84625 -0.87375,0.84625 l -0.9525,0 0,-1.66875 0.9525,0 c 0.53,0 0.87375,0.31875 0.87375,0.8225 m 0.92875,4.8475 -0.9525,-3.23125 c 0.635,-0.24 0.9525,-0.8225 0.9525,-1.61625 0,-1.06 -0.68875,-1.74875 -1.74875,-1.74875 l -1.96,0 0,6.59625 0.95375,0 0,-3.1 0.90125,0 0.87375,3.1 0.98,0 z m -4.61,-5.7225 0,-0.87375 -3.36375,0 0,0.87375 1.19375,0 0,5.7225 0.95125,0 0,-5.7225 1.21875,0 z" />
    <path
       inkscape:connector-curvature="0"
       id="path6193"
       style="fill:#231f20;fill-opacity:1;fill-rule:evenodd;stroke:none"
       d="m 417.93625,564.24424 0,-0.9275 -2.4125,0 0,-2.1975 1.3525,0 0,-0.875 -1.3525,0 0,-1.66875 2.14625,0 0,-0.92625 -3.09875,0 0,6.595 3.365,0 z m -4.265,-6.595 -0.955,0 -1.08625,4.26375 -1.11125,-4.26375 -0.9275,0 1.67,6.595 0.7125,0 1.6975,-6.595 z m -6.145,3.84 -0.92875,0 0.45,-1.88 0.47875,1.88 z m 1.6675,2.755 -1.6675,-6.595 -0.92875,0 -1.6425,6.595 0.955,0 0.44875,-1.82625 1.40375,0 0.47875,1.82625 0.9525,0 z m -5.14,0 0,-6.595 -0.95375,0 0,2.70125 -1.8,0 0,-2.70125 -0.955,0 0,6.595 0.955,0 0,-2.9925 1.8,0 0,2.9925 0.95375,0 z m -7.8925,-6.595 -1.00875,0 -1.08625,2.3825 -1.11125,-2.3825 -1.0075,0 1.61625,3.6025 0,2.9925 0.95375,0 0,-2.9925 1.64375,-3.6025 z m -6.2525,3.84 -0.955,0 0.47875,-1.88 0.47625,1.88 z m 1.6425,2.755 -1.6425,-6.595 -0.9275,0 -1.64375,6.595 0.955,0 0.425,-1.82625 1.43,0 0.45,1.82625 0.95375,0 z m -5.13875,0 0,-6.595 -0.955,0 -1.245,3.68125 -1.2175,-3.68125 -0.955,0 0,6.595 0.955,0 0,-3.735 1.2175,3.735 1.245,-3.735 0,3.735 0.955,0 z" />
    <path
       inkscape:connector-curvature="0"
       id="path6197"
       style="fill:#231f20;fill-opacity:1;fill-rule:evenodd;stroke:none"
       d="m 416.69125,571.95299 c 0,0.50375 -0.0275,0.98125 -0.0813,1.405 -0.105,0.5025 -0.395,0.95375 -0.9525,0.95375 l -0.795,0 0,-4.76875 0.795,0 c 0.4225,0 0.68875,0.2125 0.8475,0.6625 0.1325,0.29 0.18625,1.00625 0.18625,1.7475 m 0.9275,-0.0525 c 0,-0.50375 -0.0537,-1.08625 -0.15875,-1.5625 -0.1075,-0.68875 -0.3975,-1.1925 -0.76875,-1.4575 -0.24,-0.185 -0.53,-0.26375 -1.08625,-0.26375 l -1.695,0 0,6.62125 1.82625,0 c 0.3975,0 0.715,-0.10625 0.955,-0.31625 0.63375,-0.505 0.9275,-1.485 0.9275,-3.02125 m -4.8225,3.3375 0,-0.92625 -2.41125,0 0,-2.2 1.37875,0 0,-0.9 -1.37875,0 0,-1.66875 2.1725,0 0,-0.92625 -3.125,0 0,6.62125 3.36375,0 z m -5.59,-3.285 c 0,0.50375 -0.0513,0.98125 -0.0788,1.405 -0.1075,0.5025 -0.3975,0.95375 -0.95375,0.95375 l -0.79375,0 0,-4.76875 0.79375,0 c 0.42375,0 0.6875,0.2125 0.84625,0.6625 0.135,0.29 0.18625,1.00625 0.18625,1.7475 m 0.9275,-0.0525 c 0,-0.50375 -0.0538,-1.08625 -0.15875,-1.5625 -0.105,-0.68875 -0.3975,-1.1925 -0.79375,-1.4575 -0.2125,-0.185 -0.505,-0.26375 -1.06125,-0.26375 l -1.695,0 0,6.62125 1.82875,0 c 0.37125,0 0.715,-0.10625 0.9275,-0.31625 0.6625,-0.505 0.9525,-1.485 0.9525,-3.02125 m -5.1125,3.3375 0,-6.62125 -0.955,0 0,3.9725 -1.82625,-3.9725 -0.9,0 0,6.62125 0.9,0 0,-4.45 2.03875,4.45 0.7425,0 z m -4.82125,0 0,-0.92625 -2.41,0 0,-2.2 1.3775,0 0,-0.9 -1.3775,0 0,-1.66875 2.1725,0 0,-0.92625 -3.1275,0 0,6.62125 3.365,0 z m -4.265,-5.7475 0,-0.87375 -3.365,0 0,0.87375 1.21875,0 0,5.7475 0.95375,0 0,-5.7475 1.1925,0 z m -3.7625,5.7475 -1.42875,-3.4425 1.32375,-3.17875 -1.00625,0 -0.8225,1.985 -0.8475,-1.985 -0.97875,0 1.32375,3.17875 -1.43125,3.4425 1.00875,0 0.925,-2.25125 0.9275,2.25125 1.00625,0 z m -4.475,0 0,-0.92625 -2.4125,0 0,-2.2 1.38,0 0,-0.9 -1.38,0 0,-1.66875 2.1725,0 0,-0.92625 -3.125,0 0,6.62125 3.365,0 z" />
    <path
       inkscape:connector-curvature="0"
       id="path6201"
       style="fill:#231f20;fill-opacity:1;fill-rule:evenodd;stroke:none"
       d="m 411.18,586.23174 0,-6.6225 -0.95375,0 0,3.97375 -1.8025,-3.97375 -0.95125,0 0,6.6225 0.95125,0 0,-4.45 2.04125,4.45 0.715,0 z m -4.82125,0 0,-0.9275 -2.41,0 0,-2.19875 1.3775,0 0,-0.9 -1.3775,0 0,-1.66875 2.14625,0 0,-0.9275 -3.1,0 0,6.6225 3.36375,0 z m -4.4775,0 0,-0.9275 -2.3825,0 0,-2.19875 1.35,0 0,-0.9 -1.35,0 0,-1.66875 2.11875,0 0,-0.9275 -3.07375,0 0,6.6225 3.3375,0 z m -5.34875,-4.84875 c 0,0.53125 -0.32,0.8225 -0.875,0.8225 l -0.95375,0 0,-1.66875 0.95375,0 c 0.53,0 0.875,0.31875 0.875,0.84625 m 0.925,4.84875 -0.9525,-3.2575 c 0.635,-0.24 0.9525,-0.8225 0.9525,-1.59125 0,-1.085 -0.68875,-1.77375 -1.74875,-1.77375 l -1.96,0 0,6.6225 0.955,0 0,-3.12625 0.90125,0 0.87375,3.12625 0.97875,0 z m -5.005,-1.8275 0,-1.3775 -1.69625,0 0,0.92625 0.74125,0 0,0.45125 c 0,0.68875 -0.23875,1.00625 -0.715,1.00625 -0.53,0 -0.8475,-0.34375 -0.97875,-1.00625 -0.1075,-0.5025 -0.135,-1.08625 -0.135,-1.6425 0,-0.795 0.1075,-1.5375 0.29375,-1.85375 0.15875,-0.3175 0.4225,-0.4775 0.74,-0.4775 0.4775,0 0.76875,0.29125 0.795,0.74125 l 0.955,0 c -0.0537,-0.98 -0.76875,-1.6675 -1.72375,-1.6675 -0.76625,0 -1.43,0.5025 -1.6675,1.19125 -0.23875,0.635 -0.3175,1.2975 -0.3175,2.225 0,0.87375 0.15875,1.80125 0.36875,2.2775 0.32,0.7425 0.90125,1.14 1.6975,1.14 0.66125,0 1.19125,-0.34375 1.4575,-0.9275 0.13125,-0.265 0.185,-0.555 0.185,-1.00625" />
  </g>
</svg>
