<?xml version="1.0" encoding="UTF-8" standalone="no"?>
<!-- Created with Inkscape (http://www.inkscape.org/) -->

<svg
   xmlns:dc="http://purl.org/dc/elements/1.1/"
   xmlns:cc="http://creativecommons.org/ns#"
   xmlns:rdf="http://www.w3.org/1999/02/22-rdf-syntax-ns#"
   xmlns:svg="http://www.w3.org/2000/svg"
   xmlns="http://www.w3.org/2000/svg"
   xmlns:sodipodi="http://sodipodi.sourceforge.net/DTD/sodipodi-0.dtd"
   xmlns:inkscape="http://www.inkscape.org/namespaces/inkscape"
   width="90.625"
   height="90.618645"
   id="svg8280"
   version="1.1"
   inkscape:version="0.48.1 "
   sodipodi:docname="New document 4">
  <defs
     id="defs8282" />
  <sodipodi:namedview
     id="base"
     pagecolor="#ffffff"
     bordercolor="#666666"
     borderopacity="1.0"
     inkscape:pageopacity="0.0"
     inkscape:pageshadow="2"
     inkscape:zoom="0.35"
     inkscape:cx="123.16964"
     inkscape:cy="-3.2621122"
     inkscape:document-units="px"
     inkscape:current-layer="layer1"
     showgrid="false"
     fit-margin-top="0"
     fit-margin-left="0"
     fit-margin-right="0"
     fit-margin-bottom="0"
     inkscape:window-width="469"
     inkscape:window-height="403"
     inkscape:window-x="150"
     inkscape:window-y="150"
     inkscape:window-maximized="0" />
  <metadata
     id="metadata8285">
    <rdf:RDF>
      <cc:Work
         rdf:about="">
        <dc:format>image/svg+xml</dc:format>
        <dc:type
           rdf:resource="http://purl.org/dc/dcmitype/StillImage" />
        <dc:title></dc:title>
      </cc:Work>
    </rdf:RDF>
  </metadata>
  <g
     inkscape:label="Layer 1"
     inkscape:groupmode="layer"
     id="layer1"
     transform="translate(-251.83036,-438.48143)">
    <path
       inkscape:connector-curvature="0"
       id="path3307"
       style="fill:#fccf34;fill-opacity:1;fill-rule:nonzero;stroke:none"
       d="m 300.05786,527.58019 40.86875,-40.87125 c 0.77,-0.76625 1.21625,-1.82875 1.21625,-2.9175 0,-1.08625 -0.44625,-2.14875 -1.21625,-2.9175 l -40.86875,-40.87125 c -0.77125,-0.76875 -1.8275,-1.21125 -2.92125,-1.20875 -1.08625,0.005 -2.1475,0.4425 -2.9175,1.20875 l -40.8675,40.87125 c -0.765,0.7625 -1.20875,1.83625 -1.20875,2.9175 0,1.08125 0.44375,2.15625 1.20875,2.9175 l 40.8675,40.87125 c 0.99125,0.99125 2.48375,1.41375 3.8475,1.11125 0.7875,-0.17875 1.37125,-0.6125 1.99125,-1.11125" />
    <path
       inkscape:connector-curvature="0"
       id="path3311"
       style="fill:none;stroke:#231f20;stroke-width:0.625;stroke-linecap:butt;stroke-linejoin:miter;stroke-miterlimit:4;stroke-opacity:1;stroke-dasharray:none"
       d="m 300.05786,527.58019 40.86875,-40.87125 c 0.77,-0.76625 1.21625,-1.82875 1.21625,-2.9175 0,-1.08625 -0.44625,-2.14875 -1.21625,-2.9175 l -40.86875,-40.87125 c -0.77125,-0.76875 -1.8275,-1.21125 -2.92125,-1.20875 -1.08625,0.005 -2.1475,0.4425 -2.9175,1.20875 l -40.8675,40.87125 c -0.765,0.7625 -1.20875,1.83625 -1.20875,2.9175 0,1.08125 0.44375,2.15625 1.20875,2.9175 l 40.8675,40.87125 c 0.99125,0.99125 2.48375,1.41375 3.8475,1.11125 0.7875,-0.17875 1.37125,-0.6125 1.99125,-1.11125 z" />
    <path
       inkscape:connector-curvature="0"
       id="path3315"
       style="fill:#231f20;fill-opacity:1;fill-rule:evenodd;stroke:none"
       d="m 295.03736,526.76282 -40.8675,-40.86875 c -0.555,-0.5575 -0.87125,-1.31875 -0.87125,-2.1025 0,-0.78375 0.31625,-1.5425 0.87125,-2.1 l 40.8675,-40.87625 c 0.55125,-0.54875 1.32375,-0.86125 2.10125,-0.86125 0.7775,0 1.54875,0.3125 2.1,0.86125 l 40.8775,40.87625 c 0.54875,0.5525 0.8625,1.32125 0.8625,2.1 0,0.77875 -0.31375,1.55 -0.8625,2.1025 l -40.8775,40.86875 c -0.55625,0.55375 -1.31625,0.86875 -2.1,0.86875 -0.78375,0 -1.545,-0.315 -2.10125,-0.86875" />
    <path
       inkscape:connector-curvature="0"
       id="path3319"
       style="fill:#fccf34;fill-opacity:1;fill-rule:evenodd;stroke:none"
       d="m 296.17998,525.62282 c 0.24875,0.25125 0.6075,0.3975 0.95875,0.3975 0.3475,0 0.71625,-0.14625 0.96375,-0.3975 l 40.87,-40.87125 c 0.2475,-0.24875 0.39375,-0.60875 0.39375,-0.96 0,-0.34625 -0.14625,-0.715 -0.39375,-0.96375 l -40.87,-40.87 c -0.2525,-0.24875 -0.61,-0.3875 -0.96375,-0.3875 -0.35375,0.002 -0.70625,0.13875 -0.95875,0.3875 l -40.875,40.87 c -0.2475,0.24875 -0.395,0.6175 -0.395,0.96375 0,0.35125 0.1475,0.71125 0.395,0.96 l 40.875,40.87125 z" />
    <path
       inkscape:connector-curvature="0"
       id="path3323"
       style="fill:#ffffff;fill-opacity:1;fill-rule:evenodd;stroke:none"
       d="m 279.72123,488.68432 10.2075,-10.21 14.43375,0 10.21875,10.21 0,14.44375 -10.21875,10.2075 -14.43375,0 -10.2075,-10.2075 0,-14.44375 z" />
    <path
       inkscape:connector-curvature="0"
       id="path3327"
       style="fill:#c4122e;fill-opacity:1;fill-rule:evenodd;stroke:none"
       d="m 280.56711,489.04807 0,13.7325 9.72625,9.715 13.71625,0 9.7125,-9.715 0,-13.7325 -9.7125,-9.71 -13.71625,0 -9.72625,9.71 z" />
    <path
       inkscape:connector-curvature="0"
       id="path3331"
       style="fill:#231f20;fill-opacity:1;fill-rule:evenodd;stroke:none"
       d="m 302.58161,469.97094 -10.98875,0.0125 -0.0275,-10.1975 -9.6625,2.02875 c -0.31375,0.065 -0.44125,0.1025 -0.545,0.1025 -0.64875,-0.002 -1.245,-0.625 -1.24375,-1.275 0,-0.25875 -0.02,-0.45375 0.2875,-0.7275 l 16.65125,-14.81875 16.6075,14.84875 c 0.2625,0.23625 0.285,0.46875 0.285,0.72625 -10e-4,0.6775 -0.6,1.2725 -1.275,1.27 -0.10375,0 -0.12375,-0.0213 -0.36375,-0.0775 l -9.7525,-2.2125 0.0275,10.32 z" />
  </g>
</svg>
