<?xml version="1.0" encoding="UTF-8" standalone="no"?>
<!-- Created with Inkscape (http://www.inkscape.org/) -->

<svg
   xmlns:dc="http://purl.org/dc/elements/1.1/"
   xmlns:cc="http://creativecommons.org/ns#"
   xmlns:rdf="http://www.w3.org/1999/02/22-rdf-syntax-ns#"
   xmlns:svg="http://www.w3.org/2000/svg"
   xmlns="http://www.w3.org/2000/svg"
   xmlns:sodipodi="http://sodipodi.sourceforge.net/DTD/sodipodi-0.dtd"
   xmlns:inkscape="http://www.inkscape.org/namespaces/inkscape"
   width="90.626251"
   height="90.624687"
   id="svg8403"
   version="1.1"
   inkscape:version="0.48.1 "
   sodipodi:docname="New document 8">
  <defs
     id="defs8405" />
  <sodipodi:namedview
     id="base"
     pagecolor="#ffffff"
     bordercolor="#666666"
     borderopacity="1.0"
     inkscape:pageopacity="0.0"
     inkscape:pageshadow="2"
     inkscape:zoom="0.35"
     inkscape:cx="51.741692"
     inkscape:cy="5.3123399"
     inkscape:document-units="px"
     inkscape:current-layer="layer1"
     showgrid="false"
     fit-margin-top="0"
     fit-margin-left="0"
     fit-margin-right="0"
     fit-margin-bottom="0"
     inkscape:window-width="469"
     inkscape:window-height="403"
     inkscape:window-x="196"
     inkscape:window-y="107"
     inkscape:window-maximized="0" />
  <metadata
     id="metadata8408">
    <rdf:RDF>
      <cc:Work
         rdf:about="">
        <dc:format>image/svg+xml</dc:format>
        <dc:type
           rdf:resource="http://purl.org/dc/dcmitype/StillImage" />
        <dc:title></dc:title>
      </cc:Work>
    </rdf:RDF>
  </metadata>
  <g
     inkscape:label="Layer 1"
     inkscape:groupmode="layer"
     id="layer1"
     transform="translate(-323.25831,-447.04983)">
    <g
       id="g3389"
       transform="matrix(1.25,0,0,-1.25,324.77362,489.44796)">
      <path
         d="m 0,0 32.706,32.707 c 1.283,1.282 3.382,1.282 4.665,0 L 70.078,0 c 1.281,-1.282 1.281,-3.381 0,-4.664 L 37.371,-37.369 c -1.283,-1.283 -3.382,-1.283 -4.665,0 L 0,-4.664 C -1.283,-3.381 -1.283,-1.282 0,0"
         style="fill:#fccf34;fill-opacity:1;fill-rule:nonzero;stroke:none"
         id="path3391"
         inkscape:connector-curvature="0" />
    </g>
    <g
       id="g3393"
       transform="matrix(1.25,0,0,-1.25,324.77362,489.44796)">
      <path
         d="m 0,0 32.706,32.707 c 1.283,1.282 3.382,1.282 4.665,0 L 70.078,0 c 1.281,-1.282 1.281,-3.381 0,-4.664 L 37.371,-37.369 c -1.283,-1.283 -3.382,-1.283 -4.665,0 L 0,-4.664 C -1.283,-3.381 -1.283,-1.282 0,0 z"
         style="fill:none;stroke:#231f20;stroke-width:0.5;stroke-linecap:butt;stroke-linejoin:miter;stroke-miterlimit:4;stroke-opacity:1;stroke-dasharray:none"
         id="path3395"
         inkscape:connector-curvature="0" />
    </g>
    <g
       id="g3397"
       transform="matrix(1.25,0,0,-1.25,325.55112,490.22684)">
      <path
         d="m 0,0 32.707,32.707 c 0.94,0.939 2.479,0.939 3.419,0 L 68.833,0 c 0.939,-0.939 0.939,-2.477 0,-3.418 L 36.126,-36.125 c -0.94,-0.939 -2.479,-0.939 -3.419,0 L 0,-3.418 C -0.94,-2.477 -0.94,-0.939 0,0"
         style="fill:#231f20;fill-opacity:1;fill-rule:evenodd;stroke:none"
         id="path3399"
         inkscape:connector-curvature="0" />
    </g>
    <g
       id="g3401"
       transform="matrix(1.25,0,0,-1.25,326.71987,491.39384)">
      <path
         d="m 0,0 32.706,32.706 c 0.426,0.427 1.123,0.427 1.549,0 L 66.962,0 c 0.428,-0.427 0.428,-1.123 0,-1.549 L 34.255,-34.256 c -0.426,-0.426 -1.123,-0.426 -1.549,0 L 0,-1.549 C -0.426,-1.123 -0.426,-0.427 0,0"
         style="fill:#fccf34;fill-opacity:1;fill-rule:evenodd;stroke:none"
         id="path3403"
         inkscape:connector-curvature="0" />
    </g>
    <path
       d="m 357.56012,461.94246 22.0225,0 0,60.55625 -22.0225,0 0,-60.55625 z"
       style="fill:#231f20;fill-opacity:1;fill-rule:evenodd;stroke:none"
       id="path3405"
       inkscape:connector-curvature="0" />
    <g
       id="g3407"
       transform="matrix(1.25,0,0,-1.25,368.55237,464.81184)">
      <path
         d="m 0,0 c 3.639,0 6.606,-2.967 6.606,-6.605 0,-3.639 -2.967,-6.606 -6.606,-6.606 -3.639,0 -6.607,2.967 -6.607,6.606 C -6.607,-2.967 -3.639,0 0,0"
         style="fill:#c4122e;fill-opacity:1;fill-rule:evenodd;stroke:none"
         id="path3409"
         inkscape:connector-curvature="0" />
    </g>
    <g
       id="g3411"
       transform="matrix(1.25,0,0,-1.25,368.54237,483.97071)">
      <path
         d="m 0,0 c 3.639,0 6.606,-2.968 6.606,-6.606 0,-3.639 -2.967,-6.606 -6.606,-6.606 -3.639,0 -6.606,2.967 -6.606,6.606 C -6.606,-2.968 -3.639,0 0,0"
         style="fill:#fccf34;fill-opacity:1;fill-rule:evenodd;stroke:none"
         id="path3413"
         inkscape:connector-curvature="0" />
    </g>
    <g
       id="g3415"
       transform="matrix(1.25,0,0,-1.25,368.55237,503.29809)">
      <path
         d="m 0,0 c 3.639,0 6.606,-2.969 6.606,-6.606 0,-3.638 -2.967,-6.607 -6.606,-6.607 -3.639,0 -6.607,2.969 -6.607,6.607 C -6.607,-2.969 -3.639,0 0,0"
         style="fill:#00674c;fill-opacity:1;fill-rule:evenodd;stroke:none"
         id="path3417"
         inkscape:connector-curvature="0" />
    </g>
  </g>
</svg>
