<?xml version="1.0" encoding="UTF-8" standalone="no"?>
<!-- Created with Inkscape (http://www.inkscape.org/) -->

<svg
   xmlns:dc="http://purl.org/dc/elements/1.1/"
   xmlns:cc="http://creativecommons.org/ns#"
   xmlns:rdf="http://www.w3.org/1999/02/22-rdf-syntax-ns#"
   xmlns:svg="http://www.w3.org/2000/svg"
   xmlns="http://www.w3.org/2000/svg"
   xmlns:sodipodi="http://sodipodi.sourceforge.net/DTD/sodipodi-0.dtd"
   xmlns:inkscape="http://www.inkscape.org/namespaces/inkscape"
   width="135.62437"
   height="135.62563"
   id="svg3696"
   version="1.1"
   inkscape:version="0.48.1 "
   sodipodi:docname="New document 7">
  <defs
     id="defs3698">
    <clipPath
       clipPathUnits="userSpaceOnUse"
       id="clipPath3295">
      <path
         inkscape:connector-curvature="0"
         d="m 306.453,67.006 233.047,0 0,161.094 -233.047,0 0,-161.094 z"
         id="path3297" />
    </clipPath>
    <clipPath
       clipPathUnits="userSpaceOnUse"
       id="clipPath3279">
      <path
         inkscape:connector-curvature="0"
         d="m 311.334,71.386 223.283,0 0,152.334 -223.283,0 0,-152.334 z"
         id="path3281" />
    </clipPath>
  </defs>
  <sodipodi:namedview
     id="base"
     pagecolor="#ffffff"
     bordercolor="#666666"
     borderopacity="1.0"
     inkscape:pageopacity="0.0"
     inkscape:pageshadow="2"
     inkscape:zoom="0.35"
     inkscape:cx="-57.187815"
     inkscape:cy="-43.615763"
     inkscape:document-units="px"
     inkscape:current-layer="layer1"
     showgrid="false"
     fit-margin-top="0"
     fit-margin-left="0"
     fit-margin-right="0"
     fit-margin-bottom="0"
     inkscape:window-width="469"
     inkscape:window-height="403"
     inkscape:window-x="529"
     inkscape:window-y="147"
     inkscape:window-maximized="0" />
  <metadata
     id="metadata3701">
    <rdf:RDF>
      <cc:Work
         rdf:about="">
        <dc:format>image/svg+xml</dc:format>
        <dc:type
           rdf:resource="http://purl.org/dc/dcmitype/StillImage" />
        <dc:title></dc:title>
      </cc:Work>
    </rdf:RDF>
  </metadata>
  <g
     inkscape:label="Layer 1"
     inkscape:groupmode="layer"
     id="layer1"
     transform="translate(-432.18781,-353.1208)">
    <g
       transform="matrix(1.25,0,0,-1.25,-100.45906,595.15417)"
       id="g3275">
      <g
         id="g3277"
         clip-path="url(#clipPath3279)">
        <g
           id="g3283"
           transform="translate(427.9125,143.1232)">
          <path
             inkscape:connector-curvature="0"
             d="m 0,0 48.707,48.707 c 2.061,2.062 5.432,2.062 7.494,0 L 104.908,0 c 2.063,-2.061 2.063,-5.434 0,-7.494 L 56.201,-56.202 c -2.062,-2.06 -5.433,-2.06 -7.494,0 L 0,-7.494 C -2.06,-5.434 -2.06,-2.061 0,0"
             style="fill:#fccf34;fill-opacity:1;fill-rule:nonzero;stroke:none"
             id="path3285" />
        </g>
        <g
           id="g3287"
           transform="translate(427.9125,143.1232)">
          <path
             inkscape:connector-curvature="0"
             d="m 0,0 48.707,48.707 c 2.061,2.062 5.432,2.062 7.494,0 L 104.908,0 c 2.063,-2.061 2.063,-5.434 0,-7.494 L 56.201,-56.202 c -2.062,-2.06 -5.433,-2.06 -7.494,0 L 0,-7.494 C -2.06,-5.434 -2.06,-2.061 0,0 z"
             style="fill:none;stroke:#231f20;stroke-width:0.5;stroke-linecap:butt;stroke-linejoin:miter;stroke-miterlimit:4;stroke-opacity:1;stroke-dasharray:none"
             id="path3289" />
        </g>
      </g>
    </g>
    <g
       transform="matrix(1.25,0,0,-1.25,-100.45906,595.15417)"
       id="g3291">
      <g
         id="g3293"
         clip-path="url(#clipPath3295)">
        <g
           id="g3299"
           transform="translate(429.0885,142.3493)">
          <path
             inkscape:connector-curvature="0"
             d="m 0,0 48.307,48.307 c 1.634,1.634 4.31,1.634 5.947,0 L 102.559,0 c 1.634,-1.636 1.634,-4.311 0,-5.945 L 54.254,-54.253 c -1.637,-1.634 -4.313,-1.634 -5.947,0 L 0,-5.945 C -1.635,-4.311 -1.635,-1.636 0,0"
             style="fill:#231f20;fill-opacity:1;fill-rule:evenodd;stroke:none"
             id="path3301" />
        </g>
        <g
           id="g3303"
           transform="translate(430.5965,140.8615)">
          <path
             inkscape:connector-curvature="0"
             d="m 0,0 48.285,48.284 c 0.814,0.818 2.154,0.818 2.971,0 L 99.541,0 c 0.816,-0.816 0.816,-2.154 0,-2.971 L 51.256,-51.255 c -0.817,-0.818 -2.157,-0.818 -2.971,0 L 0,-2.971 C -0.817,-2.154 -0.817,-0.816 0,0"
             style="fill:#fccf34;fill-opacity:1;fill-rule:evenodd;stroke:none"
             id="path3305" />
        </g>
        <g
           id="g3307"
           transform="translate(519.2735,133.5979)">
          <path
             inkscape:connector-curvature="0"
             d="m 0,0 0,1.62 -4.212,0 0,3.78 2.377,0 0,1.566 -2.377,0 0,2.916 3.781,0 0,1.62 -5.401,0 L -5.832,0 0,0 z m -8.316,0 0,11.502 -1.674,0 0,-6.912 -3.133,6.912 -1.673,0 0,-11.502 1.673,0 0,7.668 L -9.558,0 -8.316,0 z m -10.367,5.724 c 0,-1.296 -0.055,-1.944 -0.379,-2.862 -0.27,-0.972 -0.701,-1.458 -1.404,-1.458 -0.702,0 -1.188,0.486 -1.457,1.458 -0.217,0.918 -0.379,1.62 -0.379,2.862 0,1.242 0.107,2.052 0.379,2.916 0.269,0.972 0.755,1.404 1.457,1.404 0.703,0 1.134,-0.432 1.404,-1.458 0.269,-0.81 0.379,-1.566 0.379,-2.862 m 1.564,0 c 0,1.728 -0.16,2.862 -0.646,3.996 -0.541,1.404 -1.352,1.944 -2.701,1.944 -1.35,0 -2.16,-0.54 -2.754,-1.944 -0.487,-1.08 -0.649,-2.268 -0.649,-3.996 0,-1.728 0.162,-2.808 0.649,-3.942 0.594,-1.35 1.404,-1.998 2.754,-1.998 1.297,0 2.16,0.648 2.701,1.998 0.486,1.08 0.646,2.214 0.646,3.942 M -25.595,0 l 0,1.566 -4.645,0 4.645,8.91 0,1.026 -5.887,0 0,-1.62 3.834,0 -4.32,-8.1 0,-1.782 6.373,0 z m -15.336,5.724 c 0,-0.918 -0.11,-1.728 -0.162,-2.43 -0.162,-0.918 -0.703,-1.674 -1.674,-1.674 l -1.352,0 0,8.262 1.352,0 c 0.701,0 1.187,-0.378 1.512,-1.188 0.162,-0.486 0.324,-1.728 0.324,-2.97 m 1.619,0 c 0,0.918 -0.162,1.89 -0.324,2.754 -0.162,1.188 -0.647,2.052 -1.35,2.538 -0.432,0.324 -0.918,0.486 -1.89,0.486 l -2.917,0 0,-11.502 3.188,0 c 0.646,0 1.187,0.162 1.619,0.54 1.135,0.864 1.674,2.592 1.674,5.184 M -47.736,0 l 0,1.62 -4.213,0 0,3.78 2.377,0 0,1.566 -2.377,0 0,2.916 3.781,0 0,1.62 -5.455,0 0,-11.502 5.887,0 z m -7.83,0 0,1.62 -4.211,0 0,3.78 2.43,0 0,1.566 -2.43,0 0,2.916 3.779,0 0,1.62 -5.4,0 0,-11.502 5.832,0 z m -9.018,8.262 c 0,-1.08 -0.541,-1.674 -1.511,-1.674 l -1.729,0 0,3.294 1.729,0 c 0.863,0 1.511,-0.648 1.511,-1.62 m 1.567,0 c 0,1.944 -1.19,3.24 -3.026,3.24 l -3.402,0 0,-11.502 1.621,0 0,5.076 1.781,0 c 1.946,0 3.026,1.08 3.026,3.186 m -8.371,-5.13 c 0,1.674 -0.971,2.862 -3.186,4.158 -0.863,0.486 -1.135,0.81 -1.135,1.404 0,0.756 0.649,1.35 1.405,1.35 0.703,0 1.297,-0.54 1.297,-1.35 l 1.619,0 c -0.053,1.728 -1.295,2.97 -2.916,2.97 -1.674,0 -2.969,-1.296 -2.969,-2.97 0,-1.026 0.484,-1.89 1.402,-2.538 2.377,-1.566 1.729,-1.08 1.946,-1.35 0.701,-0.54 0.918,-1.026 0.918,-1.674 0,-0.918 -0.703,-1.728 -1.567,-1.728 -1.135,0 -1.621,1.026 -1.621,1.998 l -1.619,0 c 0,-1.89 1.188,-3.618 3.24,-3.618 1.729,0 3.186,1.512 3.186,3.348"
             style="fill:#231f20;fill-opacity:1;fill-rule:evenodd;stroke:none"
             id="path3309" />
        </g>
        <g
           id="g3311"
           transform="translate(501.0225,152.6603)">
          <path
             inkscape:connector-curvature="0"
             d="m 0,0 0,11.556 -1.622,0 0,-4.698 -3.185,0 0,4.698 -1.674,0 0,-11.556 1.674,0 0,5.238 3.185,0 L -1.622,0 0,0 z m -9.667,8.316 c 0,-1.08 -0.486,-1.674 -1.458,-1.674 l -1.727,0 0,3.294 1.727,0 c 0.865,0 1.458,-0.648 1.458,-1.62 m 1.62,0 c 0,1.944 -1.188,3.24 -3.024,3.24 l -3.455,0 0,-11.556 1.674,0 0,5.075 1.781,0 c 1.944,0 3.024,1.135 3.024,3.241 M -17.01,0 l 0,11.556 -1.674,0 -2.053,-6.481 -2.16,6.481 -1.674,0 0,-11.556 1.674,0 0,6.479 2.16,-6.479 2.053,6.479 0,-6.479 1.674,0 z m -13.231,4.05 c 0,2.214 -1.297,3.672 -3.133,3.672 -0.431,0 -0.755,0 -1.294,-0.216 l 0.107,2.43 3.889,0 0,1.62 -5.401,0 -0.324,-5.779 1.621,-0.161 c 0.377,0.324 0.809,0.54 1.35,0.54 0.97,0 1.566,-0.757 1.566,-1.998 0,-1.62 -0.865,-2.7 -2.107,-2.7 -0.594,0 -1.026,0.162 -1.619,0.54 L -36.667,0.81 c 0.864,-0.648 1.836,-1.026 2.862,-1.026 2.053,0 3.564,1.836 3.564,4.266 m -10.476,0.269 -2.754,0 2.754,4.374 0,-4.374 z m 2.377,-1.511 0,1.511 -0.703,0 0,7.237 -1.674,0 -4.752,-7.56 0,-1.188 4.752,0 0,-2.808 1.674,0 0,2.808 0.703,0 z"
             style="fill:#231f20;fill-opacity:1;fill-rule:evenodd;stroke:none"
             id="path3313" />
        </g>
        <g
           id="g3315"
           transform="translate(498.8075,120.2059)">
          <path
             inkscape:connector-curvature="0"
             d="m 0,0 c 0,-0.864 -0.108,-1.674 -0.162,-2.43 -0.163,-0.864 -0.702,-1.62 -1.674,-1.62 l -1.35,0 0,8.262 1.35,0 c 0.703,0 1.187,-0.378 1.511,-1.188 C -0.162,2.538 0,1.296 0,0 m 1.621,0.108 c 0,0.864 -0.162,1.89 -0.324,2.754 C 1.134,3.996 0.648,4.914 -0.053,5.4 -0.487,5.724 -0.971,5.832 -1.889,5.832 l -2.971,0 0,-11.502 3.186,0 c 0.648,0 1.187,0.162 1.621,0.486 1.133,0.918 1.674,2.592 1.674,5.292 m -10.963,-1.026 -1.619,0 0.808,3.294 0.811,-3.294 z m 2.916,-4.752 -2.916,11.502 -1.619,0 -2.864,-11.502 1.674,0 0.758,3.132 2.483,0 0.81,-3.132 1.674,0 z m -8.424,0 0,1.62 -4.158,0 0,3.78 2.322,0 0,1.566 -2.322,0 0,2.916 3.726,0 0,1.62 -5.4,0 0,-11.502 5.832,0 z m -8.262,0 0,11.502 -1.673,0 0,-4.698 -3.186,0 0,4.698 -1.621,0 0,-11.502 1.621,0 0,5.184 3.186,0 0,-5.184 1.673,0 z m -10.963,4.752 -1.619,0 0.811,3.294 0.808,-3.294 z m 2.864,-4.752 -2.864,11.502 -1.619,0 -2.861,-11.502 1.674,0 0.756,3.132 2.484,0 0.809,-3.132 1.621,0 z"
             style="fill:#231f20;fill-opacity:1;fill-rule:evenodd;stroke:none"
             id="path3317" />
        </g>
      </g>
    </g>
  </g>
</svg>
