<?xml version="1.0" encoding="UTF-8" standalone="no"?>
<!-- Created with Inkscape (http://www.inkscape.org/) -->

<svg
   xmlns:dc="http://purl.org/dc/elements/1.1/"
   xmlns:cc="http://creativecommons.org/ns#"
   xmlns:rdf="http://www.w3.org/1999/02/22-rdf-syntax-ns#"
   xmlns:svg="http://www.w3.org/2000/svg"
   xmlns="http://www.w3.org/2000/svg"
   xmlns:sodipodi="http://sodipodi.sourceforge.net/DTD/sodipodi-0.dtd"
   xmlns:inkscape="http://www.inkscape.org/namespaces/inkscape"
   width="90.625938"
   height="90.624062"
   id="svg8680"
   version="1.1"
   inkscape:version="0.48.1 "
   sodipodi:docname="New document 15">
  <defs
     id="defs8682" />
  <sodipodi:namedview
     id="base"
     pagecolor="#ffffff"
     bordercolor="#666666"
     borderopacity="1.0"
     inkscape:pageopacity="0.0"
     inkscape:pageshadow="2"
     inkscape:zoom="0.35"
     inkscape:cx="257.45583"
     inkscape:cy="62.454892"
     inkscape:document-units="px"
     inkscape:current-layer="layer1"
     showgrid="false"
     fit-margin-top="0"
     fit-margin-left="0"
     fit-margin-right="0"
     fit-margin-bottom="0"
     inkscape:window-width="469"
     inkscape:window-height="403"
     inkscape:window-x="479"
     inkscape:window-y="33"
     inkscape:window-maximized="0" />
  <metadata
     id="metadata8685">
    <rdf:RDF>
      <cc:Work
         rdf:about="">
        <dc:format>image/svg+xml</dc:format>
        <dc:type
           rdf:resource="http://purl.org/dc/dcmitype/StillImage" />
        <dc:title></dc:title>
      </cc:Work>
    </rdf:RDF>
  </metadata>
  <g
     inkscape:label="Layer 1"
     inkscape:groupmode="layer"
     id="layer1"
     transform="translate(-117.54417,-504.19301)">
    <g
       id="g3689"
       transform="matrix(1.25,0,0,-1.25,206.6473,546.5852)">
      <path
         d="m 0,0 c 1.291,-1.29 1.291,-3.381 0,-4.671 l -32.698,-32.697 c -1.289,-1.29 -3.381,-1.29 -4.67,0 l -32.697,32.697 c -1.29,1.29 -1.29,3.381 0,4.671 l 32.697,32.697 c 1.289,1.289 3.381,1.289 4.67,0 L 0,0 z"
         style="fill:#fccf34;fill-opacity:1;fill-rule:nonzero;stroke:none"
         id="path3691"
         inkscape:connector-curvature="0" />
    </g>
    <g
       id="g3693"
       transform="matrix(1.25,0,0,-1.25,206.6473,546.5852)">
      <path
         d="m 0,0 c 1.291,-1.29 1.291,-3.381 0,-4.671 l -32.698,-32.697 c -1.289,-1.29 -3.381,-1.29 -4.67,0 l -32.697,32.697 c -1.29,1.29 -1.29,3.381 0,4.671 l 32.697,32.697 c 1.289,1.289 3.381,1.289 4.67,0 L 0,0 z"
         style="fill:none;stroke:#231f20;stroke-width:0.5;stroke-linecap:butt;stroke-linejoin:miter;stroke-miterlimit:4;stroke-opacity:1;stroke-dasharray:none"
         id="path3695"
         inkscape:connector-curvature="0" />
    </g>
    <g
       id="g3697"
       transform="matrix(1.25,0,0,-1.25,204.70105,550.4777)">
      <path
         d="m 0,0 -32.697,-32.698 c -0.429,-0.428 -1.127,-0.428 -1.557,0 L -66.951,0 c -0.43,0.428 -0.43,1.127 0,1.557 l 32.697,32.697 c 0.43,0.429 1.128,0.429 1.557,0 L 0,1.557 C 0.43,1.127 0.43,0.428 0,0 m 0.908,2.465 -32.697,32.698 c -0.93,0.929 -2.444,0.929 -3.373,0 L -67.86,2.465 c -0.929,-0.93 -0.929,-2.443 0,-3.374 l 32.698,-32.697 c 0.929,-0.93 2.443,-0.93 3.373,0 L 0.908,-0.909 c 0.93,0.931 0.93,2.444 0,3.374"
         style="fill:#231f20;fill-opacity:1;fill-rule:nonzero;stroke:none"
         id="path3699"
         inkscape:connector-curvature="0" />
    </g>
    <g
       id="g3701"
       transform="matrix(1.25,0,0,-1.25,153.12105,537.5352)">
      <path
         d="m 0,0 -1.221,0 -1.169,3.197 -1.383,0 0,-3.197 -1.135,0 0,7.299 2.742,0 c 0.565,0 1.049,-0.201 1.451,-0.604 0.403,-0.4 0.604,-0.882 0.604,-1.447 0,-0.39 -0.104,-0.751 -0.311,-1.084 C -0.627,3.83 -0.902,3.578 -1.246,3.408 L 0,0 z m -3.773,4.332 1.603,0 c 0.253,0 0.469,0.09 0.647,0.268 0.177,0.177 0.267,0.394 0.267,0.648 0,0.248 -0.09,0.463 -0.267,0.645 -0.178,0.179 -0.394,0.27 -0.647,0.27 l -1.603,0 0,-1.831"
         style="fill:#231f20;fill-opacity:1;fill-rule:nonzero;stroke:none"
         id="path3703"
         inkscape:connector-curvature="0" />
    </g>
    <g
       id="g3705"
       transform="matrix(1.25,0,0,-1.25,162.4598,537.5352)">
      <path
         d="m 0,0 -1.199,0 -0.71,2.051 -2.286,0 L -4.906,0 l -1.2,0 2.484,7.299 1.138,0 L 0,0 z m -2.309,3.186 -0.744,2.224 -0.769,-2.224 1.513,0 z"
         style="fill:#231f20;fill-opacity:1;fill-rule:nonzero;stroke:none"
         id="path3707"
         inkscape:connector-curvature="0" />
    </g>
    <g
       id="g3709"
       transform="matrix(1.25,0,0,-1.25,171.2298,537.5352)">
      <path
         d="m 0,0 -1.135,0 0,4.222 -1.69,-4.222 -1.691,4.188 0,-4.188 -1.135,0 0,7.299 1.125,0 L -2.819,3.07 -1.127,7.299 0,7.299 0,0 z"
         style="fill:#231f20;fill-opacity:1;fill-rule:nonzero;stroke:none"
         id="path3711"
         inkscape:connector-curvature="0" />
    </g>
    <g
       id="g3713"
       transform="matrix(1.25,0,0,-1.25,173.3773,528.41145)">
      <path
         d="M 0,0 2.854,0 C 3.418,0 3.901,-0.201 4.303,-0.602 4.705,-1.002 4.905,-1.485 4.905,-2.047 4.905,-2.615 4.705,-3.1 4.303,-3.5 3.901,-3.901 3.416,-4.102 2.852,-4.102 l -1.717,0 0,-3.197 L 0,-7.299 0,0 z m 1.135,-1.136 0,-1.831 1.721,0 c 0.248,0 0.463,0.09 0.644,0.268 0.18,0.177 0.27,0.394 0.27,0.648 0,0.248 -0.09,0.463 -0.27,0.645 -0.181,0.179 -0.396,0.27 -0.644,0.27 l -1.721,0"
         style="fill:#231f20;fill-opacity:1;fill-rule:nonzero;stroke:none"
         id="path3715"
         inkscape:connector-curvature="0" />
    </g>
    <g
       id="g3717"
       transform="matrix(1.25,0,0,-1.25,151.0948,568.7427)">
      <path
         d="m 0,0 -1.199,0 -0.711,2.051 -2.286,0 -0.71,-2.051 -1.199,0 2.482,7.298 1.14,0 L 0,0 z m -2.308,3.186 -0.745,2.225 -0.769,-2.225 1.514,0 z"
         style="fill:#231f20;fill-opacity:1;fill-rule:nonzero;stroke:none"
         id="path3719"
         inkscape:connector-curvature="0" />
    </g>
    <g
       id="g3721"
       transform="matrix(1.25,0,0,-1.25,158.9348,568.7427)">
      <path
         d="m 0,0 -1.136,0 0,3.198 -2.636,0 0,-3.198 -1.135,0 0,7.298 1.135,0 0,-2.965 2.636,0 0,2.965 L 0,7.298 0,0 z"
         style="fill:#231f20;fill-opacity:1;fill-rule:nonzero;stroke:none"
         id="path3723"
         inkscape:connector-curvature="0" />
    </g>
    <g
       id="g3725"
       transform="matrix(1.25,0,0,-1.25,166.6398,567.32395)">
      <path
         d="m 0,0 0,-1.135 -4.448,0 0,7.298 4.221,0 0,-1.135 -3.086,0 0,-1.83 2.111,0 0,-1.135 -2.111,0 L -3.313,0 0,0 z"
         style="fill:#231f20;fill-opacity:1;fill-rule:nonzero;stroke:none"
         id="path3727"
         inkscape:connector-curvature="0" />
    </g>
    <g
       id="g3729"
       transform="matrix(1.25,0,0,-1.25,175.41355,568.7427)">
      <path
         d="m 0,0 -1.199,0 -0.711,2.051 -2.287,0 L -4.906,0 l -1.199,0 2.482,7.298 1.139,0 L 0,0 z m -2.308,3.186 -0.745,2.225 -0.771,-2.225 1.516,0 z"
         style="fill:#231f20;fill-opacity:1;fill-rule:nonzero;stroke:none"
         id="path3731"
         inkscape:connector-curvature="0" />
    </g>
    <g
       id="g3733"
       transform="matrix(1.25,0,0,-1.25,177.1198,568.7427)">
      <path
         d="m 0,0 0,7.298 2.043,0 C 2.998,7.298 3.731,6.909 4.241,6.13 4.684,5.469 4.905,4.635 4.905,3.628 4.905,2.659 4.676,1.837 4.219,1.16 3.694,0.388 2.965,0 2.036,0 L 0,0 z m 1.135,1.135 0.901,0 c 0.634,0 1.097,0.275 1.39,0.826 C 3.655,2.385 3.77,2.941 3.77,3.628 3.77,4.349 3.637,4.931 3.368,5.374 3.188,5.671 3.008,5.873 2.832,5.981 2.643,6.103 2.377,6.163 2.036,6.163 l -0.901,0 0,-5.028"
         style="fill:#231f20;fill-opacity:1;fill-rule:nonzero;stroke:none"
         id="path3735"
         inkscape:connector-curvature="0" />
    </g>
    <g
       id="g3737"
       transform="matrix(1.25,0,0,-1.25,148.7748,549.21895)">
      <path
         d="m 0,0 1.69,4.199 1.172,0 0,-7.34 -1.172,0 -0.006,4.206 -1.689,-4.206 -1.69,4.206 0,-4.206 -1.172,0 0,7.34 1.176,0 L 0,0 z"
         style="fill:#231f20;fill-opacity:1;fill-rule:nonzero;stroke:none"
         id="path3739"
         inkscape:connector-curvature="0" />
    </g>
    <g
       id="g3741"
       transform="matrix(1.25,0,0,-1.25,160.23855,553.1452)">
      <path
         d="m 0,0 -4.551,0 0,7.34 4.404,0 0,-1.172 -3.232,0 0,-1.764 2.234,0 0,-1.172 -2.234,0 0,-2.059 L 0,1.173 0,0 z"
         style="fill:#231f20;fill-opacity:1;fill-rule:nonzero;stroke:none"
         id="path3743"
         inkscape:connector-curvature="0" />
    </g>
    <g
       id="g3745"
       transform="matrix(1.25,0,0,-1.25,166.67105,545.4352)">
      <path
         d="m 0,0 -1.687,0 0,-6.168 -1.172,0 0,6.168 -1.692,0 0,1.172 L 0,1.172 0,0 z"
         style="fill:#231f20;fill-opacity:1;fill-rule:nonzero;stroke:none"
         id="path3747"
         inkscape:connector-curvature="0" />
    </g>
    <g
       id="g3749"
       transform="matrix(1.25,0,0,-1.25,173.7248,553.1452)">
      <path
         d="m 0,0 -4.551,0 0,7.34 4.404,0 0,-1.172 -3.232,0 0,-1.764 2.234,0 0,-1.172 -2.234,0 0,-2.059 L 0,1.173 0,0 z"
         style="fill:#231f20;fill-opacity:1;fill-rule:nonzero;stroke:none"
         id="path3751"
         inkscape:connector-curvature="0" />
    </g>
    <g
       id="g3753"
       transform="matrix(1.25,0,0,-1.25,179.9348,546.51895)">
      <path
         d="m 0,0 c 0,0.245 -0.082,0.451 -0.246,0.617 -0.164,0.166 -0.369,0.25 -0.613,0.25 l -1.689,0 0,-1.764 1.689,0 c 0.244,0 0.449,0.087 0.613,0.261 C -0.082,-0.462 0,-0.25 0,0 m 1.27,-5.301 -1.24,0 -1.182,3.232 -1.396,0 0,-3.232 -1.172,0 0,7.34 2.853,0 c 0.563,0 1.043,-0.2 1.442,-0.598 0.398,-0.399 0.597,-0.88 0.597,-1.442 0,-0.823 -0.388,-1.439 -1.164,-1.85 l 1.262,-3.45 z"
         style="fill:#231f20;fill-opacity:1;fill-rule:nonzero;stroke:none"
         id="path3755"
         inkscape:connector-curvature="0" />
    </g>
  </g>
</svg>
