<?xml version="1.0" encoding="UTF-8" standalone="no"?>
<!-- Created with Inkscape (http://www.inkscape.org/) -->

<svg
   xmlns:dc="http://purl.org/dc/elements/1.1/"
   xmlns:cc="http://creativecommons.org/ns#"
   xmlns:rdf="http://www.w3.org/1999/02/22-rdf-syntax-ns#"
   xmlns:svg="http://www.w3.org/2000/svg"
   xmlns="http://www.w3.org/2000/svg"
   xmlns:sodipodi="http://sodipodi.sourceforge.net/DTD/sodipodi-0.dtd"
   xmlns:inkscape="http://www.inkscape.org/namespaces/inkscape"
   width="90.625"
   height="90.625313"
   id="svg8797"
   version="1.1"
   inkscape:version="0.48.1 "
   sodipodi:docname="New document 17">
  <defs
     id="defs8799" />
  <sodipodi:namedview
     id="base"
     pagecolor="#ffffff"
     bordercolor="#666666"
     borderopacity="1.0"
     inkscape:pageopacity="0.0"
     inkscape:pageshadow="2"
     inkscape:zoom="0.35"
     inkscape:cx="231.74107"
     inkscape:cy="-71.830198"
     inkscape:document-units="px"
     inkscape:current-layer="layer1"
     showgrid="false"
     fit-margin-top="0"
     fit-margin-left="0"
     fit-margin-right="0"
     fit-margin-bottom="0"
     inkscape:window-width="469"
     inkscape:window-height="403"
     inkscape:window-x="492"
     inkscape:window-y="76"
     inkscape:window-maximized="0" />
  <metadata
     id="metadata8802">
    <rdf:RDF>
      <cc:Work
         rdf:about="">
        <dc:format>image/svg+xml</dc:format>
        <dc:type
           rdf:resource="http://purl.org/dc/dcmitype/StillImage" />
        <dc:title></dc:title>
      </cc:Work>
    </rdf:RDF>
  </metadata>
  <g
     inkscape:label="Layer 1"
     inkscape:groupmode="layer"
     id="layer1"
     transform="translate(-143.25893,-369.90667)">
    <path
       inkscape:connector-curvature="0"
       id="path3771"
       style="fill:#fccf34;fill-opacity:1;fill-rule:nonzero;stroke:none"
       d="m 232.36112,412.30011 c 1.61375,1.6125 1.61375,4.22625 0,5.83875 l -40.87125,40.87125 c -1.6125,1.6125 -4.22625,1.6125 -5.8375,0 l -40.8725,-40.87125 c -1.61125,-1.6125 -1.61125,-4.22625 0,-5.83875 l 40.8725,-40.8725 c 1.61125,-1.61125 4.225,-1.61125 5.8375,0 l 40.87125,40.8725 z" />
    <path
       inkscape:connector-curvature="0"
       id="path3775"
       style="fill:none;stroke:#231f20;stroke-width:0.625;stroke-linecap:butt;stroke-linejoin:miter;stroke-miterlimit:4;stroke-opacity:1;stroke-dasharray:none"
       d="m 232.36112,412.30011 c 1.61375,1.6125 1.61375,4.22625 0,5.83875 l -40.87125,40.87125 c -1.6125,1.6125 -4.22625,1.6125 -5.8375,0 l -40.8725,-40.87125 c -1.61125,-1.6125 -1.61125,-4.22625 0,-5.83875 l 40.8725,-40.8725 c 1.61125,-1.61125 4.225,-1.61125 5.8375,0 l 40.87125,40.8725 z" />
    <path
       inkscape:connector-curvature="0"
       id="path3779"
       style="fill:#231f20;fill-opacity:1;fill-rule:nonzero;stroke:none"
       d="m 230.41487,416.19261 -40.87125,40.87125 c -0.535,0.53625 -1.40875,0.53625 -1.94625,0 l -40.8725,-40.87125 c -0.53625,-0.53625 -0.53625,-1.41 0,-1.9475 l 40.8725,-40.87125 c 0.5375,-0.53625 1.41125,-0.53625 1.94625,0 l 40.87125,40.87125 c 0.5375,0.5375 0.5375,1.41125 0,1.9475 m 1.135,-3.0825 -40.87125,-40.87125 c -1.1625,-1.1625 -3.05375,-1.1625 -4.21625,0 l -40.8725,40.87125 c -1.16125,1.16375 -1.16125,3.055 0,4.2175 l 40.8725,40.87125 c 1.1625,1.1625 3.05375,1.1625 4.21625,0 l 40.87125,-40.87125 c 1.1625,-1.1625 1.1625,-3.05375 0,-4.2175" />
    <path
       inkscape:connector-curvature="0"
       id="path3783"
       style="fill:#231f20;fill-opacity:1;fill-rule:nonzero;stroke:none"
       d="m 180.88862,396.83636 -1.22125,0 -1.19125,-3.21125 -1.36125,0 0,3.21125 -1.145,0 0,-7.32125 2.74125,0 c 0.56625,0 1.05,0.20125 1.4525,0.605 0.4025,0.4025 0.6025,0.88625 0.6025,1.4525 0,0.39 -0.1025,0.75125 -0.3125,1.08625 -0.2075,0.33375 -0.485,0.58875 -0.8325,0.7575 l 1.2675,3.42 z m -3.77375,-4.35625 1.60125,0 c 0.25375,0 0.46875,-0.09 0.64625,-0.26875 0.17875,-0.1775 0.26625,-0.39375 0.26625,-0.64875 0,-0.24875 -0.0875,-0.46375 -0.26625,-0.645 -0.1775,-0.18 -0.3925,-0.27125 -0.64625,-0.27125 l -1.60125,0 0,1.83375" />
    <path
       inkscape:connector-curvature="0"
       id="path3787"
       style="fill:#231f20;fill-opacity:1;fill-rule:nonzero;stroke:none"
       d="m 188.37862,396.83636 -1.19375,0 -0.7025,-2.06375 -2.3275,0 -0.7025,2.06375 -1.19375,0 2.4875,-7.32125 1.1425,0 2.49,7.32125 z m -2.28,-3.195 -0.78125,-2.29375 -0.77875,2.29375 1.56,0 z" />
    <path
       inkscape:connector-curvature="0"
       id="path3791"
       style="fill:#231f20;fill-opacity:1;fill-rule:nonzero;stroke:none"
       d="m 195.40237,396.83636 -1.1475,0 0,-4.2325 -1.67375,4.2325 -1.6875,-4.2325 0,4.2325 -1.1475,0 0,-7.32125 1.1325,0 1.6975,4.25625 1.68375,-4.25625 1.1425,0 0,7.32125 z" />
    <path
       inkscape:connector-curvature="0"
       id="path3795"
       style="fill:#231f20;fill-opacity:1;fill-rule:nonzero;stroke:none"
       d="m 197.13362,389.51511 2.86375,0 c 0.56625,0 1.05,0.20125 1.455,0.6025 0.40125,0.4025 0.60375,0.88625 0.60375,1.45 0,0.56875 -0.2025,1.055 -0.60375,1.45625 -0.4025,0.40125 -0.88625,0.60125 -1.4525,0.60125 l -1.71875,0 0,3.21125 -1.1475,0 0,-7.32125 z m 1.1475,1.13125 0,1.83375 1.71625,0 c 0.24625,0 0.46125,-0.09 0.6425,-0.26875 0.18,-0.1775 0.26875,-0.39375 0.26875,-0.64875 0,-0.24875 -0.0888,-0.46375 -0.26875,-0.645 -0.18125,-0.18 -0.39625,-0.27125 -0.6425,-0.27125 l -1.71625,0" />
    <path
       inkscape:connector-curvature="0"
       id="path3799"
       style="fill:#231f20;fill-opacity:1;fill-rule:nonzero;stroke:none"
       d="m 174.15112,407.84386 -1.145,0 0,-4.23 -1.67375,4.23 -1.6875,-4.23 0,4.23 -1.1475,0 0,-7.31875 1.13375,0 1.69625,4.2575 1.68375,-4.2575 1.14,0 0,7.31875 z" />
    <path
       inkscape:connector-curvature="0"
       id="path3803"
       style="fill:#231f20;fill-opacity:1;fill-rule:nonzero;stroke:none"
       d="m 180.34487,406.71386 0,1.13 -4.45875,0 0,-7.31875 4.23125,0 0,1.13 -3.08375,0 0,1.835 2.1075,0 0,1.13125 -2.1075,0 0,2.0925 3.31125,0 z" />
    <path
       inkscape:connector-curvature="0"
       id="path3807"
       style="fill:#231f20;fill-opacity:1;fill-rule:nonzero;stroke:none"
       d="m 185.72237,401.56511 -1.65,0 0,6.27875 -1.145,0 0,-6.27875 -1.6675,0 0,-1.04 4.4625,0 0,1.04 z" />
    <path
       inkscape:connector-curvature="0"
       id="path3811"
       style="fill:#231f20;fill-opacity:1;fill-rule:nonzero;stroke:none"
       d="m 191.54487,406.71386 0,1.13 -4.4575,0 0,-7.31875 4.23375,0 0,1.13 -3.08625,0 0,1.835 2.11,0 0,1.13125 -2.11,0 0,2.0925 3.31,0 z" />
    <path
       inkscape:connector-curvature="0"
       id="path3815"
       style="fill:#231f20;fill-opacity:1;fill-rule:nonzero;stroke:none"
       d="m 197.83737,407.84386 -1.22375,0 -1.19125,-3.2075 -1.36,0 0,3.2075 -1.1475,0 0,-7.31875 2.74375,0 c 0.565,0 1.05,0.20125 1.45375,0.60375 0.4,0.40125 0.6025,0.8875 0.6025,1.45375 0,0.39 -0.105,0.7525 -0.3125,1.08625 -0.2075,0.335 -0.48625,0.58625 -0.835,0.7575 l 1.27,3.4175 z m -3.775,-4.35375 1.59875,0 c 0.255,0 0.47125,-0.0888 0.6475,-0.2675 0.17875,-0.18 0.26875,-0.395 0.26875,-0.65 0,-0.24875 -0.09,-0.465 -0.26875,-0.645 -0.17625,-0.1825 -0.3925,-0.2725 -0.6475,-0.2725 l -1.59875,0 0,1.835" />
    <path
       inkscape:connector-curvature="0"
       id="path3819"
       style="fill:#231f20;fill-opacity:1;fill-rule:nonzero;stroke:none"
       d="m 204.01612,406.71386 0,1.13 -4.46,0 0,-7.31875 4.2325,0 0,1.13 -3.085,0 0,1.835 2.10875,0 0,1.13125 -2.10875,0 0,2.0925 3.3125,0 z" />
    <path
       inkscape:connector-curvature="0"
       id="path3823"
       style="fill:#231f20;fill-opacity:1;fill-rule:nonzero;stroke:none"
       d="m 205.38362,407.84386 0,-7.31875 2.05,0 c 0.9575,0 1.6925,0.39 2.205,1.17125 0.445,0.66375 0.66625,1.5 0.66625,2.51 0,0.97125 -0.22875,1.7975 -0.68875,2.475 -0.52625,0.77625 -1.25625,1.1625 -2.18875,1.1625 l -2.04375,0 z m 1.1475,-1.13 0.8975,0 c 0.6325,0 1.09375,-0.27625 1.3875,-0.83 0.22875,-0.4275 0.34375,-0.98625 0.34375,-1.6775 0,-0.725 -0.13625,-1.31125 -0.4025,-1.75625 -0.18125,-0.29875 -0.35875,-0.5025 -0.5325,-0.61 -0.19,-0.12375 -0.45625,-0.185 -0.79625,-0.185 l -0.8975,0 0,5.05875" />
    <path
       inkscape:connector-curvature="0"
       id="path3827"
       style="fill:#231f20;fill-opacity:1;fill-rule:nonzero;stroke:none"
       d="m 182.44612,411.53386 -1.0325,7.32125 -1.01125,0 -1.15875,-4.75625 -1.1625,4.75625 -1.00875,0 -1.0325,-7.32125 1.1425,0 0.5575,3.95625 0.96625,-3.95625 1.07375,0 0.9675,3.95625 0.55625,-3.95625 1.1425,0 z" />
    <path
       inkscape:connector-curvature="0"
       id="path3831"
       style="fill:#231f20;fill-opacity:1;fill-rule:nonzero;stroke:none"
       d="m 188.73487,418.85511 -1.145,0 0,-3.21 -2.62875,0 0,3.21 -1.145,0 0,-7.32125 1.145,0 0,2.965 2.62875,0 0,-2.965 1.145,0 0,7.32125 z" />
    <path
       inkscape:connector-curvature="0"
       id="path3835"
       style="fill:#231f20;fill-opacity:1;fill-rule:nonzero;stroke:none"
       d="m 194.91487,417.72511 0,1.13 -4.45875,0 0,-7.32125 4.23125,0 0,1.1325 -3.08625,0 0,1.8325 2.11,0 0,1.13125 -2.11,0 0,2.095 3.31375,0 z" />
    <path
       inkscape:connector-curvature="0"
       id="path3839"
       style="fill:#231f20;fill-opacity:1;fill-rule:nonzero;stroke:none"
       d="m 201.20362,418.85511 -1.0175,0 -2.7575,-4.8825 0,4.8825 -1.145,0 0,-7.32125 1.07,0 2.705,4.795 0,-4.795 1.145,0 0,7.32125 z" />
    <path
       inkscape:connector-curvature="0"
       id="path3843"
       style="fill:#231f20;fill-opacity:1;fill-rule:nonzero;stroke:none"
       d="m 170.76362,423.67511 -3.3125,0 0,1.83375 2.10875,0 0,1.14625 -2.10875,0 0,3.20875 -1.1475,0 0,-7.31875 4.46,0 0,1.13 z" />
    <path
       inkscape:connector-curvature="0"
       id="path3847"
       style="fill:#231f20;fill-opacity:1;fill-rule:nonzero;stroke:none"
       d="m 176.59237,429.86386 -4.46125,0 0,-7.31875 1.14625,0 0,6.23375 3.315,0 0,1.085 z" />
    <path
       inkscape:connector-curvature="0"
       id="path3851"
       style="fill:#231f20;fill-opacity:1;fill-rule:nonzero;stroke:none"
       d="m 183.16612,429.86386 -1.19625,0 -0.7,-2.0625 -2.33,0 -0.7,2.0625 -1.19375,0 2.4875,-7.31875 1.1425,0 2.49,7.31875 z m -2.2825,-3.19375 -0.77875,-2.2925 -0.77875,2.2925 1.5575,0 z" />
    <path
       inkscape:connector-curvature="0"
       id="path3855"
       style="fill:#231f20;fill-opacity:1;fill-rule:nonzero;stroke:none"
       d="m 184.53362,428.10011 1.07625,-0.395 c 0.1225,0.33875 0.33,0.6125 0.625,0.82125 0.29625,0.21 0.62,0.315 0.9775,0.315 0.3025,0 0.56125,-0.1075 0.77375,-0.32 0.215,-0.2125 0.3225,-0.46875 0.3225,-0.76625 0,-0.34125 -0.115,-0.60875 -0.35,-0.8 -0.175,-0.14625 -0.43875,-0.25875 -0.78875,-0.33625 -0.2925,-0.0537 -0.585,-0.1075 -0.87625,-0.1625 -0.42875,-0.0825 -0.78125,-0.2925 -1.05625,-0.63 -0.27375,-0.3375 -0.41375,-0.72625 -0.41375,-1.1675 0,-0.615 0.22,-1.1425 0.655,-1.58 0.4375,-0.4375 0.96125,-0.6575 1.5775,-0.6575 0.4775,0 0.91,0.1425 1.29875,0.4225 0.385,0.28125 0.65875,0.65 0.815,1.10375 l -1.08125,0.3675 c -0.0787,-0.2225 -0.2125,-0.40125 -0.4,-0.54 -0.19125,-0.1375 -0.40125,-0.20625 -0.63,-0.20625 -0.29625,0 -0.5525,0.10625 -0.7675,0.31875 -0.2125,0.2125 -0.32,0.4675 -0.32,0.7675 0,0.165 0.0512,0.31125 0.155,0.435 0.1,0.125 0.23125,0.20375 0.3925,0.23875 0.25375,0.05 0.6375,0.12625 1.15,0.23125 0.515,0.105 0.94,0.3625 1.27875,0.77375 0.34,0.41 0.50875,0.8825 0.50875,1.415 0,0.61625 -0.22,1.14375 -0.655,1.5825 -0.43625,0.43625 -0.96375,0.655 -1.58,0.655 -0.6,0 -1.1475,-0.17375 -1.64,-0.52 -0.49375,-0.3475 -0.8425,-0.8025 -1.0475,-1.36625" />
    <path
       inkscape:connector-curvature="0"
       id="path3859"
       style="fill:#231f20;fill-opacity:1;fill-rule:nonzero;stroke:none"
       d="m 196.09612,429.86386 -1.1475,0 0,-3.20875 -2.62625,0 0,3.20875 -1.1475,0 0,-7.31875 1.1475,0 0,2.96375 2.62625,0 0,-2.96375 1.1475,0 0,7.31875 z" />
    <path
       d="m 197.81512,429.86411 1.1475,0 0,-7.31875 -1.1475,0 0,7.31875 z"
       style="fill:#231f20;fill-opacity:1;fill-rule:nonzero;stroke:none"
       id="path3861"
       inkscape:connector-curvature="0" />
    <path
       inkscape:connector-curvature="0"
       id="path3865"
       style="fill:#231f20;fill-opacity:1;fill-rule:nonzero;stroke:none"
       d="m 205.59862,429.86386 -1.01875,0 -2.75625,-4.88125 0,4.88125 -1.145,0 0,-7.31875 1.07,0 2.705,4.795 0,-4.795 1.145,0 0,7.31875 z" />
    <path
       inkscape:connector-curvature="0"
       id="path3869"
       style="fill:#231f20;fill-opacity:1;fill-rule:nonzero;stroke:none"
       d="m 212.23862,426.21261 0,1.13 c -0.005,0.1325 -0.0188,0.33375 -0.0437,0.6025 -0.0788,0.5825 -0.3375,1.06875 -0.77875,1.4575 -0.4425,0.39 -0.9575,0.58375 -1.5425,0.58375 -0.51875,0 -0.9825,-0.15125 -1.39,-0.45625 -0.41,-0.305 -0.6925,-0.705 -0.84875,-1.1975 -0.21,-0.65875 -0.315,-1.3675 -0.315,-2.12375 0,-0.7425 0.1025,-1.44375 0.3075,-2.10125 0.15125,-0.4975 0.43125,-0.90125 0.84375,-1.20875 0.41375,-0.3075 0.88,-0.46125 1.4025,-0.46125 0.5025,0 0.95875,0.14625 1.36875,0.43875 0.41,0.2925 0.69375,0.6775 0.85,1.15375 l -1.08125,0.365 c -0.0788,-0.24625 -0.225,-0.445 -0.4375,-0.5975 -0.21,-0.1525 -0.44375,-0.22875 -0.6975,-0.22875 -0.94,0 -1.41125,0.8775 -1.41125,2.63625 0,1.75625 0.47125,2.63625 1.41125,2.63625 0.39,0 0.695,-0.14375 0.9125,-0.42875 0.205,-0.26125 0.3075,-0.5925 0.3075,-0.99625 l 0,-0.0738 -1.255,0 0,-1.13 2.3975,0" />
  </g>
</svg>
