<?xml version="1.0" encoding="UTF-8" standalone="no"?>
<!-- Created with Inkscape (http://www.inkscape.org/) -->

<svg
   xmlns:dc="http://purl.org/dc/elements/1.1/"
   xmlns:cc="http://creativecommons.org/ns#"
   xmlns:rdf="http://www.w3.org/1999/02/22-rdf-syntax-ns#"
   xmlns:svg="http://www.w3.org/2000/svg"
   xmlns="http://www.w3.org/2000/svg"
   xmlns:sodipodi="http://sodipodi.sourceforge.net/DTD/sodipodi-0.dtd"
   xmlns:inkscape="http://www.inkscape.org/namespaces/inkscape"
   width="66.855003"
   height="33.740002"
   id="svg8480"
   version="1.1"
   inkscape:version="0.48.1 "
   sodipodi:docname="New document 68">
  <defs
     id="defs8482" />
  <sodipodi:namedview
     id="base"
     pagecolor="#ffffff"
     bordercolor="#666666"
     borderopacity="1.0"
     inkscape:pageopacity="0.0"
     inkscape:pageshadow="2"
     inkscape:zoom="0.35"
     inkscape:cx="191.28464"
     inkscape:cy="-68.844283"
     inkscape:document-units="px"
     inkscape:current-layer="layer1"
     showgrid="false"
     fit-margin-top="0"
     fit-margin-left="0"
     fit-margin-right="0"
     fit-margin-bottom="0"
     inkscape:window-width="469"
     inkscape:window-height="403"
     inkscape:window-x="648"
     inkscape:window-y="133"
     inkscape:window-maximized="0" />
  <metadata
     id="metadata8485">
    <rdf:RDF>
      <cc:Work
         rdf:about="">
        <dc:format>image/svg+xml</dc:format>
        <dc:type
           rdf:resource="http://purl.org/dc/dcmitype/StillImage" />
        <dc:title></dc:title>
      </cc:Work>
    </rdf:RDF>
  </metadata>
  <g
     inkscape:label="Layer 1"
     inkscape:groupmode="layer"
     id="layer1"
     transform="translate(-183.71536,-429.7779)">
    <path
       inkscape:connector-curvature="0"
       id="path6423"
       style="fill:#fccf34;fill-opacity:1;fill-rule:nonzero;stroke:none"
       d="m 250.25786,459.0679 c 0,2.285 -1.8525,4.1375 -4.13875,4.1375 l -57.95375,0 c -2.285,0 -4.1375,-1.8525 -4.1375,-4.1375 l 0,-24.8375 c 0,-2.2875 1.8525,-4.14 4.1375,-4.14 l 57.95375,0 c 2.28625,0 4.13875,1.8525 4.13875,4.14 l 0,24.8375 z" />
    <path
       inkscape:connector-curvature="0"
       id="path6427"
       style="fill:none;stroke:#231f20;stroke-width:0.625;stroke-linecap:butt;stroke-linejoin:miter;stroke-miterlimit:4;stroke-opacity:1;stroke-dasharray:none"
       d="m 250.25786,459.0679 c 0,2.285 -1.8525,4.1375 -4.13875,4.1375 l -57.95375,0 c -2.285,0 -4.1375,-1.8525 -4.1375,-4.1375 l 0,-24.8375 c 0,-2.2875 1.8525,-4.14 4.1375,-4.14 l 57.95375,0 c 2.28625,0 4.13875,1.8525 4.13875,4.14 l 0,24.8375 z" />
    <path
       inkscape:connector-curvature="0"
       id="path6431"
       style="fill:#231f20;fill-opacity:1;fill-rule:nonzero;stroke:none"
       d="m 248.01661,459.0679 c 0,1.045 -0.8525,1.89625 -1.8975,1.89625 l -57.95375,0 c -1.045,0 -1.89625,-0.85125 -1.89625,-1.89625 l 0,-24.8375 c 0,-1.04625 0.85125,-1.8975 1.89625,-1.8975 l 57.95375,0 c 1.045,0 1.8975,0.85125 1.8975,1.8975 l 0,24.8375 z m -1.8975,-27.9425 -57.95375,0 c -1.71125,0 -3.1025,1.3925 -3.1025,3.105 l 0,24.8375 c 0,1.71125 1.39125,3.1025 3.1025,3.1025 l 57.95375,0 c 1.7125,0 3.10375,-1.39125 3.10375,-3.1025 l 0,-24.8375 c 0,-1.7125 -1.39125,-3.105 -3.10375,-3.105" />
    <path
       inkscape:connector-curvature="0"
       id="path6435"
       style="fill:#231f20;fill-opacity:1;fill-rule:nonzero;stroke:none"
       d="m 190.54286,441.81915 c 0,-0.47125 -0.0487,-0.8825 -0.14375,-1.23375 -0.14375,-0.54125 -0.38,-0.8125 -0.7125,-0.8125 -0.3325,0 -0.57125,0.27125 -0.715,0.8125 -0.095,0.35125 -0.145,0.7625 -0.145,1.23375 0,0.47125 0.05,0.8825 0.145,1.2325 0.14375,0.5425 0.3825,0.81375 0.715,0.81375 0.3325,0 0.56875,-0.27125 0.7125,-0.81375 0.095,-0.35 0.14375,-0.76125 0.14375,-1.2325 m 0.7725,0 c 0,0.6775 -0.0787,1.23875 -0.2325,1.68375 -0.26625,0.755 -0.73,1.13375 -1.39625,1.13375 -0.66625,0 -1.1325,-0.37875 -1.39875,-1.13375 -0.15375,-0.445 -0.2325,-1.00625 -0.2325,-1.68375 0,-1.8775 0.545,-2.8175 1.63125,-2.8175 1.08375,0 1.62875,0.94 1.62875,2.8175" />
    <path
       inkscape:connector-curvature="0"
       id="path6439"
       style="fill:#231f20;fill-opacity:1;fill-rule:nonzero;stroke:none"
       d="m 195.51161,444.5779 -0.77125,0 -1.5475,-3.57 0,3.57 -0.7725,0 0,-5.5175 0.775,0 1.545,3.56375 0,-3.56375 0.77125,0 0,5.5175 z" />
    <path
       inkscape:connector-curvature="0"
       id="path6443"
       style="fill:#231f20;fill-opacity:1;fill-rule:nonzero;stroke:none"
       d="m 199.70411,443.1279 c -0.0512,0.29375 -0.135,0.54375 -0.25,0.75125 -0.2725,0.505 -0.67625,0.7575 -1.2125,0.7575 -0.6675,0 -1.13375,-0.37875 -1.39875,-1.13375 -0.15375,-0.445 -0.2325,-1.00625 -0.2325,-1.68375 0,-1.8775 0.545,-2.8175 1.63125,-2.8175 0.5175,0 0.9175,0.2275 1.19625,0.67875 0.11625,0.18625 0.2075,0.4125 0.26625,0.6775 l -0.83,0 c -0.125,-0.39 -0.3375,-0.585 -0.635,-0.585 -0.3325,0 -0.56875,0.27125 -0.71375,0.8125 -0.095,0.35125 -0.14375,0.7625 -0.14375,1.23375 0,0.47125 0.0488,0.8825 0.14375,1.2325 0.145,0.5425 0.38125,0.81375 0.71375,0.81375 0.325,0 0.54375,-0.2475 0.65625,-0.7375 l 0.80875,0 z" />
    <path
       inkscape:connector-curvature="0"
       id="path6447"
       style="fill:#231f20;fill-opacity:1;fill-rule:nonzero;stroke:none"
       d="m 203.18286,441.81915 c 0,-0.47125 -0.0488,-0.8825 -0.14375,-1.23375 -0.145,-0.54125 -0.38125,-0.8125 -0.71375,-0.8125 -0.33125,0 -0.57125,0.27125 -0.715,0.8125 -0.095,0.35125 -0.14375,0.7625 -0.14375,1.23375 0,0.47125 0.0487,0.8825 0.14375,1.2325 0.14375,0.5425 0.38375,0.81375 0.715,0.81375 0.3325,0 0.56875,-0.27125 0.71375,-0.81375 0.095,-0.35 0.14375,-0.76125 0.14375,-1.2325 m 0.77125,0 c 0,0.6775 -0.0775,1.23875 -0.2325,1.68375 -0.265,0.755 -0.73,1.13375 -1.39625,1.13375 -0.66625,0 -1.1325,-0.37875 -1.39875,-1.13375 -0.15375,-0.445 -0.22875,-1.00625 -0.22875,-1.68375 0,-1.8775 0.54125,-2.8175 1.6275,-2.8175 1.08375,0 1.62875,0.94 1.62875,2.8175" />
    <path
       inkscape:connector-curvature="0"
       id="path6451"
       style="fill:#231f20;fill-opacity:1;fill-rule:nonzero;stroke:none"
       d="m 208.70286,444.5779 -0.77125,0 0,-3.09 -1.05,3.09 -1.05,-3.09 0,3.09 -0.77125,0 0,-5.5175 0.77375,0 1.0475,3.09 1.05,-3.09 0.77125,0 0,5.5175 z" />
    <path
       d="m 210.69036,444.5779 -0.7725,0 0,-5.5175 0.7725,0 0,5.5175 z"
       style="fill:#231f20;fill-opacity:1;fill-rule:nonzero;stroke:none"
       id="path6453"
       inkscape:connector-curvature="0" />
    <path
       inkscape:connector-curvature="0"
       id="path6457"
       style="fill:#231f20;fill-opacity:1;fill-rule:nonzero;stroke:none"
       d="m 214.99411,444.5779 -0.77125,0 -1.5475,-3.57 0,3.57 -0.7725,0 0,-5.5175 0.775,0 1.545,3.56375 0,-3.56375 0.77125,0 0,5.5175 z" />
    <path
       inkscape:connector-curvature="0"
       id="path6461"
       style="fill:#231f20;fill-opacity:1;fill-rule:nonzero;stroke:none"
       d="m 219.18411,440.36165 -0.82625,0 c -0.12875,-0.3925 -0.34125,-0.58875 -0.63875,-0.58875 -0.335,0 -0.57375,0.27875 -0.71625,0.835 -0.0875,0.34625 -0.13125,0.75 -0.13125,1.21125 0,0.46125 0.0437,0.86375 0.13125,1.21125 0.145,0.55625 0.38375,0.835 0.71875,0.835 0.23625,0 0.42,-0.135 0.55375,-0.405 0.0925,-0.1875 0.13625,-0.37 0.13625,-0.5475 l 0,-0.15375 -0.6875,0 0,-0.77125 1.46,0 0,1.0025 c 0,0.25875 -0.0687,0.535 -0.2075,0.8275 -0.255,0.54625 -0.67375,0.81875 -1.255,0.81875 -0.665,0 -1.13125,-0.37875 -1.395,-1.13375 -0.15625,-0.445 -0.23125,-1.00625 -0.23125,-1.68375 0,-1.8775 0.54,-2.8175 1.62375,-2.8175 0.5175,0 0.9175,0.2275 1.20125,0.68125 0.11625,0.1875 0.205,0.41375 0.26375,0.67875" />
    <path
       inkscape:connector-curvature="0"
       id="path6465"
       style="fill:#231f20;fill-opacity:1;fill-rule:nonzero;stroke:none"
       d="m 225.42161,439.8304 -1.02375,0 0,4.7475 -0.77125,0 0,-4.7475 -1.02,0 0,-0.77 2.815,0 0,0.77 z" />
    <path
       inkscape:connector-curvature="0"
       id="path6469"
       style="fill:#231f20;fill-opacity:1;fill-rule:nonzero;stroke:none"
       d="m 228.51161,440.54915 c 0,-0.45625 -0.1875,-0.695 -0.56875,-0.71875 l -0.97625,0 0,1.43625 0.97625,0 c 0.38125,-0.0213 0.56875,-0.26125 0.56875,-0.7175 m 0.7725,4.02875 -0.80125,0 -0.7275,-2.53875 -0.78875,0 0,2.53875 -0.77125,0 0,-5.5175 1.70875,0 c 0.295,0.0238 0.46125,0.0412 0.49875,0.0487 0.25375,0.0587 0.45125,0.18 0.595,0.36375 0.19125,0.24625 0.28625,0.605 0.28625,1.07625 0,0.68125 -0.25375,1.13 -0.7675,1.3475 l 0.7675,2.68125 z" />
    <path
       inkscape:connector-curvature="0"
       id="path6473"
       style="fill:#231f20;fill-opacity:1;fill-rule:nonzero;stroke:none"
       d="m 231.97911,442.31665 -0.43,-1.79375 -0.43625,1.79375 0.86625,0 z m 1.335,2.26125 -0.78875,0 -0.35875,-1.49 -1.2425,0 -0.35875,1.49 -0.78375,0 1.335,-5.5175 0.8625,0 1.335,5.5175 z" />
    <path
       inkscape:connector-curvature="0"
       id="path6477"
       style="fill:#231f20;fill-opacity:1;fill-rule:nonzero;stroke:none"
       d="m 236.90036,439.8304 -2.0425,0 0,1.43625 1.215,0 0,0.7725 -1.215,0 0,2.53875 -0.7725,0 0,-5.5175 2.815,0 0,0.77 z" />
    <path
       inkscape:connector-curvature="0"
       id="path6481"
       style="fill:#231f20;fill-opacity:1;fill-rule:nonzero;stroke:none"
       d="m 240.49036,439.8304 -2.04375,0 0,1.43625 1.215,0 0,0.7725 -1.215,0 0,2.53875 -0.77125,0 0,-5.5175 2.815,0 0,0.77 z" />
    <path
       d="m 242.03786,444.5779 -0.77125,0 0,-5.5175 0.77125,0 0,5.5175 z"
       style="fill:#231f20;fill-opacity:1;fill-rule:nonzero;stroke:none"
       id="path6483"
       inkscape:connector-curvature="0" />
    <path
       inkscape:connector-curvature="0"
       id="path6487"
       style="fill:#231f20;fill-opacity:1;fill-rule:nonzero;stroke:none"
       d="m 246.22911,443.1279 c -0.0512,0.29375 -0.13375,0.54375 -0.24875,0.75125 -0.27375,0.505 -0.67625,0.7575 -1.21375,0.7575 -0.66625,0 -1.1325,-0.37875 -1.39625,-1.13375 -0.15625,-0.445 -0.23125,-1.00625 -0.23125,-1.68375 0,-1.8775 0.54125,-2.8175 1.6275,-2.8175 0.5175,0 0.91875,0.2275 1.19625,0.67875 0.1175,0.18625 0.2075,0.4125 0.26625,0.6775 l -0.83,0 c -0.12375,-0.39 -0.33625,-0.585 -0.635,-0.585 -0.32875,0 -0.56875,0.27125 -0.71,0.8125 -0.0975,0.35125 -0.14375,0.7625 -0.14375,1.23375 0,0.47125 0.0463,0.8825 0.14375,1.2325 0.14125,0.5425 0.38125,0.81375 0.71,0.81375 0.325,0 0.545,-0.2475 0.66,-0.7375 l 0.805,0 z" />
    <path
       inkscape:connector-curvature="0"
       id="path6491"
       style="fill:#231f20;fill-opacity:1;fill-rule:nonzero;stroke:none"
       d="m 195.81161,451.47902 c 0,-1.32625 -0.3125,-1.98875 -0.94,-1.98875 l -0.6075,0 0,3.98 0.6075,0 c 0.6275,0 0.94,-0.6625 0.94,-1.99125 m 0.7725,-0.002 c 0,1.10375 -0.2175,1.88625 -0.6525,2.34625 -0.26375,0.27875 -0.57625,0.41875 -0.9375,0.41875 l -0.1225,0 -1.37875,0 0,-5.52375 1.44,0 c 0.36125,0 0.66875,0.1175 0.9275,0.35375 0.48125,0.44125 0.72375,1.24375 0.72375,2.405" />
    <path
       inkscape:connector-curvature="0"
       id="path6495"
       style="fill:#231f20;fill-opacity:1;fill-rule:nonzero;stroke:none"
       d="m 200.06536,451.47665 c 0,-0.47125 -0.0488,-0.8825 -0.145,-1.2325 -0.14375,-0.5425 -0.38,-0.8125 -0.7125,-0.8125 -0.33125,0 -0.57125,0.27 -0.715,0.8125 -0.095,0.35 -0.14375,0.76125 -0.14375,1.2325 0,0.4725 0.0488,0.88375 0.14375,1.23375 0.14375,0.54125 0.38375,0.8125 0.715,0.8125 0.3325,0 0.56875,-0.27125 0.7125,-0.8125 0.0962,-0.35 0.145,-0.76125 0.145,-1.23375 m 0.77125,0 c 0,0.67875 -0.0788,1.24125 -0.2325,1.685 -0.26625,0.75625 -0.7325,1.1325 -1.39625,1.1325 -0.66625,0 -1.1325,-0.37625 -1.39875,-1.1325 -0.15375,-0.44375 -0.2325,-1.00625 -0.2325,-1.685 0,-1.8775 0.545,-2.8175 1.63125,-2.8175 1.08375,0 1.62875,0.94 1.62875,2.8175" />
    <path
       inkscape:connector-curvature="0"
       id="path6499"
       style="fill:#231f20;fill-opacity:1;fill-rule:nonzero;stroke:none"
       d="m 204.75286,454.24165 -2.815,-0.005 0,-5.51875 2.815,0 0,0.7725 -2.04375,0 0,1.43625 1.21625,0 0,0.77125 -1.21625,0 0,1.7675 2.04375,0 0,0.77625 z" />
    <path
       inkscape:connector-curvature="0"
       id="path6503"
       style="fill:#231f20;fill-opacity:1;fill-rule:nonzero;stroke:none"
       d="m 208.50786,452.7304 c 0,0.39125 -0.1,0.7275 -0.30375,1.0125 -0.26125,0.36875 -0.64625,0.55125 -1.15875,0.55125 -0.57375,0 -1.00125,-0.1825 -1.285,-0.55125 -0.22875,-0.2925 -0.34375,-0.65875 -0.34375,-1.10125 l 0.77125,0 c 0,0.3225 0.1025,0.56 0.305,0.715 0.15125,0.11125 0.335,0.16625 0.5525,0.16625 0.44125,0 0.66125,-0.26375 0.66125,-0.79 0,-0.4125 -0.17625,-0.74875 -0.5325,-1.01125 -0.33125,-0.205 -0.66375,-0.41 -0.99875,-0.61375 -0.35375,-0.275 -0.53125,-0.63625 -0.53125,-1.0825 0,-0.29125 0.08,-0.5575 0.24125,-0.80125 0.24875,-0.37625 0.64875,-0.565 1.20125,-0.565 0.58125,0 0.99125,0.21875 1.2325,0.65375 0.1,0.18 0.16375,0.4 0.18875,0.6575 l -0.7725,0 c 0,-0.0925 -0.0312,-0.185 -0.0925,-0.2775 -0.11,-0.17375 -0.295,-0.26125 -0.55625,-0.26125 -0.445,0 -0.66625,0.1975 -0.66625,0.59125 0,0.2175 0.1775,0.435 0.53875,0.6525 0.5375,0.31625 0.8725,0.54 1.00875,0.675 0.35875,0.35625 0.54,0.8175 0.54,1.38" />
    <path
       inkscape:connector-curvature="0"
       id="path6507"
       style="fill:#231f20;fill-opacity:1;fill-rule:nonzero;stroke:none"
       d="m 215.29911,454.23652 -0.77125,0 -1.5475,-3.57 0,3.57 -0.77125,0 0,-5.51875 0.77125,0 1.545,3.565 0.002,-3.565 0.77125,0 0,5.51875 z" />
    <path
       inkscape:connector-curvature="0"
       id="path6511"
       style="fill:#231f20;fill-opacity:1;fill-rule:nonzero;stroke:none"
       d="m 218.88286,451.47665 c 0,-0.47125 -0.0462,-0.8825 -0.14125,-1.2325 -0.14375,-0.5425 -0.38375,-0.8125 -0.715,-0.8125 -0.3325,0 -0.56875,0.27 -0.7125,0.8125 -0.0962,0.35 -0.145,0.76125 -0.145,1.2325 0,0.4725 0.0488,0.88375 0.145,1.23375 0.14375,0.54125 0.38,0.8125 0.7125,0.8125 0.33125,0 0.57125,-0.27125 0.715,-0.8125 0.095,-0.35 0.14125,-0.76125 0.14125,-1.23375 m 0.7725,0 c 0,0.67875 -0.0763,1.24125 -0.2325,1.685 -0.26375,0.75625 -0.73,1.1325 -1.39625,1.1325 -0.66625,0 -1.13,-0.37625 -1.39625,-1.1325 -0.15375,-0.44375 -0.2325,-1.00625 -0.2325,-1.685 0,-1.8775 0.5425,-2.8175 1.62875,-2.8175 1.08625,0 1.62875,0.94 1.62875,2.8175" />
    <path
       inkscape:connector-curvature="0"
       id="path6515"
       style="fill:#231f20;fill-opacity:1;fill-rule:nonzero;stroke:none"
       d="m 223.13161,449.4904 -1.02375,0 0,4.74625 -0.77125,0 0,-4.74625 -1.02,0 0,-0.7725 2.815,0 0,0.7725 z" />
    <path
       inkscape:connector-curvature="0"
       id="path6519"
       style="fill:#231f20;fill-opacity:1;fill-rule:nonzero;stroke:none"
       d="m 229.48161,452.7304 c 0,0.39125 -0.1025,0.7275 -0.305,1.0125 -0.26125,0.36875 -0.6475,0.55125 -1.1575,0.55125 -0.57375,0 -1.00375,-0.1825 -1.28625,-0.55125 -0.2275,-0.2925 -0.3425,-0.65875 -0.3425,-1.10125 l 0.77125,0 c 0,0.3225 0.1,0.56 0.30375,0.715 0.15125,0.11125 0.33375,0.16625 0.55125,0.16625 0.4425,0 0.66375,-0.26375 0.66375,-0.79 0,-0.4125 -0.1775,-0.74875 -0.53375,-1.01125 -0.33,-0.205 -0.6625,-0.41 -0.99625,-0.61375 -0.3575,-0.275 -0.535,-0.63625 -0.535,-1.0825 0,-0.29125 0.08,-0.5575 0.24125,-0.80125 0.25125,-0.37625 0.6525,-0.565 1.20125,-0.565 0.58125,0 0.99375,0.21875 1.235,0.65375 0.0987,0.18 0.16125,0.4 0.18875,0.6575 l -0.77125,0 c 0,-0.0925 -0.0325,-0.185 -0.095,-0.2775 -0.11,-0.17375 -0.29625,-0.26125 -0.5575,-0.26125 -0.44375,0 -0.66625,0.1975 -0.66625,0.59125 0,0.2175 0.18125,0.435 0.54,0.6525 0.53625,0.31625 0.87375,0.54 1.0075,0.675 0.36125,0.35625 0.5425,0.8175 0.5425,1.38" />
    <path
       inkscape:connector-curvature="0"
       id="path6523"
       style="fill:#231f20;fill-opacity:1;fill-rule:nonzero;stroke:none"
       d="m 232.78911,449.4904 -1.0225,0 0,4.74625 -0.77125,0 0,-4.74625 -1.02125,0 0,-0.7725 2.815,0 0,0.7725 z" />
    <path
       inkscape:connector-curvature="0"
       id="path6527"
       style="fill:#231f20;fill-opacity:1;fill-rule:nonzero;stroke:none"
       d="m 235.93911,451.47665 c 0,-0.47125 -0.0488,-0.8825 -0.14375,-1.2325 -0.145,-0.5425 -0.38125,-0.8125 -0.71375,-0.8125 -0.33125,0 -0.57125,0.27 -0.715,0.8125 -0.095,0.35 -0.14375,0.76125 -0.14375,1.2325 0,0.4725 0.0488,0.88375 0.14375,1.23375 0.14375,0.54125 0.38375,0.8125 0.715,0.8125 0.3325,0 0.56875,-0.27125 0.71375,-0.8125 0.095,-0.35 0.14375,-0.76125 0.14375,-1.23375 m 0.77125,0 c 0,0.67875 -0.0775,1.24125 -0.23125,1.685 -0.26625,0.75625 -0.7325,1.1325 -1.3975,1.1325 -0.66625,0 -1.1325,-0.37625 -1.39875,-1.1325 -0.15375,-0.44375 -0.23125,-1.00625 -0.23125,-1.685 0,-1.8775 0.54375,-2.8175 1.63,-2.8175 1.085,0 1.62875,0.94 1.62875,2.8175" />
    <path
       inkscape:connector-curvature="0"
       id="path6531"
       style="fill:#231f20;fill-opacity:1;fill-rule:nonzero;stroke:none"
       d="m 240.13036,450.2954 c 0,-0.4825 -0.19,-0.75125 -0.56875,-0.805 l -0.97875,0 0,1.59875 0.97875,0 c 0.37875,-0.0175 0.56875,-0.28375 0.56875,-0.79375 m 0.7725,0 c 0,0.6475 -0.23,1.10125 -0.68375,1.3625 -0.2375,0.135 -0.46875,0.2025 -0.69625,0.2025 l -0.94,0 0,2.37625 -0.77125,0 0,-5.51875 1.71125,0 c 0.2325,0 0.46375,0.0663 0.69625,0.19875 0.45375,0.26125 0.68375,0.72 0.68375,1.37875" />
  </g>
</svg>
