<?xml version="1.0" encoding="UTF-8" standalone="no"?>
<!-- Created with Inkscape (http://www.inkscape.org/) -->

<svg
   xmlns:dc="http://purl.org/dc/elements/1.1/"
   xmlns:cc="http://creativecommons.org/ns#"
   xmlns:rdf="http://www.w3.org/1999/02/22-rdf-syntax-ns#"
   xmlns:svg="http://www.w3.org/2000/svg"
   xmlns="http://www.w3.org/2000/svg"
   xmlns:sodipodi="http://sodipodi.sourceforge.net/DTD/sodipodi-0.dtd"
   xmlns:inkscape="http://www.inkscape.org/namespaces/inkscape"
   width="66.855003"
   height="33.740002"
   id="svg8370"
   version="1.1"
   inkscape:version="0.48.1 "
   sodipodi:docname="New document 66">
  <defs
     id="defs8372" />
  <sodipodi:namedview
     id="base"
     pagecolor="#ffffff"
     bordercolor="#666666"
     borderopacity="1.0"
     inkscape:pageopacity="0.0"
     inkscape:pageshadow="2"
     inkscape:zoom="0.35"
     inkscape:cx="25.57036"
     inkscape:cy="59.727147"
     inkscape:document-units="px"
     inkscape:current-layer="layer1"
     showgrid="false"
     fit-margin-top="0"
     fit-margin-left="0"
     fit-margin-right="0"
     fit-margin-bottom="0"
     inkscape:window-width="469"
     inkscape:window-height="403"
     inkscape:window-x="125"
     inkscape:window-y="125"
     inkscape:window-maximized="0" />
  <metadata
     id="metadata8375">
    <rdf:RDF>
      <cc:Work
         rdf:about="">
        <dc:format>image/svg+xml</dc:format>
        <dc:type
           rdf:resource="http://purl.org/dc/dcmitype/StillImage" />
        <dc:title></dc:title>
      </cc:Work>
    </rdf:RDF>
  </metadata>
  <g
     inkscape:label="Layer 1"
     inkscape:groupmode="layer"
     id="layer1"
     transform="translate(-349.42964,-558.34933)">
    <path
       inkscape:connector-curvature="0"
       id="path6297"
       style="fill:#fccf34;fill-opacity:1;fill-rule:nonzero;stroke:none"
       d="m 415.97214,587.63808 c 0,2.28625 -1.8525,4.13875 -4.1375,4.13875 l -57.9525,0 c -2.2875,0 -4.14,-1.8525 -4.14,-4.13875 l 0,-24.83625 c 0,-2.28625 1.8525,-4.14 4.14,-4.14 l 57.9525,0 c 2.285,0 4.1375,1.85375 4.1375,4.14 l 0,24.83625 z" />
    <path
       inkscape:connector-curvature="0"
       id="path6301"
       style="fill:none;stroke:#231f20;stroke-width:0.625;stroke-linecap:butt;stroke-linejoin:miter;stroke-miterlimit:4;stroke-opacity:1;stroke-dasharray:none"
       d="m 415.97214,587.63808 c 0,2.28625 -1.8525,4.13875 -4.1375,4.13875 l -57.9525,0 c -2.2875,0 -4.14,-1.8525 -4.14,-4.13875 l 0,-24.83625 c 0,-2.28625 1.8525,-4.14 4.14,-4.14 l 57.9525,0 c 2.285,0 4.1375,1.85375 4.1375,4.14 l 0,24.83625 z" />
    <path
       inkscape:connector-curvature="0"
       id="path6305"
       style="fill:#231f20;fill-opacity:1;fill-rule:nonzero;stroke:none"
       d="m 413.73089,587.63808 c 0,1.04625 -0.8525,1.89625 -1.89625,1.89625 l -57.9525,0 c -1.0475,0 -1.89625,-0.85 -1.89625,-1.89625 l 0,-24.83625 c 0,-1.04625 0.84875,-1.8975 1.89625,-1.8975 l 57.9525,0 c 1.04375,0 1.89625,0.85125 1.89625,1.8975 l 0,24.83625 z m -1.89625,-27.94125 -57.9525,0 c -1.71125,0 -3.105,1.3925 -3.105,3.105 l 0,24.83625 c 0,1.71125 1.39375,3.105 3.105,3.105 l 57.9525,0 c 1.71125,0 3.1025,-1.39375 3.1025,-3.105 l 0,-24.83625 c 0,-1.7125 -1.39125,-3.105 -3.1025,-3.105" />
    <path
       inkscape:connector-curvature="0"
       id="path6309"
       style="fill:#231f20;fill-opacity:1;fill-rule:nonzero;stroke:none"
       d="m 357.02964,568.40183 -1.02375,0 0,4.74875 -0.77125,0 0,-4.74875 -1.02,0 0,-0.77125 2.815,0 0,0.77125 z" />
    <path
       inkscape:connector-curvature="0"
       id="path6313"
       style="fill:#231f20;fill-opacity:1;fill-rule:nonzero;stroke:none"
       d="m 359.99589,569.12058 c 0,-0.4575 -0.19,-0.69625 -0.57125,-0.71875 l -0.97625,0 0,1.4375 0.97625,0 c 0.38125,-0.0213 0.57125,-0.26125 0.57125,-0.71875 m 0.77125,4.03 -0.80125,0 -0.73,-2.53875 -0.7875,0 0,2.53875 -0.7725,0 0,-5.52 1.7125,0 c 0.2925,0.0263 0.45875,0.0425 0.495,0.05 0.25375,0.0588 0.45125,0.17875 0.59625,0.365 0.19,0.24625 0.2875,0.60375 0.2875,1.075 0,0.68 -0.25625,1.13 -0.76625,1.34625 l 0.76625,2.68375 z" />
    <path
       inkscape:connector-curvature="0"
       id="path6317"
       style="fill:#231f20;fill-opacity:1;fill-rule:nonzero;stroke:none"
       d="m 363.33589,570.88808 -0.43,-1.795 -0.435,1.795 0.865,0 z m 1.3375,2.2625 -0.79125,0 -0.35875,-1.49125 -1.24,0 -0.35875,1.49125 -0.78375,0 1.335,-5.52 0.86,0 1.3375,5.52 z" />
    <path
       inkscape:connector-curvature="0"
       id="path6321"
       style="fill:#231f20;fill-opacity:1;fill-rule:nonzero;stroke:none"
       d="m 368.13589,568.40183 -2.04375,0 0,1.4375 1.215,0 0,0.7725 -1.215,0 0,2.53875 -0.77125,0 0,-5.52 2.815,0 0,0.77125 z" />
    <path
       inkscape:connector-curvature="0"
       id="path6325"
       style="fill:#231f20;fill-opacity:1;fill-rule:nonzero;stroke:none"
       d="m 371.59714,568.40183 -2.04375,0 0,1.4375 1.21625,0 0,0.7725 -1.21625,0 0,2.53875 -0.77125,0 0,-5.52 2.815,0 0,0.77125 z" />
    <path
       d="m 373.02339,573.15058 -0.77125,0 0,-5.52 0.77125,0 0,5.52 z"
       style="fill:#231f20;fill-opacity:1;fill-rule:nonzero;stroke:none"
       id="path6327"
       inkscape:connector-curvature="0" />
    <path
       inkscape:connector-curvature="0"
       id="path6331"
       style="fill:#231f20;fill-opacity:1;fill-rule:nonzero;stroke:none"
       d="m 377.09089,571.69795 c -0.0537,0.295 -0.135,0.54625 -0.25,0.75125 -0.2725,0.50625 -0.67625,0.7575 -1.215,0.7575 -0.66375,0 -1.13125,-0.37625 -1.39375,-1.1325 -0.15625,-0.445 -0.2325,-1.00625 -0.2325,-1.68375 0,-1.87875 0.5425,-2.8175 1.62625,-2.8175 0.52,0 0.92,0.22625 1.19875,0.6775 0.11625,0.1875 0.205,0.41375 0.26625,0.67875 l -0.83,0 c -0.125,-0.39125 -0.3375,-0.585 -0.635,-0.585 -0.3325,0 -0.56875,0.27125 -0.71375,0.8125 -0.095,0.35125 -0.14125,0.76125 -0.14125,1.23375 0,0.4725 0.0462,0.8825 0.14125,1.2325 0.145,0.5425 0.38125,0.81375 0.71375,0.81375 0.325,0 0.54375,-0.24625 0.65625,-0.73875 l 0.80875,0 z" />
    <path
       inkscape:connector-curvature="0"
       id="path6335"
       style="fill:#231f20;fill-opacity:1;fill-rule:nonzero;stroke:none"
       d="m 383.02339,568.40183 -2.04375,0 0,1.4375 1.21625,0 0,0.7725 -1.21625,0 0,2.53875 -0.77125,0 0,-5.52 2.815,0 0,0.77125 z" />
    <path
       inkscape:connector-curvature="0"
       id="path6339"
       style="fill:#231f20;fill-opacity:1;fill-rule:nonzero;stroke:none"
       d="m 385.98964,569.12058 c 0,-0.4575 -0.19125,-0.69625 -0.56875,-0.71875 l -0.98,0 0,1.4375 0.98,0 c 0.3775,-0.0213 0.56875,-0.26125 0.56875,-0.71875 m 0.77125,4.03 -0.80125,0 -0.7275,-2.53875 -0.79125,0 0,2.53875 -0.77125,0 0,-5.52 1.71125,0 c 0.29625,0.0263 0.46,0.0425 0.49625,0.05 0.25375,0.0588 0.45375,0.17875 0.5975,0.365 0.19125,0.24625 0.28625,0.60375 0.28625,1.075 0,0.68 -0.25625,1.13 -0.76625,1.34625 l 0.76625,2.68375 z" />
    <path
       inkscape:connector-curvature="0"
       id="path6343"
       style="fill:#231f20;fill-opacity:1;fill-rule:nonzero;stroke:none"
       d="m 389.95214,570.39058 c 0,-0.4725 -0.0487,-0.8825 -0.145,-1.23375 -0.14375,-0.54125 -0.38,-0.8125 -0.7125,-0.8125 -0.33125,0 -0.57125,0.27125 -0.715,0.8125 -0.095,0.35125 -0.14125,0.76125 -0.14125,1.23375 0,0.4725 0.0463,0.8825 0.14125,1.2325 0.14375,0.5425 0.38375,0.81375 0.715,0.81375 0.3325,0 0.56875,-0.27125 0.7125,-0.81375 0.0962,-0.35 0.145,-0.76 0.145,-1.2325 m 0.77125,0 c 0,0.6775 -0.0788,1.23875 -0.2325,1.68375 -0.26625,0.75625 -0.73,1.1325 -1.39625,1.1325 -0.66625,0 -1.1325,-0.37625 -1.39625,-1.1325 -0.15625,-0.445 -0.2325,-1.00625 -0.2325,-1.68375 0,-1.87875 0.5425,-2.8175 1.62875,-2.8175 1.08625,0 1.62875,0.93875 1.62875,2.8175" />
    <path
       inkscape:connector-curvature="0"
       id="path6347"
       style="fill:#231f20;fill-opacity:1;fill-rule:nonzero;stroke:none"
       d="m 395.34714,573.15058 -0.77125,0 0,-3.09125 -1.05,3.09125 -1.05,-3.09125 0,3.09125 -0.76875,0 0,-5.52 0.77125,0 1.05,3.09 1.0475,-3.09 0.77125,0 0,5.52 z" />
    <path
       inkscape:connector-curvature="0"
       id="path6351"
       style="fill:#231f20;fill-opacity:1;fill-rule:nonzero;stroke:none"
       d="m 401.38714,573.15058 -2.815,0 0,-5.52 0.77125,0 0,4.74875 2.04375,0 0,0.77125 z" />
    <path
       inkscape:connector-curvature="0"
       id="path6355"
       style="fill:#231f20;fill-opacity:1;fill-rule:nonzero;stroke:none"
       d="m 404.85214,573.15558 -2.815,-0.005 0,-5.52 2.815,0 0,0.77125 -2.04375,0 0,1.4375 1.21375,0 0,0.7725 -1.21375,0 0,1.7675 2.04375,0 0,0.77625 z" />
    <path
       inkscape:connector-curvature="0"
       id="path6359"
       style="fill:#231f20;fill-opacity:1;fill-rule:nonzero;stroke:none"
       d="m 408.47964,568.40183 -2.04375,0 0,1.4375 1.21625,0 0,0.7725 -1.21625,0 0,2.53875 -0.77125,0 0,-5.52 2.815,0 0,0.77125 z" />
    <path
       inkscape:connector-curvature="0"
       id="path6363"
       style="fill:#231f20;fill-opacity:1;fill-rule:nonzero;stroke:none"
       d="m 411.50214,568.40183 -1.0225,0 0,4.74875 -0.7725,0 0,-4.74875 -1.02,0 0,-0.77125 2.815,0 0,0.77125 z" />
    <path
       inkscape:connector-curvature="0"
       id="path6367"
       style="fill:#231f20;fill-opacity:1;fill-rule:nonzero;stroke:none"
       d="m 361.47214,580.05183 c 0,-1.3275 -0.3125,-1.99125 -0.93875,-1.99125 l -0.60875,0 0,3.98125 0.60875,0 c 0.62625,0 0.93875,-0.66375 0.93875,-1.99 m 0.7725,-0.004 c 0,1.10375 -0.2175,1.88625 -0.6525,2.345 -0.26375,0.28125 -0.57875,0.42 -0.9375,0.42 l -0.12125,0 -1.38,0 0,-5.525 1.44,0 c 0.36125,0 0.67,0.11875 0.92875,0.355 0.48,0.44125 0.7225,1.2425 0.7225,2.405" />
    <path
       inkscape:connector-curvature="0"
       id="path6371"
       style="fill:#231f20;fill-opacity:1;fill-rule:nonzero;stroke:none"
       d="m 365.72339,580.04933 c 0,-0.4725 -0.0462,-0.88375 -0.14375,-1.2325 -0.1425,-0.5425 -0.38125,-0.8125 -0.71375,-0.8125 -0.33125,0 -0.56875,0.27 -0.7125,0.8125 -0.095,0.34875 -0.14375,0.76 -0.14375,1.2325 0,0.47125 0.0487,0.88125 0.14375,1.23375 0.14375,0.54125 0.38125,0.81125 0.7125,0.81125 0.3325,0 0.57125,-0.27 0.71375,-0.81125 0.0975,-0.3525 0.14375,-0.7625 0.14375,-1.23375 m 0.77125,0 c 0,0.67625 -0.075,1.23875 -0.23125,1.685 -0.26375,0.755 -0.73,1.13125 -1.3975,1.13125 -0.66625,0 -1.1325,-0.37625 -1.39625,-1.13125 -0.15375,-0.44625 -0.23125,-1.00875 -0.23125,-1.685 0,-1.87875 0.54125,-2.8175 1.6275,-2.8175 1.08625,0 1.62875,0.93875 1.62875,2.8175" />
    <path
       inkscape:connector-curvature="0"
       id="path6375"
       style="fill:#231f20;fill-opacity:1;fill-rule:nonzero;stroke:none"
       d="m 370.41339,582.81308 -2.815,-0.005 0,-5.52 2.815,0 0,0.7725 -2.04375,0 0,1.4375 1.21375,0 0,0.77125 -1.21375,0 0,1.7675 2.04375,0 0,0.77625 z" />
    <path
       inkscape:connector-curvature="0"
       id="path6379"
       style="fill:#231f20;fill-opacity:1;fill-rule:nonzero;stroke:none"
       d="m 374.16839,581.30183 c 0,0.39125 -0.1025,0.7275 -0.305,1.01125 -0.26125,0.36875 -0.6475,0.5525 -1.1575,0.5525 -0.57375,0 -1.00375,-0.18375 -1.28625,-0.5525 -0.2275,-0.29125 -0.3425,-0.65625 -0.3425,-1.09875 l 0.77125,0 c 0,0.32 0.1,0.55875 0.3025,0.71375 0.1525,0.11125 0.3375,0.16625 0.555,0.16625 0.44125,0 0.66125,-0.2625 0.66125,-0.79 0,-0.4125 -0.1775,-0.74875 -0.535,-1.01 -0.32875,-0.2075 -0.66125,-0.41125 -0.995,-0.615 -0.3575,-0.27625 -0.535,-0.63625 -0.535,-1.0825 0,-0.29 0.08,-0.55875 0.24375,-0.8 0.24875,-0.37625 0.65,-0.565 1.20125,-0.565 0.57875,0 0.99125,0.2175 1.2325,0.6525 0.1,0.18 0.16125,0.4 0.18875,0.6575 l -0.77125,0 c 0,-0.0925 -0.0325,-0.18375 -0.0962,-0.27625 -0.11,-0.175 -0.295,-0.26125 -0.55625,-0.26125 -0.44375,0 -0.66625,0.19625 -0.66625,0.59 0,0.2175 0.18,0.435 0.54,0.6525 0.53625,0.3175 0.87375,0.54125 1.01,0.67375 0.35875,0.3575 0.54,0.8175 0.54,1.38125" />
    <path
       inkscape:connector-curvature="0"
       id="path6383"
       style="fill:#231f20;fill-opacity:1;fill-rule:nonzero;stroke:none"
       d="m 380.95714,582.80795 -0.77125,0 -1.5475,-3.57125 0,3.57125 -0.77125,0 0,-5.52 0.77375,0 1.545,3.5675 0,-3.5675 0.77125,0 0,5.52 z" />
    <path
       inkscape:connector-curvature="0"
       id="path6387"
       style="fill:#231f20;fill-opacity:1;fill-rule:nonzero;stroke:none"
       d="m 384.54464,580.04933 c 0,-0.4725 -0.05,-0.88375 -0.145,-1.2325 -0.14375,-0.5425 -0.38,-0.8125 -0.7125,-0.8125 -0.3325,0 -0.57125,0.27 -0.715,0.8125 -0.095,0.34875 -0.1425,0.76 -0.1425,1.2325 0,0.47125 0.0475,0.88125 0.1425,1.23375 0.14375,0.54125 0.3825,0.81125 0.715,0.81125 0.3325,0 0.56875,-0.27 0.7125,-0.81125 0.095,-0.3525 0.145,-0.7625 0.145,-1.23375 m 0.77125,0 c 0,0.67625 -0.0788,1.23875 -0.2325,1.685 -0.26625,0.755 -0.73,1.13125 -1.39625,1.13125 -0.66625,0 -1.1325,-0.37625 -1.39625,-1.13125 -0.15625,-0.44625 -0.2325,-1.00875 -0.2325,-1.685 0,-1.87875 0.5425,-2.8175 1.62875,-2.8175 1.08625,0 1.62875,0.93875 1.62875,2.8175" />
    <path
       inkscape:connector-curvature="0"
       id="path6391"
       style="fill:#231f20;fill-opacity:1;fill-rule:nonzero;stroke:none"
       d="m 388.79214,578.06058 -1.0225,0 0,4.7475 -0.7725,0 0,-4.7475 -1.02,0 0,-0.7725 2.815,0 0,0.7725 z" />
    <path
       inkscape:connector-curvature="0"
       id="path6395"
       style="fill:#231f20;fill-opacity:1;fill-rule:nonzero;stroke:none"
       d="m 395.13964,581.30183 c 0,0.39125 -0.1,0.7275 -0.3025,1.01125 -0.26125,0.36875 -0.6475,0.5525 -1.16,0.5525 -0.57375,0 -1.00125,-0.18375 -1.28375,-0.5525 -0.23,-0.29125 -0.345,-0.65625 -0.345,-1.09875 l 0.7725,0 c 0,0.32 0.1025,0.55875 0.305,0.71375 0.15125,0.11125 0.33375,0.16625 0.55125,0.16625 0.4425,0 0.66125,-0.2625 0.66125,-0.79 0,-0.4125 -0.175,-0.74875 -0.53125,-1.01 -0.3325,-0.2075 -0.665,-0.41125 -0.99875,-0.615 -0.35375,-0.27625 -0.5325,-0.63625 -0.5325,-1.0825 0,-0.29 0.0813,-0.55875 0.24125,-0.8 0.25,-0.37625 0.65,-0.565 1.20125,-0.565 0.58125,0 0.99125,0.2175 1.23375,0.6525 0.1,0.18 0.16375,0.4 0.1875,0.6575 l -0.77125,0 c 0,-0.0925 -0.0312,-0.18375 -0.0925,-0.27625 -0.11,-0.175 -0.29625,-0.26125 -0.5575,-0.26125 -0.44375,0 -0.66625,0.19625 -0.66625,0.59 0,0.2175 0.17875,0.435 0.54,0.6525 0.53625,0.3175 0.87125,0.54125 1.0075,0.67375 0.36,0.3575 0.54,0.8175 0.54,1.38125" />
    <path
       inkscape:connector-curvature="0"
       id="path6399"
       style="fill:#231f20;fill-opacity:1;fill-rule:nonzero;stroke:none"
       d="m 398.45089,578.06058 -1.02375,0 0,4.7475 -0.77125,0 0,-4.7475 -1.02,0 0,-0.7725 2.815,0 0,0.7725 z" />
    <path
       inkscape:connector-curvature="0"
       id="path6403"
       style="fill:#231f20;fill-opacity:1;fill-rule:nonzero;stroke:none"
       d="m 401.59714,580.04933 c 0,-0.4725 -0.0463,-0.88375 -0.14375,-1.2325 -0.14125,-0.5425 -0.38125,-0.8125 -0.7125,-0.8125 -0.3325,0 -0.57,0.27 -0.71375,0.8125 -0.0975,0.34875 -0.14375,0.76 -0.14375,1.2325 0,0.47125 0.0462,0.88125 0.14375,1.23375 0.14375,0.54125 0.38125,0.81125 0.71375,0.81125 0.33125,0 0.57125,-0.27 0.7125,-0.81125 0.0975,-0.3525 0.14375,-0.7625 0.14375,-1.23375 m 0.77125,0 c 0,0.67625 -0.075,1.23875 -0.23125,1.685 -0.26375,0.755 -0.73,1.13125 -1.39625,1.13125 -0.6675,0 -1.13375,-0.37625 -1.3975,-1.13125 -0.15375,-0.44625 -0.23125,-1.00875 -0.23125,-1.685 0,-1.87875 0.54125,-2.8175 1.62875,-2.8175 1.08625,0 1.6275,0.93875 1.6275,2.8175" />
    <path
       inkscape:connector-curvature="0"
       id="path6407"
       style="fill:#231f20;fill-opacity:1;fill-rule:nonzero;stroke:none"
       d="m 405.79214,578.86558 c 0,-0.48125 -0.19125,-0.75 -0.57125,-0.805 l -0.9775,0 0,1.60125 0.9775,0 c 0.38,-0.02 0.57125,-0.28375 0.57125,-0.79625 m 0.76875,0 c 0,0.6475 -0.2275,1.10125 -0.68375,1.3625 -0.235,0.13625 -0.46625,0.205 -0.69625,0.205 l -0.9375,0 0,2.375 -0.77125,0 0,-5.52 1.70875,0 c 0.2325,0 0.46375,0.0675 0.69625,0.20125 0.45625,0.26 0.68375,0.72 0.68375,1.37625" />
  </g>
</svg>
