<?xml version="1.0" encoding="UTF-8" standalone="no"?>
<!-- Created with Inkscape (http://www.inkscape.org/) -->

<svg
   xmlns:dc="http://purl.org/dc/elements/1.1/"
   xmlns:cc="http://creativecommons.org/ns#"
   xmlns:rdf="http://www.w3.org/1999/02/22-rdf-syntax-ns#"
   xmlns:svg="http://www.w3.org/2000/svg"
   xmlns="http://www.w3.org/2000/svg"
   xmlns:sodipodi="http://sodipodi.sourceforge.net/DTD/sodipodi-0.dtd"
   xmlns:inkscape="http://www.inkscape.org/namespaces/inkscape"
   width="90.626251"
   height="90.625"
   id="svg5473"
   version="1.1"
   inkscape:version="0.48.1 "
   sodipodi:docname="New document 23">
  <defs
     id="defs5475" />
  <sodipodi:namedview
     id="base"
     pagecolor="#ffffff"
     bordercolor="#666666"
     borderopacity="1.0"
     inkscape:pageopacity="0.0"
     inkscape:pageshadow="2"
     inkscape:zoom="0.35"
     inkscape:cx="46.027407"
     inkscape:cy="-40.40179"
     inkscape:document-units="px"
     inkscape:current-layer="layer1"
     showgrid="false"
     fit-margin-top="0"
     fit-margin-left="0"
     fit-margin-right="0"
     fit-margin-bottom="0"
     inkscape:window-width="469"
     inkscape:window-height="403"
     inkscape:window-x="25"
     inkscape:window-y="25"
     inkscape:window-maximized="0" />
  <metadata
     id="metadata5478">
    <rdf:RDF>
      <cc:Work
         rdf:about="">
        <dc:format>image/svg+xml</dc:format>
        <dc:type
           rdf:resource="http://purl.org/dc/dcmitype/StillImage" />
        <dc:title></dc:title>
      </cc:Work>
    </rdf:RDF>
  </metadata>
  <g
     inkscape:label="Layer 1"
     inkscape:groupmode="layer"
     id="layer1"
     transform="translate(-328.97259,-401.33539)">
    <path
       inkscape:connector-curvature="0"
       id="path4137"
       style="fill:#fccf34;fill-opacity:1;fill-rule:nonzero;stroke:none"
       d="m 330.57228,443.52508 40.59125,-40.59 c 1.71625,-1.71625 4.52625,-1.71625 6.245,0 l 40.58875,40.59 c 1.71875,1.7175 1.71875,4.52625 0,6.245 l -40.58875,40.58875 c -1.71875,1.71875 -4.52875,1.71875 -6.245,0 l -40.59125,-40.58875 c -1.71625,-1.71875 -1.71625,-4.5275 0,-6.245" />
    <path
       inkscape:connector-curvature="0"
       id="path4141"
       style="fill:none;stroke:#231f20;stroke-width:0.625;stroke-linecap:butt;stroke-linejoin:miter;stroke-miterlimit:4;stroke-opacity:1;stroke-dasharray:none"
       d="m 330.57228,443.52508 40.59125,-40.59 c 1.71625,-1.71625 4.52625,-1.71625 6.245,0 l 40.58875,40.59 c 1.71875,1.7175 1.71875,4.52625 0,6.245 l -40.58875,40.58875 c -1.71875,1.71875 -4.52875,1.71875 -6.245,0 l -40.59125,-40.58875 c -1.71625,-1.71875 -1.71625,-4.5275 0,-6.245 z" />
    <path
       inkscape:connector-curvature="0"
       id="path4153"
       style="fill:#231f20;fill-opacity:1;fill-rule:evenodd;stroke:none"
       d="m 331.55103,444.16958 40.25625,-40.25625 c 1.3625,-1.36125 3.59125,-1.36125 4.95625,0 l 40.25375,40.25625 c 1.3625,1.3625 1.3625,3.59125 0,4.95625 l -40.25375,40.25625 c -1.365,1.3625 -3.59375,1.3625 -4.95625,0 l -40.25625,-40.25625 c -1.36125,-1.365 -1.36125,-3.59375 0,-4.95625" />
    <path
       inkscape:connector-curvature="0"
       id="path4157"
       style="fill:#fccf34;fill-opacity:1;fill-rule:evenodd;stroke:none"
       d="m 332.81103,445.40983 40.2375,-40.2375 c 0.68125,-0.68 1.79375,-0.68 2.475,0 l 40.2375,40.2375 c 0.68,0.68125 0.68,1.795 0,2.475 l -40.2375,40.2375 c -0.68125,0.68125 -1.79375,0.68125 -2.475,0 l -40.2375,-40.2375 c -0.68125,-0.68 -0.68125,-1.79375 0,-2.475" />
    <path
       inkscape:connector-curvature="0"
       id="path4161"
       style="fill:#231f20;fill-opacity:1;fill-rule:evenodd;stroke:none"
       d="m 376.0099,437.85308 2.74375,-14.085 -14.0375,2.7 c -0.6325,0.135 -1.03625,0.72 -0.9475,1.35 0.09,0.405 0.405,0.63 0.76625,0.855 l 3.19375,1.71 -19.12375,19.125 4.40875,4.41 19.12625,-19.125 1.70875,3.15 c 0.225,0.45 0.4525,0.72 0.855,0.81 0.58625,0.135 1.215,-0.315 1.30625,-0.9" />
    <path
       inkscape:connector-curvature="0"
       id="path4165"
       style="fill:none;stroke:#231f20;stroke-width:0.27000001;stroke-linecap:butt;stroke-linejoin:miter;stroke-miterlimit:4;stroke-opacity:1;stroke-dasharray:none"
       d="m 376.0099,437.85308 2.74375,-14.085 -14.0375,2.7 c -0.6325,0.135 -1.03625,0.72 -0.9475,1.35 0.09,0.405 0.405,0.63 0.76625,0.855 l 3.19375,1.71 -19.12375,19.125 4.40875,4.41 19.12625,-19.125 1.70875,3.15 c 0.225,0.45 0.4525,0.72 0.855,0.81 0.58625,0.135 1.215,-0.315 1.30625,-0.9 z" />
    <path
       inkscape:connector-curvature="0"
       id="path4169"
       style="fill:#231f20;fill-opacity:1;fill-rule:evenodd;stroke:none"
       d="m 386.5399,453.15333 0,0 c -0.90125,0.9 -1.395,2.16 -1.35,3.33 l 0,19.17 -6.255,0 0,-19.08125 c -0.045,-2.83375 1.125,-5.75875 3.195,-7.82875 l 1.98,-1.935 -3.195,-1.71 c -0.40625,-0.225 -0.67375,-0.45125 -0.765,-0.9 -0.13625,-0.63 0.26875,-1.215 0.89875,-1.35 l 14.0875,-2.7 -2.70125,14.085 c -0.13625,0.63 -0.72,1.03375 -1.35,0.9 -0.405,-0.045 -0.63,-0.36 -0.9,-0.765 l -1.665,-3.15 -1.98,1.935 z" />
    <path
       inkscape:connector-curvature="0"
       id="path4173"
       style="fill:none;stroke:#231f20;stroke-width:0.27000001;stroke-linecap:butt;stroke-linejoin:miter;stroke-miterlimit:4;stroke-opacity:1;stroke-dasharray:none"
       d="m 386.5399,453.15333 0,0 c -0.90125,0.9 -1.395,2.16 -1.35,3.33 l 0,19.17 -6.255,0 0,-19.08125 c -0.045,-2.83375 1.125,-5.75875 3.195,-7.82875 l 1.98,-1.935 -3.195,-1.71 c -0.40625,-0.225 -0.67375,-0.45125 -0.765,-0.9 -0.13625,-0.63 0.26875,-1.215 0.89875,-1.35 l 14.0875,-2.7 -2.70125,14.085 c -0.13625,0.63 -0.72,1.03375 -1.35,0.9 -0.405,-0.045 -0.63,-0.36 -0.9,-0.765 l -1.665,-3.15 -1.98,1.935 z" />
    <path
       inkscape:connector-curvature="0"
       id="path4177"
       style="fill:#231f20;fill-opacity:1;fill-rule:evenodd;stroke:none"
       d="m 368.94365,456.75321 -0.09,22.99375 2.385,0 0.0462,-22.99375 c -0.09,-4.95 1.89,-9.9 5.39875,-13.455 l 0.09,-0.09 -1.665,-1.665 -22.94875,22.995 1.62125,1.61875 16.19875,-16.10875 c -0.72125,2.115 -1.08,4.59 -1.03625,6.705" />
    <path
       inkscape:connector-curvature="0"
       id="path4181"
       style="fill:none;stroke:#231f20;stroke-width:0.27000001;stroke-linecap:butt;stroke-linejoin:miter;stroke-miterlimit:4;stroke-opacity:1;stroke-dasharray:none"
       d="m 368.94365,456.75321 -0.09,22.99375 2.385,0 0.0462,-22.99375 c -0.09,-4.95 1.89,-9.9 5.39875,-13.455 l 0.09,-0.09 -1.665,-1.665 -22.94875,22.995 1.62125,1.61875 16.19875,-16.10875 c -0.72125,2.115 -1.08,4.59 -1.03625,6.705 z" />
    <path
       inkscape:connector-curvature="0"
       id="path4185"
       style="fill:#231f20;fill-opacity:1;fill-rule:evenodd;stroke:none"
       d="m 392.38853,424.26296 1.665,1.665 -3.28375,3.285 -1.665,-1.62 3.28375,-3.33 z" />
    <path
       inkscape:connector-curvature="0"
       id="path4189"
       style="fill:none;stroke:#231f20;stroke-width:0.27000001;stroke-linecap:butt;stroke-linejoin:miter;stroke-miterlimit:4;stroke-opacity:1;stroke-dasharray:none"
       d="m 392.38853,424.26296 1.665,1.665 -3.28375,3.285 -1.665,-1.62 3.28375,-3.33 z" />
    <path
       inkscape:connector-curvature="0"
       id="path4193"
       style="fill:#231f20;fill-opacity:1;fill-rule:evenodd;stroke:none"
       d="m 386.62978,430.02296 1.665,1.665 -3.28625,3.285 -1.665,-1.665 3.28625,-3.285 z" />
    <path
       inkscape:connector-curvature="0"
       id="path4197"
       style="fill:none;stroke:#231f20;stroke-width:0.27000001;stroke-linecap:butt;stroke-linejoin:miter;stroke-miterlimit:4;stroke-opacity:1;stroke-dasharray:none"
       d="m 386.62978,430.02296 1.665,1.665 -3.28625,3.285 -1.665,-1.665 3.28625,-3.285 z" />
    <path
       inkscape:connector-curvature="0"
       id="path4201"
       style="fill:#231f20;fill-opacity:1;fill-rule:evenodd;stroke:none"
       d="m 380.8699,435.78283 1.665,1.665 -3.285,3.285 -1.665,-1.665 3.285,-3.285 z" />
    <path
       inkscape:connector-curvature="0"
       id="path4205"
       style="fill:none;stroke:#231f20;stroke-width:0.27000001;stroke-linecap:butt;stroke-linejoin:miter;stroke-miterlimit:4;stroke-opacity:1;stroke-dasharray:none"
       d="m 380.8699,435.78283 1.665,1.665 -3.285,3.285 -1.665,-1.665 3.285,-3.285 z" />
  </g>
</svg>
