<?xml version="1.0" encoding="UTF-8" standalone="no"?>
<!-- Created with Inkscape (http://www.inkscape.org/) -->

<svg
   xmlns:dc="http://purl.org/dc/elements/1.1/"
   xmlns:cc="http://creativecommons.org/ns#"
   xmlns:rdf="http://www.w3.org/1999/02/22-rdf-syntax-ns#"
   xmlns:svg="http://www.w3.org/2000/svg"
   xmlns="http://www.w3.org/2000/svg"
   xmlns:sodipodi="http://sodipodi.sourceforge.net/DTD/sodipodi-0.dtd"
   xmlns:inkscape="http://www.inkscape.org/namespaces/inkscape"
   width="90.610626"
   height="90.625938"
   id="svg4139"
   version="1.1"
   inkscape:version="0.48.1 "
   sodipodi:docname="New document 7">
  <defs
     id="defs4141">
    <clipPath
       clipPathUnits="userSpaceOnUse"
       id="clipPath3195">
      <path
         inkscape:connector-curvature="0"
         d="m 27.125,314.737 513.435,0 0,423.263 -513.435,0 0,-423.263 z"
         id="path3197" />
    </clipPath>
  </defs>
  <sodipodi:namedview
     id="base"
     pagecolor="#ffffff"
     bordercolor="#666666"
     borderopacity="1.0"
     inkscape:pageopacity="0.0"
     inkscape:pageshadow="2"
     inkscape:zoom="0.35"
     inkscape:cx="63.162452"
     inkscape:cy="-20.40127"
     inkscape:document-units="px"
     inkscape:current-layer="layer1"
     showgrid="false"
     fit-margin-top="0"
     fit-margin-left="0"
     fit-margin-right="0"
     fit-margin-bottom="0"
     inkscape:window-width="469"
     inkscape:window-height="403"
     inkscape:window-x="25"
     inkscape:window-y="25"
     inkscape:window-maximized="0" />
  <metadata
     id="metadata4144">
    <rdf:RDF>
      <cc:Work
         rdf:about="">
        <dc:format>image/svg+xml</dc:format>
        <dc:type
           rdf:resource="http://purl.org/dc/dcmitype/StillImage" />
        <dc:title></dc:title>
      </cc:Work>
    </rdf:RDF>
  </metadata>
  <g
     inkscape:label="Layer 1"
     inkscape:groupmode="layer"
     id="layer1"
     transform="translate(-311.83755,-421.33498)">
    <g
       transform="matrix(1.25,0,0,-1.25,164.37011,1315.9611)"
       clip-path="url(#clipPath3195)"
       id="g3193">
      <g
         transform="translate(119.1772,681.7864)"
         id="g3199">
        <path
           inkscape:connector-curvature="0"
           id="path3201"
           style="fill:#fccf34;fill-opacity:1;fill-rule:nonzero;stroke:#231f20;stroke-width:0.5;stroke-linecap:butt;stroke-linejoin:miter;stroke-miterlimit:4;stroke-opacity:1;stroke-dasharray:none"
           d="m 0,0 32.699,32.7 c 1.286,1.286 3.386,1.286 4.673,0 L 70.07,0 c 1.287,-1.286 1.287,-3.384 0,-4.671 l -32.698,-32.7 c -1.287,-1.287 -3.387,-1.287 -4.673,0 L 0,-4.671 C -1.271,-3.401 -1.271,-1.27 0,0" />
      </g>
      <g
         transform="translate(119.8335,681.1458)"
         id="g3203">
        <path
           inkscape:connector-curvature="0"
           id="path3205"
           style="fill:#231f20;fill-opacity:1;fill-rule:evenodd;stroke:none"
           d="m 0,0 32.684,32.683 c 0.926,0.927 2.463,0.925 3.391,0 L 68.757,0 c 0.928,-0.928 0.924,-2.461 0,-3.39 L 36.075,-36.073 c -0.929,-0.925 -2.463,-0.926 -3.391,0 L 0,-3.39 C -0.923,-2.461 -0.927,-0.928 0,0" />
      </g>
      <g
         transform="translate(120.7534,680.2493)"
         id="g3207">
        <path
           inkscape:connector-curvature="0"
           id="path3209"
           style="fill:#fccf34;fill-opacity:1;fill-rule:evenodd;stroke:none"
           d="m 0,0 32.661,32.66 c 0.431,0.447 1.165,0.446 1.596,0 L 66.917,0 c 0.446,-0.431 0.446,-1.166 0,-1.597 l -32.66,-32.659 c -0.43,-0.447 -1.166,-0.448 -1.596,0 L 0,-1.597 C -0.445,-1.165 -0.445,-0.431 0,0" />
      </g>
      <g
         transform="translate(177.1575,689.3173)"
         id="g3211">
        <path
           inkscape:connector-curvature="0"
           id="path3213"
           style="fill:#231f20;fill-opacity:1;fill-rule:evenodd;stroke:none"
           d="M 0,0 -1.422,0 -2.101,-4.634 -3.244,0 -4.603,0 -5.715,-4.634 -6.394,0 l -1.42,0 1.297,-8.803 1.235,0 1.358,5.652 1.391,-5.652 1.235,0 L 0,0 z m -10.347,-4.418 c 0,-0.679 -0.155,-1.544 -0.34,-2.007 -0.309,-0.772 -0.711,-1.112 -1.36,-1.112 -0.555,0 -0.925,0.216 -1.205,0.68 -0.339,0.556 -0.524,1.513 -0.524,2.439 0,0.742 0.124,1.545 0.34,2.07 0.309,0.772 0.741,1.112 1.421,1.081 0.525,-0.03 0.865,-0.216 1.142,-0.679 0.34,-0.587 0.526,-1.483 0.526,-2.472 m 1.389,0 c 0,1.113 -0.216,2.225 -0.587,2.997 -0.555,1.081 -1.328,1.575 -2.439,1.575 -1.02,0 -1.731,-0.309 -2.256,-0.989 -0.586,-0.834 -0.957,-2.13 -0.957,-3.583 0,-1.049 0.247,-2.223 0.617,-2.965 0.526,-1.081 1.298,-1.58 2.533,-1.58 0.927,0 1.637,0.314 2.131,0.993 0.618,0.773 0.958,2.163 0.958,3.552 m -9.08,1.947 c 0,-0.371 -0.217,-0.742 -0.557,-0.927 -0.214,-0.124 -0.369,-0.154 -0.802,-0.154 l -1.668,0 0,2.162 1.668,0 c 0.463,0 0.588,-0.031 0.802,-0.155 0.34,-0.185 0.557,-0.556 0.557,-0.926 m 1.576,-6.332 -1.545,4.108 c 0.803,0.37 1.36,1.297 1.36,2.224 0,0.895 -0.557,1.822 -1.328,2.193 C -18.409,-0.062 -18.872,0 -19.552,0 l -2.904,0 0,-8.803 1.391,0 0,3.83 1.668,0 1.422,-3.83 1.513,0 z m -9.021,6.332 c 0,-0.371 -0.216,-0.742 -0.556,-0.927 -0.216,-0.124 -0.37,-0.154 -0.803,-0.154 l -1.668,0 0,2.162 1.668,0 c 0.463,0 0.587,-0.031 0.803,-0.155 0.34,-0.185 0.556,-0.556 0.556,-0.926 m 1.576,-6.332 -1.545,4.108 c 0.803,0.37 1.359,1.297 1.359,2.224 0,0.895 -0.556,1.822 -1.328,2.193 C -25.853,-0.062 -26.317,0 -26.996,0 l -2.903,0 0,-8.803 1.389,0 0,3.83 1.668,0 1.421,-3.83 1.514,0 z m -10.162,3.891 -1.761,0 0.896,2.472 0.865,-2.472 z m 2.842,-3.891 -3.028,8.803 -1.389,0 -3.028,-8.803 1.483,0 0.865,2.47 2.749,0 0.864,-2.47 1.484,0 z m -8.742,0 0,8.803 -1.39,0 0,-5.622 -3.212,5.622 -1.39,0 0,-8.803 1.39,0 0,5.961 3.367,-5.961 1.235,0 z" />
      </g>
      <g
         transform="translate(173.2915,667.3445)"
         id="g3215">
        <path
           inkscape:connector-curvature="0"
           id="path3217"
           style="fill:#231f20;fill-opacity:1;fill-rule:evenodd;stroke:none"
           d="m 0,0 0,1.421 -4.077,0 0,2.409 2.563,0 0,1.421 -2.563,0 0,2.162 3.799,0 0,1.391 -5.19,0 L -5.468,0 0,0 z m -7.136,2.626 0,1.76 -2.996,0 0,-1.39 1.607,0 0,-0.37 c 0,-0.804 -0.649,-1.359 -1.544,-1.359 -0.526,0 -0.927,0.216 -1.205,0.711 -0.278,0.554 -0.432,1.482 -0.432,2.408 0,0.742 0.123,1.545 0.34,2.07 0.308,0.772 0.771,1.08 1.482,1.08 0.68,0 1.05,-0.277 1.42,-1.049 l 1.328,0.525 c -0.586,1.389 -1.389,1.946 -2.748,1.946 -0.988,0 -1.73,-0.34 -2.255,-0.988 -0.586,-0.773 -0.988,-2.162 -0.988,-3.584 0,-1.08 0.217,-2.162 0.588,-2.934 0.524,-1.112 1.296,-1.611 2.624,-1.611 1.605,0 2.779,1.179 2.779,2.785 m -8.893,1.791 c 0,-1.174 -0.28,-2.131 -0.805,-2.656 -0.246,-0.247 -0.523,-0.34 -0.988,-0.34 l -1.391,0 0,5.992 1.576,0 c 0.371,0 0.68,-0.154 0.897,-0.371 0.431,-0.463 0.711,-1.451 0.711,-2.625 m 1.42,0 c 0,1.731 -0.526,3.119 -1.452,3.923 -0.462,0.37 -0.802,0.464 -1.699,0.464 l -2.843,0 0,-8.804 2.689,0 0.494,0 c 0.463,0.03 0.926,0.186 1.266,0.494 0.988,0.773 1.545,2.162 1.545,3.923 m -7.816,4.387 -1.421,0 0,-8.804 1.421,0 0,8.804 z m -4.201,-2.472 c 0,-0.37 -0.216,-0.741 -0.556,-0.927 -0.215,-0.123 -0.371,-0.154 -0.802,-0.154 l -1.668,0 0,2.162 1.668,0 c 0.463,0 0.587,-0.031 0.802,-0.154 0.34,-0.186 0.556,-0.556 0.556,-0.927 M -25.051,0 -26.595,4.108 c 0.803,0.371 1.36,1.297 1.36,2.224 0,0.896 -0.557,1.823 -1.328,2.193 -0.433,0.216 -0.897,0.279 -1.576,0.279 l -2.904,0 0,-8.804 1.391,0 0,3.83 1.668,0 1.421,-3.83 1.512,0 z m -8.617,2.441 c 0,-0.68 -0.371,-1.02 -1.081,-1.02 l -2.101,0 0,2.409 1.761,0 c 0.309,0 0.402,0 0.587,-0.061 0.494,-0.186 0.834,-0.743 0.834,-1.328 m -0.186,4.077 c 0,-0.402 -0.185,-0.773 -0.494,-1.02 -0.247,-0.184 -0.432,-0.247 -0.834,-0.247 l -1.668,0 0,2.162 2.039,0 c 0.618,0 0.957,-0.309 0.957,-0.895 m 1.607,-4.046 c 0,0.957 -0.525,1.698 -1.452,2.131 0.834,0.463 1.235,1.111 1.235,1.976 0,1.267 -1.05,2.225 -2.439,2.225 l -3.336,0 0,-8.804 3.336,0 c 0.401,0 0.926,0.093 1.235,0.216 0.834,0.34 1.421,1.298 1.421,2.256" />
      </g>
    </g>
  </g>
</svg>
