<?xml version="1.0" encoding="UTF-8" standalone="no"?>
<!-- Created with Inkscape (http://www.inkscape.org/) -->

<svg
   xmlns:dc="http://purl.org/dc/elements/1.1/"
   xmlns:cc="http://creativecommons.org/ns#"
   xmlns:rdf="http://www.w3.org/1999/02/22-rdf-syntax-ns#"
   xmlns:svg="http://www.w3.org/2000/svg"
   xmlns="http://www.w3.org/2000/svg"
   xmlns:sodipodi="http://sodipodi.sourceforge.net/DTD/sodipodi-0.dtd"
   xmlns:inkscape="http://www.inkscape.org/namespaces/inkscape"
   width="90.610939"
   height="90.624062"
   id="svg4399"
   version="1.1"
   inkscape:version="0.48.1 "
   sodipodi:docname="New document 14">
  <defs
     id="defs4401" />
  <sodipodi:namedview
     id="base"
     pagecolor="#ffffff"
     bordercolor="#666666"
     borderopacity="1.0"
     inkscape:pageopacity="0.0"
     inkscape:pageshadow="2"
     inkscape:zoom="0.35"
     inkscape:cx="-25.408815"
     inkscape:cy="-120.40226"
     inkscape:document-units="px"
     inkscape:current-layer="layer1"
     showgrid="false"
     fit-margin-top="0"
     fit-margin-left="0"
     fit-margin-right="0"
     fit-margin-bottom="0"
     inkscape:window-width="469"
     inkscape:window-height="403"
     inkscape:window-x="144"
     inkscape:window-y="177"
     inkscape:window-maximized="0" />
  <metadata
     id="metadata4404">
    <rdf:RDF>
      <cc:Work
         rdf:about="">
        <dc:format>image/svg+xml</dc:format>
        <dc:type
           rdf:resource="http://purl.org/dc/dcmitype/StillImage" />
        <dc:title></dc:title>
      </cc:Work>
    </rdf:RDF>
  </metadata>
  <g
     inkscape:label="Layer 1"
     inkscape:groupmode="layer"
     id="layer1"
     transform="translate(-400.40881,-321.33586)">
    <g
       id="g3255"
       transform="matrix(1.25,0,0,-1.25,489.51569,369.56774)">
      <path
         d="m 0,0 -32.7,-32.7 c -1.287,-1.285 -3.384,-1.285 -4.67,0 L -70.071,0 c -1.286,1.287 -1.286,3.385 0,4.672 l 32.701,32.699 c 1.286,1.286 3.383,1.286 4.67,0 L 0,4.672 C 1.271,3.401 1.271,1.271 0,0"
         style="fill:#fccf34;fill-opacity:1;fill-rule:nonzero;stroke:#231f20;stroke-width:0.5;stroke-linecap:butt;stroke-linejoin:miter;stroke-miterlimit:4;stroke-opacity:1;stroke-dasharray:none"
         id="path3257"
         inkscape:connector-curvature="0" />
    </g>
    <g
       id="g3259"
       transform="matrix(1.25,0,0,-1.25,488.69445,368.76686)">
      <path
         d="m 0,0 -32.683,-32.682 c -0.924,-0.924 -2.465,-0.928 -3.391,0 L -68.756,0 c -0.926,0.926 -0.926,2.465 0,3.391 l 32.682,32.682 c 0.928,0.928 2.465,0.924 3.391,0 L 0,3.391 C 0.926,2.463 0.926,0.928 0,0"
         style="fill:#231f20;fill-opacity:1;fill-rule:evenodd;stroke:none"
         id="path3261"
         inkscape:connector-curvature="0" />
    </g>
    <g
       id="g3263"
       transform="matrix(1.25,0,0,-1.25,487.54444,367.64523)">
      <path
         d="m 0,0 -32.66,-32.66 c -0.431,-0.447 -1.166,-0.447 -1.597,0 L -66.917,0 c -0.447,0.43 -0.445,1.166 0,1.596 l 32.66,32.66 c 0.431,0.447 1.166,0.447 1.597,0 L 0,1.596 C 0.446,1.167 0.448,0.43 0,0"
         style="fill:#fccf34;fill-opacity:1;fill-rule:evenodd;stroke:none"
         id="path3265"
         inkscape:connector-curvature="0" />
    </g>
    <g
       id="g3267"
       transform="matrix(1.25,0,0,-1.25,424.39195,373.33486)">
      <path
         d="m 0,0 0,4.924 c 0,2.412 0.562,4.792 1.578,6.976 0.339,0.729 0.73,1.436 1.182,2.101 0.834,1.228 1.749,2.409 2.37,3.766 0.625,1.365 0.981,2.852 0.981,4.357 l 0,3.794 6.108,0 0,-3.794 c 0,-1.656 -0.238,-3.312 -0.7,-4.902 C 11.101,15.783 10.503,14.367 9.654,13.128 9.234,12.514 8.75,11.944 8.28,11.372 7.861,10.862 7.467,10.347 7.179,9.753 6.44,8.233 6.184,6.54 6.172,4.864 L 6.138,0 9.684,1.164 c 0.113,0.048 0.211,0.08 0.335,0.089 0.441,0.035 0.883,-0.189 1.123,-0.562 0.205,-0.322 0.251,-0.741 0.129,-1.102 -0.062,-0.188 -0.165,-0.286 -0.274,-0.443 L 3.115,-12.221 -4.889,-0.823 c -0.202,0.286 -0.32,0.385 -0.335,0.725 -0.023,0.482 0.134,0.884 0.547,1.16 0.261,0.176 0.572,0.223 0.879,0.176 0.088,-0.013 0.14,-0.046 0.222,-0.074 L 0,0 z"
         style="fill:#231f20;fill-opacity:1;fill-rule:evenodd;stroke:none"
         id="path3269"
         inkscape:connector-curvature="0" />
    </g>
    <g
       id="g3271"
       transform="matrix(1.25,0,0,-1.25,451.12195,351.79236)">
      <path
         d="m 0,0 -3.576,-1.155 c -0.157,-0.057 -0.237,-0.095 -0.399,-0.095 -0.455,0 -0.805,0.149 -1.07,0.531 -0.236,0.338 -0.276,0.788 -0.125,1.17 0.064,0.167 0.148,0.239 0.248,0.379 L 3.115,12.226 10.97,0.859 C 11.047,0.748 11.222,0.536 11.273,0.372 11.31,0.252 11.336,0.126 11.338,0 c 0.004,-0.512 -0.33,-0.944 -0.784,-1.148 -0.195,-0.09 -0.388,-0.119 -0.595,-0.081 -0.096,0.017 -0.19,0.023 -0.274,0.074 L 6.111,0 6.138,-4.858 c 0.006,-1.138 0.133,-2.275 0.45,-3.369 0.248,-0.859 0.607,-1.707 1.152,-2.424 0.482,-0.636 1.006,-1.242 1.496,-1.873 0.414,-0.536 0.779,-1.113 1.088,-1.715 1.244,-2.415 1.867,-5.142 1.867,-7.853 l 0,-3.816 -6.111,0 0,3.816 c 0,2.098 -0.686,4.186 -1.854,5.922 -0.457,0.677 -0.937,1.341 -1.394,2.018 -0.49,0.725 -0.92,1.491 -1.283,2.285 C 0.541,-9.676 0,-7.296 0,-4.886 L 0,0 z"
         style="fill:#231f20;fill-opacity:1;fill-rule:evenodd;stroke:none"
         id="path3273"
         inkscape:connector-curvature="0" />
    </g>
    <g
       id="g3275"
       transform="matrix(1.25,0,0,-1.25,438.27195,394.20711)">
      <path
         d="m 0,0 c 0.028,1.168 0.057,2.336 0.135,3.502 0.165,2.479 0.554,4.936 1.166,7.342 0.499,1.951 1.016,3.931 1.873,5.762 0.085,0.18 0.185,0.355 0.296,0.519 0.466,0.687 1.095,1.115 1.911,1.286 C 6.178,18.576 7.016,18.359 7.676,17.89 8.141,17.561 8.473,17.068 8.688,16.545 9.362,14.914 9.86,13.209 10.29,11.5 10.958,8.854 11.487,6.174 11.692,3.451 11.778,2.303 11.803,1.15 11.833,0 L 0,0 z"
         style="fill:#231f20;fill-opacity:1;fill-rule:evenodd;stroke:none"
         id="path3277"
         inkscape:connector-curvature="0" />
    </g>
  </g>
</svg>
