<?xml version="1.0" encoding="UTF-8" standalone="no"?>
<!-- Created with Inkscape (http://www.inkscape.org/) -->

<svg
   xmlns:dc="http://purl.org/dc/elements/1.1/"
   xmlns:cc="http://creativecommons.org/ns#"
   xmlns:rdf="http://www.w3.org/1999/02/22-rdf-syntax-ns#"
   xmlns:svg="http://www.w3.org/2000/svg"
   xmlns="http://www.w3.org/2000/svg"
   xmlns:sodipodi="http://sodipodi.sourceforge.net/DTD/sodipodi-0.dtd"
   xmlns:inkscape="http://www.inkscape.org/namespaces/inkscape"
   width="82.324997"
   height="82.326874"
   id="svg6970"
   version="1.1"
   inkscape:version="0.48.1 "
   sodipodi:docname="New document 58">
  <defs
     id="defs6972">
    <clipPath
       clipPathUnits="userSpaceOnUse"
       id="clipPath6251">
      <path
         inkscape:connector-curvature="0"
         d="m 63.125,434.574 513.125,0 0,303.426 -513.125,0 0,-303.426 z"
         id="path6253" />
    </clipPath>
  </defs>
  <sodipodi:namedview
     id="base"
     pagecolor="#ffffff"
     bordercolor="#666666"
     borderopacity="1.0"
     inkscape:pageopacity="0.0"
     inkscape:pageshadow="2"
     inkscape:zoom="0.35"
     inkscape:cx="24.733928"
     inkscape:cy="144.02055"
     inkscape:document-units="px"
     inkscape:current-layer="layer1"
     showgrid="false"
     fit-margin-top="0"
     fit-margin-left="0"
     fit-margin-right="0"
     fit-margin-bottom="0"
     inkscape:window-width="469"
     inkscape:window-height="403"
     inkscape:window-x="25"
     inkscape:window-y="25"
     inkscape:window-maximized="0" />
  <metadata
     id="metadata6975">
    <rdf:RDF>
      <cc:Work
         rdf:about="">
        <dc:format>image/svg+xml</dc:format>
        <dc:type
           rdf:resource="http://purl.org/dc/dcmitype/StillImage" />
        <dc:title></dc:title>
      </cc:Work>
    </rdf:RDF>
  </metadata>
  <g
     inkscape:label="Layer 1"
     inkscape:groupmode="layer"
     id="layer1"
     transform="translate(-350.26607,-594.05586)">
    <g
       transform="matrix(1.25,0,0,-1.25,135.86476,1488.5643)"
       id="g6247">
      <g
         id="g6249"
         clip-path="url(#clipPath6251)">
        <g
           id="g6255"
           transform="translate(172.7063,684.9445)">
          <path
             inkscape:connector-curvature="0"
             d="m 0,0 29.478,29.477 c 1.247,1.247 3.288,1.247 4.537,0 L 63.488,0 c 1.249,-1.248 1.249,-3.289 0,-4.536 L 34.015,-34.014 c -1.249,-1.247 -3.29,-1.247 -4.537,0 L 0,-4.536 C -1.247,-3.289 -1.247,-1.248 0,0"
             style="fill:#fccf34;fill-opacity:1;fill-rule:nonzero;stroke:none"
             id="path6257" />
        </g>
        <g
           id="g6259"
           transform="translate(172.7063,684.9445)">
          <path
             inkscape:connector-curvature="0"
             d="m 0,0 29.478,29.477 c 1.247,1.247 3.288,1.247 4.537,0 L 63.488,0 c 1.249,-1.248 1.249,-3.289 0,-4.536 L 34.015,-34.014 c -1.249,-1.247 -3.29,-1.247 -4.537,0 L 0,-4.536 C -1.247,-3.289 -1.247,-1.248 0,0 z"
             style="fill:none;stroke:#231f20;stroke-width:0.5;stroke-linecap:butt;stroke-linejoin:miter;stroke-miterlimit:4;stroke-opacity:1;stroke-dasharray:none"
             id="path6261" />
        </g>
        <g
           id="g6263"
           transform="translate(173.4162,684.4748)">
          <path
             inkscape:connector-curvature="0"
             d="m 0,0 29.235,29.235 c 0.99,0.99 2.609,0.99 3.601,0 L 62.068,0 c 0.988,-0.989 0.988,-2.608 0,-3.598 L 32.836,-32.833 c -0.992,-0.989 -2.611,-0.989 -3.601,0 L 0,-3.598 C -0.989,-2.608 -0.989,-0.989 0,0"
             style="fill:#231f20;fill-opacity:1;fill-rule:evenodd;stroke:none"
             id="path6265" />
        </g>
        <g
           id="g6267"
           transform="translate(174.3303,683.5749)">
          <path
             inkscape:connector-curvature="0"
             d="m 0,0 29.223,29.221 c 0.492,0.495 1.304,0.495 1.799,0 L 60.24,0 c 0.495,-0.495 0.495,-1.303 0,-1.797 L 31.022,-31.019 c -0.495,-0.495 -1.307,-0.495 -1.799,0 L 0,-1.797 C -0.495,-1.303 -0.495,-0.495 0,0"
             style="fill:#fccf34;fill-opacity:1;fill-rule:evenodd;stroke:none"
             id="path6269" />
        </g>
        <g
           id="g6271"
           transform="translate(201.1821,665.9059)">
          <path
             inkscape:connector-curvature="0"
             d="m 0,0 c 0,-0.719 -0.62,-1.307 -1.406,-1.307 -0.75,0 -1.372,0.588 -1.372,1.307 0,0.654 0.622,1.177 1.372,1.177 C -0.654,1.177 0,0.654 0,0 m -0.326,3.269 c 0,-0.458 -0.491,-0.85 -1.08,-0.85 -0.586,0 -1.077,0.392 -1.077,0.85 0,0.522 0.491,0.915 1.077,0.915 0.589,0 1.08,-0.393 1.08,-0.915 M 1.242,0.033 c 0,0.719 -0.294,1.34 -0.915,1.797 0.392,0.425 0.621,0.883 0.621,1.406 0,1.209 -1.111,2.222 -2.354,2.222 -1.241,0 -2.319,-1.013 -2.319,-2.222 0,-0.523 0.195,-0.981 0.588,-1.406 C -3.725,1.373 -4.02,0.785 -4.02,0.033 c 0,-1.405 1.209,-2.614 2.614,-2.614 1.406,0 2.648,1.209 2.648,2.614"
             style="fill:#231f20;fill-opacity:1;fill-rule:evenodd;stroke:none"
             id="path6273" />
        </g>
        <g
           id="g6275"
           transform="translate(211.1501,671.1022)">
          <path
             inkscape:connector-curvature="0"
             d="m 0,0 -1.144,0 -4.445,-7.68 1.144,0 L 0,0 z"
             style="fill:#231f20;fill-opacity:1;fill-rule:evenodd;stroke:none"
             id="path6277" />
        </g>
        <g
           id="g6279"
           transform="translate(207.1951,668.8151)">
          <path
             inkscape:connector-curvature="0"
             d="m 0,0 c 0,0.588 -0.13,1.144 -0.326,1.568 -0.261,0.556 -0.686,0.817 -1.275,0.817 -0.524,0 -0.882,-0.163 -1.144,-0.523 -0.294,-0.424 -0.49,-1.11 -0.49,-1.862 0,-0.556 0.131,-1.177 0.327,-1.569 0.262,-0.555 0.621,-0.817 1.274,-0.817 0.49,0 0.882,0.163 1.112,0.523 C -0.196,-1.471 0,-0.752 0,0"
             style="fill:#231f20;fill-opacity:1;fill-rule:evenodd;stroke:none"
             id="path6281" />
        </g>
        <g
           id="g6283"
           transform="translate(206.2801,668.8151)">
          <path
             inkscape:connector-curvature="0"
             d="m 0,0 c 0,-0.294 -0.065,-0.654 -0.13,-0.85 -0.13,-0.327 -0.294,-0.458 -0.589,-0.458 -0.229,0 -0.392,0.099 -0.491,0.294 -0.162,0.229 -0.228,0.622 -0.228,1.014 0,0.294 0.066,0.653 0.132,0.85 0.13,0.326 0.326,0.49 0.62,0.457 0.196,0 0.36,-0.066 0.457,-0.262 C -0.065,0.784 0,0.425 0,0"
             style="fill:#fccf34;fill-opacity:1;fill-rule:evenodd;stroke:none"
             id="path6285" />
        </g>
        <g
           id="g6287"
           transform="translate(212.6861,665.7101)">
          <path
             inkscape:connector-curvature="0"
             d="m 0,0 c 0,0.588 -0.131,1.176 -0.326,1.569 -0.295,0.588 -0.687,0.817 -1.276,0.817 -0.522,0 -0.915,-0.131 -1.176,-0.49 C -3.073,1.438 -3.268,0.752 -3.268,0 c 0,-0.555 0.131,-1.176 0.326,-1.536 0.262,-0.589 0.655,-0.849 1.308,-0.849 0.49,0 0.849,0.163 1.111,0.522 C -0.197,-1.438 0,-0.719 0,0"
             style="fill:#231f20;fill-opacity:1;fill-rule:evenodd;stroke:none"
             id="path6289" />
        </g>
        <g
           id="g6291"
           transform="translate(211.7711,665.7101)">
          <path
             inkscape:connector-curvature="0"
             d="m 0,0 c 0,-0.294 -0.066,-0.654 -0.131,-0.85 -0.131,-0.326 -0.327,-0.457 -0.588,-0.457 -0.229,0 -0.393,0.098 -0.49,0.294 -0.163,0.229 -0.229,0.621 -0.229,1.013 0,0.327 0.032,0.654 0.13,0.882 0.131,0.327 0.327,0.458 0.589,0.458 0.228,-0.033 0.391,-0.098 0.49,-0.294 C -0.066,0.785 0,0.425 0,0"
             style="fill:#fccf34;fill-opacity:1;fill-rule:evenodd;stroke:none"
             id="path6293" />
        </g>
        <g
           id="g6295"
           transform="translate(201.3461,683.6843)">
          <path
             inkscape:connector-curvature="0"
             d="M 0,0 C 0.391,0.556 0.457,1.307 0.131,1.928 -0.099,2.352 -0.457,2.68 -0.85,2.843 L 8.758,7.81 C 8.66,7.386 8.693,6.928 8.922,6.503 9.248,5.883 9.869,5.49 10.555,5.49 L 0,0 z m -10.981,-5.621 c 0.36,0.555 0.425,1.274 0.098,1.895 0,0.033 -0.033,0.066 -0.033,0.098 l 5.295,2.746 -0.49,0.98 2.712,1.405 c -0.098,-0.424 -0.066,-0.882 0.163,-1.307 0.328,-0.621 0.948,-1.013 1.634,-1.013 l -9.379,-4.804 z m -5.229,-0.719 1.929,0.981 c 0,-0.034 0.032,-0.066 0.032,-0.099 0.327,-0.62 0.98,-1.013 1.634,-1.013 l -4.346,-2.255 34.215,0 -0.032,17.648 -5.066,-2.614 c 0.392,0.555 0.458,1.306 0.131,1.927 -0.229,0.425 -0.588,0.719 -0.98,0.883 l 2.222,1.176 -4.706,9.085 -19.085,-9.902 4.248,-8.203 -0.555,-0.294 -2.548,4.935 -4.184,-2.157 0,-3.824 -4.314,-2.189 -0.294,-0.817 1.699,-3.268 z"
             style="fill:#231f20;fill-opacity:1;fill-rule:evenodd;stroke:none"
             id="path6297" />
        </g>
      </g>
    </g>
  </g>
</svg>
