<?xml version="1.0" encoding="UTF-8" standalone="no"?>
<!-- Created with Inkscape (http://www.inkscape.org/) -->

<svg
   xmlns:dc="http://purl.org/dc/elements/1.1/"
   xmlns:cc="http://creativecommons.org/ns#"
   xmlns:rdf="http://www.w3.org/1999/02/22-rdf-syntax-ns#"
   xmlns:svg="http://www.w3.org/2000/svg"
   xmlns="http://www.w3.org/2000/svg"
   xmlns:sodipodi="http://sodipodi.sourceforge.net/DTD/sodipodi-0.dtd"
   xmlns:inkscape="http://www.inkscape.org/namespaces/inkscape"
   width="48.408749"
   height="36.3825"
   id="svg7086"
   version="1.1"
   inkscape:version="0.48.1 "
   sodipodi:docname="New document 60">
  <defs
     id="defs7088" />
  <sodipodi:namedview
     id="base"
     pagecolor="#ffffff"
     bordercolor="#666666"
     borderopacity="1.0"
     inkscape:pageopacity="0.0"
     inkscape:pageshadow="2"
     inkscape:zoom="0.35"
     inkscape:cx="-89.36705"
     inkscape:cy="-41.808753"
     inkscape:document-units="px"
     inkscape:current-layer="layer1"
     showgrid="false"
     fit-margin-top="0"
     fit-margin-left="0"
     fit-margin-right="0"
     fit-margin-bottom="0"
     inkscape:window-width="469"
     inkscape:window-height="403"
     inkscape:window-x="30"
     inkscape:window-y="78"
     inkscape:window-maximized="0" />
  <metadata
     id="metadata7091">
    <rdf:RDF>
      <cc:Work
         rdf:about="">
        <dc:format>image/svg+xml</dc:format>
        <dc:type
           rdf:resource="http://purl.org/dc/dcmitype/StillImage" />
        <dc:title></dc:title>
      </cc:Work>
    </rdf:RDF>
  </metadata>
  <g
     inkscape:label="Layer 1"
     inkscape:groupmode="layer"
     id="layer1"
     transform="translate(-464.36705,-454.17093)">
    <g
       id="g6083"
       transform="matrix(1.25,0,0,-1.25,468.64205,454.32718)">
      <path
         d="m 0,0 31.975,0 0.139,0 0.004,-0.003 c 1.654,-0.073 2.992,-1.411 3.06,-3.068 l 0.004,-0.003 0,-0.132 0,-22.443 0,-0.029 0,-10e-4 c -0.013,-1.622 -1.244,-2.962 -2.818,-3.154 l -0.022,-0.023 -0.367,0 -32.063,0 -0.082,0 -0.002,0 c -1.677,0.043 -3.043,1.389 -3.119,3.061 l -0.004,0.003 0,0.143 0,22.29 0.004,0.003 c -0.002,0.05 -0.004,0.1 -0.004,0.15 C -3.295,-1.44 -1.853,0 -0.088,0 -0.058,0 -0.029,0 0,-0.001 L 0,0 z"
         style="fill:#fccf34;fill-opacity:1;fill-rule:nonzero;stroke:none"
         id="path6085"
         inkscape:connector-curvature="0" />
    </g>
    <g
       id="g6087"
       transform="matrix(1.25,0,0,-1.25,468.64205,454.32718)">
      <path
         d="m 0,0 31.975,0 0.139,0 0.004,-0.003 c 1.654,-0.073 2.992,-1.411 3.06,-3.068 l 0.004,-0.003 0,-0.132 0,-22.443 0,-0.029 0,-10e-4 c -0.013,-1.622 -1.244,-2.962 -2.818,-3.154 l -0.022,-0.023 -0.367,0 -32.063,0 -0.082,0 -0.002,0 c -1.677,0.043 -3.043,1.389 -3.119,3.061 l -0.004,0.003 0,0.143 0,22.29 0.004,0.003 c -0.002,0.05 -0.004,0.1 -0.004,0.15 C -3.295,-1.44 -1.853,0 -0.088,0 -0.058,0 -0.029,0 0,-0.001 L 0,0 z"
         style="fill:none;stroke:#231f20;stroke-width:0.25;stroke-linecap:butt;stroke-linejoin:miter;stroke-miterlimit:4;stroke-opacity:1;stroke-dasharray:none"
         id="path6089"
         inkscape:connector-curvature="0" />
    </g>
    <g
       id="g6091"
       transform="matrix(1.25,0,0,-1.25,468.93331,455.12793)">
      <path
         d="m 0,0 31.422,0 c 1.59,0 2.885,-1.297 2.885,-2.887 l 0,-21.801 c 0,-1.589 -1.295,-2.886 -2.885,-2.886 l -31.422,0 c -1.59,0 -2.885,1.297 -2.885,2.886 l 0,21.801 C -2.885,-1.297 -1.59,0 0,0"
         style="fill:#231f20;fill-opacity:1;fill-rule:evenodd;stroke:none"
         id="path6093"
         inkscape:connector-curvature="0" />
    </g>
    <g
       id="g6095"
       transform="matrix(1.25,0,0,-1.25,468.96705,456.3193)">
      <path
         d="m 0,0 31.368,0 c 1.082,0 1.966,-0.884 1.966,-1.968 l 0,-21.743 c 0,-1.084 -0.884,-1.968 -1.966,-1.968 l -31.368,0 c -1.084,0 -1.967,0.884 -1.967,1.968 l 0,21.743 C -1.967,-0.884 -1.084,0 0,0"
         style="fill:#fccf34;fill-opacity:1;fill-rule:evenodd;stroke:none"
         id="path6097"
         inkscape:connector-curvature="0" />
    </g>
    <g
       id="g6099"
       transform="matrix(1.25,0,0,-1.25,507.51705,462.42655)">
      <path
         d="M 0,0 -0.898,0 -1.461,-3.419 -2.068,0 -2.787,0 -3.416,-3.419 -3.955,0 l -0.9,0 1.012,-6.41 0.808,0 0.61,3.351 0.605,-3.351 0.787,0 L 0,0 z m -6.519,-3.194 c 0,-0.741 -0.045,-1.124 -0.203,-1.642 -0.157,-0.539 -0.405,-0.786 -0.787,-0.786 -0.405,0 -0.651,0.247 -0.809,0.786 -0.135,0.518 -0.203,0.922 -0.203,1.62 0,0.719 0.045,1.147 0.203,1.641 0.158,0.539 0.404,0.787 0.809,0.787 0.382,0 0.63,-0.248 0.787,-0.81 0.136,-0.471 0.203,-0.877 0.203,-1.596 m 0.877,0 c 0,0.967 -0.09,1.574 -0.36,2.204 -0.316,0.787 -0.765,1.101 -1.507,1.101 -0.743,0 -1.192,-0.314 -1.528,-1.079 -0.271,-0.607 -0.361,-1.259 -0.361,-2.226 0,-0.99 0.09,-1.596 0.361,-2.226 0.315,-0.765 0.764,-1.105 1.528,-1.105 0.72,0 1.191,0.34 1.507,1.105 0.27,0.606 0.36,1.236 0.36,2.226 m -4.522,-3.216 0,0.854 -2.338,0 0,5.556 -0.922,0 0,-6.41 3.26,0 z m -7.533,0 0,0.9 -2.338,0 0,2.113 1.326,0 0,0.877 -1.326,0 0,1.62 2.092,0 0,0.9 -3.012,0 0,-6.41 3.258,0 z m -4.34,1.755 c 0,0.922 -0.539,1.618 -1.776,2.338 -0.47,0.27 -0.607,0.45 -0.607,0.764 0,0.428 0.338,0.743 0.766,0.743 0.404,0 0.72,-0.292 0.742,-0.743 l 0.875,0 c -0.02,0.967 -0.719,1.664 -1.617,1.664 -0.922,0 -1.643,-0.741 -1.643,-1.664 0,-0.561 0.271,-1.056 0.787,-1.416 1.305,-0.878 0.945,-0.63 1.08,-0.764 0.383,-0.292 0.518,-0.562 0.518,-0.922 0,-0.518 -0.407,-0.967 -0.901,-0.967 -0.629,0 -0.898,0.562 -0.898,1.101 l -0.901,0 c 0,-1.056 0.674,-2.004 1.799,-2.004 0.991,0 1.776,0.836 1.776,1.87 m -4.631,0.157 0,4.498 -0.92,0 0,-4.61 c 0,-0.608 -0.361,-1.012 -0.856,-1.012 -0.541,0 -0.9,0.404 -0.9,1.012 l 0,4.61 -0.922,0 0,-4.498 c 0,-0.518 0.069,-0.787 0.248,-1.124 0.315,-0.54 0.944,-0.903 1.574,-0.903 0.606,0 1.213,0.385 1.528,0.903 0.179,0.337 0.248,0.606 0.248,1.124"
         style="fill:#231f20;fill-opacity:1;fill-rule:evenodd;stroke:none"
         id="path6101"
         inkscape:connector-curvature="0" />
    </g>
    <g
       id="g6103"
       transform="matrix(1.25,0,0,-1.25,498.23081,476.53293)">
      <path
         d="m 0,0 c 0,-0.517 -0.291,-0.809 -0.832,-0.809 l -0.946,0 0,1.619 0.946,0 C -0.338,0.81 0,0.495 0,0 m 0.9,-4.699 -0.924,3.148 C 0.586,-1.326 0.9,-0.764 0.9,0 0.9,1.034 0.224,1.71 -0.788,1.71 l -1.91,0 0,-6.409 0.92,0 0,3.013 0.879,0 0.854,-3.013 0.945,0 z m -6.072,2.653 -0.922,0 0.449,1.844 0.473,-1.844 z m 1.595,-2.653 -1.595,6.409 -0.899,0 -1.597,-6.409 0.923,0 0.426,1.754 1.373,0 0.45,-1.754 0.919,0 z m -4.675,0 0,0.899 -2.338,0 0,2.114 1.324,0 0,0.877 -1.324,0 0,1.619 2.09,0 0,0.9 -3.012,0 0,-6.409 3.26,0 z m -4.52,1.776 0,1.327 -1.643,0 0,-0.899 0.719,0 0,-0.428 c 0,-0.675 -0.224,-0.989 -0.696,-0.989 -0.496,0 -0.81,0.337 -0.945,0.967 -0.09,0.495 -0.135,1.056 -0.135,1.596 0,0.765 0.114,1.484 0.293,1.799 0.159,0.316 0.405,0.473 0.719,0.473 0.45,0 0.743,-0.293 0.764,-0.721 l 0.924,0 c -0.045,0.945 -0.742,1.62 -1.664,1.62 -0.743,0 -1.395,-0.495 -1.62,-1.17 -0.224,-0.607 -0.293,-1.26 -0.293,-2.158 0,-0.832 0.135,-1.731 0.338,-2.204 0.315,-0.72 0.877,-1.106 1.641,-1.106 0.653,0 1.17,0.341 1.416,0.904 0.137,0.269 0.182,0.54 0.182,0.989"
         style="fill:#231f20;fill-opacity:1;fill-rule:evenodd;stroke:none"
         id="path6105"
         inkscape:connector-curvature="0" />
    </g>
  </g>
</svg>
