<?xml version="1.0" encoding="UTF-8" standalone="no"?>
<!-- Created with Inkscape (http://www.inkscape.org/) -->

<svg
   xmlns:dc="http://purl.org/dc/elements/1.1/"
   xmlns:cc="http://creativecommons.org/ns#"
   xmlns:rdf="http://www.w3.org/1999/02/22-rdf-syntax-ns#"
   xmlns:svg="http://www.w3.org/2000/svg"
   xmlns="http://www.w3.org/2000/svg"
   xmlns:sodipodi="http://sodipodi.sourceforge.net/DTD/sodipodi-0.dtd"
   xmlns:inkscape="http://www.inkscape.org/namespaces/inkscape"
   width="48.40625"
   height="36.3825"
   id="svg7470"
   version="1.1"
   inkscape:version="0.48.1 "
   sodipodi:docname="New document 69">
  <defs
     id="defs7472">
    <clipPath
       clipPathUnits="userSpaceOnUse"
       id="clipPath6367">
      <path
         inkscape:connector-curvature="0"
         d="m 63.125,434.574 513.125,0 0,303.426 -513.125,0 0,-303.426 z"
         id="path6369" />
    </clipPath>
    <clipPath
       clipPathUnits="userSpaceOnUse"
       id="clipPath6355">
      <path
         inkscape:connector-curvature="0"
         d="m 80.297,434.574 478.781,0 0,303.426 -478.781,0 0,-303.426 z"
         id="path6357" />
    </clipPath>
    <clipPath
       clipPathUnits="userSpaceOnUse"
       id="clipPath6343">
      <path
         inkscape:connector-curvature="0"
         d="m 63.125,434.574 513.125,0 0,303.426 -513.125,0 0,-303.426 z"
         id="path6345" />
    </clipPath>
  </defs>
  <sodipodi:namedview
     id="base"
     pagecolor="#ffffff"
     bordercolor="#666666"
     borderopacity="1.0"
     inkscape:pageopacity="0.0"
     inkscape:pageshadow="2"
     inkscape:zoom="0.35"
     inkscape:cx="16.345985"
     inkscape:cy="49.619792"
     inkscape:document-units="px"
     inkscape:current-layer="layer1"
     showgrid="false"
     fit-margin-top="0"
     fit-margin-left="0"
     fit-margin-right="0"
     fit-margin-bottom="0"
     inkscape:window-width="469"
     inkscape:window-height="403"
     inkscape:window-x="75"
     inkscape:window-y="75"
     inkscape:window-maximized="0" />
  <metadata
     id="metadata7475">
    <rdf:RDF>
      <cc:Work
         rdf:about="">
        <dc:format>image/svg+xml</dc:format>
        <dc:type
           rdf:resource="http://purl.org/dc/dcmitype/StillImage" />
        <dc:title></dc:title>
      </cc:Work>
    </rdf:RDF>
  </metadata>
  <g
     inkscape:label="Layer 1"
     inkscape:groupmode="layer"
     id="layer1"
     transform="translate(-358.65401,-545.59948)">
    <g
       transform="matrix(1.25,0,0,-1.25,-291.63111,1396.6971)"
       id="g6339">
      <g
         id="g6341"
         clip-path="url(#clipPath6343)">
        <g
           id="g6347"
           transform="translate(523.6481,680.7531)">
          <path
             inkscape:connector-curvature="0"
             d="m 0,0 31.973,0 0.138,0 0.004,-0.003 c 1.655,-0.073 2.992,-1.411 3.061,-3.068 l 0.004,-0.003 0,-0.132 0,-22.444 0,-0.028 -0.002,-10e-4 c -0.014,-1.622 -1.242,-2.963 -2.819,-3.154 l -0.021,-0.023 -0.365,0 -32.063,0 -0.082,0 -0.002,0 c -1.677,0.044 -3.043,1.389 -3.119,3.06 l -0.002,0.004 0,0.142 0,22.291 0.002,0.003 c 0,0.05 -0.002,0.1 -0.002,0.15 0,1.766 1.44,3.206 3.205,3.206 0.03,0 0.059,0 0.088,-0.001 L 0,0 z"
             style="fill:#fccf34;fill-opacity:1;fill-rule:nonzero;stroke:none"
             id="path6349" />
        </g>
      </g>
    </g>
    <g
       transform="matrix(1.25,0,0,-1.25,-291.63111,1396.6971)"
       id="g6351">
      <g
         id="g6353"
         clip-path="url(#clipPath6355)">
        <g
           id="g6359"
           transform="translate(523.6481,680.7531)">
          <path
             inkscape:connector-curvature="0"
             d="m 0,0 31.973,0 0.138,0 0.004,-0.003 c 1.655,-0.073 2.992,-1.411 3.061,-3.068 l 0.004,-0.003 0,-0.132 0,-22.444 0,-0.028 -0.002,-10e-4 c -0.014,-1.622 -1.242,-2.963 -2.819,-3.154 l -0.021,-0.023 -0.365,0 -32.063,0 -0.082,0 -0.002,0 c -1.677,0.044 -3.043,1.389 -3.119,3.06 l -0.002,0.004 0,0.142 0,22.291 0.002,0.003 c 0,0.05 -0.002,0.1 -0.002,0.15 0,1.766 1.44,3.206 3.205,3.206 0.03,0 0.059,0 0.088,-0.001 L 0,0 z"
             style="fill:none;stroke:#231f20;stroke-width:0.25;stroke-linecap:butt;stroke-linejoin:miter;stroke-miterlimit:4;stroke-opacity:1;stroke-dasharray:none"
             id="path6361" />
        </g>
      </g>
    </g>
    <g
       transform="matrix(1.25,0,0,-1.25,-291.63111,1396.6971)"
       id="g6363">
      <g
         id="g6365"
         clip-path="url(#clipPath6367)">
        <g
           id="g6371"
           transform="translate(523.8791,680.1115)">
          <path
             inkscape:connector-curvature="0"
             d="m 0,0 31.421,0 c 1.588,0 2.885,-1.296 2.885,-2.885 l 0,-21.804 c 0,-1.588 -1.297,-2.885 -2.885,-2.885 l -31.421,0 c -1.59,0 -2.885,1.297 -2.885,2.885 l 0,21.804 C -2.885,-1.296 -1.59,0 0,0"
             style="fill:#231f20;fill-opacity:1;fill-rule:evenodd;stroke:none"
             id="path6373" />
        </g>
        <g
           id="g6375"
           transform="translate(523.9061,679.1594)">
          <path
             inkscape:connector-curvature="0"
             d="m 0,0 31.367,0 c 1.082,0 1.967,-0.884 1.967,-1.968 l 0,-21.743 c 0,-1.084 -0.885,-1.968 -1.967,-1.968 l -31.367,0 c -1.084,0 -1.967,0.884 -1.967,1.968 l 0,21.743 C -1.967,-0.884 -1.084,0 0,0"
             style="fill:#fccf34;fill-opacity:1;fill-rule:evenodd;stroke:none"
             id="path6377" />
        </g>
        <g
           id="g6379"
           transform="translate(554.7551,669.5305)">
          <path
             inkscape:connector-curvature="0"
             d="m 0,0 0,0.675 -1.753,0 0,1.585 0.994,0 0,0.657 -0.994,0 0,1.215 1.566,0 0,0.675 -2.26,0 L -2.447,0 0,0 z M -4.066,2.378 C -4.066,2.007 -4.099,1.67 -4.134,1.366 -4.201,0.995 -4.419,0.675 -4.826,0.675 l -0.572,0 0,3.457 0.572,0 c 0.305,0 0.506,-0.152 0.625,-0.49 0.084,-0.202 0.135,-0.725 0.135,-1.264 m 0.676,0.034 c 0,0.371 -0.051,0.792 -0.119,1.147 -0.086,0.489 -0.287,0.86 -0.573,1.062 -0.169,0.135 -0.371,0.186 -0.777,0.186 l -1.23,0 0,-4.807 1.332,0 c 0.269,0 0.506,0.067 0.675,0.219 0.471,0.371 0.692,1.08 0.692,2.193 m -4.555,-0.422 -0.693,0 0.34,1.383 0.353,-1.383 z M -6.748,0 -7.945,4.807 -8.619,4.807 -9.818,0 l 0.692,0 0.322,1.315 1.029,0 L -7.439,0 -6.748,0 z m -4.166,3.525 c 0,-0.387 -0.218,-0.608 -0.625,-0.608 l -0.707,0 0,1.215 0.707,0 c 0.372,0 0.625,-0.236 0.625,-0.607 M -10.24,0 -10.929,2.361 c 0.455,0.169 0.689,0.591 0.689,1.164 0,0.776 -0.506,1.282 -1.263,1.282 l -1.434,0 0,-4.807 0.691,0 0,2.26 0.657,0 0.642,-2.26 0.707,0 z m -3.64,1.332 0,0.995 -1.233,0 0,-0.675 0.539,0 0,-0.32 c 0,-0.505 -0.168,-0.742 -0.523,-0.742 -0.371,0 -0.606,0.254 -0.707,0.725 -0.069,0.372 -0.102,0.793 -0.102,1.199 0,0.572 0.084,1.112 0.221,1.348 0.117,0.237 0.303,0.355 0.539,0.355 0.338,0 0.557,-0.22 0.572,-0.54 l 0.694,0 c -0.036,0.708 -0.557,1.215 -1.25,1.215 -0.555,0 -1.045,-0.371 -1.213,-0.878 -0.168,-0.455 -0.221,-0.945 -0.221,-1.62 0,-0.623 0.102,-1.297 0.254,-1.652 0.236,-0.54 0.658,-0.83 1.23,-0.83 0.491,0 0.877,0.257 1.063,0.678 0.101,0.202 0.137,0.405 0.137,0.742"
             style="fill:#231f20;fill-opacity:1;fill-rule:evenodd;stroke:none"
             id="path6381" />
        </g>
        <g
           id="g6383"
           transform="translate(549.9701,659.6271)">
          <path
             inkscape:connector-curvature="0"
             d="m 0,0 c 0,0.692 -0.404,1.215 -1.332,1.755 -0.355,0.202 -0.455,0.337 -0.455,0.573 0,0.321 0.252,0.557 0.572,0.557 0.305,0 0.54,-0.22 0.557,-0.557 l 0.658,0 c -0.017,0.725 -0.541,1.248 -1.215,1.248 -0.691,0 -1.232,-0.556 -1.232,-1.248 0,-0.422 0.203,-0.793 0.592,-1.062 0.978,-0.658 0.707,-0.473 0.81,-0.574 0.286,-0.219 0.387,-0.421 0.387,-0.692 0,-0.388 -0.303,-0.725 -0.674,-0.725 -0.472,0 -0.674,0.421 -0.674,0.827 l -0.675,0 c 0,-0.793 0.506,-1.504 1.349,-1.504 C -0.591,-1.402 0,-0.775 0,0 m -3.256,-1.315 0,0.674 -1.753,0 0,1.585 0.996,0 0,0.659 -0.996,0 0,1.214 1.568,0 0,0.674 -2.26,0 0,-4.806 2.445,0 z m -3.101,0 0,0.64 -1.754,0 0,4.166 -0.693,0 0,-4.806 2.447,0 z m -3.492,4.806 -0.674,0 0,-4.807 0.674,0 0,4.807 z m -1.721,-4.806 0,4.806 -0.691,0 -0.893,-2.698 -0.894,2.698 -0.692,0 0,-4.806 0.692,0 0,2.698 0.894,-2.698 0.893,2.698 0,-2.698 0.691,0 z m -6.51,4.132 0,0.674 -2.681,0 0,-0.674 1.804,0 c -0.472,-0.759 -0.726,-1.333 -0.927,-2.108 -0.168,-0.641 -0.288,-1.434 -0.288,-1.923 l 0,-0.101 0.676,0 c 0.033,0.877 0.135,1.517 0.387,2.259 0.269,0.778 0.607,1.384 1.029,1.873"
             style="fill:#231f20;fill-opacity:1;fill-rule:evenodd;stroke:none"
             id="path6385" />
        </g>
        <g
           id="g6387"
           transform="translate(525.8591,673.7443)">
          <path
             inkscape:connector-curvature="0"
             d="m 0,0 c -0.422,0 -0.676,-0.321 -0.676,-0.827 0,-0.523 0.254,-0.843 0.676,-0.843 0.402,0 0.674,0.304 0.674,0.776 C 0.674,-0.354 0.402,0 0,0 m -0.32,-4.217 -0.389,0.54 c 0.404,0.303 0.844,0.895 1.012,1.349 C 0.186,-2.345 0.102,-2.345 0,-2.345 c -0.826,0 -1.35,0.59 -1.35,1.518 0,0.911 0.524,1.501 1.35,1.501 0.877,0 1.332,-0.59 1.332,-1.72 0,-1.18 -0.607,-2.345 -1.652,-3.171"
             style="fill:#231f20;fill-opacity:1;fill-rule:nonzero;stroke:none"
             id="path6389" />
        </g>
        <g
           id="g6391"
           transform="translate(530.4231,672.9328)">
          <path
             inkscape:connector-curvature="0"
             d="M 0,0 C 0,0.436 -0.041,0.709 -0.16,0.992 -0.304,1.346 -0.505,1.488 -0.839,1.488 -1.173,1.488 -1.376,1.346 -1.527,1.002 -1.648,0.729 -1.689,0.436 -1.689,0 c 0,-0.445 0.041,-0.718 0.162,-1.002 0.143,-0.344 0.344,-0.497 0.688,-0.497 0.324,0 0.535,0.153 0.679,0.497 C -0.041,-0.728 0,-0.445 0,0"
             style="fill:#231f20;fill-opacity:1;fill-rule:evenodd;stroke:none"
             id="path6393" />
        </g>
        <g
           id="g6395"
           transform="translate(533.1151,674.3537)">
          <path
             inkscape:connector-curvature="0"
             d="m 0,0 -0.625,0 -2.779,-4.826 0.627,0 L 0,0 z"
             style="fill:#231f20;fill-opacity:1;fill-rule:evenodd;stroke:none"
             id="path6397" />
        </g>
        <g
           id="g6399"
           transform="translate(529.9451,672.9318)">
          <path
             inkscape:connector-curvature="0"
             d="m 0,0 c 0,-0.271 -0.018,-0.41 -0.076,-0.598 -0.057,-0.197 -0.147,-0.287 -0.285,-0.287 -0.149,0 -0.239,0.09 -0.295,0.287 -0.049,0.188 -0.075,0.336 -0.075,0.59 0,0.262 0.016,0.418 0.075,0.599 0.056,0.196 0.146,0.286 0.295,0.286 0.138,0 0.228,-0.09 0.285,-0.295 C -0.025,0.41 0,0.263 0,0"
             style="fill:#fccf34;fill-opacity:1;fill-rule:evenodd;stroke:none"
             id="path6401" />
        </g>
        <g
           id="g6403"
           transform="translate(534.076,670.9435)">
          <path
             inkscape:connector-curvature="0"
             d="M 0,0 C 0,0.436 -0.041,0.708 -0.162,0.992 -0.305,1.346 -0.506,1.487 -0.84,1.487 -1.174,1.487 -1.377,1.346 -1.529,1.002 -1.651,0.729 -1.692,0.436 -1.692,0 c 0,-0.445 0.041,-0.719 0.163,-1.002 0.142,-0.344 0.345,-0.497 0.689,-0.497 0.324,0 0.535,0.153 0.678,0.497 C -0.041,-0.728 0,-0.445 0,0"
             style="fill:#231f20;fill-opacity:1;fill-rule:evenodd;stroke:none"
             id="path6405" />
        </g>
        <g
           id="g6407"
           transform="translate(533.5951,670.9426)">
          <path
             inkscape:connector-curvature="0"
             d="m 0,0 c 0,-0.271 -0.017,-0.409 -0.074,-0.598 -0.057,-0.197 -0.146,-0.287 -0.287,-0.287 -0.148,0 -0.238,0.09 -0.295,0.287 -0.049,0.189 -0.074,0.336 -0.074,0.59 0,0.262 0.017,0.417 0.074,0.598 0.057,0.196 0.147,0.287 0.295,0.287 0.141,0 0.23,-0.091 0.287,-0.295 C -0.025,0.409 0,0.262 0,0"
             style="fill:#fccf34;fill-opacity:1;fill-rule:evenodd;stroke:none"
             id="path6409" />
        </g>
      </g>
    </g>
  </g>
</svg>
