<?xml version="1.0" encoding="UTF-8" standalone="no"?>
<!-- Created with Inkscape (http://www.inkscape.org/) -->

<svg
   xmlns:dc="http://purl.org/dc/elements/1.1/"
   xmlns:cc="http://creativecommons.org/ns#"
   xmlns:rdf="http://www.w3.org/1999/02/22-rdf-syntax-ns#"
   xmlns:svg="http://www.w3.org/2000/svg"
   xmlns="http://www.w3.org/2000/svg"
   xmlns:sodipodi="http://sodipodi.sourceforge.net/DTD/sodipodi-0.dtd"
   xmlns:inkscape="http://www.inkscape.org/namespaces/inkscape"
   width="48.40625"
   height="24.334999"
   id="svg8358"
   version="1.1"
   inkscape:version="0.48.1 "
   sodipodi:docname="New document 82">
  <defs
     id="defs8360">
    <clipPath
       clipPathUnits="userSpaceOnUse"
       id="clipPath6579">
      <path
         inkscape:connector-curvature="0"
         d="m 63.125,434.574 513.125,0 0,303.426 -513.125,0 0,-303.426 z"
         id="path6581" />
    </clipPath>
  </defs>
  <sodipodi:namedview
     id="base"
     pagecolor="#ffffff"
     bordercolor="#666666"
     borderopacity="1.0"
     inkscape:pageopacity="0.0"
     inkscape:pageshadow="2"
     inkscape:zoom="0.35"
     inkscape:cx="179.20312"
     inkscape:cy="-42.118208"
     inkscape:document-units="px"
     inkscape:current-layer="layer1"
     showgrid="false"
     fit-margin-top="0"
     fit-margin-left="0"
     fit-margin-right="0"
     fit-margin-bottom="0"
     inkscape:window-width="469"
     inkscape:window-height="403"
     inkscape:window-x="685"
     inkscape:window-y="117"
     inkscape:window-maximized="0" />
  <metadata
     id="metadata8363">
    <rdf:RDF>
      <cc:Work
         rdf:about="">
        <dc:format>image/svg+xml</dc:format>
        <dc:type
           rdf:resource="http://purl.org/dc/dcmitype/StillImage" />
        <dc:title></dc:title>
      </cc:Work>
    </rdf:RDF>
  </metadata>
  <g
     inkscape:label="Layer 1"
     inkscape:groupmode="layer"
     id="layer1"
     transform="translate(-195.79687,-465.90898)">
    <g
       transform="matrix(1.25,0,0,-1.25,-211.24075,1049.3786)"
       id="g6575">
      <g
         id="g6577"
         clip-path="url(#clipPath6579)">
        <g
           id="g6583"
           transform="translate(328.9681,466.6507)">
          <path
             inkscape:connector-curvature="0"
             d="m 0,0 32.049,0 c 1.77,0 3.213,-1.404 3.213,-3.136 l 0,-12.967 c 0,-1.711 -1.443,-3.115 -3.213,-3.115 l -32.049,0 c -1.769,0 -3.213,1.404 -3.213,3.115 l 0,12.967 C -3.213,-1.404 -1.769,0 0,0"
             style="fill:#fccf34;fill-opacity:1;fill-rule:evenodd;stroke:none"
             id="path6585" />
        </g>
        <g
           id="g6587"
           transform="translate(328.9681,466.6507)">
          <path
             inkscape:connector-curvature="0"
             d="m 0,0 32.049,0 c 1.77,0 3.213,-1.404 3.213,-3.136 l 0,-12.967 c 0,-1.711 -1.443,-3.115 -3.213,-3.115 l -32.049,0 c -1.769,0 -3.213,1.404 -3.213,3.115 l 0,12.967 C -3.213,-1.404 -1.769,0 0,0 z"
             style="fill:none;stroke:#231f20;stroke-width:0.25;stroke-linecap:butt;stroke-linejoin:miter;stroke-miterlimit:4;stroke-opacity:1;stroke-dasharray:none"
             id="path6589" />
        </g>
        <g
           id="g6591"
           transform="translate(360.9981,465.9967)">
          <path
             inkscape:connector-curvature="0"
             d="m 0,0 c 0.134,0 0.269,0 0.404,-0.019 0.135,-0.02 0.25,-0.059 0.385,-0.077 0.115,-0.058 0.23,-0.097 0.345,-0.134 0.118,-0.059 0.213,-0.118 0.329,-0.194 0.173,-0.115 0.308,-0.25 0.461,-0.385 0.097,-0.134 0.193,-0.25 0.289,-0.384 0.058,-0.116 0.115,-0.211 0.173,-0.326 0.038,-0.116 0.077,-0.233 0.116,-0.348 0.039,-0.115 0.056,-0.231 0.056,-0.365 l 0.02,-0.25 0,-13.1 c -0.02,-0.117 -0.02,-0.232 -0.057,-0.367 -0.019,-0.115 -0.058,-0.231 -0.097,-0.346 -0.038,-0.115 -0.096,-0.211 -0.153,-0.326 -0.058,-0.098 -0.115,-0.213 -0.193,-0.309 -0.135,-0.154 -0.27,-0.289 -0.422,-0.423 -0.098,-0.077 -0.193,-0.155 -0.309,-0.211 -0.154,-0.079 -0.289,-0.155 -0.443,-0.211 -0.135,-0.039 -0.25,-0.078 -0.365,-0.098 -0.135,-0.02 -0.25,-0.037 -0.385,-0.057 l -32.164,0 c -0.135,0 -0.27,0.02 -0.404,0.037 -0.135,0.02 -0.25,0.04 -0.385,0.079 -0.115,0.039 -0.231,0.076 -0.346,0.134 -0.115,0.057 -0.211,0.116 -0.326,0.172 -0.174,0.137 -0.309,0.252 -0.463,0.405 -0.096,0.117 -0.191,0.25 -0.289,0.384 -0.057,0.098 -0.115,0.213 -0.172,0.309 -0.039,0.115 -0.078,0.23 -0.115,0.346 -0.039,0.115 -0.059,0.25 -0.059,0.365 l -0.019,0.25 0,13.101 c 0.019,0.135 0.019,0.25 0.058,0.366 0.02,0.115 0.057,0.23 0.096,0.347 0.039,0.116 0.096,0.231 0.154,0.326 0.057,0.116 0.116,0.211 0.192,0.307 0.135,0.174 0.269,0.309 0.424,0.443 0.095,0.077 0.193,0.135 0.308,0.194 0.153,0.096 0.287,0.152 0.442,0.211 0.134,0.058 0.25,0.076 0.365,0.115 0.135,0.02 0.25,0.039 0.385,0.039 L 0,0 z"
             style="fill:#231f20;fill-opacity:1;fill-rule:evenodd;stroke:none"
             id="path6593" />
        </g>
        <g
           id="g6595"
           transform="translate(328.9681,465.0337)">
          <path
             inkscape:connector-curvature="0"
             d="m 0,0 32.049,0 c 0.885,0 1.598,-0.711 1.598,-1.596 l 0,-12.812 c 0,-0.885 -0.713,-1.598 -1.598,-1.598 l -32.049,0 c -0.884,0 -1.595,0.713 -1.595,1.598 l 0,12.812 C -1.595,-0.711 -0.884,0 0,0"
             style="fill:#fccf34;fill-opacity:1;fill-rule:evenodd;stroke:none"
             id="path6597" />
        </g>
        <g
           id="g6599"
           transform="translate(336.0641,458.8267)">
          <path
             inkscape:connector-curvature="0"
             d="m 0,0 c 0,1.348 -0.842,2.246 -2.105,2.246 l -2.387,0 0,-8.004 1.15,0 0,3.51 1.237,0 C -0.758,-2.248 0,-1.461 0,0 m -1.123,0 c 0,-0.73 -0.365,-1.152 -1.039,-1.152 l -1.18,0 0,2.275 1.18,0 c 0.619,0 1.039,-0.449 1.039,-1.123"
             style="fill:#231f20;fill-opacity:1;fill-rule:evenodd;stroke:none"
             id="path6601" />
        </g>
        <g
           id="g6603"
           transform="translate(339.0701,458.6867)">
          <path
             inkscape:connector-curvature="0"
             d="m 0,0 -0.563,-2.303 1.153,0 L 0,0 z m 1.432,-5.618 -0.563,2.192 -1.713,0 -0.533,-2.192 -1.152,0 1.994,8.004 1.125,0 1.994,-8.004 -1.152,0 z"
             style="fill:#231f20;fill-opacity:1;fill-rule:evenodd;stroke:none"
             id="path6605" />
        </g>
        <g
           id="g6607"
           transform="translate(345.0231,453.0687)">
          <path
             inkscape:connector-curvature="0"
             d="m 0,0 -0.871,0 -2.022,8.004 1.151,0 1.32,-5.195 1.321,5.195 1.152,0 L 0,0 z"
             style="fill:#231f20;fill-opacity:1;fill-rule:evenodd;stroke:none"
             id="path6609" />
        </g>
        <g
           id="g6611"
           transform="translate(348.1971,453.0687)">
          <path
             inkscape:connector-curvature="0"
             d="m 0,0 0,8.004 3.764,0 0,-1.123 -2.614,0 0,-2.021 1.658,0 0,-1.096 -1.658,0 0,-2.641 2.922,0 L 4.072,0 0,0 z"
             style="fill:#231f20;fill-opacity:1;fill-rule:evenodd;stroke:none"
             id="path6613" />
        </g>
        <g
           id="g6615"
           transform="translate(358.1111,457.0847)">
          <path
             inkscape:connector-curvature="0"
             d="m 0,0 c 0,0.619 -0.084,1.32 -0.197,1.91 -0.139,0.815 -0.477,1.434 -0.955,1.77 -0.28,0.224 -0.618,0.308 -1.291,0.308 l -2.051,0 0,-8.004 2.219,0 c 0.449,0 0.843,0.112 1.123,0.366 C -0.365,-3.033 0,-1.854 0,0 m -1.123,-0.055 c 0,-0.619 -0.057,-1.179 -0.113,-1.685 -0.112,-0.619 -0.477,-1.153 -1.151,-1.153 l -0.955,0 0,5.758 0.955,0 c 0.506,0 0.842,-0.252 1.039,-0.814 0.141,-0.336 0.225,-1.207 0.225,-2.106"
             style="fill:#231f20;fill-opacity:1;fill-rule:evenodd;stroke:none"
             id="path6617" />
        </g>
      </g>
    </g>
  </g>
</svg>
