<?xml version="1.0" encoding="UTF-8" standalone="no"?>
<!-- Created with Inkscape (http://www.inkscape.org/) -->

<svg
   xmlns:dc="http://purl.org/dc/elements/1.1/"
   xmlns:cc="http://creativecommons.org/ns#"
   xmlns:rdf="http://www.w3.org/1999/02/22-rdf-syntax-ns#"
   xmlns:svg="http://www.w3.org/2000/svg"
   xmlns="http://www.w3.org/2000/svg"
   xmlns:sodipodi="http://sodipodi.sourceforge.net/DTD/sodipodi-0.dtd"
   xmlns:inkscape="http://www.inkscape.org/namespaces/inkscape"
   width="44.66375"
   height="33.654999"
   id="svg10384"
   version="1.1"
   inkscape:version="0.48.1 "
   sodipodi:docname="New document 63">
  <defs
     id="defs10386" />
  <sodipodi:namedview
     id="base"
     pagecolor="#ffffff"
     bordercolor="#666666"
     borderopacity="1.0"
     inkscape:pageopacity="0.0"
     inkscape:pageshadow="2"
     inkscape:zoom="0.35"
     inkscape:cx="-108.38241"
     inkscape:cy="88.256067"
     inkscape:document-units="px"
     inkscape:current-layer="layer1"
     showgrid="false"
     fit-margin-top="0"
     fit-margin-left="0"
     fit-margin-right="0"
     fit-margin-bottom="0"
     inkscape:window-width="469"
     inkscape:window-height="403"
     inkscape:window-x="25"
     inkscape:window-y="25"
     inkscape:window-maximized="0" />
  <metadata
     id="metadata10389">
    <rdf:RDF>
      <cc:Work
         rdf:about="">
        <dc:format>image/svg+xml</dc:format>
        <dc:type
           rdf:resource="http://purl.org/dc/dcmitype/StillImage" />
        <dc:title></dc:title>
      </cc:Work>
    </rdf:RDF>
  </metadata>
  <g
     inkscape:label="Layer 1"
     inkscape:groupmode="layer"
     id="layer1"
     transform="translate(-483.38241,-586.96325)">
    <path
       inkscape:connector-curvature="0"
       id="path4935"
       style="fill:#fccf34;fill-opacity:1;fill-rule:nonzero;stroke:none"
       d="m 527.73366,617.552 c 0,1.52 -1.2325,2.75375 -2.75125,2.75375 l -38.535,0 c -1.51875,0 -2.7525,-1.23375 -2.7525,-2.75375 l 0,-27.525 c 0,-1.51875 1.23375,-2.75125 2.7525,-2.75125 l 38.535,0 c 1.51875,0 2.75125,1.2325 2.75125,2.75125 l 0,27.525 z" />
    <path
       inkscape:connector-curvature="0"
       id="path4939"
       style="fill:none;stroke:#231f20;stroke-width:0.625;stroke-linecap:butt;stroke-linejoin:miter;stroke-miterlimit:4;stroke-opacity:1;stroke-dasharray:none"
       d="m 527.73366,617.552 c 0,1.52 -1.2325,2.75375 -2.75125,2.75375 l -38.535,0 c -1.51875,0 -2.7525,-1.23375 -2.7525,-2.75375 l 0,-27.525 c 0,-1.51875 1.23375,-2.75125 2.7525,-2.75125 l 38.535,0 c 1.51875,0 2.75125,1.2325 2.75125,2.75125 l 0,27.525 z" />
    <path
       inkscape:connector-curvature="0"
       id="path4943"
       style="fill:#231f20;fill-opacity:1;fill-rule:nonzero;stroke:none"
       d="m 525.89866,617.552 c 0,0.505 -0.41125,0.9175 -0.91625,0.9175 l -38.535,0 c -0.50625,0 -0.9175,-0.4125 -0.9175,-0.9175 l 0,-27.525 c 0,-0.505 0.41125,-0.9175 0.9175,-0.9175 l 38.535,0 c 0.505,0 0.91625,0.4125 0.91625,0.9175 l 0,27.525 z m -0.91625,-29.5875 -38.535,0 c -1.13875,0 -2.06375,0.925 -2.06375,2.0625 l 0,27.525 c 0,1.1375 0.925,2.065 2.06375,2.065 l 38.535,0 c 1.1375,0 2.06375,-0.9275 2.06375,-2.065 l 0,-27.525 c 0,-1.1375 -0.92625,-2.0625 -2.06375,-2.0625" />
    <path
       inkscape:connector-curvature="0"
       id="path4947"
       style="fill:#231f20;fill-opacity:1;fill-rule:nonzero;stroke:none"
       d="m 491.64741,599.282 c 0,0.455 -0.1175,0.8475 -0.35375,1.1775 -0.30375,0.4275 -0.7525,0.6425 -1.3475,0.6425 -0.6675,0 -1.165,-0.215 -1.495,-0.6425 -0.26625,-0.34 -0.3975,-0.76375 -0.3975,-1.2775 l 0.8975,0 c 0,0.37125 0.1175,0.6475 0.35375,0.8275 0.175,0.13 0.38875,0.19375 0.64125,0.19375 0.51375,0 0.77125,-0.305 0.77125,-0.91875 0,-0.48 -0.2075,-0.87125 -0.6225,-1.17625 -0.38625,-0.23875 -0.775,-0.47625 -1.16375,-0.7125 -0.415,-0.32 -0.6225,-0.74 -0.6225,-1.2575 0,-0.34 0.0937,-0.65 0.28125,-0.9325 0.29125,-0.435 0.75875,-0.655 1.40125,-0.655 0.67625,0 1.155,0.25375 1.4375,0.7575 0.11625,0.21 0.1875,0.46625 0.21875,0.76375 l -0.89875,0 c 0,-0.1075 -0.0362,-0.2125 -0.11,-0.32 -0.1275,-0.2025 -0.34375,-0.3025 -0.6475,-0.3025 -0.52,0 -0.77875,0.23 -0.77875,0.68875 0,0.25125 0.21,0.5025 0.63,0.75625 0.625,0.36875 1.01625,0.63 1.175,0.78375 0.42,0.415 0.63,0.95 0.63,1.60375" />
    <path
       inkscape:connector-curvature="0"
       id="path4951"
       style="fill:#231f20;fill-opacity:1;fill-rule:nonzero;stroke:none"
       d="m 496.14616,601.03813 -0.8975,0 0,-2.9575 -1.7975,0 0,2.9575 -0.89875,0 0,-6.42375 0.89875,0 0,2.56875 1.7975,0 0,-2.56875 0.8975,0 0,6.42375 z" />
    <path
       inkscape:connector-curvature="0"
       id="path4955"
       style="fill:#231f20;fill-opacity:1;fill-rule:nonzero;stroke:none"
       d="m 500.12866,597.8245 c 0,-0.54625 -0.0563,-1.025 -0.16875,-1.43 -0.16625,-0.63 -0.4425,-0.945 -0.82875,-0.945 -0.3875,0 -0.6625,0.315 -0.83,0.945 -0.11125,0.405 -0.1675,0.88375 -0.1675,1.43 0,0.55 0.0562,1.02875 0.1675,1.43375 0.1675,0.63 0.4425,0.945 0.83,0.945 0.38625,0 0.6625,-0.315 0.82875,-0.945 0.1125,-0.405 0.16875,-0.88375 0.16875,-1.43375 m 0.89875,0 c 0,0.78875 -0.0913,1.44375 -0.27125,1.96125 -0.3075,0.87625 -0.85,1.31625 -1.625,1.31625 -0.775,0 -1.3175,-0.44 -1.62625,-1.31625 -0.17875,-0.5175 -0.27,-1.1725 -0.27,-1.96125 0,-2.1825 0.6325,-3.27375 1.89625,-3.27375 1.26375,0 1.89625,1.09125 1.89625,3.27375" />
    <path
       inkscape:connector-curvature="0"
       id="path4959"
       style="fill:#231f20;fill-opacity:1;fill-rule:nonzero;stroke:none"
       d="m 505.71491,599.302 c 0,0.4975 -0.17375,0.92 -0.5225,1.2725 -0.35,0.35125 -0.77375,0.5275 -1.275,0.5275 -0.495,0 -0.9175,-0.17625 -1.27,-0.5275 -0.35125,-0.3525 -0.525,-0.775 -0.525,-1.2725 l 0,-4.6875 0.8975,0 0,4.69 c 0,0.24625 0.0875,0.45875 0.26,0.635 0.17375,0.175 0.38625,0.26375 0.6375,0.26375 0.24375,0 0.455,-0.0888 0.6325,-0.26375 0.17875,-0.17625 0.26625,-0.38875 0.26625,-0.635 l 0,-4.69 0.89875,0 0,4.6875 z" />
    <path
       inkscape:connector-curvature="0"
       id="path4963"
       style="fill:#231f20;fill-opacity:1;fill-rule:nonzero;stroke:none"
       d="m 510.21366,601.03813 -3.27625,0 0,-6.42375 0.9,0 0,5.525 2.37625,0 0,0.89875 z" />
    <path
       inkscape:connector-curvature="0"
       id="path4967"
       style="fill:#231f20;fill-opacity:1;fill-rule:nonzero;stroke:none"
       d="m 513.61491,597.8295 c 0,-1.545 -0.36375,-2.31625 -1.09,-2.31625 l -0.7075,0 0,4.63125 0.7075,0 c 0.72625,0 1.09,-0.77125 1.09,-2.315 m 0.89875,-0.005 c 0,1.2875 -0.2525,2.195 -0.7575,2.73 -0.3075,0.3275 -0.67125,0.48875 -1.09125,0.48875 l -0.14,0 -1.605,0 0,-6.42875 1.675,0 c 0.41875,0 0.77875,0.13625 1.07875,0.4125 0.56,0.5125 0.84,1.445 0.84,2.7975" />
    <path
       inkscape:connector-curvature="0"
       id="path4971"
       style="fill:#231f20;fill-opacity:1;fill-rule:nonzero;stroke:none"
       d="m 518.88366,601.04325 -3.275,-0.005 0,-6.42375 3.275,0 0,0.89875 -2.3775,0 0,1.67 1.41375,0 0,0.8975 -1.41375,0 0,2.05875 2.3775,0 0,0.90375 z" />
    <path
       inkscape:connector-curvature="0"
       id="path4975"
       style="fill:#231f20;fill-opacity:1;fill-rule:nonzero;stroke:none"
       d="m 522.47741,596.34825 c 0,-0.53 -0.22,-0.80875 -0.66125,-0.835 l -1.135,0 0,1.67 1.135,0 c 0.44125,-0.0275 0.66125,-0.305 0.66125,-0.835 m 0.89875,4.69 -0.93125,0 -0.84625,-2.9575 -0.9175,0 0,2.9575 -0.89875,0 0,-6.42375 1.98875,0 c 0.34375,0.0312 0.535,0.0487 0.5775,0.0588 0.29625,0.0687 0.52625,0.21 0.69375,0.4225 0.2225,0.2875 0.33375,0.705 0.33375,1.2525 0,0.79375 -0.2975,1.31625 -0.88875,1.5675 l 0.88875,3.1225 z" />
    <path
       inkscape:connector-curvature="0"
       id="path4979"
       style="fill:#231f20;fill-opacity:1;fill-rule:nonzero;stroke:none"
       d="m 492.13241,609.75575 c 0,-1.5425 -0.36375,-2.31375 -1.09125,-2.31375 l -0.705,0 0,4.63125 0.705,0 c 0.7275,0 1.09125,-0.77125 1.09125,-2.3175 m 0.89875,-0.003 c 0,1.285 -0.2525,2.195 -0.75625,2.73 -0.3075,0.325 -0.67125,0.48875 -1.09125,0.48875 l -0.1425,0 -1.60375,0 0,-6.42875 1.675,0 c 0.42,0 0.77875,0.13625 1.07875,0.41 0.56,0.515 0.84,1.4475 0.84,2.8" />
    <path
       inkscape:connector-curvature="0"
       id="path4983"
       style="fill:#231f20;fill-opacity:1;fill-rule:nonzero;stroke:none"
       d="m 496.81991,608.277 c 0,-0.5325 -0.21875,-0.81125 -0.66,-0.835 l -1.135,0 0,1.6675 1.135,0 c 0.44125,-0.025 0.66,-0.3025 0.66,-0.8325 m 0.89875,4.6875 -0.93,0 -0.8475,-2.95625 -0.91625,0 0,2.95625 -0.89875,0 0,-6.42125 1.98875,0 c 0.3425,0.0288 0.535,0.0488 0.57875,0.0563 0.295,0.0687 0.525,0.21 0.6925,0.425 0.2225,0.285 0.3325,0.7025 0.3325,1.2525 0,0.79125 -0.295,1.31375 -0.88875,1.5675 l 0.88875,3.12 z" />
    <path
       inkscape:connector-curvature="0"
       id="path4987"
       style="fill:#231f20;fill-opacity:1;fill-rule:nonzero;stroke:none"
       d="m 501.38116,609.75325 c 0,-0.54625 -0.0563,-1.025 -0.16875,-1.4325 -0.16625,-0.63 -0.4425,-0.9425 -0.82875,-0.9425 -0.3875,0 -0.6625,0.3125 -0.83,0.9425 -0.11125,0.4075 -0.1675,0.88625 -0.1675,1.4325 0,0.5475 0.0562,1.02625 0.1675,1.43375 0.1675,0.63 0.4425,0.9425 0.83,0.9425 0.38625,0 0.6625,-0.3125 0.82875,-0.9425 0.1125,-0.4075 0.16875,-0.88625 0.16875,-1.43375 m 0.89875,0 c 0,0.78875 -0.0912,1.44125 -0.27125,1.95875 -0.3075,0.87875 -0.85,1.31625 -1.625,1.31625 -0.775,0 -1.3175,-0.4375 -1.62625,-1.31625 -0.17875,-0.5175 -0.27,-1.17 -0.27,-1.95875 0,-2.1825 0.6325,-3.27375 1.89625,-3.27375 1.26375,0 1.89625,1.09125 1.89625,3.27375" />
    <path
       inkscape:connector-curvature="0"
       id="path4991"
       style="fill:#231f20;fill-opacity:1;fill-rule:nonzero;stroke:none"
       d="m 506.06866,608.377 c 0,-0.55875 -0.22,-0.87125 -0.66125,-0.935 l -1.135,0 0,1.86 1.135,0 c 0.44125,-0.0225 0.66125,-0.33 0.66125,-0.925 m 0.9,0 c 0,0.75375 -0.26625,1.28125 -0.7975,1.58375 -0.27375,0.15875 -0.5425,0.24 -0.80875,0.24 l -1.09,0 0,2.76375 -0.8975,0 0,-6.42125 1.9875,0 c 0.27,0 0.54,0.0763 0.80875,0.23 0.53125,0.305 0.7975,0.83875 0.7975,1.60375" />
    <path
       d="m 509.79516,610.46225 -2.24875,0 0,-0.89875 2.24875,0 0,0.89875 z"
       style="fill:#231f20;fill-opacity:1;fill-rule:nonzero;stroke:none"
       id="path4993"
       inkscape:connector-curvature="0" />
    <path
       inkscape:connector-curvature="0"
       id="path4997"
       style="fill:#231f20;fill-opacity:1;fill-rule:nonzero;stroke:none"
       d="m 513.26241,609.75325 c 0,-0.54625 -0.0563,-1.025 -0.1675,-1.4325 -0.1675,-0.63 -0.445,-0.9425 -0.83,-0.9425 -0.3875,0 -0.6625,0.3125 -0.83,0.9425 -0.11125,0.4075 -0.1675,0.88625 -0.1675,1.4325 0,0.5475 0.0563,1.02625 0.1675,1.43375 0.1675,0.63 0.4425,0.9425 0.83,0.9425 0.385,0 0.6625,-0.3125 0.83,-0.9425 0.11125,-0.4075 0.1675,-0.88625 0.1675,-1.43375 m 0.8975,0 c 0,0.78875 -0.09,1.44125 -0.27,1.95875 -0.3075,0.87875 -0.85,1.31625 -1.625,1.31625 -0.775,0 -1.3175,-0.4375 -1.62625,-1.31625 -0.17875,-0.5175 -0.27,-1.17 -0.27,-1.95875 0,-2.1825 0.6325,-3.27375 1.89625,-3.27375 1.26375,0 1.895,1.09125 1.895,3.27375" />
    <path
       inkscape:connector-curvature="0"
       id="path5001"
       style="fill:#231f20;fill-opacity:1;fill-rule:nonzero;stroke:none"
       d="m 518.53116,607.442 -2.3775,0 0,1.6675 1.41375,0 0,0.89875 -1.41375,0 0,2.95625 -0.89875,0 0,-6.42125 3.27625,0 0,0.89875 z" />
    <path
       inkscape:connector-curvature="0"
       id="path5005"
       style="fill:#231f20;fill-opacity:1;fill-rule:nonzero;stroke:none"
       d="m 522.51241,607.442 -2.37625,0 0,1.6675 1.41375,0 0,0.89875 -1.41375,0 0,2.95625 -0.89875,0 0,-6.42125 3.275,0 0,0.89875 z" />
  </g>
</svg>
