<?xml version="1.0" encoding="UTF-8" standalone="no"?>
<!-- Created with Inkscape (http://www.inkscape.org/) -->

<svg
   xmlns:dc="http://purl.org/dc/elements/1.1/"
   xmlns:cc="http://creativecommons.org/ns#"
   xmlns:rdf="http://www.w3.org/1999/02/22-rdf-syntax-ns#"
   xmlns:svg="http://www.w3.org/2000/svg"
   xmlns="http://www.w3.org/2000/svg"
   xmlns:sodipodi="http://sodipodi.sourceforge.net/DTD/sodipodi-0.dtd"
   xmlns:inkscape="http://www.inkscape.org/namespaces/inkscape"
   width="90.626877"
   height="90.624374"
   id="svg10475"
   version="1.1"
   inkscape:version="0.48.1 "
   sodipodi:docname="New document 65">
  <defs
     id="defs10477" />
  <sodipodi:namedview
     id="base"
     pagecolor="#ffffff"
     bordercolor="#666666"
     borderopacity="1.0"
     inkscape:pageopacity="0.0"
     inkscape:pageshadow="2"
     inkscape:zoom="0.35"
     inkscape:cx="151.74201"
     inkscape:cy="233.88361"
     inkscape:document-units="px"
     inkscape:current-layer="layer1"
     showgrid="false"
     fit-margin-top="0"
     fit-margin-left="0"
     fit-margin-right="0"
     fit-margin-bottom="0"
     inkscape:window-width="469"
     inkscape:window-height="403"
     inkscape:window-x="75"
     inkscape:window-y="75"
     inkscape:window-maximized="0" />
  <metadata
     id="metadata10480">
    <rdf:RDF>
      <cc:Work
         rdf:about="">
        <dc:format>image/svg+xml</dc:format>
        <dc:type
           rdf:resource="http://purl.org/dc/dcmitype/StillImage" />
        <dc:title></dc:title>
      </cc:Work>
    </rdf:RDF>
  </metadata>
  <g
     inkscape:label="Layer 1"
     inkscape:groupmode="layer"
     id="layer1"
     transform="translate(-223.25799,-675.62142)">
    <g
       id="g3467"
       transform="matrix(1.25,0,0,-1.25,312.36205,718.01361)">
      <path
         d="m 0,0 c 1.291,-1.291 1.291,-3.381 0,-4.672 l -32.698,-32.697 c -1.289,-1.289 -3.381,-1.289 -4.67,0 l -32.697,32.697 c -1.291,1.291 -1.291,3.381 0,4.672 l 32.697,32.697 c 1.289,1.289 3.381,1.289 4.67,0 L 0,0 z"
         style="fill:#fccf34;fill-opacity:1;fill-rule:nonzero;stroke:none"
         id="path3469"
         inkscape:connector-curvature="0" />
    </g>
    <g
       id="g3471"
       transform="matrix(1.25,0,0,-1.25,312.36205,718.01361)">
      <path
         d="m 0,0 c 1.291,-1.291 1.291,-3.381 0,-4.672 l -32.698,-32.697 c -1.289,-1.289 -3.381,-1.289 -4.67,0 l -32.697,32.697 c -1.291,1.291 -1.291,3.381 0,4.672 l 32.697,32.697 c 1.289,1.289 3.381,1.289 4.67,0 L 0,0 z"
         style="fill:none;stroke:#231f20;stroke-width:0.5;stroke-linecap:butt;stroke-linejoin:miter;stroke-miterlimit:4;stroke-opacity:1;stroke-dasharray:none"
         id="path3473"
         inkscape:connector-curvature="0" />
    </g>
    <g
       id="g3475"
       transform="matrix(1.25,0,0,-1.25,310.4158,721.90736)">
      <path
         d="m 0,0 -32.697,-32.697 c -0.43,-0.428 -1.127,-0.428 -1.557,0 L -66.951,0 c -0.43,0.43 -0.43,1.129 0,1.559 l 32.697,32.697 c 0.43,0.428 1.127,0.428 1.557,0 L 0,1.559 C 0.43,1.129 0.43,0.43 0,0 m 0.908,2.467 -32.697,32.697 c -0.93,0.93 -2.444,0.93 -3.373,0 L -67.859,2.467 c -0.93,-0.932 -0.93,-2.444 0,-3.375 l 32.697,-32.698 c 0.929,-0.929 2.443,-0.929 3.373,0 L 0.908,-0.908 c 0.93,0.931 0.93,2.443 0,3.375"
         style="fill:#231f20;fill-opacity:1;fill-rule:nonzero;stroke:none"
         id="path3477"
         inkscape:connector-curvature="0" />
    </g>
    <g
       id="g3479"
       transform="matrix(1.25,0,0,-1.25,258.0033,700.18111)">
      <path
         d="m 0,0 c 0,0.728 -0.303,1.111 -0.908,1.146 l -1.559,0 0,-2.293 1.559,0 C -0.303,-1.112 0,-0.731 0,0 m 1.233,-6.428 -1.278,0 -1.162,4.047 -1.26,0 0,-4.047 -1.234,0 0,8.809 2.731,0 C -0.5,2.34 -0.236,2.312 -0.178,2.301 0.229,2.207 0.545,2.013 0.776,1.719 1.08,1.326 1.233,0.754 1.233,0.002 c 0,-1.086 -0.409,-1.803 -1.227,-2.149 l 1.227,-4.281 z"
         style="fill:#231f20;fill-opacity:1;fill-rule:nonzero;stroke:none"
         id="path3481"
         inkscape:connector-curvature="0" />
    </g>
    <g
       id="g3483"
       transform="matrix(1.25,0,0,-1.25,266.1558,702.71111)">
      <path
         d="M 0,0 C 0,0.752 -0.078,1.407 -0.231,1.965 -0.459,2.83 -0.838,3.262 -1.367,3.262 -1.897,3.262 -2.276,2.83 -2.504,1.965 -2.657,1.407 -2.733,0.752 -2.733,0 c 0,-0.752 0.076,-1.408 0.229,-1.966 0.228,-0.864 0.607,-1.295 1.137,-1.295 0.529,0 0.908,0.431 1.136,1.295 C -0.078,-1.408 0,-0.752 0,0 m 1.232,0 c 0,-1.082 -0.123,-1.978 -0.369,-2.689 -0.424,-1.205 -1.166,-1.807 -2.23,-1.807 -1.063,0 -1.807,0.602 -2.229,1.807 -0.248,0.711 -0.371,1.607 -0.371,2.689 0,2.996 0.867,4.496 2.6,4.496 1.732,0 2.599,-1.5 2.599,-4.496"
         style="fill:#231f20;fill-opacity:1;fill-rule:nonzero;stroke:none"
         id="path3485"
         inkscape:connector-curvature="0" />
    </g>
    <g
       id="g3487"
       transform="matrix(1.25,0,0,-1.25,273.39455,703.70486)">
      <path
         d="M 0,0 -0.688,2.866 -1.383,0 0,0 z m 2.131,-3.609 -1.26,0 -0.572,2.375 -1.981,0 -0.572,-2.375 -1.252,0 L -1.375,5.2 0,5.2 2.131,-3.609 z"
         style="fill:#231f20;fill-opacity:1;fill-rule:nonzero;stroke:none"
         id="path3489"
         inkscape:connector-curvature="0" />
    </g>
    <g
       id="g3491"
       transform="matrix(1.25,0,0,-1.25,282.22455,702.71861)">
      <path
         d="m 0,0 c 0,2.118 -0.5,3.176 -1.498,3.176 l -0.969,0 0,-6.351 0.969,0 C -0.5,-3.175 0,-2.117 0,0 m 1.233,0.004 c 0,-1.761 -0.346,-3.009 -1.039,-3.742 -0.424,-0.447 -0.922,-0.67 -1.499,-0.67 l -0.193,0 -2.203,0 0,8.819 2.299,0 c 0.576,0 1.07,-0.19 1.48,-0.565 0.77,-0.705 1.155,-1.984 1.155,-3.842"
         style="fill:#231f20;fill-opacity:1;fill-rule:nonzero;stroke:none"
         id="path3493"
         inkscape:connector-curvature="0" />
    </g>
    <g
       id="g3495"
       transform="matrix(1.25,0,0,-1.25,264.3833,724.72986)">
      <path
         d="m 0,0 -1.233,0 0,4.932 L -2.905,0 l -1.671,4.932 0,-4.932 -1.235,0 0,8.807 1.233,0 1.671,-4.932 1.674,4.932 L 0,8.807 0,0 z"
         style="fill:#231f20;fill-opacity:1;fill-rule:nonzero;stroke:none"
         id="path3497"
         inkscape:connector-curvature="0" />
    </g>
    <g
       id="g3499"
       transform="matrix(1.25,0,0,-1.25,270.31092,720.21986)">
      <path
         d="M 0,0 -0.686,2.865 -1.383,0 0,0 z m 2.133,-3.608 -1.26,0 -0.572,2.375 -1.983,0 -0.572,-2.375 -1.252,0 2.133,8.807 1.373,0 2.133,-8.807 z"
         style="fill:#231f20;fill-opacity:1;fill-rule:nonzero;stroke:none"
         id="path3501"
         inkscape:connector-curvature="0" />
    </g>
    <g
       id="g3503"
       transform="matrix(1.25,0,0,-1.25,280.68205,713.72111)">
      <path
         d="m 0,0 -2.201,-4.746 0,-4.061 -1.233,0 0,4.061 L -5.637,0 -4.307,0 -2.819,-3.188 -1.338,0 0,0 z"
         style="fill:#231f20;fill-opacity:1;fill-rule:nonzero;stroke:none"
         id="path3505"
         inkscape:connector-curvature="0" />
    </g>
    <g
       id="g3507"
       transform="matrix(1.25,0,0,-1.25,255.46955,731.77861)">
      <path
         d="m 0,0 -3.258,0 0,-2.293 1.936,0 0,-1.234 -1.936,0 0,-4.047 -1.234,0 0,8.809 L 0,1.235 0,0 z"
         style="fill:#231f20;fill-opacity:1;fill-rule:nonzero;stroke:none"
         id="path3509"
         inkscape:connector-curvature="0" />
    </g>
    <g
       id="g3511"
       transform="matrix(1.25,0,0,-1.25,262.62455,741.24611)">
      <path
         d="m 0,0 -4.492,0 0,8.809 1.235,0 0,-7.574 L 0,1.235 0,0 z"
         style="fill:#231f20;fill-opacity:1;fill-rule:nonzero;stroke:none"
         id="path3513"
         inkscape:connector-curvature="0" />
    </g>
    <g
       id="g3515"
       transform="matrix(1.25,0,0,-1.25,268.90705,735.73986)">
      <path
         d="M 0,0 C 0,0.751 -0.076,1.408 -0.229,1.966 -0.459,2.83 -0.838,3.261 -1.367,3.261 -1.895,3.261 -2.274,2.83 -2.504,1.966 -2.656,1.408 -2.733,0.751 -2.733,0 c 0,-0.752 0.077,-1.409 0.229,-1.967 0.23,-0.864 0.609,-1.295 1.137,-1.295 0.529,0 0.908,0.431 1.138,1.295 C -0.076,-1.409 0,-0.752 0,0 m 1.234,0 c 0,-1.083 -0.125,-1.979 -0.371,-2.69 -0.424,-1.203 -1.166,-1.807 -2.23,-1.807 -1.063,0 -1.805,0.604 -2.229,1.807 -0.246,0.711 -0.369,1.607 -0.369,2.69 0,2.996 0.865,4.496 2.598,4.496 1.734,0 2.601,-1.5 2.601,-4.496"
         style="fill:#231f20;fill-opacity:1;fill-rule:nonzero;stroke:none"
         id="path3517"
         inkscape:connector-curvature="0" />
    </g>
    <g
       id="g3519"
       transform="matrix(1.25,0,0,-1.25,277.3833,735.73986)">
      <path
         d="M 0,0 C 0,0.751 -0.076,1.408 -0.228,1.966 -0.457,2.83 -0.836,3.261 -1.365,3.261 -1.894,3.261 -2.273,2.83 -2.502,1.966 -2.654,1.408 -2.732,0.751 -2.732,0 c 0,-0.752 0.078,-1.409 0.23,-1.967 0.229,-0.864 0.608,-1.295 1.137,-1.295 0.529,0 0.908,0.431 1.137,1.295 C -0.076,-1.409 0,-0.752 0,0 m 1.235,0 c 0,-1.083 -0.124,-1.979 -0.372,-2.69 -0.421,-1.203 -1.166,-1.807 -2.228,-1.807 -1.065,0 -1.807,0.604 -2.231,1.807 -0.246,0.711 -0.369,1.607 -0.369,2.69 0,2.996 0.867,4.496 2.6,4.496 1.732,0 2.6,-1.5 2.6,-4.496"
         style="fill:#231f20;fill-opacity:1;fill-rule:nonzero;stroke:none"
         id="path3521"
         inkscape:connector-curvature="0" />
    </g>
    <g
       id="g3523"
       transform="matrix(1.25,0,0,-1.25,285.7483,735.74736)">
      <path
         d="m 0,0 c 0,2.117 -0.5,3.175 -1.499,3.175 l -0.97,0 0,-6.351 0.97,0 C -0.5,-3.176 0,-2.118 0,0 m 1.232,0.006 c 0,-1.764 -0.346,-3.01 -1.039,-3.745 -0.424,-0.447 -0.922,-0.67 -1.498,-0.67 l -0.194,0 -2.203,0 0,8.819 2.299,0 c 0.576,0 1.071,-0.188 1.481,-0.565 C 0.847,3.14 1.232,1.861 1.232,0.006"
         style="fill:#231f20;fill-opacity:1;fill-rule:nonzero;stroke:none"
         id="path3525"
         inkscape:connector-curvature="0" />
    </g>
  </g>
</svg>
