<?xml version="1.0" encoding="UTF-8" standalone="no"?>
<!-- Created with Inkscape (http://www.inkscape.org/) -->

<svg
   xmlns:dc="http://purl.org/dc/elements/1.1/"
   xmlns:cc="http://creativecommons.org/ns#"
   xmlns:rdf="http://www.w3.org/1999/02/22-rdf-syntax-ns#"
   xmlns:svg="http://www.w3.org/2000/svg"
   xmlns="http://www.w3.org/2000/svg"
   xmlns:sodipodi="http://sodipodi.sourceforge.net/DTD/sodipodi-0.dtd"
   xmlns:inkscape="http://www.inkscape.org/namespaces/inkscape"
   width="44.665001"
   height="33.654999"
   id="svg10136"
   version="1.1"
   inkscape:version="0.48.1 "
   sodipodi:docname="New document 56">
  <defs
     id="defs10138" />
  <sodipodi:namedview
     id="base"
     pagecolor="#ffffff"
     bordercolor="#666666"
     borderopacity="1.0"
     inkscape:pageopacity="0.0"
     inkscape:pageshadow="2"
     inkscape:zoom="0.35"
     inkscape:cx="14.47536"
     inkscape:cy="-40.315353"
     inkscape:document-units="px"
     inkscape:current-layer="layer1"
     showgrid="false"
     fit-margin-top="0"
     fit-margin-left="0"
     fit-margin-right="0"
     fit-margin-bottom="0"
     inkscape:window-width="469"
     inkscape:window-height="403"
     inkscape:window-x="75"
     inkscape:window-y="75"
     inkscape:window-maximized="0" />
  <metadata
     id="metadata10141">
    <rdf:RDF>
      <cc:Work
         rdf:about="">
        <dc:format>image/svg+xml</dc:format>
        <dc:type
           rdf:resource="http://purl.org/dc/dcmitype/StillImage" />
        <dc:title></dc:title>
      </cc:Work>
    </rdf:RDF>
  </metadata>
  <g
     inkscape:label="Layer 1"
     inkscape:groupmode="layer"
     id="layer1"
     transform="translate(-360.52464,-458.39183)">
    <g
       id="g4121"
       transform="matrix(1.25,0,0,-1.25,402.07839,458.70433)">
      <path
         d="m 0,0 -30.755,0 c -1.239,0 -2.238,-1 -2.238,-2.24 l 0,-21.945 c 0,-1.241 0.999,-2.239 2.238,-2.239 l 30.755,0 c 1.224,0 2.239,0.998 2.239,2.239 l 0,21.945 C 2.239,-1 1.224,0 0,0"
         style="fill:#fccf34;fill-opacity:1;fill-rule:evenodd;stroke:none"
         id="path4123"
         inkscape:connector-curvature="0" />
    </g>
    <g
       id="g4125"
       transform="matrix(1.25,0,0,-1.25,402.07839,458.70433)">
      <path
         d="m 0,0 -30.755,0 c -1.239,0 -2.238,-1 -2.238,-2.24 l 0,-21.945 c 0,-1.241 0.999,-2.239 2.238,-2.239 l 30.755,0 c 1.224,0 2.239,0.998 2.239,2.239 l 0,21.945 C 2.239,-1 1.224,0 0,0 z"
         style="fill:none;stroke:#231f20;stroke-width:0.5;stroke-linecap:butt;stroke-linejoin:miter;stroke-miterlimit:4;stroke-opacity:1;stroke-dasharray:none"
         id="path4127"
         inkscape:connector-curvature="0" />
    </g>
    <g
       id="g4129"
       transform="matrix(1.25,0,0,-1.25,403.03089,488.93558)">
      <path
         d="m 0,0 c 0,-0.434 -0.343,-0.776 -0.761,-0.776 l -30.756,0 c -0.418,0 -0.761,0.342 -0.761,0.776 l 0,21.945 c 0,0.434 0.343,0.777 0.761,0.777 l 30.756,0 C -0.343,22.722 0,22.379 0,21.945 L 0,0 z m -0.761,23.601 -30.756,0 c -0.91,0 -1.641,-0.744 -1.641,-1.656 l 0,-21.945 c 0,-0.91 0.731,-1.657 1.641,-1.657 l 30.756,0 c 0.91,0 1.641,0.747 1.641,1.657 l 0,21.945 c 0,0.912 -0.731,1.656 -1.641,1.656"
         style="fill:#231f20;fill-opacity:1;fill-rule:evenodd;stroke:none"
         id="path4131"
         inkscape:connector-curvature="0" />
    </g>
    <g
       id="g4133"
       transform="matrix(1.25,0,0,-1.25,386.67714,466.57058)">
      <path
         d="M 0,0 C -0.365,0.014 -0.647,0.262 -0.845,0.744 -0.975,1.125 -1.087,1.518 -1.526,1.692 -1.858,1.758 -2.044,1.91 -1.904,2.246 -1.587,2.932 -1.078,3.344 -0.29,3.358 0.775,3.26 1.351,2.692 1.439,1.653 1.431,0.766 0.951,0.215 0,0"
         style="fill:#231f20;fill-opacity:1;fill-rule:evenodd;stroke:none"
         id="path4135"
         inkscape:connector-curvature="0" />
    </g>
    <g
       id="g4137"
       transform="matrix(1.25,0,0,-1.25,367.76864,482.17558)">
      <path
         d="m 0,0 c 0,1.906 1.555,3.461 3.461,3.461 0.587,0 1.14,-0.147 1.625,-0.406 L 3.836,1.154 C 3.718,1.193 3.592,1.215 3.461,1.215 2.792,1.215 2.247,0.668 2.247,0 c 0,-0.67 0.545,-1.215 1.214,-1.215 0.669,0 1.215,0.545 1.215,1.215 0,0.32 -0.126,0.613 -0.33,0.832 L 5.571,2.74 C 6.393,2.107 6.923,1.113 6.923,0 6.923,-1.906 5.368,-3.461 3.461,-3.461 1.555,-3.461 0,-1.906 0,0 m 8.655,7.223 c 0.38,0.546 0.761,1.093 1.141,1.64 0.133,0.112 0.261,0.182 0.357,-0.035 0.266,-0.303 0.52,-0.389 0.75,0 0.118,0.285 0.411,0.295 0.784,0.178 0.963,-0.274 1.926,-0.547 2.889,-0.821 0.095,-0.003 0.191,0.004 0.285,0.108 0.286,0.191 0.571,0.381 0.857,0.57 C 16.205,8.115 16.693,7.365 17.18,6.617 17.145,6.75 13.862,6.06 13.862,5.975 13.575,5.904 13.363,5.935 13.185,6.01 12.578,6.344 11.972,6.676 11.366,7.01 10.424,7.562 9.525,7.578 8.655,7.223 M 9.392,4.543 C 10.227,4.527 11.063,4.514 11.898,4.498 11.995,4.523 12.092,4.488 12.19,4.396 12.301,4.223 12.413,4.047 12.525,3.871 12.569,3.769 12.534,3.707 12.423,3.682 12.02,3.691 11.616,3.701 11.213,3.711 10.698,3.707 10.475,3.508 10.542,3.113 10.601,2.512 10.659,1.91 10.718,1.307 10.698,1.166 10.62,1.162 10.485,1.293 10.057,2.273 9.629,3.256 9.201,4.236 9.182,4.359 9.079,4.502 9.392,4.543 m 4.415,-3.514 0.073,0.686 0.452,-0.729 -0.525,0.043 z m 4.191,2.393 0.296,-0.469 c -1.077,-0.871 -1.678,-2.246 -1.587,-3.627 -0.095,-0.014 -0.19,-0.029 -0.285,-0.043 -0.031,1.76 0.432,3.184 1.576,4.139 m 1.016,-1.494 0.836,-1.25 c -0.224,-0.252 -0.368,-0.577 -0.393,-0.934 -0.506,-0.076 -1.012,-0.152 -1.516,-0.228 -0.038,0.892 0.388,1.839 1.073,2.412 m -0.93,-3.244 c 0.508,0.078 1.026,0.156 1.542,0.236 0.262,-0.508 0.791,-0.856 1.4,-0.856 0.865,0 1.571,0.705 1.571,1.571 0,0.867 -0.706,1.572 -1.571,1.572 -0.179,0 -0.351,-0.029 -0.511,-0.086 l -0.848,1.23 c 0.404,0.192 0.884,0.311 1.339,0.311 1.689,0 3.065,-1.377 3.065,-3.066 0,-1.688 -1.376,-3.067 -3.065,-3.065 -1.36,0.002 -2.542,0.951 -2.922,2.153 m -19.258,1.308 c 0,-2.541 2.071,-4.611 4.612,-4.611 2.539,0 4.612,2.07 4.612,4.611 0,1.494 -0.717,2.826 -1.824,3.67 0.236,0.33 0.078,0.072 0.806,1.135 C 8.078,3.963 8.629,2.935 8.704,1.631 8.73,1.18 9.132,0.781 9.166,0.99 9.374,2.242 8.981,3.539 7.459,4.902 c 0.012,0.559 0.214,0.737 0.605,0.533 0.972,-2.216 1.944,-4.433 2.917,-6.65 0.083,-0.201 0.26,-0.309 0.533,-0.32 1.637,-0.012 3.272,-0.024 4.908,-0.035 0.138,0.021 0.275,0.041 0.415,0.062 0.488,-1.838 2.174,-3.201 4.169,-3.203 2.372,-0.004 4.308,1.936 4.308,4.307 0,2.373 -1.936,4.308 -4.308,4.308 -0.707,0 -1.414,-0.185 -2.045,-0.506 l -0.33,0.465 c 0.068,0.039 0.139,0.078 0.21,0.115 1.826,0.901 3.557,0.948 5.193,0.143 0.178,0.094 0.356,0.189 0.534,0.283 C 23.785,4.963 22.813,5.33 21.651,5.508 21.627,5.732 21.604,5.957 21.58,6.184 21.519,6.408 21.388,6.492 21.189,6.432 20.702,6.314 20.216,6.195 19.731,6.076 c -0.082,2.6 -0.58,5.014 -2.562,6.758 -0.2,0.139 -0.353,0.139 -0.462,0 -0.38,-0.26 -0.759,-0.522 -1.138,-0.781 C 15.23,11.791 15.133,11.531 15.07,11.269 14.821,10.713 14.572,10.154 14.323,9.598 13.055,9.787 11.786,9.883 10.518,9.883 9.889,9.848 9.593,9.562 9.344,9.242 8.49,8.01 7.637,6.775 6.783,5.543 5.443,6.455 3.748,6.801 1.91,6.006 1.564,5.855 1.855,5.422 2.302,5.578 3.749,6.086 5.1,6.076 6.499,5.187 5.755,4.076 5.981,4.41 5.71,4.002 5.039,4.385 4.263,4.603 3.438,4.603 c -2.541,0 -4.612,-2.072 -4.612,-4.611"
         style="fill:#231f20;fill-opacity:1;fill-rule:evenodd;stroke:none"
         id="path4139"
         inkscape:connector-curvature="0" />
    </g>
    <g
       id="g4141"
       transform="matrix(1.25,0,0,-1.25,376.81339,473.84808)">
      <path
         d="M 0,0 C -0.111,-0.066 -0.21,-0.07 -0.3,-0.014 -0.484,0.297 -0.559,0.621 -0.559,0.953 -0.591,1.277 -0.54,1.592 -0.369,1.895 -0.287,2.025 -0.164,2.043 0,1.949 0.383,1.732 0.542,1.402 0.599,1.022 0.567,0.504 0.378,0.15 0,0"
         style="fill:#231f20;fill-opacity:1;fill-rule:evenodd;stroke:none"
         id="path4143"
         inkscape:connector-curvature="0" />
    </g>
  </g>
</svg>
