<?xml version="1.0" encoding="UTF-8" standalone="no"?>
<!-- Created with Inkscape (http://www.inkscape.org/) -->

<svg
   xmlns:dc="http://purl.org/dc/elements/1.1/"
   xmlns:cc="http://creativecommons.org/ns#"
   xmlns:rdf="http://www.w3.org/1999/02/22-rdf-syntax-ns#"
   xmlns:svg="http://www.w3.org/2000/svg"
   xmlns="http://www.w3.org/2000/svg"
   xmlns:sodipodi="http://sodipodi.sourceforge.net/DTD/sodipodi-0.dtd"
   xmlns:inkscape="http://www.inkscape.org/namespaces/inkscape"
   width="75.053642"
   height="75.056252"
   id="svg9022"
   version="1.1"
   inkscape:version="0.48.1 "
   sodipodi:docname="New document 25">
  <defs
     id="defs9024" />
  <sodipodi:namedview
     id="base"
     pagecolor="#ffffff"
     bordercolor="#666666"
     borderopacity="1.0"
     inkscape:pageopacity="0.0"
     inkscape:pageshadow="2"
     inkscape:zoom="0.35"
     inkscape:cx="166.81253"
     inkscape:cy="97.528127"
     inkscape:document-units="px"
     inkscape:current-layer="layer1"
     showgrid="false"
     fit-margin-top="0"
     fit-margin-left="0"
     fit-margin-right="0"
     fit-margin-bottom="0"
     inkscape:window-width="469"
     inkscape:window-height="403"
     inkscape:window-x="75"
     inkscape:window-y="75"
     inkscape:window-maximized="0" />
  <metadata
     id="metadata9027">
    <rdf:RDF>
      <cc:Work
         rdf:about="">
        <dc:format>image/svg+xml</dc:format>
        <dc:type
           rdf:resource="http://purl.org/dc/dcmitype/StillImage" />
        <dc:title></dc:title>
      </cc:Work>
    </rdf:RDF>
  </metadata>
  <g
     inkscape:label="Layer 1"
     inkscape:groupmode="layer"
     id="layer1"
     transform="translate(-208.18747,-554.83406)">
    <g
       id="g3195"
       transform="matrix(1.25,0,0,-1.25,281.72123,589.44656)">
      <path
         d="m 0,0 -26.47,26.467 c -0.612,0.616 -1.463,0.973 -2.334,0.973 -0.869,0 -1.717,-0.357 -2.337,-0.973 L -57.61,0 c -0.616,-0.616 -0.969,-1.461 -0.967,-2.336 0.005,-0.869 0.353,-1.72 0.967,-2.334 l 26.469,-26.467 c 0.614,-0.612 1.473,-0.967 2.338,-0.968 0.865,10e-4 1.724,0.356 2.334,0.968 L 0,-4.671 c 0.793,0.793 1.131,1.986 0.889,3.078 C 0.746,-0.963 0.398,-0.496 0,0"
         style="fill:#fccf34;fill-opacity:1;fill-rule:nonzero;stroke:none"
         id="path3197"
         inkscape:connector-curvature="0" />
    </g>
    <g
       id="g3207"
       transform="matrix(1.25,0,0,-1.25,281.72123,589.44656)">
      <path
         d="m 0,0 -26.47,26.467 c -0.612,0.616 -1.463,0.973 -2.334,0.973 -0.869,0 -1.717,-0.357 -2.337,-0.973 L -57.61,0 c -0.616,-0.616 -0.969,-1.461 -0.967,-2.336 0.005,-0.869 0.353,-1.72 0.967,-2.334 l 26.469,-26.467 c 0.614,-0.612 1.473,-0.967 2.338,-0.968 0.865,10e-4 1.724,0.356 2.334,0.968 L 0,-4.671 c 0.793,0.793 1.131,1.986 0.889,3.078 C 0.746,-0.963 0.398,-0.496 0,0 z"
         style="fill:none;stroke:#231f20;stroke-width:0.5;stroke-linecap:butt;stroke-linejoin:miter;stroke-miterlimit:4;stroke-opacity:1;stroke-dasharray:none"
         id="path3209"
         inkscape:connector-curvature="0" />
    </g>
    <g
       id="g3219"
       transform="matrix(1.25,0,0,-1.25,280.90335,594.46781)">
      <path
         d="m 0,0 -26.467,-26.466 c -0.445,-0.443 -1.054,-0.696 -1.681,-0.696 -0.627,0 -1.235,0.253 -1.68,0.696 L -56.306,0.001 c -0.439,0.441 -0.689,1.058 -0.689,1.681 10e-4,0.623 0.251,1.24 0.69,1.68 l 26.476,26.474 c 0.442,0.439 1.058,0.69 1.68,0.69 0.623,0 1.241,-0.251 1.682,-0.69 L 0.001,3.361 C 0.443,2.916 0.695,2.309 0.695,1.682 0.695,1.054 0.443,0.445 0,0"
         style="fill:#231f20;fill-opacity:1;fill-rule:evenodd;stroke:none"
         id="path3221"
         inkscape:connector-curvature="0" />
    </g>
    <g
       id="g3223"
       transform="matrix(1.25,0,0,-1.25,279.76323,593.32531)">
      <path
         d="M 0,0 C 0.201,0.199 0.318,0.487 0.318,0.768 0.318,1.045 0.201,1.34 0,1.538 l -26.47,26.469 c -0.198,0.198 -0.486,0.315 -0.766,0.315 -0.279,0 -0.573,-0.117 -0.772,-0.315 L -54.479,1.538 C -54.68,1.337 -54.79,1.051 -54.79,0.769 c 0.002,-0.283 0.111,-0.566 0.311,-0.768 l 26.471,-26.472 c 0.2,-0.199 0.494,-0.316 0.772,-0.316 0.281,0 0.569,0.117 0.767,0.316 L 0,0 z"
         style="fill:#fccf34;fill-opacity:1;fill-rule:evenodd;stroke:none"
         id="path3225"
         inkscape:connector-curvature="0" />
    </g>
    <g
       id="g3227"
       transform="matrix(1.25,0,0,-1.25,271.33548,586.65281)">
      <path
         d="m 0,0 0,0.979 -3.733,0 0,-0.979 1.339,0 0,-6.357 1.054,0 L -1.34,0 0,0 z m -4.816,-6.357 0,7.336 -1.056,0 0,-4.403 -2.007,4.403 -1.057,0 0,-7.336 1.057,0 0,4.916 2.266,-4.916 0.797,0 z m -5.433,0 0,1.029 -2.677,0 0,2.42 1.518,0 0,1.004 -1.518,0 0,1.852 2.394,0 0,1.031 -3.45,0 0,-7.336 3.733,0 z m -5.408,0 0,7.336 -1.055,0 -1.366,-4.12 -1.363,4.12 -1.055,0 0,-7.336 1.055,0 0,4.118 1.363,-4.118 1.366,4.118 0,-4.118 1.055,0 z m -6.154,0 0,1.029 -2.677,0 0,2.42 1.517,0 0,1.004 -1.517,0 0,1.852 2.394,0 0,1.031 -3.451,0 0,-7.336 3.734,0 z m -4.816,7.336 -1.055,0 -1.211,-4.762 -1.208,4.762 -1.057,0 1.853,-7.336 0.799,0 1.879,7.336 z m -6.875,-4.299 -1.055,0 0.514,2.11 0.541,-2.11 z m 1.828,-3.037 -1.828,7.336 -1.031,0 -1.827,-7.336 1.055,0 0.489,2.007 1.571,0 0.516,-2.007 1.055,0 z m -6.232,5.276 c 0,-0.669 -0.334,-1.056 -0.953,-1.056 l -1.08,0 0,2.085 1.08,0 c 0.566,0 0.953,-0.411 0.953,-1.029 m 1.029,0 c 0,1.235 -0.772,2.06 -1.93,2.06 l -2.189,0 0,-7.336 1.057,0 0,3.216 1.132,0 c 1.236,0 1.93,0.722 1.93,2.06"
         style="fill:#231f20;fill-opacity:1;fill-rule:evenodd;stroke:none"
         id="path3229"
         inkscape:connector-curvature="0" />
    </g>
    <g
       id="g3231"
       transform="matrix(1.25,0,0,-1.25,258.2301,606.61781)">
      <path
         d="m 0,0 c 0,1.055 -0.619,1.853 -2.033,2.677 -0.542,0.309 -0.696,0.515 -0.696,0.875 0,0.489 0.386,0.849 0.875,0.849 0.463,0 0.823,-0.333 0.849,-0.849 l 1.005,0 c -0.026,1.108 -0.824,1.905 -1.854,1.905 -1.054,0 -1.878,-0.849 -1.878,-1.905 0,-0.643 0.307,-1.21 0.9,-1.622 C -1.338,0.926 -1.75,1.209 -1.598,1.055 -1.159,0.721 -1.005,0.412 -1.005,0 c 0,-0.592 -0.464,-1.107 -1.028,-1.107 -0.721,0 -1.03,0.644 -1.03,1.262 l -1.031,0 c 0,-1.21 0.774,-2.296 2.061,-2.296 C -0.902,-2.141 0,-1.184 0,0 m -6.121,1.622 c 0,-0.567 -0.051,-1.082 -0.104,-1.545 -0.101,-0.566 -0.437,-1.055 -1.054,-1.055 l -0.875,0 0,5.276 0.875,0 c 0.464,0 0.771,-0.23 0.953,-0.746 0.128,-0.308 0.205,-1.107 0.205,-1.93 m 1.029,0.051 c 0,0.567 -0.076,1.209 -0.18,1.75 C -5.4,4.17 -5.709,4.737 -6.146,5.045 -6.403,5.25 -6.713,5.329 -7.331,5.329 l -1.878,0 0,-7.337 2.033,0 c 0.411,0 0.773,0.103 1.03,0.335 0.72,0.566 1.054,1.647 1.054,3.346 m -5.605,-3.681 0,7.337 -1.055,0 0,-4.403 -2.008,4.403 -1.056,0 0,-7.337 1.056,0 0,4.917 2.266,-4.917 0.797,0 z m -5.272,0 0,1.03 -2.677,0 0,2.42 1.52,0 0,1.003 -1.52,0 0,1.853 2.394,0 0,1.031 -3.449,0 0,-7.337 3.732,0 z"
         style="fill:#231f20;fill-opacity:1;fill-rule:evenodd;stroke:none"
         id="path3233"
         inkscape:connector-curvature="0" />
    </g>
  </g>
</svg>
