<?xml version="1.0" encoding="UTF-8" standalone="no"?>
<!-- Created with Inkscape (http://www.inkscape.org/) -->

<svg
   xmlns:dc="http://purl.org/dc/elements/1.1/"
   xmlns:cc="http://creativecommons.org/ns#"
   xmlns:rdf="http://www.w3.org/1999/02/22-rdf-syntax-ns#"
   xmlns:svg="http://www.w3.org/2000/svg"
   xmlns="http://www.w3.org/2000/svg"
   xmlns:sodipodi="http://sodipodi.sourceforge.net/DTD/sodipodi-0.dtd"
   xmlns:inkscape="http://www.inkscape.org/namespaces/inkscape"
   width="44.648438"
   height="33.632812"
   id="svg9423"
   version="1.1"
   inkscape:version="0.48.1 "
   sodipodi:docname="New document 37">
  <defs
     id="defs9425" />
  <sodipodi:namedview
     id="base"
     pagecolor="#ffffff"
     bordercolor="#666666"
     borderopacity="1.0"
     inkscape:pageopacity="0.0"
     inkscape:pageshadow="2"
     inkscape:zoom="0.35"
     inkscape:cx="-71.253612"
     inkscape:cy="82.523032"
     inkscape:document-units="px"
     inkscape:current-layer="layer1"
     showgrid="false"
     fit-margin-top="0"
     fit-margin-left="0"
     fit-margin-right="0"
     fit-margin-bottom="0"
     inkscape:window-width="469"
     inkscape:window-height="403"
     inkscape:window-x="592"
     inkscape:window-y="14"
     inkscape:window-maximized="0" />
  <metadata
     id="metadata9428">
    <rdf:RDF>
      <cc:Work
         rdf:about="">
        <dc:format>image/svg+xml</dc:format>
        <dc:type
           rdf:resource="http://purl.org/dc/dcmitype/StillImage" />
        <dc:title></dc:title>
      </cc:Work>
    </rdf:RDF>
  </metadata>
  <g
     inkscape:label="Layer 1"
     inkscape:groupmode="layer"
     id="layer1"
     transform="translate(-446.25361,-581.2524)">
    <g
       id="g4741"
       transform="matrix(1.25,0,0,-1.25,490.58955,611.83834)">
      <path
         d="m 0,0 c 0,-1.216 -0.986,-2.202 -2.202,-2.202 l -30.826,0 c -1.216,0 -2.201,0.986 -2.201,2.202 l 0,22.018 c 0,1.217 0.985,2.203 2.201,2.203 l 30.826,0 C -0.986,24.221 0,23.235 0,22.018 L 0,0 z"
         style="fill:#fccf34;fill-opacity:1;fill-rule:nonzero;stroke:none"
         id="path4743"
         inkscape:connector-curvature="0" />
    </g>
    <g
       id="g4745"
       transform="matrix(1.25,0,0,-1.25,490.58955,611.83834)">
      <path
         d="m 0,0 c 0,-1.216 -0.986,-2.202 -2.202,-2.202 l -30.826,0 c -1.216,0 -2.201,0.986 -2.201,2.202 l 0,22.018 c 0,1.217 0.985,2.203 2.201,2.203 l 30.826,0 C -0.986,24.221 0,23.235 0,22.018 L 0,0 z"
         style="fill:none;stroke:#231f20;stroke-width:0.5;stroke-linecap:butt;stroke-linejoin:miter;stroke-miterlimit:4;stroke-opacity:1;stroke-dasharray:none"
         id="path4747"
         inkscape:connector-curvature="0" />
    </g>
    <g
       id="g4749"
       transform="matrix(1.25,0,0,-1.25,488.7558,611.83834)">
      <path
         d="m 0,0 c 0,-0.404 -0.33,-0.734 -0.735,-0.734 l -30.826,0 c -0.404,0 -0.733,0.33 -0.733,0.734 l 0,22.018 c 0,0.405 0.329,0.734 0.733,0.734 l 30.826,0 C -0.33,22.752 0,22.423 0,22.018 L 0,0 z m -0.735,23.67 -30.826,0 c -0.91,0 -1.651,-0.741 -1.651,-1.652 l 0,-22.018 c 0,-0.91 0.741,-1.651 1.651,-1.651 l 30.826,0 c 0.911,0 1.652,0.741 1.652,1.651 l 0,22.018 c 0,0.911 -0.741,1.652 -1.652,1.652"
         style="fill:#231f20;fill-opacity:1;fill-rule:nonzero;stroke:none"
         id="path4751"
         inkscape:connector-curvature="0" />
    </g>
    <g
       id="g4753"
       transform="matrix(1.25,0,0,-1.25,465.0583,602.46084)">
      <path
         d="m 0,0 c -0.186,0.309 -0.413,0.433 -0.764,0.453 -0.454,0.021 -0.743,-0.206 -0.95,-0.721 -0.145,-0.35 -0.227,-0.885 -0.227,-1.38 0,-0.618 0.123,-1.256 0.351,-1.628 0.185,-0.309 0.433,-0.453 0.805,-0.453 0.434,0 0.703,0.227 0.909,0.742 0.124,0.309 0.227,0.886 0.227,1.339 C 0.351,-0.988 0.227,-0.391 0,0 m 0.64,-4.017 c -0.33,-0.453 -0.805,-0.659 -1.425,-0.659 -0.826,0 -1.342,0.329 -1.693,1.05 -0.248,0.495 -0.413,1.278 -0.413,1.978 0,0.969 0.247,1.834 0.64,2.39 0.351,0.453 0.826,0.659 1.507,0.659 0.744,0 1.26,-0.329 1.632,-1.051 0.248,-0.515 0.393,-1.256 0.393,-1.998 0,-0.927 -0.228,-1.854 -0.641,-2.369"
         style="fill:#231f20;fill-opacity:1;fill-rule:nonzero;stroke:none"
         id="path4755"
         inkscape:connector-curvature="0" />
    </g>
    <path
       d="m 468.27355,600.82859 1.17375,0 0,7.34 -1.17375,0 0,-7.34 z"
       style="fill:#231f20;fill-opacity:1;fill-rule:nonzero;stroke:none"
       id="path4757"
       inkscape:connector-curvature="0" />
    <g
       id="g4759"
       transform="matrix(1.25,0,0,-1.25,471.20955,608.16834)">
      <path
         d="m 0,0 0,5.872 0.925,0 0,-5.007 2.717,0 L 3.642,0 0,0 z"
         style="fill:#231f20;fill-opacity:1;fill-rule:nonzero;stroke:none"
         id="path4761"
         inkscape:connector-curvature="0" />
    </g>
    <g
       id="g4763"
       transform="matrix(1.25,0,0,-1.25,479.15593,594.87709)">
      <path
         d="m 0,0 c -0.33,-0.289 -0.783,-0.454 -1.277,-0.454 -1.01,0 -1.752,0.598 -2.144,1.484 l 0.887,0.329 c 0.247,-0.556 0.7,-0.865 1.257,-0.865 0.535,0 0.906,0.371 0.906,0.865 0,0.783 -0.906,0.907 -1.669,1.216 -0.351,0.144 -1.133,0.494 -1.133,1.463 0,1.153 0.782,1.586 1.833,1.586 0.824,0 1.381,-0.474 1.669,-1.195 L -0.495,4.182 c 0,0 -0.206,0.495 -0.865,0.515 C -1.793,4.718 -2.308,4.553 -2.267,4.017 -2.185,2.925 0.576,3.646 0.576,1.339 0.576,0.803 0.37,0.329 0,0"
         style="fill:#231f20;fill-opacity:1;fill-rule:nonzero;stroke:none"
         id="path4765"
         inkscape:connector-curvature="0" />
    </g>
    <g
       id="g4767"
       transform="matrix(1.25,0,0,-1.25,484.8858,594.87709)">
      <path
         d="m 0,0 c -0.33,-0.289 -0.783,-0.454 -1.277,-0.454 -1.01,0 -1.751,0.598 -2.143,1.484 l 0.886,0.329 c 0.247,-0.556 0.7,-0.865 1.257,-0.865 0.535,0 0.906,0.371 0.906,0.865 0,0.783 -0.906,0.907 -1.669,1.216 -0.35,0.144 -1.133,0.494 -1.133,1.463 0,1.153 0.783,1.586 1.834,1.586 0.823,0 1.38,-0.474 1.668,-1.195 L -0.494,4.182 c 0,0 -0.206,0.495 -0.866,0.515 C -1.793,4.718 -2.308,4.553 -2.267,4.017 -2.184,2.925 0.577,3.646 0.577,1.339 0.577,0.803 0.371,0.329 0,0"
         style="fill:#231f20;fill-opacity:1;fill-rule:nonzero;stroke:none"
         id="path4769"
         inkscape:connector-curvature="0" />
    </g>
    <g
       id="g4771"
       transform="matrix(1.25,0,0,-1.25,460.5683,595.32459)">
      <path
         d="M 0,0 -0.947,1.957 -1.896,0 l -1.05,0 1.462,3.029 -1.359,2.843 1.051,0 0.845,-1.752 0.844,1.752 1.051,0 L -0.433,3.029 1.051,0 0,0 z"
         style="fill:#231f20;fill-opacity:1;fill-rule:nonzero;stroke:none"
         id="path4773"
         inkscape:connector-curvature="0" />
    </g>
    <g
       id="g4775"
       transform="matrix(1.25,0,0,-1.25,451.59955,595.32459)">
      <path
         d="m 0,0 0,5.872 3.456,0 0,-0.927 -2.53,0 0,-1.442 1.708,0 0,-0.948 -1.708,0 0,-1.607 2.716,0 L 3.642,0 0,0 z"
         style="fill:#231f20;fill-opacity:1;fill-rule:nonzero;stroke:none"
         id="path4777"
         inkscape:connector-curvature="0" />
    </g>
    <g
       id="g4779"
       transform="matrix(1.25,0,0,-1.25,469.59455,595.32459)">
      <path
         d="m 0,0 0,5.872 3.456,0 0,-0.927 -2.531,0 0,-1.442 1.708,0 0,-0.948 -1.708,0 0,-1.607 2.716,0 L 3.641,0 0,0 z"
         style="fill:#231f20;fill-opacity:1;fill-rule:nonzero;stroke:none"
         id="path4781"
         inkscape:connector-curvature="0" />
    </g>
    <g
       id="g4783"
       transform="matrix(1.25,0,0,-1.25,465.76455,595.45334)">
      <path
         d="m 0,0 c -0.865,0 -1.422,0.33 -1.793,1.051 -0.267,0.515 -0.433,1.256 -0.433,1.998 0,0.927 0.248,1.855 0.66,2.37 0.35,0.432 0.844,0.659 1.504,0.659 0.886,0 1.442,-0.371 1.834,-1.195 L 0.906,4.512 C 0.576,5.007 0.392,5.13 -0.062,5.13 c -0.474,0 -0.783,-0.206 -0.989,-0.721 -0.144,-0.35 -0.226,-0.865 -0.226,-1.36 0,-0.639 0.143,-1.277 0.37,-1.648 0.206,-0.309 0.474,-0.453 0.887,-0.453 0.39,0 0.679,0.206 0.906,0.68 L 1.772,1.298 C 1.421,0.433 0.845,0 0,0"
         style="fill:#231f20;fill-opacity:1;fill-rule:nonzero;stroke:none"
         id="path4785"
         inkscape:connector-curvature="0" />
    </g>
  </g>
</svg>
