<?xml version="1.0" encoding="UTF-8" standalone="no"?>
<!-- Created with Inkscape (http://www.inkscape.org/) -->

<svg
   xmlns:dc="http://purl.org/dc/elements/1.1/"
   xmlns:cc="http://creativecommons.org/ns#"
   xmlns:rdf="http://www.w3.org/1999/02/22-rdf-syntax-ns#"
   xmlns:svg="http://www.w3.org/2000/svg"
   xmlns="http://www.w3.org/2000/svg"
   xmlns:sodipodi="http://sodipodi.sourceforge.net/DTD/sodipodi-0.dtd"
   xmlns:inkscape="http://www.inkscape.org/namespaces/inkscape"
   width="75.054901"
   height="75.056252"
   id="svg9563"
   version="1.1"
   inkscape:version="0.48.1 "
   sodipodi:docname="New document 41">
  <defs
     id="defs9565" />
  <sodipodi:namedview
     id="base"
     pagecolor="#ffffff"
     bordercolor="#666666"
     borderopacity="1.0"
     inkscape:pageopacity="0.0"
     inkscape:pageshadow="2"
     inkscape:zoom="0.35"
     inkscape:cx="35.384591"
     inkscape:cy="8.9566974"
     inkscape:document-units="px"
     inkscape:current-layer="layer1"
     showgrid="false"
     fit-margin-top="0"
     fit-margin-left="0"
     fit-margin-right="0"
     fit-margin-bottom="0"
     inkscape:window-width="469"
     inkscape:window-height="403"
     inkscape:window-x="125"
     inkscape:window-y="125"
     inkscape:window-maximized="0" />
  <metadata
     id="metadata9568">
    <rdf:RDF>
      <cc:Work
         rdf:about="">
        <dc:format>image/svg+xml</dc:format>
        <dc:type
           rdf:resource="http://purl.org/dc/dcmitype/StillImage" />
        <dc:title></dc:title>
      </cc:Work>
    </rdf:RDF>
  </metadata>
  <g
     inkscape:label="Layer 1"
     inkscape:groupmode="layer"
     id="layer1"
     transform="translate(-339.61541,-466.26263)">
    <g
       id="g3091"
       transform="matrix(1.25,0,0,-1.25,413.15167,500.87513)">
      <path
         d="m 0,0 -26.471,26.466 c -0.612,0.617 -1.463,0.974 -2.334,0.974 -0.869,0 -1.717,-0.357 -2.336,-0.974 L -57.612,0 c -0.615,-0.617 -0.969,-1.46 -0.967,-2.335 0.006,-0.87 0.354,-1.721 0.967,-2.334 l 26.471,-26.467 c 0.613,-0.614 1.473,-0.967 2.338,-0.969 0.865,0.002 1.722,0.355 2.334,0.969 L 0,-4.671 c 0.792,0.793 1.13,1.986 0.888,3.078 C 0.746,-0.962 0.398,-0.496 0,0"
         style="fill:#fccf34;fill-opacity:1;fill-rule:nonzero;stroke:none"
         id="path3093"
         inkscape:connector-curvature="0" />
    </g>
    <g
       id="g3095"
       transform="matrix(1.25,0,0,-1.25,413.15167,500.87513)">
      <path
         d="m 0,0 -26.471,26.466 c -0.612,0.617 -1.463,0.974 -2.334,0.974 -0.869,0 -1.717,-0.357 -2.336,-0.974 L -57.612,0 c -0.615,-0.617 -0.969,-1.46 -0.967,-2.335 0.006,-0.87 0.354,-1.721 0.967,-2.334 l 26.471,-26.467 c 0.613,-0.614 1.473,-0.967 2.338,-0.969 0.865,0.002 1.722,0.355 2.334,0.969 L 0,-4.671 c 0.792,0.793 1.13,1.986 0.888,3.078 C 0.746,-0.962 0.398,-0.496 0,0 z"
         style="fill:none;stroke:#231f20;stroke-width:0.5;stroke-linecap:butt;stroke-linejoin:miter;stroke-miterlimit:4;stroke-opacity:1;stroke-dasharray:none"
         id="path3097"
         inkscape:connector-curvature="0" />
    </g>
    <g
       id="g3099"
       transform="matrix(1.25,0,0,-1.25,412.33292,505.89638)">
      <path
         d="m 0,0 -26.467,-26.465 c -0.445,-0.443 -1.054,-0.697 -1.681,-0.697 -0.627,0 -1.235,0.254 -1.68,0.697 L -56.306,0.002 c -0.44,0.439 -0.69,1.056 -0.69,1.68 0.002,0.623 0.252,1.24 0.691,1.681 l 26.475,26.473 c 0.443,0.438 1.059,0.689 1.68,0.689 0.623,0 1.242,-0.251 1.683,-0.689 L 0,3.361 C 0.444,2.916 0.696,2.308 0.696,1.682 0.696,1.055 0.444,0.445 0,0"
         style="fill:#231f20;fill-opacity:1;fill-rule:evenodd;stroke:none"
         id="path3101"
         inkscape:connector-curvature="0" />
    </g>
    <g
       id="g3103"
       transform="matrix(1.25,0,0,-1.25,411.19292,504.75388)">
      <path
         d="M 0,0 C 0.201,0.199 0.318,0.486 0.318,0.768 0.318,1.045 0.201,1.34 0,1.539 l -26.471,26.468 c -0.197,0.198 -0.486,0.315 -0.765,0.315 -0.28,0 -0.572,-0.117 -0.772,-0.315 L -54.48,1.539 c -0.2,-0.201 -0.311,-0.488 -0.311,-0.77 0.002,-0.283 0.111,-0.566 0.313,-0.767 l 26.47,-26.473 c 0.2,-0.199 0.494,-0.316 0.772,-0.316 0.281,0 0.568,0.117 0.767,0.316 L 0,0 z"
         style="fill:#fccf34;fill-opacity:1;fill-rule:evenodd;stroke:none"
         id="path3105"
         inkscape:connector-curvature="0" />
    </g>
    <g
       id="g3107"
       transform="matrix(1.25,0,0,-1.25,396.52542,501.97013)">
      <path
         d="m 0,0 0,7.335 -1.16,0 0,-2.96 -2.676,0 0,2.96 -1.158,0 0,-7.335 1.158,0 0,3.191 2.676,0 L -1.16,0 0,0 z m -6.713,2.187 0,1.467 -2.496,0 0,-1.158 1.338,0 0,-0.309 c 0,-0.67 -0.541,-1.133 -1.287,-1.133 -0.44,0 -0.772,0.179 -1.006,0.592 -0.231,0.464 -0.36,1.236 -0.36,2.008 0,0.618 0.104,1.287 0.283,1.724 0.258,0.645 0.643,0.902 1.237,0.902 0.566,0 0.875,-0.232 1.183,-0.876 l 1.108,0.438 c -0.49,1.159 -1.158,1.622 -2.291,1.622 -0.824,0 -1.444,-0.283 -1.879,-0.824 -0.49,-0.642 -0.824,-1.802 -0.824,-2.986 0,-0.901 0.179,-1.801 0.488,-2.446 0.439,-0.925 1.082,-1.341 2.187,-1.341 1.34,0 2.319,0.982 2.319,2.32 m -6.688,0.438 0,4.71 -1.158,0 0,-4.71 c 0,-0.953 -0.541,-1.571 -1.338,-1.571 -0.799,0 -1.338,0.618 -1.338,1.571 l 0,4.71 -1.16,0 0,-4.71 c 0,-0.567 0.129,-1.081 0.336,-1.519 0.385,-0.72 1.26,-1.239 2.162,-1.239 0.899,0 1.776,0.519 2.16,1.239 0.207,0.438 0.336,0.952 0.336,1.519 m -7.871,1.029 c 0,-0.567 -0.129,-1.287 -0.283,-1.673 -0.258,-0.644 -0.592,-0.927 -1.133,-0.927 -0.463,0 -0.771,0.179 -1.004,0.567 -0.283,0.463 -0.437,1.261 -0.437,2.033 0,0.618 0.103,1.287 0.283,1.724 0.258,0.645 0.617,0.928 1.184,0.902 0.437,-0.027 0.72,-0.181 0.953,-0.566 0.283,-0.49 0.437,-1.236 0.437,-2.06 m 1.158,0 c 0,0.928 -0.179,1.853 -0.49,2.497 -0.463,0.901 -1.105,1.313 -2.031,1.313 -0.85,0 -1.443,-0.257 -1.881,-0.824 -0.488,-0.695 -0.797,-1.775 -0.797,-2.986 0,-0.875 0.207,-1.854 0.514,-2.471 0.437,-0.9 1.082,-1.316 2.111,-1.316 0.774,0 1.364,0.261 1.776,0.828 0.515,0.642 0.798,1.801 0.798,2.959 m -7.691,1.622 c 0,-0.31 -0.18,-0.618 -0.463,-0.773 -0.18,-0.102 -0.308,-0.128 -0.67,-0.128 l -1.388,0 0,1.802 1.388,0 c 0.387,0 0.49,-0.026 0.67,-0.129 0.283,-0.154 0.463,-0.464 0.463,-0.772 M -26.492,0 -27.78,3.423 c 0.67,0.309 1.133,1.08 1.133,1.853 0,0.747 -0.463,1.518 -1.105,1.827 -0.362,0.181 -0.748,0.232 -1.315,0.232 l -2.418,0 0,-7.335 1.159,0 0,3.191 1.388,0 1.186,-3.191 1.26,0 z"
         style="fill:#231f20;fill-opacity:1;fill-rule:evenodd;stroke:none"
         id="path3109"
         inkscape:connector-curvature="0" />
    </g>
    <g
       id="g3111"
       transform="matrix(1.25,0,0,-1.25,391.35167,514.19013)">
      <path
         d="M 0,0 C 0,-0.978 -0.234,-1.777 -0.67,-2.215 -0.877,-2.42 -1.107,-2.498 -1.494,-2.498 l -1.158,0 0,4.994 1.312,0 c 0.309,0 0.567,-0.129 0.746,-0.308 C -0.234,1.801 0,0.979 0,0 m 1.182,0 c 0,1.44 -0.438,2.6 -1.209,3.268 -0.385,0.308 -0.668,0.386 -1.416,0.386 l -2.367,0 0,-7.336 2.238,0 0.412,0 c 0.387,0.026 0.771,0.155 1.055,0.413 0.824,0.642 1.287,1.8 1.287,3.269 m -8.696,-0.437 -1.466,0 0.748,2.058 0.718,-2.058 z m 2.368,-3.245 -2.522,7.336 -1.158,0 -2.522,-7.336 1.235,0 0.72,2.059 2.291,0 0.721,-2.059 1.235,0 z m -8.541,3.655 c 0,-0.567 -0.129,-1.287 -0.284,-1.672 -0.257,-0.645 -0.589,-0.928 -1.131,-0.928 -0.464,0 -0.773,0.18 -1.003,0.567 -0.284,0.462 -0.438,1.261 -0.438,2.033 0,0.619 0.102,1.287 0.283,1.724 0.256,0.645 0.616,0.928 1.182,0.903 0.439,-0.028 0.723,-0.182 0.953,-0.567 0.283,-0.49 0.438,-1.236 0.438,-2.06 m 1.158,0 c 0,0.928 -0.18,1.853 -0.489,2.498 -0.462,0.9 -1.107,1.312 -2.033,1.312 -0.849,0 -1.441,-0.257 -1.879,-0.824 -0.49,-0.695 -0.798,-1.775 -0.798,-2.986 0,-0.875 0.207,-1.854 0.515,-2.471 0.438,-0.9 1.08,-1.316 2.111,-1.316 0.772,0 1.364,0.261 1.776,0.828 0.514,0.642 0.797,1.801 0.797,2.959 m -7.793,1.621 c 0,-0.309 -0.182,-0.615 -0.465,-0.772 -0.18,-0.103 -0.309,-0.127 -0.668,-0.127 l -1.391,0 0,1.801 1.391,0 c 0.385,0 0.488,-0.025 0.668,-0.129 0.283,-0.154 0.465,-0.463 0.465,-0.773 m 1.31,-5.276 -1.287,3.424 c 0.67,0.309 1.133,1.08 1.133,1.852 0,0.748 -0.463,1.519 -1.107,1.828 -0.36,0.182 -0.745,0.232 -1.311,0.232 l -2.42,0 0,-7.336 1.158,0 0,3.192 1.391,0 1.182,-3.192 1.261,0 z"
         style="fill:#231f20;fill-opacity:1;fill-rule:evenodd;stroke:none"
         id="path3113"
         inkscape:connector-curvature="0" />
    </g>
  </g>
</svg>
