<?xml version="1.0" encoding="UTF-8" standalone="no"?>
<!-- Created with Inkscape (http://www.inkscape.org/) -->

<svg
   xmlns:dc="http://purl.org/dc/elements/1.1/"
   xmlns:cc="http://creativecommons.org/ns#"
   xmlns:rdf="http://www.w3.org/1999/02/22-rdf-syntax-ns#"
   xmlns:svg="http://www.w3.org/2000/svg"
   xmlns="http://www.w3.org/2000/svg"
   xmlns:sodipodi="http://sodipodi.sourceforge.net/DTD/sodipodi-0.dtd"
   xmlns:inkscape="http://www.inkscape.org/namespaces/inkscape"
   width="75.053642"
   height="75.056252"
   id="svg9616"
   version="1.1"
   inkscape:version="0.48.1 "
   sodipodi:docname="New document 43">
  <defs
     id="defs9618" />
  <sodipodi:namedview
     id="base"
     pagecolor="#ffffff"
     bordercolor="#666666"
     borderopacity="1.0"
     inkscape:pageopacity="0.0"
     inkscape:pageshadow="2"
     inkscape:zoom="0.35"
     inkscape:cx="115.38396"
     inkscape:cy="17.528127"
     inkscape:document-units="px"
     inkscape:current-layer="layer1"
     showgrid="false"
     fit-margin-top="0"
     fit-margin-left="0"
     fit-margin-right="0"
     fit-margin-bottom="0"
     inkscape:window-width="469"
     inkscape:window-height="403"
     inkscape:window-x="522"
     inkscape:window-y="178"
     inkscape:window-maximized="0" />
  <metadata
     id="metadata9621">
    <rdf:RDF>
      <cc:Work
         rdf:about="">
        <dc:format>image/svg+xml</dc:format>
        <dc:type
           rdf:resource="http://purl.org/dc/dcmitype/StillImage" />
        <dc:title></dc:title>
      </cc:Work>
    </rdf:RDF>
  </metadata>
  <g
     inkscape:label="Layer 1"
     inkscape:groupmode="layer"
     id="layer1"
     transform="translate(-259.61604,-474.83406)">
    <path
       inkscape:connector-curvature="0"
       id="path3873"
       style="fill:#fccf34;fill-opacity:1;fill-rule:nonzero;stroke:none"
       d="m 333.1498,509.44906 -33.08625,-33.085 c -0.76625,-0.77125 -1.82875,-1.2175 -2.9175,-1.2175 -1.08625,0 -2.1475,0.44625 -2.92125,1.2175 l -33.0875,33.085 c -0.76875,0.76875 -1.21125,1.825 -1.20875,2.91875 0.006,1.08625 0.4425,2.14875 1.20875,2.9175 l 33.0875,33.08375 c 0.76625,0.76375 1.84,1.20875 2.9225,1.20875 1.08125,0 2.15375,-0.445 2.9175,-1.20875 l 33.085,-33.08375 c 0.99125,-0.99125 1.41375,-2.4825 1.11125,-3.8475 -0.17875,-0.78625 -0.61375,-1.36875 -1.11125,-1.98875" />
    <path
       inkscape:connector-curvature="0"
       id="path3877"
       style="fill:none;stroke:#231f20;stroke-width:0.625;stroke-linecap:butt;stroke-linejoin:miter;stroke-miterlimit:4;stroke-opacity:1;stroke-dasharray:none"
       d="m 333.1498,509.44906 -33.08625,-33.085 c -0.76625,-0.77125 -1.82875,-1.2175 -2.9175,-1.2175 -1.08625,0 -2.1475,0.44625 -2.92125,1.2175 l -33.0875,33.085 c -0.76875,0.76875 -1.21125,1.825 -1.20875,2.91875 0.006,1.08625 0.4425,2.14875 1.20875,2.9175 l 33.0875,33.08375 c 0.76625,0.76375 1.84,1.20875 2.9225,1.20875 1.08125,0 2.15375,-0.445 2.9175,-1.20875 l 33.085,-33.08375 c 0.99125,-0.99125 1.41375,-2.4825 1.11125,-3.8475 -0.17875,-0.78625 -0.61375,-1.36875 -1.11125,-1.98875 z" />
    <path
       inkscape:connector-curvature="0"
       id="path3881"
       style="fill:#231f20;fill-opacity:1;fill-rule:evenodd;stroke:none"
       d="m 332.3323,514.46781 -33.08375,33.08375 c -0.55625,0.55375 -1.3175,0.86875 -2.10125,0.86875 -0.78375,0 -1.54375,-0.315 -2.1,-0.86875 l -33.0975,-33.08375 c -0.54875,-0.55125 -0.86125,-1.32375 -0.86125,-2.1025 10e-4,-0.77875 0.31375,-1.55 0.8625,-2.09875 l 33.095,-33.095 c 0.5525,-0.5475 1.3225,-0.86125 2.1,-0.86125 0.77875,0 1.55125,0.31375 2.1025,0.86125 l 33.08625,33.095 c 0.55125,0.55625 0.86625,1.315 0.86625,2.09875 0,0.78625 -0.315,1.54625 -0.86875,2.1025" />
    <path
       inkscape:connector-curvature="0"
       id="path3885"
       style="fill:#fccf34;fill-opacity:1;fill-rule:evenodd;stroke:none"
       d="m 331.19105,513.32531 c 0.2525,-0.24875 0.39875,-0.6075 0.39875,-0.96 0,-0.34625 -0.14625,-0.715 -0.39875,-0.96125 L 298.1048,478.31781 c -0.2475,-0.25 -0.6075,-0.39625 -0.9575,-0.39625 -0.34875,0 -0.71625,0.14625 -0.965,0.39625 l -33.09,33.08625 c -0.25,0.25125 -0.3875,0.6075 -0.3875,0.96125 0.002,0.35375 0.13875,0.70625 0.38875,0.96 l 33.08875,33.09125 c 0.25,0.24625 0.6175,0.3925 0.965,0.3925 0.35125,0 0.71125,-0.14625 0.95875,-0.3925 l 33.085,-33.09125 z" />
    <path
       inkscape:connector-curvature="0"
       id="path3889"
       style="fill:#231f20;fill-opacity:1;fill-rule:evenodd;stroke:none"
       d="m 307.2398,496.02156 -1.28625,0 -0.80375,4.89 -0.86875,-4.89 -1.03125,0 -0.89875,4.89 -0.7725,-4.89 -1.2875,0 1.4475,9.1725 1.1575,0 0.87125,-4.7975 0.8675,4.7975 1.125,0 1.48,-9.1725 z m -9.66375,4.57 c 0,1.0625 -0.0625,1.60875 -0.29,2.34875 -0.225,0.77125 -0.57875,1.12625 -1.125,1.12625 -0.57875,0 -0.93375,-0.355 -1.15875,-1.12625 -0.19375,-0.74 -0.29,-1.32 -0.29,-2.31625 0,-1.03125 0.065,-1.64125 0.29,-2.34875 0.225,-0.77125 0.58,-1.12625 1.15875,-1.12625 0.54625,0 0.9,0.355 1.125,1.1575 0.19375,0.67625 0.29,1.255 0.29,2.285 m 1.255,0 c 0,-1.38375 -0.12875,-2.2525 -0.515,-3.15375 -0.44875,-1.12625 -1.09375,-1.5775 -2.155,-1.5775 -1.06125,0 -1.705,0.45125 -2.1875,1.545 -0.3875,0.87 -0.51625,1.8025 -0.51625,3.18625 0,1.41625 0.12875,2.2825 0.51625,3.18625 0.45,1.09125 1.09375,1.58 2.1875,1.58 1.03,0 1.70625,-0.48875 2.155,-1.58 0.38625,-0.86875 0.515,-1.77 0.515,-3.18625 m -6.79875,4.6025 0,-1.22375 -3.3475,0 0,-7.94875 -1.32,0 0,9.1725 4.6675,0 z" />
    <path
       inkscape:connector-curvature="0"
       id="path3893"
       style="fill:#231f20;fill-opacity:1;fill-rule:evenodd;stroke:none"
       d="m 319.67855,512.99281 c 0,0.7425 -0.41625,1.16 -1.18875,1.16 l -1.35125,0 0,-2.3175 1.35125,0 c 0.7075,0 1.18875,0.45 1.18875,1.1575 m 1.28875,6.72625 -1.3175,-4.50375 c 0.86875,-0.3225 1.3175,-1.12625 1.3175,-2.2225 0,-1.47875 -0.96375,-2.44375 -2.4125,-2.44375 l -2.73625,0 0,9.17 1.32,0 0,-4.31125 1.25625,0 1.22125,4.31125 1.35125,0 z m -6.3125,0 0,-1.28625 -3.345,0 0,-3.025 1.8975,0 0,-1.255 -1.8975,0 0,-2.3175 2.99,0 0,-1.28625 -4.31125,0 0,9.17 4.66625,0 z m -7.37375,-4.53625 c 0,0.70625 -0.0662,1.35 -0.1275,1.92875 -0.13125,0.70875 -0.54875,1.32125 -1.32,1.32125 l -1.09375,0 0,-6.5975 1.09375,0 c 0.57875,0 0.965,0.29125 1.18875,0.93375 0.16375,0.385 0.25875,1.38375 0.25875,2.41375 m 1.2875,-0.0662 c 0,-0.7075 -0.0975,-1.51125 -0.225,-2.1875 -0.16125,-0.9325 -0.5475,-1.64 -1.09375,-2.02625 -0.3225,-0.25875 -0.70875,-0.35375 -1.48,-0.35375 l -2.34875,0 0,9.17 2.54125,0 c 0.515,0 0.965,-0.12875 1.2875,-0.4175 0.9,-0.7075 1.31875,-2.06 1.31875,-4.185 m -6.0225,4.6025 0,-1.2225 -3.34625,0 0,-7.9475 -1.3175,0 0,9.17 4.66375,0 z m -6.24875,-2.73375 0,-6.43625 -1.31875,0 0,6.595 c 0,0.86875 -0.51375,1.45 -1.22125,1.45 -0.7725,0 -1.28875,-0.58125 -1.28875,-1.45 l 0,-6.595 -1.31875,0 0,6.43625 c 0,0.73875 0.0962,1.125 0.35375,1.60875 0.45,0.77125 1.35125,1.29125 2.25375,1.29125 0.8675,0 1.73625,-0.5525 2.18625,-1.29125 0.25875,-0.48375 0.35375,-0.87 0.35375,-1.60875 m -7.855,-1.86875 c 0,1.0625 -0.065,1.6125 -0.29,2.34875 -0.225,0.77375 -0.58,1.12875 -1.12625,1.12875 -0.58,0 -0.93375,-0.355 -1.15875,-1.12875 -0.1925,-0.73625 -0.28875,-1.3175 -0.28875,-2.31375 0,-1.03 0.065,-1.64375 0.28875,-2.35125 0.225,-0.77125 0.57875,-1.125 1.15875,-1.125 0.54625,0 0.90125,0.35375 1.12625,1.15875 0.19375,0.67375 0.29,1.255 0.29,2.2825 m 1.25375,0 c 0,-1.38125 -0.1275,-2.25 -0.515,-3.15125 -0.45,-1.1275 -1.0925,-1.5775 -2.155,-1.5775 -1.0625,0 -1.705,0.45 -2.18875,1.54375 -0.38625,0.86875 -0.515,1.80375 -0.515,3.185 0,1.41625 0.12875,2.28625 0.515,3.18625 0.45125,1.09375 1.095,1.5825 2.18875,1.5825 1.03,0 1.705,-0.48875 2.155,-1.5825 0.3875,-0.86625 0.515,-1.77 0.515,-3.18625 m -6.795,4.6025 0,-9.17 -1.31875,0 0,3.7325 -2.51,0 0,-3.7325 -1.31875,0 0,9.17 1.31875,0 0,-4.15 2.51,0 0,4.15 1.31875,0 z m -6.31125,-2.51 c 0,-1.32 -0.77375,-2.31625 -2.5425,-3.34625 -0.67625,-0.38625 -0.8675,-0.6425 -0.8675,-1.09375 0,-0.61125 0.48125,-1.0625 1.09375,-1.0625 0.57875,0 1.0275,0.42 1.06125,1.0625 l 1.255,0 c -0.0325,-1.385 -1.03,-2.38125 -2.31625,-2.38125 -1.31875,0 -2.35,1.0625 -2.35,2.38125 0,0.805 0.38625,1.5125 1.12625,2.02875 1.86625,1.25375 1.35125,0.9 1.54375,1.09125 0.5475,0.42 0.74125,0.805 0.74125,1.32 0,0.74 -0.57875,1.385 -1.2875,1.385 -0.90125,0 -1.28625,-0.80375 -1.28625,-1.5775 l -1.2875,0 c 0,1.51125 0.965,2.86875 2.57375,2.86875 1.415,0 2.5425,-1.19625 2.5425,-2.67625" />
  </g>
</svg>
