<?xml version="1.0" encoding="UTF-8" standalone="no"?>
<!-- Created with Inkscape (http://www.inkscape.org/) -->

<svg
   xmlns:dc="http://purl.org/dc/elements/1.1/"
   xmlns:cc="http://creativecommons.org/ns#"
   xmlns:rdf="http://www.w3.org/1999/02/22-rdf-syntax-ns#"
   xmlns:svg="http://www.w3.org/2000/svg"
   xmlns="http://www.w3.org/2000/svg"
   xmlns:sodipodi="http://sodipodi.sourceforge.net/DTD/sodipodi-0.dtd"
   xmlns:inkscape="http://www.inkscape.org/namespaces/inkscape"
   width="72.624626"
   height="72.625"
   id="svg4529"
   version="1.1"
   inkscape:version="0.48.3.1 r9886"
   sodipodi:docname="EM-1.svg">
  <defs
     id="defs4531">
    <clipPath
       clipPathUnits="userSpaceOnUse"
       id="clipPath4147">
      <path
         inkscape:connector-curvature="0"
         d="m 67.766,77.839 503.592,0 0,373.159 -503.592,0 0,-373.159 z"
         id="path4149" />
    </clipPath>
    <clipPath
       clipPathUnits="userSpaceOnUse"
       id="clipPath4135">
      <path
         inkscape:connector-curvature="0"
         d="m 63,45 513,0 0,450 -513,0 0,-450 z"
         id="path4137" />
    </clipPath>
    <clipPath
       clipPathUnits="userSpaceOnUse"
       id="clipPath4147-4">
      <path
         inkscape:connector-curvature="0"
         d="m 67.766,77.839 503.592,0 0,373.159 -503.592,0 0,-373.159 z"
         id="path4149-0" />
    </clipPath>
    <clipPath
       clipPathUnits="userSpaceOnUse"
       id="clipPath4135-9">
      <path
         inkscape:connector-curvature="0"
         d="m 63,45 513,0 0,450 -513,0 0,-450 z"
         id="path4137-4" />
    </clipPath>
  </defs>
  <sodipodi:namedview
     id="base"
     pagecolor="#ffffff"
     bordercolor="#666666"
     borderopacity="1.0"
     inkscape:pageopacity="0.0"
     inkscape:pageshadow="2"
     inkscape:zoom="2.8"
     inkscape:cx="32.471197"
     inkscape:cy="40.240213"
     inkscape:document-units="px"
     inkscape:current-layer="layer1"
     showgrid="false"
     fit-margin-top="0"
     fit-margin-left="0"
     fit-margin-right="0"
     fit-margin-bottom="0"
     inkscape:window-width="1366"
     inkscape:window-height="706"
     inkscape:window-x="-8"
     inkscape:window-y="-8"
     inkscape:window-maximized="1" />
  <metadata
     id="metadata4534">
    <rdf:RDF>
      <cc:Work
         rdf:about="">
        <dc:format>image/svg+xml</dc:format>
        <dc:type
           rdf:resource="http://purl.org/dc/dcmitype/StillImage" />
        <dc:title />
      </cc:Work>
    </rdf:RDF>
  </metadata>
  <g
     inkscape:label="Layer 1"
     inkscape:groupmode="layer"
     id="layer1"
     transform="translate(-291.18892,-516.83111)">
    <g
       transform="matrix(1.25,0,0,-1.25,206.48142,956.69124)"
       id="g4131">
      <g
         id="g4133"
         clip-path="url(#clipPath4135-9)">
        <g
           id="g4139"
           transform="translate(125.6157,297.6381)">
          <path
             inkscape:connector-curvature="0"
             d="m 0,0 c 0,-1.988 -1.611,-3.6 -3.6,-3.6 l -50.399,0 c -1.989,0 -3.601,1.612 -3.601,3.6 l 0,50.4 c 0,1.988 1.612,3.6 3.601,3.6 L -3.6,54 C -1.611,54 0,52.388 0,50.4 L 0,0 z"
             style="fill:#ffffff;fill-opacity:1;fill-rule:nonzero;stroke:none"
             id="path4141" />
        </g>
      </g>
    </g>
    <g
       transform="matrix(1.25,0,0,-1.25,206.48142,956.69124)"
       id="g4143">
      <g
         id="g4145"
         clip-path="url(#clipPath4147-4)">
        <g
           id="g4151"
           transform="translate(125.6157,297.6381)">
          <path
             inkscape:connector-curvature="0"
             d="m 0,0 c 0,-1.988 -1.611,-3.6 -3.6,-3.6 l -50.399,0 c -1.989,0 -3.601,1.612 -3.601,3.6 l 0,50.4 c 0,1.988 1.612,3.6 3.601,3.6 L -3.6,54 C -1.611,54 0,52.388 0,50.4 L 0,0 z"
             style="fill:none;stroke:#231f20;stroke-width:0.5;stroke-linecap:butt;stroke-linejoin:miter;stroke-miterlimit:2.61299992;stroke-opacity:1;stroke-dasharray:none"
             id="path4153" />
        </g>
      </g>
    </g>
    <g
       id="g4167"
       transform="matrix(1.25,0,0,-1.25,327.5013,523.14362)">
      <path
         d="m 0,0 c 13.22,0 24,-10.781 24,-24 0,-13.22 -10.78,-24 -24,-24 -13.219,0 -24,10.78 -24,24 0,13.219 10.781,24 24,24"
         style="fill:#155196;fill-opacity:1;fill-rule:evenodd;stroke:none"
         id="path4169"
         inkscape:connector-curvature="0" />
    </g>
    <g
       id="g4171"
       transform="matrix(1.25,0,0,-1.25,348.74392,568.79862)">
      <path
         d="m 0,0 0,4.318 -0.682,0 0,-2.758 -1.575,2.758 -0.682,0 0,-4.318 0.682,0 0,2.924 L -0.606,0 0,0 z m -4.559,2.152 c 0,-0.334 -0.077,-0.758 -0.167,-0.985 -0.152,-0.379 -0.348,-0.546 -0.667,-0.546 -0.273,0 -0.455,0.107 -0.591,0.334 -0.167,0.272 -0.257,0.742 -0.257,1.197 0,0.363 0.059,0.757 0.166,1.014 0.152,0.379 0.363,0.545 0.697,0.531 0.257,-0.016 0.425,-0.106 0.561,-0.334 0.166,-0.287 0.258,-0.727 0.258,-1.211 m 0.68,0 c 0,0.545 -0.105,1.091 -0.287,1.469 -0.272,0.53 -0.651,0.773 -1.197,0.773 -0.5,0 -0.848,-0.152 -1.106,-0.484 -0.287,-0.411 -0.469,-1.046 -0.469,-1.758 0,-0.516 0.121,-1.092 0.302,-1.454 0.258,-0.532 0.637,-0.776 1.243,-0.776 0.455,0 0.803,0.154 1.044,0.487 0.304,0.379 0.47,1.061 0.47,1.743 m -3.983,2.166 -0.697,0 0,-4.318 0.697,0 0,4.318 z m -1.334,-0.607 0,0.607 -2.666,0 0,-0.607 0.985,0 0,-3.711 0.682,0 0,3.711 0.999,0 z m -4.333,-1.802 -0.863,0 0.439,1.212 0.424,-1.212 z M -12.135,0 l -1.484,4.318 -0.682,0 -1.484,-4.318 0.726,0 0.424,1.212 1.349,0 0.424,-1.212 0.727,0 z m -4.287,1.545 0,2.773 -0.682,0 0,-2.773 c 0,-0.56 -0.317,-0.924 -0.788,-0.924 -0.468,0 -0.787,0.364 -0.787,0.924 l 0,2.773 -0.682,0 0,-2.773 c 0,-0.333 0.076,-0.636 0.197,-0.893 0.228,-0.424 0.742,-0.73 1.272,-0.73 0.531,0 1.045,0.306 1.273,0.73 0.121,0.257 0.197,0.56 0.197,0.893 M -20.3,0.878 -20.952,1.121 c -0.167,-0.348 -0.378,-0.5 -0.667,-0.5 -0.302,0 -0.499,0.107 -0.65,0.334 -0.167,0.272 -0.273,0.742 -0.273,1.211 0,0.364 0.061,0.743 0.166,1 0.151,0.379 0.379,0.531 0.728,0.531 0.333,0 0.469,-0.091 0.712,-0.454 l 0.636,0.272 c -0.288,0.606 -0.697,0.879 -1.348,0.879 -0.486,0 -0.849,-0.167 -1.107,-0.484 -0.303,-0.38 -0.484,-1.062 -0.484,-1.744 0,-0.545 0.121,-1.09 0.318,-1.468 0.273,-0.532 0.682,-0.776 1.317,-0.776 0.622,0 1.046,0.321 1.304,0.956 m -4.893,1.031 -0.864,0 0.439,1.212 0.425,-1.212 z M -23.8,0 l -1.484,4.318 -0.683,0 -1.484,-4.318 0.727,0 0.425,1.212 1.348,0 L -24.526,0 -23.8,0 z m -3.908,4.318 -0.728,0 -0.908,-2.878 -0.924,2.878 -0.712,0 1.363,-4.318 0.53,0 1.379,4.318 z M -31.314,0 l 0,0.698 -2,0 0,1.18 1.257,0 0,0.698 -1.257,0 0,1.06 1.864,0 0,0.682 -2.545,0 0,-4.318 2.681,0 z"
         style="fill:#ffffff;fill-opacity:1;fill-rule:evenodd;stroke:none"
         id="path4173"
         inkscape:connector-curvature="0" />
    </g>
    <g
       id="g4175"
       transform="matrix(1.25,0,0,-1.25,338.17517,577.76236)">
      <path
         d="m 0,0 0,0.697 -1.999,0 0,1.181 1.257,0 0,0.697 -1.257,0 0,1.061 1.863,0 0,0.681 -2.545,0 L -2.681,0 0,0 z m -3.316,3.711 0,0.606 -2.668,0 0,-0.606 0.985,0 0,-3.711 0.682,0 0,3.711 1.001,0 z m -3.304,-2.166 0,2.772 -0.681,0 0,-2.772 c 0,-0.561 -0.318,-0.924 -0.788,-0.924 -0.47,0 -0.789,0.363 -0.789,0.924 l 0,2.772 -0.681,0 0,-2.772 c 0,-0.333 0.077,-0.636 0.197,-0.893 0.227,-0.425 0.743,-0.731 1.273,-0.731 0.529,0 1.044,0.306 1.273,0.731 0.12,0.257 0.196,0.56 0.196,0.893 m -4.56,0.607 c 0,-0.334 -0.076,-0.758 -0.167,-0.985 -0.151,-0.379 -0.348,-0.546 -0.667,-0.546 -0.272,0 -0.454,0.106 -0.589,0.333 -0.167,0.273 -0.258,0.743 -0.258,1.198 0,0.362 0.06,0.757 0.167,1.015 0.151,0.378 0.363,0.544 0.696,0.53 0.258,-0.016 0.424,-0.107 0.56,-0.334 0.167,-0.287 0.258,-0.727 0.258,-1.211 m 0.682,0 c 0,0.545 -0.106,1.09 -0.288,1.469 -0.273,0.53 -0.652,0.772 -1.196,0.772 -0.501,0 -0.85,-0.151 -1.106,-0.484 -0.289,-0.409 -0.471,-1.046 -0.471,-1.757 0,-0.516 0.122,-1.092 0.303,-1.455 0.258,-0.53 0.637,-0.776 1.242,-0.776 0.455,0 0.804,0.155 1.046,0.488 0.304,0.379 0.47,1.06 0.47,1.743 m -4.454,0.953 c 0,-0.182 -0.107,-0.363 -0.273,-0.454 -0.106,-0.061 -0.182,-0.076 -0.393,-0.076 l -0.819,0 0,1.061 0.819,0 c 0.226,0 0.287,-0.015 0.393,-0.076 0.166,-0.091 0.273,-0.272 0.273,-0.455 M -14.18,0 -14.937,2.015 c 0.394,0.182 0.667,0.636 0.667,1.09 0,0.44 -0.273,0.894 -0.652,1.076 -0.212,0.107 -0.439,0.136 -0.772,0.136 l -1.424,0 0,-4.317 0.681,0 0,1.878 0.819,0 0.696,-1.878 0.742,0 z"
         style="fill:#ffffff;fill-opacity:1;fill-rule:evenodd;stroke:none"
         id="path4177"
         inkscape:connector-curvature="0" />
    </g>
    <g
       id="g4179"
       transform="matrix(1.25,0,0,-1.25,319.73392,537.62612)">
      <path
         d="M 0,0 6.215,9.188 12.441,0 c 0.275,-0.405 0.169,-0.96 -0.235,-1.235 -0.27,-0.184 -0.552,-0.151 -0.884,-0.067 l -2.698,0.812 -0.011,-9.522 -4.816,0 L 3.81,-0.49 1.156,-1.283 C 0.789,-1.385 0.518,-1.428 0.234,-1.235 -0.17,-0.96 -0.275,-0.405 0,0"
         style="fill:#ffffff;fill-opacity:1;fill-rule:evenodd;stroke:none"
         id="path4181"
         inkscape:connector-curvature="0" />
    </g>
    <g
       id="g4183"
       transform="matrix(1.25,0,0,-1.25,347.00329,559.83361)">
      <path
         d="m 0,0 0,0.698 -2,0 0,1.181 1.258,0 0,0.696 -1.258,0 0,1.062 1.864,0 0,0.681 -2.546,0 L -2.682,0 0,0 z m -3.696,0 0,4.318 -0.682,0 0,-2.757 -1.575,2.757 -0.682,0 0,-4.318 0.682,0 0,2.924 1.65,-2.924 0.607,0 z m -4.985,1.909 -0.863,0 0.439,1.212 0.424,-1.212 z M -7.287,0 l -1.484,4.318 -0.682,0 -1.485,-4.318 0.727,0 0.425,1.212 1.348,0 L -8.014,0 -7.287,0 z m -4.212,0.878 -0.65,0.243 c -0.167,-0.348 -0.379,-0.5 -0.667,-0.5 -0.303,0 -0.5,0.106 -0.652,0.333 -0.166,0.273 -0.272,0.743 -0.272,1.212 0,0.365 0.06,0.742 0.167,1 0.15,0.379 0.379,0.531 0.726,0.531 0.333,0 0.47,-0.091 0.712,-0.455 l 0.636,0.273 c -0.287,0.605 -0.696,0.879 -1.348,0.879 -0.485,0 -0.848,-0.167 -1.105,-0.485 -0.304,-0.379 -0.486,-1.06 -0.486,-1.743 0,-0.546 0.122,-1.091 0.319,-1.468 0.273,-0.532 0.682,-0.776 1.318,-0.776 0.621,0 1.045,0.32 1.302,0.956 m -3.862,3.44 -0.696,0 0,-4.318 0.696,0 0,4.318 z m -2.182,-1.212 c 0,-0.182 -0.106,-0.365 -0.272,-0.454 -0.107,-0.061 -0.182,-0.077 -0.394,-0.077 l -0.818,0 0,1.062 0.818,0 c 0.226,0 0.287,-0.017 0.394,-0.076 0.166,-0.091 0.272,-0.273 0.272,-0.455 M -16.771,0 -17.527,2.015 c 0.393,0.182 0.666,0.637 0.666,1.091 0,0.439 -0.273,0.893 -0.652,1.076 -0.212,0.105 -0.439,0.136 -0.772,0.136 l -1.424,0 0,-4.318 0.682,0 0,1.879 0.818,0 0.696,-1.879 0.742,0 z m -4.423,3.106 c 0,-0.182 -0.106,-0.365 -0.273,-0.454 -0.105,-0.061 -0.18,-0.077 -0.393,-0.077 l -0.819,0 0,1.062 0.819,0 c 0.227,0 0.288,-0.017 0.393,-0.076 0.167,-0.091 0.273,-0.273 0.273,-0.455 M -20.421,0 -21.179,2.015 c 0.395,0.182 0.667,0.637 0.667,1.091 0,0.439 -0.272,0.893 -0.651,1.076 -0.212,0.105 -0.44,0.136 -0.774,0.136 l -1.423,0 0,-4.318 0.681,0 0,1.879 0.819,0 0.697,-1.879 0.742,0 z m -3.954,1.545 0,2.773 -0.683,0 0,-2.773 c 0,-0.56 -0.317,-0.924 -0.787,-0.924 -0.469,0 -0.788,0.364 -0.788,0.924 l 0,2.773 -0.682,0 0,-2.773 c 0,-0.333 0.077,-0.636 0.198,-0.893 0.227,-0.424 0.742,-0.73 1.272,-0.73 0.53,0 1.046,0.306 1.273,0.73 0.121,0.257 0.197,0.56 0.197,0.893 M -28.329,0 l 0,4.318 -0.682,0 0,-1.743 -1.575,0 0,1.743 -0.683,0 0,-4.318 0.683,0 0,1.879 1.575,0 0,-1.879 0.682,0 z"
         style="fill:#ffffff;fill-opacity:1;fill-rule:evenodd;stroke:none"
         id="path4185"
         inkscape:connector-curvature="0" />
    </g>
  </g>
</svg>
