<?xml version="1.0" encoding="UTF-8" standalone="no"?>
<!-- Created with Inkscape (http://www.inkscape.org/) -->

<svg
   xmlns:dc="http://purl.org/dc/elements/1.1/"
   xmlns:cc="http://creativecommons.org/ns#"
   xmlns:rdf="http://www.w3.org/1999/02/22-rdf-syntax-ns#"
   xmlns:svg="http://www.w3.org/2000/svg"
   xmlns="http://www.w3.org/2000/svg"
   xmlns:sodipodi="http://sodipodi.sourceforge.net/DTD/sodipodi-0.dtd"
   xmlns:inkscape="http://www.inkscape.org/namespaces/inkscape"
   width="72.617188"
   height="90.625"
   id="svg5190"
   version="1.1"
   inkscape:version="0.48.3.1 r9886"
   sodipodi:docname="New document 16">
  <defs
     id="defs5192">
    <clipPath
       clipPathUnits="userSpaceOnUse"
       id="clipPath4027">
      <path
         inkscape:connector-curvature="0"
         d="m 63,45 513,0 0,450 -513,0 0,-450 z"
         id="path4029" />
    </clipPath>
  </defs>
  <sodipodi:namedview
     id="base"
     pagecolor="#ffffff"
     bordercolor="#666666"
     borderopacity="1.0"
     inkscape:pageopacity="0.0"
     inkscape:pageshadow="2"
     inkscape:zoom="0.35"
     inkscape:cx="36.314375"
     inkscape:cy="45.313122"
     inkscape:document-units="px"
     inkscape:current-layer="layer1"
     showgrid="false"
     fit-margin-top="0"
     fit-margin-left="0"
     fit-margin-right="0"
     fit-margin-bottom="0"
     inkscape:window-width="451"
     inkscape:window-height="398"
     inkscape:window-x="125"
     inkscape:window-y="125"
     inkscape:window-maximized="0" />
  <metadata
     id="metadata5195">
    <rdf:RDF>
      <cc:Work
         rdf:about="">
        <dc:format>image/svg+xml</dc:format>
        <dc:type
           rdf:resource="http://purl.org/dc/dcmitype/StillImage" />
        <dc:title></dc:title>
      </cc:Work>
    </rdf:RDF>
  </metadata>
  <g
     inkscape:label="Layer 1"
     inkscape:groupmode="layer"
     id="layer1"
     transform="translate(-338.68563,-487.0503)">
    <g
       transform="matrix(1.25,0,0,-1.25,-198.5895,944.91043)"
       id="g4023">
      <g
         id="g4025"
         clip-path="url(#clipPath4027)">
        <g
           id="g4031"
           transform="translate(436.0701,294.0381)">
          <path
             inkscape:connector-curvature="0"
             d="m 0,0 0,0 45.599,0 c 3.313,0 6.002,2.682 6.002,5.998 l 0,60.001 c 0,3.313 -2.689,6.002 -6.002,6.002 l -45.515,0 -0.084,0 c -3.317,0 -5.998,-2.689 -5.998,-6.002 l 0,-60.001 C -5.998,2.688 -3.311,0 0,0 z"
             style="fill:none;stroke:#231f20;stroke-width:0.5;stroke-linecap:butt;stroke-linejoin:miter;stroke-miterlimit:2.61299992;stroke-opacity:1;stroke-dasharray:none"
             id="path4033" />
        </g>
        <g
           id="g4035"
           transform="translate(436.0911,295.2881)">
          <path
             inkscape:connector-curvature="0"
             d="m 0,0 0,0 45.557,0 c 2.65,0 4.799,2.145 4.799,4.795 l 0,60.011 c 0,2.65 -2.149,4.797 -4.799,4.797 L 0,69.603 c -2.65,0 -4.795,-2.147 -4.795,-4.797 l 0,-60.011 C -4.795,2.148 -2.646,0 0,0"
             style="fill:#231f20;fill-opacity:1;fill-rule:evenodd;stroke:none"
             id="path4037" />
        </g>
        <g
           id="g4039"
           transform="translate(436.0911,295.2881)">
          <path
             inkscape:connector-curvature="0"
             d="m 0,0 0,0 45.557,0 c 2.65,0 4.799,2.145 4.799,4.795 l 0,60.011 c 0,2.65 -2.149,4.797 -4.799,4.797 L 0,69.603 c -2.65,0 -4.795,-2.147 -4.795,-4.797 l 0,-60.011 C -4.795,2.148 -2.646,0 0,0 z"
             style="fill:none;stroke:#231f20;stroke-width:0.21600001;stroke-linecap:butt;stroke-linejoin:miter;stroke-miterlimit:2.61299992;stroke-opacity:1;stroke-dasharray:none"
             id="path4041" />
        </g>
        <g
           id="g4043"
           transform="translate(436.0931,297.0811)">
          <path
             inkscape:connector-curvature="0"
             d="m 0,0 0,0 45.553,0 c 1.656,0 2.996,1.34 2.996,2.994 l 0,60.015 c 0,1.656 -1.34,2.996 -2.996,2.996 L 0,66.005 c -1.652,0 -2.992,-1.34 -2.992,-2.996 l 0,-60.015 C -2.992,1.338 -1.654,0 0,0"
             style="fill:#ffffff;fill-opacity:1;fill-rule:evenodd;stroke:none"
             id="path4045" />
        </g>
        <g
           id="g4047"
           transform="translate(436.0931,297.0811)">
          <path
             inkscape:connector-curvature="0"
             d="m 0,0 0,0 45.553,0 c 1.656,0 2.996,1.34 2.996,2.994 l 0,60.015 c 0,1.656 -1.34,2.996 -2.996,2.996 L 0,66.005 c -1.652,0 -2.992,-1.34 -2.992,-2.996 l 0,-60.015 C -2.992,1.338 -1.654,0 0,0 z"
             style="fill:none;stroke:#231f20;stroke-width:0.21600001;stroke-linecap:butt;stroke-linejoin:miter;stroke-miterlimit:2.61299992;stroke-opacity:1;stroke-dasharray:none"
             id="path4049" />
        </g>
        <g
           id="g4051"
           transform="translate(482.3331,349.1921)">
          <path
             inkscape:connector-curvature="0"
             d="m 0,0 0,9.586 -1.38,0 0,-5.752 -2.624,5.752 -1.378,0 0,-9.586 1.378,0 0,6.424 L -1.045,0 0,0 z m -7.468,9.586 -1.346,0 0,-9.586 1.346,0 0,9.586 z m -5.045,-5.617 -1.379,0 0.672,2.758 0.707,-2.758 z M -10.125,0 l -2.388,9.586 -1.346,0 -2.389,-9.586 1.379,0 0.639,2.623 2.053,0 0.672,-2.623 1.38,0 z m -6.695,8.307 0,1.279 -4.877,0 0,-1.279 1.75,0 0,-8.307 1.379,0 0,8.307 1.748,0 z M -23.007,0 l 0,9.586 -1.379,0 0,-5.752 -2.625,5.752 -1.379,0 0,-9.586 1.379,0 0,6.424 2.961,-6.424 1.043,0 z m -7.469,9.586 -1.344,0 0,-9.586 1.344,0 0,9.586 z m -5.045,-5.617 -1.379,0 0.674,2.758 0.705,-2.758 z M -33.132,0 l -2.389,9.586 -1.346,0 -2.388,-9.586 1.38,0 0.639,2.623 2.051,0 0.674,-2.623 1.379,0 z m -7.469,0 0,9.586 -1.379,0 -1.781,-5.382 -1.784,5.382 -1.378,0 0,-9.586 1.378,0 0,5.382 1.784,-5.382 1.781,5.382 0,-5.382 1.379,0 z"
             style="fill:#231f20;fill-opacity:1;fill-rule:evenodd;stroke:none"
             id="path4053" />
        </g>
        <g
           id="g4055"
           transform="translate(473.2881,339.6561)">
          <path
             inkscape:connector-curvature="0"
             d="m 0,0 c 0,-0.883 -0.712,-1.472 -1.765,-1.472 l -3.49,0 0,2.985 3.49,0 C -0.712,1.513 0,0.925 0,0 m 2.145,0 c 0,1.345 -0.715,2.523 -1.85,3.153 -0.671,0.378 -1.218,0.505 -2.144,0.505 l -5.592,0 0,-11.983 2.186,0 0,4.709 3.406,0 c 0.926,0 1.473,0.084 2.144,0.462 1.135,0.631 1.85,1.892 1.85,3.154 m -14.463,-2.313 c 0,-1.849 -0.547,-4.078 -2.816,-4.078 -1.809,0 -2.903,1.514 -2.903,4.078 0,2.523 1.094,4.036 2.903,4.036 1.806,0 2.816,-1.513 2.816,-4.036 m 2.145,0.043 c 0,3.657 -2.02,6.138 -4.961,6.138 -3.155,0 -5.088,-2.355 -5.088,-6.181 0,-3.027 1.554,-6.23 5.088,-6.23 3.027,0 4.961,2.53 4.961,6.273 m -11.69,3.825 0,2.103 -8.998,0 0,-2.103 3.449,0 0,-9.88 2.102,0 0,9.88 3.447,0 z"
             style="fill:#231f20;fill-opacity:1;fill-rule:evenodd;stroke:none"
             id="path4057" />
        </g>
        <g
           id="g4059"
           transform="translate(476.9191,315.7911)">
          <path
             inkscape:connector-curvature="0"
             d="m 0,0 0,1.716 -5.416,0 0,2.623 2.86,0 0,1.749 -2.86,0 0,1.783 5.246,0 0,1.715 -6.994,0 L -7.164,0 0,0 z m -8.779,7.871 0,1.715 -7.166,0 0,-9.586 1.75,0 0,4.171 2.994,0 0,1.75 -2.994,0 0,1.95 5.416,0 z m -12.311,-3.902 -2.691,0 1.344,3.23 1.347,-3.23 z M -17.558,0 l -4.004,9.586 -1.748,0 -4.037,-9.586 1.884,0 0.942,2.253 4.17,0 0.943,-2.253 1.85,0 z M -28.39,2.792 c 0,1.043 -0.537,1.951 -1.379,2.388 -0.537,0.269 -1.379,0.539 -2.656,0.808 -1.178,0.269 -1.514,0.505 -1.514,1.042 0,0.606 0.572,0.975 1.547,0.975 0.908,0 1.681,-0.301 2.287,-0.941 l 1.277,1.144 c -0.974,1.008 -2.152,1.48 -3.564,1.48 -1.951,0 -3.297,-1.077 -3.297,-2.658 0,-0.605 0.203,-1.177 0.605,-1.614 0.405,-0.472 0.909,-0.706 1.885,-0.942 l 0.471,-0.135 0.437,-0.101 0.436,-0.135 c 0.437,-0.1 0.808,-0.234 1.144,-0.37 0.405,-0.201 0.606,-0.503 0.606,-0.873 0,-0.706 -0.875,-1.245 -2.086,-1.245 -1.076,0 -1.85,0.37 -2.557,1.211 l -1.379,-1.077 c 1.077,-1.244 2.323,-1.855 3.971,-1.855 0.873,0 1.748,0.241 2.422,0.644 0.906,0.539 1.344,1.278 1.344,2.254"
             style="fill:#231f20;fill-opacity:1;fill-rule:evenodd;stroke:none"
             id="path4061" />
        </g>
        <g
           id="g4063"
           transform="translate(479.5541,306.2151)">
          <path
             inkscape:connector-curvature="0"
             d="m 0,0 c 0,-1.313 -0.471,-2.188 -1.478,-2.725 -0.405,-0.236 -0.875,-0.37 -1.381,-0.37 l -1.346,0 0,6.156 1.346,0 c 0.506,0 1.009,-0.136 1.447,-0.37 C -0.471,2.152 0,1.278 0,0 m 1.717,0 c 0,1.883 -0.809,3.329 -2.289,4.17 -0.705,0.404 -1.479,0.605 -2.287,0.605 l -3.094,0 0,-9.586 3.094,0 c 0.775,0 1.582,0.201 2.256,0.572 1.511,0.84 2.32,2.322 2.32,4.239 m -9.586,-4.811 0,1.716 -5.416,0 0,2.623 2.859,0 0,1.75 -2.859,0 0,1.783 5.246,0 0,1.714 -6.996,0 0,-9.586 7.166,0 z m -9.082,0 0,1.716 -5.416,0 0,2.623 2.857,0 0,1.75 -2.857,0 0,1.783 5.248,0 0,1.714 -6.998,0 0,-9.586 7.166,0 z M -27.412,1.85 c 0,-0.706 -0.572,-1.178 -1.414,-1.178 l -2.791,0 0,2.389 2.791,0 c 0.842,0 1.414,-0.472 1.414,-1.211 m 1.715,0 c 0,1.075 -0.572,2.017 -1.481,2.522 -0.539,0.303 -0.974,0.403 -1.714,0.403 l -4.475,0 0,-9.586 1.75,0 0,3.767 2.725,0 c 0.74,0 1.175,0.067 1.714,0.37 0.909,0.505 1.481,1.515 1.481,2.524 m -9.586,-3.869 c 0,1.042 -0.539,1.952 -1.379,2.387 -0.539,0.271 -1.379,0.54 -2.658,0.809 -1.178,0.268 -1.514,0.504 -1.514,1.042 0,0.606 0.572,0.976 1.547,0.976 0.908,0 1.682,-0.303 2.287,-0.942 l 1.279,1.144 c -0.976,1.009 -2.152,1.479 -3.566,1.479 -1.949,0 -3.297,-1.076 -3.297,-2.657 0,-0.605 0.203,-1.177 0.606,-1.614 0.404,-0.471 0.908,-0.707 1.884,-0.943 l 0.471,-0.134 0.438,-0.1 0.437,-0.134 c 0.438,-0.102 0.807,-0.236 1.143,-0.371 0.404,-0.201 0.605,-0.504 0.605,-0.875 0,-0.706 -0.873,-1.244 -2.084,-1.244 -1.078,0 -1.851,0.369 -2.557,1.21 l -1.378,-1.075 c 1.076,-1.245 2.32,-1.856 3.968,-1.856 0.873,0 1.748,0.241 2.422,0.645 0.908,0.537 1.346,1.278 1.346,2.253"
             style="fill:#231f20;fill-opacity:1;fill-rule:evenodd;stroke:none"
             id="path4065" />
        </g>
      </g>
    </g>
  </g>
</svg>
