<?xml version="1.0" encoding="UTF-8" standalone="no"?>
<!-- Created with Inkscape (http://www.inkscape.org/) -->

<svg
   xmlns:dc="http://purl.org/dc/elements/1.1/"
   xmlns:cc="http://creativecommons.org/ns#"
   xmlns:rdf="http://www.w3.org/1999/02/22-rdf-syntax-ns#"
   xmlns:svg="http://www.w3.org/2000/svg"
   xmlns="http://www.w3.org/2000/svg"
   xmlns:sodipodi="http://sodipodi.sourceforge.net/DTD/sodipodi-0.dtd"
   xmlns:inkscape="http://www.inkscape.org/namespaces/inkscape"
   width="90.625"
   height="90.625"
   id="svg4476"
   version="1.1"
   inkscape:version="0.48.3.1 r9886"
   sodipodi:docname="New document 4">
  <defs
     id="defs4478" />
  <sodipodi:namedview
     id="base"
     pagecolor="#ffffff"
     bordercolor="#666666"
     borderopacity="1.0"
     inkscape:pageopacity="0.0"
     inkscape:pageshadow="2"
     inkscape:zoom="0.35"
     inkscape:cx="45.31187"
     inkscape:cy="45.32406"
     inkscape:document-units="px"
     inkscape:current-layer="layer1"
     showgrid="false"
     fit-margin-top="0"
     fit-margin-left="0"
     fit-margin-right="0"
     fit-margin-bottom="0"
     inkscape:window-width="451"
     inkscape:window-height="415"
     inkscape:window-x="50"
     inkscape:window-y="50"
     inkscape:window-maximized="0" />
  <metadata
     id="metadata4481">
    <rdf:RDF>
      <cc:Work
         rdf:about="">
        <dc:format>image/svg+xml</dc:format>
        <dc:type
           rdf:resource="http://purl.org/dc/dcmitype/StillImage" />
        <dc:title></dc:title>
      </cc:Work>
    </rdf:RDF>
  </metadata>
  <g
     inkscape:label="Layer 1"
     inkscape:groupmode="layer"
     id="layer1"
     transform="translate(-329.68813,-487.06124)">
    <g
       id="g3743"
       transform="matrix(1.25,0,0,-1.25,330.00063,513.74093)">
      <path
         d="m 0,0 0,-29.83 21.102,-21.067 29.801,0 21.096,21.067 0,29.83 -21.096,21.103 -29.801,0 L 0,0 z"
         style="fill:#ffffff;fill-opacity:1;fill-rule:nonzero;stroke:none"
         id="path3745"
         inkscape:connector-curvature="0" />
    </g>
    <g
       id="g3747"
       transform="matrix(1.25,0,0,-1.25,330.00063,513.74093)">
      <path
         d="m 0,0 0,-29.83 21.102,-21.067 29.801,0 21.096,21.067 0,29.83 -21.096,21.103 -29.801,0 L 0,0 z"
         style="fill:none;stroke:#231f20;stroke-width:0.5;stroke-linecap:butt;stroke-linejoin:miter;stroke-miterlimit:4;stroke-opacity:1;stroke-dasharray:none"
         id="path3749"
         inkscape:connector-curvature="0" />
    </g>
    <g
       id="g3751"
       transform="matrix(1.25,0,0,-1.25,332.24937,514.6503)">
      <path
         d="m 0,0 20.038,20.031 28.295,0 L 68.399,0 l 0,-28.339 -20.066,-20.031 -28.295,0 L 0,-28.339 0,0 z"
         style="fill:#c4122e;fill-opacity:1;fill-rule:evenodd;stroke:none"
         id="path3753"
         inkscape:connector-curvature="0" />
    </g>
    <g
       id="g3755"
       transform="matrix(1.25,0,0,-1.25,408.18312,525.79106)">
      <path
         d="m 0,0 c 0,-2.188 -1.094,-3.45 -3.116,-3.45 l -3.533,0 0,6.817 3.533,0 C -1.264,3.367 0,2.02 0,0 m 3.365,0 c 0,4.04 -2.524,6.733 -6.311,6.733 l -7.154,0 0,-23.986 3.451,0 0,10.521 3.703,0 c 4.039,0 6.311,2.356 6.311,6.732 m -20.537,-5.217 c 0,-2.778 -0.168,-4.209 -0.756,-6.144 -0.59,-2.021 -1.516,-2.947 -2.947,-2.947 -1.514,0 -2.44,0.926 -3.03,2.947 -0.504,1.935 -0.757,3.45 -0.757,6.059 0,2.694 0.168,4.292 0.757,6.144 0.59,2.02 1.516,2.946 3.03,2.946 1.431,0 2.357,-0.926 2.947,-3.03 0.504,-1.768 0.756,-3.282 0.756,-5.975 m 3.283,0 c 0,3.618 -0.336,5.891 -1.348,8.247 -1.177,2.946 -2.861,4.124 -5.638,4.124 -2.778,0 -4.459,-1.178 -5.723,-4.04 -1.01,-2.272 -1.346,-4.713 -1.346,-8.331 0,-3.704 0.336,-5.975 1.346,-8.333 1.178,-2.861 2.861,-4.138 5.723,-4.138 2.693,0 4.461,1.277 5.638,4.138 1.012,2.273 1.348,4.629 1.348,8.333 m -15.908,8.752 0,3.198 -12.203,0 0,-3.198 4.376,0 0,-20.788 3.45,0 0,20.788 4.377,0 z m -13.384,-14.224 c 0,3.452 -2.02,6.06 -6.648,8.753 -1.768,1.01 -2.274,1.684 -2.274,2.862 0,1.599 1.264,2.778 2.862,2.778 1.515,0 2.693,-1.095 2.778,-2.778 l 3.282,0 c -0.084,3.619 -2.693,6.228 -6.06,6.228 -3.45,0 -6.143,-2.777 -6.143,-6.228 0,-2.104 1.01,-3.955 2.945,-5.302 4.881,-3.282 3.535,-2.356 4.039,-2.861 1.432,-1.094 1.937,-2.104 1.937,-3.452 0,-1.935 -1.515,-3.619 -3.366,-3.619 -2.358,0 -3.368,2.105 -3.368,4.125 l -3.366,0 c 0,-3.956 2.525,-7.505 6.734,-7.505 3.703,0 6.648,3.128 6.648,6.999"
         style="fill:#ffffff;fill-opacity:1;fill-rule:evenodd;stroke:none"
         id="path3757"
         inkscape:connector-curvature="0" />
    </g>
  </g>
</svg>
