<?xml version="1.0" encoding="UTF-8" standalone="no"?>
<!-- Created with Inkscape (http://www.inkscape.org/) -->

<svg
   xmlns:dc="http://purl.org/dc/elements/1.1/"
   xmlns:cc="http://creativecommons.org/ns#"
   xmlns:rdf="http://www.w3.org/1999/02/22-rdf-syntax-ns#"
   xmlns:svg="http://www.w3.org/2000/svg"
   xmlns="http://www.w3.org/2000/svg"
   xmlns:sodipodi="http://sodipodi.sourceforge.net/DTD/sodipodi-0.dtd"
   xmlns:inkscape="http://www.inkscape.org/namespaces/inkscape"
   width="406.7186"
   height="158.51793"
   id="svg4209"
   version="1.1"
   inkscape:version="0.48.3.1 r9886"
   sodipodi:docname="New document 4">
  <defs
     id="defs4211">
    <clipPath
       clipPathUnits="userSpaceOnUse"
       id="clipPath3503">
      <path
         inkscape:connector-curvature="0"
         d="m 194.9,346.7 344.974,0 0,324.8 -344.974,0 0,-324.8 z"
         id="path3505" />
    </clipPath>
  </defs>
  <sodipodi:namedview
     id="base"
     pagecolor="#ffffff"
     bordercolor="#666666"
     borderopacity="1.0"
     inkscape:pageopacity="0.0"
     inkscape:pageshadow="2"
     inkscape:zoom="0.35"
     inkscape:cx="203.35885"
     inkscape:cy="79.267557"
     inkscape:document-units="px"
     inkscape:current-layer="layer1"
     showgrid="false"
     fit-margin-top="0"
     fit-margin-left="0"
     fit-margin-right="0"
     fit-margin-bottom="0"
     inkscape:window-width="451"
     inkscape:window-height="398"
     inkscape:window-x="100"
     inkscape:window-y="100"
     inkscape:window-maximized="0" />
  <metadata
     id="metadata4214">
    <rdf:RDF>
      <cc:Work
         rdf:about="">
        <dc:format>image/svg+xml</dc:format>
        <dc:type
           rdf:resource="http://purl.org/dc/dcmitype/StillImage" />
        <dc:title></dc:title>
      </cc:Work>
    </rdf:RDF>
  </metadata>
  <g
     inkscape:label="Layer 1"
     inkscape:groupmode="layer"
     id="layer1"
     transform="translate(-171.64115,-453.11181)">
    <g
       id="g3243"
       transform="matrix(1.25,0,0,-1.25,276.87568,539.06724)">
      <path
         d="m 0,0 0,61.344 c 0,2.297 -1.49,4.158 -3.33,4.158 l -77.122,0 c -1.84,0 -3.33,-1.861 -3.33,-4.158 L -83.782,0 0,0 z"
         style="fill:none;stroke:#231f20;stroke-width:0.79400003;stroke-linecap:butt;stroke-linejoin:round;stroke-miterlimit:4;stroke-opacity:1;stroke-dasharray:none"
         id="path3245"
         inkscape:connector-curvature="0" />
    </g>
    <g
       id="g3247"
       transform="matrix(1.25,0,0,-1.25,274.86894,543.64725)">
      <path
         d="m 0,0 c 0,-2.168 -1.408,-3.926 -3.146,-3.926 l -74.279,0 c -1.738,0 -3.146,1.758 -3.146,3.926 l 0,63.793 c 0,2.169 1.408,3.926 3.146,3.926 l 74.279,0 C -1.408,67.719 0,65.962 0,63.793 L 0,0 z"
         style="fill:#ffffff;fill-opacity:1;fill-rule:nonzero;stroke:none"
         id="path3249"
         inkscape:connector-curvature="0" />
    </g>
    <g
       id="g3251"
       transform="matrix(1.25,0,0,-1.25,274.86894,543.64725)">
      <path
         d="m 0,0 c 0,-2.168 -1.408,-3.926 -3.146,-3.926 l -74.279,0 c -1.738,0 -3.146,1.758 -3.146,3.926 l 0,63.793 c 0,2.169 1.408,3.926 3.146,3.926 l 74.279,0 C -1.408,67.719 0,65.962 0,63.793 L 0,0 z"
         style="fill:none;stroke:#231f20;stroke-width:0.75;stroke-linecap:butt;stroke-linejoin:round;stroke-miterlimit:4;stroke-opacity:1;stroke-dasharray:none"
         id="path3253"
         inkscape:connector-curvature="0" />
    </g>
    <g
       id="g3255"
       transform="matrix(1.25,0,0,-1.25,273.16232,542.35612)">
      <path
         d="m 0,0 c 0,-2.059 -1.338,-3.729 -2.988,-3.729 l -71.865,0 c -1.65,0 -2.986,1.67 -2.986,3.729 l 0,61.725 c 0,2.061 1.336,3.73 2.986,3.73 l 71.865,0 C -1.338,65.455 0,63.786 0,61.725 L 0,0 z"
         style="fill:#231f20;fill-opacity:1;fill-rule:nonzero;stroke:none"
         id="path3257"
         inkscape:connector-curvature="0" />
    </g>
    <g
       id="g3259"
       transform="matrix(1.25,0,0,-1.25,235.61593,483.7685)">
      <path
         d="m 0,0 0,-7.144 0,-7.139 1.776,-1.724 1.773,1.724 0,7.139 L 3.549,0 1.776,1.722 0,0 z"
         style="fill:#f48412;fill-opacity:1;fill-rule:nonzero;stroke:none"
         id="path3261"
         inkscape:connector-curvature="0" />
    </g>
    <g
       id="g3263"
       transform="matrix(1.25,0,0,-1.25,235.61593,483.7685)">
      <path
         d="m 0,0 0,-7.144 0,-7.139 1.776,-1.724 1.773,1.724 0,7.139 L 3.549,0 1.776,1.722 0,0 z"
         style="fill:none;stroke:#231f20;stroke-width:0.5;stroke-linecap:butt;stroke-linejoin:miter;stroke-miterlimit:4;stroke-opacity:1;stroke-dasharray:none"
         id="path3265"
         inkscape:connector-curvature="0" />
    </g>
    <g
       id="g3267"
       transform="matrix(1.25,0,0,-1.25,235.61593,505.934)">
      <path
         d="m 0,0 0,-7.141 0,-7.139 1.776,-1.726 1.773,1.726 0,7.139 L 3.549,0 1.776,1.726 0,0 z"
         style="fill:#f48412;fill-opacity:1;fill-rule:nonzero;stroke:none"
         id="path3269"
         inkscape:connector-curvature="0" />
    </g>
    <g
       id="g3271"
       transform="matrix(1.25,0,0,-1.25,235.61593,505.934)">
      <path
         d="m 0,0 0,-7.141 0,-7.139 1.776,-1.726 1.773,1.726 0,7.139 L 3.549,0 1.776,1.726 0,0 z"
         style="fill:none;stroke:#231f20;stroke-width:0.5;stroke-linecap:butt;stroke-linejoin:miter;stroke-miterlimit:4;stroke-opacity:1;stroke-dasharray:none"
         id="path3273"
         inkscape:connector-curvature="0" />
    </g>
    <g
       id="g3275"
       transform="matrix(1.25,0,0,-1.25,263.62869,501.62262)">
      <path
         d="m 0,0 -5.351,0 -5.351,0 -1.776,-1.724 1.776,-1.725 5.351,0 5.351,0 1.774,1.725 L 0,0 z"
         style="fill:#f48412;fill-opacity:1;fill-rule:nonzero;stroke:none"
         id="path3277"
         inkscape:connector-curvature="0" />
    </g>
    <g
       id="g3279"
       transform="matrix(1.25,0,0,-1.25,263.62869,501.62262)">
      <path
         d="m 0,0 -5.351,0 -5.351,0 -1.776,-1.724 1.776,-1.725 5.351,0 5.351,0 1.774,1.725 L 0,0 z"
         style="fill:none;stroke:#231f20;stroke-width:0.5;stroke-linecap:butt;stroke-linejoin:miter;stroke-miterlimit:4;stroke-opacity:1;stroke-dasharray:none"
         id="path3281"
         inkscape:connector-curvature="0" />
    </g>
    <g
       id="g3283"
       transform="matrix(1.25,0,0,-1.25,245.81619,483.7685)">
      <path
         d="m 0,0 0,-7.144 0,-7.139 1.772,-1.724 1.776,1.724 0,7.139 L 3.548,0 1.772,1.722 0,0 z"
         style="fill:#f48412;fill-opacity:1;fill-rule:nonzero;stroke:none"
         id="path3285"
         inkscape:connector-curvature="0" />
    </g>
    <g
       id="g3287"
       transform="matrix(1.25,0,0,-1.25,245.81619,483.7685)">
      <path
         d="m 0,0 0,-7.144 0,-7.139 1.772,-1.724 1.776,1.724 0,7.139 L 3.548,0 1.772,1.722 0,0 z"
         style="fill:none;stroke:#231f20;stroke-width:0.5;stroke-linecap:butt;stroke-linejoin:miter;stroke-miterlimit:4;stroke-opacity:1;stroke-dasharray:none"
         id="path3289"
         inkscape:connector-curvature="0" />
    </g>
    <g
       id="g3291"
       transform="matrix(1.25,0,0,-1.25,263.62869,505.934)">
      <path
         d="m 0,0 0,-7.141 0,-7.139 1.774,-1.726 1.774,1.726 0,7.139 L 3.548,0 1.774,1.726 0,0 z"
         style="fill:#f48412;fill-opacity:1;fill-rule:nonzero;stroke:none"
         id="path3293"
         inkscape:connector-curvature="0" />
    </g>
    <g
       id="g3295"
       transform="matrix(1.25,0,0,-1.25,263.62869,505.934)">
      <path
         d="m 0,0 0,-7.141 0,-7.139 1.774,-1.726 1.774,1.726 0,7.139 L 3.548,0 1.774,1.726 0,0 z"
         style="fill:none;stroke:#231f20;stroke-width:0.5;stroke-linecap:butt;stroke-linejoin:miter;stroke-miterlimit:4;stroke-opacity:1;stroke-dasharray:none"
         id="path3297"
         inkscape:connector-curvature="0" />
    </g>
    <g
       id="g3299"
       transform="matrix(1.25,0,0,-1.25,263.62869,479.45949)">
      <path
         d="m 0,0 -5.351,0 -5.351,0 -1.776,-1.726 1.776,-1.721 5.351,0 5.351,0 1.774,1.721 L 0,0 z"
         style="fill:#f48412;fill-opacity:1;fill-rule:nonzero;stroke:none"
         id="path3301"
         inkscape:connector-curvature="0" />
    </g>
    <g
       id="g3303"
       transform="matrix(1.25,0,0,-1.25,263.62869,479.45949)">
      <path
         d="m 0,0 -5.351,0 -5.351,0 -1.776,-1.726 1.776,-1.721 5.351,0 5.351,0 1.774,1.721 L 0,0 z"
         style="fill:none;stroke:#231f20;stroke-width:0.5;stroke-linecap:butt;stroke-linejoin:miter;stroke-miterlimit:4;stroke-opacity:1;stroke-dasharray:none"
         id="path3305"
         inkscape:connector-curvature="0" />
    </g>
    <g
       id="g3307"
       transform="matrix(1.25,0,0,-1.25,263.62869,523.78437)">
      <path
         d="m 0,0 -5.351,0 -5.351,0 -1.776,-1.726 1.776,-1.722 5.351,0 5.351,0 1.774,1.722 L 0,0 z"
         style="fill:#f48412;fill-opacity:1;fill-rule:nonzero;stroke:none"
         id="path3309"
         inkscape:connector-curvature="0" />
    </g>
    <g
       id="g3311"
       transform="matrix(1.25,0,0,-1.25,263.62869,523.78437)">
      <path
         d="m 0,0 -5.351,0 -5.351,0 -1.776,-1.726 1.776,-1.722 5.351,0 5.351,0 1.774,1.722 L 0,0 z m -22.41,14.28 0,-7.14 0,-7.14 1.774,-1.726 1.775,1.726 0,7.14 0,7.14 -1.775,1.726 -1.774,-1.726 z"
         style="fill:none;stroke:#231f20;stroke-width:0.5;stroke-linecap:butt;stroke-linejoin:miter;stroke-miterlimit:4;stroke-opacity:1;stroke-dasharray:none"
         id="path3313"
         inkscape:connector-curvature="0" />
    </g>
    <g
       id="g3315"
       transform="matrix(1.25,0,0,-1.25,183.22719,529.08224)">
      <path
         d="m 0,0 c 0.375,0.455 0.801,0.949 0.845,1.749 l 0,5.859 c 0,2.551 -0.861,2.986 -1.7,3.766 -1.389,1.291 -1.18,3.121 -1.103,5.485 0.213,6.551 0.46,10.498 0.485,16.619 0.003,0.78 0.636,1.417 1.417,1.417 0.781,0 1.417,-0.637 1.417,-1.417 l 0.486,-9.934 0.644,0.016 c 0.102,4.537 0.31,9.115 0.31,13.65 0,0.779 0.636,1.416 1.417,1.416 0.779,0 1.415,-0.637 1.415,-1.416 0,-0.013 0,-0.028 0.005,-0.041 l 0.195,-13.622 0.656,0 c 0.184,5.14 0.551,10.394 0.551,15.528 0,0.78 0.637,1.416 1.415,1.416 0.781,0 1.418,-0.636 1.418,-1.416 l 0,-0.018 0.305,-15.51 0.859,0 c 0.049,4.579 0.101,9.158 0.151,13.737 0.032,0.75 0.662,1.342 1.414,1.342 0.764,0 1.401,-0.614 1.417,-1.383 l 0.7,-18.266 c -0.006,-0.337 0.296,-0.588 0.633,-0.588 0.192,0 0.628,0.135 0.967,0.656 l 3.202,4.638 c 1.212,1.702 2.829,2.038 4.725,1.321 -1.175,-2.209 -3.6,-7.657 -6.06,-10.716 -1.297,-2.028 -5.648,-4.06 -5.648,-6.671 l 0,-5.342 c 0,-1.098 1.084,-2.34 1.036,-2.275 L 0,0 z"
         style="fill:#f48412;fill-opacity:1;fill-rule:evenodd;stroke:none"
         id="path3317"
         inkscape:connector-curvature="0" />
    </g>
    <g
       id="g3319"
       transform="matrix(1.25,0,0,-1.25,199.33306,478.46887)">
      <path
         d="m 0,0 c -1.632,0 -2.963,-1.331 -2.963,-2.962 0,-1.633 1.331,-2.964 2.963,-2.964 1.632,0 2.963,1.331 2.963,2.964 C 2.963,-1.331 1.632,0 0,0"
         style="fill:#ffffff;fill-opacity:1;fill-rule:evenodd;stroke:none"
         id="path3321"
         inkscape:connector-curvature="0" />
    </g>
    <g
       id="g3323"
       transform="matrix(1.25,0,0,-1.25,210.54757,501.821)">
      <path
         d="m 0,0 -6.216,4.142 c -0.288,1.214 -1.478,6.606 -3.869,7.854 -2.369,1.567 -11.1,-4.866 -11.15,-4.919 l 0,-9.383 1.893,0.33 0.741,7.49 c 0.713,0.142 1.426,0.287 2.139,0.429 -1.558,-4.029 -2.131,-7.913 -1.234,-10.472 l -3.786,-15.472 2.551,-1.81 5.515,14.32 2.551,-2.716 3.54,-10.782 3.374,1.235 -3.045,11.358 -3.539,6.337 1.355,4.678 1.443,-1.88 6.749,-2.222 L 0,0 z"
         style="fill:#ffffff;fill-opacity:1;fill-rule:evenodd;stroke:none"
         id="path3325"
         inkscape:connector-curvature="0" />
    </g>
    <g
       id="g3327"
       transform="matrix(1.25,0,0,-1.25,391.21944,526.58837)">
      <path
         d="m 0,0 c 0,-2.551 -1.657,-4.619 -3.701,-4.619 l -56.858,0 c -2.044,0 -3.701,2.068 -3.701,4.619 l 0,53.797 c 0,2.551 1.657,4.617 3.701,4.617 l 56.858,0 C -1.657,58.414 0,56.348 0,53.797 L 0,0 z"
         style="fill:none;stroke:#231f20;stroke-width:0.75;stroke-linecap:butt;stroke-linejoin:round;stroke-miterlimit:4;stroke-opacity:1;stroke-dasharray:none"
         id="path3329"
         inkscape:connector-curvature="0" />
    </g>
    <g
       id="g3331"
       transform="matrix(1.25,0,0,-1.25,387.20307,517.44774)">
      <path
         d="m 0,0 0,44.051 c 0,2.297 -1.49,4.158 -3.332,4.158 l -51.171,0 c -1.84,0 -3.331,-1.861 -3.331,-4.158 L -57.834,0 0,0 z"
         style="fill:none;stroke:#231f20;stroke-width:0.79400003;stroke-linecap:butt;stroke-linejoin:round;stroke-miterlimit:4;stroke-opacity:1;stroke-dasharray:none"
         id="path3333"
         inkscape:connector-curvature="0" />
    </g>
    <g
       id="g3335"
       transform="matrix(1.25,0,0,-1.25,385.19307,522.02775)">
      <path
         d="m 0,0 c 0,-2.168 -1.408,-3.926 -3.144,-3.926 l -48.33,0 c -1.737,0 -3.146,1.758 -3.146,3.926 l 0,46.498 c 0,2.168 1.409,3.928 3.146,3.928 l 48.33,0 C -1.408,50.426 0,48.666 0,46.498 L 0,0 z"
         style="fill:#ffffff;fill-opacity:1;fill-rule:nonzero;stroke:none"
         id="path3337"
         inkscape:connector-curvature="0" />
    </g>
    <g
       id="g3339"
       transform="matrix(1.25,0,0,-1.25,385.19307,522.02775)">
      <path
         d="m 0,0 c 0,-2.168 -1.408,-3.926 -3.144,-3.926 l -48.33,0 c -1.737,0 -3.146,1.758 -3.146,3.926 l 0,46.498 c 0,2.168 1.409,3.928 3.146,3.928 l 48.33,0 C -1.408,50.426 0,48.666 0,46.498 L 0,0 z"
         style="fill:none;stroke:#231f20;stroke-width:0.75;stroke-linecap:butt;stroke-linejoin:round;stroke-miterlimit:4;stroke-opacity:1;stroke-dasharray:none"
         id="path3341"
         inkscape:connector-curvature="0" />
    </g>
    <g
       id="g3343"
       transform="matrix(1.25,0,0,-1.25,383.48681,520.73625)">
      <path
         d="m 0,0 c 0,-2.059 -1.338,-3.729 -2.988,-3.729 l -45.912,0 c -1.652,0 -2.989,1.67 -2.989,3.729 l 0,44.432 c 0,2.06 1.337,3.73 2.989,3.73 l 45.912,0 c 1.65,0 2.988,-1.67 2.988,-3.73 L 0,0 z"
         style="fill:#231f20;fill-opacity:1;fill-rule:nonzero;stroke:none"
         id="path3345"
         inkscape:connector-curvature="0" />
    </g>
    <g
       id="g3347"
       transform="matrix(1.25,0,0,-1.25,337.70319,517.28662)">
      <path
         d="m 0,0 c 0.361,0.438 0.77,0.912 0.811,1.682 l 0,5.629 c 0,2.453 -0.826,2.871 -1.632,3.619 -1.336,1.242 -1.135,3 -1.062,5.273 0.206,6.295 0.443,10.088 0.467,15.973 0.003,0.75 0.612,1.361 1.362,1.361 0.75,0 1.362,-0.611 1.362,-1.361 l 0.467,-9.549 0.618,0.018 c 0.099,4.359 0.299,8.759 0.299,13.117 0,0.75 0.611,1.361 1.361,1.361 0.749,0 1.361,-0.611 1.361,-1.361 0,-0.01 0,-0.028 0.004,-0.039 l 0.188,-13.092 0.631,0 c 0.176,4.939 0.529,9.99 0.529,14.924 0,0.75 0.611,1.361 1.36,1.361 0.75,0 1.363,-0.611 1.363,-1.361 l 0,-0.018 0.292,-14.906 0.826,0 c 0.048,4.4 0.097,8.801 0.145,13.203 0.03,0.721 0.637,1.289 1.361,1.289 0.734,0 1.345,-0.59 1.36,-1.33 l 0.673,-17.557 c -0.006,-0.324 0.284,-0.564 0.609,-0.564 0.185,0 0.605,0.133 0.93,0.631 l 3.076,4.459 c 1.167,1.634 2.721,1.957 4.542,1.269 C 22.174,21.906 19.845,16.67 17.479,13.732 16.232,11.781 12.051,9.828 12.051,7.32 l 0,-5.132 c 0,-1.059 1.041,-2.252 0.995,-2.188 L 0,0 z"
         style="fill:#f48412;fill-opacity:1;fill-rule:evenodd;stroke:none"
         id="path3349"
         inkscape:connector-curvature="0" />
    </g>
    <g
       id="g3351"
       transform="matrix(1.25,0,0,-1.25,353.18306,468.64162)">
      <path
         d="m 0,0 c -1.568,0 -2.849,-1.279 -2.849,-2.848 0,-1.568 1.281,-2.847 2.849,-2.847 1.568,0 2.847,1.279 2.847,2.847 C 2.847,-1.279 1.568,0 0,0"
         style="fill:#ffffff;fill-opacity:1;fill-rule:evenodd;stroke:none"
         id="path3353"
         inkscape:connector-curvature="0" />
    </g>
    <g
       id="g3355"
       transform="matrix(1.25,0,0,-1.25,363.96056,491.08537)">
      <path
         d="m 0,0 -5.974,3.98 c -0.276,1.168 -1.421,6.35 -3.719,7.549 -2.276,1.506 -10.667,-4.677 -10.715,-4.728 l 0,-9.018 1.818,0.317 0.713,7.199 c 0.685,0.136 1.37,0.275 2.056,0.414 -1.498,-3.873 -2.049,-7.606 -1.187,-10.065 l -3.638,-14.871 2.452,-1.74 5.3,13.764 2.452,-2.61 3.402,-10.363 3.242,1.186 -2.927,10.918 -3.401,6.089 1.304,4.497 1.387,-1.807 6.487,-2.137 L 0,0 z"
         style="fill:#ffffff;fill-opacity:1;fill-rule:evenodd;stroke:none"
         id="path3357"
         inkscape:connector-curvature="0" />
    </g>
    <g
       id="g3359"
       transform="matrix(1.25,0,0,-1.25,391.21944,605.37974)">
      <path
         d="m 0,0 c 0,-2.551 -1.657,-4.619 -3.701,-4.619 l -56.858,0 c -2.044,0 -3.701,2.068 -3.701,4.619 l 0,53.797 c 0,2.551 1.657,4.617 3.701,4.617 l 56.858,0 C -1.657,58.414 0,56.348 0,53.797 L 0,0 z"
         style="fill:none;stroke:#231f20;stroke-width:0.75;stroke-linecap:butt;stroke-linejoin:round;stroke-miterlimit:4;stroke-opacity:1;stroke-dasharray:none"
         id="path3361"
         inkscape:connector-curvature="0" />
    </g>
    <g
       id="g3363"
       transform="matrix(1.25,0,0,-1.25,387.20307,596.23975)">
      <path
         d="m 0,0 0,44.051 c 0,2.297 -1.49,4.158 -3.332,4.158 l -51.171,0 c -1.84,0 -3.331,-1.861 -3.331,-4.158 L -57.834,0 0,0 z"
         style="fill:none;stroke:#231f20;stroke-width:0.79400003;stroke-linecap:butt;stroke-linejoin:round;stroke-miterlimit:4;stroke-opacity:1;stroke-dasharray:none"
         id="path3365"
         inkscape:connector-curvature="0" />
    </g>
    <g
       id="g3367"
       transform="matrix(1.25,0,0,-1.25,385.19307,600.81987)">
      <path
         d="m 0,0 c 0,-2.168 -1.408,-3.925 -3.144,-3.925 l -48.33,0 c -1.737,0 -3.146,1.757 -3.146,3.925 l 0,46.498 c 0,2.168 1.409,3.928 3.146,3.928 l 48.33,0 C -1.408,50.426 0,48.666 0,46.498 L 0,0 z"
         style="fill:#ffffff;fill-opacity:1;fill-rule:nonzero;stroke:none"
         id="path3369"
         inkscape:connector-curvature="0" />
    </g>
    <g
       id="g3371"
       transform="matrix(1.25,0,0,-1.25,385.19307,600.81987)">
      <path
         d="m 0,0 c 0,-2.168 -1.408,-3.925 -3.144,-3.925 l -48.33,0 c -1.737,0 -3.146,1.757 -3.146,3.925 l 0,46.498 c 0,2.168 1.409,3.928 3.146,3.928 l 48.33,0 C -1.408,50.426 0,48.666 0,46.498 L 0,0 z"
         style="fill:none;stroke:#231f20;stroke-width:0.75;stroke-linecap:butt;stroke-linejoin:round;stroke-miterlimit:4;stroke-opacity:1;stroke-dasharray:none"
         id="path3373"
         inkscape:connector-curvature="0" />
    </g>
    <g
       id="g3375"
       transform="matrix(1.25,0,0,-1.25,383.48681,599.52725)">
      <path
         d="m 0,0 c 0,-2.059 -1.338,-3.729 -2.988,-3.729 l -45.912,0 c -1.652,0 -2.989,1.67 -2.989,3.729 l 0,44.431 c 0,2.061 1.337,3.731 2.989,3.731 l 45.912,0 C -1.338,48.162 0,46.492 0,44.431 L 0,0 z"
         style="fill:#231f20;fill-opacity:1;fill-rule:nonzero;stroke:none"
         id="path3377"
         inkscape:connector-curvature="0" />
    </g>
    <g
       id="g3379"
       transform="matrix(1.25,0,0,-1.25,343.73806,551.7485)">
      <path
         d="m 0,0 0,-7.143 0,-7.14 1.777,-1.724 1.772,1.724 0,7.14 L 3.549,0 1.777,1.722 0,0 z"
         style="fill:#f48412;fill-opacity:1;fill-rule:nonzero;stroke:none"
         id="path3381"
         inkscape:connector-curvature="0" />
    </g>
    <g
       id="g3383"
       transform="matrix(1.25,0,0,-1.25,343.73806,551.7485)">
      <path
         d="m 0,0 0,-7.143 0,-7.14 1.777,-1.724 1.772,1.724 0,7.14 L 3.549,0 1.777,1.722 0,0 z"
         style="fill:none;stroke:#231f20;stroke-width:0.5;stroke-linecap:butt;stroke-linejoin:miter;stroke-miterlimit:4;stroke-opacity:1;stroke-dasharray:none"
         id="path3385"
         inkscape:connector-curvature="0" />
    </g>
    <g
       id="g3387"
       transform="matrix(1.25,0,0,-1.25,343.73806,573.9135)">
      <path
         d="m 0,0 0,-7.141 0,-7.14 1.777,-1.725 1.772,1.725 0,7.14 L 3.549,0 1.777,1.725 0,0 z"
         style="fill:#f48412;fill-opacity:1;fill-rule:nonzero;stroke:none"
         id="path3389"
         inkscape:connector-curvature="0" />
    </g>
    <g
       id="g3391"
       transform="matrix(1.25,0,0,-1.25,343.73806,573.9135)">
      <path
         d="m 0,0 0,-7.141 0,-7.14 1.777,-1.725 1.772,1.725 0,7.14 L 3.549,0 1.777,1.725 0,0 z"
         style="fill:none;stroke:#231f20;stroke-width:0.5;stroke-linecap:butt;stroke-linejoin:miter;stroke-miterlimit:4;stroke-opacity:1;stroke-dasharray:none"
         id="path3393"
         inkscape:connector-curvature="0" />
    </g>
    <g
       id="g3395"
       transform="matrix(1.25,0,0,-1.25,371.75182,569.60237)">
      <path
         d="m 0,0 -5.351,0 -5.352,0 -1.775,-1.724 1.775,-1.725 5.352,0 5.351,0 1.774,1.725 L 0,0 z"
         style="fill:#f48412;fill-opacity:1;fill-rule:nonzero;stroke:none"
         id="path3397"
         inkscape:connector-curvature="0" />
    </g>
    <g
       id="g3399"
       transform="matrix(1.25,0,0,-1.25,371.75182,569.60237)">
      <path
         d="m 0,0 -5.351,0 -5.352,0 -1.775,-1.724 1.775,-1.725 5.352,0 5.351,0 1.774,1.725 L 0,0 z"
         style="fill:none;stroke:#231f20;stroke-width:0.5;stroke-linecap:butt;stroke-linejoin:miter;stroke-miterlimit:4;stroke-opacity:1;stroke-dasharray:none"
         id="path3401"
         inkscape:connector-curvature="0" />
    </g>
    <g
       id="g3403"
       transform="matrix(1.25,0,0,-1.25,353.93932,551.7485)">
      <path
         d="m 0,0 0,-7.143 0,-7.14 1.772,-1.724 1.775,1.724 0,7.14 L 3.547,0 1.772,1.722 0,0 z"
         style="fill:#f48412;fill-opacity:1;fill-rule:nonzero;stroke:none"
         id="path3405"
         inkscape:connector-curvature="0" />
    </g>
    <g
       id="g3407"
       transform="matrix(1.25,0,0,-1.25,353.93932,551.7485)">
      <path
         d="m 0,0 0,-7.143 0,-7.14 1.772,-1.724 1.775,1.724 0,7.14 L 3.547,0 1.772,1.722 0,0 z"
         style="fill:none;stroke:#231f20;stroke-width:0.5;stroke-linecap:butt;stroke-linejoin:miter;stroke-miterlimit:4;stroke-opacity:1;stroke-dasharray:none"
         id="path3409"
         inkscape:connector-curvature="0" />
    </g>
    <g
       id="g3411"
       transform="matrix(1.25,0,0,-1.25,371.75182,573.9135)">
      <path
         d="m 0,0 0,-7.141 0,-7.14 1.774,-1.725 1.773,1.725 0,7.14 L 3.547,0 1.774,1.725 0,0 z"
         style="fill:#f48412;fill-opacity:1;fill-rule:nonzero;stroke:none"
         id="path3413"
         inkscape:connector-curvature="0" />
    </g>
    <g
       id="g3415"
       transform="matrix(1.25,0,0,-1.25,371.75182,573.9135)">
      <path
         d="m 0,0 0,-7.141 0,-7.14 1.774,-1.725 1.773,1.725 0,7.14 L 3.547,0 1.774,1.725 0,0 z"
         style="fill:none;stroke:#231f20;stroke-width:0.5;stroke-linecap:butt;stroke-linejoin:miter;stroke-miterlimit:4;stroke-opacity:1;stroke-dasharray:none"
         id="path3417"
         inkscape:connector-curvature="0" />
    </g>
    <g
       id="g3419"
       transform="matrix(1.25,0,0,-1.25,371.75182,547.43975)">
      <path
         d="m 0,0 -5.351,0 -5.352,0 -1.775,-1.725 1.775,-1.722 5.352,0 5.351,0 1.774,1.722 L 0,0 z"
         style="fill:#f48412;fill-opacity:1;fill-rule:nonzero;stroke:none"
         id="path3421"
         inkscape:connector-curvature="0" />
    </g>
    <g
       id="g3423"
       transform="matrix(1.25,0,0,-1.25,371.75182,547.43975)">
      <path
         d="m 0,0 -5.351,0 -5.352,0 -1.775,-1.725 1.775,-1.722 5.352,0 5.351,0 1.774,1.722 L 0,0 z"
         style="fill:none;stroke:#231f20;stroke-width:0.5;stroke-linecap:butt;stroke-linejoin:miter;stroke-miterlimit:4;stroke-opacity:1;stroke-dasharray:none"
         id="path3425"
         inkscape:connector-curvature="0" />
    </g>
    <g
       id="g3427"
       transform="matrix(1.25,0,0,-1.25,371.75182,591.76474)">
      <path
         d="m 0,0 -5.351,0 -5.352,0 -1.775,-1.725 1.775,-1.723 5.352,0 5.351,0 1.774,1.723 L 0,0 z"
         style="fill:#f48412;fill-opacity:1;fill-rule:nonzero;stroke:none"
         id="path3429"
         inkscape:connector-curvature="0" />
    </g>
    <g
       id="g3431"
       transform="matrix(1.25,0,0,-1.25,371.75182,591.76474)">
      <path
         d="m 0,0 -5.351,0 -5.352,0 -1.775,-1.725 1.775,-1.723 5.352,0 5.351,0 1.774,1.723 L 0,0 z m -22.411,14.281 0,-7.141 0,-7.14 1.775,-1.725 1.774,1.725 0,7.14 0,7.141 -1.774,1.725 -1.775,-1.725 z"
         style="fill:none;stroke:#231f20;stroke-width:0.5;stroke-linecap:butt;stroke-linejoin:miter;stroke-miterlimit:4;stroke-opacity:1;stroke-dasharray:none"
         id="path3433"
         inkscape:connector-curvature="0" />
    </g>
    <g
       id="g3435"
       transform="matrix(1.25,0,0,-1.25,501.54318,526.58837)">
      <path
         d="m 0,0 c 0,-2.551 -1.656,-4.619 -3.701,-4.619 l -56.857,0 c -2.045,0 -3.701,2.068 -3.701,4.619 l 0,53.797 c 0,2.551 1.656,4.617 3.701,4.617 l 56.857,0 C -1.656,58.414 0,56.348 0,53.797 L 0,0 z"
         style="fill:none;stroke:#231f20;stroke-width:0.75;stroke-linecap:butt;stroke-linejoin:round;stroke-miterlimit:4;stroke-opacity:1;stroke-dasharray:none"
         id="path3437"
         inkscape:connector-curvature="0" />
    </g>
    <g
       id="g3439"
       transform="matrix(1.25,0,0,-1.25,497.52806,517.44774)">
      <path
         d="m 0,0 0,44.051 c 0,2.297 -1.491,4.158 -3.332,4.158 l -51.172,0 c -1.839,0 -3.33,-1.861 -3.33,-4.158 L -57.834,0 0,0 z"
         style="fill:none;stroke:#231f20;stroke-width:0.79400003;stroke-linecap:butt;stroke-linejoin:round;stroke-miterlimit:4;stroke-opacity:1;stroke-dasharray:none"
         id="path3441"
         inkscape:connector-curvature="0" />
    </g>
    <g
       id="g3443"
       transform="matrix(1.25,0,0,-1.25,495.51806,522.02775)">
      <path
         d="m 0,0 c 0,-2.168 -1.408,-3.926 -3.144,-3.926 l -48.33,0 c -1.737,0 -3.146,1.758 -3.146,3.926 l 0,46.498 c 0,2.168 1.409,3.928 3.146,3.928 l 48.33,0 C -1.408,50.426 0,48.666 0,46.498 L 0,0 z"
         style="fill:#ffffff;fill-opacity:1;fill-rule:nonzero;stroke:none"
         id="path3445"
         inkscape:connector-curvature="0" />
    </g>
    <g
       id="g3447"
       transform="matrix(1.25,0,0,-1.25,495.51806,522.02775)">
      <path
         d="m 0,0 c 0,-2.168 -1.408,-3.926 -3.144,-3.926 l -48.33,0 c -1.737,0 -3.146,1.758 -3.146,3.926 l 0,46.498 c 0,2.168 1.409,3.928 3.146,3.928 l 48.33,0 C -1.408,50.426 0,48.666 0,46.498 L 0,0 z"
         style="fill:none;stroke:#231f20;stroke-width:0.75;stroke-linecap:butt;stroke-linejoin:round;stroke-miterlimit:4;stroke-opacity:1;stroke-dasharray:none"
         id="path3449"
         inkscape:connector-curvature="0" />
    </g>
    <g
       id="g3451"
       transform="matrix(1.25,0,0,-1.25,493.81194,520.73625)">
      <path
         d="m 0,0 c 0,-2.059 -1.338,-3.729 -2.988,-3.729 l -45.912,0 c -1.652,0 -2.99,1.67 -2.99,3.729 l 0,44.432 c 0,2.06 1.338,3.73 2.99,3.73 l 45.912,0 c 1.65,0 2.988,-1.67 2.988,-3.73 L 0,0 z"
         style="fill:#231f20;fill-opacity:1;fill-rule:nonzero;stroke:none"
         id="path3453"
         inkscape:connector-curvature="0" />
    </g>
    <g
       id="g3455"
       transform="matrix(1.25,0,0,-1.25,448.02806,517.28662)">
      <path
         d="m 0,0 c 0.359,0.438 0.77,0.912 0.811,1.682 l 0,5.629 c 0,2.453 -0.827,2.871 -1.633,3.619 -1.336,1.242 -1.135,3 -1.061,5.273 0.205,6.295 0.442,10.088 0.467,15.973 0.003,0.75 0.611,1.361 1.361,1.361 0.75,0 1.362,-0.611 1.362,-1.361 l 0.466,-9.549 0.62,0.018 c 0.099,4.359 0.298,8.759 0.298,13.117 0,0.75 0.612,1.361 1.362,1.361 0.749,0 1.361,-0.611 1.361,-1.361 0,-0.01 0,-0.028 0.004,-0.039 l 0.187,-13.092 0.631,0 c 0.176,4.939 0.53,9.99 0.53,14.924 0,0.75 0.611,1.361 1.36,1.361 0.75,0 1.362,-0.611 1.362,-1.361 l 0,-0.018 0.293,-14.906 0.825,0 c 0.048,4.4 0.097,8.801 0.146,13.203 0.03,0.721 0.637,1.289 1.359,1.289 0.735,0 1.346,-0.59 1.362,-1.33 l 0.672,-17.557 c -0.006,-0.324 0.285,-0.564 0.609,-0.564 0.185,0 0.605,0.133 0.93,0.631 l 3.076,4.459 c 1.168,1.634 2.72,1.957 4.543,1.269 C 22.174,21.906 19.844,16.67 17.479,13.732 16.23,11.781 12.051,9.828 12.051,7.32 l 0,-5.132 c 0,-1.059 1.041,-2.252 0.994,-2.188 L 0,0 z"
         style="fill:#f48412;fill-opacity:1;fill-rule:evenodd;stroke:none"
         id="path3457"
         inkscape:connector-curvature="0" />
    </g>
    <g
       id="g3459"
       transform="matrix(1.25,0,0,-1.25,501.54318,605.37974)">
      <path
         d="m 0,0 c 0,-2.551 -1.656,-4.619 -3.701,-4.619 l -56.857,0 c -2.045,0 -3.701,2.068 -3.701,4.619 l 0,53.797 c 0,2.551 1.656,4.617 3.701,4.617 l 56.857,0 C -1.656,58.414 0,56.348 0,53.797 L 0,0 z"
         style="fill:none;stroke:#231f20;stroke-width:0.75;stroke-linecap:butt;stroke-linejoin:round;stroke-miterlimit:4;stroke-opacity:1;stroke-dasharray:none"
         id="path3461"
         inkscape:connector-curvature="0" />
    </g>
    <g
       id="g3463"
       transform="matrix(1.25,0,0,-1.25,497.52806,596.23975)">
      <path
         d="m 0,0 0,44.051 c 0,2.297 -1.491,4.158 -3.332,4.158 l -51.172,0 c -1.839,0 -3.33,-1.861 -3.33,-4.158 L -57.834,0 0,0 z"
         style="fill:none;stroke:#231f20;stroke-width:0.79400003;stroke-linecap:butt;stroke-linejoin:round;stroke-miterlimit:4;stroke-opacity:1;stroke-dasharray:none"
         id="path3465"
         inkscape:connector-curvature="0" />
    </g>
    <g
       id="g3467"
       transform="matrix(1.25,0,0,-1.25,495.51806,600.81987)">
      <path
         d="m 0,0 c 0,-2.168 -1.408,-3.925 -3.144,-3.925 l -48.33,0 c -1.737,0 -3.146,1.757 -3.146,3.925 l 0,46.498 c 0,2.168 1.409,3.928 3.146,3.928 l 48.33,0 C -1.408,50.426 0,48.666 0,46.498 L 0,0 z"
         style="fill:#ffffff;fill-opacity:1;fill-rule:nonzero;stroke:none"
         id="path3469"
         inkscape:connector-curvature="0" />
    </g>
    <g
       id="g3471"
       transform="matrix(1.25,0,0,-1.25,495.51806,600.81987)">
      <path
         d="m 0,0 c 0,-2.168 -1.408,-3.925 -3.144,-3.925 l -48.33,0 c -1.737,0 -3.146,1.757 -3.146,3.925 l 0,46.498 c 0,2.168 1.409,3.928 3.146,3.928 l 48.33,0 C -1.408,50.426 0,48.666 0,46.498 L 0,0 z"
         style="fill:none;stroke:#231f20;stroke-width:0.75;stroke-linecap:butt;stroke-linejoin:round;stroke-miterlimit:4;stroke-opacity:1;stroke-dasharray:none"
         id="path3473"
         inkscape:connector-curvature="0" />
    </g>
    <g
       id="g3475"
       transform="matrix(1.25,0,0,-1.25,493.81194,599.52725)">
      <path
         d="m 0,0 c 0,-2.059 -1.338,-3.729 -2.988,-3.729 l -45.912,0 c -1.652,0 -2.99,1.67 -2.99,3.729 l 0,44.431 c 0,2.061 1.338,3.731 2.99,3.731 l 45.912,0 C -1.338,48.162 0,46.492 0,44.431 L 0,0 z"
         style="fill:#231f20;fill-opacity:1;fill-rule:nonzero;stroke:none"
         id="path3477"
         inkscape:connector-curvature="0" />
    </g>
    <g
       id="g3479"
       transform="matrix(1.25,0,0,-1.25,463.50681,547.4335)">
      <path
         d="m 0,0 c -1.569,0 -2.848,-1.279 -2.848,-2.847 0,-1.569 1.279,-2.848 2.848,-2.848 1.568,0 2.847,1.279 2.847,2.848 C 2.847,-1.279 1.568,0 0,0"
         style="fill:#ffffff;fill-opacity:1;fill-rule:evenodd;stroke:none"
         id="path3481"
         inkscape:connector-curvature="0" />
    </g>
    <g
       id="g3483"
       transform="matrix(1.25,0,0,-1.25,474.28569,569.87724)">
      <path
         d="M 0,0 -5.975,3.981 C -6.25,5.149 -7.397,10.33 -9.694,11.53 -11.969,13.035 -20.361,6.852 -20.408,6.801 l 0,-9.018 1.818,0.317 0.713,7.199 c 0.683,0.137 1.369,0.275 2.055,0.414 -1.498,-3.873 -2.049,-7.605 -1.186,-10.064 l -3.639,-14.871 2.452,-1.741 5.3,13.764 2.451,-2.609 3.403,-10.364 3.242,1.186 -2.926,10.918 -3.402,6.09 1.305,4.496 1.386,-1.807 6.487,-2.137 L 0,0 z"
         style="fill:#ffffff;fill-opacity:1;fill-rule:evenodd;stroke:none"
         id="path3485"
         inkscape:connector-curvature="0" />
    </g>
    <g
       transform="matrix(1.25,0,0,-1.25,-84.234185,1243.5829)"
       id="g3499">
      <g
         id="g3501"
         clip-path="url(#clipPath3503)">
        <g
           id="g3507"
           transform="translate(529.6688,580.9081)">
          <path
             inkscape:connector-curvature="0"
             d="m 0,0 0,44.051 c 0,2.297 -1.49,4.158 -3.332,4.158 l -51.171,0 c -1.838,0 -3.331,-1.861 -3.331,-4.158 L -57.834,0 0,0 z"
             style="fill:none;stroke:#231f20;stroke-width:0.79400003;stroke-linecap:butt;stroke-linejoin:round;stroke-miterlimit:4;stroke-opacity:1;stroke-dasharray:none"
             id="path3509" />
        </g>
        <g
           id="g3511"
           transform="translate(528.0619,577.2441)">
          <path
             inkscape:connector-curvature="0"
             d="m 0,0 c 0,-2.168 -1.408,-3.926 -3.145,-3.926 l -48.33,0 c -1.736,0 -3.144,1.758 -3.144,3.926 l 0,46.498 c 0,2.168 1.408,3.928 3.144,3.928 l 48.33,0 C -1.408,50.426 0,48.666 0,46.498 L 0,0 z"
             style="fill:#ffffff;fill-opacity:1;fill-rule:nonzero;stroke:none"
             id="path3513" />
        </g>
        <g
           id="g3515"
           transform="translate(528.0619,577.2441)">
          <path
             inkscape:connector-curvature="0"
             d="m 0,0 c 0,-2.168 -1.408,-3.926 -3.145,-3.926 l -48.33,0 c -1.736,0 -3.144,1.758 -3.144,3.926 l 0,46.498 c 0,2.168 1.408,3.928 3.144,3.928 l 48.33,0 C -1.408,50.426 0,48.666 0,46.498 L 0,0 z"
             style="fill:none;stroke:#231f20;stroke-width:0.75;stroke-linecap:butt;stroke-linejoin:round;stroke-miterlimit:4;stroke-opacity:1;stroke-dasharray:none"
             id="path3517" />
        </g>
        <g
           id="g3519"
           transform="translate(526.6968,578.2773)">
          <path
             inkscape:connector-curvature="0"
             d="m 0,0 c 0,-2.059 -1.338,-3.729 -2.989,-3.729 l -45.912,0 c -1.65,0 -2.988,1.67 -2.988,3.729 l 0,44.432 c 0,2.06 1.338,3.73 2.988,3.73 l 45.912,0 C -1.338,48.162 0,46.492 0,44.432 L 0,0 z"
             style="fill:#231f20;fill-opacity:1;fill-rule:nonzero;stroke:none"
             id="path3521" />
        </g>
        <g
           id="g3523"
           transform="translate(494.8979,616.5009)">
          <path
             inkscape:connector-curvature="0"
             d="m 0,0 0,-7.144 0,-7.139 1.777,-1.724 1.772,1.724 0,7.139 L 3.549,0 1.777,1.722 0,0 z"
             style="fill:#f48412;fill-opacity:1;fill-rule:nonzero;stroke:none"
             id="path3525" />
        </g>
        <g
           id="g3527"
           transform="translate(494.8979,616.5009)">
          <path
             inkscape:connector-curvature="0"
             d="m 0,0 0,-7.144 0,-7.139 1.777,-1.724 1.772,1.724 0,7.139 L 3.549,0 1.777,1.722 0,0 z"
             style="fill:none;stroke:#231f20;stroke-width:0.5;stroke-linecap:butt;stroke-linejoin:miter;stroke-miterlimit:4;stroke-opacity:1;stroke-dasharray:none"
             id="path3529" />
        </g>
        <g
           id="g3531"
           transform="translate(494.8979,598.7685)">
          <path
             inkscape:connector-curvature="0"
             d="m 0,0 0,-7.141 0,-7.139 1.777,-1.726 1.772,1.726 0,7.139 L 3.549,0 1.777,1.726 0,0 z"
             style="fill:#f48412;fill-opacity:1;fill-rule:nonzero;stroke:none"
             id="path3533" />
        </g>
        <g
           id="g3535"
           transform="translate(494.8979,598.7685)">
          <path
             inkscape:connector-curvature="0"
             d="m 0,0 0,-7.141 0,-7.139 1.777,-1.726 1.772,1.726 0,7.139 L 3.549,0 1.777,1.726 0,0 z"
             style="fill:none;stroke:#231f20;stroke-width:0.5;stroke-linecap:butt;stroke-linejoin:miter;stroke-miterlimit:4;stroke-opacity:1;stroke-dasharray:none"
             id="path3537" />
        </g>
        <g
           id="g3539"
           transform="translate(517.3088,602.2177)">
          <path
             inkscape:connector-curvature="0"
             d="m 0,0 -5.352,0 -5.351,0 -1.775,-1.724 1.775,-1.725 5.351,0 5.352,0 1.773,1.725 L 0,0 z"
             style="fill:#f48412;fill-opacity:1;fill-rule:nonzero;stroke:none"
             id="path3541" />
        </g>
        <g
           id="g3543"
           transform="translate(517.3088,602.2177)">
          <path
             inkscape:connector-curvature="0"
             d="m 0,0 -5.352,0 -5.351,0 -1.775,-1.724 1.775,-1.725 5.351,0 5.352,0 1.773,1.725 L 0,0 z"
             style="fill:none;stroke:#231f20;stroke-width:0.5;stroke-linecap:butt;stroke-linejoin:miter;stroke-miterlimit:4;stroke-opacity:1;stroke-dasharray:none"
             id="path3545" />
        </g>
        <g
           id="g3547"
           transform="translate(503.0588,616.5009)">
          <path
             inkscape:connector-curvature="0"
             d="m 0,0 0,-7.144 0,-7.139 1.772,-1.724 1.775,1.724 0,7.139 L 3.547,0 1.772,1.722 0,0 z"
             style="fill:#f48412;fill-opacity:1;fill-rule:nonzero;stroke:none"
             id="path3549" />
        </g>
        <g
           id="g3551"
           transform="translate(503.0588,616.5009)">
          <path
             inkscape:connector-curvature="0"
             d="m 0,0 0,-7.144 0,-7.139 1.772,-1.724 1.775,1.724 0,7.139 L 3.547,0 1.772,1.722 0,0 z"
             style="fill:none;stroke:#231f20;stroke-width:0.5;stroke-linecap:butt;stroke-linejoin:miter;stroke-miterlimit:4;stroke-opacity:1;stroke-dasharray:none"
             id="path3553" />
        </g>
        <g
           id="g3555"
           transform="translate(517.3088,598.7685)">
          <path
             inkscape:connector-curvature="0"
             d="m 0,0 0,-7.141 0,-7.139 1.773,-1.726 1.774,1.726 0,7.139 L 3.547,0 1.773,1.726 0,0 z"
             style="fill:#f48412;fill-opacity:1;fill-rule:nonzero;stroke:none"
             id="path3557" />
        </g>
        <g
           id="g3559"
           transform="translate(517.3088,598.7685)">
          <path
             inkscape:connector-curvature="0"
             d="m 0,0 0,-7.141 0,-7.139 1.773,-1.726 1.774,1.726 0,7.139 L 3.547,0 1.773,1.726 0,0 z"
             style="fill:none;stroke:#231f20;stroke-width:0.5;stroke-linecap:butt;stroke-linejoin:miter;stroke-miterlimit:4;stroke-opacity:1;stroke-dasharray:none"
             id="path3561" />
        </g>
        <g
           id="g3563"
           transform="translate(517.3088,619.9482)">
          <path
             inkscape:connector-curvature="0"
             d="m 0,0 -5.352,0 -5.351,0 -1.775,-1.726 1.775,-1.721 5.351,0 5.352,0 1.773,1.721 L 0,0 z"
             style="fill:#f48412;fill-opacity:1;fill-rule:nonzero;stroke:none"
             id="path3565" />
        </g>
        <g
           id="g3567"
           transform="translate(517.3088,619.9482)">
          <path
             inkscape:connector-curvature="0"
             d="m 0,0 -5.352,0 -5.351,0 -1.775,-1.726 1.775,-1.721 5.351,0 5.352,0 1.773,1.721 L 0,0 z"
             style="fill:none;stroke:#231f20;stroke-width:0.5;stroke-linecap:butt;stroke-linejoin:miter;stroke-miterlimit:4;stroke-opacity:1;stroke-dasharray:none"
             id="path3569" />
        </g>
        <g
           id="g3571"
           transform="translate(517.3088,584.4882)">
          <path
             inkscape:connector-curvature="0"
             d="m 0,0 -5.352,0 -5.351,0 -1.775,-1.726 1.775,-1.722 5.351,0 5.352,0 1.773,1.722 L 0,0 z"
             style="fill:#f48412;fill-opacity:1;fill-rule:nonzero;stroke:none"
             id="path3573" />
        </g>
        <g
           id="g3575"
           transform="translate(517.3088,584.4882)">
          <path
             inkscape:connector-curvature="0"
             d="m 0,0 -5.352,0 -5.351,0 -1.775,-1.726 1.775,-1.722 5.351,0 5.352,0 1.773,1.722 L 0,0 z m -22.411,14.28 0,-7.14 0,-7.14 1.775,-1.726 1.774,1.726 0,7.14 0,7.14 -1.774,1.726 -1.775,-1.726 z"
             style="fill:none;stroke:#231f20;stroke-width:0.5;stroke-linecap:butt;stroke-linejoin:miter;stroke-miterlimit:4;stroke-opacity:1;stroke-dasharray:none"
             id="path3577" />
        </g>
      </g>
    </g>
    <text
       style="font-size:14.78416634px"
       y="501.10651"
       x="282.97528"
       transform="scale(1.014599,0.98561107)"
       id="text3579">
      <tspan
         style="font-size:11.41423893px;font-variant:normal;font-weight:normal;font-stretch:normal;writing-mode:lr-tb;fill:#231f20;fill-opacity:1;fill-rule:nonzero;stroke:none;font-family:Helvetica;-inkscape-font-specification:Helvetica"
         x="282.97528 291.85556 391.04529 399.92557"
         y="501.10651"
         sodipodi:role="line"
         id="tspan3581">OROR</tspan>
    </text>
  </g>
</svg>
