<?xml version="1.0" encoding="UTF-8" standalone="no"?>
<!-- Created with Inkscape (http://www.inkscape.org/) -->

<svg
   xmlns:dc="http://purl.org/dc/elements/1.1/"
   xmlns:cc="http://creativecommons.org/ns#"
   xmlns:rdf="http://www.w3.org/1999/02/22-rdf-syntax-ns#"
   xmlns:svg="http://www.w3.org/2000/svg"
   xmlns="http://www.w3.org/2000/svg"
   xmlns:sodipodi="http://sodipodi.sourceforge.net/DTD/sodipodi-0.dtd"
   xmlns:inkscape="http://www.inkscape.org/namespaces/inkscape"
   width="334.35858"
   height="158.53154"
   id="svg5595"
   version="1.1"
   inkscape:version="0.48.3.1 r9886"
   sodipodi:docname="New document 19">
  <defs
     id="defs5597">
    <clipPath
       clipPathUnits="userSpaceOnUse"
       id="clipPath3651">
      <path
         inkscape:connector-curvature="0"
         d="m 201.518,351.975 331.739,0 0,314.25 -331.739,0 0,-314.25 z"
         id="path3653" />
    </clipPath>
  </defs>
  <sodipodi:namedview
     id="base"
     pagecolor="#ffffff"
     bordercolor="#666666"
     borderopacity="1.0"
     inkscape:pageopacity="0.0"
     inkscape:pageshadow="2"
     inkscape:zoom="0.35"
     inkscape:cx="167.18413"
     inkscape:cy="79.259667"
     inkscape:document-units="px"
     inkscape:current-layer="layer1"
     showgrid="false"
     fit-margin-top="0"
     fit-margin-left="0"
     fit-margin-right="0"
     fit-margin-bottom="0"
     inkscape:window-width="451"
     inkscape:window-height="398"
     inkscape:window-x="75"
     inkscape:window-y="75"
     inkscape:window-maximized="0" />
  <metadata
     id="metadata5600">
    <rdf:RDF>
      <cc:Work
         rdf:about="">
        <dc:format>image/svg+xml</dc:format>
        <dc:type
           rdf:resource="http://purl.org/dc/dcmitype/StillImage" />
        <dc:title></dc:title>
      </cc:Work>
    </rdf:RDF>
  </metadata>
  <g
     inkscape:label="Layer 1"
     inkscape:groupmode="layer"
     id="layer1"
     transform="translate(-207.81587,-453.0903)">
    <g
       id="g3591"
       transform="matrix(1.25,0,0,-1.25,431.38193,526.58874)">
      <path
         d="m 0,0 c 0,-2.55 -1.657,-4.619 -3.702,-4.619 l -56.856,0 c -2.044,0 -3.701,2.069 -3.701,4.619 l 0,53.797 c 0,2.551 1.657,4.617 3.701,4.617 l 56.856,0 C -1.657,58.414 0,56.348 0,53.797 L 0,0 z"
         style="fill:none;stroke:#231f20;stroke-width:0.75;stroke-linecap:butt;stroke-linejoin:round;stroke-miterlimit:4;stroke-opacity:1;stroke-dasharray:none"
         id="path3593"
         inkscape:connector-curvature="0" />
    </g>
    <g
       id="g3595"
       transform="matrix(1.25,0,0,-1.25,427.36556,517.44749)">
      <path
         d="m 0,0 0,44.051 c 0,2.297 -1.491,4.158 -3.332,4.158 l -51.171,0 c -1.839,0 -3.33,-1.861 -3.33,-4.158 L -57.833,0 0,0 z"
         style="fill:none;stroke:#231f20;stroke-width:0.79400003;stroke-linecap:butt;stroke-linejoin:round;stroke-miterlimit:4;stroke-opacity:1;stroke-dasharray:none"
         id="path3597"
         inkscape:connector-curvature="0" />
    </g>
    <g
       id="g3599"
       transform="matrix(1.25,0,0,-1.25,425.35556,522.02749)">
      <path
         d="m 0,0 c 0,-2.168 -1.408,-3.926 -3.144,-3.926 l -48.329,0 c -1.737,0 -3.146,1.758 -3.146,3.926 l 0,46.498 c 0,2.168 1.409,3.928 3.146,3.928 l 48.329,0 C -1.408,50.426 0,48.666 0,46.498 L 0,0 z"
         style="fill:#ffffff;fill-opacity:1;fill-rule:nonzero;stroke:none"
         id="path3601"
         inkscape:connector-curvature="0" />
    </g>
    <g
       id="g3603"
       transform="matrix(1.25,0,0,-1.25,425.35556,522.02749)">
      <path
         d="m 0,0 c 0,-2.168 -1.408,-3.926 -3.144,-3.926 l -48.329,0 c -1.737,0 -3.146,1.758 -3.146,3.926 l 0,46.498 c 0,2.168 1.409,3.928 3.146,3.928 l 48.329,0 C -1.408,50.426 0,48.666 0,46.498 L 0,0 z"
         style="fill:none;stroke:#231f20;stroke-width:0.75;stroke-linecap:butt;stroke-linejoin:round;stroke-miterlimit:4;stroke-opacity:1;stroke-dasharray:none"
         id="path3605"
         inkscape:connector-curvature="0" />
    </g>
    <g
       id="g3607"
       transform="matrix(1.25,0,0,-1.25,423.64943,520.73624)">
      <path
         d="m 0,0 c 0,-2.059 -1.338,-3.729 -2.988,-3.729 l -45.912,0 c -1.651,0 -2.989,1.67 -2.989,3.729 l 0,44.432 c 0,2.06 1.338,3.73 2.989,3.73 l 45.912,0 c 1.65,0 2.988,-1.67 2.988,-3.73 L 0,0 z"
         style="fill:#231f20;fill-opacity:1;fill-rule:nonzero;stroke:none"
         id="path3609"
         inkscape:connector-curvature="0" />
    </g>
    <g
       id="g3611"
       transform="matrix(1.25,0,0,-1.25,377.86556,517.28625)">
      <path
         d="m 0,0 c 0.361,0.437 0.77,0.912 0.811,1.681 l 0,5.629 c 0,2.453 -0.827,2.871 -1.631,3.619 -1.337,1.243 -1.135,3 -1.062,5.274 0.206,6.295 0.442,10.088 0.467,15.973 0.003,0.75 0.61,1.361 1.36,1.361 0.75,0 1.364,-0.611 1.364,-1.361 l 0.467,-9.549 0.617,0.017 c 0.099,4.36 0.299,8.76 0.299,13.117 0,0.75 0.611,1.362 1.361,1.362 0.75,0 1.361,-0.612 1.361,-1.362 0,-0.009 0,-0.027 0.004,-0.039 l 0.188,-13.091 0.63,0 c 0.178,4.939 0.53,9.99 0.53,14.923 0,0.75 0.611,1.362 1.361,1.362 0.75,0 1.361,-0.612 1.361,-1.362 0,0 0,-0.015 0.002,-0.017 l 0.291,-14.906 0.827,0 c 0.046,4.4 0.097,8.8 0.144,13.203 0.031,0.72 0.637,1.289 1.361,1.289 0.735,0 1.346,-0.59 1.36,-1.33 l 0.674,-17.557 c -0.006,-0.324 0.283,-0.564 0.609,-0.564 0.184,0 0.603,0.132 0.93,0.631 l 3.076,4.458 c 1.166,1.635 2.721,1.958 4.541,1.27 C 22.174,21.906 19.846,16.67 17.479,13.732 16.233,11.781 12.051,9.828 12.051,7.32 l 0,-5.133 c 0,-1.058 1.041,-2.252 0.996,-2.187 L 0,0 z"
         style="fill:#f48412;fill-opacity:1;fill-rule:evenodd;stroke:none"
         id="path3613"
         inkscape:connector-curvature="0" />
    </g>
    <g
       id="g3615"
       transform="matrix(1.25,0,0,-1.25,393.34681,468.64124)">
      <path
         d="m 0,0 c -1.568,0 -2.85,-1.28 -2.85,-2.848 0,-1.568 1.282,-2.848 2.85,-2.848 1.568,0 2.846,1.28 2.846,2.848 C 2.846,-1.28 1.568,0 0,0"
         style="fill:#ffffff;fill-opacity:1;fill-rule:evenodd;stroke:none"
         id="path3617"
         inkscape:connector-curvature="0" />
    </g>
    <g
       id="g3619"
       transform="matrix(1.25,0,0,-1.25,404.12318,491.08499)">
      <path
         d="m 0,0 -5.973,3.98 c -0.277,1.168 -1.422,6.35 -3.72,7.549 -2.276,1.506 -10.666,-4.678 -10.715,-4.729 l 0,-9.017 1.818,0.316 0.713,7.2 c 0.686,0.136 1.371,0.275 2.057,0.414 -1.498,-3.873 -2.049,-7.606 -1.188,-10.065 l -3.639,-14.871 2.454,-1.74 5.298,13.763 2.454,-2.609 3.402,-10.363 3.242,1.185 -2.928,10.918 -3.4,6.09 1.303,4.496 1.386,-1.806 6.489,-2.137 L 0,0 z"
         style="fill:#ffffff;fill-opacity:1;fill-rule:evenodd;stroke:none"
         id="path3621"
         inkscape:connector-curvature="0" />
    </g>
    <g
       id="g3623"
       transform="matrix(1.25,0,0,-1.25,541.70569,526.58874)">
      <path
         d="m 0,0 c 0,-2.55 -1.656,-4.619 -3.701,-4.619 l -56.857,0 c -2.045,0 -3.701,2.069 -3.701,4.619 l 0,53.797 c 0,2.551 1.656,4.617 3.701,4.617 l 56.857,0 C -1.656,58.414 0,56.348 0,53.797 L 0,0 z"
         style="fill:none;stroke:#231f20;stroke-width:0.75;stroke-linecap:butt;stroke-linejoin:round;stroke-miterlimit:4;stroke-opacity:1;stroke-dasharray:none"
         id="path3625"
         inkscape:connector-curvature="0" />
    </g>
    <g
       id="g3627"
       transform="matrix(1.25,0,0,-1.25,537.68931,517.44749)">
      <path
         d="m 0,0 0,44.051 c 0,2.297 -1.49,4.158 -3.332,4.158 l -51.171,0 c -1.84,0 -3.33,-1.861 -3.33,-4.158 L -57.833,0 0,0 z"
         style="fill:none;stroke:#231f20;stroke-width:0.79400003;stroke-linecap:butt;stroke-linejoin:round;stroke-miterlimit:4;stroke-opacity:1;stroke-dasharray:none"
         id="path3629"
         inkscape:connector-curvature="0" />
    </g>
    <g
       id="g3631"
       transform="matrix(1.25,0,0,-1.25,535.68068,522.02749)">
      <path
         d="m 0,0 c 0,-2.168 -1.408,-3.926 -3.144,-3.926 l -48.331,0 c -1.736,0 -3.146,1.758 -3.146,3.926 l 0,46.498 c 0,2.168 1.41,3.928 3.146,3.928 l 48.331,0 C -1.408,50.426 0,48.666 0,46.498 L 0,0 z"
         style="fill:#ffffff;fill-opacity:1;fill-rule:nonzero;stroke:none"
         id="path3633"
         inkscape:connector-curvature="0" />
    </g>
    <g
       id="g3635"
       transform="matrix(1.25,0,0,-1.25,535.68068,522.02749)">
      <path
         d="m 0,0 c 0,-2.168 -1.408,-3.926 -3.144,-3.926 l -48.331,0 c -1.736,0 -3.146,1.758 -3.146,3.926 l 0,46.498 c 0,2.168 1.41,3.928 3.146,3.928 l 48.331,0 C -1.408,50.426 0,48.666 0,46.498 L 0,0 z"
         style="fill:none;stroke:#231f20;stroke-width:0.75;stroke-linecap:butt;stroke-linejoin:round;stroke-miterlimit:4;stroke-opacity:1;stroke-dasharray:none"
         id="path3637"
         inkscape:connector-curvature="0" />
    </g>
    <g
       id="g3639"
       transform="matrix(1.25,0,0,-1.25,533.97431,520.73624)">
      <path
         d="m 0,0 c 0,-2.059 -1.338,-3.729 -2.988,-3.729 l -45.913,0 c -1.652,0 -2.99,1.67 -2.99,3.729 l 0,44.432 c 0,2.06 1.338,3.73 2.99,3.73 l 45.913,0 c 1.65,0 2.988,-1.67 2.988,-3.73 L 0,0 z"
         style="fill:#231f20;fill-opacity:1;fill-rule:nonzero;stroke:none"
         id="path3641"
         inkscape:connector-curvature="0" />
    </g>
    <g
       id="g3643"
       transform="matrix(1.25,0,0,-1.25,488.19056,517.28625)">
      <path
         d="m 0,0 c 0.359,0.437 0.769,0.912 0.81,1.681 l 0,5.629 c 0,2.453 -0.826,2.871 -1.632,3.619 -1.336,1.243 -1.135,3 -1.061,5.274 0.205,6.295 0.441,10.088 0.467,15.973 0.002,0.75 0.611,1.361 1.361,1.361 0.75,0 1.362,-0.611 1.362,-1.361 l 0.466,-9.549 0.619,0.017 c 0.1,4.36 0.299,8.76 0.299,13.117 0,0.75 0.612,1.362 1.362,1.362 0.748,0 1.361,-0.612 1.361,-1.362 0,-0.009 0,-0.027 0.004,-0.039 l 0.187,-13.091 0.631,0 c 0.176,4.939 0.53,9.99 0.53,14.923 0,0.75 0.611,1.362 1.359,1.362 0.75,0 1.363,-0.612 1.363,-1.362 l 0,-0.017 0.293,-14.906 0.824,0 c 0.049,4.4 0.098,8.8 0.147,13.203 0.029,0.72 0.637,1.289 1.359,1.289 0.735,0 1.346,-0.59 1.362,-1.33 l 0.671,-17.557 c -0.005,-0.324 0.286,-0.564 0.61,-0.564 0.185,0 0.605,0.132 0.929,0.631 l 3.077,4.458 c 1.168,1.635 2.72,1.958 4.543,1.27 C 22.174,21.906 19.844,16.67 17.478,13.732 16.23,11.781 12.051,9.828 12.051,7.32 l 0,-5.133 c 0,-1.058 1.041,-2.252 0.994,-2.187 L 0,0 z"
         style="fill:#f48412;fill-opacity:1;fill-rule:evenodd;stroke:none"
         id="path3645"
         inkscape:connector-curvature="0" />
    </g>
    <g
       transform="matrix(1.25,0,0,-1.25,-84.23419,1051.5906)"
       id="g3647">
      <g
         id="g3649"
         clip-path="url(#clipPath3651)">
        <g
           id="g3655"
           transform="translate(500.7519,356.9685)">
          <path
             inkscape:connector-curvature="0"
             d="m 0,0 c 0,-2.551 -1.656,-4.619 -3.701,-4.619 l -56.857,0 c -2.045,0 -3.701,2.068 -3.701,4.619 l 0,53.796 c 0,2.551 1.656,4.618 3.701,4.618 l 56.857,0 C -1.656,58.414 0,56.347 0,53.796 L 0,0 z"
             style="fill:none;stroke:#231f20;stroke-width:0.75;stroke-linecap:butt;stroke-linejoin:round;stroke-miterlimit:4;stroke-opacity:1;stroke-dasharray:none"
             id="path3657" />
        </g>
      </g>
    </g>
    <g
       id="g3667"
       transform="matrix(1.25,0,0,-1.25,537.68931,596.23874)">
      <path
         d="m 0,0 0,44.049 c 0,2.297 -1.49,4.159 -3.332,4.159 l -51.171,0 c -1.84,0 -3.33,-1.862 -3.33,-4.159 L -57.833,0 0,0 z"
         style="fill:none;stroke:#231f20;stroke-width:0.79400003;stroke-linecap:butt;stroke-linejoin:round;stroke-miterlimit:4;stroke-opacity:1;stroke-dasharray:none"
         id="path3669"
         inkscape:connector-curvature="0" />
    </g>
    <g
       id="g3671"
       transform="matrix(1.25,0,0,-1.25,535.68068,600.81874)">
      <path
         d="m 0,0 c 0,-2.168 -1.408,-3.926 -3.144,-3.926 l -48.331,0 c -1.736,0 -3.146,1.758 -3.146,3.926 l 0,46.497 c 0,2.169 1.41,3.927 3.146,3.927 l 48.331,0 C -1.408,50.424 0,48.666 0,46.497 L 0,0 z"
         style="fill:#ffffff;fill-opacity:1;fill-rule:nonzero;stroke:none"
         id="path3673"
         inkscape:connector-curvature="0" />
    </g>
    <g
       id="g3675"
       transform="matrix(1.25,0,0,-1.25,535.68068,600.81874)">
      <path
         d="m 0,0 c 0,-2.168 -1.408,-3.926 -3.144,-3.926 l -48.331,0 c -1.736,0 -3.146,1.758 -3.146,3.926 l 0,46.497 c 0,2.169 1.41,3.927 3.146,3.927 l 48.331,0 C -1.408,50.424 0,48.666 0,46.497 L 0,0 z"
         style="fill:none;stroke:#231f20;stroke-width:0.75;stroke-linecap:butt;stroke-linejoin:round;stroke-miterlimit:4;stroke-opacity:1;stroke-dasharray:none"
         id="path3677"
         inkscape:connector-curvature="0" />
    </g>
    <g
       id="g3679"
       transform="matrix(1.25,0,0,-1.25,533.97431,599.52749)">
      <path
         d="m 0,0 c 0,-2.059 -1.338,-3.729 -2.988,-3.729 l -45.913,0 c -1.652,0 -2.99,1.67 -2.99,3.729 l 0,44.43 c 0,2.061 1.338,3.731 2.99,3.731 l 45.913,0 C -1.338,48.161 0,46.491 0,44.43 L 0,0 z"
         style="fill:#231f20;fill-opacity:1;fill-rule:nonzero;stroke:none"
         id="path3681"
         inkscape:connector-curvature="0" />
    </g>
    <g
       id="g3683"
       transform="matrix(1.25,0,0,-1.25,503.66931,547.43375)">
      <path
         d="m 0,0 c -1.569,0 -2.848,-1.28 -2.848,-2.847 0,-1.569 1.279,-2.849 2.848,-2.849 1.568,0 2.847,1.28 2.847,2.849 C 2.847,-1.28 1.568,0 0,0"
         style="fill:#ffffff;fill-opacity:1;fill-rule:evenodd;stroke:none"
         id="path3685"
         inkscape:connector-curvature="0" />
    </g>
    <g
       id="g3687"
       transform="matrix(1.25,0,0,-1.25,514.44806,569.87749)">
      <path
         d="m 0,0 -5.975,3.981 c -0.275,1.167 -1.422,6.349 -3.719,7.548 -2.275,1.506 -10.668,-4.677 -10.714,-4.728 l 0,-9.017 1.818,0.316 0.713,7.199 c 0.683,0.137 1.369,0.276 2.054,0.413 -1.498,-3.873 -2.048,-7.605 -1.185,-10.064 l -3.639,-14.871 2.451,-1.74 5.301,13.763 2.451,-2.609 3.403,-10.363 3.242,1.186 -2.926,10.917 -3.402,6.09 1.304,4.496 L -7.436,0.71 -0.949,-1.425 0,0 z"
         style="fill:#ffffff;fill-opacity:1;fill-rule:evenodd;stroke:none"
         id="path3689"
         inkscape:connector-curvature="0" />
    </g>
    <g
       id="g3691"
       transform="matrix(1.25,0,0,-1.25,321.05806,548.20749)">
      <path
         d="m 0,0 c 0,-2.552 -1.658,-4.619 -3.703,-4.619 l -82.807,0 c -2.045,0 -3.701,2.067 -3.701,4.619 l 0,71.09 c 0,2.551 1.656,4.619 3.701,4.619 l 82.807,0 C -1.658,75.709 0,73.641 0,71.09 L 0,0 z"
         style="fill:none;stroke:#231f20;stroke-width:0.75;stroke-linecap:butt;stroke-linejoin:miter;stroke-miterlimit:4;stroke-opacity:1;stroke-dasharray:none"
         id="path3693"
         inkscape:connector-curvature="0" />
    </g>
    <g
       id="g3695"
       transform="matrix(1.25,0,0,-1.25,317.03931,539.06625)">
      <path
         d="m 0,0 0,61.344 c 0,2.297 -1.49,4.157 -3.33,4.157 l -77.123,0 c -1.84,0 -3.33,-1.86 -3.33,-4.157 L -83.783,0 0,0 z"
         style="fill:none;stroke:#231f20;stroke-width:0.79400003;stroke-linecap:butt;stroke-linejoin:round;stroke-miterlimit:4;stroke-opacity:1;stroke-dasharray:none"
         id="path3697"
         inkscape:connector-curvature="0" />
    </g>
    <g
       id="g3699"
       transform="matrix(1.25,0,0,-1.25,315.03306,543.64875)">
      <path
         d="m 0,0 c 0,-2.166 -1.409,-3.924 -3.147,-3.924 l -74.279,0 c -1.739,0 -3.147,1.758 -3.147,3.924 l 0,63.795 c 0,2.168 1.408,3.926 3.147,3.926 l 74.279,0 C -1.409,67.721 0,65.963 0,63.795 L 0,0 z"
         style="fill:#ffffff;fill-opacity:1;fill-rule:nonzero;stroke:none"
         id="path3701"
         inkscape:connector-curvature="0" />
    </g>
    <g
       id="g3703"
       transform="matrix(1.25,0,0,-1.25,315.03306,543.64875)">
      <path
         d="m 0,0 c 0,-2.166 -1.409,-3.924 -3.147,-3.924 l -74.279,0 c -1.739,0 -3.147,1.758 -3.147,3.924 l 0,63.795 c 0,2.168 1.408,3.926 3.147,3.926 l 74.279,0 C -1.409,67.721 0,65.963 0,63.795 L 0,0 z"
         style="fill:none;stroke:#231f20;stroke-width:0.75;stroke-linecap:butt;stroke-linejoin:round;stroke-miterlimit:4;stroke-opacity:1;stroke-dasharray:none"
         id="path3705"
         inkscape:connector-curvature="0" />
    </g>
    <g
       id="g3707"
       transform="matrix(1.25,0,0,-1.25,313.32569,542.35499)">
      <path
         d="m 0,0 c 0,-2.06 -1.338,-3.73 -2.988,-3.73 l -71.865,0 c -1.651,0 -2.987,1.67 -2.987,3.73 l 0,61.725 c 0,2.06 1.336,3.73 2.987,3.73 l 71.865,0 c 1.65,0 2.988,-1.67 2.988,-3.73 L 0,0 z"
         style="fill:#231f20;fill-opacity:1;fill-rule:nonzero;stroke:none"
         id="path3709"
         inkscape:connector-curvature="0" />
    </g>
    <g
       id="g3711"
       transform="matrix(1.25,0,0,-1.25,229.23606,529.08249)">
      <path
         d="m 0,0 c 0.375,0.455 0.8,0.949 0.844,1.749 l 0,5.86 c 0,2.55 -0.86,2.985 -1.699,3.765 -1.39,1.291 -1.181,3.121 -1.103,5.486 0.213,6.55 0.459,10.498 0.485,16.618 0.003,0.78 0.636,1.417 1.417,1.417 0.78,0 1.417,-0.637 1.417,-1.417 l 0.486,-9.934 0.644,0.016 c 0.102,4.537 0.31,9.115 0.31,13.65 0,0.78 0.636,1.416 1.416,1.416 0.78,0 1.416,-0.636 1.416,-1.416 0,-0.012 0,-0.028 0.004,-0.041 l 0.195,-13.622 0.657,0 c 0.184,5.14 0.551,10.395 0.551,15.528 0,0.781 0.636,1.416 1.415,1.416 0.781,0 1.418,-0.635 1.418,-1.416 0,0 0,-0.017 0,-0.018 l 0.304,-15.51 0.86,0 c 0.049,4.579 0.1,9.158 0.15,13.737 0.032,0.75 0.663,1.342 1.415,1.342 0.764,0 1.4,-0.614 1.417,-1.383 l 0.699,-18.266 c -0.005,-0.337 0.296,-0.588 0.634,-0.588 0.191,0 0.628,0.136 0.967,0.656 l 3.201,4.638 c 1.213,1.702 2.83,2.038 4.726,1.321 -1.175,-2.209 -3.599,-7.657 -6.06,-10.716 -1.297,-2.028 -5.648,-4.06 -5.648,-6.671 l 0,-5.341 c 0,-1.099 1.084,-2.341 1.036,-2.276 L 0,0 z"
         style="fill:#f48412;fill-opacity:1;fill-rule:evenodd;stroke:none"
         id="path3713"
         inkscape:connector-curvature="0" />
    </g>
    <g
       id="g3715"
       transform="matrix(1.25,0,0,-1.25,291.42281,478.46874)">
      <path
         d="m 0,0 c -1.632,0 -2.963,-1.332 -2.963,-2.962 0,-1.633 1.331,-2.963 2.963,-2.963 1.631,0 2.962,1.33 2.962,2.963 C 2.962,-1.332 1.631,0 0,0"
         style="fill:#ffffff;fill-opacity:1;fill-rule:evenodd;stroke:none"
         id="path3717"
         inkscape:connector-curvature="0" />
    </g>
    <g
       id="g3719"
       transform="matrix(1.25,0,0,-1.25,302.63681,501.81999)">
      <path
         d="m 0,0 -6.216,4.141 c -0.287,1.214 -1.478,6.606 -3.869,7.855 -2.369,1.566 -11.1,-4.867 -11.15,-4.92 l 0,-9.383 1.893,0.33 0.741,7.49 c 0.713,0.142 1.426,0.288 2.14,0.43 -1.558,-4.029 -2.132,-7.914 -1.235,-10.472 l -3.786,-15.473 2.552,-1.811 5.515,14.322 2.55,-2.716 3.54,-10.782 3.374,1.234 -3.045,11.358 -3.539,6.337 1.356,4.679 1.442,-1.881 6.749,-2.222 L 0,0 z"
         style="fill:#ffffff;fill-opacity:1;fill-rule:evenodd;stroke:none"
         id="path3721"
         inkscape:connector-curvature="0" />
    </g>
    <text
       style="font-size:14.78416634px"
       y="501.10538"
       x="322.73767"
       transform="scale(1.014599,0.98561107)"
       id="text3723">
      <tspan
         style="font-size:11.41423893px;font-variant:normal;font-weight:normal;font-stretch:normal;writing-mode:lr-tb;fill:#231f20;fill-opacity:1;fill-rule:nonzero;stroke:none;font-family:Helvetica;-inkscape-font-specification:Helvetica"
         x="322.73767 331.61795 430.6022 439.48248"
         y="501.10538"
         sodipodi:role="line"
         id="tspan3725">OROR</tspan>
    </text>
  </g>
</svg>
