<?xml version="1.0" encoding="UTF-8" standalone="no"?>
<!-- Created with Inkscape (http://www.inkscape.org/) -->

<svg
   xmlns:dc="http://purl.org/dc/elements/1.1/"
   xmlns:cc="http://creativecommons.org/ns#"
   xmlns:rdf="http://www.w3.org/1999/02/22-rdf-syntax-ns#"
   xmlns:svg="http://www.w3.org/2000/svg"
   xmlns="http://www.w3.org/2000/svg"
   xmlns:sodipodi="http://sodipodi.sourceforge.net/DTD/sodipodi-0.dtd"
   xmlns:inkscape="http://www.inkscape.org/namespaces/inkscape"
   width="81.25"
   height="158.51793"
   id="svg4781"
   version="1.1"
   inkscape:version="0.48.3.1 r9886"
   sodipodi:docname="New document 8">
  <defs
     id="defs4783" />
  <sodipodi:namedview
     id="base"
     pagecolor="#ffffff"
     bordercolor="#666666"
     borderopacity="1.0"
     inkscape:pageopacity="0.0"
     inkscape:pageshadow="2"
     inkscape:zoom="0.35"
     inkscape:cx="40.61875"
     inkscape:cy="79.267557"
     inkscape:document-units="px"
     inkscape:current-layer="layer1"
     showgrid="false"
     fit-margin-top="0"
     fit-margin-left="0"
     fit-margin-right="0"
     fit-margin-bottom="0"
     inkscape:window-width="451"
     inkscape:window-height="398"
     inkscape:window-x="25"
     inkscape:window-y="25"
     inkscape:window-maximized="0" />
  <metadata
     id="metadata4786">
    <rdf:RDF>
      <cc:Work
         rdf:about="">
        <dc:format>image/svg+xml</dc:format>
        <dc:type
           rdf:resource="http://purl.org/dc/dcmitype/StillImage" />
        <dc:title></dc:title>
      </cc:Work>
    </rdf:RDF>
  </metadata>
  <g
     inkscape:label="Layer 1"
     inkscape:groupmode="layer"
     id="layer1"
     transform="translate(-334.38125,-453.11181)">
    <g
       id="g3327"
       transform="matrix(1.25,0,0,-1.25,415.1625,526.58837)">
      <path
         d="m 0,0 c 0,-2.551 -1.657,-4.619 -3.701,-4.619 l -56.858,0 c -2.044,0 -3.701,2.068 -3.701,4.619 l 0,53.797 c 0,2.551 1.657,4.617 3.701,4.617 l 56.858,0 C -1.657,58.414 0,56.348 0,53.797 L 0,0 z"
         style="fill:none;stroke:#231f20;stroke-width:0.75;stroke-linecap:butt;stroke-linejoin:round;stroke-miterlimit:4;stroke-opacity:1;stroke-dasharray:none"
         id="path3329"
         inkscape:connector-curvature="0" />
    </g>
    <g
       id="g3331"
       transform="matrix(1.25,0,0,-1.25,411.14612,517.44774)">
      <path
         d="m 0,0 0,44.051 c 0,2.297 -1.49,4.158 -3.332,4.158 l -51.171,0 c -1.84,0 -3.331,-1.861 -3.331,-4.158 L -57.834,0 0,0 z"
         style="fill:none;stroke:#231f20;stroke-width:0.79400003;stroke-linecap:butt;stroke-linejoin:round;stroke-miterlimit:4;stroke-opacity:1;stroke-dasharray:none"
         id="path3333"
         inkscape:connector-curvature="0" />
    </g>
    <g
       id="g3335"
       transform="matrix(1.25,0,0,-1.25,409.13612,522.02775)">
      <path
         d="m 0,0 c 0,-2.168 -1.408,-3.926 -3.144,-3.926 l -48.33,0 c -1.737,0 -3.146,1.758 -3.146,3.926 l 0,46.498 c 0,2.168 1.409,3.928 3.146,3.928 l 48.33,0 C -1.408,50.426 0,48.666 0,46.498 L 0,0 z"
         style="fill:#ffffff;fill-opacity:1;fill-rule:nonzero;stroke:none"
         id="path3337"
         inkscape:connector-curvature="0" />
    </g>
    <g
       id="g3339"
       transform="matrix(1.25,0,0,-1.25,409.13612,522.02775)">
      <path
         d="m 0,0 c 0,-2.168 -1.408,-3.926 -3.144,-3.926 l -48.33,0 c -1.737,0 -3.146,1.758 -3.146,3.926 l 0,46.498 c 0,2.168 1.409,3.928 3.146,3.928 l 48.33,0 C -1.408,50.426 0,48.666 0,46.498 L 0,0 z"
         style="fill:none;stroke:#231f20;stroke-width:0.75;stroke-linecap:butt;stroke-linejoin:round;stroke-miterlimit:4;stroke-opacity:1;stroke-dasharray:none"
         id="path3341"
         inkscape:connector-curvature="0" />
    </g>
    <g
       id="g3343"
       transform="matrix(1.25,0,0,-1.25,407.42987,520.73625)">
      <path
         d="m 0,0 c 0,-2.059 -1.338,-3.729 -2.988,-3.729 l -45.912,0 c -1.652,0 -2.989,1.67 -2.989,3.729 l 0,44.432 c 0,2.06 1.337,3.73 2.989,3.73 l 45.912,0 c 1.65,0 2.988,-1.67 2.988,-3.73 L 0,0 z"
         style="fill:#231f20;fill-opacity:1;fill-rule:nonzero;stroke:none"
         id="path3345"
         inkscape:connector-curvature="0" />
    </g>
    <g
       id="g3347"
       transform="matrix(1.25,0,0,-1.25,361.64624,517.28662)">
      <path
         d="m 0,0 c 0.361,0.438 0.77,0.912 0.811,1.682 l 0,5.629 c 0,2.453 -0.826,2.871 -1.632,3.619 -1.336,1.242 -1.135,3 -1.062,5.273 0.206,6.295 0.443,10.088 0.467,15.973 0.003,0.75 0.612,1.361 1.362,1.361 0.75,0 1.362,-0.611 1.362,-1.361 l 0.467,-9.549 0.618,0.018 c 0.099,4.359 0.299,8.759 0.299,13.117 0,0.75 0.611,1.361 1.361,1.361 0.749,0 1.361,-0.611 1.361,-1.361 0,-0.01 0,-0.028 0.004,-0.039 l 0.188,-13.092 0.631,0 c 0.176,4.939 0.529,9.99 0.529,14.924 0,0.75 0.611,1.361 1.36,1.361 0.75,0 1.363,-0.611 1.363,-1.361 l 0,-0.018 0.292,-14.906 0.826,0 c 0.048,4.4 0.097,8.801 0.145,13.203 0.03,0.721 0.637,1.289 1.361,1.289 0.734,0 1.345,-0.59 1.36,-1.33 l 0.673,-17.557 c -0.006,-0.324 0.284,-0.564 0.609,-0.564 0.185,0 0.605,0.133 0.93,0.631 l 3.076,4.459 c 1.167,1.634 2.721,1.957 4.542,1.269 C 22.174,21.906 19.845,16.67 17.479,13.732 16.232,11.781 12.051,9.828 12.051,7.32 l 0,-5.132 c 0,-1.059 1.041,-2.252 0.995,-2.188 L 0,0 z"
         style="fill:#f48412;fill-opacity:1;fill-rule:evenodd;stroke:none"
         id="path3349"
         inkscape:connector-curvature="0" />
    </g>
    <g
       id="g3351"
       transform="matrix(1.25,0,0,-1.25,377.12612,468.64162)">
      <path
         d="m 0,0 c -1.568,0 -2.849,-1.279 -2.849,-2.848 0,-1.568 1.281,-2.847 2.849,-2.847 1.568,0 2.847,1.279 2.847,2.847 C 2.847,-1.279 1.568,0 0,0"
         style="fill:#ffffff;fill-opacity:1;fill-rule:evenodd;stroke:none"
         id="path3353"
         inkscape:connector-curvature="0" />
    </g>
    <g
       id="g3355"
       transform="matrix(1.25,0,0,-1.25,387.90362,491.08537)">
      <path
         d="m 0,0 -5.974,3.98 c -0.276,1.168 -1.421,6.35 -3.719,7.549 -2.276,1.506 -10.667,-4.677 -10.715,-4.728 l 0,-9.018 1.818,0.317 0.713,7.199 c 0.685,0.136 1.37,0.275 2.056,0.414 -1.498,-3.873 -2.049,-7.606 -1.187,-10.065 l -3.638,-14.871 2.452,-1.74 5.3,13.764 2.452,-2.61 3.402,-10.363 3.242,1.186 -2.927,10.918 -3.401,6.089 1.304,4.497 1.387,-1.807 6.487,-2.137 L 0,0 z"
         style="fill:#ffffff;fill-opacity:1;fill-rule:evenodd;stroke:none"
         id="path3357"
         inkscape:connector-curvature="0" />
    </g>
    <g
       id="g3359"
       transform="matrix(1.25,0,0,-1.25,415.1625,605.37974)">
      <path
         d="m 0,0 c 0,-2.551 -1.657,-4.619 -3.701,-4.619 l -56.858,0 c -2.044,0 -3.701,2.068 -3.701,4.619 l 0,53.797 c 0,2.551 1.657,4.617 3.701,4.617 l 56.858,0 C -1.657,58.414 0,56.348 0,53.797 L 0,0 z"
         style="fill:none;stroke:#231f20;stroke-width:0.75;stroke-linecap:butt;stroke-linejoin:round;stroke-miterlimit:4;stroke-opacity:1;stroke-dasharray:none"
         id="path3361"
         inkscape:connector-curvature="0" />
    </g>
    <g
       id="g3363"
       transform="matrix(1.25,0,0,-1.25,411.14612,596.23975)">
      <path
         d="m 0,0 0,44.051 c 0,2.297 -1.49,4.158 -3.332,4.158 l -51.171,0 c -1.84,0 -3.331,-1.861 -3.331,-4.158 L -57.834,0 0,0 z"
         style="fill:none;stroke:#231f20;stroke-width:0.79400003;stroke-linecap:butt;stroke-linejoin:round;stroke-miterlimit:4;stroke-opacity:1;stroke-dasharray:none"
         id="path3365"
         inkscape:connector-curvature="0" />
    </g>
    <g
       id="g3367"
       transform="matrix(1.25,0,0,-1.25,409.13612,600.81987)">
      <path
         d="m 0,0 c 0,-2.168 -1.408,-3.925 -3.144,-3.925 l -48.33,0 c -1.737,0 -3.146,1.757 -3.146,3.925 l 0,46.498 c 0,2.168 1.409,3.928 3.146,3.928 l 48.33,0 C -1.408,50.426 0,48.666 0,46.498 L 0,0 z"
         style="fill:#ffffff;fill-opacity:1;fill-rule:nonzero;stroke:none"
         id="path3369"
         inkscape:connector-curvature="0" />
    </g>
    <g
       id="g3371"
       transform="matrix(1.25,0,0,-1.25,409.13612,600.81987)">
      <path
         d="m 0,0 c 0,-2.168 -1.408,-3.925 -3.144,-3.925 l -48.33,0 c -1.737,0 -3.146,1.757 -3.146,3.925 l 0,46.498 c 0,2.168 1.409,3.928 3.146,3.928 l 48.33,0 C -1.408,50.426 0,48.666 0,46.498 L 0,0 z"
         style="fill:none;stroke:#231f20;stroke-width:0.75;stroke-linecap:butt;stroke-linejoin:round;stroke-miterlimit:4;stroke-opacity:1;stroke-dasharray:none"
         id="path3373"
         inkscape:connector-curvature="0" />
    </g>
    <g
       id="g3375"
       transform="matrix(1.25,0,0,-1.25,407.42987,599.52725)">
      <path
         d="m 0,0 c 0,-2.059 -1.338,-3.729 -2.988,-3.729 l -45.912,0 c -1.652,0 -2.989,1.67 -2.989,3.729 l 0,44.431 c 0,2.061 1.337,3.731 2.989,3.731 l 45.912,0 C -1.338,48.162 0,46.492 0,44.431 L 0,0 z"
         style="fill:#231f20;fill-opacity:1;fill-rule:nonzero;stroke:none"
         id="path3377"
         inkscape:connector-curvature="0" />
    </g>
    <g
       id="g3379"
       transform="matrix(1.25,0,0,-1.25,367.68112,551.7485)">
      <path
         d="m 0,0 0,-7.143 0,-7.14 1.777,-1.724 1.772,1.724 0,7.14 L 3.549,0 1.777,1.722 0,0 z"
         style="fill:#f48412;fill-opacity:1;fill-rule:nonzero;stroke:none"
         id="path3381"
         inkscape:connector-curvature="0" />
    </g>
    <g
       id="g3383"
       transform="matrix(1.25,0,0,-1.25,367.68112,551.7485)">
      <path
         d="m 0,0 0,-7.143 0,-7.14 1.777,-1.724 1.772,1.724 0,7.14 L 3.549,0 1.777,1.722 0,0 z"
         style="fill:none;stroke:#231f20;stroke-width:0.5;stroke-linecap:butt;stroke-linejoin:miter;stroke-miterlimit:4;stroke-opacity:1;stroke-dasharray:none"
         id="path3385"
         inkscape:connector-curvature="0" />
    </g>
    <g
       id="g3387"
       transform="matrix(1.25,0,0,-1.25,367.68112,573.9135)">
      <path
         d="m 0,0 0,-7.141 0,-7.14 1.777,-1.725 1.772,1.725 0,7.14 L 3.549,0 1.777,1.725 0,0 z"
         style="fill:#f48412;fill-opacity:1;fill-rule:nonzero;stroke:none"
         id="path3389"
         inkscape:connector-curvature="0" />
    </g>
    <g
       id="g3391"
       transform="matrix(1.25,0,0,-1.25,367.68112,573.9135)">
      <path
         d="m 0,0 0,-7.141 0,-7.14 1.777,-1.725 1.772,1.725 0,7.14 L 3.549,0 1.777,1.725 0,0 z"
         style="fill:none;stroke:#231f20;stroke-width:0.5;stroke-linecap:butt;stroke-linejoin:miter;stroke-miterlimit:4;stroke-opacity:1;stroke-dasharray:none"
         id="path3393"
         inkscape:connector-curvature="0" />
    </g>
    <g
       id="g3395"
       transform="matrix(1.25,0,0,-1.25,395.69487,569.60237)">
      <path
         d="m 0,0 -5.351,0 -5.352,0 -1.775,-1.724 1.775,-1.725 5.352,0 5.351,0 1.774,1.725 L 0,0 z"
         style="fill:#f48412;fill-opacity:1;fill-rule:nonzero;stroke:none"
         id="path3397"
         inkscape:connector-curvature="0" />
    </g>
    <g
       id="g3399"
       transform="matrix(1.25,0,0,-1.25,395.69487,569.60237)">
      <path
         d="m 0,0 -5.351,0 -5.352,0 -1.775,-1.724 1.775,-1.725 5.352,0 5.351,0 1.774,1.725 L 0,0 z"
         style="fill:none;stroke:#231f20;stroke-width:0.5;stroke-linecap:butt;stroke-linejoin:miter;stroke-miterlimit:4;stroke-opacity:1;stroke-dasharray:none"
         id="path3401"
         inkscape:connector-curvature="0" />
    </g>
    <g
       id="g3403"
       transform="matrix(1.25,0,0,-1.25,377.88237,551.7485)">
      <path
         d="m 0,0 0,-7.143 0,-7.14 1.772,-1.724 1.775,1.724 0,7.14 L 3.547,0 1.772,1.722 0,0 z"
         style="fill:#f48412;fill-opacity:1;fill-rule:nonzero;stroke:none"
         id="path3405"
         inkscape:connector-curvature="0" />
    </g>
    <g
       id="g3407"
       transform="matrix(1.25,0,0,-1.25,377.88237,551.7485)">
      <path
         d="m 0,0 0,-7.143 0,-7.14 1.772,-1.724 1.775,1.724 0,7.14 L 3.547,0 1.772,1.722 0,0 z"
         style="fill:none;stroke:#231f20;stroke-width:0.5;stroke-linecap:butt;stroke-linejoin:miter;stroke-miterlimit:4;stroke-opacity:1;stroke-dasharray:none"
         id="path3409"
         inkscape:connector-curvature="0" />
    </g>
    <g
       id="g3411"
       transform="matrix(1.25,0,0,-1.25,395.69487,573.9135)">
      <path
         d="m 0,0 0,-7.141 0,-7.14 1.774,-1.725 1.773,1.725 0,7.14 L 3.547,0 1.774,1.725 0,0 z"
         style="fill:#f48412;fill-opacity:1;fill-rule:nonzero;stroke:none"
         id="path3413"
         inkscape:connector-curvature="0" />
    </g>
    <g
       id="g3415"
       transform="matrix(1.25,0,0,-1.25,395.69487,573.9135)">
      <path
         d="m 0,0 0,-7.141 0,-7.14 1.774,-1.725 1.773,1.725 0,7.14 L 3.547,0 1.774,1.725 0,0 z"
         style="fill:none;stroke:#231f20;stroke-width:0.5;stroke-linecap:butt;stroke-linejoin:miter;stroke-miterlimit:4;stroke-opacity:1;stroke-dasharray:none"
         id="path3417"
         inkscape:connector-curvature="0" />
    </g>
    <g
       id="g3419"
       transform="matrix(1.25,0,0,-1.25,395.69487,547.43975)">
      <path
         d="m 0,0 -5.351,0 -5.352,0 -1.775,-1.725 1.775,-1.722 5.352,0 5.351,0 1.774,1.722 L 0,0 z"
         style="fill:#f48412;fill-opacity:1;fill-rule:nonzero;stroke:none"
         id="path3421"
         inkscape:connector-curvature="0" />
    </g>
    <g
       id="g3423"
       transform="matrix(1.25,0,0,-1.25,395.69487,547.43975)">
      <path
         d="m 0,0 -5.351,0 -5.352,0 -1.775,-1.725 1.775,-1.722 5.352,0 5.351,0 1.774,1.722 L 0,0 z"
         style="fill:none;stroke:#231f20;stroke-width:0.5;stroke-linecap:butt;stroke-linejoin:miter;stroke-miterlimit:4;stroke-opacity:1;stroke-dasharray:none"
         id="path3425"
         inkscape:connector-curvature="0" />
    </g>
    <g
       id="g3427"
       transform="matrix(1.25,0,0,-1.25,395.69487,591.76474)">
      <path
         d="m 0,0 -5.351,0 -5.352,0 -1.775,-1.725 1.775,-1.723 5.352,0 5.351,0 1.774,1.723 L 0,0 z"
         style="fill:#f48412;fill-opacity:1;fill-rule:nonzero;stroke:none"
         id="path3429"
         inkscape:connector-curvature="0" />
    </g>
    <g
       id="g3431"
       transform="matrix(1.25,0,0,-1.25,395.69487,591.76474)">
      <path
         d="m 0,0 -5.351,0 -5.352,0 -1.775,-1.725 1.775,-1.723 5.352,0 5.351,0 1.774,1.723 L 0,0 z m -22.411,14.281 0,-7.141 0,-7.14 1.775,-1.725 1.774,1.725 0,7.14 0,7.141 -1.774,1.725 -1.775,-1.725 z"
         style="fill:none;stroke:#231f20;stroke-width:0.5;stroke-linecap:butt;stroke-linejoin:miter;stroke-miterlimit:4;stroke-opacity:1;stroke-dasharray:none"
         id="path3433"
         inkscape:connector-curvature="0" />
    </g>
  </g>
</svg>
