<?xml version="1.0" encoding="UTF-8" standalone="no"?>
<!-- Created with Inkscape (http://www.inkscape.org/) -->

<svg
   xmlns:dc="http://purl.org/dc/elements/1.1/"
   xmlns:cc="http://creativecommons.org/ns#"
   xmlns:rdf="http://www.w3.org/1999/02/22-rdf-syntax-ns#"
   xmlns:svg="http://www.w3.org/2000/svg"
   xmlns="http://www.w3.org/2000/svg"
   xmlns:sodipodi="http://sodipodi.sourceforge.net/DTD/sodipodi-0.dtd"
   xmlns:inkscape="http://www.inkscape.org/namespaces/inkscape"
   width="113.69975"
   height="101.36719"
   id="svg4608"
   version="1.1"
   inkscape:version="0.48.3.1 r9886"
   sodipodi:docname="New document 6">
  <defs
     id="defs4610">
    <clipPath
       clipPathUnits="userSpaceOnUse"
       id="clipPath3227">
      <path
         inkscape:connector-curvature="0"
         d="m 201.518,351.975 331.739,0 0,314.25 -331.739,0 0,-314.25 z"
         id="path3229" />
    </clipPath>
  </defs>
  <sodipodi:namedview
     id="base"
     pagecolor="#ffffff"
     bordercolor="#666666"
     borderopacity="1.0"
     inkscape:pageopacity="0.0"
     inkscape:pageshadow="2"
     inkscape:zoom="0.35"
     inkscape:cx="56.849875"
     inkscape:cy="50.681292"
     inkscape:document-units="px"
     inkscape:current-layer="layer1"
     showgrid="false"
     fit-margin-top="0"
     fit-margin-left="0"
     fit-margin-right="0"
     fit-margin-bottom="0"
     inkscape:window-width="451"
     inkscape:window-height="398"
     inkscape:window-x="150"
     inkscape:window-y="150"
     inkscape:window-maximized="0" />
  <metadata
     id="metadata4613">
    <rdf:RDF>
      <cc:Work
         rdf:about="">
        <dc:format>image/svg+xml</dc:format>
        <dc:type
           rdf:resource="http://purl.org/dc/dcmitype/StillImage" />
        <dc:title></dc:title>
      </cc:Work>
    </rdf:RDF>
  </metadata>
  <g
     inkscape:label="Layer 1"
     inkscape:groupmode="layer"
     id="layer1"
     transform="translate(-318.15012,-481.67629)">
    <g
       transform="matrix(1.25,0,0,-1.25,66.252625,1272.1691)"
       id="g3223">
      <g
         id="g3225"
         clip-path="url(#clipPath3227)">
        <g
           id="g3231"
           transform="translate(292.1028,556.3005)">
          <path
             inkscape:connector-curvature="0"
             d="m 0,0 c 0,-2.552 -1.658,-4.619 -3.703,-4.619 l -82.806,0 c -2.045,0 -3.701,2.067 -3.701,4.619 l 0,71.09 c 0,2.551 1.656,4.619 3.701,4.619 l 82.806,0 C -1.658,75.709 0,73.641 0,71.09 L 0,0 z"
             style="fill:none;stroke:#231f20;stroke-width:0.75;stroke-linecap:butt;stroke-linejoin:miter;stroke-miterlimit:4;stroke-opacity:1;stroke-dasharray:none"
             id="path3233" />
        </g>
      </g>
    </g>
    <g
       id="g3243"
       transform="matrix(1.25,0,0,-1.25,427.3625,567.65342)">
      <path
         d="m 0,0 0,61.344 c 0,2.297 -1.49,4.158 -3.33,4.158 l -77.122,0 c -1.84,0 -3.33,-1.861 -3.33,-4.158 L -83.782,0 0,0 z"
         style="fill:none;stroke:#231f20;stroke-width:0.79400003;stroke-linecap:butt;stroke-linejoin:round;stroke-miterlimit:4;stroke-opacity:1;stroke-dasharray:none"
         id="path3245"
         inkscape:connector-curvature="0" />
    </g>
    <g
       id="g3247"
       transform="matrix(1.25,0,0,-1.25,425.35575,572.23343)">
      <path
         d="m 0,0 c 0,-2.168 -1.408,-3.926 -3.146,-3.926 l -74.279,0 c -1.738,0 -3.146,1.758 -3.146,3.926 l 0,63.793 c 0,2.169 1.408,3.926 3.146,3.926 l 74.279,0 C -1.408,67.719 0,65.962 0,63.793 L 0,0 z"
         style="fill:#ffffff;fill-opacity:1;fill-rule:nonzero;stroke:none"
         id="path3249"
         inkscape:connector-curvature="0" />
    </g>
    <g
       id="g3251"
       transform="matrix(1.25,0,0,-1.25,425.35575,572.23343)">
      <path
         d="m 0,0 c 0,-2.168 -1.408,-3.926 -3.146,-3.926 l -74.279,0 c -1.738,0 -3.146,1.758 -3.146,3.926 l 0,63.793 c 0,2.169 1.408,3.926 3.146,3.926 l 74.279,0 C -1.408,67.719 0,65.962 0,63.793 L 0,0 z"
         style="fill:none;stroke:#231f20;stroke-width:0.75;stroke-linecap:butt;stroke-linejoin:round;stroke-miterlimit:4;stroke-opacity:1;stroke-dasharray:none"
         id="path3253"
         inkscape:connector-curvature="0" />
    </g>
    <g
       id="g3255"
       transform="matrix(1.25,0,0,-1.25,423.64913,570.9423)">
      <path
         d="m 0,0 c 0,-2.059 -1.338,-3.729 -2.988,-3.729 l -71.865,0 c -1.65,0 -2.986,1.67 -2.986,3.729 l 0,61.725 c 0,2.061 1.336,3.73 2.986,3.73 l 71.865,0 C -1.338,65.455 0,63.786 0,61.725 L 0,0 z"
         style="fill:#231f20;fill-opacity:1;fill-rule:nonzero;stroke:none"
         id="path3257"
         inkscape:connector-curvature="0" />
    </g>
    <g
       id="g3259"
       transform="matrix(1.25,0,0,-1.25,386.10275,512.35468)">
      <path
         d="m 0,0 0,-7.144 0,-7.139 1.776,-1.724 1.773,1.724 0,7.139 L 3.549,0 1.776,1.722 0,0 z"
         style="fill:#f48412;fill-opacity:1;fill-rule:nonzero;stroke:none"
         id="path3261"
         inkscape:connector-curvature="0" />
    </g>
    <g
       id="g3263"
       transform="matrix(1.25,0,0,-1.25,386.10275,512.35468)">
      <path
         d="m 0,0 0,-7.144 0,-7.139 1.776,-1.724 1.773,1.724 0,7.139 L 3.549,0 1.776,1.722 0,0 z"
         style="fill:none;stroke:#231f20;stroke-width:0.5;stroke-linecap:butt;stroke-linejoin:miter;stroke-miterlimit:4;stroke-opacity:1;stroke-dasharray:none"
         id="path3265"
         inkscape:connector-curvature="0" />
    </g>
    <g
       id="g3267"
       transform="matrix(1.25,0,0,-1.25,386.10275,534.52018)">
      <path
         d="m 0,0 0,-7.141 0,-7.139 1.776,-1.726 1.773,1.726 0,7.139 L 3.549,0 1.776,1.726 0,0 z"
         style="fill:#f48412;fill-opacity:1;fill-rule:nonzero;stroke:none"
         id="path3269"
         inkscape:connector-curvature="0" />
    </g>
    <g
       id="g3271"
       transform="matrix(1.25,0,0,-1.25,386.10275,534.52018)">
      <path
         d="m 0,0 0,-7.141 0,-7.139 1.776,-1.726 1.773,1.726 0,7.139 L 3.549,0 1.776,1.726 0,0 z"
         style="fill:none;stroke:#231f20;stroke-width:0.5;stroke-linecap:butt;stroke-linejoin:miter;stroke-miterlimit:4;stroke-opacity:1;stroke-dasharray:none"
         id="path3273"
         inkscape:connector-curvature="0" />
    </g>
    <g
       id="g3275"
       transform="matrix(1.25,0,0,-1.25,414.1155,530.2088)">
      <path
         d="m 0,0 -5.351,0 -5.351,0 -1.776,-1.724 1.776,-1.725 5.351,0 5.351,0 1.774,1.725 L 0,0 z"
         style="fill:#f48412;fill-opacity:1;fill-rule:nonzero;stroke:none"
         id="path3277"
         inkscape:connector-curvature="0" />
    </g>
    <g
       id="g3279"
       transform="matrix(1.25,0,0,-1.25,414.1155,530.2088)">
      <path
         d="m 0,0 -5.351,0 -5.351,0 -1.776,-1.724 1.776,-1.725 5.351,0 5.351,0 1.774,1.725 L 0,0 z"
         style="fill:none;stroke:#231f20;stroke-width:0.5;stroke-linecap:butt;stroke-linejoin:miter;stroke-miterlimit:4;stroke-opacity:1;stroke-dasharray:none"
         id="path3281"
         inkscape:connector-curvature="0" />
    </g>
    <g
       id="g3283"
       transform="matrix(1.25,0,0,-1.25,396.303,512.35468)">
      <path
         d="m 0,0 0,-7.144 0,-7.139 1.772,-1.724 1.776,1.724 0,7.139 L 3.548,0 1.772,1.722 0,0 z"
         style="fill:#f48412;fill-opacity:1;fill-rule:nonzero;stroke:none"
         id="path3285"
         inkscape:connector-curvature="0" />
    </g>
    <g
       id="g3287"
       transform="matrix(1.25,0,0,-1.25,396.303,512.35468)">
      <path
         d="m 0,0 0,-7.144 0,-7.139 1.772,-1.724 1.776,1.724 0,7.139 L 3.548,0 1.772,1.722 0,0 z"
         style="fill:none;stroke:#231f20;stroke-width:0.5;stroke-linecap:butt;stroke-linejoin:miter;stroke-miterlimit:4;stroke-opacity:1;stroke-dasharray:none"
         id="path3289"
         inkscape:connector-curvature="0" />
    </g>
    <g
       id="g3291"
       transform="matrix(1.25,0,0,-1.25,414.1155,534.52018)">
      <path
         d="m 0,0 0,-7.141 0,-7.139 1.774,-1.726 1.774,1.726 0,7.139 L 3.548,0 1.774,1.726 0,0 z"
         style="fill:#f48412;fill-opacity:1;fill-rule:nonzero;stroke:none"
         id="path3293"
         inkscape:connector-curvature="0" />
    </g>
    <g
       id="g3295"
       transform="matrix(1.25,0,0,-1.25,414.1155,534.52018)">
      <path
         d="m 0,0 0,-7.141 0,-7.139 1.774,-1.726 1.774,1.726 0,7.139 L 3.548,0 1.774,1.726 0,0 z"
         style="fill:none;stroke:#231f20;stroke-width:0.5;stroke-linecap:butt;stroke-linejoin:miter;stroke-miterlimit:4;stroke-opacity:1;stroke-dasharray:none"
         id="path3297"
         inkscape:connector-curvature="0" />
    </g>
    <g
       id="g3299"
       transform="matrix(1.25,0,0,-1.25,414.1155,508.04567)">
      <path
         d="m 0,0 -5.351,0 -5.351,0 -1.776,-1.726 1.776,-1.721 5.351,0 5.351,0 1.774,1.721 L 0,0 z"
         style="fill:#f48412;fill-opacity:1;fill-rule:nonzero;stroke:none"
         id="path3301"
         inkscape:connector-curvature="0" />
    </g>
    <g
       id="g3303"
       transform="matrix(1.25,0,0,-1.25,414.1155,508.04567)">
      <path
         d="m 0,0 -5.351,0 -5.351,0 -1.776,-1.726 1.776,-1.721 5.351,0 5.351,0 1.774,1.721 L 0,0 z"
         style="fill:none;stroke:#231f20;stroke-width:0.5;stroke-linecap:butt;stroke-linejoin:miter;stroke-miterlimit:4;stroke-opacity:1;stroke-dasharray:none"
         id="path3305"
         inkscape:connector-curvature="0" />
    </g>
    <g
       id="g3307"
       transform="matrix(1.25,0,0,-1.25,414.1155,552.37055)">
      <path
         d="m 0,0 -5.351,0 -5.351,0 -1.776,-1.726 1.776,-1.722 5.351,0 5.351,0 1.774,1.722 L 0,0 z"
         style="fill:#f48412;fill-opacity:1;fill-rule:nonzero;stroke:none"
         id="path3309"
         inkscape:connector-curvature="0" />
    </g>
    <g
       id="g3311"
       transform="matrix(1.25,0,0,-1.25,414.1155,552.37055)">
      <path
         d="m 0,0 -5.351,0 -5.351,0 -1.776,-1.726 1.776,-1.722 5.351,0 5.351,0 1.774,1.722 L 0,0 z m -22.41,14.28 0,-7.14 0,-7.14 1.774,-1.726 1.775,1.726 0,7.14 0,7.14 -1.775,1.726 -1.774,-1.726 z"
         style="fill:none;stroke:#231f20;stroke-width:0.5;stroke-linecap:butt;stroke-linejoin:miter;stroke-miterlimit:4;stroke-opacity:1;stroke-dasharray:none"
         id="path3313"
         inkscape:connector-curvature="0" />
    </g>
    <g
       id="g3315"
       transform="matrix(1.25,0,0,-1.25,333.71399,557.66842)">
      <path
         d="m 0,0 c 0.375,0.455 0.801,0.949 0.845,1.749 l 0,5.859 c 0,2.551 -0.861,2.986 -1.7,3.766 -1.389,1.291 -1.18,3.121 -1.103,5.485 0.213,6.551 0.46,10.498 0.485,16.619 0.003,0.78 0.636,1.417 1.417,1.417 0.781,0 1.417,-0.637 1.417,-1.417 l 0.486,-9.934 0.644,0.016 c 0.102,4.537 0.31,9.115 0.31,13.65 0,0.779 0.636,1.416 1.417,1.416 0.779,0 1.415,-0.637 1.415,-1.416 0,-0.013 0,-0.028 0.005,-0.041 l 0.195,-13.622 0.656,0 c 0.184,5.14 0.551,10.394 0.551,15.528 0,0.78 0.637,1.416 1.415,1.416 0.781,0 1.418,-0.636 1.418,-1.416 l 0,-0.018 0.305,-15.51 0.859,0 c 0.049,4.579 0.101,9.158 0.151,13.737 0.032,0.75 0.662,1.342 1.414,1.342 0.764,0 1.401,-0.614 1.417,-1.383 l 0.7,-18.266 c -0.006,-0.337 0.296,-0.588 0.633,-0.588 0.192,0 0.628,0.135 0.967,0.656 l 3.202,4.638 c 1.212,1.702 2.829,2.038 4.725,1.321 -1.175,-2.209 -3.6,-7.657 -6.06,-10.716 -1.297,-2.028 -5.648,-4.06 -5.648,-6.671 l 0,-5.342 c 0,-1.098 1.084,-2.34 1.036,-2.275 L 0,0 z"
         style="fill:#f48412;fill-opacity:1;fill-rule:evenodd;stroke:none"
         id="path3317"
         inkscape:connector-curvature="0" />
    </g>
    <g
       id="g3319"
       transform="matrix(1.25,0,0,-1.25,349.81988,507.05505)">
      <path
         d="m 0,0 c -1.632,0 -2.963,-1.331 -2.963,-2.962 0,-1.633 1.331,-2.964 2.963,-2.964 1.632,0 2.963,1.331 2.963,2.964 C 2.963,-1.331 1.632,0 0,0"
         style="fill:#ffffff;fill-opacity:1;fill-rule:evenodd;stroke:none"
         id="path3321"
         inkscape:connector-curvature="0" />
    </g>
    <g
       id="g3323"
       transform="matrix(1.25,0,0,-1.25,361.03437,530.40718)">
      <path
         d="m 0,0 -6.216,4.142 c -0.288,1.214 -1.478,6.606 -3.869,7.854 -2.369,1.567 -11.1,-4.866 -11.15,-4.919 l 0,-9.383 1.893,0.33 0.741,7.49 c 0.713,0.142 1.426,0.287 2.139,0.429 -1.558,-4.029 -2.131,-7.913 -1.234,-10.472 l -3.786,-15.472 2.551,-1.81 5.515,14.32 2.551,-2.716 3.54,-10.782 3.374,1.235 -3.045,11.358 -3.539,6.337 1.355,4.678 1.443,-1.88 6.749,-2.222 L 0,0 z"
         style="fill:#ffffff;fill-opacity:1;fill-rule:evenodd;stroke:none"
         id="path3325"
         inkscape:connector-curvature="0" />
    </g>
  </g>
</svg>
