<?xml version="1.0" encoding="UTF-8" standalone="no"?>
<!-- Created with Inkscape (http://www.inkscape.org/) -->

<svg
   xmlns:dc="http://purl.org/dc/elements/1.1/"
   xmlns:cc="http://creativecommons.org/ns#"
   xmlns:rdf="http://www.w3.org/1999/02/22-rdf-syntax-ns#"
   xmlns:svg="http://www.w3.org/2000/svg"
   xmlns="http://www.w3.org/2000/svg"
   xmlns:sodipodi="http://sodipodi.sourceforge.net/DTD/sodipodi-0.dtd"
   xmlns:inkscape="http://www.inkscape.org/namespaces/inkscape"
   width="37.481251"
   height="37.486252"
   id="svg4457"
   version="1.1"
   inkscape:version="0.48.3.1 r9886"
   sodipodi:docname="New document 12">
  <defs
     id="defs4459" />
  <sodipodi:namedview
     id="base"
     pagecolor="#ffffff"
     bordercolor="#666666"
     borderopacity="1.0"
     inkscape:pageopacity="0.0"
     inkscape:pageshadow="2"
     inkscape:zoom="0.35"
     inkscape:cx="18.74063"
     inkscape:cy="18.743127"
     inkscape:document-units="px"
     inkscape:current-layer="layer1"
     showgrid="false"
     fit-margin-top="0"
     fit-margin-left="0"
     fit-margin-right="0"
     fit-margin-bottom="0"
     inkscape:window-width="451"
     inkscape:window-height="415"
     inkscape:window-x="125"
     inkscape:window-y="125"
     inkscape:window-maximized="0" />
  <metadata
     id="metadata4462">
    <rdf:RDF>
      <cc:Work
         rdf:about="">
        <dc:format>image/svg+xml</dc:format>
        <dc:type
           rdf:resource="http://purl.org/dc/dcmitype/StillImage" />
        <dc:title></dc:title>
      </cc:Work>
    </rdf:RDF>
  </metadata>
  <g
     inkscape:label="Layer 1"
     inkscape:groupmode="layer"
     id="layer1"
     transform="translate(-356.25937,-513.61906)">
    <g
       id="g3855"
       transform="matrix(1.25,0,0,-1.25,356.25937,548.10406)">
      <path
         d="m 0,0 0,25.187 c 0,1.313 1.089,2.397 2.4,2.401 l 25.186,-0.002 c 1.313,0 2.395,-1.086 2.399,-2.399 l 0,-25.185 C 29.981,-1.313 28.901,-2.397 27.584,-2.399 L 2.4,-2.401 C 1.087,-2.397 0,-1.313 0,0"
         style="fill:#231f20;fill-opacity:1;fill-rule:evenodd;stroke:none"
         id="path3857"
         inkscape:connector-curvature="0" />
    </g>
    <g
       id="g3859"
       transform="matrix(1.25,0,0,-1.25,357.867,548.0853)">
      <path
         d="m 0,0 0,25.155 c -0.01,0.623 0.509,1.14 1.131,1.131 l 25.152,0 c 0.621,0.011 1.142,-0.51 1.131,-1.131 l 0,-25.153 c 0.011,-0.623 -0.51,-1.142 -1.131,-1.13 l -25.154,0 C 0.509,-1.14 -0.01,-0.621 0,0"
         style="fill:#f48412;fill-opacity:1;fill-rule:evenodd;stroke:none"
         id="path3861"
         inkscape:connector-curvature="0" />
    </g>
    <g
       id="g3863"
       transform="matrix(1.25,0,0,-1.25,390.44687,529.7253)">
      <path
         d="m 0,0 c 0,2.918 -2.323,5.092 -5.536,5.092 -0.89,0 -1.581,-0.098 -2.72,-0.346 l 0.149,2.027 6.97,0 0.049,2.471 -9.39,0 -0.446,-6.623 2.522,-0.642 c 1.037,0.394 1.779,0.542 2.718,0.542 1.038,0 1.779,-0.197 2.274,-0.593 0.543,-0.444 0.889,-1.186 0.889,-1.928 0,-1.58 -1.285,-2.521 -3.412,-2.521 -1.432,0 -2.866,0.396 -4.102,1.136 l -1.334,-2.123 C -9.59,-4.596 -7.859,-5.1 -5.933,-5.1 -2.473,-5.1 0,-2.965 0,0 m -13.348,-0.445 c 0,1.336 -0.392,2.076 -1.777,3.312 0.839,1.088 1.137,1.731 1.137,2.67 0,2.274 -2.077,3.955 -4.895,3.955 -2.025,0 -3.756,-0.742 -5.14,-2.176 l 1.879,-1.73 c 0.837,0.891 1.927,1.385 3.113,1.385 1.484,0 2.472,-0.643 2.472,-1.483 0,-0.791 -0.791,-1.384 -1.878,-1.384 l -0.594,0 0,-2.522 0.691,0 c 0.545,0 0.99,-0.098 1.385,-0.297 0.644,-0.346 1.087,-1.137 1.087,-1.828 0,-1.186 -1.185,-1.978 -2.915,-1.978 -1.633,0 -2.918,0.544 -3.904,1.83 l -2.029,-1.534 c 0.495,-0.591 0.743,-0.839 1.087,-1.136 1.237,-1.135 2.967,-1.739 4.697,-1.739 3.165,0 5.584,2.036 5.584,4.655"
         style="fill:#231f20;fill-opacity:1;fill-rule:evenodd;stroke:none"
         id="path3865"
         inkscape:connector-curvature="0" />
    </g>
    <g
       id="g3867"
       transform="matrix(1.25,0,0,-1.25,386.7095,546.86406)">
      <path
         d="m 0,0 0,5.283 -0.944,0 0,-2.039 -2.373,0 0,2.039 -0.946,0 0,-5.283 0.946,0 0,2.299 2.373,0.017 L -0.944,0 0,0 z m -7.461,3.67 c 0,-0.389 -0.317,-0.649 -0.78,-0.649 l -1.537,0 0,1.317 1.537,0 c 0.463,0 0.78,-0.26 0.78,-0.668 m 0.943,0 c 0,0.594 -0.314,1.113 -0.814,1.391 -0.297,0.166 -0.537,0.222 -0.945,0.222 l -2.467,0 0,-5.283 0.966,0 0,2.076 1.501,0 c 0.408,0 0.648,0.037 0.945,0.205 0.5,0.278 0.814,0.834 0.814,1.389 M -13.497,0 l 0,5.283 -0.927,0 -1.559,-3.133 -1.537,3.133 -0.926,0 0,-5.283 0.926,0 0,3.227 1.537,-3.227 1.559,3.227 0,-3.227 0.927,0 z"
         style="fill:#231f20;fill-opacity:1;fill-rule:evenodd;stroke:none"
         id="path3869"
         inkscape:connector-curvature="0" />
    </g>
  </g>
</svg>
