<?xml version="1.0" encoding="UTF-8" standalone="no"?>
<!-- Created with Inkscape (http://www.inkscape.org/) -->

<svg
   xmlns:dc="http://purl.org/dc/elements/1.1/"
   xmlns:cc="http://creativecommons.org/ns#"
   xmlns:rdf="http://www.w3.org/1999/02/22-rdf-syntax-ns#"
   xmlns:svg="http://www.w3.org/2000/svg"
   xmlns="http://www.w3.org/2000/svg"
   xmlns:sodipodi="http://sodipodi.sourceforge.net/DTD/sodipodi-0.dtd"
   xmlns:inkscape="http://www.inkscape.org/namespaces/inkscape"
   width="80.234665"
   height="66.857613"
   id="svg4512"
   version="1.1"
   inkscape:version="0.48.3.1 r9886"
   sodipodi:docname="New document 14">
  <defs
     id="defs4514">
    <clipPath
       clipPathUnits="userSpaceOnUse"
       id="clipPath3755">
      <path
         inkscape:connector-curvature="0"
         d="m 62.625,162.021 513.652,0 0,341.979 -513.652,0 0,-341.979 z"
         id="path3757" />
    </clipPath>
  </defs>
  <sodipodi:namedview
     id="base"
     pagecolor="#ffffff"
     bordercolor="#666666"
     borderopacity="1.0"
     inkscape:pageopacity="0.0"
     inkscape:pageshadow="2"
     inkscape:zoom="0.35"
     inkscape:cx="-190.61094"
     inkscape:cy="33.435131"
     inkscape:document-units="px"
     inkscape:current-layer="layer1"
     showgrid="false"
     fit-margin-top="0"
     fit-margin-left="0"
     fit-margin-right="0"
     fit-margin-bottom="0"
     inkscape:window-width="451"
     inkscape:window-height="415"
     inkscape:window-x="175"
     inkscape:window-y="175"
     inkscape:window-maximized="0" />
  <metadata
     id="metadata4517">
    <rdf:RDF>
      <cc:Work
         rdf:about="">
        <dc:format>image/svg+xml</dc:format>
        <dc:type
           rdf:resource="http://purl.org/dc/dcmitype/StillImage" />
        <dc:title></dc:title>
      </cc:Work>
    </rdf:RDF>
  </metadata>
  <g
     inkscape:label="Layer 1"
     inkscape:groupmode="layer"
     id="layer1"
     transform="translate(-565.61094,-498.9397)">
    <g
       id="g3751"
       transform="matrix(1.25,0,0,-1.25,-2.5860603,1058.6595)">
      <g
         id="g3753"
         clip-path="url(#clipPath3755)">
        <g
           id="g3759"
           transform="translate(460.2451,447.1601)">
          <path
             d="m 0,0 55.799,-22.604 c 3.284,-1.182 3.244,-6.055 -0.087,-7.145 l -55.903,-22.58 c -2.456,-1.03 -5.255,0.826 -5.255,3.484 l 0,45.449 C -5.446,-0.645 -2.473,1.201 0,0"
             style="fill:#f48412;fill-opacity:1;fill-rule:nonzero;stroke:#231f20;stroke-width:0.5;stroke-linecap:butt;stroke-linejoin:miter;stroke-miterlimit:4;stroke-opacity:1;stroke-dasharray:none"
             id="path3761"
             inkscape:connector-curvature="0" />
        </g>
        <g
           id="g3763"
           transform="translate(515.6992,423.6777)">
          <path
             d="m 0,0 c 2.455,-0.95 2.488,-4.542 -0.076,-5.382 l -55.967,-22.606 c -1.864,-0.743 -3.894,0.651 -3.912,2.638 l 0.003,45.583 c 0.154,1.982 2.21,3.261 4.049,2.417 L 0,0"
             style="fill:#231f20;fill-opacity:1;fill-rule:evenodd;stroke:none"
             id="path3765"
             inkscape:connector-curvature="0" />
        </g>
        <g
           id="g3767"
           transform="translate(515.3572,422.1104)">
          <path
             d="m 0,0 c 0.979,-0.564 0.791,-2.025 -0.289,-2.34 l -56.002,-22.621 c -0.863,-0.341 -1.726,0.303 -1.749,1.197 l 0.004,45.485 c 0.056,0.949 1.091,1.455 1.907,1.023 L -0.123,0.059 C -0.083,0.039 -0.041,0.02 0,0"
             style="fill:#f48412;fill-opacity:1;fill-rule:evenodd;stroke:none"
             id="path3769"
             inkscape:connector-curvature="0" />
        </g>
        <g
           id="g3771"
           transform="translate(469.8332,433.9853)">
          <path
             d="m 0,0 c 0,-0.91 -0.056,-1.379 -0.249,-2.016 -0.194,-0.662 -0.498,-0.965 -0.967,-0.965 -0.497,0 -0.8,0.303 -0.994,0.965 -0.166,0.637 -0.248,1.133 -0.248,1.99 0,0.884 0.054,1.407 0.248,2.014 0.194,0.663 0.497,0.967 0.994,0.967 0.469,0 0.773,-0.304 0.967,-0.994 C -0.083,1.381 0,0.885 0,0 m 1.076,0 c 0,1.188 -0.11,1.934 -0.443,2.707 -0.386,0.966 -0.938,1.352 -1.849,1.352 -0.912,0 -1.463,-0.386 -1.878,-1.325 C -3.424,1.988 -3.536,1.188 -3.536,0 c 0,-1.215 0.112,-1.959 0.442,-2.732 0.388,-0.94 0.939,-1.358 1.878,-1.358 0.884,0 1.463,0.418 1.849,1.358 0.333,0.744 0.443,1.517 0.443,2.732 m -6.157,-3.947 0,7.868 -1.131,0 0,-4.721 -2.155,4.721 -1.132,0 0,-7.868 1.132,0 0,5.273 2.43,-5.273 0.856,0 z"
             style="fill:#231f20;fill-opacity:1;fill-rule:evenodd;stroke:none"
             id="path3773"
             inkscape:connector-curvature="0" />
        </g>
        <g
           id="g3775"
           transform="translate(495.1691,421.2119)">
          <path
             d="m 0,0 0,1.629 -2.016,0 0,-1.104 0.884,0 0,-0.525 c 0,-0.827 -0.276,-1.215 -0.855,-1.215 -0.608,0 -0.995,0.415 -1.159,1.188 -0.111,0.607 -0.166,1.299 -0.166,1.961 0,0.938 0.137,1.822 0.359,2.208 0.193,0.387 0.496,0.581 0.883,0.581 0.552,0 0.91,-0.36 0.938,-0.885 l 1.132,0 c -0.054,1.16 -0.911,1.988 -2.042,1.988 -0.911,0 -1.713,-0.607 -1.989,-1.435 C -4.307,3.645 -4.39,2.844 -4.39,1.74 c 0,-1.021 0.166,-2.126 0.414,-2.706 0.387,-0.884 1.076,-1.356 2.016,-1.356 0.8,0 1.437,0.418 1.738,1.107 C -0.054,-0.883 0,-0.551 0,0 m -5.935,-2.18 0,7.869 -1.135,0 0,-4.722 -2.152,4.722 -1.132,0 0,-7.869 1.132,0 0,5.273 2.431,-5.273 0.856,0 z m -6.13,7.869 -1.104,0 0,-7.868 1.104,0 0,7.868 z m -2.43,-5.716 c 0,1.133 -0.663,1.988 -2.181,2.871 -0.581,0.332 -0.747,0.553 -0.747,0.939 0,0.526 0.415,0.911 0.939,0.911 0.498,0 0.884,-0.358 0.91,-0.911 l 1.079,0 c -0.027,1.188 -0.883,2.043 -1.989,2.043 -1.132,0 -2.015,-0.911 -2.015,-2.043 0,-0.69 0.332,-1.298 0.966,-1.739 1.602,-1.077 1.16,-0.772 1.326,-0.938 0.469,-0.36 0.633,-0.691 0.633,-1.133 0,-0.635 -0.495,-1.188 -1.102,-1.188 -0.774,0 -1.104,0.692 -1.104,1.354 l -1.104,0 c 0,-1.299 0.827,-2.461 2.208,-2.461 1.215,0 2.181,1.025 2.181,2.295 m -5.329,0 c 0,1.133 -0.662,1.988 -2.181,2.871 -0.58,0.332 -0.744,0.553 -0.744,0.939 0,0.526 0.412,0.911 0.939,0.911 0.495,0 0.881,-0.358 0.91,-0.911 l 1.076,0 c -0.027,1.188 -0.883,2.043 -1.986,2.043 -1.135,0 -2.018,-0.911 -2.018,-2.043 0,-0.69 0.332,-1.298 0.966,-1.739 1.603,-1.077 1.159,-0.772 1.327,-0.938 0.469,-0.36 0.635,-0.691 0.635,-1.133 0,-0.635 -0.498,-1.188 -1.105,-1.188 -0.774,0 -1.104,0.692 -1.104,1.354 l -1.105,0 c 0,-1.299 0.828,-2.461 2.209,-2.461 1.215,0 2.181,1.025 2.181,2.295 m -7.041,1.104 -1.13,0 0.55,2.265 0.58,-2.265 z m 1.961,-3.257 -1.961,7.869 -1.104,0 -1.96,-7.869 1.133,0 0.524,2.153 1.684,0 0.551,-2.153 1.133,0 z m -6.599,5.659 c 0,-0.717 -0.358,-1.131 -1.022,-1.131 l -1.159,0 0,2.236 1.159,0 c 0.608,0 1.022,-0.442 1.022,-1.105 m 1.103,0 c 0,1.326 -0.827,2.21 -2.069,2.21 l -2.347,0 0,-7.869 1.132,0 0,3.452 1.215,0 c 1.325,0 2.069,0.772 2.069,2.207"
             style="fill:#231f20;fill-opacity:1;fill-rule:evenodd;stroke:none"
             id="path3777"
             inkscape:connector-curvature="0" />
        </g>
        <g
           id="g3779"
           transform="translate(481.4152,407.9697)">
          <path
             d="m 0,0 0,1.104 -2.87,0 0,2.595 1.628,0 0,1.078 -1.628,0 0,1.987 2.567,0 0,1.104 -3.701,0 L -4.004,0 0,0 z m -5.418,0 0,7.868 -1.134,0 0,-4.722 -2.152,4.722 -1.133,0 0,-7.868 1.133,0 0,5.273 L -6.277,0 -5.418,0 z m -6.801,3.947 c 0,-0.91 -0.056,-1.379 -0.249,-2.015 -0.192,-0.662 -0.497,-0.967 -0.966,-0.967 -0.497,0 -0.8,0.305 -0.995,0.967 -0.164,0.636 -0.247,1.133 -0.247,1.988 0,0.883 0.056,1.408 0.247,2.016 0.195,0.662 0.498,0.966 0.995,0.966 0.469,0 0.774,-0.304 0.966,-0.994 0.166,-0.58 0.249,-1.077 0.249,-1.961 m 1.077,0 c 0,1.188 -0.111,1.934 -0.442,2.706 -0.386,0.967 -0.94,1.353 -1.85,1.353 -0.913,0 -1.462,-0.386 -1.879,-1.324 -0.329,-0.746 -0.439,-1.547 -0.439,-2.735 0,-1.215 0.11,-1.959 0.439,-2.732 0.388,-0.94 0.94,-1.358 1.879,-1.358 0.884,0 1.464,0.418 1.85,1.358 0.331,0.744 0.442,1.517 0.442,2.732 M -16.672,0 l 0,1.076 -3.175,0 3.175,6.102 0,0.719 -4.031,0 0,-1.106 2.623,0 -2.928,-5.576 0,-1.215 4.336,0 z"
             style="fill:#231f20;fill-opacity:1;fill-rule:evenodd;stroke:none"
             id="path3781"
             inkscape:connector-curvature="0" />
        </g>
      </g>
    </g>
  </g>
</svg>
