<?xml version="1.0" encoding="UTF-8" standalone="no"?>
<!-- Created with Inkscape (http://www.inkscape.org/) -->

<svg
   xmlns:dc="http://purl.org/dc/elements/1.1/"
   xmlns:cc="http://creativecommons.org/ns#"
   xmlns:rdf="http://www.w3.org/1999/02/22-rdf-syntax-ns#"
   xmlns:svg="http://www.w3.org/2000/svg"
   xmlns="http://www.w3.org/2000/svg"
   xmlns:sodipodi="http://sodipodi.sourceforge.net/DTD/sodipodi-0.dtd"
   xmlns:inkscape="http://www.inkscape.org/namespaces/inkscape"
   width="109.58633"
   height="109.53977"
   id="svg4960"
   version="1.1"
   inkscape:version="0.48.3.1 r9886"
   sodipodi:docname="New document 22">
  <defs
     id="defs4962">
    <clipPath
       clipPathUnits="userSpaceOnUse"
       id="clipPath3595">
      <path
         inkscape:connector-curvature="0"
         d="m 62.625,162.021 513.652,0 0,341.979 -513.652,0 0,-341.979 z"
         id="path3597" />
    </clipPath>
  </defs>
  <sodipodi:namedview
     id="base"
     pagecolor="#ffffff"
     bordercolor="#666666"
     borderopacity="1.0"
     inkscape:pageopacity="0.0"
     inkscape:pageshadow="2"
     inkscape:zoom="0.35"
     inkscape:cx="106.94592"
     inkscape:cy="43.337917"
     inkscape:document-units="px"
     inkscape:current-layer="layer1"
     showgrid="false"
     fit-margin-top="0"
     fit-margin-left="0"
     fit-margin-right="0"
     fit-margin-bottom="0"
     inkscape:window-width="451"
     inkscape:window-height="415"
     inkscape:window-x="175"
     inkscape:window-y="175"
     inkscape:window-maximized="0" />
  <metadata
     id="metadata4965">
    <rdf:RDF>
      <cc:Work
         rdf:about="">
        <dc:format>image/svg+xml</dc:format>
        <dc:type
           rdf:resource="http://purl.org/dc/dcmitype/StillImage" />
        <dc:title></dc:title>
      </cc:Work>
    </rdf:RDF>
  </metadata>
  <g
     inkscape:label="Layer 1"
     inkscape:groupmode="layer"
     id="layer1"
     transform="translate(-268.05408,-466.16033)">
    <g
       transform="matrix(1.25,0,0,-1.25,-76.486076,928.7626)"
       id="g3591">
      <g
         id="g3593"
         clip-path="url(#clipPath3595)">
        <g
           id="g3599"
           transform="translate(317.1382,283.6375)">
          <path
             inkscape:connector-curvature="0"
             d="m 0,0 -40.281,40.283 c -1.287,1.287 -1.289,3.386 -0.002,4.673 L 0,85.237 c 1.287,1.288 3.385,1.289 4.672,0.001 L 44.953,44.954 c 1.288,-1.287 1.29,-3.384 0.002,-4.672 L 4.672,0 C 3.401,-1.269 1.272,-1.27 0,0"
             style="fill:#f48412;fill-opacity:1;fill-rule:nonzero;stroke:#231f20;stroke-width:0.5;stroke-linecap:butt;stroke-linejoin:miter;stroke-miterlimit:4;stroke-opacity:1;stroke-dasharray:none"
             id="path3601" />
        </g>
        <g
           id="g3603"
           transform="translate(317.7792,284.2935)">
          <path
             inkscape:connector-curvature="0"
             d="m 0,0 -40.266,40.268 c -0.925,0.929 -0.923,2.464 0,3.392 L 0,83.925 c 0.928,0.928 2.461,0.925 3.391,0 L 43.656,43.658 c 0.926,-0.929 0.928,-2.461 0,-3.39 L 3.391,0 C 2.461,-0.921 0.928,-0.925 0,0"
             style="fill:#231f20;fill-opacity:1;fill-rule:evenodd;stroke:none"
             id="path3605" />
        </g>
        <g
           id="g3607"
           transform="translate(318.6772,285.2145)">
          <path
             inkscape:connector-curvature="0"
             d="m 0,0 -40.244,40.244 c -0.447,0.432 -0.445,1.166 0,1.597 l 40.242,40.243 c 0.43,0.446 1.166,0.446 1.598,0 L 41.838,41.841 c 0.446,-0.432 0.446,-1.167 0,-1.598 L 1.596,0 C 1.164,-0.446 0.432,-0.445 0,0"
             style="fill:#f48412;fill-opacity:1;fill-rule:evenodd;stroke:none"
             id="path3609" />
        </g>
        <g
           id="g3611"
           transform="translate(298.8712,338.7175)">
          <path
             inkscape:connector-curvature="0"
             d="m 0,0 c -0.215,0.768 -0.551,1.104 -1.072,1.104 -0.553,0 -0.889,-0.336 -1.104,-1.072 -0.215,-0.674 -0.275,-1.256 -0.275,-2.237 0,-0.95 0.091,-1.501 0.275,-2.207 0.215,-0.734 0.551,-1.072 1.104,-1.072 0.519,0.001 0.857,0.338 1.072,1.073 0.213,0.704 0.275,1.226 0.275,2.236 C 0.275,-1.193 0.183,-0.642 0,0 m 0.98,-5.209 c -0.429,-1.041 -1.072,-1.5 -2.052,-1.5 -1.043,-0.001 -1.657,0.46 -2.084,1.502 -0.37,0.858 -0.491,1.684 -0.491,3.032 0,1.318 0.123,2.207 0.491,3.035 0.459,1.041 1.072,1.47 2.084,1.47 1.009,0 1.623,-0.428 2.052,-1.502 0.367,-0.857 0.49,-1.685 0.49,-3.002 0,-1.349 -0.123,-2.207 -0.49,-3.035"
             style="fill:#231f20;fill-opacity:1;fill-rule:nonzero;stroke:none"
             id="path3613" />
        </g>
        <g
           id="g3615"
           transform="translate(306.0412,332.1615)">
          <path
             inkscape:connector-curvature="0"
             d="m 0,0 -2.698,5.852 0,-5.852 -1.255,0 0,8.732 1.255,0.001 2.391,-5.239 0,5.239 L 0.949,8.732 0.949,0 0,0 z"
             style="fill:#231f20;fill-opacity:1;fill-rule:nonzero;stroke:none"
             id="path3617" />
        </g>
        <g
           id="g3619"
           transform="translate(308.8901,332.1615)">
          <path
             inkscape:connector-curvature="0"
             d="m 0,0 -0.002,8.733 4.108,0 0,-1.226 -2.85,0 0,-2.207 1.809,0 0,-1.194 -1.809,0 0,-2.881 L 4.442,1.226 4.442,0 0,0 z"
             style="fill:#231f20;fill-opacity:1;fill-rule:nonzero;stroke:none"
             id="path3621" />
        </g>
        <g
           id="g3623"
           transform="translate(318.5432,332.1615)">
          <path
             inkscape:connector-curvature="0"
             d="m 0,0 -0.002,8.732 1.258,0.001 0,-7.569 L 4.441,1.165 4.441,0 0,0 z"
             style="fill:#231f20;fill-opacity:1;fill-rule:nonzero;stroke:none"
             id="path3625" />
        </g>
        <g
           id="g3627"
           transform="translate(326.2951,338.2896)">
          <path
             inkscape:connector-curvature="0"
             d="m 0,0 -0.614,-2.512 1.256,0 L 0,0 z m 1.56,-6.128 -0.611,2.39 -1.869,0 -0.582,-2.39 -1.256,0 2.176,8.732 1.224,0 2.176,-8.732 -1.258,0 z"
             style="fill:#231f20;fill-opacity:1;fill-rule:nonzero;stroke:none"
             id="path3629" />
        </g>
        <g
           id="g3631"
           transform="translate(334.2592,332.1615)">
          <path
             inkscape:connector-curvature="0"
             d="m 0,0 -2.695,5.852 0,-5.852 -1.256,0 0,8.734 1.256,-0.002 2.389,-5.238 0.002,5.238 L 0.952,8.734 0.952,0 0,0 z"
             style="fill:#231f20;fill-opacity:1;fill-rule:nonzero;stroke:none"
             id="path3633" />
        </g>
        <g
           id="g3635"
           transform="translate(337.1092,332.1615)">
          <path
             inkscape:connector-curvature="0"
             d="M 0,0 0,8.734 4.107,8.732 4.106,7.507 l -2.85,0 0,-2.207 1.809,0 0,-1.195 -1.807,0 -0.002,-2.879 3.187,0 L 4.443,0 0,0 z"
             style="fill:#231f20;fill-opacity:1;fill-rule:nonzero;stroke:none"
             id="path3637" />
        </g>
        <g
           id="g3639"
           transform="translate(309.9941,327.0225)">
          <path
             inkscape:connector-curvature="0"
             d="m 0,0 -1.287,0 0,-2.207 L 0,-2.206 c 0.736,0 1.135,0.398 1.135,1.102 C 1.135,-0.43 0.674,0 0,0 m 1.072,-7.508 -1.164,4.107 -1.195,-0.001 0,-4.105 -1.256,-0.001 0,8.735 2.605,0 c 1.377,-0.001 2.297,-0.92 2.297,-2.331 0,-1.041 -0.428,-1.807 -1.256,-2.115 l 1.256,-4.289 -1.287,0 z"
             style="fill:#231f20;fill-opacity:1;fill-rule:nonzero;stroke:none"
             id="path3641" />
        </g>
        <g
           id="g3643"
           transform="translate(317.3162,326.0725)">
          <path
             inkscape:connector-curvature="0"
             d="m 0,0 c -0.213,0.766 -0.551,1.103 -1.07,1.103 -0.553,0 -0.891,-0.337 -1.106,-1.073 -0.213,-0.674 -0.273,-1.256 -0.275,-2.236 0,-0.95 0.094,-1.502 0.275,-2.206 0.215,-0.736 0.553,-1.074 1.106,-1.074 0.519,10e-4 0.857,0.338 1.072,1.074 0.215,0.704 0.275,1.225 0.275,2.236 C 0.277,-1.195 0.186,-0.644 0,0 M 0.981,-5.209 C 0.553,-6.25 -0.092,-6.71 -1.072,-6.71 c -1.041,-0.001 -1.654,0.459 -2.084,1.501 -0.367,0.858 -0.49,1.684 -0.488,3.034 -0.002,1.317 0.121,2.205 0.488,3.033 0.461,1.042 1.074,1.471 2.084,1.471 1.012,0 1.625,-0.429 2.055,-1.502 0.367,-0.858 0.49,-1.686 0.49,-3.003 0,-1.349 -0.123,-2.206 -0.492,-3.033"
             style="fill:#231f20;fill-opacity:1;fill-rule:nonzero;stroke:none"
             id="path3645" />
        </g>
        <g
           id="g3647"
           transform="translate(322.6191,325.6436)">
          <path
             inkscape:connector-curvature="0"
             d="M 0,0 -0.613,-2.512 0.642,-2.514 0,0 z m 1.56,-6.128 -0.611,2.39 -1.869,0 -0.582,-2.391 -1.256,0 2.174,8.733 1.226,0 2.176,-8.732 -1.258,0 z"
             style="fill:#231f20;fill-opacity:1;fill-rule:nonzero;stroke:none"
             id="path3649" />
        </g>
        <g
           id="g3651"
           transform="translate(330.0642,326.1335)">
          <path
             inkscape:connector-curvature="0"
             d="m 0,0 c -0.215,0.614 -0.584,0.889 -1.135,0.889 l -1.041,0 0,-6.281 1.041,0 c 0.737,0 1.135,0.582 1.258,1.256 0.061,0.55 0.121,1.164 0.121,1.839 C 0.244,-1.316 0.152,-0.367 0,0 m 0.215,-6.22 c -0.307,-0.276 -0.736,-0.399 -1.227,-0.399 l -2.421,10e-4 0,8.733 2.238,10e-4 c 0.734,-0.002 1.103,-0.094 1.408,-0.338 0.522,-0.37 0.891,-1.041 1.043,-1.93 0.123,-0.645 0.215,-1.41 0.215,-2.084 0,-2.023 -0.399,-3.311 -1.256,-3.984"
             style="fill:#231f20;fill-opacity:1;fill-rule:nonzero;stroke:none"
             id="path3653" />
        </g>
        <g
           id="g3655"
           transform="translate(306.9511,312.9985)">
          <path
             inkscape:connector-curvature="0"
             d="m 0,0 -0.615,-2.513 1.259,0 L 0,0 z m 1.566,-6.128 -0.615,2.389 -1.873,0 -0.584,-2.389 -1.26,0 2.182,8.732 1.228,0 2.182,-8.732 -1.26,0 z"
             style="fill:#231f20;fill-opacity:1;fill-rule:nonzero;stroke:none"
             id="path3657" />
        </g>
        <g
           id="g3659"
           transform="translate(325.8221,312.9985)">
          <path
             inkscape:connector-curvature="0"
             d="m 0,0 -0.615,-2.513 1.259,0 L 0,0 z m 1.566,-6.128 -0.615,2.389 -1.873,0 -0.584,-2.389 -1.26,0 2.182,8.732 1.228,0 2.182,-8.732 -1.26,0 z"
             style="fill:#231f20;fill-opacity:1;fill-rule:nonzero;stroke:none"
             id="path3661" />
        </g>
        <g
           id="g3663"
           transform="translate(333.2971,313.4885)">
          <path
             inkscape:connector-curvature="0"
             d="m 0,0 c -0.215,0.613 -0.582,0.889 -1.133,0.889 l -1.039,0 0,-6.283 1.039,0 c 0.734,0 1.133,0.583 1.254,1.257 0.062,0.552 0.123,1.164 0.123,1.839 C 0.244,-1.318 0.152,-0.367 0,0 M 0.212,-6.221 C -0.092,-6.496 -0.522,-6.618 -1.01,-6.618 l -2.416,0 0,8.732 2.232,0 c 0.735,0 1.102,-0.092 1.406,-0.336 0.52,-0.368 0.887,-1.043 1.041,-1.932 0.122,-0.643 0.213,-1.409 0.213,-2.084 0,-2.021 -0.396,-3.308 -1.254,-3.983"
             style="fill:#231f20;fill-opacity:1;fill-rule:nonzero;stroke:none"
             id="path3665" />
        </g>
        <g
           id="g3667"
           transform="translate(317.8141,306.8705)">
          <path
             inkscape:connector-curvature="0"
             d="m 0,0 0,8.732 4.117,0 0,-1.225 -2.857,0 0,-2.207 1.812,0 0,-1.195 -1.812,0 0,-2.881 3.195,0 L 4.455,0 0,0 z"
             style="fill:#231f20;fill-opacity:1;fill-rule:nonzero;stroke:none"
             id="path3669" />
        </g>
        <g
           id="g3671"
           transform="translate(314.6382,306.8705)">
          <path
             inkscape:connector-curvature="0"
             d="m 0,0 0,3.952 -2.384,0 0,-3.952 -1.254,0 0,8.732 1.254,0 0,-3.555 2.384,0 0,3.555 1.254,0 L 1.254,0 0,0 z"
             style="fill:#231f20;fill-opacity:1;fill-rule:nonzero;stroke:none"
             id="path3673" />
        </g>
      </g>
    </g>
  </g>
</svg>
