<?xml version="1.0" encoding="UTF-8" standalone="no"?>
<!-- Created with Inkscape (http://www.inkscape.org/) -->

<svg
   xmlns:dc="http://purl.org/dc/elements/1.1/"
   xmlns:cc="http://creativecommons.org/ns#"
   xmlns:rdf="http://www.w3.org/1999/02/22-rdf-syntax-ns#"
   xmlns:svg="http://www.w3.org/2000/svg"
   xmlns="http://www.w3.org/2000/svg"
   xmlns:sodipodi="http://sodipodi.sourceforge.net/DTD/sodipodi-0.dtd"
   xmlns:inkscape="http://www.inkscape.org/namespaces/inkscape"
   width="90.0327"
   height="89.997086"
   id="svg5314"
   version="1.1"
   inkscape:version="0.48.3.1 r9886"
   sodipodi:docname="New document 30">
  <defs
     id="defs5316">
    <clipPath
       clipPathUnits="userSpaceOnUse"
       id="clipPath3377">
      <path
         inkscape:connector-curvature="0"
         d="m 62.625,162.021 513.652,0 0,341.979 -513.652,0 0,-341.979 z"
         id="path3379" />
    </clipPath>
  </defs>
  <sodipodi:namedview
     id="base"
     pagecolor="#ffffff"
     bordercolor="#666666"
     borderopacity="1.0"
     inkscape:pageopacity="0.0"
     inkscape:pageshadow="2"
     inkscape:zoom="0.35"
     inkscape:cx="45.014637"
     inkscape:cy="44.990708"
     inkscape:document-units="px"
     inkscape:current-layer="layer1"
     showgrid="false"
     fit-margin-top="0"
     fit-margin-left="0"
     fit-margin-right="0"
     fit-margin-bottom="0"
     inkscape:window-width="451"
     inkscape:window-height="415"
     inkscape:window-x="175"
     inkscape:window-y="175"
     inkscape:window-maximized="0" />
  <metadata
     id="metadata5319">
    <rdf:RDF>
      <cc:Work
         rdf:about="">
        <dc:format>image/svg+xml</dc:format>
        <dc:type
           rdf:resource="http://purl.org/dc/dcmitype/StillImage" />
        <dc:title></dc:title>
      </cc:Work>
    </rdf:RDF>
  </metadata>
  <g
     inkscape:label="Layer 1"
     inkscape:groupmode="layer"
     id="layer1"
     transform="translate(-329.98536,-487.35581)">
    <g
       transform="matrix(1.25,0,0,-1.25,124.86912,798.11039)"
       id="g3373">
      <g
         id="g3375"
         clip-path="url(#clipPath3377)">
        <g
           id="g3381"
           transform="translate(197.1842,178.0435)">
          <path
             inkscape:connector-curvature="0"
             d="m 0,0 -31.627,31.625 c -1.609,1.609 -1.609,4.23 0,5.84 L 0,69.094 c 1.608,1.609 4.233,1.609 5.841,0 L 37.468,37.465 c 1.609,-1.61 1.609,-4.231 0,-5.84 L 5.841,0 C 4.249,-1.586 1.588,-1.589 0,0"
             style="fill:#f48412;fill-opacity:1;fill-rule:nonzero;stroke:#231f20;stroke-width:0.5;stroke-linecap:butt;stroke-linejoin:miter;stroke-miterlimit:4;stroke-opacity:1;stroke-dasharray:none"
             id="path3383" />
        </g>
        <g
           id="g3385"
           transform="translate(197.9832,178.8645)">
          <path
             inkscape:connector-curvature="0"
             d="m 0,0 -31.605,31.605 c -1.16,1.16 -1.157,3.078 -0.001,4.238 L 0.003,67.45 c 1.157,1.161 3.076,1.157 4.238,0 L 35.847,35.843 c 1.156,-1.162 1.16,-3.076 0,-4.238 L 4.239,0 C 3.079,-1.155 1.16,-1.16 0,0"
             style="fill:#231f20;fill-opacity:1;fill-rule:evenodd;stroke:none"
             id="path3387" />
        </g>
        <g
           id="g3389"
           transform="translate(199.1041,180.0146)">
          <path
             inkscape:connector-curvature="0"
             d="m 0,0 -31.578,31.576 c -0.558,0.539 -0.556,1.457 0.002,1.996 L 0.002,65.15 c 0.537,0.559 1.458,0.561 1.995,0 L 33.575,33.572 c 0.559,-0.539 0.559,-1.457 0,-1.996 L 1.997,0 C 1.46,-0.557 0.539,-0.557 0,0"
             style="fill:#f48412;fill-opacity:1;fill-rule:evenodd;stroke:none"
             id="path3391" />
        </g>
        <g
           id="g3393"
           transform="translate(210.7711,226.0865)">
          <path
             inkscape:connector-curvature="0"
             d="M 0,0 C 0,-0.941 -0.224,-1.711 -0.644,-2.131 -0.845,-2.33 -1.067,-2.404 -1.438,-2.404 l -1.117,0 0,4.806 1.266,0 c 0.298,0 0.544,-0.123 0.718,-0.295 C -0.224,1.734 0,0.939 0,0 m 1.138,0 c 0,1.387 -0.42,2.504 -1.162,3.148 -0.371,0.295 -0.645,0.371 -1.365,0.371 l -2.279,0 0,-7.062 2.156,0 0.396,0 c 0.371,0.025 0.742,0.146 1.016,0.396 0.794,0.62 1.238,1.733 1.238,3.147 m -8.151,-0.422 -1.412,0 0.716,1.982 0.696,-1.982 z m 2.281,-3.121 -2.432,7.062 -1.114,0 -2.43,-7.062 1.19,0 0.696,1.98 2.205,0 0.693,-1.98 1.192,0 z m -8.007,3.519 c 0,-0.546 -0.122,-1.242 -0.271,-1.613 -0.249,-0.619 -0.572,-0.89 -1.089,-0.89 -0.45,0 -0.745,0.173 -0.967,0.544 -0.274,0.448 -0.422,1.213 -0.422,1.959 0,0.592 0.099,1.237 0.273,1.657 0.246,0.621 0.593,0.894 1.138,0.871 0.422,-0.026 0.693,-0.174 0.918,-0.547 0.271,-0.471 0.42,-1.188 0.42,-1.981 m 1.116,0 c 0,0.891 -0.174,1.782 -0.472,2.403 -0.444,0.867 -1.064,1.262 -1.956,1.262 -0.82,0 -1.386,-0.247 -1.808,-0.791 -0.472,-0.668 -0.77,-1.709 -0.77,-2.874 0,-0.843 0.198,-1.785 0.496,-2.38 0.422,-0.868 1.04,-1.268 2.034,-1.268 0.742,0 1.311,0.252 1.71,0.799 0.495,0.617 0.766,1.732 0.766,2.849 m -7.284,1.559 c 0,-0.297 -0.174,-0.596 -0.447,-0.742 -0.173,-0.1 -0.298,-0.123 -0.645,-0.123 l -1.338,0 0,1.732 1.338,0 c 0.371,0 0.472,-0.023 0.645,-0.123 0.273,-0.146 0.447,-0.445 0.447,-0.744 m 1.263,-5.078 -1.241,3.295 c 0.645,0.297 1.094,1.041 1.094,1.783 0,0.719 -0.449,1.463 -1.067,1.76 -0.35,0.176 -0.721,0.224 -1.265,0.224 l -2.327,0 0,-7.062 1.113,0 0,3.072 1.338,0 1.141,-3.072 1.214,0 z"
             style="fill:#231f20;fill-opacity:1;fill-rule:evenodd;stroke:none"
             id="path3395" />
        </g>
        <g
           id="g3397"
           transform="translate(226.4061,216.3815)">
          <path
             inkscape:connector-curvature="0"
             d="M 0,0 -1.312,0 -3.021,-2.727 -4.708,0 l -1.338,0 2.479,-3.99 0,-3.073 1.113,0 0,3.073 L 0,0 z m -7.98,-1.981 c 0,-0.298 -0.17,-0.595 -0.444,-0.746 -0.174,-0.097 -0.299,-0.121 -0.645,-0.121 l -1.338,0 0,1.733 1.338,0 c 0.374,0 0.471,-0.024 0.645,-0.123 0.274,-0.151 0.444,-0.448 0.444,-0.743 m 1.265,-5.082 -1.238,3.297 c 0.644,0.297 1.089,1.039 1.089,1.785 0,0.717 -0.445,1.459 -1.065,1.758 C -8.275,-0.049 -8.647,0 -9.193,0 l -2.331,0 0,-7.063 1.117,0 0,3.073 1.338,0 1.14,-3.073 1.214,0 z m -5.973,0 0,1.141 -3.269,0 0,1.932 2.056,0 0,1.142 -2.056,0 0,1.733 3.047,0 0,1.115 -4.163,0 0,-7.063 4.385,0 z m -6.045,0 0,7.063 -1.117,0 0,-4.508 -2.576,4.508 -1.116,0 0,-7.063 1.116,0 0,4.784 2.703,-4.784 0.99,0 z M -25.202,0 l -1.138,0 0,-7.063 1.138,0 0,7.063 z M -28,-7.063 -28,0 l -1.116,0 0,-2.848 -2.576,0 0,2.848 -1.117,0 0,-7.063 1.117,0 0,3.073 2.576,0 0,-3.073 1.116,0 z m -6.344,1.438 -1.065,0.396 c -0.274,-0.568 -0.62,-0.818 -1.091,-0.818 -0.496,0 -0.818,0.174 -1.066,0.547 -0.271,0.445 -0.446,1.213 -0.446,1.98 0,0.596 0.1,1.217 0.274,1.637 0.247,0.619 0.62,0.865 1.186,0.865 0.547,0 0.772,-0.146 1.167,-0.742 l 1.041,0.445 c -0.471,0.991 -1.14,1.438 -2.208,1.438 -0.791,0 -1.386,-0.27 -1.806,-0.793 -0.495,-0.617 -0.794,-1.734 -0.794,-2.85 0,-0.89 0.199,-1.783 0.521,-2.402 0.445,-0.867 1.116,-1.268 2.155,-1.268 1.018,0 1.711,0.522 2.132,1.565 m -8.005,1.685 -1.411,0 0.718,1.983 0.693,-1.983 z m 2.282,-3.123 -2.429,7.063 -1.116,0 -2.428,-7.063 1.19,0 0.694,1.983 2.205,0 0.693,-1.983 1.191,0 z m -7.04,0 0,7.063 -1.113,0 -1.637,-3.965 -1.635,3.965 -1.115,0 0,-7.063 1.115,0 0,4.09 1.635,-4.09 1.637,4.09 0,-4.09 1.113,0 z"
             style="fill:#231f20;fill-opacity:1;fill-rule:evenodd;stroke:none"
             id="path3399" />
        </g>
        <g
           id="g3401"
           transform="translate(214.1482,199.6396)">
          <path
             inkscape:connector-curvature="0"
             d="m 0,0 c 0,-0.943 -0.223,-1.709 -0.644,-2.131 -0.199,-0.199 -0.42,-0.271 -0.794,-0.271 l -1.114,0 0,4.804 1.263,0 c 0.3,0 0.547,-0.121 0.72,-0.296 C -0.223,1.735 0,0.943 0,0 m 1.141,0 c 0,1.387 -0.421,2.504 -1.165,3.149 -0.371,0.294 -0.643,0.371 -1.363,0.371 l -2.278,0 0,-7.065 2.153,0 0.396,0 c 0.374,0.028 0.745,0.151 1.016,0.399 0.793,0.619 1.241,1.732 1.241,3.146 m -8.154,-0.422 -1.412,0 0.719,1.983 0.693,-1.983 z m 2.281,-3.123 -2.43,7.065 -1.113,0 -2.43,-7.065 1.189,0 0.694,1.983 2.207,0 0.693,-1.983 1.19,0 z m -6.518,0 0,1.143 -3.269,0 0,1.931 2.053,0 0,1.141 -2.053,0 0,1.732 3.047,0 0,1.118 -4.163,0 0,-7.065 4.385,0 z m -6.046,0 0,7.065 -1.115,0 0,-2.85 -2.576,0 0,2.85 -1.116,0 0,-7.065 1.116,0 0,3.074 2.576,0 0,-3.074 1.115,0 z m -8.153,3.123 -1.412,0 0.719,1.983 0.693,-1.983 z m 2.278,-3.123 -2.427,7.065 -1.114,0 -2.429,-7.065 1.19,0 0.693,1.983 2.205,0 0.694,-1.983 1.188,0 z"
             style="fill:#231f20;fill-opacity:1;fill-rule:evenodd;stroke:none"
             id="path3403" />
        </g>
      </g>
    </g>
  </g>
</svg>
