<?xml version="1.0" encoding="UTF-8" standalone="no"?>
<!-- Created with Inkscape (http://www.inkscape.org/) -->

<svg
   xmlns:dc="http://purl.org/dc/elements/1.1/"
   xmlns:cc="http://creativecommons.org/ns#"
   xmlns:rdf="http://www.w3.org/1999/02/22-rdf-syntax-ns#"
   xmlns:svg="http://www.w3.org/2000/svg"
   xmlns="http://www.w3.org/2000/svg"
   xmlns:sodipodi="http://sodipodi.sourceforge.net/DTD/sodipodi-0.dtd"
   xmlns:inkscape="http://www.inkscape.org/namespaces/inkscape"
   width="106.63781"
   height="106.64"
   id="svg4019"
   version="1.1"
   inkscape:version="0.48.3.1 r9886"
   sodipodi:docname="New document 4">
  <defs
     id="defs4021">
    <clipPath
       clipPathUnits="userSpaceOnUse"
       id="clipPath3815">
      <path
         inkscape:connector-curvature="0"
         d="m 62.625,162.021 513.652,0 0,341.979 -513.652,0 0,-341.979 z"
         id="path3817" />
    </clipPath>
  </defs>
  <sodipodi:namedview
     id="base"
     pagecolor="#ffffff"
     bordercolor="#666666"
     borderopacity="1.0"
     inkscape:pageopacity="0.0"
     inkscape:pageshadow="2"
     inkscape:zoom="0.35"
     inkscape:cx="53.318905"
     inkscape:cy="53.319968"
     inkscape:document-units="px"
     inkscape:current-layer="layer1"
     showgrid="false"
     fit-margin-top="0"
     fit-margin-left="0"
     fit-margin-right="0"
     fit-margin-bottom="0"
     inkscape:window-width="451"
     inkscape:window-height="415"
     inkscape:window-x="100"
     inkscape:window-y="100"
     inkscape:window-maximized="0" />
  <metadata
     id="metadata4024">
    <rdf:RDF>
      <cc:Work
         rdf:about="">
        <dc:format>image/svg+xml</dc:format>
        <dc:type
           rdf:resource="http://purl.org/dc/dcmitype/StillImage" />
        <dc:title></dc:title>
      </cc:Work>
    </rdf:RDF>
  </metadata>
  <g
     inkscape:label="Layer 1"
     inkscape:groupmode="layer"
     id="layer1"
     transform="translate(-321.68109,-479.04215)">
    <g
       transform="matrix(1.25,0,0,-1.25,236.14972,1080.0054)"
       id="g3811">
      <g
         id="g3813"
         clip-path="url(#clipPath3815)">
        <g
           id="g3819"
           transform="translate(109.3851,396.1516)">
          <path
             inkscape:connector-curvature="0"
             d="m 0,0 -40.267,40.267 c -0.925,0.929 -0.923,2.464 0,3.391 l 40.266,40.266 c 0.928,0.928 2.461,0.925 3.392,10e-4 L 43.655,43.657 c 0.926,-0.929 0.928,-2.46 0,-3.39 L 3.391,0 C 2.461,-0.922 0.928,-0.926 0,0"
             style="fill:#231f20;fill-opacity:1;fill-rule:evenodd;stroke:none"
             id="path3821" />
        </g>
        <g
           id="g3823"
           transform="translate(110.2825,397.0725)">
          <path
             inkscape:connector-curvature="0"
             d="m 0,0 -40.244,40.243 c -0.446,0.432 -0.445,1.166 0,1.598 l 40.243,40.243 c 0.43,0.445 1.165,0.445 1.597,0 L 41.839,41.841 c 0.445,-0.433 0.445,-1.167 -10e-4,-1.599 L 1.597,0 C 1.165,-0.447 0.432,-0.446 0,0"
             style="fill:#f48412;fill-opacity:1;fill-rule:evenodd;stroke:none"
             id="path3825" />
        </g>
        <g
           id="g3827"
           transform="translate(117.5979,453.8506)">
          <path
             inkscape:connector-curvature="0"
             d="m 0,0 0,1.483 -3.855,0 0,3.484 2.187,0 0,1.445 -2.187,0 0,2.669 3.447,0 0,1.483 -4.968,0 L -5.376,0 0,0 z m -8.602,3.002 c 0,-0.926 -0.555,-1.519 -1.409,-1.519 l -1.518,0 0,3.299 1.518,0 c 0.78,0 1.409,-0.779 1.409,-1.78 m -0.185,4.819 c 0,-0.964 -0.444,-1.556 -1.148,-1.556 l -1.594,0 0,2.816 1.594,0 c 0.815,0 1.148,-0.37 1.148,-1.26 m 1.669,-4.929 c 0,1.074 -0.483,1.964 -1.299,2.631 0.854,0.889 1.113,1.334 1.113,2.298 0,1.631 -1.001,2.743 -2.409,2.743 l -3.338,0 0,-10.564 3.116,0 c 1.556,0 2.817,1.298 2.817,2.892"
             style="fill:#231f20;fill-opacity:1;fill-rule:evenodd;stroke:none"
             id="path3829" />
        </g>
        <g
           id="g3831"
           transform="translate(138.4555,442.1611)">
          <path
             inkscape:connector-curvature="0"
             d="m 0,0 c 0,-0.815 -0.074,-1.557 -0.149,-2.225 -0.148,-0.814 -0.628,-1.518 -1.519,-1.518 l -1.262,0 0,7.597 1.262,0 C -1,3.854 -0.555,3.521 -0.297,2.779 -0.111,2.335 0,1.186 0,0 M 1.482,0.074 C 1.482,0.89 1.371,1.816 1.224,2.595 1.039,3.67 0.594,4.484 -0.037,4.93 -0.407,5.227 -0.853,5.337 -1.742,5.337 l -2.706,0 0,-10.564 2.928,0 c 0.593,0 1.113,0.149 1.483,0.483 1.038,0.815 1.519,2.372 1.519,4.818 m -7.711,-5.301 0,1.484 -3.853,0 0,3.483 2.186,0 0,1.446 -2.186,0 0,2.668 3.447,0 0,1.483 -4.969,0 0,-10.564 5.375,0 z m -8.599,7.748 c 0,-0.853 -0.483,-1.335 -1.371,-1.335 l -1.558,0 0,2.668 1.558,0 c 0.815,0 1.371,-0.518 1.371,-1.333 m 1.483,-7.748 -1.521,5.19 c 1.001,0.37 1.521,1.298 1.521,2.558 0,1.705 -1.113,2.816 -2.781,2.816 l -3.151,0 0,-10.564 1.52,0 0,4.967 1.446,0 1.409,-4.967 1.557,0 z m -10.011,4.374 -1.518,0 0.741,3.039 0.777,-3.039 z m 2.633,-4.374 -2.633,10.564 -1.482,0 -2.632,-10.564 1.521,0 0.704,2.892 2.261,0 0.742,-2.892 1.519,0 z m -8.861,7.599 c 0,-0.964 -0.48,-1.519 -1.371,-1.519 l -1.556,0 0,3.001 1.556,0 c 0.816,0 1.371,-0.592 1.371,-1.482 m 1.484,0 c 0,1.779 -1.112,2.965 -2.78,2.965 l -3.152,0 0,-10.564 1.521,0 0,4.634 1.631,0 c 1.779,0 2.78,1.037 2.78,2.965 m -7.711,-7.599 0,1.484 -3.855,0 0,3.483 2.186,0 0,1.446 -2.186,0 0,2.668 3.447,0 0,1.483 -4.967,0 0,-10.564 5.375,0 z m -8.6,7.748 c 0,-0.853 -0.482,-1.335 -1.372,-1.335 l -1.557,0 0,2.668 1.557,0 c 0.815,0 1.372,-0.518 1.372,-1.333 m 1.482,-7.748 -1.518,5.19 c 1,0.37 1.518,1.298 1.518,2.558 0,1.705 -1.111,2.816 -2.78,2.816 l -3.15,0 0,-10.564 1.519,0 0,4.967 1.446,0 1.409,-4.967 1.556,0 z m -8.859,7.599 c 0,-0.964 -0.483,-1.519 -1.371,-1.519 l -1.558,0 0,3.001 1.558,0 c 0.815,0 1.371,-0.592 1.371,-1.482 m 1.482,0 c 0,1.779 -1.112,2.965 -2.781,2.965 l -3.149,0 0,-10.564 1.519,0 0,4.634 1.63,0 c 1.78,0 2.781,1.037 2.781,2.965"
             style="fill:#231f20;fill-opacity:1;fill-rule:evenodd;stroke:none"
             id="path3833" />
        </g>
        <g
           id="g3835"
           transform="translate(134.012,427.6172)">
          <path
             inkscape:connector-curvature="0"
             d="m 0,0 c 0,-0.963 -0.481,-1.521 -1.371,-1.521 l -1.558,0 0,3.002 1.558,0 C -0.556,1.481 0,0.889 0,0 m 1.483,0 c 0,1.779 -1.113,2.965 -2.78,2.965 l -3.151,0 0,-10.563 1.519,0 0,4.633 1.632,0 c 1.779,0 2.78,1.036 2.78,2.965 m -9.491,-2.299 c 0,-1.224 -0.073,-1.851 -0.334,-2.705 -0.259,-0.891 -0.666,-1.298 -1.297,-1.298 -0.667,0 -1.074,0.407 -1.335,1.298 -0.222,0.854 -0.333,1.52 -0.333,2.668 0,1.188 0.075,1.891 0.333,2.707 0.261,0.888 0.668,1.298 1.335,1.298 0.631,0 1.038,-0.41 1.297,-1.336 0.223,-0.778 0.334,-1.446 0.334,-2.632 m 1.447,0 c 0,1.594 -0.149,2.595 -0.593,3.633 -0.52,1.299 -1.261,1.816 -2.485,1.816 -1.222,0 -1.964,-0.517 -2.52,-1.779 -0.445,-1 -0.593,-2.076 -0.593,-3.67 0,-1.631 0.148,-2.632 0.593,-3.668 0.518,-1.261 1.261,-1.823 2.52,-1.823 1.188,0 1.965,0.562 2.485,1.823 0.444,1.001 0.593,2.037 0.593,3.668 m -7.453,3.856 0,1.408 -5.374,0 0,-1.408 1.927,0 0,-9.155 1.522,0 0,9.155 1.925,0 z m -6.338,-6.265 c 0,1.52 -0.889,2.669 -2.928,3.855 -0.78,0.446 -1.002,0.741 -1.002,1.261 0,0.703 0.557,1.224 1.261,1.224 0.668,0 1.185,-0.484 1.223,-1.224 l 1.446,0 c -0.037,1.594 -1.186,2.742 -2.669,2.742 -1.519,0 -2.706,-1.223 -2.706,-2.742 0,-0.928 0.444,-1.744 1.297,-2.337 2.151,-1.443 1.557,-1.036 1.779,-1.259 0.631,-0.482 0.853,-0.927 0.853,-1.52 0,-0.851 -0.667,-1.594 -1.482,-1.594 -1.038,0 -1.483,0.928 -1.483,1.817 l -1.483,0 c 0,-1.742 1.111,-3.305 2.966,-3.305 1.631,0 2.928,1.378 2.928,3.082 m -14.199,2.409 c 0,-1.224 -0.073,-1.851 -0.332,-2.705 -0.261,-0.891 -0.668,-1.298 -1.299,-1.298 -0.668,0 -1.074,0.407 -1.334,1.298 -0.222,0.854 -0.335,1.52 -0.335,2.668 0,1.188 0.076,1.891 0.335,2.707 0.26,0.888 0.666,1.298 1.334,1.298 0.631,0 1.038,-0.41 1.299,-1.336 0.221,-0.778 0.332,-1.446 0.332,-2.632 m 1.446,0 c 0,1.594 -0.147,2.595 -0.592,3.633 -0.52,1.299 -1.261,1.816 -2.485,1.816 -1.223,0 -1.963,-0.517 -2.52,-1.779 -0.444,-1 -0.593,-2.076 -0.593,-3.67 0,-1.631 0.149,-2.632 0.593,-3.668 0.518,-1.261 1.26,-1.823 2.52,-1.823 1.186,0 1.965,0.562 2.485,1.823 0.445,1.001 0.592,2.037 0.592,3.668 m -7.45,3.856 0,1.408 -5.377,0 0,-1.408 1.929,0 0,-9.155 1.519,0 0,9.155 1.929,0 z"
             style="fill:#231f20;fill-opacity:1;fill-rule:evenodd;stroke:none"
             id="path3837" />
        </g>
      </g>
    </g>
  </g>
</svg>
