<?xml version="1.0" encoding="UTF-8" standalone="no"?>
<!-- Created with Inkscape (http://www.inkscape.org/) -->

<svg
   xmlns:dc="http://purl.org/dc/elements/1.1/"
   xmlns:cc="http://creativecommons.org/ns#"
   xmlns:rdf="http://www.w3.org/1999/02/22-rdf-syntax-ns#"
   xmlns:svg="http://www.w3.org/2000/svg"
   xmlns="http://www.w3.org/2000/svg"
   xmlns:sodipodi="http://sodipodi.sourceforge.net/DTD/sodipodi-0.dtd"
   xmlns:inkscape="http://www.inkscape.org/namespaces/inkscape"
   width="90.867615"
   height="90.870667"
   id="svg4117"
   version="1.1"
   inkscape:version="0.48.3.1 r9886"
   sodipodi:docname="New document 6">
  <defs
     id="defs4119" />
  <sodipodi:namedview
     id="base"
     pagecolor="#ffffff"
     bordercolor="#666666"
     borderopacity="1.0"
     inkscape:pageopacity="0.0"
     inkscape:pageshadow="2"
     inkscape:zoom="0.35"
     inkscape:cx="91.870515"
     inkscape:cy="-103.13956"
     inkscape:document-units="px"
     inkscape:current-layer="layer1"
     showgrid="false"
     fit-margin-top="0"
     fit-margin-left="0"
     fit-margin-right="0"
     fit-margin-bottom="0"
     inkscape:window-width="451"
     inkscape:window-height="415"
     inkscape:window-x="150"
     inkscape:window-y="150"
     inkscape:window-maximized="0" />
  <metadata
     id="metadata4122">
    <rdf:RDF>
      <cc:Work
         rdf:about="">
        <dc:format>image/svg+xml</dc:format>
        <dc:type
           rdf:resource="http://purl.org/dc/dcmitype/StillImage" />
        <dc:title></dc:title>
      </cc:Work>
    </rdf:RDF>
  </metadata>
  <g
     inkscape:label="Layer 1"
     inkscape:groupmode="layer"
     id="layer1"
     transform="translate(-283.12949,-338.35196)">
    <g
       id="g3727"
       transform="matrix(1.25,0,0,-1.25,284.6508,380.86325)">
      <path
         d="m 0,0 32.788,32.788 c 1.29,1.291 3.393,1.291 4.684,0 L 70.261,0 c 1.29,-1.29 1.29,-3.394 0,-4.685 L 37.472,-37.472 c -1.291,-1.291 -3.394,-1.291 -4.684,0 L 0,-4.685 C -1.273,-3.41 -1.275,-1.274 0,0"
         style="fill:#f48412;fill-opacity:1;fill-rule:nonzero;stroke:#231f20;stroke-width:0.5;stroke-linecap:butt;stroke-linejoin:miter;stroke-miterlimit:4;stroke-opacity:1;stroke-dasharray:none"
         id="path3729"
         inkscape:connector-curvature="0" />
    </g>
    <g
       id="g3731"
       transform="matrix(1.25,0,0,-1.25,285.47243,381.66649)">
      <path
         d="m 0,0 32.772,32.772 c 0.931,0.929 2.47,0.927 3.401,0 L 68.944,0 c 0.931,-0.93 0.927,-2.468 0,-3.4 L 36.173,-36.171 c -0.933,-0.928 -2.468,-0.93 -3.401,0 L 0,-3.4 c -0.925,0.932 -0.929,2.47 0,3.4"
         style="fill:#231f20;fill-opacity:1;fill-rule:evenodd;stroke:none"
         id="path3733"
         inkscape:connector-curvature="0" />
    </g>
    <g
       id="g3735"
       transform="matrix(1.25,0,0,-1.25,286.62618,382.79012)">
      <path
         d="m 0,0 32.749,32.749 c 0.432,0.448 1.169,0.447 1.601,0 L 67.098,0 c 0.449,-0.432 0.449,-1.169 0,-1.601 L 34.35,-34.349 c -0.432,-0.448 -1.169,-0.448 -1.601,0 L 0,-1.601 C -0.446,-1.169 -0.446,-0.433 0,0"
         style="fill:#f48412;fill-opacity:1;fill-rule:evenodd;stroke:none"
         id="path3737"
         inkscape:connector-curvature="0" />
    </g>
    <g
       id="g3739"
       transform="matrix(1.25,0,0,-1.25,349.5073,377.57349)">
      <path
         d="m 0,0 0,1.424 -4.089,0 0,2.417 2.571,0 0,1.424 -2.571,0 0,2.168 3.81,0 0,1.394 -5.203,0 L -5.482,0 0,0 z m -6.513,2.539 c 0,3.47 -4.152,2.385 -4.275,4.027 -0.061,0.806 0.713,1.053 1.364,1.021 0.99,-0.03 1.3,-0.773 1.3,-0.773 l 1.24,0.372 c -0.436,1.083 -1.272,1.796 -2.509,1.796 -1.581,0 -2.758,-0.65 -2.758,-2.386 0,-1.455 1.177,-1.982 1.704,-2.198 1.146,-0.465 2.509,-0.651 2.509,-1.828 0,-0.743 -0.559,-1.301 -1.363,-1.301 -0.836,0 -1.518,0.464 -1.889,1.301 l -1.332,-0.496 c 0.589,-1.332 1.703,-2.235 3.221,-2.235 0.744,0 1.426,0.253 1.921,0.687 0.556,0.496 0.867,1.207 0.867,2.013 m -8.278,1.859 c 0,-0.682 -0.156,-1.548 -0.341,-2.013 -0.31,-0.775 -0.712,-1.116 -1.363,-1.116 -0.558,0 -0.93,0.218 -1.208,0.682 -0.34,0.558 -0.527,1.518 -0.527,2.447 0,0.743 0.123,1.548 0.341,2.075 0.309,0.774 0.743,1.114 1.425,1.084 0.526,-0.031 0.866,-0.217 1.146,-0.681 0.341,-0.589 0.527,-1.487 0.527,-2.478 m 1.393,0 c 0,1.115 -0.217,2.23 -0.588,3.004 -0.558,1.084 -1.332,1.58 -2.448,1.58 -1.022,0 -1.733,-0.31 -2.26,-0.991 -0.589,-0.837 -0.961,-2.137 -0.961,-3.593 0,-1.053 0.248,-2.23 0.62,-2.974 0.527,-1.084 1.3,-1.585 2.54,-1.585 0.929,0 1.641,0.316 2.137,0.998 0.619,0.773 0.96,2.167 0.96,3.561 m -8.96,0 c 0,-0.682 -0.155,-1.548 -0.341,-2.013 -0.309,-0.775 -0.712,-1.116 -1.362,-1.116 -0.558,0 -0.93,0.218 -1.207,0.682 -0.341,0.558 -0.527,1.518 -0.527,2.447 0,0.743 0.123,1.548 0.34,2.075 0.31,0.774 0.743,1.114 1.424,1.084 0.527,-0.031 0.867,-0.217 1.146,-0.681 0.341,-0.589 0.527,-1.487 0.527,-2.478 m 1.395,0 c 0,1.115 -0.218,2.23 -0.59,3.004 -0.557,1.084 -1.332,1.58 -2.446,1.58 -1.023,0 -1.735,-0.31 -2.261,-0.991 -0.589,-0.837 -0.961,-2.137 -0.961,-3.593 0,-1.053 0.249,-2.23 0.621,-2.974 0.525,-1.084 1.3,-1.585 2.539,-1.585 0.929,0 1.641,0.316 2.137,0.998 0.62,0.773 0.961,2.167 0.961,3.561 M -27.911,0 l 0,1.301 -4.088,0 0,7.526 -1.393,0 0,-8.827 5.481,0 z"
         style="fill:#231f20;fill-opacity:1;fill-rule:evenodd;stroke:none"
         id="path3741"
         inkscape:connector-curvature="0" />
    </g>
    <g
       id="g3743"
       transform="matrix(1.25,0,0,-1.25,354.47368,396.20499)">
      <path
         d="m 0,0 0,1.3 -4.09,0 0,7.527 -1.392,0 L -5.482,0 0,0 z m -6.604,0 0,1.425 -4.087,0 0,2.415 2.57,0 0,1.426 -2.57,0 0,2.168 3.809,0 0,1.393 -5.204,0 0,-8.827 5.482,0 z m -6.447,8.827 -1.487,0 -1.858,-5.884 -1.889,5.884 -1.456,0 2.788,-8.827 1.084,0 2.818,8.827 z m -9.762,-4.924 -1.765,0 0.898,2.477 0.867,-2.477 z M -19.964,0 l -3.034,8.827 -1.394,0 -3.036,-8.827 1.487,0 0.867,2.477 2.758,0 0.866,-2.477 1.486,0 z m -9.389,6.349 c 0,-0.372 -0.217,-0.742 -0.558,-0.928 -0.217,-0.124 -0.371,-0.155 -0.806,-0.155 l -1.672,0 0,2.168 1.672,0 c 0.465,0 0.589,-0.031 0.806,-0.155 0.341,-0.186 0.558,-0.558 0.558,-0.93 M -27.774,0 -29.322,4.12 c 0.806,0.37 1.362,1.301 1.362,2.229 0,0.899 -0.556,1.827 -1.332,2.199 -0.433,0.218 -0.897,0.279 -1.579,0.279 l -2.911,0 0,-8.827 1.393,0 0,3.84 1.672,0 1.425,-3.84 1.518,0 z m -7.593,2.632 0,1.766 -3.005,0 0,-1.394 1.611,0 0,-0.372 c 0,-0.805 -0.651,-1.361 -1.549,-1.361 -0.526,0 -0.929,0.215 -1.207,0.711 -0.28,0.558 -0.434,1.486 -0.434,2.416 0,0.743 0.124,1.55 0.341,2.076 0.309,0.774 0.774,1.084 1.486,1.084 0.682,0 1.053,-0.279 1.425,-1.054 l 1.332,0.527 c -0.589,1.394 -1.394,1.951 -2.757,1.951 -0.991,0 -1.734,-0.34 -2.261,-0.992 -0.588,-0.773 -0.991,-2.168 -0.991,-3.592 0,-1.085 0.217,-2.168 0.588,-2.943 0.526,-1.115 1.302,-1.616 2.634,-1.616 1.609,0 2.787,1.183 2.787,2.793"
         style="fill:#231f20;fill-opacity:1;fill-rule:evenodd;stroke:none"
         id="path3745"
         inkscape:connector-curvature="0" />
    </g>
  </g>
</svg>
