<?xml version="1.0" encoding="UTF-8" standalone="no"?>
<!-- Created with Inkscape (http://www.inkscape.org/) -->

<svg
   xmlns:dc="http://purl.org/dc/elements/1.1/"
   xmlns:cc="http://creativecommons.org/ns#"
   xmlns:rdf="http://www.w3.org/1999/02/22-rdf-syntax-ns#"
   xmlns:svg="http://www.w3.org/2000/svg"
   xmlns="http://www.w3.org/2000/svg"
   xmlns:sodipodi="http://sodipodi.sourceforge.net/DTD/sodipodi-0.dtd"
   xmlns:inkscape="http://www.inkscape.org/namespaces/inkscape"
   width="60.48"
   height="254.88126"
   id="svg3725"
   version="1.1"
   inkscape:version="0.48.3.1 r9886"
   sodipodi:docname="New document 8">
  <defs
     id="defs3727">
    <clipPath
       clipPathUnits="userSpaceOnUse"
       id="clipPath3327">
      <path
         inkscape:connector-curvature="0"
         d="m 359.8,460.7 216.2,0 0,261.8 -216.2,0 0,-261.8 z"
         id="path3329" />
    </clipPath>
  </defs>
  <sodipodi:namedview
     id="base"
     pagecolor="#ffffff"
     bordercolor="#666666"
     borderopacity="1.0"
     inkscape:pageopacity="0.0"
     inkscape:pageshadow="2"
     inkscape:zoom="0.35"
     inkscape:cx="30.239995"
     inkscape:cy="127.44062"
     inkscape:document-units="px"
     inkscape:current-layer="layer1"
     showgrid="false"
     fit-margin-top="0"
     fit-margin-left="0"
     fit-margin-right="0"
     fit-margin-bottom="0"
     inkscape:window-width="451"
     inkscape:window-height="398"
     inkscape:window-x="75"
     inkscape:window-y="75"
     inkscape:window-maximized="0" />
  <metadata
     id="metadata3730">
    <rdf:RDF>
      <cc:Work
         rdf:about="">
        <dc:format>image/svg+xml</dc:format>
        <dc:type
           rdf:resource="http://purl.org/dc/dcmitype/StillImage" />
        <dc:title></dc:title>
      </cc:Work>
    </rdf:RDF>
  </metadata>
  <g
     inkscape:label="Layer 1"
     inkscape:groupmode="layer"
     id="layer1"
     transform="translate(-344.76,-404.92155)">
    <g
       transform="matrix(1.25,0,0,-1.25,-297.17437,1261.5483)"
       id="g3323">
      <g
         id="g3325"
         clip-path="url(#clipPath3327)">
        <g
           id="g3331"
           transform="translate(556.7255,685.3014)">
          <path
             inkscape:connector-curvature="0"
             d="m 0,0 c 2.76,-0.07 4.987,-2.134 5.199,-4.916 l 0.007,-193.782 c -0.071,-2.759 -2.133,-4.987 -4.917,-5.2 l -38.26,-0.007 c -2.761,0.071 -4.988,2.132 -5.199,4.917 l -0.008,193.783 c 0.07,2.76 2.134,4.983 4.917,5.198 L 0,0"
             style="fill:#00674c;fill-opacity:1;fill-rule:evenodd;stroke:none"
             id="path3333" />
        </g>
        <g
           id="g3335"
           transform="translate(554.6454,656.8219)">
          <path
             inkscape:connector-curvature="0"
             d="m 0,0 0,2.241 -4.422,0 0,6.061 2.787,0 0,2.302 -2.787,0 0,4.423 4.181,0 0,2.244 -6.363,0 L -6.604,0 0,0 z m -8.966,0 0,2 -4.425,0 0,15.271 -2.182,0 0,-17.271 6.607,0 z m -10.364,17.271 -2.181,0 0,-17.271 2.181,0 0,17.271 z M -25.269,0 l 0,17.271 -2.181,0 -2.06,-6.122 -2.121,6.122 -2.181,0 0,-17.271 2.181,0 0,10.24 2.121,-6.484 2.06,6.484 0,-10.24 2.181,0 z"
             style="fill:#ffffff;fill-opacity:1;fill-rule:evenodd;stroke:none"
             id="path3337" />
        </g>
        <g
           id="g3339"
           transform="translate(542.9714,579.6586)">
          <path
             inkscape:connector-curvature="0"
             d="M 0,0 -12.283,-16.179 0,-16.179 0,0 z m 6.822,-22.377 0,-10.735 -6.822,0 0,10.735 -21.38,0 0,4.082 L 0,9.98 l 6.822,0 0,-26.159 4.095,0 0,-6.198 -4.095,0 z"
             style="fill:#ffffff;fill-opacity:1;fill-rule:nonzero;stroke:none"
             id="path3341" />
        </g>
        <g
           id="g3343"
           transform="translate(542.9714,633.7555)">
          <path
             inkscape:connector-curvature="0"
             d="M 0,0 -12.283,-16.179 0,-16.179 0,0 z m 6.822,-22.379 0,-10.734 -6.822,0 0,10.734 -21.38,0 0,4.084 L 0,9.979 l 6.822,0 0,-26.158 4.095,0 0,-6.2 -4.095,0 z"
             style="fill:#ffffff;fill-opacity:1;fill-rule:nonzero;stroke:none"
             id="path3345" />
        </g>
        <g
           id="g3347"
           transform="translate(542.9714,525.6786)">
          <path
             inkscape:connector-curvature="0"
             d="M 0,0 -12.283,-16.178 0,-16.178 0,0 z m 6.822,-22.377 0,-10.736 -6.822,0 0,10.736 -21.38,0 0,4.081 L 0,9.978 l 6.822,0 0,-26.156 4.095,0 0,-6.199 -4.095,0 z"
             style="fill:#ffffff;fill-opacity:1;fill-rule:nonzero;stroke:none"
             id="path3349" />
        </g>
      </g>
    </g>
  </g>
</svg>
