<?xml version="1.0" encoding="UTF-8" standalone="no"?>
<!-- Created with Inkscape (http://www.inkscape.org/) -->

<svg
   xmlns:dc="http://purl.org/dc/elements/1.1/"
   xmlns:cc="http://creativecommons.org/ns#"
   xmlns:rdf="http://www.w3.org/1999/02/22-rdf-syntax-ns#"
   xmlns:svg="http://www.w3.org/2000/svg"
   xmlns="http://www.w3.org/2000/svg"
   xmlns:sodipodi="http://sodipodi.sourceforge.net/DTD/sodipodi-0.dtd"
   xmlns:inkscape="http://www.inkscape.org/namespaces/inkscape"
   width="240.625"
   height="90.625"
   id="svg5709"
   version="1.1"
   inkscape:version="0.48.3.1 r9886"
   sodipodi:docname="New document 15">
  <defs
     id="defs5711">
    <clipPath
       clipPathUnits="userSpaceOnUse"
       id="clipPath4458">
      <path
         inkscape:connector-curvature="0"
         d="m 27.5,60.827 511.999,0 0,237.874 -511.999,0 0,-237.874 z"
         id="path4460" />
    </clipPath>
  </defs>
  <sodipodi:namedview
     id="base"
     pagecolor="#ffffff"
     bordercolor="#666666"
     borderopacity="1.0"
     inkscape:pageopacity="0.0"
     inkscape:pageshadow="2"
     inkscape:zoom="0.35"
     inkscape:cx="120.31719"
     inkscape:cy="45.312497"
     inkscape:document-units="px"
     inkscape:current-layer="layer1"
     showgrid="false"
     fit-margin-top="0"
     fit-margin-left="0"
     fit-margin-right="0"
     fit-margin-bottom="0"
     inkscape:window-width="451"
     inkscape:window-height="398"
     inkscape:window-x="25"
     inkscape:window-y="25"
     inkscape:window-maximized="0" />
  <metadata
     id="metadata5714">
    <rdf:RDF>
      <cc:Work
         rdf:about="">
        <dc:format>image/svg+xml</dc:format>
        <dc:type
           rdf:resource="http://purl.org/dc/dcmitype/StillImage" />
        <dc:title></dc:title>
      </cc:Work>
    </rdf:RDF>
  </metadata>
  <g
     inkscape:label="Layer 1"
     inkscape:groupmode="layer"
     id="layer1"
     transform="translate(-254.68281,-487.04968)">
    <g
       transform="matrix(1.25,0,0,-1.25,20.62525,671.78768)"
       id="g4454">
      <g
         id="g4456"
         clip-path="url(#clipPath4458)">
        <g
           id="g4462"
           transform="translate(195.4648,147.5404)">
          <path
             inkscape:connector-curvature="0"
             d="m 0,0 176.07,0 c 4.381,0 7.965,-3.584 7.965,-7.965 l 0,-56.071 c 0,-4.38 -3.584,-7.964 -7.965,-7.964 L 0,-72 c -4.381,0 -7.965,3.584 -7.965,7.964 l 0,56.071 C -7.965,-3.584 -4.381,0 0,0"
             style="fill:#ffffff;fill-opacity:1;fill-rule:nonzero;stroke:none"
             id="path4464" />
        </g>
        <g
           id="g4466"
           transform="translate(195.4648,147.5404)">
          <path
             inkscape:connector-curvature="0"
             d="m 0,0 176.07,0 c 4.381,0 7.965,-3.584 7.965,-7.965 l 0,-56.071 c 0,-4.38 -3.584,-7.964 -7.965,-7.964 L 0,-72 c -4.381,0 -7.965,3.584 -7.965,7.964 l 0,56.071 C -7.965,-3.584 -4.381,0 0,0 z"
             style="fill:none;stroke:#231f20;stroke-width:0.5;stroke-linecap:butt;stroke-linejoin:miter;stroke-miterlimit:10;stroke-opacity:1;stroke-dasharray:none"
             id="path4468" />
        </g>
        <g
           id="g4470"
           transform="translate(195.4648,145.0404)">
          <path
             inkscape:connector-curvature="0"
             d="m 0,0 176.07,0 c 3.006,0 5.465,-2.459 5.465,-5.465 l 0,-56.071 c 0,-3.005 -2.459,-5.464 -5.465,-5.464 L 0,-67 c -3.006,0 -5.465,2.459 -5.465,5.464 l 0,56.071 C -5.465,-2.459 -3.006,0 0,0"
             style="fill:#155196;fill-opacity:1;fill-rule:evenodd;stroke:none"
             id="path4472" />
        </g>
        <g
           id="g4474"
           transform="translate(213.0225,136.6824)">
          <path
             inkscape:connector-curvature="0"
             d="m 0,0 -1.121,-4.601 2.3,0 L 0,0 z m 2.861,-11.221 -1.121,4.376 -3.423,0 -1.066,-4.376 -2.3,0 3.983,15.99 2.245,0 3.983,-15.99 -2.301,0 z"
             style="fill:#ffffff;fill-opacity:1;fill-rule:nonzero;stroke:none"
             id="path4476" />
        </g>
        <g
           id="g4478"
           transform="translate(226.6563,137.5804)">
          <path
             inkscape:connector-curvature="0"
             d="m 0,0 c -0.394,1.122 -1.066,1.627 -2.076,1.627 l -1.907,0 0,-11.502 1.907,0 c 1.347,0 2.076,1.066 2.3,2.301 0.113,1.009 0.224,2.132 0.224,3.366 C 0.448,-2.413 0.28,-0.673 0,0 m 0.392,-11.389 c -0.561,-0.506 -1.346,-0.73 -2.244,-0.73 l -4.432,0 0,15.99 4.095,0 c 1.347,0 2.02,-0.168 2.581,-0.617 C 1.347,2.581 2.019,1.347 2.3,-0.28 c 0.224,-1.179 0.392,-2.581 0.392,-3.816 0,-3.703 -0.728,-6.059 -2.3,-7.293"
             style="fill:#ffffff;fill-opacity:1;fill-rule:nonzero;stroke:none"
             id="path4480" />
        </g>
        <g
           id="g4482"
           transform="translate(238.8857,137.4684)">
          <path
             inkscape:connector-curvature="0"
             d="m 0,0 c -0.392,1.402 -1.01,2.02 -1.963,2.02 -1.01,0 -1.627,-0.618 -2.02,-1.964 -0.393,-1.235 -0.505,-2.301 -0.505,-4.096 0,-1.739 0.169,-2.749 0.505,-4.04 0.393,-1.346 1.01,-1.963 2.02,-1.963 0.953,0 1.571,0.617 1.963,1.963 0.394,1.291 0.506,2.245 0.506,4.096 C 0.506,-2.188 0.337,-1.179 0,0 m 1.796,-9.539 c -0.785,-1.907 -1.964,-2.749 -3.759,-2.749 -1.908,0 -3.03,0.842 -3.815,2.749 -0.674,1.572 -0.898,3.086 -0.898,5.555 0,2.413 0.224,4.04 0.898,5.555 0.842,1.907 1.964,2.693 3.815,2.693 1.852,0 2.974,-0.786 3.759,-2.749 0.673,-1.572 0.897,-3.086 0.897,-5.499 0,-2.469 -0.224,-4.039 -0.897,-5.555"
             style="fill:#ffffff;fill-opacity:1;fill-rule:nonzero;stroke:none"
             id="path4484" />
        </g>
        <g
           id="g4486"
           transform="translate(249.4336,139.2074)">
          <path
             inkscape:connector-curvature="0"
             d="m 0,0 -2.356,0 0,-4.545 2.356,0 c 1.347,0 2.076,0.842 2.076,2.301 C 2.076,-0.898 1.234,0 0,0 m 0.112,-6.733 -2.468,0 0,-7.013 -2.301,0 0,15.99 4.769,0 c 2.525,0 4.208,-1.795 4.208,-4.488 0,-2.918 -1.514,-4.489 -4.208,-4.489"
             style="fill:#ffffff;fill-opacity:1;fill-rule:nonzero;stroke:none"
             id="path4488" />
        </g>
        <g
           id="g4490"
           transform="translate(259.925,139.3194)">
          <path
             inkscape:connector-curvature="0"
             d="m 0,0 0,-13.858 -2.3,0 0,13.858 -2.918,0 0,2.132 8.136,0 L 2.918,0 0,0 z"
             style="fill:#ffffff;fill-opacity:1;fill-rule:nonzero;stroke:none"
             id="path4492" />
        </g>
        <g
           id="g4494"
           transform="translate(235.4541,114.7624)">
          <path
             inkscape:connector-curvature="0"
             d="m 0,0 -1.122,-4.602 2.301,0 L 0,0 z m 2.861,-11.222 -1.121,4.376 -3.423,0 -1.066,-4.376 -2.3,0 3.984,15.99 2.244,0 3.983,-15.99 -2.301,0 z"
             style="fill:#ffffff;fill-opacity:1;fill-rule:nonzero;stroke:none"
             id="path4496" />
        </g>
        <g
           id="g4498"
           transform="translate(206.4189,81.5494)">
          <path
             inkscape:connector-curvature="0"
             d="m 0,0 0,15.991 -2.3,0 0,-6.508 -4.377,0 0,6.508 -2.301,0 0,-15.991 2.301,0 0,7.238 4.377,0 L -2.3,0 0,0 z m 5.668,15.991 -2.244,0 0,-15.991 2.244,0 0,15.991 z m 12.121,-11.558 0,3.31 -4.097,0 0,-2.244 1.796,0 0,-1.066 c 0,-1.683 -0.561,-2.469 -1.74,-2.469 -1.234,0 -2.019,0.842 -2.356,2.413 -0.225,1.234 -0.337,2.637 -0.337,3.983 0,1.908 0.281,3.703 0.729,4.489 0.394,0.785 1.011,1.178 1.796,1.178 1.122,0 1.852,-0.73 1.908,-1.795 l 2.301,0 c -0.112,2.356 -1.851,4.039 -4.152,4.039 -1.853,0 -3.48,-1.234 -4.041,-2.917 -0.561,-1.516 -0.73,-3.142 -0.73,-5.387 0,-2.076 0.337,-4.32 0.842,-5.498 0.786,-1.796 2.188,-2.759 4.097,-2.759 1.627,0 2.918,0.851 3.535,2.254 0.337,0.673 0.449,1.347 0.449,2.469 M 29.91,0 l 0,15.991 -2.301,0 0,-6.508 -4.377,0 0,6.508 -2.3,0 0,-15.991 2.3,0 0,7.238 4.377,0 0,-7.238 2.301,0 z m 14.309,15.991 -2.244,0 -1.404,-8.528 -1.514,8.528 -1.796,0 -1.572,-8.528 -1.346,8.528 -2.245,0 L 34.623,0 36.644,0 38.158,8.36 39.674,0 41.638,0 44.219,15.991 z M 55.386,0 l -3.985,15.991 -2.244,0 L 45.173,0 l 2.301,0 1.066,4.377 3.423,0 L 53.085,0 55.386,0 z m -3.985,6.621 -2.3,0 1.122,4.6 1.178,-4.6 z m 15.152,9.37 -2.469,0 -2.639,-5.779 -2.693,5.779 -2.412,0 3.928,-8.753 0,-7.238 2.3,0 0,7.238"
             style="fill:#ffffff;fill-opacity:1;fill-rule:evenodd;stroke:none"
             id="path4500" />
        </g>
        <g
           id="g4502"
           transform="translate(288.049,128.0525)">
          <path
             inkscape:connector-curvature="0"
             d="m 0,0 c -1.754,0 -2.805,1.472 -2.805,3.12 l 1.402,0 c 0,-0.841 0.42,-1.718 1.403,-1.718 0.771,0 1.402,0.702 1.402,1.508 0,0.561 -0.211,0.982 -0.806,1.438 -0.211,0.21 0.349,-0.176 -1.684,1.192 -0.807,0.561 -1.227,1.332 -1.227,2.209 0,1.438 1.121,2.595 2.559,2.595 1.404,0 2.49,-1.087 2.525,-2.595 l -1.367,0 C 1.367,8.45 0.877,8.906 0.244,8.906 -0.422,8.906 -0.947,8.415 -0.947,7.749 -0.947,7.258 -0.736,6.978 0,6.557 1.928,5.435 2.769,4.348 2.769,2.91 2.769,1.297 1.543,0 0,0"
             style="fill:#ffffff;fill-opacity:1;fill-rule:nonzero;stroke:none"
             id="path4504" />
        </g>
        <g
           id="g4506"
           transform="translate(295.412,136.8184)">
          <path
             inkscape:connector-curvature="0"
             d="m 0,0 -1.473,0 0,-2.84 1.473,0 c 0.842,0 1.297,0.526 1.297,1.437 C 1.297,-0.561 0.772,0 0,0 m 0.07,-4.208 -1.543,0 0,-4.383 -1.437,0 0,9.994 2.98,0 c 1.579,0 2.629,-1.123 2.629,-2.806 0,-1.823 -0.945,-2.805 -2.629,-2.805"
             style="fill:#ffffff;fill-opacity:1;fill-rule:nonzero;stroke:none"
             id="path4508" />
        </g>
        <g
           id="g4510"
           transform="translate(303.477,135.7314)">
          <path
             inkscape:connector-curvature="0"
             d="m 0,0 c -0.247,0.877 -0.631,1.262 -1.227,1.262 -0.631,0 -1.018,-0.385 -1.264,-1.227 -0.244,-0.772 -0.314,-1.438 -0.314,-2.56 0,-1.087 0.105,-1.718 0.314,-2.525 0.246,-0.841 0.633,-1.227 1.264,-1.227 0.596,0 0.98,0.386 1.227,1.227 0.246,0.807 0.316,1.403 0.316,2.561 C 0.316,-1.367 0.211,-0.737 0,0 m 1.123,-5.962 c -0.493,-1.192 -1.229,-1.717 -2.35,-1.717 -1.193,0 -1.895,0.525 -2.385,1.717 -0.422,0.983 -0.56,1.929 -0.56,3.473 0,1.507 0.138,2.524 0.56,3.471 0.526,1.192 1.227,1.683 2.385,1.683 1.156,0 1.857,-0.491 2.35,-1.718 0.42,-0.982 0.56,-1.929 0.56,-3.436 0,-1.544 -0.14,-2.525 -0.56,-3.473"
             style="fill:#ffffff;fill-opacity:1;fill-rule:nonzero;stroke:none"
             id="path4512" />
        </g>
        <g
           id="g4514"
           transform="translate(311.682,128.2274)">
          <path
             inkscape:connector-curvature="0"
             d="m 0,0 -3.086,6.697 0,-6.697 -1.438,0 0,9.994 1.438,0 2.736,-5.997 0,5.997 1.438,0 L 1.088,0 0,0 z"
             style="fill:#ffffff;fill-opacity:1;fill-rule:nonzero;stroke:none"
             id="path4516" />
        </g>
        <g
           id="g4518"
           transform="translate(317.256,128.0525)">
          <path
             inkscape:connector-curvature="0"
             d="m 0,0 c -1.752,0 -2.805,1.472 -2.805,3.12 l 1.403,0 c 0,-0.841 0.421,-1.718 1.402,-1.718 0.771,0 1.402,0.702 1.402,1.508 0,0.561 -0.209,0.982 -0.804,1.438 -0.211,0.21 0.349,-0.176 -1.684,1.192 -0.807,0.561 -1.229,1.332 -1.229,2.209 0,1.438 1.123,2.595 2.561,2.595 1.402,0 2.49,-1.087 2.525,-2.595 l -1.369,0 C 1.367,8.45 0.877,8.906 0.246,8.906 -0.42,8.906 -0.945,8.415 -0.945,7.749 -0.945,7.258 -0.736,6.978 0,6.557 1.93,5.435 2.771,4.348 2.771,2.91 2.771,1.297 1.543,0 0,0"
             style="fill:#ffffff;fill-opacity:1;fill-rule:nonzero;stroke:none"
             id="path4520" />
        </g>
        <g
           id="g4522"
           transform="translate(325.707,135.7314)">
          <path
             inkscape:connector-curvature="0"
             d="m 0,0 c -0.246,0.877 -0.631,1.262 -1.227,1.262 -0.63,0 -1.017,-0.385 -1.263,-1.227 -0.244,-0.772 -0.315,-1.438 -0.315,-2.56 0,-1.087 0.106,-1.718 0.315,-2.525 0.246,-0.841 0.633,-1.227 1.263,-1.227 0.596,0 0.981,0.386 1.227,1.227 0.246,0.807 0.314,1.403 0.314,2.561 C 0.314,-1.367 0.211,-0.737 0,0 m 1.123,-5.962 c -0.492,-1.192 -1.228,-1.717 -2.35,-1.717 -1.193,0 -1.894,0.525 -2.384,1.717 -0.422,0.983 -0.561,1.929 -0.561,3.473 0,1.507 0.139,2.524 0.561,3.471 0.525,1.192 1.226,1.683 2.384,1.683 1.157,0 1.858,-0.491 2.35,-1.718 0.42,-0.982 0.561,-1.929 0.561,-3.436 0,-1.544 -0.141,-2.525 -0.561,-3.473"
             style="fill:#ffffff;fill-opacity:1;fill-rule:nonzero;stroke:none"
             id="path4524" />
        </g>
        <g
           id="g4526"
           transform="translate(332.299,136.8184)">
          <path
             inkscape:connector-curvature="0"
             d="m 0,0 -1.473,0 0,-2.525 1.473,0 c 0.842,0 1.297,0.456 1.297,1.262 C 1.297,-0.491 0.771,0 0,0 m 1.228,-8.591 -1.334,4.699 -1.367,0 0,-4.699 -1.437,0 0,9.994 2.98,0 c 1.578,0 2.631,-1.053 2.631,-2.666 0,-1.191 -0.492,-2.068 -1.437,-2.419 l 1.437,-4.909 -1.473,0 z"
             style="fill:#ffffff;fill-opacity:1;fill-rule:nonzero;stroke:none"
             id="path4528" />
        </g>
        <g
           id="g4530"
           transform="translate(336.682,128.2274)">
          <path
             inkscape:connector-curvature="0"
             d="m 0,0 0,9.994 4.699,0 0,-1.403 -3.262,0 0,-2.525 2.07,0 0,-1.367 -2.07,0 0,-3.297 3.649,0 L 5.086,0 0,0 z"
             style="fill:#ffffff;fill-opacity:1;fill-rule:nonzero;stroke:none"
             id="path4532" />
        </g>
        <g
           id="g4534"
           transform="translate(347.377,135.8014)">
          <path
             inkscape:connector-curvature="0"
             d="m 0,0 c -0.246,0.701 -0.666,1.017 -1.297,1.017 l -1.193,0 0,-7.189 1.193,0 c 0.842,0 1.297,0.667 1.438,1.438 0.07,0.631 0.14,1.333 0.14,2.104 C 0.281,-1.508 0.176,-0.421 0,0 m 0.246,-7.118 c -0.352,-0.316 -0.842,-0.456 -1.402,-0.456 l -2.772,0 0,9.994 2.561,0 c 0.842,0 1.261,-0.105 1.613,-0.386 0.596,-0.421 1.016,-1.193 1.191,-2.209 0.141,-0.737 0.247,-1.614 0.247,-2.384 0,-2.315 -0.457,-3.788 -1.438,-4.559"
             style="fill:#ffffff;fill-opacity:1;fill-rule:nonzero;stroke:none"
             id="path4536" />
        </g>
        <g
           id="g4538"
           transform="translate(359.58,132.7504)">
          <path
             inkscape:connector-curvature="0"
             d="m 0,0 -1.437,0 0,-3.121 1.437,0 c 0.807,0 1.332,0.561 1.332,1.438 C 1.332,-0.736 0.736,0 0,0 m 0.07,4.068 -1.507,0 0,-2.665 1.507,0 c 0.666,0 1.086,0.561 1.086,1.473 0,0.841 -0.314,1.192 -1.086,1.192 m 0,-8.591 -2.947,0 0,9.994 3.156,0 c 1.334,0 2.28,-1.053 2.28,-2.595 0,-0.912 -0.244,-1.333 -1.051,-2.175 0.771,-0.63 1.226,-1.472 1.226,-2.489 0,-1.508 -1.191,-2.735 -2.664,-2.735"
             style="fill:#ffffff;fill-opacity:1;fill-rule:nonzero;stroke:none"
             id="path4540" />
        </g>
        <g
           id="g4542"
           transform="translate(367.119,132.7504)">
          <path
             inkscape:connector-curvature="0"
             d="m 0,0 0,-4.523 -1.437,0 0,4.523 -2.455,5.471 1.507,0 1.682,-3.612 1.648,3.612 1.543,0 L 0,0 z"
             style="fill:#ffffff;fill-opacity:1;fill-rule:nonzero;stroke:none"
             id="path4544" />
        </g>
        <g
           id="g4546"
           transform="translate(289.391,117.5754)">
          <path
             inkscape:connector-curvature="0"
             d="m 0,0 75.974,0 c 2.211,0 4.02,-1.813 4.02,-4.03 l 0,-27.945 c 0,-2.217 -1.809,-4.03 -4.02,-4.03 l -75.974,0 c -2.209,0 -4.018,1.813 -4.018,4.03 l 0,27.945 C -4.018,-1.813 -2.209,0 0,0"
             style="fill:#ffffff;fill-opacity:1;fill-rule:evenodd;stroke:none"
             id="path4548" />
        </g>
        <g
           id="g4550"
           transform="translate(289.391,116.3254)">
          <path
             inkscape:connector-curvature="0"
             d="m 0,0 75.974,0 c 1.524,0 2.77,-1.251 2.77,-2.78 l 0,-27.945 c 0,-1.529 -1.246,-2.78 -2.77,-2.78 l -75.974,0 c -1.522,0 -2.768,1.251 -2.768,2.78 l 0,27.945 C -2.768,-1.251 -1.522,0 0,0"
             style="fill:#155196;fill-opacity:1;fill-rule:evenodd;stroke:none"
             id="path4552" />
        </g>
        <g
           id="g4554"
           transform="translate(312.367,110.6504)">
          <path
             inkscape:connector-curvature="0"
             d="m 0,0 0,-2.526 1.998,0 0,-1.367 -1.998,0 0,-4.7 -1.437,0 0,9.996 5.084,0 L 3.647,0 0,0 z"
             style="fill:#ffffff;fill-opacity:1;fill-rule:nonzero;stroke:none"
             id="path4556" />
        </g>
        <g
           id="g4558"
           transform="translate(320.328,110.6504)">
          <path
             inkscape:connector-curvature="0"
             d="m 0,0 -1.473,0 0,-2.526 1.473,0 c 0.842,0 1.299,0.456 1.299,1.263 C 1.299,-0.492 0.772,0 0,0 m 1.229,-8.593 -1.334,4.7 -1.368,0 0,-4.7 -1.437,0 0,9.996 2.98,0 c 1.579,0 2.631,-1.053 2.631,-2.666 0,-1.192 -0.492,-2.069 -1.437,-2.42 l 1.437,-4.91 -1.472,0 z"
             style="fill:#ffffff;fill-opacity:1;fill-rule:nonzero;stroke:none"
             id="path4560" />
        </g>
        <g
           id="g4562"
           transform="translate(324.713,102.0574)">
          <path
             inkscape:connector-curvature="0"
             d="m 0,0 0,9.996 4.699,0 0,-1.403 -3.262,0 0,-2.526 2.069,0 0,-1.367 -2.069,0 0,-3.297 3.649,0 L 5.086,0 0,0 z"
             style="fill:#ffffff;fill-opacity:1;fill-rule:nonzero;stroke:none"
             id="path4564" />
        </g>
        <g
           id="g4566"
           transform="translate(335.408,109.6335)">
          <path
             inkscape:connector-curvature="0"
             d="m 0,0 c -0.244,0.701 -0.666,1.017 -1.297,1.017 l -1.193,0 0,-7.19 1.193,0 c 0.842,0 1.297,0.666 1.438,1.438 0.07,0.631 0.14,1.333 0.14,2.104 C 0.281,-1.509 0.176,-0.421 0,0 m 0.246,-7.121 c -0.349,-0.315 -0.841,-0.455 -1.402,-0.455 l -2.772,0 0,9.996 2.561,0 c 0.842,0 1.264,-0.105 1.613,-0.386 0.598,-0.421 1.018,-1.193 1.194,-2.21 0.14,-0.736 0.244,-1.613 0.244,-2.385 0,-2.315 -0.455,-3.788 -1.438,-4.56"
             style="fill:#ffffff;fill-opacity:1;fill-rule:nonzero;stroke:none"
             id="path4568" />
        </g>
        <g
           id="g4570"
           transform="translate(341.058,101.8824)">
          <path
             inkscape:connector-curvature="0"
             d="m 0,0 c -1.754,0 -2.807,1.472 -2.807,3.121 l 1.402,0 c 0,-0.842 0.422,-1.719 1.405,-1.719 0.771,0 1.402,0.702 1.402,1.508 0,0.562 -0.211,0.983 -0.807,1.439 -0.211,0.21 0.352,-0.176 -1.683,1.192 -0.807,0.561 -1.227,1.333 -1.227,2.21 0,1.438 1.121,2.595 2.559,2.595 1.404,0 2.49,-1.087 2.525,-2.595 l -1.367,0 C 1.367,8.452 0.877,8.908 0.244,8.908 -0.422,8.908 -0.948,8.417 -0.948,7.751 -0.948,7.259 -0.737,6.979 0,6.558 1.927,5.436 2.769,4.349 2.769,2.91 2.769,1.297 1.543,0 0,0"
             style="fill:#ffffff;fill-opacity:1;fill-rule:nonzero;stroke:none"
             id="path4572" />
        </g>
        <g
           id="g4574"
           transform="translate(300.742,86.9064)">
          <path
             inkscape:connector-curvature="0"
             d="m 0,0 c -1.754,0 -2.806,1.473 -2.806,3.122 l 1.404,0 c 0,-0.842 0.42,-1.719 1.402,-1.719 0.772,0 1.403,0.702 1.403,1.508 0,0.561 -0.209,0.982 -0.807,1.438 -0.209,0.211 0.351,-0.176 -1.684,1.193 -0.806,0.561 -1.226,1.332 -1.226,2.209 0,1.438 1.121,2.596 2.56,2.596 1.403,0 2.491,-1.088 2.526,-2.596 l -1.369,0 C 1.367,8.453 0.877,8.909 0.246,8.909 -0.42,8.909 -0.947,8.418 -0.947,7.751 -0.947,7.26 -0.736,6.98 0,6.559 1.93,5.436 2.772,4.349 2.772,2.911 2.772,1.298 1.543,0 0,0"
             style="fill:#ffffff;fill-opacity:1;fill-rule:nonzero;stroke:none"
             id="path4576" />
        </g>
        <path
           inkscape:connector-curvature="0"
           d="m 305.195,97.077 1.405,0 0,-9.996 -1.405,0 0,9.996 z"
           style="fill:#ffffff;fill-opacity:1;fill-rule:nonzero;stroke:none"
           id="path4578" />
        <g
           id="g4580"
           transform="translate(313.93,88.3094)">
          <path
             inkscape:connector-curvature="0"
             d="m 0,0 c -0.387,-0.877 -1.194,-1.403 -2.211,-1.403 -1.192,0 -2.069,0.596 -2.559,1.718 -0.316,0.737 -0.527,2.14 -0.527,3.438 0,1.403 0.105,2.42 0.457,3.367 0.349,1.052 1.367,1.824 2.525,1.824 1.438,0 2.524,-1.053 2.594,-2.526 l -1.438,0 c -0.035,0.667 -0.49,1.123 -1.191,1.123 -0.492,0 -0.877,-0.246 -1.123,-0.737 -0.281,-0.491 -0.455,-1.613 -0.455,-2.806 0,-0.841 0.07,-1.718 0.209,-2.49 C -3.508,0.526 -3.016,0 -2.244,0 c 0.736,0 1.085,0.491 1.085,1.543 l 0,0.666 -1.123,0 0,1.403 2.561,0 0,-2.069 C 0.279,0.842 0.209,0.421 0,0"
             style="fill:#ffffff;fill-opacity:1;fill-rule:nonzero;stroke:none"
             id="path4582" />
        </g>
        <g
           id="g4584"
           transform="translate(320.732,87.0814)">
          <path
             inkscape:connector-curvature="0"
             d="m 0,0 -3.086,6.699 0,-6.699 -1.437,0 0,9.996 1.437,0 2.737,-5.998 0,5.998 1.437,0 L 1.088,0 0,0 z"
             style="fill:#ffffff;fill-opacity:1;fill-rule:nonzero;stroke:none"
             id="path4586" />
        </g>
        <g
           id="g4588"
           transform="translate(331.289,86.9064)">
          <path
             inkscape:connector-curvature="0"
             d="m 0,0 c -1.754,0 -2.805,1.473 -2.805,3.122 l 1.403,0 c 0,-0.842 0.42,-1.719 1.402,-1.719 0.772,0 1.402,0.702 1.402,1.508 0,0.561 -0.209,0.982 -0.806,1.438 -0.209,0.211 0.351,-0.176 -1.684,1.193 -0.805,0.561 -1.226,1.332 -1.226,2.209 0,1.438 1.123,2.596 2.56,2.596 1.403,0 2.49,-1.088 2.526,-2.596 l -1.37,0 C 1.369,8.453 0.877,8.909 0.246,8.909 -0.42,8.909 -0.947,8.418 -0.947,7.751 -0.947,7.26 -0.736,6.98 0,6.559 1.93,5.436 2.772,4.349 2.772,2.911 2.772,1.298 1.543,0 0,0"
             style="fill:#ffffff;fill-opacity:1;fill-rule:nonzero;stroke:none"
             id="path4590" />
        </g>
        <g
           id="g4592"
           transform="translate(339.918,87.0814)">
          <path
             inkscape:connector-curvature="0"
             d="m 0,0 0,4.525 -2.736,0 0,-4.525 -1.438,0 0,9.996 1.438,0 0,-4.068 2.736,0 0,4.068 1.437,0 L 1.437,0 0,0 z"
             style="fill:#ffffff;fill-opacity:1;fill-rule:nonzero;stroke:none"
             id="path4594" />
        </g>
        <g
           id="g4596"
           transform="translate(347.527,94.5874)">
          <path
             inkscape:connector-curvature="0"
             d="m 0,0 c -0.244,0.877 -0.631,1.263 -1.226,1.263 -0.633,0 -1.018,-0.386 -1.264,-1.228 -0.246,-0.772 -0.316,-1.438 -0.316,-2.56 0,-1.088 0.105,-1.719 0.316,-2.526 0.246,-0.841 0.631,-1.227 1.264,-1.227 0.595,0 0.982,0.386 1.226,1.227 0.246,0.807 0.317,1.403 0.317,2.561 C 0.317,-1.368 0.211,-0.737 0,0 m 1.123,-5.963 c -0.492,-1.192 -1.228,-1.718 -2.349,-1.718 -1.194,0 -1.895,0.526 -2.385,1.718 -0.422,0.983 -0.562,1.93 -0.562,3.473 0,1.508 0.14,2.525 0.562,3.472 0.525,1.193 1.227,1.684 2.385,1.684 1.156,0 1.857,-0.491 2.349,-1.719 0.42,-0.982 0.561,-1.929 0.561,-3.437 0,-1.543 -0.141,-2.525 -0.561,-3.473"
             style="fill:#ffffff;fill-opacity:1;fill-rule:nonzero;stroke:none"
             id="path4598" />
        </g>
        <g
           id="g4600"
           transform="translate(354.121,95.6744)">
          <path
             inkscape:connector-curvature="0"
             d="m 0,0 -1.473,0 0,-2.841 1.473,0 c 0.842,0 1.297,0.527 1.297,1.438 C 1.297,-0.561 0.772,0 0,0 m 0.07,-4.208 -1.543,0 0,-4.385 -1.439,0 0,9.996 2.982,0 c 1.579,0 2.631,-1.122 2.631,-2.806 0,-1.823 -0.947,-2.805 -2.631,-2.805"
             style="fill:#ffffff;fill-opacity:1;fill-rule:nonzero;stroke:none"
             id="path4602" />
        </g>
      </g>
    </g>
  </g>
</svg>
