<?xml version="1.0" encoding="UTF-8" standalone="no"?>
<!-- Created with Inkscape (http://www.inkscape.org/) -->

<svg
   xmlns:dc="http://purl.org/dc/elements/1.1/"
   xmlns:cc="http://creativecommons.org/ns#"
   xmlns:rdf="http://www.w3.org/1999/02/22-rdf-syntax-ns#"
   xmlns:svg="http://www.w3.org/2000/svg"
   xmlns="http://www.w3.org/2000/svg"
   xmlns:sodipodi="http://sodipodi.sourceforge.net/DTD/sodipodi-0.dtd"
   xmlns:inkscape="http://www.inkscape.org/namespaces/inkscape"
   width="73.632812"
   height="73.632828"
   id="svg4647"
   version="1.1"
   inkscape:version="0.48.3.1 r9886"
   sodipodi:docname="New document 22">
  <defs
     id="defs4649">
    <clipPath
       clipPathUnits="userSpaceOnUse"
       id="clipPath3591">
      <path
         inkscape:connector-curvature="0"
         d="m 63,43 512.622,0 0,313.129 L 63,356.129 63,43 z"
         id="path3593" />
    </clipPath>
    <clipPath
       clipPathUnits="userSpaceOnUse"
       id="clipPath3579">
      <path
         inkscape:connector-curvature="0"
         d="m 67.189,43 504.243,0 0,313.129 -504.243,0 0,-313.129 z"
         id="path3581" />
    </clipPath>
    <clipPath
       clipPathUnits="userSpaceOnUse"
       id="clipPath3567">
      <path
         inkscape:connector-curvature="0"
         d="m 63,43 512.622,0 0,313.129 L 63,356.129 63,43 z"
         id="path3569" />
    </clipPath>
  </defs>
  <sodipodi:namedview
     id="base"
     pagecolor="#ffffff"
     bordercolor="#666666"
     borderopacity="1.0"
     inkscape:pageopacity="0.0"
     inkscape:pageshadow="2"
     inkscape:zoom="0.35"
     inkscape:cx="36.830495"
     inkscape:cy="36.811262"
     inkscape:document-units="px"
     inkscape:current-layer="layer1"
     showgrid="false"
     fit-margin-top="0"
     fit-margin-left="0"
     fit-margin-right="0"
     fit-margin-bottom="0"
     inkscape:window-width="451"
     inkscape:window-height="398"
     inkscape:window-x="125"
     inkscape:window-y="125"
     inkscape:window-maximized="0" />
  <metadata
     id="metadata4652">
    <rdf:RDF>
      <cc:Work
         rdf:about="">
        <dc:format>image/svg+xml</dc:format>
        <dc:type
           rdf:resource="http://purl.org/dc/dcmitype/StillImage" />
        <dc:title></dc:title>
      </cc:Work>
    </rdf:RDF>
  </metadata>
  <g
     inkscape:label="Layer 1"
     inkscape:groupmode="layer"
     id="layer1"
     transform="translate(-338.1695,-495.54062)">
    <g
       transform="matrix(1.25,0,0,-1.25,-302.47387,797.41968)"
       id="g3563">
      <g
         id="g3565"
         clip-path="url(#clipPath3567)">
        <g
           id="g3571"
           transform="translate(565.7022,182.847)">
          <path
             inkscape:connector-curvature="0"
             d="m 0,0 -47.446,-0.006 c -3.021,0 -5.48,2.463 -5.48,5.484 l 0,47.443 c 0,3.021 2.459,5.478 5.48,5.478 L 0,58.404 c 3.018,0 5.48,-2.462 5.48,-5.483 l 0,-47.443 C 5.475,2.497 2.98,-0.006 0,0"
             style="fill:#ffffff;fill-opacity:1;fill-rule:nonzero;stroke:none"
             id="path3573" />
        </g>
      </g>
    </g>
    <g
       transform="matrix(1.25,0,0,-1.25,-302.47387,797.41968)"
       id="g3575">
      <g
         id="g3577"
         clip-path="url(#clipPath3579)">
        <g
           id="g3583"
           transform="translate(565.7022,182.847)">
          <path
             inkscape:connector-curvature="0"
             d="m 0,0 -47.446,-0.006 c -3.021,0 -5.48,2.463 -5.48,5.484 l 0,47.443 c 0,3.021 2.459,5.478 5.48,5.478 L 0,58.404 c 3.018,0 5.48,-2.462 5.48,-5.483 l 0,-47.443 C 5.475,2.497 2.98,-0.006 0,0"
             style="fill:none;stroke:#231f20;stroke-width:0.5;stroke-linecap:butt;stroke-linejoin:miter;stroke-miterlimit:4;stroke-opacity:1;stroke-dasharray:none"
             id="path3585" />
        </g>
      </g>
    </g>
    <g
       transform="matrix(1.25,0,0,-1.25,-302.47387,797.41968)"
       id="g3587">
      <g
         id="g3589"
         clip-path="url(#clipPath3591)">
        <g
           id="g3595"
           transform="translate(565.6823,184.364)">
          <path
             inkscape:connector-curvature="0"
             d="m 0,0 -47.409,0 c -2.174,0.006 -3.972,1.807 -3.975,3.98 l 0,47.405 c 0,2.176 1.804,3.971 3.978,3.98 L -0.002,55.359 C 2.174,55.356 3.973,53.561 3.975,51.385 L 3.978,3.98 C 3.969,1.807 2.174,0 0,0"
             style="fill:#00674c;fill-opacity:1;fill-rule:evenodd;stroke:none"
             id="path3597" />
        </g>
        <g
           id="g3599"
           transform="translate(546.7582,219.921)">
          <path
             inkscape:connector-curvature="0"
             d="M 0,0 C 0.022,0.567 0.045,1.134 0.068,1.701 6.879,5.676 13.69,9.647 20.501,13.622 l 0,-39.913 -17.505,0 c -0.044,2.247 -0.091,4.496 -0.134,6.743 l -6.677,0 c -0.046,0.521 -0.089,1.042 -0.135,1.566 l 7.833,0 c -0.025,1.544 -0.047,3.088 -0.068,4.633 -0.031,0.278 -0.106,0.535 -0.478,0.61 0,1.385 -0.018,3.016 0,4.155 0.019,1.142 0.513,1.353 1.431,1.364 0.918,0.008 1.412,-0.222 1.432,-1.364 0.015,-1.139 0,-2.735 0,-4.053 -0.309,0.012 -0.471,-0.375 -0.436,-0.704 -0.045,-1.658 -0.066,-2.984 -0.109,-4.641 l 4.835,0 0,17.912 C 6.993,-0.046 3.496,-0.024 0,0"
             style="fill:#ffffff;fill-opacity:1;fill-rule:evenodd;stroke:none"
             id="path3601" />
        </g>
        <g
           id="g3603"
           transform="translate(551.5962,214.915)">
          <path
             inkscape:connector-curvature="0"
             d="m 0,0 c 0.492,0 0.891,-0.402 0.891,-0.89 0,-0.492 -0.399,-0.892 -0.891,-0.892 -0.491,0 -0.89,0.4 -0.89,0.892 C -0.89,-0.402 -0.491,0 0,0"
             style="fill:#ffffff;fill-opacity:1;fill-rule:evenodd;stroke:none"
             id="path3605" />
        </g>
        <g
           id="g3607"
           transform="translate(541.2022,199.436)">
          <path
             inkscape:connector-curvature="0"
             d="m 0,0 -0.022,2.503 -0.384,0.54 0.47,3.909 -1.431,10.966 c -0.092,0.72 -0.27,1.441 -0.712,2.035 -0.257,0.341 -0.583,0.646 -0.951,0.867 -0.287,0.173 -0.607,0.272 -0.945,0.272 l -6.766,0 c 0.581,0.225 0.971,0.641 0.971,1.113 0,0.119 -0.026,0.238 -0.075,0.348 l 4.683,0 0,-0.381 c 0,-0.207 0.171,-0.38 0.384,-0.38 l 0.179,0 c 0.211,0 0.384,0.173 0.384,0.38 l 0,0.381 0.011,0 0,1.01 -14.98,0 0,-1.01 0.005,0 0,-0.381 c 0,-0.207 0.173,-0.38 0.384,-0.38 l 0.178,0 c 0.212,0 0.386,0.173 0.386,0.38 l 0,0.381 4.582,0 c -0.049,-0.11 -0.073,-0.229 -0.073,-0.348 0,-0.472 0.392,-0.888 0.972,-1.113 l -5.092,0 c -0.6,0 -1.215,-0.002 -1.796,-0.167 -0.583,-0.165 -1.099,-0.491 -1.525,-0.915 -0.459,-0.451 -0.8,-1.015 -0.883,-1.658 L -23.448,7.438 -22.951,2.988 -23.28,2.527 -23.291,0 l 4.631,0 -0.411,-0.692 -1.436,0 -0.765,-1.46 1.405,0 -0.616,-1.083 -1.404,0 -0.848,-1.579 1.414,0 -0.725,-1.334 -1.412,0 -1.048,-1.782 1.502,0 -0.53,-0.945 1.396,-0.011 0.575,0.956 19.637,0 0.535,-0.956 1.436,0.011 -0.489,0.945 1.337,0 -0.923,1.782 -1.412,0 -0.726,1.334 1.39,0 -0.807,1.579 -1.501,0 -0.535,1.083 1.418,0 -0.843,1.46 -1.369,0 L -4.861,0 0.064,0 0,0 z m -6.19,-0.011 0.371,-0.681 -11.851,0 0.402,0.681 11.078,0 z"
             style="fill:#ffffff;fill-opacity:1;fill-rule:evenodd;stroke:none"
             id="path3609" />
        </g>
        <path
           inkscape:connector-curvature="0"
           d="m 520.087,202.152 19.036,0 0,-0.681 -19.036,0 0,0.681 z"
           style="fill:#00674c;fill-opacity:1;fill-rule:evenodd;stroke:none"
           id="path3611" />
        <path
           inkscape:connector-curvature="0"
           d="m 523.692,219.935 11.496,0 0,-2.622 -11.496,0 0,2.622 z"
           style="fill:#00674c;fill-opacity:1;fill-rule:evenodd;stroke:none"
           id="path3613" />
        <g
           id="g3615"
           transform="translate(530.3012,216.627)">
          <path
             inkscape:connector-curvature="0"
             d="M 0,0 8.768,-0.572 9.504,-7.704 0,-7.704 0,0 z"
             style="fill:#00674c;fill-opacity:1;fill-rule:evenodd;stroke:none"
             id="path3617" />
        </g>
        <g
           id="g3619"
           transform="translate(519.2392,208.923)">
          <path
             inkscape:connector-curvature="0"
             d="M 0,0 0.818,7.048 9.343,7.734 9.343,0 0,0 z"
             style="fill:#00674c;fill-opacity:1;fill-rule:evenodd;stroke:none"
             id="path3621" />
        </g>
        <g
           id="g3623"
           transform="translate(521.8352,204.117)">
          <path
             inkscape:connector-curvature="0"
             d="m 0,0 c -0.127,-0.226 -0.297,-0.405 -0.549,-0.502 -0.443,-0.17 -0.942,-0.016 -1.212,0.375 -0.236,0.341 -0.236,0.797 0.003,1.14 0.267,0.383 0.771,0.537 1.209,0.37 C -0.295,1.288 -0.127,1.105 0,0.875 0.124,1.105 0.293,1.288 0.542,1.386 0.98,1.55 1.487,1.391 1.751,1.013 1.992,0.67 1.995,0.219 1.757,-0.127 1.496,-0.51 0.982,-0.675 0.542,-0.507 0.293,-0.41 0.126,-0.226 0,0"
             style="fill:#00674c;fill-opacity:1;fill-rule:evenodd;stroke:none"
             id="path3625" />
        </g>
        <g
           id="g3627"
           transform="translate(537.1842,204.147)">
          <path
             inkscape:connector-curvature="0"
             d="M 0,0 C -0.125,-0.229 -0.292,-0.418 -0.546,-0.513 -0.977,-0.675 -1.49,-0.529 -1.752,-0.146 -1.993,0.2 -1.996,0.646 -1.764,0.997 -1.502,1.391 -0.986,1.547 -0.546,1.375 -0.287,1.274 -0.133,1.105 0,0.872 0.124,1.099 0.294,1.28 0.543,1.377 0.981,1.55 1.496,1.38 1.758,0.997 1.951,0.708 1.995,0.357 1.852,0.038 1.65,-0.418 1.191,-0.637 0.707,-0.559 0.369,-0.505 0.151,-0.286 0,0"
             style="fill:#00674c;fill-opacity:1;fill-rule:evenodd;stroke:none"
             id="path3629" />
        </g>
        <g
           id="g3631"
           transform="translate(529.4812,221.822)">
          <path
             inkscape:connector-curvature="0"
             d="m 0,0 c 0.315,0 0.574,-0.151 0.574,-0.338 0,-0.188 -0.259,-0.34 -0.574,-0.34 -0.316,0 -0.576,0.152 -0.576,0.34 C -0.576,-0.151 -0.316,0 0,0"
             style="fill:#00674c;fill-opacity:1;fill-rule:evenodd;stroke:none"
             id="path3633" />
        </g>
        <g
           id="g3635"
           transform="translate(537.5882,194.543)">
          <path
             inkscape:connector-curvature="0"
             d="m 0,0 -16.261,0 -0.721,-1.342 17.703,0 L 0,0 z"
             style="fill:#00674c;fill-opacity:1;fill-rule:evenodd;stroke:none"
             id="path3637" />
        </g>
        <g
           id="g3639"
           transform="translate(536.1442,197.224)">
          <path
             inkscape:connector-curvature="0"
             d="m 0,0 -13.37,0 -0.613,-1.05 14.556,0 L 0,0 z"
             style="fill:#00674c;fill-opacity:1;fill-rule:evenodd;stroke:none"
             id="path3641" />
        </g>
      </g>
    </g>
  </g>
</svg>
