<?xml version="1.0" encoding="UTF-8" standalone="no"?>
<!-- Created with Inkscape (http://www.inkscape.org/) -->

<svg
   xmlns:dc="http://purl.org/dc/elements/1.1/"
   xmlns:cc="http://creativecommons.org/ns#"
   xmlns:rdf="http://www.w3.org/1999/02/22-rdf-syntax-ns#"
   xmlns:svg="http://www.w3.org/2000/svg"
   xmlns="http://www.w3.org/2000/svg"
   xmlns:sodipodi="http://sodipodi.sourceforge.net/DTD/sodipodi-0.dtd"
   xmlns:inkscape="http://www.inkscape.org/namespaces/inkscape"
   width="73.632812"
   height="55.390625"
   id="svg4013"
   version="1.1"
   inkscape:version="0.48.3.1 r9886"
   sodipodi:docname="New document 8">
  <defs
     id="defs4015">
    <clipPath
       clipPathUnits="userSpaceOnUse"
       id="clipPath3401">
      <path
         inkscape:connector-curvature="0"
         d="m 63,43 512.622,0 0,313.129 L 63,356.129 63,43 z"
         id="path3403" />
    </clipPath>
  </defs>
  <sodipodi:namedview
     id="base"
     pagecolor="#ffffff"
     bordercolor="#666666"
     borderopacity="1.0"
     inkscape:pageopacity="0.0"
     inkscape:pageshadow="2"
     inkscape:zoom="0.35"
     inkscape:cx="36.824375"
     inkscape:cy="27.700627"
     inkscape:document-units="px"
     inkscape:current-layer="layer1"
     showgrid="false"
     fit-margin-top="0"
     fit-margin-left="0"
     fit-margin-right="0"
     fit-margin-bottom="0"
     inkscape:window-width="451"
     inkscape:window-height="398"
     inkscape:window-x="150"
     inkscape:window-y="150"
     inkscape:window-maximized="0" />
  <metadata
     id="metadata4018">
    <rdf:RDF>
      <cc:Work
         rdf:about="">
        <dc:format>image/svg+xml</dc:format>
        <dc:type
           rdf:resource="http://purl.org/dc/dcmitype/StillImage" />
        <dc:title></dc:title>
      </cc:Work>
    </rdf:RDF>
  </metadata>
  <g
     inkscape:label="Layer 1"
     inkscape:groupmode="layer"
     id="layer1"
     transform="translate(-338.17562,-504.67219)">
    <g
       transform="matrix(1.25,0,0,-1.25,40.024125,892.39206)"
       id="g3397">
      <g
         id="g3399"
         clip-path="url(#clipPath3401)">
        <g
           id="g3405"
           transform="translate(243.6462,309.9259)">
          <path
             inkscape:connector-curvature="0"
             d="m 0,0 48.669,0 c 2.682,0 4.868,-2.186 4.868,-4.867 l 0,-34.069 c 0,-2.681 -2.186,-4.868 -4.868,-4.868 l -48.669,0 c -2.682,0 -4.868,2.187 -4.868,4.868 l 0,34.069 C -4.868,-2.22 -2.649,0 0,0"
             style="fill:#ffffff;fill-opacity:1;fill-rule:nonzero;stroke:#231f20;stroke-width:0.5;stroke-linecap:butt;stroke-linejoin:miter;stroke-miterlimit:4;stroke-opacity:1;stroke-dasharray:none"
             id="path3407" />
        </g>
        <g
           id="g3409"
           transform="translate(243.6652,308.4664)">
          <path
             inkscape:connector-curvature="0"
             d="m 0,0 48.63,0 c 1.877,0.001 3.421,-1.555 3.427,-3.425 l 0,-34.033 c -0.006,-1.871 -1.55,-3.428 -3.427,-3.425 l -48.63,0 c -1.875,-0.002 -3.424,1.554 -3.428,3.425 l 0,34.033 C -3.424,-1.555 -1.875,0 0,0"
             style="fill:#00674c;fill-opacity:1;fill-rule:evenodd;stroke:none"
             id="path3411" />
        </g>
        <g
           id="g3413"
           transform="translate(292.9502,293.4742)">
          <path
             inkscape:connector-curvature="0"
             d="m 0,0 c 0,1.327 -1.024,2.075 -3.063,2.483 -1.021,0.171 -1.158,0.238 -1.158,0.51 0,0.272 0.309,0.374 1.022,0.374 0.646,0 1.531,-0.238 2.244,-0.612 l 0.75,1.702 c -1.123,0.544 -2.077,0.748 -3.063,0.748 -1.767,0 -2.89,-0.783 -2.89,-2.041 0,-1.089 0.679,-1.803 2.21,-2.245 0.305,-0.103 1.088,-0.273 1.463,-0.375 0.373,-0.067 0.545,-0.238 0.545,-0.441 0,-0.272 -0.511,-0.409 -1.293,-0.409 -0.715,0 -1.668,0.203 -2.381,0.545 l -0.748,-1.701 c 1.02,-0.511 1.872,-0.686 3.198,-0.686 1.121,0 1.937,0.209 2.55,0.72 C -0.172,-1.054 0,-0.613 0,0 m -10.274,1.497 c 0,-1.02 -0.646,-1.837 -1.361,-1.837 -0.75,0 -1.328,0.817 -1.328,1.837 0,1.055 0.578,1.87 1.328,1.87 0.715,0 1.361,-0.815 1.361,-1.87 m 1.973,0 c 0,2.041 -1.635,3.708 -3.334,3.708 -1.838,0 -3.265,-1.599 -3.265,-3.708 0,-2.04 1.495,-3.679 3.265,-3.679 1.734,0 3.334,1.639 3.334,3.679 m -8.775,-3.537 0,1.904 -3.572,0 3.572,3.605 0,1.565 -6.396,0 0,-1.905 3.232,0 -3.438,-3.469 0,-1.7 6.602,0 z m -11.498,1.937 c -0.545,-0.304 -1.055,-0.374 -1.465,-0.374 -0.678,0 -1.258,0.374 -1.258,0.817 0,0.443 0.477,0.783 1.09,0.783 0.373,0 1.055,-0.103 1.633,-0.307 l 0,-0.919 z m 1.836,-1.937 0,4.32 c 0,1.972 -1.156,2.925 -3.096,2.925 -0.951,0 -1.666,-0.204 -2.72,-0.748 l 0.712,-1.531 c 0.682,0.374 1.329,0.543 2.008,0.543 0.715,0 1.225,-0.271 1.26,-0.952 -0.578,0.204 -1.225,0.273 -1.633,0.273 -1.668,0 -2.928,-1.09 -2.928,-2.551 0,-1.396 1.125,-2.387 2.69,-2.387 0.543,0 1.189,0.067 1.871,0.345 l 0,-0.237 1.836,0 z m -7.822,6.734 c -0.479,0.374 -0.92,0.511 -1.498,0.511 -0.51,0 -0.918,-0.137 -1.395,-0.511 l 0,0.34 -1.939,0 0,-7.074 1.939,0 0,3.911 c 0,0.986 0.272,1.496 1.123,1.496 0.373,0 0.85,-0.169 1.123,-0.612 l 0.647,1.939 z m -9.457,-3.843 c 0,-0.579 -0.411,-0.954 -1.123,-0.954 l -2.891,0 0,2.247 2.619,0 c 0.338,0 0.543,-0.035 0.748,-0.137 0.408,-0.204 0.647,-0.68 0.647,-1.156 m -0.307,4.15 c 0,-0.511 -0.441,-0.919 -1.055,-0.919 l -2.652,0 0,1.667 2.824,0 c 0.578,0 0.883,-0.272 0.883,-0.748 m 2.211,-4.15 c 0,0.919 -0.34,1.666 -1.09,2.278 0.547,0.511 0.783,1.123 0.783,1.872 0,0.952 -0.509,1.87 -1.326,2.312 -0.51,0.307 -0.816,0.375 -1.666,0.375 l -4.525,0 0,-9.728 4.525,0 0.442,0 c 0.476,0 0.986,0.134 1.429,0.373 0.885,0.51 1.428,1.462 1.428,2.518"
             style="fill:#ffffff;fill-opacity:1;fill-rule:evenodd;stroke:none"
             id="path3415" />
        </g>
        <g
           id="g3417"
           transform="translate(287.3522,281.6251)">
          <path
             inkscape:connector-curvature="0"
             d="M 0,0 C -0.478,0.373 -0.92,0.51 -1.498,0.51 -2.008,0.51 -2.416,0.373 -2.892,0 l 0,0.339 -1.94,0 0,-7.075 1.94,0 0,3.913 c 0,0.985 0.273,1.495 1.123,1.495 0.375,0 0.849,-0.17 1.123,-0.612 L 0,0 z m -9.831,-2.212 -2.313,0 c 0.205,0.647 0.68,0.987 1.189,0.987 0.545,0 0.852,-0.273 1.124,-0.987 m 2.007,-1.599 0,0.273 c 0,0.884 -0.137,1.564 -0.408,2.21 -0.51,1.123 -1.566,1.838 -2.723,1.838 -1.734,0 -3.265,-1.634 -3.265,-3.674 0,-2.075 1.566,-3.68 3.369,-3.68 0.951,0 1.699,0.38 2.414,1.231 l -1.326,1.156 c -0.305,-0.407 -0.682,-0.647 -1.088,-0.647 -0.613,0 -1.191,0.477 -1.396,1.293 l 4.423,0 z m -8.3,4.15 -2.039,0 -1.635,-4.524 -1.768,4.524 -2.008,0 2.655,-7.075 2.142,0 2.653,7.075 z m -10.239,0 -1.939,0 0,-7.075 1.939,0 0,7.075 z m -0.033,1.838 c 0,0.543 -0.41,0.952 -0.953,0.952 -0.51,0 -0.918,-0.409 -0.918,-0.952 0,-0.51 0.408,-0.952 0.918,-0.952 0.543,0 0.953,0.442 0.953,0.952 m -6.566,-2.212 c 0,-0.68 -0.51,-1.122 -1.225,-1.122 l -2.654,0 0,2.21 2.654,0 c 0.715,0 1.225,-0.475 1.225,-1.088 m 2.041,-6.701 -1.532,4.116 c 0.885,0.579 1.395,1.531 1.395,2.585 0,1.088 -0.578,2.075 -1.529,2.62 -0.545,0.306 -0.953,0.408 -1.77,0.408 l -4.389,0 0,-9.729 1.905,0 0,3.64 2.553,0 1.326,-3.64 2.041,0 z"
             style="fill:#ffffff;fill-opacity:1;fill-rule:evenodd;stroke:none"
             id="path3419" />
        </g>
      </g>
    </g>
  </g>
</svg>
