<?xml version="1.0" encoding="UTF-8" standalone="no"?>
<!-- Created with Inkscape (http://www.inkscape.org/) -->

<svg
   xmlns:dc="http://purl.org/dc/elements/1.1/"
   xmlns:cc="http://creativecommons.org/ns#"
   xmlns:rdf="http://www.w3.org/1999/02/22-rdf-syntax-ns#"
   xmlns:svg="http://www.w3.org/2000/svg"
   xmlns="http://www.w3.org/2000/svg"
   xmlns:sodipodi="http://sodipodi.sourceforge.net/DTD/sodipodi-0.dtd"
   xmlns:inkscape="http://www.inkscape.org/namespaces/inkscape"
   width="73.632812"
   height="73.632812"
   id="svg4426"
   version="1.1"
   inkscape:version="0.48.3.1 r9886"
   sodipodi:docname="New document 16">
  <defs
     id="defs4428" />
  <sodipodi:namedview
     id="base"
     pagecolor="#ffffff"
     bordercolor="#666666"
     borderopacity="1.0"
     inkscape:pageopacity="0.0"
     inkscape:pageshadow="2"
     inkscape:zoom="0.35"
     inkscape:cx="74.662765"
     inkscape:cy="333.96192"
     inkscape:document-units="px"
     inkscape:current-layer="layer1"
     showgrid="false"
     fit-margin-top="0"
     fit-margin-left="0"
     fit-margin-right="0"
     fit-margin-bottom="0"
     inkscape:window-width="451"
     inkscape:window-height="398"
     inkscape:window-x="175"
     inkscape:window-y="175"
     inkscape:window-maximized="0" />
  <metadata
     id="metadata4431">
    <rdf:RDF>
      <cc:Work
         rdf:about="">
        <dc:format>image/svg+xml</dc:format>
        <dc:type
           rdf:resource="http://purl.org/dc/dcmitype/StillImage" />
        <dc:title></dc:title>
      </cc:Work>
    </rdf:RDF>
  </metadata>
  <g
     inkscape:label="Layer 1"
     inkscape:groupmode="layer"
     id="layer1"
     transform="translate(-300.33724,-792.69129)">
    <g
       id="g3435"
       transform="matrix(1.25,0,0,-1.25,307.13411,793.00379)">
      <path
         d="m 0,0 48.012,0 c 2.857,0 5.197,-2.337 5.197,-5.195 l 0,-48.011 c 0,-2.858 -2.34,-5.196 -5.197,-5.196 l -48.012,0 c -2.857,0 -5.195,2.338 -5.195,5.196 l 0,48.011 C -5.195,-2.337 -2.857,0 0,0"
         style="fill:#ffffff;fill-opacity:1;fill-rule:nonzero;stroke:none"
         id="path3437"
         inkscape:connector-curvature="0" />
    </g>
    <g
       id="g3439"
       transform="matrix(1.25,0,0,-1.25,307.13411,793.00379)">
      <path
         d="m 0,0 48.012,0 c 2.857,0 5.197,-2.337 5.197,-5.195 l 0,-48.011 c 0,-2.858 -2.34,-5.196 -5.197,-5.196 l -48.012,0 c -2.857,0 -5.195,2.338 -5.195,5.196 l 0,48.011 C -5.195,-2.337 -2.857,0 0,0 z"
         style="fill:none;stroke:#231f20;stroke-width:0.5;stroke-linecap:butt;stroke-linejoin:miter;stroke-miterlimit:4;stroke-opacity:1;stroke-dasharray:none"
         id="path3441"
         inkscape:connector-curvature="0" />
    </g>
    <g
       id="g3443"
       transform="matrix(1.25,0,0,-1.25,307.13411,794.62504)">
      <path
         d="m 0,0 48.012,0 c 2.145,0 3.9,-1.754 3.9,-3.898 l 0,-48.011 c 0,-2.145 -1.755,-3.899 -3.9,-3.899 l -48.012,0 c -2.144,0 -3.898,1.754 -3.898,3.899 l 0,48.011 C -3.898,-1.754 -2.144,0 0,0"
         style="fill:#00674c;fill-opacity:1;fill-rule:evenodd;stroke:none"
         id="path3445"
         inkscape:connector-curvature="0" />
    </g>
    <g
       id="g3447"
       transform="matrix(1.25,0,0,-1.25,327.37411,817.03879)">
      <path
         d="m 0,0 0,-25.424 c 4.259,0.038 8.521,0.074 12.779,0.111 -2.756,2.129 -5.506,4.259 -8.262,6.387 3.453,4.516 6.901,9.031 10.354,13.548 0.679,-0.971 1.543,-1.576 2.587,-1.818 0.936,1.176 1.874,2.351 2.809,3.525 1.69,-3.983 3.77,-7.662 6.557,-10.794 -2.793,-3.525 -5.584,-7.049 -8.373,-10.572 0.558,-1.842 0.447,-3.438 -0.328,-4.791 -1.333,-1.648 -3.024,-2.214 -4.959,-2.039 -0.442,-0.845 -0.881,-1.689 -1.323,-2.534 -7.656,-0.017 -15.31,-0.036 -22.964,-0.054 l 0,25.008 c 0.404,4.908 3.586,7.997 9.125,9.549 -3.309,0.64 -5.823,3.564 -5.823,7.056 0,3.958 3.231,7.187 7.192,7.187 3.955,0 7.185,-3.229 7.185,-7.187 C 6.556,3.413 3.666,0.321 0,0"
         style="fill:#ffffff;fill-opacity:1;fill-rule:evenodd;stroke:none"
         id="path3449"
         inkscape:connector-curvature="0" />
    </g>
  </g>
</svg>
