<?xml version="1.0" encoding="UTF-8" standalone="no"?>
<!-- Created with Inkscape (http://www.inkscape.org/) -->

<svg
   xmlns:dc="http://purl.org/dc/elements/1.1/"
   xmlns:cc="http://creativecommons.org/ns#"
   xmlns:rdf="http://www.w3.org/1999/02/22-rdf-syntax-ns#"
   xmlns:svg="http://www.w3.org/2000/svg"
   xmlns="http://www.w3.org/2000/svg"
   xmlns:sodipodi="http://sodipodi.sourceforge.net/DTD/sodipodi-0.dtd"
   xmlns:inkscape="http://www.inkscape.org/namespaces/inkscape"
   width="61.484375"
   height="91.875"
   id="svg3883"
   version="1.1"
   inkscape:version="0.48.3.1 r9886"
   sodipodi:docname="New document 4">
  <defs
     id="defs3885">
    <clipPath
       clipPathUnits="userSpaceOnUse"
       id="clipPath3185">
      <path
         inkscape:connector-curvature="0"
         d="m 63,43 512.622,0 0,313.129 L 63,356.129 63,43 z"
         id="path3187" />
    </clipPath>
  </defs>
  <sodipodi:namedview
     id="base"
     pagecolor="#ffffff"
     bordercolor="#666666"
     borderopacity="1.0"
     inkscape:pageopacity="0.0"
     inkscape:pageshadow="2"
     inkscape:zoom="0.35"
     inkscape:cx="-54.253125"
     inkscape:cy="31.648662"
     inkscape:document-units="px"
     inkscape:current-layer="layer1"
     showgrid="false"
     fit-margin-top="0"
     fit-margin-left="0"
     fit-margin-right="0"
     fit-margin-bottom="0"
     inkscape:window-width="451"
     inkscape:window-height="398"
     inkscape:window-x="50"
     inkscape:window-y="50"
     inkscape:window-maximized="0" />
  <metadata
     id="metadata3888">
    <rdf:RDF>
      <cc:Work
         rdf:about="">
        <dc:format>image/svg+xml</dc:format>
        <dc:type
           rdf:resource="http://purl.org/dc/dcmitype/StillImage" />
        <dc:title></dc:title>
      </cc:Work>
    </rdf:RDF>
  </metadata>
  <g
     inkscape:label="Layer 1"
     inkscape:groupmode="layer"
     id="layer1"
     transform="translate(-429.25312,-472.13585)">
    <g
       transform="matrix(1.25,0,0,-1.25,339.1985,896.56472)"
       id="g3181">
      <g
         id="g3183"
         clip-path="url(#clipPath3185)">
        <g
           id="g3189"
           transform="translate(78.7937,339.2931)">
          <path
             inkscape:connector-curvature="0"
             d="m 0,0 35.693,0 c 3.569,0 6.49,-2.921 6.49,-6.488 l 0,-60.028 c 0,-3.57 -2.921,-6.489 -6.49,-6.489 l -35.693,0 c -3.568,0 -6.488,2.919 -6.488,6.489 l 0,60.028 C -6.488,-2.921 -3.568,0 0,0"
             style="fill:#ffffff;fill-opacity:1;fill-rule:nonzero;stroke:none"
             id="path3191" />
        </g>
        <g
           id="g3193"
           transform="translate(78.7937,339.2931)">
          <path
             inkscape:connector-curvature="0"
             d="m 0,0 35.693,0 c 3.569,0 6.49,-2.921 6.49,-6.488 l 0,-60.028 c 0,-3.57 -2.921,-6.489 -6.49,-6.489 l -35.693,0 c -3.568,0 -6.488,2.919 -6.488,6.489 l 0,60.028 C -6.488,-2.921 -3.568,0 0,0 z"
             style="fill:none;stroke:#231f20;stroke-width:0.5;stroke-linecap:butt;stroke-linejoin:miter;stroke-miterlimit:4;stroke-opacity:1;stroke-dasharray:none"
             id="path3195" />
        </g>
        <g
           id="g3197"
           transform="translate(79.1706,337.671)">
          <path
             inkscape:connector-curvature="0"
             d="m 0,0 34.94,0 c 2.882,0 5.241,-2.359 5.241,-5.243 l 0,-59.275 c 0,-2.883 -2.359,-5.243 -5.241,-5.243 l -34.94,0 c -2.884,0 -5.242,2.36 -5.242,5.243 l 0,59.275 C -5.242,-2.359 -2.884,0 0,0"
             style="fill:#00674c;fill-opacity:1;fill-rule:evenodd;stroke:none"
             id="path3199" />
        </g>
        <g
           id="g3201"
           transform="translate(114.6785,325.2345)">
          <path
             inkscape:connector-curvature="0"
             d="m 0,0 c 0,1.167 -0.683,2.049 -2.247,2.957 -0.598,0.344 -0.77,0.57 -0.77,0.968 0,0.54 0.429,0.938 0.967,0.938 0.512,0 0.911,-0.369 0.941,-0.938 l 1.109,0 c -0.028,1.223 -0.909,2.105 -2.05,2.105 -1.167,0 -2.075,-0.939 -2.075,-2.105 0,-0.712 0.342,-1.337 0.995,-1.791 1.651,-1.11 1.196,-0.798 1.365,-0.967 0.486,-0.37 0.656,-0.713 0.656,-1.167 0,-0.654 -0.512,-1.225 -1.138,-1.225 -0.796,0 -1.139,0.712 -1.139,1.395 l -1.137,0 c 0,-1.337 0.852,-2.536 2.276,-2.536 C -0.996,-2.366 0,-1.309 0,0 m -5.234,-2.218 0,1.08 -2.958,0 0,7.027 -1.166,0 0,-8.107 4.124,0 z m -7.253,3.354 -1.167,0 0.567,2.334 0.6,-2.334 z m 2.018,-3.354 -2.018,8.107 -1.139,0 -2.02,-8.107 1.164,0 0.544,2.218 1.733,0 0.57,-2.218 1.166,0 z m -6.286,0 0,8.107 -1.167,0 0,-4.865 -2.218,4.865 -1.167,0 0,-8.107 1.167,0 0,5.431 2.503,-5.431 0.882,0 z m -6.145,2.245 0,1.678 -2.076,0 0,-1.138 0.91,0 0,-0.54 c 0,-0.851 -0.286,-1.252 -0.882,-1.252 -0.624,0 -1.025,0.427 -1.195,1.225 -0.115,0.625 -0.17,1.336 -0.17,2.018 0,0.968 0.142,1.879 0.37,2.276 0.197,0.399 0.511,0.597 0.91,0.597 0.57,0 0.939,-0.369 0.967,-0.91 l 1.166,0 c -0.057,1.195 -0.939,2.049 -2.104,2.049 -0.939,0 -1.764,-0.627 -2.049,-1.478 -0.283,-0.77 -0.369,-1.595 -0.369,-2.733 0,-1.052 0.171,-2.189 0.425,-2.786 0.4,-0.911 1.111,-1.399 2.078,-1.399 0.825,0 1.48,0.432 1.793,1.141 0.169,0.342 0.226,0.683 0.226,1.252 m -6.143,5.862 -1.139,0 0,-8.106 1.139,0 0,8.106 z M -31.547,0 c 0,1.167 -0.684,2.049 -2.247,2.957 -0.598,0.344 -0.769,0.57 -0.769,0.968 0,0.54 0.426,0.938 0.969,0.938 0.512,0 0.908,-0.369 0.938,-0.938 l 1.109,0 c -0.029,1.223 -0.911,2.105 -2.047,2.105 -1.167,0 -2.078,-0.939 -2.078,-2.105 0,-0.712 0.341,-1.337 0.996,-1.791 1.651,-1.11 1.194,-0.798 1.365,-0.967 0.484,-0.37 0.655,-0.713 0.655,-1.167 0,-0.654 -0.513,-1.225 -1.138,-1.225 -0.797,0 -1.138,0.712 -1.138,1.395 l -1.138,0 c 0,-1.337 0.855,-2.536 2.276,-2.536 1.251,0 2.247,1.057 2.247,2.366"
             style="fill:#ffffff;fill-opacity:1;fill-rule:evenodd;stroke:none"
             id="path3203" />
        </g>
        <g
           id="g3205"
           transform="translate(113.5115,314.3604)">
          <path
             inkscape:connector-curvature="0"
             d="m 0,0 c 0,-0.654 -0.371,-1.024 -1.052,-1.024 l -1.194,0 0,2.047 1.194,0 C -0.429,1.023 0,0.625 0,0 m 1.138,-5.946 -1.166,3.982 C 0.738,-1.68 1.138,-0.969 1.138,0 c 0,1.308 -0.854,2.16 -2.132,2.16 l -2.419,0 0,-8.106 1.167,0 0,3.812 1.108,0 1.082,-3.812 1.194,0 z m -7.281,4.067 c 0,-0.938 -0.058,-1.422 -0.258,-2.076 -0.199,-0.682 -0.513,-0.996 -0.994,-0.996 -0.512,0 -0.826,0.314 -1.024,0.996 -0.171,0.654 -0.258,1.167 -0.258,2.049 0,0.909 0.058,1.449 0.258,2.075 0.198,0.682 0.512,0.996 1.024,0.996 0.481,0 0.795,-0.314 0.994,-1.023 0.172,-0.599 0.258,-1.111 0.258,-2.021 m 1.109,0 c 0,1.225 -0.115,1.991 -0.456,2.787 -0.399,0.996 -0.966,1.395 -1.905,1.395 -0.939,0 -1.509,-0.399 -1.935,-1.365 -0.341,-0.769 -0.456,-1.592 -0.456,-2.817 0,-1.251 0.115,-2.017 0.456,-2.815 0.398,-0.967 0.967,-1.4 1.935,-1.4 0.91,0 1.506,0.433 1.905,1.4 0.341,0.768 0.456,1.564 0.456,2.815 m -5.719,2.902 0,1.137 -4.125,0 0,-8.106 1.167,0 0,3.812 1.622,0 0,1.11 -1.622,0 0,2.047 2.958,0 z m -9.273,0.057 0,1.08 -4.124,0 0,-1.08 1.478,0 0,-7.026 1.167,0 0,7.026 1.479,0 z m -4.865,-7.026 0,1.137 -2.958,0 0,2.675 1.68,0 0,1.11 -1.68,0 0,2.047 2.646,0 0,1.137 -3.812,0 0,-8.106 4.124,0 z m -5.489,2.217 c 0,1.168 -0.684,2.049 -2.247,2.958 -0.598,0.343 -0.768,0.571 -0.768,0.969 0,0.541 0.425,0.939 0.968,0.939 0.512,0 0.908,-0.37 0.938,-0.939 l 1.109,0 c -0.029,1.223 -0.911,2.105 -2.047,2.105 -1.167,0 -2.078,-0.94 -2.078,-2.105 0,-0.711 0.341,-1.338 0.996,-1.793 1.651,-1.109 1.194,-0.797 1.365,-0.966 0.484,-0.37 0.655,-0.712 0.655,-1.168 0,-0.653 -0.513,-1.222 -1.138,-1.222 -0.797,0 -1.138,0.712 -1.138,1.394 l -1.138,0 c 0,-1.338 0.855,-2.537 2.276,-2.537 1.251,0 2.247,1.057 2.247,2.365"
             style="fill:#ffffff;fill-opacity:1;fill-rule:evenodd;stroke:none"
             id="path3207" />
        </g>
        <g
           id="g3209"
           transform="translate(106.905,274.3458)">
          <path
             inkscape:connector-curvature="0"
             d="m 0,0 0,8.106 -1.279,0 0,-3.271 -2.959,0 0,3.271 -1.282,0 0,-8.106 1.282,0 0,3.528 2.959,0 L -1.279,0 0,0 z M -8.07,5.83 C -8.07,5.488 -8.271,5.118 -8.556,4.977 -8.783,4.863 -8.926,4.835 -9.321,4.835 l -1.68,0 0,1.991 1.68,0 c 0.395,0 0.538,-0.029 0.765,-0.142 0.285,-0.171 0.486,-0.51 0.486,-0.854 m 1.308,0 c 0,0.825 -0.543,1.68 -1.251,2.021 -0.4,0.199 -0.825,0.255 -1.48,0.255 l -2.787,0 0,-8.106 1.279,0 0,3.528 1.508,0 c 0.626,0 1.11,0.112 1.48,0.282 0.708,0.315 1.251,1.167 1.251,2.02 M -14.265,0 l 0,8.106 -1.278,0 -1.878,-4.551 -1.878,4.551 -1.279,0 0,-8.106 1.279,0 0,4.692 1.878,-4.692 1.878,4.692 0,-4.692 1.278,0 z"
             style="fill:#ffffff;fill-opacity:1;fill-rule:evenodd;stroke:none"
             id="path3211" />
        </g>
        <g
           id="g3213"
           transform="translate(110.8699,292.9034)">
          <path
             inkscape:connector-curvature="0"
             d="M 0,0 C 0,3.356 -2.672,5.859 -6.369,5.859 -7.394,5.859 -8.19,5.746 -9.5,5.461 l 0.172,2.334 8.021,0 0.056,2.844 -10.811,0 -0.509,-7.623 2.901,-0.74 c 1.194,0.454 2.049,0.626 3.127,0.626 1.196,0 2.05,-0.229 2.619,-0.683 C -3.298,1.706 -2.9,0.853 -2.9,0 c 0,-1.821 -1.479,-2.902 -3.925,-2.902 -1.651,0 -3.299,0.458 -4.724,1.308 l -1.534,-2.445 C -11.037,-5.291 -9.046,-5.87 -6.825,-5.87 -2.843,-5.87 0,-3.411 0,0 m -15.359,-5.575 0,2.903 -9.558,0 c 0.569,1.078 1.023,1.706 1.765,2.332 0.965,0.853 1.589,1.138 3.754,1.762 1.136,0.343 1.875,0.741 2.388,1.139 1.082,0.91 1.651,2.162 1.651,3.528 0,2.958 -2.449,4.836 -6.258,4.836 -2.617,0 -4.951,-0.854 -6.827,-2.504 l 1.991,-2.22 c 1.363,1.252 2.899,1.764 5.007,1.764 2.048,0 3.184,-0.683 3.184,-1.876 0,-0.969 -0.625,-1.536 -2.445,-2.049 -2.958,-0.797 -5.007,-2.275 -6.43,-4.666 -0.91,-1.592 -1.307,-3.015 -1.307,-4.949 l 13.085,0 z"
             style="fill:#ffffff;fill-opacity:1;fill-rule:evenodd;stroke:none"
             id="path3215" />
        </g>
      </g>
    </g>
  </g>
</svg>
