<?xml version="1.0" encoding="UTF-8" standalone="no"?>
<!-- Created with Inkscape (http://www.inkscape.org/) -->

<svg
   xmlns:dc="http://purl.org/dc/elements/1.1/"
   xmlns:cc="http://creativecommons.org/ns#"
   xmlns:rdf="http://www.w3.org/1999/02/22-rdf-syntax-ns#"
   xmlns:svg="http://www.w3.org/2000/svg"
   xmlns="http://www.w3.org/2000/svg"
   xmlns:sodipodi="http://sodipodi.sourceforge.net/DTD/sodipodi-0.dtd"
   xmlns:inkscape="http://www.inkscape.org/namespaces/inkscape"
   width="64.523628"
   height="46.25"
   id="svg4770"
   version="1.1"
   inkscape:version="0.48.3.1 r9886"
   sodipodi:docname="New document 24">
  <defs
     id="defs4772">
    <clipPath
       clipPathUnits="userSpaceOnUse"
       id="clipPath3675">
      <path
         inkscape:connector-curvature="0"
         d="m 63,43 512.622,0 0,313.129 L 63,356.129 63,43 z"
         id="path3677" />
    </clipPath>
    <clipPath
       clipPathUnits="userSpaceOnUse"
       id="clipPath3663">
      <path
         inkscape:connector-curvature="0"
         d="m 67.189,43 504.243,0 0,313.129 -504.243,0 0,-313.129 z"
         id="path3665" />
    </clipPath>
    <clipPath
       clipPathUnits="userSpaceOnUse"
       id="clipPath3651">
      <path
         inkscape:connector-curvature="0"
         d="m 63,43 512.622,0 0,313.129 L 63,356.129 63,43 z"
         id="path3653" />
    </clipPath>
  </defs>
  <sodipodi:namedview
     id="base"
     pagecolor="#ffffff"
     bordercolor="#666666"
     borderopacity="1.0"
     inkscape:pageopacity="0.0"
     inkscape:pageshadow="2"
     inkscape:zoom="0.35"
     inkscape:cx="32.25425"
     inkscape:cy="23.122497"
     inkscape:document-units="px"
     inkscape:current-layer="layer1"
     showgrid="false"
     fit-margin-top="0"
     fit-margin-left="0"
     fit-margin-right="0"
     fit-margin-bottom="0"
     inkscape:window-width="451"
     inkscape:window-height="398"
     inkscape:window-x="175"
     inkscape:window-y="175"
     inkscape:window-maximized="0" />
  <metadata
     id="metadata4775">
    <rdf:RDF>
      <cc:Work
         rdf:about="">
        <dc:format>image/svg+xml</dc:format>
        <dc:type
           rdf:resource="http://purl.org/dc/dcmitype/StillImage" />
        <dc:title></dc:title>
      </cc:Work>
    </rdf:RDF>
  </metadata>
  <g
     inkscape:label="Layer 1"
     inkscape:groupmode="layer"
     id="layer1"
     transform="translate(-342.74575,-509.23468)">
    <g
       transform="matrix(1.25,0,0,-1.25,258.7595,627.68093)"
       id="g3647">
      <g
         id="g3649"
         clip-path="url(#clipPath3651)">
        <g
           id="g3655"
           transform="translate(72.3079,94.507)">
          <path
             inkscape:connector-curvature="0"
             d="m 0,0 41.371,0 c 2.68,0 4.866,-2.186 4.866,-4.867 l 0,-26.769 c 0,-2.681 -2.186,-4.868 -4.866,-4.868 l -41.371,0 c -2.682,0 -4.868,2.187 -4.868,4.868 l 0,26.769 C -4.868,-2.186 -2.682,0 0,0"
             style="fill:#ffffff;fill-opacity:1;fill-rule:nonzero;stroke:none"
             id="path3657" />
        </g>
      </g>
    </g>
    <g
       transform="matrix(1.25,0,0,-1.25,258.7595,627.68093)"
       id="g3659">
      <g
         id="g3661"
         clip-path="url(#clipPath3663)">
        <g
           id="g3667"
           transform="translate(72.3079,94.507)">
          <path
             inkscape:connector-curvature="0"
             d="m 0,0 41.371,0 c 2.68,0 4.866,-2.186 4.866,-4.867 l 0,-26.769 c 0,-2.681 -2.186,-4.868 -4.866,-4.868 l -41.371,0 c -2.682,0 -4.868,2.187 -4.868,4.868 l 0,26.769 C -4.868,-2.186 -2.682,0 0,0 z"
             style="fill:none;stroke:#231f20;stroke-width:0.5;stroke-linecap:butt;stroke-linejoin:miter;stroke-miterlimit:10;stroke-opacity:1;stroke-dasharray:none"
             id="path3669" />
        </g>
      </g>
    </g>
    <g
       transform="matrix(1.25,0,0,-1.25,258.7595,627.68093)"
       id="g3671">
      <g
         id="g3673"
         clip-path="url(#clipPath3675)">
        <g
           id="g3679"
           transform="translate(113.6672,93.534)">
          <path
             inkscape:connector-curvature="0"
             d="m 0,0 c 0.204,-0.006 0.399,-0.02 0.603,-0.046 0.192,-0.035 0.374,-0.076 0.562,-0.13 0.183,-0.062 0.354,-0.129 0.53,-0.21 0.169,-0.086 0.327,-0.178 0.49,-0.281 0.154,-0.11 0.297,-0.222 0.441,-0.347 C 2.858,-1.236 3.052,-1.46 3.238,-1.722 3.343,-1.882 3.433,-2.041 3.52,-2.211 3.6,-2.385 3.668,-2.556 3.729,-2.739 3.782,-2.928 3.825,-3.109 3.86,-3.303 3.885,-3.507 3.898,-3.7 3.904,-3.906 L 3.898,-30.864 C 3.885,-31.063 3.86,-31.251 3.825,-31.447 3.781,-31.637 3.729,-31.815 3.668,-31.999 3.598,-32.177 3.523,-32.344 3.435,-32.515 3.339,-32.681 3.24,-32.834 3.13,-32.988 3.012,-33.138 2.892,-33.276 2.762,-33.415 2.527,-33.636 2.297,-33.818 2.025,-33.992 1.86,-34.089 1.696,-34.172 1.522,-34.251 1.343,-34.323 1.168,-34.381 0.982,-34.434 0.79,-34.48 0.605,-34.511 0.408,-34.536 L 0,-34.557 l -41.561,0.005 c -0.199,0.016 -0.386,0.039 -0.582,0.074 -0.19,0.044 -0.368,0.095 -0.553,0.156 -0.178,0.071 -0.345,0.147 -0.516,0.235 -0.165,0.095 -0.318,0.193 -0.474,0.305 -0.149,0.117 -0.286,0.237 -0.425,0.367 -0.222,0.235 -0.404,0.465 -0.577,0.736 -0.097,0.168 -0.18,0.329 -0.259,0.503 -0.071,0.18 -0.131,0.356 -0.184,0.541 -0.045,0.194 -0.077,0.378 -0.101,0.574 l -0.022,0.41 0.006,26.957 c 0.016,0.199 0.038,0.386 0.073,0.583 0.044,0.188 0.096,0.368 0.159,0.551 0.071,0.18 0.146,0.347 0.233,0.518 0.095,0.165 0.193,0.318 0.304,0.473 0.118,0.15 0.238,0.287 0.368,0.424 0.234,0.224 0.465,0.406 0.737,0.58 0.166,0.095 0.328,0.179 0.502,0.259 0.182,0.07 0.355,0.13 0.542,0.183 0.192,0.044 0.377,0.077 0.572,0.102 L -41.348,0 0,0 z"
             style="fill:#00674c;fill-opacity:1;fill-rule:evenodd;stroke:none"
             id="path3681" />
        </g>
        <g
           id="g3683"
           transform="translate(99.8069,78.195)">
          <path
             inkscape:connector-curvature="0"
             d="m 0,0 c 0.535,0.007 0.974,-0.431 0.974,-0.966 l 0,-13.434 6.327,0 0,19.275 c 0,0.803 -0.656,1.459 -1.46,1.459 l 0,-0.007 -17.459,-0.009 1.064,3.544 c 0.113,0.438 0.155,0.806 -0.086,1.162 -0.361,0.532 -1.092,0.671 -1.623,0.31 l -12.073,-8.181 12.073,-8.166 c 0.531,-0.361 1.262,-0.222 1.623,0.309 0.253,0.372 0.198,0.729 0.062,1.21 l -1.04,3.487 L 0,0 z"
             style="fill:#ffffff;fill-opacity:1;fill-rule:evenodd;stroke:none"
             id="path3685" />
        </g>
      </g>
    </g>
  </g>
</svg>
