<?xml version="1.0" encoding="UTF-8" standalone="no"?>
<!-- Created with Inkscape (http://www.inkscape.org/) -->

<svg
   xmlns:dc="http://purl.org/dc/elements/1.1/"
   xmlns:cc="http://creativecommons.org/ns#"
   xmlns:rdf="http://www.w3.org/1999/02/22-rdf-syntax-ns#"
   xmlns:svg="http://www.w3.org/2000/svg"
   xmlns="http://www.w3.org/2000/svg"
   xmlns:sodipodi="http://sodipodi.sourceforge.net/DTD/sodipodi-0.dtd"
   xmlns:inkscape="http://www.inkscape.org/namespaces/inkscape"
   width="64.53125"
   height="46.25"
   id="svg4926"
   version="1.1"
   inkscape:version="0.48.3.1 r9886"
   sodipodi:docname="New document 29">
  <defs
     id="defs4928">
    <clipPath
       clipPathUnits="userSpaceOnUse"
       id="clipPath3723">
      <path
         inkscape:connector-curvature="0"
         d="m 63,43 512.622,0 0,313.129 L 63,356.129 63,43 z"
         id="path3725" />
    </clipPath>
  </defs>
  <sodipodi:namedview
     id="base"
     pagecolor="#ffffff"
     bordercolor="#666666"
     borderopacity="1.0"
     inkscape:pageopacity="0.0"
     inkscape:pageshadow="2"
     inkscape:zoom="0.35"
     inkscape:cx="32.2625"
     inkscape:cy="23.123127"
     inkscape:document-units="px"
     inkscape:current-layer="layer1"
     showgrid="false"
     fit-margin-top="0"
     fit-margin-left="0"
     fit-margin-right="0"
     fit-margin-bottom="0"
     inkscape:window-width="451"
     inkscape:window-height="398"
     inkscape:window-x="75"
     inkscape:window-y="75"
     inkscape:window-maximized="0" />
  <metadata
     id="metadata4931">
    <rdf:RDF>
      <cc:Work
         rdf:about="">
        <dc:format>image/svg+xml</dc:format>
        <dc:type
           rdf:resource="http://purl.org/dc/dcmitype/StillImage" />
        <dc:title></dc:title>
      </cc:Work>
    </rdf:RDF>
  </metadata>
  <g
     inkscape:label="Layer 1"
     inkscape:groupmode="layer"
     id="layer1"
     transform="translate(-342.7375,-509.23531)">
    <g
       transform="matrix(1.25,0,0,-1.25,59.7185,627.68156)"
       id="g3719">
      <g
         id="g3721"
         clip-path="url(#clipPath3723)">
        <g
           id="g3727"
           transform="translate(231.5402,94.507)">
          <path
             inkscape:connector-curvature="0"
             d="m 0,0 41.371,0 c 2.68,0 4.866,-2.186 4.866,-4.866 l 0,-26.77 c 0,-2.681 -2.186,-4.867 -4.866,-4.867 l -41.371,0 c -2.681,0 -4.867,2.186 -4.867,4.867 l 0,26.77 C -4.867,-2.186 -2.681,0 0,0"
             style="fill:#ffffff;fill-opacity:1;fill-rule:nonzero;stroke:none"
             id="path3729" />
        </g>
        <g
           id="g3731"
           transform="translate(231.5402,94.507)">
          <path
             inkscape:connector-curvature="0"
             d="m 0,0 41.371,0 c 2.68,0 4.866,-2.186 4.866,-4.866 l 0,-26.77 c 0,-2.681 -2.186,-4.867 -4.866,-4.867 l -41.371,0 c -2.681,0 -4.867,2.186 -4.867,4.867 l 0,26.77 C -4.867,-2.186 -2.681,0 0,0 z"
             style="fill:none;stroke:#231f20;stroke-width:0.5;stroke-linecap:butt;stroke-linejoin:miter;stroke-miterlimit:10;stroke-opacity:1;stroke-dasharray:none"
             id="path3733" />
        </g>
        <g
           id="g3735"
           transform="translate(272.8982,93.534)">
          <path
             inkscape:connector-curvature="0"
             d="M 0,0 C 0.206,-0.005 0.401,-0.02 0.604,-0.044 0.797,-0.079 0.979,-0.121 1.167,-0.175 1.35,-0.237 1.52,-0.305 1.697,-0.384 1.866,-0.472 2.024,-0.562 2.185,-0.665 2.34,-0.777 2.484,-0.889 2.628,-1.014 2.86,-1.236 3.054,-1.458 3.241,-1.72 3.344,-1.882 3.434,-2.04 3.522,-2.209 3.602,-2.386 3.669,-2.556 3.731,-2.739 3.785,-2.926 3.827,-3.11 3.861,-3.301 3.888,-3.505 3.902,-3.7 3.906,-3.905 L 3.901,-30.863 c -0.015,-0.198 -0.039,-0.386 -0.074,-0.584 -0.044,-0.188 -0.095,-0.368 -0.157,-0.55 -0.07,-0.178 -0.146,-0.346 -0.234,-0.516 -0.095,-0.166 -0.194,-0.319 -0.305,-0.475 -0.117,-0.15 -0.236,-0.288 -0.367,-0.425 -0.235,-0.224 -0.465,-0.405 -0.736,-0.579 -0.167,-0.095 -0.329,-0.18 -0.504,-0.259 -0.179,-0.071 -0.355,-0.13 -0.54,-0.183 -0.193,-0.044 -0.378,-0.078 -0.573,-0.102 L 0,-34.557 l -41.559,0.005 c -0.198,0.016 -0.387,0.04 -0.582,0.076 -0.19,0.044 -0.368,0.093 -0.552,0.156 -0.179,0.071 -0.346,0.147 -0.516,0.235 -0.166,0.095 -0.319,0.193 -0.474,0.305 -0.15,0.116 -0.288,0.235 -0.425,0.367 -0.223,0.232 -0.405,0.465 -0.58,0.736 -0.095,0.165 -0.178,0.329 -0.257,0.503 -0.072,0.18 -0.131,0.354 -0.183,0.541 -0.045,0.191 -0.078,0.377 -0.103,0.572 l -0.021,0.41 0.005,26.957 c 0.016,0.2 0.039,0.388 0.075,0.583 0.044,0.19 0.094,0.368 0.157,0.553 0.07,0.178 0.146,0.345 0.233,0.516 0.096,0.165 0.194,0.318 0.305,0.475 0.118,0.148 0.237,0.287 0.369,0.424 0.233,0.222 0.464,0.405 0.735,0.579 0.166,0.095 0.329,0.178 0.503,0.257 0.181,0.072 0.356,0.131 0.541,0.184 0.192,0.046 0.378,0.079 0.574,0.103 L -41.345,0 0,0 z"
             style="fill:#00674c;fill-opacity:1;fill-rule:evenodd;stroke:none"
             id="path3737" />
        </g>
        <g
           id="g3739"
           transform="translate(258.5012,84.384)">
          <path
             inkscape:connector-curvature="0"
             d="M 0,0 12.025,-8.132 0,-16.28 c -0.529,-0.36 -1.255,-0.222 -1.616,0.309 -0.24,0.353 -0.197,0.719 -0.086,1.156 l 1.061,3.53 -22.171,0 0,6.299 22.171,0 -1.037,3.473 c -0.134,0.48 -0.19,0.836 0.062,1.206 C -1.255,0.223 -0.529,0.362 0,0"
             style="fill:#ffffff;fill-opacity:1;fill-rule:evenodd;stroke:none"
             id="path3741" />
        </g>
      </g>
    </g>
  </g>
</svg>
