<?xml version="1.0" encoding="UTF-8" standalone="no"?>
<!-- Created with Inkscape (http://www.inkscape.org/) -->

<svg
   xmlns:dc="http://purl.org/dc/elements/1.1/"
   xmlns:cc="http://creativecommons.org/ns#"
   xmlns:rdf="http://www.w3.org/1999/02/22-rdf-syntax-ns#"
   xmlns:svg="http://www.w3.org/2000/svg"
   xmlns="http://www.w3.org/2000/svg"
   xmlns:sodipodi="http://sodipodi.sourceforge.net/DTD/sodipodi-0.dtd"
   xmlns:inkscape="http://www.inkscape.org/namespaces/inkscape"
   width="64.53125"
   height="46.25"
   id="svg5044"
   version="1.1"
   inkscape:version="0.48.3.1 r9886"
   sodipodi:docname="New document 33">
  <defs
     id="defs5046">
    <clipPath
       clipPathUnits="userSpaceOnUse"
       id="clipPath3779">
      <path
         inkscape:connector-curvature="0"
         d="m 63,43 512.622,0 0,313.129 L 63,356.129 63,43 z"
         id="path3781" />
    </clipPath>
  </defs>
  <sodipodi:namedview
     id="base"
     pagecolor="#ffffff"
     bordercolor="#666666"
     borderopacity="1.0"
     inkscape:pageopacity="0.0"
     inkscape:pageshadow="2"
     inkscape:zoom="0.35"
     inkscape:cx="32.26187"
     inkscape:cy="23.123127"
     inkscape:document-units="px"
     inkscape:current-layer="layer1"
     showgrid="false"
     fit-margin-top="0"
     fit-margin-left="0"
     fit-margin-right="0"
     fit-margin-bottom="0"
     inkscape:window-width="451"
     inkscape:window-height="398"
     inkscape:window-x="175"
     inkscape:window-y="175"
     inkscape:window-maximized="0" />
  <metadata
     id="metadata5049">
    <rdf:RDF>
      <cc:Work
         rdf:about="">
        <dc:format>image/svg+xml</dc:format>
        <dc:type
           rdf:resource="http://purl.org/dc/dcmitype/StillImage" />
        <dc:title></dc:title>
      </cc:Work>
    </rdf:RDF>
  </metadata>
  <g
     inkscape:label="Layer 1"
     inkscape:groupmode="layer"
     id="layer1"
     transform="translate(-342.73813,-509.23531)">
    <g
       transform="matrix(1.25,0,0,-1.25,-139.32212,627.68156)"
       id="g3775">
      <g
         id="g3777"
         clip-path="url(#clipPath3779)">
        <g
           id="g3783"
           transform="translate(390.7732,94.507)">
          <path
             inkscape:connector-curvature="0"
             d="m 0,0 41.371,0 c 2.682,0 4.867,-2.186 4.867,-4.868 l 0,-26.768 c 0,-2.681 -2.185,-4.867 -4.867,-4.867 l -41.371,0 c -2.682,0 -4.869,2.186 -4.869,4.867 l 0,26.768 C -4.869,-2.186 -2.682,0 0,0"
             style="fill:#ffffff;fill-opacity:1;fill-rule:nonzero;stroke:none"
             id="path3785" />
        </g>
        <g
           id="g3787"
           transform="translate(390.7732,94.507)">
          <path
             inkscape:connector-curvature="0"
             d="m 0,0 41.371,0 c 2.682,0 4.867,-2.186 4.867,-4.868 l 0,-26.768 c 0,-2.681 -2.185,-4.867 -4.867,-4.867 l -41.371,0 c -2.682,0 -4.869,2.186 -4.869,4.867 l 0,26.768 C -4.869,-2.186 -2.682,0 0,0 z"
             style="fill:none;stroke:#231f20;stroke-width:0.5;stroke-linecap:butt;stroke-linejoin:miter;stroke-miterlimit:10;stroke-opacity:1;stroke-dasharray:none"
             id="path3789" />
        </g>
        <g
           id="g3791"
           transform="translate(432.1322,93.534)">
          <path
             inkscape:connector-curvature="0"
             d="M 0,0 C 0.205,-0.005 0.399,-0.02 0.604,-0.044 0.797,-0.079 0.979,-0.121 1.166,-0.175 1.348,-0.238 1.52,-0.305 1.696,-0.384 1.866,-0.472 2.024,-0.562 2.184,-0.665 2.338,-0.777 2.483,-0.889 2.625,-1.014 2.86,-1.236 3.051,-1.458 3.239,-1.722 3.342,-1.882 3.434,-2.04 3.52,-2.209 3.602,-2.386 3.668,-2.556 3.729,-2.739 3.784,-2.928 3.825,-3.11 3.86,-3.301 3.887,-3.505 3.901,-3.7 3.907,-3.906 L 3.901,-30.863 c -0.016,-0.198 -0.039,-0.386 -0.074,-0.584 -0.043,-0.188 -0.096,-0.366 -0.159,-0.55 -0.07,-0.18 -0.146,-0.346 -0.234,-0.516 -0.096,-0.166 -0.193,-0.321 -0.303,-0.475 -0.117,-0.15 -0.238,-0.288 -0.369,-0.425 -0.232,-0.224 -0.465,-0.405 -0.736,-0.579 -0.166,-0.095 -0.328,-0.18 -0.504,-0.259 -0.18,-0.071 -0.354,-0.13 -0.539,-0.183 -0.194,-0.044 -0.377,-0.078 -0.572,-0.102 L 0,-34.557 l -41.56,0.005 c -0.197,0.016 -0.387,0.04 -0.582,0.074 -0.19,0.044 -0.367,0.095 -0.553,0.158 -0.178,0.071 -0.344,0.147 -0.516,0.235 -0.166,0.095 -0.318,0.193 -0.474,0.305 -0.151,0.116 -0.287,0.235 -0.424,0.367 -0.223,0.232 -0.406,0.465 -0.58,0.736 -0.096,0.165 -0.18,0.329 -0.258,0.503 -0.07,0.18 -0.131,0.354 -0.183,0.541 -0.045,0.191 -0.079,0.377 -0.102,0.572 l -0.022,0.41 0.004,26.957 c 0.018,0.2 0.041,0.388 0.077,0.583 0.044,0.19 0.093,0.368 0.156,0.553 0.07,0.178 0.146,0.345 0.234,0.516 0.096,0.165 0.194,0.318 0.305,0.473 0.119,0.15 0.236,0.289 0.369,0.426 0.232,0.222 0.465,0.405 0.734,0.579 0.166,0.095 0.33,0.178 0.504,0.257 0.18,0.072 0.354,0.131 0.541,0.184 0.192,0.046 0.377,0.077 0.573,0.103 L -41.347,0 0,0 z"
             style="fill:#00674c;fill-opacity:1;fill-rule:evenodd;stroke:none"
             id="path3793" />
        </g>
        <g
           id="g3795"
           transform="translate(403.3492,76.22)">
          <path
             inkscape:connector-curvature="0"
             d="m 0,0 8.137,12.024 8.142,-12.028 c 0.362,-0.529 0.223,-1.256 -0.306,-1.616 -0.356,-0.241 -0.721,-0.197 -1.158,-0.086 l -3.53,1.062 -0.006,-11.276 -6.3,0.002 0.006,11.276 -3.473,-1.035 C 1.033,-1.811 0.678,-1.868 0.307,-1.616 -0.222,-1.256 -0.361,-0.528 0,0"
             style="fill:#ffffff;fill-opacity:1;fill-rule:evenodd;stroke:none"
             id="path3797" />
        </g>
      </g>
    </g>
  </g>
</svg>
