<?xml version="1.0" encoding="UTF-8" standalone="no"?>
<!-- Created with Inkscape (http://www.inkscape.org/) -->

<svg
   xmlns:dc="http://purl.org/dc/elements/1.1/"
   xmlns:cc="http://creativecommons.org/ns#"
   xmlns:rdf="http://www.w3.org/1999/02/22-rdf-syntax-ns#"
   xmlns:svg="http://www.w3.org/2000/svg"
   xmlns="http://www.w3.org/2000/svg"
   xmlns:sodipodi="http://sodipodi.sourceforge.net/DTD/sodipodi-0.dtd"
   xmlns:inkscape="http://www.inkscape.org/namespaces/inkscape"
   width="113.00694"
   height="112.96875"
   id="svg4574"
   version="1.1"
   inkscape:version="0.48.2 r9819"
   sodipodi:docname="New document 6">
  <defs
     id="defs4576">
    <clipPath
       clipPathUnits="userSpaceOnUse"
       id="clipPath4409">
      <path
         inkscape:connector-curvature="0"
         d="M 62.625,45 576,45 l 0,693 -513.375,0 0,-693 z"
         id="path4411" />
    </clipPath>
    <clipPath
       clipPathUnits="userSpaceOnUse"
       id="clipPath4393">
      <path
         inkscape:connector-curvature="0"
         d="m 66.881,78.15 504.778,0 0,659.85 -504.778,0 0,-659.85 z"
         id="path4395" />
    </clipPath>
  </defs>
  <sodipodi:namedview
     id="base"
     pagecolor="#ffffff"
     bordercolor="#666666"
     borderopacity="1.0"
     inkscape:pageopacity="0.0"
     inkscape:pageshadow="2"
     inkscape:zoom="0.35"
     inkscape:cx="137.20885"
     inkscape:cy="-29.23587"
     inkscape:document-units="px"
     inkscape:current-layer="layer1"
     showgrid="false"
     fit-margin-top="0"
     fit-margin-left="0"
     fit-margin-right="0"
     fit-margin-bottom="0"
     inkscape:window-width="469"
     inkscape:window-height="425"
     inkscape:window-x="150"
     inkscape:window-y="150"
     inkscape:window-maximized="0" />
  <metadata
     id="metadata4579">
    <rdf:RDF>
      <cc:Work
         rdf:about="">
        <dc:format>image/svg+xml</dc:format>
        <dc:type
           rdf:resource="http://purl.org/dc/dcmitype/StillImage" />
        <dc:title></dc:title>
      </cc:Work>
    </rdf:RDF>
  </metadata>
  <g
     inkscape:label="Layer 1"
     inkscape:groupmode="layer"
     id="layer1"
     transform="translate(-237.79115,-390.15756)">
    <g
       id="g4389"
       transform="matrix(1.25,0,0,-1.25,154.1899,1275.1135)">
      <g
         id="g4391"
         clip-path="url(#clipPath4393)">
        <g
           id="g4397"
           transform="translate(67.1303,681.371)">
          <path
             d="m 0,0 0,-37.243 26.346,-26.302 37.208,0 26.338,26.302 0,37.243 -26.338,26.348 -37.208,0 L 0,0 z"
             style="fill:#ffffff;fill-opacity:1;fill-rule:nonzero;stroke:none"
             id="path4399"
             inkscape:connector-curvature="0" />
        </g>
        <g
           id="g4401"
           transform="translate(67.1303,681.371)">
          <path
             d="m 0,0 0,-37.243 26.346,-26.302 37.208,0 26.338,26.302 0,37.243 -26.338,26.348 -37.208,0 L 0,0 z"
             style="fill:none;stroke:#231f20;stroke-width:0.5;stroke-linecap:butt;stroke-linejoin:miter;stroke-miterlimit:4;stroke-opacity:1;stroke-dasharray:none"
             id="path4403"
             inkscape:connector-curvature="0" />
        </g>
      </g>
    </g>
    <g
       id="g4405"
       transform="matrix(1.25,0,0,-1.25,154.1899,1275.1135)">
      <g
         id="g4407"
         clip-path="url(#clipPath4409)">
        <g
           id="g4413"
           transform="translate(69.3779,680.4628)">
          <path
             d="m 0,0 25.015,25.007 35.328,0 L 85.396,0 l 0,-35.384 -25.053,-25.005 -35.328,0 L 0,-35.384 0,0 z"
             style="fill:#bf2519;fill-opacity:1;fill-rule:evenodd;stroke:none"
             id="path4415"
             inkscape:connector-curvature="0" />
        </g>
        <g
           id="g4417"
           transform="translate(145.2198,669.3359)">
          <path
             d="m 0,0 c 0,-2.732 -1.366,-4.309 -3.889,-4.309 l -4.412,0 0,8.512 4.412,0 C -1.578,4.203 0,2.521 0,0 m 4.201,0 c 0,5.043 -3.15,8.405 -7.879,8.405 l -8.931,0 0,-29.947 4.308,0 0,13.135 4.623,0 c 5.043,0 7.879,2.943 7.879,8.407 m -25.64,-6.515 c 0,-3.467 -0.21,-5.255 -0.945,-7.67 -0.735,-2.524 -1.891,-3.68 -3.678,-3.68 -1.892,0 -3.047,1.156 -3.783,3.68 -0.63,2.415 -0.946,4.307 -0.946,7.565 0,3.362 0.21,5.358 0.946,7.671 0.736,2.521 1.891,3.677 3.783,3.677 1.787,0 2.943,-1.156 3.678,-3.784 0.63,-2.206 0.945,-4.096 0.945,-7.459 m 4.099,0 c 0,4.519 -0.421,7.356 -1.683,10.297 -1.47,3.68 -3.572,5.149 -7.039,5.149 -3.468,0 -5.569,-1.469 -7.145,-5.043 -1.26,-2.837 -1.682,-5.884 -1.682,-10.403 0,-4.624 0.422,-7.46 1.682,-10.403 1.471,-3.572 3.573,-5.166 7.145,-5.166 3.362,0 5.569,1.594 7.039,5.166 1.262,2.837 1.683,5.779 1.683,10.403 m -19.862,10.927 0,3.993 -15.236,0 0,-3.993 5.464,0 0,-25.954 4.307,0 0,25.954 5.465,0 z M -53.91,-13.345 c 0,4.309 -2.524,7.566 -8.302,10.927 -2.207,1.263 -2.837,2.103 -2.837,3.574 0,1.995 1.576,3.467 3.571,3.467 1.892,0 3.364,-1.366 3.468,-3.467 l 4.1,0 c -0.106,4.519 -3.364,7.775 -7.568,7.775 -4.307,0 -7.67,-3.467 -7.67,-7.775 0,-2.627 1.261,-4.939 3.68,-6.62 6.092,-4.099 4.411,-2.943 5.042,-3.572 1.786,-1.365 2.416,-2.627 2.416,-4.309 0,-2.418 -1.891,-4.52 -4.202,-4.52 -2.943,0 -4.203,2.629 -4.203,5.151 l -4.204,0 c 0,-4.939 3.152,-9.37 8.407,-9.37 4.623,0 8.302,3.903 8.302,8.739"
             style="fill:#ffffff;fill-opacity:1;fill-rule:evenodd;stroke:none"
             id="path4419"
             inkscape:connector-curvature="0" />
        </g>
      </g>
    </g>
  </g>
</svg>
