<?xml version="1.0" encoding="UTF-8" standalone="no"?>
<!-- Created with Inkscape (http://www.inkscape.org/) -->

<svg
   xmlns:dc="http://purl.org/dc/elements/1.1/"
   xmlns:cc="http://creativecommons.org/ns#"
   xmlns:rdf="http://www.w3.org/1999/02/22-rdf-syntax-ns#"
   xmlns:svg="http://www.w3.org/2000/svg"
   xmlns="http://www.w3.org/2000/svg"
   xmlns:sodipodi="http://sodipodi.sourceforge.net/DTD/sodipodi-0.dtd"
   xmlns:inkscape="http://www.inkscape.org/namespaces/inkscape"
   width="90.625"
   height="113.125"
   id="svg5935"
   version="1.1"
   inkscape:version="0.48.2 r9819"
   sodipodi:docname="New document 26">
  <defs
     id="defs5937">
    <clipPath
       clipPathUnits="userSpaceOnUse"
       id="clipPath3527">
      <path
         inkscape:connector-curvature="0"
         d="M 62.625,45 576,45 l 0,693 -513.375,0 0,-693 z"
         id="path3529" />
    </clipPath>
    <clipPath
       clipPathUnits="userSpaceOnUse"
       id="clipPath3515">
      <path
         inkscape:connector-curvature="0"
         d="m 66.881,78.15 504.778,0 0,659.85 -504.778,0 0,-659.85 z"
         id="path3517" />
    </clipPath>
  </defs>
  <sodipodi:namedview
     id="base"
     pagecolor="#ffffff"
     bordercolor="#666666"
     borderopacity="1.0"
     inkscape:pageopacity="0.0"
     inkscape:pageshadow="2"
     inkscape:zoom="0.35"
     inkscape:cx="-311.11607"
     inkscape:cy="-180.58161"
     inkscape:document-units="px"
     inkscape:current-layer="layer1"
     showgrid="false"
     fit-margin-top="0"
     fit-margin-left="0"
     fit-margin-right="0"
     fit-margin-bottom="0"
     inkscape:window-width="469"
     inkscape:window-height="425"
     inkscape:window-x="175"
     inkscape:window-y="175"
     inkscape:window-maximized="0" />
  <metadata
     id="metadata5940">
    <rdf:RDF>
      <cc:Work
         rdf:about="">
        <dc:format>image/svg+xml</dc:format>
        <dc:type
           rdf:resource="http://purl.org/dc/dcmitype/StillImage" />
        <dc:title></dc:title>
      </cc:Work>
    </rdf:RDF>
  </metadata>
  <g
     inkscape:label="Layer 1"
     inkscape:groupmode="layer"
     id="layer1"
     transform="translate(-686.11607,-238.65557)">
    <g
       transform="matrix(1.25,0,0,-1.25,62.168071,957.3062)"
       id="g3511">
      <g
         id="g3513"
         clip-path="url(#clipPath3515)">
        <g
           id="g3519"
           transform="translate(503.9084,574.6705)">
          <path
             inkscape:connector-curvature="0"
             d="m 0,0 63,0 c 2.479,0 4.5,-2.021 4.5,-4.5 l 0,-81.002 c 0,-2.478 -2.021,-4.5 -4.5,-4.5 l -63,0 c -2.478,0 -4.5,2.022 -4.5,4.5 l 0,81.002 C -4.5,-2.052 -2.447,0 0,0"
             style="fill:none;stroke:#231f20;stroke-width:0.5;stroke-linecap:butt;stroke-linejoin:miter;stroke-miterlimit:4;stroke-opacity:1;stroke-dasharray:none"
             id="path3521" />
        </g>
      </g>
    </g>
    <g
       transform="matrix(1.25,0,0,-1.25,62.168071,957.3062)"
       id="g3523">
      <g
         id="g3525"
         clip-path="url(#clipPath3527)">
        <g
           id="g3531"
           transform="translate(503.9223,573.5455)">
          <path
             inkscape:connector-curvature="0"
             d="m 0,0 62.973,0 c 1.853,-0.003 3.381,-1.537 3.388,-3.39 l 0,-80.973 c -0.007,-1.853 -1.535,-3.381 -3.388,-3.389 l -62.973,0 c -1.852,0.008 -3.385,1.536 -3.389,3.389 l 0,80.973 C -3.387,-1.537 -1.852,-0.003 0,0"
             style="fill:#231f20;fill-opacity:1;fill-rule:evenodd;stroke:none"
             id="path3533" />
        </g>
        <g
           id="g3535"
           transform="translate(503.9454,571.6705)">
          <path
             inkscape:connector-curvature="0"
             d="m 0,0 62.924,0 c 0.846,0.012 1.553,-0.691 1.539,-1.539 l 0,-80.923 c 0.014,-0.846 -0.693,-1.553 -1.539,-1.54 l -62.924,0 c -0.845,-0.013 -1.548,0.694 -1.537,1.54 l 0,80.923 C -1.548,-0.691 -0.845,0.012 0,0"
             style="fill:#ffffff;fill-opacity:1;fill-rule:evenodd;stroke:none"
             id="path3537" />
        </g>
        <g
           id="g3539"
           transform="translate(557.5244,561.4614)">
          <path
             inkscape:connector-curvature="0"
             d="m 0,0 c 0,-0.63 -0.37,-1.314 -0.895,-1.578 -0.42,-0.211 -0.684,-0.261 -1.42,-0.261 l -3.103,0 0,3.681 3.103,0 c 0.736,0 1,-0.053 1.42,-0.263 C -0.37,1.262 0,0.631 0,0 m 2.418,0 c 0,1.526 -0.999,3.104 -2.313,3.735 -0.736,0.369 -1.525,0.474 -2.736,0.474 l -5.153,0 0,-14.992 2.366,0 0,6.524 2.787,0 c 1.158,0 2.052,0.209 2.736,0.525 1.314,0.578 2.313,2.156 2.313,3.734 m -16.682,-3.314 c 0,-1.156 -0.264,-2.629 -0.578,-3.418 -0.528,-1.314 -1.211,-1.895 -2.315,-1.895 -0.947,0 -1.578,0.37 -2.05,1.159 -0.579,0.947 -0.895,2.578 -0.895,4.154 0,1.264 0.211,2.631 0.578,3.525 0.526,1.315 1.262,1.893 2.42,1.84 0.895,-0.051 1.473,-0.367 1.945,-1.156 0.578,-1 0.895,-2.525 0.895,-4.209 m 2.367,0 c 0,1.895 -0.369,3.787 -1,5.103 -0.947,1.84 -2.262,2.682 -4.154,2.682 -1.737,0 -2.946,-0.525 -3.84,-1.683 -0.998,-1.42 -1.629,-3.629 -1.629,-6.102 0,-1.787 0.42,-3.787 1.051,-5.049 0.894,-1.842 2.209,-2.691 4.312,-2.691 1.578,0 2.787,0.535 3.629,1.691 1.051,1.317 1.631,3.684 1.631,6.049 m -13.369,5.418 0,2.105 -9.256,0 0,-2.105 3.418,0 0,-12.887 2.367,0 0,12.887 3.471,0 z m -11.266,-8.572 c 0,5.89 -7.049,4.049 -7.258,6.838 -0.105,1.367 1.209,1.787 2.313,1.734 1.684,-0.053 2.209,-1.315 2.209,-1.315 l 2.103,0.631 c -0.734,1.842 -2.154,3.051 -4.259,3.051 -2.682,0 -4.68,-1.103 -4.68,-4.049 0,-2.472 1.998,-3.367 2.893,-3.736 1.945,-0.787 4.259,-1.104 4.259,-3.104 0,-1.261 -0.947,-2.209 -2.314,-2.209 -1.42,0 -2.576,0.79 -3.207,2.209 l -2.262,-0.839 c 0.998,-2.262 2.893,-3.797 5.469,-3.797 1.262,0 2.42,0.429 3.262,1.166 0.945,0.842 1.472,2.051 1.472,3.42"
             style="fill:#231f20;fill-opacity:1;fill-rule:evenodd;stroke:none"
             id="path3541" />
        </g>
        <g
           id="g3543"
           transform="translate(559.2704,501.2004)">
          <path
             inkscape:connector-curvature="0"
             d="m 0,0 c 0,-2 -0.475,-3.629 -1.369,-4.524 -0.42,-0.422 -0.893,-0.58 -1.682,-0.58 l -2.367,0 0,10.205 2.681,0 c 0.631,0 1.159,-0.263 1.526,-0.631 C -0.475,3.681 0,1.998 0,0 m 2.418,0 c 0,2.945 -0.895,5.312 -2.471,6.679 -0.789,0.631 -1.367,0.789 -2.893,0.789 l -4.84,0 0,-14.99 4.577,0 0.841,0 c 0.79,0.053 1.579,0.315 2.157,0.842 1.681,1.314 2.629,3.682 2.629,6.68 m -12.674,-7.522 0,2.418 -6.944,0 0,4.104 4.366,0 0,2.42 -4.366,0 0,3.681 6.469,0 0,2.367 -8.834,0 0,-14.99 9.309,0 z M -24.719,3.261 c 0,-0.632 -0.367,-1.263 -0.947,-1.578 -0.368,-0.211 -0.631,-0.263 -1.368,-0.263 l -2.839,0 0,3.681 2.839,0 c 0.79,0 1,-0.052 1.368,-0.263 0.58,-0.315 0.947,-0.946 0.947,-1.577 m 2.682,-10.783 -2.629,6.996 c 1.367,0.631 2.314,2.209 2.314,3.787 0,1.526 -0.947,3.104 -2.262,3.735 -0.736,0.367 -1.525,0.472 -2.681,0.472 l -4.946,0 0,-14.99 2.368,0 0,6.522 2.839,0 2.42,-6.522 2.577,0 z"
             style="fill:#231f20;fill-opacity:1;fill-rule:evenodd;stroke:none"
             id="path3545" />
        </g>
        <g
           id="g3547"
           transform="translate(550.0613,537.1744)">
          <path
             inkscape:connector-curvature="0"
             d="m 0,0 0,1.453 -4.164,0 0,2.461 2.619,0 0,1.452 -2.619,0 0,2.21 3.88,0 0,1.42 -5.3,0 L -5.584,0 0,0 z M -8.932,6.471 C -8.932,6.092 -9.155,5.713 -9.5,5.524 -9.721,5.399 -9.879,5.366 -10.321,5.366 l -1.705,0 0,2.21 1.705,0 c 0.473,0 0.6,-0.033 0.821,-0.158 0.345,-0.189 0.568,-0.568 0.568,-0.947 M -7.325,0 -8.901,4.2 c 0.821,0.376 1.389,1.324 1.389,2.271 0,0.916 -0.568,1.861 -1.357,2.24 -0.442,0.221 -0.916,0.285 -1.61,0.285 l -2.967,0 0,-8.996 1.42,0 0,3.914 1.705,0 L -8.869,0 -7.325,0 z m -7.859,0 0,1.453 -4.166,0 0,2.461 2.619,0 0,1.452 -2.619,0 0,2.21 3.883,0 0,1.42 -5.303,0 0,-8.996 5.586,0 z m -7.955,0 0,8.996 -1.42,0 0,-3.63 -3.281,0 0,3.63 -1.42,0 0,-8.996 1.42,0 0,3.914 3.281,0 0,-3.914 1.42,0 z"
             style="fill:#231f20;fill-opacity:1;fill-rule:evenodd;stroke:none"
             id="path3549" />
        </g>
        <g
           id="g3551"
           transform="translate(550.1664,513.1744)">
          <path
             inkscape:connector-curvature="0"
             d="m 0,0 0,8.994 -1.42,0 0,-5.744 -3.281,5.744 -1.42,0 0,-8.994 1.42,0 0,6.092 L -1.264,0 0,0 z m -9.791,4.481 c 0,-0.694 -0.158,-1.578 -0.348,-2.051 -0.314,-0.789 -0.724,-1.137 -1.386,-1.137 -0.569,0 -0.948,0.221 -1.231,0.696 -0.347,0.568 -0.537,1.546 -0.537,2.492 0,0.758 0.127,1.578 0.348,2.115 0.314,0.789 0.756,1.137 1.451,1.105 0.535,-0.033 0.883,-0.22 1.168,-0.695 0.346,-0.599 0.535,-1.515 0.535,-2.525 m 1.42,0 c 0,1.137 -0.221,2.273 -0.6,3.062 -0.568,1.104 -1.355,1.61 -2.492,1.61 -1.041,0 -1.767,-0.317 -2.302,-1.01 -0.6,-0.852 -0.979,-2.178 -0.979,-3.662 0,-1.072 0.252,-2.272 0.631,-3.03 0.537,-1.103 1.324,-1.615 2.588,-1.615 0.945,0 1.672,0.323 2.176,1.016 0.63,0.789 0.978,2.209 0.978,3.629"
             style="fill:#231f20;fill-opacity:1;fill-rule:evenodd;stroke:none"
             id="path3553" />
        </g>
        <g
           id="g3555"
           transform="translate(518.7524,519.9034)">
          <path
             inkscape:connector-curvature="0"
             d="M 0,0 6.334,-2.463 C 6.951,-2.686 7.357,-3.291 7.324,-3.947 7.285,-4.723 6.654,-5.344 5.883,-5.363 l -17.436,-2.403 -0.033,0.035 3.115,17.323 c 0.051,0.771 0.698,1.377 1.473,1.384 0.66,0.006 1.246,-0.425 1.445,-1.052 l 2.127,-6.186 c 7.834,6.992 17.965,10.813 28.428,10.811 3.156,0 6.645,-0.498 9.607,-1.188 L 34.453,3.9 C 30.369,5.527 25.426,6.545 20.92,6.545 13.506,6.545 6.092,4.072 0,0"
             style="fill:#231f20;fill-opacity:1;fill-rule:evenodd;stroke:none"
             id="path3557" />
        </g>
      </g>
    </g>
  </g>
</svg>
