<?xml version="1.0" encoding="UTF-8" standalone="no"?>
<!-- Created with Inkscape (http://www.inkscape.org/) -->

<svg
   xmlns:dc="http://purl.org/dc/elements/1.1/"
   xmlns:cc="http://creativecommons.org/ns#"
   xmlns:rdf="http://www.w3.org/1999/02/22-rdf-syntax-ns#"
   xmlns:svg="http://www.w3.org/2000/svg"
   xmlns="http://www.w3.org/2000/svg"
   xmlns:sodipodi="http://sodipodi.sourceforge.net/DTD/sodipodi-0.dtd"
   xmlns:inkscape="http://www.inkscape.org/namespaces/inkscape"
   width="90.625"
   height="113.125"
   id="svg7957"
   version="1.1"
   inkscape:version="0.48.2 r9819"
   sodipodi:docname="New document 46">
  <defs
     id="defs7959">
    <clipPath
       clipPathUnits="userSpaceOnUse"
       id="clipPath3759">
      <path
         inkscape:connector-curvature="0"
         d="M 62.625,45 576,45 l 0,693 -513.375,0 0,-693 z"
         id="path3761" />
    </clipPath>
  </defs>
  <sodipodi:namedview
     id="base"
     pagecolor="#ffffff"
     bordercolor="#666666"
     borderopacity="1.0"
     inkscape:pageopacity="0.0"
     inkscape:pageshadow="2"
     inkscape:zoom="0.35"
     inkscape:cx="-25.400535"
     inkscape:cy="-26.294023"
     inkscape:document-units="px"
     inkscape:current-layer="layer1"
     showgrid="false"
     fit-margin-top="0"
     fit-margin-left="0"
     fit-margin-right="0"
     fit-margin-bottom="0"
     inkscape:window-width="469"
     inkscape:window-height="425"
     inkscape:window-x="75"
     inkscape:window-y="75"
     inkscape:window-maximized="0" />
  <metadata
     id="metadata7962">
    <rdf:RDF>
      <cc:Work
         rdf:about="">
        <dc:format>image/svg+xml</dc:format>
        <dc:type
           rdf:resource="http://purl.org/dc/dcmitype/StillImage" />
        <dc:title></dc:title>
      </cc:Work>
    </rdf:RDF>
  </metadata>
  <g
     inkscape:label="Layer 1"
     inkscape:groupmode="layer"
     id="layer1"
     transform="translate(-400.40053,-392.94316)">
    <g
       transform="matrix(1.25,0,0,-1.25,181.71516,766.62241)"
       clip-path="url(#clipPath3759)"
       id="g3757">
      <g
         transform="translate(179.6983,298.6934)"
         id="g3763">
        <path
           inkscape:connector-curvature="0"
           id="path3765"
           style="fill:#ffffff;fill-opacity:1;fill-rule:nonzero;stroke:#231f20;stroke-width:0.5;stroke-linecap:butt;stroke-linejoin:miter;stroke-miterlimit:4;stroke-opacity:1;stroke-dasharray:none"
           d="m 0,0 63.002,0 c 2.479,0 4.5,-2.021 4.5,-4.5 l 0,-80.999 c 0,-2.478 -2.021,-4.5 -4.5,-4.5 l -63.002,0 c -2.478,0 -4.5,2.022 -4.5,4.5 l 0,80.999 C -4.5,-2.052 -2.447,0 0,0" />
      </g>
      <g
         transform="translate(179.7143,297.5684)"
         id="g3767">
        <path
           inkscape:connector-curvature="0"
           id="path3769"
           style="fill:#231f20;fill-opacity:1;fill-rule:evenodd;stroke:none"
           d="m 0,0 62.973,0 c 1.853,-0.004 3.381,-1.537 3.388,-3.388 l 0,-80.972 c -0.007,-1.855 -1.535,-3.383 -3.388,-3.389 l -62.973,0 c -1.854,0.006 -3.387,1.534 -3.391,3.389 l 0,80.972 C -3.387,-1.537 -1.854,-0.002 0,0" />
      </g>
      <g
         transform="translate(244.2004,266.4445)"
         id="g3771">
        <path
           inkscape:connector-curvature="0"
           id="path3773"
           style="fill:#ffffff;fill-opacity:1;fill-rule:evenodd;stroke:none"
           d="m 0,0 0,-53.213 c 0.014,-0.843 -0.693,-1.552 -1.539,-1.537 l -62.924,0 c -0.847,-0.015 -1.55,0.694 -1.539,1.537 L -66.002,0 0,0" />
      </g>
      <g
         transform="translate(230.4214,269.4485)"
         id="g3775">
        <path
           inkscape:connector-curvature="0"
           id="path3777"
           style="fill:#ffffff;fill-opacity:1;fill-rule:evenodd;stroke:none"
           d="m 0,0 0,1.705 -5.588,0 0,2.209 3.158,0 0,1.737 -3.158,0 0,1.64 5.463,0 0,1.705 -7.166,0 L -7.291,0 0,0 z m -9.785,0 0,8.996 -1.736,0 0,-6.281 -5.051,6.281 -1.672,0 0,-8.996 1.703,0 0,6.219 L -11.49,0 -9.785,0 z m -13.699,3.694 -2.967,0 1.484,3.125 1.483,-3.125 z M -19.853,0 l -4.262,8.996 -1.705,0 -4.26,-8.996 1.893,0 0.947,1.957 4.578,0 0.914,-1.957 1.895,0 z m -10.891,0 0,1.705 -6.027,0 0,7.291 -1.706,0 0,-8.996 7.733,0 z" />
      </g>
      <g
         transform="translate(230.3064,225.9444)"
         id="g3779">
        <path
           inkscape:connector-curvature="0"
           id="path3781"
           style="fill:#231f20;fill-opacity:1;fill-rule:evenodd;stroke:none"
           d="M 0,0 -2.178,0 -5.115,-3.693 -8.051,0 l -2.178,0 4.262,-5.365 0,-3.629 1.703,0 0,3.629 L 0,0 z m -8.051,-8.994 0,1.703 -6.027,0 0,7.291 -1.705,0 0,-8.994 7.732,0 z m -10.227,0 0,8.994 -1.734,0 0,-6.281 -5.051,6.281 -1.674,0 0,-8.994 1.706,0 0,6.217 5.05,-6.217 1.703,0 z m -12.277,4.543 c 0,-1.64 -1.357,-2.967 -2.998,-2.967 -1.643,0 -3,1.327 -3,2.967 0,1.611 1.357,2.873 3,2.873 1.641,0 2.998,-1.295 2.998,-2.904 l 0,0.031 z m 1.705,0 c 0,2.494 -2.211,4.61 -4.703,4.61 -2.652,0 -4.703,-2.02 -4.703,-4.641 0,-2.557 2.146,-4.676 4.703,-4.676 2.557,0 4.703,2.119 4.703,4.707" />
      </g>
      <g
         transform="translate(223.0914,238.8294)"
         id="g3783">
        <path
           inkscape:connector-curvature="0"
           id="path3785"
           style="fill:#231f20;fill-opacity:1;fill-rule:evenodd;stroke:none"
           d="M 0,0 -0.022,2.543 -0.41,3.094 0.064,7.068 -1.389,18.221 c -0.093,0.734 -0.273,1.467 -0.726,2.07 -0.26,0.348 -0.59,0.656 -0.965,0.883 -0.293,0.176 -0.617,0.275 -0.963,0.275 l -6.881,0 c 0.59,0.231 0.988,0.651 0.988,1.131 0,0.123 -0.027,0.242 -0.076,0.356 l 4.762,0 0,-0.385 c 0,-0.213 0.176,-0.389 0.391,-0.389 l 0.181,0 c 0.215,0 0.393,0.176 0.393,0.389 l 0,0.385 0.01,0 0,1.025 -15.235,0 0,-1.025 0.004,0 0,-0.385 c 0,-0.213 0.178,-0.389 0.393,-0.389 l 0.179,0 c 0.217,0 0.393,0.176 0.393,0.389 l 0,0.385 4.662,0 c -0.051,-0.114 -0.076,-0.233 -0.076,-0.356 0,-0.48 0.398,-0.9 0.988,-1.131 l -5.18,0 c -0.607,0 -1.234,-0.002 -1.824,-0.168 -0.594,-0.168 -1.117,-0.502 -1.551,-0.931 -0.466,-0.459 -0.814,-1.033 -0.898,-1.688 L -23.844,7.565 -23.34,3.039 -23.674,2.568 -23.686,0 l 4.707,-0.002 -0.416,-0.703 -1.459,0 -0.777,-1.482 1.428,0 -0.627,-1.104 -1.428,0 -0.863,-1.607 1.439,0 -0.738,-1.356 -1.437,0 -1.065,-1.814 1.527,0 -0.537,-0.959 1.418,-0.012 0.586,0.971 19.969,0 0.545,-0.971 1.461,0.012 -0.496,0.959 1.361,0 -0.941,1.814 -1.436,0 -0.74,1.356 1.414,0 -0.822,1.607 -1.524,0 -0.545,1.104 1.44,0 -0.856,1.482 -1.392,0 -0.451,0.703 L 0.066,0 0,0 z m -6.293,-0.012 0.377,-0.693 -12.053,0 0.41,0.693 11.266,0 z" />
      </g>
      <g
         transform="translate(201.6163,240.8974)"
         id="g3787">
        <path
           inkscape:connector-curvature="0"
           id="path3789"
           style="fill:#ffffff;fill-opacity:1;fill-rule:evenodd;stroke:none"
           d="m 0,0 0.002,0.694 19.36,0 L 19.362,0 0,0 z" />
      </g>
      <path
         inkscape:connector-curvature="0"
         id="path3791"
         style="fill:#ffffff;fill-opacity:1;fill-rule:evenodd;stroke:none"
         d="m 205.284,259.675 11.692,0 0,-2.666 -11.692,0 0,2.666 z" />
      <g
         transform="translate(212.0074,256.3125)"
         id="g3793">
        <path
           inkscape:connector-curvature="0"
           id="path3795"
           style="fill:#ffffff;fill-opacity:1;fill-rule:evenodd;stroke:none"
           d="M 0,0 8.916,-0.583 9.664,-7.834 0,-7.834 0,0 z" />
      </g>
      <g
         transform="translate(200.7554,248.4785)"
         id="g3797">
        <path
           inkscape:connector-curvature="0"
           id="path3799"
           style="fill:#ffffff;fill-opacity:1;fill-rule:evenodd;stroke:none"
           d="M 0,0 0.834,7.168 9.5,7.863 9.5,0 0,0 z" />
      </g>
      <g
         transform="translate(203.3964,243.5894)"
         id="g3801">
        <path
           inkscape:connector-curvature="0"
           id="path3803"
           style="fill:#ffffff;fill-opacity:1;fill-rule:evenodd;stroke:none"
           d="M 0,0 C -0.129,-0.233 -0.301,-0.412 -0.557,-0.51 -1.008,-0.686 -1.516,-0.527 -1.791,-0.131 -2.03,0.217 -2.03,0.682 -1.789,1.027 -1.518,1.42 -1.004,1.578 -0.557,1.406 -0.301,1.31 -0.129,1.123 0,0.89 0.127,1.125 0.297,1.31 0.552,1.41 0.994,1.578 1.513,1.414 1.783,1.029 2.027,0.682 2.027,0.223 1.789,-0.127 1.519,-0.52 0.998,-0.686 0.552,-0.516 0.297,-0.418 0.129,-0.233 0,0" />
      </g>
      <g
         transform="translate(219.0054,243.6185)"
         id="g3805">
        <path
           inkscape:connector-curvature="0"
           id="path3807"
           style="fill:#ffffff;fill-opacity:1;fill-rule:evenodd;stroke:none"
           d="m 0,0 c -0.125,-0.232 -0.297,-0.426 -0.555,-0.521 -0.439,-0.164 -0.961,-0.016 -1.228,0.373 -0.242,0.353 -0.246,0.804 -0.01,1.162 0.268,0.4 0.791,0.56 1.238,0.385 C -0.291,1.297 -0.135,1.123 0,0.889 0.127,1.119 0.299,1.303 0.551,1.403 0.996,1.576 1.521,1.406 1.787,1.014 1.986,0.721 2.027,0.363 1.883,0.039 1.678,-0.426 1.211,-0.648 0.719,-0.568 0.377,-0.512 0.154,-0.291 0,0" />
      </g>
      <g
         transform="translate(211.1714,261.5955)"
         id="g3809">
        <path
           inkscape:connector-curvature="0"
           id="path3811"
           style="fill:#ffffff;fill-opacity:1;fill-rule:evenodd;stroke:none"
           d="M 0,0 C 0.322,0 0.584,-0.155 0.584,-0.346 0.584,-0.535 0.322,-0.69 0,-0.69 c -0.322,0 -0.584,0.155 -0.584,0.344 C -0.584,-0.155 -0.322,0 0,0" />
      </g>
      <g
         transform="translate(219.4174,233.8534)"
         id="g3813">
        <path
           inkscape:connector-curvature="0"
           id="path3815"
           style="fill:#ffffff;fill-opacity:1;fill-rule:evenodd;stroke:none"
           d="m 0,0 -16.537,0 -0.734,-1.364 18.005,0 L 0,0 z" />
      </g>
      <g
         transform="translate(217.9464,236.5794)"
         id="g3817">
        <path
           inkscape:connector-curvature="0"
           id="path3819"
           style="fill:#ffffff;fill-opacity:1;fill-rule:evenodd;stroke:none"
           d="m 0,0 -13.597,0 -0.623,-1.068 14.802,0 L 0,0 z" />
      </g>
      <g
         transform="translate(237.7654,290.5555)"
         id="g3821">
        <path
           inkscape:connector-curvature="0"
           id="path3823"
           style="fill:#ffffff;fill-opacity:1;fill-rule:evenodd;stroke:none"
           d="m 0,0 c 0,-0.6 -0.504,-1.104 -1.135,-1.104 l -3.789,0 0,2.209 3.789,0 C -0.504,1.105 0,0.599 0,0 m 1.832,-6.186 -2.053,3.535 C 0.947,-2.241 1.705,-1.2 1.705,0 c 0,1.547 -1.262,2.81 -2.84,2.81 l -5.492,0 0,-8.996 1.703,0 0,3.377 2.779,0 1.989,-3.377 1.988,0 z m -10.574,0 0,1.705 -5.588,0 0,2.209 3.158,0 0,1.737 -3.158,0 0,1.64 5.461,0 0,1.705 -7.166,0 0,-8.996 7.293,0 z m -8.872,7.291 0,1.705 -7.732,0 0,-1.705 3.094,0 0,-7.291 1.703,0 0,7.291 2.935,0 z m -9.31,-7.291 0,8.996 -1.736,0 0,-6.281 -5.049,6.281 -1.674,0 0,-8.996 1.705,0 0,6.219 5.049,-6.219 1.705,0 z m -10.574,0 0,1.705 -5.586,0 0,2.209 3.156,0 0,1.737 -3.156,0 0,1.64 5.461,0 0,1.705 -7.166,0 0,-8.996 7.291,0 z m -9.153,1.863 -1.388,0.946 c -0.254,-0.283 -0.379,-0.41 -0.537,-0.567 -0.538,-0.41 -1.2,-0.664 -1.895,-0.664 -1.641,0 -2.935,1.295 -2.935,2.936 0,1.609 1.294,2.904 2.935,2.904 0.979,0 1.736,-0.379 2.432,-1.232 l 1.388,0.978 c -1.105,1.389 -2.209,1.988 -3.755,1.988 -2.622,0 -4.704,-2.05 -4.704,-4.669 0,-2.557 2.082,-4.645 4.639,-4.645 0.916,0 1.895,0.32 2.652,0.857 0.442,0.284 0.694,0.538 1.168,1.168" />
      </g>
    </g>
  </g>
</svg>
