<?xml version="1.0" encoding="UTF-8" standalone="no"?>
<!-- Created with Inkscape (http://www.inkscape.org/) -->

<svg
   xmlns:dc="http://purl.org/dc/elements/1.1/"
   xmlns:cc="http://creativecommons.org/ns#"
   xmlns:rdf="http://www.w3.org/1999/02/22-rdf-syntax-ns#"
   xmlns:svg="http://www.w3.org/2000/svg"
   xmlns="http://www.w3.org/2000/svg"
   xmlns:sodipodi="http://sodipodi.sourceforge.net/DTD/sodipodi-0.dtd"
   xmlns:inkscape="http://www.inkscape.org/namespaces/inkscape"
   width="90.623375"
   height="113.125"
   id="svg7677"
   version="1.1"
   inkscape:version="0.48.2 r9819"
   sodipodi:docname="New document 42">
  <defs
     id="defs7679">
    <clipPath
       clipPathUnits="userSpaceOnUse"
       id="clipPath3595">
      <path
         inkscape:connector-curvature="0"
         d="M 62.625,45 576,45 l 0,693 -513.375,0 0,-693 z"
         id="path3597" />
    </clipPath>
    <clipPath
       clipPathUnits="userSpaceOnUse"
       id="clipPath3583">
      <path
         inkscape:connector-curvature="0"
         d="m 66.881,78.15 504.778,0 0,659.85 -504.778,0 0,-659.85 z"
         id="path3585" />
    </clipPath>
  </defs>
  <sodipodi:namedview
     id="base"
     pagecolor="#ffffff"
     bordercolor="#666666"
     borderopacity="1.0"
     inkscape:pageopacity="0.0"
     inkscape:pageshadow="2"
     inkscape:zoom="0.35"
     inkscape:cx="45.311245"
     inkscape:cy="56.561917"
     inkscape:document-units="px"
     inkscape:current-layer="layer1"
     showgrid="false"
     fit-margin-top="0"
     fit-margin-left="0"
     fit-margin-right="0"
     fit-margin-bottom="0"
     inkscape:window-width="469"
     inkscape:window-height="425"
     inkscape:window-x="25"
     inkscape:window-y="25"
     inkscape:window-maximized="0" />
  <metadata
     id="metadata7682">
    <rdf:RDF>
      <cc:Work
         rdf:about="">
        <dc:format>image/svg+xml</dc:format>
        <dc:type
           rdf:resource="http://purl.org/dc/dcmitype/StillImage" />
        <dc:title></dc:title>
      </cc:Work>
    </rdf:RDF>
  </metadata>
  <g
     inkscape:label="Layer 1"
     inkscape:groupmode="layer"
     id="layer1"
     transform="translate(-329.68876,-475.7991)">
    <g
       transform="matrix(1.25,0,0,-1.25,-294.26162,1016.4171)"
       clip-path="url(#clipPath3583)"
       id="g3581">
      <g
         transform="translate(503.9103,432.2444)"
         id="g3587">
        <path
           inkscape:connector-curvature="0"
           id="path3589"
           style="fill:none;stroke:#231f20;stroke-width:0.5;stroke-linecap:butt;stroke-linejoin:miter;stroke-miterlimit:4;stroke-opacity:1;stroke-dasharray:none"
           d="m 0,0 62.998,0 c 2.479,0 4.5,-2.021 4.5,-4.5 l 0,-81.001 c 0,-2.478 -2.021,-4.5 -4.5,-4.5 l -62.998,0 c -2.478,0 -4.5,2.022 -4.5,4.5 l 0,81.001 C -4.5,-2.053 -2.447,0 0,0" />
      </g>
    </g>
    <g
       transform="matrix(1.25,0,0,-1.25,-294.26162,1016.4171)"
       clip-path="url(#clipPath3595)"
       id="g3593">
      <g
         transform="translate(503.9244,431.1194)"
         id="g3599">
        <path
           inkscape:connector-curvature="0"
           id="path3601"
           style="fill:#231f20;fill-opacity:1;fill-rule:evenodd;stroke:none"
           d="m 0,0 62.971,0 c 1.855,-0.003 3.382,-1.537 3.388,-3.39 l 0,-80.972 c -0.006,-1.854 -1.533,-3.381 -3.388,-3.389 l -62.971,0 c -1.852,0.008 -3.385,1.535 -3.389,3.389 l 0,80.972 C -3.387,-1.537 -1.852,-0.003 0,0" />
      </g>
      <g
         transform="translate(568.4084,399.9935)"
         id="g3603">
        <path
           inkscape:connector-curvature="0"
           id="path3605"
           style="fill:#ffffff;fill-opacity:1;fill-rule:evenodd;stroke:none"
           d="m 0,0 0,-53.211 c 0.016,-0.845 -0.693,-1.553 -1.537,-1.539 l -62.924,0 c -0.845,-0.014 -1.548,0.694 -1.537,1.539 L -65.998,0 0,0" />
      </g>
      <g
         transform="translate(556.7893,425.2905)"
         id="g3607">
        <path
           inkscape:connector-curvature="0"
           id="path3609"
           style="fill:#ffffff;fill-opacity:1;fill-rule:evenodd;stroke:none"
           d="m 0,0 0,1.704 -7.734,0 0,-1.704 3.094,0 0,-7.291 1.705,0 0,7.291 L 0,0 z m -9.344,-7.291 0,8.995 -1.671,0 0,-3.345 -5.051,0 0,3.345 -1.705,0 0,-8.995 1.705,0 0,3.914 5.051,0 0,-3.914 1.671,0 z m -10.574,3.914 0,1.01 -3.818,0 0,-1.736 2.019,0 c -0.158,-0.411 -0.283,-0.6 -0.441,-0.79 -0.441,-0.536 -1.137,-0.82 -1.861,-0.82 -1.578,0 -2.621,1.168 -2.621,2.873 0,1.83 1.105,2.967 2.841,2.967 1.01,0 1.672,-0.348 2.303,-1.231 l 1.42,0.977 c -0.535,0.695 -0.82,0.979 -1.293,1.295 -0.695,0.473 -1.484,0.694 -2.398,0.694 -2.715,0 -4.577,-1.893 -4.577,-4.671 0,-1.294 0.411,-2.461 1.135,-3.251 0.789,-0.883 1.988,-1.393 3.19,-1.393 2.302,0 4.101,1.836 4.101,4.076 M -30.49,-7.291 c 0.031,0 0,8.995 0,8.995 l -1.705,0 0,-8.995 1.705,0 z m -5.648,6.187 c 0,-0.601 -0.506,-1.105 -1.137,-1.105 l -3.787,0 0,2.209 3.787,0 c 0.631,0 1.137,-0.505 1.137,-1.104 m 1.83,-6.187 -2.051,3.535 c 1.168,0.41 1.926,1.452 1.926,2.652 0,1.545 -1.264,2.808 -2.842,2.808 l -5.494,0 0,-8.995 1.707,0 0,3.377 2.777,0 1.988,-3.377 1.989,0 z" />
      </g>
      <g
         transform="translate(554.6313,402.9995)"
         id="g3611">
        <path
           inkscape:connector-curvature="0"
           id="path3613"
           style="fill:#ffffff;fill-opacity:1;fill-rule:evenodd;stroke:none"
           d="m 0,0 0,1.705 -5.588,0 0,2.209 3.156,0 0,1.736 -3.156,0 0,1.641 5.461,0 0,1.703 -7.164,0 L -7.291,0 0,0 z m -9.785,0 0,8.994 -1.737,0 0,-6.279 -5.05,6.279 -1.672,0 0,-8.994 1.703,0 0,6.217 L -11.49,0 -9.785,0 z m -13.699,3.693 -2.967,0 1.484,3.125 1.483,-3.125 z m 3.63,-3.693 -4.261,8.994 -1.705,0 -4.26,-8.994 1.892,0 0.948,1.957 4.578,0 0.914,-1.957 1.894,0 z m -10.89,0 0,1.705 -6.026,0 0,7.289 -1.705,0 0,-8.994 7.731,0 z" />
      </g>
      <g
         transform="translate(554.5143,359.4935)"
         id="g3615">
        <path
           inkscape:connector-curvature="0"
           id="path3617"
           style="fill:#231f20;fill-opacity:1;fill-rule:evenodd;stroke:none"
           d="M 0,0 -2.178,0 -5.113,-3.691 -8.049,0 l -2.178,0 4.262,-5.365 0,-3.629 1.703,0 0,3.629 L 0,0 z m -8.049,-8.994 0,1.703 -6.027,0 0,7.291 -1.705,0 0,-8.994 7.732,0 z m -10.227,0 0,8.994 -1.734,0 0,-6.279 -5.051,6.279 -1.674,0 0,-8.994 1.705,0 0,6.217 5.051,-6.217 1.703,0 z m -12.277,4.545 c 0,-1.643 -1.355,-2.967 -2.996,-2.967 -1.643,0 -3,1.324 -3,2.967 0,1.609 1.357,2.871 3,2.871 1.641,0 2.996,-1.293 2.996,-2.902 l 0,0.031 z m 1.705,0 c 0,2.492 -2.209,4.607 -4.701,4.607 -2.652,0 -4.703,-2.019 -4.703,-4.638 0,-2.557 2.146,-4.678 4.703,-4.678 2.557,0 4.701,2.121 4.701,4.709" />
      </g>
      <g
         transform="translate(547.3013,372.3784)"
         id="g3619">
        <path
           inkscape:connector-curvature="0"
           id="path3621"
           style="fill:#231f20;fill-opacity:1;fill-rule:evenodd;stroke:none"
           d="M 0,0 -0.022,2.543 -0.41,3.094 0.064,7.07 -1.389,18.223 c -0.094,0.732 -0.273,1.464 -0.726,2.068 -0.26,0.348 -0.59,0.656 -0.965,0.883 -0.293,0.176 -0.617,0.277 -0.963,0.277 l -6.881,0 c 0.59,0.229 0.988,0.65 0.988,1.129 0,0.125 -0.027,0.244 -0.076,0.357 l 4.762,0 0,-0.386 c 0,-0.213 0.176,-0.387 0.391,-0.387 l 0.181,0 c 0.215,0 0.393,0.174 0.393,0.387 l 0,0.386 0.01,0 0,1.026 -15.235,0 0,-1.026 0.004,0 0,-0.386 c 0,-0.213 0.178,-0.387 0.393,-0.387 l 0.179,0 c 0.217,0 0.393,0.174 0.393,0.387 l 0,0.386 4.662,0 c -0.051,-0.113 -0.076,-0.232 -0.076,-0.357 0,-0.479 0.398,-0.9 0.988,-1.129 l -5.18,0 c -0.607,0 -1.234,-0.004 -1.824,-0.17 -0.594,-0.168 -1.117,-0.502 -1.551,-0.93 -0.466,-0.46 -0.814,-1.033 -0.898,-1.689 L -23.842,7.564 -23.34,3.039 -23.672,2.568 -23.684,0 l 4.705,0 -0.416,-0.703 -1.459,0 -0.777,-1.485 1.428,0 -0.627,-1.101 -1.428,0 -0.863,-1.61 1.439,0 -0.738,-1.353 -1.436,0 -1.064,-1.814 1.525,0 -0.535,-0.961 1.416,-0.01 0.586,0.971 19.969,0 0.545,-0.971 1.461,0.01 -0.496,0.961 1.361,0 -0.941,1.814 -1.436,0 -0.74,1.353 1.414,0 -0.822,1.61 -1.524,0 -0.545,1.101 1.44,0 -0.856,1.485 -1.392,0 L -4.942,0 0.066,0 0,0 z m -6.293,-0.012 0.377,-0.691 -12.053,0 0.41,0.691 11.266,0 z" />
      </g>
      <g
         transform="translate(525.8264,374.4465)"
         id="g3623">
        <path
           inkscape:connector-curvature="0"
           id="path3625"
           style="fill:#ffffff;fill-opacity:1;fill-rule:evenodd;stroke:none"
           d="m 0,0 0.002,0.694 19.36,0 L 19.362,0 0,0 z" />
      </g>
      <path
         inkscape:connector-curvature="0"
         id="path3627"
         style="fill:#ffffff;fill-opacity:1;fill-rule:evenodd;stroke:none"
         d="m 529.494,393.224 11.692,0 0,-2.666 -11.692,0 0,2.666 z" />
      <g
         transform="translate(536.2174,389.8604)"
         id="g3629">
        <path
           inkscape:connector-curvature="0"
           id="path3631"
           style="fill:#ffffff;fill-opacity:1;fill-rule:evenodd;stroke:none"
           d="M 0,0 8.916,-0.582 9.664,-7.832 0,-7.832 0,0 z" />
      </g>
      <g
         transform="translate(524.9653,382.0285)"
         id="g3633">
        <path
           inkscape:connector-curvature="0"
           id="path3635"
           style="fill:#ffffff;fill-opacity:1;fill-rule:evenodd;stroke:none"
           d="M 0,0 0.834,7.166 9.5,7.862 9.5,0 0,0 z" />
      </g>
      <g
         transform="translate(527.6064,377.1385)"
         id="g3637">
        <path
           inkscape:connector-curvature="0"
           id="path3639"
           style="fill:#ffffff;fill-opacity:1;fill-rule:evenodd;stroke:none"
           d="m 0,0 c -0.129,-0.231 -0.301,-0.412 -0.557,-0.51 -0.451,-0.174 -0.959,-0.018 -1.234,0.379 -0.239,0.347 -0.239,0.812 0.002,1.16 0.271,0.391 0.785,0.549 1.232,0.379 C -0.301,1.31 -0.129,1.123 0,0.89 0.127,1.125 0.296,1.31 0.552,1.41 0.994,1.578 1.513,1.416 1.783,1.029 2.027,0.681 2.027,0.222 1.789,-0.127 1.519,-0.52 0.998,-0.686 0.552,-0.516 0.296,-0.416 0.128,-0.231 0,0" />
      </g>
      <g
         transform="translate(543.2153,377.1674)"
         id="g3641">
        <path
           inkscape:connector-curvature="0"
           id="path3643"
           style="fill:#ffffff;fill-opacity:1;fill-rule:evenodd;stroke:none"
           d="m 0,0 c -0.125,-0.232 -0.297,-0.424 -0.555,-0.52 -0.439,-0.166 -0.961,-0.017 -1.228,0.374 -0.242,0.353 -0.246,0.802 -0.01,1.16 0.268,0.402 0.791,0.56 1.238,0.386 C -0.291,1.297 -0.135,1.123 0,0.889 0.127,1.119 0.299,1.303 0.551,1.402 0.996,1.576 1.521,1.406 1.787,1.014 1.986,0.723 2.027,0.363 1.883,0.039 1.678,-0.424 1.211,-0.646 0.719,-0.566 0.377,-0.512 0.154,-0.289 0,0" />
      </g>
      <g
         transform="translate(535.3813,395.1445)"
         id="g3645">
        <path
           inkscape:connector-curvature="0"
           id="path3647"
           style="fill:#ffffff;fill-opacity:1;fill-rule:evenodd;stroke:none"
           d="M 0,0 C 0.322,0 0.584,-0.155 0.584,-0.344 0.584,-0.534 0.322,-0.69 0,-0.69 c -0.322,0 -0.584,0.156 -0.584,0.346 C -0.584,-0.155 -0.322,0 0,0" />
      </g>
      <g
         transform="translate(543.6274,367.4014)"
         id="g3649">
        <path
           inkscape:connector-curvature="0"
           id="path3651"
           style="fill:#ffffff;fill-opacity:1;fill-rule:evenodd;stroke:none"
           d="m 0,0 -16.537,0 -0.734,-1.363 18.005,0 L 0,0 z" />
      </g>
      <g
         transform="translate(542.1564,370.1284)"
         id="g3653">
        <path
           inkscape:connector-curvature="0"
           id="path3655"
           style="fill:#ffffff;fill-opacity:1;fill-rule:evenodd;stroke:none"
           d="m 0,0 -13.597,0 -0.623,-1.068 14.802,0 L 0,0 z" />
      </g>
    </g>
  </g>
</svg>
