<?xml version="1.0" encoding="UTF-8" standalone="no"?>
<!-- Created with Inkscape (http://www.inkscape.org/) -->

<svg
   xmlns:dc="http://purl.org/dc/elements/1.1/"
   xmlns:cc="http://creativecommons.org/ns#"
   xmlns:rdf="http://www.w3.org/1999/02/22-rdf-syntax-ns#"
   xmlns:svg="http://www.w3.org/2000/svg"
   xmlns="http://www.w3.org/2000/svg"
   xmlns:sodipodi="http://sodipodi.sourceforge.net/DTD/sodipodi-0.dtd"
   xmlns:inkscape="http://www.inkscape.org/namespaces/inkscape"
   width="101.875"
   height="68.120003"
   id="svg7158"
   version="1.1"
   inkscape:version="0.48.2 r9819"
   sodipodi:docname="R15-2P (with measurements).svg">
  <defs
     id="defs7160">
    <clipPath
       clipPathUnits="userSpaceOnUse"
       id="clipPath4213">
      <path
         inkscape:connector-curvature="0"
         d="M 62.625,45 576,45 l 0,693 -513.375,0 0,-693 z"
         id="path4215" />
    </clipPath>
    <clipPath
       clipPathUnits="userSpaceOnUse"
       id="clipPath4197">
      <path
         inkscape:connector-curvature="0"
         d="M 62.625,45 576,45 l 0,693 -513.375,0 0,-693 z"
         id="path4199" />
    </clipPath>
    <clipPath
       clipPathUnits="userSpaceOnUse"
       id="clipPath4173">
      <path
         inkscape:connector-curvature="0"
         d="M 62.625,45 576,45 l 0,693 -513.375,0 0,-693 z"
         id="path4175" />
    </clipPath>
  </defs>
  <sodipodi:namedview
     id="base"
     pagecolor="#ffffff"
     bordercolor="#666666"
     borderopacity="1.0"
     inkscape:pageopacity="0.0"
     inkscape:pageshadow="2"
     inkscape:zoom="0.7"
     inkscape:cx="50.418436"
     inkscape:cy="-65.927553"
     inkscape:document-units="px"
     inkscape:current-layer="layer1"
     showgrid="false"
     inkscape:window-width="469"
     inkscape:window-height="425"
     inkscape:window-x="175"
     inkscape:window-y="175"
     inkscape:window-maximized="0"
     fit-margin-top="0"
     fit-margin-left="0"
     fit-margin-right="0"
     fit-margin-bottom="0" />
  <metadata
     id="metadata7163">
    <rdf:RDF>
      <cc:Work
         rdf:about="">
        <dc:format>image/svg+xml</dc:format>
        <dc:type
           rdf:resource="http://purl.org/dc/dcmitype/StillImage" />
        <dc:title></dc:title>
      </cc:Work>
    </rdf:RDF>
  </metadata>
  <g
     inkscape:label="Layer 1"
     inkscape:groupmode="layer"
     id="layer1"
     transform="translate(-162.30002,-139.55835)">
    <g
       id="g4147"
       transform="matrix(1.25,0,0,-1.25,162.61252,207.36585)">
      <path
         d="m 0,0 0,26.998 27,0 0,26.998 27,0 0,-26.998 27,0 L 81,0 0,0 z"
         style="fill:#ffffff;fill-opacity:1;fill-rule:nonzero;stroke:none"
         id="path4149"
         inkscape:connector-curvature="0" />
    </g>
    <g
       id="g4151"
       transform="matrix(1.25,0,0,-1.25,162.61252,207.36585)">
      <path
         d="m 0,0 0,26.998 27,0 0,26.998 27,0 0,-26.998 27,0 L 81,0 0,0 z"
         style="fill:none;stroke:#231f20;stroke-width:0.5;stroke-linecap:butt;stroke-linejoin:miter;stroke-miterlimit:4;stroke-opacity:1;stroke-dasharray:none"
         id="path4153"
         inkscape:connector-curvature="0" />
    </g>
    <g
       id="g4155"
       transform="matrix(1.25,0,0,-1.25,220.01252,160.2446)">
      <path
         d="m 0,0 c 0,1.62 -0.346,2.487 -1.562,3.586 0.695,1.043 0.927,1.737 0.927,2.721 0,2.777 -2.256,5.035 -5.033,5.035 -2.143,0 -3.992,-1.275 -4.859,-3.357 l 2.429,-0.928 c 0.579,1.1 1.389,1.623 2.487,1.623 1.332,0 2.371,-0.928 2.371,-2.201 0,-1.041 -0.576,-1.619 -1.619,-1.619 l -0.522,0 -0.056,0 -0.059,0 0,0.057 0,-2.661 0.289,0 c 1.217,-0.058 1.275,-0.058 1.678,-0.347 0.582,-0.407 0.926,-1.213 0.926,-2.084 0,-1.676 -1.213,-2.893 -2.95,-2.893 -1.562,0 -2.662,0.867 -3.066,2.49 l -2.545,-0.752 c 0.693,-2.662 2.834,-4.408 5.496,-4.408 C -2.312,-5.738 0,-3.357 0,0"
         style="fill:#231f20;fill-opacity:1;fill-rule:evenodd;stroke:none"
         id="path4157"
         inkscape:connector-curvature="0" />
    </g>
    <g
       id="g4159"
       transform="matrix(1.25,0,0,-1.25,250.37627,193.66973)">
      <path
         d="m 0,0 c 0,4.713 -5.637,3.239 -5.805,5.469 -0.086,1.096 0.967,1.432 1.85,1.391 1.348,-0.041 1.768,-1.051 1.768,-1.051 l 1.683,0.504 c -0.59,1.47 -1.726,2.439 -3.408,2.439 -2.147,0 -3.744,-0.883 -3.744,-3.24 0,-1.977 1.597,-2.693 2.314,-2.986 1.557,-0.633 3.408,-0.885 3.408,-2.485 0,-1.009 -0.755,-1.765 -1.851,-1.765 -1.137,0 -2.063,0.631 -2.567,1.765 l -1.81,-0.674 c 0.801,-1.81 2.314,-3.037 4.377,-3.037 1.01,0 1.937,0.344 2.607,0.934 C -0.42,-2.062 0,-1.093 0,0 m -9.596,-3.451 -3.955,7.322 3.703,4.672 -2.441,0 -3.787,-4.758 0,4.758 -1.893,0 0,-11.994 1.893,0 0,4.123 1.262,1.557 3.031,-5.68 2.187,0 z m -11.238,2.44 -1.81,0.673 c -0.463,-0.968 -1.053,-1.386 -1.852,-1.386 -0.842,0 -1.389,0.295 -1.809,0.923 -0.464,0.76 -0.757,2.065 -0.757,3.366 0,1.011 0.168,2.062 0.462,2.779 0.42,1.051 1.051,1.475 2.02,1.475 0.924,0 1.305,-0.254 1.978,-1.264 l 1.768,0.758 c -0.801,1.683 -1.937,2.439 -3.746,2.439 -1.348,0 -2.357,-0.463 -3.07,-1.345 -0.844,-1.051 -1.348,-2.946 -1.348,-4.842 0,-1.514 0.336,-3.03 0.885,-4.08 0.758,-1.475 1.892,-2.155 3.66,-2.155 1.725,0 2.902,0.893 3.619,2.659 m -13.848,2.863 -2.4,0 1.221,3.367 1.179,-3.367 z m 3.872,-5.303 -4.124,11.994 -1.892,0 -4.126,-11.994 2.018,0 1.178,3.367 3.748,0 1.178,-3.367 2.02,0 z m -13.47,8.627 c 0,-0.504 -0.295,-1.01 -0.756,-1.264 -0.296,-0.168 -0.507,-0.211 -1.093,-0.211 l -2.274,0 0,2.95 2.274,0 c 0.629,0 0.797,-0.045 1.093,-0.213 0.461,-0.252 0.756,-0.756 0.756,-1.262 m 2.147,-8.627 -2.104,5.598 c 1.094,0.504 1.85,1.765 1.85,3.029 0,1.219 -0.756,2.481 -1.809,2.986 -0.588,0.295 -1.22,0.381 -2.146,0.381 l -3.955,0 0,-11.994 1.894,0 0,5.219 2.274,0 1.933,-5.219 2.063,0 z m -10.186,10.311 0,1.683 -7.406,0 0,-1.683 2.734,0 0,-10.311 1.895,0 0,10.311 2.777,0 z"
         style="fill:#231f20;fill-opacity:1;fill-rule:evenodd;stroke:none"
         id="path4161"
         inkscape:connector-curvature="0" />
    </g>
  </g>
</svg>
