<?xml version="1.0" encoding="UTF-8" standalone="no"?>
<!-- Created with Inkscape (http://www.inkscape.org/) -->

<svg
   xmlns:dc="http://purl.org/dc/elements/1.1/"
   xmlns:cc="http://creativecommons.org/ns#"
   xmlns:rdf="http://www.w3.org/1999/02/22-rdf-syntax-ns#"
   xmlns:svg="http://www.w3.org/2000/svg"
   xmlns="http://www.w3.org/2000/svg"
   xmlns:sodipodi="http://sodipodi.sourceforge.net/DTD/sodipodi-0.dtd"
   xmlns:inkscape="http://www.inkscape.org/namespaces/inkscape"
   width="90.624123"
   height="113.125"
   id="svg7816"
   version="1.1"
   inkscape:version="0.48.2 r9819"
   sodipodi:docname="New document 44">
  <defs
     id="defs7818">
    <clipPath
       clipPathUnits="userSpaceOnUse"
       id="clipPath3689">
      <path
         inkscape:connector-curvature="0"
         d="M 62.625,45 576,45 l 0,693 -513.375,0 0,-693 z"
         id="path3691" />
    </clipPath>
    <clipPath
       clipPathUnits="userSpaceOnUse"
       id="clipPath3677">
      <path
         inkscape:connector-curvature="0"
         d="m 66.881,78.15 504.778,0 0,659.85 -504.778,0 0,-659.85 z"
         id="path3679" />
    </clipPath>
    <clipPath
       clipPathUnits="userSpaceOnUse"
       id="clipPath3665">
      <path
         inkscape:connector-curvature="0"
         d="M 62.625,45 576,45 l 0,693 -513.375,0 0,-693 z"
         id="path3667" />
    </clipPath>
  </defs>
  <sodipodi:namedview
     id="base"
     pagecolor="#ffffff"
     bordercolor="#666666"
     borderopacity="1.0"
     inkscape:pageopacity="0.0"
     inkscape:pageshadow="2"
     inkscape:zoom="0.35"
     inkscape:cx="-328.25937"
     inkscape:cy="105.13393"
     inkscape:document-units="px"
     inkscape:current-layer="layer1"
     showgrid="false"
     fit-margin-top="0"
     fit-margin-left="0"
     fit-margin-right="0"
     fit-margin-bottom="0"
     inkscape:window-width="469"
     inkscape:window-height="425"
     inkscape:window-x="50"
     inkscape:window-y="50"
     inkscape:window-maximized="0" />
  <metadata
     id="metadata7821">
    <rdf:RDF>
      <cc:Work
         rdf:about="">
        <dc:format>image/svg+xml</dc:format>
        <dc:type
           rdf:resource="http://purl.org/dc/dcmitype/StillImage" />
        <dc:title></dc:title>
      </cc:Work>
    </rdf:RDF>
  </metadata>
  <g
     inkscape:label="Layer 1"
     inkscape:groupmode="layer"
     id="layer1"
     transform="translate(-703.25937,-524.37111)">
    <g
       transform="matrix(1.25,0,0,-1.25,619.65812,898.05174)"
       clip-path="url(#clipPath3665)"
       id="g3663">
      <g
         transform="translate(71.6303,298.6945)"
         id="g3669">
        <path
           inkscape:connector-curvature="0"
           id="path3671"
           style="fill:#ffffff;fill-opacity:1;fill-rule:nonzero;stroke:none"
           d="m 0,0 63,0 c 2.479,0 4.5,-2.021 4.5,-4.5 l 0,-81 c 0,-2.478 -2.021,-4.5 -4.5,-4.5 l -63,0 c -2.479,0 -4.5,2.022 -4.5,4.5 l 0,81 C -4.5,-2.052 -2.447,0 0,0" />
      </g>
    </g>
    <g
       transform="matrix(1.25,0,0,-1.25,619.65812,898.05174)"
       clip-path="url(#clipPath3677)"
       id="g3675">
      <g
         transform="translate(71.6303,298.6945)"
         id="g3681">
        <path
           inkscape:connector-curvature="0"
           id="path3683"
           style="fill:none;stroke:#231f20;stroke-width:0.5;stroke-linecap:butt;stroke-linejoin:miter;stroke-miterlimit:4;stroke-opacity:1;stroke-dasharray:none"
           d="m 0,0 63,0 c 2.479,0 4.5,-2.021 4.5,-4.5 l 0,-81 c 0,-2.478 -2.021,-4.5 -4.5,-4.5 l -63,0 c -2.479,0 -4.5,2.022 -4.5,4.5 l 0,81 C -4.5,-2.052 -2.447,0 0,0" />
      </g>
    </g>
    <g
       transform="matrix(1.25,0,0,-1.25,619.65812,898.05174)"
       clip-path="url(#clipPath3689)"
       id="g3687">
      <g
         transform="translate(71.645,297.5695)"
         id="g3693">
        <path
           inkscape:connector-curvature="0"
           id="path3695"
           style="fill:#231f20;fill-opacity:1;fill-rule:evenodd;stroke:none"
           d="m 0,0 62.972,0 c 1.854,-0.004 3.382,-1.537 3.388,-3.388 l 0,-80.973 c -0.006,-1.855 -1.534,-3.383 -3.388,-3.389 L 0,-87.75 c -1.853,0.006 -3.387,1.534 -3.39,3.389 l 0,80.973 C -3.387,-1.537 -1.853,-0.003 0,0" />
      </g>
      <g
         transform="translate(136.1304,266.4445)"
         id="g3697">
        <path
           inkscape:connector-curvature="0"
           id="path3699"
           style="fill:#ffffff;fill-opacity:1;fill-rule:evenodd;stroke:none"
           d="m 0,0 0,-53.213 c 0.015,-0.843 -0.693,-1.552 -1.538,-1.537 l -62.924,0 c -0.847,-0.015 -1.551,0.694 -1.538,1.537 L -66,0 0,0" />
      </g>
      <g
         transform="translate(122.3521,269.4505)"
         id="g3701">
        <path
           inkscape:connector-curvature="0"
           id="path3703"
           style="fill:#ffffff;fill-opacity:1;fill-rule:evenodd;stroke:none"
           d="m 0,0 0,1.703 -5.587,0 0,2.209 3.156,0 0,1.737 -3.156,0 0,1.64 5.461,0 0,1.705 -7.165,0 L -7.291,0 0,0 z m -9.784,0 0,8.994 -1.736,0 0,-6.281 -5.051,6.281 -1.673,0 0,-8.994 1.704,0 0,6.217 5.051,-6.217 1.705,0 z m -13.699,3.692 -2.967,0 1.483,3.125 1.484,-3.125 z M -19.854,0 l -4.261,8.994 -1.704,0 L -30.08,0 l 1.893,0 0.947,1.955 4.578,0 0.914,-1.955 1.894,0 z m -10.889,0 0,1.703 -6.028,0 0,7.291 -1.706,0 0,-8.994 7.734,0 z" />
      </g>
      <g
         transform="translate(122.2359,225.9444)"
         id="g3705">
        <path
           inkscape:connector-curvature="0"
           id="path3707"
           style="fill:#231f20;fill-opacity:1;fill-rule:evenodd;stroke:none"
           d="M 0,0 -2.178,0 -5.113,-3.693 -8.049,0 l -2.178,0 4.262,-5.365 0,-3.629 1.703,0 0,3.629 L 0,0 z m -8.049,-8.994 0,1.703 -6.028,0 0,7.291 -1.704,0 0,-8.994 7.732,0 z m -10.226,0 0,8.994 -1.736,0 0,-6.281 -5.051,6.281 -1.672,0 0,-8.994 1.704,0 0,6.217 5.051,-6.217 1.704,0 z m -12.279,4.543 c 0,-1.64 -1.357,-2.967 -2.998,-2.967 -1.641,0 -2.999,1.327 -2.999,2.967 0,1.611 1.358,2.873 2.999,2.873 1.641,0 2.998,-1.295 2.998,-2.904 l 0,0.031 z m 1.705,0 c 0,2.494 -2.21,4.61 -4.703,4.61 -2.652,0 -4.703,-2.02 -4.703,-4.641 0,-2.557 2.147,-4.676 4.703,-4.676 2.557,0 4.703,2.119 4.703,4.707" />
      </g>
      <g
         transform="translate(115.0229,238.8294)"
         id="g3709">
        <path
           inkscape:connector-curvature="0"
           id="path3711"
           style="fill:#231f20;fill-opacity:1;fill-rule:evenodd;stroke:none"
           d="m 0,0 -0.021,2.543 -0.39,0.551 0.475,3.974 -1.453,11.153 c -0.094,0.734 -0.274,1.467 -0.726,2.07 -0.26,0.348 -0.591,0.656 -0.965,0.883 -0.293,0.176 -0.618,0.275 -0.963,0.275 l -6.882,0 c 0.591,0.231 0.989,0.651 0.989,1.131 0,0.123 -0.027,0.242 -0.076,0.356 l 4.762,0 0,-0.385 c 0,-0.213 0.176,-0.389 0.391,-0.389 l 0.181,0 c 0.215,0 0.392,0.176 0.392,0.389 l 0,0.385 0.01,0 0,1.025 -15.235,0 0,-1.025 0.005,0 0,-0.385 c 0,-0.213 0.177,-0.389 0.392,-0.389 l 0.18,0 c 0.216,0 0.392,0.176 0.392,0.389 l 0,0.385 4.662,0 c -0.05,-0.114 -0.076,-0.233 -0.076,-0.356 0,-0.48 0.398,-0.9 0.988,-1.131 l -5.179,0 c -0.607,0 -1.235,-0.002 -1.825,-0.168 -0.593,-0.168 -1.116,-0.502 -1.55,-0.931 -0.467,-0.459 -0.814,-1.033 -0.899,-1.688 L -23.845,7.565 -23.341,3.039 -23.675,2.568 -23.686,0 l 4.708,-0.002 -0.418,-0.703 -1.458,0 -0.778,-1.482 1.428,0 -0.627,-1.104 -1.428,0 -0.862,-1.607 1.438,0 -0.738,-1.356 -1.437,0 -1.064,-1.814 1.527,0 -0.538,-0.959 1.419,-0.012 0.585,0.971 19.97,0 0.545,-0.971 1.461,0.012 -0.497,0.959 1.361,0 -0.94,1.814 -1.437,0 -0.739,1.356 1.413,0 -0.821,1.607 -1.525,0 -0.544,1.104 1.44,0 -0.856,1.482 -1.393,0 -0.45,0.703 L 0.066,0 0,0 z m -6.294,-0.012 0.378,-0.693 -12.054,0 0.41,0.693 11.266,0 z" />
      </g>
      <g
         transform="translate(93.5484,240.8974)"
         id="g3713">
        <path
           inkscape:connector-curvature="0"
           id="path3715"
           style="fill:#ffffff;fill-opacity:1;fill-rule:evenodd;stroke:none"
           d="m 0,0 0.001,0.694 19.36,0 L 19.361,0 0,0 z" />
      </g>
      <path
         inkscape:connector-curvature="0"
         id="path3717"
         style="fill:#ffffff;fill-opacity:1;fill-rule:evenodd;stroke:none"
         d="m 97.216,259.675 11.691,0 0,-2.666 -11.691,0 0,2.666 z" />
      <g
         transform="translate(103.938,256.3125)"
         id="g3719">
        <path
           inkscape:connector-curvature="0"
           id="path3721"
           style="fill:#ffffff;fill-opacity:1;fill-rule:evenodd;stroke:none"
           d="M 0,0 8.916,-0.583 9.665,-7.834 0,-7.834 0,0 z" />
      </g>
      <g
         transform="translate(92.687,248.4785)"
         id="g3723">
        <path
           inkscape:connector-curvature="0"
           id="path3725"
           style="fill:#ffffff;fill-opacity:1;fill-rule:evenodd;stroke:none"
           d="M 0,0 0.833,7.168 9.5,7.863 9.5,0 0,0 z" />
      </g>
      <g
         transform="translate(95.3267,243.5894)"
         id="g3727">
        <path
           inkscape:connector-curvature="0"
           id="path3729"
           style="fill:#ffffff;fill-opacity:1;fill-rule:evenodd;stroke:none"
           d="m 0,0 c -0.129,-0.233 -0.301,-0.412 -0.557,-0.51 -0.451,-0.176 -0.959,-0.017 -1.234,0.379 -0.238,0.348 -0.238,0.813 0.002,1.158 0.271,0.393 0.785,0.551 1.232,0.379 C -0.3,1.31 -0.129,1.123 0,0.89 0.127,1.125 0.297,1.31 0.553,1.41 0.995,1.578 1.514,1.414 1.783,1.029 2.027,0.682 2.028,0.223 1.789,-0.127 1.521,-0.52 0.998,-0.686 0.553,-0.516 0.297,-0.418 0.129,-0.233 0,0" />
      </g>
      <g
         transform="translate(110.937,243.6185)"
         id="g3731">
        <path
           inkscape:connector-curvature="0"
           id="path3733"
           style="fill:#ffffff;fill-opacity:1;fill-rule:evenodd;stroke:none"
           d="m 0,0 c -0.126,-0.232 -0.298,-0.426 -0.555,-0.521 -0.439,-0.164 -0.962,-0.016 -1.228,0.373 -0.242,0.353 -0.246,0.804 -0.01,1.162 0.268,0.4 0.791,0.56 1.238,0.385 C -0.291,1.297 -0.135,1.123 0,0.889 0.127,1.119 0.299,1.303 0.551,1.403 0.995,1.576 1.521,1.406 1.787,1.014 1.986,0.721 2.027,0.363 1.883,0.039 1.678,-0.426 1.21,-0.648 0.718,-0.568 0.377,-0.512 0.154,-0.291 0,0" />
      </g>
      <g
         transform="translate(103.1021,261.5955)"
         id="g3735">
        <path
           inkscape:connector-curvature="0"
           id="path3737"
           style="fill:#ffffff;fill-opacity:1;fill-rule:evenodd;stroke:none"
           d="M 0,0 C 0.322,0 0.584,-0.155 0.584,-0.346 0.584,-0.535 0.322,-0.69 0,-0.69 c -0.322,0 -0.584,0.155 -0.584,0.344 C -0.584,-0.155 -0.322,0 0,0" />
      </g>
      <g
         transform="translate(111.3481,233.8534)"
         id="g3739">
        <path
           inkscape:connector-curvature="0"
           id="path3741"
           style="fill:#ffffff;fill-opacity:1;fill-rule:evenodd;stroke:none"
           d="m 0,0 -16.537,0 -0.734,-1.364 18.005,0 L 0,0 z" />
      </g>
      <g
         transform="translate(109.8784,236.5794)"
         id="g3743">
        <path
           inkscape:connector-curvature="0"
           id="path3745"
           style="fill:#ffffff;fill-opacity:1;fill-rule:evenodd;stroke:none"
           d="m 0,0 -13.599,0 -0.623,-1.068 14.804,0 L 0,0 z" />
      </g>
      <g
         transform="translate(120.5894,291.6614)"
         id="g3747">
        <path
           inkscape:connector-curvature="0"
           id="path3749"
           style="fill:#ffffff;fill-opacity:1;fill-rule:evenodd;stroke:none"
           d="m 0,0 0,1.704 -7.733,0 0,-1.704 3.093,0 0,-7.291 1.704,0 0,7.291 L 0,0 z m -8.933,0 0,1.704 -7.291,0 0,-8.995 1.704,0 0,3.914 3.346,0 0,1.736 -3.346,0 0,1.641 5.587,0 z m -9.406,-7.291 0,1.705 -5.586,0 0,2.209 3.156,0 0,1.736 -3.156,0 0,1.641 5.46,0 0,1.704 -7.165,0 0,-8.995 7.291,0 z m -8.869,0 0,1.705 -6.028,0 0,7.29 -1.704,0 0,-8.995 7.732,0 z" />
      </g>
    </g>
  </g>
</svg>
