<?xml version="1.0" encoding="UTF-8" standalone="no"?>
<!-- Created with Inkscape (http://www.inkscape.org/) -->

<svg
   xmlns:dc="http://purl.org/dc/elements/1.1/"
   xmlns:cc="http://creativecommons.org/ns#"
   xmlns:rdf="http://www.w3.org/1999/02/22-rdf-syntax-ns#"
   xmlns:svg="http://www.w3.org/2000/svg"
   xmlns="http://www.w3.org/2000/svg"
   xmlns:sodipodi="http://sodipodi.sourceforge.net/DTD/sodipodi-0.dtd"
   xmlns:inkscape="http://www.inkscape.org/namespaces/inkscape"
   width="90.625"
   height="90.625"
   id="svg8598"
   version="1.1"
   inkscape:version="0.48.2 r9819"
   sodipodi:docname="New document 59">
  <defs
     id="defs8600">
    <clipPath
       clipPathUnits="userSpaceOnUse"
       id="clipPath4089">
      <path
         inkscape:connector-curvature="0"
         d="M 62.625,45 576,45 l 0,693 -513.375,0 0,-693 z"
         id="path4091" />
    </clipPath>
  </defs>
  <sodipodi:namedview
     id="base"
     pagecolor="#ffffff"
     bordercolor="#666666"
     borderopacity="1.0"
     inkscape:pageopacity="0.0"
     inkscape:pageshadow="2"
     inkscape:zoom="0.35"
     inkscape:cx="45.3125"
     inkscape:cy="45.312497"
     inkscape:document-units="px"
     inkscape:current-layer="layer1"
     showgrid="false"
     fit-margin-top="0"
     fit-margin-left="0"
     fit-margin-right="0"
     fit-margin-bottom="0"
     inkscape:window-width="469"
     inkscape:window-height="425"
     inkscape:window-x="50"
     inkscape:window-y="50"
     inkscape:window-maximized="0" />
  <metadata
     id="metadata8603">
    <rdf:RDF>
      <cc:Work
         rdf:about="">
        <dc:format>image/svg+xml</dc:format>
        <dc:type
           rdf:resource="http://purl.org/dc/dcmitype/StillImage" />
        <dc:title></dc:title>
      </cc:Work>
    </rdf:RDF>
  </metadata>
  <g
     inkscape:label="Layer 1"
     inkscape:groupmode="layer"
     id="layer1"
     transform="translate(-329.6875,-487.04968)">
    <g
       transform="matrix(1.25,0,0,-1.25,-68.50425,693.77268)"
       id="g4085">
      <g
         id="g4087"
         clip-path="url(#clipPath4089)">
        <g
           id="g4093"
           transform="translate(323.3034,165.1284)">
          <path
             inkscape:connector-curvature="0"
             d="m 0,0 63,0 c 2.478,0 4.5,-2.022 4.5,-4.5 l 0,-63 c 0,-2.479 -2.022,-4.5 -4.5,-4.5 l -63,0 c -2.479,0 -4.5,2.021 -4.5,4.5 l 0,63 C -4.5,-2.053 -2.447,0 0,0"
             style="fill:#ffffff;fill-opacity:1;fill-rule:nonzero;stroke:#231f20;stroke-width:0.5;stroke-linecap:butt;stroke-linejoin:miter;stroke-miterlimit:4;stroke-opacity:1;stroke-dasharray:none"
             id="path4095" />
        </g>
        <g
           id="g4097"
           transform="translate(323.3174,164.0034)">
          <path
             inkscape:connector-curvature="0"
             d="m 0,0 62.972,0 c 1.856,-0.004 3.383,-1.537 3.389,-3.389 l 0,-62.972 c -0.006,-1.854 -1.533,-3.381 -3.389,-3.389 L 0,-69.75 c -1.852,0.008 -3.386,1.535 -3.389,3.389 l 0,62.972 C -3.386,-1.537 -1.852,-0.002 0,0"
             style="fill:#231f20;fill-opacity:1;fill-rule:evenodd;stroke:none"
             id="path4099" />
        </g>
        <g
           id="g4101"
           transform="translate(323.3424,162.1284)">
          <path
             inkscape:connector-curvature="0"
             d="m 0,0 62.924,0 c 0.843,0.012 1.552,-0.691 1.537,-1.537 l 0,-62.924 C 64.476,-65.307 63.767,-66.014 62.924,-66 L 0,-66 c -0.848,-0.014 -1.551,0.693 -1.539,1.539 l 0,62.924 C -1.551,-0.691 -0.848,0.012 0,0"
             style="fill:#ffffff;fill-opacity:1;fill-rule:evenodd;stroke:none"
             id="path4103" />
        </g>
        <g
           id="g4105"
           transform="translate(370.7253,154.6405)">
          <path
             inkscape:connector-curvature="0"
             d="M 0,0 C 0,-0.821 -0.295,-1.368 -0.926,-1.703 -1.18,-1.85 -1.473,-1.936 -1.789,-1.936 l -0.842,0 0,3.852 0.842,0 c 0.316,0 0.631,-0.084 0.904,-0.233 C -0.295,1.347 0,0.8 0,0 m 1.072,0 c 0,1.179 -0.504,2.084 -1.43,2.609 -0.443,0.254 -0.925,0.379 -1.431,0.379 l -1.936,0 0,-5.996 1.936,0 c 0.484,0 0.988,0.127 1.41,0.357 C 0.568,-2.125 1.072,-1.2 1.072,0 m -5.996,-3.008 0,1.072 -3.389,0 0,1.643 1.789,0 0,1.093 -1.789,0 0,1.116 3.283,0 0,1.072 -4.378,0 0,-5.996 4.484,0 z M -11.848,0 c 0,-0.821 -0.295,-1.368 -0.928,-1.703 -0.252,-0.147 -0.547,-0.233 -0.861,-0.233 l -0.842,0 0,3.852 0.842,0 c 0.314,0 0.631,-0.084 0.904,-0.233 0.59,-0.336 0.885,-0.883 0.885,-1.683 m 1.072,0 c 0,1.179 -0.506,2.084 -1.431,2.609 -0.442,0.254 -0.926,0.379 -1.43,0.379 l -1.936,0 0,-5.996 1.936,0 c 0.484,0 0.988,0.127 1.41,0.357 0.945,0.526 1.451,1.451 1.451,2.651 m -6.334,2.988 -1.074,0 0,-5.996 1.074,0 0,5.996 z m -2.062,0 -1.158,0 -1.641,-4.377 -1.641,4.377 -1.158,0 2.209,-5.996 1.158,0 2.231,5.996 z m -6.586,0 -1.074,0 0,-5.996 1.074,0 0,5.996 z M -29.274,0 c 0,-0.821 -0.295,-1.368 -0.925,-1.703 -0.252,-0.147 -0.547,-0.233 -0.864,-0.233 l -0.842,0 0,3.852 0.842,0 c 0.317,0 0.631,-0.084 0.906,-0.233 C -29.569,1.347 -29.274,0.8 -29.274,0 m 1.075,0 c 0,1.179 -0.506,2.084 -1.432,2.609 -0.442,0.254 -0.926,0.379 -1.432,0.379 l -1.935,0 0,-5.996 1.935,0 c 0.485,0 0.99,0.127 1.41,0.357 0.948,0.526 1.454,1.451 1.454,2.651"
             style="fill:#231f20;fill-opacity:1;fill-rule:evenodd;stroke:none"
             id="path4107" />
        </g>
        <g
           id="g4109"
           transform="translate(374.5474,106.6284)">
          <path
             inkscape:connector-curvature="0"
             d="M 0,0 -1.326,0 -3.051,-2.441 -4.797,0 l -1.326,0 2.525,-3.555 0,-2.441 1.073,0 0,2.441 L 0,0 z m -7.955,-3.514 -1.684,0 0.842,2.02 0.842,-2.02 z M -5.744,-5.996 -8.248,0 l -1.096,0 -2.525,-5.996 1.18,0 0.587,1.41 2.61,0 0.59,-1.41 1.158,0 z M -12.332,0 -13.426,0 -14.037,-3.871 -14.963,0 -16.035,0 -16.92,-3.871 -17.572,0 l -1.116,0 1.094,-5.996 1.137,0 0.947,4.017 0.969,-4.017 1.137,0 1.072,5.996 z m -7.365,-5.996 0,5.996 -1.073,0 0,-2.315 -2.695,0 0,2.315 -1.072,0 0,-5.996 1.072,0 0,2.609 2.695,0.022 0,-2.631 1.073,0 z m -8.313,2.988 0,-1.074 0.989,0 c -0.147,-0.547 -0.672,-0.947 -1.262,-0.947 -1.115,0 -1.41,1.074 -1.41,2.041 0,1.179 0.568,2.021 1.41,2.021 0.525,0 0.904,-0.295 1.137,-0.801 l 1.093,0.379 c -0.42,0.926 -1.158,1.494 -2.23,1.494 -1.494,0 -2.485,-1.261 -2.485,-3.093 0,-1.557 0.717,-3.118 2.485,-3.118 1.326,0 2.379,1.014 2.379,2.319 l 0,0.779 -2.106,0 z M -32.113,0 l -1.075,0 0,-5.996 1.075,0 0,5.996 z m -2.631,-5.996 0,5.996 -1.074,0 0,-2.315 -2.694,0 0,2.315 -1.072,0 0,-5.996 1.072,0 0,2.609 2.694,0.022 0,-2.631 1.074,0 z"
             style="fill:#231f20;fill-opacity:1;fill-rule:evenodd;stroke:none"
             id="path4111" />
        </g>
        <path
           inkscape:connector-curvature="0"
           d="m 331.274,133.938 -2.036,0 0,-2.384 2.036,0 0,2.384 z m 4.502,0 -2.034,0 0,-2.384 2.034,0 0,2.384 z m 4.501,0 -2.033,0 0,-2.384 2.033,0 0,2.384 z m 4.502,0 -2.033,0 0,-2.384 2.033,0 0,2.384 z m 4.502,0 -2.033,0 0,-2.384 2.033,0 0,2.384 z m 3.258,-2.392 -0.789,0.008 0,2.384 0.789,-10e-4 0,-2.391 z m -21.265,-5.418 -2.036,0 0,-2.383 2.036,0 0,2.383 z m 4.502,0 -2.034,0 0,-2.383 2.034,0 0,2.383 z m 4.501,0 -2.033,0 0,-2.383 2.033,0 0,2.383 z m 4.502,0 -2.033,0 0,-2.383 2.033,0 0,2.383 z m 4.502,0 -2.033,0 0,-2.383 2.033,0 0,2.383 z m 3.258,-2.379 -0.789,-0.004 0,2.383 0.789,0.014 0,-2.393 z m 25.877,10.189 2.035,0 0,-2.384 -2.035,0 0,2.384 z m -4.502,0 2.033,0 0,-2.384 -2.033,0 0,2.384 z m -4.502,0 2.033,0 0,-2.384 -2.033,0 0,2.384 z m -4.502,0 2.033,0 0,-2.384 -2.033,0 0,2.384 z m -4.502,0 2.034,0 0,-2.384 -2.034,0 0,2.384 z m -3.293,-2.392 0.825,0.008 0,2.384 -0.825,-10e-4 0,-2.391 z m 21.301,-5.418 2.035,0 0,-2.383 -2.035,0 0,2.383 z m -4.502,0 2.033,0 0,-2.383 -2.033,0 0,2.383 z m -4.502,0 2.033,0 0,-2.383 -2.033,0 0,2.383 z m -4.502,0 2.033,0 0,-2.383 -2.033,0 0,2.383 z m -4.502,0 2.034,0 0,-2.383 -2.034,0 0,2.383 z m -3.293,-2.379 0.825,-0.004 0,2.383 -0.825,0.014 0,-2.393 z m 0,3.484 0.825,0.009 0,0.654 2.468,0 0,-0.654 2.034,0 0,0.654 2.468,0 0,-0.654 2.033,0 0,0.654 2.469,0 0,-0.654 2.033,0 0,0.654 2.469,0 0,-0.654 2.033,0 0,0.654 2.469,0 0,-0.654 2.035,0 0,0.654 2.469,0 0,-0.654 0.557,0 0,-1.114 -0.557,0 0,-2.383 0.557,0 0,-1.111 -0.557,0 0,-0.656 -2.469,0 0,0.656 -2.035,0 0,-0.656 -2.469,0 0,0.656 -2.033,0 0,-0.656 -2.469,0 0,0.656 -2.033,0 0,-0.656 -2.469,0 0,0.656 -2.033,0 0,-0.656 -2.468,0 0,0.656 -2.034,0 0,-0.656 -2.468,0 0,0.656 -0.825,-0.008 -0.013,-5.84 16.656,0 -0.758,2.645 c -0.101,0.365 -0.144,0.636 0.049,0.918 0.273,0.404 0.826,0.509 1.23,0.234 l 9.163,-6.367 -9.163,-5.783 c -0.404,-0.276 -0.957,-0.17 -1.23,0.234 -0.184,0.27 -0.15,0.549 -0.066,0.881 l 0.834,2.683 -13.901,0 c -1.455,0 -2.814,-1.32 -2.814,-2.927 l -4.559,0 0,2.927 -12.719,0 0,4.551 12.719,0.004 -0.004,5.84 -0.789,0.008 0,-0.656 -2.469,0 0,0.656 -2.033,0 0,-0.656 -2.469,0 0,0.656 -2.033,0 0,-0.656 -2.469,0 0,0.656 -2.033,0 0,-0.656 -2.468,0 0,0.656 -2.034,0 0,-0.656 -2.468,0 0,0.656 -2.036,0 0,-0.656 -2.468,0 0,0.656 -0.557,0 0,1.111 0.557,0 0,2.383 -0.557,0 0,1.114 0.557,0 0,0.654 2.468,0 0,-0.654 2.036,0 0,0.654 2.468,0 0,-0.654 2.034,0 0,0.654 2.468,0 0,-0.654 2.033,0 0,0.654 2.469,0 0,-0.654 2.033,0 0,0.654 2.469,0 0,-0.654 2.033,0 0,0.654 2.469,0 0,-0.654 0.789,-0.009 0,3.219 -0.754,0 0,-0.664 -2.504,0 0,0.654 -2.033,0 0,-0.654 -2.469,0 0,0.654 -2.033,0 0,-0.654 -2.469,0 0,0.654 -2.033,0 0,-0.654 -2.468,0 0,0.654 -2.034,0 0,-0.654 -2.468,0 0,0.654 -2.036,0 0,-0.654 -2.468,0 0,0.654 -0.557,0 0,1.112 0.557,0 0,2.384 -0.557,0 0,1.112 0.557,0 0,0.656 2.468,0 0,-0.656 2.036,0 0,0.656 2.468,0 0,-0.656 2.034,0 0,0.656 2.468,0 0,-0.656 2.033,0 0,0.656 2.469,0 0,-0.656 2.033,0 0,0.656 2.469,0 0,-0.656 2.033,0 0,0.656 2.469,0 0,-0.656 0.789,0.01 0.004,2.99 c -0.035,1.596 -1.529,2.781 -3.156,2.781 -4.137,0 -9.047,0.004 -13.533,0 l 0.759,-2.635 c 0.084,-0.331 0.118,-0.611 -0.066,-0.881 -0.273,-0.404 -0.826,-0.509 -1.23,-0.234 l -9.163,6.121 9.163,6.029 c 0.404,0.274 0.957,0.17 1.23,-0.234 0.193,-0.283 0.15,-0.553 0.049,-0.92 l -0.791,-2.584 c 11.687,0.006 22.342,0 34.008,0 l 0,-4.619 -12.711,0 0.013,-5.814 0.825,-0.01 0,0.656 2.468,0 0,-0.656 2.034,0 0,0.656 2.468,0 0,-0.656 2.033,0 0,0.656 2.469,0 0,-0.656 2.033,0 0,0.656 2.469,0 0,-0.656 2.033,0 0,0.656 2.469,0 0,-0.656 2.035,0 0,0.656 2.469,0 0,-0.656 0.557,0 0,-1.112 -0.557,0 0,-2.384 0.557,0 0,-1.112 -0.557,0 0,-0.654 -2.469,0 0,0.654 -2.035,0 0,-0.654 -2.469,0 0,0.654 -2.033,0 0,-0.654 -2.469,0 0,0.654 -2.033,0 0,-0.654 -2.469,0 0,0.654 -2.033,0 0,-0.654 -2.468,0 0,0.654 -2.034,0 0,-0.654 -2.468,0 0,0.664 -0.825,0 0,-3.219 z"
           style="fill:#231f20;fill-opacity:1;fill-rule:evenodd;stroke:none"
           id="path4113" />
      </g>
    </g>
  </g>
</svg>
