<?xml version="1.0" encoding="UTF-8" standalone="no"?>
<!-- Created with Inkscape (http://www.inkscape.org/) -->

<svg
   xmlns:dc="http://purl.org/dc/elements/1.1/"
   xmlns:cc="http://creativecommons.org/ns#"
   xmlns:rdf="http://www.w3.org/1999/02/22-rdf-syntax-ns#"
   xmlns:svg="http://www.w3.org/2000/svg"
   xmlns="http://www.w3.org/2000/svg"
   xmlns:sodipodi="http://sodipodi.sourceforge.net/DTD/sodipodi-0.dtd"
   xmlns:inkscape="http://www.inkscape.org/namespaces/inkscape"
   width="90.647636"
   height="90.636322"
   id="svg5069"
   version="1.1"
   inkscape:version="0.48.3.1 r9886"
   sodipodi:docname="New document 8">
  <defs
     id="defs5071" />
  <sodipodi:namedview
     id="base"
     pagecolor="#ffffff"
     bordercolor="#666666"
     borderopacity="1.0"
     inkscape:pageopacity="0.0"
     inkscape:pageshadow="2"
     inkscape:zoom="0.35"
     inkscape:cx="63.181871"
     inkscape:cy="8.1718274"
     inkscape:document-units="px"
     inkscape:current-layer="layer1"
     showgrid="false"
     fit-margin-top="0"
     fit-margin-left="0"
     fit-margin-right="0"
     fit-margin-bottom="0"
     inkscape:window-width="451"
     inkscape:window-height="398"
     inkscape:window-x="25"
     inkscape:window-y="25"
     inkscape:window-maximized="0" />
  <metadata
     id="metadata5074">
    <rdf:RDF>
      <cc:Work
         rdf:about="">
        <dc:format>image/svg+xml</dc:format>
        <dc:type
           rdf:resource="http://purl.org/dc/dcmitype/StillImage" />
        <dc:title></dc:title>
      </cc:Work>
    </rdf:RDF>
  </metadata>
  <g
     inkscape:label="Layer 1"
     inkscape:groupmode="layer"
     id="layer1"
     transform="translate(-311.81813,-449.89769)">
    <g
       id="g3157"
       transform="matrix(1.25,0,0,-1.25,313.43004,492.09651)">
      <path
         d="m 0,0 32.473,32.472 c 1.373,1.374 3.621,1.374 4.996,0 L 69.939,0 c 1.375,-1.374 1.375,-3.622 0,-4.996 l -32.47,-32.471 c -1.375,-1.376 -3.623,-1.376 -4.996,0 L 0,-4.996 C -1.373,-3.622 -1.373,-1.374 0,0"
         style="fill:#fccf34;fill-opacity:1;fill-rule:nonzero;stroke:none"
         id="path3159"
         inkscape:connector-curvature="0" />
    </g>
    <g
       id="g3161"
       transform="matrix(1.25,0,0,-1.25,313.43004,492.09651)">
      <path
         d="m 0,0 32.473,32.472 c 1.373,1.374 3.621,1.374 4.996,0 L 69.939,0 c 1.375,-1.374 1.375,-3.622 0,-4.996 l -32.47,-32.471 c -1.375,-1.376 -3.623,-1.376 -4.996,0 L 0,-4.996 C -1.373,-3.622 -1.373,-1.374 0,0 z"
         style="fill:none;stroke:#231f20;stroke-width:0.5;stroke-linecap:butt;stroke-linejoin:miter;stroke-miterlimit:4;stroke-opacity:1;stroke-dasharray:none"
         id="path3163"
         inkscape:connector-curvature="0" />
    </g>
    <g
       id="g3165"
       transform="matrix(1.25,0,0,-1.25,314.40867,492.74226)">
      <path
         d="m 0,0 32.205,32.205 c 1.09,1.09 2.873,1.09 3.965,0 L 68.373,0 c 1.09,-1.09 1.09,-2.873 0,-3.963 L 36.17,-36.168 c -1.092,-1.09 -2.875,-1.09 -3.965,0 L 0,-3.963 C -1.09,-2.873 -1.09,-1.09 0,0"
         style="fill:#231f20;fill-opacity:1;fill-rule:evenodd;stroke:none"
         id="path3167"
         inkscape:connector-curvature="0" />
    </g>
    <g
       id="g3169"
       transform="matrix(1.25,0,0,-1.25,315.66617,493.98125)">
      <path
         d="m 0,0 32.191,32.19 c 0.543,0.544 1.436,0.544 1.981,0 L 66.361,0 c 0.545,-0.544 0.545,-1.436 0,-1.98 L 34.172,-34.171 c -0.545,-0.545 -1.438,-0.545 -1.981,0 L 0,-1.98 C -0.543,-1.436 -0.543,-0.544 0,0"
         style="fill:#fccf34;fill-opacity:1;fill-rule:evenodd;stroke:none"
         id="path3171"
         inkscape:connector-curvature="0" />
    </g>
    <g
       id="g3173"
       transform="matrix(1.25,0,0,-1.25,324.07631,500.73175)">
      <path
         d="m 0,0 0,8.831 13.211,0 0,13.247 8.83,0 0,-13.247 8.833,0 0,-8.831 -8.833,0 0,-13.247 -8.83,0 L 13.211,0 0,0 z"
         style="fill:#231f20;fill-opacity:1;fill-rule:evenodd;stroke:none"
         id="path3175"
         inkscape:connector-curvature="0" />
    </g>
    <path
       d="m 379.18167,489.69288 11.04,0 0,11.03875 -11.04,0 0,-11.03875 z"
       style="fill:#231f20;fill-opacity:1;fill-rule:evenodd;stroke:none"
       id="path3177"
       inkscape:connector-curvature="0" />
    <g
       id="g3179"
       transform="matrix(1.25,0,0,-1.25,364.2263,476.04538)">
      <path
         d="m 0,0 2.373,0 0,2.301 1.15,0 0,-2.301 3.502,0 0,2.301 1.178,0 L 8.199,0 l 2.377,0 0.002,-2.367 -2.375,0 -0.004,-2.38 2.377,0 0,-2.361 -2.373,0 0,-2.31 2.373,0 0.002,-2.372 -2.375,0 -0.004,-2.37 2.379,0 0,-2.38 -2.379,0 0,-2.345 2.377,-0.007 0.002,-2.337 -2.379,0 0,-2.38 2.379,0 0,-2.344 -2.379,0 0,-2.344 2.377,-0.006 0,-2.349 -2.373,0 -0.004,-2.369 -1.147,-0.004 -0.027,2.382 -3.508,0 0,-2.378 -1.144,-0.004 0.007,2.382 -2.38,-0.009 0,2.349 2.373,0 0.007,2.35 -2.38,0 0,2.338 2.373,0 0.007,2.386 -2.38,0 0,2.337 2.373,0 0.007,2.352 -2.38,0 0,2.38 2.38,0 -0.007,2.37 -2.373,0 0,2.372 2.373,0 0,2.31 -2.373,0 0,2.361 2.373,0 0,2.38 L 0,-2.367 0,0 z"
         style="fill:#231f20;fill-opacity:1;fill-rule:evenodd;stroke:none"
         id="path3181"
         inkscape:connector-curvature="0" />
    </g>
    <path
       d="m 368.62293,479.00413 4.4075,0 0,2.98875 -4.4075,0 0,-2.98875 z"
       style="fill:#fccf34;fill-opacity:1;fill-rule:evenodd;stroke:none"
       id="path3183"
       inkscape:connector-curvature="0" />
    <path
       d="m 368.62293,484.93038 4.4075,0 0,2.8875 -4.4075,0 0,-2.8875 z"
       style="fill:#fccf34;fill-opacity:1;fill-rule:evenodd;stroke:none"
       id="path3185"
       inkscape:connector-curvature="0" />
    <path
       d="m 368.62293,490.78288 4.4075,0 0,2.9625 -4.4075,0 0,-2.9625 z"
       style="fill:#fccf34;fill-opacity:1;fill-rule:evenodd;stroke:none"
       id="path3187"
       inkscape:connector-curvature="0" />
    <path
       d="m 368.62293,496.72038 4.4075,0 0,2.93125 -4.4075,0 0,-2.93125 z"
       style="fill:#fccf34;fill-opacity:1;fill-rule:evenodd;stroke:none"
       id="path3189"
       inkscape:connector-curvature="0" />
    <path
       d="m 368.62293,502.58163 4.4075,0 0,2.97625 -4.4075,0 0,-2.97625 z"
       style="fill:#fccf34;fill-opacity:1;fill-rule:evenodd;stroke:none"
       id="path3191"
       inkscape:connector-curvature="0" />
    <path
       d="m 368.62293,508.48663 4.4075,0 0,2.93 -4.4075,0 0,-2.93 z"
       style="fill:#fccf34;fill-opacity:1;fill-rule:evenodd;stroke:none"
       id="path3193"
       inkscape:connector-curvature="0" />
  </g>
</svg>
