<?xml version="1.0" encoding="UTF-8" standalone="no"?>
<!-- Created with Inkscape (http://www.inkscape.org/) -->

<svg
   xmlns:dc="http://purl.org/dc/elements/1.1/"
   xmlns:cc="http://creativecommons.org/ns#"
   xmlns:rdf="http://www.w3.org/1999/02/22-rdf-syntax-ns#"
   xmlns:svg="http://www.w3.org/2000/svg"
   xmlns="http://www.w3.org/2000/svg"
   xmlns:sodipodi="http://sodipodi.sourceforge.net/DTD/sodipodi-0.dtd"
   xmlns:inkscape="http://www.inkscape.org/namespaces/inkscape"
   width="55.625004"
   height="41.835941"
   id="svg7292"
   version="1.1"
   inkscape:version="0.48.3.1 r9886"
   sodipodi:docname="New document 44">
  <defs
     id="defs7294">
    <clipPath
       clipPathUnits="userSpaceOnUse"
       id="clipPath3669">
      <path
         inkscape:connector-curvature="0"
         d="m 62.625,460.578 513.375,0 0,277.422 -513.375,0 0,-277.422 z"
         id="path3671" />
    </clipPath>
  </defs>
  <sodipodi:namedview
     id="base"
     pagecolor="#ffffff"
     bordercolor="#666666"
     borderopacity="1.0"
     inkscape:pageopacity="0.0"
     inkscape:pageshadow="2"
     inkscape:zoom="0.35"
     inkscape:cx="27.813753"
     inkscape:cy="20.924032"
     inkscape:document-units="px"
     inkscape:current-layer="layer1"
     showgrid="false"
     fit-margin-top="0"
     fit-margin-left="0"
     fit-margin-right="0"
     fit-margin-bottom="0"
     inkscape:window-width="451"
     inkscape:window-height="398"
     inkscape:window-x="75"
     inkscape:window-y="75"
     inkscape:window-maximized="0" />
  <metadata
     id="metadata7297">
    <rdf:RDF>
      <cc:Work
         rdf:about="">
        <dc:format>image/svg+xml</dc:format>
        <dc:type
           rdf:resource="http://purl.org/dc/dcmitype/StillImage" />
        <dc:title></dc:title>
      </cc:Work>
    </rdf:RDF>
  </metadata>
  <g
     inkscape:label="Layer 1"
     inkscape:groupmode="layer"
     id="layer1"
     transform="translate(-347.18625,-511.45027)">
    <g
       id="g3665"
       transform="matrix(1.25,0,0,-1.25,7.928,1146.9179)">
      <g
         id="g3667"
         clip-path="url(#clipPath3669)">
        <g
           id="g3673"
           transform="translate(271.6566,478.6866)">
          <path
             d="m 0,0 -0.004,25.918 c 0,1.943 1.59,3.532 3.534,3.532 l 36.943,-0.003 c 1.943,0.002 3.531,-1.588 3.533,-3.533 L 44.004,0.002 c 0,-1.945 -1.59,-3.535 -3.531,-3.533 L 3.532,-3.534 C 1.588,-3.531 -0.002,-1.941 0,0"
             style="fill:#fccf34;fill-opacity:1;fill-rule:nonzero;stroke:none"
             id="path3675"
             inkscape:connector-curvature="0" />
        </g>
        <g
           id="g3677"
           transform="translate(271.6566,478.6866)">
          <path
             d="m 0,0 -0.004,25.918 c 0,1.943 1.59,3.532 3.534,3.532 l 36.943,-0.003 c 1.943,0.002 3.531,-1.588 3.533,-3.533 L 44.004,0.002 c 0,-1.945 -1.59,-3.535 -3.531,-3.533 L 3.532,-3.534 C 1.588,-3.531 -0.002,-1.941 0,0 z"
             style="fill:none;stroke:#231f20;stroke-width:0.5;stroke-linecap:butt;stroke-linejoin:miter;stroke-miterlimit:4;stroke-opacity:1;stroke-dasharray:none"
             id="path3679"
             inkscape:connector-curvature="0" />
        </g>
        <g
           id="g3681"
           transform="translate(272.5746,478.8756)">
          <path
             d="m 0,0 -0.004,25.54 c 0,1.542 1.262,2.802 2.805,2.804 l 36.565,-0.005 c 1.541,0 2.802,-1.26 2.802,-2.801 l 0,-25.536 c 0,-1.543 -1.261,-2.804 -2.802,-2.804 l -36.565,0 C 1.26,-2.802 0,-1.541 0,0"
             style="fill:#231f20;fill-opacity:1;fill-rule:evenodd;stroke:none"
             id="path3683"
             inkscape:connector-curvature="0" />
        </g>
        <g
           id="g3685"
           transform="translate(273.9867,478.8856)">
          <path
             d="m 0,0 -0.002,25.52 c 0,0.769 0.629,1.4 1.401,1.4 l 36.545,-0.004 c 0.769,0 1.4,-0.629 1.4,-1.399 l 0,-25.516 c 0,-0.77 -0.631,-1.401 -1.4,-1.399 L 1.401,-1.4 C 0.631,-1.398 0.002,-0.769 0,0"
             style="fill:#fccf34;fill-opacity:1;fill-rule:evenodd;stroke:none"
             id="path3687"
             inkscape:connector-curvature="0" />
        </g>
        <g
           id="g3689"
           transform="translate(311.7466,483.9326)">
          <path
             d="m 0,0 0,1.407 -1.762,0 0,-0.945 0.772,0 0,-0.462 c 0,-0.726 -0.242,-1.057 -0.748,-1.057 -0.527,0 -0.881,0.352 -1.012,1.035 -0.111,0.528 -0.154,1.122 -0.154,1.715 0,0.815 0.131,1.584 0.307,1.916 0.175,0.352 0.441,0.506 0.792,0.506 0.461,0 0.793,-0.309 0.815,-0.77 l 0.99,0 c -0.045,1.011 -0.793,1.737 -1.783,1.737 -0.814,0 -1.496,-0.527 -1.738,-1.254 -0.243,-0.66 -0.307,-1.343 -0.307,-2.31 0,-0.903 0.131,-1.871 0.352,-2.376 0.33,-0.771 0.945,-1.167 1.759,-1.167 0.705,0 1.254,0.353 1.518,0.968 C -0.045,-0.771 0,-0.484 0,0 m -5.193,-1.914 0,6.887 -0.99,0 0,-4.137 -1.872,4.137 -0.99,0 0,-6.887 0.99,0 0,4.619 2.114,-4.619 0.748,0 z m -5.348,6.887 -0.967,0 0,-6.887 0.967,0 0,6.887 z m -2.111,-4.995 c 0,0.989 -0.596,1.737 -1.916,2.507 -0.506,0.287 -0.658,0.485 -0.658,0.814 0,0.463 0.373,0.793 0.836,0.793 0.418,0 0.769,-0.309 0.791,-0.793 l 0.947,0 c -0.045,1.035 -0.772,1.783 -1.738,1.783 -0.993,0 -1.762,-0.792 -1.762,-1.783 0,-0.594 0.285,-1.143 0.836,-1.517 1.41,-0.946 1.011,-0.682 1.168,-0.815 0.394,-0.33 0.549,-0.615 0.549,-0.989 0,-0.55 -0.44,-1.035 -0.969,-1.035 -0.682,0 -0.967,0.594 -0.967,1.166 l -0.969,0 c 0,-1.123 0.727,-2.134 1.936,-2.134 1.056,0 1.916,0.879 1.916,2.003 m -4.666,0 c 0,0.989 -0.572,1.737 -1.869,2.507 -0.508,0.287 -0.662,0.485 -0.662,0.814 0,0.463 0.353,0.793 0.814,0.793 0.441,0 0.77,-0.309 0.793,-0.793 l 0.924,0 c -0.022,1.035 -0.77,1.783 -1.717,1.783 -0.99,0 -1.76,-0.792 -1.76,-1.783 0,-0.594 0.285,-1.143 0.858,-1.517 1.386,-0.946 1.013,-0.682 1.144,-0.815 0.418,-0.33 0.551,-0.615 0.551,-0.989 0,-0.55 -0.418,-1.035 -0.945,-1.035 -0.684,0 -0.969,0.594 -0.969,1.166 l -0.969,0 c 0,-1.123 0.727,-2.134 1.938,-2.134 1.054,0 1.869,0.879 1.869,2.003 m -5.787,1.562 c 0,-0.792 -0.043,-1.211 -0.221,-1.761 -0.154,-0.572 -0.418,-0.836 -0.836,-0.836 -0.439,0 -0.705,0.264 -0.881,0.836 -0.131,0.55 -0.197,0.991 -0.197,1.739 0,0.771 0.045,1.232 0.197,1.759 0.176,0.573 0.442,0.838 0.881,0.838 0.418,0 0.682,-0.265 0.836,-0.859 0.154,-0.506 0.221,-0.945 0.221,-1.716 m 0.945,0 c 0,1.034 -0.109,1.694 -0.395,2.355 -0.33,0.857 -0.814,1.187 -1.607,1.187 -0.791,0 -1.275,-0.33 -1.65,-1.166 -0.285,-0.639 -0.375,-1.342 -0.375,-2.376 0,-1.056 0.09,-1.718 0.375,-2.398 0.351,-0.814 0.836,-1.167 1.65,-1.167 0.772,0 1.277,0.353 1.607,1.167 0.286,0.659 0.395,1.342 0.395,2.398 m -6.006,1.585 c 0,-0.551 -0.308,-0.859 -0.881,-0.859 l -1.011,0 0,1.738 1.011,0 c 0.528,0 0.881,-0.352 0.881,-0.879 m 0.967,-5.039 -0.988,3.387 c 0.658,0.242 0.988,0.838 0.988,1.652 0,1.121 -0.725,1.848 -1.803,1.848 l -2.047,0 0,-6.887 0.991,0 0,3.234 0.923,0 0.924,-3.234 1.012,0 z m -5.215,5.039 c -0.066,0.637 -0.154,0.923 -0.418,1.252 -0.33,0.463 -0.814,0.705 -1.363,0.705 -1.344,0 -2.047,-1.187 -2.047,-3.389 0,-2.551 0.66,-3.718 2.113,-3.718 0.967,0 1.694,0.814 1.715,1.959 l -0.99,0 c 0,-0.506 -0.131,-0.991 -0.725,-0.991 -0.838,0 -1.168,0.792 -1.168,2.772 0,1.783 0.287,2.4 1.078,2.4 0.463,0 0.727,-0.309 0.815,-0.99 l 0.99,0 z"
             style="fill:#231f20;fill-opacity:1;fill-rule:evenodd;stroke:none"
             id="path3691"
             inkscape:connector-curvature="0" />
        </g>
        <g
           id="g3693"
           transform="translate(305.9366,494.4266)">
          <path
             d="m 0,0 0,6.867 -0.991,0 0,-2.794 -1.869,0 0,2.794 -0.99,0 0,-6.867 0.99,0 0,3.104 1.869,0 L -0.991,0 0,0 z m -5.192,1.916 0,1.408 -1.762,0 0,-0.966 0.772,0 0,-0.442 c 0,-0.726 -0.242,-1.078 -0.75,-1.078 -0.527,0 -0.879,0.373 -1.012,1.057 -0.109,0.527 -0.152,1.121 -0.152,1.693 0,0.836 0.109,1.607 0.307,1.936 0.175,0.332 0.439,0.507 0.771,0.507 0.484,0 0.791,-0.308 0.836,-0.771 l 0.99,0 c -0.066,1.013 -0.814,1.739 -1.804,1.739 -0.793,0 -1.499,-0.528 -1.717,-1.255 -0.242,-0.659 -0.33,-1.363 -0.33,-2.31 0,-0.903 0.154,-1.871 0.373,-2.375 0.332,-0.771 0.925,-1.19 1.761,-1.19 0.682,0 1.254,0.375 1.518,0.969 0.133,0.309 0.199,0.594 0.199,1.078 m -5.193,0.131 0,4.82 -0.99,0 0,-4.929 c 0,-0.66 -0.397,-1.1 -0.903,-1.1 -0.572,0 -0.968,0.44 -0.968,1.1 l 0,4.929 -0.969,0 0,-4.82 c 0,-0.549 0.066,-0.836 0.263,-1.209 0.332,-0.573 1.012,-0.969 1.674,-0.969 0.637,0 1.276,0.419 1.627,0.969 0.199,0.373 0.266,0.66 0.266,1.209 m -6.162,1.41 c 0,-0.793 -0.045,-1.211 -0.221,-1.761 -0.152,-0.594 -0.418,-0.858 -0.836,-0.858 -0.439,0 -0.703,0.264 -0.857,0.858 -0.155,0.55 -0.221,0.991 -0.221,1.738 0,0.769 0.045,1.232 0.221,1.761 0.154,0.571 0.418,0.836 0.857,0.836 0.418,0 0.684,-0.265 0.836,-0.859 0.154,-0.506 0.221,-0.946 0.221,-1.715 m 0.947,0 c 0,1.033 -0.09,1.672 -0.375,2.354 -0.352,0.859 -0.836,1.188 -1.629,1.188 -0.791,0 -1.275,-0.329 -1.629,-1.167 -0.306,-0.637 -0.394,-1.342 -0.394,-2.375 0,-1.056 0.088,-1.717 0.394,-2.398 0.332,-0.815 0.815,-1.19 1.629,-1.19 0.772,0 1.277,0.375 1.629,1.19 0.285,0.659 0.375,1.342 0.375,2.398 m -6.008,1.584 c 0,-0.551 -0.308,-0.859 -0.881,-0.859 l -1.011,0 0,1.739 1.011,0 c 0.528,0 0.881,-0.351 0.881,-0.88 M -20.639,0 -21.631,3.367 c 0.66,0.243 0.992,0.859 0.992,1.674 0,1.1 -0.727,1.826 -1.805,1.826 l -2.047,0 0,-6.867 0.991,0 0,3.237 0.923,0 0.924,-3.237 1.014,0 z"
             style="fill:#231f20;fill-opacity:1;fill-rule:evenodd;stroke:none"
             id="path3695"
             inkscape:connector-curvature="0" />
        </g>
      </g>
    </g>
  </g>
</svg>
