<?xml version="1.0" encoding="UTF-8" standalone="no"?>
<!-- Created with Inkscape (http://www.inkscape.org/) -->

<svg
   xmlns:dc="http://purl.org/dc/elements/1.1/"
   xmlns:cc="http://creativecommons.org/ns#"
   xmlns:rdf="http://www.w3.org/1999/02/22-rdf-syntax-ns#"
   xmlns:svg="http://www.w3.org/2000/svg"
   xmlns="http://www.w3.org/2000/svg"
   xmlns:sodipodi="http://sodipodi.sourceforge.net/DTD/sodipodi-0.dtd"
   xmlns:inkscape="http://www.inkscape.org/namespaces/inkscape"
   width="90.579521"
   height="90.028572"
   id="svg5601"
   version="1.1"
   inkscape:version="0.48.3.1 r9886"
   sodipodi:docname="New document 16">
  <defs
     id="defs5603" />
  <sodipodi:namedview
     id="base"
     pagecolor="#ffffff"
     bordercolor="#666666"
     borderopacity="1.0"
     inkscape:pageopacity="0.0"
     inkscape:pageshadow="2"
     inkscape:zoom="0.35"
     inkscape:cx="20.280053"
     inkscape:cy="59.307014"
     inkscape:document-units="px"
     inkscape:current-layer="layer1"
     showgrid="false"
     fit-margin-top="0"
     fit-margin-left="0"
     fit-margin-right="0"
     fit-margin-bottom="0"
     inkscape:window-width="451"
     inkscape:window-height="398"
     inkscape:window-x="25"
     inkscape:window-y="25"
     inkscape:window-maximized="0" />
  <metadata
     id="metadata5606">
    <rdf:RDF>
      <cc:Work
         rdf:about="">
        <dc:format>image/svg+xml</dc:format>
        <dc:type
           rdf:resource="http://purl.org/dc/dcmitype/StillImage" />
        <dc:title></dc:title>
      </cc:Work>
    </rdf:RDF>
  </metadata>
  <g
     inkscape:label="Layer 1"
     inkscape:groupmode="layer"
     id="layer1"
     transform="translate(-354.71995,-501.64063)">
    <g
       id="g3715"
       transform="matrix(1.25,0,0,-1.25,402.91578,590.18226)">
      <path
         d="m 0,0 32.695,32.502 c 1.279,1.264 1.275,3.378 0,4.644 L 0,69.646 c -1.272,1.26 -3.398,1.266 -4.671,0 l -32.696,-32.5 c -1.264,-1.263 -1.272,-3.383 0,-4.644 L -4.671,0 C -3.301,-1.361 -1.398,-1.136 0,0"
         style="fill:#fccf34;fill-opacity:1;fill-rule:nonzero;stroke:#231f20;stroke-width:0.5;stroke-linecap:butt;stroke-linejoin:miter;stroke-miterlimit:4;stroke-opacity:1;stroke-dasharray:none"
         id="path3717"
         inkscape:connector-curvature="0" />
    </g>
    <g
       id="g3719"
       transform="matrix(1.25,0,0,-1.25,397.81828,589.44977)">
      <path
         d="m 0,0 -32.695,32.505 c -0.95,0.944 -0.947,2.518 0,3.466 L 0,68.471 c 0.953,0.941 2.535,0.948 3.488,0 l 32.699,-32.5 c 0.942,-0.942 0.946,-2.528 0,-3.466 L 3.488,0 C 2.539,-0.94 0.947,-0.943 0,0"
         style="fill:#231f20;fill-opacity:1;fill-rule:evenodd;stroke:none"
         id="path3721"
         inkscape:connector-curvature="0" />
    </g>
    <g
       id="g3723"
       transform="matrix(1.25,0,0,-1.25,399.04716,588.23152)">
      <path
         d="M 0,0 C 0.414,-0.407 1.113,-0.407 1.529,0 L 34.22,32.507 c 0.408,0.411 0.418,1.102 0,1.511 L 1.529,66.52 C 1.103,66.929 0.423,66.937 0,66.52 L -32.695,34.018 c -0.416,-0.414 -0.414,-1.096 0,-1.511 L 0,0"
         style="fill:#fccf34;fill-opacity:1;fill-rule:evenodd;stroke:none"
         id="path3725"
         inkscape:connector-curvature="0" />
    </g>
    <g
       id="g3727"
       transform="matrix(1.25,0,0,-1.25,394.14828,529.78552)">
      <path
         d="m 0,0 4.158,-3.659 -0.885,0 L 8.659,-8.058 5.988,-4.297 7.374,-4.398 0,0 z m 10.911,-10.911 4.158,-3.659 -0.886,0 5.388,-4.398 -2.672,3.76 1.387,-0.102 -7.375,4.399 z m -9.536,0.106 -0.079,-0.487 -1.102,0 -0.296,-0.945 1.249,0 -0.078,-0.487 -1.32,0 -0.375,-1.181 1.503,0 -0.105,-0.603 -1.59,0 -0.432,-1.388 1.796,0 -0.102,-0.634 -1.899,0 -0.523,-1.672 2.139,0 -0.125,-0.806 -2.275,0 -0.567,-1.807 2.535,0 -0.172,-1.068 -2.703,0 -0.705,-2.237 3.033,0 -0.274,-1.684 -3.293,0 -1.013,-3.203 3.773,0 -0.498,-3.056 2.239,0 0.351,3.056 10.569,0 0.455,-3.056 2.239,0 -0.579,3.056 3.929,0 -1.124,3.203 -3.42,0 -0.319,1.684 3.16,0 -0.773,2.237 -2.818,0 -0.206,1.068 2.649,0 -0.616,1.807 -2.372,0 -0.161,0.806 2.25,0 -0.578,1.672 -1.989,0 -0.127,0.634 1.9,0 -0.478,1.388 -1.681,0 -0.113,0.603 1.578,0 -0.409,1.181 -1.399,0 -0.089,0.487 1.328,0 -0.329,0.945 -1.181,0 -0.092,0.487 21.784,-3.804 0,1.101 -4.056,0.737 -0.102,0.024 -0.088,0.028 -0.079,0.034 -0.034,0.018 -0.031,0.021 -0.029,0.022 -0.026,0.022 -0.025,0.025 -0.022,0.022 -0.039,0.052 -0.03,0.053 -0.022,0.056 -0.017,0.059 -0.012,0.062 -0.005,0.059 -0.003,0.061 0,0.062 0.007,0.115 0.039,0.071 0.017,0.038 0.011,0.04 0.068,0.047 0.067,0.047 0.061,0.05 0.061,0.051 0.059,0.055 0.056,0.056 0.054,0.06 0.054,0.06 0.051,0.062 0.047,0.063 0.044,0.066 0.044,0.069 0.041,0.071 0.04,0.071 0.038,0.074 0.033,0.074 0.059,0.023 0.056,0.022 0.051,0.017 0.027,0.005 0.024,0.003 2.852,0 -0.215,1.307 -2.761,0.102 -0.026,0.088 -0.029,0.084 -0.033,0.086 -0.037,0.083 -0.039,0.081 -0.044,0.078 -0.044,0.078 -0.05,0.072 -0.051,0.074 -0.055,0.071 -0.055,0.068 -0.062,0.065 -0.062,0.064 -0.063,0.061 -0.068,0.058 -0.07,0.055 -0.069,0.053 -0.074,0.049 -0.078,0.046 -0.077,0.045 -0.079,0.039 -0.081,0.039 -0.083,0.037 -0.085,0.03 -0.083,0.027 -0.09,0.026 -0.089,0.019 -0.09,0.018 -0.091,0.012 -0.091,0.009 -0.095,0.007 -0.094,0.001 L 25.594,-7.75 25.506,-7.755 25.42,-7.763 25.333,-7.773 25.248,-7.789 25.164,-7.81 25.081,-7.828 25,-7.855 24.921,-7.88 24.842,-7.911 24.765,-7.942 24.69,-7.978 24.617,-8.019 24.545,-8.058 24.474,-8.101 24.406,-8.148 24.338,-8.195 24.274,-8.247 24.211,-8.3 24.149,-8.356 24.091,-8.413 24.034,-8.474 23.983,-8.536 23.928,-8.601 23.88,-8.667 l -0.047,-0.066 -0.046,-0.071 -0.042,-0.071 -0.039,-0.073 -0.037,-0.075 -0.034,-0.076 -0.031,-0.08 -10.012,0.408 4.544,2.99 -1.145,0.76 2.5,4.42 -4.797,-4.648 0.603,-0.75 L 12.408,-8.734 4.705,-8.429 4.633,-8.425 4.561,-8.414 4.492,-8.403 4.424,-8.39 4.357,-8.37 4.291,-8.349 4.225,-8.32 4.162,-8.292 4.1,-8.257 4.041,-8.222 3.983,-8.183 3.928,-8.14 3.873,-8.093 3.823,-8.046 3.776,-7.992 3.729,-7.94 0.885,-4.406 0.858,-4.374 0.826,-4.343 0.795,-4.312 0.761,-4.286 0.727,-4.261 0.694,-4.239 0.622,-4.198 0.545,-4.167 0.467,-4.141 0.386,-4.124 0.302,-4.109 0.217,-4.101 0.131,-4.094 0.044,-4.093 -0.044,-4.094 -0.217,-4.102 -0.385,-4.112 -4.056,-4.271 -4.5,-5.383 l 2.479,-0.251 0.074,-0.006 0.077,-0.011 0.071,-0.018 0.067,-0.019 0.066,-0.026 0.063,-0.027 0.058,-0.032 0.055,-0.037 0.051,-0.039 0.043,-0.042 0.042,-0.044 0.033,-0.046 0.029,-0.049 0.021,-0.053 0.013,-0.053 0.008,-0.054 -3.795,0 -0.057,0.002 -0.06,0.003 -0.061,0.008 -0.058,0.01 -0.061,0.014 -0.056,0.017 -0.057,0.022 -0.051,0.023 -0.048,0.031 -0.045,0.034 -0.039,0.037 -0.036,0.044 -0.027,0.047 -0.019,0.053 -0.014,0.057 -0.003,0.031 -0.002,0.031 -0.02,3.695 -10e-4,0.073 -0.005,0.064 -0.01,0.066 -0.012,0.057 -0.012,0.055 -0.016,0.052 -0.023,0.044 -0.019,0.045 -0.026,0.039 -0.025,0.036 -0.029,0.031 -0.032,0.031 -0.033,0.024 -0.032,0.024 -0.034,0.023 -0.039,0.015 -0.036,0.017 -0.041,0.015 -0.079,0.016 -0.082,0.015 -0.086,0.008 -0.084,10e-4 -0.084,-10e-4 -0.16,-0.013 -1.718,0 -0.043,-0.002 -0.045,-0.006 -0.046,-0.008 -0.045,-0.013 -0.045,-0.018 -0.047,-0.021 -0.046,-0.021 -0.047,-0.03 -0.047,-0.031 -0.049,-0.033 -0.049,-0.042 -0.048,-0.041 -0.099,-0.095 -0.099,-0.108 -0.102,-0.123 -0.101,-0.137 -0.105,-0.148 -0.102,-0.162 -0.106,-0.175 -0.105,-0.188 -0.106,-0.202 -0.108,-0.214 -0.075,-0.151 -0.081,-0.14 -0.083,-0.131 -0.086,-0.122 -0.09,-0.113 -0.088,-0.103 -0.091,-0.094 -0.091,-0.084 -0.087,-0.075 -0.088,-0.065 -0.09,-0.055 -0.084,-0.047 -0.083,-0.036 -0.076,-0.028 -0.078,-0.018 -0.07,-0.009 -2.148,0 -0.047,-0.003 -0.047,-0.004 -0.046,-0.008 -0.044,-0.008 -0.041,-0.015 -0.041,-0.017 -0.038,-0.018 -0.038,-0.021 -0.034,-0.023 -0.035,-0.026 -0.033,-0.029 -0.031,-0.03 -0.029,-0.029 -0.028,-0.034 -0.05,-0.072 -0.046,-0.077 -0.037,-0.083 -0.035,-0.084 -0.026,-0.086 -0.02,-0.09 -0.016,-0.09 -0.008,-0.087 -0.003,-0.089 0,-3.742 -0.012,-0.008 -0.005,-0.011 -0.005,-0.012 -0.003,-0.013 0,-0.024 0.003,-0.025 0.005,-0.025 0,-0.026 -0.011,-0.023 -0.008,-0.012 -0.012,-0.012 -0.066,-0.074 -0.063,-0.068 -0.054,-0.066 -0.047,-0.061 -0.039,-0.056 -0.029,-0.052 -0.02,-0.047 -0.01,-0.041 -0.004,-0.037 0,-0.037 0.005,-0.036 0.007,-0.039 0.015,-0.042 0.017,-0.041 0.022,-0.041 0.026,-0.04 0.029,-0.046 0.037,-0.043 0.041,-0.044 0.042,-0.046 0.046,-0.047 0.053,-0.047 0.059,-0.047 0.06,-0.048 0.536,-0.455 0.032,-0.094 0.041,-0.092 0.047,-0.096 0.054,-0.091 0.062,-0.09 0.064,-0.089 0.071,-0.085 0.073,-0.08 0.073,-0.08 0.078,-0.073 0.077,-0.066 0.078,-0.064 0.076,-0.055 0.073,-0.051 0.068,-0.041 0.067,-0.035 -10.309,-1.795 -0.011,-0.692 24.375,3.804 z m -11.464,-0.866 0.083,0.109 0.079,0.102 0.066,0.101 0.06,0.094 0.053,0.093 0.044,0.091 0.04,0.09 0.031,0.088 0.029,0.09 0.021,0.089 0.018,0.092 0.013,0.093 0.008,0.099 0.008,0.099 0.004,0.107 0,0.109 5.386,1.056 0.098,-0.239 0.092,-0.205 0.042,-0.089 0.045,-0.087 0.051,-0.08 0.051,-0.076 0.054,-0.074 0.059,-0.073 0.068,-0.07 0.074,-0.071 0.085,-0.075 0.093,-0.073 0.105,-0.081 0.117,-0.082 -6.977,-1.227 z m 11.236,4.518 2.043,-2.61 0.015,-0.026 0.008,-0.026 0,-0.026 L 3.205,-9.862 3.193,-9.883 3.172,-9.905 3.149,-9.925 3.119,-9.942 3.085,-9.958 3.05,-9.972 3.011,-9.983 l -0.04,-0.009 -0.086,-0.015 -0.043,-0.004 -0.043,-0.002 -2.598,0 -1.029,-0.175 0.076,0.102 0.072,0.097 0.065,0.095 0.056,0.097 0.053,0.094 0.047,0.089 0.042,0.088 0.036,0.088 0.032,0.083 0.026,0.084 0.023,0.081 0.017,0.081 0.015,0.079 0.009,0.077 0.007,0.075 0.002,0.073 0.002,0.072 -0.004,0.07 -0.006,0.069 -0.007,0.07 -0.024,0.13 -0.031,0.128 -0.037,0.122 -0.041,0.118 -0.042,0.115 -0.046,0.109 1.633,0.649 z m 23.669,-4.774 -0.099,0.092 -0.094,0.098 -0.091,0.105 -0.082,0.109 -0.078,0.117 -0.07,0.118 -0.065,0.121 -0.058,0.128 -0.036,0 -5.601,0 -0.045,-0.005 -0.039,-0.01 -0.036,-0.015 -0.026,-0.022 -0.023,-0.025 -0.013,-0.028 -0.01,-0.028 -0.004,-0.034 0.004,-0.031 0.01,-0.032 0.013,-0.031 0.023,-0.028 0.026,-0.026 0.036,-0.021 0.039,-0.019 0.045,-0.011 5.671,-1.006 0.089,-0.014 0.078,-0.005 0.071,10e-4 0.065,0.01 0.06,0.014 0.051,0.022 0.044,0.027 0.039,0.033 0.032,0.037 0.027,0.041 0.022,0.045 0.016,0.051 0.009,0.052 0.004,0.055 0,0.058 -0.004,0.057 z m -22.285,1.119 5.807,0 0.067,-0.488 -5.93,0 0.056,0.488 z m 6.091,-1.919 -6.306,0 0.056,0.488 6.182,0 0.068,-0.488 z m -6.444,-1.179 6.625,0 0.093,-0.605 -6.786,0 0.068,0.605 z m -0.227,-1.988 7.149,0 0.091,-0.636 -7.306,0 0.066,0.636 z M 1.69,-18.2 l 7.75,0 0.113,-0.807 -7.953,0 0.09,0.807 z m -0.296,-2.613 8.432,0 0.161,-1.069 -8.716,0 0.123,1.069 z m -0.375,-3.307 9.297,0 0.25,-1.68 -9.74,0 0.193,1.68 z"
         style="fill:#231f20;fill-opacity:1;fill-rule:evenodd;stroke:none"
         id="path3729"
         inkscape:connector-curvature="0" />
    </g>
  </g>
</svg>
