<?xml version="1.0" encoding="UTF-8" standalone="no"?>
<!-- Created with Inkscape (http://www.inkscape.org/) -->

<svg
   xmlns:dc="http://purl.org/dc/elements/1.1/"
   xmlns:cc="http://creativecommons.org/ns#"
   xmlns:rdf="http://www.w3.org/1999/02/22-rdf-syntax-ns#"
   xmlns:svg="http://www.w3.org/2000/svg"
   xmlns="http://www.w3.org/2000/svg"
   xmlns:sodipodi="http://sodipodi.sourceforge.net/DTD/sodipodi-0.dtd"
   xmlns:inkscape="http://www.inkscape.org/namespaces/inkscape"
   width="103.75088"
   height="103.75"
   id="svg5641"
   version="1.1"
   inkscape:version="0.48.1 "
   sodipodi:docname="New document 31">
  <defs
     id="defs5643">
    <clipPath
       clipPathUnits="userSpaceOnUse"
       id="clipPath5279">
      <path
         inkscape:connector-curvature="0"
         d="m 63.125,45.1 513.125,0 0,124.609 -513.125,0 0,-124.609 z"
         id="path5281" />
    </clipPath>
    <clipPath
       clipPathUnits="userSpaceOnUse"
       id="clipPath5263">
      <path
         inkscape:connector-curvature="0"
         d="m 67.24,45.1 504.895,0 0,124.609 -504.895,0 0,-124.609 z"
         id="path5265" />
    </clipPath>
  </defs>
  <sodipodi:namedview
     id="base"
     pagecolor="#ffffff"
     bordercolor="#666666"
     borderopacity="1.0"
     inkscape:pageopacity="0.0"
     inkscape:pageshadow="2"
     inkscape:zoom="1.979899"
     inkscape:cx="68.705233"
     inkscape:cy="44.389239"
     inkscape:document-units="px"
     inkscape:current-layer="layer1"
     showgrid="false"
     fit-margin-top="0"
     fit-margin-left="0"
     fit-margin-right="0"
     fit-margin-bottom="0"
     inkscape:window-width="469"
     inkscape:window-height="425"
     inkscape:window-x="125"
     inkscape:window-y="125"
     inkscape:window-maximized="0" />
  <metadata
     id="metadata5646">
    <rdf:RDF>
      <cc:Work
         rdf:about="">
        <dc:format>image/svg+xml</dc:format>
        <dc:type
           rdf:resource="http://purl.org/dc/dcmitype/StillImage" />
        <dc:title></dc:title>
      </cc:Work>
    </rdf:RDF>
  </metadata>
  <g
     inkscape:label="Layer 1"
     inkscape:groupmode="layer"
     id="layer1"
     transform="translate(-0.058207,-0.31387)">
    <g
       id="g5255"
       transform="matrix(1.25,0,0,-1.25,0.3703377,30.85262)">
      <path
         inkscape:connector-curvature="0"
         d="m 0,0 0,-34.18 24.181,-24.139 34.147,0 24.173,24.139 0,34.18 -24.173,24.181 -34.147,0 L 0,0 z"
         style="fill:#ffffff;fill-opacity:1;fill-rule:nonzero;stroke:none"
         id="path5257" />
    </g>
    <g
       transform="matrix(1.25,0,0,-1.25,-83.991793,178.54062)"
       id="g5259">
      <g
         id="g5261"
         clip-path="url(#clipPath5263)">
        <g
           id="g5267"
           transform="translate(67.4897,118.1504)">
          <path
             inkscape:connector-curvature="0"
             d="m 0,0 0,-34.18 24.181,-24.139 34.147,0 24.173,24.139 0,34.18 -24.173,24.181 -34.147,0 L 0,0 z"
             style="fill:none;stroke:#231f20;stroke-width:0.5;stroke-linecap:butt;stroke-linejoin:miter;stroke-miterlimit:2.61299992;stroke-opacity:1;stroke-dasharray:none"
             id="path5269" />
        </g>
      </g>
    </g>
    <g
       id="g5271"
       transform="matrix(1.25,0,0,-1.25,2.9484577,31.89387)">
      <path
         inkscape:connector-curvature="0"
         d="m 0,0 22.96,22.952 32.422,0 L 78.375,0 l 0,-32.472 -22.993,-22.951 -32.422,0 L 0,-32.472 0,0 z"
         style="fill:#bf2519;fill-opacity:1;fill-rule:evenodd;stroke:none"
         id="path5273" />
    </g>
    <g
       transform="matrix(1.25,0,0,-1.25,-83.991793,178.54062)"
       id="g5275">
      <g
         id="g5277"
         clip-path="url(#clipPath5279)">
        <g
           id="g5283"
           transform="translate(139.1577,107.1045)">
          <path
             inkscape:connector-curvature="0"
             d="m 0,0 c 0,-2.506 -1.254,-3.953 -3.568,-3.953 l -4.051,0 0,7.811 4.051,0 C -1.446,3.858 0,2.315 0,0 m 3.856,0 c 0,4.63 -2.892,7.716 -7.232,7.716 l -8.196,0 0,-27.485 3.953,0 0,12.055 4.243,0 c 4.63,0 7.232,2.7 7.232,7.714 m -23.531,-5.979 c 0,-3.182 -0.192,-4.822 -0.869,-7.039 -0.675,-2.314 -1.735,-3.376 -3.374,-3.376 -1.737,0 -2.798,1.062 -3.471,3.376 -0.58,2.217 -0.869,3.954 -0.869,6.944 0,3.086 0.192,4.918 0.869,7.04 0.673,2.313 1.734,3.375 3.471,3.375 1.639,0 2.699,-1.062 3.374,-3.472 0.58,-2.025 0.869,-3.761 0.869,-6.848 m 3.761,0 c 0,4.148 -0.387,6.751 -1.543,9.452 -1.35,3.374 -3.278,4.725 -6.461,4.725 -3.182,0 -5.112,-1.351 -6.558,-4.63 -1.156,-2.602 -1.544,-5.399 -1.544,-9.547 0,-4.243 0.388,-6.845 1.544,-9.546 1.35,-3.279 3.28,-4.742 6.558,-4.742 3.086,0 5.111,1.463 6.461,4.742 1.156,2.603 1.543,5.303 1.543,9.546 m -18.229,10.03 0,3.665 -13.983,0 0,-3.665 5.015,0 0,-23.82 3.953,0 0,23.82 5.015,0 z m -15.336,-16.298 c 0,3.954 -2.313,6.944 -7.617,10.029 -2.025,1.158 -2.603,1.93 -2.603,3.28 0,1.832 1.446,3.182 3.278,3.182 1.735,0 3.086,-1.254 3.182,-3.182 l 3.76,0 c -0.096,4.147 -3.084,7.136 -6.942,7.136 -3.954,0 -7.04,-3.182 -7.04,-7.136 0,-2.412 1.156,-4.533 3.375,-6.076 5.594,-3.76 4.051,-2.7 4.63,-3.279 1.638,-1.253 2.217,-2.409 2.217,-3.954 0,-2.218 -1.736,-4.147 -3.857,-4.147 -2.7,0 -3.858,2.412 -3.858,4.727 l -3.858,0 c 0,-4.533 2.894,-8.6 7.716,-8.6 4.243,0 7.617,3.584 7.617,8.02"
             style="fill:#ffffff;fill-opacity:1;fill-rule:evenodd;stroke:none"
             id="path5285" />
        </g>
      </g>
    </g>
  </g>
</svg>
