<?xml version="1.0" encoding="UTF-8" standalone="no"?>
<!-- Created with Inkscape (http://www.inkscape.org/) -->

<svg
   xmlns:dc="http://purl.org/dc/elements/1.1/"
   xmlns:cc="http://creativecommons.org/ns#"
   xmlns:rdf="http://www.w3.org/1999/02/22-rdf-syntax-ns#"
   xmlns:svg="http://www.w3.org/2000/svg"
   xmlns="http://www.w3.org/2000/svg"
   xmlns:sodipodi="http://sodipodi.sourceforge.net/DTD/sodipodi-0.dtd"
   xmlns:inkscape="http://www.inkscape.org/namespaces/inkscape"
   width="124.37597"
   height="109.87"
   id="svg5897"
   version="1.1"
   inkscape:version="0.48.1 "
   sodipodi:docname="New document 37">
  <defs
     id="defs5899">
    <clipPath
       clipPathUnits="userSpaceOnUse"
       id="clipPath5295">
      <path
         inkscape:connector-curvature="0"
         d="m 63.125,45.1 513.125,0 0,124.609 -513.125,0 0,-124.609 z"
         id="path5297" />
    </clipPath>
  </defs>
  <sodipodi:namedview
     id="base"
     pagecolor="#ffffff"
     bordercolor="#666666"
     borderopacity="1.0"
     inkscape:pageopacity="0.0"
     inkscape:pageshadow="2"
     inkscape:zoom="0.98994949"
     inkscape:cx="39.086648"
     inkscape:cy="46.236571"
     inkscape:document-units="px"
     inkscape:current-layer="layer1"
     showgrid="false"
     fit-margin-top="0"
     fit-margin-left="0"
     fit-margin-right="0"
     fit-margin-bottom="0"
     inkscape:window-width="920"
     inkscape:window-height="481"
     inkscape:window-x="25"
     inkscape:window-y="25"
     inkscape:window-maximized="0" />
  <metadata
     id="metadata5902">
    <rdf:RDF>
      <cc:Work
         rdf:about="">
        <dc:format>image/svg+xml</dc:format>
        <dc:type
           rdf:resource="http://purl.org/dc/dcmitype/StillImage" />
        <dc:title></dc:title>
      </cc:Work>
    </rdf:RDF>
  </metadata>
  <g
     inkscape:label="Layer 1"
     inkscape:groupmode="layer"
     id="layer1"
     transform="translate(-4.9047616e-6,0)">
    <g
       id="g5291"
       transform="matrix(1.25,0,0,-1.25,-337.112,184.63375)">
      <g
         id="g5293"
         clip-path="url(#clipPath5295)">
        <g
           id="g5299"
           transform="translate(324.5397,62.803)">
          <path
             d="m 0,0 43.656,75.805 c 0.365,0.642 0.623,1.274 0.705,2.021 0.108,1.039 0,2.131 -0.379,3.103 -0.875,2.242 -3.179,3.725 -5.568,3.725 L -48.613,84.61 c -1.592,0 -3.104,-0.623 -4.233,-1.75 -1.232,-1.236 -1.85,-2.927 -1.742,-4.667 0.059,-0.899 0.367,-1.741 0.812,-2.518 L -10.108,0.041 c 1.02,-1.763 3.073,-2.783 5.077,-2.783 0.998,0 1.99,0.236 2.867,0.717 C -1.297,-1.547 -0.498,-0.863 0,0"
             style="fill:#ffffff;fill-opacity:1;fill-rule:nonzero;stroke:none"
             id="path5301"
             inkscape:connector-curvature="0" />
        </g>
        <g
           id="g5303"
           transform="translate(324.5397,62.803)">
          <path
             d="m 0,0 43.656,75.805 c 0.365,0.642 0.623,1.274 0.705,2.021 0.108,1.039 0,2.131 -0.379,3.103 -0.875,2.242 -3.179,3.725 -5.568,3.725 L -48.613,84.61 c -1.592,0 -3.104,-0.623 -4.233,-1.75 -1.232,-1.236 -1.85,-2.927 -1.742,-4.667 0.059,-0.899 0.367,-1.741 0.812,-2.518 L -10.108,0.041 c 1.02,-1.763 3.073,-2.783 5.077,-2.783 0.998,0 1.99,0.236 2.867,0.717 C -1.297,-1.547 -0.498,-0.863 0,0 z"
             style="fill:none;stroke:#231f20;stroke-width:0.5;stroke-linecap:butt;stroke-linejoin:miter;stroke-miterlimit:2.61299992;stroke-opacity:1;stroke-dasharray:none"
             id="path5305"
             inkscape:connector-curvature="0" />
        </g>
        <g
           id="g5307"
           transform="translate(322.6197,63.925)">
          <path
             d="m 0,0 c -0.332,-0.513 -0.688,-0.842 -1.233,-1.157 -0.966,-0.558 -2.222,-0.605 -3.259,-0.225 -0.721,0.264 -1.356,0.759 -1.741,1.425 l -43.701,75.642 c -0.451,0.78 -0.601,1.672 -0.435,2.56 0.328,1.707 1.951,3 3.679,3.004 l 87.03,0.041 c 1.789,0 3.334,-1.248 3.672,-3.013 0.171,-0.871 0.056,-1.703 -0.385,-2.471 L 0,0 z"
             style="fill:#bf2519;fill-opacity:1;fill-rule:evenodd;stroke:none"
             id="path5309"
             inkscape:connector-curvature="0" />
        </g>
        <g
           id="g5311"
           transform="translate(340.2487,124.5562)">
          <path
             d="m 0,0 c 0.189,0.341 0.349,0.695 0.469,1.07 0.328,1.053 0.117,2.08 -0.51,2.991 -0.688,1.006 -1.856,1.621 -3.074,1.621 L -38.334,5.658 c -1.719,0 -3.332,-1.224 -3.66,-2.94 -0.172,-0.89 -0.071,-1.766 0.384,-2.559 l 17.582,-30.515 c 0.698,-1.207 1.827,-1.963 3.248,-1.956 1.139,10e-4 2.434,0.565 3.026,1.586 L 0,0 z"
             style="fill:#ffffff;fill-opacity:1;fill-rule:evenodd;stroke:none"
             id="path5313"
             inkscape:connector-curvature="0" />
        </g>
        <g
           id="g5315"
           transform="translate(308.5257,123.4673)">
          <path
             d="m 0,0 -1.439,3.212 -1.397,0 2.196,-4.915 0,-4.154 1.283,0 0,4.154 2.193,4.915 -1.396,0 L 0,0 z"
             style="fill:#bf2519;fill-opacity:1;fill-rule:evenodd;stroke:none"
             id="path5317"
             inkscape:connector-curvature="0" />
        </g>
        <g
           id="g5319"
           transform="translate(317.3477,121.8609)">
          <path
             d="m 0,0 1.926,0 0,1.271 -1.926,0 0,2.268 3.123,0 0,1.279 -4.392,0 0,-9.069 4.535,0 0,1.266 L 0,-2.985 0,0 z"
             style="fill:#bf2519;fill-opacity:1;fill-rule:evenodd;stroke:none"
             id="path5321"
             inkscape:connector-curvature="0" />
        </g>
        <g
           id="g5323"
           transform="translate(323.4227,126.6792)">
          <path
             d="m 0,0 -1.272,0 0,-9.069 4.537,0 0,1.203 L 0,-7.866 0,0 z"
             style="fill:#bf2519;fill-opacity:1;fill-rule:evenodd;stroke:none"
             id="path5325"
             inkscape:connector-curvature="0" />
        </g>
        <g
           id="g5327"
           transform="translate(331.6567,119.8862)">
          <path
             d="m 0,0 c -0.145,-0.586 -0.66,-1.011 -1.273,-1.011 l -0.893,0 0,6.525 0.926,0 c 0.556,0 1.068,-0.375 1.222,-0.913 C 0.193,3.854 0.24,3.027 0.244,2.257 0.244,1.503 0.187,0.731 0,0 M 1.352,4.282 C 1.225,5.035 0.967,5.75 0.344,6.238 -0.1,6.593 -0.666,6.793 -1.24,6.793 l -2.198,0 0,-9.069 2.198,0 c 0.621,0.036 1.101,0.163 1.605,0.562 0.836,0.665 0.987,1.681 1.096,2.673 0.123,1.104 0.084,2.229 -0.109,3.323"
             style="fill:#bf2519;fill-opacity:1;fill-rule:evenodd;stroke:none"
             id="path5329"
             inkscape:connector-curvature="0" />
        </g>
        <path
           d="m 312.899,117.61 1.264,0 0,9.069 -1.264,0 0,-9.069 z"
           style="fill:#bf2519;fill-opacity:1;fill-rule:evenodd;stroke:none"
           id="path5331"
           inkscape:connector-curvature="0" />
      </g>
    </g>
  </g>
</svg>
