<?xml version="1.0" encoding="UTF-8" standalone="no"?>
<!-- Created with Inkscape (http://www.inkscape.org/) -->

<svg
   xmlns:dc="http://purl.org/dc/elements/1.1/"
   xmlns:cc="http://creativecommons.org/ns#"
   xmlns:rdf="http://www.w3.org/1999/02/22-rdf-syntax-ns#"
   xmlns:svg="http://www.w3.org/2000/svg"
   xmlns="http://www.w3.org/2000/svg"
   xmlns:sodipodi="http://sodipodi.sourceforge.net/DTD/sodipodi-0.dtd"
   xmlns:inkscape="http://www.inkscape.org/namespaces/inkscape"
   width="62.5"
   height="23.828125"
   id="svg5758"
   version="1.1"
   inkscape:version="0.48.1 "
   sodipodi:docname="New document 35">
  <defs
     id="defs5760">
    <clipPath
       clipPathUnits="userSpaceOnUse"
       id="clipPath5381">
      <path
         inkscape:connector-curvature="0"
         d="m 63.125,45.1 513.125,0 0,124.609 -513.125,0 0,-124.609 z"
         id="path5383" />
    </clipPath>
  </defs>
  <sodipodi:namedview
     id="base"
     pagecolor="#ffffff"
     bordercolor="#666666"
     borderopacity="1.0"
     inkscape:pageopacity="0.0"
     inkscape:pageshadow="2"
     inkscape:zoom="1.4"
     inkscape:cx="67.566146"
     inkscape:cy="2.9142598"
     inkscape:document-units="px"
     inkscape:current-layer="layer1"
     showgrid="false"
     fit-margin-top="0"
     fit-margin-left="0"
     fit-margin-right="0"
     fit-margin-bottom="0"
     inkscape:window-width="635"
     inkscape:window-height="435"
     inkscape:window-x="661"
     inkscape:window-y="88"
     inkscape:window-maximized="1" />
  <metadata
     id="metadata5763">
    <rdf:RDF>
      <cc:Work
         rdf:about="">
        <dc:format>image/svg+xml</dc:format>
        <dc:type
           rdf:resource="http://purl.org/dc/dcmitype/StillImage" />
        <dc:title></dc:title>
      </cc:Work>
    </rdf:RDF>
  </metadata>
  <g
     inkscape:label="Layer 1"
     inkscape:groupmode="layer"
     id="layer1"
     transform="translate(-3.075e-4,0)">
    <g
       transform="matrix(1.25,0,0,-1.25,-231.20463,98.592)"
       id="g5377">
      <g
         id="g5379"
         clip-path="url(#clipPath5381)">
        <g
           id="g5385"
           transform="translate(188.3077,78.6236)">
          <path
             inkscape:connector-curvature="0"
             d="m 0,0 43.316,0 c 1.702,0 3.093,-1.39 3.093,-3.094 l 0,-12.375 c 0,-1.703 -1.391,-3.094 -3.093,-3.094 l -43.316,0 c -1.705,0 -3.094,1.391 -3.094,3.094 l 0,12.375 C -3.094,-1.39 -1.705,0 0,0"
             style="fill:#ffffff;fill-opacity:1;fill-rule:nonzero;stroke:none"
             id="path5387" />
        </g>
        <g
           id="g5389"
           transform="translate(188.3077,78.6236)">
          <path
             inkscape:connector-curvature="0"
             d="m 0,0 43.316,0 c 1.702,0 3.093,-1.39 3.093,-3.094 l 0,-12.375 c 0,-1.703 -1.391,-3.094 -3.093,-3.094 l -43.316,0 c -1.705,0 -3.094,1.391 -3.094,3.094 l 0,12.375 C -3.094,-1.39 -1.705,0 0,0 z"
             style="fill:none;stroke:#231f20;stroke-width:0.5;stroke-linecap:butt;stroke-linejoin:miter;stroke-miterlimit:4;stroke-opacity:1;stroke-dasharray:none"
             id="path5391" />
        </g>
        <g
           id="g5393"
           transform="translate(186.2447,63.155)">
          <path
             inkscape:connector-curvature="0"
             d="m 0,0 0,12.375 c 0,1.138 0.925,2.062 2.063,2.062 l 43.316,0 c 1.136,0 2.061,-0.924 2.061,-2.062 L 47.44,0 c 0,-1.138 -0.925,-2.063 -2.061,-2.063 l -43.316,0 C 0.925,-2.063 0,-1.138 0,0"
             style="fill:#bf2519;fill-opacity:1;fill-rule:nonzero;stroke:none"
             id="path5395" />
        </g>
        <g
           id="g5397"
           transform="translate(206.8937,65.222)">
          <path
             inkscape:connector-curvature="0"
             d="m 0,0 0,1.089 -3.02,0 0,7.152 -1.187,0 L -4.207,0 0,0 z m -5.321,0 0,1.089 -3.021,0 0,7.152 -1.187,0 0,-8.241 4.208,0 z m -7.401,3.415 -1.188,0 0.593,2.376 0.595,-2.376 z M -10.668,0 l -2.054,8.241 -1.163,0 L -15.94,0 l 1.189,0 0.569,2.252 1.758,0 0.568,-2.252 1.188,0 z"
             style="fill:#ffffff;fill-opacity:1;fill-rule:evenodd;stroke:none"
             id="path5399" />
        </g>
        <g
           id="g5401"
           transform="translate(230.9777,73.4634)">
          <path
             inkscape:connector-curvature="0"
             d="M 0,0 -1.287,0 -2.651,-2.97 -4.037,0 l -1.237,0 2.03,-4.504 0,-3.737 1.189,0 0,3.737 L 0,0 z m -7.823,-4.826 -1.189,0 0.57,2.375 0.619,-2.375 z M -5.77,-8.241 -7.823,0 l -1.164,0 -2.054,-8.241 1.187,0 0.545,2.252 1.758,0 0.594,-2.252 1.187,0 z M -11.535,0 l -1.164,0 -0.717,-4.38 -0.793,4.38 -0.916,0 -0.817,-4.38 -0.693,4.38 -1.162,0 1.31,-8.241 1.041,0 0.766,4.306 0.793,-4.306 1.015,0 1.337,8.241 z"
             style="fill:#ffffff;fill-opacity:1;fill-rule:evenodd;stroke:none"
             id="path5403" />
        </g>
      </g>
    </g>
  </g>
</svg>
