<?xml version="1.0" encoding="UTF-8" standalone="no"?>
<!-- Created with Inkscape (http://www.inkscape.org/) -->

<svg
   xmlns:dc="http://purl.org/dc/elements/1.1/"
   xmlns:cc="http://creativecommons.org/ns#"
   xmlns:rdf="http://www.w3.org/1999/02/22-rdf-syntax-ns#"
   xmlns:svg="http://www.w3.org/2000/svg"
   xmlns="http://www.w3.org/2000/svg"
   xmlns:sodipodi="http://sodipodi.sourceforge.net/DTD/sodipodi-0.dtd"
   xmlns:inkscape="http://www.inkscape.org/namespaces/inkscape"
   width="136.245"
   height="136.24625"
   id="svg7650"
   version="1.1"
   inkscape:version="0.48.1 "
   sodipodi:docname="New document 48">
  <defs
     id="defs7652">
    <clipPath
       clipPathUnits="userSpaceOnUse"
       id="clipPath6219">
      <path
         inkscape:connector-curvature="0"
         d="m 63.125,311.5 512.875,0 0,430.5 -512.875,0 0,-430.5 z"
         id="path6221" />
    </clipPath>
  </defs>
  <sodipodi:namedview
     id="base"
     pagecolor="#ffffff"
     bordercolor="#666666"
     borderopacity="1.0"
     inkscape:pageopacity="0.0"
     inkscape:pageshadow="2"
     inkscape:zoom="0.98994949"
     inkscape:cx="142.26315"
     inkscape:cy="39.2878"
     inkscape:document-units="px"
     inkscape:current-layer="layer1"
     showgrid="false"
     fit-margin-top="0"
     fit-margin-left="0"
     fit-margin-right="0"
     fit-margin-bottom="0"
     inkscape:window-width="635"
     inkscape:window-height="425"
     inkscape:window-x="75"
     inkscape:window-y="75"
     inkscape:window-maximized="0" />
  <metadata
     id="metadata7655">
    <rdf:RDF>
      <cc:Work
         rdf:about="">
        <dc:format>image/svg+xml</dc:format>
        <dc:type
           rdf:resource="http://purl.org/dc/dcmitype/StillImage" />
        <dc:title></dc:title>
      </cc:Work>
    </rdf:RDF>
  </metadata>
  <g
     inkscape:label="Layer 1"
     inkscape:groupmode="layer"
     id="layer1"
     transform="translate(-5e-6,0)">
    <g
       id="g6215"
       transform="matrix(1.25,0,0,-1.25,-413.67912,850.3835)">
      <g
         id="g6217"
         clip-path="url(#clipPath6219)">
        <g
           id="g6223"
           transform="translate(439.6893,580.6008)">
          <path
             d="m 0,0 c 0,-4.993 -4.047,-9.041 -9.041,-9.041 l -90.414,0 c -4.994,0 -9.041,4.048 -9.041,9.041 l 0,90.414 c 0,4.994 4.047,9.042 9.041,9.042 l 90.414,0 C -4.047,99.456 0,95.408 0,90.414 L 0,0 z"
             style="fill:#ffffff;fill-opacity:1;fill-rule:nonzero;stroke:none"
             id="path6225"
             inkscape:connector-curvature="0" />
        </g>
        <g
           id="g6227"
           transform="translate(439.6893,580.6008)">
          <path
             d="m 0,0 c 0,-4.993 -4.047,-9.041 -9.041,-9.041 l -90.414,0 c -4.994,0 -9.041,4.048 -9.041,9.041 l 0,90.414 c 0,4.994 4.047,9.042 9.041,9.042 l 90.414,0 C -4.047,99.456 0,95.408 0,90.414 L 0,0 z"
             style="fill:none;stroke:#231f20;stroke-width:0.5;stroke-linecap:butt;stroke-linejoin:miter;stroke-miterlimit:4;stroke-opacity:1;stroke-dasharray:none"
             id="path6229"
             inkscape:connector-curvature="0" />
        </g>
        <g
           id="g6231"
           transform="translate(433.6623,580.6008)">
          <path
             d="m 0,0 c 0,-1.662 -1.352,-3.013 -3.014,-3.013 l -90.414,0 c -1.662,0 -3.014,1.351 -3.014,3.013 l 0,90.414 c 0,1.663 1.352,3.014 3.014,3.014 l 90.414,0 C -1.352,93.428 0,92.077 0,90.414 L 0,0 z m -3.014,97.196 -90.414,0 c -3.74,0 -6.781,-3.042 -6.781,-6.782 l 0,-90.414 c 0,-3.739 3.041,-6.781 6.781,-6.781 l 90.414,0 c 3.74,0 6.781,3.042 6.781,6.781 l 0,90.414 c 0,3.74 -3.041,6.782 -6.781,6.782"
             style="fill:#231f20;fill-opacity:1;fill-rule:nonzero;stroke:none"
             id="path6233"
             inkscape:connector-curvature="0" />
        </g>
        <g
           id="g6235"
           transform="translate(410.8773,628.1438)">
          <path
             d="M 0,0 C 1.894,0 3.439,-1.545 3.439,-3.439 3.439,-5.334 1.894,-6.88 0,-6.88 c -1.895,0 -3.44,1.546 -3.44,3.441 C -3.44,-1.545 -1.895,0 0,0"
             style="fill:#231f20;fill-opacity:1;fill-rule:evenodd;stroke:none"
             id="path6237"
             inkscape:connector-curvature="0" />
        </g>
        <g
           id="g6239"
           transform="translate(400.4613,606.4529)">
          <path
             d="m 0,0 7.216,4.811 c 0.334,1.41 1.717,7.669 4.493,9.118 2.75,1.817 12.886,-5.65 12.945,-5.712 l 0,-10.893 -2.197,0.382 -0.862,8.696 c -0.828,0.166 -1.656,0.333 -2.484,0.5 1.811,-4.679 2.475,-9.188 1.434,-12.158 l 4.396,-17.966 -2.963,-2.102 -6.402,16.628 -2.963,-3.154 -4.109,-12.518 -3.918,1.432 3.537,13.188 4.109,7.359 -1.576,5.43 L 8.982,0.859 1.146,-1.721 0,0 z"
             style="fill:#231f20;fill-opacity:1;fill-rule:evenodd;stroke:none"
             id="path6241"
             inkscape:connector-curvature="0" />
        </g>
        <g
           id="g6243"
           transform="translate(357.4923,597.4858)">
          <path
             d="M 0,0 6.465,-2.514 C 7.096,-2.744 7.51,-3.359 7.476,-4.031 7.437,-4.822 6.791,-5.457 6.004,-5.476 l -17.797,-2.451 -0.033,0.035 3.179,17.681 c 0.053,0.785 0.713,1.405 1.504,1.411 0.674,0.006 1.274,-0.434 1.475,-1.072 l 2.172,-6.315 c 7.994,7.137 18.336,11.035 29.017,11.035 3.221,0 6.782,-0.51 9.805,-1.213 l -0.16,-9.657 c -4.168,1.661 -9.213,2.7 -13.813,2.7 C 13.785,6.677 6.219,4.154 0,0"
             style="fill:#231f20;fill-opacity:1;fill-rule:evenodd;stroke:none"
             id="path6245"
             inkscape:connector-curvature="0" />
        </g>
        <g
           id="g6247"
           transform="translate(350.6953,616.0889)">
          <path
             d="m 0,0 0,5.453 -3.299,0 0,-5.453 -1.732,0 0,12.048 1.732,0 0,-4.904 3.299,0 0,4.904 1.734,0 L 1.734,0 0,0 z"
             style="fill:#231f20;fill-opacity:1;fill-rule:nonzero;stroke:none"
             id="path6249"
             inkscape:connector-curvature="0" />
        </g>
        <g
           id="g6251"
           transform="translate(355.0083,616.0889)">
          <path
             d="m 0,0 0,12.048 5.664,0 0,-1.692 -3.932,0 0,-3.043 2.494,0 0,-1.648 -2.494,0 0,-3.974 4.396,0 L 6.128,0 0,0 z"
             style="fill:#231f20;fill-opacity:1;fill-rule:nonzero;stroke:none"
             id="path6253"
             inkscape:connector-curvature="0" />
        </g>
        <g
           id="g6255"
           transform="translate(366.6753,626.4448)">
          <path
             d="m 0,0 -1.775,0 0,-3.043 1.775,0 c 1.014,0 1.565,0.55 1.565,1.522 C 1.565,-0.591 0.93,0 0,0 m 1.479,-10.356 -1.605,5.665 -1.649,0 0,-5.665 -1.734,0 0,12.048 3.593,0 c 1.903,0 3.17,-1.268 3.17,-3.213 0,-1.437 -0.591,-2.494 -1.732,-2.917 l 1.732,-5.918 -1.775,0 z"
             style="fill:#231f20;fill-opacity:1;fill-rule:nonzero;stroke:none"
             id="path6257"
             inkscape:connector-curvature="0" />
        </g>
        <g
           id="g6259"
           transform="translate(371.9183,616.0889)">
          <path
             d="m 0,0 0,12.048 5.664,0 0,-1.692 -3.932,0 0,-3.043 2.494,0 0,-1.648 -2.494,0 0,-3.974 4.397,0 L 6.129,0 0,0 z"
             style="fill:#231f20;fill-opacity:1;fill-rule:nonzero;stroke:none"
             id="path6261"
             inkscape:connector-curvature="0" />
        </g>
        <g
           id="g6263"
           transform="translate(365.8513,658.9059)">
          <path
             d="m 0,0 11.479,11.473 16.207,0 L 39.18,0 l 0,-16.233 -11.494,-11.474 -16.207,0 L 0,-16.233 0,0 z"
             style="fill:#bf2519;fill-opacity:1;fill-rule:evenodd;stroke:none"
             id="path6265"
             inkscape:connector-curvature="0" />
        </g>
        <g
           id="g6267"
           transform="translate(371.2733,643.6832)">
          <path
             d="m 0,0 c -2.406,0 -3.849,2.021 -3.849,4.283 l 1.923,0 c 0,-1.154 0.578,-2.357 1.926,-2.357 1.059,0 1.926,0.962 1.926,2.068 0,0.771 -0.289,1.348 -1.108,1.974 -0.289,0.288 0.481,-0.241 -2.31,1.636 -1.107,0.77 -1.684,1.83 -1.684,3.033 0,1.972 1.539,3.56 3.512,3.56 1.926,0 3.418,-1.492 3.467,-3.56 l -1.877,0 c -0.049,0.962 -0.723,1.588 -1.59,1.588 -0.914,0 -1.635,-0.674 -1.635,-1.588 C -1.299,9.963 -1.01,9.577 0,9 2.647,7.46 3.803,5.968 3.803,3.994 3.803,1.781 2.117,0 0,0"
             style="fill:#ffffff;fill-opacity:1;fill-rule:nonzero;stroke:none"
             id="path6269"
             inkscape:connector-curvature="0" />
        </g>
        <g
           id="g6271"
           transform="translate(380.8023,655.8113)">
          <path
             d="m 0,0 0,-11.888 -1.972,0 0,11.888 -2.504,0 0,1.829 6.978,0 L 2.502,0 0,0 z"
             style="fill:#ffffff;fill-opacity:1;fill-rule:nonzero;stroke:none"
             id="path6273"
             inkscape:connector-curvature="0" />
        </g>
        <g
           id="g6275"
           transform="translate(390.6683,654.2233)">
          <path
             d="m 0,0 c -0.336,1.203 -0.868,1.732 -1.684,1.732 -0.867,0 -1.396,-0.529 -1.734,-1.684 -0.336,-1.059 -0.432,-1.973 -0.432,-3.514 0,-1.491 0.145,-2.357 0.432,-3.465 0.338,-1.154 0.867,-1.683 1.734,-1.683 0.816,0 1.348,0.529 1.684,1.683 0.338,1.108 0.433,1.926 0.433,3.514 C 0.433,-1.877 0.289,-1.011 0,0 m 1.539,-8.183 c -0.672,-1.635 -1.684,-2.357 -3.223,-2.357 -1.637,0 -2.6,0.722 -3.273,2.357 -0.578,1.348 -0.77,2.649 -0.77,4.766 0,2.069 0.192,3.465 0.77,4.765 0.722,1.635 1.683,2.309 3.273,2.309 1.588,0 2.551,-0.674 3.223,-2.357 0.578,-1.348 0.771,-2.648 0.771,-4.717 0,-2.117 -0.193,-3.465 -0.771,-4.766"
             style="fill:#ffffff;fill-opacity:1;fill-rule:nonzero;stroke:none"
             id="path6277"
             inkscape:connector-curvature="0" />
        </g>
        <g
           id="g6279"
           transform="translate(399.7153,655.7156)">
          <path
             d="m 0,0 -2.02,0 0,-3.899 2.02,0 c 1.156,0 1.781,0.722 1.781,1.974 C 1.781,-0.771 1.06,0 0,0 m 0.097,-5.776 -2.117,0 0,-6.016 -1.975,0 0,13.717 4.092,0 c 2.166,0 3.61,-1.54 3.61,-3.85 0,-2.504 -1.299,-3.851 -3.61,-3.851"
             style="fill:#ffffff;fill-opacity:1;fill-rule:nonzero;stroke:none"
             id="path6281"
             inkscape:connector-curvature="0" />
        </g>
        <g
           id="g6283"
           transform="translate(379.6563,596.3008)">
          <path
             d="m 0,0 -4.463,0 0,-3.139 2.654,0 0,-1.686 -2.654,0 0,-5.545 -1.685,0 0,12.054 L 0,1.684 0,0 z"
             style="fill:#231f20;fill-opacity:1;fill-rule:nonzero;stroke:none"
             id="path6285"
             inkscape:connector-curvature="0" />
        </g>
        <g
           id="g6287"
           transform="translate(386.5333,591.9579)">
          <path
             d="m 0,0 c 0,1.03 -0.104,1.929 -0.313,2.693 -0.314,1.183 -0.834,1.775 -1.56,1.775 -0.725,0 -1.244,-0.592 -1.559,-1.775 C -3.641,1.929 -3.746,1.03 -3.746,0 c 0,-1.03 0.105,-1.929 0.314,-2.694 0.315,-1.183 0.834,-1.775 1.559,-1.775 0.726,0 1.246,0.592 1.56,1.775 C -0.104,-1.929 0,-1.03 0,0 m 1.685,0 c 0,-1.48 -0.168,-2.706 -0.505,-3.68 -0.58,-1.649 -1.596,-2.473 -3.053,-2.473 -1.455,0 -2.473,0.824 -3.051,2.473 -0.338,0.974 -0.506,2.2 -0.506,3.68 0,4.102 1.186,6.153 3.557,6.153 C 0.5,6.153 1.685,4.102 1.685,0"
             style="fill:#231f20;fill-opacity:1;fill-rule:nonzero;stroke:none"
             id="path6289"
             inkscape:connector-curvature="0" />
        </g>
        <g
           id="g6291"
           transform="translate(395.6913,594.7299)">
          <path
             d="m 0,0 c 0,0.998 -0.416,1.522 -1.244,1.571 l -2.137,0 0,-3.139 2.137,0 C -0.416,-1.521 0,-0.998 0,0 m 1.684,-8.799 -1.748,0 -1.592,5.545 -1.725,0 0,-5.545 -1.685,0 0,12.054 3.738,0 C -0.685,3.2 -0.324,3.162 -0.244,3.147 0.311,3.018 0.744,2.753 1.057,2.352 1.475,1.813 1.684,1.03 1.684,0 1.684,-1.486 1.127,-2.466 0.01,-2.941 l 1.674,-5.858 z"
             style="fill:#231f20;fill-opacity:1;fill-rule:nonzero;stroke:none"
             id="path6293"
             inkscape:connector-curvature="0" />
        </g>
      </g>
    </g>
  </g>
</svg>
