<?xml version="1.0" encoding="UTF-8" standalone="no"?>
<!-- Created with Inkscape (http://www.inkscape.org/) -->

<svg
   xmlns:dc="http://purl.org/dc/elements/1.1/"
   xmlns:cc="http://creativecommons.org/ns#"
   xmlns:rdf="http://www.w3.org/1999/02/22-rdf-syntax-ns#"
   xmlns:svg="http://www.w3.org/2000/svg"
   xmlns="http://www.w3.org/2000/svg"
   xmlns:sodipodi="http://sodipodi.sourceforge.net/DTD/sodipodi-0.dtd"
   xmlns:inkscape="http://www.inkscape.org/namespaces/inkscape"
   width="136.24463"
   height="181.45375"
   id="svg7818"
   version="1.1"
   inkscape:version="0.48.1 "
   sodipodi:docname="New document 50">
  <defs
     id="defs7820">
    <clipPath
       clipPathUnits="userSpaceOnUse"
       id="clipPath6549">
      <path
         inkscape:connector-curvature="0"
         d="m 63.125,311.5 512.875,0 0,430.5 -512.875,0 0,-430.5 z"
         id="path6551" />
    </clipPath>
    <clipPath
       clipPathUnits="userSpaceOnUse"
       id="clipPath6537">
      <path
         inkscape:connector-curvature="0"
         d="m 67.195,314.84 504.618,0 0,423.82 -504.618,0 0,-423.82 z"
         id="path6539" />
    </clipPath>
    <clipPath
       clipPathUnits="userSpaceOnUse"
       id="clipPath6525">
      <path
         inkscape:connector-curvature="0"
         d="m 63.125,311.5 512.875,0 0,430.5 -512.875,0 0,-430.5 z"
         id="path6527" />
    </clipPath>
  </defs>
  <sodipodi:namedview
     id="base"
     pagecolor="#ffffff"
     bordercolor="#666666"
     borderopacity="1.0"
     inkscape:pageopacity="0.0"
     inkscape:pageshadow="2"
     inkscape:zoom="0.98994949"
     inkscape:cx="34.853265"
     inkscape:cy="116.15846"
     inkscape:document-units="px"
     inkscape:current-layer="layer1"
     showgrid="false"
     fit-margin-top="0"
     fit-margin-left="0"
     fit-margin-right="0"
     fit-margin-bottom="0"
     inkscape:window-width="469"
     inkscape:window-height="425"
     inkscape:window-x="125"
     inkscape:window-y="125"
     inkscape:window-maximized="0" />
  <metadata
     id="metadata7823">
    <rdf:RDF>
      <cc:Work
         rdf:about="">
        <dc:format>image/svg+xml</dc:format>
        <dc:type
           rdf:resource="http://purl.org/dc/dcmitype/StillImage" />
        <dc:title></dc:title>
      </cc:Work>
    </rdf:RDF>
  </metadata>
  <g
     inkscape:label="Layer 1"
     inkscape:groupmode="layer"
     id="layer1"
     transform="translate(-0.449115,-0.62519)">
    <g
       id="g6521"
       transform="matrix(1.25,0,0,-1.25,-578.07251,896.21619)">
      <g
         id="g6523"
         clip-path="url(#clipPath6525)">
        <g
           id="g6529"
           transform="translate(571.5633,580.6008)">
          <path
             d="m 0,0 c 0,-4.993 -4.048,-9.041 -9.041,-9.041 l -90.414,0 c -4.994,0 -9.041,4.048 -9.041,9.041 l 0,126.581 c 0,4.993 4.047,9.041 9.041,9.041 l 90.414,0 c 4.993,0 9.041,-4.048 9.041,-9.041 L 0,0 z"
             style="fill:#ffffff;fill-opacity:1;fill-rule:nonzero;stroke:none"
             id="path6531"
             inkscape:connector-curvature="0" />
        </g>
      </g>
    </g>
    <g
       id="g6533"
       transform="matrix(1.25,0,0,-1.25,-578.07251,896.21619)">
      <g
         id="g6535"
         clip-path="url(#clipPath6537)">
        <g
           id="g6541"
           transform="translate(571.5633,580.6008)">
          <path
             d="m 0,0 c 0,-4.993 -4.048,-9.041 -9.041,-9.041 l -90.414,0 c -4.994,0 -9.041,4.048 -9.041,9.041 l 0,126.581 c 0,4.993 4.047,9.041 9.041,9.041 l 90.414,0 c 4.993,0 9.041,-4.048 9.041,-9.041 L 0,0 z"
             style="fill:none;stroke:#231f20;stroke-width:0.5;stroke-linecap:butt;stroke-linejoin:miter;stroke-miterlimit:4;stroke-opacity:1;stroke-dasharray:none"
             id="path6543"
             inkscape:connector-curvature="0" />
        </g>
      </g>
    </g>
    <g
       id="g6545"
       transform="matrix(1.25,0,0,-1.25,-578.07251,896.21619)">
      <g
         id="g6547"
         clip-path="url(#clipPath6549)">
        <g
           id="g6553"
           transform="translate(565.5363,580.6008)">
          <path
             d="m 0,0 c 0,-1.661 -1.353,-3.013 -3.014,-3.013 l -90.414,0 c -1.662,0 -3.014,1.352 -3.014,3.013 l 0,126.581 c 0,1.661 1.352,3.013 3.014,3.013 l 90.414,0 c 1.661,0 3.014,-1.352 3.014,-3.013 L 0,0 z m -3.014,133.362 -90.414,0 c -3.739,0 -6.781,-3.042 -6.781,-6.781 l 0,-126.581 c 0,-3.738 3.042,-6.78 6.781,-6.78 l 90.414,0 c 3.738,0 6.78,3.042 6.78,6.78 l 0,126.581 c 0,3.739 -3.042,6.781 -6.78,6.781"
             style="fill:#231f20;fill-opacity:1;fill-rule:nonzero;stroke:none"
             id="path6555"
             inkscape:connector-curvature="0" />
        </g>
        <g
           id="g6557"
           transform="translate(479.4313,639.0768)">
          <path
             d="m 0,0 0,5.453 -3.298,0 0,-5.453 -1.732,0 0,12.048 1.732,0 0,-4.905 3.298,0 0,4.905 1.734,0 L 1.734,0 0,0 z"
             style="fill:#231f20;fill-opacity:1;fill-rule:nonzero;stroke:none"
             id="path6559"
             inkscape:connector-curvature="0" />
        </g>
        <g
           id="g6561"
           transform="translate(483.7853,639.0768)">
          <path
             d="m 0,0 0,12.048 5.665,0 0,-1.692 -3.932,0 0,-3.042 2.494,0 0,-1.649 -2.494,0 0,-3.975 4.397,0 L 6.13,0 0,0 z"
             style="fill:#231f20;fill-opacity:1;fill-rule:nonzero;stroke:none"
             id="path6563"
             inkscape:connector-curvature="0" />
        </g>
        <g
           id="g6565"
           transform="translate(495.4523,649.4332)">
          <path
             d="m 0,0 -1.776,0 0,-3.043 1.776,0 c 1.015,0 1.564,0.549 1.564,1.522 C 1.564,-0.592 0.931,0 0,0 m 1.48,-10.356 -1.606,5.665 -1.65,0 0,-5.665 -1.732,0 0,12.047 3.594,0 c 1.902,0 3.17,-1.267 3.17,-3.212 0,-1.438 -0.592,-2.495 -1.734,-2.917 l 1.734,-5.918 -1.776,0 z"
             style="fill:#231f20;fill-opacity:1;fill-rule:nonzero;stroke:none"
             id="path6567"
             inkscape:connector-curvature="0" />
        </g>
        <g
           id="g6569"
           transform="translate(500.7373,639.0768)">
          <path
             d="m 0,0 0,12.048 5.664,0 0,-1.692 -3.932,0 0,-3.042 2.495,0 0,-1.649 -2.495,0 0,-3.975 4.398,0 L 6.13,0 0,0 z"
             style="fill:#231f20;fill-opacity:1;fill-rule:nonzero;stroke:none"
             id="path6571"
             inkscape:connector-curvature="0" />
        </g>
        <g
           id="g6573"
           transform="translate(477.8903,596.3759)">
          <path
             d="m 0,0 -1.775,0 0,-3.424 1.775,0 c 1.015,0 1.565,0.634 1.565,1.732 C 1.565,-0.676 0.931,0 0,0 m 0.085,-5.073 -1.86,0 0,-5.285 -1.733,0 0,12.048 3.593,0 c 1.903,0 3.17,-1.352 3.17,-3.382 0,-2.197 -1.14,-3.381 -3.17,-3.381"
             style="fill:#231f20;fill-opacity:1;fill-rule:nonzero;stroke:none"
             id="path6575"
             inkscape:connector-curvature="0" />
        </g>
        <g
           id="g6577"
           transform="translate(482.7943,586.0178)">
          <path
             d="m 0,0 0,12.048 5.665,0 0,-1.69 -3.932,0 0,-3.044 2.494,0 0,-1.649 -2.494,0 0,-3.973 4.397,0 L 6.13,0 0,0 z"
             style="fill:#231f20;fill-opacity:1;fill-rule:nonzero;stroke:none"
             id="path6579"
             inkscape:connector-curvature="0" />
        </g>
        <g
           id="g6581"
           transform="translate(495.6883,595.1488)">
          <path
             d="m 0,0 c -0.297,0.847 -0.804,1.227 -1.564,1.227 l -1.438,0 0,-8.666 1.438,0 c 1.013,0 1.564,0.803 1.732,1.732 0.085,0.761 0.17,1.607 0.17,2.537 C 0.338,-1.817 0.211,-0.507 0,0 m 0.295,-8.582 c -0.422,-0.38 -1.014,-0.549 -1.69,-0.549 l -3.34,0 0,12.048 3.086,0 c 1.014,0 1.522,-0.126 1.944,-0.465 0.719,-0.506 1.227,-1.436 1.438,-2.663 0.17,-0.887 0.296,-1.944 0.296,-2.875 0,-2.79 -0.549,-4.565 -1.734,-5.496"
             style="fill:#231f20;fill-opacity:1;fill-rule:nonzero;stroke:none"
             id="path6583"
             inkscape:connector-curvature="0" />
        </g>
        <g
           id="g6585"
           transform="translate(500.0843,586.0178)">
          <path
             d="m 0,0 0,12.048 5.665,0 0,-1.69 -3.932,0 0,-3.044 2.494,0 0,-1.649 -2.494,0 0,-3.973 4.397,0 L 6.13,0 0,0 z"
             style="fill:#231f20;fill-opacity:1;fill-rule:nonzero;stroke:none"
             id="path6587"
             inkscape:connector-curvature="0" />
        </g>
        <g
           id="g6589"
           transform="translate(511.0333,585.8069)">
          <path
             d="m 0,0 c -2.114,0 -3.382,1.776 -3.382,3.762 l 1.69,0 c 0,-1.014 0.508,-2.071 1.692,-2.071 0.93,0 1.691,0.846 1.691,1.817 0,0.677 -0.254,1.184 -0.972,1.734 -0.254,0.254 0.422,-0.211 -2.03,1.438 -0.972,0.676 -1.479,1.606 -1.479,2.662 0,1.734 1.352,3.129 3.086,3.129 1.691,0 3.001,-1.31 3.044,-3.129 l -1.649,0 c -0.043,0.847 -0.634,1.396 -1.395,1.396 -0.803,0 -1.438,-0.592 -1.438,-1.396 C -1.142,8.751 -0.888,8.413 0,7.906 2.324,6.552 3.34,5.242 3.34,3.508 3.34,1.564 1.859,0 0,0"
             style="fill:#231f20;fill-opacity:1;fill-rule:nonzero;stroke:none"
             id="path6591"
             inkscape:connector-curvature="0" />
        </g>
        <g
           id="g6593"
           transform="translate(519.4033,596.4608)">
          <path
             d="m 0,0 0,-10.443 -1.733,0 0,10.443 -2.199,0 0,1.605 6.13,0 L 2.198,0 0,0 z"
             style="fill:#231f20;fill-opacity:1;fill-rule:nonzero;stroke:none"
             id="path6595"
             inkscape:connector-curvature="0" />
        </g>
        <g
           id="g6597"
           transform="translate(526.7583,596.3759)">
          <path
             d="m 0,0 -1.775,0 0,-3.044 1.775,0 c 1.015,0 1.565,0.55 1.565,1.521 C 1.565,-0.592 0.93,0 0,0 m 1.48,-10.358 -1.606,5.665 -1.649,0 0,-5.665 -1.733,0 0,12.048 3.593,0 c 1.903,0 3.17,-1.267 3.17,-3.213 0,-1.436 -0.591,-2.494 -1.733,-2.917 l 1.733,-5.918 -1.775,0 z"
             style="fill:#231f20;fill-opacity:1;fill-rule:nonzero;stroke:none"
             id="path6599"
             inkscape:connector-curvature="0" />
        </g>
        <path
           d="m 532.043,598.066 1.691,0 0,-12.048 -1.691,0 0,12.048 z"
           style="fill:#231f20;fill-opacity:1;fill-rule:nonzero;stroke:none"
           id="path6601"
           inkscape:connector-curvature="0" />
        <g
           id="g6603"
           transform="translate(539.2723,594.4728)">
          <path
             d="m 0,0 -0.846,-3.466 1.733,0 L 0,0 z m 2.155,-8.455 -0.845,3.297 -2.578,0 -0.804,-3.297 -1.734,0 3.002,12.048 1.691,0 3.002,-12.048 -1.734,0 z"
             style="fill:#231f20;fill-opacity:1;fill-rule:nonzero;stroke:none"
             id="path6605"
             inkscape:connector-curvature="0" />
        </g>
        <g
           id="g6607"
           transform="translate(550.2623,586.0178)">
          <path
             d="m 0,0 -3.719,8.075 0,-8.075 -1.735,0 0,12.048 1.735,0 3.297,-7.228 0,7.228 1.733,0 L 1.311,0 0,0 z"
             style="fill:#231f20;fill-opacity:1;fill-rule:nonzero;stroke:none"
             id="path6609"
             inkscape:connector-curvature="0" />
        </g>
        <g
           id="g6611"
           transform="translate(556.9843,585.8069)">
          <path
             d="m 0,0 c -2.114,0 -3.383,1.776 -3.383,3.762 l 1.692,0 c 0,-1.014 0.507,-2.071 1.691,-2.071 0.93,0 1.69,0.846 1.69,1.817 0,0.677 -0.253,1.184 -0.971,1.734 -0.254,0.254 0.422,-0.211 -2.03,1.438 -0.972,0.676 -1.48,1.606 -1.48,2.662 0,1.734 1.354,3.129 3.087,3.129 1.69,0 3.001,-1.31 3.044,-3.129 l -1.65,0 c -0.041,0.847 -0.633,1.396 -1.394,1.396 -0.804,0 -1.438,-0.592 -1.438,-1.396 C -1.142,8.751 -0.888,8.413 0,7.906 2.325,6.552 3.34,5.242 3.34,3.508 3.34,1.564 1.86,0 0,0"
             style="fill:#231f20;fill-opacity:1;fill-rule:nonzero;stroke:none"
             id="path6613"
             inkscape:connector-curvature="0" />
        </g>
        <g
           id="g6615"
           transform="translate(499.3833,618.3298)">
          <path
             d="M 0,0 8.649,-3.363 C 9.491,-3.67 10.047,-4.494 10.002,-5.394 9.95,-6.45 9.086,-7.3 8.033,-7.326 l -23.811,-3.28 -0.044,0.048 4.253,23.656 c 0.07,1.05 0.954,1.878 2.013,1.888 0.9,0.008 1.701,-0.582 1.972,-1.435 l 2.906,-8.45 c 10.696,9.55 24.533,14.766 38.823,14.765 4.309,0 9.072,-0.682 13.118,-1.622 L 47.048,5.322 C 41.472,7.546 34.722,8.934 28.568,8.934 18.443,8.934 8.319,5.558 0,0"
             style="fill:#231f20;fill-opacity:1;fill-rule:evenodd;stroke:none"
             id="path6617"
             inkscape:connector-curvature="0" />
        </g>
        <g
           id="g6619"
           transform="translate(493.2043,689.9645)">
          <path
             d="m 0,0 14.127,14.121 19.948,0 L 48.221,0 l 0,-19.978 L 34.075,-34.1 14.127,-34.1 0,-19.978 0,0 z"
             style="fill:#bf2519;fill-opacity:1;fill-rule:evenodd;stroke:none"
             id="path6621"
             inkscape:connector-curvature="0" />
        </g>
        <g
           id="g6623"
           transform="translate(499.8773,671.2301)">
          <path
             d="m 0,0 c -2.962,0 -4.74,2.487 -4.74,5.271 l 2.37,0 c 0,-1.421 0.71,-2.902 2.37,-2.902 1.302,0 2.369,1.185 2.369,2.547 0,0.948 -0.356,1.658 -1.363,2.429 -0.355,0.355 0.592,-0.297 -2.843,2.013 -1.362,0.948 -2.073,2.251 -2.073,3.732 0,2.429 1.896,4.384 4.325,4.384 2.369,0 4.205,-1.837 4.264,-4.384 l -2.31,0 c -0.06,1.185 -0.888,1.955 -1.954,1.955 -1.126,0 -2.015,-0.829 -2.015,-1.955 0,-0.829 0.356,-1.303 1.6,-2.014 C 3.257,9.181 4.679,7.345 4.679,4.916 4.679,2.191 2.606,0 0,0"
             style="fill:#ffffff;fill-opacity:1;fill-rule:nonzero;stroke:none"
             id="path6625"
             inkscape:connector-curvature="0" />
        </g>
        <g
           id="g6627"
           transform="translate(511.6043,686.1564)">
          <path
             d="m 0,0 0,-14.63 -2.428,0 0,14.63 -3.08,0 0,2.251 8.589,0 L 3.081,0 0,0 z"
             style="fill:#ffffff;fill-opacity:1;fill-rule:nonzero;stroke:none"
             id="path6629"
             inkscape:connector-curvature="0" />
        </g>
        <g
           id="g6631"
           transform="translate(523.7473,684.2018)">
          <path
             d="m 0,0 c -0.415,1.481 -1.067,2.132 -2.073,2.132 -1.067,0 -1.718,-0.651 -2.133,-2.072 -0.414,-1.304 -0.533,-2.43 -0.533,-4.325 0,-1.836 0.177,-2.903 0.533,-4.265 0.415,-1.421 1.066,-2.072 2.133,-2.072 1.006,0 1.658,0.651 2.073,2.072 0.415,1.362 0.533,2.37 0.533,4.324 C 0.533,-2.31 0.355,-1.244 0,0 m 1.895,-10.07 c -0.829,-2.014 -2.073,-2.902 -3.968,-2.902 -2.014,0 -3.199,0.888 -4.028,2.902 -0.711,1.659 -0.948,3.258 -0.948,5.864 0,2.547 0.237,4.266 0.948,5.865 0.889,2.013 2.072,2.843 4.028,2.843 1.955,0 3.139,-0.83 3.968,-2.903 0.711,-1.658 0.949,-3.258 0.949,-5.805 0,-2.606 -0.238,-4.265 -0.949,-5.864"
             style="fill:#ffffff;fill-opacity:1;fill-rule:nonzero;stroke:none"
             id="path6633"
             inkscape:connector-curvature="0" />
        </g>
        <g
           id="g6635"
           transform="translate(534.8833,686.0382)">
          <path
             d="m 0,0 -2.488,0 0,-4.798 2.488,0 c 1.421,0 2.191,0.888 2.191,2.428 C 2.191,-0.948 1.303,0 0,0 m 0.119,-7.108 -2.607,0 0,-7.404 -2.429,0 0,16.881 5.036,0 c 2.665,0 4.441,-1.895 4.441,-4.739 0,-3.08 -1.599,-4.738 -4.441,-4.738"
             style="fill:#ffffff;fill-opacity:1;fill-rule:nonzero;stroke:none"
             id="path6637"
             inkscape:connector-curvature="0" />
        </g>
        <g
           id="g6639"
           transform="translate(528.7123,615.6838)">
          <path
             d="m 0,0 -4.463,0 0,-3.138 2.655,0 0,-1.686 -2.655,0 0,-5.546 -1.685,0 0,12.056 L 0,1.686 0,0 z"
             style="fill:#231f20;fill-opacity:1;fill-rule:nonzero;stroke:none"
             id="path6641"
             inkscape:connector-curvature="0" />
        </g>
        <g
           id="g6643"
           transform="translate(535.5903,611.3418)">
          <path
             d="m 0,0 c 0,1.03 -0.105,1.928 -0.314,2.693 -0.314,1.184 -0.834,1.775 -1.56,1.775 -0.724,0 -1.244,-0.591 -1.558,-1.775 C -3.642,1.928 -3.747,1.03 -3.747,0 c 0,-1.031 0.105,-1.928 0.315,-2.694 0.314,-1.182 0.834,-1.774 1.558,-1.774 0.726,0 1.246,0.592 1.56,1.774 C -0.105,-1.928 0,-1.031 0,0 m 1.685,0 c 0,-1.48 -0.169,-2.706 -0.507,-3.68 -0.579,-1.648 -1.596,-2.474 -3.052,-2.474 -1.455,0 -2.472,0.826 -3.05,2.474 -0.338,0.974 -0.507,2.2 -0.507,3.68 0,4.102 1.185,6.153 3.557,6.153 2.373,0 3.559,-2.051 3.559,-6.153"
             style="fill:#231f20;fill-opacity:1;fill-rule:nonzero;stroke:none"
             id="path6645"
             inkscape:connector-curvature="0" />
        </g>
        <g
           id="g6647"
           transform="translate(544.7473,614.1149)">
          <path
             d="m 0,0 c 0,0.998 -0.415,1.522 -1.243,1.569 l -2.137,0 0,-3.138 2.137,0 C -0.415,-1.521 0,-0.998 0,0 m 1.684,-8.801 -1.748,0 -1.592,5.546 -1.724,0 0,-5.546 -1.686,0 0,12.056 3.737,0 C -0.686,3.198 -0.324,3.162 -0.244,3.146 0.31,3.018 0.744,2.752 1.057,2.351 1.475,1.812 1.684,1.028 1.684,-0.001 c 0,-1.486 -0.558,-2.467 -1.673,-2.941 l 1.673,-5.859 z"
             style="fill:#231f20;fill-opacity:1;fill-rule:nonzero;stroke:none"
             id="path6649"
             inkscape:connector-curvature="0" />
        </g>
      </g>
    </g>
  </g>
</svg>
