<?xml version="1.0" encoding="UTF-8" standalone="no"?>
<!-- Created with Inkscape (http://www.inkscape.org/) -->

<svg
   xmlns:dc="http://purl.org/dc/elements/1.1/"
   xmlns:cc="http://creativecommons.org/ns#"
   xmlns:rdf="http://www.w3.org/1999/02/22-rdf-syntax-ns#"
   xmlns:svg="http://www.w3.org/2000/svg"
   xmlns="http://www.w3.org/2000/svg"
   xmlns:sodipodi="http://sodipodi.sourceforge.net/DTD/sodipodi-0.dtd"
   xmlns:inkscape="http://www.inkscape.org/namespaces/inkscape"
   width="90.626251"
   height="270.63501"
   id="svg8004"
   version="1.1"
   inkscape:version="0.48.1 "
   sodipodi:docname="New document 52">
  <defs
     id="defs8006">
    <clipPath
       clipPathUnits="userSpaceOnUse"
       id="clipPath6681">
      <path
         inkscape:connector-curvature="0"
         d="m 63.125,311.5 512.875,0 0,430.5 -512.875,0 0,-430.5 z"
         id="path6683" />
    </clipPath>
  </defs>
  <sodipodi:namedview
     id="base"
     pagecolor="#ffffff"
     bordercolor="#666666"
     borderopacity="1.0"
     inkscape:pageopacity="0.0"
     inkscape:pageshadow="2"
     inkscape:zoom="0.98994949"
     inkscape:cx="174.12654"
     inkscape:cy="169.79607"
     inkscape:document-units="px"
     inkscape:current-layer="layer1"
     showgrid="false"
     fit-margin-top="0"
     fit-margin-left="0"
     fit-margin-right="0"
     fit-margin-bottom="0"
     inkscape:window-width="809"
     inkscape:window-height="700"
     inkscape:window-x="183"
     inkscape:window-y="0"
     inkscape:window-maximized="0" />
  <metadata
     id="metadata8009">
    <rdf:RDF>
      <cc:Work
         rdf:about="">
        <dc:format>image/svg+xml</dc:format>
        <dc:type
           rdf:resource="http://purl.org/dc/dcmitype/StillImage" />
        <dc:title></dc:title>
      </cc:Work>
    </rdf:RDF>
  </metadata>
  <g
     inkscape:label="Layer 1"
     inkscape:groupmode="layer"
     id="layer1"
     transform="translate(0,-4.9999999e-6)">
    <g
       id="g6677"
       transform="matrix(1.25,0,0,-1.25,-114.94075,682.69988)">
      <g
         id="g6679"
         clip-path="url(#clipPath6681)">
        <g
           id="g6685"
           transform="translate(101.2036,545.9099)">
          <path
             d="m 0,0 54,0 c 4.957,0 9,-4.044 9,-9 l 0,-198.008 c 0,-4.957 -4.043,-9 -9,-9 l -54,0 c -4.957,0 -9.001,4.043 -9.001,9 l 0,198.008 c 0,4.956 4.044,9 9.001,9"
             style="fill:#fccf34;fill-opacity:1;fill-rule:evenodd;stroke:none"
             id="path6687"
             inkscape:connector-curvature="0" />
        </g>
        <g
           id="g6689"
           transform="translate(101.2036,545.9099)">
          <path
             d="m 0,0 54,0 c 4.957,0 9,-4.044 9,-9 l 0,-198.008 c 0,-4.957 -4.043,-9 -9,-9 l -54,0 c -4.957,0 -9.001,4.043 -9.001,9 l 0,198.008 c 0,4.956 4.044,9 9.001,9 z"
             style="fill:none;stroke:#231f20;stroke-width:0.5;stroke-linecap:butt;stroke-linejoin:miter;stroke-miterlimit:4;stroke-opacity:1;stroke-dasharray:none"
             id="path6691"
             inkscape:connector-curvature="0" />
        </g>
        <g
           id="g6693"
           transform="translate(104.2036,506.8768)">
          <path
             d="m 0,0 48,0 c 3.305,0 6,-2.695 6,-6 l 0,-132.006 c 0,-3.305 -2.695,-6 -6,-6 l -48,0 c -3.305,0 -6,2.695 -6,6 L -6,-6 c 0,3.305 2.695,6 6,6"
             style="fill:#231f20;fill-opacity:1;fill-rule:evenodd;stroke:none"
             id="path6695"
             inkscape:connector-curvature="0" />
        </g>
        <g
           id="g6697"
           transform="translate(104.2222,505.3768)">
          <path
             d="M 0,0 27.962,0 44.41,0 c 2.574,0 5.631,0.478 7.301,-1.99 0.958,-1.414 0.77,-3.124 0.77,-4.742 l 0,-8.816 0,-31.617 0,-39.386 0,-34.104 0,-15.753 c 0,-2.893 -2.329,-4.598 -5.034,-4.598 l -12.276,0 -33.681,0 c -0.94,0 -1.933,-0.08 -2.843,0.203 -1.789,0.559 -3.044,2.205 -3.159,4.065 -0.079,1.283 -0.007,2.591 -0.007,3.875 l 0,25.049 0,37.911 0,37.716 0,24.461 0,3.129 c 0,2.501 1.991,4.589 4.519,4.597"
             style="fill:#ffffff;fill-opacity:1;fill-rule:evenodd;stroke:none"
             id="path6699"
             inkscape:connector-curvature="0" />
        </g>
        <g
           id="g6701"
           transform="translate(102.5757,488.7868)">
          <path
             d="M 0,0 C -1.218,2.383 0.063,5.381 2.72,5.993 3.221,6.109 3.714,6.103 4.221,6.103 5.813,6.102 7.405,6.102 8.998,6.102 14.984,6.1 20.972,6.098 26.958,6.097 32.655,6.096 38.351,6.094 44.049,6.093 c 1.23,-0.001 2.461,-0.001 3.69,-0.001 3.163,0 5.091,-3.561 3.547,-6.248 -5.107,-8.887 -10.215,-17.773 -15.322,-26.66 -2.133,-3.711 -4.265,-7.42 -6.398,-11.13 -1.227,-2.137 -3.777,-3.214 -6.02,-1.804 -1.169,0.735 -1.782,2.116 -2.455,3.278 C 15.365,-26.571 9.64,-16.669 3.914,-6.769 2.609,-4.513 1.305,-2.256 0,0"
             style="fill:#bf2519;fill-opacity:1;fill-rule:evenodd;stroke:none"
             id="path6703"
             inkscape:connector-curvature="0" />
        </g>
        <g
           id="g6705"
           transform="translate(130.187,462.7538)">
          <path
             d="m 0,0 c -0.363,-0.668 -1.091,-1.107 -1.859,-1.107 -0.769,0 -1.496,0.439 -1.86,1.107 l -12.44,21.496 c -0.19,0.323 -0.297,0.711 -0.297,1.091 0,1.165 0.95,2.116 2.115,2.116 l 24.566,0 c 1.482,0 2.433,-0.951 2.433,-2.116 0,-0.38 -0.116,-0.776 -0.306,-1.098 L 0,0 z"
             style="fill:#ffffff;fill-opacity:1;fill-rule:evenodd;stroke:none"
             id="path6707"
             inkscape:connector-curvature="0" />
        </g>
        <g
           id="g6709"
           transform="translate(135.5952,481.0609)">
          <path
             d="M 0,0 C 0,-0.41 -0.038,-0.783 -0.075,-1.119 -0.15,-1.529 -0.393,-1.885 -0.84,-1.885 l -0.635,0 0,3.826 0.635,0 c 0.336,0 0.56,-0.168 0.69,-0.541 C -0.057,1.176 0,0.598 0,0 m 0.746,0.038 c 0,0.411 -0.057,0.877 -0.131,1.269 -0.094,0.541 -0.317,0.951 -0.635,1.175 -0.185,0.15 -0.41,0.205 -0.857,0.205 l -1.363,0 0,-5.318 1.474,0 c 0.299,0 0.561,0.075 0.746,0.243 0.524,0.411 0.766,1.195 0.766,2.426 m -3.713,-2.669 0,0.709 -1.941,0 0,4.609 -0.766,0 0,-5.318 2.707,0 z m -3.601,0 0,0.746 -1.942,0 0,1.755 1.102,0 0,0.728 -1.102,0 0,1.343 1.737,0 0,0.746 -2.501,0 0,-5.318 2.706,0 z m -3.864,5.318 -0.746,0 0,-5.318 0.746,0 0,5.318 z m -1.474,0 -0.821,0 -0.876,-1.921 -0.897,1.921 -0.802,0 1.306,-2.91 0,-2.408 0.765,0 0,2.408 1.325,2.91 z"
             style="fill:#bf2519;fill-opacity:1;fill-rule:evenodd;stroke:none"
             id="path6711"
             inkscape:connector-curvature="0" />
        </g>
        <g
           id="g6713"
           transform="translate(150.3432,527.8848)">
          <path
             d="m 0,0 -7.373,0 0,11.993 6.999,0 0,-1.893 -5.124,0 0,-2.946 3.457,0 0,-1.935 -3.457,0 0,-3.283 L 0,1.936 0,0 z m -9.122,10.311 -2.749,0 0,-10.311 -1.875,0 0,10.311 -2.707,0 0,1.682 7.331,0 0,-1.682 z m -11.914,-5.008 -1.167,3.365 -1.207,-3.365 2.374,0 z M -17.203,0 l -2,0 -1.166,3.367 -3.708,0 -1.167,-3.367 -1.999,0 4.083,11.993 1.874,0 L -17.203,0 z m -10.748,10.311 -2.75,0 0,-10.311 -1.874,0 0,10.311 -2.708,0 0,1.682 7.332,0 0,-1.682 z m -8.29,-6.86 c 0,-1.15 -0.368,-2.049 -1.104,-2.693 -0.736,-0.645 -1.618,-0.969 -2.645,-0.969 -2.027,0 -3.472,1.011 -4.332,3.031 l 1.791,0.672 c 0.527,-1.177 1.375,-1.766 2.541,-1.766 1.222,0 1.833,0.589 1.833,1.766 0,0.674 -0.361,1.207 -1.083,1.6 -0.75,0.281 -1.514,0.575 -2.291,0.884 -1.528,0.645 -2.291,1.641 -2.291,2.987 0,2.16 1.235,3.24 3.707,3.24 1.611,0 2.735,-0.812 3.374,-2.44 -0.666,-0.224 -1.222,-0.393 -1.666,-0.505 -0.361,0.701 -0.945,1.053 -1.749,1.053 -1.279,0 -1.889,-0.463 -1.834,-1.389 0.056,-0.59 0.57,-1.053 1.542,-1.389 1.499,-0.477 2.416,-0.828 2.749,-1.052 0.972,-0.645 1.458,-1.655 1.458,-3.03"
             style="fill:#231f20;fill-opacity:1;fill-rule:evenodd;stroke:none"
             id="path6715"
             inkscape:connector-curvature="0" />
        </g>
        <g
           id="g6717"
           transform="translate(133.3276,436.3669)">
          <path
             d="M 0,0 C 0,1.072 -0.178,1.914 -0.535,2.525 -0.788,2.966 -1.178,3.197 -1.703,3.218 -2.377,3.261 -2.859,2.892 -3.154,2.115 -3.386,1.525 -3.502,0.82 -3.502,0 c 0,-1.076 0.18,-1.907 0.537,-2.495 0.274,-0.462 0.684,-0.693 1.231,-0.693 0.63,0 1.093,0.379 1.388,1.135 C -0.115,-1.486 0,-0.802 0,0 m 1.42,0 c 0,-1.559 -0.326,-2.768 -0.978,-3.629 -0.483,-0.674 -1.21,-1.01 -2.176,-1.01 -1.2,0 -2.062,0.535 -2.588,1.609 -0.42,0.84 -0.631,1.85 -0.631,3.03 0,1.556 0.326,2.777 0.978,3.66 0.504,0.674 1.273,1.011 2.303,1.011 1.115,0 1.945,-0.537 2.493,-1.611 C 1.221,2.22 1.42,1.199 1.42,0 m -7.514,3.25 -2.083,0 0,-7.733 -1.42,0 0,7.733 -2.05,0 0,1.263 5.553,0 0,-1.263 z"
             style="fill:#231f20;fill-opacity:1;fill-rule:evenodd;stroke:none"
             id="path6719"
             inkscape:connector-curvature="0" />
        </g>
        <g
           id="g6721"
           transform="translate(125.6167,424.4168)">
          <path
             d="m 0,0 c 1.994,0 3.621,-1.627 3.621,-3.623 0,-1.994 -1.627,-3.621 -3.621,-3.621 -1.995,0 -3.622,1.627 -3.622,3.621 C -3.622,-1.627 -1.995,0 0,0"
             style="fill:#231f20;fill-opacity:1;fill-rule:evenodd;stroke:none"
             id="path6723"
             inkscape:connector-curvature="0" />
        </g>
        <g
           id="g6725"
           transform="translate(114.6499,401.5748)">
          <path
             d="m 0,0 7.598,5.067 c 0.351,1.486 1.808,8.076 4.73,9.601 2.895,1.915 13.568,-5.947 13.629,-6.011 l 0,-11.475 -2.314,0.402 -0.905,9.161 C 21.865,6.92 20.994,7.094 20.122,7.27 22.027,2.34 22.727,-2.406 21.631,-5.535 l 4.629,-18.915 -3.119,-2.213 -6.742,17.506 -3.119,-3.321 -4.326,-13.179 -4.125,1.51 3.723,13.882 4.326,7.749 L 11.22,3.202 9.457,0.904 1.207,-1.812 0,0 z"
             style="fill:#231f20;fill-opacity:1;fill-rule:evenodd;stroke:none"
             id="path6727"
             inkscape:connector-curvature="0" />
        </g>
        <g
           id="g6729"
           transform="translate(156.7436,335.8438)">
          <path
             d="m 0,0 -1.357,0 -1.579,4.386 -0.82,-1.515 0,-2.871 -1.295,0 0,8.994 1.295,0 0,-3.598 2.052,3.598 1.483,0 L -2.083,5.837 0,0 z m -6.313,0 -4.578,0 0,8.994 1.294,0 0,-7.795 3.284,0 0,-1.199 z m -8.05,3.724 -0.664,2.588 -0.631,-2.588 1.295,0 z M -12.122,0 l -1.294,0 -0.632,2.461 -1.926,0 -0.599,-2.461 -1.294,0 2.24,8.994 1.264,0 L -12.122,0 z M -18.404,8.994 -19.857,0 -20.961,0 -21.814,4.703 -22.666,0 l -1.137,0 -1.421,8.994 1.263,0 0.758,-4.797 0.884,4.797 1.01,0 0.852,-4.797 0.789,4.797 1.264,0 z m -7.641,-6.533 c 0,-0.715 -0.242,-1.331 -0.726,-1.846 -0.484,-0.516 -1.073,-0.774 -1.768,-0.774 -0.757,0 -1.367,0.274 -1.83,0.821 -0.463,0.547 -0.695,1.211 -0.695,1.988 l 1.263,0 c 0,-1.031 0.42,-1.545 1.262,-1.545 0.338,0 0.632,0.137 0.885,0.41 0.252,0.274 0.379,0.588 0.379,0.946 0,0.462 -0.243,0.894 -0.727,1.294 0.106,-0.062 -0.399,0.295 -1.516,1.073 -0.736,0.527 -1.104,1.189 -1.104,1.988 0,0.652 0.221,1.205 0.663,1.658 0.441,0.451 0.989,0.678 1.642,0.678 0.631,0 1.163,-0.221 1.594,-0.662 0.431,-0.444 0.658,-1 0.678,-1.674 l -1.23,0 c -0.043,0.695 -0.39,1.043 -1.042,1.043 -0.295,0 -0.548,-0.102 -0.758,-0.301 -0.21,-0.199 -0.316,-0.447 -0.316,-0.742 0,-0.398 0.285,-0.756 0.852,-1.072 1.663,-0.969 2.494,-2.063 2.494,-3.283 m -6.093,0 c 0,-0.715 -0.242,-1.331 -0.725,-1.846 -0.485,-0.516 -1.075,-0.774 -1.769,-0.774 -0.757,0 -1.368,0.274 -1.831,0.821 -0.463,0.547 -0.694,1.211 -0.694,1.988 l 1.262,0 c 0,-1.031 0.421,-1.545 1.263,-1.545 0.337,0 0.632,0.137 0.884,0.41 0.253,0.274 0.379,0.588 0.379,0.946 0,0.462 -0.242,0.894 -0.726,1.294 0.106,-0.062 -0.4,0.295 -1.515,1.073 -0.737,0.527 -1.105,1.189 -1.105,1.988 0,0.652 0.221,1.205 0.662,1.658 0.443,0.451 0.99,0.678 1.643,0.678 0.631,0 1.162,-0.221 1.594,-0.662 0.431,-0.444 0.658,-1 0.678,-1.674 l -1.231,0 c -0.042,0.695 -0.389,1.043 -1.041,1.043 -0.295,0 -0.548,-0.102 -0.758,-0.301 -0.211,-0.199 -0.316,-0.447 -0.316,-0.742 0,-0.398 0.285,-0.756 0.852,-1.072 1.663,-0.969 2.494,-2.063 2.494,-3.283 m -7.608,2.052 c 0,0.905 -0.095,1.651 -0.284,2.24 -0.232,0.758 -0.6,1.137 -1.105,1.137 -0.547,0 -0.926,-0.369 -1.136,-1.105 -0.19,-0.61 -0.285,-1.377 -0.285,-2.303 0,-0.863 0.095,-1.621 0.285,-2.273 0.21,-0.737 0.589,-1.104 1.136,-1.104 0.527,0 0.895,0.367 1.105,1.104 0.189,0.63 0.284,1.4 0.284,2.304 m 1.231,0 c 0,-1.283 -0.168,-2.326 -0.505,-3.125 -0.42,-1.031 -1.126,-1.547 -2.115,-1.547 -1.01,0 -1.725,0.516 -2.146,1.547 -0.337,0.799 -0.506,1.842 -0.506,3.125 0,1.305 0.169,2.346 0.506,3.123 0.441,1.012 1.157,1.516 2.146,1.516 0.989,0 1.695,-0.516 2.115,-1.547 0.337,-0.799 0.505,-1.83 0.505,-3.092 m -7.892,2.082 c 0,0.758 -0.39,1.137 -1.168,1.137 l -1.326,0 0,-2.273 1.326,0 c 0.778,0 1.168,0.378 1.168,1.136 M -45.144,0 l -1.327,0 -1.199,4.228 -1.231,0 0,-4.228 -1.294,0 0,8.994 2.683,0 c 0.715,0 1.289,-0.215 1.721,-0.647 0.432,-0.431 0.647,-1.015 0.647,-1.752 0,-1.115 -0.432,-1.84 -1.294,-2.177 L -45.144,0 z m -6.851,6.595 -1.294,0 c -0.105,0.864 -0.463,1.295 -1.074,1.295 -0.526,0 -0.894,-0.232 -1.105,-0.695 -0.21,-0.463 -0.315,-1.283 -0.315,-2.461 0,-2.42 0.515,-3.629 1.547,-3.629 0.631,0 0.947,0.43 0.947,1.293 l 1.294,0 c -0.021,-0.758 -0.242,-1.373 -0.663,-1.846 -0.421,-0.474 -0.947,-0.711 -1.578,-0.711 -1.853,0 -2.779,1.621 -2.779,4.862 0,2.967 0.895,4.449 2.684,4.449 0.758,0 1.347,-0.305 1.768,-0.916 0.294,-0.377 0.484,-0.926 0.568,-1.641"
             style="fill:#231f20;fill-opacity:1;fill-rule:evenodd;stroke:none"
             id="path6731"
             inkscape:connector-curvature="0" />
        </g>
        <g
           id="g6733"
           transform="translate(143.1743,523.3928)">
          <path
             d="m 0,0 -1.767,-11.992 -1.683,0 -1.894,7.7 -1.851,-7.7 -1.683,0 L -10.645,0 -8.71,0 -7.784,-6.313 -6.269,0 -4.418,0 -2.861,-6.313 -1.935,0 0,0 z m -15.274,-6.691 -1.178,3.367 -1.221,-3.367 2.399,0 z m 3.871,-5.301 -2.02,0 -1.178,3.365 -3.745,0 -1.178,-3.365 -2.02,0 4.124,11.992 1.894,0 4.123,-11.992 z m -10.857,0 -7.447,0 0,11.992 1.894,0 0,-10.225 5.553,0 0,-1.767 z"
             style="fill:#231f20;fill-opacity:1;fill-rule:evenodd;stroke:none"
             id="path6735"
             inkscape:connector-curvature="0" />
        </g>
        <g
           id="g6737"
           transform="translate(144.1089,349.3488)">
          <path
             d="m 0,0 -0.978,0 -2.777,6.028 0,-6.028 -1.294,0 0,8.995 1.294,0 2.462,-5.397 0,5.397 L 0,8.995 0,0 z m -7.031,0 -1.262,0 0,8.995 1.262,0 0,-8.995 z m -3.223,0 -1.294,0 0,4.073 -2.461,0 0,-4.073 -1.294,0 0,8.995 1.294,0 0,-3.661 2.461,0 0,3.661 1.294,0 0,-8.995 z m -6.279,7.795 -1.641,0 0,-7.795 -1.294,0 0,7.795 -1.64,0 0,1.2 4.575,0 0,-1.2 z M -22.396,0 l -1.262,0 0,8.995 1.262,0 0,-8.995 z M -24.895,8.995 -26.346,0 -27.45,0 -28.302,4.704 -29.154,0 l -1.136,0 -1.42,8.995 1.263,0 0.757,-4.797 0.883,4.797 1.01,0 0.852,-4.797 0.789,4.797 1.261,0 z"
             style="fill:#231f20;fill-opacity:1;fill-rule:evenodd;stroke:none"
             id="path6739"
             inkscape:connector-curvature="0" />
        </g>
        <g
           id="g6741"
           transform="translate(175.6853,537.4718)" />
      </g>
    </g>
  </g>
</svg>
