<?xml version="1.0" encoding="UTF-8" standalone="no"?>
<!-- Created with Inkscape (http://www.inkscape.org/) -->

<svg
   xmlns:dc="http://purl.org/dc/elements/1.1/"
   xmlns:cc="http://creativecommons.org/ns#"
   xmlns:rdf="http://www.w3.org/1999/02/22-rdf-syntax-ns#"
   xmlns:svg="http://www.w3.org/2000/svg"
   xmlns="http://www.w3.org/2000/svg"
   xmlns:sodipodi="http://sodipodi.sourceforge.net/DTD/sodipodi-0.dtd"
   xmlns:inkscape="http://www.inkscape.org/namespaces/inkscape"
   width="82.617996"
   height="137.28"
   id="svg19221"
   version="1.1"
   inkscape:version="0.48.1 "
   sodipodi:docname="New document 83">
  <defs
     id="defs19223">
    <clipPath
       clipPathUnits="userSpaceOnUse"
       id="clipPath12706">
      <path
         inkscape:connector-curvature="0"
         d="m 63.125,61.226 513.268,0 0,676.774 -513.268,0 0,-676.774 z"
         id="path12708" />
    </clipPath>
    <clipPath
       clipPathUnits="userSpaceOnUse"
       id="clipPath12694">
      <path
         inkscape:connector-curvature="0"
         d="m 67.241,61.226 505.037,0 0,676.774 -505.037,0 0,-676.774 z"
         id="path12696" />
    </clipPath>
    <clipPath
       clipPathUnits="userSpaceOnUse"
       id="clipPath12682">
      <path
         inkscape:connector-curvature="0"
         d="m 63.125,61.226 513.268,0 0,676.774 -513.268,0 0,-676.774 z"
         id="path12684" />
    </clipPath>
  </defs>
  <sodipodi:namedview
     id="base"
     pagecolor="#ffffff"
     bordercolor="#666666"
     borderopacity="1.0"
     inkscape:pageopacity="0.0"
     inkscape:pageshadow="2"
     inkscape:zoom="0.35"
     inkscape:cx="-66.54814"
     inkscape:cy="225.78286"
     inkscape:document-units="px"
     inkscape:current-layer="layer1"
     showgrid="false"
     fit-margin-top="0"
     fit-margin-left="0"
     fit-margin-right="0"
     fit-margin-bottom="0"
     inkscape:window-width="469"
     inkscape:window-height="403"
     inkscape:window-x="125"
     inkscape:window-y="125"
     inkscape:window-maximized="0" />
  <metadata
     id="metadata19226">
    <rdf:RDF>
      <cc:Work
         rdf:about="">
        <dc:format>image/svg+xml</dc:format>
        <dc:type
           rdf:resource="http://purl.org/dc/dcmitype/StillImage" />
        <dc:title></dc:title>
      </cc:Work>
    </rdf:RDF>
  </metadata>
  <g
     inkscape:label="Layer 1"
     inkscape:groupmode="layer"
     id="layer1"
     transform="translate(-441.54814,-620.86504)">
    <g
       transform="matrix(1.25,0,0,-1.25,357.49689,852.67254)"
       id="g12678">
      <g
         id="g12680"
         clip-path="url(#clipPath12682)">
        <g
           id="g12686"
           transform="translate(125.7964,185.196)">
          <path
             inkscape:connector-curvature="0"
             d="m 0,0 -51.018,0 c -4.025,0 -7.288,-3.264 -7.288,-7.287 l 0,-94.748 c 0,-4.026 3.263,-7.289 7.288,-7.289 l 51.018,0 c 4.025,0 7.289,3.263 7.289,7.289 l 0,94.748 C 7.289,-3.264 4.025,0 0,0"
             style="fill:#ffffff;fill-opacity:1;fill-rule:nonzero;stroke:none"
             id="path12688" />
        </g>
      </g>
    </g>
    <g
       transform="matrix(1.25,0,0,-1.25,357.49689,852.67254)"
       id="g12690">
      <g
         id="g12692"
         clip-path="url(#clipPath12694)">
        <g
           id="g12698"
           transform="translate(125.7964,185.196)">
          <path
             inkscape:connector-curvature="0"
             d="m 0,0 -51.018,0 c -4.025,0 -7.288,-3.264 -7.288,-7.287 l 0,-94.748 c 0,-4.026 3.263,-7.289 7.288,-7.289 l 51.018,0 c 4.025,0 7.289,3.263 7.289,7.289 l 0,94.748 C 7.289,-3.264 4.025,0 0,0 z"
             style="fill:none;stroke:#231f20;stroke-width:0.5;stroke-linecap:butt;stroke-linejoin:miter;stroke-miterlimit:4;stroke-opacity:1;stroke-dasharray:none"
             id="path12700" />
        </g>
      </g>
    </g>
    <g
       transform="matrix(1.25,0,0,-1.25,357.49689,852.67254)"
       id="g12702">
      <g
         id="g12704"
         clip-path="url(#clipPath12706)">
        <g
           id="g12710"
           transform="translate(129.018,181.1291)">
          <path
             inkscape:connector-curvature="0"
             d="m 0,0 c -0.86,0.86 -2.005,1.334 -3.222,1.334 l -51.017,0 c -1.217,0 -2.362,-0.474 -3.222,-1.334 -0.86,-0.861 -1.334,-2.004 -1.334,-3.22 l 0,-94.748 c 0,-1.217 0.474,-2.362 1.334,-3.223 0.86,-0.859 2.005,-1.334 3.222,-1.334 l 51.017,0 c 1.217,0 2.362,0.475 3.222,1.334 0.86,0.861 1.334,2.006 1.334,3.223 l 0,94.748 C 1.334,-2.004 0.86,-0.861 0,0"
             style="fill:#231f20;fill-opacity:1;fill-rule:nonzero;stroke:none"
             id="path12712" />
        </g>
        <path
           inkscape:connector-curvature="0"
           d="m 72.957,103.204 54.662,0 0,19.312 -54.662,0 0,-19.312 z"
           style="fill:#ffffff;fill-opacity:1;fill-rule:nonzero;stroke:none"
           id="path12714" />
        <path
           inkscape:connector-curvature="0"
           d="m 72.957,123.975 54.662,0 0,33.891 -54.662,0 0,-33.891 z"
           style="fill:#ffffff;fill-opacity:1;fill-rule:nonzero;stroke:none"
           id="path12716" />
        <g
           id="g12718"
           transform="translate(127.6186,177.909)">
          <path
             inkscape:connector-curvature="0"
             d="M 0,0 C 0,0.656 -0.334,1.088 -0.533,1.287 -0.732,1.486 -1.165,1.82 -1.822,1.82 l -51.018,0 c -0.657,0 -1.089,-0.334 -1.289,-0.533 C -54.328,1.088 -54.662,0.656 -54.662,0 l 0,-18.586 54.662,0 L 0,0 z"
             style="fill:#ffffff;fill-opacity:1;fill-rule:nonzero;stroke:none"
             id="path12720" />
        </g>
        <g
           id="g12722"
           transform="translate(72.9565,83.1611)">
          <path
             inkscape:connector-curvature="0"
             d="m 0,0 c 0,-0.659 0.334,-1.09 0.533,-1.289 0.2,-0.2 0.632,-0.534 1.289,-0.534 l 51.018,0 c 0.657,0 1.09,0.334 1.289,0.534 0.199,0.199 0.533,0.63 0.533,1.289 l 0,18.584 L 0,18.584 0,0 z"
             style="fill:#ffffff;fill-opacity:1;fill-rule:nonzero;stroke:none"
             id="path12724" />
        </g>
        <path
           inkscape:connector-curvature="0"
           d="m 78.058,175.12 9.329,0 0,-11.661 -9.329,0 0,11.661 z"
           style="fill:#231f20;fill-opacity:1;fill-rule:evenodd;stroke:none"
           id="path12726" />
        <g
           id="g12728"
           transform="translate(83.2553,173.9131)">
          <path
             inkscape:connector-curvature="0"
             d="m 0,0 c -0.376,0 -0.683,-0.307 -0.683,-0.682 0,-0.377 0.307,-0.684 0.683,-0.684 0.376,0 0.683,0.307 0.683,0.684 C 0.683,-0.307 0.376,0 0,0 M 2.066,-4.305 0.635,-3.35 c -0.067,0.279 -0.341,1.521 -0.892,1.811 -0.546,0.359 -2.556,-1.122 -2.568,-1.135 l 0,-2.16 0.435,0.074 0.171,1.726 c 0.164,0.034 0.329,0.067 0.494,0.1 -0.36,-0.93 -0.492,-1.824 -0.285,-2.412 l -0.873,-3.567 0.588,-0.416 1.271,3.299 0.587,-0.625 0.816,-2.484 0.777,0.285 -0.701,2.615 -0.815,1.461 0.312,1.076 0.332,-0.431 1.555,-0.512 0.227,0.34 z"
             style="fill:#ffffff;fill-opacity:1;fill-rule:evenodd;stroke:none"
             id="path12730" />
        </g>
        <g
           id="g12732"
           transform="translate(93.104,173.106)">
          <path
             inkscape:connector-curvature="0"
             d="m 0,0 c -0.13,-0.115 -0.317,-0.188 -0.533,-0.188 -0.575,0 -0.878,0.374 -0.907,1.094 l 0.533,0 c 0,-0.158 0.014,-0.217 0.043,-0.303 0.043,-0.158 0.173,-0.257 0.331,-0.257 0.202,0 0.331,0.158 0.331,0.416 0,0.361 -0.129,0.662 -0.447,1.037 -0.186,0.217 -0.316,0.375 -0.359,0.431 -0.23,0.274 -0.331,0.563 -0.331,0.85 0,0.563 0.346,0.965 0.835,0.965 C 0,4.045 0.273,3.728 0.331,3.08 l -0.533,0 c -0.014,0.316 -0.101,0.447 -0.287,0.447 -0.202,0 -0.318,-0.174 -0.318,-0.447 0,-0.187 0.073,-0.33 0.288,-0.561 C -0.072,2.016 0,1.914 0.129,1.654 0.244,1.396 0.331,1.051 0.331,0.762 0.331,0.475 0.201,0.172 0,0"
             style="fill:#231f20;fill-opacity:1;fill-rule:nonzero;stroke:none"
             id="path12734" />
        </g>
        <g
           id="g12736"
           transform="translate(94.7886,176.561)">
          <path
             inkscape:connector-curvature="0"
             d="m 0,0 0,-3.57 -0.519,0 0,3.57 -0.504,0 0,0.533 1.555,0 L 0.532,0 0,0 z"
             style="fill:#231f20;fill-opacity:1;fill-rule:nonzero;stroke:none"
             id="path12738" />
        </g>
        <g
           id="g12740"
           transform="translate(96.6889,175.6981)">
          <path
             inkscape:connector-curvature="0"
             d="m 0,0 -0.23,-1.08 0.446,0 L 0,0 z m 0.562,-2.707 -0.231,1.093 -0.677,0 -0.23,-1.093 -0.532,0 0.835,4.103 0.532,0 0.849,-4.103 -0.546,0 z"
             style="fill:#231f20;fill-opacity:1;fill-rule:nonzero;stroke:none"
             id="path12742" />
        </g>
        <g
           id="g12744"
           transform="translate(99.1362,176.561)">
          <path
             inkscape:connector-curvature="0"
             d="m 0,0 -0.259,0 0,-1.123 0.346,0 c 0.287,0 0.374,0.129 0.374,0.518 C 0.461,-0.144 0.36,0 0,0 m 0.561,-1.527 0.418,-2.043 -0.533,0 -0.461,1.914 -0.244,0 0,-1.914 -0.518,0 0,4.103 0.806,0 c 0.633,0 0.964,-0.388 0.964,-1.152 0,-0.461 -0.129,-0.721 -0.432,-0.908"
             style="fill:#231f20;fill-opacity:1;fill-rule:nonzero;stroke:none"
             id="path12746" />
        </g>
        <g
           id="g12748"
           transform="translate(101.4829,176.561)">
          <path
             inkscape:connector-curvature="0"
             d="m 0,0 0,-3.57 -0.518,0 0,3.57 -0.504,0 0,0.533 1.555,0 L 0.533,0 0,0 z"
             style="fill:#231f20;fill-opacity:1;fill-rule:nonzero;stroke:none"
             id="path12750" />
        </g>
        <g
           id="g12752"
           transform="translate(106.2202,173.407)">
          <path
             inkscape:connector-curvature="0"
             d="m 0,0 c -0.072,-0.301 -0.36,-0.489 -0.72,-0.489 -0.418,0 -0.677,0.172 -0.806,0.547 -0.116,0.346 -0.173,0.907 -0.173,1.569 0,0.375 0.043,0.922 0.101,1.238 0.115,0.635 0.36,0.879 0.849,0.879 0.461,0 0.764,-0.287 0.807,-0.791 l -0.534,0 C -0.489,3.125 -0.59,3.211 -0.734,3.211 -0.922,3.211 -1.022,3.082 -1.08,2.808 -1.151,2.476 -1.166,2.176 -1.166,1.627 c 0,-0.575 0.015,-0.821 0.086,-1.166 0.058,-0.274 0.158,-0.416 0.331,-0.416 0.187,0 0.273,0.142 0.273,0.504 l 0.534,0 C 0.058,0.23 0.043,0.144 0,0"
             style="fill:#231f20;fill-opacity:1;fill-rule:nonzero;stroke:none"
             id="path12754" />
        </g>
        <g
           id="g12756"
           transform="translate(107.8325,176.561)">
          <path
             inkscape:connector-curvature="0"
             d="m 0,0 -0.259,0 0,-1.123 0.346,0 c 0.288,0 0.374,0.129 0.374,0.518 C 0.461,-0.144 0.36,0 0,0 m 0.562,-1.527 0.418,-2.043 -0.534,0 -0.46,1.914 -0.245,0 0,-1.914 -0.518,0 0,4.103 0.806,0 c 0.633,0 0.965,-0.388 0.965,-1.152 0,-0.461 -0.13,-0.721 -0.432,-0.908"
             style="fill:#231f20;fill-opacity:1;fill-rule:nonzero;stroke:none"
             id="path12758" />
        </g>
        <g
           id="g12760"
           transform="translate(110.3091,176.618)">
          <path
             inkscape:connector-curvature="0"
             d="m 0,0 c -0.475,0 -0.417,-1.282 -0.417,-1.569 0,-0.273 -0.058,-1.597 0.417,-1.597 0.461,0 0.403,1.324 0.403,1.597 C 0.403,-1.239 0.389,0 0,0 m 0,-3.7 c -1.022,0 -0.95,1.454 -0.95,2.131 0,0.705 -0.058,2.102 0.95,2.102 1.008,0 0.95,-1.41 0.95,-2.102 C 0.95,-2.246 1.008,-3.7 0,-3.7"
             style="fill:#231f20;fill-opacity:1;fill-rule:nonzero;stroke:none"
             id="path12762" />
        </g>
        <g
           id="g12764"
           transform="translate(113.2173,173.106)">
          <path
             inkscape:connector-curvature="0"
             d="m 0,0 c -0.129,-0.115 -0.316,-0.188 -0.532,-0.188 -0.576,0 -0.879,0.374 -0.907,1.094 l 0.533,0 c 0,-0.158 0.013,-0.217 0.043,-0.303 0.043,-0.158 0.172,-0.257 0.331,-0.257 0.201,0 0.331,0.158 0.331,0.416 0,0.361 -0.13,0.662 -0.447,1.037 -0.187,0.217 -0.316,0.375 -0.36,0.431 -0.23,0.274 -0.331,0.563 -0.331,0.85 0,0.563 0.346,0.965 0.835,0.965 C 0,4.045 0.274,3.728 0.331,3.08 l -0.532,0 c -0.015,0.316 -0.101,0.447 -0.288,0.447 -0.202,0 -0.317,-0.174 -0.317,-0.447 0,-0.187 0.072,-0.33 0.288,-0.561 C -0.071,2.016 0,1.914 0.13,1.654 0.245,1.396 0.331,1.051 0.331,0.762 0.331,0.475 0.202,0.172 0,0"
             style="fill:#231f20;fill-opacity:1;fill-rule:nonzero;stroke:none"
             id="path12766" />
        </g>
        <g
           id="g12768"
           transform="translate(115.3921,173.106)">
          <path
             inkscape:connector-curvature="0"
             d="m 0,0 c -0.13,-0.115 -0.317,-0.188 -0.533,-0.188 -0.576,0 -0.878,0.374 -0.907,1.094 l 0.533,0 c 0,-0.158 0.013,-0.217 0.043,-0.303 0.043,-0.158 0.173,-0.257 0.331,-0.257 0.201,0 0.331,0.158 0.331,0.416 0,0.361 -0.13,0.662 -0.447,1.037 -0.187,0.217 -0.316,0.375 -0.359,0.431 -0.23,0.274 -0.332,0.563 -0.332,0.85 0,0.563 0.346,0.965 0.836,0.965 C 0,4.045 0.273,3.728 0.331,3.08 l -0.533,0 c -0.015,0.316 -0.101,0.447 -0.288,0.447 -0.201,0 -0.317,-0.174 -0.317,-0.447 0,-0.187 0.073,-0.33 0.288,-0.561 C -0.072,2.016 0,1.914 0.129,1.654 0.244,1.396 0.331,1.051 0.331,0.762 0.331,0.475 0.201,0.172 0,0"
             style="fill:#231f20;fill-opacity:1;fill-rule:nonzero;stroke:none"
             id="path12770" />
        </g>
        <path
           inkscape:connector-curvature="0"
           d="m 116.371,177.094 0.518,0 0,-4.103 -0.518,0 0,4.103 z"
           style="fill:#231f20;fill-opacity:1;fill-rule:nonzero;stroke:none"
           id="path12772" />
        <g
           id="g12774"
           transform="translate(119.1206,172.9911)">
          <path
             inkscape:connector-curvature="0"
             d="m 0,0 -0.807,2.431 0,-2.431 -0.517,0 0,4.103 0.517,0 0.735,-2.045 0,2.045 0.518,0 L 0.446,0 0,0 z"
             style="fill:#231f20;fill-opacity:1;fill-rule:nonzero;stroke:none"
             id="path12776" />
        </g>
        <g
           id="g12778"
           transform="translate(122.0434,173.393)">
          <path
             inkscape:connector-curvature="0"
             d="m 0,0 c -0.086,-0.287 -0.36,-0.475 -0.734,-0.475 -0.418,0 -0.662,0.159 -0.792,0.547 -0.13,0.375 -0.173,0.748 -0.173,1.584 0,0.821 0.043,1.18 0.187,1.569 0.13,0.375 0.374,0.533 0.778,0.533 0.461,0 0.734,-0.287 0.792,-0.791 l -0.519,0 C -0.489,3.139 -0.576,3.225 -0.72,3.225 -0.907,3.225 -1.037,3.096 -1.08,2.822 -1.138,2.49 -1.166,2.217 -1.166,1.656 c 0,-0.562 0.028,-0.836 0.071,-1.181 0.058,-0.274 0.159,-0.416 0.346,-0.416 0.188,0 0.288,0.172 0.288,0.445 l 0,0.547 -0.244,0 0,0.533 0.763,0 0,-1.051 C 0.058,0.346 0.028,0.129 0,0"
             style="fill:#231f20;fill-opacity:1;fill-rule:nonzero;stroke:none"
             id="path12780" />
        </g>
        <g
           id="g12782"
           transform="translate(100.3384,166.7921)">
          <path
             inkscape:connector-curvature="0"
             d="M 0,0 -0.446,0 -0.835,2.304 -1.209,0 l -0.446,0 -0.476,4.103 0.533,0 0.216,-1.9 0.331,1.9 0.447,0 0.331,-1.9 0.215,1.9 0.533,0 L 0,0 z"
             style="fill:#231f20;fill-opacity:1;fill-rule:nonzero;stroke:none"
             id="path12784" />
        </g>
        <g
           id="g12786"
           transform="translate(102.0659,168.161)">
          <path
             inkscape:connector-curvature="0"
             d="m 0,0 c 0,0 -0.028,0.099 -0.23,0.099 -0.129,0 -0.245,-0.115 -0.245,-0.474 0,-0.375 0.058,-0.547 0.274,-0.547 0.158,0 0.201,0.086 0.201,0.273 L 0,0 z m 0.044,-1.369 0,0.087 c -0.072,-0.087 -0.188,-0.13 -0.346,-0.13 -0.403,0 -0.691,0.447 -0.691,1.05 0,0.576 0.346,1.225 0.993,0.965 L 0,0.82 c 0,0.23 -0.058,0.316 -0.23,0.316 -0.216,0 -0.417,-0.273 -0.503,-0.431 l -0.13,0.648 c 0.201,0.231 0.388,0.346 0.619,0.346 0.634,0 0.763,-0.576 0.763,-1.067 l 0,-2.001 -0.475,0 z"
             style="fill:#231f20;fill-opacity:1;fill-rule:nonzero;stroke:none"
             id="path12788" />
        </g>
        <g
           id="g12790"
           transform="translate(104.0386,166.936)">
          <path
             inkscape:connector-curvature="0"
             d="m 0,0 c -0.101,-0.129 -0.188,-0.187 -0.302,-0.187 -0.317,0 -0.548,0.332 -0.548,0.763 l 0,1.799 -0.316,0 0,0.477 0.316,0 0,0.863 0.534,0.316 0,-1.179 0.359,0 0,-0.461 -0.359,0 0,-1.815 c 0,-0.144 0.072,-0.244 0.172,-0.244 0.086,0 0.129,0.057 0.202,0.158 L 0,0 z"
             style="fill:#231f20;fill-opacity:1;fill-rule:nonzero;stroke:none"
             id="path12792" />
        </g>
        <g
           id="g12794"
           transform="translate(105.061,166.735)">
          <path
             inkscape:connector-curvature="0"
             d="m 0,0 c -0.619,0 -0.764,0.734 -0.764,1.496 0,0.836 0.073,1.629 0.764,1.629 0.403,0 0.604,-0.318 0.691,-0.779 L 0.216,2.115 C 0.201,2.361 0.144,2.562 0,2.562 c -0.303,0 -0.245,-0.849 -0.245,-1.05 0,-0.188 -0.014,-1.024 0.26,-1.024 0.115,0.016 0.173,0.246 0.201,0.477 L 0.691,0.791 C 0.59,0.33 0.403,0 0,0"
             style="fill:#231f20;fill-opacity:1;fill-rule:nonzero;stroke:none"
             id="path12796" />
        </g>
        <g
           id="g12798"
           transform="translate(107.0913,166.7921)">
          <path
             inkscape:connector-curvature="0"
             d="m 0,0 0,2.058 c 0,0.303 -0.029,0.477 -0.216,0.477 -0.187,0 -0.202,-0.246 -0.202,-0.477 l 0,-2.058 -0.518,0 0,3.845 0.518,0.33 0,-1.222 C -0.144,3.226 0.518,3.095 0.518,2.074 L 0.518,0 0,0 z"
             style="fill:#231f20;fill-opacity:1;fill-rule:nonzero;stroke:none"
             id="path12800" />
        </g>
        <g
           id="g12802"
           transform="translate(110.9067,170.364)">
          <path
             inkscape:connector-curvature="0"
             d="m 0,0 0,-1.053 0.605,0 0,-0.547 -0.605,0 0,-1.972 -0.518,0 0,4.103 1.569,0 L 1.051,0 0,0 z"
             style="fill:#231f20;fill-opacity:1;fill-rule:nonzero;stroke:none"
             id="path12804" />
        </g>
        <g
           id="g12806"
           transform="translate(112.7358,169.311)">
          <path
             inkscape:connector-curvature="0"
             d="m 0,0 c -0.316,0 -0.245,-0.805 -0.245,-1.008 0,-0.185 -0.014,-1.035 0.245,-1.035 0.23,0.014 0.216,0.834 0.216,1.035 C 0.216,-0.805 0.273,0 0,0 m 0,-2.576 c -0.619,0 -0.777,0.791 -0.777,1.555 0,0.835 0.072,1.57 0.777,1.57 0.619,0 0.734,-0.707 0.734,-1.557 0,-0.761 -0.158,-1.568 -0.734,-1.568"
             style="fill:#231f20;fill-opacity:1;fill-rule:nonzero;stroke:none"
             id="path12808" />
        </g>
        <g
           id="g12810"
           transform="translate(115.0395,169.125)">
          <path
             inkscape:connector-curvature="0"
             d="m 0,0 c -0.072,0.1 -0.13,0.172 -0.216,0.172 -0.202,0 -0.288,-0.216 -0.288,-0.589 l 0,-1.916 -0.518,0 0,2.996 0.518,0 0,-0.145 c 0.086,0.145 0.144,0.217 0.274,0.217 0.129,0 0.23,-0.088 0.288,-0.203 L 0,0 z"
             style="fill:#231f20;fill-opacity:1;fill-rule:nonzero;stroke:none"
             id="path12812" />
        </g>
        <g
           id="g12814"
           transform="translate(101.3032,161.561)">
          <path
             inkscape:connector-curvature="0"
             d="m 0,0 -0.446,0 -0.735,4.104 0.533,0 0.432,-2.332 0.418,2.332 0.532,0 L 0,0 z"
             style="fill:#231f20;fill-opacity:1;fill-rule:nonzero;stroke:none"
             id="path12816" />
        </g>
        <g
           id="g12818"
           transform="translate(103.1177,164.067)">
          <path
             inkscape:connector-curvature="0"
             d="m 0,0 c -0.173,0 -0.245,-0.188 -0.245,-0.777 l 0.504,0 C 0.259,-0.174 0.173,0 0,0 m -0.245,-1.311 c 0.014,-0.576 0.087,-0.72 0.273,-0.72 0.115,0 0.202,0.086 0.288,0.388 L 0.647,-2.117 C 0.547,-2.391 0.346,-2.565 0.1,-2.565 c -0.662,0 -0.849,0.606 -0.849,1.541 0,0.952 0.173,1.584 0.764,1.584 0.748,0 0.733,-1.31 0.719,-1.871 l -0.979,0 z"
             style="fill:#231f20;fill-opacity:1;fill-rule:nonzero;stroke:none"
             id="path12820" />
        </g>
        <g
           id="g12822"
           transform="translate(105.2485,161.561)">
          <path
             inkscape:connector-curvature="0"
             d="m 0,0 0,2.059 c 0,0.302 -0.029,0.474 -0.216,0.474 -0.187,0 -0.202,-0.244 -0.202,-0.474 l 0,-2.059 -0.518,0 0,3.844 0.518,0.332 0,-1.225 C -0.144,3.225 0.519,3.096 0.519,2.074 L 0.519,0 0,0 z"
             style="fill:#231f20;fill-opacity:1;fill-rule:nonzero;stroke:none"
             id="path12824" />
        </g>
        <path
           inkscape:connector-curvature="0"
           d="m 106.385,164.555 0.519,0 0,-2.994 -0.519,0 0,2.994 z m 0.26,0.662 c -0.144,0 -0.26,0.116 -0.26,0.274 0,0.144 0.116,0.259 0.275,0.259 0.143,0 0.258,-0.115 0.258,-0.273 0,-0.144 -0.115,-0.26 -0.273,-0.26"
           style="fill:#231f20;fill-opacity:1;fill-rule:nonzero;stroke:none"
           id="path12826" />
        <g
           id="g12828"
           transform="translate(108.2143,161.502)">
          <path
             inkscape:connector-curvature="0"
             d="m 0,0 c -0.619,0 -0.764,0.735 -0.764,1.498 0,0.836 0.073,1.627 0.764,1.627 0.403,0 0.604,-0.316 0.691,-0.777 L 0.216,2.118 C 0.201,2.362 0.144,2.565 0,2.565 c -0.303,0 -0.245,-0.85 -0.245,-1.051 0,-0.187 -0.015,-1.023 0.26,-1.023 0.115,0.013 0.173,0.244 0.201,0.474 L 0.691,0.793 C 0.59,0.332 0.403,0 0,0"
             style="fill:#231f20;fill-opacity:1;fill-rule:nonzero;stroke:none"
             id="path12830" />
        </g>
        <g
           id="g12832"
           transform="translate(109.3081,161.561)">
          <path
             inkscape:connector-curvature="0"
             d="M 0,0 0,3.859 0.518,4.176 0.518,0 0,0 z"
             style="fill:#231f20;fill-opacity:1;fill-rule:nonzero;stroke:none"
             id="path12834" />
        </g>
        <g
           id="g12836"
           transform="translate(111.1079,164.067)">
          <path
             inkscape:connector-curvature="0"
             d="m 0,0 c -0.173,0 -0.245,-0.188 -0.245,-0.777 l 0.505,0 C 0.26,-0.174 0.173,0 0,0 m -0.245,-1.311 c 0.015,-0.576 0.087,-0.72 0.274,-0.72 0.116,0 0.201,0.086 0.287,0.388 L 0.648,-2.117 C 0.547,-2.391 0.346,-2.565 0.101,-2.565 c -0.662,0 -0.85,0.606 -0.85,1.541 0,0.952 0.173,1.584 0.764,1.584 0.749,0 0.734,-1.31 0.719,-1.871 l -0.979,0 z"
             style="fill:#231f20;fill-opacity:1;fill-rule:nonzero;stroke:none"
             id="path12838" />
        </g>
        <g
           id="g12840"
           transform="translate(113.268,161.792)">
          <path
             inkscape:connector-curvature="0"
             d="m 0,0 c -0.145,-0.188 -0.36,-0.29 -0.576,-0.29 -0.231,0 -0.418,0.059 -0.591,0.319 l 0.145,0.603 c 0.143,-0.316 0.273,-0.431 0.417,-0.431 0.187,0 0.259,0.129 0.259,0.375 0,0.115 -0.087,0.418 -0.36,0.632 -0.303,0.245 -0.461,0.448 -0.461,0.879 0,0.188 0.044,0.36 0.145,0.504 0.115,0.159 0.23,0.244 0.489,0.244 0.201,0 0.388,-0.115 0.591,-0.359 L -0.101,1.929 c -0.187,0.33 -0.274,0.432 -0.403,0.432 -0.101,0 -0.159,-0.129 -0.159,-0.26 0,-0.072 0.029,-0.172 0.087,-0.273 0.028,-0.043 0.072,-0.1 0.359,-0.389 C 0.028,1.179 0.158,0.892 0.158,0.56 0.158,0.359 0.101,0.144 0,0"
             style="fill:#231f20;fill-opacity:1;fill-rule:nonzero;stroke:none"
             id="path12842" />
        </g>
        <path
           inkscape:connector-curvature="0"
           d="m 91.662,172.385 30.377,0 0,-0.584 -30.377,0 0,0.584 z"
           style="fill:#231f20;fill-opacity:1;fill-rule:evenodd;stroke:none"
           id="path12844" />
        <g
           id="g12846"
           transform="translate(90.3188,88.889)">
          <path
             inkscape:connector-curvature="0"
             d="m 0,0 0,-3.556 -0.59,0 0,3.556 -0.749,0 0,0.547 2.088,0 L 0.749,0 0,0 z"
             style="fill:#231f20;fill-opacity:1;fill-rule:nonzero;stroke:none"
             id="path12848" />
        </g>
        <g
           id="g12850"
           transform="translate(93.27,88.415)">
          <path
             inkscape:connector-curvature="0"
             d="m 0,0 c -0.101,0.359 -0.259,0.517 -0.504,0.517 -0.259,0 -0.417,-0.158 -0.517,-0.504 -0.102,-0.316 -0.13,-0.59 -0.13,-1.051 0,-0.445 0.043,-0.705 0.13,-1.035 0.1,-0.345 0.258,-0.504 0.517,-0.504 0.245,0 0.403,0.159 0.504,0.504 0.102,0.33 0.13,0.575 0.13,1.051 C 0.13,-0.561 0.087,-0.303 0,0 m 0.461,-2.448 c -0.201,-0.49 -0.504,-0.705 -0.965,-0.705 -0.489,0 -0.777,0.215 -0.978,0.705 -0.173,0.403 -0.231,0.791 -0.231,1.426 0,0.619 0.058,1.035 0.231,1.426 0.215,0.488 0.503,0.689 0.978,0.689 0.476,0 0.764,-0.201 0.965,-0.705 0.173,-0.402 0.23,-0.791 0.23,-1.41 0,-0.635 -0.057,-1.037 -0.23,-1.426"
             style="fill:#231f20;fill-opacity:1;fill-rule:nonzero;stroke:none"
             id="path12852" />
        </g>
        <g
           id="g12854"
           transform="translate(98.4536,88.342)">
          <path
             inkscape:connector-curvature="0"
             d="m 0,0 c -0.058,0.405 -0.216,0.59 -0.489,0.59 -0.476,0 -0.649,-0.373 -0.649,-1.439 0,-1.18 0.202,-1.655 0.706,-1.655 0.346,0 0.432,0.287 0.432,0.59 l 0.591,0 C 0.576,-2.592 0.145,-3.08 -0.432,-3.08 c -0.879,0 -1.267,0.705 -1.267,2.217 0,1.324 0.418,2.029 1.224,2.029 0.331,0 0.62,-0.142 0.806,-0.418 C 0.489,0.547 0.547,0.375 0.591,0 L 0,0 z"
             style="fill:#231f20;fill-opacity:1;fill-rule:nonzero;stroke:none"
             id="path12856" />
        </g>
        <g
           id="g12858"
           transform="translate(100.7573,88.8621)">
          <path
             inkscape:connector-curvature="0"
             d="m 0,0 -0.604,0 0,-1.037 0.604,0 c 0.346,0 0.533,0.187 0.533,0.517 C 0.533,-0.203 0.317,0 0,0 m 0.504,-3.529 -0.547,1.929 -0.561,0 0,-1.929 -0.59,0 0,4.103 1.223,0 c 0.648,0 1.08,-0.432 1.08,-1.094 0,-0.488 -0.202,-0.849 -0.59,-0.994 l 0.59,-2.015 -0.605,0 z"
             style="fill:#231f20;fill-opacity:1;fill-rule:nonzero;stroke:none"
             id="path12860" />
        </g>
        <g
           id="g12862"
           transform="translate(104.1987,88.415)">
          <path
             inkscape:connector-curvature="0"
             d="m 0,0 c -0.101,0.359 -0.259,0.517 -0.504,0.517 -0.259,0 -0.417,-0.158 -0.519,-0.504 -0.1,-0.316 -0.128,-0.59 -0.128,-1.051 0,-0.445 0.043,-0.705 0.128,-1.035 0.102,-0.345 0.26,-0.504 0.519,-0.504 0.245,0 0.403,0.159 0.504,0.504 0.101,0.33 0.13,0.575 0.13,1.051 C 0.13,-0.561 0.087,-0.303 0,0 m 0.461,-2.448 c -0.202,-0.49 -0.504,-0.705 -0.965,-0.705 -0.489,0 -0.777,0.215 -0.979,0.705 -0.172,0.403 -0.23,0.791 -0.23,1.426 0,0.619 0.058,1.035 0.23,1.426 0.216,0.488 0.504,0.689 0.979,0.689 0.476,0 0.763,-0.201 0.965,-0.705 0.173,-0.402 0.23,-0.791 0.23,-1.41 0,-0.635 -0.057,-1.037 -0.23,-1.426"
             style="fill:#231f20;fill-opacity:1;fill-rule:nonzero;stroke:none"
             id="path12864" />
        </g>
        <g
           id="g12866"
           transform="translate(106.6606,85.2621)">
          <path
             inkscape:connector-curvature="0"
             d="m 0,0 c -0.72,0 -1.151,0.604 -1.151,1.281 l 0.575,0 c 0,-0.345 0.173,-0.705 0.576,-0.705 0.317,0 0.576,0.287 0.576,0.618 0,0.23 -0.087,0.404 -0.331,0.591 -0.087,0.086 0.144,-0.072 -0.691,0.489 -0.331,0.23 -0.504,0.548 -0.504,0.908 0,0.59 0.461,1.064 1.051,1.064 0.576,0 1.022,-0.445 1.037,-1.064 l -0.562,0 C 0.562,3.469 0.36,3.656 0.101,3.656 -0.173,3.656 -0.389,3.455 -0.389,3.182 -0.389,2.981 -0.302,2.865 0,2.692 0.792,2.231 1.138,1.785 1.138,1.194 1.138,0.531 0.634,0 0,0"
             style="fill:#231f20;fill-opacity:1;fill-rule:nonzero;stroke:none"
             id="path12868" />
        </g>
        <g
           id="g12870"
           transform="translate(109.4399,85.2621)">
          <path
             inkscape:connector-curvature="0"
             d="m 0,0 c -0.72,0 -1.152,0.604 -1.152,1.281 l 0.576,0 c 0,-0.345 0.173,-0.705 0.576,-0.705 0.316,0 0.575,0.287 0.575,0.618 0,0.23 -0.086,0.404 -0.331,0.591 -0.086,0.086 0.145,-0.072 -0.69,0.489 -0.331,0.23 -0.504,0.548 -0.504,0.908 0,0.59 0.46,1.064 1.051,1.064 0.576,0 1.022,-0.445 1.037,-1.064 l -0.563,0 C 0.561,3.469 0.359,3.656 0.101,3.656 -0.173,3.656 -0.389,3.455 -0.389,3.182 -0.389,2.981 -0.303,2.865 0,2.692 0.792,2.231 1.138,1.785 1.138,1.194 1.138,0.531 0.633,0 0,0"
             style="fill:#231f20;fill-opacity:1;fill-rule:nonzero;stroke:none"
             id="path12872" />
        </g>
        <g
           id="g12874"
           transform="translate(86.0171,97.959)">
          <path
             inkscape:connector-curvature="0"
             d="m 0,0 -0.604,0 0,-1.166 0.604,0 c 0.346,0 0.533,0.215 0.533,0.59 C 0.533,-0.23 0.317,0 0,0 m 0.029,-1.728 -0.633,0 0,-1.799 -0.59,0 0,4.104 1.223,0 c 0.648,0 1.08,-0.461 1.08,-1.153 0,-0.75 -0.388,-1.152 -1.08,-1.152"
             style="fill:#231f20;fill-opacity:1;fill-rule:nonzero;stroke:none"
             id="path12876" />
        </g>
        <g
           id="g12878"
           transform="translate(89.8325,94.936)">
          <path
             inkscape:connector-curvature="0"
             d="m 0,0 c -0.201,-0.332 -0.59,-0.576 -0.978,-0.576 -0.404,0 -0.807,0.23 -1.008,0.576 -0.116,0.215 -0.159,0.389 -0.159,0.719 l 0,2.881 0.59,0 0,-2.953 C -1.555,0.258 -1.324,0 -0.978,0 c 0.316,0 0.546,0.258 0.546,0.647 l 0,2.953 0.591,0 0,-2.881 C 0.159,0.389 0.115,0.215 0,0"
             style="fill:#231f20;fill-opacity:1;fill-rule:nonzero;stroke:none"
             id="path12880" />
        </g>
        <g
           id="g12882"
           transform="translate(91.8345,94.36)">
          <path
             inkscape:connector-curvature="0"
             d="m 0,0 c -0.721,0 -1.152,0.603 -1.152,1.281 l 0.576,0 c 0,-0.346 0.173,-0.705 0.576,-0.705 0.316,0 0.575,0.287 0.575,0.619 0,0.231 -0.086,0.403 -0.331,0.59 -0.086,0.086 0.145,-0.072 -0.69,0.488 -0.331,0.231 -0.504,0.549 -0.504,0.909 0,0.589 0.46,1.064 1.051,1.064 0.576,0 1.022,-0.445 1.036,-1.064 l -0.562,0 C 0.561,3.469 0.359,3.656 0.101,3.656 -0.173,3.656 -0.389,3.455 -0.389,3.182 -0.389,2.98 -0.303,2.865 0,2.691 0.792,2.23 1.137,1.785 1.137,1.195 1.137,0.531 0.633,0 0,0"
             style="fill:#231f20;fill-opacity:1;fill-rule:nonzero;stroke:none"
             id="path12884" />
        </g>
        <g
           id="g12886"
           transform="translate(95.3764,94.432)">
          <path
             inkscape:connector-curvature="0"
             d="m 0,0 0,1.858 -1.123,0 0,-1.858 -0.591,0 0,4.104 0.591,0 0,-1.672 1.123,0 0,1.672 0.59,0 L 0.59,0 0,0 z"
             style="fill:#231f20;fill-opacity:1;fill-rule:nonzero;stroke:none"
             id="path12888" />
        </g>
        <g
           id="g12890"
           transform="translate(100.0845,96.29)">
          <path
             inkscape:connector-curvature="0"
             d="m 0,0 -0.591,0 0,-1.282 0.591,0 c 0.331,0 0.547,0.229 0.547,0.59 C 0.547,-0.303 0.302,0 0,0 m 0.028,1.669 -0.619,0 0,-1.095 0.619,0 c 0.274,0 0.447,0.23 0.447,0.605 0,0.346 -0.129,0.49 -0.447,0.49 m 0,-3.527 -1.209,0 0,4.104 1.296,0 c 0.547,0 0.936,-0.434 0.936,-1.067 0,-0.375 -0.101,-0.547 -0.432,-0.892 0.317,-0.26 0.504,-0.606 0.504,-1.022 0,-0.619 -0.49,-1.123 -1.095,-1.123"
             style="fill:#231f20;fill-opacity:1;fill-rule:nonzero;stroke:none"
             id="path12892" />
        </g>
        <g
           id="g12894"
           transform="translate(104.0434,94.936)">
          <path
             inkscape:connector-curvature="0"
             d="m 0,0 c -0.201,-0.332 -0.59,-0.576 -0.979,-0.576 -0.403,0 -0.806,0.23 -1.008,0.576 -0.115,0.215 -0.159,0.389 -0.159,0.719 l 0,2.881 0.591,0 0,-2.953 C -1.555,0.258 -1.324,0 -0.979,0 c 0.317,0 0.547,0.258 0.547,0.647 l 0,2.953 0.59,0 0,-2.881 C 0.158,0.389 0.115,0.215 0,0"
             style="fill:#231f20;fill-opacity:1;fill-rule:nonzero;stroke:none"
             id="path12896" />
        </g>
        <g
           id="g12898"
           transform="translate(106.1167,97.987)">
          <path
             inkscape:connector-curvature="0"
             d="m 0,0 0,-3.555 -0.59,0 0,3.555 -0.749,0 0,0.549 2.088,0 L 0.749,0 0,0 z"
             style="fill:#231f20;fill-opacity:1;fill-rule:nonzero;stroke:none"
             id="path12900" />
        </g>
        <g
           id="g12902"
           transform="translate(108.4487,97.987)">
          <path
             inkscape:connector-curvature="0"
             d="m 0,0 0,-3.555 -0.59,0 0,3.555 -0.749,0 0,0.549 2.088,0 L 0.749,0 0,0 z"
             style="fill:#231f20;fill-opacity:1;fill-rule:nonzero;stroke:none"
             id="path12904" />
        </g>
        <g
           id="g12906"
           transform="translate(111.4009,97.5121)">
          <path
             inkscape:connector-curvature="0"
             d="m 0,0 c -0.101,0.36 -0.26,0.52 -0.504,0.52 -0.26,0 -0.418,-0.16 -0.519,-0.504 -0.1,-0.319 -0.129,-0.592 -0.129,-1.053 0,-0.445 0.043,-0.705 0.129,-1.035 0.101,-0.346 0.259,-0.504 0.519,-0.504 0.244,0 0.403,0.158 0.504,0.504 0.1,0.33 0.129,0.576 0.129,1.051 C 0.129,-0.56 0.086,-0.303 0,0 m 0.461,-2.447 c -0.202,-0.49 -0.504,-0.705 -0.965,-0.705 -0.49,0 -0.777,0.215 -0.979,0.705 -0.173,0.402 -0.231,0.791 -0.231,1.426 0,0.619 0.058,1.037 0.231,1.426 0.215,0.488 0.504,0.689 0.979,0.689 0.475,0 0.763,-0.201 0.965,-0.705 0.172,-0.402 0.229,-0.791 0.229,-1.41 0,-0.635 -0.057,-1.037 -0.229,-1.426"
             style="fill:#231f20;fill-opacity:1;fill-rule:nonzero;stroke:none"
             id="path12908" />
        </g>
        <g
           id="g12910"
           transform="translate(114.77,94.432)">
          <path
             inkscape:connector-curvature="0"
             d="m 0,0 -1.268,2.75 0,-2.75 -0.589,0 0,4.104 0.589,0 1.124,-2.463 0,2.463 0.59,0 L 0.446,0 0,0 z"
             style="fill:#231f20;fill-opacity:1;fill-rule:nonzero;stroke:none"
             id="path12912" />
        </g>
        <g
           id="g12914"
           transform="translate(118.1235,94.3871)">
          <path
             inkscape:connector-curvature="0"
             d="M 0,0 3.648,-2.469 0,-4.941 c -0.161,-0.11 -0.381,-0.067 -0.49,0.094 -0.074,0.107 -0.061,0.218 -0.027,0.351 l 0.322,1.07 -37.995,0 0,1.913 37.995,0 -0.314,1.054 C -0.55,-0.314 -0.566,-0.207 -0.49,-0.094 -0.381,0.067 -0.161,0.108 0,0"
             style="fill:#231f20;fill-opacity:1;fill-rule:evenodd;stroke:none"
             id="path12916" />
        </g>
        <path
           inkscape:connector-curvature="0"
           d="m 78.058,117.706 9.329,0 0,-11.663 -9.329,0 0,11.663 z"
           style="fill:#231f20;fill-opacity:1;fill-rule:evenodd;stroke:none"
           id="path12918" />
        <g
           id="g12920"
           transform="translate(80.6548,106.569)">
          <path
             inkscape:connector-curvature="0"
             d="m 0,0 c 0.097,0.117 0.207,0.246 0.218,0.453 l 0,1.516 c 0,0.66 -0.223,0.773 -0.44,0.974 -0.359,0.334 -0.305,0.809 -0.285,1.42 0.055,1.695 0.118,2.717 0.125,4.301 0.001,0.201 0.165,0.365 0.366,0.365 0.202,0 0.368,-0.164 0.368,-0.365 l 0.126,-2.57 0.165,0.004 c 0.028,1.173 0.082,2.357 0.082,3.531 0,0.201 0.164,0.367 0.366,0.367 0.202,0 0.366,-0.166 0.366,-0.367 0,-0.002 0,-0.008 10e-4,-0.01 l 0.051,-3.525 0.17,0 c 0.048,1.33 0.142,2.689 0.142,4.017 0,0.203 0.164,0.367 0.367,0.367 0.202,0 0.366,-0.164 0.366,-0.367 0,0 0,-0.004 0.001,-0.004 l 0.078,-4.013 0.222,0 c 0.013,1.185 0.027,2.369 0.04,3.554 0.007,0.194 0.171,0.348 0.366,0.348 0.197,0 0.362,-0.16 0.366,-0.357 L 3.808,4.91 C 3.807,4.824 3.885,4.758 3.973,4.758 c 0.048,0 0.162,0.035 0.25,0.17 L 5.051,6.129 C 5.365,6.568 5.783,6.656 6.273,6.471 5.97,5.898 5.342,4.488 4.705,3.697 4.37,3.172 3.244,2.646 3.244,1.971 l 0,-1.383 C 3.244,0.305 3.524,-0.018 3.512,0 L 0,0 z"
             style="fill:#f48412;fill-opacity:1;fill-rule:evenodd;stroke:none"
             id="path12922" />
        </g>
        <g
           id="g12924"
           transform="translate(96.7866,114.2801)">
          <path
             inkscape:connector-curvature="0"
             d="m 0,0 c -0.044,0.447 -0.13,0.59 -0.346,0.59 l -0.331,0 0,-3.037 0.331,0 c 0.188,0 0.288,0.128 0.346,0.431 0.014,0.145 0.043,0.606 0.043,0.965 C 0.043,-0.748 0.014,-0.287 0,0 M 0.201,-2.78 C 0.086,-2.908 -0.115,-2.981 -0.346,-2.981 l -0.849,0 0,4.104 0.849,0 c 0.288,0 0.49,-0.102 0.619,-0.303 0.101,-0.158 0.187,-0.432 0.216,-0.691 0.058,-0.33 0.086,-0.705 0.086,-1.051 0,-0.965 -0.129,-1.584 -0.374,-1.858"
             style="fill:#231f20;fill-opacity:1;fill-rule:nonzero;stroke:none"
             id="path12926" />
        </g>
        <g
           id="g12928"
           transform="translate(98.9604,114.928)">
          <path
             inkscape:connector-curvature="0"
             d="m 0,0 c -0.476,0 -0.418,-1.281 -0.418,-1.57 0,-0.274 -0.058,-1.598 0.418,-1.598 0.461,0 0.403,1.324 0.403,1.598 C 0.403,-1.238 0.389,0 0,0 m 0,-3.701 c -1.022,0 -0.95,1.455 -0.95,2.131 0,0.705 -0.058,2.103 0.95,2.103 1.008,0 0.95,-1.412 0.95,-2.103 0,-0.676 0.058,-2.131 -0.95,-2.131"
             style="fill:#231f20;fill-opacity:1;fill-rule:nonzero;stroke:none"
             id="path12930" />
        </g>
        <g
           id="g12932"
           transform="translate(101.9985,111.2991)">
          <path
             inkscape:connector-curvature="0"
             d="m 0,0 -0.807,2.434 0,-2.434 -0.518,0 0,4.104 0.518,0 0.735,-2.045 0,2.045 0.518,0 L 0.446,0 0,0 z"
             style="fill:#231f20;fill-opacity:1;fill-rule:nonzero;stroke:none"
             id="path12934" />
        </g>
        <g
           id="g12936"
           transform="translate(103.4956,114.4091)">
          <path
             inkscape:connector-curvature="0"
             d="m 0,0 -0.158,0.131 c 0.1,0.085 0.201,0.23 0.23,0.33 l -0.043,0 c -0.187,0 -0.303,0.115 -0.303,0.302 0,0.174 0.13,0.303 0.303,0.303 0.187,0 0.317,-0.129 0.317,-0.346 C 0.346,0.461 0.216,0.187 0,0"
             style="fill:#231f20;fill-opacity:1;fill-rule:nonzero;stroke:none"
             id="path12938" />
        </g>
        <g
           id="g12940"
           transform="translate(105.31,114.87)">
          <path
             inkscape:connector-curvature="0"
             d="m 0,0 0,-3.571 -0.518,0 0,3.571 -0.504,0 0,0.533 1.554,0 L 0.532,0 0,0 z"
             style="fill:#231f20;fill-opacity:1;fill-rule:nonzero;stroke:none"
             id="path12942" />
        </g>
        <g
           id="g12944"
           transform="translate(110.0473,111.717)">
          <path
             inkscape:connector-curvature="0"
             d="m 0,0 c -0.072,-0.302 -0.36,-0.49 -0.721,-0.49 -0.417,0 -0.676,0.174 -0.805,0.547 -0.116,0.346 -0.173,0.908 -0.173,1.57 0,0.375 0.043,0.922 0.1,1.239 0.116,0.632 0.361,0.878 0.85,0.878 0.461,0 0.763,-0.289 0.807,-0.793 l -0.533,0 c -0.015,0.174 -0.116,0.26 -0.259,0.26 -0.188,0 -0.288,-0.131 -0.346,-0.404 -0.072,-0.33 -0.087,-0.633 -0.087,-1.18 0,-0.576 0.015,-0.82 0.087,-1.166 0.058,-0.273 0.158,-0.418 0.331,-0.418 0.188,0 0.274,0.145 0.274,0.504 l 0.533,0 C 0.058,0.231 0.043,0.145 0,0"
             style="fill:#231f20;fill-opacity:1;fill-rule:nonzero;stroke:none"
             id="path12946" />
        </g>
        <g
           id="g12948"
           transform="translate(111.3432,114.87)">
          <path
             inkscape:connector-curvature="0"
             d="m 0,0 -0.259,0 0,-1.123 0.346,0 c 0.287,0 0.374,0.13 0.374,0.519 C 0.461,-0.143 0.36,0 0,0 m 0.562,-1.526 0.418,-2.045 -0.534,0 -0.461,1.916 -0.244,0 0,-1.916 -0.518,0 0,4.104 0.806,0 c 0.633,0 0.964,-0.389 0.964,-1.153 0,-0.46 -0.129,-0.718 -0.431,-0.906"
             style="fill:#231f20;fill-opacity:1;fill-rule:nonzero;stroke:none"
             id="path12950" />
        </g>
        <g
           id="g12952"
           transform="translate(113.8198,114.928)">
          <path
             inkscape:connector-curvature="0"
             d="m 0,0 c -0.475,0 -0.417,-1.281 -0.417,-1.57 0,-0.274 -0.058,-1.598 0.417,-1.598 0.461,0 0.403,1.324 0.403,1.598 C 0.403,-1.238 0.389,0 0,0 m 0,-3.701 c -1.023,0 -0.95,1.455 -0.95,2.131 0,0.705 -0.058,2.103 0.95,2.103 1.008,0 0.95,-1.412 0.95,-2.103 0,-0.676 0.058,-2.131 -0.95,-2.131"
             style="fill:#231f20;fill-opacity:1;fill-rule:nonzero;stroke:none"
             id="path12954" />
        </g>
        <g
           id="g12956"
           transform="translate(116.728,111.415)">
          <path
             inkscape:connector-curvature="0"
             d="m 0,0 c -0.129,-0.116 -0.316,-0.188 -0.532,-0.188 -0.576,0 -0.879,0.375 -0.907,1.094 l 0.532,0 c 0,-0.158 0.014,-0.215 0.044,-0.301 0.043,-0.158 0.173,-0.26 0.331,-0.26 0.201,0 0.331,0.158 0.331,0.418 0,0.36 -0.13,0.662 -0.446,1.037 -0.188,0.215 -0.318,0.373 -0.361,0.432 -0.23,0.273 -0.331,0.561 -0.331,0.85 0,0.56 0.346,0.964 0.835,0.964 0.504,0 0.777,-0.318 0.835,-0.964 l -0.532,0 c -0.015,0.316 -0.101,0.445 -0.288,0.445 -0.201,0 -0.317,-0.172 -0.317,-0.445 0,-0.188 0.072,-0.332 0.288,-0.563 C -0.071,2.015 0,1.914 0.13,1.656 0.245,1.396 0.331,1.05 0.331,0.763 0.331,0.474 0.202,0.171 0,0"
             style="fill:#231f20;fill-opacity:1;fill-rule:nonzero;stroke:none"
             id="path12958" />
        </g>
        <g
           id="g12960"
           transform="translate(118.9018,111.415)">
          <path
             inkscape:connector-curvature="0"
             d="m 0,0 c -0.129,-0.116 -0.316,-0.188 -0.532,-0.188 -0.576,0 -0.879,0.375 -0.907,1.094 l 0.532,0 c 0,-0.158 0.015,-0.215 0.044,-0.301 0.043,-0.158 0.173,-0.26 0.331,-0.26 0.201,0 0.331,0.158 0.331,0.418 0,0.36 -0.13,0.662 -0.446,1.037 -0.188,0.215 -0.317,0.373 -0.361,0.432 -0.23,0.273 -0.331,0.561 -0.331,0.85 0,0.56 0.346,0.964 0.835,0.964 0.504,0 0.778,-0.318 0.835,-0.964 l -0.532,0 c -0.015,0.316 -0.101,0.445 -0.288,0.445 -0.201,0 -0.317,-0.172 -0.317,-0.445 0,-0.188 0.072,-0.332 0.289,-0.563 C -0.071,2.015 0,1.914 0.13,1.656 0.245,1.396 0.331,1.05 0.331,0.763 0.331,0.474 0.202,0.171 0,0"
             style="fill:#231f20;fill-opacity:1;fill-rule:nonzero;stroke:none"
             id="path12962" />
        </g>
        <g
           id="g12964"
           transform="translate(80.3042,118.6371)">
          <path
             inkscape:connector-curvature="0"
             d="m 0,0 c 0,-0.125 -0.035,-0.226 -0.105,-0.308 -0.079,-0.096 -0.193,-0.143 -0.342,-0.143 -0.186,0 -0.313,0.088 -0.382,0.266 -0.028,0.072 -0.045,0.162 -0.049,0.265 l 0.265,0 c 0.008,-0.177 0.063,-0.265 0.165,-0.265 0.121,0 0.181,0.062 0.181,0.185 0,0.166 -0.049,0.315 -0.15,0.447 -0.093,0.106 -0.186,0.211 -0.278,0.319 -0.101,0.131 -0.152,0.281 -0.152,0.447 0,0.086 0.031,0.168 0.094,0.252 0.081,0.109 0.189,0.164 0.327,0.166 0.178,0 0.302,-0.078 0.372,-0.236 C -0.023,1.33 -0.006,1.252 0,1.16 l -0.267,0 c -0.008,0.137 -0.062,0.203 -0.159,0.203 -0.043,0 -0.08,-0.013 -0.11,-0.044 -0.03,-0.03 -0.045,-0.065 -0.045,-0.106 0,-0.117 0.051,-0.234 0.151,-0.351 C -0.247,0.651 -0.154,0.541 -0.151,0.537 -0.051,0.385 0,0.205 0,0"
             style="fill:#231f20;fill-opacity:1;fill-rule:nonzero;stroke:none"
             id="path12966" />
        </g>
        <g
           id="g12968"
           transform="translate(81.2427,119.981)">
          <path
             inkscape:connector-curvature="0"
             d="m 0,0 -0.254,0 0,-1.775 -0.267,0 0,1.775 -0.253,0 0,0.266 L 0,0.266 0,0 z"
             style="fill:#231f20;fill-opacity:1;fill-rule:nonzero;stroke:none"
             id="path12970" />
        </g>
        <g
           id="g12972"
           transform="translate(82.3042,118.2061)">
          <path
             inkscape:connector-curvature="0"
             d="m 0,0 -0.775,0 0,2.041 0.775,0 0,-0.266 -0.51,0 0,-0.551 0.326,0 0,-0.248 -0.326,0 0,-0.711 0.51,0 L 0,0 z"
             style="fill:#231f20;fill-opacity:1;fill-rule:nonzero;stroke:none"
             id="path12974" />
        </g>
        <g
           id="g12976"
           transform="translate(83.1352,118.9811)">
          <path
             inkscape:connector-curvature="0"
             d="M 0,0 -0.118,0.578 -0.238,0 0,0 z m 0.433,-0.775 -0.274,0 -0.103,0.509 -0.347,0 -0.106,-0.509 -0.272,0 0.418,2.041 0.266,0 0.418,-2.041 z"
             style="fill:#231f20;fill-opacity:1;fill-rule:nonzero;stroke:none"
             id="path12978" />
        </g>
        <g
           id="g12980"
           transform="translate(84.4673,119.2271)">
          <path
             inkscape:connector-curvature="0"
             d="m 0,0 c 0,0.338 -0.03,0.563 -0.092,0.674 -0.03,0.053 -0.075,0.08 -0.137,0.08 l -0.118,0 0,-1.51 0.118,0 c 0.063,0 0.109,0.028 0.137,0.078 C -0.03,-0.568 0,-0.344 0,0 m 0.266,0 c 0,-0.443 -0.06,-0.742 -0.18,-0.894 -0.066,-0.084 -0.167,-0.127 -0.3,-0.127 l -0.398,0 0,2.041 0.398,0 C -0.082,1.02 0.018,0.977 0.084,0.889 0.205,0.734 0.266,0.44 0.266,0"
             style="fill:#231f20;fill-opacity:1;fill-rule:nonzero;stroke:none"
             id="path12982" />
        </g>
        <g
           id="g12984"
           transform="translate(86.0581,120.247)">
          <path
             inkscape:connector-curvature="0"
             d="m 0,0 -0.419,-1.082 0,-0.959 -0.266,0 0,0.959 L -1.103,0 -0.818,0 -0.551,-0.688 -0.284,0 0,0 z"
             style="fill:#231f20;fill-opacity:1;fill-rule:nonzero;stroke:none"
             id="path12986" />
        </g>
        <path
           inkscape:connector-curvature="0"
           d="m 78.058,154.077 9.329,0 0,-11.66 -9.329,0 0,11.66 z"
           style="fill:#231f20;fill-opacity:1;fill-rule:evenodd;stroke:none"
           id="path12988" />
        <path
           inkscape:connector-curvature="0"
           d="m 78.058,139.372 9.329,0 0,-10.707 -9.329,0 0,10.707 z"
           style="fill:#231f20;fill-opacity:1;fill-rule:evenodd;stroke:none"
           id="path12990" />
        <g
           id="g12992"
           transform="translate(80.6548,142.942)">
          <path
             inkscape:connector-curvature="0"
             d="m 0,0 c 0.097,0.117 0.207,0.244 0.218,0.453 l 0,1.516 c 0,0.66 -0.223,0.771 -0.44,0.974 -0.359,0.334 -0.305,0.807 -0.285,1.42 0.055,1.694 0.118,2.715 0.125,4.299 0.001,0.203 0.165,0.367 0.367,0.367 0.201,0 0.367,-0.164 0.367,-0.367 l 0.126,-2.57 0.165,0.004 c 0.028,1.173 0.082,2.359 0.082,3.533 0,0.201 0.164,0.365 0.366,0.365 0.202,0 0.366,-0.164 0.366,-0.365 0,-0.004 0,-0.008 10e-4,-0.012 l 0.051,-3.523 0.17,0 c 0.048,1.328 0.142,2.689 0.142,4.017 0,0.201 0.164,0.367 0.367,0.367 0.202,0 0.366,-0.166 0.366,-0.367 0,0 0,-0.004 0.001,-0.004 l 0.078,-4.013 0.222,0 c 0.013,1.183 0.027,2.369 0.04,3.554 0.007,0.194 0.171,0.346 0.366,0.346 0.197,0 0.362,-0.158 0.366,-0.357 L 3.808,4.91 C 3.807,4.822 3.885,4.758 3.973,4.758 c 0.048,0 0.162,0.035 0.25,0.17 L 5.051,6.127 C 5.365,6.568 5.783,6.656 6.273,6.471 5.97,5.898 5.342,4.488 4.705,3.697 4.37,3.172 3.244,2.646 3.244,1.971 l 0,-1.383 C 3.244,0.305 3.524,-0.018 3.512,0 L 0,0 z"
             style="fill:#f48412;fill-opacity:1;fill-rule:evenodd;stroke:none"
             id="path12994" />
        </g>
        <path
           inkscape:connector-curvature="0"
           d="m 82.531,156.456 0.354,0 0,-1.95 -0.354,0 0,1.95 z"
           style="fill:#231f20;fill-opacity:1;fill-rule:evenodd;stroke:none"
           id="path12996" />
        <g
           id="g12998"
           transform="translate(89.0805,155.995)">
          <path
             inkscape:connector-curvature="0"
             d="M 0,0 0.247,-0.256 -1.157,-1.612 -1.403,-1.356 0,0 z"
             style="fill:#231f20;fill-opacity:1;fill-rule:evenodd;stroke:none"
             id="path13000" />
        </g>
        <g
           id="g13002"
           transform="translate(76.2299,155.7231)">
          <path
             inkscape:connector-curvature="0"
             d="M 0,0 0.251,0.25 1.63,-1.129 1.38,-1.379 0,0 z"
             style="fill:#231f20;fill-opacity:1;fill-rule:evenodd;stroke:none"
             id="path13004" />
        </g>
        <g
           id="g13006"
           transform="translate(89.0805,140.483)">
          <path
             inkscape:connector-curvature="0"
             d="M 0,0 0.247,0.256 -1.157,1.611 -1.403,1.355 0,0 z"
             style="fill:#231f20;fill-opacity:1;fill-rule:evenodd;stroke:none"
             id="path13008" />
        </g>
        <g
           id="g13010"
           transform="translate(76.2299,140.754)">
          <path
             inkscape:connector-curvature="0"
             d="M 0,0 0.251,-0.25 1.63,1.129 1.38,1.379 0,0 z"
             style="fill:#231f20;fill-opacity:1;fill-rule:evenodd;stroke:none"
             id="path13012" />
        </g>
        <path
           inkscape:connector-curvature="0"
           d="m 87.985,148.563 1.951,0 0,-0.354 -1.951,0 0,0.354 z"
           style="fill:#231f20;fill-opacity:1;fill-rule:evenodd;stroke:none"
           id="path13014" />
        <g
           id="g13016"
           transform="translate(85.6206,156.4401)">
          <path
             inkscape:connector-curvature="0"
             d="M 0,0 0.321,-0.15 -0.503,-1.918 -0.824,-1.768 0,0 z"
             style="fill:#231f20;fill-opacity:1;fill-rule:evenodd;stroke:none"
             id="path13018" />
        </g>
        <g
           id="g13020"
           transform="translate(79.7964,156.4401)">
          <path
             inkscape:connector-curvature="0"
             d="M 0,0 -0.321,-0.15 0.503,-1.918 0.824,-1.768 0,0 z"
             style="fill:#231f20;fill-opacity:1;fill-rule:evenodd;stroke:none"
             id="path13022" />
        </g>
        <g
           id="g13024"
           transform="translate(88.1518,151.034)">
          <path
             inkscape:connector-curvature="0"
             d="M 0,0 -0.15,0.322 1.618,1.146 1.768,0.824 0,0 z"
             style="fill:#231f20;fill-opacity:1;fill-rule:evenodd;stroke:none"
             id="path13026" />
        </g>
        <g
           id="g13028"
           transform="translate(88.0014,145.151)">
          <path
             inkscape:connector-curvature="0"
             d="M 0,0 0.15,0.32 1.918,-0.504 1.769,-0.824 0,0 z"
             style="fill:#231f20;fill-opacity:1;fill-rule:evenodd;stroke:none"
             id="path13030" />
        </g>
        <g
           id="g13032"
           transform="translate(77.354,151.034)">
          <path
             inkscape:connector-curvature="0"
             d="M 0,0 0.15,0.322 -1.618,1.146 -1.769,0.824 0,0 z"
             style="fill:#231f20;fill-opacity:1;fill-rule:evenodd;stroke:none"
             id="path13034" />
        </g>
        <g
           id="g13036"
           transform="translate(77.5044,145.151)">
          <path
             inkscape:connector-curvature="0"
             d="m 0,0 -0.15,0.32 -1.769,-0.824 0.15,-0.32 L 0,0 z"
             style="fill:#231f20;fill-opacity:1;fill-rule:evenodd;stroke:none"
             id="path13038" />
        </g>
        <path
           inkscape:connector-curvature="0"
           d="m 75.525,148.563 1.951,0 0,-0.354 -1.951,0 0,0.354 z"
           style="fill:#231f20;fill-opacity:1;fill-rule:evenodd;stroke:none"
           id="path13040" />
        <g
           id="g13042"
           transform="translate(97.7641,154.743)">
          <path
             inkscape:connector-curvature="0"
             d="m 0,0 c -0.043,0.445 -0.13,0.59 -0.346,0.59 l -0.331,0 0,-3.038 0.331,0 c 0.188,0 0.288,0.129 0.346,0.432 0.015,0.143 0.043,0.604 0.043,0.965 C 0.043,-0.75 0.015,-0.289 0,0 M 0.201,-2.78 C 0.087,-2.909 -0.115,-2.981 -0.346,-2.981 l -0.849,0 0,4.104 0.849,0 c 0.288,0 0.491,-0.102 0.62,-0.303 0.1,-0.158 0.187,-0.432 0.215,-0.691 0.058,-0.33 0.087,-0.705 0.087,-1.051 0,-0.965 -0.13,-1.584 -0.375,-1.858"
             style="fill:#231f20;fill-opacity:1;fill-rule:nonzero;stroke:none"
             id="path13044" />
        </g>
        <g
           id="g13046"
           transform="translate(99.938,155.3911)">
          <path
             inkscape:connector-curvature="0"
             d="m 0,0 c -0.475,0 -0.417,-1.283 -0.417,-1.57 0,-0.274 -0.058,-1.598 0.417,-1.598 0.461,0 0.403,1.324 0.403,1.598 C 0.403,-1.238 0.389,0 0,0 m 0,-3.701 c -1.023,0 -0.95,1.455 -0.95,2.131 0,0.705 -0.058,2.101 0.95,2.101 1.008,0 0.951,-1.41 0.951,-2.101 0,-0.676 0.057,-2.131 -0.951,-2.131"
             style="fill:#231f20;fill-opacity:1;fill-rule:nonzero;stroke:none"
             id="path13048" />
        </g>
        <g
           id="g13050"
           transform="translate(102.9761,151.7621)">
          <path
             inkscape:connector-curvature="0"
             d="m 0,0 -0.807,2.434 0,-2.434 -0.517,0 0,4.104 0.517,0 0.735,-2.045 0,2.045 0.518,0 L 0.446,0 0,0 z"
             style="fill:#231f20;fill-opacity:1;fill-rule:nonzero;stroke:none"
             id="path13052" />
        </g>
        <g
           id="g13054"
           transform="translate(104.4731,154.872)">
          <path
             inkscape:connector-curvature="0"
             d="m 0,0 -0.158,0.13 c 0.101,0.086 0.202,0.229 0.23,0.331 l -0.043,0 c -0.187,0 -0.302,0.115 -0.302,0.302 0,0.172 0.13,0.303 0.302,0.303 0.188,0 0.317,-0.131 0.317,-0.346 C 0.346,0.461 0.217,0.187 0,0"
             style="fill:#231f20;fill-opacity:1;fill-rule:nonzero;stroke:none"
             id="path13056" />
        </g>
        <g
           id="g13058"
           transform="translate(106.2876,155.333)">
          <path
             inkscape:connector-curvature="0"
             d="m 0,0 0,-3.571 -0.518,0 0,3.571 -0.505,0 0,0.533 1.556,0 L 0.533,0 0,0 z"
             style="fill:#231f20;fill-opacity:1;fill-rule:nonzero;stroke:none"
             id="path13060" />
        </g>
        <g
           id="g13062"
           transform="translate(110.6362,151.8771)">
          <path
             inkscape:connector-curvature="0"
             d="m 0,0 c -0.13,-0.115 -0.317,-0.187 -0.533,-0.187 -0.575,0 -0.878,0.375 -0.907,1.094 l 0.533,0 c 0,-0.159 0.014,-0.215 0.043,-0.303 0.043,-0.158 0.173,-0.258 0.331,-0.258 0.202,0 0.331,0.158 0.331,0.418 0,0.359 -0.129,0.662 -0.446,1.035 -0.187,0.217 -0.317,0.375 -0.36,0.432 -0.23,0.275 -0.331,0.562 -0.331,0.85 0,0.562 0.345,0.964 0.835,0.964 0.504,0 0.777,-0.316 0.835,-0.964 l -0.533,0 c -0.014,0.318 -0.101,0.447 -0.288,0.447 -0.201,0 -0.317,-0.174 -0.317,-0.447 0,-0.186 0.073,-0.331 0.289,-0.561 C -0.072,2.016 0,1.915 0.13,1.657 0.244,1.397 0.331,1.051 0.331,0.764 0.331,0.475 0.201,0.172 0,0"
             style="fill:#231f20;fill-opacity:1;fill-rule:nonzero;stroke:none"
             id="path13064" />
        </g>
        <g
           id="g13066"
           transform="translate(112.3208,155.333)">
          <path
             inkscape:connector-curvature="0"
             d="m 0,0 0,-3.571 -0.519,0 0,3.571 -0.503,0 0,0.533 1.554,0 L 0.532,0 0,0 z"
             style="fill:#231f20;fill-opacity:1;fill-rule:nonzero;stroke:none"
             id="path13068" />
        </g>
        <g
           id="g13070"
           transform="translate(114.2212,154.469)">
          <path
             inkscape:connector-curvature="0"
             d="m 0,0 -0.231,-1.08 0.447,0 L 0,0 z m 0.561,-2.707 -0.23,1.094 -0.677,0 -0.23,-1.094 -0.533,0 0.836,4.104 0.532,0 0.849,-4.104 -0.547,0 z"
             style="fill:#231f20;fill-opacity:1;fill-rule:nonzero;stroke:none"
             id="path13072" />
        </g>
        <g
           id="g13074"
           transform="translate(116.6684,155.333)">
          <path
             inkscape:connector-curvature="0"
             d="m 0,0 -0.259,0 0,-1.124 0.345,0 c 0.288,0 0.375,0.129 0.375,0.518 C 0.461,-0.145 0.36,0 0,0 m 0.562,-1.526 0.418,-2.045 -0.534,0 -0.461,1.914 -0.244,0 0,-1.914 -0.518,0 0,4.104 0.806,0 c 0.633,0 0.964,-0.389 0.964,-1.153 0,-0.461 -0.129,-0.72 -0.431,-0.906"
             style="fill:#231f20;fill-opacity:1;fill-rule:nonzero;stroke:none"
             id="path13076" />
        </g>
        <g
           id="g13078"
           transform="translate(119.0151,155.333)">
          <path
             inkscape:connector-curvature="0"
             d="m 0,0 0,-3.571 -0.518,0 0,3.571 -0.503,0 0,0.533 1.554,0 L 0.533,0 0,0 z"
             style="fill:#231f20;fill-opacity:1;fill-rule:nonzero;stroke:none"
             id="path13080" />
        </g>
        <g
           id="g13082"
           transform="translate(95.9214,149.135)">
          <path
             inkscape:connector-curvature="0"
             d="m 0,0 0,-1.051 0.604,0 0,-0.546 -0.604,0 0,-1.973 -0.519,0 0,4.103 1.57,0 L 1.051,0 0,0 z"
             style="fill:#231f20;fill-opacity:1;fill-rule:nonzero;stroke:none"
             id="path13084" />
        </g>
        <path
           inkscape:connector-curvature="0"
           d="m 97.13,148.559 0.519,0 0,-2.994 -0.519,0 0,2.994 z m 0.259,0.662 c -0.143,0 -0.259,0.115 -0.259,0.274 0,0.144 0.116,0.259 0.274,0.259 0.144,0 0.26,-0.115 0.26,-0.273 0,-0.145 -0.116,-0.26 -0.275,-0.26"
           style="fill:#231f20;fill-opacity:1;fill-rule:nonzero;stroke:none"
           id="path13086" />
        <g
           id="g13088"
           transform="translate(99.2612,145.5651)">
          <path
             inkscape:connector-curvature="0"
             d="m 0,0 0,2.059 c 0,0.302 -0.029,0.474 -0.216,0.474 -0.187,0 -0.202,-0.244 -0.202,-0.474 l 0,-2.059 -0.517,0 0,2.994 0.517,0 0,-0.129 C -0.259,3.139 0.028,3.066 0.028,3.066 0.418,3.023 0.519,2.592 0.519,1.525 L 0.519,0 0,0 z"
             style="fill:#231f20;fill-opacity:1;fill-rule:nonzero;stroke:none"
             id="path13090" />
        </g>
        <path
           inkscape:connector-curvature="0"
           d="m 100.399,148.559 0.519,0 0,-2.994 -0.519,0 0,2.994 z m 0.259,0.662 c -0.144,0 -0.259,0.115 -0.259,0.274 0,0.144 0.115,0.259 0.273,0.259 0.144,0 0.259,-0.115 0.259,-0.273 0,-0.145 -0.115,-0.26 -0.273,-0.26"
           style="fill:#231f20;fill-opacity:1;fill-rule:nonzero;stroke:none"
           id="path13092" />
        <g
           id="g13094"
           transform="translate(102.5581,145.795)">
          <path
             inkscape:connector-curvature="0"
             d="m 0,0 c -0.144,-0.187 -0.359,-0.289 -0.575,-0.289 -0.231,0 -0.418,0.059 -0.591,0.317 l 0.144,0.605 c 0.144,-0.316 0.274,-0.431 0.417,-0.431 0.188,0 0.26,0.128 0.26,0.373 0,0.115 -0.087,0.418 -0.36,0.634 -0.303,0.245 -0.461,0.446 -0.461,0.879 0,0.186 0.043,0.36 0.144,0.504 0.116,0.158 0.23,0.244 0.49,0.244 0.201,0 0.388,-0.115 0.59,-0.359 L -0.101,1.928 c -0.187,0.332 -0.273,0.434 -0.403,0.434 -0.101,0 -0.158,-0.131 -0.158,-0.26 0,-0.072 0.029,-0.174 0.087,-0.273 C -0.547,1.786 -0.504,1.727 -0.216,1.44 0.029,1.18 0.159,0.893 0.159,0.561 0.159,0.36 0.101,0.143 0,0"
             style="fill:#231f20;fill-opacity:1;fill-rule:nonzero;stroke:none"
             id="path13096" />
        </g>
        <g
           id="g13098"
           transform="translate(104.0561,145.5651)">
          <path
             inkscape:connector-curvature="0"
             d="m 0,0 0,2.059 c 0,0.302 -0.029,0.474 -0.216,0.474 -0.187,0 -0.202,-0.244 -0.202,-0.474 l 0,-2.059 -0.518,0 0,3.844 0.518,0.33 0,-1.223 C -0.144,3.225 0.518,3.096 0.518,2.072 L 0.518,0 0,0 z"
             style="fill:#231f20;fill-opacity:1;fill-rule:nonzero;stroke:none"
             id="path13100" />
        </g>
        <g
           id="g13102"
           transform="translate(109.1968,145.9811)">
          <path
             inkscape:connector-curvature="0"
             d="m 0,0 c -0.072,-0.301 -0.36,-0.488 -0.721,-0.488 -0.417,0 -0.677,0.172 -0.805,0.547 -0.116,0.345 -0.173,0.906 -0.173,1.568 0,0.375 0.043,0.922 0.1,1.238 0.116,0.635 0.361,0.879 0.85,0.879 0.461,0 0.763,-0.287 0.807,-0.791 l -0.534,0 C -0.49,3.125 -0.591,3.211 -0.734,3.211 -0.922,3.211 -1.023,3.082 -1.08,2.809 -1.152,2.477 -1.167,2.176 -1.167,1.627 c 0,-0.574 0.015,-0.82 0.087,-1.166 0.057,-0.274 0.158,-0.416 0.331,-0.416 0.187,0 0.273,0.142 0.273,0.504 l 0.534,0 C 0.058,0.23 0.043,0.144 0,0"
             style="fill:#231f20;fill-opacity:1;fill-rule:nonzero;stroke:none"
             id="path13104" />
        </g>
        <g
           id="g13106"
           transform="translate(110.6362,147.897)">
          <path
             inkscape:connector-curvature="0"
             d="m 0,0 c -0.071,0.1 -0.13,0.172 -0.216,0.172 -0.201,0 -0.288,-0.215 -0.288,-0.59 l 0,-1.914 -0.518,0 0,2.994 0.518,0 0,-0.144 c 0.087,0.144 0.145,0.216 0.274,0.216 0.129,0 0.23,-0.086 0.288,-0.201 L 0,0 z"
             style="fill:#231f20;fill-opacity:1;fill-rule:nonzero;stroke:none"
             id="path13108" />
        </g>
        <g
           id="g13110"
           transform="translate(111.7446,148.084)">
          <path
             inkscape:connector-curvature="0"
             d="m 0,0 c -0.316,0 -0.244,-0.806 -0.244,-1.007 0,-0.188 -0.015,-1.037 0.244,-1.037 0.23,0.013 0.217,0.834 0.217,1.037 C 0.217,-0.806 0.274,0 0,0 m 0,-2.578 c -0.618,0 -0.777,0.793 -0.777,1.555 0,0.836 0.072,1.57 0.777,1.57 0.619,0 0.735,-0.705 0.735,-1.554 0,-0.764 -0.159,-1.571 -0.735,-1.571"
             style="fill:#231f20;fill-opacity:1;fill-rule:nonzero;stroke:none"
             id="path13112" />
        </g>
        <g
           id="g13114"
           transform="translate(113.9907,145.795)">
          <path
             inkscape:connector-curvature="0"
             d="m 0,0 c -0.144,-0.187 -0.359,-0.289 -0.575,-0.289 -0.231,0 -0.418,0.059 -0.591,0.317 l 0.145,0.605 c 0.143,-0.316 0.273,-0.431 0.417,-0.431 0.187,0 0.259,0.128 0.259,0.373 0,0.115 -0.087,0.418 -0.36,0.634 -0.303,0.245 -0.461,0.446 -0.461,0.879 0,0.186 0.043,0.36 0.145,0.504 0.115,0.158 0.229,0.244 0.489,0.244 0.201,0 0.388,-0.115 0.59,-0.359 L -0.101,1.928 c -0.187,0.332 -0.273,0.434 -0.403,0.434 -0.1,0 -0.158,-0.131 -0.158,-0.26 0,-0.072 0.029,-0.174 0.087,-0.273 C -0.547,1.786 -0.504,1.727 -0.216,1.44 0.029,1.18 0.159,0.893 0.159,0.561 0.159,0.36 0.102,0.143 0,0"
             style="fill:#231f20;fill-opacity:1;fill-rule:nonzero;stroke:none"
             id="path13116" />
        </g>
        <g
           id="g13118"
           transform="translate(115.5171,145.795)">
          <path
             inkscape:connector-curvature="0"
             d="m 0,0 c -0.144,-0.187 -0.36,-0.289 -0.576,-0.289 -0.231,0 -0.417,0.059 -0.59,0.317 l 0.144,0.605 c 0.144,-0.316 0.273,-0.431 0.418,-0.431 0.186,0 0.258,0.128 0.258,0.373 0,0.115 -0.086,0.418 -0.359,0.634 -0.303,0.245 -0.461,0.446 -0.461,0.879 0,0.186 0.043,0.36 0.144,0.504 0.115,0.158 0.23,0.244 0.49,0.244 0.201,0 0.388,-0.115 0.59,-0.359 L -0.101,1.928 c -0.187,0.332 -0.273,0.434 -0.403,0.434 -0.1,0 -0.158,-0.131 -0.158,-0.26 0,-0.072 0.028,-0.174 0.086,-0.273 C -0.547,1.786 -0.504,1.727 -0.216,1.44 0.029,1.18 0.158,0.893 0.158,0.561 0.158,0.36 0.101,0.143 0,0"
             style="fill:#231f20;fill-opacity:1;fill-rule:nonzero;stroke:none"
             id="path13120" />
        </g>
        <path
           inkscape:connector-curvature="0"
           d="m 116.079,148.559 0.518,0 0,-2.994 -0.518,0 0,2.994 z m 0.258,0.662 c -0.143,0 -0.258,0.115 -0.258,0.274 0,0.144 0.115,0.259 0.273,0.259 0.145,0 0.259,-0.115 0.259,-0.273 0,-0.145 -0.114,-0.26 -0.274,-0.26"
           style="fill:#231f20;fill-opacity:1;fill-rule:nonzero;stroke:none"
           id="path13122" />
        <g
           id="g13124"
           transform="translate(118.2095,145.5651)">
          <path
             inkscape:connector-curvature="0"
             d="m 0,0 0,2.059 c 0,0.302 -0.029,0.474 -0.216,0.474 -0.187,0 -0.202,-0.244 -0.202,-0.474 l 0,-2.059 -0.518,0 0,2.994 0.518,0 0,-0.129 C -0.259,3.139 0.028,3.066 0.028,3.066 0.417,3.023 0.518,2.592 0.518,1.525 L 0.518,0 0,0 z"
             style="fill:#231f20;fill-opacity:1;fill-rule:nonzero;stroke:none"
             id="path13126" />
        </g>
        <g
           id="g13128"
           transform="translate(120.2104,147.709)">
          <path
             inkscape:connector-curvature="0"
             d="m 0,0 c 0,0.129 -0.028,0.36 -0.216,0.36 -0.216,0 -0.273,-0.416 -0.273,-1.051 0,-0.359 0.014,-0.59 0.086,-0.807 0.044,-0.128 0.115,-0.201 0.202,-0.201 C -0.071,-1.683 0,-1.41 0,-1.152 L 0,0 z M 0.26,-3.24 C 0.115,-3.441 -0.015,-3.541 -0.244,-3.628 l -0.188,0.49 c 0.245,0.115 0.417,0.287 0.417,0.56 l 0,0.506 c -0.056,-0.088 -0.143,-0.144 -0.201,-0.144 -0.647,0 -0.777,0.863 -0.777,1.525 0,0.836 0.13,1.6 0.763,1.613 0.087,0 0.159,-0.043 0.288,-0.144 l 0,0.086 0.446,0 0,-3.051 C 0.504,-2.75 0.446,-2.98 0.26,-3.24"
             style="fill:#231f20;fill-opacity:1;fill-rule:nonzero;stroke:none"
             id="path13130" />
        </g>
        <path
           inkscape:connector-curvature="0"
           d="m 100.183,144.436 0.518,0 0,-4.103 -0.518,0 0,4.103 z"
           style="fill:#231f20;fill-opacity:1;fill-rule:nonzero;stroke:none"
           id="path13132" />
        <g
           id="g13134"
           transform="translate(102.0122,142.8521)">
          <path
             inkscape:connector-curvature="0"
             d="m 0,0 0,-2.519 -0.519,0 0,2.519 -0.202,0 0,0.477 0.202,0 0,0.662 c 0,0.302 0.159,0.517 0.404,0.517 0.1,0 0.216,0 0.331,-0.072 l 0,-0.475 C 0.158,1.211 0,1.211 0,0.951 l 0,-0.474 0.23,0 L 0.23,0 0,0 z"
             style="fill:#231f20;fill-opacity:1;fill-rule:nonzero;stroke:none"
             id="path13136" />
        </g>
        <g
           id="g13138"
           transform="translate(106.0141,140.4481)">
          <path
             inkscape:connector-curvature="0"
             d="m 0,0 c -0.13,-0.115 -0.316,-0.188 -0.532,-0.188 -0.576,0 -0.879,0.375 -0.907,1.096 l 0.532,0 c 0,-0.158 0.015,-0.217 0.044,-0.303 0.043,-0.158 0.173,-0.26 0.331,-0.26 0.201,0 0.331,0.159 0.331,0.418 0,0.36 -0.13,0.663 -0.446,1.038 -0.188,0.214 -0.317,0.373 -0.361,0.431 -0.23,0.274 -0.331,0.561 -0.331,0.85 0,0.56 0.346,0.965 0.835,0.965 C 0,4.047 0.274,3.73 0.331,3.082 l -0.532,0 c -0.015,0.316 -0.101,0.445 -0.288,0.445 -0.201,0 -0.317,-0.172 -0.317,-0.445 0,-0.188 0.072,-0.332 0.288,-0.563 C -0.071,2.015 0,1.916 0.13,1.656 0.245,1.396 0.331,1.051 0.331,0.763 0.331,0.474 0.202,0.174 0,0"
             style="fill:#231f20;fill-opacity:1;fill-rule:nonzero;stroke:none"
             id="path13140" />
        </g>
        <g
           id="g13142"
           transform="translate(107.7134,140.477)">
          <path
             inkscape:connector-curvature="0"
             d="m 0,0 c -0.101,-0.129 -0.188,-0.187 -0.303,-0.187 -0.316,0 -0.547,0.332 -0.547,0.763 l 0,1.799 -0.316,0 0,0.477 0.316,0 0,0.863 0.533,0.316 0,-1.179 0.36,0 0,-0.461 -0.36,0 0,-1.815 c 0,-0.144 0.072,-0.244 0.172,-0.244 0.087,0 0.13,0.057 0.203,0.158 L 0,0 z"
             style="fill:#231f20;fill-opacity:1;fill-rule:nonzero;stroke:none"
             id="path13144" />
        </g>
        <g
           id="g13146"
           transform="translate(108.894,141.7021)">
          <path
             inkscape:connector-curvature="0"
             d="m 0,0 c 0,0 -0.029,0.099 -0.23,0.099 -0.13,0 -0.246,-0.115 -0.246,-0.474 0,-0.375 0.058,-0.547 0.274,-0.547 0.158,0 0.202,0.086 0.202,0.273 L 0,0 z m 0.043,-1.369 0,0.085 c -0.072,-0.085 -0.188,-0.128 -0.346,-0.128 -0.403,0 -0.691,0.447 -0.691,1.05 0,0.577 0.346,1.225 0.994,0.965 L 0,0.82 c 0,0.23 -0.058,0.316 -0.23,0.316 -0.216,0 -0.418,-0.273 -0.504,-0.431 l -0.13,0.648 c 0.202,0.229 0.388,0.344 0.619,0.344 0.634,0 0.763,-0.574 0.763,-1.065 l 0,-2.001 -0.475,0 z"
             style="fill:#231f20;fill-opacity:1;fill-rule:nonzero;stroke:none"
             id="path13148" />
        </g>
        <g
           id="g13150"
           transform="translate(111.0532,142.665)">
          <path
             inkscape:connector-curvature="0"
             d="m 0,0 c -0.071,0.101 -0.13,0.173 -0.216,0.173 -0.201,0 -0.288,-0.216 -0.288,-0.589 l 0,-1.916 -0.519,0 0,2.996 0.519,0 0,-0.145 c 0.087,0.145 0.145,0.215 0.274,0.215 0.129,0 0.23,-0.086 0.288,-0.201 L 0,0 z"
             style="fill:#231f20;fill-opacity:1;fill-rule:nonzero;stroke:none"
             id="path13152" />
        </g>
        <g
           id="g13154"
           transform="translate(112.3491,140.477)">
          <path
             inkscape:connector-curvature="0"
             d="m 0,0 c -0.101,-0.129 -0.188,-0.187 -0.302,-0.187 -0.317,0 -0.548,0.332 -0.548,0.763 l 0,1.799 -0.316,0 0,0.477 0.316,0 0,0.863 0.534,0.316 0,-1.179 0.359,0 0,-0.461 -0.359,0 0,-1.815 c 0,-0.144 0.071,-0.244 0.172,-0.244 0.086,0 0.129,0.057 0.202,0.158 L 0,0 z"
             style="fill:#231f20;fill-opacity:1;fill-rule:nonzero;stroke:none"
             id="path13156" />
        </g>
        <g
           id="g13158"
           transform="translate(113.3569,142.838)">
          <path
             inkscape:connector-curvature="0"
             d="m 0,0 c -0.173,0 -0.245,-0.187 -0.245,-0.777 l 0.504,0 C 0.259,-0.173 0.173,0 0,0 m -0.245,-1.31 c 0.014,-0.576 0.087,-0.719 0.274,-0.719 0.115,0 0.201,0.086 0.287,0.389 l 0.331,-0.477 c -0.1,-0.273 -0.301,-0.445 -0.546,-0.445 -0.663,0 -0.85,0.603 -0.85,1.541 0,0.949 0.173,1.582 0.764,1.582 0.748,0 0.734,-1.309 0.719,-1.871 l -0.979,0 z"
             style="fill:#231f20;fill-opacity:1;fill-rule:nonzero;stroke:none"
             id="path13160" />
        </g>
        <g
           id="g13162"
           transform="translate(115.4155,142.479)">
          <path
             inkscape:connector-curvature="0"
             d="m 0,0 c 0,0.143 -0.014,0.373 -0.201,0.373 -0.216,0 -0.26,-0.23 -0.26,-0.992 0,-0.678 0.015,-1.037 0.26,-1.037 C 0,-1.656 0,-1.34 0,-1.182 L 0,0 z m 0.015,-2.146 0,0.115 c -0.086,-0.129 -0.173,-0.188 -0.317,-0.188 -0.533,0 -0.691,0.75 -0.691,1.6 0,0.373 0.028,1.885 0.993,1.453 l 0,0.879 0.519,0.316 0,-4.175 -0.504,0 z"
             style="fill:#231f20;fill-opacity:1;fill-rule:nonzero;stroke:none"
             id="path13164" />
        </g>
        <path
           inkscape:connector-curvature="0"
           d="m 96.589,151.157 22.938,0 0,-0.582 -22.938,0 0,0.582 z"
           style="fill:#231f20;fill-opacity:1;fill-rule:evenodd;stroke:none"
           id="path13166" />
        <path
           inkscape:connector-curvature="0"
           d="m 96.589,139.053 22.938,0 0,-0.582 -22.938,0 0,0.582 z"
           style="fill:#231f20;fill-opacity:1;fill-rule:evenodd;stroke:none"
           id="path13168" />
        <g
           id="g13170"
           transform="translate(78.4477,139.9131)">
          <path
             inkscape:connector-curvature="0"
             d="m 0,0 0,2.041 0.775,0 0,-0.268 -0.51,0 0,-0.549 0.305,0 0,-0.265 -0.305,0 L 0.265,0 0,0 z"
             style="fill:#231f20;fill-opacity:1;fill-rule:nonzero;stroke:none"
             id="path13172" />
        </g>
        <g
           id="g13174"
           transform="translate(80.2837,139.9131)">
          <path
             inkscape:connector-curvature="0"
             d="m 0,0 -0.775,0 0,2.041 0.265,0 0,-1.776 0.51,0 L 0,0 z"
             style="fill:#231f20;fill-opacity:1;fill-rule:nonzero;stroke:none"
             id="path13176" />
        </g>
        <g
           id="g13178"
           transform="translate(81.0747,140.688)">
          <path
             inkscape:connector-curvature="0"
             d="M 0,0 -0.118,0.578 -0.239,0 0,0 z m 0.433,-0.775 -0.274,0 -0.104,0.509 -0.347,0 -0.106,-0.509 -0.272,0 0.419,2.041 0.265,0 0.419,-2.041 z"
             style="fill:#231f20;fill-opacity:1;fill-rule:nonzero;stroke:none"
             id="path13180" />
        </g>
        <g
           id="g13182"
           transform="translate(82.5483,140.342)">
          <path
             inkscape:connector-curvature="0"
             d="m 0,0 c 0,-0.123 -0.034,-0.226 -0.103,-0.308 -0.08,-0.094 -0.194,-0.143 -0.344,-0.143 -0.185,0 -0.312,0.09 -0.381,0.266 -0.029,0.074 -0.046,0.162 -0.05,0.265 l 0.266,0 c 0.008,-0.175 0.063,-0.265 0.165,-0.265 0.121,0 0.181,0.062 0.181,0.185 0,0.166 -0.05,0.317 -0.151,0.448 -0.093,0.107 -0.186,0.212 -0.277,0.318 -0.102,0.133 -0.152,0.281 -0.152,0.449 0,0.084 0.032,0.168 0.094,0.25 0.08,0.11 0.189,0.164 0.327,0.166 0.177,0.002 0.301,-0.076 0.372,-0.234 C -0.023,1.33 -0.005,1.252 0,1.162 l -0.266,0 c -0.009,0.135 -0.062,0.204 -0.159,0.204 -0.044,0 -0.08,-0.016 -0.11,-0.045 C -0.565,1.291 -0.58,1.256 -0.58,1.215 -0.58,1.096 -0.53,0.979 -0.429,0.864 -0.246,0.651 -0.154,0.543 -0.151,0.539 -0.05,0.387 0,0.207 0,0"
             style="fill:#231f20;fill-opacity:1;fill-rule:nonzero;stroke:none"
             id="path13184" />
        </g>
        <g
           id="g13186"
           transform="translate(83.7534,139.9131)">
          <path
             inkscape:connector-curvature="0"
             d="m 0,0 -0.266,0 0,0.959 -0.346,0 0,-0.959 -0.266,0 0,2.041 0.266,0 0,-0.817 0.346,0 0,0.817 L 0,2.041 0,0 z"
             style="fill:#231f20;fill-opacity:1;fill-rule:nonzero;stroke:none"
             id="path13188" />
        </g>
        <path
           inkscape:connector-curvature="0"
           d="m 84.468,139.913 -0.267,0 0,2.041 0.267,0 0,-2.041 z"
           style="fill:#231f20;fill-opacity:1;fill-rule:nonzero;stroke:none"
           id="path13190" />
        <g
           id="g13192"
           transform="translate(85.7944,139.9131)">
          <path
             inkscape:connector-curvature="0"
             d="m 0,0 -0.245,0 -0.367,1.17 0,-1.17 -0.266,0 0,2.041 0.265,0 0.347,-1.098 0,1.098 L 0,2.041 0,0 z"
             style="fill:#231f20;fill-opacity:1;fill-rule:nonzero;stroke:none"
             id="path13194" />
        </g>
        <g
           id="g13196"
           transform="translate(86.6509,141.7081)">
          <path
             inkscape:connector-curvature="0"
             d="m 0,0 c -0.08,0 -0.136,-0.073 -0.167,-0.215 -0.024,-0.116 -0.037,-0.303 -0.037,-0.561 0,-0.211 0.006,-0.363 0.018,-0.457 0.029,-0.211 0.09,-0.318 0.186,-0.318 0.095,0 0.143,0.084 0.143,0.248 l 0,0.201 -0.143,0 0,0.266 0.408,0 0,-0.465 C 0.408,-1.448 0.379,-1.565 0.32,-1.655 0.249,-1.762 0.143,-1.817 0,-1.817 c -0.19,0 -0.32,0.108 -0.393,0.318 -0.051,0.155 -0.077,0.395 -0.077,0.723 0,0.344 0.03,0.594 0.09,0.754 0.072,0.191 0.198,0.287 0.38,0.287 0.24,0 0.377,-0.131 0.408,-0.392 l -0.265,0 C 0.11,-0.043 0.063,0 0,0"
             style="fill:#231f20;fill-opacity:1;fill-rule:nonzero;stroke:none"
             id="path13198" />
        </g>
        <g
           id="g13200"
           transform="translate(94.1509,136.321)">
          <path
             inkscape:connector-curvature="0"
             d="m 0,0 -0.544,0 0,-3.803 -0.569,0 0,3.803 -0.544,0 0,0.57 L 0,0.57 0,0 z"
             style="fill:#231f20;fill-opacity:1;fill-rule:nonzero;stroke:none"
             id="path13202" />
        </g>
        <path
           inkscape:connector-curvature="0"
           d="m 95.269,132.518 -0.569,0 0,4.373 0.569,0 0,-4.373 z"
           style="fill:#231f20;fill-opacity:1;fill-rule:nonzero;stroke:none"
           id="path13204" />
        <g
           id="g13206"
           transform="translate(98.31,132.518)">
          <path
             inkscape:connector-curvature="0"
             d="m 0,0 -0.569,0 0,2.537 -0.503,-1.574 -0.503,1.574 0,-2.537 -0.57,0 0,4.373 0.569,0 0.504,-1.617 0.542,1.617 0.53,0 L 0,0 z"
             style="fill:#231f20;fill-opacity:1;fill-rule:nonzero;stroke:none"
             id="path13208" />
        </g>
        <g
           id="g13210"
           transform="translate(100.8657,132.518)">
          <path
             inkscape:connector-curvature="0"
             d="m 0,0 -1.661,0 0,4.373 1.661,0 0,-0.57 -1.092,0 0,-1.176 0.698,0 0,-0.531 -0.698,0 0,-1.526 L 0,0.57 0,0 z"
             style="fill:#231f20;fill-opacity:1;fill-rule:nonzero;stroke:none"
             id="path13212" />
        </g>
        <g
           id="g13214"
           transform="translate(104.2964,135.7111)">
          <path
             inkscape:connector-curvature="0"
             d="m 0,0 c 0,0.407 -0.125,0.61 -0.375,0.61 l -0.366,0 0,-1.176 0.353,0 C -0.13,-0.566 0,-0.378 0,0 m 0.569,-3.193 -0.581,0 -0.454,2.057 -0.275,0 0,-2.057 -0.569,0 0,4.373 0.787,0 c 0.248,0 0.458,-0.053 0.629,-0.158 0.309,-0.191 0.463,-0.533 0.463,-1.024 0,-0.503 -0.16,-0.839 -0.48,-1.009 l 0.48,-2.182 z"
             style="fill:#231f20;fill-opacity:1;fill-rule:nonzero;stroke:none"
             id="path13216" />
        </g>
        <g
           id="g13218"
           transform="translate(107.1626,132.518)">
          <path
             inkscape:connector-curvature="0"
             d="m 0,0 -1.661,0 0,4.373 1.661,0 0,-0.57 -1.092,0 0,-1.176 0.698,0 0,-0.531 -0.698,0 0,-1.526 L 0,0.57 0,0 z"
             style="fill:#231f20;fill-opacity:1;fill-rule:nonzero;stroke:none"
             id="path13220" />
        </g>
        <g
           id="g13222"
           transform="translate(109.9419,132.518)">
          <path
             inkscape:connector-curvature="0"
             d="m 0,0 -0.569,0 0,2.537 -0.503,-1.574 -0.503,1.574 0,-2.537 -0.57,0 0,4.373 0.569,0 0.504,-1.617 0.542,1.617 0.53,0 L 0,0 z"
             style="fill:#231f20;fill-opacity:1;fill-rule:nonzero;stroke:none"
             id="path13224" />
        </g>
        <g
           id="g13226"
           transform="translate(111.9223,134.182)">
          <path
             inkscape:connector-curvature="0"
             d="M 0,0 -0.254,1.236 -0.512,0 0,0 z m 0.927,-1.664 -0.586,0 -0.223,1.096 -0.743,0 -0.228,-1.096 -0.581,0 0.896,4.373 0.568,0 0.897,-4.373 z"
             style="fill:#231f20;fill-opacity:1;fill-rule:nonzero;stroke:none"
             id="path13228" />
        </g>
        <path
           inkscape:connector-curvature="0"
           d="m 113.963,132.518 -0.569,0 0,4.373 0.569,0 0,-4.373 z"
           style="fill:#231f20;fill-opacity:1;fill-rule:nonzero;stroke:none"
           id="path13230" />
        <g
           id="g13232"
           transform="translate(116.7378,132.518)">
          <path
             inkscape:connector-curvature="0"
             d="m 0,0 -0.524,0 -0.786,2.506 0,-2.506 -0.569,0 0,4.373 0.567,0 0.743,-2.351 0,2.351 L 0,4.373 0,0 z"
             style="fill:#231f20;fill-opacity:1;fill-rule:nonzero;stroke:none"
             id="path13234" />
        </g>
        <path
           inkscape:connector-curvature="0"
           d="m 118.205,132.518 -0.569,0 0,4.373 0.569,0 0,-4.373 z"
           style="fill:#231f20;fill-opacity:1;fill-rule:nonzero;stroke:none"
           id="path13236" />
        <g
           id="g13238"
           transform="translate(120.98,132.518)">
          <path
             inkscape:connector-curvature="0"
             d="m 0,0 -0.524,0 -0.786,2.506 0,-2.506 -0.569,0 0,4.373 0.567,0 0.743,-2.351 0,2.351 L 0,4.373 0,0 z"
             style="fill:#231f20;fill-opacity:1;fill-rule:nonzero;stroke:none"
             id="path13240" />
        </g>
        <g
           id="g13242"
           transform="translate(122.7505,136.3661)">
          <path
             inkscape:connector-curvature="0"
             d="m 0,0 c -0.172,0 -0.291,-0.155 -0.358,-0.459 -0.052,-0.248 -0.079,-0.649 -0.079,-1.201 0,-0.456 0.013,-0.782 0.039,-0.981 0.061,-0.453 0.194,-0.682 0.397,-0.682 0.203,0 0.305,0.178 0.305,0.534 l 0,0.429 -0.304,0 0,0.569 0.873,0 0,-0.998 c 0,-0.313 -0.062,-0.565 -0.187,-0.756 -0.153,-0.231 -0.381,-0.346 -0.687,-0.346 -0.405,0 -0.685,0.227 -0.839,0.682 -0.11,0.33 -0.166,0.845 -0.166,1.549 0,0.734 0.065,1.271 0.193,1.613 0.154,0.41 0.424,0.615 0.812,0.615 0.516,0 0.807,-0.281 0.874,-0.842 l -0.567,0 C 0.235,-0.092 0.134,0 0,0"
             style="fill:#231f20;fill-opacity:1;fill-rule:nonzero;stroke:none"
             id="path13244" />
        </g>
        <g
           id="g13246"
           transform="translate(93.5268,130.643)">
          <path
             inkscape:connector-curvature="0"
             d="m 0,0 -0.544,0 0,-3.803 -0.569,0 0,3.803 -0.544,0 0,0.57 L 0,0.57 0,0 z"
             style="fill:#231f20;fill-opacity:1;fill-rule:nonzero;stroke:none"
             id="path13248" />
        </g>
        <g
           id="g13250"
           transform="translate(94.8608,128.4791)">
          <path
             inkscape:connector-curvature="0"
             d="M 0,0 C 0,0.373 -0.006,0.604 -0.018,0.693 -0.047,0.916 -0.121,1.025 -0.24,1.025 -0.349,1.025 -0.42,0.918 -0.455,0.703 -0.473,0.578 -0.481,0.344 -0.481,0 c 0,-0.742 0.08,-1.113 0.241,-1.113 0.116,0 0.189,0.129 0.218,0.384 C -0.008,-0.615 0,-0.373 0,0 m 0.569,0 c 0,-0.518 -0.046,-0.906 -0.14,-1.162 -0.125,-0.348 -0.349,-0.52 -0.669,-0.52 -0.319,0 -0.54,0.172 -0.666,0.52 -0.096,0.256 -0.145,0.644 -0.145,1.162 0,0.492 0.049,0.861 0.145,1.105 0.126,0.327 0.347,0.491 0.666,0.491 0.317,0 0.539,-0.164 0.665,-0.491 C 0.522,0.861 0.569,0.492 0.569,0"
             style="fill:#231f20;fill-opacity:1;fill-rule:nonzero;stroke:none"
             id="path13252" />
        </g>
        <g
           id="g13254"
           transform="translate(97.9243,126.8401)">
          <path
             inkscape:connector-curvature="0"
             d="m 0,0 0,4.373 1.662,0 0,-0.57 -1.094,0 0,-1.176 0.659,0 0,-0.57 -0.659,0 L 0.568,0 0,0 z"
             style="fill:#231f20;fill-opacity:1;fill-rule:nonzero;stroke:none"
             id="path13256" />
        </g>
        <path
           inkscape:connector-curvature="0"
           d="m 100.569,126.84 -0.569,0 0,3.194 0.569,0 0,-3.194 z m -0.282,4.373 c 0.078,0 0.144,-0.029 0.2,-0.084 0.054,-0.054 0.082,-0.123 0.082,-0.201 0,-0.078 -0.028,-0.146 -0.082,-0.201 -0.056,-0.057 -0.122,-0.084 -0.2,-0.084 -0.078,0 -0.146,0.027 -0.203,0.084 -0.056,0.055 -0.085,0.123 -0.085,0.201 0,0.082 0.028,0.151 0.084,0.203 0.054,0.055 0.122,0.082 0.204,0.082"
           style="fill:#231f20;fill-opacity:1;fill-rule:nonzero;stroke:none"
           id="path13258" />
        <g
           id="g13260"
           transform="translate(102.7778,126.8401)">
          <path
             inkscape:connector-curvature="0"
             d="m 0,0 -0.569,0 0,2.416 c 0,0.196 -0.074,0.293 -0.219,0.293 -0.146,0 -0.218,-0.097 -0.218,-0.293 l 0,-2.416 -0.569,0 0,3.194 0.569,0 0,-0.11 c 0.099,0.1 0.222,0.151 0.367,0.151 0.184,0 0.334,-0.073 0.45,-0.215 C -0.063,2.864 0,2.647 0,2.373 L 0,0 z"
             style="fill:#231f20;fill-opacity:1;fill-rule:nonzero;stroke:none"
             id="path13262" />
        </g>
        <path
           inkscape:connector-curvature="0"
           d="m 103.936,126.84 -0.569,0 0,3.194 0.569,0 0,-3.194 z m -0.282,4.373 c 0.078,0 0.144,-0.029 0.2,-0.084 0.055,-0.054 0.082,-0.123 0.082,-0.201 0,-0.078 -0.027,-0.146 -0.082,-0.201 -0.056,-0.057 -0.122,-0.084 -0.2,-0.084 -0.078,0 -0.146,0.027 -0.202,0.084 -0.057,0.055 -0.085,0.123 -0.085,0.201 0,0.082 0.027,0.151 0.083,0.203 0.054,0.055 0.123,0.082 0.204,0.082"
           style="fill:#231f20;fill-opacity:1;fill-rule:nonzero;stroke:none"
           id="path13264" />
        <g
           id="g13266"
           transform="translate(105.7964,127.7291)">
          <path
             inkscape:connector-curvature="0"
             d="m 0,0 c 0,-0.266 -0.07,-0.482 -0.213,-0.652 -0.157,-0.186 -0.375,-0.28 -0.653,-0.28 -0.238,0 -0.431,0.121 -0.576,0.364 l 0.165,0.625 c 0.162,-0.28 0.305,-0.42 0.43,-0.42 0.185,0 0.278,0.121 0.278,0.363 0,0.154 -0.076,0.311 -0.227,0.469 -0.14,0.14 -0.279,0.281 -0.419,0.424 -0.151,0.189 -0.227,0.406 -0.227,0.648 0,0.207 0.053,0.391 0.162,0.547 0.128,0.183 0.298,0.275 0.51,0.275 0.286,0 0.511,-0.134 0.677,-0.406 L -0.294,1.381 c -0.138,0.297 -0.271,0.445 -0.403,0.445 -0.125,0 -0.189,-0.084 -0.189,-0.254 0,-0.134 0.076,-0.281 0.229,-0.437 C -0.392,0.859 -0.248,0.709 -0.228,0.684 -0.075,0.479 0,0.252 0,0"
             style="fill:#231f20;fill-opacity:1;fill-rule:nonzero;stroke:none"
             id="path13268" />
        </g>
        <g
           id="g13270"
           transform="translate(107.7407,126.8401)">
          <path
             inkscape:connector-curvature="0"
             d="m 0,0 -0.569,0 0,2.416 c 0,0.196 -0.073,0.293 -0.218,0.293 -0.146,0 -0.219,-0.097 -0.219,-0.293 l 0,-2.416 -0.569,0 0,4.08 0.569,0.336 0,-1.332 c 0.1,0.1 0.222,0.151 0.367,0.151 0.184,0 0.334,-0.073 0.451,-0.215 C -0.063,2.864 0,2.647 0,2.373 L 0,0 z"
             style="fill:#231f20;fill-opacity:1;fill-rule:nonzero;stroke:none"
             id="path13272" />
        </g>
        <g
           id="g13274"
           transform="translate(112.0688,127.899)">
          <path
             inkscape:connector-curvature="0"
             d="m 0,0 c -0.006,-0.213 -0.038,-0.397 -0.096,-0.551 -0.143,-0.367 -0.402,-0.551 -0.778,-0.551 -0.435,0 -0.725,0.241 -0.871,0.721 -0.09,0.301 -0.135,0.803 -0.135,1.51 0,0.722 0.058,1.248 0.175,1.578 0.154,0.434 0.432,0.65 0.831,0.65 0.3,0 0.533,-0.121 0.699,-0.367 C -0.058,2.82 0,2.662 0,2.518 l -0.572,0 c -0.079,0.179 -0.179,0.271 -0.302,0.271 -0.291,0 -0.436,-0.555 -0.436,-1.66 0,-0.561 0.021,-0.953 0.065,-1.182 0.063,-0.32 0.187,-0.48 0.371,-0.48 0.19,0 0.291,0.177 0.306,0.533 L 0,0 z"
             style="fill:#231f20;fill-opacity:1;fill-rule:nonzero;stroke:none"
             id="path13276" />
        </g>
        <g
           id="g13278"
           transform="translate(113.7485,129.334)">
          <path
             inkscape:connector-curvature="0"
             d="m 0,0 c -0.029,0.043 -0.059,0.086 -0.088,0.133 -0.046,0.055 -0.104,0.082 -0.174,0.082 -0.142,0 -0.214,-0.164 -0.214,-0.49 l 0,-2.219 -0.569,0 0,3.194 0.569,0 0,-0.11 c 0.064,0.1 0.156,0.151 0.275,0.151 0.099,0 0.197,-0.045 0.293,-0.131 L 0,0 z"
             style="fill:#231f20;fill-opacity:1;fill-rule:nonzero;stroke:none"
             id="path13280" />
        </g>
        <g
           id="g13282"
           transform="translate(115.1294,128.4791)">
          <path
             inkscape:connector-curvature="0"
             d="M 0,0 C 0,0.373 -0.006,0.604 -0.018,0.693 -0.047,0.916 -0.121,1.025 -0.24,1.025 -0.349,1.025 -0.42,0.918 -0.455,0.703 -0.473,0.578 -0.482,0.344 -0.482,0 c 0,-0.742 0.081,-1.113 0.242,-1.113 0.116,0 0.188,0.129 0.217,0.384 C -0.008,-0.615 0,-0.373 0,0 m 0.569,0 c 0,-0.518 -0.047,-0.906 -0.14,-1.162 -0.125,-0.348 -0.349,-0.52 -0.669,-0.52 -0.319,0 -0.54,0.172 -0.666,0.52 -0.096,0.256 -0.145,0.644 -0.145,1.162 0,0.492 0.049,0.861 0.145,1.105 0.126,0.327 0.347,0.491 0.666,0.491 0.317,0 0.539,-0.164 0.665,-0.491 C 0.521,0.861 0.569,0.492 0.569,0"
             style="fill:#231f20;fill-opacity:1;fill-rule:nonzero;stroke:none"
             id="path13284" />
        </g>
        <g
           id="g13286"
           transform="translate(117.4292,127.7291)">
          <path
             inkscape:connector-curvature="0"
             d="m 0,0 c 0,-0.266 -0.071,-0.482 -0.214,-0.652 -0.157,-0.186 -0.375,-0.28 -0.654,-0.28 -0.238,0 -0.43,0.121 -0.574,0.364 l 0.165,0.625 c 0.162,-0.28 0.304,-0.42 0.429,-0.42 0.186,0 0.279,0.121 0.279,0.363 0,0.154 -0.076,0.311 -0.228,0.469 -0.14,0.14 -0.279,0.281 -0.419,0.424 -0.151,0.189 -0.226,0.406 -0.226,0.648 0,0.207 0.053,0.391 0.161,0.547 0.128,0.183 0.298,0.275 0.511,0.275 0.285,0 0.51,-0.134 0.676,-0.406 L -0.295,1.381 c -0.138,0.297 -0.271,0.445 -0.403,0.445 -0.125,0 -0.188,-0.084 -0.188,-0.254 0,-0.134 0.075,-0.281 0.228,-0.437 C -0.393,0.859 -0.249,0.709 -0.229,0.684 -0.076,0.479 0,0.252 0,0"
             style="fill:#231f20;fill-opacity:1;fill-rule:nonzero;stroke:none"
             id="path13288" />
        </g>
        <g
           id="g13290"
           transform="translate(119.0249,127.7291)">
          <path
             inkscape:connector-curvature="0"
             d="m 0,0 c 0,-0.266 -0.071,-0.482 -0.214,-0.652 -0.156,-0.186 -0.374,-0.28 -0.653,-0.28 -0.238,0 -0.43,0.121 -0.575,0.364 l 0.165,0.625 c 0.162,-0.28 0.305,-0.42 0.429,-0.42 0.186,0 0.279,0.121 0.279,0.363 0,0.154 -0.076,0.311 -0.227,0.469 -0.141,0.14 -0.28,0.281 -0.42,0.424 -0.151,0.189 -0.226,0.406 -0.226,0.648 0,0.207 0.053,0.391 0.161,0.547 0.129,0.183 0.299,0.275 0.511,0.275 0.286,0 0.511,-0.134 0.676,-0.406 L -0.295,1.381 c -0.137,0.297 -0.271,0.445 -0.402,0.445 -0.126,0 -0.189,-0.084 -0.189,-0.254 0,-0.134 0.076,-0.281 0.228,-0.437 0.266,-0.276 0.41,-0.426 0.43,-0.451 C -0.076,0.479 0,0.252 0,0"
             style="fill:#231f20;fill-opacity:1;fill-rule:nonzero;stroke:none"
             id="path13292" />
        </g>
        <path
           inkscape:connector-curvature="0"
           d="m 119.963,126.84 -0.569,0 0,3.194 0.569,0 0,-3.194 z m -0.283,4.373 c 0.078,0 0.146,-0.029 0.2,-0.084 0.055,-0.054 0.083,-0.123 0.083,-0.201 0,-0.078 -0.028,-0.146 -0.083,-0.201 -0.054,-0.057 -0.122,-0.084 -0.2,-0.084 -0.078,0 -0.145,0.027 -0.202,0.084 -0.057,0.055 -0.084,0.123 -0.084,0.201 0,0.082 0.027,0.151 0.082,0.203 0.056,0.055 0.123,0.082 0.204,0.082"
           style="fill:#231f20;fill-opacity:1;fill-rule:nonzero;stroke:none"
           id="path13294" />
        <g
           id="g13296"
           transform="translate(122.1714,126.8401)">
          <path
             inkscape:connector-curvature="0"
             d="m 0,0 -0.569,0 0,2.416 c 0,0.196 -0.073,0.293 -0.218,0.293 -0.147,0 -0.219,-0.097 -0.219,-0.293 l 0,-2.416 -0.569,0 0,3.194 0.569,0 0,-0.11 c 0.099,0.1 0.222,0.151 0.367,0.151 0.184,0 0.334,-0.073 0.451,-0.215 C -0.063,2.864 0,2.647 0,2.373 L 0,0 z"
             style="fill:#231f20;fill-opacity:1;fill-rule:nonzero;stroke:none"
             id="path13298" />
        </g>
        <g
           id="g13300"
           transform="translate(123.1782,128.3911)">
          <path
             inkscape:connector-curvature="0"
             d="m 0,0 c 0,-0.683 0.086,-1.025 0.257,-1.025 0.162,0 0.243,0.095 0.243,0.283 l 0,1.572 C 0.5,0.92 0.475,0.99 0.424,1.039 0.373,1.088 0.32,1.113 0.266,1.113 0.147,1.113 0.069,0.994 0.035,0.756 0.012,0.615 0,0.365 0,0 M 0.5,-1.498 C 0.372,-1.562 0.27,-1.594 0.195,-1.594 c -0.278,0 -0.479,0.19 -0.604,0.569 -0.09,0.269 -0.135,0.613 -0.135,1.025 0,1.123 0.246,1.684 0.739,1.684 0.157,0 0.258,-0.051 0.305,-0.151 l 0,0.11 0.569,0 0,-3.578 c 0,-0.602 -0.275,-0.998 -0.826,-1.19 L 0.029,-2.627 C 0.343,-2.51 0.5,-2.277 0.5,-1.926 l 0,0.428 z"
             style="fill:#231f20;fill-opacity:1;fill-rule:nonzero;stroke:none"
             id="path13302" />
        </g>
        <path
           inkscape:connector-curvature="0"
           d="m 83.629,134.334 2.46,0 0,3.182 -2.46,0 0,-3.182 z m 0,-3.771 2.46,0 0,3.246 -2.46,0 0,-3.246 z m 0.132,7.512 2.198,0 c 0.394,0 0.72,-0.198 0.72,-0.428 l 0,-3.313 c 0,-0.13 -0.065,-0.23 -0.163,-0.292 0.098,-0.1 0.163,-0.2 0.163,-0.299 l 0,-3.311 c 0,-0.264 -0.326,-0.459 -0.72,-0.459 l -2.198,0 c -0.394,0 -0.722,0.195 -0.722,0.459 l 0,3.311 c 0,0.099 0.066,0.199 0.198,0.299 -0.132,0.062 -0.198,0.162 -0.198,0.292 l 0,3.313 c 0,0.23 0.328,0.428 0.722,0.428"
           style="fill:#f48412;fill-opacity:1;fill-rule:evenodd;stroke:none"
           id="path13304" />
        <g
           id="g13306"
           transform="translate(82.1782,134.225)">
          <path
             inkscape:connector-curvature="0"
             d="m 0,0 c 0,-0.1 -0.082,-0.183 -0.183,-0.183 l -0.237,0 c -0.1,0 -0.182,0.083 -0.182,0.183 l 0,3.668 c 0,0.1 0.082,0.182 0.182,0.182 l 0.237,0 C -0.082,3.85 0,3.768 0,3.668 L 0,0 z"
             style="fill:#f48412;fill-opacity:1;fill-rule:evenodd;stroke:none"
             id="path13308" />
        </g>
        <g
           id="g13310"
           transform="translate(82.1782,130.192)">
          <path
             inkscape:connector-curvature="0"
             d="m 0,0 c 0,-0.1 -0.082,-0.184 -0.183,-0.184 l -0.237,0 c -0.1,0 -0.182,0.084 -0.182,0.184 l 0,3.668 c 0,0.099 0.082,0.182 0.182,0.182 l 0.237,0 C -0.082,3.85 0,3.767 0,3.668 L 0,0 z"
             style="fill:#f48412;fill-opacity:1;fill-rule:evenodd;stroke:none"
             id="path13312" />
        </g>
        <g
           id="g13314"
           transform="translate(80.9516,127.901)">
          <path
             inkscape:connector-curvature="0"
             d="m 0,0 -0.254,0 0,-1.776 -0.266,0 0,1.776 -0.254,0 0,0.266 L 0,0.266 0,0 z"
             style="fill:#231f20;fill-opacity:1;fill-rule:nonzero;stroke:none"
             id="path13316" />
        </g>
        <path
           inkscape:connector-curvature="0"
           d="m 81.473,126.125 -0.266,0 0,2.042 0.266,0 0,-2.042 z"
           style="fill:#231f20;fill-opacity:1;fill-rule:nonzero;stroke:none"
           id="path13318" />
        <g
           id="g13320"
           transform="translate(82.8901,126.1251)">
          <path
             inkscape:connector-curvature="0"
             d="m 0,0 -0.266,0 0,1.184 -0.233,-0.734 -0.234,0.734 0,-1.184 -0.266,0 0,2.042 0.265,0 0.235,-0.754 0.253,0.754 L 0,2.042 0,0 z"
             style="fill:#231f20;fill-opacity:1;fill-rule:nonzero;stroke:none"
             id="path13322" />
        </g>
        <g
           id="g13324"
           transform="translate(84.0845,126.1251)">
          <path
             inkscape:connector-curvature="0"
             d="m 0,0 -0.775,0 0,2.042 0.775,0 0,-0.266 -0.51,0 0,-0.551 0.326,0 0,-0.248 -0.326,0 0,-0.709 0.51,0 L 0,0 z"
             style="fill:#231f20;fill-opacity:1;fill-rule:nonzero;stroke:none"
             id="path13326" />
        </g>
        <g
           id="g13328"
           transform="translate(84.9927,127.6161)">
          <path
             inkscape:connector-curvature="0"
             d="m 0,0 c 0,0.189 -0.059,0.285 -0.176,0.285 l -0.171,0 0,-0.551 0.165,0 C -0.061,-0.266 0,-0.178 0,0 m 0.266,-1.491 -0.272,0 -0.212,0.959 -0.129,0 0,-0.959 -0.265,0 0,2.042 0.367,0 c 0.116,0 0.214,-0.024 0.294,-0.073 C 0.193,0.388 0.266,0.228 0.266,0 0.266,-0.235 0.19,-0.393 0.041,-0.471 l 0.225,-1.02 z"
             style="fill:#231f20;fill-opacity:1;fill-rule:nonzero;stroke:none"
             id="path13330" />
        </g>
      </g>
    </g>
  </g>
</svg>
