<?xml version="1.0" encoding="UTF-8" standalone="no"?>
<!-- Created with Inkscape (http://www.inkscape.org/) -->

<svg
   xmlns:dc="http://purl.org/dc/elements/1.1/"
   xmlns:cc="http://creativecommons.org/ns#"
   xmlns:rdf="http://www.w3.org/1999/02/22-rdf-syntax-ns#"
   xmlns:svg="http://www.w3.org/2000/svg"
   xmlns="http://www.w3.org/2000/svg"
   xmlns:sodipodi="http://sodipodi.sourceforge.net/DTD/sodipodi-0.dtd"
   xmlns:inkscape="http://www.inkscape.org/namespaces/inkscape"
   width="109.1475"
   height="130.84875"
   id="svg8235"
   version="1.1"
   inkscape:version="0.48.1 "
   sodipodi:docname="New document 40">
  <defs
     id="defs8237">
    <clipPath
       clipPathUnits="userSpaceOnUse"
       id="clipPath4051">
      <path
         inkscape:connector-curvature="0"
         d="m 27,65.641 513.335,0 0,672.359 L 27,738 27,65.641 z"
         id="path4053" />
    </clipPath>
  </defs>
  <sodipodi:namedview
     id="base"
     pagecolor="#ffffff"
     bordercolor="#666666"
     borderopacity="1.0"
     inkscape:pageopacity="0.0"
     inkscape:pageshadow="2"
     inkscape:zoom="0.35"
     inkscape:cx="106.71661"
     inkscape:cy="85.424377"
     inkscape:document-units="px"
     inkscape:current-layer="layer1"
     showgrid="false"
     fit-margin-top="0"
     fit-margin-left="0"
     fit-margin-right="0"
     fit-margin-bottom="0"
     inkscape:window-width="469"
     inkscape:window-height="403"
     inkscape:window-x="50"
     inkscape:window-y="50"
     inkscape:window-maximized="0" />
  <metadata
     id="metadata8240">
    <rdf:RDF>
      <cc:Work
         rdf:about="">
        <dc:format>image/svg+xml</dc:format>
        <dc:type
           rdf:resource="http://purl.org/dc/dcmitype/StillImage" />
        <dc:title></dc:title>
      </cc:Work>
    </rdf:RDF>
  </metadata>
  <g
     inkscape:label="Layer 1"
     inkscape:groupmode="layer"
     id="layer1"
     transform="translate(-268.28339,-486.93781)">
    <g
       transform="matrix(1.25,0,0,-1.25,-65.226232,717.75606)"
       id="g4047">
      <g
         id="g4049"
         clip-path="url(#clipPath4051)">
        <g
           id="g4055"
           transform="translate(353.8757,85.6506)">
          <path
             inkscape:connector-curvature="0"
             d="m 0,0 c 0,-2.998 -2.43,-5.425 -5.428,-5.425 l -75.965,0 c -2.996,0 -5.425,2.427 -5.425,5.425 l 0,93.327 c 0,2.997 2.429,5.427 5.425,5.427 l 75.965,0 C -2.43,98.754 0,96.324 0,93.327 L 0,0 z"
             style="fill:#ffffff;fill-opacity:1;fill-rule:nonzero;stroke:none"
             id="path4057" />
        </g>
        <g
           id="g4059"
           transform="translate(353.8757,85.6506)">
          <path
             inkscape:connector-curvature="0"
             d="m 0,0 c 0,-2.998 -2.43,-5.425 -5.428,-5.425 l -75.965,0 c -2.996,0 -5.425,2.427 -5.425,5.425 l 0,93.327 c 0,2.997 2.429,5.427 5.425,5.427 l 75.965,0 C -2.43,98.754 0,96.324 0,93.327 L 0,0 z"
             style="fill:none;stroke:#231f20;stroke-width:0.5;stroke-linecap:butt;stroke-linejoin:miter;stroke-miterlimit:4;stroke-opacity:1;stroke-dasharray:none"
             id="path4061" />
        </g>
        <g
           id="g4063"
           transform="translate(350.2567,85.6506)">
          <path
             inkscape:connector-curvature="0"
             d="m 0,0 c 0,-0.998 -0.811,-1.81 -1.809,-1.81 l -75.965,0 c -0.997,0 -1.807,0.812 -1.807,1.81 l 0,93.327 c 0,0.998 0.81,1.81 1.807,1.81 l 75.965,0 C -0.811,95.137 0,94.325 0,93.327 L 0,0 z m -1.809,97.307 -75.965,0 c -2.193,0 -3.978,-1.786 -3.978,-3.98 l 0,-93.327 c 0,-2.195 1.785,-3.98 3.978,-3.98 l 75.965,0 c 2.196,0 3.981,1.785 3.981,3.98 l 0,93.327 c 0,2.194 -1.785,3.98 -3.981,3.98"
             style="fill:#231f20;fill-opacity:1;fill-rule:nonzero;stroke:none"
             id="path4065" />
        </g>
        <g
           id="g4067"
           transform="translate(285.8068,164.1466)">
          <path
             inkscape:connector-curvature="0"
             d="m 0,0 -5.166,0 0,10.129 1.417,0 0,-8.711 L 0,1.418 0,0 z"
             style="fill:#231f20;fill-opacity:1;fill-rule:nonzero;stroke:none"
             id="path4069" />
        </g>
        <g
           id="g4071"
           transform="translate(292.3887,164.1376)">
          <path
             inkscape:connector-curvature="0"
             d="m 0,0 -5.164,0.009 0,10.129 5.164,0 0,-1.418 -3.749,0 0,-2.63 2.23,0 0,-1.418 -2.23,0 0,-3.245 L 0,1.427 0,0 z"
             style="fill:#231f20;fill-opacity:1;fill-rule:nonzero;stroke:none"
             id="path4073" />
        </g>
        <g
           id="g4075"
           transform="translate(299.2758,172.8576)">
          <path
             inkscape:connector-curvature="0"
             d="m 0,0 -3.749,0 0,-2.63 2.231,0 0,-1.418 -2.231,0 0,-4.663 -1.417,0 0,10.129 L 0,1.418 0,0 z"
             style="fill:#231f20;fill-opacity:1;fill-rule:nonzero;stroke:none"
             id="path4077" />
        </g>
        <g
           id="g4079"
           transform="translate(305.0458,172.8576)">
          <path
             inkscape:connector-curvature="0"
             d="m 0,0 -1.869,0 0,-8.711 -1.417,0 0,8.711 -1.879,0 0,1.418 L 0,1.418 0,0 z"
             style="fill:#231f20;fill-opacity:1;fill-rule:nonzero;stroke:none"
             id="path4081" />
        </g>
        <g
           id="g4083"
           transform="translate(317.9078,172.8576)">
          <path
             inkscape:connector-curvature="0"
             d="m 0,0 -1.869,0 0,-8.711 -1.416,0 0,8.711 -1.879,0 0,1.418 L 0,1.418 0,0 z"
             style="fill:#231f20;fill-opacity:1;fill-rule:nonzero;stroke:none"
             id="path4085" />
        </g>
        <g
           id="g4087"
           transform="translate(324.9987,166.8835)">
          <path
             inkscape:connector-curvature="0"
             d="m 0,0 c 0,-0.785 -0.275,-1.452 -0.826,-2.008 -0.549,-0.553 -1.219,-0.828 -2.008,-0.828 -0.783,0 -1.452,0.275 -2.005,0.828 -0.553,0.556 -0.83,1.223 -0.83,2.008 l 0,7.392 1.417,0 0,-7.394 c 0,-0.393 0.139,-0.727 0.41,-1.004 0.274,-0.275 0.61,-0.414 1.008,-0.414 0.385,0 0.717,0.139 0.996,0.414 0.281,0.277 0.42,0.611 0.42,1.004 l 0,7.394 L 0,7.392 0,0 z"
             style="fill:#231f20;fill-opacity:1;fill-rule:nonzero;stroke:none"
             id="path4089" />
        </g>
        <g
           id="g4091"
           transform="translate(331.4808,171.5436)">
          <path
             inkscape:connector-curvature="0"
             d="m 0,0 c 0,0.836 -0.345,1.275 -1.043,1.314 l -1.791,0 0,-2.63 1.791,0 C -0.345,-1.277 0,-0.839 0,0 m 1.418,-7.397 -1.468,0 -1.336,4.663 -1.448,0 0,-4.663 -1.416,0 0,10.129 3.137,0 C -0.574,2.685 -0.269,2.653 -0.201,2.641 0.264,2.533 0.627,2.31 0.891,1.973 1.243,1.52 1.418,0.86 1.418,-0.002 c 0,-1.25 -0.468,-2.074 -1.404,-2.473 l 1.404,-4.922 z"
             style="fill:#231f20;fill-opacity:1;fill-rule:nonzero;stroke:none"
             id="path4093" />
        </g>
        <g
           id="g4095"
           transform="translate(340.2917,164.1466)">
          <path
             inkscape:connector-curvature="0"
             d="m 0,0 -1.416,0 -2.834,6.553 0,-6.553 -1.416,0 0,10.129 1.418,0 2.836,-6.543 -0.004,6.543 1.416,0 L 0,0 z"
             style="fill:#231f20;fill-opacity:1;fill-rule:nonzero;stroke:none"
             id="path4097" />
        </g>
        <g
           id="g4099"
           transform="translate(290.3117,155.4656)">
          <path
             inkscape:connector-curvature="0"
             d="m 0,0 -2.534,-5.459 0,-4.67 -1.417,0 0,4.67 L -6.483,0 -4.954,0 -3.242,-3.666 -1.541,0 0,0 z"
             style="fill:#231f20;fill-opacity:1;fill-rule:nonzero;stroke:none"
             id="path4101" />
        </g>
        <path
           inkscape:connector-curvature="0"
           d="m 293.149,145.337 -1.417,0 0,10.129 1.417,0 0,-10.129 z"
           style="fill:#231f20;fill-opacity:1;fill-rule:nonzero;stroke:none"
           id="path4103" />
        <g
           id="g4105"
           transform="translate(300.5437,145.3266)">
          <path
             inkscape:connector-curvature="0"
             d="m 0,0 -5.164,0.01 0,10.129 5.164,0 0,-1.418 -3.748,0 0,-2.631 2.229,0 0,-1.418 -2.229,0 0,-3.244 L 0,1.428 0,0 z"
             style="fill:#231f20;fill-opacity:1;fill-rule:nonzero;stroke:none"
             id="path4107" />
        </g>
        <g
           id="g4109"
           transform="translate(307.4318,145.3365)">
          <path
             inkscape:connector-curvature="0"
             d="m 0,0 -5.166,0 0,10.129 1.417,0 0,-8.711 L 0,1.418 0,0 z"
             style="fill:#231f20;fill-opacity:1;fill-rule:nonzero;stroke:none"
             id="path4111" />
        </g>
        <g
           id="g4113"
           transform="translate(313.0997,150.3956)">
          <path
             inkscape:connector-curvature="0"
             d="m 0,0 c 0,2.435 -0.574,3.652 -1.72,3.652 l -1.113,0 0,-7.305 1.113,0 C -0.574,-3.653 0,-2.436 0,0 m 1.418,0.005 c 0,-2.027 -0.399,-3.461 -1.196,-4.305 -0.486,-0.512 -1.058,-0.769 -1.719,-0.769 l -0.223,0 -2.53,0 0,10.139 2.641,0 c 0.661,0 1.228,-0.216 1.7,-0.65 C 0.974,3.611 1.418,2.138 1.418,0.005"
             style="fill:#231f20;fill-opacity:1;fill-rule:nonzero;stroke:none"
             id="path4115" />
        </g>
        <g
           id="g4117"
           transform="translate(327.9888,150.4006)">
          <path
             inkscape:connector-curvature="0"
             d="m 0,0 c 0,0.864 -0.088,1.618 -0.263,2.258 -0.264,0.992 -0.702,1.49 -1.309,1.49 -0.609,0 -1.047,-0.498 -1.311,-1.49 C -3.056,1.618 -3.144,0.864 -3.144,0 c 0,-0.864 0.088,-1.618 0.261,-2.259 0.264,-0.993 0.702,-1.489 1.311,-1.489 0.607,0 1.045,0.496 1.309,1.489 C -0.088,-1.618 0,-0.864 0,0 m 1.416,0 c 0,-1.242 -0.142,-2.272 -0.426,-3.088 -0.486,-1.384 -1.339,-2.076 -2.562,-2.076 -1.223,0 -2.078,0.692 -2.564,2.076 -0.284,0.816 -0.426,1.846 -0.426,3.088 0,3.442 0.996,5.166 2.99,5.166 C 0.42,5.166 1.416,3.442 1.416,0"
             style="fill:#231f20;fill-opacity:1;fill-rule:nonzero;stroke:none"
             id="path4119" />
        </g>
        <g
           id="g4121"
           transform="translate(337.1027,145.3365)">
          <path
             inkscape:connector-curvature="0"
             d="m 0,0 -1.415,0 -2.834,6.553 0,-6.553 -1.417,0 0,10.129 1.417,0 2.836,-6.543 -0.002,6.543 1.415,0 L 0,0 z"
             style="fill:#231f20;fill-opacity:1;fill-rule:nonzero;stroke:none"
             id="path4123" />
        </g>
        <g
           id="g4125"
           transform="translate(289.6038,135.2386)">
          <path
             inkscape:connector-curvature="0"
             d="m 0,0 -3.75,0 0,-2.633 2.23,0 0,-1.418 -2.23,0 0,-4.662 -1.417,0 0,10.129 L 0,1.416 0,0 z"
             style="fill:#231f20;fill-opacity:1;fill-rule:nonzero;stroke:none"
             id="path4127" />
        </g>
        <g
           id="g4129"
           transform="translate(296.1868,126.5256)">
          <path
             inkscape:connector-curvature="0"
             d="m 0,0 -5.166,0 0,10.129 1.416,0 0,-8.711 3.75,0 L 0,0 z"
             style="fill:#231f20;fill-opacity:1;fill-rule:nonzero;stroke:none"
             id="path4131" />
        </g>
        <g
           id="g4133"
           transform="translate(300.8218,130.6766)">
          <path
             inkscape:connector-curvature="0"
             d="M 0,0 -0.791,3.295 -1.591,0 0,0 z m 2.451,-4.151 -1.449,0 -0.658,2.735 -2.278,0 -0.659,-2.735 -1.438,0 2.451,10.129 1.58,0 2.451,-10.129 z"
             style="fill:#231f20;fill-opacity:1;fill-rule:nonzero;stroke:none"
             id="path4135" />
        </g>
        <g
           id="g4137"
           transform="translate(309.8497,129.2916)">
          <path
             inkscape:connector-curvature="0"
             d="m 0,0 c 0,-0.717 -0.186,-1.334 -0.558,-1.854 -0.479,-0.673 -1.187,-1.011 -2.125,-1.011 -1.052,0 -1.839,0.338 -2.358,1.011 -0.418,0.534 -0.627,1.206 -0.627,2.015 l 1.417,0 c 0,-0.587 0.185,-1.024 0.556,-1.307 0.278,-0.202 0.615,-0.303 1.012,-0.303 0.811,0 1.216,0.483 1.216,1.447 0,0.758 -0.328,1.375 -0.983,1.856 -0.608,0.376 -1.219,0.751 -1.834,1.123 -0.655,0.505 -0.982,1.168 -0.982,1.986 0,0.532 0.148,1.021 0.445,1.469 0.46,0.687 1.195,1.033 2.208,1.033 1.066,0 1.823,-0.401 2.268,-1.195 C -0.163,5.937 -0.047,5.536 0,5.064 l -1.417,0 c 0,0.168 -0.058,0.337 -0.173,0.506 -0.202,0.319 -0.544,0.477 -1.023,0.477 -0.818,0 -1.225,-0.36 -1.225,-1.084 0,-0.399 0.329,-0.797 0.991,-1.195 C -1.861,3.187 -1.244,2.775 -0.993,2.531 -0.331,1.877 0,1.033 0,0"
             style="fill:#231f20;fill-opacity:1;fill-rule:nonzero;stroke:none"
             id="path4139" />
        </g>
        <g
           id="g4141"
           transform="translate(317.2477,126.5256)">
          <path
             inkscape:connector-curvature="0"
             d="m 0,0 -1.416,0 0,4.662 -2.833,0 0,-4.662 -1.417,0 0,10.129 1.417,0 0,-4.049 2.833,0 0,4.049 1.416,0 L 0,0 z"
             style="fill:#231f20;fill-opacity:1;fill-rule:nonzero;stroke:none"
             id="path4143" />
        </g>
        <path
           inkscape:connector-curvature="0"
           d="m 320.899,126.526 -1.417,0 0,10.129 1.417,0 0,-10.129 z"
           style="fill:#231f20;fill-opacity:1;fill-rule:nonzero;stroke:none"
           id="path4145" />
        <g
           id="g4147"
           transform="translate(328.7958,126.5256)">
          <path
             inkscape:connector-curvature="0"
             d="m 0,0 -1.416,0 -2.834,6.555 0,-6.555 -1.418,0 0,10.129 1.418,0 2.838,-6.543 -0.004,6.543 1.416,0 L 0,0 z"
             style="fill:#231f20;fill-opacity:1;fill-rule:nonzero;stroke:none"
             id="path4149" />
        </g>
        <g
           id="g4151"
           transform="translate(336.4947,134.2636)">
          <path
             inkscape:connector-curvature="0"
             d="m 0,0 -1.514,0 c -0.236,0.716 -0.627,1.075 -1.171,1.075 -0.614,0 -1.049,-0.511 -1.313,-1.529 -0.162,-0.635 -0.242,-1.375 -0.242,-2.219 0,-0.844 0.082,-1.584 0.242,-2.219 0.264,-1.019 0.703,-1.529 1.316,-1.529 0.432,0 0.768,0.247 1.012,0.74 0.168,0.346 0.252,0.682 0.252,1.006 l 0,0.283 -1.265,0 0,1.418 2.683,0 0,-1.844 c 0,-0.472 -0.127,-0.981 -0.385,-1.521 -0.464,-1 -1.23,-1.498 -2.297,-1.498 -1.22,0 -2.074,0.691 -2.56,2.076 -0.283,0.815 -0.424,1.846 -0.424,3.088 0,3.443 0.992,5.166 2.979,5.166 0.949,0 1.683,-0.417 2.203,-1.246 C -0.269,0.902 -0.107,0.487 0,0"
             style="fill:#231f20;fill-opacity:1;fill-rule:nonzero;stroke:none"
             id="path4153" />
        </g>
        <g
           id="g4155"
           transform="translate(281.9008,115.1116)">
          <path
             inkscape:connector-curvature="0"
             d="m 0,0 c 0,0.836 -0.346,1.276 -1.042,1.317 l -1.791,0 0,-2.633 1.791,0 C -0.346,-1.277 0,-0.839 0,0 m 1.417,-7.396 -1.467,0 -1.335,4.662 -1.448,0 0,-4.662 -1.416,0 0,10.129 3.137,0 c 0.54,-0.047 0.844,-0.077 0.911,-0.092 0.465,-0.107 0.829,-0.33 1.093,-0.668 0.351,-0.452 0.525,-1.11 0.525,-1.975 0,-1.25 -0.467,-2.072 -1.402,-2.472 l 1.402,-4.922 z"
             style="fill:#231f20;fill-opacity:1;fill-rule:nonzero;stroke:none"
             id="path4157" />
        </g>
        <g
           id="g4159"
           transform="translate(290.2107,107.7056)">
          <path
             inkscape:connector-curvature="0"
             d="m 0,0 -5.165,0.01 0,10.129 5.165,0 0,-1.416 -3.748,0 0,-2.633 2.228,0 0,-1.418 -2.228,0 0,-3.244 L 0,1.428 0,0 z"
             style="fill:#231f20;fill-opacity:1;fill-rule:nonzero;stroke:none"
             id="path4161" />
        </g>
        <g
           id="g4163"
           transform="translate(296.1827,112.7746)">
          <path
             inkscape:connector-curvature="0"
             d="m 0,0 c 0,2.435 -0.573,3.654 -1.721,3.654 l -1.112,0 0,-7.307 1.112,0 C -0.573,-3.653 0,-2.434 0,0 m 1.417,0.005 c 0,-2.025 -0.399,-3.459 -1.194,-4.305 -0.485,-0.512 -1.059,-0.769 -1.72,-0.769 l -0.224,0 -2.529,0 0,10.139 2.641,0 c 0.661,0 1.229,-0.216 1.7,-0.65 C 0.975,3.611 1.417,2.138 1.417,0.005"
             style="fill:#231f20;fill-opacity:1;fill-rule:nonzero;stroke:none"
             id="path4165" />
        </g>
        <g
           id="g4167"
           transform="translate(309.9368,111.8656)">
          <path
             inkscape:connector-curvature="0"
             d="M 0,0 -0.79,3.295 -1.589,0 0,0 z m 2.452,-4.15 -1.449,0 -0.658,2.734 -2.279,0 -0.658,-2.734 -1.439,0 2.451,10.129 1.58,0 2.452,-10.129 z"
             style="fill:#231f20;fill-opacity:1;fill-rule:nonzero;stroke:none"
             id="path4169" />
        </g>
        <g
           id="g4171"
           transform="translate(318.0607,115.1116)">
          <path
             inkscape:connector-curvature="0"
             d="m 0,0 c 0,0.836 -0.348,1.276 -1.043,1.317 l -1.791,0 0,-2.633 1.791,0 C -0.348,-1.277 0,-0.839 0,0 m 1.417,-7.396 -1.468,0 -1.336,4.662 -1.447,0 0,-4.662 -1.416,0 0,10.129 3.136,0 C -0.575,2.686 -0.27,2.656 -0.204,2.641 0.262,2.534 0.626,2.311 0.89,1.973 1.242,1.521 1.417,0.863 1.417,-0.002 c 0,-1.25 -0.468,-2.072 -1.404,-2.472 l 1.404,-4.922 z"
             style="fill:#231f20;fill-opacity:1;fill-rule:nonzero;stroke:none"
             id="path4173" />
        </g>
        <g
           id="g4175"
           transform="translate(325.4557,115.1116)">
          <path
             inkscape:connector-curvature="0"
             d="m 0,0 c 0,0.836 -0.35,1.276 -1.043,1.317 l -1.791,0 0,-2.633 1.791,0 C -0.35,-1.277 0,-0.839 0,0 m 1.416,-7.396 -1.467,0 -1.338,4.662 -1.445,0 0,-4.662 -1.418,0 0,10.129 3.139,0 c 0.539,-0.047 0.842,-0.077 0.91,-0.092 0.465,-0.107 0.83,-0.33 1.094,-0.668 0.349,-0.452 0.525,-1.11 0.525,-1.975 0,-1.25 -0.469,-2.072 -1.402,-2.472 l 1.402,-4.922 z"
             style="fill:#231f20;fill-opacity:1;fill-rule:nonzero;stroke:none"
             id="path4177" />
        </g>
        <g
           id="g4179"
           transform="translate(332.9497,112.7796)">
          <path
             inkscape:connector-curvature="0"
             d="m 0,0 c 0,0.866 -0.09,1.617 -0.263,2.258 -0.264,0.994 -0.702,1.49 -1.311,1.49 -0.607,0 -1.043,-0.496 -1.309,-1.49 C -3.058,1.617 -3.146,0.866 -3.146,0 c 0,-0.864 0.088,-1.618 0.263,-2.259 0.266,-0.993 0.702,-1.489 1.309,-1.489 0.609,0 1.047,0.496 1.311,1.489 C -0.09,-1.618 0,-0.864 0,0 m 1.416,0 c 0,-1.242 -0.14,-2.272 -0.426,-3.088 -0.486,-1.384 -1.339,-2.076 -2.564,-2.076 -1.223,0 -2.076,0.692 -2.563,2.076 -0.285,0.816 -0.425,1.846 -0.425,3.088 0,3.444 0.996,5.166 2.988,5.166 1.994,0 2.99,-1.722 2.99,-5.166"
             style="fill:#231f20;fill-opacity:1;fill-rule:nonzero;stroke:none"
             id="path4181" />
        </g>
        <g
           id="g4183"
           transform="translate(343.2797,117.8445)">
          <path
             inkscape:connector-curvature="0"
             d="m 0,0 -1.771,-10.129 -1.125,0 -0.951,5.369 -0.954,-5.369 -1.123,0 L -7.697,0 -6.279,0 -5.357,-5.237 -4.435,0 -3.259,0 -2.338,-5.237 -1.416,0 0,0 z"
             style="fill:#231f20;fill-opacity:1;fill-rule:nonzero;stroke:none"
             id="path4185" />
        </g>
        <g
           id="g4187"
           transform="translate(280.6177,93.0556)">
          <path
             inkscape:connector-curvature="0"
             d="M 0,0 -0.79,3.295 -1.59,0 0,0 z m 2.451,-4.149 -1.448,0 -0.658,2.733 -2.279,0 -0.659,-2.733 -1.438,0 2.451,10.127 1.58,0 2.451,-10.127 z"
             style="fill:#231f20;fill-opacity:1;fill-rule:nonzero;stroke:none"
             id="path4189" />
        </g>
        <g
           id="g4191"
           transform="translate(289.6558,97.6176)">
          <path
             inkscape:connector-curvature="0"
             d="m 0,0 -3.749,0 0,-2.633 2.231,0 0,-1.418 -2.231,0 0,-4.66 -1.417,0 0,10.127 L 0,1.416 0,0 z"
             style="fill:#231f20;fill-opacity:1;fill-rule:nonzero;stroke:none"
             id="path4193" />
        </g>
        <g
           id="g4195"
           transform="translate(295.4268,97.6176)">
          <path
             inkscape:connector-curvature="0"
             d="m 0,0 -1.87,0 0,-8.711 -1.417,0 0,8.711 -1.879,0 0,1.416 L 0,1.416 0,0 z"
             style="fill:#231f20;fill-opacity:1;fill-rule:nonzero;stroke:none"
             id="path4197" />
        </g>
        <g
           id="g4199"
           transform="translate(302.0128,88.8956)">
          <path
             inkscape:connector-curvature="0"
             d="m 0,0 -5.165,0.011 0,10.127 5.165,0 0,-1.416 -3.748,0 0,-2.633 2.229,0 0,-1.418 -2.229,0 0,-3.244 L 0,1.427 0,0 z"
             style="fill:#231f20;fill-opacity:1;fill-rule:nonzero;stroke:none"
             id="path4201" />
        </g>
        <g
           id="g4203"
           transform="translate(307.9847,96.3016)">
          <path
             inkscape:connector-curvature="0"
             d="m 0,0 c 0,0.836 -0.347,1.275 -1.042,1.316 l -1.792,0 0,-2.633 1.792,0 C -0.347,-1.276 0,-0.839 0,0 m 1.417,-7.395 -1.467,0 -1.335,4.66 -1.449,0 0,-4.66 -1.417,0 0,10.127 3.138,0 c 0.54,-0.047 0.843,-0.077 0.91,-0.09 0.467,-0.109 0.83,-0.332 1.094,-0.67 0.351,-0.452 0.526,-1.11 0.526,-1.974 0,-1.25 -0.467,-2.072 -1.403,-2.473 l 1.403,-4.92 z"
             style="fill:#231f20;fill-opacity:1;fill-rule:nonzero;stroke:none"
             id="path4205" />
        </g>
        <g
           id="g4207"
           transform="translate(323.3737,91.6706)">
          <path
             inkscape:connector-curvature="0"
             d="m 0,0 c 0,-0.715 -0.186,-1.334 -0.557,-1.854 -0.478,-0.673 -1.187,-1.011 -2.126,-1.011 -1.052,0 -1.837,0.338 -2.357,1.011 -0.419,0.534 -0.628,1.207 -0.628,2.015 l 1.417,0 c 0,-0.587 0.186,-1.022 0.557,-1.306 0.277,-0.202 0.613,-0.302 1.011,-0.302 0.81,0 1.216,0.481 1.216,1.447 0,0.756 -0.328,1.373 -0.982,1.853 -0.609,0.377 -1.22,0.752 -1.835,1.123 -0.654,0.506 -0.982,1.168 -0.982,1.987 0,0.532 0.149,1.021 0.446,1.469 0.458,0.687 1.194,1.033 2.208,1.033 1.067,0 1.821,-0.401 2.268,-1.196 C -0.162,5.937 -0.047,5.536 0,5.064 l -1.416,0 c 0,0.168 -0.059,0.337 -0.174,0.506 -0.201,0.319 -0.543,0.477 -1.022,0.477 -0.819,0 -1.227,-0.361 -1.227,-1.084 0,-0.399 0.33,-0.795 0.992,-1.196 C -1.859,3.188 -1.242,2.775 -0.992,2.531 -0.33,1.877 0,1.033 0,0"
             style="fill:#231f20;fill-opacity:1;fill-rule:nonzero;stroke:none"
             id="path4209" />
        </g>
        <g
           id="g4211"
           transform="translate(329.4578,97.6176)">
          <path
             inkscape:connector-curvature="0"
             d="m 0,0 -1.869,0 0,-8.711 -1.418,0 0,8.711 -1.879,0 0,1.416 L 0,1.416 0,0 z"
             style="fill:#231f20;fill-opacity:1;fill-rule:nonzero;stroke:none"
             id="path4213" />
        </g>
        <g
           id="g4215"
           transform="translate(335.2308,93.9696)">
          <path
             inkscape:connector-curvature="0"
             d="m 0,0 c 0,0.865 -0.087,1.617 -0.265,2.258 -0.264,0.994 -0.699,1.49 -1.307,1.49 -0.609,0 -1.047,-0.496 -1.31,-1.49 C -3.058,1.617 -3.146,0.865 -3.146,0 c 0,-0.865 0.088,-1.618 0.264,-2.26 0.263,-0.992 0.701,-1.486 1.31,-1.486 0.608,0 1.043,0.494 1.307,1.486 C -0.087,-1.618 0,-0.865 0,0 m 1.416,0 c 0,-1.242 -0.142,-2.273 -0.425,-3.088 -0.487,-1.385 -1.34,-2.076 -2.563,-2.076 -1.222,0 -2.078,0.691 -2.564,2.076 -0.285,0.815 -0.426,1.846 -0.426,3.088 0,3.443 0.996,5.166 2.99,5.166 C 0.42,5.166 1.416,3.443 1.416,0"
             style="fill:#231f20;fill-opacity:1;fill-rule:nonzero;stroke:none"
             id="path4217" />
        </g>
        <g
           id="g4219"
           transform="translate(342.9288,96.1396)">
          <path
             inkscape:connector-curvature="0"
             d="m 0,0 c 0,0.883 -0.348,1.377 -1.041,1.478 l -1.791,0 0,-2.935 1.791,0 C -0.348,-1.423 0,-0.938 0,0 m 1.416,0 c 0,-1.187 -0.418,-2.02 -1.254,-2.5 -0.432,-0.249 -0.858,-0.373 -1.276,-0.373 l -1.718,0 0,-4.36 -1.418,0 0,10.127 3.136,0 c 0.426,0 0.852,-0.122 1.276,-0.364 C 0.998,2.052 1.416,1.208 1.416,0"
             style="fill:#231f20;fill-opacity:1;fill-rule:nonzero;stroke:none"
             id="path4221" />
        </g>
      </g>
    </g>
  </g>
</svg>
