<?xml version="1.0" encoding="UTF-8" standalone="no"?>
<!-- Created with Inkscape (http://www.inkscape.org/) -->

<svg
   xmlns:dc="http://purl.org/dc/elements/1.1/"
   xmlns:cc="http://creativecommons.org/ns#"
   xmlns:rdf="http://www.w3.org/1999/02/22-rdf-syntax-ns#"
   xmlns:svg="http://www.w3.org/2000/svg"
   xmlns="http://www.w3.org/2000/svg"
   xmlns:sodipodi="http://sodipodi.sourceforge.net/DTD/sodipodi-0.dtd"
   xmlns:inkscape="http://www.inkscape.org/namespaces/inkscape"
   width="82.246246"
   height="109.4525"
   id="svg15547"
   version="1.1"
   inkscape:version="0.48.1 "
   sodipodi:docname="New document 73">
  <defs
     id="defs15549" />
  <sodipodi:namedview
     id="base"
     pagecolor="#ffffff"
     bordercolor="#666666"
     borderopacity="1.0"
     inkscape:pageopacity="0.0"
     inkscape:pageshadow="2"
     inkscape:zoom="0.35"
     inkscape:cx="21.83741"
     inkscape:cy="200.44054"
     inkscape:document-units="px"
     inkscape:current-layer="layer1"
     showgrid="false"
     fit-margin-top="0"
     fit-margin-left="0"
     fit-margin-right="0"
     fit-margin-bottom="0"
     inkscape:window-width="640"
     inkscape:window-height="490"
     inkscape:window-x="569"
     inkscape:window-y="73"
     inkscape:window-maximized="0" />
  <metadata
     id="metadata15552">
    <rdf:RDF>
      <cc:Work
         rdf:about="">
        <dc:format>image/svg+xml</dc:format>
        <dc:type
           rdf:resource="http://purl.org/dc/dcmitype/StillImage" />
        <dc:title></dc:title>
      </cc:Work>
    </rdf:RDF>
  </metadata>
  <g
     inkscape:label="Layer 1"
     inkscape:groupmode="layer"
     id="layer1"
     transform="translate(-353.16259,-623.35022)">
    <g
       id="g12436"
       transform="matrix(1.25,0,0,-1.25,435.09634,723.42147)">
      <path
         d="m 0,0 c 0,-4.007 -3.248,-7.255 -7.255,-7.255 l -50.786,0 c -4.007,0 -7.256,3.248 -7.256,7.255 l 0,72.552 c 0,4.007 3.249,7.255 7.256,7.255 l 50.786,0 C -3.248,79.807 0,76.559 0,72.552 L 0,0 z"
         style="fill:#ffffff;fill-opacity:1;fill-rule:nonzero;stroke:none"
         id="path12438"
         inkscape:connector-curvature="0" />
    </g>
    <g
       id="g12440"
       transform="matrix(1.25,0,0,-1.25,435.09634,723.42147)">
      <path
         d="m 0,0 c 0,-4.007 -3.248,-7.255 -7.255,-7.255 l -50.786,0 c -4.007,0 -7.256,3.248 -7.256,7.255 l 0,72.552 c 0,4.007 3.249,7.255 7.256,7.255 l 50.786,0 C -3.248,79.807 0,76.559 0,72.552 L 0,0 z"
         style="fill:none;stroke:#231f20;stroke-width:0.5;stroke-linecap:butt;stroke-linejoin:miter;stroke-miterlimit:4;stroke-opacity:1;stroke-dasharray:none"
         id="path12442"
         inkscape:connector-curvature="0" />
    </g>
    <g
       id="g12444"
       transform="matrix(1.25,0,0,-1.25,428.2951,723.42147)">
      <path
         d="m 0,0 c 0,-1.001 -0.814,-1.814 -1.814,-1.814 l -50.786,0 c -1,0 -1.814,0.813 -1.814,1.814 l 0,72.552 c 0,1 0.814,1.814 1.814,1.814 l 50.786,0 c 1,0 1.814,-0.814 1.814,-1.814 L 0,0 z m -1.814,77.086 -50.786,0 c -2.501,0 -4.535,-2.034 -4.535,-4.534 l 0,-72.552 c 0,-2.501 2.034,-4.535 4.535,-4.535 l 50.786,0 c 2.5,0 4.534,2.034 4.534,4.535 l 0,72.552 c 0,2.5 -2.034,4.534 -4.534,4.534"
         style="fill:#231f20;fill-opacity:1;fill-rule:nonzero;stroke:none"
         id="path12446"
         inkscape:connector-curvature="0" />
    </g>
    <g
       id="g12448"
       transform="matrix(1.25,0,0,-1.25,419.69509,666.74022)">
      <path
         d="m 0,0 0,14.958 -3.319,0 0,4.805 -1.03,0.229 0,1.259 1.144,0.457 0,0.687 3.205,0 0,2.059 1.488,0 L 1.488,0 0,0 z"
         style="fill:#231f20;fill-opacity:1;fill-rule:nonzero;stroke:none"
         id="path12450"
         inkscape:connector-curvature="0" />
    </g>
    <g
       id="g12452"
       transform="matrix(1.25,0,0,-1.25,367.0166,639.60272)">
      <path
         d="m 0,0 c 0,0 6.884,-0.574 12.936,3.732 0.376,0.059 0.774,0.256 1.092,0.276 3.233,-0.694 5.873,1.032 7.638,1.944 1.587,0.238 1.211,-3.292 -0.694,-3.768 1.884,-0.2 14.978,-1.469 14.978,-1.469 0,0 1.232,-0.158 1.191,-1.111 -0.024,-0.596 -0.158,-1.31 -1.011,-1.31 l -10.338,0 c 0,0 -0.02,-0.952 -0.853,-1.687 -0.992,-0.515 -2.42,-1.109 -2.48,-2.558 -0.793,-0.734 -3.055,-1.586 -3.451,-3.135 -0.716,-1.131 -3.116,-1.269 -4.008,-1.449 -0.675,0.119 -1.29,0.209 -2.143,0.297 C 7.678,-8.096 0,-7.775 0,-7.775 L 0,0 z"
         style="fill:#231f20;fill-opacity:1;fill-rule:nonzero;stroke:none"
         id="path12454"
         inkscape:connector-curvature="0" />
    </g>
    <g
       id="g12456"
       transform="matrix(1.25,0,0,-1.25,369.68509,662.20772)">
      <path
         d="m 0,0 c 0,0.441 -0.174,0.688 -0.523,0.738 l -0.9,0 0,-1.466 0.9,0 C -0.174,-0.713 0,-0.47 0,0 m 0.712,0 c 0,-0.596 -0.21,-1.014 -0.63,-1.254 -0.217,-0.125 -0.431,-0.187 -0.641,-0.187 l -0.864,0 0,-2.185 -0.712,0 0,5.076 1.576,0 c 0.214,0 0.427,-0.061 0.641,-0.182 C 0.502,1.027 0.712,0.605 0.712,0"
         style="fill:#231f20;fill-opacity:1;fill-rule:nonzero;stroke:none"
         id="path12458"
         inkscape:connector-curvature="0" />
    </g>
    <g
       id="g12460"
       transform="matrix(1.25,0,0,-1.25,375.40009,665.02772)">
      <path
         d="m 0,0 c 0,-0.392 -0.139,-0.726 -0.415,-1.005 -0.276,-0.277 -0.613,-0.416 -1.009,-0.416 -0.393,0 -0.729,0.139 -1.006,0.416 -0.278,0.279 -0.417,0.613 -0.417,1.005 l 0,3.706 0.711,0 0,-3.704 c 0,-0.197 0.069,-0.364 0.207,-0.503 0.137,-0.138 0.305,-0.208 0.505,-0.208 0.193,0 0.36,0.07 0.501,0.208 0.141,0.139 0.211,0.306 0.211,0.503 l 0,3.704 L 0,3.706 0,0 z"
         style="fill:#231f20;fill-opacity:1;fill-rule:nonzero;stroke:none"
         id="path12462"
         inkscape:connector-curvature="0" />
    </g>
    <g
       id="g12464"
       transform="matrix(1.25,0,0,-1.25,380.03634,665.00772)">
      <path
         d="m 0,0 c 0,-0.36 -0.093,-0.668 -0.28,-0.929 -0.24,-0.339 -0.596,-0.508 -1.067,-0.508 -0.529,0 -0.924,0.169 -1.185,0.508 -0.21,0.268 -0.315,0.605 -0.315,1.011 l 0.712,0 c 0,-0.295 0.093,-0.513 0.28,-0.654 0.138,-0.102 0.308,-0.153 0.508,-0.153 0.407,0 0.61,0.242 0.61,0.726 0,0.379 -0.164,0.688 -0.492,0.929 -0.304,0.189 -0.61,0.376 -0.918,0.562 -0.328,0.254 -0.492,0.586 -0.492,0.995 0,0.267 0.074,0.513 0.223,0.736 0.23,0.345 0.599,0.517 1.107,0.517 0.534,0 0.913,-0.199 1.136,-0.598 C -0.081,2.976 -0.024,2.776 0,2.54 l -0.712,0 c 0,0.084 -0.029,0.168 -0.086,0.252 -0.102,0.157 -0.273,0.237 -0.514,0.237 -0.41,0 -0.615,-0.181 -0.615,-0.543 0,-0.2 0.166,-0.399 0.498,-0.599 0.495,-0.291 0.805,-0.498 0.931,-0.62 C -0.166,0.939 0,0.517 0,0"
         style="fill:#231f20;fill-opacity:1;fill-rule:nonzero;stroke:none"
         id="path12466"
         inkscape:connector-curvature="0" />
    </g>
    <g
       id="g12468"
       transform="matrix(1.25,0,0,-1.25,384.66759,666.74022)">
      <path
         d="m 0,0 -0.712,0 0,2.337 -1.423,0 0,-2.337 -0.711,0 0,5.076 0.711,0 0,-2.028 1.423,0 0,2.028 L 0,5.076 0,0 z"
         style="fill:#231f20;fill-opacity:1;fill-rule:nonzero;stroke:none"
         id="path12470"
         inkscape:connector-curvature="0" />
    </g>
    <g
       id="g12472"
       transform="matrix(1.25,0,0,-1.25,393.17384,664.82272)">
      <path
         d="M 0,0 C 0,0.338 -0.124,0.575 -0.371,0.705 -0.493,0.77 -0.622,0.803 -0.757,0.803 l -0.666,0 0,-1.625 0.777,0 c 0.105,0 0.215,0.038 0.331,0.116 C -0.105,-0.567 0,-0.332 0,0 m -0.151,2.175 c 0,0.403 -0.193,0.622 -0.578,0.655 l -0.694,0 0,-1.316 0.588,0 c 0.456,0 0.684,0.221 0.684,0.661 m 0.862,-2.186 c 0,-0.68 -0.244,-1.139 -0.732,-1.375 -0.206,-0.099 -0.455,-0.148 -0.747,-0.148 l -1.367,0 0,5.076 1.462,0 c 0.24,-0.027 0.446,-0.09 0.619,-0.188 0.409,-0.24 0.615,-0.647 0.615,-1.218 0,-0.545 -0.194,-0.875 -0.58,-0.989 0.487,-0.268 0.73,-0.655 0.73,-1.158"
         style="fill:#231f20;fill-opacity:1;fill-rule:nonzero;stroke:none"
         id="path12474"
         inkscape:connector-curvature="0" />
    </g>
    <g
       id="g12476"
       transform="matrix(1.25,0,0,-1.25,398.69759,665.02772)">
      <path
         d="m 0,0 c 0,-0.392 -0.138,-0.726 -0.415,-1.005 -0.276,-0.277 -0.612,-0.416 -1.008,-0.416 -0.393,0 -0.729,0.139 -1.007,0.416 -0.278,0.279 -0.417,0.613 -0.417,1.005 l 0,3.706 0.712,0 0,-3.704 c 0,-0.197 0.069,-0.364 0.206,-0.503 0.137,-0.138 0.305,-0.208 0.506,-0.208 0.192,0 0.359,0.07 0.5,0.208 0.141,0.139 0.211,0.306 0.211,0.503 l 0,3.704 L 0,3.706 0,0 z"
         style="fill:#231f20;fill-opacity:1;fill-rule:nonzero;stroke:none"
         id="path12478"
         inkscape:connector-curvature="0" />
    </g>
    <g
       id="g12480"
       transform="matrix(1.25,0,0,-1.25,402.82509,661.28522)">
      <path
         d="m 0,0 -0.941,0 0,-4.364 -0.711,0 0,4.364 -0.939,0 0,0.712 L 0,0.712 0,0 z"
         style="fill:#231f20;fill-opacity:1;fill-rule:nonzero;stroke:none"
         id="path12482"
         inkscape:connector-curvature="0" />
    </g>
    <g
       id="g12484"
       transform="matrix(1.25,0,0,-1.25,406.44259,661.28522)">
      <path
         d="m 0,0 -0.94,0 0,-4.364 -0.712,0 0,4.364 -0.938,0 0,0.712 2.59,0 L 0,0 z"
         style="fill:#231f20;fill-opacity:1;fill-rule:nonzero;stroke:none"
         id="path12486"
         inkscape:connector-curvature="0" />
    </g>
    <g
       id="g12488"
       transform="matrix(1.25,0,0,-1.25,410.05885,663.56772)">
      <path
         d="M 0,0 C 0,0.433 -0.044,0.81 -0.132,1.131 -0.264,1.628 -0.482,1.877 -0.787,1.877 -1.092,1.877 -1.31,1.628 -1.442,1.131 -1.53,0.81 -1.574,0.433 -1.574,0 c 0,-0.433 0.044,-0.81 0.132,-1.131 0.132,-0.498 0.35,-0.746 0.655,-0.746 0.305,0 0.523,0.248 0.655,0.746 C -0.044,-0.81 0,-0.433 0,0 m 0.712,0 c 0,-0.623 -0.071,-1.138 -0.214,-1.549 -0.243,-0.693 -0.672,-1.04 -1.285,-1.04 -0.613,0 -1.041,0.347 -1.285,1.04 -0.143,0.411 -0.214,0.926 -0.214,1.549 0,1.726 0.5,2.588 1.499,2.588 0.999,0 1.499,-0.862 1.499,-2.588"
         style="fill:#231f20;fill-opacity:1;fill-rule:nonzero;stroke:none"
         id="path12490"
         inkscape:connector-curvature="0" />
    </g>
    <g
       id="g12492"
       transform="matrix(1.25,0,0,-1.25,415.77385,666.74022)">
      <path
         d="m 0,0 -0.711,0 -1.424,3.286 0,-3.286 -0.712,0 0,5.076 0.711,0 1.423,-3.278 0.002,3.278 L 0,5.076 0,0 z"
         style="fill:#231f20;fill-opacity:1;fill-rule:nonzero;stroke:none"
         id="path12494"
         inkscape:connector-curvature="0" />
    </g>
    <g
       id="g12496"
       transform="matrix(1.25,0,0,-1.25,383.58509,682.61022)">
      <path
         d="m 0,0 0,7.255 4.498,0 0,-1.159 -3.34,0 0,-1.745 2.179,0 0,-1.159 -2.179,0 L 1.158,0 0,0 z"
         style="fill:#231f20;fill-opacity:1;fill-rule:nonzero;stroke:none"
         id="path12498"
         inkscape:connector-curvature="0" />
    </g>
    <g
       id="g12500"
       transform="matrix(1.25,0,0,-1.25,395.37759,678.07635)">
      <path
         d="m 0,0 c 0,0.742 -0.109,1.336 -0.327,1.781 -0.247,0.509 -0.61,0.764 -1.09,0.764 -0.485,0 -0.848,-0.255 -1.09,-0.764 C -2.725,1.34 -2.834,0.746 -2.834,0 c 0,-0.741 0.109,-1.335 0.327,-1.781 0.247,-0.508 0.61,-0.764 1.09,-0.764 0.48,0 0.843,0.256 1.09,0.764 C -0.109,-1.335 0,-0.741 0,0 m 1.159,0 c 0,-0.978 -0.174,-1.793 -0.523,-2.447 -0.449,-0.837 -1.134,-1.256 -2.053,-1.256 -0.924,0 -1.608,0.419 -2.054,1.256 -0.348,0.648 -0.522,1.464 -0.522,2.447 0,0.982 0.174,1.799 0.522,2.447 0.446,0.838 1.13,1.256 2.054,1.256 0.919,0 1.604,-0.418 2.053,-1.256 C 0.985,1.793 1.159,0.978 1.159,0"
         style="fill:#231f20;fill-opacity:1;fill-rule:nonzero;stroke:none"
         id="path12502"
         inkscape:connector-curvature="0" />
    </g>
    <g
       id="g12504"
       transform="matrix(1.25,0,0,-1.25,403.41759,676.06272)">
      <path
         d="m 0,0 c 0,0.242 -0.081,0.445 -0.243,0.61 -0.162,0.165 -0.364,0.248 -0.606,0.248 l -1.67,0 0,-1.745 1.67,0 c 0.242,0 0.444,0.086 0.606,0.258 C -0.081,-0.457 0,-0.247 0,0 m 1.256,-5.238 -1.227,0 -1.169,3.192 -1.379,0 0,-3.192 -1.159,0 0,7.255 2.821,0 c 0.556,0 1.031,-0.198 1.425,-0.591 C 0.962,1.031 1.159,0.556 1.159,0 c 0,-0.812 -0.384,-1.423 -1.151,-1.829 l 1.248,-3.409 z"
         style="fill:#231f20;fill-opacity:1;fill-rule:nonzero;stroke:none"
         id="path12506"
         inkscape:connector-curvature="0" />
    </g>
    <g
       id="g12508"
       transform="matrix(1.25,0,0,-1.25,415.77635,716.09647)">
      <path
         d="M 0,0 3.632,-2.457 0,-4.918 c -0.16,-0.109 -0.379,-0.067 -0.488,0.093 -0.073,0.107 -0.06,0.217 -0.027,0.349 l 0.321,1.067 -37.823,0 0,1.903 37.823,0 -0.313,1.049 c -0.04,0.144 -0.057,0.252 0.019,0.363 C -0.379,0.066 -0.16,0.108 0,0"
         style="fill:#231f20;fill-opacity:1;fill-rule:evenodd;stroke:none"
         id="path12510"
         inkscape:connector-curvature="0" />
    </g>
    <path
       d="m 381.91922,689.41272 24.735,0 0,22.6725 -24.735,0 0,-22.6725 z"
       style="fill:#231f20;fill-opacity:1;fill-rule:evenodd;stroke:none"
       id="path12512"
       inkscape:connector-curvature="0" />
    <g
       id="g12514"
       transform="matrix(1.25,0,0,-1.25,396.27135,691.85772)">
      <path
         d="m 0,0 c -0.573,0 -1.042,-0.469 -1.042,-1.042 0,-0.572 0.469,-1.041 1.042,-1.041 0.573,0 1.04,0.469 1.04,1.041 C 1.04,-0.469 0.573,0 0,0"
         style="fill:#ffffff;fill-opacity:1;fill-rule:evenodd;stroke:none"
         id="path12516"
         inkscape:connector-curvature="0" />
    </g>
    <g
       id="g12518"
       transform="matrix(1.25,0,0,-1.25,400.21009,700.06147)">
      <path
         d="m 0,0 -2.184,1.455 c -0.1,0.428 -0.518,2.32 -1.36,2.758 C -4.375,4.764 -7.441,2.505 -7.46,2.486 l 0,-3.297 0.665,0.117 0.262,2.63 c 0.249,0.051 0.501,0.101 0.75,0.152 C -6.33,0.673 -6.531,-0.693 -6.216,-1.59 l -1.331,-5.436 0.897,-0.636 1.938,5.03 0.896,-0.953 1.243,-3.787 1.185,0.432 -1.069,3.992 -1.244,2.225 0.476,1.643 0.507,-0.66 2.37,-0.782 L 0,0 z"
         style="fill:#ffffff;fill-opacity:1;fill-rule:evenodd;stroke:none"
         id="path12520"
         inkscape:connector-curvature="0" />
    </g>
  </g>
</svg>
