<?xml version="1.0" encoding="UTF-8" standalone="no"?>
<!-- Created with Inkscape (http://www.inkscape.org/) -->

<svg
   xmlns:dc="http://purl.org/dc/elements/1.1/"
   xmlns:cc="http://creativecommons.org/ns#"
   xmlns:rdf="http://www.w3.org/1999/02/22-rdf-syntax-ns#"
   xmlns:svg="http://www.w3.org/2000/svg"
   xmlns="http://www.w3.org/2000/svg"
   xmlns:sodipodi="http://sodipodi.sourceforge.net/DTD/sodipodi-0.dtd"
   xmlns:inkscape="http://www.inkscape.org/namespaces/inkscape"
   width="87.044998"
   height="108.65"
   id="svg6325"
   version="1.1"
   inkscape:version="0.48.1 "
   sodipodi:docname="New document 20">
  <defs
     id="defs6327">
    <clipPath
       clipPathUnits="userSpaceOnUse"
       id="clipPath3739">
      <path
         inkscape:connector-curvature="0"
         d="m 27,65.641 513.335,0 0,672.359 L 27,738 27,65.641 z"
         id="path3741" />
    </clipPath>
    <clipPath
       clipPathUnits="userSpaceOnUse"
       id="clipPath3727">
      <path
         inkscape:connector-curvature="0"
         d="m 31.333,65.641 504.669,0 0,672.359 -504.669,0 0,-672.359 z"
         id="path3729" />
    </clipPath>
    <clipPath
       clipPathUnits="userSpaceOnUse"
       id="clipPath3715">
      <path
         inkscape:connector-curvature="0"
         d="m 27,65.641 513.335,0 0,672.359 L 27,738 27,65.641 z"
         id="path3717" />
    </clipPath>
  </defs>
  <sodipodi:namedview
     id="base"
     pagecolor="#ffffff"
     bordercolor="#666666"
     borderopacity="1.0"
     inkscape:pageopacity="0.0"
     inkscape:pageshadow="2"
     inkscape:zoom="0.35"
     inkscape:cx="112.80821"
     inkscape:cy="-91.389283"
     inkscape:document-units="px"
     inkscape:current-layer="layer1"
     showgrid="false"
     fit-margin-top="0"
     fit-margin-left="0"
     fit-margin-right="0"
     fit-margin-bottom="0"
     inkscape:window-width="469"
     inkscape:window-height="403"
     inkscape:window-x="125"
     inkscape:window-y="125"
     inkscape:window-maximized="0" />
  <metadata
     id="metadata6330">
    <rdf:RDF>
      <cc:Work
         rdf:about="">
        <dc:format>image/svg+xml</dc:format>
        <dc:type
           rdf:resource="http://purl.org/dc/dcmitype/StillImage" />
        <dc:title></dc:title>
      </cc:Work>
    </rdf:RDF>
  </metadata>
  <g
     inkscape:label="Layer 1"
     inkscape:groupmode="layer"
     id="layer1"
     transform="translate(-262.19179,-332.3229)">
    <g
       transform="matrix(1.25,0,0,-1.25,222.81554,860.84115)"
       id="g3711">
      <g
         id="g3713"
         clip-path="url(#clipPath3715)">
        <g
           id="g3719"
           transform="translate(36.072,422.5646)">
          <path
             inkscape:connector-curvature="0"
             d="m 0,0 60.493,0 c 2.381,0 4.322,-1.94 4.322,-4.32 l 0,-77.78 c 0,-2.379 -1.941,-4.32 -4.322,-4.32 L 0,-86.42 c -2.38,0 -4.321,1.941 -4.321,4.32 l 0,77.78 C -4.321,-1.971 -2.351,0 0,0"
             style="fill:#ffffff;fill-opacity:1;fill-rule:nonzero;stroke:none"
             id="path3721" />
        </g>
      </g>
    </g>
    <g
       transform="matrix(1.25,0,0,-1.25,222.81554,860.84115)"
       id="g3723">
      <g
         id="g3725"
         clip-path="url(#clipPath3727)">
        <g
           id="g3731"
           transform="translate(36.072,422.5646)">
          <path
             inkscape:connector-curvature="0"
             d="m 0,0 60.493,0 c 2.381,0 4.322,-1.94 4.322,-4.32 l 0,-77.78 c 0,-2.379 -1.941,-4.32 -4.322,-4.32 L 0,-86.42 c -2.38,0 -4.321,1.941 -4.321,4.32 l 0,77.78 C -4.321,-1.971 -2.351,0 0,0"
             style="fill:none;stroke:#231f20;stroke-width:0.5;stroke-linecap:butt;stroke-linejoin:miter;stroke-miterlimit:4;stroke-opacity:1;stroke-dasharray:none"
             id="path3733" />
        </g>
      </g>
    </g>
    <g
       transform="matrix(1.25,0,0,-1.25,222.81554,860.84115)"
       id="g3735">
      <g
         id="g3737"
         clip-path="url(#clipPath3739)">
        <g
           id="g3743"
           transform="translate(36.0867,421.4846)">
          <path
             inkscape:connector-curvature="0"
             d="m 0,0 60.467,0 c 1.779,-0.004 3.246,-1.476 3.253,-3.254 l 0,-77.752 c -0.007,-1.78 -1.474,-3.247 -3.253,-3.254 L 0,-84.26 c -1.779,0.007 -3.252,1.474 -3.256,3.254 l 0,77.752 C -3.252,-1.476 -1.779,-0.003 0,0"
             style="fill:#231f20;fill-opacity:1;fill-rule:evenodd;stroke:none"
             id="path3745" />
        </g>
        <g
           id="g3747"
           transform="translate(36.1081,419.6846)">
          <path
             inkscape:connector-curvature="0"
             d="m 0,0 60.422,0 c 0.81,0.011 1.49,-0.664 1.476,-1.477 l 0,-77.705 c 0.014,-0.812 -0.666,-1.491 -1.476,-1.478 L 0,-80.66 c -0.813,-0.013 -1.488,0.666 -1.477,1.478 l 0,77.705 C -1.488,-0.664 -0.814,0.011 0,0"
             style="fill:#ffffff;fill-opacity:1;fill-rule:evenodd;stroke:none"
             id="path3749" />
        </g>
        <g
           id="g3751"
           transform="translate(90.7761,405.2866)">
          <path
             inkscape:connector-curvature="0"
             d="m 0,0 0,8.636 -1.243,0 0,-5.181 -2.364,5.181 -1.245,0 0,-8.636 1.245,0 0,5.788 L -0.94,0 0,0 z m -7.488,6.334 c 0,-0.698 -0.395,-1.092 -1.121,-1.092 l -1.274,0 0,2.183 1.274,0 c 0.666,0 1.121,-0.425 1.121,-1.091 M -6.275,0 -7.518,4.242 c 0.817,0.303 1.243,1.061 1.243,2.092 0,1.393 -0.91,2.302 -2.275,2.302 l -2.577,0 0,-8.636 1.244,0 0,4.061 1.182,0 L -7.549,0 -6.275,0 z m -6.701,2.575 0,6.061 -1.243,0 0,-6.211 c 0,-0.819 -0.484,-1.365 -1.152,-1.365 -0.727,0 -1.211,0.546 -1.211,1.365 l 0,6.211 -1.244,0 0,-6.061 c 0,-0.695 0.092,-1.059 0.334,-1.515 0.424,-0.726 1.273,-1.217 2.121,-1.217 0.82,0 1.638,0.521 2.062,1.217 0.243,0.456 0.333,0.82 0.333,1.515 m -6.032,4.91 0,1.151 -4.395,0 0,-1.151 1.575,0 0,-7.485 1.244,0 0,7.485 1.576,0 z m -9.217,0 0,1.151 -4.394,0 0,-1.151 1.576,0 0,-7.485 1.242,0 0,7.485 1.576,0 z m -4.91,-0.06 0,1.211 -4.394,0 0,-8.636 1.242,0 0,4.061 1.728,0 0,1.181 -1.728,0 0,2.183 3.152,0 z M -38.985,0 l 0,1.212 -3.153,0 0,2.849 1.788,0 0,1.181 -1.788,0 0,2.183 2.82,0 0,1.211 -4.063,0 0,-8.636 4.396,0 z m -5.577,0 0,1.151 -3.155,0 0,7.485 -1.242,0 0,-8.636 4.397,0 z"
             style="fill:#231f20;fill-opacity:1;fill-rule:evenodd;stroke:none"
             id="path3753" />
        </g>
        <g
           id="g3755"
           transform="translate(89.7292,373.5986)">
          <path
             inkscape:connector-curvature="0"
             d="m 0,0 0,8.635 -1.242,0 0,-5.181 -2.365,5.181 -1.243,0 0,-8.635 1.243,0 0,5.788 L -0.939,0 0,0 z m -6.305,0 0,1.212 -3.152,0 0,2.847 1.787,0 0,1.184 -1.787,0 0,2.181 2.818,0 0,1.211 -4.062,0 0,-8.635 4.396,0 z m -5.851,0 0,1.212 -3.153,0 0,2.847 1.79,0 0,1.184 -1.79,0 0,2.181 2.819,0 0,1.211 -4.062,0 0,-8.635 4.396,0 z m -7.032,6.333 c 0,-0.696 -0.394,-1.09 -1.123,-1.09 l -1.273,0 0,2.181 1.273,0 c 0.667,0 1.123,-0.423 1.123,-1.091 M -17.977,0 -19.219,4.242 c 0.819,0.304 1.242,1.061 1.242,2.091 0,1.395 -0.909,2.302 -2.273,2.302 l -2.576,0 0,-8.635 1.242,0 0,4.059 1.182,0 1.152,-4.059 1.273,0 z m -6.547,2.393 0,1.789 -2.213,0 0,-1.214 0.97,0 0,-0.575 c 0,-0.908 -0.303,-1.334 -0.94,-1.334 -0.667,0 -1.091,0.455 -1.273,1.303 -0.122,0.668 -0.182,1.426 -0.182,2.154 0,1.03 0.151,1.998 0.394,2.424 0.212,0.424 0.545,0.637 0.969,0.637 0.608,0 1.001,-0.395 1.032,-0.971 l 1.243,0 c -0.062,1.272 -1.001,2.182 -2.244,2.182 -1,0 -1.88,-0.666 -2.182,-1.575 -0.303,-0.818 -0.396,-1.698 -0.396,-2.912 0,-1.119 0.183,-2.332 0.457,-2.968 0.424,-0.969 1.181,-1.491 2.213,-1.491 0.878,0 1.574,0.459 1.908,1.217 0.182,0.363 0.244,0.728 0.244,1.334 M -35.346,0 l 0,8.635 -1.244,0 0,-5.181 -2.365,5.181 -1.242,0 0,-8.635 1.242,0 0,5.788 2.669,-5.788 0.94,0 z m -7.761,4.334 c 0,-1.001 -0.061,-1.515 -0.274,-2.213 -0.212,-0.728 -0.546,-1.062 -1.06,-1.062 -0.546,0 -0.879,0.334 -1.092,1.062 -0.181,0.698 -0.273,1.241 -0.273,2.18 0,0.972 0.062,1.548 0.273,2.213 0.213,0.729 0.546,1.063 1.092,1.063 0.514,0 0.848,-0.334 1.06,-1.092 0.182,-0.636 0.274,-1.182 0.274,-2.151 m 1.181,0 c 0,1.303 -0.121,2.121 -0.484,2.968 -0.425,1.062 -1.031,1.486 -2.031,1.486 -1,0 -1.607,-0.424 -2.063,-1.453 -0.362,-0.821 -0.483,-1.698 -0.483,-3.001 0,-1.333 0.121,-2.154 0.483,-3.001 0.426,-1.032 1.032,-1.491 2.063,-1.491 0.97,0 1.606,0.459 2.031,1.491 0.363,0.818 0.484,1.668 0.484,3.001"
             style="fill:#231f20;fill-opacity:1;fill-rule:evenodd;stroke:none"
             id="path3757" />
        </g>
        <g
           id="g3759"
           transform="translate(82.1198,393.7026)">
          <path
             inkscape:connector-curvature="0"
             d="m 0,0 c 0,-0.889 -0.081,-1.697 -0.162,-2.426 -0.16,-0.888 -0.688,-1.656 -1.657,-1.656 l -1.374,0 0,8.283 1.374,0 c 0.727,0 1.213,-0.364 1.497,-1.171 C -0.121,2.545 0,1.292 0,0 M 1.616,0.08 C 1.616,0.969 1.495,1.978 1.333,2.828 1.131,4 0.646,4.889 -0.041,5.373 -0.445,5.695 -0.93,5.817 -1.9,5.817 l -2.95,0 0,-11.516 3.193,0 c 0.645,0 1.212,0.161 1.616,0.525 1.133,0.889 1.657,2.588 1.657,5.254 m -8.044,-5.779 0,1.536 -4.203,0 0,9.98 -1.657,0 0,-11.516 5.86,0 z m -7.799,0 0,1.617 -4.205,0 0,3.799 2.385,0 0,1.575 -2.385,0 0,2.909 3.76,0 0,1.616 -5.417,0 0,-11.516 5.862,0 z m -8.368,11.516 -1.616,0 0,-11.516 1.616,0 0,11.516 z m -3.194,0 -1.777,0 -1.901,-4.161 -1.939,4.161 -1.738,0 2.83,-6.303 0,-5.213 1.656,0 0,5.213 2.869,6.303 z"
             style="fill:#231f20;fill-opacity:1;fill-rule:evenodd;stroke:none"
             id="path3761" />
        </g>
        <g
           id="g3763"
           transform="translate(66.444,367.8316)">
          <path
             inkscape:connector-curvature="0"
             d="m 0,0 c 6.346,0 11.521,-5.177 11.521,-11.523 0,-6.346 -5.175,-11.523 -11.521,-11.523 -6.347,0 -11.523,5.177 -11.523,11.523 C -11.523,-5.177 -6.347,0 0,0"
             style="fill:#00674c;fill-opacity:1;fill-rule:evenodd;stroke:none"
             id="path3765" />
        </g>
      </g>
    </g>
  </g>
</svg>
