<?xml version="1.0" encoding="UTF-8" standalone="no"?>
<!-- Created with Inkscape (http://www.inkscape.org/) -->

<svg
   xmlns:dc="http://purl.org/dc/elements/1.1/"
   xmlns:cc="http://creativecommons.org/ns#"
   xmlns:rdf="http://www.w3.org/1999/02/22-rdf-syntax-ns#"
   xmlns:svg="http://www.w3.org/2000/svg"
   xmlns="http://www.w3.org/2000/svg"
   xmlns:sodipodi="http://sodipodi.sourceforge.net/DTD/sodipodi-0.dtd"
   xmlns:inkscape="http://www.inkscape.org/namespaces/inkscape"
   width="82.617188"
   height="137.26562"
   id="svg22873"
   version="1.1"
   inkscape:version="0.48.1 "
   sodipodi:docname="New document 91">
  <defs
     id="defs22875">
    <clipPath
       clipPathUnits="userSpaceOnUse"
       id="clipPath13364">
      <path
         inkscape:connector-curvature="0"
         d="m 63.125,61.226 513.268,0 0,676.774 -513.268,0 0,-676.774 z"
         id="path13366" />
    </clipPath>
    <clipPath
       clipPathUnits="userSpaceOnUse"
       id="clipPath13352">
      <path
         inkscape:connector-curvature="0"
         d="m 67.241,61.226 505.037,0 0,676.774 -505.037,0 0,-676.774 z"
         id="path13354" />
    </clipPath>
    <clipPath
       clipPathUnits="userSpaceOnUse"
       id="clipPath13340">
      <path
         inkscape:connector-curvature="0"
         d="m 63.125,61.226 513.268,0 0,676.774 -513.268,0 0,-676.774 z"
         id="path13342" />
    </clipPath>
  </defs>
  <sodipodi:namedview
     id="base"
     pagecolor="#ffffff"
     bordercolor="#666666"
     borderopacity="1.0"
     inkscape:pageopacity="0.0"
     inkscape:pageshadow="2"
     inkscape:zoom="0.35"
     inkscape:cx="73.45723"
     inkscape:cy="168.62562"
     inkscape:document-units="px"
     inkscape:current-layer="layer1"
     showgrid="false"
     fit-margin-top="0"
     fit-margin-left="0"
     fit-margin-right="0"
     fit-margin-bottom="0"
     inkscape:window-width="469"
     inkscape:window-height="403"
     inkscape:window-x="150"
     inkscape:window-y="150"
     inkscape:window-maximized="0" />
  <metadata
     id="metadata22878">
    <rdf:RDF>
      <cc:Work
         rdf:about="">
        <dc:format>image/svg+xml</dc:format>
        <dc:type
           rdf:resource="http://purl.org/dc/dcmitype/StillImage" />
        <dc:title></dc:title>
      </cc:Work>
    </rdf:RDF>
  </metadata>
  <g
     inkscape:label="Layer 1"
     inkscape:groupmode="layer"
     id="layer1"
     transform="translate(-301.54277,-563.72218)">
    <g
       transform="matrix(1.25,0,0,-1.25,-331.17998,795.52968)"
       id="g13336">
      <g
         id="g13338"
         clip-path="url(#clipPath13340)">
        <g
           id="g13344"
           transform="translate(564.7407,185.196)">
          <path
             inkscape:connector-curvature="0"
             d="m 0,0 -51.02,0 c -4.025,0 -7.289,-3.262 -7.289,-7.287 l 0,-94.748 c 0,-4.026 3.264,-7.289 7.289,-7.289 l 51.02,0 c 4.023,0 7.287,3.263 7.287,7.289 l 0,94.748 C 7.287,-3.262 4.023,0 0,0"
             style="fill:#ffffff;fill-opacity:1;fill-rule:nonzero;stroke:none"
             id="path13346" />
        </g>
      </g>
    </g>
    <g
       transform="matrix(1.25,0,0,-1.25,-331.17998,795.52968)"
       id="g13348">
      <g
         id="g13350"
         clip-path="url(#clipPath13352)">
        <g
           id="g13356"
           transform="translate(564.7407,185.196)">
          <path
             inkscape:connector-curvature="0"
             d="m 0,0 -51.02,0 c -4.025,0 -7.289,-3.262 -7.289,-7.287 l 0,-94.748 c 0,-4.026 3.264,-7.289 7.289,-7.289 l 51.02,0 c 4.023,0 7.287,3.263 7.287,7.289 l 0,94.748 C 7.287,-3.262 4.023,0 0,0 z"
             style="fill:none;stroke:#231f20;stroke-width:0.5;stroke-linecap:butt;stroke-linejoin:miter;stroke-miterlimit:4;stroke-opacity:1;stroke-dasharray:none"
             id="path13358" />
        </g>
      </g>
    </g>
    <g
       transform="matrix(1.25,0,0,-1.25,-331.17998,795.52968)"
       id="g13360">
      <g
         id="g13362"
         clip-path="url(#clipPath13364)">
        <g
           id="g13368"
           transform="translate(567.9617,181.1291)">
          <path
             inkscape:connector-curvature="0"
             d="m 0,0 c -0.862,0.86 -2.006,1.334 -3.221,1.334 l -51.02,0 c -1.216,0 -2.361,-0.474 -3.22,-1.334 -0.862,-0.861 -1.334,-2.004 -1.334,-3.22 l 0,-94.748 c 0,-1.217 0.472,-2.362 1.334,-3.223 0.859,-0.859 2.004,-1.334 3.22,-1.334 l 51.02,0 c 1.215,0 2.359,0.475 3.221,1.334 0.859,0.861 1.334,2.006 1.334,3.223 l 0,94.748 C 1.334,-2.004 0.859,-0.861 0,0"
             style="fill:#231f20;fill-opacity:1;fill-rule:nonzero;stroke:none"
             id="path13370" />
        </g>
        <path
           inkscape:connector-curvature="0"
           d="m 511.899,127.62 54.662,0 0,32.068 -54.662,0 0,-32.068 z"
           style="fill:#ffffff;fill-opacity:1;fill-rule:nonzero;stroke:none"
           id="path13372" />
        <g
           id="g13374"
           transform="translate(566.5607,177.909)">
          <path
             inkscape:connector-curvature="0"
             d="M 0,0 C 0,0.656 -0.334,1.088 -0.533,1.287 -0.732,1.486 -1.164,1.822 -1.82,1.822 l -51.02,0 c -0.656,0 -1.089,-0.336 -1.289,-0.535 C -54.328,1.088 -54.662,0.656 -54.662,0 l 0,-16.764 54.662,0 L 0,0 z"
             style="fill:#ffffff;fill-opacity:1;fill-rule:nonzero;stroke:none"
             id="path13376" />
        </g>
        <path
           inkscape:connector-curvature="0"
           d="m 511.899,108.668 54.662,0 0,17.493 -54.662,0 0,-17.493 z"
           style="fill:#ffffff;fill-opacity:1;fill-rule:nonzero;stroke:none"
           id="path13378" />
        <g
           id="g13380"
           transform="translate(511.8987,83.1611)">
          <path
             inkscape:connector-curvature="0"
             d="m 0,0 c 0,-0.659 0.334,-1.09 0.533,-1.289 0.2,-0.2 0.633,-0.534 1.289,-0.534 l 51.02,0 c 0.656,0 1.088,0.334 1.287,0.534 0.199,0.199 0.533,0.63 0.533,1.289 l 0,24.05 L 0,24.05 0,0 z"
             style="fill:#ffffff;fill-opacity:1;fill-rule:nonzero;stroke:none"
             id="path13382" />
        </g>
        <g
           id="g13384"
           transform="translate(529.5627,95.2681)">
          <path
             inkscape:connector-curvature="0"
             d="m 0,0 0,-3.557 -0.592,0 0,3.557 -0.748,0 0,0.547 2.088,0 L 0.748,0 0,0 z"
             style="fill:#231f20;fill-opacity:1;fill-rule:nonzero;stroke:none"
             id="path13386" />
        </g>
        <g
           id="g13388"
           transform="translate(532.5137,94.7921)">
          <path
             inkscape:connector-curvature="0"
             d="m 0,0 c -0.101,0.361 -0.259,0.519 -0.503,0.519 -0.26,0 -0.418,-0.158 -0.518,-0.504 -0.102,-0.318 -0.131,-0.592 -0.131,-1.053 0,-0.445 0.043,-0.705 0.131,-1.035 0.1,-0.345 0.258,-0.504 0.518,-0.504 0.244,0 0.402,0.159 0.503,0.504 0.102,0.33 0.129,0.576 0.129,1.051 C 0.129,-0.561 0.086,-0.303 0,0 m 0.461,-2.448 c -0.201,-0.49 -0.504,-0.705 -0.964,-0.705 -0.491,0 -0.778,0.215 -0.979,0.705 -0.174,0.403 -0.23,0.791 -0.23,1.426 0,0.619 0.056,1.037 0.23,1.426 0.215,0.488 0.504,0.689 0.979,0.689 0.474,0 0.763,-0.201 0.964,-0.705 0.172,-0.402 0.231,-0.791 0.231,-1.41 0,-0.635 -0.059,-1.037 -0.231,-1.426"
             style="fill:#231f20;fill-opacity:1;fill-rule:nonzero;stroke:none"
             id="path13390" />
        </g>
        <g
           id="g13392"
           transform="translate(537.6977,94.719)">
          <path
             inkscape:connector-curvature="0"
             d="m 0,0 c -0.059,0.405 -0.217,0.592 -0.49,0.592 -0.475,0 -0.649,-0.375 -0.649,-1.441 0,-1.18 0.203,-1.655 0.707,-1.655 0.346,0 0.432,0.287 0.432,0.59 l 0.59,0 C 0.576,-2.592 0.145,-3.08 -0.432,-3.08 c -0.879,0 -1.267,0.705 -1.267,2.217 0,1.324 0.418,2.029 1.224,2.029 0.331,0 0.62,-0.142 0.805,-0.416 C 0.488,0.549 0.547,0.375 0.59,0 L 0,0 z"
             style="fill:#231f20;fill-opacity:1;fill-rule:nonzero;stroke:none"
             id="path13394" />
        </g>
        <g
           id="g13396"
           transform="translate(540.3037,95.239)">
          <path
             inkscape:connector-curvature="0"
             d="m 0,0 -0.606,0 0,-1.037 0.606,0 c 0.345,0 0.533,0.187 0.533,0.517 C 0.533,-0.201 0.316,0 0,0 m 0.503,-3.528 -0.546,1.928 -0.563,0 0,-1.928 -0.59,0 0,4.104 1.225,0 c 0.648,0 1.08,-0.434 1.08,-1.096 0,-0.488 -0.201,-0.849 -0.592,-0.992 l 0.592,-2.016 -0.606,0 z"
             style="fill:#231f20;fill-opacity:1;fill-rule:nonzero;stroke:none"
             id="path13398" />
        </g>
        <g
           id="g13400"
           transform="translate(543.7447,94.7921)">
          <path
             inkscape:connector-curvature="0"
             d="m 0,0 c -0.102,0.361 -0.26,0.519 -0.504,0.519 -0.26,0 -0.418,-0.158 -0.518,-0.504 -0.101,-0.318 -0.13,-0.592 -0.13,-1.053 0,-0.445 0.043,-0.705 0.13,-1.035 0.1,-0.345 0.258,-0.504 0.518,-0.504 0.244,0 0.402,0.159 0.504,0.504 0.101,0.33 0.129,0.576 0.129,1.051 C 0.129,-0.561 0.086,-0.303 0,0 m 0.461,-2.448 c -0.201,-0.49 -0.504,-0.705 -0.965,-0.705 -0.49,0 -0.777,0.215 -0.979,0.705 -0.173,0.403 -0.23,0.791 -0.23,1.426 0,0.619 0.057,1.037 0.23,1.426 0.215,0.488 0.504,0.689 0.979,0.689 0.475,0 0.764,-0.201 0.965,-0.705 0.172,-0.402 0.23,-0.791 0.23,-1.41 0,-0.635 -0.058,-1.037 -0.23,-1.426"
             style="fill:#231f20;fill-opacity:1;fill-rule:nonzero;stroke:none"
             id="path13402" />
        </g>
        <g
           id="g13404"
           transform="translate(546.2077,91.639)">
          <path
             inkscape:connector-curvature="0"
             d="m 0,0 c -0.721,0 -1.153,0.604 -1.153,1.281 l 0.577,0 c 0,-0.345 0.172,-0.705 0.576,-0.705 0.316,0 0.574,0.287 0.574,0.619 0,0.231 -0.086,0.403 -0.33,0.59 -0.086,0.086 0.144,-0.072 -0.691,0.491 -0.332,0.228 -0.504,0.546 -0.504,0.906 0,0.59 0.461,1.064 1.05,1.064 0.577,0 1.024,-0.445 1.038,-1.064 l -0.563,0 C 0.56,3.469 0.359,3.656 0.099,3.656 -0.174,3.656 -0.391,3.455 -0.391,3.182 -0.391,2.981 -0.303,2.865 0,2.692 0.791,2.231 1.137,1.785 1.137,1.195 1.137,0.533 0.633,0 0,0"
             style="fill:#231f20;fill-opacity:1;fill-rule:nonzero;stroke:none"
             id="path13406" />
        </g>
        <g
           id="g13408"
           transform="translate(548.9847,91.639)">
          <path
             inkscape:connector-curvature="0"
             d="m 0,0 c -0.719,0 -1.15,0.604 -1.15,1.281 l 0.574,0 c 0,-0.345 0.174,-0.705 0.576,-0.705 0.317,0 0.576,0.287 0.576,0.619 0,0.231 -0.086,0.403 -0.33,0.59 -0.088,0.086 0.143,-0.072 -0.691,0.491 -0.332,0.228 -0.504,0.546 -0.504,0.906 0,0.59 0.461,1.064 1.051,1.064 0.576,0 1.021,-0.445 1.037,-1.064 l -0.563,0 C 0.563,3.469 0.361,3.656 0.102,3.656 -0.172,3.656 -0.389,3.455 -0.389,3.182 -0.389,2.981 -0.303,2.865 0,2.692 0.793,2.231 1.139,1.785 1.139,1.195 1.139,0.533 0.635,0 0,0"
             style="fill:#231f20;fill-opacity:1;fill-rule:nonzero;stroke:none"
             id="path13410" />
        </g>
        <g
           id="g13412"
           transform="translate(528.8427,84.625)">
          <path
             inkscape:connector-curvature="0"
             d="M 0,0 0,2.303 -0.764,0 l -0.762,2.303 0,-2.303 -0.592,0 0,4.104 0.592,0 L -0.764,1.799 0,4.104 0.589,4.104 0.589,0 0,0 z"
             style="fill:#231f20;fill-opacity:1;fill-rule:nonzero;stroke:none"
             id="path13414" />
        </g>
        <g
           id="g13416"
           transform="translate(531.4497,85.9501)">
          <path
             inkscape:connector-curvature="0"
             d="m 0,0 c -0.303,0.273 -0.836,0.201 -0.836,-0.332 0,-0.373 0.201,-0.532 0.49,-0.532 0.201,0 0.346,0.086 0.346,0.274 L 0,0 z m 0.027,-1.325 0,0.086 c -0.099,-0.086 -0.316,-0.128 -0.504,-0.128 -0.503,0 -0.935,0.445 -0.935,1.05 0,0.85 0.721,1.223 1.412,0.893 -0.016,0.359 -0.016,0.633 -0.477,0.633 -0.257,0 -0.517,-0.215 -0.619,-0.375 L -1.24,1.396 c 0.246,0.231 0.549,0.346 0.836,0.346 0.793,0 0.965,-0.576 0.965,-1.067 l 0,-2 -0.534,0 z"
             style="fill:#231f20;fill-opacity:1;fill-rule:nonzero;stroke:none"
             id="path13418" />
        </g>
        <g
           id="g13420"
           transform="translate(533.7527,87.1291)">
          <path
             inkscape:connector-curvature="0"
             d="m 0,0 c -0.231,0.03 -0.461,-0.099 -0.461,-0.675 l 0,-0.678 c 0,-0.459 0.217,-0.676 0.447,-0.676 0.389,0 0.475,0.576 0.475,1.008 C 0.461,-0.287 0.259,-0.013 0,0 m 0.058,-2.576 c -0.332,0 -0.533,0.115 -0.533,0.115 l 0,-0.921 -0.576,-0.274 0,4.147 0.576,0 0,-0.145 c 0.129,0.115 0.244,0.203 0.504,0.217 0.893,0.029 1.008,-0.85 1.008,-1.584 0,-0.705 -0.158,-1.555 -0.979,-1.555"
             style="fill:#231f20;fill-opacity:1;fill-rule:nonzero;stroke:none"
             id="path13422" />
        </g>
        <g
           id="g13424"
           transform="translate(535.4087,84.625)">
          <path
             inkscape:connector-curvature="0"
             d="M 0,0 0,3.858 0.561,4.176 0.561,0 0,0 z"
             style="fill:#231f20;fill-opacity:1;fill-rule:nonzero;stroke:none"
             id="path13426" />
        </g>
        <g
           id="g13428"
           transform="translate(537.6257,87.159)">
          <path
             inkscape:connector-curvature="0"
             d="m 0,0 c -0.418,0 -0.475,-0.446 -0.475,-0.748 l 0.936,0 C 0.461,-0.461 0.418,0 0,0 m -0.461,-1.268 c 0.029,-0.33 0.129,-0.777 0.461,-0.777 0.23,0 0.418,0.217 0.474,0.476 L 0.922,-1.901 C 0.777,-2.289 0.504,-2.592 0,-2.592 c -0.864,0 -1.037,0.793 -1.037,1.57 0,0.662 0.173,1.555 1.037,1.555 0.994,0 1.051,-1.067 1.037,-1.801 l -1.498,0 z"
             style="fill:#231f20;fill-opacity:1;fill-rule:nonzero;stroke:none"
             id="path13430" />
        </g>
        <g
           id="g13432"
           transform="translate(542.9377,87.735)">
          <path
             inkscape:connector-curvature="0"
             d="m 0,0 c -0.099,0.287 -0.273,0.418 -0.533,0.418 l -0.488,0 0,-2.951 0.488,0 c 0.346,0 0.533,0.273 0.592,0.59 0.027,0.259 0.057,0.546 0.057,0.863 C 0.116,-0.619 0.073,-0.172 0,0 M 0.102,-2.924 C -0.043,-3.053 -0.244,-3.11 -0.474,-3.11 l -1.137,0 0,4.104 1.051,0 c 0.345,0 0.517,-0.043 0.662,-0.158 0.244,-0.174 0.418,-0.49 0.488,-0.908 0.059,-0.303 0.102,-0.663 0.102,-0.979 0,-0.951 -0.188,-1.555 -0.59,-1.873"
             style="fill:#231f20;fill-opacity:1;fill-rule:nonzero;stroke:none"
             id="path13434" />
        </g>
        <g
           id="g13436"
           transform="translate(545.6317,86.9581)">
          <path
             inkscape:connector-curvature="0"
             d="m 0,0 c -0.116,0.101 -0.203,0.171 -0.332,0.171 -0.33,0 -0.375,-0.214 -0.375,-0.589 l 0,-1.915 -0.561,0 0,2.995 0.561,0 0,-0.145 c 0.144,0.145 0.203,0.217 0.404,0.217 0.201,0 0.287,-0.086 0.389,-0.201 L 0,0 z"
             style="fill:#231f20;fill-opacity:1;fill-rule:nonzero;stroke:none"
             id="path13438" />
        </g>
        <path
           inkscape:connector-curvature="0"
           d="m 546.163,87.62 0.576,0 0,-2.995 -0.576,0 0,2.995 z m 0.289,0.576 c -0.158,0 -0.289,0.129 -0.289,0.287 0,0.174 0.131,0.303 0.289,0.303 0.172,0 0.303,-0.129 0.303,-0.303 0,-0.158 -0.131,-0.287 -0.303,-0.287"
           style="fill:#231f20;fill-opacity:1;fill-rule:nonzero;stroke:none"
           id="path13440" />
        <g
           id="g13442"
           transform="translate(548.6387,84.625)">
          <path
             inkscape:connector-curvature="0"
             d="m 0,0 -0.474,0 -0.965,2.995 0.576,0 0.619,-2.016 0.606,2.016 0.603,0 L 0,0 z"
             style="fill:#231f20;fill-opacity:1;fill-rule:nonzero;stroke:none"
             id="path13444" />
        </g>
        <g
           id="g13446"
           transform="translate(550.9727,87.159)">
          <path
             inkscape:connector-curvature="0"
             d="m 0,0 c -0.418,0 -0.476,-0.446 -0.476,-0.748 l 0.935,0 C 0.459,-0.461 0.416,0 0,0 m -0.461,-1.268 c 0.028,-0.33 0.129,-0.777 0.461,-0.777 0.229,0 0.416,0.217 0.475,0.476 L 0.92,-1.901 C 0.778,-2.289 0.504,-2.592 0,-2.592 c -0.865,0 -1.037,0.793 -1.037,1.57 0,0.662 0.172,1.555 1.037,1.555 0.993,0 1.051,-1.067 1.036,-1.801 l -1.497,0 z"
             style="fill:#231f20;fill-opacity:1;fill-rule:nonzero;stroke:none"
             id="path13448" />
        </g>
        <g
           id="g13450"
           transform="translate(524.9597,104.336)">
          <path
             inkscape:connector-curvature="0"
             d="m 0,0 -0.604,0 0,-1.166 0.604,0 c 0.345,0 0.533,0.215 0.533,0.59 C 0.533,-0.23 0.318,0 0,0 m 0.029,-1.728 -0.633,0 0,-1.799 -0.59,0 0,4.104 1.223,0 c 0.648,0 1.08,-0.461 1.08,-1.153 0,-0.748 -0.389,-1.152 -1.08,-1.152"
             style="fill:#231f20;fill-opacity:1;fill-rule:nonzero;stroke:none"
             id="path13452" />
        </g>
        <g
           id="g13454"
           transform="translate(528.7757,101.313)">
          <path
             inkscape:connector-curvature="0"
             d="m 0,0 c -0.201,-0.332 -0.59,-0.576 -0.978,-0.576 -0.405,0 -0.807,0.23 -1.008,0.576 -0.115,0.215 -0.16,0.389 -0.16,0.719 l 0,2.881 0.591,0 0,-2.952 C -1.555,0.26 -1.324,0 -0.978,0 c 0.316,0 0.547,0.26 0.547,0.648 l 0,2.952 0.589,0 0,-2.881 C 0.158,0.389 0.115,0.215 0,0"
             style="fill:#231f20;fill-opacity:1;fill-rule:nonzero;stroke:none"
             id="path13456" />
        </g>
        <g
           id="g13458"
           transform="translate(530.7777,100.737)">
          <path
             inkscape:connector-curvature="0"
             d="m 0,0 c -0.721,0 -1.152,0.605 -1.152,1.281 l 0.576,0 c 0,-0.346 0.172,-0.705 0.576,-0.705 0.317,0 0.576,0.287 0.576,0.619 0,0.231 -0.088,0.402 -0.332,0.59 -0.086,0.086 0.145,-0.072 -0.691,0.49 -0.332,0.231 -0.504,0.547 -0.504,0.906 0,0.59 0.461,1.067 1.051,1.067 0.576,0 1.023,-0.447 1.037,-1.067 l -0.561,0 C 0.561,3.471 0.359,3.656 0.1,3.656 -0.174,3.656 -0.389,3.455 -0.389,3.181 -0.389,2.98 -0.303,2.865 0,2.691 0.791,2.232 1.137,1.785 1.137,1.195 1.137,0.533 0.633,0 0,0"
             style="fill:#231f20;fill-opacity:1;fill-rule:nonzero;stroke:none"
             id="path13460" />
        </g>
        <g
           id="g13462"
           transform="translate(534.3187,100.8091)">
          <path
             inkscape:connector-curvature="0"
             d="m 0,0 0,1.858 -1.123,0 0,-1.858 -0.59,0 0,4.104 0.59,0 0,-1.67 1.123,0 0,1.67 0.59,0 L 0.59,0 0,0 z"
             style="fill:#231f20;fill-opacity:1;fill-rule:nonzero;stroke:none"
             id="path13464" />
        </g>
        <g
           id="g13466"
           transform="translate(539.0277,102.6671)">
          <path
             inkscape:connector-curvature="0"
             d="m 0,0 -0.592,0 0,-1.282 0.592,0 c 0.33,0 0.547,0.231 0.547,0.59 C 0.547,-0.303 0.301,0 0,0 m 0.027,1.669 -0.619,0 0,-1.093 0.619,0 c 0.274,0 0.448,0.23 0.448,0.603 0,0.346 -0.129,0.49 -0.448,0.49 m 0,-3.527 -1.209,0 0,4.104 1.297,0 c 0.547,0 0.936,-0.432 0.936,-1.067 0,-0.373 -0.102,-0.547 -0.432,-0.892 0.317,-0.26 0.504,-0.604 0.504,-1.022 0,-0.619 -0.49,-1.123 -1.096,-1.123"
             style="fill:#231f20;fill-opacity:1;fill-rule:nonzero;stroke:none"
             id="path13468" />
        </g>
        <g
           id="g13470"
           transform="translate(542.9867,101.313)">
          <path
             inkscape:connector-curvature="0"
             d="m 0,0 c -0.201,-0.332 -0.59,-0.576 -0.978,-0.576 -0.405,0 -0.807,0.23 -1.008,0.576 -0.115,0.215 -0.16,0.389 -0.16,0.719 l 0,2.881 0.591,0 0,-2.952 C -1.555,0.26 -1.324,0 -0.978,0 c 0.316,0 0.546,0.26 0.546,0.648 l 0,2.952 0.59,0 0,-2.881 C 0.158,0.389 0.115,0.215 0,0"
             style="fill:#231f20;fill-opacity:1;fill-rule:nonzero;stroke:none"
             id="path13472" />
        </g>
        <g
           id="g13474"
           transform="translate(545.0587,104.3661)">
          <path
             inkscape:connector-curvature="0"
             d="m 0,0 0,-3.557 -0.589,0 0,3.557 -0.749,0 0,0.547 2.088,0 L 0.75,0 0,0 z"
             style="fill:#231f20;fill-opacity:1;fill-rule:nonzero;stroke:none"
             id="path13476" />
        </g>
        <g
           id="g13478"
           transform="translate(547.3927,104.3661)">
          <path
             inkscape:connector-curvature="0"
             d="m 0,0 0,-3.557 -0.591,0 0,3.557 -0.748,0 0,0.547 2.087,0 L 0.748,0 0,0 z"
             style="fill:#231f20;fill-opacity:1;fill-rule:nonzero;stroke:none"
             id="path13480" />
        </g>
        <g
           id="g13482"
           transform="translate(550.3447,103.889)">
          <path
             inkscape:connector-curvature="0"
             d="m 0,0 c -0.102,0.361 -0.26,0.52 -0.504,0.52 -0.26,0 -0.418,-0.159 -0.52,-0.504 -0.1,-0.317 -0.129,-0.59 -0.129,-1.051 0,-0.447 0.043,-0.707 0.129,-1.037 0.102,-0.346 0.26,-0.504 0.52,-0.504 0.244,0 0.402,0.158 0.504,0.504 0.099,0.33 0.128,0.576 0.128,1.051 C 0.128,-0.56 0.085,-0.301 0,0 m 0.46,-2.447 c -0.203,-0.488 -0.503,-0.705 -0.964,-0.705 -0.491,0 -0.778,0.217 -0.981,0.705 -0.172,0.404 -0.23,0.793 -0.23,1.426 0,0.619 0.058,1.037 0.23,1.425 0.217,0.489 0.504,0.692 0.981,0.692 0.474,0 0.761,-0.203 0.964,-0.707 0.172,-0.403 0.231,-0.791 0.231,-1.41 0,-0.633 -0.059,-1.037 -0.231,-1.426"
             style="fill:#231f20;fill-opacity:1;fill-rule:nonzero;stroke:none"
             id="path13484" />
        </g>
        <g
           id="g13486"
           transform="translate(553.7137,100.8091)">
          <path
             inkscape:connector-curvature="0"
             d="m 0,0 -1.268,2.75 0,-2.75 -0.59,0 0,4.104 0.59,0 1.123,-2.463 0,2.463 0.59,0 L 0.445,0 0,0 z"
             style="fill:#231f20;fill-opacity:1;fill-rule:nonzero;stroke:none"
             id="path13488" />
        </g>
        <g
           id="g13490"
           transform="translate(557.0667,100.764)">
          <path
             inkscape:connector-curvature="0"
             d="M 0,0 3.649,-2.469 0,-4.941 c -0.162,-0.108 -0.381,-0.067 -0.49,0.094 -0.074,0.107 -0.061,0.218 -0.027,0.351 l 0.322,1.07 -37.996,0 0,1.912 37.996,0 -0.315,1.055 c -0.041,0.145 -0.056,0.252 0.02,0.365 C -0.381,0.067 -0.162,0.11 0,0"
             style="fill:#231f20;fill-opacity:1;fill-rule:evenodd;stroke:none"
             id="path13492" />
        </g>
        <path
           inkscape:connector-curvature="0"
           d="m 511.899,108.668 54.662,0 0,17.493 -54.662,0 0,-17.493 z"
           style="fill:#ffffff;fill-opacity:1;fill-rule:nonzero;stroke:none"
           id="path13494" />
        <path
           inkscape:connector-curvature="0"
           d="m 511.899,127.62 54.662,0 0,32.068 -54.662,0 0,-32.068 z"
           style="fill:#ffffff;fill-opacity:1;fill-rule:nonzero;stroke:none"
           id="path13496" />
        <g
           id="g13498"
           transform="translate(566.5607,177.909)">
          <path
             inkscape:connector-curvature="0"
             d="M 0,0 C 0,0.656 -0.334,1.088 -0.533,1.287 -0.732,1.486 -1.164,1.822 -1.82,1.822 l -51.02,0 c -0.656,0 -1.089,-0.336 -1.289,-0.535 C -54.328,1.088 -54.662,0.656 -54.662,0 l 0,-16.764 54.662,0 L 0,0 z"
             style="fill:#ffffff;fill-opacity:1;fill-rule:nonzero;stroke:none"
             id="path13500" />
        </g>
        <path
           inkscape:connector-curvature="0"
           d="m 517.001,176.032 9.33,0 0,-11.662 -9.33,0 0,11.662 z"
           style="fill:#231f20;fill-opacity:1;fill-rule:evenodd;stroke:none"
           id="path13502" />
        <g
           id="g13504"
           transform="translate(522.1977,174.8251)">
          <path
             inkscape:connector-curvature="0"
             d="m 0,0 c -0.377,0 -0.684,-0.307 -0.684,-0.684 0,-0.375 0.307,-0.682 0.684,-0.682 0.377,0 0.682,0.307 0.682,0.682 C 0.682,-0.307 0.377,0 0,0 M 2.066,-4.305 0.635,-3.35 c -0.067,0.279 -0.34,1.522 -0.891,1.809 -0.547,0.361 -2.558,-1.121 -2.57,-1.133 l 0,-2.162 0.437,0.076 0.17,1.725 c 0.164,0.033 0.328,0.066 0.494,0.099 -0.359,-0.928 -0.492,-1.822 -0.285,-2.412 l -0.873,-3.564 0.588,-0.418 1.272,3.3 0.587,-0.627 0.815,-2.484 0.777,0.285 -0.701,2.617 -0.814,1.459 0.312,1.079 0.332,-0.434 1.555,-0.512 0.226,0.342 z"
             style="fill:#ffffff;fill-opacity:1;fill-rule:evenodd;stroke:none"
             id="path13506" />
        </g>
        <path
           inkscape:connector-curvature="0"
           d="m 517.001,156.811 9.33,0 0,-11.662 -9.33,0 0,11.662 z"
           style="fill:#231f20;fill-opacity:1;fill-rule:evenodd;stroke:none"
           id="path13508" />
        <path
           inkscape:connector-curvature="0"
           d="m 517.001,142.104 9.33,0 0,-10.705 -9.33,0 0,10.705 z"
           style="fill:#231f20;fill-opacity:1;fill-rule:evenodd;stroke:none"
           id="path13510" />
        <g
           id="g13512"
           transform="translate(519.5957,145.674)">
          <path
             inkscape:connector-curvature="0"
             d="m 0,0 c 0.098,0.118 0.209,0.246 0.219,0.453 l 0,1.516 c 0,0.66 -0.222,0.774 -0.439,0.975 -0.36,0.334 -0.305,0.808 -0.285,1.42 0.054,1.695 0.119,2.716 0.125,4.3 0.002,0.202 0.166,0.368 0.367,0.368 0.201,0 0.367,-0.166 0.367,-0.368 l 0.125,-2.57 0.166,0.004 c 0.027,1.174 0.08,2.359 0.08,3.531 0,0.203 0.166,0.367 0.367,0.367 0.203,0 0.367,-0.164 0.367,-0.367 l 0,-0.01 0.051,-3.525 0.17,0 c 0.047,1.33 0.143,2.69 0.143,4.018 0,0.203 0.164,0.367 0.367,0.367 0.201,0 0.365,-0.164 0.365,-0.367 0,0 0,-0.004 0.002,-0.004 l 0.078,-4.014 0.223,0 c 0.012,1.186 0.025,2.371 0.039,3.555 0.008,0.195 0.172,0.347 0.365,0.347 0.197,0 0.363,-0.158 0.367,-0.357 l 0.18,-4.727 c 0,-0.087 0.078,-0.152 0.166,-0.152 0.049,0 0.162,0.035 0.25,0.17 L 5.053,6.129 C 5.366,6.571 5.786,6.657 6.276,6.471 5.971,5.899 5.344,4.491 4.708,3.698 4.372,3.172 3.247,2.647 3.247,1.971 l 0,-1.381 C 3.247,0.305 3.526,-0.015 3.514,0 L 0,0 z"
             style="fill:#f48412;fill-opacity:1;fill-rule:evenodd;stroke:none"
             id="path13514" />
        </g>
        <path
           inkscape:connector-curvature="0"
           d="m 517.001,122.26 9.33,0 0,-11.662 -9.33,0 0,11.662 z"
           style="fill:#231f20;fill-opacity:1;fill-rule:evenodd;stroke:none"
           id="path13516" />
        <g
           id="g13518"
           transform="translate(519.5957,111.1241)">
          <path
             inkscape:connector-curvature="0"
             d="m 0,0 c 0.098,0.119 0.209,0.246 0.219,0.453 l 0,1.515 c 0,0.66 -0.222,0.774 -0.439,0.975 -0.36,0.334 -0.305,0.808 -0.285,1.42 0.054,1.695 0.119,2.717 0.125,4.301 0.002,0.201 0.166,0.367 0.367,0.367 0.201,0 0.367,-0.166 0.367,-0.367 L 0.479,6.093 0.645,6.097 c 0.027,1.174 0.08,2.36 0.08,3.531 0,0.204 0.166,0.368 0.367,0.368 0.203,0 0.367,-0.164 0.367,-0.368 l 0,-0.009 0.051,-3.526 0.17,0 c 0.047,1.33 0.143,2.69 0.143,4.02 0,0.201 0.164,0.365 0.367,0.365 0.201,0 0.365,-0.164 0.365,-0.365 0,0 0,-0.006 0.002,-0.006 l 0.078,-4.014 0.223,0 c 0.012,1.186 0.025,2.371 0.039,3.555 0.008,0.195 0.172,0.348 0.365,0.348 0.197,0 0.363,-0.159 0.367,-0.358 l 0.18,-4.726 c 0,-0.088 0.078,-0.153 0.166,-0.153 0.049,0 0.162,0.035 0.25,0.17 L 5.053,6.128 C 5.366,6.57 5.786,6.656 6.276,6.47 5.971,5.898 5.344,4.49 4.708,3.697 4.372,3.173 3.247,2.646 3.247,1.972 l 0,-1.383 C 3.247,0.304 3.526,-0.016 3.514,0 L 0,0 z"
             style="fill:#f48412;fill-opacity:1;fill-rule:evenodd;stroke:none"
             id="path13520" />
        </g>
        <path
           inkscape:connector-curvature="0"
           d="m 521.473,159.19 0.356,0 0,-1.951 -0.356,0 0,1.951 z"
           style="fill:#231f20;fill-opacity:1;fill-rule:evenodd;stroke:none"
           id="path13522" />
        <g
           id="g13524"
           transform="translate(528.0237,158.727)">
          <path
             inkscape:connector-curvature="0"
             d="M 0,0 0.246,-0.256 -1.158,-1.611 -1.404,-1.355 0,0 z"
             style="fill:#231f20;fill-opacity:1;fill-rule:evenodd;stroke:none"
             id="path13526" />
        </g>
        <g
           id="g13528"
           transform="translate(515.1727,158.456)">
          <path
             inkscape:connector-curvature="0"
             d="M 0,0 0.25,0.252 1.631,-1.129 1.379,-1.379 0,0 z"
             style="fill:#231f20;fill-opacity:1;fill-rule:evenodd;stroke:none"
             id="path13530" />
        </g>
        <g
           id="g13532"
           transform="translate(528.0237,143.217)">
          <path
             inkscape:connector-curvature="0"
             d="M 0,0 0.246,0.254 -1.158,1.61 -1.404,1.356 0,0 z"
             style="fill:#231f20;fill-opacity:1;fill-rule:evenodd;stroke:none"
             id="path13534" />
        </g>
        <g
           id="g13536"
           transform="translate(515.1727,143.487)">
          <path
             inkscape:connector-curvature="0"
             d="M 0,0 0.25,-0.25 1.631,1.129 1.379,1.381 0,0 z"
             style="fill:#231f20;fill-opacity:1;fill-rule:evenodd;stroke:none"
             id="path13538" />
        </g>
        <path
           inkscape:connector-curvature="0"
           d="m 526.929,151.297 1.951,0 0,-0.355 -1.951,0 0,0.355 z"
           style="fill:#231f20;fill-opacity:1;fill-rule:evenodd;stroke:none"
           id="path13540" />
        <g
           id="g13542"
           transform="translate(524.5627,159.174)">
          <path
             inkscape:connector-curvature="0"
             d="M 0,0 0.323,-0.15 -0.502,-1.92 -0.824,-1.769 0,0 z"
             style="fill:#231f20;fill-opacity:1;fill-rule:evenodd;stroke:none"
             id="path13544" />
        </g>
        <g
           id="g13546"
           transform="translate(518.7387,159.174)">
          <path
             inkscape:connector-curvature="0"
             d="M 0,0 -0.32,-0.15 0.504,-1.92 0.824,-1.769 0,0 z"
             style="fill:#231f20;fill-opacity:1;fill-rule:evenodd;stroke:none"
             id="path13548" />
        </g>
        <g
           id="g13550"
           transform="translate(527.0947,153.7681)">
          <path
             inkscape:connector-curvature="0"
             d="M 0,0 -0.151,0.32 1.619,1.145 1.767,0.824 0,0 z"
             style="fill:#231f20;fill-opacity:1;fill-rule:evenodd;stroke:none"
             id="path13552" />
        </g>
        <g
           id="g13554"
           transform="translate(526.9437,147.883)">
          <path
             inkscape:connector-curvature="0"
             d="M 0,0 0.151,0.323 1.918,-0.502 1.77,-0.824 0,0 z"
             style="fill:#231f20;fill-opacity:1;fill-rule:evenodd;stroke:none"
             id="path13556" />
        </g>
        <g
           id="g13558"
           transform="translate(516.2977,153.7681)">
          <path
             inkscape:connector-curvature="0"
             d="M 0,0 0.148,0.32 -1.619,1.145 -1.77,0.824 0,0 z"
             style="fill:#231f20;fill-opacity:1;fill-rule:evenodd;stroke:none"
             id="path13560" />
        </g>
        <g
           id="g13562"
           transform="translate(516.4457,147.883)">
          <path
             inkscape:connector-curvature="0"
             d="M 0,0 -0.148,0.323 -1.918,-0.502 -1.767,-0.824 0,0 z"
             style="fill:#231f20;fill-opacity:1;fill-rule:evenodd;stroke:none"
             id="path13564" />
        </g>
        <path
           inkscape:connector-curvature="0"
           d="m 514.468,151.297 1.951,0 0,-0.355 -1.951,0 0,0.355 z"
           style="fill:#231f20;fill-opacity:1;fill-rule:evenodd;stroke:none"
           id="path13566" />
        <g
           id="g13568"
           transform="translate(532.0477,174.016)">
          <path
             inkscape:connector-curvature="0"
             d="m 0,0 c -0.131,-0.115 -0.317,-0.187 -0.534,-0.187 -0.576,0 -0.878,0.375 -0.906,1.095 l 0.531,0 c 0,-0.16 0.016,-0.216 0.043,-0.302 0.045,-0.159 0.174,-0.26 0.332,-0.26 0.202,0 0.332,0.158 0.332,0.418 0,0.359 -0.13,0.662 -0.447,1.037 -0.187,0.215 -0.316,0.373 -0.359,0.432 -0.231,0.273 -0.332,0.56 -0.332,0.849 0,0.561 0.346,0.965 0.836,0.965 C 0,4.047 0.273,3.729 0.33,3.082 l -0.532,0 c -0.015,0.317 -0.101,0.445 -0.289,0.445 -0.201,0 -0.316,-0.171 -0.316,-0.445 0,-0.187 0.072,-0.332 0.287,-0.562 C -0.073,2.016 0,1.916 0.129,1.656 0.244,1.397 0.33,1.051 0.33,0.764 0.33,0.475 0.201,0.174 0,0"
             style="fill:#231f20;fill-opacity:1;fill-rule:nonzero;stroke:none"
             id="path13570" />
        </g>
        <g
           id="g13572"
           transform="translate(533.7307,177.471)">
          <path
             inkscape:connector-curvature="0"
             d="m 0,0 0,-3.57 -0.517,0 0,3.57 -0.504,0 0,0.533 1.554,0 L 0.533,0 0,0 z"
             style="fill:#231f20;fill-opacity:1;fill-rule:nonzero;stroke:none"
             id="path13574" />
        </g>
        <g
           id="g13576"
           transform="translate(535.6317,176.608)">
          <path
             inkscape:connector-curvature="0"
             d="m 0,0 -0.231,-1.08 0.447,0 L 0,0 z m 0.562,-2.707 -0.23,1.094 -0.678,0 -0.231,-1.094 -0.531,0 0.834,4.103 0.533,0 0.85,-4.103 -0.547,0 z"
             style="fill:#231f20;fill-opacity:1;fill-rule:nonzero;stroke:none"
             id="path13578" />
        </g>
        <g
           id="g13580"
           transform="translate(538.0787,177.471)">
          <path
             inkscape:connector-curvature="0"
             d="m 0,0 -0.258,0 0,-1.123 0.346,0 c 0.287,0 0.373,0.131 0.373,0.52 C 0.461,-0.142 0.361,0 0,0 m 0.562,-1.525 0.418,-2.045 -0.533,0 -0.461,1.916 -0.244,0 0,-1.916 -0.519,0 0,4.103 0.806,0 c 0.633,0 0.965,-0.388 0.965,-1.152 0,-0.459 -0.129,-0.719 -0.432,-0.906"
             style="fill:#231f20;fill-opacity:1;fill-rule:nonzero;stroke:none"
             id="path13582" />
        </g>
        <g
           id="g13584"
           transform="translate(540.4267,177.471)">
          <path
             inkscape:connector-curvature="0"
             d="m 0,0 0,-3.57 -0.518,0 0,3.57 -0.504,0 0,0.533 1.555,0 L 0.533,0 0,0 z"
             style="fill:#231f20;fill-opacity:1;fill-rule:nonzero;stroke:none"
             id="path13586" />
        </g>
        <g
           id="g13588"
           transform="translate(545.1627,174.319)">
          <path
             inkscape:connector-curvature="0"
             d="m 0,0 c -0.072,-0.303 -0.359,-0.49 -0.719,-0.49 -0.418,0 -0.678,0.173 -0.807,0.546 -0.115,0.346 -0.173,0.909 -0.173,1.571 0,0.375 0.045,0.922 0.101,1.238 0.115,0.633 0.36,0.879 0.85,0.879 0.461,0 0.764,-0.289 0.806,-0.793 l -0.533,0 c -0.013,0.174 -0.115,0.26 -0.259,0.26 -0.186,0 -0.288,-0.129 -0.346,-0.405 -0.071,-0.33 -0.086,-0.632 -0.086,-1.179 0,-0.576 0.015,-0.821 0.086,-1.166 0.058,-0.274 0.16,-0.418 0.332,-0.418 0.187,0 0.273,0.144 0.273,0.504 l 0.533,0 C 0.058,0.23 0.043,0.144 0,0"
             style="fill:#231f20;fill-opacity:1;fill-rule:nonzero;stroke:none"
             id="path13590" />
        </g>
        <g
           id="g13592"
           transform="translate(546.7757,177.471)">
          <path
             inkscape:connector-curvature="0"
             d="m 0,0 -0.26,0 0,-1.123 0.346,0 c 0.289,0 0.375,0.131 0.375,0.52 C 0.461,-0.142 0.36,0 0,0 m 0.561,-1.525 0.418,-2.045 -0.532,0 -0.461,1.916 -0.246,0 0,-1.916 -0.517,0 0,4.103 0.806,0 c 0.633,0 0.965,-0.388 0.965,-1.152 0,-0.459 -0.131,-0.719 -0.433,-0.906"
             style="fill:#231f20;fill-opacity:1;fill-rule:nonzero;stroke:none"
             id="path13594" />
        </g>
        <g
           id="g13596"
           transform="translate(549.2527,177.5301)">
          <path
             inkscape:connector-curvature="0"
             d="m 0,0 c -0.475,0 -0.418,-1.281 -0.418,-1.571 0,-0.273 -0.057,-1.597 0.418,-1.597 0.461,0 0.402,1.324 0.402,1.597 C 0.402,-1.238 0.388,0 0,0 m 0,-3.701 c -1.022,0 -0.951,1.455 -0.951,2.13 0,0.708 -0.057,2.104 0.951,2.104 1.008,0 0.949,-1.412 0.949,-2.104 0,-0.675 0.059,-2.13 -0.949,-2.13"
             style="fill:#231f20;fill-opacity:1;fill-rule:nonzero;stroke:none"
             id="path13598" />
        </g>
        <g
           id="g13600"
           transform="translate(552.1607,174.016)">
          <path
             inkscape:connector-curvature="0"
             d="m 0,0 c -0.129,-0.115 -0.316,-0.187 -0.533,-0.187 -0.576,0 -0.877,0.375 -0.907,1.095 l 0.534,0 c 0,-0.16 0.013,-0.216 0.043,-0.302 0.043,-0.159 0.172,-0.26 0.33,-0.26 0.201,0 0.332,0.158 0.332,0.418 0,0.359 -0.131,0.662 -0.448,1.037 -0.187,0.215 -0.316,0.373 -0.359,0.432 -0.23,0.273 -0.332,0.56 -0.332,0.849 0,0.561 0.346,0.965 0.836,0.965 0.504,0 0.777,-0.318 0.836,-0.965 l -0.533,0 c -0.016,0.317 -0.102,0.445 -0.289,0.445 -0.201,0 -0.317,-0.171 -0.317,-0.445 0,-0.187 0.073,-0.332 0.289,-0.562 C -0.072,2.016 0,1.916 0.129,1.656 0.244,1.397 0.332,1.051 0.332,0.764 0.332,0.475 0.201,0.174 0,0"
             style="fill:#231f20;fill-opacity:1;fill-rule:nonzero;stroke:none"
             id="path13602" />
        </g>
        <g
           id="g13604"
           transform="translate(554.3347,174.016)">
          <path
             inkscape:connector-curvature="0"
             d="m 0,0 c -0.129,-0.115 -0.317,-0.187 -0.533,-0.187 -0.577,0 -0.877,0.375 -0.907,1.095 l 0.534,0 c 0,-0.16 0.013,-0.216 0.042,-0.302 0.043,-0.159 0.172,-0.26 0.331,-0.26 0.203,0 0.332,0.158 0.332,0.418 0,0.359 -0.129,0.662 -0.448,1.037 -0.185,0.215 -0.316,0.373 -0.359,0.432 -0.231,0.273 -0.33,0.56 -0.33,0.849 0,0.561 0.344,0.965 0.834,0.965 0.504,0 0.777,-0.318 0.836,-0.965 l -0.533,0 c -0.014,0.317 -0.102,0.445 -0.289,0.445 -0.202,0 -0.317,-0.171 -0.317,-0.445 0,-0.187 0.072,-0.332 0.289,-0.562 C -0.073,2.016 0,1.916 0.129,1.656 0.244,1.397 0.332,1.051 0.332,0.764 0.332,0.475 0.201,0.174 0,0"
             style="fill:#231f20;fill-opacity:1;fill-rule:nonzero;stroke:none"
             id="path13606" />
        </g>
        <path
           inkscape:connector-curvature="0"
           d="m 555.313,178.004 0.52,0 0,-4.103 -0.52,0 0,4.103 z"
           style="fill:#231f20;fill-opacity:1;fill-rule:nonzero;stroke:none"
           id="path13608" />
        <g
           id="g13610"
           transform="translate(558.0627,173.9011)">
          <path
             inkscape:connector-curvature="0"
             d="m 0,0 -0.804,2.433 0,-2.433 -0.52,0 0,4.103 0.52,0 0.732,-2.045 0,2.045 0.52,0 L 0.448,0 0,0 z"
             style="fill:#231f20;fill-opacity:1;fill-rule:nonzero;stroke:none"
             id="path13612" />
        </g>
        <g
           id="g13614"
           transform="translate(560.9867,174.3051)">
          <path
             inkscape:connector-curvature="0"
             d="m 0,0 c -0.086,-0.289 -0.359,-0.476 -0.734,-0.476 -0.418,0 -0.662,0.158 -0.793,0.546 -0.129,0.375 -0.172,0.75 -0.172,1.584 0,0.823 0.043,1.182 0.187,1.571 0.129,0.375 0.373,0.533 0.778,0.533 0.461,0 0.734,-0.289 0.791,-0.793 l -0.518,0 c -0.029,0.174 -0.115,0.26 -0.26,0.26 -0.187,0 -0.316,-0.129 -0.359,-0.405 -0.059,-0.33 -0.086,-0.603 -0.086,-1.166 0,-0.56 0.027,-0.834 0.072,-1.179 0.057,-0.274 0.159,-0.418 0.344,-0.418 0.188,0 0.289,0.174 0.289,0.447 l 0,0.547 -0.244,0 0,0.533 0.762,0 0,-1.053 C 0.057,0.346 0.029,0.129 0,0"
             style="fill:#231f20;fill-opacity:1;fill-rule:nonzero;stroke:none"
             id="path13616" />
        </g>
        <g
           id="g13618"
           transform="translate(539.2817,167.704)">
          <path
             inkscape:connector-curvature="0"
             d="M 0,0 -0.447,0 -0.836,2.302 -1.209,0 l -0.447,0 -0.475,4.103 0.533,0 0.215,-1.9 0.332,1.9 0.446,0 0.332,-1.9 0.214,1.9 0.534,0 L 0,0 z"
             style="fill:#231f20;fill-opacity:1;fill-rule:nonzero;stroke:none"
             id="path13620" />
        </g>
        <g
           id="g13622"
           transform="translate(541.0107,169.071)">
          <path
             inkscape:connector-curvature="0"
             d="m 0,0 c 0,0 -0.03,0.101 -0.231,0.101 -0.131,0 -0.246,-0.115 -0.246,-0.474 0,-0.375 0.059,-0.549 0.273,-0.549 0.159,0 0.204,0.088 0.204,0.273 L 0,0 z m 0.043,-1.367 0,0.086 C -0.03,-1.367 -0.145,-1.41 -0.303,-1.41 c -0.404,0 -0.692,0.445 -0.692,1.05 0,0.577 0.346,1.225 0.995,0.965 L 0,0.82 c 0,0.231 -0.059,0.318 -0.231,0.318 -0.217,0 -0.418,-0.273 -0.504,-0.433 l -0.131,0.648 c 0.201,0.231 0.389,0.346 0.619,0.346 0.635,0 0.764,-0.576 0.764,-1.064 l 0,-2.002 -0.474,0 z"
             style="fill:#231f20;fill-opacity:1;fill-rule:nonzero;stroke:none"
             id="path13624" />
        </g>
        <g
           id="g13626"
           transform="translate(542.9807,167.8481)">
          <path
             inkscape:connector-curvature="0"
             d="m 0,0 c -0.099,-0.131 -0.185,-0.187 -0.301,-0.187 -0.318,0 -0.548,0.33 -0.548,0.761 l 0,1.801 -0.317,0 0,0.475 0.317,0 0,0.865 0.533,0.316 0,-1.181 0.361,0 0,-0.461 -0.361,0 0,-1.815 c 0,-0.142 0.072,-0.244 0.174,-0.244 0.086,0 0.129,0.059 0.201,0.158 L 0,0 z"
             style="fill:#231f20;fill-opacity:1;fill-rule:nonzero;stroke:none"
             id="path13628" />
        </g>
        <g
           id="g13630"
           transform="translate(544.0047,167.6451)">
          <path
             inkscape:connector-curvature="0"
             d="m 0,0 c -0.619,0 -0.764,0.734 -0.764,1.498 0,0.836 0.072,1.627 0.764,1.627 0.402,0 0.603,-0.316 0.691,-0.777 L 0.215,2.117 C 0.201,2.361 0.142,2.564 0,2.564 -0.303,2.564 -0.246,1.715 -0.246,1.512 -0.246,1.326 -0.26,0.49 0.013,0.49 0.129,0.504 0.187,0.734 0.215,0.965 L 0.691,0.793 C 0.59,0.332 0.402,0 0,0"
             style="fill:#231f20;fill-opacity:1;fill-rule:nonzero;stroke:none"
             id="path13632" />
        </g>
        <g
           id="g13634"
           transform="translate(546.0337,167.704)">
          <path
             inkscape:connector-curvature="0"
             d="m 0,0 0,2.058 c 0,0.303 -0.029,0.475 -0.215,0.475 -0.187,0 -0.203,-0.244 -0.203,-0.475 l 0,-2.058 -0.518,0 0,3.843 0.518,0.332 0,-1.224 C -0.145,3.224 0.52,3.095 0.52,2.072 L 0.52,0 0,0 z"
             style="fill:#231f20;fill-opacity:1;fill-rule:nonzero;stroke:none"
             id="path13636" />
        </g>
        <g
           id="g13638"
           transform="translate(549.8497,171.274)">
          <path
             inkscape:connector-curvature="0"
             d="m 0,0 0,-1.051 0.604,0 0,-0.547 -0.604,0 0,-1.972 -0.519,0 0,4.103 1.57,0 L 1.051,0 0,0 z"
             style="fill:#231f20;fill-opacity:1;fill-rule:nonzero;stroke:none"
             id="path13640" />
        </g>
        <g
           id="g13642"
           transform="translate(551.6787,170.2231)">
          <path
             inkscape:connector-curvature="0"
             d="m 0,0 c -0.317,0 -0.245,-0.806 -0.245,-1.008 0,-0.187 -0.013,-1.037 0.245,-1.037 0.23,0.016 0.216,0.836 0.216,1.037 C 0.216,-0.806 0.273,0 0,0 m 0,-2.578 c -0.62,0 -0.778,0.793 -0.778,1.557 0,0.834 0.072,1.568 0.778,1.568 0.619,0 0.734,-0.705 0.734,-1.555 0,-0.763 -0.158,-1.57 -0.734,-1.57"
             style="fill:#231f20;fill-opacity:1;fill-rule:nonzero;stroke:none"
             id="path13644" />
        </g>
        <g
           id="g13646"
           transform="translate(553.9827,170.036)">
          <path
             inkscape:connector-curvature="0"
             d="m 0,0 c -0.072,0.101 -0.131,0.173 -0.217,0.173 -0.201,0 -0.287,-0.216 -0.287,-0.591 l 0,-1.914 -0.519,0 0,2.994 0.519,0 0,-0.143 c 0.086,0.143 0.143,0.215 0.274,0.215 0.129,0 0.23,-0.086 0.287,-0.201 L 0,0 z"
             style="fill:#231f20;fill-opacity:1;fill-rule:nonzero;stroke:none"
             id="path13648" />
        </g>
        <g
           id="g13650"
           transform="translate(540.2467,162.4731)">
          <path
             inkscape:connector-curvature="0"
             d="m 0,0 -0.447,0 -0.735,4.104 0.533,0 0.432,-2.334 0.418,2.334 0.533,0 L 0,0 z"
             style="fill:#231f20;fill-opacity:1;fill-rule:nonzero;stroke:none"
             id="path13652" />
        </g>
        <g
           id="g13654"
           transform="translate(542.0607,164.9771)">
          <path
             inkscape:connector-curvature="0"
             d="m 0,0 c -0.174,0 -0.246,-0.187 -0.246,-0.777 l 0.504,0 C 0.258,-0.172 0.172,0 0,0 m -0.246,-1.31 c 0.016,-0.575 0.088,-0.719 0.274,-0.719 0.115,0 0.203,0.086 0.289,0.388 l 0.33,-0.474 C 0.547,-2.391 0.346,-2.562 0.1,-2.562 c -0.662,0 -0.85,0.605 -0.85,1.541 0,0.949 0.174,1.584 0.764,1.584 0.748,0 0.734,-1.311 0.721,-1.873 l -0.981,0 z"
             style="fill:#231f20;fill-opacity:1;fill-rule:nonzero;stroke:none"
             id="path13656" />
        </g>
        <g
           id="g13658"
           transform="translate(544.1917,162.4731)">
          <path
             inkscape:connector-curvature="0"
             d="m 0,0 0,2.059 c 0,0.302 -0.029,0.474 -0.217,0.474 -0.187,0 -0.201,-0.244 -0.201,-0.474 l 0,-2.059 -0.519,0 0,3.844 0.519,0.33 0,-1.223 C -0.144,3.225 0.518,3.096 0.518,2.072 L 0.518,0 0,0 z"
             style="fill:#231f20;fill-opacity:1;fill-rule:nonzero;stroke:none"
             id="path13660" />
        </g>
        <path
           inkscape:connector-curvature="0"
           d="m 545.329,165.467 0.517,0 0,-2.994 -0.517,0 0,2.994 z m 0.26,0.662 c -0.145,0 -0.26,0.116 -0.26,0.274 0,0.144 0.115,0.26 0.273,0.26 0.145,0 0.26,-0.116 0.26,-0.274 0,-0.144 -0.115,-0.26 -0.273,-0.26"
           style="fill:#231f20;fill-opacity:1;fill-rule:nonzero;stroke:none"
           id="path13662" />
        <g
           id="g13664"
           transform="translate(547.1567,162.415)">
          <path
             inkscape:connector-curvature="0"
             d="m 0,0 c -0.619,0 -0.762,0.734 -0.762,1.498 0,0.834 0.071,1.627 0.762,1.627 0.404,0 0.605,-0.317 0.691,-0.778 L 0.217,2.117 C 0.201,2.361 0.145,2.562 0,2.562 c -0.303,0 -0.244,-0.85 -0.244,-1.051 0,-0.187 -0.014,-1.021 0.26,-1.021 0.115,0.013 0.172,0.244 0.201,0.474 L 0.691,0.793 C 0.59,0.332 0.404,0 0,0"
             style="fill:#231f20;fill-opacity:1;fill-rule:nonzero;stroke:none"
             id="path13666" />
        </g>
        <g
           id="g13668"
           transform="translate(548.2507,162.4731)">
          <path
             inkscape:connector-curvature="0"
             d="M 0,0 0,3.858 0.519,4.174 0.519,0 0,0 z"
             style="fill:#231f20;fill-opacity:1;fill-rule:nonzero;stroke:none"
             id="path13670" />
        </g>
        <g
           id="g13672"
           transform="translate(550.0517,164.9771)">
          <path
             inkscape:connector-curvature="0"
             d="m 0,0 c -0.174,0 -0.245,-0.187 -0.245,-0.777 l 0.504,0 C 0.259,-0.172 0.171,0 0,0 m -0.245,-1.31 c 0.014,-0.575 0.086,-0.719 0.274,-0.719 0.115,0 0.201,0.086 0.287,0.388 L 0.648,-2.115 C 0.546,-2.391 0.345,-2.562 0.099,-2.562 c -0.662,0 -0.847,0.605 -0.847,1.541 0,0.949 0.171,1.584 0.761,1.584 0.75,0 0.735,-1.311 0.721,-1.873 l -0.979,0 z"
             style="fill:#231f20;fill-opacity:1;fill-rule:nonzero;stroke:none"
             id="path13674" />
        </g>
        <g
           id="g13676"
           transform="translate(552.2117,162.7021)">
          <path
             inkscape:connector-curvature="0"
             d="m 0,0 c -0.145,-0.186 -0.362,-0.287 -0.576,-0.287 -0.231,0 -0.418,0.058 -0.592,0.316 l 0.144,0.605 c 0.145,-0.316 0.274,-0.431 0.418,-0.431 0.188,0 0.26,0.129 0.26,0.373 0,0.115 -0.088,0.418 -0.361,0.635 -0.301,0.244 -0.461,0.445 -0.461,0.877 0,0.187 0.045,0.361 0.144,0.503 0.116,0.161 0.231,0.247 0.491,0.247 0.201,0 0.388,-0.116 0.589,-0.362 L -0.102,1.929 c -0.187,0.332 -0.273,0.432 -0.402,0.432 -0.102,0 -0.16,-0.129 -0.16,-0.258 0,-0.072 0.029,-0.174 0.088,-0.273 C -0.549,1.787 -0.504,1.728 -0.217,1.441 0.027,1.181 0.158,0.894 0.158,0.562 0.158,0.361 0.099,0.144 0,0"
             style="fill:#231f20;fill-opacity:1;fill-rule:nonzero;stroke:none"
             id="path13678" />
        </g>
        <path
           inkscape:connector-curvature="0"
           d="m 530.606,173.295 30.375,0 0,-0.582 -30.375,0 0,0.582 z"
           style="fill:#231f20;fill-opacity:1;fill-rule:evenodd;stroke:none"
           id="path13680" />
        <g
           id="g13682"
           transform="translate(536.7077,157.475)">
          <path
             inkscape:connector-curvature="0"
             d="m 0,0 c -0.043,0.447 -0.131,0.592 -0.346,0.592 l -0.332,0 0,-3.039 0.332,0 c 0.188,0 0.287,0.129 0.346,0.431 0.013,0.145 0.043,0.606 0.043,0.965 C 0.043,-0.748 0.013,-0.287 0,0 M 0.201,-2.777 C 0.086,-2.908 -0.115,-2.98 -0.346,-2.98 l -0.85,0 0,4.103 0.85,0 c 0.287,0 0.49,-0.099 0.619,-0.301 0.102,-0.16 0.188,-0.433 0.215,-0.691 0.059,-0.332 0.088,-0.707 0.088,-1.051 0,-0.965 -0.131,-1.584 -0.375,-1.857"
             style="fill:#231f20;fill-opacity:1;fill-rule:nonzero;stroke:none"
             id="path13684" />
        </g>
        <g
           id="g13686"
           transform="translate(538.8817,158.1241)">
          <path
             inkscape:connector-curvature="0"
             d="m 0,0 c -0.475,0 -0.418,-1.282 -0.418,-1.569 0,-0.275 -0.057,-1.599 0.418,-1.599 0.461,0 0.402,1.324 0.402,1.599 C 0.402,-1.239 0.388,0 0,0 m 0,-3.702 c -1.022,0 -0.952,1.455 -0.952,2.133 0,0.705 -0.056,2.102 0.952,2.102 1.007,0 0.951,-1.412 0.951,-2.102 0,-0.678 0.056,-2.133 -0.951,-2.133"
             style="fill:#231f20;fill-opacity:1;fill-rule:nonzero;stroke:none"
             id="path13688" />
        </g>
        <g
           id="g13690"
           transform="translate(541.9187,154.495)">
          <path
             inkscape:connector-curvature="0"
             d="m 0,0 -0.805,2.433 0,-2.433 -0.519,0 0,4.103 0.519,0 0.734,-2.043 0,2.043 0.518,0 L 0.447,0 0,0 z"
             style="fill:#231f20;fill-opacity:1;fill-rule:nonzero;stroke:none"
             id="path13692" />
        </g>
        <g
           id="g13694"
           transform="translate(543.4167,157.6061)">
          <path
             inkscape:connector-curvature="0"
             d="m 0,0 -0.158,0.129 c 0.101,0.086 0.201,0.23 0.23,0.332 l -0.043,0 c -0.187,0 -0.303,0.115 -0.303,0.301 0,0.174 0.129,0.302 0.303,0.302 0.188,0 0.316,-0.128 0.316,-0.345 C 0.345,0.461 0.217,0.187 0,0"
             style="fill:#231f20;fill-opacity:1;fill-rule:nonzero;stroke:none"
             id="path13696" />
        </g>
        <g
           id="g13698"
           transform="translate(545.2307,158.067)">
          <path
             inkscape:connector-curvature="0"
             d="m 0,0 0,-3.572 -0.517,0 0,3.572 -0.504,0 0,0.531 1.554,0 L 0.533,0 0,0 z"
             style="fill:#231f20;fill-opacity:1;fill-rule:nonzero;stroke:none"
             id="path13700" />
        </g>
        <g
           id="g13702"
           transform="translate(549.5787,154.61)">
          <path
             inkscape:connector-curvature="0"
             d="m 0,0 c -0.129,-0.115 -0.317,-0.188 -0.533,-0.188 -0.575,0 -0.877,0.375 -0.907,1.096 l 0.534,0 c 0,-0.158 0.013,-0.217 0.043,-0.303 0.043,-0.158 0.171,-0.259 0.33,-0.259 0.203,0 0.332,0.158 0.332,0.418 0,0.359 -0.129,0.662 -0.448,1.037 -0.185,0.214 -0.316,0.373 -0.359,0.431 -0.23,0.274 -0.33,0.561 -0.33,0.85 0,0.56 0.346,0.965 0.834,0.965 C 0,4.047 0.273,3.73 0.332,3.082 l -0.533,0 c -0.014,0.316 -0.102,0.445 -0.287,0.445 -0.204,0 -0.319,-0.172 -0.319,-0.445 0,-0.188 0.073,-0.332 0.289,-0.563 C -0.072,2.015 0,1.916 0.131,1.656 0.244,1.396 0.332,1.051 0.332,0.764 0.332,0.476 0.201,0.174 0,0"
             style="fill:#231f20;fill-opacity:1;fill-rule:nonzero;stroke:none"
             id="path13704" />
        </g>
        <g
           id="g13706"
           transform="translate(551.2637,158.067)">
          <path
             inkscape:connector-curvature="0"
             d="m 0,0 0,-3.572 -0.519,0 0,3.572 -0.504,0 0,0.531 1.555,0 L 0.532,0 0,0 z"
             style="fill:#231f20;fill-opacity:1;fill-rule:nonzero;stroke:none"
             id="path13708" />
        </g>
        <g
           id="g13710"
           transform="translate(553.1647,157.2021)">
          <path
             inkscape:connector-curvature="0"
             d="m 0,0 -0.231,-1.08 0.446,0 L 0,0 z m 0.56,-2.707 -0.23,1.095 -0.676,0 -0.23,-1.095 -0.534,0 0.836,4.103 0.532,0 0.849,-4.103 -0.547,0 z"
             style="fill:#231f20;fill-opacity:1;fill-rule:nonzero;stroke:none"
             id="path13712" />
        </g>
        <g
           id="g13714"
           transform="translate(555.6117,158.067)">
          <path
             inkscape:connector-curvature="0"
             d="m 0,0 -0.26,0 0,-1.123 0.346,0 c 0.289,0 0.375,0.129 0.375,0.517 C 0.461,-0.145 0.359,0 0,0 m 0.561,-1.527 0.418,-2.045 -0.534,0 -0.459,1.916 -0.246,0 0,-1.916 -0.517,0 0,4.103 0.806,0 c 0.633,0 0.963,-0.389 0.963,-1.15 0,-0.461 -0.129,-0.721 -0.431,-0.908"
             style="fill:#231f20;fill-opacity:1;fill-rule:nonzero;stroke:none"
             id="path13716" />
        </g>
        <g
           id="g13718"
           transform="translate(557.9577,158.067)">
          <path
             inkscape:connector-curvature="0"
             d="m 0,0 0,-3.572 -0.518,0 0,3.572 -0.504,0 0,0.531 1.555,0 L 0.533,0 0,0 z"
             style="fill:#231f20;fill-opacity:1;fill-rule:nonzero;stroke:none"
             id="path13720" />
        </g>
        <g
           id="g13722"
           transform="translate(534.8637,151.868)">
          <path
             inkscape:connector-curvature="0"
             d="m 0,0 0,-1.051 0.606,0 0,-0.547 -0.606,0 0,-1.973 -0.518,0 0,4.104 1.569,0 L 1.051,0 0,0 z"
             style="fill:#231f20;fill-opacity:1;fill-rule:nonzero;stroke:none"
             id="path13724" />
        </g>
        <path
           inkscape:connector-curvature="0"
           d="m 536.073,151.292 0.52,0 0,-2.995 -0.52,0 0,2.995 z m 0.26,0.664 c -0.145,0 -0.26,0.115 -0.26,0.273 0,0.143 0.115,0.258 0.273,0.258 0.145,0 0.26,-0.115 0.26,-0.274 0,-0.142 -0.115,-0.257 -0.273,-0.257"
           style="fill:#231f20;fill-opacity:1;fill-rule:nonzero;stroke:none"
           id="path13726" />
        <g
           id="g13728"
           transform="translate(538.2037,148.2971)">
          <path
             inkscape:connector-curvature="0"
             d="m 0,0 0,2.059 c 0,0.303 -0.027,0.477 -0.215,0.477 -0.187,0 -0.201,-0.247 -0.201,-0.477 l 0,-2.059 -0.52,0 0,2.995 0.52,0 0,-0.129 C -0.258,3.139 0.029,3.067 0.029,3.067 0.418,3.024 0.519,2.592 0.519,1.528 L 0.519,0 0,0 z"
             style="fill:#231f20;fill-opacity:1;fill-rule:nonzero;stroke:none"
             id="path13730" />
        </g>
        <path
           inkscape:connector-curvature="0"
           d="m 539.343,151.292 0.517,0 0,-2.995 -0.517,0 0,2.995 z m 0.257,0.664 c -0.142,0 -0.257,0.115 -0.257,0.273 0,0.143 0.115,0.258 0.273,0.258 0.145,0 0.26,-0.115 0.26,-0.274 0,-0.142 -0.115,-0.257 -0.276,-0.257"
           style="fill:#231f20;fill-opacity:1;fill-rule:nonzero;stroke:none"
           id="path13732" />
        <g
           id="g13734"
           transform="translate(541.5027,148.5281)">
          <path
             inkscape:connector-curvature="0"
             d="m 0,0 c -0.145,-0.188 -0.362,-0.287 -0.576,-0.287 -0.231,0 -0.418,0.056 -0.592,0.316 l 0.144,0.604 c 0.145,-0.317 0.274,-0.432 0.418,-0.432 0.188,0 0.26,0.131 0.26,0.375 0,0.115 -0.088,0.418 -0.361,0.633 -0.303,0.246 -0.461,0.447 -0.461,0.879 0,0.187 0.043,0.359 0.144,0.504 0.116,0.158 0.231,0.244 0.491,0.244 0.201,0 0.388,-0.115 0.589,-0.36 L -0.102,1.93 c -0.187,0.33 -0.273,0.431 -0.404,0.431 -0.1,0 -0.158,-0.129 -0.158,-0.26 0,-0.07 0.029,-0.171 0.088,-0.273 0.027,-0.043 0.07,-0.1 0.359,-0.389 C 0.027,1.181 0.158,0.892 0.158,0.562 0.158,0.359 0.099,0.144 0,0"
             style="fill:#231f20;fill-opacity:1;fill-rule:nonzero;stroke:none"
             id="path13736" />
        </g>
        <g
           id="g13738"
           transform="translate(542.9987,148.2971)">
          <path
             inkscape:connector-curvature="0"
             d="m 0,0 0,2.059 c 0,0.303 -0.029,0.477 -0.215,0.477 -0.188,0 -0.203,-0.247 -0.203,-0.477 l 0,-2.059 -0.518,0 0,3.844 0.518,0.332 0,-1.224 C -0.145,3.225 0.519,3.096 0.519,2.075 L 0.519,0 0,0 z"
             style="fill:#231f20;fill-opacity:1;fill-rule:nonzero;stroke:none"
             id="path13740" />
        </g>
        <g
           id="g13742"
           transform="translate(548.1387,148.7151)">
          <path
             inkscape:connector-curvature="0"
             d="m 0,0 c -0.072,-0.302 -0.359,-0.49 -0.718,-0.49 -0.418,0 -0.678,0.174 -0.807,0.547 -0.115,0.346 -0.174,0.908 -0.174,1.57 0,0.375 0.043,0.922 0.102,1.239 0.115,0.632 0.359,0.878 0.849,0.878 0.461,0 0.762,-0.289 0.807,-0.792 l -0.533,0 c -0.016,0.173 -0.115,0.259 -0.26,0.259 -0.187,0 -0.287,-0.129 -0.346,-0.404 -0.072,-0.33 -0.086,-0.633 -0.086,-1.18 0,-0.576 0.014,-0.82 0.086,-1.166 0.059,-0.273 0.159,-0.418 0.332,-0.418 0.188,0 0.274,0.145 0.274,0.504 l 0.533,0 C 0.059,0.231 0.043,0.145 0,0"
             style="fill:#231f20;fill-opacity:1;fill-rule:nonzero;stroke:none"
             id="path13744" />
        </g>
        <g
           id="g13746"
           transform="translate(549.5787,150.6291)">
          <path
             inkscape:connector-curvature="0"
             d="m 0,0 c -0.07,0.102 -0.129,0.174 -0.215,0.174 -0.201,0 -0.289,-0.217 -0.289,-0.59 l 0,-1.916 -0.518,0 0,2.995 0.518,0 0,-0.143 c 0.088,0.143 0.145,0.215 0.275,0.215 C -0.1,0.735 0,0.649 0.058,0.534 L 0,0 z"
             style="fill:#231f20;fill-opacity:1;fill-rule:nonzero;stroke:none"
             id="path13748" />
        </g>
        <g
           id="g13750"
           transform="translate(550.6877,150.817)">
          <path
             inkscape:connector-curvature="0"
             d="m 0,0 c -0.316,0 -0.244,-0.807 -0.244,-1.008 0,-0.187 -0.015,-1.037 0.244,-1.037 0.231,0.016 0.217,0.836 0.217,1.037 C 0.217,-0.807 0.274,0 0,0 m 0,-2.576 c -0.619,0 -0.777,0.791 -0.777,1.554 0,0.834 0.072,1.569 0.777,1.569 0.619,0 0.735,-0.705 0.735,-1.555 0,-0.764 -0.159,-1.568 -0.735,-1.568"
             style="fill:#231f20;fill-opacity:1;fill-rule:nonzero;stroke:none"
             id="path13752" />
        </g>
        <g
           id="g13754"
           transform="translate(552.9337,148.5281)">
          <path
             inkscape:connector-curvature="0"
             d="m 0,0 c -0.144,-0.188 -0.359,-0.287 -0.576,-0.287 -0.23,0 -0.418,0.056 -0.59,0.316 l 0.145,0.604 c 0.142,-0.317 0.273,-0.432 0.416,-0.432 0.187,0 0.26,0.131 0.26,0.375 0,0.115 -0.086,0.418 -0.36,0.633 -0.302,0.246 -0.461,0.447 -0.461,0.879 0,0.187 0.043,0.359 0.145,0.504 0.115,0.158 0.23,0.244 0.488,0.244 0.201,0 0.389,-0.115 0.592,-0.36 L -0.101,1.93 c -0.186,0.33 -0.274,0.431 -0.403,0.431 -0.101,0 -0.158,-0.129 -0.158,-0.26 0,-0.07 0.03,-0.171 0.086,-0.273 0.029,-0.043 0.072,-0.1 0.36,-0.389 C 0.03,1.181 0.159,0.892 0.159,0.562 0.159,0.359 0.102,0.144 0,0"
             style="fill:#231f20;fill-opacity:1;fill-rule:nonzero;stroke:none"
             id="path13756" />
        </g>
        <g
           id="g13758"
           transform="translate(554.4597,148.5281)">
          <path
             inkscape:connector-curvature="0"
             d="m 0,0 c -0.143,-0.188 -0.36,-0.287 -0.576,-0.287 -0.229,0 -0.416,0.056 -0.59,0.316 l 0.144,0.604 c 0.145,-0.317 0.274,-0.432 0.418,-0.432 0.188,0 0.258,0.131 0.258,0.375 0,0.115 -0.086,0.418 -0.359,0.633 -0.303,0.246 -0.461,0.447 -0.461,0.879 0,0.187 0.043,0.359 0.144,0.504 0.116,0.158 0.231,0.244 0.491,0.244 0.201,0 0.388,-0.115 0.589,-0.36 L -0.1,1.93 c -0.187,0.33 -0.273,0.431 -0.404,0.431 -0.1,0 -0.158,-0.129 -0.158,-0.26 0,-0.07 0.029,-0.171 0.086,-0.273 0.029,-0.043 0.072,-0.1 0.361,-0.389 C 0.029,1.181 0.158,0.892 0.158,0.562 0.158,0.359 0.101,0.144 0,0"
             style="fill:#231f20;fill-opacity:1;fill-rule:nonzero;stroke:none"
             id="path13760" />
        </g>
        <path
           inkscape:connector-curvature="0"
           d="m 555.022,151.292 0.518,0 0,-2.995 -0.518,0 0,2.995 z m 0.26,0.664 c -0.145,0 -0.26,0.115 -0.26,0.273 0,0.143 0.115,0.258 0.274,0.258 0.144,0 0.259,-0.115 0.259,-0.274 0,-0.142 -0.115,-0.257 -0.273,-0.257"
           style="fill:#231f20;fill-opacity:1;fill-rule:nonzero;stroke:none"
           id="path13762" />
        <g
           id="g13764"
           transform="translate(557.1527,148.2971)">
          <path
             inkscape:connector-curvature="0"
             d="m 0,0 0,2.059 c 0,0.303 -0.029,0.477 -0.217,0.477 -0.187,0 -0.201,-0.247 -0.201,-0.477 l 0,-2.059 -0.517,0 0,2.995 0.517,0 0,-0.129 C -0.26,3.139 0.027,3.067 0.027,3.067 0.418,3.024 0.518,2.592 0.518,1.528 L 0.518,0 0,0 z"
             style="fill:#231f20;fill-opacity:1;fill-rule:nonzero;stroke:none"
             id="path13766" />
        </g>
        <g
           id="g13768"
           transform="translate(559.1527,150.444)">
          <path
             inkscape:connector-curvature="0"
             d="m 0,0 c 0,0.129 -0.027,0.359 -0.215,0.359 -0.217,0 -0.273,-0.418 -0.273,-1.051 0,-0.361 0.014,-0.591 0.086,-0.806 0.043,-0.129 0.115,-0.201 0.201,-0.201 C -0.07,-1.686 0,-1.412 0,-1.152 L 0,0 z M 0.26,-3.24 C 0.115,-3.442 -0.014,-3.543 -0.244,-3.629 l -0.188,0.488 c 0.247,0.115 0.418,0.289 0.418,0.563 l 0,0.504 c -0.056,-0.086 -0.144,-0.145 -0.201,-0.145 -0.648,0 -0.777,0.865 -0.777,1.527 0,0.834 0.129,1.598 0.764,1.612 0.086,0 0.158,-0.043 0.287,-0.143 l 0,0.086 0.445,0 0,-3.053 c 0,-0.562 -0.057,-0.791 -0.244,-1.05"
             style="fill:#231f20;fill-opacity:1;fill-rule:nonzero;stroke:none"
             id="path13770" />
        </g>
        <path
           inkscape:connector-curvature="0"
           d="m 539.126,147.17 0.519,0 0,-4.103 -0.519,0 0,4.103 z"
           style="fill:#231f20;fill-opacity:1;fill-rule:nonzero;stroke:none"
           id="path13772" />
        <g
           id="g13774"
           transform="translate(540.9557,145.586)">
          <path
             inkscape:connector-curvature="0"
             d="m 0,0 0,-2.519 -0.52,0 0,2.519 -0.201,0 0,0.475 0.201,0 0,0.662 c 0,0.303 0.159,0.52 0.405,0.52 0.099,0 0.214,0 0.33,-0.073 l 0,-0.476 C 0.158,1.209 0,1.209 0,0.95 l 0,-0.475 0.23,0 L 0.23,0 0,0 z"
             style="fill:#231f20;fill-opacity:1;fill-rule:nonzero;stroke:none"
             id="path13776" />
        </g>
        <g
           id="g13778"
           transform="translate(544.9577,143.182)">
          <path
             inkscape:connector-curvature="0"
             d="m 0,0 c -0.129,-0.115 -0.317,-0.187 -0.533,-0.187 -0.577,0 -0.877,0.375 -0.907,1.093 l 0.534,0 c 0,-0.158 0.013,-0.214 0.043,-0.302 0.042,-0.159 0.171,-0.258 0.33,-0.258 0.201,0 0.332,0.158 0.332,0.416 0,0.361 -0.131,0.664 -0.448,1.037 -0.187,0.217 -0.316,0.375 -0.359,0.432 -0.23,0.273 -0.332,0.562 -0.332,0.849 0,0.563 0.346,0.965 0.836,0.965 C 0,4.045 0.273,3.729 0.332,3.08 l -0.533,0 c -0.016,0.317 -0.102,0.447 -0.289,0.447 -0.202,0 -0.317,-0.173 -0.317,-0.447 0,-0.187 0.072,-0.33 0.289,-0.56 C -0.072,2.016 0,1.914 0.129,1.654 0.244,1.397 0.332,1.051 0.332,0.762 0.332,0.475 0.201,0.172 0,0"
             style="fill:#231f20;fill-opacity:1;fill-rule:nonzero;stroke:none"
             id="path13780" />
        </g>
        <g
           id="g13782"
           transform="translate(546.6567,143.209)">
          <path
             inkscape:connector-curvature="0"
             d="m 0,0 c -0.102,-0.128 -0.187,-0.185 -0.303,-0.185 -0.316,0 -0.547,0.33 -0.547,0.762 l 0,1.8 -0.316,0 0,0.475 0.316,0 0,0.863 0.534,0.319 0,-1.182 0.359,0 0,-0.461 -0.359,0 0,-1.814 c 0,-0.143 0.07,-0.244 0.171,-0.244 0.086,0 0.129,0.056 0.202,0.158 L 0,0 z"
             style="fill:#231f20;fill-opacity:1;fill-rule:nonzero;stroke:none"
             id="path13784" />
        </g>
        <g
           id="g13786"
           transform="translate(547.8367,144.4341)">
          <path
             inkscape:connector-curvature="0"
             d="m 0,0 c 0,0 -0.03,0.102 -0.231,0.102 -0.129,0 -0.244,-0.116 -0.244,-0.477 0,-0.373 0.057,-0.547 0.274,-0.547 0.158,0 0.201,0.086 0.201,0.274 L 0,0 z m 0.043,-1.367 0,0.086 C -0.03,-1.367 -0.145,-1.41 -0.303,-1.41 c -0.402,0 -0.689,0.445 -0.689,1.051 0,0.576 0.345,1.222 0.992,0.965 L 0,0.82 c 0,0.231 -0.057,0.317 -0.231,0.317 -0.215,0 -0.416,-0.274 -0.504,-0.432 l -0.129,0.649 c 0.202,0.23 0.389,0.345 0.62,0.345 0.632,0 0.763,-0.576 0.763,-1.066 l 0,-2 -0.476,0 z"
             style="fill:#231f20;fill-opacity:1;fill-rule:nonzero;stroke:none"
             id="path13788" />
        </g>
        <g
           id="g13790"
           transform="translate(549.9967,145.399)">
          <path
             inkscape:connector-curvature="0"
             d="m 0,0 c -0.072,0.101 -0.129,0.172 -0.217,0.172 -0.201,0 -0.287,-0.215 -0.287,-0.59 l 0,-1.914 -0.52,0 0,2.994 0.52,0 0,-0.144 c 0.086,0.144 0.144,0.216 0.273,0.216 0.129,0 0.231,-0.086 0.288,-0.201 L 0,0 z"
             style="fill:#231f20;fill-opacity:1;fill-rule:nonzero;stroke:none"
             id="path13792" />
        </g>
        <g
           id="g13794"
           transform="translate(551.2917,143.209)">
          <path
             inkscape:connector-curvature="0"
             d="m 0,0 c -0.1,-0.128 -0.188,-0.185 -0.301,-0.185 -0.318,0 -0.549,0.33 -0.549,0.762 l 0,1.8 -0.316,0 0,0.475 0.316,0 0,0.863 0.533,0.319 0,-1.182 0.362,0 0,-0.461 -0.362,0 0,-1.814 c 0,-0.143 0.073,-0.244 0.174,-0.244 0.086,0 0.129,0.056 0.201,0.158 L 0,0 z"
             style="fill:#231f20;fill-opacity:1;fill-rule:nonzero;stroke:none"
             id="path13796" />
        </g>
        <g
           id="g13798"
           transform="translate(552.2997,145.571)">
          <path
             inkscape:connector-curvature="0"
             d="m 0,0 c -0.172,0 -0.245,-0.186 -0.245,-0.778 l 0.504,0 C 0.259,-0.172 0.173,0 0,0 m -0.245,-1.309 c 0.014,-0.576 0.086,-0.72 0.274,-0.72 0.115,0 0.201,0.085 0.287,0.388 l 0.332,-0.474 c -0.1,-0.274 -0.303,-0.448 -0.547,-0.448 -0.662,0 -0.849,0.606 -0.849,1.541 0,0.951 0.171,1.584 0.763,1.584 0.748,0 0.735,-1.31 0.719,-1.871 l -0.979,0 z"
             style="fill:#231f20;fill-opacity:1;fill-rule:nonzero;stroke:none"
             id="path13800" />
        </g>
        <g
           id="g13802"
           transform="translate(554.3577,145.211)">
          <path
             inkscape:connector-curvature="0"
             d="m 0,0 c 0,0.145 -0.013,0.375 -0.201,0.375 -0.215,0 -0.258,-0.23 -0.258,-0.994 0,-0.675 0.014,-1.037 0.258,-1.037 C 0,-1.656 0,-1.337 0,-1.179 L 0,0 z m 0.016,-2.144 0,0.115 c -0.086,-0.131 -0.174,-0.187 -0.317,-0.187 -0.533,0 -0.691,0.748 -0.691,1.597 0,0.375 0.027,1.887 0.992,1.455 l 0,0.877 0.52,0.319 0,-4.176 -0.504,0 z"
             style="fill:#231f20;fill-opacity:1;fill-rule:nonzero;stroke:none"
             id="path13804" />
        </g>
        <path
           inkscape:connector-curvature="0"
           d="m 535.532,153.891 22.939,0 0,-0.584 -22.939,0 0,0.584 z"
           style="fill:#231f20;fill-opacity:1;fill-rule:evenodd;stroke:none"
           id="path13806" />
        <path
           inkscape:connector-curvature="0"
           d="m 535.532,141.788 22.939,0 0,-0.584 -22.939,0 0,0.584 z"
           style="fill:#231f20;fill-opacity:1;fill-rule:evenodd;stroke:none"
           id="path13808" />
        <g
           id="g13810"
           transform="translate(535.7287,118.834)">
          <path
             inkscape:connector-curvature="0"
             d="m 0,0 c -0.043,0.448 -0.129,0.592 -0.345,0.592 l -0.33,0 0,-3.039 0.33,0 c 0.187,0 0.289,0.129 0.345,0.432 0.016,0.144 0.043,0.605 0.043,0.965 C 0.043,-0.748 0.016,-0.287 0,0 M 0.201,-2.777 C 0.086,-2.908 -0.115,-2.98 -0.345,-2.98 l -0.85,0 0,4.104 0.85,0 c 0.289,0 0.49,-0.1 0.619,-0.301 0.101,-0.16 0.187,-0.434 0.217,-0.692 0.056,-0.332 0.085,-0.705 0.085,-1.05 0,-0.965 -0.128,-1.584 -0.375,-1.858"
             style="fill:#231f20;fill-opacity:1;fill-rule:nonzero;stroke:none"
             id="path13812" />
        </g>
        <g
           id="g13814"
           transform="translate(537.9027,119.483)">
          <path
             inkscape:connector-curvature="0"
             d="m 0,0 c -0.474,0 -0.416,-1.281 -0.416,-1.568 0,-0.276 -0.058,-1.6 0.416,-1.6 0.461,0 0.404,1.324 0.404,1.6 C 0.404,-1.238 0.389,0 0,0 m 0,-3.699 c -1.021,0 -0.949,1.453 -0.949,2.131 0,0.705 -0.059,2.101 0.949,2.101 1.008,0 0.951,-1.412 0.951,-2.101 0,-0.678 0.057,-2.131 -0.951,-2.131"
             style="fill:#231f20;fill-opacity:1;fill-rule:nonzero;stroke:none"
             id="path13816" />
        </g>
        <g
           id="g13818"
           transform="translate(540.9417,115.854)">
          <path
             inkscape:connector-curvature="0"
             d="m 0,0 -0.806,2.434 0,-2.434 -0.52,0 0,4.104 0.52,0 0.734,-2.043 0,2.043 0.517,0 L 0.445,0 0,0 z"
             style="fill:#231f20;fill-opacity:1;fill-rule:nonzero;stroke:none"
             id="path13820" />
        </g>
        <g
           id="g13822"
           transform="translate(542.4377,118.9651)">
          <path
             inkscape:connector-curvature="0"
             d="m 0,0 -0.158,0.129 c 0.102,0.086 0.201,0.231 0.231,0.332 l -0.043,0 c -0.188,0 -0.303,0.116 -0.303,0.301 0,0.174 0.131,0.303 0.303,0.303 0.187,0 0.316,-0.129 0.316,-0.346 C 0.346,0.461 0.217,0.188 0,0"
             style="fill:#231f20;fill-opacity:1;fill-rule:nonzero;stroke:none"
             id="path13824" />
        </g>
        <g
           id="g13826"
           transform="translate(544.2527,119.4261)">
          <path
             inkscape:connector-curvature="0"
             d="m 0,0 0,-3.572 -0.518,0 0,3.572 -0.504,0 0,0.532 1.555,0 L 0.533,0 0,0 z"
             style="fill:#231f20;fill-opacity:1;fill-rule:nonzero;stroke:none"
             id="path13828" />
        </g>
        <g
           id="g13830"
           transform="translate(548.9907,116.272)">
          <path
             inkscape:connector-curvature="0"
             d="m 0,0 c -0.072,-0.303 -0.361,-0.488 -0.721,-0.488 -0.418,0 -0.675,0.172 -0.806,0.547 -0.116,0.345 -0.172,0.906 -0.172,1.568 0,0.375 0.043,0.922 0.099,1.238 0.116,0.633 0.362,0.879 0.85,0.879 0.461,0 0.764,-0.289 0.807,-0.793 l -0.534,0 c -0.013,0.174 -0.115,0.26 -0.257,0.26 -0.188,0 -0.289,-0.129 -0.346,-0.402 -0.072,-0.332 -0.088,-0.635 -0.088,-1.182 0,-0.576 0.016,-0.82 0.088,-1.166 0.057,-0.274 0.158,-0.418 0.33,-0.418 0.188,0 0.273,0.144 0.273,0.504 l 0.534,0 C 0.057,0.23 0.043,0.145 0,0"
             style="fill:#231f20;fill-opacity:1;fill-rule:nonzero;stroke:none"
             id="path13832" />
        </g>
        <g
           id="g13834"
           transform="translate(550.2857,119.4261)">
          <path
             inkscape:connector-curvature="0"
             d="m 0,0 -0.258,0 0,-1.123 0.346,0 c 0.287,0 0.373,0.129 0.373,0.518 C 0.461,-0.144 0.361,0 0,0 m 0.562,-1.527 0.418,-2.045 -0.533,0 -0.461,1.916 -0.244,0 0,-1.916 -0.519,0 0,4.104 0.806,0 c 0.633,0 0.965,-0.389 0.965,-1.151 0,-0.461 -0.129,-0.721 -0.432,-0.908"
             style="fill:#231f20;fill-opacity:1;fill-rule:nonzero;stroke:none"
             id="path13836" />
        </g>
        <g
           id="g13838"
           transform="translate(552.7617,119.483)">
          <path
             inkscape:connector-curvature="0"
             d="m 0,0 c -0.474,0 -0.416,-1.281 -0.416,-1.568 0,-0.276 -0.058,-1.6 0.416,-1.6 0.461,0 0.405,1.324 0.405,1.6 C 0.405,-1.238 0.389,0 0,0 m 0,-3.699 c -1.021,0 -0.949,1.453 -0.949,2.131 0,0.705 -0.058,2.101 0.949,2.101 1.008,0 0.952,-1.412 0.952,-2.101 0,-0.678 0.056,-2.131 -0.952,-2.131"
             style="fill:#231f20;fill-opacity:1;fill-rule:nonzero;stroke:none"
             id="path13840" />
        </g>
        <g
           id="g13842"
           transform="translate(555.6707,115.9691)">
          <path
             inkscape:connector-curvature="0"
             d="m 0,0 c -0.129,-0.115 -0.317,-0.185 -0.532,-0.185 -0.576,0 -0.878,0.373 -0.908,1.093 l 0.533,0 c 0,-0.158 0.014,-0.216 0.043,-0.302 0.043,-0.158 0.174,-0.26 0.332,-0.26 0.202,0 0.331,0.158 0.331,0.418 0,0.359 -0.129,0.662 -0.446,1.037 -0.187,0.215 -0.316,0.373 -0.361,0.432 -0.231,0.273 -0.33,0.562 -0.33,0.849 0,0.561 0.346,0.965 0.834,0.965 0.504,0 0.779,-0.316 0.836,-0.965 l -0.533,0 c -0.014,0.317 -0.1,0.446 -0.288,0.446 -0.201,0 -0.316,-0.172 -0.316,-0.446 0,-0.187 0.07,-0.332 0.287,-0.562 C -0.071,2.016 0,1.916 0.131,1.656 0.246,1.397 0.332,1.053 0.332,0.764 0.332,0.477 0.203,0.174 0,0"
             style="fill:#231f20;fill-opacity:1;fill-rule:nonzero;stroke:none"
             id="path13844" />
        </g>
        <g
           id="g13846"
           transform="translate(557.8447,115.9691)">
          <path
             inkscape:connector-curvature="0"
             d="m 0,0 c -0.129,-0.115 -0.317,-0.185 -0.532,-0.185 -0.576,0 -0.879,0.373 -0.908,1.093 l 0.533,0 c 0,-0.158 0.014,-0.216 0.043,-0.302 0.043,-0.158 0.174,-0.26 0.332,-0.26 0.201,0 0.33,0.158 0.33,0.418 0,0.359 -0.129,0.662 -0.445,1.037 -0.187,0.215 -0.316,0.373 -0.361,0.432 -0.231,0.273 -0.33,0.562 -0.33,0.849 0,0.561 0.345,0.965 0.834,0.965 0.504,0 0.779,-0.316 0.836,-0.965 l -0.534,0 c -0.013,0.317 -0.099,0.446 -0.287,0.446 -0.201,0 -0.316,-0.172 -0.316,-0.446 0,-0.187 0.072,-0.332 0.287,-0.562 C -0.071,2.016 0,1.916 0.13,1.656 0.246,1.397 0.332,1.053 0.332,0.764 0.332,0.477 0.203,0.174 0,0"
             style="fill:#231f20;fill-opacity:1;fill-rule:nonzero;stroke:none"
             id="path13848" />
        </g>
        <g
           id="g13850"
           transform="translate(519.2467,123.192)">
          <path
             inkscape:connector-curvature="0"
             d="m 0,0 c 0,-0.123 -0.035,-0.227 -0.104,-0.309 -0.08,-0.093 -0.193,-0.142 -0.343,-0.142 -0.186,0 -0.313,0.088 -0.381,0.265 -0.03,0.075 -0.045,0.162 -0.049,0.266 l 0.264,0 c 0.007,-0.178 0.064,-0.266 0.166,-0.266 0.121,0 0.181,0.063 0.181,0.186 0,0.166 -0.051,0.314 -0.152,0.447 -0.092,0.106 -0.184,0.213 -0.277,0.319 -0.1,0.13 -0.151,0.281 -0.151,0.449 0,0.084 0.031,0.168 0.094,0.25 0.08,0.109 0.189,0.164 0.326,0.166 0.178,0.002 0.301,-0.078 0.373,-0.235 C -0.024,1.33 -0.006,1.252 0,1.16 l -0.266,0 c -0.01,0.137 -0.062,0.205 -0.16,0.205 -0.043,0 -0.08,-0.015 -0.109,-0.045 C -0.567,1.289 -0.58,1.254 -0.58,1.213 -0.58,1.096 -0.529,0.978 -0.43,0.863 -0.246,0.65 -0.154,0.543 -0.151,0.539 -0.051,0.387 0,0.207 0,0"
             style="fill:#231f20;fill-opacity:1;fill-rule:nonzero;stroke:none"
             id="path13852" />
        </g>
        <g
           id="g13854"
           transform="translate(520.1857,124.536)">
          <path
             inkscape:connector-curvature="0"
             d="m 0,0 -0.256,0 0,-1.774 -0.265,0 0,1.774 -0.254,0 0,0.265 L 0,0.265 0,0 z"
             style="fill:#231f20;fill-opacity:1;fill-rule:nonzero;stroke:none"
             id="path13856" />
        </g>
        <g
           id="g13858"
           transform="translate(521.2467,122.7621)">
          <path
             inkscape:connector-curvature="0"
             d="m 0,0 -0.776,0 0,2.039 0.776,0 0,-0.265 -0.51,0 0,-0.551 0.326,0 0,-0.248 -0.326,0 0,-0.709 0.51,0 L 0,0 z"
             style="fill:#231f20;fill-opacity:1;fill-rule:nonzero;stroke:none"
             id="path13860" />
        </g>
        <g
           id="g13862"
           transform="translate(522.0787,123.536)">
          <path
             inkscape:connector-curvature="0"
             d="M 0,0 -0.119,0.578 -0.238,0 0,0 z m 0.432,-0.774 -0.274,0 -0.103,0.508 -0.348,0 -0.106,-0.508 -0.271,0 0.418,2.039 0.266,0 0.418,-2.039 z"
             style="fill:#231f20;fill-opacity:1;fill-rule:nonzero;stroke:none"
             id="path13864" />
        </g>
        <g
           id="g13866"
           transform="translate(523.4107,123.782)">
          <path
             inkscape:connector-curvature="0"
             d="m 0,0 c 0,0.338 -0.031,0.562 -0.092,0.676 -0.031,0.052 -0.076,0.078 -0.137,0.078 l -0.119,0 0,-1.508 0.119,0 c 0.063,0 0.108,0.025 0.137,0.076 C -0.031,-0.569 0,-0.342 0,0 m 0.266,0 c 0,-0.444 -0.061,-0.742 -0.18,-0.895 C 0.019,-0.979 -0.082,-1.02 -0.215,-1.02 l -0.398,0 0,2.039 0.398,0 c 0.133,0 0.233,-0.043 0.299,-0.131 C 0.205,0.736 0.266,0.439 0.266,0"
             style="fill:#231f20;fill-opacity:1;fill-rule:nonzero;stroke:none"
             id="path13868" />
        </g>
        <g
           id="g13870"
           transform="translate(525.0007,124.8011)">
          <path
             inkscape:connector-curvature="0"
             d="m 0,0 -0.418,-1.08 0,-0.959 -0.266,0 0,0.959 L -1.102,0 -0.819,0 -0.551,-0.687 -0.283,0 0,0 z"
             style="fill:#231f20;fill-opacity:1;fill-rule:nonzero;stroke:none"
             id="path13872" />
        </g>
        <g
           id="g13874"
           transform="translate(517.3887,142.6451)">
          <path
             inkscape:connector-curvature="0"
             d="m 0,0 0,2.041 0.778,0 0,-0.266 -0.512,0 0,-0.55 0.307,0 0,-0.266 -0.307,0 L 0.266,0 0,0 z"
             style="fill:#231f20;fill-opacity:1;fill-rule:nonzero;stroke:none"
             id="path13876" />
        </g>
        <g
           id="g13878"
           transform="translate(519.2267,142.6451)">
          <path
             inkscape:connector-curvature="0"
             d="m 0,0 -0.775,0 0,2.041 0.266,0 0,-1.775 L 0,0.266 0,0 z"
             style="fill:#231f20;fill-opacity:1;fill-rule:nonzero;stroke:none"
             id="path13880" />
        </g>
        <g
           id="g13882"
           transform="translate(520.0177,143.42)">
          <path
             inkscape:connector-curvature="0"
             d="M 0,0 -0.119,0.579 -0.24,0 0,0 z m 0.432,-0.775 -0.273,0 -0.104,0.51 -0.348,0 -0.105,-0.51 -0.272,0 0.418,2.041 0.266,0 0.418,-2.041 z"
             style="fill:#231f20;fill-opacity:1;fill-rule:nonzero;stroke:none"
             id="path13884" />
        </g>
        <g
           id="g13886"
           transform="translate(521.4907,143.0771)">
          <path
             inkscape:connector-curvature="0"
             d="m 0,0 c 0,-0.125 -0.033,-0.227 -0.104,-0.309 -0.078,-0.096 -0.193,-0.143 -0.343,-0.143 -0.184,0 -0.313,0.088 -0.381,0.266 -0.029,0.072 -0.045,0.162 -0.049,0.266 l 0.266,0 c 0.007,-0.178 0.062,-0.266 0.164,-0.266 0.121,0 0.181,0.063 0.181,0.186 0,0.166 -0.05,0.314 -0.15,0.447 -0.094,0.105 -0.186,0.211 -0.279,0.318 -0.1,0.131 -0.151,0.282 -0.151,0.448 0,0.085 0.032,0.168 0.094,0.252 0.08,0.109 0.19,0.164 0.328,0.166 0.176,0 0.301,-0.079 0.371,-0.237 C -0.023,1.33 -0.004,1.252 0,1.16 l -0.266,0 C -0.275,1.297 -0.328,1.363 -0.424,1.363 -0.469,1.363 -0.506,1.349 -0.535,1.32 -0.564,1.289 -0.58,1.254 -0.58,1.213 -0.58,1.095 -0.529,0.978 -0.428,0.863 -0.246,0.65 -0.154,0.543 -0.15,0.537 -0.051,0.384 0,0.207 0,0"
             style="fill:#231f20;fill-opacity:1;fill-rule:nonzero;stroke:none"
             id="path13888" />
        </g>
        <g
           id="g13890"
           transform="translate(522.6957,142.6451)">
          <path
             inkscape:connector-curvature="0"
             d="m 0,0 -0.266,0 0,0.959 -0.345,0 0,-0.959 -0.266,0 0,2.041 0.266,0 0,-0.816 0.345,0 0,0.816 L 0,2.041 0,0 z"
             style="fill:#231f20;fill-opacity:1;fill-rule:nonzero;stroke:none"
             id="path13892" />
        </g>
        <path
           inkscape:connector-curvature="0"
           d="m 523.411,142.645 -0.266,0 0,2.041 0.266,0 0,-2.041 z"
           style="fill:#231f20;fill-opacity:1;fill-rule:nonzero;stroke:none"
           id="path13894" />
        <g
           id="g13896"
           transform="translate(524.7367,142.6451)">
          <path
             inkscape:connector-curvature="0"
             d="m 0,0 -0.244,0 -0.367,1.17 0,-1.17 -0.266,0 0,2.041 0.264,0 0.347,-1.098 0,1.098 L 0,2.041 0,0 z"
             style="fill:#231f20;fill-opacity:1;fill-rule:nonzero;stroke:none"
             id="path13898" />
        </g>
        <g
           id="g13900"
           transform="translate(525.5947,144.4401)">
          <path
             inkscape:connector-curvature="0"
             d="m 0,0 c -0.081,0 -0.137,-0.07 -0.168,-0.213 -0.026,-0.115 -0.038,-0.303 -0.038,-0.56 0,-0.213 0.006,-0.366 0.02,-0.458 0.027,-0.212 0.09,-0.318 0.186,-0.318 0.093,0 0.142,0.082 0.142,0.248 l 0,0.199 -0.142,0 0,0.266 0.408,0 0,-0.465 C 0.408,-1.445 0.378,-1.565 0.32,-1.654 0.248,-1.762 0.142,-1.815 0,-1.815 c -0.19,0 -0.321,0.106 -0.393,0.319 -0.053,0.154 -0.078,0.394 -0.078,0.723 0,0.341 0.029,0.593 0.09,0.751 0.072,0.192 0.199,0.29 0.381,0.29 0.24,0 0.376,-0.133 0.408,-0.395 l -0.266,0 C 0.109,-0.041 0.062,0 0,0"
             style="fill:#231f20;fill-opacity:1;fill-rule:nonzero;stroke:none"
             id="path13902" />
        </g>
        <g
           id="g13904"
           transform="translate(533.0947,139.0551)">
          <path
             inkscape:connector-curvature="0"
             d="m 0,0 -0.545,0 0,-3.803 -0.569,0 0,3.803 -0.545,0 0,0.569 L 0,0.569 0,0 z"
             style="fill:#231f20;fill-opacity:1;fill-rule:nonzero;stroke:none"
             id="path13906" />
        </g>
        <path
           inkscape:connector-curvature="0"
           d="m 534.214,135.252 -0.571,0 0,4.372 0.571,0 0,-4.372 z"
           style="fill:#231f20;fill-opacity:1;fill-rule:nonzero;stroke:none"
           id="path13908" />
        <g
           id="g13910"
           transform="translate(537.2527,135.252)">
          <path
             inkscape:connector-curvature="0"
             d="m 0,0 -0.569,0 0,2.536 -0.504,-1.575 -0.501,1.575 0,-2.536 -0.571,0 0,4.372 0.569,0 0.503,-1.618 0.543,1.618 0.53,0 L 0,0 z"
             style="fill:#231f20;fill-opacity:1;fill-rule:nonzero;stroke:none"
             id="path13912" />
        </g>
        <g
           id="g13914"
           transform="translate(539.8087,135.252)">
          <path
             inkscape:connector-curvature="0"
             d="m 0,0 -1.662,0 0,4.372 1.662,0 0,-0.569 -1.091,0 0,-1.178 0.697,0 0,-0.531 -0.697,0 0,-1.525 L 0,0.569 0,0 z"
             style="fill:#231f20;fill-opacity:1;fill-rule:nonzero;stroke:none"
             id="path13916" />
        </g>
        <g
           id="g13918"
           transform="translate(543.2387,138.444)">
          <path
             inkscape:connector-curvature="0"
             d="m 0,0 c 0,0.406 -0.125,0.611 -0.375,0.611 l -0.365,0 0,-1.178 0.353,0 C -0.129,-0.567 0,-0.377 0,0 m 0.57,-3.192 -0.582,0 -0.453,2.055 -0.275,0 0,-2.055 -0.569,0 0,4.372 0.788,0 c 0.246,0 0.457,-0.053 0.628,-0.159 C 0.416,0.83 0.57,0.488 0.57,0 0.57,-0.504 0.41,-0.842 0.09,-1.01 l 0.48,-2.182 z"
             style="fill:#231f20;fill-opacity:1;fill-rule:nonzero;stroke:none"
             id="path13920" />
        </g>
        <g
           id="g13922"
           transform="translate(546.1057,135.252)">
          <path
             inkscape:connector-curvature="0"
             d="m 0,0 -1.662,0 0,4.372 1.662,0 0,-0.569 -1.092,0 0,-1.178 0.698,0 0,-0.531 -0.698,0 0,-1.525 L 0,0.569 0,0 z"
             style="fill:#231f20;fill-opacity:1;fill-rule:nonzero;stroke:none"
             id="path13924" />
        </g>
        <g
           id="g13926"
           transform="translate(548.8857,135.252)">
          <path
             inkscape:connector-curvature="0"
             d="m 0,0 -0.571,0 0,2.536 -0.502,-1.575 -0.504,1.575 0,-2.536 -0.568,0 0,4.372 0.568,0 0.504,-1.618 0.541,1.618 L 0,4.372 0,0 z"
             style="fill:#231f20;fill-opacity:1;fill-rule:nonzero;stroke:none"
             id="path13928" />
        </g>
        <g
           id="g13930"
           transform="translate(550.8657,136.917)">
          <path
             inkscape:connector-curvature="0"
             d="M 0,0 -0.254,1.234 -0.512,0 0,0 z m 0.928,-1.665 -0.588,0 -0.223,1.094 -0.742,0 -0.229,-1.094 -0.582,0 0.897,4.372 0.568,0 0.899,-4.372 z"
             style="fill:#231f20;fill-opacity:1;fill-rule:nonzero;stroke:none"
             id="path13932" />
        </g>
        <path
           inkscape:connector-curvature="0"
           d="m 552.907,135.252 -0.57,0 0,4.372 0.57,0 0,-4.372 z"
           style="fill:#231f20;fill-opacity:1;fill-rule:nonzero;stroke:none"
           id="path13934" />
        <g
           id="g13936"
           transform="translate(555.6797,135.252)">
          <path
             inkscape:connector-curvature="0"
             d="m 0,0 -0.523,0 -0.785,2.506 0,-2.506 -0.57,0 0,4.372 0.568,0 0.742,-2.352 0,2.352 L 0,4.372 0,0 z"
             style="fill:#231f20;fill-opacity:1;fill-rule:nonzero;stroke:none"
             id="path13938" />
        </g>
        <path
           inkscape:connector-curvature="0"
           d="m 557.149,135.252 -0.57,0 0,4.372 0.57,0 0,-4.372 z"
           style="fill:#231f20;fill-opacity:1;fill-rule:nonzero;stroke:none"
           id="path13940" />
        <g
           id="g13942"
           transform="translate(559.9227,135.252)">
          <path
             inkscape:connector-curvature="0"
             d="m 0,0 -0.524,0 -0.785,2.506 0,-2.506 -0.57,0 0,4.372 0.568,0 0.742,-2.352 0,2.352 L 0,4.372 0,0 z"
             style="fill:#231f20;fill-opacity:1;fill-rule:nonzero;stroke:none"
             id="path13944" />
        </g>
        <g
           id="g13946"
           transform="translate(561.6937,139.0981)">
          <path
             inkscape:connector-curvature="0"
             d="m 0,0 c -0.172,0 -0.291,-0.152 -0.357,-0.459 -0.053,-0.248 -0.08,-0.648 -0.08,-1.201 0,-0.455 0.013,-0.781 0.039,-0.979 0.062,-0.455 0.193,-0.681 0.396,-0.681 0.203,0 0.305,0.178 0.305,0.533 l 0,0.428 -0.303,0 0,0.568 0.873,0 0,-0.996 c 0,-0.312 -0.062,-0.564 -0.187,-0.758 -0.153,-0.23 -0.381,-0.345 -0.688,-0.345 -0.404,0 -0.683,0.226 -0.838,0.681 -0.111,0.33 -0.166,0.846 -0.166,1.549 0,0.734 0.065,1.271 0.192,1.613 0.154,0.412 0.425,0.617 0.812,0.617 0.516,0 0.809,-0.281 0.875,-0.843 l -0.568,0 C 0.236,-0.092 0.133,0 0,0"
             style="fill:#231f20;fill-opacity:1;fill-rule:nonzero;stroke:none"
             id="path13948" />
        </g>
        <g
           id="g13950"
           transform="translate(532.4707,133.377)">
          <path
             inkscape:connector-curvature="0"
             d="m 0,0 -0.544,0 0,-3.802 -0.571,0 0,3.802 -0.543,0 0,0.569 L 0,0.569 0,0 z"
             style="fill:#231f20;fill-opacity:1;fill-rule:nonzero;stroke:none"
             id="path13952" />
        </g>
        <g
           id="g13954"
           transform="translate(533.8036,131.2111)">
          <path
             inkscape:connector-curvature="0"
             d="m 0,0 c 0,0.373 -0.006,0.604 -0.018,0.696 -0.029,0.22 -0.104,0.33 -0.223,0.33 -0.107,0 -0.179,-0.108 -0.215,-0.322 C -0.473,0.579 -0.481,0.344 -0.481,0 c 0,-0.74 0.08,-1.111 0.24,-1.111 0.117,0 0.19,0.127 0.219,0.383 C -0.008,-0.615 0,-0.371 0,0 m 0.57,0 c 0,-0.517 -0.047,-0.904 -0.141,-1.162 -0.125,-0.345 -0.349,-0.519 -0.67,-0.519 -0.318,0 -0.539,0.174 -0.666,0.519 -0.095,0.258 -0.142,0.645 -0.142,1.162 0,0.493 0.047,0.862 0.142,1.106 0.127,0.328 0.348,0.49 0.666,0.49 0.319,0 0.541,-0.162 0.666,-0.49 C 0.521,0.862 0.57,0.493 0.57,0"
             style="fill:#231f20;fill-opacity:1;fill-rule:nonzero;stroke:none"
             id="path13956" />
        </g>
        <g
           id="g13958"
           transform="translate(536.8677,129.575)">
          <path
             inkscape:connector-curvature="0"
             d="m 0,0 0,4.371 1.662,0 0,-0.569 -1.094,0 0,-1.177 0.659,0 0,-0.569 -0.659,0 L 0.568,0 0,0 z"
             style="fill:#231f20;fill-opacity:1;fill-rule:nonzero;stroke:none"
             id="path13960" />
        </g>
        <path
           inkscape:connector-curvature="0"
           d="m 539.512,129.575 -0.57,0 0,3.191 0.57,0 0,-3.191 z m -0.283,4.371 c 0.078,0 0.147,-0.028 0.201,-0.084 0.055,-0.055 0.082,-0.121 0.082,-0.201 0,-0.078 -0.027,-0.145 -0.082,-0.202 -0.054,-0.054 -0.123,-0.082 -0.201,-0.082 -0.078,0 -0.144,0.028 -0.201,0.082 -0.057,0.057 -0.086,0.124 -0.086,0.202 0,0.082 0.029,0.15 0.084,0.205 0.055,0.052 0.123,0.08 0.203,0.08"
           style="fill:#231f20;fill-opacity:1;fill-rule:nonzero;stroke:none"
           id="path13962" />
        <g
           id="g13964"
           transform="translate(541.7207,129.575)">
          <path
             inkscape:connector-curvature="0"
             d="m 0,0 -0.57,0 0,2.414 c 0,0.195 -0.072,0.293 -0.219,0.293 -0.144,0 -0.216,-0.098 -0.216,-0.293 l 0,-2.414 -0.571,0 0,3.191 0.571,0 0,-0.109 c 0.097,0.099 0.22,0.15 0.367,0.15 0.183,0 0.334,-0.072 0.449,-0.215 C -0.062,2.861 0,2.646 0,2.371 L 0,0 z"
             style="fill:#231f20;fill-opacity:1;fill-rule:nonzero;stroke:none"
             id="path13966" />
        </g>
        <path
           inkscape:connector-curvature="0"
           d="m 542.88,129.575 -0.571,0 0,3.191 0.571,0 0,-3.191 z m -0.284,4.371 c 0.079,0 0.145,-0.028 0.202,-0.084 0.054,-0.055 0.082,-0.121 0.082,-0.201 0,-0.078 -0.028,-0.145 -0.082,-0.202 -0.057,-0.054 -0.123,-0.082 -0.202,-0.082 -0.078,0 -0.144,0.028 -0.201,0.082 -0.056,0.057 -0.086,0.124 -0.086,0.202 0,0.082 0.03,0.15 0.084,0.205 0.055,0.052 0.123,0.08 0.203,0.08"
           style="fill:#231f20;fill-opacity:1;fill-rule:nonzero;stroke:none"
           id="path13968" />
        <g
           id="g13970"
           transform="translate(544.7407,130.463)">
          <path
             inkscape:connector-curvature="0"
             d="m 0,0 c 0,-0.265 -0.072,-0.484 -0.215,-0.652 -0.156,-0.187 -0.375,-0.281 -0.652,-0.281 -0.238,0 -0.432,0.121 -0.576,0.363 l 0.166,0.625 c 0.162,-0.279 0.304,-0.418 0.429,-0.418 0.186,0 0.278,0.121 0.278,0.363 0,0.155 -0.076,0.311 -0.227,0.467 -0.14,0.141 -0.279,0.283 -0.42,0.426 -0.15,0.189 -0.226,0.404 -0.226,0.646 0,0.209 0.054,0.391 0.162,0.549 0.127,0.184 0.297,0.276 0.51,0.276 0.285,0 0.511,-0.137 0.677,-0.409 L -0.295,1.381 c -0.139,0.297 -0.271,0.444 -0.402,0.444 -0.127,0 -0.19,-0.084 -0.19,-0.254 0,-0.133 0.076,-0.28 0.229,-0.438 C -0.393,0.86 -0.25,0.709 -0.229,0.682 -0.076,0.479 0,0.25 0,0"
             style="fill:#231f20;fill-opacity:1;fill-rule:nonzero;stroke:none"
             id="path13972" />
        </g>
        <g
           id="g13974"
           transform="translate(546.6837,129.575)">
          <path
             inkscape:connector-curvature="0"
             d="m 0,0 -0.57,0 0,2.414 c 0,0.195 -0.072,0.293 -0.217,0.293 -0.146,0 -0.218,-0.098 -0.218,-0.293 l 0,-2.414 -0.571,0 0,4.078 0.571,0.338 0,-1.334 c 0.099,0.099 0.22,0.15 0.367,0.15 0.183,0 0.334,-0.072 0.451,-0.215 C -0.062,2.861 0,2.646 0,2.371 L 0,0 z"
             style="fill:#231f20;fill-opacity:1;fill-rule:nonzero;stroke:none"
             id="path13976" />
        </g>
        <g
           id="g13978"
           transform="translate(551.0117,130.633)">
          <path
             inkscape:connector-curvature="0"
             d="m 0,0 c -0.005,-0.213 -0.037,-0.398 -0.095,-0.552 -0.145,-0.368 -0.403,-0.551 -0.78,-0.551 -0.433,0 -0.724,0.24 -0.869,0.722 -0.091,0.299 -0.136,0.803 -0.136,1.508 0,0.723 0.058,1.248 0.175,1.578 0.155,0.436 0.432,0.653 0.83,0.653 0.301,0 0.534,-0.123 0.7,-0.369 C -0.058,2.821 0,2.662 0,2.516 l -0.572,0 c -0.078,0.182 -0.179,0.271 -0.303,0.271 -0.291,0 -0.435,-0.552 -0.435,-1.66 0,-0.558 0.021,-0.953 0.064,-1.179 0.065,-0.321 0.19,-0.481 0.371,-0.481 0.19,0 0.293,0.178 0.307,0.533 L 0,0 z"
             style="fill:#231f20;fill-opacity:1;fill-rule:nonzero;stroke:none"
             id="path13980" />
        </g>
        <g
           id="g13982"
           transform="translate(552.6917,132.067)">
          <path
             inkscape:connector-curvature="0"
             d="m 0,0 c -0.029,0.043 -0.058,0.088 -0.088,0.133 -0.047,0.054 -0.105,0.082 -0.174,0.082 -0.142,0 -0.214,-0.162 -0.214,-0.489 l 0,-2.218 -0.569,0 0,3.191 0.569,0 0,-0.109 c 0.064,0.099 0.156,0.15 0.275,0.15 0.1,0 0.197,-0.043 0.293,-0.131 L 0,0 z"
             style="fill:#231f20;fill-opacity:1;fill-rule:nonzero;stroke:none"
             id="path13984" />
        </g>
        <g
           id="g13986"
           transform="translate(554.0727,131.2111)">
          <path
             inkscape:connector-curvature="0"
             d="m 0,0 c 0,0.373 -0.006,0.604 -0.018,0.696 -0.029,0.22 -0.103,0.33 -0.222,0.33 -0.11,0 -0.18,-0.108 -0.215,-0.322 C -0.473,0.579 -0.482,0.344 -0.482,0 c 0,-0.74 0.08,-1.111 0.242,-1.111 0.115,0 0.189,0.127 0.219,0.383 C -0.008,-0.615 0,-0.371 0,0 m 0.568,0 c 0,-0.517 -0.046,-0.904 -0.138,-1.162 -0.127,-0.345 -0.35,-0.519 -0.67,-0.519 -0.319,0 -0.541,0.174 -0.666,0.519 -0.096,0.258 -0.145,0.645 -0.145,1.162 0,0.493 0.049,0.862 0.145,1.106 0.125,0.328 0.347,0.49 0.666,0.49 0.316,0 0.539,-0.162 0.664,-0.49 C 0.522,0.862 0.568,0.493 0.568,0"
             style="fill:#231f20;fill-opacity:1;fill-rule:nonzero;stroke:none"
             id="path13988" />
        </g>
        <g
           id="g13990"
           transform="translate(556.3717,130.463)">
          <path
             inkscape:connector-curvature="0"
             d="m 0,0 c 0,-0.265 -0.07,-0.484 -0.213,-0.652 -0.158,-0.187 -0.375,-0.281 -0.654,-0.281 -0.239,0 -0.43,0.121 -0.575,0.363 l 0.165,0.625 c 0.162,-0.279 0.304,-0.418 0.429,-0.418 0.186,0 0.28,0.121 0.28,0.363 0,0.155 -0.077,0.311 -0.229,0.467 -0.139,0.141 -0.279,0.283 -0.418,0.426 -0.152,0.189 -0.227,0.404 -0.227,0.646 0,0.209 0.053,0.391 0.161,0.549 0.129,0.184 0.298,0.276 0.511,0.276 0.285,0 0.51,-0.137 0.676,-0.409 L -0.295,1.381 c -0.137,0.297 -0.272,0.444 -0.402,0.444 -0.125,0 -0.188,-0.084 -0.188,-0.254 0,-0.133 0.076,-0.28 0.227,-0.438 C -0.393,0.86 -0.248,0.709 -0.229,0.682 -0.076,0.479 0,0.25 0,0"
             style="fill:#231f20;fill-opacity:1;fill-rule:nonzero;stroke:none"
             id="path13992" />
        </g>
        <g
           id="g13994"
           transform="translate(557.9677,130.463)">
          <path
             inkscape:connector-curvature="0"
             d="m 0,0 c 0,-0.265 -0.071,-0.484 -0.213,-0.652 -0.157,-0.187 -0.375,-0.281 -0.655,-0.281 -0.238,0 -0.429,0.121 -0.574,0.363 l 0.164,0.625 c 0.162,-0.279 0.307,-0.418 0.43,-0.418 0.185,0 0.279,0.121 0.279,0.363 0,0.155 -0.076,0.311 -0.226,0.467 -0.141,0.141 -0.282,0.283 -0.42,0.426 -0.153,0.189 -0.227,0.404 -0.227,0.646 0,0.209 0.053,0.391 0.16,0.549 0.129,0.184 0.299,0.276 0.512,0.276 0.285,0 0.512,-0.137 0.678,-0.409 L -0.293,1.381 c -0.139,0.297 -0.274,0.444 -0.405,0.444 -0.125,0 -0.187,-0.084 -0.187,-0.254 0,-0.133 0.076,-0.28 0.228,-0.438 C -0.391,0.86 -0.248,0.709 -0.227,0.682 -0.077,0.479 0,0.25 0,0"
             style="fill:#231f20;fill-opacity:1;fill-rule:nonzero;stroke:none"
             id="path13996" />
        </g>
        <path
           inkscape:connector-curvature="0"
           d="m 558.907,129.575 -0.57,0 0,3.191 0.57,0 0,-3.191 z m -0.283,4.371 c 0.078,0 0.144,-0.028 0.199,-0.084 0.055,-0.055 0.084,-0.121 0.084,-0.201 0,-0.078 -0.029,-0.145 -0.084,-0.202 -0.055,-0.054 -0.121,-0.082 -0.199,-0.082 -0.078,0 -0.147,0.028 -0.203,0.082 -0.057,0.057 -0.084,0.124 -0.084,0.202 0,0.082 0.027,0.15 0.082,0.205 0.056,0.052 0.123,0.08 0.205,0.08"
           style="fill:#231f20;fill-opacity:1;fill-rule:nonzero;stroke:none"
           id="path13998" />
        <g
           id="g14000"
           transform="translate(561.1136,129.575)">
          <path
             inkscape:connector-curvature="0"
             d="m 0,0 -0.568,0 0,2.414 c 0,0.195 -0.073,0.293 -0.219,0.293 -0.145,0 -0.219,-0.098 -0.219,-0.293 l 0,-2.414 -0.568,0 0,3.191 0.568,0 0,-0.109 c 0.1,0.099 0.223,0.15 0.367,0.15 0.184,0 0.334,-0.072 0.452,-0.215 C -0.062,2.861 0,2.646 0,2.371 L 0,0 z"
             style="fill:#231f20;fill-opacity:1;fill-rule:nonzero;stroke:none"
             id="path14002" />
        </g>
        <g
           id="g14004"
           transform="translate(562.1217,131.125)">
          <path
             inkscape:connector-curvature="0"
             d="m 0,0 c 0,-0.683 0.086,-1.025 0.256,-1.025 0.162,0 0.244,0.094 0.244,0.283 l 0,1.571 C 0.5,0.918 0.474,0.989 0.424,1.04 0.373,1.088 0.32,1.112 0.265,1.112 0.146,1.112 0.068,0.993 0.035,0.754 0.012,0.616 0,0.364 0,0 M 0.5,-1.498 C 0.371,-1.562 0.269,-1.595 0.195,-1.595 c -0.279,0 -0.48,0.189 -0.605,0.568 -0.09,0.272 -0.135,0.613 -0.135,1.027 0,1.122 0.246,1.682 0.74,1.682 0.156,0 0.258,-0.051 0.305,-0.15 l 0,0.109 0.568,0 0,-3.578 c 0,-0.6 -0.275,-0.996 -0.826,-1.189 l -0.213,0.5 C 0.342,-2.511 0.5,-2.277 0.5,-1.927 l 0,0.429 z"
             style="fill:#231f20;fill-opacity:1;fill-rule:nonzero;stroke:none"
             id="path14006" />
        </g>
        <path
           inkscape:connector-curvature="0"
           d="m 522.573,137.067 2.459,0 0,3.182 -2.459,0 0,-3.182 z m 0,-3.772 2.459,0 0,3.248 -2.459,0 0,-3.248 z m 0.131,7.512 2.197,0 c 0.395,0 0.721,-0.197 0.721,-0.426 l 0,-3.314 c 0,-0.131 -0.065,-0.229 -0.162,-0.293 0.097,-0.1 0.162,-0.197 0.162,-0.297 l 0,-3.312 c 0,-0.262 -0.326,-0.457 -0.721,-0.457 l -2.197,0 c -0.395,0 -0.723,0.195 -0.723,0.457 l 0,3.312 c 0,0.1 0.067,0.197 0.199,0.297 -0.132,0.064 -0.199,0.162 -0.199,0.293 l 0,3.314 c 0,0.229 0.328,0.426 0.723,0.426"
           style="fill:#f48412;fill-opacity:1;fill-rule:evenodd;stroke:none"
           id="path14008" />
        <g
           id="g14010"
           transform="translate(521.1197,136.958)">
          <path
             inkscape:connector-curvature="0"
             d="m 0,0 c 0,-0.1 -0.08,-0.182 -0.182,-0.182 l -0.236,0 C -0.52,-0.182 -0.6,-0.1 -0.6,0 l 0,3.669 c 0,0.1 0.08,0.182 0.182,0.182 l 0.236,0 C -0.08,3.851 0,3.769 0,3.669 L 0,0 z"
             style="fill:#f48412;fill-opacity:1;fill-rule:evenodd;stroke:none"
             id="path14012" />
        </g>
        <g
           id="g14014"
           transform="translate(521.1197,132.924)">
          <path
             inkscape:connector-curvature="0"
             d="m 0,0 c 0,-0.099 -0.08,-0.181 -0.182,-0.181 l -0.236,0 C -0.52,-0.181 -0.6,-0.099 -0.6,0 l 0,3.67 c 0,0.1 0.08,0.182 0.182,0.182 l 0.236,0 C -0.08,3.852 0,3.77 0,3.67 L 0,0 z"
             style="fill:#f48412;fill-opacity:1;fill-rule:evenodd;stroke:none"
             id="path14016" />
        </g>
        <g
           id="g14018"
           transform="translate(519.8947,130.633)">
          <path
             inkscape:connector-curvature="0"
             d="m 0,0 -0.254,0 0,-1.773 -0.265,0 0,1.773 -0.256,0 0,0.268 L 0,0.268 0,0 z"
             style="fill:#231f20;fill-opacity:1;fill-rule:nonzero;stroke:none"
             id="path14020" />
        </g>
        <path
           inkscape:connector-curvature="0"
           d="m 520.417,128.86 -0.266,0 0,2.041 0.266,0 0,-2.041 z"
           style="fill:#231f20;fill-opacity:1;fill-rule:nonzero;stroke:none"
           id="path14022" />
        <g
           id="g14024"
           transform="translate(521.8327,128.86)">
          <path
             inkscape:connector-curvature="0"
             d="m 0,0 -0.266,0 0,1.183 -0.232,-0.734 -0.235,0.734 0,-1.183 -0.265,0 0,2.041 0.263,0 0.237,-0.756 0.252,0.756 L 0,2.041 0,0 z"
             style="fill:#231f20;fill-opacity:1;fill-rule:nonzero;stroke:none"
             id="path14026" />
        </g>
        <g
           id="g14028"
           transform="translate(523.0277,128.86)">
          <path
             inkscape:connector-curvature="0"
             d="m 0,0 -0.775,0 0,2.041 0.775,0 0,-0.268 -0.51,0 0,-0.549 0.327,0 0,-0.248 -0.327,0 0,-0.711 0.51,0 L 0,0 z"
             style="fill:#231f20;fill-opacity:1;fill-rule:nonzero;stroke:none"
             id="path14030" />
        </g>
        <g
           id="g14032"
           transform="translate(523.9357,130.3481)">
          <path
             inkscape:connector-curvature="0"
             d="m 0,0 c 0,0.192 -0.058,0.285 -0.175,0.285 l -0.172,0 0,-0.549 0.166,0 C -0.06,-0.264 0,-0.176 0,0 m 0.266,-1.488 -0.272,0 -0.212,0.959 -0.129,0 0,-0.959 -0.266,0 0,2.041 0.367,0 c 0.117,0 0.215,-0.026 0.295,-0.074 C 0.194,0.389 0.266,0.229 0.266,0 0.266,-0.234 0.19,-0.39 0.041,-0.471 l 0.225,-1.017 z"
             style="fill:#231f20;fill-opacity:1;fill-rule:nonzero;stroke:none"
             id="path14034" />
        </g>
      </g>
    </g>
  </g>
</svg>
