<?xml version="1.0" encoding="UTF-8" standalone="no"?>
<!-- Created with Inkscape (http://www.inkscape.org/) -->

<svg
   xmlns:dc="http://purl.org/dc/elements/1.1/"
   xmlns:cc="http://creativecommons.org/ns#"
   xmlns:rdf="http://www.w3.org/1999/02/22-rdf-syntax-ns#"
   xmlns:svg="http://www.w3.org/2000/svg"
   xmlns="http://www.w3.org/2000/svg"
   xmlns:sodipodi="http://sodipodi.sourceforge.net/DTD/sodipodi-0.dtd"
   xmlns:inkscape="http://www.inkscape.org/namespaces/inkscape"
   width="136.5575"
   height="91.246246"
   id="svg9622"
   version="1.1"
   inkscape:version="0.48.1 "
   sodipodi:docname="New document 50">
  <defs
     id="defs9624">
    <clipPath
       clipPathUnits="userSpaceOnUse"
       id="clipPath9202">
      <path
         inkscape:connector-curvature="0"
         d="m 358.099,140.579 217.4,0 0,137.171 -217.4,0 0,-137.171 z"
         id="path9204" />
    </clipPath>
    <clipPath
       clipPathUnits="userSpaceOnUse"
       id="clipPath9190">
      <path
         inkscape:connector-curvature="0"
         d="m 364.099,146.578 205.402,0 0,125.171 -205.402,0 0,-125.171 z"
         id="path9192" />
    </clipPath>
    <clipPath
       clipPathUnits="userSpaceOnUse"
       id="clipPath9178">
      <path
         inkscape:connector-curvature="0"
         d="m 358.099,140.579 217.4,0 0,137.171 -217.4,0 0,-137.171 z"
         id="path9180" />
    </clipPath>
  </defs>
  <sodipodi:namedview
     id="base"
     pagecolor="#ffffff"
     bordercolor="#666666"
     borderopacity="1.0"
     inkscape:pageopacity="0.0"
     inkscape:pageshadow="2"
     inkscape:zoom="0.35"
     inkscape:cx="171.85018"
     inkscape:cy="-48.662593"
     inkscape:document-units="px"
     inkscape:current-layer="layer1"
     showgrid="false"
     fit-margin-top="0"
     fit-margin-left="0"
     fit-margin-right="0"
     fit-margin-bottom="0"
     inkscape:window-width="469"
     inkscape:window-height="403"
     inkscape:window-x="389"
     inkscape:window-y="116"
     inkscape:window-maximized="0" />
  <metadata
     id="metadata9627">
    <rdf:RDF>
      <cc:Work
         rdf:about="">
        <dc:format>image/svg+xml</dc:format>
        <dc:type
           rdf:resource="http://purl.org/dc/dcmitype/StillImage" />
        <dc:title></dc:title>
      </cc:Work>
    </rdf:RDF>
  </metadata>
  <g
     inkscape:label="Layer 1"
     inkscape:groupmode="layer"
     id="layer1"
     transform="translate(-203.14982,-392.45334)">
    <g
       transform="matrix(1.25,0,0,-1.25,-372.16743,685.43309)"
       id="g9174">
      <g
         id="g9176"
         clip-path="url(#clipPath9178)">
        <g
           id="g9182"
           transform="translate(569.2498,166.1678)">
          <path
             inkscape:connector-curvature="0"
             d="m 0,0 c 0,-2.502 -2.029,-4.531 -4.531,-4.531 l -99.683,0 c -2.502,0 -4.532,2.029 -4.532,4.531 l 0,63.434 c 0,2.503 2.03,4.532 4.532,4.532 l 99.683,0 C -2.029,67.966 0,65.937 0,63.434 L 0,0 z"
             style="fill:#ffffff;fill-opacity:1;fill-rule:nonzero;stroke:none"
             id="path9184" />
        </g>
      </g>
    </g>
    <g
       transform="matrix(1.25,0,0,-1.25,-372.16743,685.43309)"
       id="g9186">
      <g
         id="g9188"
         clip-path="url(#clipPath9190)">
        <g
           id="g9194"
           transform="translate(569.2498,166.1678)">
          <path
             inkscape:connector-curvature="0"
             d="m 0,0 c 0,-2.502 -2.029,-4.531 -4.531,-4.531 l -99.683,0 c -2.502,0 -4.532,2.029 -4.532,4.531 l 0,63.434 c 0,2.503 2.03,4.532 4.532,4.532 l 99.683,0 C -2.029,67.966 0,65.937 0,63.434 L 0,0 z"
             style="fill:none;stroke:#231f20;stroke-width:0.5;stroke-linecap:butt;stroke-linejoin:miter;stroke-miterlimit:4;stroke-opacity:1;stroke-dasharray:none"
             id="path9196" />
        </g>
      </g>
    </g>
    <g
       transform="matrix(1.25,0,0,-1.25,-372.16743,685.43309)"
       id="g9198">
      <g
         id="g9200"
         clip-path="url(#clipPath9202)">
        <g
           id="g9206"
           transform="translate(566.2308,166.1678)">
          <path
             inkscape:connector-curvature="0"
             d="m 0,0 c 0,-0.833 -0.678,-1.51 -1.512,-1.51 l -99.683,0 c -0.833,0 -1.51,0.677 -1.51,1.51 l 0,63.434 c 0,0.834 0.677,1.511 1.51,1.511 l 99.683,0 C -0.678,64.945 0,64.268 0,63.434 L 0,0 z m -1.512,66.833 -99.683,0 c -1.874,0 -3.399,-1.524 -3.399,-3.399 l 0,-63.434 c 0,-1.874 1.525,-3.398 3.399,-3.398 l 99.683,0 c 1.875,0 3.399,1.524 3.399,3.398 l 0,63.434 c 0,1.875 -1.524,3.399 -3.399,3.399"
             style="fill:#231f20;fill-opacity:1;fill-rule:nonzero;stroke:none"
             id="path9208" />
        </g>
        <g
           id="g9210"
           transform="translate(479.8168,211.4783)">
          <path
             inkscape:connector-curvature="0"
             d="m 0,0 -2.412,0 0,12.232 -1.364,0 0,1.98 c 0.362,0 0.711,0.086 1.049,0.257 0.338,0.172 0.567,0.383 0.688,0.635 L 0,15.104 0,0 z"
             style="fill:#231f20;fill-opacity:1;fill-rule:nonzero;stroke:none"
             id="path9212" />
        </g>
        <g
           id="g9214"
           transform="translate(498.9768,225.0721)">
          <path
             inkscape:connector-curvature="0"
             d="m 0,0 -3.807,-12.083 -1.57,0 L -9.182,0 -7.152,0 -4.592,-8.181 -2.029,0 0,0 z"
             style="fill:#231f20;fill-opacity:1;fill-rule:nonzero;stroke:none"
             id="path9216" />
        </g>
        <g
           id="g9218"
           transform="translate(508.2838,212.9891)">
          <path
             inkscape:connector-curvature="0"
             d="m 0,0 -7.491,0 0,12.083 7.25,0 0,-1.931 -5.32,0 0,-2.905 3.676,0 0,-1.93 -3.676,0 0,-3.387 L 0,1.93 0,0 z"
             style="fill:#231f20;fill-opacity:1;fill-rule:nonzero;stroke:none"
             id="path9220" />
        </g>
        <g
           id="g9222"
           transform="translate(518.5508,212.9891)">
          <path
             inkscape:connector-curvature="0"
             d="m 0,0 -1.93,0 0,5.317 -4.353,0 0,-5.317 -1.93,0 0,12.083 1.93,0 0,-4.836 4.353,0 0,4.836 1.93,0 L 0,0 z"
             style="fill:#231f20;fill-opacity:1;fill-rule:nonzero;stroke:none"
             id="path9224" />
        </g>
        <path
           inkscape:connector-curvature="0"
           d="m 523.383,212.989 -1.93,0 0,12.083 1.93,0 0,-12.083 z"
           style="fill:#231f20;fill-opacity:1;fill-rule:nonzero;stroke:none"
           id="path9226" />
        <g
           id="g9228"
           transform="translate(534.2388,215.4891)">
          <path
             inkscape:connector-curvature="0"
             d="m 0,0 c -0.733,-1.751 -2.01,-2.626 -3.83,-2.626 -1.573,0 -2.731,0.697 -3.481,2.092 -0.588,1.08 -0.883,2.438 -0.883,4.075 0,1.644 0.291,3.003 0.871,4.075 0.756,1.395 1.92,2.092 3.493,2.092 1.771,0 3.056,-0.851 3.853,-2.553 l -1.824,-0.75 c -0.363,0.915 -1.041,1.373 -2.031,1.373 -0.84,0 -1.467,-0.424 -1.887,-1.27 -0.363,-0.727 -0.545,-1.716 -0.545,-2.967 0,-1.251 0.182,-2.239 0.545,-2.966 0.41,-0.848 1.039,-1.271 1.887,-1.271 0.925,0 1.611,0.469 2.054,1.41 L 0,0 z"
             style="fill:#231f20;fill-opacity:1;fill-rule:nonzero;stroke:none"
             id="path9230" />
        </g>
        <g
           id="g9232"
           transform="translate(544.4118,212.9891)">
          <path
             inkscape:connector-curvature="0"
             d="m 0,0 -7.492,0 0,12.083 1.93,0 0,-10.153 L 0,1.93 0,0 z"
             style="fill:#231f20;fill-opacity:1;fill-rule:nonzero;stroke:none"
             id="path9234" />
        </g>
        <g
           id="g9236"
           transform="translate(553.7148,212.9891)">
          <path
             inkscape:connector-curvature="0"
             d="m 0,0 -7.492,0 0,12.083 7.25,0 0,-1.931 -5.32,0 0,-2.905 3.677,0 0,-1.93 -3.677,0 0,-3.387 L 0,1.93 0,0 z"
             style="fill:#231f20;fill-opacity:1;fill-rule:nonzero;stroke:none"
             id="path9238" />
        </g>
        <g
           id="g9240"
           transform="translate(477.9118,200.5682)">
          <path
             inkscape:connector-curvature="0"
             d="m 0,0 c 0,0.396 -0.16,0.732 -0.478,1.011 -0.318,0.278 -0.684,0.418 -1.094,0.418 l -2.781,0 0,-2.906 2.781,0 c 0.41,0 0.776,0.146 1.094,0.436 C -0.16,-0.75 0,-0.403 0,0 m 1.93,0 c 0,-0.91 -0.353,-1.705 -1.058,-2.386 -0.706,-0.68 -1.52,-1.02 -2.446,-1.02 l -2.779,0 0,-5.319 -1.93,0 0,12.083 4.709,0 c 0.936,0 1.752,-0.33 2.453,-0.99 C 1.579,1.707 1.93,0.918 1.93,0"
             style="fill:#231f20;fill-opacity:1;fill-rule:nonzero;stroke:none"
             id="path9242" />
        </g>
        <g
           id="g9244"
           transform="translate(489.1488,191.8435)">
          <path
             inkscape:connector-curvature="0"
             d="m 0,0 -7.492,0 0,12.083 7.25,0 0,-1.93 -5.319,0 0,-2.905 3.676,0 0,-1.93 -3.676,0 0,-3.387 L 0,1.931 0,0 z"
             style="fill:#231f20;fill-opacity:1;fill-rule:nonzero;stroke:none"
             id="path9246" />
        </g>
        <g
           id="g9248"
           transform="translate(497.3278,200.5682)">
          <path
             inkscape:connector-curvature="0"
             d="m 0,0 c 0,0.403 -0.134,0.743 -0.406,1.017 -0.269,0.274 -0.605,0.412 -1.008,0.412 l -2.781,0 0,-2.906 2.781,0 c 0.403,0 0.739,0.144 1.008,0.43 C -0.134,-0.761 0,-0.411 0,0 m 2.09,-8.725 -2.043,0 -1.945,5.319 -2.297,0 0,-5.319 -1.93,0 0,12.083 4.698,0 C -0.501,3.358 0.29,3.03 0.946,2.374 1.602,1.718 1.93,0.926 1.93,0 1.93,-1.354 1.292,-2.369 0.012,-3.045 l 2.078,-5.68 z"
             style="fill:#231f20;fill-opacity:1;fill-rule:nonzero;stroke:none"
             id="path9250" />
        </g>
        <g
           id="g9252"
           transform="translate(517.9028,195.9988)">
          <path
             inkscape:connector-curvature="0"
             d="m 0,0 c 0,-0.968 -0.262,-1.851 -0.785,-2.648 -0.709,-1.088 -1.756,-1.632 -3.141,-1.632 -1.537,0 -2.678,0.697 -3.418,2.091 -0.58,1.081 -0.869,2.439 -0.869,4.076 0,1.636 0.289,2.995 0.869,4.075 0.742,1.395 1.881,2.092 3.42,2.092 1.836,0 3.068,-0.924 3.697,-2.771 L -1.992,4.569 C -2.395,5.605 -3.039,6.124 -3.926,6.124 -4.733,6.124 -5.336,5.7 -5.739,4.853 -6.102,4.118 -6.283,3.13 -6.283,1.887 c 0,-1.236 0.181,-2.224 0.542,-2.967 0.411,-0.847 1.014,-1.271 1.813,-1.271 0.748,0 1.307,0.34 1.678,1.02 0.224,0.421 0.345,0.851 0.361,1.288 l -2.191,0 0,1.93 4.08,0 L 0,0 z"
             style="fill:#231f20;fill-opacity:1;fill-rule:nonzero;stroke:none"
             id="path9254" />
        </g>
        <g
           id="g9256"
           transform="translate(526.6898,200.5682)">
          <path
             inkscape:connector-curvature="0"
             d="m 0,0 c 0,0.403 -0.137,0.743 -0.406,1.017 -0.27,0.274 -0.606,0.412 -1.01,0.412 l -2.779,0 0,-2.906 2.779,0 c 0.404,0 0.74,0.144 1.01,0.43 C -0.137,-0.761 0,-0.411 0,0 m 2.09,-8.725 -2.043,0 -1.946,5.319 -2.296,0 0,-5.319 -1.932,0 0,12.083 4.699,0 C -0.502,3.358 0.289,3.03 0.945,2.374 1.601,1.718 1.93,0.926 1.93,0 1.93,-1.354 1.289,-2.369 0.012,-3.045 l 2.078,-5.68 z"
             style="fill:#231f20;fill-opacity:1;fill-rule:nonzero;stroke:none"
             id="path9258" />
        </g>
        <g
           id="g9260"
           transform="translate(538.3268,191.8435)">
          <path
             inkscape:connector-curvature="0"
             d="m 0,0 -7.493,0 0,12.083 7.25,0 0,-1.93 -5.32,0 0,-2.905 3.676,0 0,-1.93 -3.676,0 0,-3.387 L 0,1.931 0,0 z"
             style="fill:#231f20;fill-opacity:1;fill-rule:nonzero;stroke:none"
             id="path9262" />
        </g>
        <g
           id="g9264"
           transform="translate(547.8708,191.8435)">
          <path
             inkscape:connector-curvature="0"
             d="m 0,0 -7.492,0 0,12.083 7.25,0 0,-1.93 -5.32,0 0,-2.905 3.678,0 0,-1.93 -3.678,0 0,-3.387 L 0,1.931 0,0 z"
             style="fill:#231f20;fill-opacity:1;fill-rule:nonzero;stroke:none"
             id="path9266" />
        </g>
        <g
           id="g9268"
           transform="translate(558.1268,191.8435)">
          <path
             inkscape:connector-curvature="0"
             d="m 0,0 -1.849,0 -4.412,8.012 0,-8.012 -1.93,0 0,12.083 1.873,0 4.389,-7.963 0,7.963 1.929,0 L 0,0 z"
             style="fill:#231f20;fill-opacity:1;fill-rule:nonzero;stroke:none"
             id="path9270" />
        </g>
        <g
           id="g9272"
           transform="translate(477.5428,170.6988)">
          <path
             inkscape:connector-curvature="0"
             d="m 0,0 -7.492,0 0,12.083 7.25,0 0,-1.93 -5.32,0 0,-2.905 3.678,0 0,-1.93 -3.678,0 0,-3.388 L 0,1.93 0,0 z"
             style="fill:#231f20;fill-opacity:1;fill-rule:nonzero;stroke:none"
             id="path9274" />
        </g>
        <g
           id="g9276"
           transform="translate(484.9088,176.0164)">
          <path
             inkscape:connector-curvature="0"
             d="M 0,0 -1.268,3.685 -2.524,0 0,0 z m 3.867,-5.318 -2.041,0 -1.16,3.388 -3.879,0 -1.137,-3.388 -2.053,0 4.156,12.084 1.958,0 4.156,-12.084 z"
             style="fill:#231f20;fill-opacity:1;fill-rule:nonzero;stroke:none"
             id="path9278" />
        </g>
        <g
           id="g9280"
           transform="translate(498.5428,173.199)">
          <path
             inkscape:connector-curvature="0"
             d="m 0,0 c -0.734,-1.751 -2.011,-2.626 -3.832,-2.626 -1.57,0 -2.73,0.698 -3.478,2.092 -0.588,1.081 -0.883,2.439 -0.883,4.075 0,1.645 0.291,3.003 0.871,4.076 0.756,1.395 1.92,2.092 3.49,2.092 1.774,0 3.059,-0.852 3.856,-2.554 l -1.826,-0.75 c -0.362,0.916 -1.039,1.373 -2.032,1.373 -0.838,0 -1.466,-0.423 -1.884,-1.27 -0.364,-0.727 -0.545,-1.715 -0.545,-2.967 0,-1.251 0.181,-2.239 0.545,-2.966 0.41,-0.847 1.039,-1.271 1.884,-1.271 0.928,0 1.614,0.47 2.057,1.41 L 0,0 z"
             style="fill:#231f20;fill-opacity:1;fill-rule:nonzero;stroke:none"
             id="path9282" />
        </g>
        <g
           id="g9284"
           transform="translate(509.4358,170.6988)">
          <path
             inkscape:connector-curvature="0"
             d="m 0,0 -1.93,0 0,5.318 -4.351,0 0,-5.318 -1.93,0 0,12.083 1.93,0 0,-4.835 4.351,0 0,4.835 1.93,0 L 0,0 z"
             style="fill:#231f20;fill-opacity:1;fill-rule:nonzero;stroke:none"
             id="path9286" />
        </g>
        <g
           id="g9288"
           transform="translate(528.2888,170.6988)">
          <path
             inkscape:connector-curvature="0"
             d="m 0,0 -7.492,0 0,12.083 1.932,0 0,-10.153 L 0,1.93 0,0 z"
             style="fill:#231f20;fill-opacity:1;fill-rule:nonzero;stroke:none"
             id="path9290" />
        </g>
        <g
           id="g9292"
           transform="translate(535.4138,176.0164)">
          <path
             inkscape:connector-curvature="0"
             d="M 0,0 -1.267,3.685 -2.525,0 0,0 z m 3.868,-5.318 -2.043,0 -1.159,3.388 -3.878,0 -1.137,-3.388 -2.055,0 4.158,12.084 1.957,0 4.157,-12.084 z"
             style="fill:#231f20;fill-opacity:1;fill-rule:nonzero;stroke:none"
             id="path9294" />
        </g>
        <g
           id="g9296"
           transform="translate(549.2988,170.6988)">
          <path
             inkscape:connector-curvature="0"
             d="m 0,0 -1.849,0 -4.413,8.011 0,-8.011 -1.929,0 0,12.083 1.873,0 4.389,-7.963 0,7.963 1.929,0 L 0,0 z"
             style="fill:#231f20;fill-opacity:1;fill-rule:nonzero;stroke:none"
             id="path9298" />
        </g>
        <g
           id="g9300"
           transform="translate(559.7048,170.6988)">
          <path
             inkscape:connector-curvature="0"
             d="m 0,0 -7.492,0 0,12.083 7.25,0 0,-1.93 -5.32,0 0,-2.905 3.676,0 0,-1.93 -3.676,0 0,-3.388 L 0,1.93 0,0 z"
             style="fill:#231f20;fill-opacity:1;fill-rule:nonzero;stroke:none"
             id="path9302" />
        </g>
      </g>
    </g>
  </g>
</svg>
