<?xml version="1.0" encoding="UTF-8" standalone="no"?>
<!-- Created with Inkscape (http://www.inkscape.org/) -->

<svg
   xmlns:dc="http://purl.org/dc/elements/1.1/"
   xmlns:cc="http://creativecommons.org/ns#"
   xmlns:rdf="http://www.w3.org/1999/02/22-rdf-syntax-ns#"
   xmlns:svg="http://www.w3.org/2000/svg"
   xmlns="http://www.w3.org/2000/svg"
   xmlns:sodipodi="http://sodipodi.sourceforge.net/DTD/sodipodi-0.dtd"
   xmlns:inkscape="http://www.inkscape.org/namespaces/inkscape"
   width="83.125"
   height="62.501251"
   id="svg12293"
   version="1.1"
   inkscape:version="0.48.1 "
   sodipodi:docname="New document 93">
  <defs
     id="defs12295">
    <clipPath
       clipPathUnits="userSpaceOnUse"
       id="clipPath9757">
      <path
         inkscape:connector-curvature="0"
         d="m 63.125,364.25 513.184,0 0,384.75 -513.184,0 0,-384.75 z"
         id="path9759" />
    </clipPath>
  </defs>
  <sodipodi:namedview
     id="base"
     pagecolor="#ffffff"
     bordercolor="#666666"
     borderopacity="1.0"
     inkscape:pageopacity="0.0"
     inkscape:pageshadow="2"
     inkscape:zoom="0.35"
     inkscape:cx="62.276785"
     inkscape:cy="111.25062"
     inkscape:document-units="px"
     inkscape:current-layer="layer1"
     showgrid="false"
     fit-margin-top="0"
     fit-margin-left="0"
     fit-margin-right="0"
     fit-margin-bottom="0"
     inkscape:window-width="469"
     inkscape:window-height="425"
     inkscape:window-x="125"
     inkscape:window-y="125"
     inkscape:window-maximized="0" />
  <metadata
     id="metadata12298">
    <rdf:RDF>
      <cc:Work
         rdf:about="">
        <dc:format>image/svg+xml</dc:format>
        <dc:type
           rdf:resource="http://purl.org/dc/dcmitype/StillImage" />
        <dc:title></dc:title>
      </cc:Work>
    </rdf:RDF>
  </metadata>
  <g
     inkscape:label="Layer 1"
     inkscape:groupmode="layer"
     id="layer1"
     transform="translate(-312.72322,-581.11155)">
    <g
       transform="matrix(1.25,0,0,-1.25,-281.58316,1128.6023)"
       id="g9753">
      <g
         id="g9755"
         clip-path="url(#clipPath9757)">
        <g
           id="g9761"
           transform="translate(481.3471,437.7426)">
          <path
             inkscape:connector-curvature="0"
             d="m 0,0 54.848,0 0.238,0 0.006,-0.004 c 2.84,-0.125 5.135,-2.422 5.254,-5.264 l 0.002,-0.005 0,-0.227 0,-38.501 0,-0.047 c -0.022,-2.781 -2.131,-5.082 -4.834,-5.412 l -0.035,-0.041 -0.631,0 -55,0 -0.139,0 -0.002,0.002 c -2.881,0.076 -5.222,2.383 -5.351,5.252 l -0.008,0.004 0,0.242 0,38.241 0.008,0.004 c -0.006,0.086 -0.008,0.17 -0.008,0.256 0,3.031 2.471,5.5 5.5,5.5 L -0.002,0 0,0 z"
             style="fill:none;stroke:#231f20;stroke-width:0.5;stroke-linecap:butt;stroke-linejoin:miter;stroke-miterlimit:2.61299992;stroke-opacity:1;stroke-dasharray:none"
             id="path9763" />
        </g>
        <g
           id="g9765"
           transform="translate(481.7441,436.6447)">
          <path
             inkscape:connector-curvature="0"
             d="m 0,0 53.902,0 c 2.727,0 4.951,-2.224 4.951,-4.951 l 0,-37.401 c 0,-2.725 -2.224,-4.947 -4.951,-4.947 l -53.902,0 c -2.723,0 -4.948,2.222 -4.948,4.947 l 0,37.401 C -4.948,-2.224 -2.723,0 0,0"
             style="fill:#231f20;fill-opacity:1;fill-rule:evenodd;stroke:none"
             id="path9767" />
        </g>
        <g
           id="g9769"
           transform="translate(481.7951,435.0107)">
          <path
             inkscape:connector-curvature="0"
             d="m 0,0 53.804,0 c 1.86,0 3.375,-1.518 3.375,-3.379 l 0,-37.296 c 0,-1.862 -1.515,-3.375 -3.375,-3.375 L 0,-44.05 c -1.86,0 -3.375,1.513 -3.375,3.375 l 0,37.296 C -3.375,-1.518 -1.86,0 0,0"
             style="fill:#ffffff;fill-opacity:1;fill-rule:evenodd;stroke:none"
             id="path9771" />
        </g>
        <g
           id="g9773"
           transform="translate(523.9901,421.1786)">
          <path
             inkscape:connector-curvature="0"
             d="m 0,0 c 0,-0.639 -0.147,-1.45 -0.32,-1.881 -0.293,-0.723 -0.67,-1.043 -1.282,-1.043 -0.523,0 -0.873,0.201 -1.136,0.634 -0.321,0.524 -0.495,1.42 -0.495,2.29 0,0.693 0.118,1.445 0.321,1.937 0.291,0.723 0.699,1.039 1.34,1.012 C -1.078,2.921 -0.76,2.748 -0.496,2.31 -0.176,1.763 0,0.923 0,0 m 1.308,0 c 0,1.041 -0.205,2.082 -0.554,2.802 -0.522,1.016 -1.25,1.479 -2.299,1.479 -0.961,0 -1.631,-0.289 -2.121,-0.928 C -4.223,2.574 -4.572,1.357 -4.572,0 c 0,-0.987 0.234,-2.084 0.584,-2.782 0.494,-1.009 1.22,-1.476 2.386,-1.476 0.873,0 1.541,0.293 2.008,0.929 0.582,0.725 0.902,2.024 0.902,3.329 m -6.927,2.976 0,1.158 -5.121,0 0,-1.158 1.89,0 0,-7.086 1.311,0 0,7.086 1.92,0 z M -13.127,0 c 0,-0.639 -0.149,-1.45 -0.32,-1.881 -0.293,-0.723 -0.67,-1.043 -1.282,-1.043 -0.523,0 -0.873,0.201 -1.134,0.634 -0.323,0.524 -0.497,1.42 -0.497,2.29 0,0.693 0.118,1.445 0.321,1.937 0.293,0.723 0.699,1.039 1.34,1.012 0.494,-0.028 0.812,-0.201 1.076,-0.639 0.32,-0.547 0.496,-1.387 0.496,-2.31 m 1.308,0 c 0,1.041 -0.203,2.082 -0.554,2.802 -0.522,1.016 -1.25,1.479 -2.299,1.479 -0.959,0 -1.627,-0.289 -2.125,-0.928 -0.551,-0.779 -0.902,-1.996 -0.902,-3.353 0,-0.987 0.234,-2.084 0.584,-2.782 0.494,-1.009 1.22,-1.476 2.386,-1.476 0.873,0 1.541,0.293 2.008,0.929 0.584,0.725 0.902,2.024 0.902,3.329 m -7.654,-4.11 0,8.244 -1.31,0 0,-3.328 -3.026,0 0,3.328 -1.31,0 0,-8.244 1.31,0 0,3.588 3.026,0 0,-3.588 1.31,0 z m -8.209,5.932 c 0,-0.35 -0.203,-0.725 -0.494,-0.871 -0.234,-0.114 -0.377,-0.145 -0.785,-0.145 l -1.717,0 0,2.029 1.717,0 c 0.408,0 0.551,-0.033 0.785,-0.146 0.291,-0.174 0.494,-0.52 0.494,-0.867 m 1.34,0 c 0,0.838 -0.555,1.705 -1.279,2.053 -0.408,0.203 -0.844,0.259 -1.514,0.259 l -2.853,0 0,-8.244 1.31,0 0,3.588 1.543,0 c 0.639,0 1.133,0.115 1.514,0.289 0.724,0.318 1.279,1.184 1.279,2.055"
             style="fill:#231f20;fill-opacity:1;fill-rule:evenodd;stroke:none"
             id="path9775" />
        </g>
        <g
           id="g9777"
           transform="translate(534.6321,404.8176)">
          <path
             inkscape:connector-curvature="0"
             d="m 0,0 c 0,-1.101 -0.261,-1.998 -0.755,-2.49 -0.233,-0.229 -0.497,-0.316 -0.932,-0.316 l -1.309,0 0,5.611 1.485,0 c 0.347,0 0.636,-0.145 0.845,-0.346 C -0.261,2.026 0,1.098 0,0 m 1.338,0 c 0,1.619 -0.494,2.922 -1.365,3.674 -0.439,0.346 -0.758,0.432 -1.602,0.432 l -2.677,0 0,-8.243 2.529,0 0.469,0 c 0.433,0.028 0.873,0.174 1.193,0.461 0.932,0.725 1.453,2.024 1.453,3.676 m -7.013,-4.137 0,1.331 -3.842,0 0,2.257 2.416,0 0,1.33 -2.416,0 0,2.024 3.582,0 0,1.301 -4.891,0 0,-8.243 5.151,0 z m -6.955,1.678 -1.252,0.461 c -0.319,-0.666 -0.727,-0.953 -1.28,-0.953 -0.584,0 -0.961,0.201 -1.252,0.637 -0.32,0.521 -0.523,1.418 -0.523,2.314 0,0.694 0.115,1.416 0.32,1.908 0.289,0.725 0.725,1.014 1.397,1.014 0.638,0 0.902,-0.176 1.367,-0.869 l 1.223,0.521 c -0.555,1.157 -1.34,1.678 -2.59,1.678 -0.932,0 -1.629,-0.32 -2.125,-0.926 -0.58,-0.724 -0.932,-2.025 -0.932,-3.326 0,-1.041 0.232,-2.084 0.611,-2.806 0.524,-1.012 1.311,-1.481 2.534,-1.481 1.193,0 2.005,0.611 2.502,1.828 m -8.325,4.252 c 0,-0.346 -0.203,-0.695 -0.523,-0.869 -0.205,-0.115 -0.35,-0.143 -0.758,-0.143 l -1.572,0 0,2.024 1.572,0 c 0.436,0 0.553,-0.027 0.758,-0.145 0.32,-0.172 0.523,-0.519 0.523,-0.867 m 1.485,-5.93 -1.455,3.848 c 0.755,0.346 1.281,1.213 1.281,2.082 0,0.84 -0.526,1.705 -1.254,2.053 -0.408,0.205 -0.844,0.26 -1.482,0.26 l -2.735,0 0,-8.243 1.307,0 0,3.588 1.572,0 1.338,-3.588 1.428,0 z m -8.76,4.108 c 0,-0.637 -0.147,-1.447 -0.322,-1.883 -0.289,-0.721 -0.67,-1.039 -1.28,-1.039 -0.523,0 -0.875,0.201 -1.134,0.637 -0.321,0.521 -0.495,1.418 -0.495,2.285 0,0.693 0.116,1.445 0.321,1.937 0.289,0.725 0.697,1.043 1.336,1.014 0.496,-0.029 0.816,-0.203 1.08,-0.637 0.318,-0.55 0.494,-1.39 0.494,-2.314 m 1.31,0 c 0,1.039 -0.205,2.082 -0.554,2.807 -0.526,1.011 -1.25,1.474 -2.299,1.474 -0.961,0 -1.631,-0.289 -2.125,-0.926 -0.553,-0.781 -0.902,-1.996 -0.902,-3.355 0,-0.984 0.232,-2.084 0.58,-2.777 0.494,-1.012 1.224,-1.481 2.388,-1.481 0.873,0 1.543,0.293 2.01,0.932 0.58,0.722 0.902,2.023 0.902,3.326 m -6.927,2.834 0,1.301 -5.153,0 0,-8.243 1.311,0 0,3.588 2.414,0 0,1.33 -2.414,0 0,2.024 3.842,0 z m -7.102,-6.942 0,8.243 -1.31,0 0,-5.266 -3.028,5.266 -1.31,0 0,-8.243 1.31,0 0,5.584 3.172,-5.584 1.166,0 z m -7.015,0 0,1.331 -3.842,0 0,2.257 2.416,0 0,1.33 -2.416,0 0,2.024 3.58,0 0,1.301 -4.889,0 0,-8.243 5.151,0 z"
             style="fill:#231f20;fill-opacity:1;fill-rule:evenodd;stroke:none"
             id="path9779" />
        </g>
      </g>
    </g>
  </g>
</svg>
