<?xml version="1.0" encoding="UTF-8" standalone="no"?>
<!-- Created with Inkscape (http://www.inkscape.org/) -->

<svg
   xmlns:dc="http://purl.org/dc/elements/1.1/"
   xmlns:cc="http://creativecommons.org/ns#"
   xmlns:rdf="http://www.w3.org/1999/02/22-rdf-syntax-ns#"
   xmlns:svg="http://www.w3.org/2000/svg"
   xmlns="http://www.w3.org/2000/svg"
   xmlns:sodipodi="http://sodipodi.sourceforge.net/DTD/sodipodi-0.dtd"
   xmlns:inkscape="http://www.inkscape.org/namespaces/inkscape"
   width="87.044998"
   height="130.255"
   id="svg27923"
   version="1.1"
   inkscape:version="0.48.1 "
   sodipodi:docname="New document 105">
  <defs
     id="defs27925" />
  <sodipodi:namedview
     id="base"
     pagecolor="#ffffff"
     bordercolor="#666666"
     borderopacity="1.0"
     inkscape:pageopacity="0.0"
     inkscape:pageshadow="2"
     inkscape:zoom="0.35"
     inkscape:cx="152.80821"
     inkscape:cy="13.698927"
     inkscape:document-units="px"
     inkscape:current-layer="layer1"
     showgrid="false"
     fit-margin-top="0"
     fit-margin-left="0"
     fit-margin-right="0"
     fit-margin-bottom="0"
     inkscape:window-width="469"
     inkscape:window-height="403"
     inkscape:window-x="659"
     inkscape:window-y="113"
     inkscape:window-maximized="0" />
  <metadata
     id="metadata27928">
    <rdf:RDF>
      <cc:Work
         rdf:about="">
        <dc:format>image/svg+xml</dc:format>
        <dc:type
           rdf:resource="http://purl.org/dc/dcmitype/StillImage" />
        <dc:title></dc:title>
      </cc:Work>
    </rdf:RDF>
  </metadata>
  <g
     inkscape:label="Layer 1"
     inkscape:groupmode="layer"
     id="layer1"
     transform="translate(-222.19179,-415.80611)">
    <g
       id="g25589"
       transform="matrix(1.25,0,0,-1.25,227.90554,416.11861)">
      <path
         d="m 0,0 60.494,0 c 2.38,0 4.321,-1.941 4.321,-4.321 l 0,-95.062 c 0,-2.38 -1.941,-4.321 -4.321,-4.321 l -60.494,0 c -2.38,0 -4.321,1.941 -4.321,4.321 l 0,95.062 C -4.321,-1.941 -2.38,0 0,0"
         style="fill:#ffffff;fill-opacity:1;fill-rule:nonzero;stroke:#231f20;stroke-width:0.5;stroke-linecap:butt;stroke-linejoin:miter;stroke-miterlimit:4;stroke-opacity:1;stroke-dasharray:none"
         id="path25591"
         inkscape:connector-curvature="0" />
    </g>
    <g
       id="g25593"
       transform="matrix(1.25,0,0,-1.25,303.50442,417.48699)">
      <path
         d="m 0,0 c 0.172,-0.004 0.334,-0.016 0.504,-0.038 0.325,-0.058 0.605,-0.144 0.905,-0.28 L 1.683,-0.467 C 2.048,-0.702 2.331,-0.959 2.599,-1.3 L 2.774,-1.558 C 2.993,-1.94 3.125,-2.301 3.204,-2.736 3.226,-2.906 3.237,-3.069 3.241,-3.24 L 3.237,-98.454 C 3.101,-100.158 1.731,-101.499 0,-101.515 l -60.645,0.005 c -1.701,0.136 -3.049,1.507 -3.061,3.236 l 0.005,95.214 c 0.013,0.164 0.032,0.32 0.062,0.482 0.073,0.32 0.175,0.594 0.323,0.885 l 0.163,0.266 c 0.251,0.354 0.521,0.623 0.874,0.875 l 0.267,0.162 c 0.394,0.203 0.762,0.317 1.203,0.373 L -60.464,0 0,0"
         style="fill:#231f20;fill-opacity:1;fill-rule:evenodd;stroke:none"
         id="path25595"
         inkscape:connector-curvature="0" />
    </g>
    <g
       id="g25597"
       transform="matrix(1.25,0,0,-1.25,303.47566,419.71911)">
      <path
         d="m 0,0 0.187,-0.009 c 0.635,-0.081 1.116,-0.517 1.261,-1.143 0.02,-0.11 0.027,-0.213 0.031,-0.325 l -0.004,-95.1 c -0.056,-0.734 -0.63,-1.305 -1.362,-1.363 l -60.532,-0.002 c -0.834,-0.005 -1.457,0.661 -1.477,1.477 l 0.002,95.1 c 0.031,0.398 0.185,0.714 0.473,0.989 0.265,0.228 0.541,0.346 0.89,0.373 L 0,0"
         style="fill:#ffffff;fill-opacity:1;fill-rule:evenodd;stroke:none"
         id="path25599"
         inkscape:connector-curvature="0" />
    </g>
    <g
       id="g25601"
       transform="matrix(1.25,0,0,-1.25,290.20067,508.78586)">
      <path
         d="m 0,0 -23.066,-13.305 3.415,-3.23 c 0.115,-0.11 0.238,-0.233 0.322,-0.368 0.363,-0.594 0.18,-1.438 -0.337,-1.878 -0.328,-0.277 -0.752,-0.424 -1.182,-0.378 l -16.928,1.841 6.875,15.579 c 0.129,0.291 0.375,0.544 0.651,0.702 0.637,0.367 1.449,0.204 1.936,-0.334 0.167,-0.188 0.227,-0.409 0.286,-0.645 L -26.94,-6.584 -3.877,6.718 0,0 z"
         style="fill:#231f20;fill-opacity:1;fill-rule:evenodd;stroke:none"
         id="path25603"
         inkscape:connector-curvature="0" />
    </g>
    <g
       id="g25605"
       transform="matrix(1.25,0,0,-1.25,292.32191,435.57236)">
      <path
         d="m 0,0 c 0,-0.606 -0.354,-1.262 -0.859,-1.516 -0.404,-0.202 -0.656,-0.253 -1.364,-0.253 l -2.979,0 0,3.537 2.979,0 c 0.708,0 0.96,-0.051 1.364,-0.253 C -0.354,1.211 0,0.605 0,0 m 2.323,0 c 0,1.464 -0.96,2.98 -2.221,3.585 C -0.606,3.94 -1.364,4.04 -2.526,4.04 l -4.949,0 0,-14.395 2.273,0 0,6.264 2.676,0 c 1.112,0 1.97,0.201 2.628,0.505 1.261,0.555 2.221,2.07 2.221,3.586 m -16.034,-3.183 c 0,-1.11 -0.252,-2.524 -0.555,-3.282 -0.504,-1.263 -1.163,-1.819 -2.223,-1.819 -0.909,0 -1.515,0.354 -1.97,1.112 -0.555,0.909 -0.858,2.474 -0.858,3.989 0,1.214 0.202,2.526 0.555,3.385 0.504,1.262 1.211,1.817 2.324,1.767 0.859,-0.051 1.414,-0.353 1.869,-1.11 0.555,-0.961 0.858,-2.425 0.858,-4.042 m 2.273,0 c 0,1.819 -0.353,3.637 -0.959,4.9 -0.909,1.767 -2.172,2.575 -3.991,2.575 -1.667,0 -2.829,-0.504 -3.686,-1.616 -0.961,-1.363 -1.566,-3.485 -1.566,-5.859 0,-1.716 0.403,-3.636 1.008,-4.848 0.86,-1.768 2.123,-2.584 4.143,-2.584 1.516,0 2.678,0.514 3.486,1.624 1.01,1.263 1.565,3.535 1.565,5.808 m -12.851,5.202 0,2.021 -8.891,0 0,-2.021 3.284,0 0,-12.374 2.273,0 0,12.374 3.334,0 z M -35.12,-6.213 c 0,5.658 -6.769,3.889 -6.971,6.566 -0.1,1.314 1.161,1.717 2.223,1.666 1.616,-0.05 2.121,-1.262 2.121,-1.262 l 2.021,0.606 c -0.707,1.769 -2.072,2.929 -4.092,2.929 -2.576,0 -4.495,-1.06 -4.495,-3.888 0,-2.373 1.919,-3.232 2.778,-3.587 1.869,-0.757 4.091,-1.059 4.091,-2.98 0,-1.212 -0.908,-2.121 -2.222,-2.121 -1.364,0 -2.475,0.758 -3.082,2.121 l -2.171,-0.808 c 0.959,-2.172 2.778,-3.644 5.253,-3.644 1.212,0 2.323,0.412 3.132,1.119 0.908,0.809 1.414,1.97 1.414,3.283"
         style="fill:#231f20;fill-opacity:1;fill-rule:evenodd;stroke:none"
         id="path25607"
         inkscape:connector-curvature="0" />
    </g>
    <g
       id="g25609"
       transform="matrix(1.25,0,0,-1.25,284.55941,486.29811)">
      <path
         d="M 0,0 C 0,-1.919 -0.454,-3.485 -1.312,-4.344 -1.718,-4.747 -2.172,-4.9 -2.929,-4.9 l -2.273,0 0,9.799 2.576,0 c 0.606,0 1.112,-0.252 1.465,-0.605 C -0.454,3.535 0,1.919 0,0 m 2.324,0 c 0,2.829 -0.859,5.101 -2.374,6.415 -0.757,0.606 -1.313,0.757 -2.778,0.757 l -4.647,0 0,-14.395 4.394,0 0.809,0 c 0.758,0.05 1.515,0.304 2.07,0.808 1.616,1.263 2.526,3.536 2.526,6.415 m -12.618,-7.223 0,2.323 -6.667,0 0,3.941 4.192,0 0,2.323 -4.192,0 0,3.535 6.213,0 0,2.273 -8.486,0 0,-14.395 8.94,0 z M -24.629,3.132 c 0,-0.607 -0.353,-1.213 -0.909,-1.515 -0.353,-0.202 -0.606,-0.253 -1.313,-0.253 l -2.728,0 0,3.535 2.728,0 c 0.757,0 0.96,-0.049 1.313,-0.252 0.556,-0.304 0.909,-0.909 0.909,-1.515 m 2.576,-10.355 -2.525,6.718 c 1.314,0.606 2.223,2.122 2.223,3.637 0,1.465 -0.909,2.98 -2.172,3.586 -0.708,0.353 -1.466,0.454 -2.576,0.454 l -4.748,0 0,-14.395 2.272,0 0,6.264 2.728,0 2.324,-6.264 2.474,0 z"
         style="fill:#231f20;fill-opacity:1;fill-rule:evenodd;stroke:none"
         id="path25611"
         inkscape:connector-curvature="0" />
    </g>
    <g
       id="g25613"
       transform="matrix(1.25,0,0,-1.25,267.64817,468.32448)">
      <path
         d="m 0,0 0,1.394 -4.001,0 0,2.364 2.516,0 0,1.394 -2.516,0 0,2.121 3.727,0 0,1.364 -5.091,0 L -5.365,0 0,0 z M -8.336,6.213 C -8.336,5.849 -8.548,5.485 -8.881,5.304 -9.094,5.182 -9.244,5.152 -9.669,5.152 l -1.637,0 0,2.121 1.637,0 c 0.454,0 0.575,-0.03 0.788,-0.151 0.333,-0.182 0.545,-0.545 0.545,-0.909 M -6.79,0 -8.305,4.03 c 0.787,0.364 1.333,1.274 1.333,2.183 0,0.879 -0.546,1.787 -1.303,2.151 C -8.7,8.576 -9.153,8.637 -9.82,8.637 l -2.85,0 0,-8.637 1.364,0 0,3.758 1.637,0 L -8.275,0 -6.79,0 z m -7.305,0 0,1.394 -4.001,0 0,2.364 2.516,0 0,1.394 -2.516,0 0,2.121 3.729,0 0,1.364 -5.092,0 0,-8.637 5.364,0 z m -7.395,0 0,8.637 -1.364,0 0,-3.485 -3.152,0 0,3.485 -1.364,0 0,-8.637 1.364,0 0,3.758 3.152,0 0,-3.758 1.364,0 z"
         style="fill:#231f20;fill-opacity:1;fill-rule:evenodd;stroke:none"
         id="path25615"
         inkscape:connector-curvature="0" />
    </g>
    <g
       id="g25617"
       transform="matrix(1.25,0,0,-1.25,298.14692,468.32448)">
      <path
         d="m 0,0 0,8.637 -1.363,0 0,-5.515 -3.152,5.515 -1.364,0 0,-8.637 1.364,0 0,5.849 L -1.212,0 0,0 z m -9.123,4.304 c 0,-0.668 -0.15,-1.515 -0.333,-1.97 -0.303,-0.758 -0.697,-1.091 -1.334,-1.091 -0.546,0 -0.908,0.212 -1.182,0.666 -0.333,0.546 -0.515,1.486 -0.515,2.395 0,0.727 0.121,1.515 0.333,2.03 0.304,0.758 0.728,1.091 1.396,1.061 0.514,-0.03 0.847,-0.212 1.121,-0.667 0.333,-0.576 0.514,-1.455 0.514,-2.424 m 1.365,0 c 0,1.091 -0.213,2.181 -0.576,2.939 -0.546,1.061 -1.303,1.545 -2.395,1.545 -1,0 -1.697,-0.302 -2.213,-0.97 -0.575,-0.817 -0.94,-2.09 -0.94,-3.514 0,-1.031 0.243,-2.183 0.606,-2.91 0.517,-1.061 1.273,-1.55 2.486,-1.55 0.908,0 1.607,0.308 2.092,0.974 0.607,0.758 0.94,2.122 0.94,3.486"
         style="fill:#231f20;fill-opacity:1;fill-rule:evenodd;stroke:none"
         id="path25619"
         inkscape:connector-curvature="0" />
    </g>
  </g>
</svg>
