<?xml version="1.0" encoding="UTF-8" standalone="no"?>
<!-- Created with Inkscape (http://www.inkscape.org/) -->

<svg
   xmlns:dc="http://purl.org/dc/elements/1.1/"
   xmlns:cc="http://creativecommons.org/ns#"
   xmlns:rdf="http://www.w3.org/1999/02/22-rdf-syntax-ns#"
   xmlns:svg="http://www.w3.org/2000/svg"
   xmlns="http://www.w3.org/2000/svg"
   xmlns:sodipodi="http://sodipodi.sourceforge.net/DTD/sodipodi-0.dtd"
   xmlns:inkscape="http://www.inkscape.org/namespaces/inkscape"
   width="87.046249"
   height="87.043747"
   id="svg7884"
   version="1.1"
   inkscape:version="0.48.1 "
   sodipodi:docname="New document 36">
  <defs
     id="defs7886" />
  <sodipodi:namedview
     id="base"
     pagecolor="#ffffff"
     bordercolor="#666666"
     borderopacity="1.0"
     inkscape:pageopacity="0.0"
     inkscape:pageshadow="2"
     inkscape:zoom="0.49497475"
     inkscape:cx="73.000995"
     inkscape:cy="70.616187"
     inkscape:document-units="px"
     inkscape:current-layer="layer1"
     showgrid="false"
     fit-margin-top="0"
     fit-margin-left="0"
     fit-margin-right="0"
     fit-margin-bottom="0"
     inkscape:window-width="469"
     inkscape:window-height="403"
     inkscape:window-x="100"
     inkscape:window-y="100"
     inkscape:window-maximized="0" />
  <metadata
     id="metadata7889">
    <rdf:RDF>
      <cc:Work
         rdf:about="">
        <dc:format>image/svg+xml</dc:format>
        <dc:type
           rdf:resource="http://purl.org/dc/dcmitype/StillImage" />
        <dc:title></dc:title>
      </cc:Work>
    </rdf:RDF>
  </metadata>
  <g
     inkscape:label="Layer 1"
     inkscape:groupmode="layer"
     id="layer1"
     transform="translate(-245.3805,-422.95183)">
    <g
       id="g5011"
       transform="matrix(1.25,0,0,-1.25,251.09675,423.26433)">
      <path
         d="m 0,0 60.494,0 c 2.379,0 4.32,-1.941 4.32,-4.32 l 0,-60.494 c 0,-2.38 -1.941,-4.321 -4.32,-4.321 l -60.494,0 c -2.381,0 -4.323,1.941 -4.323,4.321 l 0,60.494 C -4.323,-1.971 -2.35,0 0,0"
         style="fill:#ffffff;fill-opacity:1;fill-rule:nonzero;stroke:#231f20;stroke-width:0.5;stroke-linecap:butt;stroke-linejoin:miter;stroke-miterlimit:4;stroke-opacity:1;stroke-dasharray:none"
         id="path5013"
         inkscape:connector-curvature="0" />
    </g>
    <g
       id="g5015"
       transform="matrix(1.25,0,0,-1.25,251.1105,424.61433)">
      <path
         d="m 0,0 60.469,0 c 1.781,-0.004 3.248,-1.476 3.254,-3.256 l 0,-60.465 c -0.006,-1.782 -1.473,-3.249 -3.254,-3.254 l -60.469,0 c -1.777,0.005 -3.25,1.472 -3.252,3.254 l 0,60.465 C -3.25,-1.476 -1.777,-0.004 0,0"
         style="fill:#231f20;fill-opacity:1;fill-rule:evenodd;stroke:none"
         id="path5017"
         inkscape:connector-curvature="0" />
    </g>
    <g
       id="g5019"
       transform="matrix(1.25,0,0,-1.25,251.14288,426.86558)">
      <path
         d="m 0,0 60.42,0 c 0.81,0.012 1.492,-0.664 1.476,-1.477 l 0,-60.421 c 0.016,-0.81 -0.666,-1.49 -1.476,-1.476 l -60.42,0 c -0.815,-0.014 -1.489,0.666 -1.479,1.476 l 0,60.421 C -1.489,-0.664 -0.815,0.012 0,0"
         style="fill:#ffffff;fill-opacity:1;fill-rule:evenodd;stroke:none"
         id="path5021"
         inkscape:connector-curvature="0" />
    </g>
    <path
       d="m 320.4745,450.59258 -2.0225,0 0,-14.39375 2.0225,0 0,14.39375 z m -6.4725,-10.55625 c 0,-1.21125 -0.625,-1.81875 -1.87,-1.81875 l -2.12,0 0,3.6375 2.12,0 c 1.245,0 1.87,-0.605 1.87,-1.81875 m 2.01875,10.55625 -2.11875,0 -1.92125,-6.7675 -1.96875,0 0,6.7675 -2.0725,0 0,-14.39375 4.2925,0 c 1.145,0 2.0625,0.345 2.75375,1.035 0.68875,0.69 1.035,1.6225 1.035,2.8025 0,1.785 -0.69125,2.94625 -2.07,3.48625 l 2.07,7.07 z m -10.1025,-12.375 -5.25125,0 0,3.6375 2.87875,0 0,1.97 -2.87875,0 0,6.7675 -2.0725,0 0,-14.39375 7.32375,0 0,2.01875 z m -9.34125,6.465 -5.05375,0 0,-1.9175 5.05375,0 0,1.9175 z m -7.0725,5.91 -1.5675,0 -4.4425,-9.64625 0,9.64625 -2.07125,0 0,-14.39375 2.07125,0 3.94,8.6375 0,-8.6375 2.07,0 0,14.39375 z m -12.93,-7.22125 c 0,-1.45 -0.15125,-2.6425 -0.45375,-3.5875 -0.37125,-1.2125 -0.96125,-1.8175 -1.7675,-1.8175 -0.87625,0 -1.48125,0.5875 -1.82125,1.7675 -0.3,0.97625 -0.45375,2.20625 -0.45375,3.68875 0,1.37875 0.15375,2.5925 0.45375,3.635 0.34,1.17875 0.945,1.7675 1.82125,1.7675 0.84,0 1.42875,-0.58875 1.7675,-1.7675 0.3025,-1.01125 0.45375,-2.23875 0.45375,-3.68625 m 1.97125,0 c 0,2.0525 -0.27125,3.71875 -0.81125,5 -0.67125,1.65 -1.79875,2.475 -3.38125,2.475 -1.61875,0 -2.76375,-0.825 -3.435,-2.475 -0.54,-1.28125 -0.8075,-2.9475 -0.8075,-5 0,-2.0875 0.2675,-3.755 0.8075,-5.00125 0.705,-1.615 1.85,-2.42375 3.435,-2.42375 1.5825,0 2.71,0.825 3.38125,2.475 0.54,1.28 0.81125,2.92875 0.81125,4.95 m -11.31625,7.22125 -2.07,0 0,-8.08125 -2.67625,8.08125 -2.67875,-8.08125 0,8.08125 -2.07,0 0,-14.39375 2.07,0 2.67875,8.08 2.67625,-8.08 2.07,0 0,14.39375 z"
       style="fill:#231f20;fill-opacity:1;fill-rule:evenodd;stroke:none"
       id="path5023"
       inkscape:connector-curvature="0" />
    <g
       id="g5025"
       transform="matrix(1.25,0,0,-1.25,282.4555,458.99058)">
      <path
         d="M 0,0 z M 0,0 z"
         style="fill:#231f20;fill-opacity:1;fill-rule:evenodd;stroke:none"
         id="path5027"
         inkscape:connector-curvature="0" />
    </g>
    <g
       id="g5041"
       transform="matrix(1.25,0,0,-1.25,268.76925,463.54183)">
      <path
         d="m 0,0 -0.81,-3.312 1.661,0 L 0,0 z m 2.065,-8.079 -0.81,3.153 -2.47,0 -0.77,-3.153 -1.659,0 2.875,11.514 1.62,0 2.875,-11.514 -1.661,0 z"
         style="fill:#231f20;fill-opacity:1;fill-rule:nonzero;stroke:none"
         id="path5043"
         inkscape:connector-curvature="0" />
    </g>
    <g
       id="g5045"
       transform="matrix(1.25,0,0,-1.25,282.87287,473.63808)">
      <path
         d="M 0,0 0,6.463 -2.145,0 l -2.143,6.463 0,-6.463 -1.659,0 0,11.512 1.659,0 2.143,-6.462 2.145,6.462 1.657,0 L 1.657,0 0,0 z"
         style="fill:#231f20;fill-opacity:1;fill-rule:nonzero;stroke:none"
         id="path5047"
         inkscape:connector-curvature="0" />
    </g>
    <g
       id="g5049"
       transform="matrix(1.25,0,0,-1.25,307.20538,463.54183)">
      <path
         d="m 0,0 -0.809,-3.312 1.661,0 L 0,0 z m 2.066,-8.079 -0.811,3.153 -2.469,0 -0.77,-3.153 -1.659,0 2.875,11.514 1.62,0 2.875,-11.514 -1.661,0 z"
         style="fill:#231f20;fill-opacity:1;fill-rule:nonzero;stroke:none"
         id="path5051"
         inkscape:connector-curvature="0" />
    </g>
    <g
       id="g5053"
       transform="matrix(1.25,0,0,-1.25,321.30913,473.63808)">
      <path
         d="M 0,0 0,6.463 -2.144,0 l -2.144,6.463 0,-6.463 -1.658,0 0,11.512 1.658,0 2.144,-6.462 2.144,6.462 1.658,0 L 1.658,0 0,0 z"
         style="fill:#231f20;fill-opacity:1;fill-rule:nonzero;stroke:none"
         id="path5055"
         inkscape:connector-curvature="0" />
    </g>
    <g
       id="g5057"
       transform="matrix(1.25,0,0,-1.25,259.39537,466.87183)">
      <path
         d="m 0,0 c -0.608,-1.778 -0.852,-3.312 -0.932,-5.413 l -1.624,0 0,0.243 c 0,1.17 0.285,3.07 0.69,4.604 0.486,1.858 1.096,3.232 2.231,5.049 l -4.34,0 0,1.616 6.448,0 0,-1.616 C 1.46,3.312 0.649,1.858 0,0"
         style="fill:#231f20;fill-opacity:1;fill-rule:nonzero;stroke:none"
         id="path5059"
         inkscape:connector-curvature="0" />
    </g>
    <g
       id="g5061"
       transform="matrix(1.25,0,0,-1.25,297.3505,461.01433)">
      <path
         d="m 0,0 c -1.013,0 -1.623,-0.769 -1.623,-1.979 0,-1.253 0.61,-2.02 1.623,-2.02 0.973,0 1.624,0.726 1.624,1.858 C 1.624,-0.849 0.973,0 0,0 m -0.769,-10.099 -0.934,1.293 C -0.73,-8.08 0.326,-6.665 0.732,-5.574 0.447,-5.615 0.244,-5.615 0,-5.615 c -1.987,0 -3.245,1.413 -3.245,3.636 0,2.18 1.258,3.593 3.245,3.593 2.11,0 3.205,-1.413 3.205,-4.12 0,-2.826 -1.46,-5.613 -3.974,-7.593"
         style="fill:#231f20;fill-opacity:1;fill-rule:nonzero;stroke:none"
         id="path5063"
         inkscape:connector-curvature="0" />
    </g>
    <path
       d="m 286.9595,465.81258 5.04,0 0,1.9175 -5.04,0 0,-1.9175 z"
       style="fill:#231f20;fill-opacity:1;fill-rule:nonzero;stroke:none"
       id="path5065"
       inkscape:connector-curvature="0" />
    <g
       id="g5067"
       transform="matrix(1.25,0,0,-1.25,283.30175,496.68433)">
      <path
         d="M 0,0 0,6.463 -2.142,0 l -2.145,6.463 0,-6.463 -1.658,0 0,11.513 1.658,0 2.145,-6.463 2.142,6.463 1.658,0 L 1.658,0 0,0 z"
         style="fill:#231f20;fill-opacity:1;fill-rule:nonzero;stroke:none"
         id="path5069"
         inkscape:connector-curvature="0" />
    </g>
    <g
       id="g5071"
       transform="matrix(1.25,0,0,-1.25,269.11287,484.31433)">
      <path
         d="m 0,0 -1.696,0 0,-3.271 1.696,0 c 0.965,0 1.49,0.605 1.49,1.655 C 1.49,-0.646 0.884,0 0,0 m 0.08,-4.846 -1.776,0 0,-5.05 -1.65,0 0,11.513 3.426,0 c 1.812,0 3.023,-1.292 3.023,-3.233 0,-2.1 -1.09,-3.23 -3.023,-3.23"
         style="fill:#231f20;fill-opacity:1;fill-rule:nonzero;stroke:none"
         id="path5073"
         inkscape:connector-curvature="0" />
    </g>
    <g
       id="g5075"
       transform="matrix(1.25,0,0,-1.25,322.61175,496.68433)">
      <path
         d="M 0,0 0,6.463 -2.143,0 -4.29,6.463 -4.29,0 l -1.656,0 0,11.513 1.656,0 2.147,-6.463 2.143,6.463 1.656,0 L 1.656,0 0,0 z"
         style="fill:#231f20;fill-opacity:1;fill-rule:nonzero;stroke:none"
         id="path5077"
         inkscape:connector-curvature="0" />
    </g>
    <g
       id="g5079"
       transform="matrix(1.25,0,0,-1.25,308.41912,484.31433)">
      <path
         d="m 0,0 -1.693,0 0,-3.271 1.693,0 c 0.967,0 1.492,0.605 1.492,1.655 C 1.492,-0.646 0.887,0 0,0 m 0.08,-4.846 -1.773,0 0,-5.05 -1.653,0 0,11.513 3.426,0 c 1.815,0 3.024,-1.292 3.024,-3.233 0,-2.1 -1.088,-3.23 -3.024,-3.23"
         style="fill:#231f20;fill-opacity:1;fill-rule:nonzero;stroke:none"
         id="path5081"
         inkscape:connector-curvature="0" />
    </g>
    <g
       id="g5083"
       transform="matrix(1.25,0,0,-1.25,298.2655,489.91808)">
      <path
         d="m 0,0 c -0.609,-1.778 -0.852,-3.313 -0.934,-5.413 l -1.621,0 0,0.242 c 0,1.171 0.282,3.07 0.688,4.604 0.486,1.859 1.095,3.233 2.232,5.05 l -4.342,0 0,1.617 6.452,0 0,-1.617 C 1.459,3.312 0.648,1.858 0,0"
         style="fill:#231f20;fill-opacity:1;fill-rule:nonzero;stroke:none"
         id="path5085"
         inkscape:connector-curvature="0" />
    </g>
    <g
       id="g5087"
       transform="matrix(1.25,0,0,-1.25,259.10787,485.87808)">
      <path
         d="M 0,0 -2.758,-4.324 0,-4.324 0,0 z m 1.666,-5.858 0,-2.787 -1.666,0 0,2.787 -4.785,0 0,1.171 4.785,7.555 1.666,0 0,-7.192 0.687,0 0,-1.534 -0.687,0 z"
         style="fill:#231f20;fill-opacity:1;fill-rule:nonzero;stroke:none"
         id="path5089"
         inkscape:connector-curvature="0" />
    </g>
    <path
       d="m 287.3895,488.85633 5.04125,0 0,1.91875 -5.04125,0 0,-1.91875 z"
       style="fill:#231f20;fill-opacity:1;fill-rule:nonzero;stroke:none"
       id="path5091"
       inkscape:connector-curvature="0" />
  </g>
</svg>
