<?xml version="1.0" encoding="UTF-8" standalone="no"?>
<!-- Created with Inkscape (http://www.inkscape.org/) -->

<svg
   xmlns:dc="http://purl.org/dc/elements/1.1/"
   xmlns:cc="http://creativecommons.org/ns#"
   xmlns:rdf="http://www.w3.org/1999/02/22-rdf-syntax-ns#"
   xmlns:svg="http://www.w3.org/2000/svg"
   xmlns="http://www.w3.org/2000/svg"
   xmlns:sodipodi="http://sodipodi.sourceforge.net/DTD/sodipodi-0.dtd"
   xmlns:inkscape="http://www.inkscape.org/namespaces/inkscape"
   width="87.441254"
   height="109.145"
   id="svg8026"
   version="1.1"
   inkscape:version="0.48.1 "
   sodipodi:docname="New document 38">
  <defs
     id="defs8028">
    <clipPath
       clipPathUnits="userSpaceOnUse"
       id="clipPath4231">
      <path
         inkscape:connector-curvature="0"
         d="m 27,65.641 513.335,0 0,672.359 L 27,738 27,65.641 z"
         id="path4233" />
    </clipPath>
  </defs>
  <sodipodi:namedview
     id="base"
     pagecolor="#ffffff"
     bordercolor="#666666"
     borderopacity="1.0"
     inkscape:pageopacity="0.0"
     inkscape:pageshadow="2"
     inkscape:zoom="0.35"
     inkscape:cx="10.149195"
     inkscape:cy="0.28678238"
     inkscape:document-units="px"
     inkscape:current-layer="layer1"
     showgrid="false"
     fit-margin-top="0"
     fit-margin-left="0"
     fit-margin-right="0"
     fit-margin-bottom="0"
     inkscape:window-width="469"
     inkscape:window-height="403"
     inkscape:window-x="845"
     inkscape:window-y="99"
     inkscape:window-maximized="0" />
  <metadata
     id="metadata8031">
    <rdf:RDF>
      <cc:Work
         rdf:about="">
        <dc:format>image/svg+xml</dc:format>
        <dc:type
           rdf:resource="http://purl.org/dc/dcmitype/StillImage" />
        <dc:title></dc:title>
      </cc:Work>
    </rdf:RDF>
  </metadata>
  <g
     inkscape:label="Layer 1"
     inkscape:groupmode="layer"
     id="layer1"
     transform="translate(-364.85081,-423.50397)">
    <g
       transform="matrix(1.25,0,0,-1.25,134.16118,632.61859)"
       id="g4227">
      <g
         id="g4229"
         clip-path="url(#clipPath4231)">
        <g
           id="g4235"
           transform="translate(254.2547,84.5667)">
          <path
             inkscape:connector-curvature="0"
             d="m 0,0 c 0,-2.399 -1.943,-4.341 -4.341,-4.341 l -60.771,0 c -2.398,0 -4.341,1.942 -4.341,4.341 l 0,78.134 c 0,2.399 1.943,4.341 4.341,4.341 l 60.771,0 C -1.943,82.475 0,80.533 0,78.134 L 0,0 z"
             style="fill:#ffffff;fill-opacity:1;fill-rule:nonzero;stroke:none"
             id="path4237" />
        </g>
        <g
           id="g4239"
           transform="translate(254.2547,84.5667)">
          <path
             inkscape:connector-curvature="0"
             d="m 0,0 c 0,-2.399 -1.943,-4.341 -4.341,-4.341 l -60.771,0 c -2.398,0 -4.341,1.942 -4.341,4.341 l 0,78.134 c 0,2.399 1.943,4.341 4.341,4.341 l 60.771,0 C -1.943,82.475 0,80.533 0,78.134 L 0,0 z"
             style="fill:none;stroke:#231f20;stroke-width:0.5;stroke-linecap:butt;stroke-linejoin:miter;stroke-miterlimit:4;stroke-opacity:1;stroke-dasharray:none"
             id="path4241" />
        </g>
        <g
           id="g4243"
           transform="translate(251.3607,84.5667)">
          <path
             inkscape:connector-curvature="0"
             d="m 0,0 c 0,-0.798 -0.648,-1.448 -1.447,-1.448 l -60.771,0 c -0.798,0 -1.448,0.65 -1.448,1.448 l 0,78.134 c 0,0.799 0.65,1.448 1.448,1.448 l 60.771,0 C -0.648,79.582 0,78.933 0,78.134 L 0,0 z m -1.447,81.389 -60.771,0 c -1.795,0 -3.255,-1.459 -3.255,-3.255 l 0,-78.134 c 0,-1.796 1.46,-3.255 3.255,-3.255 l 60.771,0 c 1.796,0 3.256,1.459 3.256,3.255 l 0,78.134 c 0,1.796 -1.46,3.255 -3.256,3.255"
             style="fill:#231f20;fill-opacity:1;fill-rule:nonzero;stroke:none"
             id="path4245" />
        </g>
        <g
           id="g4247"
           transform="translate(194.7017,151.3936)">
          <path
             inkscape:connector-curvature="0"
             d="m 0,0 c -0.015,-0.563 -0.1,-1.05 -0.255,-1.461 -0.378,-0.973 -1.064,-1.459 -2.06,-1.459 -1.15,0 -1.918,0.636 -2.303,1.912 -0.239,0.795 -0.359,2.126 -0.359,3.996 0,1.914 0.154,3.31 0.462,4.181 0.41,1.153 1.143,1.726 2.2,1.726 0.795,0 1.412,-0.322 1.851,-0.972 C -0.154,7.477 0,7.061 0,6.675 l -1.515,0 c -0.208,0.476 -0.475,0.714 -0.798,0.714 -0.771,0 -1.158,-1.468 -1.158,-4.401 0,-1.485 0.058,-2.525 0.174,-3.127 0.169,-0.85 0.497,-1.276 0.984,-1.276 0.501,0 0.77,0.473 0.809,1.415 L 0,0 z"
             style="fill:#231f20;fill-opacity:1;fill-rule:nonzero;stroke:none"
             id="path4249" />
        </g>
        <g
           id="g4251"
           transform="translate(200.3617,157.0406)">
          <path
             inkscape:connector-curvature="0"
             d="m 0,0 c 0,1.08 -0.33,1.62 -0.992,1.62 l -0.97,0 0,-3.125 0.935,0 C -0.342,-1.505 0,-1.003 0,0 m 1.508,-8.447 -1.538,0 -1.203,5.434 -0.729,0 0,-5.434 -1.504,0 0,11.575 2.082,0 c 0.655,0 1.21,-0.139 1.666,-0.416 0.817,-0.51 1.226,-1.412 1.226,-2.709 0,-1.334 -0.423,-2.228 -1.266,-2.674 l 1.266,-5.776 z"
             style="fill:#231f20;fill-opacity:1;fill-rule:nonzero;stroke:none"
             id="path4253" />
        </g>
        <g
           id="g4255"
           transform="translate(206.0457,158.7826)">
          <path
             inkscape:connector-curvature="0"
             d="m 0,0 c -0.454,0 -0.771,-0.405 -0.947,-1.218 -0.139,-0.656 -0.208,-1.716 -0.208,-3.183 0,-1.291 0.026,-2.155 0.081,-2.594 0.161,-1.206 0.519,-1.809 1.074,-1.809 0.54,0 0.891,0.603 1.052,1.809 0.069,0.508 0.103,1.373 0.103,2.594 0,1.467 -0.069,2.527 -0.208,3.183 C 0.77,-0.405 0.455,0 0,0 m 0,1.506 c 1.073,0 1.807,-0.544 2.2,-1.634 0.309,-0.849 0.463,-2.274 0.463,-4.273 0,-1.955 -0.14,-3.344 -0.417,-4.172 C 1.852,-9.731 1.104,-10.309 0,-10.309 c -1.127,0 -1.883,0.602 -2.269,1.806 -0.262,0.813 -0.394,2.178 -0.394,4.102 0,1.961 0.166,3.387 0.498,4.273 0.409,1.09 1.131,1.634 2.165,1.634"
             style="fill:#231f20;fill-opacity:1;fill-rule:nonzero;stroke:none"
             id="path4257" />
        </g>
        <g
           id="g4259"
           transform="translate(215.1917,151.0336)">
          <path
             inkscape:connector-curvature="0"
             d="m 0,0 c 0,-0.703 -0.196,-1.287 -0.589,-1.75 -0.448,-0.54 -1.095,-0.81 -1.944,-0.81 -1.049,0 -1.769,0.501 -2.162,1.505 -0.163,0.418 -0.256,0.922 -0.279,1.508 l 1.503,0 c 0.047,-1.005 0.358,-1.508 0.936,-1.508 0.686,0 1.028,0.354 1.028,1.055 0,0.944 -0.286,1.787 -0.856,2.537 -0.524,0.602 -1.049,1.204 -1.574,1.807 -0.569,0.75 -0.856,1.6 -0.856,2.549 0,0.479 0.178,0.954 0.533,1.425 0.456,0.616 1.073,0.93 1.853,0.937 C -1.404,9.263 -0.702,8.82 -0.3,7.924 -0.13,7.555 -0.03,7.11 0,6.594 l -1.504,0 C -1.558,7.363 -1.859,7.749 -2.407,7.749 -2.653,7.749 -2.861,7.662 -3.031,7.494 -3.201,7.323 -3.285,7.123 -3.285,6.893 -3.285,6.219 -3,5.555 -2.429,4.899 -1.395,3.695 -0.872,3.081 -0.855,3.057 -0.285,2.192 0,1.172 0,0"
             style="fill:#231f20;fill-opacity:1;fill-rule:nonzero;stroke:none"
             id="path4261" />
        </g>
        <g
           id="g4263"
           transform="translate(221.3267,151.0336)">
          <path
             inkscape:connector-curvature="0"
             d="m 0,0 c 0,-0.703 -0.196,-1.287 -0.59,-1.75 -0.447,-0.54 -1.094,-0.81 -1.942,-0.81 -1.05,0 -1.77,0.501 -2.164,1.505 -0.162,0.418 -0.254,0.922 -0.277,1.508 l 1.501,0 c 0.046,-1.005 0.359,-1.508 0.937,-1.508 0.686,0 1.028,0.354 1.028,1.055 0,0.944 -0.285,1.787 -0.856,2.537 -0.524,0.602 -1.049,1.204 -1.573,1.807 -0.572,0.75 -0.857,1.6 -0.857,2.549 0,0.479 0.178,0.954 0.533,1.425 0.455,0.616 1.073,0.93 1.852,0.937 C -1.404,9.263 -0.702,8.82 -0.301,7.924 -0.131,7.555 -0.031,7.11 0,6.594 l -1.504,0 C -1.557,7.363 -1.858,7.749 -2.406,7.749 -2.652,7.749 -2.86,7.662 -3.03,7.494 -3.2,7.323 -3.285,7.123 -3.285,6.893 -3.285,6.219 -3,5.555 -2.43,4.899 -1.395,3.695 -0.871,3.081 -0.856,3.057 -0.285,2.192 0,1.172 0,0"
             style="fill:#231f20;fill-opacity:1;fill-rule:nonzero;stroke:none"
             id="path4265" />
        </g>
        <g
           id="g4267"
           transform="translate(229.6557,160.1686)">
          <path
             inkscape:connector-curvature="0"
             d="m 0,0 -1.388,-11.575 -1.274,0 -1.042,6.239 -1.042,-6.239 -1.273,0 L -7.409,0 -5.891,0 -5.244,-5.418 -4.341,0 -3.067,0 -2.164,-5.418 -1.516,0 0,0 z"
             style="fill:#231f20;fill-opacity:1;fill-rule:nonzero;stroke:none"
             id="path4269" />
        </g>
        <g
           id="g4271"
           transform="translate(234.1467,152.9946)">
          <path
             inkscape:connector-curvature="0"
             d="M 0,0 -0.671,3.274 -1.354,0 0,0 z m 2.455,-4.401 -1.552,0 -0.59,2.893 -1.968,0 -0.602,-2.893 -1.539,0 2.373,11.575 1.505,0 2.373,-11.575 z"
             style="fill:#231f20;fill-opacity:1;fill-rule:nonzero;stroke:none"
             id="path4273" />
        </g>
        <g
           id="g4275"
           transform="translate(242.6187,148.5936)">
          <path
             inkscape:connector-curvature="0"
             d="m 0,0 -4.399,0 0,11.575 1.508,0 0,-10.068 L 0,1.507 0,0 z"
             style="fill:#231f20;fill-opacity:1;fill-rule:nonzero;stroke:none"
             id="path4277" />
        </g>
        <g
           id="g4279"
           transform="translate(249.3327,148.5936)">
          <path
             inkscape:connector-curvature="0"
             d="m 0,0 -1.55,0 -1.4,5.313 -0.637,-1.353 0,-3.96 -1.507,0 0,11.575 1.507,0 0,-4.075 1.909,4.075 1.678,0 L -1.957,7.444 0,0 z"
             style="fill:#231f20;fill-opacity:1;fill-rule:nonzero;stroke:none"
             id="path4281" />
        </g>
        <g
           id="g4283"
           transform="translate(206.8037,129.3796)">
          <path
             inkscape:connector-curvature="0"
             d="m 0,0 c 0,-1.301 -0.469,-2.367 -1.405,-3.195 -0.936,-0.831 -2.089,-1.247 -3.461,-1.247 -1.738,0 -3.089,0.627 -4.054,1.88 -0.406,0.522 -0.715,1.148 -0.928,1.881 l 2.146,0.679 c 0.395,-1.418 1.352,-2.127 2.869,-2.127 0.647,0 1.217,0.187 1.711,0.564 0.541,0.415 0.81,0.935 0.81,1.563 0,0.82 -0.613,1.469 -1.838,1.953 -1.138,0.442 -2.278,0.887 -3.417,1.329 -1.226,0.715 -1.839,1.755 -1.839,3.124 0,1.167 0.337,2.088 1.012,2.764 0.772,0.763 1.933,1.143 3.485,1.143 2.024,0 3.478,-0.973 4.365,-2.92 L -2.699,6.713 c -0.415,0.858 -1.147,1.286 -2.197,1.286 -1.466,0 -2.199,-0.528 -2.199,-1.591 0,-0.684 0.613,-1.233 1.839,-1.648 C -3.335,4.103 -2.197,3.665 -1.839,3.443 -0.614,2.671 0,1.525 0,0"
             style="fill:#231f20;fill-opacity:1;fill-rule:nonzero;stroke:none"
             id="path4285" />
        </g>
        <g
           id="g4287"
           transform="translate(216.9327,137.2375)">
          <path
             inkscape:connector-curvature="0"
             d="m 0,0 -3.325,0 0,-12.158 -2.31,0 0,12.158 -3.337,0 0,2.313 L 0,2.313 0,0 z"
             style="fill:#231f20;fill-opacity:1;fill-rule:nonzero;stroke:none"
             id="path4289" />
        </g>
        <g
           id="g4291"
           transform="translate(226.7637,132.3146)">
          <path
             inkscape:connector-curvature="0"
             d="M 0,0 C 0,1.476 -0.218,2.658 -0.653,3.545 -1.145,4.557 -1.868,5.064 -2.825,5.064 -3.789,5.064 -4.514,4.557 -4.996,3.545 -5.431,2.666 -5.648,1.486 -5.648,0 c 0,-1.476 0.217,-2.658 0.652,-3.544 0.493,-1.013 1.216,-1.52 2.171,-1.52 0.957,0 1.68,0.507 2.172,1.52 C -0.218,-2.658 0,-1.476 0,0 m 2.31,0 c 0,-1.947 -0.347,-3.572 -1.041,-4.875 -0.896,-1.666 -2.261,-2.502 -4.094,-2.502 -1.841,0 -3.206,0.836 -4.092,2.502 -0.696,1.293 -1.042,2.917 -1.042,4.875 0,1.958 0.346,3.582 1.042,4.874 0.886,1.667 2.251,2.502 4.092,2.502 1.833,0 3.198,-0.835 4.094,-2.502 C 1.963,3.573 2.31,1.947 2.31,0"
             style="fill:#231f20;fill-opacity:1;fill-rule:nonzero;stroke:none"
             id="path4293" />
        </g>
        <g
           id="g4295"
           transform="translate(239.7897,135.5296)">
          <path
             inkscape:connector-curvature="0"
             d="m 0,0 c 0,0.473 -0.191,0.875 -0.574,1.209 -0.383,0.334 -0.82,0.499 -1.313,0.499 l -3.338,0 0,-3.475 3.338,0 c 0.493,0 0.93,0.173 1.313,0.521 C -0.191,-0.898 0,-0.484 0,0 M 2.311,0 C 2.311,-1.09 1.888,-2.043 1.043,-2.857 0.197,-3.673 -0.781,-4.08 -1.893,-4.08 l -3.332,0 0,-6.37 -2.311,0 0,14.471 5.647,0 c 1.12,0 2.1,-0.396 2.94,-1.188 C 1.891,2.043 2.311,1.099 2.311,0"
             style="fill:#231f20;fill-opacity:1;fill-rule:nonzero;stroke:none"
             id="path4297" />
        </g>
        <g
           id="g4299"
           transform="translate(198.8727,114.9516)">
          <path
             inkscape:connector-curvature="0"
             d="m 0,0 c 0,1.182 -0.175,2.131 -0.522,2.842 -0.394,0.812 -0.974,1.217 -1.739,1.217 -0.774,0 -1.353,-0.405 -1.74,-1.217 C -4.349,2.139 -4.522,1.192 -4.522,0 c 0,-1.183 0.173,-2.13 0.521,-2.843 0.395,-0.811 0.974,-1.217 1.74,-1.217 0.765,0 1.345,0.406 1.739,1.217 C -0.175,-2.13 0,-1.183 0,0 m 1.848,0 c 0,-1.56 -0.278,-2.861 -0.833,-3.904 -0.718,-1.337 -1.811,-2.005 -3.276,-2.005 -1.475,0 -2.566,0.668 -3.276,2.005 -0.557,1.035 -0.834,2.337 -0.834,3.904 0,1.569 0.277,2.869 0.834,3.903 0.71,1.337 1.801,2.005 3.276,2.005 1.465,0 2.558,-0.668 3.276,-2.005 C 1.57,2.86 1.848,1.559 1.848,0"
             style="fill:#231f20;fill-opacity:1;fill-rule:nonzero;stroke:none"
             id="path4301" />
        </g>
        <g
           id="g4303"
           transform="translate(211.1237,109.1646)">
          <path
             inkscape:connector-curvature="0"
             d="m 0,0 -1.771,0 -4.228,7.674 0,-7.674 -1.849,0 0,11.575 1.796,0 4.203,-7.63 0,7.63 1.849,0 L 0,0 z"
             style="fill:#231f20;fill-opacity:1;fill-rule:nonzero;stroke:none"
             id="path4305" />
        </g>
        <g
           id="g4307"
           transform="translate(225.5717,117.5216)">
          <path
             inkscape:connector-curvature="0"
             d="M 0,0 C 0,0.386 -0.129,0.712 -0.387,0.975 -0.646,1.238 -0.969,1.37 -1.355,1.37 l -2.664,0 0,-2.784 2.664,0 c 0.386,0 0.709,0.137 0.968,0.411 C -0.129,-0.728 0,-0.394 0,0 m 2.003,-8.357 -1.958,0 -1.864,5.094 -2.2,0 0,-5.094 -1.849,0 0,11.575 4.5,0 c 0.887,0 1.645,-0.315 2.275,-0.943 C 1.534,1.645 1.849,0.887 1.849,0 c 0,-1.296 -0.612,-2.269 -1.836,-2.918 l 1.99,-5.439 z"
             style="fill:#231f20;fill-opacity:1;fill-rule:nonzero;stroke:none"
             id="path4309" />
        </g>
        <g
           id="g4311"
           transform="translate(236.7197,109.1646)">
          <path
             inkscape:connector-curvature="0"
             d="m 0,0 -7.176,0 0,11.575 6.944,0 0,-1.848 -5.096,0 0,-2.784 3.522,0 0,-1.849 -3.522,0 0,-3.246 L 0,1.848 0,0 z"
             style="fill:#231f20;fill-opacity:1;fill-rule:nonzero;stroke:none"
             id="path4313" />
        </g>
        <g
           id="g4315"
           transform="translate(244.7057,114.9516)">
          <path
             inkscape:connector-curvature="0"
             d="M 0,0 C 0,1.715 -0.328,2.869 -0.984,3.465 -1.331,3.779 -1.842,3.94 -2.513,3.94 l -1.657,0 0,-7.879 1.61,0 c 0.68,0 1.198,0.159 1.552,0.476 C -0.335,-2.869 0,-1.716 0,0 m 1.85,0 c 0,-2.455 -0.645,-4.144 -1.933,-5.07 -0.671,-0.479 -1.496,-0.717 -2.476,-0.717 l -3.459,0 0,11.575 3.459,0 c 0.98,0 1.805,-0.244 2.476,-0.729 C 1.205,4.14 1.85,2.453 1.85,0"
             style="fill:#231f20;fill-opacity:1;fill-rule:nonzero;stroke:none"
             id="path4317" />
        </g>
        <path
           inkscape:connector-curvature="0"
           d="m 252.327,143.169 -65.597,0 0,1.807 65.597,0 0,-1.807 z"
           style="fill:#231f20;fill-opacity:1;fill-rule:evenodd;stroke:none"
           id="path4319" />
        <g
           id="g4321"
           transform="translate(219.5277,105.5475)">
          <path
             inkscape:connector-curvature="0"
             d="m 0,0 c 5.181,0 9.406,-4.227 9.406,-9.406 0,-5.18 -4.225,-9.405 -9.406,-9.405 -5.18,0 -9.405,4.225 -9.405,9.405 C -9.405,-4.227 -5.18,0 0,0"
             style="fill:#bf2519;fill-opacity:1;fill-rule:evenodd;stroke:none"
             id="path4323" />
        </g>
      </g>
    </g>
  </g>
</svg>
