<?xml version="1.0" encoding="UTF-8" standalone="no"?>
<!-- Created with Inkscape (http://www.inkscape.org/) -->

<svg
   xmlns:dc="http://purl.org/dc/elements/1.1/"
   xmlns:cc="http://creativecommons.org/ns#"
   xmlns:rdf="http://www.w3.org/1999/02/22-rdf-syntax-ns#"
   xmlns:svg="http://www.w3.org/2000/svg"
   xmlns="http://www.w3.org/2000/svg"
   xmlns:sodipodi="http://sodipodi.sourceforge.net/DTD/sodipodi-0.dtd"
   xmlns:inkscape="http://www.inkscape.org/namespaces/inkscape"
   width="109.145"
   height="130.85126"
   id="svg6144"
   version="1.1"
   inkscape:version="0.48.1 "
   sodipodi:docname="New document 18">
  <defs
     id="defs6146">
    <clipPath
       clipPathUnits="userSpaceOnUse"
       id="clipPath3799">
      <path
         inkscape:connector-curvature="0"
         d="m 27,65.641 513.335,0 0,672.359 L 27,738 27,65.641 z"
         id="path3801" />
    </clipPath>
    <clipPath
       clipPathUnits="userSpaceOnUse"
       id="clipPath3787">
      <path
         inkscape:connector-curvature="0"
         d="m 31.333,65.641 504.669,0 0,672.359 -504.669,0 0,-672.359 z"
         id="path3789" />
    </clipPath>
    <clipPath
       clipPathUnits="userSpaceOnUse"
       id="clipPath3775">
      <path
         inkscape:connector-curvature="0"
         d="m 27,65.641 513.335,0 0,672.359 L 27,738 27,65.641 z"
         id="path3777" />
    </clipPath>
  </defs>
  <sodipodi:namedview
     id="base"
     pagecolor="#ffffff"
     bordercolor="#666666"
     borderopacity="1.0"
     inkscape:pageopacity="0.0"
     inkscape:pageshadow="2"
     inkscape:zoom="0.35"
     inkscape:cx="166.71536"
     inkscape:cy="56.854167"
     inkscape:document-units="px"
     inkscape:current-layer="layer1"
     showgrid="false"
     fit-margin-top="0"
     fit-margin-left="0"
     fit-margin-right="0"
     fit-margin-bottom="0"
     inkscape:window-width="469"
     inkscape:window-height="403"
     inkscape:window-x="75"
     inkscape:window-y="75"
     inkscape:window-maximized="0" />
  <metadata
     id="metadata6149">
    <rdf:RDF>
      <cc:Work
         rdf:about="">
        <dc:format>image/svg+xml</dc:format>
        <dc:type
           rdf:resource="http://purl.org/dc/dcmitype/StillImage" />
        <dc:title></dc:title>
      </cc:Work>
    </rdf:RDF>
  </metadata>
  <g
     inkscape:label="Layer 1"
     inkscape:groupmode="layer"
     id="layer1"
     transform="translate(-208.28464,-458.3651)">
    <g
       transform="matrix(1.25,0,0,-1.25,-352.57136,1192.6746)"
       id="g3771">
      <g
         id="g3773"
         clip-path="url(#clipPath3775)">
        <g
           id="g3779"
           transform="translate(535.7508,488.4416)">
          <path
             inkscape:connector-curvature="0"
             d="m 0,0 c 0,-2.997 -2.43,-5.425 -5.426,-5.425 l -75.965,0 c -2.996,0 -5.425,2.428 -5.425,5.425 l 0,93.329 c 0,2.998 2.429,5.427 5.425,5.427 l 75.965,0 C -2.43,98.756 0,96.327 0,93.329 L 0,0 z"
             style="fill:#ffffff;fill-opacity:1;fill-rule:nonzero;stroke:none"
             id="path3781" />
        </g>
      </g>
    </g>
    <g
       transform="matrix(1.25,0,0,-1.25,-352.57136,1192.6746)"
       id="g3783">
      <g
         id="g3785"
         clip-path="url(#clipPath3787)">
        <g
           id="g3791"
           transform="translate(535.7508,488.4416)">
          <path
             inkscape:connector-curvature="0"
             d="m 0,0 c 0,-2.997 -2.43,-5.425 -5.426,-5.425 l -75.965,0 c -2.996,0 -5.425,2.428 -5.425,5.425 l 0,93.329 c 0,2.998 2.429,5.427 5.425,5.427 l 75.965,0 C -2.43,98.756 0,96.327 0,93.329 L 0,0 z"
             style="fill:none;stroke:#231f20;stroke-width:0.5;stroke-linecap:butt;stroke-linejoin:miter;stroke-miterlimit:4;stroke-opacity:1;stroke-dasharray:none"
             id="path3793" />
        </g>
      </g>
    </g>
    <g
       transform="matrix(1.25,0,0,-1.25,-352.57136,1192.6746)"
       id="g3795">
      <g
         id="g3797"
         clip-path="url(#clipPath3799)">
        <g
           id="g3803"
           transform="translate(532.1337,488.4416)">
          <path
             inkscape:connector-curvature="0"
             d="m 0,0 c 0,-0.998 -0.811,-1.808 -1.809,-1.808 l -75.965,0 c -0.998,0 -1.808,0.81 -1.808,1.808 l 0,93.329 c 0,0.998 0.81,1.81 1.808,1.81 l 75.965,0 C -0.811,95.139 0,94.327 0,93.329 L 0,0 z m -1.809,97.308 -75.965,0 c -2.193,0 -3.98,-1.784 -3.98,-3.979 l 0,-93.329 c 0,-2.194 1.787,-3.98 3.98,-3.98 l 75.965,0 c 2.194,0 3.979,1.786 3.979,3.98 l 0,93.329 c 0,2.195 -1.785,3.979 -3.979,3.979"
             style="fill:#231f20;fill-opacity:1;fill-rule:nonzero;stroke:none"
             id="path3805" />
        </g>
        <g
           id="g3807"
           transform="translate(473.2468,569.8336)">
          <path
             inkscape:connector-curvature="0"
             d="m 0,0 -1.416,0 -2.834,6.553 0,-6.553 -1.416,0 0,10.129 1.418,0 2.836,-6.543 -0.004,6.543 1.416,0 L 0,0 z"
             style="fill:#231f20;fill-opacity:1;fill-rule:nonzero;stroke:none"
             id="path3809" />
        </g>
        <g
           id="g3811"
           transform="translate(479.8307,574.8976)">
          <path
             inkscape:connector-curvature="0"
             d="M 0,0 C 0,0.865 -0.088,1.618 -0.264,2.26 -0.527,3.252 -0.963,3.748 -1.572,3.748 -2.18,3.748 -2.617,3.252 -2.881,2.26 -3.057,1.618 -3.144,0.865 -3.144,0 c 0,-0.864 0.087,-1.617 0.263,-2.258 0.264,-0.994 0.701,-1.49 1.309,-1.49 0.609,0 1.045,0.496 1.308,1.49 C -0.088,-1.617 0,-0.864 0,0 m 1.418,0 c 0,-1.242 -0.143,-2.272 -0.426,-3.088 -0.486,-1.384 -1.342,-2.077 -2.564,-2.077 -1.223,0 -2.076,0.693 -2.563,2.077 C -4.42,-2.272 -4.56,-1.242 -4.56,0 c 0,3.443 0.996,5.165 2.988,5.165 1.992,0 2.99,-1.722 2.99,-5.165"
             style="fill:#231f20;fill-opacity:1;fill-rule:nonzero;stroke:none"
             id="path3813" />
        </g>
        <g
           id="g3815"
           transform="translate(494.7217,578.5456)">
          <path
             inkscape:connector-curvature="0"
             d="m 0,0 -1.869,0 0,-8.712 -1.418,0 0,8.712 -1.879,0 0,1.417 L 0,1.417 0,0 z"
             style="fill:#231f20;fill-opacity:1;fill-rule:nonzero;stroke:none"
             id="path3817" />
        </g>
        <g
           id="g3819"
           transform="translate(501.8098,572.5686)">
          <path
             inkscape:connector-curvature="0"
             d="m 0,0 c 0,-0.783 -0.276,-1.451 -0.825,-2.005 -0.55,-0.554 -1.22,-0.831 -2.007,-0.831 -0.784,0 -1.452,0.277 -2.004,0.831 -0.555,0.554 -0.83,1.222 -0.83,2.005 l 0,7.394 1.416,0 0,-7.395 c 0,-0.391 0.136,-0.725 0.41,-1.002 0.273,-0.277 0.609,-0.416 1.008,-0.416 0.384,0 0.714,0.139 0.996,0.416 0.279,0.277 0.42,0.611 0.42,1.002 l 0,7.395 L 0,7.394 0,0 z"
             style="fill:#231f20;fill-opacity:1;fill-rule:nonzero;stroke:none"
             id="path3821" />
        </g>
        <g
           id="g3823"
           transform="translate(508.2938,577.2286)">
          <path
             inkscape:connector-curvature="0"
             d="m 0,0 c 0,0.837 -0.348,1.276 -1.043,1.317 l -1.791,0 0,-2.633 1.791,0 C -0.348,-1.275 0,-0.836 0,0 m 1.416,-7.395 -1.467,0 -1.336,4.663 -1.447,0 0,-4.663 -1.416,0 0,10.129 3.137,0 C -0.574,2.687 -0.27,2.656 -0.203,2.643 0.262,2.534 0.627,2.312 0.891,1.974 1.24,1.521 1.416,0.863 1.416,0 c 0,-1.25 -0.467,-2.074 -1.402,-2.473 l 1.402,-4.922 z"
             style="fill:#231f20;fill-opacity:1;fill-rule:nonzero;stroke:none"
             id="path3825" />
        </g>
        <g
           id="g3827"
           transform="translate(517.1038,569.8336)">
          <path
             inkscape:connector-curvature="0"
             d="m 0,0 -1.416,0 -2.834,6.553 0,-6.553 -1.417,0 0,10.129 1.417,0 2.836,-6.543 -0.002,6.543 1.416,0 L 0,0 z"
             style="fill:#231f20;fill-opacity:1;fill-rule:nonzero;stroke:none"
             id="path3829" />
        </g>
        <g
           id="g3831"
           transform="translate(475.4307,557.5346)">
          <path
             inkscape:connector-curvature="0"
             d="m 0,0 c 0,0.865 -0.088,1.617 -0.264,2.258 -0.264,0.994 -0.701,1.49 -1.311,1.49 -0.607,0 -1.043,-0.496 -1.308,-1.49 C -3.059,1.617 -3.147,0.865 -3.147,0 c 0,-0.864 0.088,-1.617 0.264,-2.26 0.265,-0.992 0.701,-1.488 1.308,-1.488 0.61,0 1.047,0.496 1.311,1.488 C -0.088,-1.617 0,-0.864 0,0 m 1.416,0 c 0,-1.242 -0.141,-2.272 -0.426,-3.088 -0.486,-1.385 -1.34,-2.076 -2.565,-2.076 -1.222,0 -2.076,0.691 -2.562,2.076 -0.285,0.816 -0.426,1.846 -0.426,3.088 0,3.444 0.996,5.165 2.988,5.165 C 0.42,5.165 1.416,3.444 1.416,0"
             style="fill:#231f20;fill-opacity:1;fill-rule:nonzero;stroke:none"
             id="path3833" />
        </g>
        <g
           id="g3835"
           transform="translate(484.5458,552.4706)">
          <path
             inkscape:connector-curvature="0"
             d="m 0,0 -1.418,0 -2.834,6.553 0,-6.553 -1.416,0 0,10.128 1.418,0 2.836,-6.543 -0.004,6.543 1.418,0 L 0,0 z"
             style="fill:#231f20;fill-opacity:1;fill-rule:nonzero;stroke:none"
             id="path3837" />
        </g>
        <g
           id="g3839"
           transform="translate(498.1177,559.8666)">
          <path
             inkscape:connector-curvature="0"
             d="m 0,0 c 0,0.836 -0.347,1.275 -1.043,1.316 l -1.791,0 0,-2.633 1.791,0 C -0.347,-1.277 0,-0.838 0,0 m 1.418,-7.396 -1.469,0 -1.336,4.662 -1.447,0 0,-4.662 -1.416,0 0,10.128 3.137,0 C -0.572,2.685 -0.269,2.655 -0.201,2.641 0.264,2.533 0.629,2.31 0.891,1.972 1.242,1.521 1.418,0.862 1.418,-0.002 c 0,-1.249 -0.469,-2.073 -1.404,-2.472 l 1.404,-4.922 z"
             style="fill:#231f20;fill-opacity:1;fill-rule:nonzero;stroke:none"
             id="path3841" />
        </g>
        <g
           id="g3843"
           transform="translate(506.4288,552.4596)">
          <path
             inkscape:connector-curvature="0"
             d="m 0,0 -5.166,0.011 0,10.128 5.166,0 0,-1.416 -3.75,0 0,-2.633 2.23,0 0,-1.417 -2.23,0 0,-3.245 3.75,0 L 0,0 z"
             style="fill:#231f20;fill-opacity:1;fill-rule:nonzero;stroke:none"
             id="path3845" />
        </g>
        <g
           id="g3847"
           transform="translate(512.3987,557.5296)">
          <path
             inkscape:connector-curvature="0"
             d="m 0,0 c 0,2.435 -0.572,3.653 -1.72,3.653 l -1.112,0 0,-7.306 1.112,0 C -0.572,-3.653 0,-2.435 0,0 M 1.418,0.005 C 1.418,-2.02 1.02,-3.456 0.223,-4.3 -0.261,-4.813 -0.836,-5.07 -1.498,-5.07 l -0.222,0 -2.53,0 0,10.139 2.643,0 c 0.66,0 1.227,-0.216 1.699,-0.648 0.883,-0.81 1.326,-2.283 1.326,-4.416"
             style="fill:#231f20;fill-opacity:1;fill-rule:nonzero;stroke:none"
             id="path3849" />
        </g>
        <g
           id="g3851"
           transform="translate(483.2778,543.8176)">
          <path
             inkscape:connector-curvature="0"
             d="m 0,0 -3.748,0 0,-2.631 2.229,0 0,-1.417 -2.229,0 0,-4.664 -1.416,0 0,10.13 L 0,1.418 0,0 z"
             style="fill:#231f20;fill-opacity:1;fill-rule:nonzero;stroke:none"
             id="path3853" />
        </g>
        <g
           id="g3855"
           transform="translate(488.9457,542.5026)">
          <path
             inkscape:connector-curvature="0"
             d="m 0,0 c 0,0.837 -0.347,1.276 -1.041,1.315 l -1.791,0 0,-2.631 1.791,0 C -0.347,-1.276 0,-0.837 0,0 m 1.418,-7.397 -1.468,0 -1.336,4.664 -1.446,0 0,-4.664 -1.418,0 0,10.13 3.139,0 C -0.572,2.685 -0.269,2.655 -0.201,2.642 0.264,2.534 0.629,2.311 0.893,1.974 1.242,1.521 1.418,0.863 1.418,-0.002 1.418,-1.251 0.95,-2.075 0.016,-2.473 l 1.402,-4.924 z"
             style="fill:#231f20;fill-opacity:1;fill-rule:nonzero;stroke:none"
             id="path3857" />
        </g>
        <g
           id="g3859"
           transform="translate(496.4397,540.1716)">
          <path
             inkscape:connector-curvature="0"
             d="M 0,0 C 0,0.863 -0.087,1.617 -0.261,2.259 -0.525,3.251 -0.962,3.748 -1.572,3.748 -2.179,3.748 -2.617,3.251 -2.88,2.259 -3.056,1.617 -3.144,0.863 -3.144,0 c 0,-0.865 0.088,-1.618 0.264,-2.259 0.263,-0.994 0.701,-1.49 1.308,-1.49 0.61,0 1.047,0.496 1.311,1.49 C -0.087,-1.618 0,-0.865 0,0 m 1.418,0 c 0,-1.243 -0.142,-2.273 -0.425,-3.09 -0.487,-1.385 -1.342,-2.077 -2.565,-2.077 -1.222,0 -2.076,0.692 -2.562,2.077 -0.285,0.817 -0.426,1.847 -0.426,3.09 0,3.442 0.996,5.164 2.988,5.164 1.994,0 2.99,-1.722 2.99,-5.164"
             style="fill:#231f20;fill-opacity:1;fill-rule:nonzero;stroke:none"
             id="path3861" />
        </g>
        <g
           id="g3863"
           transform="translate(506.5707,535.1056)">
          <path
             inkscape:connector-curvature="0"
             d="m 0,0 -1.416,0 0,5.673 L -3.342,0 l -1.923,5.673 0,-5.673 -1.416,0 0,10.13 1.418,0 L -3.34,4.457 -1.416,10.13 0,10.13 0,0 z"
             style="fill:#231f20;fill-opacity:1;fill-rule:nonzero;stroke:none"
             id="path3865" />
        </g>
        <g
           id="g3867"
           transform="translate(468.0828,526.4546)">
          <path
             inkscape:connector-curvature="0"
             d="m 0,0 -1.869,0 0,-8.711 -1.418,0 0,8.711 -1.879,0 0,1.416 L 0,1.416 0,0 z"
             style="fill:#231f20;fill-opacity:1;fill-rule:nonzero;stroke:none"
             id="path3869" />
        </g>
        <g
           id="g3871"
           transform="translate(475.1727,517.7436)">
          <path
             inkscape:connector-curvature="0"
             d="m 0,0 -1.418,0 0,4.662 -2.834,0 0,-4.662 -1.416,0 0,10.127 1.416,0 0,-4.049 2.834,0 0,4.049 1.418,0 L 0,0 z"
             style="fill:#231f20;fill-opacity:1;fill-rule:nonzero;stroke:none"
             id="path3873" />
        </g>
        <path
           inkscape:connector-curvature="0"
           d="m 478.821,517.744 -1.416,0 0,10.127 1.416,0 0,-10.127 z"
           style="fill:#231f20;fill-opacity:1;fill-rule:nonzero;stroke:none"
           id="path3875" />
        <g
           id="g3877"
           transform="translate(486.2057,520.5076)">
          <path
             inkscape:connector-curvature="0"
             d="m 0,0 c 0,-0.714 -0.185,-1.333 -0.557,-1.853 -0.478,-0.675 -1.187,-1.012 -2.125,-1.012 -1.052,0 -1.839,0.337 -2.359,1.012 -0.418,0.533 -0.627,1.204 -0.627,2.014 l 1.418,0 c 0,-0.586 0.186,-1.022 0.555,-1.307 0.279,-0.202 0.615,-0.303 1.013,-0.303 0.809,0 1.215,0.483 1.215,1.449 0,0.756 -0.328,1.373 -0.982,1.853 -0.61,0.379 -1.221,0.752 -1.834,1.124 -0.654,0.506 -0.983,1.168 -0.983,1.986 0,0.532 0.149,1.022 0.446,1.468 0.459,0.688 1.195,1.034 2.207,1.034 1.066,0 1.822,-0.4 2.267,-1.195 C -0.162,5.938 -0.047,5.536 0,5.064 l -1.416,0 c 0,0.169 -0.059,0.338 -0.174,0.506 -0.201,0.319 -0.543,0.477 -1.023,0.477 -0.817,0 -1.227,-0.36 -1.227,-1.082 0,-0.4 0.332,-0.798 0.994,-1.197 C -1.859,3.189 -1.242,2.776 -0.992,2.532 -0.33,1.878 0,1.034 0,0"
             style="fill:#231f20;fill-opacity:1;fill-rule:nonzero;stroke:none"
             id="path3879" />
        </g>
        <g
           id="g3881"
           transform="translate(500.1937,517.7436)">
          <path
             inkscape:connector-curvature="0"
             d="m 0,0 -5.166,0 0,10.127 1.416,0 0,-8.711 3.75,0 L 0,0 z"
             style="fill:#231f20;fill-opacity:1;fill-rule:nonzero;stroke:none"
             id="path3883" />
        </g>
        <g
           id="g3885"
           transform="translate(504.8287,521.8926)">
          <path
             inkscape:connector-curvature="0"
             d="M 0,0 -0.791,3.294 -1.59,0 0,0 z m 2.451,-4.149 -1.449,0 -0.658,2.733 -2.277,0 -0.659,-2.733 -1.439,0 2.451,10.127 1.58,0 2.451,-10.127 z"
             style="fill:#231f20;fill-opacity:1;fill-rule:nonzero;stroke:none"
             id="path3887" />
        </g>
        <g
           id="g3889"
           transform="translate(514.3677,517.7436)">
          <path
             inkscape:connector-curvature="0"
             d="m 0,0 -1.416,0 -2.834,6.553 0,-6.553 -1.416,0 0,10.127 1.418,0 2.836,-6.543 -0.004,6.543 1.416,0 L 0,0 z"
             style="fill:#231f20;fill-opacity:1;fill-rule:nonzero;stroke:none"
             id="path3891" />
        </g>
        <g
           id="g3893"
           transform="translate(521.7667,517.7326)">
          <path
             inkscape:connector-curvature="0"
             d="m 0,0 -5.164,0.011 0,10.127 5.164,0 0,-1.416 -3.748,0 0,-2.633 2.228,0 0,-1.416 -2.228,0 0,-3.246 L 0,1.427 0,0 z"
             style="fill:#231f20;fill-opacity:1;fill-rule:nonzero;stroke:none"
             id="path3895" />
        </g>
        <g
           id="g3897"
           transform="translate(509.1747,506.1856)">
          <path
             inkscape:connector-curvature="0"
             d="m 0,0 c -0.108,0 -0.129,-0.021 -0.381,-0.083 l -13.004,-3.16 -0.021,9.012 -6.782,-0.012 0.022,-8.86 -12.959,2.968 c -0.328,0.076 -0.463,0.108 -0.571,0.108 -0.681,-0.001 -1.308,-0.654 -1.306,-1.335 0,-0.272 -0.027,-0.482 0.301,-0.76 L -16.74,-17.382 1.039,-2.091 C 1.32,-1.85 1.338,-1.602 1.338,-1.33 1.336,-0.623 0.709,0.001 0,0"
             style="fill:#231f20;fill-opacity:1;fill-rule:evenodd;stroke:none"
             id="path3899" />
        </g>
      </g>
    </g>
  </g>
</svg>
