<?xml version="1.0" encoding="UTF-8" standalone="no"?>
<!-- Created with Inkscape (http://www.inkscape.org/) -->

<svg
   xmlns:dc="http://purl.org/dc/elements/1.1/"
   xmlns:cc="http://creativecommons.org/ns#"
   xmlns:rdf="http://www.w3.org/1999/02/22-rdf-syntax-ns#"
   xmlns:svg="http://www.w3.org/2000/svg"
   xmlns="http://www.w3.org/2000/svg"
   xmlns:sodipodi="http://sodipodi.sourceforge.net/DTD/sodipodi-0.dtd"
   xmlns:inkscape="http://www.inkscape.org/namespaces/inkscape"
   width="82.245628"
   height="109.45375"
   id="svg25338"
   version="1.1"
   inkscape:version="0.48.1 "
   sodipodi:docname="New document 100">
  <defs
     id="defs25340">
    <clipPath
       clipPathUnits="userSpaceOnUse"
       id="clipPath24320">
      <path
         inkscape:connector-curvature="0"
         d="m 27.125,595.6 512.875,0 0,144.4 -512.875,0 0,-144.4 z"
         id="path24322" />
    </clipPath>
    <clipPath
       clipPathUnits="userSpaceOnUse"
       id="clipPath24308">
      <path
         inkscape:connector-curvature="0"
         d="m 84.893,600.019 397.338,0 0,139.981 -397.338,0 0,-139.981 z"
         id="path24310" />
    </clipPath>
    <clipPath
       clipPathUnits="userSpaceOnUse"
       id="clipPath24296">
      <path
         inkscape:connector-curvature="0"
         d="m 27.125,595.6 512.875,0 0,144.4 -512.875,0 0,-144.4 z"
         id="path24298" />
    </clipPath>
  </defs>
  <sodipodi:namedview
     id="base"
     pagecolor="#ffffff"
     bordercolor="#666666"
     borderopacity="1.0"
     inkscape:pageopacity="0.0"
     inkscape:pageshadow="2"
     inkscape:zoom="0.35"
     inkscape:cx="104.69425"
     inkscape:cy="-13.844508"
     inkscape:document-units="px"
     inkscape:current-layer="layer1"
     showgrid="false"
     fit-margin-top="0"
     fit-margin-left="0"
     fit-margin-right="0"
     fit-margin-bottom="0"
     inkscape:window-width="469"
     inkscape:window-height="403"
     inkscape:window-x="125"
     inkscape:window-y="125"
     inkscape:window-maximized="0" />
  <metadata
     id="metadata25343">
    <rdf:RDF>
      <cc:Work
         rdf:about="">
        <dc:format>image/svg+xml</dc:format>
        <dc:type
           rdf:resource="http://purl.org/dc/dcmitype/StillImage" />
        <dc:title></dc:title>
      </cc:Work>
    </rdf:RDF>
  </metadata>
  <g
     inkscape:label="Layer 1"
     inkscape:groupmode="layer"
     id="layer1"
     transform="translate(-270.30575,-409.06393)">
    <g
       transform="matrix(1.25,0,0,-1.25,-250.23737,1286.7538)"
       id="g24292">
      <g
         id="g24294"
         clip-path="url(#clipPath24296)">
        <g
           id="g24300"
           transform="translate(474.7265,701.9019)">
          <path
             inkscape:connector-curvature="0"
             d="m 0,0 -50.787,0 c -4.007,0 -7.255,-3.249 -7.255,-7.255 l 0,-72.552 c 0,-4.007 3.248,-7.256 7.255,-7.256 l 50.787,0 c 4.006,0 7.255,3.249 7.255,7.256 l 0,72.552 C 7.255,-3.249 4.006,0 0,0"
             style="fill:#ffffff;fill-opacity:1;fill-rule:nonzero;stroke:none"
             id="path24302" />
        </g>
      </g>
    </g>
    <g
       transform="matrix(1.25,0,0,-1.25,-250.23737,1286.7538)"
       id="g24304">
      <g
         id="g24306"
         clip-path="url(#clipPath24308)">
        <g
           id="g24312"
           transform="translate(474.7265,701.9019)">
          <path
             inkscape:connector-curvature="0"
             d="m 0,0 -50.787,0 c -4.007,0 -7.255,-3.249 -7.255,-7.255 l 0,-72.552 c 0,-4.007 3.248,-7.256 7.255,-7.256 l 50.787,0 c 4.006,0 7.255,3.249 7.255,7.256 l 0,72.552 C 7.255,-3.249 4.006,0 0,0 z"
             style="fill:none;stroke:#231f20;stroke-width:0.5;stroke-linecap:butt;stroke-linejoin:miter;stroke-miterlimit:4;stroke-opacity:1;stroke-dasharray:none"
             id="path24314" />
        </g>
      </g>
    </g>
    <g
       transform="matrix(1.25,0,0,-1.25,-250.23737,1286.7538)"
       id="g24316">
      <g
         id="g24318"
         clip-path="url(#clipPath24320)">
        <g
           id="g24324"
           transform="translate(476.5396,622.0946)">
          <path
             inkscape:connector-curvature="0"
             d="M 0,0 C 0,-0.654 -0.333,-1.084 -0.531,-1.282 -0.729,-1.481 -1.16,-1.814 -1.813,-1.814 l -50.787,0 c -0.653,0 -1.084,0.333 -1.282,0.532 -0.199,0.198 -0.532,0.628 -0.532,1.282 l 0,72.552 c 0,0.654 0.333,1.084 0.532,1.283 0.198,0.198 0.629,0.531 1.282,0.531 l 50.787,0 c 0.653,0 1.084,-0.333 1.282,-0.531 C -0.333,73.636 0,73.206 0,72.552 L 0,0 z m 1.393,75.758 c -0.856,0.857 -1.995,1.329 -3.206,1.329 l -50.787,0 c -1.211,0 -2.35,-0.472 -3.206,-1.329 -0.857,-0.856 -1.328,-1.995 -1.328,-3.206 l 0,-72.552 c 0,-1.211 0.471,-2.35 1.328,-3.207 0.856,-0.855 1.995,-1.328 3.206,-1.328 l 50.787,0 c 1.211,0 2.35,0.473 3.206,1.328 C 2.25,-2.349 2.721,-1.211 2.721,0 l 0,72.552 c 0,1.211 -0.471,2.35 -1.328,3.206"
             style="fill:#231f20;fill-opacity:1;fill-rule:nonzero;stroke:none"
             id="path24326" />
        </g>
        <g
           id="g24328"
           transform="translate(458.3795,686.421)">
          <path
             inkscape:connector-curvature="0"
             d="m 0,0 0,3.284 -1.981,0 0,-3.284 -1.042,0 0,7.255 1.042,0 0,-2.953 1.981,0 0,2.953 1.041,0 L 1.041,0 0,0 z"
             style="fill:#231f20;fill-opacity:1;fill-rule:nonzero;stroke:none"
             id="path24330" />
        </g>
        <g
           id="g24332"
           transform="translate(441.3535,692.6578)">
          <path
             inkscape:connector-curvature="0"
             d="m 0,0 -1.067,0 0,-2.062 1.067,0 c 0.609,0 0.939,0.382 0.939,1.044 C 0.939,-0.407 0.559,0 0,0 m 0.051,-3.055 -1.118,0 0,-3.182 -1.042,0 0,7.256 2.16,0 c 1.142,0 1.905,-0.815 1.905,-2.037 0,-1.324 -0.687,-2.037 -1.905,-2.037"
             style="fill:#231f20;fill-opacity:1;fill-rule:nonzero;stroke:none"
             id="path24334" />
        </g>
        <g
           id="g24336"
           transform="translate(452.1236,689.7715)">
          <path
             inkscape:connector-curvature="0"
             d="m 0,0 c -0.313,0.203 -0.618,0.407 -0.812,0.544 -0.585,0.412 -0.896,0.968 -0.896,1.604 0,1.044 0.819,1.884 1.867,1.884 1.023,0 1.815,-0.789 1.84,-1.884 l -0.997,0 c -0.025,0.509 -0.382,0.84 -0.843,0.84 -0.486,0 -0.869,-0.356 -0.869,-0.84 0,-0.356 0.153,-0.56 0.69,-0.865 1.406,-0.815 2.019,-1.604 2.019,-2.648 0,-1.171 -0.894,-2.113 -2.019,-2.113 -1.278,0 -2.045,1.069 -2.045,2.266 l 1.023,0 c 0,-0.611 0.306,-1.248 1.022,-1.248 0.562,0 1.022,0.51 1.022,1.095 C 1.002,-0.91 0.815,-0.527 0,0"
             style="fill:#231f20;fill-opacity:1;fill-rule:nonzero;stroke:none"
             id="path24338" />
        </g>
        <g
           id="g24340"
           transform="translate(448.5456,687.312)">
          <path
             inkscape:connector-curvature="0"
             d="m 0,0 c -0.356,-0.585 -1.042,-1.019 -1.727,-1.019 -0.712,0 -1.423,0.408 -1.779,1.019 -0.203,0.382 -0.279,0.687 -0.279,1.273 l 0,5.091 1.041,0 0,-5.218 C -2.744,0.458 -2.337,0 -1.727,0 c 0.558,0 0.965,0.458 0.965,1.146 l 0,5.218 1.042,0 0,-5.091 C 0.28,0.687 0.203,0.382 0,0"
             style="fill:#231f20;fill-opacity:1;fill-rule:nonzero;stroke:none"
             id="path24342" />
        </g>
        <g
           id="g24344"
           transform="translate(468.4686,653.4225)">
          <path
             inkscape:connector-curvature="0"
             d="m 0,0 -0.51,-2.088 1.046,0 L 0,0 z m 1.302,-5.091 -0.51,1.985 -1.557,0 -0.485,-1.985 -1.047,0 1.813,7.255 1.02,0 1.813,-7.255 -1.047,0 z"
             style="fill:#231f20;fill-opacity:1;fill-rule:nonzero;stroke:none"
             id="path24346" />
        </g>
        <g
           id="g24348"
           transform="translate(447.6616,648.3311)">
          <path
             inkscape:connector-curvature="0"
             d="m 0,0 0,7.255 3.42,0 0,-1.018 -2.374,0 0,-1.833 1.506,0 0,-0.993 -1.506,0 0,-2.393 2.655,0 L 3.701,0 0,0 z"
             style="fill:#231f20;fill-opacity:1;fill-rule:nonzero;stroke:none"
             id="path24350" />
        </g>
        <g
           id="g24352"
           transform="translate(459.1115,654.6187)">
          <path
             inkscape:connector-curvature="0"
             d="m 0,0 0,-6.288 -1.047,0 0,6.288 -1.328,0 0,0.968 3.702,0 L 1.327,0 0,0 z"
             style="fill:#231f20;fill-opacity:1;fill-rule:nonzero;stroke:none"
             id="path24354" />
        </g>
        <g
           id="g24356"
           transform="translate(455.1725,648.3311)">
          <path
             inkscape:connector-curvature="0"
             d="M 0,0 -1.025,2.469 -2.05,0 l -1.103,0 1.59,3.768 -1.487,3.487 1.102,0 0.923,-2.189 0.923,2.189 1.103,0 L -0.461,3.768 1.129,0 0,0 z"
             style="fill:#231f20;fill-opacity:1;fill-rule:nonzero;stroke:none"
             id="path24358" />
        </g>
        <g
           id="g24360"
           transform="translate(428.8956,654.568)">
          <path
             inkscape:connector-curvature="0"
             d="m 0,0 0,-1.833 1.455,0 0,-0.993 -1.455,0 0,-3.411 -1.047,0 0,7.255 3.702,0 L 2.655,0 0,0 z"
             style="fill:#231f20;fill-opacity:1;fill-rule:nonzero;stroke:none"
             id="path24362" />
        </g>
        <g
           id="g24364"
           transform="translate(435.4726,653.7788)">
          <path
             inkscape:connector-curvature="0"
             d="m 0,0 c -0.18,0.636 -0.461,0.917 -0.897,0.917 -0.462,0 -0.744,-0.281 -0.923,-0.892 -0.18,-0.56 -0.232,-1.043 -0.232,-1.858 0,-0.789 0.077,-1.247 0.232,-1.832 0.179,-0.612 0.461,-0.892 0.923,-0.892 0.436,0 0.717,0.28 0.897,0.892 0.18,0.585 0.231,1.018 0.231,1.858 C 0.231,-0.993 0.154,-0.535 0,0 m 0.82,-4.328 c -0.358,-0.865 -0.897,-1.247 -1.717,-1.247 -0.872,0 -1.385,0.382 -1.744,1.247 -0.308,0.713 -0.411,1.4 -0.411,2.521 0,1.094 0.103,1.832 0.411,2.52 0.384,0.865 0.898,1.222 1.744,1.222 0.846,0 1.359,-0.357 1.717,-1.247 0.309,-0.713 0.411,-1.401 0.411,-2.495 0,-1.121 -0.102,-1.833 -0.411,-2.521"
             style="fill:#231f20;fill-opacity:1;fill-rule:nonzero;stroke:none"
             id="path24366" />
        </g>
        <g
           id="g24368"
           transform="translate(440.2635,654.568)">
          <path
             inkscape:connector-curvature="0"
             d="m 0,0 -1.067,0 0,-1.833 1.067,0 c 0.609,0 0.94,0.331 0.94,0.916 C 0.94,-0.357 0.559,0 0,0 m 0.889,-6.237 -0.965,3.411 -0.991,0 0,-3.411 -1.042,0 0,7.255 2.16,0 c 1.142,0 1.905,-0.764 1.905,-1.935 0,-0.865 -0.355,-1.502 -1.042,-1.756 l 1.042,-3.564 -1.067,0 z"
             style="fill:#231f20;fill-opacity:1;fill-rule:nonzero;stroke:none"
             id="path24370" />
        </g>
        <g
           id="g24372"
           transform="translate(463.5635,654.568)">
          <path
             inkscape:connector-curvature="0"
             d="m 0,0 -1.067,0 0,-1.833 1.067,0 c 0.609,0 0.939,0.331 0.939,0.916 C 0.939,-0.357 0.559,0 0,0 m 0.889,-6.237 -0.965,3.411 -0.991,0 0,-3.411 -1.042,0 0,7.255 2.16,0 c 1.142,0 1.905,-0.764 1.905,-1.935 0,-0.865 -0.356,-1.502 -1.042,-1.756 l 1.042,-3.564 -1.067,0 z"
             style="fill:#231f20;fill-opacity:1;fill-rule:nonzero;stroke:none"
             id="path24374" />
        </g>
        <g
           id="g24376"
           transform="translate(454.3405,622.9376)">
          <path
             inkscape:connector-curvature="0"
             d="m 0,0 0,7.255 3.421,0 0,-1.018 -2.374,0 0,-1.833 1.507,0 0,-0.993 -1.507,0 0,-2.392 2.655,0 L 3.702,0 0,0 z"
             style="fill:#231f20;fill-opacity:1;fill-rule:nonzero;stroke:none"
             id="path24378" />
        </g>
        <path
           inkscape:connector-curvature="0"
           d="m 445.341,630.193 1.016,0 0,-7.255 -1.016,0 0,7.255 z"
           style="fill:#231f20;fill-opacity:1;fill-rule:nonzero;stroke:none"
           id="path24380" />
        <g
           id="g24382"
           transform="translate(451.7005,622.9376)">
          <path
             inkscape:connector-curvature="0"
             d="M 0,0 0,4.073 -1.352,0 l -1.351,4.073 0,-4.073 -1.044,0 0,7.255 1.044,0 L -1.352,3.183 0,7.255 1.045,7.255 1.045,0 0,0 z"
             style="fill:#231f20;fill-opacity:1;fill-rule:nonzero;stroke:none"
             id="path24384" />
        </g>
        <g
           id="g24386"
           transform="translate(442.9976,629.2256)">
          <path
             inkscape:connector-curvature="0"
             d="m 0,0 0,-6.288 -1.046,0 0,6.288 -1.329,0 0,0.967 3.703,0 L 1.328,0 0,0 z"
             style="fill:#231f20;fill-opacity:1;fill-rule:nonzero;stroke:none"
             id="path24388" />
        </g>
        <g
           id="g24390"
           transform="translate(433.1175,640.9551)">
          <path
             inkscape:connector-curvature="0"
             d="m 0,0 c -0.103,0.713 -0.384,1.043 -0.87,1.043 -0.843,0 -1.15,-0.661 -1.15,-2.545 0,-2.088 0.358,-2.928 1.252,-2.928 0.614,0 0.768,0.509 0.768,1.044 l 1.047,0 c -0.025,-1.197 -0.792,-2.062 -1.815,-2.062 -1.56,0 -2.249,1.247 -2.249,3.92 0,2.342 0.741,3.59 2.173,3.59 0.588,0 1.099,-0.255 1.432,-0.738 C 0.869,0.967 0.97,0.662 1.047,0 L 0,0 z"
             style="fill:#231f20;fill-opacity:1;fill-rule:nonzero;stroke:none"
             id="path24392" />
        </g>
        <g
           id="g24394"
           transform="translate(468.3615,636.5256)">
          <path
             inkscape:connector-curvature="0"
             d="m 0,0 c -0.281,-0.636 -0.869,-1.018 -1.611,-1.018 -0.869,0 -1.508,0.432 -1.866,1.247 -0.23,0.535 -0.384,1.553 -0.384,2.495 0,1.018 0.078,1.756 0.332,2.444 0.256,0.763 0.998,1.324 1.841,1.324 1.048,0 1.841,-0.764 1.892,-1.833 l -1.048,0 c -0.025,0.483 -0.357,0.814 -0.869,0.814 -0.359,0 -0.639,-0.178 -0.818,-0.535 -0.205,-0.356 -0.333,-1.17 -0.333,-2.036 0,-0.611 0.051,-1.247 0.154,-1.807 C -2.557,0.382 -2.198,0 -1.637,0 -1.1,0 -0.844,0.356 -0.844,1.12 l 0,0.483 -0.818,0 0,1.019 1.866,0 0,-1.502 C 0.204,0.611 0.153,0.306 0,0"
             style="fill:#231f20;fill-opacity:1;fill-rule:nonzero;stroke:none"
             id="path24396" />
        </g>
        <path
           inkscape:connector-curvature="0"
           d="m 456.373,642.89 1.016,0 0,-7.255 -1.016,0 0,7.255 z"
           style="fill:#231f20;fill-opacity:1;fill-rule:nonzero;stroke:none"
           id="path24398" />
        <g
           id="g24400"
           transform="translate(462.2625,635.6345)">
          <path
             inkscape:connector-curvature="0"
             d="m 0,0 -2.235,4.862 0,-4.862 -1.042,0 0,7.255 1.042,0 1.981,-4.353 0,4.353 1.041,0 L 0.787,0 0,0 z"
             style="fill:#231f20;fill-opacity:1;fill-rule:nonzero;stroke:none"
             id="path24402" />
        </g>
        <g
           id="g24404"
           transform="translate(453.1405,638.9846)">
          <path
             inkscape:connector-curvature="0"
             d="m 0,0 c -0.313,0.204 -0.618,0.408 -0.812,0.545 -0.585,0.411 -0.895,0.967 -0.895,1.603 0,1.044 0.817,1.884 1.865,1.884 1.024,0 1.816,-0.789 1.841,-1.884 l -0.997,0 c -0.025,0.51 -0.383,0.841 -0.844,0.841 -0.485,0 -0.869,-0.357 -0.869,-0.841 0,-0.356 0.154,-0.559 0.691,-0.865 1.406,-0.814 2.019,-1.603 2.019,-2.647 0,-1.171 -0.894,-2.114 -2.019,-2.114 -1.279,0 -2.045,1.07 -2.045,2.266 l 1.022,0 c 0,-0.61 0.307,-1.247 1.023,-1.247 0.562,0 1.022,0.509 1.022,1.095 C 1.002,-0.91 0.815,-0.527 0,0"
             style="fill:#231f20;fill-opacity:1;fill-rule:nonzero;stroke:none"
             id="path24406" />
        </g>
        <g
           id="g24408"
           transform="translate(448.2065,638.9846)">
          <path
             inkscape:connector-curvature="0"
             d="m 0,0 c -0.315,0.204 -0.62,0.408 -0.814,0.545 -0.585,0.411 -0.895,0.967 -0.895,1.603 0,1.044 0.818,1.884 1.867,1.884 1.022,0 1.814,-0.789 1.84,-1.884 L 1,2.148 c -0.025,0.51 -0.382,0.841 -0.842,0.841 -0.487,0 -0.869,-0.357 -0.869,-0.841 0,-0.356 0.153,-0.559 0.69,-0.865 1.405,-0.814 2.019,-1.603 2.019,-2.647 0,-1.171 -0.895,-2.114 -2.019,-2.114 -1.279,0 -2.046,1.07 -2.046,2.266 l 1.023,0 c 0,-0.61 0.306,-1.247 1.023,-1.247 C 0.541,-2.459 1,-1.95 1,-1.364 1,-0.91 0.813,-0.527 0,0"
             style="fill:#231f20;fill-opacity:1;fill-rule:nonzero;stroke:none"
             id="path24410" />
        </g>
        <g
           id="g24412"
           transform="translate(443.8206,641.082)">
          <path
             inkscape:connector-curvature="0"
             d="m 0,0 c -0.18,0.637 -0.461,0.917 -0.898,0.917 -0.461,0 -0.743,-0.28 -0.923,-0.891 -0.179,-0.561 -0.23,-1.044 -0.23,-1.859 0,-0.789 0.076,-1.248 0.23,-1.833 0.18,-0.61 0.462,-0.89 0.923,-0.89 0.437,0 0.718,0.28 0.898,0.89 0.179,0.585 0.231,1.019 0.231,1.859 C 0.231,-0.993 0.154,-0.535 0,0 m 0.821,-4.328 c -0.359,-0.865 -0.897,-1.247 -1.719,-1.247 -0.872,0 -1.384,0.382 -1.743,1.247 -0.307,0.713 -0.41,1.401 -0.41,2.521 0,1.095 0.103,1.833 0.41,2.52 0.385,0.866 0.898,1.222 1.743,1.222 0.847,0 1.36,-0.356 1.719,-1.247 0.308,-0.713 0.41,-1.4 0.41,-2.495 0,-1.12 -0.102,-1.834 -0.41,-2.521"
             style="fill:#231f20;fill-opacity:1;fill-rule:nonzero;stroke:none"
             id="path24414" />
        </g>
        <g
           id="g24416"
           transform="translate(437.7245,641.8712)">
          <path
             inkscape:connector-curvature="0"
             d="m 0,0 -1.066,0 0,-1.832 1.066,0 c 0.609,0 0.94,0.33 0.94,0.916 C 0.94,-0.357 0.559,0 0,0 m 0.889,-6.237 -0.965,3.411 -0.99,0 0,-3.411 -1.042,0 0,7.255 2.159,0 c 1.143,0 1.905,-0.763 1.905,-1.934 0,-0.866 -0.355,-1.502 -1.041,-1.757 l 1.041,-3.564 -1.067,0 z"
             style="fill:#231f20;fill-opacity:1;fill-rule:nonzero;stroke:none"
             id="path24418" />
        </g>
        <g
           id="g24420"
           transform="translate(427.0666,677.0083)">
          <path
             inkscape:connector-curvature="0"
             d="m 0,0 -1.041,0 0,-2.266 1.041,0 c 0.585,0 0.966,0.408 0.966,1.044 C 0.966,-0.535 0.534,0 0,0 m 0.051,2.953 -1.092,0 0,-1.935 1.092,0 c 0.483,0 0.788,0.408 0.788,1.069 0,0.611 -0.229,0.866 -0.788,0.866 m 0,-6.237 -2.134,0 0,7.255 2.286,0 c 0.966,0 1.651,-0.763 1.651,-1.884 0,-0.661 -0.177,-0.967 -0.761,-1.578 0.558,-0.458 0.889,-1.069 0.889,-1.807 0,-1.095 -0.864,-1.986 -1.931,-1.986"
             style="fill:#231f20;fill-opacity:1;fill-rule:nonzero;stroke:none"
             id="path24422" />
        </g>
        <g
           id="g24424"
           transform="translate(453.0825,673.7241)">
          <path
             inkscape:connector-curvature="0"
             d="m 0,0 -2.235,4.862 0,-4.862 -1.042,0 0,7.255 1.042,0 1.982,-4.353 0,4.353 1.041,0 L 0.788,0 0,0 z"
             style="fill:#231f20;fill-opacity:1;fill-rule:nonzero;stroke:none"
             id="path24426" />
        </g>
        <g
           id="g24428"
           transform="translate(447.1226,679.1719)">
          <path
             inkscape:connector-curvature="0"
             d="m 0,0 c -0.178,0.637 -0.46,0.917 -0.896,0.917 -0.462,0 -0.744,-0.28 -0.924,-0.891 -0.18,-0.56 -0.23,-1.044 -0.23,-1.859 0,-0.789 0.077,-1.247 0.23,-1.833 0.18,-0.61 0.462,-0.891 0.924,-0.891 0.436,0 0.718,0.281 0.896,0.891 0.18,0.586 0.232,1.018 0.232,1.859 C 0.232,-0.993 0.155,-0.534 0,0 m 0.822,-4.328 c -0.36,-0.865 -0.898,-1.247 -1.718,-1.247 -0.872,0 -1.385,0.382 -1.744,1.247 -0.308,0.713 -0.41,1.401 -0.41,2.521 0,1.095 0.102,1.833 0.41,2.52 0.385,0.866 0.897,1.222 1.744,1.222 0.846,0 1.358,-0.356 1.718,-1.247 0.307,-0.713 0.41,-1.4 0.41,-2.495 0,-1.12 -0.103,-1.833 -0.41,-2.521"
             style="fill:#231f20;fill-opacity:1;fill-rule:nonzero;stroke:none"
             id="path24430" />
        </g>
        <g
           id="g24432"
           transform="translate(437.7365,680.0123)">
          <path
             inkscape:connector-curvature="0"
             d="m 0,0 0,-6.288 -1.047,0 0,6.288 -1.327,0 0,0.967 3.702,0 L 1.328,0 0,0 z"
             style="fill:#231f20;fill-opacity:1;fill-rule:nonzero;stroke:none"
             id="path24434" />
        </g>
        <g
           id="g24436"
           transform="translate(441.8735,680.0123)">
          <path
             inkscape:connector-curvature="0"
             d="m 0,0 0,-6.288 -1.046,0 0,6.288 -1.329,0 0,0.967 3.703,0 L 1.328,0 0,0 z"
             style="fill:#231f20;fill-opacity:1;fill-rule:nonzero;stroke:none"
             id="path24438" />
        </g>
        <g
           id="g24440"
           transform="translate(434.0665,674.6152)">
          <path
             inkscape:connector-curvature="0"
             d="m 0,0 c -0.356,-0.585 -1.041,-1.018 -1.727,-1.018 -0.712,0 -1.423,0.407 -1.778,1.018 -0.204,0.382 -0.28,0.688 -0.28,1.273 l 0,5.091 1.042,0 0,-5.218 C -2.743,0.458 -2.337,0 -1.727,0 c 0.559,0 0.965,0.458 0.965,1.146 l 0,5.218 1.042,0 0,-5.091 C 0.28,0.688 0.204,0.382 0,0"
             style="fill:#231f20;fill-opacity:1;fill-rule:nonzero;stroke:none"
             id="path24442" />
        </g>
        <g
           id="g24444"
           transform="translate(460.3585,679.9614)">
          <path
             inkscape:connector-curvature="0"
             d="m 0,0 0,-1.833 1.455,0 0,-0.993 -1.455,0 0,-3.411 -1.047,0 0,7.255 3.702,0 L 2.655,0 0,0 z"
             style="fill:#231f20;fill-opacity:1;fill-rule:nonzero;stroke:none"
             id="path24446" />
        </g>
        <g
           id="g24448"
           transform="translate(466.9355,679.1719)">
          <path
             inkscape:connector-curvature="0"
             d="m 0,0 c -0.18,0.637 -0.461,0.917 -0.897,0.917 -0.461,0 -0.744,-0.28 -0.923,-0.892 -0.18,-0.559 -0.231,-1.043 -0.231,-1.858 0,-0.789 0.076,-1.247 0.231,-1.833 0.179,-0.61 0.462,-0.891 0.923,-0.891 0.436,0 0.717,0.281 0.897,0.891 0.18,0.586 0.231,1.018 0.231,1.859 C 0.231,-0.993 0.154,-0.534 0,0 m 0.821,-4.328 c -0.359,-0.865 -0.898,-1.247 -1.718,-1.247 -0.873,0 -1.385,0.382 -1.744,1.247 -0.307,0.713 -0.411,1.401 -0.411,2.521 0,1.095 0.104,1.832 0.411,2.52 0.384,0.866 0.898,1.222 1.744,1.222 0.846,0 1.359,-0.356 1.718,-1.247 0.308,-0.713 0.41,-1.4 0.41,-2.495 0,-1.12 -0.102,-1.833 -0.41,-2.521"
             style="fill:#231f20;fill-opacity:1;fill-rule:nonzero;stroke:none"
             id="path24450" />
        </g>
        <g
           id="g24452"
           transform="translate(471.7265,679.9614)">
          <path
             inkscape:connector-curvature="0"
             d="m 0,0 -1.067,0 0,-1.833 1.067,0 c 0.609,0 0.939,0.331 0.939,0.916 C 0.939,-0.356 0.559,0 0,0 m 0.889,-6.237 -0.965,3.411 -0.991,0 0,-3.411 -1.042,0 0,7.255 2.16,0 c 1.142,0 1.905,-0.764 1.905,-1.935 0,-0.865 -0.355,-1.501 -1.042,-1.756 l 1.042,-3.564 -1.067,0 z"
             style="fill:#231f20;fill-opacity:1;fill-rule:nonzero;stroke:none"
             id="path24454" />
        </g>
        <g
           id="g24456"
           transform="translate(449.1555,666.3481)">
          <path
             inkscape:connector-curvature="0"
             d="m 0,0 c -0.103,0.713 -0.384,1.044 -0.869,1.044 -0.844,0 -1.151,-0.662 -1.151,-2.546 0,-2.087 0.359,-2.927 1.253,-2.927 0.613,0 0.767,0.509 0.767,1.043 l 1.048,0 c -0.026,-1.196 -0.792,-2.062 -1.815,-2.062 -1.559,0 -2.25,1.248 -2.25,3.921 0,2.342 0.741,3.589 2.173,3.589 0.588,0 1.1,-0.254 1.432,-0.738 C 0.869,0.967 0.971,0.662 1.048,0 L 0,0 z"
             style="fill:#231f20;fill-opacity:1;fill-rule:nonzero;stroke:none"
             id="path24458" />
        </g>
        <g
           id="g24460"
           transform="translate(465.7486,666.5264)">
          <path
             inkscape:connector-curvature="0"
             d="m 0,0 c -0.177,0.509 -0.482,0.738 -0.939,0.738 l -0.864,0 0,-5.218 0.864,0 c 0.609,0 0.939,0.483 1.041,1.043 0.051,0.458 0.102,0.968 0.102,1.528 C 0.204,-1.095 0.127,-0.306 0,0 m 0.178,-5.168 c -0.254,-0.229 -0.609,-0.331 -1.015,-0.331 l -2.007,0 0,7.255 1.854,0 c 0.61,0 0.914,-0.076 1.168,-0.279 0.433,-0.306 0.738,-0.866 0.864,-1.604 0.102,-0.535 0.178,-1.171 0.178,-1.731 0,-1.681 -0.33,-2.749 -1.042,-3.31"
             style="fill:#231f20;fill-opacity:1;fill-rule:nonzero;stroke:none"
             id="path24462" />
        </g>
        <g
           id="g24464"
           transform="translate(441.3485,661.0278)">
          <path
             inkscape:connector-curvature="0"
             d="m 0,0 0,7.255 3.421,0 0,-1.018 -2.374,0 0,-1.833 1.506,0 0,-0.993 -1.506,0 0,-2.393 2.655,0 L 3.702,0 0,0 z"
             style="fill:#231f20;fill-opacity:1;fill-rule:nonzero;stroke:none"
             id="path24466" />
        </g>
        <g
           id="g24468"
           transform="translate(460.5206,661.0278)">
          <path
             inkscape:connector-curvature="0"
             d="m 0,0 -2.236,4.862 0,-4.862 -1.041,0 0,7.255 1.041,0 1.981,-4.353 0,4.353 1.042,0 L 0.787,0 0,0 z"
             style="fill:#231f20;fill-opacity:1;fill-rule:nonzero;stroke:none"
             id="path24470" />
        </g>
        <g
           id="g24472"
           transform="translate(454.5605,666.4756)">
          <path
             inkscape:connector-curvature="0"
             d="m 0,0 c -0.179,0.636 -0.461,0.917 -0.897,0.917 -0.461,0 -0.744,-0.281 -0.923,-0.892 -0.18,-0.56 -0.231,-1.044 -0.231,-1.858 0,-0.789 0.077,-1.248 0.231,-1.833 0.179,-0.611 0.462,-0.891 0.923,-0.891 0.436,0 0.718,0.28 0.897,0.891 0.18,0.585 0.231,1.018 0.231,1.858 C 0.231,-0.993 0.154,-0.535 0,0 m 0.821,-4.328 c -0.359,-0.865 -0.897,-1.247 -1.718,-1.247 -0.872,0 -1.384,0.382 -1.744,1.247 -0.307,0.713 -0.41,1.4 -0.41,2.52 0,1.095 0.103,1.833 0.41,2.521 0.385,0.865 0.898,1.222 1.744,1.222 0.846,0 1.359,-0.357 1.718,-1.247 0.308,-0.713 0.41,-1.401 0.41,-2.496 0,-1.12 -0.102,-1.833 -0.41,-2.52"
             style="fill:#231f20;fill-opacity:1;fill-rule:nonzero;stroke:none"
             id="path24474" />
        </g>
        <g
           id="g24476"
           transform="translate(438.1165,664.3784)">
          <path
             inkscape:connector-curvature="0"
             d="m 0,0 c -0.314,0.203 -0.619,0.407 -0.814,0.544 -0.585,0.412 -0.894,0.968 -0.894,1.604 0,1.044 0.818,1.884 1.866,1.884 1.022,0 1.815,-0.789 1.841,-1.884 l -0.997,0 c -0.026,0.509 -0.384,0.84 -0.844,0.84 -0.485,0 -0.869,-0.356 -0.869,-0.84 0,-0.356 0.153,-0.56 0.69,-0.865 1.406,-0.815 2.02,-1.604 2.02,-2.648 0,-1.171 -0.895,-2.113 -2.02,-2.113 -1.278,0 -2.045,1.069 -2.045,2.266 l 1.023,0 c 0,-0.611 0.306,-1.247 1.022,-1.247 0.563,0 1.023,0.508 1.023,1.094 C 1.002,-0.911 0.814,-0.527 0,0"
             style="fill:#231f20;fill-opacity:1;fill-rule:nonzero;stroke:none"
             id="path24478" />
        </g>
        <g
           id="g24480"
           transform="translate(470.1225,664.3784)">
          <path
             inkscape:connector-curvature="0"
             d="m 0,0 c -0.314,0.203 -0.619,0.407 -0.813,0.544 -0.585,0.412 -0.895,0.968 -0.895,1.604 0,1.044 0.818,1.884 1.867,1.884 1.022,0 1.814,-0.789 1.841,-1.884 l -0.998,0 c -0.025,0.509 -0.383,0.84 -0.843,0.84 -0.487,0 -0.869,-0.356 -0.869,-0.84 0,-0.356 0.153,-0.56 0.69,-0.865 C 1.385,0.468 2,-0.321 2,-1.365 2,-2.536 1.104,-3.478 -0.02,-3.478 c -1.278,0 -2.046,1.069 -2.046,2.266 l 1.023,0 c 0,-0.611 0.307,-1.247 1.023,-1.247 0.562,0 1.022,0.508 1.022,1.094 C 1.002,-0.911 0.814,-0.527 0,0"
             style="fill:#231f20;fill-opacity:1;fill-rule:nonzero;stroke:none"
             id="path24482" />
        </g>
        <g
           id="g24484"
           transform="translate(429.0085,664.2358)">
          <path
             inkscape:connector-curvature="0"
             d="M 0,0 C -0.463,-0.324 -0.918,-0.896 -1.186,-1.63 -1.253,-1.812 -1.288,-1.935 -1.34,-2.19 l 2.941,0 0,-1.018 -4.066,0 c 0.052,0.993 0.128,1.349 0.359,1.985 0.306,0.764 0.69,1.349 1.176,1.808 0.178,0.153 0.332,0.28 0.919,0.688 0.487,0.33 0.615,0.508 0.615,0.865 0,0.56 -0.46,1.018 -1.023,1.018 -0.562,0 -1.022,-0.458 -1.022,-1.018 l -1.024,0 c 0.027,1.145 0.896,2.036 2.046,2.036 1.124,0 2.02,-0.916 2.02,-2.036 C 1.601,0.98 0.906,0.634 0,0"
             style="fill:#231f20;fill-opacity:1;fill-rule:nonzero;stroke:none"
             id="path24486" />
        </g>
      </g>
    </g>
  </g>
</svg>
