<?xml version="1.0" encoding="UTF-8" standalone="no"?>
<!-- Created with Inkscape (http://www.inkscape.org/) -->

<svg
   xmlns:dc="http://purl.org/dc/elements/1.1/"
   xmlns:cc="http://creativecommons.org/ns#"
   xmlns:rdf="http://www.w3.org/1999/02/22-rdf-syntax-ns#"
   xmlns:svg="http://www.w3.org/2000/svg"
   xmlns="http://www.w3.org/2000/svg"
   xmlns:sodipodi="http://sodipodi.sourceforge.net/DTD/sodipodi-0.dtd"
   xmlns:inkscape="http://www.inkscape.org/namespaces/inkscape"
   width="203.6925"
   height="102.155"
   id="svg10935"
   version="1.1"
   inkscape:version="0.48.1 "
   sodipodi:docname="New document 60">
  <defs
     id="defs10937">
    <clipPath
       clipPathUnits="userSpaceOnUse"
       id="clipPath10041">
      <path
         inkscape:connector-curvature="0"
         d="m 27.125,388.2 513,0 0,349.8 -513,0 0,-349.8 z"
         id="path10043" />
    </clipPath>
  </defs>
  <sodipodi:namedview
     id="base"
     pagecolor="#ffffff"
     bordercolor="#666666"
     borderopacity="1.0"
     inkscape:pageopacity="0.0"
     inkscape:pageshadow="2"
     inkscape:zoom="0.35"
     inkscape:cx="148.27482"
     inkscape:cy="-6.0653826"
     inkscape:document-units="px"
     inkscape:current-layer="layer1"
     showgrid="false"
     fit-margin-top="0"
     fit-margin-left="0"
     fit-margin-right="0"
     fit-margin-bottom="0"
     inkscape:window-width="469"
     inkscape:window-height="403"
     inkscape:window-x="125"
     inkscape:window-y="125"
     inkscape:window-maximized="0" />
  <metadata
     id="metadata10940">
    <rdf:RDF>
      <cc:Work
         rdf:about="">
        <dc:format>image/svg+xml</dc:format>
        <dc:type
           rdf:resource="http://purl.org/dc/dcmitype/StillImage" />
        <dc:title></dc:title>
      </cc:Work>
    </rdf:RDF>
  </metadata>
  <g
     inkscape:label="Layer 1"
     inkscape:groupmode="layer"
     id="layer1"
     transform="translate(-226.72518,-424.1418)">
    <g
       transform="matrix(1.25,0,0,-1.25,99.668804,1184.8773)"
       id="g10037">
      <g
         id="g10039"
         clip-path="url(#clipPath10041)">
        <g
           id="g10045"
           transform="translate(110.0181,608.3384)">
          <path
             inkscape:connector-curvature="0"
             d="m 0,0 146.209,0 c 4.473,0 8.122,-3.648 8.122,-8.122 l 0,-64.982 c 0,-4.472 -3.649,-8.12 -8.122,-8.12 L 0,-81.224 c -4.474,0 -8.123,3.648 -8.123,8.12 l 0,64.982 C -8.123,-3.703 -4.416,0 0,0"
             style="fill:#ffffff;fill-opacity:1;fill-rule:nonzero;stroke:#231f20;stroke-width:0.5;stroke-linecap:butt;stroke-linejoin:miter;stroke-miterlimit:4;stroke-opacity:1;stroke-dasharray:none"
             id="path10047" />
        </g>
        <g
           id="g10049"
           transform="translate(110.0444,606.3104)">
          <path
             inkscape:connector-curvature="0"
             d="m 0,0 146.156,0 c 3.337,0 6.124,-2.78 6.117,-6.119 l 0,-64.931 c 0.007,-3.334 -2.78,-6.121 -6.117,-6.116 L 0,-77.166 c -3.338,-0.005 -6.122,2.782 -6.117,6.116 l 0,64.931 C -6.122,-2.78 -3.336,0 0,0"
             style="fill:#231f20;fill-opacity:1;fill-rule:evenodd;stroke:none"
             id="path10051" />
        </g>
        <g
           id="g10053"
           transform="translate(110.0884,602.9254)">
          <path
             inkscape:connector-curvature="0"
             d="m 0,0 146.068,0 c 1.521,0.027 2.812,-1.251 2.777,-2.776 l 0,-64.844 c 0.035,-1.52 -1.256,-2.812 -2.777,-2.777 L 0,-70.397 c -1.526,-0.035 -2.804,1.257 -2.776,2.777 l 0,64.844 C -2.803,-1.251 -1.526,0.027 0,0"
             style="fill:#ffffff;fill-opacity:1;fill-rule:evenodd;stroke:none"
             id="path10055" />
        </g>
        <g
           id="g10057"
           transform="translate(136.807,565.3875)">
          <path
             inkscape:connector-curvature="0"
             d="m 0,0 c 0,-1.569 -0.095,-2.376 -0.428,-3.469 -0.33,-1.137 -0.855,-1.661 -1.66,-1.661 -0.855,0 -1.375,0.524 -1.71,1.661 -0.282,1.093 -0.426,1.948 -0.426,3.419 0,1.518 0.095,2.422 0.426,3.466 0.335,1.14 0.855,1.662 1.71,1.662 0.805,0 1.33,-0.522 1.66,-1.71 C -0.14,2.372 0,1.518 0,0 m 1.851,0 c 0,2.039 -0.19,3.319 -0.758,4.65 C 0.427,6.312 -0.52,6.977 -2.088,6.977 -3.654,6.977 -4.605,6.312 -5.317,4.699 -5.887,3.416 -6.078,2.039 -6.078,0 c 0,-2.089 0.191,-3.372 0.761,-4.703 0.666,-1.613 1.615,-2.333 3.229,-2.333 1.519,0 2.515,0.72 3.181,2.333 C 1.661,-3.42 1.851,-2.089 1.851,0 m -10.634,-6.792 0,13.531 -1.282,0 C -10.347,6.171 -10.823,5.836 -11.584,5.79 l 0,-1.471 0.855,0 0,-11.111 1.946,0 z"
             style="fill:#231f20;fill-opacity:1;fill-rule:evenodd;stroke:none"
             id="path10059" />
        </g>
        <g
           id="g10061"
           transform="translate(154.138,538.6274)">
          <path
             inkscape:connector-curvature="0"
             d="m 0,0 0,1.442 -3.948,0 0,9.381 -1.56,0 L -5.508,0 0,0 z m -9.686,4.481 -1.555,0 0.76,3.113 0.795,-3.113 z M -6.989,0 l -2.697,10.823 -1.515,0 L -13.899,0 l 1.557,0 0.723,2.961 2.314,0 L -8.544,0 -6.989,0 z m -8.2,7.938 c -0.115,0.987 -0.268,1.44 -0.684,1.974 -0.494,0.723 -1.255,1.102 -2.127,1.102 -2.128,0 -3.229,-1.86 -3.229,-5.355 0,-3.988 1.025,-5.856 3.343,-5.856 1.519,0 2.657,1.298 2.697,3.083 l -1.558,0 c 0,-0.797 -0.227,-1.558 -1.139,-1.558 -1.331,0 -1.859,1.254 -1.859,4.366 0,2.811 0.453,3.798 1.706,3.798 0.721,0 1.14,-0.493 1.292,-1.554 l 1.558,0 z m -9.497,-2.509 c 0,-1.251 -0.075,-1.898 -0.339,-2.77 -0.267,-0.914 -0.684,-1.331 -1.331,-1.331 -0.683,0 -1.101,0.417 -1.366,1.331 -0.229,0.872 -0.344,1.554 -0.344,2.734 0,1.214 0.08,1.937 0.344,2.772 0.265,0.912 0.683,1.327 1.366,1.327 0.647,0 1.064,-0.415 1.331,-1.366 0.226,-0.796 0.339,-1.481 0.339,-2.697 m 1.482,0 c 0,1.636 -0.151,2.659 -0.608,3.725 -0.531,1.325 -1.29,1.86 -2.544,1.86 -1.251,0 -2.012,-0.535 -2.582,-1.825 -0.454,-1.024 -0.608,-2.124 -0.608,-3.76 0,-1.669 0.154,-2.697 0.608,-3.758 0.532,-1.292 1.29,-1.868 2.582,-1.868 1.216,0 2.013,0.576 2.544,1.868 0.457,1.025 0.608,2.089 0.608,3.758 M -30.838,0 l 0,1.442 -3.948,0 0,9.381 -1.557,0 0,-10.823 5.505,0 z"
             style="fill:#231f20;fill-opacity:1;fill-rule:evenodd;stroke:none"
             id="path10063" />
        </g>
        <g
           id="g10065"
           transform="translate(188.583,562.2994)">
          <path
             inkscape:connector-curvature="0"
             d="m 0,0 c 0,1.946 -1.141,3.418 -3.751,4.939 -0.998,0.569 -1.283,0.948 -1.283,1.615 0,0.898 0.712,1.563 1.617,1.563 0.853,0 1.517,-0.617 1.566,-1.563 l 1.851,0 c -0.049,2.039 -1.521,3.511 -3.417,3.511 -1.948,0 -3.47,-1.569 -3.47,-3.511 0,-1.19 0.573,-2.235 1.664,-2.994 2.755,-1.852 1.994,-1.327 2.28,-1.614 0.805,-0.617 1.092,-1.185 1.092,-1.946 0,-1.09 -0.855,-2.042 -1.9,-2.042 -1.329,0 -1.9,1.187 -1.9,2.327 l -1.899,0 c 0,-2.23 1.427,-4.233 3.799,-4.233 C -1.662,-3.948 0,-2.183 0,0 m -9.164,-3.704 0,1.9 -4.936,0 0,4.463 2.8,0 0,1.852 -2.8,0 0,3.417 4.416,0 0,1.899 -6.362,0 0,-13.531 6.882,0 z m -8.734,0 0,1.805 -4.939,0 0,11.726 -1.944,0 0,-13.531 6.883,0 z m -9.827,13.531 -1.899,0 0,-13.531 1.899,0 0,13.531 z m -4.842,-13.531 0,13.531 -1.948,0 -2.516,-7.594 -2.517,7.594 -1.946,0 0,-13.531 1.946,0 0,7.596 2.517,-7.596 2.516,7.596 0,-7.596 1.948,0 z"
             style="fill:#231f20;fill-opacity:1;fill-rule:evenodd;stroke:none"
             id="path10067" />
        </g>
        <g
           id="g10069"
           transform="translate(241.341,565.2904)">
          <path
             inkscape:connector-curvature="0"
             d="m 0,0 c 0,-1.045 -0.097,-1.992 -0.191,-2.847 -0.19,-1.045 -0.807,-1.948 -1.948,-1.948 l -1.613,0 0,9.732 1.613,0 c 0.855,0 1.425,-0.428 1.758,-1.374 C -0.143,2.991 0,1.52 0,0 m 1.898,0.097 c 0,1.042 -0.144,2.23 -0.335,3.227 -0.234,1.375 -0.805,2.419 -1.613,2.99 -0.476,0.381 -1.043,0.522 -2.182,0.522 l -3.467,0 0,-13.531 3.751,0 c 0.76,0 1.422,0.191 1.898,0.617 1.331,1.045 1.948,3.041 1.948,6.175 m -12.818,-1.19 -1.948,0 0.952,3.892 0.996,-3.892 z m 3.37,-5.602 -3.37,13.531 -1.9,0 -3.371,-13.531 1.948,0 0.901,3.704 2.898,0 0.946,-3.704 1.948,0 z m -9.874,0 0,1.9 -4.936,0 0,4.463 2.797,0 0,1.852 -2.797,0 0,3.417 4.414,0 0,1.899 -6.362,0 0,-13.531 6.884,0 z m -9.78,0 0,13.531 -1.948,0 0,-5.508 -3.702,0 0,5.508 -1.947,0 0,-13.531 1.947,0 0,6.126 3.702,0 0,-6.126 1.948,0 z m -12.818,5.602 -1.946,0 0.95,3.892 0.996,-3.892 z m 3.369,-5.602 -3.369,13.531 -1.901,0 -3.37,-13.531 1.948,0 0.902,3.704 2.896,0 0.949,-3.704 1.945,0 z"
             style="fill:#231f20;fill-opacity:1;fill-rule:evenodd;stroke:none"
             id="path10071" />
        </g>
        <g
           id="g10073"
           transform="translate(208.81,546.5654)">
          <path
             inkscape:connector-curvature="0"
             d="m 0,0 c -0.114,0.987 -0.268,1.44 -0.684,1.974 -0.494,0.723 -1.253,1.102 -2.127,1.102 -2.128,0 -3.226,-1.86 -3.226,-5.355 0,-3.988 1.024,-5.856 3.34,-5.856 1.519,0 2.657,1.298 2.697,3.083 l -1.558,0 c 0,-0.797 -0.228,-1.558 -1.139,-1.558 -1.329,0 -1.86,1.254 -1.86,4.366 0,2.811 0.454,3.798 1.706,3.798 0.722,0 1.142,-0.493 1.293,-1.554 L 0,0 z m -8.204,2.885 -1.517,0 0,-10.823 1.517,0 0,10.823 z m -3.002,-1.519 0,1.519 -5.504,0 0,-10.823 1.556,0 0,5.089 2.165,0 0,1.481 -2.165,0 0,2.734 3.948,0 z m -6.985,0 0,1.519 -5.506,0 0,-10.823 1.558,0 0,5.089 2.162,0 0,1.481 -2.162,0 0,2.734 3.948,0 z m -9.684,-4.823 -1.559,0 0.76,3.113 0.799,-3.113 z m 2.697,-4.481 -2.697,10.823 -1.521,0 -2.697,-10.823 1.559,0 0.722,2.961 2.316,0 0.759,-2.961 1.559,0 z M -34.561,0 c 0,-0.873 -0.492,-1.368 -1.403,-1.368 l -1.596,0 0,2.734 1.596,0 c 0.836,0 1.403,-0.531 1.403,-1.366 m 1.522,-7.938 -1.559,5.315 c 1.024,0.379 1.559,1.33 1.559,2.623 0,1.745 -1.143,2.885 -2.851,2.885 l -3.228,0 0,-10.823 1.558,0 0,5.089 1.481,0 1.444,-5.089 1.596,0 z m -7.56,9.378 0,1.445 -5.506,0 0,-1.445 1.974,0 0,-9.378 1.556,0 0,9.378 1.976,0 z"
             style="fill:#231f20;fill-opacity:1;fill-rule:evenodd;stroke:none"
             id="path10075" />
        </g>
        <g
           id="g10077"
           transform="translate(249.315,549.4504)">
          <path
             inkscape:connector-curvature="0"
             d="M 0,0 -1.671,0 -3.455,-3.913 -5.277,0 l -1.637,0 2.661,-5.926 0,-4.897 1.558,0 0,4.897 L 0,0 z m -7.557,-10.823 0,1.442 -3.949,0 0,9.381 -1.559,0 0,-10.823 5.508,0 z m -7.822,0 0,10.823 -1.559,0 0,-6.495 -2.961,6.495 -1.558,0 0,-10.823 1.558,0 0,7.254 3.34,-7.254 1.18,0 z m -9.726,5.429 c 0,-1.251 -0.073,-1.898 -0.337,-2.77 -0.267,-0.914 -0.686,-1.331 -1.331,-1.331 -0.685,0 -1.102,0.417 -1.367,1.331 -0.229,0.872 -0.343,1.554 -0.343,2.734 0,1.214 0.077,1.937 0.343,2.772 0.265,0.912 0.682,1.327 1.367,1.327 0.645,0 1.064,-0.415 1.331,-1.366 0.227,-0.796 0.337,-1.481 0.337,-2.697 m 1.481,0 c 0,1.636 -0.149,2.659 -0.604,3.725 -0.533,1.325 -1.292,1.86 -2.545,1.86 -1.252,0 -2.016,-0.535 -2.583,-1.825 -0.455,-1.024 -0.608,-2.124 -0.608,-3.76 0,-1.669 0.153,-2.697 0.608,-3.758 0.532,-1.292 1.29,-1.868 2.583,-1.868 1.216,0 2.012,0.576 2.545,1.868 0.455,1.025 0.604,2.089 0.604,3.758"
             style="fill:#231f20;fill-opacity:1;fill-rule:evenodd;stroke:none"
             id="path10079" />
        </g>
        <g
           id="g10081"
           transform="translate(192.963,581.2834)">
          <path
             inkscape:connector-curvature="0"
             d="m 0,0 0,2.279 -5.922,0 0,5.355 3.36,0 0,2.221 -3.36,0 0,4.102 5.297,0 0,2.279 -7.636,0 L -8.261,0 0,0 z m -11.452,4.5 0,3.363 -4.16,0 0,-2.279 1.825,0 0,-1.084 c 0,-1.71 -0.568,-2.508 -1.766,-2.508 -1.252,0 -2.051,0.856 -2.394,2.452 -0.228,1.253 -0.339,2.679 -0.339,4.045 0,1.936 0.282,3.758 0.741,4.557 0.396,0.796 1.023,1.198 1.82,1.198 1.141,0 1.882,-0.743 1.938,-1.824 l 2.335,0 c -0.115,2.392 -1.879,4.102 -4.216,4.102 -1.877,0 -3.533,-1.254 -4.102,-2.964 -0.568,-1.538 -0.74,-3.188 -0.74,-5.469 0,-2.108 0.341,-4.386 0.855,-5.581 0.798,-1.824 2.221,-2.803 4.158,-2.803 1.654,0 2.963,0.864 3.589,2.287 0.341,0.685 0.456,1.369 0.456,2.508 m -14.242,3.534 c 0,-1.255 -0.113,-2.392 -0.228,-3.42 -0.229,-1.253 -0.969,-2.335 -2.335,-2.335 l -1.939,0 0,11.678 1.939,0 c 1.026,0 1.708,-0.511 2.106,-1.652 0.287,-0.684 0.457,-2.45 0.457,-4.271 m 2.279,0.113 c 0,1.253 -0.171,2.677 -0.401,3.873 -0.283,1.653 -0.969,2.906 -1.935,3.59 -0.571,0.453 -1.255,0.626 -2.621,0.626 l -4.16,0 0,-16.236 4.502,0 c 0.91,0 1.708,0.227 2.279,0.74 1.596,1.252 2.336,3.645 2.336,7.407 m -12.647,8.089 -2.28,0 0,-16.236 2.28,0 0,16.236 z m -7.235,-4.328 c 0,-1.313 -0.74,-2.053 -2.111,-2.053 l -2.39,0 0,4.102 2.39,0 c 1.256,0 2.111,-0.797 2.111,-2.049 M -41.019,0 -43.355,7.978 c 1.539,0.568 2.336,1.991 2.336,3.93 0,2.618 -1.71,4.328 -4.275,4.328 l -4.842,0 0,-16.236 2.338,0 0,7.634 2.22,0 2.167,-7.634 2.392,0 z m -14.073,4.614 c 0,-1.422 -0.855,-2.335 -2.165,-2.335 l -2.336,0 0,5.07 2.336,0 c 1.198,0 2.165,-1.196 2.165,-2.735 m -0.285,7.406 c 0,-1.481 -0.682,-2.392 -1.766,-2.392 l -2.45,0 0,4.329 2.45,0 c 1.254,0 1.766,-0.568 1.766,-1.937 m 2.565,-7.576 c 0,1.651 -0.742,3.017 -1.995,4.045 1.31,1.366 1.71,2.05 1.71,3.531 0,2.506 -1.539,4.216 -3.702,4.216 l -5.129,0 0,-16.236 4.785,0 c 2.392,0 4.331,1.992 4.331,4.444"
             style="fill:#231f20;fill-opacity:1;fill-rule:evenodd;stroke:none"
             id="path10083" />
        </g>
        <g
           id="g10085"
           transform="translate(236.123,595.3544)">
          <path
             inkscape:connector-curvature="0"
             d="m 0,0 0,2.165 -8.26,0 0,-2.165 2.963,0 0,-14.071 2.336,0 L -2.961,0 0,0 z m -10.481,-9.227 0,11.392 -2.335,0 0,-11.678 c 0,-1.539 -0.913,-2.566 -2.167,-2.566 -1.366,0 -2.279,1.027 -2.279,2.566 l 0,11.678 -2.336,0 0,-11.392 c 0,-1.312 0.173,-1.996 0.626,-2.852 0.799,-1.366 2.394,-2.287 3.989,-2.287 1.537,0 3.076,0.979 3.873,2.287 0.458,0.856 0.629,1.54 0.629,2.852 m -14.584,3.303 c 0,-1.879 -0.115,-2.848 -0.516,-4.158 -0.398,-1.368 -1.023,-1.997 -1.993,-1.997 -1.026,0 -1.652,0.629 -2.051,1.997 -0.341,1.31 -0.514,2.335 -0.514,4.1 0,1.822 0.115,2.907 0.514,4.158 0.399,1.368 1.025,1.997 2.051,1.997 0.97,0 1.595,-0.629 1.993,-2.053 0.343,-1.195 0.516,-2.222 0.516,-4.044 m 2.221,0 c 0,2.448 -0.23,3.987 -0.914,5.581 -0.796,1.997 -1.937,2.794 -3.816,2.794 -1.881,0 -3.017,-0.797 -3.872,-2.736 -0.684,-1.539 -0.914,-3.191 -0.914,-5.639 0,-2.505 0.23,-4.044 0.914,-5.639 0.796,-1.939 1.935,-2.803 3.872,-2.803 1.825,0 3.02,0.864 3.816,2.803 0.684,1.539 0.914,3.134 0.914,5.639"
             style="fill:#231f20;fill-opacity:1;fill-rule:evenodd;stroke:none"
             id="path10087" />
        </g>
      </g>
    </g>
  </g>
</svg>
