<?xml version="1.0" encoding="UTF-8" standalone="no"?>
<!-- Created with Inkscape (http://www.inkscape.org/) -->

<svg
   xmlns:dc="http://purl.org/dc/elements/1.1/"
   xmlns:cc="http://creativecommons.org/ns#"
   xmlns:rdf="http://www.w3.org/1999/02/22-rdf-syntax-ns#"
   xmlns:svg="http://www.w3.org/2000/svg"
   xmlns="http://www.w3.org/2000/svg"
   xmlns:sodipodi="http://sodipodi.sourceforge.net/DTD/sodipodi-0.dtd"
   xmlns:inkscape="http://www.inkscape.org/namespaces/inkscape"
   width="81.849998"
   height="102.15625"
   id="svg11317"
   version="1.1"
   inkscape:version="0.48.1 "
   sodipodi:docname="New document 64">
  <defs
     id="defs11319">
    <clipPath
       clipPathUnits="userSpaceOnUse"
       id="clipPath10223">
      <path
         inkscape:connector-curvature="0"
         d="m 27.125,388.2 513,0 0,349.8 -513,0 0,-349.8 z"
         id="path10225" />
    </clipPath>
    <clipPath
       clipPathUnits="userSpaceOnUse"
       id="clipPath10211">
      <path
         inkscape:connector-curvature="0"
         d="m 31.375,391.356 504.5,0 0,346.644 -504.5,0 0,-346.644 z"
         id="path10213" />
    </clipPath>
  </defs>
  <sodipodi:namedview
     id="base"
     pagecolor="#ffffff"
     bordercolor="#666666"
     borderopacity="1.0"
     inkscape:pageopacity="0.0"
     inkscape:pageshadow="2"
     inkscape:zoom="0.35"
     inkscape:cx="-78.36071"
     inkscape:cy="-6.0646826"
     inkscape:document-units="px"
     inkscape:current-layer="layer1"
     showgrid="false"
     fit-margin-top="0"
     fit-margin-left="0"
     fit-margin-right="0"
     fit-margin-bottom="0"
     inkscape:window-width="469"
     inkscape:window-height="403"
     inkscape:window-x="25"
     inkscape:window-y="25"
     inkscape:window-maximized="0" />
  <metadata
     id="metadata11322">
    <rdf:RDF>
      <cc:Work
         rdf:about="">
        <dc:format>image/svg+xml</dc:format>
        <dc:type
           rdf:resource="http://purl.org/dc/dcmitype/StillImage" />
        <dc:title></dc:title>
      </cc:Work>
    </rdf:RDF>
  </metadata>
  <g
     inkscape:label="Layer 1"
     inkscape:groupmode="layer"
     id="layer1"
     transform="translate(-453.36071,-424.14125)">
    <g
       id="g10203"
       transform="matrix(1.25,0,0,-1.25,458.74946,424.4537)">
      <path
         d="m 0,0 56.857,0 c 2.238,0 4.062,-1.824 4.062,-4.061 l 0,-73.103 c 0,-2.237 -1.824,-4.061 -4.062,-4.061 l -56.857,0 c -2.237,0 -4.061,1.824 -4.061,4.061 l 0,73.103 C -4.061,-1.852 -2.208,0 0,0"
         style="fill:#ffffff;fill-opacity:1;fill-rule:nonzero;stroke:none"
         id="path10205"
         inkscape:connector-curvature="0" />
    </g>
    <g
       transform="matrix(1.25,0,0,-1.25,414.14196,1033.113)"
       id="g10207">
      <g
         id="g10209"
         clip-path="url(#clipPath10211)">
        <g
           id="g10215"
           transform="translate(35.686,486.9274)">
          <path
             inkscape:connector-curvature="0"
             d="m 0,0 56.857,0 c 2.238,0 4.062,-1.824 4.062,-4.061 l 0,-73.103 c 0,-2.237 -1.824,-4.061 -4.062,-4.061 l -56.857,0 c -2.237,0 -4.061,1.824 -4.061,4.061 l 0,73.103 C -4.061,-1.852 -2.208,0 0,0"
             style="fill:none;stroke:#231f20;stroke-width:0.5;stroke-linecap:butt;stroke-linejoin:miter;stroke-miterlimit:4;stroke-opacity:1;stroke-dasharray:none"
             id="path10217" />
        </g>
      </g>
    </g>
    <g
       transform="matrix(1.25,0,0,-1.25,414.14196,1033.113)"
       id="g10219">
      <g
         id="g10221"
         clip-path="url(#clipPath10223)">
        <g
           id="g10227"
           transform="translate(35.7007,485.7994)">
          <path
             inkscape:connector-curvature="0"
             d="m 0,0 56.829,0 c 1.611,-0.002 2.945,-1.337 2.947,-2.947 l 0,-73.076 c -0.002,-1.615 -1.337,-2.939 -2.947,-2.947 L 0,-78.97 c -1.612,0.008 -2.944,1.332 -2.947,2.947 l 0,73.076 C -2.944,-1.336 -1.612,-0.002 0,0"
             style="fill:#231f20;fill-opacity:1;fill-rule:evenodd;stroke:none"
             id="path10229" />
        </g>
        <g
           id="g10231"
           transform="translate(35.7212,484.2195)">
          <path
             inkscape:connector-curvature="0"
             d="m 0,0 56.788,0 c 0.765,0.011 1.4,-0.623 1.389,-1.387 l 0,-73.034 c 0.011,-0.764 -0.625,-1.401 -1.389,-1.389 L 0,-75.81 c -0.765,-0.012 -1.4,0.623 -1.389,1.389 l 0,73.034 C -1.4,-0.623 -0.765,0.011 0,0"
             style="fill:#ffffff;fill-opacity:1;fill-rule:evenodd;stroke:none"
             id="path10233" />
        </g>
        <g
           id="g10235"
           transform="translate(89.7339,479.5764)">
          <path
             inkscape:connector-curvature="0"
             d="m 0,0 0,1.517 -6.684,0 0,-1.517 2.469,0 0,-9.307 1.709,0 0,9.307 L 0,0 z m -8.445,-9.307 0,10.824 -1.709,0 0,-4.367 -3.949,0 0,4.367 -1.71,0 0,-10.824 1.71,0 0,4.71 3.949,0 0,-4.71 1.709,0 z m -9.889,3.229 0,2.165 -3.683,0 0,-1.708 1.975,0 0,-0.457 c 0,-0.989 -0.798,-1.671 -1.899,-1.671 -0.646,0 -1.14,0.264 -1.481,0.873 -0.342,0.684 -0.531,1.823 -0.531,2.963 0,0.911 0.151,1.898 0.418,2.544 0.379,0.95 0.948,1.33 1.822,1.33 0.835,0 1.291,-0.343 1.747,-1.291 l 1.632,0.644 c -0.721,1.709 -1.708,2.393 -3.379,2.393 -1.216,0 -2.127,-0.418 -2.772,-1.215 -0.722,-0.95 -1.216,-2.658 -1.216,-4.405 0,-1.33 0.266,-2.66 0.722,-3.609 0.645,-1.367 1.595,-1.98 3.227,-1.98 1.976,0 3.418,1.449 3.418,3.424 m -9.85,7.595 -1.747,0 0,-10.824 1.747,0 0,10.824 z m -3.698,-10.824 0,1.746 -5.012,0 0,2.964 3.152,0 0,1.747 -3.152,0 0,2.658 4.67,0 0,1.709 -6.379,0 0,-10.824 6.721,0 z m -8.482,10.824 -1.747,0 -0.835,-5.695 -1.406,5.695 -1.671,0 -1.367,-5.695 -0.836,5.695 -1.747,0 1.596,-10.824 1.519,0 1.671,6.951 1.708,-6.951 1.52,0 1.595,10.824 z"
             style="fill:#231f20;fill-opacity:1;fill-rule:evenodd;stroke:none"
             id="path10237" />
        </g>
        <g
           id="g10239"
           transform="translate(81.1689,463.3304)">
          <path
             inkscape:connector-curvature="0"
             d="m 0,0 0,1.518 -6.683,0 0,-1.518 2.468,0 0,-9.305 1.709,0 0,9.305 L 0,0 z m -8.396,1.518 -1.748,0 0,-10.823 1.748,0 0,10.823 z m -4.448,-10.823 0,10.823 -1.709,0 -2.507,-6.077 -2.507,6.077 -1.709,0 0,-10.823 1.709,0 0,6.266 2.507,-6.266 2.507,6.266 0,-6.266 1.709,0 z m -11.094,10.823 -1.746,0 0,-10.823 1.746,0 0,10.823 z m -3.46,-10.823 0,1.596 -5.012,0 0,9.227 -1.71,0 0,-10.823 6.722,0 z"
             style="fill:#231f20;fill-opacity:1;fill-rule:evenodd;stroke:none"
             id="path10241" />
        </g>
        <g
           id="g10243"
           transform="translate(72.0264,440.1115)">
          <path
             inkscape:connector-curvature="0"
             d="m 0,0 c 0,-2.988 -1.317,-4.964 -3.444,-4.964 -2.178,0 -3.495,1.773 -3.495,4.964 0,2.125 0.912,4.808 3.495,4.808 C -1.266,4.808 0,2.986 0,-0.052 L 0,0 z m 2.582,0 c 0,3.645 -1.721,7.391 -6.026,7.391 -4.253,0 -6.078,-3.645 -6.078,-7.443 0,-3.799 1.774,-7.503 6.078,-7.503 4.355,0 6.026,3.858 6.026,7.555 m -15.8,-7.293 0,14.432 -2.075,0 c -0.558,-0.913 -1.166,-1.317 -2.28,-1.57 l 0.05,-2.076 1.824,0 -0.051,-10.786 2.532,0 z"
             style="fill:#231f20;fill-opacity:1;fill-rule:evenodd;stroke:none"
             id="path10245" />
        </g>
        <g
           id="g10247"
           transform="translate(87.8994,415.7614)">
          <path
             inkscape:connector-curvature="0"
             d="m 0,0 c 0,5.672 -6.787,3.9 -6.989,6.584 -0.102,1.317 1.164,1.721 2.228,1.67 1.62,-0.051 2.127,-1.266 2.127,-1.266 l 2.026,0.608 c -0.709,1.771 -2.077,2.937 -4.102,2.937 -2.583,0 -4.508,-1.064 -4.508,-3.898 0,-2.381 1.925,-3.243 2.785,-3.596 1.874,-0.76 4.102,-1.063 4.102,-2.988 0,-1.215 -0.911,-2.127 -2.228,-2.127 -1.368,0 -2.481,0.759 -3.089,2.127 L -9.826,-0.76 c 0.963,-2.178 2.786,-3.654 5.267,-3.654 1.216,0 2.33,0.414 3.14,1.123 C -0.508,-2.481 0,-1.317 0,0 m -12.741,-4.153 0,14.433 -2.279,0 0,-9.216 -5.267,9.216 -2.278,0 0,-14.433 2.278,0 0,9.774 5.52,-9.774 2.026,0 z m -15.778,7.192 c 0,-1.115 -0.254,-2.531 -0.557,-3.291 -0.507,-1.268 -1.165,-1.824 -2.228,-1.824 -0.912,0 -1.519,0.355 -1.976,1.113 -0.557,0.912 -0.86,2.482 -0.86,4.002 0,1.215 0.202,2.531 0.557,3.392 0.506,1.266 1.215,1.823 2.329,1.772 0.861,-0.05 1.419,-0.355 1.874,-1.113 0.557,-0.963 0.861,-2.432 0.861,-4.051 m 2.278,0 c 0,1.822 -0.354,3.644 -0.961,4.911 -0.912,1.773 -2.178,2.583 -4.002,2.583 -1.67,0 -2.835,-0.506 -3.696,-1.621 -0.962,-1.366 -1.57,-3.494 -1.57,-5.873 0,-1.723 0.405,-3.647 1.013,-4.862 0.86,-1.771 2.126,-2.591 4.153,-2.591 1.519,0 2.684,0.515 3.494,1.629 1.012,1.265 1.569,3.543 1.569,5.824 m -12.587,5.215 0,2.026 -8.913,0 0,-2.026 3.292,0 0,-12.407 2.278,0 0,12.407 3.343,0 z"
             style="fill:#231f20;fill-opacity:1;fill-rule:evenodd;stroke:none"
             id="path10249" />
        </g>
      </g>
    </g>
  </g>
</svg>
