<?xml version="1.0" encoding="UTF-8" standalone="no"?>
<!-- Created with Inkscape (http://www.inkscape.org/) -->

<svg
   xmlns:dc="http://purl.org/dc/elements/1.1/"
   xmlns:cc="http://creativecommons.org/ns#"
   xmlns:rdf="http://www.w3.org/1999/02/22-rdf-syntax-ns#"
   xmlns:svg="http://www.w3.org/2000/svg"
   xmlns="http://www.w3.org/2000/svg"
   xmlns:sodipodi="http://sodipodi.sourceforge.net/DTD/sodipodi-0.dtd"
   xmlns:inkscape="http://www.inkscape.org/namespaces/inkscape"
   width="81.849998"
   height="122.46125"
   id="svg11840"
   version="1.1"
   inkscape:version="0.48.1 "
   sodipodi:docname="New document 72">
  <defs
     id="defs11842">
    <clipPath
       clipPathUnits="userSpaceOnUse"
       id="clipPath10371">
      <path
         inkscape:connector-curvature="0"
         d="m 27.125,388.2 513,0 0,349.8 -513,0 0,-349.8 z"
         id="path10373" />
    </clipPath>
    <clipPath
       clipPathUnits="userSpaceOnUse"
       id="clipPath10359">
      <path
         inkscape:connector-curvature="0"
         d="m 31.375,391.356 504.5,0 0,346.644 -504.5,0 0,-346.644 z"
         id="path10361" />
    </clipPath>
    <clipPath
       clipPathUnits="userSpaceOnUse"
       id="clipPath10347">
      <path
         inkscape:connector-curvature="0"
         d="m 27.125,388.2 513,0 0,349.8 -513,0 0,-349.8 z"
         id="path10349" />
    </clipPath>
  </defs>
  <sodipodi:namedview
     id="base"
     pagecolor="#ffffff"
     bordercolor="#666666"
     borderopacity="1.0"
     inkscape:pageopacity="0.0"
     inkscape:pageshadow="2"
     inkscape:zoom="0.35"
     inkscape:cx="35.925"
     inkscape:cy="-53.055093"
     inkscape:document-units="px"
     inkscape:current-layer="layer1"
     showgrid="false"
     fit-margin-top="0"
     fit-margin-left="0"
     fit-margin-right="0"
     fit-margin-bottom="0"
     inkscape:window-width="469"
     inkscape:window-height="403"
     inkscape:window-x="451"
     inkscape:window-y="96"
     inkscape:window-maximized="0" />
  <metadata
     id="metadata11845">
    <rdf:RDF>
      <cc:Work
         rdf:about="">
        <dc:format>image/svg+xml</dc:format>
        <dc:type
           rdf:resource="http://purl.org/dc/dcmitype/StillImage" />
        <dc:title></dc:title>
      </cc:Work>
    </rdf:RDF>
  </metadata>
  <g
     inkscape:label="Layer 1"
     inkscape:groupmode="layer"
     id="layer1"
     transform="translate(-339.075,-356.84584)">
    <g
       transform="matrix(1.25,0,0,-1.25,-248.91875,986.12259)"
       id="g10343">
      <g
         id="g10345"
         clip-path="url(#clipPath10347)">
        <g
           id="g10351"
           transform="translate(474.705,503.1714)">
          <path
             inkscape:connector-curvature="0"
             d="m 0,0 56.859,0 c 2.237,0 4.061,-1.824 4.061,-4.061 l 0,-89.347 c 0,-2.237 -1.824,-4.061 -4.061,-4.061 l -56.859,0 c -2.234,0 -4.06,1.824 -4.06,4.061 l 0,89.347 C -4.06,-1.852 -2.207,0 0,0"
             style="fill:#ffffff;fill-opacity:1;fill-rule:nonzero;stroke:none"
             id="path10353" />
        </g>
      </g>
    </g>
    <g
       transform="matrix(1.25,0,0,-1.25,-248.91875,986.12259)"
       id="g10355">
      <g
         id="g10357"
         clip-path="url(#clipPath10359)">
        <g
           id="g10363"
           transform="translate(474.705,503.1714)">
          <path
             inkscape:connector-curvature="0"
             d="m 0,0 56.859,0 c 2.237,0 4.061,-1.824 4.061,-4.061 l 0,-89.347 c 0,-2.237 -1.824,-4.061 -4.061,-4.061 l -56.859,0 c -2.234,0 -4.06,1.824 -4.06,4.061 l 0,89.347 C -4.06,-1.852 -2.207,0 0,0"
             style="fill:none;stroke:#231f20;stroke-width:0.5;stroke-linecap:butt;stroke-linejoin:miter;stroke-miterlimit:4;stroke-opacity:1;stroke-dasharray:none"
             id="path10365" />
        </g>
      </g>
    </g>
    <g
       transform="matrix(1.25,0,0,-1.25,-248.91875,986.12259)"
       id="g10367">
      <g
         id="g10369"
         clip-path="url(#clipPath10371)">
        <g
           id="g10375"
           transform="translate(474.721,502.1555)">
          <path
             inkscape:connector-curvature="0"
             d="m 0,0 56.83,0 c 1.676,-0.002 3.053,-1.386 3.058,-3.056 l 0,-89.325 c -0.005,-1.671 -1.382,-3.05 -3.058,-3.058 l -56.83,0 c -1.674,0.008 -3.057,1.387 -3.061,3.058 l 0,89.325 C -3.057,-1.386 -1.674,-0.002 0,0"
             style="fill:#231f20;fill-opacity:1;fill-rule:evenodd;stroke:none"
             id="path10377" />
        </g>
        <g
           id="g10379"
           transform="translate(474.74,500.4644)">
          <path
             inkscape:connector-curvature="0"
             d="m 0,0 56.791,0 c 0.762,0.012 1.401,-0.623 1.387,-1.387 l 0,-89.279 c 0.014,-0.764 -0.625,-1.401 -1.387,-1.389 l -56.791,0 c -0.763,-0.012 -1.398,0.625 -1.386,1.389 l 0,89.279 C -1.398,-0.623 -0.763,0.012 0,0"
             style="fill:#ffffff;fill-opacity:1;fill-rule:evenodd;stroke:none"
             id="path10381" />
        </g>
        <g
           id="g10383"
           transform="translate(528.451,487.1494)">
          <path
             inkscape:connector-curvature="0"
             d="m 0,0 0,1.582 -6.773,0 0,-1.582 2.593,0 0,-7.437 1.584,0 0,7.437 L 0,0 z m -8.453,-7.437 0,9.019 -1.615,0 0,-3.482 -4.049,0 0,3.482 -1.613,0 0,-9.019 1.613,0 0,3.924 4.049,0.033 0,-3.957 1.615,0 z m -12.66,4.494 0,-1.613 1.488,0 c -0.221,-0.824 -1.013,-1.426 -1.9,-1.426 -1.676,0 -2.119,1.615 -2.119,3.07 0,1.774 0.853,3.039 2.119,3.039 0.793,0 1.361,-0.443 1.711,-1.203 l 1.642,0.571 c -0.631,1.39 -1.738,2.246 -3.353,2.246 -2.246,0 -3.735,-1.899 -3.735,-4.653 0,-2.341 1.077,-4.687 3.735,-4.687 1.994,0 3.576,1.523 3.576,3.486 l 0,1.17 -3.164,0 z m -6.332,4.525 -1.613,0 0,-9.019 1.613,0 0,9.019 z m -3.576,-9.019 0,1.613 -5.096,0 0,2.471 2.691,0 0,1.642 -2.691,0 0,1.68 4.936,0 0,1.613 -6.582,0 0,-9.019 6.742,0 z m -8.422,9.019 -1.645,0 -0.918,-5.822 -1.392,5.822 -1.614,0 -1.328,-5.822 -0.982,5.822 -1.678,0 1.647,-9.019 1.709,0 1.423,6.045 1.456,-6.045 1.709,0 1.613,9.019 z"
             style="fill:#231f20;fill-opacity:1;fill-rule:evenodd;stroke:none"
             id="path10385" />
        </g>
        <g
           id="g10387"
           transform="translate(519.529,472.2594)">
          <path
             inkscape:connector-curvature="0"
             d="m 0,0 0,1.582 -6.769,0 0,-1.582 2.594,0 0,-7.438 1.58,0 0,7.438 L 0,0 z m -8.258,1.582 -1.615,0 0,-9.02 1.615,0 0,9.02 z m -3.957,-9.02 0,9.02 -1.582,0 -2.658,-5.35 -2.627,5.35 -1.582,0 0,-9.02 1.582,0 0,5.508 2.627,-5.508 2.658,5.508 0,-5.508 1.582,0 z m -10.757,9.02 -1.616,0 0,-9.02 1.616,0 0,9.02 z m -3.133,-9.02 0,1.391 -5.127,0 0,7.629 -1.615,0 0,-9.02 6.742,0 z"
             style="fill:#231f20;fill-opacity:1;fill-rule:evenodd;stroke:none"
             id="path10389" />
        </g>
        <g
           id="g10391"
           transform="translate(530.2109,457.6834)">
          <path
             inkscape:connector-curvature="0"
             d="m 0,0 0,1.265 -5.57,0 0,-1.265 2.058,0 0,-7.754 1.424,0 0,7.754 L 0,0 z m -8.799,-4.907 c 0,-0.853 -0.726,-1.55 -1.644,-1.55 -0.885,0 -1.614,0.697 -1.614,1.55 0,0.76 0.729,1.364 1.614,1.364 0.886,0 1.644,-0.604 1.644,-1.364 m -0.377,3.799 c 0,-0.537 -0.572,-0.98 -1.267,-0.98 -0.696,0 -1.266,0.443 -1.266,0.98 0,0.602 0.57,1.076 1.266,1.076 0.695,0 1.267,-0.474 1.267,-1.076 m 1.803,-3.765 c 0,0.822 -0.35,1.55 -1.045,2.087 0.443,0.477 0.695,1.014 0.695,1.647 0,1.393 -1.263,2.562 -2.72,2.562 -1.455,0 -2.692,-1.169 -2.692,-2.562 0,-0.633 0.223,-1.17 0.666,-1.647 -0.666,-0.537 -1.043,-1.232 -1.043,-2.087 0,-1.647 1.424,-3.043 3.069,-3.043 1.644,0 3.07,1.396 3.07,3.043"
             style="fill:#231f20;fill-opacity:1;fill-rule:evenodd;stroke:none"
             id="path10393" />
        </g>
        <g
           id="g10395"
           transform="translate(530.25,442.7924)">
          <path
             inkscape:connector-curvature="0"
             d="m 0,0 0,1.266 -5.57,0 0,-1.266 2.056,0 0,-7.754 1.426,0 0,7.754 L 0,0 z m -7.373,-7.754 0,1.455 -4.43,0 c 0.442,1.014 0.916,1.551 1.772,2.059 l 0.443,0.252 0.475,0.254 0.441,0.285 c 0.129,0.062 0.256,0.158 0.383,0.254 0.602,0.537 0.916,1.232 0.916,1.929 0,1.489 -1.361,2.69 -3.068,2.69 -1.584,0 -2.754,-0.918 -3.073,-2.404 l 1.426,-0.317 c 0.158,0.822 0.727,1.266 1.647,1.266 0.884,0 1.642,-0.537 1.642,-1.203 0,-0.381 -0.252,-0.76 -0.599,-0.981 l -0.442,-0.254 -0.445,-0.252 -0.475,-0.254 c -0.127,-0.095 -0.252,-0.191 -0.41,-0.285 -0.633,-0.474 -1.203,-1.043 -1.584,-1.74 -0.504,-0.855 -0.726,-1.709 -0.76,-2.754 l 6.141,0 z m -8.07,0 0,9.02 -1.139,0 c -0.254,-0.348 -0.664,-0.569 -1.043,-0.569 l -0.096,0 0,-1.14 0.823,0 0,-7.311 1.455,0 z"
             style="fill:#231f20;fill-opacity:1;fill-rule:evenodd;stroke:none"
             id="path10397" />
        </g>
        <g
           id="g10399"
           transform="translate(530.219,427.9014)">
          <path
             inkscape:connector-curvature="0"
             d="m 0,0 0,1.266 -5.571,0 0,-1.266 2.057,0 0,-7.754 1.424,0 L -2.09,0 0,0 z m -8.166,-5.127 c 0,-0.728 -0.758,-1.33 -1.643,-1.33 -0.889,0 -1.615,0.602 -1.615,1.33 0,0.696 0.726,1.297 1.615,1.297 0.916,0 1.643,-0.601 1.643,-1.297 M -6.74,-5.16 c 0,1.52 -1.395,2.754 -3.069,2.754 -0.349,0 -0.57,0 -1.078,-0.094 0.539,1.139 1.109,1.868 2.215,2.721 l -0.729,1.203 c -2.088,-1.392 -3.48,-3.957 -3.48,-6.457 0,-1.613 1.328,-2.885 3.072,-2.885 1.738,0 3.069,1.209 3.069,2.758 m -8.071,-2.594 0,9.02 -1.138,0 c -0.254,-0.348 -0.665,-0.57 -1.043,-0.57 l -0.096,0 0,-1.139 0.822,0 0,-7.311 1.455,0 z"
             style="fill:#231f20;fill-opacity:1;fill-rule:evenodd;stroke:none"
             id="path10401" />
        </g>
        <g
           id="g10403"
           transform="translate(495.23,451.8154)">
          <path
             inkscape:connector-curvature="0"
             d="m 0,0 0.014,0 1.928,0 0,7.094 -12.281,0.018 0,-1.237 -1.688,0 c -0.687,0 -1.117,0 -1.402,-0.961 l -0.471,-1.875 -1.096,0 c -0.537,0 -0.537,0 -0.537,-0.523 l 0,-2.516 -0.574,0 0,-0.58 2.059,0 c 0.105,-0.793 0.603,-1.332 1.392,-1.332 0.781,0 1.313,0.553 1.489,1.332 l 0.828,0 0,0.58 7.236,0 c -0.014,-0.074 -0.02,-0.236 -0.02,-0.318 0,-0.879 0.709,-1.594 1.579,-1.594 0.867,0 1.574,0.715 1.574,1.594 0,0.1 -0.012,0.227 -0.03,0.318"
             style="fill:#231f20;fill-opacity:1;fill-rule:evenodd;stroke:none"
             id="path10405" />
        </g>
        <g
           id="g10407"
           transform="translate(485.836,436.7864)">
          <path
             inkscape:connector-curvature="0"
             d="m 0,0 0.012,0 1.713,0 -0.717,0.818 -4.916,0 -0.002,4.622 -2.334,0 c -0.608,0 -0.99,0 -1.242,-0.887 l -0.422,-1.736 -0.971,0 c -0.477,0 -0.477,0 -0.477,-0.487 l 0,-2.33 -0.511,0 0,-0.537 1.83,0 c 0.092,-0.732 0.537,-1.234 1.236,-1.234 0.695,0 1.168,0.511 1.324,1.234 l 0.733,0 0,0.537 1.986,0 c -0.012,-0.068 -0.015,-0.221 -0.015,-0.295 0,-0.814 0.628,-1.476 1.4,-1.476 0.769,0 1.398,0.662 1.398,1.476 C 0.025,-0.201 0.016,-0.086 0,0"
             style="fill:#231f20;fill-opacity:1;fill-rule:evenodd;stroke:none"
             id="path10409" />
        </g>
        <g
           id="g10411"
           transform="translate(499.215,435.0794)">
          <path
             inkscape:connector-curvature="0"
             d="m 0,0 c 0.826,0 1.5,0.711 1.5,1.584 0,0.109 -0.01,0.219 -0.033,0.322 l 2.361,0 0,7.055 -20.561,0 0,-5.709 4.903,0 1.164,-1.346 9.197,0 C -1.488,1.803 -1.498,1.693 -1.498,1.584 -1.498,0.711 -0.826,0 0,0"
             style="fill:#231f20;fill-opacity:1;fill-rule:evenodd;stroke:none"
             id="path10413" />
        </g>
        <g
           id="g10415"
           transform="translate(506.273,420.1344)">
          <path
             inkscape:connector-curvature="0"
             d="m 0,0 c 0.879,0 1.596,0.719 1.596,1.601 0,0.104 -0.01,0.207 -0.031,0.307 l 1.32,-0.002 0,7.068 -14.33,0 0,-6.472 -0.767,0 0,6.472 -12.264,-0.002 0,-1.234 -1.697,0 c -0.694,0 -1.123,0 -1.411,-0.959 l -0.476,-1.871 -1.102,0 c -0.541,0 -0.541,0 -0.541,-0.525 l 0,-2.51 -0.58,0 0,-0.582 2.074,0 c 0.106,-0.789 0.608,-1.33 1.403,-1.33 0.787,0 1.32,0.552 1.498,1.33 l 0.832,0 0,0.582 5.527,0 c -0.013,-0.074 -0.017,-0.238 -0.017,-0.32 0,-0.877 0.711,-1.592 1.588,-1.592 0.873,0 1.585,0.715 1.585,1.592 0,0.101 -0.013,0.226 -0.031,0.32 l 0.012,0 4.367,0 1.61,-0.002 C -9.857,1.767 -9.869,1.658 -9.869,1.549 c 0,-0.881 0.717,-1.6 1.594,-1.6 0.879,0 1.594,0.719 1.594,1.6 0,0.107 -0.012,0.214 -0.031,0.318 l 5.15,0.045 C -1.582,1.81 -1.593,1.707 -1.593,1.601 -1.593,0.719 -0.877,0 0,0"
             style="fill:#231f20;fill-opacity:1;fill-rule:evenodd;stroke:none"
             id="path10417" />
        </g>
      </g>
    </g>
  </g>
</svg>
