<?xml version="1.0" encoding="UTF-8" standalone="no"?>
<!-- Created with Inkscape (http://www.inkscape.org/) -->

<svg
   xmlns:dc="http://purl.org/dc/elements/1.1/"
   xmlns:cc="http://creativecommons.org/ns#"
   xmlns:rdf="http://www.w3.org/1999/02/22-rdf-syntax-ns#"
   xmlns:svg="http://www.w3.org/2000/svg"
   xmlns="http://www.w3.org/2000/svg"
   xmlns:sodipodi="http://sodipodi.sourceforge.net/DTD/sodipodi-0.dtd"
   xmlns:inkscape="http://www.inkscape.org/namespaces/inkscape"
   width="83.125"
   height="103.655"
   id="svg10111"
   version="1.1"
   inkscape:version="0.48.1 "
   sodipodi:docname="New document 61">
  <defs
     id="defs10113">
    <clipPath
       clipPathUnits="userSpaceOnUse"
       id="clipPath8985">
      <path
         inkscape:connector-curvature="0"
         d="m 63.125,364.25 513.184,0 0,384.75 -513.184,0 0,-384.75 z"
         id="path8987" />
    </clipPath>
    <clipPath
       clipPathUnits="userSpaceOnUse"
       id="clipPath8973">
      <path
         inkscape:connector-curvature="0"
         d="m 67.524,373.504 504.502,0 0,367.947 -504.502,0 0,-367.947 z"
         id="path8975" />
    </clipPath>
    <clipPath
       clipPathUnits="userSpaceOnUse"
       id="clipPath8961">
      <path
         inkscape:connector-curvature="0"
         d="m 63.125,364.25 513.184,0 0,384.75 -513.184,0 0,-384.75 z"
         id="path8963" />
    </clipPath>
  </defs>
  <sodipodi:namedview
     id="base"
     pagecolor="#ffffff"
     bordercolor="#666666"
     borderopacity="1.0"
     inkscape:pageopacity="0.0"
     inkscape:pageshadow="2"
     inkscape:zoom="0.35"
     inkscape:cx="90.848215"
     inkscape:cy="126.11322"
     inkscape:document-units="px"
     inkscape:current-layer="layer1"
     showgrid="false"
     fit-margin-top="0"
     fit-margin-left="0"
     fit-margin-right="0"
     fit-margin-bottom="0"
     inkscape:window-width="469"
     inkscape:window-height="425"
     inkscape:window-x="125"
     inkscape:window-y="125"
     inkscape:window-maximized="0" />
  <metadata
     id="metadata10116">
    <rdf:RDF>
      <cc:Work
         rdf:about="">
        <dc:format>image/svg+xml</dc:format>
        <dc:type
           rdf:resource="http://purl.org/dc/dcmitype/StillImage" />
        <dc:title></dc:title>
      </cc:Work>
    </rdf:RDF>
  </metadata>
  <g
     inkscape:label="Layer 1"
     inkscape:groupmode="layer"
     id="layer1"
     transform="translate(-284.15178,-554.8204)">
    <g
       transform="matrix(1.25,0,0,-1.25,199.74666,1371.8924)"
       id="g8957">
      <g
         id="g8959"
         clip-path="url(#clipPath8961)">
        <g
           id="g8965"
           transform="translate(73.2731,570.9836)">
          <path
             inkscape:connector-curvature="0"
             d="m 0,0 0,0 55,0 c 3.036,0 5.501,2.457 5.501,5.497 l 0,71.426 c 0,3.037 -2.465,5.501 -5.501,5.501 l -54.923,0 -0.077,0 c -3.04,0 -5.499,-2.464 -5.499,-5.501 l 0,-71.426 C -5.499,2.463 -3.034,0 0,0"
             style="fill:#ffffff;fill-opacity:1;fill-rule:evenodd;stroke:none"
             id="path8967" />
        </g>
      </g>
    </g>
    <g
       transform="matrix(1.25,0,0,-1.25,199.74666,1371.8924)"
       id="g8969">
      <g
         id="g8971"
         clip-path="url(#clipPath8973)">
        <g
           id="g8977"
           transform="translate(73.2731,570.9836)">
          <path
             inkscape:connector-curvature="0"
             d="m 0,0 0,0 55,0 c 3.036,0 5.501,2.457 5.501,5.497 l 0,71.426 c 0,3.037 -2.465,5.501 -5.501,5.501 l -54.923,0 -0.077,0 c -3.04,0 -5.499,-2.464 -5.499,-5.501 l 0,-71.426 C -5.499,2.463 -3.034,0 0,0 z"
             style="fill:none;stroke:#231f20;stroke-width:0.5;stroke-linecap:butt;stroke-linejoin:miter;stroke-miterlimit:2.61299992;stroke-opacity:1;stroke-dasharray:none"
             id="path8979" />
        </g>
      </g>
    </g>
    <g
       transform="matrix(1.25,0,0,-1.25,199.74666,1371.8924)"
       id="g8981">
      <g
         id="g8983"
         clip-path="url(#clipPath8985)">
        <g
           id="g8989"
           transform="translate(73.2927,572.1277)">
          <path
             inkscape:connector-curvature="0"
             d="m 0,0 0,0 54.96,0 c 2.43,0 4.398,1.967 4.398,4.396 l 0,71.435 c 0,2.43 -1.968,4.397 -4.398,4.397 l -54.96,0 c -2.43,0 -4.396,-1.967 -4.396,-4.397 l 0,-71.435 C -4.396,1.971 -2.427,0 0,0"
             style="fill:#231f20;fill-opacity:1;fill-rule:evenodd;stroke:none"
             id="path8991" />
        </g>
        <g
           id="g8993"
           transform="translate(73.2956,573.7726)">
          <path
             inkscape:connector-curvature="0"
             d="m 0,0 0,0 54.955,0 c 1.519,0 2.747,1.228 2.747,2.743 l 0,71.439 c 0,1.52 -1.228,2.747 -2.747,2.747 L 0,76.929 c -1.516,0 -2.745,-1.227 -2.745,-2.747 l 0,-71.439 C -2.745,1.226 -1.518,0 0,0"
             style="fill:#ffffff;fill-opacity:1;fill-rule:evenodd;stroke:none"
             id="path8995" />
        </g>
        <g
           id="g8997"
           transform="translate(124.5788,636.9706)">
          <path
             inkscape:connector-curvature="0"
             d="m 0,0 c 0,-1.512 -0.542,-2.52 -1.705,-3.141 -0.465,-0.271 -1.008,-0.425 -1.59,-0.425 l -1.551,0 0,7.093 1.551,0 c 0.582,0 1.163,-0.154 1.668,-0.425 C -0.542,2.48 0,1.473 0,0 m 1.979,0 c 0,2.172 -0.931,3.838 -2.637,4.809 -0.815,0.465 -1.706,0.695 -2.637,0.695 l -3.567,0 0,-11.047 3.567,0 c 0.894,0 1.822,0.232 2.598,0.658 1.745,0.969 2.676,2.674 2.676,4.885 m -11.05,-5.543 0,1.977 -6.243,0 0,3.023 3.295,0 0,2.016 -3.295,0 0,2.054 6.049,0 0,1.977 -8.065,0 0,-11.047 8.259,0 z m -10.469,0 0,1.977 -6.241,0 0,3.023 3.295,0 0,2.016 -3.295,0 0,2.054 6.048,0 0,1.977 -8.066,0 0,-11.047 8.259,0 z m -12.058,7.674 c 0,-0.813 -0.659,-1.356 -1.628,-1.356 l -3.217,0 0,2.752 3.217,0 c 0.969,0 1.628,-0.541 1.628,-1.396 m 1.978,0 c 0,1.242 -0.659,2.328 -1.706,2.908 -0.621,0.35 -1.125,0.465 -1.978,0.465 l -5.156,0 0,-11.047 2.017,0 0,4.342 3.139,0 c 0.853,0 1.357,0.076 1.978,0.426 1.047,0.582 1.706,1.744 1.706,2.906 m -11.05,-4.457 c 0,1.201 -0.621,2.248 -1.59,2.752 -0.62,0.31 -1.59,0.621 -3.062,0.929 -1.358,0.311 -1.745,0.583 -1.745,1.204 0,0.697 0.659,1.125 1.783,1.125 1.048,0 1.939,-0.35 2.637,-1.086 l 1.472,1.318 c -1.123,1.162 -2.481,1.705 -4.109,1.705 -2.249,0 -3.799,-1.24 -3.799,-3.062 0,-0.698 0.232,-1.356 0.697,-1.862 0.465,-0.543 1.047,-0.814 2.172,-1.084 l 0.543,-0.156 0.503,-0.115 0.504,-0.156 c 0.504,-0.116 0.932,-0.272 1.319,-0.428 0.465,-0.233 0.698,-0.58 0.698,-1.006 0,-0.814 -1.009,-1.436 -2.405,-1.436 -1.24,0 -2.132,0.426 -2.945,1.397 l -1.59,-1.24 c 1.241,-1.436 2.675,-2.141 4.574,-2.141 1.008,0 2.017,0.277 2.792,0.744 1.046,0.619 1.551,1.473 1.551,2.598"
             style="fill:#231f20;fill-opacity:1;fill-rule:evenodd;stroke:none"
             id="path8999" />
        </g>
        <g
           id="g9001"
           transform="translate(121.0436,624.0386)">
          <path
             inkscape:connector-curvature="0"
             d="m 0,0 0,1.94 -8.298,0 0,-1.94 3.18,0 0,-9.111 1.938,0 L -3.18,0 0,0 z m -10.12,1.94 -1.977,0 0,-11.051 1.977,0 0,11.051 z m -4.846,-11.051 0,11.051 -1.939,0 -3.257,-6.553 -3.218,6.553 -1.938,0 0,-11.051 1.938,0 0,6.746 3.218,-6.746 3.257,6.746 0,-6.746 1.939,0 z m -13.182,11.051 -1.977,0 0,-11.051 1.977,0 0,11.051 z m -3.839,-11.051 0,1.705 -6.282,0 0,9.346 -1.976,0 0,-11.051 8.258,0 z"
             style="fill:#231f20;fill-opacity:1;fill-rule:evenodd;stroke:none"
             id="path9003" />
        </g>
        <g
           id="g9005"
           transform="translate(121.9548,595.8806)">
          <path
             inkscape:connector-curvature="0"
             d="m 0,0 c 0,-5.683 -2.505,-9.441 -6.551,-9.441 -4.143,0 -6.648,3.373 -6.648,9.441 0,4.047 1.734,9.153 6.648,9.153 C -2.408,9.153 0,5.686 0,-0.096 L 0,0 z m 4.914,0 c 0,6.938 -3.276,14.067 -11.465,14.067 -8.094,0 -11.562,-6.938 -11.562,-14.163 0,-7.226 3.373,-14.275 11.562,-14.275 8.285,0 11.465,7.338 11.465,14.371 m -29.482,-4.431 c 0,5.685 -4.529,9.923 -10.791,9.923 -1.734,0 -3.083,-0.193 -5.299,-0.673 l 0.289,3.949 13.586,0 0.096,4.818 -18.307,0 -0.867,-12.91 4.915,-1.254 c 2.022,0.772 3.467,1.061 5.298,1.061 2.023,0 3.468,-0.385 4.432,-1.157 1.06,-0.867 1.734,-2.312 1.734,-3.757 0,-3.082 -2.505,-4.915 -6.647,-4.915 -2.795,0 -5.59,0.772 -7.997,2.217 l -2.602,-4.142 c 3.468,-2.121 6.84,-3.1 10.599,-3.1 6.743,0 11.561,4.158 11.561,9.94"
             style="fill:#231f20;fill-opacity:1;fill-rule:evenodd;stroke:none"
             id="path9007" />
        </g>
      </g>
    </g>
  </g>
</svg>
