<?xml version="1.0" encoding="UTF-8" standalone="no"?>
<!-- Created with Inkscape (http://www.inkscape.org/) -->

<svg
   xmlns:dc="http://purl.org/dc/elements/1.1/"
   xmlns:cc="http://creativecommons.org/ns#"
   xmlns:rdf="http://www.w3.org/1999/02/22-rdf-syntax-ns#"
   xmlns:svg="http://www.w3.org/2000/svg"
   xmlns="http://www.w3.org/2000/svg"
   xmlns:sodipodi="http://sodipodi.sourceforge.net/DTD/sodipodi-0.dtd"
   xmlns:inkscape="http://www.inkscape.org/namespaces/inkscape"
   width="83.125"
   height="83.125"
   id="svg10218"
   version="1.1"
   inkscape:version="0.48.1 "
   sodipodi:docname="New document 63">
  <defs
     id="defs10220">
    <clipPath
       clipPathUnits="userSpaceOnUse"
       id="clipPath9017">
      <path
         inkscape:connector-curvature="0"
         d="m 63.125,364.25 513.184,0 0,384.75 -513.184,0 0,-384.75 z"
         id="path9019" />
    </clipPath>
  </defs>
  <sodipodi:namedview
     id="base"
     pagecolor="#ffffff"
     bordercolor="#666666"
     borderopacity="1.0"
     inkscape:pageopacity="0.0"
     inkscape:pageshadow="2"
     inkscape:zoom="0.35"
     inkscape:cx="67.993575"
     inkscape:cy="1.5618674"
     inkscape:document-units="px"
     inkscape:current-layer="layer1"
     showgrid="false"
     fit-margin-top="0"
     fit-margin-left="0"
     fit-margin-right="0"
     fit-margin-bottom="0"
     inkscape:window-width="469"
     inkscape:window-height="425"
     inkscape:window-x="175"
     inkscape:window-y="175"
     inkscape:window-maximized="0" />
  <metadata
     id="metadata10223">
    <rdf:RDF>
      <cc:Work
         rdf:about="">
        <dc:format>image/svg+xml</dc:format>
        <dc:type
           rdf:resource="http://purl.org/dc/dcmitype/StillImage" />
        <dc:title></dc:title>
      </cc:Work>
    </rdf:RDF>
  </metadata>
  <g
     inkscape:label="Layer 1"
     inkscape:groupmode="layer"
     id="layer1"
     transform="translate(-307.00642,-450.79905)">
    <g
       transform="matrix(1.25,0,0,-1.25,116.2298,1247.0648)"
       id="g9013">
      <g
         id="g9015"
         clip-path="url(#clipPath9017)">
        <g
           id="g9021"
           transform="translate(156.9963,570.7626)">
          <path
             inkscape:connector-curvature="0"
             d="m 0,0 57.752,0 c 1.084,0 2.151,0.439 2.916,1.205 0.768,0.77 1.209,1.836 1.209,2.92 l 0,57.749 c 0,1.084 -0.441,2.15 -1.209,2.918 -0.765,0.768 -1.832,1.207 -2.916,1.207 L 0,65.999 c -1.084,0 -2.15,-0.439 -2.914,-1.207 -0.768,-0.768 -1.209,-1.832 -1.209,-2.918 l 0,-57.749 c 0,-1.41 0.748,-2.75 1.939,-3.506 C -1.506,0.186 -0.787,0.082 0,0 z"
             style="fill:none;stroke:#231f20;stroke-width:0.5;stroke-linecap:butt;stroke-linejoin:miter;stroke-miterlimit:2.61299992;stroke-opacity:1;stroke-dasharray:none"
             id="path9023" />
        </g>
        <g
           id="g9025"
           transform="translate(153.9181,574.8896)">
          <path
             inkscape:connector-curvature="0"
             d="m 0,0 0,57.745 c 0,0.813 0.326,1.606 0.902,2.18 0.573,0.564 1.371,0.904 2.176,0.904 l 57.75,0 c 0.805,0 1.61,-0.34 2.178,-0.904 0.568,-0.567 0.904,-1.373 0.904,-2.18 L 63.91,0 c 0,-0.807 -0.334,-1.611 -0.904,-2.18 -0.568,-0.564 -1.373,-0.904 -2.178,-0.904 l -57.75,0 c -0.805,0 -1.603,0.34 -2.176,0.904 C 0.324,-1.606 0,-0.816 0,0"
             style="fill:#231f20;fill-opacity:1;fill-rule:evenodd;stroke:none"
             id="path9027" />
        </g>
        <g
           id="g9029"
           transform="translate(155.6525,574.8896)">
          <path
             inkscape:connector-curvature="0"
             d="m 0,0 c 0,-0.361 0.141,-0.697 0.396,-0.953 0.254,-0.25 0.592,-0.395 0.948,-0.395 l 57.75,0 c 0.356,0 0.697,0.145 0.949,0.395 0.256,0.256 0.399,0.592 0.399,0.953 l 0,57.745 c 0,0.358 -0.147,0.699 -0.399,0.953 -0.252,0.25 -0.593,0.395 -0.949,0.395 l -57.75,0 C 0.988,59.093 0.65,58.95 0.396,58.698 0.143,58.444 0,58.103 0,57.745 L 0,0 z"
             style="fill:#ffffff;fill-opacity:1;fill-rule:evenodd;stroke:none"
             id="path9031" />
        </g>
        <g
           id="g9033"
           transform="translate(175.5591,579.5667)">
          <path
             inkscape:connector-curvature="0"
             d="m 0,0 0,5.566 -16.768,0 0,4.52 L 0,27.5 l 4.681,0 0,-17.414 3.885,0 0,-4.52 -3.885,0 L 4.681,0 0,0 z"
             style="fill:#231f20;fill-opacity:1;fill-rule:evenodd;stroke:none"
             id="path9035" />
        </g>
        <g
           id="g9037"
           transform="translate(201.1901,607.3846)">
          <path
             inkscape:connector-curvature="0"
             d="m 0,0 c 3.003,0 6.146,-1.283 8.101,-3.594 1.627,-1.92 2.514,-4.334 2.963,-6.785 0.461,-2.515 0.406,-5.107 -0.053,-7.619 -0.668,-3.658 -2.246,-6.816 -5.525,-8.777 -2.504,-1.498 -5.639,-1.811 -8.436,-1.069 -3.24,0.86 -5.881,3.379 -7.107,6.467 -1.401,3.539 -1.635,7.412 -0.953,11.137 0.427,2.348 1.254,4.676 2.818,6.521 C -6.168,-1.322 -3.118,0 0,0"
             style="fill:#231f20;fill-opacity:1;fill-rule:evenodd;stroke:none"
             id="path9039" />
        </g>
        <g
           id="g9041"
           transform="translate(201.1901,602.4626)">
          <path
             inkscape:connector-curvature="0"
             d="M 0,0 C -1.086,0 -2.163,-0.283 -3.116,-0.801 -5.17,-1.916 -5.989,-4.07 -6.374,-6.26 c -0.33,-1.877 -0.396,-3.816 -0.062,-5.699 0.266,-1.525 0.74,-3.115 1.764,-4.316 1.564,-1.84 4.002,-2.496 6.316,-1.903 1.867,0.483 3.391,1.848 4.072,3.653 0.948,2.5 1.18,5.469 0.719,8.096 C 6.167,-4.912 5.703,-3.324 4.683,-2.131 3.488,-0.722 1.834,0 0,0"
             style="fill:#ffffff;fill-opacity:1;fill-rule:evenodd;stroke:none"
             id="path9043" />
        </g>
        <g
           id="g9045"
           transform="translate(165.1232,589.6526)">
          <path
             inkscape:connector-curvature="0"
             d="m 0,0 10.436,0 0,10.855 L 0,0 z"
             style="fill:#ffffff;fill-opacity:1;fill-rule:evenodd;stroke:none"
             id="path9047" />
        </g>
        <g
           id="g9049"
           transform="translate(202.3201,614.9316)">
          <path
             inkscape:connector-curvature="0"
             d="m 0,0 -2.851,5.143 -1.022,-1.387 0,-3.756 -1.715,0 0,11 1.715,0 0,-4.342 L -0.687,11 1.424,11 -1.734,6.67 1.975,0 0,0 z"
             style="fill:#231f20;fill-opacity:1;fill-rule:evenodd;stroke:none"
             id="path9051" />
        </g>
        <g
           id="g9053"
           transform="translate(174.7321,614.9316)">
          <path
             inkscape:connector-curvature="0"
             d="m 0,0 -1.847,0 -1.846,4.812 -1.971,0 0,-4.812 -1.718,0 0,11 4.121,0 C -2.23,11 -1.253,10.467 -0.683,9.611 -0.007,8.6 -0.003,7.242 -0.66,6.219 -1.003,5.686 -1.4,5.379 -1.949,5.092 L 0,0 z"
             style="fill:#231f20;fill-opacity:1;fill-rule:evenodd;stroke:none"
             id="path9055" />
        </g>
        <g
           id="g9057"
           transform="translate(184.7111,618.6486)">
          <path
             inkscape:connector-curvature="0"
             d="m 0,0 c 0,-1.451 -0.934,-2.783 -2.277,-3.319 -0.899,-0.355 -1.948,-0.355 -2.842,0 -1.35,0.536 -2.277,1.866 -2.277,3.319 l 0,7.279 1.718,0 0,-7.279 c 0,-0.645 0.348,-1.244 0.891,-1.592 0.652,-0.418 1.527,-0.42 2.178,0 0.537,0.348 0.888,0.949 0.888,1.592 l 0,7.279 L 0,7.279 0,0 z"
             style="fill:#231f20;fill-opacity:1;fill-rule:evenodd;stroke:none"
             id="path9059" />
        </g>
        <g
           id="g9061"
           transform="translate(194.7171,623.8376)">
          <path
             inkscape:connector-curvature="0"
             d="M 0,0 -1.719,-0.351 C -1.82,-0.17 -1.93,-0.008 -2.084,0.129 -2.539,0.52 -3.18,0.631 -3.756,0.526 -4.567,0.377 -5.039,-0.185 -5.318,-0.969 c -0.532,-1.466 -0.516,-4.175 0.574,-5.416 0.494,-0.564 1.47,-0.683 2.146,-0.421 0.401,0.154 0.676,0.416 0.879,0.785 L 0,-6.345 c -0.129,-0.303 -0.27,-0.612 -0.473,-0.87 -0.373,-0.474 -0.863,-0.853 -1.422,-1.076 -0.877,-0.347 -1.912,-0.359 -2.797,-0.041 -2.275,0.817 -2.841,3.674 -2.675,5.817 0.097,1.259 0.463,2.742 1.384,3.671 1.223,1.235 3.293,1.385 4.725,0.428 C -0.613,1.151 -0.297,0.694 0,0"
             style="fill:#231f20;fill-opacity:1;fill-rule:evenodd;stroke:none"
             id="path9063" />
        </g>
        <g
           id="g9065"
           transform="translate(211.6271,623.2596)">
          <path
             inkscape:connector-curvature="0"
             d="m 0,0 c -0.127,0.334 -0.281,0.611 -0.58,0.828 -0.559,0.41 -1.309,0.424 -1.889,0.049 -0.447,-0.289 -0.738,-0.795 -0.734,-1.33 0.002,-0.453 0.314,-0.893 0.779,-0.975 l 1.731,-0.31 c 0.756,-0.135 1.443,-0.545 1.935,-1.129 0.625,-0.742 0.887,-1.756 0.692,-2.709 -0.266,-1.281 -1.319,-2.295 -2.6,-2.529 -1.062,-0.196 -2.254,0.074 -3.137,0.689 -0.82,0.576 -1.195,1.17 -1.554,2.063 l 1.566,0.73 c 0.188,-0.564 0.416,-0.988 0.906,-1.359 0.6,-0.457 1.465,-0.7 2.188,-0.41 0.486,0.195 0.842,0.634 0.945,1.148 0.162,0.832 -0.406,1.717 -1.254,1.865 l -1.674,0.295 c -1.027,0.18 -1.875,0.949 -2.16,1.949 -0.303,1.067 0.135,2.237 0.91,2.987 1.143,1.109 2.961,1.279 4.276,0.379 C 0.959,1.813 1.281,1.328 1.572,0.668 L 0,0 z"
             style="fill:#231f20;fill-opacity:1;fill-rule:evenodd;stroke:none"
             id="path9067" />
        </g>
        <g
           id="g9069"
           transform="translate(162.7853,624.1996)">
          <path
             inkscape:connector-curvature="0"
             d="m 0,0 0,-9.268 -1.717,0 0,9.268 -2.484,0 0,1.732 6.699,0 L 2.498,0 0,0 z"
             style="fill:#231f20;fill-opacity:1;fill-rule:evenodd;stroke:none"
             id="path9071" />
        </g>
        <g
           id="g9073"
           transform="translate(169.0681,621.4626)">
          <path
             inkscape:connector-curvature="0"
             d="M 0,0 2.403,0 C 2.86,0 3.289,0.237 3.541,0.615 3.838,1.067 3.838,1.68 3.541,2.129 3.288,2.51 2.86,2.733 2.403,2.737 L 0,2.75 0,0 z"
             style="fill:#ffffff;fill-opacity:1;fill-rule:evenodd;stroke:none"
             id="path9075" />
        </g>
      </g>
    </g>
  </g>
</svg>
