<?xml version="1.0" encoding="UTF-8" standalone="no"?>
<!-- Created with Inkscape (http://www.inkscape.org/) -->

<svg
   xmlns:dc="http://purl.org/dc/elements/1.1/"
   xmlns:cc="http://creativecommons.org/ns#"
   xmlns:rdf="http://www.w3.org/1999/02/22-rdf-syntax-ns#"
   xmlns:svg="http://www.w3.org/2000/svg"
   xmlns="http://www.w3.org/2000/svg"
   xmlns:sodipodi="http://sodipodi.sourceforge.net/DTD/sodipodi-0.dtd"
   xmlns:inkscape="http://www.inkscape.org/namespaces/inkscape"
   width="83.123749"
   height="83.126251"
   id="svg10328"
   version="1.1"
   inkscape:version="0.48.1 "
   sodipodi:docname="New document 65">
  <defs
     id="defs10330">
    <clipPath
       clipPathUnits="userSpaceOnUse"
       id="clipPath9609">
      <path
         inkscape:connector-curvature="0"
         d="m 63.125,364.25 513.184,0 0,384.75 -513.184,0 0,-384.75 z"
         id="path9611" />
    </clipPath>
  </defs>
  <sodipodi:namedview
     id="base"
     pagecolor="#ffffff"
     bordercolor="#666666"
     borderopacity="1.0"
     inkscape:pageopacity="0.0"
     inkscape:pageshadow="2"
     inkscape:zoom="0.35"
     inkscape:cx="-6.295268"
     inkscape:cy="52.991742"
     inkscape:document-units="px"
     inkscape:current-layer="layer1"
     showgrid="false"
     fit-margin-top="0"
     fit-margin-left="0"
     fit-margin-right="0"
     fit-margin-bottom="0"
     inkscape:window-width="469"
     inkscape:window-height="425"
     inkscape:window-x="25"
     inkscape:window-y="25"
     inkscape:window-maximized="0" />
  <metadata
     id="metadata10333">
    <rdf:RDF>
      <cc:Work
         rdf:about="">
        <dc:format>image/svg+xml</dc:format>
        <dc:type
           rdf:resource="http://purl.org/dc/dcmitype/StillImage" />
        <dc:title></dc:title>
      </cc:Work>
    </rdf:RDF>
  </metadata>
  <g
     inkscape:label="Layer 1"
     inkscape:groupmode="layer"
     id="layer1"
     transform="translate(-381.29527,-502.22768)">
    <g
       transform="matrix(1.25,0,0,-1.25,84.142643,1298.6973)"
       id="g9605">
      <g
         id="g9607"
         clip-path="url(#clipPath9609)">
        <g
           id="g9613"
           transform="translate(242.0971,636.9257)">
          <path
             inkscape:connector-curvature="0"
             d="m 0,0 57.749,0 c 2.272,0 4.125,-1.853 4.125,-4.125 l 0,-57.751 c 0,-2.271 -1.853,-4.125 -4.125,-4.125 l -57.749,0 c -2.271,0 -4.125,1.854 -4.125,4.125 l 0,57.751 C -4.125,-1.853 -2.271,0 0,0"
             style="fill:#ffffff;fill-opacity:1;fill-rule:nonzero;stroke:none"
             id="path9615" />
        </g>
        <g
           id="g9617"
           transform="translate(242.0971,636.9257)">
          <path
             inkscape:connector-curvature="0"
             d="m 0,0 57.749,0 c 2.272,0 4.125,-1.853 4.125,-4.125 l 0,-57.751 c 0,-2.271 -1.853,-4.125 -4.125,-4.125 l -57.749,0 c -2.271,0 -4.125,1.854 -4.125,4.125 l 0,57.751 C -4.125,-1.853 -2.271,0 0,0 z"
             style="fill:none;stroke:#231f20;stroke-width:0.5;stroke-linecap:butt;stroke-linejoin:miter;stroke-miterlimit:2.61299992;stroke-opacity:1;stroke-dasharray:none"
             id="path9619" />
        </g>
        <g
           id="g9621"
           transform="translate(242.1131,635.5507)">
          <path
             inkscape:connector-curvature="0"
             d="m 0,0 6.662,0 15.607,0 17.987,0 13.8,0 3.279,0 c 0.976,0 1.9,-0.221 2.539,-1.031 0.568,-0.721 0.609,-1.52 0.609,-2.383 l 0,-3.705 0,-14.309 0,-18.033 0,-15.193 0,-4.481 c 0,-0.654 0.069,-1.374 -0.08,-2.016 -0.293,-1.268 -1.482,-2.1 -2.75,-2.1 l -2.412,0 -12.734,0 -17.804,0 -16.313,0 -8.25,0 c -1.162,0 -2.261,0.598 -2.705,1.715 -0.267,0.68 -0.201,1.425 -0.201,2.142 l 0,10.88 0,17.301 0,17.153 0,10.439 c 0,0.504 -0.037,1.028 0.078,1.522 C -2.404,-0.869 -1.244,-0.005 0,0"
             style="fill:#231f20;fill-opacity:1;fill-rule:evenodd;stroke:none"
             id="path9623" />
        </g>
        <g
           id="g9625"
           transform="translate(256.4251,615.0756)">
          <path
             inkscape:connector-curvature="0"
             d="m 0,0 -4.201,7.438 0,-7.438 -1.734,0 0,10.983 1.734,0 4.008,-7.014 0,7.014 1.734,0 L 1.541,0 0,0 z"
             style="fill:#ffffff;fill-opacity:1;fill-rule:nonzero;stroke:none"
             id="path9627" />
        </g>
        <path
           inkscape:connector-curvature="0"
           d="m 260.972,626.059 1.774,0 0,-10.983 -1.774,0 0,10.983 z"
           style="fill:#ffffff;fill-opacity:1;fill-rule:nonzero;stroke:none"
           id="path9629" />
        <g
           id="g9631"
           transform="translate(269.5271,614.8826)">
          <path
             inkscape:connector-curvature="0"
             d="m 0,0 c -1.656,0 -2.619,0.617 -3.275,2.004 -0.463,0.963 -0.733,2.313 -0.733,3.66 0,1.774 0.502,3.508 1.234,4.471 0.655,0.81 1.581,1.234 2.813,1.234 1.695,0 2.697,-0.695 3.43,-2.427 L 1.812,8.285 C 1.35,9.248 0.887,9.596 0.039,9.596 -0.848,9.596 -1.426,9.211 -1.811,8.246 -2.08,7.592 -2.234,6.59 -2.234,5.664 c 0,-1.156 0.193,-2.31 0.539,-3.006 0.347,-0.615 0.847,-0.884 1.504,-0.884 1.117,0 1.925,0.693 1.925,1.695 l 0,0.463 -2.004,0 0,1.732 3.739,0 0,-2.195 C 3.469,1.465 2.004,0 0,0"
             style="fill:#ffffff;fill-opacity:1;fill-rule:nonzero;stroke:none"
             id="path9633" />
        </g>
        <g
           id="g9635"
           transform="translate(281.5131,615.0756)">
          <path
             inkscape:connector-curvature="0"
             d="m 0,0 0,4.778 -4.008,0 0,-4.778 -1.734,0 0,10.983 1.734,0 0,-4.432 4.008,0 0,4.432 1.734,0 L 1.734,0 0,0 z"
             style="fill:#ffffff;fill-opacity:1;fill-rule:nonzero;stroke:none"
             id="path9637" />
        </g>
        <g
           id="g9639"
           transform="translate(289.5261,624.5176)">
          <path
             inkscape:connector-curvature="0"
             d="m 0,0 0,-9.442 -1.732,0 0,9.442 -2.506,0 0,1.541 6.783,0 L 2.545,0 0,0 z"
             style="fill:#ffffff;fill-opacity:1;fill-rule:nonzero;stroke:none"
             id="path9641" />
        </g>
        <g
           id="g9643"
           transform="translate(270.0741,585.4457)">
          <path
             inkscape:connector-curvature="0"
             d="m 0,0 0,4.353 -3.979,0 0,17.135 -4.734,0 -16.666,-17.135 0,-4.353 16.666,0 0,-5.491 4.734,0 0,5.491 L 0,0 z m -8.713,4.353 -10.512,0 10.512,10.793 0,-10.793 z"
             style="fill:#ffffff;fill-opacity:1;fill-rule:nonzero;stroke:none"
             id="path9645" />
        </g>
        <g
           id="g9647"
           transform="translate(285.0341,579.4807)">
          <path
             inkscape:connector-curvature="0"
             d="m 0,0 c -3.693,0 -7.007,0.947 -10.415,3.029 l 2.556,4.07 C -5.491,5.679 -2.745,4.924 0,4.924 c 4.072,0 6.535,1.798 6.535,4.828 0,1.42 -0.664,2.84 -1.705,3.691 -0.947,0.756 -2.367,1.135 -4.356,1.135 -1.8,0 -3.219,-0.283 -5.208,-1.041 l -4.83,1.23 0.852,12.686 17.993,0 -0.096,-4.733 -13.35,0 -0.285,-3.882 c 2.176,0.474 3.503,0.664 5.208,0.664 6.156,0 10.605,-4.166 10.605,-9.75 C 11.363,4.07 6.629,0 0,0"
             style="fill:#ffffff;fill-opacity:1;fill-rule:nonzero;stroke:none"
             id="path9649" />
        </g>
      </g>
    </g>
  </g>
</svg>
