<?xml version="1.0" encoding="UTF-8" standalone="no"?>
<!-- Created with Inkscape (http://www.inkscape.org/) -->

<svg
   xmlns:dc="http://purl.org/dc/elements/1.1/"
   xmlns:cc="http://creativecommons.org/ns#"
   xmlns:rdf="http://www.w3.org/1999/02/22-rdf-syntax-ns#"
   xmlns:svg="http://www.w3.org/2000/svg"
   xmlns="http://www.w3.org/2000/svg"
   xmlns:sodipodi="http://sodipodi.sourceforge.net/DTD/sodipodi-0.dtd"
   xmlns:inkscape="http://www.inkscape.org/namespaces/inkscape"
   width="90.625"
   height="180.625"
   id="svg10580"
   version="1.1"
   inkscape:version="0.48.1 "
   sodipodi:docname="New document 69">
  <defs
     id="defs10582">
    <clipPath
       clipPathUnits="userSpaceOnUse"
       id="clipPath8841">
      <path
         inkscape:connector-curvature="0"
         d="m 63.125,364.25 513.184,0 0,384.75 -513.184,0 0,-384.75 z"
         id="path8843" />
    </clipPath>
  </defs>
  <sodipodi:namedview
     id="base"
     pagecolor="#ffffff"
     bordercolor="#666666"
     borderopacity="1.0"
     inkscape:pageopacity="0.0"
     inkscape:pageshadow="2"
     inkscape:zoom="0.35"
     inkscape:cx="126.03054"
     inkscape:cy="67.455367"
     inkscape:document-units="px"
     inkscape:current-layer="layer1"
     showgrid="false"
     fit-margin-top="0"
     fit-margin-left="0"
     fit-margin-right="0"
     fit-margin-bottom="0"
     inkscape:window-width="469"
     inkscape:window-height="425"
     inkscape:window-x="125"
     inkscape:window-y="125"
     inkscape:window-maximized="0" />
  <metadata
     id="metadata10585">
    <rdf:RDF>
      <cc:Work
         rdf:about="">
        <dc:format>image/svg+xml</dc:format>
        <dc:type
           rdf:resource="http://purl.org/dc/dcmitype/StillImage" />
        <dc:title></dc:title>
      </cc:Work>
    </rdf:RDF>
  </metadata>
  <g
     inkscape:label="Layer 1"
     inkscape:groupmode="layer"
     id="layer1"
     transform="translate(-248.96946,-419.19255)">
    <g
       transform="matrix(1.25,0,0,-1.25,-268.42941,1314.5183)"
       id="g8837">
      <g
         id="g8839"
         clip-path="url(#clipPath8841)">
        <g
           id="g8845"
           transform="translate(418.6691,572.0106)">
          <path
             inkscape:connector-curvature="0"
             d="m 0,0 63.003,0 c 1.182,0 2.342,0.481 3.182,1.315 0.84,0.839 1.318,2 1.318,3.181 l 0,135.008 c 0,1.183 -0.478,2.343 -1.318,3.182 -0.84,0.835 -2,1.314 -3.182,1.314 L 0,144 c -1.182,0 -2.342,-0.479 -3.182,-1.314 -0.836,-0.839 -1.315,-1.999 -1.315,-3.182 l 0,-135.008 C -4.497,2.959 -3.678,1.5 -2.383,0.674 -1.639,0.199 -0.858,0.088 0,0"
             style="fill:#ffffff;fill-opacity:1;fill-rule:nonzero;stroke:none"
             id="path8847" />
        </g>
        <g
           id="g8849"
           transform="translate(418.6691,572.0106)">
          <path
             inkscape:connector-curvature="0"
             d="m 0,0 63.003,0 c 1.182,0 2.342,0.481 3.182,1.315 0.84,0.839 1.318,2 1.318,3.181 l 0,135.008 c 0,1.183 -0.478,2.343 -1.318,3.182 -0.84,0.835 -2,1.314 -3.182,1.314 L 0,144 c -1.182,0 -2.342,-0.479 -3.182,-1.314 -0.836,-0.839 -1.315,-1.999 -1.315,-3.182 l 0,-135.008 C -4.497,2.959 -3.678,1.5 -2.383,0.674 -1.639,0.199 -0.858,0.088 0,0 z"
             style="fill:none;stroke:#231f20;stroke-width:0.5;stroke-linecap:butt;stroke-linejoin:miter;stroke-miterlimit:4;stroke-opacity:1;stroke-dasharray:none"
             id="path8851" />
        </g>
        <g
           id="g8853"
           transform="translate(415.4321,576.5106)">
          <path
             inkscape:connector-curvature="0"
             d="m 0,0 0,135.002 c 0,0.851 0.342,1.688 0.946,2.288 0.601,0.601 1.443,0.954 2.292,0.954 l 63.004,0 c 0.85,0 1.688,-0.353 2.288,-0.954 0.605,-0.6 0.951,-1.437 0.951,-2.288 L 69.481,0 c 0,-0.855 -0.346,-1.689 -0.951,-2.289 -0.604,-0.605 -1.438,-0.951 -2.288,-0.951 l -63.004,0 c -0.853,0 -1.687,0.346 -2.287,0.951 C 0.346,-1.689 0,-0.855 0,0"
             style="fill:#231f20;fill-opacity:1;fill-rule:evenodd;stroke:none"
             id="path8855" />
        </g>
        <g
           id="g8857"
           transform="translate(417.1941,576.5087)">
          <path
             inkscape:connector-curvature="0"
             d="m 0,0 c 0,-0.391 0.16,-0.766 0.434,-1.039 0.275,-0.279 0.654,-0.437 1.044,-0.437 l 63,0 c 0.389,0 0.768,0.158 1.041,0.437 0.274,0.273 0.438,0.648 0.438,1.039 l 0,135.002 c 0,0.388 -0.16,0.771 -0.434,1.04 -0.273,0.274 -0.656,0.439 -1.045,0.439 l -63,0 c -0.39,0 -0.775,-0.165 -1.048,-0.439 C 0.156,135.769 0,135.39 0,135.002 L 0,0 z"
             style="fill:#ffffff;fill-opacity:1;fill-rule:evenodd;stroke:none"
             id="path8859" />
        </g>
        <g
           id="g8861"
           transform="translate(453.6451,679.4023)">
          <path
             inkscape:connector-curvature="0"
             d="m 0,0 -3.473,-7.389 -3.476,7.265 0,-7.265 -2.057,0 0,12.001 2.057,0 3.476,-7.222 3.473,7.222 2.061,0 0,-12.001 L 0,-7.389 0,0 z"
             style="fill:#231f20;fill-opacity:1;fill-rule:evenodd;stroke:none"
             id="path8863" />
        </g>
        <g
           id="g8865"
           transform="translate(469.3291,704.0146)">
          <path
             inkscape:connector-curvature="0"
             d="M 0,0 3.939,0 C 5.451,0 6.914,-0.632 7.982,-1.698 9.521,-3.234 9.841,-5.7 9.359,-7.744 8.912,-9.648 7.574,-11.092 5.72,-11.712 5.146,-11.904 4.543,-12 3.939,-12 L 0,-12 0,0 z"
             style="fill:#231f20;fill-opacity:1;fill-rule:evenodd;stroke:none"
             id="path8867" />
        </g>
        <g
           id="g8869"
           transform="translate(440.0201,704.0146)">
          <path
             inkscape:connector-curvature="0"
             d="M 0,0 C 1.209,0 2.377,-0.628 3.047,-1.634 3.856,-2.85 3.848,-4.472 3.045,-5.688 2.379,-6.696 1.207,-7.322 0,-7.322 l -3.851,0 0,-4.678 -2.055,0 0,12 L 0,0 z"
             style="fill:#231f20;fill-opacity:1;fill-rule:evenodd;stroke:none"
             id="path8871" />
        </g>
        <g
           id="g8873"
           transform="translate(424.9791,699.7026)">
          <path
             inkscape:connector-curvature="0"
             d="M 0,0 3.193,-0.668 C 4.522,-0.946 5.619,-1.978 5.932,-3.306 6.221,-4.536 5.756,-5.874 4.809,-6.7 4.184,-7.246 3.358,-7.584 2.553,-7.748 0.924,-8.084 -0.826,-7.76 -2.195,-6.806 -2.717,-6.444 -3.101,-6 -3.5,-5.512 l 1.543,1.432 c 0.191,-0.26 0.383,-0.512 0.621,-0.73 0.389,-0.356 0.852,-0.632 1.352,-0.8 0.992,-0.336 2.162,-0.272 3.092,0.226 0.458,0.244 0.796,0.636 0.863,1.156 0.097,0.754 -0.469,1.412 -1.19,1.56 L -0.5,-1.986 c -1.176,0.244 -2.094,1.158 -2.361,2.326 -0.297,1.286 0.209,2.654 1.299,3.406 0.705,0.486 1.632,0.686 2.48,0.73 C 2.047,4.538 3.19,4.24 4.158,3.658 4.645,3.366 5.025,3.006 5.424,2.608 L 3.91,1.224 C 3.654,1.476 3.406,1.708 3.096,1.896 2.74,2.108 2.348,2.268 1.943,2.352 1.34,2.478 0.715,2.444 0.123,2.27 -0.279,2.152 -0.658,1.948 -0.82,1.536 -0.969,1.158 -0.902,0.708 -0.646,0.394 -0.475,0.184 -0.256,0.062 0,0"
             style="fill:#231f20;fill-opacity:1;fill-rule:evenodd;stroke:none"
             id="path8875" />
        </g>
        <g
           id="g8877"
           transform="translate(428.2021,672.0137)">
          <path
             inkscape:connector-curvature="0"
             d="m 0,0 0,12 2.052,0 0,-9.943 6.75,0 L 8.802,0 0,0 z"
             style="fill:#231f20;fill-opacity:1;fill-rule:evenodd;stroke:none"
             id="path8879" />
        </g>
        <g
           id="g8881"
           transform="translate(446.7741,692.0146)">
          <path
             inkscape:connector-curvature="0"
             d="m 0,0 0,12 8.621,0 0,-2.07 -6.566,0 0,-2.43 3.566,0 0,-2.07 -3.566,0 0,-3.374 6.75,0 L 8.805,0 0,0 z"
             style="fill:#231f20;fill-opacity:1;fill-rule:evenodd;stroke:none"
             id="path8883" />
        </g>
        <g
           id="g8885"
           transform="translate(458.0491,692.0146)">
          <path
             inkscape:connector-curvature="0"
             d="m 0,0 0,12 8.625,0 0,-2.07 -6.568,0 0,-2.43 3.568,0 0,-2.07 -3.568,0 0,-3.374 6.75,0 L 8.807,0 0,0 z"
             style="fill:#231f20;fill-opacity:1;fill-rule:evenodd;stroke:none"
             id="path8887" />
        </g>
        <g
           id="g8889"
           transform="translate(468.7681,681.9443)">
          <path
             inkscape:connector-curvature="0"
             d="m 0,0 0,-9.931 -2.056,0 0,9.931 -3.374,0 0,2.07 8.807,0 L 3.377,0 0,0 z"
             style="fill:#231f20;fill-opacity:1;fill-rule:evenodd;stroke:none"
             id="path8891" />
        </g>
        <g
           id="g8893"
           transform="translate(428.6801,622.7357)">
          <path
             inkscape:connector-curvature="0"
             d="m 0,0 -2.181,-6.723 -2.223,6.777 0,-6.777 -1.678,0 0,12 1.748,0 2.139,-6.527 2.125,6.527 1.764,0 0,-12 L 0,-6.723 0,0 z"
             style="fill:#231f20;fill-opacity:1;fill-rule:evenodd;stroke:none"
             id="path8895" />
        </g>
        <g
           id="g8897"
           transform="translate(475.9441,622.7357)">
          <path
             inkscape:connector-curvature="0"
             d="m 0,0 -2.182,-6.723 -2.22,6.777 0,-6.777 -1.68,0 0,12 1.75,0 2.139,-6.527 2.123,6.527 1.765,0 0,-12 L 0,-6.723 0,0 z"
             style="fill:#231f20;fill-opacity:1;fill-rule:evenodd;stroke:none"
             id="path8899" />
        </g>
        <g
           id="g8901"
           transform="translate(456.5381,622.7357)">
          <path
             inkscape:connector-curvature="0"
             d="m 0,0 -2.18,-6.723 -2.221,6.777 0,-6.777 -1.681,0 0,12 1.748,0 2.14,-6.527 2.125,6.527 1.764,0 0,-12 L 0,-6.723 0,0 z"
             style="fill:#231f20;fill-opacity:1;fill-rule:evenodd;stroke:none"
             id="path8903" />
        </g>
        <g
           id="g8905"
           transform="translate(437.1311,616.0126)">
          <path
             inkscape:connector-curvature="0"
             d="M 0,0 0,12 1.741,12 4.87,5.014 4.883,12 6.565,12 6.565,0 5.258,0 1.682,7.959 1.682,0 0,0 z"
             style="fill:#231f20;fill-opacity:1;fill-rule:evenodd;stroke:none"
             id="path8907" />
        </g>
        <g
           id="g8909"
           transform="translate(467.3271,619.0927)">
          <path
             inkscape:connector-curvature="0"
             d="m 0,0 c 0,-1.309 -0.809,-2.519 -2.014,-3.025 -0.795,-0.334 -1.717,-0.336 -2.51,0 -1.222,0.513 -2.009,1.699 -2.009,3.025 l 0,8.92 1.673,0 0,-8.92 c 0,-0.525 0.276,-1.029 0.715,-1.32 0.528,-0.35 1.233,-0.346 1.758,0.004 0.439,0.291 0.699,0.793 0.699,1.316 l 0,8.92 L 0,8.92 0,0 z"
             style="fill:#231f20;fill-opacity:1;fill-rule:evenodd;stroke:none"
             id="path8911" />
        </g>
        <g
           id="g8913"
           transform="translate(471.3931,701.8545)">
          <path
             inkscape:connector-curvature="0"
             d="m 0,0 0,-7.68 1.858,0 c 0.38,0 0.757,0.056 1.121,0.174 1.177,0.378 2.047,1.264 2.322,2.474 0.295,1.301 0.156,2.994 -0.854,3.972 C 3.752,-0.39 2.822,0 1.858,0 L 0,0 z"
             style="fill:#ffffff;fill-opacity:1;fill-rule:evenodd;stroke:none"
             id="path8915" />
        </g>
        <g
           id="g8917"
           transform="translate(440.0201,701.9429)">
          <path
             inkscape:connector-curvature="0"
             d="m 0,0 -3.851,-0.003 0,-3.175 3.851,0 c 0.637,0 1.231,0.394 1.475,0.984 0.246,0.59 0.109,1.284 -0.346,1.734 C 0.805,-0.136 0.44,-0.024 0,0"
             style="fill:#ffffff;fill-opacity:1;fill-rule:evenodd;stroke:none"
             id="path8919" />
        </g>
        <path
           inkscape:connector-curvature="0"
           d="m 458.801,684.014 2.065,0 0,-12 -2.065,0 0,12 z"
           style="fill:#231f20;fill-opacity:1;fill-rule:evenodd;stroke:none"
           id="path8921" />
        <path
           inkscape:connector-curvature="0"
           d="m 439.479,684.014 2.065,0 0,-12 -2.065,0 0,12 z"
           style="fill:#231f20;fill-opacity:1;fill-rule:evenodd;stroke:none"
           id="path8923" />
        <path
           inkscape:connector-curvature="0"
           d="m 432.905,628.013 1.695,0 0,-12 -1.695,0 0,12 z"
           style="fill:#231f20;fill-opacity:1;fill-rule:evenodd;stroke:none"
           id="path8925" />
        <path
           inkscape:connector-curvature="0"
           d="m 446.227,628.013 1.695,0 0,-12 -1.695,0 0,12 z"
           style="fill:#231f20;fill-opacity:1;fill-rule:evenodd;stroke:none"
           id="path8927" />
        <g
           id="g8929"
           transform="translate(476.3701,650.1924)">
          <path
             inkscape:connector-curvature="0"
             d="m 0,0 c 0,7.068 -3.338,14.333 -11.682,14.333 -8.248,0 -11.781,-7.068 -11.781,-14.432 0,-7.363 3.435,-14.546 11.781,-14.546 C -3.241,-14.645 0,-7.167 0,0"
             style="fill:#231f20;fill-opacity:1;fill-rule:evenodd;stroke:none"
             id="path8931" />
        </g>
        <g
           id="g8933"
           transform="translate(447.3111,645.6758)">
          <path
             inkscape:connector-curvature="0"
             d="m 0,0 c 0,5.792 -4.615,10.112 -10.996,10.112 -1.768,0 -3.143,-0.196 -5.4,-0.687 l 0.295,4.025 13.841,0 0.1,4.908 -18.654,0 -0.883,-13.155 5.008,-1.276 c 2.06,0.785 3.533,1.08 5.398,1.08 2.063,0 3.535,-0.393 4.516,-1.178 1.08,-0.884 1.767,-2.356 1.767,-3.829 0,-3.142 -2.552,-5.007 -6.773,-5.007 -2.848,0 -5.695,0.785 -8.149,2.258 l -2.65,-4.221 c 3.533,-2.16 6.969,-3.158 10.799,-3.158 C -4.91,-10.128 0,-5.89 0,0"
             style="fill:#231f20;fill-opacity:1;fill-rule:evenodd;stroke:none"
             id="path8935" />
        </g>
        <g
           id="g8937"
           transform="translate(471.3641,650.1924)">
          <path
             inkscape:connector-curvature="0"
             d="m 0,0 c 0,-5.793 -2.553,-9.621 -6.676,-9.621 -4.223,0 -6.775,3.435 -6.775,9.621 0,4.123 1.767,9.326 6.775,9.326 C -2.455,9.326 0,5.792 0,-0.099 L 0,0 z"
             style="fill:#ffffff;fill-opacity:1;fill-rule:evenodd;stroke:none"
             id="path8939" />
        </g>
        <g
           id="g8941"
           transform="translate(468.7941,595.9966)">
          <path
             inkscape:connector-curvature="0"
             d="m 0,0 c 0,3.037 -0.592,6.073 -1.604,8.182 -1.518,2.953 -3.627,4.303 -6.664,4.303 -2.783,0 -4.723,-0.844 -6.156,-2.699 C -16.028,7.508 -17.04,3.965 -17.04,0 c 0,-2.869 0.674,-6.074 1.688,-8.097 1.434,-2.953 3.541,-4.317 6.916,-4.317 2.531,0 4.471,0.858 5.82,2.713 C -0.928,-7.591 0,-3.796 0,0"
             style="fill:#231f20;fill-opacity:1;fill-rule:evenodd;stroke:none"
             id="path8943" />
        </g>
        <g
           id="g8945"
           transform="translate(447.0301,591.9486)">
          <path
             inkscape:connector-curvature="0"
             d="m 0,0 c 0,2.361 -0.506,3.627 -2.277,5.228 1.011,1.52 1.349,2.531 1.349,3.965 0,4.049 -3.289,7.34 -7.338,7.34 -3.121,0 -5.82,-1.856 -7.086,-4.893 l 3.543,-1.349 c 0.844,1.601 2.026,2.361 3.627,2.361 1.94,0 3.459,-1.35 3.459,-3.205 0,-1.52 -0.844,-2.362 -2.361,-2.362 l -0.76,0 -0.084,0 -0.084,0 0,0.084 0,-3.88 0.42,0 c 1.772,-0.084 1.857,-0.084 2.447,-0.506 0.844,-0.59 1.35,-1.772 1.35,-3.037 0,-2.446 -1.772,-4.217 -4.303,-4.217 -2.277,0 -3.879,1.265 -4.47,3.627 l -3.711,-1.098 c 1.011,-3.879 4.132,-6.424 8.013,-6.424 C -3.373,-8.366 0,-4.893 0,0"
             style="fill:#231f20;fill-opacity:1;fill-rule:evenodd;stroke:none"
             id="path8947" />
        </g>
        <g
           id="g8949"
           transform="translate(464.9971,595.9966)">
          <path
             inkscape:connector-curvature="0"
             d="m 0,0 c 0,-1.855 -0.422,-4.218 -0.928,-5.484 -0.844,-2.107 -1.94,-3.035 -3.711,-3.035 -1.518,0 -2.531,0.59 -3.289,1.855 -0.928,1.518 -1.436,4.133 -1.436,6.664 0,2.024 0.338,4.217 0.928,5.651 0.844,2.109 2.026,3.037 3.881,2.953 C -3.121,8.52 -2.194,8.014 -1.434,6.748 -0.506,5.145 0,2.7 0,0"
             style="fill:#ffffff;fill-opacity:1;fill-rule:evenodd;stroke:none"
             id="path8951" />
        </g>
      </g>
    </g>
  </g>
</svg>
