<?xml version="1.0" encoding="UTF-8" standalone="no"?>
<!-- Created with Inkscape (http://www.inkscape.org/) -->

<svg
   xmlns:dc="http://purl.org/dc/elements/1.1/"
   xmlns:cc="http://creativecommons.org/ns#"
   xmlns:rdf="http://www.w3.org/1999/02/22-rdf-syntax-ns#"
   xmlns:svg="http://www.w3.org/2000/svg"
   xmlns="http://www.w3.org/2000/svg"
   xmlns:sodipodi="http://sodipodi.sourceforge.net/DTD/sodipodi-0.dtd"
   xmlns:inkscape="http://www.inkscape.org/namespaces/inkscape"
   width="83.75"
   height="21.40625"
   id="svg11028"
   version="1.1"
   inkscape:version="0.48.1 "
   sodipodi:docname="New document 74">
  <defs
     id="defs11030">
    <clipPath
       clipPathUnits="userSpaceOnUse"
       id="clipPath9353">
      <path
         inkscape:connector-curvature="0"
         d="m 63.125,364.25 513.184,0 0,384.75 -513.184,0 0,-384.75 z"
         id="path9355" />
    </clipPath>
  </defs>
  <sodipodi:namedview
     id="base"
     pagecolor="#ffffff"
     bordercolor="#666666"
     borderopacity="1.0"
     inkscape:pageopacity="0.0"
     inkscape:pageshadow="2"
     inkscape:zoom="2.8"
     inkscape:cx="45.384078"
     inkscape:cy="8.6960412"
     inkscape:document-units="px"
     inkscape:current-layer="layer1"
     showgrid="false"
     fit-margin-top="0"
     fit-margin-left="0"
     fit-margin-right="0"
     fit-margin-bottom="0"
     inkscape:window-width="469"
     inkscape:window-height="425"
     inkscape:window-x="719"
     inkscape:window-y="95"
     inkscape:window-maximized="0" />
  <metadata
     id="metadata11033">
    <rdf:RDF>
      <cc:Work
         rdf:about="">
        <dc:format>image/svg+xml</dc:format>
        <dc:type
           rdf:resource="http://purl.org/dc/dcmitype/StillImage" />
        <dc:title></dc:title>
      </cc:Work>
    </rdf:RDF>
  </metadata>
  <g
     inkscape:label="Layer 1"
     inkscape:groupmode="layer"
     id="layer1"
     transform="translate(-292.41071,-275.95758)">
    <g
       id="g9349"
       transform="matrix(1.25,0,0,-1.25,98.631839,917.22427)">
      <g
         id="g9351"
         clip-path="url(#clipPath9353)">
        <g
           id="g9357"
           transform="translate(221.7731,498.9196)">
          <path
             d="m 0,0 c 0,-1.532 -1.24,-2.772 -2.771,-2.772 l -60.958,0 c -1.531,0 -2.771,1.24 -2.771,2.772 l 0,11.083 c 0,1.53 1.24,2.772 2.771,2.772 l 60.958,0 C -1.24,13.855 0,12.613 0,11.083 L 0,0 z"
             style="fill:#ffffff;fill-opacity:1;fill-rule:nonzero;stroke:none"
             id="path9359"
             inkscape:connector-curvature="0" />
        </g>
        <g
           id="g9361"
           transform="translate(221.7731,498.9196)">
          <path
             d="m 0,0 c 0,-1.532 -1.24,-2.772 -2.771,-2.772 l -60.958,0 c -1.531,0 -2.771,1.24 -2.771,2.772 l 0,11.083 c 0,1.53 1.24,2.772 2.771,2.772 l 60.958,0 C -1.24,13.855 0,12.613 0,11.083 L 0,0 z"
             style="fill:none;stroke:#231f20;stroke-width:0.5;stroke-linecap:butt;stroke-linejoin:miter;stroke-miterlimit:4;stroke-opacity:1;stroke-dasharray:none"
             id="path9363"
             inkscape:connector-curvature="0" />
        </g>
        <g
           id="g9365"
           transform="translate(219.6951,498.9196)">
          <path
             d="m 0,0 c 0,-0.383 -0.311,-0.694 -0.693,-0.694 l -60.958,0 c -0.382,0 -0.693,0.311 -0.693,0.694 l 0,11.083 c 0,0.383 0.311,0.694 0.693,0.694 l 60.958,0 C -0.311,11.777 0,11.466 0,11.083 L 0,0 z m -0.693,12.816 -60.958,0 c -0.955,0 -1.732,-0.778 -1.732,-1.733 l 0,-11.083 c 0,-0.955 0.777,-1.733 1.732,-1.733 l 60.958,0 c 0.955,0 1.732,0.778 1.732,1.733 l 0,11.083 c 0,0.955 -0.777,1.733 -1.732,1.733"
             style="fill:#231f20;fill-opacity:1;fill-rule:nonzero;stroke:none"
             id="path9367"
             inkscape:connector-curvature="0" />
        </g>
        <g
           id="g9369"
           transform="translate(165.5153,500.6506)">
          <path
             d="m 0,0 -0.916,0 -1.375,4.365 0,-4.365 -0.99,0 0,7.62 0.992,0 1.297,-4.1 0,4.1 L 0,7.62 0,0 z"
             style="fill:#231f20;fill-opacity:1;fill-rule:nonzero;stroke:none"
             id="path9371"
             inkscape:connector-curvature="0" />
        </g>
        <g
           id="g9373"
           transform="translate(170.0821,500.6506)">
          <path
             d="m 0,0 -2.895,0 0,7.62 2.895,0 0,-0.991 -1.905,0 0,-2.058 1.219,0 0,-0.934 -1.219,0 0,-2.647 L 0,0.99 0,0 z"
             style="fill:#231f20;fill-opacity:1;fill-rule:nonzero;stroke:none"
             id="path9375"
             inkscape:connector-curvature="0" />
        </g>
        <path
           d="m 172.293,500.651 -0.993,0 0,7.62 0.993,0 0,-7.62 z"
           style="fill:#231f20;fill-opacity:1;fill-rule:nonzero;stroke:none"
           id="path9377"
           inkscape:connector-curvature="0" />
        <g
           id="g9379"
           transform="translate(175.4921,507.3556)">
          <path
             d="m 0,0 c -0.301,0 -0.51,-0.265 -0.627,-0.799 -0.092,-0.431 -0.137,-1.13 -0.137,-2.095 0,-0.793 0.024,-1.364 0.068,-1.707 0.108,-0.793 0.338,-1.19 0.696,-1.19 0.357,0 0.535,0.309 0.535,0.928 l 0,0.746 -0.529,0 0,0.99 1.519,0 0,-1.736 C 1.525,-5.406 1.416,-5.845 1.197,-6.179 0.933,-6.582 0.533,-6.781 0,-6.781 c -0.707,0 -1.196,0.395 -1.465,1.188 -0.193,0.574 -0.291,1.474 -0.291,2.699 0,1.279 0.113,2.217 0.336,2.812 0.269,0.716 0.744,1.075 1.42,1.075 0.9,0 1.408,-0.491 1.525,-1.473 l -0.992,0 C 0.412,-0.16 0.232,0 0,0"
             style="fill:#231f20;fill-opacity:1;fill-rule:nonzero;stroke:none"
             id="path9381"
             inkscape:connector-curvature="0" />
        </g>
        <g
           id="g9383"
           transform="translate(181.7441,500.6506)">
          <path
             d="m 0,0 -0.991,0 0,3.578 -1.298,0 0,-3.578 -0.993,0 0,7.62 0.993,0 0,-3.049 1.298,0 0,3.049 L 0,7.62 0,0 z"
             style="fill:#231f20;fill-opacity:1;fill-rule:nonzero;stroke:none"
             id="path9385"
             inkscape:connector-curvature="0" />
        </g>
        <g
           id="g9387"
           transform="translate(185.7051,502.9357)">
          <path
             d="m 0,0 c 0,0.614 -0.069,1.008 -0.205,1.18 -0.061,0.076 -0.192,0.113 -0.391,0.113 l -0.703,0 0,-2.588 0.642,0 c 0.219,0 0.362,0.039 0.428,0.116 C -0.077,-1.007 0,-0.615 0,0 m -0.116,3.323 c 0,0.466 -0.064,0.775 -0.197,0.921 -0.055,0.067 -0.15,0.1 -0.287,0.1 l -0.699,0 0,-2.058 0.744,0 c 0.168,0 0.273,0.035 0.318,0.105 0.082,0.127 0.121,0.437 0.121,0.932 M 0.992,-0.166 C 0.992,-0.74 0.916,-1.187 0.763,-1.507 0.529,-2.006 0.086,-2.265 -0.565,-2.285 l -1.724,0 0,7.62 1.726,0 c 0.959,0 1.44,-0.663 1.44,-1.989 C 0.877,2.436 0.724,1.901 0.423,1.739 0.613,1.672 0.744,1.553 0.814,1.381 0.933,1.096 0.992,0.58 0.992,-0.166"
             style="fill:#231f20;fill-opacity:1;fill-rule:nonzero;stroke:none"
             id="path9389"
             inkscape:connector-curvature="0" />
        </g>
        <g
           id="g9391"
           transform="translate(189.4311,507.3556)">
          <path
             d="m 0,0 c -0.299,0 -0.506,-0.265 -0.623,-0.799 -0.092,-0.431 -0.137,-1.13 -0.137,-2.095 0,-0.85 0.018,-1.418 0.053,-1.707 0.108,-0.793 0.342,-1.19 0.707,-1.19 0.356,0 0.586,0.397 0.692,1.19 0.047,0.334 0.068,0.904 0.068,1.707 0,0.965 -0.045,1.664 -0.137,2.095 C 0.506,-0.265 0.299,0 0,0 m 0,0.993 c 0.705,0 1.188,-0.359 1.447,-1.075 0.204,-0.56 0.305,-1.498 0.305,-2.812 0,-1.287 -0.092,-2.201 -0.275,-2.744 C 1.219,-6.4 0.727,-6.781 0,-6.781 c -0.74,0 -1.238,0.395 -1.492,1.188 -0.172,0.533 -0.258,1.433 -0.258,2.699 0,1.289 0.11,2.226 0.326,2.812 0.27,0.716 0.745,1.075 1.424,1.075"
             style="fill:#231f20;fill-opacity:1;fill-rule:nonzero;stroke:none"
             id="path9393"
             inkscape:connector-curvature="0" />
        </g>
        <g
           id="g9395"
           transform="translate(194.9251,506.2116)">
          <path
             d="m 0,0 c 0,0.713 -0.218,1.068 -0.658,1.068 l -0.64,0 0,-2.058 0.619,0 C -0.226,-0.99 0,-0.66 0,0 m 0.991,-5.561 -1.016,0 -0.793,3.578 -0.48,0 0,-3.578 -0.991,0 0,7.62 1.373,0 c 0.432,0 0.799,-0.092 1.098,-0.274 0.539,-0.336 0.809,-0.93 0.809,-1.783 0,-0.879 -0.282,-1.465 -0.846,-1.76 l 0.846,-3.803 z"
             style="fill:#231f20;fill-opacity:1;fill-rule:nonzero;stroke:none"
             id="path9397"
             inkscape:connector-curvature="0" />
        </g>
        <g
           id="g9399"
           transform="translate(200.4121,500.6506)">
          <path
             d="m 0,0 -0.991,0 0,3.578 -1.298,0 0,-3.578 -0.993,0 0,7.62 0.993,0 0,-3.049 1.298,0 0,3.049 L 0,7.62 0,0 z"
             style="fill:#231f20;fill-opacity:1;fill-rule:nonzero;stroke:none"
             id="path9401"
             inkscape:connector-curvature="0" />
        </g>
        <g
           id="g9403"
           transform="translate(203.6031,507.3556)">
          <path
             d="m 0,0 c -0.299,0 -0.506,-0.265 -0.623,-0.799 -0.09,-0.431 -0.137,-1.13 -0.137,-2.095 0,-0.85 0.018,-1.418 0.053,-1.707 0.107,-0.793 0.344,-1.19 0.707,-1.19 0.356,0 0.586,0.397 0.692,1.19 0.046,0.334 0.07,0.904 0.07,1.707 0,0.965 -0.047,1.664 -0.139,2.095 C 0.508,-0.265 0.299,0 0,0 m 0,0.993 c 0.705,0 1.188,-0.359 1.447,-1.075 C 1.65,-0.642 1.752,-1.58 1.752,-2.894 1.752,-4.181 1.66,-5.095 1.479,-5.638 1.219,-6.4 0.727,-6.781 0,-6.781 c -0.74,0 -1.238,0.395 -1.492,1.188 -0.172,0.533 -0.258,1.433 -0.258,2.699 0,1.289 0.109,2.226 0.326,2.812 0.27,0.716 0.744,1.075 1.424,1.075"
             style="fill:#231f20;fill-opacity:1;fill-rule:nonzero;stroke:none"
             id="path9405"
             inkscape:connector-curvature="0" />
        </g>
        <g
           id="g9407"
           transform="translate(208.3281,507.3556)">
          <path
             d="m 0,0 c -0.299,0 -0.506,-0.265 -0.623,-0.799 -0.092,-0.431 -0.137,-1.13 -0.137,-2.095 0,-0.85 0.018,-1.418 0.053,-1.707 0.107,-0.793 0.341,-1.19 0.707,-1.19 0.355,0 0.586,0.397 0.691,1.19 0.047,0.334 0.068,0.904 0.068,1.707 0,0.965 -0.044,1.664 -0.136,2.095 C 0.508,-0.265 0.299,0 0,0 m 0,0.993 c 0.705,0 1.187,-0.359 1.447,-1.075 C 1.65,-0.642 1.752,-1.58 1.752,-2.894 1.752,-4.181 1.66,-5.095 1.476,-5.638 1.218,-6.4 0.726,-6.781 0,-6.781 c -0.741,0 -1.239,0.395 -1.492,1.188 -0.172,0.533 -0.258,1.433 -0.258,2.699 0,1.289 0.109,2.226 0.326,2.812 C -1.155,0.634 -0.68,0.993 0,0.993"
             style="fill:#231f20;fill-opacity:1;fill-rule:nonzero;stroke:none"
             id="path9409"
             inkscape:connector-curvature="0" />
        </g>
        <g
           id="g9411"
           transform="translate(213.8221,504.4616)">
          <path
             d="m 0,0 c 0,1.263 -0.115,2.105 -0.344,2.521 -0.111,0.197 -0.283,0.297 -0.512,0.297 l -0.443,0 0,-5.639 0.443,0 c 0.235,0 0.405,0.098 0.512,0.291 C -0.115,-2.123 0,-1.282 0,0 m 0.99,0 c 0,-1.657 -0.223,-2.77 -0.67,-3.338 -0.25,-0.315 -0.623,-0.473 -1.123,-0.473 l -1.486,0 0,7.62 1.486,0 c 0.494,0 0.865,-0.162 1.115,-0.487 C 0.764,2.748 0.99,1.64 0.99,0"
             style="fill:#231f20;fill-opacity:1;fill-rule:nonzero;stroke:none"
             id="path9413"
             inkscape:connector-curvature="0" />
        </g>
      </g>
    </g>
  </g>
</svg>
