<?xml version="1.0" encoding="UTF-8" standalone="no"?>
<!-- Created with Inkscape (http://www.inkscape.org/) -->

<svg
   xmlns:dc="http://purl.org/dc/elements/1.1/"
   xmlns:cc="http://creativecommons.org/ns#"
   xmlns:rdf="http://www.w3.org/1999/02/22-rdf-syntax-ns#"
   xmlns:svg="http://www.w3.org/2000/svg"
   xmlns="http://www.w3.org/2000/svg"
   xmlns:sodipodi="http://sodipodi.sourceforge.net/DTD/sodipodi-0.dtd"
   xmlns:inkscape="http://www.inkscape.org/namespaces/inkscape"
   width="744.09448819"
   height="1052.3622047"
   id="svg11474"
   version="1.1"
   inkscape:version="0.48.1 "
   sodipodi:docname="New document 61">
  <defs
     id="defs11476">
    <clipPath
       clipPathUnits="userSpaceOnUse"
       id="clipPath10264">
      <path
         inkscape:connector-curvature="0"
         d="m 27.062,72.39 512.876,0 0,304.861 -512.876,0 0,-304.861 z"
         id="path10266" />
    </clipPath>
  </defs>
  <sodipodi:namedview
     id="base"
     pagecolor="#ffffff"
     bordercolor="#666666"
     borderopacity="1.0"
     inkscape:pageopacity="0.0"
     inkscape:pageshadow="2"
     inkscape:zoom="0.35"
     inkscape:cx="375"
     inkscape:cy="520"
     inkscape:document-units="px"
     inkscape:current-layer="layer1"
     showgrid="false"
     inkscape:window-width="469"
     inkscape:window-height="425"
     inkscape:window-x="633"
     inkscape:window-y="160"
     inkscape:window-maximized="0" />
  <metadata
     id="metadata11479">
    <rdf:RDF>
      <cc:Work
         rdf:about="">
        <dc:format>image/svg+xml</dc:format>
        <dc:type
           rdf:resource="http://purl.org/dc/dcmitype/StillImage" />
        <dc:title></dc:title>
      </cc:Work>
    </rdf:RDF>
  </metadata>
  <g
     inkscape:label="Layer 1"
     inkscape:groupmode="layer"
     id="layer1">
    <g
       id="g10260"
       transform="matrix(1.25,0,0,-1.25,60.565393,727.46856)">
      <g
         id="g10262"
         clip-path="url(#clipPath10264)">
        <g
           id="g10268"
           transform="translate(67.7326,155.6356)">
          <path
             d="m 0,0 c -1.626,0 -2.949,1.323 -2.949,2.949 l 0,27.001 c 0,1.626 1.323,2.949 2.949,2.949 l 124.2,0 c 1.627,0 2.951,-1.323 2.951,-2.949 l 0,-27.001 C 127.151,1.323 125.827,0 124.2,0 L 0,0 z"
             style="fill:#ffffff;fill-opacity:1;fill-rule:nonzero;stroke:none"
             id="path10270"
             inkscape:connector-curvature="0" />
        </g>
        <g
           id="g10272"
           transform="translate(191.9324,188.7846)">
          <path
             d="m 0,0 -124.2,0 c -1.764,0 -3.199,-1.435 -3.199,-3.199 l 0,-27.001 c 0,-1.764 1.435,-3.199 3.199,-3.199 l 124.2,0 c 1.765,0 3.201,1.435 3.201,3.199 l 0,27.001 C 3.201,-1.435 1.765,0 0,0 m 0,-0.5 c 1.492,0 2.701,-1.208 2.701,-2.699 l 0,-27.001 c 0,-1.491 -1.209,-2.699 -2.701,-2.699 l -124.2,0 c -1.492,0 -2.699,1.208 -2.699,2.699 l 0,27.001 c 0,1.491 1.207,2.699 2.699,2.699 L 0,-0.5"
             style="fill:#231f20;fill-opacity:1;fill-rule:nonzero;stroke:none"
             id="path10274"
             inkscape:connector-curvature="0" />
        </g>
        <g
           id="g10276"
           transform="translate(192.8324,158.5846)">
          <path
             d="m 0,0 c 0,-0.496 -0.402,-0.899 -0.9,-0.899 l -124.2,0 c -0.496,0 -0.9,0.403 -0.9,0.899 l 0,27.001 c 0,0.496 0.404,0.899 0.9,0.899 l 124.2,0 C -0.402,27.9 0,27.497 0,27.001 L 0,0 z m -0.9,29.025 -124.2,0 c -1.117,0 -2.025,-0.908 -2.025,-2.024 l 0,-27.001 c 0,-1.116 0.908,-2.024 2.025,-2.024 l 124.2,0 c 1.117,0 2.025,0.908 2.025,2.024 l 0,27.001 c 0,1.116 -0.908,2.024 -2.025,2.024"
             style="fill:#231f20;fill-opacity:1;fill-rule:nonzero;stroke:none"
             id="path10278"
             inkscape:connector-curvature="0" />
        </g>
        <g
           id="g10280"
           transform="translate(78.8654,170.7846)">
          <path
             d="M 0,0 -1.123,4.684 -2.262,0 0,0 z m 3.484,-5.899 -2.058,0 -0.936,3.886 -3.24,0 -0.938,-3.886 -2.042,0 L -2.246,8.5 0,8.5 3.484,-5.899 z"
             style="fill:#231f20;fill-opacity:1;fill-rule:nonzero;stroke:none"
             id="path10282"
             inkscape:connector-curvature="0" />
        </g>
        <g
           id="g10284"
           transform="translate(91.7072,164.8856)">
          <path
             d="m 0,0 -7.344,0 0,14.399 2.014,0 0,-12.388 5.33,0 L 0,0 z"
             style="fill:#231f20;fill-opacity:1;fill-rule:nonzero;stroke:none"
             id="path10286"
             inkscape:connector-curvature="0" />
        </g>
        <g
           id="g10288"
           transform="translate(101.0666,164.8856)">
          <path
             d="m 0,0 -7.344,0 0,14.399 2.014,0 0,-12.388 5.33,0 L 0,0 z"
             style="fill:#231f20;fill-opacity:1;fill-rule:nonzero;stroke:none"
             id="path10290"
             inkscape:connector-curvature="0" />
        </g>
        <g
           id="g10292"
           transform="translate(117.9162,177.2726)">
          <path
             d="m 0,0 -2.668,0 0,-12.387 -2.012,0 0,12.387 -2.664,0 0,2.012 L 0,2.012 0,0 z"
             style="fill:#231f20;fill-opacity:1;fill-rule:nonzero;stroke:none"
             id="path10294"
             inkscape:connector-curvature="0" />
        </g>
        <g
           id="g10296"
           transform="translate(128.0065,168.7686)">
          <path
             d="m 0,0 c 0,-1.114 -0.391,-2.065 -1.174,-2.852 -0.781,-0.788 -1.735,-1.182 -2.858,-1.182 -1.113,0 -2.064,0.394 -2.851,1.182 -0.787,0.787 -1.18,1.738 -1.18,2.852 l 0,10.516 2.012,0 0,-10.519 c 0,-0.558 0.195,-1.034 0.584,-1.427 0.39,-0.395 0.869,-0.591 1.435,-0.591 0.547,0 1.022,0.196 1.42,0.591 0.399,0.393 0.6,0.869 0.6,1.427 l 0,10.519 2.012,0 L 0,0 z"
             style="fill:#231f20;fill-opacity:1;fill-rule:nonzero;stroke:none"
             id="path10298"
             inkscape:connector-curvature="0" />
        </g>
        <g
           id="g10300"
           transform="translate(137.2136,175.3976)">
          <path
             d="m 0,0 c 0,1.192 -0.496,1.817 -1.486,1.875 l -2.551,0 0,-3.75 2.551,0 C -0.496,-1.818 0,-1.193 0,0 m 2.012,-10.512 -2.088,0 -1.902,6.624 -2.059,0 0,-6.624 -2.014,0 0,14.399 4.463,0 c 0.77,-0.066 1.201,-0.11 1.297,-0.129 0.662,-0.154 1.18,-0.47 1.555,-0.951 0.498,-0.643 0.748,-1.579 0.748,-2.808 0,-1.776 -0.666,-2.947 -2,-3.513 l 2,-6.998 z"
             style="fill:#231f20;fill-opacity:1;fill-rule:nonzero;stroke:none"
             id="path10302"
             inkscape:connector-curvature="0" />
        </g>
        <g
           id="g10304"
           transform="translate(149.7507,164.8856)">
          <path
             d="m 0,0 -2.014,0 -4.037,9.316 0,-9.316 -2.012,0 0,14.399 2.016,0 4.031,-9.302 0.002,9.302 2.014,0 L 0,0 z"
             style="fill:#231f20;fill-opacity:1;fill-rule:nonzero;stroke:none"
             id="path10306"
             inkscape:connector-curvature="0" />
        </g>
        <g
           id="g10308"
           transform="translate(160.2565,168.8146)">
          <path
             d="M 0,0 C 0,-1.018 -0.264,-1.898 -0.791,-2.638 -1.473,-3.599 -2.48,-4.08 -3.814,-4.08 c -1.499,0 -2.616,0.481 -3.356,1.443 -0.594,0.759 -0.893,1.716 -0.893,2.869 l 2.014,0 c 0,-0.839 0.264,-1.461 0.791,-1.865 0.395,-0.289 0.875,-0.434 1.442,-0.434 1.152,0 1.728,0.687 1.728,2.062 0,1.076 -0.463,1.956 -1.392,2.638 -0.862,0.538 -1.729,1.072 -2.6,1.601 -0.93,0.721 -1.395,1.662 -1.395,2.825 0,0.76 0.211,1.456 0.633,2.091 0.651,0.98 1.696,1.471 3.133,1.471 1.516,0 2.588,-0.568 3.221,-1.703 C -0.23,8.447 -0.066,7.874 0,7.202 l -2.012,0 c 0,0.241 -0.082,0.483 -0.244,0.724 -0.289,0.454 -0.773,0.682 -1.453,0.682 -1.16,0 -1.74,-0.515 -1.74,-1.543 0,-0.568 0.469,-1.134 1.408,-1.701 1.4,-0.826 2.277,-1.413 2.633,-1.759 C -0.469,2.672 0,1.471 0,0"
             style="fill:#231f20;fill-opacity:1;fill-rule:nonzero;stroke:none"
             id="path10310"
             inkscape:connector-curvature="0" />
        </g>
        <g
           id="g10312"
           transform="translate(180.2074,179.0616)">
          <path
             d="M 0,0 10.307,-6.971 0,-13.954 c -0.455,-0.309 -1.076,-0.19 -1.386,0.264 -0.205,0.303 -0.168,0.617 -0.075,0.991 l 0.911,3.026 -13.444,0 0,5.4 13.444,0 -0.889,2.977 c -0.113,0.411 -0.162,0.716 0.053,1.033 C -1.078,0.191 -0.455,0.309 0,0"
             style="fill:#231f20;fill-opacity:1;fill-rule:evenodd;stroke:none"
             id="path10314"
             inkscape:connector-curvature="0" />
        </g>
      </g>
    </g>
  </g>
</svg>
