<?xml version="1.0" encoding="UTF-8" standalone="no"?>
<!-- Created with Inkscape (http://www.inkscape.org/) -->

<svg
   xmlns:dc="http://purl.org/dc/elements/1.1/"
   xmlns:cc="http://creativecommons.org/ns#"
   xmlns:rdf="http://www.w3.org/1999/02/22-rdf-syntax-ns#"
   xmlns:svg="http://www.w3.org/2000/svg"
   xmlns="http://www.w3.org/2000/svg"
   xmlns:sodipodi="http://sodipodi.sourceforge.net/DTD/sodipodi-0.dtd"
   xmlns:inkscape="http://www.inkscape.org/namespaces/inkscape"
   width="163.25"
   height="41.751251"
   id="svg11938"
   version="1.1"
   inkscape:version="0.48.1 "
   sodipodi:docname="New document 69">
  <defs
     id="defs11940">
    <clipPath
       clipPathUnits="userSpaceOnUse"
       id="clipPath10532">
      <path
         inkscape:connector-curvature="0"
         d="m 27.062,72.39 512.876,0 0,304.861 -512.876,0 0,-304.861 z"
         id="path10534" />
    </clipPath>
  </defs>
  <sodipodi:namedview
     id="base"
     pagecolor="#ffffff"
     bordercolor="#666666"
     borderopacity="1.0"
     inkscape:pageopacity="0.0"
     inkscape:pageshadow="2"
     inkscape:zoom="0.35"
     inkscape:cx="96.625"
     inkscape:cy="18.018477"
     inkscape:document-units="px"
     inkscape:current-layer="layer1"
     showgrid="false"
     fit-margin-top="0"
     fit-margin-left="0"
     fit-margin-right="0"
     fit-margin-bottom="0"
     inkscape:window-width="469"
     inkscape:window-height="425"
     inkscape:window-x="707"
     inkscape:window-y="86"
     inkscape:window-maximized="0" />
  <metadata
     id="metadata11943">
    <rdf:RDF>
      <cc:Work
         rdf:about="">
        <dc:format>image/svg+xml</dc:format>
        <dc:type
           rdf:resource="http://purl.org/dc/dcmitype/StillImage" />
        <dc:title></dc:title>
      </cc:Work>
    </rdf:RDF>
  </metadata>
  <g
     inkscape:label="Layer 1"
     inkscape:groupmode="layer"
     id="layer1"
     transform="translate(-278.375,-508.62941)">
    <g
       id="g10528"
       transform="matrix(1.25,0,0,-1.25,-80.37175,659.19641)">
      <g
         id="g10530"
         clip-path="url(#clipPath10532)">
        <g
           id="g10536"
           transform="translate(290.1974,87.3026)">
          <path
             d="m 0,0 c -1.626,0 -2.95,1.323 -2.95,2.949 l 0,27.001 c 0,1.627 1.324,2.951 2.95,2.951 l 124.199,0 c 1.627,0 2.951,-1.324 2.951,-2.951 l 0,-27.001 C 127.15,1.323 125.826,0 124.199,0 L 0,0 z"
             style="fill:#ffffff;fill-opacity:1;fill-rule:nonzero;stroke:none"
             id="path10538"
             inkscape:connector-curvature="0" />
        </g>
        <g
           id="g10540"
           transform="translate(414.3964,120.4536)">
          <path
             d="m 0,0 -124.199,0 c -1.764,0 -3.2,-1.436 -3.2,-3.201 l 0,-27.001 c 0,-1.764 1.436,-3.199 3.2,-3.199 l 124.199,0 c 1.764,0 3.201,1.435 3.201,3.199 l 0,27.001 C 3.201,-1.436 1.764,0 0,0 m 0,-0.5 c 1.492,0 2.701,-1.209 2.701,-2.701 l 0,-27.001 c 0,-1.49 -1.209,-2.699 -2.701,-2.699 l -124.199,0 c -1.493,0 -2.7,1.209 -2.7,2.699 l 0,27.001 c 0,1.492 1.207,2.701 2.7,2.701 L 0,-0.5"
             style="fill:#231f20;fill-opacity:1;fill-rule:nonzero;stroke:none"
             id="path10542"
             inkscape:connector-curvature="0" />
        </g>
        <g
           id="g10544"
           transform="translate(415.2964,90.2516)">
          <path
             d="m 0,0 c 0,-0.496 -0.402,-0.898 -0.9,-0.898 l -124.199,0 c -0.497,0 -0.901,0.402 -0.901,0.898 l 0,27.001 c 0,0.497 0.404,0.9 0.901,0.9 l 124.199,0 c 0.498,0 0.9,-0.403 0.9,-0.9 L 0,0 z m -0.9,29.026 -124.199,0 c -1.118,0 -2.026,-0.908 -2.026,-2.025 l 0,-27.001 c 0,-1.115 0.908,-2.023 2.026,-2.023 l 124.199,0 c 1.117,0 2.025,0.908 2.025,2.023 l 0,27.001 c 0,1.117 -0.908,2.025 -2.025,2.025"
             style="fill:#231f20;fill-opacity:1;fill-rule:nonzero;stroke:none"
             id="path10546"
             inkscape:connector-curvature="0" />
        </g>
        <g
           id="g10548"
           transform="translate(302.6504,105.5956)">
          <path
             d="M 0,0 6.972,10.307 13.955,0 c 0.308,-0.455 0.189,-1.076 -0.264,-1.386 -0.303,-0.206 -0.617,-0.168 -0.992,-0.073 l -3.025,0.908 0,-13.441 -5.401,0 0,13.441 -2.976,-0.887 C 0.886,-1.553 0.58,-1.601 0.263,-1.386 -0.19,-1.076 -0.309,-0.455 0,0"
             style="fill:#231f20;fill-opacity:1;fill-rule:evenodd;stroke:none"
             id="path10550"
             inkscape:connector-curvature="0" />
        </g>
        <g
           id="g10552"
           transform="translate(343.8514,102.1666)">
          <path
             d="m 0,0 c 0,-1.663 -0.555,-3.04 -1.662,-4.129 -1.11,-1.09 -2.498,-1.635 -4.168,-1.635 -1.662,0 -3.049,0.551 -4.162,1.65 -1.114,1.1 -1.67,2.471 -1.67,4.114 l 0,8.787 2.588,0 0,-8.793 c 0,-0.912 0.326,-1.676 0.98,-2.291 0.625,-0.586 1.379,-0.879 2.264,-0.879 0.892,0 1.656,0.299 2.291,0.894 0.635,0.596 0.951,1.354 0.951,2.276 l 0,8.793 L 0,8.787 0,0 z"
             style="fill:#231f20;fill-opacity:1;fill-rule:nonzero;stroke:none"
             id="path10554"
             inkscape:connector-curvature="0" />
        </g>
        <g
           id="g10556"
           transform="translate(366.5954,108.6526)">
          <path
             d="m 0,0 -3.316,0 0,-12.1 -2.299,0 0,12.1 -3.313,0 0,2.301 L 0,2.301 0,0 z"
             style="fill:#231f20;fill-opacity:1;fill-rule:nonzero;stroke:none"
             id="path10558"
             inkscape:connector-curvature="0" />
        </g>
        <g
           id="g10560"
           transform="translate(378.5454,101.1996)">
          <path
             d="m 0,0 c 0,-1.229 -0.445,-2.319 -1.338,-3.27 -0.961,-1.017 -2.144,-1.527 -3.556,-1.527 -1.42,0 -2.604,0.504 -3.555,1.514 -0.892,0.941 -1.337,2.035 -1.337,3.283 l 0,9.754 2.298,0 0,-9.758 c 0,-0.701 0.256,-1.291 0.764,-1.772 0.509,-0.48 1.119,-0.72 1.83,-0.72 0.72,0 1.334,0.24 1.838,0.72 0.503,0.481 0.755,1.071 0.755,1.772 l 0,9.758 L 0,9.754 0,0 z"
             style="fill:#231f20;fill-opacity:1;fill-rule:nonzero;stroke:none"
             id="path10562"
             inkscape:connector-curvature="0" />
        </g>
        <g
           id="g10564"
           transform="translate(389.3054,106.9516)">
          <path
             d="m 0,0 c 0,0.48 -0.16,0.884 -0.482,1.211 -0.323,0.327 -0.723,0.49 -1.204,0.49 l -3.314,0 0,-3.462 3.314,0 c 0.481,0 0.881,0.171 1.204,0.513 C -0.16,-0.908 0,-0.492 0,0 m 2.492,-10.399 -2.433,0 -2.321,6.338 -2.738,0 0,-6.338 -2.299,0 0,14.401 5.598,0 c 1.103,0 2.047,-0.392 2.828,-1.174 0.783,-0.783 1.174,-1.726 1.174,-2.83 0,-1.613 -0.762,-2.823 -2.285,-3.629 l 2.476,-6.768 z"
             style="fill:#231f20;fill-opacity:1;fill-rule:nonzero;stroke:none"
             id="path10566"
             inkscape:connector-curvature="0" />
        </g>
        <g
           id="g10568"
           transform="translate(404.0214,96.5526)">
          <path
             d="m 0,0 -2.203,0 -5.258,9.547 0,-9.547 -2.302,0 0,14.401 2.233,0 5.231,-9.491 0,9.491 2.299,0 L 0,0 z"
             style="fill:#231f20;fill-opacity:1;fill-rule:nonzero;stroke:none"
             id="path10570"
             inkscape:connector-curvature="0" />
        </g>
      </g>
    </g>
  </g>
</svg>
