<?xml version="1.0" encoding="UTF-8" standalone="no"?>
<!-- Created with Inkscape (http://www.inkscape.org/) -->

<svg
   xmlns:dc="http://purl.org/dc/elements/1.1/"
   xmlns:cc="http://creativecommons.org/ns#"
   xmlns:rdf="http://www.w3.org/1999/02/22-rdf-syntax-ns#"
   xmlns:svg="http://www.w3.org/2000/svg"
   xmlns="http://www.w3.org/2000/svg"
   xmlns:sodipodi="http://sodipodi.sourceforge.net/DTD/sodipodi-0.dtd"
   xmlns:inkscape="http://www.inkscape.org/namespaces/inkscape"
   width="163.25"
   height="41.748749"
   id="svg11144"
   version="1.1"
   inkscape:version="0.48.1 "
   sodipodi:docname="New document 55">
  <defs
     id="defs11146">
    <clipPath
       clipPathUnits="userSpaceOnUse"
       id="clipPath10076">
      <path
         inkscape:connector-curvature="0"
         d="m 27.062,72.39 512.876,0 0,304.861 -512.876,0 0,-304.861 z"
         id="path10078" />
    </clipPath>
  </defs>
  <sodipodi:namedview
     id="base"
     pagecolor="#ffffff"
     bordercolor="#666666"
     borderopacity="1.0"
     inkscape:pageopacity="0.0"
     inkscape:pageshadow="2"
     inkscape:zoom="0.35"
     inkscape:cx="25.19643"
     inkscape:cy="126.58866"
     inkscape:document-units="px"
     inkscape:current-layer="layer1"
     showgrid="false"
     fit-margin-top="0"
     fit-margin-left="0"
     fit-margin-right="0"
     fit-margin-bottom="0"
     inkscape:window-width="469"
     inkscape:window-height="425"
     inkscape:window-x="742"
     inkscape:window-y="15"
     inkscape:window-maximized="0" />
  <metadata
     id="metadata11149">
    <rdf:RDF>
      <cc:Work
         rdf:about="">
        <dc:format>image/svg+xml</dc:format>
        <dc:type
           rdf:resource="http://purl.org/dc/dcmitype/StillImage" />
        <dc:title></dc:title>
      </cc:Work>
    </rdf:RDF>
  </metadata>
  <g
     inkscape:label="Layer 1"
     inkscape:groupmode="layer"
     id="layer1"
     transform="translate(-349.80357,-617.20209)">
    <g
       id="g10072"
       transform="matrix(1.25,0,0,-1.25,269.13682,938.52409)">
      <g
         id="g10074"
         clip-path="url(#clipPath10076)">
        <g
           id="g10080"
           transform="translate(67.7346,223.9086)">
          <path
             d="m 0,0 c -1.627,0 -2.951,1.323 -2.951,2.949 l 0,27 c 0,1.626 1.324,2.95 2.951,2.95 l 124.2,0 c 1.626,0 2.949,-1.324 2.949,-2.95 l 0,-27 C 127.149,1.323 125.826,0 124.2,0 L 0,0 z"
             style="fill:#ffffff;fill-opacity:1;fill-rule:nonzero;stroke:none"
             id="path10082"
             inkscape:connector-curvature="0" />
        </g>
        <g
           id="g10084"
           transform="translate(191.9344,257.0576)">
          <path
             d="m 0,0 -124.2,0 c -1.765,0 -3.201,-1.435 -3.201,-3.2 l 0,-27 c 0,-1.764 1.436,-3.199 3.201,-3.199 l 124.2,0 c 1.764,0 3.199,1.435 3.199,3.199 l 0,27 C 3.199,-1.435 1.764,0 0,0 m 0,-0.5 c 1.49,0 2.699,-1.207 2.699,-2.7 l 0,-27 c 0,-1.49 -1.209,-2.699 -2.699,-2.699 l -124.2,0 c -1.492,0 -2.701,1.209 -2.701,2.699 l 0,27 c 0,1.493 1.209,2.7 2.701,2.7 L 0,-0.5"
             style="fill:#231f20;fill-opacity:1;fill-rule:nonzero;stroke:none"
             id="path10086"
             inkscape:connector-curvature="0" />
        </g>
        <g
           id="g10088"
           transform="translate(192.8344,226.8576)">
          <path
             d="m 0,0 c 0,-0.496 -0.404,-0.9 -0.9,-0.9 l -124.2,0 c -0.496,0 -0.9,0.404 -0.9,0.9 l 0,27 c 0,0.496 0.404,0.901 0.9,0.901 l 124.2,0 C -0.404,27.901 0,27.496 0,27 L 0,0 z m -0.9,29.026 -124.2,0 c -1.117,0 -2.025,-0.908 -2.025,-2.026 l 0,-27 c 0,-1.115 0.908,-2.025 2.025,-2.025 l 124.2,0 c 1.117,0 2.025,0.91 2.025,2.025 l 0,27 c 0,1.118 -0.908,2.026 -2.025,2.026"
             style="fill:#231f20;fill-opacity:1;fill-rule:nonzero;stroke:none"
             id="path10090"
             inkscape:connector-curvature="0" />
        </g>
        <g
           id="g10092"
           transform="translate(78.8674,239.0596)">
          <path
             d="M 0,0 -1.123,4.683 -2.262,0 0,0 z m 3.484,-5.901 -2.058,0 -0.938,3.887 -3.24,0 -0.936,-3.887 -2.044,0 3.484,14.399 2.248,0 3.484,-14.399 z"
             style="fill:#231f20;fill-opacity:1;fill-rule:nonzero;stroke:none"
             id="path10094"
             inkscape:connector-curvature="0" />
        </g>
        <g
           id="g10096"
           transform="translate(91.7092,233.1586)">
          <path
             d="m 0,0 -7.344,0 0,14.399 2.012,0 0,-12.387 L 0,2.012 0,0 z"
             style="fill:#231f20;fill-opacity:1;fill-rule:nonzero;stroke:none"
             id="path10098"
             inkscape:connector-curvature="0" />
        </g>
        <g
           id="g10100"
           transform="translate(101.0686,233.1586)">
          <path
             d="m 0,0 -7.344,0 0,14.399 2.014,0 0,-12.387 5.33,0 L 0,0 z"
             style="fill:#231f20;fill-opacity:1;fill-rule:nonzero;stroke:none"
             id="path10102"
             inkscape:connector-curvature="0" />
        </g>
        <g
           id="g10104"
           transform="translate(117.9182,245.5456)">
          <path
             d="m 0,0 -2.668,0 0,-12.387 -2.014,0 0,12.387 -2.662,0 0,2.012 L 0,2.012 0,0 z"
             style="fill:#231f20;fill-opacity:1;fill-rule:nonzero;stroke:none"
             id="path10106"
             inkscape:connector-curvature="0" />
        </g>
        <g
           id="g10108"
           transform="translate(128.0085,237.0416)">
          <path
             d="m 0,0 c 0,-1.113 -0.393,-2.064 -1.174,-2.852 -0.784,-0.787 -1.735,-1.181 -2.858,-1.181 -1.113,0 -2.064,0.394 -2.851,1.181 -0.787,0.788 -1.18,1.739 -1.18,2.852 l 0,10.516 2.012,0 0,-10.52 c 0,-0.557 0.195,-1.033 0.584,-1.426 0.388,-0.394 0.867,-0.591 1.435,-0.591 0.547,0 1.022,0.197 1.42,0.591 0.399,0.393 0.598,0.869 0.598,1.426 l 0,10.52 2.014,0 L 0,0 z"
             style="fill:#231f20;fill-opacity:1;fill-rule:nonzero;stroke:none"
             id="path10110"
             inkscape:connector-curvature="0" />
        </g>
        <g
           id="g10112"
           transform="translate(137.2136,243.6706)">
          <path
             d="m 0,0 c 0,1.191 -0.494,1.816 -1.484,1.875 l -2.553,0 0,-3.75 2.553,0 C -0.494,-1.817 0,-1.192 0,0 m 2.014,-10.512 -2.09,0 -1.901,6.625 -2.06,0 0,-6.625 -2.012,0 0,14.399 4.463,0 C -0.818,3.82 -0.387,3.777 -0.291,3.758 0.371,3.603 0.891,3.287 1.266,2.807 1.764,2.164 2.014,1.228 2.014,0 c 0,-1.777 -0.668,-2.947 -2,-3.514 l 2,-6.998 z"
             style="fill:#231f20;fill-opacity:1;fill-rule:nonzero;stroke:none"
             id="path10114"
             inkscape:connector-curvature="0" />
        </g>
        <g
           id="g10116"
           transform="translate(149.7507,233.1586)">
          <path
             d="m 0,0 -2.012,0 -4.037,9.317 0,-9.317 -2.014,0 0,14.399 2.018,0 4.031,-9.301 0.002,9.301 2.012,0 L 0,0 z"
             style="fill:#231f20;fill-opacity:1;fill-rule:nonzero;stroke:none"
             id="path10118"
             inkscape:connector-curvature="0" />
        </g>
        <g
           id="g10120"
           transform="translate(160.2585,237.0886)">
          <path
             d="M 0,0 C 0,-1.02 -0.264,-1.899 -0.793,-2.639 -1.475,-3.6 -2.482,-4.08 -3.816,-4.08 c -1.497,0 -2.616,0.48 -3.354,1.441 -0.596,0.76 -0.893,1.717 -0.893,2.869 l 2.012,0 c 0,-0.838 0.264,-1.459 0.793,-1.865 0.395,-0.289 0.873,-0.433 1.442,-0.433 1.152,0 1.728,0.687 1.728,2.062 0,1.076 -0.465,1.955 -1.394,2.639 -0.862,0.537 -1.729,1.07 -2.6,1.599 -0.93,0.721 -1.393,1.662 -1.393,2.826 0,0.76 0.209,1.457 0.631,2.09 0.653,0.981 1.698,1.471 3.135,1.471 1.514,0 2.588,-0.566 3.221,-1.701 C -0.23,8.445 -0.068,7.873 0,7.201 l -2.014,0 c 0,0.242 -0.08,0.482 -0.244,0.725 -0.287,0.455 -0.771,0.681 -1.453,0.681 -1.16,0 -1.74,-0.513 -1.74,-1.543 0,-0.566 0.471,-1.134 1.41,-1.701 C -2.643,4.537 -1.764,3.951 -1.41,3.603 -0.471,2.672 0,1.471 0,0"
             style="fill:#231f20;fill-opacity:1;fill-rule:nonzero;stroke:none"
             id="path10122"
             inkscape:connector-curvature="0" />
        </g>
        <g
           id="g10124"
           transform="translate(174.3424,247.5456)">
          <path
             d="M 0,0 12.219,2.359 9.867,-9.867 c -0.101,-0.539 -0.627,-0.895 -1.166,-0.793 -0.359,0.068 -0.556,0.318 -0.754,0.648 l -1.496,2.783 -9.506,-9.505 -3.818,3.818 9.506,9.506 -2.733,1.476 c -0.373,0.209 -0.621,0.391 -0.693,0.768 C -0.896,-0.625 -0.539,-0.102 0,0"
             style="fill:#231f20;fill-opacity:1;fill-rule:evenodd;stroke:none"
             id="path10126"
             inkscape:connector-curvature="0" />
        </g>
      </g>
    </g>
  </g>
</svg>
