<?xml version="1.0" encoding="UTF-8" standalone="no"?>
<!-- Created with Inkscape (http://www.inkscape.org/) -->

<svg
   xmlns:dc="http://purl.org/dc/elements/1.1/"
   xmlns:cc="http://creativecommons.org/ns#"
   xmlns:rdf="http://www.w3.org/1999/02/22-rdf-syntax-ns#"
   xmlns:svg="http://www.w3.org/2000/svg"
   xmlns="http://www.w3.org/2000/svg"
   xmlns:sodipodi="http://sodipodi.sourceforge.net/DTD/sodipodi-0.dtd"
   xmlns:inkscape="http://www.inkscape.org/namespaces/inkscape"
   width="90.625"
   height="90.625"
   id="svg13773"
   version="1.1"
   inkscape:version="0.48.1 "
   sodipodi:docname="New document 98">
  <defs
     id="defs13775">
    <clipPath
       clipPathUnits="userSpaceOnUse"
       id="clipPath13300">
      <path
         inkscape:connector-curvature="0"
         d="m 27.25,31.35 513,0 0,517.222 -513,0 0,-517.222 z"
         id="path13302" />
    </clipPath>
  </defs>
  <sodipodi:namedview
     id="base"
     pagecolor="#ffffff"
     bordercolor="#666666"
     borderopacity="1.0"
     inkscape:pageopacity="0.0"
     inkscape:pageshadow="2"
     inkscape:zoom="0.35"
     inkscape:cx="-182.54402"
     inkscape:cy="162.45472"
     inkscape:document-units="px"
     inkscape:current-layer="layer1"
     showgrid="false"
     fit-margin-top="0"
     fit-margin-left="0"
     fit-margin-right="0"
     fit-margin-bottom="0"
     inkscape:window-width="469"
     inkscape:window-height="425"
     inkscape:window-x="136"
     inkscape:window-y="82"
     inkscape:window-maximized="0" />
  <metadata
     id="metadata13778">
    <rdf:RDF>
      <cc:Work
         rdf:about="">
        <dc:format>image/svg+xml</dc:format>
        <dc:type
           rdf:resource="http://purl.org/dc/dcmitype/StillImage" />
        <dc:title></dc:title>
      </cc:Work>
    </rdf:RDF>
  </metadata>
  <g
     inkscape:label="Layer 1"
     inkscape:groupmode="layer"
     id="layer1"
     transform="translate(-557.54402,-604.1919)">
    <g
       transform="matrix(1.25,0,0,-1.25,410.27202,1228.2044)"
       id="g13296">
      <g
         id="g13298"
         clip-path="url(#clipPath13300)">
        <g
           id="g13304"
           transform="translate(122.5676,498.96)">
          <path
             d="m 0,0 63,0 c 2.479,0 4.5,-2.021 4.5,-4.5 l 0,-63 c 0,-2.479 -2.021,-4.501 -4.5,-4.501 l -63,0 c -2.479,0 -4.499,2.022 -4.499,4.501 l 0,63 c 0,2.479 2.02,4.5 4.499,4.5 z"
             style="fill:none;stroke:#231f20;stroke-width:0.5;stroke-linecap:butt;stroke-linejoin:miter;stroke-miterlimit:4;stroke-opacity:1;stroke-dasharray:none"
             id="path13306"
             inkscape:connector-curvature="0" />
        </g>
        <g
           id="g13308"
           transform="translate(122.5832,497.71)">
          <path
             d="m 0,0 24.254,0 34.679,0 c 1.772,0 4.533,0.488 6.053,-0.695 1.678,-1.309 1.248,-3.756 1.248,-5.625 l 0,-33.7 0,-26.13 c 0,-2.233 -1.787,-3.35 -3.814,-3.35 l -10.475,0 -37.48,0 -12.723,0 c -1.986,0 -4.209,0.01 -4.883,2.363 -0.193,0.672 -0.125,1.426 -0.125,2.117 l 0,4.635 0,16.278 0,35.589 C -3.266,-5.807 -4.28,-0.01 0,0"
             style="fill:#231f20;fill-opacity:1;fill-rule:evenodd;stroke:none"
             id="path13310"
             inkscape:connector-curvature="0" />
        </g>
        <g
           id="g13312"
           transform="translate(122.6066,495.96)">
          <path
             d="m 0,0 24.318,0 34.659,0 3.549,0 c 0.501,0 0.974,-0.006 1.384,-0.344 1.03,-0.847 0.551,-3.246 0.551,-4.351 l 0,-33.877 0,-25.836 c 0,-1.328 -1.094,-1.592 -2.176,-1.592 l -10.734,0 -37.555,0 -12.459,0 c -1.111,0 -2.726,-0.25 -3.045,1.199 -0.119,0.547 -0.031,1.193 -0.031,1.746 l 0,4.834 0,16.526 0,35.347 0,4.756 C -1.539,-0.727 -0.898,0.012 0,0"
             style="fill:#ffffff;fill-opacity:1;fill-rule:evenodd;stroke:none"
             id="path13314"
             inkscape:connector-curvature="0" />
        </g>
        <g
           id="g13316"
           transform="translate(166.0675,468.9502)">
          <path
             d="m 0,0 c 0,3.307 -2.695,6.002 -6,6.002 l -13.16,0 1.293,4.414 c 0.041,0.148 0.064,0.305 0.058,0.457 -0.013,0.705 -0.509,1.332 -1.209,1.471 -0.398,0.08 -0.808,-0.014 -1.142,-0.24 L -34.484,2.25 -20.178,-7.598 c 0.256,-0.177 0.561,-0.275 0.869,-0.275 0.715,0.006 1.336,0.521 1.477,1.217 0.055,0.265 0.018,0.514 -0.057,0.765 l -1.271,4.395 10.164,0 c 0.826,0 1.5,-0.674 1.5,-1.5 l 0,-22.49 7.496,0 L 0,0 z"
             style="fill:#231f20;fill-opacity:1;fill-rule:evenodd;stroke:none"
             id="path13318"
             inkscape:connector-curvature="0" />
        </g>
        <g
           id="g13320"
           transform="translate(174.0895,447.2216)">
          <path
             d="m 0,0 c 3.486,4.383 5.478,10.061 5.478,15.738 0,14.045 -11.455,25.5 -25.5,25.5 -5.678,0 -11.355,-1.992 -15.752,-5.472 L 0,0 z m -4.27,-4.293 c -4.396,-3.476 -10.074,-5.469 -15.752,-5.469 -14.045,0 -25.5,11.455 -25.5,25.5 0,5.678 1.992,11.455 5.479,15.838 L -4.27,-4.293 z m -15.752,51.531 c 17.35,0 31.5,-14.15 31.5,-31.5 0,-17.349 -14.15,-31.5 -31.5,-31.5 -17.35,0 -31.5,14.151 -31.5,31.5 0,17.35 14.15,31.5 31.5,31.5"
             style="fill:#bf2519;fill-opacity:1;fill-rule:evenodd;stroke:none"
             id="path13322"
             inkscape:connector-curvature="0" />
        </g>
      </g>
    </g>
  </g>
</svg>
