<?xml version="1.0" encoding="UTF-8" standalone="no"?>
<!-- Created with Inkscape (http://www.inkscape.org/) -->

<svg
   xmlns:dc="http://purl.org/dc/elements/1.1/"
   xmlns:cc="http://creativecommons.org/ns#"
   xmlns:rdf="http://www.w3.org/1999/02/22-rdf-syntax-ns#"
   xmlns:svg="http://www.w3.org/2000/svg"
   xmlns="http://www.w3.org/2000/svg"
   xmlns:sodipodi="http://sodipodi.sourceforge.net/DTD/sodipodi-0.dtd"
   xmlns:inkscape="http://www.inkscape.org/namespaces/inkscape"
   width="90.624374"
   height="36.623749"
   id="svg4355"
   version="1.1"
   inkscape:version="0.48.1 "
   sodipodi:docname="New document 4">
  <defs
     id="defs4357">
    <clipPath
       clipPathUnits="userSpaceOnUse"
       id="clipPath3401">
      <path
         inkscape:connector-curvature="0"
         d="m 27.25,31.35 513,0 0,517.222 -513,0 0,-517.222 z"
         id="path3403" />
    </clipPath>
    <clipPath
       clipPathUnits="userSpaceOnUse"
       id="clipPath3389">
      <path
         inkscape:connector-curvature="0"
         d="m 31.361,31.35 504.777,0 0,504.877 -504.777,0 0,-504.877 z"
         id="path3391" />
    </clipPath>
    <clipPath
       clipPathUnits="userSpaceOnUse"
       id="clipPath3377">
      <path
         inkscape:connector-curvature="0"
         d="m 27.25,31.35 513,0 0,517.222 -513,0 0,-517.222 z"
         id="path3379" />
    </clipPath>
  </defs>
  <sodipodi:namedview
     id="base"
     pagecolor="#ffffff"
     bordercolor="#666666"
     borderopacity="1.0"
     inkscape:pageopacity="0.0"
     inkscape:pageshadow="2"
     inkscape:zoom="0.49497475"
     inkscape:cx="177.48373"
     inkscape:cy="-114.44375"
     inkscape:document-units="px"
     inkscape:current-layer="layer1"
     showgrid="false"
     fit-margin-top="0"
     fit-margin-left="0"
     fit-margin-right="0"
     fit-margin-bottom="0"
     inkscape:window-width="469"
     inkscape:window-height="425"
     inkscape:window-x="429"
     inkscape:window-y="99"
     inkscape:window-maximized="0" />
  <metadata
     id="metadata4360">
    <rdf:RDF>
      <cc:Work
         rdf:about="">
        <dc:format>image/svg+xml</dc:format>
        <dc:type
           rdf:resource="http://purl.org/dc/dcmitype/StillImage" />
        <dc:title></dc:title>
      </cc:Work>
    </rdf:RDF>
  </metadata>
  <g
     inkscape:label="Layer 1"
     inkscape:groupmode="layer"
     id="layer1"
     transform="translate(-140.4021,-385.47888)">
    <g
       transform="matrix(1.25,0,0,-1.25,-439.14603,884.41025)"
       id="g3373">
      <g
         id="g3375"
         clip-path="url(#clipPath3377)">
        <g
           id="g3381"
           transform="translate(468.3885,398.8951)">
          <path
             inkscape:connector-curvature="0"
             d="m 0,0 63,0 c 2.478,0 4.5,-2.02 4.5,-4.499 l 0,-19.8 c 0,-2.479 -2.022,-4.5 -4.5,-4.5 l -63,0 c -2.479,0 -4.5,2.021 -4.5,4.5 l 0,19.8 C -4.5,-2.02 -2.479,0 0,0"
             style="fill:#ffffff;fill-opacity:1;fill-rule:nonzero;stroke:none"
             id="path3383" />
        </g>
      </g>
    </g>
    <g
       transform="matrix(1.25,0,0,-1.25,-439.14603,884.41025)"
       id="g3385">
      <g
         id="g3387"
         clip-path="url(#clipPath3389)">
        <g
           id="g3393"
           transform="translate(468.3885,398.8951)">
          <path
             inkscape:connector-curvature="0"
             d="m 0,0 63,0 c 2.478,0 4.5,-2.02 4.5,-4.499 l 0,-19.8 c 0,-2.479 -2.022,-4.5 -4.5,-4.5 l -63,0 c -2.479,0 -4.5,2.021 -4.5,4.5 l 0,19.8 C -4.5,-2.02 -2.479,0 0,0 z"
             style="fill:none;stroke:#231f20;stroke-width:0.5;stroke-linecap:butt;stroke-linejoin:miter;stroke-miterlimit:4;stroke-opacity:1;stroke-dasharray:none"
             id="path3395" />
        </g>
      </g>
    </g>
    <g
       transform="matrix(1.25,0,0,-1.25,-439.14603,884.41025)"
       id="g3397">
      <g
         id="g3399"
         clip-path="url(#clipPath3401)">
        <g
           id="g3405"
           transform="translate(468.4035,397.6951)">
          <path
             inkscape:connector-curvature="0"
             d="m 0,0 24.254,0 34.678,0 c 1.777,0 4.568,0.492 6.086,-0.705 0.975,-0.769 1.268,-1.847 1.268,-3.035 l 0,-7.189 0,-9.25 c 0,-1.25 0.242,-2.842 -0.202,-4.051 -0.837,-2.285 -3.085,-2.168 -5.076,-2.168 l -32.217,0 -28.359,0 c -2.288,0 -3.747,1.439 -3.747,3.738 l 0,16.442 c 0,1.249 -0.243,2.839 0.2,4.049 C -2.638,-0.872 -1.375,-0.006 0,0"
             style="fill:#231f20;fill-opacity:1;fill-rule:evenodd;stroke:none"
             id="path3407" />
        </g>
        <g
           id="g3409"
           transform="translate(468.4275,395.8961)">
          <path
             inkscape:connector-curvature="0"
             d="m 0,0 24.318,0 34.658,0 3.549,0 c 0.502,0 0.975,-0.005 1.385,-0.343 0.541,-0.446 0.551,-1.049 0.551,-1.692 l 0,-7.379 0,-9.203 c 0,-0.947 0.269,-2.344 -0.117,-3.26 -0.549,-1.306 -2.44,-0.923 -3.543,-0.923 l -32.534,0 -27.939,0 c -1.444,0 -1.867,0.853 -1.867,2.179 l 0,16.715 C -1.539,-2.671 -2.012,0.029 0,0"
             style="fill:#ffffff;fill-opacity:1;fill-rule:evenodd;stroke:none"
             id="path3411" />
        </g>
        <g
           id="g3413"
           transform="translate(526.1125,379.6681)">
          <path
             inkscape:connector-curvature="0"
             d="m 0,0 0,1.347 -3.501,0 0,3.165 1.986,0 0,1.312 -1.986,0 0,2.424 3.13,0 0,1.347 -4.509,0 L -4.88,0 0,0 z m -6.935,0 0,9.595 -1.379,0 0,-5.757 -2.627,5.757 -1.379,0 0,-9.595 1.379,0 0,6.43 2.963,-6.43 1.043,0 z m -9.088,3.973 -1.381,0 0.674,2.76 0.707,-2.76 z M -13.634,0 l -2.389,9.595 -1.348,0 -2.388,-9.595 1.379,0 0.64,2.626 2.053,0 0.674,-2.626 1.379,0 z m -6.698,0 0,1.279 -3.502,0 0,8.316 -1.378,0 0,-9.595 4.88,0 z m -11.748,9.595 -1.347,0 0,-9.595 1.347,0 0,9.595 z M -34.74,0 l -2.086,4.982 1.918,4.613 -1.447,0 -1.211,-2.896 -1.213,2.896 -1.447,0 1.953,-4.613 -2.088,-4.982 1.447,0 1.348,3.266 1.346,-3.266 1.48,0 z m -8.584,3.973 -1.379,0 0.672,2.76 0.707,-2.76 z M -40.933,0 l -2.391,9.595 -1.345,0 L -47.06,0 l 1.381,0 0.638,2.626 2.055,0 0.672,-2.626 1.381,0 z m -6.699,8.315 0,1.28 -4.881,0 0,-1.28 1.75,0 0,-8.315 1.381,0 0,8.315 1.75,0 z"
             style="fill:#231f20;fill-opacity:1;fill-rule:evenodd;stroke:none"
             id="path3415" />
        </g>
      </g>
    </g>
  </g>
</svg>
