<?xml version="1.0" encoding="UTF-8" standalone="no"?>
<!-- Created with Inkscape (http://www.inkscape.org/) -->

<svg
   xmlns:dc="http://purl.org/dc/elements/1.1/"
   xmlns:cc="http://creativecommons.org/ns#"
   xmlns:rdf="http://www.w3.org/1999/02/22-rdf-syntax-ns#"
   xmlns:svg="http://www.w3.org/2000/svg"
   xmlns="http://www.w3.org/2000/svg"
   xmlns:sodipodi="http://sodipodi.sourceforge.net/DTD/sodipodi-0.dtd"
   xmlns:inkscape="http://www.inkscape.org/namespaces/inkscape"
   width="744.09448819"
   height="1052.3622047"
   id="svg4736"
   version="1.1"
   inkscape:version="0.48.1 "
   sodipodi:docname="New document 13">
  <defs
     id="defs4738">
    <clipPath
       clipPathUnits="userSpaceOnUse"
       id="clipPath3561">
      <path
         inkscape:connector-curvature="0"
         d="m 31.361,31.35 504.777,0 0,504.877 -504.777,0 0,-504.877 z"
         id="path3563" />
    </clipPath>
    <clipPath
       clipPathUnits="userSpaceOnUse"
       id="clipPath3549">
      <path
         inkscape:connector-curvature="0"
         d="m 27.25,31.35 513,0 0,517.222 -513,0 0,-517.222 z"
         id="path3551" />
    </clipPath>
  </defs>
  <sodipodi:namedview
     id="base"
     pagecolor="#ffffff"
     bordercolor="#666666"
     borderopacity="1.0"
     inkscape:pageopacity="0.0"
     inkscape:pageshadow="2"
     inkscape:zoom="0.35"
     inkscape:cx="375"
     inkscape:cy="520"
     inkscape:document-units="px"
     inkscape:current-layer="layer1"
     showgrid="false"
     inkscape:window-width="469"
     inkscape:window-height="425"
     inkscape:window-x="500"
     inkscape:window-y="55"
     inkscape:window-maximized="0" />
  <metadata
     id="metadata4741">
    <rdf:RDF>
      <cc:Work
         rdf:about="">
        <dc:format>image/svg+xml</dc:format>
        <dc:type
           rdf:resource="http://purl.org/dc/dcmitype/StillImage" />
        <dc:title></dc:title>
      </cc:Work>
    </rdf:RDF>
  </metadata>
  <g
     inkscape:label="Layer 1"
     inkscape:groupmode="layer"
     id="layer1">
    <g
       transform="matrix(1.25,0,0,-1.25,104.05705,793.34874)"
       id="g3545">
      <g
         id="g3547"
         clip-path="url(#clipPath3549)">
        <g
           id="g3553"
           transform="translate(36.1115,269.9321)">
          <path
             inkscape:connector-curvature="0"
             d="m 0,0 63,0 c 2.479,0 4.5,-2.022 4.5,-4.5 l 0,-63 c 0,-2.479 -2.021,-4.5 -4.5,-4.5 l -63,0 c -2.479,0 -4.5,2.021 -4.5,4.5 l 0,63 C -4.5,-2.022 -2.479,0 0,0"
             style="fill:#ffffff;fill-opacity:1;fill-rule:nonzero;stroke:none"
             id="path3555" />
        </g>
      </g>
    </g>
    <g
       transform="matrix(1.25,0,0,-1.25,104.05705,793.34874)"
       id="g3557">
      <g
         id="g3559"
         clip-path="url(#clipPath3561)">
        <g
           id="g3565"
           transform="translate(36.1115,269.9321)">
          <path
             inkscape:connector-curvature="0"
             d="m 0,0 63,0 c 2.479,0 4.5,-2.022 4.5,-4.5 l 0,-63 c 0,-2.479 -2.021,-4.5 -4.5,-4.5 l -63,0 c -2.479,0 -4.5,2.021 -4.5,4.5 l 0,63 C -4.5,-2.022 -2.479,0 0,0 z"
             style="fill:none;stroke:#231f20;stroke-width:0.5;stroke-linecap:butt;stroke-linejoin:miter;stroke-miterlimit:4;stroke-opacity:1;stroke-dasharray:none"
             id="path3567" />
        </g>
      </g>
    </g>
    <g
       id="g3577"
       transform="matrix(1.25,0,0,-1.25,149.2148,457.43487)">
      <path
         d="m 0,0 24.254,0 34.679,0 c 1.782,0 4.562,0.491 6.086,-0.706 1.693,-1.329 1.266,-3.769 1.266,-5.662 l 0,-33.701 0,-26.131 c 0,-2.262 -1.808,-3.398 -3.865,-3.398 l -10.475,0 -37.479,0 -12.724,0 c -2.007,0 -4.254,0.019 -4.93,2.398 -0.193,0.678 -0.127,1.432 -0.127,2.131 l 0,4.634 0,16.278 0,35.59 c 0,2.754 -1.011,8.55 3.315,8.567"
         style="fill:#231f20;fill-opacity:1;fill-rule:evenodd;stroke:none"
         id="path3579"
         inkscape:connector-curvature="0" />
    </g>
    <g
       id="g3581"
       transform="matrix(1.25,0,0,-1.25,149.24405,459.68361)">
      <path
         d="m 0,0 24.318,0 34.66,0 3.548,0 c 0.501,0 0.974,-0.005 1.385,-0.343 1.029,-0.847 0.551,-3.247 0.551,-4.351 l 0,-33.879 0,-25.836 C 64.462,-66.1 62.814,-66 61.59,-66 l -17.031,0 -7.95,0 -1.927,0 -2.325,0 -1.912,0 -30.387,0 c -1.388,0 -1.596,1.162 -1.596,2.269 l 0,10.959 0,37.576 0,12.252 c 0,1.098 -0.201,2.693 1.271,2.925 C -0.18,-0.005 -0.089,0.001 0,0"
         style="fill:#ffffff;fill-opacity:1;fill-rule:evenodd;stroke:none"
         id="path3583"
         inkscape:connector-curvature="0" />
    </g>
    <path
       d="m 190.2933,503.29249 2.25,0 0,38.88625 -2.25,0 0,-38.88625 z"
       style="fill:#231f20;fill-opacity:1;fill-rule:evenodd;stroke:none"
       id="path3585"
       inkscape:connector-curvature="0" />
    <g
       id="g3587"
       transform="matrix(1.25,0,0,-1.25,215.84068,476.05124)">
      <path
         d="m 0,0 0,-44.567 -5.112,0 0,13.825 c 0,4.678 -1.368,9.322 -3.852,13.318 -2.16,3.42 -5.004,6.336 -8.136,8.892 l -1.908,1.584 -1.008,-3.204 c -0.036,-0.108 -0.072,-0.179 -0.108,-0.251 -0.288,-0.397 -0.792,-0.577 -1.224,-0.361 -0.215,0.072 -0.504,0.288 -0.54,0.504 L -26.027,0.9 -14.22,0.828 c 0.18,0 0.432,-0.071 0.577,-0.216 0.395,-0.288 0.576,-0.792 0.359,-1.223 -0.071,-0.181 -0.18,-0.289 -0.323,-0.397 l -2.341,-1.836 1.872,-1.224 c 2.376,-1.548 4.464,-3.456 6.301,-5.58 1.007,-1.116 1.836,-2.304 2.663,-3.528 l 0,13.176 -3.06,-0.972 c -0.036,0 -0.108,0 -0.18,-0.036 l -0.108,0 c -0.18,0.036 -0.36,0.072 -0.54,0.181 -0.324,0.216 -0.504,0.611 -0.468,0.971 0.036,0.144 0.072,0.324 0.144,0.432 l 6.768,9.792 6.697,-9.756 C 4.248,0.396 4.32,0.216 4.32,0 c 0,-0.504 -0.36,-0.9 -0.864,-1.008 -0.144,-0.036 -0.324,0 -0.468,0.036 L 0,0 z"
         style="fill:#231f20;fill-opacity:1;fill-rule:evenodd;stroke:none"
         id="path3589"
         inkscape:connector-curvature="0" />
    </g>
    <g
       id="g3591"
       transform="matrix(1.25,0,0,-1.25,179.70543,511.19487)">
      <path
         d="m 0,0 -0.035,-7.452 -5.257,0 0,7.452 c 0,1.907 -0.504,3.779 -1.476,5.399 -1.116,1.908 -2.807,3.456 -4.788,4.393 -0.864,0.395 -1.763,0.611 -2.664,0.828 l 0,-3.168 c 0,-0.109 0,-0.217 -0.036,-0.324 -0.179,-0.504 -0.611,-0.829 -1.116,-0.756 -0.252,0 -0.504,0.107 -0.648,0.287 l -7.812,9.756 11.809,3.709 c 0.179,0.071 0.431,0.071 0.647,0 0.469,-0.145 0.792,-0.649 0.721,-1.153 0,-0.179 -0.109,-0.36 -0.217,-0.54 l -1.836,-2.664 c 1.692,-0.504 3.42,-1.008 4.933,-1.944 1.584,-1.008 3.023,-2.268 4.212,-3.744 C -2.088,8.243 -0.935,6.011 -0.432,3.671 -0.143,2.483 -0.071,1.223 0,0"
         style="fill:#231f20;fill-opacity:1;fill-rule:evenodd;stroke:none"
         id="path3593"
         inkscape:connector-curvature="0" />
    </g>
    <g
       id="g3595"
       transform="matrix(1.25,0,0,-1.25,188.79605,524.92111)">
      <path
         d="M 0,0 -1.764,0 -4.104,-3.707 -6.444,0 -8.28,0 l 3.42,-5.435 0,-4.211 1.512,0 0,4.211 L 0,0 z m -8.46,-9.646 0,1.402 -4.464,0 0,8.244 -1.512,0 0,-9.646 5.976,0 z m -7.704,0 0,9.646 -1.512,0 0,-6.156 -3.528,6.156 -1.548,0 0,-9.646 1.548,0 0,6.55 3.672,-6.55 1.368,0 z m -9.649,4.822 c 0,-0.756 -0.179,-1.727 -0.359,-2.231 -0.36,-0.828 -0.792,-1.224 -1.512,-1.224 -0.612,0 -1.008,0.252 -1.332,0.756 -0.36,0.611 -0.576,1.656 -0.576,2.699 0,0.793 0.144,1.693 0.396,2.269 0.324,0.829 0.792,1.223 1.548,1.188 0.576,-0.037 0.936,-0.252 1.26,-0.756 0.36,-0.648 0.575,-1.621 0.575,-2.701 m 1.513,0 c 0,1.225 -0.216,2.412 -0.648,3.277 -0.576,1.188 -1.44,1.729 -2.664,1.729 -1.117,0 -1.909,-0.324 -2.484,-1.08 -0.648,-0.938 -1.044,-2.342 -1.044,-3.926 0,-1.188 0.252,-2.447 0.684,-3.275 0.576,-1.188 1.404,-1.729 2.772,-1.729 1.008,0 1.8,0.324 2.34,1.08 0.684,0.865 1.044,2.377 1.044,3.924"
         style="fill:#231f20;fill-opacity:1;fill-rule:evenodd;stroke:none"
         id="path3597"
         inkscape:connector-curvature="0" />
    </g>
  </g>
</svg>
