<?xml version="1.0" encoding="UTF-8" standalone="no"?>
<!-- Created with Inkscape (http://www.inkscape.org/) -->

<svg
   xmlns:dc="http://purl.org/dc/elements/1.1/"
   xmlns:cc="http://creativecommons.org/ns#"
   xmlns:rdf="http://www.w3.org/1999/02/22-rdf-syntax-ns#"
   xmlns:svg="http://www.w3.org/2000/svg"
   xmlns="http://www.w3.org/2000/svg"
   xmlns:sodipodi="http://sodipodi.sourceforge.net/DTD/sodipodi-0.dtd"
   xmlns:inkscape="http://www.inkscape.org/namespaces/inkscape"
   width="180.625"
   height="80.625"
   id="svg7654"
   version="1.1"
   inkscape:version="0.48.1 "
   sodipodi:docname="New document 39">
  <defs
     id="defs7656">
    <clipPath
       clipPathUnits="userSpaceOnUse"
       id="clipPath6729">
      <path
         inkscape:connector-curvature="0"
         d="m 63.125,496.948 512.875,0 0,240.052 -512.875,0 0,-240.052 z"
         id="path6731" />
    </clipPath>
  </defs>
  <sodipodi:namedview
     id="base"
     pagecolor="#ffffff"
     bordercolor="#666666"
     borderopacity="1.0"
     inkscape:pageopacity="0.0"
     inkscape:pageshadow="2"
     inkscape:zoom="0.35"
     inkscape:cx="133.8808"
     inkscape:cy="-48.258958"
     inkscape:document-units="px"
     inkscape:current-layer="layer1"
     showgrid="false"
     fit-margin-top="0"
     fit-margin-left="0"
     fit-margin-right="0"
     fit-margin-bottom="0"
     inkscape:window-width="469"
     inkscape:window-height="425"
     inkscape:window-x="175"
     inkscape:window-y="175"
     inkscape:window-maximized="0" />
  <metadata
     id="metadata7659">
    <rdf:RDF>
      <cc:Work
         rdf:about="">
        <dc:format>image/svg+xml</dc:format>
        <dc:type
           rdf:resource="http://purl.org/dc/dcmitype/StillImage" />
        <dc:title></dc:title>
      </cc:Work>
    </rdf:RDF>
  </metadata>
  <g
     inkscape:label="Layer 1"
     inkscape:groupmode="layer"
     id="layer1"
     transform="translate(-241.1192,-403.47823)">
    <g
       id="g6725"
       transform="matrix(1.25,0,0,-1.25,-171.28605,1298.3656)">
      <g
         id="g6727"
         clip-path="url(#clipPath6729)">
        <g
           id="g6733"
           transform="translate(334.1742,715.6599)">
          <path
             d="m 0,0 135.995,0 c 2.204,0 4,-1.798 4,-4.001 l 0,-55.999 c 0,-2.203 -1.796,-4 -4,-4 L 0,-64 c -2.203,0 -4,1.797 -4,4 l 0,55.999 C -4,-1.798 -2.203,0 0,0"
             style="fill:#ffffff;fill-opacity:1;fill-rule:nonzero;stroke:none"
             id="path6735"
             inkscape:connector-curvature="0" />
        </g>
        <g
           id="g6737"
           transform="translate(334.1742,715.6599)">
          <path
             d="m 0,0 135.995,0 c 2.204,0 4,-1.798 4,-4.001 l 0,-55.999 c 0,-2.203 -1.796,-4 -4,-4 L 0,-64 c -2.203,0 -4,1.797 -4,4 l 0,55.999 C -4,-1.798 -2.203,0 0,0 z"
             style="fill:none;stroke:#231f20;stroke-width:0.5;stroke-linecap:butt;stroke-linejoin:miter;stroke-miterlimit:4;stroke-opacity:1;stroke-dasharray:none"
             id="path6739"
             inkscape:connector-curvature="0" />
        </g>
        <g
           id="g6741"
           transform="translate(334.1862,714.6599)">
          <path
             d="m 0,0 46.333,0 73.393,0 16.093,0 c 3.207,0 3.164,-3.001 3.164,-5.376 l 0,-33.909 0,-15.778 c 0,-1.511 0.383,-3.64 -0.234,-5.101 -1.07,-2.533 -4.57,-1.836 -6.73,-1.836 l -25.082,0 -75.873,0 -26.189,0 c -2.141,0 -6.086,-0.807 -7.453,1.449 -0.731,1.203 -0.434,2.959 -0.434,4.283 l 0,14.709 0,35.04 C -3.012,-4.155 -3.564,-0.002 0,0"
             style="fill:#231f20;fill-opacity:1;fill-rule:evenodd;stroke:none"
             id="path6743"
             inkscape:connector-curvature="0" />
        </g>
        <g
           id="g6745"
           transform="translate(334.2062,712.991)">
          <path
             d="m 0,0 46.321,0 73.369,0 16.09,0 c 0.996,0 1.519,-0.643 1.519,-1.604 l 0,-10.207 0,-36.897 0,-8.574 c 0,-1.053 -0.871,-1.383 -1.757,-1.383 l -52.106,0 -71.284,0 -9.291,0 c -0.932,0 -2.379,-0.283 -3.287,0.061 -1.317,0.5 -0.942,2.224 -0.942,3.332 l 0,13.915 0,31.4 0,8.221 C -1.368,-0.869 -1.028,0.01 0,0"
             style="fill:#ffffff;fill-opacity:1;fill-rule:evenodd;stroke:none"
             id="path6747"
             inkscape:connector-curvature="0" />
        </g>
        <g
           id="g6749"
           transform="translate(379.0682,713.9104)">
          <path
             d="M 0,0 0,-61.22"
             style="fill:#ffffff;fill-opacity:1;fill-rule:evenodd;stroke:#231f20;stroke-width:1.25;stroke-linecap:butt;stroke-linejoin:miter;stroke-miterlimit:4;stroke-opacity:1;stroke-dasharray:none"
             id="path6751"
             inkscape:connector-curvature="0" />
        </g>
        <g
           id="g6753"
           transform="translate(409.7122,700.5071)">
          <path
             d="m 0,0 -0.013,-27.128 -3.701,0 0.015,4.823 c 0,3.406 -0.986,6.782 -2.797,9.663 -1.56,2.489 -3.629,4.606 -5.888,6.467 l -1.375,1.134 -0.743,-2.325 c -0.021,-0.07 -0.039,-0.128 -0.084,-0.187 -0.207,-0.277 -0.562,-0.408 -0.89,-0.258 -0.147,0.066 -0.344,0.221 -0.403,0.38 l -3.005,8.087 8.58,-0.059 c 0.152,-0.001 0.312,-0.054 0.431,-0.149 0.282,-0.21 0.405,-0.569 0.256,-0.896 -0.054,-0.124 -0.131,-0.213 -0.236,-0.292 l -1.705,-1.318 1.375,-0.906 c 1.703,-1.117 3.238,-2.487 4.572,-4.025 0.705,-0.811 1.311,-1.671 1.912,-2.559 l 0,9.548 -2.203,-0.701 c -0.041,-0.012 -0.084,-0.014 -0.127,-0.02 -0.027,-0.004 -0.053,-0.006 -0.08,0 -0.15,0.006 -0.283,0.033 -0.41,0.117 -0.24,0.161 -0.356,0.433 -0.322,0.716 0.007,0.097 0.041,0.215 0.095,0.299 L -1.849,7.509 3.008,0.431 C 3.1,0.298 3.155,0.159 3.153,0 3.141,-0.368 2.881,-0.662 2.522,-0.737 2.42,-0.759 2.284,-0.734 2.184,-0.701 L 0,0 z"
             style="fill:#231f20;fill-opacity:1;fill-rule:evenodd;stroke:none"
             id="path6755"
             inkscape:connector-curvature="0" />
        </g>
        <g
           id="g6757"
           transform="translate(457.8492,665.802)">
          <path
             d="m 0,0 c 0,-0.314 -0.238,-0.522 -0.613,-0.522 l -1.211,0 0,1.061 1.211,0 C -0.238,0.539 0,0.331 0,0 m 0.854,-2.96 -0.778,1.824 c 0.432,0.239 0.688,0.658 0.688,1.136 0,0.479 -0.256,0.897 -0.658,1.122 -0.225,0.137 -0.418,0.181 -0.733,0.181 l -1.961,0 0,-4.263 0.764,0 0,1.675 1.137,0 L 0,-2.96 l 0.854,0 z m -4.293,0 0,0.761 -2.409,0 0,1.167 1.272,0 0,0.78 -1.272,0 0,0.791 2.332,0 0,0.764 -3.109,0 0,-4.263 3.186,0 z m -4.295,0 0,4.263 -0.76,0 0,-1.647 -1.916,0 0,1.647 -0.764,0 0,-4.263 0.764,0 0,1.853 1.916,0.016 0,-1.869 0.76,0 z m -4.157,3.513 0,0.75 -3.203,0 0,-0.75 1.229,0 0,-3.513 0.746,0 0,3.513 1.228,0 z m -4.548,-1.374 c 0,-0.658 -0.196,-1.453 -1,-1.453 -0.645,0 -1.034,0.539 -1.034,1.453 0,0.896 0.389,1.435 1.034,1.435 0.64,0 1,-0.539 1,-1.435 m 0.763,0.013 c 0,1.303 -0.716,2.186 -1.763,2.186 -1.123,0 -1.811,-0.839 -1.811,-2.199 0,-1.078 0.553,-2.217 1.811,-2.217 1.074,0 1.763,0.9 1.763,2.23"
             style="fill:#231f20;fill-opacity:1;fill-rule:evenodd;stroke:none"
             id="path6759"
             inkscape:connector-curvature="0" />
        </g>
        <g
           id="g6761"
           transform="translate(457.7222,658.4709)">
          <path
             d="m 0,0 c 0,0.464 -0.238,0.869 -0.613,1.063 -0.24,0.12 -0.615,0.24 -1.182,0.359 -0.523,0.119 -0.674,0.224 -0.674,0.464 0,0.269 0.256,0.433 0.688,0.433 0.406,0 0.748,-0.133 1.017,-0.417 l 0.569,0.508 c -0.432,0.447 -0.957,0.658 -1.586,0.658 -0.865,0 -1.465,-0.48 -1.465,-1.182 0,-0.27 0.092,-0.523 0.27,-0.717 0.179,-0.211 0.404,-0.314 0.837,-0.419 L -1.93,0.688 -1.736,0.645 -1.541,0.586 C -1.347,0.539 -1.18,0.48 -1.033,0.419 -0.853,0.33 -0.764,0.197 -0.764,0.03 c 0,-0.313 -0.388,-0.552 -0.927,-0.552 -0.479,0 -0.823,0.164 -1.137,0.539 l -0.613,-0.481 c 0.48,-0.553 1.033,-0.824 1.765,-0.824 0.391,0 0.78,0.107 1.079,0.288 C -0.195,-0.761 0,-0.434 0,0 m -4.039,-1.241 0,0.763 -2.406,0 0,1.166 1.271,0 0,0.778 -1.271,0 0,0.795 2.332,0 0,0.763 -3.109,0 0,-4.265 3.183,0 z m -4.293,0 0,4.265 -0.746,0 -1.258,-2.53 -1.242,2.53 -0.746,0 0,-4.265 0.746,0 0,2.604 1.242,-2.604 1.258,2.604 0,-2.604 0.746,0 z m -5.084,4.265 -0.764,0 0,-4.266 0.764,0 0,4.266 z m -1.482,-0.75 0,0.75 -3.199,0 0,-0.75 1.224,0 0,-3.515 0.748,0 0,3.515 1.227,0 z"
             style="fill:#231f20;fill-opacity:1;fill-rule:evenodd;stroke:none"
             id="path6763"
             inkscape:connector-curvature="0" />
        </g>
        <g
           id="g6765"
           transform="translate(461.1732,680.4758)">
          <path
             d="M 0,0 -1.435,0 -3.304,-2.979 -5.144,0 -6.609,0 -3.9,-4.361 l 0,-3.361 1.219,0 0,3.361 L 0,0 z m -5.582,-7.722 0,1.139 -3.574,0 0,6.583 -1.219,0 0,-7.722 4.793,0 z m -6.605,0 0,7.722 -1.221,0 0,-4.93 -2.818,4.93 -1.219,0 0,-7.722 1.219,0 0,5.23 2.953,-5.23 1.086,0 z m -8.154,3.848 c 0,-0.596 -0.137,-1.353 -0.301,-1.76 -0.268,-0.677 -0.621,-0.977 -1.192,-0.977 -0.484,0 -0.81,0.192 -1.054,0.597 -0.297,0.489 -0.461,1.328 -0.461,2.14 0,0.651 0.109,1.356 0.297,1.816 0.273,0.676 0.65,0.975 1.248,0.947 0.461,-0.027 0.757,-0.189 1.002,-0.596 0.296,-0.515 0.461,-1.299 0.461,-2.167 m 1.218,0 c 0,0.976 -0.191,1.951 -0.515,2.628 -0.487,0.947 -1.164,1.382 -2.139,1.382 -0.895,0 -1.516,-0.271 -1.977,-0.867 -0.517,-0.731 -0.841,-1.87 -0.841,-3.143 0,-0.921 0.216,-1.949 0.541,-2.601 0.461,-0.947 1.138,-1.385 2.22,-1.385 0.815,0 1.438,0.274 1.869,0.872 0.543,0.677 0.842,1.896 0.842,3.114"
             style="fill:#231f20;fill-opacity:1;fill-rule:evenodd;stroke:none"
             id="path6767"
             inkscape:connector-curvature="0" />
        </g>
        <g
           id="g6769"
           transform="translate(447.1772,704.6672)">
          <path
             d="m 0,0 -0.019,3.948 3.291,0 0,-3.969 c 0,-1.437 0.478,-2.866 1.349,-4.011 0.791,-1.038 1.92,-1.843 3.188,-2.171 l 1.408,-0.365 -0.088,2.049 c -0.004,0.06 0.016,0.126 0.033,0.182 0.094,0.289 0.332,0.509 0.653,0.481 0.166,-0.014 0.351,-0.076 0.463,-0.206 l 4.957,-5.834 -7.205,-2.542 c -0.124,-0.043 -0.243,-0.055 -0.366,-0.019 -0.302,0.083 -0.513,0.371 -0.496,0.684 0.006,0.069 0.049,0.235 0.092,0.304 l 1.191,1.865 -1.464,0.383 C 5.002,-8.701 3.231,-7.496 1.983,-5.87 1.145,-4.775 0.502,-3.471 0.229,-2.112 0.086,-1.418 0.041,-0.704 0,0"
             style="fill:#231f20;fill-opacity:1;fill-rule:evenodd;stroke:none"
             id="path6771"
             inkscape:connector-curvature="0" />
        </g>
        <g
           id="g6773"
           transform="translate(450.4352,688.2532)">
          <path
             d="m 0,0 0.02,-3.948 -3.291,0 0,3.969 c 0,1.437 -0.479,2.866 -1.35,4.011 -0.791,1.037 -1.92,1.843 -3.188,2.172 L -9.217,6.567 -9.129,4.52 C -9.125,4.46 -9.144,4.393 -9.162,4.338 -9.256,4.049 -9.496,3.829 -9.814,3.857 -9.98,3.871 -10.168,3.933 -10.277,4.063 l -4.959,5.833 7.207,2.542 c 0.123,0.044 0.242,0.054 0.363,0.02 0.301,-0.084 0.516,-0.371 0.498,-0.684 -0.006,-0.069 -0.051,-0.237 -0.094,-0.305 L -8.451,9.604 -6.988,9.22 C -5.004,8.7 -3.23,7.496 -1.982,5.869 -1.144,4.776 -0.504,3.471 -0.228,2.111 -0.086,1.419 -0.041,0.704 0,0"
             style="fill:#231f20;fill-opacity:1;fill-rule:evenodd;stroke:none"
             id="path6775"
             inkscape:connector-curvature="0" />
        </g>
        <g
           id="g6777"
           transform="translate(364.7282,678.6008)">
          <path
             d="m 0,0 -9.12,9.119 -9.054,-9.054 -3.015,3.016 9.053,9.054 -8.971,8.972 3.017,3.015 8.97,-8.972 9.108,9.11 L 3.004,21.244 -6.104,12.135 3.016,3.017 0,0 z"
             style="fill:#bf2519;fill-opacity:1;fill-rule:evenodd;stroke:none"
             id="path6779"
             inkscape:connector-curvature="0" />
        </g>
        <g
           id="g6781"
           transform="translate(425.2982,714.2507)">
          <path
             d="M 0,0 0,-61.22"
             style="fill:#ffffff;fill-opacity:1;fill-rule:evenodd;stroke:#231f20;stroke-width:1.25;stroke-linecap:butt;stroke-linejoin:miter;stroke-miterlimit:4;stroke-opacity:1;stroke-dasharray:none"
             id="path6783"
             inkscape:connector-curvature="0" />
        </g>
        <g
           id="g6785"
           transform="translate(345.7082,663.3381)">
          <path
             d="m 0,0 -0.478,-2.243 0.928,0 L 0,0 z m 1.167,-5.623 -0.479,2.273 -1.404,0 -0.481,-2.273 -1.105,0 1.734,8.524 1.108,0 1.763,-8.524 -1.136,0 z"
             style="fill:#231f20;fill-opacity:1;fill-rule:nonzero;stroke:none"
             id="path6787"
             inkscape:connector-curvature="0" />
        </g>
        <g
           id="g6789"
           transform="translate(352.3062,657.7151)">
          <path
             d="m 0,0 0,5.055 -0.988,-3.201 -1.039,3.201 0,-5.055 -1.076,0 0,8.524 1.076,0 1.039,-3.02 0.988,3.02 1.076,0 L 1.076,0 0,0 z"
             style="fill:#231f20;fill-opacity:1;fill-rule:nonzero;stroke:none"
             id="path6791"
             inkscape:connector-curvature="0" />
        </g>
        <g
           id="g6793"
           transform="translate(364.8082,663.3381)">
          <path
             d="m 0,0 -0.478,-2.243 0.927,0 L 0,0 z m 1.166,-5.623 -0.478,2.273 -1.405,0 -0.48,-2.273 -1.106,0 1.735,8.524 1.107,0 1.764,-8.524 -1.137,0 z"
             style="fill:#231f20;fill-opacity:1;fill-rule:nonzero;stroke:none"
             id="path6795"
             inkscape:connector-curvature="0" />
        </g>
        <g
           id="g6797"
           transform="translate(371.4062,657.7151)">
          <path
             d="m 0,0 0,5.055 -0.989,-3.201 -1.039,3.201 0,-5.055 -1.076,0 0,8.524 1.076,0 1.039,-3.02 0.989,3.02 1.076,0 L 1.076,0 0,0 z"
             style="fill:#231f20;fill-opacity:1;fill-rule:nonzero;stroke:none"
             id="path6799"
             inkscape:connector-curvature="0" />
        </g>
        <g
           id="g6801"
           transform="translate(340.8202,657.7151)">
          <path
             d="m 0,0 -1.108,0 c 0.09,3.111 0.6,5.384 1.647,7.418 l -2.559,0 0,1.106 3.668,0 0,-1.106 C 0.51,5.115 0.092,3.2 0,0"
             style="fill:#231f20;fill-opacity:1;fill-rule:nonzero;stroke:none"
             id="path6803"
             inkscape:connector-curvature="0" />
        </g>
        <g
           id="g6805"
           transform="translate(360.4942,665.0206)">
          <path
             d="m 0,0 c -0.131,0.171 -0.321,0.262 -0.5,0.262 -0.51,0 -0.733,-0.509 -0.733,-1.646 0,-0.926 0.254,-1.345 0.733,-1.345 0.507,0 0.724,0.449 0.724,1.465 C 0.224,-0.605 0.158,-0.207 0,0 m -1.682,0.95 c 0.311,0.314 0.732,0.418 1.211,0.418 1.166,0 1.801,-0.896 1.801,-2.542 0,-2.543 -1.039,-4.636 -3.071,-6.281 l -0.597,0.927 c 0.955,0.807 1.597,1.615 2.047,2.722 -0.061,-0.03 -0.12,-0.03 -0.209,-0.03 -0.537,0 -1.061,0.239 -1.389,0.658 -0.272,0.36 -0.449,1.137 -0.449,1.914 0,1.017 0.256,1.806 0.656,2.214"
             style="fill:#231f20;fill-opacity:1;fill-rule:nonzero;stroke:none"
             id="path6807"
             inkscape:connector-curvature="0" />
        </g>
        <path
           d="m 354.576,662.261 2.642,0 0,-1.107 -2.642,0 0,1.107 z"
           style="fill:#231f20;fill-opacity:1;fill-rule:nonzero;stroke:none"
           id="path6809"
           inkscape:connector-curvature="0" />
        <g
           id="g6811"
           transform="translate(392.5502,665.133)">
          <path
             d="m 0,0 -0.584,0 0,-2.602 0.584,0 c 0.659,0 0.9,0.329 0.9,1.226 C 0.9,-0.419 0.6,0 0,0 m 0,-3.709 -0.584,0 0,-3.709 -1.076,0 0,8.525 1.66,0 c 0.481,0 0.93,-0.12 1.199,-0.36 C 1.677,0.358 2.006,-0.449 2.006,-1.376 2.006,-2.782 1.199,-3.709 0,-3.709"
             style="fill:#231f20;fill-opacity:1;fill-rule:nonzero;stroke:none"
             id="path6813"
             inkscape:connector-curvature="0" />
        </g>
        <g
           id="g6815"
           transform="translate(411.2242,665.133)">
          <path
             d="m 0,0 -0.584,0 0,-2.602 0.584,0 c 0.659,0 0.899,0.329 0.899,1.226 C 0.899,-0.419 0.6,0 0,0 m 0,-3.709 -0.584,0 0,-3.709 -1.077,0 0,8.525 1.661,0 c 0.48,0 0.929,-0.12 1.198,-0.36 C 1.677,0.358 2.006,-0.449 2.006,-1.376 2.006,-2.782 1.198,-3.709 0,-3.709"
             style="fill:#231f20;fill-opacity:1;fill-rule:nonzero;stroke:none"
             id="path6817"
             inkscape:connector-curvature="0" />
        </g>
        <g
           id="g6819"
           transform="translate(387.7452,664.175)">
          <path
             d="M 0,0 -1.578,-3.319 0,-3.319 0,0 z m 1.077,-4.336 0,-2.124 -1.077,0 0,2.124 -2.654,0 0,1.137 2.564,5.264 1.167,0 0,-5.384 0.448,0 0,-1.017 -0.448,0 z"
             style="fill:#231f20;fill-opacity:1;fill-rule:nonzero;stroke:none"
             id="path6821"
             inkscape:connector-curvature="0" />
        </g>
        <g
           id="g6823"
           transform="translate(406.6592,659.0012)">
          <path
             d="m 0,0 c 0.105,0.203 0.178,0.808 0.178,1.346 0,0.897 -0.246,1.316 -0.723,1.316 -0.508,0 -0.732,-0.448 -0.732,-1.466 0,-0.628 0.059,-1.047 0.239,-1.256 0.12,-0.15 0.313,-0.269 0.493,-0.269 0.238,0 0.434,0.114 0.545,0.329 m 0.597,-1.018 c -0.298,-0.268 -0.725,-0.417 -1.173,-0.417 -1.165,0 -1.807,0.897 -1.807,2.542 0,2.541 1.038,4.666 3.07,6.281 L 1.284,6.461 C 0.329,5.683 -0.307,4.846 -0.755,3.739 -0.098,3.948 0.477,3.679 0.805,3.141 1.076,2.722 1.284,1.975 1.284,1.196 1.284,0.18 1.046,-0.629 0.597,-1.018"
             style="fill:#231f20;fill-opacity:1;fill-rule:nonzero;stroke:none"
             id="path6825"
             inkscape:connector-curvature="0" />
        </g>
        <g
           id="g6827"
           transform="translate(398.8522,657.7151)">
          <path
             d="m 0,0 0,5.055 -0.987,-3.201 -1.039,3.201 0,-5.055 -1.077,0 0,8.524 1.077,0 1.039,-3.02 0.987,3.02 1.077,0 L 1.077,0 0,0 z"
             style="fill:#231f20;fill-opacity:1;fill-rule:nonzero;stroke:none"
             id="path6829"
             inkscape:connector-curvature="0" />
        </g>
        <g
           id="g6831"
           transform="translate(417.5262,657.7151)">
          <path
             d="m 0,0 0,5.055 -0.987,-3.201 -1.039,3.201 0,-5.055 -1.078,0 0,8.524 1.078,0 1.039,-3.02 0.987,3.02 1.076,0 L 1.076,0 0,0 z"
             style="fill:#231f20;fill-opacity:1;fill-rule:nonzero;stroke:none"
             id="path6833"
             inkscape:connector-curvature="0" />
        </g>
        <path
           d="m 401.122,662.261 2.643,0 0,-1.107 -2.643,0 0,1.107 z"
           style="fill:#231f20;fill-opacity:1;fill-rule:nonzero;stroke:none"
           id="path6835"
           inkscape:connector-curvature="0" />
      </g>
    </g>
  </g>
</svg>
