<?xml version="1.0" encoding="UTF-8" standalone="no"?>
<!-- Created with Inkscape (http://www.inkscape.org/) -->

<svg
   xmlns:dc="http://purl.org/dc/elements/1.1/"
   xmlns:cc="http://creativecommons.org/ns#"
   xmlns:rdf="http://www.w3.org/1999/02/22-rdf-syntax-ns#"
   xmlns:svg="http://www.w3.org/2000/svg"
   xmlns="http://www.w3.org/2000/svg"
   xmlns:sodipodi="http://sodipodi.sourceforge.net/DTD/sodipodi-0.dtd"
   xmlns:inkscape="http://www.inkscape.org/namespaces/inkscape"
   width="180.621"
   height="80.625"
   id="svg8531"
   version="1.1"
   inkscape:version="0.48.1 "
   sodipodi:docname="New document 47">
  <defs
     id="defs8533">
    <clipPath
       clipPathUnits="userSpaceOnUse"
       id="clipPath6413">
      <path
         inkscape:connector-curvature="0"
         d="m 63.125,496.948 512.875,0 0,240.052 -512.875,0 0,-240.052 z"
         id="path6415" />
    </clipPath>
    <clipPath
       clipPathUnits="userSpaceOnUse"
       id="clipPath6401">
      <path
         inkscape:connector-curvature="0"
         d="m 77.375,497.932 484.375,0 0,239.068 -484.375,0 0,-239.068 z"
         id="path6403" />
    </clipPath>
  </defs>
  <sodipodi:namedview
     id="base"
     pagecolor="#ffffff"
     bordercolor="#666666"
     borderopacity="1.0"
     inkscape:pageopacity="0.0"
     inkscape:pageshadow="2"
     inkscape:zoom="0.35"
     inkscape:cx="125.3105"
     inkscape:cy="114.59824"
     inkscape:document-units="px"
     inkscape:current-layer="layer1"
     showgrid="false"
     fit-margin-top="0"
     fit-margin-left="0"
     fit-margin-right="0"
     fit-margin-bottom="0"
     inkscape:window-width="469"
     inkscape:window-height="425"
     inkscape:window-x="25"
     inkscape:window-y="25"
     inkscape:window-maximized="0" />
  <metadata
     id="metadata8536">
    <rdf:RDF>
      <cc:Work
         rdf:about="">
        <dc:format>image/svg+xml</dc:format>
        <dc:type
           rdf:resource="http://purl.org/dc/dcmitype/StillImage" />
        <dc:title></dc:title>
      </cc:Work>
    </rdf:RDF>
  </metadata>
  <g
     inkscape:label="Layer 1"
     inkscape:groupmode="layer"
     id="layer1"
     transform="translate(-249.6895,-566.33542)">
    <g
       id="g6393"
       transform="matrix(1.25,0,0,-1.25,255.002,566.64791)">
      <path
         d="m 0,0 135.997,0 c 2.203,0 4,-1.798 4,-4.001 l 0,-55.999 c 0,-2.203 -1.797,-4 -4,-4 L 0,-64 c -2.203,0 -4,1.797 -4,4 l 0,55.999 C -4,-1.798 -2.203,0 0,0"
         style="fill:#ffffff;fill-opacity:1;fill-rule:nonzero;stroke:none"
         id="path6395"
         inkscape:connector-curvature="0" />
    </g>
    <g
       id="g6397"
       transform="matrix(1.25,0,0,-1.25,-271.877,1287.4968)">
      <g
         id="g6399"
         clip-path="url(#clipPath6401)">
        <g
           id="g6405"
           transform="translate(421.5032,576.6791)">
          <path
             d="m 0,0 135.997,0 c 2.203,0 4,-1.798 4,-4.001 l 0,-55.999 c 0,-2.203 -1.797,-4 -4,-4 L 0,-64 c -2.203,0 -4,1.797 -4,4 l 0,55.999 C -4,-1.798 -2.203,0 0,0 z"
             style="fill:none;stroke:#231f20;stroke-width:0.5;stroke-linecap:butt;stroke-linejoin:miter;stroke-miterlimit:4;stroke-opacity:1;stroke-dasharray:none"
             id="path6407"
             inkscape:connector-curvature="0" />
        </g>
      </g>
    </g>
    <g
       id="g6409"
       transform="matrix(1.25,0,0,-1.25,-271.877,1287.4968)">
      <g
         id="g6411"
         clip-path="url(#clipPath6413)">
        <g
           id="g6417"
           transform="translate(421.5152,575.6791)">
          <path
             d="m 0,0 46.333,0 73.394,0 16.093,0 c 3.207,0 3.165,-3.001 3.165,-5.376 l 0,-33.909 0,-15.778 c 0,-1.511 0.382,-3.64 -0.235,-5.101 -1.07,-2.533 -4.57,-1.836 -6.73,-1.836 l -25.082,0 -75.873,0 -26.19,0 c -2.14,0 -6.086,-0.807 -7.453,1.449 -0.73,1.203 -0.434,2.959 -0.434,4.283 l 0,14.709 0,35.04 C -3.012,-4.155 -3.564,-0.002 0,0"
             style="fill:#231f20;fill-opacity:1;fill-rule:evenodd;stroke:none"
             id="path6419"
             inkscape:connector-curvature="0" />
        </g>
        <g
           id="g6421"
           transform="translate(421.5352,574.0101)">
          <path
             d="m 0,0 46.321,0 73.37,0 16.09,0 c 0.996,0 1.519,-0.643 1.519,-1.604 l 0,-10.207 0,-36.897 0,-8.574 c 0,-1.053 -0.871,-1.383 -1.757,-1.383 l -52.106,0 -71.285,0 -9.291,0 c -0.932,0 -2.379,-0.283 -3.287,0.06 -1.317,0.5 -0.942,2.225 -0.942,3.332 l 0,13.916 0,31.4 0,8.221 C -1.368,-0.869 -1.028,0.01 0,0"
             style="fill:#ffffff;fill-opacity:1;fill-rule:evenodd;stroke:none"
             id="path6423"
             inkscape:connector-curvature="0" />
        </g>
        <g
           id="g6425"
           transform="translate(524.9602,562.6991)">
          <path
             d="m 0,0 c 0,-1.459 -0.527,-2.431 -1.648,-3.029 -0.449,-0.262 -0.973,-0.412 -1.531,-0.412 l -1.5,0 0,6.846 1.5,0 c 0.558,0 1.121,-0.151 1.605,-0.412 C -0.527,2.395 0,1.422 0,0 m 1.907,0 c 0,2.094 -0.899,3.703 -2.543,4.639 -0.785,0.447 -1.649,0.674 -2.543,0.674 l -3.446,0 0,-10.662 3.446,0 c 0.859,0 1.758,0.224 2.504,0.636 1.683,0.934 2.582,2.581 2.582,4.713 m -11.297,-5.349 0,10.662 -1.832,0 0,-7.033 -4.903,7.033 -1.871,0 0,-10.662 1.871,0 0,7.332 5.086,-7.332 1.649,0 z m -10.738,0 0,1.908 -6.02,0 0,2.918 3.176,0 0,1.945 -3.176,0 0,1.983 5.832,0 0,1.908 -7.777,0 0,-10.662 7.965,0 z"
             style="fill:#231f20;fill-opacity:1;fill-rule:evenodd;stroke:none"
             id="path6427"
             inkscape:connector-curvature="0" />
        </g>
        <g
           id="g6429"
           transform="translate(547.0232,539.3411)">
          <path
             d="m 0,0 0,1.907 -6.023,0 0,2.916 3.179,0 0,1.946 -3.179,0 0,1.982 5.835,0 0,1.908 -7.781,0 L -7.969,0 0,0 z m -10.102,3.102 c 0,1.161 -0.597,2.17 -1.531,2.657 -0.601,0.301 -1.535,0.597 -2.957,0.898 -1.308,0.299 -1.683,0.561 -1.683,1.16 0,0.672 0.636,1.084 1.722,1.084 1.008,0 1.867,-0.338 2.543,-1.047 l 1.422,1.272 c -1.086,1.121 -2.395,1.644 -3.965,1.644 -2.172,0 -3.668,-1.195 -3.668,-2.953 0,-0.673 0.227,-1.31 0.676,-1.797 0.445,-0.523 1.008,-0.785 2.094,-1.046 l 0.523,-0.151 0.485,-0.111 0.488,-0.151 c 0.484,-0.111 0.898,-0.261 1.269,-0.41 0.45,-0.224 0.676,-0.562 0.676,-0.972 0,-0.785 -0.973,-1.385 -2.32,-1.385 -1.195,0 -2.059,0.412 -2.844,1.348 l -1.531,-1.198 c 1.195,-1.383 2.578,-2.063 4.414,-2.063 0.973,0 1.945,0.269 2.691,0.717 1.012,0.598 1.496,1.421 1.496,2.504 m -12.23,4.303 c 0,-0.785 -0.602,-1.31 -1.535,-1.31 l -3.031,0 0,2.656 3.031,0 c 0.933,0 1.535,-0.524 1.535,-1.346 M -20.199,0 -22.145,4.561 c 1.082,0.6 1.719,1.647 1.719,2.844 0,1.197 -0.637,2.244 -1.644,2.805 -0.563,0.338 -1.047,0.449 -1.836,0.449 l -4.899,0 0,-10.659 1.907,0 0,4.188 2.843,0 1.723,-4.188 2.133,0 z m -10.739,0 0,1.907 -6.023,0 0,2.916 3.18,0 0,1.946 -3.18,0 0,1.982 5.836,0 0,1.908 -7.781,0 0,-10.659 7.968,0 z m -9.726,10.659 -2.059,0 -2.918,-7.781 -2.914,7.781 -2.058,0 3.925,-10.659 2.059,0 3.965,10.659 z M -51.773,0 l 0,1.907 -6.023,0 0,2.916 3.181,0 0,1.946 -3.181,0 0,1.982 5.837,0 0,1.908 -7.782,0 0,-10.659 7.968,0 z m -12.23,7.405 c 0,-0.785 -0.602,-1.31 -1.535,-1.31 l -3.031,0 0,2.656 3.031,0 c 0.933,0 1.535,-0.524 1.535,-1.346 M -61.872,0 -63.815,4.561 c 1.082,0.6 1.718,1.647 1.718,2.844 0,1.197 -0.636,2.244 -1.644,2.805 -0.563,0.338 -1.049,0.449 -1.834,0.449 l -4.901,0 0,-10.659 1.907,0 0,4.188 2.843,0 1.723,-4.188 2.131,0 z"
             style="fill:#231f20;fill-opacity:1;fill-rule:evenodd;stroke:none"
             id="path6431"
             inkscape:connector-curvature="0" />
        </g>
        <g
           id="g6433"
           transform="translate(532.2892,521.3291)">
          <path
             d="m 0,0 0,1.908 -6.024,0 0,2.918 3.18,0 0,1.946 -3.18,0 0,1.982 5.836,0 0,1.908 -7.781,0 L -7.969,0 0,0 z m -10.735,0 0,10.662 -1.832,0 0,-7.033 -4.902,7.033 -1.871,0 0,-10.662 1.871,0 0,7.332 5.086,-7.332 1.648,0 z m -14.328,4.414 -2.992,0 1.496,3.592 1.496,-3.592 z m 3.93,-4.414 -4.453,10.662 -1.946,0 L -32.02,0 l 2.094,0 1.047,2.508 4.64,0 1.047,-2.508 2.059,0 z m -11.711,0 0,1.647 -6.059,0 0,9.015 -1.907,0 0,-10.662 7.966,0 z"
             style="fill:#231f20;fill-opacity:1;fill-rule:evenodd;stroke:none"
             id="path6435"
             inkscape:connector-curvature="0" />
        </g>
        <g
           id="g6437"
           transform="translate(428.4412,568.019)">
          <path
             d="m 0,0 34.373,0 c 1.164,0 2.115,-0.953 2.115,-2.118 l 0,-42.366 c 0,-1.164 -0.951,-2.117 -2.115,-2.117 l -34.373,0 c -1.163,0 -2.115,0.953 -2.115,2.117 l 0,42.366 C -2.115,-0.953 -1.163,0 0,0"
             style="fill:#231f20;fill-opacity:1;fill-rule:evenodd;stroke:none"
             id="path6439"
             inkscape:connector-curvature="0" />
        </g>
        <g
           id="g6441"
           transform="translate(428.4492,566.9531)">
          <path
             d="m 0,0 34.357,0 c 0.581,0 1.057,-0.476 1.057,-1.059 l 0,-42.351 c 0,-0.583 -0.476,-1.058 -1.057,-1.058 l -34.357,0 c -0.581,0 -1.057,0.475 -1.057,1.058 l 0,42.351 C -1.057,-0.476 -0.581,0 0,0"
             style="fill:#ffffff;fill-opacity:1;fill-rule:evenodd;stroke:none"
             id="path6443"
             inkscape:connector-curvature="0" />
        </g>
        <g
           id="g6445"
           transform="translate(455.7342,544.2131)">
          <path
             d="m 0,0 -0.035,-7.202 -4.969,0 0,7.202 c 0,1.781 -0.477,3.553 -1.371,5.094 -1.043,1.795 -2.645,3.254 -4.526,4.136 -0.802,0.377 -1.642,0.586 -2.505,0.782 l 0.019,-2.983 c 0,-0.07 -0.008,-0.142 -0.023,-0.211 -0.039,-0.228 -0.172,-0.459 -0.348,-0.605 -0.203,-0.166 -0.467,-0.254 -0.726,-0.225 -0.227,0.024 -0.481,0.117 -0.627,0.299 l -7.346,9.18 11.129,3.486 c 0.183,0.059 0.406,0.055 0.594,0 0.453,-0.133 0.753,-0.611 0.707,-1.074 -0.02,-0.191 -0.102,-0.363 -0.211,-0.52 l -1.721,-2.523 c 0.689,-0.197 1.373,-0.412 2.053,-0.645 0.898,-0.304 1.773,-0.675 2.576,-1.177 2.471,-1.535 4.494,-3.754 5.795,-6.358 0.676,-1.359 1.152,-2.82 1.328,-4.33 C -0.121,1.553 -0.051,0.777 0,0"
             style="fill:#231f20;fill-opacity:1;fill-rule:evenodd;stroke:none"
             id="path6447"
             inkscape:connector-curvature="0" />
        </g>
        <g
           id="g6449"
           transform="translate(456.3732,530.5731)">
          <path
             d="m 0,0 -1.893,3.106 -1.477,0 2.747,-4.51 0,-3.488 1.246,0 0,3.488 2.747,4.51 -1.477,0 L 0,0 z m -7.721,3.106 -1.246,0 0,-7.998 4.867,0 0,1.187 -3.621,0 0,6.811 z m -7.481,0 -1.246,0 0,-7.998 1.246,0 0,5.396 3.036,-5.396 1.089,0 0,7.998 -1.246,0 0,-5.11 -2.879,5.11 z m -6.136,-1.152 c 0.492,-0.024 0.804,-0.215 1.043,-0.635 0.3,-0.516 0.468,-1.33 0.468,-2.219 0,-0.635 -0.121,-1.402 -0.3,-1.846 -0.262,-0.695 -0.649,-0.996 -1.235,-0.996 -0.492,0 -0.828,0.205 -1.078,0.623 -0.289,0.492 -0.469,1.356 -0.469,2.219 0,0.672 0.121,1.391 0.301,1.859 0.274,0.707 0.684,1.032 1.27,0.995 m 0.035,1.283 c -0.91,0 -1.57,-0.287 -2.012,-0.899 -0.551,-0.744 -0.863,-1.931 -0.863,-3.238 0,-0.959 0.215,-2.025 0.551,-2.709 0.48,-0.973 1.175,-1.418 2.265,-1.418 0.852,0 1.489,0.291 1.942,0.891 0.527,0.718 0.863,1.953 0.863,3.236 0,1.008 -0.203,2.016 -0.551,2.711 -0.48,0.982 -1.176,1.426 -2.195,1.426"
             style="fill:#231f20;fill-opacity:1;fill-rule:evenodd;stroke:none"
             id="path6451"
             inkscape:connector-curvature="0" />
        </g>
      </g>
    </g>
  </g>
</svg>
