<?xml version="1.0" encoding="UTF-8" standalone="no"?>
<!-- Created with Inkscape (http://www.inkscape.org/) -->

<svg
   xmlns:dc="http://purl.org/dc/elements/1.1/"
   xmlns:cc="http://creativecommons.org/ns#"
   xmlns:rdf="http://www.w3.org/1999/02/22-rdf-syntax-ns#"
   xmlns:svg="http://www.w3.org/2000/svg"
   xmlns="http://www.w3.org/2000/svg"
   xmlns:sodipodi="http://sodipodi.sourceforge.net/DTD/sodipodi-0.dtd"
   xmlns:inkscape="http://www.inkscape.org/namespaces/inkscape"
   width="40.615002"
   height="60.610001"
   id="svg7200"
   version="1.1"
   inkscape:version="0.48.1 "
   sodipodi:docname="New document 32">
  <defs
     id="defs7202" />
  <sodipodi:namedview
     id="base"
     pagecolor="#ffffff"
     bordercolor="#666666"
     borderopacity="1.0"
     inkscape:pageopacity="0.0"
     inkscape:pageshadow="2"
     inkscape:zoom="0.35"
     inkscape:cx="-47.54964"
     inkscape:cy="33.162147"
     inkscape:document-units="px"
     inkscape:current-layer="layer1"
     showgrid="false"
     fit-margin-top="0"
     fit-margin-left="0"
     fit-margin-right="0"
     fit-margin-bottom="0"
     inkscape:window-width="469"
     inkscape:window-height="425"
     inkscape:window-x="25"
     inkscape:window-y="25"
     inkscape:window-maximized="0" />
  <metadata
     id="metadata7205">
    <rdf:RDF>
      <cc:Work
         rdf:about="">
        <dc:format>image/svg+xml</dc:format>
        <dc:type
           rdf:resource="http://purl.org/dc/dcmitype/StillImage" />
        <dc:title></dc:title>
      </cc:Work>
    </rdf:RDF>
  </metadata>
  <g
     inkscape:label="Layer 1"
     inkscape:groupmode="layer"
     id="layer1"
     transform="translate(-422.54964,-504.91433)">
    <g
       id="g6575"
       transform="matrix(1.25,0,0,-1.25,426.19464,505.22683)">
      <path
         d="m 0,0 26.66,0 c 1.467,0 2.666,-1.2 2.666,-2.666 l 0,-42.656 c 0,-1.467 -1.199,-2.666 -2.666,-2.666 l -26.66,0 c -1.466,0 -2.666,1.199 -2.666,2.666 l 0,42.656 C -2.666,-1.2 -1.466,0 0,0"
         style="fill:#ffffff;fill-opacity:1;fill-rule:nonzero;stroke:none"
         id="path6577"
         inkscape:connector-curvature="0" />
    </g>
    <g
       id="g6579"
       transform="matrix(1.25,0,0,-1.25,426.19464,505.22683)">
      <path
         d="m 0,0 26.66,0 c 1.467,0 2.666,-1.2 2.666,-2.666 l 0,-42.656 c 0,-1.467 -1.199,-2.666 -2.666,-2.666 l -26.66,0 c -1.466,0 -2.666,1.199 -2.666,2.666 l 0,42.656 C -2.666,-1.2 -1.466,0 0,0 z"
         style="fill:none;stroke:#231f20;stroke-width:0.5;stroke-linecap:butt;stroke-linejoin:miter;stroke-miterlimit:4;stroke-opacity:1;stroke-dasharray:none"
         id="path6581"
         inkscape:connector-curvature="0" />
    </g>
    <g
       id="g6583"
       transform="matrix(1.25,0,0,-1.25,426.3729,506.09358)">
      <path
         d="m 0,0 26.375,0 c 1.164,0 2.115,-0.953 2.115,-2.118 l 0,-42.366 c 0,-1.164 -0.951,-2.117 -2.115,-2.117 l -26.375,0 c -1.163,0 -2.115,0.953 -2.115,2.117 l 0,42.366 C -2.115,-0.953 -1.163,0 0,0"
         style="fill:#231f20;fill-opacity:1;fill-rule:evenodd;stroke:none"
         id="path6585"
         inkscape:connector-curvature="0" />
    </g>
    <g
       id="g6587"
       transform="matrix(1.25,0,0,-1.25,426.38264,507.42658)">
      <path
         d="m 0,0 26.359,0 c 0.581,0 1.057,-0.476 1.057,-1.059 l 0,-42.351 c 0,-0.583 -0.476,-1.058 -1.057,-1.058 l -26.359,0 c -0.581,0 -1.057,0.475 -1.057,1.058 l 0,42.351 C -1.057,-0.476 -0.581,0 0,0"
         style="fill:#ffffff;fill-opacity:1;fill-rule:evenodd;stroke:none"
         id="path6589"
         inkscape:connector-curvature="0" />
    </g>
    <path
       d="m 429.49177,523.7152 26.66,0 0,1.05 -26.66,0 0,-1.05 z"
       style="fill:#231f20;fill-opacity:1;fill-rule:evenodd;stroke:none"
       id="path6591"
       inkscape:connector-curvature="0" />
    <g
       id="g6593"
       transform="matrix(1.25,0,0,-1.25,444.41452,549.5182)">
      <path
         d="m 0,0 0.016,-3.142 -2.619,0 0,3.158 c 0,1.144 -0.377,2.281 -1.073,3.192 -0.628,0.825 -1.526,1.465 -2.535,1.726 L -7.332,5.225 -7.273,3.608 C -7.269,3.551 -7.27,3.504 -7.289,3.449 -7.363,3.215 -7.564,3.048 -7.82,3.066 -7.961,3.077 -8.084,3.138 -8.176,3.245 L -12.133,7.871 -6.4,9.893 C -6.3,9.93 -6.198,9.938 -6.095,9.908 -5.891,9.851 -5.737,9.68 -5.706,9.469 -5.684,9.327 -5.726,9.247 -5.774,9.122 L -6.72,7.64 -5.556,7.334 C -3.978,6.919 -2.567,5.966 -1.577,4.672 -0.91,3.8 -0.397,2.762 -0.178,1.68 -0.067,1.128 -0.033,0.56 0,0"
         style="fill:#231f20;fill-opacity:1;fill-rule:evenodd;stroke:none"
         id="path6595"
         inkscape:connector-curvature="0" />
    </g>
    <g
       id="g6597"
       transform="matrix(1.25,0,0,-1.25,438.75327,520.65595)">
      <path
         d="m 0,0 -0.39,-0.935 -0.741,0 1.658,4 0.687,0 1.654,-4 -0.741,0 L 1.738,0 0,0 z"
         style="fill:#231f20;fill-opacity:1;fill-rule:evenodd;stroke:none"
         id="path6599"
         inkscape:connector-curvature="0" />
    </g>
    <g
       id="g6601"
       transform="matrix(1.25,0,0,-1.25,432.74614,513.41832)">
      <path
         d="m 0,0 c -0.224,-0.332 -0.476,-0.565 -0.868,-0.699 -0.498,-0.173 -1.075,-0.109 -1.514,0.19 -0.415,0.282 -0.631,0.701 -0.736,1.177 -0.089,0.396 -0.087,0.82 -0.005,1.217 0.074,0.364 0.237,0.707 0.506,0.967 0.459,0.441 1.139,0.594 1.74,0.381 0.407,-0.144 0.655,-0.39 0.881,-0.739 L -0.598,2.176 C -0.724,2.372 -0.884,2.521 -1.106,2.604 -1.498,2.75 -1.985,2.628 -2.228,2.28 -2.407,2.026 -2.479,1.691 -2.495,1.385 -2.513,1.079 -2.462,0.755 -2.346,0.47 c 0.17,-0.42 0.626,-0.663 1.072,-0.587 0.289,0.048 0.491,0.2 0.658,0.429 L -0.011,0.004 0,0 z"
         style="fill:#231f20;fill-opacity:1;fill-rule:evenodd;stroke:none"
         id="path6603"
         inkscape:connector-curvature="0" />
    </g>
    <g
       id="g6605"
       transform="matrix(1.25,0,0,-1.25,456.87327,514.32657)">
      <path
         d="m 0,0 -0.752,0 -0.681,1.56 -1.087,0 0,-1.56 -0.667,0 0,3.999 1.902,0 c 0.406,0 0.795,-0.206 1.019,-0.544 C -0.004,3.064 0.007,2.54 -0.243,2.141 -0.371,1.937 -0.533,1.801 -0.737,1.684 L 0,0 z"
         style="fill:#231f20;fill-opacity:1;fill-rule:evenodd;stroke:none"
         id="path6607"
         inkscape:connector-curvature="0" />
    </g>
    <g
       id="g6609"
       transform="matrix(1.25,0,0,-1.25,446.49327,520.15295)">
      <path
         d="m 0,0 0,2.662 0.687,0 0,-3.999 -0.621,0 -1.881,2.786 0,-2.786 -0.685,0 0,3.999 0.685,0 L 0,0 z"
         style="fill:#231f20;fill-opacity:1;fill-rule:evenodd;stroke:none"
         id="path6611"
         inkscape:connector-curvature="0" />
    </g>
    <g
       id="g6613"
       transform="matrix(1.25,0,0,-1.25,441.60452,512.65483)">
      <path
         d="m 0,0 0,2.662 0.687,0 0,-3.999 -0.621,0 -1.881,2.786 0,-2.786 -0.685,0 0,3.999 0.685,0 L 0,0 z"
         style="fill:#231f20;fill-opacity:1;fill-rule:evenodd;stroke:none"
         id="path6615"
         inkscape:connector-curvature="0" />
    </g>
    <g
       id="g6617"
       transform="matrix(1.25,0,0,-1.25,448.64202,521.82407)">
      <path
         d="m 0,0 0,3.999 2.874,0 0,-0.69 -2.188,0 0,-0.81 1.188,0 0,-0.689 -1.188,0 0,-1.125 2.248,0 L 2.934,0 0,0 z"
         style="fill:#231f20;fill-opacity:1;fill-rule:evenodd;stroke:none"
         id="path6619"
         inkscape:connector-curvature="0" />
    </g>
    <g
       id="g6621"
       transform="matrix(1.25,0,0,-1.25,433.33089,521.82407)">
      <path
         d="m 0,0 0,3.999 0.686,0 0,-3.314 2.25,0 L 2.936,0 0,0 z"
         style="fill:#231f20;fill-opacity:1;fill-rule:evenodd;stroke:none"
         id="path6623"
         inkscape:connector-curvature="0" />
    </g>
    <g
       id="g6625"
       transform="matrix(1.25,0,0,-1.25,433.78252,514.32657)">
      <path
         d="m 0,0 0,3.999 2.872,0 0,-0.69 -2.188,0 0,-0.809 1.189,0 0,-0.689 -1.189,0 0,-1.125 2.25,0 L 2.934,0 0,0 z"
         style="fill:#231f20;fill-opacity:1;fill-rule:evenodd;stroke:none"
         id="path6627"
         inkscape:connector-curvature="0" />
    </g>
    <g
       id="g6629"
       transform="matrix(1.25,0,0,-1.25,448.19077,514.32657)">
      <path
         d="m 0,0 0,3.999 2.874,0 0,-0.69 -2.19,0 0,-0.809 1.19,0 0,-0.689 -1.19,0 0,-1.125 2.249,0 L 2.933,0 0,0 z"
         style="fill:#231f20;fill-opacity:1;fill-rule:evenodd;stroke:none"
         id="path6631"
         inkscape:connector-curvature="0" />
    </g>
    <g
       id="g6633"
       transform="matrix(1.25,0,0,-1.25,445.75452,510.19082)">
      <path
         d="m 0,0 0,-3.309 -0.685,0 0,3.309 -1.124,0 0,0.69 2.935,0 L 1.126,0 0,0 z"
         style="fill:#231f20;fill-opacity:1;fill-rule:evenodd;stroke:none"
         id="path6635"
         inkscape:connector-curvature="0" />
    </g>
    <g
       id="g6637"
       transform="matrix(1.25,0,0,-1.25,455.27327,511.51345)">
      <path
         d="m 0,0 c 0.179,0 0.345,0.09 0.444,0.239 0.113,0.17 0.114,0.413 0,0.582 C 0.343,0.97 0.175,1.06 -0.005,1.06 L -1.24,1.058 -1.24,0 0,0 z"
         style="fill:#ffffff;fill-opacity:1;fill-rule:evenodd;stroke:none"
         id="path6639"
         inkscape:connector-curvature="0" />
    </g>
    <g
       id="g6641"
       transform="matrix(1.25,0,0,-1.25,440.57202,519.79282)">
      <path
         d="M 0,0 -0.584,1.406 -1.167,0 0,0 z"
         style="fill:#ffffff;fill-opacity:1;fill-rule:evenodd;stroke:none"
         id="path6643"
         inkscape:connector-curvature="0" />
    </g>
    <g
       id="g6645"
       transform="matrix(1.25,0,0,-1.25,441.18077,530.78045)">
      <path
         d="m 0,0 -0.015,3.141 2.619,0 0,-3.157 c 0,-1.145 0.377,-2.281 1.072,-3.192 0.629,-0.825 1.527,-1.465 2.535,-1.726 l 1.121,-0.291 -0.059,1.617 c -0.002,0.057 -0.002,0.103 0.016,0.159 0.075,0.234 0.276,0.401 0.532,0.383 0.14,-0.011 0.264,-0.072 0.355,-0.179 L 12.133,-7.871 6.401,-9.894 C 6.3,-9.93 6.199,-9.938 6.096,-9.909 5.891,-9.851 5.738,-9.68 5.707,-9.47 c -0.022,0.143 0.02,0.223 0.068,0.348 L 6.72,-7.64 5.557,-7.335 C 3.979,-6.92 2.568,-5.966 1.578,-4.672 0.911,-3.801 0.398,-2.762 0.178,-1.68 0.068,-1.128 0.034,-0.56 0,0"
         style="fill:#231f20;fill-opacity:1;fill-rule:evenodd;stroke:none"
         id="path6647"
         inkscape:connector-curvature="0" />
    </g>
    <g
       id="g6649"
       transform="matrix(1.25,0,0,-1.25,451.59577,556.02457)">
      <path
         d="M 0,0 -0.883,0 -2.033,-1.627 -3.197,0 l -0.884,0 1.683,-2.37 0,-1.626 0.716,0 0,1.626 L 0,0 z m -2.851,-3.996 0,0.616 -2.272,0 0,3.38 -0.715,0 0,-3.996 2.987,0 z m -3.89,0 0,3.996 -0.686,0 0,-2.637 -1.838,2.637 -0.701,0 0,-3.996 0.701,0 0,2.748 1.907,-2.748 0.617,0 z m -4.717,2.004 c 0,-0.616 -0.181,-1.36 -0.939,-1.36 -0.603,0 -0.968,0.505 -0.968,1.36 0,0.842 0.365,1.348 0.968,1.348 0.603,0 0.939,-0.506 0.939,-1.348 m 0.716,0.015 c 0,1.219 -0.674,2.047 -1.655,2.047 -1.052,0 -1.696,-0.785 -1.696,-2.062 0,-1.009 0.518,-2.077 1.696,-2.077 1.01,0 1.655,0.843 1.655,2.092"
         style="fill:#231f20;fill-opacity:1;fill-rule:evenodd;stroke:none"
         id="path6651"
         inkscape:connector-curvature="0" />
    </g>
  </g>
</svg>
