<?xml version="1.0" encoding="UTF-8" standalone="no"?>
<!-- Created with Inkscape (http://www.inkscape.org/) -->

<svg
   xmlns:dc="http://purl.org/dc/elements/1.1/"
   xmlns:cc="http://creativecommons.org/ns#"
   xmlns:rdf="http://www.w3.org/1999/02/22-rdf-syntax-ns#"
   xmlns:svg="http://www.w3.org/2000/svg"
   xmlns="http://www.w3.org/2000/svg"
   xmlns:sodipodi="http://sodipodi.sourceforge.net/DTD/sodipodi-0.dtd"
   xmlns:inkscape="http://www.inkscape.org/namespaces/inkscape"
   width="81.623749"
   height="101.875"
   id="svg13904"
   version="1.1"
   inkscape:version="0.48.1 "
   sodipodi:docname="New document 76">
  <defs
     id="defs13906">
    <clipPath
       clipPathUnits="userSpaceOnUse"
       id="clipPath13211">
      <path
         inkscape:connector-curvature="0"
         d="m 27.125,53.224 513.264,0 0,520.025 -513.264,0 0,-520.025 z"
         id="path13213" />
    </clipPath>
  </defs>
  <sodipodi:namedview
     id="base"
     pagecolor="#ffffff"
     bordercolor="#666666"
     borderopacity="1.0"
     inkscape:pageopacity="0.0"
     inkscape:pageshadow="2"
     inkscape:zoom="0.35"
     inkscape:cx="147.24045"
     inkscape:cy="-17.633908"
     inkscape:document-units="px"
     inkscape:current-layer="layer1"
     showgrid="false"
     fit-margin-top="0"
     fit-margin-left="0"
     fit-margin-right="0"
     fit-margin-bottom="0"
     inkscape:window-width="469"
     inkscape:window-height="425"
     inkscape:window-x="25"
     inkscape:window-y="25"
     inkscape:window-maximized="0" />
  <metadata
     id="metadata13909">
    <rdf:RDF>
      <cc:Work
         rdf:about="">
        <dc:format>image/svg+xml</dc:format>
        <dc:type
           rdf:resource="http://purl.org/dc/dcmitype/StillImage" />
        <dc:title></dc:title>
      </cc:Work>
    </rdf:RDF>
  </metadata>
  <g
     inkscape:label="Layer 1"
     inkscape:groupmode="layer"
     id="layer1"
     transform="translate(-227.75955,-412.85328)">
    <g
       transform="matrix(1.25,0,0,-1.25,-88.997821,1101.7914)"
       id="g13207">
      <g
         id="g13209"
         clip-path="url(#clipPath13211)">
        <g
           id="g13215"
           transform="translate(257.7039,550.9005)">
          <path
             inkscape:connector-curvature="0"
             d="m 0,0 56.7,0 c 2.231,0 4.051,-1.819 4.051,-4.05 l 0,-72.9 c 0,-2.231 -1.82,-4.05 -4.051,-4.05 L 0,-81 c -2.23,0 -4.048,1.819 -4.048,4.05 l 0,72.9 C -4.048,-1.819 -2.23,0 0,0"
             style="fill:#ffffff;fill-opacity:1;fill-rule:nonzero;stroke:none"
             id="path13217" />
        </g>
        <g
           id="g13219"
           transform="translate(257.7039,550.9005)">
          <path
             inkscape:connector-curvature="0"
             d="m 0,0 56.7,0 c 2.231,0 4.051,-1.819 4.051,-4.05 l 0,-72.9 c 0,-2.231 -1.82,-4.05 -4.051,-4.05 L 0,-81 c -2.23,0 -4.048,1.819 -4.048,4.05 l 0,72.9 C -4.048,-1.819 -2.23,0 0,0 z"
             style="fill:none;stroke:#231f20;stroke-width:0.5;stroke-linecap:butt;stroke-linejoin:miter;stroke-miterlimit:4;stroke-opacity:1;stroke-dasharray:none"
             id="path13221" />
        </g>
        <g
           id="g13223"
           transform="translate(257.7189,549.7755)">
          <path
             inkscape:connector-curvature="0"
             d="m 0,0 21.827,0 31.212,0 c 1.589,0 4.089,0.442 5.449,-0.626 1.371,-1.078 1.123,-2.818 1.123,-4.358 l 0,-25.818 0,-28.986 0,-11.972 0,-3.205 c 0,-0.524 0.041,-1.079 -0.092,-1.589 -0.558,-2.141 -2.558,-2.196 -4.351,-2.196 l -11.362,0 -33.743,0 -9.53,0 c -1.811,0 -3.471,0.958 -3.471,2.983 l 0,18.878 0,29.331 0,23.6 c 0,0.576 -0.053,1.201 0.091,1.762 C -2.513,-0.91 -1.321,-0.006 0,0"
             style="fill:#231f20;fill-opacity:1;fill-rule:evenodd;stroke:none"
             id="path13225" />
        </g>
        <g
           id="g13227"
           transform="translate(257.7399,548.2008)">
          <path
             inkscape:connector-curvature="0"
             d="m 0,0 21.886,0 31.194,0 3.194,0 c 0.451,0 0.875,-0.005 1.244,-0.31 0.812,-0.667 0.496,-2.288 0.496,-3.188 l 0,-25.978 0,-28.978 0,-11.871 0,-3.125 c 0,-0.379 0.054,-0.83 -0.059,-1.197 -0.389,-1.249 -1.969,-0.953 -2.963,-0.953 l -11.572,0 -33.75,0 -9.247,0 c -0.962,0 -1.808,0.35 -1.808,1.462 l 0,19.356 0,29.401 0,23.149 c 0,0.977 0.056,2.25 1.385,2.232"
             style="fill:#ffffff;fill-opacity:1;fill-rule:evenodd;stroke:none"
             id="path13229" />
        </g>
        <g
           id="g13231"
           transform="translate(311.0289,539.7706)">
          <path
             inkscape:connector-curvature="0"
             d="m 0,0 c 0,-0.454 -0.265,-0.909 -0.682,-1.136 -0.265,-0.152 -0.455,-0.19 -0.984,-0.19 l -2.047,0 0,2.652 2.047,0 c 0.568,0 0.719,-0.038 0.984,-0.19 C -0.265,0.909 0,0.455 0,0 M 1.93,-7.764 0.037,-2.727 C 1.022,-2.272 1.703,-1.136 1.703,0 1.703,1.098 1.022,2.235 0.076,2.689 -0.455,2.954 -1.023,3.03 -1.855,3.03 l -3.561,0 0,-10.794 1.703,0 0,4.696 2.047,0 1.742,-4.696 1.854,0 z m -9.127,0 0,1.743 -4.998,0 0,2.953 3.142,0 0,1.742 -3.142,0 0,2.652 4.658,0 0,1.704 -6.361,0 0,-10.794 6.701,0 z m -8.293,10.794 -1.742,0 -0.832,-5.681 -1.403,5.681 -1.666,0 -1.363,-5.681 -0.834,5.681 -1.742,0 1.592,-10.794 1.515,0 1.666,6.931 1.703,-6.931 1.516,0 1.59,10.794 z m -12.686,-5.416 c 0,-0.833 -0.19,-1.894 -0.418,-2.462 -0.378,-0.946 -0.87,-1.363 -1.666,-1.363 -0.681,0 -1.137,0.265 -1.477,0.834 -0.417,0.681 -0.644,1.855 -0.644,2.991 0,0.909 0.152,1.893 0.417,2.538 0.379,0.946 0.909,1.363 1.742,1.325 0.644,-0.038 1.061,-0.265 1.401,-0.833 0.416,-0.72 0.645,-1.818 0.645,-3.03 m 1.703,0 c 0,1.364 -0.266,2.727 -0.719,3.674 -0.681,1.326 -1.629,1.931 -2.992,1.931 -1.25,0 -2.121,-0.379 -2.765,-1.212 -0.719,-1.022 -1.173,-2.613 -1.173,-4.393 0,-1.287 0.303,-2.727 0.756,-3.635 0.645,-1.326 1.592,-1.938 3.106,-1.938 1.137,0 2.008,0.384 2.613,1.217 0.758,0.948 1.174,2.652 1.174,4.356 m -9.013,-5.378 0,1.591 -4.999,0 0,9.203 -1.705,0 0,-10.794 6.704,0 z m -8.483,3.106 c 0,4.241 -5.074,2.916 -5.227,4.923 -0.076,0.985 0.871,1.288 1.667,1.25 1.212,-0.038 1.59,-0.947 1.59,-0.947 l 1.516,0.455 c -0.531,1.325 -1.554,2.196 -3.068,2.196 -1.931,0 -3.371,-0.795 -3.371,-2.916 0,-1.78 1.44,-2.424 2.084,-2.689 1.401,-0.568 3.067,-0.795 3.067,-2.234 0,-0.909 -0.682,-1.591 -1.666,-1.591 -1.023,0 -1.856,0.568 -2.311,1.591 l -1.628,-0.606 c 0.719,-1.629 2.083,-2.733 3.939,-2.733 0.908,0 1.742,0.309 2.347,0.839 0.682,0.606 1.061,1.477 1.061,2.462"
             style="fill:#231f20;fill-opacity:1;fill-rule:evenodd;stroke:none"
             id="path13233" />
        </g>
        <g
           id="g13235"
           transform="translate(313.0969,516.2032)">
          <path
             inkscape:connector-curvature="0"
             d="m 0,0 -1.628,0.606 c -0.416,-0.871 -0.946,-1.249 -1.666,-1.249 -0.758,0 -1.25,0.264 -1.629,0.833 -0.416,0.681 -0.682,1.855 -0.682,3.03 0,0.908 0.152,1.855 0.418,2.499 0.377,0.946 0.947,1.325 1.816,1.325 0.834,0 1.174,-0.227 1.782,-1.136 L 0,6.59 C -0.72,8.105 -1.742,8.787 -3.371,8.787 -4.582,8.787 -5.49,8.37 -6.136,7.575 -6.892,6.628 -7.347,4.924 -7.347,3.22 c 0,-1.364 0.303,-2.727 0.795,-3.674 0.681,-1.326 1.705,-1.938 3.297,-1.938 1.55,0 2.611,0.801 3.255,2.392 m -9.468,8.598 -1.742,0 0,-10.794 1.742,0 0,10.794 z m -3.145,-1.704 0,1.704 -6.705,0 0,-10.794 1.705,0 0,4.696 3.145,0 0,1.742 -3.145,0 0,2.652 5,0 z m -8.107,0 0,1.704 -6.703,0 0,-10.794 1.705,0 0,4.696 3.144,0 0,1.742 -3.144,0 0,2.652 4.998,0 z m -11.628,-4.318 -2.158,0 1.098,3.03 1.06,-3.03 z m 3.485,-4.772 -3.711,10.794 -1.704,0 -3.712,-10.794 1.818,0 1.061,3.029 3.369,0 1.061,-3.029 1.818,0 z m -11.703,7.763 c 0,-0.454 -0.265,-0.909 -0.682,-1.135 -0.266,-0.152 -0.455,-0.19 -0.984,-0.19 l -2.046,0 0,2.652 2.046,0 c 0.568,0 0.718,-0.039 0.984,-0.19 0.417,-0.227 0.682,-0.682 0.682,-1.137 m 1.931,-7.763 -1.894,5.037 c 0.984,0.454 1.667,1.591 1.667,2.726 0,1.098 -0.683,2.235 -1.629,2.689 -0.53,0.265 -1.098,0.342 -1.931,0.342 l -3.559,0 0,-10.794 1.703,0 0,4.696 2.046,0 1.741,-4.696 1.856,0 z m -8.75,9.278 0,1.516 -6.665,0 0,-1.516 2.462,0 0,-9.278 1.704,0 0,9.278 2.499,0 z"
             style="fill:#231f20;fill-opacity:1;fill-rule:evenodd;stroke:none"
             id="path13237" />
        </g>
        <g
           id="g13239"
           transform="translate(301.9389,503.7711)">
          <path
             inkscape:connector-curvature="0"
             d="m 0,0 c 0,-0.455 -0.265,-0.947 -0.642,-1.136 -0.303,-0.153 -0.492,-0.19 -1.024,-0.19 l -2.234,0 0,2.652 2.234,0 c 0.532,0 0.721,-0.038 1.024,-0.19 C -0.265,0.909 0,0.455 0,0 m 1.742,0 c 0,1.098 -0.718,2.234 -1.666,2.689 -0.529,0.265 -1.097,0.341 -1.968,0.341 l -3.711,0 0,-10.794 1.703,0 0,4.696 2.008,0 c 0.832,0 1.476,0.152 1.968,0.379 0.948,0.416 1.666,1.553 1.666,2.689 m -9.181,-7.764 0,1.742 -4.998,0 0,2.954 3.144,0 0,1.742 -3.144,0 0,2.652 4.658,0 0,1.704 -6.361,0 0,-10.794 6.701,0 z m -8.535,0 0,1.742 -5.001,0 0,2.954 3.145,0 0,1.742 -3.145,0 0,2.652 4.659,0 0,1.704 -6.363,0 0,-10.794 6.705,0 z m -8.577,0 -3.56,6.59 3.333,4.204 -2.197,0 -3.408,-4.279 0,4.279 -1.703,0 0,-10.794 1.703,0 0,3.711 1.137,1.402 2.726,-5.113 1.969,0 z"
             style="fill:#231f20;fill-opacity:1;fill-rule:evenodd;stroke:none"
             id="path13241" />
        </g>
        <g
           id="g13243"
           transform="translate(306.5559,487.2857)">
          <path
             inkscape:connector-curvature="0"
             d="m 0,0 0,1.515 -6.664,0 0,-1.515 2.463,0 0,-9.279 1.703,0 0,9.279 L 0,0 z m -8.58,-9.279 0,10.794 -1.703,0 0,-4.356 -3.939,0 0,4.356 -1.703,0 0,-10.794 1.703,0 0,4.696 3.939,0 0,-4.696 1.703,0 z m -10.019,3.219 0,2.159 -3.674,0 0,-1.704 1.969,0 0,-0.455 c 0,-0.984 -0.795,-1.666 -1.894,-1.666 -0.644,0 -1.136,0.265 -1.477,0.871 -0.341,0.681 -0.53,1.818 -0.53,2.954 0,0.909 0.151,1.893 0.416,2.538 0.379,0.946 0.947,1.325 1.818,1.325 0.833,0 1.288,-0.341 1.743,-1.288 l 1.629,0.645 c -0.721,1.704 -1.705,2.385 -3.372,2.385 -1.212,0 -2.121,-0.416 -2.765,-1.212 -0.719,-0.947 -1.211,-2.651 -1.211,-4.393 0,-1.325 0.265,-2.651 0.718,-3.598 0.645,-1.363 1.592,-1.976 3.221,-1.976 1.969,0 3.409,1.446 3.409,3.415 m -9.983,7.575 -1.742,0 0,-10.794 1.742,0 0,10.794 z m -5.78,-3.03 c 0,-0.455 -0.265,-0.909 -0.681,-1.136 -0.266,-0.152 -0.455,-0.19 -0.986,-0.19 l -2.044,0 0,2.652 2.044,0 c 0.569,0 0.72,-0.038 0.986,-0.19 0.416,-0.227 0.681,-0.681 0.681,-1.136 m 1.931,-7.764 -1.893,5.037 c 0.984,0.454 1.667,1.591 1.667,2.727 0,1.098 -0.683,2.235 -1.63,2.689 -0.529,0.265 -1.098,0.341 -1.931,0.341 l -3.559,0 0,-10.794 1.704,0 0,4.696 2.044,0 1.742,-4.696 1.856,0 z"
             style="fill:#231f20;fill-opacity:1;fill-rule:evenodd;stroke:none"
             id="path13245" />
        </g>
      </g>
    </g>
  </g>
</svg>
