<?xml version="1.0" encoding="UTF-8" standalone="no"?>
<!-- Created with Inkscape (http://www.inkscape.org/) -->

<svg
   xmlns:dc="http://purl.org/dc/elements/1.1/"
   xmlns:cc="http://creativecommons.org/ns#"
   xmlns:rdf="http://www.w3.org/1999/02/22-rdf-syntax-ns#"
   xmlns:svg="http://www.w3.org/2000/svg"
   xmlns="http://www.w3.org/2000/svg"
   xmlns:sodipodi="http://sodipodi.sourceforge.net/DTD/sodipodi-0.dtd"
   xmlns:inkscape="http://www.inkscape.org/namespaces/inkscape"
   width="81.623749"
   height="101.87375"
   id="svg13987"
   version="1.1"
   inkscape:version="0.48.1 "
   sodipodi:docname="New document 78">
  <defs
     id="defs13989">
    <clipPath
       clipPathUnits="userSpaceOnUse"
       id="clipPath13255">
      <path
         inkscape:connector-curvature="0"
         d="m 27.125,53.224 513.264,0 0,520.025 -513.264,0 0,-520.025 z"
         id="path13257" />
    </clipPath>
  </defs>
  <sodipodi:namedview
     id="base"
     pagecolor="#ffffff"
     bordercolor="#666666"
     borderopacity="1.0"
     inkscape:pageopacity="0.0"
     inkscape:pageshadow="2"
     inkscape:zoom="0.35"
     inkscape:cx="155.81187"
     inkscape:cy="90.936892"
     inkscape:document-units="px"
     inkscape:current-layer="layer1"
     showgrid="false"
     fit-margin-top="0"
     fit-margin-left="0"
     fit-margin-right="0"
     fit-margin-bottom="0"
     inkscape:window-width="469"
     inkscape:window-height="425"
     inkscape:window-x="75"
     inkscape:window-y="75"
     inkscape:window-maximized="0" />
  <metadata
     id="metadata13992">
    <rdf:RDF>
      <cc:Work
         rdf:about="">
        <dc:format>image/svg+xml</dc:format>
        <dc:type
           rdf:resource="http://purl.org/dc/dcmitype/StillImage" />
        <dc:title></dc:title>
      </cc:Work>
    </rdf:RDF>
  </metadata>
  <g
     inkscape:label="Layer 1"
     inkscape:groupmode="layer"
     id="layer1"
     transform="translate(-219.18812,-521.42533)">
    <g
       id="g13251"
       transform="matrix(1.25,0,0,-1.25,-236.34175,1210.3622)">
      <g
         id="g13253"
         clip-path="url(#clipPath13255)">
        <g
           id="g13259"
           transform="translate(368.7229,550.8995)">
          <path
             d="m 0,0 56.701,0 c 2.23,0 4.049,-1.819 4.049,-4.05 l 0,-72.899 c 0,-2.231 -1.819,-4.05 -4.049,-4.05 l -56.701,0 c -2.23,0 -4.049,1.819 -4.049,4.05 l 0,72.899 C -4.049,-1.819 -2.23,0 0,0"
             style="fill:#ffffff;fill-opacity:1;fill-rule:nonzero;stroke:none"
             id="path13261"
             inkscape:connector-curvature="0" />
        </g>
        <g
           id="g13263"
           transform="translate(368.7229,550.8995)">
          <path
             d="m 0,0 56.701,0 c 2.23,0 4.049,-1.819 4.049,-4.05 l 0,-72.899 c 0,-2.231 -1.819,-4.05 -4.049,-4.05 l -56.701,0 c -2.23,0 -4.049,1.819 -4.049,4.05 l 0,72.899 C -4.049,-1.819 -2.23,0 0,0 z"
             style="fill:none;stroke:#231f20;stroke-width:0.5;stroke-linecap:butt;stroke-linejoin:miter;stroke-miterlimit:4;stroke-opacity:1;stroke-dasharray:none"
             id="path13265"
             inkscape:connector-curvature="0" />
        </g>
        <g
           id="g13267"
           transform="translate(368.7389,549.7745)">
          <path
             d="m 0,0 6.541,0 15.322,0 17.663,0 13.551,0 3.221,0 c 1.026,0 1.993,-0.249 2.665,-1.096 0.547,-0.69 0.646,-1.469 0.646,-2.308 l 0,-2.738 0,-11.308 0,-16.27 0,-17.851 0,-10.651 0,-10.869 c 0,-1.649 0.366,-3.807 -1.066,-4.988 -0.738,-0.609 -1.586,-0.67 -2.486,-0.67 l -3.609,0 -14.014,0 -17.705,0 -14.951,0 -4.426,0 c -0.638,0 -1.364,-0.077 -1.992,0.068 -1.356,0.313 -2.3,1.522 -2.3,2.909 l 0,1.736 0,9.837 0,15.509 0,12.399 0,16.709 0,12.238 0,3.386 c 0,0.528 -0.046,1.101 0.059,1.621 C -2.601,-0.983 -1.375,-0.005 0,0"
             style="fill:#231f20;fill-opacity:1;fill-rule:evenodd;stroke:none"
             id="path13269"
             inkscape:connector-curvature="0" />
        </g>
        <g
           id="g13271"
           transform="translate(368.7589,548.1998)">
          <path
             d="m 0,0 6.547,0 15.339,0 17.664,0 13.53,0 3.193,0 c 0.762,0 1.534,-0.212 1.713,-1.079 0.094,-0.448 0.028,-0.967 0.028,-1.419 l 0,-3.475 0,-12.37 0,-16.773 0,-12.389 0,-15.418 0,-9.66 0,-1.613 c 0,-0.862 -0.668,-1.403 -1.492,-1.403 l -7.943,0 -15.96,0 -17.509,0 -12.599,0 -2.435,0 c -0.825,0 -1.461,0.576 -1.461,1.418 l 0,5.694 0,13.077 0,11.674 0,17.683 0,14.906 0,8.742 0,1.001 C -1.385,-0.629 -0.786,0.003 0,0"
             style="fill:#ffffff;fill-opacity:1;fill-rule:evenodd;stroke:none"
             id="path13273"
             inkscape:connector-curvature="0" />
        </g>
        <g
           id="g13275"
           transform="translate(422.4129,535.0138)">
          <path
             d="m 0,0 c 0,4.242 -5.075,2.916 -5.227,4.924 -0.076,0.984 0.87,1.287 1.666,1.249 1.211,-0.037 1.592,-0.946 1.592,-0.946 l 1.515,0.454 c -0.53,1.326 -1.554,2.196 -3.07,2.196 -1.929,0 -3.369,-0.795 -3.369,-2.916 0,-1.779 1.44,-2.423 2.082,-2.689 1.402,-0.568 3.069,-0.795 3.069,-2.234 0,-0.909 -0.683,-1.591 -1.667,-1.591 -1.023,0 -1.857,0.569 -2.31,1.591 l -1.628,-0.606 c 0.72,-1.628 2.081,-2.733 3.938,-2.733 0.909,0 1.742,0.309 2.348,0.839 C -0.379,-1.856 0,-0.984 0,0 m -8.008,-3.105 -3.558,6.589 3.332,4.204 -2.198,0 -3.408,-4.28 0,4.28 -1.703,0 0,-10.793 1.703,0 0,3.711 1.136,1.401 2.725,-5.112 1.971,0 z m -9.484,2.196 -1.628,0.606 c -0.417,-0.871 -0.948,-1.25 -1.667,-1.25 -0.758,0 -1.25,0.265 -1.627,0.833 -0.417,0.682 -0.683,1.856 -0.683,3.03 0,0.909 0.152,1.856 0.417,2.5 0.378,0.947 0.946,1.326 1.818,1.326 0.833,0 1.174,-0.228 1.778,-1.137 l 1.592,0.682 c -0.719,1.515 -1.742,2.196 -3.37,2.196 -1.213,0 -2.122,-0.416 -2.765,-1.211 -0.758,-0.947 -1.211,-2.651 -1.211,-4.356 0,-1.363 0.302,-2.727 0.794,-3.673 0.683,-1.326 1.705,-1.938 3.294,-1.938 1.555,0 2.614,0.801 3.258,2.392 m -9.257,1.667 0,6.93 -1.704,0 0,-6.93 c 0,-1.402 -0.796,-2.311 -1.97,-2.311 -1.175,0 -1.969,0.909 -1.969,2.311 l 0,6.93 -1.704,0 0,-6.93 c 0,-0.834 0.189,-1.591 0.492,-2.235 0.569,-1.061 1.856,-1.824 3.181,-1.824 1.325,0 2.614,0.763 3.182,1.824 0.301,0.644 0.492,1.401 0.492,2.235 m -10.657,3.9 c 0,-0.454 -0.266,-0.908 -0.683,-1.136 -0.266,-0.151 -0.455,-0.189 -0.984,-0.189 l -2.046,0 0,2.65 2.046,0 c 0.567,0 0.718,-0.037 0.984,-0.189 0.417,-0.227 0.683,-0.681 0.683,-1.136 m 1.929,-7.763 -1.893,5.037 c 0.984,0.454 1.667,1.59 1.667,2.726 0,1.099 -0.683,2.235 -1.628,2.689 -0.531,0.265 -1.099,0.341 -1.933,0.341 l -3.558,0 0,-10.793 1.703,0 0,4.696 2.046,0 1.742,-4.696 1.854,0 z m -8.536,9.278 0,1.515 -6.665,0 0,-1.515 2.461,0 0,-9.278 1.705,0 0,9.278 2.499,0 z"
             style="fill:#231f20;fill-opacity:1;fill-rule:evenodd;stroke:none"
             id="path13277"
             inkscape:connector-curvature="0" />
        </g>
        <g
           id="g13279"
           transform="translate(411.0569,513.9083)">
          <path
             d="m 0,0 0,1.742 -5,0 0,2.954 3.143,0 0,1.742 -3.143,0 0,2.651 4.659,0 0,1.704 -6.364,0 L -6.705,0 0,0 z m -9.187,3.105 c 0,4.242 -5.074,2.916 -5.226,4.924 -0.075,0.985 0.87,1.288 1.667,1.25 1.211,-0.038 1.59,-0.947 1.59,-0.947 l 1.514,0.454 c -0.529,1.326 -1.552,2.197 -3.067,2.197 -1.93,0 -3.37,-0.795 -3.37,-2.916 0,-1.78 1.44,-2.424 2.083,-2.689 1.401,-0.568 3.068,-0.795 3.068,-2.235 0,-0.909 -0.683,-1.591 -1.667,-1.591 -1.023,0 -1.856,0.569 -2.31,1.591 l -1.63,-0.605 c 0.721,-1.629 2.084,-2.734 3.94,-2.734 0.909,0 1.742,0.31 2.348,0.839 0.683,0.607 1.06,1.478 1.06,2.462 m -9.829,0.758 0,6.93 -1.703,0 0,-6.93 c 0,-1.401 -0.796,-2.311 -1.971,-2.311 -1.175,0 -1.969,0.91 -1.969,2.311 l 0,6.93 -1.703,0 0,-6.93 c 0,-0.833 0.189,-1.591 0.492,-2.235 0.568,-1.06 1.855,-1.824 3.18,-1.824 1.325,0 2.614,0.764 3.182,1.824 0.301,0.644 0.492,1.402 0.492,2.235"
             style="fill:#231f20;fill-opacity:1;fill-rule:evenodd;stroke:none"
             id="path13281"
             inkscape:connector-curvature="0" />
        </g>
        <g
           id="g13283"
           transform="translate(417.9159,505.1866)">
          <path
             d="m 0,0 0,1.516 -6.665,0 0,-1.516 2.462,0 0,-9.278 1.704,0 0,9.278 L 0,0 z m -8.552,-9.278 0,10.794 -1.705,0 0,-4.356 -3.937,0 0,4.356 -1.706,0 0,-10.794 1.706,0 0,4.695 3.937,0 0,-4.695 1.705,0 z m -9.991,3.218 0,2.16 -3.674,0 0,-1.704 1.969,0 0,-0.456 c 0,-0.984 -0.795,-1.666 -1.894,-1.666 -0.642,0 -1.135,0.266 -1.476,0.872 -0.341,0.682 -0.532,1.817 -0.532,2.954 0,0.908 0.153,1.893 0.417,2.537 0.38,0.947 0.949,1.325 1.818,1.325 0.834,0 1.289,-0.34 1.742,-1.287 l 1.63,0.644 c -0.721,1.704 -1.705,2.386 -3.372,2.386 -1.211,0 -2.119,-0.417 -2.765,-1.212 -0.719,-0.947 -1.211,-2.651 -1.211,-4.393 0,-1.326 0.265,-2.652 0.719,-3.599 0.645,-1.362 1.591,-1.976 3.22,-1.976 1.968,0 3.409,1.447 3.409,3.415 m -9.954,7.576 -1.742,0 0,-10.793 1.742,0 0,10.793 z m -5.75,-3.03 c 0,-0.455 -0.266,-0.91 -0.683,-1.136 -0.264,-0.152 -0.453,-0.19 -0.984,-0.19 l -2.044,0 0,2.651 2.044,0 c 0.567,0 0.72,-0.038 0.984,-0.189 0.417,-0.227 0.683,-0.682 0.683,-1.136 m 1.931,-7.764 -1.894,5.037 c 0.985,0.454 1.666,1.591 1.666,2.727 0,1.098 -0.681,2.234 -1.628,2.688 -0.53,0.266 -1.099,0.342 -1.932,0.342 l -3.559,0 0,-10.794 1.705,0 0,4.695 2.044,0 1.742,-4.695 1.856,0 z"
             style="fill:#231f20;fill-opacity:1;fill-rule:evenodd;stroke:none"
             id="path13285"
             inkscape:connector-curvature="0" />
        </g>
        <g
           id="g13287"
           transform="translate(415.3119,477.9088)">
          <path
             d="m 0,0 0,1.742 -4.999,0 0,2.953 3.145,0 0,1.742 -3.145,0 0,2.652 4.659,0 0,1.704 -6.362,0 L -6.702,0 0,0 z m -9.241,0 0,10.793 -1.703,0 0,-6.893 -3.939,6.893 -1.704,0 0,-10.793 1.704,0 0,7.309 4.129,-7.309 1.513,0 z m -12.459,4.772 -2.158,0 1.099,3.029 1.059,-3.029 z M -18.214,0 l -3.712,10.793 -1.704,0 L -27.342,0 l 1.818,0 1.06,3.028 3.371,0 1.059,-3.028 1.82,0 z m -9.771,0 0,1.591 -5,0 0,9.202 -1.703,0 0,-10.793 6.703,0 z"
             style="fill:#231f20;fill-opacity:1;fill-rule:evenodd;stroke:none"
             id="path13289"
             inkscape:connector-curvature="0" />
        </g>
      </g>
    </g>
  </g>
</svg>
