<?xml version="1.0" encoding="UTF-8" standalone="no"?>
<!-- Created with Inkscape (http://www.inkscape.org/) -->

<svg
   xmlns:dc="http://purl.org/dc/elements/1.1/"
   xmlns:cc="http://creativecommons.org/ns#"
   xmlns:rdf="http://www.w3.org/1999/02/22-rdf-syntax-ns#"
   xmlns:svg="http://www.w3.org/2000/svg"
   xmlns="http://www.w3.org/2000/svg"
   xmlns:sodipodi="http://sodipodi.sourceforge.net/DTD/sodipodi-0.dtd"
   xmlns:inkscape="http://www.inkscape.org/namespaces/inkscape"
   width="81.624626"
   height="101.87625"
   id="svg14251"
   version="1.1"
   inkscape:version="0.48.1 "
   sodipodi:docname="New document 84">
  <defs
     id="defs14253">
    <clipPath
       clipPathUnits="userSpaceOnUse"
       id="clipPath13059">
      <path
         inkscape:connector-curvature="0"
         d="m 27.125,53.224 513.264,0 0,520.025 -513.264,0 0,-520.025 z"
         id="path13061" />
    </clipPath>
    <clipPath
       clipPathUnits="userSpaceOnUse"
       id="clipPath13047">
      <path
         inkscape:connector-curvature="0"
         d="m 31.368,53.224 504.778,0 0,520.025 -504.778,0 0,-520.025 z"
         id="path13049" />
    </clipPath>
    <clipPath
       clipPathUnits="userSpaceOnUse"
       id="clipPath13035">
      <path
         inkscape:connector-curvature="0"
         d="m 27.125,53.224 513.264,0 0,520.025 -513.264,0 0,-520.025 z"
         id="path13037" />
    </clipPath>
  </defs>
  <sodipodi:namedview
     id="base"
     pagecolor="#ffffff"
     bordercolor="#666666"
     borderopacity="1.0"
     inkscape:pageopacity="0.0"
     inkscape:pageshadow="2"
     inkscape:zoom="0.35"
     inkscape:cx="187.24088"
     inkscape:cy="-3.3475926"
     inkscape:document-units="px"
     inkscape:current-layer="layer1"
     showgrid="false"
     fit-margin-top="0"
     fit-margin-left="0"
     fit-margin-right="0"
     fit-margin-bottom="0"
     inkscape:window-width="469"
     inkscape:window-height="425"
     inkscape:window-x="631"
     inkscape:window-y="186"
     inkscape:window-maximized="0" />
  <metadata
     id="metadata14256">
    <rdf:RDF>
      <cc:Work
         rdf:about="">
        <dc:format>image/svg+xml</dc:format>
        <dc:type
           rdf:resource="http://purl.org/dc/dcmitype/StillImage" />
        <dc:title></dc:title>
      </cc:Work>
    </rdf:RDF>
  </metadata>
  <g
     inkscape:label="Layer 1"
     inkscape:groupmode="layer"
     id="layer1"
     transform="translate(-187.75912,-427.13834)">
    <g
       transform="matrix(1.25,0,0,-1.25,148.54912,982.12909)"
       id="g13031">
      <g
         id="g13033"
         clip-path="url(#clipPath13035)">
        <g
           id="g13039"
           transform="translate(35.6677,362.7416)">
          <path
             inkscape:connector-curvature="0"
             d="m 0,0 56.695,0 c 1.073,0 2.111,0.424 2.87,1.183 0.759,0.758 1.185,1.797 1.185,2.867 l 0,72.898 c 0,1.071 -0.426,2.112 -1.185,2.87 -0.759,0.759 -1.797,1.183 -2.87,1.183 L 0,81.001 c -1.07,0 -2.109,-0.424 -2.867,-1.183 -0.76,-0.758 -1.183,-1.799 -1.183,-2.87 l 0,-72.898 c 0,-1.392 0.73,-2.703 1.904,-3.449 C -1.48,0.174 -0.773,0.076 0,0"
             style="fill:#ffffff;fill-opacity:1;fill-rule:nonzero;stroke:none"
             id="path13041" />
        </g>
      </g>
    </g>
    <g
       transform="matrix(1.25,0,0,-1.25,148.54912,982.12909)"
       id="g13043">
      <g
         id="g13045"
         clip-path="url(#clipPath13047)">
        <g
           id="g13051"
           transform="translate(35.6677,362.7416)">
          <path
             inkscape:connector-curvature="0"
             d="m 0,0 56.695,0 c 1.073,0 2.111,0.424 2.87,1.183 0.759,0.758 1.185,1.797 1.185,2.867 l 0,72.898 c 0,1.071 -0.426,2.112 -1.185,2.87 -0.759,0.759 -1.797,1.183 -2.87,1.183 L 0,81.001 c -1.07,0 -2.109,-0.424 -2.867,-1.183 -0.76,-0.758 -1.183,-1.799 -1.183,-2.87 l 0,-72.898 c 0,-1.392 0.73,-2.703 1.904,-3.449 C -1.48,0.174 -0.773,0.076 0,0 z"
             style="fill:none;stroke:#231f20;stroke-width:0.5;stroke-linecap:butt;stroke-linejoin:miter;stroke-miterlimit:4;stroke-opacity:1;stroke-dasharray:none"
             id="path13053" />
        </g>
      </g>
    </g>
    <g
       transform="matrix(1.25,0,0,-1.25,148.54912,982.12909)"
       id="g13055">
      <g
         id="g13057"
         clip-path="url(#clipPath13059)">
        <g
           id="g13063"
           transform="translate(32.7498,366.7936)">
          <path
             inkscape:connector-curvature="0"
             d="m 0,0 0,72.896 c 0,0.766 0.312,1.525 0.853,2.066 0.542,0.54 1.3,0.853 2.067,0.853 l 56.694,0 c 0.763,0 1.527,-0.313 2.064,-0.853 0.543,-0.541 0.856,-1.3 0.856,-2.066 L 62.534,0 c 0,-0.765 -0.313,-1.524 -0.856,-2.067 -0.537,-0.538 -1.301,-0.851 -2.064,-0.851 l -56.694,0 c -0.767,0 -1.525,0.313 -2.067,0.851 C 0.312,-1.524 0,-0.765 0,0"
             style="fill:#231f20;fill-opacity:1;fill-rule:evenodd;stroke:none"
             id="path13065" />
        </g>
        <g
           id="g13067"
           transform="translate(34.3386,366.7936)">
          <path
             inkscape:connector-curvature="0"
             d="m 0,0 c 0,-0.355 0.136,-0.689 0.389,-0.942 0.251,-0.251 0.585,-0.387 0.94,-0.387 l 56.696,0 c 0.356,0 0.691,0.136 0.945,0.387 0.251,0.253 0.386,0.587 0.386,0.942 l 0,72.895 c 0,0.357 -0.135,0.691 -0.386,0.943 -0.254,0.252 -0.589,0.388 -0.945,0.388 l -56.696,0 C 0.974,74.226 0.64,74.09 0.389,73.838 0.136,73.586 0,73.252 0,72.895 L 0,0 z"
             style="fill:#ffffff;fill-opacity:1;fill-rule:evenodd;stroke:none"
             id="path13069" />
        </g>
        <g
           id="g13071"
           transform="translate(84.6335,403.3706)">
          <path
             inkscape:connector-curvature="0"
             d="m 0,0 -14.138,-10.445 c -0.464,-0.345 -1.107,-0.399 -1.638,-0.199 -0.58,0.222 -1.099,0.823 -1.071,1.473 0.008,0.173 0.045,0.344 0.102,0.507 l 1.615,4.65 -26.047,0 0,8.025 26.047,0 -1.615,4.618 c -0.059,0.169 -0.097,0.362 -0.102,0.542 -0.019,0.769 0.651,1.408 1.373,1.532 0.434,0.074 0.97,0.016 1.336,-0.256 L 0,0 z"
             style="fill:#231f20;fill-opacity:1;fill-rule:evenodd;stroke:none"
             id="path13073" />
        </g>
        <g
           id="g13075"
           transform="translate(49.7341,418.6476)">
          <path
             inkscape:connector-curvature="0"
             d="m 0,0 -3.734,6.732 -1.334,-1.817 0,-4.915 -2.248,0 0,14.398 2.248,0 0,-5.683 4.168,5.683 2.766,0 L -2.266,8.733 2.584,0 0,0 z"
             style="fill:#231f20;fill-opacity:1;fill-rule:evenodd;stroke:none"
             id="path13077" />
        </g>
        <g
           id="g13079"
           transform="translate(66.6999,378.0456)">
          <path
             inkscape:connector-curvature="0"
             d="m 0,0 c 0,-1.216 -0.495,-2.405 -1.355,-3.263 -0.886,-0.884 -2.086,-1.355 -3.333,-1.345 -1.313,0.011 -2.608,0.6 -3.459,1.605 -0.835,0.987 -1.134,2.261 -1.356,3.502 -0.248,1.38 -0.271,2.811 -0.066,4.198 0.117,0.782 0.275,1.568 0.511,2.322 0.392,1.251 1.323,2.276 2.518,2.805 2.08,0.923 4.518,0.236 5.786,-1.661 0.279,-0.422 0.444,-0.886 0.601,-1.366 L -2.31,6.082 C -2.413,6.496 -2.549,6.829 -2.835,7.163 -3.399,7.817 -4.296,8.11 -5.138,7.931 -5.992,7.746 -6.622,7.135 -6.896,6.314 -7.183,5.461 -7.348,4.559 -7.418,3.663 -7.489,2.714 -7.453,1.744 -7.3,0.807 c 0.08,-0.498 0.188,-0.999 0.354,-1.477 0.402,-1.164 1.543,-1.898 2.773,-1.652 1.094,0.219 1.914,1.207 1.914,2.322 l 0,0.545 -2.478,0 0,2.357 L 0,2.902 0,0 z"
             style="fill:#231f20;fill-opacity:1;fill-rule:evenodd;stroke:none"
             id="path13081" />
        </g>
        <g
           id="g13083"
           transform="translate(79.7468,388.0456)">
          <path
             inkscape:connector-curvature="0"
             d="m 0,0 0,-14.398 -2.278,0 0,6.289 -5.122,0 0,-6.289 -2.277,0 0,14.398 2.277,0 0,-5.802 5.122,0 0,5.802 L 0,0 z"
             style="fill:#231f20;fill-opacity:1;fill-rule:evenodd;stroke:none"
             id="path13085" />
        </g>
        <g
           id="g13087"
           transform="translate(83.6423,424.9476)">
          <path
             inkscape:connector-curvature="0"
             d="m 0,0 -3.421,0 0,-6.3 -2.252,0 0,14.398 5.62,0 C 1.301,8.098 2.584,7.411 3.334,6.286 4.078,5.172 4.204,3.707 3.696,2.473 3.239,1.361 2.287,0.508 1.139,0.158 0.766,0.044 0.387,0.019 0,0"
             style="fill:#231f20;fill-opacity:1;fill-rule:evenodd;stroke:none"
             id="path13089" />
        </g>
        <g
           id="g13091"
           transform="translate(48.0339,373.6476)">
          <path
             inkscape:connector-curvature="0"
             d="m 0,0 -2.415,0 -2.421,6.298 -2.58,0 0,-6.298 -2.25,0 0,14.398 5.399,0 c 1.068,0 2.105,-0.434 2.861,-1.188 0.947,-0.949 1.368,-2.324 1.116,-3.641 C -0.46,8.675 -0.944,7.847 -1.632,7.251 -1.911,7.01 -2.226,6.836 -2.551,6.665 L 0,0 z"
             style="fill:#231f20;fill-opacity:1;fill-rule:evenodd;stroke:none"
             id="path13093" />
        </g>
        <g
           id="g13095"
           transform="translate(55.0232,418.6476)">
          <path
             inkscape:connector-curvature="0"
             d="m 0,0 0,14.398 8.316,0 0,-2.265 -6.068,0 0,-3.585 4.635,0 0,-2.25 -4.635,0 0,-4.05 6.518,0 L 8.766,0 0,0 z"
             style="fill:#231f20;fill-opacity:1;fill-rule:evenodd;stroke:none"
             id="path13097" />
        </g>
        <g
           id="g13099"
           transform="translate(66.4958,418.6476)">
          <path
             inkscape:connector-curvature="0"
             d="m 0,0 0,14.398 8.316,0 0,-2.265 -6.068,0 0,-3.585 4.636,0 0,-2.25 -4.636,0 0,-4.05 6.519,0 L 8.767,0 0,0 z"
             style="fill:#231f20;fill-opacity:1;fill-rule:evenodd;stroke:none"
             id="path13101" />
        </g>
        <g
           id="g13103"
           transform="translate(87.9519,385.7776)">
          <path
             inkscape:connector-curvature="0"
             d="m 0,0 0,-12.13 -2.25,0 0,12.13 -3.25,0 0,2.268 8.769,0 L 3.269,0 0,0 z"
             style="fill:#231f20;fill-opacity:1;fill-rule:evenodd;stroke:none"
             id="path13105" />
        </g>
        <g
           id="g13107"
           transform="translate(83.5896,427.1926)">
          <path
             inkscape:connector-curvature="0"
             d="M 0,0 C 0.6,0 1.16,0.314 1.496,0.807 1.901,1.407 1.9,2.199 1.494,2.798 1.16,3.292 0.594,3.597 -0.002,3.597 L -3.368,3.6 -3.368,0 0,0 z"
             style="fill:#ffffff;fill-opacity:1;fill-rule:evenodd;stroke:none"
             id="path13109" />
        </g>
        <g
           id="g13111"
           transform="translate(40.6179,382.1956)">
          <path
             inkscape:connector-curvature="0"
             d="m 0,0 3.149,0 c 0.595,0 1.163,0.313 1.49,0.805 0.388,0.592 0.389,1.394 0,1.985 C 4.307,3.289 3.747,3.581 3.149,3.582 L 0,3.6 0,0 z"
             style="fill:#ffffff;fill-opacity:1;fill-rule:evenodd;stroke:none"
             id="path13113" />
        </g>
        <path
           inkscape:connector-curvature="0"
           d="m 53.654,373.648 -2.248,0 0,14.398 2.248,0 0,-14.398 z"
           style="fill:#231f20;fill-opacity:1;fill-rule:evenodd;stroke:none"
           id="path13115" />
      </g>
    </g>
  </g>
</svg>
