<?xml version="1.0" encoding="UTF-8" standalone="no"?>
<!-- Created with Inkscape (http://www.inkscape.org/) -->

<svg
   xmlns:dc="http://purl.org/dc/elements/1.1/"
   xmlns:cc="http://creativecommons.org/ns#"
   xmlns:rdf="http://www.w3.org/1999/02/22-rdf-syntax-ns#"
   xmlns:svg="http://www.w3.org/2000/svg"
   xmlns="http://www.w3.org/2000/svg"
   xmlns:sodipodi="http://sodipodi.sourceforge.net/DTD/sodipodi-0.dtd"
   xmlns:inkscape="http://www.inkscape.org/namespaces/inkscape"
   width="75.878754"
   height="101.8725"
   id="svg14096"
   version="1.1"
   inkscape:version="0.48.1 "
   sodipodi:docname="New document 81">
  <defs
     id="defs14098">
    <clipPath
       clipPathUnits="userSpaceOnUse"
       id="clipPath13323">
      <path
         inkscape:connector-curvature="0"
         d="m 27.125,53.224 513.264,0 0,520.025 -513.264,0 0,-520.025 z"
         id="path13325" />
    </clipPath>
    <clipPath
       clipPathUnits="userSpaceOnUse"
       id="clipPath13311">
      <path
         inkscape:connector-curvature="0"
         d="m 31.368,53.224 504.778,0 0,520.025 -504.778,0 0,-520.025 z"
         id="path13313" />
    </clipPath>
    <clipPath
       clipPathUnits="userSpaceOnUse"
       id="clipPath13299">
      <path
         inkscape:connector-curvature="0"
         d="m 27.125,53.224 513.264,0 0,520.025 -513.264,0 0,-520.025 z"
         id="path13301" />
    </clipPath>
  </defs>
  <sodipodi:namedview
     id="base"
     pagecolor="#ffffff"
     bordercolor="#666666"
     borderopacity="1.0"
     inkscape:pageopacity="0.0"
     inkscape:pageshadow="2"
     inkscape:zoom="0.24748737"
     inkscape:cx="154.30822"
     inkscape:cy="135.96832"
     inkscape:document-units="px"
     inkscape:current-layer="layer1"
     showgrid="false"
     fit-margin-top="0"
     fit-margin-left="0"
     fit-margin-right="0"
     fit-margin-bottom="0"
     inkscape:window-width="469"
     inkscape:window-height="425"
     inkscape:window-x="746"
     inkscape:window-y="141"
     inkscape:window-maximized="0" />
  <metadata
     id="metadata14101">
    <rdf:RDF>
      <cc:Work
         rdf:about="">
        <dc:format>image/svg+xml</dc:format>
        <dc:type
           rdf:resource="http://purl.org/dc/dcmitype/StillImage" />
        <dc:title></dc:title>
      </cc:Work>
    </rdf:RDF>
  </metadata>
  <g
     inkscape:label="Layer 1"
     inkscape:groupmode="layer"
     id="layer1"
     transform="translate(-162.06062,-501.4259)">
    <g
       transform="matrix(1.25,0,0,-1.25,-432.243,1189.7704)"
       id="g13295">
      <g
         id="g13297"
         clip-path="url(#clipPath13299)">
        <g
           id="g13303"
           transform="translate(479.7459,469.4276)">
          <path
             inkscape:connector-curvature="0"
             d="m 0,0 52.096,0 c 1.072,0 2.111,0.424 2.871,1.183 0.759,0.758 1.183,1.797 1.183,2.867 l 0,72.895 c 0,1.07 -0.424,2.112 -1.183,2.869 -0.76,0.759 -1.799,1.184 -2.871,1.184 L 0,80.998 c -1.07,0 -2.111,-0.425 -2.867,-1.184 -0.76,-0.757 -1.186,-1.799 -1.186,-2.869 l 0,-72.895 c 0,-1.392 0.733,-2.703 1.906,-3.449 C -1.481,0.174 -0.774,0.076 0,0"
             style="fill:#ffffff;fill-opacity:1;fill-rule:nonzero;stroke:none"
             id="path13305" />
        </g>
      </g>
    </g>
    <g
       transform="matrix(1.25,0,0,-1.25,-432.243,1189.7704)"
       id="g13307">
      <g
         id="g13309"
         clip-path="url(#clipPath13311)">
        <g
           id="g13315"
           transform="translate(479.7459,469.4276)">
          <path
             inkscape:connector-curvature="0"
             d="m 0,0 52.096,0 c 1.072,0 2.111,0.424 2.871,1.183 0.759,0.758 1.183,1.797 1.183,2.867 l 0,72.895 c 0,1.07 -0.424,2.112 -1.183,2.869 -0.76,0.759 -1.799,1.184 -2.871,1.184 L 0,80.998 c -1.07,0 -2.111,-0.425 -2.867,-1.184 -0.76,-0.757 -1.186,-1.799 -1.186,-2.869 l 0,-72.895 c 0,-1.392 0.733,-2.703 1.906,-3.449 C -1.481,0.174 -0.774,0.076 0,0 z"
             style="fill:none;stroke:#231f20;stroke-width:0.5;stroke-linecap:butt;stroke-linejoin:miter;stroke-miterlimit:4;stroke-opacity:1;stroke-dasharray:none"
             id="path13317" />
        </g>
      </g>
    </g>
    <g
       transform="matrix(1.25,0,0,-1.25,-432.243,1189.7704)"
       id="g13319">
      <g
         id="g13321"
         clip-path="url(#clipPath13323)">
        <g
           id="g13327"
           transform="translate(476.8279,473.4796)">
          <path
             inkscape:connector-curvature="0"
             d="m 0,0 0,72.895 c 0,0.764 0.312,1.524 0.852,2.066 0.542,0.539 1.3,0.852 2.066,0.852 l 52.098,0 c 0.763,0 1.525,-0.313 2.064,-0.852 0.541,-0.542 0.856,-1.302 0.856,-2.066 L 57.936,0 c 0,-0.767 -0.315,-1.526 -0.856,-2.067 -0.539,-0.54 -1.301,-0.853 -2.064,-0.853 l -52.098,0 c -0.766,0 -1.524,0.313 -2.066,0.853 C 0.312,-1.526 0,-0.767 0,0"
             style="fill:#231f20;fill-opacity:1;fill-rule:evenodd;stroke:none"
             id="path13329" />
        </g>
        <g
           id="g13331"
           transform="translate(478.4179,473.4776)">
          <path
             inkscape:connector-curvature="0"
             d="m 0,0 c 0,-0.355 0.135,-0.689 0.387,-0.94 0.251,-0.253 0.585,-0.389 0.941,-0.389 l 52.096,0 c 0.357,0 0.693,0.136 0.945,0.389 0.252,0.251 0.389,0.585 0.389,0.94 l 0,72.895 c 0,0.358 -0.137,0.691 -0.389,0.943 -0.252,0.252 -0.588,0.388 -0.945,0.388 l -52.096,0 C 0.972,74.226 0.638,74.09 0.387,73.838 0.135,73.586 0,73.253 0,72.895 L 0,0 z"
             style="fill:#ffffff;fill-opacity:1;fill-rule:evenodd;stroke:none"
             id="path13333" />
        </g>
        <g
           id="g13335"
           transform="translate(522.1109,521.924)">
          <path
             inkscape:connector-curvature="0"
             d="M 0,0 0.026,-5.136 C 0,-11.67 -0.367,-18.39 -4.355,-23.601 c -4.098,-5.252 -6.369,-10.733 -6.369,-17.326 l 0,-3.561 0,-1.095 -10.668,0.048 0,7.537 c 0,6.593 2.271,12.074 6.369,17.326 3.988,5.211 4.355,11.931 4.379,18.464 L -10.771,0 l -5.91,-2.022 c -0.323,-0.177 -0.706,-0.233 -1.073,-0.286 -1.109,-0.159 -2.16,0.97 -2.16,2.159 0,0.556 0.229,1.105 0.608,1.501 L -5.555,21.123 8.721,1.352 C 9.1,0.956 9.328,0.407 9.328,-0.149 c 0,-1.189 -0.97,-2.265 -2.16,-2.16 -0.369,0.034 -0.75,0.11 -1.07,0.288 L 0,0 z"
             style="fill:#231f20;fill-opacity:1;fill-rule:evenodd;stroke:none"
             id="path13337" />
        </g>
        <g
           id="g13339"
           transform="translate(501.2989,536.6017)">
          <path
             inkscape:connector-curvature="0"
             d="m 0,0 c 0,0 -0.487,-8.919 -0.729,-10.46 -0.244,-1.54 -2.092,-9.939 -2.594,-12.326 -0.326,-1.54 -1.785,-10.702 -7.38,-10.702 -5.594,0 -7.053,9.162 -7.377,10.702 -0.504,2.387 -2.352,10.786 -2.596,12.326 C -20.918,-8.919 -21.407,0 -21.407,0 L 0,0 z"
             style="fill:#231f20;fill-opacity:1;fill-rule:evenodd;stroke:none"
             id="path13341" />
        </g>
      </g>
    </g>
  </g>
</svg>
