<?xml version="1.0" encoding="UTF-8" standalone="no"?>
<!-- Created with Inkscape (http://www.inkscape.org/) -->

<svg
   xmlns:dc="http://purl.org/dc/elements/1.1/"
   xmlns:cc="http://creativecommons.org/ns#"
   xmlns:rdf="http://www.w3.org/1999/02/22-rdf-syntax-ns#"
   xmlns:svg="http://www.w3.org/2000/svg"
   xmlns="http://www.w3.org/2000/svg"
   xmlns:sodipodi="http://sodipodi.sourceforge.net/DTD/sodipodi-0.dtd"
   xmlns:inkscape="http://www.inkscape.org/namespaces/inkscape"
   width="75.876251"
   height="101.8725"
   id="svg14700"
   version="1.1"
   inkscape:version="0.48.1 "
   sodipodi:docname="New document 90">
  <defs
     id="defs14702">
    <clipPath
       clipPathUnits="userSpaceOnUse"
       id="clipPath13351">
      <path
         inkscape:connector-curvature="0"
         d="m 27.125,53.224 513.264,0 0,520.025 -513.264,0 0,-520.025 z"
         id="path13353" />
    </clipPath>
  </defs>
  <sodipodi:namedview
     id="base"
     pagecolor="#ffffff"
     bordercolor="#666666"
     borderopacity="1.0"
     inkscape:pageopacity="0.0"
     inkscape:pageshadow="2"
     inkscape:zoom="0.35"
     inkscape:cx="38.652415"
     inkscape:cy="-83.349463"
     inkscape:document-units="px"
     inkscape:current-layer="layer1"
     showgrid="false"
     fit-margin-top="0"
     fit-margin-left="0"
     fit-margin-right="0"
     fit-margin-bottom="0"
     inkscape:window-width="469"
     inkscape:window-height="425"
     inkscape:window-x="125"
     inkscape:window-y="125"
     inkscape:window-maximized="0" />
  <metadata
     id="metadata14705">
    <rdf:RDF>
      <cc:Work
         rdf:about="">
        <dc:format>image/svg+xml</dc:format>
        <dc:type
           rdf:resource="http://purl.org/dc/dcmitype/StillImage" />
        <dc:title></dc:title>
      </cc:Work>
    </rdf:RDF>
  </metadata>
  <g
     inkscape:label="Layer 1"
     inkscape:groupmode="layer"
     id="layer1"
     transform="translate(-336.34758,-347.14022)">
    <g
       id="g13347"
       transform="matrix(1.25,0,0,-1.25,-114.23854,902.12722)">
      <g
         id="g13349"
         clip-path="url(#clipPath13351)">
        <g
           id="g13355"
           transform="translate(416.8669,362.7416)">
          <path
             d="m 0,0 -52.094,0 c -1.074,0 -2.113,0.424 -2.871,1.184 -0.76,0.757 -1.183,1.796 -1.183,2.866 l 0,72.895 c 0,1.07 0.423,2.112 1.183,2.869 0.758,0.759 1.797,1.184 2.871,1.184 l 52.094,0 c 1.07,0 2.111,-0.425 2.867,-1.184 0.76,-0.757 1.186,-1.799 1.186,-2.869 l 0,-72.895 C 4.053,2.658 3.32,1.347 2.148,0.602 1.48,0.174 0.773,0.076 0,0"
             style="fill:#ffffff;fill-opacity:1;fill-rule:nonzero;stroke:none"
             id="path13357"
             inkscape:connector-curvature="0" />
        </g>
        <g
           id="g13359"
           transform="translate(416.8669,362.7416)">
          <path
             d="m 0,0 -52.094,0 c -1.074,0 -2.113,0.424 -2.871,1.184 -0.76,0.757 -1.183,1.796 -1.183,2.866 l 0,72.895 c 0,1.07 0.423,2.112 1.183,2.869 0.758,0.759 1.797,1.184 2.871,1.184 l 52.094,0 c 1.07,0 2.111,-0.425 2.867,-1.184 0.76,-0.757 1.186,-1.799 1.186,-2.869 l 0,-72.895 C 4.053,2.658 3.32,1.347 2.148,0.602 1.48,0.174 0.773,0.076 0,0 z"
             style="fill:none;stroke:#231f20;stroke-width:0.5;stroke-linecap:butt;stroke-linejoin:miter;stroke-miterlimit:4;stroke-opacity:1;stroke-dasharray:none"
             id="path13361"
             inkscape:connector-curvature="0" />
        </g>
        <g
           id="g13363"
           transform="translate(419.7869,366.7936)">
          <path
             d="m 0,0 0,72.894 c 0,0.765 -0.315,1.526 -0.854,2.067 -0.541,0.539 -1.3,0.852 -2.066,0.852 l -52.098,0 c -0.761,0 -1.523,-0.313 -2.062,-0.852 -0.541,-0.541 -0.856,-1.302 -0.856,-2.067 l 0,-72.894 c 0,-0.767 0.315,-1.526 0.856,-2.067 0.539,-0.54 1.301,-0.853 2.062,-0.853 l 52.098,0 c 0.766,0 1.525,0.313 2.066,0.853 C -0.315,-1.526 0,-0.767 0,0"
             style="fill:#231f20;fill-opacity:1;fill-rule:evenodd;stroke:none"
             id="path13365"
             inkscape:connector-curvature="0" />
        </g>
        <g
           id="g13367"
           transform="translate(418.1969,366.7916)">
          <path
             d="M 0,0 C 0,-0.355 -0.137,-0.688 -0.387,-0.94 -0.641,-1.193 -0.975,-1.329 -1.33,-1.329 l -52.096,0 c -0.355,0 -0.691,0.136 -0.943,0.389 -0.254,0.252 -0.389,0.585 -0.389,0.94 l 0,72.895 c 0,0.358 0.135,0.691 0.389,0.943 0.252,0.252 0.588,0.389 0.943,0.389 l 52.096,0 c 0.355,0 0.689,-0.137 0.943,-0.389 C -0.137,73.586 0,73.253 0,72.895 L 0,0 z"
             style="fill:#ffffff;fill-opacity:1;fill-rule:evenodd;stroke:none"
             id="path13369"
             inkscape:connector-curvature="0" />
        </g>
        <g
           id="g13371"
           transform="translate(374.5019,415.2376)">
          <path
             d="M 0,0 -0.024,-5.135 C 0,-11.67 0.367,-18.389 4.357,-23.6 c 4.096,-5.252 6.369,-10.734 6.369,-17.327 l 0,-3.561 0,-1.094 10.668,0.047 0,7.537 c 0,6.594 -2.271,12.074 -6.371,17.326 -3.988,5.211 -4.355,11.931 -4.377,18.464 L 10.773,0 l 5.91,-2.022 c 0.323,-0.177 0.705,-0.233 1.073,-0.285 1.109,-0.16 2.158,0.968 2.158,2.158 0,0.557 -0.227,1.105 -0.608,1.501 L 5.554,21.122 -8.719,1.352 c -0.379,-0.396 -0.607,-0.944 -0.607,-1.501 0,-1.19 0.968,-2.265 2.16,-2.159 0.369,0.034 0.748,0.11 1.07,0.287 L 0,0 z"
             style="fill:#231f20;fill-opacity:1;fill-rule:evenodd;stroke:none"
             id="path13373"
             inkscape:connector-curvature="0" />
        </g>
        <g
           id="g13375"
           transform="translate(395.3139,429.9156)">
          <path
             d="m 0,0 c 0,0 0.489,-8.919 0.731,-10.46 0.242,-1.541 2.092,-9.939 2.594,-12.326 0.324,-1.54 1.785,-10.702 7.378,-10.702 5.596,0 7.055,9.162 7.379,10.702 0.502,2.387 2.352,10.785 2.596,12.326 C 20.92,-8.919 21.407,0 21.407,0 L 0,0 z"
             style="fill:#231f20;fill-opacity:1;fill-rule:evenodd;stroke:none"
             id="path13377"
             inkscape:connector-curvature="0" />
        </g>
      </g>
    </g>
  </g>
</svg>
