<?xml version="1.0" encoding="UTF-8" standalone="no"?>
<!-- Created with Inkscape (http://www.inkscape.org/) -->

<svg
   xmlns:dc="http://purl.org/dc/elements/1.1/"
   xmlns:cc="http://creativecommons.org/ns#"
   xmlns:rdf="http://www.w3.org/1999/02/22-rdf-syntax-ns#"
   xmlns:svg="http://www.w3.org/2000/svg"
   xmlns="http://www.w3.org/2000/svg"
   xmlns:sodipodi="http://sodipodi.sourceforge.net/DTD/sodipodi-0.dtd"
   xmlns:inkscape="http://www.inkscape.org/namespaces/inkscape"
   width="61.84"
   height="102.65"
   id="svg15146"
   version="1.1"
   inkscape:version="0.48.1 "
   sodipodi:docname="New document 97">
  <defs
     id="defs15148">
    <clipPath
       clipPathUnits="userSpaceOnUse"
       id="clipPath13647">
      <path
         inkscape:connector-curvature="0"
         d="m 27.125,53.224 513.264,0 0,520.025 -513.264,0 0,-520.025 z"
         id="path13649" />
    </clipPath>
  </defs>
  <sodipodi:namedview
     id="base"
     pagecolor="#ffffff"
     bordercolor="#666666"
     borderopacity="1.0"
     inkscape:pageopacity="0.0"
     inkscape:pageshadow="2"
     inkscape:zoom="0.35"
     inkscape:cx="37.348575"
     inkscape:cy="108.46786"
     inkscape:document-units="px"
     inkscape:current-layer="layer1"
     showgrid="false"
     inkscape:window-width="469"
     inkscape:window-height="425"
     inkscape:window-x="50"
     inkscape:window-y="50"
     inkscape:window-maximized="0"
     fit-margin-top="0"
     fit-margin-left="0"
     fit-margin-right="0"
     fit-margin-bottom="0" />
  <metadata
     id="metadata15151">
    <rdf:RDF>
      <cc:Work
         rdf:about="">
        <dc:format>image/svg+xml</dc:format>
        <dc:type
           rdf:resource="http://purl.org/dc/dcmitype/StillImage" />
        <dc:title></dc:title>
      </cc:Work>
    </rdf:RDF>
  </metadata>
  <g
     inkscape:label="Layer 1"
     inkscape:groupmode="layer"
     id="layer1"
     transform="translate(-337.65142,-538.18004)">
    <g
       id="g13643"
       transform="matrix(1.25,0,0,-1.25,191.8678,900.72954)">
      <g
         id="g13645"
         clip-path="url(#clipPath13647)">
        <g
           id="g13651"
           transform="translate(165.8489,212.2496)">
          <path
             d="m 0,0 c 0,-2.254 -1.826,-4.08 -4.08,-4.08 l -40.81,0 c -2.254,0 -4.082,1.826 -4.082,4.08 l 0,73.458 c 0,2.254 1.828,4.082 4.082,4.082 l 40.81,0 C -1.826,77.54 0,75.712 0,73.458 L 0,0 z"
             style="fill:#ffffff;fill-opacity:1;fill-rule:nonzero;stroke:none"
             id="path13653"
             inkscape:connector-curvature="0" />
        </g>
        <g
           id="g13655"
           transform="translate(165.8489,212.2496)">
          <path
             d="m 0,0 c 0,-2.254 -1.826,-4.08 -4.08,-4.08 l -40.81,0 c -2.254,0 -4.082,1.826 -4.082,4.08 l 0,73.458 c 0,2.254 1.828,4.082 4.082,4.082 l 40.81,0 C -1.826,77.54 0,75.712 0,73.458 L 0,0 z"
             style="fill:none;stroke:#231f20;stroke-width:0.5;stroke-linecap:butt;stroke-linejoin:miter;stroke-miterlimit:4;stroke-opacity:1;stroke-dasharray:none"
             id="path13657"
             inkscape:connector-curvature="0" />
        </g>
        <g
           id="g13659"
           transform="translate(163.1289,212.2496)">
          <path
             d="m 0,0 c 0,-0.75 -0.61,-1.359 -1.36,-1.359 l -40.81,0 c -0.75,0 -1.361,0.609 -1.361,1.359 l 0,73.458 c 0,0.75 0.611,1.361 1.361,1.361 l 40.81,0 C -0.61,74.819 0,74.208 0,73.458 L 0,0 z m -1.36,76.519 -40.81,0 c -1.688,0 -3.061,-1.373 -3.061,-3.061 l 0,-73.458 c 0,-1.688 1.373,-3.061 3.061,-3.061 l 40.81,0 c 1.688,0 3.061,1.373 3.061,3.061 l 0,73.458 c 0,1.688 -1.373,3.061 -3.061,3.061"
             style="fill:#231f20;fill-opacity:1;fill-rule:nonzero;stroke:none"
             id="path13661"
             inkscape:connector-curvature="0" />
        </g>
        <g
           id="g13663"
           transform="translate(123.0193,263.3536)">
          <path
             d="M 0,0 10.821,14.985 21.243,0 c 0.289,-0.3 0.46,-0.716 0.46,-1.138 0,-0.901 -0.794,-1.756 -1.636,-1.637 -0.278,0.041 -0.569,0.084 -0.811,0.219 l -4.48,1.531 -0.098,-5.754 c 0.018,-4.953 0.297,-10.045 3.318,-13.996 3.108,-3.979 4.831,-8.134 4.831,-13.133 l 0,-9.792 -8.088,-0.035 0,4.91 0,2.699 c 0,4.997 -1.721,9.151 -4.828,13.132 C 6.887,-19.044 6.609,-13.951 6.592,-9 L 6.609,-1.025 1.988,-2.556 C 1.744,-2.691 1.457,-2.75 1.176,-2.775 0.275,-2.855 -0.461,-2.039 -0.461,-1.138 -0.461,-0.716 -0.287,-0.3 0,0"
             style="fill:#231f20;fill-opacity:1;fill-rule:evenodd;stroke:none"
             id="path13665"
             inkscape:connector-curvature="0" />
        </g>
        <g
           id="g13667"
           transform="translate(146.5639,272.3736)">
          <path
             d="m 0,0 c 0,0 0.123,-7.709 0.123,-9.062 0,-1.569 0.83,-5.756 2.08,-9.557 1.034,-3.149 2.227,-5.869 4.6,-5.869 2.373,0 3.566,2.72 4.6,5.869 1.25,3.801 2.08,7.988 2.08,9.557 0,1.353 0.123,9.062 0.123,9.062 L 0,0 z"
             style="fill:#231f20;fill-opacity:1;fill-rule:evenodd;stroke:none"
             id="path13669"
             inkscape:connector-curvature="0" />
        </g>
      </g>
    </g>
  </g>
</svg>
