<?xml version="1.0" encoding="UTF-8" standalone="no"?>
<!-- Created with Inkscape (http://www.inkscape.org/) -->

<svg
   xmlns:dc="http://purl.org/dc/elements/1.1/"
   xmlns:cc="http://creativecommons.org/ns#"
   xmlns:rdf="http://www.w3.org/1999/02/22-rdf-syntax-ns#"
   xmlns:svg="http://www.w3.org/2000/svg"
   xmlns="http://www.w3.org/2000/svg"
   xmlns:sodipodi="http://sodipodi.sourceforge.net/DTD/sodipodi-0.dtd"
   xmlns:inkscape="http://www.inkscape.org/namespaces/inkscape"
   width="744.09448819"
   height="1052.3622047"
   id="svg15029"
   version="1.1"
   inkscape:version="0.48.1 "
   sodipodi:docname="New document 95">
  <defs
     id="defs15031">
    <clipPath
       clipPathUnits="userSpaceOnUse"
       id="clipPath13587">
      <path
         inkscape:connector-curvature="0"
         d="m 27.125,53.224 513.264,0 0,520.025 -513.264,0 0,-520.025 z"
         id="path13589" />
    </clipPath>
    <clipPath
       clipPathUnits="userSpaceOnUse"
       id="clipPath13575">
      <path
         inkscape:connector-curvature="0"
         d="m 31.368,53.224 504.778,0 0,520.025 -504.778,0 0,-520.025 z"
         id="path13577" />
    </clipPath>
    <clipPath
       clipPathUnits="userSpaceOnUse"
       id="clipPath13563">
      <path
         inkscape:connector-curvature="0"
         d="m 27.125,53.224 513.264,0 0,520.025 -513.264,0 0,-520.025 z"
         id="path13565" />
    </clipPath>
  </defs>
  <sodipodi:namedview
     id="base"
     pagecolor="#ffffff"
     bordercolor="#666666"
     borderopacity="1.0"
     inkscape:pageopacity="0.0"
     inkscape:pageshadow="2"
     inkscape:zoom="0.35"
     inkscape:cx="375"
     inkscape:cy="520"
     inkscape:document-units="px"
     inkscape:current-layer="layer1"
     showgrid="false"
     inkscape:window-width="469"
     inkscape:window-height="425"
     inkscape:window-x="539"
     inkscape:window-y="35"
     inkscape:window-maximized="0" />
  <metadata
     id="metadata15034">
    <rdf:RDF>
      <cc:Work
         rdf:about="">
        <dc:format>image/svg+xml</dc:format>
        <dc:type
           rdf:resource="http://purl.org/dc/dcmitype/StillImage" />
        <dc:title></dc:title>
      </cc:Work>
    </rdf:RDF>
  </metadata>
  <g
     inkscape:label="Layer 1"
     inkscape:groupmode="layer"
     id="layer1">
    <g
       transform="matrix(1.25,0,0,-1.25,274.2634,988.91472)"
       id="g13559">
      <g
         id="g13561"
         clip-path="url(#clipPath13563)">
        <g
           id="g13567"
           transform="translate(35.6687,208.1696)">
          <path
             inkscape:connector-curvature="0"
             d="m 0,0 56.696,0 c 1.074,0 2.11,0.426 2.871,1.185 0.757,0.758 1.182,1.797 1.182,2.868 l 0,72.894 c 0,1.072 -0.425,2.112 -1.182,2.869 -0.761,0.76 -1.797,1.186 -2.871,1.186 L 0,81.002 c -1.07,0 -2.113,-0.426 -2.87,-1.186 -0.757,-0.757 -1.181,-1.797 -1.181,-2.869 l 0,-72.894 c 0,-1.393 0.728,-2.705 1.904,-3.452 C -1.482,0.174 -0.773,0.078 0,0"
             style="fill:#ffffff;fill-opacity:1;fill-rule:nonzero;stroke:none"
             id="path13569" />
        </g>
      </g>
    </g>
    <g
       transform="matrix(1.25,0,0,-1.25,274.2634,988.91472)"
       id="g13571">
      <g
         id="g13573"
         clip-path="url(#clipPath13575)">
        <g
           id="g13579"
           transform="translate(35.6687,208.1696)">
          <path
             inkscape:connector-curvature="0"
             d="m 0,0 56.696,0 c 1.074,0 2.11,0.426 2.871,1.185 0.757,0.758 1.182,1.797 1.182,2.868 l 0,72.894 c 0,1.072 -0.425,2.112 -1.182,2.869 -0.761,0.76 -1.797,1.186 -2.871,1.186 L 0,81.002 c -1.07,0 -2.113,-0.426 -2.87,-1.186 -0.757,-0.757 -1.181,-1.797 -1.181,-2.869 l 0,-72.894 c 0,-1.393 0.728,-2.705 1.904,-3.452 C -1.482,0.174 -0.773,0.078 0,0 z"
             style="fill:none;stroke:#231f20;stroke-width:0.5;stroke-linecap:butt;stroke-linejoin:miter;stroke-miterlimit:4;stroke-opacity:1;stroke-dasharray:none"
             id="path13581" />
        </g>
      </g>
    </g>
    <g
       transform="matrix(1.25,0,0,-1.25,274.2634,988.91472)"
       id="g13583">
      <g
         id="g13585"
         clip-path="url(#clipPath13587)">
        <g
           id="g13591"
           transform="translate(32.7498,212.2246)">
          <path
             inkscape:connector-curvature="0"
             d="m 0,0 0,72.892 c 0,0.766 0.316,1.526 0.853,2.069 0.542,0.537 1.3,0.851 2.066,0.851 l 56.695,0 c 0.762,0 1.526,-0.314 2.065,-0.851 0.541,-0.543 0.855,-1.303 0.855,-2.069 L 62.534,0 c 0,-0.766 -0.314,-1.528 -0.855,-2.069 C 61.14,-2.608 60.376,-2.92 59.614,-2.92 l -56.695,0 c -0.766,0 -1.524,0.312 -2.066,0.851 C 0.316,-1.528 0,-0.766 0,0"
             style="fill:#231f20;fill-opacity:1;fill-rule:evenodd;stroke:none"
             id="path13593" />
        </g>
        <g
           id="g13595"
           transform="translate(34.3396,212.2246)">
          <path
             inkscape:connector-curvature="0"
             d="M 0,0 C 0,-0.358 0.138,-0.692 0.388,-0.944 0.64,-1.196 0.976,-1.332 1.331,-1.332 l 56.695,0 c 0.354,0 0.69,0.136 0.942,0.388 0.251,0.252 0.387,0.586 0.387,0.944 l 0,72.892 c 0,0.358 -0.136,0.69 -0.387,0.944 -0.252,0.251 -0.588,0.386 -0.942,0.386 l -56.695,0 C 0.976,74.222 0.64,74.087 0.388,73.836 0.138,73.582 0,73.25 0,72.892 L 0,0 z"
             style="fill:#ffffff;fill-opacity:1;fill-rule:evenodd;stroke:none"
             id="path13597" />
        </g>
        <g
           id="g13599"
           transform="translate(45.0593,260.0936)">
          <path
             inkscape:connector-curvature="0"
             d="m 0,0 7.033,-16.121 c 0.107,-0.241 0.279,-0.452 0.483,-0.618 0.412,-0.335 0.984,-0.474 1.503,-0.355 0.396,0.094 0.809,0.35 1.003,0.721 0.079,0.154 0.131,0.322 0.164,0.49 l 0.924,4.836 23.29,-13.445 4.015,6.949 -23.291,13.447 3.709,3.189 c 0.136,0.12 0.264,0.264 0.359,0.42 0.4,0.653 0.141,1.543 -0.423,2.01 -0.342,0.283 -0.832,0.502 -1.288,0.449 L 0,0 z"
             style="fill:#231f20;fill-opacity:1;fill-rule:evenodd;stroke:none"
             id="path13601" />
        </g>
        <g
           id="g13603"
           transform="translate(48.9714,268.5736)">
          <path
             inkscape:connector-curvature="0"
             d="m 0,0 -3.735,6.735 -1.334,-1.817 0,-4.918 -2.248,0 0,14.401 2.248,0 0,-5.684 4.169,5.684 2.766,0 L -2.267,8.735 2.582,0 0,0 z"
             style="fill:#231f20;fill-opacity:1;fill-rule:evenodd;stroke:none"
             id="path13605" />
        </g>
        <g
           id="g13607"
           transform="translate(82.8777,274.8766)">
          <path
             inkscape:connector-curvature="0"
             d="m 0,0 -3.42,0 0,-6.303 -2.252,0 0,14.401 5.619,0 c 1.354,0 2.637,-0.69 3.388,-1.815 C 4.078,5.17 4.205,3.707 3.697,2.471 3.24,1.359 2.287,0.506 1.14,0.156 0.767,0.045 0.387,0.019 0,0"
             style="fill:#231f20;fill-opacity:1;fill-rule:evenodd;stroke:none"
             id="path13609" />
        </g>
        <g
           id="g13611"
           transform="translate(65.7322,268.5736)">
          <path
             inkscape:connector-curvature="0"
             d="m 0,0 0,14.401 8.316,0 0,-2.266 -6.067,0 0,-3.586 4.635,0 0,-2.248 -4.635,0 0,-4.053 6.518,0 L 8.767,0 0,0 z"
             style="fill:#231f20;fill-opacity:1;fill-rule:evenodd;stroke:none"
             id="path13613" />
        </g>
        <g
           id="g13615"
           transform="translate(54.2585,268.5736)">
          <path
             inkscape:connector-curvature="0"
             d="m 0,0 0,14.401 8.316,0 0,-2.266 -6.067,0 0,-3.586 4.636,0 0,-2.248 -4.636,0 0,-4.053 6.518,0 L 8.767,0 0,0 z"
             style="fill:#231f20;fill-opacity:1;fill-rule:evenodd;stroke:none"
             id="path13617" />
        </g>
        <g
           id="g13619"
           transform="translate(82.8249,277.1206)">
          <path
             inkscape:connector-curvature="0"
             d="M 0,0 C 0.6,0 1.162,0.313 1.496,0.807 1.903,1.408 1.901,2.201 1.494,2.801 1.162,3.291 0.595,3.596 -0.002,3.596 L -3.367,3.6 -3.367,0 0,0 z"
             style="fill:#ffffff;fill-opacity:1;fill-rule:evenodd;stroke:none"
             id="path13621" />
        </g>
        <g
           id="g13623"
           transform="translate(43.7009,214.5696)">
          <path
             inkscape:connector-curvature="0"
             d="m 0,0 0,14.399 2.31,0 0,-12.088 6.602,0 L 8.912,0 0,0 z"
             style="fill:#231f20;fill-opacity:1;fill-rule:nonzero;stroke:none"
             id="path13625" />
        </g>
        <g
           id="g13627"
           transform="translate(54.7712,214.5696)">
          <path
             inkscape:connector-curvature="0"
             d="m 0,0 0,14.399 8.633,0 0,-2.309 -6.322,0 0,-3.455 4.359,0 0,-2.309 -4.359,0 0,-4.015 6.602,0 L 8.913,0 0,0 z"
             style="fill:#231f20;fill-opacity:1;fill-rule:nonzero;stroke:none"
             id="path13629" />
        </g>
        <g
           id="g13631"
           transform="translate(66.1443,228.9686)">
          <path
             inkscape:connector-curvature="0"
             d="m 0,0 8.914,0 0,-2.309 -6.604,0 0,-3.455 4.316,0 0,-2.309 -4.316,0 0,-6.326 -2.31,0 L 0,0 z"
             style="fill:#231f20;fill-opacity:1;fill-rule:nonzero;stroke:none"
             id="path13633" />
        </g>
        <g
           id="g13635"
           transform="translate(81.532,226.6596)">
          <path
             inkscape:connector-curvature="0"
             d="m 0,0 0,-12.09 -2.309,0 0,12.09 -3.302,0 0,2.309 8.913,0 L 3.302,0 0,0 z"
             style="fill:#231f20;fill-opacity:1;fill-rule:nonzero;stroke:none"
             id="path13637" />
        </g>
      </g>
    </g>
  </g>
</svg>
