<?xml version="1.0" encoding="UTF-8" standalone="no"?>
<!-- Created with Inkscape (http://www.inkscape.org/) -->

<svg
   xmlns:dc="http://purl.org/dc/elements/1.1/"
   xmlns:cc="http://creativecommons.org/ns#"
   xmlns:rdf="http://www.w3.org/1999/02/22-rdf-syntax-ns#"
   xmlns:svg="http://www.w3.org/2000/svg"
   xmlns="http://www.w3.org/2000/svg"
   xmlns:sodipodi="http://sodipodi.sourceforge.net/DTD/sodipodi-0.dtd"
   xmlns:inkscape="http://www.inkscape.org/namespaces/inkscape"
   width="135.625"
   height="90.625"
   id="svg4624"
   version="1.1"
   inkscape:version="0.48.1 "
   sodipodi:docname="New document 6">
  <defs
     id="defs4626">
    <clipPath
       clipPathUnits="userSpaceOnUse"
       id="clipPath3261">
      <path
         inkscape:connector-curvature="0"
         d="m 63.125,46.835 512.875,0 0,363.415 -512.875,0 0,-363.415 z"
         id="path3263" />
    </clipPath>
  </defs>
  <sodipodi:namedview
     id="base"
     pagecolor="#ffffff"
     bordercolor="#666666"
     borderopacity="1.0"
     inkscape:pageopacity="0.0"
     inkscape:pageshadow="2"
     inkscape:zoom="0.35"
     inkscape:cx="67.81125"
     inkscape:cy="45.312497"
     inkscape:document-units="px"
     inkscape:current-layer="layer1"
     showgrid="false"
     fit-margin-top="0"
     fit-margin-left="0"
     fit-margin-right="0"
     fit-margin-bottom="0"
     inkscape:window-width="469"
     inkscape:window-height="425"
     inkscape:window-x="125"
     inkscape:window-y="125"
     inkscape:window-maximized="0" />
  <metadata
     id="metadata4629">
    <rdf:RDF>
      <cc:Work
         rdf:about="">
        <dc:format>image/svg+xml</dc:format>
        <dc:type
           rdf:resource="http://purl.org/dc/dcmitype/StillImage" />
        <dc:title></dc:title>
      </cc:Work>
    </rdf:RDF>
  </metadata>
  <g
     inkscape:label="Layer 1"
     inkscape:groupmode="layer"
     id="layer1"
     transform="translate(-307.18875,-487.04968)">
    <g
       id="g3257"
       transform="matrix(1.25,0,0,-1.25,82.44175,964.25518)">
      <g
         id="g3259"
         clip-path="url(#clipPath3261)">
        <g
           id="g3265"
           transform="translate(184.5476,309.5144)">
          <path
             d="m 0,0 99.002,0 c 1.185,0 2.346,0.479 3.182,1.318 0.837,0.838 1.314,1.996 1.314,3.182 l 0,62.998 c 0,1.186 -0.477,2.343 -1.314,3.183 C 101.348,71.519 100.187,72 99.002,72 L 0,72 C -1.186,72 -2.346,71.519 -3.184,70.681 -4.022,69.841 -4.5,68.684 -4.5,67.498 L -4.5,4.5 c 0,-1.542 0.818,-3 2.118,-3.83 C -1.644,0.198 -0.861,0.09 0,0"
             style="fill:#ffffff;fill-opacity:1;fill-rule:nonzero;stroke:none"
             id="path3267"
             inkscape:connector-curvature="0" />
        </g>
        <g
           id="g3269"
           transform="translate(184.5476,309.5144)">
          <path
             d="m 0,0 99.002,0 c 1.185,0 2.346,0.479 3.182,1.318 0.837,0.838 1.314,1.996 1.314,3.182 l 0,62.998 c 0,1.186 -0.477,2.343 -1.314,3.183 C 101.348,71.519 100.187,72 99.002,72 L 0,72 C -1.186,72 -2.346,71.519 -3.184,70.681 -4.022,69.841 -4.5,68.684 -4.5,67.498 L -4.5,4.5 c 0,-1.542 0.818,-3 2.118,-3.83 C -1.644,0.198 -0.861,0.09 0,0 z"
             style="fill:none;stroke:#231f20;stroke-width:0.5;stroke-linecap:butt;stroke-linejoin:miter;stroke-miterlimit:4;stroke-opacity:1;stroke-dasharray:none"
             id="path3271"
             inkscape:connector-curvature="0" />
        </g>
        <g
           id="g3273"
           transform="translate(182.3006,314.0141)">
          <path
             d="m 0,0 0,63.001 c 0,0.591 0.238,1.169 0.658,1.588 0.42,0.418 0.998,0.658 1.592,0.658 l 98.995,0 c 0.592,0 1.172,-0.24 1.592,-0.658 0.418,-0.419 0.656,-0.997 0.656,-1.588 l 0,-63.001 c 0,-0.594 -0.238,-1.172 -0.656,-1.589 -0.42,-0.421 -1,-0.661 -1.592,-0.661 l -98.995,0 c -0.594,0 -1.174,0.238 -1.592,0.658 C 0.238,-1.174 0,-0.592 0,0"
             style="fill:#bf2519;fill-opacity:1;fill-rule:evenodd;stroke:none"
             id="path3275"
             inkscape:connector-curvature="0" />
        </g>
        <g
           id="g3277"
           transform="translate(223.0756,323.0121)">
          <path
             d="m 0,0 2.537,17.994 -2.853,0 -1.331,-9.558 -2.355,9.558 -2.643,0 -2.373,-9.681 -1.357,9.681 -2.832,0 L -10.709,0 -8.145,0 -5.314,11.561 -2.502,0 0,0 z"
             style="fill:#ffffff;fill-opacity:1;fill-rule:evenodd;stroke:none"
             id="path3279"
             inkscape:connector-curvature="0" />
        </g>
        <g
           id="g3281"
           transform="translate(207.3256,349.9887)">
          <path
             d="m 0,0 2.537,17.994 -2.853,0 -1.331,-9.558 -2.355,9.558 -2.643,0 -2.377,-9.684 -1.353,9.684 -2.832,0 L -10.709,0 -8.145,0 -5.314,11.56 -2.502,0 0,0 z"
             style="fill:#ffffff;fill-opacity:1;fill-rule:evenodd;stroke:none"
             id="path3283"
             inkscape:connector-curvature="0" />
        </g>
        <g
           id="g3285"
           transform="translate(251.8996,330.8832)">
          <path
             d="m 0,0 6.18,10.123 -3.299,0 -4.299,-7 -4.297,7 -3.295,0 6.196,-10.144 0,-7.854 2.814,0 L 0,0 z"
             style="fill:#ffffff;fill-opacity:1;fill-rule:evenodd;stroke:none"
             id="path3287"
             inkscape:connector-curvature="0" />
        </g>
        <g
           id="g3289"
           transform="translate(232.9176,341.0063)">
          <path
             d="m 0,0 -6.19,-17.998 2.981,0 1.98,5.811 5.164,0 1.961,-5.811 2.96,0 L 2.769,0 0,0 z"
             style="fill:#ffffff;fill-opacity:1;fill-rule:evenodd;stroke:none"
             id="path3291"
             inkscape:connector-curvature="0" />
        </g>
        <g
           id="g3293"
           transform="translate(234.9586,368.2699)">
          <path
             d="M 0,0 C -1.909,0 -3.574,-0.687 -4.616,-2.333 -5.881,-4.34 -6.33,-6.95 -6.33,-9.287 c 0,-2.335 0.443,-4.936 1.707,-6.937 1.058,-1.671 2.681,-2.351 4.623,-2.351 1.914,0 3.566,0.68 4.611,2.333 1.267,2.007 1.718,4.611 1.718,6.955 0,2.417 -0.47,5.01 -1.779,7.083 C 3.592,-0.689 1.728,0 0,0"
             style="fill:#ffffff;fill-opacity:1;fill-rule:evenodd;stroke:none"
             id="path3295"
             inkscape:connector-curvature="0" />
        </g>
        <g
           id="g3297"
           transform="translate(273.8666,355.4848)">
          <path
             d="m 0,0 0,3.627 -5.924,0 0,-2.949 3.098,0 0,-0.678 c 0,-1.396 -1.026,-2.631 -2.391,-2.904 -1.533,-0.31 -2.969,0.615 -3.467,2.063 -0.476,1.386 -0.623,2.908 -0.623,4.359 0.002,1.476 0.217,2.973 0.688,4.375 0.339,1.01 1.14,1.791 2.197,2.018 1.053,0.226 2.174,-0.14 2.881,-0.962 0.342,-0.402 0.527,-0.841 0.652,-1.35 l 2.695,0.893 c -0.195,0.601 -0.398,1.182 -0.752,1.711 -1.585,2.37 -4.628,3.225 -7.228,2.075 -1.496,-0.663 -2.66,-1.943 -3.148,-3.507 -0.293,-0.941 -0.497,-1.925 -0.639,-2.904 -0.258,-1.73 -0.229,-3.518 0.082,-5.244 0.359,-2.004 0.867,-3.933 2.59,-5.223 1.625,-1.217 3.834,-1.503 5.718,-0.735 C -1.436,-4.462 0,-2.307 0,0"
             style="fill:#ffffff;fill-opacity:1;fill-rule:evenodd;stroke:none"
             id="path3299"
             inkscape:connector-curvature="0" />
        </g>
        <g
           id="g3301"
           transform="translate(225.3276,349.9828)">
          <path
             d="m 0,0 -3.189,8.334 c 0.919,0.483 1.53,0.941 2.113,1.844 1.076,1.675 1.064,3.895 -0.04,5.551 C -2.049,17.13 -3.647,18 -5.334,18 l -6.748,0 0,-18 2.812,0 0,7.875 3.225,0 L -3.02,0 0,0 z"
             style="fill:#ffffff;fill-opacity:1;fill-rule:evenodd;stroke:none"
             id="path3303"
             inkscape:connector-curvature="0" />
        </g>
        <g
           id="g3305"
           transform="translate(248.3546,367.9291)">
          <path
             d="m 0,0 -2.771,0 0,-17.946 2.811,0 0,12.069 6.769,-12.069 2.5,0 0,17.99 -2.811,0 0,-11.657 L 0,0 z"
             style="fill:#ffffff;fill-opacity:1;fill-rule:evenodd;stroke:none"
             id="path3307"
             inkscape:connector-curvature="0" />
        </g>
        <g
           id="g3309"
           transform="translate(234.9586,365.4623)">
          <path
             d="m 0,0 c 1.16,0 2.048,-0.608 2.564,-1.635 0.727,-1.443 0.953,-3.249 0.953,-4.844 0,-1.797 -0.381,-5.524 -2.39,-6.274 -0.985,-0.366 -2.264,-0.278 -3.03,0.501 -1.599,1.635 -1.776,5.31 -1.518,7.455 0.169,1.38 0.495,3.054 1.518,4.083 C -1.407,-0.216 -0.691,0 0,0"
             style="fill:#bf2519;fill-opacity:1;fill-rule:evenodd;stroke:none"
             id="path3311"
             inkscape:connector-curvature="0" />
        </g>
        <g
           id="g3313"
           transform="translate(216.0576,360.6684)">
          <path
             d="M 0,0 0,4.5 3.936,4.481 C 4.682,4.476 5.385,4.109 5.799,3.485 6.287,2.748 6.281,1.746 5.795,1.012 5.391,0.391 4.68,0 3.936,0 L 0,0 z"
             style="fill:#bf2519;fill-opacity:1;fill-rule:evenodd;stroke:none"
             id="path3315"
             inkscape:connector-curvature="0" />
        </g>
        <g
           id="g3317"
           transform="translate(234.2916,336.3608)">
          <path
             d="m 0,0 1.605,-4.728 -3.231,0 L 0,0 z"
             style="fill:#bf2519;fill-opacity:1;fill-rule:evenodd;stroke:none"
             id="path3319"
             inkscape:connector-curvature="0" />
        </g>
      </g>
    </g>
  </g>
</svg>
