<?xml version="1.0" encoding="UTF-8" standalone="no"?>
<!-- Created with Inkscape (http://www.inkscape.org/) -->

<svg
   xmlns:dc="http://purl.org/dc/elements/1.1/"
   xmlns:cc="http://creativecommons.org/ns#"
   xmlns:rdf="http://www.w3.org/1999/02/22-rdf-syntax-ns#"
   xmlns:svg="http://www.w3.org/2000/svg"
   xmlns="http://www.w3.org/2000/svg"
   xmlns:sodipodi="http://sodipodi.sourceforge.net/DTD/sodipodi-0.dtd"
   xmlns:inkscape="http://www.inkscape.org/namespaces/inkscape"
   width="113.1245"
   height="113.125"
   id="svg4485"
   version="1.1"
   inkscape:version="0.48.1 "
   sodipodi:docname="New document 4">
  <defs
     id="defs4487">
    <clipPath
       clipPathUnits="userSpaceOnUse"
       id="clipPath3185">
      <path
         inkscape:connector-curvature="0"
         d="m 63.125,46.835 512.875,0 0,363.415 -512.875,0 0,-363.415 z"
         id="path3187" />
    </clipPath>
    <clipPath
       clipPathUnits="userSpaceOnUse"
       id="clipPath3173">
      <path
         inkscape:connector-curvature="0"
         d="m 67.483,46.836 504.159,0 0,363.414 -504.159,0 0,-363.414 z"
         id="path3175" />
    </clipPath>
  </defs>
  <sodipodi:namedview
     id="base"
     pagecolor="#ffffff"
     bordercolor="#666666"
     borderopacity="1.0"
     inkscape:pageopacity="0.0"
     inkscape:pageshadow="2"
     inkscape:zoom="0.35"
     inkscape:cx="185.84796"
     inkscape:cy="30.83478"
     inkscape:document-units="px"
     inkscape:current-layer="layer1"
     showgrid="false"
     fit-margin-top="0"
     fit-margin-left="0"
     fit-margin-right="0"
     fit-margin-bottom="0"
     inkscape:window-width="619"
     inkscape:window-height="520"
     inkscape:window-x="505"
     inkscape:window-y="77"
     inkscape:window-maximized="0" />
  <metadata
     id="metadata4490">
    <rdf:RDF>
      <cc:Work
         rdf:about="">
        <dc:format>image/svg+xml</dc:format>
        <dc:type
           rdf:resource="http://purl.org/dc/dcmitype/StillImage" />
        <dc:title></dc:title>
      </cc:Work>
    </rdf:RDF>
  </metadata>
  <g
     inkscape:label="Layer 1"
     inkscape:groupmode="layer"
     id="layer1"
     transform="translate(-189.15204,-450.07196)">
    <g
       transform="matrix(1.25,0,0,-1.25,104.79829,949.79115)"
       id="g3169">
      <g
         id="g3171"
         clip-path="url(#clipPath3173)">
        <g
           id="g3177"
           transform="translate(157.7326,314.9316)">
          <path
             inkscape:connector-curvature="0"
             d="m 0,0 0,79.167 c 0,1.427 -0.601,2.829 -1.6,3.842 -0.97,0.984 -2.302,1.574 -3.689,1.574 l -79.464,0 c -1.362,0 -2.689,-0.596 -3.645,-1.558 C -89.409,82.012 -90,80.601 -90,79.167 l 0,-79.128 c 0,-1.501 0.58,-2.993 1.646,-4.053 0.91,-0.903 2.113,-1.403 3.392,-1.403 l 79.673,0 c 1.365,0 2.679,0.571 3.645,1.53 C -0.617,-2.874 0,-1.45 0,0 z"
             style="fill:none;stroke:#231f20;stroke-width:0.5;stroke-linecap:butt;stroke-linejoin:miter;stroke-miterlimit:4;stroke-opacity:1;stroke-dasharray:none"
             id="path3179" />
        </g>
      </g>
    </g>
    <g
       transform="matrix(1.25,0,0,-1.25,104.79829,949.79115)"
       id="g3181">
      <g
         id="g3183"
         clip-path="url(#clipPath3185)">
        <g
           id="g3189"
           transform="translate(112.7346,398.0102)">
          <path
             inkscape:connector-curvature="0"
             d="m 0,0 c 1.14,0.037 2.283,-0.003 3.418,-0.112 3.008,-0.298 6.022,-0.767 8.921,-1.641 9.692,-2.925 18.276,-9.254 23.888,-17.678 4.728,-7.101 7.267,-15.537 7.267,-24.064 0.003,-8.524 -2.527,-16.957 -7.253,-24.051 -4.812,-7.229 -11.766,-12.964 -19.809,-16.243 -7.832,-3.194 -16.558,-4.007 -24.857,-2.393 -8.438,1.646 -16.266,5.843 -22.34,11.924 -6.076,6.079 -10.27,13.914 -11.92,22.354 -1.619,8.295 -0.804,17.016 2.397,24.841 3.34,8.164 9.236,15.239 16.57,20.117 4.616,3.075 9.926,4.954 15.341,6.016 C -5.615,-0.39 -2.812,-0.076 0,0"
             style="fill:#bf2519;fill-opacity:1;fill-rule:evenodd;stroke:none"
             id="path3191" />
        </g>
        <g
           id="g3193"
           transform="translate(149.4806,362.0116)">
          <path
             inkscape:connector-curvature="0"
             d="m 0,0 -73.494,0 c -0.298,-1.545 -0.532,-3.093 -0.652,-4.663 -0.146,-1.887 -0.143,-3.792 0,-5.681 0.117,-1.565 0.351,-3.111 0.652,-4.649 l 73.494,0 c 0.298,1.56 0.516,3.123 0.645,4.705 0.15,1.855 0.15,3.717 0,5.57 C 0.516,-3.13 0.296,-1.563 0,0"
             style="fill:#ffffff;fill-opacity:1;fill-rule:evenodd;stroke:none"
             id="path3195" />
        </g>
        <g
           id="g3197"
           transform="translate(129.1926,381.1523)">
          <path
             inkscape:connector-curvature="0"
             d="m 0,0 c -0.832,0 -1.705,-0.193 -2.375,-0.713 -1.202,-0.933 -1.675,-2.585 -1.893,-4.023 -0.169,-1.137 -0.169,-2.303 0,-3.44 0.263,-1.733 0.974,-3.96 2.859,-4.519 1.696,-0.506 3.619,-0.157 4.611,1.414 0.892,1.408 1.193,3.188 1.193,4.831 0,1.617 -0.31,3.428 -1.187,4.814 C 2.478,-0.481 1.341,0 0,0"
             style="fill:#ffffff;fill-opacity:1;fill-rule:evenodd;stroke:none"
             id="path3199" />
        </g>
        <g
           id="g3201"
           transform="translate(97.8195,381.1523)">
          <path
             inkscape:connector-curvature="0"
             d="m 0,0 c -0.83,0 -1.705,-0.193 -2.373,-0.713 -1.202,-0.933 -1.677,-2.585 -1.892,-4.023 -0.174,-1.137 -0.171,-2.303 0,-3.44 0.26,-1.733 0.972,-3.96 2.858,-4.519 1.696,-0.506 3.619,-0.157 4.611,1.414 0.891,1.408 1.193,3.188 1.193,4.831 C 4.394,-4.773 4.072,-2.974 3.162,-1.536 2.498,-0.483 1.202,0 0,0"
             style="fill:#ffffff;fill-opacity:1;fill-rule:evenodd;stroke:none"
             id="path3203" />
        </g>
        <g
           id="g3205"
           transform="translate(100.1144,340.7275)">
          <path
             inkscape:connector-curvature="0"
             d="m 0,0 -1.925,0 0,-12.463 1.952,0 0,8.383 4.706,-8.383 1.735,0 0,12.497 -1.955,0 0,-8.098 L 0,0 z"
             style="fill:#ffffff;fill-opacity:1;fill-rule:evenodd;stroke:none"
             id="path3207" />
        </g>
        <g
           id="g3209"
           transform="translate(137.2414,328.2641)">
          <path
             inkscape:connector-curvature="0"
             d="m 0,0 -2.216,5.788 c 0.632,0.33 1.069,0.662 1.465,1.282 0.748,1.162 0.739,2.705 -0.024,3.853 -0.651,0.974 -1.761,1.579 -2.931,1.579 l -4.688,0 0,-12.502 1.956,0 0,5.471 2.24,0 L -2.099,0 0,0 z"
             style="fill:#ffffff;fill-opacity:1;fill-rule:evenodd;stroke:none"
             id="path3211" />
        </g>
        <g
           id="g3213"
           transform="translate(82.7346,380.9521)">
          <path
             inkscape:connector-curvature="0"
             d="m 0,0 0,-12.5 3.767,0 c 0.575,0 1.094,-0.016 1.65,0.197 1.761,0.672 2.564,2.645 2.845,4.365 0.268,1.634 0.153,3.345 -0.362,4.92 -0.363,1.102 -1.126,2.32 -2.251,2.772 C 5.047,-0.003 4.616,0 4.012,0 L 0,0 z"
             style="fill:#ffffff;fill-opacity:1;fill-rule:evenodd;stroke:none"
             id="path3215" />
        </g>
        <g
           id="g3217"
           transform="translate(115.4621,380.9115)">
          <path
             inkscape:connector-curvature="0"
             d="m 0,0 -1.925,0 0,-12.459 1.953,0 0,8.382 4.705,-8.382 1.735,0 0,12.492 -1.954,0 0,-8.098 L 0,0 z"
             style="fill:#ffffff;fill-opacity:1;fill-rule:evenodd;stroke:none"
             id="path3219" />
        </g>
        <g
           id="g3221"
           transform="translate(140.7717,378.9843)">
          <path
             inkscape:connector-curvature="0"
             d="m 0,0 2.834,0 0,1.968 -7.609,0 0,-1.968 2.822,0 0,-10.532 1.953,0 L 0,0 z"
             style="fill:#ffffff;fill-opacity:1;fill-rule:evenodd;stroke:none"
             id="path3223" />
        </g>
        <g
           id="g3225"
           transform="translate(113.7043,338.7987)">
          <path
             inkscape:connector-curvature="0"
             d="m 0,0 2.836,0 0,1.968 -7.611,0 0,-1.968 2.824,0 0,-10.535 1.951,0 L 0,0 z"
             style="fill:#ffffff;fill-opacity:1;fill-rule:evenodd;stroke:none"
             id="path3227" />
        </g>
        <g
           id="g3229"
           transform="translate(88.2326,328.2641)">
          <path
             inkscape:connector-curvature="0"
             d="m 0,0 7.609,0 0,1.953 -5.658,0 0,3.518 4.023,0 0,1.951 -4.023,0 0,3.113 5.266,0 0,1.967 L 0,12.502 0,0 z"
             style="fill:#ffffff;fill-opacity:1;fill-rule:evenodd;stroke:none"
             id="path3231" />
        </g>
        <g
           id="g3233"
           transform="translate(118.8898,328.2641)">
          <path
             inkscape:connector-curvature="0"
             d="m 0,0 7.61,0 0,1.953 -5.658,0 0,3.518 4.024,0 0,1.951 -4.024,0 0,3.113 5.267,0 0,1.967 L 0,12.502 0,0 z"
             style="fill:#ffffff;fill-opacity:1;fill-rule:evenodd;stroke:none"
             id="path3235" />
        </g>
        <g
           id="g3237"
           transform="translate(97.8195,379.2016)">
          <path
             inkscape:connector-curvature="0"
             d="m 0,0 c 1.298,0 1.888,-1.033 2.166,-2.173 0.371,-1.524 0.374,-3.132 0,-4.659 -0.188,-0.758 -0.579,-1.725 -1.381,-2.026 -1.068,-0.397 -2.06,-0.009 -2.569,1 -0.511,1.012 -0.658,2.235 -0.658,3.358 0,1.122 0.15,2.348 0.66,3.362 C -1.423,-0.425 -0.808,0 0,0"
             style="fill:#bf2519;fill-opacity:1;fill-rule:evenodd;stroke:none"
             id="path3239" />
        </g>
        <g
           id="g3241"
           transform="translate(129.1926,379.2016)">
          <path
             inkscape:connector-curvature="0"
             d="m 0,0 c 1.298,0 1.885,-1.033 2.163,-2.173 0.373,-1.524 0.375,-3.135 0,-4.659 -0.186,-0.758 -0.578,-1.725 -1.38,-2.026 -1.068,-0.397 -2.06,-0.009 -2.567,1 -0.511,1.012 -0.66,2.235 -0.66,3.358 0,1.122 0.149,2.348 0.662,3.362 C -1.426,-0.425 -0.811,0 0,0"
             style="fill:#bf2519;fill-opacity:1;fill-rule:evenodd;stroke:none"
             id="path3243" />
        </g>
        <g
           id="g3245"
           transform="translate(84.6838,370.4516)">
          <path
             inkscape:connector-curvature="0"
             d="m 0,0 0,8.5 2.25,0 C 3.02,8.5 3.565,8.085 3.897,7.405 4.698,5.766 4.73,2.767 3.855,1.155 3.428,0.367 2.883,0 2.001,0 L 0,0 z"
             style="fill:#bf2519;fill-opacity:1;fill-rule:evenodd;stroke:none"
             id="path3247" />
        </g>
        <g
           id="g3249"
           transform="translate(130.8029,335.6859)">
          <path
             inkscape:connector-curvature="0"
             d="M 0,0 0,3.125 2.732,3.113 C 3.25,3.11 3.738,2.854 4.024,2.422 4.365,1.909 4.363,1.213 4.024,0.701 3.743,0.271 3.247,0 2.732,0 L 0,0 z"
             style="fill:#bf2519;fill-opacity:1;fill-rule:evenodd;stroke:none"
             id="path3251" />
        </g>
      </g>
    </g>
  </g>
</svg>
