<?xml version="1.0" encoding="UTF-8" standalone="no"?>
<!-- Created with Inkscape (http://www.inkscape.org/) -->

<svg
   xmlns:dc="http://purl.org/dc/elements/1.1/"
   xmlns:cc="http://creativecommons.org/ns#"
   xmlns:rdf="http://www.w3.org/1999/02/22-rdf-syntax-ns#"
   xmlns:svg="http://www.w3.org/2000/svg"
   xmlns="http://www.w3.org/2000/svg"
   xmlns:sodipodi="http://sodipodi.sourceforge.net/DTD/sodipodi-0.dtd"
   xmlns:inkscape="http://www.inkscape.org/namespaces/inkscape"
   width="113.75"
   height="68.515625"
   id="svg6376"
   version="1.1"
   inkscape:version="0.48.1 "
   sodipodi:docname="New document 25">
  <defs
     id="defs6378" />
  <sodipodi:namedview
     id="base"
     pagecolor="#ffffff"
     bordercolor="#666666"
     borderopacity="1.0"
     inkscape:pageopacity="0.0"
     inkscape:pageshadow="2"
     inkscape:zoom="0.35"
     inkscape:cx="0.44893"
     inkscape:cy="-62.88567"
     inkscape:document-units="px"
     inkscape:current-layer="layer1"
     showgrid="false"
     inkscape:window-width="469"
     inkscape:window-height="403"
     inkscape:window-x="75"
     inkscape:window-y="75"
     inkscape:window-maximized="0"
     fit-margin-top="0"
     fit-margin-left="0"
     fit-margin-right="0"
     fit-margin-bottom="0" />
  <metadata
     id="metadata6381">
    <rdf:RDF>
      <cc:Work
         rdf:about="">
        <dc:format>image/svg+xml</dc:format>
        <dc:type
           rdf:resource="http://purl.org/dc/dcmitype/StillImage" />
        <dc:title></dc:title>
      </cc:Work>
    </rdf:RDF>
  </metadata>
  <g
     inkscape:label="Layer 1"
     inkscape:groupmode="layer"
     id="layer1"
     transform="translate(-374.55107,-400.96089)">
    <g
       id="g3723"
       transform="matrix(1.25,0,0,-1.25,487.98857,463.49995)">
      <path
         d="m 0,0 c 0,-2.5 -2.025,-4.525 -4.523,-4.525 l -81.448,0 c -2.499,0 -4.525,2.025 -4.525,4.525 l 0,45.249 c 0,2.499 2.026,4.525 4.525,4.525 l 81.448,0 C -2.025,49.774 0,47.748 0,45.249 L 0,0 z"
         style="fill:#ffffff;fill-opacity:1;fill-rule:nonzero;stroke:none"
         id="path3725"
         inkscape:connector-curvature="0" />
    </g>
    <g
       id="g3727"
       transform="matrix(1.25,0,0,-1.25,487.98857,463.49995)">
      <path
         d="m 0,0 c 0,-2.5 -2.025,-4.525 -4.523,-4.525 l -81.448,0 c -2.499,0 -4.525,2.025 -4.525,4.525 l 0,45.249 c 0,2.499 2.026,4.525 4.525,4.525 l 81.448,0 C -2.025,49.774 0,47.748 0,45.249 L 0,0 z"
         style="fill:none;stroke:#231f20;stroke-width:0.5;stroke-linecap:butt;stroke-linejoin:miter;stroke-miterlimit:4;stroke-opacity:1;stroke-dasharray:none"
         id="path3729"
         inkscape:connector-curvature="0" />
    </g>
    <g
       id="g3731"
       transform="matrix(1.25,0,0,-1.25,484.21907,463.49995)">
      <path
         d="m 0,0 c 0,-0.832 -0.676,-1.509 -1.508,-1.509 l -81.447,0 c -0.832,0 -1.509,0.677 -1.509,1.509 l 0,45.249 c 0,0.831 0.677,1.508 1.509,1.508 l 81.447,0 C -0.676,46.757 0,46.08 0,45.249 L 0,0 z m -1.508,48.642 -81.447,0 c -1.871,0 -3.394,-1.522 -3.394,-3.393 l 0,-45.249 c 0,-1.871 1.523,-3.394 3.394,-3.394 l 81.447,0 c 1.871,0 3.393,1.523 3.393,3.394 l 0,45.249 c 0,1.871 -1.522,3.393 -3.393,3.393"
         style="fill:#231f20;fill-opacity:1;fill-rule:nonzero;stroke:none"
         id="path3733"
         inkscape:connector-curvature="0" />
    </g>
    <g
       id="g3735"
       transform="matrix(1.25,0,0,-1.25,430.00395,423.90745)">
      <path
         d="m 0,0 -1.387,0 -3.305,6 0,-6 -1.447,0 0,9.05 1.405,0 3.289,-5.964 0,5.964 L 0,9.05 0,0 z"
         style="fill:#231f20;fill-opacity:1;fill-rule:nonzero;stroke:none"
         id="path3737"
         inkscape:connector-curvature="0" />
    </g>
    <g
       id="g3739"
       transform="matrix(1.25,0,0,-1.25,438.72232,418.2512)">
      <path
         d="m 0,0 c 0,0.925 -0.137,1.666 -0.408,2.222 -0.308,0.634 -0.76,0.952 -1.358,0.952 -0.603,0 -1.055,-0.318 -1.357,-0.952 C -3.395,1.671 -3.53,0.931 -3.53,0 c 0,-0.925 0.135,-1.666 0.407,-2.222 0.307,-0.634 0.761,-0.952 1.357,-0.952 0.598,0 1.05,0.318 1.358,0.952 C -0.137,-1.666 0,-0.925 0,0 m 1.445,0 c 0,-1.22 -0.218,-2.237 -0.651,-3.052 -0.561,-1.045 -1.414,-1.567 -2.56,-1.567 -1.151,0 -2.004,0.522 -2.558,1.567 -0.435,0.809 -0.652,1.826 -0.652,3.052 0,1.226 0.217,2.243 0.652,3.052 0.554,1.045 1.407,1.567 2.558,1.567 1.146,0 1.999,-0.522 2.56,-1.567 C 1.227,2.237 1.445,1.22 1.445,0"
         style="fill:#231f20;fill-opacity:1;fill-rule:nonzero;stroke:none"
         id="path3741"
         inkscape:connector-curvature="0" />
    </g>
    <g
       id="g3743"
       transform="matrix(1.25,0,0,-1.25,395.40069,432.80245)">
      <path
         d="m 0,0 c 0,0.792 -0.31,1.233 -0.933,1.324 l -1.602,0 0,-2.629 1.602,0 C -0.31,-1.275 0,-0.84 0,0 m 1.268,0 c 0,-1.063 -0.375,-1.809 -1.123,-2.237 -0.386,-0.224 -0.767,-0.335 -1.141,-0.335 l -1.539,0 0,-3.886 -1.267,0 0,9.049 2.806,0 c 0.38,0 0.761,-0.109 1.141,-0.326 C 0.893,1.836 1.268,1.081 1.268,0"
         style="fill:#231f20;fill-opacity:1;fill-rule:nonzero;stroke:none"
         id="path3745"
         inkscape:connector-curvature="0" />
    </g>
    <g
       id="g3747"
       transform="matrix(1.25,0,0,-1.25,405.01382,440.8887)">
      <path
         d="m 0,0 -4.615,0.011 0,9.049 4.615,0 0,-1.267 -3.348,0 0,-2.357 1.991,0 0,-1.267 -1.991,0 0,-2.891 L 0,1.278 0,0 z"
         style="fill:#231f20;fill-opacity:1;fill-rule:nonzero;stroke:none"
         id="path3749"
         inkscape:connector-curvature="0" />
    </g>
    <g
       id="g3751"
       transform="matrix(1.25,0,0,-1.25,411.68982,435.2262)">
      <path
         d="m 0,0 c 0,2.175 -0.513,3.263 -1.539,3.263 l -0.995,0 0,-6.525 0.995,0 C -0.513,-3.262 0,-2.175 0,0 M 1.268,0.005 C 1.268,-1.806 0.911,-3.088 0.199,-3.842 -0.235,-4.3 -0.748,-4.53 -1.34,-4.53 l -0.199,0 -2.263,0 0,9.06 2.363,0 c 0.591,0 1.098,-0.193 1.521,-0.579 0.79,-0.724 1.186,-2.039 1.186,-3.946"
         style="fill:#231f20;fill-opacity:1;fill-rule:nonzero;stroke:none"
         id="path3753"
         inkscape:connector-curvature="0" />
    </g>
    <g
       id="g3755"
       transform="matrix(1.25,0,0,-1.25,421.30282,440.8887)">
      <path
         d="m 0,0 -4.615,0.011 0,9.049 4.615,0 0,-1.267 -3.348,0 0,-2.357 1.991,0 0,-1.267 -1.991,0 0,-2.891 L 0,1.278 0,0 z"
         style="fill:#231f20;fill-opacity:1;fill-rule:nonzero;stroke:none"
         id="path3757"
         inkscape:connector-curvature="0" />
    </g>
    <g
       id="g3759"
       transform="matrix(1.25,0,0,-1.25,429.00057,437.7887)">
      <path
         d="m 0,0 c 0,-0.641 -0.166,-1.193 -0.498,-1.658 -0.429,-0.604 -1.062,-0.906 -1.901,-0.906 -0.942,0 -1.645,0.302 -2.11,0.906 -0.374,0.478 -0.561,1.079 -0.561,1.804 l 1.267,0 c 0,-0.526 0.166,-0.916 0.499,-1.17 0.247,-0.181 0.55,-0.272 0.907,-0.272 0.725,0 1.087,0.431 1.087,1.295 0,0.676 -0.293,1.229 -0.878,1.658 -0.542,0.338 -1.088,0.673 -1.637,1.005 -0.585,0.453 -0.878,1.045 -0.878,1.776 0,0.476 0.133,0.914 0.397,1.313 0.41,0.616 1.068,0.923 1.972,0.923 0.953,0 1.628,-0.356 2.026,-1.069 C -0.146,5.309 -0.043,4.949 0,4.526 l -1.268,0 c 0,0.151 -0.051,0.303 -0.154,0.454 -0.181,0.285 -0.487,0.427 -0.916,0.427 -0.732,0 -1.097,-0.323 -1.097,-0.969 0,-0.356 0.295,-0.712 0.887,-1.069 C -1.665,2.85 -1.112,2.482 -0.889,2.264 -0.297,1.678 0,0.923 0,0"
         style="fill:#231f20;fill-opacity:1;fill-rule:nonzero;stroke:none"
         id="path3761"
         inkscape:connector-curvature="0" />
    </g>
    <g
       id="g3763"
       transform="matrix(1.25,0,0,-1.25,435.78407,431.14745)">
      <path
         d="m 0,0 -1.672,0 0,-7.782 -1.268,0 0,7.782 -1.675,0 0,1.267 L 0,1.267 0,0 z"
         style="fill:#231f20;fill-opacity:1;fill-rule:nonzero;stroke:none"
         id="path3765"
         inkscape:connector-curvature="0" />
    </g>
    <g
       id="g3767"
       transform="matrix(1.25,0,0,-1.25,442.11707,432.6212)">
      <path
         d="m 0,0 c 0,0.75 -0.311,1.142 -0.931,1.179 l -1.602,0 0,-2.357 1.602,0 C -0.311,-1.142 0,-0.749 0,0 m 1.268,-6.603 -1.313,0 -1.194,4.158 -1.294,0 0,-4.158 -1.268,0 0,9.049 2.807,0 C -0.512,2.404 -0.24,2.377 -0.18,2.365 0.236,2.268 0.563,2.069 0.797,1.767 1.111,1.364 1.268,0.775 1.268,0.003 c 0,-1.116 -0.42,-1.852 -1.26,-2.208 l 1.26,-4.398 z"
         style="fill:#231f20;fill-opacity:1;fill-rule:nonzero;stroke:none"
         id="path3769"
         inkscape:connector-curvature="0" />
    </g>
    <path
       d="m 447.20745,440.87545 -1.585,0 0,-11.31125 1.585,0 0,11.31125 z"
       style="fill:#231f20;fill-opacity:1;fill-rule:nonzero;stroke:none"
       id="path3771"
       inkscape:connector-curvature="0" />
    <g
       id="g3773"
       transform="matrix(1.25,0,0,-1.25,453.29382,436.2412)">
      <path
         d="M 0,0 -0.705,2.944 -1.42,0 0,0 z m 2.189,-3.707 -1.293,0 -0.587,2.44 -2.038,0 -0.587,-2.44 -1.286,0 2.19,9.049 1.412,0 2.189,-9.049 z"
         style="fill:#231f20;fill-opacity:1;fill-rule:nonzero;stroke:none"
         id="path3775"
         inkscape:connector-curvature="0" />
    </g>
    <g
       id="g3777"
       transform="matrix(1.25,0,0,-1.25,463.95057,440.87495)">
      <path
         d="m 0,0 -1.268,0 -2.535,5.855 0,-5.855 -1.267,0 0,9.049 1.267,0 L -1.27,3.203 -1.268,9.049 0,9.049 0,0 z"
         style="fill:#231f20;fill-opacity:1;fill-rule:nonzero;stroke:none"
         id="path3779"
         inkscape:connector-curvature="0" />
    </g>
    <g
       id="g3781"
       transform="matrix(1.25,0,0,-1.25,472.20982,437.7887)">
      <path
         d="m 0,0 c 0,-0.641 -0.166,-1.193 -0.496,-1.658 -0.43,-0.604 -1.063,-0.906 -1.902,-0.906 -0.942,0 -1.645,0.302 -2.11,0.906 -0.373,0.478 -0.56,1.079 -0.56,1.804 l 1.267,0 c 0,-0.526 0.166,-0.916 0.498,-1.17 0.248,-0.181 0.551,-0.272 0.907,-0.272 0.724,0 1.087,0.431 1.087,1.295 0,0.676 -0.293,1.229 -0.877,1.658 -0.543,0.338 -1.089,0.673 -1.638,1.005 -0.586,0.453 -0.877,1.045 -0.877,1.776 0,0.476 0.131,0.914 0.396,1.313 0.41,0.616 1.069,0.923 1.973,0.923 0.951,0 1.627,-0.356 2.025,-1.069 C -0.145,5.309 -0.041,4.949 0,4.526 l -1.266,0 c 0,0.151 -0.052,0.303 -0.154,0.454 -0.182,0.285 -0.488,0.427 -0.918,0.427 -0.73,0 -1.098,-0.323 -1.098,-0.969 0,-0.356 0.297,-0.712 0.889,-1.069 C -1.664,2.85 -1.111,2.482 -0.887,2.264 -0.295,1.678 0,0.923 0,0"
         style="fill:#231f20;fill-opacity:1;fill-rule:nonzero;stroke:none"
         id="path3783"
         inkscape:connector-curvature="0" />
    </g>
    <g
       id="g3785"
       transform="matrix(1.25,0,0,-1.25,395.62894,452.18745)">
      <path
         d="M 0,0 C 0,0.773 -0.078,1.446 -0.235,2.02 -0.471,2.908 -0.859,3.352 -1.403,3.352 -1.946,3.352 -2.336,2.908 -2.571,2.02 -2.729,1.446 -2.807,0.773 -2.807,0 c 0,-0.773 0.078,-1.446 0.236,-2.02 0.235,-0.888 0.625,-1.331 1.168,-1.331 0.544,0 0.932,0.443 1.168,1.331 C -0.078,-1.446 0,-0.773 0,0 m 1.268,0 c 0,-1.111 -0.127,-2.032 -0.38,-2.763 C 0.453,-4 -0.31,-4.619 -1.403,-4.619 c -1.093,0 -1.856,0.619 -2.29,1.856 -0.254,0.731 -0.381,1.652 -0.381,2.763 0,3.079 0.891,4.619 2.671,4.619 1.781,0 2.671,-1.54 2.671,-4.619"
         style="fill:#231f20;fill-opacity:1;fill-rule:nonzero;stroke:none"
         id="path3787"
         inkscape:connector-curvature="0" />
    </g>
    <g
       id="g3789"
       transform="matrix(1.25,0,0,-1.25,404.22157,449.5887)">
      <path
         d="m 0,0 c 0,0.749 -0.311,1.142 -0.932,1.178 l -1.602,0 0,-2.356 1.602,0 C -0.311,-1.142 0,-0.749 0,0 m 1.267,-6.604 -1.312,0 -1.195,4.158 -1.294,0 0,-4.158 -1.268,0 0,9.05 2.807,0 C -0.513,2.403 -0.241,2.377 -0.181,2.364 0.235,2.268 0.561,2.069 0.797,1.767 1.11,1.363 1.267,0.775 1.267,0.003 1.267,-1.114 0.848,-1.85 0.008,-2.206 l 1.259,-4.398 z"
         style="fill:#231f20;fill-opacity:1;fill-rule:nonzero;stroke:none"
         id="path3791"
         inkscape:connector-curvature="0" />
    </g>
    <g
       id="g3793"
       transform="matrix(1.25,0,0,-1.25,419.26669,454.42995)">
      <path
         d="M 0,0 C 0,0.602 -0.22,1.021 -0.66,1.256 -0.878,1.37 -1.107,1.427 -1.349,1.427 l -1.185,0 0,-2.89 1.385,0 c 0.186,0 0.382,0.069 0.589,0.207 C -0.186,-1.009 0,-0.59 0,0 m -0.262,3.878 c 0,0.721 -0.343,1.113 -1.032,1.173 l -1.24,0 0,-2.356 1.05,0 c 0.815,0 1.222,0.394 1.222,1.183 m 1.53,-3.894 c 0,-1.212 -0.435,-2.03 -1.304,-2.452 -0.368,-0.175 -0.812,-0.263 -1.33,-0.263 l -2.436,0 0,9.05 2.608,0 C -0.766,6.271 -0.397,6.159 -0.09,5.984 0.641,5.555 1.006,4.832 1.006,3.812 1.006,2.84 0.66,2.253 -0.031,2.047 0.835,1.571 1.268,0.883 1.268,-0.016"
         style="fill:#231f20;fill-opacity:1;fill-rule:nonzero;stroke:none"
         id="path3795"
         inkscape:connector-curvature="0" />
    </g>
    <path
       d="m 424.35619,457.8442 -1.58375,0 0,-11.3125 1.58375,0 0,11.3125 z"
       style="fill:#231f20;fill-opacity:1;fill-rule:nonzero;stroke:none"
       id="path3797"
       inkscape:connector-curvature="0" />
    <g
       id="g3799"
       transform="matrix(1.25,0,0,-1.25,432.95682,454.8687)">
      <path
         d="m 0,0 c -0.085,-0.483 -0.221,-0.894 -0.407,-1.232 -0.447,-0.828 -1.11,-1.242 -1.991,-1.242 -1.092,0 -1.856,0.619 -2.29,1.856 -0.253,0.731 -0.38,1.652 -0.38,2.763 0,3.079 0.889,4.619 2.67,4.619 0.85,0 1.505,-0.372 1.963,-1.116 C -0.242,5.34 -0.097,4.968 0,4.533 l -1.357,0 c -0.206,0.642 -0.553,0.964 -1.041,0.964 -0.543,0 -0.932,-0.444 -1.167,-1.332 -0.158,-0.574 -0.236,-1.247 -0.236,-2.02 0,-0.773 0.078,-1.446 0.236,-2.02 0.235,-0.888 0.624,-1.331 1.167,-1.331 0.531,0 0.889,0.401 1.077,1.206 L 0,0 z"
         style="fill:#231f20;fill-opacity:1;fill-rule:nonzero;stroke:none"
         id="path3801"
         inkscape:connector-curvature="0" />
    </g>
    <g
       id="g3803"
       transform="matrix(1.25,0,0,-1.25,441.55057,446.5312)">
      <path
         d="m 0,0 -2.262,-4.878 0,-4.172 -1.266,0 0,4.172 L -5.791,0 -4.425,0 -2.896,-3.276 -1.375,0 0,0 z"
         style="fill:#231f20;fill-opacity:1;fill-rule:nonzero;stroke:none"
         id="path3805"
         inkscape:connector-curvature="0" />
    </g>
    <g
       id="g3807"
       transform="matrix(1.25,0,0,-1.25,449.24594,454.8687)">
      <path
         d="m 0,0 c -0.086,-0.483 -0.221,-0.894 -0.408,-1.232 -0.445,-0.828 -1.11,-1.242 -1.99,-1.242 -1.092,0 -1.856,0.619 -2.289,1.856 -0.254,0.731 -0.381,1.652 -0.381,2.763 0,3.079 0.89,4.619 2.67,4.619 0.849,0 1.503,-0.372 1.962,-1.116 C -0.242,5.34 -0.098,4.968 0,4.533 l -1.357,0 c -0.206,0.642 -0.553,0.964 -1.041,0.964 -0.543,0 -0.932,-0.444 -1.168,-1.332 -0.157,-0.574 -0.235,-1.247 -0.235,-2.02 0,-0.773 0.078,-1.446 0.235,-2.02 0.236,-0.888 0.625,-1.331 1.168,-1.331 0.531,0 0.888,0.401 1.076,1.206 L 0,0 z"
         style="fill:#231f20;fill-opacity:1;fill-rule:nonzero;stroke:none"
         id="path3809"
         inkscape:connector-curvature="0" />
    </g>
    <g
       id="g3811"
       transform="matrix(1.25,0,0,-1.25,457.27332,457.8437)">
      <path
         d="m 0,0 -4.615,0 0,9.05 1.267,0 0,-7.782 L 0,1.268 0,0 z"
         style="fill:#231f20;fill-opacity:1;fill-rule:nonzero;stroke:none"
         id="path3813"
         inkscape:connector-curvature="0" />
    </g>
    <g
       id="g3815"
       transform="matrix(1.25,0,0,-1.25,464.62682,457.8562)">
      <path
         d="m 0,0 -4.617,0.01 0,9.05 4.617,0 0,-1.268 -3.35,0 0,-2.356 1.991,0 0,-1.268 -1.991,0 0,-2.89 3.35,0 L 0,0 z"
         style="fill:#231f20;fill-opacity:1;fill-rule:nonzero;stroke:none"
         id="path3817"
         inkscape:connector-curvature="0" />
    </g>
    <g
       id="g3819"
       transform="matrix(1.25,0,0,-1.25,472.32207,454.75745)">
      <path
         d="m 0,0 c 0,-0.64 -0.166,-1.192 -0.498,-1.657 -0.428,-0.604 -1.063,-0.906 -1.9,-0.906 -0.942,0 -1.645,0.302 -2.11,0.906 -0.375,0.477 -0.56,1.079 -0.56,1.803 l 1.265,0 c 0,-0.525 0.166,-0.916 0.5,-1.17 0.248,-0.181 0.549,-0.271 0.907,-0.271 0.724,0 1.087,0.431 1.087,1.294 0,0.677 -0.293,1.229 -0.879,1.658 -0.542,0.339 -1.087,0.673 -1.636,1.006 -0.586,0.452 -0.879,1.044 -0.879,1.775 0,0.477 0.133,0.914 0.398,1.313 0.41,0.616 1.067,0.924 1.971,0.924 0.953,0 1.629,-0.357 2.027,-1.07 C -0.145,5.309 -0.041,4.95 0,4.527 l -1.268,0 c 0,0.151 -0.05,0.303 -0.154,0.454 -0.182,0.285 -0.486,0.427 -0.916,0.427 -0.732,0 -1.098,-0.323 -1.098,-0.97 0,-0.356 0.297,-0.712 0.889,-1.068 C -1.664,2.851 -1.111,2.482 -0.889,2.265 -0.297,1.679 0,0.924 0,0"
         style="fill:#231f20;fill-opacity:1;fill-rule:nonzero;stroke:none"
         id="path3821"
         inkscape:connector-curvature="0" />
    </g>
  </g>
</svg>
