<?xml version="1.0" encoding="UTF-8" standalone="no"?>
<!-- Created with Inkscape (http://www.inkscape.org/) -->

<svg
   xmlns:dc="http://purl.org/dc/elements/1.1/"
   xmlns:cc="http://creativecommons.org/ns#"
   xmlns:rdf="http://www.w3.org/1999/02/22-rdf-syntax-ns#"
   xmlns:svg="http://www.w3.org/2000/svg"
   xmlns="http://www.w3.org/2000/svg"
   xmlns:sodipodi="http://sodipodi.sourceforge.net/DTD/sodipodi-0.dtd"
   xmlns:inkscape="http://www.inkscape.org/namespaces/inkscape"
   width="90.625"
   height="90.625"
   id="svg4726"
   version="1.1"
   inkscape:version="0.48.1 "
   sodipodi:docname="New document 8">
  <defs
     id="defs4728">
    <clipPath
       clipPathUnits="userSpaceOnUse"
       id="clipPath3369">
      <path
         inkscape:connector-curvature="0"
         d="m 63.125,46.835 512.875,0 0,363.415 -512.875,0 0,-363.415 z"
         id="path3371" />
    </clipPath>
  </defs>
  <sodipodi:namedview
     id="base"
     pagecolor="#ffffff"
     bordercolor="#666666"
     borderopacity="1.0"
     inkscape:pageopacity="0.0"
     inkscape:pageshadow="2"
     inkscape:zoom="0.35"
     inkscape:cx="-19.68625"
     inkscape:cy="8.1702724"
     inkscape:document-units="px"
     inkscape:current-layer="layer1"
     showgrid="false"
     fit-margin-top="0"
     fit-margin-left="0"
     fit-margin-right="0"
     fit-margin-bottom="0"
     inkscape:window-width="469"
     inkscape:window-height="425"
     inkscape:window-x="175"
     inkscape:window-y="175"
     inkscape:window-maximized="0" />
  <metadata
     id="metadata4731">
    <rdf:RDF>
      <cc:Work
         rdf:about="">
        <dc:format>image/svg+xml</dc:format>
        <dc:type
           rdf:resource="http://purl.org/dc/dcmitype/StillImage" />
        <dc:title></dc:title>
      </cc:Work>
    </rdf:RDF>
  </metadata>
  <g
     inkscape:label="Layer 1"
     inkscape:groupmode="layer"
     id="layer1"
     transform="translate(-394.68625,-449.90745)">
    <g
       id="g3367"
       clip-path="url(#clipPath3369)"
       transform="matrix(1.25,0,0,-1.25,7.047875,927.11133)">
      <g
         id="g3373"
         transform="translate(314.8607,381.5131)">
        <path
           d="m 0,0 63.002,0 c 2.479,0 4.5,-2.022 4.5,-4.5 l 0,-62.999 c 0,-2.479 -2.021,-4.5 -4.5,-4.5 l -63.002,0 c -2.478,0 -4.5,2.021 -4.5,4.5 l 0,62.999 C -4.5,-2.022 -2.478,0 0,0"
           style="fill:#ffffff;fill-opacity:1;fill-rule:nonzero;stroke:none"
           id="path3375"
           inkscape:connector-curvature="0" />
      </g>
      <g
         id="g3377"
         transform="translate(314.8607,381.5131)">
        <path
           d="m 0,0 63.002,0 c 2.479,0 4.5,-2.022 4.5,-4.5 l 0,-62.999 c 0,-2.479 -2.021,-4.5 -4.5,-4.5 l -63.002,0 c -2.478,0 -4.5,2.021 -4.5,4.5 l 0,62.999 C -4.5,-2.022 -2.478,0 0,0 z"
           style="fill:none;stroke:#231f20;stroke-width:0.5;stroke-linecap:butt;stroke-linejoin:miter;stroke-miterlimit:4;stroke-opacity:1;stroke-dasharray:none"
           id="path3379"
           inkscape:connector-curvature="0" />
      </g>
      <g
         id="g3381"
         transform="translate(314.8766,380.3134)">
        <path
           d="m 0,0 7.268,0 17.029,0 19.625,0 15.059,0 3.578,0 c 1.152,0 2.248,-0.283 2.998,-1.237 0.662,-0.841 0.73,-1.773 0.73,-2.784 l 0,-4.042 0,-15.611 0,-19.676 0,-16.577 0,-4.888 c 0,-0.74 0.07,-1.539 -0.094,-2.266 C 65.85,-68.596 64.42,-69.6 62.904,-69.6 l -2.632,0 -13.893,0 -19.426,0 -17.797,0 -9.004,0 c -1.384,0 -2.697,0.728 -3.222,2.058 -0.311,0.783 -0.244,1.62 -0.244,2.443 l 0,11.874 0,18.875 0,18.714 0,11.389 c 0,0.575 -0.038,1.165 0.093,1.728 C -2.879,-1.047 -1.492,-0.005 0,0"
           style="fill:#231f20;fill-opacity:1;fill-rule:evenodd;stroke:none"
           id="path3383"
           inkscape:connector-curvature="0" />
      </g>
      <g
         id="g3385"
         transform="translate(314.8996,378.5131)">
        <path
           d="m 0,0 7.276,0 17.045,0 19.627,0 15.033,0 3.547,0 c 0.847,0 1.707,-0.235 1.904,-1.198 0.131,-0.636 0.031,-1.376 0.031,-2.016 l 0,-5.074 0,-16.789 0,-19.662 0,-15.354 0,-3.816 c 0,-0.798 -0.064,-1.612 -0.922,-1.973 -0.578,-0.244 -1.416,-0.117 -2.021,-0.117 l -4.834,0 -16.525,0 -19.686,0 -15.664,0 -4.08,0 c -0.754,0 -1.529,-0.049 -2.014,0.668 -0.377,0.559 -0.256,1.386 -0.256,2.027 l 0,4.588 0,16.25 0,19.696 0,15.962 0,4.338 c 0,0.704 -0.103,1.481 0.444,2.028 C -0.802,-0.15 -0.412,0.002 0,0"
           style="fill:#ffffff;fill-opacity:1;fill-rule:evenodd;stroke:none"
           id="path3387"
           inkscape:connector-curvature="0" />
      </g>
      <g
         id="g3389"
         transform="translate(361.1306,341.6313)">
        <path
           d="m 0,0 0.029,0 4.696,0 0,17.193 -25.643,0 0,-4.652 -4.111,0 c -1.668,0 -2.713,0 -3.405,-2.309 l -1.154,-2.919 -2.662,0 c -1.311,0 -1.311,0 -1.311,-1.263 l 0,-6.05 -1.398,0 0,-1.4 5.014,0 c 0.254,-1.903 1.47,-3.205 3.39,-3.205 1.903,0 3.196,1.332 3.623,3.205 l 2.014,0 1.178,1.4 12.185,0 C -7.586,-0.18 -7.6,-0.572 -7.6,-0.768 c 0,-2.113 1.723,-3.837 3.838,-3.837 2.114,0 3.836,1.724 3.836,3.837 C 0.074,-0.527 0.045,-0.225 0,0"
           style="fill:#231f20;fill-opacity:1;fill-rule:evenodd;stroke:none"
           id="path3391"
           inkscape:connector-curvature="0" />
      </g>
      <g
         id="g3393"
         transform="translate(366.3846,329.7758)">
        <path
           d="m 0,0 c 3.486,4.383 5.478,10.06 5.478,15.737 0,14.045 -11.455,25.5 -25.5,25.5 -5.677,0 -11.355,-1.992 -15.752,-5.471 L 0,0 z m -4.27,-4.295 c -4.396,-3.475 -10.074,-5.467 -15.752,-5.467 -14.045,0 -25.502,11.455 -25.502,25.499 0,5.678 1.993,11.455 5.481,15.838 L -4.27,-4.295 z m -15.752,51.532 c 17.35,0 31.5,-14.15 31.5,-31.5 0,-17.348 -14.15,-31.499 -31.5,-31.499 -17.349,0 -31.502,14.151 -31.502,31.499 0,17.35 14.153,31.5 31.502,31.5"
           style="fill:#bf2519;fill-opacity:1;fill-rule:evenodd;stroke:none"
           id="path3395"
           inkscape:connector-curvature="0" />
      </g>
    </g>
  </g>
</svg>
