<?xml version="1.0" encoding="UTF-8" standalone="no"?>
<!-- Created with Inkscape (http://www.inkscape.org/) -->

<svg
   xmlns:dc="http://purl.org/dc/elements/1.1/"
   xmlns:cc="http://creativecommons.org/ns#"
   xmlns:rdf="http://www.w3.org/1999/02/22-rdf-syntax-ns#"
   xmlns:svg="http://www.w3.org/2000/svg"
   xmlns="http://www.w3.org/2000/svg"
   xmlns:sodipodi="http://sodipodi.sourceforge.net/DTD/sodipodi-0.dtd"
   xmlns:inkscape="http://www.inkscape.org/namespaces/inkscape"
   width="90.625"
   height="113.125"
   id="svg7697"
   version="1.1"
   inkscape:version="0.48.1 "
   sodipodi:docname="New document 40">
  <defs
     id="defs7699">
    <clipPath
       clipPathUnits="userSpaceOnUse"
       id="clipPath7343">
      <path
         inkscape:connector-curvature="0"
         d="m 27.125,445.2 512.875,0 0,293.8 -512.875,0 0,-293.8 z"
         id="path7345" />
    </clipPath>
  </defs>
  <sodipodi:namedview
     id="base"
     pagecolor="#ffffff"
     bordercolor="#666666"
     borderopacity="1.0"
     inkscape:pageopacity="0.0"
     inkscape:pageshadow="2"
     inkscape:zoom="0.35"
     inkscape:cx="-19.6875"
     inkscape:cy="10.848192"
     inkscape:document-units="px"
     inkscape:current-layer="layer1"
     showgrid="false"
     fit-margin-top="0"
     fit-margin-left="0"
     fit-margin-right="0"
     fit-margin-bottom="0"
     inkscape:window-width="469"
     inkscape:window-height="403"
     inkscape:window-x="87"
     inkscape:window-y="81"
     inkscape:window-maximized="0" />
  <metadata
     id="metadata7702">
    <rdf:RDF>
      <cc:Work
         rdf:about="">
        <dc:format>image/svg+xml</dc:format>
        <dc:type
           rdf:resource="http://purl.org/dc/dcmitype/StillImage" />
        <dc:title></dc:title>
      </cc:Work>
    </rdf:RDF>
  </metadata>
  <g
     inkscape:label="Layer 1"
     inkscape:groupmode="layer"
     id="layer1"
     transform="translate(-394.6875,-430.08537)">
    <g
       transform="matrix(1.25,0,0,-1.25,147.23075,1281.216)"
       id="g7339">
      <g
         id="g7341"
         clip-path="url(#clipPath7343)">
        <g
           id="g7347"
           transform="translate(202.7154,590.6545)">
          <path
             inkscape:connector-curvature="0"
             d="m 0,0 63,0 c 2.456,0.001 4.5,2.043 4.5,4.5 l 0,81 C 67.499,87.956 65.457,90 63,90 L 0,90 c -2.457,-0.001 -4.5,-2.043 -4.5,-4.5 l 0,-81 C -4.5,1.866 -2.449,0.247 0,0"
             style="fill:#ffffff;fill-opacity:1;fill-rule:nonzero;stroke:#231f20;stroke-width:0.5;stroke-linecap:butt;stroke-linejoin:miter;stroke-miterlimit:4;stroke-opacity:1;stroke-dasharray:none"
             id="path7349" />
        </g>
        <g
           id="g7351"
           transform="translate(199.3574,595.1545)">
          <path
             inkscape:connector-curvature="0"
             d="m 0,0 0,81 c 0,1.833 1.525,3.357 3.358,3.357 l 63,0 c 1.832,0 3.357,-1.525 3.357,-3.357 l 0,-81 c 0,-1.832 -1.525,-3.358 -3.357,-3.358 l -63,0 C 1.526,-3.358 0,-1.833 0,0"
             style="fill:#231f20;fill-opacity:1;fill-rule:evenodd;stroke:none"
             id="path7353" />
        </g>
        <g
           id="g7355"
           transform="translate(201.2484,595.1545)">
          <path
             inkscape:connector-curvature="0"
             d="m 0,0 c 0,-0.794 0.664,-1.477 1.467,-1.477 l 63,0 c 0.792,0.011 1.467,0.683 1.467,1.477 l 0,81 c -0.004,0.794 -0.67,1.467 -1.467,1.467 l -63,0 C 0.665,82.462 0,81.805 0,81 L 0,0"
             style="fill:#ffffff;fill-opacity:1;fill-rule:evenodd;stroke:none"
             id="path7357" />
        </g>
        <g
           id="g7359"
           transform="translate(210.9234,611.9033)">
          <path
             inkscape:connector-curvature="0"
             d="m 0,0 15.906,11.739 c 0.523,0.387 1.248,0.447 1.846,0.219 0.654,-0.246 1.238,-0.918 1.205,-1.653 -0.008,-0.193 -0.053,-0.387 -0.116,-0.57 l -1.819,-5.226 30.229,0 0,-9.022 -30.229,0 1.819,-5.189 c 0.065,-0.19 0.108,-0.406 0.116,-0.606 0.027,-0.861 -0.737,-1.584 -1.545,-1.722 -0.494,-0.084 -1.088,-0.024 -1.506,0.285 L 0,0 z"
             style="fill:#231f20;fill-opacity:1;fill-rule:evenodd;stroke:none"
             id="path7361" />
        </g>
        <g
           id="g7363"
           transform="translate(223.8134,630.0508)">
          <path
             inkscape:connector-curvature="0"
             d="M 0,0 -2.499,0 -5.313,11.559 -8.142,0 l -2.566,0 -2.496,17.994 2.832,0 1.354,-9.684 2.373,9.684 2.645,0 2.355,-9.561 1.332,9.561 2.854,0 L 0,0 z"
             style="fill:#231f20;fill-opacity:1;fill-rule:evenodd;stroke:none"
             id="path7365" />
        </g>
        <g
           id="g7367"
           transform="translate(252.6434,637.9194)">
          <path
             inkscape:connector-curvature="0"
             d="m 0,0 0,-7.875 -2.817,0 0,7.854 -6.198,10.146 3.297,0 4.299,-6.999 4.299,6.999 3.297,0 L 0,0 z"
             style="fill:#231f20;fill-opacity:1;fill-rule:evenodd;stroke:none"
             id="path7369" />
        </g>
        <g
           id="g7371"
           transform="translate(232.1274,671.6006)">
          <path
             inkscape:connector-curvature="0"
             d="m 0,0 6.498,-11.613 0,11.658 2.814,0 0,-17.991 -2.5,0 -6.77,12.069 0,-12.069 -2.814,0 L -2.772,0 0,0 z"
             style="fill:#231f20;fill-opacity:1;fill-rule:evenodd;stroke:none"
             id="path7373" />
        </g>
        <g
           id="g7375"
           transform="translate(245.6515,653.6543)">
          <path
             inkscape:connector-curvature="0"
             d="m 0,0 0,18 10.395,0 0,-2.832 -7.584,0 0,-4.482 5.793,0 0,-2.811 -5.793,0 0,-5.064 8.148,0 L 10.959,0 0,0 z"
             style="fill:#231f20;fill-opacity:1;fill-rule:evenodd;stroke:none"
             id="path7377" />
        </g>
        <g
           id="g7379"
           transform="translate(218.8164,669.1343)">
          <path
             inkscape:connector-curvature="0"
             d="m 0,0 c -0.69,0 -1.407,-0.216 -1.902,-0.714 -1.023,-1.029 -1.353,-2.703 -1.518,-4.083 -0.261,-2.145 -0.082,-5.82 1.518,-7.452 0.766,-0.783 2.046,-0.87 3.029,-0.504 2.011,0.75 2.392,4.476 2.392,6.273 0,1.596 -0.231,3.402 -0.954,4.845 C 2.049,-0.609 1.161,0 0,0 m 0,2.808 c 1.728,0 3.591,-0.69 4.551,-2.205 1.309,-2.07 1.776,-4.665 1.779,-7.083 0,-2.343 -0.453,-4.947 -1.719,-6.954 -1.047,-1.653 -2.697,-2.334 -4.611,-2.334 -1.941,0 -3.567,0.681 -4.623,2.352 -1.263,2.001 -1.707,4.602 -1.707,6.936 0,2.337 0.45,4.947 1.716,6.954 1.041,1.647 2.706,2.334 4.614,2.334"
             style="fill:#231f20;fill-opacity:1;fill-rule:evenodd;stroke:none"
             id="path7381" />
        </g>
        <g
           id="g7383"
           transform="translate(235.0334,643.3974)">
          <path
             inkscape:connector-curvature="0"
             d="m 0,0 -1.627,-4.728 3.232,0 L 0,0 z m -1.375,4.647 2.77,0 6.084,-18 -2.958,0 -1.959,5.811 -5.166,0 -1.98,-5.811 -2.979,0 6.188,18 z"
             style="fill:#231f20;fill-opacity:1;fill-rule:evenodd;stroke:none"
             id="path7385" />
        </g>
      </g>
    </g>
  </g>
</svg>
