<?xml version="1.0" encoding="UTF-8" standalone="no"?>
<!-- Created with Inkscape (http://www.inkscape.org/) -->

<svg
   xmlns:dc="http://purl.org/dc/elements/1.1/"
   xmlns:cc="http://creativecommons.org/ns#"
   xmlns:rdf="http://www.w3.org/1999/02/22-rdf-syntax-ns#"
   xmlns:svg="http://www.w3.org/2000/svg"
   xmlns="http://www.w3.org/2000/svg"
   xmlns:sodipodi="http://sodipodi.sourceforge.net/DTD/sodipodi-0.dtd"
   xmlns:inkscape="http://www.inkscape.org/namespaces/inkscape"
   width="113.125"
   height="90.625"
   id="svg7844"
   version="1.1"
   inkscape:version="0.48.1 "
   sodipodi:docname="New document 42">
  <defs
     id="defs7846" />
  <sodipodi:namedview
     id="base"
     pagecolor="#ffffff"
     bordercolor="#666666"
     borderopacity="1.0"
     inkscape:pageopacity="0.0"
     inkscape:pageshadow="2"
     inkscape:zoom="0.7"
     inkscape:cx="159.63918"
     inkscape:cy="-18.115971"
     inkscape:document-units="px"
     inkscape:current-layer="layer1"
     showgrid="false"
     fit-margin-top="0"
     fit-margin-left="0"
     fit-margin-right="0"
     fit-margin-bottom="0"
     inkscape:window-width="469"
     inkscape:window-height="403"
     inkscape:window-x="25"
     inkscape:window-y="25"
     inkscape:window-maximized="0" />
  <metadata
     id="metadata7849">
    <rdf:RDF>
      <cc:Work
         rdf:about="">
        <dc:format>image/svg+xml</dc:format>
        <dc:type
           rdf:resource="http://purl.org/dc/dcmitype/StillImage" />
        <dc:title></dc:title>
      </cc:Work>
    </rdf:RDF>
  </metadata>
  <g
     inkscape:label="Layer 1"
     inkscape:groupmode="layer"
     id="layer1"
     transform="translate(-232.00893,-567.04968)">
    <g
       id="g7223"
       transform="matrix(1.25,0,0,-1.25,344.82143,651.73718)">
      <path
         d="m 0,0 0,63 c -0.001,2.456 -2.043,4.5 -4.5,4.5 l -81,0 C -87.956,67.499 -90,65.457 -90,63 l 0,-63 c 0.001,-2.457 2.043,-4.5 4.5,-4.5 l 81,0 c 2.633,0 4.253,2.051 4.5,4.5"
         style="fill:#ffffff;fill-opacity:1;fill-rule:nonzero;stroke:#231f20;stroke-width:0.5;stroke-linecap:butt;stroke-linejoin:miter;stroke-miterlimit:4;stroke-opacity:1;stroke-dasharray:none"
         id="path7225"
         inkscape:connector-curvature="0" />
    </g>
    <g
       id="g7227"
       transform="matrix(1.25,0,0,-1.25,339.19643,655.93468)">
      <path
         d="m 0,0 -81,0 c -1.833,0 -3.357,1.525 -3.357,3.358 l 0,63 c 0,1.832 1.524,3.357 3.357,3.357 l 81,0 c 1.832,0 3.357,-1.525 3.357,-3.357 l 0,-63 C 3.357,1.526 1.833,0 0,0"
         style="fill:#231f20;fill-opacity:1;fill-rule:evenodd;stroke:none"
         id="path7229"
         inkscape:connector-curvature="0" />
    </g>
    <g
       id="g7231"
       transform="matrix(1.25,0,0,-1.25,339.19643,653.57093)">
      <path
         d="m 0,0 c 0.794,0 1.476,0.664 1.476,1.467 l 0,63 C 1.466,65.259 0.794,65.934 0,65.934 l -81,0 c -0.794,-0.004 -1.468,-0.67 -1.468,-1.467 l 0,-63 C -82.462,0.665 -81.806,0 -81,0 L 0,0"
         style="fill:#ffffff;fill-opacity:1;fill-rule:evenodd;stroke:none"
         id="path7233"
         inkscape:connector-curvature="0" />
    </g>
    <g
       id="g7235"
       transform="matrix(1.25,0,0,-1.25,297.29531,624.82343)">
      <path
         d="m 0,0 c -1.328,0 -2.598,-0.699 -3.328,-1.808 -0.455,-0.704 -0.619,-1.42 -0.658,-2.241 l -5.985,0 0,4.049 -16.956,0 0,5.981 16.956,0 0,3.992 c 0,1.047 -0.444,2.075 -1.185,2.815 -0.739,0.744 -1.759,1.172 -2.807,1.172 l -19.452,0 1.388,-3.6 c 0.049,-0.124 0.108,-0.252 0.108,-0.387 0.016,-0.461 -0.368,-0.893 -0.812,-0.977 -0.243,-0.053 -0.579,0 -0.792,0.145 l -11.357,7.81 11.357,7.813 c 0.168,0.116 0.404,0.168 0.608,0.168 0.476,0 0.876,-0.352 0.981,-0.812 0.046,-0.216 -0.021,-0.38 -0.093,-0.572 l -1.388,-3.605 23.444,0 0,3.937 5.985,0 0,-3.937 16.951,0 0,-5.983 -16.951,0 0,-7.979 23.38,0 -1.388,3.603 c -0.045,0.12 -0.06,0.26 -0.053,0.389 0.028,0.482 0.331,0.871 0.816,0.978 0.276,0.065 0.515,-0.055 0.737,-0.203 L 30.921,2.992 19.506,-4.82 c -0.185,-0.124 -0.336,-0.176 -0.558,-0.168 -0.44,0.02 -0.871,0.256 -0.956,0.727 -0.039,0.226 -0.067,0.394 0.014,0.605 L 19.394,0 0,0 z"
         style="fill:#231f20;fill-opacity:1;fill-rule:evenodd;stroke:none"
         id="path7237"
         inkscape:connector-curvature="0" />
    </g>
    <g
       id="g7239"
       transform="matrix(1.25,0,0,-1.25,292.13643,634.86731)">
      <path
         d="M 0,0 0.897,-4.861 2.084,0 3.465,0 4.689,-4.944 5.576,0 6.977,0 5.541,-8 4.036,-8 2.789,-3.012 1.536,-8 0.036,-8 -1.398,0 0,0 z"
         style="fill:#231f20;fill-opacity:1;fill-rule:evenodd;stroke:none"
         id="path7241"
         inkscape:connector-curvature="0" />
    </g>
    <g
       id="g7243"
       transform="matrix(1.25,0,0,-1.25,320.11768,634.86731)">
      <path
         d="m 0,0 1.675,0 -3.312,-4.74 0,-3.26 -1.371,0 0,3.26 L -6.32,0 -4.645,0 -2.325,-3.324 0,0 z"
         style="fill:#231f20;fill-opacity:1;fill-rule:evenodd;stroke:none"
         id="path7245"
         inkscape:connector-curvature="0" />
    </g>
    <g
       id="g7247"
       transform="matrix(1.25,0,0,-1.25,277.90143,641.19306)">
      <path
         d="m 0,0 c 0,-1.227 -0.763,-2.364 -1.899,-2.828 -0.669,-0.275 -1.42,-0.304 -2.109,-0.099 -1.291,0.387 -2.002,1.559 -2.255,2.824 -0.276,1.383 -0.06,3.275 0.948,4.347 0.864,0.92 2.276,1.193 3.432,0.704 0.811,-0.34 1.3,-0.907 1.664,-1.675 L -1.52,2.78 C -1.672,3.093 -1.852,3.34 -2.143,3.531 -2.627,3.856 -3.255,3.904 -3.791,3.68 -4.487,3.389 -4.768,2.672 -4.904,1.972 c -0.183,-0.945 -0.112,-2.4 0.609,-3.14 0.547,-0.559 1.431,-0.672 2.099,-0.271 0.469,0.283 0.721,0.735 0.808,1.255 l -1.379,0 0,1.372 L 0,1.188 0,0 z"
         style="fill:#231f20;fill-opacity:1;fill-rule:evenodd;stroke:none"
         id="path7249"
         inkscape:connector-curvature="0" />
    </g>
    <g
       id="g7251"
       transform="matrix(1.25,0,0,-1.25,254.97143,644.86718)">
      <path
         d="m 0,0 0,8 1.369,0 0,-3.132 L 5,4.868 5,8 6.369,8 6.369,0 5,0 5,3.488 1.369,3.488 1.369,0 0,0 z"
         style="fill:#231f20;fill-opacity:1;fill-rule:evenodd;stroke:none"
         id="path7253"
         inkscape:connector-curvature="0" />
    </g>
    <g
       id="g7255"
       transform="matrix(1.25,0,0,-1.25,280.36156,644.86718)">
      <path
         d="m 0,0 0,8 1.373,0 0,-3.132 L 5,4.868 5,8 6.373,8 6.373,0 5,0 5,3.488 1.373,3.488 1.373,0 0,0 z"
         style="fill:#231f20;fill-opacity:1;fill-rule:evenodd;stroke:none"
         id="path7257"
         inkscape:connector-curvature="0" />
    </g>
    <g
       id="g7259"
       transform="matrix(1.25,0,0,-1.25,308.00268,640.80856)">
      <path
         d="M 0,0 -1.168,2.816 -2.336,0 0,0 z m -2.912,-1.379 -0.781,-1.868 -1.479,0 3.315,8 1.372,0 3.309,-8 -1.481,0 -0.778,1.868 -3.477,0 z"
         style="fill:#231f20;fill-opacity:1;fill-rule:evenodd;stroke:none"
         id="path7261"
         inkscape:connector-curvature="0" />
    </g>
    <path
       d="m 265.51093,634.86781 1.72,0 0,10 -1.72,0 0,-10 z"
       style="fill:#231f20;fill-opacity:1;fill-rule:evenodd;stroke:none"
       id="path7263"
       inkscape:connector-curvature="0" />
    <g
       id="g7265"
       transform="matrix(1.25,0,0,-1.25,316.14656,584.81968)">
      <path
         d="m 0,0 c 0,-1.095 -0.393,-1.823 -1.234,-2.272 -0.336,-0.197 -0.73,-0.309 -1.151,-0.309 l -1.123,0 0,5.134 1.123,0 c 0.421,0 0.842,-0.113 1.207,-0.309 C -0.393,1.796 0,1.065 0,0 m 1.431,0 c 0,1.571 -0.673,2.777 -1.907,3.479 -0.59,0.336 -1.235,0.504 -1.909,0.504 l -2.581,0 0,-7.995 2.581,0 c 0.646,0 1.319,0.169 1.88,0.478 1.263,0.7 1.936,1.935 1.936,3.534 m -8.235,-4.012 0,1.431 -4.517,0 0,2.188 2.385,0 0,1.458 -2.385,0 0,1.488 4.377,0 0,1.43 -5.837,0 0,-7.995 5.977,0 z M -16.273,0 c 0,-1.095 -0.394,-1.823 -1.235,-2.272 -0.336,-0.197 -0.729,-0.309 -1.151,-0.309 l -1.122,0 0,5.134 1.122,0 c 0.422,0 0.843,-0.113 1.207,-0.309 0.785,-0.448 1.179,-1.179 1.179,-2.244 m 1.43,0 c 0,1.571 -0.672,2.777 -1.907,3.479 -0.59,0.336 -1.234,0.504 -1.909,0.504 l -2.58,0 0,-7.995 2.58,0 c 0.647,0 1.319,0.169 1.881,0.478 1.263,0.7 1.935,1.935 1.935,3.534 m -8.683,3.983 -1.431,0 0,-7.995 1.431,0 0,7.995 z m -2.986,0 -1.545,0 -2.189,-5.835 -2.188,5.835 -1.543,0 2.946,-7.995 1.543,0 2.976,7.995 z m -9.022,0 -1.432,0 0,-7.995 1.432,0 0,7.995 z M -40.458,0 c 0,-1.095 -0.393,-1.823 -1.234,-2.272 -0.336,-0.197 -0.73,-0.309 -1.152,-0.309 l -1.122,0 0,5.134 1.122,0 c 0.422,0 0.843,-0.113 1.208,-0.309 0.785,-0.448 1.178,-1.179 1.178,-2.244 m 1.432,0 c 0,1.571 -0.674,2.777 -1.908,3.479 -0.589,0.336 -1.235,0.504 -1.91,0.504 l -2.581,0 0,-7.995 2.581,0 c 0.646,0 1.321,0.169 1.88,0.478 1.264,0.7 1.938,1.935 1.938,3.534"
         style="fill:#231f20;fill-opacity:1;fill-rule:evenodd;stroke:none"
         id="path7267"
         inkscape:connector-curvature="0" />
    </g>
  </g>
</svg>
