<?xml version="1.0" encoding="UTF-8" standalone="no"?>
<!-- Created with Inkscape (http://www.inkscape.org/) -->

<svg
   xmlns:dc="http://purl.org/dc/elements/1.1/"
   xmlns:cc="http://creativecommons.org/ns#"
   xmlns:rdf="http://www.w3.org/1999/02/22-rdf-syntax-ns#"
   xmlns:svg="http://www.w3.org/2000/svg"
   xmlns="http://www.w3.org/2000/svg"
   xmlns:sodipodi="http://sodipodi.sourceforge.net/DTD/sodipodi-0.dtd"
   xmlns:inkscape="http://www.inkscape.org/namespaces/inkscape"
   width="86.747498"
   height="129.80875"
   id="svg13973"
   version="1.1"
   inkscape:version="0.48.1 "
   sodipodi:docname="New document 90">
  <defs
     id="defs13975">
    <clipPath
       clipPathUnits="userSpaceOnUse"
       id="clipPath10569">
      <path
         inkscape:connector-curvature="0"
         d="m 27,33.9 512.875,0 0,601.5 L 27,635.4 27,33.9 z"
         id="path10571" />
    </clipPath>
    <clipPath
       clipPathUnits="userSpaceOnUse"
       id="clipPath10553">
      <path
         inkscape:connector-curvature="0"
         d="m 49.396,43.029 468.083,0 0,592.371 -468.083,0 0,-592.371 z"
         id="path10555" />
    </clipPath>
  </defs>
  <sodipodi:namedview
     id="base"
     pagecolor="#ffffff"
     bordercolor="#666666"
     borderopacity="1.0"
     inkscape:pageopacity="0.0"
     inkscape:pageshadow="2"
     inkscape:zoom="0.35"
     inkscape:cx="192.65947"
     inkscape:cy="87.761522"
     inkscape:document-units="px"
     inkscape:current-layer="layer1"
     showgrid="false"
     fit-margin-top="0"
     fit-margin-left="0"
     fit-margin-right="0"
     fit-margin-bottom="0"
     inkscape:window-width="469"
     inkscape:window-height="403"
     inkscape:window-x="745"
     inkscape:window-y="53"
     inkscape:window-maximized="0" />
  <metadata
     id="metadata13978">
    <rdf:RDF>
      <cc:Work
         rdf:about="">
        <dc:format>image/svg+xml</dc:format>
        <dc:type
           rdf:resource="http://purl.org/dc/dcmitype/StillImage" />
        <dc:title></dc:title>
      </cc:Work>
    </rdf:RDF>
  </metadata>
  <g
     inkscape:label="Layer 1"
     inkscape:groupmode="layer"
     id="layer1"
     transform="translate(-182.34053,-490.31496)">
    <g
       transform="matrix(1.25,0,0,-1.25,120.59541,692.15983)"
       id="g10549">
      <g
         id="g10551"
         clip-path="url(#clipPath10553)">
        <g
           id="g10557"
           transform="translate(118.5441,66.4919)">
          <path
             inkscape:connector-curvature="0"
             d="m 0,0 c 0,-4.758 -3.855,-8.613 -8.613,-8.613 l -51.673,0 c -4.755,0 -8.612,3.855 -8.612,8.613 l 0,86.123 c 0,4.756 3.857,8.611 8.612,8.611 l 51.673,0 C -3.855,94.734 0,90.879 0,86.123 L 0,0 z"
             style="fill:#ffffff;fill-opacity:1;fill-rule:nonzero;stroke:none"
             id="path10559" />
        </g>
        <g
           id="g10561"
           transform="translate(118.5441,66.4919)">
          <path
             inkscape:connector-curvature="0"
             d="m 0,0 c 0,-4.758 -3.855,-8.613 -8.613,-8.613 l -51.673,0 c -4.755,0 -8.612,3.855 -8.612,8.613 l 0,86.123 c 0,4.756 3.857,8.611 8.612,8.611 l 51.673,0 C -3.855,94.734 0,90.879 0,86.123 L 0,0 z"
             style="fill:none;stroke:#231f20;stroke-width:0.5;stroke-linecap:butt;stroke-linejoin:miter;stroke-miterlimit:4;stroke-opacity:1;stroke-dasharray:none"
             id="path10563" />
        </g>
      </g>
    </g>
    <g
       transform="matrix(1.25,0,0,-1.25,120.59541,692.15983)"
       id="g10565">
      <g
         id="g10567"
         clip-path="url(#clipPath10569)">
        <g
           id="g10573"
           transform="translate(113.8781,66.4919)">
          <path
             inkscape:connector-curvature="0"
             d="m 0,0 c 0,-2.178 -1.77,-3.947 -3.947,-3.947 l -51.673,0 c -2.175,0 -3.947,1.769 -3.947,3.947 l 0,86.123 c 0,2.176 1.772,3.947 3.947,3.947 l 51.673,0 C -1.77,90.07 0,88.299 0,86.123 L 0,0 z m -3.947,92.582 -51.673,0 c -3.561,0 -6.459,-2.899 -6.459,-6.459 l 0,-86.123 c 0,-3.563 2.898,-6.459 6.459,-6.459 l 51.673,0 c 3.562,0 6.459,2.896 6.459,6.459 l 0,86.123 c 0,3.56 -2.897,6.459 -6.459,6.459"
             style="fill:#00674c;fill-opacity:1;fill-rule:nonzero;stroke:none"
             id="path10575" />
        </g>
        <g
           id="g10577"
           transform="translate(88.5661,140.2299)">
          <path
             inkscape:connector-curvature="0"
             d="m 0,0 -7.474,0 0,-5.889 7.474,0 c 2.006,0 3.281,1.178 3.281,2.991 C 3.281,-1.268 1.914,0 0,0 m 4.375,-9.965 c -1.549,-0.816 -2.643,-1.088 -5.013,-1.088 l -6.836,0 0,-9.693 -5.103,0 0,25.91 12.213,0 C 1.823,5.164 2.917,4.893 4.375,4.076 6.836,2.627 8.386,0 8.386,-2.898 c 0,-2.991 -1.55,-5.709 -4.011,-7.067"
             style="fill:#231f20;fill-opacity:1;fill-rule:nonzero;stroke:none"
             id="path10579" />
        </g>
        <g
           id="g10581"
           transform="translate(84.0954,115.265)">
          <path
             inkscape:connector-curvature="0"
             d="m 0,0 c -9.513,0 -17.225,7.713 -17.225,17.225 0,9.514 7.712,17.224 17.225,17.224 9.513,0 17.224,-7.71 17.224,-17.224 C 17.224,7.713 9.513,0 0,0 m 0,38.756 c -11.859,0 -21.53,-9.672 -21.53,-21.531 0,-11.858 9.671,-21.529 21.53,-21.529 11.858,0 21.53,9.671 21.53,21.529 0,11.859 -9.672,21.531 -21.53,21.531"
             style="fill:#00674c;fill-opacity:1;fill-rule:evenodd;stroke:none"
             id="path10583" />
        </g>
        <g
           id="g10585"
           transform="translate(98.1228,76.681)">
          <path
             inkscape:connector-curvature="0"
             d="m 0,0 c -0.361,0.246 -0.858,0.153 -1.104,-0.211 -0.171,-0.254 -0.133,-0.496 -0.043,-0.824 l 0.708,-2.373 -27.178,-0.006 0.725,2.412 c 0.076,0.299 0.105,0.549 -0.059,0.791 -0.246,0.362 -0.742,0.457 -1.105,0.211 l -8.219,-5.57 8.219,-5.559 c 0.363,-0.246 0.859,-0.152 1.105,0.211 0.172,0.252 0.134,0.496 0.042,0.824 l -0.708,2.374 27.178,0.005 -0.724,-2.414 c -0.076,-0.297 -0.106,-0.547 0.059,-0.789 0.246,-0.363 0.743,-0.457 1.104,-0.211 L 8.22,-5.56 0,0 z"
             style="fill:#00674c;fill-opacity:1;fill-rule:evenodd;stroke:none"
             id="path10587" />
        </g>
        <g
           id="g10589"
           transform="translate(67.3952,103.9839)">
          <path
             inkscape:connector-curvature="0"
             d="M 0,0 C 0,1.07 -0.288,1.607 -0.863,1.607 -1.431,1.607 -1.715,1.07 -1.715,0 c 0,-1.049 0.284,-1.572 0.852,-1.572 C -0.288,-1.572 0,-1.049 0,0 m 0.109,-5.055 c 0,1.364 -0.324,2.047 -0.971,2.047 -0.649,0 -0.973,-0.683 -0.973,-2.047 0,-1.381 0.324,-2.07 0.973,-2.07 0.647,0 0.971,0.689 0.971,2.07 m 1.495,-0.004 c -0.023,-2.375 -0.845,-3.562 -2.466,-3.562 -0.82,0 -1.443,0.334 -1.871,1 -0.398,0.621 -0.597,1.474 -0.597,2.562 0,1.442 0.269,2.375 0.805,2.805 -0.417,0.375 -0.625,1.127 -0.625,2.252 0,0.996 0.207,1.764 0.62,2.299 0.414,0.537 0.969,0.805 1.666,0.805 0.719,0 1.283,-0.28 1.688,-0.838 C 1.23,1.703 1.437,0.949 1.445,-0.002 1.452,-1.043 1.239,-1.791 0.804,-2.242 1.018,-2.395 1.2,-2.717 1.353,-3.207 1.528,-3.752 1.612,-4.369 1.604,-5.059"
             style="fill:#00674c;fill-opacity:1;fill-rule:nonzero;stroke:none"
             id="path10591" />
        </g>
        <g
           id="g10593"
           transform="translate(78.3005,99.076)">
          <path
             inkscape:connector-curvature="0"
             d="m 0,0 c 0,-1.156 -0.228,-2.065 -0.683,-2.725 -0.455,-0.658 -1.064,-0.988 -1.83,-0.988 -1.499,0 -2.306,0.791 -2.421,2.373 l 1.491,0 c -0.008,-0.584 0.301,-0.877 0.928,-0.877 0.68,0 1.02,0.646 1.02,1.941 0,0.996 -0.184,1.655 -0.552,1.977 -0.168,0.146 -0.421,0.219 -0.759,0.219 l -0.413,0 0,1.494 c 0.437,0 0.747,0.066 0.932,0.195 0.375,0.276 0.563,0.865 0.563,1.77 0,0.757 -0.323,1.136 -0.97,1.136 -0.183,0 -0.342,-0.082 -0.479,-0.242 C -3.31,6.113 -3.379,5.937 -3.379,5.748 l -1.495,0 c 0,0.367 0.107,0.758 0.321,1.17 0.383,0.728 1.002,1.092 1.859,1.092 0.703,0 1.284,-0.239 1.743,-0.713 0.481,-0.498 0.723,-1.168 0.723,-2.01 0,-1.295 -0.277,-2.139 -0.828,-2.529 C -0.352,2.367 0,1.447 0,0"
             style="fill:#00674c;fill-opacity:1;fill-rule:nonzero;stroke:none"
             id="path10595" />
        </g>
        <g
           id="g10597"
           transform="translate(81.2868,101.2239)">
          <path
             inkscape:connector-curvature="0"
             d="m 0,0 c 0,-1.515 0.076,-2.599 0.229,-3.25 0.168,-0.744 0.474,-1.115 0.917,-1.115 0.558,0 0.913,0.605 1.066,1.814 0.054,0.407 0.08,1.256 0.08,2.551 0,1.28 -0.026,2.129 -0.08,2.551 C 2.059,3.762 1.704,4.367 1.146,4.367 0.703,4.367 0.397,3.994 0.229,3.252 0.076,2.602 0,1.518 0,0 m -1.495,0 c 0,2.252 0.194,3.801 0.585,4.643 0.375,0.812 1.06,1.219 2.056,1.219 C 2.141,5.862 2.83,5.444 3.213,4.61 3.596,3.774 3.787,2.238 3.787,0 3.787,-2.267 3.592,-3.818 3.201,-4.654 2.834,-5.459 2.149,-5.861 1.146,-5.861 c -1.018,0 -1.713,0.41 -2.084,1.23 C -1.309,-3.81 -1.495,-2.267 -1.495,0"
             style="fill:#00674c;fill-opacity:1;fill-rule:nonzero;stroke:none"
             id="path10599" />
        </g>
        <g
           id="g10601"
           transform="translate(94.6921,99.8489)">
          <path
             inkscape:connector-curvature="0"
             d="M 0,0 -0.666,3.248 -1.344,0 0,0 z m 2.435,-4.365 -1.54,0 -0.585,2.869 -1.953,0 -0.596,-2.869 -1.528,0 2.354,11.482 1.493,0 2.355,-11.482 z"
             style="fill:#00674c;fill-opacity:1;fill-rule:nonzero;stroke:none"
             id="path10603" />
        </g>
        <g
           id="g10605"
           transform="translate(104.364,95.4839)">
          <path
             inkscape:connector-curvature="0"
             d="m 0,0 -1.495,0 0,6.66 -1.316,-4.135 -1.316,4.135 0,-6.66 -1.495,0 0,11.482 1.491,0 1.32,-4.248 1.422,4.248 1.389,0 L 0,0 z"
             style="fill:#00674c;fill-opacity:1;fill-rule:nonzero;stroke:none"
             id="path10607" />
        </g>
        <g
           id="g10609"
           transform="translate(60.9587,89.6809)">
          <path
             inkscape:connector-curvature="0"
             d="m 0,0 -1.436,0 0,-9.986 -1.495,0 0,9.986 -1.435,0 0,1.496 L 0,1.496 0,0 z"
             style="fill:#00674c;fill-opacity:1;fill-rule:nonzero;stroke:none"
             id="path10611" />
        </g>
        <g
           id="g10613"
           transform="translate(64.864,89.8019)">
          <path
             inkscape:connector-curvature="0"
             d="m 0,0 c -0.45,0 -0.764,-0.402 -0.94,-1.207 -0.137,-0.65 -0.206,-1.705 -0.206,-3.16 0,-1.279 0.027,-2.137 0.08,-2.572 0.161,-1.195 0.516,-1.793 1.066,-1.793 0.535,0 0.883,0.598 1.044,1.793 0.068,0.506 0.102,1.363 0.102,2.572 0,1.455 -0.068,2.51 -0.206,3.16 C 0.765,-0.402 0.451,0 0,0 m 0,1.494 c 1.064,0 1.792,-0.539 2.183,-1.619 0.305,-0.843 0.459,-2.257 0.459,-4.242 0,-1.937 -0.138,-3.316 -0.414,-4.137 -0.39,-1.148 -1.133,-1.722 -2.228,-1.722 -1.118,0 -1.868,0.595 -2.251,1.791 -0.26,0.804 -0.391,2.162 -0.391,4.068 0,1.947 0.165,3.36 0.494,4.242 0.407,1.08 1.123,1.619 2.148,1.619"
             style="fill:#00674c;fill-opacity:1;fill-rule:nonzero;stroke:none"
             id="path10615" />
        </g>
        <g
           id="g10617"
           transform="translate(77.7204,84.291)">
          <path
             inkscape:connector-curvature="0"
             d="m 0,0 c 0,-1.577 -0.393,-2.793 -1.182,-3.649 -0.657,-0.711 -1.453,-1.066 -2.386,-1.066 -0.635,0 -1.09,0.176 -1.366,0.529 l 0.768,1.301 c 0.184,-0.225 0.405,-0.336 0.665,-0.336 0.665,0 1.185,0.398 1.56,1.193 0.298,0.619 0.446,1.299 0.446,2.041 0,1.094 -0.359,1.641 -1.077,1.641 -0.336,0 -0.566,-0.17 -0.688,-0.51 l -1.57,0.254 0.218,5.488 4.329,0 0,-1.496 -2.86,0 -0.103,-2.271 c 0.169,0.039 0.402,0.058 0.7,0.058 C -0.849,3.177 0,2.119 0,0"
             style="fill:#00674c;fill-opacity:1;fill-rule:nonzero;stroke:none"
             id="path10619" />
        </g>
        <g
           id="g10621"
           transform="translate(87.028,83.287)">
          <path
             inkscape:connector-curvature="0"
             d="m 0,0 c 0,-1.157 -0.228,-2.065 -0.684,-2.723 -0.455,-0.66 -1.064,-0.988 -1.83,-0.988 -1.499,0 -2.305,0.789 -2.421,2.371 l 1.491,0 c -0.008,-0.584 0.301,-0.877 0.928,-0.877 0.68,0 1.021,0.646 1.021,1.941 0,0.996 -0.185,1.655 -0.552,1.977 -0.169,0.146 -0.422,0.219 -0.759,0.219 l -0.414,0 0,1.494 c 0.437,0 0.747,0.066 0.932,0.195 0.375,0.275 0.563,0.865 0.563,1.77 0,0.757 -0.323,1.136 -0.969,1.136 -0.183,0 -0.343,-0.08 -0.48,-0.242 C -3.312,6.113 -3.38,5.937 -3.38,5.748 l -1.495,0 c 0,0.367 0.107,0.758 0.321,1.172 0.383,0.726 1.002,1.089 1.859,1.089 0.703,0 1.284,-0.236 1.743,-0.712 C -0.471,6.799 -0.23,6.129 -0.23,5.287 -0.23,3.992 -0.506,3.148 -1.057,2.758 -0.353,2.367 0,1.447 0,0"
             style="fill:#00674c;fill-opacity:1;fill-rule:nonzero;stroke:none"
             id="path10623" />
        </g>
        <g
           id="g10625"
           transform="translate(90.0134,85.4349)">
          <path
             inkscape:connector-curvature="0"
             d="m 0,0 c 0,-1.515 0.076,-2.599 0.229,-3.25 0.168,-0.744 0.474,-1.115 0.917,-1.115 0.558,0 0.914,0.605 1.066,1.814 0.054,0.407 0.08,1.258 0.08,2.551 0,1.279 -0.026,2.131 -0.08,2.551 C 2.06,3.762 1.704,4.367 1.146,4.367 0.703,4.367 0.397,3.994 0.229,3.252 0.076,2.602 0,1.518 0,0 m -1.495,0 c 0,2.254 0.195,3.801 0.586,4.643 C -0.534,5.455 0.15,5.861 1.146,5.861 2.142,5.861 2.83,5.444 3.213,4.61 3.596,3.774 3.787,2.238 3.787,0 3.787,-2.267 3.592,-3.818 3.202,-4.654 2.834,-5.459 2.149,-5.859 1.146,-5.859 c -1.018,0 -1.713,0.408 -2.085,1.228 C -1.31,-3.81 -1.495,-2.267 -1.495,0"
             style="fill:#00674c;fill-opacity:1;fill-rule:nonzero;stroke:none"
             id="path10627" />
        </g>
        <g
           id="g10629"
           transform="translate(102.8601,87.834)">
          <path
             inkscape:connector-curvature="0"
             d="m 0,0 c 0,1.279 -0.383,1.894 -1.146,1.847 l -0.8,0 0,-3.558 0.8,0 C -0.383,-1.688 0,-1.118 0,0 m 1.495,0 c 0,-1.295 -0.398,-2.213 -1.193,-2.758 -0.444,-0.299 -0.899,-0.447 -1.366,-0.447 l -0.882,0 0,-4.934 -1.494,0 0,11.482 2.294,0 C -0.585,3.343 -0.103,3.209 0.3,2.941 1.097,2.412 1.495,1.431 1.495,0"
             style="fill:#00674c;fill-opacity:1;fill-rule:nonzero;stroke:none"
             id="path10631" />
        </g>
        <g
           id="g10633"
           transform="translate(111.5969,79.6949)">
          <path
             inkscape:connector-curvature="0"
             d="m 0,0 -1.494,0 0,6.66 -1.317,-4.135 -1.314,4.135 0,-6.66 -1.496,0 0,11.482 1.492,0 1.318,-4.248 1.424,4.248 1.387,0 L 0,0 z"
             style="fill:#00674c;fill-opacity:1;fill-rule:nonzero;stroke:none"
             id="path10635" />
        </g>
      </g>
    </g>
    <g
       id="g11135"
       transform="matrix(1.25,0,0,-1.25,210.76104,562.7787)">
      <path
         d="m 0,0 c 0,0.481 -0.36,0.84 -0.84,0.84 -0.439,0 -0.84,-0.359 -0.84,-0.84 0,-0.478 0.401,-0.839 0.84,-0.839 C -0.36,-0.839 0,-0.478 0,0"
         style="fill:#00674c;fill-opacity:1;fill-rule:evenodd;stroke:none"
         id="path11137"
         inkscape:connector-curvature="0" />
    </g>
    <g
       id="g11139"
       transform="matrix(1.25,0,0,-1.25,210.76104,568.47371)">
      <path
         d="m 0,0 c 0,0.482 -0.36,0.842 -0.84,0.842 -0.439,0 -0.84,-0.36 -0.84,-0.842 0,-0.44 0.401,-0.846 0.84,-0.846 C -0.36,-0.846 0,-0.44 0,0"
         style="fill:#00674c;fill-opacity:1;fill-rule:evenodd;stroke:none"
         id="path11141"
         inkscape:connector-curvature="0" />
    </g>
    <g
       id="g11143"
       transform="matrix(1.25,0,0,-1.25,221.66929,582.51496)">
      <path
         d="m 0,0 c 0,0.481 -0.36,0.84 -0.84,0.84 -0.439,0 -0.84,-0.359 -0.84,-0.84 0,-0.478 0.401,-0.839 0.84,-0.839 C -0.36,-0.839 0,-0.478 0,0"
         style="fill:#00674c;fill-opacity:1;fill-rule:evenodd;stroke:none"
         id="path11145"
         inkscape:connector-curvature="0" />
    </g>
    <g
       id="g11147"
       transform="matrix(1.25,0,0,-1.25,221.66929,588.20733)">
      <path
         d="m 0,0 c 0,0.48 -0.36,0.84 -0.84,0.84 -0.439,0 -0.84,-0.36 -0.84,-0.84 0,-0.44 0.401,-0.846 0.84,-0.846 C -0.36,-0.846 0,-0.44 0,0"
         style="fill:#00674c;fill-opacity:1;fill-rule:evenodd;stroke:none"
         id="path11149"
         inkscape:connector-curvature="0" />
    </g>
  </g>
</svg>
