<?xml version="1.0" encoding="UTF-8" standalone="no"?>
<!-- Created with Inkscape (http://www.inkscape.org/) -->

<svg
   xmlns:dc="http://purl.org/dc/elements/1.1/"
   xmlns:cc="http://creativecommons.org/ns#"
   xmlns:rdf="http://www.w3.org/1999/02/22-rdf-syntax-ns#"
   xmlns:svg="http://www.w3.org/2000/svg"
   xmlns="http://www.w3.org/2000/svg"
   xmlns:sodipodi="http://sodipodi.sourceforge.net/DTD/sodipodi-0.dtd"
   xmlns:inkscape="http://www.inkscape.org/namespaces/inkscape"
   width="86.132812"
   height="232.26562"
   id="svg4114"
   version="1.1"
   inkscape:version="0.48.1 "
   sodipodi:docname="New document 9">
  <defs
     id="defs4116">
    <clipPath
       clipPathUnits="userSpaceOnUse"
       id="clipPath3707">
      <path
         inkscape:connector-curvature="0"
         d="m 314.23,218.628 261.27,0 0,518.872 -261.27,0 0,-518.872 z"
         id="path3709" />
    </clipPath>
    <clipPath
       clipPathUnits="userSpaceOnUse"
       id="clipPath3695">
      <path
         inkscape:connector-curvature="0"
         d="m 320.23,224.628 249.27,0 0,506.872 -249.27,0 0,-506.872 z"
         id="path3697" />
    </clipPath>
    <clipPath
       clipPathUnits="userSpaceOnUse"
       id="clipPath3675">
      <path
         inkscape:connector-curvature="0"
         d="m 314.23,218.628 261.27,0 0,518.872 -261.27,0 0,-518.872 z"
         id="path3677" />
    </clipPath>
    <clipPath
       clipPathUnits="userSpaceOnUse"
       id="clipPath3663">
      <path
         inkscape:connector-curvature="0"
         d="m 320.23,224.628 249.27,0 0,506.872 -249.27,0 0,-506.872 z"
         id="path3665" />
    </clipPath>
    <clipPath
       clipPathUnits="userSpaceOnUse"
       id="clipPath3651">
      <path
         inkscape:connector-curvature="0"
         d="m 314.23,218.628 261.27,0 0,518.872 -261.27,0 0,-518.872 z"
         id="path3653" />
    </clipPath>
  </defs>
  <sodipodi:namedview
     id="base"
     pagecolor="#ffffff"
     bordercolor="#666666"
     borderopacity="1.0"
     inkscape:pageopacity="0.0"
     inkscape:pageshadow="2"
     inkscape:zoom="0.35"
     inkscape:cx="200.93527"
     inkscape:cy="110.41317"
     inkscape:document-units="px"
     inkscape:current-layer="layer1"
     showgrid="false"
     fit-margin-top="0"
     fit-margin-left="0"
     fit-margin-right="0"
     fit-margin-bottom="0"
     inkscape:window-width="469"
     inkscape:window-height="403"
     inkscape:window-x="25"
     inkscape:window-y="25"
     inkscape:window-maximized="0" />
  <metadata
     id="metadata4119">
    <rdf:RDF>
      <cc:Work
         rdf:about="">
        <dc:format>image/svg+xml</dc:format>
        <dc:type
           rdf:resource="http://purl.org/dc/dcmitype/StillImage" />
        <dc:title></dc:title>
      </cc:Work>
    </rdf:RDF>
  </metadata>
  <g
     inkscape:label="Layer 1"
     inkscape:groupmode="layer"
     id="layer1"
     transform="translate(-174.06473,-410.50972)">
    <g
       transform="matrix(1.25,0,0,-1.25,-451.66952,1279.6651)"
       id="g3647">
      <g
         id="g3649"
         clip-path="url(#clipPath3651)">
        <g
           id="g3655"
           transform="translate(509.3999,695.0743)">
          <path
             inkscape:connector-curvature="0"
             d="m 0,0 51.299,0 c 4.711,0 8.551,-3.841 8.551,-8.55 l 0,-168.22 c 0,-4.709 -3.84,-8.551 -8.551,-8.551 l -51.299,0 c -4.709,0 -8.55,3.842 -8.55,8.551 l 0,168.22 C -8.55,-3.9 -4.65,0 0,0"
             style="fill:#ffffff;fill-opacity:1;fill-rule:nonzero;stroke:none"
             id="path3657" />
        </g>
      </g>
    </g>
    <g
       transform="matrix(1.25,0,0,-1.25,-451.66952,1279.6651)"
       id="g3659">
      <g
         id="g3661"
         clip-path="url(#clipPath3663)">
        <g
           id="g3667"
           transform="translate(509.3999,695.0743)">
          <path
             inkscape:connector-curvature="0"
             d="m 0,0 51.299,0 c 4.711,0 8.551,-3.841 8.551,-8.55 l 0,-168.22 c 0,-4.709 -3.84,-8.551 -8.551,-8.551 l -51.299,0 c -4.709,0 -8.55,3.842 -8.55,8.551 l 0,168.22 C -8.55,-3.9 -4.65,0 0,0"
             style="fill:none;stroke:#231f20;stroke-width:0.5;stroke-linecap:butt;stroke-linejoin:miter;stroke-miterlimit:4;stroke-opacity:1;stroke-dasharray:none"
             id="path3669" />
        </g>
      </g>
    </g>
    <g
       transform="matrix(1.25,0,0,-1.25,-451.66952,1279.6651)"
       id="g3671">
      <g
         id="g3673"
         clip-path="url(#clipPath3675)">
        <g
           id="g3679"
           transform="translate(509.4259,692.9366)">
          <path
             inkscape:connector-curvature="0"
             d="m 0,0 51.246,0 c 3.533,-0.013 6.42,-2.915 6.441,-6.44 l 0,-76.707 c -0.021,-3.53 -2.908,-6.422 -6.441,-6.439 l -51.246,0 c -3.524,0.017 -6.426,2.909 -6.44,6.439 l 0,76.707 C -6.426,-2.915 -3.524,-0.013 0,0"
             style="fill:#bf2519;fill-opacity:1;fill-rule:evenodd;stroke:none"
             id="path3681" />
        </g>
        <g
           id="g3683"
           transform="translate(509.4589,690.4397)">
          <path
             inkscape:connector-curvature="0"
             d="m 0,0 51.182,0 c 2.201,-0.012 3.964,-1.774 3.976,-3.975 l 0,-76.645 c -0.012,-2.189 -1.775,-3.974 -3.976,-3.972 l -51.182,0 c -2.199,-0.002 -3.965,1.783 -3.975,3.972 l 0,76.645 C -3.965,-1.774 -2.199,-0.014 0,0"
             style="fill:#ffffff;fill-opacity:1;fill-rule:evenodd;stroke:none"
             id="path3685" />
        </g>
        <g
           id="g3687"
           transform="translate(509.3999,695.0743)">
          <path
             inkscape:connector-curvature="0"
             d="m 0,0 51.299,0 c 4.711,0 8.551,-3.841 8.551,-8.55 l 0,-168.22 c 0,-4.709 -3.84,-8.551 -8.551,-8.551 l -51.299,0 c -4.709,0 -8.55,3.842 -8.55,8.551 l 0,168.22 C -8.55,-3.9 -4.65,0 0,0"
             style="fill:#ffffff;fill-opacity:1;fill-rule:nonzero;stroke:none"
             id="path3689" />
        </g>
      </g>
    </g>
    <g
       transform="matrix(1.25,0,0,-1.25,-451.66952,1279.6651)"
       id="g3691">
      <g
         id="g3693"
         clip-path="url(#clipPath3695)">
        <g
           id="g3699"
           transform="translate(509.3999,695.0743)">
          <path
             inkscape:connector-curvature="0"
             d="m 0,0 51.299,0 c 4.711,0 8.551,-3.841 8.551,-8.55 l 0,-168.22 c 0,-4.709 -3.84,-8.551 -8.551,-8.551 l -51.299,0 c -4.709,0 -8.55,3.842 -8.55,8.551 l 0,168.22 C -8.55,-3.9 -4.65,0 0,0"
             style="fill:none;stroke:#231f20;stroke-width:0.5;stroke-linecap:butt;stroke-linejoin:miter;stroke-miterlimit:4;stroke-opacity:1;stroke-dasharray:none"
             id="path3701" />
        </g>
      </g>
    </g>
    <g
       transform="matrix(1.25,0,0,-1.25,-451.66952,1279.6651)"
       id="g3703">
      <g
         id="g3705"
         clip-path="url(#clipPath3707)">
        <g
           id="g3711"
           transform="translate(509.4259,692.9366)">
          <path
             inkscape:connector-curvature="0"
             d="m 0,0 51.246,0 c 3.533,-0.012 6.42,-2.914 6.441,-6.439 l 0,-76.707 c -0.021,-3.53 -2.908,-6.422 -6.441,-6.44 l -51.246,0 c -3.524,0.018 -6.426,2.91 -6.44,6.44 l 0,76.707 C -6.426,-2.914 -3.524,-0.012 0,0"
             style="fill:#bf2519;fill-opacity:1;fill-rule:evenodd;stroke:none"
             id="path3713" />
        </g>
        <g
           id="g3715"
           transform="translate(509.4589,690.4397)">
          <path
             inkscape:connector-curvature="0"
             d="m 0,0 51.182,0 c 2.201,-0.012 3.964,-1.774 3.976,-3.975 l 0,-76.645 c -0.012,-2.189 -1.775,-3.974 -3.976,-3.972 l -51.182,0 c -2.199,-0.002 -3.965,1.783 -3.975,3.972 l 0,76.645 C -3.965,-1.774 -2.199,-0.014 0,0"
             style="fill:#ffffff;fill-opacity:1;fill-rule:evenodd;stroke:none"
             id="path3717" />
        </g>
        <g
           id="g3719"
           transform="translate(560.674,511.8902)">
          <path
             inkscape:connector-curvature="0"
             d="m 0,0 -51.246,0 c -3.531,0.014 -6.418,2.916 -6.44,6.442 l 0,76.707 c 0.022,3.528 2.909,6.421 6.44,6.439 L 0,89.588 C 3.523,89.57 6.426,86.677 6.439,83.149 l 0,-76.707 C 6.426,2.916 3.523,0.014 0,0"
             style="fill:#00674c;fill-opacity:1;fill-rule:evenodd;stroke:none"
             id="path3721" />
        </g>
        <g
           id="g3723"
           transform="translate(560.6409,514.3882)">
          <path
             inkscape:connector-curvature="0"
             d="m 0,0 -51.182,0 c -2.201,0.012 -3.963,1.774 -3.975,3.975 l 0,76.644 c 0.012,2.189 1.774,3.974 3.975,3.972 l 51.182,0 c 2.199,0.002 3.964,-1.783 3.974,-3.972 l 0,-76.644 C 3.964,1.774 2.199,0.014 0,0"
             style="fill:#ffffff;fill-opacity:1;fill-rule:evenodd;stroke:none"
             id="path3725" />
        </g>
        <g
           id="g3727"
           transform="translate(543.3179,677.8058)">
          <path
             inkscape:connector-curvature="0"
             d="m 0,0 c 0,-1.781 -0.107,-2.698 -0.488,-3.941 -0.377,-1.295 -0.971,-1.887 -1.889,-1.887 -0.97,0 -1.564,0.592 -1.941,1.887 -0.328,1.243 -0.488,2.214 -0.488,3.886 0,1.727 0.109,2.754 0.488,3.94 0.377,1.297 0.971,1.888 1.941,1.888 0.918,0 1.512,-0.591 1.889,-1.942 C -0.164,2.699 0,1.727 0,0 m 2.104,0 c 0,2.32 -0.217,3.777 -0.861,5.287 -0.758,1.889 -1.838,2.645 -3.62,2.645 -1.781,0 -2.861,-0.756 -3.671,-2.588 C -6.695,3.885 -6.912,2.32 -6.912,0 c 0,-2.375 0.217,-3.832 0.864,-5.344 0.757,-1.836 1.837,-2.654 3.671,-2.654 1.729,0 2.862,0.818 3.62,2.654 0.644,1.458 0.861,2.969 0.861,5.344 m -12.037,-7.719 0,15.383 -2.213,0 0,-9.229 -4.213,9.229 -2.213,0 0,-15.383 2.213,0 0,10.309 4.75,-10.309 1.676,0 z"
             style="fill:#bf2519;fill-opacity:1;fill-rule:evenodd;stroke:none"
             id="path3729" />
        </g>
        <g
           id="g3731"
           transform="translate(556.4379,655.7452)">
          <path
             inkscape:connector-curvature="0"
             d="m 0,0 0,3.281 -2.387,0 0,-1.663 0.765,0 0,-1.709 c 0,-0.854 -0.314,-1.395 -0.898,-1.395 -0.586,0 -0.9,0.451 -1.08,1.304 -0.135,1.081 -0.225,1.936 -0.225,3.69 0,1.753 0.09,2.606 0.268,3.641 0.137,0.856 0.541,1.26 1.125,1.26 0.451,0 0.721,-0.268 0.81,-0.81 l 1.622,0 c -0.182,1.575 -1.036,2.473 -2.477,2.473 -1.258,0 -2.023,-0.494 -2.426,-1.663 -0.451,-1.216 -0.588,-2.34 -0.588,-4.901 0,-2.609 0.137,-3.779 0.539,-4.947 0.409,-1.215 1.172,-1.717 2.475,-1.717 1.17,0 2.025,0.592 2.295,1.492 C -0.094,-1.262 0,-0.584 0,0 m -6.997,-2.926 0,12.82 -1.619,0 0,-6.386 -2.293,6.386 -1.617,0 0,-12.82 1.617,0 0,7.602 2.518,-7.602 1.394,0 z m -7.441,12.82 -1.621,0 0,-12.819 1.621,0 0,12.819 z m -2.768,-12.82 -2.296,8.41 2.117,4.41 -1.891,0 -2.023,-4.093 0,4.093 -1.621,0 0,-12.82 1.621,0 0,4.813 0.629,1.259 1.709,-6.072 1.755,0 z m -8.478,9.266 c 0,-1.213 -0.272,-1.619 -1.17,-1.619 l -1.078,0 0,3.508 0.808,0 c 1.124,0 1.44,-0.451 1.44,-1.889 m 1.662,-0.044 c 0,2.382 -1.031,3.598 -3.012,3.598 l -2.517,0 0,-12.82 1.619,0 0,5.983 0.764,0 1.437,-5.983 1.666,0 -1.303,6.389 c 0.944,0.584 1.346,1.392 1.346,2.833 m -9.193,-4.14 -1.397,0 0.719,3.373 0.678,-3.373 z m 2.785,-5.082 -2.653,12.82 -1.666,0 -2.607,-12.82 1.664,0 0.723,3.42 2.111,0 0.719,-3.42 1.709,0 z m -8.479,9.086 c 0,-1.348 -0.359,-1.844 -1.347,-1.844 l -0.899,0 0,3.913 0.899,0 c 0.898,0 1.347,-0.63 1.347,-2.069 m 1.664,0 c 0,1.396 -0.492,2.61 -1.213,3.194 -0.402,0.36 -1.08,0.54 -1.798,0.54 l -2.52,0 0,-12.82 1.621,0 0,5.578 0.899,0 c 1.798,0 3.011,1.395 3.011,3.508"
             style="fill:#bf2519;fill-opacity:1;fill-rule:evenodd;stroke:none"
             id="path3733" />
        </g>
        <g
           id="g3735"
           transform="translate(545.8519,648.3156)">
          <path
             inkscape:connector-curvature="0"
             d="M 0,0 -1.584,0 -3.274,-3.705 -5.002,0 l -1.547,0 2.519,-5.612 0,-4.64 1.475,0 0,4.64 L 0,0 z m -7.952,-10.252 0,10.252 -1.478,0 0,-6.152 -2.805,6.152 -1.476,0 0,-10.252 1.476,0 0,6.872 3.166,-6.872 1.117,0 z m -9.718,4.244 -1.477,0 0.721,2.951 0.756,-2.951 z m 2.554,-4.244 L -17.67,0 l -1.44,0 -2.554,-10.252 1.474,0 0.686,2.805 2.191,0 0.721,-2.805 1.476,0 z"
             style="fill:#bf2519;fill-opacity:1;fill-rule:evenodd;stroke:none"
             id="path3737" />
        </g>
        <g
           id="g3739"
           transform="translate(546.1759,623.3431)">
          <path
             inkscape:connector-curvature="0"
             d="m 0,0 0,1.439 -3.742,0 0,3.383 2.123,0 0,1.402 -2.123,0 0,2.59 3.349,0 0,1.44 -4.824,0 L -5.217,0 0,0 z m -7.449,0 0,10.254 -1.475,0 -1.906,-5.756 -1.91,5.756 -1.477,0 0,-10.254 1.477,0 0,5.756 1.91,-5.756 1.906,5.756 0,-5.756 1.475,0 z m -9,10.254 -1.438,0 0,-10.254 1.438,0 0,10.254 z m -2.84,-1.368 0,1.368 -5.217,0 0,-1.368 1.869,0 0,-8.886 1.473,0 0,8.886 1.875,0 z"
             style="fill:#bf2519;fill-opacity:1;fill-rule:evenodd;stroke:none"
             id="path3741" />
        </g>
        <g
           id="g3743"
           transform="translate(525.7129,610.6732)">
          <path
             inkscape:connector-curvature="0"
             d="M 0,0 -7.344,4.967 0,9.939 C 0.324,10.16 0.767,10.076 0.986,9.752 1.135,9.537 1.107,9.312 1.041,9.047 l -0.65,-2.157 25.699,0 0,-3.845 -25.699,0 0.634,-2.121 C 1.107,0.631 1.141,0.414 0.986,0.189 0.767,-0.137 0.324,-0.221 0,0"
             style="fill:#bf2519;fill-opacity:1;fill-rule:evenodd;stroke:none"
             id="path3745" />
        </g>
        <g
           id="g3747"
           transform="translate(545.4099,581.8512)">
          <path
             inkscape:connector-curvature="0"
             d="m 0,0 0,1.44 -3.742,0 0,3.382 2.123,0 0,1.403 -2.123,0 0,2.59 3.348,0 0,1.439 -4.825,0 L -5.219,0 0,0 z m -7.138,0 0,10.254 -1.475,0 0,-6.152 -2.805,6.152 -1.478,0 0,-10.254 1.478,0 0,6.873 L -8.25,0 -7.138,0 z m -8.938,5.145 c 0,-1.19 -0.072,-1.799 -0.322,-2.627 -0.252,-0.864 -0.647,-1.258 -1.262,-1.258 -0.646,0 -1.043,0.394 -1.295,1.258 -0.215,0.828 -0.324,1.474 -0.324,2.589 0,1.153 0.074,1.836 0.324,2.631 0.252,0.86 0.649,1.256 1.295,1.256 0.615,0 1.01,-0.396 1.262,-1.293 0.215,-0.758 0.322,-1.406 0.322,-2.556 m 1.404,0 c 0,1.548 -0.142,2.519 -0.576,3.527 -0.504,1.258 -1.223,1.762 -2.412,1.762 -1.187,0 -1.904,-0.504 -2.445,-1.727 -0.43,-0.969 -0.576,-2.014 -0.576,-3.562 0,-1.582 0.146,-2.555 0.576,-3.563 0.504,-1.223 1.222,-1.769 2.445,-1.769 1.152,0 1.908,0.546 2.412,1.769 0.434,0.971 0.576,1.981 0.576,3.563"
             style="fill:#00674c;fill-opacity:1;fill-rule:evenodd;stroke:none"
             id="path3749" />
        </g>
        <g
           id="g3751"
           transform="translate(547.8049,572.7512)">
          <path
             inkscape:connector-curvature="0"
             d="m 0,0 c 0,-0.826 -0.469,-1.294 -1.33,-1.294 l -1.516,0 0,2.591 1.516,0 C -0.541,1.297 0,0.793 0,0 m 1.437,-7.519 -1.472,5.037 c 0.97,0.361 1.472,1.26 1.472,2.482 0,1.659 -1.078,2.737 -2.697,2.737 l -3.061,0 0,-10.256 1.475,0 0,4.822 1.408,0 1.365,-4.822 1.51,0 z m -7.535,3.059 0,7.197 -1.478,0 0,-7.375 c 0,-0.973 -0.577,-1.619 -1.366,-1.619 -0.863,0 -1.439,0.646 -1.439,1.619 l 0,7.375 -1.479,0 0,-7.197 c 0,-0.827 0.108,-1.26 0.399,-1.797 0.504,-0.866 1.51,-1.446 2.519,-1.446 0.971,0 1.942,0.618 2.446,1.446 0.289,0.537 0.398,0.97 0.398,1.797 m -8.801,2.085 c 0,-1.187 -0.072,-1.794 -0.322,-2.625 -0.254,-0.865 -0.65,-1.257 -1.262,-1.257 -0.65,0 -1.043,0.392 -1.293,1.257 -0.216,0.831 -0.326,1.475 -0.326,2.59 0,1.153 0.072,1.836 0.326,2.627 0.25,0.864 0.643,1.26 1.293,1.26 0.612,0 1.008,-0.396 1.262,-1.297 0.213,-0.754 0.322,-1.402 0.322,-2.555 m 1.403,0 c 0,1.549 -0.143,2.52 -0.573,3.528 -0.506,1.26 -1.226,1.763 -2.414,1.763 -1.187,0 -1.906,-0.503 -2.445,-1.726 -0.434,-0.973 -0.578,-2.016 -0.578,-3.565 0,-1.582 0.144,-2.554 0.578,-3.562 0.502,-1.221 1.225,-1.766 2.445,-1.766 1.153,0 1.908,0.545 2.414,1.766 0.43,0.973 0.573,1.98 0.573,3.562 m -7.61,-5.144 0,10.256 -1.474,0 0,-4.176 -2.809,0 0,4.176 -1.475,0 0,-10.256 1.475,0 0,4.643 2.809,0 0,-4.643 1.474,0 z"
             style="fill:#00674c;fill-opacity:1;fill-rule:evenodd;stroke:none"
             id="path3753" />
        </g>
        <g
           id="g3755"
           transform="translate(556.5569,551.4061)">
          <path
             inkscape:connector-curvature="0"
             d="m 0,0 0,2.123 -2.625,0 0,-1.44 1.152,0 0,-0.683 c 0,-1.076 -0.365,-1.582 -1.117,-1.582 -0.793,0 -1.297,0.541 -1.512,1.547 -0.144,0.791 -0.217,1.691 -0.217,2.556 0,1.221 0.18,2.373 0.469,2.877 0.252,0.504 0.647,0.756 1.152,0.756 0.719,0 1.188,-0.469 1.225,-1.15 l 1.473,0 c -0.071,1.509 -1.188,2.59 -2.662,2.59 -1.188,0 -2.233,-0.793 -2.592,-1.874 -0.36,-0.97 -0.467,-2.013 -0.467,-3.455 0,-1.33 0.213,-2.767 0.541,-3.525 0.502,-1.15 1.402,-1.768 2.625,-1.768 1.045,0 1.869,0.547 2.27,1.446 C -0.071,-1.151 0,-0.719 0,0 m -7.174,-2.842 0,10.256 -1.477,0 0,-6.153 -2.806,6.153 -1.477,0 0,-10.256 1.477,0 0,6.875 3.166,-6.875 1.117,0 z m -7.426,10.256 -1.441,0 0,-10.256 1.441,0 0,10.256 z m -2.568,-10.256 -2.377,6.658 2.123,3.598 -1.69,0 -2.34,-4.104 0,4.104 -1.476,0 0,-10.256 1.476,0 0,3.275 0.936,1.727 1.799,-5.002 1.549,0 z m -8.328,7.518 c 0,-0.825 -0.467,-1.293 -1.331,-1.293 l -1.511,0 0,2.591 1.511,0 c 0.792,0 1.331,-0.504 1.331,-1.298 m 1.441,-7.518 -1.479,5.037 c 0.973,0.361 1.479,1.26 1.479,2.481 0,1.658 -1.08,2.738 -2.699,2.738 l -3.063,0 0,-10.256 1.479,0 0,4.822 1.402,0 1.367,-4.822 1.514,0 z m -9.156,4.246 -1.475,0 0.719,2.949 0.756,-2.949 z m 2.554,-4.246 -2.554,10.256 -1.44,0 -2.554,-10.256 1.476,0 0.684,2.807 2.195,0 0.719,-2.807 1.474,0 z m -8.037,7.375 c 0,-0.934 -0.468,-1.475 -1.332,-1.475 l -1.509,0 0,2.916 1.509,0 c 0.791,0 1.332,-0.576 1.332,-1.441 m 1.438,0 c 0,1.728 -1.076,2.881 -2.696,2.881 l -3.062,0 0,-10.256 1.479,0 0,4.498 1.583,0 c 1.725,0 2.696,1.008 2.696,2.877"
             style="fill:#00674c;fill-opacity:1;fill-rule:evenodd;stroke:none"
             id="path3757" />
        </g>
        <g
           id="g3759"
           transform="translate(556.3029,531.8202)">
          <path
             inkscape:connector-curvature="0"
             d="m 0,0 0,10.256 -1.299,0 -1.221,-3.635 -1.26,3.635 -1.294,0 0,-10.256 1.294,0 0,6.08 1.26,-3.85 1.221,3.85 0,-6.08 L 0,0 z m -7.813,7.269 c 0,-1.08 -0.287,-1.476 -1.078,-1.476 l -0.721,0 0,3.131 0.721,0 c 0.719,0 1.078,-0.504 1.078,-1.655 m 1.332,0 c 0,1.114 -0.396,2.088 -0.97,2.557 -0.325,0.285 -0.864,0.43 -1.44,0.43 l -2.014,0 0,-10.256 1.293,0 0,4.463 0.721,0 c 1.44,0 2.41,1.113 2.41,2.806 m -6.334,1.655 0,1.332 -4.425,0 0,-1.332 3.095,0 C -15.406,6.476 -16.02,3.742 -16.125,0 l 1.33,0 c 0.109,3.851 0.613,6.152 1.98,8.924 m -6.299,-3.453 -3.203,0 0,-1.333 3.203,0 0,1.333 z M -25.196,0 l 0,10.256 -1.294,0 -1.223,-3.635 -1.26,3.635 -1.297,0 0,-10.256 1.297,0 0,6.08 1.26,-3.85 1.223,3.85 0,-6.08 1.294,0 z m -8.709,4.066 -1.115,0 0.576,2.699 0.539,-2.699 z M -31.676,0 l -2.121,10.256 -1.332,0 L -37.215,0 l 1.33,0 0.576,2.736 1.694,0 0.574,-2.736 1.365,0 z m -7.699,7.269 c 0,-1.226 -0.252,-1.763 -0.864,-1.763 -0.574,0 -0.865,0.502 -0.865,1.617 0,1.367 0.254,1.98 0.865,1.98 0.213,0 0.43,-0.109 0.579,-0.322 0.212,-0.217 0.285,-0.723 0.285,-1.512 m 1.33,0.108 c 0,1.98 -0.754,3.056 -2.156,3.056 -0.577,0 -1.045,-0.177 -1.444,-0.502 -0.502,-0.468 -0.789,-1.441 -0.789,-2.662 0,-0.933 0.213,-1.871 0.539,-2.304 0.397,-0.502 1.01,-0.791 1.656,-0.791 0.106,0 0.178,0 0.25,0.037 -0.539,-1.33 -1.292,-2.301 -2.445,-3.274 l 0.719,-1.123 c 2.449,1.987 3.67,4.504 3.67,7.563"
             style="fill:#00674c;fill-opacity:1;fill-rule:evenodd;stroke:none"
             id="path3761" />
        </g>
        <g
           id="g3763"
           transform="translate(544.4409,519.2031)">
          <path
             inkscape:connector-curvature="0"
             d="M 0,0 7.346,4.968 0,9.941 C -0.322,10.16 -0.763,10.078 -0.984,9.754 -1.13,9.537 -1.107,9.312 -1.037,9.048 l 0.649,-2.156 -25.698,0 0,-3.847 25.698,0 -0.635,-2.122 C -1.103,0.632 -1.136,0.416 -0.984,0.189 -0.763,-0.135 -0.322,-0.219 0,0"
             style="fill:#00674c;fill-opacity:1;fill-rule:evenodd;stroke:none"
             id="path3765" />
        </g>
      </g>
    </g>
  </g>
</svg>
