<?xml version="1.0" encoding="UTF-8" standalone="no"?>
<!-- Created with Inkscape (http://www.inkscape.org/) -->

<svg
   xmlns:dc="http://purl.org/dc/elements/1.1/"
   xmlns:cc="http://creativecommons.org/ns#"
   xmlns:rdf="http://www.w3.org/1999/02/22-rdf-syntax-ns#"
   xmlns:svg="http://www.w3.org/2000/svg"
   xmlns="http://www.w3.org/2000/svg"
   xmlns:sodipodi="http://sodipodi.sourceforge.net/DTD/sodipodi-0.dtd"
   xmlns:inkscape="http://www.inkscape.org/namespaces/inkscape"
   width="86.132812"
   height="128.86719"
   id="svg11623"
   version="1.1"
   inkscape:version="0.48.1 "
   sodipodi:docname="New document 63">
  <defs
     id="defs11625">
    <clipPath
       clipPathUnits="userSpaceOnUse"
       id="clipPath9265">
      <path
         inkscape:connector-curvature="0"
         d="m 27,33.9 512.875,0 0,601.5 L 27,635.4 27,33.9 z"
         id="path9267" />
    </clipPath>
  </defs>
  <sodipodi:namedview
     id="base"
     pagecolor="#ffffff"
     bordercolor="#666666"
     borderopacity="1.0"
     inkscape:pageopacity="0.0"
     inkscape:pageshadow="2"
     inkscape:zoom="0.35"
     inkscape:cx="332.36258"
     inkscape:cy="18.716023"
     inkscape:document-units="px"
     inkscape:current-layer="layer1"
     showgrid="false"
     fit-margin-top="0"
     fit-margin-left="0"
     fit-margin-right="0"
     fit-margin-bottom="0"
     inkscape:window-width="469"
     inkscape:window-height="403"
     inkscape:window-x="100"
     inkscape:window-y="100"
     inkscape:window-maximized="0" />
  <metadata
     id="metadata11628">
    <rdf:RDF>
      <cc:Work
         rdf:about="">
        <dc:format>image/svg+xml</dc:format>
        <dc:type
           rdf:resource="http://purl.org/dc/dcmitype/StillImage" />
        <dc:title></dc:title>
      </cc:Work>
    </rdf:RDF>
  </metadata>
  <g
     inkscape:label="Layer 1"
     inkscape:groupmode="layer"
     id="layer1"
     transform="translate(-42.637415,-79.353875)">
    <g
       transform="matrix(1.25,0,0,-1.25,-143.83971,845.93425)"
       id="g9261">
      <g
         id="g9263"
         clip-path="url(#clipPath9265)">
        <g
           id="g9269"
           transform="translate(157.9942,613.0143)">
          <path
             inkscape:connector-curvature="0"
             d="m 0,0 51.298,0 c 4.709,0 8.55,-3.841 8.55,-8.55 l 0,-85.5 c 0,-4.709 -3.841,-8.549 -8.55,-8.549 l -51.298,0 c -4.709,0 -8.55,3.84 -8.55,8.549 l 0,85.5 C -8.55,-3.9 -4.651,0 0,0"
             style="fill:#ffffff;fill-opacity:1;fill-rule:nonzero;stroke:#231f20;stroke-width:0.5;stroke-linecap:butt;stroke-linejoin:miter;stroke-miterlimit:4;stroke-opacity:1;stroke-dasharray:none"
             id="path9271" />
        </g>
        <g
           id="g9273"
           transform="translate(158.0212,610.8771)">
          <path
             inkscape:connector-curvature="0"
             d="m 0,0 51.244,0 c 3.532,-0.014 6.418,-2.914 6.44,-6.44 l 0,-85.445 c -0.022,-3.528 -2.908,-6.422 -6.44,-6.44 l -51.244,0 c -3.523,0.018 -6.429,2.912 -6.439,6.44 l 0,85.445 C -6.428,-2.914 -3.523,-0.014 0,0"
             style="fill:#bf2519;fill-opacity:1;fill-rule:evenodd;stroke:none"
             id="path9275" />
        </g>
        <g
           id="g9277"
           transform="translate(158.0522,608.3804)">
          <path
             inkscape:connector-curvature="0"
             d="m 0,0 51.181,0 c 2.2,-0.013 3.964,-1.774 3.976,-3.975 l 0,-85.382 c -0.012,-2.19 -1.776,-3.976 -3.976,-3.974 l -51.181,0 c -2.198,-0.002 -3.963,1.784 -3.974,3.974 l 0,85.382 C -3.964,-1.774 -2.198,-0.013 0,0"
             style="fill:#ffffff;fill-opacity:1;fill-rule:evenodd;stroke:none"
             id="path9279" />
        </g>
        <g
           id="g9281"
           transform="translate(189.0872,589.0626)">
          <path
             inkscape:connector-curvature="0"
             d="m 0,0 -9.793,0 0,-7.763 9.793,0 c 2.627,0 4.299,1.553 4.299,3.941 C 4.299,-1.672 2.508,0 0,0 m 5.731,-13.137 c -2.029,-1.074 -3.461,-1.432 -6.568,-1.432 l -8.956,0 0,-12.779 -6.687,0 0,34.155 16.002,0 c 2.866,0 4.301,-0.358 6.209,-1.433 3.224,-1.911 5.254,-5.374 5.254,-9.196 0,-3.941 -2.03,-7.523 -5.254,-9.315"
             style="fill:#231f20;fill-opacity:1;fill-rule:nonzero;stroke:none"
             id="path9283" />
        </g>
        <g
           id="g9285"
           transform="translate(183.6192,606.6147)">
          <path
             inkscape:connector-curvature="0"
             d="m 0,0 c 15.302,0 27.787,-12.482 27.787,-27.788 0,-15.304 -12.485,-27.787 -27.787,-27.787 -15.305,0 -27.787,12.483 -27.787,27.787 C -27.787,-12.482 -15.305,0 0,0 m 17.535,-40.698 c 6.619,8.52 5.822,20.797 -1.996,28.616 -7.819,7.82 -19.998,8.519 -28.518,1.903 l 30.514,-30.519 z m -4.58,-4.487 c -8.52,-6.621 -20.673,-5.796 -28.493,2.025 -7.822,7.82 -8.646,19.973 -2.027,28.493 l 30.52,-30.518 z"
             style="fill:#bf2519;fill-opacity:1;fill-rule:evenodd;stroke:none"
             id="path9287" />
        </g>
        <g
           id="g9289"
           transform="translate(182.5672,540.2466)">
          <path
             inkscape:connector-curvature="0"
             d="m 0,0 c 0,-0.84 0.16,-4.398 -1.119,-4.398 -1.32,0 -1.198,3.598 -1.198,4.398 0,0.799 -0.122,4.356 1.198,4.396 C 0.2,4.356 0,0.799 0,0 m 1.519,0 c 0,1.998 0.16,5.876 -2.638,5.876 -2.639,0 -2.678,-3.878 -2.678,-5.876 0,-1.919 -0.16,-5.884 2.678,-5.884 2.798,0 2.597,3.965 2.638,5.884 m -6.796,-2.52 c 0,1 -0.08,1.759 -0.319,2.32 -0.12,0.239 -0.28,0.439 -0.559,0.719 0.439,0.799 0.598,1.479 0.598,2.478 0,1.92 -0.8,2.879 -2.358,2.879 -1.279,0 -2.158,-0.84 -2.238,-2.239 l 1.478,0 c 0.04,0.48 0.32,0.759 0.76,0.759 0.599,0 0.88,-0.44 0.88,-1.399 0,-1.319 -0.281,-1.759 -1.08,-1.759 l -0.359,0 0,-1.479 0.48,0 c 0.959,0 1.238,-0.479 1.238,-2.279 0,-1.358 -0.279,-1.918 -1.039,-1.918 -0.48,0 -0.84,0.36 -0.88,0.839 l -1.478,0 c 0,-0.359 0.12,-0.759 0.36,-1.119 0.479,-0.8 1.118,-1.207 1.958,-1.207 0.959,0 1.439,0.247 1.879,0.766 0.439,0.561 0.679,1.52 0.679,2.639 m -10.114,0.121 c 0,-1.28 -0.358,-2.039 -0.959,-2.039 -0.638,0 -0.999,0.759 -0.999,2.039 0,1.278 0.361,1.958 0.999,1.958 0.601,0 0.959,-0.68 0.959,-1.958 m -0.199,4.957 c 0,-1.04 -0.24,-1.519 -0.76,-1.519 -0.559,0 -0.8,0.479 -0.8,1.519 0,1.199 0.241,1.838 0.8,1.838 0.52,0 0.76,-0.639 0.76,-1.838 m 1.679,-4.957 c 0,1.198 -0.32,2.119 -0.879,2.839 0.479,0.52 0.679,1.238 0.679,2.198 0,1.958 -0.879,3.238 -2.279,3.238 -1.359,0 -2.238,-1.28 -2.238,-3.238 0,-1 0.2,-1.64 0.68,-2.198 -0.561,-0.72 -0.879,-1.679 -0.879,-2.839 0,-0.84 0.199,-1.679 0.479,-2.279 0.4,-0.84 0.999,-1.247 1.998,-1.247 0.76,0 1.32,0.288 1.719,0.807 0.44,0.6 0.72,1.639 0.72,2.719"
             style="fill:#bf2519;fill-opacity:1;fill-rule:evenodd;stroke:none"
             id="path9291" />
        </g>
        <g
           id="g9293"
           transform="translate(203.5292,534.5289)">
          <path
             inkscape:connector-curvature="0"
             d="m 0,0 0,11.394 -1.44,0 -1.358,-4.038 -1.399,4.038 -1.44,0 0,-11.394 1.44,0 0,6.757 L -2.798,2.479 -1.44,6.757 -1.44,0 0,0 z m -9.674,4.517 -1.238,0 0.639,2.999 0.599,-2.999 z M -7.195,0 l -2.358,11.394 -1.478,0 -2.32,-11.394 1.479,0 0.639,3.039 1.877,0 0.641,-3.039 1.52,0 z"
             style="fill:#bf2519;fill-opacity:1;fill-rule:evenodd;stroke:none"
             id="path9295" />
        </g>
        <g
           id="g9297"
           transform="translate(168.7122,524.7339)">
          <path
             inkscape:connector-curvature="0"
             d="m 0,0 c 0,-0.76 0.16,-4.438 -1.12,-4.438 -1.319,0 -1.159,3.678 -1.159,4.438 0,0.799 -0.16,4.357 1.159,4.357 C -0.041,4.357 0,0.919 0,0 m 1.519,0 c 0,1.918 0.159,5.836 -2.639,5.836 -2.798,0 -2.638,-3.878 -2.638,-5.836 0,-1.878 -0.2,-5.923 2.638,-5.923 2.798,0 2.639,4.045 2.639,5.923 m -6.556,4.198 0,1.479 -4.317,0 0,-1.479 1.398,0 0,-9.915 1.44,0 0,9.915 1.479,0 z"
             style="fill:#bf2519;fill-opacity:1;fill-rule:evenodd;stroke:none"
             id="path9299" />
        </g>
        <g
           id="g9301"
           transform="translate(191.1602,524.7339)">
          <path
             inkscape:connector-curvature="0"
             d="m 0,0 c 0,-0.839 0.162,-4.397 -1.119,-4.397 -1.319,0 -1.199,3.597 -1.199,4.397 0,0.799 -0.12,4.357 1.199,4.396 C 0.2,4.357 0,0.799 0,0 m 1.519,0 c 0,1.999 0.16,5.876 -2.638,5.876 -2.639,0 -2.678,-3.877 -2.678,-5.876 0,-1.919 -0.159,-5.883 2.678,-5.883 2.798,0 2.597,3.964 2.638,5.883 m -6.795,-2.519 c 0,1 -0.081,1.759 -0.32,2.32 -0.119,0.239 -0.28,0.439 -0.559,0.719 0.44,0.799 0.599,1.479 0.599,2.478 0,1.919 -0.799,2.878 -2.358,2.878 -1.28,0 -2.159,-0.839 -2.239,-2.238 l 1.479,0 c 0.04,0.479 0.32,0.758 0.76,0.758 0.599,0 0.879,-0.439 0.879,-1.398 0,-1.32 -0.28,-1.759 -1.08,-1.759 l -0.359,0 0,-1.479 0.481,0 c 0.958,0 1.239,-0.48 1.239,-2.279 0,-1.359 -0.281,-1.919 -1.04,-1.919 -0.48,0 -0.84,0.361 -0.88,0.839 l -1.479,0 c 0,-0.36 0.12,-0.758 0.361,-1.118 0.479,-0.8 1.118,-1.206 1.958,-1.206 0.959,0 1.438,0.246 1.879,0.766 0.439,0.56 0.679,1.519 0.679,2.638 m -7.836,1.319 c 0,0.8 -0.199,1.6 -0.519,2.119 -0.44,0.72 -0.999,1.039 -1.878,1.039 -0.24,0 -0.441,-0.04 -0.76,-0.079 l 0.039,2.319 2.799,0 0,1.479 -4.197,0 L -17.827,0.16 -16.349,0 c 0.28,0.32 0.48,0.479 0.8,0.479 0.599,0 0.959,-0.56 0.959,-1.439 0,-0.759 -0.2,-1.759 -0.48,-2.398 -0.28,-0.76 -0.639,-1.08 -1.199,-1.08 -0.319,0 -0.559,0.081 -0.96,0.32 l -0.76,-1.279 c 0.561,-0.367 1.121,-0.526 1.72,-0.526 1.079,0 1.878,0.526 2.439,1.566 0.479,0.959 0.718,2.078 0.718,3.157"
             style="fill:#bf2519;fill-opacity:1;fill-rule:evenodd;stroke:none"
             id="path9303" />
        </g>
        <g
           id="g9305"
           transform="translate(207.8922,519.017)">
          <path
             inkscape:connector-curvature="0"
             d="m 0,0 0,11.394 -1.438,0 -1.361,-4.038 -1.398,4.038 -1.441,0 0,-11.394 1.441,0 0,6.756 1.398,-4.278 1.361,4.278 L -1.438,0 0,0 z m -8.675,8.075 c 0,-1.199 -0.319,-1.639 -1.198,-1.639 l -0.801,0 0,3.479 0.801,0 c 0.799,0 1.198,-0.56 1.198,-1.84 m 1.479,0 c 0,1.24 -0.44,2.319 -1.078,2.838 -0.361,0.321 -0.959,0.481 -1.599,0.481 l -2.24,0 0,-11.394 1.439,0 0,4.957 0.801,0 c 1.599,0 2.677,1.239 2.677,3.118"
             style="fill:#bf2519;fill-opacity:1;fill-rule:evenodd;stroke:none"
             id="path9307" />
        </g>
      </g>
    </g>
    <g
       id="g11103"
       transform="matrix(1.25,0,0,-1.25,70.47929,167.80438)">
      <path
         d="M 0,0 C 0,0.48 -0.361,0.839 -0.84,0.839 -1.28,0.839 -1.68,0.48 -1.68,0 c 0,-0.479 0.4,-0.84 0.84,-0.84 C -0.361,-0.84 0,-0.479 0,0"
         style="fill:#bf2519;fill-opacity:1;fill-rule:evenodd;stroke:none"
         id="path11105"
         inkscape:connector-curvature="0" />
    </g>
    <g
       id="g11107"
       transform="matrix(1.25,0,0,-1.25,70.47929,173.49938)">
      <path
         d="m 0,0 c 0,0.481 -0.361,0.841 -0.84,0.841 -0.44,0 -0.84,-0.36 -0.84,-0.841 0,-0.44 0.4,-0.846 0.84,-0.846 C -0.361,-0.846 0,-0.44 0,0"
         style="fill:#bf2519;fill-opacity:1;fill-rule:evenodd;stroke:none"
         id="path11109"
         inkscape:connector-curvature="0" />
    </g>
    <g
       id="g11111"
       transform="matrix(1.25,0,0,-1.25,81.72054,187.19439)">
      <path
         d="m 0,0 c 0,0.479 -0.361,0.839 -0.84,0.839 -0.44,0 -0.84,-0.36 -0.84,-0.839 0,-0.48 0.4,-0.84 0.84,-0.84 C -0.361,-0.84 0,-0.48 0,0"
         style="fill:#bf2519;fill-opacity:1;fill-rule:evenodd;stroke:none"
         id="path11113"
         inkscape:connector-curvature="0" />
    </g>
    <g
       id="g11115"
       transform="matrix(1.25,0,0,-1.25,81.72054,192.88939)">
      <path
         d="m 0,0 c 0,0.481 -0.361,0.84 -0.84,0.84 -0.44,0 -0.84,-0.359 -0.84,-0.84 0,-0.44 0.4,-0.846 0.84,-0.846 C -0.361,-0.846 0,-0.44 0,0"
         style="fill:#bf2519;fill-opacity:1;fill-rule:evenodd;stroke:none"
         id="path11117"
         inkscape:connector-curvature="0" />
    </g>
  </g>
</svg>
