<?xml version="1.0" encoding="UTF-8" standalone="no"?>
<!-- Created with Inkscape (http://www.inkscape.org/) -->

<svg
   xmlns:dc="http://purl.org/dc/elements/1.1/"
   xmlns:cc="http://creativecommons.org/ns#"
   xmlns:rdf="http://www.w3.org/1999/02/22-rdf-syntax-ns#"
   xmlns:svg="http://www.w3.org/2000/svg"
   xmlns="http://www.w3.org/2000/svg"
   xmlns:sodipodi="http://sodipodi.sourceforge.net/DTD/sodipodi-0.dtd"
   xmlns:inkscape="http://www.inkscape.org/namespaces/inkscape"
   width="86.125"
   height="43.375"
   id="svg4504"
   version="1.1"
   inkscape:version="0.48.1 "
   sodipodi:docname="New document 17">
  <defs
     id="defs4506">
    <clipPath
       clipPathUnits="userSpaceOnUse"
       id="clipPath3415">
      <path
         inkscape:connector-curvature="0"
         d="m 314.23,218.628 261.27,0 0,518.872 -261.27,0 0,-518.872 z"
         id="path3417" />
    </clipPath>
    <clipPath
       clipPathUnits="userSpaceOnUse"
       id="clipPath3403">
      <path
         inkscape:connector-curvature="0"
         d="m 320.23,224.628 249.27,0 0,506.872 -249.27,0 0,-506.872 z"
         id="path3405" />
    </clipPath>
    <clipPath
       clipPathUnits="userSpaceOnUse"
       id="clipPath3391">
      <path
         inkscape:connector-curvature="0"
         d="m 314.23,218.628 261.27,0 0,518.872 -261.27,0 0,-518.872 z"
         id="path3393" />
    </clipPath>
  </defs>
  <sodipodi:namedview
     id="base"
     pagecolor="#ffffff"
     bordercolor="#666666"
     borderopacity="1.0"
     inkscape:pageopacity="0.0"
     inkscape:pageshadow="2"
     inkscape:zoom="0.35"
     inkscape:cx="-81.937505"
     inkscape:cy="127.40179"
     inkscape:document-units="px"
     inkscape:current-layer="layer1"
     showgrid="false"
     fit-margin-top="0"
     fit-margin-left="0"
     fit-margin-right="0"
     fit-margin-bottom="0"
     inkscape:window-width="469"
     inkscape:window-height="403"
     inkscape:window-x="-9"
     inkscape:window-y="136"
     inkscape:window-maximized="0" />
  <metadata
     id="metadata4509">
    <rdf:RDF>
      <cc:Work
         rdf:about="">
        <dc:format>image/svg+xml</dc:format>
        <dc:type
           rdf:resource="http://purl.org/dc/dcmitype/StillImage" />
        <dc:title></dc:title>
      </cc:Work>
    </rdf:RDF>
  </metadata>
  <g
     inkscape:label="Layer 1"
     inkscape:groupmode="layer"
     id="layer1"
     transform="translate(-456.9375,-616.38898)">
    <g
       transform="matrix(1.25,0,0,-1.25,-168.81237,1161.6566)"
       id="g3387">
      <g
         id="g3389"
         clip-path="url(#clipPath3391)">
        <g
           id="g3395"
           transform="translate(509.3749,435.9641)">
          <path
             inkscape:connector-curvature="0"
             d="m 0,0 51.348,0 c 4.689,0 8.527,-3.836 8.527,-8.524 l 0,-17.149 c 0,-4.691 -3.838,-8.527 -8.527,-8.527 L 0,-34.2 c -4.689,0 -8.525,3.836 -8.525,8.527 l 0,17.149 C -8.525,-3.836 -4.689,0 0,0"
             style="fill:#ffffff;fill-opacity:1;fill-rule:nonzero;stroke:none"
             id="path3397" />
        </g>
      </g>
    </g>
    <g
       transform="matrix(1.25,0,0,-1.25,-168.81237,1161.6566)"
       id="g3399">
      <g
         id="g3401"
         clip-path="url(#clipPath3403)">
        <g
           id="g3407"
           transform="translate(509.3749,435.9641)">
          <path
             inkscape:connector-curvature="0"
             d="m 0,0 51.348,0 c 4.689,0 8.527,-3.836 8.527,-8.524 l 0,-17.149 c 0,-4.691 -3.838,-8.527 -8.527,-8.527 L 0,-34.2 c -4.689,0 -8.525,3.836 -8.525,8.527 l 0,17.149 C -8.525,-3.836 -4.689,0 0,0 z"
             style="fill:none;stroke:#231f20;stroke-width:0.5;stroke-linecap:butt;stroke-linejoin:miter;stroke-miterlimit:4;stroke-opacity:1;stroke-dasharray:none"
             id="path3409" />
        </g>
      </g>
    </g>
    <g
       transform="matrix(1.25,0,0,-1.25,-168.81237,1161.6566)"
       id="g3411">
      <g
         id="g3413"
         clip-path="url(#clipPath3415)">
        <g
           id="g3419"
           transform="translate(509.3749,433.8271)">
          <path
             inkscape:connector-curvature="0"
             d="m 0,0 51.348,0 c 3.515,0 6.388,-2.875 6.388,-6.387 l 0,-17.149 c 0,-3.514 -2.873,-6.389 -6.388,-6.389 l -51.348,0 c -3.512,0 -6.389,2.875 -6.389,6.389 l 0,17.149 C -6.389,-2.875 -3.512,0 0,0"
             style="fill:#bf2519;fill-opacity:1;fill-rule:evenodd;stroke:none"
             id="path3421" />
        </g>
        <g
           id="g3423"
           transform="translate(509.3749,431.3312)">
          <path
             inkscape:connector-curvature="0"
             d="m 0,0 51.348,0 c 2.142,0 3.892,-1.752 3.892,-3.891 l 0,-17.149 c 0,-2.141 -1.75,-3.892 -3.892,-3.892 l -51.348,0 c -2.139,0 -3.891,1.751 -3.891,3.892 l 0,17.149 C -3.891,-1.752 -2.139,0 0,0"
             style="fill:#ffffff;fill-opacity:1;fill-rule:evenodd;stroke:none"
             id="path3425" />
        </g>
        <g
           id="g3427"
           transform="translate(526.7809,415.7932)">
          <path
             inkscape:connector-curvature="0"
             d="m 0,0 0,1.239 -5.215,0 0,-8.828 1.475,0 0,4.15 2.051,0 0,1.209 -2.051,0 0,2.23 L 0,0 z m -7.949,-3.16 c 0,-1.023 -0.072,-1.55 -0.324,-2.263 -0.25,-0.743 -0.647,-1.083 -1.258,-1.083 -0.646,0 -1.043,0.34 -1.295,1.083 -0.215,0.713 -0.322,1.272 -0.322,2.232 0,0.992 0.072,1.579 0.322,2.262 0.252,0.744 0.649,1.084 1.295,1.084 0.611,0 1.008,-0.34 1.258,-1.115 0.219,-0.652 0.324,-1.209 0.324,-2.2 m 1.402,0 c 0,1.331 -0.142,2.168 -0.572,3.035 -0.506,1.084 -1.226,1.519 -2.412,1.519 -1.187,0 -1.906,-0.435 -2.445,-1.487 -0.432,-0.836 -0.575,-1.736 -0.575,-3.067 0,-1.363 0.143,-2.2 0.575,-3.066 0.504,-1.055 1.22,-1.524 2.445,-1.524 1.15,0 1.906,0.469 2.412,1.524 0.43,0.836 0.572,1.703 0.572,3.066"
             style="fill:#bf2519;fill-opacity:1;fill-rule:evenodd;stroke:none"
             id="path3429" />
        </g>
        <g
           id="g3431"
           transform="translate(559.6799,420.2351)">
          <path
             inkscape:connector-curvature="0"
             d="m 0,0 0,1.239 -3.741,0 0,2.911 2.122,0 0,1.207 -2.122,0 0,2.232 3.344,0 0,1.238 -4.818,0 L -5.215,0 0,0 z m -7.979,4.369 c 0,-0.684 -0.072,-1.303 -0.142,-1.861 -0.145,-0.68 -0.614,-1.269 -1.475,-1.269 l -1.223,0 0,6.35 1.223,0 c 0.646,0 1.078,-0.279 1.33,-0.898 0.18,-0.373 0.287,-1.334 0.287,-2.322 m 1.442,0.061 c 0,0.681 -0.11,1.455 -0.254,2.105 -0.18,0.9 -0.612,1.58 -1.223,1.951 -0.359,0.248 -0.791,0.341 -1.654,0.341 l -2.625,0 0,-8.827 2.84,0 c 0.576,0 1.08,0.123 1.439,0.402 1.008,0.682 1.477,1.983 1.477,4.028 m -7.295,4.397 -1.44,0 0,-8.827 1.44,0 0,8.827 z m -2.477,-6.411 c 0,1.269 -0.863,2.232 -2.84,3.223 -0.758,0.371 -0.972,0.619 -0.972,1.052 0,0.588 0.541,1.022 1.224,1.022 0.647,0 1.151,-0.403 1.186,-1.022 l 1.402,0 c -0.035,1.33 -1.15,2.291 -2.588,2.291 -1.474,0 -2.627,-1.021 -2.627,-2.291 0,-0.775 0.432,-1.457 1.26,-1.951 2.086,-1.209 1.51,-0.869 1.727,-1.055 0.611,-0.401 0.826,-0.775 0.826,-1.269 0,-0.713 -0.647,-1.332 -1.438,-1.332 -1.008,0 -1.439,0.773 -1.439,1.519 l -1.438,0 c 0,-1.459 1.078,-2.763 2.877,-2.763 1.58,0 2.84,1.15 2.84,2.576"
             style="fill:#bf2519;fill-opacity:1;fill-rule:evenodd;stroke:none"
             id="path3433" />
        </g>
        <g
           id="g3435"
           transform="translate(531.5039,422.6512)">
          <path
             inkscape:connector-curvature="0"
             d="m 0,0 c 0,1.269 -0.863,2.232 -2.842,3.223 -0.754,0.371 -0.971,0.619 -0.971,1.052 0,0.588 0.539,1.022 1.223,1.022 0.649,0 1.152,-0.403 1.188,-1.022 l 1.402,0 c -0.035,1.33 -1.152,2.291 -2.59,2.291 -1.475,0 -2.625,-1.021 -2.625,-2.291 0,-0.775 0.432,-1.457 1.26,-1.951 2.086,-1.209 1.51,-0.869 1.724,-1.055 0.612,-0.401 0.829,-0.775 0.829,-1.269 0,-0.713 -0.649,-1.332 -1.44,-1.332 -1.008,0 -1.437,0.773 -1.437,1.519 l -1.44,0 c 0,-1.459 1.078,-2.763 2.877,-2.763 C -1.258,-2.576 0,-1.426 0,0 m -6.777,6.411 -1.438,0 0,-8.827 1.438,0 0,8.827 z m -2.967,-8.827 0,8.827 -1.475,0 0,-3.593 -2.805,0 0,3.593 -1.474,0 0,-8.827 1.474,0 0,3.994 2.805,0 0,-3.994 1.475,0 z m -6.49,7.652 0,1.175 -5.211,0 0,-1.175 1.867,0 0,-7.652 1.474,0 0,7.652 1.87,0 z"
             style="fill:#bf2519;fill-opacity:1;fill-rule:evenodd;stroke:none"
             id="path3437" />
        </g>
        <g
           id="g3439"
           transform="translate(555.3379,408.2042)">
          <path
             inkscape:connector-curvature="0"
             d="m 0,0 0,8.828 -1.475,0 0,-5.298 -2.806,5.298 -1.475,0 0,-8.828 1.475,0 0,5.916 L -1.115,0 0,0 z m -7.158,2.445 0,1.829 -2.625,0 0,-1.239 1.15,0 0,-0.59 c 0,-0.928 -0.359,-1.362 -1.115,-1.362 -0.791,0 -1.295,0.465 -1.51,1.333 -0.144,0.681 -0.215,1.455 -0.215,2.199 0,1.053 0.178,2.045 0.467,2.477 0.25,0.433 0.647,0.652 1.15,0.652 0.719,0 1.186,-0.405 1.223,-0.992 l 1.475,0 c -0.073,1.3 -1.188,2.231 -2.662,2.231 -1.186,0 -2.229,-0.683 -2.588,-1.61 -0.362,-0.837 -0.469,-1.737 -0.469,-2.975 0,-1.145 0.217,-2.386 0.539,-3.035 0.504,-0.991 1.404,-1.524 2.627,-1.524 1.041,0 1.869,0.469 2.266,1.244 0.214,0.372 0.287,0.743 0.287,1.362 m -7.158,6.383 -1.438,0 0,-8.828 1.438,0 0,8.828 z m -2.553,-6.412 c 0,1.269 -0.864,2.23 -2.842,3.22 -0.756,0.373 -0.971,0.619 -0.971,1.055 0,0.586 0.539,1.022 1.223,1.022 0.648,0 1.152,-0.403 1.187,-1.022 l 1.403,0 c -0.035,1.331 -1.151,2.292 -2.59,2.292 -1.475,0 -2.625,-1.022 -2.625,-2.292 0,-0.775 0.432,-1.458 1.258,-1.952 2.086,-1.209 1.511,-0.868 1.728,-1.054 0.612,-0.404 0.826,-0.773 0.826,-1.269 0,-0.715 -0.646,-1.333 -1.439,-1.333 -1.006,0 -1.439,0.775 -1.439,1.518 l -1.438,0 c 0,-1.457 1.078,-2.762 2.877,-2.762 1.582,0 2.842,1.15 2.842,2.577"
             style="fill:#bf2519;fill-opacity:1;fill-rule:evenodd;stroke:none"
             id="path3441" />
        </g>
      </g>
    </g>
  </g>
</svg>
