<?xml version="1.0" encoding="UTF-8" standalone="no"?>
<!-- Created with Inkscape (http://www.inkscape.org/) -->

<svg
   xmlns:dc="http://purl.org/dc/elements/1.1/"
   xmlns:cc="http://creativecommons.org/ns#"
   xmlns:rdf="http://www.w3.org/1999/02/22-rdf-syntax-ns#"
   xmlns:svg="http://www.w3.org/2000/svg"
   xmlns="http://www.w3.org/2000/svg"
   xmlns:sodipodi="http://sodipodi.sourceforge.net/DTD/sodipodi-0.dtd"
   xmlns:inkscape="http://www.inkscape.org/namespaces/inkscape"
   width="86.124748"
   height="128.87375"
   id="svg12179"
   version="1.1"
   inkscape:version="0.48.1 "
   sodipodi:docname="New document 69">
  <defs
     id="defs12181">
    <clipPath
       clipPathUnits="userSpaceOnUse"
       id="clipPath9419">
      <path
         inkscape:connector-curvature="0"
         d="m 27,33.9 512.875,0 0,601.5 L 27,635.4 27,33.9 z"
         id="path9421" />
    </clipPath>
    <clipPath
       clipPathUnits="userSpaceOnUse"
       id="clipPath9407">
      <path
         inkscape:connector-curvature="0"
         d="m 49.396,43.029 468.083,0 0,592.371 -468.083,0 0,-592.371 z"
         id="path9409" />
    </clipPath>
    <clipPath
       clipPathUnits="userSpaceOnUse"
       id="clipPath9395">
      <path
         inkscape:connector-curvature="0"
         d="m 27,33.9 512.875,0 0,601.5 L 27,635.4 27,33.9 z"
         id="path9397" />
    </clipPath>
  </defs>
  <sodipodi:namedview
     id="base"
     pagecolor="#ffffff"
     bordercolor="#666666"
     borderopacity="1.0"
     inkscape:pageopacity="0.0"
     inkscape:pageshadow="2"
     inkscape:zoom="0.35"
     inkscape:cx="143.77666"
     inkscape:cy="30.151192"
     inkscape:document-units="px"
     inkscape:current-layer="layer1"
     showgrid="false"
     fit-margin-top="0"
     fit-margin-left="0"
     fit-margin-right="0"
     fit-margin-bottom="0"
     inkscape:window-width="469"
     inkscape:window-height="403"
     inkscape:window-x="75"
     inkscape:window-y="75"
     inkscape:window-maximized="0" />
  <metadata
     id="metadata12184">
    <rdf:RDF>
      <cc:Work
         rdf:about="">
        <dc:format>image/svg+xml</dc:format>
        <dc:type
           rdf:resource="http://purl.org/dc/dcmitype/StillImage" />
        <dc:title></dc:title>
      </cc:Work>
    </rdf:RDF>
  </metadata>
  <g
     inkscape:label="Layer 1"
     inkscape:groupmode="layer"
     id="layer1"
     transform="translate(-231.22334,-433.63963)">
    <g
       transform="matrix(1.25,0,0,-1.25,-329.50066,1200.22)"
       id="g9391">
      <g
         id="g9393"
         clip-path="url(#clipPath9395)">
        <g
           id="g9399"
           transform="translate(457.3792,613.0143)">
          <path
             inkscape:connector-curvature="0"
             d="m 0,0 51.301,0 c 4.709,0 8.549,-3.841 8.549,-8.55 l 0,-85.5 c 0,-4.709 -3.84,-8.549 -8.549,-8.549 l -51.301,0 c -4.709,0 -8.55,3.84 -8.55,8.549 l 0,85.5 C -8.55,-3.9 -4.65,0 0,0"
             style="fill:#ffffff;fill-opacity:1;fill-rule:nonzero;stroke:none"
             id="path9401" />
        </g>
      </g>
    </g>
    <g
       transform="matrix(1.25,0,0,-1.25,-329.50066,1200.22)"
       id="g9403">
      <g
         id="g9405"
         clip-path="url(#clipPath9407)">
        <g
           id="g9411"
           transform="translate(457.3792,613.0143)">
          <path
             inkscape:connector-curvature="0"
             d="m 0,0 51.301,0 c 4.709,0 8.549,-3.841 8.549,-8.55 l 0,-85.5 c 0,-4.709 -3.84,-8.549 -8.549,-8.549 l -51.301,0 c -4.709,0 -8.55,3.84 -8.55,8.549 l 0,85.5 C -8.55,-3.9 -4.65,0 0,0"
             style="fill:none;stroke:#231f20;stroke-width:0.5;stroke-linecap:butt;stroke-linejoin:miter;stroke-miterlimit:4;stroke-opacity:1;stroke-dasharray:none"
             id="path9413" />
        </g>
      </g>
    </g>
    <g
       transform="matrix(1.25,0,0,-1.25,-329.50066,1200.22)"
       id="g9415">
      <g
         id="g9417"
         clip-path="url(#clipPath9419)">
        <g
           id="g9423"
           transform="translate(457.4062,610.8771)">
          <path
             inkscape:connector-curvature="0"
             d="m 0,0 51.245,0 c 3.533,-0.014 6.418,-2.914 6.441,-6.44 l 0,-85.445 c -0.023,-3.528 -2.908,-6.422 -6.441,-6.44 l -51.245,0 c -3.523,0.018 -6.427,2.912 -6.439,6.44 l 0,85.445 C -6.427,-2.914 -3.523,-0.014 0,0"
             style="fill:#bf2519;fill-opacity:1;fill-rule:evenodd;stroke:none"
             id="path9425" />
        </g>
        <g
           id="g9427"
           transform="translate(457.4382,608.3804)">
          <path
             inkscape:connector-curvature="0"
             d="m 0,0 51.181,0 c 2.201,-0.013 3.963,-1.774 3.977,-3.975 l 0,-85.382 c -0.014,-2.19 -1.776,-3.976 -3.977,-3.974 l -51.181,0 c -2.2,-0.002 -3.963,1.784 -3.975,3.974 l 0,85.382 C -3.963,-1.774 -2.2,-0.013 0,0"
             style="fill:#ffffff;fill-opacity:1;fill-rule:evenodd;stroke:none"
             id="path9429" />
        </g>
        <g
           id="g9431"
           transform="translate(489.4712,601.8936)">
          <path
             inkscape:connector-curvature="0"
             d="m 0,0 c -1.922,0 -3.1,-0.846 -3.973,-2.844 -0.691,-1.615 -0.974,-3.358 -0.974,-5.973 0,-2.614 0.257,-4.255 0.949,-5.92 0.845,-2.051 2.025,-2.927 3.998,-2.927 1.923,0 3.127,0.876 3.972,2.901 0.693,1.666 0.95,3.306 0.95,5.946 0,2.615 -0.257,4.23 -0.95,5.896 C 3.101,-0.846 1.949,0 0,0"
             style="fill:#bf2519;fill-opacity:1;fill-rule:evenodd;stroke:none"
             id="path9433" />
        </g>
        <g
           id="g9435"
           transform="translate(473.9652,595.9731)">
          <path
             inkscape:connector-curvature="0"
             d="m 0,0 5.126,-11.461 1.82,0 0,17.099 -2.41,0 0,-10.226 L 0,5.638 l -2.409,0 0,-17.099 2.409,0 L 0,0 z"
             style="fill:#bf2519;fill-opacity:1;fill-rule:evenodd;stroke:none"
             id="path9437" />
        </g>
        <g
           id="g9439"
           transform="translate(489.4712,599.5104)">
          <path
             inkscape:connector-curvature="0"
             d="m 0,0 c 1,0 1.64,-0.641 2.076,-2.128 0.385,-1.255 0.513,-2.383 0.513,-4.306 0,-1.947 -0.128,-2.998 -0.513,-4.357 C 1.667,-12.226 1,-12.892 0,-12.892 c -1.05,0 -1.692,0.666 -2.102,2.127 -0.385,1.333 -0.512,2.435 -0.512,4.306 0,1.922 0.127,3.05 0.512,4.383 C -1.692,-0.641 -1.025,0 0,0"
             style="fill:#ffffff;fill-opacity:1;fill-rule:evenodd;stroke:none"
             id="path9441" />
        </g>
        <g
           id="g9443"
           transform="translate(496.5132,522.562)">
          <path
             inkscape:connector-curvature="0"
             d="m 0,0 -0.712,-2.69 c -0.018,-0.018 -0.033,-0.029 -0.039,-0.052 -0.018,-0.034 -0.031,-0.069 -0.041,-0.108 0.017,-0.154 0.051,-0.297 0.148,-0.422 0.17,-0.234 0.404,-0.303 0.685,-0.29 0.091,0.005 0.198,0.027 0.272,0.08 L 8.469,2.138 0.313,7.684 C 0.2,7.763 0.12,7.802 -0.023,7.832 -0.262,7.882 -0.525,7.695 -0.661,7.501 -0.741,7.387 -0.782,7.267 -0.792,7.125 -0.782,7.079 -0.782,7.028 -0.757,6.983 -0.745,6.948 -0.73,6.919 -0.712,6.891 L 0,4.275 l -27.161,0 0.712,2.616 c 0.016,0.028 0.034,0.057 0.044,0.092 0.024,0.045 0.024,0.096 0.036,0.142 -0.012,0.142 -0.052,0.262 -0.132,0.376 -0.137,0.194 -0.399,0.381 -0.639,0.331 -0.143,-0.03 -0.223,-0.069 -0.335,-0.148 l -8.157,-5.546 8.157,-5.62 c 0.074,-0.053 0.182,-0.075 0.273,-0.08 0.28,-0.013 0.513,0.056 0.684,0.29 0.097,0.125 0.131,0.268 0.149,0.422 -0.012,0.039 -0.025,0.074 -0.04,0.108 -0.006,0.023 -0.024,0.034 -0.04,0.052 L -27.161,0 0,0 z"
             style="fill:#bf2519;fill-opacity:1;fill-rule:evenodd;stroke:none"
             id="path9445" />
        </g>
        <g
           id="g9447"
           transform="translate(458.6232,567.1763)">
          <path
             inkscape:connector-curvature="0"
             d="m 0,0 c -1.997,0 -3.197,1.679 -3.197,3.558 l 1.599,0 c 0,-0.959 0.479,-1.959 1.598,-1.959 0.879,0 1.6,0.8 1.6,1.719 0,0.64 -0.241,1.12 -0.92,1.64 -0.24,0.239 0.4,-0.201 -1.917,1.358 -0.921,0.64 -1.4,1.52 -1.4,2.519 0,1.639 1.28,2.958 2.917,2.958 1.599,0 2.837,-1.239 2.877,-2.958 l -1.557,0 c -0.041,0.8 -0.6,1.319 -1.32,1.319 -0.758,0 -1.358,-0.559 -1.358,-1.319 0,-0.56 0.24,-0.879 1.078,-1.359 C 2.199,6.196 3.157,4.958 3.157,3.318 3.157,1.48 1.76,0 0,0"
             style="fill:#bf2519;fill-opacity:1;fill-rule:nonzero;stroke:none"
             id="path9449" />
        </g>
        <g
           id="g9451"
           transform="translate(465.9772,577.2505)">
          <path
             inkscape:connector-curvature="0"
             d="m 0,0 0,-9.874 -1.639,0 0,9.874 -2.078,0 0,1.519 5.795,0 L 2.078,0 0,0 z"
             style="fill:#bf2519;fill-opacity:1;fill-rule:nonzero;stroke:none"
             id="path9453" />
        </g>
        <g
           id="g9455"
           transform="translate(471.7702,575.3716)">
          <path
             inkscape:connector-curvature="0"
             d="m 0,0 -0.799,-3.278 1.638,0 L 0,0 z m 2.038,-7.995 -0.799,3.118 -2.439,0 -0.758,-3.118 -1.638,0 2.836,11.393 1.599,0 2.836,-11.393 -1.637,0 z"
             style="fill:#bf2519;fill-opacity:1;fill-rule:nonzero;stroke:none"
             id="path9457" />
        </g>
        <g
           id="g9459"
           transform="translate(481.6002,567.3766)">
          <path
             inkscape:connector-curvature="0"
             d="m 0,0 -3.516,7.636 0,-7.636 -1.639,0 0,11.393 1.639,0 3.115,-6.836 0,6.836 1.639,0 L 1.238,0 0,0 z"
             style="fill:#bf2519;fill-opacity:1;fill-rule:nonzero;stroke:none"
             id="path9461" />
        </g>
        <g
           id="g9463"
           transform="translate(489.2302,576.0112)">
          <path
             inkscape:connector-curvature="0"
             d="m 0,0 c -0.279,0.8 -0.757,1.16 -1.477,1.16 l -1.358,0 0,-8.196 1.358,0 c 0.958,0 1.477,0.76 1.638,1.64 0.08,0.719 0.16,1.519 0.16,2.398 C 0.321,-1.719 0.202,-0.479 0,0 m 0.282,-8.115 c -0.401,-0.36 -0.96,-0.52 -1.6,-0.52 l -3.156,0 0,11.394 2.916,0 c 0.96,0 1.439,-0.12 1.84,-0.44 C 0.96,1.839 1.44,0.96 1.639,-0.2 c 0.16,-0.839 0.28,-1.838 0.28,-2.718 0,-2.639 -0.519,-4.318 -1.637,-5.197"
             style="fill:#bf2519;fill-opacity:1;fill-rule:nonzero;stroke:none"
             id="path9465" />
        </g>
        <path
           inkscape:connector-curvature="0"
           d="m 492.826,578.77 1.6,0 0,-11.393 -1.6,0 0,11.393 z"
           style="fill:#bf2519;fill-opacity:1;fill-rule:nonzero;stroke:none"
           id="path9467" />
        <g
           id="g9469"
           transform="translate(501.5382,567.3766)">
          <path
             inkscape:connector-curvature="0"
             d="m 0,0 -3.517,7.636 0,-7.636 -1.637,0 0,11.393 1.637,0 3.118,-6.836 0,6.836 1.638,0 L 1.239,0 0,0 z"
             style="fill:#bf2519;fill-opacity:1;fill-rule:nonzero;stroke:none"
             id="path9471" />
        </g>
        <g
           id="g9473"
           transform="translate(510.4842,568.7755)">
          <path
             inkscape:connector-curvature="0"
             d="m 0,0 c -0.439,-0.999 -1.359,-1.599 -2.517,-1.599 -1.359,0 -2.358,0.68 -2.917,1.959 -0.361,0.84 -0.599,2.438 -0.599,3.918 0,1.598 0.119,2.758 0.52,3.837 0.398,1.2 1.558,2.079 2.876,2.079 1.638,0 2.877,-1.199 2.957,-2.878 l -1.639,0 c -0.04,0.759 -0.56,1.279 -1.358,1.279 -0.559,0 -0.999,-0.28 -1.278,-0.839 -0.32,-0.56 -0.519,-1.839 -0.519,-3.198 0,-0.96 0.079,-1.959 0.238,-2.839 C -3.996,0.6 -3.435,0 -2.557,0 c 0.839,0 1.238,0.56 1.238,1.759 l 0,0.759 -1.278,0 0,1.6 2.917,0 0,-2.359 C 0.32,0.96 0.24,0.48 0,0"
             style="fill:#bf2519;fill-opacity:1;fill-rule:nonzero;stroke:none"
             id="path9475" />
        </g>
        <g
           id="g9477"
           transform="translate(473.9712,558.3013)">
          <path
             inkscape:connector-curvature="0"
             d="m 0,0 -0.799,-3.278 1.639,0 L 0,0 z m 2.038,-7.995 -0.8,3.118 -2.438,0 -0.759,-3.118 -1.638,0 2.838,11.393 1.599,0 2.836,-11.393 -1.638,0 z"
             style="fill:#bf2519;fill-opacity:1;fill-rule:nonzero;stroke:none"
             id="path9479" />
        </g>
        <g
           id="g9481"
           transform="translate(485.0002,550.3062)">
          <path
             inkscape:connector-curvature="0"
             d="m 0,0 -3.518,7.635 0,-7.635 -1.638,0 0,11.394 1.638,0 3.118,-6.837 0,6.837 1.638,0 L 1.238,0 0,0 z"
             style="fill:#bf2519;fill-opacity:1;fill-rule:nonzero;stroke:none"
             id="path9483" />
        </g>
        <g
           id="g9485"
           transform="translate(492.9102,555.4634)">
          <path
             inkscape:connector-curvature="0"
             d="m 0,0 0,-5.157 -1.637,0 0,5.157 -2.798,6.236 1.718,0 1.918,-4.117 1.878,4.117 1.759,0 L 0,0 z"
             style="fill:#bf2519;fill-opacity:1;fill-rule:nonzero;stroke:none"
             id="path9487" />
        </g>
        <g
           id="g9489"
           transform="translate(473.1642,543.0884)">
          <path
             inkscape:connector-curvature="0"
             d="m 0,0 0,-9.874 -1.639,0 0,9.874 -2.078,0 0,1.519 5.795,0 L 2.078,0 0,0 z"
             style="fill:#bf2519;fill-opacity:1;fill-rule:nonzero;stroke:none"
             id="path9491" />
        </g>
        <path
           inkscape:connector-curvature="0"
           d="m 476.801,544.608 1.597,0 0,-11.394 -1.597,0 0,11.394 z"
           style="fill:#bf2519;fill-opacity:1;fill-rule:nonzero;stroke:none"
           id="path9493" />
        <g
           id="g9495"
           transform="translate(486.7902,533.214)">
          <path
             inkscape:connector-curvature="0"
             d="M 0,0 0,6.397 -2.118,0 l -2.117,6.397 0,-6.397 -1.639,0 0,11.394 1.639,0 2.117,-6.397 2.118,6.397 1.639,0 L 1.639,0 0,0 z"
             style="fill:#bf2519;fill-opacity:1;fill-rule:nonzero;stroke:none"
             id="path9497" />
        </g>
        <g
           id="g9499"
           transform="translate(490.9062,533.214)">
          <path
             inkscape:connector-curvature="0"
             d="m 0,0 0,11.394 5.354,0 0,-1.6 -3.716,0 0,-2.878 2.358,0 0,-1.559 -2.358,0 0,-3.757 4.156,0 0,-1.6 L 0,0 z"
             style="fill:#bf2519;fill-opacity:1;fill-rule:nonzero;stroke:none"
             id="path9501" />
        </g>
      </g>
    </g>
  </g>
</svg>
