<?xml version="1.0" encoding="UTF-8" standalone="no"?>
<!-- Created with Inkscape (http://www.inkscape.org/) -->

<svg
   xmlns:dc="http://purl.org/dc/elements/1.1/"
   xmlns:cc="http://creativecommons.org/ns#"
   xmlns:rdf="http://www.w3.org/1999/02/22-rdf-syntax-ns#"
   xmlns:svg="http://www.w3.org/2000/svg"
   xmlns="http://www.w3.org/2000/svg"
   xmlns:sodipodi="http://sodipodi.sourceforge.net/DTD/sodipodi-0.dtd"
   xmlns:inkscape="http://www.inkscape.org/namespaces/inkscape"
   width="90.623001"
   height="68.123749"
   id="svg7169"
   version="1.1"
   inkscape:version="0.48.1 "
   sodipodi:docname="New document 33">
  <defs
     id="defs7171">
    <clipPath
       clipPathUnits="userSpaceOnUse"
       id="clipPath5367">
      <path
         inkscape:connector-curvature="0"
         d="m 41.035,413.909 484.555,0 0,323.941 -484.555,0 0,-323.941 z"
         id="path5369" />
    </clipPath>
    <clipPath
       clipPathUnits="userSpaceOnUse"
       id="clipPath5355">
      <path
         inkscape:connector-curvature="0"
         d="m 26.875,413.909 512.875,0 0,323.941 -512.875,0 0,-323.941 z"
         id="path5357" />
    </clipPath>
  </defs>
  <sodipodi:namedview
     id="base"
     pagecolor="#ffffff"
     bordercolor="#666666"
     borderopacity="1.0"
     inkscape:pageopacity="0.0"
     inkscape:pageshadow="2"
     inkscape:zoom="0.35"
     inkscape:cx="191.74007"
     inkscape:cy="62.633342"
     inkscape:document-units="px"
     inkscape:current-layer="layer1"
     showgrid="false"
     fit-margin-top="0"
     fit-margin-left="0"
     fit-margin-right="0"
     fit-margin-bottom="0"
     inkscape:window-width="469"
     inkscape:window-height="403"
     inkscape:window-x="435"
     inkscape:window-y="20"
     inkscape:window-maximized="0" />
  <metadata
     id="metadata7174">
    <rdf:RDF>
      <cc:Work
         rdf:about="">
        <dc:format>image/svg+xml</dc:format>
        <dc:type
           rdf:resource="http://purl.org/dc/dcmitype/StillImage" />
        <dc:title></dc:title>
      </cc:Work>
    </rdf:RDF>
  </metadata>
  <g
     inkscape:label="Layer 1"
     inkscape:groupmode="layer"
     id="layer1"
     transform="translate(-183.25993,-526.87177)">
    <g
       transform="matrix(1.25,0,0,-1.25,131.96618,1273.1299)"
       id="g5351">
      <g
         id="g5353"
         clip-path="url(#clipPath5355)">
        <g
           id="g5359"
           transform="translate(41.2844,547.2575)">
          <path
             inkscape:connector-curvature="0"
             d="m 0,0 0,44.999 c 0,2.479 2.021,4.5 4.5,4.5 l 62.999,0 c 2.479,0 4.5,-2.021 4.5,-4.5 L 71.999,0 c 0,-2.479 -2.021,-4.5 -4.5,-4.5 L 4.5,-4.5 C 2.053,-4.5 0,-2.448 0,0"
             style="fill:#ffffff;fill-opacity:1;fill-rule:nonzero;stroke:none"
             id="path5361" />
        </g>
      </g>
    </g>
    <g
       transform="matrix(1.25,0,0,-1.25,131.96618,1273.1299)"
       id="g5363">
      <g
         id="g5365"
         clip-path="url(#clipPath5367)">
        <g
           id="g5371"
           transform="translate(41.2844,547.2575)">
          <path
             inkscape:connector-curvature="0"
             d="m 0,0 0,44.999 c 0,2.479 2.021,4.5 4.5,4.5 l 62.999,0 c 2.479,0 4.5,-2.021 4.5,-4.5 L 71.999,0 c 0,-2.479 -2.021,-4.5 -4.5,-4.5 L 4.5,-4.5 C 2.053,-4.5 0,-2.448 0,0"
             style="fill:none;stroke:#231f20;stroke-width:0.5;stroke-linecap:butt;stroke-linejoin:miter;stroke-miterlimit:4;stroke-opacity:1;stroke-dasharray:none"
             id="path5373" />
        </g>
      </g>
    </g>
    <g
       id="g5383"
       transform="matrix(1.25,0,0,-1.25,184.97793,589.04173)">
      <path
         d="m 0,0 0,44.973 c 0.003,1.854 1.537,3.381 3.389,3.388 l 62.971,0 c 1.856,-0.007 3.383,-1.534 3.389,-3.388 L 69.749,0 C 69.743,-1.851 68.216,-3.384 66.36,-3.388 l -62.971,0 C 1.537,-3.386 0.002,-1.851 0,0"
         style="fill:#bf2519;fill-opacity:1;fill-rule:evenodd;stroke:none"
         id="path5385"
         inkscape:connector-curvature="0" />
    </g>
    <g
       id="g5387"
       transform="matrix(1.25,0,0,-1.25,187.32168,589.01161)">
      <path
         d="m 0,0 0,44.924 c -0.013,0.845 0.691,1.553 1.537,1.538 l 62.925,0 c 0.844,0.015 1.553,-0.693 1.537,-1.538 L 65.999,0 c 0.016,-0.846 -0.693,-1.549 -1.537,-1.537 l -62.925,0 C 0.69,-1.549 -0.013,-0.846 0,0"
         style="fill:#ffffff;fill-opacity:1;fill-rule:evenodd;stroke:none"
         id="path5389"
         inkscape:connector-curvature="0" />
    </g>
    <g
       id="g5391"
       transform="matrix(1.25,0,0,-1.25,236.9543,557.12674)">
      <path
         d="m 0,0 0,8.245 -1.303,0 0,-5.266 -3.01,5.266 -1.302,0 0,-8.245 1.302,0 0,5.583 L -1.158,0 0,0 z m -8.713,4.108 c 0,-0.637 -0.144,-1.447 -0.318,-1.881 -0.289,-0.723 -0.666,-1.041 -1.274,-1.041 -0.521,0 -0.869,0.202 -1.129,0.636 -0.318,0.52 -0.492,1.418 -0.492,2.286 0,0.694 0.115,1.446 0.318,1.938 0.29,0.723 0.694,1.042 1.331,1.012 0.492,-0.028 0.81,-0.202 1.072,-0.636 0.318,-0.55 0.492,-1.389 0.492,-2.314 m 1.303,0 c 0,1.041 -0.203,2.083 -0.551,2.806 -0.521,1.012 -1.244,1.475 -2.287,1.475 -0.955,0 -1.621,-0.289 -2.113,-0.925 -0.549,-0.782 -0.897,-1.997 -0.897,-3.356 0,-0.984 0.231,-2.083 0.578,-2.777 0.492,-1.013 1.217,-1.481 2.375,-1.481 0.868,0 1.533,0.294 1.996,0.931 0.58,0.723 0.899,2.025 0.899,3.327"
         style="fill:#bf2519;fill-opacity:1;fill-rule:evenodd;stroke:none"
         id="path5393"
         inkscape:connector-curvature="0" />
    </g>
    <g
       id="g5395"
       transform="matrix(1.25,0,0,-1.25,262.54755,566.15174)">
      <path
         d="m 0,0 0,1.157 -5.094,0 0,-1.157 1.881,0 0,-7.088 1.303,0 L -1.91,0 0,0 z m -6.311,-7.088 0,8.245 -1.302,0 0,-5.265 -3.01,5.265 -1.303,0 0,-8.245 1.303,0 0,5.584 3.154,-5.584 1.158,0 z m -6.976,0 0,1.331 -3.82,0 0,2.256 2.402,0 0,1.331 -2.402,0 0,2.025 3.56,0 0,1.302 -4.863,0 0,-8.245 5.123,0 z m -7.092,0 0,8.245 -1.303,0 -1.91,-4.629 -1.91,4.629 -1.303,0 0,-8.245 1.303,0 0,4.773 1.91,-4.773 1.91,4.773 0,-4.773 1.303,0 z m -7.787,0 0,1.331 -3.82,0 0,2.256 2.402,0 0,1.331 -2.402,0 0,2.025 3.56,0 0,1.302 -4.863,0 0,-8.245 5.123,0 z m -6.34,8.245 -1.389,0 -1.736,-5.497 -1.765,5.497 -1.362,0 2.606,-8.245 1.013,0 2.633,8.245 z m -9.435,-4.599 -1.651,0 0.84,2.314 0.811,-2.314 z m 2.662,-3.646 -2.836,8.245 -1.303,0 -2.838,-8.245 1.391,0 0.81,2.314 2.576,0 0.811,-2.314 1.389,0 z m -8.799,5.931 c 0,-0.347 -0.203,-0.724 -0.492,-0.868 -0.233,-0.116 -0.377,-0.145 -0.782,-0.145 l -1.709,0 0,2.025 1.709,0 c 0.405,0 0.549,-0.029 0.782,-0.144 0.289,-0.174 0.492,-0.521 0.492,-0.868 m 1.332,0 c 0,0.839 -0.551,1.707 -1.275,2.054 -0.405,0.203 -0.838,0.26 -1.504,0.26 l -2.838,0 0,-8.245 1.302,0 0,3.587 1.536,0 c 0.636,0 1.129,0.116 1.504,0.29 0.724,0.318 1.275,1.186 1.275,2.054"
         style="fill:#bf2519;fill-opacity:1;fill-rule:evenodd;stroke:none"
         id="path5397"
         inkscape:connector-curvature="0" />
    </g>
  </g>
</svg>
