<?xml version="1.0" encoding="UTF-8" standalone="no"?>
<!-- Created with Inkscape (http://www.inkscape.org/) -->

<svg
   xmlns:dc="http://purl.org/dc/elements/1.1/"
   xmlns:cc="http://creativecommons.org/ns#"
   xmlns:rdf="http://www.w3.org/1999/02/22-rdf-syntax-ns#"
   xmlns:svg="http://www.w3.org/2000/svg"
   xmlns="http://www.w3.org/2000/svg"
   xmlns:sodipodi="http://sodipodi.sourceforge.net/DTD/sodipodi-0.dtd"
   xmlns:inkscape="http://www.inkscape.org/namespaces/inkscape"
   width="90.623253"
   height="68.125"
   id="svg7676"
   version="1.1"
   inkscape:version="0.48.1 "
   sodipodi:docname="New document 42">
  <defs
     id="defs7678">
    <clipPath
       clipPathUnits="userSpaceOnUse"
       id="clipPath5895">
      <path
         inkscape:connector-curvature="0"
         d="m 26.875,413.909 512.875,0 0,323.941 -512.875,0 0,-323.941 z"
         id="path5897" />
    </clipPath>
    <clipPath
       clipPathUnits="userSpaceOnUse"
       id="clipPath5883">
      <path
         inkscape:connector-curvature="0"
         d="m 41.035,413.909 484.555,0 0,323.941 -484.555,0 0,-323.941 z"
         id="path5885" />
    </clipPath>
    <clipPath
       clipPathUnits="userSpaceOnUse"
       id="clipPath5871">
      <path
         inkscape:connector-curvature="0"
         d="m 26.875,413.909 512.875,0 0,323.941 -512.875,0 0,-323.941 z"
         id="path5873" />
    </clipPath>
  </defs>
  <sodipodi:namedview
     id="base"
     pagecolor="#ffffff"
     bordercolor="#666666"
     borderopacity="1.0"
     inkscape:pageopacity="0.0"
     inkscape:pageshadow="2"
     inkscape:zoom="0.35"
     inkscape:cx="197.45448"
     inkscape:cy="191.20474"
     inkscape:document-units="px"
     inkscape:current-layer="layer1"
     showgrid="false"
     fit-margin-top="0"
     fit-margin-left="0"
     fit-margin-right="0"
     fit-margin-bottom="0"
     inkscape:window-width="469"
     inkscape:window-height="403"
     inkscape:window-x="25"
     inkscape:window-y="25"
     inkscape:window-maximized="0" />
  <metadata
     id="metadata7681">
    <rdf:RDF>
      <cc:Work
         rdf:about="">
        <dc:format>image/svg+xml</dc:format>
        <dc:type
           rdf:resource="http://purl.org/dc/dcmitype/StillImage" />
        <dc:title></dc:title>
      </cc:Work>
    </rdf:RDF>
  </metadata>
  <g
     inkscape:label="Layer 1"
     inkscape:groupmode="layer"
     id="layer1"
     transform="translate(-177.54552,-655.44192)">
    <g
       transform="matrix(1.25,0,0,-1.25,-388.81873,1401.7013)"
       id="g5867">
      <g
         id="g5869"
         clip-path="url(#clipPath5871)">
        <g
           id="g5875"
           transform="translate(453.3414,547.2575)">
          <path
             inkscape:connector-curvature="0"
             d="m 0,0 0,45 c 0,2.478 2.022,4.499 4.5,4.499 l 62.999,0 c 2.479,0 4.5,-2.021 4.5,-4.499 l 0,-45 c 0,-2.479 -2.021,-4.5 -4.5,-4.5 L 4.5,-4.5 C 2.053,-4.5 0,-2.448 0,0"
             style="fill:#ffffff;fill-opacity:1;fill-rule:nonzero;stroke:none"
             id="path5877" />
        </g>
      </g>
    </g>
    <g
       transform="matrix(1.25,0,0,-1.25,-388.81873,1401.7013)"
       id="g5879">
      <g
         id="g5881"
         clip-path="url(#clipPath5883)">
        <g
           id="g5887"
           transform="translate(453.3414,547.2575)">
          <path
             inkscape:connector-curvature="0"
             d="m 0,0 0,45 c 0,2.478 2.022,4.499 4.5,4.499 l 62.999,0 c 2.479,0 4.5,-2.021 4.5,-4.499 l 0,-45 c 0,-2.479 -2.021,-4.5 -4.5,-4.5 L 4.5,-4.5 C 2.053,-4.5 0,-2.448 0,0"
             style="fill:none;stroke:#231f20;stroke-width:0.5;stroke-linecap:butt;stroke-linejoin:miter;stroke-miterlimit:4;stroke-opacity:1;stroke-dasharray:none"
             id="path5889" />
        </g>
      </g>
    </g>
    <g
       transform="matrix(1.25,0,0,-1.25,-388.81873,1401.7013)"
       id="g5891">
      <g
         id="g5893"
         clip-path="url(#clipPath5895)">
        <g
           id="g5899"
           transform="translate(454.4664,547.2705)">
          <path
             inkscape:connector-curvature="0"
             d="m 0,0 0,44.973 c 0.004,1.854 1.537,3.381 3.389,3.389 l 62.971,0 c 1.856,-0.008 3.383,-1.535 3.389,-3.389 L 69.749,0 C 69.743,-1.851 68.216,-3.384 66.36,-3.388 l -62.971,0 C 1.537,-3.386 0.002,-1.851 0,0"
             style="fill:#bf2519;fill-opacity:1;fill-rule:evenodd;stroke:none"
             id="path5901" />
        </g>
        <g
           id="g5903"
           transform="translate(456.3414,547.2946)">
          <path
             inkscape:connector-curvature="0"
             d="m 0,0 0,44.924 c -0.012,0.845 0.692,1.552 1.537,1.539 l 62.925,0 c 0.844,0.013 1.553,-0.694 1.537,-1.539 L 65.999,0 c 0.016,-0.846 -0.693,-1.549 -1.537,-1.537 l -62.925,0 C 0.692,-1.549 -0.012,-0.846 0,0"
             style="fill:#ffffff;fill-opacity:1;fill-rule:evenodd;stroke:none"
             id="path5905" />
        </g>
        <g
           id="g5907"
           transform="translate(467.5874,579.2725)">
          <path
             inkscape:connector-curvature="0"
             d="m 0,0 0,9.589 1.379,0 0,-8.31 3.5,0 L 4.879,0 0,0 z"
             style="fill:#bf2519;fill-opacity:1;fill-rule:nonzero;stroke:none"
             id="path5909" />
        </g>
        <g
           id="g5911"
           transform="translate(477.6484,586.4735)">
          <path
             inkscape:connector-curvature="0"
             d="m 0,0 c -0.235,0.84 -0.606,1.21 -1.178,1.21 -0.605,0 -0.975,-0.37 -1.211,-1.177 -0.236,-0.74 -0.303,-1.379 -0.303,-2.456 0,-1.043 0.102,-1.649 0.303,-2.422 0.236,-0.808 0.606,-1.178 1.211,-1.178 0.572,0 0.943,0.37 1.178,1.178 0.236,0.773 0.303,1.346 0.303,2.456 C 0.303,-1.313 0.201,-0.707 0,0 m 1.076,-5.72 c -0.471,-1.144 -1.178,-1.649 -2.254,-1.649 -1.144,0 -1.816,0.505 -2.287,1.649 -0.404,0.942 -0.539,1.85 -0.539,3.331 0,1.446 0.135,2.422 0.539,3.331 0.504,1.143 1.178,1.614 2.287,1.614 1.111,0 1.783,-0.471 2.254,-1.648 0.404,-0.942 0.539,-1.851 0.539,-3.297 0,-1.481 -0.135,-2.423 -0.539,-3.331"
             style="fill:#bf2519;fill-opacity:1;fill-rule:nonzero;stroke:none"
             id="path5913" />
        </g>
        <g
           id="g5915"
           transform="translate(483.4704,586.0025)">
          <path
             inkscape:connector-curvature="0"
             d="m 0,0 -0.674,-2.76 1.379,0 L 0,0 z m 1.715,-6.73 -0.672,2.624 -2.053,0 -0.638,-2.624 -1.381,0 2.388,9.589 1.346,0 2.391,-9.589 -1.381,0 z"
             style="fill:#bf2519;fill-opacity:1;fill-rule:nonzero;stroke:none"
             id="path5917" />
        </g>
        <g
           id="g5919"
           transform="translate(491.6464,586.5405)">
          <path
             inkscape:connector-curvature="0"
             d="m 0,0 c -0.235,0.673 -0.639,0.976 -1.244,0.976 l -1.145,0 0,-6.898 1.145,0 c 0.806,0 1.244,0.64 1.379,1.38 0.068,0.605 0.134,1.278 0.134,2.018 C 0.269,-1.447 0.168,-0.404 0,0 M 0.236,-6.83 C -0.102,-7.133 -0.572,-7.268 -1.11,-7.268 l -2.658,0 0,9.589 2.455,0 c 0.809,0 1.211,-0.1 1.549,-0.37 0.572,-0.403 0.975,-1.143 1.143,-2.119 0.134,-0.707 0.236,-1.548 0.236,-2.288 0,-2.221 -0.437,-3.634 -1.379,-4.374"
             style="fill:#bf2519;fill-opacity:1;fill-rule:nonzero;stroke:none"
             id="path5921" />
        </g>
        <path
           inkscape:connector-curvature="0"
           d="m 495.146,588.862 1.346,0 0,-9.589 -1.346,0 0,9.589 z"
           style="fill:#bf2519;fill-opacity:1;fill-rule:nonzero;stroke:none"
           id="path5923" />
        <g
           id="g5925"
           transform="translate(502.9524,579.2725)">
          <path
             inkscape:connector-curvature="0"
             d="m 0,0 -2.96,6.427 0,-6.427 -1.381,0 0,9.589 1.381,0 2.623,-5.753 0,5.753 1.38,0 L 1.043,0 0,0 z"
             style="fill:#bf2519;fill-opacity:1;fill-rule:nonzero;stroke:none"
             id="path5927" />
        </g>
        <g
           id="g5929"
           transform="translate(510.9934,580.4505)">
          <path
             inkscape:connector-curvature="0"
             d="m 0,0 c -0.371,-0.841 -1.144,-1.346 -2.119,-1.346 -1.144,0 -1.986,0.572 -2.457,1.649 -0.302,0.706 -0.504,2.053 -0.504,3.297 0,1.345 0.1,2.322 0.438,3.23 0.336,1.009 1.31,1.749 2.422,1.749 1.379,0 2.422,-1.009 2.49,-2.422 l -1.381,0 c -0.033,0.639 -0.471,1.076 -1.142,1.076 -0.471,0 -0.842,-0.235 -1.079,-0.706 -0.267,-0.471 -0.437,-1.547 -0.437,-2.691 0,-0.808 0.068,-1.649 0.203,-2.39 C -3.365,0.505 -2.894,0 -2.154,0 c 0.707,0 1.043,0.471 1.043,1.481 l 0,0.638 -1.076,0 0,1.347 2.457,0 0,-1.985 C 0.27,0.808 0.202,0.403 0,0"
             style="fill:#bf2519;fill-opacity:1;fill-rule:nonzero;stroke:none"
             id="path5931" />
        </g>
        <g
           id="g5933"
           transform="translate(476.0344,565.2515)">
          <path
             inkscape:connector-curvature="0"
             d="m 0,0 0,1.48 3.567,6.796 -3.196,0 0,1.347 4.912,0 0,-0.875 -3.869,-7.436 3.869,0 L 5.283,0 0,0 z"
             style="fill:#bf2519;fill-opacity:1;fill-rule:nonzero;stroke:none"
             id="path5935" />
        </g>
        <g
           id="g5937"
           transform="translate(486.7684,572.4515)">
          <path
             inkscape:connector-curvature="0"
             d="m 0,0 c -0.235,0.841 -0.606,1.211 -1.178,1.211 -0.605,0 -0.975,-0.37 -1.211,-1.178 -0.236,-0.74 -0.303,-1.379 -0.303,-2.456 0,-1.043 0.101,-1.648 0.303,-2.422 0.236,-0.807 0.606,-1.177 1.211,-1.177 0.572,0 0.943,0.37 1.178,1.177 0.235,0.774 0.303,1.346 0.303,2.456 C 0.303,-1.312 0.201,-0.707 0,0 m 1.076,-5.72 c -0.471,-1.143 -1.178,-1.648 -2.254,-1.648 -1.144,0 -1.817,0.505 -2.288,1.648 -0.403,0.943 -0.538,1.851 -0.538,3.331 0,1.447 0.135,2.422 0.538,3.331 0.505,1.144 1.178,1.615 2.288,1.615 1.111,0 1.783,-0.471 2.254,-1.649 0.404,-0.941 0.538,-1.85 0.538,-3.297 0,-1.48 -0.134,-2.422 -0.538,-3.331"
             style="fill:#bf2519;fill-opacity:1;fill-rule:nonzero;stroke:none"
             id="path5939" />
        </g>
        <g
           id="g5941"
           transform="translate(494.6424,565.2515)">
          <path
             inkscape:connector-curvature="0"
             d="m 0,0 -2.961,6.427 0,-6.427 -1.38,0 0,9.589 1.38,0 2.624,-5.753 0,5.753 1.38,0 L 1.043,0 0,0 z"
             style="fill:#bf2519;fill-opacity:1;fill-rule:nonzero;stroke:none"
             id="path5943" />
        </g>
        <g
           id="g5945"
           transform="translate(497.7714,565.2515)">
          <path
             inkscape:connector-curvature="0"
             d="m 0,0 0,9.589 4.509,0 0,-1.346 -3.129,0 0,-2.423 1.984,0 0,-1.311 -1.984,0 0,-3.163 3.499,0 L 4.879,0 0,0 z"
             style="fill:#bf2519;fill-opacity:1;fill-rule:nonzero;stroke:none"
             id="path5947" />
        </g>
        <g
           id="g5949"
           transform="translate(500.9334,561.2805)">
          <path
             inkscape:connector-curvature="0"
             d="m 0,0 c -0.379,0.258 -0.899,0.158 -1.157,-0.221 -0.18,-0.263 -0.14,-0.519 -0.044,-0.863 l 0.734,-2.486 -22.254,0 0.74,2.486 c 0.096,0.344 0.136,0.6 -0.043,0.863 -0.259,0.379 -0.779,0.479 -1.158,0.221 l -8.599,-5.822 8.601,-5.832 c 0.377,-0.258 0.897,-0.16 1.156,0.221 0.171,0.252 0.141,0.515 0.061,0.828 l -0.758,2.525 22.254,0 -0.752,-2.525 c -0.078,-0.313 -0.11,-0.576 0.062,-0.828 0.258,-0.381 0.778,-0.479 1.157,-0.221 L 8.6,-5.822 0,0 z"
             style="fill:#bf2519;fill-opacity:1;fill-rule:evenodd;stroke:none"
             id="path5951" />
        </g>
      </g>
    </g>
  </g>
</svg>
