<?xml version="1.0" encoding="UTF-8" standalone="no"?>
<!-- Created with Inkscape (http://www.inkscape.org/) -->

<svg
   xmlns:dc="http://purl.org/dc/elements/1.1/"
   xmlns:cc="http://creativecommons.org/ns#"
   xmlns:rdf="http://www.w3.org/1999/02/22-rdf-syntax-ns#"
   xmlns:svg="http://www.w3.org/2000/svg"
   xmlns="http://www.w3.org/2000/svg"
   xmlns:sodipodi="http://sodipodi.sourceforge.net/DTD/sodipodi-0.dtd"
   xmlns:inkscape="http://www.inkscape.org/namespaces/inkscape"
   width="113.125"
   height="90.625"
   id="svg7976"
   version="1.1"
   inkscape:version="0.48.1 "
   sodipodi:docname="New document 46">
  <defs
     id="defs7978">
    <clipPath
       clipPathUnits="userSpaceOnUse"
       id="clipPath5055">
      <path
         inkscape:connector-curvature="0"
         d="m 26.875,413.909 512.875,0 0,323.941 -512.875,0 0,-323.941 z"
         id="path5057" />
    </clipPath>
  </defs>
  <sodipodi:namedview
     id="base"
     pagecolor="#ffffff"
     bordercolor="#666666"
     borderopacity="1.0"
     inkscape:pageopacity="0.0"
     inkscape:pageshadow="2"
     inkscape:zoom="0.35"
     inkscape:cx="157.27679"
     inkscape:cy="16.741092"
     inkscape:document-units="px"
     inkscape:current-layer="layer1"
     showgrid="false"
     fit-margin-top="0"
     fit-margin-left="0"
     fit-margin-right="0"
     fit-margin-bottom="0"
     inkscape:window-width="469"
     inkscape:window-height="403"
     inkscape:window-x="584"
     inkscape:window-y="111"
     inkscape:window-maximized="0" />
  <metadata
     id="metadata7981">
    <rdf:RDF>
      <cc:Work
         rdf:about="">
        <dc:format>image/svg+xml</dc:format>
        <dc:type
           rdf:resource="http://purl.org/dc/dcmitype/StillImage" />
        <dc:title></dc:title>
      </cc:Work>
    </rdf:RDF>
  </metadata>
  <g
     inkscape:label="Layer 1"
     inkscape:groupmode="layer"
     id="layer1"
     transform="translate(-217.72321,-458.47828)">
    <g
       transform="matrix(1.25,0,0,-1.25,51.760339,1083.8039)"
       id="g5051">
      <g
         id="g5053"
         clip-path="url(#clipPath5055)">
        <g
           id="g5059"
           transform="translate(137.5163,500.0105)">
          <path
             inkscape:connector-curvature="0"
             d="m 0,0 81.007,0 c 2.473,0 4.497,-2.024 4.497,-4.497 l 0,-63.007 C 85.504,-69.977 83.48,-72 81.007,-72 L 0,-72 c -2.473,0 -4.496,2.023 -4.496,4.496 l 0,63.007 C -4.496,-2.024 -2.473,0 0,0"
             style="fill:#ffffff;fill-opacity:1;fill-rule:nonzero;stroke:none"
             id="path5061" />
        </g>
        <g
           id="g5063"
           transform="translate(137.5163,500.0105)">
          <path
             inkscape:connector-curvature="0"
             d="m 0,0 81.007,0 c 2.473,0 4.497,-2.024 4.497,-4.497 l 0,-63.007 C 85.504,-69.977 83.48,-72 81.007,-72 L 0,-72 c -2.473,0 -4.496,2.023 -4.496,4.496 l 0,63.007 C -4.496,-2.024 -2.473,0 0,0 z"
             style="fill:none;stroke:#231f20;stroke-width:0.5;stroke-linecap:butt;stroke-linejoin:miter;stroke-miterlimit:4;stroke-opacity:1;stroke-dasharray:none"
             id="path5065" />
        </g>
        <g
           id="g5067"
           transform="translate(137.5163,498.8095)">
          <path
             inkscape:connector-curvature="0"
             d="m 0,0 81.007,0 c 1.813,0 3.297,-1.483 3.297,-3.296 l 0,-63.007 c 0,-1.813 -1.484,-3.297 -3.297,-3.297 L 0,-69.6 c -1.813,0 -3.297,1.484 -3.297,3.297 l 0,63.007 C -3.297,-1.483 -1.813,0 0,0"
             style="fill:#231f20;fill-opacity:1;fill-rule:evenodd;stroke:none"
             id="path5069" />
        </g>
        <g
           id="g5071"
           transform="translate(137.5163,497.0105)">
          <path
             inkscape:connector-curvature="0"
             d="m 0,0 81.007,0 c 0.823,0 1.497,-0.674 1.497,-1.497 l 0,-63.007 C 82.504,-65.327 81.83,-66 81.007,-66 L 0,-66 c -0.822,0 -1.496,0.673 -1.496,1.496 l 0,63.007 C -1.496,-0.674 -0.822,0 0,0"
             style="fill:#ffffff;fill-opacity:1;fill-rule:evenodd;stroke:none"
             id="path5073" />
        </g>
        <g
           id="g5075"
           transform="translate(216.2594,489.4985)">
          <path
             inkscape:connector-curvature="0"
             d="M 0,0 -1.852,0 -3.829,-4.336 -5.85,0 l -1.809,0 2.945,-6.566 0,-5.428 1.726,0 0,5.428 L 0,0 z m -8.987,-3.199 c -0.127,1.093 -0.295,1.599 -0.757,2.187 -0.547,0.801 -1.389,1.221 -2.356,1.221 -2.358,0 -3.578,-2.061 -3.578,-5.934 0,-4.418 1.137,-6.488 3.703,-6.488 1.684,0 2.947,1.438 2.988,3.418 l -1.726,0 c 0,-0.885 -0.252,-1.727 -1.262,-1.727 -1.472,0 -2.061,1.389 -2.061,4.84 0,3.114 0.504,4.207 1.893,4.207 0.8,0 1.261,-0.547 1.43,-1.724 l 1.726,0 z m -8.946,-8.795 0,11.994 -1.724,0 0,-7.197 -3.282,7.197 -1.726,0 0,-11.994 1.726,0 0,8.037 3.703,-8.037 1.303,0 z m -8.649,0 0,1.681 -4.375,0 0,3.957 2.482,0 0,1.643 -2.482,0 0,3.029 3.912,0 0,1.684 -5.638,0 0,-11.994 6.101,0 z m -8.354,3.324 0,2.482 -3.072,0 0,-1.683 1.345,0 0,-0.799 c 0,-1.262 -0.42,-1.852 -1.304,-1.852 -0.926,0 -1.515,0.631 -1.767,1.809 -0.168,0.926 -0.253,1.979 -0.253,2.988 0,1.432 0.211,2.778 0.547,3.368 0.295,0.589 0.758,0.882 1.346,0.882 0.843,0 1.39,-0.547 1.431,-1.345 l 1.727,0 c -0.086,1.767 -1.39,3.029 -3.115,3.029 -1.389,0 -2.608,-0.926 -3.031,-2.188 -0.42,-1.136 -0.547,-2.357 -0.547,-4.041 0,-1.556 0.254,-3.24 0.633,-4.123 0.588,-1.347 1.641,-2.07 3.071,-2.07 1.221,0 2.188,0.639 2.652,1.691 0.251,0.506 0.337,1.01 0.337,1.852 m -10.039,5.471 c 0,-0.967 -0.547,-1.514 -1.558,-1.514 l -1.768,0 0,3.029 1.768,0 c 0.927,0 1.558,-0.59 1.558,-1.515 m 1.683,-8.795 -1.725,5.89 c 1.135,0.422 1.725,1.473 1.725,2.905 0,1.935 -1.264,3.199 -3.156,3.199 l -3.578,0 0,-11.994 1.725,0 0,5.638 1.642,0 1.6,-5.638 1.767,0 z m -8.65,0 0,1.681 -4.376,0 0,3.957 2.482,0 0,1.643 -2.482,0 0,3.029 3.913,0 0,1.684 -5.64,0 0,-11.994 6.103,0 z m -8.609,0 0,11.994 -1.724,0 -2.231,-6.734 -2.23,6.734 -1.726,0 0,-11.994 1.726,0 0,6.732 2.23,-6.732 2.231,6.732 0,-6.732 1.724,0 z m -9.828,0 0,1.681 -4.377,0 0,3.957 2.483,0 0,1.643 -2.483,0 0,3.029 3.913,0 0,1.684 -5.636,0 0,-11.994 6.1,0 z"
             style="fill:#231f20;fill-opacity:1;fill-rule:evenodd;stroke:none"
             id="path5077" />
        </g>
        <g
           id="g5079"
           transform="translate(211.4844,461.6565)">
          <path
             inkscape:connector-curvature="0"
             d="m 0,0 0,2.399 -4.082,0 0,-1.893 2.188,0 0,-0.506 c 0,-1.094 -0.884,-1.851 -2.104,-1.851 -0.716,0 -1.263,0.294 -1.641,0.968 -0.38,0.756 -0.59,2.02 -0.59,3.282 0,1.009 0.169,2.103 0.464,2.82 0.42,1.051 1.051,1.471 2.02,1.471 0.924,0 1.43,-0.377 1.935,-1.43 L 0,5.975 c -0.8,1.894 -1.894,2.652 -3.745,2.652 -1.347,0 -2.357,-0.463 -3.072,-1.346 -0.8,-1.052 -1.347,-2.947 -1.347,-4.882 0,-1.473 0.295,-2.946 0.8,-3.997 0.715,-1.517 1.768,-2.195 3.577,-2.195 C -1.6,-3.793 0,-2.189 0,0 m -11.196,-3.576 0,11.992 -1.893,0 0,-7.658 -4.377,7.658 -1.893,0 0,-11.992 1.893,0 0,8.121 4.587,-8.121 1.683,0 z m -11.446,11.992 -1.936,0 0,-11.992 1.936,0 0,11.992 z m -4.422,-11.992 -3.955,7.322 3.704,4.67 -2.441,0 -3.787,-4.756 0,4.756 -1.895,0 0,-11.992 1.895,0 0,4.123 1.262,1.559 3.03,-5.682 2.187,0 z m -12.963,8.625 c 0,-0.504 -0.294,-1.01 -0.757,-1.262 -0.293,-0.168 -0.504,-0.209 -1.094,-0.209 l -2.273,0 0,2.944 2.273,0 c 0.633,0 0.801,-0.041 1.094,-0.209 0.463,-0.252 0.757,-0.758 0.757,-1.264 m 2.147,-8.625 -2.104,5.596 c 1.094,0.506 1.851,1.767 1.851,3.029 0,1.221 -0.757,2.484 -1.809,2.988 -0.589,0.297 -1.22,0.379 -2.146,0.379 l -3.955,0 0,-11.992 1.892,0 0,5.217 2.273,0 1.936,-5.217 2.062,0 z m -14.309,5.301 -2.399,0 1.221,3.367 1.178,-3.367 z m 3.87,-5.301 -4.123,11.992 -1.893,0 -4.125,-11.992 2.021,0 1.177,3.367 3.745,0 1.18,-3.367 2.018,0 z m -13.256,8.625 c 0,-0.504 -0.294,-1.051 -0.715,-1.262 -0.337,-0.168 -0.547,-0.209 -1.136,-0.209 l -2.482,0 0,2.944 2.482,0 c 0.589,0 0.799,-0.041 1.136,-0.209 0.421,-0.252 0.715,-0.758 0.715,-1.264 m 1.936,0 c 0,1.221 -0.8,2.484 -1.853,2.988 -0.588,0.297 -1.218,0.379 -2.188,0.379 l -4.123,0 0,-11.992 1.895,0 0,5.217 2.228,0 c 0.927,0 1.642,0.17 2.188,0.42 1.053,0.465 1.853,1.726 1.853,2.988"
             style="fill:#231f20;fill-opacity:1;fill-rule:evenodd;stroke:none"
             id="path5081" />
        </g>
        <g
           id="g5083"
           transform="translate(198.2384,450.5215)">
          <path
             inkscape:connector-curvature="0"
             d="M 0,0 -2.231,0 -5.134,-4.629 -7.996,0 l -2.272,0 4.207,-6.775 0,-5.217 1.895,0 0,5.217 L 0,0 z m -10.773,-11.992 0,1.768 -5.556,0 0,10.224 -1.893,0 0,-11.992 7.449,0 z m -10.268,0 0,11.992 -1.894,0 0,-7.658 -4.376,7.658 -1.894,0 0,-11.992 1.894,0 0,8.123 4.587,-8.123 1.683,0 z m -12.666,5.975 c 0,-0.926 -0.21,-2.102 -0.463,-2.735 -0.421,-1.052 -0.968,-1.513 -1.852,-1.513 -0.757,0 -1.263,0.293 -1.64,0.926 -0.464,0.755 -0.716,2.06 -0.716,3.322 0,1.01 0.169,2.103 0.462,2.82 0.421,1.051 1.01,1.516 1.935,1.475 0.716,-0.045 1.18,-0.297 1.558,-0.928 0.463,-0.799 0.716,-2.02 0.716,-3.367 m 1.893,0 c 0,1.515 -0.295,3.031 -0.8,4.084 -0.757,1.472 -1.809,2.146 -3.324,2.146 -1.388,0 -2.357,-0.422 -3.072,-1.347 -0.799,-1.135 -1.304,-2.903 -1.304,-4.883 0,-1.432 0.337,-3.03 0.842,-4.039 0.716,-1.475 1.767,-2.153 3.45,-2.153 1.262,0 2.23,0.428 2.902,1.352 0.843,1.053 1.306,2.947 1.306,4.84"
             style="fill:#231f20;fill-opacity:1;fill-rule:evenodd;stroke:none"
             id="path5085" />
        </g>
      </g>
    </g>
  </g>
</svg>
