<?xml version="1.0" encoding="UTF-8" standalone="no"?>
<!-- Created with Inkscape (http://www.inkscape.org/) -->

<svg
   xmlns:dc="http://purl.org/dc/elements/1.1/"
   xmlns:cc="http://creativecommons.org/ns#"
   xmlns:rdf="http://www.w3.org/1999/02/22-rdf-syntax-ns#"
   xmlns:svg="http://www.w3.org/2000/svg"
   xmlns="http://www.w3.org/2000/svg"
   xmlns:sodipodi="http://sodipodi.sourceforge.net/DTD/sodipodi-0.dtd"
   xmlns:inkscape="http://www.inkscape.org/namespaces/inkscape"
   width="108.625"
   height="162.62625"
   id="svg14443"
   version="1.1"
   inkscape:version="0.48.1 "
   sodipodi:docname="New document 57">
  <defs
     id="defs14445" />
  <sodipodi:namedview
     id="base"
     pagecolor="#ffffff"
     bordercolor="#666666"
     borderopacity="1.0"
     inkscape:pageopacity="0.0"
     inkscape:pageshadow="2"
     inkscape:zoom="0.35"
     inkscape:cx="103.59821"
     inkscape:cy="67.027407"
     inkscape:document-units="px"
     inkscape:current-layer="layer1"
     showgrid="false"
     fit-margin-top="0"
     fit-margin-left="0"
     fit-margin-right="0"
     fit-margin-bottom="0"
     inkscape:window-width="469"
     inkscape:window-height="403"
     inkscape:window-x="25"
     inkscape:window-y="25"
     inkscape:window-maximized="0" />
  <metadata
     id="metadata14448">
    <rdf:RDF>
      <cc:Work
         rdf:about="">
        <dc:format>image/svg+xml</dc:format>
        <dc:type
           rdf:resource="http://purl.org/dc/dcmitype/StillImage" />
        <dc:title></dc:title>
      </cc:Work>
    </rdf:RDF>
  </metadata>
  <g
     inkscape:label="Layer 1"
     inkscape:groupmode="layer"
     id="layer1"
     transform="translate(-271.40179,-436.76334)">
    <g
       id="g8630"
       transform="matrix(1.25,0,0,-1.25,281.83929,437.07584)">
      <path
         d="m 0,0 70.2,0 c 4.461,0 8.1,-3.639 8.1,-8.1 l 0,-113.401 c 0,-4.461 -3.639,-8.1 -8.1,-8.1 l -70.2,0 c -4.461,0 -8.1,3.639 -8.1,8.1 L -8.1,-8.1 C -8.1,-3.695 -4.405,0 0,0"
         style="fill:#ffffff;fill-opacity:1;fill-rule:nonzero;stroke:#231f20;stroke-width:0.5;stroke-linecap:butt;stroke-linejoin:miter;stroke-miterlimit:4;stroke-opacity:1;stroke-dasharray:none"
         id="path8632"
         inkscape:connector-curvature="0" />
    </g>
    <g
       id="g8634"
       transform="matrix(1.25,0,0,-1.25,281.87054,439.60709)">
      <path
         d="m 0,0 70.148,0 c 3.347,-0.013 6.081,-2.761 6.102,-6.101 l 0,-113.348 c -0.021,-3.342 -2.755,-6.084 -6.102,-6.102 l -70.148,0 c -3.338,0.018 -6.089,2.76 -6.1,6.102 l 0,113.348 C -6.089,-2.761 -3.338,-0.013 0,0"
         style="fill:#231f20;fill-opacity:1;fill-rule:evenodd;stroke:none"
         id="path8636"
         inkscape:connector-curvature="0" />
    </g>
    <g
       id="g8638"
       transform="matrix(1.25,0,0,-1.25,281.90928,442.56359)">
      <path
         d="m 0,0 70.088,0 c 2.085,-0.012 3.754,-1.681 3.766,-3.766 l 0,-113.288 c -0.012,-2.075 -1.681,-3.768 -3.766,-3.766 l -70.088,0 c -2.084,-0.002 -3.756,1.691 -3.766,3.766 l 0,113.288 C -3.756,-1.681 -2.084,-0.012 0,0"
         style="fill:#ffffff;fill-opacity:1;fill-rule:evenodd;stroke:none"
         id="path8640"
         inkscape:connector-curvature="0" />
    </g>
    <g
       id="g8642"
       transform="matrix(1.25,0,0,-1.25,361.84678,467.91509)">
      <path
         d="m 0,0 c 0,5.656 -6.766,3.887 -6.968,6.564 -0.102,1.313 1.16,1.717 2.222,1.667 1.616,-0.051 2.12,-1.262 2.12,-1.262 l 2.02,0.605 c -0.707,1.768 -2.069,2.929 -4.091,2.929 -2.575,0 -4.492,-1.061 -4.492,-3.889 0,-2.373 1.917,-3.231 2.777,-3.585 1.869,-0.757 4.09,-1.06 4.09,-2.979 0,-1.212 -0.909,-2.12 -2.221,-2.12 -1.365,0 -2.476,0.756 -3.082,2.12 l -2.171,-0.808 c 0.96,-2.172 2.777,-3.645 5.253,-3.645 1.21,0 2.321,0.413 3.13,1.12 C -0.506,-2.474 0,-1.314 0,0 m -11.051,0 c 0,5.656 -6.766,3.887 -6.969,6.564 -0.1,1.313 1.163,1.717 2.221,1.667 1.617,-0.051 2.122,-1.262 2.122,-1.262 l 2.019,0.605 c -0.706,1.768 -2.07,2.929 -4.088,2.929 -2.576,0 -4.496,-1.061 -4.496,-3.889 0,-2.373 1.92,-3.231 2.777,-3.585 1.87,-0.757 4.092,-1.06 4.092,-2.979 0,-1.212 -0.911,-2.12 -2.222,-2.12 -1.364,0 -2.474,0.756 -3.081,2.12 l -2.171,-0.808 c 0.959,-2.172 2.778,-3.645 5.252,-3.645 1.211,0 2.322,0.413 3.129,1.12 0.91,0.809 1.415,1.969 1.415,3.283 m -14.081,3.029 c 0,-1.111 -0.251,-2.525 -0.556,-3.281 -0.504,-1.263 -1.161,-1.818 -2.221,-1.818 -0.909,0 -1.516,0.352 -1.969,1.111 -0.556,0.908 -0.859,2.473 -0.859,3.988 0,1.212 0.203,2.525 0.556,3.384 0.505,1.262 1.212,1.818 2.323,1.767 0.857,-0.05 1.413,-0.353 1.867,-1.111 0.556,-0.96 0.859,-2.423 0.859,-4.04 m 2.273,0 c 0,1.818 -0.354,3.636 -0.96,4.899 -0.909,1.767 -2.172,2.575 -3.989,2.575 -1.667,0 -2.828,-0.505 -3.687,-1.617 -0.958,-1.362 -1.565,-3.484 -1.565,-5.857 0,-1.716 0.405,-3.635 1.009,-4.848 0.86,-1.766 2.122,-2.584 4.142,-2.584 1.515,0 2.677,0.514 3.484,1.626 1.01,1.262 1.566,3.534 1.566,5.806 m -14.738,3.182 c 0,-0.607 -0.354,-1.213 -0.909,-1.515 -0.353,-0.202 -0.606,-0.253 -1.312,-0.253 l -2.728,0 0,3.535 2.728,0 c 0.756,0 0.959,-0.05 1.312,-0.252 0.555,-0.303 0.909,-0.91 0.909,-1.515 m 2.574,-10.352 -2.523,6.716 c 1.312,0.606 2.221,2.121 2.221,3.636 0,1.464 -0.909,2.979 -2.172,3.585 -0.706,0.353 -1.463,0.454 -2.574,0.454 l -4.747,0 0,-14.391 2.272,0 0,6.262 2.728,0 2.321,-6.262 2.474,0 z m -12.817,2.929 -2.172,0.808 c -0.555,-1.161 -1.262,-1.666 -2.222,-1.666 -1.01,0 -1.666,0.352 -2.171,1.111 -0.555,0.908 -0.909,2.473 -0.909,4.04 0,1.211 0.203,2.473 0.556,3.332 0.505,1.262 1.262,1.767 2.424,1.767 1.111,0 1.565,-0.303 2.373,-1.515 l 2.121,0.909 c -0.96,2.02 -2.323,2.929 -4.494,2.929 -1.617,0 -2.829,-0.556 -3.687,-1.617 -1.009,-1.262 -1.615,-3.534 -1.615,-5.805 0,-1.819 0.403,-3.637 1.059,-4.9 0.91,-1.766 2.272,-2.584 4.394,-2.584 2.071,0 3.484,1.07 4.343,3.191"
         style="fill:#231f20;fill-opacity:1;fill-rule:evenodd;stroke:none"
         id="path8644"
         inkscape:connector-curvature="0" />
    </g>
    <g
       id="g8646"
       transform="matrix(1.25,0,0,-1.25,354.80678,484.31447)">
      <path
         d="M 0,0 -2.675,0 -6.161,-5.555 -9.594,0 l -2.725,0 5.047,-8.13 0,-6.262 2.273,0 0,6.262 L 0,0 z m -9.896,-14.392 0,2.12 -6.666,0 0,12.272 -2.272,0 0,-14.392 8.938,0 z m -12.322,0 0,14.392 -2.272,0 0,-9.191 -5.251,9.191 -2.272,0 0,-14.392 2.272,0 0,9.746 5.504,-9.746 2.019,0 z m -15.198,7.171 c 0,-1.111 -0.253,-2.525 -0.555,-3.283 -0.504,-1.262 -1.161,-1.817 -2.222,-1.817 -0.909,0 -1.515,0.353 -1.969,1.11 -0.556,0.909 -0.858,2.475 -0.858,3.99 0,1.211 0.201,2.524 0.555,3.382 0.505,1.263 1.212,1.818 2.323,1.768 0.858,-0.051 1.413,-0.353 1.868,-1.111 0.555,-0.96 0.858,-2.424 0.858,-4.039 m 2.273,0 c 0,1.818 -0.354,3.635 -0.959,4.898 -0.91,1.767 -2.172,2.574 -3.99,2.574 -1.666,0 -2.827,-0.504 -3.685,-1.615 -0.96,-1.363 -1.567,-3.484 -1.567,-5.857 0,-1.718 0.404,-3.636 1.011,-4.848 0.858,-1.768 2.12,-2.584 4.14,-2.584 1.514,0 2.676,0.513 3.484,1.624 1.011,1.263 1.566,3.535 1.566,5.808"
         style="fill:#231f20;fill-opacity:1;fill-rule:evenodd;stroke:none"
         id="path8648"
         inkscape:connector-curvature="0" />
    </g>
    <g
       id="g8650"
       transform="matrix(1.25,0,0,-1.25,361.72428,546.65197)">
      <path
         d="m 0,0 c 0,5.656 -6.768,3.888 -6.97,6.564 -0.1,1.313 1.162,1.718 2.222,1.667 1.617,-0.05 2.122,-1.262 2.122,-1.262 l 2.019,0.605 c -0.708,1.768 -2.07,2.931 -4.09,2.931 -2.575,0 -4.493,-1.062 -4.493,-3.889 0,-2.375 1.918,-3.232 2.776,-3.585 1.868,-0.758 4.09,-1.062 4.09,-2.98 0,-1.211 -0.909,-2.121 -2.222,-2.121 -1.362,0 -2.473,0.757 -3.08,2.121 l -2.171,-0.809 c 0.958,-2.17 2.778,-3.644 5.251,-3.644 1.213,0 2.324,0.412 3.131,1.12 C -0.507,-2.473 0,-1.313 0,0 m -11.027,0 c 0,5.656 -6.766,3.888 -6.969,6.564 -0.1,1.313 1.161,1.718 2.221,1.667 1.618,-0.05 2.12,-1.262 2.12,-1.262 l 2.022,0.605 c -0.707,1.768 -2.071,2.931 -4.091,2.931 -2.575,0 -4.492,-1.062 -4.492,-3.889 0,-2.375 1.917,-3.232 2.776,-3.585 1.869,-0.758 4.091,-1.062 4.091,-2.98 0,-1.211 -0.91,-2.121 -2.222,-2.121 -1.364,0 -2.475,0.757 -3.081,2.121 l -2.171,-0.809 c 0.96,-2.17 2.777,-3.644 5.252,-3.644 1.211,0 2.322,0.412 3.129,1.12 0.909,0.809 1.415,1.969 1.415,3.282 m -14.057,3.031 c 0,-1.112 -0.253,-2.525 -0.556,-3.283 -0.503,-1.262 -1.16,-1.818 -2.221,-1.818 -0.908,0 -1.515,0.354 -1.969,1.111 -0.556,0.909 -0.859,2.475 -0.859,3.99 0,1.21 0.202,2.523 0.556,3.382 0.506,1.263 1.212,1.818 2.323,1.768 0.858,-0.051 1.414,-0.354 1.868,-1.11 0.556,-0.961 0.858,-2.425 0.858,-4.04 m 2.274,0 c 0,1.818 -0.355,3.634 -0.96,4.897 -0.909,1.768 -2.172,2.577 -3.989,2.577 -1.667,0 -2.828,-0.507 -3.687,-1.618 -0.958,-1.363 -1.566,-3.483 -1.566,-5.856 0,-1.718 0.405,-3.636 1.01,-4.848 0.86,-1.767 2.121,-2.585 4.141,-2.585 1.516,0 2.676,0.514 3.484,1.624 1.011,1.264 1.567,3.536 1.567,5.809 m -14.713,3.181 c 0,-0.606 -0.355,-1.213 -0.91,-1.515 -0.352,-0.203 -0.606,-0.253 -1.312,-0.253 l -2.727,0 0,3.535 2.727,0 c 0.757,0 0.96,-0.051 1.312,-0.252 0.555,-0.304 0.91,-0.909 0.91,-1.515 m 2.574,-10.352 -2.524,6.715 c 1.312,0.607 2.222,2.122 2.222,3.637 0,1.464 -0.91,2.979 -2.172,3.584 -0.707,0.354 -1.464,0.455 -2.575,0.455 l -4.746,0 0,-14.391 2.272,0 0,6.261 2.727,0 2.322,-6.261 2.474,0 z m -12.793,2.928 -2.172,0.808 c -0.555,-1.161 -1.262,-1.666 -2.222,-1.666 -1.01,0 -1.666,0.354 -2.171,1.111 -0.555,0.909 -0.909,2.475 -0.909,4.039 0,1.213 0.203,2.474 0.556,3.333 0.505,1.263 1.262,1.768 2.424,1.768 1.111,0 1.565,-0.304 2.373,-1.516 l 2.121,0.909 c -0.96,2.021 -2.323,2.931 -4.494,2.931 -1.617,0 -2.829,-0.556 -3.687,-1.618 -1.009,-1.261 -1.615,-3.535 -1.615,-5.807 0,-1.817 0.403,-3.635 1.059,-4.897 0.91,-1.767 2.272,-2.585 4.394,-2.585 2.071,0 3.484,1.069 4.343,3.19"
         style="fill:#231f20;fill-opacity:1;fill-rule:evenodd;stroke:none"
         id="path8652"
         inkscape:connector-curvature="0" />
    </g>
    <g
       id="g8654"
       transform="matrix(1.25,0,0,-1.25,362.25803,575.86446)">
      <path
         d="m 0,0 c 0,5.655 -6.766,3.888 -6.97,6.565 -0.1,1.313 1.162,1.716 2.222,1.667 1.617,-0.052 2.122,-1.264 2.122,-1.264 l 2.02,0.607 c -0.707,1.767 -2.071,2.928 -4.091,2.928 -2.575,0 -4.493,-1.06 -4.493,-3.889 0,-2.372 1.918,-3.231 2.776,-3.584 1.87,-0.757 4.092,-1.062 4.092,-2.979 0,-1.213 -0.911,-2.122 -2.222,-2.122 -1.364,0 -2.475,0.759 -3.081,2.122 l -2.171,-0.808 c 0.96,-2.173 2.777,-3.645 5.252,-3.645 1.211,0 2.322,0.413 3.129,1.12 C -0.506,-2.475 0,-1.312 0,0 m -10.756,-4.141 -4.746,8.787 4.443,5.605 -2.928,0 -4.545,-5.706 0,5.706 -2.271,0 0,-14.392 2.271,0 0,4.948 1.514,1.87 3.638,-6.818 2.624,0 z m -11.713,0 0,2.121 -6.666,0 0,12.271 -2.272,0 0,-14.392 8.938,0 z m -15.299,6.363 -2.878,0 1.463,4.039 1.415,-4.039 z m 4.646,-6.363 -4.95,14.392 -2.272,0 -4.949,-14.392 2.425,0 1.413,4.041 4.494,0 1.415,-4.041 2.424,0 z m -12.573,14.392 -2.323,0 -1.111,-7.574 -1.868,7.574 -2.222,0 -1.817,-7.574 -1.111,7.574 -2.323,0 2.12,-14.392 2.02,0 2.222,9.241 2.272,-9.241 2.021,0 2.12,14.392 z"
         style="fill:#231f20;fill-opacity:1;fill-rule:evenodd;stroke:none"
         id="path8656"
         inkscape:connector-curvature="0" />
    </g>
    <g
       id="g8658"
       transform="matrix(1.25,0,0,-1.25,335.27303,513.22072)">
      <path
         d="m 0,0 0,1.515 -6.663,0 0,-1.515 2.461,0 0,-9.278 1.704,0 0,9.278 L 0,0 z m -10.071,-4.507 -2.157,0 1.097,3.03 1.06,-3.03 z m 3.484,-4.771 -3.711,10.793 -1.704,0 -3.71,-10.793 1.818,0 1.06,3.028 3.369,0 1.059,-3.028 1.819,0 z"
         style="fill:#231f20;fill-opacity:1;fill-rule:evenodd;stroke:none"
         id="path8660"
         inkscape:connector-curvature="0" />
    </g>
  </g>
</svg>
