<?xml version="1.0" encoding="UTF-8" standalone="no"?>
<!-- Created with Inkscape (http://www.inkscape.org/) -->

<svg
   xmlns:dc="http://purl.org/dc/elements/1.1/"
   xmlns:cc="http://creativecommons.org/ns#"
   xmlns:rdf="http://www.w3.org/1999/02/22-rdf-syntax-ns#"
   xmlns:svg="http://www.w3.org/2000/svg"
   xmlns="http://www.w3.org/2000/svg"
   xmlns:sodipodi="http://sodipodi.sourceforge.net/DTD/sodipodi-0.dtd"
   xmlns:inkscape="http://www.inkscape.org/namespaces/inkscape"
   width="108.625"
   height="162.62625"
   id="svg14601"
   version="1.1"
   inkscape:version="0.48.1 "
   sodipodi:docname="New document 61">
  <defs
     id="defs14603" />
  <sodipodi:namedview
     id="base"
     pagecolor="#ffffff"
     bordercolor="#666666"
     borderopacity="1.0"
     inkscape:pageopacity="0.0"
     inkscape:pageshadow="2"
     inkscape:zoom="0.35"
     inkscape:cx="240.74107"
     inkscape:cy="24.170267"
     inkscape:document-units="px"
     inkscape:current-layer="layer1"
     showgrid="false"
     fit-margin-top="0"
     fit-margin-left="0"
     fit-margin-right="0"
     fit-margin-bottom="0"
     inkscape:window-width="469"
     inkscape:window-height="403"
     inkscape:window-x="150"
     inkscape:window-y="150"
     inkscape:window-maximized="0" />
  <metadata
     id="metadata14606">
    <rdf:RDF>
      <cc:Work
         rdf:about="">
        <dc:format>image/svg+xml</dc:format>
        <dc:type
           rdf:resource="http://purl.org/dc/dcmitype/StillImage" />
        <dc:title></dc:title>
      </cc:Work>
    </rdf:RDF>
  </metadata>
  <g
     inkscape:label="Layer 1"
     inkscape:groupmode="layer"
     id="layer1"
     transform="translate(-134.25893,-393.9062)">
    <g
       id="g8662"
       transform="matrix(1.25,0,0,-1.25,144.69643,394.2187)">
      <path
         d="M 0,0 70.201,0 C 74.662,0 78.3,-3.639 78.3,-8.1 l 0,-113.401 c 0,-4.461 -3.638,-8.1 -8.099,-8.1 l -70.201,0 c -4.461,0 -8.1,3.639 -8.1,8.1 L -8.1,-8.1 C -8.1,-3.695 -4.405,0 0,0"
         style="fill:#ffffff;fill-opacity:1;fill-rule:nonzero;stroke:#231f20;stroke-width:0.5;stroke-linecap:butt;stroke-linejoin:miter;stroke-miterlimit:4;stroke-opacity:1;stroke-dasharray:none"
         id="path8664"
         inkscape:connector-curvature="0" />
    </g>
    <g
       id="g8666"
       transform="matrix(1.25,0,0,-1.25,144.72893,396.74982)">
      <path
         d="m 0,0 70.147,0 c 3.347,-0.013 6.081,-2.761 6.102,-6.101 l 0,-113.349 c -0.021,-3.342 -2.755,-6.084 -6.102,-6.1 l -70.147,0 c -3.338,0.016 -6.089,2.758 -6.101,6.1 l 0,113.349 C -6.089,-2.761 -3.338,-0.013 0,0"
         style="fill:#231f20;fill-opacity:1;fill-rule:evenodd;stroke:none"
         id="path8668"
         inkscape:connector-curvature="0" />
    </g>
    <g
       id="g8670"
       transform="matrix(1.25,0,0,-1.25,144.76631,399.70645)">
      <path
         d="m 0,0 70.088,0 c 2.085,-0.012 3.754,-1.681 3.766,-3.766 l 0,-113.288 c -0.012,-2.075 -1.681,-3.767 -3.766,-3.766 l -70.088,0 c -2.084,-0.001 -3.755,1.691 -3.766,3.766 l 0,113.288 C -3.755,-1.681 -2.084,-0.012 0,0"
         style="fill:#ffffff;fill-opacity:1;fill-rule:evenodd;stroke:none"
         id="path8672"
         inkscape:connector-curvature="0" />
    </g>
    <g
       id="g8674"
       transform="matrix(1.25,0,0,-1.25,182.10144,456.64408)">
      <path
         d="m 0,0 -7.456,13.201 0,-13.201 -3.078,0 0,19.494 3.078,0 7.114,-12.449 0,12.449 3.078,0 L 2.736,0 0,0 z"
         style="fill:#231f20;fill-opacity:1;fill-rule:nonzero;stroke:none"
         id="path8676"
         inkscape:connector-curvature="0" />
    </g>
    <g
       id="g8678"
       transform="matrix(1.25,0,0,-1.25,208.09269,444.50295)">
      <path
         d="m 0,0 c 0,2.462 -0.479,4.925 -1.3,6.635 -1.231,2.393 -2.941,3.488 -5.403,3.488 -2.258,0 -3.831,-0.684 -4.993,-2.189 -1.3,-1.847 -2.121,-4.719 -2.121,-7.934 0,-2.326 0.548,-4.925 1.368,-6.567 1.163,-2.394 2.873,-3.488 5.609,-3.488 2.052,0 3.625,0.684 4.719,2.189 C -0.753,-6.156 0,-3.078 0,0 m -3.078,0 c 0,-1.505 -0.342,-3.42 -0.753,-4.446 -0.683,-1.71 -1.573,-2.463 -3.009,-2.463 -1.231,0 -2.052,0.479 -2.668,1.505 -0.752,1.231 -1.163,3.352 -1.163,5.404 0,1.641 0.274,3.42 0.753,4.582 0.684,1.71 1.642,2.463 3.147,2.394 1.162,-0.068 1.915,-0.479 2.53,-1.504 0.753,-1.3 1.163,-3.284 1.163,-5.472"
         style="fill:#231f20;fill-opacity:1;fill-rule:nonzero;stroke:none"
         id="path8680"
         inkscape:connector-curvature="0" />
    </g>
    <g
       id="g8682"
       transform="matrix(1.25,0,0,-1.25,152.43143,479.57658)">
      <path
         d="m 0,0 c 0,1.844 -1.152,3.072 -2.88,3.072 l -3.265,0 0,-10.944 1.575,0 0,4.8 1.69,0 C -1.037,-3.072 0,-1.997 0,0 m -1.536,0 c 0,-0.998 -0.499,-1.574 -1.421,-1.574 l -1.613,0 0,3.11 1.613,0 c 0.845,0 1.421,-0.614 1.421,-1.536"
         style="fill:#231f20;fill-opacity:1;fill-rule:nonzero;stroke:none"
         id="path8684"
         inkscape:connector-curvature="0" />
    </g>
    <g
       id="g8686"
       transform="matrix(1.25,0,0,-1.25,154.30268,489.4167)">
      <path
         d="m 0,0 0,10.944 5.146,0 0,-1.536 -3.572,0 0,-2.765 2.266,0 0,-1.497 -2.266,0 0,-3.61 3.993,0 L 5.567,0 0,0 z"
         style="fill:#231f20;fill-opacity:1;fill-rule:nonzero;stroke:none"
         id="path8688"
         inkscape:connector-curvature="0" />
    </g>
    <g
       id="g8690"
       transform="matrix(1.25,0,0,-1.25,171.24644,482.55295)">
      <path
         d="M 0,0 C 0,0.845 -0.116,1.805 -0.269,2.612 -0.461,3.725 -0.922,4.57 -1.575,5.031 -1.958,5.338 -2.419,5.453 -3.341,5.453 l -2.803,0 0,-10.944 3.033,0 c 0.615,0 1.153,0.154 1.536,0.499 C -0.499,-4.147 0,-2.534 0,0 m -1.536,-0.076 c 0,-0.845 -0.077,-1.613 -0.154,-2.304 -0.153,-0.845 -0.653,-1.575 -1.574,-1.575 l -1.306,0 0,7.872 1.306,0 c 0.691,0 1.151,-0.345 1.421,-1.113 0.191,-0.461 0.307,-1.652 0.307,-2.88"
         style="fill:#231f20;fill-opacity:1;fill-rule:nonzero;stroke:none"
         id="path8692"
         inkscape:connector-curvature="0" />
    </g>
    <g
       id="g8694"
       transform="matrix(1.25,0,0,-1.25,173.93394,489.4167)">
      <path
         d="m 0,0 0,10.944 5.146,0 0,-1.536 -3.572,0 0,-2.765 2.266,0 0,-1.497 -2.266,0 0,-3.61 3.993,0 L 5.567,0 0,0 z"
         style="fill:#231f20;fill-opacity:1;fill-rule:nonzero;stroke:none"
         id="path8696"
         inkscape:connector-curvature="0" />
    </g>
    <g
       id="g8698"
       transform="matrix(1.25,0,0,-1.25,186.36518,489.6567)">
      <path
         d="m 0,0 c -1.92,0 -3.072,1.613 -3.072,3.418 l 1.536,0 c 0,-0.922 0.461,-1.882 1.536,-1.882 0.845,0 1.536,0.768 1.536,1.651 0,0.615 -0.231,1.075 -0.883,1.575 -0.231,0.23 0.384,-0.192 -1.843,1.305 -0.884,0.615 -1.345,1.46 -1.345,2.42 0,1.574 1.23,2.841 2.804,2.841 1.536,0 2.727,-1.191 2.765,-2.841 l -1.498,0 C 1.497,9.255 0.96,9.754 0.269,9.754 -0.461,9.754 -1.037,9.216 -1.037,8.487 -1.037,7.949 -0.806,7.642 0,7.181 2.112,5.952 3.034,4.762 3.034,3.187 3.034,1.421 1.69,0 0,0"
         style="fill:#231f20;fill-opacity:1;fill-rule:nonzero;stroke:none"
         id="path8700"
         inkscape:connector-curvature="0" />
    </g>
    <g
       id="g8702"
       transform="matrix(1.25,0,0,-1.25,195.86894,477.56045)">
      <path
         d="m 0,0 0,-9.485 -1.574,0 0,9.485 -1.997,0 0,1.459 5.568,0 L 1.997,0 0,0 z"
         style="fill:#231f20;fill-opacity:1;fill-rule:nonzero;stroke:none"
         id="path8704"
         inkscape:connector-curvature="0" />
    </g>
    <g
       id="g8706"
       transform="matrix(1.25,0,0,-1.25,207.91643,489.4167)">
      <path
         d="M 0,0 -1.575,5.376 C -0.537,5.76 0,6.72 0,8.026 c 0,1.766 -1.153,2.918 -2.88,2.918 l -3.264,0 0,-10.944 1.574,0 0,5.146 1.497,0 L -1.613,0 0,0 z m -1.536,8.026 c 0,-0.883 -0.5,-1.383 -1.421,-1.383 l -1.613,0 0,2.765 1.613,0 c 0.844,0 1.421,-0.538 1.421,-1.382"
         style="fill:#231f20;fill-opacity:1;fill-rule:nonzero;stroke:none"
         id="path8708"
         inkscape:connector-curvature="0" />
    </g>
    <path
       d="m 210.21931,475.7367 1.92125,0 0,13.68 -1.92125,0 0,-13.68 z"
       style="fill:#231f20;fill-opacity:1;fill-rule:nonzero;stroke:none"
       id="path8710"
       inkscape:connector-curvature="0" />
    <g
       id="g8712"
       transform="matrix(1.25,0,0,-1.25,222.84393,489.4167)">
      <path
         d="m 0,0 -2.727,10.944 -1.536,0 L -6.989,0 l 1.574,0 0.73,2.995 2.342,0 L -1.574,0 0,0 z m -2.727,4.531 -1.574,0 0.768,3.149 0.806,-3.149 z"
         style="fill:#231f20;fill-opacity:1;fill-rule:nonzero;stroke:none"
         id="path8714"
         inkscape:connector-curvature="0" />
    </g>
    <g
       id="g8716"
       transform="matrix(1.25,0,0,-1.25,230.90643,489.4167)">
      <path
         d="m 0,0 -3.379,7.335 0,-7.335 -1.574,0 0,10.944 1.574,0 2.995,-6.566 0,6.566 1.575,0 L 1.191,0 0,0 z"
         style="fill:#231f20;fill-opacity:1;fill-rule:nonzero;stroke:none"
         id="path8718"
         inkscape:connector-curvature="0" />
    </g>
    <g
       id="g8720"
       transform="matrix(1.25,0,0,-1.25,158.04518,509.38408)">
      <path
         d="m 0,0 c -0.153,1.075 -0.575,1.574 -1.305,1.574 -1.267,0 -1.728,-0.998 -1.728,-3.84 0,-3.148 0.538,-4.416 1.882,-4.416 0.922,0 1.151,0.768 1.151,1.575 l 1.575,0 c -0.039,-1.805 -1.19,-3.111 -2.726,-3.111 -2.343,0 -3.379,1.882 -3.379,5.914 0,3.533 1.113,5.414 3.264,5.414 0.882,0 1.651,-0.384 2.15,-1.113 C 1.306,1.459 1.46,0.998 1.575,0 L 0,0 z"
         style="fill:#231f20;fill-opacity:1;fill-rule:nonzero;stroke:none"
         id="path8722"
         inkscape:connector-curvature="0" />
    </g>
    <g
       id="g8724"
       transform="matrix(1.25,0,0,-1.25,170.42894,519.41657)">
      <path
         d="M 0,0 -1.574,5.376 C -0.537,5.76 0,6.72 0,8.026 c 0,1.766 -1.151,2.918 -2.879,2.918 l -3.264,0 0,-10.944 1.574,0 0,5.146 1.498,0 L -1.612,0 0,0 z m -1.536,8.026 c 0,-0.883 -0.499,-1.383 -1.42,-1.383 l -1.613,0 0,2.765 1.613,0 c 0.845,0 1.42,-0.537 1.42,-1.382"
         style="fill:#231f20;fill-opacity:1;fill-rule:nonzero;stroke:none"
         id="path8726"
         inkscape:connector-curvature="0" />
    </g>
    <g
       id="g8728"
       transform="matrix(1.25,0,0,-1.25,180.51018,512.55295)">
      <path
         d="M 0,0 C 0,1.652 -0.154,2.688 -0.615,3.764 -1.153,5.108 -1.921,5.645 -3.188,5.645 -4.455,5.645 -5.223,5.108 -5.799,3.802 -6.26,2.765 -6.413,1.652 -6.413,0 c 0,-1.689 0.153,-2.726 0.614,-3.801 0.538,-1.306 1.306,-1.882 2.611,-1.882 1.229,0 2.035,0.576 2.573,1.882 C -0.154,-2.764 0,-1.689 0,0 m -1.498,0 c 0,-1.267 -0.077,-1.92 -0.346,-2.803 -0.268,-0.921 -0.691,-1.344 -1.344,-1.344 -0.691,0 -1.113,0.423 -1.382,1.344 -0.231,0.883 -0.346,1.575 -0.346,2.765 0,1.229 0.077,1.958 0.346,2.803 0.269,0.922 0.691,1.344 1.382,1.344 0.653,0 1.076,-0.422 1.344,-1.382 C -1.613,1.92 -1.498,1.229 -1.498,0"
         style="fill:#231f20;fill-opacity:1;fill-rule:nonzero;stroke:none"
         id="path8730"
         inkscape:connector-curvature="0" />
    </g>
    <g
       id="g8732"
       transform="matrix(1.25,0,0,-1.25,186.41269,519.6567)">
      <path
         d="m 0,0 c -1.919,0 -3.072,1.613 -3.072,3.418 l 1.536,0 c 0,-0.922 0.461,-1.882 1.536,-1.882 0.845,0 1.537,0.768 1.537,1.651 0,0.615 -0.231,1.075 -0.884,1.575 -0.231,0.23 0.385,-0.192 -1.843,1.306 -0.883,0.614 -1.344,1.459 -1.344,2.419 0,1.574 1.229,2.841 2.803,2.841 1.536,0 2.727,-1.19 2.765,-2.841 l -1.497,0 C 1.498,9.255 0.96,9.754 0.269,9.754 -0.46,9.754 -1.037,9.216 -1.037,8.487 -1.037,7.949 -0.806,7.642 0,7.181 2.113,5.952 3.034,4.762 3.034,3.187 3.034,1.421 1.69,0 0,0"
         style="fill:#231f20;fill-opacity:1;fill-rule:nonzero;stroke:none"
         id="path8734"
         inkscape:connector-curvature="0" />
    </g>
    <g
       id="g8736"
       transform="matrix(1.25,0,0,-1.25,195.67768,519.6567)">
      <path
         d="m 0,0 c -1.92,0 -3.073,1.613 -3.073,3.418 l 1.536,0 c 0,-0.922 0.461,-1.882 1.537,-1.882 0.844,0 1.535,0.768 1.535,1.651 0,0.615 -0.23,1.075 -0.883,1.575 -0.23,0.23 0.384,-0.192 -1.843,1.306 -0.884,0.614 -1.345,1.459 -1.345,2.419 0,1.574 1.23,2.841 2.804,2.841 1.536,0 2.727,-1.19 2.765,-2.841 l -1.498,0 C 1.497,9.255 0.96,9.754 0.268,9.754 -0.461,9.754 -1.037,9.216 -1.037,8.487 -1.037,7.949 -0.807,7.642 0,7.181 2.111,5.952 3.033,4.762 3.033,3.187 3.033,1.421 1.689,0 0,0"
         style="fill:#231f20;fill-opacity:1;fill-rule:nonzero;stroke:none"
         id="path8738"
         inkscape:connector-curvature="0" />
    </g>
    <path
       d="m 201.77306,505.7367 1.92,0 0,13.68 -1.92,0 0,-13.68 z"
       style="fill:#231f20;fill-opacity:1;fill-rule:nonzero;stroke:none"
       id="path8740"
       inkscape:connector-curvature="0" />
    <g
       id="g8742"
       transform="matrix(1.25,0,0,-1.25,212.90893,519.41657)">
      <path
         d="m 0,0 -3.38,7.335 0,-7.335 -1.574,0 0,10.944 1.574,0 2.995,-6.566 0,6.566 1.575,0 L 1.19,0 0,0 z"
         style="fill:#231f20;fill-opacity:1;fill-rule:nonzero;stroke:none"
         id="path8744"
         inkscape:connector-curvature="0" />
    </g>
    <g
       id="g8746"
       transform="matrix(1.25,0,0,-1.25,224.38018,517.7367)">
      <path
         d="m 0,0 c -0.423,-0.96 -1.306,-1.536 -2.419,-1.536 -1.306,0 -2.266,0.653 -2.804,1.882 -0.346,0.806 -0.576,2.342 -0.576,3.763 0,1.536 0.115,2.65 0.5,3.686 0.384,1.152 1.497,1.997 2.764,1.997 1.575,0 2.765,-1.152 2.841,-2.765 l -1.574,0 c -0.038,0.73 -0.537,1.229 -1.306,1.229 -0.537,0 -0.96,-0.269 -1.228,-0.806 -0.307,-0.538 -0.499,-1.766 -0.499,-3.072 0,-0.922 0.077,-1.882 0.23,-2.727 C -3.84,0.576 -3.303,0 -2.458,0 c 0.806,0 1.19,0.538 1.19,1.69 l 0,0.729 -1.229,0 0,1.536 2.803,0 0,-2.265 C 0.306,0.922 0.23,0.461 0,0"
         style="fill:#231f20;fill-opacity:1;fill-rule:nonzero;stroke:none"
         id="path8748"
         inkscape:connector-curvature="0" />
    </g>
  </g>
</svg>
