<?xml version="1.0" encoding="UTF-8" standalone="no"?>
<!-- Created with Inkscape (http://www.inkscape.org/) -->

<svg
   xmlns:dc="http://purl.org/dc/elements/1.1/"
   xmlns:cc="http://creativecommons.org/ns#"
   xmlns:rdf="http://www.w3.org/1999/02/22-rdf-syntax-ns#"
   xmlns:svg="http://www.w3.org/2000/svg"
   xmlns="http://www.w3.org/2000/svg"
   xmlns:sodipodi="http://sodipodi.sourceforge.net/DTD/sodipodi-0.dtd"
   xmlns:inkscape="http://www.inkscape.org/namespaces/inkscape"
   width="162.62625"
   height="108.62625"
   id="svg14732"
   version="1.1"
   inkscape:version="0.48.1 "
   sodipodi:docname="New document 63">
  <defs
     id="defs14734">
    <clipPath
       clipPathUnits="userSpaceOnUse"
       id="clipPath10572">
      <path
         inkscape:connector-curvature="0"
         d="m 63.125,61.226 513.268,0 0,676.774 -513.268,0 0,-676.774 z"
         id="path10574" />
    </clipPath>
    <clipPath
       clipPathUnits="userSpaceOnUse"
       id="clipPath10560">
      <path
         inkscape:connector-curvature="0"
         d="m 67.241,61.226 505.037,0 0,676.774 -505.037,0 0,-676.774 z"
         id="path10562" />
    </clipPath>
  </defs>
  <sodipodi:namedview
     id="base"
     pagecolor="#ffffff"
     bordercolor="#666666"
     borderopacity="1.0"
     inkscape:pageopacity="0.0"
     inkscape:pageshadow="2"
     inkscape:zoom="0.35"
     inkscape:cx="207.7417"
     inkscape:cy="45.741717"
     inkscape:document-units="px"
     inkscape:current-layer="layer1"
     showgrid="false"
     fit-margin-top="0"
     fit-margin-left="0"
     fit-margin-right="0"
     fit-margin-bottom="0"
     inkscape:window-width="469"
     inkscape:window-height="403"
     inkscape:window-x="464"
     inkscape:window-y="72"
     inkscape:window-maximized="0" />
  <metadata
     id="metadata14737">
    <rdf:RDF>
      <cc:Work
         rdf:about="">
        <dc:format>image/svg+xml</dc:format>
        <dc:type
           rdf:resource="http://purl.org/dc/dcmitype/StillImage" />
        <dc:title></dc:title>
      </cc:Work>
    </rdf:RDF>
  </metadata>
  <g
     inkscape:label="Layer 1"
     inkscape:groupmode="layer"
     id="layer1"
     transform="translate(-167.2583,-469.47765)">
    <g
       transform="matrix(1.25,0,0,-1.25,82.882679,1008.8664)"
       id="g10556">
      <g
         id="g10558"
         clip-path="url(#clipPath10560)">
        <g
           id="g10564"
           transform="translate(67.7505,352.959)">
          <path
             inkscape:connector-curvature="0"
             d="m 0,0 0,70.203 c 0,4.461 3.639,8.099 8.1,8.099 l 113.402,0 c 4.461,0 8.099,-3.638 8.099,-8.099 l 0,-70.203 c 0,-4.46 -3.638,-8.099 -8.099,-8.099 L 8.1,-8.099 C 3.694,-8.099 0,-4.404 0,0"
             style="fill:none;stroke:#231f20;stroke-width:0.5;stroke-linecap:butt;stroke-linejoin:miter;stroke-miterlimit:4;stroke-opacity:1;stroke-dasharray:none"
             id="path10566" />
        </g>
      </g>
    </g>
    <g
       transform="matrix(1.25,0,0,-1.25,82.882679,1008.8664)"
       id="g10568">
      <g
         id="g10570"
         clip-path="url(#clipPath10572)">
        <g
           id="g10576"
           transform="translate(69.7749,352.987)">
          <path
             inkscape:connector-curvature="0"
             d="m 0,0 0,70.148 c 0.015,3.346 2.762,6.08 6.102,6.101 l 113.349,0 c 3.341,-0.021 6.083,-2.755 6.101,-6.101 l 0,-70.148 c -0.018,-3.338 -2.76,-6.09 -6.101,-6.102 l -113.349,0 C 2.762,-6.09 0.015,-3.338 0,0"
             style="fill:#231f20;fill-opacity:1;fill-rule:evenodd;stroke:none"
             id="path10578" />
        </g>
        <g
           id="g10580"
           transform="translate(72.1411,353.016)">
          <path
             inkscape:connector-curvature="0"
             d="m 0,0 0,70.089 c 0.013,2.085 1.681,3.754 3.766,3.766 l 113.289,0 c 2.074,-0.012 3.767,-1.681 3.766,-3.766 l 0,-70.089 c 0.001,-2.082 -1.692,-3.754 -3.766,-3.766 l -113.289,0 C 1.681,-3.754 0.013,-2.082 0,0"
             style="fill:#ffffff;fill-opacity:1;fill-rule:evenodd;stroke:none"
             id="path10582" />
        </g>
        <g
           id="g10584"
           transform="translate(128.31,393.278)">
          <path
             inkscape:connector-curvature="0"
             d="m 0,0 0,3.03 -7.88,0 0,7.121 4.472,0 0,2.953 -4.472,0 0,5.454 7.047,0 0,3.03 -10.153,0 L -10.986,0 0,0 z m -14.623,5.909 c 0,3.105 -1.817,5.453 -5.987,7.877 -1.589,0.91 -2.044,1.515 -2.044,2.576 0,1.438 1.137,2.499 2.575,2.499 1.364,0 2.426,-0.984 2.501,-2.499 l 2.955,0 c -0.075,3.256 -2.426,5.604 -5.456,5.604 -3.107,0 -5.53,-2.499 -5.53,-5.604 0,-1.895 0.909,-3.561 2.651,-4.772 4.395,-2.955 3.183,-2.122 3.639,-2.576 1.286,-0.984 1.741,-1.894 1.741,-3.105 0,-1.743 -1.363,-3.258 -3.032,-3.258 -2.12,0 -3.031,1.894 -3.031,3.713 l -3.03,0 c 0,-3.559 2.275,-6.755 6.061,-6.755 3.337,0 5.987,2.815 5.987,6.3 m -15.609,0.53 0,15.149 -3.106,0 0,-15.528 c 0,-2.046 -1.212,-3.409 -2.88,-3.409 -1.819,0 -3.03,1.363 -3.03,3.409 l 0,15.528 -3.107,0 0,-15.149 c 0,-1.743 0.228,-2.65 0.835,-3.788 1.061,-1.817 3.181,-3.042 5.302,-3.042 2.046,0 4.093,1.301 5.153,3.042 0.606,1.138 0.833,2.045 0.833,3.788"
             style="fill:#231f20;fill-opacity:1;fill-rule:evenodd;stroke:none"
             id="path10586" />
        </g>
        <g
           id="g10588"
           transform="translate(187.9777,361.249)">
          <path
             inkscape:connector-curvature="0"
             d="m 0,0 -3.866,14.166 3.562,7.421 -3.182,0 -3.41,-6.894 0,6.894 -2.728,0 0,-21.587 2.728,0 0,8.105 1.061,2.121 L -2.955,0 0,0 z m -12.577,0 0,2.5 -5.532,0 0,19.087 -2.729,0 0,-21.587 8.261,0 z m -15.912,8.558 -2.351,0 1.213,5.682 1.138,-5.682 z M -23.792,0 l -4.472,21.587 -2.802,0 L -35.461,0 l 2.802,0 1.213,5.757 3.561,0 1.213,-5.757 2.88,0 z m -12.957,21.587 -2.803,0 -1.136,-9.998 -1.744,9.998 -2.348,0 -1.744,-9.998 -1.136,9.998 -2.804,0 2.502,-21.587 2.348,0 1.969,12.121 2.047,-12.121 2.347,0 2.502,21.587 z M -52.13,4.621 c 0,1.515 -0.455,3.334 -1.06,4.695 -0.684,1.365 -1.062,1.894 -3.411,4.545 -1.136,1.213 -1.516,1.971 -1.516,2.955 0,1.439 0.609,2.348 1.668,2.348 0.985,0 1.439,-0.682 1.516,-2.348 l 2.803,0 c -0.304,3.408 -1.744,5.074 -4.394,5.074 -2.577,0 -4.395,-2.121 -4.395,-5.074 0,-1.514 0.531,-3.029 1.743,-4.469 0.226,-0.304 0.908,-1.137 1.892,-2.273 1.668,-1.969 2.351,-3.559 2.351,-5.453 0,-1.364 -0.683,-2.198 -1.742,-2.198 -0.833,0 -1.516,0.532 -1.745,1.364 -0.15,0.455 -0.226,0.756 -0.226,1.589 l -2.804,0 c 0.152,-3.787 1.744,-5.769 4.775,-5.769 1.135,0 2.12,0.393 2.801,0.998 1.062,0.91 1.744,2.5 1.744,4.016 m -11.366,0 c 0,1.515 -0.455,3.334 -1.059,4.695 -0.683,1.365 -1.063,1.894 -3.41,4.545 -1.136,1.213 -1.516,1.971 -1.516,2.955 0,1.439 0.604,2.348 1.666,2.348 0.984,0 1.44,-0.682 1.516,-2.348 l 2.803,0 c -0.303,3.408 -1.742,5.074 -4.394,5.074 -2.575,0 -4.395,-2.121 -4.395,-5.074 0,-1.514 0.529,-3.029 1.742,-4.469 0.229,-0.304 0.911,-1.137 1.895,-2.273 1.667,-1.969 2.349,-3.559 2.349,-5.453 0,-1.364 -0.682,-2.198 -1.745,-2.198 -0.833,0 -1.514,0.532 -1.74,1.364 -0.152,0.455 -0.228,0.756 -0.228,1.589 l -2.804,0 c 0.153,-3.787 1.742,-5.769 4.772,-5.769 1.14,0 2.124,0.393 2.806,0.998 1.061,0.91 1.742,2.5 1.742,4.016 m -14.926,6.211 c 0,-1.44 0.303,-8.409 -2.123,-8.409 -2.5,0 -2.197,6.969 -2.197,8.409 0,1.515 -0.303,8.255 2.197,8.255 2.046,0 2.123,-6.513 2.123,-8.255 m 2.88,0 c 0,3.636 0.302,11.058 -5.003,11.058 -5.303,0 -4.999,-7.347 -4.999,-11.058 0,-3.559 -0.379,-11.225 4.999,-11.225 5.305,0 5.003,7.666 5.003,11.225 m -15.534,4.773 c 0,-2.047 -0.455,-2.729 -1.971,-2.729 l -1.817,0 0,5.911 1.364,0 c 1.893,0 2.424,-0.76 2.424,-3.182 m 2.804,-0.078 c 0,4.016 -1.744,6.06 -5.076,6.06 l -4.244,0 0,-21.587 2.728,0 0,10.074 1.287,0 2.426,-10.074 2.802,0 -2.198,10.755 c 1.593,0.985 2.275,2.35 2.275,4.772 m -13.335,-10.453 -2.806,0 c 0,-1.893 -0.453,-2.651 -1.437,-2.651 -0.91,0 -1.442,0.758 -1.744,2.198 -0.379,1.818 -0.454,3.105 -0.454,6.134 0,2.879 0.075,4.469 0.454,6.213 0.302,1.438 0.834,2.119 1.818,2.119 0.759,0 1.29,-0.453 1.363,-1.363 l 2.806,0 c -0.229,2.651 -1.819,4.166 -4.243,4.166 -2.577,0 -3.864,-1.287 -4.472,-4.619 -0.303,-1.666 -0.531,-4.547 -0.531,-6.516 0,-3.482 0.304,-6.439 0.911,-8.255 0.682,-1.971 2.046,-2.893 4.243,-2.893 1.895,0 3.41,0.998 3.788,2.588 0.227,0.76 0.304,1.213 0.304,2.879"
             style="fill:#231f20;fill-opacity:1;fill-rule:evenodd;stroke:none"
             id="path10590" />
        </g>
        <g
           id="g10592"
           transform="translate(159.394,390.959)">
          <path
             inkscape:connector-curvature="0"
             d="M 0,0 20.066,13.573 0,27.167 c -0.885,0.602 -2.096,0.371 -2.696,-0.513 -0.404,-0.591 -0.331,-1.203 -0.145,-1.93 l 1.769,-5.891 -22.465,0 0,-10.512 22.465,0 -1.729,-5.795 C -3.023,1.725 -3.117,1.133 -2.696,0.514 -2.096,-0.371 -0.885,-0.601 0,0"
             style="fill:#231f20;fill-opacity:1;fill-rule:evenodd;stroke:none"
             id="path10594" />
        </g>
      </g>
    </g>
  </g>
</svg>
