<?xml version="1.0" encoding="UTF-8" standalone="no"?>
<!-- Created with Inkscape (http://www.inkscape.org/) -->

<svg
   xmlns:dc="http://purl.org/dc/elements/1.1/"
   xmlns:cc="http://creativecommons.org/ns#"
   xmlns:rdf="http://www.w3.org/1999/02/22-rdf-syntax-ns#"
   xmlns:svg="http://www.w3.org/2000/svg"
   xmlns="http://www.w3.org/2000/svg"
   xmlns:sodipodi="http://sodipodi.sourceforge.net/DTD/sodipodi-0.dtd"
   xmlns:inkscape="http://www.inkscape.org/namespaces/inkscape"
   width="90.625"
   height="90.625"
   id="svg6822"
   version="1.1"
   inkscape:version="0.48.1 "
   sodipodi:docname="New document 31">
  <defs
     id="defs6824">
    <clipPath
       clipPathUnits="userSpaceOnUse"
       id="clipPath4317">
      <path
         inkscape:connector-curvature="0"
         d="m 63.125,46.835 512.875,0 0,363.415 -512.875,0 0,-363.415 z"
         id="path4319" />
    </clipPath>
  </defs>
  <sodipodi:namedview
     id="base"
     pagecolor="#ffffff"
     bordercolor="#666666"
     borderopacity="1.0"
     inkscape:pageopacity="0.0"
     inkscape:pageshadow="2"
     inkscape:zoom="0.35"
     inkscape:cx="51.74107"
     inkscape:cy="8.1721474"
     inkscape:document-units="px"
     inkscape:current-layer="layer1"
     showgrid="false"
     fit-margin-top="0"
     fit-margin-left="0"
     fit-margin-right="0"
     fit-margin-bottom="0"
     inkscape:window-width="469"
     inkscape:window-height="403"
     inkscape:window-x="50"
     inkscape:window-y="50"
     inkscape:window-maximized="0" />
  <metadata
     id="metadata6827">
    <rdf:RDF>
      <cc:Work
         rdf:about="">
        <dc:format>image/svg+xml</dc:format>
        <dc:type
           rdf:resource="http://purl.org/dc/dcmitype/StillImage" />
        <dc:title></dc:title>
      </cc:Work>
    </rdf:RDF>
  </metadata>
  <g
     inkscape:label="Layer 1"
     inkscape:groupmode="layer"
     id="layer1"
     transform="translate(-323.25893,-449.90933)">
    <g
       id="g4313"
       transform="matrix(1.25,0,0,-1.25,-104.71557,640.40483)">
      <g
         id="g4315"
         clip-path="url(#clipPath4317)">
        <g
           id="g4321"
           transform="translate(347.1296,80.1464)">
          <path
             d="m 0,0 63,0 c 2.449,0.002 4.5,2.049 4.5,4.498 l 0,63.005 c -0.002,2.452 -2.049,4.501 -4.5,4.501 l -63,0 c -2.451,0 -4.5,-2.049 -4.5,-4.501 l 0,-63.005 C -4.5,1.869 -2.442,0.257 0,0"
             style="fill:#ffffff;fill-opacity:1;fill-rule:nonzero;stroke:#231f20;stroke-width:0.5;stroke-linecap:butt;stroke-linejoin:miter;stroke-miterlimit:4;stroke-opacity:1;stroke-dasharray:none"
             id="path4323"
             inkscape:connector-curvature="0" />
        </g>
        <g
           id="g4325"
           transform="translate(343.7656,84.6444)">
          <path
             d="m 0,0 0,63.005 c 0,1.825 1.536,3.362 3.364,3.362 l 63,0 c 1.822,0 3.363,-1.535 3.363,-3.362 L 69.727,0 c -0.002,-1.82 -1.539,-3.362 -3.363,-3.362 l -63,0 C 1.536,-3.36 0,-1.824 0,0"
             style="fill:#231f20;fill-opacity:1;fill-rule:evenodd;stroke:none"
             id="path4327"
             inkscape:connector-curvature="0" />
        </g>
        <g
           id="g4329"
           transform="translate(345.6576,84.6444)">
          <path
             d="m 0,0 c 0,-0.792 0.673,-1.47 1.472,-1.47 l 63,0 c 0.797,0.002 1.466,0.674 1.466,1.47 l 0,63.005 c -0.002,0.797 -0.669,1.468 -1.466,1.468 l -63,0 C 0.675,64.473 0,63.804 0,63.005 L 0,0"
             style="fill:#ffffff;fill-opacity:1;fill-rule:evenodd;stroke:none"
             id="path4331"
             inkscape:connector-curvature="0" />
        </g>
        <g
           id="g4333"
           transform="translate(373.7576,138.6444)">
          <path
             d="m 0,0 c 1.815,0 3.293,-1.479 3.293,-3.293 0,-1.813 -1.478,-3.293 -3.293,-3.293 -1.812,0 -3.292,1.48 -3.292,3.293 C -3.292,-1.479 -1.812,0 0,0"
             style="fill:#231f20;fill-opacity:1;fill-rule:evenodd;stroke:none"
             id="path4335"
             inkscape:connector-curvature="0" />
        </g>
        <g
           id="g4337"
           transform="translate(363.7896,117.8794)">
          <path
             d="m 0,0 6.906,4.607 c 0.321,1.348 1.645,7.34 4.301,8.727 2.631,1.74 12.334,-5.409 12.391,-5.469 l 0,-10.425 -2.104,0.365 -0.822,8.326 c -0.793,0.157 -1.586,0.316 -2.379,0.476 1.733,-4.477 2.369,-8.794 1.37,-11.638 l 4.209,-17.196 -2.835,-2.012 -6.129,15.915 -2.836,-3.017 -3.931,-11.984 -3.75,1.374 3.382,12.62 3.933,7.045 L 10.199,2.913 8.598,0.822 1.098,-1.645 0,0 z"
             style="fill:#231f20;fill-opacity:1;fill-rule:evenodd;stroke:none"
             id="path4339"
             inkscape:connector-curvature="0" />
        </g>
        <g
           id="g4341"
           transform="translate(398.6476,100.4044)">
          <path
             d="m 0,0 c 3.486,4.383 5.478,10.061 5.478,15.741 0,14.046 -11.456,25.503 -25.501,25.503 -5.677,0 -11.354,-1.993 -15.753,-5.474 L 0,0 z m -4.271,-4.293 c -4.395,-3.476 -10.073,-5.469 -15.752,-5.469 -14.044,0 -25.5,11.455 -25.5,25.503 0,5.677 1.993,11.455 5.479,15.838 L -4.271,-4.293 z m -15.752,51.536 c 17.351,0 31.501,-14.151 31.501,-31.502 0,-17.353 -14.15,-31.504 -31.501,-31.504 -17.35,0 -31.499,14.151 -31.499,31.504 0,17.351 14.149,31.502 31.499,31.502"
             style="fill:#bf2519;fill-opacity:1;fill-rule:evenodd;stroke:none"
             id="path4343"
             inkscape:connector-curvature="0" />
        </g>
      </g>
    </g>
  </g>
</svg>
