<?xml version="1.0" encoding="UTF-8" standalone="no"?>
<!-- Created with Inkscape (http://www.inkscape.org/) -->

<svg
   xmlns:dc="http://purl.org/dc/elements/1.1/"
   xmlns:cc="http://creativecommons.org/ns#"
   xmlns:rdf="http://www.w3.org/1999/02/22-rdf-syntax-ns#"
   xmlns:svg="http://www.w3.org/2000/svg"
   xmlns="http://www.w3.org/2000/svg"
   xmlns:sodipodi="http://sodipodi.sourceforge.net/DTD/sodipodi-0.dtd"
   xmlns:inkscape="http://www.inkscape.org/namespaces/inkscape"
   width="86.640625"
   height="86.640625"
   id="svg3864"
   version="1.1"
   inkscape:version="0.48.3.1 r9886"
   sodipodi:docname="New document 8">
  <defs
     id="defs3866">
    <clipPath
       clipPathUnits="userSpaceOnUse"
       id="clipPath3213">
      <path
         inkscape:connector-curvature="0"
         d="m 27,44 513.25,0 0,200.769 -513.25,0 L 27,44 z"
         id="path3215" />
    </clipPath>
  </defs>
  <sodipodi:namedview
     id="base"
     pagecolor="#ffffff"
     bordercolor="#666666"
     borderopacity="1.0"
     inkscape:pageopacity="0.0"
     inkscape:pageshadow="2"
     inkscape:zoom="0.35"
     inkscape:cx="95.469105"
     inkscape:cy="3.3134349"
     inkscape:document-units="px"
     inkscape:current-layer="layer1"
     showgrid="false"
     fit-margin-top="0"
     fit-margin-left="0"
     fit-margin-right="0"
     fit-margin-bottom="0"
     inkscape:window-width="451"
     inkscape:window-height="415"
     inkscape:window-x="150"
     inkscape:window-y="150"
     inkscape:window-maximized="0" />
  <metadata
     id="metadata3869">
    <rdf:RDF>
      <cc:Work
         rdf:about="">
        <dc:format>image/svg+xml</dc:format>
        <dc:type
           rdf:resource="http://purl.org/dc/dcmitype/StillImage" />
        <dc:title></dc:title>
      </cc:Work>
    </rdf:RDF>
  </metadata>
  <g
     inkscape:label="Layer 1"
     inkscape:groupmode="layer"
     id="layer1"
     transform="translate(-279.53089,-449.03499)">
    <g
       id="g3201"
       transform="matrix(1.25,0,0,-1.25,293.51527,535.24593)">
      <path
         inkscape:connector-curvature="0"
         d="M 0,0 -10.833,10.835 12.638,34.307 -10.834,57.78 0,68.614 23.472,45.141 46.946,68.614 57.781,57.78 34.306,34.307 57.779,10.836 46.946,0 23.472,23.473 0,0 z"
         style="fill:#ffffff;fill-opacity:1;fill-rule:nonzero;stroke:none"
         id="path3203" />
    </g>
    <g
       id="g3205"
       transform="matrix(1.25,0,0,-1.25,293.51527,535.24593)">
      <path
         inkscape:connector-curvature="0"
         d="M 0,0 -10.833,10.835 12.638,34.307 -10.834,57.78 0,68.614 23.472,45.141 46.946,68.614 57.781,57.78 34.306,34.307 57.779,10.836 46.946,0 23.472,23.473 0,0 z"
         style="fill:none;stroke:#231f20;stroke-width:0.5;stroke-linecap:butt;stroke-linejoin:miter;stroke-miterlimit:4;stroke-opacity:1;stroke-dasharray:none"
         id="path3207" />
    </g>
    <g
       transform="matrix(1.25,0,0,-1.25,29.334153,726.42456)"
       id="g3209">
      <g
         id="g3211"
         clip-path="url(#clipPath3213)">
        <g
           id="g3217"
           transform="translate(263.1789,212.9741)">
          <path
             inkscape:connector-curvature="0"
             d="m 0,0 -1.323,1.323 -2.251,-2.252 1.045,-1.045 1.206,1.206 0.279,-0.276 c 0.602,-0.604 0.534,-1.51 -0.139,-2.183 -0.394,-0.394 -0.858,-0.534 -1.438,-0.372 -0.628,0.209 -1.441,0.788 -2.138,1.486 -0.557,0.556 -1.066,1.254 -1.298,1.812 -0.35,0.812 -0.233,1.391 0.302,1.926 0.51,0.51 0.996,0.581 1.857,0.279 l 0.603,1.393 C -4.782,3.9 -5.802,3.714 -6.825,2.693 -7.568,1.951 -7.868,1.137 -7.775,0.256 c 0.138,-1.021 0.881,-2.368 1.95,-3.436 0.812,-0.813 1.787,-1.464 2.646,-1.764 1.231,-0.443 2.187,-0.239 3.184,0.761 C 1.212,-2.976 1.21,-1.207 0,0 m -5.844,-9.791 -6.617,6.616 -1.045,-1.044 4.226,-4.226 -6.639,1.811 -1.045,-1.045 6.618,-6.617 1.044,1.046 -4.48,4.48 7.011,-1.951 0.927,0.93 z m -7.956,-7.959 -6.617,6.618 -1.069,-1.068 6.617,-6.616 1.069,1.066 z m -5.962,-2.152 c -2.601,2.6 -4.898,-1.323 -6.222,-0.187 -0.651,0.559 -0.256,1.323 0.256,1.788 0.766,0.719 1.555,0.396 1.555,0.396 l 0.65,1.208 c -1.137,0.486 -2.299,0.394 -3.226,-0.536 -1.185,-1.185 -1.58,-2.551 -0.281,-3.852 1.093,-1.093 2.37,-0.603 2.927,-0.372 1.206,0.511 2.367,1.392 3.249,0.511 0.558,-0.559 0.558,-1.394 -0.047,-1.998 -0.626,-0.626 -1.485,-0.789 -2.39,-0.44 l -0.625,-1.371 c 1.437,-0.557 2.951,-0.397 4.09,0.738 0.555,0.559 0.877,1.259 0.922,1.956 0.048,0.789 -0.253,1.556 -0.858,2.159 m -7.028,-7.031 c -2.602,2.604 -4.9,-1.321 -6.223,-0.182 -0.65,0.556 -0.256,1.321 0.257,1.786 0.766,0.72 1.554,0.395 1.554,0.395 l 0.65,1.207 c -1.138,0.487 -2.299,0.395 -3.227,-0.533 -1.182,-1.185 -1.578,-2.553 -0.278,-3.855 1.091,-1.092 2.367,-0.604 2.925,-0.371 1.207,0.511 2.368,1.393 3.25,0.511 0.558,-0.559 0.557,-1.394 -0.047,-1.998 -0.627,-0.627 -1.486,-0.79 -2.392,-0.441 l -0.625,-1.37 c 1.439,-0.554 2.952,-0.398 4.09,0.741 0.556,0.556 0.878,1.256 0.924,1.953 0.048,0.789 -0.255,1.556 -0.858,2.157 m -9.815,-7.026 c 0.511,-0.511 1.044,-1.278 1.253,-1.766 0.349,-0.811 0.302,-1.369 -0.185,-1.856 -0.418,-0.418 -0.86,-0.533 -1.417,-0.394 -0.674,0.162 -1.533,0.743 -2.228,1.439 -0.558,0.556 -1.068,1.255 -1.302,1.811 -0.347,0.812 -0.277,1.391 0.258,1.879 0.417,0.373 0.811,0.488 1.368,0.348 0.698,-0.184 1.509,-0.719 2.253,-1.461 m 1.045,1.045 c -0.836,0.836 -1.835,1.508 -2.695,1.81 -1.23,0.395 -2.181,0.187 -3.017,-0.649 -0.766,-0.766 -1.067,-1.534 -0.952,-2.437 0.186,-1.07 0.882,-2.321 1.974,-3.414 0.789,-0.791 1.856,-1.489 2.693,-1.765 1.207,-0.417 2.163,-0.215 3.092,0.714 0.696,0.699 0.994,1.469 0.854,2.351 -0.116,1.044 -0.905,2.343 -1.949,3.39 m -10.187,-7.265 c 0.278,-0.274 0.394,-0.715 0.279,-1.111 -0.069,-0.256 -0.163,-0.397 -0.488,-0.719 l -1.253,-1.256 -1.625,1.626 1.253,1.253 c 0.349,0.35 0.466,0.42 0.72,0.489 0.395,0.116 0.835,10e-4 1.114,-0.282 m 5.943,-3.573 -4.248,1.928 c 0.324,0.882 0.047,1.995 -0.65,2.693 -0.673,0.672 -1.788,0.952 -2.648,0.651 -0.485,-0.163 -0.881,-0.465 -1.391,-0.976 l -2.183,-2.183 6.617,-6.618 1.044,1.048 -2.879,2.879 1.254,1.254 3.948,-1.814 1.136,1.138 z m -9.186,-6.495 -1.372,-0.628 c 0.28,-0.788 0.187,-1.344 -0.254,-1.785 -0.464,-0.464 -0.929,-0.603 -1.508,-0.489 -0.674,0.164 -1.558,0.721 -2.278,1.441 -0.555,0.557 -1.044,1.231 -1.275,1.787 -0.348,0.815 -0.232,1.392 0.302,1.926 0.511,0.512 0.859,0.582 1.787,0.395 l 0.556,1.394 c -1.37,0.488 -2.413,0.277 -3.413,-0.72 -0.741,-0.744 -1.044,-1.557 -0.951,-2.437 0.116,-1.044 0.883,-2.368 1.927,-3.412 0.836,-0.836 1.858,-1.489 2.74,-1.766 1.23,-0.395 2.234,-0.145 3.208,0.833 0.952,0.949 1.111,2.092 0.531,3.461"
             style="fill:#231f20;fill-opacity:1;fill-rule:evenodd;stroke:none"
             id="path3219" />
        </g>
        <g
           id="g3221"
           transform="translate(226.0739,189.3843)">
          <path
             inkscape:connector-curvature="0"
             d="M 0,0 0.976,0.974 -2.089,4.041 3.552,9.682 2.508,10.726 -4.109,4.108 0,0 z m -6.767,6.768 6.617,6.617 -1.068,1.067 -6.617,-6.617 1.068,-1.067 z m -2.379,8.23 -1.324,1.321 2.531,1.187 -1.207,-2.508 z m -0.79,-5.06 4.342,8.89 -1.044,1.045 -8.892,-4.343 1.113,-1.114 2.508,1.208 2.066,-2.065 -1.208,-2.508 1.115,-1.113 z m -3.633,13.149 c -0.277,-0.277 -0.72,-0.394 -1.114,-0.278 -0.256,0.07 -0.395,0.162 -0.72,0.488 l -1.254,1.253 1.626,1.625 1.253,-1.253 c 0.35,-0.348 0.418,-0.464 0.488,-0.719 0.115,-0.395 0,-0.837 -0.279,-1.116 m -3.575,-5.942 1.927,4.248 c 0.881,-0.324 1.997,-0.046 2.693,0.65 0.674,0.674 0.952,1.787 0.65,2.647 -0.163,0.488 -0.464,0.882 -0.975,1.393 l -2.183,2.182 -6.616,-6.617 1.045,-1.045 2.879,2.879 1.254,-1.252 -1.812,-3.948 1.138,-1.137 z"
             style="fill:#231f20;fill-opacity:1;fill-rule:evenodd;stroke:none"
             id="path3223" />
        </g>
        <g
           id="g3225"
           transform="translate(260.9789,161.1206)">
          <path
             inkscape:connector-curvature="0"
             d="M 0,0 C -0.883,-0.883 -1.812,-1.395 -2.601,-1.393 -2.974,-1.396 -3.249,-1.255 -3.6,-0.908 L -4.644,0.139 -0.14,4.643 1.043,3.458 C 1.323,3.182 1.438,2.832 1.439,2.507 1.416,1.833 0.881,0.882 0,0 m 1.068,-1.068 c 1.299,1.3 1.949,2.739 1.856,4.04 C 2.855,3.598 2.67,3.923 1.997,4.598 l -2.138,2.134 -6.615,-6.618 2.019,-2.018 c 0.162,-0.162 0.302,-0.302 0.372,-0.374 0.371,-0.322 0.836,-0.556 1.324,-0.576 1.322,-0.164 2.786,0.462 4.109,1.786 M -6.864,6.073 -8.187,7.398 -5.658,8.58 -6.864,6.073 z m -0.79,-5.06 4.342,8.89 -1.045,1.046 -8.892,-4.342 1.115,-1.115 2.506,1.209 2.067,-2.067 -1.207,-2.507 1.114,-1.114 z m -4.1,10.693 c -0.511,-0.51 -1.277,-1.045 -1.765,-1.251 -0.812,-0.348 -1.37,-0.304 -1.857,0.186 -0.417,0.415 -0.534,0.857 -0.395,1.413 0.163,0.674 0.743,1.533 1.44,2.23 0.557,0.557 1.253,1.068 1.81,1.298 0.814,0.352 1.395,0.279 1.881,-0.254 0.372,-0.418 0.487,-0.81 0.349,-1.371 -0.187,-0.695 -0.72,-1.508 -1.463,-2.251 m 1.046,-1.044 c 0.834,0.835 1.507,1.835 1.81,2.691 0.395,1.232 0.186,2.185 -0.65,3.02 -0.767,0.767 -1.534,1.067 -2.438,0.951 -1.069,-0.184 -2.322,-0.882 -3.414,-1.971 -0.79,-0.79 -1.484,-1.858 -1.764,-2.694 -0.417,-1.208 -0.213,-2.164 0.716,-3.092 0.696,-0.696 1.467,-0.997 2.35,-0.855 1.044,0.117 2.344,0.906 3.39,1.95 m -5.264,8.186 c -0.277,-0.277 -0.719,-0.395 -1.114,-0.277 -0.256,0.068 -0.396,0.161 -0.719,0.486 l -1.254,1.254 1.625,1.626 1.255,-1.254 c 0.347,-0.348 0.417,-0.464 0.486,-0.718 0.115,-0.396 0,-0.838 -0.279,-1.117 m -3.574,-5.944 1.926,4.25 c 0.884,-0.326 1.996,-0.045 2.694,0.65 0.673,0.675 0.951,1.788 0.65,2.647 -0.162,0.487 -0.466,0.882 -0.974,1.393 l -2.182,2.182 -6.618,-6.617 1.046,-1.043 2.878,2.878 1.254,-1.254 -1.811,-3.949 1.137,-1.137 z"
             style="fill:#231f20;fill-opacity:1;fill-rule:evenodd;stroke:none"
             id="path3227" />
        </g>
      </g>
    </g>
  </g>
</svg>
