<?xml version="1.0" encoding="UTF-8" standalone="no"?>
<!-- Created with Inkscape (http://www.inkscape.org/) -->

<svg
   xmlns:dc="http://purl.org/dc/elements/1.1/"
   xmlns:cc="http://creativecommons.org/ns#"
   xmlns:rdf="http://www.w3.org/1999/02/22-rdf-syntax-ns#"
   xmlns:svg="http://www.w3.org/2000/svg"
   xmlns="http://www.w3.org/2000/svg"
   xmlns:sodipodi="http://sodipodi.sourceforge.net/DTD/sodipodi-0.dtd"
   xmlns:inkscape="http://www.inkscape.org/namespaces/inkscape"
   width="86.747498"
   height="86.748123"
   id="svg4399"
   version="1.1"
   inkscape:version="0.48.3.1 r9886"
   sodipodi:docname="New document 16">
  <defs
     id="defs4401" />
  <sodipodi:namedview
     id="base"
     pagecolor="#ffffff"
     bordercolor="#666666"
     borderopacity="1.0"
     inkscape:pageopacity="0.0"
     inkscape:pageshadow="2"
     inkscape:zoom="0.35"
     inkscape:cx="43.373747"
     inkscape:cy="43.374065"
     inkscape:document-units="px"
     inkscape:current-layer="layer1"
     showgrid="false"
     fit-margin-top="0"
     fit-margin-left="0"
     fit-margin-right="0"
     fit-margin-bottom="0"
     inkscape:window-width="451"
     inkscape:window-height="415"
     inkscape:window-x="175"
     inkscape:window-y="175"
     inkscape:window-maximized="0" />
  <metadata
     id="metadata4404">
    <rdf:RDF>
      <cc:Work
         rdf:about="">
        <dc:format>image/svg+xml</dc:format>
        <dc:type
           rdf:resource="http://purl.org/dc/dcmitype/StillImage" />
        <dc:title></dc:title>
      </cc:Work>
    </rdf:RDF>
  </metadata>
  <g
     inkscape:label="Layer 1"
     inkscape:groupmode="layer"
     id="layer1"
     transform="translate(-331.62625,-488.98812)">
    <g
       id="g3453"
       transform="matrix(1.25,0,0,-1.25,332.86844,529.35281)">
      <path
         d="m 0,0 31.297,31.298 c 1.326,1.325 3.492,1.325 4.816,0 L 67.412,0 c 1.323,-1.324 1.323,-3.491 0,-4.815 L 36.113,-36.113 c -1.324,-1.325 -3.49,-1.325 -4.816,0 L 0,-4.815 C -1.325,-3.491 -1.325,-1.324 0,0"
         style="fill:#fccf34;fill-opacity:1;fill-rule:nonzero;stroke:none"
         id="path3455"
         inkscape:connector-curvature="0" />
    </g>
    <g
       id="g3461"
       transform="matrix(1.25,0,0,-1.25,333.80956,529.97407)">
      <path
         d="m 0,0 31.042,31.04 c 1.052,1.051 2.771,1.051 3.82,0 L 65.903,0 c 1.051,-1.051 1.051,-2.77 0,-3.82 L 34.862,-34.861 c -1.049,-1.05 -2.768,-1.05 -3.82,0 L 0,-3.82 C -1.05,-2.77 -1.05,-1.051 0,0"
         style="fill:#231f20;fill-opacity:1;fill-rule:evenodd;stroke:none"
         id="path3463"
         inkscape:connector-curvature="0" />
    </g>
    <g
       id="g3465"
       transform="matrix(1.25,0,0,-1.25,335.02369,531.16919)">
      <path
         d="m 0,0 31.026,31.026 c 0.525,0.525 1.385,0.525 1.91,0 L 63.961,0 c 0.526,-0.525 0.526,-1.384 0,-1.909 L 32.936,-32.936 c -0.525,-0.525 -1.385,-0.525 -1.91,0 L 0,-1.909 C -0.525,-1.384 -0.525,-0.525 0,0"
         style="fill:#fccf34;fill-opacity:1;fill-rule:evenodd;stroke:none"
         id="path3467"
         inkscape:connector-curvature="0" />
    </g>
    <g
       id="g3469"
       transform="matrix(1.25,0,0,-1.25,359.04519,511.07531)">
      <path
         d="m 0,0 8.513,0 0,-12.768 8.51,0 0,-8.512 -8.51,0 0,-12.768 -8.513,0 L 0,0 z"
         style="fill:#231f20;fill-opacity:1;fill-rule:evenodd;stroke:none"
         id="path3471"
         inkscape:connector-curvature="0" />
    </g>
    <path
       d="m 396.24506,527.03519 10.6375,0 0,10.64 -10.6375,0 0,-10.64 z"
       style="fill:#231f20;fill-opacity:1;fill-rule:evenodd;stroke:none"
       id="path3473"
       inkscape:connector-curvature="0" />
    <g
       id="g3475"
       transform="matrix(1.25,0,0,-1.25,381.82831,513.88157)">
      <path
         d="m 0,0 2.285,0 0,2.217 1.11,0 0,-2.217 3.376,0 0,2.217 1.133,0 L 7.901,0 l 2.291,0 0.002,-2.282 -2.29,0 -0.003,-2.294 2.291,0 0,-2.276 -2.288,0 0,-2.225 2.288,0 0.002,-2.287 -2.29,0 -0.003,-2.285 2.293,0 0,-2.293 -2.293,0 0,-2.26 2.291,-0.007 0.002,-2.252 -2.293,0 0,-2.295 2.293,0 0,-2.259 -2.293,0 0,-2.259 2.291,-0.005 0,-2.265 -2.288,0 -0.003,-2.284 -1.103,-0.004 -0.027,2.297 -3.382,0 0,-2.293 -1.104,-0.004 0.008,2.297 -2.293,-0.009 0,2.265 2.285,0 0.008,2.264 -2.295,0 0.002,2.254 2.285,0 0.008,2.3 -2.295,0 0.002,2.252 2.285,0 0.008,2.267 -2.295,0 0,2.293 2.295,0 -0.008,2.285 -2.285,0 0,2.287 2.285,0 0,2.225 -2.285,0 0,2.276 2.285,0 0,2.294 L 0,-2.282 0,0 z"
         style="fill:#231f20;fill-opacity:1;fill-rule:evenodd;stroke:none"
         id="path3477"
         inkscape:connector-curvature="0" />
    </g>
    <path
       d="m 386.06381,516.73394 4.2475,0 0,2.88 -4.2475,0 0,-2.88 z"
       style="fill:#fccf34;fill-opacity:1;fill-rule:evenodd;stroke:none"
       id="path3479"
       inkscape:connector-curvature="0" />
    <path
       d="m 386.06381,522.44644 4.2475,0 0,2.78125 -4.2475,0 0,-2.78125 z"
       style="fill:#fccf34;fill-opacity:1;fill-rule:evenodd;stroke:none"
       id="path3481"
       inkscape:connector-curvature="0" />
    <path
       d="m 386.06381,528.08644 4.2475,0 0,2.85625 -4.2475,0 0,-2.85625 z"
       style="fill:#fccf34;fill-opacity:1;fill-rule:evenodd;stroke:none"
       id="path3483"
       inkscape:connector-curvature="0" />
    <path
       d="m 386.06381,533.80894 4.2475,0 0,2.825 -4.2475,0 0,-2.825 z"
       style="fill:#fccf34;fill-opacity:1;fill-rule:evenodd;stroke:none"
       id="path3485"
       inkscape:connector-curvature="0" />
    <path
       d="m 386.06381,539.45769 4.2475,0 0,2.86875 -4.2475,0 0,-2.86875 z"
       style="fill:#fccf34;fill-opacity:1;fill-rule:evenodd;stroke:none"
       id="path3487"
       inkscape:connector-curvature="0" />
    <path
       d="m 386.06381,545.15019 4.2475,0 0,2.82375 -4.2475,0 0,-2.82375 z"
       style="fill:#fccf34;fill-opacity:1;fill-rule:evenodd;stroke:none"
       id="path3489"
       inkscape:connector-curvature="0" />
  </g>
</svg>
