<?xml version="1.0" encoding="UTF-8" standalone="no"?>
<!-- Created with Inkscape (http://www.inkscape.org/) -->

<svg
   xmlns:dc="http://purl.org/dc/elements/1.1/"
   xmlns:cc="http://creativecommons.org/ns#"
   xmlns:rdf="http://www.w3.org/1999/02/22-rdf-syntax-ns#"
   xmlns:svg="http://www.w3.org/2000/svg"
   xmlns="http://www.w3.org/2000/svg"
   xmlns:sodipodi="http://sodipodi.sourceforge.net/DTD/sodipodi-0.dtd"
   xmlns:inkscape="http://www.inkscape.org/namespaces/inkscape"
   width="84.346878"
   height="84.34594"
   id="svg4321"
   version="1.1"
   inkscape:version="0.48.3.1 r9886"
   sodipodi:docname="New document 14">
  <defs
     id="defs4323">
    <clipPath
       clipPathUnits="userSpaceOnUse"
       id="clipPath3371">
      <path
         inkscape:connector-curvature="0"
         d="m 27,44 513.25,0 0,200.769 -513.25,0 L 27,44 z"
         id="path3373" />
    </clipPath>
  </defs>
  <sodipodi:namedview
     id="base"
     pagecolor="#ffffff"
     bordercolor="#666666"
     borderopacity="1.0"
     inkscape:pageopacity="0.0"
     inkscape:pageshadow="2"
     inkscape:zoom="0.35"
     inkscape:cx="42.173437"
     inkscape:cy="42.172967"
     inkscape:document-units="px"
     inkscape:current-layer="layer1"
     showgrid="false"
     fit-margin-top="0"
     fit-margin-left="0"
     fit-margin-right="0"
     fit-margin-bottom="0"
     inkscape:window-width="451"
     inkscape:window-height="415"
     inkscape:window-x="125"
     inkscape:window-y="125"
     inkscape:window-maximized="0" />
  <metadata
     id="metadata4326">
    <rdf:RDF>
      <cc:Work
         rdf:about="">
        <dc:format>image/svg+xml</dc:format>
        <dc:type
           rdf:resource="http://purl.org/dc/dcmitype/StillImage" />
        <dc:title></dc:title>
      </cc:Work>
    </rdf:RDF>
  </metadata>
  <g
     inkscape:label="Layer 1"
     inkscape:groupmode="layer"
     id="layer1"
     transform="translate(-332.82656,-490.18921)">
    <g
       transform="matrix(1.25,0,0,-1.25,-251.1555,766.7854)"
       id="g3367">
      <g
         id="g3369"
         clip-path="url(#clipPath3371)">
        <g
           id="g3375"
           transform="translate(467.9739,189.4487)">
          <path
             inkscape:connector-curvature="0"
             d="m 0,0 31.041,31.04 c 1.05,1.051 2.769,1.051 3.821,0 L 65.901,0 c 1.051,-1.051 1.051,-2.77 0,-3.82 L 34.862,-34.861 c -1.052,-1.05 -2.771,-1.05 -3.821,0 L 0,-3.82 C -1.051,-2.77 -1.051,-1.051 0,0"
             style="fill:#231f20;fill-opacity:1;fill-rule:evenodd;stroke:none"
             id="path3377" />
        </g>
        <g
           id="g3379"
           transform="translate(468.9419,188.4927)">
          <path
             inkscape:connector-curvature="0"
             d="m 0,0 31.029,31.026 c 0.523,0.525 1.384,0.525 1.909,0 L 63.963,0 c 0.526,-0.525 0.526,-1.384 0,-1.909 L 32.938,-32.936 c -0.525,-0.525 -1.386,-0.525 -1.909,0 L 0,-1.909 C -0.522,-1.384 -0.522,-0.525 0,0"
             style="fill:#fccf34;fill-opacity:1;fill-rule:evenodd;stroke:none"
             id="path3381" />
        </g>
        <g
           id="g3383"
           transform="translate(475.429,183.2876)">
          <path
             inkscape:connector-curvature="0"
             d="m 0,0 0,8.512 12.732,0 0,12.768 8.512,0 0,-12.768 8.513,0 0,-8.512 -8.513,0 0,-12.768 -8.512,0 L 12.732,0 0,0 z"
             style="fill:#231f20;fill-opacity:1;fill-rule:evenodd;stroke:none"
             id="path3385" />
        </g>
        <path
           inkscape:connector-curvature="0"
           d="m 517.919,191.8 8.513,0 0,-8.512 -8.513,0 0,8.512 z"
           style="fill:#231f20;fill-opacity:1;fill-rule:evenodd;stroke:none"
           id="path3387" />
        <g
           id="g3389"
           transform="translate(506.3869,202.3228)">
          <path
             inkscape:connector-curvature="0"
             d="m 0,0 2.287,0 0,2.217 1.108,0 0,-2.217 3.375,0 0,2.217 1.136,0 L 7.903,0 l 2.291,0 10e-4,-2.282 -2.289,0 -0.003,-2.294 2.291,0 0,-2.276 -2.288,0 0,-2.225 2.288,0 10e-4,-2.287 -2.289,0 -0.003,-2.284 2.292,0 0,-2.294 -2.292,0 0,-2.26 2.291,-0.007 10e-4,-2.253 -2.292,0 0,-2.294 2.292,0 0,-2.259 -2.292,0 0,-2.259 2.291,-0.005 0,-2.265 -2.288,0 -0.003,-2.284 -1.105,-0.004 -0.028,2.297 -3.381,0 0,-2.293 -1.102,-0.004 0.007,2.297 -2.294,-0.009 0,2.265 2.287,0 0.007,2.264 -2.294,0 0,2.254 2.287,0 0.007,2.299 -2.294,0 0,2.253 2.287,0 0.007,2.267 -2.294,0 0,2.294 2.294,0 -0.007,2.284 -2.287,0 0,2.287 2.287,0 0,2.225 -2.287,0 0,2.276 2.287,0 0,2.294 L 0,-2.282 0,0 z"
             style="fill:#231f20;fill-opacity:1;fill-rule:evenodd;stroke:none"
             id="path3391" />
        </g>
        <path
           inkscape:connector-curvature="0"
           d="m 509.776,200.041 3.399,0 0,-2.305 -3.399,0 0,2.305 z"
           style="fill:#fccf34;fill-opacity:1;fill-rule:evenodd;stroke:none"
           id="path3393" />
        <path
           inkscape:connector-curvature="0"
           d="m 509.776,195.471 3.399,0 0,-2.226 -3.399,0 0,2.226 z"
           style="fill:#fccf34;fill-opacity:1;fill-rule:evenodd;stroke:none"
           id="path3395" />
        <path
           inkscape:connector-curvature="0"
           d="m 509.776,190.959 3.399,0 0,-2.285 -3.399,0 0,2.285 z"
           style="fill:#fccf34;fill-opacity:1;fill-rule:evenodd;stroke:none"
           id="path3397" />
        <path
           inkscape:connector-curvature="0"
           d="m 509.776,186.38 3.399,0 0,-2.26 -3.399,0 0,2.26 z"
           style="fill:#fccf34;fill-opacity:1;fill-rule:evenodd;stroke:none"
           id="path3399" />
        <path
           inkscape:connector-curvature="0"
           d="m 509.776,181.861 3.399,0 0,-2.294 -3.399,0 0,2.294 z"
           style="fill:#fccf34;fill-opacity:1;fill-rule:evenodd;stroke:none"
           id="path3401" />
        <path
           inkscape:connector-curvature="0"
           d="m 509.776,177.308 3.399,0 0,-2.259 -3.399,0 0,2.259 z"
           style="fill:#fccf34;fill-opacity:1;fill-rule:evenodd;stroke:none"
           id="path3403" />
      </g>
    </g>
  </g>
</svg>
