<?xml version="1.0" encoding="UTF-8" standalone="no"?>
<!-- Created with Inkscape (http://www.inkscape.org/) -->

<svg
   xmlns:dc="http://purl.org/dc/elements/1.1/"
   xmlns:cc="http://creativecommons.org/ns#"
   xmlns:rdf="http://www.w3.org/1999/02/22-rdf-syntax-ns#"
   xmlns:svg="http://www.w3.org/2000/svg"
   xmlns="http://www.w3.org/2000/svg"
   xmlns:sodipodi="http://sodipodi.sourceforge.net/DTD/sodipodi-0.dtd"
   xmlns:inkscape="http://www.inkscape.org/namespaces/inkscape"
   width="87.34967"
   height="87.387421"
   id="svg4620"
   version="1.1"
   inkscape:version="0.48.3.1 r9886"
   sodipodi:docname="New document 22">
  <defs
     id="defs4622" />
  <sodipodi:namedview
     id="base"
     pagecolor="#ffffff"
     bordercolor="#666666"
     borderopacity="1.0"
     inkscape:pageopacity="0.0"
     inkscape:pageshadow="2"
     inkscape:zoom="0.35"
     inkscape:cx="43.672633"
     inkscape:cy="43.69078"
     inkscape:document-units="px"
     inkscape:current-layer="layer1"
     showgrid="false"
     fit-margin-top="0"
     fit-margin-left="0"
     fit-margin-right="0"
     fit-margin-bottom="0"
     inkscape:window-width="451"
     inkscape:window-height="415"
     inkscape:window-x="125"
     inkscape:window-y="125"
     inkscape:window-maximized="0" />
  <metadata
     id="metadata4625">
    <rdf:RDF>
      <cc:Work
         rdf:about="">
        <dc:format>image/svg+xml</dc:format>
        <dc:type
           rdf:resource="http://purl.org/dc/dcmitype/StillImage" />
        <dc:title></dc:title>
      </cc:Work>
    </rdf:RDF>
  </metadata>
  <g
     inkscape:label="Layer 1"
     inkscape:groupmode="layer"
     id="layer1"
     transform="translate(-331.32737,-488.66555)">
    <g
       id="g3569"
       transform="matrix(1.25,0,0,-1.25,378.00953,490.23265)">
      <path
         d="m 0,0 31.297,-31.296 c 1.324,-1.325 1.324,-3.491 0,-4.815 L 0,-67.408 c -1.324,-1.324 -3.492,-1.324 -4.815,0 l -31.298,31.297 c -1.323,1.324 -1.323,3.49 0,4.815 L -4.815,0 C -3.492,1.325 -1.324,1.325 0,0"
         style="fill:#fccf34;fill-opacity:1;fill-rule:nonzero;stroke:none"
         id="path3571"
         inkscape:connector-curvature="0" />
    </g>
    <g
       id="g3573"
       transform="matrix(1.25,0,0,-1.25,378.00953,490.23265)">
      <path
         d="m 0,0 31.297,-31.296 c 1.324,-1.325 1.324,-3.491 0,-4.815 L 0,-67.408 c -1.324,-1.324 -3.492,-1.324 -4.815,0 l -31.298,31.297 c -1.323,1.324 -1.323,3.49 0,4.815 L -4.815,0 C -3.492,1.325 -1.324,1.325 0,0 z"
         style="fill:none;stroke:#231f20;stroke-width:0.5;stroke-linecap:butt;stroke-linejoin:miter;stroke-miterlimit:4;stroke-opacity:1;stroke-dasharray:none"
         id="path3575"
         inkscape:connector-curvature="0" />
    </g>
    <g
       id="g3577"
       transform="matrix(1.25,0,0,-1.25,377.38841,491.17515)">
      <path
         d="m 0,0 31.039,-31.041 c 1.05,-1.05 1.05,-2.769 0,-3.818 L 0,-65.898 c -1.052,-1.051 -2.77,-1.051 -3.821,0 l -31.04,31.039 c -1.05,1.049 -1.05,2.768 0,3.818 L -3.821,0 C -2.77,1.05 -1.052,1.05 0,0"
         style="fill:#231f20;fill-opacity:1;fill-rule:evenodd;stroke:none"
         id="path3579"
         inkscape:connector-curvature="0" />
    </g>
    <g
       id="g3581"
       transform="matrix(1.25,0,0,-1.25,376.19329,492.3889)">
      <path
         d="m 0,0 31.025,-31.025 c 0.526,-0.523 0.526,-1.382 0,-1.908 L 0,-63.958 c -0.525,-0.526 -1.385,-0.526 -1.909,0 l -31.026,31.025 c -0.524,0.526 -0.524,1.385 0,1.908 L -1.909,0 C -1.385,0.526 -0.525,0.526 0,0"
         style="fill:#fccf34;fill-opacity:1;fill-rule:evenodd;stroke:none"
         id="path3583"
         inkscape:connector-curvature="0" />
    </g>
    <g
       id="g3585"
       transform="matrix(1.25,0,0,-1.25,396.28578,516.40902)">
      <path
         d="m 0,0 0,-8.512 -12.767,0 0,-8.511 -8.512,0 0,8.511 -12.767,0 0,8.512 L 0,0 z"
         style="fill:#231f20;fill-opacity:1;fill-rule:evenodd;stroke:none"
         id="path3587"
         inkscape:connector-curvature="0" />
    </g>
    <path
       d="m 380.32716,564.24377 -10.64,0 0,-10.64 10.64,0 0,10.64 z"
       style="fill:#231f20;fill-opacity:1;fill-rule:evenodd;stroke:none"
       id="path3589"
       inkscape:connector-curvature="0" />
    <g
       id="g3591"
       transform="matrix(1.25,0,0,-1.25,393.47953,539.19027)">
      <path
         d="m 0,0 0,-2.287 2.217,0 0,-1.109 -2.217,0 0,-3.375 2.217,0 0,-1.135 -2.217,0.004 0,-2.291 -2.281,-0.002 0,2.289 -2.294,0.004 0,-2.291 -2.275,0 0,2.287 -2.226,0 0,-2.287 -2.287,-0.002 0,2.289 -2.284,0.004 0,-2.293 -2.294,0 0,2.293 -2.26,0 -0.007,-2.291 -2.253,-0.002 0,2.293 -2.294,0 0,-2.293 -2.259,0 0,2.293 -2.26,0 -0.004,-2.291 -2.266,0 0,2.287 -2.283,0.004 -0.002,1.106 2.297,0.025 0,3.381 -2.295,0 -0.002,1.103 2.297,-0.008 -0.012,2.295 2.266,0 0,-2.287 2.264,-0.008 0,2.295 2.255,0 0,-2.287 2.298,-0.008 0,2.295 2.253,0 0,-2.287 2.267,-0.008 0,2.295 2.294,0 0,-2.295 2.284,0.008 0,2.287 2.287,0 0,-2.287 2.226,0 0,2.287 2.275,0 0,-2.287 2.294,0 0,2.287 L 0,0 z"
         style="fill:#231f20;fill-opacity:1;fill-rule:evenodd;stroke:none"
         id="path3593"
         inkscape:connector-curvature="0" />
    </g>
    <path
       d="m 390.62841,547.67377 -2.8825,0 0,-4.24625 2.8825,0 0,4.24625 z"
       style="fill:#fccf34;fill-opacity:1;fill-rule:evenodd;stroke:none"
       id="path3595"
       inkscape:connector-curvature="0" />
    <path
       d="m 384.91716,547.67377 -2.7825,0 0,-4.24625 2.7825,0 0,4.24625 z"
       style="fill:#fccf34;fill-opacity:1;fill-rule:evenodd;stroke:none"
       id="path3597"
       inkscape:connector-curvature="0" />
    <path
       d="m 379.27591,547.67377 -2.855,0 0,-4.24625 2.855,0 0,4.24625 z"
       style="fill:#fccf34;fill-opacity:1;fill-rule:evenodd;stroke:none"
       id="path3599"
       inkscape:connector-curvature="0" />
    <path
       d="m 373.55341,547.67377 -2.825,0 0,-4.24625 2.825,0 0,4.24625 z"
       style="fill:#fccf34;fill-opacity:1;fill-rule:evenodd;stroke:none"
       id="path3601"
       inkscape:connector-curvature="0" />
    <path
       d="m 367.90341,547.67377 -2.8675,0 0,-4.24625 2.8675,0 0,4.24625 z"
       style="fill:#fccf34;fill-opacity:1;fill-rule:evenodd;stroke:none"
       id="path3603"
       inkscape:connector-curvature="0" />
    <path
       d="m 362.21216,547.67377 -2.825,0 0,-4.24625 2.825,0 0,4.24625 z"
       style="fill:#fccf34;fill-opacity:1;fill-rule:evenodd;stroke:none"
       id="path3605"
       inkscape:connector-curvature="0" />
    <g
       transform="matrix(1.25,0,0,-1.25,378.00953,490.23265)"
       id="g4671">
      <path
         inkscape:connector-curvature="0"
         id="path4673"
         style="fill:#fccf34;fill-opacity:1;fill-rule:nonzero;stroke:none"
         d="m 0,0 31.297,-31.296 c 1.324,-1.325 1.324,-3.491 0,-4.815 L 0,-67.408 c -1.324,-1.324 -3.492,-1.324 -4.815,0 l -31.298,31.297 c -1.323,1.324 -1.323,3.49 0,4.815 L -4.815,0 C -3.492,1.325 -1.324,1.325 0,0" />
    </g>
    <g
       transform="matrix(1.25,0,0,-1.25,378.00953,490.23265)"
       id="g4675">
      <path
         inkscape:connector-curvature="0"
         id="path4677"
         style="fill:none;stroke:#231f20;stroke-width:0.5;stroke-linecap:butt;stroke-linejoin:miter;stroke-miterlimit:4;stroke-opacity:1;stroke-dasharray:none"
         d="m 0,0 31.297,-31.296 c 1.324,-1.325 1.324,-3.491 0,-4.815 L 0,-67.408 c -1.324,-1.324 -3.492,-1.324 -4.815,0 l -31.298,31.297 c -1.323,1.324 -1.323,3.49 0,4.815 L -4.815,0 C -3.492,1.325 -1.324,1.325 0,0 z" />
    </g>
    <g
       transform="matrix(1.25,0,0,-1.25,377.38841,491.17515)"
       id="g4679">
      <path
         inkscape:connector-curvature="0"
         id="path4681"
         style="fill:#231f20;fill-opacity:1;fill-rule:evenodd;stroke:none"
         d="m 0,0 31.039,-31.041 c 1.05,-1.05 1.05,-2.769 0,-3.818 L 0,-65.898 c -1.052,-1.051 -2.77,-1.051 -3.821,0 l -31.04,31.039 c -1.05,1.049 -1.05,2.768 0,3.818 L -3.821,0 C -2.77,1.05 -1.052,1.05 0,0" />
    </g>
    <g
       transform="matrix(1.25,0,0,-1.25,376.19329,492.3889)"
       id="g4683">
      <path
         inkscape:connector-curvature="0"
         id="path4685"
         style="fill:#fccf34;fill-opacity:1;fill-rule:evenodd;stroke:none"
         d="m 0,0 31.025,-31.025 c 0.526,-0.523 0.526,-1.382 0,-1.908 L 0,-63.958 c -0.525,-0.526 -1.385,-0.526 -1.909,0 l -31.026,31.025 c -0.524,0.526 -0.524,1.385 0,1.908 L -1.909,0 C -1.385,0.526 -0.525,0.526 0,0" />
    </g>
    <g
       transform="matrix(1.25,0,0,-1.25,396.28578,516.40902)"
       id="g4687">
      <path
         inkscape:connector-curvature="0"
         id="path4689"
         style="fill:#231f20;fill-opacity:1;fill-rule:evenodd;stroke:none"
         d="m 0,0 0,-8.512 -12.767,0 0,-8.511 -8.512,0 0,8.511 -12.767,0 0,8.512 L 0,0 z" />
    </g>
    <path
       inkscape:connector-curvature="0"
       id="path4691"
       style="fill:#231f20;fill-opacity:1;fill-rule:evenodd;stroke:none"
       d="m 380.32716,564.24377 -10.64,0 0,-10.64 10.64,0 0,10.64 z" />
    <g
       transform="matrix(1.25,0,0,-1.25,393.47953,539.19027)"
       id="g4693">
      <path
         inkscape:connector-curvature="0"
         id="path4695"
         style="fill:#231f20;fill-opacity:1;fill-rule:evenodd;stroke:none"
         d="m 0,0 0,-2.287 2.217,0 0,-1.109 -2.217,0 0,-3.375 2.217,0 0,-1.135 -2.217,0.004 0,-2.291 -2.281,-0.002 0,2.289 -2.294,0.004 0,-2.291 -2.275,0 0,2.287 -2.226,0 0,-2.287 -2.287,-0.002 0,2.289 -2.284,0.004 0,-2.293 -2.294,0 0,2.293 -2.26,0 -0.007,-2.291 -2.253,-0.002 0,2.293 -2.294,0 0,-2.293 -2.259,0 0,2.293 -2.26,0 -0.004,-2.291 -2.266,0 0,2.287 -2.283,0.004 -0.002,1.106 2.297,0.025 0,3.381 -2.295,0 -0.002,1.103 2.297,-0.008 -0.012,2.295 2.266,0 0,-2.287 2.264,-0.008 0,2.295 2.255,0 0,-2.287 2.298,-0.008 0,2.295 2.253,0 0,-2.287 2.267,-0.008 0,2.295 2.294,0 0,-2.295 2.284,0.008 0,2.287 2.287,0 0,-2.287 2.226,0 0,2.287 2.275,0 0,-2.287 2.294,0 0,2.287 L 0,0 z" />
    </g>
    <path
       inkscape:connector-curvature="0"
       id="path4697"
       style="fill:#fccf34;fill-opacity:1;fill-rule:evenodd;stroke:none"
       d="m 390.62841,547.67377 -2.8825,0 0,-4.24625 2.8825,0 0,4.24625 z" />
    <path
       inkscape:connector-curvature="0"
       id="path4699"
       style="fill:#fccf34;fill-opacity:1;fill-rule:evenodd;stroke:none"
       d="m 384.91716,547.67377 -2.7825,0 0,-4.24625 2.7825,0 0,4.24625 z" />
    <path
       inkscape:connector-curvature="0"
       id="path4701"
       style="fill:#fccf34;fill-opacity:1;fill-rule:evenodd;stroke:none"
       d="m 379.27591,547.67377 -2.855,0 0,-4.24625 2.855,0 0,4.24625 z" />
    <path
       inkscape:connector-curvature="0"
       id="path4703"
       style="fill:#fccf34;fill-opacity:1;fill-rule:evenodd;stroke:none"
       d="m 373.55341,547.67377 -2.825,0 0,-4.24625 2.825,0 0,4.24625 z" />
    <path
       inkscape:connector-curvature="0"
       id="path4705"
       style="fill:#fccf34;fill-opacity:1;fill-rule:evenodd;stroke:none"
       d="m 367.90341,547.67377 -2.8675,0 0,-4.24625 2.8675,0 0,4.24625 z" />
    <path
       inkscape:connector-curvature="0"
       id="path4707"
       style="fill:#fccf34;fill-opacity:1;fill-rule:evenodd;stroke:none"
       d="m 362.21216,547.67377 -2.825,0 0,-4.24625 2.825,0 0,4.24625 z" />
  </g>
</svg>
