<?xml version="1.0" encoding="UTF-8" standalone="no"?>
<!-- Created with Inkscape (http://www.inkscape.org/) -->

<svg
   xmlns:dc="http://purl.org/dc/elements/1.1/"
   xmlns:cc="http://creativecommons.org/ns#"
   xmlns:rdf="http://www.w3.org/1999/02/22-rdf-syntax-ns#"
   xmlns:svg="http://www.w3.org/2000/svg"
   xmlns="http://www.w3.org/2000/svg"
   xmlns:sodipodi="http://sodipodi.sourceforge.net/DTD/sodipodi-0.dtd"
   xmlns:inkscape="http://www.inkscape.org/namespaces/inkscape"
   width="87.388634"
   height="87.347328"
   id="svg4550"
   version="1.1"
   inkscape:version="0.48.3.1 r9886"
   sodipodi:docname="New document 20">
  <defs
     id="defs4552" />
  <sodipodi:namedview
     id="base"
     pagecolor="#ffffff"
     bordercolor="#666666"
     borderopacity="1.0"
     inkscape:pageopacity="0.0"
     inkscape:pageshadow="2"
     inkscape:zoom="0.35"
     inkscape:cx="43.696644"
     inkscape:cy="43.669685"
     inkscape:document-units="px"
     inkscape:current-layer="layer1"
     showgrid="false"
     fit-margin-top="0"
     fit-margin-left="0"
     fit-margin-right="0"
     fit-margin-bottom="0"
     inkscape:window-width="451"
     inkscape:window-height="415"
     inkscape:window-x="75"
     inkscape:window-y="75"
     inkscape:window-maximized="0" />
  <metadata
     id="metadata4555">
    <rdf:RDF>
      <cc:Work
         rdf:about="">
        <dc:format>image/svg+xml</dc:format>
        <dc:type
           rdf:resource="http://purl.org/dc/dcmitype/StillImage" />
        <dc:title></dc:title>
      </cc:Work>
    </rdf:RDF>
  </metadata>
  <g
     inkscape:label="Layer 1"
     inkscape:groupmode="layer"
     id="layer1"
     transform="translate(-331.30336,-488.68454)">
    <g
       id="g3537"
       transform="matrix(1.25,0,0,-1.25,332.86828,529.35218)">
      <path
         d="m 0,0 31.296,31.297 c 1.325,1.324 3.493,1.324 4.816,0 L 67.41,0 c 1.324,-1.326 1.324,-3.492 0,-4.816 L 36.112,-36.113 c -1.323,-1.324 -3.491,-1.324 -4.816,0 L 0,-4.816 C -1.323,-3.492 -1.323,-1.326 0,0"
         style="fill:#fccf34;fill-opacity:1;fill-rule:nonzero;stroke:none"
         id="path3539"
         inkscape:connector-curvature="0" />
    </g>
    <g
       id="g3541"
       transform="matrix(1.25,0,0,-1.25,332.86828,529.35218)">
      <path
         d="m 0,0 31.296,31.297 c 1.325,1.324 3.493,1.324 4.816,0 L 67.41,0 c 1.324,-1.326 1.324,-3.492 0,-4.816 L 36.112,-36.113 c -1.323,-1.324 -3.491,-1.324 -4.816,0 L 0,-4.816 C -1.323,-3.492 -1.323,-1.326 0,0 z"
         style="fill:none;stroke:#231f20;stroke-width:0.5;stroke-linecap:butt;stroke-linejoin:miter;stroke-miterlimit:4;stroke-opacity:1;stroke-dasharray:none"
         id="path3543"
         inkscape:connector-curvature="0" />
    </g>
    <g
       id="g3545"
       transform="matrix(1.25,0,0,-1.25,333.80954,529.97593)">
      <path
         d="m 0,0 31.04,31.041 c 1.051,1.05 2.769,1.05 3.822,0 L 65.9,0 c 1.051,-1.049 1.051,-2.769 0,-3.819 L 34.862,-34.858 c -1.053,-1.051 -2.771,-1.051 -3.822,0 L 0,-3.819 c -1.05,1.05 -1.05,2.77 0,3.819"
         style="fill:#231f20;fill-opacity:1;fill-rule:evenodd;stroke:none"
         id="path3547"
         inkscape:connector-curvature="0" />
    </g>
    <g
       id="g3549"
       transform="matrix(1.25,0,0,-1.25,335.02203,531.17094)">
      <path
         d="m 0,0 31.026,31.026 c 0.524,0.525 1.384,0.525 1.909,0 L 63.96,0 c 0.526,-0.523 0.526,-1.382 0,-1.908 L 32.935,-32.933 c -0.525,-0.526 -1.385,-0.526 -1.909,0 L 0,-1.908 C -0.525,-1.382 -0.525,-0.523 0,0"
         style="fill:#fccf34;fill-opacity:1;fill-rule:evenodd;stroke:none"
         id="path3551"
         inkscape:connector-curvature="0" />
    </g>
    <g
       id="g3553"
       transform="matrix(1.25,0,0,-1.25,390.78829,521.49218)">
      <path
         d="m 0,0 c 0,0.979 -0.572,1.719 -1.886,2.483 -0.501,0.286 -0.644,0.478 -0.644,0.813 0,0.453 0.358,0.787 0.811,0.787 0.429,0 0.764,-0.311 0.786,-0.787 l 0.933,0 c -0.023,1.026 -0.765,1.766 -1.719,1.766 -0.979,0 -1.743,-0.787 -1.743,-1.766 0,-0.599 0.286,-1.124 0.836,-1.506 C -1.242,0.859 -1.623,1.122 -1.48,0.979 -1.075,0.668 -0.933,0.381 -0.933,0 c 0,-0.55 -0.428,-1.027 -0.953,-1.027 -0.669,0 -0.955,0.596 -0.955,1.17 l -0.956,0 c 0,-1.123 0.717,-2.13 1.911,-2.13 C -0.836,-1.987 0,-1.099 0,0 m -4.919,-1.863 0,6.805 -0.98,0 0,-4.083 -1.863,4.083 -0.978,0 0,-6.805 0.978,0 0,4.56 2.104,-4.56 0.739,0 z m -5.302,6.805 -0.956,0 0,-6.805 0.956,0 0,6.805 z m -3.582,-3.988 -0.978,0 0.478,1.959 0.5,-1.959 z m 1.694,-2.817 -1.694,6.805 -0.954,0 -1.696,-6.805 0.979,0 0.453,1.863 1.457,0 0.476,-1.863 0.979,0 z m -5.896,4.991 c 0,-0.549 -0.311,-0.86 -0.883,-0.86 l -1.004,0 0,1.719 1.004,0 c 0.525,0 0.883,-0.335 0.883,-0.859 m 0.955,-4.991 -0.979,3.343 c 0.645,0.239 0.979,0.836 0.979,1.648 0,1.098 -0.716,1.814 -1.791,1.814 l -2.03,0 0,-6.805 0.979,0 0,3.199 0.932,0 0.908,-3.199 1.002,0 z m -4.752,5.898 0,0.907 -3.462,0 0,-0.907 1.241,0 0,-5.898 0.979,0 0,5.898 1.242,0 z"
         style="fill:#231f20;fill-opacity:1;fill-rule:evenodd;stroke:none"
         id="path3555"
         inkscape:connector-curvature="0" />
    </g>
    <g
       id="g3557"
       transform="matrix(1.25,0,0,-1.25,402.50328,532.42343)">
      <path
         d="m 0,0 c 0,-0.525 -0.049,-1.001 -0.095,-1.432 -0.096,-0.525 -0.407,-0.98 -0.979,-0.98 l -0.812,0 0,4.897 0.812,0 c 0.429,0 0.716,-0.216 0.883,-0.693 C -0.071,1.505 0,0.765 0,0 M 0.955,0.048 C 0.955,0.574 0.884,1.17 0.787,1.672 0.669,2.365 0.383,2.89 -0.024,3.177 -0.263,3.369 -0.549,3.44 -1.121,3.44 l -1.743,0 0,-6.806 1.885,0 c 0.383,0 0.716,0.095 0.955,0.31 0.668,0.526 0.979,1.528 0.979,3.104 m -4.966,-3.414 0,0.954 -2.485,0 0,2.246 1.41,0 0,0.931 -1.41,0 0,1.72 2.221,0 0,0.955 -3.2,0 0,-6.806 3.464,0 z m -4.61,0 0,0.954 -2.483,0 0,2.246 1.41,0 0,0.931 -1.41,0 0,1.72 2.221,0 0,0.955 -3.2,0 0,-6.806 3.462,0 z m -4.798,4.991 c -0.072,0.621 -0.168,0.908 -0.432,1.242 -0.31,0.454 -0.787,0.691 -1.337,0.691 -1.337,0 -2.029,-1.17 -2.029,-3.366 0,-2.508 0.644,-3.682 2.101,-3.682 0.955,0 1.672,0.817 1.697,1.94 l -0.981,0 c 0,-0.503 -0.144,-0.98 -0.716,-0.98 -0.835,0 -1.171,0.788 -1.171,2.745 0,1.768 0.289,2.389 1.075,2.389 0.454,0 0.718,-0.31 0.812,-0.979 l 0.981,0 z m -4.611,-4.991 -1.48,3.534 1.361,3.272 -1.027,0 -0.858,-2.054 -0.862,2.054 -1.025,0 1.384,-3.272 -1.48,-3.534 1.027,0 0.956,2.317 0.954,-2.317 1.05,0 z m -4.609,0 0,0.954 -2.482,0 0,2.246 1.409,0 0,0.931 -1.409,0 0,1.72 2.221,0 0,0.955 -3.2,0 0,-6.806 3.461,0 z m -7.783,6.806 -1.051,0 -1.122,-2.46 -1.146,2.46 -1.028,0 1.672,-3.725 0,-3.081 0.979,0 0,3.081 1.696,3.725 z m -6.448,-3.988 -0.979,0 0.477,1.958 0.502,-1.958 z m 1.697,-2.818 -1.697,6.806 -0.956,0 -1.695,-6.806 0.979,0 0.455,1.863 1.457,0 0.476,-1.863 0.981,0 z m -5.303,0 0,6.806 -0.979,0 -1.266,-3.822 -1.265,3.822 -0.979,0 0,-6.806 0.979,0 0,3.82 1.265,-3.82 1.266,3.82 0,-3.82 0.979,0 z"
         style="fill:#231f20;fill-opacity:1;fill-rule:evenodd;stroke:none"
         id="path3559"
         inkscape:connector-curvature="0" />
    </g>
    <g
       id="g3561"
       transform="matrix(1.25,0,0,-1.25,393.38841,549.39969)">
      <path
         d="m 0,0 0,6.805 -0.98,0 0,-2.768 -1.861,0 0,2.768 -0.978,0 0,-6.805 0.978,0 0,3.08 1.861,0 L -0.98,0 0,0 z m -6.367,4.894 c 0,-0.619 -0.31,-0.979 -0.882,-0.979 l -1.004,0 0,1.936 1.004,0 c 0.524,0 0.882,-0.383 0.882,-0.957 m 0.955,0 c 0,1.146 -0.715,1.911 -1.79,1.911 l -2.031,0 0,-6.805 0.98,0 0,2.986 1.051,0 c 1.146,0 1.79,0.668 1.79,1.908 M -11.372,0 l 0,6.805 -0.979,0 -1.267,-3.819 -1.265,3.819 -0.979,0 0,-6.805 0.979,0 0,3.822 1.265,-3.822 1.267,3.822 0,-3.822 0.979,0 z m -10.173,3.415 c 0,-0.789 -0.048,-1.193 -0.215,-1.744 -0.168,-0.574 -0.431,-0.836 -0.836,-0.836 -0.43,0 -0.692,0.262 -0.86,0.836 -0.143,0.551 -0.215,0.98 -0.215,1.719 0,0.764 0.048,1.219 0.215,1.743 0.168,0.575 0.43,0.836 0.86,0.836 0.405,0 0.668,-0.261 0.836,-0.858 0.143,-0.502 0.215,-0.932 0.215,-1.696 m 0.931,0 c 0,1.026 -0.096,1.672 -0.382,2.339 -0.335,0.836 -0.812,1.171 -1.6,1.171 -0.789,0 -1.266,-0.335 -1.624,-1.146 -0.286,-0.646 -0.382,-1.338 -0.382,-2.364 0,-1.05 0.096,-1.697 0.382,-2.365 0.335,-0.811 0.812,-1.174 1.624,-1.174 0.765,0 1.265,0.363 1.6,1.174 0.286,0.646 0.382,1.315 0.382,2.365 m -5.946,-1.41 c 0,-0.691 -0.382,-1.17 -0.956,-1.17 -0.572,0 -0.955,0.479 -0.955,1.17 0,0.742 0.383,1.218 0.955,1.218 0.574,0 0.956,-0.476 0.956,-1.218 m -0.12,3.106 c 0,-0.55 -0.358,-0.907 -0.836,-0.907 -0.501,0 -0.859,0.357 -0.859,0.907 0,0.5 0.358,0.858 0.859,0.858 0.478,0 0.836,-0.358 0.836,-0.858 m 1.051,-3.106 c 0,0.67 -0.215,1.289 -0.644,1.696 0.357,0.358 0.549,0.86 0.549,1.41 0,1.051 -0.74,1.814 -1.792,1.814 -1.073,0 -1.814,-0.763 -1.814,-1.814 0,-0.55 0.191,-1.028 0.549,-1.41 -0.43,-0.429 -0.644,-1.026 -0.644,-1.696 0,-0.525 0.166,-1.026 0.429,-1.408 0.335,-0.478 0.812,-0.721 1.48,-0.721 0.526,0 0.932,0.149 1.243,0.457 0.406,0.383 0.644,1.028 0.644,1.672"
         style="fill:#231f20;fill-opacity:1;fill-rule:evenodd;stroke:none"
         id="path3563"
         inkscape:connector-curvature="0" />
    </g>
  </g>
</svg>
