<?xml version="1.0" encoding="UTF-8" standalone="no"?>
<!-- Created with Inkscape (http://www.inkscape.org/) -->

<svg
   xmlns:dc="http://purl.org/dc/elements/1.1/"
   xmlns:cc="http://creativecommons.org/ns#"
   xmlns:rdf="http://www.w3.org/1999/02/22-rdf-syntax-ns#"
   xmlns:svg="http://www.w3.org/2000/svg"
   xmlns="http://www.w3.org/2000/svg"
   xmlns:sodipodi="http://sodipodi.sourceforge.net/DTD/sodipodi-0.dtd"
   xmlns:inkscape="http://www.inkscape.org/namespaces/inkscape"
   width="180.625"
   height="90.625"
   id="svg5741"
   version="1.1"
   inkscape:version="0.48.3.1 r9886"
   sodipodi:docname="New document 28">
  <defs
     id="defs5743">
    <clipPath
       clipPathUnits="userSpaceOnUse"
       id="clipPath3197">
      <path
         inkscape:connector-curvature="0"
         d="m 26.875,45 513.375,0 0,303.719 -513.375,0 0,-303.719 z"
         id="path3199" />
    </clipPath>
  </defs>
  <sodipodi:namedview
     id="base"
     pagecolor="#ffffff"
     bordercolor="#666666"
     borderopacity="1.0"
     inkscape:pageopacity="0.0"
     inkscape:pageshadow="2"
     inkscape:zoom="0.35"
     inkscape:cx="90.317812"
     inkscape:cy="45.312497"
     inkscape:document-units="px"
     inkscape:current-layer="layer1"
     showgrid="false"
     fit-margin-top="0"
     fit-margin-left="0"
     fit-margin-right="0"
     fit-margin-bottom="0"
     inkscape:window-width="451"
     inkscape:window-height="398"
     inkscape:window-x="175"
     inkscape:window-y="175"
     inkscape:window-maximized="0" />
  <metadata
     id="metadata5746">
    <rdf:RDF>
      <cc:Work
         rdf:about="">
        <dc:format>image/svg+xml</dc:format>
        <dc:type
           rdf:resource="http://purl.org/dc/dcmitype/StillImage" />
        <dc:title></dc:title>
      </cc:Work>
    </rdf:RDF>
  </metadata>
  <g
     inkscape:label="Layer 1"
     inkscape:groupmode="layer"
     id="layer1"
     transform="translate(-284.68219,-487.04968)">
    <g
       transform="matrix(1.25,0,0,-1.25,-33.45325,653.44593)"
       id="g3193">
      <g
         id="g3195"
         clip-path="url(#clipPath3197)">
        <g
           id="g3201"
           transform="translate(261.4771,132.867)">
          <path
             inkscape:connector-curvature="0"
             d="m 0,0 130.569,0 c 3.693,0 6.717,-3.022 6.717,-6.715 l 0,-58.57 c 0,-3.694 -3.024,-6.715 -6.717,-6.715 L 0,-72 c -3.694,0 -6.715,3.021 -6.715,6.715 l 0,58.57 C -6.715,-3.022 -3.694,0 0,0 z"
             style="fill:none;stroke:#231f20;stroke-width:0.5;stroke-linecap:butt;stroke-linejoin:miter;stroke-miterlimit:4;stroke-opacity:1;stroke-dasharray:none"
             id="path3203" />
        </g>
        <g
           id="g3205"
           transform="translate(261.4771,130.948)">
          <path
             inkscape:connector-curvature="0"
             d="m 0,0 130.569,0 c 2.639,0 4.797,-2.159 4.797,-4.796 l 0,-58.57 c 0,-2.637 -2.158,-4.795 -4.797,-4.795 L 0,-68.161 c -2.637,0 -4.795,2.158 -4.795,4.795 l 0,58.57 C -4.795,-2.159 -2.637,0 0,0"
             style="fill:#231f20;fill-opacity:1;fill-rule:evenodd;stroke:none"
             id="path3207" />
        </g>
        <g
           id="g3209"
           transform="translate(261.4781,128.067)">
          <path
             inkscape:connector-curvature="0"
             d="m 0,0 130.568,0 c 1.055,0 1.916,-0.862 1.916,-1.915 l 0,-58.57 c 0,-1.053 -0.861,-1.914 -1.916,-1.914 L 0,-62.399 c -1.053,0 -1.915,0.861 -1.915,1.914 l 0,58.57 C -1.915,-0.862 -1.053,0 0,0"
             style="fill:#ffffff;fill-opacity:1;fill-rule:evenodd;stroke:none"
             id="path3211" />
        </g>
        <g
           id="g3213"
           transform="translate(276.7961,121.17)">
          <path
             inkscape:connector-curvature="0"
             d="m 0,0 -2.121,0 0,-3.636 2.121,0 c 1.212,0 1.868,0.657 1.868,1.818 C 1.868,-0.707 1.11,0 0,0 m 1.768,-12.372 -1.92,6.767 -1.969,0 0,-6.767 -2.07,0 0,14.392 4.292,0 c 2.272,0 3.787,-1.515 3.787,-3.838 0,-1.717 -0.707,-2.979 -2.071,-3.485 l 2.071,-7.069 -2.12,0 z"
             style="fill:#231f20;fill-opacity:1;fill-rule:nonzero;stroke:none"
             id="path3215" />
        </g>
        <g
           id="g3217"
           transform="translate(288.8641,119.605)">
          <path
             inkscape:connector-curvature="0"
             d="m 0,0 c -0.353,1.262 -0.908,1.817 -1.767,1.817 -0.908,0 -1.464,-0.555 -1.818,-1.767 -0.353,-1.111 -0.455,-2.071 -0.455,-3.686 0,-1.566 0.152,-2.475 0.455,-3.637 0.354,-1.211 0.91,-1.767 1.818,-1.767 0.859,0 1.414,0.556 1.767,1.767 0.354,1.162 0.455,2.021 0.455,3.688 C 0.455,-1.97 0.303,-1.061 0,0 m 1.617,-8.585 c -0.707,-1.717 -1.768,-2.475 -3.384,-2.475 -1.717,0 -2.727,0.758 -3.434,2.475 -0.606,1.414 -0.807,2.777 -0.807,5 0,2.171 0.201,3.635 0.807,4.999 0.758,1.717 1.768,2.424 3.434,2.424 1.667,0 2.677,-0.707 3.384,-2.475 0.606,-1.414 0.807,-2.777 0.807,-4.948 0,-2.223 -0.201,-3.637 -0.807,-5"
             style="fill:#231f20;fill-opacity:1;fill-rule:nonzero;stroke:none"
             id="path3219" />
        </g>
        <g
           id="g3221"
           transform="translate(297.6011,118.898)">
          <path
             inkscape:connector-curvature="0"
             d="m 0,0 -1.01,-4.142 2.07,0 L 0,0 z m 2.575,-10.1 -1.01,3.939 -3.081,0 -0.959,-3.939 -2.07,0 3.585,14.392 2.02,0 3.585,-14.392 -2.07,0 z"
             style="fill:#231f20;fill-opacity:1;fill-rule:nonzero;stroke:none"
             id="path3223" />
        </g>
        <g
           id="g3225"
           transform="translate(309.8711,119.705)">
          <path
             inkscape:connector-curvature="0"
             d="m 0,0 c -0.353,1.01 -0.96,1.465 -1.868,1.465 l -1.717,0 0,-10.352 1.717,0 c 1.212,0 1.868,0.96 2.07,2.071 0.101,0.908 0.202,1.918 0.202,3.029 C 0.404,-2.171 0.253,-0.605 0,0 m 0.354,-10.251 c -0.505,-0.454 -1.212,-0.656 -2.021,-0.656 l -3.989,0 0,14.392 3.686,0 c 1.212,0 1.819,-0.152 2.324,-0.555 0.858,-0.606 1.465,-1.717 1.716,-3.182 0.203,-1.06 0.354,-2.323 0.354,-3.433 0,-3.334 -0.656,-5.455 -2.07,-6.566"
             style="fill:#231f20;fill-opacity:1;fill-rule:nonzero;stroke:none"
             id="path3227" />
        </g>
        <g
           id="g3229"
           transform="translate(327.9991,119.352)">
          <path
             inkscape:connector-curvature="0"
             d="m 0,0 c -0.201,1.414 -0.757,2.07 -1.717,2.07 -1.666,0 -2.272,-1.312 -2.272,-5.049 0,-4.141 0.707,-5.808 2.474,-5.808 1.212,0 1.515,1.01 1.515,2.071 l 2.071,0 c -0.05,-2.374 -1.566,-4.091 -3.586,-4.091 -3.08,0 -4.444,2.475 -4.444,7.778 0,4.645 1.465,7.12 4.293,7.12 1.161,0 2.171,-0.505 2.828,-1.465 C 1.718,1.92 1.919,1.313 2.071,0 L 0,0 z"
             style="fill:#231f20;fill-opacity:1;fill-rule:nonzero;stroke:none"
             id="path3231" />
        </g>
        <g
           id="g3233"
           transform="translate(332.9482,108.798)">
          <path
             inkscape:connector-curvature="0"
             d="m 0,0 0,14.392 2.071,0 0,-12.473 5.252,0 L 7.323,0 0,0 z"
             style="fill:#231f20;fill-opacity:1;fill-rule:nonzero;stroke:none"
             id="path3235" />
        </g>
        <g
           id="g3237"
           transform="translate(348.0471,119.605)">
          <path
             inkscape:connector-curvature="0"
             d="m 0,0 c -0.354,1.262 -0.908,1.817 -1.768,1.817 -0.908,0 -1.463,-0.555 -1.817,-1.767 -0.354,-1.111 -0.454,-2.071 -0.454,-3.686 0,-1.566 0.15,-2.475 0.454,-3.637 0.354,-1.211 0.909,-1.767 1.817,-1.767 0.86,0 1.414,0.556 1.768,1.767 0.353,1.162 0.455,2.021 0.455,3.688 C 0.455,-1.97 0.303,-1.061 0,0 m 1.616,-8.585 c -0.707,-1.717 -1.767,-2.475 -3.384,-2.475 -1.716,0 -2.726,0.758 -3.433,2.475 -0.606,1.414 -0.809,2.777 -0.809,5 0,2.171 0.203,3.635 0.809,4.999 0.758,1.717 1.767,2.424 3.433,2.424 1.667,0 2.677,-0.707 3.384,-2.475 0.607,-1.414 0.808,-2.777 0.808,-4.948 0,-2.223 -0.201,-3.637 -0.808,-5"
             style="fill:#231f20;fill-opacity:1;fill-rule:nonzero;stroke:none"
             id="path3239" />
        </g>
        <g
           id="g3241"
           transform="translate(356.6821,108.545)">
          <path
             inkscape:connector-curvature="0"
             d="m 0,0 c -2.525,0 -4.039,2.121 -4.039,4.494 l 2.019,0 C -2.02,3.283 -1.414,2.02 0,2.02 1.111,2.02 2.02,3.03 2.02,4.192 2.02,5 1.717,5.606 0.859,6.262 0.555,6.565 1.363,6.01 -1.565,7.979 c -1.162,0.808 -1.767,1.92 -1.767,3.181 0,2.071 1.615,3.738 3.685,3.738 2.021,0 3.586,-1.566 3.637,-3.738 l -1.97,0 c -0.051,1.01 -0.758,1.667 -1.667,1.667 -0.959,0 -1.717,-0.707 -1.717,-1.667 0,-0.707 0.303,-1.11 1.364,-1.716 C 2.777,7.828 3.99,6.262 3.99,4.192 3.99,1.869 2.222,0 0,0"
             style="fill:#231f20;fill-opacity:1;fill-rule:nonzero;stroke:none"
             id="path3243" />
        </g>
        <g
           id="g3245"
           transform="translate(363.0951,108.798)">
          <path
             inkscape:connector-curvature="0"
             d="m 0,0 0,14.392 6.766,0 0,-2.02 -4.695,0 0,-3.636 2.979,0 0,-1.969 -2.979,0 0,-4.747 5.251,0 L 7.322,0 0,0 z"
             style="fill:#231f20;fill-opacity:1;fill-rule:nonzero;stroke:none"
             id="path3247" />
        </g>
        <g
           id="g3249"
           transform="translate(378.4961,119.705)">
          <path
             inkscape:connector-curvature="0"
             d="m 0,0 c -0.353,1.01 -0.959,1.465 -1.868,1.465 l -1.717,0 0,-10.352 1.717,0 c 1.212,0 1.868,0.96 2.071,2.071 0.101,0.908 0.201,1.918 0.201,3.029 C 0.404,-2.171 0.253,-0.605 0,0 m 0.354,-10.251 c -0.504,-0.454 -1.211,-0.656 -2.02,-0.656 l -3.989,0 0,14.392 3.686,0 c 1.212,0 1.819,-0.152 2.323,-0.555 0.859,-0.606 1.465,-1.717 1.716,-3.182 0.204,-1.06 0.354,-2.323 0.354,-3.433 0,-3.334 -0.656,-5.455 -2.07,-6.566"
             style="fill:#231f20;fill-opacity:1;fill-rule:nonzero;stroke:none"
             id="path3251" />
        </g>
        <g
           id="g3253"
           transform="translate(323.3961,101.211)">
          <path
             inkscape:connector-curvature="0"
             d="m 0,0 0,-10.395 -1.725,0 0,10.395 -2.189,0 0,1.599 6.102,0 L 2.188,0 0,0 z"
             style="fill:#231f20;fill-opacity:1;fill-rule:nonzero;stroke:none"
             id="path3255" />
        </g>
        <g
           id="g3257"
           transform="translate(332.0231,99.822)">
          <path
             inkscape:connector-curvature="0"
             d="m 0,0 c -0.295,1.051 -0.758,1.514 -1.473,1.514 -0.758,0 -1.221,-0.463 -1.516,-1.473 -0.294,-0.926 -0.379,-1.725 -0.379,-3.072 0,-1.303 0.127,-2.061 0.379,-3.03 0.295,-1.009 0.758,-1.472 1.516,-1.472 0.715,0 1.178,0.463 1.473,1.472 0.293,0.969 0.378,1.684 0.378,3.073 C 0.378,-1.643 0.251,-0.885 0,0 m 1.346,-7.154 c -0.59,-1.432 -1.473,-2.063 -2.819,-2.063 -1.432,0 -2.273,0.631 -2.862,2.063 -0.505,1.177 -0.673,2.314 -0.673,4.166 0,1.808 0.168,3.029 0.673,4.166 0.631,1.431 1.472,2.019 2.862,2.019 1.389,0 2.229,-0.588 2.819,-2.06 0.504,-1.18 0.673,-2.317 0.673,-4.125 0,-1.852 -0.169,-3.03 -0.673,-4.166"
             style="fill:#231f20;fill-opacity:1;fill-rule:nonzero;stroke:none"
             id="path3259" />
        </g>
        <g
           id="g3261"
           transform="translate(276.5691,83.008)">
          <path
             inkscape:connector-curvature="0"
             d="m 0,0 0,-12.473 -2.07,0 0,12.473 -2.626,0 0,1.918 7.322,0 L 2.626,0 0,0 z"
             style="fill:#231f20;fill-opacity:1;fill-rule:nonzero;stroke:none"
             id="path3263" />
        </g>
        <g
           id="g3265"
           transform="translate(287.1731,70.535)">
          <path
             inkscape:connector-curvature="0"
             d="m 0,0 0,6.514 -3.939,0 0,-6.514 -2.07,0 0,14.391 2.07,0 0,-5.858 3.939,0 0,5.858 2.07,0 L 2.07,0 0,0 z"
             style="fill:#231f20;fill-opacity:1;fill-rule:nonzero;stroke:none"
             id="path3267" />
        </g>
        <g
           id="g3269"
           transform="translate(296.5661,82.906)">
          <path
             inkscape:connector-curvature="0"
             d="m 0,0 -2.122,0 0,-3.635 2.122,0 c 1.21,0 1.867,0.656 1.867,1.817 C 1.867,-0.707 1.11,0 0,0 m 1.767,-12.371 -1.92,6.766 -1.969,0 0,-6.766 -2.07,0 0,14.391 4.291,0 c 2.274,0 3.789,-1.514 3.789,-3.838 0,-1.717 -0.707,-2.979 -2.071,-3.485 l 2.071,-7.068 -2.121,0 z"
             style="fill:#231f20;fill-opacity:1;fill-rule:nonzero;stroke:none"
             id="path3271" />
        </g>
        <g
           id="g3273"
           transform="translate(310.4011,72.302)">
          <path
             inkscape:connector-curvature="0"
             d="m 0,0 c -0.707,-1.162 -2.07,-2.021 -3.433,-2.021 -1.414,0 -2.828,0.809 -3.535,2.021 -0.405,0.756 -0.557,1.364 -0.557,2.524 l 0,10.1 2.07,0 0,-10.352 C -5.455,0.909 -4.646,0 -3.433,0 c 1.11,0 1.918,0.909 1.918,2.272 l 0,10.352 2.07,0 0,-10.1 C 0.555,1.364 0.405,0.756 0,0"
             style="fill:#231f20;fill-opacity:1;fill-rule:nonzero;stroke:none"
             id="path3275" />
        </g>
        <g
           id="g3277"
           transform="translate(324.8431,83.008)">
          <path
             inkscape:connector-curvature="0"
             d="m 0,0 0,-12.473 -2.07,0 0,12.473 -2.627,0 0,1.918 7.322,0 L 2.625,0 0,0 z"
             style="fill:#231f20;fill-opacity:1;fill-rule:nonzero;stroke:none"
             id="path3279" />
        </g>
        <g
           id="g3281"
           transform="translate(333.6291,82.906)">
          <path
             inkscape:connector-curvature="0"
             d="m 0,0 -2.121,0 0,-3.635 2.121,0 c 1.211,0 1.868,0.656 1.868,1.817 C 1.868,-0.707 1.11,0 0,0 m 1.768,-12.371 -1.92,6.766 -1.969,0 0,-6.766 -2.071,0 0,14.391 4.293,0 c 2.272,0 3.787,-1.514 3.787,-3.838 0,-1.717 -0.707,-2.979 -2.071,-3.485 l 2.071,-7.068 -2.12,0 z"
             style="fill:#231f20;fill-opacity:1;fill-rule:nonzero;stroke:none"
             id="path3283" />
        </g>
        <g
           id="g3285"
           transform="translate(343.3752,80.635)">
          <path
             inkscape:connector-curvature="0"
             d="m 0,0 -1.011,-4.141 2.072,0 L 0,0 z m 2.575,-10.1 -1.01,3.937 -3.081,0 -0.959,-3.937 -2.07,0 3.585,14.391 2.021,0 3.585,-14.391 -2.071,0 z"
             style="fill:#231f20;fill-opacity:1;fill-rule:nonzero;stroke:none"
             id="path3287" />
        </g>
        <g
           id="g3289"
           transform="translate(352.0602,82.906)">
          <path
             inkscape:connector-curvature="0"
             d="m 0,0 0,-3.635 2.878,0 0,-1.97 -2.878,0 0,-6.766 -2.071,0 0,14.391 7.323,0 L 5.252,0 0,0 z"
             style="fill:#231f20;fill-opacity:1;fill-rule:nonzero;stroke:none"
             id="path3291" />
        </g>
        <g
           id="g3293"
           transform="translate(361.4011,82.906)">
          <path
             inkscape:connector-curvature="0"
             d="m 0,0 0,-3.635 2.879,0 0,-1.97 -2.879,0 0,-6.766 -2.07,0 0,14.391 7.322,0 L 5.252,0 0,0 z"
             style="fill:#231f20;fill-opacity:1;fill-rule:nonzero;stroke:none"
             id="path3295" />
        </g>
        <path
           inkscape:connector-curvature="0"
           d="m 368.673,84.926 2.019,0 0,-14.391 -2.019,0 0,14.391 z"
           style="fill:#231f20;fill-opacity:1;fill-rule:nonzero;stroke:none"
           id="path3297" />
        <g
           id="g3299"
           transform="translate(379.5811,81.088)">
          <path
             inkscape:connector-curvature="0"
             d="m 0,0 c -0.202,1.414 -0.758,2.07 -1.717,2.07 -1.667,0 -2.273,-1.313 -2.273,-5.049 0,-4.14 0.707,-5.807 2.475,-5.807 1.211,0 1.515,1.01 1.515,2.071 l 2.07,0 c -0.05,-2.375 -1.566,-4.092 -3.585,-4.092 -3.081,0 -4.444,2.475 -4.444,7.777 0,4.647 1.464,7.121 4.292,7.121 1.161,0 2.171,-0.505 2.828,-1.464 C 1.717,1.92 1.918,1.314 2.07,0 L 0,0 z"
             style="fill:#231f20;fill-opacity:1;fill-rule:nonzero;stroke:none"
             id="path3301" />
        </g>
      </g>
    </g>
  </g>
</svg>
