<?xml version="1.0" encoding="UTF-8" standalone="no"?>
<!-- Created with Inkscape (http://www.inkscape.org/) -->

<svg
   xmlns:dc="http://purl.org/dc/elements/1.1/"
   xmlns:cc="http://creativecommons.org/ns#"
   xmlns:rdf="http://www.w3.org/1999/02/22-rdf-syntax-ns#"
   xmlns:svg="http://www.w3.org/2000/svg"
   xmlns="http://www.w3.org/2000/svg"
   xmlns:sodipodi="http://sodipodi.sourceforge.net/DTD/sodipodi-0.dtd"
   xmlns:inkscape="http://www.inkscape.org/namespaces/inkscape"
   width="72.617188"
   height="90.625"
   id="svg4401"
   version="1.1"
   inkscape:version="0.48.3.1 r9886"
   sodipodi:docname="New document 10">
  <defs
     id="defs4403">
    <clipPath
       clipPathUnits="userSpaceOnUse"
       id="clipPath4023">
      <path
         inkscape:connector-curvature="0"
         d="m 26.875,45 513.375,0 0,303.719 -513.375,0 0,-303.719 z"
         id="path4025" />
    </clipPath>
  </defs>
  <sodipodi:namedview
     id="base"
     pagecolor="#ffffff"
     bordercolor="#666666"
     borderopacity="1.0"
     inkscape:pageopacity="0.0"
     inkscape:pageshadow="2"
     inkscape:zoom="0.35"
     inkscape:cx="36.305313"
     inkscape:cy="45.311252"
     inkscape:document-units="px"
     inkscape:current-layer="layer1"
     showgrid="false"
     fit-margin-top="0"
     fit-margin-left="0"
     fit-margin-right="0"
     fit-margin-bottom="0"
     inkscape:window-width="451"
     inkscape:window-height="398"
     inkscape:window-x="125"
     inkscape:window-y="125"
     inkscape:window-maximized="0" />
  <metadata
     id="metadata4406">
    <rdf:RDF>
      <cc:Work
         rdf:about="">
        <dc:format>image/svg+xml</dc:format>
        <dc:type
           rdf:resource="http://purl.org/dc/dcmitype/StillImage" />
        <dc:title></dc:title>
      </cc:Work>
    </rdf:RDF>
  </metadata>
  <g
     inkscape:label="Layer 1"
     inkscape:groupmode="layer"
     id="layer1"
     transform="translate(-338.69469,-487.04843)">
    <g
       transform="matrix(1.25,0,0,-1.25,-52.69575,895.32881)"
       id="g4019">
      <g
         id="g4021"
         clip-path="url(#clipPath4023)">
        <g
           id="g4027"
           transform="translate(316.9561,326.3743)">
          <path
             inkscape:connector-curvature="0"
             d="M 0,0 50.401,0 C 52.383,0 54,-1.616 54,-3.6 l 0,-64.8 c 0,-1.984 -1.617,-3.602 -3.599,-3.602 l -50.401,0 c -1.982,0 -3.599,1.618 -3.599,3.602 l 0,64.8 C -3.599,-1.616 -1.982,0 0,0"
             style="fill:#ffffff;fill-opacity:1;fill-rule:nonzero;stroke:none"
             id="path4029" />
        </g>
        <g
           id="g4031"
           transform="translate(316.9561,326.3743)">
          <path
             inkscape:connector-curvature="0"
             d="M 0,0 50.401,0 C 52.383,0 54,-1.616 54,-3.6 l 0,-64.8 c 0,-1.984 -1.617,-3.602 -3.599,-3.602 l -50.401,0 c -1.982,0 -3.599,1.618 -3.599,3.602 l 0,64.8 C -3.599,-1.616 -1.982,0 0,0 z"
             style="fill:none;stroke:#231f20;stroke-width:0.5;stroke-linecap:butt;stroke-linejoin:miter;stroke-miterlimit:4;stroke-opacity:1;stroke-dasharray:none"
             id="path4033" />
        </g>
        <g
           id="g4035"
           transform="translate(316.9681,325.3743)">
          <path
             inkscape:connector-curvature="0"
             d="m 0,0 19.404,0 27.742,0 c 1.412,0 3.635,0.393 4.844,-0.556 1.219,-0.959 0.998,-2.506 0.998,-3.875 l 0,-22.949 0,-25.765 0,-10.643 0,-2.849 c 0,-0.466 0.037,-0.959 -0.082,-1.412 -0.496,-1.904 -2.273,-1.953 -3.867,-1.953 l -10.1,0 -29.994,0 -8.471,0 c -1.611,0 -3.085,0.853 -3.085,2.652 l 0,16.781 0,26.074 0,20.977 c 0,0.511 -0.047,1.067 0.08,1.566 C -2.235,-0.809 -1.174,-0.006 0,0"
             style="fill:#231f20;fill-opacity:1;fill-rule:evenodd;stroke:none"
             id="path4037" />
        </g>
        <g
           id="g4039"
           transform="translate(316.9851,323.9749)">
          <path
             inkscape:connector-curvature="0"
             d="m 0,0 19.457,0 27.727,0 2.84,0 c 0.4,0 0.777,-0.006 1.105,-0.276 0.723,-0.592 0.442,-2.035 0.442,-2.833 l 0,-23.093 0,-25.758 0,-10.554 0,-2.776 c 0,-0.337 0.049,-0.739 -0.053,-1.066 -0.346,-1.109 -1.75,-0.846 -2.633,-0.846 l -10.289,0 -29.998,0 -8.219,0 c -0.857,0 -1.609,0.31 -1.609,1.3 l 0,12.406 0,30.933 0,20.579 c 0,0.868 0.051,2 1.23,1.984"
             style="fill:#ffffff;fill-opacity:1;fill-rule:evenodd;stroke:none"
             id="path4041" />
        </g>
        <g
           id="g4043"
           transform="translate(350.8431,311.1545)">
          <path
             inkscape:connector-curvature="0"
             d="m 0,0 c 0,-0.987 -0.223,-2.244 -0.494,-2.917 -0.448,-1.123 -1.032,-1.615 -1.975,-1.615 -0.808,0 -1.346,0.313 -1.75,0.986 -0.494,0.809 -0.764,2.199 -0.764,3.546 0,1.078 0.18,2.244 0.495,3.008 0.449,1.123 1.078,1.616 2.064,1.57 C -1.66,4.534 -1.168,4.265 -0.762,3.591 -0.27,2.738 0,1.437 0,0 m 2.019,0 c 0,1.617 -0.312,3.232 -0.851,4.354 -0.809,1.572 -1.93,2.29 -3.547,2.29 -1.481,0 -2.514,-0.449 -3.275,-1.437 C -6.508,3.995 -7.047,2.109 -7.047,0 c 0,-1.525 0.359,-3.231 0.898,-4.309 0.762,-1.571 1.885,-2.296 3.68,-2.296 1.348,0 2.379,0.456 3.098,1.444 0.898,1.121 1.39,3.141 1.39,5.161 m -14.22,0.046 c 0,-1.706 -0.405,-3.098 -1.166,-3.861 -0.36,-0.359 -0.764,-0.494 -1.436,-0.494 l -2.021,0 0,8.709 2.289,0 c 0.539,0 0.988,-0.225 1.302,-0.54 0.627,-0.672 1.032,-2.109 1.032,-3.814 m 2.064,0 c 0,2.514 -0.762,4.532 -2.109,5.7 -0.674,0.538 -1.166,0.673 -2.469,0.673 l -4.129,0 0,-12.793 3.904,0 0.719,0 c 0.674,0.046 1.348,0.27 1.84,0.719 1.437,1.123 2.244,3.141 2.244,5.701"
             style="fill:#231f20;fill-opacity:1;fill-rule:evenodd;stroke:none"
             id="path4045" />
        </g>
        <g
           id="g4047"
           transform="translate(357.7451,294.9778)">
          <path
             inkscape:connector-curvature="0"
             d="m 0,0 0,1.796 -7.9,0 0,-1.796 2.916,0 0,-10.997 2.021,0 L -2.963,0 0,0 z m -11.947,-4.624 c 0,-0.986 -0.227,-2.243 -0.494,-2.917 -0.449,-1.122 -1.033,-1.615 -1.975,-1.615 -0.808,0 -1.347,0.313 -1.75,0.987 -0.494,0.808 -0.763,2.199 -0.763,3.545 0,1.078 0.179,2.245 0.494,3.008 0.449,1.123 1.076,1.616 2.064,1.571 0.762,-0.045 1.256,-0.313 1.658,-0.987 0.496,-0.853 0.766,-2.154 0.766,-3.592 m 2.018,0 c 0,1.617 -0.313,3.233 -0.852,4.354 -0.807,1.572 -1.932,2.29 -3.545,2.29 -1.48,0 -2.514,-0.449 -3.277,-1.437 -0.852,-1.212 -1.391,-3.098 -1.391,-5.207 0,-1.525 0.359,-3.231 0.898,-4.309 0.762,-1.571 1.883,-2.297 3.68,-2.297 1.346,0 2.377,0.458 3.096,1.445 0.898,1.122 1.391,3.142 1.391,5.161 m -12.17,-6.373 0,12.793 -2.02,0 0,-8.17 -4.668,8.17 -2.019,0 0,-12.793 2.019,0 0,8.663 4.893,-8.663 1.795,0 z"
             style="fill:#231f20;fill-opacity:1;fill-rule:evenodd;stroke:none"
             id="path4049" />
        </g>
        <g
           id="g4051"
           transform="translate(362.8941,266.8616)">
          <path
             inkscape:connector-curvature="0"
             d="m 0,0 c 0,5.027 -6.016,3.456 -6.196,5.835 -0.09,1.166 1.032,1.525 1.977,1.482 1.435,-0.047 1.885,-1.124 1.885,-1.124 l 1.795,0.539 c -0.629,1.572 -1.842,2.604 -3.637,2.604 -2.289,0 -3.994,-0.942 -3.994,-3.456 0,-2.109 1.705,-2.873 2.468,-3.188 1.661,-0.672 3.635,-0.942 3.635,-2.648 0,-1.077 -0.806,-1.885 -1.974,-1.885 -1.211,0 -2.2,0.673 -2.739,1.885 l -1.929,-0.718 c 0.853,-1.93 2.468,-3.238 4.668,-3.238 1.078,0 2.066,0.366 2.785,0.994 C -0.45,-2.2 0,-1.168 0,0 m -10.174,0 c 0,5.027 -6.016,3.456 -6.196,5.835 -0.089,1.166 1.034,1.525 1.975,1.482 1.438,-0.047 1.887,-1.124 1.887,-1.124 l 1.795,0.539 c -0.629,1.572 -1.842,2.604 -3.637,2.604 -2.289,0 -3.994,-0.942 -3.994,-3.456 0,-2.109 1.705,-2.873 2.469,-3.188 1.66,-0.672 3.634,-0.942 3.634,-2.648 0,-1.077 -0.806,-1.885 -1.974,-1.885 -1.211,0 -2.199,0.673 -2.738,1.885 l -1.93,-0.718 c 0.853,-1.93 2.469,-3.238 4.668,-3.238 1.078,0 2.066,0.366 2.783,0.994 0.807,0.718 1.258,1.75 1.258,2.918 m -14.125,1.974 -2.559,0 1.303,3.591 1.256,-3.591 z m 4.131,-5.656 -4.401,12.794 -2.019,0 -4.399,-12.794 2.155,0 1.257,3.592 3.995,0 1.257,-3.592 2.155,0 z M -34.069,5.52 c 0,-0.539 -0.314,-1.122 -0.763,-1.345 -0.36,-0.181 -0.584,-0.225 -1.211,-0.225 l -2.649,0 0,3.141 2.649,0 c 0.627,0 0.851,-0.044 1.211,-0.224 0.449,-0.268 0.763,-0.808 0.763,-1.347 m 2.065,0 c 0,1.302 -0.852,2.649 -1.975,3.188 -0.629,0.314 -1.301,0.404 -2.334,0.404 l -4.398,0 0,-12.794 2.019,0 0,5.567 2.379,0 c 0.988,0 1.75,0.179 2.334,0.448 1.123,0.494 1.975,1.842 1.975,3.187"
             style="fill:#231f20;fill-opacity:1;fill-rule:evenodd;stroke:none"
             id="path4053" />
        </g>
      </g>
    </g>
  </g>
</svg>
