<?xml version="1.0" encoding="UTF-8" standalone="no"?>
<!-- Created with Inkscape (http://www.inkscape.org/) -->

<svg
   xmlns:dc="http://purl.org/dc/elements/1.1/"
   xmlns:cc="http://creativecommons.org/ns#"
   xmlns:rdf="http://www.w3.org/1999/02/22-rdf-syntax-ns#"
   xmlns:svg="http://www.w3.org/2000/svg"
   xmlns="http://www.w3.org/2000/svg"
   xmlns:sodipodi="http://sodipodi.sourceforge.net/DTD/sodipodi-0.dtd"
   xmlns:inkscape="http://www.inkscape.org/namespaces/inkscape"
   width="67.5"
   height="90.625"
   id="svg4561"
   version="1.1"
   inkscape:version="0.48.3.1 r9886"
   sodipodi:docname="New document 14">
  <defs
     id="defs4563">
    <clipPath
       clipPathUnits="userSpaceOnUse"
       id="clipPath4127">
      <path
         inkscape:connector-curvature="0"
         d="m 26.875,45 513.375,0 0,303.719 -513.375,0 0,-303.719 z"
         id="path4129" />
    </clipPath>
    <clipPath
       clipPathUnits="userSpaceOnUse"
       id="clipPath4115">
      <path
         inkscape:connector-curvature="0"
         d="m 31.399,45 504.327,0 0,303.719 -504.327,0 0,-303.719 z"
         id="path4117" />
    </clipPath>
    <clipPath
       clipPathUnits="userSpaceOnUse"
       id="clipPath4103">
      <path
         inkscape:connector-curvature="0"
         d="m 26.875,45 513.375,0 0,303.719 -513.375,0 0,-303.719 z"
         id="path4105" />
    </clipPath>
  </defs>
  <sodipodi:namedview
     id="base"
     pagecolor="#ffffff"
     bordercolor="#666666"
     borderopacity="1.0"
     inkscape:pageopacity="0.0"
     inkscape:pageshadow="2"
     inkscape:zoom="0.35"
     inkscape:cx="33.749623"
     inkscape:cy="45.312497"
     inkscape:document-units="px"
     inkscape:current-layer="layer1"
     showgrid="false"
     fit-margin-top="0"
     fit-margin-left="0"
     fit-margin-right="0"
     fit-margin-bottom="0"
     inkscape:window-width="451"
     inkscape:window-height="398"
     inkscape:window-x="25"
     inkscape:window-y="25"
     inkscape:window-maximized="0" />
  <metadata
     id="metadata4566">
    <rdf:RDF>
      <cc:Work
         rdf:about="">
        <dc:format>image/svg+xml</dc:format>
        <dc:type
           rdf:resource="http://purl.org/dc/dcmitype/StillImage" />
        <dc:title></dc:title>
      </cc:Work>
    </rdf:RDF>
  </metadata>
  <g
     inkscape:label="Layer 1"
     inkscape:groupmode="layer"
     id="layer1"
     transform="translate(-341.25038,-487.04968)">
    <g
       transform="matrix(1.25,0,0,-1.25,-260.89756,895.35568)"
       id="g4099">
      <g
         id="g4101"
         clip-path="url(#clipPath4103)">
        <g
           id="g4107"
           transform="translate(485.5621,254.3948)">
          <path
             inkscape:connector-curvature="0"
             d="m 0,0 46.308,0 c 0.953,0 1.877,0.377 2.553,1.052 0.676,0.674 1.053,1.597 1.053,2.549 l 0,64.796 c 0,0.952 -0.377,1.877 -1.053,2.55 C 48.185,71.622 47.261,72 46.308,72 L 0,72 c -0.952,0 -1.877,-0.378 -2.549,-1.053 -0.674,-0.673 -1.053,-1.598 -1.053,-2.55 l 0,-64.796 c 0,-1.238 0.65,-2.403 1.693,-3.066 C -1.317,0.154 -0.688,0.067 0,0"
             style="fill:#ffffff;fill-opacity:1;fill-rule:nonzero;stroke:none"
             id="path4109" />
        </g>
      </g>
    </g>
    <g
       transform="matrix(1.25,0,0,-1.25,-260.89756,895.35568)"
       id="g4111">
      <g
         id="g4113"
         clip-path="url(#clipPath4115)">
        <g
           id="g4119"
           transform="translate(485.5621,254.3948)">
          <path
             inkscape:connector-curvature="0"
             d="m 0,0 46.308,0 c 0.953,0 1.877,0.377 2.553,1.052 0.676,0.674 1.053,1.597 1.053,2.549 l 0,64.796 c 0,0.952 -0.377,1.877 -1.053,2.55 C 48.185,71.622 47.261,72 46.308,72 L 0,72 c -0.952,0 -1.877,-0.378 -2.549,-1.053 -0.674,-0.673 -1.053,-1.598 -1.053,-2.55 l 0,-64.796 c 0,-1.238 0.65,-2.403 1.693,-3.066 C -1.317,0.154 -0.688,0.067 0,0 z"
             style="fill:none;stroke:#231f20;stroke-width:0.5;stroke-linecap:butt;stroke-linejoin:miter;stroke-miterlimit:4;stroke-opacity:1;stroke-dasharray:none"
             id="path4121" />
        </g>
      </g>
    </g>
    <g
       transform="matrix(1.25,0,0,-1.25,-260.89756,895.35568)"
       id="g4123">
      <g
         id="g4125"
         clip-path="url(#clipPath4127)">
        <g
           id="g4131"
           transform="translate(482.9681,257.9973)">
          <path
             inkscape:connector-curvature="0"
             d="m 0,0 0,64.796 c 0,0.68 0.277,1.355 0.758,1.837 0.482,0.479 1.156,0.758 1.836,0.758 l 46.31,0 c 0.68,0 1.356,-0.279 1.836,-0.758 0.481,-0.482 0.76,-1.157 0.76,-1.837 L 51.5,0 c 0,-0.683 -0.279,-1.356 -0.76,-1.839 -0.48,-0.478 -1.156,-0.757 -1.836,-0.757 l -46.31,0 c -0.68,0 -1.354,0.279 -1.836,0.757 C 0.277,-1.356 0,-0.683 0,0"
             style="fill:#231f20;fill-opacity:1;fill-rule:evenodd;stroke:none"
             id="path4133" />
        </g>
        <g
           id="g4135"
           transform="translate(484.3821,257.9954)">
          <path
             inkscape:connector-curvature="0"
             d="M 0,0 C 0,-0.315 0.119,-0.612 0.344,-0.837 0.566,-1.061 0.863,-1.182 1.18,-1.182 l 46.308,0 c 0.319,0 0.617,0.121 0.84,0.345 0.225,0.225 0.346,0.522 0.346,0.837 l 0,64.796 c 0,0.319 -0.121,0.615 -0.346,0.84 -0.223,0.223 -0.521,0.344 -0.84,0.344 l -46.308,0 C 0.863,65.98 0.566,65.859 0.344,65.636 0.119,65.411 0,65.115 0,64.796 L 0,0 z"
             style="fill:#ffffff;fill-opacity:1;fill-rule:evenodd;stroke:none"
             id="path4137" />
        </g>
        <g
           id="g4139"
           transform="translate(523.2222,301.0598)">
          <path
             inkscape:connector-curvature="0"
             d="M 0,0 0.021,-4.565 C 0,-10.374 -0.326,-16.347 -3.873,-20.979 c -3.641,-4.668 -5.66,-9.541 -5.66,-15.402 l 0,-3.166 0,-0.971 -9.485,0.041 0,6.701 c 0,5.86 2.02,10.731 5.662,15.4 3.545,4.632 3.871,10.606 3.893,16.413 L -9.576,0 -14.828,-1.798 c -0.287,-0.157 -0.627,-0.207 -0.953,-0.254 -0.987,-0.141 -1.922,0.862 -1.922,1.919 0,0.494 0.203,0.983 0.541,1.334 L -4.938,18.775 7.752,1.201 C 8.088,0.85 8.291,0.361 8.291,-0.133 8.291,-1.19 7.427,-2.147 6.371,-2.053 6.043,-2.022 5.705,-1.955 5.42,-1.798 L 0,0 z"
             style="fill:#231f20;fill-opacity:1;fill-rule:evenodd;stroke:none"
             id="path4141" />
        </g>
        <g
           id="g4143"
           transform="translate(504.7201,314.1067)">
          <path
             inkscape:connector-curvature="0"
             d="m 0,0 c 0,0 -0.432,-7.929 -0.647,-9.298 -0.216,-1.37 -1.859,-8.835 -2.306,-10.956 -0.289,-1.37 -1.586,-9.515 -6.561,-9.515 -4.973,0 -6.269,8.145 -6.557,9.515 -0.449,2.121 -2.091,9.586 -2.308,10.956 C -18.594,-7.929 -19.028,0 -19.028,0 L 0,0 z"
             style="fill:#231f20;fill-opacity:1;fill-rule:evenodd;stroke:none"
             id="path4145" />
        </g>
      </g>
    </g>
  </g>
</svg>
