<?xml version="1.0" encoding="UTF-8" standalone="no"?>
<!-- Created with Inkscape (http://www.inkscape.org/) -->

<svg
   xmlns:dc="http://purl.org/dc/elements/1.1/"
   xmlns:cc="http://creativecommons.org/ns#"
   xmlns:rdf="http://www.w3.org/1999/02/22-rdf-syntax-ns#"
   xmlns:svg="http://www.w3.org/2000/svg"
   xmlns="http://www.w3.org/2000/svg"
   xmlns:sodipodi="http://sodipodi.sourceforge.net/DTD/sodipodi-0.dtd"
   xmlns:inkscape="http://www.inkscape.org/namespaces/inkscape"
   width="90.625"
   height="90.625"
   id="svg4674"
   version="1.1"
   inkscape:version="0.48.3.1 r9886"
   sodipodi:docname="New document 16">
  <defs
     id="defs4676">
    <clipPath
       clipPathUnits="userSpaceOnUse"
       id="clipPath3745">
      <path
         inkscape:connector-curvature="0"
         d="m 26.875,45 513.375,0 0,303.719 -513.375,0 0,-303.719 z"
         id="path3747" />
    </clipPath>
    <clipPath
       clipPathUnits="userSpaceOnUse"
       id="clipPath3733">
      <path
         inkscape:connector-curvature="0"
         d="m 31.399,45 504.327,0 0,303.719 -504.327,0 0,-303.719 z"
         id="path3735" />
    </clipPath>
  </defs>
  <sodipodi:namedview
     id="base"
     pagecolor="#ffffff"
     bordercolor="#666666"
     borderopacity="1.0"
     inkscape:pageopacity="0.0"
     inkscape:pageshadow="2"
     inkscape:zoom="0.35"
     inkscape:cx="45.3125"
     inkscape:cy="45.324685"
     inkscape:document-units="px"
     inkscape:current-layer="layer1"
     showgrid="false"
     fit-margin-top="0"
     fit-margin-left="0"
     fit-margin-right="0"
     fit-margin-bottom="0"
     inkscape:window-width="451"
     inkscape:window-height="398"
     inkscape:window-x="75"
     inkscape:window-y="75"
     inkscape:window-maximized="0" />
  <metadata
     id="metadata4679">
    <rdf:RDF>
      <cc:Work
         rdf:about="">
        <dc:format>image/svg+xml</dc:format>
        <dc:type
           rdf:resource="http://purl.org/dc/dcmitype/StillImage" />
        <dc:title></dc:title>
      </cc:Work>
    </rdf:RDF>
  </metadata>
  <g
     inkscape:label="Layer 1"
     inkscape:groupmode="layer"
     id="layer1"
     transform="translate(-329.6875,-487.06187)">
    <g
       transform="matrix(1.25,0,0,-1.25,289.9155,778.35843)"
       id="g3729">
      <g
         id="g3731"
         clip-path="url(#clipPath3733)">
        <g
           id="g3737"
           transform="translate(104.0676,165.131)">
          <path
             inkscape:connector-curvature="0"
             d="m 0,0 0,63.333 c 0,1.143 -0.48,2.264 -1.279,3.074 -0.778,0.787 -1.842,1.259 -2.951,1.259 l -63.573,0 c -1.09,0 -2.151,-0.476 -2.916,-1.246 C -71.527,65.609 -72,64.481 -72,63.333 l 0,-63.302 c 0,-1.201 0.464,-2.394 1.316,-3.242 0.728,-0.722 1.691,-1.123 2.714,-1.123 l 63.74,0 c 1.091,0 2.142,0.457 2.916,1.225 C -0.494,-2.299 0,-1.16 0,0 z"
             style="fill:none;stroke:#231f20;stroke-width:0.5;stroke-linecap:butt;stroke-linejoin:miter;stroke-miterlimit:4;stroke-opacity:1;stroke-dasharray:none"
             id="path3739" />
        </g>
      </g>
    </g>
    <g
       transform="matrix(1.25,0,0,-1.25,289.9155,778.35843)"
       id="g3741">
      <g
         id="g3743"
         clip-path="url(#clipPath3745)">
        <g
           id="g3749"
           transform="translate(68.0676,231.594)">
          <path
             inkscape:connector-curvature="0"
             d="m 0,0 c 0.912,0.029 1.826,-0.002 2.734,-0.09 2.409,-0.238 4.821,-0.613 7.139,-1.312 7.754,-2.34 14.621,-7.404 19.111,-14.143 3.782,-5.681 5.813,-12.43 5.813,-19.251 0.002,-6.819 -2.022,-13.565 -5.803,-19.241 -3.849,-5.783 -9.412,-10.371 -15.848,-12.994 -6.265,-2.555 -13.248,-3.205 -19.885,-1.914 -6.75,1.316 -13.012,4.674 -17.871,9.539 -4.862,4.863 -8.217,11.131 -9.537,17.883 -1.294,6.635 -0.643,13.613 1.917,19.873 2.672,6.531 7.39,12.191 13.256,16.093 3.694,2.46 7.942,3.963 12.274,4.813 2.208,0.432 4.45,0.683 6.7,0.744"
             style="fill:#bf2519;fill-opacity:1;fill-rule:evenodd;stroke:none"
             id="path3751" />
        </g>
        <g
           id="g3753"
           transform="translate(97.466,202.795)">
          <path
             inkscape:connector-curvature="0"
             d="m 0,0 -58.796,0 c -0.238,-1.236 -0.426,-2.474 -0.521,-3.73 -0.117,-1.51 -0.115,-3.034 0,-4.545 0.093,-1.252 0.281,-2.489 0.521,-3.719 l 58.796,0 c 0.238,1.248 0.412,2.498 0.516,3.764 0.121,1.484 0.121,2.973 0,4.456 C 0.412,-2.504 0.236,-1.25 0,0"
             style="fill:#ffffff;fill-opacity:1;fill-rule:evenodd;stroke:none"
             id="path3755" />
        </g>
        <g
           id="g3757"
           transform="translate(81.2355,218.108)">
          <path
             inkscape:connector-curvature="0"
             d="m 0,0 c -0.666,0 -1.363,-0.155 -1.9,-0.571 -0.961,-0.746 -1.34,-2.068 -1.514,-3.218 -0.135,-0.91 -0.135,-1.842 0,-2.752 0.211,-1.386 0.779,-3.168 2.287,-3.616 1.358,-0.404 2.895,-0.125 3.69,1.132 0.712,1.126 0.953,2.55 0.953,3.865 0,1.293 -0.248,2.742 -0.95,3.851 C 1.982,-0.385 1.072,0 0,0"
             style="fill:#ffffff;fill-opacity:1;fill-rule:evenodd;stroke:none"
             id="path3759" />
        </g>
        <g
           id="g3761"
           transform="translate(56.1369,218.108)">
          <path
             inkscape:connector-curvature="0"
             d="m 0,0 c -0.664,0 -1.365,-0.155 -1.898,-0.571 -0.963,-0.746 -1.342,-2.068 -1.514,-3.218 -0.139,-0.91 -0.137,-1.842 0,-2.752 0.207,-1.386 0.777,-3.168 2.285,-3.616 1.357,-0.404 2.896,-0.125 3.69,1.132 0.712,1.126 0.955,2.55 0.955,3.865 -0.002,1.341 -0.26,2.781 -0.989,3.931 C 1.998,-0.387 0.961,0 0,0"
             style="fill:#ffffff;fill-opacity:1;fill-rule:evenodd;stroke:none"
             id="path3763" />
        </g>
        <g
           id="g3765"
           transform="translate(57.9728,185.768)">
          <path
             inkscape:connector-curvature="0"
             d="m 0,0 -1.541,0 0,-9.971 1.562,0 0,6.707 3.764,-6.707 1.388,0 0,9.998 -1.564,0 0,-6.478 L 0,0 z"
             style="fill:#ffffff;fill-opacity:1;fill-rule:evenodd;stroke:none"
             id="path3767" />
        </g>
        <g
           id="g3769"
           transform="translate(87.675,175.797)">
          <path
             inkscape:connector-curvature="0"
             d="m 0,0 -1.774,4.631 c 0.506,0.264 0.856,0.529 1.172,1.025 0.6,0.93 0.592,2.164 -0.019,3.082 -0.52,0.78 -1.408,1.264 -2.344,1.264 l -3.75,0 0,-10.002 1.565,0 0,4.377 1.791,0 L -1.68,0 0,0 z"
             style="fill:#ffffff;fill-opacity:1;fill-rule:evenodd;stroke:none"
             id="path3771" />
        </g>
        <g
           id="g3773"
           transform="translate(44.0685,217.948)">
          <path
             inkscape:connector-curvature="0"
             d="m 0,0 0,-10 3.014,0 c 0.46,0 0.875,-0.013 1.32,0.157 1.408,0.538 2.051,2.116 2.275,3.492 0.215,1.308 0.124,2.676 -0.289,3.936 -0.291,0.882 -0.9,1.856 -1.8,2.218 C 4.037,-0.002 3.693,0 3.21,0 L 0,0 z"
             style="fill:#ffffff;fill-opacity:1;fill-rule:evenodd;stroke:none"
             id="path3775" />
        </g>
        <g
           id="g3777"
           transform="translate(70.2492,217.915)">
          <path
             inkscape:connector-curvature="0"
             d="m 0,0 -1.539,0 0,-9.967 1.562,0 0,6.706 3.766,-6.706 1.387,0 0,9.994 -1.563,0 0,-6.479 L 0,0 z"
             style="fill:#ffffff;fill-opacity:1;fill-rule:evenodd;stroke:none"
             id="path3779" />
        </g>
        <g
           id="g3781"
           transform="translate(90.4992,216.373)">
          <path
             inkscape:connector-curvature="0"
             d="m 0,0 2.268,0 0,1.575 -6.088,0 0,-1.575 2.257,0 0,-8.425 1.563,0 L 0,0 z"
             style="fill:#ffffff;fill-opacity:1;fill-rule:evenodd;stroke:none"
             id="path3783" />
        </g>
        <g
           id="g3785"
           transform="translate(68.8429,184.225)">
          <path
             inkscape:connector-curvature="0"
             d="m 0,0 2.27,0 0,1.574 -6.09,0 0,-1.574 2.26,0 0,-8.428 1.56,0 L 0,0 z"
             style="fill:#ffffff;fill-opacity:1;fill-rule:evenodd;stroke:none"
             id="path3787" />
        </g>
        <g
           id="g3789"
           transform="translate(48.467,175.797)">
          <path
             inkscape:connector-curvature="0"
             d="m 0,0 6.088,0 0,1.563 -4.527,0 0,2.814 3.218,0 0,1.561 -3.218,0 0,2.49 4.212,0 0,1.574 L 0,10.002 0,0 z"
             style="fill:#ffffff;fill-opacity:1;fill-rule:evenodd;stroke:none"
             id="path3791" />
        </g>
        <g
           id="g3793"
           transform="translate(72.9933,175.797)">
          <path
             inkscape:connector-curvature="0"
             d="m 0,0 6.088,0 0,1.563 -4.526,0 0,2.814 3.219,0 0,1.561 -3.219,0 0,2.49 4.213,0 0,1.574 L 0,10.002 0,0 z"
             style="fill:#ffffff;fill-opacity:1;fill-rule:evenodd;stroke:none"
             id="path3795" />
        </g>
        <g
           id="g3797"
           transform="translate(56.1369,216.547)">
          <path
             inkscape:connector-curvature="0"
             d="m 0,0 c 1.037,0 1.51,-0.826 1.732,-1.738 0.297,-1.22 0.299,-2.506 0,-3.728 -0.15,-0.606 -0.462,-1.38 -1.105,-1.62 -0.854,-0.318 -1.649,-0.008 -2.055,0.8 -0.408,0.81 -0.527,1.788 -0.527,2.687 0,0.897 0.121,1.877 0.529,2.689 C -1.139,-0.34 -0.647,0 0,0"
             style="fill:#bf2519;fill-opacity:1;fill-rule:evenodd;stroke:none"
             id="path3799" />
        </g>
        <g
           id="g3801"
           transform="translate(81.2355,216.547)">
          <path
             inkscape:connector-curvature="0"
             d="m 0,0 c 1.039,0 1.508,-0.826 1.731,-1.738 0.298,-1.22 0.3,-2.508 0,-3.728 -0.149,-0.606 -0.463,-1.38 -1.104,-1.62 -0.855,-0.318 -1.648,-0.008 -2.055,0.8 -0.408,0.81 -0.527,1.788 -0.527,2.687 0,0.897 0.119,1.877 0.529,2.689 C -1.141,-0.34 -0.648,0 0,0"
             style="fill:#bf2519;fill-opacity:1;fill-rule:evenodd;stroke:none"
             id="path3803" />
        </g>
        <g
           id="g3805"
           transform="translate(45.6281,209.547)">
          <path
             inkscape:connector-curvature="0"
             d="m 0,0 0,6.8 1.8,0 C 2.415,6.8 2.853,6.468 3.118,5.924 3.759,4.612 3.784,2.214 3.083,0.924 2.741,0.294 2.306,0 1.601,0 L 0,0 z"
             style="fill:#bf2519;fill-opacity:1;fill-rule:evenodd;stroke:none"
             id="path3807" />
        </g>
        <g
           id="g3809"
           transform="translate(82.5246,181.735)">
          <path
             inkscape:connector-curvature="0"
             d="M 0,0 0,2.5 2.185,2.49 C 2.6,2.488 2.99,2.283 3.219,1.937 3.492,1.527 3.49,0.97 3.219,0.56 2.994,0.216 2.598,0 2.185,0 L 0,0 z"
             style="fill:#bf2519;fill-opacity:1;fill-rule:evenodd;stroke:none"
             id="path3811" />
        </g>
      </g>
    </g>
  </g>
</svg>
