<?xml version="1.0" encoding="UTF-8" standalone="no"?>
<!-- Created with Inkscape (http://www.inkscape.org/) -->

<svg
   xmlns:dc="http://purl.org/dc/elements/1.1/"
   xmlns:cc="http://creativecommons.org/ns#"
   xmlns:rdf="http://www.w3.org/1999/02/22-rdf-syntax-ns#"
   xmlns:svg="http://www.w3.org/2000/svg"
   xmlns="http://www.w3.org/2000/svg"
   xmlns:sodipodi="http://sodipodi.sourceforge.net/DTD/sodipodi-0.dtd"
   xmlns:inkscape="http://www.inkscape.org/namespaces/inkscape"
   width="126.60156"
   height="36.640625"
   id="svg4912"
   version="1.1"
   inkscape:version="0.48.3.1 r9886"
   sodipodi:docname="New document 6">
  <defs
     id="defs4914">
    <clipPath
       clipPathUnits="userSpaceOnUse"
       id="clipPath3875">
      <path
         inkscape:connector-curvature="0"
         d="m 62.625,204.75 513.375,0 0,533.25 -513.375,0 0,-533.25 z"
         id="path3877" />
    </clipPath>
  </defs>
  <sodipodi:namedview
     id="base"
     pagecolor="#ffffff"
     bordercolor="#666666"
     borderopacity="1.0"
     inkscape:pageopacity="0.0"
     inkscape:pageshadow="2"
     inkscape:zoom="0.35"
     inkscape:cx="63.296875"
     inkscape:cy="18.328142"
     inkscape:document-units="px"
     inkscape:current-layer="layer1"
     showgrid="false"
     fit-margin-top="0"
     fit-margin-left="0"
     fit-margin-right="0"
     fit-margin-bottom="0"
     inkscape:window-width="451"
     inkscape:window-height="398"
     inkscape:window-x="25"
     inkscape:window-y="25"
     inkscape:window-maximized="0" />
  <metadata
     id="metadata4917">
    <rdf:RDF>
      <cc:Work
         rdf:about="">
        <dc:format>image/svg+xml</dc:format>
        <dc:type
           rdf:resource="http://purl.org/dc/dcmitype/StillImage" />
        <dc:title></dc:title>
      </cc:Work>
    </rdf:RDF>
  </metadata>
  <g
     inkscape:label="Layer 1"
     inkscape:groupmode="layer"
     id="layer1"
     transform="translate(-311.70312,-514.0497)">
    <g
       transform="matrix(1.25,0,0,-1.25,77.80575,1407.5697)"
       id="g3871">
      <g
         id="g3873"
         clip-path="url(#clipPath3875)">
        <g
           id="g3879"
           transform="translate(194.5554,714.566)">
          <path
             inkscape:connector-curvature="0"
             d="m 0,0 86.4,0 c 3.977,0 7.2,-3.224 7.2,-7.2 l 0,-14.4 c 0,-3.977 -3.223,-7.2 -7.2,-7.2 l -86.4,0 c -3.976,0 -7.2,3.223 -7.2,7.2 l 0,14.4 C -7.2,-3.224 -3.976,0 0,0"
             style="fill:#ffffff;fill-opacity:1;fill-rule:nonzero;stroke:none"
             id="path3881" />
        </g>
        <g
           id="g3883"
           transform="translate(194.5554,714.566)">
          <path
             inkscape:connector-curvature="0"
             d="m 0,0 86.4,0 c 3.977,0 7.2,-3.224 7.2,-7.2 l 0,-14.4 c 0,-3.977 -3.223,-7.2 -7.2,-7.2 l -86.4,0 c -3.976,0 -7.2,3.223 -7.2,7.2 l 0,14.4 C -7.2,-3.224 -3.976,0 0,0 z"
             style="fill:none;stroke:#231f20;stroke-width:0.5;stroke-linecap:butt;stroke-linejoin:miter;stroke-miterlimit:3.86400008;stroke-opacity:1;stroke-dasharray:none"
             id="path3885" />
        </g>
        <g
           id="g3887"
           transform="translate(194.5554,712.1656)">
          <path
             inkscape:connector-curvature="0"
             d="m 0,0 86.4,0 c 2.652,0 4.8,-2.149 4.8,-4.8 l 0,-14.4 c 0,-2.651 -2.148,-4.8 -4.8,-4.8 L 0,-24 c -2.651,0 -4.8,2.149 -4.8,4.8 l 0,14.4 C -4.8,-2.149 -2.651,0 0,0"
             style="fill:#00674c;fill-opacity:1;fill-rule:nonzero;stroke:none"
             id="path3889" />
        </g>
        <g
           id="g3891"
           transform="translate(271.1724,701.9659)">
          <path
             inkscape:connector-curvature="0"
             d="m 0,0 -0.68,2.109 c 0,0 -0.151,0.423 0.181,0.77 0.408,0.423 0.936,0.091 0.936,0.091 L 7.383,-1.816 0.347,-6.633 c 0,0 -0.454,-0.211 -0.846,0.151 -0.316,0.302 -0.181,0.725 -0.181,0.725 l 0.689,2.155 -7.026,0 0,3.604 L 0,0 z"
             style="fill:#ffffff;fill-opacity:1;fill-rule:nonzero;stroke:none"
             id="path3893" />
        </g>
        <g
           id="g3895"
           transform="translate(230.3714,698.648)">
          <path
             inkscape:connector-curvature="0"
             d="m 0,0 c -0.638,0.304 -2.418,0.708 -2.418,-0.708 0,-1.72 1.847,-1.214 2.418,-0.91 L 0,0 z m 0.067,-3.169 0,0.202 c -0.235,-0.202 -0.839,-0.304 -1.377,-0.304 -1.411,0 -2.62,0.911 -2.62,2.597 0,1.989 2.352,2.697 3.896,2.057 0,0 0.034,1.112 -1.041,1.213 C -2.049,2.732 -2.821,2.023 -3.023,1.72 l -0.436,1.483 c 1.746,1.416 5.004,1.046 5.004,-1.685 l 0,-4.687 -1.478,0 z"
             style="fill:#ffffff;fill-opacity:1;fill-rule:nonzero;stroke:none"
             id="path3897" />
        </g>
        <g
           id="g3899"
           transform="translate(222.9244,695.3438)">
          <path
             inkscape:connector-curvature="0"
             d="m 0,0 c -2.414,0 -2.917,1.854 -2.917,3.675 0,1.551 0.503,3.642 2.917,3.642 1.509,0 2.313,-0.742 2.649,-1.753 L 1.107,5.024 C 0.939,5.597 0.604,5.9 0,5.9 -1.173,5.9 -1.374,4.383 -1.374,3.675 -1.374,2.967 -1.173,1.416 0,1.416 c 0.771,0 1.107,0.607 1.207,1.315 L 2.749,2.327 C 2.481,1.079 1.744,0 0,0"
             style="fill:#ffffff;fill-opacity:1;fill-rule:nonzero;stroke:none"
             id="path3901" />
        </g>
        <g
           id="g3903"
           transform="translate(217.0494,695.4786)">
          <path
             inkscape:connector-curvature="0"
             d="M 0,0 0,4.653 C 0,5.563 -0.607,5.766 -1.416,5.766 -2.024,5.732 -2.597,5.395 -2.597,4.585 l 0,-4.585 -1.551,0 0,7.013 1.518,0 0,-0.236 C -1.045,7.789 1.518,6.979 1.518,4.822 L 1.518,0 0,0 z"
             style="fill:#ffffff;fill-opacity:1;fill-rule:nonzero;stroke:none"
             id="path3905" />
        </g>
        <g
           id="g3907"
           transform="translate(237.8894,695.4786)">
          <path
             inkscape:connector-curvature="0"
             d="m 0,0 0,4.653 c 0,0.91 -0.608,1.113 -1.417,1.113 -0.607,-0.034 -1.18,-0.371 -1.18,-1.181 l 0,-4.585 -1.552,0 0,7.013 1.518,0 0,-0.236 C -1.046,7.789 1.517,6.979 1.517,4.822 L 1.517,0 0,0 z"
             style="fill:#ffffff;fill-opacity:1;fill-rule:nonzero;stroke:none"
             id="path3909" />
        </g>
        <g
           id="g3911"
           transform="translate(209.4884,695.4786)">
          <path
             inkscape:connector-curvature="0"
             d="M 0,0 0,0.236 C -1.866,-0.843 -4.173,0.034 -4.173,2.192 l 0,4.821 1.526,0 0,-4.653 c 0,-0.91 0.611,-1.113 1.425,-1.113 0.611,0.034 1.188,0.304 1.188,1.113 l 0,4.653 1.527,0 L 1.493,0 0,0 z"
             style="fill:#ffffff;fill-opacity:1;fill-rule:nonzero;stroke:none"
             id="path3913" />
        </g>
        <g
           id="g3915"
           transform="translate(201.1664,703.1588)">
          <path
             inkscape:connector-curvature="0"
             d="m 0,0 c -0.236,0.236 -0.573,0.404 -0.977,0.404 l -1.718,0 0,-6.534 1.516,0 c 0.505,0 0.808,0.101 1.078,0.37 0.573,0.572 0.876,1.617 0.876,2.897 C 0.775,-1.583 0.472,-0.505 0,0 M 0.64,-7.141 C 0.27,-7.478 -0.236,-7.646 -0.741,-7.68 l -0.539,0 -2.931,0 0,9.6 3.099,0 c 0.977,0 1.348,-0.101 1.853,-0.505 1.011,-0.876 1.583,-2.392 1.583,-4.278 0,-1.92 -0.606,-3.436 -1.684,-4.278"
             style="fill:#ffffff;fill-opacity:1;fill-rule:nonzero;stroke:none"
             id="path3917" />
        </g>
        <g
           id="g3919"
           transform="translate(251.2874,703.585)">
          <path
             inkscape:connector-curvature="0"
             d="m 0,0 c -0.74,0 -1.347,-0.505 -1.347,-1.146 0,-0.572 0.607,-1.043 1.347,-1.043 0.741,0 1.348,0.471 1.348,1.043 C 1.348,-0.505 0.741,0 0,0 m 0,-3.739 c -0.942,0 -1.718,-0.64 -1.718,-1.449 0,-0.909 0.776,-1.65 1.718,-1.65 0.978,0 1.752,0.741 1.752,1.65 0,0.809 -0.808,1.449 -1.752,1.449 m 0,-4.649 c -1.751,0 -3.267,1.482 -3.267,3.234 0,0.909 0.404,1.651 1.112,2.223 -0.472,0.506 -0.708,1.078 -0.708,1.752 0,1.482 1.314,2.728 2.863,2.728 1.55,0 2.898,-1.246 2.898,-2.728 0,-0.674 -0.27,-1.246 -0.742,-1.752 0.742,-0.572 1.112,-1.347 1.112,-2.223 0,-1.752 -1.516,-3.234 -3.268,-3.234"
             style="fill:#ffffff;fill-opacity:1;fill-rule:nonzero;stroke:none"
             id="path3921" />
        </g>
      </g>
    </g>
  </g>
</svg>
