<?xml version="1.0" encoding="UTF-8" standalone="no"?>
<!-- Created with Inkscape (http://www.inkscape.org/) -->

<svg
   xmlns:dc="http://purl.org/dc/elements/1.1/"
   xmlns:cc="http://creativecommons.org/ns#"
   xmlns:rdf="http://www.w3.org/1999/02/22-rdf-syntax-ns#"
   xmlns:svg="http://www.w3.org/2000/svg"
   xmlns="http://www.w3.org/2000/svg"
   xmlns:sodipodi="http://sodipodi.sourceforge.net/DTD/sodipodi-0.dtd"
   xmlns:inkscape="http://www.inkscape.org/namespaces/inkscape"
   width="162.61719"
   height="36.640625"
   id="svg5013"
   version="1.1"
   inkscape:version="0.48.3.1 r9886"
   sodipodi:docname="New document 8">
  <defs
     id="defs5015">
    <clipPath
       clipPathUnits="userSpaceOnUse"
       id="clipPath3931">
      <path
         inkscape:connector-curvature="0"
         d="m 62.625,204.75 513.375,0 0,533.25 -513.375,0 0,-533.25 z"
         id="path3933" />
    </clipPath>
  </defs>
  <sodipodi:namedview
     id="base"
     pagecolor="#ffffff"
     bordercolor="#666666"
     borderopacity="1.0"
     inkscape:pageopacity="0.0"
     inkscape:pageshadow="2"
     inkscape:zoom="0.35"
     inkscape:cx="81.29625"
     inkscape:cy="18.328142"
     inkscape:document-units="px"
     inkscape:current-layer="layer1"
     showgrid="false"
     fit-margin-top="0"
     fit-margin-left="0"
     fit-margin-right="0"
     fit-margin-bottom="0"
     inkscape:window-width="451"
     inkscape:window-height="398"
     inkscape:window-x="75"
     inkscape:window-y="75"
     inkscape:window-maximized="0" />
  <metadata
     id="metadata5018">
    <rdf:RDF>
      <cc:Work
         rdf:about="">
        <dc:format>image/svg+xml</dc:format>
        <dc:type
           rdf:resource="http://purl.org/dc/dcmitype/StillImage" />
        <dc:title></dc:title>
      </cc:Work>
    </rdf:RDF>
  </metadata>
  <g
     inkscape:label="Layer 1"
     inkscape:groupmode="layer"
     id="layer1"
     transform="translate(-293.70375,-514.0497)">
    <g
       transform="matrix(1.25,0,0,-1.25,-72.087375,1407.5697)"
       id="g3927">
      <g
         id="g3929"
         clip-path="url(#clipPath3931)">
        <g
           id="g3935"
           transform="translate(300.0704,714.566)">
          <path
             inkscape:connector-curvature="0"
             d="m 0,0 115.2,0 c 3.977,0 7.2,-3.224 7.2,-7.2 l 0,-14.4 c 0,-3.977 -3.223,-7.2 -7.2,-7.2 L 0,-28.8 c -3.976,0 -7.201,3.223 -7.201,7.2 l 0,14.4 C -7.201,-3.224 -3.976,0 0,0"
             style="fill:#ffffff;fill-opacity:1;fill-rule:evenodd;stroke:none"
             id="path3937" />
        </g>
        <g
           id="g3939"
           transform="translate(300.0704,714.566)">
          <path
             inkscape:connector-curvature="0"
             d="m 0,0 115.2,0 c 3.977,0 7.2,-3.224 7.2,-7.2 l 0,-14.4 c 0,-3.977 -3.223,-7.2 -7.2,-7.2 L 0,-28.8 c -3.976,0 -7.201,3.223 -7.201,7.2 l 0,14.4 C -7.201,-3.224 -3.976,0 0,0 z"
             style="fill:none;stroke:#231f20;stroke-width:0.5;stroke-linecap:butt;stroke-linejoin:miter;stroke-miterlimit:3.86400008;stroke-opacity:1;stroke-dasharray:none"
             id="path3941" />
        </g>
        <g
           id="g3943"
           transform="translate(300.0704,712.1661)">
          <path
             inkscape:connector-curvature="0"
             d="m 0,0 115.2,0 c 2.651,0 4.8,-2.149 4.8,-4.8 l 0,-14.4 c 0,-2.651 -2.149,-4.8 -4.8,-4.8 L 0,-24 c -2.651,0 -4.8,2.149 -4.8,4.8 l 0,14.4 C -4.8,-2.149 -2.651,0 0,0"
             style="fill:#00674c;fill-opacity:1;fill-rule:evenodd;stroke:none"
             id="path3945" />
        </g>
        <g
           id="g3947"
           transform="translate(309.8544,701.9659)">
          <path
             inkscape:connector-curvature="0"
             d="m 0,0 0.679,2.109 c 0,0 0.151,0.423 -0.181,0.771 -0.409,0.423 -0.936,0.09 -0.936,0.09 l -6.946,-4.786 7.036,-4.817 c 0,0 0.453,-0.211 0.846,0.151 0.317,0.302 0.181,0.725 0.181,0.725 l -0.689,2.155 7.025,0 0,3.604 L 0,0 z"
             style="fill:#ffffff;fill-opacity:1;fill-rule:nonzero;stroke:none"
             id="path3949" />
        </g>
        <g
           id="g3951"
           transform="translate(353.1144,693.9288)">
          <path
             inkscape:connector-curvature="0"
             d="m 0,0 c -1.861,0 -3.42,1.263 -3.843,2.964 l 3.752,0.791 c 0,0 0.331,0.101 0.365,0.281 C 0.308,4.215 0.142,4.453 0.142,4.453 L -2.025,7.232 C -1.433,7.58 -0.74,7.78 0,7.78 2.185,7.78 3.957,6.039 3.957,3.89 3.957,1.742 2.185,0 0,0 m -3.956,3.89 c 0,1.157 0.513,2.194 1.328,2.907 L -0.732,4.34 -3.951,3.687 C -3.954,3.754 -3.956,3.822 -3.956,3.89 M -6.17,3.237 -4.328,9 -3.154,7.479 C -4.177,6.609 -4.825,5.324 -4.825,3.89 c 0,-0.127 0.006,-0.252 0.016,-0.377 L -6.17,3.237 z m -0.647,0.552 -0.182,0.968 0.366,0 0,0.36 -1.153,0 0,-0.36 0.338,0 0.196,-0.815 -4.667,4.962 0.183,0.608 6.733,0 -1.814,-5.723 z m -4.536,-0.007 c 0,-2.149 -1.771,-3.89 -3.956,-3.89 -2.185,0 -3.957,1.741 -3.957,3.89 0,2.148 1.772,3.89 3.957,3.89 0.716,0 1.388,-0.189 1.967,-0.516 -0.284,-0.699 -0.762,-1.708 -1.34,-2.277 -0.18,-0.176 -0.479,-0.528 -0.667,-0.578 -0.705,-0.186 -0.506,-0.787 -0.43,-0.861 0.068,-0.067 0.823,-0.472 0.978,0.349 0,0 0.148,0.188 0.668,0.686 0.743,0.711 1.209,1.576 1.475,2.195 0.801,-0.712 1.305,-1.742 1.305,-2.888 M 0,8.635 c -0.939,0 -1.815,-0.265 -2.556,-0.721 l -1.505,1.93 0.211,0.719 c 0,0 0.562,0.138 1.166,0.552 1.378,0.954 -0.955,0.594 -1.77,0.553 -1.055,-0.055 -2.011,0 -2.011,-0.304 0,-0.318 1.294,-0.65 1.828,-0.65 l -0.127,-0.442 -6.733,0 0.576,1.769 -0.506,0.484 0.239,0.248 1.799,0 0,0.664 -2.066,0 -0.914,-0.912 0.577,-0.581 -1.25,-3.973 c -0.676,0.354 -1.447,0.555 -2.267,0.555 -2.665,0 -4.826,-2.124 -4.826,-4.744 0,-2.621 2.161,-4.745 4.826,-4.745 2.665,0 4.825,2.124 4.825,4.745 0,1.525 -0.732,2.881 -1.87,3.749 l 0.154,0.502 4.737,-5.017 c 0,0 -0.099,-0.318 0.099,-0.595 0.14,-0.193 0.309,-0.29 0.534,-0.317 l 0.239,-1.327 -0.281,0 0,-0.346 1.152,0 0,0.346 -0.365,0 -0.352,1.396 c 0.084,0.027 0.141,0.082 0.211,0.137 0.056,0.042 0.141,0.18 0.141,0.18 l 1.392,0.295 C -4.186,0.698 -2.278,-0.854 0,-0.854 2.665,-0.854 4.826,1.27 4.826,3.89 4.826,6.511 2.665,8.635 0,8.635"
             style="fill:#ffffff;fill-opacity:1;fill-rule:evenodd;stroke:none"
             id="path3953" />
        </g>
        <g
           id="g3955"
           transform="translate(379.4444,698.5352)">
          <path
             inkscape:connector-curvature="0"
             d="m 0,0 c -0.638,0.304 -2.418,0.708 -2.418,-0.708 0,-1.72 1.848,-1.214 2.418,-0.91 L 0,0 z m 0.067,-3.169 0,0.202 c -0.235,-0.202 -0.84,-0.304 -1.377,-0.304 -1.41,0 -2.619,0.911 -2.619,2.597 0,1.989 2.351,2.697 3.896,2.056 0,0 0.033,1.113 -1.041,1.214 C -2.049,2.732 -2.821,2.023 -3.023,1.72 l -0.436,1.483 c 1.746,1.416 5.004,1.046 5.004,-1.685 l 0,-4.687 -1.478,0 z"
             style="fill:#ffffff;fill-opacity:1;fill-rule:nonzero;stroke:none"
             id="path3957" />
        </g>
        <g
           id="g3959"
           transform="translate(390.8064,695.3658)">
          <path
             inkscape:connector-curvature="0"
             d="m 0,0 0,4.552 c 0,0.91 -0.471,1.214 -1.281,1.214 -0.607,0 -1.113,-0.405 -1.113,-1.214 l 0,-4.552 -1.619,0 0,4.552 c 0,0.91 -0.472,1.214 -1.315,1.214 -0.607,-0.034 -1.08,-0.405 -1.08,-1.214 l 0,-4.552 -1.585,0 0,7.013 1.552,0 0,-0.303 c 1.012,0.775 2.596,0.641 3.44,-0.337 1.18,1.551 4.52,0.877 4.52,-1.619 L 1.519,0 0,0 z"
             style="fill:#ffffff;fill-opacity:1;fill-rule:nonzero;stroke:none"
             id="path3961" />
        </g>
        <g
           id="g3963"
           transform="translate(405.5244,695.3658)">
          <path
             inkscape:connector-curvature="0"
             d="M 0,0 0,0.236 C -1.866,-0.843 -4.173,0.034 -4.173,2.192 l 0,4.821 1.527,0 0,-4.653 c 0,-0.91 0.611,-1.112 1.424,-1.112 0.612,0.033 1.188,0.303 1.188,1.112 l 0,4.653 1.527,0 L 1.493,0 0,0 z"
             style="fill:#ffffff;fill-opacity:1;fill-rule:nonzero;stroke:none"
             id="path3965" />
        </g>
        <g
           id="g3967"
           transform="translate(396.8954,701.132)">
          <path
             inkscape:connector-curvature="0"
             d="m 0,0 c -0.434,0 -0.804,-0.068 -1.172,-0.506 l 0,-3.54 c 0.368,-0.372 0.738,-0.506 1.273,-0.473 1.039,0.034 1.34,1.315 1.374,2.293 C 1.508,-1.214 1.173,-0.034 0,0 m 0.135,-5.935 c -0.536,0 -0.871,0.101 -1.341,0.371 l 0,-2.225 -1.541,-0.674 0,9.71 1.541,0 0,-0.236 c 0.168,0.169 0.805,0.371 1.273,0.405 2.279,0.202 2.916,-1.787 2.949,-3.642 0,-1.989 -0.804,-3.709 -2.881,-3.709"
             style="fill:#ffffff;fill-opacity:1;fill-rule:nonzero;stroke:none"
             id="path3969" />
        </g>
        <g
           id="g3971"
           transform="translate(371.1774,695.1973)">
          <path
             inkscape:connector-curvature="0"
             d="m 0,0 c -1.414,0 -2.324,0.539 -2.93,1.718 -0.438,0.842 -0.707,2.055 -0.707,3.267 0,1.517 0.404,3.032 1.078,3.874 0.572,0.707 1.381,1.078 2.459,1.078 1.448,0 2.358,-0.606 2.998,-1.954 L 1.483,7.377 C 0.944,8.186 0.641,8.388 -0.1,8.388 c -0.775,0 -1.281,-0.337 -1.617,-1.18 -0.236,-0.572 -0.371,-1.414 -0.371,-2.223 0,-1.044 0.236,-2.088 0.607,-2.694 0.337,-0.505 0.774,-0.741 1.448,-0.741 0.64,0 1.111,0.337 1.483,1.111 L 2.898,2.122 C 2.326,0.708 1.382,0 0,0"
             style="fill:#ffffff;fill-opacity:1;fill-rule:nonzero;stroke:none"
             id="path3973" />
        </g>
        <g
           id="g3975"
           transform="translate(410.4324,695.2349)">
          <path
             inkscape:connector-curvature="0"
             d="m 0,0 c -1.017,-0.002 -1.629,0.435 -2.071,1.109 l 1.084,0.912 c 0.34,-0.438 0.781,-0.74 1.222,-0.604 0.644,0.169 0.711,0.776 0.201,1.315 -0.918,1.043 -2.377,1.479 -2.481,2.558 -0.07,0.944 0.438,1.72 1.454,1.958 0.814,0.204 1.832,0.004 2.648,-0.973 L 0.974,5.397 c 0,0 -0.748,0.875 -1.256,0.368 C -1.129,4.955 2.604,4.051 2.439,1.961 2.372,0.915 1.527,0.003 0,0"
             style="fill:#ffffff;fill-opacity:1;fill-rule:nonzero;stroke:none"
             id="path3977" />
        </g>
      </g>
    </g>
  </g>
</svg>
