<?xml version="1.0" encoding="UTF-8" standalone="no"?>
<!-- Created with Inkscape (http://www.inkscape.org/) -->

<svg
   xmlns:dc="http://purl.org/dc/elements/1.1/"
   xmlns:cc="http://creativecommons.org/ns#"
   xmlns:rdf="http://www.w3.org/1999/02/22-rdf-syntax-ns#"
   xmlns:svg="http://www.w3.org/2000/svg"
   xmlns="http://www.w3.org/2000/svg"
   xmlns:sodipodi="http://sodipodi.sourceforge.net/DTD/sodipodi-0.dtd"
   xmlns:inkscape="http://www.inkscape.org/namespaces/inkscape"
   width="180.61012"
   height="36.640625"
   id="svg5125"
   version="1.1"
   inkscape:version="0.48.3.1 r9886"
   sodipodi:docname="New document 10">
  <defs
     id="defs5127">
    <clipPath
       clipPathUnits="userSpaceOnUse"
       id="clipPath4011">
      <path
         inkscape:connector-curvature="0"
         d="m 62.625,204.75 513.375,0 0,533.25 -513.375,0 0,-533.25 z"
         id="path4013" />
    </clipPath>
    <clipPath
       clipPathUnits="userSpaceOnUse"
       id="clipPath3999">
      <path
         inkscape:connector-curvature="0"
         d="m 67.19,205.413 504.244,0 0,531.923 -504.244,0 0,-531.923 z"
         id="path4001" />
    </clipPath>
    <clipPath
       clipPathUnits="userSpaceOnUse"
       id="clipPath3987">
      <path
         inkscape:connector-curvature="0"
         d="m 62.625,204.75 513.375,0 0,533.25 -513.375,0 0,-533.25 z"
         id="path3989" />
    </clipPath>
  </defs>
  <sodipodi:namedview
     id="base"
     pagecolor="#ffffff"
     bordercolor="#666666"
     borderopacity="1.0"
     inkscape:pageopacity="0.0"
     inkscape:pageshadow="2"
     inkscape:zoom="0.35"
     inkscape:cx="90.297875"
     inkscape:cy="18.328142"
     inkscape:document-units="px"
     inkscape:current-layer="layer1"
     showgrid="false"
     fit-margin-top="0"
     fit-margin-left="0"
     fit-margin-right="0"
     fit-margin-bottom="0"
     inkscape:window-width="451"
     inkscape:window-height="398"
     inkscape:window-x="125"
     inkscape:window-y="125"
     inkscape:window-maximized="0" />
  <metadata
     id="metadata5130">
    <rdf:RDF>
      <cc:Work
         rdf:about="">
        <dc:format>image/svg+xml</dc:format>
        <dc:type
           rdf:resource="http://purl.org/dc/dcmitype/StillImage" />
        <dc:title></dc:title>
      </cc:Work>
    </rdf:RDF>
  </metadata>
  <g
     inkscape:label="Layer 1"
     inkscape:groupmode="layer"
     id="layer1"
     transform="translate(-284.70212,-514.0497)">
    <g
       transform="matrix(1.25,0,0,-1.25,-248.98025,1407.5697)"
       id="g3983">
      <g
         id="g3985"
         clip-path="url(#clipPath3987)">
        <g
           id="g3991"
           transform="translate(434.3834,714.566)">
          <path
             inkscape:connector-curvature="0"
             d="m 0,0 129.601,0 c 3.977,0 7.2,-3.224 7.2,-7.2 l 0,-14.4 c 0,-3.977 -3.223,-7.2 -7.2,-7.2 L 0,-28.8 c -3.976,0 -7.199,3.223 -7.199,7.2 l 0,14.4 C -7.199,-3.224 -3.976,0 0,0"
             style="fill:#ffffff;fill-opacity:1;fill-rule:evenodd;stroke:none"
             id="path3993" />
        </g>
      </g>
    </g>
    <g
       transform="matrix(1.25,0,0,-1.25,-248.98025,1407.5697)"
       id="g3995">
      <g
         id="g3997"
         clip-path="url(#clipPath3999)">
        <g
           id="g4003"
           transform="translate(434.3834,714.566)">
          <path
             inkscape:connector-curvature="0"
             d="m 0,0 129.601,0 c 3.977,0 7.2,-3.224 7.2,-7.2 l 0,-14.4 c 0,-3.977 -3.223,-7.2 -7.2,-7.2 L 0,-28.8 c -3.976,0 -7.199,3.223 -7.199,7.2 l 0,14.4 C -7.199,-3.224 -3.976,0 0,0 z"
             style="fill:none;stroke:#231f20;stroke-width:0.5;stroke-linecap:butt;stroke-linejoin:miter;stroke-miterlimit:3.86400008;stroke-opacity:1;stroke-dasharray:none"
             id="path4005" />
        </g>
      </g>
    </g>
    <g
       transform="matrix(1.25,0,0,-1.25,-248.98025,1407.5697)"
       id="g4007">
      <g
         id="g4009"
         clip-path="url(#clipPath4011)">
        <g
           id="g4015"
           transform="translate(434.3834,712.1656)">
          <path
             inkscape:connector-curvature="0"
             d="m 0,0 129.601,0 c 2.651,0 4.8,-2.148 4.8,-4.8 l 0,-14.4 c 0,-2.651 -2.149,-4.8 -4.8,-4.8 L 0,-24 c -2.65,0 -4.798,2.149 -4.798,4.8 l 0,14.4 C -4.798,-2.148 -2.65,0 0,0"
             style="fill:#00674c;fill-opacity:1;fill-rule:evenodd;stroke:none"
             id="path4017" />
        </g>
        <g
           id="g4019"
           transform="translate(554.2004,698.3658)">
          <path
             inkscape:connector-curvature="0"
             d="m 0,0 -0.679,-2.109 c 0,0 -0.151,-0.423 0.181,-0.771 0.408,-0.422 0.936,-0.09 0.936,-0.09 L 7.384,1.816 0.347,6.633 c 0,0 -0.453,0.212 -0.845,-0.151 C -0.816,6.18 -0.679,5.757 -0.679,5.757 l 0.689,-2.155 -7.026,0 0,-3.604 L 0,0 z"
             style="fill:#ffffff;fill-opacity:1;fill-rule:nonzero;stroke:none"
             id="path4021" />
        </g>
        <g
           id="g4023"
           transform="translate(437.6534,697.8189)">
          <path
             inkscape:connector-curvature="0"
             d="m 0,0 c 0,2.148 1.771,3.89 3.957,3.89 0.74,0 1.432,-0.2 2.024,-0.548 L 3.814,0.563 c 0,0 -0.166,-0.238 -0.132,-0.417 0.035,-0.18 0.366,-0.281 0.366,-0.281 L 7.799,-0.926 C 7.377,-2.627 5.816,-3.89 3.957,-3.89 1.771,-3.89 0,-2.148 0,0 M 7.908,-0.203 4.688,0.45 6.584,2.907 C 7.399,2.194 7.913,1.156 7.913,0 c 0,-0.068 -0.002,-0.136 -0.005,-0.203 m 0.858,-0.174 c 0.009,0.124 0.016,0.25 0.016,0.377 0,1.435 -0.648,2.719 -1.671,3.589 l 1.174,1.521 1.841,-5.763 -1.36,0.276 z m 0.193,5.999 6.734,0 0.182,-0.608 -4.666,-4.962 0.196,0.815 0.337,0 0,0.36 -1.152,0 0,-0.36 0.365,0 -0.182,-0.968 -1.814,5.723 z m 7.656,-2.843 c 0.266,-0.618 0.732,-1.483 1.475,-2.194 0.519,-0.498 0.668,-0.686 0.668,-0.686 0.155,-0.821 0.91,-0.416 0.978,-0.349 0.074,0.074 0.275,0.675 -0.43,0.861 -0.188,0.05 -0.488,0.402 -0.667,0.578 -0.579,0.569 -1.057,1.577 -1.34,2.277 0.579,0.327 1.25,0.515 1.967,0.515 2.185,0 3.957,-1.741 3.957,-3.889 0,-2.149 -1.772,-3.89 -3.957,-3.89 -2.186,0 -3.958,1.741 -3.958,3.89 0,1.146 0.505,2.175 1.307,2.887 M -0.869,0 c 0,-2.62 2.16,-4.745 4.826,-4.745 2.277,0 4.185,1.553 4.691,3.64 l 1.394,-0.294 c 0,0 0.084,-0.139 0.141,-0.18 0.069,-0.056 0.125,-0.111 0.209,-0.139 l -0.35,-1.395 -0.366,0 0,-0.346 1.153,0 0,0.346 -0.281,0 0.239,1.326 c 0.225,0.028 0.394,0.125 0.533,0.318 0.197,0.277 0.1,0.595 0.1,0.595 l 4.736,5.017 0.154,-0.502 c -1.137,-0.868 -1.871,-2.224 -1.871,-3.749 0,-2.621 2.161,-4.745 4.827,-4.745 2.665,0 4.825,2.124 4.825,4.745 0,2.62 -2.16,4.744 -4.825,4.744 -0.82,0 -1.591,-0.201 -2.267,-0.556 l -1.25,3.974 0.576,0.581 -0.913,0.912 -2.066,0 0,-0.663 1.798,0 0.24,-0.249 -0.507,-0.484 0.577,-1.769 -6.733,0 -0.127,0.442 c 0.534,0 1.828,0.332 1.828,0.65 0,0.304 -0.957,0.249 -2.011,0.304 C 7.596,7.819 5.262,8.179 6.641,7.225 7.244,6.811 7.807,6.672 7.807,6.672 L 8.017,5.953 6.513,4.023 C 5.771,4.48 4.895,4.745 3.957,4.745 1.291,4.745 -0.869,2.62 -0.869,0"
             style="fill:#ffffff;fill-opacity:1;fill-rule:evenodd;stroke:none"
             id="path4025" />
        </g>
        <g
           id="g4027"
           transform="translate(536.0504,698.1949)">
          <path
             inkscape:connector-curvature="0"
             d="M 0,0 C 0,0.417 -0.179,0.757 -0.538,1.021 -0.871,1.271 -1.267,1.396 -1.728,1.396 -2.19,1.396 -2.587,1.271 -2.92,1.021 -3.278,0.757 -3.458,0.417 -3.458,0 c 0,-0.417 0.18,-0.76 0.538,-1.03 0.333,-0.244 0.73,-0.366 1.192,-0.366 0.461,0 0.857,0.122 1.19,0.366 C -0.179,-0.76 0,-0.417 0,0 m 1.534,0.01 c 0,-0.813 -0.349,-1.514 -1.046,-2.104 -0.665,-0.556 -1.405,-0.835 -2.216,-0.835 -0.814,0 -1.542,0.259 -2.189,0.778 -0.716,0.57 -1.074,1.288 -1.074,2.152 0,1.339 0.278,2.569 0.835,3.69 0.653,1.319 1.648,2.379 2.985,3.18 l 0.835,-1.24 C -0.885,5.266 -1.398,4.814 -1.871,4.276 -2.364,3.713 -2.665,3.219 -2.774,2.797 c 0.333,0.088 0.682,0.132 1.046,0.132 0.889,0 1.643,-0.256 2.264,-0.768 C 1.202,1.61 1.534,0.893 1.534,0.01"
             style="fill:#ffffff;fill-opacity:1;fill-rule:nonzero;stroke:none"
             id="path4029" />
        </g>
        <g
           id="g4031"
           transform="translate(486.7134,698.5582)">
          <path
             inkscape:connector-curvature="0"
             d="m 0,0 c -0.638,0.303 -2.418,0.708 -2.418,-0.708 0,-1.72 1.847,-1.214 2.418,-0.911 L 0,0 z m 0.067,-3.17 0,0.203 c -0.235,-0.203 -0.839,-0.304 -1.377,-0.304 -1.41,0 -2.619,0.911 -2.619,2.597 0,1.989 2.351,2.697 3.896,2.056 0,0 0.033,1.113 -1.041,1.214 -0.974,0.135 -1.747,-0.573 -1.949,-0.877 l -0.436,1.484 c 1.747,1.416 5.004,1.045 5.004,-1.686 l 0,-4.687 -1.478,0 z"
             style="fill:#ffffff;fill-opacity:1;fill-rule:nonzero;stroke:none"
             id="path4033" />
        </g>
        <g
           id="g4035"
           transform="translate(491.2494,698.9288)">
          <path
             inkscape:connector-curvature="0"
             d="m 0,0 c 0.034,-0.978 0.337,-2.259 1.381,-2.292 0.539,-0.035 0.91,0.101 1.281,0.471 l 0,3.541 C 2.257,2.158 1.92,2.226 1.482,2.226 0.303,2.192 -0.034,1.012 0,0 M -1.549,0 C -1.516,1.854 -0.91,3.844 1.381,3.642 1.853,3.608 2.527,3.406 2.695,3.237 l 0,2.259 1.517,0.742 0,-9.779 -1.517,0 0,0.203 c -0.471,-0.27 -0.809,-0.371 -1.348,-0.371 -2.122,0 -2.93,1.72 -2.896,3.709"
             style="fill:#ffffff;fill-opacity:1;fill-rule:nonzero;stroke:none"
             id="path4037" />
        </g>
        <path
           inkscape:connector-curvature="0"
           d="m 497.38,702.402 1.537,0 0,-7.014 -1.537,0 0,7.014 z m 0.769,1.18 c -0.439,0 -0.81,0.337 -0.81,0.776 0,0.438 0.371,0.809 0.81,0.809 0.437,0 0.809,-0.371 0.809,-0.809 0,-0.439 -0.372,-0.776 -0.809,-0.776"
           style="fill:#ffffff;fill-opacity:1;fill-rule:nonzero;stroke:none"
           id="path4039" />
        <g
           id="g4041"
           transform="translate(516.3214,695.3883)">
          <path
             inkscape:connector-curvature="0"
             d="m 0,0 0,4.552 c 0,0.91 -0.473,1.214 -1.282,1.214 -0.607,0 -1.113,-0.405 -1.113,-1.214 l 0,-4.552 -1.619,0 0,4.552 c 0,0.91 -0.472,1.214 -1.316,1.214 C -5.937,5.732 -6.408,5.361 -6.408,4.552 l 0,-4.552 -1.586,0 0,7.014 1.551,0 0,-0.304 c 1.012,0.776 2.597,0.641 3.441,-0.337 1.18,1.551 4.519,0.877 4.519,-1.619 L 1.517,0 0,0 z"
             style="fill:#ffffff;fill-opacity:1;fill-rule:nonzero;stroke:none"
             id="path4043" />
        </g>
        <g
           id="g4045"
           transform="translate(482.0034,695.5573)">
          <path
             inkscape:connector-curvature="0"
             d="m 0,0 c -0.509,-0.236 -0.782,-0.304 -1.155,-0.304 -1.123,-0.067 -1.463,0.81 -1.463,1.821 l 0,3.912 -1.019,0 0,1.416 1.019,0 0,2.023 1.496,0.741 0,-2.764 1.225,0 0,-1.383 -1.225,0 0,-3.709 c 0,-0.472 0.069,-0.674 0.51,-0.674 0.341,0 0.511,0.101 0.817,0.337 L 0,0 z"
             style="fill:#ffffff;fill-opacity:1;fill-rule:nonzero;stroke:none"
             id="path4047" />
        </g>
        <g
           id="g4049"
           transform="translate(504.9154,695.3887)">
          <path
             inkscape:connector-curvature="0"
             d="M 0,0 0,0.236 C -1.868,-0.843 -4.174,0.034 -4.174,2.191 l 0,4.822 1.527,0 0,-4.653 c 0,-0.91 0.61,-1.112 1.424,-1.112 0.611,0.033 1.187,0.303 1.187,1.112 l 0,4.653 1.528,0 L 1.492,0 0,0 z"
             style="fill:#ffffff;fill-opacity:1;fill-rule:nonzero;stroke:none"
             id="path4051" />
        </g>
        <g
           id="g4053"
           transform="translate(476.8464,695.9732)">
          <path
             inkscape:connector-curvature="0"
             d="m 0,0 c -0.539,-0.472 -1.28,-0.741 -2.089,-0.741 -1.65,0 -2.863,0.976 -3.503,2.425 l 1.449,0.539 c 0.404,-0.909 1.145,-1.415 2.054,-1.415 0.876,0 1.483,0.607 1.483,1.415 0,1.28 -1.483,1.482 -2.729,1.988 -0.573,0.235 -1.852,0.808 -1.852,2.391 0,1.886 1.279,2.594 2.998,2.594 1.347,0 2.257,-0.775 2.728,-1.954 L -0.808,6.838 c 0,0 -0.337,0.808 -1.415,0.842 C -2.93,7.713 -3.773,7.444 -3.705,6.568 -3.57,4.783 0.944,5.962 0.944,2.19 0.944,1.314 0.607,0.539 0,0"
             style="fill:#ffffff;fill-opacity:1;fill-rule:nonzero;stroke:none"
             id="path4055" />
        </g>
      </g>
    </g>
  </g>
</svg>
