<?xml version="1.0" encoding="UTF-8" standalone="no"?>
<!-- Created with Inkscape (http://www.inkscape.org/) -->

<svg
   xmlns:dc="http://purl.org/dc/elements/1.1/"
   xmlns:cc="http://creativecommons.org/ns#"
   xmlns:rdf="http://www.w3.org/1999/02/22-rdf-syntax-ns#"
   xmlns:svg="http://www.w3.org/2000/svg"
   xmlns="http://www.w3.org/2000/svg"
   xmlns:sodipodi="http://sodipodi.sourceforge.net/DTD/sodipodi-0.dtd"
   xmlns:inkscape="http://www.inkscape.org/namespaces/inkscape"
   width="198.59375"
   height="72.617188"
   id="svg6128"
   version="1.1"
   inkscape:version="0.48.3.1 r9886"
   sodipodi:docname="New document 20">
  <defs
     id="defs6130">
    <clipPath
       clipPathUnits="userSpaceOnUse"
       id="clipPath4193">
      <path
         inkscape:connector-curvature="0"
         d="m 62.625,204.75 513.375,0 0,533.25 -513.375,0 0,-533.25 z"
         id="path4195" />
    </clipPath>
    <clipPath
       clipPathUnits="userSpaceOnUse"
       id="clipPath4181">
      <path
         inkscape:connector-curvature="0"
         d="m 67.19,205.413 504.244,0 0,531.923 -504.244,0 0,-531.923 z"
         id="path4183" />
    </clipPath>
    <clipPath
       clipPathUnits="userSpaceOnUse"
       id="clipPath4169">
      <path
         inkscape:connector-curvature="0"
         d="m 62.625,204.75 513.375,0 0,533.25 -513.375,0 0,-533.25 z"
         id="path4171" />
    </clipPath>
  </defs>
  <sodipodi:namedview
     id="base"
     pagecolor="#ffffff"
     bordercolor="#666666"
     borderopacity="1.0"
     inkscape:pageopacity="0.0"
     inkscape:pageshadow="2"
     inkscape:zoom="0.35"
     inkscape:cx="99.29562"
     inkscape:cy="36.30468"
     inkscape:document-units="px"
     inkscape:current-layer="layer1"
     showgrid="false"
     fit-margin-top="0"
     fit-margin-left="0"
     fit-margin-right="0"
     fit-margin-bottom="0"
     inkscape:window-width="451"
     inkscape:window-height="398"
     inkscape:window-x="125"
     inkscape:window-y="125"
     inkscape:window-maximized="0" />
  <metadata
     id="metadata6133">
    <rdf:RDF>
      <cc:Work
         rdf:about="">
        <dc:format>image/svg+xml</dc:format>
        <dc:type
           rdf:resource="http://purl.org/dc/dcmitype/StillImage" />
        <dc:title></dc:title>
      </cc:Work>
    </rdf:RDF>
  </metadata>
  <g
     inkscape:label="Layer 1"
     inkscape:groupmode="layer"
     id="layer1"
     transform="translate(-275.70438,-496.04967)">
    <g
       transform="matrix(1.25,0,0,-1.25,191.69863,1184.4903)"
       id="g4165">
      <g
         id="g4167"
         clip-path="url(#clipPath4169)">
        <g
           id="g4173"
           transform="translate(74.6421,550.5025)">
          <path
             inkscape:connector-curvature="0"
             d="m 0,0 143.999,0 c 3.976,0 7.199,-3.224 7.199,-7.2 l 0,-43.2 c 0,-3.976 -3.223,-7.2 -7.199,-7.2 L 0,-57.6 c -3.977,0 -7.2,3.224 -7.2,7.2 l 0,43.2 C -7.2,-3.224 -3.977,0 0,0"
             style="fill:#ffffff;fill-opacity:1;fill-rule:evenodd;stroke:none"
             id="path4175" />
        </g>
      </g>
    </g>
    <g
       transform="matrix(1.25,0,0,-1.25,191.69863,1184.4903)"
       id="g4177">
      <g
         id="g4179"
         clip-path="url(#clipPath4181)">
        <g
           id="g4185"
           transform="translate(74.6421,550.5025)">
          <path
             inkscape:connector-curvature="0"
             d="m 0,0 143.999,0 c 3.976,0 7.199,-3.224 7.199,-7.2 l 0,-43.2 c 0,-3.976 -3.223,-7.2 -7.199,-7.2 L 0,-57.6 c -3.977,0 -7.2,3.224 -7.2,7.2 l 0,43.2 C -7.2,-3.224 -3.977,0 0,0 z"
             style="fill:none;stroke:#231f20;stroke-width:0.5;stroke-linecap:butt;stroke-linejoin:miter;stroke-miterlimit:3.86400008;stroke-opacity:1;stroke-dasharray:none"
             id="path4187" />
        </g>
      </g>
    </g>
    <g
       transform="matrix(1.25,0,0,-1.25,191.69863,1184.4903)"
       id="g4189">
      <g
         id="g4191"
         clip-path="url(#clipPath4193)">
        <g
           id="g4197"
           transform="translate(74.6421,548.1025)">
          <path
             inkscape:connector-curvature="0"
             d="m 0,0 143.999,0 c 2.65,0 4.8,-2.149 4.8,-4.8 l 0,-43.2 c 0,-2.651 -2.15,-4.8 -4.8,-4.8 L 0,-52.8 c -2.651,0 -4.801,2.149 -4.801,4.8 l 0,43.2 c 0,2.651 2.15,4.8 4.801,4.8"
             style="fill:#00674c;fill-opacity:1;fill-rule:evenodd;stroke:none"
             id="path4199" />
        </g>
        <path
           inkscape:connector-curvature="0"
           d="m 224.84,520.503 -156.149,0 0,2.4 156.149,0 0,-2.4 z"
           style="fill:#ffffff;fill-opacity:1;fill-rule:nonzero;stroke:none"
           id="path4201" />
        <g
           id="g4203"
           transform="translate(84.4253,536.7025)">
          <path
             inkscape:connector-curvature="0"
             d="m 0,0 0.68,2.11 c 0,0 0.15,0.422 -0.182,0.77 -0.407,0.422 -0.936,0.09 -0.936,0.09 l -6.946,-4.786 7.036,-4.817 c 0,0 0.453,-0.212 0.846,0.151 0.317,0.302 0.182,0.725 0.182,0.725 l -0.689,2.155 7.026,0 0,3.604 L 0,0 z"
             style="fill:#ffffff;fill-opacity:1;fill-rule:nonzero;stroke:none"
             id="path4205" />
        </g>
        <g
           id="g4207"
           transform="translate(130.7397,528.6655)">
          <path
             inkscape:connector-curvature="0"
             d="m 0,0 c -1.86,0 -3.42,1.263 -3.842,2.963 l 3.751,0.792 c 0,0 0.331,0.102 0.365,0.281 C 0.309,4.215 0.143,4.453 0.143,4.453 L -2.024,7.232 C -1.432,7.58 -0.74,7.78 0,7.78 2.186,7.78 3.957,6.039 3.957,3.89 3.957,1.742 2.186,0 0,0 m -3.956,3.89 c 0,1.156 0.514,2.195 1.328,2.907 L -0.731,4.34 -3.951,3.687 C -3.954,3.754 -3.956,3.822 -3.956,3.89 M -6.169,3.237 -4.328,9 -3.154,7.479 C -4.177,6.609 -4.825,5.324 -4.825,3.89 c 0,-0.127 0.007,-0.253 0.016,-0.377 l -1.36,-0.276 z m -0.647,0.553 -0.183,0.967 0.366,0 0,0.359 -1.153,0 0,-0.359 0.338,0 0.196,-0.815 -4.667,4.961 0.183,0.609 6.733,0 -1.813,-5.722 z m -4.536,-0.009 c 0,-2.148 -1.772,-3.889 -3.957,-3.889 -2.185,0 -3.957,1.741 -3.957,3.889 0,2.149 1.772,3.89 3.957,3.89 0.716,0 1.388,-0.188 1.967,-0.515 -0.284,-0.699 -0.761,-1.708 -1.34,-2.277 -0.18,-0.177 -0.479,-0.529 -0.667,-0.578 -0.705,-0.186 -0.506,-0.787 -0.43,-0.86 0.068,-0.068 0.823,-0.473 0.978,0.349 0,0 0.148,0.187 0.668,0.685 0.743,0.711 1.209,1.575 1.475,2.195 0.802,-0.712 1.306,-1.742 1.306,-2.889 M 0,8.634 c -0.939,0 -1.814,-0.264 -2.556,-0.72 l -1.505,1.929 0.211,0.719 c 0,0 0.562,0.138 1.167,0.553 1.377,0.953 -0.956,0.594 -1.771,0.553 -1.055,-0.056 -2.011,0 -2.011,-0.304 0,-0.318 1.294,-0.65 1.828,-0.65 l -0.127,-0.442 -6.733,0 0.576,1.769 -0.506,0.484 0.24,0.249 1.798,0 0,0.663 -2.066,0 -0.913,-0.912 0.576,-0.581 -1.25,-3.974 c -0.676,0.354 -1.447,0.556 -2.267,0.556 -2.665,0 -4.825,-2.124 -4.825,-4.745 0,-2.62 2.16,-4.744 4.825,-4.744 2.666,0 4.826,2.124 4.826,4.744 0,1.526 -0.733,2.882 -1.871,3.749 l 0.154,0.503 4.737,-5.017 c 0,0 -0.099,-0.318 0.099,-0.595 0.14,-0.193 0.309,-0.29 0.534,-0.317 l 0.239,-1.328 -0.281,0 0,-0.345 1.152,0 0,0.345 -0.365,0 -0.352,1.396 c 0.084,0.028 0.141,0.083 0.211,0.139 0.057,0.041 0.141,0.179 0.141,0.179 l 1.393,0.294 C -4.186,0.697 -2.277,-0.854 0,-0.854 2.665,-0.854 4.826,1.27 4.826,3.89 4.826,6.51 2.665,8.634 0,8.634"
             style="fill:#ffffff;fill-opacity:1;fill-rule:evenodd;stroke:none"
             id="path4209" />
        </g>
        <g
           id="g4211"
           transform="translate(208.8954,510.3025)">
          <path
             inkscape:connector-curvature="0"
             d="m 0,0 -0.678,2.11 c 0,0 -0.152,0.423 0.18,0.77 0.408,0.423 0.937,0.09 0.937,0.09 L 7.384,-1.817 0.347,-6.633 c 0,0 -0.453,-0.211 -0.845,0.151 -0.317,0.302 -0.18,0.724 -0.18,0.724 l 0.687,2.156 -7.025,0 0,3.604 L 0,0 z"
             style="fill:#ffffff;fill-opacity:1;fill-rule:nonzero;stroke:none"
             id="path4213" />
        </g>
        <g
           id="g4215"
           transform="translate(97.1762,502.1565)">
          <path
             inkscape:connector-curvature="0"
             d="m 0,0 c -2.185,0 -3.957,1.742 -3.957,3.89 0,1.146 0.505,2.177 1.307,2.889 0.265,-0.62 0.731,-1.484 1.474,-2.195 C -0.655,4.086 -0.509,3.899 -0.509,3.899 -0.353,3.077 0.402,3.482 0.471,3.549 0.545,3.622 0.745,4.224 0.04,4.41 -0.147,4.459 -0.446,4.811 -0.627,4.989 -1.206,5.557 -1.684,6.565 -1.968,7.265 -1.388,7.592 -0.717,7.781 0,7.781 2.185,7.781 3.956,6.039 3.956,3.89 3.956,1.742 2.185,0 0,0 m -8.058,4.051 0.198,0.815 0.337,0 0,0.359 -1.153,0 0,-0.359 0.366,0 -0.183,-0.967 -1.814,5.721 6.734,0 0.182,-0.607 -4.667,-4.962 z M -10.5,3.622 c 0.01,0.124 0.017,0.25 0.017,0.377 0,1.434 -0.649,2.719 -1.672,3.589 l 1.174,1.521 1.841,-5.763 -1.36,0.276 z m -0.852,0.377 c 0,-0.068 -0.002,-0.136 -0.006,-0.203 l -3.219,0.653 1.895,2.457 c 0.816,-0.712 1.33,-1.75 1.33,-2.907 m -3.957,-3.89 c -2.185,0 -3.957,1.741 -3.957,3.89 0,2.148 1.772,3.89 3.957,3.89 0.74,0 1.432,-0.2 2.025,-0.548 l -2.167,-2.779 c 0,0 -0.167,-0.238 -0.133,-0.417 0.034,-0.18 0.366,-0.281 0.366,-0.281 l 3.751,-0.791 C -11.89,1.371 -13.449,0.109 -15.309,0.109 M 0,8.635 c -0.819,0 -1.591,-0.202 -2.267,-0.556 l -1.25,3.974 0.577,0.581 -0.914,0.912 -2.067,0 0,-0.663 1.8,0 0.239,-0.249 -0.507,-0.484 0.578,-1.769 -6.734,0 -0.127,0.442 c 0.534,0 1.827,0.332 1.827,0.649 0,0.305 -0.956,0.25 -2.009,0.305 -0.816,0.041 -3.15,0.401 -1.772,-0.553 0.605,-0.415 1.167,-0.553 1.167,-0.553 l 0.211,-0.719 -1.505,-1.93 c -0.741,0.457 -1.617,0.721 -2.556,0.721 -2.666,0 -4.826,-2.124 -4.826,-4.744 0,-2.62 2.16,-4.744 4.826,-4.744 2.278,0 4.185,1.551 4.692,3.638 l 1.393,-0.294 c 0,0 0.084,-0.138 0.141,-0.179 0.07,-0.056 0.126,-0.111 0.211,-0.138 l -0.352,-1.396 -0.366,0 0,-0.346 1.154,0 0,0.346 -0.282,0 0.24,1.326 c 0.224,0.028 0.393,0.125 0.534,0.318 0.196,0.276 0.097,0.594 0.097,0.594 l 4.738,5.018 0.153,-0.503 C -4.093,6.772 -4.825,5.415 -4.825,3.89 c 0,-2.62 2.16,-4.744 4.825,-4.744 2.665,0 4.825,2.124 4.825,4.744 0,2.621 -2.16,4.745 -4.825,4.745"
             style="fill:#ffffff;fill-opacity:1;fill-rule:evenodd;stroke:none"
             id="path4217" />
        </g>
        <g
           id="g4219"
           transform="translate(174.4614,535.8685)">
          <path
             inkscape:connector-curvature="0"
             d="m 0,0 c -1.173,0 -1.34,-0.776 -1.34,-1.484 l 2.612,0 C 1.272,-0.81 1.139,0 0,0 M -1.307,-2.9 C -1.24,-3.676 -0.938,-4.485 0,-4.485 c 0.636,0 1.139,0.371 1.307,0.978 L 2.546,-4.282 C 2.144,-5.193 1.406,-5.901 0,-5.901 c -2.412,0 -2.882,1.854 -2.882,3.675 0,1.551 0.47,3.642 2.882,3.642 2.747,0 2.813,-2.596 2.78,-4.316 l -4.087,0 z"
             style="fill:#ffffff;fill-opacity:1;fill-rule:nonzero;stroke:none"
             id="path4221" />
        </g>
        <path
           inkscape:connector-curvature="0"
           d="m 161.303,537.116 1.536,0 0,-7.013 -1.536,0 0,7.013 z m 0.768,1.18 c -0.438,0 -0.809,0.337 -0.809,0.776 0,0.438 0.371,0.808 0.809,0.808 0.438,0 0.809,-0.37 0.809,-0.808 0,-0.439 -0.371,-0.776 -0.809,-0.776"
           style="fill:#ffffff;fill-opacity:1;fill-rule:nonzero;stroke:none"
           id="path4223" />
        <path
           inkscape:connector-curvature="0"
           d="m 188.579,537.116 1.535,0 0,-7.013 -1.535,0 0,7.013 z m 0.767,1.18 c -0.438,0 -0.809,0.337 -0.809,0.776 0,0.438 0.371,0.808 0.809,0.808 0.439,0 0.81,-0.37 0.81,-0.808 0,-0.439 -0.371,-0.776 -0.81,-0.776"
           style="fill:#ffffff;fill-opacity:1;fill-rule:nonzero;stroke:none"
           id="path4225" />
        <g
           id="g4227"
           transform="translate(157.9614,530.1025)">
          <path
             inkscape:connector-curvature="0"
             d="m 0,0 0,4.653 c 0,0.911 -0.607,1.113 -1.417,1.113 -0.606,-0.034 -1.18,-0.371 -1.18,-1.18 l 0,-4.586 -1.551,0 0,7.013 1.517,0 0,-0.236 C -1.046,7.789 1.518,6.98 1.518,4.821 L 1.518,0 0,0 z"
             style="fill:#ffffff;fill-opacity:1;fill-rule:nonzero;stroke:none"
             id="path4229" />
        </g>
        <g
           id="g4231"
           transform="translate(182.0374,535.4635)">
          <path
             inkscape:connector-curvature="0"
             d="m 0,0 c -0.304,0.236 -0.54,0.405 -0.912,0.405 -0.879,0 -0.98,-0.506 -0.98,-1.383 l 0,-4.383 -1.555,0 0,7.013 1.555,0 0,-0.337 c 0.372,0.337 0.541,0.506 1.082,0.506 0.54,0 0.777,-0.202 1.013,-0.472 L 0,0 z"
             style="fill:#ffffff;fill-opacity:1;fill-rule:nonzero;stroke:none"
             id="path4233" />
        </g>
        <g
           id="g4235"
           transform="translate(194.8094,530.2715)">
          <path
             inkscape:connector-curvature="0"
             d="m 0,0 c -0.51,-0.236 -0.782,-0.304 -1.157,-0.304 -1.121,-0.068 -1.462,0.809 -1.462,1.821 l 0,3.911 -1.02,0 0,1.416 1.02,0 0,2.023 1.497,0.742 0,-2.765 1.223,0 0,-1.383 -1.223,0 0,-3.708 c 0,-0.472 0.068,-0.674 0.51,-0.674 0.34,0 0.51,0.101 0.816,0.337 L 0,0 z"
             style="fill:#ffffff;fill-opacity:1;fill-rule:nonzero;stroke:none"
             id="path4237" />
        </g>
        <g
           id="g4239"
           transform="translate(198.6664,527.4045)">
          <path
             inkscape:connector-curvature="0"
             d="m 0,0 -1.699,0 1.053,2.698 -2.719,7.013 1.666,0 1.936,-4.923 1.87,4.923 1.733,0 L 0,0 z"
             style="fill:#ffffff;fill-opacity:1;fill-rule:nonzero;stroke:none"
             id="path4241" />
        </g>
        <g
           id="g4243"
           transform="translate(168.0634,530.1025)">
          <path
             inkscape:connector-curvature="0"
             d="m 0,0 -1.358,0 -2.714,7.013 1.628,0 1.765,-4.72 1.697,4.72 1.731,0 L 0,0 z"
             style="fill:#ffffff;fill-opacity:1;fill-rule:nonzero;stroke:none"
             id="path4245" />
        </g>
        <g
           id="g4247"
           transform="translate(151.2632,531.5505)">
          <path
             inkscape:connector-curvature="0"
             d="m 0,0 c -0.506,-0.943 -1.651,-1.616 -2.83,-1.616 -1.179,0 -2.324,0.673 -2.829,1.616 -0.27,0.573 -0.439,1.246 -0.439,1.988 l 0,6.164 1.516,0 0,-6.164 c 0,-1.246 0.708,-2.055 1.752,-2.055 1.044,0 1.752,0.809 1.752,2.055 l 0,6.164 1.515,0 0,-6.164 C 0.437,1.246 0.27,0.573 0,0"
             style="fill:#ffffff;fill-opacity:1;fill-rule:nonzero;stroke:none"
             id="path4249" />
        </g>
        <g
           id="g4251"
           transform="translate(212.0654,529.9345)">
          <path
             inkscape:connector-curvature="0"
             d="m 0,0 c -0.844,0 -1.686,0.202 -2.36,0.538 l 0.742,1.348 c 0.405,-0.202 1.112,-0.337 1.819,-0.337 1.381,0 2.459,0.91 2.459,2.156 0,0.943 -0.776,1.684 -1.717,1.684 -0.674,0 -0.979,-0.202 -1.551,-1.01 l -1.516,0.438 0.237,4.951 5.523,0 0,-1.516 -4.041,0 -0.101,-1.583 c 0.707,0.202 1.009,0.27 1.482,0.27 1.752,0 3.199,-1.483 3.199,-3.234 C 4.175,1.583 2.423,0 0,0"
             style="fill:#ffffff;fill-opacity:1;fill-rule:nonzero;stroke:none"
             id="path4253" />
        </g>
        <g
           id="g4255"
           transform="translate(184.8884,529.9715)">
          <path
             inkscape:connector-curvature="0"
             d="m 0,0 c -1.018,-0.002 -1.629,0.435 -2.072,1.109 l 1.083,0.912 C -0.648,1.584 -0.206,1.281 0.234,1.417 0.878,1.587 0.945,2.194 0.435,2.732 -0.483,3.776 -1.942,4.211 -2.046,5.29 -2.115,6.234 -1.609,7.011 -0.591,7.248 0.222,7.452 1.24,7.252 2.056,6.276 L 0.972,5.397 c 0,0 -0.748,0.875 -1.255,0.368 C -1.129,4.954 2.603,4.051 2.437,1.96 2.372,0.915 1.525,0.003 0,0"
             style="fill:#ffffff;fill-opacity:1;fill-rule:nonzero;stroke:none"
             id="path4257" />
        </g>
        <g
           id="g4259"
           transform="translate(142.4546,503.6975)">
          <path
             inkscape:connector-curvature="0"
             d="M 0,0 0,4.653 C 0,5.563 -0.607,5.766 -1.416,5.766 -2.024,5.732 -2.597,5.395 -2.597,4.586 l 0,-4.586 -1.551,0 0,7.013 1.517,0 0,-0.236 C -1.045,7.789 1.518,6.979 1.518,4.822 L 1.518,0 0,0 z"
             style="fill:#ffffff;fill-opacity:1;fill-rule:nonzero;stroke:none"
             id="path4261" />
        </g>
        <g
           id="g4263"
           transform="translate(122.6186,509.4635)">
          <path
             inkscape:connector-curvature="0"
             d="m 0,0 c -1.184,0 -1.389,-1.551 -1.389,-2.259 0,-0.708 0.205,-2.26 1.389,-2.26 1.186,0 1.355,1.585 1.355,2.293 C 1.355,-1.551 1.151,0 0,0 m 0,-5.901 c -2.438,0 -2.946,1.855 -2.946,3.675 0,1.551 0.508,3.642 2.946,3.642 2.404,0 2.912,-1.956 2.912,-3.642 0,-1.686 -0.508,-3.675 -2.912,-3.675"
             style="fill:#ffffff;fill-opacity:1;fill-rule:nonzero;stroke:none"
             id="path4265" />
        </g>
        <g
           id="g4267"
           transform="translate(148.5708,503.8665)">
          <path
             inkscape:connector-curvature="0"
             d="m 0,0 c -0.51,-0.237 -0.782,-0.304 -1.155,-0.304 -1.123,-0.067 -1.463,0.809 -1.463,1.821 l 0,3.911 -1.02,0 0,1.416 1.02,0 0,2.023 1.496,0.742 0,-2.765 1.225,0 0,-1.382 -1.225,0 0,-3.709 c 0,-0.472 0.068,-0.675 0.511,-0.675 0.34,0 0.509,0.101 0.815,0.338 L 0,0 z"
             style="fill:#ffffff;fill-opacity:1;fill-rule:nonzero;stroke:none"
             id="path4269" />
        </g>
        <g
           id="g4271"
           transform="translate(135.227,503.6975)">
          <path
             inkscape:connector-curvature="0"
             d="M 0,0 -1.725,0 -3.518,4.822 -5.275,0 l -1.692,0 -1.961,7.013 1.623,0 1.251,-4.687 1.692,4.687 1.757,0 1.59,-4.72 1.319,4.72 1.624,0 L 0,0 z"
             style="fill:#ffffff;fill-opacity:1;fill-rule:nonzero;stroke:none"
             id="path4273" />
        </g>
        <g
           id="g4275"
           transform="translate(172.2294,503.6975)">
          <path
             inkscape:connector-curvature="0"
             d="M 0,0 0,4.653 C 0,5.563 -0.607,5.766 -1.416,5.766 -2.024,5.732 -2.597,5.395 -2.597,4.586 l 0,-4.586 -1.552,0 0,7.013 1.518,0 0,-0.236 C -1.045,7.789 1.518,6.979 1.518,4.822 L 1.518,0 0,0 z"
             style="fill:#ffffff;fill-opacity:1;fill-rule:nonzero;stroke:none"
             id="path4277" />
        </g>
        <g
           id="g4279"
           transform="translate(152.393,509.4635)">
          <path
             inkscape:connector-curvature="0"
             d="m 0,0 c -1.185,0 -1.388,-1.551 -1.388,-2.259 0,-0.708 0.203,-2.26 1.388,-2.26 1.186,0 1.354,1.585 1.354,2.293 C 1.354,-1.551 1.151,0 0,0 m 0,-5.901 c -2.438,0 -2.946,1.855 -2.946,3.675 0,1.551 0.508,3.642 2.946,3.642 2.404,0 2.912,-1.956 2.912,-3.642 0,-1.686 -0.508,-3.675 -2.912,-3.675"
             style="fill:#ffffff;fill-opacity:1;fill-rule:nonzero;stroke:none"
             id="path4281" />
        </g>
        <g
           id="g4283"
           transform="translate(165.0014,503.6975)">
          <path
             inkscape:connector-curvature="0"
             d="M 0,0 -1.725,0 -3.517,4.822 -5.275,0 l -1.692,0 -1.961,7.013 1.623,0 1.251,-4.687 1.692,4.687 1.758,0 1.589,-4.72 1.32,4.72 1.623,0 L 0,0 z"
             style="fill:#ffffff;fill-opacity:1;fill-rule:nonzero;stroke:none"
             id="path4285" />
        </g>
        <g
           id="g4287"
           transform="translate(115.812,511.3775)">
          <path
             inkscape:connector-curvature="0"
             d="m 0,0 c -0.235,0.236 -0.572,0.404 -0.977,0.404 l -1.717,0 0,-6.534 1.515,0 c 0.506,0 0.809,0.101 1.078,0.37 0.573,0.573 0.876,1.617 0.876,2.897 C 0.775,-1.583 0.472,-0.505 0,0 M 0.641,-7.141 C 0.27,-7.478 -0.235,-7.646 -0.74,-7.68 l -0.539,0 -2.931,0 0,9.6 3.099,0 c 0.976,0 1.347,-0.101 1.852,-0.505 1.011,-0.876 1.584,-2.392 1.584,-4.278 0,-1.92 -0.606,-3.436 -1.684,-4.278"
             style="fill:#ffffff;fill-opacity:1;fill-rule:nonzero;stroke:none"
             id="path4289" />
        </g>
        <g
           id="g4291"
           transform="translate(181.8144,503.6975)">
          <path
             inkscape:connector-curvature="0"
             d="m 0,0 0,7.781 -0.868,0 0,1.212 0.101,0 c 0.399,0 0.833,0.236 1.1,0.607 l 1.2,0 0,-9.6 L 0,0 z"
             style="fill:#ffffff;fill-opacity:1;fill-rule:nonzero;stroke:none"
             id="path4293" />
        </g>
        <g
           id="g4295"
           transform="translate(190.1864,511.1755)">
          <path
             inkscape:connector-curvature="0"
             d="m 0,0 c -0.304,0.505 -0.676,0.707 -1.249,0.741 -0.744,0.034 -1.216,-0.337 -1.553,-1.179 -0.236,-0.572 -0.372,-1.448 -0.372,-2.257 0,-1.01 0.203,-2.055 0.574,-2.661 0.304,-0.505 0.709,-0.741 1.317,-0.741 0.708,0 1.148,0.37 1.486,1.213 0.202,0.505 0.371,1.448 0.371,2.189 C 0.574,-1.617 0.371,-0.64 0,0 M 1.046,-6.568 C 0.505,-7.31 -0.27,-7.647 -1.283,-7.647 c -1.351,0 -2.195,0.539 -2.769,1.719 -0.405,0.808 -0.675,2.088 -0.675,3.233 0,1.584 0.405,2.998 1.047,3.908 0.573,0.74 1.351,1.077 2.465,1.077 1.215,0 2.058,-0.539 2.667,-1.717 0.405,-0.843 0.641,-2.055 0.641,-3.268 0,-1.516 -0.371,-3.032 -1.047,-3.873"
             style="fill:#ffffff;fill-opacity:1;fill-rule:nonzero;stroke:none"
             id="path4297" />
        </g>
      </g>
    </g>
  </g>
</svg>
