<?xml version="1.0" encoding="UTF-8" standalone="no"?>
<!-- Created with Inkscape (http://www.inkscape.org/) -->

<svg
   xmlns:dc="http://purl.org/dc/elements/1.1/"
   xmlns:cc="http://creativecommons.org/ns#"
   xmlns:rdf="http://www.w3.org/1999/02/22-rdf-syntax-ns#"
   xmlns:svg="http://www.w3.org/2000/svg"
   xmlns="http://www.w3.org/2000/svg"
   xmlns:sodipodi="http://sodipodi.sourceforge.net/DTD/sodipodi-0.dtd"
   xmlns:inkscape="http://www.inkscape.org/namespaces/inkscape"
   width="180.625"
   height="108.63281"
   id="svg7328"
   version="1.1"
   inkscape:version="0.48.3.1 r9886"
   sodipodi:docname="New document 29">
  <defs
     id="defs7330" />
  <sodipodi:namedview
     id="base"
     pagecolor="#ffffff"
     bordercolor="#666666"
     borderopacity="1.0"
     inkscape:pageopacity="0.0"
     inkscape:pageshadow="2"
     inkscape:zoom="0.35"
     inkscape:cx="90.296875"
     inkscape:cy="54.32031"
     inkscape:document-units="px"
     inkscape:current-layer="layer1"
     showgrid="false"
     fit-margin-top="0"
     fit-margin-left="0"
     fit-margin-right="0"
     fit-margin-bottom="0"
     inkscape:window-width="451"
     inkscape:window-height="398"
     inkscape:window-x="125"
     inkscape:window-y="125"
     inkscape:window-maximized="0" />
  <metadata
     id="metadata7333">
    <rdf:RDF>
      <cc:Work
         rdf:about="">
        <dc:format>image/svg+xml</dc:format>
        <dc:type
           rdf:resource="http://purl.org/dc/dcmitype/StillImage" />
        <dc:title></dc:title>
      </cc:Work>
    </rdf:RDF>
  </metadata>
  <g
     inkscape:label="Layer 1"
     inkscape:groupmode="layer"
     id="layer1"
     transform="translate(-284.70312,-478.04968)">
    <g
       id="g3311"
       transform="matrix(1.25,0,0,-1.25,294,478.36218)">
      <path
         d="m 0,0 129.598,0 c 3.975,0 7.2,-3.225 7.2,-7.201 l 0,-71.997 c 0,-3.978 -3.225,-7.202 -7.2,-7.202 L 0,-86.4 c -3.974,0 -7.198,3.224 -7.198,7.202 l 0,71.997 C -7.198,-3.225 -3.974,0 0,0"
         style="fill:#ffffff;fill-opacity:1;fill-rule:evenodd;stroke:none"
         id="path3313"
         inkscape:connector-curvature="0" />
    </g>
    <g
       id="g3315"
       transform="matrix(1.25,0,0,-1.25,294,478.36218)">
      <path
         d="m 0,0 129.598,0 c 3.975,0 7.2,-3.225 7.2,-7.201 l 0,-71.997 c 0,-3.978 -3.225,-7.202 -7.2,-7.202 L 0,-86.4 c -3.974,0 -7.198,3.224 -7.198,7.202 l 0,71.997 C -7.198,-3.225 -3.974,0 0,0 z"
         style="fill:none;stroke:#231f20;stroke-width:0.5;stroke-linecap:butt;stroke-linejoin:miter;stroke-miterlimit:3.86400008;stroke-opacity:1;stroke-dasharray:none"
         id="path3317"
         inkscape:connector-curvature="0" />
    </g>
    <g
       id="g3319"
       transform="matrix(1.25,0,0,-1.25,294,481.36469)">
      <path
         d="m 0,0 129.598,0 c 2.649,0 4.798,-2.147 4.798,-4.799 l 0,-71.997 c 0,-2.65 -2.149,-4.797 -4.798,-4.797 L 0,-81.593 c -2.651,0 -4.8,2.147 -4.8,4.797 l 0,71.997 C -4.8,-2.147 -2.651,0 0,0"
         style="fill:#00674c;fill-opacity:1;fill-rule:evenodd;stroke:none"
         id="path3321"
         inkscape:connector-curvature="0" />
    </g>
    <g
       id="g3323"
       transform="matrix(1.25,0,0,-1.25,443.765,564.98343)">
      <path
         d="m 0,0 -0.681,2.11 c 0,0 -0.149,0.424 0.183,0.769 C -0.091,3.3 0.44,2.97 0.44,2.97 L 7.382,-1.815 0.349,-6.633 c 0,0 -0.451,-0.215 -0.847,0.149 -0.315,0.3 -0.183,0.723 -0.183,0.723 l 0.691,2.154 -7.025,0 0,3.607 L 0,0 z"
         style="fill:#ffffff;fill-opacity:1;fill-rule:nonzero;stroke:none"
         id="path3325"
         inkscape:connector-curvature="0" />
    </g>
    <g
       id="g3327"
       transform="matrix(1.25,0,0,-1.25,303.7525,497.71718)">
      <path
         d="m 0,0 -2.111,-0.68 c 0,0 -0.422,-0.15 -0.769,0.182 -0.424,0.407 -0.09,0.935 -0.09,0.935 L 1.814,7.384 6.631,0.349 c 0,0 0.213,-0.454 -0.151,-0.847 C 6.18,-0.813 5.757,-0.68 5.757,-0.68 L 3.6,0.01 l 0,-7.027 -3.604,0 L 0,0 z"
         style="fill:#ffffff;fill-opacity:1;fill-rule:nonzero;stroke:none"
         id="path3329"
         inkscape:connector-curvature="0" />
    </g>
    <g
       id="g3331"
       transform="matrix(1.25,0,0,-1.25,306.23,530.11218)">
      <path
         d="m 0,0 0.68,2.11 c 0,0 0.153,0.423 -0.182,0.769 -0.407,0.424 -0.936,0.092 -0.936,0.092 l -6.944,-4.788 7.035,-4.816 c 0,0 0.452,-0.208 0.845,0.154 0.318,0.299 0.182,0.723 0.182,0.723 l -0.687,2.156 7.023,0 0,3.603 L 0,0 z"
         style="fill:#ffffff;fill-opacity:1;fill-rule:nonzero;stroke:none"
         id="path3333"
         inkscape:connector-curvature="0" />
    </g>
    <path
       d="m 463.49325,516.61281 -176.99,0 0,-3.00375 176.99,0 0,3.00375 z"
       style="fill:#ffffff;fill-opacity:1;fill-rule:nonzero;stroke:none"
       id="path3335"
       inkscape:connector-curvature="0" />
    <path
       d="m 463.49325,551.10656 -176.99,0 0,-2.99375 176.99,0 0,2.99375 z"
       style="fill:#ffffff;fill-opacity:1;fill-rule:nonzero;stroke:none"
       id="path3337"
       inkscape:connector-curvature="0" />
    <g
       id="g3339"
       transform="matrix(1.25,0,0,-1.25,322.1675,575.03219)">
      <path
         d="m 0,0 c -1.86,0 -3.42,1.263 -3.841,2.961 l 3.749,0.795 c 0,0 0.333,0.104 0.367,0.282 C 0.308,4.217 0.142,4.454 0.142,4.454 L -2.024,7.232 C -1.432,7.579 -0.739,7.78 0,7.78 2.186,7.78 3.957,6.041 3.957,3.892 3.957,1.745 2.186,0 0,0 m -3.955,3.892 c 0,1.153 0.514,2.194 1.328,2.905 L -0.73,4.341 -3.951,3.691 C -3.953,3.756 -3.955,3.822 -3.955,3.892 M -6.168,3.235 -4.327,9.002 -3.154,7.48 C -4.175,6.608 -4.823,5.326 -4.823,3.892 c 0,-0.129 0.006,-0.253 0.016,-0.377 l -1.361,-0.28 z m -0.649,0.554 -0.181,0.971 0.367,0 0,0.358 -1.153,0 0,-0.358 0.337,0 0.196,-0.814 -4.666,4.959 0.181,0.605 6.735,0 -1.816,-5.721 z m -4.535,-0.007 c 0,-2.147 -1.77,-3.887 -3.955,-3.887 -2.186,0 -3.957,1.74 -3.957,3.887 0,2.15 1.771,3.892 3.957,3.892 0.716,0 1.387,-0.187 1.967,-0.519 -0.285,-0.698 -0.762,-1.705 -1.34,-2.274 -0.18,-0.175 -0.479,-0.533 -0.667,-0.577 -0.706,-0.189 -0.507,-0.789 -0.432,-0.861 0.068,-0.071 0.823,-0.475 0.98,0.346 0,0 0.147,0.19 0.666,0.69 0.744,0.709 1.21,1.574 1.477,2.194 0.801,-0.716 1.304,-1.745 1.304,-2.891 M 0,8.633 c -0.939,0 -1.816,-0.261 -2.555,-0.718 l -1.506,1.927 0.213,0.723 c 0,0 0.562,0.139 1.167,0.548 1.375,0.956 -0.959,0.598 -1.773,0.553 -1.052,-0.053 -2.011,0 -2.011,-0.298 0,-0.321 1.296,-0.653 1.829,-0.653 l -0.127,-0.442 -6.733,0 0.577,1.77 -0.505,0.482 0.236,0.248 1.801,0 0,0.665 -2.067,0 -0.912,-0.913 0.575,-0.58 -1.249,-3.976 c -0.676,0.358 -1.448,0.559 -2.267,0.559 -2.666,0 -4.825,-2.121 -4.825,-4.746 0,-2.618 2.159,-4.745 4.825,-4.745 2.664,0 4.823,2.127 4.823,4.745 0,1.523 -0.732,2.884 -1.869,3.75 l 0.155,0.503 4.736,-5.02 c 0,0 -0.098,-0.313 0.099,-0.595 0.14,-0.193 0.311,-0.285 0.535,-0.317 l 0.239,-1.321 -0.283,0 0,-0.352 1.153,0 0,0.352 -0.365,0 -0.351,1.393 c 0.084,0.026 0.141,0.084 0.21,0.136 0.057,0.044 0.141,0.183 0.141,0.183 l 1.391,0.292 c 0.508,-2.089 2.416,-3.64 4.693,-3.64 2.666,0 4.825,2.124 4.825,4.746 0,2.617 -2.159,4.741 -4.825,4.741"
         style="fill:#ffffff;fill-opacity:1;fill-rule:evenodd;stroke:none"
         id="path3341"
         inkscape:connector-curvature="0" />
    </g>
    <g
       id="g3343"
       transform="matrix(1.25,0,0,-1.25,352.1675,505.28343)">
      <path
         d="m 0,0 c -1.86,0 -3.419,1.263 -3.843,2.961 l 3.752,0.795 c 0,0 0.332,0.101 0.367,0.279 0.032,0.18 -0.134,0.418 -0.134,0.418 L -2.026,7.232 C -1.432,7.578 -0.741,7.782 0,7.782 2.187,7.782 3.958,6.037 3.958,3.89 3.958,1.74 2.187,0 0,0 m -3.957,3.89 c 0,1.158 0.514,2.196 1.33,2.907 L -0.732,4.341 -3.95,3.689 C -3.955,3.754 -3.957,3.822 -3.957,3.89 M -6.17,3.235 -4.327,9 -3.155,7.478 c -1.02,-0.868 -1.67,-2.152 -1.67,-3.588 0,-0.127 0.006,-0.253 0.018,-0.377 L -6.17,3.235 z m -0.646,0.554 -0.182,0.969 0.365,0 0,0.359 -1.153,0 0,-0.359 0.339,0 0.194,-0.817 -4.666,4.964 0.182,0.606 6.734,0 -1.813,-5.722 z m -4.535,-0.007 c 0,-2.149 -1.77,-3.89 -3.958,-3.89 -2.184,0 -3.957,1.741 -3.957,3.89 0,2.147 1.773,3.89 3.957,3.89 0.716,0 1.39,-0.19 1.967,-0.517 -0.285,-0.7 -0.76,-1.707 -1.34,-2.276 -0.18,-0.178 -0.479,-0.529 -0.667,-0.577 -0.706,-0.186 -0.505,-0.789 -0.43,-0.861 0.068,-0.068 0.824,-0.473 0.978,0.348 0,0 0.147,0.187 0.666,0.685 0.744,0.711 1.212,1.577 1.477,2.194 0.801,-0.711 1.307,-1.74 1.307,-2.886 M 0,8.633 c -0.938,0 -1.815,-0.264 -2.554,-0.718 l -1.507,1.928 0.211,0.72 c 0,0 0.562,0.138 1.167,0.552 1.378,0.952 -0.957,0.594 -1.77,0.552 -1.055,-0.054 -2.012,0 -2.012,-0.304 0,-0.318 1.294,-0.65 1.829,-0.65 l -0.129,-0.443 -6.731,0 0.575,1.771 -0.505,0.484 0.238,0.248 1.799,0 0,0.664 -2.065,0 -0.914,-0.912 0.577,-0.58 -1.251,-3.976 c -0.676,0.355 -1.445,0.557 -2.267,0.557 -2.664,0 -4.825,-2.124 -4.825,-4.744 0,-2.62 2.161,-4.746 4.825,-4.746 2.667,0 4.825,2.126 4.825,4.746 0,1.525 -0.731,2.882 -1.868,3.747 l 0.152,0.503 4.739,-5.02 c 0,0 -0.101,-0.313 0.096,-0.591 0.142,-0.194 0.311,-0.29 0.535,-0.318 l 0.239,-1.329 -0.281,0 0,-0.344 1.153,0 0,0.344 -0.367,0 -0.351,1.399 c 0.084,0.028 0.143,0.082 0.21,0.138 0.057,0.042 0.141,0.178 0.141,0.178 l 1.394,0.297 c 0.507,-2.089 2.416,-3.64 4.692,-3.64 2.667,0 4.825,2.124 4.825,4.744 0,2.62 -2.158,4.743 -4.825,4.743"
         style="fill:#ffffff;fill-opacity:1;fill-rule:evenodd;stroke:none"
         id="path3345"
         inkscape:connector-curvature="0" />
    </g>
    <g
       id="g3347"
       transform="matrix(1.25,0,0,-1.25,402.95875,499.52343)">
      <path
         d="m 0,0 c -0.639,0.301 -2.418,0.706 -2.418,-0.711 0,-1.717 1.845,-1.212 2.418,-0.91 L 0,0 z m 0.065,-3.17 0,0.201 c -0.233,-0.201 -0.839,-0.306 -1.377,-0.306 -1.408,0 -2.617,0.912 -2.617,2.599 0,1.99 2.35,2.697 3.896,2.056 0,0 0.033,1.113 -1.041,1.216 -0.977,0.133 -1.747,-0.575 -1.951,-0.877 l -0.434,1.483 c 1.747,1.415 5.003,1.045 5.003,-1.687 l 0,-4.685 -1.479,0 z"
         style="fill:#ffffff;fill-opacity:1;fill-rule:nonzero;stroke:none"
         id="path3349"
         inkscape:connector-curvature="0" />
    </g>
    <g
       id="g3351"
       transform="matrix(1.25,0,0,-1.25,386.9575,496.27843)">
      <path
         d="m 0,0 c -0.438,0 -0.805,-0.07 -1.177,-0.507 l 0,-3.54 c 0.372,-0.371 0.739,-0.507 1.277,-0.472 1.039,0.035 1.338,1.315 1.373,2.292 C 1.506,-1.216 1.172,-0.035 0,0 m 0.133,-5.934 c -0.538,0 -0.872,0.1 -1.342,0.369 l 0,-0.201 -1.539,0 0,9.033 1.539,0.745 0,-3.001 c 0.17,0.168 0.804,0.369 1.274,0.404 2.279,0.201 2.917,-1.787 2.948,-3.642 0,-1.99 -0.77,-3.707 -2.88,-3.707"
         style="fill:#ffffff;fill-opacity:1;fill-rule:nonzero;stroke:none"
         id="path3353"
         inkscape:connector-curvature="0" />
    </g>
    <path
       d="m 379.20075,494.71906 1.92,0 0,8.76625 -1.92,0 0,-8.76625 z m 0.96125,-1.47375 c -0.55,0 -1.01125,-0.42125 -1.01125,-0.97 0,-0.5475 0.46125,-1.0125 1.01125,-1.0125 0.55,0 1.01125,0.465 1.01125,1.0125 0,0.54875 -0.46125,0.97 -1.01125,0.97"
       style="fill:#ffffff;fill-opacity:1;fill-rule:nonzero;stroke:none"
       id="path3355"
       inkscape:connector-curvature="0" />
    <g
       id="g3357"
       transform="matrix(1.25,0,0,-1.25,396.95375,496.78706)">
      <path
         d="m 0,0 c -0.307,0.236 -0.541,0.407 -0.912,0.407 -0.878,0 -0.983,-0.507 -0.983,-1.384 l 0,-4.382 -1.553,0 0,7.013 1.553,0 0,-0.337 c 0.374,0.337 0.545,0.505 1.085,0.505 0.54,0 0.777,-0.201 1.011,-0.472 L 0,0 z"
         style="fill:#ffffff;fill-opacity:1;fill-rule:nonzero;stroke:none"
         id="path3359"
         inkscape:connector-curvature="0" />
    </g>
    <g
       id="g3361"
       transform="matrix(1.25,0,0,-1.25,411.47875,496.78706)">
      <path
         d="m 0,0 c -0.307,0.236 -0.541,0.407 -0.915,0.407 -0.875,0 -0.98,-0.507 -0.98,-1.384 l 0,-4.382 -1.55,0 0,7.013 1.55,0 0,-0.337 c 0.375,0.337 0.541,0.505 1.085,0.505 0.54,0 0.775,-0.201 1.013,-0.472 L 0,0 z"
         style="fill:#ffffff;fill-opacity:1;fill-rule:nonzero;stroke:none"
         id="path3363"
         inkscape:connector-curvature="0" />
    </g>
    <g
       id="g3365"
       transform="matrix(1.25,0,0,-1.25,416.42,506.85969)">
      <path
         d="m 0,0 -1.701,0 1.053,2.699 -2.718,7.013 1.665,0 1.937,-4.924 1.869,4.924 1.733,0 L 0,0 z"
         style="fill:#ffffff;fill-opacity:1;fill-rule:nonzero;stroke:none"
         id="path3367"
         inkscape:connector-curvature="0" />
    </g>
    <g
       id="g3369"
       transform="matrix(1.25,0,0,-1.25,370.19875,503.48593)">
      <path
         d="m 0,0 0,9.6 1.513,0 0,-8.187 4.442,0 L 5.955,0 0,0 z"
         style="fill:#ffffff;fill-opacity:1;fill-rule:nonzero;stroke:none"
         id="path3371"
         inkscape:connector-curvature="0" />
    </g>
    <g
       id="g3373"
       transform="matrix(1.25,0,0,-1.25,434.23625,503.69593)">
      <path
         d="m 0,0 c -1.555,0 -2.809,1.008 -3.216,2.559 l 1.49,0.437 c 0.239,-0.943 0.879,-1.447 1.794,-1.447 1.015,0 1.729,0.706 1.729,1.684 0,0.505 -0.206,0.977 -0.543,1.214 -0.236,0.166 -0.271,0.166 -0.98,0.201 l -0.17,0 0,1.548 0,-0.033 0.032,0 0.033,0 0.307,0 c 0.607,0 0.947,0.337 0.947,0.943 0,0.741 -0.608,1.28 -1.388,1.28 -0.642,0 -1.115,-0.302 -1.454,-0.943 l -1.423,0.54 C -2.334,9.195 -1.251,9.936 0,9.936 1.628,9.936 2.945,8.621 2.945,7.005 2.945,6.432 2.812,6.028 2.405,5.422 3.116,4.783 3.319,4.276 3.319,3.333 3.319,1.38 1.965,0 0,0"
         style="fill:#ffffff;fill-opacity:1;fill-rule:nonzero;stroke:none"
         id="path3375"
         inkscape:connector-curvature="0" />
    </g>
    <g
       id="g3377"
       transform="matrix(1.25,0,0,-1.25,352.1675,540.15468)">
      <path
         d="m 0,0 c -1.86,0 -3.419,1.262 -3.843,2.964 l 3.752,0.79 c 0,0 0.332,0.1 0.367,0.283 C 0.308,4.213 0.142,4.453 0.142,4.453 L -2.026,7.229 C -1.432,7.578 -0.741,7.779 0,7.779 2.187,7.779 3.958,6.034 3.958,3.887 3.958,1.738 2.187,0 0,0 m -3.957,3.887 c 0,1.158 0.514,2.194 1.33,2.91 L -0.732,4.337 -3.95,3.686 c -0.005,0.063 -0.007,0.136 -0.007,0.201 m -2.213,-0.65 1.843,5.761 1.172,-1.521 c -1.02,-0.87 -1.67,-2.154 -1.67,-3.59 0,-0.124 0.006,-0.254 0.018,-0.378 L -6.17,3.237 z m -0.646,0.552 -0.182,0.964 0.365,0 0,0.362 -1.153,0 0,-0.362 0.339,0 0.194,-0.815 -4.666,4.961 0.182,0.613 6.734,0 -1.813,-5.723 z M -11.351,3.78 c 0,-2.145 -1.77,-3.891 -3.958,-3.891 -2.184,0 -3.957,1.746 -3.957,3.891 0,2.147 1.773,3.89 3.957,3.89 0.716,0 1.39,-0.19 1.967,-0.515 -0.285,-0.699 -0.76,-1.71 -1.34,-2.278 -0.18,-0.176 -0.479,-0.527 -0.667,-0.58 -0.706,-0.183 -0.505,-0.788 -0.43,-0.859 0.068,-0.065 0.824,-0.472 0.978,0.351 0,0 0.147,0.184 0.666,0.682 0.744,0.712 1.212,1.578 1.477,2.195 0.801,-0.709 1.307,-1.74 1.307,-2.886 M 0,8.633 c -0.938,0 -1.815,-0.267 -2.554,-0.723 l -1.507,1.93 0.211,0.72 c 0,0 0.562,0.136 1.167,0.552 1.378,0.955 -0.957,0.594 -1.77,0.555 -1.055,-0.059 -2.012,0 -2.012,-0.307 0,-0.318 1.294,-0.65 1.829,-0.65 l -0.129,-0.44 -6.731,0 0.575,1.768 -0.505,0.485 0.238,0.25 1.799,0 0,0.662 -2.065,0 -0.914,-0.912 0.577,-0.583 -1.251,-3.971 c -0.676,0.35 -1.445,0.554 -2.267,0.554 -2.664,0 -4.825,-2.124 -4.825,-4.743 0,-2.62 2.161,-4.744 4.825,-4.744 2.667,0 4.825,2.124 4.825,4.744 0,1.527 -0.731,2.881 -1.868,3.747 l 0.152,0.502 4.739,-5.015 c 0,0 -0.101,-0.317 0.096,-0.591 0.142,-0.197 0.311,-0.294 0.535,-0.321 l 0.239,-1.328 -0.281,0 0,-0.344 1.153,0 0,0.344 -0.367,0 -0.351,1.394 c 0.084,0.033 0.143,0.085 0.21,0.142 0.057,0.04 0.141,0.176 0.141,0.176 l 1.394,0.295 c 0.507,-2.084 2.416,-3.64 4.692,-3.64 2.667,0 4.825,2.129 4.825,4.746 0,2.625 -2.158,4.746 -4.825,4.746"
         style="fill:#ffffff;fill-opacity:1;fill-rule:evenodd;stroke:none"
         id="path3379"
         inkscape:connector-curvature="0" />
    </g>
    <g
       id="g3381"
       transform="matrix(1.25,0,0,-1.25,392.76375,534.40093)">
      <path
         d="m 0,0 c -0.638,0.306 -2.419,0.708 -2.419,-0.707 0,-1.721 1.846,-1.214 2.419,-0.912 L 0,0 z m 0.063,-3.17 0,0.202 c -0.234,-0.202 -0.84,-0.299 -1.375,-0.299 -1.41,0 -2.617,0.909 -2.617,2.595 0,1.987 2.35,2.698 3.896,2.057 0,0 0.033,1.11 -1.043,1.214 -0.975,0.136 -1.747,-0.573 -1.948,-0.88 l -0.438,1.483 c 1.749,1.419 5.003,1.05 5.003,-1.684 l 0,-4.688 -1.478,0 z"
         style="fill:#ffffff;fill-opacity:1;fill-rule:nonzero;stroke:none"
         id="path3383"
         inkscape:connector-curvature="0" />
    </g>
    <g
       id="g3385"
       transform="matrix(1.25,0,0,-1.25,400.14,538.52593)">
      <path
         d="m 0,0 c -2.416,0 -2.916,1.852 -2.916,3.671 0,1.554 0.5,3.643 2.916,3.643 1.507,0 2.313,-0.742 2.65,-1.755 L 1.106,5.019 C 0.938,5.594 0.601,5.899 0,5.899 c -1.176,0 -1.375,-1.519 -1.375,-2.228 0,-0.706 0.199,-2.258 1.375,-2.258 0.772,0 1.106,0.607 1.207,1.314 L 2.751,2.325 C 2.479,1.073 1.74,0 0,0"
         style="fill:#ffffff;fill-opacity:1;fill-rule:nonzero;stroke:none"
         id="path3387"
         inkscape:connector-curvature="0" />
    </g>
    <g
       id="g3389"
       transform="matrix(1.25,0,0,-1.25,383.29,531.15218)">
      <path
         d="m 0,0 c -1.176,0 -1.342,-0.777 -1.342,-1.485 l 2.615,0 C 1.273,-0.81 1.14,0 0,0 m -1.309,-2.9 c 0.07,-0.778 0.369,-1.586 1.309,-1.586 0.634,0 1.14,0.372 1.306,0.974 L 2.545,-4.285 C 2.143,-5.195 1.406,-5.899 0,-5.899 c -2.411,0 -2.881,1.852 -2.881,3.671 0,1.554 0.47,3.643 2.881,3.643 2.746,0 2.812,-2.595 2.78,-4.315 l -4.089,0 z"
         style="fill:#ffffff;fill-opacity:1;fill-rule:nonzero;stroke:none"
         id="path3391"
         inkscape:connector-curvature="0" />
    </g>
    <g
       id="g3393"
       transform="matrix(1.25,0,0,-1.25,410.32,538.36344)">
      <path
         d="M 0,0 0,4.656 C 0,5.565 -0.605,5.769 -1.417,5.769 -2.022,5.736 -2.593,5.397 -2.593,4.589 l 0,-4.589 -1.553,0 0,9.036 1.515,0.742 0,-3.001 C -1.045,7.791 1.521,6.983 1.521,4.824 L 1.521,0 0,0 z"
         style="fill:#ffffff;fill-opacity:1;fill-rule:nonzero;stroke:none"
         id="path3395"
         inkscape:connector-curvature="0" />
    </g>
    <g
       id="g3397"
       transform="matrix(1.25,0,0,-1.25,375.295,533.22593)">
      <path
         d="m 0,0 c -0.204,0.068 -0.305,0.068 -0.642,0.068 l -1.92,0 0,-2.627 2.292,0 c 0.775,0 1.179,0.37 1.179,1.111 C 0.909,-0.807 0.54,-0.201 0,0 m -0.34,3.974 -2.222,0 0,-2.355 1.82,0 c 0.437,0 0.638,0.065 0.91,0.266 0.337,0.274 0.538,0.676 0.538,1.114 0,0.64 -0.369,0.975 -1.046,0.975 M 0.909,-3.868 C 0.57,-4.006 0,-4.11 -0.441,-4.11 l -3.636,0 0,9.602 3.636,0 c 1.519,0 2.662,-1.045 2.662,-2.426 0,-0.942 -0.437,-1.648 -1.344,-2.156 1.008,-0.47 1.581,-1.277 1.581,-2.325 0,-1.04 -0.641,-2.084 -1.549,-2.453"
         style="fill:#ffffff;fill-opacity:1;fill-rule:nonzero;stroke:none"
         id="path3399"
         inkscape:connector-curvature="0" />
    </g>
    <g
       id="g3401"
       transform="matrix(1.25,0,0,-1.25,422.3025,538.36344)">
      <path
         d="m 0,0 0,7.783 -0.868,0 0,1.213 0.101,0 c 0.399,0 0.833,0.234 1.099,0.606 l 1.202,0 L 1.534,0 0,0 z"
         style="fill:#ffffff;fill-opacity:1;fill-rule:nonzero;stroke:none"
         id="path3403"
         inkscape:connector-curvature="0" />
    </g>
    <g
       id="g3405"
       transform="matrix(1.25,0,0,-1.25,429.80375,538.56719)">
      <path
         d="m 0,0 c -0.842,0 -1.681,0.201 -2.354,0.533 l 0.738,1.347 c 0.402,-0.201 1.113,-0.332 1.82,-0.332 1.38,0 2.46,0.905 2.46,2.156 0,0.941 -0.773,1.68 -1.719,1.68 -0.673,0 -0.977,-0.201 -1.548,-1.011 l -1.518,0.441 0.234,4.951 5.527,0 0,-1.518 -4.042,0 -0.101,-1.581 C 0.204,6.867 0.506,6.933 0.979,6.933 2.731,6.933 4.178,5.454 4.178,3.704 4.178,1.581 2.426,0 0,0"
         style="fill:#ffffff;fill-opacity:1;fill-rule:nonzero;stroke:none"
         id="path3407"
         inkscape:connector-curvature="0" />
    </g>
    <g
       id="g3409"
       transform="matrix(1.25,0,0,-1.25,367.26,571.67218)">
      <path
         d="m 0,0 c 0.535,-0.038 0.905,0.098 1.274,0.47 l 0,3.541 C 0.872,4.416 0.535,4.518 0.101,4.518 -1.076,4.478 -1.41,3.302 -1.378,2.292 -1.343,1.316 -1.041,0.032 0,0 M -2.922,2.292 C -2.887,4.146 -2.283,6.133 0,5.932 0.468,5.898 1.139,5.697 1.308,5.526 l 0,0.237 1.51,0 0,-6.1 c 0,-0.912 0.503,-4.052 -3.188,-4.421 l -0.738,1.146 c 0.872,0.201 2.416,0.541 2.416,1.724 l 0,0.84 c -0.436,-0.268 -0.805,-0.37 -1.343,-0.37 -2.114,0 -2.919,1.717 -2.887,3.71"
         style="fill:#ffffff;fill-opacity:1;fill-rule:nonzero;stroke:none"
         id="path3411"
         inkscape:connector-curvature="0" />
    </g>
    <path
       d="m 350.4045,564.46781 1.92125,0 0,8.765 -1.92125,0 0,-8.765 z m 0.96125,-1.46875 c -0.54875,0 -1.01125,-0.425 -1.01125,-0.97875 0,-0.54625 0.4625,-1.01125 1.01125,-1.01125 0.5475,0 1.0125,0.465 1.0125,1.01125 0,0.55375 -0.465,0.97875 -1.0125,0.97875"
       style="fill:#ffffff;fill-opacity:1;fill-rule:nonzero;stroke:none"
       id="path3413"
       inkscape:connector-curvature="0" />
    <g
       id="g3415"
       transform="matrix(1.25,0,0,-1.25,359.91,573.23344)">
      <path
         d="M 0,0 0,4.654 C 0,5.559 -0.606,5.767 -1.416,5.767 -2.023,5.727 -2.597,5.395 -2.597,4.582 l 0,-4.582 -1.55,0 0,7.012 1.517,0 0,-0.237 C -1.044,7.786 1.52,6.979 1.52,4.822 L 1.52,0 0,0 z"
         style="fill:#ffffff;fill-opacity:1;fill-rule:nonzero;stroke:none"
         id="path3417"
         inkscape:connector-curvature="0" />
    </g>
    <g
       id="g3419"
       transform="matrix(1.25,0,0,-1.25,398.685,573.23344)">
      <path
         d="M 0,0 0,4.654 C 0,5.559 -0.607,5.767 -1.418,5.767 -2.024,5.727 -2.597,5.395 -2.597,4.582 l 0,-4.582 -1.551,0 0,7.012 1.516,0 0,-0.237 C -1.046,7.786 1.517,6.979 1.517,4.822 L 1.517,0 0,0 z"
         style="fill:#ffffff;fill-opacity:1;fill-rule:nonzero;stroke:none"
         id="path3421"
         inkscape:connector-curvature="0" />
    </g>
    <g
       id="g3423"
       transform="matrix(1.25,0,0,-1.25,387.93625,566.02469)">
      <path
         d="m 0,0 c -1.184,0 -1.387,-1.555 -1.387,-2.259 0,-0.708 0.203,-2.259 1.387,-2.259 1.189,0 1.356,1.583 1.356,2.292 C 1.356,-1.555 1.153,0 0,0 m 0,-5.903 c -2.437,0 -2.944,1.855 -2.944,3.677 0,1.551 0.507,3.64 2.944,3.64 2.407,0 2.915,-1.954 2.915,-3.64 0,-1.687 -0.508,-3.677 -2.915,-3.677"
         style="fill:#ffffff;fill-opacity:1;fill-rule:nonzero;stroke:none"
         id="path3425"
         inkscape:connector-curvature="0" />
    </g>
    <g
       id="g3427"
       transform="matrix(1.25,0,0,-1.25,383.16,573.02343)">
      <path
         d="m 0,0 c -0.508,-0.235 -0.781,-0.304 -1.156,-0.304 -1.123,-0.065 -1.462,0.812 -1.462,1.821 l 0,3.914 -1.02,0 0,1.413 1.02,0 0,2.023 1.5,0.744 0,-2.767 1.222,0 0,-1.38 -1.222,0 0,-3.712 c 0,-0.468 0.067,-0.671 0.506,-0.671 0.342,0 0.511,0.098 0.817,0.332 L 0,0 z"
         style="fill:#ffffff;fill-opacity:1;fill-rule:nonzero;stroke:none"
         id="path3429"
         inkscape:connector-curvature="0" />
    </g>
    <g
       id="g3431"
       transform="matrix(1.25,0,0,-1.25,346.41,573.23344)">
      <path
         d="M 0,0 -2.432,4.544 -3.447,3.3 l 0,-3.3 -1.522,0 0,9.601 1.522,0 0,-3.808 3.04,3.808 1.961,0 L -1.42,5.858 1.757,0 0,0 z"
         style="fill:#ffffff;fill-opacity:1;fill-rule:nonzero;stroke:none"
         id="path3433"
         inkscape:connector-curvature="0" />
    </g>
    <g
       id="g3435"
       transform="matrix(1.25,0,0,-1.25,409.9175,573.23344)">
      <path
         d="m 0,0 0,7.779 -0.87,0 0,1.211 0.1,0 c 0.403,0 0.835,0.241 1.102,0.611 l 1.2,0 L 1.532,0 0,0 z"
         style="fill:#ffffff;fill-opacity:1;fill-rule:nonzero;stroke:none"
         id="path3437"
         inkscape:connector-curvature="0" />
    </g>
    <g
       id="g3439"
       transform="matrix(1.25,0,0,-1.25,420.38125,563.88469)">
      <path
         d="m 0,0 c -0.307,0.501 -0.676,0.704 -1.249,0.738 -0.741,0.037 -1.219,-0.333 -1.553,-1.18 -0.239,-0.572 -0.375,-1.445 -0.375,-2.252 0,-1.016 0.206,-2.059 0.577,-2.664 0.303,-0.508 0.71,-0.741 1.316,-0.741 0.709,0 1.148,0.371 1.487,1.211 0.201,0.508 0.37,1.45 0.37,2.194 C 0.573,-1.621 0.372,-0.642 0,0 m 1.046,-6.567 c -0.541,-0.744 -1.315,-1.081 -2.33,-1.081 -1.352,0 -2.194,0.54 -2.767,1.717 -0.407,0.809 -0.678,2.091 -0.678,3.237 0,1.581 0.407,2.994 1.047,3.906 0.574,0.742 1.352,1.074 2.465,1.074 1.217,0 2.062,-0.534 2.669,-1.719 0.406,-0.84 0.642,-2.052 0.642,-3.261 0,-1.518 -0.372,-3.034 -1.048,-3.873"
         style="fill:#ffffff;fill-opacity:1;fill-rule:nonzero;stroke:none"
         id="path3441"
         inkscape:connector-curvature="0" />
    </g>
    <g
       id="g3443"
       transform="matrix(1.25,0,0,-1.25,375.0775,573.39843)">
      <path
         d="m 0,0 c -1.015,0 -1.628,0.438 -2.069,1.109 l 1.083,0.91 c 0.34,-0.435 0.781,-0.735 1.222,-0.606 0.644,0.176 0.711,0.781 0.201,1.318 -0.917,1.047 -2.378,1.482 -2.479,2.555 -0.069,0.946 0.435,1.727 1.453,1.96 0.814,0.201 1.831,0.008 2.648,-0.97 L 0.976,5.398 c 0,0 -0.749,0.874 -1.258,0.366 C -1.127,4.954 2.606,4.052 2.44,1.961 2.374,0.912 1.527,0 0,0"
         style="fill:#ffffff;fill-opacity:1;fill-rule:nonzero;stroke:none"
         id="path3445"
         inkscape:connector-curvature="0" />
    </g>
  </g>
</svg>
