<?xml version="1.0" encoding="UTF-8" standalone="no"?>
<!-- Created with Inkscape (http://www.inkscape.org/) -->

<svg
   xmlns:dc="http://purl.org/dc/elements/1.1/"
   xmlns:cc="http://creativecommons.org/ns#"
   xmlns:rdf="http://www.w3.org/1999/02/22-rdf-syntax-ns#"
   xmlns:svg="http://www.w3.org/2000/svg"
   xmlns="http://www.w3.org/2000/svg"
   xmlns:sodipodi="http://sodipodi.sourceforge.net/DTD/sodipodi-0.dtd"
   xmlns:inkscape="http://www.inkscape.org/namespaces/inkscape"
   width="36.640625"
   height="72.617203"
   id="svg7677"
   version="1.1"
   inkscape:version="0.48.3.1 r9886"
   sodipodi:docname="New document 35">
  <defs
     id="defs7679">
    <clipPath
       clipPathUnits="userSpaceOnUse"
       id="clipPath3587">
      <path
         inkscape:connector-curvature="0"
         d="m 62.625,204.75 513.375,0 0,533.25 -513.375,0 0,-533.25 z"
         id="path3589" />
    </clipPath>
  </defs>
  <sodipodi:namedview
     id="base"
     pagecolor="#ffffff"
     bordercolor="#666666"
     borderopacity="1.0"
     inkscape:pageopacity="0.0"
     inkscape:pageshadow="2"
     inkscape:zoom="0.35"
     inkscape:cx="18.312505"
     inkscape:cy="36.298757"
     inkscape:document-units="px"
     inkscape:current-layer="layer1"
     showgrid="false"
     fit-margin-top="0"
     fit-margin-left="0"
     fit-margin-right="0"
     fit-margin-bottom="0"
     inkscape:window-width="451"
     inkscape:window-height="398"
     inkscape:window-x="75"
     inkscape:window-y="75"
     inkscape:window-maximized="0" />
  <metadata
     id="metadata7682">
    <rdf:RDF>
      <cc:Work
         rdf:about="">
        <dc:format>image/svg+xml</dc:format>
        <dc:type
           rdf:resource="http://purl.org/dc/dcmitype/StillImage" />
        <dc:title></dc:title>
      </cc:Work>
    </rdf:RDF>
  </metadata>
  <g
     inkscape:label="Layer 1"
     inkscape:groupmode="layer"
     id="layer1"
     transform="translate(-356.6875,-496.04374)">
    <g
       transform="matrix(1.25,0,0,-1.25,244.17162,844.38905)"
       id="g3583">
      <g
         id="g3585"
         clip-path="url(#clipPath3587)">
        <g
           id="g3591"
           transform="translate(90.2627,274.5825)">
          <path
             inkscape:connector-curvature="0"
             d="m 0,0 c 0,2.088 1.751,3.84 3.84,3.84 l 21.12,0 C 27.048,3.84 28.8,2.088 28.8,0 l 0,-49.922 c 0,-2.094 -1.762,-3.845 -3.856,-3.84 l -21.089,0 C 1.76,-53.767 0,-52.016 0,-49.922 L 0,0"
             style="fill:#ffffff;fill-opacity:1;fill-rule:nonzero;stroke:#231f20;stroke-width:0.5;stroke-linecap:butt;stroke-linejoin:miter;stroke-miterlimit:4;stroke-opacity:1;stroke-dasharray:none"
             id="path3593" />
        </g>
        <g
           id="g3595"
           transform="translate(91.2373,274.8755)">
          <path
             inkscape:connector-curvature="0"
             d="M 0,0 C 0.188,1.473 1.388,2.549 2.877,2.586 L 24.133,2.582 c 1.534,-0.119 2.693,-1.342 2.731,-2.889 l -0.003,-50.056 c -0.115,-1.533 -1.346,-2.692 -2.888,-2.731 L 2.717,-53.09 c -1.535,0.115 -2.693,1.346 -2.733,2.889 l 0.005,50.055 C -0.008,-0.098 -0.004,-0.049 0,0"
             style="fill:#00674c;fill-opacity:1;fill-rule:evenodd;stroke:#ffffff;stroke-width:1.5;stroke-linecap:butt;stroke-linejoin:miter;stroke-miterlimit:3.86400008;stroke-opacity:1;stroke-dasharray:none"
             id="path3597" />
        </g>
        <g
           id="g3599"
           transform="translate(114.0322,260.3695)">
          <path
             inkscape:connector-curvature="0"
             d="m 0,0 0,1.246 -2.458,0 0,3.367 1.549,0 0,1.28 -1.549,0 0,2.457 2.323,0 0,1.246 -3.535,0 L -3.67,0 0,0 z m -4.982,0 0,1.112 -2.458,0 0,8.484 -1.212,0 0,-9.596 3.67,0 z m -5.758,9.596 -1.211,0 0,-9.596 1.211,0 0,9.596 z M -14.039,0 l 0,9.596 -1.212,0 -1.145,-3.4 -1.178,3.4 -1.212,0 0,-9.596 1.212,0 0,5.692 1.178,-3.604 1.145,3.604 0,-5.692 1.212,0 z"
             style="fill:#ffffff;fill-opacity:1;fill-rule:evenodd;stroke:none"
             id="path3601" />
        </g>
        <g
           id="g3603"
           transform="translate(107.5127,247.7235)">
          <path
             inkscape:connector-curvature="0"
             d="M 0,0 -6.692,-8.815 0,-8.815 0,0 z m 3.717,-12.192 0,-5.849 -3.717,0 0,5.849 -11.649,0 0,2.225 L 0,5.437 l 3.717,0 0,-14.252 2.231,0 0,-3.377 -2.231,0 z"
             style="fill:#ffffff;fill-opacity:1;fill-rule:nonzero;stroke:none"
             id="path3605" />
        </g>
      </g>
    </g>
  </g>
</svg>
