<?xml version="1.0" encoding="UTF-8" standalone="no"?>
<!-- Created with Inkscape (http://www.inkscape.org/) -->

<svg
   xmlns:dc="http://purl.org/dc/elements/1.1/"
   xmlns:cc="http://creativecommons.org/ns#"
   xmlns:rdf="http://www.w3.org/1999/02/22-rdf-syntax-ns#"
   xmlns:svg="http://www.w3.org/2000/svg"
   xmlns="http://www.w3.org/2000/svg"
   xmlns:sodipodi="http://sodipodi.sourceforge.net/DTD/sodipodi-0.dtd"
   xmlns:inkscape="http://www.inkscape.org/namespaces/inkscape"
   width="108.04688"
   height="36.445312"
   id="svg5408"
   version="1.1"
   inkscape:version="0.48.2 r9819"
   sodipodi:docname="New document 8">
  <defs
     id="defs5410">
    <clipPath
       clipPathUnits="userSpaceOnUse"
       id="clipPath4299">
      <path
         inkscape:connector-curvature="0"
         d="m 26.875,247.455 513.125,0 0,492.545 -513.125,0 0,-492.545 z"
         id="path4301" />
    </clipPath>
  </defs>
  <sodipodi:namedview
     id="base"
     pagecolor="#ffffff"
     bordercolor="#666666"
     borderopacity="1.0"
     inkscape:pageopacity="0.0"
     inkscape:pageshadow="2"
     inkscape:zoom="0.35"
     inkscape:cx="54.015937"
     inkscape:cy="18.229705"
     inkscape:document-units="px"
     inkscape:current-layer="layer1"
     showgrid="false"
     fit-margin-top="0"
     fit-margin-left="0"
     fit-margin-right="0"
     fit-margin-bottom="0"
     inkscape:window-width="469"
     inkscape:window-height="425"
     inkscape:window-x="50"
     inkscape:window-y="50"
     inkscape:window-maximized="0" />
  <metadata
     id="metadata5413">
    <rdf:RDF>
      <cc:Work
         rdf:about="">
        <dc:format>image/svg+xml</dc:format>
        <dc:type
           rdf:resource="http://purl.org/dc/dcmitype/StillImage" />
        <dc:title></dc:title>
      </cc:Work>
    </rdf:RDF>
  </metadata>
  <g
     inkscape:label="Layer 1"
     inkscape:groupmode="layer"
     id="layer1"
     transform="translate(-320.98406,-514.14657)">
    <g
       clip-path="url(#clipPath4299)"
       id="g4297"
       transform="matrix(1.25,0,0,-1.25,-54.4545,1333.4852)">
      <g
         transform="translate(307.7571,655.2209)"
         id="g4303">
        <path
           inkscape:connector-curvature="0"
           id="path4305"
           style="fill:#ffffff;fill-opacity:1;fill-rule:evenodd;stroke:none"
           d="m 0,0 71.614,0 c 3.955,0 7.16,-3.205 7.16,-7.16 l 0,-14.325 c 0,-3.955 -3.205,-7.16 -7.16,-7.16 l -71.614,0 c -3.955,0 -7.161,3.205 -7.161,7.16 l 0,14.325 C -7.161,-3.205 -3.955,0 0,0" />
      </g>
      <g
         transform="translate(307.7571,655.2209)"
         id="g4307">
        <path
           inkscape:connector-curvature="0"
           id="path4309"
           style="fill:none;stroke:#231f20;stroke-width:0.5;stroke-linecap:butt;stroke-linejoin:miter;stroke-miterlimit:3.86400008;stroke-opacity:1;stroke-dasharray:none"
           d="m 0,0 71.614,0 c 3.955,0 7.16,-3.205 7.16,-7.16 l 0,-14.325 c 0,-3.955 -3.205,-7.16 -7.16,-7.16 l -71.614,0 c -3.955,0 -7.161,3.205 -7.161,7.16 l 0,14.325 C -7.161,-3.205 -3.955,0 0,0 z" />
      </g>
      <g
         transform="translate(307.7571,652.8342)"
         id="g4311">
        <path
           inkscape:connector-curvature="0"
           id="path4313"
           style="fill:#00674c;fill-opacity:1;fill-rule:evenodd;stroke:none"
           d="m 0,0 71.614,0 c 2.637,0 4.773,-2.137 4.773,-4.774 l 0,-14.324 c 0,-2.636 -2.136,-4.773 -4.773,-4.773 l -71.614,0 c -2.637,0 -4.775,2.137 -4.775,4.773 l 0,14.324 C -4.775,-2.137 -2.637,0 0,0" />
      </g>
      <g
         transform="translate(312.8472,637.649)"
         id="g4315">
        <path
           inkscape:connector-curvature="0"
           id="path4317"
           style="fill:#ffffff;fill-opacity:1;fill-rule:nonzero;stroke:none"
           d="m 0,0 -2.102,0 0,2.677 2.102,0 C 0.345,2.677 0.647,2.562 0.909,2.334 1.195,2.084 1.338,1.753 1.338,1.339 1.338,0.447 0.892,0 0,0 M 0.727,4.451 C 0.51,4.285 0.275,4.203 0.02,4.203 l -2.122,0 0,2.295 2.008,0 C 0.23,6.498 0.503,6.418 0.727,6.259 1.007,6.062 1.148,5.765 1.148,5.371 1.148,4.98 1.007,4.675 0.727,4.451 m 0.758,-1.01 c 0.792,0.451 1.187,1.094 1.187,1.928 0,0.769 -0.258,1.404 -0.777,1.904 -0.519,0.5 -1.17,0.75 -1.952,0.75 l -3.569,0 0,-9.547 3.626,0 c 0.827,0 1.511,0.274 2.052,0.82 0.541,0.547 0.812,1.229 0.812,2.043 0,1 -0.46,1.7 -1.379,2.102 M -3.629,3.164 c -0.002,0 -0.003,0.002 -0.003,0.009 l 0.003,0.01 0.003,-0.01 -0.003,-0.009 z" />
      </g>
      <path
         inkscape:connector-curvature="0"
         id="path4319"
         style="fill:#ffffff;fill-opacity:1;fill-rule:nonzero;stroke:none"
         d="m 318.71,636.125 -1.525,0 0,9.547 1.525,0 0,-9.547 z" />
      <g
         transform="translate(327.5452,636.125)"
         id="g4321">
        <path
           inkscape:connector-curvature="0"
           id="path4323"
           style="fill:#ffffff;fill-opacity:1;fill-rule:nonzero;stroke:none"
           d="m 0,0 -1.72,0 -2.454,4.582 -0.984,-1.25 0,-3.332 -1.526,0 0,9.547 1.526,0 0,-3.752 2.97,3.752 1.958,0 L -3.132,5.891 0,0 z" />
      </g>
      <g
         transform="translate(334.9442,636.125)"
         id="g4325">
        <path
           inkscape:connector-curvature="0"
           id="path4327"
           style="fill:#ffffff;fill-opacity:1;fill-rule:nonzero;stroke:none"
           d="m 0,0 -5.92,0 0,9.547 5.73,0 0,-1.525 -4.203,0 0,-2.295 2.904,0 0,-1.526 -2.904,0 0,-2.677 L 0,1.524 0,0 z" />
      </g>
      <g
         transform="translate(345.3232,643.0197)"
         id="g4329">
        <path
           inkscape:connector-curvature="0"
           id="path4331"
           style="fill:#ffffff;fill-opacity:1;fill-rule:nonzero;stroke:none"
           d="M 0,0 C 0,0.318 -0.106,0.586 -0.32,0.803 -0.533,1.019 -0.8,1.127 -1.117,1.127 l -2.198,0 0,-2.295 2.198,0 c 0.317,0 0.584,0.113 0.797,0.34 C -0.106,-0.602 0,-0.326 0,0 m 1.652,-6.895 -1.614,0 -1.538,4.202 -1.815,0 0,-4.202 -1.525,0 0,9.547 3.712,0 C -0.396,2.652 0.23,2.394 0.747,1.875 1.266,1.356 1.525,0.731 1.525,-0.002 1.525,-1.07 1.02,-1.873 0.01,-2.408 l 1.642,-4.487 z" />
      </g>
      <g
         transform="translate(353.5201,640.8986)"
         id="g4333">
        <path
           inkscape:connector-curvature="0"
           id="path4335"
           style="fill:#ffffff;fill-opacity:1;fill-rule:nonzero;stroke:none"
           d="m 0,0 c 0,0.975 -0.143,1.758 -0.43,2.344 -0.326,0.67 -0.804,1.004 -1.435,1.004 -0.638,0 -1.116,-0.334 -1.434,-1.004 C -3.587,1.764 -3.73,0.982 -3.73,0 c 0,-0.977 0.143,-1.758 0.431,-2.346 0.325,-0.67 0.803,-1.004 1.434,-1.004 0.631,0 1.109,0.334 1.435,1.004 C -0.143,-1.758 0,-0.977 0,0 m 1.525,0 c 0,-1.287 -0.23,-2.361 -0.688,-3.221 -0.592,-1.102 -1.493,-1.654 -2.702,-1.654 -1.216,0 -2.117,0.552 -2.703,1.654 -0.458,0.854 -0.687,1.926 -0.687,3.221 0,1.293 0.229,2.367 0.687,3.221 0.586,1.101 1.487,1.652 2.703,1.652 1.209,0 2.11,-0.551 2.702,-1.652 C 1.295,2.359 1.525,1.287 1.525,0" />
      </g>
      <g
         transform="translate(363.4921,639.2052)"
         id="g4337">
        <path
           inkscape:connector-curvature="0"
           id="path4339"
           style="fill:#ffffff;fill-opacity:1;fill-rule:nonzero;stroke:none"
           d="m 0,0 c 0,-0.814 -0.297,-1.537 -0.888,-2.168 -0.636,-0.676 -1.423,-1.013 -2.358,-1.013 -0.941,0 -1.728,0.336 -2.357,1.004 C -6.195,-1.552 -6.49,-0.828 -6.49,0 l 0,6.467 1.524,0 0,-6.469 c 0,-0.465 0.169,-0.857 0.507,-1.176 0.338,-0.318 0.742,-0.478 1.213,-0.478 0.478,0 0.884,0.16 1.219,0.478 0.334,0.319 0.502,0.711 0.502,1.176 l 0,6.469 L 0,6.467 0,0 z" />
      </g>
      <g
         transform="translate(370.7012,644.1467)"
         id="g4341">
        <path
           inkscape:connector-curvature="0"
           id="path4343"
           style="fill:#ffffff;fill-opacity:1;fill-rule:nonzero;stroke:none"
           d="m 0,0 -2.199,0 0,-8.022 -1.524,0 0,8.022 -2.197,0 0,1.525 5.92,0 L 0,0 z" />
      </g>
      <g
         transform="translate(377.9142,636.125)"
         id="g4345">
        <path
           inkscape:connector-curvature="0"
           id="path4347"
           style="fill:#ffffff;fill-opacity:1;fill-rule:nonzero;stroke:none"
           d="m 0,0 -5.922,0 0,9.547 5.73,0 0,-1.525 -4.205,0 0,-2.295 2.907,0 0,-1.526 -2.907,0 0,-2.677 L 0,1.524 0,0 z" />
      </g>
    </g>
  </g>
</svg>
