<?xml version="1.0" encoding="UTF-8" standalone="no"?>
<!-- Created with Inkscape (http://www.inkscape.org/) -->

<svg
   xmlns:dc="http://purl.org/dc/elements/1.1/"
   xmlns:cc="http://creativecommons.org/ns#"
   xmlns:rdf="http://www.w3.org/1999/02/22-rdf-syntax-ns#"
   xmlns:svg="http://www.w3.org/2000/svg"
   xmlns="http://www.w3.org/2000/svg"
   xmlns:sodipodi="http://sodipodi.sourceforge.net/DTD/sodipodi-0.dtd"
   xmlns:inkscape="http://www.inkscape.org/namespaces/inkscape"
   width="109.21875"
   height="109.21875"
   id="svg5633"
   version="1.1"
   inkscape:version="0.48.2 r9819"
   sodipodi:docname="New document 12">
  <defs
     id="defs5635">
    <clipPath
       clipPathUnits="userSpaceOnUse"
       id="clipPath3137">
      <path
         inkscape:connector-curvature="0"
         d="m 26.875,247.455 513.125,0 0,492.545 -513.125,0 0,-492.545 z"
         id="path3139" />
    </clipPath>
    <clipPath
       clipPathUnits="userSpaceOnUse"
       id="clipPath3125">
      <path
         inkscape:connector-curvature="0"
         d="m 31.076,249.531 504.723,0 0,488.393 -504.723,0 0,-488.393 z"
         id="path3127" />
    </clipPath>
  </defs>
  <sodipodi:namedview
     id="base"
     pagecolor="#ffffff"
     bordercolor="#666666"
     borderopacity="1.0"
     inkscape:pageopacity="0.0"
     inkscape:pageshadow="2"
     inkscape:zoom="0.35"
     inkscape:cx="54.595625"
     inkscape:cy="54.606917"
     inkscape:document-units="px"
     inkscape:current-layer="layer1"
     showgrid="false"
     fit-margin-top="0"
     fit-margin-left="0"
     fit-margin-right="0"
     fit-margin-bottom="0"
     inkscape:window-width="469"
     inkscape:window-height="425"
     inkscape:window-x="100"
     inkscape:window-y="100"
     inkscape:window-maximized="0" />
  <metadata
     id="metadata5638">
    <rdf:RDF>
      <cc:Work
         rdf:about="">
        <dc:format>image/svg+xml</dc:format>
        <dc:type
           rdf:resource="http://purl.org/dc/dcmitype/StillImage" />
        <dc:title></dc:title>
      </cc:Work>
    </rdf:RDF>
  </metadata>
  <g
     inkscape:label="Layer 1"
     inkscape:groupmode="layer"
     id="layer1"
     transform="translate(-320.40437,-477.75035)">
    <g
       transform="matrix(1.25,0,0,-1.25,281.265,1195.5266)"
       clip-path="url(#clipPath3125)"
       id="g3123">
      <g
         transform="translate(36.5615,573.971)"
         id="g3129">
        <path
           inkscape:connector-curvature="0"
           id="path3131"
           style="fill:none;stroke:#231f20;stroke-width:0.5;stroke-linecap:butt;stroke-linejoin:miter;stroke-miterlimit:3.86400008;stroke-opacity:1;stroke-dasharray:none"
           d="m 0,0 76.854,0 c 2.769,0 5.012,-2.243 5.012,-5.012 l 0,-76.854 c 0,-2.769 -2.243,-5.013 -5.012,-5.013 l -76.854,0 c -2.769,0 -5.013,2.244 -5.013,5.013 l 0,76.854 C -5.013,-2.243 -2.769,0 0,0 z" />
      </g>
    </g>
    <g
       transform="matrix(1.25,0,0,-1.25,281.265,1195.5266)"
       clip-path="url(#clipPath3137)"
       id="g3135">
      <g
         transform="translate(36.5615,572.301)"
         id="g3141">
        <path
           inkscape:connector-curvature="0"
           id="path3143"
           style="fill:#00674c;fill-opacity:1;fill-rule:nonzero;stroke:none"
           d="m 0,0 76.854,0 c 1.846,0 3.342,-1.496 3.342,-3.342 l 0,-76.854 c 0,-1.845 -1.496,-3.341 -3.342,-3.341 l -76.854,0 c -1.846,0 -3.342,1.496 -3.342,3.341 l 0,76.854 C -3.342,-1.496 -1.846,0 0,0" />
      </g>
      <g
         transform="translate(36.5615,572.301)"
         id="g3145">
        <path
           inkscape:connector-curvature="0"
           id="path3147"
           style="fill:none;stroke:#ffffff;stroke-width:0.25;stroke-linecap:butt;stroke-linejoin:miter;stroke-miterlimit:4;stroke-opacity:1;stroke-dasharray:none"
           d="m 0,0 76.854,0 c 1.846,0 3.342,-1.496 3.342,-3.342 l 0,-76.854 c 0,-1.845 -1.496,-3.341 -3.342,-3.341 l -76.854,0 c -1.846,0 -3.342,1.496 -3.342,3.341 l 0,76.854 C -3.342,-1.496 -1.846,0 0,0 z" />
      </g>
      <g
         transform="translate(71.0616,557.686)"
         id="g3149">
        <path
           inkscape:connector-curvature="0"
           id="path3151"
           style="fill:#ffffff;fill-opacity:1;fill-rule:nonzero;stroke:none"
           d="m 0,0 c 2.11,0 3.846,-1.736 3.846,-3.847 0,-2.11 -1.736,-3.846 -3.846,-3.846 -2.111,0 -3.847,1.736 -3.847,3.846 C -3.847,-1.736 -2.111,0 0,0" />
      </g>
      <g
         transform="translate(71.9384,537.578)"
         id="g3153">
        <path
           inkscape:connector-curvature="0"
           id="path3155"
           style="fill:#ffffff;fill-opacity:1;fill-rule:nonzero;stroke:none"
           d="m 0,0 -2.299,-3.72 -8.82,-3.554 -1.505,2.3 8.36,5.977 c 0.753,3.637 1.965,7.692 4.097,9.991 1.171,1.275 3.178,1.401 4.599,0.711 l 12.206,-5.936 0.711,-13.043 -3.093,0.376 -1.38,10.619 -3.052,0.418 1.505,-4.391 c 0.544,-1.63 0.753,-2.674 0.753,-4.388 0,-1.422 -0.126,-2.279 -0.502,-3.637 l 7.149,-22.992 -3.637,-2.926 -8.528,19.856 -3.344,-3.762 -4.348,-15.342 -4.64,1.296 3.845,16.304 4.934,9.824 L 0,0" />
      </g>
    </g>
  </g>
</svg>
