<?xml version="1.0" encoding="UTF-8" standalone="no"?>
<!-- Created with Inkscape (http://www.inkscape.org/) -->

<svg
   xmlns:dc="http://purl.org/dc/elements/1.1/"
   xmlns:cc="http://creativecommons.org/ns#"
   xmlns:rdf="http://www.w3.org/1999/02/22-rdf-syntax-ns#"
   xmlns:svg="http://www.w3.org/2000/svg"
   xmlns="http://www.w3.org/2000/svg"
   xmlns:sodipodi="http://sodipodi.sourceforge.net/DTD/sodipodi-0.dtd"
   xmlns:inkscape="http://www.inkscape.org/namespaces/inkscape"
   width="109.21875"
   height="109.21875"
   id="svg5763"
   version="1.1"
   inkscape:version="0.48.2 r9819"
   sodipodi:docname="New document 16">
  <defs
     id="defs5765">
    <clipPath
       clipPathUnits="userSpaceOnUse"
       id="clipPath3197">
      <path
         inkscape:connector-curvature="0"
         d="m 26.875,247.455 513.125,0 0,492.545 -513.125,0 0,-492.545 z"
         id="path3199" />
    </clipPath>
  </defs>
  <sodipodi:namedview
     id="base"
     pagecolor="#ffffff"
     bordercolor="#666666"
     borderopacity="1.0"
     inkscape:pageopacity="0.0"
     inkscape:pageshadow="2"
     inkscape:zoom="0.35"
     inkscape:cx="-30.405"
     inkscape:cy="17.464017"
     inkscape:document-units="px"
     inkscape:current-layer="layer1"
     showgrid="false"
     fit-margin-top="0"
     fit-margin-left="0"
     fit-margin-right="0"
     fit-margin-bottom="0"
     inkscape:window-width="469"
     inkscape:window-height="425"
     inkscape:window-x="175"
     inkscape:window-y="175"
     inkscape:window-maximized="0" />
  <metadata
     id="metadata5768">
    <rdf:RDF>
      <cc:Work
         rdf:about="">
        <dc:format>image/svg+xml</dc:format>
        <dc:type
           rdf:resource="http://purl.org/dc/dcmitype/StillImage" />
        <dc:title></dc:title>
      </cc:Work>
    </rdf:RDF>
  </metadata>
  <g
     inkscape:label="Layer 1"
     inkscape:groupmode="layer"
     id="layer1"
     transform="translate(-405.405,-440.60745)">
    <g
       clip-path="url(#clipPath3197)"
       id="g3195"
       transform="matrix(1.25,0,0,-1.25,128.31225,1158.3837)">
      <g
         transform="translate(226.9242,573.971)"
         id="g3201">
        <path
           inkscape:connector-curvature="0"
           id="path3203"
           style="fill:#ffffff;fill-opacity:1;fill-rule:nonzero;stroke:none"
           d="m 0,0 76.853,0 c 2.77,0 5.012,-2.243 5.012,-5.013 l 0,-76.853 c 0,-2.769 -2.242,-5.013 -5.012,-5.013 l -76.853,0 c -2.769,0 -5.013,2.244 -5.013,5.013 l 0,76.853 C -5.013,-2.243 -2.769,0 0,0" />
      </g>
      <g
         transform="translate(226.9242,573.971)"
         id="g3205">
        <path
           inkscape:connector-curvature="0"
           id="path3207"
           style="fill:none;stroke:#231f20;stroke-width:0.5;stroke-linecap:butt;stroke-linejoin:miter;stroke-miterlimit:3.86400008;stroke-opacity:1;stroke-dasharray:none"
           d="m 0,0 76.853,0 c 2.77,0 5.012,-2.243 5.012,-5.013 l 0,-76.853 c 0,-2.769 -2.242,-5.013 -5.012,-5.013 l -76.853,0 c -2.769,0 -5.013,2.244 -5.013,5.013 l 0,76.853 C -5.013,-2.243 -2.769,0 0,0 z" />
      </g>
      <g
         transform="translate(226.9242,572.3)"
         id="g3209">
        <path
           inkscape:connector-curvature="0"
           id="path3211"
           style="fill:#00674c;fill-opacity:1;fill-rule:nonzero;stroke:none"
           d="m 0,0 76.853,0 c 1.846,0 3.342,-1.496 3.342,-3.342 l 0,-76.853 c 0,-1.846 -1.496,-3.342 -3.342,-3.342 l -76.853,0 c -1.846,0 -3.342,1.496 -3.342,3.342 l 0,76.853 C -3.342,-1.496 -1.846,0 0,0" />
      </g>
      <g
         transform="translate(226.9242,572.3)"
         id="g3213">
        <path
           inkscape:connector-curvature="0"
           id="path3215"
           style="fill:none;stroke:#ffffff;stroke-width:0.5;stroke-linecap:butt;stroke-linejoin:miter;stroke-miterlimit:4;stroke-opacity:1;stroke-dasharray:none"
           d="m 0,0 76.853,0 c 1.846,0 3.342,-1.496 3.342,-3.342 l 0,-76.853 c 0,-1.846 -1.496,-3.342 -3.342,-3.342 l -76.853,0 c -1.846,0 -3.342,1.496 -3.342,3.342 l 0,76.853 C -3.342,-1.496 -1.846,0 0,0 z" />
      </g>
      <g
         transform="translate(264.9731,559.079)"
         id="g3217">
        <path
           inkscape:connector-curvature="0"
           id="path3219"
           style="fill:#ffffff;fill-opacity:1;fill-rule:evenodd;stroke:none"
           d="m 0,0 c 1.341,0 2.435,-1.058 2.435,-2.435 0,-1.341 -1.094,-2.436 -2.435,-2.436 -1.341,0 -2.435,1.095 -2.435,2.436 C -2.435,-1.058 -1.341,0 0,0 m 4.942,-11.718 c 0.352,-2.752 -0.247,-2.859 -0.036,-5.4 0.918,-0.036 1.412,-1.412 3.812,-1.412 2.648,-0.035 1.306,0.424 6.741,0.177 5.4,-0.283 7.341,-4.059 7.341,-6.283 0,-1.306 -0.388,-2.047 -0.353,-3.388 0.107,-2.224 0.531,-3.53 1.66,-5.436 -1.059,0.035 -1.731,0.212 -2.541,0.917 -0.777,0.671 -1.272,1.165 -1.625,2.118 l -0.529,-0.741 c 0.248,-0.811 0.529,-1.305 0.988,-2.011 0.529,-0.848 0.848,-1.483 1.766,-1.977 0.388,-0.247 0.07,-5.26 1.835,-9.918 0.176,0.035 0.282,0 0.459,-0.035 0.211,-0.07 0.387,-0.212 0.495,-0.389 l 0,-0.988 c -0.038,-0.565 -0.213,-0.918 -0.389,-1.483 -1.412,1.553 -1.483,0.989 -2.19,1.872 -0.529,0.705 -0.459,1.058 -1.093,2.011 -0.776,1.059 -0.319,3.176 -0.918,4.483 -0.635,1.306 -0.352,1.658 -0.6,1.871 -2.259,1.906 -5.788,5.541 -6.141,5.4 -0.318,-0.106 -1.482,-2.859 -1.27,-5.33 0.035,-0.459 -1.659,-2.26 -2.4,-3.848 -0.636,-1.412 -1.201,-2.223 -1.306,-3.847 l -1.06,-0.529 c 0,-0.423 -0.14,-0.989 -0.282,-1.059 -1.341,-0.67 -3.599,0.07 -3.599,0.353 0,0.67 1.693,1.8 2.681,2.859 0,0 0.601,0.953 0.778,1.694 0.529,2.047 1.482,3.706 1.693,6.177 0.141,1.906 0,3.036 -0.247,4.906 -1.73,-0.706 -2.753,-1.2 -4.623,-1.341 -2.683,-0.248 -3.848,-0.283 -6.247,-0.353 0.105,-0.953 0.352,-1.588 0.423,-2.506 0.176,-2.082 0.494,-2.117 1.094,-3.354 0.705,-1.447 1.518,-2.576 2.436,-3.317 0.635,-0.494 0.599,-0.917 0.917,-1.518 0.282,-0.106 0.494,-0.247 0.671,-0.494 0.282,-0.317 0.424,-0.6 0.494,-1.059 -0.389,-0.388 -0.636,-0.635 -1.024,-0.988 -0.494,-0.423 -0.812,-0.67 -1.341,-1.059 -0.176,0.494 -0.283,0.848 -0.388,1.377 -0.107,0.529 -0.071,1.094 -0.107,1.447 -1.235,0.847 -0.953,1.235 -1.694,1.765 -2.294,1.694 -1.87,2.153 -3.282,3.988 -2.082,2.753 -2.753,5.4 -3.177,5.294 -0.706,-0.211 -2.294,-1.941 -2.506,-3.494 -0.212,-1.553 -0.564,-0.176 -2.682,-4.447 -0.67,-1.413 -1.236,-2.647 -1.2,-3.954 -0.565,-0.14 -0.882,-0.352 -1.235,-0.811 -0.353,-0.423 -0.494,-0.882 -0.494,-1.447 l -3.459,0 c -0.036,1.235 1.623,1.518 2.718,3.953 1.27,2.858 1.411,2.823 1.588,3.388 0.988,3.071 1.093,0.777 1.764,5.718 0.247,1.836 0.318,2.224 0.353,3.6 -0.246,0.707 -0.388,1.095 -0.6,1.801 -0.212,0.705 -0.317,1.164 -0.459,1.906 -0.387,0.635 -0.67,1.023 -1.164,1.553 -0.459,0.494 -0.812,0.776 -1.377,1.164 l -5.012,-3.246 c -0.529,-0.319 -0.882,-0.601 -1.482,-0.566 -0.776,0.035 -1.165,0.388 -1.694,1.06 -0.883,-0.036 -1.377,0.387 -2.118,0.917 -0.67,0.494 -0.777,1.305 -0.459,2.048 l 3.353,8.222 c -0.177,0.283 -0.317,0.494 -0.459,0.848 -0.141,0.494 -0.317,0.918 -0.105,1.342 l 0.741,-0.424 0.14,0.352 c 0.319,-0.176 0.495,-0.317 0.777,-0.529 0.318,-0.282 0.459,-0.6 0.777,-0.917 2.788,-0.248 3.741,-0.637 6.106,-1.095 2.612,-0.53 4.13,-0.881 6.742,-1.518 0.176,0.283 0.352,0.459 0.599,0.707 0.248,0.176 0.389,0.317 0.671,0.494 l 1.129,-1.023 -0.706,-0.566 1.73,-0.458 c 0.494,0.529 1.094,0.458 1.659,0.882 0.564,0.388 0.811,0.882 1.377,1.235 l 0.247,1.694 c -0.741,-0.423 -1.165,-0.705 -1.836,-1.2 -0.67,-0.459 -1.059,-0.812 -1.694,-1.376 l -1.588,1.412 c 1.129,1.023 1.8,1.552 3,2.47 0.988,0.742 1.588,1.201 2.647,1.871 0.176,1.2 0.318,1.942 0.565,3.106 0.247,1.165 0.423,1.836 0.671,3.035 0.529,-0.035 0.881,0.035 1.376,0.213 0.459,0.141 0.706,0.316 1.059,0.6 1.446,-1.872 2.224,-3.636 2.718,-7.166 m -21.567,-12.036 -3.846,-2.576 c -0.601,-0.424 -1.306,-0.636 -1.8,-0.671 -0.565,0 -0.848,0.283 -1.342,0.601 l -0.247,-0.283 c 0.565,-0.705 0.741,-0.812 1.377,-0.883 0.6,-0.07 0.953,0.248 1.482,0.565 l 4.73,3.035 -0.354,0.212 z m -1.764,0.848 c -0.459,0.141 -0.777,0.211 -1.271,0.211 -0.387,-0.494 -0.741,-0.776 -1.27,-1.094 -0.529,-0.353 -0.883,-0.529 -1.483,-0.671 -0.07,-0.282 -0.212,-0.458 -0.388,-0.671 -0.176,-0.211 -0.318,-0.387 -0.53,-0.564 l -0.035,-0.424 c 0.318,-0.246 0.636,-0.529 1.095,-0.564 0.353,-0.071 1.129,0.105 1.658,0.459 l 3.813,2.576 c -0.601,0.318 -0.953,0.564 -1.589,0.742" />
      </g>
    </g>
  </g>
</svg>
