<?xml version="1.0" encoding="UTF-8" standalone="no"?>
<!-- Created with Inkscape (http://www.inkscape.org/) -->

<svg
   xmlns:dc="http://purl.org/dc/elements/1.1/"
   xmlns:cc="http://creativecommons.org/ns#"
   xmlns:rdf="http://www.w3.org/1999/02/22-rdf-syntax-ns#"
   xmlns:svg="http://www.w3.org/2000/svg"
   xmlns="http://www.w3.org/2000/svg"
   xmlns:sodipodi="http://sodipodi.sourceforge.net/DTD/sodipodi-0.dtd"
   xmlns:inkscape="http://www.inkscape.org/namespaces/inkscape"
   width="108.59375"
   height="36.640625"
   id="svg7509"
   version="1.1"
   inkscape:version="0.48.3.1 r9886"
   sodipodi:docname="New document 31">
  <defs
     id="defs7511">
    <clipPath
       clipPathUnits="userSpaceOnUse"
       id="clipPath3507">
      <path
         inkscape:connector-curvature="0"
         d="m 62.625,204.75 513.375,0 0,533.25 -513.375,0 0,-533.25 z"
         id="path3509" />
    </clipPath>
  </defs>
  <sodipodi:namedview
     id="base"
     pagecolor="#ffffff"
     bordercolor="#666666"
     borderopacity="1.0"
     inkscape:pageopacity="0.0"
     inkscape:pageshadow="2"
     inkscape:zoom="0.35"
     inkscape:cx="54.297495"
     inkscape:cy="18.328167"
     inkscape:document-units="px"
     inkscape:current-layer="layer1"
     showgrid="false"
     fit-margin-top="0"
     fit-margin-left="0"
     fit-margin-right="0"
     fit-margin-bottom="0"
     inkscape:window-width="451"
     inkscape:window-height="398"
     inkscape:window-x="175"
     inkscape:window-y="175"
     inkscape:window-maximized="0" />
  <metadata
     id="metadata7514">
    <rdf:RDF>
      <cc:Work
         rdf:about="">
        <dc:format>image/svg+xml</dc:format>
        <dc:type
           rdf:resource="http://purl.org/dc/dcmitype/StillImage" />
        <dc:title></dc:title>
      </cc:Work>
    </rdf:RDF>
  </metadata>
  <g
     inkscape:label="Layer 1"
     inkscape:groupmode="layer"
     id="layer1"
     transform="translate(-320.7025,-514.04972)">
    <g
       transform="matrix(1.25,0,0,-1.25,-177.08862,1028.9766)"
       id="g3503">
      <g
         id="g3505"
         clip-path="url(#clipPath3507)">
        <g
           id="g3511"
           transform="translate(405.6704,411.6915)">
          <path
             inkscape:connector-curvature="0"
             d="m 0,0 72,0 c 3.977,0 7.2,-3.223 7.2,-7.2 l 0,-14.401 c 0,-3.977 -3.223,-7.199 -7.2,-7.199 l -72,0 c -3.976,0 -7.199,3.222 -7.199,7.199 l 0,14.401 C -7.199,-3.223 -3.976,0 0,0"
             style="fill:#ffffff;fill-opacity:1;fill-rule:evenodd;stroke:none"
             id="path3513" />
        </g>
        <g
           id="g3515"
           transform="translate(405.6704,411.6915)">
          <path
             inkscape:connector-curvature="0"
             d="m 0,0 72,0 c 3.977,0 7.2,-3.223 7.2,-7.2 l 0,-14.401 c 0,-3.977 -3.223,-7.199 -7.2,-7.199 l -72,0 c -3.976,0 -7.199,3.222 -7.199,7.199 l 0,14.401 C -7.199,-3.223 -3.976,0 0,0 z"
             style="fill:none;stroke:#231f20;stroke-width:0.5;stroke-linecap:butt;stroke-linejoin:miter;stroke-miterlimit:3.86400008;stroke-opacity:1;stroke-dasharray:none"
             id="path3517" />
        </g>
        <g
           id="g3519"
           transform="translate(405.6704,409.2925)">
          <path
             inkscape:connector-curvature="0"
             d="m 0,0 72,0 c 2.651,0 4.801,-2.15 4.801,-4.801 l 0,-14.401 c 0,-2.65 -2.15,-4.799 -4.801,-4.799 l -72,0 c -2.65,0 -4.798,2.149 -4.798,4.799 l 0,14.401 C -4.798,-2.15 -2.65,0 0,0"
             style="fill:#00674c;fill-opacity:1;fill-rule:evenodd;stroke:none"
             id="path3521" />
        </g>
        <g
           id="g3523"
           transform="translate(420.8854,399.5985)">
          <path
             inkscape:connector-curvature="0"
             d="m 0,0 c 0,0.326 -0.136,0.59 -0.412,0.789 -0.258,0.18 -0.568,0.27 -0.933,0.27 -0.366,0 -0.676,-0.09 -0.932,-0.27 C -2.552,0.59 -2.691,0.326 -2.691,0 c 0,-0.334 0.135,-0.611 0.404,-0.83 0.27,-0.219 0.582,-0.326 0.942,-0.326 0.359,0 0.673,0.107 0.943,0.326 C -0.134,-0.611 0,-0.334 0,0 m 0.385,-4.23 c 0,0.443 -0.172,0.81 -0.516,1.101 -0.341,0.293 -0.746,0.438 -1.214,0.438 -0.467,0 -0.868,-0.143 -1.202,-0.432 -0.351,-0.295 -0.527,-0.664 -0.527,-1.107 0,-0.436 0.176,-0.789 0.527,-1.059 0.329,-0.256 0.729,-0.385 1.202,-0.385 0.474,0 0.875,0.129 1.201,0.385 0.351,0.27 0.529,0.623 0.529,1.059 m 1.533,0.002 c 0,-0.846 -0.33,-1.561 -0.988,-2.143 -0.635,-0.557 -1.393,-0.836 -2.275,-0.836 -0.883,0 -1.641,0.279 -2.274,0.836 -0.66,0.582 -0.988,1.297 -0.988,2.143 0,0.986 0.383,1.771 1.152,2.353 -0.513,0.481 -0.769,1.106 -0.769,1.873 0,0.737 0.291,1.36 0.873,1.865 0.562,0.487 1.232,0.731 2.006,0.731 0.775,0 1.443,-0.248 2.005,-0.74 0.583,-0.514 0.874,-1.137 0.874,-1.873 0,-0.764 -0.254,-1.381 -0.766,-1.856 0.766,-0.607 1.15,-1.392 1.15,-2.353"
             style="fill:#ffffff;fill-opacity:1;fill-rule:nonzero;stroke:none"
             id="path3525" />
        </g>
        <g
           id="g3527"
           transform="translate(427.7004,394.0285)">
          <path
             inkscape:connector-curvature="0"
             d="m 0,0 -0.133,-1.318 c -0.391,-0.214 -0.787,-0.319 -1.189,-0.319 -0.936,0 -1.403,0.512 -1.403,1.537 l 0,4.229 -1.117,0 0,1.342 1.117,0 0,1.865 1.533,0.828 0,-2.693 1.192,0 0,-1.342 -1.192,0 0,-3.924 c 0,-0.334 0.135,-0.5 0.405,-0.5 0.256,0 0.519,0.098 0.787,0.295"
             style="fill:#ffffff;fill-opacity:1;fill-rule:nonzero;stroke:none"
             id="path3529" />
        </g>
        <g
           id="g3531"
           transform="translate(434.4244,392.4905)">
          <path
             inkscape:connector-curvature="0"
             d="m 0,0 -1.533,0 0,4.509 c 0,0.396 -0.144,0.697 -0.433,0.902 -0.239,0.166 -0.53,0.248 -0.877,0.248 -0.334,0 -0.62,-0.086 -0.858,-0.258 C -3.99,5.19 -4.132,4.891 -4.132,4.509 l 0,-4.509 -1.536,0 0,8.876 1.536,0.826 0,-2.971 C -3.705,6.977 -3.181,7.1 -2.566,7.1 -1.888,7.1 -1.304,6.913 -0.818,6.536 -0.273,6.112 0,5.534 0,4.798 L 0,0 z"
             style="fill:#ffffff;fill-opacity:1;fill-rule:nonzero;stroke:none"
             id="path3533" />
        </g>
        <g
           id="g3535"
           transform="translate(450.2584,396.7155)">
          <path
             inkscape:connector-curvature="0"
             d="M 0,0 -1.007,2.928 -2.007,0 0,0 z m 3.073,-4.225 -1.623,0 -0.922,2.692 -3.082,0 -0.903,-2.692 -1.631,0 3.303,9.6 1.555,0 3.303,-9.6 z"
             style="fill:#ffffff;fill-opacity:1;fill-rule:nonzero;stroke:none"
             id="path3537" />
        </g>
        <g
           id="g3539"
           transform="translate(460.6294,399.4995)">
          <path
             inkscape:connector-curvature="0"
             d="m 0,0 -2.668,-7.009 -1.468,0 L -6.814,0 -5.164,0 -3.408,-4.627 -1.63,0 0,0 z"
             style="fill:#ffffff;fill-opacity:1;fill-rule:nonzero;stroke:none"
             id="path3541" />
        </g>
        <g
           id="g3543"
           transform="translate(465.5304,396.7155)">
          <path
             inkscape:connector-curvature="0"
             d="m 0,0 c 0,0.422 -0.108,0.766 -0.322,1.034 -0.215,0.267 -0.508,0.4 -0.879,0.4 -0.354,0 -0.655,-0.141 -0.905,-0.426 C -2.356,0.725 -2.498,0.389 -2.529,0 L 0,0 z M 1.33,-2.785 C 1.131,-3.248 0.818,-3.615 0.389,-3.892 -0.065,-4.18 -0.596,-4.324 -1.205,-4.324 c -0.922,0 -1.639,0.313 -2.155,0.942 -0.515,0.627 -0.773,1.513 -0.773,2.658 0,1.017 0.211,1.84 0.635,2.467 0.506,0.755 1.271,1.132 2.295,1.132 1.824,0 2.738,-1.199 2.738,-3.595 0,-0.36 -0.008,-0.6 -0.02,-0.721 l -4.044,0 c 0.056,-0.416 0.195,-0.752 0.412,-1.008 0.244,-0.289 0.548,-0.433 0.912,-0.433 0.582,0 0.99,0.334 1.22,1 L 1.33,-2.785 z"
             style="fill:#ffffff;fill-opacity:1;fill-rule:nonzero;stroke:none"
             id="path3545" />
        </g>
      </g>
    </g>
  </g>
</svg>
