<?xml version="1.0" encoding="UTF-8" standalone="no"?>
<!-- Created with Inkscape (http://www.inkscape.org/) -->

<svg
   xmlns:dc="http://purl.org/dc/elements/1.1/"
   xmlns:cc="http://creativecommons.org/ns#"
   xmlns:rdf="http://www.w3.org/1999/02/22-rdf-syntax-ns#"
   xmlns:svg="http://www.w3.org/2000/svg"
   xmlns="http://www.w3.org/2000/svg"
   xmlns:sodipodi="http://sodipodi.sourceforge.net/DTD/sodipodi-0.dtd"
   xmlns:inkscape="http://www.inkscape.org/namespaces/inkscape"
   width="72.636497"
   height="108.63281"
   id="svg7598"
   version="1.1"
   inkscape:version="0.48.3.1 r9886"
   sodipodi:docname="New document 33">
  <defs
     id="defs7600">
    <clipPath
       clipPathUnits="userSpaceOnUse"
       id="clipPath3475">
      <path
         inkscape:connector-curvature="0"
         d="m 62.625,204.75 513.375,0 0,533.25 -513.375,0 0,-533.25 z"
         id="path3477" />
    </clipPath>
    <clipPath
       clipPathUnits="userSpaceOnUse"
       id="clipPath3463">
      <path
         inkscape:connector-curvature="0"
         d="m 67.19,205.413 504.244,0 0,531.923 -504.244,0 0,-531.923 z"
         id="path3465" />
    </clipPath>
  </defs>
  <sodipodi:namedview
     id="base"
     pagecolor="#ffffff"
     bordercolor="#666666"
     borderopacity="1.0"
     inkscape:pageopacity="0.0"
     inkscape:pageshadow="2"
     inkscape:zoom="0.35"
     inkscape:cx="36.32481"
     inkscape:cy="54.319705"
     inkscape:document-units="px"
     inkscape:current-layer="layer1"
     showgrid="false"
     fit-margin-top="0"
     fit-margin-left="0"
     fit-margin-right="0"
     fit-margin-bottom="0"
     inkscape:window-width="451"
     inkscape:window-height="398"
     inkscape:window-x="25"
     inkscape:window-y="25"
     inkscape:window-maximized="0" />
  <metadata
     id="metadata7603">
    <rdf:RDF>
      <cc:Work
         rdf:about="">
        <dc:format>image/svg+xml</dc:format>
        <dc:type
           rdf:resource="http://purl.org/dc/dcmitype/StillImage" />
        <dc:title></dc:title>
      </cc:Work>
    </rdf:RDF>
  </metadata>
  <g
     inkscape:label="Layer 1"
     inkscape:groupmode="layer"
     id="layer1"
     transform="translate(-338.67519,-478.04908)">
    <g
       id="g3455"
       transform="matrix(1.25,0,0,-1.25,348.59705,478.36157)">
      <path
         d="m 0,0 42.242,0 c 4.225,0 7.68,-3.455 7.68,-7.68 l 0,-71.042 c 0,-4.224 -3.455,-7.679 -7.68,-7.679 l -42.242,0 c -4.222,0 -7.677,3.455 -7.677,7.679 l 0,71.042 C -7.677,-3.455 -4.222,0 0,0"
         style="fill:#ffffff;fill-opacity:1;fill-rule:nonzero;stroke:none"
         id="path3457"
         inkscape:connector-curvature="0" />
    </g>
    <g
       transform="matrix(1.25,0,0,-1.25,-302.98081,1064.6722)"
       id="g3459">
      <g
         id="g3461"
         clip-path="url(#clipPath3463)">
        <g
           id="g3467"
           transform="translate(521.2623,469.0485)">
          <path
             inkscape:connector-curvature="0"
             d="m 0,0 42.242,0 c 4.225,0 7.68,-3.455 7.68,-7.68 l 0,-71.042 c 0,-4.224 -3.455,-7.679 -7.68,-7.679 l -42.242,0 c -4.222,0 -7.677,3.455 -7.677,7.679 l 0,71.042 C -7.677,-3.455 -4.222,0 0,0 z"
             style="fill:none;stroke:#231f20;stroke-width:0.5;stroke-linecap:butt;stroke-linejoin:miter;stroke-miterlimit:4;stroke-opacity:1;stroke-dasharray:none"
             id="path3469" />
        </g>
      </g>
    </g>
    <g
       transform="matrix(1.25,0,0,-1.25,-302.98081,1064.6722)"
       id="g3471">
      <g
         id="g3473"
         clip-path="url(#clipPath3475)">
        <g
           id="g3479"
           transform="translate(521.7084,467.1285)">
          <path
             inkscape:connector-curvature="0"
             d="m 0,0 41.351,0 c 3.412,0 6.205,-2.793 6.205,-6.205 l 0,-70.151 c 0,-3.413 -2.793,-6.206 -6.205,-6.206 l -41.351,0 c -3.413,0 -6.204,2.793 -6.204,6.206 l 0,70.151 C -6.204,-2.793 -3.413,0 0,0"
             style="fill:#00674c;fill-opacity:1;fill-rule:evenodd;stroke:none"
             id="path3481" />
        </g>
        <g
           id="g3483"
           transform="translate(521.8854,464.2475)">
          <path
             inkscape:connector-curvature="0"
             d="M 0,0 40.998,0 C 42.922,0 44.5,-1.574 44.5,-3.5 l 0,-69.798 c 0,-1.927 -1.578,-3.502 -3.502,-3.502 L 0,-76.8 c -1.925,0 -3.502,1.575 -3.502,3.502 l 0,69.798 C -3.502,-1.574 -1.925,0 0,0"
             style="fill:#ffffff;fill-opacity:1;fill-rule:evenodd;stroke:none"
             id="path3485" />
        </g>
        <g
           id="g3487"
           transform="translate(564.1454,415.9295)">
          <path
             inkscape:connector-curvature="0"
             d="m 0,0 0,2.949 -2.141,0 0,-1.494 0.688,0 0,-1.535 c 0,-0.768 -0.283,-1.252 -0.807,-1.252 -0.525,0 -0.808,0.404 -0.97,1.172 -0.121,0.968 -0.202,1.736 -0.202,3.312 0,1.574 0.081,2.342 0.243,3.272 0.121,0.767 0.484,1.13 1.007,1.13 0.407,0 0.649,-0.242 0.729,-0.726 l 1.453,0 c -0.16,1.414 -0.928,2.221 -2.221,2.221 -1.13,0 -1.818,-0.444 -2.181,-1.495 -0.405,-1.089 -0.526,-2.099 -0.526,-4.402 0,-2.344 0.121,-3.394 0.487,-4.443 0.361,-1.092 1.049,-1.543 2.22,-1.543 1.051,0 1.819,0.531 2.061,1.34 C -0.08,-1.131 0,-0.526 0,0 m -7.068,-2.625 0,11.513 -1.455,0 0,-5.736 -2.059,5.736 -1.455,0 0,-11.513 1.455,0 0,6.826 2.262,-6.826 1.252,0 z m -7.473,11.513 -1.455,0 0,-11.513 1.455,0 0,11.513 z m -3.273,-11.513 -2.061,7.554 1.899,3.959 -1.696,0 -1.818,-3.675 0,3.675 -1.455,0 0,-11.513 1.455,0 0,4.322 0.566,1.131 1.535,-5.453 1.575,0 z m -8.403,8.322 c 0,-1.092 -0.242,-1.455 -1.05,-1.455 l -0.969,0 0,3.15 0.726,0 c 1.01,0 1.293,-0.402 1.293,-1.695 m 1.496,-0.041 c 0,2.141 -0.929,3.232 -2.709,3.232 l -2.259,0 0,-11.513 1.453,0 0,5.373 0.687,0 1.291,-5.373 1.496,0 -1.172,5.736 c 0.848,0.525 1.213,1.252 1.213,2.545 m -9.05,-3.717 -1.252,0 0.646,3.03 0.606,-3.03 z m 2.505,-4.564 -2.382,11.513 -1.496,0 -2.344,-11.513 1.496,0 0.646,3.07 1.899,0 0.646,-3.07 1.535,0 z m -8.402,8.16 c 0,-1.213 -0.324,-1.656 -1.213,-1.656 l -0.806,0 0,3.513 0.806,0 c 0.809,0 1.213,-0.564 1.213,-1.857 m 1.494,0 c 0,1.252 -0.443,2.344 -1.092,2.869 -0.363,0.322 -0.968,0.484 -1.615,0.484 l -2.261,0 0,-11.513 1.455,0 0,5.01 0.806,0 c 1.615,0 2.707,1.251 2.707,3.15"
             style="fill:#00674c;fill-opacity:1;fill-rule:evenodd;stroke:none"
             id="path3489" />
        </g>
        <g
           id="g3491"
           transform="translate(548.6373,443.5715)">
          <path
             inkscape:connector-curvature="0"
             d="M 0,0 5.356,0.875 1.981,5.258 C 0.233,3.733 0.014,1.903 0,0 m -1.47,-0.32 c -0.01,0.189 -0.039,0.496 -0.039,0.709 0,2.17 0.701,4.277 2.605,6.029 L -0.888,8.793 -3.957,-0.572 -1.47,-0.32 z M -13.254,9 l 0.17,0.522 10.934,0.014 -2.908,-8.817 -0.125,0.92 0.334,0 -0.043,0.584 -1.463,0 0.041,-0.543 0.377,0 0.084,-1.004 c 0,0 -7.36,8.281 -7.401,8.324 m -4.841,-8.468 c 1.466,1.164 2.611,2.277 3.435,4.5 1.299,-1.18 2.041,-2.887 2.041,-4.643 0,-3.486 -2.844,-6.332 -6.332,-6.332 -3.486,0 -6.332,2.846 -6.332,6.332 0,3.488 2.846,6.332 6.332,6.332 1.113,0 2.252,-0.32 3.17,-0.861 -0.621,-1.963 -1.227,-2.977 -3.137,-4.514 -0.465,-0.019 -0.816,-0.393 -0.816,-0.836 0,-0.461 0.375,-0.838 0.836,-0.838 0.461,0 0.803,0.377 0.803,0.86 m 18.32,-1.875 c 0.717,-2.67 3.266,-4.6 6.086,-4.6 3.486,0 6.332,2.846 6.332,6.332 0,3.488 -2.846,6.332 -6.332,6.332 -1.115,0 -2.403,-0.262 -3.342,-0.812 L 6.405,1.346 C 6.826,1.338 7.194,0.963 7.194,0.51 c 0,-0.461 -0.377,-0.838 -0.838,-0.838 -0.127,0 -0.262,0.033 -0.373,0.086 L 0.225,-1.343 z m -15.555,8.668 2.242,6.187 -0.711,1.213 1.422,1.547 3.055,0 0.039,-0.877 -2.674,0 -0.545,-0.586 0.627,-1.129 -0.787,-2.795 10.953,0 0.168,0.51 c -0.881,0.115 -2.398,0.658 -2.761,0.973 -0.364,0.316 -0.045,0.605 0.367,0.619 2.162,0.091 5.375,0.273 5.984,0.275 0.611,0.002 0.674,-0.305 0.264,-0.75 C 1.905,12.065 1.547,11.662 0,11.422 L -0.418,10.293 2.174,7.082 c 1.223,0.743 2.699,1.127 4.137,1.127 4.305,0 7.82,-3.513 7.82,-7.82 0,-4.307 -3.515,-7.82 -7.82,-7.82 -3.545,0 -6.66,2.445 -7.576,5.822 l -2.383,-0.43 C -3.75,-2.318 -3.986,-2.533 -4.271,-2.703 l 0.426,-2.013 0.543,0 0.043,-0.545 -1.715,-0.082 0,0.586 0.418,0 -0.518,2.011 c -0.771,0.127 -1.176,0.785 -0.945,1.442 l -7.782,8.798 -0.349,-0.943 c 1.891,-1.488 3.019,-3.779 3.019,-6.162 0,-4.307 -3.511,-7.82 -7.82,-7.82 -4.307,0 -7.82,3.513 -7.82,7.82 0,4.307 3.513,7.82 7.82,7.82 1.254,0 2.537,-0.304 3.621,-0.884"
             style="fill:#00674c;fill-opacity:1;fill-rule:evenodd;stroke:none"
             id="path3493" />
        </g>
        <g
           id="g3495"
           transform="translate(531.4444,397.8095)">
          <path
             inkscape:connector-curvature="0"
             d="M 0,0 -7.305,4.94 0,9.889 C 0.322,10.108 0.762,10.024 0.982,9.702 1.127,9.487 1.1,9.264 1.033,9.001 l -0.644,-2.145 28.787,0 0,-3.827 -28.787,0 0.63,-2.109 C 1.1,0.627 1.135,0.412 0.982,0.188 0.762,-0.135 0.322,-0.219 0,0"
             style="fill:#00674c;fill-opacity:1;fill-rule:evenodd;stroke:none"
             id="path3497" />
        </g>
      </g>
    </g>
  </g>
</svg>
