<?xml version="1.0" encoding="UTF-8" standalone="no"?>
<!-- Created with Inkscape (http://www.inkscape.org/) -->

<svg
   xmlns:dc="http://purl.org/dc/elements/1.1/"
   xmlns:cc="http://creativecommons.org/ns#"
   xmlns:rdf="http://www.w3.org/1999/02/22-rdf-syntax-ns#"
   xmlns:svg="http://www.w3.org/2000/svg"
   xmlns="http://www.w3.org/2000/svg"
   xmlns:sodipodi="http://sodipodi.sourceforge.net/DTD/sodipodi-0.dtd"
   xmlns:inkscape="http://www.inkscape.org/namespaces/inkscape"
   width="72.617188"
   height="108.63281"
   id="svg5870"
   version="1.1"
   inkscape:version="0.48.2 r9819"
   sodipodi:docname="New document 18">
  <defs
     id="defs5872" />
  <sodipodi:namedview
     id="base"
     pagecolor="#ffffff"
     bordercolor="#666666"
     borderopacity="1.0"
     inkscape:pageopacity="0.0"
     inkscape:pageshadow="2"
     inkscape:zoom="0.35"
     inkscape:cx="39.868925"
     inkscape:cy="51.46192"
     inkscape:document-units="px"
     inkscape:current-layer="layer1"
     showgrid="false"
     fit-margin-top="0"
     fit-margin-left="0"
     fit-margin-right="0"
     fit-margin-bottom="0"
     inkscape:window-width="469"
     inkscape:window-height="425"
     inkscape:window-x="200"
     inkscape:window-y="200"
     inkscape:window-maximized="0" />
  <metadata
     id="metadata5875">
    <rdf:RDF>
      <cc:Work
         rdf:about="">
        <dc:format>image/svg+xml</dc:format>
        <dc:type
           rdf:resource="http://purl.org/dc/dcmitype/StillImage" />
        <dc:title></dc:title>
      </cc:Work>
    </rdf:RDF>
  </metadata>
  <g
     inkscape:label="Layer 1"
     inkscape:groupmode="layer"
     id="layer1"
     transform="translate(-335.13107,-475.19129)">
    <g
       id="g3093"
       transform="matrix(1.25,0,0,-1.25,344.42795,475.50379)">
      <path
         d="M 0,0 43.199,0 C 47.176,0 50.4,-3.223 50.4,-7.2 l 0,-72 c 0,-3.976 -3.224,-7.202 -7.201,-7.202 l -43.199,0 c -3.977,0 -7.199,3.226 -7.199,7.202 l 0,72 C -7.199,-3.223 -3.977,0 0,0"
         style="fill:#ffffff;fill-opacity:1;fill-rule:nonzero;stroke:none"
         id="path3095"
         inkscape:connector-curvature="0" />
    </g>
    <g
       id="g3097"
       transform="matrix(1.25,0,0,-1.25,344.42795,475.50379)">
      <path
         d="M 0,0 43.199,0 C 47.176,0 50.4,-3.223 50.4,-7.2 l 0,-72 c 0,-3.976 -3.224,-7.202 -7.201,-7.202 l -43.199,0 c -3.977,0 -7.199,3.226 -7.199,7.202 l 0,72 C -7.199,-3.223 -3.977,0 0,0 z"
         style="fill:none;stroke:#231f20;stroke-width:0.5;stroke-linecap:butt;stroke-linejoin:miter;stroke-miterlimit:3.86400008;stroke-opacity:1;stroke-dasharray:none"
         id="path3099"
         inkscape:connector-curvature="0" />
    </g>
    <g
       id="g3101"
       transform="matrix(1.25,0,0,-1.25,341.42671,529.50254)">
      <path
         d="M 0,0 C 0,21.207 10.747,38.4 24,38.4 37.254,38.4 48,21.207 48,0 48,-21.208 37.254,-38.399 24,-38.399 10.747,-38.399 0,-21.208 0,0"
         style="fill:#00674c;fill-opacity:1;fill-rule:evenodd;stroke:none"
         id="path3103"
         inkscape:connector-curvature="0" />
    </g>
    <g
       id="g3105"
       transform="matrix(1.25,0,0,-1.25,385.53933,520.19879)">
      <path
         d="m 0,0 c -2.745,0 -5.045,1.894 -5.668,4.446 l 5.533,1.187 c 0,0 0.488,0.153 0.539,0.422 C 0.455,6.323 0.209,6.68 0.209,6.68 l -3.196,4.169 c 0.873,0.522 1.895,0.822 2.987,0.822 3.222,0 5.835,-2.613 5.835,-5.836 C 5.835,2.613 3.222,0 0,0 m -5.834,5.835 c 0,1.736 0.755,3.293 1.957,4.362 L -1.079,6.51 -5.827,5.531 c -0.005,0.1 -0.007,0.203 -0.007,0.304 M -9.1,4.856 l 2.717,8.645 1.73,-2.28 c -1.51,-1.306 -2.465,-3.233 -2.465,-5.386 0,-0.19 0.008,-0.378 0.024,-0.566 L -9.1,4.856 z m -0.953,0.829 -0.27,1.451 0.539,0 0,0.539 -1.699,0 0,-0.539 0.496,0 0.291,-1.222 -6.883,7.442 0.27,0.912 9.93,0 -2.674,-8.583 z m -6.69,-0.012 c 0,-3.222 -2.613,-5.836 -5.836,-5.836 -3.222,0 -5.836,2.614 -5.836,5.836 0,3.223 2.614,5.835 5.836,5.835 1.057,0 2.047,-0.281 2.903,-0.772 -0.42,-1.049 -1.125,-2.564 -1.979,-3.416 -0.265,-0.266 -0.707,-0.794 -0.982,-0.867 -1.041,-0.28 -0.746,-1.182 -0.637,-1.291 0.102,-0.102 1.215,-0.709 1.445,0.523 0,0 0.217,0.281 0.985,1.027 1.095,1.068 1.783,2.365 2.174,3.293 1.183,-1.068 1.927,-2.613 1.927,-4.332 M 0,12.953 c -1.385,0 -2.678,-0.397 -3.772,-1.08 l -2.217,2.893 0.311,1.078 c 0,0 0.828,0.207 1.721,0.829 2.031,1.431 -1.411,0.892 -2.614,0.829 -1.554,-0.083 -2.965,0 -2.965,-0.456 0,-0.476 1.909,-0.974 2.696,-0.974 l -0.186,-0.663 -9.93,0 0.85,2.653 -0.746,0.726 0.352,0.374 2.654,0 0,0.995 -3.047,0 -1.35,-1.369 0.852,-0.871 -1.846,-5.96 c -0.996,0.531 -2.133,0.833 -3.342,0.833 -3.931,0 -7.117,-3.187 -7.117,-7.117 0,-3.93 3.186,-7.117 7.117,-7.117 3.93,0 7.118,3.187 7.118,7.117 0,2.287 -1.08,4.324 -2.758,5.625 l 0.224,0.752 6.989,-7.526 c 0,0 -0.147,-0.477 0.144,-0.892 0.207,-0.29 0.457,-0.435 0.787,-0.476 l 0.354,-1.991 -0.414,0 0,-0.518 1.699,0 0,0.518 -0.539,0 -0.518,2.094 c 0.123,0.041 0.207,0.124 0.311,0.207 0.082,0.063 0.207,0.27 0.207,0.27 l 2.053,0.441 C -6.174,1.046 -3.36,-1.281 0,-1.281 c 3.931,0 7.117,3.186 7.117,7.116 0,3.931 -3.186,7.118 -7.117,7.118"
         style="fill:#ffffff;fill-opacity:1;fill-rule:evenodd;stroke:none"
         id="path3107"
         inkscape:connector-curvature="0" />
    </g>
    <g
       id="g3109"
       transform="matrix(1.25,0,0,-1.25,361.16546,567.00379)">
      <path
         d="m 0,0 0,24.023 -3.115,0 C -3.49,23.196 -4.691,22.37 -5.816,22.37 l 0,-3.152 2.102,0 L -3.714,0 0,0 z"
         style="fill:#ffffff;fill-opacity:1;fill-rule:evenodd;stroke:none"
         id="path3111"
         inkscape:connector-curvature="0" />
    </g>
    <g
       id="g3113"
       transform="matrix(1.25,0,0,-1.25,388.36558,557.24379)">
      <path
         d="m 0,0 c 0,4.204 -2.103,5.33 -2.103,5.33 0,0 1.351,0.863 1.351,3.978 0,3.828 -2.888,7.206 -7.281,7.206 -5.705,0 -7.055,-4.879 -7.055,-4.879 l 3.602,-1.126 c 0,0.076 0.601,2.252 3.453,2.252 2.065,0 3.529,-1.463 3.529,-3.453 0,-2.027 -1.502,-2.102 -3.379,-2.102 l 0,-3.753 C -6.494,3.49 -3.754,3.077 -3.754,0 c 0,-3.23 -2.476,-4.355 -4.279,-4.355 -3.152,0 -4.504,3.53 -4.504,3.53 l -3.601,-0.977 c 0,0 1.576,-6.307 8.105,-6.307 C -4.879,-8.109 0,-5.857 0,0"
         style="fill:#ffffff;fill-opacity:1;fill-rule:evenodd;stroke:none"
         id="path3115"
         inkscape:connector-curvature="0" />
    </g>
  </g>
</svg>
