<?xml version="1.0" encoding="UTF-8" standalone="no"?>
<!-- Created with Inkscape (http://www.inkscape.org/) -->

<svg
   xmlns:dc="http://purl.org/dc/elements/1.1/"
   xmlns:cc="http://creativecommons.org/ns#"
   xmlns:rdf="http://www.w3.org/1999/02/22-rdf-syntax-ns#"
   xmlns:svg="http://www.w3.org/2000/svg"
   xmlns="http://www.w3.org/2000/svg"
   xmlns:sodipodi="http://sodipodi.sourceforge.net/DTD/sodipodi-0.dtd"
   xmlns:inkscape="http://www.inkscape.org/namespaces/inkscape"
   width="72.625"
   height="36.625"
   id="svg7374"
   version="1.1"
   inkscape:version="0.48.2 r9819"
   sodipodi:docname="New document 53">
  <defs
     id="defs7376" />
  <sodipodi:namedview
     id="base"
     pagecolor="#ffffff"
     bordercolor="#666666"
     borderopacity="1.0"
     inkscape:pageopacity="0.0"
     inkscape:pageshadow="2"
     inkscape:zoom="0.35"
     inkscape:cx="17.03125"
     inkscape:cy="129.73157"
     inkscape:document-units="px"
     inkscape:current-layer="layer1"
     showgrid="false"
     fit-margin-top="0"
     fit-margin-left="0"
     fit-margin-right="0"
     fit-margin-bottom="0"
     inkscape:window-width="469"
     inkscape:window-height="425"
     inkscape:window-x="50"
     inkscape:window-y="50"
     inkscape:window-maximized="0" />
  <metadata
     id="metadata7379">
    <rdf:RDF>
      <cc:Work
         rdf:about="">
        <dc:format>image/svg+xml</dc:format>
        <dc:type
           rdf:resource="http://purl.org/dc/dcmitype/StillImage" />
        <dc:title></dc:title>
      </cc:Work>
    </rdf:RDF>
  </metadata>
  <g
     inkscape:label="Layer 1"
     inkscape:groupmode="layer"
     id="layer1"
     transform="translate(-357.96875,-625.46875)">
    <path
       inkscape:connector-curvature="0"
       id="path3507"
       style="fill:#ffffff;fill-opacity:1;fill-rule:nonzero;stroke:none"
       d="m 362.78634,625.79138 62.99875,0 c 2.4875,0 4.5,2.015 4.5,4.5 l 0,27 c 0,2.485 -2.0125,4.49875 -4.5,4.49875 l -62.99875,0 c -2.485,0 -4.5,-2.01375 -4.5,-4.49875 l 0,-27 c 0,-2.485 2.015,-4.5 4.5,-4.5" />
    <path
       inkscape:connector-curvature="0"
       id="path3511"
       style="fill:none;stroke:#231f20;stroke-width:0.625;stroke-linecap:butt;stroke-linejoin:miter;stroke-miterlimit:3.86400008;stroke-opacity:1;stroke-dasharray:none"
       d="m 362.78634,625.79138 62.99875,0 c 2.4875,0 4.5,2.015 4.5,4.5 l 0,27 c 0,2.485 -2.0125,4.49875 -4.5,4.49875 l -62.99875,0 c -2.485,0 -4.5,-2.01375 -4.5,-4.49875 l 0,-27 c 0,-2.485 2.015,-4.5 4.5,-4.5 z" />
    <path
       inkscape:connector-curvature="0"
       id="path3515"
       style="fill:#00674c;fill-opacity:1;fill-rule:nonzero;stroke:none"
       d="m 362.78634,627.29138 62.99875,0 c 1.6575,0 3.00125,1.3425 3.00125,3 l 0,27 c 0,1.6575 -1.34375,3 -3.00125,3 l -62.99875,0 c -1.65625,0 -2.99875,-1.3425 -2.99875,-3 l 0,-27 c 0,-1.6575 1.3425,-3 2.99875,-3" />
    <path
       inkscape:connector-curvature="0"
       id="path3519"
       style="fill:#ffffff;fill-opacity:1;fill-rule:evenodd;stroke:none"
       d="m 370.41584,646.78513 c 0,2.79375 -0.75125,2.63 -1.29,2.63 l -1.29,0 0,-5.3025 1.4075,0 c 0.4925,0 1.1725,-0.1175 1.1725,2.6725 m -0.21125,-6.59125 c 0,2.1575 -0.445,2.04125 -0.96125,2.04125 l -1.4075,0 0,-4.08 1.4075,0 c 0.25875,0 0.96125,-0.12 0.96125,2.03875 m 2.08875,6.92125 c 0,-2.605 -0.5625,-3.5425 -1.1025,-3.7525 0.5625,-0.305 0.89125,-0.7275 0.89125,-3.16875 0,-3.4225 -1.80625,-3.91625 -2.83875,-3.91625 l -3.28375,0 0,15.0125 3.58875,0 c 0,0 1.54875,0.095 2.36875,-1.4525 0.305,-0.56375 0.37625,-1.5975 0.37625,-2.7225" />
    <path
       inkscape:connector-curvature="0"
       id="path3523"
       style="fill:#ffffff;fill-opacity:1;fill-rule:evenodd;stroke:none"
       d="m 382.51321,636.27763 -2.01625,0 -1.9725,5.115 -1.97,-5.115 -2.01625,0 3.04875,7.905 0,7.1075 1.87625,0 0,-7.1075 3.05,-7.905 z" />
    <path
       d="m 387.19921,642.23513 -2.81375,0 0,1.8775 2.81375,0 0,-1.8775 z"
       style="fill:#ffffff;fill-opacity:1;fill-rule:evenodd;stroke:none"
       id="path3525"
       inkscape:connector-curvature="0" />
    <path
       inkscape:connector-curvature="0"
       id="path3529"
       style="fill:#ffffff;fill-opacity:1;fill-rule:evenodd;stroke:none"
       d="m 394.69571,640.64013 c 0,2.37125 -1.50125,2.205 -1.50125,2.205 l -1.0775,0 0,-4.69 1.0775,0 c 0,0 1.50125,-0.2125 1.50125,2.485 m 1.85375,0 c 0,-4.43375 -3.05,-4.3625 -3.495,-4.3625 l -2.815,0 0,15.0125 1.8775,0 0,-6.5675 1.0775,0 c 0.305,0 3.355,0.14125 3.355,-4.0825" />
    <path
       inkscape:connector-curvature="0"
       id="path3533"
       style="fill:#ffffff;fill-opacity:1;fill-rule:evenodd;stroke:none"
       d="m 402.38321,645.35513 -1.7825,0 0.89125,-4.5975 0.89125,4.5975 z m 3.09625,5.935 -3.0025,-15.0125 -1.99375,0 -2.98,15.0125 1.90125,0 0.82,-4.0575 2.535,0 0.79625,4.08125 1.92375,-0.0238 z" />
    <path
       inkscape:connector-curvature="0"
       id="path3537"
       style="fill:#ffffff;fill-opacity:1;fill-rule:evenodd;stroke:none"
       d="m 414.06196,648.12388 c 0,-5.30125 -4.22375,-5.4175 -4.22375,-8.985 0,-0.58625 0.25875,-1.17125 1.00875,-1.17125 1.36,0 1.2425,1.56875 1.2425,1.64 l 1.8775,0 c 0,-0.0213 0.235,-3.5175 -3.12,-3.5175 -2.29875,0 -2.885,2.1825 -2.885,3.04875 0,4.34125 4.2225,4.73875 4.2225,8.985 0,0.89 -0.3525,1.47625 -1.29125,1.47625 -1.38375,0 -1.29,-1.9925 -1.29,-2.0625 l -1.87625,0 c 0,0 -0.0937,3.94 3.16625,3.94 2.065,0 3.16875,-1.71125 3.16875,-3.35375" />
    <path
       inkscape:connector-curvature="0"
       id="path3541"
       style="fill:#ffffff;fill-opacity:1;fill-rule:evenodd;stroke:none"
       d="m 422.63946,648.12388 c 0,-5.30125 -4.22375,-5.4175 -4.22375,-8.985 0,-0.58625 0.25875,-1.17125 1.00875,-1.17125 1.36125,0 1.245,1.56875 1.245,1.64 l 1.875,0 c 0,-0.0213 0.23375,-3.5175 -3.12,-3.5175 -2.2975,0 -2.88375,2.1825 -2.88375,3.04875 0,4.34125 4.22125,4.73875 4.22125,8.985 0,0.89 -0.35125,1.47625 -1.28875,1.47625 -1.385,0 -1.2925,-1.9925 -1.2925,-2.0625 l -1.87625,0 c 0,0 -0.0937,3.94 3.16875,3.94 2.0625,0 3.16625,-1.71125 3.16625,-3.35375" />
  </g>
</svg>
