<?xml version="1.0" encoding="UTF-8" standalone="no"?>
<!-- Created with Inkscape (http://www.inkscape.org/) -->

<svg
   xmlns:dc="http://purl.org/dc/elements/1.1/"
   xmlns:cc="http://creativecommons.org/ns#"
   xmlns:rdf="http://www.w3.org/1999/02/22-rdf-syntax-ns#"
   xmlns:svg="http://www.w3.org/2000/svg"
   xmlns="http://www.w3.org/2000/svg"
   xmlns:sodipodi="http://sodipodi.sourceforge.net/DTD/sodipodi-0.dtd"
   xmlns:inkscape="http://www.inkscape.org/namespaces/inkscape"
   width="72.625"
   height="36.625"
   id="svg7478"
   version="1.1"
   inkscape:version="0.48.2 r9819"
   sodipodi:docname="New document 57">
  <defs
     id="defs7480" />
  <sodipodi:namedview
     id="base"
     pagecolor="#ffffff"
     bordercolor="#666666"
     borderopacity="1.0"
     inkscape:pageopacity="0.0"
     inkscape:pageshadow="2"
     inkscape:zoom="0.35"
     inkscape:cx="-37.25"
     inkscape:cy="144.01282"
     inkscape:document-units="px"
     inkscape:current-layer="layer1"
     showgrid="false"
     fit-margin-top="0"
     fit-margin-left="0"
     fit-margin-right="0"
     fit-margin-bottom="0"
     inkscape:window-width="469"
     inkscape:window-height="425"
     inkscape:window-x="100"
     inkscape:window-y="100"
     inkscape:window-maximized="0" />
  <metadata
     id="metadata7483">
    <rdf:RDF>
      <cc:Work
         rdf:about="">
        <dc:format>image/svg+xml</dc:format>
        <dc:type
           rdf:resource="http://purl.org/dc/dcmitype/StillImage" />
        <dc:title></dc:title>
      </cc:Work>
    </rdf:RDF>
  </metadata>
  <g
     inkscape:label="Layer 1"
     inkscape:groupmode="layer"
     id="layer1"
     transform="translate(-412.25,-639.75)">
    <path
       inkscape:connector-curvature="0"
       id="path3637"
       style="fill:#ffffff;fill-opacity:1;fill-rule:nonzero;stroke:none"
       d="m 417.0708,640.07709 63.00125,0 c 2.485,0 4.49875,2.015 4.49875,4.5 l 0,27 c 0,2.485 -2.01375,4.49875 -4.49875,4.49875 l -63.00125,0 c -2.485,0 -4.49875,-2.01375 -4.49875,-4.49875 l 0,-27 c 0,-2.485 2.01375,-4.5 4.49875,-4.5" />
    <path
       inkscape:connector-curvature="0"
       id="path3641"
       style="fill:none;stroke:#231f20;stroke-width:0.625;stroke-linecap:butt;stroke-linejoin:miter;stroke-miterlimit:3.86400008;stroke-opacity:1;stroke-dasharray:none"
       d="m 417.0708,640.07709 63.00125,0 c 2.485,0 4.49875,2.015 4.49875,4.5 l 0,27 c 0,2.485 -2.01375,4.49875 -4.49875,4.49875 l -63.00125,0 c -2.485,0 -4.49875,-2.01375 -4.49875,-4.49875 l 0,-27 c 0,-2.485 2.01375,-4.5 4.49875,-4.5 z" />
    <path
       inkscape:connector-curvature="0"
       id="path3645"
       style="fill:#00674c;fill-opacity:1;fill-rule:nonzero;stroke:none"
       d="m 417.0708,641.57709 63.00125,0 c 1.6575,0 3,1.3425 3,3 l 0,27 c 0,1.6575 -1.3425,3 -3,3 l -63.00125,0 c -1.6575,0 -3,-1.3425 -3,-3 l 0,-27 c 0,-1.6575 1.3425,-3 3,-3" />
    <path
       inkscape:connector-curvature="0"
       id="path3649"
       style="fill:#ffffff;fill-opacity:1;fill-rule:evenodd;stroke:none"
       d="m 445.82568,652.22584 0,-3.14875 -13.415,0 0,3.14875 5.11625,0 0,14.85125 3.1525,0 0,-14.85125 5.14625,0 z" />
    <path
       inkscape:connector-curvature="0"
       id="path3653"
       style="fill:#ffffff;fill-opacity:1;fill-rule:evenodd;stroke:none"
       d="m 461.58193,658.07584 c 0,2.9275 -1.48875,6.07625 -4.41375,6.07625 -2.9275,0 -4.41625,-3.14875 -4.41625,-6.07625 0,-2.9225 1.48875,-6.075 4.41625,-6.075 2.925,0 4.41375,3.1525 4.41375,6.075 m 3.15,0 c 0,-4.66875 -2.925,-9.22375 -7.56375,-9.22375 -4.67,0 -7.565,4.555 -7.565,9.22375 0,4.67 2.895,9.22625 7.565,9.22625 4.63875,0 7.56375,-4.55625 7.56375,-9.22625" />
  </g>
</svg>
