<?xml version="1.0" encoding="UTF-8" standalone="no"?>
<!-- Created with Inkscape (http://www.inkscape.org/) -->

<svg
   xmlns:dc="http://purl.org/dc/elements/1.1/"
   xmlns:cc="http://creativecommons.org/ns#"
   xmlns:rdf="http://www.w3.org/1999/02/22-rdf-syntax-ns#"
   xmlns:svg="http://www.w3.org/2000/svg"
   xmlns="http://www.w3.org/2000/svg"
   xmlns:sodipodi="http://sodipodi.sourceforge.net/DTD/sodipodi-0.dtd"
   xmlns:inkscape="http://www.inkscape.org/namespaces/inkscape"
   width="72.625"
   height="36.625"
   id="svg7517"
   version="1.1"
   inkscape:version="0.48.2 r9819"
   sodipodi:docname="New document 59">
  <defs
     id="defs7519" />
  <sodipodi:namedview
     id="base"
     pagecolor="#ffffff"
     bordercolor="#666666"
     borderopacity="1.0"
     inkscape:pageopacity="0.0"
     inkscape:pageshadow="2"
     inkscape:zoom="0.35"
     inkscape:cx="14.15625"
     inkscape:cy="32.606567"
     inkscape:document-units="px"
     inkscape:current-layer="layer1"
     showgrid="false"
     fit-margin-top="0"
     fit-margin-left="0"
     fit-margin-right="0"
     fit-margin-bottom="0"
     inkscape:window-width="469"
     inkscape:window-height="425"
     inkscape:window-x="125"
     inkscape:window-y="125"
     inkscape:window-maximized="0" />
  <metadata
     id="metadata7522">
    <rdf:RDF>
      <cc:Work
         rdf:about="">
        <dc:format>image/svg+xml</dc:format>
        <dc:type
           rdf:resource="http://purl.org/dc/dcmitype/StillImage" />
        <dc:title></dc:title>
      </cc:Work>
    </rdf:RDF>
  </metadata>
  <g
     inkscape:label="Layer 1"
     inkscape:groupmode="layer"
     id="layer1"
     transform="translate(-360.84375,-528.34375)">
    <path
       inkscape:connector-curvature="0"
       id="path3669"
       style="fill:#ffffff;fill-opacity:1;fill-rule:nonzero;stroke:none"
       d="m 365.64223,528.64727 63.00125,0 c 2.485,0 4.49875,2.01375 4.49875,4.5 l 0,27.00125 c 0,2.485 -2.01375,4.5 -4.49875,4.5 l -63.00125,0 c -2.485,0 -4.49875,-2.015 -4.49875,-4.5 l 0,-27.00125 c 0,-2.48625 2.01375,-4.5 4.49875,-4.5" />
    <path
       inkscape:connector-curvature="0"
       id="path3673"
       style="fill:none;stroke:#231f20;stroke-width:0.625;stroke-linecap:butt;stroke-linejoin:miter;stroke-miterlimit:3.86400008;stroke-opacity:1;stroke-dasharray:none"
       d="m 365.64223,528.64727 63.00125,0 c 2.485,0 4.49875,2.01375 4.49875,4.5 l 0,27.00125 c 0,2.485 -2.01375,4.5 -4.49875,4.5 l -63.00125,0 c -2.485,0 -4.49875,-2.015 -4.49875,-4.5 l 0,-27.00125 c 0,-2.48625 2.01375,-4.5 4.49875,-4.5 z" />
    <path
       inkscape:connector-curvature="0"
       id="path3677"
       style="fill:#00674c;fill-opacity:1;fill-rule:nonzero;stroke:none"
       d="m 365.64223,530.14852 63.00125,0 c 1.655,0 3,1.3425 3,2.99875 l 0,27.00125 c 0,1.655 -1.345,2.99875 -3,2.99875 l -63.00125,0 c -1.6575,0 -3,-1.34375 -3,-2.99875 l 0,-27.00125 c 0,-1.65625 1.3425,-2.99875 3,-2.99875" />
    <path
       inkscape:connector-curvature="0"
       id="path3681"
       style="fill:#ffffff;fill-opacity:1;fill-rule:evenodd;stroke:none"
       d="m 386.74598,555.64727 0,-2.8125 -8.15625,0 0,-5.17375 5.31625,0 0,-2.8125 -5.31625,0 0,-4.3875 7.73375,0 0,-2.8125 -10.54625,0 0,17.99875 10.96875,0 z" />
    <path
       inkscape:connector-curvature="0"
       id="path3685"
       style="fill:#ffffff;fill-opacity:1;fill-rule:evenodd;stroke:none"
       d="m 402.20473,555.64727 0,-17.99875 -2.8125,0 0,11.98 -6.69375,-11.98 -2.58625,0 0,17.99875 2.8125,0 0,-11.98 6.6925,11.98 2.5875,0 z" />
    <path
       inkscape:connector-curvature="0"
       id="path3689"
       style="fill:#ffffff;fill-opacity:1;fill-rule:evenodd;stroke:none"
       d="m 415.70098,546.64727 c 0,6.1875 -3.6575,6.1875 -4.7825,6.1875 l -1.6875,0 0,-12.37375 1.6875,0 c 1.125,0 4.7825,0 4.7825,6.18625 m 2.81,0 c 0,-8.99875 -6.4675,-8.99875 -7.5925,-8.99875 l -4.5,0 0,17.99875 4.5,0 c 1.125,0 7.5925,0 7.5925,-9" />
  </g>
</svg>
