<?xml version="1.0" encoding="UTF-8" standalone="no"?>
<!-- Created with Inkscape (http://www.inkscape.org/) -->

<svg
   xmlns:dc="http://purl.org/dc/elements/1.1/"
   xmlns:cc="http://creativecommons.org/ns#"
   xmlns:rdf="http://www.w3.org/1999/02/22-rdf-syntax-ns#"
   xmlns:svg="http://www.w3.org/2000/svg"
   xmlns="http://www.w3.org/2000/svg"
   xmlns:sodipodi="http://sodipodi.sourceforge.net/DTD/sodipodi-0.dtd"
   xmlns:inkscape="http://www.inkscape.org/namespaces/inkscape"
   width="72.625"
   height="36.625"
   id="svg7564"
   version="1.1"
   inkscape:version="0.48.2 r9819"
   sodipodi:docname="New document 61">
  <defs
     id="defs7566" />
  <sodipodi:namedview
     id="base"
     pagecolor="#ffffff"
     bordercolor="#666666"
     borderopacity="1.0"
     inkscape:pageopacity="0.0"
     inkscape:pageshadow="2"
     inkscape:zoom="0.35"
     inkscape:cx="-60.125"
     inkscape:cy="184.01282"
     inkscape:document-units="px"
     inkscape:current-layer="layer1"
     showgrid="false"
     fit-margin-top="0"
     fit-margin-left="0"
     fit-margin-right="0"
     fit-margin-bottom="0"
     inkscape:window-width="469"
     inkscape:window-height="425"
     inkscape:window-x="150"
     inkscape:window-y="150"
     inkscape:window-maximized="0" />
  <metadata
     id="metadata7569">
    <rdf:RDF>
      <cc:Work
         rdf:about="">
        <dc:format>image/svg+xml</dc:format>
        <dc:type
           rdf:resource="http://purl.org/dc/dcmitype/StillImage" />
        <dc:title></dc:title>
      </cc:Work>
    </rdf:RDF>
  </metadata>
  <g
     inkscape:label="Layer 1"
     inkscape:groupmode="layer"
     id="layer1"
     transform="translate(-435.125,-679.75)">
    <path
       inkscape:connector-curvature="0"
       id="path3705"
       style="fill:#ffffff;fill-opacity:1;fill-rule:nonzero;stroke:none"
       d="m 439.92857,680.07584 63,0 c 2.485,0 4.5,2.01375 4.5,4.5 l 0,26.99875 c 0,2.485 -2.015,4.5025 -4.5,4.5025 l -63,0 c -2.48625,0 -4.5,-2.0175 -4.5,-4.5025 l 0,-26.99875 c 0,-2.48625 2.01375,-4.5 4.5,-4.5" />
    <path
       inkscape:connector-curvature="0"
       id="path3717"
       style="fill:none;stroke:#231f20;stroke-width:0.625;stroke-linecap:butt;stroke-linejoin:miter;stroke-miterlimit:3.86400008;stroke-opacity:1;stroke-dasharray:none"
       d="m 439.92857,680.07584 63,0 c 2.485,0 4.5,2.01375 4.5,4.5 l 0,26.99875 c 0,2.485 -2.015,4.5025 -4.5,4.5025 l -63,0 c -2.48625,0 -4.5,-2.0175 -4.5,-4.5025 l 0,-26.99875 c 0,-2.48625 2.01375,-4.5 4.5,-4.5 z" />
    <path
       inkscape:connector-curvature="0"
       id="path3729"
       style="fill:#00674c;fill-opacity:1;fill-rule:nonzero;stroke:none"
       d="m 439.92857,681.57459 63,0 c 1.65625,0 2.99875,1.345 2.99875,3.00125 l 0,26.99875 c 0,1.6575 -1.3425,3.00125 -2.99875,3.00125 l -63,0 c -1.65875,0 -3.00125,-1.34375 -3.00125,-3.00125 l 0,-26.99875 c 0,-1.65625 1.3425,-3.00125 3.00125,-3.00125" />
    <path
       inkscape:connector-curvature="0"
       id="path3733"
       style="fill:#ffffff;fill-opacity:1;fill-rule:evenodd;stroke:none"
       d="m 445.7412,693.57709 0,-1.50125 -4.50125,0 0,1.50125 1.50125,0 0,10.4975 1.5,0 0,-10.4975 1.5,0 z" />
    <path
       inkscape:connector-curvature="0"
       id="path3737"
       style="fill:#ffffff;fill-opacity:1;fill-rule:evenodd;stroke:none"
       d="m 451.65357,704.07459 0,-1.49875 -3.00125,0 0,-4.23875 2.11875,0 0,-1.49875 -2.11875,0 0,-3.26125 2.8125,0 0,-1.50125 -4.3125,0 0,11.99875 4.50125,0 z" />
    <path
       inkscape:connector-curvature="0"
       id="path3741"
       style="fill:#ffffff;fill-opacity:1;fill-rule:evenodd;stroke:none"
       d="m 458.87732,704.07459 0,-11.99875 -1.5,0 -1.40625,4.31375 -1.40625,-4.31375 -1.5,0 0,11.99875 1.5,0 0,-7.12375 1.40625,4.35 1.40625,-4.35 0,7.12375 1.5,0 z" />
    <path
       inkscape:connector-curvature="0"
       id="path3745"
       style="fill:#ffffff;fill-opacity:1;fill-rule:evenodd;stroke:none"
       d="m 464.29982,695.56459 c 0,1.89125 -1.2,1.7625 -1.2,1.7625 l -0.8625,0 0,-3.75 0.8625,0 c 0,0 1.2,-0.16875 1.2,1.9875 m 1.48,0 c 0,-3.545 -2.43625,-3.48875 -2.7925,-3.48875 l -2.25,0 0,11.99875 1.5,0 0,-5.24875 0.8625,0 c 0.24375,0 2.68,0.1125 2.68,-3.26125" />
    <path
       inkscape:connector-curvature="0"
       id="path3749"
       style="fill:#ffffff;fill-opacity:1;fill-rule:evenodd;stroke:none"
       d="m 471.1487,698.07584 c 0,1.4825 -0.1875,3.61875 -0.1875,3.61875 0,0 -0.02,1.03 -1.03125,1.03 -0.99375,0 -1.0325,-1.03 -1.0325,-1.03 0,0 -0.1875,-2.175 -0.1875,-3.61875 0,-1.5375 0.1875,-3.6175 0.1875,-3.6175 0,0 0.0763,-1.0325 1.0325,-1.0325 0.9375,0 1.03125,1.0325 1.03125,1.0325 0,0 0.1875,2.13625 0.1875,3.6175 m 1.49875,0 c 0,-2.34375 -0.1875,-3.6175 -0.1875,-3.6175 0,0 -0.16875,-2.5325 -2.53,-2.5325 -2.3625,0 -2.53125,2.5325 -2.53125,2.5325 0,0 -0.1875,1.4625 -0.1875,3.6175 0,1.96875 0.1875,3.61875 0.1875,3.61875 0,0 0.14875,2.53125 2.53125,2.53125 2.36125,0 2.53,-2.53125 2.53,-2.53125 0,0 0.1875,-1.63125 0.1875,-3.61875" />
    <path
       inkscape:connector-curvature="0"
       id="path3753"
       style="fill:#ffffff;fill-opacity:1;fill-rule:evenodd;stroke:none"
       d="m 478.0712,695.31959 c 0,1.6675 -1.01125,1.7075 -1.31125,1.7075 l -0.75125,0 0,-3.265 0.75125,0 c 0.205,0 1.31125,-0.0162 1.31125,1.5575 m 1.50125,8.755 -1.31375,-5.9425 c 0,0 1.31375,-0.43125 1.31375,-2.8125 0,-3.3175 -2.3825,-3.24375 -3.00125,-3.24375 l -2.0625,0 0,11.99875 1.5,0 0,-5.54875 0.7875,0 1.2375,5.56875 1.53875,-0.02 z" />
    <path
       inkscape:connector-curvature="0"
       id="path3757"
       style="fill:#ffffff;fill-opacity:1;fill-rule:evenodd;stroke:none"
       d="m 484.88245,699.33084 -1.425,0 0.71125,-3.67375 0.71375,3.67375 z m 2.475,4.74375 -2.4,-11.99875 -1.59375,0 -2.38125,11.99875 1.51875,0 0.65625,-3.2425 2.025,0 0.6375,3.2625 1.5375,-0.02 z" />
    <path
       inkscape:connector-curvature="0"
       id="path3761"
       style="fill:#ffffff;fill-opacity:1;fill-rule:evenodd;stroke:none"
       d="m 492.33245,695.31959 c 0,1.6675 -1.0125,1.7075 -1.3125,1.7075 l -0.75,0 0,-3.265 0.75,0 c 0.2075,0 1.3125,-0.0162 1.3125,1.5575 m 1.5,8.755 -1.3125,-5.9425 c 0,0 1.3125,-0.43125 1.3125,-2.8125 0,-3.3175 -2.38125,-3.24375 -3,-3.24375 l -2.06125,0 0,11.99875 1.49875,0 0,-5.54875 0.7875,0 1.2375,5.56875 1.5375,-0.02 z" />
    <path
       inkscape:connector-curvature="0"
       id="path3765"
       style="fill:#ffffff;fill-opacity:1;fill-rule:evenodd;stroke:none"
       d="m 501.61732,692.07584 -1.61125,0 -1.575,4.08875 -1.57375,-4.08875 -1.61375,0 2.4375,6.3175 0,5.68125 1.5,0 0,-5.68125 2.43625,-6.3175 z" />
  </g>
</svg>
