<?xml version="1.0" encoding="UTF-8" standalone="no"?>
<!-- Created with Inkscape (http://www.inkscape.org/) -->

<svg
   xmlns:dc="http://purl.org/dc/elements/1.1/"
   xmlns:cc="http://creativecommons.org/ns#"
   xmlns:rdf="http://www.w3.org/1999/02/22-rdf-syntax-ns#"
   xmlns:svg="http://www.w3.org/2000/svg"
   xmlns="http://www.w3.org/2000/svg"
   xmlns:sodipodi="http://sodipodi.sourceforge.net/DTD/sodipodi-0.dtd"
   xmlns:inkscape="http://www.inkscape.org/namespaces/inkscape"
   width="72.625"
   height="36.625"
   id="svg7665"
   version="1.1"
   inkscape:version="0.48.2 r9819"
   sodipodi:docname="New document 65">
  <defs
     id="defs7667" />
  <sodipodi:namedview
     id="base"
     pagecolor="#ffffff"
     bordercolor="#666666"
     borderopacity="1.0"
     inkscape:pageopacity="0.0"
     inkscape:pageshadow="2"
     inkscape:zoom="0.35"
     inkscape:cx="22.75"
     inkscape:cy="49.731567"
     inkscape:document-units="px"
     inkscape:current-layer="layer1"
     showgrid="false"
     fit-margin-top="0"
     fit-margin-left="0"
     fit-margin-right="0"
     fit-margin-bottom="0"
     inkscape:window-width="469"
     inkscape:window-height="425"
     inkscape:window-x="200"
     inkscape:window-y="200"
     inkscape:window-maximized="0" />
  <metadata
     id="metadata7670">
    <rdf:RDF>
      <cc:Work
         rdf:about="">
        <dc:format>image/svg+xml</dc:format>
        <dc:type
           rdf:resource="http://purl.org/dc/dcmitype/StillImage" />
        <dc:title></dc:title>
      </cc:Work>
    </rdf:RDF>
  </metadata>
  <g
     inkscape:label="Layer 1"
     inkscape:groupmode="layer"
     id="layer1"
     transform="translate(-352.25,-545.46875)">
    <path
       inkscape:connector-curvature="0"
       id="path4003"
       style="fill:#f48412;fill-opacity:1;fill-rule:nonzero;stroke:none"
       d="m 357.0708,545.79013 63,0 c 2.48625,0 4.50125,2.01375 4.50125,4.5 l 0,26.99875 c 0,2.485 -2.015,4.5025 -4.50125,4.5025 l -63,0 c -2.485,0 -4.5,-2.0175 -4.5,-4.5025 l 0,-26.99875 c 0,-2.48625 2.015,-4.5 4.5,-4.5" />
    <path
       inkscape:connector-curvature="0"
       id="path4007"
       style="fill:none;stroke:#231f20;stroke-width:0.625;stroke-linecap:butt;stroke-linejoin:miter;stroke-miterlimit:3.86400008;stroke-opacity:1;stroke-dasharray:none"
       d="m 357.0708,545.79013 63,0 c 2.48625,0 4.50125,2.01375 4.50125,4.5 l 0,26.99875 c 0,2.485 -2.015,4.5025 -4.50125,4.5025 l -63,0 c -2.485,0 -4.5,-2.0175 -4.5,-4.5025 l 0,-26.99875 c 0,-2.48625 2.015,-4.5 4.5,-4.5 z" />
    <path
       inkscape:connector-curvature="0"
       id="path4011"
       style="fill:#231f20;fill-opacity:1;fill-rule:nonzero;stroke:none"
       d="m 357.0708,546.91513 63,0 c 1.865,0 3.3775,1.51125 3.3775,3.375 l 0,26.99875 c 0,1.865 -1.5125,3.37625 -3.3775,3.37625 l -63,0 c -1.8625,0 -3.37375,-1.51125 -3.37375,-3.37625 l 0,-26.99875 c 0,-1.86375 1.51125,-3.375 3.37375,-3.375" />
    <path
       inkscape:connector-curvature="0"
       id="path4015"
       style="fill:#f48412;fill-opacity:1;fill-rule:nonzero;stroke:none"
       d="m 357.0708,548.79013 63,0 c 0.83,0 1.5025,0.67125 1.5025,1.5 l 0,26.99875 c 0,0.83 -0.6725,1.50125 -1.5025,1.50125 l -63,0 c -0.8275,0 -1.49875,-0.67125 -1.49875,-1.50125 l 0,-26.99875 c 0,-0.82875 0.67125,-1.5 1.49875,-1.5" />
    <path
       inkscape:connector-curvature="0"
       id="path4019"
       style="fill:#231f20;fill-opacity:1;fill-rule:evenodd;stroke:none"
       d="m 364.86868,563.79013 c 0,7.05875 -1.51875,6.75125 -2.05375,6.75125 l -1.04,0 0,-13.50125 1.04,0 c 0.50625,0 2.05375,-0.25375 2.05375,6.75 m 2.25125,0 c 0,-8.945 -2.7,-9.00125 -4.08,-9.00125 l -3.515,0 0,18.00125 3.515,0 c 1.40625,0 4.08,0.0288 4.08,-9" />
    <path
       inkscape:connector-curvature="0"
       id="path4023"
       style="fill:#231f20;fill-opacity:1;fill-rule:evenodd;stroke:none"
       d="m 377.05268,572.79013 0,-2.24875 -4.49875,0 0,-6.3575 3.17625,0 0,-2.25125 -3.17625,0 0,-4.8925 4.21875,0 0,-2.25125 -6.47,0 0,18.00125 6.75,0 z" />
    <path
       inkscape:connector-curvature="0"
       id="path4027"
       style="fill:#231f20;fill-opacity:1;fill-rule:evenodd;stroke:none"
       d="m 385.41518,557.04013 0,-2.25125 -6.75125,0 0,2.25125 2.25125,0 0,15.75 2.24875,0 0,-15.75 2.25125,0 z" />
    <path
       inkscape:connector-curvature="0"
       id="path4031"
       style="fill:#231f20;fill-opacity:1;fill-rule:evenodd;stroke:none"
       d="m 393.83393,563.79013 c 0,2.2225 -0.28125,5.4275 -0.28125,5.4275 0,0 -0.0288,1.5475 -1.54875,1.5475 -1.49125,0 -1.5475,-1.5475 -1.5475,-1.5475 0,0 -0.28125,-3.26125 -0.28125,-5.4275 0,-2.30625 0.28125,-5.42875 0.28125,-5.42875 0,0 0.1125,-1.54625 1.5475,-1.54625 1.4075,0 1.54875,1.54625 1.54875,1.54625 0,0 0.28125,3.2075 0.28125,5.42875 m 2.24875,0 c 0,-3.515 -0.28125,-5.42875 -0.28125,-5.42875 0,0 -0.25375,-3.7975 -3.7975,-3.7975 -3.545,0 -3.79625,3.7975 -3.79625,3.7975 0,0 -0.28,2.19375 -0.28,5.42875 0,2.9525 0.28,5.4275 0.28,5.4275 0,0 0.225,3.79625 3.79625,3.79625 3.54375,0 3.7975,-3.79625 3.7975,-3.79625 0,0 0.28125,-2.44625 0.28125,-5.4275" />
    <path
       inkscape:connector-curvature="0"
       id="path4035"
       style="fill:#231f20;fill-opacity:1;fill-rule:evenodd;stroke:none"
       d="m 406.86143,569.21763 0,-14.42875 -2.25125,0 0,14.42875 c 0,0.59125 -0.47625,1.5475 -1.54625,1.5475 -1.06875,0 -1.5475,-0.95625 -1.5475,-1.5475 l 0,-14.42875 -2.24875,0 0,14.42875 c 0,1.885 1.51875,3.79625 3.79625,3.79625 2.08125,0 3.7975,-1.7425 3.7975,-3.79625" />
    <path
       inkscape:connector-curvature="0"
       id="path4039"
       style="fill:#231f20;fill-opacity:1;fill-rule:evenodd;stroke:none"
       d="m 415.38893,559.65513 c 0,2.505 -1.51875,2.56125 -1.9675,2.56125 l -1.12625,0 0,-4.895 1.12625,0 c 0.31,0 1.9675,-0.0275 1.9675,2.33375 m 2.25125,13.135 -1.97125,-8.91625 c 0,0 1.97125,-0.6475 1.97125,-4.21875 0,-4.97875 -3.5725,-4.86625 -4.5,-4.86625 l -3.09625,0 0,18.00125 2.25125,0 0,-8.32625 1.1825,0 1.855,8.355 2.3075,-0.0288 z" />
  </g>
</svg>
