<?xml version="1.0" encoding="UTF-8" standalone="no"?>
<!-- Created with Inkscape (http://www.inkscape.org/) -->

<svg
   xmlns:dc="http://purl.org/dc/elements/1.1/"
   xmlns:cc="http://creativecommons.org/ns#"
   xmlns:rdf="http://www.w3.org/1999/02/22-rdf-syntax-ns#"
   xmlns:svg="http://www.w3.org/2000/svg"
   xmlns="http://www.w3.org/2000/svg"
   xmlns:sodipodi="http://sodipodi.sourceforge.net/DTD/sodipodi-0.dtd"
   xmlns:inkscape="http://www.inkscape.org/namespaces/inkscape"
   width="63.625"
   height="45.625"
   id="svg7915"
   version="1.1"
   inkscape:version="0.48.2 r9819"
   sodipodi:docname="New document 78">
  <defs
     id="defs7917" />
  <sodipodi:namedview
     id="base"
     pagecolor="#ffffff"
     bordercolor="#666666"
     borderopacity="1.0"
     inkscape:pageopacity="0.0"
     inkscape:pageshadow="2"
     inkscape:zoom="0.35"
     inkscape:cx="158.25"
     inkscape:cy="125.66907"
     inkscape:document-units="px"
     inkscape:current-layer="layer1"
     showgrid="false"
     fit-margin-top="0"
     fit-margin-left="0"
     fit-margin-right="0"
     fit-margin-bottom="0"
     inkscape:window-width="469"
     inkscape:window-height="425"
     inkscape:window-x="125"
     inkscape:window-y="125"
     inkscape:window-maximized="0" />
  <metadata
     id="metadata7920">
    <rdf:RDF>
      <cc:Work
         rdf:about="">
        <dc:format>image/svg+xml</dc:format>
        <dc:type
           rdf:resource="http://purl.org/dc/dcmitype/StillImage" />
        <dc:title></dc:title>
      </cc:Work>
    </rdf:RDF>
  </metadata>
  <g
     inkscape:label="Layer 1"
     inkscape:groupmode="layer"
     id="layer1"
     transform="translate(-216.75,-612.40625)">
    <path
       inkscape:connector-curvature="0"
       id="path3863"
       style="fill:#ffffff;fill-opacity:1;fill-rule:nonzero;stroke:none"
       d="m 221.5708,612.71933 54.00125,0 c 2.485,0 4.5,2.01625 4.5,4.50125 l 0,35.99875 c 0,2.485 -2.015,4.5 -4.5,4.5 l -54.00125,0 c -2.485,0 -4.5,-2.015 -4.5,-4.5 l 0,-35.99875 c 0,-2.485 2.015,-4.50125 4.5,-4.50125" />
    <path
       inkscape:connector-curvature="0"
       id="path3867"
       style="fill:none;stroke:#231f20;stroke-width:0.625;stroke-linecap:butt;stroke-linejoin:miter;stroke-miterlimit:3.86400008;stroke-opacity:1;stroke-dasharray:none"
       d="m 221.5708,612.71933 54.00125,0 c 2.485,0 4.5,2.01625 4.5,4.50125 l 0,35.99875 c 0,2.485 -2.015,4.5 -4.5,4.5 l -54.00125,0 c -2.485,0 -4.5,-2.015 -4.5,-4.5 l 0,-35.99875 c 0,-2.485 2.015,-4.50125 4.5,-4.50125 z" />
    <path
       inkscape:connector-curvature="0"
       id="path3871"
       style="fill:#00674c;fill-opacity:1;fill-rule:nonzero;stroke:none"
       d="m 221.5708,614.22058 54.00125,0 c 1.655,0 3.00125,1.3425 3.00125,3 l 0,35.99875 c 0,1.6575 -1.34625,3 -3.00125,3 l -54.00125,0 c -1.655,0 -2.9975,-1.3425 -2.9975,-3 l 0,-35.99875 c 0,-1.6575 1.3425,-3 2.9975,-3" />
    <path
       inkscape:connector-curvature="0"
       id="path3875"
       style="fill:#ffffff;fill-opacity:1;fill-rule:evenodd;stroke:none"
       d="m 236.03568,651.14683 19.2975,-16.95625 2.0625,4.485 c 0.0587,0.1325 0.14,0.25625 0.24,0.37125 0.53625,0.6125 1.46875,0.67375 2.0825,0.135 0.2,-0.17625 0.34125,-0.39375 0.4225,-0.63 l 5.34875,-18.51875 -19.05625,2.9175 c -0.24375,0.0488 -0.47875,0.16125 -0.67875,0.3375 -0.6125,0.53625 -0.67375,1.46875 -0.13375,2.0825 0.1,0.11375 0.215,0.21 0.33625,0.285 l 4.18,2.6225 -19.29125,16.9475 5.19,5.92125 z" />
  </g>
</svg>
