<?xml version="1.0" encoding="UTF-8" standalone="no"?>
<!-- Created with Inkscape (http://www.inkscape.org/) -->

<svg
   xmlns:dc="http://purl.org/dc/elements/1.1/"
   xmlns:cc="http://creativecommons.org/ns#"
   xmlns:rdf="http://www.w3.org/1999/02/22-rdf-syntax-ns#"
   xmlns:svg="http://www.w3.org/2000/svg"
   xmlns="http://www.w3.org/2000/svg"
   xmlns:sodipodi="http://sodipodi.sourceforge.net/DTD/sodipodi-0.dtd"
   xmlns:inkscape="http://www.inkscape.org/namespaces/inkscape"
   width="63.625"
   height="45.625"
   id="svg7950"
   version="1.1"
   inkscape:version="0.48.2 r9819"
   sodipodi:docname="New document 80">
  <defs
     id="defs7952" />
  <sodipodi:namedview
     id="base"
     pagecolor="#ffffff"
     bordercolor="#666666"
     borderopacity="1.0"
     inkscape:pageopacity="0.0"
     inkscape:pageshadow="2"
     inkscape:zoom="0.35"
     inkscape:cx="112.53125"
     inkscape:cy="151.38782"
     inkscape:document-units="px"
     inkscape:current-layer="layer1"
     showgrid="false"
     fit-margin-top="0"
     fit-margin-left="0"
     fit-margin-right="0"
     fit-margin-bottom="0"
     inkscape:window-width="469"
     inkscape:window-height="425"
     inkscape:window-x="150"
     inkscape:window-y="150"
     inkscape:window-maximized="0" />
  <metadata
     id="metadata7955">
    <rdf:RDF>
      <cc:Work
         rdf:about="">
        <dc:format>image/svg+xml</dc:format>
        <dc:type
           rdf:resource="http://purl.org/dc/dcmitype/StillImage" />
        <dc:title></dc:title>
      </cc:Work>
    </rdf:RDF>
  </metadata>
  <g
     inkscape:label="Layer 1"
     inkscape:groupmode="layer"
     id="layer1"
     transform="translate(-262.46875,-638.125)">
    <path
       inkscape:connector-curvature="0"
       id="path3835"
       style="fill:#ffffff;fill-opacity:1;fill-rule:nonzero;stroke:none"
       d="m 267.28509,638.43361 54.00125,0 c 2.48625,0 4.5,2.01625 4.5,4.50125 l 0,35.99875 c 0,2.485 -2.01375,4.5 -4.5,4.5 l -54.00125,0 c -2.485,0 -4.5,-2.015 -4.5,-4.5 l 0,-35.99875 c 0,-2.485 2.015,-4.50125 4.5,-4.50125" />
    <path
       inkscape:connector-curvature="0"
       id="path3839"
       style="fill:none;stroke:#231f20;stroke-width:0.625;stroke-linecap:butt;stroke-linejoin:miter;stroke-miterlimit:3.86400008;stroke-opacity:1;stroke-dasharray:none"
       d="m 267.28509,638.43361 54.00125,0 c 2.48625,0 4.5,2.01625 4.5,4.50125 l 0,35.99875 c 0,2.485 -2.01375,4.5 -4.5,4.5 l -54.00125,0 c -2.485,0 -4.5,-2.015 -4.5,-4.5 l 0,-35.99875 c 0,-2.485 2.015,-4.50125 4.5,-4.50125 z" />
    <path
       inkscape:connector-curvature="0"
       id="path3843"
       style="fill:#00674c;fill-opacity:1;fill-rule:nonzero;stroke:none"
       d="m 267.28509,639.93486 54.00125,0 c 1.65625,0 3.00125,1.3425 3.00125,3 l 0,35.99875 c 0,1.6575 -1.345,3 -3.00125,3 l -54.00125,0 c -1.655,0 -2.9975,-1.3425 -2.9975,-3 l 0,-35.99875 c 0,-1.6575 1.3425,-3 2.9975,-3" />
    <path
       inkscape:connector-curvature="0"
       id="path3847"
       style="fill:#ffffff;fill-opacity:1;fill-rule:evenodd;stroke:none"
       d="m 298.26371,663.28861 4.7325,1.41125 c 0.13875,0.0438 0.285,0.0663 0.43625,0.0663 0.815,0 1.4775,-0.66125 1.4775,-1.4775 0,-0.26625 -0.0713,-0.515 -0.195,-0.7325 l -10.38625,-16.2475 -10.38875,16.2475 c -0.12375,0.2175 -0.195,0.46625 -0.195,0.7325 0,0.81625 0.66125,1.4775 1.4775,1.4775 0.15125,0 0.2975,-0.0225 0.43625,-0.0663 l 4.7325,-1.41125 0,12.27125 7.8725,0 0,-12.27125 z" />
  </g>
</svg>
