<?xml version="1.0" encoding="UTF-8" standalone="no"?>
<!-- Created with Inkscape (http://www.inkscape.org/) -->

<svg
   xmlns:dc="http://purl.org/dc/elements/1.1/"
   xmlns:cc="http://creativecommons.org/ns#"
   xmlns:rdf="http://www.w3.org/1999/02/22-rdf-syntax-ns#"
   xmlns:svg="http://www.w3.org/2000/svg"
   xmlns="http://www.w3.org/2000/svg"
   xmlns:sodipodi="http://sodipodi.sourceforge.net/DTD/sodipodi-0.dtd"
   xmlns:inkscape="http://www.inkscape.org/namespaces/inkscape"
   width="63.625"
   height="45.625"
   id="svg8055"
   version="1.1"
   inkscape:version="0.48.2 r9819"
   sodipodi:docname="New document 86">
  <defs
     id="defs8057" />
  <sodipodi:namedview
     id="base"
     pagecolor="#ffffff"
     bordercolor="#666666"
     borderopacity="1.0"
     inkscape:pageopacity="0.0"
     inkscape:pageshadow="2"
     inkscape:zoom="0.35"
     inkscape:cx="-258.90625"
     inkscape:cy="308.51282"
     inkscape:document-units="px"
     inkscape:current-layer="layer1"
     showgrid="false"
     fit-margin-top="0"
     fit-margin-left="0"
     fit-margin-right="0"
     fit-margin-bottom="0"
     inkscape:window-width="469"
     inkscape:window-height="425"
     inkscape:window-x="25"
     inkscape:window-y="25"
     inkscape:window-maximized="0" />
  <metadata
     id="metadata8060">
    <rdf:RDF>
      <cc:Work
         rdf:about="">
        <dc:format>image/svg+xml</dc:format>
        <dc:type
           rdf:resource="http://purl.org/dc/dcmitype/StillImage" />
        <dc:title></dc:title>
      </cc:Work>
    </rdf:RDF>
  </metadata>
  <g
     inkscape:label="Layer 1"
     inkscape:groupmode="layer"
     id="layer1"
     transform="translate(-633.90625,-795.25)">
    <path
       inkscape:connector-curvature="0"
       id="path3919"
       style="fill:#ffffff;fill-opacity:1;fill-rule:nonzero;stroke:none"
       d="m 638.71491,795.57647 54,0 c 2.485,0 4.5,2.01375 4.5,4.49875 l 0,36.00125 c 0,2.485 -2.015,4.5 -4.5,4.5 l -54,0 c -2.485,0 -4.50125,-2.015 -4.50125,-4.5 l 0,-36.00125 c 0,-2.485 2.01625,-4.49875 4.50125,-4.49875" />
    <path
       inkscape:connector-curvature="0"
       id="path3923"
       style="fill:none;stroke:#231f20;stroke-width:0.625;stroke-linecap:butt;stroke-linejoin:miter;stroke-miterlimit:3.86400008;stroke-opacity:1;stroke-dasharray:none"
       d="m 638.71491,795.57647 54,0 c 2.485,0 4.5,2.01375 4.5,4.49875 l 0,36.00125 c 0,2.485 -2.015,4.5 -4.5,4.5 l -54,0 c -2.485,0 -4.50125,-2.015 -4.50125,-4.5 l 0,-36.00125 c 0,-2.485 2.01625,-4.49875 4.50125,-4.49875 z" />
    <path
       inkscape:connector-curvature="0"
       id="path3927"
       style="fill:#00674c;fill-opacity:1;fill-rule:nonzero;stroke:none"
       d="m 638.71491,797.07772 54,0 c 1.6575,0 3.00125,1.3425 3.00125,2.9975 l 0,36.00125 c 0,1.6575 -1.34375,3.00125 -3.00125,3.00125 l -54,0 c -1.6575,0 -3,-1.34375 -3,-3.00125 l 0,-36.00125 c 0,-1.655 1.3425,-2.9975 3,-2.9975" />
    <path
       inkscape:connector-curvature="0"
       id="path3931"
       style="fill:#ffffff;fill-opacity:1;fill-rule:evenodd;stroke:none"
       d="m 654.13104,829.70272 -0.002,-14.32375 -4.0475,1.21 c -0.1175,0.0375 -0.245,0.0562 -0.37375,0.0562 -0.69875,0 -1.265,-0.56625 -1.265,-1.26625 0,-0.2275 0.0588,-0.4425 0.16625,-0.6275 l 8.90125,-13.92375 8.90625,13.92375 c 0.105,0.185 0.16625,0.4 0.16625,0.6275 0,0.7 -0.56625,1.26625 -1.265,1.26625 -0.13125,0 -0.25625,-0.0187 -0.37625,-0.0562 l -4.0625,-1.21 0,7.5725 7.57625,0 -1.21125,-4.055 c -0.0363,-0.1175 -0.0563,-0.24375 -0.0563,-0.37375 0,-0.6975 0.56625,-1.26375 1.2675,-1.26375 0.2275,0 0.44125,0.06 0.6275,0.165 l 13.92625,8.90125 -13.92625,8.90375 c -0.18625,0.105 -0.4,0.16625 -0.6275,0.16625 -0.70125,0 -1.2675,-0.56625 -1.2675,-1.26375 0,-0.1325 0.02,-0.2575 0.0563,-0.37625 l 1.21125,-4.0525 -14.32375,0 z" />
  </g>
</svg>
