<?xml version="1.0" encoding="UTF-8" standalone="no"?>
<!-- Created with Inkscape (http://www.inkscape.org/) -->

<svg
   xmlns:dc="http://purl.org/dc/elements/1.1/"
   xmlns:cc="http://creativecommons.org/ns#"
   xmlns:rdf="http://www.w3.org/1999/02/22-rdf-syntax-ns#"
   xmlns:svg="http://www.w3.org/2000/svg"
   xmlns="http://www.w3.org/2000/svg"
   xmlns:sodipodi="http://sodipodi.sourceforge.net/DTD/sodipodi-0.dtd"
   xmlns:inkscape="http://www.inkscape.org/namespaces/inkscape"
   width="17.148438"
   height="50.234375"
   id="svg10303"
   version="1.1"
   inkscape:version="0.48.2 r9819"
   sodipodi:docname="New document 116">
  <defs
     id="defs10305">
    <clipPath
       clipPathUnits="userSpaceOnUse"
       id="clipPath4893">
      <path
         inkscape:connector-curvature="0"
         d="m 63.125,37.195 512.875,0 0,702.805 -512.875,0 0,-702.805 z"
         id="path4895" />
    </clipPath>
  </defs>
  <sodipodi:namedview
     id="base"
     pagecolor="#ffffff"
     bordercolor="#666666"
     borderopacity="1.0"
     inkscape:pageopacity="0.0"
     inkscape:pageshadow="2"
     inkscape:zoom="0.35"
     inkscape:cx="92.1333"
     inkscape:cy="62.268477"
     inkscape:document-units="px"
     inkscape:current-layer="layer1"
     showgrid="false"
     fit-margin-top="0"
     fit-margin-left="0"
     fit-margin-right="0"
     fit-margin-bottom="0"
     inkscape:window-width="469"
     inkscape:window-height="425"
     inkscape:window-x="1391"
     inkscape:window-y="25"
     inkscape:window-maximized="0" />
  <metadata
     id="metadata10308">
    <rdf:RDF>
      <cc:Work
         rdf:about="">
        <dc:format>image/svg+xml</dc:format>
        <dc:type
           rdf:resource="http://purl.org/dc/dcmitype/StillImage" />
        <dc:title></dc:title>
      </cc:Work>
    </rdf:RDF>
  </metadata>
  <g
     inkscape:label="Layer 1"
     inkscape:groupmode="layer"
     id="layer1"
     transform="translate(-282.8667,-544.39629)">
    <g
       transform="matrix(1.25,0,0,-1.25,-340.7303,707.85541)"
       id="g4889">
      <g
         id="g4891"
         clip-path="url(#clipPath4893)">
        <g
           id="g4897"
           transform="translate(500.8776,130.5173)">
          <path
             inkscape:connector-curvature="0"
             d="m 0,0 9.699,0 c 0.971,0 1.762,-0.793 1.762,-1.764 l 0,-36.147 c 0,-0.97 -0.791,-1.763 -1.762,-1.763 l -9.699,0 c -0.971,0 -1.762,0.793 -1.762,1.763 l 0,36.147 C -1.762,-0.793 -0.971,0 0,0"
             style="fill:#fccf34;fill-opacity:1;fill-rule:evenodd;stroke:#231f20;stroke-width:0.5;stroke-linecap:butt;stroke-linejoin:miter;stroke-miterlimit:4;stroke-opacity:1;stroke-dasharray:none"
             id="path4899" />
        </g>
        <g
           id="g4901"
           transform="translate(499.1196,128.7532)">
          <path
             inkscape:connector-curvature="0"
             d="M 0,0 0,-2.951 4.707,1.756 1.762,1.764 C 0.791,1.764 0,0.971 0,0"
             style="fill:#231f20;fill-opacity:1;fill-rule:evenodd;stroke:none"
             id="path4903" />
        </g>
        <g
           id="g4905"
           transform="translate(505.7316,103.4403)">
          <path
             inkscape:connector-curvature="0"
             d="m 0,0 -6.614,-6.617 0,4.973 6.623,6.598 6.606,-6.598 0,-4.973 L 0,0 z"
             style="fill:#231f20;fill-opacity:1;fill-rule:evenodd;stroke:none"
             id="path4907" />
        </g>
        <g
           id="g4909"
           transform="translate(505.7316,93.7803)">
          <path
             inkscape:connector-curvature="0"
             d="m 0,0 -2.965,-2.937 -1.952,-0.002 c -0.792,0 -1.496,0.551 -1.697,1.308 l 0.002,0.008 6.612,6.596 6.613,-6.596 0,-0.008 C 6.414,-2.388 5.708,-2.939 4.916,-2.939 L 2.966,-2.937 0,0"
             style="fill:#231f20;fill-opacity:1;fill-rule:evenodd;stroke:none"
             id="path4911" />
        </g>
        <g
           id="g4913"
           transform="translate(512.3616,128.7532)">
          <path
             inkscape:connector-curvature="0"
             d="m 0,0 0,-2.951 -4.707,4.707 2.946,0.008 C -0.791,1.764 0,0.971 0,0"
             style="fill:#231f20;fill-opacity:1;fill-rule:evenodd;stroke:none"
             id="path4915" />
        </g>
        <g
           id="g4917"
           transform="translate(505.7316,113.1013)">
          <path
             inkscape:connector-curvature="0"
             d="M 0,0 C 0,0.019 6.593,-6.575 6.613,-6.596 L 6.634,-1.645 0,4.984 -6.614,-1.645 -6.594,-6.596 C -6.594,-6.625 0,-0.018 0,0"
             style="fill:#231f20;fill-opacity:1;fill-rule:evenodd;stroke:none"
             id="path4919" />
        </g>
        <g
           id="g4921"
           transform="translate(508.2386,125.2573)">
          <path
             inkscape:connector-curvature="0"
             d="m 0,0 4.125,-4.135 0,-5 -6.623,6.619 -6.623,-6.619 0,5 6.614,6.631 L 0,0 z"
             style="fill:#231f20;fill-opacity:1;fill-rule:evenodd;stroke:none"
             id="path4923" />
        </g>
      </g>
    </g>
  </g>
</svg>
