<?xml version="1.0" encoding="UTF-8" standalone="no"?>
<!-- Created with Inkscape (http://www.inkscape.org/) -->

<svg
   xmlns:dc="http://purl.org/dc/elements/1.1/"
   xmlns:cc="http://creativecommons.org/ns#"
   xmlns:rdf="http://www.w3.org/1999/02/22-rdf-syntax-ns#"
   xmlns:svg="http://www.w3.org/2000/svg"
   xmlns="http://www.w3.org/2000/svg"
   xmlns:sodipodi="http://sodipodi.sourceforge.net/DTD/sodipodi-0.dtd"
   xmlns:inkscape="http://www.inkscape.org/namespaces/inkscape"
   width="102.92969"
   height="102.89062"
   id="svg8840"
   version="1.1"
   inkscape:version="0.48.3.1 r9886"
   sodipodi:docname="New document 65">
  <defs
     id="defs8842" />
  <sodipodi:namedview
     id="base"
     pagecolor="#ffffff"
     bordercolor="#666666"
     borderopacity="1.0"
     inkscape:pageopacity="0.0"
     inkscape:pageshadow="2"
     inkscape:zoom="0.35"
     inkscape:cx="51.4675"
     inkscape:cy="51.440315"
     inkscape:document-units="px"
     inkscape:current-layer="layer1"
     showgrid="false"
     fit-margin-top="0"
     fit-margin-left="0"
     fit-margin-right="0"
     fit-margin-bottom="0"
     inkscape:window-width="451"
     inkscape:window-height="415"
     inkscape:window-x="125"
     inkscape:window-y="125"
     inkscape:window-maximized="0" />
  <metadata
     id="metadata8845">
    <rdf:RDF>
      <cc:Work
         rdf:about="">
        <dc:format>image/svg+xml</dc:format>
        <dc:type
           rdf:resource="http://purl.org/dc/dcmitype/StillImage" />
        <dc:title></dc:title>
      </cc:Work>
    </rdf:RDF>
  </metadata>
  <g
     inkscape:label="Layer 1"
     inkscape:groupmode="layer"
     id="layer1"
     transform="translate(-323.5325,-480.91187)">
    <g
       id="g4287"
       transform="matrix(1.25,0,0,-1.25,340.095,583.37281)">
      <path
         d="M 0,0 -12.885,12.887 15.035,40.809 -12.885,68.73 0,81.617 27.924,53.695 55.844,81.617 68.733,68.73 40.809,40.809 68.733,12.887 55.844,0 27.924,27.922 0,0 z"
         style="fill:#ffffff;fill-opacity:1;fill-rule:nonzero;stroke:none"
         id="path4289"
         inkscape:connector-curvature="0" />
    </g>
    <g
       id="g4291"
       transform="matrix(1.25,0,0,-1.25,340.095,583.37281)">
      <path
         d="M 0,0 -12.885,12.887 15.035,40.809 -12.885,68.73 0,81.617 27.924,53.695 55.844,81.617 68.733,68.73 40.809,40.809 68.733,12.887 55.844,0 27.924,27.922 0,0 z"
         style="fill:none;stroke:#231f20;stroke-width:0.5;stroke-linecap:butt;stroke-linejoin:miter;stroke-miterlimit:4;stroke-opacity:1;stroke-dasharray:none"
         id="path4293"
         inkscape:connector-curvature="0" />
    </g>
    <g
       id="g4295"
       transform="matrix(1.25,0,0,-1.25,417.17,494.11281)">
      <path
         d="m 0,0 -1.574,1.574 -2.679,-2.679 1.244,-1.243 1.435,1.436 0.332,-0.332 c 0.717,-0.719 0.635,-1.793 -0.166,-2.596 -0.469,-0.468 -1.021,-0.634 -1.711,-0.441 -0.746,0.25 -1.715,0.939 -2.543,1.767 -0.66,0.663 -1.269,1.493 -1.545,2.155 -0.416,0.967 -0.275,1.656 0.36,2.291 0.605,0.607 1.185,0.691 2.209,0.332 L -3.921,3.92 C -5.687,4.639 -6.902,4.418 -8.119,3.203 -9.002,2.32 -9.361,1.352 -9.25,0.303 c 0.164,-1.215 1.049,-2.817 2.319,-4.088 0.967,-0.965 2.127,-1.74 3.148,-2.098 1.465,-0.525 2.602,-0.281 3.789,0.907 C 1.442,-3.541 1.438,-1.437 0,0 m -6.953,-11.648 -7.871,7.871 -1.242,-1.242 5.025,-5.028 -7.896,2.155 -1.242,-1.243 7.871,-7.869 1.242,1.24 -5.332,5.331 8.344,-2.321 1.101,1.106 z m -9.463,-9.465 -7.871,7.871 -1.271,-1.272 7.871,-7.869 1.271,1.27 z m -7.093,-2.563 c -3.092,3.094 -5.827,-1.572 -7.401,-0.22 -0.773,0.664 -0.302,1.574 0.305,2.127 0.91,0.855 1.85,0.468 1.85,0.468 l 0.775,1.436 c -1.356,0.58 -2.734,0.471 -3.84,-0.633 -1.408,-1.41 -1.877,-3.037 -0.332,-4.586 1.297,-1.297 2.816,-0.717 3.481,-0.441 1.433,0.607 2.816,1.658 3.865,0.607 0.662,-0.662 0.664,-1.656 -0.055,-2.375 -0.746,-0.746 -1.767,-0.939 -2.846,-0.525 l -0.744,-1.627 c 1.711,-0.664 3.514,-0.475 4.865,0.877 0.663,0.664 1.045,1.496 1.1,2.324 0.055,0.939 -0.303,1.852 -1.023,2.568 m -8.362,-8.361 c -3.091,3.094 -5.826,-1.572 -7.4,-0.219 -0.774,0.662 -0.303,1.573 0.307,2.125 0.908,0.858 1.847,0.471 1.847,0.471 l 0.776,1.436 c -1.356,0.58 -2.735,0.47 -3.84,-0.635 -1.408,-1.408 -1.877,-3.037 -0.332,-4.586 1.297,-1.297 2.816,-0.717 3.48,-0.44 1.434,0.606 2.817,1.657 3.865,0.606 0.665,-0.662 0.665,-1.656 -0.054,-2.375 -0.746,-0.744 -1.768,-0.94 -2.846,-0.526 l -0.744,-1.627 c 1.713,-0.664 3.514,-0.474 4.865,0.879 0.662,0.663 1.045,1.495 1.1,2.323 0.056,0.939 -0.303,1.851 -1.024,2.568 m -11.672,-8.359 c 0.606,-0.608 1.243,-1.52 1.491,-2.1 0.414,-0.965 0.357,-1.629 -0.223,-2.209 -0.496,-0.496 -1.02,-0.635 -1.682,-0.469 -0.8,0.194 -1.824,0.885 -2.652,1.713 -0.662,0.662 -1.271,1.49 -1.545,2.154 -0.418,0.965 -0.332,1.655 0.303,2.235 0.496,0.443 0.965,0.58 1.629,0.414 0.828,-0.219 1.793,-0.856 2.679,-1.738 m 1.243,1.244 c -0.995,0.994 -2.184,1.793 -3.203,2.154 -1.465,0.469 -2.598,0.219 -3.592,-0.775 -0.91,-0.91 -1.27,-1.823 -1.131,-2.899 0.221,-1.271 1.049,-2.761 2.346,-4.06 0.939,-0.94 2.209,-1.768 3.203,-2.1 1.437,-0.496 2.574,-0.252 3.679,0.852 0.828,0.828 1.184,1.744 1.018,2.795 -0.141,1.242 -1.078,2.787 -2.32,4.033 m -12.116,-8.639 c 0.329,-0.33 0.469,-0.855 0.329,-1.326 -0.083,-0.303 -0.192,-0.469 -0.581,-0.854 l -1.488,-1.494 -1.933,1.936 1.49,1.49 c 0.414,0.414 0.553,0.498 0.855,0.58 0.471,0.137 0.994,0 1.328,-0.332 m 7.069,-4.254 -5.055,2.293 c 0.387,1.051 0.055,2.375 -0.773,3.203 -0.801,0.801 -2.127,1.133 -3.149,0.776 -0.58,-0.196 -1.049,-0.555 -1.658,-1.16 l -2.594,-2.596 7.871,-7.873 1.243,1.244 -3.424,3.424 1.49,1.492 4.695,-2.154 1.354,1.351 z m -10.93,-7.724 -1.629,-0.746 c 0.332,-0.94 0.221,-1.602 -0.303,-2.125 -0.554,-0.553 -1.105,-0.719 -1.796,-0.581 -0.801,0.192 -1.85,0.858 -2.707,1.713 -0.663,0.662 -1.243,1.463 -1.52,2.125 -0.414,0.967 -0.273,1.657 0.359,2.293 0.61,0.608 1.024,0.69 2.127,0.469 l 0.662,1.656 c -1.628,0.58 -2.871,0.332 -4.058,-0.855 -0.883,-0.883 -1.244,-1.85 -1.133,-2.901 0.139,-1.242 1.049,-2.816 2.293,-4.056 0.994,-0.996 2.211,-1.77 3.26,-2.102 1.463,-0.469 2.654,-0.17 3.814,0.99 1.133,1.131 1.322,2.491 0.631,4.12"
         style="fill:#231f20;fill-opacity:1;fill-rule:evenodd;stroke:none"
         id="path4297"
         inkscape:connector-curvature="0" />
    </g>
    <g
       id="g4299"
       transform="matrix(1.25,0,0,-1.25,361.99751,529.18781)">
      <path
         d="M 0,0 1.16,1.158 -2.485,4.804 4.226,11.513 2.984,12.757 -4.887,4.886 0,0 z m -8.051,8.05 7.871,7.87 -1.268,1.269 -7.871,-7.869 1.268,-1.27 z m -2.828,9.787 -1.574,1.575 3.009,1.41 -1.435,-2.985 z m -0.94,-6.019 5.162,10.578 -1.24,1.242 -10.576,-5.166 1.322,-1.324 2.983,1.436 2.461,-2.457 -1.438,-2.983 1.326,-1.326 z m -4.322,15.644 c -0.332,-0.33 -0.855,-0.468 -1.326,-0.33 -0.303,0.08 -0.469,0.192 -0.856,0.58 l -1.49,1.489 1.932,1.933 1.49,-1.49 c 0.418,-0.414 0.498,-0.553 0.58,-0.857 0.141,-0.469 0,-0.994 -0.33,-1.325 m -4.252,-7.07 2.291,5.055 c 1.049,-0.387 2.375,-0.055 3.203,0.771 0.803,0.803 1.131,2.129 0.774,3.149 -0.194,0.58 -0.551,1.051 -1.16,1.658 l -2.596,2.596 -7.869,-7.871 1.242,-1.243 3.424,3.424 1.49,-1.49 -2.154,-4.695 1.355,-1.354 z"
         style="fill:#231f20;fill-opacity:1;fill-rule:evenodd;stroke:none"
         id="path4301"
         inkscape:connector-curvature="0" />
    </g>
    <g
       id="g4303"
       transform="matrix(1.25,0,0,-1.25,413.89625,571.21531)">
      <path
         d="m 0,0 c -1.049,-1.048 -2.154,-1.658 -3.092,-1.658 -0.443,0 -0.773,0.166 -1.189,0.58 l -1.242,1.245 5.357,5.357 1.408,-1.41 C 1.574,3.784 1.711,3.37 1.711,2.983 1.686,2.182 1.051,1.049 0,0 M 1.272,-1.271 C 2.817,0.276 3.59,1.989 3.481,3.536 3.397,4.28 3.176,4.668 2.377,5.467 l -2.543,2.541 -7.871,-7.871 2.403,-2.4 c 0.193,-0.195 0.359,-0.36 0.443,-0.444 0.441,-0.384 0.994,-0.662 1.574,-0.689 1.574,-0.195 3.315,0.553 4.889,2.125 m -9.434,8.496 -1.578,1.574 3.012,1.409 -1.434,-2.983 z m -0.941,-6.019 5.164,10.576 -1.24,1.242 -10.58,-5.162 1.326,-1.328 2.982,1.437 2.457,-2.457 -1.433,-2.984 1.324,-1.324 z m -4.879,12.72 c -0.606,-0.607 -1.518,-1.242 -2.098,-1.49 -0.965,-0.416 -1.631,-0.361 -2.211,0.219 -0.494,0.498 -0.633,1.023 -0.468,1.683 0.195,0.803 0.886,1.825 1.714,2.655 0.661,0.66 1.489,1.269 2.153,1.545 0.966,0.414 1.656,0.332 2.236,-0.305 0.443,-0.494 0.58,-0.965 0.414,-1.629 -0.221,-0.828 -0.853,-1.795 -1.74,-2.678 m 1.244,-1.242 c 0.994,0.994 1.793,2.182 2.154,3.203 0.471,1.463 0.219,2.596 -0.775,3.59 -0.908,0.91 -1.82,1.27 -2.897,1.133 -1.271,-0.223 -2.763,-1.051 -4.06,-2.348 -0.94,-0.939 -1.768,-2.209 -2.1,-3.205 -0.496,-1.435 -0.252,-2.572 0.852,-3.676 0.828,-0.828 1.744,-1.183 2.795,-1.017 1.242,0.138 2.787,1.078 4.031,2.32 m -6.258,9.736 c -0.334,-0.33 -0.857,-0.468 -1.328,-0.33 -0.303,0.082 -0.469,0.194 -0.853,0.58 l -1.493,1.491 1.934,1.933 1.492,-1.49 c 0.414,-0.414 0.494,-0.553 0.58,-0.857 0.137,-0.469 0,-0.995 -0.332,-1.327 m -4.254,-7.068 2.291,5.055 c 1.049,-0.389 2.375,-0.057 3.203,0.771 0.803,0.803 1.135,2.127 0.776,3.149 -0.196,0.58 -0.553,1.05 -1.16,1.658 l -2.596,2.596 -7.871,-7.872 1.244,-1.242 3.422,3.424 1.492,-1.49 -2.154,-4.697 1.353,-1.352 z"
         style="fill:#231f20;fill-opacity:1;fill-rule:evenodd;stroke:none"
         id="path4305"
         inkscape:connector-curvature="0" />
    </g>
  </g>
</svg>
