<?xml version="1.0" encoding="UTF-8" standalone="no"?>
<!-- Created with Inkscape (http://www.inkscape.org/) -->

<svg
   xmlns:dc="http://purl.org/dc/elements/1.1/"
   xmlns:cc="http://creativecommons.org/ns#"
   xmlns:rdf="http://www.w3.org/1999/02/22-rdf-syntax-ns#"
   xmlns:svg="http://www.w3.org/2000/svg"
   xmlns="http://www.w3.org/2000/svg"
   xmlns:sodipodi="http://sodipodi.sourceforge.net/DTD/sodipodi-0.dtd"
   xmlns:inkscape="http://www.inkscape.org/namespaces/inkscape"
   width="152.92969"
   height="152.92969"
   id="svg5974"
   version="1.1"
   inkscape:version="0.48.3.1 r9886"
   sodipodi:docname="New document 24">
  <defs
     id="defs5976">
    <clipPath
       clipPathUnits="userSpaceOnUse"
       id="clipPath3911">
      <path
         inkscape:connector-curvature="0"
         d="m 62.625,45 513.612,0 0,693 -513.612,0 0,-693 z"
         id="path3913" />
    </clipPath>
  </defs>
  <sodipodi:namedview
     id="base"
     pagecolor="#ffffff"
     bordercolor="#666666"
     borderopacity="1.0"
     inkscape:pageopacity="0.0"
     inkscape:pageshadow="2"
     inkscape:zoom="0.35"
     inkscape:cx="76.471563"
     inkscape:cy="76.471267"
     inkscape:document-units="px"
     inkscape:current-layer="layer1"
     showgrid="false"
     fit-margin-top="0"
     fit-margin-left="0"
     fit-margin-right="0"
     fit-margin-bottom="0"
     inkscape:window-width="451"
     inkscape:window-height="415"
     inkscape:window-x="125"
     inkscape:window-y="125"
     inkscape:window-maximized="0" />
  <metadata
     id="metadata5979">
    <rdf:RDF>
      <cc:Work
         rdf:about="">
        <dc:format>image/svg+xml</dc:format>
        <dc:type
           rdf:resource="http://purl.org/dc/dcmitype/StillImage" />
        <dc:title></dc:title>
      </cc:Work>
    </rdf:RDF>
  </metadata>
  <g
     inkscape:label="Layer 1"
     inkscape:groupmode="layer"
     id="layer1"
     transform="translate(-298.52844,-455.90376)">
    <g
       transform="matrix(1.25,0,0,-1.25,-174.32625,1193.6152)"
       id="g3907">
      <g
         id="g3909"
         clip-path="url(#clipPath3911)">
        <g
           id="g3915"
           transform="translate(500.3775,475.7004)">
          <path
             inkscape:connector-curvature="0"
             d="m 0,0 c 0,-4.205 -3.409,-7.615 -7.615,-7.615 l -106.604,0 c -4.205,0 -7.614,3.41 -7.614,7.615 l 0,106.604 c 0,4.206 3.409,7.615 7.614,7.615 l 106.604,0 C -3.409,114.219 0,110.81 0,106.604 L 0,0 z"
             style="fill:#ffffff;fill-opacity:1;fill-rule:nonzero;stroke:none"
             id="path3917" />
        </g>
        <g
           id="g3919"
           transform="translate(500.3775,475.7004)">
          <path
             inkscape:connector-curvature="0"
             d="m 0,0 c 0,-4.205 -3.409,-7.615 -7.615,-7.615 l -106.604,0 c -4.205,0 -7.614,3.41 -7.614,7.615 l 0,106.604 c 0,4.206 3.409,7.615 7.614,7.615 l 106.604,0 C -3.409,114.219 0,110.81 0,106.604 L 0,0 z"
             style="fill:none;stroke:#231f20;stroke-width:0.5;stroke-linecap:butt;stroke-linejoin:miter;stroke-miterlimit:4;stroke-opacity:1;stroke-dasharray:none"
             id="path3921" />
        </g>
        <g
           id="g3923"
           transform="translate(495.3005,475.7004)">
          <path
             inkscape:connector-curvature="0"
             d="m 0,0 c 0,-1.399 -1.137,-2.539 -2.538,-2.539 l -106.604,0 c -1.399,0 -2.537,1.14 -2.537,2.539 l 0,106.604 c 0,1.4 1.138,2.538 2.537,2.538 l 106.604,0 c 1.401,0 2.538,-1.138 2.538,-2.538 L 0,0 z m -2.538,112.188 -106.604,0 c -3.078,0 -5.584,-2.505 -5.584,-5.584 l 0,-106.604 c 0,-3.079 2.506,-5.584 5.584,-5.584 l 106.604,0 c 3.08,0 5.584,2.505 5.584,5.584 l 0,106.604 c 0,3.079 -2.504,5.584 -5.584,5.584"
             style="fill:#231f20;fill-opacity:1;fill-rule:nonzero;stroke:none"
             id="path3925" />
        </g>
        <g
           id="g3927"
           transform="translate(460.6715,539.3334)">
          <path
             inkscape:connector-curvature="0"
             d="m 0,0 c -5.155,0 -9.478,3.56 -10.649,8.357 l 10.396,2.233 c 0,0 0.918,0.286 1.014,0.792 0.094,0.504 -0.367,1.176 -0.367,1.176 l -6.005,7.838 c 1.642,0.981 3.561,1.546 5.611,1.546 6.056,0 10.964,-4.913 10.964,-10.971 C 10.964,4.911 6.056,0 0,0 m -10.963,10.971 c 0,3.261 1.423,6.189 3.68,8.199 l 5.255,-6.931 -8.921,-1.842 c -0.01,0.19 -0.014,0.381 -0.014,0.574 m -6.133,-1.843 5.103,16.254 3.25,-4.287 c -2.834,-2.453 -4.629,-6.079 -4.629,-10.124 0,-0.359 0.015,-0.714 0.042,-1.065 l -3.766,-0.778 z m -1.792,1.559 -0.506,2.729 1.013,0 0,1.013 -3.194,0 0,-1.013 0.935,0 0.545,-2.3 -12.933,13.993 0.506,1.716 18.66,0 -5.026,-16.138 z m -12.571,-0.023 c 0,-6.058 -4.908,-10.971 -10.962,-10.971 -6.055,0 -10.964,4.913 -10.964,10.971 0,6.059 4.909,10.971 10.964,10.971 1.984,0 3.847,-0.528 5.453,-1.451 -0.788,-1.972 -2.112,-4.82 -3.717,-6.423 -0.499,-0.5 -1.328,-1.492 -1.848,-1.632 -1.954,-0.524 -1.4,-2.22 -1.193,-2.427 0.189,-0.19 2.28,-1.332 2.713,0.985 0,0 0.408,0.529 1.849,1.932 2.06,2.006 3.352,4.445 4.086,6.191 2.223,-2.008 3.619,-4.914 3.619,-8.146 M 0,24.351 c -2.601,0 -5.03,-0.744 -7.085,-2.032 l -4.168,5.441 0.584,2.027 c 0,0 1.559,0.39 3.234,1.559 3.817,2.69 -2.649,1.676 -4.908,1.559 -2.922,-0.155 -5.572,0 -5.572,-0.858 0,-0.896 3.584,-1.831 5.065,-1.831 l -0.35,-1.248 -18.659,0 1.596,4.99 -1.403,1.364 0.663,0.702 4.987,0 0,1.871 -5.727,0 -2.532,-2.573 1.598,-1.637 -3.464,-11.206 c -1.872,0.999 -4.01,1.566 -6.28,1.566 -7.386,0 -13.373,-5.991 -13.373,-13.381 0,-7.389 5.987,-13.38 13.373,-13.38 7.384,0 13.371,5.991 13.371,13.38 0,4.302 -2.029,8.129 -5.181,10.576 l 0.425,1.414 13.127,-14.15 c 0,0 -0.274,-0.896 0.272,-1.676 0.39,-0.546 0.857,-0.819 1.481,-0.896 l 0.662,-3.742 -0.78,0 0,-0.975 3.195,0 0,0.975 -1.013,0 -0.974,3.937 c 0.234,0.077 0.389,0.233 0.584,0.389 0.156,0.117 0.39,0.507 0.39,0.507 l 3.857,0.829 C -11.6,1.966 -6.311,-2.41 0,-2.41 c 7.385,0 13.372,5.99 13.372,13.381 0,7.389 -5.987,13.38 -13.372,13.38"
             style="fill:#231f20;fill-opacity:1;fill-rule:evenodd;stroke:none"
             id="path3929" />
        </g>
        <g
           id="g3931"
           transform="translate(405.3485,510.7284)">
          <path
             inkscape:connector-curvature="0"
             d="m 0,0 0,16.244 -2.538,0 -3.757,-9.29 -3.757,9.29 -2.537,0 0,-16.244 2.537,0 0,9.644 3.757,-9.289 3.757,9.289 L -2.538,0 0,0 z"
             style="fill:#231f20;fill-opacity:1;fill-rule:evenodd;stroke:none"
             id="path3933" />
        </g>
        <g
           id="g3935"
           transform="translate(416.8125,517.9364)">
          <path
             inkscape:connector-curvature="0"
             d="M 0,0 -3.25,0 -1.625,4.746 0,0 z m 5.176,-7.208 -5.583,16.244 -2.437,0 -5.584,-16.244 2.691,0 1.598,4.67 5.026,0 1.599,-4.67 2.69,0 z"
             style="fill:#231f20;fill-opacity:1;fill-rule:evenodd;stroke:none"
             id="path3937" />
        </g>
        <g
           id="g3939"
           transform="translate(436.7055,526.9724)">
          <path
             inkscape:connector-curvature="0"
             d="M 0,0 -2.996,0 -6.854,-6.219 -10.712,0 l -2.995,0 5.584,-9.036 0,-7.208 2.539,0 0,7.208 L 0,0 z"
             style="fill:#231f20;fill-opacity:1;fill-rule:evenodd;stroke:none"
             id="path3941" />
        </g>
        <g
           id="g3943"
           transform="translate(457.7555,515.9824)">
          <path
             inkscape:connector-curvature="0"
             d="m 0,0 0,10.99 -2.538,0 0,-10.99 c 0,-1.6 -1.295,-2.92 -2.919,-2.92 -1.599,0 -2.919,1.32 -2.919,2.92 l 0,10.99 -2.539,0 0,-10.99 c 0,-2.691 2.108,-5.457 5.458,-5.457 C -2.132,-5.457 0,-2.641 0,0"
             style="fill:#231f20;fill-opacity:1;fill-rule:evenodd;stroke:none"
             id="path3945" />
        </g>
        <g
           id="g3947"
           transform="translate(472.4735,515.5504)">
          <path
             inkscape:connector-curvature="0"
             d="m 0,0 c 0,6.269 -7.614,4.137 -7.614,7.107 0,1.014 1.041,1.979 2.387,1.979 1.75,0 2.308,-1.598 2.308,-1.598 l 2.412,0.761 c 0,0 -1.091,3.376 -4.72,3.376 -3.454,0 -4.925,-2.868 -4.925,-4.518 0,-5.406 7.614,-3.148 7.614,-7.107 0,-1.498 -1.447,-2.488 -2.792,-2.488 -2.741,0 -3.173,2.488 -3.173,2.488 0.026,0 -2.411,-0.762 -2.411,-0.762 0,0 0.913,-4.263 5.584,-4.263 C -2.309,-5.025 0,-2.564 0,0"
             style="fill:#231f20;fill-opacity:1;fill-rule:evenodd;stroke:none"
             id="path3949" />
        </g>
        <g
           id="g3951"
           transform="translate(486.1765,510.7284)">
          <path
             inkscape:connector-curvature="0"
             d="m 0,0 0,2.538 -7.36,0 0,4.67 4.797,0 0,2.538 -4.797,0 0,3.959 6.979,0 0,2.539 -9.517,0 L -9.898,0 0,0 z"
             style="fill:#231f20;fill-opacity:1;fill-rule:evenodd;stroke:none"
             id="path3953" />
        </g>
        <g
           id="g3955"
           transform="translate(399.0625,498.0364)">
          <path
             inkscape:connector-curvature="0"
             d="m 0,0 0,2.538 -9.899,0 0,-16.245 2.538,0 0,7.209 4.797,0 0,2.538 -4.797,0 0,3.96 L 0,0 z"
             style="fill:#231f20;fill-opacity:1;fill-rule:evenodd;stroke:none"
             id="path3957" />
        </g>
        <g
           id="g3959"
           transform="translate(411.7465,489.5844)">
          <path
             inkscape:connector-curvature="0"
             d="m 0,0 0,10.99 -2.538,0 0,-10.99 c 0,-1.599 -1.294,-2.919 -2.919,-2.919 -1.6,0 -2.919,1.32 -2.919,2.919 l 0,10.99 -2.538,0 0,-10.99 c 0,-2.69 2.106,-5.457 5.457,-5.457 C -2.133,-5.457 0,-2.64 0,0"
             style="fill:#231f20;fill-opacity:1;fill-rule:evenodd;stroke:none"
             id="path3961" />
        </g>
        <g
           id="g3963"
           transform="translate(423.4185,484.3294)">
          <path
             inkscape:connector-curvature="0"
             d="m 0,0 0,2.539 -7.36,0 0,13.706 -2.539,0 L -9.899,0 0,0 z"
             style="fill:#231f20;fill-opacity:1;fill-rule:evenodd;stroke:none"
             id="path3965" />
        </g>
        <g
           id="g3967"
           transform="translate(434.5805,484.3294)">
          <path
             inkscape:connector-curvature="0"
             d="m 0,0 0,2.539 -7.361,0 0,13.706 -2.538,0 L -9.899,0 0,0 z"
             style="fill:#231f20;fill-opacity:1;fill-rule:evenodd;stroke:none"
             id="path3969" />
        </g>
        <g
           id="g3971"
           transform="translate(452.0795,484.3294)">
          <path
             inkscape:connector-curvature="0"
             d="m 0,0 0,2.539 -7.362,0 0,13.706 -2.538,0 L -9.9,0 0,0 z"
             style="fill:#231f20;fill-opacity:1;fill-rule:evenodd;stroke:none"
             id="path3973" />
        </g>
        <g
           id="g3975"
           transform="translate(461.2595,491.5384)">
          <path
             inkscape:connector-curvature="0"
             d="M 0,0 -3.249,0 -1.624,4.746 0,0 z m 5.178,-7.209 -5.584,16.245 -2.437,0 -5.583,-16.245 2.69,0 1.6,4.672 5.025,0 1.599,-4.672 2.69,0 z"
             style="fill:#231f20;fill-opacity:1;fill-rule:evenodd;stroke:none"
             id="path3977" />
        </g>
        <g
           id="g3979"
           transform="translate(478.1075,484.3294)">
          <path
             inkscape:connector-curvature="0"
             d="m 0,0 0,16.245 -2.538,0 0,-10.812 -6.041,10.812 -2.335,0 0,-16.245 2.538,0 0,10.814 L -2.335,0 0,0 z"
             style="fill:#231f20;fill-opacity:1;fill-rule:evenodd;stroke:none"
             id="path3981" />
        </g>
        <g
           id="g3983"
           transform="translate(489.7815,484.3294)">
          <path
             inkscape:connector-curvature="0"
             d="m 0,0 0,2.539 -7.362,0 0,4.67 4.797,0 0,2.538 -4.797,0 0,3.96 6.98,0 0,2.538 -9.518,0 L -9.9,0 0,0 z"
             style="fill:#231f20;fill-opacity:1;fill-rule:evenodd;stroke:none"
             id="path3985" />
        </g>
      </g>
    </g>
  </g>
</svg>
