<?xml version="1.0" encoding="UTF-8" standalone="no"?>
<!-- Created with Inkscape (http://www.inkscape.org/) -->

<svg
   xmlns:dc="http://purl.org/dc/elements/1.1/"
   xmlns:cc="http://creativecommons.org/ns#"
   xmlns:rdf="http://www.w3.org/1999/02/22-rdf-syntax-ns#"
   xmlns:svg="http://www.w3.org/2000/svg"
   xmlns="http://www.w3.org/2000/svg"
   xmlns:sodipodi="http://sodipodi.sourceforge.net/DTD/sodipodi-0.dtd"
   xmlns:inkscape="http://www.inkscape.org/namespaces/inkscape"
   width="182.85156"
   height="152.5"
   id="svg5788"
   version="1.1"
   inkscape:version="0.48.3.1 r9886"
   sodipodi:docname="New document 20">
  <defs
     id="defs5790">
    <clipPath
       clipPathUnits="userSpaceOnUse"
       id="clipPath3129">
      <path
         inkscape:connector-curvature="0"
         d="m 62.625,45 513.612,0 0,693 -513.612,0 0,-693 z"
         id="path3131" />
    </clipPath>
  </defs>
  <sodipodi:namedview
     id="base"
     pagecolor="#ffffff"
     bordercolor="#666666"
     borderopacity="1.0"
     inkscape:pageopacity="0.0"
     inkscape:pageshadow="2"
     inkscape:zoom="0.35"
     inkscape:cx="91.43125"
     inkscape:cy="76.249367"
     inkscape:document-units="px"
     inkscape:current-layer="layer1"
     showgrid="false"
     fit-margin-top="0"
     fit-margin-left="0"
     fit-margin-right="0"
     fit-margin-bottom="0"
     inkscape:window-width="451"
     inkscape:window-height="415"
     inkscape:window-x="25"
     inkscape:window-y="25"
     inkscape:window-maximized="0" />
  <metadata
     id="metadata5793">
    <rdf:RDF>
      <cc:Work
         rdf:about="">
        <dc:format>image/svg+xml</dc:format>
        <dc:type
           rdf:resource="http://purl.org/dc/dcmitype/StillImage" />
        <dc:title></dc:title>
      </cc:Work>
    </rdf:RDF>
  </metadata>
  <g
     inkscape:label="Layer 1"
     inkscape:groupmode="layer"
     id="layer1"
     transform="translate(-283.56875,-456.11155)">
    <g
       transform="matrix(1.25,0,0,-1.25,109.49525,1193.4058)"
       id="g3125">
      <g
         id="g3127"
         clip-path="url(#clipPath3129)">
        <g
           id="g3133"
           transform="translate(148.5713,589.5854)">
          <path
             inkscape:connector-curvature="0"
             d="m 0,0 127.666,0 c 4.988,0 9.066,-4.08 9.066,-9.066 l 0,-103.366 c 0,-4.987 -4.078,-9.069 -9.066,-9.069 l -127.666,0 c -4.986,0 -9.067,4.082 -9.067,9.069 l 0,103.366 C -9.067,-4.08 -4.986,0 0,0 z"
             style="fill:none;stroke:#231f20;stroke-width:0.5;stroke-linecap:butt;stroke-linejoin:miter;stroke-miterlimit:4;stroke-opacity:1;stroke-dasharray:none"
             id="path3135" />
        </g>
        <g
           id="g3137"
           transform="translate(148.5713,587.0544)">
          <path
             inkscape:connector-curvature="0"
             d="m 0,0 127.666,0 c 3.596,0 6.535,-2.941 6.535,-6.535 l 0,-103.366 c 0,-3.595 -2.939,-6.538 -6.535,-6.538 l -127.666,0 c -3.595,0 -6.536,2.943 -6.536,6.538 l 0,103.366 C -6.536,-2.941 -3.595,0 0,0"
             style="fill:#231f20;fill-opacity:1;fill-rule:evenodd;stroke:none"
             id="path3139" />
        </g>
        <g
           id="g3141"
           transform="translate(148.5713,583.5104)">
          <path
             inkscape:connector-curvature="0"
             d="m 0,0 127.666,0 c 1.646,0 2.992,-1.346 2.992,-2.991 l 0,-103.366 c 0,-1.646 -1.346,-2.994 -2.992,-2.994 l -127.666,0 c -1.645,0 -2.992,1.348 -2.992,2.994 l 0,103.366 C -2.992,-1.346 -1.645,0 0,0"
             style="fill:#ffffff;fill-opacity:1;fill-rule:evenodd;stroke:none"
             id="path3143" />
        </g>
        <g
           id="g3145"
           transform="translate(237.0815,559.0984)">
          <path
             inkscape:connector-curvature="0"
             d="m 0,0 0,16.191 -2.331,0 0,-9.714 -4.429,9.714 -2.328,0 0,-16.191 2.328,0 0,10.852 L -1.762,0 0,0 z m -12.612,16.191 -2.273,0 0,-16.191 2.273,0 0,16.191 z m -5.453,-11.702 0,3.35 -4.146,0 0,-2.27 1.818,0 0,-1.08 c 0,-1.705 -0.568,-2.499 -1.762,-2.499 -1.25,0 -2.045,0.85 -2.385,2.441 -0.23,1.25 -0.343,2.671 -0.343,4.033 0,1.934 0.283,3.75 0.738,4.547 0.4,0.794 1.025,1.192 1.82,1.192 1.137,0 1.875,-0.74 1.932,-1.819 l 2.328,0 c -0.113,2.388 -1.873,4.092 -4.203,4.092 -1.877,0 -3.522,-1.25 -4.092,-2.953 -0.566,-1.535 -0.738,-3.184 -0.738,-5.454 0,-2.104 0.34,-4.375 0.853,-5.569 0.795,-1.818 2.215,-2.793 4.147,-2.793 1.648,0 2.955,0.863 3.58,2.283 0.34,0.68 0.453,1.363 0.453,2.499 M -29.54,0 l 0,2.274 -5.908,0 0,5.34 3.352,0 0,2.214 -3.352,0 0,4.09 5.283,0 0,2.273 -7.613,0 0,-16.191 8.238,0 z m -13.179,4.603 c 0,-1.422 -0.854,-2.329 -2.158,-2.329 l -2.33,0 0,5.055 2.33,0 c 1.191,0 2.158,-1.194 2.158,-2.726 m -0.283,7.385 c 0,-1.479 -0.684,-2.386 -1.762,-2.386 l -2.443,0 0,4.316 2.443,0 c 1.25,0 1.762,-0.567 1.762,-1.93 m 2.554,-7.557 c 0,1.648 -0.738,3.013 -1.988,4.033 1.309,1.364 1.703,2.045 1.703,3.524 0,2.5 -1.531,4.203 -3.689,4.203 l -5.114,0 0,-16.191 4.772,0 c 2.387,0 4.316,1.99 4.316,4.431"
             style="fill:#231f20;fill-opacity:1;fill-rule:evenodd;stroke:none"
             id="path3147" />
        </g>
        <g
           id="g3149"
           transform="translate(232.5985,517.3844)">
          <path
             inkscape:connector-curvature="0"
             d="m 0,0 0,0 -11.4,-6.617 6.306,-5.505 c 0.188,-0.171 0.323,-0.416 0.432,-0.637 0.572,-1.107 0.523,-2.436 -0.486,-3.291 -0.518,-0.443 -1.241,-0.81 -1.948,-0.759 l -31.38,2.42 13.447,28.403 c 0.23,0.485 0.543,0.861 1.006,1.118 1.111,0.638 2.564,0.425 3.425,-0.53 0.19,-0.217 0.553,-0.828 0.627,-1.155 l 2.018,-8.658 11.41,6.604 L 0,0 z"
             style="fill:#231f20;fill-opacity:1;fill-rule:evenodd;stroke:none"
             id="path3151" />
        </g>
        <g
           id="g3153"
           transform="translate(187.3755,549.1224)">
          <path
             inkscape:connector-curvature="0"
             d="m 0,0 0,2.102 -6.132,0 0,-2.102 1.986,0 0,-14.088 2.045,0 L -2.101,0 0,0 z m -7.8,-14.088 0,16.19 -2.045,0 0,-6.534 -2.897,0 0,6.534 -2.043,0 0,-16.19 2.043,0 0,7.555 2.897,0 0,-7.555 2.045,0 z m -9.448,3.692 0,4.147 -3.009,0 0,-2.103 0.965,0 0,-2.159 c 0,-1.077 -0.401,-1.76 -1.135,-1.76 -0.74,0 -1.137,0.57 -1.366,1.648 -0.169,1.361 -0.285,2.442 -0.285,4.659 0,2.215 0.116,3.293 0.34,4.601 0.174,1.079 0.686,1.59 1.42,1.59 0.57,0 0.91,-0.34 1.026,-1.023 l 2.044,0 c -0.226,1.988 -1.308,3.124 -3.125,3.124 -1.589,0 -2.554,-0.625 -3.066,-2.101 -0.568,-1.534 -0.738,-2.954 -0.738,-6.191 0,-3.298 0.17,-4.773 0.679,-6.249 0.51,-1.533 1.477,-2.17 3.125,-2.17 1.477,0 2.555,0.747 2.899,1.887 0.111,0.51 0.226,1.36 0.226,2.1 m -9.449,12.498 -2.045,0 0,-16.19 2.045,0 0,16.19 z m -6.099,-4.49 c 0,-1.533 -0.34,-2.044 -1.475,-2.044 l -1.365,0 0,4.432 1.022,0 c 1.421,0 1.818,-0.568 1.818,-2.388 m 2.103,-0.055 c 0,3.01 -1.308,4.545 -3.808,4.545 l -3.18,0 0,-16.19 2.045,0 0,7.555 0.966,0 1.819,-7.555 2.1,0 -1.645,8.066 c 1.189,0.739 1.703,1.76 1.703,3.579"
             style="fill:#231f20;fill-opacity:1;fill-rule:evenodd;stroke:none"
             id="path3155" />
        </g>
        <g
           id="g3157"
           transform="translate(229.6575,535.0244)">
          <path
             inkscape:connector-curvature="0"
             d="m 0,0 0,16.192 -2.045,0 0,-8.068 -2.895,8.068 -2.047,0 0,-16.192 2.047,0 0,9.603 L -1.76,0 0,0 z m -10.416,11.703 c 0,-1.535 -0.342,-2.045 -1.477,-2.045 l -1.365,0 0,4.432 1.025,0 c 1.418,0 1.817,-0.568 1.817,-2.387 m 2.101,-0.056 c 0,3.01 -1.306,4.545 -3.806,4.545 l -3.18,0 0,-16.192 2.043,0 0,7.558 0.967,0 1.816,-7.558 2.104,0 -1.647,8.068 c 1.192,0.738 1.703,1.76 1.703,3.579 m -9.281,-7.668 0,12.213 -2.047,0 0,-12.498 c 0,-1.195 -0.51,-1.875 -1.418,-1.875 -0.967,0 -1.478,0.68 -1.478,1.875 l 0,12.498 -2.043,0 0,-12.213 c 0,-0.968 0.113,-1.535 0.283,-2.047 0.568,-1.477 1.59,-2.225 3.238,-2.225 1.418,0 2.328,0.522 2.951,1.712 0.342,0.625 0.514,1.423 0.514,2.56 m -8.09,10.111 0,2.102 -6.135,0 0,-2.102 1.989,0 0,-14.09 2.045,0 0,14.09 2.101,0 z"
             style="fill:#231f20;fill-opacity:1;fill-rule:evenodd;stroke:none"
             id="path3159" />
        </g>
        <g
           id="g3161"
           transform="translate(275.1985,534.9134)">
          <path
             inkscape:connector-curvature="0"
             d="m 0,0 0,2.1 -4.149,0 0,5.683 2.614,0 0,2.157 -2.614,0 0,4.148 3.922,0 0,2.101 -5.965,0 L -6.192,0 0,0 z m -9.094,0 0,16.189 -2.047,0 0,-8.065 -2.898,8.065 -2.045,0 0,-16.189 2.045,0 0,9.599 3.183,-9.599 1.762,0 z m -12.164,6.419 -1.762,0 0.908,4.259 0.854,-4.259 z M -17.739,0 l -3.347,16.189 -2.104,0 L -26.485,0 l 2.102,0 0.91,4.316 2.672,0 0.906,-4.316 2.156,0 z m -9.148,0 0,1.875 -4.148,0 0,14.314 -2.043,0 0,-16.189 6.191,0 z"
             style="fill:#231f20;fill-opacity:1;fill-rule:evenodd;stroke:none"
             id="path3163" />
        </g>
        <g
           id="g3165"
           transform="translate(193.1725,489.8494)">
          <path
             inkscape:connector-curvature="0"
             d="M 0,0 C 0,-1.42 -0.113,-3.24 -0.172,-3.805 -0.398,-4.999 -0.797,-5.51 -1.533,-5.51 l -1.306,0 0,11.984 1.306,0 c 0.85,0 1.194,-0.566 1.361,-2.329 C -0.113,3.01 0,1.194 0,0 m 2.102,0.51 c 0,1.364 -0.115,2.84 -0.342,4.149 -0.113,1.02 -0.453,2.1 -0.853,2.725 -0.51,0.795 -1.305,1.194 -2.44,1.194 l -3.355,0 0,-16.192 3.355,0 c 0.908,0 1.701,0.285 2.158,0.795 0.965,1.08 1.477,3.524 1.477,7.329 m -9.205,-8.124 0,1.875 -4.145,0 0,14.317 -2.045,0 0,-16.192 6.19,0 z m -8.748,0 0,2.104 -4.145,0 0,5.68 2.612,0 0,2.159 -2.612,0 0,4.145 3.92,0 0,2.104 -5.965,0 0,-16.192 6.19,0 z m -9.713,16.192 -2.045,0 0,-16.192 2.045,0 0,16.192 z m -4.26,0 -2.215,0 -2.101,-5.683 -2.158,5.683 -2.215,0 3.295,-8.863 0,-7.329 2.099,0 0,7.329 3.295,8.863 z"
             style="fill:#231f20;fill-opacity:1;fill-rule:evenodd;stroke:none"
             id="path3167" />
        </g>
        <g
           id="g3169"
           transform="translate(217.2915,490.3594)">
          <path
             inkscape:connector-curvature="0"
             d="m 0,0 c 0,-1.08 0.229,-6.305 -1.591,-6.305 -1.873,0 -1.649,5.225 -1.649,6.305 0,1.135 -0.224,6.193 1.649,6.193 C -0.056,6.193 0,1.309 0,0 m 2.159,0 c 0,2.729 0.226,8.294 -3.75,8.294 -3.977,0 -3.748,-5.51 -3.748,-8.294 0,-2.67 -0.286,-8.417 3.748,-8.417 3.976,0 3.75,5.747 3.75,8.417 m -9.317,5.964 0,2.104 -6.134,0 0,-2.104 1.988,0 0,-14.088 2.045,0 0,14.088 2.101,0 z"
             style="fill:#231f20;fill-opacity:1;fill-rule:evenodd;stroke:none"
             id="path3171" />
        </g>
        <g
           id="g3173"
           transform="translate(270.1455,485.7004)">
          <path
             inkscape:connector-curvature="0"
             d="m 0,0 c 0,1.139 -0.34,2.499 -0.795,3.524 -0.512,1.02 -0.795,1.42 -2.557,3.409 -0.853,0.91 -1.138,1.476 -1.138,2.215 0,1.08 0.457,1.76 1.25,1.76 0.74,0 1.082,-0.51 1.138,-1.76 l 2.102,0 c -0.229,2.555 -1.307,3.805 -3.295,3.805 -1.932,0 -3.293,-1.59 -3.293,-3.805 0,-1.135 0.397,-2.274 1.305,-3.354 0.168,-0.225 0.681,-0.85 1.418,-1.7 1.25,-1.48 1.763,-2.67 1.763,-4.094 0,-1.021 -0.513,-1.646 -1.306,-1.646 -0.625,0 -1.137,0.396 -1.307,1.021 -0.115,0.344 -0.17,0.57 -0.17,1.194 l -2.101,0 c 0.113,-2.839 1.306,-4.327 3.578,-4.327 0.853,0 1.59,0.293 2.101,0.748 C -0.512,-2.33 0,-1.135 0,0 m -8.58,-3.465 0,2.104 -4.145,0 0,5.68 2.614,0 0,2.159 -2.614,0 0,4.145 3.922,0 0,2.104 -5.965,0 0,-16.192 6.188,0 z m -8.748,0 -2.895,10.624 2.67,5.568 -2.384,0 -2.559,-5.169 0,5.169 -2.047,0 0,-16.192 2.047,0 0,6.079 0.797,1.59 2.156,-7.669 2.215,0 z m -10.734,16.192 -2.043,0 0,-16.192 2.043,0 0,16.192 z M -34.709,0.795 c 0,-1.645 -0.283,-2.156 -1.248,-2.156 l -1.592,0 0,5.395 1.535,0 c 1.022,0 1.305,-0.68 1.305,-3.239 m -0.283,7.614 c 0,-1.705 -0.229,-2.215 -1.139,-2.215 l -1.418,0 0,4.429 1.194,0 c 1.023,0 1.363,-0.625 1.363,-2.214 m 2.387,-7.44 c 0,1.02 -0.116,2.1 -0.342,2.725 -0.114,0.625 -0.283,0.85 -0.739,1.42 0.569,0.854 0.795,1.704 0.795,3.295 0,3.239 -0.908,4.318 -3.748,4.318 l -2.957,0 0,-16.192 3.866,0 c 2.044,0 3.125,1.535 3.125,4.434"
             style="fill:#231f20;fill-opacity:1;fill-rule:evenodd;stroke:none"
             id="path3175" />
        </g>
      </g>
    </g>
  </g>
</svg>
