<?xml version="1.0" encoding="UTF-8" standalone="no"?>
<!-- Created with Inkscape (http://www.inkscape.org/) -->

<svg
   xmlns:dc="http://purl.org/dc/elements/1.1/"
   xmlns:cc="http://creativecommons.org/ns#"
   xmlns:rdf="http://www.w3.org/1999/02/22-rdf-syntax-ns#"
   xmlns:svg="http://www.w3.org/2000/svg"
   xmlns="http://www.w3.org/2000/svg"
   xmlns:sodipodi="http://sodipodi.sourceforge.net/DTD/sodipodi-0.dtd"
   xmlns:inkscape="http://www.inkscape.org/namespaces/inkscape"
   width="61.367188"
   height="91.757812"
   id="svg5879"
   version="1.1"
   inkscape:version="0.48.3.1 r9886"
   sodipodi:docname="New document 22">
  <defs
     id="defs5881">
    <clipPath
       clipPathUnits="userSpaceOnUse"
       id="clipPath3185">
      <path
         inkscape:connector-curvature="0"
         d="m 62.625,45 513.612,0 0,693 -513.612,0 0,-693 z"
         id="path3187" />
    </clipPath>
  </defs>
  <sodipodi:namedview
     id="base"
     pagecolor="#ffffff"
     bordercolor="#666666"
     borderopacity="1.0"
     inkscape:pageopacity="0.0"
     inkscape:pageshadow="2"
     inkscape:zoom="0.35"
     inkscape:cx="30.677812"
     inkscape:cy="45.875017"
     inkscape:document-units="px"
     inkscape:current-layer="layer1"
     showgrid="false"
     fit-margin-top="0"
     fit-margin-left="0"
     fit-margin-right="0"
     fit-margin-bottom="0"
     inkscape:window-width="451"
     inkscape:window-height="415"
     inkscape:window-x="75"
     inkscape:window-y="75"
     inkscape:window-maximized="0" />
  <metadata
     id="metadata5884">
    <rdf:RDF>
      <cc:Work
         rdf:about="">
        <dc:format>image/svg+xml</dc:format>
        <dc:type
           rdf:resource="http://purl.org/dc/dcmitype/StillImage" />
        <dc:title></dc:title>
      </cc:Work>
    </rdf:RDF>
  </metadata>
  <g
     inkscape:label="Layer 1"
     inkscape:groupmode="layer"
     id="layer1"
     transform="translate(-344.32219,-486.47939)">
    <g
       transform="matrix(1.25,0,0,-1.25,-39.905625,1163.0302)"
       id="g3181">
      <g
         id="g3183"
         clip-path="url(#clipPath3185)">
        <g
           id="g3189"
           transform="translate(310.6635,468.0844)">
          <path
             inkscape:connector-curvature="0"
             d="m 0,0 42.52,0 c 0.805,0 1.584,0.317 2.154,0.887 0.569,0.568 0.887,1.347 0.887,2.15 l 0,66.823 c 0,0.803 -0.318,1.584 -0.887,2.151 -0.57,0.57 -1.349,0.889 -2.154,0.889 L 0,72.9 c -0.804,0 -1.584,-0.319 -2.15,-0.889 -0.571,-0.567 -0.889,-1.348 -0.889,-2.151 l 0,-66.823 C -3.039,1.993 -2.491,1.01 -1.61,0.451 -1.111,0.13 -0.58,0.057 0,0"
             style="fill:#ffffff;fill-opacity:1;fill-rule:nonzero;stroke:none"
             id="path3191" />
        </g>
        <g
           id="g3193"
           transform="translate(310.6635,468.0844)">
          <path
             inkscape:connector-curvature="0"
             d="m 0,0 42.52,0 c 0.805,0 1.584,0.317 2.154,0.887 0.569,0.568 0.887,1.347 0.887,2.15 l 0,66.823 c 0,0.803 -0.318,1.584 -0.887,2.151 -0.57,0.57 -1.349,0.889 -2.154,0.889 L 0,72.9 c -0.804,0 -1.584,-0.319 -2.15,-0.889 -0.571,-0.567 -0.889,-1.348 -0.889,-2.151 l 0,-66.823 C -3.039,1.993 -2.491,1.01 -1.61,0.451 -1.111,0.13 -0.58,0.057 0,0 z"
             style="fill:none;stroke:#231f20;stroke-width:0.5;stroke-linecap:butt;stroke-linejoin:miter;stroke-miterlimit:4;stroke-opacity:1;stroke-dasharray:none"
             id="path3195" />
        </g>
        <g
           id="g3197"
           transform="translate(308.4745,471.1234)">
          <path
             inkscape:connector-curvature="0"
             d="m 0,0 0,66.822 c 0,0.574 0.234,1.144 0.639,1.55 0.407,0.405 0.976,0.639 1.55,0.639 l 42.522,0 c 0.572,0 1.145,-0.234 1.549,-0.639 0.406,-0.406 0.641,-0.976 0.641,-1.55 L 46.901,0 c 0,-0.575 -0.235,-1.145 -0.641,-1.551 -0.404,-0.404 -0.977,-0.639 -1.549,-0.639 l -42.522,0 c -0.574,0 -1.143,0.235 -1.55,0.639 C 0.234,-1.145 0,-0.575 0,0"
             style="fill:#231f20;fill-opacity:1;fill-rule:evenodd;stroke:none"
             id="path3199" />
        </g>
        <g
           id="g3201"
           transform="translate(309.6655,471.1214)">
          <path
             inkscape:connector-curvature="0"
             d="M 0,0 C 0,-0.266 0.102,-0.516 0.291,-0.705 0.48,-0.895 0.73,-0.996 0.998,-0.996 l 42.522,0 c 0.268,0 0.52,0.101 0.707,0.291 0.19,0.189 0.291,0.439 0.291,0.705 l 0,66.823 c 0,0.268 -0.101,0.519 -0.291,0.707 -0.187,0.189 -0.439,0.291 -0.707,0.291 l -42.522,0 C 0.73,67.821 0.48,67.719 0.291,67.53 0.102,67.342 0,67.091 0,66.823 L 0,0 z"
             style="fill:#ffffff;fill-opacity:1;fill-rule:evenodd;stroke:none"
             id="path3203" />
        </g>
        <g
           id="g3205"
           transform="translate(345.7515,514.3934)">
          <path
             inkscape:connector-curvature="0"
             d="m 0,0 0,-7.104 c 0,-1.876 -0.236,-3.747 -0.691,-5.567 -0.607,-2.415 -1.572,-4.744 -2.879,-6.865 -0.791,-1.29 -1.709,-2.497 -2.553,-3.754 -0.464,-0.696 -0.875,-1.426 -1.226,-2.185 -0.924,-1.999 -1.428,-4.171 -1.428,-6.373 l 0,-5.456 -8.777,0 0,5.456 c 0,3.87 0.851,7.748 2.601,11.208 0.467,0.921 1.02,1.8 1.653,2.616 0.441,0.57 0.894,1.133 1.357,1.687 0.594,0.715 1.158,1.425 1.574,2.26 1.092,2.192 1.487,4.67 1.5,7.101 l 0.032,6.946 -5.122,-1.678 c -0.16,-0.053 -0.324,-0.083 -0.49,-0.087 -0.648,-0.016 -1.228,0.248 -1.595,0.793 -0.356,0.527 -0.375,1.216 -0.106,1.783 0.078,0.163 0.201,0.29 0.305,0.436 L -4.511,17.586 7.043,1.191 C 7.135,1.063 7.395,0.737 7.456,0.522 7.51,0.343 7.536,0.158 7.532,-0.03 7.522,-0.884 6.932,-1.624 6.086,-1.798 5.762,-1.865 5.432,-1.811 5.124,-1.708 L 0,0 z"
             style="fill:#231f20;fill-opacity:1;fill-rule:evenodd;stroke:none"
             id="path3207" />
        </g>
        <g
           id="g3209"
           transform="translate(328.1215,526.4644)">
          <path
             inkscape:connector-curvature="0"
             d="m 0,0 c -0.041,-1.743 -0.082,-3.487 -0.198,-5.226 -0.189,-2.844 -0.574,-5.677 -1.164,-8.464 -0.429,-2.035 -0.972,-4.045 -1.543,-6.044 -0.486,-1.701 -1.066,-3.382 -1.822,-4.984 -0.123,-0.26 -0.266,-0.511 -0.428,-0.749 -0.519,-0.761 -1.125,-1.298 -1.988,-1.645 -1.084,-0.434 -2.325,-0.418 -3.403,0.034 -1.121,0.471 -1.916,1.365 -2.375,2.481 -0.412,0.996 -0.781,2.012 -1.105,3.04 -0.461,1.466 -0.879,2.945 -1.251,4.436 -0.982,3.933 -1.781,7.918 -2.074,11.967 -0.125,1.715 -0.166,3.436 -0.204,5.154 L 0,0 z"
             style="fill:#231f20;fill-opacity:1;fill-rule:evenodd;stroke:none"
             id="path3211" />
        </g>
      </g>
    </g>
  </g>
</svg>
