<?xml version="1.0" encoding="UTF-8" standalone="no"?>
<!-- Created with Inkscape (http://www.inkscape.org/) -->

<svg
   xmlns:dc="http://purl.org/dc/elements/1.1/"
   xmlns:cc="http://creativecommons.org/ns#"
   xmlns:rdf="http://www.w3.org/1999/02/22-rdf-syntax-ns#"
   xmlns:svg="http://www.w3.org/2000/svg"
   xmlns="http://www.w3.org/2000/svg"
   xmlns:sodipodi="http://sodipodi.sourceforge.net/DTD/sodipodi-0.dtd"
   xmlns:inkscape="http://www.inkscape.org/namespaces/inkscape"
   width="61.375751"
   height="152.71219"
   id="svg6297"
   version="1.1"
   inkscape:version="0.48.3.1 r9886"
   sodipodi:docname="New document 28">
  <defs
     id="defs6299">
    <clipPath
       clipPathUnits="userSpaceOnUse"
       id="clipPath3481">
      <path
         inkscape:connector-curvature="0"
         d="m 62.625,45 513.612,0 0,693 -513.612,0 0,-693 z"
         id="path3483" />
    </clipPath>
    <clipPath
       clipPathUnits="userSpaceOnUse"
       id="clipPath3521">
      <path
         inkscape:connector-curvature="0"
         d="m 62.625,45 513.612,0 0,693 -513.612,0 0,-693 z"
         id="path3523" />
    </clipPath>
    <clipPath
       clipPathUnits="userSpaceOnUse"
       id="clipPath3509">
      <path
         inkscape:connector-curvature="0"
         d="m 67.313,116.89 504.236,0 0,621.11 -504.236,0 0,-621.11 z"
         id="path3511" />
    </clipPath>
    <clipPath
       clipPathUnits="userSpaceOnUse"
       id="clipPath3481-4">
      <path
         inkscape:connector-curvature="0"
         d="m 62.625,45 513.612,0 0,693 -513.612,0 0,-693 z"
         id="path3483-0" />
    </clipPath>
    <clipPath
       clipPathUnits="userSpaceOnUse"
       id="clipPath3469">
      <path
         inkscape:connector-curvature="0"
         d="m 67.313,116.89 504.236,0 0,621.11 -504.236,0 0,-621.11 z"
         id="path3471" />
    </clipPath>
    <clipPath
       clipPathUnits="userSpaceOnUse"
       id="clipPath3457">
      <path
         inkscape:connector-curvature="0"
         d="m 62.625,45 513.612,0 0,693 -513.612,0 0,-693 z"
         id="path3459" />
    </clipPath>
  </defs>
  <sodipodi:namedview
     id="base"
     pagecolor="#ffffff"
     bordercolor="#666666"
     borderopacity="1.0"
     inkscape:pageopacity="0.0"
     inkscape:pageshadow="2"
     inkscape:zoom="0.35"
     inkscape:cx="45.686005"
     inkscape:cy="173.49505"
     inkscape:document-units="px"
     inkscape:current-layer="layer1"
     showgrid="false"
     fit-margin-top="0"
     fit-margin-left="0"
     fit-margin-right="0"
     fit-margin-bottom="0"
     inkscape:window-width="451"
     inkscape:window-height="415"
     inkscape:window-x="25"
     inkscape:window-y="25"
     inkscape:window-maximized="0" />
  <metadata
     id="metadata6302">
    <rdf:RDF>
      <cc:Work
         rdf:about="">
        <dc:format>image/svg+xml</dc:format>
        <dc:type
           rdf:resource="http://purl.org/dc/dcmitype/StillImage" />
        <dc:title></dc:title>
      </cc:Work>
    </rdf:RDF>
  </metadata>
  <g
     inkscape:label="Layer 1"
     inkscape:groupmode="layer"
     id="layer1"
     transform="translate(-329.31399,-438.85933)">
    <g
       transform="matrix(1.25,0,0,-1.25,245.11237,993.34733)"
       id="g3453">
      <g
         id="g3455"
         clip-path="url(#clipPath3457)">
        <g
           id="g3461"
           transform="translate(74.1113,443.3404)">
          <path
             inkscape:connector-curvature="0"
             d="m 0,0 35.624,0 c 3.548,0 6.463,-2.916 6.463,-6.488 l 0,-59.899 c 0,-3.572 -2.915,-6.488 -6.463,-6.488 l -35.624,0 c -3.572,0 -6.488,2.916 -6.488,6.488 l 0,59.899 C -6.488,-2.916 -3.572,0 0,0"
             style="fill:#ffffff;fill-opacity:1;fill-rule:evenodd;stroke:none"
             id="path3463" />
        </g>
      </g>
    </g>
    <g
       transform="matrix(1.25,0,0,-1.25,245.11237,993.34733)"
       id="g3465">
      <g
         id="g3467"
         clip-path="url(#clipPath3469)">
        <g
           id="g3473"
           transform="translate(74.1113,443.3404)">
          <path
             inkscape:connector-curvature="0"
             d="m 0,0 35.624,0 c 3.548,0 6.463,-2.916 6.463,-6.488 l 0,-59.899 c 0,-3.572 -2.915,-6.488 -6.463,-6.488 l -35.624,0 c -3.572,0 -6.488,2.916 -6.488,6.488 l 0,59.899 C -6.488,-2.916 -3.572,0 0,0 z"
             style="fill:none;stroke:#231f20;stroke-width:0.5;stroke-linecap:butt;stroke-linejoin:miter;stroke-miterlimit:4;stroke-opacity:1;stroke-dasharray:none"
             id="path3475" />
        </g>
      </g>
    </g>
    <g
       transform="matrix(1.25,0,0,-1.25,245.11237,993.34733)"
       id="g3477">
      <g
         id="g3479"
         clip-path="url(#clipPath3481-4)">
        <g
           id="g3485"
           transform="translate(74.4756,441.7114)">
          <path
             inkscape:connector-curvature="0"
             d="m 0,0 34.871,0 c 2.892,0 5.249,-2.356 5.249,-5.225 l 0,-59.168 c 0,-2.892 -2.357,-5.224 -5.249,-5.224 l -34.871,0 c -2.867,0 -5.225,2.332 -5.225,5.224 l 0,59.168 C -5.225,-2.356 -2.867,0 0,0"
             style="fill:#bf2519;fill-opacity:1;fill-rule:evenodd;stroke:none"
             id="path3487" />
        </g>
        <g
           id="g3489"
           transform="translate(102.0811,388.2294)">
          <path
             inkscape:connector-curvature="0"
             d="m 0,0 -1.482,0 -1.604,-3.5 -1.652,3.5 -1.459,0 2.381,-5.299 0,-4.398 1.41,0 0,4.398 L 0,0 z m -8.506,-5.688 -0.728,2.795 -0.68,-2.795 1.408,0 z m 2.406,-4.009 -1.384,0 -0.682,2.649 -2.064,0 -0.657,-2.649 -1.384,0 L -9.866,0 -8.506,0 -6.1,-9.697 z M -12.854,0 l -1.556,-9.697 -1.215,0 -0.9,5.078 -0.922,-5.078 -1.24,0 -1.531,9.697 1.361,0 0.826,-5.178 0.947,5.178 1.094,0 0.924,-5.178 0.85,5.178 1.362,0 z"
             style="fill:#ffffff;fill-opacity:1;fill-rule:evenodd;stroke:none"
             id="path3491" />
        </g>
        <g
           id="g3493"
           transform="translate(97.4639,417.6084)">
          <path
             inkscape:connector-curvature="0"
             d="M 0,0 4.689,0.777 1.725,4.616 C 0.193,3.279 0,1.675 0,0 m -1.313,-0.292 c 0,0.17 -0.023,0.436 -0.023,0.631 0,1.92 0.608,3.767 2.283,5.297 l -1.724,2.09 -2.723,-8.237 2.187,0.219 z m -10.328,8.213 c 0.049,-0.048 6.489,-7.339 6.489,-7.339 l -0.073,0.899 -0.34,0 0,0.462 1.263,0 0.025,-0.511 -0.291,0 0.121,-0.802 2.551,7.752 -9.598,0 -0.147,-0.461 z M -15.893,0.46 c 0,-0.412 -0.291,-0.752 -0.705,-0.752 -0.413,0 -0.728,0.34 -0.728,0.729 0,0.412 0.292,0.729 0.705,0.752 1.676,1.338 2.211,2.236 2.769,3.961 -0.826,0.486 -1.822,0.754 -2.795,0.754 -3.06,0 -5.563,-2.504 -5.563,-5.565 0,-3.062 2.503,-5.564 5.563,-5.564 3.063,0 5.567,2.502 5.567,5.564 0,1.555 -0.657,3.037 -1.799,4.082 -0.729,-1.943 -1.725,-2.94 -3.014,-3.961 M 0.193,-1.192 c 0.633,-2.333 2.868,-4.033 5.347,-4.033 3.062,0 5.565,2.502 5.565,5.564 0,3.061 -2.503,5.565 -5.565,5.565 -0.972,0 -2.114,-0.219 -2.94,-0.705 l 3.013,-4.01 c 0.389,-0.023 0.705,-0.34 0.705,-0.752 0,-0.389 -0.34,-0.729 -0.729,-0.729 -0.122,0 -0.243,0.024 -0.341,0.073 L 0.193,-1.192 z m -13.656,7.629 1.969,5.443 -0.632,1.071 1.264,1.359 2.672,0 0.049,-0.777 -2.357,0 -0.486,-0.51 0.559,-0.996 -0.704,-2.454 9.622,0 0.146,0.437 c -0.778,0.122 -2.114,0.583 -2.43,0.874 -0.317,0.268 -0.049,0.51 0.316,0.535 1.919,0.073 4.739,0.243 5.273,0.243 0.534,0 0.583,-0.268 0.219,-0.657 C 1.677,10.619 1.361,10.253 0,10.035 L -0.365,9.038 1.896,6.218 c 1.092,0.658 2.38,0.997 3.644,0.997 3.791,0 6.877,-3.086 6.877,-6.876 0,-3.792 -3.086,-6.877 -6.877,-6.877 -3.11,0 -5.856,2.163 -6.658,5.127 l -2.09,-0.388 c -0.097,-0.242 -0.315,-0.438 -0.558,-0.584 l 0.388,-1.774 0.462,0 0.049,-0.461 -1.507,-0.074 0,0.51 0.364,0 -0.461,1.775 c -0.681,0.098 -1.021,0.68 -0.826,1.263 l -6.829,7.728 -0.292,-0.827 c 1.652,-1.311 2.648,-3.328 2.648,-5.418 0,-3.792 -3.085,-6.877 -6.877,-6.877 -3.79,0 -6.875,3.085 -6.875,6.877 0,3.79 3.085,6.876 6.875,6.876 1.094,0 2.237,-0.267 3.184,-0.778"
             style="fill:#ffffff;fill-opacity:1;fill-rule:evenodd;stroke:none"
             id="path3495" />
        </g>
        <g
           id="g3497"
           transform="translate(109.9053,395.7604)">
          <path
             inkscape:connector-curvature="0"
             d="M 0,0 C 0,-0.631 -0.098,-1.116 -0.268,-1.505 -0.68,-2.43 -1.41,-2.867 -2.43,-2.867 c -1.142,0 -1.968,0.559 -2.478,1.654 -0.341,0.777 -0.511,1.895 -0.511,3.352 0,1.313 0.146,2.406 0.437,3.281 0.389,1.168 1.215,1.773 2.455,1.773 0.705,0 1.312,-0.242 1.773,-0.703 C -0.268,6.052 -0.024,5.444 0,4.74 l -1.41,0 C -1.434,5.444 -1.822,5.809 -2.551,5.809 -3.037,5.809 -3.402,5.565 -3.67,5.08 -3.961,4.594 -4.082,3.695 -4.082,2.383 c 0,-0.899 0.048,-1.701 0.194,-2.43 0.195,-0.973 0.656,-1.458 1.434,-1.458 0.704,0 1.044,0.485 1.044,1.505 l 0,0.633 -1.068,0 0,1.361 L 0,1.994 0,0 z m -7.363,-2.697 -1.045,0 -3.013,6.513 0,-6.513 -1.386,0 0,9.72 1.386,0 2.673,-5.831 0,5.831 1.385,0 0,-9.72 z m -8.723,4.861 c 0,0.996 -0.098,1.799 -0.316,2.43 -0.243,0.826 -0.632,1.215 -1.192,1.215 -0.558,0 -0.971,-0.389 -1.189,-1.19 -0.219,-0.656 -0.317,-1.483 -0.317,-2.48 0,-0.922 0.098,-1.749 0.317,-2.454 0.218,-0.801 0.631,-1.19 1.189,-1.19 0.584,0 0.973,0.389 1.192,1.19 0.218,0.68 0.316,1.507 0.316,2.479 m 1.336,0 c 0,-1.386 -0.195,-2.504 -0.559,-3.377 -0.462,-1.095 -1.214,-1.654 -2.285,-1.654 -1.068,0 -1.822,0.559 -2.283,1.654 -0.365,0.873 -0.559,1.991 -0.559,3.377 0,1.409 0.194,2.551 0.559,3.377 0.461,1.094 1.238,1.652 2.283,1.652 1.071,0 1.823,-0.558 2.285,-1.677 0.364,-0.874 0.559,-1.992 0.559,-3.352 m -8.505,2.26 c 0,0.826 -0.413,1.215 -1.264,1.215 l -1.433,0 0,-2.455 1.433,0 c 0.851,0 1.264,0.414 1.264,1.24 m 1.36,-7.121 -1.433,0 -1.287,4.57 -1.337,0 0,-4.57 -1.386,0 0,9.72 2.892,0 c 0.778,0 1.385,-0.242 1.846,-0.704 0.462,-0.462 0.705,-1.095 0.705,-1.895 0,-1.216 -0.46,-1.992 -1.384,-2.358 l 1.384,-4.763 z m -6.779,9.72 -1.58,-9.72 -1.189,0 -0.924,5.08 -0.9,-5.08 -1.239,0 -1.531,9.72 1.361,0 0.826,-5.199 0.948,5.199 1.093,0 0.924,-5.199 0.85,5.199 1.361,0 z"
             style="fill:#ffffff;fill-opacity:1;fill-rule:evenodd;stroke:none"
             id="path3499" />
        </g>
        <g
           id="g3501"
           transform="translate(74.0869,370.2644)">
          <path
             inkscape:connector-curvature="0"
             d="m 0,0 35.648,0 c 3.547,0 6.463,-2.916 6.463,-6.465 l 0,-35.672 c 0,-3.572 -2.916,-6.463 -6.463,-6.463 L 0,-48.6 c -3.572,0 -6.465,2.891 -6.465,6.463 l 0,35.672 C -6.465,-2.916 -3.572,0 0,0"
             style="fill:#ffffff;fill-opacity:1;fill-rule:evenodd;stroke:none"
             id="path3503" />
        </g>
      </g>
    </g>
    <g
       transform="matrix(1.25,0,0,-1.25,245.11237,993.34733)"
       id="g3505">
      <g
         id="g3507"
         clip-path="url(#clipPath3509)">
        <g
           id="g3513"
           transform="translate(74.0869,370.2644)">
          <path
             inkscape:connector-curvature="0"
             d="m 0,0 35.648,0 c 3.547,0 6.463,-2.916 6.463,-6.465 l 0,-35.672 c 0,-3.572 -2.916,-6.463 -6.463,-6.463 L 0,-48.6 c -3.572,0 -6.465,2.891 -6.465,6.463 l 0,35.672 C -6.465,-2.916 -3.572,0 0,0 z"
             style="fill:none;stroke:#231f20;stroke-width:0.5;stroke-linecap:butt;stroke-linejoin:miter;stroke-miterlimit:4;stroke-opacity:1;stroke-dasharray:none"
             id="path3515" />
        </g>
      </g>
    </g>
    <g
       transform="matrix(1.25,0,0,-1.25,245.11237,993.34733)"
       id="g3517">
      <g
         id="g3519"
         clip-path="url(#clipPath3521)">
        <g
           id="g3525"
           transform="translate(74.8154,368.6354)">
          <path
             inkscape:connector-curvature="0"
             d="m 0,0 34.166,0 c 3.086,0 5.589,-2.502 5.589,-5.588 l 0,-34.19 c 0,-3.063 -2.503,-5.589 -5.589,-5.589 l -34.166,0 c -3.063,0 -5.59,2.526 -5.59,5.589 l 0,34.19 C -5.59,-2.502 -3.063,0 0,0"
             style="fill:#231f20;fill-opacity:1;fill-rule:evenodd;stroke:none"
             id="path3527" />
        </g>
        <g
           id="g3529"
           transform="translate(75.5693,366.2054)">
          <path
             inkscape:connector-curvature="0"
             d="m 0,0 32.684,0 c 2.137,0 3.886,-1.749 3.886,-3.888 l 0,-32.708 c 0,-2.138 -1.749,-3.912 -3.886,-3.912 l -32.684,0 c -2.163,0 -3.912,1.774 -3.912,3.912 l 0,32.708 C -3.912,-1.749 -2.163,0 0,0"
             style="fill:#ffffff;fill-opacity:1;fill-rule:evenodd;stroke:none"
             id="path3531" />
        </g>
        <g
           id="g3533"
           transform="translate(101.4971,354.0074)">
          <path
             inkscape:connector-curvature="0"
             d="m 0,0 -4.107,0 0,8.116 3.791,0 0,-1.142 -2.649,0 0,-2.041 1.677,0 0,-1.118 -1.677,0 0,-2.673 L 0,1.142 0,0 z m -6.853,4.009 c 0,1.02 -0.073,1.75 -0.219,2.138 -0.219,0.559 -0.534,0.827 -1.02,0.827 l -0.972,0 0,-5.832 0.972,0 c 0.632,0 0.996,0.388 1.143,1.166 0.072,0.51 0.096,1.093 0.096,1.701 m 1.142,0.074 C -5.711,2.235 -6.1,0.997 -6.877,0.389 -7.168,0.145 -7.533,0 -7.994,0 l -2.236,0 0,8.116 2.064,0 c 0.608,0 1.021,-0.122 1.289,-0.315 0.486,-0.366 0.826,-0.974 0.972,-1.798 0.122,-0.633 0.194,-1.289 0.194,-1.92 M -12.004,0 l -1.143,0 0,8.116 1.143,0 0,-8.116 z m -3.646,5.954 c 0,0.68 -0.364,1.02 -1.044,1.02 l -1.215,0 0,-2.041 1.215,0 c 0.68,0 1.044,0.34 1.044,1.021 M -14.508,0 l -1.215,0 -1.068,3.815 -1.118,0 0,-3.815 -1.142,0 0,8.116 2.406,0 c 0.631,0 1.166,-0.194 1.554,-0.584 0.39,-0.388 0.583,-0.924 0.583,-1.578 0,-1.021 -0.388,-1.654 -1.166,-1.969 L -14.508,0 z"
             style="fill:#231f20;fill-opacity:1;fill-rule:evenodd;stroke:none"
             id="path3535" />
        </g>
        <g
           id="g3537"
           transform="translate(101.5693,341.8814)">
          <path
             inkscape:connector-curvature="0"
             d="m 0,0 -1.166,0 0,3.67 -2.211,0 0,-3.67 -1.166,0 0,8.092 1.166,0 0,-3.281 2.211,0 0,3.281 L 0,8.092 0,0 z m -5.662,7.022 -1.457,0 0,-7.022 -1.143,0 0,7.022 -1.482,0 0,1.07 4.082,0 0,-1.07 z M -10.91,0 l -1.117,0 0,8.092 1.117,0 0,-8.092 z M -13.146,8.092 -14.459,0 -15.454,0 -16.232,4.228 -16.984,0 l -1.022,0 -1.288,8.092 1.142,0 0.681,-4.326 0.801,4.326 0.9,0 0.778,-4.326 0.704,4.326 1.142,0 z"
             style="fill:#231f20;fill-opacity:1;fill-rule:evenodd;stroke:none"
             id="path3539" />
        </g>
        <g
           id="g3541"
           transform="translate(109.248,335.7334)">
          <path
             inkscape:connector-curvature="0"
             d="m 0,0 -1.166,0 c -0.098,0.753 -0.413,1.142 -0.972,1.142 -0.462,0 -0.802,-0.194 -0.996,-0.607 -0.17,-0.414 -0.267,-1.166 -0.267,-2.211 0,-2.188 0.461,-3.281 1.384,-3.281 0.56,0 0.851,0.388 0.851,1.166 l 1.166,0 c -0.023,-0.68 -0.219,-1.239 -0.606,-1.653 -0.366,-0.435 -0.851,-0.654 -1.411,-0.654 -1.676,0 -2.501,1.457 -2.501,4.373 0,2.673 0.8,4.01 2.404,4.01 0.681,0 1.216,-0.268 1.604,-0.826 C -0.242,1.119 -0.072,0.631 0,0 m -6.172,-5.954 -1.118,0 0,8.092 1.118,0 0,-8.092 z m -2.261,6.975 -2.963,0 0,-2.064 1.628,0 0,-1.095 -1.628,0 0,-3.816 -1.167,0 0,8.092 4.13,0 0,-1.117 z m -5.271,0 -2.916,0 0,-2.064 1.603,0 0,-1.095 -1.603,0 0,-3.816 -1.167,0 0,8.092 4.083,0 0,-1.117 z m -7.219,-3.621 -0.582,2.332 -0.584,-2.332 1.166,0 z m 2.018,-3.354 -1.166,0 -0.559,2.212 -1.724,0 -0.537,-2.212 -1.166,0 2.017,8.092 1.117,0 2.018,-8.092 z M -25.952,0 c 0,0.68 -0.34,1.021 -1.045,1.021 l -1.191,0 0,-2.064 1.191,0 c 0.705,0 1.045,0.339 1.045,1.043 m 1.142,-5.954 -1.191,0 -1.068,3.816 -1.119,0 0,-3.816 -1.165,0 0,8.092 2.429,0 c 0.632,0 1.142,-0.193 1.532,-0.582 0.387,-0.389 0.582,-0.899 0.582,-1.556 0,-1.02 -0.388,-1.676 -1.165,-1.968 l 1.165,-3.986 z m -5.637,7.024 -1.483,0 0,-7.024 -1.166,0 0,7.024 -1.483,0 0,1.068 4.132,0 0,-1.068 z"
             style="fill:#231f20;fill-opacity:1;fill-rule:evenodd;stroke:none"
             id="path3543" />
        </g>
      </g>
    </g>
  </g>
</svg>
