<?xml version="1.0" encoding="UTF-8" standalone="no"?>
<!-- Created with Inkscape (http://www.inkscape.org/) -->

<svg
   xmlns:dc="http://purl.org/dc/elements/1.1/"
   xmlns:cc="http://creativecommons.org/ns#"
   xmlns:rdf="http://www.w3.org/1999/02/22-rdf-syntax-ns#"
   xmlns:svg="http://www.w3.org/2000/svg"
   xmlns="http://www.w3.org/2000/svg"
   xmlns:sodipodi="http://sodipodi.sourceforge.net/DTD/sodipodi-0.dtd"
   xmlns:inkscape="http://www.inkscape.org/namespaces/inkscape"
   width="61.367188"
   height="91.757812"
   id="svg7256"
   version="1.1"
   inkscape:version="0.48.3.1 r9886"
   sodipodi:docname="New document 45">
  <defs
     id="defs7258">
    <clipPath
       clipPathUnits="userSpaceOnUse"
       id="clipPath3665">
      <path
         inkscape:connector-curvature="0"
         d="m 62.625,45 513.612,0 0,693 -513.612,0 0,-693 z"
         id="path3667" />
    </clipPath>
    <clipPath
       clipPathUnits="userSpaceOnUse"
       id="clipPath3653">
      <path
         inkscape:connector-curvature="0"
         d="m 67.313,116.89 504.236,0 0,621.11 -504.236,0 0,-621.11 z"
         id="path3655" />
    </clipPath>
    <clipPath
       clipPathUnits="userSpaceOnUse"
       id="clipPath3641">
      <path
         inkscape:connector-curvature="0"
         d="m 62.625,45 513.612,0 0,693 -513.612,0 0,-693 z"
         id="path3643" />
    </clipPath>
  </defs>
  <sodipodi:namedview
     id="base"
     pagecolor="#ffffff"
     bordercolor="#666666"
     borderopacity="1.0"
     inkscape:pageopacity="0.0"
     inkscape:pageshadow="2"
     inkscape:zoom="0.35"
     inkscape:cx="30.671875"
     inkscape:cy="45.88281"
     inkscape:document-units="px"
     inkscape:current-layer="layer1"
     showgrid="false"
     fit-margin-top="0"
     fit-margin-left="0"
     fit-margin-right="0"
     fit-margin-bottom="0"
     inkscape:window-width="451"
     inkscape:window-height="415"
     inkscape:window-x="25"
     inkscape:window-y="25"
     inkscape:window-maximized="0" />
  <metadata
     id="metadata7261">
    <rdf:RDF>
      <cc:Work
         rdf:about="">
        <dc:format>image/svg+xml</dc:format>
        <dc:type
           rdf:resource="http://purl.org/dc/dcmitype/StillImage" />
        <dc:title></dc:title>
      </cc:Work>
    </rdf:RDF>
  </metadata>
  <g
     inkscape:label="Layer 1"
     inkscape:groupmode="layer"
     id="layer1"
     transform="translate(-344.32812,-486.48718)">
    <g
       transform="matrix(1.25,0,0,-1.25,260.09725,875.70768)"
       id="g3637">
      <g
         id="g3639"
         clip-path="url(#clipPath3641)">
        <g
           id="g3645"
           transform="translate(73.6972,311.1264)">
          <path
             inkscape:connector-curvature="0"
             d="m 0,0 36.45,0 c 3.346,0 6.075,-2.728 6.075,-6.076 l 0,-60.75 c 0,-3.346 -2.729,-6.074 -6.075,-6.074 L 0,-72.9 c -3.346,0 -6.075,2.728 -6.075,6.074 l 0,60.75 C -6.075,-2.771 -3.305,0 0,0"
             style="fill:#ffffff;fill-opacity:1;fill-rule:nonzero;stroke:none"
             id="path3647" />
        </g>
      </g>
    </g>
    <g
       transform="matrix(1.25,0,0,-1.25,260.09725,875.70768)"
       id="g3649">
      <g
         id="g3651"
         clip-path="url(#clipPath3653)">
        <g
           id="g3657"
           transform="translate(73.6972,311.1264)">
          <path
             inkscape:connector-curvature="0"
             d="m 0,0 36.45,0 c 3.346,0 6.075,-2.728 6.075,-6.076 l 0,-60.75 c 0,-3.346 -2.729,-6.074 -6.075,-6.074 L 0,-72.9 c -3.346,0 -6.075,2.728 -6.075,6.074 l 0,60.75 C -6.075,-2.771 -3.305,0 0,0"
             style="fill:none;stroke:#231f20;stroke-width:0.5;stroke-linecap:butt;stroke-linejoin:miter;stroke-miterlimit:4;stroke-opacity:1;stroke-dasharray:none"
             id="path3659" />
        </g>
      </g>
    </g>
    <g
       transform="matrix(1.25,0,0,-1.25,260.09725,875.70768)"
       id="g3661">
      <g
         id="g3663"
         clip-path="url(#clipPath3665)">
        <g
           id="g3669"
           transform="translate(73.7168,309.6074)">
          <path
             inkscape:connector-curvature="0"
             d="m 0,0 36.411,0 c 2.51,-0.01 4.56,-2.071 4.576,-4.575 l 0,-60.713 c -0.016,-2.505 -2.066,-4.562 -4.576,-4.576 l -36.411,0 c -2.504,0.014 -4.567,2.071 -4.575,4.576 l 0,60.713 C -4.567,-2.071 -2.504,-0.01 0,0"
             style="fill:#231f20;fill-opacity:1;fill-rule:evenodd;stroke:none"
             id="path3671" />
        </g>
        <g
           id="g3673"
           transform="translate(73.7393,307.8334)">
          <path
             inkscape:connector-curvature="0"
             d="m 0,0 36.366,0 c 1.564,-0.008 2.816,-1.262 2.824,-2.824 l 0,-60.666 c -0.008,-1.557 -1.26,-2.826 -2.824,-2.824 l -36.366,0 c -1.563,-0.002 -2.816,1.267 -2.824,2.824 l 0,60.666 C -2.816,-1.262 -1.563,-0.01 0,0"
             style="fill:#ffffff;fill-opacity:1;fill-rule:evenodd;stroke:none"
             id="path3675" />
        </g>
        <g
           id="g3677"
           transform="translate(99.9482,270.6304)">
          <path
             inkscape:connector-curvature="0"
             d="m 0,0 0,1.137 -2.952,0 0,2.67 1.675,0 0,1.107 -1.675,0 0,2.045 2.641,0 0,1.137 -3.805,0 L -4.116,0 0,0 z m -5.602,2.215 c 0,1.166 -0.681,2.047 -2.243,2.955 -0.596,0.34 -0.766,0.568 -0.766,0.965 0,0.541 0.426,0.937 0.965,0.937 0.511,0 0.909,-0.369 0.937,-0.937 l 1.107,0 c -0.028,1.222 -0.909,2.103 -2.044,2.103 -1.165,0 -2.073,-0.937 -2.073,-2.103 0,-0.709 0.341,-1.334 0.994,-1.789 1.647,-1.108 1.193,-0.795 1.363,-0.965 0.482,-0.369 0.653,-0.711 0.653,-1.166 0,-0.653 -0.511,-1.221 -1.136,-1.221 -0.795,0 -1.135,0.711 -1.135,1.393 l -1.136,0 c 0,-1.336 0.851,-2.533 2.271,-2.533 1.249,0 2.243,1.054 2.243,2.361 m -5.971,0.199 0,5.682 -1.164,0 0,-5.825 c 0,-0.765 -0.454,-1.277 -1.079,-1.277 -0.682,0 -1.136,0.512 -1.136,1.277 l 0,5.825 -1.164,0 0,-5.682 c 0,-0.652 0.085,-0.994 0.312,-1.42 0.398,-0.682 1.193,-1.14 1.988,-1.14 0.766,0 1.533,0.486 1.93,1.14 0.227,0.426 0.313,0.768 0.313,1.42"
             style="fill:#231f20;fill-opacity:1;fill-rule:evenodd;stroke:none"
             id="path3679" />
        </g>
        <g
           id="g3681"
           transform="translate(98.9307,262.4854)">
          <path
             inkscape:connector-curvature="0"
             d="M 0,0 C 0,-0.625 -0.057,-1.193 -0.114,-1.705 -0.228,-2.33 -0.597,-2.869 -1.278,-2.869 l -0.965,0 0,5.823 0.965,0 c 0.511,0 0.852,-0.254 1.05,-0.823 C -0.085,1.79 0,0.909 0,0 M 1.136,0.057 C 1.136,0.682 1.051,1.391 0.937,1.989 0.795,2.813 0.454,3.438 -0.028,3.778 -0.312,4.004 -0.653,4.09 -1.335,4.09 l -2.072,0 0,-8.095 2.243,0 c 0.454,0 0.852,0.115 1.136,0.369 0.795,0.625 1.164,1.818 1.164,3.693 m -6.161,-4.062 0,1.136 -2.953,0 0,2.67 1.675,0 0,1.108 -1.675,0 0,2.045 2.64,0 0,1.136 -3.804,0 0,-8.095 4.117,0 z m -6.616,5.824 c 0,-0.74 -0.369,-1.166 -1.049,-1.166 l -1.193,0 0,2.301 1.193,0 c 0.624,0 1.049,-0.454 1.049,-1.135 m 1.136,0 c 0,1.363 -0.851,2.271 -2.129,2.271 l -2.413,0 0,-8.095 1.164,0 0,3.55 1.249,0 c 1.363,0 2.129,0.795 2.129,2.274"
             style="fill:#231f20;fill-opacity:1;fill-rule:evenodd;stroke:none"
             id="path3683" />
        </g>
        <g
           id="g3685"
           transform="translate(108.0049,246.3314)">
          <path
             inkscape:connector-curvature="0"
             d="m 0,0 0,1.078 -2.953,0 0,7.016 -1.164,0 L -4.117,0 0,0 z m -7.55,3.352 -1.164,0 0.568,2.328 0.596,-2.328 z M -5.534,0 -7.55,8.094 l -1.135,0 -2.016,-8.094 1.164,0 0.54,2.215 1.731,0 L -6.698,0 -5.534,0 z m -6.584,0 0,8.094 -1.164,0 0,-4.858 -2.214,4.858 -1.164,0 0,-8.094 1.164,0 0,5.424 2.499,-5.424 0.879,0 z m -6.443,2.244 0,1.674 -2.072,0 0,-1.135 0.908,0 0,-0.539 c 0,-0.853 -0.283,-1.25 -0.879,-1.25 -0.625,0 -1.023,0.426 -1.193,1.221 -0.113,0.625 -0.17,1.334 -0.17,2.016 0,0.966 0.142,1.875 0.369,2.273 0.199,0.397 0.511,0.596 0.909,0.596 0.567,0 0.936,-0.369 0.964,-0.908 l 1.164,0 c -0.056,1.193 -0.936,2.044 -2.1,2.044 -0.937,0 -1.761,-0.625 -2.044,-1.476 -0.284,-0.768 -0.369,-1.592 -0.369,-2.727 0,-1.05 0.17,-2.187 0.426,-2.783 0.397,-0.91 1.107,-1.398 2.072,-1.398 0.823,0 1.476,0.431 1.789,1.142 0.17,0.34 0.226,0.682 0.226,1.25 m -6.441,5.85 -1.136,0 0,-8.094 1.136,0 0,8.094 z M -27.81,2.215 c 0,1.164 -0.681,2.045 -2.243,2.953 -0.595,0.342 -0.766,0.568 -0.766,0.967 0,0.539 0.425,0.937 0.966,0.937 0.51,0 0.908,-0.369 0.936,-0.937 l 1.107,0 c -0.028,1.221 -0.908,2.101 -2.043,2.101 -1.165,0 -2.074,-0.937 -2.074,-2.101 0,-0.711 0.341,-1.336 0.994,-1.791 1.647,-1.108 1.193,-0.795 1.363,-0.965 0.483,-0.369 0.653,-0.709 0.653,-1.164 0,-0.652 -0.511,-1.221 -1.136,-1.221 -0.795,0 -1.135,0.709 -1.135,1.391 l -1.136,0 c 0,-1.334 0.851,-2.533 2.271,-2.533 1.249,0 2.243,1.056 2.243,2.363"
             style="fill:#231f20;fill-opacity:1;fill-rule:evenodd;stroke:none"
             id="path3687" />
        </g>
        <g
           id="g3689"
           transform="translate(97.5488,290.4504)">
          <path
             inkscape:connector-curvature="0"
             d="M 0,0 4.757,0.776 1.759,4.67 C 0.205,3.317 0.011,1.69 0,0 m -1.309,-0.285 c -0.007,0.168 -0.035,0.44 -0.035,0.629 0,1.93 0.624,3.801 2.316,5.357 l -1.763,2.11 -2.726,-8.32 2.208,0.224 z m -10.467,8.281 0.15,0.463 9.714,0.012 -2.583,-7.832 -0.112,0.816 0.297,0 -0.038,0.52 -1.299,0 0.037,-0.483 0.335,0 0.073,-0.89 c 0,0 -6.537,7.357 -6.574,7.394 m -4.302,-7.525 c 1.305,1.035 2.319,2.023 3.052,4 1.155,-1.049 1.814,-2.564 1.814,-4.127 0,-3.098 -2.527,-5.625 -5.625,-5.625 -3.098,0 -5.626,2.527 -5.626,5.625 0,3.1 2.528,5.627 5.626,5.627 0.988,0 1.999,-0.285 2.815,-0.766 -0.552,-1.744 -1.088,-2.642 -2.787,-4.009 -0.412,-0.018 -0.725,-0.35 -0.725,-0.745 0,-0.408 0.334,-0.742 0.743,-0.742 0.409,0 0.713,0.334 0.713,0.762 M 0.199,-1.195 c 0.636,-2.371 2.9,-4.086 5.405,-4.086 3.099,0 5.626,2.527 5.626,5.625 0,3.1 -2.527,5.627 -5.626,5.627 -0.99,0 -2.133,-0.232 -2.968,-0.721 L 5.689,1.196 C 6.063,1.19 6.388,0.856 6.388,0.451 c 0,-0.408 -0.333,-0.742 -0.742,-0.742 -0.114,0 -0.233,0.03 -0.333,0.076 l -5.114,-0.98 z m -13.82,7.701 1.993,5.498 -0.632,1.078 1.263,1.375 2.712,0 0.038,-0.781 -2.378,0 -0.483,-0.519 0.557,-1.004 -0.7,-2.483 9.731,0 0.149,0.453 c -0.782,0.104 -2.131,0.584 -2.453,0.866 -0.323,0.279 -0.04,0.537 0.327,0.548 1.921,0.082 4.773,0.243 5.316,0.245 0.542,0.003 0.598,-0.27 0.235,-0.666 C 1.69,10.719 1.374,10.362 -0.001,10.147 L -0.373,9.145 1.931,6.291 c 1.085,0.659 2.398,1.002 3.673,1.002 3.827,0 6.948,-3.121 6.948,-6.949 0,-3.826 -3.121,-6.947 -6.948,-6.947 -3.148,0 -5.916,2.172 -6.73,5.172 L -3.241,-1.81 c -0.091,-0.25 -0.302,-0.442 -0.555,-0.592 l 0.378,-1.789 0.482,0 0.038,-0.483 -1.523,-0.074 0,0.52 0.371,0 -0.46,1.789 c -0.684,0.111 -1.043,0.697 -0.84,1.279 l -6.912,7.819 -0.309,-0.838 c 1.677,-1.323 2.681,-3.358 2.681,-5.477 0,-3.826 -3.121,-6.947 -6.947,-6.947 -3.827,0 -6.948,3.121 -6.948,6.947 0,3.828 3.121,6.949 6.948,6.949 1.112,0 2.252,-0.271 3.216,-0.787"
             style="fill:#231f20;fill-opacity:1;fill-rule:evenodd;stroke:none"
             id="path3691" />
        </g>
      </g>
    </g>
  </g>
</svg>
