<?xml version="1.0" encoding="UTF-8" standalone="no"?>
<!-- Created with Inkscape (http://www.inkscape.org/) -->

<svg
   xmlns:dc="http://purl.org/dc/elements/1.1/"
   xmlns:cc="http://creativecommons.org/ns#"
   xmlns:rdf="http://www.w3.org/1999/02/22-rdf-syntax-ns#"
   xmlns:svg="http://www.w3.org/2000/svg"
   xmlns="http://www.w3.org/2000/svg"
   xmlns:sodipodi="http://sodipodi.sourceforge.net/DTD/sodipodi-0.dtd"
   xmlns:inkscape="http://www.inkscape.org/namespaces/inkscape"
   width="90.631218"
   height="90.628113"
   id="svg5844"
   version="1.1"
   inkscape:version="0.48.2 r9819"
   sodipodi:docname="New document 12">
  <defs
     id="defs5846" />
  <sodipodi:namedview
     id="base"
     pagecolor="#ffffff"
     bordercolor="#666666"
     borderopacity="1.0"
     inkscape:pageopacity="0.0"
     inkscape:pageshadow="2"
     inkscape:zoom="0.35"
     inkscape:cx="48.877976"
     inkscape:cy="-63.24362"
     inkscape:document-units="px"
     inkscape:current-layer="layer1"
     showgrid="false"
     fit-margin-top="0"
     fit-margin-left="0"
     fit-margin-right="0"
     fit-margin-bottom="0"
     inkscape:window-width="469"
     inkscape:window-height="425"
     inkscape:window-x="1461"
     inkscape:window-y="111"
     inkscape:window-maximized="0" />
  <metadata
     id="metadata5849">
    <rdf:RDF>
      <cc:Work
         rdf:about="">
        <dc:format>image/svg+xml</dc:format>
        <dc:type
           rdf:resource="http://purl.org/dc/dcmitype/StillImage" />
        <dc:title></dc:title>
      </cc:Work>
    </rdf:RDF>
  </metadata>
  <g
     inkscape:label="Layer 1"
     inkscape:groupmode="layer"
     id="layer1"
     transform="translate(-326.12203,-378.49046)">
    <g
       id="g4153"
       transform="matrix(1.25,0,0,-1.25,415.2267,420.87638)">
      <path
         d="m 0,0 -32.706,32.707 c -1.283,1.282 -3.381,1.282 -4.664,0 L -70.077,0 c -1.282,-1.282 -1.282,-3.38 0,-4.664 L -37.37,-37.37 c 1.283,-1.282 3.381,-1.282 4.664,0 L 0,-4.664 C 1.282,-3.38 1.282,-1.282 0,0"
         style="fill:#fccf34;fill-opacity:1;fill-rule:nonzero;stroke:none"
         id="path4155"
         inkscape:connector-curvature="0" />
    </g>
    <g
       id="g4157"
       transform="matrix(1.25,0,0,-1.25,415.2267,420.87638)">
      <path
         d="m 0,0 -32.706,32.707 c -1.283,1.282 -3.381,1.282 -4.664,0 L -70.077,0 c -1.282,-1.282 -1.282,-3.38 0,-4.664 L -37.37,-37.37 c 1.283,-1.282 3.381,-1.282 4.664,0 L 0,-4.664 C 1.282,-3.38 1.282,-1.282 0,0 z"
         style="fill:none;stroke:#231f20;stroke-width:0.5;stroke-linecap:butt;stroke-linejoin:miter;stroke-miterlimit:4;stroke-opacity:1;stroke-dasharray:none"
         id="path4159"
         inkscape:connector-curvature="0" />
    </g>
    <g
       id="g4169"
       transform="matrix(1.25,0,0,-1.25,414.4492,421.65451)">
      <path
         d="m 0,0 -32.707,32.706 c -0.94,0.94 -2.478,0.94 -3.418,0 L -68.832,0 c -0.939,-0.94 -0.939,-2.478 0,-3.418 l 32.707,-32.707 c 0.94,-0.94 2.478,-0.94 3.418,0 L 0,-3.418 C 0.939,-2.478 0.939,-0.94 0,0"
         style="fill:#231f20;fill-opacity:1;fill-rule:evenodd;stroke:none"
         id="path4171"
         inkscape:connector-curvature="0" />
    </g>
    <g
       id="g4173"
       transform="matrix(1.25,0,0,-1.25,413.2797,422.822)">
      <path
         d="m 0,0 -32.706,32.706 c -0.426,0.426 -1.123,0.426 -1.549,0 L -66.962,0 c -0.426,-0.426 -0.426,-1.124 0,-1.549 l 32.707,-32.706 c 0.426,-0.427 1.123,-0.427 1.549,0 L 0,-1.549 C 0.427,-1.124 0.427,-0.426 0,0"
         style="fill:#fccf34;fill-opacity:1;fill-rule:evenodd;stroke:none"
         id="path4175"
         inkscape:connector-curvature="0" />
    </g>
    <g
       id="g4177"
       transform="matrix(1.25,0,0,-1.25,389.24657,417.90263)">
      <path
         d="m 0,0 0.013,-21.693 -7.718,0 -0.002,18.521 c 0,1.18 -1.011,1.925 -1.925,1.925 l -11.854,-0.046 1.437,-4.334 c 0.125,-0.228 0.18,-0.499 0.203,-0.761 0.076,-0.846 -0.689,-1.535 -1.534,-1.535 -0.396,0 -0.786,0.162 -1.067,0.431 l -13.234,10.147 13.234,9.775 c 0.281,0.27 0.671,0.431 1.067,0.431 0.845,0 1.647,-0.745 1.534,-1.534 -0.037,-0.261 -0.077,-0.533 -0.203,-0.761 L -21.486,6.38 -6.438,6.388 C -2.892,6.388 0,3.496 0,-0.049 L 0,0 z"
         style="fill:#231f20;fill-opacity:1;fill-rule:evenodd;stroke:none"
         id="path4179"
         inkscape:connector-curvature="0" />
    </g>
  </g>
</svg>
