<?xml version="1.0" encoding="UTF-8" standalone="no"?>
<!-- Created with Inkscape (http://www.inkscape.org/) -->

<svg
   xmlns:dc="http://purl.org/dc/elements/1.1/"
   xmlns:cc="http://creativecommons.org/ns#"
   xmlns:rdf="http://www.w3.org/1999/02/22-rdf-syntax-ns#"
   xmlns:svg="http://www.w3.org/2000/svg"
   xmlns="http://www.w3.org/2000/svg"
   xmlns:sodipodi="http://sodipodi.sourceforge.net/DTD/sodipodi-0.dtd"
   xmlns:inkscape="http://www.inkscape.org/namespaces/inkscape"
   width="90.712265"
   height="90.628166"
   id="svg5966"
   version="1.1"
   inkscape:version="0.48.2 r9819"
   sodipodi:docname="New document 16">
  <defs
     id="defs5968">
    <clipPath
       clipPathUnits="userSpaceOnUse"
       id="clipPath4221">
      <path
         inkscape:connector-curvature="0"
         d="m 63.125,37.195 512.875,0 0,702.805 -512.875,0 0,-702.805 z"
         id="path4223" />
    </clipPath>
  </defs>
  <sodipodi:namedview
     id="base"
     pagecolor="#ffffff"
     bordercolor="#666666"
     borderopacity="1.0"
     inkscape:pageopacity="0.0"
     inkscape:pageshadow="2"
     inkscape:zoom="0.35"
     inkscape:cx="111.77472"
     inkscape:cy="-0.38587012"
     inkscape:document-units="px"
     inkscape:current-layer="layer1"
     showgrid="false"
     fit-margin-top="0"
     fit-margin-left="0"
     fit-margin-right="0"
     fit-margin-bottom="0"
     inkscape:window-width="469"
     inkscape:window-height="425"
     inkscape:window-x="1441"
     inkscape:window-y="75"
     inkscape:window-maximized="0" />
  <metadata
     id="metadata5971">
    <rdf:RDF>
      <cc:Work
         rdf:about="">
        <dc:format>image/svg+xml</dc:format>
        <dc:type
           rdf:resource="http://purl.org/dc/dcmitype/StillImage" />
        <dc:title></dc:title>
      </cc:Work>
    </rdf:RDF>
  </metadata>
  <g
     inkscape:label="Layer 1"
     inkscape:groupmode="layer"
     id="layer1"
     transform="translate(-263.22528,-441.34815)">
    <g
       transform="matrix(1.25,0,0,-1.25,-37.688228,1318.6275)"
       id="g4217">
      <g
         id="g4219"
         clip-path="url(#clipPath4221)">
        <g
           id="g4225"
           transform="translate(312.0786,667.9147)">
          <path
             inkscape:connector-curvature="0"
             d="m 0,0 -32.769,32.707 c -1.284,1.282 -3.382,1.282 -4.663,0 L -70.141,0 c -1.284,-1.282 -1.284,-3.38 0,-4.664 l 32.709,-32.705 c 1.281,-1.282 3.379,-1.282 4.663,0 L 0,-4.664 C 1.283,-3.38 1.283,-1.282 0,0"
             style="fill:#fccf34;fill-opacity:1;fill-rule:nonzero;stroke:none"
             id="path4227" />
        </g>
        <g
           id="g4229"
           transform="translate(312.0786,667.9147)">
          <path
             inkscape:connector-curvature="0"
             d="m 0,0 -32.769,32.707 c -1.284,1.282 -3.382,1.282 -4.663,0 L -70.141,0 c -1.284,-1.282 -1.284,-3.38 0,-4.664 l 32.709,-32.705 c 1.281,-1.282 3.379,-1.282 4.663,0 L 0,-4.664 C 1.283,-3.38 1.283,-1.282 0,0 z"
             style="fill:none;stroke:#231f20;stroke-width:0.5;stroke-linecap:butt;stroke-linejoin:miter;stroke-miterlimit:4;stroke-opacity:1;stroke-dasharray:none"
             id="path4231" />
        </g>
        <g
           id="g4233"
           transform="translate(311.4576,667.2922)">
          <path
             inkscape:connector-curvature="0"
             d="m 0,0 -32.771,32.707 c -0.94,0.939 -2.477,0.939 -3.419,0 L -68.897,0 c -0.94,-0.94 -0.94,-2.478 0,-3.418 l 32.707,-32.707 c 0.942,-0.94 2.479,-0.94 3.419,0 L 0,-3.418 C 0.94,-2.478 0.94,-0.94 0,0"
             style="fill:#231f20;fill-opacity:1;fill-rule:evenodd;stroke:none"
             id="path4235" />
        </g>
        <g
           id="g4237"
           transform="translate(310.5226,666.3582)">
          <path
             inkscape:connector-curvature="0"
             d="m 0,0 -32.77,32.706 c -0.426,0.426 -1.124,0.426 -1.549,0 L -67.028,0 c -0.426,-0.426 -0.426,-1.124 0,-1.549 l 32.709,-32.707 c 0.425,-0.426 1.123,-0.426 1.549,0 L 0,-1.549 C 0.425,-1.124 0.425,-0.426 0,0"
             style="fill:#fccf34;fill-opacity:1;fill-rule:evenodd;stroke:none"
             id="path4239" />
        </g>
        <g
           id="g4241"
           transform="translate(283.5516,658.761)">
          <path
             inkscape:connector-curvature="0"
             d="M 0,0 0.012,-11.438 7.711,-11.44 7.703,4.156 c 0,2.863 -2.387,5.214 -5.264,5.214 l -9.776,0 c -1.029,0 -1.869,0.84 -1.869,1.869 l 0.004,6.271 4.12,-1.228 c 0.568,-0.159 0.99,-0.225 1.429,0.073 0.627,0.427 0.791,1.288 0.364,1.916 l -9.645,14.259 -9.661,-14.259 c -0.427,-0.628 -0.263,-1.489 0.364,-1.916 0.42,-0.286 0.855,-0.234 1.373,-0.103 l 4.187,1.258 0.004,-10.426 0.002,0.022 c 0,-2.862 2.311,-5.213 5.174,-5.235 L -1.873,1.869 C -0.844,1.869 0,1.029 0,0"
             style="fill:#231f20;fill-opacity:1;fill-rule:evenodd;stroke:none"
             id="path4243" />
        </g>
      </g>
    </g>
  </g>
</svg>
