<?xml version="1.0" encoding="UTF-8" standalone="no"?>
<!-- Created with Inkscape (http://www.inkscape.org/) -->

<svg
   xmlns:dc="http://purl.org/dc/elements/1.1/"
   xmlns:cc="http://creativecommons.org/ns#"
   xmlns:rdf="http://www.w3.org/1999/02/22-rdf-syntax-ns#"
   xmlns:svg="http://www.w3.org/2000/svg"
   xmlns="http://www.w3.org/2000/svg"
   xmlns:sodipodi="http://sodipodi.sourceforge.net/DTD/sodipodi-0.dtd"
   xmlns:inkscape="http://www.inkscape.org/namespaces/inkscape"
   width="90.630249"
   height="90.628014"
   id="svg6031"
   version="1.1"
   inkscape:version="0.48.2 r9819"
   sodipodi:docname="New document 18">
  <defs
     id="defs6033">
    <clipPath
       clipPathUnits="userSpaceOnUse"
       id="clipPath4253">
      <path
         inkscape:connector-curvature="0"
         d="m 63.125,37.195 512.875,0 0,702.805 -512.875,0 0,-702.805 z"
         id="path4255" />
    </clipPath>
  </defs>
  <sodipodi:namedview
     id="base"
     pagecolor="#ffffff"
     bordercolor="#666666"
     borderopacity="1.0"
     inkscape:pageopacity="0.0"
     inkscape:pageshadow="2"
     inkscape:zoom="0.35"
     inkscape:cx="43.162597"
     inkscape:cy="-83.243445"
     inkscape:document-units="px"
     inkscape:current-layer="layer1"
     showgrid="false"
     fit-margin-top="0"
     fit-margin-left="0"
     fit-margin-right="0"
     fit-margin-bottom="0"
     inkscape:window-width="469"
     inkscape:window-height="425"
     inkscape:window-x="1491"
     inkscape:window-y="125"
     inkscape:window-maximized="0" />
  <metadata
     id="metadata6036">
    <rdf:RDF>
      <cc:Work
         rdf:about="">
        <dc:format>image/svg+xml</dc:format>
        <dc:type
           rdf:resource="http://purl.org/dc/dcmitype/StillImage" />
        <dc:title></dc:title>
      </cc:Work>
    </rdf:RDF>
  </metadata>
  <g
     inkscape:label="Layer 1"
     inkscape:groupmode="layer"
     id="layer1"
     transform="translate(-331.8374,-358.49072)">
    <g
       transform="matrix(1.25,0,0,-1.25,-77.461174,1235.7743)"
       id="g4249">
      <g
         id="g4251"
         clip-path="url(#clipPath4253)">
        <g
           id="g4257"
           transform="translate(398.7226,667.9182)">
          <path
             inkscape:connector-curvature="0"
             d="m 0,0 -32.707,32.707 c -1.284,1.282 -3.381,1.282 -4.664,0 L -70.078,0 c -1.282,-1.282 -1.282,-3.38 0,-4.664 l 32.707,-32.705 c 1.283,-1.283 3.38,-1.283 4.664,0 L 0,-4.664 C 1.281,-3.38 1.281,-1.282 0,0"
             style="fill:#fccf34;fill-opacity:1;fill-rule:nonzero;stroke:none"
             id="path4259" />
        </g>
        <g
           id="g4261"
           transform="translate(398.7226,667.9182)">
          <path
             inkscape:connector-curvature="0"
             d="m 0,0 -32.707,32.707 c -1.284,1.282 -3.381,1.282 -4.664,0 L -70.078,0 c -1.282,-1.282 -1.282,-3.38 0,-4.664 l 32.707,-32.705 c 1.283,-1.283 3.38,-1.283 4.664,0 L 0,-4.664 C 1.281,-3.38 1.281,-1.282 0,0 z"
             style="fill:none;stroke:#231f20;stroke-width:0.5;stroke-linecap:butt;stroke-linejoin:miter;stroke-miterlimit:4;stroke-opacity:1;stroke-dasharray:none"
             id="path4263" />
        </g>
        <g
           id="g4265"
           transform="translate(398.0996,667.2957)">
          <path
             inkscape:connector-curvature="0"
             d="m 0,0 -32.707,32.706 c -0.94,0.94 -2.479,0.94 -3.418,0 L -68.832,0 c -0.94,-0.94 -0.94,-2.478 0,-3.418 l 32.707,-32.707 c 0.939,-0.94 2.478,-0.94 3.418,0 L 0,-3.418 C 0.939,-2.478 0.939,-0.94 0,0"
             style="fill:#231f20;fill-opacity:1;fill-rule:evenodd;stroke:none"
             id="path4267" />
        </g>
        <g
           id="g4269"
           transform="translate(397.1636,666.3616)">
          <path
             inkscape:connector-curvature="0"
             d="m 0,0 -32.705,32.706 c -0.426,0.426 -1.123,0.426 -1.551,0 L -66.961,0 c -0.426,-0.426 -0.426,-1.124 0,-1.549 l 32.705,-32.707 c 0.428,-0.425 1.125,-0.425 1.551,0 L 0,-1.549 C 0.428,-1.124 0.428,-0.426 0,0"
             style="fill:#fccf34;fill-opacity:1;fill-rule:evenodd;stroke:none"
             id="path4271" />
        </g>
        <g
           id="g4273"
           transform="translate(353.5736,674.8713)">
          <path
             inkscape:connector-curvature="0"
             d="M 0,0 0,-1.242 C 0,-4.557 1.555,-7.83 4.207,-9.839 l 10.354,-7.841 c 0.832,-0.63 1.328,-1.593 1.328,-2.635 l 0,-7.587 7.629,0 0,7.587 c 0,1.989 -0.539,3.973 -1.586,5.666 -0.645,1.048 -1.455,2.035 -2.44,2.782 l -10.533,7.99 c -0.5,0.38 -0.912,0.88 -1.136,1.471 C 7.678,-2.027 7.6,-1.619 7.6,-1.211 l 0,1.329 5.051,-1.454 c 0.08,-0.021 0.16,-0.03 0.238,-0.041 0.357,-0.048 0.701,0.048 0.998,0.252 0.318,0.221 0.543,0.561 0.613,0.94 0.078,0.418 0.002,0.81 -0.242,1.152 L 3.817,15.645 -5.689,0.933 C -5.842,0.697 -5.933,0.399 -5.931,0.118 c 0,-0.717 0.535,-1.341 1.228,-1.487 0.254,-0.054 0.498,-0.015 0.738,0.064 L 0,0 z"
             style="fill:#231f20;fill-opacity:1;fill-rule:evenodd;stroke:none"
             id="path4275" />
        </g>
      </g>
    </g>
  </g>
</svg>
