<?xml version="1.0" encoding="UTF-8" standalone="no"?>
<!-- Created with Inkscape (http://www.inkscape.org/) -->

<svg
   xmlns:dc="http://purl.org/dc/elements/1.1/"
   xmlns:cc="http://creativecommons.org/ns#"
   xmlns:rdf="http://www.w3.org/1999/02/22-rdf-syntax-ns#"
   xmlns:svg="http://www.w3.org/2000/svg"
   xmlns="http://www.w3.org/2000/svg"
   xmlns:sodipodi="http://sodipodi.sourceforge.net/DTD/sodipodi-0.dtd"
   xmlns:inkscape="http://www.inkscape.org/namespaces/inkscape"
   width="90.647636"
   height="90.636322"
   id="svg6096"
   version="1.1"
   inkscape:version="0.48.2 r9819"
   sodipodi:docname="New document 20">
  <defs
     id="defs6098">
    <clipPath
       clipPathUnits="userSpaceOnUse"
       id="clipPath4285">
      <path
         inkscape:connector-curvature="0"
         d="m 63.125,37.195 512.875,0 0,702.805 -512.875,0 0,-702.805 z"
         id="path4287" />
    </clipPath>
  </defs>
  <sodipodi:namedview
     id="base"
     pagecolor="#ffffff"
     bordercolor="#666666"
     borderopacity="1.0"
     inkscape:pageopacity="0.0"
     inkscape:pageshadow="2"
     inkscape:zoom="0.35"
     inkscape:cx="237.46758"
     inkscape:cy="45.315142"
     inkscape:document-units="px"
     inkscape:current-layer="layer1"
     showgrid="false"
     fit-margin-top="0"
     fit-margin-left="0"
     fit-margin-right="0"
     fit-margin-bottom="0"
     inkscape:window-width="469"
     inkscape:window-height="425"
     inkscape:window-x="1541"
     inkscape:window-y="175"
     inkscape:window-maximized="0" />
  <metadata
     id="metadata6101">
    <rdf:RDF>
      <cc:Work
         rdf:about="">
        <dc:format>image/svg+xml</dc:format>
        <dc:type
           rdf:resource="http://purl.org/dc/dcmitype/StillImage" />
        <dc:title></dc:title>
      </cc:Work>
    </rdf:RDF>
  </metadata>
  <g
     inkscape:label="Layer 1"
     inkscape:groupmode="layer"
     id="layer1"
     transform="translate(-137.53242,-487.04101)">
    <g
       transform="matrix(1.25,0,0,-1.25,-380.04892,1364.4092)"
       id="g4281">
      <g
         id="g4283"
         clip-path="url(#clipPath4285)">
        <g
           id="g4289"
           transform="translate(415.3546,668.1355)">
          <path
             inkscape:connector-curvature="0"
             d="m 0,0 32.472,32.472 c 1.373,1.374 3.621,1.374 4.996,0 L 69.939,0 c 1.375,-1.374 1.375,-3.622 0,-4.996 L 37.468,-37.467 c -1.375,-1.375 -3.623,-1.375 -4.996,0 L 0,-4.996 C -1.373,-3.622 -1.373,-1.374 0,0"
             style="fill:#fccf34;fill-opacity:1;fill-rule:nonzero;stroke:none"
             id="path4291" />
        </g>
        <g
           id="g4293"
           transform="translate(415.3546,668.1355)">
          <path
             inkscape:connector-curvature="0"
             d="m 0,0 32.472,32.472 c 1.373,1.374 3.621,1.374 4.996,0 L 69.939,0 c 1.375,-1.374 1.375,-3.622 0,-4.996 L 37.468,-37.467 c -1.375,-1.375 -3.623,-1.375 -4.996,0 L 0,-4.996 C -1.373,-3.622 -1.373,-1.374 0,0 z"
             style="fill:none;stroke:#231f20;stroke-width:0.5;stroke-linecap:butt;stroke-linejoin:miter;stroke-miterlimit:4;stroke-opacity:1;stroke-dasharray:none"
             id="path4295" />
        </g>
        <g
           id="g4297"
           transform="translate(416.1376,667.6193)">
          <path
             inkscape:connector-curvature="0"
             d="m 0,0 32.205,32.205 c 1.09,1.089 2.873,1.089 3.965,0 L 68.373,0 c 1.09,-1.09 1.09,-2.873 0,-3.963 L 36.17,-36.168 c -1.092,-1.09 -2.875,-1.09 -3.965,0 L 0,-3.963 C -1.09,-2.873 -1.09,-1.09 0,0"
             style="fill:#231f20;fill-opacity:1;fill-rule:evenodd;stroke:none"
             id="path4299" />
        </g>
        <g
           id="g4301"
           transform="translate(417.1456,666.6276)">
          <path
             inkscape:connector-curvature="0"
             d="m 0,0 32.189,32.189 c 0.545,0.545 1.436,0.545 1.98,0 L 66.359,0 c 0.545,-0.544 0.545,-1.436 0,-1.98 l -32.19,-32.19 c -0.544,-0.545 -1.435,-0.545 -1.98,0 L 0,-1.98 C -0.545,-1.436 -0.545,-0.544 0,0"
             style="fill:#fccf34;fill-opacity:1;fill-rule:evenodd;stroke:none"
             id="path4303" />
        </g>
        <g
           id="g4305"
           transform="translate(454.5946,645.5374)">
          <path
             inkscape:connector-curvature="0"
             d="m 0,0 c -0.721,-0.33 -0.946,-0.877 -0.946,-1.604 l -0.001,-3.711 -7.03,0.008 c -0.033,1.196 -0.013,2.536 -0.013,3.731 0,3.588 2.437,6.967 5.761,8.306 0.567,0.305 0.912,0.899 0.912,1.534 0,0.738 -0.47,1.406 -1.16,1.655 -2.976,1.289 -6.119,1.803 -8.836,4.052 -1.918,1.59 -2.967,4.106 -2.967,6.624 0,4.864 4.028,8.677 8.833,8.831 0.966,0.031 1.765,0.8 1.765,1.773 l 0,2.59 -3.894,-1.161 c -0.537,-0.15 -0.938,-0.212 -1.352,0.07 -0.594,0.404 -0.748,1.218 -0.346,1.811 L -0.155,47.992 8.98,34.509 C 9.385,33.916 9.228,33.102 8.635,32.698 8.238,32.428 7.828,32.476 7.338,32.601 l -3.957,1.188 0.002,-2.593 c 0,-4.927 -4.032,-8.835 -8.83,-8.835 -0.973,0 -1.766,-0.793 -1.766,-1.766 0,-0.662 0.359,-1.318 0.965,-1.573 2.015,-0.847 4.082,-1.563 6.097,-2.41 C 3.377,15.125 5.748,11.989 5.748,8.264 5.748,4.883 3.072,1.414 0,0"
             style="fill:#231f20;fill-opacity:1;fill-rule:evenodd;stroke:none"
             id="path4307" />
        </g>
      </g>
    </g>
  </g>
</svg>
