<?xml version="1.0" encoding="UTF-8" standalone="no"?>
<!-- Created with Inkscape (http://www.inkscape.org/) -->

<svg
   xmlns:dc="http://purl.org/dc/elements/1.1/"
   xmlns:cc="http://creativecommons.org/ns#"
   xmlns:rdf="http://www.w3.org/1999/02/22-rdf-syntax-ns#"
   xmlns:svg="http://www.w3.org/2000/svg"
   xmlns="http://www.w3.org/2000/svg"
   xmlns:sodipodi="http://sodipodi.sourceforge.net/DTD/sodipodi-0.dtd"
   xmlns:inkscape="http://www.inkscape.org/namespaces/inkscape"
   width="90.606895"
   height="90.637566"
   id="svg8463"
   version="1.1"
   inkscape:version="0.48.2 r9819"
   sodipodi:docname="New document 76">
  <defs
     id="defs8465">
    <clipPath
       clipPathUnits="userSpaceOnUse"
       id="clipPath4759">
      <path
         inkscape:connector-curvature="0"
         d="m 63.125,37.195 512.875,0 0,702.805 -512.875,0 0,-702.805 z"
         id="path4761" />
    </clipPath>
  </defs>
  <sodipodi:namedview
     id="base"
     pagecolor="#ffffff"
     bordercolor="#666666"
     borderopacity="1.0"
     inkscape:pageopacity="0.0"
     inkscape:pageshadow="2"
     inkscape:zoom="0.35"
     inkscape:cx="131.74805"
     inkscape:cy="19.602587"
     inkscape:document-units="px"
     inkscape:current-layer="layer1"
     showgrid="false"
     fit-margin-top="0"
     fit-margin-left="0"
     fit-margin-right="0"
     fit-margin-bottom="0"
     inkscape:window-width="469"
     inkscape:window-height="425"
     inkscape:window-x="1441"
     inkscape:window-y="75"
     inkscape:window-maximized="0" />
  <metadata
     id="metadata8468">
    <rdf:RDF>
      <cc:Work
         rdf:about="">
        <dc:format>image/svg+xml</dc:format>
        <dc:type
           rdf:resource="http://purl.org/dc/dcmitype/StillImage" />
        <dc:title></dc:title>
      </cc:Work>
    </rdf:RDF>
  </metadata>
  <g
     inkscape:label="Layer 1"
     inkscape:groupmode="layer"
     id="layer1"
     transform="translate(-243.25195,-461.3272)">
    <g
       id="g4747"
       transform="matrix(1.25,0,0,-1.25,244.86205,503.52727)">
      <path
         d="m 0,0 32.471,32.468 c 1.371,1.375 3.621,1.375 4.994,0 L 69.932,0 c 1.375,-1.372 1.375,-3.622 0,-4.997 L 37.465,-37.461 c -1.373,-1.375 -3.623,-1.375 -4.994,0 L 0,-4.997 C -1.371,-3.622 -1.371,-1.372 0,0"
         style="fill:#fccf34;fill-opacity:1;fill-rule:nonzero;stroke:none"
         id="path4749"
         inkscape:connector-curvature="0" />
    </g>
    <g
       id="g4751"
       transform="matrix(1.25,0,0,-1.25,244.86205,503.52727)">
      <path
         d="m 0,0 32.471,32.468 c 1.371,1.375 3.621,1.375 4.994,0 L 69.932,0 c 1.375,-1.372 1.375,-3.622 0,-4.997 L 37.465,-37.461 c -1.373,-1.375 -3.623,-1.375 -4.994,0 L 0,-4.997 C -1.371,-3.622 -1.371,-1.372 0,0 z"
         style="fill:none;stroke:#231f20;stroke-width:0.5;stroke-linecap:butt;stroke-linejoin:miter;stroke-miterlimit:4;stroke-opacity:1;stroke-dasharray:none"
         id="path4753"
         inkscape:connector-curvature="0" />
    </g>
    <g
       transform="matrix(1.25,0,0,-1.25,158.96468,767.3489)"
       id="g4755">
      <g
         id="g4757"
         clip-path="url(#clipPath4759)">
        <g
           id="g4763"
           transform="translate(69.5021,210.5413)">
          <path
             inkscape:connector-curvature="0"
             d="m 0,0 32.2,32.203 c 1.09,1.09 2.873,1.09 3.965,0 L 68.364,0 c 1.088,-1.09 1.088,-2.875 0,-3.963 L 36.165,-36.164 c -1.092,-1.09 -2.875,-1.09 -3.965,0 L 0,-3.963 C -1.09,-2.875 -1.09,-1.09 0,0"
             style="fill:#231f20;fill-opacity:1;fill-rule:evenodd;stroke:none"
             id="path4765" />
        </g>
        <g
           id="g4767"
           transform="translate(70.5109,209.5493)">
          <path
             inkscape:connector-curvature="0"
             d="m 0,0 32.184,32.187 c 0.545,0.547 1.435,0.547 1.98,0 L 66.348,0 c 0.547,-0.543 0.547,-1.434 0,-1.981 L 34.164,-34.164 c -0.545,-0.545 -1.435,-0.545 -1.98,0 L 0,-1.981 C -0.547,-1.434 -0.547,-0.543 0,0"
             style="fill:#fccf34;fill-opacity:1;fill-rule:evenodd;stroke:none"
             id="path4769" />
        </g>
        <g
           id="g4771"
           transform="translate(99.2746,194.4492)">
          <path
             inkscape:connector-curvature="0"
             d="m 0,0 0.008,-11.314 8.828,0 0,20.05 L 0,0 z"
             style="fill:#231f20;fill-opacity:1;fill-rule:evenodd;stroke:none"
             id="path4773" />
        </g>
        <g
           id="g4775"
           transform="translate(110.7785,223.0823)">
          <path
             inkscape:connector-curvature="0"
             d="M 0,0 1.678,-1.676 3.305,-0.051 4.117,-0.863 2.49,-2.49 4.967,-4.967 6.594,-3.34 7.426,-4.172 5.797,-5.795 7.476,-7.475 5.805,-9.15 4.127,-7.471 2.439,-9.15 l 1.682,-1.684 -1.67,-1.668 -1.678,1.676 -1.632,-1.633 1.677,-1.676 -1.676,-1.678 -1.677,1.678 -1.68,-1.672 1.684,-1.681 -1.684,-1.684 -1.682,1.684 -1.658,-1.659 1.678,-1.685 -1.652,-1.656 -1.684,1.683 -1.682,-1.683 1.682,-1.682 -1.656,-1.656 -1.682,1.681 -1.658,-1.656 1.676,-1.683 -1.66,-1.663 -1.678,1.678 -1.679,-1.672 -0.811,0.805 1.666,1.705 -2.481,2.481 -1.683,-1.682 -0.81,0.809 1.689,1.679 -1.689,1.674 1.661,1.662 1.678,-1.678 1.664,1.657 -1.682,1.681 1.655,1.653 1.677,-1.678 1.692,1.682 -1.684,1.683 1.652,1.653 1.678,-1.678 1.666,1.658 -1.679,1.684 1.679,1.679 1.684,-1.679 1.67,1.677 -1.678,1.678 1.678,1.678 1.678,-1.678 1.632,1.633 -1.677,1.678 1.67,1.67 1.675,-1.678 1.684,1.683 -1.678,1.676 L 0,0 z"
             style="fill:#231f20;fill-opacity:1;fill-rule:evenodd;stroke:none"
             id="path4777" />
        </g>
        <g
           id="g4779"
           transform="translate(111.591,218.9243)">
          <path
             inkscape:connector-curvature="0"
             d="M 0,0 2.496,-2.494 0.803,-4.186 -1.691,-1.692 0,0 z"
             style="fill:#fccf34;fill-opacity:1;fill-rule:evenodd;stroke:none"
             id="path4781" />
        </g>
        <g
           id="g4783"
           transform="translate(108.2394,215.5723)">
          <path
             inkscape:connector-curvature="0"
             d="M 0,0 2.492,-2.496 0.859,-4.127 -1.635,-1.633 0,0 z"
             style="fill:#fccf34;fill-opacity:1;fill-rule:evenodd;stroke:none"
             id="path4785" />
        </g>
        <g
           id="g4787"
           transform="translate(104.9289,212.2603)">
          <path
             inkscape:connector-curvature="0"
             d="M 0,0 2.494,-2.492 0.818,-4.168 -1.674,-1.676 0,0 z"
             style="fill:#fccf34;fill-opacity:1;fill-rule:evenodd;stroke:none"
             id="path4789" />
        </g>
        <g
           id="g4791"
           transform="translate(101.5734,208.9022)">
          <path
             inkscape:connector-curvature="0"
             d="M 0,0 2.49,-2.492 0.834,-4.15 -1.658,-1.656 0,0 z"
             style="fill:#fccf34;fill-opacity:1;fill-rule:evenodd;stroke:none"
             id="path4793" />
        </g>
        <g
           id="g4795"
           transform="translate(98.257,205.5883)">
          <path
             inkscape:connector-curvature="0"
             d="M 0,0 2.494,-2.494 0.811,-4.176 -1.684,-1.684 0,0 z"
             style="fill:#fccf34;fill-opacity:1;fill-rule:evenodd;stroke:none"
             id="path4797" />
        </g>
        <g
           id="g4799"
           transform="translate(94.9171,202.2483)">
          <path
             inkscape:connector-curvature="0"
             d="M 0,0 2.492,-2.494 0.836,-4.15 -1.658,-1.658 0,0 z"
             style="fill:#fccf34;fill-opacity:1;fill-rule:evenodd;stroke:none"
             id="path4801" />
        </g>
        <g
           id="g4803"
           transform="translate(108.1105,222.6933)">
          <path
             inkscape:connector-curvature="0"
             d="m 0,0 -0.006,11.313 -8.83,0 0,-20.051 L 0,0 z"
             style="fill:#231f20;fill-opacity:1;fill-rule:evenodd;stroke:none"
             id="path4805" />
        </g>
      </g>
    </g>
  </g>
</svg>
