<?xml version="1.0" encoding="UTF-8" standalone="no"?>
<!-- Created with Inkscape (http://www.inkscape.org/) -->

<svg
   xmlns:dc="http://purl.org/dc/elements/1.1/"
   xmlns:cc="http://creativecommons.org/ns#"
   xmlns:rdf="http://www.w3.org/1999/02/22-rdf-syntax-ns#"
   xmlns:svg="http://www.w3.org/2000/svg"
   xmlns="http://www.w3.org/2000/svg"
   xmlns:sodipodi="http://sodipodi.sourceforge.net/DTD/sodipodi-0.dtd"
   xmlns:inkscape="http://www.inkscape.org/namespaces/inkscape"
   width="113.16406"
   height="113.20312"
   id="svg9078"
   version="1.1"
   inkscape:version="0.48.2 r9819"
   sodipodi:docname="New document 88">
  <defs
     id="defs9080" />
  <sodipodi:namedview
     id="base"
     pagecolor="#ffffff"
     bordercolor="#666666"
     borderopacity="1.0"
     inkscape:pageopacity="0.0"
     inkscape:pageshadow="2"
     inkscape:zoom="0.35"
     inkscape:cx="191.58312"
     inkscape:cy="-20.538155"
     inkscape:document-units="px"
     inkscape:current-layer="layer1"
     showgrid="false"
     fit-margin-top="0"
     fit-margin-left="0"
     fit-margin-right="0"
     fit-margin-bottom="0"
     inkscape:window-width="469"
     inkscape:window-height="425"
     inkscape:window-x="1391"
     inkscape:window-y="25"
     inkscape:window-maximized="0" />
  <metadata
     id="metadata9083">
    <rdf:RDF>
      <cc:Work
         rdf:about="">
        <dc:format>image/svg+xml</dc:format>
        <dc:type
           rdf:resource="http://purl.org/dc/dcmitype/StillImage" />
        <dc:title></dc:title>
      </cc:Work>
    </rdf:RDF>
  </metadata>
  <g
     inkscape:label="Layer 1"
     inkscape:groupmode="layer"
     id="layer1"
     transform="translate(-183.41687,-398.62089)">
    <g
       id="g5505"
       transform="matrix(1.25,0,0,-1.25,243.65125,509.98808)">
      <path
         d="m 0,0 c -0.807,-0.805 -1.863,-1.209 -2.92,-1.209 -1.059,0 -2.115,0.404 -2.922,1.209 l -20.446,20.447 -20.446,20.448 c -0.807,0.806 -1.21,1.863 -1.21,2.92 0,1.057 0.403,2.115 1.21,2.922 l 20.446,20.445 20.446,20.447 c 0.807,0.807 1.863,1.21 2.922,1.21 1.057,0 2.113,-0.403 2.92,-1.21 L 20.445,67.182 40.893,46.737 c 0.806,-0.807 1.209,-1.865 1.209,-2.922 0,-1.057 -0.403,-2.114 -1.209,-2.92 L 20.445,20.447 0,0 z"
         style="fill:#fccf34;fill-opacity:1;fill-rule:nonzero;stroke:none"
         id="path5507"
         inkscape:connector-curvature="0" />
    </g>
    <g
       id="g5509"
       transform="matrix(1.25,0,0,-1.25,243.65125,509.98808)">
      <path
         d="m 0,0 c -0.807,-0.805 -1.863,-1.209 -2.92,-1.209 -1.059,0 -2.115,0.404 -2.922,1.209 l -20.446,20.447 -20.446,20.448 c -0.807,0.806 -1.21,1.863 -1.21,2.92 0,1.057 0.403,2.115 1.21,2.922 l 20.446,20.445 20.446,20.447 c 0.807,0.807 1.863,1.21 2.922,1.21 1.057,0 2.113,-0.403 2.92,-1.21 L 20.445,67.182 40.893,46.737 c 0.806,-0.807 1.209,-1.865 1.209,-2.922 0,-1.057 -0.403,-2.114 -1.209,-2.92 L 20.445,20.447 0,0 z"
         style="fill:none;stroke:#231f20;stroke-width:0.5;stroke-linecap:butt;stroke-linejoin:miter;stroke-miterlimit:4;stroke-opacity:1;stroke-dasharray:none"
         id="path5511"
         inkscape:connector-curvature="0" />
    </g>
    <g
       id="g5513"
       transform="matrix(1.25,0,0,-1.25,241.2175,507.55432)">
      <path
         d="M 0,0 C -0.537,-0.536 -1.41,-0.536 -1.948,0 L -42.84,40.895 c -0.537,0.536 -0.537,1.41 0,1.947 l 40.892,40.893 c 0.538,0.537 1.411,0.537 1.948,0 L 40.892,42.842 c 0.537,-0.537 0.537,-1.411 0,-1.947 L 0,0 z M 42.06,44.01 1.168,84.903 c -1.18,1.181 -3.102,1.181 -4.284,0 L -44.008,44.01 c -1.182,-1.181 -1.182,-3.103 0,-4.285 L -3.116,-1.167 c 1.182,-1.18 3.104,-1.18 4.284,0 L 42.06,39.725 c 1.182,1.182 1.182,3.104 0,4.285"
         style="fill:#231f20;fill-opacity:1;fill-rule:nonzero;stroke:none"
         id="path5515"
         inkscape:connector-curvature="0" />
    </g>
    <g
       id="g5517"
       transform="matrix(1.25,0,0,-1.25,246.3925,475.4632)">
      <path
         d="M 0,0 0.118,0.574 C 0.674,3.383 -0.275,4.929 -1.027,7.517 L 0.733,7.316 1.641,1.005 3.364,0.574 3.108,8.546 l -7.658,3.719 -0.178,0.057 -0.278,0.043 -0.234,0.016 -0.398,0 C -6.183,12.398 -7.107,11.925 -7.379,11.435 -8.663,9.795 -9.264,7.661 -9.616,5.634 l -5.043,-3.578 0.889,-1.463 5.384,2.137 1.404,2.293 c 0.559,-1.26 1.121,-2.436 1.801,-3.639 l -3.047,-6.153 -2.356,-9.751 2.911,-0.832 2.531,9.002 0.039,0.199 0.06,0.098 0.037,0.099 0.042,0.074 0.058,0.041 0.039,0.065 1.822,1.994 5.184,-11.968 2.293,1.8 L 0,0 z"
         style="fill:#231f20;fill-opacity:1;fill-rule:evenodd;stroke:none"
         id="path5519"
         inkscape:connector-curvature="0" />
    </g>
    <g
       id="g5521"
       transform="matrix(1.25,0,0,-1.25,234.14375,456.7532)">
      <path
         d="m 0,0 c 0.001,-0.061 0.005,-0.115 0.009,-0.17 0.004,-0.038 0.012,-0.078 0.018,-0.118 0,-0.015 0,-0.028 0.002,-0.04 0.314,-2.049 2.915,-2.607 4.077,-1.09 0.283,0.344 0.445,0.739 0.49,1.146 0.002,0 0.002,0.003 0.002,0.003 l 0,0.002 C 4.6,-0.246 4.6,-0.222 4.602,-0.197 L 4.618,0.027 C 4.616,0.072 4.61,0.115 4.606,0.154 4.606,0.169 4.604,0.179 4.602,0.189 4.598,0.242 4.59,0.299 4.583,0.351 4.579,0.379 4.573,0.41 4.567,0.44 4.559,0.492 4.547,0.543 4.536,0.592 4.536,0.598 4.534,0.6 4.532,0.606 4.417,1.065 4.19,1.434 3.895,1.709 3.522,2.076 3.018,2.314 2.415,2.328 1.616,2.367 0.796,2.008 0.334,1.228 0.175,0.975 0.076,0.707 0.029,0.432 0.025,0.397 0.013,0.363 0.007,0.321 0.001,0.252 0,0.186 0,0.119 0,0.1 -0.002,0.082 -0.002,0.067 -0.002,0.044 0,0.019 0,0"
         style="fill:#231f20;fill-opacity:1;fill-rule:evenodd;stroke:none"
         id="path5523"
         inkscape:connector-curvature="0" />
    </g>
    <g
       id="g5525"
       transform="matrix(1.25,0,0,-1.25,247.45,440.95432)">
      <path
         d="M 0,0 5.045,0.824 1.865,4.956 C 0.217,3.517 0.012,1.791 0,0 m -1.391,-0.301 c -0.005,0.178 -0.035,0.467 -0.035,0.667 0,2.046 0.662,4.032 2.455,5.684 l -1.869,2.237 -2.894,-8.828 2.343,0.24 z m -11.105,8.783 0.16,0.491 10.307,0.015 -2.742,-8.31 -0.118,0.866 0.315,0 -0.037,0.552 -1.381,0 0.039,-0.513 0.355,0 0.079,-0.945 c 0,0 -6.938,7.806 -6.977,7.844 m -4.565,-7.984 c 1.383,1.102 2.461,2.148 3.239,4.246 1.224,-1.111 1.924,-2.723 1.924,-4.378 0,-3.289 -2.682,-5.97 -5.969,-5.97 -3.287,0 -5.969,2.681 -5.969,5.97 0,3.288 2.682,5.97 5.969,5.97 1.048,0 2.122,-0.303 2.987,-0.814 -0.585,-1.852 -1.154,-2.803 -2.957,-4.255 -0.435,-0.017 -0.769,-0.369 -0.769,-0.789 0,-0.432 0.355,-0.788 0.789,-0.788 0.434,0 0.756,0.356 0.756,0.808 M 0.211,-1.27 c 0.674,-2.513 3.076,-4.334 5.734,-4.334 3.287,0 5.969,2.681 5.969,5.97 0,3.288 -2.682,5.97 -5.969,5.97 -1.05,0 -2.263,-0.248 -3.148,-0.766 L 6.037,1.267 C 6.434,1.262 6.777,0.908 6.777,0.478 6.777,0.046 6.424,-0.31 5.99,-0.31 c -0.121,0 -0.248,0.032 -0.355,0.083 L 0.211,-1.27 z m -14.665,8.174 2.116,5.834 -0.672,1.143 1.342,1.457 2.877,0 0.039,-0.827 -2.523,0 -0.514,-0.552 0.592,-1.063 -0.742,-2.636 10.326,0 0.158,0.48 c -0.83,0.109 -2.262,0.621 -2.604,0.918 -0.341,0.297 -0.043,0.57 0.348,0.582 2.037,0.086 5.065,0.258 5.641,0.261 0.574,0.002 0.633,-0.286 0.248,-0.706 -0.385,-0.422 -0.721,-0.803 -2.18,-1.03 L -0.396,9.702 2.047,6.675 c 1.152,0.7 2.545,1.061 3.898,1.061 4.059,0 7.371,-3.308 7.371,-7.37 0,-4.06 -3.312,-7.372 -7.371,-7.372 -3.341,0 -6.277,2.305 -7.14,5.486 L -3.441,-1.922 C -3.535,-2.188 -3.76,-2.39 -4.029,-2.549 l 0.4,-1.898 0.514,0 0.039,-0.512 -1.615,-0.08 0,0.552 0.394,0 -0.49,1.897 c -0.725,0.121 -1.106,0.741 -0.889,1.359 l -7.336,8.295 -0.328,-0.888 c 1.781,-1.404 2.843,-3.564 2.843,-5.81 0,-4.06 -3.31,-7.372 -7.37,-7.372 -4.06,0 -7.37,3.312 -7.37,7.372 0,4.062 3.31,7.37 7.37,7.37 1.181,0 2.39,-0.285 3.413,-0.832"
         style="fill:#231f20;fill-opacity:1;fill-rule:evenodd;stroke:none"
         id="path5527"
         inkscape:connector-curvature="0" />
    </g>
  </g>
</svg>
