<?xml version="1.0" encoding="UTF-8" standalone="no"?>
<!-- Created with Inkscape (http://www.inkscape.org/) -->

<svg
   xmlns:dc="http://purl.org/dc/elements/1.1/"
   xmlns:cc="http://creativecommons.org/ns#"
   xmlns:rdf="http://www.w3.org/1999/02/22-rdf-syntax-ns#"
   xmlns:svg="http://www.w3.org/2000/svg"
   xmlns="http://www.w3.org/2000/svg"
   xmlns:sodipodi="http://sodipodi.sourceforge.net/DTD/sodipodi-0.dtd"
   xmlns:inkscape="http://www.inkscape.org/namespaces/inkscape"
   width="66.679688"
   height="50.195312"
   id="svg9148"
   version="1.1"
   inkscape:version="0.48.2 r9819"
   sodipodi:docname="New document 90">
  <defs
     id="defs9150" />
  <sodipodi:namedview
     id="base"
     pagecolor="#ffffff"
     bordercolor="#666666"
     borderopacity="1.0"
     inkscape:pageopacity="0.0"
     inkscape:pageshadow="2"
     inkscape:zoom="0.35"
     inkscape:cx="-17.376472"
     inkscape:cy="-23.475808"
     inkscape:document-units="px"
     inkscape:current-layer="layer1"
     showgrid="false"
     fit-margin-top="0"
     fit-margin-left="0"
     fit-margin-right="0"
     fit-margin-bottom="0"
     inkscape:window-width="469"
     inkscape:window-height="425"
     inkscape:window-x="1466"
     inkscape:window-y="100"
     inkscape:window-maximized="0" />
  <metadata
     id="metadata9153">
    <rdf:RDF>
      <cc:Work
         rdf:about="">
        <dc:format>image/svg+xml</dc:format>
        <dc:type
           rdf:resource="http://purl.org/dc/dcmitype/StillImage" />
        <dc:title></dc:title>
      </cc:Work>
    </rdf:RDF>
  </metadata>
  <g
     inkscape:label="Layer 1"
     inkscape:groupmode="layer"
     id="layer1"
     transform="translate(-392.37647,-458.69106)">
    <g
       id="g5459"
       transform="matrix(1.25,0,0,-1.25,458.74366,504.43325)">
      <path
         d="m 0,0 c 0,-1.824 -1.479,-3.303 -3.303,-3.303 l -46.24,0 c -1.824,0 -3.304,1.479 -3.304,3.303 l 0,33.029 c 0,1.824 1.48,3.302 3.304,3.302 l 46.24,0 C -1.479,36.331 0,34.853 0,33.029 L 0,0 z"
         style="fill:#fccf34;fill-opacity:1;fill-rule:nonzero;stroke:none"
         id="path5461"
         inkscape:connector-curvature="0" />
    </g>
    <g
       id="g5463"
       transform="matrix(1.25,0,0,-1.25,458.74366,504.43325)">
      <path
         d="m 0,0 c 0,-1.824 -1.479,-3.303 -3.303,-3.303 l -46.24,0 c -1.824,0 -3.304,1.479 -3.304,3.303 l 0,33.029 c 0,1.824 1.48,3.302 3.304,3.302 l 46.24,0 C -1.479,36.331 0,34.853 0,33.029 L 0,0 z"
         style="fill:none;stroke:#231f20;stroke-width:0.5;stroke-linecap:butt;stroke-linejoin:miter;stroke-miterlimit:10;stroke-opacity:1;stroke-dasharray:none"
         id="path5465"
         inkscape:connector-curvature="0" />
    </g>
    <g
       id="g5467"
       transform="matrix(1.25,0,0,-1.25,455.99241,504.43325)">
      <path
         d="m 0,0 c 0,-0.607 -0.494,-1.101 -1.102,-1.101 l -46.24,0 c -0.607,0 -1.102,0.494 -1.102,1.101 l 0,33.029 c 0,0.607 0.495,1.101 1.102,1.101 l 46.24,0 C -0.494,34.13 0,33.636 0,33.029 L 0,0 z m -1.102,35.507 -46.24,0 c -1.366,0 -2.478,-1.113 -2.478,-2.478 L -49.82,0 c 0,-1.365 1.112,-2.476 2.478,-2.476 l 46.24,0 c 1.367,0 2.477,1.111 2.477,2.476 l 0,33.029 c 0,1.365 -1.11,2.478 -2.477,2.478"
         style="fill:#231f20;fill-opacity:1;fill-rule:nonzero;stroke:none"
         id="path5469"
         inkscape:connector-curvature="0" />
    </g>
    <g
       id="g5471"
       transform="matrix(1.25,0,0,-1.25,412.99616,471.72951)">
      <path
         d="m 0,0 -2.027,0 0,-7.4 -1.407,0 0,7.4 -2.027,0 0,1.407 L 0,1.407 0,0 z"
         style="fill:#231f20;fill-opacity:1;fill-rule:nonzero;stroke:none"
         id="path5473"
         inkscape:connector-curvature="0" />
    </g>
    <g
       id="g5475"
       transform="matrix(1.25,0,0,-1.25,420.23116,473.03076)">
      <path
         d="M 0,0 C 0,0.293 -0.099,0.541 -0.295,0.74 -0.491,0.942 -0.737,1.041 -1.03,1.041 l -2.027,0 0,-2.117 2.027,0 c 0.293,0 0.539,0.104 0.735,0.313 C -0.099,-0.554 0,-0.301 0,0 m 1.527,-6.359 -1.491,0 -1.419,3.875 -1.674,0 0,-3.875 -1.407,0 0,8.807 3.424,0 c 0.676,0 1.251,-0.239 1.73,-0.717 0.479,-0.479 0.72,-1.057 0.72,-1.733 0,-0.984 -0.468,-1.724 -1.4,-2.218 l 1.517,-4.139 z"
         style="fill:#231f20;fill-opacity:1;fill-rule:nonzero;stroke:none"
         id="path5477"
         inkscape:connector-curvature="0" />
    </g>
    <g
       id="g5479"
       transform="matrix(1.25,0,0,-1.25,428.85116,476.13576)">
      <path
         d="M 0,0 -0.924,2.685 -1.84,0 0,0 z m 2.818,-3.875 -1.488,0 -0.844,2.469 -2.828,0 -0.828,-2.469 -1.498,0 3.031,8.807 1.426,0 3.029,-8.807 z"
         style="fill:#231f20;fill-opacity:1;fill-rule:nonzero;stroke:none"
         id="path5481"
         inkscape:connector-curvature="0" />
    </g>
    <path
       d="m 435.78791,480.97988 -1.75875,0 0,-11.00875 1.75875,0 0,11.00875 z"
       style="fill:#231f20;fill-opacity:1;fill-rule:nonzero;stroke:none"
       id="path5483"
       inkscape:connector-curvature="0" />
    <g
       id="g5485"
       transform="matrix(1.25,0,0,-1.25,445.26003,480.97963)">
      <path
         d="m 0,0 -5.461,0 0,8.807 1.406,0 0,-7.401 L 0,1.406 0,0 z"
         style="fill:#231f20;fill-opacity:1;fill-rule:nonzero;stroke:none"
         id="path5487"
         inkscape:connector-curvature="0" />
    </g>
    <g
       id="g5489"
       transform="matrix(1.25,0,0,-1.25,413.40116,497.4945)">
      <path
         d="M 0,0 -1.414,2.918 -2.827,0 l -1.584,0 2.205,4.581 -2.02,4.227 1.585,0 1.227,-2.575 1.242,2.575 1.571,0 L -0.622,4.581 1.584,0 0,0 z"
         style="fill:#231f20;fill-opacity:1;fill-rule:nonzero;stroke:none"
         id="path5491"
         inkscape:connector-curvature="0" />
    </g>
    <path
       d="m 416.24166,491.22113 3.86125,0 0,1.7675 -3.86125,0 0,-1.7675 z"
       style="fill:#231f20;fill-opacity:1;fill-rule:nonzero;stroke:none"
       id="path5493"
       inkscape:connector-curvature="0" />
    <path
       d="m 421.75416,486.48488 1.765,0 0,11.01 -1.765,0 0,-11.01 z"
       style="fill:#231f20;fill-opacity:1;fill-rule:nonzero;stroke:none"
       id="path5495"
       inkscape:connector-curvature="0" />
    <g
       id="g5497"
       transform="matrix(1.25,0,0,-1.25,431.93741,497.4945)">
      <path
         d="m 0,0 -3.207,5.837 0,-5.837 -1.414,0 0,8.808 1.361,0 3.195,-5.81 0,5.81 1.412,0 L 1.347,0 0,0 z"
         style="fill:#231f20;fill-opacity:1;fill-rule:nonzero;stroke:none"
         id="path5499"
         inkscape:connector-curvature="0" />
    </g>
    <g
       id="g5501"
       transform="matrix(1.25,0,0,-1.25,439.95991,497.60963)">
      <path
         d="m 0,0 c -2.483,0 -3.116,2.561 -3.116,4.489 0,1.928 0.633,4.491 3.116,4.491 2.166,0 2.695,-2.008 2.695,-2.008 L 1.414,6.443 c 0,0 -0.371,1.136 -1.414,1.136 -1.241,0 -1.717,-1.426 -1.717,-3.09 0,-1.637 0.476,-3.077 1.717,-3.077 1.295,0 1.48,1.426 1.492,1.678 l -1.598,0 0,1.399 2.971,0 0,-1.374 C 2.865,2.139 2.298,0 0,0"
         style="fill:#231f20;fill-opacity:1;fill-rule:nonzero;stroke:none"
         id="path5503"
         inkscape:connector-curvature="0" />
    </g>
  </g>
</svg>
