<?xml version="1.0" encoding="UTF-8" standalone="no"?>
<!-- Created with Inkscape (http://www.inkscape.org/) -->

<svg
   xmlns:dc="http://purl.org/dc/elements/1.1/"
   xmlns:cc="http://creativecommons.org/ns#"
   xmlns:rdf="http://www.w3.org/1999/02/22-rdf-syntax-ns#"
   xmlns:svg="http://www.w3.org/2000/svg"
   xmlns="http://www.w3.org/2000/svg"
   xmlns:sodipodi="http://sodipodi.sourceforge.net/DTD/sodipodi-0.dtd"
   xmlns:inkscape="http://www.inkscape.org/namespaces/inkscape"
   width="90.40686"
   height="90.398254"
   id="svg8660"
   version="1.1"
   inkscape:version="0.48.2 r9819"
   sodipodi:docname="New document 81">
  <defs
     id="defs8662" />
  <sodipodi:namedview
     id="base"
     pagecolor="#ffffff"
     bordercolor="#666666"
     borderopacity="1.0"
     inkscape:pageopacity="0.0"
     inkscape:pageshadow="2"
     inkscape:zoom="0.35"
     inkscape:cx="-2.6481065"
     inkscape:cy="119.49087"
     inkscape:document-units="px"
     inkscape:current-layer="layer1"
     showgrid="false"
     fit-margin-top="0"
     fit-margin-left="0"
     fit-margin-right="0"
     fit-margin-bottom="0"
     inkscape:window-width="469"
     inkscape:window-height="425"
     inkscape:window-x="1541"
     inkscape:window-y="175"
     inkscape:window-maximized="0" />
  <metadata
     id="metadata8665">
    <rdf:RDF>
      <cc:Work
         rdf:about="">
        <dc:format>image/svg+xml</dc:format>
        <dc:type
           rdf:resource="http://purl.org/dc/dcmitype/StillImage" />
        <dc:title></dc:title>
      </cc:Work>
    </rdf:RDF>
  </metadata>
  <g
     inkscape:label="Layer 1"
     inkscape:groupmode="layer"
     id="layer1"
     transform="translate(-377.64811,-561.4548)">
    <g
       id="g5347"
       transform="matrix(1.25,0,0,-1.25,379.2573,603.53274)">
      <path
         d="m 0,0 32.389,32.387 c 1.369,1.37 3.612,1.37 4.983,0 L 69.759,0 c 1.371,-1.37 1.371,-3.613 0,-4.983 L 37.372,-37.369 c -1.371,-1.373 -3.614,-1.373 -4.983,0 L 0,-4.983 C -1.37,-3.613 -1.37,-1.37 0,0"
         style="fill:#fccf34;fill-opacity:1;fill-rule:nonzero;stroke:none"
         id="path5349"
         inkscape:connector-curvature="0" />
    </g>
    <g
       id="g5351"
       transform="matrix(1.25,0,0,-1.25,379.2573,603.53274)">
      <path
         d="m 0,0 32.389,32.387 c 1.369,1.37 3.612,1.37 4.983,0 L 69.759,0 c 1.371,-1.37 1.371,-3.613 0,-4.983 L 37.372,-37.369 c -1.371,-1.373 -3.614,-1.373 -4.983,0 L 0,-4.983 C -1.37,-3.613 -1.37,-1.37 0,0 z"
         style="fill:none;stroke:#231f20;stroke-width:0.5;stroke-linecap:butt;stroke-linejoin:miter;stroke-miterlimit:4;stroke-opacity:1;stroke-dasharray:none"
         id="path5353"
         inkscape:connector-curvature="0" />
    </g>
    <g
       id="g5355"
       transform="matrix(1.25,0,0,-1.25,380.23355,604.17637)">
      <path
         d="m 0,0 32.122,32.121 c 1.087,1.087 2.866,1.087 3.955,0 L 68.197,0 c 1.086,-1.087 1.086,-2.866 0,-3.953 l -32.12,-32.12 c -1.089,-1.088 -2.868,-1.088 -3.955,0 L 0,-3.953 C -1.087,-2.866 -1.087,-1.087 0,0"
         style="fill:#231f20;fill-opacity:1;fill-rule:evenodd;stroke:none"
         id="path5357"
         inkscape:connector-curvature="0" />
    </g>
    <g
       id="g5359"
       transform="matrix(1.25,0,0,-1.25,381.48855,605.41261)">
      <path
         d="m 0,0 32.108,32.105 c 0.541,0.544 1.432,0.544 1.975,0 L 66.189,0 c 0.544,-0.543 0.544,-1.432 0,-1.975 L 34.083,-34.081 c -0.543,-0.544 -1.434,-0.544 -1.975,0 L 0,-1.975 C -0.542,-1.432 -0.542,-0.543 0,0"
         style="fill:#fccf34;fill-opacity:1;fill-rule:evenodd;stroke:none"
         id="path5361"
         inkscape:connector-curvature="0" />
    </g>
    <g
       id="g5363"
       transform="matrix(1.25,0,0,-1.25,418.59105,577.00761)">
      <path
         d="M 0,0 C 1.847,0 3.353,-1.505 3.353,-3.353 3.353,-5.2 1.847,-6.707 0,-6.707 c -1.846,0 -3.354,1.507 -3.354,3.354 C -3.354,-1.505 -1.846,0 0,0"
         style="fill:#231f20;fill-opacity:1;fill-rule:evenodd;stroke:none"
         id="path5365"
         inkscape:connector-curvature="0" />
    </g>
    <g
       id="g5367"
       transform="matrix(1.25,0,0,-1.25,405.8998,603.43636)">
      <path
         d="m 0,0 7.034,4.688 c 0.325,1.375 1.674,7.477 4.38,8.889 2.679,1.771 12.561,-5.508 12.617,-5.566 l 0,-10.619 -2.142,0.372 -0.838,8.477 c -0.809,0.162 -1.615,0.324 -2.421,0.486 1.763,-4.56 2.411,-8.955 1.396,-11.849 l 4.285,-17.512 -2.888,-2.047 -6.239,16.205 -2.89,-3.074 -4.005,-12.2 -3.818,1.397 L 7.917,-9.5 11.922,-2.328 10.387,2.965 8.755,0.839 1.118,-1.677 0,0 z"
         style="fill:#231f20;fill-opacity:1;fill-rule:evenodd;stroke:none"
         id="path5369"
         inkscape:connector-curvature="0" />
    </g>
  </g>
</svg>
