<?xml version="1.0" encoding="UTF-8" standalone="no"?>
<!-- Created with Inkscape (http://www.inkscape.org/) -->

<svg
   xmlns:dc="http://purl.org/dc/elements/1.1/"
   xmlns:cc="http://creativecommons.org/ns#"
   xmlns:rdf="http://www.w3.org/1999/02/22-rdf-syntax-ns#"
   xmlns:svg="http://www.w3.org/2000/svg"
   xmlns="http://www.w3.org/2000/svg"
   xmlns:sodipodi="http://sodipodi.sourceforge.net/DTD/sodipodi-0.dtd"
   xmlns:inkscape="http://www.inkscape.org/namespaces/inkscape"
   width="66.680069"
   height="33.672211"
   id="svg10006"
   version="1.1"
   inkscape:version="0.48.2 r9819"
   sodipodi:docname="New document 108">
  <defs
     id="defs10008" />
  <sodipodi:namedview
     id="base"
     pagecolor="#ffffff"
     bordercolor="#666666"
     borderopacity="1.0"
     inkscape:pageopacity="0.0"
     inkscape:pageshadow="2"
     inkscape:zoom="0.35"
     inkscape:cx="88.349447"
     inkscape:cy="168.26232"
     inkscape:document-units="px"
     inkscape:current-layer="layer1"
     showgrid="false"
     fit-margin-top="0"
     fit-margin-left="0"
     fit-margin-right="0"
     fit-margin-bottom="0"
     inkscape:window-width="469"
     inkscape:window-height="425"
     inkscape:window-x="1466"
     inkscape:window-y="100"
     inkscape:window-maximized="0" />
  <metadata
     id="metadata10011">
    <rdf:RDF>
      <cc:Work
         rdf:about="">
        <dc:format>image/svg+xml</dc:format>
        <dc:type
           rdf:resource="http://purl.org/dc/dcmitype/StillImage" />
        <dc:title></dc:title>
      </cc:Work>
    </rdf:RDF>
  </metadata>
  <g
     inkscape:label="Layer 1"
     inkscape:groupmode="layer"
     id="layer1"
     transform="translate(-286.65055,-666.9523)">
    <g
       id="g5113"
       transform="matrix(1.25,0,0,-1.25,292.6275,667.26513)">
      <path
         d="m 0,0 43.917,0 0.192,0 0.004,-0.005 c 2.274,-0.1 4.11,-1.938 4.205,-4.215 l 0.004,-0.003 0,-0.181 0,-17.633 0,-0.039 c -0.021,-2.229 -1.728,-4.09 -3.892,-4.352 l -0.009,-0.013 -44.543,0 -0.112,0 -0.002,0.002 c -2.307,0.058 -4.185,1.91 -4.289,4.205 l -10e-4,0.002 0,0.195 0,17.423 0.005,0.005 c -0.003,0.068 -0.005,0.137 -0.005,0.205 0,2.426 1.979,4.404 4.404,4.404 0.04,0 0.08,-0.001 0.12,-0.002 L 0,0 z"
         style="fill:#fccf34;fill-opacity:1;fill-rule:evenodd;stroke:none"
         id="path5115"
         inkscape:connector-curvature="0" />
    </g>
    <g
       id="g5117"
       transform="matrix(1.25,0,0,-1.25,292.6275,667.26513)">
      <path
         d="m 0,0 43.917,0 0.192,0 0.004,-0.005 c 2.274,-0.1 4.11,-1.938 4.205,-4.215 l 0.004,-0.003 0,-0.181 0,-17.633 0,-0.039 c -0.021,-2.229 -1.728,-4.09 -3.892,-4.352 l -0.009,-0.013 -44.543,0 -0.112,0 -0.002,0.002 c -2.307,0.058 -4.185,1.91 -4.289,4.205 l -10e-4,0.002 0,0.195 0,17.423 0.005,0.005 c -0.003,0.068 -0.005,0.137 -0.005,0.205 0,2.426 1.979,4.404 4.404,4.404 0.04,0 0.08,-0.001 0.12,-0.002 L 0,0 z"
         style="fill:none;stroke:#231f20;stroke-width:0.5;stroke-linecap:butt;stroke-linejoin:miter;stroke-miterlimit:4;stroke-opacity:1;stroke-dasharray:none"
         id="path5119"
         inkscape:connector-curvature="0" />
    </g>
    <g
       id="g5121"
       transform="matrix(1.25,0,0,-1.25,293.02625,668.36638)">
      <path
         d="m 0,0 43.158,0 c 2.184,0 3.964,-1.781 3.964,-3.964 l 0,-16.752 c 0,-2.182 -1.78,-3.963 -3.964,-3.963 l -43.158,0 c -2.184,0 -3.964,1.781 -3.964,3.963 l 0,16.752 C -3.964,-1.781 -2.184,0 0,0"
         style="fill:#231f20;fill-opacity:1;fill-rule:evenodd;stroke:none"
         id="path5123"
         inkscape:connector-curvature="0" />
    </g>
    <g
       id="g5125"
       transform="matrix(1.25,0,0,-1.25,293.07375,670.00264)">
      <path
         d="m 0,0 43.082,0 c 1.489,0 2.703,-1.214 2.703,-2.702 l 0,-16.59 c 0,-1.489 -1.214,-2.703 -2.703,-2.703 l -43.082,0 c -1.489,0 -2.703,1.214 -2.703,2.703 l 0,16.59 C -2.703,-1.214 -1.489,0 0,0"
         style="fill:#fccf34;fill-opacity:1;fill-rule:evenodd;stroke:none"
         id="path5127"
         inkscape:connector-curvature="0" />
    </g>
    <g
       id="g5129"
       transform="matrix(1.25,0,0,-1.25,297.92,689.48776)">
      <path
         d="m 0,0 c -0.774,0 -1.545,0.184 -2.162,0.493 l 0.679,1.236 c 0.37,-0.186 1.018,-0.309 1.668,-0.309 1.266,0 2.254,0.835 2.254,1.977 0,0.866 -0.709,1.545 -1.574,1.545 -0.618,0 -0.895,-0.185 -1.422,-0.926 l -1.389,0.401 0.216,4.54 5.065,0 0,-1.389 -3.706,0 -0.094,-1.452 C 0.185,6.302 0.463,6.363 0.895,6.363 2.502,6.363 3.83,5.004 3.83,3.397 3.83,1.45 2.224,0 0,0"
         style="fill:#231f20;fill-opacity:1;fill-rule:nonzero;stroke:none"
         id="path5131"
         inkscape:connector-curvature="0" />
    </g>
    <g
       id="g5133"
       transform="matrix(1.25,0,0,-1.25,310.27625,680.72388)">
      <path
         d="m 0,0 c -0.279,0.464 -0.618,0.65 -1.145,0.681 -0.679,0.031 -1.11,-0.31 -1.419,-1.082 -0.218,-0.525 -0.341,-1.329 -0.341,-2.07 0,-0.927 0.185,-1.883 0.526,-2.44 0.278,-0.464 0.648,-0.68 1.204,-0.68 0.649,0 1.051,0.341 1.359,1.113 0.185,0.463 0.339,1.329 0.339,2.007 C 0.523,-1.483 0.338,-0.586 0,0 m 0.956,-6.024 c -0.494,-0.679 -1.204,-0.987 -2.131,-0.987 -1.235,0 -2.008,0.493 -2.532,1.574 -0.372,0.742 -0.618,1.915 -0.618,2.966 0,1.453 0.37,2.749 0.957,3.584 C -2.844,1.792 -2.132,2.1 -1.114,2.1 0,2.1 0.771,1.607 1.328,0.527 c 0.37,-0.773 0.586,-1.885 0.586,-2.998 0,-1.39 -0.339,-2.779 -0.958,-3.553"
         style="fill:#231f20;fill-opacity:1;fill-rule:nonzero;stroke:none"
         id="path5135"
         inkscape:connector-curvature="0" />
    </g>
    <g
       id="g5137"
       transform="matrix(1.25,0,0,-1.25,320.275,680.72388)">
      <path
         d="m 0,0 c -0.279,0.464 -0.618,0.65 -1.144,0.681 -0.679,0.031 -1.111,-0.31 -1.42,-1.082 -0.217,-0.525 -0.341,-1.329 -0.341,-2.07 0,-0.927 0.185,-1.883 0.527,-2.44 0.277,-0.464 0.648,-0.68 1.203,-0.68 0.65,0 1.051,0.341 1.359,1.113 0.186,0.463 0.34,1.329 0.34,2.007 C 0.524,-1.483 0.338,-0.586 0,0 m 0.956,-6.024 c -0.494,-0.679 -1.203,-0.987 -2.131,-0.987 -1.235,0 -2.008,0.493 -2.531,1.574 -0.372,0.742 -0.618,1.915 -0.618,2.966 0,1.453 0.369,2.749 0.956,3.584 C -2.843,1.792 -2.131,2.1 -1.113,2.1 0,2.1 0.771,1.607 1.329,0.527 c 0.37,-0.773 0.586,-1.885 0.586,-2.998 0,-1.39 -0.34,-2.779 -0.959,-3.553"
         style="fill:#231f20;fill-opacity:1;fill-rule:nonzero;stroke:none"
         id="path5139"
         inkscape:connector-curvature="0" />
    </g>
    <g
       id="g5141"
       transform="matrix(1.25,0,0,-1.25,332.32,680.02763)">
      <path
         d="m 0,0 0,-2.163 2.564,0 0,-1.42 -2.564,0 0,-3.831 -1.389,0 0,8.803 5.466,0 L 4.077,0 0,0 z"
         style="fill:#231f20;fill-opacity:1;fill-rule:nonzero;stroke:none"
         id="path5143"
         inkscape:connector-curvature="0" />
    </g>
    <g
       id="g5145"
       transform="matrix(1.25,0,0,-1.25,342.31875,679.83401)">
      <path
         d="m 0,0 0,-7.569 -1.389,0 0,7.569 -2.008,0 0,1.234 5.436,0 L 2.039,0 0,0 z"
         style="fill:#231f20;fill-opacity:1;fill-rule:nonzero;stroke:none"
         id="path5147"
         inkscape:connector-curvature="0" />
    </g>
  </g>
</svg>
