<?xml version="1.0" encoding="UTF-8" standalone="no"?>
<!-- Created with Inkscape (http://www.inkscape.org/) -->

<svg
   xmlns:dc="http://purl.org/dc/elements/1.1/"
   xmlns:cc="http://creativecommons.org/ns#"
   xmlns:rdf="http://www.w3.org/1999/02/22-rdf-syntax-ns#"
   xmlns:svg="http://www.w3.org/2000/svg"
   xmlns="http://www.w3.org/2000/svg"
   xmlns:sodipodi="http://sodipodi.sourceforge.net/DTD/sodipodi-0.dtd"
   xmlns:inkscape="http://www.inkscape.org/namespaces/inkscape"
   width="90.638115"
   height="90.592613"
   id="svg6303"
   version="1.1"
   inkscape:version="0.48.2 r9819"
   sodipodi:docname="New document 26">
  <defs
     id="defs6305">
    <clipPath
       clipPathUnits="userSpaceOnUse"
       id="clipPath4041">
      <path
         inkscape:connector-curvature="0"
         d="m 63.125,37.195 512.875,0 0,702.805 -512.875,0 0,-702.805 z"
         id="path4043" />
    </clipPath>
  </defs>
  <sodipodi:namedview
     id="base"
     pagecolor="#ffffff"
     bordercolor="#666666"
     borderopacity="1.0"
     inkscape:pageopacity="0.0"
     inkscape:pageshadow="2"
     inkscape:zoom="0.35"
     inkscape:cx="66.039285"
     inkscape:cy="-20.42457"
     inkscape:document-units="px"
     inkscape:current-layer="layer1"
     showgrid="false"
     fit-margin-top="0"
     fit-margin-left="0"
     fit-margin-right="0"
     fit-margin-bottom="0"
     inkscape:window-width="469"
     inkscape:window-height="425"
     inkscape:window-x="1441"
     inkscape:window-y="75"
     inkscape:window-maximized="0" />
  <metadata
     id="metadata6308">
    <rdf:RDF>
      <cc:Work
         rdf:about="">
        <dc:format>image/svg+xml</dc:format>
        <dc:type
           rdf:resource="http://purl.org/dc/dcmitype/StillImage" />
        <dc:title></dc:title>
      </cc:Work>
    </rdf:RDF>
  </metadata>
  <g
     inkscape:label="Layer 1"
     inkscape:groupmode="layer"
     id="layer1"
     transform="translate(-308.96071,-421.345)">
    <g
       transform="matrix(1.25,0,0,-1.25,118.26946,1173.0008)"
       id="g4037">
      <g
         id="g4039"
         clip-path="url(#clipPath4041)">
        <g
           id="g4045"
           transform="translate(153.8395,567.5693)">
          <path
             inkscape:connector-curvature="0"
             d="m 0,0 32.484,32.484 c 1.369,1.369 3.61,1.369 4.979,0 L 69.947,0 c 1.369,-1.369 1.369,-3.607 0,-4.976 L 37.463,-37.458 c -1.369,-1.369 -3.61,-1.369 -4.979,0 L 0,-4.976 C -1.369,-3.607 -1.369,-1.369 0,0"
             style="fill:#fccf34;fill-opacity:1;fill-rule:nonzero;stroke:none"
             id="path4047" />
        </g>
        <g
           id="g4049"
           transform="translate(153.8395,567.5693)">
          <path
             inkscape:connector-curvature="0"
             d="m 0,0 32.484,32.484 c 1.369,1.369 3.61,1.369 4.979,0 L 69.947,0 c 1.369,-1.369 1.369,-3.607 0,-4.976 L 37.463,-37.458 c -1.369,-1.369 -3.61,-1.369 -4.979,0 L 0,-4.976 C -1.369,-3.607 -1.369,-1.369 0,0 z"
             style="fill:none;stroke:#231f20;stroke-width:0.5;stroke-linecap:butt;stroke-linejoin:miter;stroke-miterlimit:2.61299992;stroke-opacity:1;stroke-dasharray:none"
             id="path4051" />
        </g>
        <g
           id="g4053"
           transform="translate(154.7829,567.2643)">
          <path
             inkscape:connector-curvature="0"
             d="m 0,0 31.846,31.846 c 1.203,1.201 3.168,1.201 4.369,0 L 68.061,0 c 1.201,-1.201 1.201,-3.163 0,-4.366 L 36.215,-36.21 c -1.201,-1.201 -3.166,-1.201 -4.369,0 L 0,-4.366 C -1.201,-3.163 -1.201,-1.201 0,0"
             style="fill:#231f20;fill-opacity:1;fill-rule:evenodd;stroke:none"
             id="path4055" />
        </g>
        <g
           id="g4057"
           transform="translate(156.027,566.4283)">
          <path
             inkscape:connector-curvature="0"
             d="m 0,0 31.44,31.438 c 0.74,0.74 1.953,0.74 2.695,0 L 65.573,0 c 0.74,-0.741 0.74,-1.952 0,-2.692 L 34.135,-34.13 c -0.742,-0.74 -1.955,-0.74 -2.695,0 L 0,-2.692 C -0.741,-1.952 -0.741,-0.741 0,0"
             style="fill:#fccf34;fill-opacity:1;fill-rule:evenodd;stroke:none"
             id="path4059" />
        </g>
        <g
           id="g4061"
           transform="translate(166.7379,560.6733)">
          <path
             inkscape:connector-curvature="0"
             d="m 0,0 0,8.827 17.662,0 0,17.659 8.831,0 0,-17.659 17.66,0 0,-8.827 -17.66,0 0,-17.66 -8.831,0 0,17.66 L 0,0 z"
             style="fill:#231f20;fill-opacity:1;fill-rule:evenodd;stroke:none"
             id="path4063" />
        </g>
      </g>
    </g>
  </g>
</svg>
