<?xml version="1.0" encoding="UTF-8" standalone="no"?>
<!-- Created with Inkscape (http://www.inkscape.org/) -->

<svg
   xmlns:dc="http://purl.org/dc/elements/1.1/"
   xmlns:cc="http://creativecommons.org/ns#"
   xmlns:rdf="http://www.w3.org/1999/02/22-rdf-syntax-ns#"
   xmlns:svg="http://www.w3.org/2000/svg"
   xmlns="http://www.w3.org/2000/svg"
   xmlns:sodipodi="http://sodipodi.sourceforge.net/DTD/sodipodi-0.dtd"
   xmlns:inkscape="http://www.inkscape.org/namespaces/inkscape"
   width="90.625"
   height="90.622498"
   id="svg6522"
   version="1.1"
   inkscape:version="0.48.2 r9819"
   sodipodi:docname="New document 33">
  <defs
     id="defs6524">
    <clipPath
       clipPathUnits="userSpaceOnUse"
       id="clipPath3937">
      <path
         inkscape:connector-curvature="0"
         d="m 63.125,37.195 512.875,0 0,702.805 -512.875,0 0,-702.805 z"
         id="path3939" />
    </clipPath>
  </defs>
  <sodipodi:namedview
     id="base"
     pagecolor="#ffffff"
     bordercolor="#666666"
     borderopacity="1.0"
     inkscape:pageopacity="0.0"
     inkscape:pageshadow="2"
     inkscape:zoom="0.35"
     inkscape:cx="68.883933"
     inkscape:cy="45.311269"
     inkscape:document-units="px"
     inkscape:current-layer="layer1"
     showgrid="false"
     fit-margin-top="0"
     fit-margin-left="0"
     fit-margin-right="0"
     fit-margin-bottom="0"
     inkscape:window-width="469"
     inkscape:window-height="425"
     inkscape:window-x="1391"
     inkscape:window-y="25"
     inkscape:window-maximized="0" />
  <metadata
     id="metadata6527">
    <rdf:RDF>
      <cc:Work
         rdf:about="">
        <dc:format>image/svg+xml</dc:format>
        <dc:type
           rdf:resource="http://purl.org/dc/dcmitype/StillImage" />
        <dc:title></dc:title>
      </cc:Work>
    </rdf:RDF>
  </metadata>
  <g
     inkscape:label="Layer 1"
     inkscape:groupmode="layer"
     id="layer1"
     transform="translate(-306.11607,-487.05094)">
    <g
       transform="matrix(1.25,0,0,-1.25,-209.54437,1238.9885)"
       id="g3933">
      <g
         id="g3935"
         clip-path="url(#clipPath3937)">
        <g
           id="g3941"
           transform="translate(413.8096,567.7973)">
          <path
             inkscape:connector-curvature="0"
             d="m 0,0 32.47,32.473 c 1.375,1.373 3.623,1.373 4.996,0 L 69.939,0 c 1.373,-1.373 1.373,-3.618 0,-4.993 L 37.466,-37.464 c -1.373,-1.375 -3.621,-1.375 -4.996,0 L 0,-4.993 C -1.375,-3.618 -1.375,-1.373 0,0"
             style="fill:#fccf34;fill-opacity:1;fill-rule:nonzero;stroke:none"
             id="path3943" />
        </g>
        <g
           id="g3945"
           transform="translate(413.8096,567.7973)">
          <path
             inkscape:connector-curvature="0"
             d="m 0,0 32.47,32.473 c 1.375,1.373 3.623,1.373 4.996,0 L 69.939,0 c 1.373,-1.373 1.373,-3.618 0,-4.993 L 37.466,-37.464 c -1.373,-1.375 -3.621,-1.375 -4.996,0 L 0,-4.993 C -1.375,-3.618 -1.375,-1.373 0,0 z"
             style="fill:none;stroke:#231f20;stroke-width:0.5;stroke-linecap:butt;stroke-linejoin:miter;stroke-miterlimit:4;stroke-opacity:1;stroke-dasharray:none"
             id="path3947" />
        </g>
        <g
           id="g3949"
           transform="translate(414.5906,567.2823)">
          <path
             inkscape:connector-curvature="0"
             d="m 0,0 32.205,32.205 c 1.092,1.09 2.875,1.09 3.965,0 L 68.375,0 c 1.09,-1.09 1.09,-2.87 0,-3.96 L 36.17,-36.165 c -1.09,-1.09 -2.873,-1.09 -3.965,0 L 0,-3.96 C -1.09,-2.87 -1.09,-1.09 0,0"
             style="fill:#231f20;fill-opacity:1;fill-rule:evenodd;stroke:none"
             id="path3951" />
        </g>
        <g
           id="g3953"
           transform="translate(415.5986,566.2892)">
          <path
             inkscape:connector-curvature="0"
             d="m 0,0 32.189,32.19 c 0.545,0.545 1.438,0.545 1.981,0 L 66.359,0 c 0.545,-0.541 0.545,-1.432 0,-1.977 L 34.17,-34.166 c -0.543,-0.545 -1.436,-0.545 -1.981,0 L 0,-1.977 C -0.545,-1.432 -0.545,-0.541 0,0"
             style="fill:#fccf34;fill-opacity:1;fill-rule:evenodd;stroke:none"
             id="path3955" />
        </g>
        <g
           id="g3957"
           transform="translate(431.0866,568.1122)">
          <path
             inkscape:connector-curvature="0"
             d="m 0,0 0,8.832 35.385,0 0,-8.832 -13.278,0 0,-27.593 -8.83,0 L 13.277,0 0,0 z"
             style="fill:#231f20;fill-opacity:1;fill-rule:evenodd;stroke:none"
             id="path3959" />
        </g>
      </g>
    </g>
  </g>
</svg>
