<?xml version="1.0" encoding="UTF-8" standalone="no"?>
<!-- Created with Inkscape (http://www.inkscape.org/) -->

<svg
   xmlns:dc="http://purl.org/dc/elements/1.1/"
   xmlns:cc="http://creativecommons.org/ns#"
   xmlns:rdf="http://www.w3.org/1999/02/22-rdf-syntax-ns#"
   xmlns:svg="http://www.w3.org/2000/svg"
   xmlns="http://www.w3.org/2000/svg"
   xmlns:sodipodi="http://sodipodi.sourceforge.net/DTD/sodipodi-0.dtd"
   xmlns:inkscape="http://www.inkscape.org/namespaces/inkscape"
   width="90.611687"
   height="90.614861"
   id="svg6769"
   version="1.1"
   inkscape:version="0.48.2 r9819"
   sodipodi:docname="New document 39">
  <defs
     id="defs6771">
    <clipPath
       clipPathUnits="userSpaceOnUse"
       id="clipPath5631">
      <path
         inkscape:connector-curvature="0"
         d="m 67.44,38.842 504.246,0 0,699.51 -504.246,0 0,-699.51 z"
         id="path5633" />
    </clipPath>
    <clipPath
       clipPathUnits="userSpaceOnUse"
       id="clipPath5619">
      <path
         inkscape:connector-curvature="0"
         d="m 63.125,37.195 512.875,0 0,702.805 -512.875,0 0,-702.805 z"
         id="path5621" />
    </clipPath>
  </defs>
  <sodipodi:namedview
     id="base"
     pagecolor="#ffffff"
     bordercolor="#666666"
     borderopacity="1.0"
     inkscape:pageopacity="0.0"
     inkscape:pageshadow="2"
     inkscape:zoom="0.35"
     inkscape:cx="151.74245"
     inkscape:cy="-74.6961"
     inkscape:document-units="px"
     inkscape:current-layer="layer1"
     showgrid="false"
     fit-margin-top="0"
     fit-margin-left="0"
     fit-margin-right="0"
     fit-margin-bottom="0"
     inkscape:window-width="469"
     inkscape:window-height="425"
     inkscape:window-x="1516"
     inkscape:window-y="150"
     inkscape:window-maximized="0" />
  <metadata
     id="metadata6774">
    <rdf:RDF>
      <cc:Work
         rdf:about="">
        <dc:format>image/svg+xml</dc:format>
        <dc:type
           rdf:resource="http://purl.org/dc/dcmitype/StillImage" />
        <dc:title></dc:title>
      </cc:Work>
    </rdf:RDF>
  </metadata>
  <g
     inkscape:label="Layer 1"
     inkscape:groupmode="layer"
     id="layer1"
     transform="translate(-223.25755,-367.05122)">
    <g
       transform="matrix(1.25,0,0,-1.25,138.95755,993.28817)"
       id="g5615">
      <g
         id="g5617"
         clip-path="url(#clipPath5619)">
        <g
           id="g5623"
           transform="translate(106.0231,429.7083)">
          <path
             inkscape:connector-curvature="0"
             d="m 0,0 32.694,32.698 c 0.617,0.613 0.974,1.463 0.974,2.334 0,0.869 -0.357,1.719 -0.974,2.334 L 0,70.063 c -0.617,0.616 -1.462,0.969 -2.337,0.967 -0.869,-0.004 -1.719,-0.353 -2.334,-0.967 L -37.365,37.366 c -0.613,-0.609 -0.967,-1.469 -0.967,-2.334 0,-0.866 0.354,-1.725 0.967,-2.334 L -4.671,0 c 0.793,-0.793 1.986,-1.13 3.078,-0.888 0.63,0.142 1.097,0.49 1.593,0.888"
             style="fill:#fccf34;fill-opacity:1;fill-rule:nonzero;stroke:none"
             id="path5625" />
        </g>
      </g>
    </g>
    <g
       transform="matrix(1.25,0,0,-1.25,138.95755,993.28817)"
       id="g5627">
      <g
         id="g5629"
         clip-path="url(#clipPath5631)">
        <g
           id="g5635"
           transform="translate(106.0231,429.7083)">
          <path
             inkscape:connector-curvature="0"
             d="m 0,0 32.694,32.698 c 0.617,0.613 0.974,1.463 0.974,2.334 0,0.869 -0.357,1.719 -0.974,2.334 L 0,70.063 c -0.617,0.616 -1.462,0.969 -2.337,0.967 -0.869,-0.004 -1.719,-0.353 -2.334,-0.967 L -37.365,37.366 c -0.613,-0.609 -0.967,-1.469 -0.967,-2.334 0,-0.866 0.354,-1.725 0.967,-2.334 L -4.671,0 c 0.793,-0.793 1.986,-1.13 3.078,-0.888 0.63,0.142 1.097,0.49 1.593,0.888 z"
             style="fill:none;stroke:#231f20;stroke-width:0.5;stroke-linecap:butt;stroke-linejoin:miter;stroke-miterlimit:4;stroke-opacity:1;stroke-dasharray:none"
             id="path5637" />
        </g>
      </g>
    </g>
    <g
       id="g5647"
       transform="matrix(1.25,0,0,-1.25,266.46568,455.33405)">
      <path
         d="m 0,0 -32.694,32.695 c -0.444,0.445 -0.697,1.055 -0.697,1.682 0,0.627 0.253,1.235 0.697,1.68 L 0,68.758 c 0.441,0.439 1.059,0.689 1.682,0.689 0.622,0 1.239,-0.25 1.679,-0.689 L 36.064,36.057 c 0.438,-0.442 0.689,-1.057 0.689,-1.68 0,-0.623 -0.251,-1.241 -0.689,-1.682 L 3.361,0 C 2.916,-0.444 2.309,-0.696 1.682,-0.696 1.054,-0.696 0.445,-0.444 0,0"
         style="fill:#231f20;fill-opacity:1;fill-rule:evenodd;stroke:none"
         id="path5649"
         inkscape:connector-curvature="0" />
    </g>
    <g
       id="g5651"
       transform="matrix(1.25,0,0,-1.25,267.6083,454.19404)">
      <path
         d="m 0,0 c 0.199,-0.201 0.486,-0.319 0.767,-0.319 0.278,0 0.573,0.118 0.771,0.319 l 32.696,32.697 c 0.199,0.199 0.316,0.487 0.316,0.768 0,0.278 -0.117,0.572 -0.316,0.772 L 1.538,66.932 C 1.336,67.131 1.051,67.243 0.767,67.243 0.484,67.241 0.202,67.131 0,66.932 L -32.7,34.237 c -0.198,-0.2 -0.316,-0.494 -0.316,-0.772 0,-0.281 0.118,-0.569 0.316,-0.768 L 0,0 z"
         style="fill:#fccf34;fill-opacity:1;fill-rule:evenodd;stroke:none"
         id="path5653"
         inkscape:connector-curvature="0" />
    </g>
    <g
       id="g5655"
       transform="matrix(1.25,0,0,-1.25,251.14955,417.25529)">
      <path
         d="m 0,0 8.166,8.168 11.547,0 8.176,-8.168 0,-11.555 -8.176,-8.166 -11.547,0 L 0,-11.555 0,0 z"
         style="fill:#ffffff;fill-opacity:1;fill-rule:evenodd;stroke:none"
         id="path5657"
         inkscape:connector-curvature="0" />
    </g>
    <g
       id="g5659"
       transform="matrix(1.25,0,0,-1.25,251.99543,417.61904)">
      <path
         d="m 0,0 0,-10.987 7.781,-7.771 10.973,0 7.769,7.771 0,10.987 -7.769,7.768 -10.973,0 L 0,0 z"
         style="fill:#c4122e;fill-opacity:1;fill-rule:evenodd;stroke:none"
         id="path5661"
         inkscape:connector-curvature="0" />
    </g>
    <g
       id="g5663"
       transform="matrix(1.25,0,0,-1.25,274.00968,398.54154)">
      <path
         d="m 0,0 -8.791,-0.01 -0.022,8.158 -7.73,-1.623 c -0.251,-0.053 -0.353,-0.082 -0.436,-0.082 -0.519,0.002 -0.996,0.5 -0.995,1.02 0,0.207 -0.016,0.363 0.23,0.582 L -4.423,19.9 8.863,8.021 C 9.073,7.832 9.091,7.646 9.091,7.439 9.09,6.898 8.611,6.422 8.071,6.424 7.988,6.424 7.973,6.441 7.78,6.486 L -0.021,8.256 0,0 z"
         style="fill:#231f20;fill-opacity:1;fill-rule:evenodd;stroke:none"
         id="path5665"
         inkscape:connector-curvature="0" />
    </g>
  </g>
</svg>
