<?xml version="1.0" encoding="UTF-8" standalone="no"?>
<!-- Created with Inkscape (http://www.inkscape.org/) -->

<svg
   xmlns:dc="http://purl.org/dc/elements/1.1/"
   xmlns:cc="http://creativecommons.org/ns#"
   xmlns:rdf="http://www.w3.org/1999/02/22-rdf-syntax-ns#"
   xmlns:svg="http://www.w3.org/2000/svg"
   xmlns="http://www.w3.org/2000/svg"
   xmlns:sodipodi="http://sodipodi.sourceforge.net/DTD/sodipodi-0.dtd"
   xmlns:inkscape="http://www.inkscape.org/namespaces/inkscape"
   width="90.626869"
   height="90.630562"
   id="svg7027"
   version="1.1"
   inkscape:version="0.48.2 r9819"
   sodipodi:docname="New document 46">
  <defs
     id="defs7029">
    <clipPath
       clipPathUnits="userSpaceOnUse"
       id="clipPath4407">
      <path
         inkscape:connector-curvature="0"
         d="m 63.125,37.195 512.875,0 0,702.805 -512.875,0 0,-702.805 z"
         id="path4409" />
    </clipPath>
  </defs>
  <sodipodi:namedview
     id="base"
     pagecolor="#ffffff"
     bordercolor="#666666"
     borderopacity="1.0"
     inkscape:pageopacity="0.0"
     inkscape:pageshadow="2"
     inkscape:zoom="0.35"
     inkscape:cx="174.60581"
     inkscape:cy="22.465986"
     inkscape:document-units="px"
     inkscape:current-layer="layer1"
     showgrid="false"
     fit-margin-top="0"
     fit-margin-left="0"
     fit-margin-right="0"
     fit-margin-bottom="0"
     inkscape:window-width="469"
     inkscape:window-height="425"
     inkscape:window-x="1391"
     inkscape:window-y="25"
     inkscape:window-maximized="0" />
  <metadata
     id="metadata7032">
    <rdf:RDF>
      <cc:Work
         rdf:about="">
        <dc:format>image/svg+xml</dc:format>
        <dc:type
           rdf:resource="http://purl.org/dc/dcmitype/StillImage" />
        <dc:title></dc:title>
      </cc:Work>
    </rdf:RDF>
  </metadata>
  <g
     inkscape:label="Layer 1"
     inkscape:groupmode="layer"
     id="layer1"
     transform="translate(-200.39419,-464.1976)">
    <g
       transform="matrix(1.25,0,0,-1.25,-207.70756,1090.2276)"
       id="g4403">
      <g
         id="g4405"
         clip-path="url(#clipPath4407)">
        <g
           id="g4411"
           transform="translate(327.6956,466.9133)">
          <path
             inkscape:connector-curvature="0"
             d="m 0,0 32.7,32.701 c 1.287,1.285 3.384,1.285 4.671,0 L 70.071,0 c 1.287,-1.286 1.287,-3.383 0,-4.67 l -32.7,-32.7 c -1.287,-1.287 -3.384,-1.287 -4.671,0 L 0,-4.67 c -1.269,1.269 -1.271,3.4 0,4.67"
             style="fill:#fccf34;fill-opacity:1;fill-rule:nonzero;stroke:#231f20;stroke-width:0.5;stroke-linecap:butt;stroke-linejoin:miter;stroke-miterlimit:4;stroke-opacity:1;stroke-dasharray:none"
             id="path4413" />
        </g>
        <g
           id="g4415"
           transform="translate(328.3526,466.2723)">
          <path
             inkscape:connector-curvature="0"
             d="m 0,0 32.683,32.684 c 0.928,0.927 2.463,0.925 3.391,0 L 68.756,0 c 0.928,-0.928 0.924,-2.461 0,-3.389 L 36.074,-36.072 c -0.93,-0.924 -2.461,-0.926 -3.391,0 L 0,-3.389 C -0.923,-2.461 -0.927,-0.928 0,0"
             style="fill:#231f20;fill-opacity:1;fill-rule:evenodd;stroke:none"
             id="path4417" />
        </g>
        <g
           id="g4419"
           transform="translate(329.2726,465.3753)">
          <path
             inkscape:connector-curvature="0"
             d="m 0,0 32.66,32.661 c 0.431,0.447 1.166,0.447 1.597,0 L 66.917,0 c 0.446,-0.429 0.446,-1.166 0,-1.595 l -32.66,-32.66 c -0.431,-0.446 -1.167,-0.448 -1.597,0 L 0,-1.595 C -0.446,-1.164 -0.446,-0.429 0,0"
             style="fill:#fccf34;fill-opacity:1;fill-rule:evenodd;stroke:none"
             id="path4421" />
        </g>
        <g
           id="g4423"
           transform="translate(385.6766,474.4443)">
          <path
             inkscape:connector-curvature="0"
             d="M 0,0 -1.422,0 -2.102,-4.633 -3.244,0 -4.604,0 -5.715,-4.633 -6.395,0 l -1.42,0 1.297,-8.803 1.236,0 1.358,5.652 1.391,-5.652 1.235,0 L 0,0 z m -10.348,-4.418 c 0,-0.678 -0.154,-1.543 -0.34,-2.008 -0.308,-0.771 -0.711,-1.111 -1.359,-1.111 -0.556,0 -0.926,0.216 -1.205,0.679 -0.339,0.557 -0.525,1.514 -0.525,2.44 0,0.742 0.124,1.545 0.34,2.07 0.31,0.772 0.742,1.111 1.421,1.082 0.526,-0.031 0.865,-0.217 1.143,-0.68 0.34,-0.587 0.525,-1.482 0.525,-2.472 m 1.39,0 c 0,1.113 -0.216,2.224 -0.587,2.998 -0.556,1.08 -1.328,1.574 -2.44,1.574 -1.019,0 -1.73,-0.309 -2.255,-0.988 -0.586,-0.834 -0.957,-2.131 -0.957,-3.584 0,-1.049 0.247,-2.223 0.617,-2.965 0.525,-1.08 1.298,-1.58 2.533,-1.58 0.927,0 1.637,0.314 2.131,0.994 0.618,0.772 0.958,2.162 0.958,3.551 m -9.081,1.947 c 0,-0.371 -0.216,-0.742 -0.556,-0.928 -0.216,-0.123 -0.37,-0.154 -0.804,-0.154 l -1.667,0 0,2.162 1.667,0 c 0.464,0 0.588,-0.029 0.804,-0.154 0.34,-0.186 0.556,-0.555 0.556,-0.926 m 1.576,-6.332 -1.545,4.107 c 0.803,0.372 1.359,1.297 1.359,2.225 0,0.895 -0.556,1.822 -1.328,2.193 C -18.41,-0.063 -18.873,0 -19.553,0 l -2.902,0 0,-8.803 1.389,0 0,3.83 1.667,0 1.422,-3.83 1.514,0 z m -9.02,6.332 c 0,-0.371 -0.216,-0.742 -0.556,-0.928 -0.216,-0.123 -0.37,-0.154 -0.803,-0.154 l -1.668,0 0,2.162 1.668,0 c 0.463,0 0.587,-0.029 0.803,-0.154 0.34,-0.186 0.556,-0.555 0.556,-0.926 m 1.576,-6.332 -1.544,4.107 c 0.802,0.372 1.358,1.297 1.358,2.225 0,0.895 -0.556,1.822 -1.328,2.193 C -25.854,-0.063 -26.317,0 -26.996,0 l -2.904,0 0,-8.803 1.39,0 0,3.83 1.668,0 1.421,-3.83 1.514,0 z m -10.163,3.891 -1.76,0 0.896,2.472 0.864,-2.472 z m 2.842,-3.891 -3.027,8.803 -1.39,0 -3.027,-8.803 1.482,0 0.866,2.471 2.749,0 0.864,-2.471 1.483,0 z m -8.741,0 0,8.803 -1.391,0 0,-5.621 -3.21,5.621 -1.391,0 0,-8.803 1.391,0 0,5.961 3.366,-5.961 1.235,0 z"
             style="fill:#231f20;fill-opacity:1;fill-rule:evenodd;stroke:none"
             id="path4425" />
        </g>
        <g
           id="g4427"
           transform="translate(381.8106,452.4713)">
          <path
             inkscape:connector-curvature="0"
             d="m 0,0 0,1.422 -4.078,0 0,2.408 2.564,0 0,1.422 -2.564,0 0,2.162 3.799,0 0,1.391 -5.189,0 L -5.468,0 0,0 z m -7.136,2.627 0,1.76 -2.996,0 0,-1.391 1.606,0 0,-0.369 c 0,-0.805 -0.648,-1.359 -1.544,-1.359 -0.525,0 -0.926,0.217 -1.205,0.711 -0.277,0.554 -0.431,1.482 -0.431,2.408 0,0.742 0.123,1.545 0.339,2.07 0.309,0.772 0.772,1.08 1.483,1.08 0.68,0 1.05,-0.277 1.42,-1.049 l 1.328,0.524 c -0.586,1.39 -1.39,1.947 -2.748,1.947 -0.988,0 -1.731,-0.34 -2.255,-0.988 -0.587,-0.774 -0.989,-2.162 -0.989,-3.584 0,-1.08 0.216,-2.162 0.588,-2.934 0.525,-1.113 1.296,-1.611 2.625,-1.611 1.605,0 2.779,1.178 2.779,2.785 m -8.895,1.791 c 0,-1.174 -0.278,-2.131 -0.803,-2.656 -0.247,-0.248 -0.525,-0.34 -0.989,-0.34 l -1.389,0 0,5.992 1.574,0 c 0.371,0 0.68,-0.154 0.896,-0.371 0.433,-0.463 0.711,-1.451 0.711,-2.625 m 1.42,0 c 0,1.731 -0.525,3.119 -1.451,3.922 -0.463,0.371 -0.803,0.465 -1.699,0.465 l -2.842,0 0,-8.805 2.688,0 0.494,0 c 0.463,0.031 0.926,0.186 1.266,0.494 0.989,0.774 1.544,2.162 1.544,3.924 m -7.814,4.387 -1.421,0 0,-8.805 1.421,0 0,8.805 z m -4.201,-2.473 c 0,-0.369 -0.216,-0.74 -0.555,-0.926 -0.217,-0.123 -0.371,-0.154 -0.804,-0.154 l -1.668,0 0,2.162 1.668,0 c 0.464,0 0.587,-0.031 0.804,-0.154 0.339,-0.186 0.555,-0.557 0.555,-0.928 M -25.05,0 -26.595,4.11 c 0.803,0.371 1.359,1.296 1.359,2.222 0,0.897 -0.556,1.824 -1.328,2.194 -0.432,0.216 -0.896,0.279 -1.575,0.279 l -2.903,0 0,-8.805 1.389,0 0,3.83 1.668,0 1.421,-3.83 1.514,0 z m -8.618,2.442 c 0,-0.68 -0.37,-1.02 -1.081,-1.02 l -2.1,0 0,2.408 1.76,0 c 0.308,0 0.402,0 0.587,-0.06 0.494,-0.186 0.834,-0.743 0.834,-1.328 m -0.185,4.076 c 0,-0.401 -0.185,-0.772 -0.494,-1.02 -0.248,-0.183 -0.434,-0.246 -0.834,-0.246 l -1.668,0 0,2.162 2.038,0 c 0.618,0 0.958,-0.308 0.958,-0.896 m 1.606,-4.045 c 0,0.957 -0.526,1.697 -1.452,2.131 0.834,0.463 1.235,1.111 1.235,1.976 0,1.266 -1.049,2.225 -2.44,2.225 l -3.336,0 0,-8.805 3.336,0 c 0.402,0 0.927,0.094 1.236,0.217 0.834,0.34 1.421,1.297 1.421,2.256"
             style="fill:#231f20;fill-opacity:1;fill-rule:evenodd;stroke:none"
             id="path4429" />
        </g>
      </g>
    </g>
  </g>
</svg>
