<?xml version="1.0" encoding="UTF-8" standalone="no"?>
<!-- Created with Inkscape (http://www.inkscape.org/) -->

<svg
   xmlns:dc="http://purl.org/dc/elements/1.1/"
   xmlns:cc="http://creativecommons.org/ns#"
   xmlns:rdf="http://www.w3.org/1999/02/22-rdf-syntax-ns#"
   xmlns:svg="http://www.w3.org/2000/svg"
   xmlns="http://www.w3.org/2000/svg"
   xmlns:sodipodi="http://sodipodi.sourceforge.net/DTD/sodipodi-0.dtd"
   xmlns:inkscape="http://www.inkscape.org/namespaces/inkscape"
   width="90.618523"
   height="90.620277"
   id="svg7225"
   version="1.1"
   inkscape:version="0.48.2 r9819"
   sodipodi:docname="New document 52">
  <defs
     id="defs7227">
    <clipPath
       clipPathUnits="userSpaceOnUse"
       id="clipPath4499">
      <path
         inkscape:connector-curvature="0"
         d="m 63.125,37.195 512.875,0 0,702.805 -512.875,0 0,-702.805 z"
         id="path4501" />
    </clipPath>
  </defs>
  <sodipodi:namedview
     id="base"
     pagecolor="#ffffff"
     bordercolor="#666666"
     borderopacity="1.0"
     inkscape:pageopacity="0.0"
     inkscape:pageshadow="2"
     inkscape:zoom="0.35"
     inkscape:cx="174.61094"
     inkscape:cy="28.163042"
     inkscape:document-units="px"
     inkscape:current-layer="layer1"
     showgrid="false"
     fit-margin-top="0"
     fit-margin-left="0"
     fit-margin-right="0"
     fit-margin-bottom="0"
     inkscape:window-width="469"
     inkscape:window-height="425"
     inkscape:window-x="1441"
     inkscape:window-y="75"
     inkscape:window-maximized="0" />
  <metadata
     id="metadata7230">
    <rdf:RDF>
      <cc:Work
         rdf:about="">
        <dc:format>image/svg+xml</dc:format>
        <dc:type
           rdf:resource="http://purl.org/dc/dcmitype/StillImage" />
        <dc:title></dc:title>
      </cc:Work>
    </rdf:RDF>
  </metadata>
  <g
     inkscape:label="Layer 1"
     inkscape:groupmode="layer"
     id="layer1"
     transform="translate(-200.38906,-469.90494)">
    <g
       transform="matrix(1.25,0,0,-1.25,-315.63818,1095.9406)"
       id="g4495">
      <g
         id="g4497"
         clip-path="url(#clipPath4499)">
        <g
           id="g4503"
           transform="translate(414.4766,467.9573)">
          <path
             inkscape:connector-curvature="0"
             d="m 0,0 31.226,31.227 c 1.86,1.857 4.901,1.857 6.76,0 L 69.213,0 c 1.857,-1.859 1.857,-4.9 0,-6.759 L 37.986,-37.986 c -1.859,-1.859 -4.9,-1.859 -6.76,0 L 0,-6.759 C -1.86,-4.9 -1.86,-1.859 0,0"
             style="fill:#fccf34;fill-opacity:1;fill-rule:nonzero;stroke:none"
             id="path4505" />
        </g>
        <g
           id="g4507"
           transform="translate(414.4766,467.9573)">
          <path
             inkscape:connector-curvature="0"
             d="m 0,0 31.226,31.227 c 1.86,1.857 4.901,1.857 6.76,0 L 69.213,0 c 1.857,-1.859 1.857,-4.9 0,-6.759 L 37.986,-37.986 c -1.859,-1.859 -4.9,-1.859 -6.76,0 L 0,-6.759 C -1.86,-4.9 -1.86,-1.859 0,0 z"
             style="fill:none;stroke:#231f20;stroke-width:0.5;stroke-linecap:butt;stroke-linejoin:miter;stroke-miterlimit:4;stroke-opacity:1;stroke-dasharray:none"
             id="path4509" />
        </g>
        <g
           id="g4511"
           transform="translate(415.7336,467.5283)">
          <path
             inkscape:connector-curvature="0"
             d="m 0,0 30.399,30.396 c 1.623,1.623 4.277,1.623 5.898,0 L 66.696,0 c 1.623,-1.623 1.623,-4.278 0,-5.901 L 36.297,-36.299 c -1.621,-1.621 -4.275,-1.621 -5.898,0 L 0,-5.901 C -1.621,-4.278 -1.621,-1.623 0,0"
             style="fill:#231f20;fill-opacity:1;fill-rule:evenodd;stroke:none"
             id="path4513" />
        </g>
        <g
           id="g4515"
           transform="translate(417.3146,466.5753)">
          <path
             inkscape:connector-curvature="0"
             d="m 0,0 29.769,29.769 c 1.1,1.1 2.898,1.1 3.996,0 L 63.535,0 c 1.099,-1.098 1.099,-2.897 0,-3.996 l -29.77,-29.77 c -1.098,-1.098 -2.896,-1.098 -3.996,0 L 0,-3.996 C -1.098,-2.897 -1.098,-1.098 0,0"
             style="fill:#fccf34;fill-opacity:1;fill-rule:evenodd;stroke:none"
             id="path4517" />
        </g>
        <g
           id="g4519"
           transform="translate(471.9076,456.1533)">
          <path
             inkscape:connector-curvature="0"
             d="m 0,0 c 0,1.287 -0.754,2.26 -2.48,3.265 -0.66,0.377 -0.848,0.627 -0.848,1.067 0,0.597 0.471,1.037 1.067,1.037 0.566,0 1.005,-0.408 1.037,-1.037 l 1.224,0 c -0.031,1.349 -1.006,2.324 -2.261,2.324 -1.288,0 -2.291,-1.037 -2.291,-2.324 0,-0.785 0.376,-1.475 1.097,-1.979 1.822,-1.224 1.32,-0.879 1.508,-1.066 0.533,-0.408 0.723,-0.785 0.723,-1.287 0,-0.723 -0.567,-1.352 -1.256,-1.352 -0.879,0 -1.256,0.785 -1.256,1.539 l -1.256,0 c 0,-1.474 0.941,-2.799 2.512,-2.799 C -1.099,-2.612 0,-1.446 0,0 m -5.777,6.498 -1.256,0 -0.785,-4.772 -0.848,4.772 -1.004,0 -0.881,-4.772 -0.751,4.772 -1.256,0 1.412,-8.947 1.131,0 0.847,4.677 0.848,-4.677 1.098,0 1.445,8.947 z m -9.106,-4.457 c 0,-1.037 -0.062,-1.571 -0.283,-2.293 -0.219,-0.754 -0.564,-1.1 -1.097,-1.1 -0.567,0 -0.913,0.346 -1.131,1.1 -0.19,0.722 -0.283,1.287 -0.283,2.262 0,1.003 0.062,1.599 0.283,2.291 0.218,0.753 0.564,1.099 1.131,1.099 0.533,0 0.878,-0.346 1.097,-1.131 0.19,-0.66 0.283,-1.224 0.283,-2.228 m 1.225,0 c 0,1.349 -0.125,2.197 -0.502,3.076 -0.439,1.1 -1.068,1.539 -2.103,1.539 -1.038,0 -1.664,-0.439 -2.137,-1.508 -0.375,-0.847 -0.502,-1.758 -0.502,-3.107 0,-1.383 0.127,-2.231 0.502,-3.11 0.441,-1.066 1.068,-1.543 2.137,-1.543 1.003,0 1.664,0.477 2.103,1.543 0.377,0.848 0.502,1.727 0.502,3.11 m -7.818,2.072 c 0,-0.723 -0.409,-1.131 -1.162,-1.131 l -1.319,0 0,2.26 1.319,0 c 0.691,0 1.162,-0.439 1.162,-1.129 m 1.256,-6.562 -1.288,4.394 c 0.848,0.315 1.288,1.1 1.288,2.168 0,1.443 -0.942,2.385 -2.354,2.385 l -2.67,0 0,-8.947 1.287,0 0,4.207 1.225,0 1.193,-4.207 1.319,0 z m -7.756,6.562 c 0,-0.723 -0.409,-1.131 -1.162,-1.131 l -1.319,0 0,2.26 1.319,0 c 0.691,0 1.162,-0.439 1.162,-1.129 m 1.256,-6.562 -1.288,4.394 c 0.848,0.315 1.288,1.1 1.288,2.168 0,1.443 -0.942,2.385 -2.354,2.385 l -2.67,0 0,-8.947 1.287,0 0,4.207 1.225,0 1.193,-4.207 1.319,0 z m -8.477,3.705 -1.287,0 0.627,2.574 0.66,-2.574 z m 2.229,-3.705 -2.229,8.947 -1.256,0 -2.23,-8.947 1.289,0 0.595,2.449 1.916,0 0.627,-2.449 1.288,0 z m -6.94,0 0,8.947 -1.287,0 0,-5.369 -2.449,5.369 -1.287,0 0,-8.947 1.287,0 0,5.996 2.763,-5.996 0.973,0 z"
             style="fill:#231f20;fill-opacity:1;fill-rule:evenodd;stroke:none"
             id="path4521" />
        </g>
        <g
           id="g4523"
           transform="translate(441.2476,473.9973)">
          <path
             inkscape:connector-curvature="0"
             d="m 0,0 c 0,0.781 -0.308,1.216 -0.924,1.306 l -1.584,0 0,-2.596 1.584,0 C -0.308,-1.26 0,-0.831 0,0 m 1.25,0 c 0,-1.049 -0.371,-1.786 -1.109,-2.208 -0.383,-0.22 -0.758,-0.332 -1.129,-0.332 l -1.52,0 0,-3.853 -1.25,0 0,8.95 2.772,0 c 0.375,0 0.752,-0.107 1.127,-0.322 C 0.881,1.812 1.25,1.066 1.25,0"
             style="fill:#231f20;fill-opacity:1;fill-rule:nonzero;stroke:none"
             id="path4525" />
        </g>
        <g
           id="g4527"
           transform="translate(447.1466,471.2743)">
          <path
             inkscape:connector-curvature="0"
             d="M 0,0 -0.7,2.908 -1.407,0 0,0 z m 2.166,-3.67 -1.282,0 -0.58,2.422 -2.013,0 -0.582,-2.422 -1.272,0 2.166,8.95 1.397,0 2.166,-8.95 z"
             style="fill:#231f20;fill-opacity:1;fill-rule:nonzero;stroke:none"
             id="path4529" />
        </g>
        <g
           id="g4531"
           transform="translate(454.4136,475.3033)">
          <path
             inkscape:connector-curvature="0"
             d="m 0,0 -1.654,0 0,-7.699 -1.25,0 0,7.699 -1.66,0 0,1.251 L 0,1.251 0,0 z"
             style="fill:#231f20;fill-opacity:1;fill-rule:nonzero;stroke:none"
             id="path4533" />
        </g>
      </g>
    </g>
    <g
       id="g4543"
       transform="matrix(1.25,0,0,-1.25,260.20632,511.43526)">
      <path
         d="m 0,0 -1.25,0 0,4.115 -2.51,0 0,-4.115 -1.25,0 0,8.95 1.25,0 0,-3.585 2.51,0 0,3.585 L 0,8.95 0,0 z"
         style="fill:#231f20;fill-opacity:1;fill-rule:nonzero;stroke:none"
         id="path4545"
         inkscape:connector-curvature="0" />
    </g>
  </g>
</svg>
