<?xml version="1.0" encoding="UTF-8" standalone="no"?>
<!-- Created with Inkscape (http://www.inkscape.org/) -->

<svg
   xmlns:dc="http://purl.org/dc/elements/1.1/"
   xmlns:cc="http://creativecommons.org/ns#"
   xmlns:rdf="http://www.w3.org/1999/02/22-rdf-syntax-ns#"
   xmlns:svg="http://www.w3.org/2000/svg"
   xmlns="http://www.w3.org/2000/svg"
   xmlns:sodipodi="http://sodipodi.sourceforge.net/DTD/sodipodi-0.dtd"
   xmlns:inkscape="http://www.inkscape.org/namespaces/inkscape"
   width="90.627846"
   height="90.630699"
   id="svg7411"
   version="1.1"
   inkscape:version="0.48.2 r9819"
   sodipodi:docname="New document 56">
  <defs
     id="defs7413">
    <clipPath
       clipPathUnits="userSpaceOnUse"
       id="clipPath4555">
      <path
         inkscape:connector-curvature="0"
         d="m 63.125,37.195 512.875,0 0,702.805 -512.875,0 0,-702.805 z"
         id="path4557" />
    </clipPath>
  </defs>
  <sodipodi:namedview
     id="base"
     pagecolor="#ffffff"
     bordercolor="#666666"
     borderopacity="1.0"
     inkscape:pageopacity="0.0"
     inkscape:pageshadow="2"
     inkscape:zoom="0.35"
     inkscape:cx="146.03426"
     inkscape:cy="5.3243749"
     inkscape:document-units="px"
     inkscape:current-layer="layer1"
     showgrid="false"
     fit-margin-top="0"
     fit-margin-left="0"
     fit-margin-right="0"
     fit-margin-bottom="0"
     inkscape:window-width="469"
     inkscape:window-height="425"
     inkscape:window-x="1541"
     inkscape:window-y="175"
     inkscape:window-maximized="0" />
  <metadata
     id="metadata7416">
    <rdf:RDF>
      <cc:Work
         rdf:about="">
        <dc:format>image/svg+xml</dc:format>
        <dc:type
           rdf:resource="http://purl.org/dc/dcmitype/StillImage" />
        <dc:title></dc:title>
      </cc:Work>
    </rdf:RDF>
  </metadata>
  <g
     inkscape:label="Layer 1"
     inkscape:groupmode="layer"
     id="layer1"
     transform="translate(-228.96574,-447.05585)">
    <g
       id="g4547"
       transform="matrix(1.25,0,0,-1.25,230.48446,489.44437)">
      <path
         d="m 0,0 32.699,32.702 c 1.286,1.285 3.385,1.285 4.672,0 L 70.07,0 c 1.287,-1.285 1.287,-3.382 0,-4.67 L 37.371,-37.369 c -1.287,-1.287 -3.386,-1.287 -4.672,0 L 0,-4.67 C -1.271,-3.4 -1.271,-1.269 0,0"
         style="fill:#fccf34;fill-opacity:1;fill-rule:nonzero;stroke:#231f20;stroke-width:0.5;stroke-linecap:butt;stroke-linejoin:miter;stroke-miterlimit:4;stroke-opacity:1;stroke-dasharray:none"
         id="path4549"
         inkscape:connector-curvature="0" />
    </g>
    <g
       transform="matrix(1.25,0,0,-1.25,144.67984,931.871)"
       id="g4551">
      <g
         id="g4553"
         clip-path="url(#clipPath4555)">
        <g
           id="g4559"
           transform="translate(69.3009,353.3013)">
          <path
             inkscape:connector-curvature="0"
             d="m 0,0 32.683,32.683 c 0.926,0.928 2.464,0.926 3.39,0 L 68.756,0 c 0.928,-0.928 0.924,-2.461 0,-3.389 L 36.073,-36.073 c -0.928,-0.923 -2.462,-0.925 -3.39,0 L 0,-3.389 C -0.924,-2.461 -0.928,-0.928 0,0"
             style="fill:#231f20;fill-opacity:1;fill-rule:evenodd;stroke:none"
             id="path4561" />
        </g>
        <g
           id="g4563"
           transform="translate(70.2209,352.4043)">
          <path
             inkscape:connector-curvature="0"
             d="m 0,0 32.66,32.66 c 0.431,0.448 1.165,0.448 1.596,0 L 66.916,0 c 0.446,-0.429 0.446,-1.166 0,-1.595 l -32.66,-32.661 c -0.43,-0.445 -1.166,-0.447 -1.596,0 L 0,-1.595 C -0.446,-1.164 -0.446,-0.429 0,0"
             style="fill:#fccf34;fill-opacity:1;fill-rule:evenodd;stroke:none"
             id="path4565" />
        </g>
        <g
           id="g4567"
           transform="translate(127.7345,354.8283)">
          <path
             inkscape:connector-curvature="0"
             d="M 0,0 C 0,-0.617 -0.36,-1.287 -0.876,-1.545 -1.287,-1.75 -1.544,-1.801 -2.265,-1.801 l -3.038,0 0,3.604 3.038,0 c 0.721,0 0.978,-0.053 1.389,-0.258 C -0.36,1.236 0,0.617 0,0 m 2.368,0 c 0,1.494 -0.978,3.037 -2.265,3.656 -0.721,0.36 -1.493,0.463 -2.677,0.463 l -5.045,0 0,-14.672 2.316,0 0,6.383 2.729,0 c 1.133,0 2.008,0.207 2.677,0.516 C 1.39,-3.088 2.368,-1.545 2.368,0 m -13.662,-10.553 0,14.672 -2.316,0 -3.398,-8.236 -3.397,8.236 -2.317,0 0,-14.672 2.317,0 0,8.494 3.397,-8.494 3.398,8.494 0,-8.494 2.316,0 z m -15.051,5.252 0,9.42 -2.317,0 0,-9.42 c 0,-1.906 -1.08,-3.14 -2.676,-3.14 -1.596,0 -2.678,1.234 -2.678,3.14 l 0,9.42 -2.316,0 0,-9.42 c 0,-1.133 0.258,-2.162 0.67,-3.039 0.771,-1.441 2.521,-2.478 4.324,-2.478 1.801,0 3.552,1.037 4.324,2.478 0.412,0.877 0.669,1.906 0.669,3.039 m -14.948,-1.185 c 0,-1.133 -0.617,-1.698 -1.802,-1.698 l -3.501,0 0,4.014 2.935,0 c 0.514,0 0.669,0 0.977,-0.101 0.825,-0.309 1.391,-1.237 1.391,-2.215 m -0.309,6.795 c 0,-0.668 -0.308,-1.287 -0.824,-1.698 -0.412,-0.31 -0.721,-0.412 -1.389,-0.412 l -2.781,0 0,3.604 3.399,0 c 1.029,0 1.595,-0.516 1.595,-1.494 m 2.676,-6.743 c 0,1.596 -0.875,2.831 -2.419,3.551 1.39,0.772 2.06,1.854 2.06,3.295 0,2.112 -1.75,3.707 -4.067,3.707 l -5.56,0 0,-14.672 5.56,0 c 0.668,0 1.543,0.155 2.059,0.362 1.39,0.566 2.367,2.162 2.367,3.757"
             style="fill:#231f20;fill-opacity:1;fill-rule:evenodd;stroke:none"
             id="path4569" />
        </g>
      </g>
    </g>
  </g>
</svg>
