<?xml version="1.0" encoding="UTF-8" standalone="no"?>
<!-- Created with Inkscape (http://www.inkscape.org/) -->

<svg
   xmlns:dc="http://purl.org/dc/elements/1.1/"
   xmlns:cc="http://creativecommons.org/ns#"
   xmlns:rdf="http://www.w3.org/1999/02/22-rdf-syntax-ns#"
   xmlns:svg="http://www.w3.org/2000/svg"
   xmlns="http://www.w3.org/2000/svg"
   xmlns:sodipodi="http://sodipodi.sourceforge.net/DTD/sodipodi-0.dtd"
   xmlns:inkscape="http://www.inkscape.org/namespaces/inkscape"
   width="90.627357"
   height="90.632553"
   id="svg7470"
   version="1.1"
   inkscape:version="0.48.2 r9819"
   sodipodi:docname="New document 58">
  <defs
     id="defs7472">
    <clipPath
       clipPathUnits="userSpaceOnUse"
       id="clipPath4579">
      <path
         inkscape:connector-curvature="0"
         d="m 63.125,37.195 512.875,0 0,702.805 -512.875,0 0,-702.805 z"
         id="path4581" />
    </clipPath>
  </defs>
  <sodipodi:namedview
     id="base"
     pagecolor="#ffffff"
     bordercolor="#666666"
     borderopacity="1.0"
     inkscape:pageopacity="0.0"
     inkscape:pageshadow="2"
     inkscape:zoom="0.35"
     inkscape:cx="11.74829"
     inkscape:cy="28.181209"
     inkscape:document-units="px"
     inkscape:current-layer="layer1"
     showgrid="false"
     fit-margin-top="0"
     fit-margin-left="0"
     fit-margin-right="0"
     fit-margin-bottom="0"
     inkscape:window-width="469"
     inkscape:window-height="425"
     inkscape:window-x="1616"
     inkscape:window-y="250"
     inkscape:window-maximized="0" />
  <metadata
     id="metadata7475">
    <rdf:RDF>
      <cc:Work
         rdf:about="">
        <dc:format>image/svg+xml</dc:format>
        <dc:type
           rdf:resource="http://purl.org/dc/dcmitype/StillImage" />
        <dc:title></dc:title>
      </cc:Work>
    </rdf:RDF>
  </metadata>
  <g
     inkscape:label="Layer 1"
     inkscape:groupmode="layer"
     id="layer1"
     transform="translate(-363.25171,-469.91084)">
    <g
       transform="matrix(1.25,0,0,-1.25,170.45582,954.72783)"
       id="g4575">
      <g
         id="g4577"
         clip-path="url(#clipPath4579)">
        <g
           id="g4583"
           transform="translate(155.4513,353.9413)">
          <path
             inkscape:connector-curvature="0"
             d="m 0,0 32.699,32.7 c 1.287,1.287 3.385,1.287 4.672,0 L 70.07,0 c 1.287,-1.285 1.287,-3.382 0,-4.67 L 37.371,-37.369 c -1.287,-1.287 -3.385,-1.287 -4.672,0 L 0,-4.67 C -1.27,-3.4 -1.271,-1.269 0,0"
             style="fill:#fccf34;fill-opacity:1;fill-rule:nonzero;stroke:#231f20;stroke-width:0.5;stroke-linecap:butt;stroke-linejoin:miter;stroke-miterlimit:4;stroke-opacity:1;stroke-dasharray:none"
             id="path4585" />
        </g>
        <g
           id="g4587"
           transform="translate(156.1085,353.3013)">
          <path
             inkscape:connector-curvature="0"
             d="m 0,0 32.683,32.683 c 0.927,0.926 2.463,0.924 3.39,0 L 68.756,0 c 0.928,-0.928 0.924,-2.461 0,-3.389 L 36.073,-36.073 c -0.929,-0.923 -2.461,-0.925 -3.39,0 L 0,-3.389 C -0.924,-2.461 -0.928,-0.928 0,0"
             style="fill:#231f20;fill-opacity:1;fill-rule:evenodd;stroke:none"
             id="path4589" />
        </g>
        <g
           id="g4591"
           transform="translate(157.0285,352.4043)">
          <path
             inkscape:connector-curvature="0"
             d="m 0,0 32.66,32.66 c 0.431,0.448 1.165,0.446 1.597,0 L 66.916,0 c 0.446,-0.429 0.446,-1.166 0,-1.595 L 34.257,-34.256 c -0.431,-0.445 -1.167,-0.447 -1.597,0 L 0,-1.595 C -0.446,-1.164 -0.446,-0.429 0,0"
             style="fill:#fccf34;fill-opacity:1;fill-rule:evenodd;stroke:none"
             id="path4593" />
        </g>
        <g
           id="g4595"
           transform="translate(207.6306,354.4693)">
          <path
             inkscape:connector-curvature="0"
             d="m 0,0 c 0,-1.082 -0.875,-1.803 -2.162,-1.803 l -4.272,0 0,3.656 4.272,0 C -0.875,1.853 0,1.133 0,0 m 2.627,0 c 0,1.646 -0.876,3.088 -2.265,3.861 -0.824,0.463 -1.493,0.617 -2.626,0.617 l -6.847,0 0,-14.672 2.677,0 0,5.766 4.17,0 c 1.133,0 1.802,0.103 2.626,0.566 C 1.751,-3.09 2.627,-1.545 2.627,0 m -17.507,4.478 -2.626,0 0,-14.672 2.626,0 0,14.672 z m -10.609,-7.31 c 0,-2.008 -0.721,-3.346 -2.265,-4.17 -0.618,-0.36 -1.338,-0.567 -2.111,-0.567 l -2.059,0 0,9.422 2.059,0 c 0.773,0 1.545,-0.207 2.214,-0.566 1.441,-0.824 2.162,-2.162 2.162,-4.119 m 2.626,0 c 0,2.882 -1.236,5.095 -3.501,6.382 -1.081,0.62 -2.265,0.928 -3.501,0.928 l -4.736,0 0,-14.672 4.736,0 c 1.185,0 2.42,0.309 3.449,0.875 2.317,1.287 3.553,3.553 3.553,6.487"
             style="fill:#231f20;fill-opacity:1;fill-rule:evenodd;stroke:none"
             id="path4597" />
        </g>
      </g>
    </g>
  </g>
</svg>
