<?xml version="1.0" encoding="UTF-8" standalone="no"?>
<!-- Created with Inkscape (http://www.inkscape.org/) -->

<svg
   xmlns:dc="http://purl.org/dc/elements/1.1/"
   xmlns:cc="http://creativecommons.org/ns#"
   xmlns:rdf="http://www.w3.org/1999/02/22-rdf-syntax-ns#"
   xmlns:svg="http://www.w3.org/2000/svg"
   xmlns="http://www.w3.org/2000/svg"
   xmlns:sodipodi="http://sodipodi.sourceforge.net/DTD/sodipodi-0.dtd"
   xmlns:inkscape="http://www.inkscape.org/namespaces/inkscape"
   width="240.095"
   height="43.89875"
   id="svg26299"
   version="1.1"
   inkscape:version="0.48.2 r9819"
   sodipodi:docname="New document 231">
  <defs
     id="defs26301">
    <clipPath
       clipPathUnits="userSpaceOnUse"
       id="clipPath26129">
      <path
         inkscape:connector-curvature="0"
         d="m 63,44.75 513.375,0 0,692.5 -513.375,0 0,-692.5 z"
         id="path26131" />
    </clipPath>
  </defs>
  <sodipodi:namedview
     id="base"
     pagecolor="#ffffff"
     bordercolor="#666666"
     borderopacity="1.0"
     inkscape:pageopacity="0.0"
     inkscape:pageshadow="2"
     inkscape:zoom="0.35"
     inkscape:cx="155.0475"
     inkscape:cy="4.8065174"
     inkscape:document-units="px"
     inkscape:current-layer="layer1"
     showgrid="false"
     fit-margin-top="0"
     fit-margin-left="0"
     fit-margin-right="0"
     fit-margin-bottom="0"
     inkscape:window-width="469"
     inkscape:window-height="425"
     inkscape:window-x="1541"
     inkscape:window-y="175"
     inkscape:window-maximized="0" />
  <metadata
     id="metadata26304">
    <rdf:RDF>
      <cc:Work
         rdf:about="">
        <dc:format>image/svg+xml</dc:format>
        <dc:type
           rdf:resource="http://purl.org/dc/dcmitype/StillImage" />
        <dc:title></dc:title>
      </cc:Work>
    </rdf:RDF>
  </metadata>
  <g
     inkscape:label="Layer 1"
     inkscape:groupmode="layer"
     id="layer1"
     transform="translate(-219.9525,-493.26995)">
    <g
       transform="matrix(1.25,0,0,-1.25,121.41187,862.93995)"
       id="g26125">
      <g
         id="g26127"
         clip-path="url(#clipPath26129)">
        <g
           id="g26133"
           transform="translate(82.7437,260.867)">
          <path
             inkscape:connector-curvature="0"
             d="m 0,0 c -2.019,0 -3.661,1.642 -3.661,3.66 l 0,27.295 c 0,2.021 1.642,3.664 3.661,3.664 l 184.253,0 c 2.02,0 3.662,-1.643 3.662,-3.664 l 0,-27.295 C 187.915,1.642 186.273,0 184.253,0 L 0,0 z"
             style="fill:#ffffff;fill-opacity:1;fill-rule:nonzero;stroke:none"
             id="path26135" />
        </g>
        <g
           id="g26137"
           transform="translate(266.9965,295.736)">
          <path
             inkscape:connector-curvature="0"
             d="m 0,0 -184.253,0 c -2.157,0 -3.911,-1.756 -3.911,-3.914 l 0,-27.295 c 0,-2.156 1.754,-3.91 3.911,-3.91 l 184.253,0 c 2.157,0 3.912,1.754 3.912,3.91 l 0,27.295 C 3.912,-1.756 2.157,0 0,0 m 0,-0.5 c 1.885,0 3.412,-1.527 3.412,-3.414 l 0,-27.295 c 0,-1.884 -1.527,-3.41 -3.412,-3.41 l -184.253,0 c -1.885,0 -3.411,1.526 -3.411,3.41 l 0,27.295 c 0,1.887 1.526,3.414 3.411,3.414 L 0,-0.5"
             style="fill:#231f20;fill-opacity:1;fill-rule:nonzero;stroke:none"
             id="path26139" />
        </g>
        <g
           id="g26141"
           transform="translate(81.6069,264.527)">
          <path
             inkscape:connector-curvature="0"
             d="m 0,0 0,27.295 c 0,0.629 0.51,1.139 1.137,1.139 l 184.253,0 c 0.627,0 1.137,-0.51 1.137,-1.139 l 0,-27.295 c 0,-0.627 -0.51,-1.136 -1.137,-1.136 l -184.253,0 C 0.51,-1.136 0,-0.627 0,0"
             style="fill:#00674c;fill-opacity:1;fill-rule:nonzero;stroke:none"
             id="path26143" />
        </g>
        <g
           id="g26145"
           transform="translate(100.5522,272.484)">
          <path
             inkscape:connector-curvature="0"
             d="m 0,0 0,11.371 8.329,0 0,-2.029 -6.247,0 0,-2.117 3.404,0 0,-2.074 -3.404,0 0,-3.115 6.447,0 L 8.529,0 0,0 z"
             style="fill:#ffffff;fill-opacity:1;fill-rule:nonzero;stroke:none"
             id="path26147" />
        </g>
        <path
           inkscape:connector-curvature="0"
           d="m 122.85,283.855 2.048,0 0,-11.371 -2.048,0 0,11.371 z"
           style="fill:#ffffff;fill-opacity:1;fill-rule:nonzero;stroke:none"
           id="path26149" />
        <g
           id="g26151"
           transform="translate(140.853,277.588)">
          <path
             inkscape:connector-curvature="0"
             d="m 0,0 c -0.507,0.141 -1.78,0.445 -2.209,0.699 -0.856,0.5 -1.511,1.32 -1.511,2.539 0,1.877 1.604,3.151 3.928,3.151 1.684,0 3.086,-0.557 4.248,-1.752 L 2.934,3.277 C 2.212,4.037 1.29,4.394 0.208,4.394 c -1.163,0 -1.843,-0.437 -1.843,-1.156 0,-0.637 0.401,-0.918 1.802,-1.236 1.523,-0.32 2.526,-0.641 3.167,-0.959 1.002,-0.52 1.644,-1.594 1.644,-2.834 0,-1.158 -0.522,-2.035 -1.603,-2.672 -0.803,-0.479 -1.844,-0.76 -2.886,-0.76 -1.965,0 -3.447,0.719 -4.73,2.194 l 1.643,1.279 c 0.842,-0.998 1.764,-1.436 3.046,-1.436 1.444,0 2.486,0.637 2.486,1.475 C 2.934,-0.643 1.773,-0.486 0,0"
             style="fill:#ffffff;fill-opacity:1;fill-rule:nonzero;stroke:none"
             id="path26153" />
        </g>
        <g
           id="g26155"
           transform="translate(132.0923,281.865)">
          <path
             inkscape:connector-curvature="0"
             d="m 0,0 0,-9.381 -1.993,0 0,9.381 -3.269,0 0,1.99 8.53,0 L 3.268,0 0,0 z"
             style="fill:#ffffff;fill-opacity:1;fill-rule:nonzero;stroke:none"
             id="path26157" />
        </g>
        <g
           id="g26159"
           transform="translate(118.1704,272.484)">
          <path
             inkscape:connector-curvature="0"
             d="M 0,0 -2.566,4.032 -5.091,0 l -2.405,0 3.728,5.989 -3.407,5.382 2.445,0 2.164,-3.468 2.165,3.468 2.444,0 L -1.323,5.989 2.404,0 0,0 z"
             style="fill:#ffffff;fill-opacity:1;fill-rule:nonzero;stroke:none"
             id="path26161" />
        </g>
        <g
           id="g26163"
           transform="translate(212.4915,282.451)">
          <path
             inkscape:connector-curvature="0"
             d="m 0,0 -2.393,-5.744 4.788,0 L 0,0 z m 5.386,-12.808 -1.676,4.011 -7.42,0 -1.676,-4.011 -3.351,0 7.181,17.06 3.112,0 7.122,-17.06 -3.292,0 z"
             style="fill:#ffffff;fill-opacity:1;fill-rule:nonzero;stroke:none"
             id="path26165" />
        </g>
        <g
           id="g26167"
           transform="translate(243.3575,277.184)">
          <path
             inkscape:connector-curvature="0"
             d="m 0,0 -4.87,0 0,-4.487 4.87,0 c 1.623,0 2.766,0.895 2.766,2.153 C 2.766,-1.018 1.563,0 0,0 m 0,6.464 -4.87,0 0,-3.41 4.87,0 c 1.323,0 2.225,0.719 2.225,1.735 C 2.225,5.808 1.382,6.464 0,6.464 M 3.246,-6.823 C 2.404,-7.305 1.502,-7.541 0.6,-7.541 l -0.841,0 -7.755,0 0,17.06 7.996,0 C 1.502,9.519 2.043,9.398 2.946,8.92 4.389,8.082 5.289,6.646 5.289,5.029 5.289,3.654 4.748,2.455 3.606,1.496 5.11,0.42 5.83,-0.897 5.83,-2.514 5.83,-4.25 4.809,-5.985 3.246,-6.823"
             style="fill:#ffffff;fill-opacity:1;fill-rule:nonzero;stroke:none"
             id="path26169" />
        </g>
        <g
           id="g26171"
           transform="translate(169.3716,269.342)">
          <path
             inkscape:connector-curvature="0"
             d="m 0,0 c -2.104,0 -4.209,0.719 -5.711,2.095 -0.421,0.36 -0.722,0.661 -1.323,1.377 l 2.465,1.856 c 1.203,-1.559 2.765,-2.213 4.749,-2.213 2.103,0 3.547,0.955 3.547,2.393 0,0.837 -0.54,1.796 -1.323,2.214 -0.481,0.239 -1.021,0.36 -1.683,0.36 l -0.841,0 0,3.053 0.722,0 c 1.321,0 2.284,0.718 2.284,1.677 0,1.016 -1.203,1.795 -3.006,1.795 -1.443,0 -2.767,-0.597 -3.787,-1.678 l -2.285,2.096 c 1.683,1.737 3.787,2.637 6.252,2.637 3.427,0 5.952,-2.039 5.952,-4.791 C 6.012,11.734 5.65,10.957 4.629,9.638 6.313,8.14 6.793,7.244 6.793,5.629 6.793,2.455 3.848,0 0,0"
             style="fill:#ffffff;fill-opacity:1;fill-rule:nonzero;stroke:none"
             id="path26173" />
        </g>
        <g
           id="g26175"
           transform="translate(185.5875,269.342)">
          <path
             inkscape:connector-curvature="0"
             d="m 0,0 c -2.105,0 -4.209,0.719 -5.712,2.095 -0.421,0.36 -0.721,0.661 -1.322,1.377 l 2.466,1.856 c 1.202,-1.559 2.765,-2.213 4.748,-2.213 2.104,0 3.548,0.955 3.548,2.393 0,0.837 -0.543,1.796 -1.324,2.214 -0.481,0.239 -1.021,0.36 -1.682,0.36 l -0.842,0 0,3.053 0.72,0 c 1.323,0 2.287,0.718 2.287,1.677 0,1.016 -1.204,1.795 -3.007,1.795 -1.444,0 -2.766,-0.597 -3.788,-1.678 l -2.284,2.096 c 1.683,1.737 3.788,2.637 6.252,2.637 3.427,0 5.953,-2.039 5.953,-4.791 0,-1.137 -0.362,-1.914 -1.384,-3.233 C 6.312,8.14 6.794,7.244 6.794,5.629 6.794,2.455 3.848,0 0,0"
             style="fill:#ffffff;fill-opacity:1;fill-rule:nonzero;stroke:none"
             id="path26177" />
        </g>
        <path
           inkscape:connector-curvature="0"
           d="m 222.262,279.58 8.531,0 0,-3.055 -8.531,0 0,3.055 z"
           style="fill:#ffffff;fill-opacity:1;fill-rule:nonzero;stroke:none"
           id="path26179" />
      </g>
    </g>
  </g>
</svg>
