<?xml version="1.0" encoding="UTF-8" standalone="no"?>
<!-- Created with Inkscape (http://www.inkscape.org/) -->

<svg
   xmlns:dc="http://purl.org/dc/elements/1.1/"
   xmlns:cc="http://creativecommons.org/ns#"
   xmlns:rdf="http://www.w3.org/1999/02/22-rdf-syntax-ns#"
   xmlns:svg="http://www.w3.org/2000/svg"
   xmlns="http://www.w3.org/2000/svg"
   xmlns:sodipodi="http://sodipodi.sourceforge.net/DTD/sodipodi-0.dtd"
   xmlns:inkscape="http://www.inkscape.org/namespaces/inkscape"
   width="181.03"
   height="27.421249"
   id="svg22253"
   version="1.1"
   inkscape:version="0.48.2 r9819"
   sodipodi:docname="New document 192">
  <defs
     id="defs22255" />
  <sodipodi:namedview
     id="base"
     pagecolor="#ffffff"
     bordercolor="#666666"
     borderopacity="1.0"
     inkscape:pageopacity="0.0"
     inkscape:pageshadow="2"
     inkscape:zoom="0.35"
     inkscape:cx="116.94357"
     inkscape:cy="-37.717941"
     inkscape:document-units="px"
     inkscape:current-layer="layer1"
     showgrid="false"
     fit-margin-top="0"
     fit-margin-left="0"
     fit-margin-right="0"
     fit-margin-bottom="0"
     inkscape:window-width="469"
     inkscape:window-height="425"
     inkscape:window-x="1471"
     inkscape:window-y="65"
     inkscape:window-maximized="0" />
  <metadata
     id="metadata22258">
    <rdf:RDF>
      <cc:Work
         rdf:about="">
        <dc:format>image/svg+xml</dc:format>
        <dc:type
           rdf:resource="http://purl.org/dc/dcmitype/StillImage" />
        <dc:title></dc:title>
      </cc:Work>
    </rdf:RDF>
  </metadata>
  <g
     inkscape:label="Layer 1"
     inkscape:groupmode="layer"
     id="layer1"
     transform="translate(-258.05643,-467.22299)">
    <g
       id="g21590"
       transform="matrix(1.25,0,0,-1.25,438.93018,491.47549)">
      <path
         d="m 0,0 c 0,-1.325 -1.084,-2.41 -2.41,-2.41 l -139.754,0 c -1.325,0 -2.41,1.085 -2.41,2.41 l 0,16.866 c 0,1.326 1.085,2.411 2.41,2.411 l 139.754,0 C -1.084,19.277 0,18.192 0,16.866 L 0,0 z"
         style="fill:#fccf34;fill-opacity:1;fill-rule:nonzero;stroke:none"
         id="path21592"
         inkscape:connector-curvature="0" />
    </g>
    <g
       id="g21594"
       transform="matrix(1.25,0,0,-1.25,438.93018,491.47549)">
      <path
         d="m 0,0 c 0,-1.325 -1.084,-2.41 -2.41,-2.41 l -139.754,0 c -1.325,0 -2.41,1.085 -2.41,2.41 l 0,16.866 c 0,1.326 1.085,2.411 2.41,2.411 l 139.754,0 C -1.084,19.277 0,18.192 0,16.866 L 0,0 z"
         style="fill:none;stroke:#231f20;stroke-width:0.25;stroke-linecap:butt;stroke-linejoin:miter;stroke-miterlimit:4;stroke-opacity:1;stroke-dasharray:none"
         id="path21596"
         inkscape:connector-curvature="0" />
    </g>
    <g
       id="g21598"
       transform="matrix(1.25,0,0,-1.25,273.89267,489.97049)">
      <path
         d="m 0,0 0,14.459 10.503,0 0,-2.883 -7.676,0 0,-2.376 4.343,0 0,-2.881 -4.343,0 0,-3.437 7.876,0 L 10.703,0 0,0 z"
         style="fill:#231f20;fill-opacity:1;fill-rule:nonzero;stroke:none"
         id="path21600"
         inkscape:connector-curvature="0" />
    </g>
    <path
       d="m 310.5948,471.89674 3.6125,0 0,18.07375 -3.6125,0 0,-18.07375 z"
       style="fill:#231f20;fill-opacity:1;fill-rule:nonzero;stroke:none"
       id="path21602"
       inkscape:connector-curvature="0" />
    <g
       id="g21604"
       transform="matrix(1.25,0,0,-1.25,326.57018,475.50049)">
      <path
         d="m 0,0 0,-11.576 -2.775,0 0,11.576 -3.991,0 0,2.883 10.706,0 L 3.94,0 0,0 z"
         style="fill:#231f20;fill-opacity:1;fill-rule:nonzero;stroke:none"
         id="path21606"
         inkscape:connector-curvature="0" />
    </g>
    <g
       id="g21608"
       transform="matrix(1.25,0,0,-1.25,301.80768,489.97049)">
      <path
         d="M 0,0 -2.882,4.854 -5.863,0 l -3.336,0 4.549,7.633 -4.145,6.826 3.387,0 2.526,-4.095 2.429,4.095 3.435,0 L -1.109,7.583 3.387,0 0,0 z"
         style="fill:#231f20;fill-opacity:1;fill-rule:nonzero;stroke:none"
         id="path21610"
         inkscape:connector-curvature="0" />
    </g>
    <g
       id="g21612"
       transform="matrix(1.25,0,0,-1.25,390.30392,489.81424)">
      <path
         d="m 0,0 0,14.458 2.826,0 0,-11.727 7.878,0 L 10.704,0 0,0 z"
         style="fill:#231f20;fill-opacity:1;fill-rule:nonzero;stroke:none"
         id="path21614"
         inkscape:connector-curvature="0" />
    </g>
    <g
       id="g21616"
       transform="matrix(1.25,0,0,-1.25,381.11142,489.81424)">
      <path
         d="m 0,0 -6.37,9.251 0,-9.251 -2.852,0 0,14.458 2.852,0 6.011,-8.848 0,8.848 2.854,0 L 2.495,0 0,0 z"
         style="fill:#231f20;fill-opacity:1;fill-rule:nonzero;stroke:none"
         id="path21618"
         inkscape:connector-curvature="0" />
    </g>
    <g
       id="g21620"
       transform="matrix(1.25,0,0,-1.25,356.81517,475.09049)">
      <path
         d="m 0,0 c -2.084,0 -3.204,-1.516 -3.204,-4.55 0,-2.933 1.172,-4.599 3.204,-4.599 1.985,0 3.204,1.819 3.204,4.65 C 3.204,-1.366 2.034,0 0,0 m 0,-12.031 c -4.372,0 -6.1,3.69 -6.1,7.481 0,4.55 2.339,7.432 6.1,7.432 3.508,0 6.052,-2.983 6.052,-7.432 0,-4.599 -2.392,-7.481 -6.052,-7.481"
         style="fill:#231f20;fill-opacity:1;fill-rule:nonzero;stroke:none"
         id="path21622"
         inkscape:connector-curvature="0" />
    </g>
    <g
       id="g21624"
       transform="matrix(1.25,0,0,-1.25,415.98268,482.48424)">
      <path
         d="m 0,0 0,-5.864 -2.882,0 0,5.864 -5.915,8.594 3.436,0 3.996,-5.56 3.742,5.56 3.44,0 L 0,0 z"
         style="fill:#231f20;fill-opacity:1;fill-rule:nonzero;stroke:none"
         id="path21626"
         inkscape:connector-curvature="0" />
    </g>
  </g>
</svg>
