<?xml version="1.0" encoding="UTF-8" standalone="no"?>
<!-- Created with Inkscape (http://www.inkscape.org/) -->

<svg
   xmlns:dc="http://purl.org/dc/elements/1.1/"
   xmlns:cc="http://creativecommons.org/ns#"
   xmlns:rdf="http://www.w3.org/1999/02/22-rdf-syntax-ns#"
   xmlns:svg="http://www.w3.org/2000/svg"
   xmlns="http://www.w3.org/2000/svg"
   xmlns:sodipodi="http://sodipodi.sourceforge.net/DTD/sodipodi-0.dtd"
   xmlns:inkscape="http://www.inkscape.org/namespaces/inkscape"
   width="262.3475"
   height="54.47625"
   id="svg22345"
   version="1.1"
   inkscape:version="0.48.2 r9819"
   sodipodi:docname="New document 194">
  <defs
     id="defs22347">
    <clipPath
       clipPathUnits="userSpaceOnUse"
       id="clipPath21790">
      <path
         inkscape:connector-curvature="0"
         d="m 27,398 513,0 0,339.251 -513,0 L 27,398 z"
         id="path21792" />
    </clipPath>
    <clipPath
       clipPathUnits="userSpaceOnUse"
       id="clipPath21778">
      <path
         inkscape:connector-curvature="0"
         d="m 40.434,416.855 486.146,0 0,301.54 -486.146,0 0,-301.54 z"
         id="path21780" />
    </clipPath>
  </defs>
  <sodipodi:namedview
     id="base"
     pagecolor="#ffffff"
     bordercolor="#666666"
     borderopacity="1.0"
     inkscape:pageopacity="0.0"
     inkscape:pageshadow="2"
     inkscape:zoom="0.35"
     inkscape:cx="146.17375"
     inkscape:cy="75.809567"
     inkscape:document-units="px"
     inkscape:current-layer="layer1"
     showgrid="false"
     fit-margin-top="0"
     fit-margin-left="0"
     fit-margin-right="0"
     fit-margin-bottom="0"
     inkscape:window-width="469"
     inkscape:window-height="425"
     inkscape:window-x="1416"
     inkscape:window-y="50"
     inkscape:window-maximized="0" />
  <metadata
     id="metadata22350">
    <rdf:RDF>
      <cc:Work
         rdf:about="">
        <dc:format>image/svg+xml</dc:format>
        <dc:type
           rdf:resource="http://purl.org/dc/dcmitype/StillImage" />
        <dc:title></dc:title>
      </cc:Work>
    </rdf:RDF>
  </metadata>
  <g
     inkscape:label="Layer 1"
     inkscape:groupmode="layer"
     id="layer1"
     transform="translate(-228.82625,-553.6955)">
    <g
       id="g21766"
       transform="matrix(1.25,0,0,-1.25,491.01749,553.85174)">
      <path
         d="m 0,0 0,-28.874 c 0,-7.951 -6.506,-14.457 -14.457,-14.457 l -180.714,0 c -7.951,0 -14.457,6.506 -14.457,14.457 L -209.628,0 0,0 z"
         style="fill:#fccf34;fill-opacity:1;fill-rule:nonzero;stroke:none"
         id="path21768"
         inkscape:connector-curvature="0" />
    </g>
    <g
       id="g21770"
       transform="matrix(1.25,0,0,-1.25,231.30912,596.57799)">
      <path
         d="m 0,0 c 0.691,-1.627 1.681,-3.09 2.939,-4.349 1.259,-1.26 2.722,-2.248 4.35,-2.939 1.684,-0.716 3.47,-1.078 5.307,-1.078 l 180.714,0 c 1.837,0 3.622,0.362 5.308,1.078 1.626,0.691 3.089,1.679 4.348,2.939 1.259,1.259 2.248,2.722 2.939,4.349 0.716,1.684 1.079,3.471 1.079,5.307 l 0,28.874 -1.626,0 0,-28.874 c 0,-1.617 -0.321,-3.189 -0.949,-4.67 -0.61,-1.435 -1.482,-2.725 -2.592,-3.836 -1.112,-1.111 -2.402,-1.983 -3.836,-2.592 -1.483,-0.63 -3.054,-0.949 -4.671,-0.949 l -180.714,0 c -1.618,0 -3.19,0.319 -4.671,0.949 C 6.49,-5.182 5.2,-4.31 4.089,-3.199 2.979,-2.088 2.106,-0.798 1.497,0.637 0.867,2.118 0.548,3.69 0.548,5.307 l 0,28.874 -1.626,0 0,-28.874 C -1.078,3.471 -0.716,1.684 0,0"
         style="fill:#231f20;fill-opacity:1;fill-rule:nonzero;stroke:none"
         id="path21772"
         inkscape:connector-curvature="0" />
    </g>
    <g
       transform="matrix(1.25,0,0,-1.25,178.28337,1245.5955)"
       id="g21774">
      <g
         id="g21776"
         clip-path="url(#clipPath21778)">
        <g
           id="g21782"
           transform="translate(250.1873,553.395)">
          <path
             inkscape:connector-curvature="0"
             d="m 0,0 0,-28.874 c 0,-7.951 -6.506,-14.457 -14.457,-14.457 l -180.714,0 c -7.951,0 -14.457,6.506 -14.457,14.457 l 0,28.874"
             style="fill:none;stroke:#231f20;stroke-width:0.25;stroke-linecap:butt;stroke-linejoin:miter;stroke-miterlimit:4;stroke-opacity:1;stroke-dasharray:none"
             id="path21784" />
        </g>
      </g>
    </g>
    <g
       transform="matrix(1.25,0,0,-1.25,178.28337,1245.5955)"
       id="g21786">
      <g
         id="g21788"
         clip-path="url(#clipPath21790)">
        <g
           id="g21794"
           transform="translate(155.9973,526.6071)">
          <path
             inkscape:connector-curvature="0"
             d="m 0,0 c 0.007,0.013 0.015,0.025 0.023,0.038 0.044,0.08 0.076,0.163 0.1,0.247 0.002,0.007 0.007,0.014 0.009,0.022 L 0.128,0.306 C 0.136,0.335 0.146,0.364 0.15,0.393 l 0.04,0.283 4.024,20.768 0.054,0.39 c 0.056,0.39 -0.074,0.78 -0.334,1.039 C 3.638,23.17 3.248,23.3 2.877,23.226 l -0.26,-0.051 -20.829,-4.057 -0.365,-0.06 c -0.241,-0.056 -0.426,-0.166 -0.612,-0.352 -0.464,-0.463 -0.482,-1.224 0,-1.707 0.056,-0.055 0.149,-0.111 0.223,-0.148 l 0.222,-0.123 7.413,-4.557 -18.121,-16.637 6.065,-6.066 16.637,18.085 0,0.037 4.488,-7.302 0.187,-0.266 c 0.055,-0.093 0.112,-0.185 0.186,-0.259 0.463,-0.464 1.242,-0.465 1.705,-0.001 C -0.11,-0.164 -0.051,-0.083 0,0"
             style="fill:#231f20;fill-opacity:1;fill-rule:nonzero;stroke:none"
             id="path21796" />
        </g>
        <g
           id="g21798"
           transform="translate(65.2146,525.714)">
          <path
             inkscape:connector-curvature="0"
             d="m 0,0 0,14.457 10.588,0 0,-2.587 -7.941,0 0,-2.689 4.327,0 0,-2.638 -4.327,0 0,-3.956 8.196,0 L 10.843,0 0,0 z"
             style="fill:#231f20;fill-opacity:1;fill-rule:nonzero;stroke:none"
             id="path21800" />
        </g>
        <path
           inkscape:connector-curvature="0"
           d="m 95.265,540.171 2.602,0 0,-14.457 -2.602,0 0,14.457 z"
           style="fill:#231f20;fill-opacity:1;fill-rule:nonzero;stroke:none"
           id="path21802" />
        <g
           id="g21804"
           transform="translate(107.9411,537.635)">
          <path
             inkscape:connector-curvature="0"
             d="m 0,0 0,-11.921 -2.533,0 0,11.921 -4.155,0 0,2.536 10.843,0 L 4.155,0 0,0 z"
             style="fill:#231f20;fill-opacity:1;fill-rule:nonzero;stroke:none"
             id="path21806" />
        </g>
        <g
           id="g21808"
           transform="translate(88.3034,525.714)">
          <path
             inkscape:connector-curvature="0"
             d="M 0,0 -3.261,5.123 -6.471,0 l -3.056,0 4.738,7.608 -4.331,6.849 3.108,0 2.751,-4.413 2.751,4.413 3.109,0 L -1.682,7.608 3.058,0 0,0 z"
             style="fill:#231f20;fill-opacity:1;fill-rule:nonzero;stroke:none"
             id="path21810" />
        </g>
        <g
           id="g21812"
           transform="translate(205.4453,525.761)">
          <path
             inkscape:connector-curvature="0"
             d="m 0,0 0,14.457 2.596,0 0,-12.225 8.247,0 L 10.843,0 0,0 z"
             style="fill:#231f20;fill-opacity:1;fill-rule:nonzero;stroke:none"
             id="path21814" />
        </g>
        <g
           id="g21816"
           transform="translate(199.4583,525.761)">
          <path
             inkscape:connector-curvature="0"
             d="m 0,0 -6.928,9.942 0,-9.942 -2.547,0 0,14.457 2.547,0 6.674,-9.536 0,9.536 2.496,0 L 2.242,0 0,0 z"
             style="fill:#231f20;fill-opacity:1;fill-rule:nonzero;stroke:none"
             id="path21818" />
        </g>
        <g
           id="g21820"
           transform="translate(180.8233,537.885)">
          <path
             inkscape:connector-curvature="0"
             d="m 0,0 c -2.186,0 -3.508,-1.826 -3.508,-4.87 0,-3.094 1.322,-4.92 3.508,-4.92 2.746,0 3.406,2.688 3.406,4.92 C 3.406,-1.826 2.186,0 0,0 m 0,-12.377 c -4.271,0 -6.152,3.854 -6.152,7.507 0,4.616 2.339,7.457 6.152,7.457 3.558,0 6,-2.994 6,-7.407 0,-4.514 -2.339,-7.557 -6,-7.557"
             style="fill:#231f20;fill-opacity:1;fill-rule:nonzero;stroke:none"
             id="path21822" />
        </g>
        <g
           id="g21824"
           transform="translate(225.3263,531.645)">
          <path
             inkscape:connector-curvature="0"
             d="m 0,0 0,-5.884 -2.587,0 0,5.884 -6.085,8.573 3.194,0 4.209,-5.884 4.159,5.884 3.195,0 L 0,0 z"
             style="fill:#231f20;fill-opacity:1;fill-rule:nonzero;stroke:none"
             id="path21826" />
        </g>
      </g>
    </g>
  </g>
</svg>
