<?xml version="1.0" encoding="UTF-8" standalone="no"?>
<!-- Created with Inkscape (http://www.inkscape.org/) -->

<svg
   xmlns:dc="http://purl.org/dc/elements/1.1/"
   xmlns:cc="http://creativecommons.org/ns#"
   xmlns:rdf="http://www.w3.org/1999/02/22-rdf-syntax-ns#"
   xmlns:svg="http://www.w3.org/2000/svg"
   xmlns="http://www.w3.org/2000/svg"
   xmlns:sodipodi="http://sodipodi.sourceforge.net/DTD/sodipodi-0.dtd"
   xmlns:inkscape="http://www.inkscape.org/namespaces/inkscape"
   width="99.726562"
   height="27.421875"
   id="svg22187"
   version="1.1"
   inkscape:version="0.48.2 r9819"
   sodipodi:docname="New document 190">
  <defs
     id="defs22189" />
  <sodipodi:namedview
     id="base"
     pagecolor="#ffffff"
     bordercolor="#666666"
     borderopacity="1.0"
     inkscape:pageopacity="0.0"
     inkscape:pageshadow="2"
     inkscape:zoom="0.35"
     inkscape:cx="184.87219"
     inkscape:cy="56.56308"
     inkscape:document-units="px"
     inkscape:current-layer="layer1"
     showgrid="false"
     fit-margin-top="0"
     fit-margin-left="0"
     fit-margin-right="0"
     fit-margin-bottom="0"
     inkscape:window-width="469"
     inkscape:window-height="425"
     inkscape:window-x="1591"
     inkscape:window-y="225"
     inkscape:window-maximized="0" />
  <metadata
     id="metadata22192">
    <rdf:RDF>
      <cc:Work
         rdf:about="">
        <dc:format>image/svg+xml</dc:format>
        <dc:type
           rdf:resource="http://purl.org/dc/dcmitype/StillImage" />
        <dc:title></dc:title>
      </cc:Work>
    </rdf:RDF>
  </metadata>
  <g
     inkscape:label="Layer 1"
     inkscape:groupmode="layer"
     id="layer1"
     transform="translate(-190.12781,-561.50339)">
    <g
       id="g21628"
       transform="matrix(1.25,0,0,-1.25,289.69812,585.7612)">
      <path
         d="m 0,0 c 0,-1.325 -1.084,-2.41 -2.41,-2.41 l -74.697,0 c -1.326,0 -2.41,1.085 -2.41,2.41 l 0,16.866 c 0,1.326 1.084,2.411 2.41,2.411 l 74.697,0 C -1.084,19.277 0,18.192 0,16.866 L 0,0 z"
         style="fill:#fccf34;fill-opacity:1;fill-rule:nonzero;stroke:none"
         id="path21630"
         inkscape:connector-curvature="0" />
    </g>
    <g
       id="g21632"
       transform="matrix(1.25,0,0,-1.25,289.69812,585.7612)">
      <path
         d="m 0,0 c 0,-1.325 -1.084,-2.41 -2.41,-2.41 l -74.697,0 c -1.326,0 -2.41,1.085 -2.41,2.41 l 0,16.866 c 0,1.326 1.084,2.411 2.41,2.411 l 74.697,0 C -1.084,19.277 0,18.192 0,16.866 L 0,0 z"
         style="fill:none;stroke:#231f20;stroke-width:0.25;stroke-linecap:butt;stroke-linejoin:miter;stroke-miterlimit:4;stroke-opacity:1;stroke-dasharray:none"
         id="path21634"
         inkscape:connector-curvature="0" />
    </g>
    <g
       id="g21636"
       transform="matrix(1.25,0,0,-1.25,244.08061,584.2637)">
      <path
         d="m 0,0 0,14.457 2.828,0 0,-11.727 7.878,0 0,-2.73 L 0,0 z"
         style="fill:#231f20;fill-opacity:1;fill-rule:nonzero;stroke:none"
         id="path21638"
         inkscape:connector-curvature="0" />
    </g>
    <g
       id="g21640"
       transform="matrix(1.25,0,0,-1.25,234.88811,584.2637)">
      <path
         d="m 0,0 -6.368,9.25 0,-9.25 -2.853,0 0,14.457 2.853,0 6.011,-8.846 0,8.846 2.854,0 L 2.497,0 0,0 z"
         style="fill:#231f20;fill-opacity:1;fill-rule:nonzero;stroke:none"
         id="path21642"
         inkscape:connector-curvature="0" />
    </g>
    <g
       id="g21644"
       transform="matrix(1.25,0,0,-1.25,210.59561,569.53995)">
      <path
         d="m 0,0 c -2.085,0 -3.204,-1.519 -3.204,-4.55 0,-2.931 1.169,-4.601 3.204,-4.601 1.981,0 3.202,1.821 3.202,4.652 C 3.202,-1.365 2.033,0 0,0 m 0,-12.032 c -4.374,0 -6.102,3.69 -6.102,7.482 0,4.55 2.338,7.429 6.102,7.429 3.508,0 6.049,-2.981 6.049,-7.429 0,-4.601 -2.39,-7.482 -6.049,-7.482"
         style="fill:#231f20;fill-opacity:1;fill-rule:nonzero;stroke:none"
         id="path21646"
         inkscape:connector-curvature="0" />
    </g>
    <g
       id="g21648"
       transform="matrix(1.25,0,0,-1.25,269.76311,576.93495)">
      <path
         d="m 0,0 0,-5.863 -2.884,0 0,5.863 -5.915,8.594 3.439,0 3.993,-5.561 3.743,5.561 3.437,0 L 0,0 z"
         style="fill:#231f20;fill-opacity:1;fill-rule:nonzero;stroke:none"
         id="path21650"
         inkscape:connector-curvature="0" />
    </g>
  </g>
</svg>
