<?xml version="1.0" encoding="UTF-8" standalone="no"?>
<!-- Created with Inkscape (http://www.inkscape.org/) -->

<svg
   xmlns:dc="http://purl.org/dc/elements/1.1/"
   xmlns:cc="http://creativecommons.org/ns#"
   xmlns:rdf="http://www.w3.org/1999/02/22-rdf-syntax-ns#"
   xmlns:svg="http://www.w3.org/2000/svg"
   xmlns="http://www.w3.org/2000/svg"
   xmlns:sodipodi="http://sodipodi.sourceforge.net/DTD/sodipodi-0.dtd"
   xmlns:inkscape="http://www.inkscape.org/namespaces/inkscape"
   width="334.63626"
   height="54.497501"
   id="svg22587"
   version="1.1"
   inkscape:version="0.48.2 r9819"
   sodipodi:docname="New document 198">
  <defs
     id="defs22589" />
  <sodipodi:namedview
     id="base"
     pagecolor="#ffffff"
     bordercolor="#666666"
     borderopacity="1.0"
     inkscape:pageopacity="0.0"
     inkscape:pageshadow="2"
     inkscape:zoom="0.35"
     inkscape:cx="139.46098"
     inkscape:cy="-18.465533"
     inkscape:document-units="px"
     inkscape:current-layer="layer1"
     showgrid="false"
     fit-margin-top="0"
     fit-margin-left="0"
     fit-margin-right="0"
     fit-margin-bottom="0"
     inkscape:window-width="469"
     inkscape:window-height="425"
     inkscape:window-x="1516"
     inkscape:window-y="150"
     inkscape:window-maximized="0" />
  <metadata
     id="metadata22592">
    <rdf:RDF>
      <cc:Work
         rdf:about="">
        <dc:format>image/svg+xml</dc:format>
        <dc:type
           rdf:resource="http://purl.org/dc/dcmitype/StillImage" />
        <dc:title></dc:title>
      </cc:Work>
    </rdf:RDF>
  </metadata>
  <g
     inkscape:label="Layer 1"
     inkscape:groupmode="layer"
     id="layer1"
     transform="translate(-235.53902,-459.39915)">
    <g
       id="g21674"
       transform="matrix(1.25,0,0,-1.25,570.01902,459.5554)">
      <path
         d="m 0,0 0,-28.891 c 0,-7.984 -6.474,-14.457 -14.458,-14.457 l -238.544,0 c -7.985,0 -14.457,6.473 -14.457,14.457 l 0,28.891"
         style="fill:#fccf34;fill-opacity:1;fill-rule:nonzero;stroke:#231f20;stroke-width:0.25;stroke-linecap:butt;stroke-linejoin:miter;stroke-miterlimit:4;stroke-opacity:1;stroke-dasharray:none"
         id="path21676"
         inkscape:connector-curvature="0" />
    </g>
    <g
       id="g21678"
       transform="matrix(1.25,0,0,-1.25,567.00527,459.5554)">
      <path
         d="m 0,0 0,-28.891 c 0,-1.626 -0.318,-3.205 -0.945,-4.688 -0.607,-1.435 -1.476,-2.723 -2.584,-3.83 -1.106,-1.107 -2.395,-1.977 -3.83,-2.583 -1.483,-0.628 -3.061,-0.946 -4.688,-0.946 l -238.544,0 c -1.628,0 -3.205,0.318 -4.689,0.946 -1.434,0.606 -2.723,1.476 -3.83,2.583 -1.107,1.106 -1.976,2.395 -2.583,3.83 -0.628,1.483 -0.946,3.062 -0.946,4.688 l 0,28.891 -1.807,0 0,-28.891 c 0,-1.87 0.366,-3.684 1.089,-5.392 0.697,-1.649 1.696,-3.132 2.969,-4.404 1.272,-1.273 2.754,-2.272 4.404,-2.97 1.708,-0.722 3.522,-1.088 5.393,-1.088 l 238.544,0 c 1.87,0 3.684,0.366 5.392,1.088 1.65,0.698 3.132,1.697 4.404,2.97 1.273,1.272 2.273,2.755 2.97,4.404 0.723,1.708 1.088,3.522 1.088,5.392 L 1.807,0 0,0 z"
         style="fill:#231f20;fill-opacity:1;fill-rule:nonzero;stroke:none"
         id="path21680"
         inkscape:connector-curvature="0" />
    </g>
    <g
       id="g21682"
       transform="matrix(1.25,0,0,-1.25,328.04028,494.16165)">
      <path
         d="m 0,0 0,14.457 10.588,0 0,-2.587 -7.941,0 0,-2.689 4.327,0 0,-2.637 -4.327,0 0,-3.958 8.196,0 L 10.843,0 0,0 z"
         style="fill:#231f20;fill-opacity:1;fill-rule:nonzero;stroke:none"
         id="path21684"
         inkscape:connector-curvature="0" />
    </g>
    <path
       d="m 363.46865,476.0904 3.2525,0 0,18.07125 -3.2525,0 0,-18.07125 z"
       style="fill:#231f20;fill-opacity:1;fill-rule:nonzero;stroke:none"
       id="path21686"
       inkscape:connector-curvature="0" />
    <g
       id="g21688"
       transform="matrix(1.25,0,0,-1.25,444.62778,494.16165)">
      <path
         d="m 0,0 0,14.457 2.597,0 0,-12.226 8.247,0 L 10.844,0 0,0 z"
         style="fill:#231f20;fill-opacity:1;fill-rule:nonzero;stroke:none"
         id="path21690"
         inkscape:connector-curvature="0" />
    </g>
    <g
       id="g21692"
       transform="matrix(1.25,0,0,-1.25,437.12778,494.16165)">
      <path
         d="m 0,0 -6.929,9.942 0,-9.942 -2.547,0 0,14.457 2.547,0 6.674,-9.537 0,9.537 2.497,0 L 2.242,0 0,0 z"
         style="fill:#231f20;fill-opacity:1;fill-rule:nonzero;stroke:none"
         id="path21694"
         inkscape:connector-curvature="0" />
    </g>
    <g
       id="g21696"
       transform="matrix(1.25,0,0,-1.25,413.62652,479.00665)">
      <path
         d="m 0,0 c -2.185,0 -3.508,-1.827 -3.508,-4.871 0,-3.094 1.323,-4.92 3.508,-4.92 2.746,0 3.407,2.688 3.407,4.92 C 3.407,-1.827 2.187,0 0,0 m 0,-12.378 c -4.27,0 -6.151,3.855 -6.151,7.507 0,4.617 2.339,7.458 6.151,7.458 3.559,0 6,-2.994 6,-7.407 0,-4.514 -2.339,-7.558 -6,-7.558"
         style="fill:#231f20;fill-opacity:1;fill-rule:nonzero;stroke:none"
         id="path21698"
         inkscape:connector-curvature="0" />
    </g>
    <g
       id="g21700"
       transform="matrix(1.25,0,0,-1.25,378.15402,479.26165)">
      <path
         d="m 0,0 0,-11.92 -2.533,0 0,11.92 -4.155,0 0,2.537 10.843,0 L 4.155,0 0,0 z"
         style="fill:#231f20;fill-opacity:1;fill-rule:nonzero;stroke:none"
         id="path21702"
         inkscape:connector-curvature="0" />
    </g>
    <g
       id="g21704"
       transform="matrix(1.25,0,0,-1.25,356.03402,494.16165)">
      <path
         d="M 0,0 -3.261,5.123 -6.471,0 l -3.057,0 4.738,7.608 -4.331,6.849 3.108,0 2.752,-4.413 2.751,4.413 3.108,0 L -1.682,7.608 3.057,0 0,0 z"
         style="fill:#231f20;fill-opacity:1;fill-rule:nonzero;stroke:none"
         id="path21706"
         inkscape:connector-curvature="0" />
    </g>
    <g
       id="g21708"
       transform="matrix(1.25,0,0,-1.25,470.46778,486.8079)">
      <path
         d="m 0,0 0,-5.883 -2.586,0 0,5.883 -6.086,8.574 3.195,0 4.209,-5.884 4.159,5.884 3.195,0 L 0,0 z"
         style="fill:#231f20;fill-opacity:1;fill-rule:nonzero;stroke:none"
         id="path21710"
         inkscape:connector-curvature="0" />
    </g>
    <g
       id="g21712"
       transform="matrix(1.25,0,0,-1.25,303.61402,477.4104)">
      <path
         d="m 0,0 c -0.131,0 -0.236,0 -0.341,-0.026 l -13.828,-3.589 0,10.843 -7.831,0 0,-10.843 -13.855,3.589 C -35.96,0 -36.064,0 -36.143,0 c -0.681,0 -1.205,-0.524 -1.205,-1.205 0,-0.315 0.13,-0.629 0.366,-0.863 l 0.027,-0.028 18.883,-17.181 18.858,17.181 C 1.047,-1.859 1.204,-1.52 1.204,-1.205 1.204,-0.524 0.655,0 0,0"
         style="fill:#231f20;fill-opacity:1;fill-rule:nonzero;stroke:none"
         id="path21714"
         inkscape:connector-curvature="0" />
    </g>
    <g
       id="g21716"
       transform="matrix(1.25,0,0,-1.25,547.09027,477.5954)">
      <path
         d="m 0,0 c -0.132,0 -0.236,0 -0.341,-0.027 l -13.828,-3.589 0,10.844 -7.832,0 0,-10.844 -13.855,3.589 C -35.96,0 -36.065,0 -36.144,0 c -0.68,0 -1.205,-0.525 -1.205,-1.206 0,-0.314 0.131,-0.628 0.367,-0.864 l 0.027,-0.026 18.884,-17.182 18.857,17.182 C 1.047,-1.86 1.204,-1.52 1.204,-1.206 1.204,-0.525 0.655,0 0,0"
         style="fill:#231f20;fill-opacity:1;fill-rule:nonzero;stroke:none"
         id="path21718"
         inkscape:connector-curvature="0" />
    </g>
  </g>
</svg>
