<?xml version="1.0" encoding="UTF-8" standalone="no"?>
<!-- Created with Inkscape (http://www.inkscape.org/) -->

<svg
   xmlns:dc="http://purl.org/dc/elements/1.1/"
   xmlns:cc="http://creativecommons.org/ns#"
   xmlns:rdf="http://www.w3.org/1999/02/22-rdf-syntax-ns#"
   xmlns:svg="http://www.w3.org/2000/svg"
   xmlns="http://www.w3.org/2000/svg"
   xmlns:sodipodi="http://sodipodi.sourceforge.net/DTD/sodipodi-0.dtd"
   xmlns:inkscape="http://www.inkscape.org/namespaces/inkscape"
   width="90.624748"
   height="90.625"
   id="svg25422"
   version="1.1"
   inkscape:version="0.48.2 r9819"
   sodipodi:docname="New document 228">
  <defs
     id="defs25424">
    <clipPath
       clipPathUnits="userSpaceOnUse"
       id="clipPath25131">
      <path
         inkscape:connector-curvature="0"
         d="m 402.394,301.5 173.231,0 0,128 -173.231,0 0,-128 z"
         id="path25133" />
    </clipPath>
    <clipPath
       clipPathUnits="userSpaceOnUse"
       id="clipPath25119">
      <path
         inkscape:connector-curvature="0"
         d="m 408.394,303.753 161.231,0 0,123.064 -161.231,0 0,-123.064 z"
         id="path25121" />
    </clipPath>
    <clipPath
       clipPathUnits="userSpaceOnUse"
       id="clipPath25107">
      <path
         inkscape:connector-curvature="0"
         d="m 402.394,301.5 173.231,0 0,128 -173.231,0 0,-128 z"
         id="path25109" />
    </clipPath>
  </defs>
  <sodipodi:namedview
     id="base"
     pagecolor="#ffffff"
     bordercolor="#666666"
     borderopacity="1.0"
     inkscape:pageopacity="0.0"
     inkscape:pageshadow="2"
     inkscape:zoom="1.4"
     inkscape:cx="73.078605"
     inkscape:cy="46.602234"
     inkscape:document-units="px"
     inkscape:current-layer="layer1"
     showgrid="false"
     fit-margin-top="0"
     fit-margin-left="0"
     fit-margin-right="0"
     fit-margin-bottom="0"
     inkscape:window-width="469"
     inkscape:window-height="425"
     inkscape:window-x="1416"
     inkscape:window-y="50"
     inkscape:window-maximized="0" />
  <metadata
     id="metadata25427">
    <rdf:RDF>
      <cc:Work
         rdf:about="">
        <dc:format>image/svg+xml</dc:format>
        <dc:type
           rdf:resource="http://purl.org/dc/dcmitype/StillImage" />
        <dc:title></dc:title>
      </cc:Work>
    </rdf:RDF>
  </metadata>
  <g
     inkscape:label="Layer 1"
     inkscape:groupmode="layer"
     id="layer1"
     transform="translate(-337.54477,-432.76396)">
    <g
       transform="matrix(1.25,0,0,-1.25,-283.86173,921.18159)"
       id="g25103">
      <g
         id="g25105"
         clip-path="url(#clipPath25107)">
        <g
           id="g25111"
           transform="translate(502.1582,390.4841)">
          <path
             inkscape:connector-curvature="0"
             d="m 0,0 62.434,0 c 2.631,0 4.783,-2.152 4.783,-4.783 l 0,-62.433 C 67.217,-69.848 65.065,-72 62.434,-72 L 0,-72 c -2.631,0 -4.783,2.152 -4.783,4.784 l 0,62.433 C -4.783,-2.152 -2.631,0 0,0"
             style="fill:#ffffff;fill-opacity:1;fill-rule:nonzero;stroke:none"
             id="path25113" />
        </g>
      </g>
    </g>
    <g
       transform="matrix(1.25,0,0,-1.25,-283.86173,921.18159)"
       id="g25115">
      <g
         id="g25117"
         clip-path="url(#clipPath25119)">
        <g
           id="g25123"
           transform="translate(502.1582,390.4841)">
          <path
             inkscape:connector-curvature="0"
             d="m 0,0 62.434,0 c 2.631,0 4.783,-2.152 4.783,-4.783 l 0,-62.433 C 67.217,-69.848 65.065,-72 62.434,-72 L 0,-72 c -2.631,0 -4.783,2.152 -4.783,4.784 l 0,62.433 C -4.783,-2.152 -2.631,0 0,0 z"
             style="fill:none;stroke:#231f20;stroke-width:0.5;stroke-linecap:butt;stroke-linejoin:miter;stroke-miterlimit:4;stroke-opacity:1;stroke-dasharray:none"
             id="path25125" />
        </g>
      </g>
    </g>
    <g
       transform="matrix(1.25,0,0,-1.25,-283.86173,921.18159)"
       id="g25127">
      <g
         id="g25129"
         clip-path="url(#clipPath25131)">
        <g
           id="g25135"
           transform="translate(502.1582,388.4841)">
          <path
             inkscape:connector-curvature="0"
             d="m 0,0 62.434,0 c 1.531,0 2.783,-1.252 2.783,-2.783 l 0,-62.433 c 0,-1.533 -1.252,-2.785 -2.783,-2.785 l -62.434,0 c -1.529,0 -2.783,1.252 -2.783,2.785 l 0,62.433 C -2.783,-1.252 -1.529,0 0,0"
             style="fill:#155196;fill-opacity:1;fill-rule:evenodd;stroke:none"
             id="path25137" />
        </g>
        <g
           id="g25139"
           transform="translate(559.65,349.6404)">
          <path
             inkscape:connector-curvature="0"
             d="m 0,0 0,1.811 0.864,0 c 0.371,0 0.55,-0.036 0.695,-0.145 C 1.756,1.541 1.864,1.262 1.864,0.91 1.864,0.27 1.567,0 0.883,0 L 0,0 z m -2.045,2.496 0,-0.685 0.288,0 c 0.451,0 0.496,-0.055 0.496,-0.549 l 0,-3.541 c 0,-0.496 -0.045,-0.549 -0.496,-0.549 l -0.288,0 0,-0.688 2.891,0 0,0.688 -0.352,0 C 0.045,-2.828 0,-2.775 0,-2.279 l 0,1.593 0.352,0 c 0.945,0 1.197,-0.242 1.225,-1.197 L 1.604,-2.586 C 1.621,-3.289 2,-3.695 2.631,-3.695 c 0.584,0 0.918,0.263 1.053,0.83 0.055,0.244 0.064,0.414 0.064,1.062 l -0.513,0 C 3.225,-2.693 3.198,-2.82 2.981,-2.82 c -0.162,0 -0.215,0.117 -0.242,0.523 l -0.028,0.531 c -0.017,0.828 -0.279,1.145 -1.08,1.289 0.531,0.098 0.774,0.18 1.018,0.37 C 3,0.162 3.18,0.549 3.18,1.045 3.18,1.504 3.008,1.893 2.702,2.127 2.377,2.387 1.911,2.496 1.18,2.496 l -3.225,0 z m -0.767,0 -5.315,0 0,-0.685 0.289,0 c 0.45,0 0.495,-0.055 0.495,-0.549 l 0,-3.541 c 0,-0.496 -0.045,-0.549 -0.495,-0.549 l -0.289,0 0,-0.688 5.315,0 0,2.551 -0.611,0 C -3.55,-2.523 -3.765,-2.828 -4.72,-2.828 l -1.362,0 0,2.107 0.297,0 c 0.668,0 0.748,-0.117 0.821,-1.224 l 0.593,0 0,3 -0.593,0 C -5.019,0.424 -5.027,0.379 -5.091,0.244 -5.181,0.045 -5.379,-0.035 -5.793,-0.035 l -0.289,0 0,1.846 1.244,0 c 0.694,0 0.991,-0.108 1.17,-0.415 0.155,-0.279 0.217,-0.638 0.245,-1.289 l 0.611,0 0,2.389 z m -11.422,-6.012 1.018,0 0.982,3.219 0.846,-3.219 1.064,0 1.233,4.723 c 0.109,0.424 0.271,0.604 0.541,0.604 l 0.181,0 0,0.685 -2.217,0 0,-0.685 0.27,0 c 0.307,0 0.451,-0.09 0.451,-0.262 0,-0.108 -0.027,-0.279 -0.072,-0.459 l -0.811,-3.045 -0.91,3.279 c -0.027,0.108 -0.045,0.199 -0.045,0.252 0,0.172 0.108,0.235 0.377,0.235 l 0.299,0 0,0.685 -2.369,0 0,-0.685 0.197,0 c 0.352,0 0.504,-0.19 0.613,-0.756 l -0.964,-3.1 -0.838,3.387 c -0.018,0.082 -0.035,0.172 -0.035,0.217 0,0.162 0.117,0.252 0.341,0.252 l 0.252,0 0,0.685 -2.306,0 0,-0.685 0.136,0 c 0.342,0 0.467,-0.153 0.629,-0.801 l 1.137,-4.526 z m -5.02,5.471 c 0.993,0 1.569,-0.91 1.569,-2.469 0,-1.549 -0.576,-2.459 -1.569,-2.459 -1,0 -1.566,0.901 -1.566,2.496 0,1.522 0.586,2.432 1.566,2.432 m 0,0.711 c -1.755,0 -2.972,-1.279 -2.972,-3.125 0,-1.955 1.172,-3.227 2.982,-3.227 1.776,0 2.965,1.28 2.965,3.182 0,1.9 -1.189,3.17 -2.975,3.17 m -7.71,-2.738 0,1.334 c 0,0.494 0.044,0.549 0.496,0.549 l 0.351,0 0,0.685 -2.892,0 0,-0.685 0.289,0 c 0.449,0 0.494,-0.055 0.494,-0.549 l 0,-3.541 c 0,-0.496 -0.045,-0.549 -0.494,-0.549 l -0.289,0 0,-0.688 2.892,0 0,0.688 -0.351,0 c -0.452,0 -0.496,0.053 -0.496,0.549 l 0,1.486 2.207,0 0,-1.486 c 0,-0.496 -0.045,-0.549 -0.497,-0.549 l -0.349,0 0,-0.688 2.89,0 0,0.688 -0.289,0 c -0.449,0 -0.494,0.053 -0.494,0.549 l 0,3.541 c 0,0.494 0.045,0.549 0.494,0.549 l 0.289,0 0,0.685 -2.89,0 0,-0.685 0.349,0 c 0.452,0 0.497,-0.055 0.497,-0.549 l 0,-1.334 -2.207,0 z m -3.125,-3.444 0,4.778 c 0,0.494 0.044,0.549 0.503,0.549 l 0.243,0 0,0.685 -2.559,0 0,-0.685 0.361,0 c 0.459,0 0.504,-0.055 0.504,-0.549 l 0,-3.127 -2.324,4.361 -2.324,0 0,-0.685 0.324,0 c 0.459,0 0.504,-0.055 0.504,-0.549 l 0,-3.541 c 0,-0.496 -0.045,-0.549 -0.504,-0.549 l -0.359,0 0,-0.688 2.666,0 0,0.688 -0.352,0 c -0.459,0 -0.504,0.053 -0.504,0.549 l 0,3.666 2.604,-4.903 1.217,0 z m -6.282,6.012 -5.314,0 0,-0.685 0.289,0 c 0.449,0 0.494,-0.055 0.494,-0.549 l 0,-3.541 c 0,-0.496 -0.045,-0.549 -0.494,-0.549 l -0.289,0 0,-0.688 5.314,0 0,2.551 -0.611,0 c -0.127,-1.558 -0.342,-1.863 -1.297,-1.863 l -1.361,0 0,2.107 0.297,0 c 0.668,0 0.748,-0.117 0.82,-1.224 l 0.594,0 0,3 -0.594,0 c -0.055,-0.631 -0.063,-0.676 -0.127,-0.811 -0.09,-0.199 -0.287,-0.279 -0.701,-0.279 l -0.289,0 0,1.846 1.244,0 c 0.693,0 0.99,-0.108 1.17,-0.415 0.154,-0.279 0.217,-0.638 0.244,-1.289 l 0.611,0 0,2.389 z m -10.359,-6.012 0.558,0 0.18,0.561 c 0.713,-0.541 1.162,-0.731 1.793,-0.731 1.18,0 2.027,0.793 2.027,1.911 0,0.964 -0.576,1.595 -1.73,1.882 l -1.09,0.28 c -0.449,0.117 -0.683,0.379 -0.683,0.775 0,0.496 0.369,0.783 0.972,0.783 0.387,0 0.793,-0.162 1.045,-0.414 0.287,-0.287 0.477,-0.703 0.586,-1.314 l 0.611,0 0,2.279 -0.476,0 -0.289,-0.441 c -0.639,0.494 -0.973,0.621 -1.586,0.621 -1.152,0 -1.936,-0.748 -1.936,-1.856 0,-0.955 0.514,-1.478 1.774,-1.802 l 0.875,-0.225 c 0.541,-0.135 0.81,-0.432 0.81,-0.873 0,-0.514 -0.369,-0.793 -1.037,-0.793 -0.494,0 -0.836,0.135 -1.162,0.441 -0.332,0.325 -0.486,0.649 -0.621,1.397 l -0.621,0 0,-2.481 z m -2.658,1.237 c 0,-0.496 -0.045,-0.549 -0.496,-0.549 l -0.315,0 0,-0.688 2.901,0 0,0.688 -0.315,0 c -0.451,0 -0.496,0.053 -0.496,0.549 l 0,3.541 c 0,0.494 0.045,0.549 0.496,0.549 l 0.315,0 0,0.685 -2.901,0 0,-0.685 0.315,0 c 0.451,0 0.496,-0.055 0.496,-0.549 l 0,-3.541 z m -1.596,4.775 -5.314,0 0,-0.685 0.289,0 c 0.449,0 0.494,-0.055 0.494,-0.549 l 0,-3.541 c 0,-0.496 -0.045,-0.549 -0.494,-0.549 l -0.289,0 0,-0.688 5.314,0 0,2.551 -0.611,0 c -0.127,-1.558 -0.342,-1.863 -1.297,-1.863 l -1.362,0 0,2.107 0.297,0 c 0.668,0 0.748,-0.117 0.821,-1.224 l 0.593,0 0,3 -0.593,0 c -0.055,-0.631 -0.063,-0.676 -0.127,-0.811 -0.09,-0.199 -0.287,-0.279 -0.701,-0.279 l -0.29,0 0,1.846 1.245,0 c 0.693,0 0.99,-0.108 1.169,-0.415 0.155,-0.279 0.217,-0.638 0.245,-1.289 l 0.611,0 0,2.389 z"
             style="fill:#ffffff;fill-opacity:1;fill-rule:evenodd;stroke:none"
             id="path25141" />
        </g>
        <g
           id="g25143"
           transform="translate(560.564,341.3161)">
          <path
             inkscape:connector-curvature="0"
             d="m 0,0 -5.316,0 0,-0.684 0.289,0 c 0.451,0 0.496,-0.054 0.496,-0.55 l 0,-3.539 c 0,-0.497 -0.045,-0.551 -0.496,-0.551 l -0.289,0 0,-0.686 5.316,0 0,2.551 -0.613,0 C -0.738,-5.018 -0.955,-5.324 -1.91,-5.324 l -1.361,0 0,2.109 0.299,0 c 0.666,0 0.746,-0.117 0.818,-1.226 l 0.596,0 0,3 -0.596,0 c -0.053,-0.629 -0.062,-0.676 -0.125,-0.811 -0.09,-0.197 -0.289,-0.279 -0.703,-0.279 l -0.289,0 0,1.847 1.244,0 c 0.693,0 0.99,-0.107 1.172,-0.414 0.152,-0.279 0.215,-0.64 0.242,-1.289 L 0,-2.387 0,0 z m -8.882,-4.773 c 0,-0.497 -0.045,-0.551 -0.496,-0.551 l -0.442,0 0,-0.686 3.135,0 0,0.686 -0.442,0 c -0.449,0 -0.496,0.054 -0.496,0.551 l 0,4.107 c 0.93,0.018 1.272,-0.451 1.299,-1.82 l 0.612,0 0,2.486 -5.081,0 0,-2.486 0.614,0 c 0.025,1.369 0.369,1.847 1.297,1.82 l 0,-4.107 z m -4.227,1.376 -1.342,0 0.641,2.092 0.701,-2.092 z M -14.234,0 -15.738,-4.746 c -0.144,-0.461 -0.299,-0.578 -0.721,-0.578 l -0.173,0 0,-0.686 2.515,0 0,0.686 -0.424,0 c -0.351,0 -0.431,0.037 -0.431,0.199 0,0.053 0.025,0.145 0.062,0.279 l 0.242,0.748 1.776,0 0.234,-0.703 c 0.045,-0.135 0.072,-0.252 0.072,-0.306 0,-0.172 -0.099,-0.217 -0.451,-0.217 l -0.441,0 0,-0.686 2.793,0 0,0.686 -0.152,0 c -0.424,0 -0.469,0.045 -0.659,0.578 L -13.099,0 -14.234,0 z m -5.414,-4.773 c 0,-0.497 -0.045,-0.551 -0.496,-0.551 l -0.442,0 0,-0.686 3.135,0 0,0.686 -0.441,0 c -0.451,0 -0.496,0.054 -0.496,0.551 l 0,4.107 c 0.927,0.018 1.271,-0.451 1.299,-1.82 l 0.611,0 0,2.486 -5.08,0 0,-2.486 0.611,0 c 0.027,1.369 0.371,1.847 1.299,1.82 l 0,-4.107 z m -6.855,-1.237 0.556,0 0.182,0.561 c 0.711,-0.541 1.162,-0.733 1.793,-0.733 1.179,0 2.025,0.795 2.025,1.912 0,0.965 -0.576,1.594 -1.728,1.883 l -1.09,0.28 c -0.451,0.117 -0.686,0.379 -0.686,0.775 0,0.494 0.369,0.783 0.973,0.783 0.389,0 0.793,-0.162 1.045,-0.414 0.289,-0.289 0.478,-0.703 0.586,-1.316 l 0.613,0 0,2.279 -0.478,0 L -23,-0.441 c -0.64,0.496 -0.972,0.623 -1.586,0.623 -1.154,0 -1.937,-0.748 -1.937,-1.858 0,-0.953 0.514,-1.476 1.775,-1.801 l 0.873,-0.224 c 0.541,-0.137 0.811,-0.434 0.811,-0.875 0,-0.514 -0.369,-0.793 -1.035,-0.793 -0.496,0 -0.838,0.135 -1.162,0.441 -0.334,0.324 -0.487,0.649 -0.621,1.397 l -0.621,0 0,-2.479 z m -4.344,3.516 0,1.81 0.865,0 c 0.369,0 0.549,-0.037 0.693,-0.144 0.2,-0.125 0.307,-0.406 0.307,-0.756 0,-0.641 -0.297,-0.91 -0.982,-0.91 l -0.883,0 z M -32.892,0 l 0,-0.684 0.289,0 c 0.449,0 0.494,-0.054 0.494,-0.55 l 0,-3.539 c 0,-0.497 -0.045,-0.551 -0.494,-0.551 l -0.289,0 0,-0.686 2.892,0 0,0.686 -0.351,0 c -0.451,0 -0.496,0.054 -0.496,0.551 l 0,1.593 0.351,0 c 0.946,0 1.2,-0.242 1.225,-1.197 l 0.027,-0.703 c 0.02,-0.703 0.397,-1.109 1.028,-1.109 0.586,0 0.92,0.261 1.054,0.83 0.055,0.242 0.063,0.414 0.063,1.062 l -0.514,0 c -0.008,-0.892 -0.035,-1.017 -0.252,-1.017 -0.162,0 -0.217,0.117 -0.244,0.521 l -0.025,0.533 c -0.02,0.828 -0.28,1.143 -1.082,1.287 0.531,0.1 0.775,0.182 1.017,0.369 0.352,0.272 0.533,0.659 0.533,1.155 0,0.459 -0.171,0.846 -0.478,1.08 C -28.468,-0.107 -28.937,0 -29.668,0 l -3.224,0 z m -0.766,0 -5.314,0 0,-0.684 0.287,0 c 0.451,0 0.496,-0.054 0.496,-0.55 l 0,-3.539 c 0,-0.497 -0.045,-0.551 -0.496,-0.551 l -0.287,0 0,-0.686 5.314,0 0,2.551 -0.613,0 c -0.125,-1.559 -0.342,-1.865 -1.297,-1.865 l -1.359,0 0,2.109 0.297,0 c 0.666,0 0.748,-0.117 0.82,-1.226 l 0.594,0 0,3 -0.594,0 c -0.055,-0.629 -0.065,-0.676 -0.127,-0.811 -0.09,-0.197 -0.289,-0.279 -0.703,-0.279 l -0.287,0 0,1.847 1.242,0 c 0.693,0 0.992,-0.107 1.172,-0.414 0.152,-0.279 0.217,-0.64 0.242,-1.289 l 0.613,0 0,2.387 z m -8.883,-4.773 c 0,-0.497 -0.045,-0.551 -0.496,-0.551 l -0.441,0 0,-0.686 3.135,0 0,0.686 -0.442,0 c -0.449,0 -0.494,0.054 -0.494,0.551 l 0,4.107 c 0.928,0.018 1.27,-0.451 1.297,-1.82 l 0.613,0 0,2.486 -5.082,0 0,-2.486 0.614,0 c 0.027,1.369 0.369,1.847 1.296,1.82 l 0,-4.107 z m -3,-1.237 0,4.776 c 0,0.496 0.045,0.55 0.504,0.55 l 0.244,0 0,0.684 -2.558,0 0,-0.684 0.359,0 c 0.461,0 0.506,-0.054 0.506,-0.55 l 0,-3.125 -2.324,4.359 -2.326,0 0,-0.684 0.326,0 c 0.459,0 0.504,-0.054 0.504,-0.55 l 0,-3.539 c 0,-0.497 -0.045,-0.551 -0.504,-0.551 l -0.361,0 0,-0.686 2.666,0 0,0.686 -0.352,0 c -0.459,0 -0.504,0.054 -0.504,0.551 l 0,3.666 2.604,-4.903 1.216,0 z m -8.027,1.237 c 0,-0.497 -0.045,-0.551 -0.496,-0.551 l -0.315,0 0,-0.686 2.901,0 0,0.686 -0.315,0 c -0.451,0 -0.496,0.054 -0.496,0.551 l 0,3.539 c 0,0.496 0.045,0.55 0.496,0.55 l 0.315,0 0,0.684 -2.901,0 0,-0.684 0.315,0 c 0.451,0 0.496,-0.054 0.496,-0.55 l 0,-3.539 z"
             style="fill:#ffffff;fill-opacity:1;fill-rule:evenodd;stroke:none"
             id="path25145" />
        </g>
        <g
           id="g25147"
           transform="translate(549.006,329.6149)">
          <path
             inkscape:connector-curvature="0"
             d="m 0,0 0,-3.892 c 0,-0.494 -0.045,-0.549 -0.496,-0.549 l -0.342,0 0,-0.686 2.775,0 0,0.686 -0.289,0 c -0.451,0 -0.496,0.055 -0.496,0.549 l 0,3.54 c 0,0.497 0.045,0.549 0.496,0.549 l 0.289,0 0,0.686 -2.433,0 -1.307,-3.9 -1.197,3.9 -2.524,0 0,-0.686 0.272,0 c 0.459,0 0.504,-0.052 0.504,-0.549 l 0,-3.54 c 0,-0.494 -0.045,-0.549 -0.504,-0.549 l -0.272,0 0,-0.686 2.524,0 0,0.686 -0.297,0 c -0.461,0 -0.506,0.055 -0.506,0.549 l 0,3.982 1.596,-5.217 0.531,0 L 0,0 z m -6.289,0.883 -5.315,0 0,-0.686 0.287,0 c 0.452,0 0.497,-0.052 0.497,-0.549 l 0,-3.54 c 0,-0.494 -0.045,-0.549 -0.497,-0.549 l -0.287,0 0,-0.686 5.315,0 0,2.551 -0.614,0 c -0.125,-1.558 -0.341,-1.865 -1.296,-1.865 l -1.36,0 0,2.107 0.297,0 c 0.666,0 0.748,-0.117 0.82,-1.224 l 0.594,0 0,2.999 -0.594,0 c -0.054,-0.63 -0.064,-0.675 -0.127,-0.81 -0.089,-0.199 -0.287,-0.279 -0.703,-0.279 l -0.287,0 0,1.845 1.242,0 c 0.694,0 0.993,-0.107 1.172,-0.414 0.153,-0.279 0.217,-0.638 0.242,-1.287 l 0.614,0 0,2.387 z m -8.883,-4.775 c 0,-0.494 -0.045,-0.549 -0.494,-0.549 l -0.444,0 0,-0.686 3.137,0 0,0.686 -0.443,0 c -0.449,0 -0.494,0.055 -0.494,0.549 l 0,4.109 c 0.927,0.017 1.269,-0.451 1.297,-1.821 l 0.613,0 0,2.487 -5.082,0 0,-2.487 0.613,0 c 0.027,1.37 0.369,1.848 1.297,1.821 l 0,-4.109 z m -6.856,-1.235 0.559,0 0.18,0.559 c 0.713,-0.539 1.162,-0.73 1.793,-0.73 1.179,0 2.027,0.794 2.027,1.912 0,0.962 -0.576,1.593 -1.73,1.882 l -1.09,0.279 c -0.449,0.118 -0.684,0.377 -0.684,0.774 0,0.496 0.369,0.785 0.973,0.785 0.387,0 0.793,-0.162 1.045,-0.414 0.287,-0.289 0.476,-0.703 0.586,-1.316 l 0.611,0 0,2.279 -0.477,0 -0.289,-0.442 c -0.638,0.497 -0.972,0.622 -1.586,0.622 -1.152,0 -1.935,-0.747 -1.935,-1.856 0,-0.955 0.514,-1.477 1.773,-1.801 l 0.875,-0.226 c 0.541,-0.135 0.811,-0.432 0.811,-0.873 0,-0.514 -0.369,-0.793 -1.035,-0.793 -0.496,0 -0.838,0.135 -1.162,0.441 -0.334,0.325 -0.489,0.649 -0.623,1.397 l -0.622,0 0,-2.479 z m -3.982,2.514 0,-1.279 c 0,-0.504 -0.045,-0.549 -0.496,-0.549 l -0.449,0 0,-0.686 3.144,0 0,0.686 -0.441,0 c -0.451,0 -0.496,0.055 -0.496,0.549 l 0,1.279 1.541,2.416 c 0.197,0.297 0.351,0.394 0.631,0.394 l 0.179,0 0,0.686 -2.504,0 0,-0.686 0.522,0 c 0.189,0 0.262,-0.045 0.262,-0.17 0,-0.072 -0.028,-0.172 -0.09,-0.261 l -1,-1.459 -0.955,1.414 c -0.065,0.09 -0.1,0.207 -0.1,0.289 0,0.142 0.09,0.187 0.342,0.187 l 0.451,0 0,0.686 -2.855,0 0,-0.686 0.261,0 c 0.287,0 0.532,-0.187 0.784,-0.611 l 1.269,-2.199 z m -7.172,-2.514 0.559,0 0.181,0.559 c 0.711,-0.539 1.163,-0.73 1.793,-0.73 1.18,0 2.028,0.794 2.028,1.912 0,0.962 -0.578,1.593 -1.731,1.882 l -1.09,0.279 c -0.451,0.118 -0.685,0.377 -0.685,0.774 0,0.496 0.369,0.785 0.973,0.785 0.388,0 0.792,-0.162 1.044,-0.414 0.29,-0.289 0.479,-0.703 0.586,-1.316 l 0.614,0 0,2.279 -0.479,0 -0.287,-0.442 c -0.641,0.497 -0.973,0.622 -1.586,0.622 -1.152,0 -1.937,-0.747 -1.937,-1.856 0,-0.955 0.513,-1.477 1.775,-1.801 l 0.873,-0.226 c 0.541,-0.135 0.813,-0.432 0.813,-0.873 0,-0.514 -0.372,-0.793 -1.038,-0.793 -0.496,0 -0.837,0.135 -1.162,0.441 -0.334,0.325 -0.486,0.649 -0.621,1.397 l -0.623,0 0,-2.479 z"
             style="fill:#ffffff;fill-opacity:1;fill-rule:evenodd;stroke:none"
             id="path25149" />
        </g>
        <g
           id="g25151"
           transform="translate(523.453,377.4899)">
          <path
             inkscape:connector-curvature="0"
             d="M 0,0 1.207,-3.379 4.826,-3.471 1.953,-5.648 2.983,-9.084 0,-7.053 l -2.984,-2.031 1.031,3.436 -2.875,2.177 3.621,0.092 L 0,0 z"
             style="fill:#ffffff;fill-opacity:1;fill-rule:evenodd;stroke:none"
             id="path25153" />
        </g>
        <g
           id="g25155"
           transform="translate(533.324,384.5096)">
          <path
             inkscape:connector-curvature="0"
             d="M 0,0 1.207,-3.377 4.826,-3.469 1.953,-5.648 2.983,-9.084 0,-7.053 l -2.982,-2.031 1.029,3.436 -2.873,2.179 3.619,0.092 L 0,0 z"
             style="fill:#ffffff;fill-opacity:1;fill-rule:evenodd;stroke:none"
             id="path25157" />
        </g>
        <g
           id="g25159"
           transform="translate(543.146,377.4899)">
          <path
             inkscape:connector-curvature="0"
             d="M 0,0 1.207,-3.379 4.829,-3.471 1.954,-5.648 2.985,-9.084 0,-7.053 l -2.982,-2.031 1.031,3.436 -2.875,2.177 3.619,0.092 L 0,0 z"
             style="fill:#ffffff;fill-opacity:1;fill-rule:evenodd;stroke:none"
             id="path25161" />
        </g>
        <g
           id="g25163"
           transform="translate(527.176,365.9919)">
          <path
             inkscape:connector-curvature="0"
             d="M 0,0 1.205,-3.377 4.826,-3.469 1.951,-5.648 2.982,-9.082 0,-7.051 l -2.985,-2.031 1.032,3.434 -2.875,2.179 3.621,0.092 L 0,0 z"
             style="fill:#ffffff;fill-opacity:1;fill-rule:evenodd;stroke:none"
             id="path25165" />
        </g>
        <g
           id="g25167"
           transform="translate(539.426,365.9919)">
          <path
             inkscape:connector-curvature="0"
             d="M 0,0 1.205,-3.377 4.826,-3.469 1.951,-5.648 2.982,-9.082 0,-7.051 l -2.985,-2.031 1.032,3.434 -2.875,2.179 3.621,0.092 L 0,0 z"
             style="fill:#ffffff;fill-opacity:1;fill-rule:evenodd;stroke:none"
             id="path25169" />
        </g>
      </g>
    </g>
  </g>
</svg>
