<?xml version="1.0" encoding="UTF-8" standalone="no"?>
<!-- Created with Inkscape (http://www.inkscape.org/) -->

<svg
   xmlns:dc="http://purl.org/dc/elements/1.1/"
   xmlns:cc="http://creativecommons.org/ns#"
   xmlns:rdf="http://www.w3.org/1999/02/22-rdf-syntax-ns#"
   xmlns:svg="http://www.w3.org/2000/svg"
   xmlns="http://www.w3.org/2000/svg"
   xmlns:sodipodi="http://sodipodi.sourceforge.net/DTD/sodipodi-0.dtd"
   xmlns:inkscape="http://www.inkscape.org/namespaces/inkscape"
   width="90.625"
   height="90.625"
   id="svg25297"
   version="1.1"
   inkscape:version="0.48.2 r9819"
   sodipodi:docname="New document 226">
  <defs
     id="defs25299">
    <clipPath
       clipPathUnits="userSpaceOnUse"
       id="clipPath25203">
      <path
         inkscape:connector-curvature="0"
         d="m 402.394,301.5 173.231,0 0,128 -173.231,0 0,-128 z"
         id="path25205" />
    </clipPath>
    <clipPath
       clipPathUnits="userSpaceOnUse"
       id="clipPath25191">
      <path
         inkscape:connector-curvature="0"
         d="m 408.394,303.753 161.231,0 0,123.064 -161.231,0 0,-123.064 z"
         id="path25193" />
    </clipPath>
    <clipPath
       clipPathUnits="userSpaceOnUse"
       id="clipPath25179">
      <path
         inkscape:connector-curvature="0"
         d="m 402.394,301.5 173.231,0 0,128 -173.231,0 0,-128 z"
         id="path25181" />
    </clipPath>
  </defs>
  <sodipodi:namedview
     id="base"
     pagecolor="#ffffff"
     bordercolor="#666666"
     borderopacity="1.0"
     inkscape:pageopacity="0.0"
     inkscape:pageshadow="2"
     inkscape:zoom="0.35"
     inkscape:cx="71.74107"
     inkscape:cy="-20.401788"
     inkscape:document-units="px"
     inkscape:current-layer="layer1"
     showgrid="false"
     fit-margin-top="0"
     fit-margin-left="0"
     fit-margin-right="0"
     fit-margin-bottom="0"
     inkscape:window-width="469"
     inkscape:window-height="425"
     inkscape:window-x="1391"
     inkscape:window-y="25"
     inkscape:window-maximized="0" />
  <metadata
     id="metadata25302">
    <rdf:RDF>
      <cc:Work
         rdf:about="">
        <dc:format>image/svg+xml</dc:format>
        <dc:type
           rdf:resource="http://purl.org/dc/dcmitype/StillImage" />
        <dc:title></dc:title>
      </cc:Work>
    </rdf:RDF>
  </metadata>
  <g
     inkscape:label="Layer 1"
     inkscape:groupmode="layer"
     id="layer1"
     transform="translate(-303.25893,-421.33539)">
    <g
       transform="matrix(1.25,0,0,-1.25,-207.23382,909.75302)"
       id="g25175">
      <g
         id="g25177"
         clip-path="url(#clipPath25179)">
        <g
           id="g25183"
           transform="translate(413.4272,390.4841)">
          <path
             inkscape:connector-curvature="0"
             d="m 0,0 62.434,0 c 2.63,0 4.783,-2.152 4.783,-4.783 l 0,-62.433 C 67.217,-69.848 65.064,-72 62.434,-72 L 0,-72 c -2.631,0 -4.783,2.152 -4.783,4.784 l 0,62.433 C -4.783,-2.152 -2.631,0 0,0"
             style="fill:#ffffff;fill-opacity:1;fill-rule:nonzero;stroke:none"
             id="path25185" />
        </g>
      </g>
    </g>
    <g
       transform="matrix(1.25,0,0,-1.25,-207.23382,909.75302)"
       id="g25187">
      <g
         id="g25189"
         clip-path="url(#clipPath25191)">
        <g
           id="g25195"
           transform="translate(413.4272,390.4841)">
          <path
             inkscape:connector-curvature="0"
             d="m 0,0 62.434,0 c 2.63,0 4.783,-2.152 4.783,-4.783 l 0,-62.433 C 67.217,-69.848 65.064,-72 62.434,-72 L 0,-72 c -2.631,0 -4.783,2.152 -4.783,4.784 l 0,62.433 C -4.783,-2.152 -2.631,0 0,0 z"
             style="fill:none;stroke:#231f20;stroke-width:0.5;stroke-linecap:butt;stroke-linejoin:miter;stroke-miterlimit:4;stroke-opacity:1;stroke-dasharray:none"
             id="path25197" />
        </g>
      </g>
    </g>
    <g
       transform="matrix(1.25,0,0,-1.25,-207.23382,909.75302)"
       id="g25199">
      <g
         id="g25201"
         clip-path="url(#clipPath25203)">
        <g
           id="g25207"
           transform="translate(413.4272,388.4841)">
          <path
             inkscape:connector-curvature="0"
             d="m 0,0 62.434,0 c 1.531,0 2.783,-1.252 2.783,-2.783 l 0,-62.433 c 0,-1.533 -1.252,-2.785 -2.783,-2.785 l -62.434,0 c -1.531,0 -2.783,1.252 -2.783,2.785 l 0,62.433 C -2.783,-1.252 -1.531,0 0,0"
             style="fill:#155196;fill-opacity:1;fill-rule:evenodd;stroke:none"
             id="path25209" />
        </g>
        <g
           id="g25211"
           transform="translate(434.7768,379.8688)">
          <path
             inkscape:connector-curvature="0"
             d="M 0,0 1.207,-3.377 4.828,-3.469 1.953,-5.648 2.982,-9.082 0,-7.051 l -2.984,-2.031 1.031,3.434 -2.875,2.179 3.621,0.092 L 0,0 z"
             style="fill:#ffffff;fill-opacity:1;fill-rule:evenodd;stroke:none"
             id="path25213" />
        </g>
        <g
           id="g25215"
           transform="translate(444.6479,386.8903)">
          <path
             inkscape:connector-curvature="0"
             d="M 0,0 1.207,-3.379 4.828,-3.471 1.953,-5.648 2.984,-9.084 0,-7.053 l -2.982,-2.031 1.031,3.436 -2.875,2.177 3.619,0.092 L 0,0 z"
             style="fill:#ffffff;fill-opacity:1;fill-rule:evenodd;stroke:none"
             id="path25217" />
        </g>
        <g
           id="g25219"
           transform="translate(454.4721,379.8688)">
          <path
             inkscape:connector-curvature="0"
             d="M 0,0 1.207,-3.377 4.826,-3.469 1.953,-5.648 2.982,-9.082 0,-7.051 l -2.984,-2.031 1.031,3.434 -2.875,2.179 3.621,0.092 L 0,0 z"
             style="fill:#ffffff;fill-opacity:1;fill-rule:evenodd;stroke:none"
             id="path25221" />
        </g>
        <g
           id="g25223"
           transform="translate(438.4995,368.3728)">
          <path
             inkscape:connector-curvature="0"
             d="M 0,0 1.207,-3.377 4.826,-3.469 1.953,-5.648 2.982,-9.082 0,-7.051 l -2.984,-2.031 1.031,3.434 -2.875,2.179 3.621,0.092 L 0,0 z"
             style="fill:#ffffff;fill-opacity:1;fill-rule:evenodd;stroke:none"
             id="path25225" />
        </g>
        <g
           id="g25227"
           transform="translate(450.7495,368.3728)">
          <path
             inkscape:connector-curvature="0"
             d="M 0,0 1.207,-3.377 4.828,-3.469 1.953,-5.648 2.984,-9.082 0,-7.051 l -2.982,-2.031 1.029,3.434 -2.873,2.179 3.619,0.092 L 0,0 z"
             style="fill:#ffffff;fill-opacity:1;fill-rule:evenodd;stroke:none"
             id="path25229" />
        </g>
        <g
           id="g25231"
           transform="translate(470.6167,354.3532)">
          <path
             inkscape:connector-curvature="0"
             d="m 0,0 c 0,-0.645 -0.365,-1.01 -1.039,-1.01 l -1.178,0 0,2.022 1.178,0 C -0.422,1.012 0,0.617 0,0 m 1.121,-5.863 -1.15,3.927 c 0.757,0.282 1.15,0.983 1.15,1.936 0,1.291 -0.842,2.133 -2.104,2.133 l -2.384,0 0,-7.996 1.15,0 0,3.759 1.094,0 1.066,-3.759 1.178,0 z m -5.836,0 0,1.123 -2.918,0 0,2.636 1.656,0 0,1.094 -1.656,0 0,2.022 2.609,0 0,1.121 -3.757,0 0,-7.996 4.066,0 z m -5.162,7.996 -1.121,0 -0.701,-4.264 -0.758,4.264 -0.898,0 -0.786,-4.264 -0.673,4.264 -1.124,0 1.264,-7.996 1.01,0 0.758,4.179 0.757,-4.179 0.981,0 1.291,7.996 z m -8.137,-3.985 c 0,-0.925 -0.054,-1.402 -0.252,-2.046 -0.195,-0.674 -0.504,-0.983 -0.982,-0.983 -0.504,0 -0.813,0.309 -1.01,0.983 -0.168,0.644 -0.252,1.15 -0.252,2.019 0,0.899 0.057,1.432 0.252,2.049 0.197,0.672 0.506,0.98 1.01,0.98 0.478,0 0.787,-0.308 0.982,-1.009 0.168,-0.588 0.252,-1.094 0.252,-1.993 m 1.096,0 c 0,1.207 -0.113,1.965 -0.449,2.75 -0.393,0.983 -0.955,1.375 -1.881,1.375 -0.926,0 -1.486,-0.392 -1.906,-1.345 -0.338,-0.758 -0.45,-1.573 -0.45,-2.78 0,-1.234 0.112,-1.992 0.45,-2.777 0.392,-0.953 0.953,-1.379 1.906,-1.379 0.898,0 1.488,0.426 1.881,1.379 0.336,0.758 0.449,1.543 0.449,2.777 m -6.258,-4.011 0,7.996 -1.15,0 0,-3.254 -2.188,0 0,3.254 -1.15,0 0,-7.996 1.15,0 0,3.619 2.188,0 0,-3.619 1.15,0 z m -6.201,0 0,7.996 -1.15,0 0,-4.797 -2.188,4.797 -1.15,0 0,-7.996 1.15,0 0,5.359 2.469,-5.359 0.869,0 z m -5.836,0 0,1.123 -2.918,0 0,2.636 1.656,0 0,1.094 -1.656,0 0,2.022 2.61,0 0,1.121 -3.758,0 0,-7.996 4.066,0 z m -5.414,2.189 c 0,1.151 -0.674,2.02 -2.217,2.918 -0.588,0.336 -0.758,0.561 -0.758,0.953 0,0.533 0.422,0.926 0.956,0.926 0.503,0 0.896,-0.365 0.925,-0.926 l 1.094,0 c -0.027,1.207 -0.898,2.076 -2.019,2.076 -1.151,0 -2.049,-0.925 -2.049,-2.076 0,-0.701 0.336,-1.318 0.982,-1.767 1.627,-1.094 1.178,-0.785 1.346,-0.953 0.478,-0.366 0.646,-0.704 0.646,-1.151 0,-0.646 -0.506,-1.207 -1.123,-1.207 -0.785,0 -1.121,0.701 -1.121,1.375 l -1.123,0 c 0,-1.318 0.842,-2.502 2.244,-2.502 1.235,0 2.217,1.043 2.217,2.334 m -5.807,5.807 -1.123,0 0,-7.996 1.123,0 0,7.996 z m -2.47,-7.996 0,1.123 -2.918,0 0,2.636 1.656,0 0,1.094 -1.656,0 0,2.022 2.609,0 0,1.121 -3.76,0 0,-7.996 4.069,0 z"
             style="fill:#ffffff;fill-opacity:1;fill-rule:evenodd;stroke:none"
             id="path25233" />
        </g>
        <g
           id="g25235"
           transform="translate(469.185,336.0095)">
          <path
             inkscape:connector-curvature="0"
             d="m 0,0 0,1.123 -2.918,0 0,2.637 1.656,0 0,1.095 -1.656,0 0,2.02 2.609,0 0,1.121 -3.759,0 L -4.068,0 0,0 z m -5.162,6.932 0,1.064 -4.068,0 0,-1.064 1.458,0 0,-6.932 1.151,0 0,6.932 1.459,0 z m -6.537,-3.621 -1.151,0 0.561,2.3 0.59,-2.3 z M -9.707,0 l -1.992,7.996 -1.123,0 -1.992,-7.996 1.15,0 0.533,2.189 1.711,0 0.563,-2.189 1.15,0 z m -5.584,6.932 0,1.064 -4.068,0 0,-1.064 1.459,0 0,-6.932 1.15,0 0,6.932 1.459,0 z m -4.797,-4.743 c 0,1.151 -0.674,2.02 -2.217,2.918 -0.59,0.336 -0.758,0.561 -0.758,0.954 0,0.533 0.42,0.925 0.954,0.925 0.506,0 0.898,-0.363 0.925,-0.925 l 1.096,0 c -0.029,1.207 -0.898,2.076 -2.021,2.076 -1.151,0 -2.049,-0.926 -2.049,-2.076 0,-0.702 0.338,-1.319 0.984,-1.768 1.627,-1.094 1.178,-0.785 1.346,-0.953 0.477,-0.365 0.644,-0.701 0.644,-1.151 0,-0.646 -0.504,-1.207 -1.121,-1.207 -0.785,0 -1.123,0.702 -1.123,1.375 l -1.123,0 c 0,-1.318 0.842,-2.502 2.246,-2.502 1.235,0 2.217,1.043 2.217,2.334 m -6.51,3.676 c 0,-0.646 -0.365,-1.01 -1.039,-1.01 l -1.177,0 0,2.02 1.177,0 c 0.617,0 1.039,-0.393 1.039,-1.01 M -25.476,0 -26.627,3.93 c 0.758,0.279 1.151,0.98 1.151,1.935 0,1.289 -0.842,2.131 -2.104,2.131 l -2.385,0 0,-7.996 1.151,0 0,3.76 1.093,0 1.067,-3.76 1.178,0 z m -5.837,0 0,1.123 -2.915,0 0,2.637 1.654,0 0,1.095 -1.654,0 0,2.02 2.607,0 0,1.121 -3.758,0 0,-7.996 4.066,0 z m -5.162,6.932 0,1.064 -4.068,0 0,-1.064 1.459,0 0,-6.932 1.15,0 0,6.932 1.459,0 z M -41.637,0 l 0,7.996 -1.15,0 0,-4.797 -2.188,4.797 -1.15,0 0,-7.996 1.15,0 0,5.359 2.469,-5.359 0.869,0 z m -6.228,7.996 -1.121,0 0,-7.996 1.121,0 0,7.996 z"
             style="fill:#ffffff;fill-opacity:1;fill-rule:evenodd;stroke:none"
             id="path25237" />
        </g>
        <g
           id="g25239"
           transform="translate(460.6284,323.5306)">
          <path
             inkscape:connector-curvature="0"
             d="m 0,0 0,7.996 -1.15,0 -1.487,-4.49 -1.486,4.49 -1.15,0 0,-7.996 1.15,0 0,4.489 L -2.637,0 -1.15,4.489 -1.15,0 0,0 z m -6.621,0 0,1.121 -2.918,0 0,2.639 1.656,0 0,1.094 -1.656,0 0,2.019 2.609,0 0,1.123 -3.759,0 0,-7.996 4.068,0 z m -5.162,6.93 0,1.066 -4.069,0 0,-1.066 1.459,0 0,-6.93 1.151,0 0,6.93 1.459,0 z m -4.799,-4.742 c 0,1.15 -0.674,2.019 -2.217,2.918 -0.588,0.336 -0.756,0.56 -0.756,0.953 0,0.533 0.42,0.926 0.953,0.926 0.504,0 0.899,-0.364 0.926,-0.926 l 1.094,0 c -0.027,1.207 -0.898,2.076 -2.02,2.076 -1.15,0 -2.048,-0.926 -2.048,-2.076 0,-0.701 0.338,-1.318 0.982,-1.768 1.627,-1.093 1.178,-0.785 1.348,-0.953 0.476,-0.365 0.644,-0.701 0.644,-1.15 0,-0.645 -0.506,-1.207 -1.123,-1.207 -0.785,0 -1.121,0.701 -1.121,1.375 l -1.123,0 c 0,-1.319 0.842,-2.502 2.244,-2.502 1.235,0 2.217,1.043 2.217,2.334 m -5.162,5.808 -1.234,0 -1.319,-2.89 -1.348,2.89 -1.205,0 1.963,-4.376 0,-3.62 1.151,0 0,3.62 1.992,4.376 z M -27.58,2.188 c 0,1.15 -0.674,2.019 -2.217,2.918 -0.588,0.336 -0.758,0.56 -0.758,0.953 0,0.533 0.422,0.926 0.955,0.926 0.504,0 0.899,-0.364 0.926,-0.926 l 1.094,0 c -0.027,1.207 -0.898,2.076 -2.02,2.076 -1.15,0 -2.048,-0.926 -2.048,-2.076 0,-0.701 0.337,-1.318 0.982,-1.768 1.627,-1.093 1.178,-0.785 1.348,-0.953 0.476,-0.365 0.644,-0.701 0.644,-1.15 0,-0.645 -0.506,-1.207 -1.123,-1.207 -0.785,0 -1.121,0.701 -1.121,1.375 l -1.123,0 c 0,-1.319 0.842,-2.502 2.244,-2.502 1.235,0 2.217,1.043 2.217,2.334"
             style="fill:#ffffff;fill-opacity:1;fill-rule:evenodd;stroke:none"
             id="path25241" />
        </g>
      </g>
    </g>
  </g>
</svg>
