<?xml version="1.0" encoding="UTF-8" standalone="no"?>
<!-- Created with Inkscape (http://www.inkscape.org/) -->

<svg
   xmlns:dc="http://purl.org/dc/elements/1.1/"
   xmlns:cc="http://creativecommons.org/ns#"
   xmlns:rdf="http://www.w3.org/1999/02/22-rdf-syntax-ns#"
   xmlns:svg="http://www.w3.org/2000/svg"
   xmlns="http://www.w3.org/2000/svg"
   xmlns:sodipodi="http://sodipodi.sourceforge.net/DTD/sodipodi-0.dtd"
   xmlns:inkscape="http://www.inkscape.org/namespaces/inkscape"
   width="90.664062"
   height="90.703125"
   id="svg23802"
   version="1.1"
   inkscape:version="0.48.2 r9819"
   sodipodi:docname="New document 205">
  <defs
     id="defs23804" />
  <sodipodi:namedview
     id="base"
     pagecolor="#ffffff"
     bordercolor="#666666"
     borderopacity="1.0"
     inkscape:pageopacity="0.0"
     inkscape:pageshadow="2"
     inkscape:zoom="0.35"
     inkscape:cx="48.90143"
     inkscape:cy="-80.395533"
     inkscape:document-units="px"
     inkscape:current-layer="layer1"
     showgrid="false"
     fit-margin-top="0"
     fit-margin-left="0"
     fit-margin-right="0"
     fit-margin-bottom="0"
     inkscape:window-width="469"
     inkscape:window-height="425"
     inkscape:window-x="1416"
     inkscape:window-y="50"
     inkscape:window-maximized="0" />
  <metadata
     id="metadata23807">
    <rdf:RDF>
      <cc:Work
         rdf:about="">
        <dc:format>image/svg+xml</dc:format>
        <dc:type
           rdf:resource="http://purl.org/dc/dcmitype/StillImage" />
        <dc:title></dc:title>
      </cc:Work>
    </rdf:RDF>
  </metadata>
  <g
     inkscape:label="Layer 1"
     inkscape:groupmode="layer"
     id="layer1"
     transform="translate(-326.09857,-361.26353)">
    <g
       id="g23421"
       transform="matrix(1.25,0,0,-1.25,371.41107,451.65415)">
      <path
         d="m 0,0 c -20.746,4.219 -35.99,22.853 -35.99,44.125 0,10.021 3.464,20.15 9.617,27.885 4.045,-1.231 8.808,-1.96 13.202,-1.96 4.396,0 9.143,0.702 13.186,1.934 4.043,-1.232 8.789,-1.934 13.184,-1.934 4.396,0 9.158,0.729 13.201,1.96 6.154,-7.735 9.618,-17.864 9.618,-27.885 C 36.018,22.853 20.744,4.22 0,0"
         style="fill:#ffffff;fill-opacity:1;fill-rule:evenodd;stroke:none"
         id="path23423"
         inkscape:connector-curvature="0" />
    </g>
    <g
       id="g23425"
       transform="matrix(1.25,0,0,-1.25,371.41107,451.65415)">
      <path
         d="m 0,0 c -20.746,4.219 -35.99,22.853 -35.99,44.125 0,10.021 3.464,20.15 9.617,27.885 4.045,-1.231 8.808,-1.96 13.202,-1.96 4.396,0 9.143,0.702 13.186,1.934 4.043,-1.232 8.789,-1.934 13.184,-1.934 4.396,0 9.158,0.729 13.201,1.96 6.154,-7.735 9.618,-17.864 9.618,-27.885 C 36.018,22.853 20.744,4.22 0,0 z"
         style="fill:none;stroke:#231f20;stroke-width:0.5;stroke-linecap:butt;stroke-linejoin:miter;stroke-miterlimit:4;stroke-opacity:1;stroke-dasharray:none"
         id="path23427"
         inkscape:connector-curvature="0" />
    </g>
    <g
       id="g23429"
       transform="matrix(1.25,0,0,-1.25,343.69381,434.3149)">
      <path
         d="m 0,0 c -1.668,1.8 -3.31,3.657 -4.66,5.714 -1.362,2.074 -2.678,4.2 -3.677,6.477 -0.992,2.259 -1.925,4.568 -2.518,6.969 -0.595,2.409 -1.128,4.863 -1.295,7.346 -0.166,2.479 -0.244,4.961 -0.005,7.44 0.242,2.51 0.674,4.966 1.295,7.411 0.031,0.123 0.031,0.098 0.147,0.098 l 0.427,0 1.698,0 6.26,0 9.1,0 10.763,0 11.251,0 10.564,0 8.7,0 5.66,0 1.322,0 0.221,0 c 0.062,0 0.264,-1.195 0.303,-1.365 0.527,-2.37 0.924,-4.779 1.052,-7.207 0.135,-2.518 0.07,-5.024 -0.209,-7.529 C 56.126,22.892 55.618,20.465 54.919,18.09 54.218,15.707 53.306,13.401 52.212,11.173 51.095,8.896 49.769,6.749 48.293,4.692 46.82,2.642 45.136,0.771 43.348,-1.005 41.561,-2.78 39.568,-4.321 37.516,-5.771 35.49,-7.2 33.287,-8.352 31.054,-9.414 c -2.246,-1.067 -4.627,-1.826 -7.021,-2.481 -0.587,-0.161 -1.183,-0.283 -1.777,-0.418 -0.224,-0.051 -0.51,0.078 -0.729,0.127 -0.305,0.069 -0.617,0.126 -0.92,0.209 -1.218,0.334 -2.418,0.692 -3.621,1.08 -2.367,0.765 -4.61,1.892 -6.802,3.051 C 9.096,-7.271 8.066,-6.576 7.033,-5.91 6.014,-5.253 4.994,-4.499 4.065,-3.717 2.652,-2.53 1.309,-1.302 0,0"
         style="fill:#155196;fill-opacity:1;fill-rule:evenodd;stroke:none"
         id="path23431"
         inkscape:connector-curvature="0" />
    </g>
    <g
       id="g23433"
       transform="matrix(1.25,0,0,-1.25,330.69269,380.62102)">
      <path
         d="m 0,0 c 0.669,2.299 1.545,4.563 2.621,6.703 1.126,2.242 2.397,4.399 3.892,6.416 0.105,0.141 0.178,0.36 0.358,0.311 0.461,-0.127 0.923,-0.245 1.387,-0.357 0.889,-0.213 1.784,-0.4 2.683,-0.564 1.796,-0.327 3.611,-0.554 5.433,-0.678 3.622,-0.248 7.255,-0.034 10.836,0.55 1.78,0.289 3.541,0.687 5.275,1.181 0.195,0.055 0.432,-0.064 0.626,-0.117 0.209,-0.058 0.419,-0.114 0.629,-0.17 0.453,-0.118 0.906,-0.23 1.363,-0.334 0.879,-0.198 1.762,-0.372 2.649,-0.525 3.572,-0.619 7.216,-0.82 10.833,-0.601 1.825,0.111 3.639,0.345 5.44,0.654 0.893,0.162 1.784,0.341 2.667,0.55 0.432,0.102 0.863,0.21 1.293,0.323 0.064,0.017 0.406,0.146 0.44,0.1 0.058,-0.077 0.115,-0.155 0.173,-0.233 0.763,-1.029 1.47,-2.093 2.14,-3.185 C 62.023,7.934 63.08,5.717 63.996,3.443 64.449,2.316 64.835,1.162 65.187,0 L 62.775,0 56.345,0 47.104,0 36.261,0 25.026,0 14.606,0 6.211,0 1.049,0 0,0"
         style="fill:#bf2519;fill-opacity:1;fill-rule:evenodd;stroke:none"
         id="path23435"
         inkscape:connector-curvature="0" />
    </g>
    <g
       id="g23437"
       transform="matrix(1.25,0,0,-1.25,400.15981,378.7399)">
      <path
         d="m 0,0 0,1.053 -2.735,0 0,2.472 1.551,0 0,1.026 -1.551,0 0,1.893 2.445,0 0,1.052 -3.524,0 L -3.814,0 0,0 z m -4.84,6.497 0,0.999 -3.814,0 0,-0.999 1.368,0 0,-6.497 1.078,0 0,6.497 1.368,0 z m -6.129,-3.393 -1.079,0 0.526,2.157 0.553,-2.157 z M -9.102,0 l -1.867,7.496 -1.052,0 -1.868,-7.496 1.078,0 0.5,2.052 1.605,0 L -10.18,0 -9.102,0 z m -5.234,6.497 0,0.999 -3.814,0 0,-0.999 1.368,0 0,-6.497 1.078,0 0,6.497 1.368,0 z m -4.498,-4.445 c 0,1.078 -0.631,1.894 -2.078,2.735 -0.553,0.315 -0.71,0.527 -0.71,0.895 0,0.5 0.394,0.868 0.894,0.868 0.474,0 0.842,-0.342 0.868,-0.868 l 1.026,0 c -0.026,1.13 -0.842,1.946 -1.894,1.946 -1.078,0 -1.919,-0.868 -1.919,-1.946 0,-0.658 0.315,-1.237 0.92,-1.658 1.526,-1.026 1.105,-0.736 1.262,-0.894 0.447,-0.342 0.605,-0.657 0.605,-1.078 0,-0.606 -0.473,-1.131 -1.052,-1.131 -0.736,0 -1.052,0.657 -1.052,1.289 l -1.052,0 c 0,-1.237 0.789,-2.346 2.104,-2.346 1.157,0 2.078,0.978 2.078,2.188 m -6.102,3.445 c 0,-0.604 -0.342,-0.946 -0.973,-0.946 l -1.106,0 0,1.893 1.106,0 c 0.578,0 0.973,-0.368 0.973,-0.947 M -23.884,0 -24.963,3.683 c 0.711,0.263 1.079,0.921 1.079,1.814 0,1.211 -0.789,1.999 -1.972,1.999 l -2.237,0 0,-7.496 1.078,0 0,3.525 1.027,0 0.999,-3.525 1.105,0 z m -5.471,0 0,1.053 -2.736,0 0,2.472 1.552,0 0,1.026 -1.552,0 0,1.893 2.446,0 0,1.052 -3.524,0 0,-7.496 3.814,0 z m -4.84,6.497 0,0.999 -3.814,0 0,-0.999 1.367,0 0,-6.497 1.079,0 0,6.497 1.368,0 z M -39.035,0 l 0,7.496 -1.079,0 0,-4.498 -2.051,4.498 -1.079,0 0,-7.496 1.079,0 0,5.024 2.314,-5.024 0.816,0 z m -5.84,7.496 -1.052,0 0,-7.496 1.052,0 0,7.496 z"
         style="fill:#ffffff;fill-opacity:1;fill-rule:evenodd;stroke:none"
         id="path23439"
         inkscape:connector-curvature="0" />
    </g>
    <g
       id="g23441"
       transform="matrix(1.25,0,0,-1.25,342.66719,428.06977)">
      <path
         d="m 0,0 c 0.105,3.474 0.842,6.317 2.527,9.159 1.263,2.317 3.158,4.212 5.264,5.791 0.526,0.316 0.947,0.632 1.369,0.948 l 1.579,0.842 1.473,0.842 1.474,0.842 c 1.159,0.737 2.001,2 2.001,3.264 0,2.211 -2.527,4.001 -5.475,4.001 -3.053,0 -4.948,-1.475 -5.474,-4.212 L 0,22.53 c 1.053,4.948 4.948,8.001 10.212,8.001 5.685,0 10.212,-4 10.212,-8.948 0,-2.317 -1.052,-4.633 -3.053,-6.423 -0.421,-0.316 -0.842,-0.631 -1.263,-0.842 L 14.634,13.371 13.055,12.528 11.581,11.686 C 8.738,10.002 7.159,8.212 5.685,4.843 l 14.739,0 L 20.424,0 0,0 z"
         style="fill:#ffffff;fill-opacity:1;fill-rule:evenodd;stroke:none"
         id="path23443"
         inkscape:connector-curvature="0" />
    </g>
    <g
       id="g23445"
       transform="matrix(1.25,0,0,-1.25,375.56694,428.06977)">
      <path
         d="m 0,0 c 0.105,3.474 0.842,6.317 2.527,9.159 1.263,2.317 3.158,4.212 5.264,5.791 0.526,0.316 0.947,0.632 1.369,0.948 l 1.579,0.842 1.474,0.842 1.473,0.842 c 1.159,0.737 2.001,2 2.001,3.264 0,2.211 -2.527,4.001 -5.475,4.001 -3.053,0 -4.948,-1.475 -5.474,-4.212 L 0,22.53 c 1.053,4.948 4.948,8.001 10.212,8.001 5.686,0 10.212,-4 10.212,-8.948 0,-2.317 -1.052,-4.633 -3.052,-6.423 -0.422,-0.316 -0.843,-0.631 -1.264,-0.842 L 14.634,13.371 13.055,12.528 11.581,11.686 C 8.738,10.002 7.159,8.212 5.685,4.843 l 14.739,0 L 20.424,0 0,0 z"
         style="fill:#ffffff;fill-opacity:1;fill-rule:evenodd;stroke:none"
         id="path23447"
         inkscape:connector-curvature="0" />
    </g>
  </g>
</svg>
