<?xml version="1.0" encoding="UTF-8" standalone="no"?>
<!-- Created with Inkscape (http://www.inkscape.org/) -->

<svg
   xmlns:dc="http://purl.org/dc/elements/1.1/"
   xmlns:cc="http://creativecommons.org/ns#"
   xmlns:rdf="http://www.w3.org/1999/02/22-rdf-syntax-ns#"
   xmlns:svg="http://www.w3.org/2000/svg"
   xmlns="http://www.w3.org/2000/svg"
   xmlns:sodipodi="http://sodipodi.sourceforge.net/DTD/sodipodi-0.dtd"
   xmlns:inkscape="http://www.inkscape.org/namespaces/inkscape"
   width="114.7575"
   height="91.25"
   id="svg24706"
   version="1.1"
   inkscape:version="0.48.2 r9819"
   sodipodi:docname="New document 219">
  <defs
     id="defs24708" />
  <sodipodi:namedview
     id="base"
     pagecolor="#ffffff"
     bordercolor="#666666"
     borderopacity="1.0"
     inkscape:pageopacity="0.0"
     inkscape:pageshadow="2"
     inkscape:zoom="0.35"
     inkscape:cx="86.66446"
     inkscape:cy="11.339287"
     inkscape:document-units="px"
     inkscape:current-layer="layer1"
     showgrid="false"
     fit-margin-top="0"
     fit-margin-left="0"
     fit-margin-right="0"
     fit-margin-bottom="0"
     inkscape:window-width="469"
     inkscape:window-height="425"
     inkscape:window-x="1416"
     inkscape:window-y="50"
     inkscape:window-maximized="0" />
  <metadata
     id="metadata24711">
    <rdf:RDF>
      <cc:Work
         rdf:about="">
        <dc:format>image/svg+xml</dc:format>
        <dc:type
           rdf:resource="http://purl.org/dc/dcmitype/StillImage" />
        <dc:title></dc:title>
      </cc:Work>
    </rdf:RDF>
  </metadata>
  <g
     inkscape:label="Layer 1"
     inkscape:groupmode="layer"
     id="layer1"
     transform="translate(-288.33554,-452.45147)">
    <g
       id="g23209"
       transform="matrix(1.25,0,0,-1.25,345.71304,543.07647)">
      <path
         d="m 0,0 c -3.25,3.861 -8.096,6.22 -13.139,6.22 l -12.32,0 c -10.941,0 -19.865,8.921 -19.865,19.863 0,6.764 4.318,11.727 4.318,18.721 0,4.754 -1.615,9.69 -4.396,13.458 L -31.068,72 c 4.636,-2.789 10.177,-4.404 15.601,-4.404 5.426,0 10.852,1.615 15.467,4.386 4.617,-2.771 10.043,-4.386 15.469,-4.386 5.424,0 10.965,1.615 15.601,4.404 L 45.404,58.262 c -2.781,-3.768 -4.398,-8.704 -4.398,-13.458 0,-6.994 4.318,-11.957 4.318,-18.721 C 45.324,15.141 36.402,6.22 25.461,6.22 l -12.322,0 C 8.098,6.22 3.252,3.861 0,0"
         style="fill:#ffffff;fill-opacity:1;fill-rule:evenodd;stroke:none"
         id="path23211"
         inkscape:connector-curvature="0" />
    </g>
    <g
       id="g23213"
       transform="matrix(1.25,0,0,-1.25,345.71304,543.07647)">
      <path
         d="m 0,0 c -3.25,3.861 -8.096,6.22 -13.139,6.22 l -12.32,0 c -10.941,0 -19.865,8.921 -19.865,19.863 0,6.764 4.318,11.727 4.318,18.721 0,4.754 -1.615,9.69 -4.396,13.458 L -31.068,72 c 4.636,-2.789 10.177,-4.404 15.601,-4.404 5.426,0 10.852,1.615 15.467,4.386 4.617,-2.771 10.043,-4.386 15.469,-4.386 5.424,0 10.965,1.615 15.601,4.404 L 45.404,58.262 c -2.781,-3.768 -4.398,-8.704 -4.398,-13.458 0,-6.994 4.318,-11.957 4.318,-18.721 C 45.324,15.141 36.402,6.22 25.461,6.22 l -12.322,0 C 8.098,6.22 3.252,3.861 0,0 z"
         style="fill:none;stroke:#231f20;stroke-width:1;stroke-linecap:butt;stroke-linejoin:miter;stroke-miterlimit:4;stroke-opacity:1;stroke-dasharray:none"
         id="path23215"
         inkscape:connector-curvature="0" />
    </g>
    <g
       id="g23217"
       transform="matrix(1.25,0,0,-1.25,323.84554,487.15022)">
      <path
         d="m 0,0 c -3.082,-5.176 -5.422,-11.091 -6.531,-16.759 -0.494,-2.959 -0.741,-5.176 -0.741,-8.627 l -5.667,0 c 0.123,8.133 1.601,14.911 5.052,22.305 1.233,2.711 2.711,5.299 3.944,7.271 l -16.76,0 0,5.545 23.783,0 0,-5.545 C 1.848,2.588 1.109,1.849 0,0"
         style="fill:#231f20;fill-opacity:1;fill-rule:evenodd;stroke:none"
         id="path23219"
         inkscape:connector-curvature="0" />
    </g>
    <g
       id="g23221"
       transform="matrix(1.25,0,0,-1.25,360.34928,488.22897)">
      <path
         d="m 0,0 c 0,6.408 -5.176,11.215 -11.953,11.215 -6.654,0 -11.953,-4.683 -11.953,-10.722 0,-5.915 5.422,-10.721 11.953,-10.721 1.355,0 2.219,0.123 4.189,0.493 -2.093,-4.559 -4.312,-7.393 -8.502,-10.721 l 2.711,-4.683 C -5.422,-19.593 0,-9.612 0,0 m -5.545,0.493 c 0,-2.834 -2.834,-5.052 -6.408,-5.052 -3.449,0 -6.285,2.218 -6.285,5.052 0,2.835 2.836,5.053 6.285,5.053 3.451,0 6.408,-2.342 6.408,-5.053"
         style="fill:#231f20;fill-opacity:1;fill-rule:evenodd;stroke:none"
         id="path23223"
         inkscape:connector-curvature="0" />
    </g>
    <g
       id="g23225"
       transform="matrix(1.25,0,0,-1.25,387.30803,505.01897)">
      <path
         d="m 0,0 c 0,-3.327 -2.834,-6.038 -6.409,-6.038 -3.451,0 -6.285,2.711 -6.285,6.038 0,2.958 2.834,5.299 6.285,5.299 C -2.958,5.299 0,2.958 0,0 m 5.544,0.123 c 0,3.204 -1.355,6.039 -4.066,8.134 1.725,1.848 2.711,3.943 2.711,6.408 0,5.422 -4.93,9.982 -10.598,9.982 -5.668,0 -10.474,-4.56 -10.474,-9.982 0,-2.465 0.863,-4.56 2.588,-6.408 -2.588,-2.095 -4.067,-4.806 -4.067,-8.134 0,-6.407 5.545,-11.83 11.953,-11.83 6.409,0 11.953,5.423 11.953,11.83 m -7.023,14.665 c 0,-2.095 -2.219,-3.82 -4.93,-3.82 -2.711,0 -4.929,1.725 -4.929,3.82 0,2.342 2.218,4.19 4.929,4.19 2.711,0 4.93,-1.848 4.93,-4.19"
         style="fill:#231f20;fill-opacity:1;fill-rule:evenodd;stroke:none"
         id="path23227"
         inkscape:connector-curvature="0" />
    </g>
  </g>
</svg>
