<?xml version="1.0" encoding="UTF-8" standalone="no"?>
<!-- Created with Inkscape (http://www.inkscape.org/) -->

<svg
   xmlns:dc="http://purl.org/dc/elements/1.1/"
   xmlns:cc="http://creativecommons.org/ns#"
   xmlns:rdf="http://www.w3.org/1999/02/22-rdf-syntax-ns#"
   xmlns:svg="http://www.w3.org/2000/svg"
   xmlns="http://www.w3.org/2000/svg"
   xmlns:sodipodi="http://sodipodi.sourceforge.net/DTD/sodipodi-0.dtd"
   xmlns:inkscape="http://www.inkscape.org/namespaces/inkscape"
   width="325.26657"
   height="181.32812"
   id="svg14601"
   version="1.1"
   inkscape:version="0.48.3.1 r9886"
   sodipodi:docname="New document 71">
  <defs
     id="defs14603">
    <clipPath
       clipPathUnits="userSpaceOnUse"
       id="clipPath11071">
      <path
         inkscape:connector-curvature="0"
         d="m 27,44.082 513.086,0 0,693.845 -513.086,0 0,-693.845 z"
         id="path11073" />
    </clipPath>
    <clipPath
       clipPathUnits="userSpaceOnUse"
       id="clipPath11059">
      <path
         inkscape:connector-curvature="0"
         d="m 31,46.05 504.526,0 0,691.876 -504.526,0 0,-691.876 z"
         id="path11061" />
    </clipPath>
    <clipPath
       clipPathUnits="userSpaceOnUse"
       id="clipPath11043">
      <path
         inkscape:connector-curvature="0"
         d="m 27,44.082 513.086,0 0,693.845 -513.086,0 0,-693.845 z"
         id="path11045" />
    </clipPath>
    <clipPath
       clipPathUnits="userSpaceOnUse"
       id="clipPath10919">
      <path
         inkscape:connector-curvature="0"
         d="m 27,44.082 513.086,0 0,693.845 -513.086,0 0,-693.845 z"
         id="path10921" />
    </clipPath>
  </defs>
  <sodipodi:namedview
     id="base"
     pagecolor="#ffffff"
     bordercolor="#666666"
     borderopacity="1.0"
     inkscape:pageopacity="0.0"
     inkscape:pageshadow="2"
     inkscape:zoom="0.35"
     inkscape:cx="162.6275"
     inkscape:cy="90.657497"
     inkscape:document-units="px"
     inkscape:current-layer="layer1"
     showgrid="false"
     fit-margin-top="0"
     fit-margin-left="0"
     fit-margin-right="0"
     fit-margin-bottom="0"
     inkscape:window-width="451"
     inkscape:window-height="398"
     inkscape:window-x="25"
     inkscape:window-y="25"
     inkscape:window-maximized="0" />
  <metadata
     id="metadata14606">
    <rdf:RDF>
      <cc:Work
         rdf:about="">
        <dc:format>image/svg+xml</dc:format>
        <dc:type
           rdf:resource="http://purl.org/dc/dcmitype/StillImage" />
        <dc:title></dc:title>
      </cc:Work>
    </rdf:RDF>
  </metadata>
  <g
     inkscape:label="Layer 1"
     inkscape:groupmode="layer"
     id="layer1"
     transform="translate(-212.3725,-441.69155)">
    <g
       transform="matrix(1.25,0,0,-1.25,173.6225,854.30093)"
       id="g10915">
      <g
         id="g10917"
         clip-path="url(#clipPath10919)">
        <g
           id="g10923"
           transform="translate(158.307,293.3255)">
          <path
             inkscape:connector-curvature="0"
             d="m 0,0 127.852,0 c 1.721,0 3.133,-1.407 3.133,-3.141 l 0,-46.08 0,-3.133 -134.124,0 0,3.133 0,46.08 C -3.139,-1.407 -1.724,0 0,0"
             style="fill:#155196;fill-opacity:1;fill-rule:evenodd;stroke:none"
             id="path10925" />
        </g>
        <g
           id="g10927"
           transform="translate(289.292,239.1285)">
          <path
             inkscape:connector-curvature="0"
             d="m 0,0 0,-3.141 0,-46.182 c 0,-1.722 -1.412,-3.133 -3.133,-3.133 l -127.852,0 c -1.724,0 -3.139,1.411 -3.139,3.133 l 0,46.182 0,3.141"
             style="fill:#155196;fill-opacity:1;fill-rule:evenodd;stroke:none"
             id="path10929" />
        </g>
        <g
           id="g10931"
           transform="translate(174.591,224.9035)">
          <path
             inkscape:connector-curvature="0"
             d="m 0,0 c -2.404,0 -3.389,2.143 -3.389,4.287 0,2.145 0.985,4.26 3.389,4.26 1.42,0 2.463,-0.813 2.985,-2.059 L 1.45,5.91 C 1.189,6.547 0.667,6.894 0,6.894 -1.419,6.894 -1.709,5.445 -1.709,4.287 -1.709,3.1 -1.419,1.65 0,1.65 c 0.638,0 1.159,0.348 1.45,0.985 l -0.986,0 0,1.652 2.84,0 C 3.188,2.201 2.55,0 0,0"
             style="fill:#ffffff;fill-opacity:1;fill-rule:nonzero;stroke:none"
             id="path10933" />
        </g>
        <g
           id="g10935"
           transform="translate(187.397,225.0475)">
          <path
             inkscape:connector-curvature="0"
             d="m 0,0 -3.332,8.286 -1.709,0 L -8.373,0 l 1.768,0 0.782,1.942 3.273,0 L -1.768,0 0,0 z m -3.216,3.592 -1.941,0 1.014,2.319 0.927,-2.319 z"
             style="fill:#ffffff;fill-opacity:1;fill-rule:nonzero;stroke:none"
             id="path10937" />
        </g>
        <g
           id="g10939"
           transform="translate(194.148,225.3665)">
          <path
             inkscape:connector-curvature="0"
             d="m 0,0 c -0.493,-0.29 -1.362,-0.463 -2.145,-0.463 -0.926,0 -1.825,0.26 -2.549,0.752 -0.261,0.145 -0.435,0.291 -0.811,0.639 l 1.158,1.157 c 0.696,-0.636 1.333,-0.898 2.289,-0.898 0.956,0 1.623,0.319 1.623,0.898 0,0.233 -0.145,0.552 -0.377,0.696 -0.29,0.174 -0.579,0.26 -1.651,0.462 -0.869,0.204 -1.391,0.378 -1.738,0.61 C -4.752,4.23 -5.1,4.955 -5.1,5.65 c 0,0.84 0.435,1.592 1.16,2.028 0.462,0.289 1.013,0.406 1.738,0.406 0.927,0 1.796,-0.203 2.491,-0.639 C 0.463,7.33 0.55,7.271 0.81,7.068 L -0.203,5.766 c -0.666,0.492 -1.275,0.665 -2.057,0.665 -0.754,0 -1.218,-0.259 -1.218,-0.781 0,-0.203 0.117,-0.436 0.32,-0.522 0.144,-0.087 0.318,-0.116 0.492,-0.173 l 0.261,-0.029 0.29,-0.059 0.377,-0.058 C 0.174,4.46 1.187,3.564 1.187,2.115 1.187,1.246 0.724,0.406 0,0"
             style="fill:#ffffff;fill-opacity:1;fill-rule:nonzero;stroke:none"
             id="path10941" />
        </g>
        <path
           inkscape:connector-curvature="0"
           d="m 197.277,228.843 11.589,0 0,-1.68 -11.589,0 0,1.68 z"
           style="fill:#ffffff;fill-opacity:1;fill-rule:nonzero;stroke:none"
           id="path10943" />
        <g
           id="g10945"
           transform="translate(211.067,225.0475)">
          <path
             inkscape:connector-curvature="0"
             d="m 0,0 0,8.286 6.026,0 0,-1.651 -4.404,0 0,-1.361 2.492,0 0,-1.652 -2.492,0 0,-1.971 4.52,0 L 6.142,0 0,0 z"
             style="fill:#ffffff;fill-opacity:1;fill-rule:nonzero;stroke:none"
             id="path10947" />
        </g>
        <g
           id="g10949"
           transform="translate(223.641,225.0175)">
          <path
             inkscape:connector-curvature="0"
             d="m 0,0 -1.652,2.783 -1.709,-2.753 -1.912,0 2.607,4.345 -2.376,3.911 1.942,0 1.448,-2.345 1.391,2.345 1.97,0 L -0.638,4.347 1.941,0.03 0,0 z"
             style="fill:#ffffff;fill-opacity:1;fill-rule:nonzero;stroke:none"
             id="path10951" />
        </g>
        <path
           inkscape:connector-curvature="0"
           d="m 227.32,233.334 1.65,0 0,-8.286 -1.65,0 0,8.286 z"
           style="fill:#ffffff;fill-opacity:1;fill-rule:nonzero;stroke:none"
           id="path10953" />
        <g
           id="g10955"
           transform="translate(234.329,231.6825)">
          <path
             inkscape:connector-curvature="0"
             d="m 0,0 0,-6.635 -1.592,0 0,6.635 -2.289,0 0,1.651 6.141,0 L 2.26,0 0,0 z"
             style="fill:#ffffff;fill-opacity:1;fill-rule:nonzero;stroke:none"
             id="path10957" />
        </g>
        <g
           id="g10959"
           transform="translate(244.905,225.0475)">
          <path
             inkscape:connector-curvature="0"
             d="M 0,0 C 0.057,0.782 0.116,1.187 0.317,1.738 0.666,2.753 1.332,3.622 2.201,4.202 2.52,4.432 2.926,4.606 3.33,4.779 L 3.649,4.926 3.94,5.012 4.229,5.128 C 4.692,5.331 4.983,5.622 4.983,5.911 4.983,6.403 4.317,6.75 3.36,6.75 2.52,6.75 1.969,6.547 1.158,5.911 L 0,7.128 c 0.549,0.405 0.811,0.58 1.188,0.753 0.666,0.348 1.418,0.522 2.23,0.522 1.043,0 1.969,-0.291 2.52,-0.813 C 6.373,7.186 6.604,6.665 6.604,5.969 6.604,4.753 5.852,3.911 4.258,3.36 3.33,3.012 3.1,2.897 2.664,2.463 2.405,2.202 2.231,1.969 2.057,1.651 l 4.635,0 L 6.692,0 0,0 z"
             style="fill:#ffffff;fill-opacity:1;fill-rule:nonzero;stroke:none"
             id="path10961" />
        </g>
        <g
           id="g10963"
           transform="translate(254.29,225.0475)">
          <path
             inkscape:connector-curvature="0"
             d="m 0,0 0,5.622 -0.811,0 0,1.679 c 0.61,0.289 0.667,0.463 0.928,0.985 l 1.565,0 L 1.682,0 0,0 z"
             style="fill:#ffffff;fill-opacity:1;fill-rule:nonzero;stroke:none"
             id="path10965" />
        </g>
        <g
           id="g10967"
           transform="translate(258.897,225.0475)">
          <path
             inkscape:connector-curvature="0"
             d="m 0,0 0,5.622 -0.81,0 0,1.679 c 0.607,0.289 0.666,0.463 0.926,0.985 l 1.564,0 L 1.68,0 0,0 z"
             style="fill:#ffffff;fill-opacity:1;fill-rule:nonzero;stroke:none"
             id="path10969" />
        </g>
        <g
           id="g10971"
           transform="translate(271.993,231.0445)">
          <path
             inkscape:connector-curvature="0"
             d="m 0,0 c 0,-0.435 -0.377,-0.782 -0.898,-0.782 l -2.26,0 0,1.42 2.404,0 C -0.262,0.638 0,0.406 0,0 m 1.883,-3.534 c 0,0.782 -0.289,1.42 -0.928,1.941 0.465,0.434 0.668,0.956 0.668,1.593 0,0.812 -0.435,1.593 -1.131,1.97 -0.433,0.262 -0.695,0.319 -1.42,0.319 l -3.851,0 0,-8.286 3.851,0 0.377,0 c 0.407,0 0.84,0.116 1.217,0.319 0.754,0.434 1.217,1.246 1.217,2.144 m -1.621,0 c 0,-0.494 -0.35,-0.812 -0.957,-0.812 l -2.463,0 0,1.911 2.23,0 c 0.291,0 0.465,-0.026 0.639,-0.115 0.348,-0.173 0.551,-0.579 0.551,-0.984"
             style="fill:#ffffff;fill-opacity:1;fill-rule:nonzero;stroke:none"
             id="path10973" />
        </g>
        <path
           inkscape:connector-curvature="0"
           d="m 197.496,248.555 -33.046,0 0,24.649 33.046,0 0,-24.649 z"
           style="fill:#155196;fill-opacity:1;fill-rule:nonzero;stroke:#ffffff;stroke-width:0.5;stroke-linecap:butt;stroke-linejoin:miter;stroke-miterlimit:4;stroke-opacity:1;stroke-dasharray:none"
           id="path10975" />
        <path
           inkscape:connector-curvature="0"
           d="m 239.481,248.555 -33.046,0 0,24.649 33.046,0 0,-24.649 z"
           style="fill:#155196;fill-opacity:1;fill-rule:nonzero;stroke:#ffffff;stroke-width:0.5;stroke-linecap:butt;stroke-linejoin:miter;stroke-miterlimit:4;stroke-opacity:1;stroke-dasharray:none"
           id="path10977" />
        <path
           inkscape:connector-curvature="0"
           d="m 281.468,248.555 -33.047,0 0,24.649 33.047,0 0,-24.649 z"
           style="fill:#155196;fill-opacity:1;fill-rule:nonzero;stroke:#ffffff;stroke-width:0.5;stroke-linecap:butt;stroke-linejoin:miter;stroke-miterlimit:4;stroke-opacity:1;stroke-dasharray:none"
           id="path10979" />
        <g
           id="g10981"
           transform="translate(174.253,280.2625)">
          <path
             inkscape:connector-curvature="0"
             d="m 0,0 c -2.405,0 -3.39,2.145 -3.39,4.289 0,2.142 0.985,4.258 3.39,4.258 1.419,0 2.462,-0.81 2.984,-2.056 L 1.449,5.91 C 1.188,6.547 0.666,6.895 0,6.895 -1.42,6.895 -1.71,5.448 -1.71,4.289 -1.71,3.1 -1.42,1.652 0,1.652 c 0.637,0 1.159,0.346 1.449,0.985 l -0.986,0 0,1.652 2.84,0 C 3.187,2.202 2.549,0 0,0"
             style="fill:#ffffff;fill-opacity:1;fill-rule:nonzero;stroke:none"
             id="path10983" />
        </g>
        <g
           id="g10985"
           transform="translate(187.058,280.4075)">
          <path
             inkscape:connector-curvature="0"
             d="m 0,0 -3.331,8.286 -1.71,0 L -8.373,0 l 1.768,0 0.782,1.941 3.274,0 L -1.766,0 0,0 z m -3.216,3.594 -1.941,0 1.015,2.317 0.926,-2.317 z"
             style="fill:#ffffff;fill-opacity:1;fill-rule:nonzero;stroke:none"
             id="path10987" />
        </g>
        <g
           id="g10989"
           transform="translate(193.809,280.7265)">
          <path
             inkscape:connector-curvature="0"
             d="m 0,0 c -0.493,-0.29 -1.362,-0.464 -2.144,-0.464 -0.927,0 -1.826,0.26 -2.549,0.754 -0.261,0.144 -0.435,0.289 -0.812,0.637 l 1.159,1.159 c 0.696,-0.637 1.332,-0.898 2.288,-0.898 0.957,0 1.624,0.319 1.624,0.898 0,0.231 -0.146,0.55 -0.377,0.695 -0.29,0.173 -0.58,0.26 -1.652,0.464 -0.869,0.204 -1.39,0.377 -1.738,0.607 C -4.752,4.229 -5.1,4.954 -5.1,5.65 c 0,0.84 0.435,1.593 1.16,2.028 0.464,0.289 1.013,0.405 1.738,0.405 0.927,0 1.796,-0.204 2.491,-0.637 C 0.463,7.329 0.551,7.273 0.812,7.07 L -0.203,5.766 c -0.666,0.492 -1.274,0.665 -2.057,0.665 -0.754,0 -1.216,-0.26 -1.216,-0.781 0,-0.204 0.115,-0.436 0.318,-0.522 0.144,-0.087 0.318,-0.115 0.492,-0.174 l 0.261,-0.029 0.29,-0.058 0.377,-0.058 C 0.174,4.462 1.188,3.563 1.188,2.115 1.188,1.245 0.725,0.405 0,0"
             style="fill:#ffffff;fill-opacity:1;fill-rule:nonzero;stroke:none"
             id="path10991" />
        </g>
        <path
           inkscape:connector-curvature="0"
           d="m 196.938,284.203 11.589,0 0,-1.68 -11.589,0 0,1.68 z"
           style="fill:#ffffff;fill-opacity:1;fill-rule:nonzero;stroke:none"
           id="path10993" />
        <g
           id="g10995"
           transform="translate(210.728,280.4075)">
          <path
             inkscape:connector-curvature="0"
             d="m 0,0 0,8.286 6.026,0 0,-1.651 -4.403,0 0,-1.362 2.491,0 0,-1.651 -2.491,0 0,-1.97 4.52,0 L 6.143,0 0,0 z"
             style="fill:#ffffff;fill-opacity:1;fill-rule:nonzero;stroke:none"
             id="path10997" />
        </g>
        <g
           id="g10999"
           transform="translate(223.302,280.3785)">
          <path
             inkscape:connector-curvature="0"
             d="m 0,0 -1.651,2.782 -1.71,-2.753 -1.912,0 2.607,4.346 -2.375,3.911 1.941,0 1.449,-2.346 1.391,2.346 1.969,0 L -0.637,4.345 1.941,0.029 0,0 z"
             style="fill:#ffffff;fill-opacity:1;fill-rule:nonzero;stroke:none"
             id="path11001" />
        </g>
        <path
           inkscape:connector-curvature="0"
           d="m 226.981,288.694 1.651,0 0,-8.286 -1.651,0 0,8.286 z"
           style="fill:#ffffff;fill-opacity:1;fill-rule:nonzero;stroke:none"
           id="path11003" />
        <g
           id="g11005"
           transform="translate(233.991,287.0425)">
          <path
             inkscape:connector-curvature="0"
             d="m 0,0 0,-6.635 -1.594,0 0,6.635 -2.289,0 0,1.651 6.143,0 L 2.26,0 0,0 z"
             style="fill:#ffffff;fill-opacity:1;fill-rule:nonzero;stroke:none"
             id="path11007" />
        </g>
        <g
           id="g11009"
           transform="translate(244.565,280.4075)">
          <path
             inkscape:connector-curvature="0"
             d="m 0,0 c 0.059,0.783 0.116,1.187 0.319,1.738 0.347,1.015 1.013,1.884 1.883,2.463 0.318,0.233 0.724,0.405 1.13,0.58 L 3.651,4.926 3.94,5.012 4.231,5.128 C 4.694,5.332 4.983,5.621 4.983,5.911 4.983,6.402 4.317,6.75 3.362,6.75 2.52,6.75 1.971,6.548 1.161,5.911 L 0,7.128 c 0.551,0.405 0.811,0.579 1.188,0.753 0.666,0.346 1.42,0.521 2.23,0.521 1.043,0 1.971,-0.289 2.522,-0.81 C 6.373,7.186 6.606,6.664 6.606,5.969 6.606,4.752 5.852,3.911 4.26,3.36 3.332,3.014 3.1,2.898 2.666,2.462 2.405,2.202 2.231,1.971 2.057,1.652 l 4.637,0 L 6.694,0 0,0 z"
             style="fill:#ffffff;fill-opacity:1;fill-rule:nonzero;stroke:none"
             id="path11011" />
        </g>
        <g
           id="g11013"
           transform="translate(253.952,280.4075)">
          <path
             inkscape:connector-curvature="0"
             d="m 0,0 0,5.621 -0.81,0 0,1.681 c 0.607,0.29 0.666,0.463 0.925,0.984 l 1.567,0 L 1.682,0 0,0 z"
             style="fill:#ffffff;fill-opacity:1;fill-rule:nonzero;stroke:none"
             id="path11015" />
        </g>
        <g
           id="g11017"
           transform="translate(258.56,280.4075)">
          <path
             inkscape:connector-curvature="0"
             d="m 0,0 0,5.621 -0.813,0 0,1.681 c 0.609,0.29 0.666,0.463 0.928,0.984 l 1.564,0 L 1.679,0 0,0 z"
             style="fill:#ffffff;fill-opacity:1;fill-rule:nonzero;stroke:none"
             id="path11019" />
        </g>
        <g
           id="g11021"
           transform="translate(274.407,280.4075)">
          <path
             inkscape:connector-curvature="0"
             d="m 0,0 -3.332,8.286 -1.709,0 L -8.373,0 l 1.768,0 0.781,1.941 3.273,0 L -1.767,0 0,0 z m -3.217,3.594 -1.939,0 1.012,2.317 0.927,-2.317 z"
             style="fill:#ffffff;fill-opacity:1;fill-rule:nonzero;stroke:none"
             id="path11023" />
        </g>
        <path
           inkscape:connector-curvature="0"
           d="m 197.496,193.297 -33.046,0 0,24.648 33.046,0 0,-24.648 z"
           style="fill:#155196;fill-opacity:1;fill-rule:nonzero;stroke:#ffffff;stroke-width:0.5;stroke-linecap:butt;stroke-linejoin:miter;stroke-miterlimit:4;stroke-opacity:1;stroke-dasharray:none"
           id="path11025" />
        <path
           inkscape:connector-curvature="0"
           d="m 239.481,193.297 -33.046,0 0,24.648 33.046,0 0,-24.648 z"
           style="fill:#155196;fill-opacity:1;fill-rule:nonzero;stroke:#ffffff;stroke-width:0.5;stroke-linecap:butt;stroke-linejoin:miter;stroke-miterlimit:4;stroke-opacity:1;stroke-dasharray:none"
           id="path11027" />
        <path
           inkscape:connector-curvature="0"
           d="m 281.468,193.297 -33.047,0 0,24.648 33.047,0 0,-24.648 z"
           style="fill:#155196;fill-opacity:1;fill-rule:nonzero;stroke:#ffffff;stroke-width:0.5;stroke-linecap:butt;stroke-linejoin:miter;stroke-miterlimit:4;stroke-opacity:1;stroke-dasharray:none"
           id="path11029" />
        <g
           id="g11031"
           transform="translate(158.307,294.9625)">
          <path
             inkscape:connector-curvature="0"
             d="m 0,0 127.852,0 c 2.707,0 4.92,-2.215 4.92,-4.828 l 0,-99.977 c 0,-2.807 -2.213,-5.018 -4.92,-5.018 l -127.852,0 c -2.707,0 -4.922,2.211 -4.922,5.018 l 0,99.977 C -4.922,-2.215 -2.707,0 0,0 z"
             style="fill:none;stroke:#231f20;stroke-width:0.25;stroke-linecap:butt;stroke-linejoin:miter;stroke-miterlimit:2.61299992;stroke-opacity:1;stroke-dasharray:none"
             id="path11033" />
        </g>
      </g>
    </g>
    <text
       style="font-size:15px"
       y="561.59534"
       x="344.13876"
       id="text11035">
      <tspan
         style="font-size:11.25px;font-variant:normal;font-weight:normal;font-stretch:normal;writing-mode:lr-tb;fill:#231f20;fill-opacity:1;fill-rule:nonzero;stroke:none;font-family:Helvetica;-inkscape-font-specification:Helvetica"
         x="344.13876 352.89127"
         y="561.59534"
         sodipodi:role="line"
         id="tspan11037">OR</tspan>
    </text>
    <g
       transform="matrix(1.25,0,0,-1.25,173.6225,854.30093)"
       id="g11039">
      <g
         id="g11041"
         clip-path="url(#clipPath11043)">
        <g
           id="g11047"
           transform="translate(36.0488,328.3255)">
          <path
             inkscape:connector-curvature="0"
             d="m 0,0 91.853,0 c 1.723,0 3.134,-1.407 3.134,-3.141 l 0,-81.08 0,-3.133 -98.126,0 0,3.133 0,81.08 C -3.139,-1.407 -1.724,0 0,0"
             style="fill:#155196;fill-opacity:1;fill-rule:evenodd;stroke:none"
             id="path11049" />
        </g>
        <g
           id="g11051"
           transform="translate(131.034,239.1285)">
          <path
             inkscape:connector-curvature="0"
             d="m 0,0 0,-3.141 0,-46.182 c 0,-1.722 -1.411,-3.133 -3.134,-3.133 l -91.853,0 c -1.724,0 -3.139,1.411 -3.139,3.133 l 0,46.182 0,3.015"
             style="fill:#155196;fill-opacity:1;fill-rule:evenodd;stroke:none"
             id="path11053" />
        </g>
      </g>
    </g>
    <g
       transform="matrix(1.25,0,0,-1.25,173.6225,854.30093)"
       id="g11055">
      <g
         id="g11057"
         clip-path="url(#clipPath11059)">
        <g
           id="g11063"
           transform="translate(36.0469,329.9625)">
          <path
             inkscape:connector-curvature="0"
             d="m 0,0 91.854,0 c 2.707,0 4.92,-2.215 4.92,-4.828 l 0,-134.977 c 0,-2.807 -2.213,-5.018 -4.92,-5.018 l -91.854,0 c -2.707,0 -4.922,2.211 -4.922,5.018 l 0,134.977 C -4.922,-2.215 -2.707,0 0,0 z"
             style="fill:none;stroke:#231f20;stroke-width:0.25;stroke-linecap:butt;stroke-linejoin:miter;stroke-miterlimit:2.61299992;stroke-opacity:1;stroke-dasharray:none"
             id="path11065" />
        </g>
      </g>
    </g>
    <g
       transform="matrix(1.25,0,0,-1.25,173.6225,854.30093)"
       id="g11067">
      <g
         id="g11069"
         clip-path="url(#clipPath11071)">
        <path
           inkscape:connector-curvature="0"
           d="m 77.503,283.554 -33.046,0 0,24.65 33.046,0 0,-24.65 z"
           style="fill:#155196;fill-opacity:1;fill-rule:nonzero;stroke:#ffffff;stroke-width:0.5;stroke-linecap:butt;stroke-linejoin:miter;stroke-miterlimit:4;stroke-opacity:1;stroke-dasharray:none"
           id="path11075" />
        <path
           inkscape:connector-curvature="0"
           d="m 119.489,283.554 -33.047,0 0,24.65 33.047,0 0,-24.65 z"
           style="fill:#155196;fill-opacity:1;fill-rule:nonzero;stroke:#ffffff;stroke-width:0.5;stroke-linecap:butt;stroke-linejoin:miter;stroke-miterlimit:4;stroke-opacity:1;stroke-dasharray:none"
           id="path11077" />
        <path
           inkscape:connector-curvature="0"
           d="m 77.503,249.375 -33.046,0 0,24.648 33.046,0 0,-24.648 z"
           style="fill:#155196;fill-opacity:1;fill-rule:nonzero;stroke:#ffffff;stroke-width:0.5;stroke-linecap:butt;stroke-linejoin:miter;stroke-miterlimit:4;stroke-opacity:1;stroke-dasharray:none"
           id="path11079" />
        <path
           inkscape:connector-curvature="0"
           d="m 119.489,249.375 -33.047,0 0,24.648 33.047,0 0,-24.648 z"
           style="fill:#155196;fill-opacity:1;fill-rule:nonzero;stroke:#ffffff;stroke-width:0.5;stroke-linecap:butt;stroke-linejoin:miter;stroke-miterlimit:4;stroke-opacity:1;stroke-dasharray:none"
           id="path11081" />
        <path
           inkscape:connector-curvature="0"
           d="m 77.503,193.297 -33.046,0 0,24.648 33.046,0 0,-24.648 z"
           style="fill:#155196;fill-opacity:1;fill-rule:nonzero;stroke:#ffffff;stroke-width:0.5;stroke-linecap:butt;stroke-linejoin:miter;stroke-miterlimit:4;stroke-opacity:1;stroke-dasharray:none"
           id="path11083" />
        <path
           inkscape:connector-curvature="0"
           d="m 119.489,193.297 -33.047,0 0,24.648 33.047,0 0,-24.648 z"
           style="fill:#155196;fill-opacity:1;fill-rule:nonzero;stroke:#ffffff;stroke-width:0.5;stroke-linecap:butt;stroke-linejoin:miter;stroke-miterlimit:4;stroke-opacity:1;stroke-dasharray:none"
           id="path11085" />
      </g>
    </g>
    <path
       d="m 248.19375,454.79469 12.6575,0 0,2.09875 -12.6575,0 0,-2.09875 z"
       style="fill:#ffffff;fill-opacity:1;fill-rule:nonzero;stroke:none"
       id="path11763"
       inkscape:connector-curvature="0" />
    <path
       d="m 279.025,449.70594 1.6575,0 0,10.36 -1.6575,0 0,-10.36 z"
       style="fill:#ffffff;fill-opacity:1;fill-rule:nonzero;stroke:none"
       id="path11765"
       inkscape:connector-curvature="0" />
    <g
       id="g11767"
       transform="matrix(1.25,0,0,-1.25,286.25187,451.16157)">
      <path
         d="m 0,0 0,-7.124 -1.313,0 0,7.124 -1.899,0 0,1.164 5.14,0 L 1.928,0 0,0 z"
         style="fill:#ffffff;fill-opacity:1;fill-rule:nonzero;stroke:none"
         id="path11769"
         inkscape:connector-curvature="0" />
    </g>
    <g
       id="g11771"
       transform="matrix(1.25,0,0,-1.25,243.78725,459.43656)">
      <path
         d="m 0,0 c -0.465,-0.407 -1.104,-0.639 -1.803,-0.639 -1.424,0 -2.471,0.843 -3.024,2.093 l 1.251,0.465 c 0.349,-0.784 0.988,-1.22 1.773,-1.22 0.756,0 1.28,0.523 1.28,1.22 0,1.106 -1.28,1.281 -2.356,1.716 -0.494,0.204 -1.598,0.698 -1.598,2.065 0,1.628 1.104,2.239 2.587,2.239 1.163,0 1.949,-0.669 2.356,-1.687 L -0.697,5.904 c 0,0 -0.291,0.697 -1.222,0.726 C -2.529,6.66 -3.257,6.427 -3.198,5.67 -3.082,4.129 0.815,5.148 0.815,1.891 0.815,1.135 0.524,0.466 0,0"
         style="fill:#ffffff;fill-opacity:1;fill-rule:nonzero;stroke:none"
         id="path11773"
         inkscape:connector-curvature="0" />
    </g>
    <g
       id="g11775"
       transform="matrix(1.25,0,0,-1.25,275.41088,460.06656)">
      <path
         d="M 0,0 -1.338,2.762 -2.676,0 l -1.482,0 2.064,4.275 -1.919,4.013 1.483,0 1.192,-2.472 1.192,2.472 1.484,0 L -0.61,4.275 1.483,0 0,0 z"
         style="fill:#ffffff;fill-opacity:1;fill-rule:nonzero;stroke:none"
         id="path11777"
         inkscape:connector-curvature="0" />
    </g>
    <g
       id="g11779"
       transform="matrix(1.25,0,0,-1.25,262.75212,460.06656)">
      <path
         d="m 0,0 0,8.288 4.878,0 0,-1.309 -3.571,0 0,-2.035 2.41,0 0,-1.338 -2.41,0 0,-2.269 3.833,0 L 5.14,0 0,0 z"
         style="fill:#ffffff;fill-opacity:1;fill-rule:nonzero;stroke:none"
         id="path11781"
         inkscape:connector-curvature="0" />
    </g>
    <g
       id="g11783"
       transform="matrix(1.25,0,0,-1.25,232.5385,452.57907)">
      <path
         d="m 0,0 -0.849,-2.326 1.667,0 L 0,0 z m 2.105,-5.99 -0.819,2.327 -2.602,0 -0.82,-2.327 -1.403,0 2.866,8.288 1.316,0 2.866,-8.288 -1.404,0 z"
         style="fill:#ffffff;fill-opacity:1;fill-rule:nonzero;stroke:none"
         id="path11785"
         inkscape:connector-curvature="0" />
    </g>
    <g
       id="g11787"
       transform="matrix(1.25,0,0,-1.25,328.07562,452.57907)">
      <path
         d="m 0,0 -0.849,-2.326 1.667,0 L 0,0 z m 2.105,-5.99 -0.819,2.327 -2.602,0 -0.82,-2.327 -1.403,0 2.866,8.288 1.316,0 2.866,-8.288 -1.404,0 z"
         style="fill:#ffffff;fill-opacity:1;fill-rule:nonzero;stroke:none"
         id="path11789"
         inkscape:connector-curvature="0" />
    </g>
    <g
       id="g11791"
       transform="matrix(1.25,0,0,-1.25,223.49675,460.24781)">
      <path
         d="m 0,0 c -1.251,0 -1.978,0.465 -2.472,1.512 -0.349,0.727 -0.552,1.745 -0.552,2.762 0,1.338 0.377,2.646 0.93,3.373 0.494,0.611 1.193,0.931 2.123,0.931 1.28,0 2.035,-0.523 2.588,-1.832 L 1.366,6.252 C 1.018,6.978 0.669,7.24 0.029,7.24 -0.64,7.24 -1.076,6.949 -1.367,6.223 -1.57,5.728 -1.687,4.972 -1.687,4.274 c 0,-0.873 0.145,-1.745 0.408,-2.268 0.261,-0.465 0.639,-0.669 1.133,-0.669 0.843,0 1.455,0.523 1.455,1.28 l 0,0.349 -1.513,0 0,1.308 2.821,0 0,-1.657 C 2.617,1.104 1.512,0 0,0"
         style="fill:#ffffff;fill-opacity:1;fill-rule:nonzero;stroke:none"
         id="path11793"
         inkscape:connector-curvature="0" />
    </g>
    <g
       id="g11795"
       transform="matrix(1.25,0,0,-1.25,315.29488,460.06656)">
      <path
         d="m 0,0 0,6.717 -0.748,0 0,1.047 0.087,0 c 0.345,0 0.719,0.203 0.949,0.524 l 1.036,0 L 1.324,0 0,0 z"
         style="fill:#ffffff;fill-opacity:1;fill-rule:nonzero;stroke:none"
         id="path11797"
         inkscape:connector-curvature="0" />
    </g>
    <g
       id="g11799"
       transform="matrix(1.25,0,0,-1.25,310.42675,460.06656)">
      <path
         d="m 0,0 0,6.717 -0.748,0 0,1.047 0.086,0 c 0.346,0 0.72,0.203 0.949,0.524 l 1.036,0 L 1.323,0 0,0 z"
         style="fill:#ffffff;fill-opacity:1;fill-rule:nonzero;stroke:none"
         id="path11801"
         inkscape:connector-curvature="0" />
    </g>
    <g
       id="g11803"
       transform="matrix(1.25,0,0,-1.25,305.78312,455.21781)">
      <path
         d="m 0,0 c -1.115,-0.693 -2.142,-1 -2.762,-2.542 l 4.071,0 0,-1.337 -5.641,0 c 0.028,0.959 0.228,1.747 0.697,2.53 C -2.181,1.081 0,0.813 0,2.111 c 0,0.611 -0.697,1.105 -1.512,1.105 -0.843,0 -1.367,-0.407 -1.511,-1.163 l -1.309,0.291 c 0.29,1.366 1.366,2.21 2.82,2.21 1.571,0 2.821,-1.105 2.821,-2.472 C 1.309,1.091 0.739,0.46 0,0"
         style="fill:#ffffff;fill-opacity:1;fill-rule:nonzero;stroke:none"
         id="path11805"
         inkscape:connector-curvature="0" />
    </g>
    <path
       d="m 248.6075,567.74468 12.6575,0 0,2.1 -12.6575,0 0,-2.1 z"
       style="fill:#ffffff;fill-opacity:1;fill-rule:nonzero;stroke:none"
       id="path11807"
       inkscape:connector-curvature="0" />
    <g
       id="g11809"
       transform="matrix(1.25,0,0,-1.25,315.7075,573.01531)">
      <path
         d="m 0,0 0,6.717 -0.748,0 0,1.047 0.087,0 c 0.345,0 0.719,0.203 0.949,0.523 l 1.036,0 L 1.324,0 0,0 z"
         style="fill:#ffffff;fill-opacity:1;fill-rule:nonzero;stroke:none"
         id="path11811"
         inkscape:connector-curvature="0" />
    </g>
    <g
       id="g11813"
       transform="matrix(1.25,0,0,-1.25,310.83925,573.01531)">
      <path
         d="m 0,0 0,6.717 -0.748,0 0,1.047 0.086,0 c 0.346,0 0.72,0.203 0.949,0.523 l 1.036,0 L 1.323,0 0,0 z"
         style="fill:#ffffff;fill-opacity:1;fill-rule:nonzero;stroke:none"
         id="path11815"
         inkscape:connector-curvature="0" />
    </g>
    <g
       id="g11817"
       transform="matrix(1.25,0,0,-1.25,306.19575,568.16657)">
      <path
         d="m 0,0 c -1.115,-0.693 -2.142,-1 -2.762,-2.542 l 4.071,0 0,-1.337 -5.641,0 c 0.028,0.959 0.229,1.746 0.697,2.529 C -2.181,1.081 0,0.812 0,2.11 c 0,0.612 -0.697,1.106 -1.512,1.106 -0.843,0 -1.367,-0.407 -1.511,-1.163 l -1.309,0.291 c 0.29,1.366 1.366,2.21 2.82,2.21 1.571,0 2.821,-1.106 2.821,-2.472 C 1.309,1.091 0.739,0.46 0,0"
         style="fill:#ffffff;fill-opacity:1;fill-rule:nonzero;stroke:none"
         id="path11819"
         inkscape:connector-curvature="0" />
    </g>
    <g
       id="g11821"
       transform="matrix(1.25,0,0,-1.25,329.39525,568.5803)">
      <path
         d="m 0,0 c -0.175,0.058 -0.262,0.058 -0.553,0.058 l -1.657,0 0,-2.268 1.977,0 c 0.669,0 1.018,0.319 1.018,0.959 C 0.785,-0.698 0.465,-0.175 0,0 m -0.291,3.431 -1.919,0 0,-2.036 1.57,0 c 0.378,0 0.552,0.058 0.786,0.233 0.29,0.232 0.464,0.582 0.464,0.96 0,0.552 -0.32,0.843 -0.901,0.843 M 0.785,-3.345 C 0.494,-3.461 0,-3.548 -0.378,-3.548 l -3.141,0 0,8.287 3.141,0 c 1.309,0 2.297,-0.901 2.297,-2.094 0,-0.813 -0.378,-1.424 -1.163,-1.86 0.872,-0.407 1.366,-1.105 1.366,-2.007 0,-0.901 -0.552,-1.803 -1.337,-2.123"
         style="fill:#ffffff;fill-opacity:1;fill-rule:nonzero;stroke:none"
         id="path11823"
         inkscape:connector-curvature="0" />
    </g>
    <path
       d="m 279.4375,562.65593 1.6575,0 0,10.35875 -1.6575,0 0,-10.35875 z"
       style="fill:#ffffff;fill-opacity:1;fill-rule:nonzero;stroke:none"
       id="path11825"
       inkscape:connector-curvature="0" />
    <g
       id="g11827"
       transform="matrix(1.25,0,0,-1.25,286.6645,564.11032)">
      <path
         d="m 0,0 0,-7.124 -1.313,0 0,7.124 -1.899,0 0,1.163 5.14,0 L 1.928,0 0,0 z"
         style="fill:#ffffff;fill-opacity:1;fill-rule:nonzero;stroke:none"
         id="path11829"
         inkscape:connector-curvature="0" />
    </g>
    <g
       id="g11831"
       transform="matrix(1.25,0,0,-1.25,244.20112,572.38405)">
      <path
         d="m 0,0 c -0.465,-0.407 -1.105,-0.641 -1.803,-0.641 -1.425,0 -2.471,0.844 -3.024,2.094 l 1.251,0.466 c 0.348,-0.785 0.988,-1.222 1.773,-1.222 0.756,0 1.28,0.524 1.28,1.222 0,1.104 -1.28,1.279 -2.356,1.716 -0.494,0.203 -1.598,0.697 -1.598,2.064 0,1.628 1.104,2.238 2.587,2.238 1.163,0 1.949,-0.668 2.356,-1.686 L -0.697,5.902 c 0,0 -0.291,0.699 -1.222,0.727 C -2.529,6.658 -3.257,6.426 -3.198,5.67 -3.082,4.129 0.814,5.146 0.814,1.89 0.814,1.134 0.523,0.465 0,0"
         style="fill:#ffffff;fill-opacity:1;fill-rule:nonzero;stroke:none"
         id="path11833"
         inkscape:connector-curvature="0" />
    </g>
    <g
       id="g11835"
       transform="matrix(1.25,0,0,-1.25,275.82337,573.01531)">
      <path
         d="M 0,0 -1.338,2.763 -2.676,0 l -1.482,0 2.064,4.274 -1.919,4.013 1.483,0 1.192,-2.472 1.192,2.472 1.484,0 L -0.61,4.274 1.483,0 0,0 z"
         style="fill:#ffffff;fill-opacity:1;fill-rule:nonzero;stroke:none"
         id="path11837"
         inkscape:connector-curvature="0" />
    </g>
    <g
       id="g11839"
       transform="matrix(1.25,0,0,-1.25,263.16475,573.01531)">
      <path
         d="m 0,0 0,8.287 4.878,0 0,-1.308 -3.571,0 0,-2.036 2.41,0 0,-1.337 -2.41,0 0,-2.268 3.833,0 L 5.14,0 0,0 z"
         style="fill:#ffffff;fill-opacity:1;fill-rule:nonzero;stroke:none"
         id="path11841"
         inkscape:connector-curvature="0" />
    </g>
    <g
       id="g11843"
       transform="matrix(1.25,0,0,-1.25,232.95238,565.52769)">
      <path
         d="m 0,0 -0.849,-2.326 1.667,0 L 0,0 z m 2.105,-5.99 -0.819,2.326 -2.602,0 -0.82,-2.326 -1.403,0 2.866,8.287 1.315,0 2.867,-8.287 -1.404,0 z"
         style="fill:#ffffff;fill-opacity:1;fill-rule:nonzero;stroke:none"
         id="path11845"
         inkscape:connector-curvature="0" />
    </g>
    <g
       id="g11847"
       transform="matrix(1.25,0,0,-1.25,223.91062,573.19655)">
      <path
         d="m 0,0 c -1.251,0 -1.978,0.464 -2.472,1.511 -0.349,0.728 -0.552,1.745 -0.552,2.763 0,1.338 0.377,2.646 0.93,3.373 0.494,0.61 1.193,0.931 2.123,0.931 1.28,0 2.035,-0.524 2.588,-1.832 L 1.366,6.251 C 1.018,6.978 0.669,7.24 0.029,7.24 -0.64,7.24 -1.076,6.949 -1.367,6.222 -1.57,5.728 -1.687,4.972 -1.687,4.274 c 0,-0.872 0.145,-1.744 0.408,-2.268 0.261,-0.465 0.639,-0.669 1.133,-0.669 0.843,0 1.455,0.524 1.455,1.28 l 0,0.348 -1.513,0 0,1.309 2.821,0 0,-1.657 C 2.617,1.105 1.512,0 0,0"
         style="fill:#ffffff;fill-opacity:1;fill-rule:nonzero;stroke:none"
         id="path11849"
         inkscape:connector-curvature="0" />
    </g>
  </g>
</svg>
