<?xml version="1.0" encoding="UTF-8" standalone="no"?>
<!-- Created with Inkscape (http://www.inkscape.org/) -->

<svg
   xmlns:dc="http://purl.org/dc/elements/1.1/"
   xmlns:cc="http://creativecommons.org/ns#"
   xmlns:rdf="http://www.w3.org/1999/02/22-rdf-syntax-ns#"
   xmlns:svg="http://www.w3.org/2000/svg"
   xmlns="http://www.w3.org/2000/svg"
   xmlns:sodipodi="http://sodipodi.sourceforge.net/DTD/sodipodi-0.dtd"
   xmlns:inkscape="http://www.inkscape.org/namespaces/inkscape"
   width="127.44144"
   height="181.32812"
   id="svg14952"
   version="1.1"
   inkscape:version="0.48.3.1 r9886"
   sodipodi:docname="New document 73">
  <defs
     id="defs14954">
    <clipPath
       clipPathUnits="userSpaceOnUse"
       id="clipPath11071">
      <path
         inkscape:connector-curvature="0"
         d="m 27,44.082 513.086,0 0,693.845 -513.086,0 0,-693.845 z"
         id="path11073" />
    </clipPath>
    <clipPath
       clipPathUnits="userSpaceOnUse"
       id="clipPath11059">
      <path
         inkscape:connector-curvature="0"
         d="m 31,46.05 504.526,0 0,691.876 -504.526,0 0,-691.876 z"
         id="path11061" />
    </clipPath>
    <clipPath
       clipPathUnits="userSpaceOnUse"
       id="clipPath11043">
      <path
         inkscape:connector-curvature="0"
         d="m 27,44.082 513.086,0 0,693.845 -513.086,0 0,-693.845 z"
         id="path11045" />
    </clipPath>
  </defs>
  <sodipodi:namedview
     id="base"
     pagecolor="#ffffff"
     bordercolor="#666666"
     borderopacity="1.0"
     inkscape:pageopacity="0.0"
     inkscape:pageshadow="2"
     inkscape:zoom="0.35"
     inkscape:cx="63.71619"
     inkscape:cy="90.657497"
     inkscape:document-units="px"
     inkscape:current-layer="layer1"
     showgrid="false"
     fit-margin-top="0"
     fit-margin-left="0"
     fit-margin-right="0"
     fit-margin-bottom="0"
     inkscape:window-width="451"
     inkscape:window-height="398"
     inkscape:window-x="75"
     inkscape:window-y="75"
     inkscape:window-maximized="0" />
  <metadata
     id="metadata14957">
    <rdf:RDF>
      <cc:Work
         rdf:about="">
        <dc:format>image/svg+xml</dc:format>
        <dc:type
           rdf:resource="http://purl.org/dc/dcmitype/StillImage" />
        <dc:title></dc:title>
      </cc:Work>
    </rdf:RDF>
  </metadata>
  <g
     inkscape:label="Layer 1"
     inkscape:groupmode="layer"
     id="layer1"
     transform="translate(-311.28381,-441.69155)">
    <g
       transform="matrix(1.25,0,0,-1.25,272.53381,854.30093)"
       id="g11039">
      <g
         id="g11041"
         clip-path="url(#clipPath11043)">
        <g
           id="g11047"
           transform="translate(36.0488,328.3255)">
          <path
             inkscape:connector-curvature="0"
             d="m 0,0 91.853,0 c 1.723,0 3.134,-1.407 3.134,-3.141 l 0,-81.08 0,-3.133 -98.126,0 0,3.133 0,81.08 C -3.139,-1.407 -1.724,0 0,0"
             style="fill:#155196;fill-opacity:1;fill-rule:evenodd;stroke:none"
             id="path11049" />
        </g>
        <g
           id="g11051"
           transform="translate(131.034,239.1285)">
          <path
             inkscape:connector-curvature="0"
             d="m 0,0 0,-3.141 0,-46.182 c 0,-1.722 -1.411,-3.133 -3.134,-3.133 l -91.853,0 c -1.724,0 -3.139,1.411 -3.139,3.133 l 0,46.182 0,3.015"
             style="fill:#155196;fill-opacity:1;fill-rule:evenodd;stroke:none"
             id="path11053" />
        </g>
      </g>
    </g>
    <g
       transform="matrix(1.25,0,0,-1.25,272.53381,854.30093)"
       id="g11055">
      <g
         id="g11057"
         clip-path="url(#clipPath11059)">
        <g
           id="g11063"
           transform="translate(36.0469,329.9625)">
          <path
             inkscape:connector-curvature="0"
             d="m 0,0 91.854,0 c 2.707,0 4.92,-2.215 4.92,-4.828 l 0,-134.977 c 0,-2.807 -2.213,-5.018 -4.92,-5.018 l -91.854,0 c -2.707,0 -4.922,2.211 -4.922,5.018 l 0,134.977 C -4.922,-2.215 -2.707,0 0,0 z"
             style="fill:none;stroke:#231f20;stroke-width:0.25;stroke-linecap:butt;stroke-linejoin:miter;stroke-miterlimit:2.61299992;stroke-opacity:1;stroke-dasharray:none"
             id="path11065" />
        </g>
      </g>
    </g>
    <g
       transform="matrix(1.25,0,0,-1.25,272.53381,854.30093)"
       id="g11067">
      <g
         id="g11069"
         clip-path="url(#clipPath11071)">
        <path
           inkscape:connector-curvature="0"
           d="m 77.503,283.554 -33.046,0 0,24.65 33.046,0 0,-24.65 z"
           style="fill:#155196;fill-opacity:1;fill-rule:nonzero;stroke:#ffffff;stroke-width:0.5;stroke-linecap:butt;stroke-linejoin:miter;stroke-miterlimit:4;stroke-opacity:1;stroke-dasharray:none"
           id="path11075" />
        <path
           inkscape:connector-curvature="0"
           d="m 119.489,283.554 -33.047,0 0,24.65 33.047,0 0,-24.65 z"
           style="fill:#155196;fill-opacity:1;fill-rule:nonzero;stroke:#ffffff;stroke-width:0.5;stroke-linecap:butt;stroke-linejoin:miter;stroke-miterlimit:4;stroke-opacity:1;stroke-dasharray:none"
           id="path11077" />
        <path
           inkscape:connector-curvature="0"
           d="m 77.503,249.375 -33.046,0 0,24.648 33.046,0 0,-24.648 z"
           style="fill:#155196;fill-opacity:1;fill-rule:nonzero;stroke:#ffffff;stroke-width:0.5;stroke-linecap:butt;stroke-linejoin:miter;stroke-miterlimit:4;stroke-opacity:1;stroke-dasharray:none"
           id="path11079" />
        <path
           inkscape:connector-curvature="0"
           d="m 119.489,249.375 -33.047,0 0,24.648 33.047,0 0,-24.648 z"
           style="fill:#155196;fill-opacity:1;fill-rule:nonzero;stroke:#ffffff;stroke-width:0.5;stroke-linecap:butt;stroke-linejoin:miter;stroke-miterlimit:4;stroke-opacity:1;stroke-dasharray:none"
           id="path11081" />
        <path
           inkscape:connector-curvature="0"
           d="m 77.503,193.297 -33.046,0 0,24.648 33.046,0 0,-24.648 z"
           style="fill:#155196;fill-opacity:1;fill-rule:nonzero;stroke:#ffffff;stroke-width:0.5;stroke-linecap:butt;stroke-linejoin:miter;stroke-miterlimit:4;stroke-opacity:1;stroke-dasharray:none"
           id="path11083" />
        <path
           inkscape:connector-curvature="0"
           d="m 119.489,193.297 -33.047,0 0,24.648 33.047,0 0,-24.648 z"
           style="fill:#155196;fill-opacity:1;fill-rule:nonzero;stroke:#ffffff;stroke-width:0.5;stroke-linecap:butt;stroke-linejoin:miter;stroke-miterlimit:4;stroke-opacity:1;stroke-dasharray:none"
           id="path11085" />
      </g>
    </g>
    <path
       d="m 347.10506,454.79469 12.6575,0 0,2.09875 -12.6575,0 0,-2.09875 z"
       style="fill:#ffffff;fill-opacity:1;fill-rule:nonzero;stroke:none"
       id="path11763"
       inkscape:connector-curvature="0" />
    <path
       d="m 377.93631,449.70594 1.6575,0 0,10.36 -1.6575,0 0,-10.36 z"
       style="fill:#ffffff;fill-opacity:1;fill-rule:nonzero;stroke:none"
       id="path11765"
       inkscape:connector-curvature="0" />
    <g
       id="g11767"
       transform="matrix(1.25,0,0,-1.25,385.16318,451.16157)">
      <path
         d="m 0,0 0,-7.124 -1.313,0 0,7.124 -1.899,0 0,1.164 5.14,0 L 1.928,0 0,0 z"
         style="fill:#ffffff;fill-opacity:1;fill-rule:nonzero;stroke:none"
         id="path11769"
         inkscape:connector-curvature="0" />
    </g>
    <g
       id="g11771"
       transform="matrix(1.25,0,0,-1.25,342.69856,459.43656)">
      <path
         d="m 0,0 c -0.465,-0.407 -1.104,-0.639 -1.803,-0.639 -1.424,0 -2.471,0.843 -3.024,2.093 l 1.251,0.465 c 0.349,-0.784 0.988,-1.22 1.773,-1.22 0.756,0 1.28,0.523 1.28,1.22 0,1.106 -1.28,1.281 -2.356,1.716 -0.494,0.204 -1.598,0.698 -1.598,2.065 0,1.628 1.104,2.239 2.587,2.239 1.163,0 1.949,-0.669 2.356,-1.687 L -0.697,5.904 c 0,0 -0.291,0.697 -1.222,0.726 C -2.529,6.66 -3.257,6.427 -3.198,5.67 -3.082,4.129 0.815,5.148 0.815,1.891 0.815,1.135 0.524,0.466 0,0"
         style="fill:#ffffff;fill-opacity:1;fill-rule:nonzero;stroke:none"
         id="path11773"
         inkscape:connector-curvature="0" />
    </g>
    <g
       id="g11775"
       transform="matrix(1.25,0,0,-1.25,374.32219,460.06656)">
      <path
         d="M 0,0 -1.338,2.762 -2.676,0 l -1.482,0 2.064,4.275 -1.919,4.013 1.483,0 1.192,-2.472 1.192,2.472 1.484,0 L -0.61,4.275 1.483,0 0,0 z"
         style="fill:#ffffff;fill-opacity:1;fill-rule:nonzero;stroke:none"
         id="path11777"
         inkscape:connector-curvature="0" />
    </g>
    <g
       id="g11779"
       transform="matrix(1.25,0,0,-1.25,361.66344,460.06656)">
      <path
         d="m 0,0 0,8.288 4.878,0 0,-1.309 -3.571,0 0,-2.035 2.41,0 0,-1.338 -2.41,0 0,-2.269 3.833,0 L 5.14,0 0,0 z"
         style="fill:#ffffff;fill-opacity:1;fill-rule:nonzero;stroke:none"
         id="path11781"
         inkscape:connector-curvature="0" />
    </g>
    <g
       id="g11783"
       transform="matrix(1.25,0,0,-1.25,331.44981,452.57907)">
      <path
         d="m 0,0 -0.849,-2.326 1.667,0 L 0,0 z m 2.105,-5.99 -0.819,2.327 -2.602,0 -0.82,-2.327 -1.403,0 2.866,8.288 1.316,0 2.866,-8.288 -1.404,0 z"
         style="fill:#ffffff;fill-opacity:1;fill-rule:nonzero;stroke:none"
         id="path11785"
         inkscape:connector-curvature="0" />
    </g>
    <g
       id="g11787"
       transform="matrix(1.25,0,0,-1.25,426.98693,452.57907)">
      <path
         d="m 0,0 -0.849,-2.326 1.667,0 L 0,0 z m 2.105,-5.99 -0.819,2.327 -2.602,0 -0.82,-2.327 -1.403,0 2.866,8.288 1.316,0 2.866,-8.288 -1.404,0 z"
         style="fill:#ffffff;fill-opacity:1;fill-rule:nonzero;stroke:none"
         id="path11789"
         inkscape:connector-curvature="0" />
    </g>
    <g
       id="g11791"
       transform="matrix(1.25,0,0,-1.25,322.40806,460.24781)">
      <path
         d="m 0,0 c -1.251,0 -1.978,0.465 -2.472,1.512 -0.349,0.727 -0.552,1.745 -0.552,2.762 0,1.338 0.377,2.646 0.93,3.373 0.494,0.611 1.193,0.931 2.123,0.931 1.28,0 2.035,-0.523 2.588,-1.832 L 1.366,6.252 C 1.018,6.978 0.669,7.24 0.029,7.24 -0.64,7.24 -1.076,6.949 -1.367,6.223 -1.57,5.728 -1.687,4.972 -1.687,4.274 c 0,-0.873 0.145,-1.745 0.408,-2.268 0.261,-0.465 0.639,-0.669 1.133,-0.669 0.843,0 1.455,0.523 1.455,1.28 l 0,0.349 -1.513,0 0,1.308 2.821,0 0,-1.657 C 2.617,1.104 1.512,0 0,0"
         style="fill:#ffffff;fill-opacity:1;fill-rule:nonzero;stroke:none"
         id="path11793"
         inkscape:connector-curvature="0" />
    </g>
    <g
       id="g11795"
       transform="matrix(1.25,0,0,-1.25,414.20619,460.06656)">
      <path
         d="m 0,0 0,6.717 -0.748,0 0,1.047 0.087,0 c 0.345,0 0.719,0.203 0.949,0.524 l 1.036,0 L 1.324,0 0,0 z"
         style="fill:#ffffff;fill-opacity:1;fill-rule:nonzero;stroke:none"
         id="path11797"
         inkscape:connector-curvature="0" />
    </g>
    <g
       id="g11799"
       transform="matrix(1.25,0,0,-1.25,409.33806,460.06656)">
      <path
         d="m 0,0 0,6.717 -0.748,0 0,1.047 0.086,0 c 0.346,0 0.72,0.203 0.949,0.524 l 1.036,0 L 1.323,0 0,0 z"
         style="fill:#ffffff;fill-opacity:1;fill-rule:nonzero;stroke:none"
         id="path11801"
         inkscape:connector-curvature="0" />
    </g>
    <g
       id="g11803"
       transform="matrix(1.25,0,0,-1.25,404.69443,455.21781)">
      <path
         d="m 0,0 c -1.115,-0.693 -2.142,-1 -2.762,-2.542 l 4.071,0 0,-1.337 -5.641,0 c 0.028,0.959 0.228,1.747 0.697,2.53 C -2.181,1.081 0,0.813 0,2.111 c 0,0.611 -0.697,1.105 -1.512,1.105 -0.843,0 -1.367,-0.407 -1.511,-1.163 l -1.309,0.291 c 0.29,1.366 1.366,2.21 2.82,2.21 1.571,0 2.821,-1.105 2.821,-2.472 C 1.309,1.091 0.739,0.46 0,0"
         style="fill:#ffffff;fill-opacity:1;fill-rule:nonzero;stroke:none"
         id="path11805"
         inkscape:connector-curvature="0" />
    </g>
    <path
       d="m 347.51881,567.74468 12.6575,0 0,2.1 -12.6575,0 0,-2.1 z"
       style="fill:#ffffff;fill-opacity:1;fill-rule:nonzero;stroke:none"
       id="path11807"
       inkscape:connector-curvature="0" />
    <g
       id="g11809"
       transform="matrix(1.25,0,0,-1.25,414.61881,573.01531)">
      <path
         d="m 0,0 0,6.717 -0.748,0 0,1.047 0.087,0 c 0.345,0 0.719,0.203 0.949,0.523 l 1.036,0 L 1.324,0 0,0 z"
         style="fill:#ffffff;fill-opacity:1;fill-rule:nonzero;stroke:none"
         id="path11811"
         inkscape:connector-curvature="0" />
    </g>
    <g
       id="g11813"
       transform="matrix(1.25,0,0,-1.25,409.75056,573.01531)">
      <path
         d="m 0,0 0,6.717 -0.748,0 0,1.047 0.086,0 c 0.346,0 0.72,0.203 0.949,0.523 l 1.036,0 L 1.323,0 0,0 z"
         style="fill:#ffffff;fill-opacity:1;fill-rule:nonzero;stroke:none"
         id="path11815"
         inkscape:connector-curvature="0" />
    </g>
    <g
       id="g11817"
       transform="matrix(1.25,0,0,-1.25,405.10706,568.16657)">
      <path
         d="m 0,0 c -1.115,-0.693 -2.142,-1 -2.762,-2.542 l 4.071,0 0,-1.337 -5.641,0 c 0.028,0.959 0.229,1.746 0.697,2.529 C -2.181,1.081 0,0.812 0,2.11 c 0,0.612 -0.697,1.106 -1.512,1.106 -0.843,0 -1.367,-0.407 -1.511,-1.163 l -1.309,0.291 c 0.29,1.366 1.366,2.21 2.82,2.21 1.571,0 2.821,-1.106 2.821,-2.472 C 1.309,1.091 0.739,0.46 0,0"
         style="fill:#ffffff;fill-opacity:1;fill-rule:nonzero;stroke:none"
         id="path11819"
         inkscape:connector-curvature="0" />
    </g>
    <g
       id="g11821"
       transform="matrix(1.25,0,0,-1.25,428.30656,568.5803)">
      <path
         d="m 0,0 c -0.175,0.058 -0.262,0.058 -0.553,0.058 l -1.657,0 0,-2.268 1.977,0 c 0.669,0 1.018,0.319 1.018,0.959 C 0.785,-0.698 0.465,-0.175 0,0 m -0.291,3.431 -1.919,0 0,-2.036 1.57,0 c 0.378,0 0.552,0.058 0.786,0.233 0.29,0.232 0.464,0.582 0.464,0.96 0,0.552 -0.32,0.843 -0.901,0.843 M 0.785,-3.345 C 0.494,-3.461 0,-3.548 -0.378,-3.548 l -3.141,0 0,8.287 3.141,0 c 1.309,0 2.297,-0.901 2.297,-2.094 0,-0.813 -0.378,-1.424 -1.163,-1.86 0.872,-0.407 1.366,-1.105 1.366,-2.007 0,-0.901 -0.552,-1.803 -1.337,-2.123"
         style="fill:#ffffff;fill-opacity:1;fill-rule:nonzero;stroke:none"
         id="path11823"
         inkscape:connector-curvature="0" />
    </g>
    <path
       d="m 378.34881,562.65593 1.6575,0 0,10.35875 -1.6575,0 0,-10.35875 z"
       style="fill:#ffffff;fill-opacity:1;fill-rule:nonzero;stroke:none"
       id="path11825"
       inkscape:connector-curvature="0" />
    <g
       id="g11827"
       transform="matrix(1.25,0,0,-1.25,385.57581,564.11032)">
      <path
         d="m 0,0 0,-7.124 -1.313,0 0,7.124 -1.899,0 0,1.163 5.14,0 L 1.928,0 0,0 z"
         style="fill:#ffffff;fill-opacity:1;fill-rule:nonzero;stroke:none"
         id="path11829"
         inkscape:connector-curvature="0" />
    </g>
    <g
       id="g11831"
       transform="matrix(1.25,0,0,-1.25,343.11244,572.38405)">
      <path
         d="m 0,0 c -0.465,-0.407 -1.105,-0.641 -1.803,-0.641 -1.425,0 -2.471,0.844 -3.024,2.094 l 1.251,0.466 c 0.348,-0.785 0.988,-1.222 1.773,-1.222 0.756,0 1.28,0.524 1.28,1.222 0,1.104 -1.28,1.279 -2.356,1.716 -0.494,0.203 -1.598,0.697 -1.598,2.064 0,1.628 1.104,2.238 2.587,2.238 1.163,0 1.949,-0.668 2.356,-1.686 L -0.697,5.902 c 0,0 -0.291,0.699 -1.222,0.727 C -2.529,6.658 -3.257,6.426 -3.198,5.67 -3.082,4.129 0.814,5.146 0.814,1.89 0.814,1.134 0.523,0.465 0,0"
         style="fill:#ffffff;fill-opacity:1;fill-rule:nonzero;stroke:none"
         id="path11833"
         inkscape:connector-curvature="0" />
    </g>
    <g
       id="g11835"
       transform="matrix(1.25,0,0,-1.25,374.73468,573.01531)">
      <path
         d="M 0,0 -1.338,2.763 -2.676,0 l -1.482,0 2.064,4.274 -1.919,4.013 1.483,0 1.192,-2.472 1.192,2.472 1.484,0 L -0.61,4.274 1.483,0 0,0 z"
         style="fill:#ffffff;fill-opacity:1;fill-rule:nonzero;stroke:none"
         id="path11837"
         inkscape:connector-curvature="0" />
    </g>
    <g
       id="g11839"
       transform="matrix(1.25,0,0,-1.25,362.07606,573.01531)">
      <path
         d="m 0,0 0,8.287 4.878,0 0,-1.308 -3.571,0 0,-2.036 2.41,0 0,-1.337 -2.41,0 0,-2.268 3.833,0 L 5.14,0 0,0 z"
         style="fill:#ffffff;fill-opacity:1;fill-rule:nonzero;stroke:none"
         id="path11841"
         inkscape:connector-curvature="0" />
    </g>
    <g
       id="g11843"
       transform="matrix(1.25,0,0,-1.25,331.86369,565.52769)">
      <path
         d="m 0,0 -0.849,-2.326 1.667,0 L 0,0 z m 2.105,-5.99 -0.819,2.326 -2.602,0 -0.82,-2.326 -1.403,0 2.866,8.287 1.315,0 2.867,-8.287 -1.404,0 z"
         style="fill:#ffffff;fill-opacity:1;fill-rule:nonzero;stroke:none"
         id="path11845"
         inkscape:connector-curvature="0" />
    </g>
    <g
       id="g11847"
       transform="matrix(1.25,0,0,-1.25,322.82194,573.19655)">
      <path
         d="m 0,0 c -1.251,0 -1.978,0.464 -2.472,1.511 -0.349,0.728 -0.552,1.745 -0.552,2.763 0,1.338 0.377,2.646 0.93,3.373 0.494,0.61 1.193,0.931 2.123,0.931 1.28,0 2.035,-0.524 2.588,-1.832 L 1.366,6.251 C 1.018,6.978 0.669,7.24 0.029,7.24 -0.64,7.24 -1.076,6.949 -1.367,6.222 -1.57,5.728 -1.687,4.972 -1.687,4.274 c 0,-0.872 0.145,-1.744 0.408,-2.268 0.261,-0.465 0.639,-0.669 1.133,-0.669 0.843,0 1.455,0.524 1.455,1.28 l 0,0.348 -1.513,0 0,1.309 2.821,0 0,-1.657 C 2.617,1.105 1.512,0 0,0"
         style="fill:#ffffff;fill-opacity:1;fill-rule:nonzero;stroke:none"
         id="path11849"
         inkscape:connector-curvature="0" />
    </g>
  </g>
</svg>
