<?xml version="1.0" encoding="UTF-8" standalone="no"?>
<!-- Created with Inkscape (http://www.inkscape.org/) -->

<svg
   xmlns:dc="http://purl.org/dc/elements/1.1/"
   xmlns:cc="http://creativecommons.org/ns#"
   xmlns:rdf="http://www.w3.org/1999/02/22-rdf-syntax-ns#"
   xmlns:svg="http://www.w3.org/2000/svg"
   xmlns="http://www.w3.org/2000/svg"
   xmlns:sodipodi="http://sodipodi.sourceforge.net/DTD/sodipodi-0.dtd"
   xmlns:inkscape="http://www.inkscape.org/namespaces/inkscape"
   width="744.09448819"
   height="1052.3622047"
   id="svg15491"
   version="1.1"
   inkscape:version="0.48.3.1 r9886"
   sodipodi:docname="New document 77">
  <defs
     id="defs15493" />
  <sodipodi:namedview
     id="base"
     pagecolor="#ffffff"
     bordercolor="#666666"
     borderopacity="1.0"
     inkscape:pageopacity="0.0"
     inkscape:pageshadow="2"
     inkscape:zoom="0.35"
     inkscape:cx="375"
     inkscape:cy="520"
     inkscape:document-units="px"
     inkscape:current-layer="layer1"
     showgrid="false"
     inkscape:window-width="451"
     inkscape:window-height="398"
     inkscape:window-x="175"
     inkscape:window-y="175"
     inkscape:window-maximized="0" />
  <metadata
     id="metadata15496">
    <rdf:RDF>
      <cc:Work
         rdf:about="">
        <dc:format>image/svg+xml</dc:format>
        <dc:type
           rdf:resource="http://purl.org/dc/dcmitype/StillImage" />
        <dc:title></dc:title>
      </cc:Work>
    </rdf:RDF>
  </metadata>
  <g
     inkscape:label="Layer 1"
     inkscape:groupmode="layer"
     id="layer1">
    <g
       id="g11105"
       transform="matrix(1.25,0,0,-1.25,333.0625,493.81718)">
      <path
         d="m 0,0 67.1,0 c 1.916,0 3.484,-1.569 3.484,-3.487 l 0,-54.701 c 0,-1.918 -1.568,-3.484 -3.484,-3.484 l -67.1,0 c -1.916,0 -3.484,1.566 -3.484,3.484 l 0,54.701 C -3.484,-1.569 -1.916,0 0,0 z"
         style="fill:none;stroke:#231f20;stroke-width:0.25;stroke-linecap:butt;stroke-linejoin:miter;stroke-miterlimit:2.61299992;stroke-opacity:1;stroke-dasharray:none"
         id="path11107"
         inkscape:connector-curvature="0" />
    </g>
    <g
       id="g11109"
       transform="matrix(1.25,0,0,-1.25,333.0625,495.39718)">
      <path
         d="m 0,0 67.1,0 c 1.221,0 2.219,-0.996 2.219,-2.223 l 0,-54.701 c 0,-1.221 -0.998,-2.219 -2.219,-2.219 l -67.1,0 c -1.22,0 -2.22,0.998 -2.22,2.219 l 0,54.701 C -2.22,-0.996 -1.22,0 0,0"
         style="fill:#155196;fill-opacity:1;fill-rule:evenodd;stroke:none"
         id="path11111"
         inkscape:connector-curvature="0" />
    </g>
    <path
       d="m 370.5825,531.96656 -31.55,0 0,-23.5325 31.55,0 0,23.5325 z"
       style="fill:#155196;fill-opacity:1;fill-rule:nonzero;stroke:#ffffff;stroke-width:0.625;stroke-linecap:butt;stroke-linejoin:miter;stroke-miterlimit:4;stroke-opacity:1;stroke-dasharray:none"
       id="path11113"
       inkscape:connector-curvature="0" />
    <path
       d="m 410.6675,531.96656 -31.55,0 0,-23.5325 31.55,0 0,23.5325 z"
       style="fill:#155196;fill-opacity:1;fill-rule:nonzero;stroke:#ffffff;stroke-width:0.625;stroke-linecap:butt;stroke-linejoin:miter;stroke-miterlimit:4;stroke-opacity:1;stroke-dasharray:none"
       id="path11115"
       inkscape:connector-curvature="0" />
    <path
       d="m 370.5825,562.19906 -31.55,0 0,-23.5325 31.55,0 0,23.5325 z"
       style="fill:#155196;fill-opacity:1;fill-rule:nonzero;stroke:#ffffff;stroke-width:0.625;stroke-linecap:butt;stroke-linejoin:miter;stroke-miterlimit:4;stroke-opacity:1;stroke-dasharray:none"
       id="path11117"
       inkscape:connector-curvature="0" />
    <path
       d="m 410.6675,562.19906 -31.55,0 0,-23.5325 31.55,0 0,23.5325 z"
       style="fill:#155196;fill-opacity:1;fill-rule:nonzero;stroke:#ffffff;stroke-width:0.625;stroke-linecap:butt;stroke-linejoin:miter;stroke-miterlimit:4;stroke-opacity:1;stroke-dasharray:none"
       id="path11119"
       inkscape:connector-curvature="0" />
    <g
       id="g11121"
       transform="matrix(1.25,0,0,-1.25,342.5475,503.97843)">
      <path
         d="m 0,0 c -1.203,0 -1.695,1.072 -1.695,2.146 0,1.072 0.492,2.131 1.695,2.131 0.711,0 1.233,-0.406 1.494,-1.029 L 0.725,2.957 C 0.596,3.277 0.334,3.451 0,3.451 c -0.711,0 -0.855,-0.725 -0.855,-1.305 0,-0.595 0.144,-1.32 0.855,-1.32 0.321,0 0.58,0.176 0.725,0.494 l -0.492,0 0,0.826 1.422,0 C 1.596,1.101 1.278,0 0,0"
         style="fill:#ffffff;fill-opacity:1;fill-rule:nonzero;stroke:none"
         id="path11123"
         inkscape:connector-curvature="0" />
    </g>
    <g
       id="g11125"
       transform="matrix(1.25,0,0,-1.25,347.9675,500.18968)">
      <path
         d="m 0,0 -0.508,-1.16 0.971,0 L 0,0 z m 1.19,-2.959 -0.393,0.973 -1.639,0 -0.39,-0.973 -0.885,0 1.668,4.146 0.856,0 1.668,-4.146 -0.885,0 z"
         style="fill:#ffffff;fill-opacity:1;fill-rule:nonzero;stroke:none"
         id="path11127"
         inkscape:connector-curvature="0" />
    </g>
    <g
       id="g11129"
       transform="matrix(1.25,0,0,-1.25,354.78125,503.68844)">
      <path
         d="m 0,0 c -0.246,-0.144 -0.681,-0.232 -1.072,-0.232 -0.465,0 -0.914,0.131 -1.275,0.377 -0.131,0.072 -0.219,0.146 -0.406,0.318 l 0.58,0.582 c 0.347,-0.32 0.666,-0.451 1.144,-0.451 0.479,0 0.813,0.16 0.813,0.451 0,0.115 -0.073,0.274 -0.19,0.346 -0.144,0.088 -0.289,0.133 -0.826,0.232 -0.434,0.102 -0.695,0.19 -0.869,0.305 -0.275,0.189 -0.449,0.551 -0.449,0.9 0,0.42 0.216,0.797 0.58,1.014 0.23,0.144 0.506,0.203 0.869,0.203 0.465,0 0.898,-0.101 1.248,-0.318 0.086,-0.059 0.129,-0.088 0.26,-0.19 L -0.101,2.885 c -0.332,0.248 -0.637,0.334 -1.029,0.334 -0.377,0 -0.61,-0.131 -0.61,-0.391 0,-0.103 0.059,-0.218 0.16,-0.261 0.073,-0.043 0.161,-0.059 0.246,-0.088 l 0.131,-0.014 0.145,-0.029 0.189,-0.03 C 0.088,2.233 0.596,1.783 0.596,1.059 0.596,0.623 0.364,0.203 0,0"
         style="fill:#ffffff;fill-opacity:1;fill-rule:nonzero;stroke:none"
         id="path11131"
         inkscape:connector-curvature="0" />
    </g>
    <path
       d="m 356.74,501.51281 7.25125,0 0,1.05125 -7.25125,0 0,-1.05125 z"
       style="fill:#ffffff;fill-opacity:1;fill-rule:nonzero;stroke:none"
       id="path11133"
       inkscape:connector-curvature="0" />
    <g
       id="g11135"
       transform="matrix(1.25,0,0,-1.25,368.64875,503.88843)">
      <path
         d="m 0,0 -1.812,2.654 0,-2.654 -0.813,0 0,4.146 0.813,0 1.711,-2.537 0,2.537 0.81,0 L 0.709,0 0,0 z"
         style="fill:#ffffff;fill-opacity:1;fill-rule:nonzero;stroke:none"
         id="path11137"
         inkscape:connector-curvature="0" />
    </g>
    <g
       id="g11139"
       transform="matrix(1.25,0,0,-1.25,370.985,503.88843)">
      <path
         d="m 0,0 0,4.146 3.016,0 0,-0.826 -2.203,0 0,-0.681 1.246,0 0,-0.826 -1.246,0 0,-0.987 2.262,0 L 3.075,0 0,0 z"
         style="fill:#ffffff;fill-opacity:1;fill-rule:nonzero;stroke:none"
         id="path11141"
         inkscape:connector-curvature="0" />
    </g>
    <g
       id="g11143"
       transform="matrix(1.25,0,0,-1.25,378.85125,503.90593)">
      <path
         d="m 0,0 -0.826,1.391 -0.855,-1.377 -0.957,0 1.304,2.176 -1.189,1.957 0.973,0 0.724,-1.174 0.695,1.174 0.987,0 L -0.318,2.174 0.973,0.014 0,0 z"
         style="fill:#ffffff;fill-opacity:1;fill-rule:nonzero;stroke:none"
         id="path11145"
         inkscape:connector-curvature="0" />
    </g>
    <g
       id="g11147"
       transform="matrix(1.25,0,0,-1.25,383.05625,499.73843)">
      <path
         d="m 0,0 0,-3.32 -0.797,0 0,3.32 -1.145,0 0,0.826 3.072,0 L 1.13,0 0,0 z"
         style="fill:#ffffff;fill-opacity:1;fill-rule:nonzero;stroke:none"
         id="path11149"
         inkscape:connector-curvature="0" />
    </g>
    <g
       id="g11151"
       transform="matrix(1.25,0,0,-1.25,393.2075,503.88843)">
      <path
         d="m 0,0 -0.653,1.754 c 0.377,0.248 0.594,0.654 0.594,1.103 0,0.463 -0.246,0.885 -0.652,1.116 -0.233,0.131 -0.406,0.173 -0.754,0.173 l -1.871,0 0,-4.146 0.812,0 0,1.551 1.088,0 L -0.871,0 0,0 z m -0.871,2.857 c 0,-0.291 -0.217,-0.478 -0.522,-0.478 l -1.131,0 0,0.941 1.131,0 c 0.305,0 0.522,-0.203 0.522,-0.463"
         style="fill:#ffffff;fill-opacity:1;fill-rule:nonzero;stroke:none"
         id="path11153"
         inkscape:connector-curvature="0" />
    </g>
    <path
       d="m 394.29375,498.70531 1.0325,0 0,5.1825 -1.0325,0 0,-5.1825 z"
       style="fill:#ffffff;fill-opacity:1;fill-rule:nonzero;stroke:none"
       id="path11155"
       inkscape:connector-curvature="0" />
    <g
       id="g11157"
       transform="matrix(1.25,0,0,-1.25,398.68125,503.97843)">
      <path
         d="m 0,0 c -1.205,0 -1.698,1.072 -1.698,2.146 0,1.072 0.493,2.131 1.698,2.131 0.709,0 1.232,-0.406 1.492,-1.029 L 0.724,2.957 C 0.593,3.277 0.332,3.451 0,3.451 c -0.711,0 -0.856,-0.725 -0.856,-1.305 0,-0.595 0.145,-1.32 0.856,-1.32 0.318,0 0.58,0.176 0.724,0.494 l -0.494,0 0,0.826 1.422,0 C 1.593,1.101 1.275,0 0,0"
         style="fill:#ffffff;fill-opacity:1;fill-rule:nonzero;stroke:none"
         id="path11159"
         inkscape:connector-curvature="0" />
    </g>
    <g
       id="g11161"
       transform="matrix(1.25,0,0,-1.25,405.13375,503.88843)">
      <path
         d="m 0,0 0,1.813 -1.713,0 0,-1.813 -0.811,0 0,4.133 0.811,0 0,-1.494 1.713,0 0,1.494 0.81,0 L 0.81,0 0,0 z"
         style="fill:#ffffff;fill-opacity:1;fill-rule:nonzero;stroke:none"
         id="path11163"
         inkscape:connector-curvature="0" />
    </g>
    <g
       id="g11165"
       transform="matrix(1.25,0,0,-1.25,410.915,499.73843)">
      <path
         d="m 0,0 0,0.826 -3.075,0 0,-0.826 1.145,0 0,-3.32 0.799,0 0,3.32 L 0,0 z"
         style="fill:#ffffff;fill-opacity:1;fill-rule:nonzero;stroke:none"
         id="path11167"
         inkscape:connector-curvature="0" />
    </g>
  </g>
</svg>
