<?xml version="1.0" encoding="UTF-8" standalone="no"?>
<!-- Created with Inkscape (http://www.inkscape.org/) -->

<svg
   xmlns:dc="http://purl.org/dc/elements/1.1/"
   xmlns:cc="http://creativecommons.org/ns#"
   xmlns:rdf="http://www.w3.org/1999/02/22-rdf-syntax-ns#"
   xmlns:svg="http://www.w3.org/2000/svg"
   xmlns="http://www.w3.org/2000/svg"
   xmlns:sodipodi="http://sodipodi.sourceforge.net/DTD/sodipodi-0.dtd"
   xmlns:inkscape="http://www.inkscape.org/namespaces/inkscape"
   width="99.335938"
   height="59.84375"
   id="svg14390"
   version="1.1"
   inkscape:version="0.48.3.1 r9886"
   sodipodi:docname="New document 69">
  <defs
     id="defs14392" />
  <sodipodi:namedview
     id="base"
     pagecolor="#ffffff"
     bordercolor="#666666"
     borderopacity="1.0"
     inkscape:pageopacity="0.0"
     inkscape:pageshadow="2"
     inkscape:zoom="0.35"
     inkscape:cx="49.673438"
     inkscape:cy="29.932185"
     inkscape:document-units="px"
     inkscape:current-layer="layer1"
     showgrid="false"
     fit-margin-top="0"
     fit-margin-left="0"
     fit-margin-right="0"
     fit-margin-bottom="0"
     inkscape:window-width="451"
     inkscape:window-height="398"
     inkscape:window-x="150"
     inkscape:window-y="150"
     inkscape:window-maximized="0" />
  <metadata
     id="metadata14395">
    <rdf:RDF>
      <cc:Work
         rdf:about="">
        <dc:format>image/svg+xml</dc:format>
        <dc:type
           rdf:resource="http://purl.org/dc/dcmitype/StillImage" />
        <dc:title></dc:title>
      </cc:Work>
    </rdf:RDF>
  </metadata>
  <g
     inkscape:label="Layer 1"
     inkscape:groupmode="layer"
     id="layer1"
     transform="translate(-325.32656,-502.45062)">
    <g
       id="g11851"
       transform="matrix(1.25,0,0,-1.25,424.35,558.27093)">
      <path
         d="m 0,0 c 0,-1.635 -1.327,-2.961 -2.961,-2.961 l -73.038,0 c -1.635,0 -2.961,1.326 -2.961,2.961 l 0,41.454 c 0,1.636 1.326,2.961 2.961,2.961 l 73.038,0 C -1.327,44.415 0,43.09 0,41.454 L 0,0 z"
         style="fill:#ffffff;fill-opacity:1;fill-rule:nonzero;stroke:none"
         id="path11853"
         inkscape:connector-curvature="0" />
    </g>
    <g
       id="g11855"
       transform="matrix(1.25,0,0,-1.25,424.35,558.27093)">
      <path
         d="m 0,0 c 0,-1.635 -1.327,-2.961 -2.961,-2.961 l -73.038,0 c -1.635,0 -2.961,1.326 -2.961,2.961 l 0,41.454 c 0,1.636 1.326,2.961 2.961,2.961 l 73.038,0 C -1.327,44.415 0,43.09 0,41.454 L 0,0 z"
         style="fill:none;stroke:#231f20;stroke-width:0.5;stroke-linecap:butt;stroke-linejoin:miter;stroke-miterlimit:4;stroke-opacity:1;stroke-dasharray:none"
         id="path11857"
         inkscape:connector-curvature="0" />
    </g>
    <g
       id="g11859"
       transform="matrix(1.25,0,0,-1.25,326.88375,558.27093)">
      <path
         d="m 0,0 0,41.454 c 0,1.089 0.886,1.974 1.974,1.974 l 73.038,0 c 1.088,0 1.974,-0.885 1.974,-1.974 L 76.986,0 c 0,-1.089 -0.886,-1.974 -1.974,-1.974 l -73.038,0 C 0.886,-1.974 0,-1.089 0,0"
         style="fill:#155196;fill-opacity:1;fill-rule:nonzero;stroke:none"
         id="path11861"
         inkscape:connector-curvature="0" />
    </g>
    <g
       id="g11863"
       transform="matrix(1.25,0,0,-1.25,367.5275,541.04467)">
      <path
         d="M 0,0 C -0.333,0.554 -0.741,0.776 -1.37,0.813 -2.185,0.85 -2.703,0.444 -3.074,-0.48 c -0.258,-0.628 -0.407,-1.589 -0.407,-2.475 0,-1.108 0.222,-2.254 0.629,-2.919 0.334,-0.553 0.778,-0.812 1.444,-0.812 0.778,0 1.26,0.406 1.629,1.33 0.223,0.554 0.409,1.588 0.409,2.401 C 0.63,-1.773 0.407,-0.702 0,0 m 1.147,-7.204 c -0.592,-0.812 -1.443,-1.181 -2.555,-1.181 -1.481,0 -2.407,0.59 -3.036,1.883 -0.444,0.887 -0.74,2.29 -0.74,3.547 0,1.736 0.443,3.287 1.148,4.284 0.629,0.814 1.481,1.183 2.703,1.183 1.333,0 2.258,-0.591 2.925,-1.884 0.444,-0.924 0.704,-2.254 0.704,-3.583 0,-1.663 -0.408,-3.325 -1.149,-4.249"
         style="fill:#ffffff;fill-opacity:1;fill-rule:nonzero;stroke:none"
         id="path11865"
         inkscape:connector-curvature="0" />
    </g>
    <g
       id="g11867"
       transform="matrix(1.25,0,0,-1.25,392.64375,551.27967)">
      <path
         d="m 0,0 0,10.528 1.661,0 0,-8.976 4.87,0 L 6.531,0 0,0 z"
         style="fill:#ffffff;fill-opacity:1;fill-rule:nonzero;stroke:none"
         id="path11869"
         inkscape:connector-curvature="0" />
    </g>
    <g
       id="g11871"
       transform="matrix(1.25,0,0,-1.25,377.20875,539.96592)">
      <path
         d="m 0,0 0,-9.051 -1.669,0 0,9.051 -2.411,0 0,1.477 6.529,0 L 2.449,0 0,0 z"
         style="fill:#ffffff;fill-opacity:1;fill-rule:nonzero;stroke:none"
         id="path11873"
         inkscape:connector-curvature="0" />
    </g>
    <g
       id="g11875"
       transform="matrix(1.25,0,0,-1.25,356.075,551.27967)">
      <path
         d="m 0,0 0,4.581 -3.843,0 0,-4.581 -1.662,0 0,10.528 1.662,0 0,-4.248 3.843,0 0,4.248 1.662,0 L 1.662,0 0,0 z"
         style="fill:#ffffff;fill-opacity:1;fill-rule:nonzero;stroke:none"
         id="path11877"
         inkscape:connector-curvature="0" />
    </g>
    <g
       id="g11879"
       transform="matrix(1.25,0,0,-1.25,382.24375,551.27967)">
      <path
         d="m 0,0 0,10.528 6.198,0 0,-1.662 -4.538,0 0,-2.586 3.063,0 0,-1.699 -3.063,0 0,-2.882 4.87,0 L 6.53,0 0,0 z"
         style="fill:#ffffff;fill-opacity:1;fill-rule:nonzero;stroke:none"
         id="path11881"
         inkscape:connector-curvature="0" />
    </g>
    <g
       id="g11883"
       transform="matrix(1.25,0,0,-1.25,397.445,526.60468)">
      <path
         d="m 0,0 -4.026,7.13 0,-7.13 -1.662,0 0,10.528 1.662,0 3.843,-6.723 0,6.723 1.662,0 L 1.479,0 0,0 z"
         style="fill:#ffffff;fill-opacity:1;fill-rule:nonzero;stroke:none"
         id="path11885"
         inkscape:connector-curvature="0" />
    </g>
    <path
       d="m 385.07,513.44405 2.10625,0 0,13.16 -2.10625,0 0,-13.16 z"
       style="fill:#ffffff;fill-opacity:1;fill-rule:nonzero;stroke:none"
       id="path11887"
       inkscape:connector-curvature="0" />
    <g
       id="g11889"
       transform="matrix(1.25,0,0,-1.25,347.7,526.60468)">
      <path
         d="M 0,0 0,6.095 -2.443,0 l -2.443,6.095 0,-6.095 -1.665,0 0,10.528 1.665,0 2.443,-5.911 2.443,5.911 1.665,0 L 1.665,0 0,0 z"
         style="fill:#ffffff;fill-opacity:1;fill-rule:nonzero;stroke:none"
         id="path11891"
         inkscape:connector-curvature="0" />
    </g>
    <g
       id="g11893"
       transform="matrix(1.25,0,0,-1.25,380.035,515.29092)">
      <path
         d="m 0,0 0,-9.051 -1.669,0 0,9.051 -2.413,0 0,1.477 6.532,0 L 2.45,0 0,0 z"
         style="fill:#ffffff;fill-opacity:1;fill-rule:nonzero;stroke:none"
         id="path11895"
         inkscape:connector-curvature="0" />
    </g>
    <g
       id="g11897"
       transform="matrix(1.25,0,0,-1.25,370.695,515.75342)">
      <path
         d="m 0,0 c -0.259,0.148 -0.406,0.185 -0.961,0.185 l -1.994,0 0,-2.586 1.994,0 c 0.517,0 0.702,0.037 0.961,0.185 0.406,0.222 0.665,0.665 0.665,1.108 C 0.665,-0.664 0.406,-0.221 0,0 m 0.738,-8.681 -1.699,4.581 -1.994,0 0,-4.581 -1.662,0 0,10.528 3.471,0 c 0.814,0 1.368,-0.074 1.884,-0.333 0.924,-0.443 1.589,-1.55 1.589,-2.622 0,-1.108 -0.665,-2.216 -1.625,-2.66 l 1.847,-4.913 -1.811,0 z"
         style="fill:#ffffff;fill-opacity:1;fill-rule:nonzero;stroke:none"
         id="path11899"
         inkscape:connector-curvature="0" />
    </g>
    <g
       id="g11901"
       transform="matrix(1.25,0,0,-1.25,409.19625,525.80342)">
      <path
         d="m 0,0 c -0.591,-0.517 -1.405,-0.813 -2.29,-0.813 -1.811,0 -3.141,1.071 -3.843,2.66 l 1.589,0.591 c 0.443,-0.997 1.257,-1.552 2.254,-1.552 0.96,0 1.625,0.665 1.625,1.552 0,1.403 -1.625,1.625 -2.993,2.18 -0.628,0.258 -2.032,0.887 -2.032,2.622 0,2.069 1.404,2.845 3.288,2.845 1.478,0 2.476,-0.85 2.993,-2.143 L -0.887,7.499 c 0,0 -0.369,0.886 -1.551,0.924 C -3.214,8.46 -4.138,8.164 -4.064,7.204 -3.916,5.246 1.035,6.539 1.035,2.401 1.035,1.441 0.665,0.591 0,0"
         style="fill:#ffffff;fill-opacity:1;fill-rule:nonzero;stroke:none"
         id="path11903"
         inkscape:connector-curvature="0" />
    </g>
    <g
       id="g11905"
       transform="matrix(1.25,0,0,-1.25,357.37625,517.09343)">
      <path
         d="m 0,0 -1.079,-2.955 2.119,0 L 0,0 z m 2.674,-7.609 -1.04,2.955 -3.306,0 -1.041,-2.955 -1.784,0 3.642,10.528 1.672,0 3.641,-10.528 -1.784,0 z"
         style="fill:#ffffff;fill-opacity:1;fill-rule:nonzero;stroke:none"
         id="path11907"
         inkscape:connector-curvature="0" />
    </g>
  </g>
</svg>
