<?xml version="1.0" encoding="UTF-8" standalone="no"?>
<!-- Created with Inkscape (http://www.inkscape.org/) -->

<svg
   xmlns:dc="http://purl.org/dc/elements/1.1/"
   xmlns:cc="http://creativecommons.org/ns#"
   xmlns:rdf="http://www.w3.org/1999/02/22-rdf-syntax-ns#"
   xmlns:svg="http://www.w3.org/2000/svg"
   xmlns="http://www.w3.org/2000/svg"
   xmlns:sodipodi="http://sodipodi.sourceforge.net/DTD/sodipodi-0.dtd"
   xmlns:inkscape="http://www.inkscape.org/namespaces/inkscape"
   width="71.171875"
   height="85.898438"
   id="svg16950"
   version="1.1"
   inkscape:version="0.48.3.1 r9886"
   sodipodi:docname="New document 89">
  <defs
     id="defs16952" />
  <sodipodi:namedview
     id="base"
     pagecolor="#ffffff"
     bordercolor="#666666"
     borderopacity="1.0"
     inkscape:pageopacity="0.0"
     inkscape:pageshadow="2"
     inkscape:zoom="0.35"
     inkscape:cx="35.572818"
     inkscape:cy="42.950935"
     inkscape:document-units="px"
     inkscape:current-layer="layer1"
     showgrid="false"
     fit-margin-top="0"
     fit-margin-left="0"
     fit-margin-right="0"
     fit-margin-bottom="0"
     inkscape:window-width="451"
     inkscape:window-height="398"
     inkscape:window-x="75"
     inkscape:window-y="75"
     inkscape:window-maximized="0" />
  <metadata
     id="metadata16955">
    <rdf:RDF>
      <cc:Work
         rdf:about="">
        <dc:format>image/svg+xml</dc:format>
        <dc:type
           rdf:resource="http://purl.org/dc/dcmitype/StillImage" />
        <dc:title></dc:title>
      </cc:Work>
    </rdf:RDF>
  </metadata>
  <g
     inkscape:label="Layer 1"
     inkscape:groupmode="layer"
     id="layer1"
     transform="translate(-339.42718,-489.41468)">
    <g
       id="g11377"
       transform="matrix(1.25,0,0,-1.25,343.91937,489.57093)">
      <path
         d="m 0,0 49.727,0 c 1.916,0 3.484,-1.568 3.484,-3.487 l 0,-61.497 c 0,-1.917 -1.568,-3.482 -3.484,-3.482 l -49.727,0 c -1.916,0 -3.482,1.565 -3.482,3.482 l 0,61.497 C -3.482,-1.568 -1.916,0 0,0 z"
         style="fill:none;stroke:#231f20;stroke-width:0.25;stroke-linecap:butt;stroke-linejoin:miter;stroke-miterlimit:2.61299992;stroke-opacity:1;stroke-dasharray:none"
         id="path11379"
         inkscape:connector-curvature="0" />
    </g>
    <g
       id="g11381"
       transform="matrix(1.25,0,0,-1.25,343.91937,491.15343)">
      <path
         d="m 0,0 49.727,0 c 1.22,0 2.218,-0.993 2.218,-2.221 l 0,-61.497 c 0,-1.219 -0.998,-2.217 -2.218,-2.217 l -49.727,0 c -1.221,0 -2.223,0.998 -2.223,2.217 l 0,61.497 C -2.223,-0.993 -1.221,0 0,0"
         style="fill:#155196;fill-opacity:1;fill-rule:evenodd;stroke:none"
         id="path11383"
         inkscape:connector-curvature="0" />
    </g>
    <g
       id="g11385"
       transform="matrix(1.25,0,0,-1.25,366.01687,504.28469)">
      <path
         d="m 0,0 c -1.994,0 -2.811,1.776 -2.811,3.553 0,1.776 0.817,3.527 2.811,3.527 1.176,0 2.039,-0.672 2.471,-1.704 L 1.199,4.898 C 0.982,5.425 0.551,5.712 0,5.712 c -1.178,0 -1.416,-1.199 -1.416,-2.159 0,-0.984 0.238,-2.185 1.416,-2.185 0.527,0 0.959,0.289 1.199,0.817 l -0.816,0 0,1.368 2.351,0 C 2.639,1.825 2.111,0 0,0"
         style="fill:#ffffff;fill-opacity:1;fill-rule:nonzero;stroke:none"
         id="path11387"
         inkscape:connector-curvature="0" />
    </g>
    <g
       id="g11389"
       transform="matrix(1.25,0,0,-1.25,374.98687,498.01344)">
      <path
         d="m 0,0 -0.842,-1.921 1.607,0 L 0,0 z m 1.966,-4.896 -0.648,1.608 -2.713,0 -0.646,-1.608 -1.465,0 2.76,6.864 1.416,0 2.759,-6.864 -1.463,0 z"
         style="fill:#ffffff;fill-opacity:1;fill-rule:nonzero;stroke:none"
         id="path11391"
         inkscape:connector-curvature="0" />
    </g>
    <g
       id="g11393"
       transform="matrix(1.25,0,0,-1.25,386.26312,503.80469)">
      <path
         d="m 0,0 c -0.408,-0.238 -1.127,-0.384 -1.775,-0.384 -0.768,0 -1.512,0.217 -2.112,0.625 -0.216,0.12 -0.361,0.24 -0.671,0.528 l 0.959,0.959 c 0.578,-0.527 1.105,-0.744 1.896,-0.744 0.793,0 1.344,0.265 1.344,0.744 0,0.192 -0.119,0.457 -0.313,0.577 C -0.91,2.449 -1.15,2.52 -2.039,2.689 -2.76,2.857 -3.191,3 -3.478,3.193 c -0.457,0.311 -0.745,0.912 -0.745,1.489 0,0.695 0.36,1.318 0.959,1.679 0.385,0.24 0.842,0.335 1.442,0.335 0.767,0 1.488,-0.168 2.062,-0.527 C 0.385,6.072 0.457,6.024 0.674,5.857 l -0.842,-1.08 c -0.551,0.408 -1.055,0.551 -1.703,0.551 -0.623,0 -1.008,-0.216 -1.008,-0.646 0,-0.168 0.096,-0.362 0.264,-0.433 0.121,-0.071 0.264,-0.096 0.408,-0.144 L -1.992,4.08 -1.752,4.032 -1.439,3.984 C 0.145,3.696 0.986,2.953 0.986,1.753 0.986,1.032 0.602,0.337 0,0"
         style="fill:#ffffff;fill-opacity:1;fill-rule:nonzero;stroke:none"
         id="path11395"
         inkscape:connector-curvature="0" />
    </g>
    <path
       d="m 348.62187,539.05406 31.5525,0 0,-23.53125 -31.5525,0 0,23.53125 z"
       style="fill:#155196;fill-opacity:1;fill-rule:nonzero;stroke:#ffffff;stroke-width:0.625;stroke-linecap:butt;stroke-linejoin:miter;stroke-miterlimit:4;stroke-opacity:1;stroke-dasharray:none"
       id="path11397"
       inkscape:connector-curvature="0" />
    <g
       id="g11399"
       transform="matrix(1.25,0,0,-1.25,394.02687,530.93969)">
      <path
         d="m 0,0 0.022,4.363 -0.735,0 -0.019,0.84 c 0.447,0.104 0.691,0.268 0.916,0.637 L 1.02,5.84 1.02,0 0,0 z"
         style="fill:#ffffff;fill-opacity:1;fill-rule:nonzero;stroke:none"
         id="path11401"
         inkscape:connector-curvature="0" />
    </g>
    <path
       d="m 348.62187,568.60656 31.5525,0 0,-23.53125 -31.5525,0 0,23.53125 z"
       style="fill:#155196;fill-opacity:1;fill-rule:nonzero;stroke:#ffffff;stroke-width:0.625;stroke-linecap:butt;stroke-linejoin:miter;stroke-miterlimit:4;stroke-opacity:1;stroke-dasharray:none"
       id="path11403"
       inkscape:connector-curvature="0" />
    <g
       id="g11405"
       transform="matrix(1.25,0,0,-1.25,387.94812,560.49081)">
      <path
         d="m 0,0 0.021,4.364 -0.734,0 -0.02,0.839 c 0.448,0.104 0.692,0.268 0.916,0.637 l 0.836,0 L 1.019,0 0,0 z"
         style="fill:#ffffff;fill-opacity:1;fill-rule:nonzero;stroke:none"
         id="path11407"
         inkscape:connector-curvature="0" />
    </g>
    <g
       id="g11409"
       transform="matrix(1.25,0,0,-1.25,400.17687,551.36719)">
      <path
         d="m 0,0 -1.043,0 -5.092,-8.759 1.043,0 L 0,0 z"
         style="fill:#ffffff;fill-opacity:1;fill-rule:nonzero;stroke:none"
         id="path11411"
         inkscape:connector-curvature="0" />
    </g>
    <g
       id="g11413"
       transform="matrix(1.25,0,0,-1.25,393.01562,557.03344)">
      <path
         d="m 0,0 c -0.541,0 -1.082,0.185 -1.466,0.538 -0.108,0.093 -0.186,0.169 -0.34,0.353 l 0.633,0.477 C -0.865,0.969 -0.462,0.8 0.045,0.8 c 0.541,0 0.913,0.246 0.913,0.614 0,0.215 -0.141,0.461 -0.34,0.569 C 0.493,2.045 0.354,2.075 0.184,2.075 l -0.215,0 0,0.784 0.186,0 c 0.338,0 0.586,0.184 0.586,0.43 0,0.262 -0.309,0.461 -0.772,0.461 -0.371,0 -0.711,-0.154 -0.972,-0.43 l -0.586,0.537 c 0.431,0.447 0.97,0.676 1.603,0.676 0.881,0 1.529,-0.521 1.529,-1.228 C 1.543,3.012 1.45,2.812 1.188,2.474 1.62,2.09 1.743,1.86 1.743,1.445 1.743,0.631 0.987,0 0,0"
         style="fill:#ffffff;fill-opacity:1;fill-rule:nonzero;stroke:none"
         id="path11415"
         inkscape:connector-curvature="0" />
    </g>
    <g
       id="g11417"
       transform="matrix(1.25,0,0,-1.25,399.61062,558.12719)">
      <path
         d="M 0,0 -1.705,-1.752 0,-1.752 0,0 z m 0.769,-2.459 0,-0.892 -0.769,0 0,0.892 -2.705,0 0,0.707 L 0,1.03 l 0.769,0 0,-2.782 0.645,0 0,-0.707 -0.645,0 z"
         style="fill:#ffffff;fill-opacity:1;fill-rule:nonzero;stroke:none"
         id="path11419"
         inkscape:connector-curvature="0" />
    </g>
  </g>
</svg>
