<?xml version="1.0" encoding="UTF-8" standalone="no"?>
<!-- Created with Inkscape (http://www.inkscape.org/) -->

<svg
   xmlns:dc="http://purl.org/dc/elements/1.1/"
   xmlns:cc="http://creativecommons.org/ns#"
   xmlns:rdf="http://www.w3.org/1999/02/22-rdf-syntax-ns#"
   xmlns:svg="http://www.w3.org/2000/svg"
   xmlns="http://www.w3.org/2000/svg"
   xmlns:sodipodi="http://sodipodi.sourceforge.net/DTD/sodipodi-0.dtd"
   xmlns:inkscape="http://www.inkscape.org/namespaces/inkscape"
   width="322.06937"
   height="116.50594"
   id="svg16083"
   version="1.1"
   inkscape:version="0.48.3.1 r9886"
   sodipodi:docname="New document 83">
  <defs
     id="defs16085">
    <clipPath
       clipPathUnits="userSpaceOnUse"
       id="clipPath11257">
      <path
         inkscape:connector-curvature="0"
         d="m 27,44.082 513.086,0 0,693.845 -513.086,0 0,-693.845 z"
         id="path11259" />
    </clipPath>
  </defs>
  <sodipodi:namedview
     id="base"
     pagecolor="#ffffff"
     bordercolor="#666666"
     borderopacity="1.0"
     inkscape:pageopacity="0.0"
     inkscape:pageshadow="2"
     inkscape:zoom="0.35"
     inkscape:cx="161.02094"
     inkscape:cy="58.25469"
     inkscape:document-units="px"
     inkscape:current-layer="layer1"
     showgrid="false"
     fit-margin-top="0"
     fit-margin-left="0"
     fit-margin-right="0"
     fit-margin-bottom="0"
     inkscape:window-width="451"
     inkscape:window-height="398"
     inkscape:window-x="125"
     inkscape:window-y="125"
     inkscape:window-maximized="0" />
  <metadata
     id="metadata16088">
    <rdf:RDF>
      <cc:Work
         rdf:about="">
        <dc:format>image/svg+xml</dc:format>
        <dc:type
           rdf:resource="http://purl.org/dc/dcmitype/StillImage" />
        <dc:title></dc:title>
      </cc:Work>
    </rdf:RDF>
  </metadata>
  <g
     inkscape:label="Layer 1"
     inkscape:groupmode="layer"
     id="layer1"
     transform="translate(-213.97906,-474.11094)">
    <g
       transform="matrix(1.25,0,0,-1.25,20.73,666.34031)"
       id="g11253">
      <g
         id="g11255"
         clip-path="url(#clipPath11257)">
        <g
           id="g11261"
           transform="translate(158.193,153.6585)">
          <path
             inkscape:connector-curvature="0"
             d="m 0,0 105.22,0 c 1.916,0 3.484,-1.567 3.484,-3.486 l 0,-85.984 c 0,-1.917 -1.568,-3.482 -3.484,-3.482 l -105.22,0 c -1.916,0 -3.483,1.565 -3.483,3.482 l 0,85.984 C -3.483,-1.567 -1.916,0 0,0 z"
             style="fill:none;stroke:#231f20;stroke-width:0.25;stroke-linecap:butt;stroke-linejoin:miter;stroke-miterlimit:2.61299992;stroke-opacity:1;stroke-dasharray:none"
             id="path11263" />
        </g>
        <g
           id="g11265"
           transform="translate(158.193,152.3925)">
          <path
             inkscape:connector-curvature="0"
             d="m 0,0 105.22,0 c 1.221,0 2.219,-0.993 2.219,-2.22 l 0,-85.984 c 0,-1.219 -0.998,-2.217 -2.219,-2.217 l -105.22,0 c -1.221,0 -2.223,0.998 -2.223,2.217 l 0,85.984 C -2.223,-0.993 -1.221,0 0,0"
             style="fill:#155196;fill-opacity:1;fill-rule:evenodd;stroke:none"
             id="path11267" />
        </g>
        <g
           id="g11269"
           transform="translate(203.618,141.8875)">
          <path
             inkscape:connector-curvature="0"
             d="m 0,0 c -1.994,0 -2.811,1.777 -2.811,3.553 0,1.777 0.817,3.528 2.811,3.528 1.175,0 2.039,-0.672 2.47,-1.705 L 1.199,4.898 C 0.982,5.425 0.55,5.712 0,5.712 c -1.178,0 -1.416,-1.199 -1.416,-2.159 0,-0.983 0.238,-2.184 1.416,-2.184 0.527,0 0.959,0.289 1.199,0.816 l -0.817,0 0,1.368 2.352,0 C 2.638,1.826 2.111,0 0,0"
             style="fill:#ffffff;fill-opacity:1;fill-rule:nonzero;stroke:none"
             id="path11271" />
        </g>
        <g
           id="g11273"
           transform="translate(210.793,146.9045)">
          <path
             inkscape:connector-curvature="0"
             d="m 0,0 -0.841,-1.921 1.607,0 L 0,0 z m 1.967,-4.895 -0.648,1.607 -2.713,0 -0.647,-1.607 -1.464,0 2.759,6.864 1.416,0 2.76,-6.864 -1.463,0 z"
             style="fill:#ffffff;fill-opacity:1;fill-rule:nonzero;stroke:none"
             id="path11275" />
        </g>
        <g
           id="g11277"
           transform="translate(219.815,142.2715)">
          <path
             inkscape:connector-curvature="0"
             d="m 0,0 c -0.408,-0.238 -1.127,-0.384 -1.775,-0.384 -0.768,0 -1.512,0.217 -2.112,0.625 -0.217,0.121 -0.361,0.241 -0.672,0.529 L -3.6,1.729 c 0.578,-0.528 1.106,-0.744 1.897,-0.744 0.793,0 1.344,0.264 1.344,0.744 0,0.191 -0.12,0.457 -0.313,0.576 C -0.91,2.449 -1.15,2.521 -2.039,2.69 -2.76,2.858 -3.191,3 -3.479,3.194 c -0.457,0.31 -0.744,0.912 -0.744,1.488 0,0.695 0.36,1.318 0.959,1.68 0.385,0.24 0.842,0.335 1.442,0.335 0.767,0 1.488,-0.168 2.062,-0.528 C 0.385,6.072 0.457,6.025 0.674,5.858 l -0.842,-1.08 c -0.551,0.408 -1.055,0.55 -1.703,0.55 -0.623,0 -1.008,-0.215 -1.008,-0.646 0,-0.168 0.096,-0.361 0.264,-0.433 0.121,-0.071 0.263,-0.095 0.408,-0.143 L -1.992,4.08 -1.752,4.032 -1.44,3.985 C 0.144,3.697 0.986,2.953 0.986,1.753 0.986,1.032 0.602,0.337 0,0"
             style="fill:#ffffff;fill-opacity:1;fill-rule:nonzero;stroke:none"
             id="path11279" />
        </g>
        <path
           inkscape:connector-curvature="0"
           d="m 203.813,114.072 -25.242,0 0,18.825 25.242,0 0,-18.825 z"
           style="fill:#155196;fill-opacity:1;fill-rule:nonzero;stroke:#ffffff;stroke-width:0.5;stroke-linecap:butt;stroke-linejoin:miter;stroke-miterlimit:4;stroke-opacity:1;stroke-dasharray:none"
           id="path11281" />
        <g
           id="g11283"
           transform="translate(167.031,120.5185)">
          <path
             inkscape:connector-curvature="0"
             d="M 0,0 -4.383,2.963 0,5.932 C 0.191,6.063 0.457,6.012 0.588,5.819 0.676,5.69 0.66,5.557 0.621,5.399 l -0.389,-1.287 4.783,0 0,-2.296 -4.783,0 0.377,-1.265 C 0.66,0.375 0.679,0.246 0.588,0.112 0.457,-0.08 0.191,-0.133 0,0"
             style="fill:#ffffff;fill-opacity:1;fill-rule:evenodd;stroke:none"
             id="path11285" />
        </g>
        <g
           id="g11287"
           transform="translate(167.031,103.2505)">
          <path
             inkscape:connector-curvature="0"
             d="M 0,0 -4.383,2.963 0,5.931 C 0.191,6.062 0.457,6.011 0.588,5.818 0.676,5.689 0.66,5.556 0.621,5.398 l -0.389,-1.287 4.783,0 0,-2.296 -4.783,0 0.377,-1.264 C 0.66,0.375 0.679,0.246 0.588,0.111 0.457,-0.08 0.191,-0.133 0,0"
             style="fill:#ffffff;fill-opacity:1;fill-rule:evenodd;stroke:none"
             id="path11289" />
        </g>
        <path
           inkscape:connector-curvature="0"
           d="m 203.813,90.43 -25.242,0 0,18.826 25.242,0 0,-18.826 z"
           style="fill:#155196;fill-opacity:1;fill-rule:nonzero;stroke:#ffffff;stroke-width:0.5;stroke-linecap:butt;stroke-linejoin:miter;stroke-miterlimit:4;stroke-opacity:1;stroke-dasharray:none"
           id="path11291" />
        <g
           id="g11293"
           transform="translate(155.138,138.1455)">
          <path
             inkscape:connector-curvature="0"
             d="M 0,0 110.49,0"
             style="fill:none;stroke:#ffffff;stroke-width:1;stroke-linecap:butt;stroke-linejoin:miter;stroke-miterlimit:4;stroke-opacity:1;stroke-dasharray:none"
             id="path11295" />
        </g>
        <path
           inkscape:connector-curvature="0"
           d="m 203.813,66.789 -25.242,0 0,18.825 25.242,0 0,-18.825 z"
           style="fill:#155196;fill-opacity:1;fill-rule:nonzero;stroke:#ffffff;stroke-width:0.5;stroke-linecap:butt;stroke-linejoin:miter;stroke-miterlimit:4;stroke-opacity:1;stroke-dasharray:none"
           id="path11297" />
        <g
           id="g11299"
           transform="translate(167.205,93.8895)">
          <path
             inkscape:connector-curvature="0"
             d="m 0,0 0.02,4.364 -0.733,0 -0.021,0.84 c 0.448,0.103 0.693,0.267 0.916,0.636 l 0.836,0 L 1.018,0 0,0 z"
             style="fill:#ffffff;fill-opacity:1;fill-rule:nonzero;stroke:none"
             id="path11301" />
        </g>
        <g
           id="g11303"
           transform="translate(167.031,79.6095)">
          <path
             inkscape:connector-curvature="0"
             d="M 0,0 -4.383,2.963 0,5.932 C 0.191,6.063 0.457,6.012 0.588,5.818 0.676,5.69 0.66,5.557 0.621,5.399 l -0.389,-1.288 4.783,0 0,-2.295 -4.783,0 0.377,-1.265 C 0.66,0.375 0.679,0.246 0.588,0.111 0.457,-0.08 0.191,-0.133 0,0"
             style="fill:#ffffff;fill-opacity:1;fill-rule:evenodd;stroke:none"
             id="path11305" />
        </g>
        <g
           id="g11307"
           transform="translate(254.095,70.1465)">
          <path
             inkscape:connector-curvature="0"
             d="m 0,0 c -0.721,0 -1.441,0.246 -1.955,0.717 -0.144,0.124 -0.247,0.226 -0.452,0.472 l 0.843,0.634 c 0.411,-0.532 0.947,-0.757 1.625,-0.757 0.721,0 1.214,0.328 1.214,0.819 0,0.287 -0.184,0.614 -0.452,0.759 -0.165,0.082 -0.35,0.123 -0.576,0.123 l -0.288,0 0,1.045 0.247,0 c 0.452,0 0.781,0.245 0.781,0.573 0,0.349 -0.411,0.614 -1.028,0.614 -0.494,0 -0.947,-0.205 -1.297,-0.573 l -0.781,0.717 c 0.576,0.595 1.295,0.901 2.139,0.901 1.173,0 2.037,-0.696 2.037,-1.639 C 2.057,4.016 1.934,3.749 1.584,3.299 2.16,2.786 2.325,2.48 2.325,1.926 2.325,0.841 1.317,0 0,0"
             style="fill:#ffffff;fill-opacity:1;fill-rule:nonzero;stroke:none"
             id="path11309" />
        </g>
        <g
           id="g11311"
           transform="translate(159.982,70.2495)">
          <path
             inkscape:connector-curvature="0"
             d="M 0,0 C 0,0.696 0.143,1.209 0.473,1.782 0.987,2.642 1.728,3.176 2.798,3.463 3.457,3.646 3.683,3.851 3.683,4.2 3.683,4.631 3.271,4.876 2.53,4.876 1.769,4.876 1.214,4.691 0.72,4.241 L 0,5.04 C 0.679,5.635 1.522,5.941 2.469,5.941 3.848,5.941 4.732,5.265 4.732,4.2 4.732,3.709 4.526,3.258 4.136,2.929 3.95,2.786 3.683,2.642 3.271,2.519 2.489,2.295 2.263,2.192 1.913,1.885 1.645,1.66 1.481,1.434 1.275,1.045 l 3.457,0 L 4.732,0 0,0 z"
             style="fill:#ffffff;fill-opacity:1;fill-rule:nonzero;stroke:none"
             id="path11313" />
        </g>
        <g
           id="g11315"
           transform="translate(168.053,68.8415)">
          <path
             inkscape:connector-curvature="0"
             d="m 0,0 -1.043,0 5.093,8.758 1.043,0 L 0,0 z"
             style="fill:#ffffff;fill-opacity:1;fill-rule:nonzero;stroke:none"
             id="path11317" />
        </g>
        <g
           id="g11319"
           transform="translate(167.679,73.2185)">
          <path
             inkscape:connector-curvature="0"
             d="m 0,0 0.016,3.274 -0.551,0 -0.015,0.63 c 0.336,0.077 0.519,0.2 0.688,0.477 l 0.626,0 L 0.764,0 0,0 z"
             style="fill:#ffffff;fill-opacity:1;fill-rule:nonzero;stroke:none"
             id="path11321" />
        </g>
        <g
           id="g11323"
           transform="translate(171.163,68.8415)">
          <path
             inkscape:connector-curvature="0"
             d="M 0,0 C 0,0.521 0.107,0.906 0.354,1.335 0.74,1.981 1.295,2.38 2.098,2.596 2.592,2.734 2.761,2.888 2.761,3.149 2.761,3.472 2.454,3.656 1.897,3.656 1.327,3.656 0.91,3.517 0.54,3.18 L 0,3.779 C 0.508,4.225 1.141,4.455 1.851,4.455 2.885,4.455 3.549,3.949 3.549,3.149 3.549,2.781 3.394,2.443 3.101,2.197 2.962,2.088 2.761,1.981 2.454,1.888 1.867,1.72 1.697,1.643 1.434,1.413 1.234,1.244 1.11,1.075 0.957,0.783 l 2.592,0 L 3.549,0 0,0 z"
             style="fill:#ffffff;fill-opacity:1;fill-rule:nonzero;stroke:none"
             id="path11325" />
        </g>
        <path
           inkscape:connector-curvature="0"
           d="m 217.587,114.072 25.243,0 0,18.825 -25.243,0 0,-18.825 z"
           style="fill:#155196;fill-opacity:1;fill-rule:nonzero;stroke:#ffffff;stroke-width:0.5;stroke-linecap:butt;stroke-linejoin:miter;stroke-miterlimit:4;stroke-opacity:1;stroke-dasharray:none"
           id="path11327" />
        <g
           id="g11329"
           transform="translate(254.37,103.2505)">
          <path
             inkscape:connector-curvature="0"
             d="M 0,0 4.383,2.963 0,5.931 C -0.191,6.062 -0.457,6.011 -0.588,5.818 -0.676,5.689 -0.66,5.556 -0.621,5.398 l 0.389,-1.287 -4.783,0 0,-2.296 4.783,0 -0.377,-1.264 C -0.66,0.375 -0.68,0.246 -0.588,0.111 -0.457,-0.08 -0.191,-0.133 0,0"
             style="fill:#ffffff;fill-opacity:1;fill-rule:evenodd;stroke:none"
             id="path11331" />
        </g>
        <g
           id="g11333"
           transform="translate(254.37,103.2505)">
          <path
             inkscape:connector-curvature="0"
             d="M 0,0 4.383,2.963 0,5.931 C -0.191,6.062 -0.457,6.011 -0.588,5.818 -0.676,5.689 -0.66,5.556 -0.621,5.398 l 0.389,-1.287 -4.783,0 0,-2.296 4.783,0 -0.377,-1.264 C -0.66,0.375 -0.68,0.246 -0.588,0.111 -0.457,-0.08 -0.191,-0.133 0,0"
             style="fill:#ffffff;fill-opacity:1;fill-rule:evenodd;stroke:none"
             id="path11335" />
        </g>
        <path
           inkscape:connector-curvature="0"
           d="m 217.587,90.43 25.243,0 0,18.826 -25.243,0 0,-18.826 z"
           style="fill:#155196;fill-opacity:1;fill-rule:nonzero;stroke:#ffffff;stroke-width:0.5;stroke-linecap:butt;stroke-linejoin:miter;stroke-miterlimit:4;stroke-opacity:1;stroke-dasharray:none"
           id="path11337" />
        <path
           inkscape:connector-curvature="0"
           d="m 217.587,66.789 25.243,0 0,18.825 -25.243,0 0,-18.825 z"
           style="fill:#155196;fill-opacity:1;fill-rule:nonzero;stroke:#ffffff;stroke-width:0.5;stroke-linecap:butt;stroke-linejoin:miter;stroke-miterlimit:4;stroke-opacity:1;stroke-dasharray:none"
           id="path11339" />
        <g
           id="g11341"
           transform="translate(254.37,79.6095)">
          <path
             inkscape:connector-curvature="0"
             d="M 0,0 4.383,2.963 0,5.932 C -0.191,6.063 -0.457,6.012 -0.588,5.818 -0.676,5.69 -0.66,5.557 -0.621,5.399 l 0.389,-1.288 -4.783,0 0,-2.295 4.783,0 -0.377,-1.265 C -0.66,0.375 -0.68,0.246 -0.588,0.111 -0.457,-0.08 -0.191,-0.133 0,0"
             style="fill:#ffffff;fill-opacity:1;fill-rule:evenodd;stroke:none"
             id="path11343" />
        </g>
        <g
           id="g11345"
           transform="translate(256.339,101.2405)">
          <path
             inkscape:connector-curvature="0"
             d="m 0,0 -1.043,0 -5.092,-8.759 1.042,0 L 0,0 z"
             style="fill:#ffffff;fill-opacity:1;fill-rule:nonzero;stroke:none"
             id="path11347" />
        </g>
        <g
           id="g11349"
           transform="translate(251.636,96.8595)">
          <path
             inkscape:connector-curvature="0"
             d="m 0,0 0,4.381 -0.627,0 c -0.168,-0.277 -0.35,-0.4 -0.687,-0.478 l 0.015,-0.629 0.55,0 L -0.763,0 0,0 z"
             style="fill:#ffffff;fill-opacity:1;fill-rule:nonzero;stroke:none"
             id="path11351" />
        </g>
        <g
           id="g11353"
           transform="translate(257.904,92.4815)">
          <path
             inkscape:connector-curvature="0"
             d="m 0,0 0,0.783 -2.592,0 c 0.154,0.292 0.277,0.461 0.478,0.63 0.262,0.231 0.432,0.308 1.019,0.476 0.308,0.093 0.508,0.2 0.648,0.308 C -0.154,2.444 0,2.781 0,3.15 0,3.949 -0.664,4.455 -1.698,4.455 -2.407,4.455 -3.04,4.226 -3.55,3.779 l 0.541,-0.598 c 0.371,0.337 0.787,0.475 1.358,0.475 0.556,0 0.864,-0.183 0.864,-0.506 0,-0.261 -0.17,-0.415 -0.664,-0.553 C -2.253,2.381 -2.808,1.982 -3.195,1.336 -3.441,0.906 -3.55,0.522 -3.55,0 L 0,0 z"
             style="fill:#ffffff;fill-opacity:1;fill-rule:nonzero;stroke:none"
             id="path11355" />
        </g>
        <g
           id="g11357"
           transform="translate(254.37,126.8925)">
          <path
             inkscape:connector-curvature="0"
             d="M 0,0 4.383,2.963 0,5.932 C -0.191,6.063 -0.457,6.012 -0.588,5.819 -0.676,5.69 -0.66,5.557 -0.621,5.399 l 0.389,-1.287 -4.783,0 0,-2.296 4.783,0 -0.377,-1.265 C -0.66,0.375 -0.68,0.246 -0.588,0.112 -0.457,-0.08 -0.191,-0.133 0,0"
             style="fill:#ffffff;fill-opacity:1;fill-rule:evenodd;stroke:none"
             id="path11359" />
        </g>
        <g
           id="g11361"
           transform="translate(256.339,124.8835)">
          <path
             inkscape:connector-curvature="0"
             d="m 0,0 -1.043,0 -5.092,-8.759 1.042,0 L 0,0 z"
             style="fill:#ffffff;fill-opacity:1;fill-rule:nonzero;stroke:none"
             id="path11363" />
        </g>
        <g
           id="g11365"
           transform="translate(251.636,120.5025)">
          <path
             inkscape:connector-curvature="0"
             d="m 0,0 0,4.381 -0.627,0 C -0.795,4.103 -0.977,3.98 -1.314,3.903 l 0.015,-0.63 0.55,0 L -0.763,0 0,0 z"
             style="fill:#ffffff;fill-opacity:1;fill-rule:nonzero;stroke:none"
             id="path11367" />
        </g>
        <g
           id="g11369"
           transform="translate(257.904,116.1245)">
          <path
             inkscape:connector-curvature="0"
             d="m 0,0 0,0.783 -2.592,0 c 0.154,0.292 0.277,0.461 0.478,0.63 0.262,0.23 0.432,0.307 1.019,0.475 0.308,0.093 0.508,0.201 0.648,0.309 C -0.154,2.443 0,2.781 0,3.149 c 0,0.8 -0.664,1.306 -1.698,1.306 -0.709,0 -1.342,-0.23 -1.852,-0.676 L -3.009,3.18 c 0.371,0.337 0.787,0.476 1.358,0.476 0.556,0 0.864,-0.184 0.864,-0.507 0,-0.261 -0.17,-0.415 -0.664,-0.553 C -2.253,2.381 -2.808,1.981 -3.195,1.336 -3.441,0.906 -3.55,0.521 -3.55,0 L 0,0 z"
             style="fill:#ffffff;fill-opacity:1;fill-rule:nonzero;stroke:none"
             id="path11371" />
        </g>
        <g
           id="g11373"
           transform="translate(210.701,137.9495)">
          <path
             inkscape:connector-curvature="0"
             d="M 0,0 0,-76.526"
             style="fill:none;stroke:#ffffff;stroke-width:1;stroke-linecap:butt;stroke-linejoin:miter;stroke-miterlimit:4;stroke-opacity:1;stroke-dasharray:none"
             id="path11375" />
        </g>
        <g
           id="g11377"
           transform="translate(358.911,129.1725)">
          <path
             inkscape:connector-curvature="0"
             d="m 0,0 49.727,0 c 1.916,0 3.484,-1.568 3.484,-3.487 l 0,-61.497 c 0,-1.917 -1.568,-3.482 -3.484,-3.482 l -49.727,0 c -1.916,0 -3.482,1.565 -3.482,3.482 l 0,61.497 C -3.482,-1.568 -1.916,0 0,0 z"
             style="fill:none;stroke:#231f20;stroke-width:0.25;stroke-linecap:butt;stroke-linejoin:miter;stroke-miterlimit:2.61299992;stroke-opacity:1;stroke-dasharray:none"
             id="path11379" />
        </g>
        <g
           id="g11381"
           transform="translate(358.911,127.9065)">
          <path
             inkscape:connector-curvature="0"
             d="m 0,0 49.727,0 c 1.22,0 2.218,-0.993 2.218,-2.221 l 0,-61.497 c 0,-1.219 -0.998,-2.217 -2.218,-2.217 l -49.727,0 c -1.221,0 -2.223,0.998 -2.223,2.217 l 0,61.497 C -2.223,-0.993 -1.221,0 0,0"
             style="fill:#155196;fill-opacity:1;fill-rule:evenodd;stroke:none"
             id="path11383" />
        </g>
        <g
           id="g11385"
           transform="translate(376.589,117.4015)">
          <path
             inkscape:connector-curvature="0"
             d="m 0,0 c -1.994,0 -2.811,1.776 -2.811,3.553 0,1.776 0.817,3.527 2.811,3.527 1.176,0 2.039,-0.672 2.471,-1.704 L 1.199,4.898 C 0.982,5.425 0.551,5.712 0,5.712 c -1.178,0 -1.416,-1.199 -1.416,-2.159 0,-0.984 0.238,-2.185 1.416,-2.185 0.527,0 0.959,0.289 1.199,0.817 l -0.816,0 0,1.368 2.351,0 C 2.639,1.825 2.111,0 0,0"
             style="fill:#ffffff;fill-opacity:1;fill-rule:nonzero;stroke:none"
             id="path11387" />
        </g>
        <g
           id="g11389"
           transform="translate(383.765,122.4185)">
          <path
             inkscape:connector-curvature="0"
             d="m 0,0 -0.842,-1.921 1.607,0 L 0,0 z m 1.966,-4.896 -0.648,1.608 -2.713,0 -0.646,-1.608 -1.465,0 2.76,6.864 1.416,0 2.759,-6.864 -1.463,0 z"
             style="fill:#ffffff;fill-opacity:1;fill-rule:nonzero;stroke:none"
             id="path11391" />
        </g>
        <g
           id="g11393"
           transform="translate(392.786,117.7855)">
          <path
             inkscape:connector-curvature="0"
             d="m 0,0 c -0.408,-0.238 -1.127,-0.384 -1.775,-0.384 -0.768,0 -1.512,0.217 -2.112,0.625 -0.216,0.12 -0.361,0.24 -0.671,0.528 l 0.959,0.959 c 0.578,-0.527 1.105,-0.744 1.896,-0.744 0.793,0 1.344,0.265 1.344,0.744 0,0.192 -0.119,0.457 -0.313,0.577 C -0.91,2.449 -1.15,2.52 -2.039,2.689 -2.76,2.857 -3.191,3 -3.478,3.193 c -0.457,0.311 -0.745,0.912 -0.745,1.489 0,0.695 0.36,1.318 0.959,1.679 0.385,0.24 0.842,0.335 1.442,0.335 0.767,0 1.488,-0.168 2.062,-0.527 C 0.385,6.072 0.457,6.024 0.674,5.857 l -0.842,-1.08 c -0.551,0.408 -1.055,0.551 -1.703,0.551 -0.623,0 -1.008,-0.216 -1.008,-0.646 0,-0.168 0.096,-0.362 0.264,-0.433 0.121,-0.071 0.264,-0.096 0.408,-0.144 L -1.992,4.08 -1.752,4.032 -1.439,3.984 C 0.145,3.696 0.986,2.953 0.986,1.753 0.986,1.032 0.602,0.337 0,0"
             style="fill:#ffffff;fill-opacity:1;fill-rule:nonzero;stroke:none"
             id="path11395" />
        </g>
        <path
           inkscape:connector-curvature="0"
           d="m 362.673,89.586 25.242,0 0,18.825 -25.242,0 0,-18.825 z"
           style="fill:#155196;fill-opacity:1;fill-rule:nonzero;stroke:#ffffff;stroke-width:0.5;stroke-linecap:butt;stroke-linejoin:miter;stroke-miterlimit:4;stroke-opacity:1;stroke-dasharray:none"
           id="path11397" />
        <g
           id="g11399"
           transform="translate(398.997,96.0775)">
          <path
             inkscape:connector-curvature="0"
             d="m 0,0 0.022,4.363 -0.735,0 -0.019,0.84 c 0.447,0.104 0.691,0.268 0.916,0.637 L 1.02,5.84 1.02,0 0,0 z"
             style="fill:#ffffff;fill-opacity:1;fill-rule:nonzero;stroke:none"
             id="path11401" />
        </g>
        <path
           inkscape:connector-curvature="0"
           d="m 362.673,65.944 25.242,0 0,18.825 -25.242,0 0,-18.825 z"
           style="fill:#155196;fill-opacity:1;fill-rule:nonzero;stroke:#ffffff;stroke-width:0.5;stroke-linecap:butt;stroke-linejoin:miter;stroke-miterlimit:4;stroke-opacity:1;stroke-dasharray:none"
           id="path11403" />
        <g
           id="g11405"
           transform="translate(394.134,72.4366)">
          <path
             inkscape:connector-curvature="0"
             d="m 0,0 0.021,4.364 -0.734,0 -0.02,0.839 c 0.448,0.104 0.692,0.268 0.916,0.637 l 0.836,0 L 1.019,0 0,0 z"
             style="fill:#ffffff;fill-opacity:1;fill-rule:nonzero;stroke:none"
             id="path11407" />
        </g>
        <g
           id="g11409"
           transform="translate(403.917,79.7355)">
          <path
             inkscape:connector-curvature="0"
             d="m 0,0 -1.043,0 -5.092,-8.759 1.043,0 L 0,0 z"
             style="fill:#ffffff;fill-opacity:1;fill-rule:nonzero;stroke:none"
             id="path11411" />
        </g>
        <g
           id="g11413"
           transform="translate(398.188,75.2025)">
          <path
             inkscape:connector-curvature="0"
             d="m 0,0 c -0.541,0 -1.082,0.185 -1.466,0.538 -0.108,0.093 -0.186,0.169 -0.34,0.353 l 0.633,0.477 C -0.865,0.969 -0.462,0.8 0.045,0.8 c 0.541,0 0.913,0.246 0.913,0.614 0,0.215 -0.141,0.461 -0.34,0.569 C 0.493,2.045 0.354,2.075 0.184,2.075 l -0.215,0 0,0.784 0.186,0 c 0.338,0 0.586,0.184 0.586,0.43 0,0.262 -0.309,0.461 -0.772,0.461 -0.371,0 -0.711,-0.154 -0.972,-0.43 l -0.586,0.537 c 0.431,0.447 0.97,0.676 1.603,0.676 0.881,0 1.529,-0.521 1.529,-1.228 C 1.543,3.012 1.45,2.812 1.188,2.474 1.62,2.09 1.743,1.86 1.743,1.445 1.743,0.631 0.987,0 0,0"
             style="fill:#ffffff;fill-opacity:1;fill-rule:nonzero;stroke:none"
             id="path11415" />
        </g>
        <g
           id="g11417"
           transform="translate(403.464,74.3275)">
          <path
             inkscape:connector-curvature="0"
             d="M 0,0 -1.705,-1.752 0,-1.752 0,0 z m 0.769,-2.459 0,-0.892 -0.769,0 0,0.892 -2.705,0 0,0.707 L 0,1.03 l 0.769,0 0,-2.782 0.645,0 0,-0.707 -0.645,0 z"
             style="fill:#ffffff;fill-opacity:1;fill-rule:nonzero;stroke:none"
             id="path11419" />
        </g>
        <g
           id="g11421"
           transform="translate(285.729,153.6585)">
          <path
             inkscape:connector-curvature="0"
             d="m 0,0 50.487,0 c 1.916,0 3.484,-1.567 3.484,-3.486 l 0,-85.984 c 0,-1.917 -1.568,-3.482 -3.484,-3.482 l -50.487,0 c -1.916,0 -3.482,1.565 -3.482,3.482 l 0,85.984 C -3.482,-1.567 -1.916,0 0,0 z"
             style="fill:none;stroke:#231f20;stroke-width:0.25;stroke-linecap:butt;stroke-linejoin:miter;stroke-miterlimit:2.61299992;stroke-opacity:1;stroke-dasharray:none"
             id="path11423" />
        </g>
        <g
           id="g11425"
           transform="translate(285.729,152.3925)">
          <path
             inkscape:connector-curvature="0"
             d="m 0,0 50.487,0 c 1.221,0 2.219,-0.993 2.219,-2.22 l 0,-85.984 c 0,-1.219 -0.998,-2.217 -2.219,-2.217 l -50.487,0 c -1.221,0 -2.223,0.998 -2.223,2.217 l 0,85.984 C -2.223,-0.993 -1.221,0 0,0"
             style="fill:#155196;fill-opacity:1;fill-rule:evenodd;stroke:none"
             id="path11427" />
        </g>
        <g
           id="g11429"
           transform="translate(283.095,138.1455)">
          <path
             inkscape:connector-curvature="0"
             d="M 0,0 55.756,0"
             style="fill:none;stroke:#ffffff;stroke-width:1;stroke-linecap:butt;stroke-linejoin:miter;stroke-miterlimit:4;stroke-opacity:1;stroke-dasharray:none"
             id="path11431" />
        </g>
        <g
           id="g11433"
           transform="translate(326.897,70.1465)">
          <path
             inkscape:connector-curvature="0"
             d="m 0,0 c -0.72,0 -1.439,0.246 -1.955,0.717 -0.142,0.124 -0.246,0.226 -0.451,0.472 l 0.844,0.634 c 0.41,-0.532 0.945,-0.757 1.625,-0.757 0.721,0 1.213,0.328 1.213,0.819 0,0.287 -0.184,0.614 -0.451,0.759 -0.166,0.082 -0.35,0.123 -0.576,0.123 l -0.29,0 0,1.045 0.248,0 c 0.452,0 0.782,0.245 0.782,0.573 0,0.349 -0.412,0.614 -1.03,0.614 -0.494,0 -0.945,-0.205 -1.296,-0.573 l -0.782,0.717 c 0.576,0.595 1.297,0.901 2.141,0.901 1.172,0 2.037,-0.696 2.037,-1.639 C 2.059,4.016 1.936,3.749 1.584,3.299 2.161,2.786 2.327,2.48 2.327,1.926 2.327,0.841 1.319,0 0,0"
             style="fill:#ffffff;fill-opacity:1;fill-rule:nonzero;stroke:none"
             id="path11435" />
        </g>
        <g
           id="g11437"
           transform="translate(327.173,103.2505)">
          <path
             inkscape:connector-curvature="0"
             d="M 0,0 4.383,2.963 0,5.931 C -0.192,6.062 -0.457,6.011 -0.588,5.818 -0.676,5.689 -0.66,5.556 -0.621,5.398 l 0.388,-1.287 -4.783,0 0,-2.296 4.783,0 L -0.61,0.551 C -0.66,0.375 -0.68,0.246 -0.588,0.111 -0.457,-0.08 -0.192,-0.133 0,0"
             style="fill:#ffffff;fill-opacity:1;fill-rule:evenodd;stroke:none"
             id="path11439" />
        </g>
        <path
           inkscape:connector-curvature="0"
           d="m 290.39,90.43 25.242,0 0,18.826 -25.242,0 0,-18.826 z"
           style="fill:#155196;fill-opacity:1;fill-rule:nonzero;stroke:#ffffff;stroke-width:0.5;stroke-linecap:butt;stroke-linejoin:miter;stroke-miterlimit:4;stroke-opacity:1;stroke-dasharray:none"
           id="path11441" />
        <path
           inkscape:connector-curvature="0"
           d="m 290.39,66.789 25.242,0 0,18.825 -25.242,0 0,-18.825 z"
           style="fill:#155196;fill-opacity:1;fill-rule:nonzero;stroke:#ffffff;stroke-width:0.5;stroke-linecap:butt;stroke-linejoin:miter;stroke-miterlimit:4;stroke-opacity:1;stroke-dasharray:none"
           id="path11443" />
        <g
           id="g11445"
           transform="translate(327.173,79.6095)">
          <path
             inkscape:connector-curvature="0"
             d="M 0,0 4.383,2.963 0,5.932 C -0.192,6.063 -0.457,6.012 -0.588,5.818 -0.676,5.69 -0.66,5.557 -0.621,5.399 l 0.388,-1.288 -4.783,0 0,-2.295 4.783,0 L -0.61,0.551 C -0.66,0.375 -0.68,0.246 -0.588,0.111 -0.457,-0.08 -0.192,-0.133 0,0"
             style="fill:#ffffff;fill-opacity:1;fill-rule:evenodd;stroke:none"
             id="path11447" />
        </g>
        <g
           id="g11449"
           transform="translate(329.142,101.2405)">
          <path
             inkscape:connector-curvature="0"
             d="m 0,0 -1.043,0 -5.092,-8.759 1.043,0 L 0,0 z"
             style="fill:#ffffff;fill-opacity:1;fill-rule:nonzero;stroke:none"
             id="path11451" />
        </g>
        <g
           id="g11453"
           transform="translate(324.438,96.8595)">
          <path
             inkscape:connector-curvature="0"
             d="m 0,0 0,4.381 -0.626,0 c -0.168,-0.277 -0.35,-0.4 -0.688,-0.478 l 0.016,-0.629 0.55,0 L -0.763,0 0,0 z"
             style="fill:#ffffff;fill-opacity:1;fill-rule:nonzero;stroke:none"
             id="path11455" />
        </g>
        <g
           id="g11457"
           transform="translate(330.708,92.4815)">
          <path
             inkscape:connector-curvature="0"
             d="m 0,0 0,0.783 -2.594,0 c 0.155,0.292 0.278,0.461 0.479,0.63 0.261,0.231 0.431,0.308 1.019,0.476 0.309,0.093 0.508,0.2 0.649,0.308 C -0.154,2.444 0,2.781 0,3.15 0,3.949 -0.664,4.455 -1.699,4.455 -2.408,4.455 -3.041,4.226 -3.551,3.779 L -3.01,3.181 c 0.371,0.337 0.787,0.475 1.358,0.475 0.556,0 0.865,-0.183 0.865,-0.506 0,-0.261 -0.17,-0.415 -0.664,-0.553 C -2.254,2.381 -2.809,1.982 -3.195,1.336 -3.441,0.906 -3.551,0.522 -3.551,0 L 0,0 z"
             style="fill:#ffffff;fill-opacity:1;fill-rule:nonzero;stroke:none"
             id="path11459" />
        </g>
        <g
           id="g11461"
           transform="translate(298.7,147.7345)">
          <path
             inkscape:connector-curvature="0"
             d="m 0,0 0,-1.273 2.301,0 0,-1.426 -2.301,0 0,-3.026 -1.4,0 0,7.151 5.301,0 L 3.901,0 0,0 z"
             style="fill:#ffffff;fill-opacity:1;fill-rule:nonzero;stroke:none"
             id="path11463" />
        </g>
        <g
           id="g11465"
           transform="translate(306.798,147.8365)">
          <path
             inkscape:connector-curvature="0"
             d="m 0,0 c -1.026,0 -1.574,-0.75 -1.574,-2.25 0,-1.452 0.574,-2.277 1.574,-2.277 0.974,0 1.576,0.901 1.576,2.3 C 1.576,-0.676 1,0 0,0 m 0,-5.952 c -2.151,0 -3,1.826 -3,3.702 0,2.25 1.15,3.673 3,3.673 1.724,0 2.974,-1.474 2.974,-3.673 0,-2.277 -1.173,-3.702 -2.974,-3.702"
             style="fill:#ffffff;fill-opacity:1;fill-rule:nonzero;stroke:none"
             id="path11467" />
        </g>
        <g
           id="g11469"
           transform="translate(314.198,147.8365)">
          <path
             inkscape:connector-curvature="0"
             d="m 0,0 c -1.025,0 -1.574,-0.75 -1.574,-2.25 0,-1.452 0.574,-2.277 1.574,-2.277 0.975,0 1.574,0.901 1.574,2.3 C 1.574,-0.676 1,0 0,0 m 0,-5.952 c -2.15,0 -3,1.826 -3,3.702 0,2.25 1.151,3.673 3,3.673 1.725,0 2.975,-1.474 2.975,-3.673 0,-2.277 -1.174,-3.702 -2.975,-3.702"
             style="fill:#ffffff;fill-opacity:1;fill-rule:nonzero;stroke:none"
             id="path11471" />
        </g>
        <g
           id="g11473"
           transform="translate(321.198,147.7345)">
          <path
             inkscape:connector-curvature="0"
             d="m 0,0 -0.9,0 0,-4.3 0.9,0 c 1.276,0 2.051,0.799 2.051,2.152 C 2.051,-0.799 1.276,0 0,0 m -0.074,-5.725 -2.227,0 0,7.151 2.227,0 c 2.148,0 3.523,-1.426 3.523,-3.574 0,-2.177 -1.398,-3.577 -3.523,-3.577"
             style="fill:#ffffff;fill-opacity:1;fill-rule:nonzero;stroke:none"
             id="path11475" />
        </g>
        <path
           inkscape:connector-curvature="0"
           d="m 332.763,114.072 -25.242,0 0,18.825 25.242,0 0,-18.825 z"
           style="fill:#155196;fill-opacity:1;fill-rule:nonzero;stroke:#ffffff;stroke-width:0.5;stroke-linecap:butt;stroke-linejoin:miter;stroke-miterlimit:4;stroke-opacity:1;stroke-dasharray:none"
           id="path11477" />
        <g
           id="g11479"
           transform="translate(295.979,126.8925)">
          <path
             inkscape:connector-curvature="0"
             d="M 0,0 -4.382,2.963 0,5.932 C 0.192,6.063 0.458,6.012 0.588,5.819 0.676,5.69 0.661,5.557 0.622,5.399 l -0.389,-1.287 4.783,0 0,-2.296 -4.783,0 L 0.61,0.551 C 0.661,0.375 0.68,0.246 0.588,0.112 0.458,-0.08 0.192,-0.133 0,0"
             style="fill:#ffffff;fill-opacity:1;fill-rule:evenodd;stroke:none"
             id="path11481" />
        </g>
        <g
           id="g11483"
           transform="translate(289.185,117.5325)">
          <path
             inkscape:connector-curvature="0"
             d="M 0,0 C 0,0.696 0.144,1.209 0.472,1.782 0.988,2.643 1.728,3.176 2.798,3.463 3.457,3.646 3.683,3.852 3.683,4.2 3.683,4.631 3.271,4.876 2.531,4.876 1.769,4.876 1.214,4.691 0.72,4.241 L 0,5.04 C 0.679,5.635 1.523,5.941 2.468,5.941 3.847,5.941 4.732,5.266 4.732,4.2 4.732,3.709 4.527,3.258 4.136,2.93 3.951,2.786 3.683,2.643 3.271,2.519 2.49,2.295 2.263,2.192 1.914,1.885 1.646,1.66 1.482,1.435 1.275,1.045 l 3.457,0 L 4.732,0 0,0 z"
             style="fill:#ffffff;fill-opacity:1;fill-rule:nonzero;stroke:none"
             id="path11485" />
        </g>
        <g
           id="g11487"
           transform="translate(297.257,116.1245)">
          <path
             inkscape:connector-curvature="0"
             d="m 0,0 -1.043,0 5.092,8.759 1.043,0 L 0,0 z"
             style="fill:#ffffff;fill-opacity:1;fill-rule:nonzero;stroke:none"
             id="path11489" />
        </g>
        <g
           id="g11491"
           transform="translate(296.882,120.5025)">
          <path
             inkscape:connector-curvature="0"
             d="m 0,0 0.015,3.273 -0.55,0 -0.014,0.63 c 0.336,0.077 0.518,0.2 0.688,0.478 l 0.625,0 L 0.764,0 0,0 z"
             style="fill:#ffffff;fill-opacity:1;fill-rule:nonzero;stroke:none"
             id="path11493" />
        </g>
        <g
           id="g11495"
           transform="translate(301.991,119.4745)">
          <path
             inkscape:connector-curvature="0"
             d="M 0,0 -1.705,-1.752 0,-1.752 0,0 z m 0.77,-2.459 0,-0.891 -0.77,0 0,0.891 -2.705,0 0,0.707 2.705,2.783 0.77,0 0,-2.783 0.644,0 0,-0.707 -0.644,0 z"
             style="fill:#ffffff;fill-opacity:1;fill-rule:nonzero;stroke:none"
             id="path11497" />
        </g>
      </g>
    </g>
  </g>
</svg>
