<?xml version="1.0" encoding="UTF-8" standalone="no"?>
<!-- Created with Inkscape (http://www.inkscape.org/) -->

<svg
   xmlns:dc="http://purl.org/dc/elements/1.1/"
   xmlns:cc="http://creativecommons.org/ns#"
   xmlns:rdf="http://www.w3.org/1999/02/22-rdf-syntax-ns#"
   xmlns:svg="http://www.w3.org/2000/svg"
   xmlns="http://www.w3.org/2000/svg"
   xmlns:sodipodi="http://sodipodi.sourceforge.net/DTD/sodipodi-0.dtd"
   xmlns:inkscape="http://www.inkscape.org/namespaces/inkscape"
   width="167.65875"
   height="104.44"
   id="svg11953"
   version="1.1"
   inkscape:version="0.48.3.1 r9886"
   sodipodi:docname="New document 51">
  <defs
     id="defs11955">
    <clipPath
       clipPathUnits="userSpaceOnUse"
       id="clipPath10583">
      <path
         inkscape:connector-curvature="0"
         d="m 27,44.082 513.086,0 0,693.845 -513.086,0 0,-693.845 z"
         id="path10585" />
    </clipPath>
  </defs>
  <sodipodi:namedview
     id="base"
     pagecolor="#ffffff"
     bordercolor="#666666"
     borderopacity="1.0"
     inkscape:pageopacity="0.0"
     inkscape:pageshadow="2"
     inkscape:zoom="0.35"
     inkscape:cx="83.829375"
     inkscape:cy="52.219992"
     inkscape:document-units="px"
     inkscape:current-layer="layer1"
     showgrid="false"
     fit-margin-top="0"
     fit-margin-left="0"
     fit-margin-right="0"
     fit-margin-bottom="0"
     inkscape:window-width="451"
     inkscape:window-height="398"
     inkscape:window-x="100"
     inkscape:window-y="100"
     inkscape:window-maximized="0" />
  <metadata
     id="metadata11958">
    <rdf:RDF>
      <cc:Work
         rdf:about="">
        <dc:format>image/svg+xml</dc:format>
        <dc:type
           rdf:resource="http://purl.org/dc/dcmitype/StillImage" />
        <dc:title></dc:title>
      </cc:Work>
    </rdf:RDF>
  </metadata>
  <g
     inkscape:label="Layer 1"
     inkscape:groupmode="layer"
     id="layer1"
     transform="translate(-291.17063,-480.14218)">
    <g
       transform="matrix(1.25,0,0,-1.25,250.03575,1308.9303)"
       id="g10579">
      <g
         id="g10581"
         clip-path="url(#clipPath10583)">
        <g
           id="g10587"
           transform="translate(36.0469,663.0305)">
          <path
             inkscape:connector-curvature="0"
             d="m 0,0 127.854,0 c 1.723,0 3.134,-1.406 3.134,-3.14 l 0,-77.278 c 0,-1.724 -1.411,-3.134 -3.134,-3.134 L 0,-83.552 c -1.724,0 -3.139,1.41 -3.139,3.134 l 0,77.278 C -3.139,-1.406 -1.724,0 0,0"
             style="fill:#155196;fill-opacity:1;fill-rule:evenodd;stroke:none"
             id="path10589" />
        </g>
        <g
           id="g10591"
           transform="translate(57.4468,649.6135)">
          <path
             inkscape:connector-curvature="0"
             d="m 0,0 c -2.405,0 -3.39,2.144 -3.39,4.288 0,2.144 0.985,4.259 3.39,4.259 1.419,0 2.462,-0.811 2.984,-2.057 L 1.449,5.911 C 1.188,6.548 0.666,6.896 0,6.896 -1.42,6.896 -1.71,5.447 -1.71,4.288 -1.71,3.1 -1.42,1.651 0,1.651 c 0.637,0 1.159,0.348 1.449,0.986 l -0.986,0 0,1.651 2.84,0 C 3.187,2.202 2.549,0 0,0"
             style="fill:#ffffff;fill-opacity:1;fill-rule:nonzero;stroke:none"
             id="path10593" />
        </g>
        <g
           id="g10595"
           transform="translate(70.252,649.7585)">
          <path
             inkscape:connector-curvature="0"
             d="m 0,0 -3.332,8.286 -1.709,0 L -8.373,0 l 1.767,0 0.783,1.941 3.274,0 L -1.767,0 0,0 z m -3.216,3.593 -1.941,0 1.014,2.318 0.927,-2.318 z"
             style="fill:#ffffff;fill-opacity:1;fill-rule:nonzero;stroke:none"
             id="path10597" />
        </g>
        <g
           id="g10599"
           transform="translate(77.0024,650.0774)">
          <path
             inkscape:connector-curvature="0"
             d="m 0,0 c -0.492,-0.29 -1.362,-0.464 -2.144,-0.464 -0.927,0 -1.825,0.261 -2.549,0.754 -0.261,0.145 -0.435,0.289 -0.812,0.637 l 1.159,1.159 c 0.696,-0.638 1.333,-0.898 2.289,-0.898 0.956,0 1.622,0.318 1.622,0.898 0,0.232 -0.144,0.55 -0.376,0.695 -0.29,0.174 -0.58,0.261 -1.651,0.464 -0.869,0.203 -1.391,0.377 -1.739,0.608 -0.55,0.377 -0.898,1.101 -0.898,1.796 0,0.841 0.435,1.594 1.159,2.029 0.464,0.289 1.014,0.405 1.738,0.405 0.927,0 1.797,-0.203 2.492,-0.637 C 0.464,7.33 0.551,7.272 0.812,7.069 L -0.203,5.766 c -0.666,0.492 -1.275,0.666 -2.057,0.666 -0.753,0 -1.216,-0.261 -1.216,-0.783 0,-0.202 0.115,-0.434 0.318,-0.521 0.145,-0.087 0.319,-0.116 0.493,-0.174 l 0.26,-0.029 0.29,-0.058 0.377,-0.058 C 0.174,4.461 1.188,3.564 1.188,2.115 1.188,1.246 0.725,0.405 0,0"
             style="fill:#ffffff;fill-opacity:1;fill-rule:nonzero;stroke:none"
             id="path10601" />
        </g>
        <path
           inkscape:connector-curvature="0"
           d="m 80.131,653.554 11.589,0 0,-1.68 -11.589,0 0,1.68 z"
           style="fill:#ffffff;fill-opacity:1;fill-rule:nonzero;stroke:none"
           id="path10603" />
        <g
           id="g10605"
           transform="translate(93.9219,649.7585)">
          <path
             inkscape:connector-curvature="0"
             d="m 0,0 0,8.286 6.026,0 0,-1.651 -4.404,0 0,-1.362 2.492,0 0,-1.651 -2.492,0 0,-1.971 4.52,0 L 6.142,0 0,0 z"
             style="fill:#ffffff;fill-opacity:1;fill-rule:nonzero;stroke:none"
             id="path10607" />
        </g>
        <g
           id="g10609"
           transform="translate(106.4956,649.7297)">
          <path
             inkscape:connector-curvature="0"
             d="m 0,0 -1.651,2.781 -1.71,-2.752 -1.912,0 2.608,4.346 -2.376,3.911 1.941,0 1.449,-2.347 1.39,2.347 1.971,0 L -0.637,4.346 1.941,0.029 0,0 z"
             style="fill:#ffffff;fill-opacity:1;fill-rule:nonzero;stroke:none"
             id="path10611" />
        </g>
        <path
           inkscape:connector-curvature="0"
           d="m 110.175,658.045 1.651,0 0,-8.286 -1.651,0 0,8.286 z"
           style="fill:#ffffff;fill-opacity:1;fill-rule:nonzero;stroke:none"
           id="path10613" />
        <g
           id="g10615"
           transform="translate(117.186,656.3933)">
          <path
             inkscape:connector-curvature="0"
             d="m 0,0 0,-6.635 -1.594,0 0,6.635 -2.288,0 0,1.651 6.142,0 L 2.26,0 0,0 z"
             style="fill:#ffffff;fill-opacity:1;fill-rule:nonzero;stroke:none"
             id="path10617" />
        </g>
        <g
           id="g10619"
           transform="translate(134.829,651.5837)">
          <path
             inkscape:connector-curvature="0"
             d="m 0,0 0,1.536 -1.246,0 0,4.925 -1.622,0 -4.838,-4.925 0,-1.536 4.838,0 0,-1.825 1.622,0 0,1.825 L 0,0 z m -2.868,1.536 -2.694,0 2.694,2.694 0,-2.694 z"
             style="fill:#ffffff;fill-opacity:1;fill-rule:nonzero;stroke:none"
             id="path10621" />
        </g>
        <g
           id="g10623"
           transform="translate(143.926,651.5837)">
          <path
             inkscape:connector-curvature="0"
             d="m 0,0 0,1.536 -1.245,0 0,4.925 -1.623,0 -4.838,-4.925 0,-1.536 4.838,0 0,-1.825 1.623,0 0,1.825 L 0,0 z m -2.868,1.536 -2.694,0 2.694,2.694 0,-2.694 z"
             style="fill:#ffffff;fill-opacity:1;fill-rule:nonzero;stroke:none"
             id="path10625" />
        </g>
        <path
           inkscape:connector-curvature="0"
           d="m 74.984,618.03 -33.047,0 0,24.649 33.047,0 0,-24.649 z"
           style="fill:#155196;fill-opacity:1;fill-rule:nonzero;stroke:#ffffff;stroke-width:0.5;stroke-linecap:butt;stroke-linejoin:miter;stroke-miterlimit:4;stroke-opacity:1;stroke-dasharray:none"
           id="path10627" />
        <path
           inkscape:connector-curvature="0"
           d="m 74.984,587.962 -33.047,0 0,24.65 33.047,0 0,-24.65 z"
           style="fill:#155196;fill-opacity:1;fill-rule:nonzero;stroke:#ffffff;stroke-width:0.5;stroke-linecap:butt;stroke-linejoin:miter;stroke-miterlimit:4;stroke-opacity:1;stroke-dasharray:none"
           id="path10629" />
        <path
           inkscape:connector-curvature="0"
           d="m 116.97,618.03 -33.047,0 0,24.649 33.047,0 0,-24.649 z"
           style="fill:#155196;fill-opacity:1;fill-rule:nonzero;stroke:#ffffff;stroke-width:0.5;stroke-linecap:butt;stroke-linejoin:miter;stroke-miterlimit:4;stroke-opacity:1;stroke-dasharray:none"
           id="path10631" />
        <path
           inkscape:connector-curvature="0"
           d="m 116.97,587.962 -33.047,0 0,24.65 33.047,0 0,-24.65 z"
           style="fill:#155196;fill-opacity:1;fill-rule:nonzero;stroke:#ffffff;stroke-width:0.5;stroke-linecap:butt;stroke-linejoin:miter;stroke-miterlimit:4;stroke-opacity:1;stroke-dasharray:none"
           id="path10633" />
        <path
           inkscape:connector-curvature="0"
           d="m 158.956,618.03 -33.047,0 0,24.649 33.047,0 0,-24.649 z"
           style="fill:#155196;fill-opacity:1;fill-rule:nonzero;stroke:#ffffff;stroke-width:0.5;stroke-linecap:butt;stroke-linejoin:miter;stroke-miterlimit:4;stroke-opacity:1;stroke-dasharray:none"
           id="path10635" />
        <path
           inkscape:connector-curvature="0"
           d="m 158.956,587.962 -33.047,0 0,24.65 33.047,0 0,-24.65 z"
           style="fill:#155196;fill-opacity:1;fill-rule:nonzero;stroke:#ffffff;stroke-width:0.5;stroke-linecap:butt;stroke-linejoin:miter;stroke-miterlimit:4;stroke-opacity:1;stroke-dasharray:none"
           id="path10637" />
      </g>
    </g>
  </g>
</svg>
