<?xml version="1.0" encoding="UTF-8" standalone="no"?>
<!-- Created with Inkscape (http://www.inkscape.org/) -->

<svg
   xmlns:dc="http://purl.org/dc/elements/1.1/"
   xmlns:cc="http://creativecommons.org/ns#"
   xmlns:rdf="http://www.w3.org/1999/02/22-rdf-syntax-ns#"
   xmlns:svg="http://www.w3.org/2000/svg"
   xmlns="http://www.w3.org/2000/svg"
   xmlns:sodipodi="http://sodipodi.sourceforge.net/DTD/sodipodi-0.dtd"
   xmlns:inkscape="http://www.inkscape.org/namespaces/inkscape"
   width="355.8775"
   height="223.145"
   id="svg12935"
   version="1.1"
   inkscape:version="0.48.3.1 r9886"
   sodipodi:docname="New document 59">
  <defs
     id="defs12937">
    <clipPath
       clipPathUnits="userSpaceOnUse"
       id="clipPath11507">
      <path
         inkscape:connector-curvature="0"
         d="m 27,44.082 513.086,0 0,693.845 -513.086,0 0,-693.845 z"
         id="path11509" />
    </clipPath>
  </defs>
  <sodipodi:namedview
     id="base"
     pagecolor="#ffffff"
     bordercolor="#666666"
     borderopacity="1.0"
     inkscape:pageopacity="0.0"
     inkscape:pageshadow="2"
     inkscape:zoom="0.35"
     inkscape:cx="177.93875"
     inkscape:cy="111.57254"
     inkscape:document-units="px"
     inkscape:current-layer="layer1"
     showgrid="false"
     fit-margin-top="0"
     fit-margin-left="0"
     fit-margin-right="0"
     fit-margin-bottom="0"
     inkscape:window-width="451"
     inkscape:window-height="398"
     inkscape:window-x="125"
     inkscape:window-y="125"
     inkscape:window-maximized="0" />
  <metadata
     id="metadata12940">
    <rdf:RDF>
      <cc:Work
         rdf:about="">
        <dc:format>image/svg+xml</dc:format>
        <dc:type
           rdf:resource="http://purl.org/dc/dcmitype/StillImage" />
        <dc:title></dc:title>
      </cc:Work>
    </rdf:RDF>
  </metadata>
  <g
     inkscape:label="Layer 1"
     inkscape:groupmode="layer"
     id="layer1"
     transform="translate(-197.06125,-420.78972)">
    <g
       transform="matrix(1.25,0,0,-1.25,155.655,1095.6616)"
       id="g11503">
      <g
         id="g11505"
         clip-path="url(#clipPath11507)">
        <g
           id="g11511"
           transform="translate(155.328,448.8065)">
          <path
             inkscape:connector-curvature="0"
             d="m 0,0 0,11.973 c 0,1.657 1.343,3 3,3 l 154.153,0 c 1.658,0 3,-1.343 3,-3 l 0,-11.958"
             style="fill:#155196;fill-opacity:1;fill-rule:nonzero;stroke:none"
             id="path11513" />
        </g>
        <g
           id="g11515"
           transform="translate(207.594,366.2635)">
          <path
             inkscape:connector-curvature="0"
             d="m 0,0 0,-3 -49.261,0 c -1.657,0 -3,1.343 -3,3 l 0,78.658 0,3 52.261,0 0,-3 L 0,0 z"
             style="fill:#155196;fill-opacity:1;fill-rule:nonzero;stroke:none"
             id="path11517" />
        </g>
        <g
           id="g11519"
           transform="translate(261.888,366.2635)">
          <path
             inkscape:connector-curvature="0"
             d="m 0,0 0,-3 -52.261,0 0,3 0,78.658 0,3 52.261,0 0,-3 L 0,0 z"
             style="fill:#155196;fill-opacity:1;fill-rule:nonzero;stroke:none"
             id="path11521" />
        </g>
        <g
           id="g11523"
           transform="translate(316.05,366.2635)">
          <path
             inkscape:connector-curvature="0"
             d="m 0,0 c 0,-1.657 -1.343,-3 -3,-3 l -49.261,0 0,3 0,78.658 0,3 52.261,0 0,-3 L 0,0 z"
             style="fill:#155196;fill-opacity:1;fill-rule:nonzero;stroke:none"
             id="path11525" />
        </g>
        <g
           id="g11527"
           transform="translate(317.702,367.5065)">
          <path
             inkscape:connector-curvature="0"
             d="m 0,0 c 0,-3.315 -2.686,-6 -6,-6 l -152.022,0 c -3.314,0 -6,2.685 -6,6 l 0,92.032 c 0,3.313 2.686,6 6,6 l 152.022,0 c 3.314,0 6,-2.687 6,-6 L 0,0 z"
             style="fill:none;stroke:#231f20;stroke-width:0.25;stroke-linecap:butt;stroke-linejoin:miter;stroke-miterlimit:2.61299992;stroke-opacity:1;stroke-dasharray:none"
             id="path11529" />
        </g>
        <g
           id="g11531"
           transform="translate(213.235,452.6195)">
          <path
             inkscape:connector-curvature="0"
             d="m 0,0 0,7.142 5.196,0 0,-1.423 -3.797,0 0,-1.174 2.149,0 0,-1.424 -2.149,0 0,-1.697 3.896,0 L 5.295,0 0,0 z"
             style="fill:#ffffff;fill-opacity:1;fill-rule:nonzero;stroke:none"
             id="path11533" />
        </g>
        <g
           id="g11535"
           transform="translate(224.074,452.5935)">
          <path
             inkscape:connector-curvature="0"
             d="m 0,0 -1.424,2.399 -1.473,-2.373 -1.648,0 2.247,3.746 -2.047,3.371 1.672,0 1.249,-2.023 1.2,2.023 1.698,0 L -0.549,3.747 1.673,0.026 0,0 z"
             style="fill:#ffffff;fill-opacity:1;fill-rule:nonzero;stroke:none"
             id="path11537" />
        </g>
        <path
           inkscape:connector-curvature="0"
           d="m 227.246,459.762 1.422,0 0,-7.142 -1.422,0 0,7.142 z"
           style="fill:#ffffff;fill-opacity:1;fill-rule:nonzero;stroke:none"
           id="path11539" />
        <g
           id="g11541"
           transform="translate(233.288,458.3385)">
          <path
             inkscape:connector-curvature="0"
             d="m 0,0 0,-5.719 -1.374,0 0,5.719 -1.972,0 0,1.423 5.292,0 L 1.946,0 0,0 z"
             style="fill:#ffffff;fill-opacity:1;fill-rule:nonzero;stroke:none"
             id="path11543" />
        </g>
        <g
           id="g11545"
           transform="translate(241.649,452.7175)">
          <path
             inkscape:connector-curvature="0"
             d="m 0,0 0,4.849 -0.7,0 0,1.449 c 0.527,0.25 0.575,0.401 0.799,0.852 l 1.353,0 L 1.452,0 0,0 z"
             style="fill:#ffffff;fill-opacity:1;fill-rule:nonzero;stroke:none"
             id="path11547" />
        </g>
        <g
           id="g11549"
           transform="translate(249.726,453.1915)">
          <path
             inkscape:connector-curvature="0"
             d="m 0,0 c -0.427,-0.375 -1.152,-0.599 -1.952,-0.599 -1.048,0 -2.048,0.25 -2.923,0.75 l 0.772,1.224 C -3.375,0.975 -2.75,0.824 -1.952,0.824 -1,0.824 -0.5,1.176 -0.5,1.926 -0.5,2.625 -1,3 -1.978,3 -2.375,3 -2.652,2.949 -3.277,2.725 l -1.451,0.576 0.301,3.375 4.699,0 0,-1.426 L -3,5.225 -3.125,4.301 c 0.375,0.074 0.772,0.125 1.173,0.125 0.675,0 1.175,-0.125 1.599,-0.352 C 0.423,3.625 0.897,2.801 0.897,1.901 0.897,1.199 0.548,0.449 0,0"
             style="fill:#ffffff;fill-opacity:1;fill-rule:nonzero;stroke:none"
             id="path11551" />
        </g>
        <g
           id="g11553"
           transform="translate(255.101,458.5415)">
          <path
             inkscape:connector-curvature="0"
             d="m 0,0 c -1.027,0 -1.577,-0.75 -1.577,-2.25 0,-1.449 0.577,-2.276 1.577,-2.276 0.973,0 1.573,0.901 1.573,2.301 C 1.573,-0.674 1,0 0,0 m 0,-5.949 c -2.152,0 -3,1.824 -3,3.699 0,2.25 1.147,3.676 3,3.676 1.723,0 2.973,-1.475 2.973,-3.676 0,-2.276 -1.175,-3.699 -2.973,-3.699"
             style="fill:#ffffff;fill-opacity:1;fill-rule:nonzero;stroke:none"
             id="path11555" />
        </g>
        <path
           inkscape:connector-curvature="0"
           d="m 252.406,404.903 -33.046,0 0,24.65 33.046,0 0,-24.65 z"
           style="fill:#155196;fill-opacity:1;fill-rule:nonzero;stroke:#ffffff;stroke-width:0.5;stroke-linecap:butt;stroke-linejoin:miter;stroke-miterlimit:4;stroke-opacity:1;stroke-dasharray:none"
           id="path11557" />
        <path
           inkscape:connector-curvature="0"
           d="m 252.406,371.917 -33.046,0 0,24.651 33.046,0 0,-24.651 z"
           style="fill:#155196;fill-opacity:1;fill-rule:nonzero;stroke:#ffffff;stroke-width:0.5;stroke-linecap:butt;stroke-linejoin:miter;stroke-miterlimit:4;stroke-opacity:1;stroke-dasharray:none"
           id="path11559" />
        <path
           inkscape:connector-curvature="0"
           d="m 198.168,404.903 -33.046,0 0,24.65 33.046,0 0,-24.65 z"
           style="fill:#155196;fill-opacity:1;fill-rule:nonzero;stroke:#ffffff;stroke-width:0.5;stroke-linecap:butt;stroke-linejoin:miter;stroke-miterlimit:4;stroke-opacity:1;stroke-dasharray:none"
           id="path11561" />
        <path
           inkscape:connector-curvature="0"
           d="m 198.168,371.917 -33.046,0 0,24.651 33.046,0 0,-24.651 z"
           style="fill:#155196;fill-opacity:1;fill-rule:nonzero;stroke:#ffffff;stroke-width:0.5;stroke-linecap:butt;stroke-linejoin:miter;stroke-miterlimit:4;stroke-opacity:1;stroke-dasharray:none"
           id="path11563" />
        <path
           inkscape:connector-curvature="0"
           d="m 306.482,404.903 -33.046,0 0,24.65 33.046,0 0,-24.65 z"
           style="fill:#155196;fill-opacity:1;fill-rule:nonzero;stroke:#ffffff;stroke-width:0.5;stroke-linecap:butt;stroke-linejoin:miter;stroke-miterlimit:4;stroke-opacity:1;stroke-dasharray:none"
           id="path11565" />
        <path
           inkscape:connector-curvature="0"
           d="m 306.482,371.917 -33.046,0 0,24.651 33.046,0 0,-24.651 z"
           style="fill:#155196;fill-opacity:1;fill-rule:nonzero;stroke:#ffffff;stroke-width:0.5;stroke-linecap:butt;stroke-linejoin:miter;stroke-miterlimit:4;stroke-opacity:1;stroke-dasharray:none"
           id="path11567" />
        <g
           id="g11569"
           transform="translate(174.186,435.2385)">
          <path
             inkscape:connector-curvature="0"
             d="m 0,0 c -2.073,0 -2.922,1.848 -2.922,3.697 0,1.848 0.849,3.67 2.922,3.67 1.224,0 2.124,-0.699 2.573,-1.773 L 1.25,5.096 C 1.025,5.645 0.574,5.943 0,5.943 c -1.223,0 -1.473,-1.248 -1.473,-2.246 0,-1.025 0.25,-2.273 1.473,-2.273 0.55,0 1,0.299 1.25,0.849 l -0.85,0 0,1.424 2.448,0 C 2.749,1.898 2.198,0 0,0"
             style="fill:#ffffff;fill-opacity:1;fill-rule:nonzero;stroke:none"
             id="path11571" />
        </g>
        <g
           id="g11573"
           transform="translate(185.226,435.3635)">
          <path
             inkscape:connector-curvature="0"
             d="m 0,0 -2.874,7.143 -1.472,0 L -7.22,0 l 1.524,0 0.675,1.674 2.82,0 L -1.525,0 0,0 z m -2.775,3.098 -1.671,0 0.872,1.996 0.799,-1.996 z"
             style="fill:#ffffff;fill-opacity:1;fill-rule:nonzero;stroke:none"
             id="path11575" />
        </g>
        <g
           id="g11577"
           transform="translate(191.043,435.6385)">
          <path
             inkscape:connector-curvature="0"
             d="m 0,0 c -0.426,-0.25 -1.174,-0.4 -1.85,-0.4 -0.798,0 -1.571,0.225 -2.196,0.65 -0.226,0.125 -0.375,0.248 -0.7,0.549 l 1,0.998 c 0.599,-0.549 1.149,-0.773 1.973,-0.773 0.824,0 1.398,0.275 1.398,0.773 0,0.201 -0.125,0.475 -0.324,0.6 -0.25,0.15 -0.5,0.224 -1.424,0.4 -0.75,0.174 -1.198,0.324 -1.498,0.524 -0.475,0.326 -0.776,0.949 -0.776,1.549 0,0.724 0.375,1.373 1,1.748 0.399,0.25 0.874,0.349 1.499,0.349 0.798,0 1.548,-0.174 2.147,-0.549 0.15,-0.099 0.224,-0.15 0.45,-0.324 L -0.176,4.969 c -0.574,0.426 -1.099,0.574 -1.773,0.574 -0.648,0 -1.049,-0.224 -1.049,-0.673 0,-0.174 0.1,-0.375 0.276,-0.45 0.125,-0.074 0.276,-0.099 0.423,-0.15 L -2.074,4.245 -1.824,4.196 -1.5,4.145 C 0.149,3.846 1.024,3.071 1.024,1.823 1.024,1.075 0.624,0.35 0,0"
             style="fill:#ffffff;fill-opacity:1;fill-rule:nonzero;stroke:none"
             id="path11579" />
        </g>
        <g
           id="g11581"
           transform="translate(267.384,435.3635)">
          <path
             inkscape:connector-curvature="0"
             d="m 0,0 0,7.143 1.398,0 0,-5.793 3.898,0 L 5.296,0 0,0 z"
             style="fill:#ffffff;fill-opacity:1;fill-rule:nonzero;stroke:none"
             id="path11583" />
        </g>
        <g
           id="g11585"
           transform="translate(279.47,438.9355)">
          <path
             inkscape:connector-curvature="0"
             d="m 0,0 c 0,2.198 -1.248,3.67 -2.97,3.67 -1.849,0 -2.999,-1.424 -2.999,-3.67 0,-1.873 0.85,-3.697 2.999,-3.697 C -1.174,-3.697 0,-2.273 0,0 m -1.399,0.024 c 0,-1.399 -0.599,-2.297 -1.571,-2.297 -1,0 -1.574,0.824 -1.574,2.273 0,1.498 0.55,2.246 1.574,2.246 0.997,0 1.571,-0.673 1.571,-2.222"
             style="fill:#ffffff;fill-opacity:1;fill-rule:nonzero;stroke:none"
             id="path11587" />
        </g>
        <g
           id="g11589"
           transform="translate(286.938,438.9355)">
          <path
             inkscape:connector-curvature="0"
             d="m 0,0 c 0,2.147 -1.375,3.571 -3.523,3.571 l -2.223,0 0,-7.143 2.223,0 C -1.4,-3.572 0,-2.174 0,0 m -1.4,0 c 0,-1.349 -0.773,-2.148 -2.046,-2.148 l -0.9,0 0,4.295 0.9,0 C -2.173,2.147 -1.4,1.348 -1.4,0"
             style="fill:#ffffff;fill-opacity:1;fill-rule:nonzero;stroke:none"
             id="path11591" />
        </g>
        <g
           id="g11593"
           transform="translate(291.282,435.2385)">
          <path
             inkscape:connector-curvature="0"
             d="m 0,0 c -2.072,0 -2.922,1.848 -2.922,3.697 0,1.848 0.85,3.67 2.922,3.67 1.223,0 2.123,-0.699 2.572,-1.773 L 1.248,5.096 C 1.024,5.645 0.574,5.943 0,5.943 c -1.223,0 -1.473,-1.248 -1.473,-2.246 0,-1.025 0.25,-2.273 1.473,-2.273 0.549,0 0.998,0.299 1.248,0.849 l -0.849,0 0,1.424 2.447,0 C 2.747,1.898 2.197,0 0,0"
             style="fill:#ffffff;fill-opacity:1;fill-rule:nonzero;stroke:none"
             id="path11595" />
        </g>
        <path
           inkscape:connector-curvature="0"
           d="m 295.828,442.507 1.423,0 0,-7.143 -1.423,0 0,7.143 z"
           style="fill:#ffffff;fill-opacity:1;fill-rule:nonzero;stroke:none"
           id="path11597" />
        <g
           id="g11599"
           transform="translate(303.769,435.3635)">
          <path
             inkscape:connector-curvature="0"
             d="m 0,0 -3.123,4.57 0,-4.57 -1.399,0 0,7.143 1.399,0 2.947,-4.372 0,4.372 1.399,0 L 1.223,0 0,0 z"
             style="fill:#ffffff;fill-opacity:1;fill-rule:nonzero;stroke:none"
             id="path11601" />
        </g>
        <g
           id="g11603"
           transform="translate(309.61,435.2385)">
          <path
             inkscape:connector-curvature="0"
             d="m 0,0 c -2.072,0 -2.922,1.848 -2.922,3.697 0,1.848 0.85,3.67 2.922,3.67 1.225,0 2.123,-0.699 2.574,-1.773 L 1.25,5.096 C 1.026,5.645 0.575,5.943 0,5.943 c -1.222,0 -1.472,-1.248 -1.472,-2.246 0,-1.025 0.25,-2.273 1.472,-2.273 0.552,0 1,0.299 1.25,0.849 l -0.849,0 0,1.424 2.448,0 C 2.748,1.898 2.2,0 0,0"
             style="fill:#ffffff;fill-opacity:1;fill-rule:nonzero;stroke:none"
             id="path11605" />
        </g>
        <g
           id="g11607"
           transform="translate(223.482,441.0765)">
          <path
             inkscape:connector-curvature="0"
             d="m 0,0 0,-1.274 2.301,0 0,-1.425 -2.301,0 0,-3.026 -1.401,0 0,7.151 5.302,0 L 3.901,0 0,0 z"
             style="fill:#ffffff;fill-opacity:1;fill-rule:nonzero;stroke:none"
             id="path11609" />
        </g>
        <g
           id="g11611"
           transform="translate(231.58,441.1775)">
          <path
             inkscape:connector-curvature="0"
             d="m 0,0 c -1.025,0 -1.574,-0.75 -1.574,-2.25 0,-1.451 0.574,-2.275 1.574,-2.275 0.975,0 1.576,0.9 1.576,2.299 C 1.576,-0.675 1,0 0,0 m 0,-5.951 c -2.15,0 -3,1.826 -3,3.701 0,2.25 1.15,3.674 3,3.674 1.725,0 2.975,-1.474 2.975,-3.674 0,-2.275 -1.174,-3.701 -2.975,-3.701"
             style="fill:#ffffff;fill-opacity:1;fill-rule:nonzero;stroke:none"
             id="path11613" />
        </g>
        <g
           id="g11615"
           transform="translate(238.98,441.1775)">
          <path
             inkscape:connector-curvature="0"
             d="m 0,0 c -1.025,0 -1.575,-0.75 -1.575,-2.25 0,-1.451 0.575,-2.275 1.575,-2.275 0.975,0 1.575,0.9 1.575,2.299 C 1.575,-0.675 1,0 0,0 m 0,-5.951 c -2.15,0 -3,1.826 -3,3.701 0,2.25 1.15,3.674 3,3.674 1.725,0 2.975,-1.474 2.975,-3.674 C 2.975,-4.525 1.8,-5.951 0,-5.951"
             style="fill:#ffffff;fill-opacity:1;fill-rule:nonzero;stroke:none"
             id="path11617" />
        </g>
        <g
           id="g11619"
           transform="translate(245.98,441.0765)">
          <path
             inkscape:connector-curvature="0"
             d="m 0,0 -0.9,0 0,-4.299 0.9,0 c 1.276,0 2.05,0.799 2.05,2.15 C 2.05,-0.799 1.276,0 0,0 m -0.075,-5.725 -2.225,0 0,7.151 2.225,0 c 2.15,0 3.525,-1.426 3.525,-3.575 0,-2.175 -1.4,-3.576 -3.525,-3.576"
             style="fill:#ffffff;fill-opacity:1;fill-rule:nonzero;stroke:none"
             id="path11621" />
        </g>
        <g
           id="g11623"
           transform="translate(316.437,448.8065)">
          <path
             inkscape:connector-curvature="0"
             d="M 0,0 -161.783,0"
             style="fill:none;stroke:#ffffff;stroke-width:1.64999998;stroke-linecap:butt;stroke-linejoin:miter;stroke-miterlimit:4;stroke-opacity:1;stroke-dasharray:none"
             id="path11625" />
        </g>
        <g
           id="g11627"
           transform="translate(131.301,367.6975)">
          <path
             inkscape:connector-curvature="0"
             d="m 0,0 c 0,-2.209 -1.791,-4 -4,-4 l -90.176,0 c -2.209,0 -4,1.791 -4,4 l 0,44.476 0,4 98.176,0 0,-4 L 0,0 z"
             style="fill:#155196;fill-opacity:1;fill-rule:evenodd;stroke:none"
             id="path11629" />
        </g>
        <g
           id="g11631"
           transform="translate(131.301,476.0775)">
          <path
             inkscape:connector-curvature="0"
             d="m 0,0 0,-4 -98.176,0 0,4 0,44.477 0,4 98.176,0 0,-4 L 0,0 z"
             style="fill:#155196;fill-opacity:1;fill-rule:evenodd;stroke:none"
             id="path11633" />
        </g>
        <g
           id="g11635"
           transform="translate(33.125,525.5545)">
          <path
             inkscape:connector-curvature="0"
             d="m 0,0 0,10.343 c 0,2.209 1.791,4 4,4 l 90.176,0 c 2.209,0 4,-1.791 4,-4 L 98.176,0"
             style="fill:#155196;fill-opacity:1;fill-rule:evenodd;stroke:none"
             id="path11637" />
        </g>
        <g
           id="g11639"
           transform="translate(131.301,422.0095)">
          <path
             inkscape:connector-curvature="0"
             d="m 0,0 0,-4 -98.176,0 0,4 0,44.476 0,4 98.176,0 0,-4 L 0,0 z"
             style="fill:#155196;fill-opacity:1;fill-rule:evenodd;stroke:none"
             id="path11641" />
        </g>
        <path
           inkscape:connector-curvature="0"
           d="m 77.744,479.541 -33.047,0 0,24.651 33.047,0 0,-24.651 z"
           style="fill:#155196;fill-opacity:1;fill-rule:nonzero;stroke:#ffffff;stroke-width:0.5;stroke-linecap:butt;stroke-linejoin:miter;stroke-miterlimit:4;stroke-opacity:1;stroke-dasharray:none"
           id="path11643" />
        <path
           inkscape:connector-curvature="0"
           d="m 119.73,479.541 -33.047,0 0,24.651 33.047,0 0,-24.651 z"
           style="fill:#155196;fill-opacity:1;fill-rule:nonzero;stroke:#ffffff;stroke-width:0.5;stroke-linecap:butt;stroke-linejoin:miter;stroke-miterlimit:4;stroke-opacity:1;stroke-dasharray:none"
           id="path11645" />
        <g
           id="g11647"
           transform="translate(73.5371,511.2495)">
          <path
             inkscape:connector-curvature="0"
             d="m 0,0 c -2.405,0 -3.391,2.145 -3.391,4.287 0,2.145 0.986,4.26 3.391,4.26 1.419,0 2.462,-0.81 2.983,-2.057 L 1.447,5.91 C 1.188,6.547 0.666,6.895 0,6.895 -1.42,6.895 -1.71,5.448 -1.71,4.287 -1.71,3.1 -1.42,1.651 0,1.651 c 0.637,0 1.158,0.347 1.447,0.986 l -0.984,0 0,1.65 2.84,0 C 3.187,2.201 2.549,0 0,0"
             style="fill:#ffffff;fill-opacity:1;fill-rule:nonzero;stroke:none"
             id="path11649" />
        </g>
        <g
           id="g11651"
           transform="translate(86.3418,511.3945)">
          <path
             inkscape:connector-curvature="0"
             d="m 0,0 -3.332,8.287 -1.709,0 L -8.373,0 l 1.767,0 0.783,1.941 3.274,0 L -1.768,0 0,0 z m -3.216,3.594 -1.941,0 1.014,2.316 0.927,-2.316 z"
             style="fill:#ffffff;fill-opacity:1;fill-rule:nonzero;stroke:none"
             id="path11653" />
        </g>
        <g
           id="g11655"
           transform="translate(93.0918,511.7125)">
          <path
             inkscape:connector-curvature="0"
             d="m 0,0 c -0.492,-0.289 -1.361,-0.463 -2.144,-0.463 -0.926,0 -1.825,0.26 -2.549,0.754 -0.26,0.145 -0.434,0.289 -0.811,0.637 l 1.158,1.158 c 0.696,-0.637 1.333,-0.898 2.289,-0.898 0.956,0 1.623,0.32 1.623,0.898 0,0.232 -0.145,0.551 -0.376,0.695 -0.291,0.174 -0.581,0.262 -1.652,0.465 -0.869,0.203 -1.392,0.377 -1.739,0.608 -0.55,0.377 -0.898,1.101 -0.898,1.797 0,0.839 0.435,1.593 1.16,2.027 0.462,0.291 1.013,0.406 1.738,0.406 0.927,0 1.796,-0.203 2.491,-0.637 C 0.464,7.33 0.551,7.274 0.813,7.07 L -0.202,5.766 c -0.667,0.492 -1.275,0.666 -2.058,0.666 -0.753,0 -1.217,-0.26 -1.217,-0.781 0,-0.204 0.117,-0.436 0.32,-0.522 0.144,-0.088 0.318,-0.115 0.492,-0.174 l 0.261,-0.029 0.29,-0.059 0.376,-0.056 C 0.174,4.463 1.189,3.565 1.189,2.115 1.189,1.246 0.725,0.406 0,0"
             style="fill:#ffffff;fill-opacity:1;fill-rule:nonzero;stroke:none"
             id="path11657" />
        </g>
        <path
           inkscape:connector-curvature="0"
           d="m 77.743,424.283 -33.046,0 0,24.649 33.046,0 0,-24.649 z"
           style="fill:#155196;fill-opacity:1;fill-rule:nonzero;stroke:#ffffff;stroke-width:0.5;stroke-linecap:butt;stroke-linejoin:miter;stroke-miterlimit:4;stroke-opacity:1;stroke-dasharray:none"
           id="path11659" />
        <path
           inkscape:connector-curvature="0"
           d="m 119.729,424.283 -33.047,0 0,24.649 33.047,0 0,-24.649 z"
           style="fill:#155196;fill-opacity:1;fill-rule:nonzero;stroke:#ffffff;stroke-width:0.5;stroke-linecap:butt;stroke-linejoin:miter;stroke-miterlimit:4;stroke-opacity:1;stroke-dasharray:none"
           id="path11661" />
        <path
           inkscape:connector-curvature="0"
           d="m 77.743,369.025 -33.046,0 0,24.647 33.046,0 0,-24.647 z"
           style="fill:#155196;fill-opacity:1;fill-rule:nonzero;stroke:#ffffff;stroke-width:0.5;stroke-linecap:butt;stroke-linejoin:miter;stroke-miterlimit:4;stroke-opacity:1;stroke-dasharray:none"
           id="path11663" />
        <path
           inkscape:connector-curvature="0"
           d="m 119.729,369.025 -33.047,0 0,24.647 33.047,0 0,-24.647 z"
           style="fill:#155196;fill-opacity:1;fill-rule:nonzero;stroke:#ffffff;stroke-width:0.5;stroke-linecap:butt;stroke-linejoin:miter;stroke-miterlimit:4;stroke-opacity:1;stroke-dasharray:none"
           id="path11665" />
        <g
           id="g11667"
           transform="translate(69.9395,461.8825)">
          <path
             inkscape:connector-curvature="0"
             d="m 0,0 0,-1.273 2.301,0 0,-1.426 -2.301,0 0,-3.026 -1.4,0 0,7.151 5.3,0 L 3.9,0 0,0 z"
             style="fill:#ffffff;fill-opacity:1;fill-rule:nonzero;stroke:none"
             id="path11669" />
        </g>
        <g
           id="g11671"
           transform="translate(78.0391,461.9846)">
          <path
             inkscape:connector-curvature="0"
             d="m 0,0 c -1.025,0 -1.574,-0.75 -1.574,-2.25 0,-1.452 0.574,-2.276 1.574,-2.276 0.975,0 1.576,0.901 1.576,2.299 C 1.576,-0.676 1,0 0,0 m 0,-5.952 c -2.15,0 -3,1.827 -3,3.702 0,2.25 1.15,3.673 3,3.673 1.725,0 2.975,-1.474 2.975,-3.673 0,-2.276 -1.174,-3.702 -2.975,-3.702"
             style="fill:#ffffff;fill-opacity:1;fill-rule:nonzero;stroke:none"
             id="path11673" />
        </g>
        <g
           id="g11675"
           transform="translate(85.4395,461.9846)">
          <path
             inkscape:connector-curvature="0"
             d="m 0,0 c -1.025,0 -1.576,-0.75 -1.576,-2.25 0,-1.452 0.576,-2.276 1.576,-2.276 0.975,0 1.574,0.901 1.574,2.299 C 1.574,-0.676 1,0 0,0 m 0,-5.952 c -2.15,0 -3,1.827 -3,3.702 0,2.25 1.148,3.673 3,3.673 1.725,0 2.975,-1.474 2.975,-3.673 0,-2.276 -1.176,-3.702 -2.975,-3.702"
             style="fill:#ffffff;fill-opacity:1;fill-rule:nonzero;stroke:none"
             id="path11677" />
        </g>
        <g
           id="g11679"
           transform="translate(92.4395,461.8825)">
          <path
             inkscape:connector-curvature="0"
             d="m 0,0 -0.9,0 0,-4.299 0.9,0 c 1.275,0 2.049,0.799 2.049,2.151 C 2.049,-0.799 1.275,0 0,0 m -0.076,-5.725 -2.225,0 0,7.151 2.225,0 c 2.15,0 3.525,-1.426 3.525,-3.574 0,-2.176 -1.4,-3.577 -3.525,-3.577"
             style="fill:#ffffff;fill-opacity:1;fill-rule:nonzero;stroke:none"
             id="path11681" />
        </g>
        <g
           id="g11683"
           transform="translate(59.6768,400.6695)">
          <path
             inkscape:connector-curvature="0"
             d="m 0,0 0,7.143 1.398,0 0,-5.793 3.896,0 L 5.294,0 0,0 z"
             style="fill:#ffffff;fill-opacity:1;fill-rule:nonzero;stroke:none"
             id="path11685" />
        </g>
        <g
           id="g11687"
           transform="translate(71.7627,404.2415)">
          <path
             inkscape:connector-curvature="0"
             d="m 0,0 c 0,2.198 -1.248,3.67 -2.972,3.67 -1.847,0 -2.997,-1.423 -2.997,-3.67 0,-1.873 0.85,-3.697 2.997,-3.697 C -1.174,-3.697 0,-2.273 0,0 m -1.398,0.024 c 0,-1.399 -0.6,-2.297 -1.574,-2.297 -0.999,0 -1.573,0.824 -1.573,2.273 0,1.498 0.55,2.247 1.573,2.247 0.999,0 1.574,-0.674 1.574,-2.223"
             style="fill:#ffffff;fill-opacity:1;fill-rule:nonzero;stroke:none"
             id="path11689" />
        </g>
        <g
           id="g11691"
           transform="translate(79.2295,404.2415)">
          <path
             inkscape:connector-curvature="0"
             d="m 0,0 c 0,2.147 -1.374,3.571 -3.522,3.571 l -2.222,0 0,-7.143 2.222,0 C -1.398,-3.572 0,-2.173 0,0 m -1.398,0 c 0,-1.349 -0.775,-2.148 -2.048,-2.148 l -0.9,0 0,4.295 0.9,0 c 1.273,0 2.048,-0.799 2.048,-2.147"
             style="fill:#ffffff;fill-opacity:1;fill-rule:nonzero;stroke:none"
             id="path11693" />
        </g>
        <g
           id="g11695"
           transform="translate(83.5742,400.5446)">
          <path
             inkscape:connector-curvature="0"
             d="m 0,0 c -2.072,0 -2.922,1.848 -2.922,3.697 0,1.848 0.85,3.67 2.922,3.67 1.224,0 2.123,-0.699 2.572,-1.773 L 1.249,5.096 C 1.024,5.645 0.574,5.944 0,5.944 c -1.224,0 -1.474,-1.249 -1.474,-2.247 0,-1.025 0.25,-2.273 1.474,-2.273 0.55,0 0.999,0.299 1.249,0.85 l -0.85,0 0,1.423 2.448,0 C 2.747,1.899 2.198,0 0,0"
             style="fill:#ffffff;fill-opacity:1;fill-rule:nonzero;stroke:none"
             id="path11697" />
        </g>
        <path
           inkscape:connector-curvature="0"
           d="m 88.119,407.813 1.424,0 0,-7.143 -1.424,0 0,7.143 z"
           style="fill:#ffffff;fill-opacity:1;fill-rule:nonzero;stroke:none"
           id="path11699" />
        <g
           id="g11701"
           transform="translate(96.0605,400.6695)">
          <path
             inkscape:connector-curvature="0"
             d="m 0,0 -3.122,4.57 0,-4.57 -1.399,0 0,7.143 1.399,0 2.947,-4.371 0,4.371 1.399,0 L 1.224,0 0,0 z"
             style="fill:#ffffff;fill-opacity:1;fill-rule:nonzero;stroke:none"
             id="path11703" />
        </g>
        <g
           id="g11705"
           transform="translate(101.9033,400.5446)">
          <path
             inkscape:connector-curvature="0"
             d="m 0,0 c -2.072,0 -2.922,1.848 -2.922,3.697 0,1.848 0.85,3.67 2.922,3.67 1.224,0 2.123,-0.699 2.572,-1.773 L 1.249,5.096 C 1.024,5.645 0.574,5.944 0,5.944 c -1.224,0 -1.473,-1.249 -1.473,-2.247 0,-1.025 0.249,-2.273 1.473,-2.273 0.55,0 0.999,0.299 1.249,0.85 l -0.85,0 0,1.423 2.448,0 C 2.747,1.899 2.198,0 0,0"
             style="fill:#ffffff;fill-opacity:1;fill-rule:nonzero;stroke:none"
             id="path11707" />
        </g>
        <g
           id="g11709"
           transform="translate(59.793,528.3555)">
          <path
             inkscape:connector-curvature="0"
             d="m 0,0 0,7.143 5.195,0 0,-1.424 -3.797,0 0,-1.174 2.149,0 0,-1.424 -2.149,0 0,-1.697 3.897,0 L 5.295,0 0,0 z"
             style="fill:#ffffff;fill-opacity:1;fill-rule:nonzero;stroke:none"
             id="path11711" />
        </g>
        <g
           id="g11713"
           transform="translate(70.6309,528.3306)">
          <path
             inkscape:connector-curvature="0"
             d="m 0,0 -1.424,2.398 -1.472,-2.373 -1.649,0 2.248,3.746 -2.049,3.371 1.674,0 1.248,-2.023 1.199,2.023 1.7,0 L -0.549,3.746 1.674,0.025 0,0 z"
             style="fill:#ffffff;fill-opacity:1;fill-rule:nonzero;stroke:none"
             id="path11715" />
        </g>
        <path
           inkscape:connector-curvature="0"
           d="m 73.803,535.499 1.424,0 0,-7.143 -1.424,0 0,7.143 z"
           style="fill:#ffffff;fill-opacity:1;fill-rule:nonzero;stroke:none"
           id="path11717" />
        <g
           id="g11719"
           transform="translate(79.8457,534.0745)">
          <path
             inkscape:connector-curvature="0"
             d="m 0,0 0,-5.719 -1.373,0 0,5.719 -1.973,0 0,1.424 5.293,0 L 1.947,0 0,0 z"
             style="fill:#ffffff;fill-opacity:1;fill-rule:nonzero;stroke:none"
             id="path11721" />
        </g>
        <g
           id="g11723"
           transform="translate(88.207,528.4535)">
          <path
             inkscape:connector-curvature="0"
             d="m 0,0 0,4.849 -0.699,0 0,1.45 c 0.525,0.25 0.574,0.4 0.799,0.851 l 1.351,0 L 1.451,0 0,0 z"
             style="fill:#ffffff;fill-opacity:1;fill-rule:nonzero;stroke:none"
             id="path11725" />
        </g>
        <g
           id="g11727"
           transform="translate(96.2832,528.9275)">
          <path
             inkscape:connector-curvature="0"
             d="m 0,0 c -0.426,-0.375 -1.15,-0.599 -1.951,-0.599 -1.049,0 -2.049,0.25 -2.924,0.75 l 0.773,1.224 c 0.727,-0.4 1.352,-0.55 2.151,-0.55 C -1,0.825 -0.5,1.176 -0.5,1.926 -0.5,2.625 -1,3 -1.977,3 -2.375,3 -2.65,2.95 -3.275,2.725 l -1.452,0.576 0.301,3.375 4.699,0 0,-1.426 L -3,5.225 -3.125,4.301 c 0.375,0.074 0.773,0.125 1.174,0.125 0.676,0 1.176,-0.125 1.599,-0.351 C 0.424,3.625 0.898,2.801 0.898,1.901 0.898,1.2 0.549,0.45 0,0"
             style="fill:#ffffff;fill-opacity:1;fill-rule:nonzero;stroke:none"
             id="path11729" />
        </g>
        <g
           id="g11731"
           transform="translate(101.6582,534.2775)">
          <path
             inkscape:connector-curvature="0"
             d="m 0,0 c -1.025,0 -1.576,-0.75 -1.576,-2.25 0,-1.449 0.576,-2.275 1.576,-2.275 0.975,0 1.574,0.9 1.574,2.3 C 1.574,-0.674 1,0 0,0 m 0,-5.949 c -2.15,0 -3,1.824 -3,3.699 0,2.25 1.148,3.676 3,3.676 1.725,0 2.975,-1.475 2.975,-3.676 0,-2.275 -1.176,-3.699 -2.975,-3.699"
             style="fill:#ffffff;fill-opacity:1;fill-rule:nonzero;stroke:none"
             id="path11733" />
        </g>
      </g>
    </g>
  </g>
</svg>
