<?xml version="1.0" encoding="UTF-8" standalone="no"?>
<!-- Created with Inkscape (http://www.inkscape.org/) -->

<svg
   xmlns:dc="http://purl.org/dc/elements/1.1/"
   xmlns:cc="http://creativecommons.org/ns#"
   xmlns:rdf="http://www.w3.org/1999/02/22-rdf-syntax-ns#"
   xmlns:svg="http://www.w3.org/2000/svg"
   xmlns="http://www.w3.org/2000/svg"
   xmlns:sodipodi="http://sodipodi.sourceforge.net/DTD/sodipodi-0.dtd"
   xmlns:inkscape="http://www.inkscape.org/namespaces/inkscape"
   width="350.46176"
   height="172.46094"
   id="svg12554"
   version="1.1"
   inkscape:version="0.48.3.1 r9886"
   sodipodi:docname="New document 57">
  <defs
     id="defs12556">
    <clipPath
       clipPathUnits="userSpaceOnUse"
       id="clipPath10785">
      <path
         inkscape:connector-curvature="0"
         d="m 27,44.082 513.086,0 0,693.845 -513.086,0 0,-693.845 z"
         id="path10787" />
    </clipPath>
    <clipPath
       clipPathUnits="userSpaceOnUse"
       id="clipPath10655">
      <path
         inkscape:connector-curvature="0"
         d="m 27,44.082 513.086,0 0,693.845 -513.086,0 0,-693.845 z"
         id="path10657" />
    </clipPath>
  </defs>
  <sodipodi:namedview
     id="base"
     pagecolor="#ffffff"
     bordercolor="#666666"
     borderopacity="1.0"
     inkscape:pageopacity="0.0"
     inkscape:pageshadow="2"
     inkscape:zoom="0.35"
     inkscape:cx="10.22166"
     inkscape:cy="77.664517"
     inkscape:document-units="px"
     inkscape:current-layer="layer1"
     showgrid="false"
     fit-margin-top="0"
     fit-margin-left="0"
     fit-margin-right="0"
     fit-margin-bottom="0"
     inkscape:window-width="451"
     inkscape:window-height="398"
     inkscape:window-x="75"
     inkscape:window-y="75"
     inkscape:window-maximized="0" />
  <metadata
     id="metadata12559">
    <rdf:RDF>
      <cc:Work
         rdf:about="">
        <dc:format>image/svg+xml</dc:format>
        <dc:type
           rdf:resource="http://purl.org/dc/dcmitype/StillImage" />
        <dc:title></dc:title>
      </cc:Work>
    </rdf:RDF>
  </metadata>
  <g
     inkscape:label="Layer 1"
     inkscape:groupmode="layer"
     id="layer1"
     transform="translate(-364.77834,-437.56576)">
    <g
       transform="matrix(1.25,0,0,-1.25,46.399903,1331.7217)"
       id="g10651">
      <g
         id="g10653"
         clip-path="url(#clipPath10655)">
        <g
           id="g10659"
           transform="translate(259.734,685.6838)">
          <path
             inkscape:connector-curvature="0"
             d="m 0,0 127.853,0 c 1.724,0 3.136,-1.406 3.136,-3.14 l 0,-46.081 0,-3.134 -134.127,0 0,3.134 0,46.081 C -3.138,-1.406 -1.723,0 0,0"
             style="fill:#155196;fill-opacity:1;fill-rule:evenodd;stroke:none"
             id="path10661" />
        </g>
        <g
           id="g10663"
           transform="translate(390.723,631.4855)">
          <path
             inkscape:connector-curvature="0"
             d="m 0,0 0,-3.14 0,-46.182 c 0,-1.723 -1.412,-3.133 -3.136,-3.133 l -127.853,0 c -1.723,0 -3.138,1.41 -3.138,3.133 l 0,46.182 0,3.14"
             style="fill:#155196;fill-opacity:1;fill-rule:evenodd;stroke:none"
             id="path10665" />
        </g>
        <g
           id="g10667"
           transform="translate(265.185,617.4055)">
          <path
             inkscape:connector-curvature="0"
             d="m 0,0 0,8.286 1.623,0 0,-6.722 4.519,0 L 6.142,0 0,0 z"
             style="fill:#ffffff;fill-opacity:1;fill-rule:nonzero;stroke:none"
             id="path10669" />
        </g>
        <g
           id="g10671"
           transform="translate(279.208,621.5485)">
          <path
             inkscape:connector-curvature="0"
             d="m 0,0 c 0,2.549 -1.449,4.258 -3.448,4.258 -2.144,0 -3.477,-1.651 -3.477,-4.258 0,-2.173 0.985,-4.289 3.477,-4.289 C -1.362,-4.289 0,-2.637 0,0 m -1.623,0.028 c 0,-1.622 -0.695,-2.665 -1.825,-2.665 -1.159,0 -1.825,0.956 -1.825,2.637 0,1.738 0.637,2.607 1.825,2.607 1.158,0 1.825,-0.782 1.825,-2.579"
             style="fill:#ffffff;fill-opacity:1;fill-rule:nonzero;stroke:none"
             id="path10673" />
        </g>
        <g
           id="g10675"
           transform="translate(287.87,621.5485)">
          <path
             inkscape:connector-curvature="0"
             d="m 0,0 c 0,2.491 -1.594,4.143 -4.085,4.143 l -2.579,0 0,-8.286 2.579,0 C -1.623,-4.143 0,-2.521 0,0 m -1.623,0 c 0,-1.565 -0.898,-2.492 -2.375,-2.492 l -1.043,0 0,4.983 1.043,0 c 1.477,0 2.375,-0.927 2.375,-2.491"
             style="fill:#ffffff;fill-opacity:1;fill-rule:nonzero;stroke:none"
             id="path10677" />
        </g>
        <g
           id="g10679"
           transform="translate(292.911,617.2595)">
          <path
             inkscape:connector-curvature="0"
             d="m 0,0 c -2.406,0 -3.39,2.145 -3.39,4.289 0,2.144 0.984,4.258 3.39,4.258 1.418,0 2.462,-0.811 2.984,-2.056 L 1.447,5.911 C 1.188,6.548 0.666,6.896 0,6.896 -1.42,6.896 -1.711,5.448 -1.711,4.289 -1.711,3.101 -1.42,1.652 0,1.652 0.638,1.652 1.158,2 1.447,2.637 l -0.984,0 0,1.652 2.841,0 C 3.186,2.203 2.55,0 0,0"
             style="fill:#ffffff;fill-opacity:1;fill-rule:nonzero;stroke:none"
             id="path10681" />
        </g>
        <path
           inkscape:connector-curvature="0"
           d="m 298.183,625.692 1.653,0 0,-8.286 -1.653,0 0,8.286 z"
           style="fill:#ffffff;fill-opacity:1;fill-rule:nonzero;stroke:none"
           id="path10683" />
        <g
           id="g10685"
           transform="translate(307.396,617.4055)">
          <path
             inkscape:connector-curvature="0"
             d="m 0,0 -3.622,5.302 0,-5.302 -1.622,0 0,8.286 1.622,0 3.418,-5.071 0,5.071 1.623,0 L 1.419,0 0,0 z"
             style="fill:#ffffff;fill-opacity:1;fill-rule:nonzero;stroke:none"
             id="path10687" />
        </g>
        <g
           id="g10689"
           transform="translate(314.175,617.2595)">
          <path
             inkscape:connector-curvature="0"
             d="m 0,0 c -2.404,0 -3.389,2.145 -3.389,4.289 0,2.144 0.985,4.258 3.389,4.258 1.42,0 2.464,-0.811 2.984,-2.056 L 1.449,5.911 C 1.187,6.548 0.666,6.896 0,6.896 -1.42,6.896 -1.709,5.448 -1.709,4.289 -1.709,3.101 -1.42,1.652 0,1.652 0.638,1.652 1.161,2 1.449,2.637 l -0.984,0 0,1.652 2.838,0 C 3.187,2.203 2.551,0 0,0"
             style="fill:#ffffff;fill-opacity:1;fill-rule:nonzero;stroke:none"
             id="path10691" />
        </g>
        <path
           inkscape:connector-curvature="0"
           d="m 319.333,621.201 11.588,0 0,-1.68 -11.588,0 0,1.68 z"
           style="fill:#ffffff;fill-opacity:1;fill-rule:nonzero;stroke:none"
           id="path10693" />
        <g
           id="g10695"
           transform="translate(333.123,617.4055)">
          <path
             inkscape:connector-curvature="0"
             d="m 0,0 0,8.286 6.025,0 0,-1.652 -4.403,0 0,-1.362 2.491,0 0,-1.651 -2.491,0 0,-1.97 4.52,0 L 6.142,0 0,0 z"
             style="fill:#ffffff;fill-opacity:1;fill-rule:nonzero;stroke:none"
             id="path10697" />
        </g>
        <g
           id="g10699"
           transform="translate(345.696,617.3765)">
          <path
             inkscape:connector-curvature="0"
             d="m 0,0 -1.652,2.781 -1.708,-2.752 -1.912,0 2.607,4.345 -2.376,3.912 1.942,0 1.447,-2.347 1.392,2.347 1.97,0 L -0.636,4.345 1.941,0.029 0,0 z"
             style="fill:#ffffff;fill-opacity:1;fill-rule:nonzero;stroke:none"
             id="path10701" />
        </g>
        <path
           inkscape:connector-curvature="0"
           d="m 349.376,625.692 1.651,0 0,-8.286 -1.651,0 0,8.286 z"
           style="fill:#ffffff;fill-opacity:1;fill-rule:nonzero;stroke:none"
           id="path10703" />
        <g
           id="g10705"
           transform="translate(356.386,624.0395)">
          <path
             inkscape:connector-curvature="0"
             d="m 0,0 0,-6.634 -1.592,0 0,6.634 -2.29,0 0,1.652 6.142,0 L 2.26,0 0,0 z"
             style="fill:#ffffff;fill-opacity:1;fill-rule:nonzero;stroke:none"
             id="path10707" />
        </g>
        <g
           id="g10709"
           transform="translate(366.961,617.4055)">
          <path
             inkscape:connector-curvature="0"
             d="M 0,0 C 0.059,0.782 0.116,1.188 0.319,1.738 0.667,2.752 1.333,3.621 2.201,4.201 2.52,4.432 2.926,4.606 3.331,4.78 L 3.65,4.925 3.94,5.012 4.229,5.127 C 4.692,5.331 4.983,5.62 4.983,5.91 4.983,6.402 4.316,6.75 3.36,6.75 2.52,6.75 1.971,6.547 1.158,5.91 L 0,7.127 C 0.55,7.532 0.811,7.706 1.187,7.88 1.854,8.228 2.606,8.401 3.418,8.401 4.462,8.401 5.388,8.112 5.938,7.59 6.374,7.185 6.604,6.663 6.604,5.968 6.604,4.751 5.852,3.911 4.259,3.36 3.331,3.013 3.1,2.897 2.665,2.462 2.404,2.202 2.23,1.97 2.058,1.651 l 4.633,0 L 6.691,0 0,0 z"
             style="fill:#ffffff;fill-opacity:1;fill-rule:nonzero;stroke:none"
             id="path10711" />
        </g>
        <g
           id="g10713"
           transform="translate(376.347,617.4055)">
          <path
             inkscape:connector-curvature="0"
             d="m 0,0 0,5.62 -0.811,0 0,1.681 c 0.609,0.289 0.666,0.463 0.928,0.985 l 1.563,0 L 1.68,0 0,0 z"
             style="fill:#ffffff;fill-opacity:1;fill-rule:nonzero;stroke:none"
             id="path10715" />
        </g>
        <g
           id="g10717"
           transform="translate(380.954,617.4055)">
          <path
             inkscape:connector-curvature="0"
             d="m 0,0 0,5.62 -0.81,0 0,1.681 c 0.607,0.289 0.666,0.463 0.925,0.985 l 1.565,0 L 1.68,0 0,0 z"
             style="fill:#ffffff;fill-opacity:1;fill-rule:nonzero;stroke:none"
             id="path10719" />
        </g>
        <path
           inkscape:connector-curvature="0"
           d="m 298.924,640.913 -33.046,0 0,24.65 33.046,0 0,-24.65 z"
           style="fill:#155196;fill-opacity:1;fill-rule:nonzero;stroke:#ffffff;stroke-width:0.5;stroke-linecap:butt;stroke-linejoin:miter;stroke-miterlimit:4;stroke-opacity:1;stroke-dasharray:none"
           id="path10721" />
        <path
           inkscape:connector-curvature="0"
           d="m 340.909,640.913 -33.047,0 0,24.65 33.047,0 0,-24.65 z"
           style="fill:#155196;fill-opacity:1;fill-rule:nonzero;stroke:#ffffff;stroke-width:0.5;stroke-linecap:butt;stroke-linejoin:miter;stroke-miterlimit:4;stroke-opacity:1;stroke-dasharray:none"
           id="path10723" />
        <path
           inkscape:connector-curvature="0"
           d="m 382.896,640.913 -33.047,0 0,24.65 33.047,0 0,-24.65 z"
           style="fill:#155196;fill-opacity:1;fill-rule:nonzero;stroke:#ffffff;stroke-width:0.5;stroke-linecap:butt;stroke-linejoin:miter;stroke-miterlimit:4;stroke-opacity:1;stroke-dasharray:none"
           id="path10725" />
        <g
           id="g10727"
           transform="translate(282.374,672.6223)">
          <path
             inkscape:connector-curvature="0"
             d="m 0,0 c -2.405,0 -3.39,2.144 -3.39,4.288 0,2.144 0.985,4.259 3.39,4.259 1.419,0 2.463,-0.811 2.984,-2.057 L 1.449,5.911 C 1.188,6.548 0.667,6.896 0,6.896 c -1.419,0 -1.709,-1.449 -1.709,-2.608 0,-1.188 0.29,-2.637 1.709,-2.637 0.637,0 1.159,0.348 1.449,0.986 l -0.986,0 0,1.651 2.84,0 C 3.188,2.202 2.55,0 0,0"
             style="fill:#ffffff;fill-opacity:1;fill-rule:nonzero;stroke:none"
             id="path10729" />
        </g>
        <g
           id="g10731"
           transform="translate(295.179,672.7673)">
          <path
             inkscape:connector-curvature="0"
             d="m 0,0 -3.332,8.286 -1.708,0 L -8.372,0 l 1.766,0 0.783,1.941 3.274,0 L -1.768,0 0,0 z m -3.217,3.593 -1.94,0 1.014,2.318 0.926,-2.318 z"
             style="fill:#ffffff;fill-opacity:1;fill-rule:nonzero;stroke:none"
             id="path10733" />
        </g>
        <g
           id="g10735"
           transform="translate(301.929,673.0862)">
          <path
             inkscape:connector-curvature="0"
             d="m 0,0 c -0.492,-0.29 -1.362,-0.464 -2.143,-0.464 -0.928,0 -1.825,0.261 -2.55,0.754 -0.26,0.145 -0.433,0.289 -0.811,0.637 l 1.158,1.159 c 0.695,-0.638 1.334,-0.898 2.29,-0.898 0.956,0 1.622,0.318 1.622,0.898 0,0.232 -0.144,0.55 -0.376,0.695 C -1.1,2.955 -1.391,3.042 -2.463,3.245 -3.332,3.448 -3.854,3.622 -4.201,3.853 -4.751,4.23 -5.1,4.954 -5.1,5.649 c 0,0.841 0.436,1.594 1.161,2.029 0.462,0.289 1.013,0.405 1.738,0.405 0.928,0 1.796,-0.203 2.492,-0.637 C 0.466,7.33 0.55,7.272 0.812,7.069 L -0.203,5.766 c -0.665,0.492 -1.274,0.666 -2.057,0.666 -0.752,0 -1.217,-0.261 -1.217,-0.783 0,-0.202 0.117,-0.434 0.319,-0.521 0.146,-0.087 0.32,-0.116 0.494,-0.174 L -2.405,4.925 -2.116,4.867 -1.739,4.809 C 0.174,4.461 1.187,3.563 1.187,2.115 1.187,1.246 0.724,0.405 0,0"
             style="fill:#ffffff;fill-opacity:1;fill-rule:nonzero;stroke:none"
             id="path10737" />
        </g>
        <path
           inkscape:connector-curvature="0"
           d="m 305.058,676.563 11.59,0 0,-1.68 -11.59,0 0,1.68 z"
           style="fill:#ffffff;fill-opacity:1;fill-rule:nonzero;stroke:none"
           id="path10739" />
        <g
           id="g10741"
           transform="translate(318.849,672.7673)">
          <path
             inkscape:connector-curvature="0"
             d="m 0,0 0,8.286 6.027,0 0,-1.651 -4.403,0 0,-1.362 2.492,0 0,-1.651 -2.492,0 0,-1.971 4.518,0 L 6.142,0 0,0 z"
             style="fill:#ffffff;fill-opacity:1;fill-rule:nonzero;stroke:none"
             id="path10743" />
        </g>
        <g
           id="g10745"
           transform="translate(331.423,672.7385)">
          <path
             inkscape:connector-curvature="0"
             d="m 0,0 -1.652,2.781 -1.709,-2.752 -1.913,0 2.608,4.346 -2.375,3.911 1.941,0 1.448,-2.347 1.39,2.347 1.971,0 L -0.639,4.346 1.941,0.029 0,0 z"
             style="fill:#ffffff;fill-opacity:1;fill-rule:nonzero;stroke:none"
             id="path10747" />
        </g>
        <path
           inkscape:connector-curvature="0"
           d="m 335.103,681.054 1.65,0 0,-8.286 -1.65,0 0,8.286 z"
           style="fill:#ffffff;fill-opacity:1;fill-rule:nonzero;stroke:none"
           id="path10749" />
        <g
           id="g10751"
           transform="translate(342.112,679.4021)">
          <path
             inkscape:connector-curvature="0"
             d="m 0,0 0,-6.635 -1.592,0 0,6.635 -2.291,0 0,1.651 6.144,0 L 2.261,0 0,0 z"
             style="fill:#ffffff;fill-opacity:1;fill-rule:nonzero;stroke:none"
             id="path10753" />
        </g>
        <g
           id="g10755"
           transform="translate(352.687,672.7673)">
          <path
             inkscape:connector-curvature="0"
             d="M 0,0 C 0.057,0.782 0.116,1.188 0.318,1.738 0.666,2.753 1.333,3.622 2.203,4.201 2.52,4.433 2.925,4.606 3.333,4.78 L 3.65,4.925 3.941,5.012 4.229,5.128 C 4.693,5.331 4.983,5.621 4.983,5.911 4.983,6.403 4.316,6.75 3.361,6.75 2.52,6.75 1.97,6.548 1.158,5.911 L 0,7.128 c 0.549,0.405 0.811,0.579 1.187,0.752 0.667,0.348 1.42,0.522 2.232,0.522 1.042,0 1.969,-0.29 2.52,-0.811 C 6.374,7.185 6.605,6.664 6.605,5.968 6.605,4.751 5.853,3.911 4.258,3.361 3.333,3.013 3.099,2.897 2.666,2.463 2.404,2.202 2.23,1.97 2.057,1.651 l 4.635,0 L 6.692,0 0,0 z"
             style="fill:#ffffff;fill-opacity:1;fill-rule:nonzero;stroke:none"
             id="path10757" />
        </g>
        <g
           id="g10759"
           transform="translate(362.073,672.7673)">
          <path
             inkscape:connector-curvature="0"
             d="m 0,0 0,5.621 -0.81,0 0,1.68 c 0.607,0.29 0.666,0.464 0.927,0.985 l 1.564,0 L 1.681,0 0,0 z"
             style="fill:#ffffff;fill-opacity:1;fill-rule:nonzero;stroke:none"
             id="path10761" />
        </g>
        <g
           id="g10763"
           transform="translate(366.681,672.7673)">
          <path
             inkscape:connector-curvature="0"
             d="m 0,0 0,5.621 -0.812,0 0,1.68 c 0.609,0.29 0.667,0.464 0.927,0.985 l 1.565,0 L 1.68,0 0,0 z"
             style="fill:#ffffff;fill-opacity:1;fill-rule:nonzero;stroke:none"
             id="path10765" />
        </g>
        <path
           inkscape:connector-curvature="0"
           d="m 298.924,585.654 -33.046,0 0,24.649 33.046,0 0,-24.649 z"
           style="fill:#155196;fill-opacity:1;fill-rule:nonzero;stroke:#ffffff;stroke-width:0.5;stroke-linecap:butt;stroke-linejoin:miter;stroke-miterlimit:4;stroke-opacity:1;stroke-dasharray:none"
           id="path10767" />
        <path
           inkscape:connector-curvature="0"
           d="m 340.909,585.654 -33.047,0 0,24.649 33.047,0 0,-24.649 z"
           style="fill:#155196;fill-opacity:1;fill-rule:nonzero;stroke:#ffffff;stroke-width:0.5;stroke-linecap:butt;stroke-linejoin:miter;stroke-miterlimit:4;stroke-opacity:1;stroke-dasharray:none"
           id="path10769" />
        <path
           inkscape:connector-curvature="0"
           d="m 382.896,585.654 -33.047,0 0,24.649 33.047,0 0,-24.649 z"
           style="fill:#155196;fill-opacity:1;fill-rule:nonzero;stroke:#ffffff;stroke-width:0.5;stroke-linecap:butt;stroke-linejoin:miter;stroke-miterlimit:4;stroke-opacity:1;stroke-dasharray:none"
           id="path10771" />
        <g
           id="g10773"
           transform="translate(259.734,687.321)">
          <path
             inkscape:connector-curvature="0"
             d="m 0,0 127.853,0 c 2.707,0 4.922,-2.215 4.922,-4.827 l 0,-99.98 c 0,-2.807 -2.215,-5.018 -4.922,-5.018 l -127.853,0 c -2.707,0 -4.921,2.211 -4.921,5.018 l 0,99.98 C -4.921,-2.215 -2.707,0 0,0 z"
             style="fill:none;stroke:#231f20;stroke-width:0.25;stroke-linecap:butt;stroke-linejoin:miter;stroke-miterlimit:2.61299992;stroke-opacity:1;stroke-dasharray:none"
             id="path10775" />
        </g>
      </g>
    </g>
    <text
       style="font-size:15px"
       y="485.63669"
       x="539.69489"
       id="text10777">
      <tspan
         style="font-size:16.25px;font-variant:normal;font-weight:normal;font-stretch:normal;writing-mode:lr-tb;fill:#231f20;fill-opacity:1;fill-rule:nonzero;stroke:none;font-family:Helvetica;-inkscape-font-specification:Helvetica"
         x="539.69489"
         y="485.63669"
         id="tspan10779">*</tspan>
    </text>
    <g
       transform="matrix(1.25,0,0,-1.25,46.399903,1331.7217)"
       id="g10781">
      <g
         id="g10783"
         clip-path="url(#clipPath10785)">
        <g
           id="g10789"
           transform="translate(419.011,582.4185)">
          <path
             inkscape:connector-curvature="0"
             d="m 0,0 0,127.853 c 0,2.707 2.215,4.922 4.927,4.922 l 46.139,0 c 2.706,0 4.917,-2.215 4.917,-4.922 L 55.983,0 c 0,-2.707 -2.211,-4.922 -4.917,-4.922 l -46.139,0 C 2.215,-4.922 0,-2.707 0,0"
             style="fill:#ffffff;fill-opacity:1;fill-rule:nonzero;stroke:none"
             id="path10791" />
        </g>
        <g
           id="g10793"
           transform="translate(420.798,582.4185)">
          <path
             inkscape:connector-curvature="0"
             d="m 0,0 0,112.052 0,3.135 52.412,0 10e-4,-3.135 0,-112.052 c 0,-1.724 -1.411,-3.139 -3.134,-3.139 l -46.139,0 C 1.405,-3.139 0,-1.724 0,0"
             style="fill:#155196;fill-opacity:1;fill-rule:evenodd;stroke:none"
             id="path10795" />
        </g>
        <g
           id="g10797"
           transform="translate(473.21,582.4185)">
          <path
             inkscape:connector-curvature="0"
             d="m 0,0 0,127.853 c 0,2.707 2.215,4.922 4.926,4.922 l 46.181,0 c 2.707,0 4.919,-2.215 4.919,-4.922 L 56.026,0 c 0,-2.707 -2.212,-4.922 -4.919,-4.922 l -46.181,0 C 2.215,-4.922 0,-2.707 0,0"
             style="fill:#ffffff;fill-opacity:1;fill-rule:nonzero;stroke:none"
             id="path10799" />
        </g>
        <g
           id="g10801"
           transform="translate(474.997,582.4185)">
          <path
             inkscape:connector-curvature="0"
             d="m 0,0 0,112.052 0,3.135 52.455,0 0,-3.135 0,-112.052 c 0,-1.724 -1.41,-3.139 -3.135,-3.139 l -46.181,0 C 1.405,-3.139 0,-1.724 0,0"
             style="fill:#155196;fill-opacity:1;fill-rule:evenodd;stroke:none"
             id="path10803" />
        </g>
        <g
           id="g10805"
           transform="translate(419.161,582.4185)">
          <path
             inkscape:connector-curvature="0"
             d="m 0,0 0,127.853 c 0,2.707 2.215,4.922 4.825,4.922 l 99.982,0 c 2.806,0 5.018,-2.215 5.018,-4.922 L 109.825,0 c 0,-2.707 -2.212,-4.922 -5.018,-4.922 l -99.982,0 C 2.215,-4.922 0,-2.707 0,0 z"
             style="fill:none;stroke:#231f20;stroke-width:0.25;stroke-linecap:butt;stroke-linejoin:miter;stroke-miterlimit:2.61299992;stroke-opacity:1;stroke-dasharray:none"
             id="path10807" />
        </g>
        <g
           id="g10809"
           transform="translate(420.798,710.2717)">
          <path
             inkscape:connector-curvature="0"
             d="m 0,0 c 0,1.724 1.405,3.135 3.139,3.135 l 100.38,0 c 1.725,0 3.135,-1.411 3.135,-3.135 l 0,-11.165 L 0,-11.165 0,0 z"
             style="fill:#155196;fill-opacity:1;fill-rule:evenodd;stroke:none"
             id="path10811" />
        </g>
        <g
           id="g10813"
           transform="translate(453.269,702.2473)">
          <path
             inkscape:connector-curvature="0"
             d="m 0,0 0,7.142 5.193,0 0,-1.423 -3.796,0 0,-1.174 2.147,0 0,-1.423 -2.147,0 0,-1.699 3.896,0 L 5.293,0 0,0 z"
             style="fill:#ffffff;fill-opacity:1;fill-rule:nonzero;stroke:none"
             id="path10815" />
        </g>
        <g
           id="g10817"
           transform="translate(464.106,702.2224)">
          <path
             inkscape:connector-curvature="0"
             d="m 0,0 -1.424,2.398 -1.472,-2.373 -1.649,0 2.247,3.746 -2.047,3.371 1.674,0 1.247,-2.023 1.2,2.023 1.697,0 L -0.549,3.746 1.672,0.025 0,0 z"
             style="fill:#ffffff;fill-opacity:1;fill-rule:nonzero;stroke:none"
             id="path10819" />
        </g>
        <path
           inkscape:connector-curvature="0"
           d="m 467.277,709.389 1.423,0 0,-7.142 -1.423,0 0,7.142 z"
           style="fill:#ffffff;fill-opacity:1;fill-rule:nonzero;stroke:none"
           id="path10821" />
        <g
           id="g10823"
           transform="translate(473.319,707.9661)">
          <path
             inkscape:connector-curvature="0"
             d="m 0,0 0,-5.719 -1.373,0 0,5.719 -1.972,0 0,1.423 5.295,0 L 1.95,0 0,0 z"
             style="fill:#ffffff;fill-opacity:1;fill-rule:nonzero;stroke:none"
             id="path10825" />
        </g>
        <g
           id="g10827"
           transform="translate(481.336,702.2473)">
          <path
             inkscape:connector-curvature="0"
             d="m 0,0 c 0.05,0.674 0.1,1.024 0.275,1.499 0.3,0.874 0.874,1.623 1.622,2.122 0.275,0.2 0.624,0.35 0.974,0.5 l 0.274,0.124 0.25,0.075 0.25,0.1 c 0.401,0.175 0.651,0.425 0.651,0.674 0,0.425 -0.575,0.724 -1.4,0.724 -0.724,0 -1.199,-0.174 -1.897,-0.724 L 0,6.143 c 0.475,0.35 0.698,0.5 1.024,0.649 0.575,0.3 1.223,0.45 1.922,0.45 0.9,0 1.699,-0.25 2.174,-0.699 C 5.493,6.193 5.694,5.744 5.694,5.145 5.694,4.096 5.044,3.371 3.671,2.897 2.871,2.597 2.672,2.497 2.297,2.123 2.072,1.898 1.922,1.698 1.772,1.423 l 3.996,0 L 5.768,0 0,0 z"
             style="fill:#ffffff;fill-opacity:1;fill-rule:nonzero;stroke:none"
             id="path10829" />
        </g>
        <g
           id="g10831"
           transform="translate(489.428,702.2473)">
          <path
             inkscape:connector-curvature="0"
             d="m 0,0 0,4.845 -0.7,0 0,1.448 c 0.525,0.25 0.575,0.399 0.799,0.849 l 1.349,0 L 1.448,0 0,0 z"
             style="fill:#ffffff;fill-opacity:1;fill-rule:nonzero;stroke:none"
             id="path10833" />
        </g>
        <g
           id="g10835"
           transform="translate(493.397,702.2473)">
          <path
             inkscape:connector-curvature="0"
             d="m 0,0 0,4.845 -0.699,0 0,1.448 c 0.525,0.25 0.575,0.399 0.8,0.849 l 1.349,0 L 1.45,0 0,0 z"
             style="fill:#ffffff;fill-opacity:1;fill-rule:nonzero;stroke:none"
             id="path10837" />
        </g>
        <path
           inkscape:connector-curvature="0"
           d="m 463.636,654.531 -33.046,0 0,24.649 33.046,0 0,-24.649 z"
           style="fill:#155196;fill-opacity:1;fill-rule:nonzero;stroke:#ffffff;stroke-width:0.5;stroke-linecap:butt;stroke-linejoin:miter;stroke-miterlimit:4;stroke-opacity:1;stroke-dasharray:none"
           id="path10839" />
        <path
           inkscape:connector-curvature="0"
           d="m 463.636,621.544 -33.046,0 0,24.65 33.046,0 0,-24.65 z"
           style="fill:#155196;fill-opacity:1;fill-rule:nonzero;stroke:#ffffff;stroke-width:0.5;stroke-linecap:butt;stroke-linejoin:miter;stroke-miterlimit:4;stroke-opacity:1;stroke-dasharray:none"
           id="path10841" />
        <path
           inkscape:connector-curvature="0"
           d="m 463.636,588.559 -33.046,0 0,24.65 33.046,0 0,-24.65 z"
           style="fill:#155196;fill-opacity:1;fill-rule:nonzero;stroke:#ffffff;stroke-width:0.5;stroke-linecap:butt;stroke-linejoin:miter;stroke-miterlimit:4;stroke-opacity:1;stroke-dasharray:none"
           id="path10843" />
        <path
           inkscape:connector-curvature="0"
           d="m 517.876,654.531 -33.047,0 0,24.649 33.047,0 0,-24.649 z"
           style="fill:#155196;fill-opacity:1;fill-rule:nonzero;stroke:#ffffff;stroke-width:0.5;stroke-linecap:butt;stroke-linejoin:miter;stroke-miterlimit:4;stroke-opacity:1;stroke-dasharray:none"
           id="path10845" />
        <path
           inkscape:connector-curvature="0"
           d="m 517.876,621.544 -33.047,0 0,24.65 33.047,0 0,-24.65 z"
           style="fill:#155196;fill-opacity:1;fill-rule:nonzero;stroke:#ffffff;stroke-width:0.5;stroke-linecap:butt;stroke-linejoin:miter;stroke-miterlimit:4;stroke-opacity:1;stroke-dasharray:none"
           id="path10847" />
        <path
           inkscape:connector-curvature="0"
           d="m 517.876,588.559 -33.047,0 0,24.65 33.047,0 0,-24.65 z"
           style="fill:#155196;fill-opacity:1;fill-rule:nonzero;stroke:#ffffff;stroke-width:0.5;stroke-linecap:butt;stroke-linejoin:miter;stroke-miterlimit:4;stroke-opacity:1;stroke-dasharray:none"
           id="path10849" />
        <g
           id="g10851"
           transform="translate(439.655,684.8665)">
          <path
             inkscape:connector-curvature="0"
             d="m 0,0 c -2.073,0 -2.923,1.848 -2.923,3.696 0,1.848 0.85,3.671 2.923,3.671 1.223,0 2.122,-0.699 2.573,-1.773 L 1.248,5.095 C 1.024,5.644 0.574,5.943 0,5.943 c -1.223,0 -1.473,-1.248 -1.473,-2.247 0,-1.024 0.25,-2.273 1.473,-2.273 0.549,0 0.998,0.3 1.248,0.849 l -0.849,0 0,1.424 2.447,0 C 2.747,1.898 2.198,0 0,0"
             style="fill:#ffffff;fill-opacity:1;fill-rule:nonzero;stroke:none"
             id="path10853" />
        </g>
        <g
           id="g10855"
           transform="translate(450.692,684.9914)">
          <path
             inkscape:connector-curvature="0"
             d="m 0,0 -2.872,7.142 -1.473,0 L -7.217,0 l 1.523,0 0.676,1.673 2.82,0 L -1.523,0 0,0 z m -2.772,3.097 -1.672,0 0.874,1.997 0.798,-1.997 z"
             style="fill:#ffffff;fill-opacity:1;fill-rule:nonzero;stroke:none"
             id="path10857" />
        </g>
        <g
           id="g10859"
           transform="translate(456.511,685.2664)">
          <path
             inkscape:connector-curvature="0"
             d="m 0,0 c -0.425,-0.25 -1.174,-0.4 -1.849,-0.4 -0.798,0 -1.572,0.225 -2.197,0.65 -0.225,0.125 -0.375,0.249 -0.699,0.549 l 0.999,0.999 c 0.6,-0.549 1.148,-0.775 1.972,-0.775 0.825,0 1.399,0.275 1.399,0.775 0,0.2 -0.125,0.474 -0.324,0.599 -0.25,0.15 -0.5,0.225 -1.423,0.4 -0.749,0.175 -1.199,0.325 -1.499,0.524 -0.475,0.325 -0.775,0.949 -0.775,1.549 0,0.724 0.375,1.373 1,1.748 0.4,0.249 0.874,0.349 1.497,0.349 0.799,0 1.549,-0.175 2.149,-0.55 C 0.4,6.318 0.474,6.268 0.7,6.093 L -0.175,4.969 c -0.575,0.425 -1.1,0.574 -1.773,0.574 -0.65,0 -1.048,-0.224 -1.048,-0.673 0,-0.175 0.099,-0.375 0.273,-0.45 0.125,-0.075 0.275,-0.1 0.426,-0.15 l 0.224,-0.025 0.25,-0.05 0.325,-0.05 C 0.15,3.846 1.023,3.071 1.023,1.823 1.023,1.074 0.625,0.35 0,0"
             style="fill:#ffffff;fill-opacity:1;fill-rule:nonzero;stroke:none"
             id="path10861" />
        </g>
        <g
           id="g10863"
           transform="translate(479.087,684.9914)">
          <path
             inkscape:connector-curvature="0"
             d="m 0,0 0,7.142 1.399,0 0,-5.793 3.896,0 L 5.295,0 0,0 z"
             style="fill:#ffffff;fill-opacity:1;fill-rule:nonzero;stroke:none"
             id="path10865" />
        </g>
        <g
           id="g10867"
           transform="translate(491.174,688.5627)">
          <path
             inkscape:connector-curvature="0"
             d="M 0,0 C 0,2.197 -1.249,3.671 -2.972,3.671 -4.82,3.671 -5.97,2.247 -5.97,0 c 0,-1.873 0.85,-3.696 2.998,-3.696 C -1.175,-3.696 0,-2.273 0,0 m -1.4,0.025 c 0,-1.399 -0.599,-2.298 -1.572,-2.298 -1,0 -1.574,0.824 -1.574,2.273 0,1.498 0.551,2.247 1.574,2.247 0.998,0 1.572,-0.674 1.572,-2.222"
             style="fill:#ffffff;fill-opacity:1;fill-rule:nonzero;stroke:none"
             id="path10869" />
        </g>
        <g
           id="g10871"
           transform="translate(498.64,688.5627)">
          <path
             inkscape:connector-curvature="0"
             d="m 0,0 c 0,2.147 -1.374,3.571 -3.521,3.571 l -2.223,0 0,-7.142 2.223,0 C -1.399,-3.571 0,-2.173 0,0 m -1.399,0 c 0,-1.349 -0.773,-2.148 -2.047,-2.148 l -0.9,0 0,4.295 0.9,0 c 1.274,0 2.047,-0.799 2.047,-2.147"
             style="fill:#ffffff;fill-opacity:1;fill-rule:nonzero;stroke:none"
             id="path10873" />
        </g>
        <g
           id="g10875"
           transform="translate(502.985,684.8665)">
          <path
             inkscape:connector-curvature="0"
             d="m 0,0 c -2.072,0 -2.922,1.848 -2.922,3.696 0,1.848 0.85,3.671 2.922,3.671 1.223,0 2.122,-0.699 2.572,-1.773 L 1.248,5.095 C 1.024,5.644 0.575,5.943 0,5.943 c -1.224,0 -1.474,-1.248 -1.474,-2.247 0,-1.024 0.25,-2.273 1.474,-2.273 0.549,0 0.998,0.3 1.248,0.849 l -0.849,0 0,1.424 2.448,0 C 2.746,1.898 2.198,0 0,0"
             style="fill:#ffffff;fill-opacity:1;fill-rule:nonzero;stroke:none"
             id="path10877" />
        </g>
        <path
           inkscape:connector-curvature="0"
           d="m 507.53,692.134 1.423,0 0,-7.142 -1.423,0 0,7.142 z"
           style="fill:#ffffff;fill-opacity:1;fill-rule:nonzero;stroke:none"
           id="path10879" />
        <g
           id="g10881"
           transform="translate(515.472,684.9914)">
          <path
             inkscape:connector-curvature="0"
             d="m 0,0 -3.123,4.57 0,-4.57 -1.399,0 0,7.142 1.399,0 2.947,-4.37 0,4.37 1.398,0 L 1.222,0 0,0 z"
             style="fill:#ffffff;fill-opacity:1;fill-rule:nonzero;stroke:none"
             id="path10883" />
        </g>
        <g
           id="g10885"
           transform="translate(521.313,684.8665)">
          <path
             inkscape:connector-curvature="0"
             d="m 0,0 c -2.072,0 -2.921,1.848 -2.921,3.696 0,1.848 0.849,3.671 2.921,3.671 1.225,0 2.124,-0.699 2.573,-1.773 L 1.25,5.095 C 1.026,5.644 0.575,5.943 0,5.943 c -1.223,0 -1.472,-1.248 -1.472,-2.247 0,-1.024 0.249,-2.273 1.472,-2.273 0.551,0 1,0.3 1.25,0.849 l -0.849,0 0,1.424 2.447,0 C 2.748,1.898 2.2,0 0,0"
             style="fill:#ffffff;fill-opacity:1;fill-rule:nonzero;stroke:none"
             id="path10887" />
        </g>
      </g>
    </g>
    <text
       style="font-size:15px"
       y="451.25745"
       x="709.48755"
       id="text10889">
      <tspan
         style="font-size:16.25px;font-variant:normal;font-weight:normal;font-stretch:normal;writing-mode:lr-tb;fill:#231f20;fill-opacity:1;fill-rule:nonzero;stroke:none;font-family:Helvetica;-inkscape-font-specification:Helvetica"
         x="709.48755"
         y="451.25745"
         id="tspan10891">*</tspan>
    </text>
  </g>
</svg>
