<?xml version="1.0" encoding="UTF-8" standalone="no"?>
<!-- Created with Inkscape (http://www.inkscape.org/) -->

<svg
   xmlns:dc="http://purl.org/dc/elements/1.1/"
   xmlns:cc="http://creativecommons.org/ns#"
   xmlns:rdf="http://www.w3.org/1999/02/22-rdf-syntax-ns#"
   xmlns:svg="http://www.w3.org/2000/svg"
   xmlns="http://www.w3.org/2000/svg"
   xmlns:sodipodi="http://sodipodi.sourceforge.net/DTD/sodipodi-0.dtd"
   xmlns:inkscape="http://www.inkscape.org/namespaces/inkscape"
   width="225.625"
   height="114.0625"
   id="svg4725"
   version="1.1"
   inkscape:version="0.48.3.1 r9886"
   sodipodi:docname="New document 7">
  <defs
     id="defs4727" />
  <sodipodi:namedview
     id="base"
     pagecolor="#ffffff"
     bordercolor="#666666"
     borderopacity="1.0"
     inkscape:pageopacity="0.0"
     inkscape:pageshadow="2"
     inkscape:zoom="0.35"
     inkscape:cx="112.8125"
     inkscape:cy="57.030627"
     inkscape:document-units="px"
     inkscape:current-layer="layer1"
     showgrid="false"
     fit-margin-top="0"
     fit-margin-left="0"
     fit-margin-right="0"
     fit-margin-bottom="0"
     inkscape:window-width="451"
     inkscape:window-height="398"
     inkscape:window-x="25"
     inkscape:window-y="25"
     inkscape:window-maximized="0" />
  <metadata
     id="metadata4730">
    <rdf:RDF>
      <cc:Work
         rdf:about="">
        <dc:format>image/svg+xml</dc:format>
        <dc:type
           rdf:resource="http://purl.org/dc/dcmitype/StillImage" />
        <dc:title></dc:title>
      </cc:Work>
    </rdf:RDF>
  </metadata>
  <g
     inkscape:label="Layer 1"
     inkscape:groupmode="layer"
     id="layer1"
     transform="translate(-262.1875,-475.33031)">
    <g
       id="g3337"
       transform="matrix(1.25,0,0,-1.25,484.6875,520.64544)">
      <path
         d="m 0,0 c 0,-1.242 -1.008,-2.25 -2.25,-2.25 l -171,0 c -1.243,0 -2.25,1.008 -2.25,2.25 l 0,31.502 c 0,1.242 1.007,2.25 2.25,2.25 l 171,0 c 1.242,0 2.25,-1.008 2.25,-2.25 L 0,0 z"
         style="fill:#155196;fill-opacity:1;fill-rule:nonzero;stroke:none"
         id="path3339"
         inkscape:connector-curvature="0" />
    </g>
    <g
       id="g3341"
       transform="matrix(1.25,0,0,-1.25,268.125,523.45531)">
      <path
         d="m 0,0 c -2.481,0 -4.5,-2.019 -4.5,-4.5 l 0,-43.501 c 0,-2.48 2.019,-4.5 4.5,-4.5 l 171,0 c 2.48,0 4.5,2.02 4.5,4.5 l 0,43.501 c 0,2.481 -2.02,4.5 -4.5,4.5 L 0,0 z"
         style="fill:#ffffff;fill-opacity:1;fill-rule:nonzero;stroke:none"
         id="path3343"
         inkscape:connector-curvature="0" />
    </g>
    <g
       id="g3345"
       transform="matrix(1.25,0,0,-1.25,484.6875,583.45669)">
      <path
         d="m 0,0 c 0,-1.242 -1.008,-2.25 -2.25,-2.25 l -171,0 c -1.243,0 -2.25,1.008 -2.25,2.25 l 0,43.501 c 0,1.242 1.007,2.25 2.25,2.25 l 171,0 c 1.242,0 2.25,-1.008 2.25,-2.25 L 0,0 z"
         style="fill:#155196;fill-opacity:1;fill-rule:nonzero;stroke:none"
         id="path3347"
         inkscape:connector-curvature="0" />
    </g>
    <g
       id="g3349"
       transform="matrix(1.25,0,0,-1.25,322.55125,512.74794)">
      <path
         d="m 0,0 -5.646,12.026 0,-12.026 -2.631,0 0,17.944 2.631,0 5.004,-10.767 0,10.767 2.631,0 L 1.989,0 0,0 z"
         style="fill:#ffffff;fill-opacity:1;fill-rule:nonzero;stroke:none"
         id="path3351"
         inkscape:connector-curvature="0" />
    </g>
    <g
       id="g3353"
       transform="matrix(1.25,0,0,-1.25,330.0085,512.74794)">
      <path
         d="m 0,0 0,17.944 8.598,0 0,-2.519 -5.967,0 0,-4.533 3.785,0 0,-2.455 -3.785,0 0,-5.918 6.673,0 L 9.304,0 0,0 z"
         style="fill:#ffffff;fill-opacity:1;fill-rule:nonzero;stroke:none"
         id="path3355"
         inkscape:connector-curvature="0" />
    </g>
    <g
       id="g3357"
       transform="matrix(1.25,0,0,-1.25,353.58762,512.74794)">
      <path
         d="M 0,0 -2.566,6.107 -5.133,0 l -2.759,0 3.978,9.318 -3.721,8.626 2.759,0 2.31,-5.415 2.309,5.415 2.759,0 L -1.155,9.318 2.823,0 0,0 z"
         style="fill:#ffffff;fill-opacity:1;fill-rule:nonzero;stroke:none"
         id="path3359"
         inkscape:connector-curvature="0" />
    </g>
    <g
       id="g3361"
       transform="matrix(1.25,0,0,-1.25,365.9375,493.30906)">
      <path
         d="m 0,0 0,-15.551 -2.63,0 0,15.551 -3.337,0 0,2.393 9.303,0 L 3.336,0 0,0 z"
         style="fill:#ffffff;fill-opacity:1;fill-rule:nonzero;stroke:none"
         id="path3363"
         inkscape:connector-curvature="0" />
    </g>
    <g
       id="g3365"
       transform="matrix(1.25,0,0,-1.25,384.62375,512.74794)">
      <path
         d="m 0,0 0,17.944 2.63,0 0,-15.551 6.673,0 L 9.303,0 0,0 z"
         style="fill:#ffffff;fill-opacity:1;fill-rule:nonzero;stroke:none"
         id="path3367"
         inkscape:connector-curvature="0" />
    </g>
    <g
       id="g3369"
       transform="matrix(1.25,0,0,-1.25,399.46,512.74794)">
      <path
         d="m 0,0 0,17.944 8.598,0 0,-2.519 -5.967,0 0,-4.533 3.785,0 0,-2.455 -3.785,0 0,-5.918 6.673,0 L 9.304,0 0,0 z"
         style="fill:#ffffff;fill-opacity:1;fill-rule:nonzero;stroke:none"
         id="path3371"
         inkscape:connector-curvature="0" />
    </g>
    <g
       id="g3373"
       transform="matrix(1.25,0,0,-1.25,418.2275,493.46669)">
      <path
         d="m 0,0 0,-4.533 3.657,0 0,-2.455 -3.657,0 0,-8.437 -2.631,0 0,17.944 9.303,0 L 6.672,0 0,0 z"
         style="fill:#ffffff;fill-opacity:1;fill-rule:nonzero;stroke:none"
         id="path3375"
         inkscape:connector-curvature="0" />
    </g>
    <g
       id="g3377"
       transform="matrix(1.25,0,0,-1.25,435.47,493.30906)">
      <path
         d="m 0,0 0,-15.551 -2.631,0 0,15.551 -3.336,0 0,2.393 9.303,0 L 3.336,0 0,0 z"
         style="fill:#ffffff;fill-opacity:1;fill-rule:nonzero;stroke:none"
         id="path3379"
         inkscape:connector-curvature="0" />
    </g>
    <g
       id="g3381"
       transform="matrix(1.25,0,0,-1.25,268.125,475.64281)">
      <path
         d="m 0,0 c -2.481,0 -4.5,-2.019 -4.5,-4.5 l 0,-81.751 c 0,-2.48 2.019,-4.5 4.5,-4.5 l 171,0 c 2.48,0 4.5,2.02 4.5,4.5 l 0,81.751 c 0,2.481 -2.02,4.5 -4.5,4.5 L 0,0 z"
         style="fill:none;stroke:#231f20;stroke-width:0.5;stroke-linecap:butt;stroke-linejoin:miter;stroke-miterlimit:4;stroke-opacity:1;stroke-dasharray:none"
         id="path3383"
         inkscape:connector-curvature="0" />
    </g>
    <g
       id="g3743"
       transform="matrix(1.25,0,0,-1.25,321.825,551.50906)">
      <path
         d="m 0,0 c -0.794,-0.798 -1.885,-1.254 -3.075,-1.254 -2.43,0 -4.215,1.653 -5.158,4.105 L -6.1,3.763 c 0.595,-1.539 1.686,-2.394 3.025,-2.394 1.289,0 2.182,1.025 2.182,2.394 0,2.166 -2.182,2.508 -4.017,3.363 -0.843,0.399 -2.728,1.368 -2.728,4.048 0,3.192 1.885,4.389 4.414,4.389 1.984,0 3.323,-1.311 4.017,-3.306 l -1.984,-0.684 c 0,0 -0.496,1.368 -2.083,1.425 -1.04,0.057 -2.281,-0.399 -2.181,-1.881 C -5.257,8.095 1.388,10.091 1.388,3.706 1.388,2.224 0.893,0.913 0,0"
         style="fill:#ffffff;fill-opacity:1;fill-rule:nonzero;stroke:none"
         id="path3745"
         inkscape:connector-curvature="0" />
    </g>
    <g
       id="g3747"
       transform="matrix(1.25,0,0,-1.25,332.42312,535.26156)">
      <path
         d="m 0,0 0,-13.967 -2.231,0 0,13.967 -3.224,0 0,2.28 8.728,0 L 3.273,0 0,0 z"
         style="fill:#ffffff;fill-opacity:1;fill-rule:nonzero;stroke:none"
         id="path3749"
         inkscape:connector-curvature="0" />
    </g>
    <g
       id="g3751"
       transform="matrix(1.25,0,0,-1.25,339.7375,552.72031)">
      <path
         d="m 0,0 0,16.247 8.331,0 0,-2.565 -6.099,0 0,-3.99 4.116,0 0,-2.623 -4.116,0 0,-4.447 6.545,0 L 8.777,0 0,0 z"
         style="fill:#ffffff;fill-opacity:1;fill-rule:nonzero;stroke:none"
         id="path3753"
         inkscape:connector-curvature="0" />
    </g>
    <g
       id="g3755"
       transform="matrix(1.25,0,0,-1.25,365.8325,552.72031)">
      <path
         d="M 0,0 -1.983,0 -4.216,10.432 -6.397,0 l -1.984,0 -2.083,16.247 2.281,0 1.091,-8.551 1.785,8.551 2.183,0 1.835,-8.551 1.091,8.551 2.281,0 L 0,0 z"
         style="fill:#ffffff;fill-opacity:1;fill-rule:nonzero;stroke:none"
         id="path3757"
         inkscape:connector-curvature="0" />
    </g>
    <g
       id="g3759"
       transform="matrix(1.25,0,0,-1.25,377.60988,538.04156)">
      <path
         d="m 0,0 -1.439,-4.56 2.827,0 L 0,0 z m 3.57,-11.743 -1.388,4.561 -4.414,0 -1.388,-4.561 -2.381,0 4.86,16.247 2.232,0 4.859,-16.247 -2.38,0 z"
         style="fill:#ffffff;fill-opacity:1;fill-rule:nonzero;stroke:none"
         id="path3761"
         inkscape:connector-curvature="0" />
    </g>
    <g
       id="g3763"
       transform="matrix(1.25,0,0,-1.25,396.08,535.97419)">
      <path
         d="m 0,0 c -0.346,0.228 -0.545,0.285 -1.289,0.285 l -2.678,0 0,-3.99 2.678,0 c 0.695,0 0.943,0.056 1.289,0.284 0.546,0.343 0.893,1.027 0.893,1.711 C 0.893,-1.026 0.546,-0.342 0,0 m 0.992,-13.397 -2.281,7.069 -2.678,0 0,-7.069 -2.231,0 0,16.247 4.661,0 c 1.091,0 1.835,-0.114 2.529,-0.513 1.24,-0.684 2.132,-2.394 2.132,-4.047 0,-1.711 -0.892,-3.421 -2.181,-4.105 l 2.479,-7.582 -2.43,0 z"
         style="fill:#ffffff;fill-opacity:1;fill-rule:nonzero;stroke:none"
         id="path3765"
         inkscape:connector-curvature="0" />
    </g>
    <g
       id="g3767"
       transform="matrix(1.25,0,0,-1.25,411.7,536.47281)">
      <path
         d="m 0,0 c -0.346,0.399 -0.842,0.684 -1.437,0.684 l -2.529,0 0,-11.06 2.231,0 c 0.744,0 1.19,0.172 1.587,0.628 0.843,0.969 1.289,2.736 1.289,4.902 C 1.141,-2.679 0.695,-0.855 0,0 m 0.943,-12.086 c -0.546,-0.57 -1.289,-0.855 -2.033,-0.912 l -0.793,0 -4.315,0 0,16.247 4.562,0 c 1.438,0 1.984,-0.171 2.727,-0.855 1.488,-1.482 2.331,-4.048 2.331,-7.24 0,-3.249 -0.892,-5.814 -2.479,-7.24"
         style="fill:#ffffff;fill-opacity:1;fill-rule:nonzero;stroke:none"
         id="path3769"
         inkscape:connector-curvature="0" />
    </g>
    <g
       id="g3771"
       transform="matrix(1.25,0,0,-1.25,423.47875,540.53531)">
      <path
         d="m 0,0 -1.835,0 -0.446,6.499 2.727,0 L 0,0 z"
         style="fill:#ffffff;fill-opacity:1;fill-rule:nonzero;stroke:none"
         id="path3773"
         inkscape:connector-curvature="0" />
    </g>
    <g
       id="g3775"
       transform="matrix(1.25,0,0,-1.25,438.1075,551.50906)">
      <path
         d="m 0,0 c -0.794,-0.798 -1.884,-1.254 -3.075,-1.254 -2.43,0 -4.215,1.653 -5.157,4.105 l 2.133,0.912 c 0.594,-1.539 1.685,-2.394 3.024,-2.394 1.29,0 2.183,1.025 2.183,2.394 0,2.166 -2.183,2.508 -4.018,3.363 -0.843,0.399 -2.727,1.368 -2.727,4.048 0,3.192 1.884,4.389 4.414,4.389 1.983,0 3.322,-1.311 4.016,-3.306 L -1.19,11.573 c 0,0 -0.496,1.368 -2.083,1.425 -1.041,0.057 -2.281,-0.399 -2.182,-1.881 C -5.257,8.095 1.389,10.091 1.389,3.706 1.389,2.224 0.893,0.913 0,0"
         style="fill:#ffffff;fill-opacity:1;fill-rule:nonzero;stroke:none"
         id="path3777"
         inkscape:connector-curvature="0" />
    </g>
    <g
       id="g3779"
       transform="matrix(1.25,0,0,-1.25,318.47775,580.57669)">
      <path
         d="M 0,0 C -1.29,0 -2.579,0.627 -3.522,1.653 -3.818,1.995 -4.017,2.28 -4.364,2.965 l 2.033,1.083 C -1.637,3.022 -0.942,2.623 0,2.623 c 1.537,0 2.38,1.14 2.38,3.078 l 0,10.831 2.281,0 0,-11.344 C 4.661,2.109 2.777,0 0,0"
         style="fill:#ffffff;fill-opacity:1;fill-rule:nonzero;stroke:none"
         id="path3781"
         inkscape:connector-curvature="0" />
    </g>
    <g
       id="g3783"
       transform="matrix(1.25,0,0,-1.25,329.13937,580.22031)">
      <path
         d="m 0,0 0,16.247 8.331,0 0,-2.565 -6.099,0 0,-3.99 4.116,0 0,-2.623 -4.116,0 0,-4.447 6.545,0 L 8.777,0 0,0 z"
         style="fill:#ffffff;fill-opacity:1;fill-rule:nonzero;stroke:none"
         id="path3785"
         inkscape:connector-curvature="0" />
    </g>
    <g
       id="g3787"
       transform="matrix(1.25,0,0,-1.25,348.97462,562.76156)">
      <path
         d="m 0,0 0,-13.967 -2.232,0 0,13.967 -3.223,0 0,2.28 8.728,0 L 3.273,0 0,0 z"
         style="fill:#ffffff;fill-opacity:1;fill-rule:nonzero;stroke:none"
         id="path3789"
         inkscape:connector-curvature="0" />
    </g>
    <g
       id="g3791"
       transform="matrix(1.25,0,0,-1.25,373.2105,571.52669)">
      <path
         d="m 0,0 c -0.298,0.114 -0.446,0.114 -0.942,0.114 l -2.827,0 0,-4.447 3.373,0 c 1.14,0 1.735,0.628 1.735,1.882 C 1.339,-1.368 0.794,-0.342 0,0 m -0.496,6.727 -3.273,0 0,-3.99 2.678,0 c 0.645,0 0.943,0.113 1.339,0.456 0.496,0.456 0.793,1.139 0.793,1.881 0,1.083 -0.545,1.653 -1.537,1.653 M 1.339,-6.556 C 0.843,-6.784 0,-6.955 -0.645,-6.955 l -5.355,0 0,16.247 5.355,0 C 1.587,9.292 3.273,7.525 3.273,5.188 3.273,3.592 2.629,2.395 1.289,1.539 2.777,0.741 3.62,-0.627 3.62,-2.394 3.62,-4.162 2.678,-5.928 1.339,-6.556"
         style="fill:#ffffff;fill-opacity:1;fill-rule:nonzero;stroke:none"
         id="path3793"
         inkscape:connector-curvature="0" />
    </g>
    <g
       id="g3795"
       transform="matrix(1.25,0,0,-1.25,389.63625,564.40157)">
      <path
         d="m 0,0 c -0.446,0.856 -0.991,1.198 -1.835,1.255 -1.091,0.057 -1.785,-0.57 -2.281,-1.996 -0.347,-0.968 -0.545,-2.451 -0.545,-3.819 0,-1.71 0.298,-3.478 0.843,-4.503 0.446,-0.855 1.041,-1.254 1.934,-1.254 1.041,0 1.686,0.627 2.182,2.052 0.298,0.854 0.546,2.451 0.546,3.705 C 0.844,-2.736 0.546,-1.083 0,0 m 1.537,-11.116 c -0.793,-1.254 -1.933,-1.824 -3.421,-1.824 -1.984,0 -3.223,0.912 -4.067,2.907 -0.595,1.368 -0.991,3.534 -0.991,5.473 0,2.68 0.594,5.073 1.537,6.613 0.842,1.254 1.983,1.824 3.62,1.824 1.785,0 3.025,-0.912 3.918,-2.907 0.595,-1.426 0.942,-3.477 0.942,-5.53 0,-2.566 -0.546,-5.13 -1.538,-6.556"
         style="fill:#ffffff;fill-opacity:1;fill-rule:nonzero;stroke:none"
         id="path3797"
         inkscape:connector-curvature="0" />
    </g>
    <g
       id="g3799"
       transform="matrix(1.25,0,0,-1.25,403.955,565.54156)">
      <path
         d="m 0,0 -1.438,-4.56 2.826,0 L 0,0 z m 3.57,-11.743 -1.388,4.561 -4.414,0 -1.388,-4.561 -2.381,0 4.86,16.247 2.232,0 4.859,-16.247 -2.38,0 z"
         style="fill:#ffffff;fill-opacity:1;fill-rule:nonzero;stroke:none"
         id="path3801"
         inkscape:connector-curvature="0" />
    </g>
    <g
       id="g3803"
       transform="matrix(1.25,0,0,-1.25,419.94625,562.76156)">
      <path
         d="m 0,0 0,-13.967 -2.231,0 0,13.967 -3.224,0 0,2.28 8.728,0 L 3.273,0 0,0 z"
         style="fill:#ffffff;fill-opacity:1;fill-rule:nonzero;stroke:none"
         id="path3805"
         inkscape:connector-curvature="0" />
    </g>
    <g
       id="g3807"
       transform="matrix(1.25,0,0,-1.25,436.31,579.00906)">
      <path
         d="m 0,0 c -0.794,-0.798 -1.885,-1.254 -3.075,-1.254 -2.43,0 -4.215,1.653 -5.158,4.105 L -6.1,3.763 c 0.595,-1.539 1.686,-2.394 3.025,-2.394 1.289,0 2.182,1.025 2.182,2.394 0,2.167 -2.182,2.508 -4.017,3.363 -0.843,0.399 -2.728,1.368 -2.728,4.048 0,3.192 1.885,4.389 4.414,4.389 1.984,0 3.322,-1.311 4.017,-3.306 l -1.984,-0.685 c 0,0 -0.496,1.369 -2.083,1.426 -1.041,0.057 -2.281,-0.399 -2.181,-1.881 C -5.257,8.096 1.388,10.091 1.388,3.706 1.388,2.224 0.892,0.912 0,0"
         style="fill:#ffffff;fill-opacity:1;fill-rule:nonzero;stroke:none"
         id="path3809"
         inkscape:connector-curvature="0" />
    </g>
  </g>
</svg>
