<?xml version="1.0" encoding="UTF-8" standalone="no"?>
<!-- Created with Inkscape (http://www.inkscape.org/) -->

<svg
   xmlns:dc="http://purl.org/dc/elements/1.1/"
   xmlns:cc="http://creativecommons.org/ns#"
   xmlns:rdf="http://www.w3.org/1999/02/22-rdf-syntax-ns#"
   xmlns:svg="http://www.w3.org/2000/svg"
   xmlns="http://www.w3.org/2000/svg"
   xmlns:sodipodi="http://sodipodi.sourceforge.net/DTD/sodipodi-0.dtd"
   xmlns:inkscape="http://www.inkscape.org/namespaces/inkscape"
   width="82.248749"
   height="114.9875"
   id="svg3290"
   version="1.1"
   inkscape:version="0.48.2 r9819"
   sodipodi:docname="New document 4">
  <defs
     id="defs3292">
    <clipPath
       clipPathUnits="userSpaceOnUse"
       id="clipPath3205">
      <path
         inkscape:connector-curvature="0"
         d="m 27,602.99 513,0 0,134.26 -513,0 0,-134.26 z"
         id="path3207" />
    </clipPath>
  </defs>
  <sodipodi:namedview
     id="base"
     pagecolor="#ffffff"
     bordercolor="#666666"
     borderopacity="1.0"
     inkscape:pageopacity="0.0"
     inkscape:pageshadow="2"
     inkscape:zoom="0.35"
     inkscape:cx="-61.018485"
     inkscape:cy="-108.22051"
     inkscape:document-units="px"
     inkscape:current-layer="layer1"
     showgrid="false"
     fit-margin-top="0"
     fit-margin-left="0"
     fit-margin-right="0"
     fit-margin-bottom="0"
     inkscape:window-width="469"
     inkscape:window-height="425"
     inkscape:window-x="125"
     inkscape:window-y="125"
     inkscape:window-maximized="0" />
  <metadata
     id="metadata3295">
    <rdf:RDF>
      <cc:Work
         rdf:about="">
        <dc:format>image/svg+xml</dc:format>
        <dc:type
           rdf:resource="http://purl.org/dc/dcmitype/StillImage" />
        <dc:title></dc:title>
      </cc:Work>
    </rdf:RDF>
  </metadata>
  <g
     inkscape:label="Layer 1"
     inkscape:groupmode="layer"
     id="layer1"
     transform="translate(-436.01848,-309.15417)">
    <g
       id="g3201"
       transform="matrix(1.25,0,0,-1.25,370.32661,1203.3298)">
      <g
         id="g3203"
         clip-path="url(#clipPath3205)">
        <g
           id="g3209"
           transform="translate(117.853,630.3501)">
          <path
             d="m 0,0 c 0,-3.575 -2.925,-6.5 -6.5,-6.5 l -51.801,0 c -3.575,0 -6.499,2.925 -6.499,6.5 l 0,77.99 c 0,3.576 2.924,6.5 6.499,6.5 l 51.801,0 c 3.575,0 6.5,-2.924 6.5,-6.5 L 0,0 z"
             style="fill:#ffffff;fill-opacity:1;fill-rule:nonzero;stroke:none"
             id="path3211"
             inkscape:connector-curvature="0" />
        </g>
        <g
           id="g3213"
           transform="translate(117.853,630.3501)">
          <path
             d="m 0,0 c 0,-3.575 -2.925,-6.5 -6.5,-6.5 l -51.801,0 c -3.575,0 -6.499,2.925 -6.499,6.5 l 0,77.99 c 0,3.576 2.924,6.5 6.499,6.5 l 51.801,0 c 3.575,0 6.5,-2.924 6.5,-6.5 L 0,0 z"
             style="fill:none;stroke:#231f20;stroke-width:0.008;stroke-linecap:butt;stroke-linejoin:miter;stroke-miterlimit:4;stroke-opacity:1;stroke-dasharray:none"
             id="path3215"
             inkscape:connector-curvature="0" />
        </g>
        <g
           id="g3217"
           transform="translate(111.3535,715.3405)">
          <path
             d="m 0,0 -51.801,0 c -3.86,0 -6.999,-3.14 -6.999,-7 l 0,-77.99 c 0,-3.86 3.139,-7 6.999,-7 l 51.801,0 c 3.859,0 6.999,3.14 6.999,7 l 0,77.99 c 0,3.86 -3.14,7 -6.999,7 m 0,-0.5 c 3.575,0 6.5,-2.925 6.5,-6.5 l 0,-77.99 c 0,-3.575 -2.925,-6.5 -6.5,-6.5 l -51.801,0 c -3.575,0 -6.499,2.925 -6.499,6.5 l 0,77.99 c 0,3.575 2.924,6.5 6.499,6.5 L 0,-0.5"
             style="fill:#231f20;fill-opacity:1;fill-rule:nonzero;stroke:none"
             id="path3219"
             inkscape:connector-curvature="0" />
        </g>
        <g
           id="g3221"
           transform="translate(54.6777,630.3501)">
          <path
             d="M 0,0 C 0,-1.295 0.509,-2.517 1.434,-3.441 2.358,-4.366 3.58,-4.875 4.875,-4.875 l 51.801,0 c 1.295,0 2.517,0.509 3.441,1.434 0.924,0.924 1.434,2.146 1.434,3.441 l 0,58.493 L 0,58.493 0,0 z"
             style="fill:#00674c;fill-opacity:1;fill-rule:nonzero;stroke:none"
             id="path3223"
             inkscape:connector-curvature="0" />
        </g>
        <g
           id="g3225"
           transform="translate(114.7949,711.7818)">
          <path
             d="m 0,0 c -0.924,0.924 -2.147,1.434 -3.441,1.434 l -51.802,0 c -1.295,0 -2.516,-0.51 -3.441,-1.434 -0.924,-0.924 -1.433,-2.146 -1.433,-3.441 l 0,-19.497 61.551,0 0,19.497 C 1.434,-2.146 0.924,-0.924 0,0"
             style="fill:#231f20;fill-opacity:1;fill-rule:nonzero;stroke:none"
             id="path3227"
             inkscape:connector-curvature="0" />
        </g>
        <g
           id="g3229"
           transform="translate(90.1421,653.5895)">
          <path
             d="M 0,0 C -0.01,0.006 -0.019,0.012 -0.027,0.018 -0.087,0.05 -0.148,0.074 -0.21,0.091 -0.216,0.093 -0.221,0.097 -0.227,0.098 l 0,-0.003 C -0.248,0.101 -0.269,0.107 -0.29,0.111 l -0.209,0.029 -15.317,2.968 -0.288,0.04 c -0.288,0.041 -0.576,-0.054 -0.767,-0.246 -0.219,-0.219 -0.315,-0.506 -0.26,-0.779 l 0.038,-0.192 2.992,-15.364 0.043,-0.269 c 0.042,-0.178 0.124,-0.315 0.261,-0.451 0.342,-0.342 0.903,-0.356 1.259,0 0.041,0.041 0.081,0.109 0.108,0.165 l 0.092,0.163 3.361,5.468 12.271,-13.366 4.474,4.473 -13.339,12.271 -0.027,0 5.386,3.311 0.196,0.138 c 0.068,0.041 0.136,0.082 0.191,0.136 0.342,0.342 0.342,0.916 0,1.258 C 0.12,-0.08 0.061,-0.037 0,0"
             style="fill:#ffffff;fill-opacity:1;fill-rule:nonzero;stroke:none"
             id="path3231"
             inkscape:connector-curvature="0" />
        </g>
        <g
           id="g3233"
           transform="translate(81.896,700.9879)">
          <path
             d="M 0,0 3.596,7.25 7.304,0 3.596,-7.303 0,0 z m 3.592,9.719 -4.83,-9.718 4.83,-9.78 4.952,9.78 -4.952,9.718 z"
             style="fill:#ffffff;fill-opacity:1;fill-rule:nonzero;stroke:none"
             id="path3235"
             inkscape:connector-curvature="0" />
        </g>
        <g
           id="g3237"
           transform="translate(61.5292,666.4323)">
          <path
             d="m 0,0 0,12.998 9.521,0 0,-2.326 -7.141,0 0,-2.417 3.891,0 0,-2.372 -3.891,0 0,-3.558 7.369,0 L 9.749,0 0,0 z"
             style="fill:#ffffff;fill-opacity:1;fill-rule:nonzero;stroke:none"
             id="path3239"
             inkscape:connector-curvature="0" />
        </g>
        <path
           d="m 91.73,679.43 2.34,0 0,-12.998 -2.34,0 0,12.998 z"
           style="fill:#ffffff;fill-opacity:1;fill-rule:nonzero;stroke:none"
           id="path3241"
           inkscape:connector-curvature="0" />
        <g
           id="g3243"
           transform="translate(104.9131,677.15)">
          <path
             d="m 0,0 0,-10.718 -2.277,0 0,10.718 -3.736,0 0,2.28 9.749,0 L 3.736,0 0,0 z"
             style="fill:#ffffff;fill-opacity:1;fill-rule:nonzero;stroke:none"
             id="path3245"
             inkscape:connector-curvature="0" />
        </g>
        <g
           id="g3247"
           transform="translate(84.0229,666.4323)">
          <path
             d="M 0,0 -2.932,4.606 -5.818,0 l -2.748,0 4.259,6.841 -3.893,6.157 2.795,0 2.473,-3.968 2.474,3.968 2.794,0 L -1.512,6.841 2.749,0 0,0 z"
             style="fill:#ffffff;fill-opacity:1;fill-rule:nonzero;stroke:none"
             id="path3249"
             inkscape:connector-curvature="0" />
        </g>
      </g>
    </g>
  </g>
</svg>
