<?xml version="1.0" encoding="UTF-8" standalone="no"?>
<!-- Created with Inkscape (http://www.inkscape.org/) -->

<svg
   xmlns:dc="http://purl.org/dc/elements/1.1/"
   xmlns:cc="http://creativecommons.org/ns#"
   xmlns:rdf="http://www.w3.org/1999/02/22-rdf-syntax-ns#"
   xmlns:svg="http://www.w3.org/2000/svg"
   xmlns="http://www.w3.org/2000/svg"
   xmlns:sodipodi="http://sodipodi.sourceforge.net/DTD/sodipodi-0.dtd"
   xmlns:inkscape="http://www.inkscape.org/namespaces/inkscape"
   width="80.243752"
   height="68.870003"
   id="svg10994"
   version="1.1"
   inkscape:version="0.48.2 r9819"
   sodipodi:docname="New document 48">
  <defs
     id="defs10996">
    <clipPath
       clipPathUnits="userSpaceOnUse"
       id="clipPath7318">
      <path
         inkscape:connector-curvature="0"
         d="m 27,185.117 513,0 0,552.134 -513,0 0,-552.134 z"
         id="path7320" />
    </clipPath>
  </defs>
  <sodipodi:namedview
     id="base"
     pagecolor="#ffffff"
     bordercolor="#666666"
     borderopacity="1.0"
     inkscape:pageopacity="0.0"
     inkscape:pageshadow="2"
     inkscape:zoom="0.35"
     inkscape:cx="106.55044"
     inkscape:cy="-45.564958"
     inkscape:document-units="px"
     inkscape:current-layer="layer1"
     showgrid="false"
     fit-margin-top="0"
     fit-margin-left="0"
     fit-margin-right="0"
     fit-margin-bottom="0"
     inkscape:window-width="469"
     inkscape:window-height="425"
     inkscape:window-x="1591"
     inkscape:window-y="225"
     inkscape:window-maximized="0" />
  <metadata
     id="metadata10999">
    <rdf:RDF>
      <cc:Work
         rdf:about="">
        <dc:format>image/svg+xml</dc:format>
        <dc:type
           rdf:resource="http://purl.org/dc/dcmitype/StillImage" />
        <dc:title></dc:title>
      </cc:Work>
    </rdf:RDF>
  </metadata>
  <g
     inkscape:label="Layer 1"
     inkscape:groupmode="layer"
     id="layer1"
     transform="translate(-268.44956,-417.92723)">
    <g
       transform="matrix(1.25,0,0,-1.25,-148.46707,1012.8431)"
       id="g7314">
      <g
         id="g7316"
         clip-path="url(#clipPath7318)">
        <g
           id="g7322"
           transform="translate(397.4783,424.4997)">
          <path
             inkscape:connector-curvature="0"
             d="m 0,0 c 0,-1.885 -1.527,-3.413 -3.412,-3.413 l -56.871,0 c -1.885,0 -3.412,1.528 -3.412,3.413 l 0,47.771 c 0,1.885 1.527,3.412 3.412,3.412 l 56.871,0 C -1.527,51.183 0,49.656 0,47.771 L 0,0 z"
             style="fill:#ffffff;fill-opacity:1;fill-rule:nonzero;stroke:none"
             id="path7324" />
        </g>
        <g
           id="g7326"
           transform="translate(397.4783,424.4997)">
          <path
             inkscape:connector-curvature="0"
             d="m 0,0 c 0,-1.885 -1.527,-3.413 -3.412,-3.413 l -56.871,0 c -1.885,0 -3.412,1.528 -3.412,3.413 l 0,47.771 c 0,1.885 1.527,3.412 3.412,3.412 l 56.871,0 C -1.527,51.183 0,49.656 0,47.771 L 0,0 z"
             style="fill:none;stroke:#231f20;stroke-width:0.5;stroke-linecap:butt;stroke-linejoin:miter;stroke-miterlimit:4;stroke-opacity:1;stroke-dasharray:none"
             id="path7328" />
        </g>
        <g
           id="g7330"
           transform="translate(395.2033,424.4997)">
          <path
             inkscape:connector-curvature="0"
             d="m 0,0 c 0,-0.627 -0.51,-1.137 -1.137,-1.137 l -56.871,0 c -0.627,0 -1.139,0.51 -1.139,1.137 l 0,47.771 c 0,0.627 0.512,1.139 1.139,1.139 l 56.871,0 C -0.51,48.91 0,48.398 0,47.771 L 0,0 z m -1.137,50.236 -56.871,0 c -1.359,0 -2.465,-1.106 -2.465,-2.465 l 0,-47.771 c 0,-1.36 1.106,-2.465 2.465,-2.465 l 56.871,0 c 1.36,0 2.465,1.105 2.465,2.465 l 0,47.771 c 0,1.359 -1.105,2.465 -2.465,2.465"
             style="fill:#231f20;fill-opacity:1;fill-rule:nonzero;stroke:none"
             id="path7332" />
        </g>
        <g
           id="g7334"
           transform="translate(358.2673,458.9387)">
          <path
             inkscape:connector-curvature="0"
             d="m 0,0 -2.002,0 0,2.549 2.002,0 c 0.329,0 0.616,-0.11 0.866,-0.328 C 1.137,1.984 1.274,1.668 1.274,1.273 1.274,0.424 0.85,0 0,0 M 0.694,4.238 C 0.489,4.08 0.264,4.002 0.02,4.002 l -2.022,0 0,2.189 1.913,0 c 0.31,0 0.572,-0.076 0.783,-0.228 C 0.961,5.775 1.096,5.492 1.096,5.115 1.096,4.744 0.961,4.451 0.694,4.238 M 1.42,3.277 C 2.172,3.709 2.549,4.32 2.549,5.115 2.549,5.85 2.301,6.455 1.807,6.932 1.313,7.408 0.694,7.644 -0.052,7.644 l -3.403,0 0,-9.097 3.455,0 c 0.788,0 1.44,0.26 1.956,0.781 0.513,0.522 0.771,1.172 0.771,1.947 0,0.953 -0.436,1.619 -1.307,2.002 M -3.455,3.014 c -0.002,0 -0.002,0.004 -0.002,0.009 l 0.002,0.01 0,-0.01 0,-0.009 z"
             style="fill:#231f20;fill-opacity:1;fill-rule:nonzero;stroke:none"
             id="path7336" />
        </g>
        <g
           id="g7338"
           transform="translate(368.7284,460.4207)">
          <path
             inkscape:connector-curvature="0"
             d="m 0,0 c 0,-0.777 -0.281,-1.464 -0.845,-2.066 -0.608,-0.643 -1.358,-0.965 -2.25,-0.965 -0.899,0 -1.649,0.318 -2.25,0.955 C -5.91,-1.48 -6.191,-0.789 -6.191,0 l 0,6.162 1.453,0 0,-6.164 c 0,-0.443 0.16,-0.816 0.484,-1.121 0.323,-0.302 0.709,-0.455 1.159,-0.455 0.457,0 0.843,0.153 1.164,0.455 0.32,0.305 0.478,0.678 0.478,1.121 l 0,6.164 L 0,6.162 0,0 z"
             style="fill:#231f20;fill-opacity:1;fill-rule:nonzero;stroke:none"
             id="path7340" />
        </g>
        <g
           id="g7342"
           transform="translate(376.4693,460.1867)">
          <path
             inkscape:connector-curvature="0"
             d="m 0,0 c 0,-0.82 -0.295,-1.49 -0.883,-2.014 -0.59,-0.521 -1.315,-0.783 -2.178,-0.783 -1.092,0 -1.941,0.395 -2.549,1.184 -0.256,0.328 -0.449,0.724 -0.584,1.185 L -4.844,0 c 0.25,-0.895 0.851,-1.344 1.805,-1.344 0.406,0 0.765,0.119 1.076,0.356 0.34,0.261 0.509,0.59 0.509,0.984 0,0.516 -0.386,0.926 -1.158,1.231 -0.717,0.279 -1.433,0.558 -2.15,0.837 -0.772,0.45 -1.156,1.106 -1.156,1.967 0,0.737 0.211,1.317 0.636,1.74 0.485,0.481 1.215,0.721 2.192,0.721 1.273,0 2.189,-0.613 2.748,-1.842 L -1.698,4.223 c -0.261,0.543 -0.722,0.816 -1.384,0.816 -0.922,0 -1.383,-0.334 -1.383,-1.002 0,-0.432 0.385,-0.777 1.156,-1.039 C -2.1,2.584 -1.383,2.309 -1.159,2.168 -0.387,1.684 0,0.961 0,0"
             style="fill:#231f20;fill-opacity:1;fill-rule:nonzero;stroke:none"
             id="path7344" />
        </g>
        <g
           id="g7346"
           transform="translate(356.6234,443.8347)">
          <path
             inkscape:connector-curvature="0"
             d="m 0,0 -5.643,0 0,9.1 1.453,0 0,-7.646 4.19,0 L 0,0 z"
             style="fill:#231f20;fill-opacity:1;fill-rule:nonzero;stroke:none"
             id="path7348" />
        </g>
        <g
           id="g7350"
           transform="translate(361.9983,447.8367)">
          <path
             inkscape:connector-curvature="0"
             d="M 0,0 -0.955,2.778 -1.9,0 0,0 z m 2.912,-4.002 -1.537,0 -0.873,2.549 -2.922,0 -0.855,-2.549 -1.547,0 3.13,9.1 1.473,0 3.131,-9.1 z"
             style="fill:#231f20;fill-opacity:1;fill-rule:nonzero;stroke:none"
             id="path7352" />
        </g>
        <g
           id="g7354"
           transform="translate(372.4493,443.8347)">
          <path
             inkscape:connector-curvature="0"
             d="m 0,0 -1.393,0 -3.326,6.034 0,-6.034 -1.453,0 0,9.1 1.412,0 3.307,-5.996 0,5.996 L 0,9.1 0,0 z"
             style="fill:#231f20;fill-opacity:1;fill-rule:nonzero;stroke:none"
             id="path7356" />
        </g>
        <g
           id="g7358"
           transform="translate(380.2794,443.8347)">
          <path
             inkscape:connector-curvature="0"
             d="m 0,0 -5.64,0 0,9.1 5.459,0 0,-1.453 -4.006,0 0,-2.191 2.769,0 0,-1.454 -2.769,0 0,-2.548 L 0,1.454 0,0 z"
             style="fill:#231f20;fill-opacity:1;fill-rule:nonzero;stroke:none"
             id="path7360" />
        </g>
        <g
           id="g7362"
           transform="translate(350.8904,434.1887)">
          <path
             inkscape:connector-curvature="0"
             d="M 0,0 -0.955,2.777 -1.9,0 0,0 z m 2.913,-4.002 -1.538,0 -0.873,2.549 -2.921,0 -0.856,-2.549 -1.547,0 3.131,9.1 1.473,0 3.131,-9.1 z"
             style="fill:#231f20;fill-opacity:1;fill-rule:nonzero;stroke:none"
             id="path7364" />
        </g>
        <g
           id="g7366"
           transform="translate(361.3514,430.1867)">
          <path
             inkscape:connector-curvature="0"
             d="m 0,0 -1.453,0 0,4.002 -3.285,0 0,-4.002 -1.453,0 0,9.1 1.453,0 0,-3.645 3.285,0 0,3.645 L 0,9.1 0,0 z"
             style="fill:#231f20;fill-opacity:1;fill-rule:nonzero;stroke:none"
             id="path7368" />
        </g>
        <g
           id="g7370"
           transform="translate(369.1723,430.1867)">
          <path
             inkscape:connector-curvature="0"
             d="m 0,0 -5.641,0 0,9.1 5.459,0 0,-1.454 -4.006,0 0,-2.191 2.77,0 0,-1.453 -2.77,0 0,-2.549 L 0,1.453 0,0 z"
             style="fill:#231f20;fill-opacity:1;fill-rule:nonzero;stroke:none"
             id="path7372" />
        </g>
        <g
           id="g7374"
           transform="translate(374.7304,434.1887)">
          <path
             inkscape:connector-curvature="0"
             d="M 0,0 -0.955,2.777 -1.9,0 0,0 z m 2.912,-4.002 -1.537,0 -0.873,2.549 -2.922,0 -0.855,-2.549 -1.547,0 3.131,9.1 1.473,0 3.13,-9.1 z"
             style="fill:#231f20;fill-opacity:1;fill-rule:nonzero;stroke:none"
             id="path7376" />
        </g>
        <g
           id="g7378"
           transform="translate(383.7384,434.7357)">
          <path
             inkscape:connector-curvature="0"
             d="M 0,0 C 0,1.347 -0.258,2.256 -0.775,2.724 -1.049,2.972 -1.451,3.097 -1.98,3.097 l -1.305,0 0,-6.193 1.27,0 c 0.535,0 0.941,0.125 1.222,0.373 C -0.264,-2.254 0,-1.348 0,0 m 1.453,0 c 0,-1.928 -0.506,-3.256 -1.519,-3.985 -0.53,-0.376 -1.178,-0.564 -1.949,-0.564 l -2.723,0 0,9.1 2.723,0 c 0.771,0 1.419,-0.192 1.949,-0.575 C 0.947,3.256 1.453,1.93 1.453,0"
             style="fill:#231f20;fill-opacity:1;fill-rule:nonzero;stroke:none"
             id="path7380" />
        </g>
      </g>
    </g>
  </g>
</svg>
