<?xml version="1.0" encoding="UTF-8" standalone="no"?>
<!-- Created with Inkscape (http://www.inkscape.org/) -->

<svg
   xmlns:dc="http://purl.org/dc/elements/1.1/"
   xmlns:cc="http://creativecommons.org/ns#"
   xmlns:rdf="http://www.w3.org/1999/02/22-rdf-syntax-ns#"
   xmlns:svg="http://www.w3.org/2000/svg"
   xmlns="http://www.w3.org/2000/svg"
   xmlns:sodipodi="http://sodipodi.sourceforge.net/DTD/sodipodi-0.dtd"
   xmlns:inkscape="http://www.inkscape.org/namespaces/inkscape"
   width="74.570312"
   height="104.14062"
   id="svg10613"
   version="1.1"
   inkscape:version="0.48.3.1 r9886"
   sodipodi:docname="New document 58">
  <defs
     id="defs10615">
    <clipPath
       clipPathUnits="userSpaceOnUse"
       id="clipPath7401">
      <path
         inkscape:connector-curvature="0"
         d="m 63,212.4 513,0 0,525.6 -513,0 0,-525.6 z"
         id="path7403" />
    </clipPath>
  </defs>
  <sodipodi:namedview
     id="base"
     pagecolor="#ffffff"
     bordercolor="#666666"
     borderopacity="1.0"
     inkscape:pageopacity="0.0"
     inkscape:pageshadow="2"
     inkscape:zoom="0.35"
     inkscape:cx="37.288438"
     inkscape:cy="52.056247"
     inkscape:document-units="px"
     inkscape:current-layer="layer1"
     showgrid="false"
     fit-margin-top="0"
     fit-margin-left="0"
     fit-margin-right="0"
     fit-margin-bottom="0"
     inkscape:window-width="451"
     inkscape:window-height="415"
     inkscape:window-x="125"
     inkscape:window-y="125"
     inkscape:window-maximized="0" />
  <metadata
     id="metadata10618">
    <rdf:RDF>
      <cc:Work
         rdf:about="">
        <dc:format>image/svg+xml</dc:format>
        <dc:type
           rdf:resource="http://purl.org/dc/dcmitype/StillImage" />
        <dc:title></dc:title>
      </cc:Work>
    </rdf:RDF>
  </metadata>
  <g
     inkscape:label="Layer 1"
     inkscape:groupmode="layer"
     id="layer1"
     transform="translate(-337.71156,-480.2778)">
    <g
       transform="matrix(1.25,0,0,-1.25,-218.1195,975.28368)"
       id="g7397">
      <g
         id="g7399"
         clip-path="url(#clipPath7401)">
        <g
           id="g7405"
           transform="translate(504.0711,316.6297)">
          <path
             inkscape:connector-curvature="0"
             d="m 0,0 c 0,-2.041 -1.656,-3.697 -3.697,-3.697 l -51.757,0 c -2.043,0 -3.697,1.656 -3.697,3.697 l 0,75.414 c 0,2.043 1.654,3.698 3.697,3.698 l 51.757,0 C -1.656,79.112 0,77.457 0,75.414 L 0,0 z"
             style="fill:#ffffff;fill-opacity:1;fill-rule:nonzero;stroke:none"
             id="path7407" />
        </g>
        <g
           id="g7409"
           transform="translate(504.0711,316.6297)">
          <path
             inkscape:connector-curvature="0"
             d="m 0,0 c 0,-2.041 -1.656,-3.697 -3.697,-3.697 l -51.757,0 c -2.043,0 -3.697,1.656 -3.697,3.697 l 0,75.414 c 0,2.043 1.654,3.698 3.697,3.698 l 51.757,0 C -1.656,79.112 0,77.457 0,75.414 L 0,0 z"
             style="fill:none;stroke:#231f20;stroke-width:0.5;stroke-linecap:butt;stroke-linejoin:miter;stroke-miterlimit:4;stroke-opacity:1;stroke-dasharray:none"
             id="path7411" />
        </g>
        <g
           id="g7413"
           transform="translate(501.6042,316.6297)">
          <path
             inkscape:connector-curvature="0"
             d="m 0,0 c 0,-0.677 -0.552,-1.232 -1.23,-1.232 l -51.757,0 c -0.68,0 -1.232,0.555 -1.232,1.232 l 0,75.414 c 0,0.68 0.552,1.233 1.232,1.233 l 51.757,0 C -0.552,76.647 0,76.094 0,75.414 L 0,0 z m -1.23,78.125 -51.757,0 c -1.496,0 -2.711,-1.216 -2.711,-2.711 l 0,-75.414 c 0,-1.494 1.215,-2.709 2.711,-2.709 l 51.757,0 c 1.492,0 2.709,1.215 2.709,2.709 l 0,75.414 c 0,1.495 -1.217,2.711 -2.709,2.711"
             style="fill:#231f20;fill-opacity:1;fill-rule:nonzero;stroke:none"
             id="path7415" />
        </g>
        <g
           id="g7417"
           transform="translate(468.6772,379.4567)">
          <path
             inkscape:connector-curvature="0"
             d="m 0,0 c 0,0.654 -0.243,1.111 -0.719,1.367 -0.237,0.125 -0.487,0.187 -0.748,0.187 l -1.287,0 0,-3.148 1.504,0 c 0.203,0 0.416,0.076 0.64,0.224 C -0.204,-1.1 0,-0.645 0,0 m -0.291,4.222 c 0,0.785 -0.374,1.209 -1.118,1.274 l -1.345,0 0,-2.559 1.138,0 c 0.883,0 1.325,0.428 1.325,1.285 M 1.38,-0.02 c 0,-1.32 -0.472,-2.213 -1.418,-2.672 -0.4,-0.191 -0.884,-0.287 -1.449,-0.287 l -2.65,0 0,9.859 2.836,0 C -0.834,6.828 -0.432,6.705 -0.098,6.515 0.697,6.048 1.093,5.261 1.093,4.15 1.093,3.091 0.72,2.449 -0.03,2.226 0.91,1.709 1.38,0.959 1.38,-0.02"
             style="fill:#231f20;fill-opacity:1;fill-rule:nonzero;stroke:none"
             id="path7419" />
        </g>
        <g
           id="g7421"
           transform="translate(477.2552,379.1417)">
          <path
             inkscape:connector-curvature="0"
             d="M 0,0 C 0,-0.762 -0.27,-1.412 -0.805,-1.951 -1.34,-2.488 -1.991,-2.76 -2.76,-2.76 c -0.762,0 -1.412,0.272 -1.949,0.809 C -5.25,-1.412 -5.52,-0.762 -5.52,0 l 0,7.195 1.385,0 0,-7.191 c 0,-0.383 0.131,-0.707 0.398,-0.977 0.264,-0.269 0.592,-0.404 0.977,-0.404 0.373,0 0.695,0.135 0.967,0.404 0.273,0.27 0.41,0.594 0.41,0.977 l 0,7.191 L 0,7.195 0,0 z"
             style="fill:#231f20;fill-opacity:1;fill-rule:nonzero;stroke:none"
             id="path7423" />
        </g>
        <g
           id="g7425"
           transform="translate(484.4502,379.1688)">
          <path
             inkscape:connector-curvature="0"
             d="m 0,0 c 0,-0.695 -0.18,-1.296 -0.543,-1.8 -0.465,-0.657 -1.154,-0.987 -2.068,-0.987 -1.024,0 -1.791,0.33 -2.295,0.987 -0.407,0.519 -0.61,1.172 -0.61,1.959 l 1.381,0 c 0,-0.571 0.18,-0.993 0.543,-1.268 0.27,-0.195 0.596,-0.295 0.985,-0.295 0.791,0 1.183,0.471 1.183,1.41 0,0.735 -0.32,1.334 -0.957,1.803 -0.592,0.367 -1.185,0.73 -1.783,1.092 -0.637,0.492 -0.957,1.137 -0.957,1.93 0,0.519 0.144,0.994 0.435,1.429 0.444,0.67 1.161,1.004 2.145,1.004 1.039,0 1.773,-0.389 2.207,-1.162 C -0.156,5.78 -0.045,5.389 0,4.93 l -1.383,0 c 0,0.164 -0.056,0.326 -0.168,0.49 -0.197,0.307 -0.527,0.461 -0.994,0.461 -0.795,0 -1.191,-0.351 -1.191,-1.054 0,-0.389 0.322,-0.774 0.965,-1.163 C -1.813,3.1 -1.211,2.7 -0.967,2.463 -0.322,1.827 0,1.006 0,0"
             style="fill:#231f20;fill-opacity:1;fill-rule:nonzero;stroke:none"
             id="path7427" />
        </g>
        <g
           id="g7429"
           transform="translate(466.5111,359.2277)">
          <path
             inkscape:connector-curvature="0"
             d="m 0,0 -5.028,0 0,9.857 1.383,0 0,-8.474 L 0,1.383 0,0 z"
             style="fill:#231f20;fill-opacity:1;fill-rule:nonzero;stroke:none"
             id="path7431" />
        </g>
        <g
           id="g7433"
           transform="translate(471.0182,363.2667)">
          <path
             inkscape:connector-curvature="0"
             d="M 0,0 -0.767,3.207 -1.545,0 0,0 z m 2.387,-4.039 -1.408,0 -0.643,2.656 -2.217,0 -0.642,-2.656 -1.399,0 2.387,9.857 1.535,0 2.387,-9.857 z"
             style="fill:#231f20;fill-opacity:1;fill-rule:nonzero;stroke:none"
             id="path7435" />
        </g>
        <g
           id="g7437"
           transform="translate(480.3091,359.2277)">
          <path
             inkscape:connector-curvature="0"
             d="m 0,0 -1.382,0 -2.754,6.377 0,-6.377 -1.383,0 0,9.857 1.381,0 L -1.379,3.488 -1.382,9.857 0,9.857 0,0 z"
             style="fill:#231f20;fill-opacity:1;fill-rule:nonzero;stroke:none"
             id="path7439" />
        </g>
        <g
           id="g7441"
           transform="translate(487.5092,359.2137)">
          <path
             inkscape:connector-curvature="0"
             d="m 0,0 -5.028,0.014 0,9.857 5.028,0 0,-1.382 -3.647,0 0,-2.561 2.166,0 0,-1.383 -2.166,0 0,-3.148 L 0,1.397 0,0 z"
             style="fill:#231f20;fill-opacity:1;fill-rule:nonzero;stroke:none"
             id="path7443" />
        </g>
        <g
           id="g7445"
           transform="translate(466.0672,341.9617)">
          <path
             inkscape:connector-curvature="0"
             d="m 0,0 -5.027,0.012 0,9.859 5.027,0 0,-1.382 -3.642,0 0,-2.561 2.166,0 0,-1.383 -2.166,0 0,-3.148 L 0,1.397 0,0 z"
             style="fill:#231f20;fill-opacity:1;fill-rule:nonzero;stroke:none"
             id="path7447" />
        </g>
        <g
           id="g7449"
           transform="translate(473.2611,341.9737)">
          <path
             inkscape:connector-curvature="0"
             d="m 0,0 -1.383,0 -2.75,6.381 0,-6.381 -1.385,0 0,9.859 1.383,0 2.76,-6.367 L -1.383,9.859 0,9.859 0,0 z"
             style="fill:#231f20;fill-opacity:1;fill-rule:nonzero;stroke:none"
             id="path7451" />
        </g>
        <g
           id="g7453"
           transform="translate(479.5692,346.8977)">
          <path
             inkscape:connector-curvature="0"
             d="m 0,0 c 0,2.369 -0.558,3.553 -1.672,3.553 l -1.082,0 0,-7.106 1.082,0 C -0.558,-3.553 0,-2.369 0,0 m 1.381,0.006 c 0,-1.973 -0.387,-3.369 -1.16,-4.194 -0.475,-0.5 -1.033,-0.748 -1.676,-0.748 l -0.219,0 -2.463,0 0,9.871 2.573,0 c 0.644,0 1.195,-0.21 1.654,-0.63 C 0.951,3.518 1.381,2.082 1.381,0.006"
             style="fill:#231f20;fill-opacity:1;fill-rule:nonzero;stroke:none"
             id="path7455" />
        </g>
        <g
           id="g7457"
           transform="translate(487.9502,344.6657)">
          <path
             inkscape:connector-curvature="0"
             d="m 0,0 c 0,-0.696 -0.18,-1.295 -0.541,-1.799 -0.467,-0.659 -1.158,-0.987 -2.07,-0.987 -1.026,0 -1.789,0.328 -2.297,0.987 -0.406,0.517 -0.61,1.17 -0.61,1.959 l 1.381,0 c 0,-0.571 0.184,-0.993 0.543,-1.27 0.27,-0.195 0.6,-0.295 0.987,-0.295 0.789,0 1.183,0.471 1.183,1.41 0,0.737 -0.318,1.336 -0.955,1.803 -0.592,0.367 -1.189,0.731 -1.785,1.092 -0.637,0.492 -0.957,1.137 -0.957,1.932 0,0.517 0.144,0.994 0.433,1.427 0.448,0.67 1.161,1.006 2.147,1.006 1.037,0 1.771,-0.389 2.205,-1.164 C -0.158,5.779 -0.047,5.39 0,4.931 l -1.385,0 c 0,0.162 -0.054,0.324 -0.166,0.49 -0.197,0.307 -0.529,0.459 -0.996,0.459 -0.795,0 -1.191,-0.349 -1.191,-1.052 0,-0.387 0.322,-0.776 0.968,-1.164 C -1.811,3.101 -1.211,2.699 -0.967,2.462 -0.322,1.826 0,1.005 0,0"
             style="fill:#231f20;fill-opacity:1;fill-rule:nonzero;stroke:none"
             id="path7459" />
        </g>
        <g
           id="g7461"
           transform="translate(453.6071,327.1707)">
          <path
             inkscape:connector-curvature="0"
             d="m 0,0 -1.381,0 0,8.086 -0.685,0 0,1.084 c 0.17,0.012 0.289,0.026 0.355,0.037 0.117,0.026 0.244,0.079 0.383,0.159 0.139,0.078 0.299,0.244 0.483,0.492 L 0,9.858 0,0 z"
             style="fill:#231f20;fill-opacity:1;fill-rule:nonzero;stroke:none"
             id="path7463" />
        </g>
        <g
           id="g7465"
           transform="translate(462.8972,337.0287)">
          <path
             inkscape:connector-curvature="0"
             d="m 0,0 -8.548,-14.785 -1.576,0 L -1.629,0 0,0 z"
             style="fill:#231f20;fill-opacity:1;fill-rule:nonzero;stroke:none"
             id="path7467" />
        </g>
        <g
           id="g7469"
           transform="translate(466.2842,322.2437)">
          <path
             inkscape:connector-curvature="0"
             d="m 0,0 -5.518,0 c -0.007,0.103 -0.011,0.23 -0.011,0.382 0,1.883 0.605,3.409 1.822,4.586 0.277,0.262 0.643,0.559 1.094,0.887 0.422,0.297 0.695,0.512 0.82,0.652 0.211,0.229 0.314,0.493 0.314,0.788 0,0.289 -0.101,0.558 -0.306,0.81 -0.256,0.326 -0.604,0.492 -1.047,0.492 -0.533,0 -0.908,-0.23 -1.123,-0.691 C -4.076,7.662 -4.133,7.423 -4.133,7.195 l -1.385,0 c 0.014,0.787 0.274,1.447 0.78,1.984 0.506,0.534 1.142,0.801 1.912,0.801 0.803,0 1.465,-0.283 1.99,-0.848 0.496,-0.525 0.742,-1.14 0.742,-1.839 0,-0.6 -0.152,-1.106 -0.455,-1.52 C -0.754,5.5 -1.082,5.214 -1.537,4.927 -2.063,4.593 -2.387,4.361 -2.514,4.238 -3.42,3.343 -3.934,2.392 -4.053,1.381 L 0,1.381 0,0 z"
             style="fill:#231f20;fill-opacity:1;fill-rule:nonzero;stroke:none"
             id="path7471" />
        </g>
        <g
           id="g7473"
           transform="translate(480.2921,324.7137)">
          <path
             inkscape:connector-curvature="0"
             d="m 0,0 -1.381,0 0,5.52 L -3.25,0 l -1.869,5.52 0,-5.52 -1.383,0 0,9.858 1.379,0 1.871,-5.522 1.871,5.522 L 0,9.858 0,0 z"
             style="fill:#231f20;fill-opacity:1;fill-rule:nonzero;stroke:none"
             id="path7475" />
        </g>
        <path
           inkscape:connector-curvature="0"
           d="m 483.846,324.714 -1.38,0 0,9.858 1.38,0 0,-9.858 z"
           style="fill:#231f20;fill-opacity:1;fill-rule:nonzero;stroke:none"
           id="path7477" />
        <g
           id="g7479"
           transform="translate(491.0402,324.7137)">
          <path
             inkscape:connector-curvature="0"
             d="m 0,0 -5.028,0 0,9.858 1.383,0 0,-8.475 L 0,1.383 0,0 z"
             style="fill:#231f20;fill-opacity:1;fill-rule:nonzero;stroke:none"
             id="path7481" />
        </g>
        <g
           id="g7483"
           transform="translate(497.4482,324.7007)">
          <path
             inkscape:connector-curvature="0"
             d="m 0,0 -5.027,0.013 0,9.858 5.027,0 0,-1.383 -3.646,0 0,-2.561 2.169,0 0,-1.382 -2.169,0 0,-3.149 L 0,1.396 0,0 z"
             style="fill:#231f20;fill-opacity:1;fill-rule:nonzero;stroke:none"
             id="path7485" />
        </g>
      </g>
    </g>
  </g>
</svg>
