<?xml version="1.0" encoding="UTF-8" standalone="no"?>
<!-- Created with Inkscape (http://www.inkscape.org/) -->

<svg
   xmlns:dc="http://purl.org/dc/elements/1.1/"
   xmlns:cc="http://creativecommons.org/ns#"
   xmlns:rdf="http://www.w3.org/1999/02/22-rdf-syntax-ns#"
   xmlns:svg="http://www.w3.org/2000/svg"
   xmlns="http://www.w3.org/2000/svg"
   xmlns:sodipodi="http://sodipodi.sourceforge.net/DTD/sodipodi-0.dtd"
   xmlns:inkscape="http://www.inkscape.org/namespaces/inkscape"
   width="124.375"
   height="68.125"
   id="svg9286"
   version="1.1"
   inkscape:version="0.48.2 r9819"
   sodipodi:docname="New document 30">
  <defs
     id="defs9288">
    <clipPath
       clipPathUnits="userSpaceOnUse"
       id="clipPath7996">
      <path
         inkscape:connector-curvature="0"
         d="m 27,185.117 513,0 0,552.134 -513,0 0,-552.134 z"
         id="path7998" />
    </clipPath>
  </defs>
  <sodipodi:namedview
     id="base"
     pagecolor="#ffffff"
     bordercolor="#666666"
     borderopacity="1.0"
     inkscape:pageopacity="0.0"
     inkscape:pageshadow="2"
     inkscape:zoom="0.35"
     inkscape:cx="80.044643"
     inkscape:cy="2.6338924"
     inkscape:document-units="px"
     inkscape:current-layer="layer1"
     showgrid="false"
     fit-margin-top="0"
     fit-margin-left="0"
     fit-margin-right="0"
     fit-margin-bottom="0"
     inkscape:window-width="469"
     inkscape:window-height="425"
     inkscape:window-x="1599"
     inkscape:window-y="203"
     inkscape:window-maximized="0" />
  <metadata
     id="metadata9291">
    <rdf:RDF>
      <cc:Work
         rdf:about="">
        <dc:format>image/svg+xml</dc:format>
        <dc:type
           rdf:resource="http://purl.org/dc/dcmitype/StillImage" />
        <dc:title></dc:title>
      </cc:Work>
    </rdf:RDF>
  </metadata>
  <g
     inkscape:label="Layer 1"
     inkscape:groupmode="layer"
     id="layer1"
     transform="translate(-294.95536,-466.87108)">
    <g
       transform="matrix(1.25,0,0,-1.25,94.627357,1302.9582)"
       id="g7992">
      <g
         id="g7994"
         clip-path="url(#clipPath7996)">
        <g
           id="g8000"
           transform="translate(165.2964,614.6197)">
          <path
             inkscape:connector-curvature="0"
             d="m 0,0 89.433,0 c 2.612,0 4.783,2.171 4.783,4.784 l 0,44.434 C 94.216,51.829 92.045,54 89.433,54 L 0,54 c -2.612,0 -4.784,-2.171 -4.784,-4.782 l 0,-44.434 C -4.784,1.984 -2.604,0.263 0,0"
             style="fill:#ffffff;fill-opacity:1;fill-rule:nonzero;stroke:#231f20;stroke-width:0.5;stroke-linecap:butt;stroke-linejoin:miter;stroke-miterlimit:4;stroke-opacity:1;stroke-dasharray:none"
             id="path8002" />
        </g>
        <g
           id="g8004"
           transform="translate(256.2874,619.4037)">
          <path
             inkscape:connector-curvature="0"
             d="m 0,0 c 0,-0.843 -0.715,-1.558 -1.558,-1.57 l -89.433,0 c -0.853,0 -1.559,0.727 -1.559,1.57 l 0,44.434 c 0,0.856 0.706,1.554 1.559,1.56 l 89.433,0 c 0.847,0 1.555,-0.715 1.558,-1.56 L 0,0 z m -1.558,48.003 -89.433,0 c -1.949,0 -3.569,-1.62 -3.569,-3.569 L -94.56,0 c 0,-1.948 1.621,-3.569 3.569,-3.569 l 89.433,0 c 1.947,0 3.568,1.621 3.568,3.569 l 0,44.434 c 0,1.948 -1.621,3.569 -3.568,3.569"
             style="fill:#231f20;fill-opacity:1;fill-rule:evenodd;stroke:none"
             id="path8006" />
        </g>
        <g
           id="g8008"
           transform="translate(163.4454,657.4792)">
          <path
             inkscape:connector-curvature="0"
             d="m 0,0 0,5.098 0,4.226 0,0.03 0.009,0.029 0.022,0.031 0.02,0.031 0.023,0.021 0.031,0.01 0.041,0.008 0.032,0 0,0.012 4.362,0 6.445,0 0,-18.505 L 0,-9.009 0,0 z"
             style="fill:#231f20;fill-opacity:1;fill-rule:evenodd;stroke:none"
             id="path8010" />
        </g>
        <g
           id="g8012"
           transform="translate(169.3943,651.7409)">
          <path
             inkscape:connector-curvature="0"
             d="M 0,0 -3.064,5.412 0.03,11.177 2.868,5.472 0,0 z M 0.011,13.857 -4.513,5.451 0.011,-2.531 4.209,5.451 0.011,13.857 z"
             style="fill:#ffffff;fill-opacity:1;fill-rule:evenodd;stroke:none"
             id="path8014" />
        </g>
        <path
           inkscape:connector-curvature="0"
           d="m 188.818,622.578 3.873,0 0,0.824 -3.873,0 0,-0.824 z"
           style="fill:#231f20;fill-opacity:1;fill-rule:evenodd;stroke:none"
           id="path8016" />
        <g
           id="g8018"
           transform="translate(193.8824,622.6437)">
          <path
             inkscape:connector-curvature="0"
             d="M 0,0 -0.073,0.032 0,0 z"
             style="fill:#231f20;fill-opacity:1;fill-rule:evenodd;stroke:none"
             id="path8020" />
        </g>
        <path
           inkscape:connector-curvature="0"
           d="m 233.695,622.556 3.863,0 0,0.824 -3.863,0 0,-0.824 z"
           style="fill:#231f20;fill-opacity:1;fill-rule:evenodd;stroke:none"
           id="path8022" />
        <g
           id="g8024"
           transform="translate(214.1824,658.6911)">
          <path
             inkscape:connector-curvature="0"
             d="m 0,0 0,1.482 0.929,0 0,-1.482 1.464,0 0,-0.929 -1.464,0 0,-1.469 -0.929,0 0,1.469 -1.48,0 L -1.48,0 0,0 z"
             style="fill:#231f20;fill-opacity:1;fill-rule:evenodd;stroke:none"
             id="path8026" />
        </g>
        <g
           id="g8028"
           transform="translate(186.4333,654.8347)">
          <path
             inkscape:connector-curvature="0"
             d="m 0,0 0,3.014 -3.086,-0.026 0,-2.988 -1.229,0 0,6.87 1.229,0 0,-2.651 3.086,0 0,2.651 1.229,0 L 1.229,0 0,0 z"
             style="fill:#231f20;fill-opacity:1;fill-rule:nonzero;stroke:none"
             id="path8030" />
        </g>
        <g
           id="g8032"
           transform="translate(192.2934,660.5954)">
          <path
             inkscape:connector-curvature="0"
             d="m 0,0 c -1.038,0 -1.664,-0.867 -1.664,-2.313 0,-1.471 0.626,-2.338 1.664,-2.338 1.301,0 1.616,1.277 1.616,2.338 C 1.616,-0.867 1.036,0 0,0 m 0,-5.881 c -2.025,0 -2.917,1.832 -2.917,3.568 0,2.193 1.109,3.544 2.917,3.544 1.687,0 2.844,-1.423 2.844,-3.52 0,-2.146 -1.108,-3.592 -2.844,-3.592"
             style="fill:#231f20;fill-opacity:1;fill-rule:nonzero;stroke:none"
             id="path8034" />
        </g>
        <g
           id="g8036"
           transform="translate(200.2363,654.8347)">
          <path
             inkscape:connector-curvature="0"
             d="m 0,0 -1.326,0 -2.532,6.87 1.326,0 1.88,-5.012 1.88,5.012 1.326,0 L 0,0 z"
             style="fill:#231f20;fill-opacity:1;fill-rule:nonzero;stroke:none"
             id="path8038" />
        </g>
        <g
           id="g8040"
           transform="translate(206.1723,654.8347)">
          <path
             inkscape:connector-curvature="0"
             d="m 0,0 c 0,0.82 0.169,1.423 0.555,2.098 0.602,1.011 1.47,1.638 2.724,1.974 0.77,0.219 1.036,0.459 1.036,0.869 0,0.506 -0.483,0.796 -1.35,0.796 C 2.073,5.737 1.423,5.521 0.844,4.99 L 0,5.93 c 0.795,0.699 1.783,1.062 2.893,1.062 1.615,0 2.652,-0.798 2.652,-2.051 0,-0.577 -0.241,-1.109 -0.7,-1.494 C 4.628,3.279 4.315,3.109 3.832,2.965 2.916,2.701 2.653,2.579 2.242,2.217 1.929,1.951 1.737,1.687 1.494,1.23 l 4.051,0 L 5.545,0 0,0 z"
             style="fill:#231f20;fill-opacity:1;fill-rule:nonzero;stroke:none"
             id="path8042" />
        </g>
        <g
           id="g8044"
           transform="translate(224.9314,660.5954)">
          <path
             inkscape:connector-curvature="0"
             d="m 0,0 c -1.036,0 -1.663,-0.867 -1.663,-2.313 0,-1.471 0.627,-2.338 1.663,-2.338 1.302,0 1.615,1.277 1.615,2.338 C 1.615,-0.867 1.038,0 0,0 m 0,-5.881 c -2.024,0 -2.917,1.832 -2.917,3.568 0,2.193 1.109,3.544 2.917,3.544 1.688,0 2.845,-1.423 2.845,-3.52 0,-2.146 -1.11,-3.592 -2.845,-3.592"
             style="fill:#231f20;fill-opacity:1;fill-rule:nonzero;stroke:none"
             id="path8046" />
        </g>
        <g
           id="g8048"
           transform="translate(233.9583,654.8347)">
          <path
             inkscape:connector-curvature="0"
             d="m 0,0 -3.278,4.725 0,-4.725 -1.206,0 0,6.87 1.206,0 3.157,-4.532 0,4.532 1.182,0 L 1.061,0 0,0 z"
             style="fill:#231f20;fill-opacity:1;fill-rule:nonzero;stroke:none"
             id="path8050" />
        </g>
        <g
           id="g8052"
           transform="translate(236.7244,654.8347)">
          <path
             inkscape:connector-curvature="0"
             d="m 0,0 0,6.87 1.23,0 0,-5.81 3.905,0 L 5.135,0 0,0 z"
             style="fill:#231f20;fill-opacity:1;fill-rule:nonzero;stroke:none"
             id="path8054" />
        </g>
        <g
           id="g8056"
           transform="translate(246.3743,657.6306)">
          <path
             inkscape:connector-curvature="0"
             d="m 0,0 0,-2.796 -1.228,0 0,2.796 -2.893,4.074 1.519,0 1.999,-2.798 1.977,2.798 1.519,0 L 0,0 z"
             style="fill:#231f20;fill-opacity:1;fill-rule:nonzero;stroke:none"
             id="path8058" />
        </g>
        <g
           id="g8060"
           transform="translate(173.0403,640.7194)">
          <path
             inkscape:connector-curvature="0"
             d="m 0,0 c 0.021,0.665 0.162,1.208 0.485,1.754 0.242,0.442 0.604,0.807 1.008,1.108 0.1,0.061 0.181,0.121 0.261,0.182 l 0.303,0.16 0.282,0.163 0.282,0.16 C 2.843,3.669 3.004,3.911 3.004,4.152 3.004,4.575 2.52,4.918 1.955,4.918 1.371,4.918 1.009,4.636 0.908,4.112 L 0,4.315 c 0.203,0.946 0.948,1.53 1.955,1.53 1.09,0 1.957,-0.765 1.957,-1.713 C 3.912,3.688 3.709,3.246 3.328,2.902 3.246,2.842 3.165,2.781 3.084,2.741 L 2.802,2.561 2.501,2.396 2.218,2.238 C 1.674,1.914 1.371,1.572 1.089,0.927 l 2.823,0 L 3.912,0 0,0 z"
             style="fill:#231f20;fill-opacity:1;fill-rule:nonzero;stroke:none"
             id="path8062" />
        </g>
        <g
           id="g8064"
           transform="translate(182.6044,645.194)">
          <path
             inkscape:connector-curvature="0"
             d="m 0,0 c -0.182,0.303 -0.403,0.423 -0.746,0.443 -0.444,0.022 -0.726,-0.202 -0.927,-0.704 -0.141,-0.342 -0.223,-0.868 -0.223,-1.351 0,-0.605 0.12,-1.23 0.343,-1.593 0.182,-0.304 0.423,-0.444 0.786,-0.444 0.424,0 0.686,0.223 0.887,0.726 0.121,0.302 0.223,0.867 0.223,1.311 C 0.343,-0.967 0.221,-0.383 0,0 m 0.625,-3.932 c -0.323,-0.442 -0.787,-0.644 -1.392,-0.644 -0.806,0 -1.309,0.323 -1.653,1.028 -0.241,0.485 -0.402,1.251 -0.402,1.936 0,0.947 0.241,1.794 0.625,2.338 0.342,0.443 0.805,0.644 1.471,0.644 C 0,1.37 0.504,1.049 0.867,0.344 1.108,-0.16 1.25,-0.888 1.25,-1.612 c 0,-0.906 -0.223,-1.814 -0.625,-2.32"
             style="fill:#231f20;fill-opacity:1;fill-rule:nonzero;stroke:none"
             id="path8066" />
        </g>
        <g
           id="g8068"
           transform="translate(187.6944,645.4567)">
          <path
             inkscape:connector-curvature="0"
             d="m 0,0 c -0.143,0.081 -0.223,0.101 -0.526,0.101 l -1.089,0 0,-1.41 1.089,0 c 0.284,0 0.383,0.018 0.526,0.099 0.22,0.121 0.362,0.363 0.362,0.605 C 0.362,-0.362 0.22,-0.121 0,0 m 0.402,-4.737 -0.928,2.5 -1.089,0 0,-2.5 -0.905,0 0,5.746 1.894,0 c 0.443,0 0.746,-0.041 1.028,-0.182 0.504,-0.243 0.867,-0.848 0.867,-1.432 0,-0.605 -0.363,-1.209 -0.886,-1.452 l 1.007,-2.68 -0.988,0 z"
             style="fill:#231f20;fill-opacity:1;fill-rule:nonzero;stroke:none"
             id="path8070" />
        </g>
        <g
           id="g8072"
           transform="translate(195.4744,640.7194)">
          <path
             inkscape:connector-curvature="0"
             d="M 0,0 0,3.326 -1.329,0 -2.66,3.326 -2.66,0 l -0.907,0 0,5.746 0.907,0 L -1.329,2.52 0,5.746 0.908,5.746 0.908,0 0,0 z"
             style="fill:#231f20;fill-opacity:1;fill-rule:nonzero;stroke:none"
             id="path8074" />
        </g>
        <g
           id="g8076"
           transform="translate(200.7024,645.194)">
          <path
             inkscape:connector-curvature="0"
             d="m 0,0 c -0.181,0.303 -0.404,0.423 -0.747,0.443 -0.443,0.022 -0.725,-0.202 -0.926,-0.704 -0.142,-0.342 -0.223,-0.868 -0.223,-1.351 0,-0.605 0.122,-1.23 0.343,-1.593 0.181,-0.304 0.424,-0.444 0.786,-0.444 0.425,0 0.685,0.223 0.888,0.726 0.121,0.302 0.221,0.867 0.221,1.311 C 0.342,-0.967 0.221,-0.383 0,0 m 0.625,-3.932 c -0.323,-0.442 -0.788,-0.644 -1.392,-0.644 -0.807,0 -1.31,0.323 -1.652,1.028 -0.243,0.485 -0.404,1.251 -0.404,1.936 0,0.947 0.242,1.794 0.624,2.338 0.343,0.443 0.807,0.644 1.472,0.644 C 0,1.37 0.503,1.049 0.867,0.344 1.108,-0.16 1.25,-0.888 1.25,-1.612 c 0,-0.906 -0.222,-1.814 -0.625,-2.32"
             style="fill:#231f20;fill-opacity:1;fill-rule:nonzero;stroke:none"
             id="path8078" />
        </g>
        <g
           id="g8080"
           transform="translate(205.6144,645.4567)">
          <path
             inkscape:connector-curvature="0"
             d="m 0,0 c -0.143,0.081 -0.223,0.101 -0.526,0.101 l -1.088,0 0,-1.41 1.088,0 c 0.282,0 0.383,0.018 0.526,0.099 0.22,0.121 0.362,0.363 0.362,0.605 C 0.362,-0.362 0.22,-0.121 0,0 m 0.402,-4.737 -0.928,2.5 -1.088,0 0,-2.5 -0.907,0 0,5.746 1.895,0 c 0.443,0 0.746,-0.041 1.028,-0.182 0.504,-0.243 0.867,-0.848 0.867,-1.432 0,-0.605 -0.363,-1.209 -0.887,-1.452 l 1.008,-2.68 -0.988,0 z"
             style="fill:#231f20;fill-opacity:1;fill-rule:nonzero;stroke:none"
             id="path8082" />
        </g>
        <g
           id="g8084"
           transform="translate(208.3233,640.7194)">
          <path
             inkscape:connector-curvature="0"
             d="m 0,0 0,5.746 3.386,0 0,-0.908 -2.48,0 0,-1.41 1.674,0 0,-0.928 -1.674,0 0,-1.573 2.662,0 L 3.568,0 0,0 z"
             style="fill:#231f20;fill-opacity:1;fill-rule:nonzero;stroke:none"
             id="path8086" />
        </g>
        <g
           id="g8088"
           transform="translate(217.3244,645.4567)">
          <path
             inkscape:connector-curvature="0"
             d="m 0,0 c -0.162,0.081 -0.261,0.101 -0.544,0.101 l -1.191,0 0,-1.41 1.191,0 c 0.283,0 0.382,0.018 0.544,0.099 0.202,0.101 0.343,0.363 0.343,0.605 C 0.343,-0.362 0.202,-0.121 0,0 M 0.383,-2.036 C 0.122,-2.157 -0.222,-2.237 -0.665,-2.237 l -1.07,0 0,-2.5 -0.905,0 0,5.746 1.975,0 c 0.463,0 0.766,-0.041 1.048,-0.182 0.504,-0.243 0.888,-0.848 0.888,-1.432 0,-0.605 -0.384,-1.209 -0.888,-1.431"
             style="fill:#231f20;fill-opacity:1;fill-rule:nonzero;stroke:none"
             id="path8090" />
        </g>
        <g
           id="g8092"
           transform="translate(219.9133,640.7194)">
          <path
             inkscape:connector-curvature="0"
             d="m 0,0 0,5.746 3.386,0 0,-0.908 -2.479,0 0,-1.41 1.673,0 0,-0.928 -1.673,0 0,-1.573 2.662,0 L 3.569,0 0,0 z"
             style="fill:#231f20;fill-opacity:1;fill-rule:nonzero;stroke:none"
             id="path8094" />
        </g>
        <g
           id="g8096"
           transform="translate(227.0083,645.4567)">
          <path
             inkscape:connector-curvature="0"
             d="m 0,0 c -0.141,0.081 -0.221,0.101 -0.525,0.101 l -1.088,0 0,-1.41 1.088,0 c 0.284,0 0.384,0.018 0.525,0.099 0.223,0.121 0.362,0.363 0.362,0.605 C 0.362,-0.362 0.223,-0.121 0,0 m 0.404,-4.737 -0.929,2.5 -1.088,0 0,-2.5 -0.907,0 0,5.746 1.895,0 c 0.443,0 0.746,-0.041 1.029,-0.182 C 0.906,0.584 1.27,-0.021 1.27,-0.605 1.27,-1.21 0.906,-1.814 0.384,-2.057 l 1.008,-2.68 -0.988,0 z"
             style="fill:#231f20;fill-opacity:1;fill-rule:nonzero;stroke:none"
             id="path8098" />
        </g>
        <g
           id="g8100"
           transform="translate(232.7973,641.0622)">
          <path
             inkscape:connector-curvature="0"
             d="m 0,0 c -0.323,-0.281 -0.765,-0.444 -1.25,-0.444 -0.987,0 -1.714,0.584 -2.097,1.452 l 0.867,0.323 c 0.243,-0.545 0.686,-0.849 1.23,-0.849 0.524,0 0.887,0.365 0.887,0.849 0,0.765 -0.887,0.887 -1.633,1.188 -0.343,0.141 -1.109,0.484 -1.109,1.431 0,1.129 0.766,1.552 1.795,1.552 0.805,0 1.35,-0.46 1.632,-1.168 L -0.483,4.093 c 0,0 -0.203,0.482 -0.848,0.504 C -1.754,4.615 -2.259,4.456 -2.217,3.93 -2.137,2.861 0.566,3.568 0.566,1.31 0.566,0.786 0.363,0.322 0,0"
             style="fill:#231f20;fill-opacity:1;fill-rule:nonzero;stroke:none"
             id="path8102" />
        </g>
        <g
           id="g8104"
           transform="translate(237.3734,645.194)">
          <path
             inkscape:connector-curvature="0"
             d="m 0,0 c -0.182,0.303 -0.403,0.423 -0.747,0.443 -0.443,0.022 -0.725,-0.202 -0.926,-0.704 -0.142,-0.342 -0.222,-0.868 -0.222,-1.351 0,-0.605 0.121,-1.23 0.343,-1.593 0.18,-0.304 0.423,-0.444 0.786,-0.444 0.423,0 0.685,0.223 0.887,0.726 0.122,0.302 0.22,0.867 0.22,1.311 C 0.341,-0.967 0.222,-0.383 0,0 m 0.625,-3.932 c -0.322,-0.442 -0.787,-0.644 -1.391,-0.644 -0.807,0 -1.311,0.323 -1.654,1.028 -0.242,0.485 -0.403,1.251 -0.403,1.936 0,0.947 0.241,1.794 0.626,2.338 0.342,0.443 0.805,0.644 1.472,0.644 0.725,0 1.228,-0.321 1.591,-1.026 0.242,-0.504 0.385,-1.232 0.385,-1.956 0,-0.906 -0.222,-1.814 -0.626,-2.32"
             style="fill:#231f20;fill-opacity:1;fill-rule:nonzero;stroke:none"
             id="path8106" />
        </g>
        <g
           id="g8108"
           transform="translate(242.8683,640.7194)">
          <path
             inkscape:connector-curvature="0"
             d="m 0,0 -2.198,3.891 0,-3.891 -0.906,0 0,5.746 0.906,0 2.098,-3.67 0,3.67 0.907,0 L 0.807,0 0,0 z"
             style="fill:#231f20;fill-opacity:1;fill-rule:nonzero;stroke:none"
             id="path8110" />
        </g>
        <g
           id="g8112"
           transform="translate(248.3564,641.0622)">
          <path
             inkscape:connector-curvature="0"
             d="m 0,0 c -0.323,-0.281 -0.767,-0.444 -1.251,-0.444 -0.986,0 -1.713,0.584 -2.095,1.452 l 0.866,0.323 c 0.243,-0.545 0.686,-0.849 1.229,-0.849 0.525,0 0.889,0.365 0.889,0.849 0,0.765 -0.889,0.887 -1.633,1.188 -0.344,0.141 -1.11,0.484 -1.11,1.431 0,1.129 0.766,1.552 1.795,1.552 0.807,0 1.351,-0.46 1.632,-1.168 L -0.485,4.093 c 0,0 -0.2,0.482 -0.845,0.504 C -1.754,4.615 -2.258,4.456 -2.218,3.93 -2.137,2.861 0.564,3.568 0.564,1.31 0.564,0.786 0.363,0.322 0,0"
             style="fill:#231f20;fill-opacity:1;fill-rule:nonzero;stroke:none"
             id="path8114" />
        </g>
        <g
           id="g8116"
           transform="translate(188.5173,635.3657)">
          <path
             inkscape:connector-curvature="0"
             d="m 0,0 c -0.161,0.08 -0.261,0.102 -0.544,0.102 l -1.189,0 0,-1.411 1.189,0 c 0.283,0 0.383,0.019 0.544,0.1 0.202,0.102 0.343,0.363 0.343,0.604 C 0.343,-0.362 0.202,-0.12 0,0 m 0.384,-2.036 c -0.263,-0.121 -0.605,-0.2 -1.049,-0.2 l -1.068,0 0,-2.503 -0.908,0 0,5.747 1.976,0 c 0.464,0 0.767,-0.041 1.049,-0.181 0.505,-0.242 0.885,-0.846 0.885,-1.432 0,-0.604 -0.38,-1.21 -0.885,-1.431"
             style="fill:#231f20;fill-opacity:1;fill-rule:nonzero;stroke:none"
             id="path8118" />
        </g>
        <g
           id="g8120"
           transform="translate(191.0903,630.6267)">
          <path
             inkscape:connector-curvature="0"
             d="m 0,0 0,5.747 3.386,0 0,-0.906 -2.48,0 0,-1.411 1.674,0 0,-0.927 -1.674,0 0,-1.573 2.662,0 L 3.568,0 0,0 z"
             style="fill:#231f20;fill-opacity:1;fill-rule:nonzero;stroke:none"
             id="path8122" />
        </g>
        <g
           id="g8124"
           transform="translate(198.1844,635.3657)">
          <path
             inkscape:connector-curvature="0"
             d="m 0,0 c -0.141,0.08 -0.222,0.102 -0.524,0.102 l -1.088,0 0,-1.411 1.088,0 c 0.282,0 0.383,0.019 0.524,0.1 0.222,0.121 0.363,0.363 0.363,0.604 C 0.363,-0.362 0.222,-0.12 0,0 m 0.404,-4.739 -0.928,2.503 -1.088,0 0,-2.503 -0.907,0 0,5.747 1.895,0 c 0.443,0 0.745,-0.041 1.028,-0.181 0.503,-0.242 0.866,-0.846 0.866,-1.432 0,-0.604 -0.363,-1.21 -0.887,-1.45 l 1.009,-2.684 -0.988,0 z"
             style="fill:#231f20;fill-opacity:1;fill-rule:nonzero;stroke:none"
             id="path8126" />
        </g>
        <g
           id="g8128"
           transform="translate(204.9333,630.6267)">
          <path
             inkscape:connector-curvature="0"
             d="m 0,0 -0.704,0 -1.816,5.747 0.949,0 1.228,-3.828 1.211,3.828 0.967,0 L 0,0 z"
             style="fill:#231f20;fill-opacity:1;fill-rule:nonzero;stroke:none"
             id="path8130" />
        </g>
        <g
           id="g8132"
           transform="translate(207.7733,630.6267)">
          <path
             inkscape:connector-curvature="0"
             d="m 0,0 0,5.747 3.387,0 0,-0.906 -2.481,0 0,-1.411 1.674,0 0,-0.927 -1.674,0 0,-1.573 2.661,0 L 3.567,0 0,0 z"
             style="fill:#231f20;fill-opacity:1;fill-rule:nonzero;stroke:none"
             id="path8134" />
        </g>
        <g
           id="g8136"
           transform="translate(215.3513,630.6267)">
          <path
             inkscape:connector-curvature="0"
             d="m 0,0 0,2.503 -2.096,0 0,-2.503 -0.908,0 0,5.747 0.908,0 0,-2.317 2.096,0 0,2.317 0.908,0 L 0.908,0 0,0 z"
             style="fill:#231f20;fill-opacity:1;fill-rule:nonzero;stroke:none"
             id="path8138" />
        </g>
        <path
           inkscape:connector-curvature="0"
           d="m 217.577,636.374 0.927,0 0,-5.747 -0.927,0 0,5.747 z"
           style="fill:#231f20;fill-opacity:1;fill-rule:nonzero;stroke:none"
           id="path8140" />
        <g
           id="g8142"
           transform="translate(222.0254,630.5897)">
          <path
             inkscape:connector-curvature="0"
             d="m 0,0 c -0.848,0 -1.392,0.322 -1.754,1.027 -0.263,0.504 -0.423,1.231 -0.423,1.956 0,0.906 0.242,1.814 0.645,2.319 0.342,0.421 0.826,0.644 1.472,0.644 0.866,0 1.411,-0.362 1.792,-1.168 L 0.887,4.415 C 0.564,4.898 0.384,5.019 -0.06,5.019 -0.525,5.019 -0.827,4.817 -1.029,4.313 -1.168,3.972 -1.25,3.467 -1.25,2.983 c 0,-0.625 0.142,-1.251 0.363,-1.614 0.202,-0.302 0.464,-0.443 0.866,-0.443 0.384,0 0.667,0.202 0.888,0.667 L 1.732,1.269 C 1.391,0.422 0.826,0 0,0"
             style="fill:#231f20;fill-opacity:1;fill-rule:nonzero;stroke:none"
             id="path8144" />
        </g>
        <g
           id="g8146"
           transform="translate(224.7784,630.6267)">
          <path
             inkscape:connector-curvature="0"
             d="m 0,0 0,5.747 0.907,0 0,-4.897 2.661,0 L 3.568,0 0,0 z"
             style="fill:#231f20;fill-opacity:1;fill-rule:nonzero;stroke:none"
             id="path8148" />
        </g>
        <g
           id="g8150"
           transform="translate(229.3553,630.6267)">
          <path
             inkscape:connector-curvature="0"
             d="m 0,0 0,5.747 3.386,0 0,-0.906 -2.48,0 0,-1.411 1.674,0 0,-0.927 -1.674,0 0,-1.573 2.662,0 L 3.568,0 0,0 z"
             style="fill:#231f20;fill-opacity:1;fill-rule:nonzero;stroke:none"
             id="path8152" />
        </g>
        <g
           id="g8154"
           transform="translate(175.3293,622.6458)">
          <path
             inkscape:connector-curvature="0"
             d="m 0,0 c -0.508,0 -0.927,-0.345 -0.927,-0.747 0,-0.417 0.419,-0.761 0.927,-0.761 0.509,0 0.947,0.344 0.947,0.761 C 0.947,-0.345 0.528,0 0,0 m 0,-2.345 c -1,0 -1.763,0.726 -1.763,1.656 0,1.437 0.8,2.908 2,3.708 L 0.655,2.328 C 0.018,1.837 -0.309,1.419 -0.618,0.764 -0.327,0.82 -0.2,0.82 0,0.82 0.964,0.82 1.765,0.109 1.765,-0.762 1.765,-1.655 1,-2.345 0,-2.345"
             style="fill:#231f20;fill-opacity:1;fill-rule:nonzero;stroke:none"
             id="path8156" />
        </g>
        <g
           id="g8158"
           transform="translate(180.5034,624.1367)">
          <path
             inkscape:connector-curvature="0"
             d="m 0,0 -0.527,-1.454 1.036,0 L 0,0 z m 1.309,-3.747 -0.509,1.456 -1.619,0 -0.509,-1.456 -0.873,0 1.783,5.185 0.819,0 1.782,-5.185 -0.874,0 z"
             style="fill:#231f20;fill-opacity:1;fill-rule:nonzero;stroke:none"
             id="path8160" />
        </g>
        <g
           id="g8162"
           transform="translate(186.8083,620.3897)">
          <path
             inkscape:connector-curvature="0"
             d="M 0,0 0,3.004 -1.2,0 l -1.201,3.004 0,-3.004 -0.818,0 0,5.185 0.818,0 L -1.2,2.274 0,5.185 0.818,5.185 0.818,0 0,0 z"
             style="fill:#231f20;fill-opacity:1;fill-rule:nonzero;stroke:none"
             id="path8164" />
        </g>
        <g
           id="g8166"
           transform="translate(195.5744,624.8287)">
          <path
             inkscape:connector-curvature="0"
             d="m 0,0 c -0.51,0 -0.928,-0.327 -0.928,-0.745 0,-0.418 0.418,-0.746 0.928,-0.746 0.526,0 0.946,0.328 0.946,0.746 C 0.946,-0.346 0.509,0 0,0 m -0.237,-4.528 -0.4,0.69 c 0.619,0.491 0.946,0.908 1.256,1.583 C 0.327,-2.31 0.2,-2.329 0,-2.329 c -0.964,0 -1.765,0.711 -1.765,1.584 0,0.89 0.782,1.581 1.765,1.581 1,0 1.763,-0.709 1.763,-1.655 0,-1.418 -0.8,-2.891 -2,-3.709"
             style="fill:#231f20;fill-opacity:1;fill-rule:nonzero;stroke:none"
             id="path8168" />
        </g>
        <g
           id="g8170"
           transform="translate(200.2113,624.1367)">
          <path
             inkscape:connector-curvature="0"
             d="m 0,0 -0.527,-1.454 1.036,0 L 0,0 z m 1.311,-3.747 -0.511,1.456 -1.618,0 -0.509,-1.456 -0.873,0 1.782,5.185 0.819,0 1.782,-5.185 -0.872,0 z"
             style="fill:#231f20;fill-opacity:1;fill-rule:nonzero;stroke:none"
             id="path8172" />
        </g>
        <g
           id="g8174"
           transform="translate(206.3954,620.3897)">
          <path
             inkscape:connector-curvature="0"
             d="M 0,0 0,3.004 -1.2,0 l -1.201,3.004 0,-3.004 -0.818,0 0,5.185 0.818,0 L -1.2,2.274 0,5.185 0.818,5.185 0.818,0 0,0 z"
             style="fill:#231f20;fill-opacity:1;fill-rule:nonzero;stroke:none"
             id="path8176" />
        </g>
        <g
           id="g8178"
           transform="translate(222.0704,620.3897)">
          <path
             inkscape:connector-curvature="0"
             d="M 0,0 0,3.004 -1.202,0 l -1.2,3.004 0,-3.004 -0.819,0 0,5.185 0.819,0 1.2,-2.911 L 0,5.185 0.816,5.185 0.816,0 0,0 z"
             style="fill:#231f20;fill-opacity:1;fill-rule:nonzero;stroke:none"
             id="path8180" />
        </g>
        <g
           id="g8182"
           transform="translate(226.6104,624.4287)">
          <path
             inkscape:connector-curvature="0"
             d="M 0,0 C -0.164,0.272 -0.364,0.382 -0.674,0.4 -1.073,0.419 -1.327,0.218 -1.509,-0.237 -1.637,-0.544 -1.71,-1.019 -1.71,-1.455 c 0,-0.547 0.11,-1.109 0.309,-1.437 0.164,-0.271 0.382,-0.399 0.709,-0.399 0.383,0 0.618,0.2 0.8,0.653 0.109,0.273 0.201,0.783 0.201,1.183 0,0.581 -0.11,1.11 -0.309,1.455 m 0.564,-3.547 c -0.291,-0.399 -0.71,-0.581 -1.256,-0.581 -0.726,0 -1.182,0.29 -1.491,0.928 -0.219,0.436 -0.364,1.126 -0.364,1.745 0,0.855 0.218,1.618 0.563,2.11 0.31,0.399 0.729,0.581 1.328,0.581 C 0,1.236 0.454,0.947 0.782,0.308 1,-0.146 1.128,-0.8 1.128,-1.455 c 0,-0.818 -0.202,-1.636 -0.564,-2.092"
             style="fill:#231f20;fill-opacity:1;fill-rule:nonzero;stroke:none"
             id="path8184" />
        </g>
        <g
           id="g8186"
           transform="translate(231.7314,620.3897)">
          <path
             inkscape:connector-curvature="0"
             d="m 0,0 -1.984,3.513 0,-3.513 -0.819,0 0,5.185 0.819,0 1.891,-3.311 0,3.311 0.819,0 L 0.726,0 0,0 z"
             style="fill:#231f20;fill-opacity:1;fill-rule:nonzero;stroke:none"
             id="path8188" />
        </g>
        <g
           id="g8190"
           transform="translate(239.5533,624.7567)">
          <path
             inkscape:connector-curvature="0"
             d="m 0,0 0,-1.274 1.511,0 0,-0.837 -1.511,0 0,-2.256 -0.817,0 0,5.185 3.219,0 L 2.402,0 0,0 z"
             style="fill:#231f20;fill-opacity:1;fill-rule:nonzero;stroke:none"
             id="path8192" />
        </g>
        <g
           id="g8194"
           transform="translate(245.1463,624.6647)">
          <path
             inkscape:connector-curvature="0"
             d="m 0,0 c -0.129,0.072 -0.201,0.092 -0.475,0.092 l -0.981,0 0,-1.274 0.981,0 c 0.256,0 0.346,0.019 0.475,0.091 0.2,0.111 0.327,0.329 0.327,0.546 C 0.327,-0.329 0.2,-0.109 0,0 m 0.364,-4.275 -0.839,2.256 -0.981,0 0,-2.256 -0.819,0 0,5.185 1.709,0 c 0.402,0 0.674,-0.036 0.93,-0.164 0.453,-0.219 0.781,-0.764 0.781,-1.291 0,-0.546 -0.328,-1.091 -0.799,-1.309 l 0.909,-2.421 -0.891,0 z"
             style="fill:#231f20;fill-opacity:1;fill-rule:nonzero;stroke:none"
             id="path8196" />
        </g>
        <path
           inkscape:connector-curvature="0"
           d="m 247.593,625.575 0.836,0 0,-5.185 -0.836,0 0,5.185 z"
           style="fill:#231f20;fill-opacity:1;fill-rule:nonzero;stroke:none"
           id="path8198" />
      </g>
    </g>
  </g>
</svg>
