<?xml version="1.0" encoding="UTF-8" standalone="no"?>
<!-- Created with Inkscape (http://www.inkscape.org/) -->

<svg
   xmlns:dc="http://purl.org/dc/elements/1.1/"
   xmlns:cc="http://creativecommons.org/ns#"
   xmlns:rdf="http://www.w3.org/1999/02/22-rdf-syntax-ns#"
   xmlns:svg="http://www.w3.org/2000/svg"
   xmlns="http://www.w3.org/2000/svg"
   xmlns:sodipodi="http://sodipodi.sourceforge.net/DTD/sodipodi-0.dtd"
   xmlns:inkscape="http://www.inkscape.org/namespaces/inkscape"
   width="73.710938"
   height="102.96875"
   id="svg10239"
   version="1.1"
   inkscape:version="0.48.3.1 r9886"
   sodipodi:docname="New document 52">
  <defs
     id="defs10241">
    <clipPath
       clipPathUnits="userSpaceOnUse"
       id="clipPath7275">
      <path
         inkscape:connector-curvature="0"
         d="m 63,212.4 513,0 0,525.6 -513,0 0,-525.6 z"
         id="path7277" />
    </clipPath>
  </defs>
  <sodipodi:namedview
     id="base"
     pagecolor="#ffffff"
     bordercolor="#666666"
     borderopacity="1.0"
     inkscape:pageopacity="0.0"
     inkscape:pageshadow="2"
     inkscape:zoom="0.49497475"
     inkscape:cx="109.10965"
     inkscape:cy="45.191317"
     inkscape:document-units="px"
     inkscape:current-layer="layer1"
     showgrid="false"
     fit-margin-top="0"
     fit-margin-left="0"
     fit-margin-right="0"
     fit-margin-bottom="0"
     inkscape:window-width="451"
     inkscape:window-height="415"
     inkscape:window-x="175"
     inkscape:window-y="175"
     inkscape:window-maximized="0" />
  <metadata
     id="metadata10244">
    <rdf:RDF>
      <cc:Work
         rdf:about="">
        <dc:format>image/svg+xml</dc:format>
        <dc:type
           rdf:resource="http://purl.org/dc/dcmitype/StillImage" />
        <dc:title></dc:title>
      </cc:Work>
    </rdf:RDF>
  </metadata>
  <g
     inkscape:label="Layer 1"
     inkscape:groupmode="layer"
     id="layer1"
     transform="translate(-338.14188,-480.88531)">
    <g
       transform="matrix(1.25,0,0,-1.25,169.55175,974.48493)"
       id="g7271">
      <g
         id="g7273"
         clip-path="url(#clipPath7275)">
        <g
           id="g7279"
           transform="translate(138.0596,312.7547)">
          <path
             inkscape:connector-curvature="0"
             d="m 0,0 c -0.8,0.084 -1.48,0.264 -2.066,0.856 -0.544,0.549 -0.857,1.297 -0.857,2.07 l 0,76.037 c 0,0.77 0.313,1.524 0.857,2.069 0.546,0.543 1.296,0.855 2.066,0.855 l 52.598,0 c 0.772,0 1.523,-0.312 2.067,-0.855 0.546,-0.545 0.856,-1.299 0.856,-2.069 l 0,-76.037 c 0,-0.769 -0.31,-1.523 -0.856,-2.07 C 54.121,0.313 53.37,0 52.598,0 L 0,0 z"
             style="fill:#ffffff;fill-opacity:1;fill-rule:nonzero;stroke:none"
             id="path7281" />
        </g>
        <g
           id="g7283"
           transform="translate(138.0596,312.7547)">
          <path
             inkscape:connector-curvature="0"
             d="m 0,0 c -0.8,0.084 -1.48,0.264 -2.066,0.856 -0.544,0.549 -0.857,1.297 -0.857,2.07 l 0,76.037 c 0,0.77 0.313,1.524 0.857,2.069 0.546,0.543 1.296,0.855 2.066,0.855 l 52.598,0 c 0.772,0 1.523,-0.312 2.067,-0.855 0.546,-0.545 0.856,-1.299 0.856,-2.069 l 0,-76.037 c 0,-0.769 -0.31,-1.523 -0.856,-2.07 C 54.121,0.313 53.37,0 52.598,0 L 0,0 z"
             style="fill:none;stroke:#231f20;stroke-width:0.5;stroke-linecap:butt;stroke-linejoin:miter;stroke-miterlimit:4;stroke-opacity:1;stroke-dasharray:none"
             id="path7285" />
        </g>
        <g
           id="g7287"
           transform="translate(136.1123,315.6807)">
          <path
             inkscape:connector-curvature="0"
             d="m 0,0 0,76.037 c 0,0.512 0.208,1.014 0.571,1.377 0.361,0.363 0.864,0.572 1.376,0.572 l 52.598,0 c 0.513,0 1.016,-0.209 1.379,-0.572 0.36,-0.363 0.568,-0.865 0.568,-1.377 L 56.492,0 c 0,-0.514 -0.205,-1.015 -0.568,-1.379 -0.363,-0.363 -0.866,-0.572 -1.379,-0.572 l -52.598,0 c -0.512,0 -1.012,0.211 -1.376,0.572 C 0.208,-1.015 0,-0.514 0,0"
             style="fill:#231f20;fill-opacity:1;fill-rule:evenodd;stroke:none"
             id="path7289" />
        </g>
        <g
           id="g7291"
           transform="translate(137.5723,317.2397)">
          <path
             inkscape:connector-curvature="0"
             d="m 0,0 0,50.027 c 0,0.588 -0.081,1.233 0.36,1.688 0.437,0.447 1.11,0.359 1.686,0.359 l 49.482,-0.002 c 0.587,0 1.232,0.084 1.684,-0.357 0.449,-0.436 0.36,-1.114 0.36,-1.688 L 53.572,0 c 0,-0.59 0.082,-1.233 -0.36,-1.686 -0.434,-0.451 -1.109,-0.361 -1.684,-0.361 l -49.482,0 C 1.457,-2.047 0.814,-2.129 0.36,-1.686 -0.089,-1.25 0,-0.576 0,0"
             style="fill:#ffffff;fill-opacity:1;fill-rule:evenodd;stroke:none"
             id="path7293" />
        </g>
        <g
           id="g7295"
           transform="translate(165.9844,320.7607)">
          <path
             inkscape:connector-curvature="0"
             d="M 0,0 0,4.51 -1.803,0 l -1.803,4.51 0,-4.51 -1.229,0 0,7.787 1.229,0 L -1.803,3.414 0,7.787 1.231,7.787 1.231,0 0,0 z"
             style="fill:#231f20;fill-opacity:1;fill-rule:nonzero;stroke:none"
             id="path7297" />
        </g>
        <path
           inkscape:connector-curvature="0"
           d="m 169.074,328.548 1.257,0 0,-7.787 -1.257,0 0,7.787 z"
           style="fill:#231f20;fill-opacity:1;fill-rule:nonzero;stroke:none"
           id="path7299" />
        <g
           id="g7301"
           transform="translate(172.1894,320.7607)">
          <path
             inkscape:connector-curvature="0"
             d="m 0,0 0,7.787 1.23,0 0,-6.64 3.607,0 L 4.837,0 0,0 z"
             style="fill:#231f20;fill-opacity:1;fill-rule:nonzero;stroke:none"
             id="path7303" />
        </g>
        <g
           id="g7305"
           transform="translate(178.1738,320.7607)">
          <path
             inkscape:connector-curvature="0"
             d="m 0,0 0,7.787 4.591,0 0,-1.228 -3.362,0 0,-1.912 2.268,0 0,-1.26 -2.268,0 0,-2.131 3.608,0 L 4.837,0 0,0 z"
             style="fill:#231f20;fill-opacity:1;fill-rule:nonzero;stroke:none"
             id="path7307" />
        </g>
        <g
           id="g7309"
           transform="translate(143.3281,322.1477)">
          <path
             inkscape:connector-curvature="0"
             d="m 0,0 0,6.31 -0.708,0 0,0.985 0.081,0 c 0.327,0 0.683,0.191 0.901,0.492 l 0.983,0 L 1.257,0 0,0 z"
             style="fill:#231f20;fill-opacity:1;fill-rule:nonzero;stroke:none"
             id="path7311" />
        </g>
        <g
           id="g7313"
           transform="translate(151.1914,319.5797)">
          <path
             inkscape:connector-curvature="0"
             d="M 0,0 C 0.028,0.902 0.219,1.64 0.658,2.377 0.985,2.978 1.477,3.47 2.023,3.88 2.161,3.961 2.27,4.045 2.379,4.127 l 0.409,0.218 0.384,0.217 0.381,0.219 c 0.301,0.193 0.52,0.521 0.52,0.847 0,0.575 -0.655,1.04 -1.422,1.04 -0.793,0 -1.282,-0.383 -1.42,-1.092 L 0,5.847 C 0.274,7.132 1.285,7.925 2.651,7.925 4.126,7.925 5.302,6.886 5.302,5.601 5.302,5 5.03,4.4 4.51,3.935 4.4,3.851 4.291,3.771 4.182,3.718 L 3.799,3.47 3.39,3.253 3.007,3.035 C 2.27,2.595 1.858,2.13 1.477,1.257 l 3.825,0 L 5.302,0 0,0 z"
             style="fill:#231f20;fill-opacity:1;fill-rule:nonzero;stroke:none"
             id="path7315" />
        </g>
        <g
           id="g7317"
           transform="translate(150.7324,329.9777)">
          <path
             inkscape:connector-curvature="0"
             d="m 0,0 -5.909,-10.367 1.257,0 L 1.257,0 0,0 z"
             style="fill:#231f20;fill-opacity:1;fill-rule:evenodd;stroke:none"
             id="path7319" />
        </g>
        <g
           id="g7321"
           transform="translate(147.1621,352.7507)">
          <path
             inkscape:connector-curvature="0"
             d="m 0,0 0,4.237 -3.552,0 0,-4.237 -1.539,0 0,9.739 1.539,0 0,-3.93 3.552,0 0,3.93 1.539,0 L 1.539,0 0,0 z"
             style="fill:#231f20;fill-opacity:1;fill-rule:nonzero;stroke:none"
             id="path7323" />
        </g>
        <g
           id="g7325"
           transform="translate(155.6016,360.3367)">
          <path
             inkscape:connector-curvature="0"
             d="m 0,0 c -0.307,0.514 -0.683,0.717 -1.262,0.752 -0.754,0.034 -1.231,-0.343 -1.574,-1.197 -0.238,-0.58 -0.376,-1.469 -0.376,-2.289 0,-1.025 0.206,-2.084 0.582,-2.699 0.307,-0.514 0.719,-0.752 1.333,-0.752 0.719,0 1.163,0.377 1.503,1.228 0.206,0.514 0.376,1.471 0.376,2.223 C 0.582,-1.64 0.379,-0.65 0,0 m 1.062,-6.666 c -0.548,-0.75 -1.333,-1.091 -2.359,-1.091 -1.366,0 -2.222,0.546 -2.804,1.742 -0.408,0.82 -0.682,2.117 -0.682,3.281 0,1.607 0.411,3.041 1.058,3.963 0.582,0.752 1.37,1.094 2.496,1.094 1.229,0 2.085,-0.545 2.7,-1.744 0.411,-0.852 0.649,-2.083 0.649,-3.313 0,-1.539 -0.375,-3.074 -1.058,-3.932"
             style="fill:#231f20;fill-opacity:1;fill-rule:nonzero;stroke:none"
             id="path7327" />
        </g>
        <g
           id="g7329"
           transform="translate(163.29,352.7507)">
          <path
             inkscape:connector-curvature="0"
             d="m 0,0 -1.195,0 -3.075,9.739 1.607,0 2.084,-6.494 2.05,6.494 1.639,0 L 0,0 z"
             style="fill:#231f20;fill-opacity:1;fill-rule:nonzero;stroke:none"
             id="path7331" />
        </g>
        <g
           id="g7333"
           transform="translate(172.4844,352.7507)">
          <path
             inkscape:connector-curvature="0"
             d="m 0,0 c 0.033,1.127 0.274,2.049 0.82,2.973 0.411,0.752 1.026,1.365 1.708,1.879 0.171,0.102 0.308,0.205 0.445,0.307 l 0.513,0.275 0.477,0.272 0.48,0.273 c 0.376,0.238 0.648,0.65 0.648,1.059 0,0.718 -0.821,1.3 -1.778,1.3 -0.99,0 -1.604,-0.48 -1.775,-1.369 L 0,7.313 C 0.343,8.918 1.607,9.909 3.313,9.909 5.159,9.909 6.629,8.61 6.629,7.004 6.629,6.252 6.286,5.502 5.639,4.92 5.502,4.819 5.365,4.715 5.227,4.647 L 4.75,4.338 4.237,4.065 3.758,3.793 C 2.836,3.245 2.323,2.666 1.846,1.571 l 4.783,0 L 6.629,0 0,0 z"
             style="fill:#231f20;fill-opacity:1;fill-rule:nonzero;stroke:none"
             id="path7335" />
        </g>
        <g
           id="g7337"
           transform="translate(184.4102,356.7497)">
          <path
             inkscape:connector-curvature="0"
             d="m 0,0 0,-2.428 -1.539,0 0,2.428 -2.493,0 0,1.572 2.493,0 0,2.424 1.539,0 0,-2.424 2.492,0 L 2.492,0 0,0 z"
             style="fill:#231f20;fill-opacity:1;fill-rule:nonzero;stroke:none"
             id="path7339" />
        </g>
        <g
           id="g7341"
           transform="translate(153.835,344.7477)">
          <path
             inkscape:connector-curvature="0"
             d="m 0,0 c -0.308,0.513 -0.684,0.718 -1.265,0.752 -0.752,0.035 -1.231,-0.34 -1.571,-1.198 -0.241,-0.578 -0.376,-1.467 -0.376,-2.287 0,-1.025 0.203,-2.084 0.579,-2.701 0.31,-0.51 0.718,-0.752 1.333,-0.752 0.718,0 1.162,0.377 1.503,1.232 0.205,0.512 0.378,1.469 0.378,2.221 C 0.581,-1.641 0.376,-0.649 0,0 M 1.058,-6.663 C 0.513,-7.415 -0.275,-7.758 -1.3,-7.758 c -1.366,0 -2.221,0.549 -2.801,1.746 -0.411,0.818 -0.685,2.117 -0.685,3.279 0,1.606 0.411,3.039 1.061,3.963 0.581,0.752 1.366,1.096 2.493,1.096 1.232,0 2.084,-0.549 2.7,-1.744 0.411,-0.854 0.649,-2.086 0.649,-3.315 0,-1.539 -0.376,-3.076 -1.059,-3.93"
             style="fill:#231f20;fill-opacity:1;fill-rule:nonzero;stroke:none"
             id="path7343" />
        </g>
        <g
           id="g7345"
           transform="translate(163.3662,337.1637)">
          <path
             inkscape:connector-curvature="0"
             d="m 0,0 -3.725,6.593 0,-6.593 -1.536,0 0,9.736 1.536,0 3.555,-6.217 0,6.217 1.539,0 L 1.369,0 0,0 z"
             style="fill:#231f20;fill-opacity:1;fill-rule:nonzero;stroke:none"
             id="path7347" />
        </g>
        <g
           id="g7349"
           transform="translate(167.0586,337.1637)">
          <path
             inkscape:connector-curvature="0"
             d="m 0,0 0,9.736 1.538,0 0,-8.303 4.51,0 L 6.048,0 0,0 z"
             style="fill:#231f20;fill-opacity:1;fill-rule:nonzero;stroke:none"
             id="path7351" />
        </g>
        <g
           id="g7353"
           transform="translate(176.3535,341.3977)">
          <path
             inkscape:connector-curvature="0"
             d="m 0,0 0,-4.234 -1.536,0 0,4.234 -3.417,5.502 1.843,0 2.326,-3.758 2.356,3.758 1.813,0 L 0,0 z"
             style="fill:#231f20;fill-opacity:1;fill-rule:nonzero;stroke:none"
             id="path7355" />
        </g>
        <g
           id="g7357"
           transform="translate(146.5303,391.2977)">
          <path
             inkscape:connector-curvature="0"
             d="M 0,0 4.875,-9.75 0,-19.5 -4.875,-9.75 0,0 z M 0,-3.115 3.318,-9.75 0,-16.384 -3.319,-9.75 0,-3.115 z"
             style="fill:#ffffff;fill-opacity:1;fill-rule:evenodd;stroke:none"
             id="path7359" />
        </g>
        <g
           id="g7361"
           transform="translate(162.749,382.2237)">
          <path
             inkscape:connector-curvature="0"
             d="m 0,0 0,5.856 1.049,0 0,-4.952 3.329,0 L 4.378,0 0,0 z"
             style="fill:#ffffff;fill-opacity:1;fill-rule:nonzero;stroke:none"
             id="path7363" />
        </g>
        <g
           id="g7365"
           transform="translate(168.3603,382.2237)">
          <path
             inkscape:connector-curvature="0"
             d="m 0,0 0,5.856 4.276,0 0,-1.047 -3.207,0 0,-1.09 1.747,0 0,-1.068 -1.747,0 0,-1.604 3.309,0 L 4.378,0 0,0 z"
             style="fill:#ffffff;fill-opacity:1;fill-rule:nonzero;stroke:none"
             id="path7367" />
        </g>
        <g
           id="g7369"
           transform="translate(175.2031,387.0327)">
          <path
             inkscape:connector-curvature="0"
             d="m 0,0 0,-1.194 1.831,0 0,-1.066 -1.831,0 0,-2.549 -1.068,0 0,5.856 4.377,0 L 3.309,0 0,0 z"
             style="fill:#ffffff;fill-opacity:1;fill-rule:nonzero;stroke:none"
             id="path7371" />
        </g>
        <g
           id="g7373"
           transform="translate(181.9248,387.0537)">
          <path
             inkscape:connector-curvature="0"
             d="m 0,0 0,-4.83 -1.028,0 0,4.83 -1.684,0 0,1.026 4.398,0 L 1.686,0 0,0 z"
             style="fill:#ffffff;fill-opacity:1;fill-rule:nonzero;stroke:none"
             id="path7375" />
        </g>
        <g
           id="g7377"
           transform="translate(161.5176,374.5047)">
          <path
             inkscape:connector-curvature="0"
             d="m 0,0 0,5.856 1.047,0 0,-4.951 3.331,0 L 4.378,0 0,0 z"
             style="fill:#ffffff;fill-opacity:1;fill-rule:nonzero;stroke:none"
             id="path7379" />
        </g>
        <g
           id="g7381"
           transform="translate(172.5732,374.5047)">
          <path
             inkscape:connector-curvature="0"
             d="m 0,0 -2.445,5.856 -1.07,0 L -5.98,0 l 1.151,0 0.576,1.377 2.547,0 L -1.13,0 0,0 z m -2.158,2.424 -1.643,0 0.822,1.975 0.821,-1.975 z"
             style="fill:#ffffff;fill-opacity:1;fill-rule:nonzero;stroke:none"
             id="path7383" />
        </g>
        <g
           id="g7385"
           transform="translate(177.6279,374.5047)">
          <path
             inkscape:connector-curvature="0"
             d="m 0,0 -2.793,4.028 0,-4.028 -1.028,0 0,5.856 1.028,0 2.692,-3.863 0,3.863 1.008,0 L 0.907,0 0,0 z"
             style="fill:#ffffff;fill-opacity:1;fill-rule:nonzero;stroke:none"
             id="path7387" />
        </g>
        <g
           id="g7389"
           transform="translate(180.2793,374.5047)">
          <path
             inkscape:connector-curvature="0"
             d="m 0,0 0,5.856 4.275,0 0,-1.047 -3.207,0 0,-1.09 1.747,0 0,-1.068 -1.747,0 0,-1.604 3.312,0 L 4.38,0 0,0 z"
             style="fill:#ffffff;fill-opacity:1;fill-rule:nonzero;stroke:none"
             id="path7391" />
        </g>
      </g>
    </g>
  </g>
</svg>
