<?xml version="1.0" encoding="UTF-8" standalone="no"?>
<!-- Created with Inkscape (http://www.inkscape.org/) -->

<svg
   xmlns:dc="http://purl.org/dc/elements/1.1/"
   xmlns:cc="http://creativecommons.org/ns#"
   xmlns:rdf="http://www.w3.org/1999/02/22-rdf-syntax-ns#"
   xmlns:svg="http://www.w3.org/2000/svg"
   xmlns="http://www.w3.org/2000/svg"
   xmlns:sodipodi="http://sodipodi.sourceforge.net/DTD/sodipodi-0.dtd"
   xmlns:inkscape="http://www.inkscape.org/namespaces/inkscape"
   width="73.75"
   height="103.00781"
   id="svg9596"
   version="1.1"
   inkscape:version="0.48.3.1 r9886"
   sodipodi:docname="New document 44">
  <defs
     id="defs9598">
    <clipPath
       clipPathUnits="userSpaceOnUse"
       id="clipPath7119">
      <path
         inkscape:connector-curvature="0"
         d="m 63,212.4 513,0 0,525.6 -513,0 0,-525.6 z"
         id="path7121" />
    </clipPath>
  </defs>
  <sodipodi:namedview
     id="base"
     pagecolor="#ffffff"
     bordercolor="#666666"
     borderopacity="1.0"
     inkscape:pageopacity="0.0"
     inkscape:pageshadow="2"
     inkscape:zoom="0.98994949"
     inkscape:cx="246.91642"
     inkscape:cy="172.71415"
     inkscape:document-units="px"
     inkscape:current-layer="layer1"
     showgrid="false"
     fit-margin-top="0"
     fit-margin-left="0"
     fit-margin-right="0"
     fit-margin-bottom="0"
     inkscape:window-width="1366"
     inkscape:window-height="706"
     inkscape:window-x="-8"
     inkscape:window-y="-8"
     inkscape:window-maximized="1" />
  <metadata
     id="metadata9601">
    <rdf:RDF>
      <cc:Work
         rdf:about="">
        <dc:format>image/svg+xml</dc:format>
        <dc:type
           rdf:resource="http://purl.org/dc/dcmitype/StillImage" />
        <dc:title></dc:title>
      </cc:Work>
    </rdf:RDF>
  </metadata>
  <g
     inkscape:label="Layer 1"
     inkscape:groupmode="layer"
     id="layer1"
     transform="translate(-338.12344,-480.855)">
    <g
       id="g6013"
       transform="matrix(1.25,0,0,-1.25,343.00625,583.55031)">
      <path
         d="m 0,0 51.189,0 c 1.995,0.001 3.657,1.66 3.657,3.656 l 0,74.588 c -0.003,1.996 -1.662,3.657 -3.657,3.657 L 0,81.901 C -1.995,81.9 -3.656,80.24 -3.656,78.244 l 0,-74.588 C -3.656,1.517 -1.99,0.201 0,0"
         style="fill:#ffffff;fill-opacity:1;fill-rule:nonzero;stroke:#231f20;stroke-width:0.5;stroke-linecap:butt;stroke-linejoin:miter;stroke-miterlimit:4;stroke-opacity:1;stroke-dasharray:none"
         id="path6015"
         inkscape:connector-curvature="0" />
    </g>
    <g
       id="g6017"
       transform="matrix(1.25,0,0,-1.25,408.48125,578.98031)">
      <path
         d="m 0,0 c 0,-0.644 -0.548,-1.19 -1.191,-1.199 l -51.189,0 c -0.652,0 -1.191,0.555 -1.191,1.199 l 0,52.228 c 0,0.654 0.539,1.188 1.191,1.192 l 51.189,0 c 0.648,0 1.189,-0.547 1.191,-1.192 L 0,0 z m -1.191,77.316 -51.189,0 c -1.49,0 -2.727,-1.237 -2.727,-2.728 l 0,-74.588 c 0,-1.489 1.24,-2.727 2.727,-2.727 l 51.189,0 c 1.488,0 2.727,1.239 2.727,2.727 l 0,74.588 c 0,1.49 -1.239,2.728 -2.727,2.728"
         style="fill:#231f20;fill-opacity:1;fill-rule:evenodd;stroke:none"
         id="path6019"
         inkscape:connector-curvature="0" />
    </g>
    <g
       id="g6021"
       transform="matrix(1.25,0,0,-1.25,374.99875,484.92781)">
      <path
         d="M 0,0 4.875,-9.75 0,-19.5 -4.875,-9.75 0,0 z M 0,-3.116 3.319,-9.75 0,-16.386 -3.319,-9.75 0,-3.116 z"
         style="fill:#ffffff;fill-opacity:1;fill-rule:evenodd;stroke:none"
         id="path6023"
         inkscape:connector-curvature="0" />
    </g>
    <g
       transform="matrix(1.25,0,0,-1.25,104.311,1103.9037)"
       id="g7115">
      <g
         id="g7117"
         clip-path="url(#clipPath7119)">
        <g
           id="g7123"
           transform="translate(210.9532,457.3667)">
          <path
             inkscape:connector-curvature="0"
             d="m 0,0 0,3.353 -2.812,0 0,-3.353 -1.216,0 0,7.707 1.216,0 0,-3.11 2.812,0 0,3.11 1.219,0 L 1.219,0 0,0 z"
             style="fill:#231f20;fill-opacity:1;fill-rule:nonzero;stroke:none"
             id="path7125" />
        </g>
        <g
           id="g7127"
           transform="translate(217.6332,463.3697)">
          <path
             inkscape:connector-curvature="0"
             d="m 0,0 c -0.244,0.406 -0.541,0.568 -1,0.594 -0.595,0.028 -0.976,-0.269 -1.245,-0.946 -0.188,-0.459 -0.296,-1.163 -0.296,-1.811 0,-0.812 0.162,-1.65 0.459,-2.137 0.244,-0.405 0.569,-0.595 1.053,-0.595 0.57,0 0.919,0.298 1.192,0.974 0.162,0.406 0.297,1.163 0.297,1.758 C 0.46,-1.297 0.296,-0.514 0,0 m 0.837,-5.273 c -0.431,-0.596 -1.053,-0.865 -1.866,-0.865 -1.081,0 -1.757,0.432 -2.217,1.379 -0.324,0.649 -0.54,1.676 -0.54,2.596 0,1.27 0.325,2.407 0.838,3.136 0.459,0.595 1.081,0.865 1.975,0.865 0.973,0 1.648,-0.431 2.136,-1.377 0.325,-0.677 0.512,-1.651 0.512,-2.624 0,-1.217 -0.296,-2.434 -0.838,-3.11"
             style="fill:#231f20;fill-opacity:1;fill-rule:nonzero;stroke:none"
             id="path7129" />
        </g>
        <g
           id="g7131"
           transform="translate(223.7172,457.3667)">
          <path
             inkscape:connector-curvature="0"
             d="m 0,0 -0.948,0 -2.432,7.707 1.269,0 1.651,-5.138 1.624,5.138 1.297,0 L 0,0 z"
             style="fill:#231f20;fill-opacity:1;fill-rule:nonzero;stroke:none"
             id="path7133" />
        </g>
        <g
           id="g7135"
           transform="translate(203.7522,442.0757)">
          <path
             inkscape:connector-curvature="0"
             d="m 0,0 0,7.956 1.256,0 0,-6.783 3.686,0 L 4.942,0 0,0 z"
             style="fill:#231f20;fill-opacity:1;fill-rule:nonzero;stroke:none"
             id="path7137" />
        </g>
        <g
           id="g7139"
           transform="translate(212.5462,447.8257)">
          <path
             inkscape:connector-curvature="0"
             d="m 0,0 -0.81,-2.233 1.592,0 L 0,0 z m 2.008,-5.75 -0.78,2.233 -2.485,0 -0.782,-2.233 -1.341,0 2.737,7.956 1.257,0 2.734,-7.956 -1.34,0 z"
             style="fill:#231f20;fill-opacity:1;fill-rule:nonzero;stroke:none"
             id="path7141" />
        </g>
        <g
           id="g7143"
           transform="translate(221.3942,442.0757)">
          <path
             inkscape:connector-curvature="0"
             d="m 0,0 -3.044,5.387 0,-5.387 -1.255,0 0,7.956 1.255,0 2.905,-5.08 0,5.08 1.257,0 L 1.118,0 0,0 z"
             style="fill:#231f20;fill-opacity:1;fill-rule:nonzero;stroke:none"
             id="path7145" />
        </g>
        <g
           id="g7147"
           transform="translate(224.4092,442.0757)">
          <path
             inkscape:connector-curvature="0"
             d="m 0,0 0,7.956 4.689,0 0,-1.257 -3.433,0 0,-1.953 2.316,0 0,-1.284 -2.316,0 0,-2.178 3.685,0 L 4.941,0 0,0 z"
             style="fill:#231f20;fill-opacity:1;fill-rule:nonzero;stroke:none"
             id="path7149" />
        </g>
        <g
           id="g7151"
           transform="translate(204.1402,427.0247)">
          <path
             inkscape:connector-curvature="0"
             d="m 0,0 0,7.715 4.548,0 0,-1.217 -3.33,0 0,-1.897 2.246,0 0,-1.244 -2.246,0 0,-2.111 3.573,0 L 4.791,0 0,0 z"
             style="fill:#231f20;fill-opacity:1;fill-rule:nonzero;stroke:none"
             id="path7153" />
        </g>
        <g
           id="g7155"
           transform="translate(214.3982,427.0247)">
          <path
             inkscape:connector-curvature="0"
             d="m 0,0 -2.95,5.225 0,-5.225 -1.219,0 0,7.715 1.219,0 2.815,-4.928 0,4.928 1.219,0 L 1.084,0 0,0 z"
             style="fill:#231f20;fill-opacity:1;fill-rule:nonzero;stroke:none"
             id="path7157" />
        </g>
        <g
           id="g7159"
           transform="translate(220.7052,433.1967)">
          <path
             inkscape:connector-curvature="0"
             d="m 0,0 c -0.188,0.189 -0.46,0.326 -0.785,0.326 l -1.379,0 0,-5.252 1.217,0 c 0.406,0 0.65,0.08 0.868,0.297 0.46,0.461 0.703,1.299 0.703,2.328 C 0.624,-1.272 0.381,-0.406 0,0 M 0.515,-5.739 C 0.218,-6.01 -0.188,-6.145 -0.594,-6.172 l -0.434,0 -2.354,0 0,7.715 2.491,0 c 0.784,0 1.082,-0.082 1.488,-0.407 0.813,-0.703 1.272,-1.919 1.272,-3.437 0,-1.543 -0.488,-2.762 -1.354,-3.438"
             style="fill:#231f20;fill-opacity:1;fill-rule:nonzero;stroke:none"
             id="path7161" />
        </g>
        <g
           id="g7163"
           transform="translate(228.2062,427.4838)">
          <path
             inkscape:connector-curvature="0"
             d="m 0,0 c -0.435,-0.377 -1.029,-0.594 -1.679,-0.594 -1.327,0 -2.303,0.785 -2.817,1.947 l 1.164,0.434 c 0.326,-0.73 0.922,-1.137 1.653,-1.137 0.705,0 1.191,0.489 1.191,1.137 0,1.029 -1.191,1.191 -2.193,1.598 -0.459,0.189 -1.489,0.65 -1.489,1.922 0,1.515 1.03,2.085 2.411,2.085 1.082,0 1.812,-0.625 2.191,-1.57 L -0.65,5.496 c 0,0 -0.272,0.65 -1.137,0.678 C -2.357,6.201 -3.031,5.984 -2.978,5.279 -2.869,3.844 0.756,4.791 0.756,1.76 0.756,1.057 0.487,0.435 0,0"
             style="fill:#231f20;fill-opacity:1;fill-rule:nonzero;stroke:none"
             id="path7165" />
        </g>
      </g>
    </g>
  </g>
</svg>
