<?xml version="1.0" encoding="UTF-8" standalone="no"?>
<!-- Created with Inkscape (http://www.inkscape.org/) -->

<svg
   xmlns:dc="http://purl.org/dc/elements/1.1/"
   xmlns:cc="http://creativecommons.org/ns#"
   xmlns:rdf="http://www.w3.org/1999/02/22-rdf-syntax-ns#"
   xmlns:svg="http://www.w3.org/2000/svg"
   xmlns="http://www.w3.org/2000/svg"
   xmlns:sodipodi="http://sodipodi.sourceforge.net/DTD/sodipodi-0.dtd"
   xmlns:inkscape="http://www.inkscape.org/namespaces/inkscape"
   width="73.75"
   height="103.00781"
   id="svg8294"
   version="1.1"
   inkscape:version="0.48.3.1 r9886"
   sodipodi:docname="New document 31">
  <defs
     id="defs8296">
    <clipPath
       clipPathUnits="userSpaceOnUse"
       id="clipPath6621">
      <path
         inkscape:connector-curvature="0"
         d="m 63,212.4 513,0 0,525.6 -513,0 0,-525.6 z"
         id="path6623" />
    </clipPath>
  </defs>
  <sodipodi:namedview
     id="base"
     pagecolor="#ffffff"
     bordercolor="#666666"
     borderopacity="1.0"
     inkscape:pageopacity="0.0"
     inkscape:pageshadow="2"
     inkscape:zoom="0.35"
     inkscape:cx="-196.69737"
     inkscape:cy="174.35719"
     inkscape:document-units="px"
     inkscape:current-layer="layer1"
     showgrid="false"
     fit-margin-top="0"
     fit-margin-left="0"
     fit-margin-right="0"
     fit-margin-bottom="0"
     inkscape:window-width="451"
     inkscape:window-height="415"
     inkscape:window-x="125"
     inkscape:window-y="125"
     inkscape:window-maximized="0" />
  <metadata
     id="metadata8299">
    <rdf:RDF>
      <cc:Work
         rdf:about="">
        <dc:format>image/svg+xml</dc:format>
        <dc:type
           rdf:resource="http://purl.org/dc/dcmitype/StillImage" />
        <dc:title></dc:title>
      </cc:Work>
    </rdf:RDF>
  </metadata>
  <g
     inkscape:label="Layer 1"
     inkscape:groupmode="layer"
     id="layer1"
     transform="translate(-571.69737,-603.71156)">
    <g
       transform="matrix(1.25,0,0,-1.25,338.08743,1356.209)"
       id="g6617">
      <g
         id="g6619"
         clip-path="url(#clipPath6621)">
        <g
           id="g6625"
           transform="translate(190.7942,519.8417)">
          <path
             inkscape:connector-curvature="0"
             d="m 0,0 51.187,0 c 1.996,0.001 3.656,1.66 3.656,3.656 l 0,74.588 C 54.841,80.24 53.183,81.9 51.187,81.9 L 0,81.9 c -1.996,-0.001 -3.657,-1.66 -3.657,-3.656 l 0,-74.588 C -3.657,1.516 -1.99,0.201 0,0"
             style="fill:#ffffff;fill-opacity:1;fill-rule:nonzero;stroke:#231f20;stroke-width:0.5;stroke-linecap:butt;stroke-linejoin:miter;stroke-miterlimit:4;stroke-opacity:1;stroke-dasharray:none"
             id="path6627" />
        </g>
        <g
           id="g6629"
           transform="translate(243.1722,523.4977)">
          <path
             inkscape:connector-curvature="0"
             d="m 0,0 c 0,-0.644 -0.548,-1.19 -1.191,-1.199 l -51.187,0 c -0.653,0 -1.191,0.555 -1.191,1.199 l 0,52.228 c 0,0.654 0.538,1.188 1.191,1.192 l 51.187,0 c 0.648,0 1.189,-0.547 1.191,-1.192 L 0,0 z m -1.191,77.315 -51.187,0 c -1.49,0 -2.727,-1.237 -2.727,-2.727 l 0,-74.588 c 0,-1.489 1.238,-2.727 2.727,-2.727 l 51.187,0 c 1.489,0 2.727,1.239 2.727,2.727 l 0,74.588 c 0,1.489 -1.238,2.727 -2.727,2.727"
             style="fill:#231f20;fill-opacity:1;fill-rule:evenodd;stroke:none"
             id="path6631" />
        </g>
        <g
           id="g6633"
           transform="translate(194.9402,598.7387)">
          <path
             inkscape:connector-curvature="0"
             d="M 0,0 4.875,-9.75 0,-19.5 -4.875,-9.75 0,0 z M 0,-3.115 3.319,-9.75 0,-16.385 -3.318,-9.75 0,-3.115 z"
             style="fill:#ffffff;fill-opacity:1;fill-rule:evenodd;stroke:none"
             id="path6635" />
        </g>
        <g
           id="g6637"
           transform="translate(225.7742,559.2498)">
          <path
             inkscape:connector-curvature="0"
             d="m 0,0 c 0.03,1.041 0.252,1.892 0.757,2.743 0.378,0.694 0.944,1.262 1.577,1.735 0.157,0.094 0.284,0.188 0.408,0.284 l 0.475,0.253 0.439,0.251 0.443,0.252 c 0.347,0.221 0.598,0.599 0.598,0.977 0,0.663 -0.756,1.198 -1.637,1.198 -0.914,0 -1.483,-0.44 -1.64,-1.26 L 0,6.748 c 0.316,1.482 1.484,2.397 3.06,2.397 1.701,0 3.057,-1.2 3.057,-2.681 C 6.117,5.771 5.802,5.076 5.203,4.54 5.076,4.445 4.951,4.352 4.824,4.289 L 4.383,4.005 3.91,3.752 3.469,3.5 C 2.618,2.996 2.146,2.46 1.701,1.451 l 4.416,0 L 6.117,0 0,0 z"
             style="fill:#231f20;fill-opacity:1;fill-rule:nonzero;stroke:none"
             id="path6639" />
        </g>
        <g
           id="g6641"
           transform="translate(236.7162,562.9377)">
          <path
             inkscape:connector-curvature="0"
             d="m 0,0 0,-2.237 -1.42,0 0,2.237 -2.3,0 0,1.452 2.3,0 0,2.238 1.42,0 0,-2.238 2.302,0 L 2.302,0 0,0 z"
             style="fill:#231f20;fill-opacity:1;fill-rule:nonzero;stroke:none"
             id="path6643" />
        </g>
        <g
           id="g6645"
           transform="translate(198.4572,559.2137)">
          <path
             inkscape:connector-curvature="0"
             d="m 0,0 0,3.91 -3.28,0 0,-3.91 -1.42,0 0,8.987 1.42,0 0,-3.626 3.28,0 0,3.626 1.419,0 L 1.419,0 0,0 z"
             style="fill:#231f20;fill-opacity:1;fill-rule:nonzero;stroke:none"
             id="path6647" />
        </g>
        <g
           id="g6649"
           transform="translate(206.4982,566.2137)">
          <path
             inkscape:connector-curvature="0"
             d="m 0,0 c -0.284,0.473 -0.632,0.663 -1.168,0.693 -0.693,0.032 -1.135,-0.314 -1.45,-1.102 -0.221,-0.536 -0.348,-1.356 -0.348,-2.114 0,-0.945 0.19,-1.922 0.536,-2.49 0.284,-0.473 0.662,-0.694 1.229,-0.694 0.663,0 1.074,0.347 1.388,1.136 0.189,0.472 0.349,1.356 0.349,2.048 0,1.01 -0.19,1.924 -0.536,2.523 m 0.974,-6.148 c -0.502,-0.694 -1.228,-1.009 -2.175,-1.009 -1.259,0 -2.049,0.505 -2.585,1.608 -0.378,0.757 -0.629,1.955 -0.629,3.026 0,1.483 0.378,2.808 0.977,3.659 0.535,0.693 1.262,1.008 2.3,1.008 1.138,0 1.925,-0.504 2.491,-1.607 0.378,-0.789 0.599,-1.924 0.599,-3.06 0,-1.418 -0.345,-2.837 -0.978,-3.625"
             style="fill:#231f20;fill-opacity:1;fill-rule:nonzero;stroke:none"
             id="path6651" />
        </g>
        <g
           id="g6653"
           transform="translate(213.8442,559.2137)">
          <path
             inkscape:connector-curvature="0"
             d="m 0,0 -1.105,0 -2.836,8.987 1.48,0 1.924,-5.991 1.892,5.991 1.514,0 L 0,0 z"
             style="fill:#231f20;fill-opacity:1;fill-rule:nonzero;stroke:none"
             id="path6655" />
        </g>
        <g
           id="g6657"
           transform="translate(206.0152,553.6257)">
          <path
             inkscape:connector-curvature="0"
             d="m 0,0 c -0.284,0.472 -0.629,0.662 -1.165,0.692 -0.696,0.033 -1.137,-0.314 -1.453,-1.102 -0.22,-0.536 -0.344,-1.357 -0.344,-2.112 0,-0.947 0.187,-1.924 0.535,-2.492 0.285,-0.473 0.663,-0.694 1.229,-0.694 0.662,0 1.071,0.347 1.386,1.136 0.19,0.472 0.349,1.355 0.349,2.05 C 0.537,-1.514 0.348,-0.6 0,0 m 0.978,-6.149 c -0.505,-0.694 -1.229,-1.009 -2.176,-1.009 -1.262,0 -2.049,0.504 -2.585,1.608 -0.378,0.757 -0.632,1.955 -0.632,3.028 0,1.481 0.378,2.805 0.978,3.657 0.535,0.693 1.262,1.009 2.303,1.009 1.134,0 1.922,-0.504 2.49,-1.609 0.379,-0.788 0.599,-1.923 0.599,-3.057 0,-1.419 -0.347,-2.839 -0.977,-3.627"
             style="fill:#231f20;fill-opacity:1;fill-rule:nonzero;stroke:none"
             id="path6659" />
        </g>
        <g
           id="g6661"
           transform="translate(214.7502,546.6248)">
          <path
             inkscape:connector-curvature="0"
             d="m 0,0 -3.438,6.087 0,-6.087 -1.42,0 0,8.987 1.42,0 3.281,-5.739 0,5.739 1.419,0 L 1.262,0 0,0 z"
             style="fill:#231f20;fill-opacity:1;fill-rule:nonzero;stroke:none"
             id="path6663" />
        </g>
        <g
           id="g6665"
           transform="translate(218.0922,546.6248)">
          <path
             inkscape:connector-curvature="0"
             d="m 0,0 0,8.987 1.419,0 0,-7.663 4.161,0 L 5.58,0 0,0 z"
             style="fill:#231f20;fill-opacity:1;fill-rule:nonzero;stroke:none"
             id="path6667" />
        </g>
        <g
           id="g6669"
           transform="translate(228.8752,550.5347)">
          <path
             inkscape:connector-curvature="0"
             d="m 0,0 0,-3.91 -1.42,0 0,3.91 -3.153,5.077 1.704,0 2.142,-3.469 2.176,3.469 1.671,0 L 0,0 z"
             style="fill:#231f20;fill-opacity:1;fill-rule:nonzero;stroke:none"
             id="path6671" />
        </g>
        <g
           id="g6673"
           transform="translate(217.0072,531.5827)">
          <path
             inkscape:connector-curvature="0"
             d="M 0,0 2.107,0 3.21,0 c 0.058,0 0.128,-0.027 0.128,0.037 l 0,0.62 c 0,0.083 -0.042,0.055 -0.116,0.055 l -0.439,0 -1.379,0 -1.193,0 L 0,0.712 0,0.184 0,0"
             style="fill:#231f20;fill-opacity:1;fill-rule:evenodd;stroke:none"
             id="path6675" />
        </g>
        <g
           id="g6677"
           transform="translate(215.1262,539.4577)">
          <path
             inkscape:connector-curvature="0"
             d="m 0,0 2.112,0 1.105,0 c 0.055,0 0.129,-0.027 0.129,0.036 l 0,0.615 c 0,0.092 -0.018,0.067 -0.107,0.067 l -0.426,0 -1.377,0 -1.211,0 -0.225,0 c -0.003,0 0,-0.451 0,-0.488 L 0,0"
             style="fill:#231f20;fill-opacity:1;fill-rule:evenodd;stroke:none"
             id="path6679" />
        </g>
        <g
           id="g6681"
           transform="translate(199.0032,539.5468)">
          <path
             inkscape:connector-curvature="0"
             d="m 0,0 c -0.44,0 -0.803,-0.301 -0.803,-0.648 0,-0.363 0.363,-0.662 0.803,-0.662 0.439,0 0.817,0.299 0.817,0.662 C 0.817,-0.301 0.454,0 0,0 m 0,-2.035 c -0.866,0 -1.527,0.632 -1.527,1.434 0,1.244 0.694,2.522 1.73,3.216 l 0.363,-0.6 C 0.014,1.589 -0.267,1.227 -0.536,0.661 -0.283,0.708 -0.173,0.708 0,0.708 c 0.833,0 1.525,-0.615 1.525,-1.371 0,-0.774 -0.66,-1.372 -1.525,-1.372"
             style="fill:#231f20;fill-opacity:1;fill-rule:nonzero;stroke:none"
             id="path6683" />
        </g>
        <g
           id="g6685"
           transform="translate(203.4432,540.8357)">
          <path
             inkscape:connector-curvature="0"
             d="m 0,0 -0.457,-1.259 0.9,0 L 0,0 z m 1.135,-3.244 -0.441,1.261 -1.402,0 -0.442,-1.261 -0.754,0 1.541,4.49 0.709,0 1.546,-4.49 -0.757,0 z"
             style="fill:#231f20;fill-opacity:1;fill-rule:nonzero;stroke:none"
             id="path6687" />
        </g>
        <g
           id="g6689"
           transform="translate(208.8642,537.5917)">
          <path
             inkscape:connector-curvature="0"
             d="M 0,0 0,2.598 -1.041,0 -2.079,2.598 -2.079,0 -2.79,0 l 0,4.49 0.711,0 L -1.041,1.97 0,4.49 0.709,4.49 0.709,0 0,0 z"
             style="fill:#231f20;fill-opacity:1;fill-rule:nonzero;stroke:none"
             id="path6691" />
        </g>
        <g
           id="g6693"
           transform="translate(225.5082,541.4127)">
          <path
             inkscape:connector-curvature="0"
             d="m 0,0 c -0.44,0 -0.802,-0.285 -0.802,-0.647 0,-0.364 0.362,-0.647 0.802,-0.647 0.457,0 0.82,0.283 0.82,0.647 C 0.82,-0.303 0.442,0 0,0 m -0.204,-3.925 -0.344,0.599 c 0.533,0.425 0.817,0.787 1.086,1.369 C 0.284,-2.002 0.175,-2.018 0,-2.018 c -0.833,0 -1.526,0.614 -1.526,1.371 0,0.77 0.675,1.371 1.526,1.371 0.868,0 1.531,-0.616 1.531,-1.434 0,-1.23 -0.694,-2.506 -1.735,-3.215"
             style="fill:#231f20;fill-opacity:1;fill-rule:nonzero;stroke:none"
             id="path6695" />
        </g>
        <g
           id="g6697"
           transform="translate(229.9692,540.8127)">
          <path
             inkscape:connector-curvature="0"
             d="m 0,0 -0.457,-1.26 0.896,0 L 0,0 z m 1.135,-3.247 -0.442,1.261 -1.404,0 -0.439,-1.261 -0.757,0 1.544,4.493 0.711,0 1.543,-4.493 -0.756,0 z"
             style="fill:#231f20;fill-opacity:1;fill-rule:nonzero;stroke:none"
             id="path6699" />
        </g>
        <g
           id="g6701"
           transform="translate(235.4212,537.5657)">
          <path
             inkscape:connector-curvature="0"
             d="M 0,0 0,2.6 -1.039,0 -2.08,2.6 l 0,-2.6 -0.711,0 0,4.493 0.711,0 L -1.039,1.97 0,4.493 0.711,4.493 0.711,0 0,0 z"
             style="fill:#231f20;fill-opacity:1;fill-rule:nonzero;stroke:none"
             id="path6703" />
        </g>
        <g
           id="g6705"
           transform="translate(207.0152,529.6997)">
          <path
             inkscape:connector-curvature="0"
             d="M 0,0 0,2.602 -1.041,0 -2.082,2.602 -2.082,0 -2.79,0 l 0,4.49 0.708,0 L -1.041,1.97 0,4.49 0.709,4.49 0.709,0 0,0 z"
             style="fill:#231f20;fill-opacity:1;fill-rule:nonzero;stroke:none"
             id="path6707" />
        </g>
        <g
           id="g6709"
           transform="translate(210.8752,533.1987)">
          <path
             inkscape:connector-curvature="0"
             d="M 0,0 C -0.142,0.236 -0.315,0.33 -0.581,0.347 -0.929,0.362 -1.15,0.188 -1.308,-0.205 -1.416,-0.473 -1.48,-0.883 -1.48,-1.262 c 0,-0.471 0.094,-0.961 0.269,-1.243 0.14,-0.237 0.33,-0.347 0.612,-0.347 0.332,0 0.535,0.172 0.694,0.567 0.093,0.237 0.174,0.678 0.174,1.023 C 0.269,-0.757 0.173,-0.3 0,0 m 0.49,-3.072 c -0.254,-0.347 -0.617,-0.506 -1.089,-0.506 -0.63,0 -1.023,0.253 -1.29,0.803 -0.19,0.38 -0.317,0.979 -0.317,1.513 0,0.742 0.19,1.404 0.49,1.828 0.267,0.348 0.63,0.506 1.15,0.506 0.566,0 0.962,-0.252 1.245,-0.805 0.19,-0.394 0.298,-0.961 0.298,-1.529 0,-0.708 -0.172,-1.418 -0.487,-1.81"
             style="fill:#231f20;fill-opacity:1;fill-rule:nonzero;stroke:none"
             id="path6711" />
        </g>
        <g
           id="g6713"
           transform="translate(215.3042,529.6997)">
          <path
             inkscape:connector-curvature="0"
             d="m 0,0 -1.717,3.042 0,-3.042 -0.711,0 0,4.49 0.711,0 1.637,-2.868 0,2.868 0.709,0 L 0.629,0 0,0 z"
             style="fill:#231f20;fill-opacity:1;fill-rule:nonzero;stroke:none"
             id="path6715" />
        </g>
        <g
           id="g6717"
           transform="translate(222.1382,533.4817)">
          <path
             inkscape:connector-curvature="0"
             d="m 0,0 0,-1.104 1.308,0 0,-0.726 -1.308,0 0,-1.952 -0.708,0 0,4.49 2.788,0 L 2.08,0 0,0 z"
             style="fill:#231f20;fill-opacity:1;fill-rule:nonzero;stroke:none"
             id="path6719" />
        </g>
        <g
           id="g6721"
           transform="translate(226.8482,533.4027)">
          <path
             inkscape:connector-curvature="0"
             d="m 0,0 c -0.109,0.063 -0.172,0.079 -0.409,0.079 l -0.85,0 0,-1.104 0.85,0 c 0.222,0 0.3,0.018 0.409,0.08 0.175,0.095 0.285,0.284 0.285,0.473 0,0.19 -0.11,0.378 -0.285,0.472 m 0.318,-3.703 -0.727,1.952 -0.85,0 0,-1.952 -0.708,0 0,4.49 1.482,0 c 0.346,0 0.582,-0.03 0.803,-0.14 0.393,-0.191 0.676,-0.663 0.676,-1.119 0,-0.473 -0.283,-0.946 -0.692,-1.135 l 0.787,-2.096 -0.771,0 z"
             style="fill:#231f20;fill-opacity:1;fill-rule:nonzero;stroke:none"
             id="path6723" />
        </g>
        <path
           inkscape:connector-curvature="0"
           d="m 228.976,534.19 0.726,0 0,-4.49 -0.726,0 0,4.49 z"
           style="fill:#231f20;fill-opacity:1;fill-rule:nonzero;stroke:none"
           id="path6725" />
        <g
           id="g6727"
           transform="translate(211.1602,589.6637)">
          <path
             inkscape:connector-curvature="0"
             d="m 0,0 0,5.857 1.048,0 0,-4.953 3.329,0 L 4.377,0 0,0 z"
             style="fill:#ffffff;fill-opacity:1;fill-rule:nonzero;stroke:none"
             id="path6729" />
        </g>
        <g
           id="g6731"
           transform="translate(216.7712,589.6637)">
          <path
             inkscape:connector-curvature="0"
             d="m 0,0 0,5.857 4.276,0 0,-1.048 -3.207,0 0,-1.089 1.747,0 0,-1.069 -1.747,0 0,-1.603 3.308,0 L 4.377,0 0,0 z"
             style="fill:#ffffff;fill-opacity:1;fill-rule:nonzero;stroke:none"
             id="path6733" />
        </g>
        <g
           id="g6735"
           transform="translate(223.6142,594.4727)">
          <path
             inkscape:connector-curvature="0"
             d="m 0,0 0,-1.193 1.83,0 0,-1.067 -1.83,0 0,-2.549 -1.069,0 0,5.857 4.377,0 L 3.308,0 0,0 z"
             style="fill:#ffffff;fill-opacity:1;fill-rule:nonzero;stroke:none"
             id="path6737" />
        </g>
        <g
           id="g6739"
           transform="translate(230.3352,594.4937)">
          <path
             inkscape:connector-curvature="0"
             d="m 0,0 0,-4.83 -1.029,0 0,4.83 -1.683,0 0,1.027 4.397,0 L 1.685,0 0,0 z"
             style="fill:#ffffff;fill-opacity:1;fill-rule:nonzero;stroke:none"
             id="path6741" />
        </g>
        <g
           id="g6743"
           transform="translate(209.9292,581.9447)">
          <path
             inkscape:connector-curvature="0"
             d="m 0,0 0,5.857 1.045,0 0,-4.952 3.331,0 L 4.376,0 0,0 z"
             style="fill:#ffffff;fill-opacity:1;fill-rule:nonzero;stroke:none"
             id="path6745" />
        </g>
        <g
           id="g6747"
           transform="translate(220.9832,581.9447)">
          <path
             inkscape:connector-curvature="0"
             d="m 0,0 -2.445,5.857 -1.068,0 L -5.979,0 l 1.15,0 0.576,1.377 2.547,0 L -1.13,0 0,0 z m -2.158,2.425 -1.643,0 0.823,1.974 0.82,-1.974 z"
             style="fill:#ffffff;fill-opacity:1;fill-rule:nonzero;stroke:none"
             id="path6749" />
        </g>
        <g
           id="g6751"
           transform="translate(226.0392,581.9447)">
          <path
             inkscape:connector-curvature="0"
             d="m 0,0 -2.793,4.029 0,-4.029 -1.028,0 0,5.857 1.028,0 2.691,-3.864 0,3.864 1.008,0 L 0.906,0 0,0 z"
             style="fill:#ffffff;fill-opacity:1;fill-rule:nonzero;stroke:none"
             id="path6753" />
        </g>
        <g
           id="g6755"
           transform="translate(228.6892,581.9447)">
          <path
             inkscape:connector-curvature="0"
             d="m 0,0 0,5.857 4.276,0 0,-1.048 -3.206,0 0,-1.089 1.746,0 0,-1.068 -1.746,0 0,-1.604 3.31,0 L 4.38,0 0,0 z"
             style="fill:#ffffff;fill-opacity:1;fill-rule:nonzero;stroke:none"
             id="path6757" />
        </g>
      </g>
    </g>
  </g>
</svg>
