<?xml version="1.0" encoding="UTF-8" standalone="no"?>
<!-- Created with Inkscape (http://www.inkscape.org/) -->

<svg
   xmlns:dc="http://purl.org/dc/elements/1.1/"
   xmlns:cc="http://creativecommons.org/ns#"
   xmlns:rdf="http://www.w3.org/1999/02/22-rdf-syntax-ns#"
   xmlns:svg="http://www.w3.org/2000/svg"
   xmlns="http://www.w3.org/2000/svg"
   xmlns:sodipodi="http://sodipodi.sourceforge.net/DTD/sodipodi-0.dtd"
   xmlns:inkscape="http://www.inkscape.org/namespaces/inkscape"
   width="181.25"
   height="87.338753"
   id="svg35426"
   version="1.1"
   inkscape:version="0.48.3.1 r9886"
   sodipodi:docname="New document 18">
  <defs
     id="defs35428">
    <clipPath
       clipPathUnits="userSpaceOnUse"
       id="clipPath5427">
      <path
         inkscape:connector-curvature="0"
         d="m 27,34.675 513.305,0 0,703.2 -513.305,0 0,-703.2 z"
         id="path5429" />
    </clipPath>
  </defs>
  <sodipodi:namedview
     id="base"
     pagecolor="#ffffff"
     bordercolor="#666666"
     borderopacity="1.0"
     inkscape:pageopacity="0.0"
     inkscape:pageshadow="2"
     inkscape:zoom="0.35"
     inkscape:cx="90.625"
     inkscape:cy="43.669377"
     inkscape:document-units="px"
     inkscape:current-layer="layer1"
     showgrid="false"
     fit-margin-top="0"
     fit-margin-left="0"
     fit-margin-right="0"
     fit-margin-bottom="0"
     inkscape:window-width="451"
     inkscape:window-height="415"
     inkscape:window-x="25"
     inkscape:window-y="25"
     inkscape:window-maximized="0" />
  <metadata
     id="metadata35431">
    <rdf:RDF>
      <cc:Work
         rdf:about="">
        <dc:format>image/svg+xml</dc:format>
        <dc:type
           rdf:resource="http://purl.org/dc/dcmitype/StillImage" />
        <dc:title></dc:title>
      </cc:Work>
    </rdf:RDF>
  </metadata>
  <g
     inkscape:label="Layer 1"
     inkscape:groupmode="layer"
     id="layer1"
     transform="translate(-284.375,-488.69281)">
    <g
       transform="matrix(1.25,0,0,-1.25,245,925.15806)"
       id="g5423">
      <g
         id="g5425"
         clip-path="url(#clipPath5427)">
        <g
           id="g5431"
           transform="translate(38.2607,279.5512)">
          <path
             inkscape:connector-curvature="0"
             d="m 0,0 c -3.59,0 -6.511,2.921 -6.511,6.512 l 0,56.348 c 0,3.59 2.921,6.511 6.511,6.511 l 131.477,0 c 3.591,0 6.512,-2.921 6.512,-6.511 l 0,-56.348 C 137.989,2.921 135.068,0 131.477,0 L 0,0 z"
             style="fill:#ffffff;fill-opacity:1;fill-rule:nonzero;stroke:none"
             id="path5433" />
        </g>
        <g
           id="g5435"
           transform="translate(169.738,349.1722)">
          <path
             inkscape:connector-curvature="0"
             d="m 0,0 -131.477,0 c -3.728,0 -6.761,-3.033 -6.761,-6.761 l 0,-56.348 c 0,-3.729 3.033,-6.762 6.761,-6.762 l 131.477,0 c 3.729,0 6.762,3.033 6.762,6.762 l 0,56.348 C 6.762,-3.033 3.729,0 0,0 m 0,-0.5 c 3.445,0 6.262,-2.818 6.262,-6.261 l 0,-56.348 c 0,-3.443 -2.817,-6.262 -6.262,-6.262 l -131.477,0 c -3.444,0 -6.261,2.819 -6.261,6.262 l 0,56.348 c 0,3.443 2.817,6.261 6.261,6.261 L 0,-0.5"
             style="fill:#231f20;fill-opacity:1;fill-rule:nonzero;stroke:none"
             id="path5437" />
        </g>
        <g
           id="g5439"
           transform="translate(38.2607,280.4282)">
          <path
             inkscape:connector-curvature="0"
             d="m 0,0 c -0.757,0 -1.492,0.151 -2.187,0.446 -0.669,0.283 -1.273,0.691 -1.793,1.21 -0.519,0.52 -0.926,1.124 -1.21,1.793 -0.295,0.694 -0.445,1.43 -0.445,2.186 l 0,56.348 c 0,0.757 0.15,1.492 0.445,2.187 0.284,0.67 0.691,1.274 1.21,1.793 0.52,0.52 1.124,0.926 1.793,1.211 0.695,0.295 1.43,0.443 2.187,0.443 l 131.477,0 c 0.758,0 1.493,-0.148 2.188,-0.443 0.67,-0.285 1.273,-0.691 1.792,-1.211 0.519,-0.519 0.927,-1.123 1.212,-1.793 0.295,-0.695 0.444,-1.43 0.444,-2.187 l 0,-56.348 c 0,-0.756 -0.149,-1.492 -0.444,-2.186 C 136.384,2.78 135.976,2.176 135.457,1.656 134.938,1.137 134.335,0.729 133.665,0.446 132.97,0.151 132.235,0 131.477,0 L 0,0 z"
             style="fill:#231f20;fill-opacity:1;fill-rule:nonzero;stroke:none"
             id="path5441" />
        </g>
        <g
           id="g5443"
           transform="translate(38.2607,281.9952)">
          <path
             inkscape:connector-curvature="0"
             d="M 0,0 C -0.546,0 -1.075,0.107 -1.574,0.318 -2.06,0.525 -2.496,0.82 -2.872,1.197 -3.249,1.572 -3.544,2.009 -3.75,2.494 c -0.212,0.5 -0.319,1.029 -0.319,1.574 l 0,56.348 c 0,0.547 0.107,1.076 0.319,1.574 0.206,0.484 0.501,0.922 0.878,1.299 0.376,0.377 0.812,0.672 1.298,0.877 0.499,0.213 1.028,0.32 1.574,0.32 l 131.477,0 c 0.546,0 1.076,-0.107 1.575,-0.32 0.485,-0.205 0.921,-0.5 1.298,-0.877 0.376,-0.377 0.672,-0.815 0.878,-1.299 0.212,-0.498 0.32,-1.027 0.32,-1.574 l 0,-56.348 c 0,-0.545 -0.108,-1.074 -0.32,-1.574 C 135.022,2.009 134.726,1.572 134.35,1.197 133.973,0.82 133.537,0.525 133.052,0.318 132.553,0.107 132.023,0 131.477,0 L 0,0 z"
             style="fill:#ffffff;fill-opacity:1;fill-rule:nonzero;stroke:none"
             id="path5445" />
        </g>
        <g
           id="g5447"
           transform="translate(115.8994,325.5282)">
          <path
             inkscape:connector-curvature="0"
             d="m 0,0 c 0,1.244 0.258,2.16 0.846,3.185 0.919,1.537 2.243,2.491 4.155,3.002 1.177,0.33 1.581,0.696 1.581,1.319 0,0.769 -0.735,1.207 -2.06,1.207 C 3.163,8.713 2.17,8.385 1.287,7.578 L 0,9.006 c 1.214,1.062 2.721,1.611 4.412,1.611 2.464,0 4.045,-1.207 4.045,-3.111 C 8.457,6.627 8.09,5.822 7.391,5.236 7.061,4.978 6.582,4.722 5.847,4.504 4.449,4.101 4.045,3.918 3.42,3.367 2.942,2.967 2.647,2.562 2.28,1.867 l 6.177,0 L 8.457,0 0,0 z"
             style="fill:#231f20;fill-opacity:1;fill-rule:nonzero;stroke:none"
             id="path5449" />
        </g>
        <g
           id="g5451"
           transform="translate(130.7715,330.1862)">
          <path
             inkscape:connector-curvature="0"
             d="m 0,0 0,-2.379 -1.871,0 0,2.379 -2.457,0 0,1.867 2.457,0 0,2.344 1.871,0 0,-2.344 2.458,0 L 2.458,0 0,0 z"
             style="fill:#231f20;fill-opacity:1;fill-rule:nonzero;stroke:none"
             id="path5453" />
        </g>
        <g
           id="g5455"
           transform="translate(81.3535,325.7152)">
          <path
             inkscape:connector-curvature="0"
             d="m 0,0 0,4.541 -4.707,0 0,-4.541 -1.876,0 0,10.436 1.876,0 0,-4.027 4.707,0 0,4.027 1.875,0 L 1.875,0 0,0 z"
             style="fill:#231f20;fill-opacity:1;fill-rule:nonzero;stroke:none"
             id="path5457" />
        </g>
        <g
           id="g5459"
           transform="translate(90.0684,334.4672)">
          <path
             inkscape:connector-curvature="0"
             d="m 0,0 c -1.578,0 -2.531,-1.318 -2.531,-3.515 0,-2.235 0.953,-3.553 2.531,-3.553 1.981,0 2.459,1.941 2.459,3.553 C 2.459,-1.318 1.578,0 0,0 m 0,-8.933 c -3.082,0 -4.441,2.781 -4.441,5.418 0,3.332 1.689,5.381 4.441,5.381 2.569,0 4.33,-2.159 4.33,-5.346 0,-3.258 -1.688,-5.453 -4.33,-5.453"
             style="fill:#231f20;fill-opacity:1;fill-rule:nonzero;stroke:none"
             id="path5461" />
        </g>
        <g
           id="g5463"
           transform="translate(101.6377,325.7152)">
          <path
             inkscape:connector-curvature="0"
             d="m 0,0 -1.986,0 -3.792,10.436 1.986,0 2.816,-7.615 2.817,7.615 1.986,0 L 0,0 z"
             style="fill:#231f20;fill-opacity:1;fill-rule:nonzero;stroke:none"
             id="path5465" />
        </g>
        <path
           inkscape:connector-curvature="0"
           d="m 117.573,298.592 1.336,0 0,-8.349 -1.336,0 0,8.349 z"
           style="fill:#231f20;fill-opacity:1;fill-rule:nonzero;stroke:none"
           id="path5467" />
        <g
           id="g5469"
           transform="translate(128.2656,290.2432)">
          <path
             inkscape:connector-curvature="0"
             d="m 0,0 0,8.349 1.316,0 0,-7.119 3.86,0 L 5.176,0 0,0 z"
             style="fill:#231f20;fill-opacity:1;fill-rule:nonzero;stroke:none"
             id="path5471" />
        </g>
        <g
           id="g5473"
           transform="translate(99.3633,290.2432)">
          <path
             inkscape:connector-curvature="0"
             d="m 0,0 -1.028,0 -2.646,8.349 1.382,0 1.792,-5.566 1.764,5.566 1.411,0 L 0,0 z"
             style="fill:#231f20;fill-opacity:1;fill-rule:nonzero;stroke:none"
             id="path5475" />
        </g>
        <g
           id="g5477"
           transform="translate(114.252,290.2432)">
          <path
             inkscape:connector-curvature="0"
             d="m 0,0 0,3.632 -3.047,0 0,-3.632 -1.317,0 0,8.349 1.317,0 0,-3.369 3.047,0 0,3.369 1.318,0 L 1.318,0 0,0 z"
             style="fill:#231f20;fill-opacity:1;fill-rule:nonzero;stroke:none"
             id="path5479" />
        </g>
        <g
           id="g5481"
           transform="translate(103.291,290.2432)">
          <path
             inkscape:connector-curvature="0"
             d="m 0,0 0,8.349 4.914,0 0,-1.318 -3.599,0 0,-2.051 2.429,0 0,-1.348 -2.429,0 0,-2.285 3.862,0 L 5.177,0 0,0 z"
             style="fill:#231f20;fill-opacity:1;fill-rule:nonzero;stroke:none"
             id="path5483" />
        </g>
        <g
           id="g5485"
           transform="translate(71.9639,297.1273)">
          <path
             inkscape:connector-curvature="0"
             d="m 0,0 c -0.234,0.118 -0.381,0.147 -0.79,0.147 l -1.729,0 0,-2.051 1.729,0 c 0.409,0 0.556,0.029 0.79,0.147 0.293,0.146 0.498,0.527 0.498,0.879 C 0.498,-0.527 0.293,-0.175 0,0 M 0.558,-2.959 C 0.177,-3.134 -0.321,-3.252 -0.967,-3.252 l -1.552,0 0,-3.632 -1.318,0 0,8.349 2.87,0 c 0.674,0 1.114,-0.058 1.525,-0.263 0.732,-0.352 1.288,-1.231 1.288,-2.08 0,-0.879 -0.556,-1.758 -1.288,-2.081"
             style="fill:#231f20;fill-opacity:1;fill-rule:nonzero;stroke:none"
             id="path5487" />
        </g>
        <g
           id="g5489"
           transform="translate(85.3203,297.1273)">
          <path
             inkscape:connector-curvature="0"
             d="m 0,0 c -0.205,0.118 -0.322,0.147 -0.762,0.147 l -1.582,0 0,-2.051 1.582,0 c 0.411,0 0.557,0.029 0.762,0.147 0.322,0.175 0.527,0.527 0.527,0.879 C 0.527,-0.527 0.322,-0.175 0,0 m 0.586,-6.884 -1.348,3.632 -1.582,0 0,-3.632 -1.317,0 0,8.349 2.753,0 c 0.644,0 1.084,-0.058 1.494,-0.263 0.732,-0.352 1.26,-1.231 1.26,-2.08 0,-0.879 -0.528,-1.758 -1.289,-2.11 l 1.465,-3.896 -1.436,0 z"
             style="fill:#231f20;fill-opacity:1;fill-rule:nonzero;stroke:none"
             id="path5491" />
        </g>
        <g
           id="g5493"
           transform="translate(75.0625,290.2432)">
          <path
             inkscape:connector-curvature="0"
             d="m 0,0 0,8.349 4.914,0 0,-1.318 -3.598,0 0,-2.051 2.428,0 0,-1.348 -2.428,0 0,-2.285 3.861,0 L 5.177,0 0,0 z"
             style="fill:#231f20;fill-opacity:1;fill-rule:nonzero;stroke:none"
             id="path5495" />
        </g>
        <g
           id="g5497"
           transform="translate(134.695,290.2432)">
          <path
             inkscape:connector-curvature="0"
             d="m 0,0 0,8.349 4.914,0 0,-1.318 -3.598,0 0,-2.051 2.428,0 0,-1.348 -2.428,0 0,-2.285 3.862,0 L 5.178,0 0,0 z"
             style="fill:#231f20;fill-opacity:1;fill-rule:nonzero;stroke:none"
             id="path5499" />
        </g>
        <g
           id="g5501"
           transform="translate(123.9092,290.0962)">
          <path
             inkscape:connector-curvature="0"
             d="m 0,0 c -1.23,0 -2.021,0.469 -2.549,1.494 -0.381,0.733 -0.614,1.787 -0.614,2.842 0,1.318 0.351,2.637 0.936,3.369 0.498,0.616 1.202,0.938 2.139,0.938 1.26,0 2.051,-0.53 2.606,-1.699 L 1.289,6.416 C 0.819,7.119 0.557,7.295 -0.088,7.295 -0.762,7.295 -1.201,7.002 -1.494,6.27 -1.698,5.772 -1.816,5.039 -1.816,4.336 c 0,-0.908 0.205,-1.816 0.527,-2.344 0.293,-0.439 0.674,-0.644 1.26,-0.644 0.556,0 0.967,0.293 1.288,0.967 L 2.518,1.846 C 2.021,0.615 1.201,0 0,0"
             style="fill:#231f20;fill-opacity:1;fill-rule:nonzero;stroke:none"
             id="path5503" />
        </g>
        <g
           id="g5505"
           transform="translate(155.782,306.9322)">
          <path
             inkscape:connector-curvature="0"
             d="m 0,0 -3.192,5.652 0,-5.652 -1.319,0 0,8.348 1.319,0 3.046,-5.332 0,5.332 1.318,0 L 1.172,0 0,0 z"
             style="fill:#231f20;fill-opacity:1;fill-rule:nonzero;stroke:none"
             id="path5507" />
        </g>
        <g
           id="g5509"
           transform="translate(62.085,313.4242)">
          <path
             inkscape:connector-curvature="0"
             d="m 0,0 c -0.265,0.44 -0.587,0.616 -1.087,0.645 -0.646,0.029 -1.057,-0.293 -1.35,-1.026 -0.206,-0.498 -0.324,-1.259 -0.324,-1.962 0,-0.879 0.177,-1.788 0.499,-2.315 0.265,-0.439 0.617,-0.644 1.146,-0.644 0.617,0 0.999,0.322 1.292,1.054 0.176,0.44 0.322,1.26 0.322,1.905 C 0.498,-1.406 0.323,-0.556 0,0 m 0.91,-5.713 c -0.47,-0.642 -1.144,-0.935 -2.026,-0.935 -1.174,0 -1.909,0.467 -2.407,1.492 -0.353,0.703 -0.588,1.816 -0.588,2.813 0,1.377 0.352,2.607 0.91,3.396 0.5,0.647 1.175,0.94 2.144,0.94 1.057,0 1.79,-0.469 2.32,-1.495 0.352,-0.732 0.557,-1.787 0.557,-2.841 0,-1.319 -0.322,-2.637 -0.91,-3.37"
             style="fill:#231f20;fill-opacity:1;fill-rule:nonzero;stroke:none"
             id="path5511" />
        </g>
        <g
           id="g5513"
           transform="translate(147.614,313.4242)">
          <path
             inkscape:connector-curvature="0"
             d="M 0,0 C -0.264,0.44 -0.587,0.616 -1.086,0.645 -1.732,0.674 -2.143,0.352 -2.436,-0.381 -2.641,-0.879 -2.76,-1.64 -2.76,-2.343 c 0,-0.879 0.177,-1.788 0.5,-2.315 0.263,-0.439 0.616,-0.644 1.144,-0.644 0.617,0 0.999,0.322 1.293,1.054 0.176,0.44 0.322,1.26 0.322,1.905 C 0.499,-1.406 0.324,-0.556 0,0 m 0.91,-5.713 c -0.469,-0.642 -1.144,-0.935 -2.026,-0.935 -1.174,0 -1.908,0.467 -2.407,1.492 -0.353,0.703 -0.587,1.816 -0.587,2.813 0,1.377 0.352,2.607 0.91,3.396 0.499,0.647 1.175,0.94 2.144,0.94 1.056,0 1.791,-0.469 2.319,-1.495 0.352,-0.732 0.558,-1.787 0.558,-2.841 0,-1.319 -0.323,-2.637 -0.911,-3.37"
             style="fill:#231f20;fill-opacity:1;fill-rule:nonzero;stroke:none"
             id="path5515" />
        </g>
        <g
           id="g5517"
           transform="translate(120.3574,313.8152)">
          <path
             inkscape:connector-curvature="0"
             d="m 0,0 c -0.235,0.117 -0.381,0.146 -0.791,0.146 l -1.729,0 0,-2.05 1.729,0 c 0.41,0 0.556,0.029 0.791,0.146 0.293,0.147 0.497,0.527 0.497,0.879 C 0.497,-0.527 0.293,-0.176 0,0 M 0.556,-2.959 C 0.175,-3.135 -0.323,-3.252 -0.967,-3.252 l -1.553,0 0,-3.631 -1.318,0 0,8.348 2.871,0 c 0.674,0 1.113,-0.059 1.523,-0.264 0.732,-0.351 1.289,-1.23 1.289,-2.08 0,-0.879 -0.557,-1.758 -1.289,-2.08"
             style="fill:#231f20;fill-opacity:1;fill-rule:nonzero;stroke:none"
             id="path5519" />
        </g>
        <g
           id="g5521"
           transform="translate(84.9668,306.9322)">
          <path
             inkscape:connector-curvature="0"
             d="M 0,0 0,4.832 -1.936,0 l -1.938,4.832 0,-4.832 -1.32,0 0,8.348 1.32,0 L -1.936,3.66 0,8.348 1.321,8.348 1.321,0 0,0 z"
             style="fill:#231f20;fill-opacity:1;fill-rule:nonzero;stroke:none"
             id="path5523" />
        </g>
        <g
           id="g5525"
           transform="translate(69.4033,313.8152)">
          <path
             inkscape:connector-curvature="0"
             d="m 0,0 c -0.205,0.117 -0.322,0.146 -0.762,0.146 l -1.581,0 0,-2.05 1.581,0 c 0.41,0 0.557,0.029 0.762,0.146 0.321,0.176 0.527,0.527 0.527,0.879 C 0.527,-0.527 0.321,-0.176 0,0 m 0.586,-6.883 -1.348,3.631 -1.581,0 0,-3.631 -1.318,0 0,8.348 2.753,0 c 0.643,0 1.084,-0.059 1.494,-0.264 0.732,-0.351 1.26,-1.23 1.26,-2.08 0,-0.879 -0.528,-1.758 -1.289,-2.109 l 1.464,-3.895 -1.435,0 z"
             style="fill:#231f20;fill-opacity:1;fill-rule:nonzero;stroke:none"
             id="path5527" />
        </g>
        <g
           id="g5529"
           transform="translate(92.2354,313.4242)">
          <path
             inkscape:connector-curvature="0"
             d="m 0,0 c -0.265,0.44 -0.587,0.616 -1.087,0.645 -0.645,0.029 -1.057,-0.293 -1.35,-1.026 -0.206,-0.498 -0.324,-1.259 -0.324,-1.962 0,-0.879 0.177,-1.788 0.499,-2.315 0.265,-0.439 0.617,-0.644 1.146,-0.644 0.617,0 0.999,0.322 1.292,1.054 0.176,0.44 0.322,1.26 0.322,1.905 C 0.498,-1.406 0.323,-0.556 0,0 m 0.91,-5.713 c -0.47,-0.642 -1.144,-0.935 -2.026,-0.935 -1.174,0 -1.909,0.467 -2.407,1.492 -0.353,0.703 -0.588,1.816 -0.588,2.813 0,1.377 0.352,2.607 0.91,3.396 0.5,0.647 1.175,0.94 2.144,0.94 1.057,0 1.79,-0.469 2.32,-1.495 0.352,-0.732 0.557,-1.787 0.557,-2.841 0,-1.319 -0.322,-2.637 -0.91,-3.37"
             style="fill:#231f20;fill-opacity:1;fill-rule:nonzero;stroke:none"
             id="path5531" />
        </g>
        <g
           id="g5533"
           transform="translate(99.5537,313.8152)">
          <path
             inkscape:connector-curvature="0"
             d="m 0,0 c -0.205,0.117 -0.322,0.146 -0.762,0.146 l -1.581,0 0,-2.05 1.581,0 c 0.41,0 0.557,0.029 0.762,0.146 0.321,0.176 0.527,0.527 0.527,0.879 C 0.527,-0.527 0.321,-0.176 0,0 m 0.586,-6.883 -1.348,3.631 -1.581,0 0,-3.631 -1.318,0 0,8.348 2.753,0 c 0.643,0 1.084,-0.059 1.494,-0.264 0.732,-0.351 1.26,-1.23 1.26,-2.08 0,-0.879 -0.528,-1.758 -1.289,-2.109 l 1.464,-3.895 -1.435,0 z"
             style="fill:#231f20;fill-opacity:1;fill-rule:nonzero;stroke:none"
             id="path5535" />
        </g>
        <g
           id="g5537"
           transform="translate(133.713,313.8152)">
          <path
             inkscape:connector-curvature="0"
             d="m 0,0 c -0.205,0.117 -0.322,0.146 -0.762,0.146 l -1.582,0 0,-2.05 1.582,0 c 0.41,0 0.557,0.029 0.762,0.146 0.322,0.176 0.527,0.527 0.527,0.879 C 0.527,-0.527 0.322,-0.176 0,0 m 0.586,-6.883 -1.348,3.631 -1.582,0 0,-3.631 -1.318,0 0,8.348 2.754,0 c 0.644,0 1.084,-0.059 1.494,-0.264 0.732,-0.351 1.26,-1.23 1.26,-2.08 0,-0.879 -0.528,-1.758 -1.289,-2.109 l 1.464,-3.895 -1.435,0 z"
             style="fill:#231f20;fill-opacity:1;fill-rule:nonzero;stroke:none"
             id="path5539" />
        </g>
        <g
           id="g5541"
           transform="translate(141.431,307.4402)">
          <path
             inkscape:connector-curvature="0"
             d="m 0,0 c -0.468,-0.41 -1.113,-0.645 -1.816,-0.645 -1.435,0 -2.489,0.85 -3.047,2.11 l 1.26,0.469 c 0.352,-0.791 0.996,-1.231 1.787,-1.231 0.762,0 1.289,0.527 1.289,1.231 0,1.113 -1.289,1.287 -2.373,1.726 -0.498,0.207 -1.61,0.705 -1.61,2.08 0,1.641 1.112,2.256 2.606,2.256 1.172,0 1.963,-0.674 2.373,-1.699 L -0.702,5.945 c 0,0 -0.293,0.703 -1.231,0.733 C -2.548,6.707 -3.281,6.473 -3.222,5.711 -3.105,4.16 0.82,5.184 0.82,1.904 0.82,1.143 0.528,0.469 0,0"
             style="fill:#231f20;fill-opacity:1;fill-rule:nonzero;stroke:none"
             id="path5543" />
        </g>
        <g
           id="g5545"
           transform="translate(163.236,307.4402)">
          <path
             inkscape:connector-curvature="0"
             d="m 0,0 c -0.468,-0.41 -1.113,-0.645 -1.816,-0.645 -1.436,0 -2.49,0.85 -3.046,2.11 l 1.259,0.469 c 0.351,-0.791 0.996,-1.231 1.787,-1.231 0.762,0 1.289,0.527 1.289,1.231 0,1.113 -1.289,1.287 -2.373,1.726 -0.498,0.207 -1.611,0.705 -1.611,2.08 0,1.641 1.113,2.256 2.607,2.256 1.172,0 1.963,-0.674 2.372,-1.699 L -0.703,5.945 c 0,0 -0.293,0.703 -1.23,0.733 C -2.548,6.707 -3.281,6.473 -3.222,5.711 -3.105,4.16 0.821,5.184 0.821,1.904 0.821,1.143 0.528,0.469 0,0"
             style="fill:#231f20;fill-opacity:1;fill-rule:nonzero;stroke:none"
             id="path5547" />
        </g>
        <g
           id="g5549"
           transform="translate(102.9941,306.9322)">
          <path
             inkscape:connector-curvature="0"
             d="m 0,0 0,8.348 4.914,0 0,-1.319 -3.598,0 0,-2.05 2.428,0 0,-1.348 -2.428,0 0,-2.283 3.862,0 L 5.178,0 0,0 z"
             style="fill:#231f20;fill-opacity:1;fill-rule:nonzero;stroke:none"
             id="path5551" />
        </g>
        <g
           id="g5553"
           transform="translate(123.4541,306.9322)">
          <path
             inkscape:connector-curvature="0"
             d="m 0,0 0,8.348 4.915,0 0,-1.319 -3.599,0 0,-2.05 2.429,0 0,-1.348 -2.429,0 0,-2.283 3.863,0 L 5.179,0 0,0 z"
             style="fill:#231f20;fill-opacity:1;fill-rule:nonzero;stroke:none"
             id="path5555" />
        </g>
        <g
           id="g5557"
           transform="translate(48.3076,310.8402)">
          <path
             inkscape:connector-curvature="0"
             d="m 0,0 c -1.124,-0.699 -2.157,-1.009 -2.783,-2.56 l 4.101,0 0,-1.348 -5.682,0 c 0.029,0.967 0.231,1.758 0.703,2.547 C -2.196,1.088 0,0.819 0,2.125 0,2.741 -0.702,3.239 -1.523,3.239 -2.372,3.239 -2.899,2.828 -3.046,2.067 L -4.364,2.36 c 0.293,1.377 1.377,2.226 2.841,2.226 1.583,0 2.841,-1.113 2.841,-2.49 C 1.318,1.098 0.744,0.461 0,0"
             style="fill:#231f20;fill-opacity:1;fill-rule:nonzero;stroke:none"
             id="path5559" />
        </g>
      </g>
    </g>
  </g>
</svg>
