<?xml version="1.0" encoding="UTF-8" standalone="no"?>
<!-- Created with Inkscape (http://www.inkscape.org/) -->

<svg
   xmlns:dc="http://purl.org/dc/elements/1.1/"
   xmlns:cc="http://creativecommons.org/ns#"
   xmlns:rdf="http://www.w3.org/1999/02/22-rdf-syntax-ns#"
   xmlns:svg="http://www.w3.org/2000/svg"
   xmlns="http://www.w3.org/2000/svg"
   xmlns:sodipodi="http://sodipodi.sourceforge.net/DTD/sodipodi-0.dtd"
   xmlns:inkscape="http://www.inkscape.org/namespaces/inkscape"
   width="744.09448819"
   height="1052.3622047"
   id="svg35836"
   version="1.1"
   inkscape:version="0.48.3.1 r9886"
   sodipodi:docname="New document 22">
  <defs
     id="defs35838">
    <clipPath
       clipPathUnits="userSpaceOnUse"
       id="clipPath5187">
      <path
         inkscape:connector-curvature="0"
         d="m 27,34.675 513.305,0 0,703.2 -513.305,0 0,-703.2 z"
         id="path5189" />
    </clipPath>
  </defs>
  <sodipodi:namedview
     id="base"
     pagecolor="#ffffff"
     bordercolor="#666666"
     borderopacity="1.0"
     inkscape:pageopacity="0.0"
     inkscape:pageshadow="2"
     inkscape:zoom="0.35"
     inkscape:cx="375"
     inkscape:cy="520"
     inkscape:document-units="px"
     inkscape:current-layer="layer1"
     showgrid="false"
     inkscape:window-width="451"
     inkscape:window-height="415"
     inkscape:window-x="125"
     inkscape:window-y="125"
     inkscape:window-maximized="0" />
  <metadata
     id="metadata35841">
    <rdf:RDF>
      <cc:Work
         rdf:about="">
        <dc:format>image/svg+xml</dc:format>
        <dc:type
           rdf:resource="http://purl.org/dc/dcmitype/StillImage" />
        <dc:title></dc:title>
      </cc:Work>
    </rdf:RDF>
  </metadata>
  <g
     inkscape:label="Layer 1"
     inkscape:groupmode="layer"
     id="layer1">
    <g
       transform="matrix(1.25,0,0,-1.25,-198.52938,943.35056)"
       id="g5183">
      <g
         id="g5185"
         clip-path="url(#clipPath5187)">
        <g
           id="g5191"
           transform="translate(392.34,279.5512)">
          <path
             inkscape:connector-curvature="0"
             d="m 0,0 c -5.927,0 -10.748,4.822 -10.748,10.748 l 0,76.983 c 0,5.926 4.821,10.748 10.748,10.748 l 132.969,0 c 5.925,0 10.746,-4.822 10.746,-10.748 l 0,-76.983 C 143.715,4.822 138.894,0 132.969,0 L 0,0 z"
             style="fill:#ffffff;fill-opacity:1;fill-rule:nonzero;stroke:none"
             id="path5193" />
        </g>
        <g
           id="g5195"
           transform="translate(525.309,378.2802)">
          <path
             inkscape:connector-curvature="0"
             d="m 0,0 -132.969,0 c -6.065,0 -10.998,-4.934 -10.998,-10.998 l 0,-76.983 c 0,-6.064 4.933,-10.998 10.998,-10.998 l 132.969,0 c 6.063,0 10.996,4.934 10.996,10.998 l 0,76.983 C 10.996,-4.934 6.063,0 0,0 m 0,-0.5 c 5.773,0 10.496,-4.723 10.496,-10.498 l 0,-76.983 C 10.496,-93.754 5.773,-98.479 0,-98.479 l -132.969,0 c -5.776,0 -10.498,4.725 -10.498,10.498 l 0,76.983 c 0,5.775 4.722,10.498 10.498,10.498 L 0,-0.5"
             style="fill:#231f20;fill-opacity:1;fill-rule:nonzero;stroke:none"
             id="path5197" />
        </g>
        <g
           id="g5199"
           transform="translate(392.34,280.5612)">
          <path
             inkscape:connector-curvature="0"
             d="M 0,0 C -1.311,0 -2.582,0.258 -3.781,0.768 -4.94,1.26 -5.983,1.965 -6.879,2.861 -7.776,3.758 -8.481,4.801 -8.973,5.959 -9.483,7.16 -9.74,8.43 -9.74,9.738 l 0,76.983 c 0,1.308 0.257,2.58 0.767,3.779 0.492,1.16 1.197,2.203 2.094,3.1 0.896,0.896 1.939,1.601 3.098,2.093 1.199,0.508 2.47,0.768 3.781,0.768 l 132.969,0 c 1.308,0 2.58,-0.26 3.779,-0.768 1.158,-0.492 2.201,-1.197 3.098,-2.093 0.898,-0.897 1.601,-1.94 2.093,-3.1 0.51,-1.199 0.77,-2.471 0.77,-3.779 l 0,-76.983 c 0,-1.308 -0.26,-2.578 -0.77,-3.779 C 141.447,4.801 140.744,3.758 139.846,2.861 138.949,1.965 137.906,1.26 136.748,0.768 135.549,0.258 134.277,0 132.969,0 L 0,0 z"
             style="fill:#231f20;fill-opacity:1;fill-rule:nonzero;stroke:none"
             id="path5201" />
        </g>
        <g
           id="g5203"
           transform="translate(392.34,282.1942)">
          <path
             inkscape:connector-curvature="0"
             d="m 0,0 c -1.088,0 -2.145,0.213 -3.143,0.639 -0.965,0.408 -1.834,0.996 -2.582,1.744 -0.746,0.748 -1.336,1.615 -1.744,2.582 -0.424,0.996 -0.639,2.052 -0.639,3.14 l 0,76.983 c 0,1.088 0.215,2.144 0.639,3.14 0.408,0.967 0.998,1.834 1.744,2.584 0.748,0.746 1.617,1.334 2.582,1.744 0.998,0.422 2.055,0.637 3.143,0.637 l 132.969,0 c 1.087,0 2.144,-0.215 3.14,-0.637 0.965,-0.41 1.834,-0.998 2.582,-1.744 0.748,-0.75 1.336,-1.617 1.746,-2.584 0.422,-0.996 0.637,-2.052 0.637,-3.14 l 0,-76.983 c 0,-1.088 -0.215,-2.144 -0.637,-3.14 -0.41,-0.967 -0.998,-1.834 -1.746,-2.582 C 137.943,1.635 137.074,1.047 136.109,0.639 135.113,0.213 134.056,0 132.969,0 L 0,0 z"
             style="fill:#ffffff;fill-opacity:1;fill-rule:nonzero;stroke:none"
             id="path5205" />
        </g>
        <g
           id="g5207"
           transform="translate(404.572,317.4772)">
          <path
             inkscape:connector-curvature="0"
             d="m 0,0 0,5.076 -5.261,0 0,-5.076 -2.096,0 0,11.664 2.096,0 0,-4.502 5.261,0 0,4.502 2.096,0 L 2.096,0 0,0 z"
             style="fill:#231f20;fill-opacity:1;fill-rule:nonzero;stroke:none"
             id="path5209" />
        </g>
        <g
           id="g5211"
           transform="translate(414.314,327.2582)">
          <path
             inkscape:connector-curvature="0"
             d="m 0,0 c -1.763,0 -2.83,-1.472 -2.83,-3.927 0,-2.497 1.067,-3.971 2.83,-3.971 2.215,0 2.749,2.168 2.749,3.971 C 2.749,-1.472 1.764,0 0,0 m 0,-9.986 c -3.445,0 -4.964,3.111 -4.964,6.059 0,3.722 1.888,6.015 4.964,6.015 2.872,0 4.84,-2.414 4.84,-5.976 0,-3.641 -1.886,-6.098 -4.84,-6.098"
             style="fill:#231f20;fill-opacity:1;fill-rule:nonzero;stroke:none"
             id="path5213" />
        </g>
        <g
           id="g5215"
           transform="translate(427.246,317.4772)">
          <path
             inkscape:connector-curvature="0"
             d="m 0,0 -2.221,0 -4.238,11.664 2.219,0 3.15,-8.514 3.149,8.514 2.218,0 L 0,0 z"
             style="fill:#231f20;fill-opacity:1;fill-rule:nonzero;stroke:none"
             id="path5217" />
        </g>
        <g
           id="g5219"
           transform="translate(498.846,317.4772)">
          <path
             inkscape:connector-curvature="0"
             d="m 0,0 0,11.664 2.093,0 0,-9.863 6.655,0 L 8.748,0 0,0 z"
             style="fill:#231f20;fill-opacity:1;fill-rule:nonzero;stroke:none"
             id="path5221" />
        </g>
        <g
           id="g5223"
           transform="translate(494.004,317.4772)">
          <path
             inkscape:connector-curvature="0"
             d="m 0,0 -5.59,8.022 0,-8.022 -2.055,0 0,11.664 2.055,0 5.385,-7.693 0,7.693 2.014,0 L 1.809,0 0,0 z"
             style="fill:#231f20;fill-opacity:1;fill-rule:nonzero;stroke:none"
             id="path5225" />
        </g>
        <g
           id="g5227"
           transform="translate(478.836,327.2582)">
          <path
             inkscape:connector-curvature="0"
             d="m 0,0 c -1.764,0 -2.83,-1.472 -2.83,-3.927 0,-2.497 1.066,-3.971 2.83,-3.971 2.215,0 2.75,2.168 2.75,3.971 C 2.75,-1.472 1.766,0 0,0 m 0,-9.986 c -3.445,0 -4.963,3.111 -4.963,6.059 0,3.722 1.887,6.015 4.963,6.015 2.873,0 4.842,-2.414 4.842,-5.976 0,-3.641 -1.889,-6.098 -4.842,-6.098"
             style="fill:#231f20;fill-opacity:1;fill-rule:nonzero;stroke:none"
             id="path5229" />
        </g>
        <g
           id="g5231"
           transform="translate(515.523,322.2252)">
          <path
             inkscape:connector-curvature="0"
             d="m 0,0 0,-4.748 -2.085,0 0,4.748 -4.911,6.916 2.577,0 3.396,-4.748 3.355,4.748 2.579,0 L 0,0 z"
             style="fill:#231f20;fill-opacity:1;fill-rule:nonzero;stroke:none"
             id="path5233" />
        </g>
        <g
           id="g5235"
           transform="translate(443.305,317.4772)">
          <path
             inkscape:connector-curvature="0"
             d="M 0,0 C 0,1.393 0.287,2.414 0.945,3.561 1.972,5.279 3.453,6.344 5.59,6.916 6.904,7.285 7.357,7.695 7.357,8.391 7.357,9.25 6.535,9.74 5.054,9.74 3.535,9.74 2.424,9.373 1.437,8.473 L 0,10.068 c 1.355,1.186 3.041,1.801 4.931,1.801 2.754,0 4.522,-1.351 4.522,-3.478 C 9.453,7.408 9.043,6.508 8.261,5.854 7.89,5.566 7.357,5.279 6.535,5.033 4.972,4.584 4.521,4.379 3.822,3.766 3.287,3.315 2.959,2.865 2.549,2.088 l 6.904,0 L 9.453,0 0,0 z"
             style="fill:#231f20;fill-opacity:1;fill-rule:nonzero;stroke:none"
             id="path5237" />
        </g>
        <g
           id="g5239"
           transform="translate(459.346,322.3872)">
          <path
             inkscape:connector-curvature="0"
             d="m 0,0 0,-2.658 -2.09,0 0,2.658 -2.748,0 0,2.09 2.748,0 0,2.619 2.09,0 0,-2.619 2.746,0 L 2.746,0 0,0 z"
             style="fill:#231f20;fill-opacity:1;fill-rule:nonzero;stroke:none"
             id="path5241" />
        </g>
        <path
           inkscape:connector-curvature="0"
           d="m 483.51,338.118 -78.383,0 0,27.994 78.383,0 0,-27.994 z"
           style="fill:#652168;fill-opacity:1;fill-rule:nonzero;stroke:none"
           id="path5243" />
        <g
           id="g5245"
           transform="translate(417.621,342.1982)">
          <path
             inkscape:connector-curvature="0"
             d="m 0,0 -2.305,0 3.33,14.429 -6.062,0 0.414,1.803 18.408,0 -0.414,-1.803 -10.041,0 L 0,0 z"
             style="fill:#ffffff;fill-opacity:1;fill-rule:nonzero;stroke:none"
             id="path5247" />
        </g>
        <g
           id="g5249"
           transform="translate(426.074,352.9112)">
          <path
             inkscape:connector-curvature="0"
             d="M 0,0 C -1.66,0 -2.275,-1.336 -2.496,-2.301 -2.719,-3.266 -2.719,-4.6 -1.058,-4.6 c 1.66,0 2.273,1.334 2.496,2.299 C 1.66,-1.336 1.66,0 0,0 m -1.445,-6.276 c -2.197,0 -3.893,1.25 -3.266,3.975 0.627,2.726 2.899,3.976 5.098,3.976 2.197,0 3.893,-1.25 3.266,-3.976 -0.629,-2.725 -2.899,-3.975 -5.098,-3.975"
             style="fill:#ffffff;fill-opacity:1;fill-rule:nonzero;stroke:none"
             id="path5251" />
        </g>
        <g
           id="g5253"
           transform="translate(432.102,344.6572)">
          <path
             inkscape:connector-curvature="0"
             d="m 0,0 -2.153,0 3.987,17.377 2.152,0 L 0,0 z"
             style="fill:#ffffff;fill-opacity:1;fill-rule:nonzero;stroke:none"
             id="path5255" />
        </g>
        <g
           id="g5257"
           transform="translate(436.375,344.6572)">
          <path
             inkscape:connector-curvature="0"
             d="m 0,0 -2.152,0 3.986,17.377 2.152,0 L 0,0 z"
             style="fill:#ffffff;fill-opacity:1;fill-rule:nonzero;stroke:none"
             id="path5259" />
        </g>
        <g
           id="g5261"
           transform="translate(447.982,353.6742)">
          <path
             inkscape:connector-curvature="0"
             d="M 0,0 C 1.721,0 1.981,1.137 2.086,1.59 2.315,2.584 1.811,2.996 0.381,2.996 l -1.828,0 L -2.138,0 0,0 z m -3.72,-6.84 -2.307,0 2.68,11.596 5.041,0 C 3.829,4.756 4.831,3.494 4.372,1.493 4.159,0.569 3.069,-1.759 0.1,-1.759 l -2.643,0 -1.177,-5.081 z"
             style="fill:#ffffff;fill-opacity:1;fill-rule:nonzero;stroke:none"
             id="path5263" />
        </g>
        <g
           id="g5265"
           transform="translate(456.346,350.5102)">
          <path
             inkscape:connector-curvature="0"
             d="m 0,0 c -0.25,-0.156 -0.633,-0.281 -1.555,-0.41 -0.828,-0.129 -1.531,-0.312 -1.721,-1.137 -0.16,-0.695 0.373,-0.908 0.789,-0.908 0.955,0 2.053,0.569 2.266,1.49 L 0,0 z M 1.599,-2.199 C 1.394,-3.093 1.564,-3.293 1.806,-3.379 l -0.068,-0.297 -2.32,0 c -0.043,0.354 -0.047,0.469 0.004,0.895 -0.6,-0.471 -1.436,-1.094 -2.897,-1.094 -1.228,0 -2.342,0.639 -1.982,2.201 0.34,1.477 1.527,2.229 2.937,2.413 l 2,0.271 c 0.348,0.041 0.791,0.168 0.889,0.594 0.193,0.84 -0.656,0.883 -1.211,0.883 -1.076,0 -1.4,-0.612 -1.565,-1.053 l -2.074,0 c 0.78,2.314 2.592,2.642 4.268,2.642 1.15,0 3.181,-0.328 2.754,-2.187 L 1.599,-2.199 z"
             style="fill:#ffffff;fill-opacity:1;fill-rule:nonzero;stroke:none"
             id="path5267" />
        </g>
        <g
           id="g5269"
           transform="translate(465.363,352.0862)">
          <path
             inkscape:connector-curvature="0"
             d="m 0,0 c 0.02,0.483 -0.047,0.995 -1.215,0.995 -1.169,0 -1.418,-0.413 -1.492,-0.739 -0.275,-1.193 5.043,-0.326 4.403,-3.109 -0.506,-2.201 -2.905,-2.598 -4.18,-2.598 -1.859,0 -3.736,0.596 -3.334,2.612 l 2.213,0 c -0.147,-0.637 0.176,-1.108 1.529,-1.108 1.108,0 1.483,0.498 1.547,0.781 0.291,1.264 -5,0.313 -4.35,3.139 0.254,1.108 1.334,2.527 3.887,2.527 1.598,0 3.42,-0.369 3.1,-2.5 L 0,0 z"
             style="fill:#ffffff;fill-opacity:1;fill-rule:nonzero;stroke:none"
             id="path5271" />
        </g>
        <g
           id="g5273"
           transform="translate(473.91,352.0862)">
          <path
             inkscape:connector-curvature="0"
             d="m 0,0 c 0.02,0.483 -0.049,0.995 -1.217,0.995 -1.166,0 -1.416,-0.413 -1.49,-0.739 -0.275,-1.193 5.043,-0.326 4.402,-3.109 -0.505,-2.201 -2.904,-2.598 -4.179,-2.598 -1.86,0 -3.737,0.596 -3.334,2.612 l 2.213,0 c -0.145,-0.637 0.175,-1.108 1.529,-1.108 1.105,0 1.482,0.498 1.549,0.781 0.289,1.264 -5.002,0.313 -4.352,3.139 0.254,1.108 1.334,2.527 3.887,2.527 1.6,0 3.42,-0.369 3.098,-2.5 L 0,0 z"
             style="fill:#ffffff;fill-opacity:1;fill-rule:nonzero;stroke:none"
             id="path5275" />
        </g>
        <g
           id="g5277"
           transform="translate(474.695,344.6572)">
          <path
             inkscape:connector-curvature="0"
             d="m 0,0 -39.123,0 0.102,0.445 39.123,0 L 0,0 z"
             style="fill:#ffffff;fill-opacity:1;fill-rule:nonzero;stroke:none"
             id="path5279" />
        </g>
        <g
           id="g5281"
           transform="translate(429.85,343.4262)">
          <path
             inkscape:connector-curvature="0"
             d="m 0,0 -3.327,0 0.102,0.448 3.324,0 L 0,0 z"
             style="fill:#ffffff;fill-opacity:1;fill-rule:nonzero;stroke:none"
             id="path5283" />
        </g>
        <g
           id="g5285"
           transform="translate(440.99,343.4262)">
          <path
             inkscape:connector-curvature="0"
             d="m 0,0 -3.324,0 0.1,0.448 3.326,0 L 0,0 z"
             style="fill:#ffffff;fill-opacity:1;fill-rule:nonzero;stroke:none"
             id="path5287" />
        </g>
        <g
           id="g5289"
           transform="translate(452.133,343.4262)">
          <path
             inkscape:connector-curvature="0"
             d="m 0,0 -3.326,0 0.101,0.448 3.326,0 L 0,0 z"
             style="fill:#ffffff;fill-opacity:1;fill-rule:nonzero;stroke:none"
             id="path5291" />
        </g>
        <g
           id="g5293"
           transform="translate(463.275,343.4262)">
          <path
             inkscape:connector-curvature="0"
             d="m 0,0 -3.326,0 0.102,0.448 3.324,0 L 0,0 z"
             style="fill:#ffffff;fill-opacity:1;fill-rule:nonzero;stroke:none"
             id="path5295" />
        </g>
        <g
           id="g5297"
           transform="translate(474.418,343.4262)">
          <path
             inkscape:connector-curvature="0"
             d="m 0,0 -3.326,0 0.101,0.448 3.325,0 L 0,0 z"
             style="fill:#ffffff;fill-opacity:1;fill-rule:nonzero;stroke:none"
             id="path5299" />
        </g>
        <g
           id="g5301"
           transform="translate(474.139,342.1982)">
          <path
             inkscape:connector-curvature="0"
             d="m 0,0 -51.498,0 0.101,0.447 51.498,0 L 0,0 z"
             style="fill:#ffffff;fill-opacity:1;fill-rule:nonzero;stroke:none"
             id="path5303" />
        </g>
        <g
           id="g5305"
           transform="translate(498.938,355.2742)">
          <path
             inkscape:connector-curvature="0"
             d="m 0,0 c -1.411,0 -2.264,-1.178 -2.264,-3.143 0,-1.996 0.853,-3.175 2.264,-3.175 1.773,0 2.199,1.734 2.199,3.175 C 2.199,-1.178 1.412,0 0,0 m 0,-7.988 c -2.756,0 -3.969,2.488 -3.969,4.845 0,2.981 1.508,4.813 3.969,4.813 2.298,0 3.873,-1.932 3.873,-4.779 0,-2.915 -1.51,-4.879 -3.873,-4.879"
             style="fill:#231f20;fill-opacity:1;fill-rule:nonzero;stroke:none"
             id="path5307" />
        </g>
        <g
           id="g5309"
           transform="translate(509.313,355.1122)">
          <path
             inkscape:connector-curvature="0"
             d="m 0,0 -2.688,0 0,-2.324 2.688,0 c 0.818,0 1.341,0.457 1.341,1.144 C 1.341,-0.459 0.818,0 0,0 m 1.341,-7.662 -1.506,3.668 -2.523,0 0,-3.668 -1.668,0 0,9.332 4.322,0 c 0.688,0 1.114,-0.1 1.604,-0.395 0.885,-0.49 1.439,-1.408 1.439,-2.455 0,-1.047 -0.554,-1.963 -1.504,-2.488 l 1.702,-3.994 -1.866,0 z"
             style="fill:#231f20;fill-opacity:1;fill-rule:nonzero;stroke:none"
             id="path5311" />
        </g>
      </g>
    </g>
    <g
       id="g14061"
       transform="matrix(1.25,0,0,-1.25,391.19562,564.92781)">
      <path
         d="m 0,0 0.278,0.019 0.281,-0.072 0.242,-0.154 0.174,-0.209 0.088,-0.281 0,-0.276 -0.106,-0.275 -0.174,-0.233 0.018,0 0,-0.049 -13.748,-12.511 -13.746,12.511 -0.02,0.049 0.02,0 -0.174,0.233 -0.107,0.275 0,0.276 0.088,0.281 0.173,0.209 0.243,0.154 0.281,0.072 0.277,-0.019 0.018,-0.069 10.092,-2.593 0,7.865 5.709,0 0,-7.865 10.109,2.593"
         style="fill:#231f20;fill-opacity:1;fill-rule:evenodd;stroke:none"
         id="path14063"
         inkscape:connector-curvature="0" />
    </g>
  </g>
</svg>
