<?xml version="1.0" encoding="UTF-8" standalone="no"?>
<!-- Created with Inkscape (http://www.inkscape.org/) -->

<svg
   xmlns:dc="http://purl.org/dc/elements/1.1/"
   xmlns:cc="http://creativecommons.org/ns#"
   xmlns:rdf="http://www.w3.org/1999/02/22-rdf-syntax-ns#"
   xmlns:svg="http://www.w3.org/2000/svg"
   xmlns="http://www.w3.org/2000/svg"
   xmlns:sodipodi="http://sodipodi.sourceforge.net/DTD/sodipodi-0.dtd"
   xmlns:inkscape="http://www.inkscape.org/namespaces/inkscape"
   width="87.651253"
   height="109.25125"
   id="svg34644"
   version="1.1"
   inkscape:version="0.48.3.1 r9886"
   sodipodi:docname="New document 11">
  <defs
     id="defs34646">
    <clipPath
       clipPathUnits="userSpaceOnUse"
       id="clipPath3409">
      <path
         inkscape:connector-curvature="0"
         d="m 27,34.675 513.305,0 0,703.2 -513.305,0 0,-703.2 z"
         id="path3411" />
    </clipPath>
  </defs>
  <sodipodi:namedview
     id="base"
     pagecolor="#ffffff"
     bordercolor="#666666"
     borderopacity="1.0"
     inkscape:pageopacity="0.0"
     inkscape:pageshadow="2"
     inkscape:zoom="0.35"
     inkscape:cx="43.82563"
     inkscape:cy="54.625667"
     inkscape:document-units="px"
     inkscape:current-layer="layer1"
     showgrid="false"
     fit-margin-top="0"
     fit-margin-left="0"
     fit-margin-right="0"
     fit-margin-bottom="0"
     inkscape:window-width="451"
     inkscape:window-height="415"
     inkscape:window-x="25"
     inkscape:window-y="25"
     inkscape:window-maximized="0" />
  <metadata
     id="metadata34649">
    <rdf:RDF>
      <cc:Work
         rdf:about="">
        <dc:format>image/svg+xml</dc:format>
        <dc:type
           rdf:resource="http://purl.org/dc/dcmitype/StillImage" />
        <dc:title></dc:title>
      </cc:Work>
    </rdf:RDF>
  </metadata>
  <g
     inkscape:label="Layer 1"
     inkscape:groupmode="layer"
     id="layer1"
     transform="translate(-331.17437,-477.7366)">
    <g
       transform="matrix(1.25,0,0,-1.25,147.75562,1099.3156)"
       id="g3405">
      <g
         id="g3407"
         clip-path="url(#clipPath3409)">
        <g
           id="g3413"
           transform="translate(151.555,410.1122)">
          <path
             inkscape:connector-curvature="0"
             d="m 0,0 c -2.52,0 -4.57,2.051 -4.57,4.571 l 0,77.759 c 0,2.52 2.05,4.571 4.57,4.571 l 60.481,0 c 2.52,0 4.57,-2.051 4.57,-4.571 l 0,-77.759 C 65.051,2.051 63.001,0 60.481,0 L 0,0 z"
             style="fill:#ffffff;fill-opacity:1;fill-rule:nonzero;stroke:none"
             id="path3415" />
        </g>
        <g
           id="g3417"
           transform="translate(212.036,497.2632)">
          <path
             inkscape:connector-curvature="0"
             d="m 0,0 -60.481,0 c -2.658,0 -4.82,-2.163 -4.82,-4.821 l 0,-77.759 c 0,-2.658 2.162,-4.821 4.82,-4.821 l 60.481,0 c 2.657,0 4.82,2.163 4.82,4.821 l 0,77.759 C 4.82,-2.163 2.657,0 0,0 m 0,-0.5 c 2.376,0 4.32,-1.945 4.32,-4.321 l 0,-77.759 c 0,-2.376 -1.944,-4.321 -4.32,-4.321 l -60.481,0 c -2.375,0 -4.32,1.945 -4.32,4.321 l 0,77.759 c 0,2.376 1.945,4.321 4.32,4.321 L 0,-0.5"
             style="fill:#231f20;fill-opacity:1;fill-rule:nonzero;stroke:none"
             id="path3419" />
        </g>
        <g
           id="g3421"
           transform="translate(151.555,411.8032)">
          <path
             inkscape:connector-curvature="0"
             d="M 0,0 C -0.763,0 -1.486,0.301 -2.032,0.846 -2.578,1.393 -2.879,2.115 -2.879,2.88 l 0,77.759 c 0,0.765 0.301,1.487 0.847,2.034 0.546,0.545 1.269,0.846 2.032,0.846 l 60.481,0 c 0.764,0 1.486,-0.301 2.032,-0.846 0.547,-0.547 0.848,-1.269 0.848,-2.034 l 0,-77.759 C 63.361,2.115 63.06,1.393 62.513,0.846 61.967,0.301 61.245,0 60.481,0 L 0,0 z"
             style="fill:#231f20;fill-opacity:1;fill-rule:nonzero;stroke:none"
             id="path3423" />
        </g>
        <g
           id="g3425"
           transform="translate(151.555,413.6742)">
          <path
             inkscape:connector-curvature="0"
             d="m 0,0 c -0.267,0 -0.513,0.103 -0.709,0.3 -0.195,0.195 -0.299,0.44 -0.299,0.709 l 0,77.759 c 0,0.268 0.104,0.514 0.299,0.709 0.196,0.196 0.442,0.299 0.709,0.299 l 60.481,0 c 0.268,0 0.513,-0.103 0.709,-0.299 0.195,-0.195 0.298,-0.441 0.298,-0.709 l 0,-77.759 C 61.488,0.74 61.385,0.495 61.19,0.3 60.994,0.103 60.749,0 60.481,0 L 0,0 z"
             style="fill:#ffffff;fill-opacity:1;fill-rule:nonzero;stroke:none"
             id="path3427" />
        </g>
        <g
           id="g3429"
           transform="translate(154.768,470.8212)">
          <path
             inkscape:connector-curvature="0"
             d="m 0,0 0,11.52 5.433,0 0,-1.617 -3.771,0 0,-2.911 2.393,0 0,-1.576 -2.393,0 0,-3.799 4.217,0 L 5.879,0 0,0 z"
             style="fill:#231f20;fill-opacity:1;fill-rule:nonzero;stroke:none"
             id="path3431" />
        </g>
        <g
           id="g3433"
           transform="translate(187.272,470.8212)">
          <path
             inkscape:connector-curvature="0"
             d="m 0,0 0,11.52 5.432,0 0,-1.617 -3.77,0 0,-2.911 2.392,0 0,-1.576 -2.392,0 0,-3.799 4.216,0 L 5.878,0 0,0 z"
             style="fill:#231f20;fill-opacity:1;fill-rule:nonzero;stroke:none"
             id="path3435" />
        </g>
        <g
           id="g3437"
           transform="translate(173.45,480.7242)">
          <path
             inkscape:connector-curvature="0"
             d="m 0,0 -1.696,0 0,-3.274 1.696,0 c 0.967,0 1.492,0.607 1.492,1.657 C 1.492,-0.647 0.886,0 0,0 m 0.08,-4.85 -1.776,0 0,-5.053 -1.653,0 0,11.52 3.429,0 c 1.815,0 3.025,-1.293 3.025,-3.234 0,-2.102 -1.09,-3.233 -3.025,-3.233"
             style="fill:#231f20;fill-opacity:1;fill-rule:nonzero;stroke:none"
             id="path3439" />
        </g>
        <g
           id="g3441"
           transform="translate(182.208,480.7242)">
          <path
             inkscape:connector-curvature="0"
             d="m 0,0 -1.695,0 0,-2.911 1.695,0 c 0.967,0 1.492,0.526 1.492,1.456 C 1.492,-0.566 0.887,0 0,0 m 1.412,-9.903 -1.534,5.416 -1.573,0 0,-5.416 -1.653,0 0,11.52 3.428,0 c 1.815,0 3.025,-1.213 3.025,-3.072 0,-1.374 -0.564,-2.385 -1.653,-2.79 l 1.653,-5.658 -1.693,0 z"
             style="fill:#231f20;fill-opacity:1;fill-rule:nonzero;stroke:none"
             id="path3443" />
        </g>
        <g
           id="g3445"
           transform="translate(197.813,476.1422)">
          <path
             inkscape:connector-curvature="0"
             d="M 0,0 C -0.499,0.322 -0.982,0.646 -1.292,0.863 -2.221,1.517 -2.713,2.4 -2.713,3.41 c 0,1.658 1.3,2.991 2.964,2.991 1.623,0 2.882,-1.253 2.923,-2.991 l -1.584,0 C 1.55,4.218 0.981,4.744 0.251,4.744 c -0.772,0 -1.38,-0.567 -1.38,-1.334 0,-0.566 0.243,-0.889 1.096,-1.374 2.232,-1.294 3.207,-2.546 3.207,-4.204 0,-1.86 -1.421,-3.355 -3.207,-3.355 -2.03,0 -3.247,1.697 -3.247,3.597 l 1.623,0 c 0,-0.97 0.487,-1.981 1.624,-1.981 0.892,0 1.623,0.809 1.623,1.739 C 1.59,-1.446 1.292,-0.838 0,0"
             style="fill:#231f20;fill-opacity:1;fill-rule:nonzero;stroke:none"
             id="path3447" />
        </g>
        <g
           id="g3449"
           transform="translate(205.649,476.1422)">
          <path
             inkscape:connector-curvature="0"
             d="M 0,0 C -0.498,0.322 -0.982,0.646 -1.291,0.863 -2.22,1.517 -2.712,2.4 -2.712,3.41 c 0,1.658 1.299,2.991 2.963,2.991 1.624,0 2.882,-1.253 2.923,-2.991 l -1.583,0 C 1.55,4.218 0.982,4.744 0.251,4.744 c -0.771,0 -1.38,-0.567 -1.38,-1.334 0,-0.566 0.243,-0.889 1.096,-1.374 2.232,-1.294 3.207,-2.546 3.207,-4.204 0,-1.86 -1.421,-3.355 -3.207,-3.355 -2.03,0 -3.247,1.697 -3.247,3.597 l 1.624,0 c 0,-0.97 0.486,-1.981 1.623,-1.981 0.893,0 1.624,0.809 1.624,1.739 C 1.591,-1.446 1.293,-0.838 0,0"
             style="fill:#231f20;fill-opacity:1;fill-rule:nonzero;stroke:none"
             id="path3451" />
        </g>
        <g
           id="g3453"
           transform="translate(166.697,470.8432)">
          <path
             inkscape:connector-curvature="0"
             d="M 0,0 -1.628,3.92 -3.257,0 l -1.752,0 2.525,5.982 -2.361,5.537 1.75,0 1.467,-3.476 1.465,3.476 1.751,0 L -0.734,5.982 1.792,0 0,0 z"
             style="fill:#231f20;fill-opacity:1;fill-rule:nonzero;stroke:none"
             id="path3455" />
        </g>
        <g
           id="g3457"
           transform="translate(178.563,424.7622)">
          <path
             inkscape:connector-curvature="0"
             d="m 0,0 -4.406,7.801 0,-7.801 -1.819,0 0,11.52 1.819,0 4.204,-7.356 0,7.356 1.819,0 L 1.617,0 0,0 z"
             style="fill:#231f20;fill-opacity:1;fill-rule:nonzero;stroke:none"
             id="path3459" />
        </g>
        <g
           id="g3461"
           transform="translate(199.225,425.4642)">
          <path
             inkscape:connector-curvature="0"
             d="m 0,0 c -0.646,-0.567 -1.536,-0.89 -2.506,-0.89 -1.98,0 -3.436,1.172 -4.204,2.91 l 1.738,0.647 c 0.486,-1.091 1.374,-1.697 2.466,-1.697 1.051,0 1.779,0.727 1.779,1.697 0,1.536 -1.779,1.779 -3.275,2.385 -0.686,0.283 -2.223,0.97 -2.223,2.87 0,2.263 1.537,3.112 3.598,3.112 1.616,0 2.708,-0.93 3.275,-2.344 L -0.97,8.205 c 0,0 -0.404,0.97 -1.698,1.011 C -3.517,9.256 -4.527,8.932 -4.446,7.882 -4.284,5.739 1.132,7.154 1.132,2.627 1.132,1.576 0.728,0.646 0,0"
             style="fill:#231f20;fill-opacity:1;fill-rule:nonzero;stroke:none"
             id="path3463" />
        </g>
        <g
           id="g3465"
           transform="translate(187.998,433.9792)">
          <path
             inkscape:connector-curvature="0"
             d="m 0,0 c -0.284,0.283 -0.687,0.484 -1.172,0.484 l -2.062,0 0,-7.842 1.819,0 c 0.606,0 0.97,0.122 1.293,0.445 0.688,0.687 1.051,1.941 1.051,3.477 C 0.929,-1.901 0.566,-0.607 0,0 M 0.768,-8.57 C 0.323,-8.974 -0.284,-9.176 -0.889,-9.217 l -0.648,0 -3.516,0 0,11.52 3.719,0 c 1.172,0 1.617,-0.121 2.223,-0.606 1.213,-1.051 1.9,-2.87 1.9,-5.133 0,-2.305 -0.728,-4.123 -2.021,-5.134"
             style="fill:#231f20;fill-opacity:1;fill-rule:nonzero;stroke:none"
             id="path3467" />
        </g>
        <g
           id="g3469"
           transform="translate(163.234,424.7622)">
          <path
             inkscape:connector-curvature="0"
             d="m 0,0 0,11.52 6.782,0 0,-1.819 -4.966,0 0,-2.829 3.351,0 0,-1.86 -3.351,0 0,-3.153 5.329,0 L 7.145,0 0,0 z"
             style="fill:#231f20;fill-opacity:1;fill-rule:nonzero;stroke:none"
             id="path3471" />
        </g>
        <g
           id="g3473"
           transform="translate(188.826,447.8032)">
          <path
             inkscape:connector-curvature="0"
             d="m 0,0 -4.407,7.801 0,-7.801 -1.819,0 0,11.519 1.819,0 4.205,-7.356 0,7.356 1.819,0 L 1.617,0 0,0 z"
             style="fill:#231f20;fill-opacity:1;fill-rule:nonzero;stroke:none"
             id="path3475" />
        </g>
        <g
           id="g3477"
           transform="translate(163.239,447.8032)">
          <path
             inkscape:connector-curvature="0"
             d="m 0,0 0,11.519 1.816,0 0,-9.822 5.328,0 L 7.144,0 0,0 z"
             style="fill:#231f20;fill-opacity:1;fill-rule:nonzero;stroke:none"
             id="path3479" />
        </g>
        <g
           id="g3481"
           transform="translate(193.208,447.8032)">
          <path
             inkscape:connector-curvature="0"
             d="m 0,0 0,11.519 6.782,0 0,-1.819 -4.966,0 0,-2.829 3.351,0 0,-1.86 -3.351,0 0,-3.152 5.329,0 L 7.145,0 0,0 z"
             style="fill:#231f20;fill-opacity:1;fill-rule:nonzero;stroke:none"
             id="path3483" />
        </g>
        <g
           id="g3485"
           transform="translate(175.995,456.1292)">
          <path
             inkscape:connector-curvature="0"
             d="m 0,0 -1.18,-3.233 2.317,0 L 0,0 z m 2.925,-8.326 -1.137,3.233 -3.618,0 -1.139,-3.233 -1.951,0 3.984,11.519 1.829,0 3.985,-11.519 -1.953,0 z"
             style="fill:#231f20;fill-opacity:1;fill-rule:nonzero;stroke:none"
             id="path3487" />
        </g>
      </g>
    </g>
  </g>
</svg>
