<?xml version="1.0" encoding="UTF-8" standalone="no"?>
<!-- Created with Inkscape (http://www.inkscape.org/) -->

<svg
   xmlns:dc="http://purl.org/dc/elements/1.1/"
   xmlns:cc="http://creativecommons.org/ns#"
   xmlns:rdf="http://www.w3.org/1999/02/22-rdf-syntax-ns#"
   xmlns:svg="http://www.w3.org/2000/svg"
   xmlns="http://www.w3.org/2000/svg"
   xmlns:sodipodi="http://sodipodi.sourceforge.net/DTD/sodipodi-0.dtd"
   xmlns:inkscape="http://www.inkscape.org/namespaces/inkscape"
   width="185.92876"
   height="108.17125"
   id="svg36453"
   version="1.1"
   inkscape:version="0.48.3.1 r9886"
   sodipodi:docname="New document 28">
  <defs
     id="defs36455" />
  <sodipodi:namedview
     id="base"
     pagecolor="#ffffff"
     bordercolor="#666666"
     borderopacity="1.0"
     inkscape:pageopacity="0.0"
     inkscape:pageshadow="2"
     inkscape:zoom="0.35"
     inkscape:cx="92.96438"
     inkscape:cy="54.085627"
     inkscape:document-units="px"
     inkscape:current-layer="layer1"
     showgrid="false"
     fit-margin-top="0"
     fit-margin-left="0"
     fit-margin-right="0"
     fit-margin-bottom="0"
     inkscape:window-width="451"
     inkscape:window-height="398"
     inkscape:window-x="25"
     inkscape:window-y="25"
     inkscape:window-maximized="0" />
  <metadata
     id="metadata36458">
    <rdf:RDF>
      <cc:Work
         rdf:about="">
        <dc:format>image/svg+xml</dc:format>
        <dc:type
           rdf:resource="http://purl.org/dc/dcmitype/StillImage" />
        <dc:title></dc:title>
      </cc:Work>
    </rdf:RDF>
  </metadata>
  <g
     inkscape:label="Layer 1"
     inkscape:groupmode="layer"
     id="layer1"
     transform="translate(-282.03562,-478.27656)">
    <g
       id="g3643"
       transform="matrix(1.25,0,0,-1.25,292.38062,586.13531)">
      <path
         d="m 0,0 c -4.425,0 -8.026,3.6 -8.026,8.027 l 0,69.985 c 0,4.424 3.601,8.025 8.026,8.025 l 132.191,0 c 4.425,0 8.026,-3.601 8.026,-8.025 l 0,-69.985 C 140.217,3.6 136.616,0 132.191,0 L 0,0 z"
         style="fill:#ffffff;fill-opacity:1;fill-rule:nonzero;stroke:none"
         id="path3645"
         inkscape:connector-curvature="0" />
    </g>
    <g
       id="g3647"
       transform="matrix(1.25,0,0,-1.25,457.61937,478.27656)">
      <path
         d="m 0,0 -132.191,0 c -4.564,0 -8.276,-3.712 -8.276,-8.275 l 0,-69.985 c 0,-4.564 3.712,-8.277 8.276,-8.277 l 132.191,0 c 4.564,0 8.276,3.713 8.276,8.277 l 0,69.985 C 8.276,-3.712 4.564,0 0,0 m 0,-0.5 c 4.278,0 7.776,-3.5 7.776,-7.775 l 0,-69.985 c 0,-4.277 -3.498,-7.777 -7.776,-7.777 l -132.191,0 c -4.276,0 -7.776,3.5 -7.776,7.777 l 0,69.985 c 0,4.275 3.5,7.775 7.776,7.775 L 0,-0.5"
         style="fill:#231f20;fill-opacity:1;fill-rule:nonzero;stroke:none"
         id="path3649"
         inkscape:connector-curvature="0" />
    </g>
    <g
       id="g3651"
       transform="matrix(1.25,0,0,-1.25,292.38062,584.84906)">
      <path
         d="m 0,0 c -0.94,0 -1.854,0.186 -2.715,0.551 -0.834,0.353 -1.582,0.859 -2.227,1.506 -0.644,0.642 -1.15,1.392 -1.505,2.224 -0.366,0.864 -0.552,1.776 -0.552,2.717 l 0,69.985 c 0,0.939 0.186,1.853 0.552,2.714 0.355,0.832 0.861,1.582 1.505,2.227 0.645,0.644 1.393,1.152 2.227,1.504 0.861,0.367 1.775,0.553 2.715,0.553 l 132.191,0 c 0.94,0 1.854,-0.186 2.715,-0.553 0.834,-0.352 1.582,-0.86 2.227,-1.504 0.646,-0.645 1.152,-1.395 1.506,-2.227 0.365,-0.861 0.55,-1.775 0.55,-2.714 l 0,-69.985 c 0,-0.941 -0.185,-1.853 -0.55,-2.717 -0.354,-0.832 -0.86,-1.582 -1.506,-2.224 C 136.488,1.41 135.74,0.904 134.906,0.551 134.045,0.186 133.131,0 132.191,0 L 0,0 z"
         style="fill:#231f20;fill-opacity:1;fill-rule:nonzero;stroke:none"
         id="path3653"
         inkscape:connector-curvature="0" />
    </g>
    <g
       id="g3655"
       transform="matrix(1.25,0,0,-1.25,292.38062,582.42031)">
      <path
         d="m 0,0 c -0.677,0 -1.335,0.133 -1.955,0.397 -0.602,0.256 -1.146,0.623 -1.613,1.09 -0.467,0.469 -0.833,1.01 -1.09,1.613 -0.263,0.619 -0.396,1.277 -0.396,1.955 l 0,69.985 c 0,0.677 0.133,1.334 0.396,1.955 0.257,0.601 0.623,1.144 1.091,1.611 0.466,0.469 1.01,0.834 1.612,1.09 0.62,0.263 1.278,0.398 1.955,0.398 l 132.191,0 c 0.678,0 1.336,-0.135 1.955,-0.398 0.602,-0.256 1.145,-0.621 1.614,-1.09 0.467,-0.467 0.834,-1.01 1.09,-1.611 0.263,-0.621 0.396,-1.278 0.396,-1.955 l 0,-69.985 C 137.246,4.377 137.113,3.719 136.85,3.1 136.594,2.497 136.227,1.956 135.76,1.487 135.291,1.02 134.748,0.653 134.146,0.397 133.527,0.133 132.869,0 132.191,0 L 0,0 z"
         style="fill:#ffffff;fill-opacity:1;fill-rule:nonzero;stroke:none"
         id="path3657"
         inkscape:connector-curvature="0" />
    </g>
    <g
       id="g3659"
       transform="matrix(1.25,0,0,-1.25,385.88437,556.90143)">
      <path
         d="m 0,0 c -0.59,0.318 -1.272,0.5 -1.952,0.5 l -1.967,0 0,-8.323 1.967,0 c 0.68,0 1.317,0.182 1.862,0.5 1.361,0.729 1.998,1.91 1.998,3.684 C 1.908,-1.911 1.271,-0.729 0,0 m 1.09,-9.368 c -0.909,-0.5 -1.998,-0.773 -3.042,-0.773 l -4.329,0 0,12.959 4.329,0 C -0.863,2.818 0.181,2.544 1.135,2 3.133,0.863 4.224,-1.092 4.224,-3.639 4.224,-6.231 3.133,-8.233 1.09,-9.368"
         style="fill:#231f20;fill-opacity:1;fill-rule:nonzero;stroke:none"
         id="path3661"
         inkscape:connector-curvature="0" />
    </g>
    <g
       id="g3663"
       transform="matrix(1.25,0,0,-1.25,341.57562,569.57781)">
      <path
         d="m 0,0 0,12.959 9.492,0 0,-2.318 -7.119,0 0,-2.411 3.879,0 0,-2.365 -3.879,0 0,-3.547 7.348,0 L 9.721,0 0,0 z"
         style="fill:#231f20;fill-opacity:1;fill-rule:nonzero;stroke:none"
         id="path3665"
         inkscape:connector-curvature="0" />
    </g>
    <g
       id="g3667"
       transform="matrix(1.25,0,0,-1.25,369.20312,569.57781)">
      <path
         d="m 0,0 -6.21,8.912 0,-8.912 -2.284,0 0,12.959 2.284,0 5.982,-8.549 0,8.549 2.238,0 L 2.01,0 0,0 z"
         style="fill:#231f20;fill-opacity:1;fill-rule:nonzero;stroke:none"
         id="path3669"
         inkscape:connector-curvature="0" />
    </g>
    <g
       id="g3671"
       transform="matrix(1.25,0,0,-1.25,401.33312,562.31031)">
      <path
         d="m 0,0 c -0.576,0.161 -2.026,0.508 -2.515,0.795 -0.975,0.573 -1.722,1.508 -1.722,2.895 0,2.137 1.828,3.592 4.477,3.592 1.917,0 3.516,-0.637 4.84,-2 L 3.344,3.735 C 2.524,4.598 1.472,5.008 0.24,5.008 c -1.326,0 -2.103,-0.5 -2.103,-1.318 0,-0.729 0.457,-1.047 2.056,-1.41 C 1.929,1.916 3.07,1.553 3.801,1.188 4.943,0.596 5.672,-0.63 5.672,-2.041 5.672,-3.359 5.08,-4.359 3.847,-5.088 2.933,-5.632 1.746,-5.951 0.558,-5.951 c -2.238,0 -3.927,0.819 -5.388,2.502 l 1.872,1.453 c 0.958,-1.136 2.009,-1.636 3.47,-1.636 1.645,0 2.832,0.728 2.832,1.683 C 3.344,-0.732 2.022,-0.556 0,0"
         style="fill:#231f20;fill-opacity:1;fill-rule:nonzero;stroke:none"
         id="path3673"
         inkscape:connector-curvature="0" />
    </g>
    <g
       id="g3675"
       transform="matrix(1.25,0,0,-1.25,317.51062,511.30156)">
      <path
         d="m 0,0 0,12.959 9.493,0 0,-2.318 -7.12,0 0,-2.411 3.879,0 0,-2.363 -3.879,0 0,-3.549 7.347,0 L 9.72,0 0,0 z"
         style="fill:#231f20;fill-opacity:1;fill-rule:nonzero;stroke:none"
         id="path3677"
         inkscape:connector-curvature="0" />
    </g>
    <g
       id="g3679"
       transform="matrix(1.25,0,0,-1.25,387.27562,511.30156)">
      <path
         d="m 0,0 0,12.959 9.492,0 0,-2.318 -7.119,0 0,-2.411 3.88,0 0,-2.363 -3.88,0 0,-3.549 7.348,0 L 9.721,0 0,0 z"
         style="fill:#231f20;fill-opacity:1;fill-rule:nonzero;stroke:none"
         id="path3681"
         inkscape:connector-curvature="0" />
    </g>
    <g
       id="g3683"
       transform="matrix(1.25,0,0,-1.25,359.87187,498.00031)">
      <path
         d="m 0,0 -3.914,0 0,-3.229 3.914,0 c 1.136,0 1.909,0.637 1.909,1.592 C 1.909,-0.637 1.136,0 0,0 m 2.227,-5.047 c -0.727,-0.41 -1.318,-0.5 -2.318,-0.5 l -3.823,0 0,-5.094 -2.363,0 0,12.959 6.186,0 c 1,0 1.591,-0.135 2.318,-0.545 1.227,-0.682 1.999,-1.955 1.999,-3.41 0,-1.365 -0.772,-2.729 -1.999,-3.41"
         style="fill:#231f20;fill-opacity:1;fill-rule:nonzero;stroke:none"
         id="path3685"
         inkscape:connector-curvature="0" />
    </g>
    <g
       id="g3687"
       transform="matrix(1.25,0,0,-1.25,376.84812,498.00031)">
      <path
         d="m 0,0 -3.732,0 0,-3.229 3.732,0 c 1.136,0 1.863,0.637 1.863,1.592 C 1.863,-0.637 1.136,0 0,0 m 1.863,-10.641 -2.09,5.094 -3.505,0 0,-5.094 -2.318,0 0,12.959 6.005,0 c 0.953,0 1.545,-0.135 2.226,-0.545 1.228,-0.682 2.001,-1.955 2.001,-3.41 0,-1.455 -0.773,-2.729 -2.091,-3.457 l 2.363,-5.547 -2.591,0 z"
         style="fill:#231f20;fill-opacity:1;fill-rule:nonzero;stroke:none"
         id="path3689"
         inkscape:connector-curvature="0" />
    </g>
    <g
       id="g3691"
       transform="matrix(1.25,0,0,-1.25,425.40062,504.03156)">
      <path
         d="m 0,0 c -0.576,0.159 -2.029,0.508 -2.518,0.793 -0.974,0.573 -1.72,1.508 -1.72,2.895 0,2.137 1.826,3.592 4.474,3.592 1.918,0 3.516,-0.635 4.842,-2 L 3.344,3.733 C 2.52,4.598 1.469,5.006 0.236,5.006 c -1.324,0 -2.099,-0.5 -2.099,-1.318 0,-0.729 0.457,-1.047 2.054,-1.41 1.735,-0.364 2.877,-0.727 3.608,-1.092 1.142,-0.59 1.873,-1.818 1.873,-3.227 0,-1.32 -0.594,-2.32 -1.828,-3.048 -0.912,-0.545 -2.1,-0.864 -3.287,-0.864 -2.239,0 -3.928,0.819 -5.389,2.502 l 1.871,1.455 c 0.961,-1.136 2.01,-1.638 3.473,-1.638 1.642,0 2.832,0.728 2.832,1.683 C 3.344,-0.734 2.02,-0.558 0,0"
         style="fill:#231f20;fill-opacity:1;fill-rule:nonzero;stroke:none"
         id="path3693"
         inkscape:connector-curvature="0" />
    </g>
    <g
       id="g3695"
       transform="matrix(1.25,0,0,-1.25,408.86687,504.03156)">
      <path
         d="m 0,0 c -0.576,0.159 -2.027,0.508 -2.516,0.793 -0.976,0.573 -1.721,1.508 -1.721,2.895 0,2.137 1.826,3.592 4.476,3.592 1.918,0 3.515,-0.635 4.84,-2 L 3.344,3.733 C 2.522,4.598 1.471,5.006 0.239,5.006 c -1.326,0 -2.101,-0.5 -2.101,-1.318 0,-0.729 0.456,-1.047 2.054,-1.41 1.736,-0.364 2.879,-0.727 3.607,-1.092 1.143,-0.59 1.875,-1.818 1.875,-3.227 0,-1.32 -0.595,-2.32 -1.828,-3.048 -0.914,-0.545 -2.101,-0.864 -3.287,-0.864 -2.238,0 -3.93,0.819 -5.391,2.502 l 1.873,1.455 c 0.959,-1.136 2.008,-1.638 3.471,-1.638 1.645,0 2.832,0.728 2.832,1.683 C 3.344,-0.734 2.02,-0.558 0,0"
         style="fill:#231f20;fill-opacity:1;fill-rule:nonzero;stroke:none"
         id="path3697"
         inkscape:connector-curvature="0" />
    </g>
    <g
       id="g3699"
       transform="matrix(1.25,0,0,-1.25,343.73937,511.30156)">
      <path
         d="M 0,0 -2.923,4.592 -5.8,0 l -2.741,0 4.247,6.82 -3.882,6.139 2.786,0 2.467,-3.955 2.466,3.955 2.786,0 L -1.508,6.82 2.741,0 0,0 z"
         style="fill:#231f20;fill-opacity:1;fill-rule:nonzero;stroke:none"
         id="path3701"
         inkscape:connector-curvature="0" />
    </g>
    <g
       id="g3703"
       transform="matrix(1.25,0,0,-1.25,390.43187,540.77656)">
      <path
         d="m 0,0 c -3.41,0 -5.503,2.682 -5.503,6.728 0,4.094 2.093,6.686 5.503,6.686 2.091,0 4.002,-1.045 5.002,-2.863 L 2.955,9.459 c -0.363,0.545 -0.545,0.726 -0.91,0.953 -0.5,0.41 -1.363,0.684 -2.045,0.684 -2.365,0 -3.138,-2.319 -3.138,-4.321 0,-2.82 1.182,-4.457 3.138,-4.457 1.182,0 1.819,0.41 2.955,1.637 L 5.002,2.863 C 4.047,1.045 2.091,0 0,0"
         style="fill:#231f20;fill-opacity:1;fill-rule:nonzero;stroke:none"
         id="path3705"
         inkscape:connector-curvature="0" />
    </g>
    <g
       id="g3707"
       transform="matrix(1.25,0,0,-1.25,313.55312,540.49406)">
      <path
         d="m 0,0 0,12.961 9.493,0 0,-2.318 -7.12,0 0,-2.41 3.879,0 0,-2.365 -3.879,0 0,-3.549 7.348,0 L 9.721,0 0,0 z"
         style="fill:#231f20;fill-opacity:1;fill-rule:nonzero;stroke:none"
         id="path3709"
         inkscape:connector-curvature="0" />
    </g>
    <path
       d="m 376.16687,524.29306 2.91625,0 0,16.20125 -2.91625,0 0,-16.20125 z"
       style="fill:#231f20;fill-opacity:1;fill-rule:nonzero;stroke:none"
       id="path3711"
       inkscape:connector-curvature="0" />
    <path
       d="m 414.86062,524.29306 2.915,0 0,16.20125 -2.915,0 0,-16.20125 z"
       style="fill:#231f20;fill-opacity:1;fill-rule:nonzero;stroke:none"
       id="path3713"
       inkscape:connector-curvature="0" />
    <g
       id="g3715"
       transform="matrix(1.25,0,0,-1.25,450.95187,540.49406)">
      <path
         d="m 0,0 -6.211,8.915 0,-8.915 -2.283,0 0,12.961 2.283,0 5.983,-8.55 0,8.55 2.24,0 L 2.012,0 0,0 z"
         style="fill:#231f20;fill-opacity:1;fill-rule:nonzero;stroke:none"
         id="path3717"
         inkscape:connector-curvature="0" />
    </g>
    <g
       id="g3719"
       transform="matrix(1.25,0,0,-1.25,429.14062,526.90656)">
      <path
         d="m 0,0 c -1.959,0 -3.144,-1.637 -3.144,-4.368 0,-2.773 1.185,-4.41 3.144,-4.41 2.463,0 3.055,2.41 3.055,4.41 C 3.055,-1.637 1.959,0 0,0 m 0,-11.096 c -3.83,0 -5.515,3.455 -5.515,6.728 0,4.141 2.097,6.686 5.515,6.686 3.19,0 5.379,-2.684 5.379,-6.639 0,-4.047 -2.098,-6.775 -5.379,-6.775"
         style="fill:#231f20;fill-opacity:1;fill-rule:nonzero;stroke:none"
         id="path3721"
         inkscape:connector-curvature="0" />
    </g>
    <g
       id="g3723"
       transform="matrix(1.25,0,0,-1.25,304.09812,527.19031)">
      <path
         d="m 0,0 -3.732,0 0,-3.23 3.732,0 c 1.136,0 1.864,0.636 1.864,1.591 C 1.864,-0.639 1.136,0 0,0 m 1.864,-10.643 -2.091,5.094 -3.505,0 0,-5.094 -2.318,0 0,12.961 6.005,0 c 0.955,0 1.545,-0.136 2.227,-0.544 1.227,-0.684 2,-1.958 2,-3.413 0,-1.455 -0.773,-2.728 -2.091,-3.455 l 2.363,-5.549 -2.59,0 z"
         style="fill:#231f20;fill-opacity:1;fill-rule:nonzero;stroke:none"
         id="path3725"
         inkscape:connector-curvature="0" />
    </g>
    <g
       id="g3727"
       transform="matrix(1.25,0,0,-1.25,366.71062,527.19031)">
      <path
         d="m 0,0 -3.732,0 0,-3.23 3.732,0 c 1.137,0 1.864,0.636 1.864,1.591 C 1.864,-0.639 1.137,0 0,0 m 1.864,-10.643 -2.091,5.094 -3.505,0 0,-5.094 -2.317,0 0,12.961 6.004,0 c 0.955,0 1.546,-0.136 2.227,-0.544 1.227,-0.684 1.999,-1.958 1.999,-3.413 0,-1.455 -0.772,-2.728 -2.09,-3.455 l 2.364,-5.549 -2.591,0 z"
         style="fill:#231f20;fill-opacity:1;fill-rule:nonzero;stroke:none"
         id="path3729"
         inkscape:connector-curvature="0" />
    </g>
    <g
       id="g3731"
       transform="matrix(1.25,0,0,-1.25,334.46437,533.22281)">
      <path
         d="m 0,0 c -0.576,0.158 -2.026,0.508 -2.517,0.795 -0.975,0.57 -1.72,1.506 -1.72,2.892 0,2.139 1.826,3.594 4.475,3.594 1.918,0 3.517,-0.637 4.841,-2.002 L 3.344,3.734 C 2.521,4.598 1.471,5.006 0.238,5.006 c -1.324,0 -2.101,-0.498 -2.101,-1.319 0,-0.726 0.457,-1.045 2.055,-1.41 1.736,-0.363 2.878,-0.726 3.609,-1.09 1.141,-0.591 1.872,-1.82 1.872,-3.228 0,-1.32 -0.594,-2.32 -1.826,-3.047 -0.914,-0.545 -2.102,-0.865 -3.289,-0.865 -2.238,0 -3.927,0.82 -5.39,2.502 l 1.873,1.455 c 0.959,-1.137 2.01,-1.637 3.471,-1.637 1.644,0 2.832,0.727 2.832,1.682 C 3.344,-0.734 2.02,-0.559 0,0"
         style="fill:#231f20;fill-opacity:1;fill-rule:nonzero;stroke:none"
         id="path3733"
         inkscape:connector-curvature="0" />
    </g>
    <g
       id="g3735"
       transform="matrix(1.25,0,0,-1.25,351.18813,527.13656)">
      <path
         d="m 0,0 0,-10.686 -2.271,0 0,10.686 -3.725,0 0,2.275 9.721,0 L 3.725,0 0,0 z"
         style="fill:#231f20;fill-opacity:1;fill-rule:nonzero;stroke:none"
         id="path3737"
         inkscape:connector-curvature="0" />
    </g>
    <g
       id="g3739"
       transform="matrix(1.25,0,0,-1.25,406.89937,527.13656)">
      <path
         d="m 0,0 0,-10.686 -2.271,0 0,10.686 -3.725,0 0,2.275 9.721,0 L 3.725,0 0,0 z"
         style="fill:#231f20;fill-opacity:1;fill-rule:nonzero;stroke:none"
         id="path3741"
         inkscape:connector-curvature="0" />
    </g>
  </g>
</svg>
