<?xml version="1.0" encoding="UTF-8" standalone="no"?>
<!-- Created with Inkscape (http://www.inkscape.org/) -->

<svg
   xmlns:dc="http://purl.org/dc/elements/1.1/"
   xmlns:cc="http://creativecommons.org/ns#"
   xmlns:rdf="http://www.w3.org/1999/02/22-rdf-syntax-ns#"
   xmlns:svg="http://www.w3.org/2000/svg"
   xmlns="http://www.w3.org/2000/svg"
   xmlns:sodipodi="http://sodipodi.sourceforge.net/DTD/sodipodi-0.dtd"
   xmlns:inkscape="http://www.inkscape.org/namespaces/inkscape"
   width="147.05"
   height="108.17125"
   id="svg36304"
   version="1.1"
   inkscape:version="0.48.3.1 r9886"
   sodipodi:docname="New document 26">
  <defs
     id="defs36306" />
  <sodipodi:namedview
     id="base"
     pagecolor="#ffffff"
     bordercolor="#666666"
     borderopacity="1.0"
     inkscape:pageopacity="0.0"
     inkscape:pageshadow="2"
     inkscape:zoom="0.35"
     inkscape:cx="85.66785"
     inkscape:cy="74.085627"
     inkscape:document-units="px"
     inkscape:current-layer="layer1"
     showgrid="false"
     fit-margin-top="0"
     fit-margin-left="0"
     fit-margin-right="0"
     fit-margin-bottom="0"
     inkscape:window-width="451"
     inkscape:window-height="415"
     inkscape:window-x="175"
     inkscape:window-y="175"
     inkscape:window-maximized="0" />
  <metadata
     id="metadata36309">
    <rdf:RDF>
      <cc:Work
         rdf:about="">
        <dc:format>image/svg+xml</dc:format>
        <dc:type
           rdf:resource="http://purl.org/dc/dcmitype/StillImage" />
        <dc:title></dc:title>
      </cc:Work>
    </rdf:RDF>
  </metadata>
  <g
     inkscape:label="Layer 1"
     inkscape:groupmode="layer"
     id="layer1"
     transform="translate(-289.33215,-498.27656)">
    <g
       id="g3743"
       transform="matrix(1.25,0,0,-1.25,299.6769,606.13531)">
      <path
         d="m 0,0 c -4.425,0 -8.026,3.6 -8.026,8.027 l 0,69.985 c 0,4.424 3.601,8.025 8.026,8.025 l 101.088,0 c 4.425,0 8.026,-3.601 8.026,-8.025 l 0,-69.985 C 109.114,3.6 105.513,0 101.088,0 L 0,0 z"
         style="fill:#ffffff;fill-opacity:1;fill-rule:nonzero;stroke:none"
         id="path3745"
         inkscape:connector-curvature="0" />
    </g>
    <g
       id="g3747"
       transform="matrix(1.25,0,0,-1.25,426.03715,498.27656)">
      <path
         d="m 0,0 -101.088,0 c -4.564,0 -8.276,-3.712 -8.276,-8.275 l 0,-69.985 c 0,-4.564 3.712,-8.277 8.276,-8.277 l 101.088,0 c 4.563,0 8.276,3.713 8.276,8.277 l 0,69.985 C 8.276,-3.712 4.563,0 0,0 m 0,-0.5 c 4.277,0 7.776,-3.5 7.776,-7.775 l 0,-69.985 c 0,-4.277 -3.499,-7.777 -7.776,-7.777 l -101.088,0 c -4.277,0 -7.776,3.5 -7.776,7.777 l 0,69.985 c 0,4.275 3.499,7.775 7.776,7.775 L 0,-0.5"
         style="fill:#231f20;fill-opacity:1;fill-rule:nonzero;stroke:none"
         id="path3749"
         inkscape:connector-curvature="0" />
    </g>
    <g
       id="g3751"
       transform="matrix(1.25,0,0,-1.25,299.6769,604.84906)">
      <path
         d="M 0,0 C -0.94,0 -1.853,0.186 -2.715,0.551 -3.547,0.904 -4.297,1.41 -4.941,2.057 -5.586,2.699 -6.093,3.449 -6.446,4.281 -6.812,5.145 -6.998,6.057 -6.998,6.998 l 0,69.985 c 0,0.939 0.186,1.853 0.552,2.714 0.353,0.832 0.86,1.582 1.505,2.227 0.644,0.644 1.394,1.152 2.226,1.504 0.862,0.367 1.775,0.553 2.715,0.553 l 101.088,0 c 0.94,0 1.854,-0.186 2.715,-0.553 0.833,-0.352 1.582,-0.86 2.227,-1.504 0.644,-0.645 1.151,-1.395 1.505,-2.227 0.365,-0.861 0.552,-1.775 0.552,-2.714 l 0,-69.985 c 0,-0.941 -0.187,-1.853 -0.552,-2.717 C 107.181,3.449 106.674,2.699 106.03,2.057 105.385,1.41 104.636,0.904 103.803,0.551 102.942,0.186 102.028,0 101.088,0 L 0,0 z"
         style="fill:#231f20;fill-opacity:1;fill-rule:nonzero;stroke:none"
         id="path3753"
         inkscape:connector-curvature="0" />
    </g>
    <g
       id="g3755"
       transform="matrix(1.25,0,0,-1.25,299.6769,602.42031)">
      <path
         d="M 0,0 C -0.677,0 -1.335,0.133 -1.955,0.397 -2.558,0.653 -3.099,1.02 -3.567,1.487 -4.034,1.956 -4.402,2.497 -4.658,3.1 -4.92,3.719 -5.054,4.377 -5.054,5.055 l 0,69.985 c 0,0.677 0.134,1.334 0.396,1.955 0.256,0.601 0.624,1.144 1.091,1.611 0.468,0.469 1.009,0.834 1.612,1.09 0.62,0.263 1.278,0.398 1.955,0.398 l 101.088,0 c 0.678,0 1.335,-0.135 1.955,-0.398 0.602,-0.256 1.145,-0.621 1.613,-1.09 0.467,-0.467 0.834,-1.01 1.089,-1.611 0.264,-0.621 0.397,-1.278 0.397,-1.955 l 0,-69.985 c 0,-0.678 -0.133,-1.336 -0.397,-1.955 C 105.49,2.497 105.123,1.956 104.656,1.487 104.188,1.02 103.645,0.653 103.043,0.397 102.423,0.133 101.766,0 101.088,0 L 0,0 z"
         style="fill:#ffffff;fill-opacity:1;fill-rule:nonzero;stroke:none"
         id="path3757"
         inkscape:connector-curvature="0" />
    </g>
    <g
       id="g3759"
       transform="matrix(1.25,0,0,-1.25,373.74127,576.77531)">
      <path
         d="m 0,0 c -0.59,0.318 -1.272,0.5 -1.953,0.5 l -1.966,0 0,-8.32 1.966,0 c 0.681,0 1.317,0.181 1.862,0.5 1.362,0.726 1.998,1.91 1.998,3.683 C 1.907,-1.908 1.271,-0.726 0,0 m 1.09,-9.367 c -0.908,-0.5 -1.998,-0.774 -3.043,-0.774 l -4.328,0 0,12.961 4.328,0 c 1.091,0 2.135,-0.273 3.088,-0.818 1.999,-1.137 3.089,-3.094 3.089,-5.639 0,-2.593 -1.09,-4.593 -3.134,-5.73"
         style="fill:#231f20;fill-opacity:1;fill-rule:nonzero;stroke:none"
         id="path3761"
         inkscape:connector-curvature="0" />
    </g>
    <g
       id="g3763"
       transform="matrix(1.25,0,0,-1.25,329.43227,589.45156)">
      <path
         d="m 0,0 0,12.961 9.492,0 0,-2.32 -7.119,0 0,-2.408 3.879,0 0,-2.365 -3.879,0 0,-3.547 7.348,0 L 9.721,0 0,0 z"
         style="fill:#231f20;fill-opacity:1;fill-rule:nonzero;stroke:none"
         id="path3765"
         inkscape:connector-curvature="0" />
    </g>
    <g
       id="g3767"
       transform="matrix(1.25,0,0,-1.25,357.0604,589.45156)">
      <path
         d="m 0,0 -6.21,8.915 0,-8.915 -2.285,0 0,12.961 2.285,0 5.981,-8.548 0,8.548 2.238,0 L 2.009,0 0,0 z"
         style="fill:#231f20;fill-opacity:1;fill-rule:nonzero;stroke:none"
         id="path3769"
         inkscape:connector-curvature="0" />
    </g>
    <g
       id="g3771"
       transform="matrix(1.25,0,0,-1.25,389.19115,582.18031)">
      <path
         d="m 0,0 c -0.577,0.158 -2.027,0.508 -2.516,0.795 -0.976,0.57 -1.722,1.506 -1.722,2.892 0,2.139 1.827,3.594 4.476,3.594 1.918,0 3.517,-0.639 4.841,-2.002 L 3.343,3.734 C 2.522,4.598 1.471,5.008 0.238,5.008 c -1.324,0 -2.101,-0.5 -2.101,-1.321 0,-0.726 0.457,-1.045 2.055,-1.41 1.735,-0.363 2.877,-0.726 3.608,-1.09 1.142,-0.591 1.872,-1.82 1.872,-3.228 0,-1.318 -0.593,-2.32 -1.826,-3.047 -0.914,-0.547 -2.101,-0.863 -3.289,-0.863 -2.238,0 -3.927,0.816 -5.388,2.5 l 1.872,1.455 c 0.959,-1.137 2.01,-1.637 3.471,-1.637 1.644,0 2.831,0.727 2.831,1.682 C 3.343,-0.734 2.02,-0.557 0,0"
         style="fill:#231f20;fill-opacity:1;fill-rule:nonzero;stroke:none"
         id="path3773"
         inkscape:connector-curvature="0" />
    </g>
    <g
       id="g3775"
       transform="matrix(1.25,0,0,-1.25,305.3679,531.30156)">
      <path
         d="m 0,0 0,12.959 9.492,0 0,-2.318 -7.119,0 0,-2.411 3.878,0 0,-2.363 -3.878,0 0,-3.549 7.347,0 L 9.72,0 0,0 z"
         style="fill:#231f20;fill-opacity:1;fill-rule:nonzero;stroke:none"
         id="path3777"
         inkscape:connector-curvature="0" />
    </g>
    <g
       id="g3779"
       transform="matrix(1.25,0,0,-1.25,375.1329,531.30156)">
      <path
         d="m 0,0 0,12.959 9.491,0 0,-2.318 -7.118,0 0,-2.411 3.879,0 0,-2.363 -3.879,0 0,-3.549 7.347,0 L 9.72,0 0,0 z"
         style="fill:#231f20;fill-opacity:1;fill-rule:nonzero;stroke:none"
         id="path3781"
         inkscape:connector-curvature="0" />
    </g>
    <g
       id="g3783"
       transform="matrix(1.25,0,0,-1.25,347.72877,518.00031)">
      <path
         d="m 0,0 -3.915,0 0,-3.229 3.915,0 c 1.136,0 1.909,0.637 1.909,1.592 C 1.909,-0.637 1.136,0 0,0 m 2.227,-5.047 c -0.727,-0.41 -1.318,-0.5 -2.318,-0.5 l -3.824,0 0,-5.094 -2.362,0 0,12.959 6.186,0 c 1,0 1.591,-0.135 2.318,-0.545 1.227,-0.682 1.999,-1.955 1.999,-3.41 0,-1.365 -0.772,-2.729 -1.999,-3.41"
         style="fill:#231f20;fill-opacity:1;fill-rule:nonzero;stroke:none"
         id="path3785"
         inkscape:connector-curvature="0" />
    </g>
    <g
       id="g3787"
       transform="matrix(1.25,0,0,-1.25,364.70502,518.00031)">
      <path
         d="m 0,0 -3.732,0 0,-3.229 3.732,0 c 1.136,0 1.863,0.637 1.863,1.592 C 1.863,-0.637 1.136,0 0,0 m 1.863,-10.641 -2.09,5.094 -3.505,0 0,-5.094 -2.319,0 0,12.959 6.006,0 c 0.954,0 1.545,-0.135 2.226,-0.545 1.228,-0.682 2.001,-1.955 2.001,-3.41 0,-1.455 -0.773,-2.729 -2.091,-3.457 l 2.363,-5.547 -2.591,0 z"
         style="fill:#231f20;fill-opacity:1;fill-rule:nonzero;stroke:none"
         id="path3789"
         inkscape:connector-curvature="0" />
    </g>
    <g
       id="g3791"
       transform="matrix(1.25,0,0,-1.25,396.72477,524.03156)">
      <path
         d="m 0,0 c -0.577,0.159 -2.028,0.508 -2.517,0.793 -0.975,0.573 -1.721,1.508 -1.721,2.895 0,2.137 1.827,3.592 4.475,3.592 1.919,0 3.516,-0.635 4.841,-2 L 3.343,3.733 C 2.52,4.598 1.47,5.006 0.237,5.006 c -1.324,0 -2.1,-0.5 -2.1,-1.318 0,-0.729 0.457,-1.047 2.054,-1.41 1.736,-0.364 2.878,-0.727 3.608,-1.092 1.142,-0.59 1.873,-1.818 1.873,-3.227 0,-1.32 -0.594,-2.32 -1.827,-3.048 -0.913,-0.545 -2.1,-0.864 -3.288,-0.864 -2.238,0 -3.928,0.819 -5.389,2.502 l 1.872,1.455 c 0.959,-1.136 2.01,-1.638 3.471,-1.638 1.645,0 2.832,0.728 2.832,1.683 C 3.343,-0.734 2.02,-0.558 0,0"
         style="fill:#231f20;fill-opacity:1;fill-rule:nonzero;stroke:none"
         id="path3793"
         inkscape:connector-curvature="0" />
    </g>
    <g
       id="g3795"
       transform="matrix(1.25,0,0,-1.25,413.25665,524.03156)">
      <path
         d="m 0,0 c -0.577,0.159 -2.028,0.508 -2.517,0.793 -0.976,0.573 -1.721,1.508 -1.721,2.895 0,2.137 1.826,3.592 4.475,3.592 1.918,0 3.517,-0.635 4.841,-2 L 3.343,3.733 C 2.52,4.598 1.47,5.006 0.237,5.006 c -1.324,0 -2.1,-0.5 -2.1,-1.318 0,-0.729 0.457,-1.047 2.054,-1.41 1.736,-0.364 2.878,-0.727 3.608,-1.092 1.142,-0.59 1.873,-1.818 1.873,-3.227 0,-1.32 -0.594,-2.32 -1.827,-3.048 -0.913,-0.545 -2.101,-0.864 -3.288,-0.864 -2.238,0 -3.928,0.819 -5.389,2.502 l 1.873,1.455 C -2,-3.132 -0.95,-3.634 0.512,-3.634 c 1.643,0 2.831,0.728 2.831,1.683 C 3.343,-0.734 2.019,-0.558 0,0"
         style="fill:#231f20;fill-opacity:1;fill-rule:nonzero;stroke:none"
         id="path3797"
         inkscape:connector-curvature="0" />
    </g>
    <g
       id="g3799"
       transform="matrix(1.25,0,0,-1.25,331.59652,531.30156)">
      <path
         d="M 0,0 -2.923,4.592 -5.801,0 l -2.741,0 4.248,6.82 -3.883,6.139 2.786,0 2.468,-3.955 2.466,3.955 2.786,0 L -1.508,6.82 2.74,0 0,0 z"
         style="fill:#231f20;fill-opacity:1;fill-rule:nonzero;stroke:none"
         id="path3801"
         inkscape:connector-curvature="0" />
    </g>
    <g
       id="g3803"
       transform="matrix(1.25,0,0,-1.25,383.88715,560.46156)">
      <path
         d="m 0,0 0,12.959 9.491,0 0,-2.318 -7.118,0 0,-2.411 3.878,0 0,-2.363 -3.878,0 0,-3.547 7.347,0 L 9.72,0 0,0 z"
         style="fill:#231f20;fill-opacity:1;fill-rule:nonzero;stroke:none"
         id="path3805"
         inkscape:connector-curvature="0" />
    </g>
    <g
       id="g3807"
       transform="matrix(1.25,0,0,-1.25,329.67827,560.46156)">
      <path
         d="m 0,0 0,12.959 2.327,0 0,-10.957 7.392,0 L 9.719,0 0,0 z"
         style="fill:#231f20;fill-opacity:1;fill-rule:nonzero;stroke:none"
         id="path3809"
         inkscape:connector-curvature="0" />
    </g>
    <g
       id="g3811"
       transform="matrix(1.25,0,0,-1.25,375.05728,560.46156)">
      <path
         d="m 0,0 -6.211,8.912 0,-8.912 -2.284,0 0,12.959 2.284,0 5.983,-8.547 0,8.547 2.237,0 L 2.009,0 0,0 z"
         style="fill:#231f20;fill-opacity:1;fill-rule:nonzero;stroke:none"
         id="path3813"
         inkscape:connector-curvature="0" />
    </g>
    <g
       id="g3815"
       transform="matrix(1.25,0,0,-1.25,352.0684,548.29906)">
      <path
         d="m 0,0 -1.819,-4.365 3.636,0 L 0,0 z m 4.091,-9.73 -1.273,3.047 -5.637,0 -1.273,-3.047 -2.546,0 5.456,12.959 2.363,0 5.411,-12.959 -2.501,0 z"
         style="fill:#231f20;fill-opacity:1;fill-rule:nonzero;stroke:none"
         id="path3817"
         inkscape:connector-curvature="0" />
    </g>
  </g>
</svg>
