<?xml version="1.0" encoding="UTF-8" standalone="no"?>
<!-- Created with Inkscape (http://www.inkscape.org/) -->

<svg
   xmlns:dc="http://purl.org/dc/elements/1.1/"
   xmlns:cc="http://creativecommons.org/ns#"
   xmlns:rdf="http://www.w3.org/1999/02/22-rdf-syntax-ns#"
   xmlns:svg="http://www.w3.org/2000/svg"
   xmlns="http://www.w3.org/2000/svg"
   xmlns:sodipodi="http://sodipodi.sourceforge.net/DTD/sodipodi-0.dtd"
   xmlns:inkscape="http://www.inkscape.org/namespaces/inkscape"
   width="71.5625"
   height="37.8125"
   id="svg4519"
   version="1.1"
   inkscape:version="0.48.3.1 r9886"
   sodipodi:docname="New document 12">
  <defs
     id="defs4521">
    <clipPath
       clipPathUnits="userSpaceOnUse"
       id="clipPath3475">
      <path
         inkscape:connector-curvature="0"
         d="m 27.001,175.5 513,0 0,616.5 -513,0 0,-616.5 z"
         id="path3477" />
    </clipPath>
  </defs>
  <sodipodi:namedview
     id="base"
     pagecolor="#ffffff"
     bordercolor="#666666"
     borderopacity="1.0"
     inkscape:pageopacity="0.0"
     inkscape:pageshadow="2"
     inkscape:zoom="0.35"
     inkscape:cx="35.78125"
     inkscape:cy="18.906267"
     inkscape:document-units="px"
     inkscape:current-layer="layer1"
     showgrid="false"
     fit-margin-top="0"
     fit-margin-left="0"
     fit-margin-right="0"
     fit-margin-bottom="0"
     inkscape:window-width="451"
     inkscape:window-height="398"
     inkscape:window-x="25"
     inkscape:window-y="25"
     inkscape:window-maximized="0" />
  <metadata
     id="metadata4524">
    <rdf:RDF>
      <cc:Work
         rdf:about="">
        <dc:format>image/svg+xml</dc:format>
        <dc:type
           rdf:resource="http://purl.org/dc/dcmitype/StillImage" />
        <dc:title></dc:title>
      </cc:Work>
    </rdf:RDF>
  </metadata>
  <g
     inkscape:label="Layer 1"
     inkscape:groupmode="layer"
     id="layer1"
     transform="translate(-339.21875,-513.45595)">
    <g
       transform="matrix(1.25,0,0,-1.25,27.24,1021.2472)"
       id="g3471">
      <g
         id="g3473"
         clip-path="url(#clipPath3475)">
        <path
           inkscape:connector-curvature="0"
           d="m 306.833,406.233 -57.25,0 0,-30.25 57.25,0 0,30.25 z"
           style="fill:#231f20;fill-opacity:1;fill-rule:nonzero;stroke:none"
           id="path3479" />
        <g
           id="g3481"
           transform="translate(261.583,404.282)">
          <path
             inkscape:connector-curvature="0"
             d="m 0,0 c -1.531,0 -2.772,-1.24 -2.772,-2.772 0,-1.531 1.241,-2.772 2.772,-2.772 1.531,0 2.772,1.241 2.772,2.772 C 2.772,-1.24 1.531,0 0,0"
             style="fill:#fccf34;fill-opacity:1;fill-rule:nonzero;stroke:none"
             id="path3483" />
        </g>
        <g
           id="g3485"
           transform="translate(261.583,383.4781)">
          <path
             inkscape:connector-curvature="0"
             d="m 0,0 c -1.531,0 -2.772,-1.242 -2.772,-2.773 0,-1.53 1.241,-2.771 2.772,-2.771 1.531,0 2.772,1.241 2.772,2.771 C 2.772,-1.242 1.531,0 0,0"
             style="fill:#fccf34;fill-opacity:1;fill-rule:nonzero;stroke:none"
             id="path3487" />
        </g>
        <g
           id="g3489"
           transform="translate(294.833,404.282)">
          <path
             inkscape:connector-curvature="0"
             d="m 0,0 c -1.531,0 -2.772,-1.24 -2.772,-2.772 0,-1.531 1.241,-2.772 2.772,-2.772 1.531,0 2.772,1.241 2.772,2.772 C 2.772,-1.24 1.531,0 0,0"
             style="fill:#fccf34;fill-opacity:1;fill-rule:nonzero;stroke:none"
             id="path3491" />
        </g>
        <g
           id="g3493"
           transform="translate(294.833,383.4781)">
          <path
             inkscape:connector-curvature="0"
             d="m 0,0 c -1.531,0 -2.772,-1.242 -2.772,-2.773 0,-1.53 1.241,-2.771 2.772,-2.771 1.531,0 2.772,1.241 2.772,2.771 C 2.772,-1.242 1.531,0 0,0"
             style="fill:#fccf34;fill-opacity:1;fill-rule:nonzero;stroke:none"
             id="path3495" />
        </g>
      </g>
    </g>
  </g>
</svg>
