<?xml version="1.0" encoding="UTF-8" standalone="no"?>
<!-- Created with Inkscape (http://www.inkscape.org/) -->

<svg
   xmlns:dc="http://purl.org/dc/elements/1.1/"
   xmlns:cc="http://creativecommons.org/ns#"
   xmlns:rdf="http://www.w3.org/1999/02/22-rdf-syntax-ns#"
   xmlns:svg="http://www.w3.org/2000/svg"
   xmlns="http://www.w3.org/2000/svg"
   xmlns:sodipodi="http://sodipodi.sourceforge.net/DTD/sodipodi-0.dtd"
   xmlns:inkscape="http://www.inkscape.org/namespaces/inkscape"
   width="71.5625"
   height="37.811249"
   id="svg5004"
   version="1.1"
   inkscape:version="0.48.3.1 r9886"
   sodipodi:docname="New document 24">
  <defs
     id="defs5006" />
  <sodipodi:namedview
     id="base"
     pagecolor="#ffffff"
     bordercolor="#666666"
     borderopacity="1.0"
     inkscape:pageopacity="0.0"
     inkscape:pageshadow="2"
     inkscape:zoom="0.35"
     inkscape:cx="47.92411"
     inkscape:cy="70.334197"
     inkscape:document-units="px"
     inkscape:current-layer="layer1"
     showgrid="false"
     fit-margin-top="0"
     fit-margin-left="0"
     fit-margin-right="0"
     fit-margin-bottom="0"
     inkscape:window-width="451"
     inkscape:window-height="398"
     inkscape:window-x="150"
     inkscape:window-y="150"
     inkscape:window-maximized="0" />
  <metadata
     id="metadata5009">
    <rdf:RDF>
      <cc:Work
         rdf:about="">
        <dc:format>image/svg+xml</dc:format>
        <dc:type
           rdf:resource="http://purl.org/dc/dcmitype/StillImage" />
        <dc:title></dc:title>
      </cc:Work>
    </rdf:RDF>
  </metadata>
  <g
     inkscape:label="Layer 1"
     inkscape:groupmode="layer"
     id="layer1"
     transform="translate(-327.07589,-564.88513)">
    <path
       d="m 398.63839,564.88513 -71.5625,0 0,37.81125 71.5625,0 0,-37.81125 z"
       style="fill:#231f20;fill-opacity:1;fill-rule:nonzero;stroke:none"
       id="path3187"
       inkscape:connector-curvature="0" />
    <g
       id="g3189"
       transform="matrix(1.25,0,0,-1.25,373.95089,580.32625)">
      <path
         d="m 0,0 c -1.531,0 -2.772,-1.241 -2.772,-2.771 0,-1.532 1.241,-2.773 2.772,-2.773 1.531,0 2.772,1.241 2.772,2.773 C 2.772,-1.241 1.531,0 0,0"
         style="fill:#fccf34;fill-opacity:1;fill-rule:nonzero;stroke:none"
         id="path3191"
         inkscape:connector-curvature="0" />
    </g>
    <g
       id="g3193"
       transform="matrix(1.25,0,0,-1.25,369.66214,573.43375)">
      <path
         d="m 0,0 c -1.53,0 -2.771,-1.241 -2.771,-2.772 0,-1.531 1.241,-2.772 2.771,-2.772 1.533,0 2.773,1.241 2.773,2.772 C 2.773,-1.241 1.533,0 0,0"
         style="fill:#fccf34;fill-opacity:1;fill-rule:nonzero;stroke:none"
         id="path3195"
         inkscape:connector-curvature="0" />
    </g>
    <g
       id="g3197"
       transform="matrix(1.25,0,0,-1.25,369.66214,587.21763)">
      <path
         d="m 0,0 c -1.53,0 -2.771,-1.242 -2.771,-2.772 0,-1.531 1.241,-2.772 2.771,-2.772 1.533,0 2.773,1.241 2.773,2.772 C 2.773,-1.242 1.533,0 0,0"
         style="fill:#fccf34;fill-opacity:1;fill-rule:nonzero;stroke:none"
         id="path3199"
         inkscape:connector-curvature="0" />
    </g>
    <g
       id="g3201"
       transform="matrix(1.25,0,0,-1.25,365.37589,566.54138)">
      <path
         d="m 0,0 c -1.531,0 -2.772,-1.242 -2.772,-2.772 0,-1.531 1.241,-2.772 2.772,-2.772 1.531,0 2.772,1.241 2.772,2.772 C 2.772,-1.242 1.531,0 0,0"
         style="fill:#fccf34;fill-opacity:1;fill-rule:nonzero;stroke:none"
         id="path3203"
         inkscape:connector-curvature="0" />
    </g>
    <g
       id="g3205"
       transform="matrix(1.25,0,0,-1.25,365.37589,594.11013)">
      <path
         d="m 0,0 c -1.531,0 -2.772,-1.241 -2.772,-2.772 0,-1.531 1.241,-2.772 2.772,-2.772 1.531,0 2.772,1.241 2.772,2.772 C 2.772,-1.241 1.531,0 0,0"
         style="fill:#fccf34;fill-opacity:1;fill-rule:nonzero;stroke:none"
         id="path3207"
         inkscape:connector-curvature="0" />
    </g>
    <g
       id="g3209"
       transform="matrix(1.25,0,0,-1.25,352.70089,580.32625)">
      <path
         d="m 0,0 c -1.531,0 -2.772,-1.241 -2.772,-2.771 0,-1.532 1.241,-2.773 2.772,-2.773 1.531,0 2.772,1.241 2.772,2.773 C 2.772,-1.241 1.531,0 0,0"
         style="fill:#fccf34;fill-opacity:1;fill-rule:nonzero;stroke:none"
         id="path3211"
         inkscape:connector-curvature="0" />
    </g>
    <g
       id="g3213"
       transform="matrix(1.25,0,0,-1.25,348.41214,573.43375)">
      <path
         d="m 0,0 c -1.53,0 -2.771,-1.241 -2.771,-2.772 0,-1.531 1.241,-2.772 2.771,-2.772 1.533,0 2.773,1.241 2.773,2.772 C 2.773,-1.241 1.533,0 0,0"
         style="fill:#fccf34;fill-opacity:1;fill-rule:nonzero;stroke:none"
         id="path3215"
         inkscape:connector-curvature="0" />
    </g>
    <g
       id="g3217"
       transform="matrix(1.25,0,0,-1.25,348.41214,587.21763)">
      <path
         d="m 0,0 c -1.53,0 -2.771,-1.242 -2.771,-2.772 0,-1.531 1.241,-2.772 2.771,-2.772 1.533,0 2.773,1.241 2.773,2.772 C 2.773,-1.242 1.533,0 0,0"
         style="fill:#fccf34;fill-opacity:1;fill-rule:nonzero;stroke:none"
         id="path3219"
         inkscape:connector-curvature="0" />
    </g>
    <g
       id="g3221"
       transform="matrix(1.25,0,0,-1.25,344.12589,566.54138)">
      <path
         d="m 0,0 c -1.531,0 -2.772,-1.242 -2.772,-2.772 0,-1.531 1.241,-2.772 2.772,-2.772 1.531,0 2.772,1.241 2.772,2.772 C 2.772,-1.242 1.531,0 0,0"
         style="fill:#fccf34;fill-opacity:1;fill-rule:nonzero;stroke:none"
         id="path3223"
         inkscape:connector-curvature="0" />
    </g>
    <g
       id="g3225"
       transform="matrix(1.25,0,0,-1.25,344.12589,594.11013)">
      <path
         d="m 0,0 c -1.531,0 -2.772,-1.241 -2.772,-2.772 0,-1.531 1.241,-2.772 2.772,-2.772 1.531,0 2.772,1.241 2.772,2.772 C 2.772,-1.241 1.531,0 0,0"
         style="fill:#fccf34;fill-opacity:1;fill-rule:nonzero;stroke:none"
         id="path3227"
         inkscape:connector-curvature="0" />
    </g>
  </g>
</svg>
