<?xml version="1.0" encoding="UTF-8" standalone="no"?>
<!-- Created with Inkscape (http://www.inkscape.org/) -->

<svg
   xmlns:dc="http://purl.org/dc/elements/1.1/"
   xmlns:cc="http://creativecommons.org/ns#"
   xmlns:rdf="http://www.w3.org/1999/02/22-rdf-syntax-ns#"
   xmlns:svg="http://www.w3.org/2000/svg"
   xmlns="http://www.w3.org/2000/svg"
   xmlns:sodipodi="http://sodipodi.sourceforge.net/DTD/sodipodi-0.dtd"
   xmlns:inkscape="http://www.inkscape.org/namespaces/inkscape"
   width="71.5625"
   height="37.811249"
   id="svg5100"
   version="1.1"
   inkscape:version="0.48.3.1 r9886"
   sodipodi:docname="New document 26">
  <defs
     id="defs5102" />
  <sodipodi:namedview
     id="base"
     pagecolor="#ffffff"
     bordercolor="#666666"
     borderopacity="1.0"
     inkscape:pageopacity="0.0"
     inkscape:pageshadow="2"
     inkscape:zoom="0.35"
     inkscape:cx="62.20982"
     inkscape:cy="73.191337"
     inkscape:document-units="px"
     inkscape:current-layer="layer1"
     showgrid="false"
     fit-margin-top="0"
     fit-margin-left="0"
     fit-margin-right="0"
     fit-margin-bottom="0"
     inkscape:window-width="451"
     inkscape:window-height="398"
     inkscape:window-x="25"
     inkscape:window-y="25"
     inkscape:window-maximized="0" />
  <metadata
     id="metadata5105">
    <rdf:RDF>
      <cc:Work
         rdf:about="">
        <dc:format>image/svg+xml</dc:format>
        <dc:type
           rdf:resource="http://purl.org/dc/dcmitype/StillImage" />
        <dc:title></dc:title>
      </cc:Work>
    </rdf:RDF>
  </metadata>
  <g
     inkscape:label="Layer 1"
     inkscape:groupmode="layer"
     id="layer1"
     transform="translate(-312.79018,-567.74227)">
    <path
       d="m 384.35268,567.74227 -71.5625,0 0,37.81125 71.5625,0 0,-37.81125 z"
       style="fill:#231f20;fill-opacity:1;fill-rule:nonzero;stroke:none"
       id="path3271"
       inkscape:connector-curvature="0" />
    <g
       id="g3273"
       transform="matrix(1.25,0,0,-1.25,357.47768,583.18339)">
      <path
         d="m 0,0 c -1.53,0 -2.771,-1.241 -2.771,-2.771 0,-1.532 1.241,-2.773 2.771,-2.773 1.532,0 2.773,1.241 2.773,2.773 C 2.773,-1.241 1.532,0 0,0"
         style="fill:#fccf34;fill-opacity:1;fill-rule:nonzero;stroke:none"
         id="path3275"
         inkscape:connector-curvature="0" />
    </g>
    <g
       id="g3277"
       transform="matrix(1.25,0,0,-1.25,353.19143,576.29089)">
      <path
         d="m 0,0 c -1.531,0 -2.772,-1.241 -2.772,-2.772 0,-1.531 1.241,-2.772 2.772,-2.772 1.531,0 2.771,1.241 2.771,2.772 C 2.771,-1.241 1.531,0 0,0"
         style="fill:#fccf34;fill-opacity:1;fill-rule:nonzero;stroke:none"
         id="path3279"
         inkscape:connector-curvature="0" />
    </g>
    <g
       id="g3281"
       transform="matrix(1.25,0,0,-1.25,353.19143,590.07477)">
      <path
         d="m 0,0 c -1.531,0 -2.772,-1.242 -2.772,-2.772 0,-1.531 1.241,-2.772 2.772,-2.772 1.531,0 2.771,1.241 2.771,2.772 C 2.771,-1.242 1.531,0 0,0"
         style="fill:#fccf34;fill-opacity:1;fill-rule:nonzero;stroke:none"
         id="path3283"
         inkscape:connector-curvature="0" />
    </g>
    <g
       id="g3285"
       transform="matrix(1.25,0,0,-1.25,348.90393,569.39852)">
      <path
         d="m 0,0 c -1.53,0 -2.771,-1.242 -2.771,-2.772 0,-1.531 1.241,-2.772 2.771,-2.772 1.531,0 2.772,1.241 2.772,2.772 C 2.772,-1.242 1.531,0 0,0"
         style="fill:#fccf34;fill-opacity:1;fill-rule:nonzero;stroke:none"
         id="path3287"
         inkscape:connector-curvature="0" />
    </g>
    <g
       id="g3289"
       transform="matrix(1.25,0,0,-1.25,348.90393,596.96727)">
      <path
         d="m 0,0 c -1.53,0 -2.771,-1.241 -2.771,-2.772 0,-1.531 1.241,-2.772 2.771,-2.772 1.531,0 2.772,1.241 2.772,2.772 C 2.772,-1.241 1.531,0 0,0"
         style="fill:#fccf34;fill-opacity:1;fill-rule:nonzero;stroke:none"
         id="path3291"
         inkscape:connector-curvature="0" />
    </g>
    <g
       id="g3293"
       transform="matrix(1.25,0,0,-1.25,379.66518,583.18339)">
      <path
         d="m 0,0 c -1.53,0 -2.771,-1.241 -2.771,-2.771 0,-1.532 1.241,-2.773 2.771,-2.773 1.532,0 2.773,1.241 2.773,2.773 C 2.773,-1.241 1.532,0 0,0"
         style="fill:#fccf34;fill-opacity:1;fill-rule:nonzero;stroke:none"
         id="path3295"
         inkscape:connector-curvature="0" />
    </g>
    <g
       id="g3297"
       transform="matrix(1.25,0,0,-1.25,375.37893,576.29089)">
      <path
         d="m 0,0 c -1.531,0 -2.772,-1.241 -2.772,-2.772 0,-1.531 1.241,-2.772 2.772,-2.772 1.531,0 2.771,1.241 2.771,2.772 C 2.771,-1.241 1.531,0 0,0"
         style="fill:#fccf34;fill-opacity:1;fill-rule:nonzero;stroke:none"
         id="path3299"
         inkscape:connector-curvature="0" />
    </g>
    <g
       id="g3301"
       transform="matrix(1.25,0,0,-1.25,375.37893,590.07477)">
      <path
         d="m 0,0 c -1.531,0 -2.772,-1.242 -2.772,-2.772 0,-1.531 1.241,-2.772 2.772,-2.772 1.531,0 2.771,1.241 2.771,2.772 C 2.771,-1.242 1.531,0 0,0"
         style="fill:#fccf34;fill-opacity:1;fill-rule:nonzero;stroke:none"
         id="path3303"
         inkscape:connector-curvature="0" />
    </g>
    <g
       id="g3305"
       transform="matrix(1.25,0,0,-1.25,371.09143,569.39852)">
      <path
         d="m 0,0 c -1.53,0 -2.771,-1.242 -2.771,-2.772 0,-1.531 1.241,-2.772 2.771,-2.772 1.531,0 2.772,1.241 2.772,2.772 C 2.772,-1.242 1.531,0 0,0"
         style="fill:#fccf34;fill-opacity:1;fill-rule:nonzero;stroke:none"
         id="path3307"
         inkscape:connector-curvature="0" />
    </g>
    <g
       id="g3309"
       transform="matrix(1.25,0,0,-1.25,371.09143,596.96727)">
      <path
         d="m 0,0 c -1.53,0 -2.771,-1.241 -2.771,-2.772 0,-1.531 1.241,-2.772 2.771,-2.772 1.531,0 2.772,1.241 2.772,2.772 C 2.772,-1.241 1.531,0 0,0"
         style="fill:#fccf34;fill-opacity:1;fill-rule:nonzero;stroke:none"
         id="path3311"
         inkscape:connector-curvature="0" />
    </g>
    <g
       id="g3313"
       transform="matrix(1.25,0,0,-1.25,335.91518,583.18339)">
      <path
         d="m 0,0 c -1.53,0 -2.771,-1.241 -2.771,-2.771 0,-1.532 1.241,-2.773 2.771,-2.773 1.532,0 2.773,1.241 2.773,2.773 C 2.773,-1.241 1.532,0 0,0"
         style="fill:#fccf34;fill-opacity:1;fill-rule:nonzero;stroke:none"
         id="path3315"
         inkscape:connector-curvature="0" />
    </g>
    <g
       id="g3317"
       transform="matrix(1.25,0,0,-1.25,331.62893,576.29089)">
      <path
         d="m 0,0 c -1.531,0 -2.772,-1.241 -2.772,-2.772 0,-1.531 1.241,-2.772 2.772,-2.772 1.531,0 2.771,1.241 2.771,2.772 C 2.771,-1.241 1.531,0 0,0"
         style="fill:#fccf34;fill-opacity:1;fill-rule:nonzero;stroke:none"
         id="path3319"
         inkscape:connector-curvature="0" />
    </g>
    <g
       id="g3321"
       transform="matrix(1.25,0,0,-1.25,331.62893,590.07477)">
      <path
         d="m 0,0 c -1.531,0 -2.772,-1.242 -2.772,-2.772 0,-1.531 1.241,-2.772 2.772,-2.772 1.531,0 2.771,1.241 2.771,2.772 C 2.771,-1.242 1.531,0 0,0"
         style="fill:#fccf34;fill-opacity:1;fill-rule:nonzero;stroke:none"
         id="path3323"
         inkscape:connector-curvature="0" />
    </g>
    <g
       id="g3325"
       transform="matrix(1.25,0,0,-1.25,327.34143,569.39852)">
      <path
         d="m 0,0 c -1.53,0 -2.771,-1.242 -2.771,-2.772 0,-1.531 1.241,-2.772 2.771,-2.772 1.531,0 2.772,1.241 2.772,2.772 C 2.772,-1.242 1.531,0 0,0"
         style="fill:#fccf34;fill-opacity:1;fill-rule:nonzero;stroke:none"
         id="path3327"
         inkscape:connector-curvature="0" />
    </g>
    <g
       id="g3329"
       transform="matrix(1.25,0,0,-1.25,327.34143,596.96727)">
      <path
         d="m 0,0 c -1.53,0 -2.771,-1.241 -2.771,-2.772 0,-1.531 1.241,-2.772 2.771,-2.772 1.531,0 2.772,1.241 2.772,2.772 C 2.772,-1.241 1.531,0 0,0"
         style="fill:#fccf34;fill-opacity:1;fill-rule:nonzero;stroke:none"
         id="path3331"
         inkscape:connector-curvature="0" />
    </g>
  </g>
</svg>
