<?xml version="1.0" encoding="UTF-8" standalone="no"?>
<!-- Created with Inkscape (http://www.inkscape.org/) -->

<svg
   xmlns:dc="http://purl.org/dc/elements/1.1/"
   xmlns:cc="http://creativecommons.org/ns#"
   xmlns:rdf="http://www.w3.org/1999/02/22-rdf-syntax-ns#"
   xmlns:svg="http://www.w3.org/2000/svg"
   xmlns="http://www.w3.org/2000/svg"
   xmlns:sodipodi="http://sodipodi.sourceforge.net/DTD/sodipodi-0.dtd"
   xmlns:inkscape="http://www.inkscape.org/namespaces/inkscape"
   width="276.02249"
   height="37.811249"
   id="svg4061"
   version="1.1"
   inkscape:version="0.48.3.1 r9886"
   sodipodi:docname="New document 6">
  <defs
     id="defs4063" />
  <sodipodi:namedview
     id="base"
     pagecolor="#ffffff"
     bordercolor="#666666"
     borderopacity="1.0"
     inkscape:pageopacity="0.0"
     inkscape:pageshadow="2"
     inkscape:zoom="0.35"
     inkscape:cx="138.01125"
     inkscape:cy="18.905627"
     inkscape:document-units="px"
     inkscape:current-layer="layer1"
     showgrid="false"
     fit-margin-top="0"
     fit-margin-left="0"
     fit-margin-right="0"
     fit-margin-bottom="0"
     inkscape:window-width="451"
     inkscape:window-height="398"
     inkscape:window-x="50"
     inkscape:window-y="50"
     inkscape:window-maximized="0" />
  <metadata
     id="metadata4066">
    <rdf:RDF>
      <cc:Work
         rdf:about="">
        <dc:format>image/svg+xml</dc:format>
        <dc:type
           rdf:resource="http://purl.org/dc/dcmitype/StillImage" />
        <dc:title></dc:title>
      </cc:Work>
    </rdf:RDF>
  </metadata>
  <g
     inkscape:label="Layer 1"
     inkscape:groupmode="layer"
     id="layer1"
     transform="translate(-236.98875,-513.45656)">
    <path
       inkscape:connector-curvature="0"
       d="m 308.55125,513.45656 -71.5625,0 0,37.81125 71.5625,0 0,-37.81125 z"
       style="fill:#231f20;fill-opacity:1;fill-rule:nonzero;stroke:none"
       id="path3015" />
    <g
       id="g3025"
       transform="matrix(1.25,0,0,-1.25,272.4575,528.89768)">
      <path
         d="m 0,0 c -1.531,0 -2.772,-1.24 -2.772,-2.772 0,-1.53 1.241,-2.771 2.772,-2.771 1.531,0 2.773,1.241 2.773,2.771 C 2.773,-1.24 1.531,0 0,0"
         style="fill:#fccf34;fill-opacity:1;fill-rule:nonzero;stroke:none"
         id="path3027"
         inkscape:connector-curvature="0" />
    </g>
    <g
       id="g3029"
       transform="matrix(1.25,0,0,-1.25,254.73125,528.89768)">
      <path
         d="m 0,0 c -1.53,0 -2.771,-1.24 -2.771,-2.772 0,-1.53 1.241,-2.771 2.771,-2.771 1.533,0 2.773,1.241 2.773,2.771 C 2.773,-1.24 1.533,0 0,0"
         style="fill:#fccf34;fill-opacity:1;fill-rule:nonzero;stroke:none"
         id="path3031"
         inkscape:connector-curvature="0" />
    </g>
    <g
       id="g3033"
       transform="matrix(1.25,0,0,-1.25,244.2625,528.89768)">
      <path
         d="m 0,0 c -1.53,0 -2.771,-1.24 -2.771,-2.772 0,-1.53 1.241,-2.771 2.771,-2.771 1.533,0 2.773,1.241 2.773,2.771 C 2.773,-1.24 1.533,0 0,0"
         style="fill:#fccf34;fill-opacity:1;fill-rule:nonzero;stroke:none"
         id="path3035"
         inkscape:connector-curvature="0" />
    </g>
    <g
       id="g3037"
       transform="matrix(1.25,0,0,-1.25,268.16875,522.00406)">
      <path
         d="m 0,0 c -1.53,0 -2.771,-1.242 -2.771,-2.772 0,-1.531 1.241,-2.772 2.771,-2.772 1.533,0 2.773,1.241 2.773,2.772 C 2.773,-1.242 1.533,0 0,0"
         style="fill:#fccf34;fill-opacity:1;fill-rule:nonzero;stroke:none"
         id="path3039"
         inkscape:connector-curvature="0" />
    </g>
    <g
       id="g3041"
       transform="matrix(1.25,0,0,-1.25,268.16875,535.78906)">
      <path
         d="m 0,0 c -1.53,0 -2.771,-1.241 -2.771,-2.772 0,-1.531 1.241,-2.772 2.771,-2.772 1.533,0 2.773,1.241 2.773,2.772 C 2.773,-1.241 1.533,0 0,0"
         style="fill:#fccf34;fill-opacity:1;fill-rule:nonzero;stroke:none"
         id="path3043"
         inkscape:connector-curvature="0" />
    </g>
    <g
       id="g3045"
       transform="matrix(1.25,0,0,-1.25,263.8825,515.11281)">
      <path
         d="m 0,0 c -1.531,0 -2.772,-1.241 -2.772,-2.772 0,-1.53 1.241,-2.772 2.772,-2.772 1.531,0 2.772,1.242 2.772,2.772 C 2.772,-1.241 1.531,0 0,0"
         style="fill:#fccf34;fill-opacity:1;fill-rule:nonzero;stroke:none"
         id="path3047"
         inkscape:connector-curvature="0" />
    </g>
    <g
       id="g3049"
       transform="matrix(1.25,0,0,-1.25,263.8825,542.68156)">
      <path
         d="m 0,0 c -1.531,0 -2.772,-1.241 -2.772,-2.772 0,-1.531 1.241,-2.771 2.772,-2.771 1.531,0 2.772,1.24 2.772,2.771 C 2.772,-1.241 1.531,0 0,0"
         style="fill:#fccf34;fill-opacity:1;fill-rule:nonzero;stroke:none"
         id="path3051"
         inkscape:connector-curvature="0" />
    </g>
    <path
       d="m 410.95125,513.45656 -71.5625,0 0,37.81125 71.5625,0 0,-37.81125 z"
       style="fill:#231f20;fill-opacity:1;fill-rule:nonzero;stroke:none"
       id="path3099"
       inkscape:connector-curvature="0" />
    <g
       id="g3101"
       transform="matrix(1.25,0,0,-1.25,383.76375,528.89768)">
      <path
         d="m 0,0 c -1.531,0 -2.772,-1.24 -2.772,-2.772 0,-1.53 1.241,-2.771 2.772,-2.771 1.531,0 2.772,1.241 2.772,2.771 C 2.772,-1.24 1.531,0 0,0"
         style="fill:#fccf34;fill-opacity:1;fill-rule:nonzero;stroke:none"
         id="path3103"
         inkscape:connector-curvature="0" />
    </g>
    <g
       id="g3105"
       transform="matrix(1.25,0,0,-1.25,366.0375,528.89768)">
      <path
         d="m 0,0 c -1.53,0 -2.771,-1.24 -2.771,-2.772 0,-1.53 1.241,-2.771 2.771,-2.771 1.533,0 2.773,1.241 2.773,2.771 C 2.773,-1.24 1.533,0 0,0"
         style="fill:#fccf34;fill-opacity:1;fill-rule:nonzero;stroke:none"
         id="path3107"
         inkscape:connector-curvature="0" />
    </g>
    <g
       id="g3109"
       transform="matrix(1.25,0,0,-1.25,355.56875,528.89768)">
      <path
         d="m 0,0 c -1.53,0 -2.771,-1.24 -2.771,-2.772 0,-1.53 1.241,-2.771 2.771,-2.771 1.533,0 2.773,1.241 2.773,2.771 C 2.773,-1.24 1.533,0 0,0"
         style="fill:#fccf34;fill-opacity:1;fill-rule:nonzero;stroke:none"
         id="path3111"
         inkscape:connector-curvature="0" />
    </g>
    <g
       id="g3113"
       transform="matrix(1.25,0,0,-1.25,345.1,528.89768)">
      <path
         d="m 0,0 c -1.53,0 -2.771,-1.24 -2.771,-2.772 0,-1.53 1.241,-2.771 2.771,-2.771 1.533,0 2.773,1.241 2.773,2.771 C 2.773,-1.24 1.533,0 0,0"
         style="fill:#fccf34;fill-opacity:1;fill-rule:nonzero;stroke:none"
         id="path3115"
         inkscape:connector-curvature="0" />
    </g>
    <g
       id="g3117"
       transform="matrix(1.25,0,0,-1.25,379.475,522.00406)">
      <path
         d="m 0,0 c -1.53,0 -2.771,-1.242 -2.771,-2.772 0,-1.531 1.241,-2.772 2.771,-2.772 1.533,0 2.773,1.241 2.773,2.772 C 2.773,-1.242 1.533,0 0,0"
         style="fill:#fccf34;fill-opacity:1;fill-rule:nonzero;stroke:none"
         id="path3119"
         inkscape:connector-curvature="0" />
    </g>
    <g
       id="g3121"
       transform="matrix(1.25,0,0,-1.25,379.475,535.78906)">
      <path
         d="m 0,0 c -1.53,0 -2.771,-1.241 -2.771,-2.772 0,-1.531 1.241,-2.772 2.771,-2.772 1.533,0 2.773,1.241 2.773,2.772 C 2.773,-1.241 1.533,0 0,0"
         style="fill:#fccf34;fill-opacity:1;fill-rule:nonzero;stroke:none"
         id="path3123"
         inkscape:connector-curvature="0" />
    </g>
    <g
       id="g3125"
       transform="matrix(1.25,0,0,-1.25,375.18875,515.11281)">
      <path
         d="m 0,0 c -1.531,0 -2.772,-1.241 -2.772,-2.772 0,-1.53 1.241,-2.772 2.772,-2.772 1.531,0 2.772,1.242 2.772,2.772 C 2.772,-1.241 1.531,0 0,0"
         style="fill:#fccf34;fill-opacity:1;fill-rule:nonzero;stroke:none"
         id="path3127"
         inkscape:connector-curvature="0" />
    </g>
    <g
       id="g3129"
       transform="matrix(1.25,0,0,-1.25,375.18875,542.68156)">
      <path
         d="m 0,0 c -1.531,0 -2.772,-1.241 -2.772,-2.772 0,-1.531 1.241,-2.771 2.772,-2.771 1.531,0 2.772,1.24 2.772,2.771 C 2.772,-1.241 1.531,0 0,0"
         style="fill:#fccf34;fill-opacity:1;fill-rule:nonzero;stroke:none"
         id="path3131"
         inkscape:connector-curvature="0" />
    </g>
    <path
       d="m 513.01125,513.45656 -71.5625,0 0,37.81125 71.5625,0 0,-37.81125 z"
       style="fill:#231f20;fill-opacity:1;fill-rule:nonzero;stroke:none"
       id="path3229"
       inkscape:connector-curvature="0" />
    <g
       id="g3231"
       transform="matrix(1.25,0,0,-1.25,508.2375,528.89768)">
      <path
         d="m 0,0 c -1.53,0 -2.772,-1.24 -2.772,-2.772 0,-1.53 1.242,-2.771 2.772,-2.771 1.53,0 2.772,1.241 2.772,2.771 C 2.772,-1.24 1.53,0 0,0"
         style="fill:#fccf34;fill-opacity:1;fill-rule:nonzero;stroke:none"
         id="path3233"
         inkscape:connector-curvature="0" />
    </g>
    <g
       id="g3235"
       transform="matrix(1.25,0,0,-1.25,490.51125,528.89768)">
      <path
         d="m 0,0 c -1.53,0 -2.771,-1.24 -2.771,-2.772 0,-1.53 1.241,-2.771 2.771,-2.771 1.532,0 2.773,1.241 2.773,2.771 C 2.773,-1.24 1.532,0 0,0"
         style="fill:#fccf34;fill-opacity:1;fill-rule:nonzero;stroke:none"
         id="path3237"
         inkscape:connector-curvature="0" />
    </g>
    <g
       id="g3239"
       transform="matrix(1.25,0,0,-1.25,480.0425,528.89768)">
      <path
         d="m 0,0 c -1.53,0 -2.771,-1.24 -2.771,-2.772 0,-1.53 1.241,-2.771 2.771,-2.771 1.532,0 2.773,1.241 2.773,2.771 C 2.773,-1.24 1.532,0 0,0"
         style="fill:#fccf34;fill-opacity:1;fill-rule:nonzero;stroke:none"
         id="path3241"
         inkscape:connector-curvature="0" />
    </g>
    <g
       id="g3243"
       transform="matrix(1.25,0,0,-1.25,469.57375,528.89768)">
      <path
         d="m 0,0 c -1.53,0 -2.771,-1.24 -2.771,-2.772 0,-1.53 1.241,-2.771 2.771,-2.771 1.532,0 2.773,1.241 2.773,2.771 C 2.773,-1.24 1.532,0 0,0"
         style="fill:#fccf34;fill-opacity:1;fill-rule:nonzero;stroke:none"
         id="path3245"
         inkscape:connector-curvature="0" />
    </g>
    <g
       id="g3247"
       transform="matrix(1.25,0,0,-1.25,459.105,528.89768)">
      <path
         d="m 0,0 c -1.53,0 -2.771,-1.24 -2.771,-2.772 0,-1.53 1.241,-2.771 2.771,-2.771 1.532,0 2.773,1.241 2.773,2.771 C 2.773,-1.24 1.532,0 0,0"
         style="fill:#fccf34;fill-opacity:1;fill-rule:nonzero;stroke:none"
         id="path3249"
         inkscape:connector-curvature="0" />
    </g>
    <g
       id="g3251"
       transform="matrix(1.25,0,0,-1.25,448.63625,528.89768)">
      <path
         d="m 0,0 c -1.53,0 -2.771,-1.24 -2.771,-2.772 0,-1.53 1.241,-2.771 2.771,-2.771 1.532,0 2.773,1.241 2.773,2.771 C 2.773,-1.24 1.532,0 0,0"
         style="fill:#fccf34;fill-opacity:1;fill-rule:nonzero;stroke:none"
         id="path3253"
         inkscape:connector-curvature="0" />
    </g>
    <g
       id="g3255"
       transform="matrix(1.25,0,0,-1.25,503.94875,522.00406)">
      <path
         d="m 0,0 c -1.53,0 -2.771,-1.242 -2.771,-2.772 0,-1.531 1.241,-2.772 2.771,-2.772 1.532,0 2.773,1.241 2.773,2.772 C 2.773,-1.242 1.532,0 0,0"
         style="fill:#fccf34;fill-opacity:1;fill-rule:nonzero;stroke:none"
         id="path3257"
         inkscape:connector-curvature="0" />
    </g>
    <g
       id="g3259"
       transform="matrix(1.25,0,0,-1.25,503.94875,535.78906)">
      <path
         d="m 0,0 c -1.53,0 -2.771,-1.241 -2.771,-2.772 0,-1.531 1.241,-2.772 2.771,-2.772 1.532,0 2.773,1.241 2.773,2.772 C 2.773,-1.241 1.532,0 0,0"
         style="fill:#fccf34;fill-opacity:1;fill-rule:nonzero;stroke:none"
         id="path3261"
         inkscape:connector-curvature="0" />
    </g>
    <g
       id="g3263"
       transform="matrix(1.25,0,0,-1.25,499.6625,515.11281)">
      <path
         d="m 0,0 c -1.531,0 -2.772,-1.241 -2.772,-2.772 0,-1.53 1.241,-2.772 2.772,-2.772 1.531,0 2.771,1.242 2.771,2.772 C 2.771,-1.241 1.531,0 0,0"
         style="fill:#fccf34;fill-opacity:1;fill-rule:nonzero;stroke:none"
         id="path3265"
         inkscape:connector-curvature="0" />
    </g>
    <g
       id="g3267"
       transform="matrix(1.25,0,0,-1.25,499.6625,542.68156)">
      <path
         d="m 0,0 c -1.531,0 -2.772,-1.241 -2.772,-2.772 0,-1.531 1.241,-2.771 2.772,-2.771 1.531,0 2.771,1.24 2.771,2.771 C 2.771,-1.241 1.531,0 0,0"
         style="fill:#fccf34;fill-opacity:1;fill-rule:nonzero;stroke:none"
         id="path3269"
         inkscape:connector-curvature="0" />
    </g>
  </g>
</svg>
