<?xml version="1.0" encoding="UTF-8" standalone="no"?>
<!-- Created with Inkscape (http://www.inkscape.org/) -->

<svg
   xmlns:dc="http://purl.org/dc/elements/1.1/"
   xmlns:cc="http://creativecommons.org/ns#"
   xmlns:rdf="http://www.w3.org/1999/02/22-rdf-syntax-ns#"
   xmlns:svg="http://www.w3.org/2000/svg"
   xmlns="http://www.w3.org/2000/svg"
   xmlns:sodipodi="http://sodipodi.sourceforge.net/DTD/sodipodi-0.dtd"
   xmlns:inkscape="http://www.inkscape.org/namespaces/inkscape"
   width="71.5625"
   height="37.8125"
   id="svg4429"
   version="1.1"
   inkscape:version="0.48.3.1 r9886"
   sodipodi:docname="New document 10">
  <defs
     id="defs4431" />
  <sodipodi:namedview
     id="base"
     pagecolor="#ffffff"
     bordercolor="#666666"
     borderopacity="1.0"
     inkscape:pageopacity="0.0"
     inkscape:pageshadow="2"
     inkscape:zoom="0.35"
     inkscape:cx="35.78125"
     inkscape:cy="18.906247"
     inkscape:document-units="px"
     inkscape:current-layer="layer1"
     showgrid="false"
     fit-margin-top="0"
     fit-margin-left="0"
     fit-margin-right="0"
     fit-margin-bottom="0"
     inkscape:window-width="451"
     inkscape:window-height="398"
     inkscape:window-x="150"
     inkscape:window-y="150"
     inkscape:window-maximized="0" />
  <metadata
     id="metadata4434">
    <rdf:RDF>
      <cc:Work
         rdf:about="">
        <dc:format>image/svg+xml</dc:format>
        <dc:type
           rdf:resource="http://purl.org/dc/dcmitype/StillImage" />
        <dc:title></dc:title>
      </cc:Work>
    </rdf:RDF>
  </metadata>
  <g
     inkscape:label="Layer 1"
     inkscape:groupmode="layer"
     id="layer1"
     transform="translate(-339.21875,-513.45593)">
    <path
       d="m 410.78125,513.45593 -71.5625,0 0,37.8125 71.5625,0 0,-37.8125 z"
       style="fill:#231f20;fill-opacity:1;fill-rule:nonzero;stroke:none"
       id="path3133"
       inkscape:connector-curvature="0" />
    <g
       id="g3135"
       transform="matrix(1.25,0,0,-1.25,385.46875,528.89706)">
      <path
         d="m 0,0 c -1.531,0 -2.772,-1.242 -2.772,-2.772 0,-1.531 1.241,-2.772 2.772,-2.772 1.531,0 2.772,1.241 2.772,2.772 C 2.772,-1.242 1.531,0 0,0"
         style="fill:#fccf34;fill-opacity:1;fill-rule:nonzero;stroke:none"
         id="path3137"
         inkscape:connector-curvature="0" />
    </g>
    <g
       id="g3139"
       transform="matrix(1.25,0,0,-1.25,375,528.89706)">
      <path
         d="m 0,0 c -1.531,0 -2.772,-1.242 -2.772,-2.772 0,-1.531 1.241,-2.772 2.772,-2.772 1.531,0 2.772,1.241 2.772,2.772 C 2.772,-1.242 1.531,0 0,0"
         style="fill:#fccf34;fill-opacity:1;fill-rule:nonzero;stroke:none"
         id="path3141"
         inkscape:connector-curvature="0" />
    </g>
    <g
       id="g3143"
       transform="matrix(1.25,0,0,-1.25,364.53125,528.89706)">
      <path
         d="m 0,0 c -1.531,0 -2.772,-1.242 -2.772,-2.772 0,-1.531 1.241,-2.772 2.772,-2.772 1.531,0 2.772,1.241 2.772,2.772 C 2.772,-1.242 1.531,0 0,0"
         style="fill:#fccf34;fill-opacity:1;fill-rule:nonzero;stroke:none"
         id="path3145"
         inkscape:connector-curvature="0" />
    </g>
    <g
       id="g3147"
       transform="matrix(1.25,0,0,-1.25,405.46875,528.89706)">
      <path
         d="m 0,0 c -1.531,0 -2.772,-1.242 -2.772,-2.772 0,-1.531 1.241,-2.772 2.772,-2.772 1.531,0 2.772,1.241 2.772,2.772 C 2.772,-1.242 1.531,0 0,0"
         style="fill:#fccf34;fill-opacity:1;fill-rule:nonzero;stroke:none"
         id="path3149"
         inkscape:connector-curvature="0" />
    </g>
    <g
       id="g3151"
       transform="matrix(1.25,0,0,-1.25,401.18,522.00581)">
      <path
         d="m 0,0 c -1.53,0 -2.771,-1.241 -2.771,-2.771 0,-1.531 1.241,-2.772 2.771,-2.772 1.533,0 2.773,1.241 2.773,2.772 C 2.773,-1.241 1.533,0 0,0"
         style="fill:#fccf34;fill-opacity:1;fill-rule:nonzero;stroke:none"
         id="path3153"
         inkscape:connector-curvature="0" />
    </g>
    <g
       id="g3155"
       transform="matrix(1.25,0,0,-1.25,401.18,535.78968)">
      <path
         d="m 0,0 c -1.53,0 -2.771,-1.241 -2.771,-2.772 0,-1.531 1.241,-2.772 2.771,-2.772 1.532,0 2.773,1.241 2.773,2.772 C 2.773,-1.241 1.532,0 0,0"
         style="fill:#fccf34;fill-opacity:1;fill-rule:nonzero;stroke:none"
         id="path3157"
         inkscape:connector-curvature="0" />
    </g>
    <g
       id="g3159"
       transform="matrix(1.25,0,0,-1.25,396.89375,515.11343)">
      <path
         d="m 0,0 c -1.531,0 -2.772,-1.24 -2.772,-2.772 0,-1.531 1.241,-2.771 2.772,-2.771 1.531,0 2.772,1.24 2.772,2.771 C 2.772,-1.24 1.531,0 0,0"
         style="fill:#fccf34;fill-opacity:1;fill-rule:nonzero;stroke:none"
         id="path3161"
         inkscape:connector-curvature="0" />
    </g>
    <g
       id="g3163"
       transform="matrix(1.25,0,0,-1.25,396.89375,542.68206)">
      <path
         d="m 0,0 c -1.531,0 -2.772,-1.241 -2.772,-2.771 0,-1.531 1.241,-2.773 2.772,-2.773 1.531,0 2.772,1.242 2.772,2.773 C 2.772,-1.241 1.531,0 0,0"
         style="fill:#fccf34;fill-opacity:1;fill-rule:nonzero;stroke:none"
         id="path3165"
         inkscape:connector-curvature="0" />
    </g>
    <g
       id="g3167"
       transform="matrix(1.25,0,0,-1.25,344.53125,528.89706)">
      <path
         d="m 0,0 c 1.531,0 2.772,-1.242 2.772,-2.772 0,-1.531 -1.241,-2.772 -2.772,-2.772 -1.531,0 -2.772,1.241 -2.772,2.772 C -2.772,-1.242 -1.531,0 0,0"
         style="fill:#fccf34;fill-opacity:1;fill-rule:nonzero;stroke:none"
         id="path3169"
         inkscape:connector-curvature="0" />
    </g>
    <g
       id="g3171"
       transform="matrix(1.25,0,0,-1.25,348.82,522.00581)">
      <path
         d="M 0,0 C 1.53,0 2.771,-1.241 2.771,-2.771 2.771,-4.302 1.53,-5.543 0,-5.543 c -1.533,0 -2.773,1.241 -2.773,2.772 C -2.773,-1.241 -1.533,0 0,0"
         style="fill:#fccf34;fill-opacity:1;fill-rule:nonzero;stroke:none"
         id="path3173"
         inkscape:connector-curvature="0" />
    </g>
    <g
       id="g3175"
       transform="matrix(1.25,0,0,-1.25,348.82,535.78968)">
      <path
         d="M 0,0 C 1.53,0 2.771,-1.241 2.771,-2.772 2.771,-4.303 1.53,-5.544 0,-5.544 c -1.532,0 -2.773,1.241 -2.773,2.772 C -2.773,-1.241 -1.532,0 0,0"
         style="fill:#fccf34;fill-opacity:1;fill-rule:nonzero;stroke:none"
         id="path3177"
         inkscape:connector-curvature="0" />
    </g>
    <g
       id="g3179"
       transform="matrix(1.25,0,0,-1.25,353.10625,515.11343)">
      <path
         d="m 0,0 c 1.531,0 2.772,-1.24 2.772,-2.772 0,-1.531 -1.241,-2.771 -2.772,-2.771 -1.531,0 -2.772,1.24 -2.772,2.771 C -2.772,-1.24 -1.531,0 0,0"
         style="fill:#fccf34;fill-opacity:1;fill-rule:nonzero;stroke:none"
         id="path3181"
         inkscape:connector-curvature="0" />
    </g>
    <g
       id="g3183"
       transform="matrix(1.25,0,0,-1.25,353.10625,542.68206)">
      <path
         d="m 0,0 c 1.531,0 2.772,-1.241 2.772,-2.771 0,-1.531 -1.241,-2.773 -2.772,-2.773 -1.531,0 -2.772,1.242 -2.772,2.773 C -2.772,-1.241 -1.531,0 0,0"
         style="fill:#fccf34;fill-opacity:1;fill-rule:nonzero;stroke:none"
         id="path3185"
         inkscape:connector-curvature="0" />
    </g>
  </g>
</svg>
