<?xml version="1.0" encoding="UTF-8" standalone="no"?>
<!-- Created with Inkscape (http://www.inkscape.org/) -->

<svg
   xmlns:dc="http://purl.org/dc/elements/1.1/"
   xmlns:cc="http://creativecommons.org/ns#"
   xmlns:rdf="http://www.w3.org/1999/02/22-rdf-syntax-ns#"
   xmlns:svg="http://www.w3.org/2000/svg"
   xmlns="http://www.w3.org/2000/svg"
   xmlns:sodipodi="http://sodipodi.sourceforge.net/DTD/sodipodi-0.dtd"
   xmlns:inkscape="http://www.inkscape.org/namespaces/inkscape"
   width="90.625"
   height="90.625"
   id="svg4887"
   version="1.1"
   inkscape:version="0.48.3.1 r9886"
   sodipodi:docname="New document 4">
  <defs
     id="defs4889">
    <clipPath
       clipPathUnits="userSpaceOnUse"
       id="clipPath3031">
      <path
         inkscape:connector-curvature="0"
         d="m 27,68.027 513.674,0 0,669.974 -513.674,0 0,-669.974 z"
         id="path3033" />
    </clipPath>
  </defs>
  <sodipodi:namedview
     id="base"
     pagecolor="#ffffff"
     bordercolor="#666666"
     borderopacity="1.0"
     inkscape:pageopacity="0.0"
     inkscape:pageshadow="2"
     inkscape:zoom="0.35"
     inkscape:cx="45.3125"
     inkscape:cy="45.32406"
     inkscape:document-units="px"
     inkscape:current-layer="layer1"
     showgrid="false"
     fit-margin-top="0"
     fit-margin-left="0"
     fit-margin-right="0"
     fit-margin-bottom="0"
     inkscape:window-width="451"
     inkscape:window-height="415"
     inkscape:window-x="50"
     inkscape:window-y="50"
     inkscape:window-maximized="0" />
  <metadata
     id="metadata4892">
    <rdf:RDF>
      <cc:Work
         rdf:about="">
        <dc:format>image/svg+xml</dc:format>
        <dc:type
           rdf:resource="http://purl.org/dc/dcmitype/StillImage" />
        <dc:title></dc:title>
      </cc:Work>
    </rdf:RDF>
  </metadata>
  <g
     inkscape:label="Layer 1"
     inkscape:groupmode="layer"
     id="layer1"
     transform="translate(-329.6875,-487.06124)">
    <g
       id="g3015"
       transform="matrix(1.25,0,0,-1.25,330,513.74093)">
      <path
         inkscape:connector-curvature="0"
         d="m 0,0 0,-29.83 21.103,-21.067 29.802,0 L 72,-29.83 72,0 50.905,21.103 21.103,21.103 0,0 z"
         style="fill:#ffffff;fill-opacity:1;fill-rule:nonzero;stroke:none"
         id="path3017" />
    </g>
    <g
       id="g3019"
       transform="matrix(1.25,0,0,-1.25,330,513.74093)">
      <path
         inkscape:connector-curvature="0"
         d="m 0,0 0,-29.83 21.103,-21.067 29.802,0 L 72,-29.83 72,0 50.905,21.103 21.103,21.103 0,0 z"
         style="fill:none;stroke:#231f20;stroke-width:0.5;stroke-linecap:butt;stroke-linejoin:miter;stroke-miterlimit:4;stroke-opacity:1;stroke-dasharray:none"
         id="path3021" />
    </g>
    <g
       id="g3023"
       transform="matrix(1.25,0,0,-1.25,332.24975,514.6503)">
      <path
         inkscape:connector-curvature="0"
         d="m 0,0 20.038,20.031 28.295,0 L 68.399,0 l 0,-28.34 -20.066,-20.03 -28.295,0 L 0,-28.34 0,0 z"
         style="fill:#bf2519;fill-opacity:1;fill-rule:evenodd;stroke:none"
         id="path3025" />
    </g>
    <g
       transform="matrix(1.25,0,0,-1.25,178.7115,1358.9427)"
       id="g3027">
      <g
         id="g3029"
         clip-path="url(#clipPath3031)">
        <g
           id="g3035"
           transform="translate(183.578,666.5213)">
          <path
             inkscape:connector-curvature="0"
             d="m 0,0 c 0,-2.188 -1.095,-3.451 -3.115,-3.451 l -3.535,0 0,6.818 3.535,0 C -1.263,3.367 0,2.021 0,0 m 3.366,0 c 0,4.041 -2.524,6.734 -6.313,6.734 l -7.152,0 0,-23.987 3.449,0 0,10.521 3.703,0 c 4.04,0 6.313,2.357 6.313,6.732 m -20.538,-5.217 c 0,-2.778 -0.168,-4.209 -0.756,-6.144 -0.589,-2.021 -1.515,-2.947 -2.947,-2.947 -1.514,0 -2.44,0.926 -3.029,2.947 -0.505,1.935 -0.757,3.449 -0.757,6.059 0,2.694 0.167,4.293 0.757,6.144 0.589,2.02 1.515,2.947 3.029,2.947 1.432,0 2.358,-0.927 2.947,-3.031 0.505,-1.767 0.756,-3.282 0.756,-5.975 m 3.284,0 c 0,3.618 -0.337,5.891 -1.348,8.248 -1.178,2.945 -2.862,4.123 -5.639,4.123 -2.778,0 -4.459,-1.178 -5.723,-4.04 -1.009,-2.272 -1.346,-4.713 -1.346,-8.331 0,-3.704 0.337,-5.976 1.346,-8.333 1.179,-2.862 2.862,-4.138 5.723,-4.138 2.694,0 4.461,1.276 5.639,4.138 1.011,2.273 1.348,4.629 1.348,8.333 m -15.909,8.752 0,3.199 -12.204,0 0,-3.199 4.377,0 0,-20.788 3.45,0 0,20.788 4.377,0 z m -13.384,-14.223 c 0,3.451 -2.02,6.059 -6.648,8.753 -1.768,1.009 -2.274,1.683 -2.274,2.861 0,1.599 1.263,2.777 2.862,2.777 1.515,0 2.693,-1.094 2.778,-2.777 l 3.282,0 c -0.084,3.619 -2.692,6.228 -6.06,6.228 -3.451,0 -6.143,-2.777 -6.143,-6.228 0,-2.104 1.009,-3.955 2.945,-5.301 4.882,-3.283 3.535,-2.357 4.039,-2.862 1.432,-1.094 1.937,-2.104 1.937,-3.451 0,-1.936 -1.515,-3.62 -3.366,-3.62 -2.357,0 -3.368,2.105 -3.368,4.125 l -3.366,0 c 0,-3.956 2.526,-7.505 6.734,-7.505 3.703,0 6.648,3.128 6.648,7"
             style="fill:#ffffff;fill-opacity:1;fill-rule:evenodd;stroke:none"
             id="path3037" />
        </g>
      </g>
    </g>
  </g>
</svg>
