<?xml version="1.0" encoding="UTF-8" standalone="no"?>
<!-- Created with Inkscape (http://www.inkscape.org/) -->

<svg
   xmlns:dc="http://purl.org/dc/elements/1.1/"
   xmlns:cc="http://creativecommons.org/ns#"
   xmlns:rdf="http://www.w3.org/1999/02/22-rdf-syntax-ns#"
   xmlns:svg="http://www.w3.org/2000/svg"
   xmlns="http://www.w3.org/2000/svg"
   xmlns:sodipodi="http://sodipodi.sourceforge.net/DTD/sodipodi-0.dtd"
   xmlns:inkscape="http://www.inkscape.org/namespaces/inkscape"
   width="108.61536"
   height="95.976562"
   id="svg5010"
   version="1.1"
   inkscape:version="0.48.3.1 r9886"
   sodipodi:docname="New document 6">
  <defs
     id="defs5012" />
  <sodipodi:namedview
     id="base"
     pagecolor="#ffffff"
     bordercolor="#666666"
     borderopacity="1.0"
     inkscape:pageopacity="0.0"
     inkscape:pageshadow="2"
     inkscape:zoom="0.35"
     inkscape:cx="54.295292"
     inkscape:cy="47.99969"
     inkscape:document-units="px"
     inkscape:current-layer="layer1"
     showgrid="false"
     fit-margin-top="0"
     fit-margin-left="0"
     fit-margin-right="0"
     fit-margin-bottom="0"
     inkscape:window-width="451"
     inkscape:window-height="415"
     inkscape:window-x="100"
     inkscape:window-y="100"
     inkscape:window-maximized="0" />
  <metadata
     id="metadata5015">
    <rdf:RDF>
      <cc:Work
         rdf:about="">
        <dc:format>image/svg+xml</dc:format>
        <dc:type
           rdf:resource="http://purl.org/dc/dcmitype/StillImage" />
        <dc:title></dc:title>
      </cc:Work>
    </rdf:RDF>
  </metadata>
  <g
     inkscape:label="Layer 1"
     inkscape:groupmode="layer"
     id="layer1"
     transform="translate(-320.70471,-484.38531)">
    <g
       id="g3051"
       transform="matrix(1.25,0,0,-1.25,380.56245,577.04156)">
      <path
         d="m 0,0 38.1,66.157 c 0.321,0.56 0.547,1.113 0.614,1.764 0.097,0.906 0,1.86 -0.328,2.708 -0.763,1.957 -2.777,3.251 -4.858,3.251 l -75.951,-0.039 c -1.392,0 -2.713,-0.542 -3.695,-1.527 -1.078,-1.078 -1.616,-2.554 -1.521,-4.074 0.052,-0.783 0.319,-1.518 0.71,-2.197 L -8.818,0.037 c 0.889,-1.541 2.677,-2.43 4.428,-2.43 0.872,0 1.736,0.206 2.504,0.626 C -1.13,-1.35 -0.434,-0.754 0,0"
         style="fill:#ffffff;fill-opacity:1;fill-rule:nonzero;stroke:none"
         id="path3053"
         inkscape:connector-curvature="0" />
    </g>
    <g
       id="g3055"
       transform="matrix(1.25,0,0,-1.25,380.56245,577.04156)">
      <path
         d="m 0,0 38.1,66.157 c 0.321,0.56 0.547,1.113 0.614,1.764 0.097,0.906 0,1.86 -0.328,2.708 -0.763,1.957 -2.777,3.251 -4.858,3.251 l -75.951,-0.039 c -1.392,0 -2.713,-0.542 -3.695,-1.527 -1.078,-1.078 -1.616,-2.554 -1.521,-4.074 0.052,-0.783 0.319,-1.518 0.71,-2.197 L -8.818,0.037 c 0.889,-1.541 2.677,-2.43 4.428,-2.43 0.872,0 1.736,0.206 2.504,0.626 C -1.13,-1.35 -0.434,-0.754 0,0 z"
         style="fill:none;stroke:#231f20;stroke-width:0.5;stroke-linecap:butt;stroke-linejoin:miter;stroke-miterlimit:2.61299992;stroke-opacity:1;stroke-dasharray:none"
         id="path3057"
         inkscape:connector-curvature="0" />
    </g>
    <g
       id="g3059"
       transform="matrix(1.25,0,0,-1.25,378.4712,575.81656)">
      <path
         d="m 0,0 c -0.29,-0.45 -0.6,-0.736 -1.076,-1.011 -0.844,-0.485 -1.939,-0.527 -2.846,-0.195 -0.63,0.23 -1.184,0.662 -1.519,1.243 L -43.58,66.052 c -0.393,0.68 -0.525,1.458 -0.378,2.234 0.285,1.489 1.702,2.619 3.209,2.621 l 75.952,0.037 c 1.563,0 2.911,-1.09 3.207,-2.631 0.147,-0.761 0.049,-1.486 -0.338,-2.156 L 0,0 z"
         style="fill:#bf2519;fill-opacity:1;fill-rule:evenodd;stroke:none"
         id="path3061"
         inkscape:connector-curvature="0" />
    </g>
    <g
       id="g3063"
       transform="matrix(1.25,0,0,-1.25,397.6987,509.67555)">
      <path
         d="m 0,0 c 0.168,0.299 0.307,0.608 0.411,0.935 0.285,0.919 0.1,1.815 -0.444,2.61 -0.599,0.879 -1.619,1.414 -2.683,1.414 L -33.452,4.938 c -1.502,0 -2.908,-1.068 -3.196,-2.565 -0.151,-0.776 -0.061,-1.542 0.334,-2.233 l 15.348,-26.632 c 0.608,-1.053 1.594,-1.713 2.832,-1.708 0.997,0.003 2.124,0.494 2.639,1.386 L 0,0 z"
         style="fill:#ffffff;fill-opacity:1;fill-rule:evenodd;stroke:none"
         id="path3065"
         inkscape:connector-curvature="0" />
    </g>
    <g
       id="g3067"
       transform="matrix(1.25,0,0,-1.25,363.09495,510.86268)">
      <path
         d="m 0,0 -1.256,2.803 -1.216,0 1.913,-4.289 0,-3.626 1.118,0 0,3.626 1.917,4.289 -1.219,0 L 0,0 z"
         style="fill:#bf2519;fill-opacity:1;fill-rule:evenodd;stroke:none"
         id="path3069"
         inkscape:connector-curvature="0" />
    </g>
    <g
       id="g3071"
       transform="matrix(1.25,0,0,-1.25,372.72245,512.61506)">
      <path
         d="m 0,0 1.676,0 0,1.109 -1.676,0 0,1.979 2.721,0 0,1.117 -3.83,0 0,-7.915 3.957,0 0,1.106 L 0,-2.604 0,0 z"
         style="fill:#bf2519;fill-opacity:1;fill-rule:evenodd;stroke:none"
         id="path3073"
         inkscape:connector-curvature="0" />
    </g>
    <g
       id="g3075"
       transform="matrix(1.25,0,0,-1.25,379.3437,507.35868)">
      <path
         d="m 0,0 -1.108,0 0,-7.915 3.958,0 0,1.05 -2.85,0 L 0,0 z"
         style="fill:#bf2519;fill-opacity:1;fill-rule:evenodd;stroke:none"
         id="path3077"
         inkscape:connector-curvature="0" />
    </g>
    <g
       id="g3079"
       transform="matrix(1.25,0,0,-1.25,388.32995,514.76893)">
      <path
         d="m 0,0 c -0.129,-0.512 -0.576,-0.881 -1.111,-0.881 l -0.781,0 0,5.692 0.81,0 c 0.484,0 0.931,-0.327 1.062,-0.797 C 0.166,3.362 0.208,2.642 0.211,1.969 0.213,1.313 0.164,0.639 0,0 M 1.18,3.737 C 1.066,4.394 0.841,5.017 0.301,5.444 -0.09,5.753 -0.584,5.928 -1.082,5.928 l -1.918,0 0,-7.915 1.918,0 c 0.54,0.032 0.96,0.142 1.398,0.491 0.732,0.58 0.864,1.468 0.959,2.332 C 1.381,1.8 1.346,2.781 1.18,3.737"
         style="fill:#bf2519;fill-opacity:1;fill-rule:evenodd;stroke:none"
         id="path3081"
         inkscape:connector-curvature="0" />
    </g>
    <path
       d="m 367.86245,517.25193 1.3825,0 0,-9.89375 -1.3825,0 0,9.89375 z"
       style="fill:#bf2519;fill-opacity:1;fill-rule:evenodd;stroke:none"
       id="path3083"
       inkscape:connector-curvature="0" />
  </g>
</svg>
