<?xml version="1.0" encoding="UTF-8" standalone="no"?>
<!-- Created with Inkscape (http://www.inkscape.org/) -->

<svg
   xmlns:dc="http://purl.org/dc/elements/1.1/"
   xmlns:cc="http://creativecommons.org/ns#"
   xmlns:rdf="http://www.w3.org/1999/02/22-rdf-syntax-ns#"
   xmlns:svg="http://www.w3.org/2000/svg"
   xmlns="http://www.w3.org/2000/svg"
   xmlns:sodipodi="http://sodipodi.sourceforge.net/DTD/sodipodi-0.dtd"
   xmlns:inkscape="http://www.inkscape.org/namespaces/inkscape"
   width="72.617188"
   height="54.609375"
   id="svg5186"
   version="1.1"
   inkscape:version="0.48.3.1 r9886"
   sodipodi:docname="New document 8">
  <defs
     id="defs5188" />
  <sodipodi:namedview
     id="base"
     pagecolor="#ffffff"
     bordercolor="#666666"
     borderopacity="1.0"
     inkscape:pageopacity="0.0"
     inkscape:pageshadow="2"
     inkscape:zoom="0.35"
     inkscape:cx="36.304057"
     inkscape:cy="27.304685"
     inkscape:document-units="px"
     inkscape:current-layer="layer1"
     showgrid="false"
     fit-margin-top="0"
     fit-margin-left="0"
     fit-margin-right="0"
     fit-margin-bottom="0"
     inkscape:window-width="451"
     inkscape:window-height="415"
     inkscape:window-x="150"
     inkscape:window-y="150"
     inkscape:window-maximized="0" />
  <metadata
     id="metadata5191">
    <rdf:RDF>
      <cc:Work
         rdf:about="">
        <dc:format>image/svg+xml</dc:format>
        <dc:type
           rdf:resource="http://purl.org/dc/dcmitype/StillImage" />
        <dc:title></dc:title>
      </cc:Work>
    </rdf:RDF>
  </metadata>
  <g
     inkscape:label="Layer 1"
     inkscape:groupmode="layer"
     id="layer1"
     transform="translate(-338.69594,-505.05749)">
    <g
       id="g3245"
       transform="matrix(1.25,0,0,-1.25,411.00063,554.86218)">
      <path
         d="m 0,0 c 0,-1.988 -1.613,-3.6 -3.601,-3.6 l -50.401,0 c -1.988,0 -3.599,1.612 -3.599,3.6 l 0,36 c 0,1.988 1.611,3.6 3.599,3.6 l 50.401,0 C -1.613,39.6 0,37.988 0,36 L 0,0 z"
         style="fill:#ffffff;fill-opacity:1;fill-rule:nonzero;stroke:none"
         id="path3247"
         inkscape:connector-curvature="0" />
    </g>
    <g
       id="g3249"
       transform="matrix(1.25,0,0,-1.25,411.00063,554.86218)">
      <path
         d="m 0,0 c 0,-1.988 -1.613,-3.6 -3.601,-3.6 l -50.401,0 c -1.988,0 -3.599,1.612 -3.599,3.6 l 0,36 c 0,1.988 1.611,3.6 3.599,3.6 l 50.401,0 C -1.613,39.6 0,37.988 0,36 L 0,0 z"
         style="fill:none;stroke:#231f20;stroke-width:0.5;stroke-linecap:butt;stroke-linejoin:miter;stroke-miterlimit:4;stroke-opacity:1;stroke-dasharray:none"
         id="path3251"
         inkscape:connector-curvature="0" />
    </g>
    <g
       id="g3253"
       transform="matrix(1.25,0,0,-1.25,408.00063,554.86218)">
      <path
         d="m 0,0 c 0,-0.661 -0.539,-1.199 -1.201,-1.199 l -50.401,0 c -0.66,0 -1.199,0.538 -1.199,1.199 l 0,36 c 0,0.662 0.539,1.201 1.199,1.201 l 50.401,0 C -0.539,37.201 0,36.662 0,36 L 0,0 z m -1.201,38.701 -50.401,0 c -1.488,0 -2.699,-1.212 -2.699,-2.701 l 0,-36 c 0,-1.489 1.211,-2.699 2.699,-2.699 l 50.401,0 c 1.49,0 2.701,1.21 2.701,2.699 l 0,36 c 0,1.489 -1.211,2.701 -2.701,2.701"
         style="fill:#231f20;fill-opacity:1;fill-rule:nonzero;stroke:none"
         id="path3255"
         inkscape:connector-curvature="0" />
    </g>
    <g
       id="g3257"
       transform="matrix(1.25,0,0,-1.25,355.23687,544.90343)">
      <path
         d="m 0,0 0,-6.215 -1.143,0 0,6.215 -1.648,0 0,1.015 4.465,0 L 1.674,0 0,0 z"
         style="fill:#231f20;fill-opacity:1;fill-rule:nonzero;stroke:none"
         id="path3259"
         inkscape:connector-curvature="0" />
    </g>
    <g
       id="g3261"
       transform="matrix(1.25,0,0,-1.25,362.62437,545.21968)">
      <path
         d="m 0,0 c -0.178,0.101 -0.277,0.127 -0.658,0.127 l -1.371,0 0,-1.776 1.371,0 c 0.355,0 0.48,0.025 0.658,0.126 0.279,0.153 0.457,0.457 0.457,0.761 C 0.457,-0.457 0.279,-0.153 0,0 m 0.508,-5.962 -1.166,3.146 -1.371,0 0,-3.146 -1.141,0 0,7.23 2.385,0 C -0.226,1.268 0.153,1.217 0.508,1.04 1.143,0.735 1.6,-0.026 1.6,-0.762 1.6,-1.523 1.143,-2.284 0.483,-2.588 l 1.269,-3.374 -1.244,0 z"
         style="fill:#231f20;fill-opacity:1;fill-rule:nonzero;stroke:none"
         id="path3263"
         inkscape:connector-curvature="0" />
    </g>
    <g
       id="g3265"
       transform="matrix(1.25,0,0,-1.25,369.37937,546.13968)">
      <path
         d="m 0,0 -0.736,-2.03 1.447,0 L 0,0 z m 1.827,-5.226 -0.709,2.029 -2.258,0 -0.711,-2.029 -1.219,0 2.486,7.23 1.143,0 2.486,-7.23 -1.218,0 z"
         style="fill:#231f20;fill-opacity:1;fill-rule:nonzero;stroke:none"
         id="path3267"
         inkscape:connector-curvature="0" />
    </g>
    <g
       id="g3269"
       transform="matrix(1.25,0,0,-1.25,375.97687,545.06094)">
      <path
         d="m 0,0 0,-1.776 2.105,0 0,-1.167 -2.105,0 0,-3.146 -1.143,0 0,7.23 4.49,0 L 3.347,0 0,0 z"
         style="fill:#231f20;fill-opacity:1;fill-rule:nonzero;stroke:none"
         id="path3271"
         inkscape:connector-curvature="0" />
    </g>
    <g
       id="g3273"
       transform="matrix(1.25,0,0,-1.25,382.92062,545.06094)">
      <path
         d="m 0,0 0,-1.776 2.105,0 0,-1.167 -2.105,0 0,-3.146 -1.141,0 0,7.23 4.49,0 L 3.349,0 0,0 z"
         style="fill:#231f20;fill-opacity:1;fill-rule:nonzero;stroke:none"
         id="path3275"
         inkscape:connector-curvature="0" />
    </g>
    <path
       d="m 388.43813,543.63506 1.45999,0 0,9.0375 -1.45999,0 0,-9.0375 z"
       style="fill:#231f20;fill-opacity:1;fill-rule:nonzero;stroke:none"
       id="path3277"
       inkscape:connector-curvature="0" />
    <g
       id="g3279"
       transform="matrix(1.25,0,0,-1.25,395.28812,552.83093)">
      <path
         d="m 0,0 c -1.064,0 -1.75,0.406 -2.207,1.294 -0.33,0.634 -0.533,1.547 -0.533,2.461 0,1.141 0.304,2.283 0.812,2.917 0.432,0.533 1.041,0.812 1.852,0.812 1.092,0 1.775,-0.457 2.258,-1.472 L 1.117,5.556 C 0.711,6.165 0.482,6.317 -0.076,6.317 -0.66,6.317 -1.039,6.063 -1.293,5.429 -1.471,4.998 -1.572,4.364 -1.572,3.755 c 0,-0.787 0.178,-1.574 0.457,-2.03 0.254,-0.381 0.582,-0.558 1.09,-0.558 0.482,0 0.838,0.253 1.117,0.837 L 2.182,1.598 C 1.75,0.532 1.041,0 0,0"
         style="fill:#231f20;fill-opacity:1;fill-rule:nonzero;stroke:none"
         id="path3281"
         inkscape:connector-curvature="0" />
    </g>
    <g
       id="g3283"
       transform="matrix(1.25,0,0,-1.25,371.77437,513.10531)">
      <path
         d="m 0,0 0,-6.216 -1.14,0 0,6.216 -1.651,0 0,1.015 4.465,0 L 1.674,0 0,0 z"
         style="fill:#231f20;fill-opacity:1;fill-rule:nonzero;stroke:none"
         id="path3285"
         inkscape:connector-curvature="0" />
    </g>
    <g
       id="g3287"
       transform="matrix(1.25,0,0,-1.25,379.44812,513.83469)">
      <path
         d="m 0,0 c -0.228,0.38 -0.506,0.533 -0.937,0.558 -0.559,0.026 -0.914,-0.254 -1.168,-0.888 -0.178,-0.431 -0.28,-1.091 -0.28,-1.7 0,-0.761 0.153,-1.547 0.432,-2.004 0.229,-0.38 0.533,-0.558 0.99,-0.558 0.533,0 0.862,0.279 1.116,0.913 0.152,0.381 0.279,1.091 0.279,1.649 C 0.432,-1.218 0.279,-0.482 0,0 m 0.787,-4.947 c -0.406,-0.558 -0.99,-0.812 -1.75,-0.812 -1.015,0 -1.65,0.406 -2.08,1.294 -0.304,0.609 -0.508,1.573 -0.508,2.435 0,1.193 0.305,2.259 0.787,2.943 0.43,0.558 1.014,0.812 1.852,0.812 0.912,0 1.547,-0.406 2.004,-1.294 0.305,-0.634 0.482,-1.547 0.482,-2.461 0,-1.141 -0.279,-2.283 -0.787,-2.917"
         style="fill:#231f20;fill-opacity:1;fill-rule:nonzero;stroke:none"
         id="path3289"
         inkscape:connector-curvature="0" />
    </g>
    <g
       id="g3291"
       transform="matrix(1.25,0,0,-1.25,349.70187,529.76056)">
      <path
         d="m 0,0 c -0.226,0.381 -0.506,0.533 -0.937,0.558 -0.559,0.025 -0.914,-0.253 -1.168,-0.888 -0.178,-0.431 -0.279,-1.09 -0.279,-1.7 0,-0.761 0.152,-1.547 0.431,-2.004 0.229,-0.38 0.533,-0.558 0.99,-0.558 0.534,0 0.862,0.279 1.116,0.913 0.152,0.381 0.279,1.091 0.279,1.649 C 0.432,-1.218 0.28,-0.482 0,0 m 0.787,-4.947 c -0.406,-0.558 -0.988,-0.812 -1.75,-0.812 -1.015,0 -1.648,0.406 -2.08,1.294 -0.304,0.609 -0.507,1.573 -0.507,2.435 0,1.193 0.304,2.259 0.787,2.943 0.429,0.559 1.013,0.812 1.851,0.812 0.912,0 1.547,-0.406 2.004,-1.294 0.305,-0.634 0.483,-1.547 0.483,-2.461 0,-1.141 -0.28,-2.283 -0.788,-2.917"
         style="fill:#231f20;fill-opacity:1;fill-rule:nonzero;stroke:none"
         id="path3293"
         inkscape:connector-curvature="0" />
    </g>
    <g
       id="g3295"
       transform="matrix(1.25,0,0,-1.25,358.54937,536.80094)">
      <path
         d="m 0,0 -2.763,4.897 0,-4.897 -1.143,0 0,7.23 1.143,0 2.636,-4.617 0,4.617 1.143,0 L 1.016,0 0,0 z"
         style="fill:#231f20;fill-opacity:1;fill-rule:nonzero;stroke:none"
         id="path3297"
         inkscape:connector-curvature="0" />
    </g>
    <g
       id="g3299"
       transform="matrix(1.25,0,0,-1.25,365.21062,536.95906)">
      <path
         d="m 0,0 c -1.067,0 -1.75,0.406 -2.207,1.294 -0.331,0.634 -0.534,1.547 -0.534,2.461 0,1.142 0.305,2.283 0.813,2.917 0.431,0.533 1.039,0.812 1.851,0.812 1.092,0 1.776,-0.457 2.258,-1.471 L 1.117,5.556 C 0.71,6.165 0.482,6.317 -0.077,6.317 c -0.584,0 -0.963,-0.253 -1.216,-0.888 -0.178,-0.431 -0.28,-1.066 -0.28,-1.674 0,-0.787 0.178,-1.573 0.457,-2.03 0.252,-0.38 0.582,-0.558 1.09,-0.558 0.483,0 0.838,0.253 1.117,0.837 L 2.181,1.598 C 1.75,0.533 1.041,0 0,0"
         style="fill:#231f20;fill-opacity:1;fill-rule:nonzero;stroke:none"
         id="path3301"
         inkscape:connector-curvature="0" />
    </g>
    <g
       id="g3303"
       transform="matrix(1.25,0,0,-1.25,374.15312,529.76056)">
      <path
         d="m 0,0 c -0.229,0.381 -0.508,0.533 -0.94,0.558 -0.556,0.025 -0.912,-0.253 -1.166,-0.888 -0.177,-0.431 -0.279,-1.09 -0.279,-1.7 0,-0.761 0.152,-1.547 0.432,-2.004 0.228,-0.38 0.533,-0.558 0.988,-0.558 0.533,0 0.863,0.279 1.117,0.913 0.153,0.381 0.279,1.091 0.279,1.649 C 0.431,-1.218 0.279,-0.482 0,0 m 0.787,-4.947 c -0.406,-0.558 -0.99,-0.812 -1.752,-0.812 -1.014,0 -1.648,0.406 -2.08,1.294 -0.305,0.609 -0.506,1.573 -0.506,2.435 0,1.193 0.303,2.259 0.785,2.943 0.432,0.559 1.016,0.812 1.852,0.812 0.914,0 1.549,-0.406 2.006,-1.294 0.302,-0.634 0.48,-1.547 0.48,-2.461 0,-1.141 -0.279,-2.283 -0.785,-2.917"
         style="fill:#231f20;fill-opacity:1;fill-rule:nonzero;stroke:none"
         id="path3305"
         inkscape:connector-curvature="0" />
    </g>
    <g
       id="g3307"
       transform="matrix(1.25,0,0,-1.25,383.73062,536.80094)">
      <path
         d="M 0,0 0,4.186 -1.676,0 -3.35,4.186 -3.35,0 l -1.142,0 0,7.23 1.142,0 L -1.676,3.171 0,7.23 1.141,7.23 1.141,0 0,0 z"
         style="fill:#231f20;fill-opacity:1;fill-rule:nonzero;stroke:none"
         id="path3309"
         inkscape:connector-curvature="0" />
    </g>
    <path
       d="m 387.31187,527.76256 1.46,0 0,9.0375 -1.46,0 0,-9.0375 z"
       style="fill:#231f20;fill-opacity:1;fill-rule:nonzero;stroke:none"
       id="path3311"
       inkscape:connector-curvature="0" />
    <g
       id="g3313"
       transform="matrix(1.25,0,0,-1.25,395.81062,536.80094)">
      <path
         d="m 0,0 -2.764,4.897 0,-4.897 -1.142,0 0,7.23 1.142,0 2.637,-4.617 0,4.617 1.143,0 L 1.016,0 0,0 z"
         style="fill:#231f20;fill-opacity:1;fill-rule:nonzero;stroke:none"
         id="path3315"
         inkscape:connector-curvature="0" />
    </g>
    <g
       id="g3317"
       transform="matrix(1.25,0,0,-1.25,402.34438,536.95906)">
      <path
         d="m 0,0 c -1.09,0 -1.725,0.406 -2.157,1.319 -0.304,0.634 -0.482,1.522 -0.482,2.41 0,1.168 0.33,2.309 0.812,2.943 0.432,0.533 1.039,0.812 1.852,0.812 1.117,0 1.775,-0.457 2.258,-1.598 L 1.193,5.455 C 0.888,6.089 0.584,6.317 0.025,6.317 c -0.584,0 -0.963,-0.253 -1.217,-0.888 -0.178,-0.431 -0.279,-1.091 -0.279,-1.7 0,-0.761 0.127,-1.522 0.355,-1.978 0.229,-0.406 0.557,-0.584 0.989,-0.584 0.736,0 1.269,0.457 1.269,1.116 l 0,0.304 -1.32,0 0,1.142 2.461,0 0,-1.446 C 2.283,0.964 1.32,0 0,0"
         style="fill:#231f20;fill-opacity:1;fill-rule:nonzero;stroke:none"
         id="path3319"
         inkscape:connector-curvature="0" />
    </g>
  </g>
</svg>
