<?xml version="1.0" encoding="UTF-8" standalone="no"?>
<!-- Created with Inkscape (http://www.inkscape.org/) -->

<svg
   xmlns:dc="http://purl.org/dc/elements/1.1/"
   xmlns:cc="http://creativecommons.org/ns#"
   xmlns:rdf="http://www.w3.org/1999/02/22-rdf-syntax-ns#"
   xmlns:svg="http://www.w3.org/2000/svg"
   xmlns="http://www.w3.org/2000/svg"
   xmlns:sodipodi="http://sodipodi.sourceforge.net/DTD/sodipodi-0.dtd"
   xmlns:inkscape="http://www.inkscape.org/namespaces/inkscape"
   width="180.625"
   height="90.625"
   id="svg4784"
   version="1.1"
   inkscape:version="0.48.3.1 r9886"
   sodipodi:docname="New document 17">
  <defs
     id="defs4786" />
  <sodipodi:namedview
     id="base"
     pagecolor="#ffffff"
     bordercolor="#666666"
     borderopacity="1.0"
     inkscape:pageopacity="0.0"
     inkscape:pageshadow="2"
     inkscape:zoom="0.35"
     inkscape:cx="19.582897"
     inkscape:cy="-54.687503"
     inkscape:document-units="px"
     inkscape:current-layer="layer1"
     showgrid="false"
     fit-margin-top="0"
     fit-margin-left="0"
     fit-margin-right="0"
     fit-margin-bottom="0"
     inkscape:window-width="451"
     inkscape:window-height="415"
     inkscape:window-x="175"
     inkscape:window-y="175"
     inkscape:window-maximized="0" />
  <metadata
     id="metadata4789">
    <rdf:RDF>
      <cc:Work
         rdf:about="">
        <dc:format>image/svg+xml</dc:format>
        <dc:type
           rdf:resource="http://purl.org/dc/dcmitype/StillImage" />
        <dc:title></dc:title>
      </cc:Work>
    </rdf:RDF>
  </metadata>
  <g
     inkscape:label="Layer 1"
     inkscape:groupmode="layer"
     id="layer1"
     transform="translate(-355.4171,-387.04968)">
    <g
       id="g3233"
       transform="matrix(1.25,0,0,-1.25,360.22179,387.36218)">
      <path
         d="m 0,0 136.789,0 c 1.982,0 3.605,-1.623 3.605,-3.606 l 0,-64.788 c 0,-1.983 -1.623,-3.606 -3.605,-3.606 L 0,-72 c -1.983,0 -3.606,1.623 -3.606,3.606 l 0,64.788 C -3.606,-1.623 -1.983,0 0,0"
         style="fill:#ffffff;fill-opacity:1;fill-rule:nonzero;stroke:none"
         id="path3235"
         inkscape:connector-curvature="0" />
    </g>
    <g
       id="g3237"
       transform="matrix(1.25,0,0,-1.25,360.22179,387.36218)">
      <path
         d="m 0,0 136.789,0 c 1.982,0 3.605,-1.623 3.605,-3.606 l 0,-64.788 c 0,-1.983 -1.623,-3.606 -3.605,-3.606 L 0,-72 c -1.983,0 -3.606,1.623 -3.606,3.606 l 0,64.788 C -3.606,-1.623 -1.983,0 0,0 z"
         style="fill:none;stroke:#231f20;stroke-width:0.5;stroke-linecap:butt;stroke-linejoin:miter;stroke-miterlimit:4;stroke-opacity:1;stroke-dasharray:none"
         id="path3239"
         inkscape:connector-curvature="0" />
    </g>
    <g
       id="g3241"
       transform="matrix(1.25,0,0,-1.25,360.22179,388.48718)">
      <path
         d="m 0,0 136.789,0 c 1.488,0 2.707,-1.217 2.707,-2.706 l 0,-64.788 c 0,-1.488 -1.219,-2.706 -2.707,-2.706 L 0,-70.2 c -1.489,0 -2.706,1.218 -2.706,2.706 l 0,64.788 C -2.706,-1.217 -1.489,0 0,0"
         style="fill:#231f20;fill-opacity:1;fill-rule:evenodd;stroke:none"
         id="path3243"
         inkscape:connector-curvature="0" />
    </g>
    <g
       id="g3245"
       transform="matrix(1.25,0,0,-1.25,360.22179,390.36218)">
      <path
         d="m 0,0 136.789,0 c 0.662,0 1.207,-0.543 1.207,-1.206 l 0,-64.788 c 0,-0.663 -0.545,-1.206 -1.207,-1.206 L 0,-67.2 c -0.664,0 -1.206,0.543 -1.206,1.206 l 0,64.788 C -1.206,-0.543 -0.664,0 0,0"
         style="fill:#ffffff;fill-opacity:1;fill-rule:evenodd;stroke:none"
         id="path3247"
         inkscape:connector-curvature="0" />
    </g>
    <g
       id="g3249"
       transform="matrix(1.25,0,0,-1.25,393.91929,435.38706)">
      <path
         d="m 0,0 c 0,-1.391 -0.086,-2.106 -0.379,-3.075 -0.297,-1.006 -0.757,-1.472 -1.472,-1.472 -0.758,0 -1.223,0.466 -1.516,1.472 -0.254,0.969 -0.379,1.728 -0.379,3.031 0,1.347 0.084,2.147 0.379,3.074 0.293,1.009 0.758,1.472 1.516,1.472 0.715,0 1.175,-0.463 1.472,-1.516 C -0.129,2.103 0,1.346 0,0 m 1.641,0 c 0,1.809 -0.169,2.944 -0.675,4.123 -0.59,1.473 -1.431,2.061 -2.817,2.061 -1.391,0 -2.231,-0.588 -2.863,-2.02 C -5.218,3.03 -5.386,1.809 -5.386,0 c 0,-1.852 0.168,-2.987 0.672,-4.169 0.589,-1.428 1.43,-2.067 2.863,-2.067 1.345,0 2.227,0.639 2.817,2.067 0.506,1.138 0.675,2.317 0.675,4.169 m -9.426,-6.019 0,11.994 -1.136,0 C -9.175,5.469 -9.596,5.174 -10.269,5.133 l 0,-1.305 0.758,0 0,-9.847 1.726,0 z"
         style="fill:#231f20;fill-opacity:1;fill-rule:evenodd;stroke:none"
         id="path3251"
         inkscape:connector-curvature="0" />
    </g>
    <g
       id="g3253"
       transform="matrix(1.25,0,0,-1.25,413.12055,465.0358)">
      <path
         d="m 0,0 0,1.278 -3.501,0 0,8.316 -1.38,0 L -4.881,0 0,0 z m -8.584,3.971 -1.379,0 0.673,2.761 0.706,-2.761 z M -6.194,0 l -2.39,9.594 -1.347,0 -2.391,-9.594 1.38,0 0.639,2.625 2.055,0 L -7.572,0 -6.194,0 z m -7.273,7.035 c -0.1,0.875 -0.234,1.278 -0.605,1.75 -0.437,0.64 -1.109,0.978 -1.885,0.978 -1.884,0 -2.861,-1.65 -2.861,-4.747 0,-3.535 0.911,-5.191 2.964,-5.191 1.345,0 2.356,1.15 2.387,2.732 l -1.378,0 c 0,-0.705 -0.203,-1.382 -1.009,-1.382 -1.178,0 -1.651,1.114 -1.651,3.872 0,2.492 0.404,3.367 1.515,3.367 0.64,0 1.011,-0.437 1.145,-1.379 l 1.378,0 z M -21.88,4.813 c 0,-1.11 -0.067,-1.685 -0.305,-2.456 -0.234,-0.81 -0.605,-1.182 -1.176,-1.182 -0.607,0 -0.976,0.372 -1.211,1.182 -0.203,0.771 -0.304,1.377 -0.304,2.423 0,1.077 0.066,1.717 0.304,2.456 0.235,0.809 0.604,1.178 1.211,1.178 0.571,0 0.942,-0.369 1.176,-1.211 0.203,-0.706 0.305,-1.312 0.305,-2.39 m 1.312,0 c 0,1.45 -0.134,2.356 -0.539,3.3 -0.47,1.176 -1.144,1.65 -2.254,1.65 -1.113,0 -1.785,-0.474 -2.289,-1.619 -0.406,-0.908 -0.539,-1.881 -0.539,-3.331 0,-1.481 0.133,-2.391 0.539,-3.332 0.469,-1.145 1.145,-1.656 2.289,-1.656 1.076,0 1.784,0.511 2.254,1.656 0.405,0.908 0.539,1.851 0.539,3.332 M -27.333,0 l 0,1.278 -3.502,0 0,8.316 -1.381,0 0,-9.594 4.883,0 z"
         style="fill:#231f20;fill-opacity:1;fill-rule:evenodd;stroke:none"
         id="path3255"
         inkscape:connector-curvature="0" />
    </g>
    <g
       id="g3257"
       transform="matrix(1.25,0,0,-1.25,451.28554,438.80718)">
      <path
         d="m 0,0 c 0,1.724 -1.01,3.03 -3.322,4.376 -0.886,0.504 -1.139,0.841 -1.139,1.43 0,0.799 0.632,1.389 1.43,1.389 0.758,0 1.349,-0.547 1.39,-1.389 l 1.641,0 c -0.041,1.811 -1.348,3.114 -3.031,3.114 -1.723,0 -3.073,-1.389 -3.073,-3.114 0,-1.053 0.508,-1.978 1.475,-2.65 2.442,-1.642 1.768,-1.178 2.02,-1.432 0.714,-0.547 0.968,-1.051 0.968,-1.724 0,-0.967 -0.757,-1.811 -1.681,-1.811 -1.182,0 -1.686,1.053 -1.686,2.062 l -1.684,0 c 0,-1.976 1.262,-3.751 3.37,-3.751 C -1.473,-3.5 0,-1.936 0,0 m -8.124,-3.283 0,1.683 -4.375,0 0,3.958 2.482,0 0,1.641 -2.482,0 0,3.028 3.915,0 0,1.684 -5.642,0 0,-11.994 6.102,0 z m -7.742,0 0,1.599 -4.375,0 0,10.395 -1.727,0 0,-11.994 6.102,0 z m -8.711,11.994 -1.683,0 0,-11.994 1.683,0 0,11.994 z m -4.292,-11.994 0,11.994 -1.726,0 -2.228,-6.733 -2.233,6.733 -1.724,0 0,-11.994 1.724,0 0,6.732 2.233,-6.732 2.228,6.732 0,-6.732 1.726,0 z"
         style="fill:#231f20;fill-opacity:1;fill-rule:evenodd;stroke:none"
         id="path3259"
         inkscape:connector-curvature="0" />
    </g>
    <g
       id="g3261"
       transform="matrix(1.25,0,0,-1.25,509.74292,435.49468)">
      <path
         d="M 0,0 C 0,-0.926 -0.086,-1.766 -0.168,-2.524 -0.338,-3.448 -0.885,-4.25 -1.895,-4.25 l -1.43,0 0,8.627 1.43,0 c 0.758,0 1.262,-0.379 1.557,-1.221 C -0.127,2.652 0,1.349 0,0 M 1.683,0.086 C 1.683,1.01 1.554,2.062 1.386,2.945 1.177,4.166 0.672,5.092 -0.043,5.599 -0.465,5.933 -0.969,6.061 -1.979,6.061 l -3.072,0 0,-11.994 3.324,0 c 0.674,0 1.262,0.167 1.684,0.547 1.179,0.925 1.726,2.694 1.726,5.472 m -11.363,-1.055 -1.727,0 0.844,3.452 0.883,-3.452 z m 2.988,-4.964 -2.988,11.994 -1.684,0 -2.988,-11.994 1.727,0 0.798,3.283 2.569,0 0.84,-3.283 1.726,0 z m -8.754,0 0,1.683 -4.375,0 0,3.958 2.481,0 0,1.641 -2.481,0 0,3.028 3.912,0 0,1.684 -5.638,0 0,-11.994 6.101,0 z m -8.668,0 0,11.994 -1.724,0 0,-4.883 -3.282,0 0,4.883 -1.728,0 0,-11.994 1.728,0 0,5.428 3.282,0 0,-5.428 1.724,0 z m -11.363,4.964 -1.725,0 0.842,3.452 0.883,-3.452 z m 2.988,-4.964 -2.988,11.994 -1.684,0 -2.988,-11.994 1.727,0 0.802,3.283 2.565,0 0.842,-3.283 1.724,0 z"
         style="fill:#231f20;fill-opacity:1;fill-rule:evenodd;stroke:none"
         id="path3263"
         inkscape:connector-curvature="0" />
    </g>
    <g
       id="g3265"
       transform="matrix(1.25,0,0,-1.25,473.69804,456.24218)">
      <path
         d="m 0,0 c -0.102,0.875 -0.237,1.278 -0.606,1.75 -0.437,0.64 -1.111,0.978 -1.886,0.978 -1.885,0 -2.86,-1.65 -2.86,-4.747 0,-3.535 0.908,-5.191 2.961,-5.191 1.348,0 2.357,1.15 2.391,2.732 l -1.381,0 c 0,-0.705 -0.199,-1.382 -1.01,-1.382 -1.178,0 -1.648,1.114 -1.648,3.872 0,2.492 0.402,3.367 1.513,3.367 0.639,0 1.01,-0.437 1.145,-1.379 L 0,0 z m -7.272,2.559 -1.345,0 0,-9.594 1.345,0 0,9.594 z m -2.66,-1.347 0,1.347 -4.881,0 0,-9.594 1.381,0 0,4.51 1.918,0 0,1.312 -1.918,0 0,2.425 3.5,0 z m -6.193,0 0,1.347 -4.881,0 0,-9.594 1.381,0 0,4.51 1.92,0 0,1.312 -1.92,0 0,2.425 3.5,0 z m -8.585,-4.276 -1.381,0 0.674,2.761 0.707,-2.761 z m 2.389,-3.971 -2.389,9.594 -1.347,0 -2.391,-9.594 1.383,0 0.64,2.625 2.051,0 0.674,-2.625 1.379,0 z M -30.635,0 c 0,-0.772 -0.438,-1.213 -1.247,-1.213 l -1.412,0 0,2.425 1.412,0 c 0.742,0 1.247,-0.472 1.247,-1.212 m 1.347,-7.035 -1.381,4.711 c 0.909,0.336 1.381,1.18 1.381,2.324 0,1.547 -1.011,2.559 -2.526,2.559 l -2.86,0 0,-9.594 1.38,0 0,4.51 1.312,0 1.28,-4.51 1.414,0 z m -6.699,8.313 0,1.281 -4.881,0 0,-1.281 1.75,0 0,-8.313 1.381,0 0,8.313 1.75,0 z"
         style="fill:#231f20;fill-opacity:1;fill-rule:evenodd;stroke:none"
         id="path3267"
         inkscape:connector-curvature="0" />
    </g>
    <g
       id="g3269"
       transform="matrix(1.25,0,0,-1.25,518.57804,453.04331)">
      <path
         d="M 0,0 -1.48,0 -3.063,-3.469 -4.678,0 l -1.449,0 2.357,-5.253 0,-4.341 1.381,0 0,4.341 L 0,0 z m -6.697,-9.594 0,1.278 -3.502,0 0,8.316 -1.381,0 0,-9.594 4.883,0 z m -6.936,0 0,9.594 -1.381,0 0,-5.758 -2.625,5.758 -1.381,0 0,-9.594 1.381,0 0,6.43 2.961,-6.43 1.045,0 z m -8.619,4.813 c 0,-1.11 -0.066,-1.685 -0.301,-2.456 -0.236,-0.81 -0.607,-1.182 -1.179,-1.182 -0.606,0 -0.977,0.372 -1.211,1.182 -0.203,0.771 -0.305,1.377 -0.305,2.423 0,1.077 0.068,1.717 0.305,2.456 0.234,0.809 0.605,1.178 1.211,1.178 0.572,0 0.943,-0.369 1.179,-1.211 0.201,-0.706 0.301,-1.312 0.301,-2.39 m 1.313,0 c 0,1.45 -0.133,2.356 -0.538,3.3 -0.47,1.176 -1.144,1.65 -2.255,1.65 -1.11,0 -1.786,-0.474 -2.289,-1.619 -0.403,-0.908 -0.54,-1.881 -0.54,-3.331 0,-1.481 0.137,-2.391 0.54,-3.332 0.472,-1.145 1.144,-1.656 2.289,-1.656 1.078,0 1.785,0.511 2.255,1.656 0.405,0.908 0.538,1.851 0.538,3.332"
         style="fill:#231f20;fill-opacity:1;fill-rule:evenodd;stroke:none"
         id="path3271"
         inkscape:connector-curvature="0" />
    </g>
    <g
       id="g3273"
       transform="matrix(1.25,0,0,-1.25,456.1393,417.77218)">
      <path
         d="m 0,0 0,2.019 -5.25,0 0,4.747 2.978,0 0,1.968 -2.978,0 0,3.637 4.695,0 0,2.02 -6.767,0 L -7.322,0 0,0 z m -10.151,3.988 0,2.979 -3.687,0 0,-2.02 1.617,0 0,-0.959 c 0,-1.516 -0.504,-2.222 -1.567,-2.222 -1.11,0 -1.816,0.758 -2.12,2.172 -0.203,1.11 -0.302,2.373 -0.302,3.586 0,1.715 0.25,3.331 0.656,4.039 0.352,0.706 0.91,1.061 1.615,1.061 1.011,0 1.667,-0.657 1.718,-1.616 l 2.07,0 c -0.102,2.121 -1.664,3.634 -3.739,3.634 -1.664,0 -3.128,-1.109 -3.635,-2.625 -0.505,-1.362 -0.656,-2.828 -0.656,-4.846 0,-1.871 0.304,-3.89 0.757,-4.951 0.706,-1.615 1.97,-2.482 3.687,-2.482 1.465,0 2.627,0.766 3.182,2.028 0.302,0.608 0.404,1.212 0.404,2.222 m -12.625,3.131 c 0,-1.111 -0.101,-2.12 -0.203,-3.03 -0.202,-1.111 -0.858,-2.07 -2.07,-2.07 l -1.716,0 0,10.352 1.716,0 c 0.909,0 1.516,-0.455 1.868,-1.465 0.252,-0.606 0.405,-2.172 0.405,-3.787 m 2.019,0.101 c 0,1.11 -0.151,2.374 -0.352,3.435 -0.253,1.464 -0.859,2.573 -1.718,3.181 -0.503,0.402 -1.112,0.555 -2.323,0.555 l -3.687,0 0,-14.391 3.991,0 c 0.808,0 1.516,0.202 2.019,0.656 1.414,1.11 2.07,3.23 2.07,6.564 m -11.211,7.171 -2.019,0 0,-14.391 2.019,0 0,14.391 z m -6.414,-3.839 c 0,-1.161 -0.656,-1.818 -1.867,-1.818 l -2.12,0 0,3.637 2.12,0 c 1.109,0 1.867,-0.707 1.867,-1.819 M -36.362,0 l -2.07,7.067 c 1.362,0.507 2.07,1.769 2.07,3.485 0,2.323 -1.514,3.839 -3.786,3.839 l -4.292,0 0,-14.391 2.071,0 0,6.766 1.968,0 1.917,-6.766 2.122,0 z m -12.473,4.089 c 0,-1.262 -0.758,-2.07 -1.917,-2.07 l -2.07,0 0,4.495 2.07,0 c 1.057,0 1.917,-1.061 1.917,-2.425 m -0.252,6.566 c 0,-1.313 -0.608,-2.122 -1.564,-2.122 l -2.171,0 0,3.838 2.171,0 c 1.11,0 1.564,-0.507 1.564,-1.716 m 2.272,-6.717 c 0,1.464 -0.656,2.675 -1.765,3.586 1.159,1.21 1.514,1.818 1.514,3.131 0,2.22 -1.365,3.736 -3.285,3.736 l -4.542,0 0,-14.391 4.242,0 c 2.121,0 3.836,1.766 3.836,3.938"
         style="fill:#231f20;fill-opacity:1;fill-rule:evenodd;stroke:none"
         id="path3275"
         inkscape:connector-curvature="0" />
    </g>
    <g
       id="g3277"
       transform="matrix(1.25,0,0,-1.25,503.9618,402.18218)">
      <path
         d="m 0,0 0,1.919 -7.323,0 0,-1.919 2.627,0 0,-12.472 2.071,0 L -2.625,0 0,0 z m -9.291,-8.181 0,10.1 -2.071,0 0,-10.352 c 0,-1.364 -0.808,-2.273 -1.92,-2.273 -1.211,0 -2.019,0.909 -2.019,2.273 l 0,10.352 -2.07,0 0,-10.1 c 0,-1.161 0.152,-1.767 0.554,-2.525 0.707,-1.211 2.121,-2.028 3.535,-2.028 1.364,0 2.727,0.867 3.434,2.028 0.406,0.758 0.557,1.364 0.557,2.525 m -12.928,2.929 c 0,-1.668 -0.102,-2.525 -0.455,-3.687 -0.352,-1.211 -0.908,-1.767 -1.768,-1.767 -0.91,0 -1.465,0.556 -1.818,1.767 -0.303,1.162 -0.453,2.07 -0.453,3.638 0,1.614 0.099,2.573 0.453,3.684 0.353,1.212 0.908,1.769 1.818,1.769 0.86,0 1.416,-0.557 1.768,-1.819 0.304,-1.061 0.455,-1.969 0.455,-3.585 m 1.969,0 c 0,2.171 -0.203,3.535 -0.807,4.948 -0.709,1.768 -1.719,2.474 -3.385,2.474 -1.668,0 -2.676,-0.706 -3.433,-2.423 -0.604,-1.364 -0.807,-2.828 -0.807,-4.999 0,-2.221 0.203,-3.586 0.807,-5 0.709,-1.716 1.716,-2.482 3.433,-2.482 1.619,0 2.676,0.766 3.385,2.482 0.604,1.363 0.807,2.779 0.807,5"
         style="fill:#231f20;fill-opacity:1;fill-rule:evenodd;stroke:none"
         id="path3279"
         inkscape:connector-curvature="0" />
    </g>
  </g>
</svg>
