<?xml version="1.0" encoding="UTF-8" standalone="no"?>
<!-- Created with Inkscape (http://www.inkscape.org/) -->

<svg
   xmlns:dc="http://purl.org/dc/elements/1.1/"
   xmlns:cc="http://creativecommons.org/ns#"
   xmlns:rdf="http://www.w3.org/1999/02/22-rdf-syntax-ns#"
   xmlns:svg="http://www.w3.org/2000/svg"
   xmlns="http://www.w3.org/2000/svg"
   xmlns:sodipodi="http://sodipodi.sourceforge.net/DTD/sodipodi-0.dtd"
   xmlns:inkscape="http://www.inkscape.org/namespaces/inkscape"
   width="144.60938"
   height="90.625"
   id="svg4570"
   version="1.1"
   inkscape:version="0.48.3.1 r9886"
   sodipodi:docname="New document 13">
  <defs
     id="defs4572">
    <clipPath
       clipPathUnits="userSpaceOnUse"
       id="clipPath3417">
      <path
         inkscape:connector-curvature="0"
         d="m 63,426.809 513.25,0 0,311.191 L 63,738 63,426.809 z"
         id="path3419" />
    </clipPath>
    <clipPath
       clipPathUnits="userSpaceOnUse"
       id="clipPath3405">
      <path
         inkscape:connector-curvature="0"
         d="m 77.375,426.809 484.501,0 0,311.191 -484.501,0 0,-311.191 z"
         id="path3407" />
    </clipPath>
    <clipPath
       clipPathUnits="userSpaceOnUse"
       id="clipPath3393">
      <path
         inkscape:connector-curvature="0"
         d="m 63,426.809 513.25,0 0,311.191 L 63,738 63,426.809 z"
         id="path3395" />
    </clipPath>
  </defs>
  <sodipodi:namedview
     id="base"
     pagecolor="#ffffff"
     bordercolor="#666666"
     borderopacity="1.0"
     inkscape:pageopacity="0.0"
     inkscape:pageshadow="2"
     inkscape:zoom="0.35"
     inkscape:cx="-26.989147"
     inkscape:cy="-86.116108"
     inkscape:document-units="px"
     inkscape:current-layer="layer1"
     showgrid="false"
     fit-margin-top="0"
     fit-margin-left="0"
     fit-margin-right="0"
     fit-margin-bottom="0"
     inkscape:window-width="451"
     inkscape:window-height="415"
     inkscape:window-x="75"
     inkscape:window-y="75"
     inkscape:window-maximized="0" />
  <metadata
     id="metadata4575">
    <rdf:RDF>
      <cc:Work
         rdf:about="">
        <dc:format>image/svg+xml</dc:format>
        <dc:type
           rdf:resource="http://purl.org/dc/dcmitype/StillImage" />
        <dc:title></dc:title>
      </cc:Work>
    </rdf:RDF>
  </metadata>
  <g
     inkscape:label="Layer 1"
     inkscape:groupmode="layer"
     id="layer1"
     transform="translate(-401.98915,-355.62108)">
    <g
       transform="matrix(1.25,0,0,-1.25,-155.74554,1250.5137)"
       id="g3389">
      <g
         id="g3391"
         clip-path="url(#clipPath3393)">
        <g
           id="g3397"
           transform="translate(450.0315,715.6641)">
          <path
             inkscape:connector-curvature="0"
             d="m 0,0 107.987,0 c 1.982,0 3.607,-1.623 3.607,-3.606 l 0,-64.788 c 0,-1.983 -1.625,-3.606 -3.607,-3.606 L 0,-72 c -1.984,0 -3.607,1.623 -3.607,3.606 l 0,64.788 C -3.607,-1.623 -1.984,0 0,0"
             style="fill:#ffffff;fill-opacity:1;fill-rule:nonzero;stroke:none"
             id="path3399" />
        </g>
      </g>
    </g>
    <g
       transform="matrix(1.25,0,0,-1.25,-155.74554,1250.5137)"
       id="g3401">
      <g
         id="g3403"
         clip-path="url(#clipPath3405)">
        <g
           id="g3409"
           transform="translate(450.0315,715.6641)">
          <path
             inkscape:connector-curvature="0"
             d="m 0,0 107.987,0 c 1.982,0 3.607,-1.623 3.607,-3.606 l 0,-64.788 c 0,-1.983 -1.625,-3.606 -3.607,-3.606 L 0,-72 c -1.984,0 -3.607,1.623 -3.607,3.606 l 0,64.788 C -3.607,-1.623 -1.984,0 0,0 z"
             style="fill:none;stroke:#231f20;stroke-width:0.5;stroke-linecap:butt;stroke-linejoin:miter;stroke-miterlimit:4;stroke-opacity:1;stroke-dasharray:none"
             id="path3411" />
        </g>
      </g>
    </g>
    <g
       transform="matrix(1.25,0,0,-1.25,-155.74554,1250.5137)"
       id="g3413">
      <g
         id="g3415"
         clip-path="url(#clipPath3417)">
        <g
           id="g3421"
           transform="translate(450.0315,714.7642)">
          <path
             d="m 0,0 107.987,0 c 1.49,0 2.707,-1.217 2.707,-2.706 l 0,-64.788 c 0,-1.488 -1.217,-2.706 -2.707,-2.706 L 0,-70.2 c -1.49,0 -2.707,1.218 -2.707,2.706 l 0,64.788 C -2.707,-1.217 -1.49,0 0,0"
             style="fill:#231f20;fill-opacity:1;fill-rule:evenodd;stroke:none"
             id="path3423"
             inkscape:connector-curvature="0" />
        </g>
        <g
           id="g3425"
           transform="translate(450.0315,713.2642)">
          <path
             d="m 0,0 107.987,0 c 0.662,0 1.207,-0.543 1.207,-1.206 l 0,-64.788 c 0,-0.663 -0.545,-1.206 -1.207,-1.206 L 0,-67.2 c -0.664,0 -1.207,0.543 -1.207,1.206 l 0,64.788 C -1.207,-0.543 -0.664,0 0,0"
             style="fill:#ffffff;fill-opacity:1;fill-rule:evenodd;stroke:none"
             id="path3427"
             inkscape:connector-curvature="0" />
        </g>
        <g
           id="g3429"
           transform="translate(532.8285,694.103)">
          <path
             d="m 0,0 c 0,-2.558 -0.607,-4.645 -1.75,-5.789 -0.539,-0.541 -1.146,-0.74 -2.156,-0.74 l -3.029,0 0,13.06 3.433,0 c 0.809,0 1.481,-0.336 1.953,-0.807 C -0.607,4.714 0,2.558 0,0 m 3.096,0 c 0,3.771 -1.145,6.802 -3.164,8.552 -1.01,0.807 -1.75,1.009 -3.703,1.009 l -6.194,0 0,-19.189 5.856,0 1.078,0 c 1.01,0.067 2.021,0.405 2.762,1.077 2.154,1.684 3.365,4.714 3.365,8.551 m -22.002,-1.145 -3.836,0 1.953,5.387 1.883,-5.387 z m 6.195,-8.483 -6.597,19.189 -3.03,0 -6.599,-19.189 3.232,0 1.885,5.386 5.992,0 1.885,-5.386 3.232,0 z m -21.596,9.561 c 0,-1.481 -0.335,-3.366 -0.74,-4.376 -0.674,-1.683 -1.549,-2.424 -2.963,-2.424 -1.211,0 -2.021,0.472 -2.627,1.481 -0.74,1.213 -1.144,3.3 -1.144,5.319 0,1.616 0.269,3.366 0.742,4.511 0.672,1.683 1.615,2.423 3.096,2.358 1.144,-0.069 1.885,-0.472 2.49,-1.482 0.742,-1.281 1.146,-3.232 1.146,-5.387 m 3.03,0 c 0,2.425 -0.473,4.847 -1.28,6.531 -1.21,2.356 -2.896,3.434 -5.318,3.434 -2.223,0 -3.771,-0.674 -4.914,-2.156 -1.281,-1.817 -2.088,-4.643 -2.088,-7.809 0,-2.289 0.537,-4.847 1.346,-6.462 1.144,-2.358 2.828,-3.448 5.521,-3.448 2.02,0 3.567,0.685 4.645,2.166 1.348,1.685 2.088,4.714 2.088,7.744 m -19.645,4.242 c 0,-0.808 -0.47,-1.617 -1.211,-2.02 -0.472,-0.269 -0.808,-0.338 -1.75,-0.338 l -3.636,0 0,4.714 3.636,0 c 1.008,0 1.278,-0.067 1.75,-0.336 0.741,-0.404 1.211,-1.212 1.211,-2.02 m 3.434,-13.803 -3.367,8.955 c 1.752,0.809 2.963,2.828 2.963,4.848 0,1.952 -1.211,3.972 -2.895,4.78 -0.943,0.472 -1.953,0.606 -3.434,0.606 l -6.328,0 0,-19.189 3.03,0 0,8.349 3.636,0 3.096,-8.349 3.299,0 z"
             style="fill:#231f20;fill-opacity:1;fill-rule:evenodd;stroke:none"
             id="path3431"
             inkscape:connector-curvature="0" />
        </g>
        <g
           id="g3433"
           transform="translate(546.4845,665.3032)">
          <path
             d="M 0,0 C 0,-2.558 -0.605,-4.646 -1.75,-5.789 -2.289,-6.33 -2.894,-6.53 -3.904,-6.53 l -3.029,0 0,13.061 3.433,0 c 0.807,0 1.483,-0.336 1.953,-0.807 C -0.605,4.714 0,2.558 0,0 m 3.098,0 c 0,3.771 -1.145,6.802 -3.164,8.552 -1.012,0.806 -1.752,1.009 -3.703,1.009 l -6.194,0 0,-19.189 5.858,0 1.076,0 c 1.012,0.067 2.022,0.404 2.762,1.076 2.152,1.685 3.365,4.715 3.365,8.552 m -15.975,-9.628 0,3.098 -8.888,0 0,5.25 5.59,0 0,3.097 -5.59,0 0,4.714 8.281,0 0,3.03 -11.309,0 0,-19.189 11.916,0 z m -14.83,5.52 c 0,7.541 -9.019,5.185 -9.291,8.754 -0.134,1.75 1.549,2.29 2.961,2.221 2.156,-0.065 2.828,-1.682 2.828,-1.682 l 2.694,0.807 c -0.942,2.357 -2.758,3.906 -5.453,3.906 -3.434,0 -5.993,-1.415 -5.993,-5.184 0,-3.166 2.559,-4.309 3.704,-4.781 2.492,-1.01 5.453,-1.414 5.453,-3.972 0,-1.616 -1.211,-2.828 -2.961,-2.828 -1.819,0 -3.299,1.009 -4.11,2.828 l -2.892,-1.078 c 1.277,-2.894 3.703,-4.86 7.002,-4.86 1.615,0 3.095,0.55 4.172,1.494 1.212,1.077 1.886,2.625 1.886,4.375 m -18.668,4.041 c 0,-1.481 -0.336,-3.366 -0.74,-4.377 -0.674,-1.682 -1.549,-2.423 -2.963,-2.423 -1.211,0 -2.019,0.471 -2.625,1.481 -0.74,1.213 -1.144,3.299 -1.144,5.319 0,1.615 0.269,3.365 0.738,4.511 0.676,1.682 1.617,2.423 3.1,2.358 1.144,-0.069 1.884,-0.472 2.49,-1.482 0.74,-1.281 1.144,-3.233 1.144,-5.387 m 3.03,0 c 0,2.424 -0.471,4.847 -1.28,6.531 -1.211,2.356 -2.894,3.434 -5.318,3.434 -2.221,0 -3.77,-0.674 -4.916,-2.156 -1.277,-1.817 -2.086,-4.645 -2.086,-7.809 0,-2.289 0.539,-4.847 1.346,-6.463 1.146,-2.358 2.828,-3.447 5.521,-3.447 2.02,0 3.571,0.685 4.647,2.166 1.345,1.685 2.086,4.714 2.086,7.744 m -15.772,-9.561 0,2.828 -8.889,0 0,16.361 -3.027,0 0,-19.189 11.916,0 z m -15.842,3.904 -2.892,1.078 c -0.742,-1.549 -1.686,-2.221 -2.963,-2.221 -1.348,0 -2.223,0.471 -2.897,1.481 -0.74,1.213 -1.211,3.299 -1.211,5.386 0,1.616 0.27,3.298 0.743,4.444 0.672,1.682 1.679,2.358 3.23,2.358 1.481,0 2.088,-0.406 3.164,-2.022 l 2.826,1.212 c -1.277,2.694 -3.095,3.906 -5.99,3.906 -2.154,0 -3.769,-0.74 -4.916,-2.156 C -87.211,6.061 -88.017,3.03 -88.017,0 c 0,-2.423 0.537,-4.849 1.412,-6.53 1.213,-2.358 3.029,-3.447 5.857,-3.447 2.762,0 4.647,1.425 5.789,4.253"
             style="fill:#231f20;fill-opacity:1;fill-rule:evenodd;stroke:none"
             id="path3435"
             inkscape:connector-curvature="0" />
        </g>
      </g>
    </g>
  </g>
</svg>
