<?xml version="1.0" encoding="UTF-8" standalone="no"?>
<!-- Created with Inkscape (http://www.inkscape.org/) -->

<svg
   xmlns:dc="http://purl.org/dc/elements/1.1/"
   xmlns:cc="http://creativecommons.org/ns#"
   xmlns:rdf="http://www.w3.org/1999/02/22-rdf-syntax-ns#"
   xmlns:svg="http://www.w3.org/2000/svg"
   xmlns="http://www.w3.org/2000/svg"
   xmlns:sodipodi="http://sodipodi.sourceforge.net/DTD/sodipodi-0.dtd"
   xmlns:inkscape="http://www.inkscape.org/namespaces/inkscape"
   width="72.617188"
   height="108.63281"
   id="svg6745"
   version="1.1"
   inkscape:version="0.48.3.1 r9886"
   sodipodi:docname="New document 32">
  <defs
     id="defs6747">
    <clipPath
       clipPathUnits="userSpaceOnUse"
       id="clipPath3607">
      <path
         inkscape:connector-curvature="0"
         d="m 27,68.027 513.674,0 0,669.974 -513.674,0 0,-669.974 z"
         id="path3609" />
    </clipPath>
    <clipPath
       clipPathUnits="userSpaceOnUse"
       id="clipPath3595">
      <path
         inkscape:connector-curvature="0"
         d="m 31.5,68.027 505.023,0 0,669.974 -505.023,0 0,-669.974 z"
         id="path3597" />
    </clipPath>
  </defs>
  <sodipodi:namedview
     id="base"
     pagecolor="#ffffff"
     bordercolor="#666666"
     borderopacity="1.0"
     inkscape:pageopacity="0.0"
     inkscape:pageshadow="2"
     inkscape:zoom="0.35"
     inkscape:cx="36.304688"
     inkscape:cy="54.30218"
     inkscape:document-units="px"
     inkscape:current-layer="layer1"
     showgrid="false"
     fit-margin-top="0"
     fit-margin-left="0"
     fit-margin-right="0"
     fit-margin-bottom="0"
     inkscape:window-width="451"
     inkscape:window-height="415"
     inkscape:window-x="75"
     inkscape:window-y="75"
     inkscape:window-maximized="0" />
  <metadata
     id="metadata6750">
    <rdf:RDF>
      <cc:Work
         rdf:about="">
        <dc:format>image/svg+xml</dc:format>
        <dc:type
           rdf:resource="http://purl.org/dc/dcmitype/StillImage" />
        <dc:title></dc:title>
      </cc:Work>
    </rdf:RDF>
  </metadata>
  <g
     inkscape:label="Layer 1"
     inkscape:groupmode="layer"
     id="layer1"
     transform="translate(-338.69531,-478.03155)">
    <g
       transform="matrix(1.25,0,0,-1.25,298.87725,1066.1488)"
       id="g3591">
      <g
         id="g3593"
         clip-path="url(#clipPath3595)">
        <g
           id="g3599"
           transform="translate(89.6982,387.4313)">
          <path
             inkscape:connector-curvature="0"
             d="m 0,0 c 0,-1.989 -1.611,-3.602 -3.6,-3.602 l -50.4,0 c -1.987,0 -3.6,1.613 -3.6,3.602 l 0,79.198 c 0,1.989 1.613,3.6 3.6,3.6 l 50.4,0 c 1.989,0 3.6,-1.611 3.6,-3.6 L 0,0 z"
             style="fill:none;stroke:#231f20;stroke-width:0.5;stroke-linecap:butt;stroke-linejoin:miter;stroke-miterlimit:4;stroke-opacity:1;stroke-dasharray:none"
             id="path3601" />
        </g>
      </g>
    </g>
    <g
       transform="matrix(1.25,0,0,-1.25,298.87725,1066.1488)"
       id="g3603">
      <g
         id="g3605"
         clip-path="url(#clipPath3607)">
        <g
           id="g3611"
           transform="translate(87.2988,387.4313)">
          <path
             inkscape:connector-curvature="0"
             d="m 0,0 c 0,-0.662 -0.538,-1.202 -1.2,-1.202 l -50.401,0 c -0.661,0 -1.199,0.54 -1.199,1.202 l 0,79.198 c 0,0.663 0.538,1.201 1.199,1.201 l 50.401,0 c 0.662,0 1.2,-0.538 1.2,-1.201 L 0,0 z m -1.2,81.899 -50.401,0 c -1.488,0 -2.699,-1.212 -2.699,-2.701 L -54.3,0 c 0,-1.491 1.211,-2.702 2.699,-2.702 l 50.401,0 c 1.489,0 2.7,1.211 2.7,2.702 l 0,79.198 c 0,1.489 -1.211,2.701 -2.7,2.701"
             style="fill:#231f20;fill-opacity:1;fill-rule:nonzero;stroke:none"
             id="path3613" />
        </g>
        <g
           id="g3615"
           transform="translate(55.7139,453.4303)">
          <path
             inkscape:connector-curvature="0"
             d="m 0,0 -5.952,0 0,9.6 5.76,0 0,-1.533 -4.227,0 0,-2.309 2.921,0 0,-1.533 -2.921,0 0,-2.692 L 0,1.533 0,0 z"
             style="fill:#231f20;fill-opacity:1;fill-rule:nonzero;stroke:none"
             id="path3617" />
        </g>
        <g
           id="g3619"
           transform="translate(63.8623,453.4303)">
          <path
             inkscape:connector-curvature="0"
             d="m 0,0 -1.47,0 -3.506,6.364 0,-6.364 -1.533,0 0,9.6 1.49,0 3.486,-6.326 0,6.326 L 0,9.6 0,0 z"
             style="fill:#231f20;fill-opacity:1;fill-rule:nonzero;stroke:none"
             id="path3621" />
        </g>
        <g
           id="g3623"
           transform="translate(71.1689,458.2293)">
          <path
             inkscape:connector-curvature="0"
             d="m 0,0 c 0,1.422 -0.272,2.38 -0.816,2.873 -0.288,0.263 -0.711,0.395 -1.269,0.395 l -1.373,0 0,-6.534 1.335,0 c 0.564,0 0.993,0.131 1.287,0.394 C -0.278,-2.379 0,-1.422 0,0 m 1.533,0 c 0,-2.035 -0.534,-3.437 -1.602,-4.204 -0.557,-0.398 -1.241,-0.595 -2.053,-0.595 l -2.869,0 0,9.6 2.869,0 c 0.812,0 1.496,-0.202 2.053,-0.606 C 0.999,3.434 1.533,2.035 1.533,0"
             style="fill:#231f20;fill-opacity:1;fill-rule:nonzero;stroke:none"
             id="path3625" />
        </g>
        <g
           id="g3627"
           transform="translate(48.5107,444.0323)">
          <path
             inkscape:connector-curvature="0"
             d="m 0,0 -1.555,-6.202 -1.46,0 -1.256,9.6 1.554,0 0.672,-5.184 1.306,5.184 1.478,0 1.306,-5.184 0.672,5.184 1.555,0 -1.257,-9.6 -1.459,0 L 0,0 z"
             style="fill:#231f20;fill-opacity:1;fill-rule:nonzero;stroke:none"
             id="path3629" />
        </g>
        <g
           id="g3631"
           transform="translate(59.3174,442.6293)">
          <path
             inkscape:connector-curvature="0"
             d="m 0,0 c 0,0.982 -0.145,1.767 -0.433,2.358 -0.327,0.673 -0.807,1.01 -1.442,1.01 -0.642,0 -1.122,-0.337 -1.442,-1.01 C -3.607,1.774 -3.75,0.989 -3.75,0 c 0,-0.98 0.143,-1.766 0.433,-2.356 0.327,-0.673 0.807,-1.011 1.442,-1.011 0.635,0 1.115,0.338 1.442,1.011 C -0.145,-1.766 0,-0.98 0,0 m 1.533,0 c 0,-1.294 -0.23,-2.373 -0.691,-3.238 C 0.247,-4.345 -0.659,-4.9 -1.875,-4.9 c -1.223,0 -2.128,0.555 -2.717,1.662 -0.461,0.859 -0.691,1.938 -0.691,3.238 0,1.301 0.23,2.38 0.691,3.239 0.589,1.107 1.494,1.662 2.717,1.662 1.216,0 2.122,-0.555 2.717,-1.662 C 1.303,2.373 1.533,1.294 1.533,0"
             style="fill:#231f20;fill-opacity:1;fill-rule:nonzero;stroke:none"
             id="path3633" />
        </g>
        <g
           id="g3635"
           transform="translate(67.8281,444.7613)">
          <path
             inkscape:connector-curvature="0"
             d="m 0,0 c 0,0.322 -0.107,0.59 -0.322,0.808 -0.214,0.219 -0.482,0.327 -0.802,0.327 l -2.209,0 0,-2.308 2.209,0 c 0.32,0 0.588,0.114 0.802,0.341 C -0.107,-0.604 0,-0.327 0,0 m 1.661,-6.931 -1.623,0 -1.546,4.225 -1.825,0 0,-4.225 -1.533,0 0,9.6 3.732,0 c 0.736,0 1.364,-0.262 1.885,-0.783 0.521,-0.522 0.782,-1.15 0.782,-1.887 0,-1.074 -0.508,-1.881 -1.523,-2.419 l 1.651,-4.511 z"
             style="fill:#231f20;fill-opacity:1;fill-rule:nonzero;stroke:none"
             id="path3637" />
        </g>
        <g
           id="g3639"
           transform="translate(77.8418,437.8303)">
          <path
             inkscape:connector-curvature="0"
             d="m 0,0 -1.73,0 -2.467,4.608 -0.989,-1.258 0,-3.35 -1.535,0 0,9.6 1.535,0 0,-3.773 L -2.2,9.6 -0.231,9.6 -3.149,5.922 0,0 z"
             style="fill:#231f20;fill-opacity:1;fill-rule:nonzero;stroke:none"
             id="path3641" />
        </g>
        <g
           id="g3643"
           transform="translate(51.8311,422.2293)">
          <path
             inkscape:connector-curvature="0"
             d="m 0,0 -6.528,0 0,1.201 4.483,6.866 -4.118,0 0,1.534 L 0,9.601 0,8.391 -4.483,1.533 0,1.533 0,0 z"
             style="fill:#231f20;fill-opacity:1;fill-rule:nonzero;stroke:none"
             id="path3645" />
        </g>
        <g
           id="g3647"
           transform="translate(58.5488,427.0303)">
          <path
             inkscape:connector-curvature="0"
             d="m 0,0 c 0,0.98 -0.143,1.766 -0.433,2.356 -0.326,0.673 -0.807,1.01 -1.442,1.01 -0.641,0 -1.121,-0.337 -1.442,-1.01 C -3.605,1.773 -3.75,0.987 -3.75,0 c 0,-0.982 0.145,-1.768 0.433,-2.358 0.327,-0.672 0.808,-1.009 1.442,-1.009 0.635,0 1.116,0.337 1.442,1.009 C -0.143,-1.768 0,-0.982 0,0 m 1.534,0 c 0,-1.294 -0.23,-2.373 -0.691,-3.238 -0.596,-1.108 -1.501,-1.663 -2.718,-1.663 -1.222,0 -2.128,0.555 -2.717,1.663 -0.461,0.858 -0.691,1.937 -0.691,3.238 0,1.3 0.23,2.379 0.691,3.238 C -4.003,4.345 -3.097,4.9 -1.875,4.9 -0.658,4.9 0.247,4.345 0.843,3.238 1.304,2.373 1.534,1.293 1.534,0"
             style="fill:#231f20;fill-opacity:1;fill-rule:nonzero;stroke:none"
             id="path3649" />
        </g>
        <g
           id="g3651"
           transform="translate(68.71,422.2293)">
          <path
             inkscape:connector-curvature="0"
             d="m 0,0 -1.47,0 -3.505,6.365 0,-6.365 -1.533,0 0,9.601 1.488,0 3.487,-6.328 0,6.328 L 0,9.601 0,0 z"
             style="fill:#231f20;fill-opacity:1;fill-rule:nonzero;stroke:none"
             id="path3653" />
        </g>
        <g
           id="g3655"
           transform="translate(76.9775,422.2293)">
          <path
             inkscape:connector-curvature="0"
             d="m 0,0 -5.952,0 0,9.601 5.76,0 0,-1.534 -4.227,0 0,-2.308 2.921,0 0,-1.533 -2.921,0 0,-2.693 L 0,1.533 0,0 z"
             style="fill:#231f20;fill-opacity:1;fill-rule:nonzero;stroke:none"
             id="path3657" />
        </g>
        <g
           id="g3659"
           transform="translate(48.5156,409.4813)">
          <path
             inkscape:connector-curvature="0"
             d="m 0,0 c 0,-0.865 -0.31,-1.574 -0.931,-2.125 -0.62,-0.551 -1.384,-0.826 -2.293,-0.826 -1.151,0 -2.047,0.416 -2.686,1.25 -0.27,0.345 -0.474,0.762 -0.614,1.249 L -5.103,0 c 0.261,-0.945 0.895,-1.418 1.9,-1.418 0.429,0 0.807,0.125 1.133,0.375 0.358,0.275 0.537,0.621 0.537,1.038 0,0.544 -0.406,0.978 -1.218,1.298 -0.755,0.295 -1.509,0.59 -2.264,0.884 -0.812,0.474 -1.217,1.167 -1.217,2.077 0,0.774 0.223,1.387 0.671,1.836 0.511,0.506 1.282,0.759 2.312,0.759 1.343,0 2.309,-0.648 2.897,-1.943 L -1.781,4.454 c -0.276,0.574 -0.762,0.861 -1.459,0.861 -0.973,0 -1.459,-0.352 -1.459,-1.057 0,-0.455 0.405,-0.821 1.218,-1.096 C -2.209,2.727 -1.454,2.435 -1.218,2.287 -0.405,1.774 0,1.012 0,0"
             style="fill:#231f20;fill-opacity:1;fill-rule:nonzero;stroke:none"
             id="path3661" />
        </g>
        <g
           id="g3663"
           transform="translate(55.1377,413.5613)">
          <path
             inkscape:connector-curvature="0"
             d="m 0,0 c 0,0.314 -0.127,0.582 -0.38,0.803 -0.253,0.221 -0.543,0.332 -0.869,0.332 l -2.21,0 0,-2.309 2.21,0 c 0.326,0 0.616,0.116 0.869,0.347 C -0.127,-0.596 0,-0.32 0,0 m 1.533,0 c 0,-0.723 -0.28,-1.355 -0.84,-1.895 -0.56,-0.541 -1.208,-0.812 -1.944,-0.812 l -2.208,0 0,-4.225 -1.533,0 0,9.6 3.742,0 c 0.742,0 1.392,-0.262 1.948,-0.787 C 1.255,1.356 1.533,0.73 1.533,0"
             style="fill:#231f20;fill-opacity:1;fill-rule:nonzero;stroke:none"
             id="path3665" />
        </g>
        <g
           id="g3667"
           transform="translate(64.0654,406.6293)">
          <path
             inkscape:connector-curvature="0"
             d="m 0,0 -5.952,0 0,9.6 5.761,0 0,-1.533 -4.228,0 0,-2.309 2.922,0 0,-1.533 -2.922,0 0,-2.691 L 0,1.534 0,0 z"
             style="fill:#231f20;fill-opacity:1;fill-rule:nonzero;stroke:none"
             id="path3669" />
        </g>
        <g
           id="g3671"
           transform="translate(71.6494,406.6293)">
          <path
             inkscape:connector-curvature="0"
             d="m 0,0 -5.952,0 0,9.6 5.76,0 0,-1.533 -4.227,0 0,-2.309 2.921,0 0,-1.533 -2.921,0 0,-2.691 L 0,1.534 0,0 z"
             style="fill:#231f20;fill-opacity:1;fill-rule:nonzero;stroke:none"
             id="path3673" />
        </g>
        <g
           id="g3675"
           transform="translate(78.2725,411.4303)">
          <path
             inkscape:connector-curvature="0"
             d="m 0,0 c 0,1.422 -0.272,2.379 -0.816,2.872 -0.288,0.263 -0.711,0.394 -1.268,0.394 l -1.374,0 0,-6.533 1.335,0 c 0.564,0 0.993,0.13 1.288,0.394 C -0.278,-2.381 0,-1.423 0,0 M 1.534,0 C 1.534,-2.036 1,-3.437 -0.068,-4.205 -0.625,-4.602 -1.31,-4.801 -2.122,-4.801 l -2.869,0 0,9.6 2.869,0 c 0.812,0 1.497,-0.201 2.054,-0.604 C 1,3.434 1.534,2.035 1.534,0"
             style="fill:#231f20;fill-opacity:1;fill-rule:nonzero;stroke:none"
             id="path3677" />
        </g>
        <g
           id="g3679"
           transform="translate(52.5459,391.0303)">
          <path
             inkscape:connector-curvature="0"
             d="m 0,0 -5.952,0 0,9.599 1.533,0 0,-8.066 L 0,1.533 0,0 z"
             style="fill:#231f20;fill-opacity:1;fill-rule:nonzero;stroke:none"
             id="path3681" />
        </g>
        <path
           inkscape:connector-curvature="0"
           d="m 55.519,391.03 -1.533,0 0,9.599 1.533,0 0,-9.599 z"
           style="fill:#231f20;fill-opacity:1;fill-rule:nonzero;stroke:none"
           id="path3683" />
        <g
           id="g3685"
           transform="translate(61.5732,395.1383)">
          <path
             inkscape:connector-curvature="0"
             d="m 0,0 2.211,5.491 1.533,0 0,-9.599 -1.533,0 -0.007,5.5 -2.209,-5.5 -2.21,5.5 0,-5.5 -1.533,0 0,9.599 1.538,0 L 0,0 z"
             style="fill:#231f20;fill-opacity:1;fill-rule:nonzero;stroke:none"
             id="path3687" />
        </g>
        <path
           inkscape:connector-curvature="0"
           d="m 69.15,391.03 -1.533,0 0,9.599 1.533,0 0,-9.599 z"
           style="fill:#231f20;fill-opacity:1;fill-rule:nonzero;stroke:none"
           id="path3689" />
        <g
           id="g3691"
           transform="translate(76.543,399.0963)">
          <path
             inkscape:connector-curvature="0"
             d="m 0,0 -2.211,0 0,-8.066 -1.533,0 0,8.066 -2.208,0 0,1.533 L 0,1.533 0,0 z"
             style="fill:#231f20;fill-opacity:1;fill-rule:nonzero;stroke:none"
             id="path3693" />
        </g>
      </g>
    </g>
  </g>
</svg>
