<?xml version="1.0" encoding="UTF-8" standalone="no"?>
<!-- Created with Inkscape (http://www.inkscape.org/) -->

<svg
   xmlns:dc="http://purl.org/dc/elements/1.1/"
   xmlns:cc="http://creativecommons.org/ns#"
   xmlns:rdf="http://www.w3.org/1999/02/22-rdf-syntax-ns#"
   xmlns:svg="http://www.w3.org/2000/svg"
   xmlns="http://www.w3.org/2000/svg"
   xmlns:sodipodi="http://sodipodi.sourceforge.net/DTD/sodipodi-0.dtd"
   xmlns:inkscape="http://www.inkscape.org/namespaces/inkscape"
   width="72.617188"
   height="54.648438"
   id="svg6215"
   version="1.1"
   inkscape:version="0.48.3.1 r9886"
   sodipodi:docname="New document 25">
  <defs
     id="defs6217">
    <clipPath
       clipPathUnits="userSpaceOnUse"
       id="clipPath4635">
      <path
         inkscape:connector-curvature="0"
         d="m 27,68.027 513.674,0 0,669.974 -513.674,0 0,-669.974 z"
         id="path4637" />
    </clipPath>
  </defs>
  <sodipodi:namedview
     id="base"
     pagecolor="#ffffff"
     bordercolor="#666666"
     borderopacity="1.0"
     inkscape:pageopacity="0.0"
     inkscape:pageshadow="2"
     inkscape:zoom="0.35"
     inkscape:cx="36.304687"
     inkscape:cy="27.319055"
     inkscape:document-units="px"
     inkscape:current-layer="layer1"
     showgrid="false"
     fit-margin-top="0"
     fit-margin-left="0"
     fit-margin-right="0"
     fit-margin-bottom="0"
     inkscape:window-width="451"
     inkscape:window-height="415"
     inkscape:window-x="125"
     inkscape:window-y="125"
     inkscape:window-maximized="0" />
  <metadata
     id="metadata6220">
    <rdf:RDF>
      <cc:Work
         rdf:about="">
        <dc:format>image/svg+xml</dc:format>
        <dc:type
           rdf:resource="http://purl.org/dc/dcmitype/StillImage" />
        <dc:title></dc:title>
      </cc:Work>
    </rdf:RDF>
  </metadata>
  <g
     inkscape:label="Layer 1"
     inkscape:groupmode="layer"
     id="layer1"
     transform="translate(-338.69531,-505.0328)">
    <g
       transform="matrix(1.25,0,0,-1.25,-35.48625,1178.0513)"
       id="g4631">
      <g
         id="g4633"
         clip-path="url(#clipPath4635)">
        <g
           id="g4639"
           transform="translate(357.189,497.3523)">
          <path
             inkscape:connector-curvature="0"
             d="m 0,0 c 0,-1.325 -1.076,-2.401 -2.4,-2.401 l -52.799,0 c -1.324,0 -2.401,1.076 -2.401,2.401 l 0,38.398 c 0,1.325 1.077,2.401 2.401,2.401 l 52.799,0 c 1.324,0 2.4,-1.076 2.4,-2.401 L 0,0 z"
             style="fill:#ffffff;fill-opacity:1;fill-rule:nonzero;stroke:none"
             id="path4641" />
        </g>
        <g
           id="g4643"
           transform="translate(357.189,497.3523)">
          <path
             inkscape:connector-curvature="0"
             d="m 0,0 c 0,-1.325 -1.076,-2.401 -2.4,-2.401 l -52.799,0 c -1.324,0 -2.401,1.076 -2.401,2.401 l 0,38.398 c 0,1.325 1.077,2.401 2.401,2.401 l 52.799,0 c 1.324,0 2.4,-1.076 2.4,-2.401 L 0,0 z"
             style="fill:none;stroke:#231f20;stroke-width:0.5;stroke-linecap:butt;stroke-linejoin:miter;stroke-miterlimit:4;stroke-opacity:1;stroke-dasharray:none"
             id="path4645" />
        </g>
        <g
           id="g4647"
           transform="translate(355.389,497.3523)">
          <path
             inkscape:connector-curvature="0"
             d="m 0,0 c 0,-0.332 -0.27,-0.601 -0.6,-0.601 l -52.799,0 C -53.729,-0.601 -54,-0.332 -54,0 l 0,38.398 c 0,0.33 0.271,0.601 0.601,0.601 l 52.799,0 c 0.33,0 0.6,-0.271 0.6,-0.601 L 0,0 z m -0.6,39.899 -52.799,0 c -0.827,0 -1.501,-0.673 -1.501,-1.501 L -54.9,0 c 0,-0.828 0.674,-1.501 1.501,-1.501 l 52.799,0 c 0.827,0 1.501,0.673 1.501,1.501 l 0,38.398 c 0,0.828 -0.674,1.501 -1.501,1.501"
             style="fill:#231f20;fill-opacity:1;fill-rule:nonzero;stroke:none"
             id="path4649" />
        </g>
        <g
           id="g4651"
           transform="translate(320.142,521.2513)">
          <path
             inkscape:connector-curvature="0"
             d="m 0,0 c -0.337,-0.302 -0.975,-0.605 -1.48,-0.74 l 0,-1.212 -1.516,0 c 0,0 -0.033,1.313 0,1.347 -1.177,0.269 -2.087,1.111 -2.592,2.289 l 1.448,0.54 c 0.405,-0.911 1.144,-1.414 2.053,-1.414 0.876,0 1.482,0.605 1.482,1.414 0,1.278 -1.482,1.48 -2.727,1.985 -0.572,0.236 -1.852,0.808 -1.852,2.389 0,1.55 0.875,2.323 2.188,2.526 l 0,1.312 1.516,0 0,-1.312 C -0.504,8.887 0.169,8.214 0.54,7.239 L -0.807,6.835 c 0,0 -0.336,0.807 -1.414,0.841 C -2.928,7.709 -3.77,7.441 -3.703,6.564 -3.567,4.781 0.942,5.959 0.942,2.19 0.942,1.313 0.606,0.541 0,0"
             style="fill:#231f20;fill-opacity:1;fill-rule:nonzero;stroke:none"
             id="path4653" />
        </g>
        <g
           id="g4655"
           transform="translate(323.374,520.6803)">
          <path
             inkscape:connector-curvature="0"
             d="m 0,0 0,7.775 -0.875,0 0,1.213 0.101,0 c 0.402,0 0.841,0.235 1.109,0.605 l 1.212,0 L 1.547,0 0,0 z"
             style="fill:#231f20;fill-opacity:1;fill-rule:nonzero;stroke:none"
             id="path4657" />
        </g>
        <g
           id="g4659"
           transform="translate(329.366,520.5113)">
          <path
             inkscape:connector-curvature="0"
             d="m 0,0 c -0.843,0 -1.684,0.203 -2.358,0.539 l 0.74,1.347 C -1.214,1.683 -0.506,1.55 0.201,1.55 c 1.38,0 2.456,0.908 2.456,2.153 0,0.942 -0.773,1.683 -1.716,1.683 -0.673,0 -0.975,-0.201 -1.548,-1.01 l -1.515,0.438 0.235,4.948 5.521,0 0,-1.514 -4.039,0 -0.101,-1.583 c 0.707,0.203 1.01,0.271 1.479,0.271 1.751,0 3.2,-1.482 3.2,-3.233 C 4.173,1.583 2.422,0 0,0"
             style="fill:#231f20;fill-opacity:1;fill-rule:nonzero;stroke:none"
             id="path4661" />
        </g>
        <g
           id="g4663"
           transform="translate(340.136,528.1523)">
          <path
             inkscape:connector-curvature="0"
             d="m 0,0 c -0.303,0.506 -0.673,0.707 -1.245,0.741 -0.741,0.034 -1.211,-0.337 -1.548,-1.177 -0.237,-0.572 -0.37,-1.448 -0.37,-2.256 0,-1.009 0.201,-2.053 0.571,-2.659 0.303,-0.506 0.707,-0.74 1.313,-0.74 0.707,0 1.145,0.37 1.482,1.21 0.202,0.506 0.369,1.449 0.369,2.189 C 0.572,-1.615 0.37,-0.639 0,0 m 1.044,-6.564 c -0.538,-0.739 -1.312,-1.077 -2.323,-1.077 -1.347,0 -2.187,0.539 -2.761,1.717 -0.402,0.809 -0.671,2.087 -0.671,3.232 0,1.582 0.403,2.995 1.042,3.905 0.574,0.739 1.348,1.078 2.458,1.078 1.211,0 2.054,-0.54 2.659,-1.717 0.405,-0.843 0.64,-2.054 0.64,-3.266 0,-1.515 -0.371,-3.029 -1.044,-3.872"
             style="fill:#231f20;fill-opacity:1;fill-rule:nonzero;stroke:none"
             id="path4665" />
        </g>
        <g
           id="g4667"
           transform="translate(317.282,509.4933)">
          <path
             inkscape:connector-curvature="0"
             d="m 0,0 0,-2.357 2.795,0 0,-1.548 -2.795,0 0,-4.174 -1.515,0 0,9.593 5.959,0 L 4.444,0 0,0 z"
             style="fill:#231f20;fill-opacity:1;fill-rule:nonzero;stroke:none"
             id="path4669" />
        </g>
        <path
           inkscape:connector-curvature="0"
           d="m 323.138,511.007 1.55,0 0,-9.593 -1.55,0 0,9.593 z"
           style="fill:#231f20;fill-opacity:1;fill-rule:nonzero;stroke:none"
           id="path4671" />
        <g
           id="g4673"
           transform="translate(332.16,501.4143)">
          <path
             inkscape:connector-curvature="0"
             d="m 0,0 -3.669,6.497 0,-6.497 -1.514,0 0,9.593 1.514,0 3.502,-6.127 0,6.127 1.513,0 L 1.346,0 0,0 z"
             style="fill:#231f20;fill-opacity:1;fill-rule:nonzero;stroke:none"
             id="path4675" />
        </g>
        <g
           id="g4677"
           transform="translate(335.795,501.4143)">
          <path
             inkscape:connector-curvature="0"
             d="m 0,0 0,9.593 5.656,0 0,-1.514 -4.14,0 0,-2.357 2.793,0 0,-1.548 -2.793,0 0,-2.626 4.442,0 L 5.958,0 0,0 z"
             style="fill:#231f20;fill-opacity:1;fill-rule:nonzero;stroke:none"
             id="path4679" />
        </g>
      </g>
    </g>
  </g>
</svg>
