<?xml version="1.0" encoding="UTF-8" standalone="no"?>
<!-- Created with Inkscape (http://www.inkscape.org/) -->

<svg
   xmlns:dc="http://purl.org/dc/elements/1.1/"
   xmlns:cc="http://creativecommons.org/ns#"
   xmlns:rdf="http://www.w3.org/1999/02/22-rdf-syntax-ns#"
   xmlns:svg="http://www.w3.org/2000/svg"
   xmlns="http://www.w3.org/2000/svg"
   xmlns:sodipodi="http://sodipodi.sourceforge.net/DTD/sodipodi-0.dtd"
   xmlns:inkscape="http://www.inkscape.org/namespaces/inkscape"
   width="72.617188"
   height="72.617188"
   id="svg7091"
   version="1.1"
   inkscape:version="0.48.3.1 r9886"
   sodipodi:docname="New document 40">
  <defs
     id="defs7093">
    <clipPath
       clipPathUnits="userSpaceOnUse"
       id="clipPath3337">
      <path
         inkscape:connector-curvature="0"
         d="m 27,68.027 513.674,0 0,669.974 -513.674,0 0,-669.974 z"
         id="path3339" />
    </clipPath>
  </defs>
  <sodipodi:namedview
     id="base"
     pagecolor="#ffffff"
     bordercolor="#666666"
     borderopacity="1.0"
     inkscape:pageopacity="0.0"
     inkscape:pageshadow="2"
     inkscape:zoom="0.35"
     inkscape:cx="36.304688"
     inkscape:cy="36.30533"
     inkscape:document-units="px"
     inkscape:current-layer="layer1"
     showgrid="false"
     fit-margin-top="0"
     fit-margin-left="0"
     fit-margin-right="0"
     fit-margin-bottom="0"
     inkscape:window-width="451"
     inkscape:window-height="415"
     inkscape:window-x="75"
     inkscape:window-y="75"
     inkscape:window-maximized="0" />
  <metadata
     id="metadata7096">
    <rdf:RDF>
      <cc:Work
         rdf:about="">
        <dc:format>image/svg+xml</dc:format>
        <dc:type
           rdf:resource="http://purl.org/dc/dcmitype/StillImage" />
        <dc:title></dc:title>
      </cc:Work>
    </rdf:RDF>
  </metadata>
  <g
     inkscape:label="Layer 1"
     inkscape:groupmode="layer"
     id="layer1"
     transform="translate(-338.69531,-496.05033)">
    <g
       transform="matrix(1.25,0,0,-1.25,-133.0975,1048.1482)"
       id="g3333">
      <g
         id="g3335"
         clip-path="url(#clipPath3337)">
        <g
           id="g3341"
           transform="translate(381.278,441.4283)">
          <path
             inkscape:connector-curvature="0"
             d="M 0,0 50.4,0 C 52.383,0 54,-1.617 54,-3.599 l 0,-50.4 c 0,-1.983 -1.617,-3.6 -3.6,-3.6 l -50.4,0 c -1.983,0 -3.6,1.617 -3.6,3.6 l 0,50.4 C -3.6,-1.617 -1.983,0 0,0"
             style="fill:#ffffff;fill-opacity:1;fill-rule:nonzero;stroke:none"
             id="path3343" />
        </g>
        <g
           id="g3345"
           transform="translate(381.278,441.4283)">
          <path
             inkscape:connector-curvature="0"
             d="M 0,0 50.4,0 C 52.383,0 54,-1.617 54,-3.599 l 0,-50.4 c 0,-1.983 -1.617,-3.6 -3.6,-3.6 l -50.4,0 c -1.983,0 -3.6,1.617 -3.6,3.6 l 0,50.4 C -3.6,-1.617 -1.983,0 0,0 z"
             style="fill:none;stroke:#231f20;stroke-width:0.5;stroke-linecap:butt;stroke-linejoin:miter;stroke-miterlimit:4;stroke-opacity:1;stroke-dasharray:none"
             id="path3347" />
        </g>
        <g
           id="g3349"
           transform="translate(381.288,440.4673)">
          <path
             inkscape:connector-curvature="0"
             d="m 0,0 50.377,0 0.148,-0.004 0.135,-0.009 0.131,-0.016 0.13,-0.023 0.125,-0.031 0.125,-0.036 0.124,-0.041 0.119,-0.047 0.117,-0.052 0.113,-0.059 0.111,-0.065 0.106,-0.068 0.105,-0.074 0.1,-0.078 0.096,-0.084 0.092,-0.088 0.089,-0.092 0.082,-0.096 0.079,-0.1 0.074,-0.105 0.07,-0.106 0.063,-0.11 0.058,-0.114 0.053,-0.117 0.047,-0.119 0.043,-0.123 0.033,-0.124 0.031,-0.128 0.024,-0.129 0.015,-0.131 0.01,-0.135 0.006,-0.148 0,-50.377 -0.006,-0.148 -0.01,-0.133 -0.015,-0.133 -0.024,-0.128 -0.031,-0.127 -0.033,-0.125 -0.043,-0.123 -0.047,-0.118 -0.053,-0.117 -0.058,-0.115 -0.063,-0.111 -0.07,-0.106 -0.074,-0.105 -0.079,-0.1 -0.082,-0.096 -0.089,-0.091 -0.092,-0.088 -0.096,-0.084 -0.1,-0.078 -0.105,-0.073 -0.106,-0.07 -0.111,-0.063 -0.113,-0.06 -0.117,-0.051 -0.119,-0.049 -0.124,-0.041 -0.125,-0.035 -0.125,-0.029 -0.13,-0.024 -0.131,-0.017 -0.135,-0.01 -0.148,-0.004 -50.377,0 -0.147,0.004 -0.135,0.01 -0.131,0.017 -0.128,0.024 -0.127,0.029 -0.125,0.035 -0.121,0.041 -0.122,0.049 -0.115,0.051 -0.115,0.06 -0.109,0.063 -0.11,0.07 -0.101,0.073 -0.102,0.078 -0.096,0.084 -0.091,0.088 -0.088,0.091 -0.084,0.096 -0.078,0.1 -0.075,0.105 -0.068,0.106 -0.064,0.111 -0.059,0.115 -0.053,0.117 -0.047,0.118 -0.041,0.123 -0.037,0.125 -0.027,0.127 -0.024,0.128 -0.017,0.133 -0.012,0.133 -0.002,0.148 0,50.377 0.002,0.148 0.012,0.135 0.017,0.131 0.024,0.129 0.027,0.128 0.037,0.124 0.041,0.123 0.047,0.119 0.053,0.117 0.059,0.114 0.064,0.11 0.068,0.106 0.075,0.105 0.078,0.1 0.084,0.096 0.088,0.092 0.091,0.088 0.096,0.084 0.102,0.078 0.101,0.074 0.11,0.068 0.109,0.065 0.115,0.059 0.115,0.052 0.122,0.047 0.121,0.041 0.125,0.036 0.127,0.031 0.128,0.023 0.131,0.016 0.135,0.009 L 0,0 z"
             style="fill:#231f20;fill-opacity:1;fill-rule:evenodd;stroke:none"
             id="path3351" />
        </g>
        <g
           id="g3353"
           transform="translate(381.307,439.0283)">
          <path
             inkscape:connector-curvature="0"
             d="m 0,0 50.34,0 0.094,-0.003 0.06,-0.005 0.059,-0.007 0.058,-0.011 0.057,-0.012 0.055,-0.017 0.054,-0.018 0.055,-0.021 0.053,-0.023 0.051,-0.028 0.05,-0.029 0.049,-0.031 0.047,-0.033 0.047,-0.038 0.045,-0.039 0.043,-0.04 0.041,-0.042 0.037,-0.045 0.037,-0.045 0.033,-0.048 0.032,-0.049 0.029,-0.051 0.027,-0.051 0.024,-0.052 0.021,-0.054 0.02,-0.055 0.015,-0.056 0.012,-0.056 0.012,-0.059 0.008,-0.058 0.003,-0.061 0.002,-0.094 0,-50.339 -0.002,-0.094 -0.003,-0.062 -0.008,-0.059 -0.012,-0.058 -0.012,-0.055 -0.015,-0.057 -0.02,-0.054 -0.021,-0.053 -0.024,-0.055 -0.027,-0.051 -0.029,-0.05 -0.032,-0.049 -0.033,-0.047 -0.037,-0.047 -0.037,-0.045 -0.041,-0.041 -0.043,-0.041 -0.045,-0.039 -0.047,-0.035 -0.047,-0.035 -0.049,-0.032 -0.05,-0.029 -0.051,-0.027 -0.053,-0.024 -0.055,-0.019 -0.054,-0.02 -0.055,-0.015 -0.057,-0.014 -0.058,-0.01 -0.059,-0.008 -0.06,-0.004 -0.094,-0.003 -50.34,0 -0.092,0.003 -0.06,0.004 -0.061,0.008 -0.058,0.01 -0.057,0.014 -0.055,0.015 -0.056,0.02 -0.053,0.019 -0.053,0.024 -0.053,0.027 -0.048,0.029 -0.049,0.032 -0.049,0.035 -0.045,0.035 -0.045,0.039 -0.043,0.041 -0.041,0.041 -0.039,0.045 -0.035,0.047 -0.033,0.047 -0.033,0.049 -0.028,0.05 -0.027,0.051 -0.024,0.055 -0.021,0.053 -0.018,0.054 -0.015,0.057 -0.014,0.055 -0.01,0.058 -0.008,0.059 -0.005,0.062 -0.002,0.094 0,50.339 0.002,0.094 0.005,0.061 0.008,0.058 0.01,0.059 0.014,0.056 0.015,0.056 0.018,0.055 0.021,0.054 0.024,0.052 0.027,0.051 0.028,0.051 0.033,0.049 0.033,0.048 0.035,0.045 0.039,0.045 0.041,0.042 0.043,0.04 0.045,0.039 0.045,0.038 0.049,0.033 0.049,0.031 0.048,0.029 0.053,0.028 0.053,0.023 0.053,0.021 0.056,0.018 0.055,0.017 0.057,0.012 0.058,0.011 0.061,0.007 0.06,0.005 L 0,0 z"
             style="fill:#ffffff;fill-opacity:1;fill-rule:evenodd;stroke:none"
             id="path3355" />
        </g>
        <g
           id="g3357"
           transform="translate(388.663,430.4673)">
          <path
             inkscape:connector-curvature="0"
             d="m 0,0 c 2.361,2.229 5.089,4.067 8.048,5.408 4.561,2.069 9.864,2.42 14.747,1.458 C 27.644,5.909 32.136,3.489 35.63,0 c 3.493,-3.486 5.907,-7.967 6.881,-12.802 0.981,-4.877 0.494,-10.004 -1.404,-14.604 -1.887,-4.57 -5.129,-8.531 -9.242,-11.285 -4.139,-2.771 -9.07,-4.263 -14.053,-4.263 -4.982,0 -9.912,1.49 -14.051,4.261 -4.111,2.756 -7.351,6.719 -9.238,11.287 -1.894,4.582 -2.391,9.678 -1.41,14.535 0.641,3.184 1.881,6.363 3.742,9.051 C -2.209,-2.468 -1.202,-1.133 0,0"
             style="fill:#bf2519;fill-opacity:1;fill-rule:evenodd;stroke:none"
             id="path3359" />
        </g>
        <g
           id="g3361"
           transform="translate(419.09,396.6633)">
          <path
             inkscape:connector-curvature="0"
             d="m 0,0 -28.629,28.613 c -1.029,-1.457 -2.078,-2.971 -2.765,-4.629 -1.192,-2.873 -1.748,-6.004 -1.586,-9.111 0.201,-3.735 1.441,-7.387 3.572,-10.463 2.818,-4.071 7.108,-7.011 11.926,-8.183 4.756,-1.155 9.99,-0.571 14.324,1.734 C -2.05,-1.454 -1.021,-0.719 0,0"
             style="fill:#ffffff;fill-opacity:1;fill-rule:evenodd;stroke:none"
             id="path3363" />
        </g>
        <g
           id="g3365"
           transform="translate(422.493,400.0883)">
          <path
             inkscape:connector-curvature="0"
             d="m 0,0 c 1.029,1.455 2.076,2.959 2.759,4.618 0.729,1.759 1.217,3.619 1.45,5.509 0.457,3.69 -0.118,7.479 -1.657,10.866 -2.025,4.466 -5.679,8.121 -10.152,10.142 -5.623,2.539 -12.416,2.399 -17.875,-0.51 -1.103,-0.589 -2.133,-1.324 -3.156,-2.043 L 0,0"
             style="fill:#ffffff;fill-opacity:1;fill-rule:evenodd;stroke:none"
             id="path3367" />
        </g>
        <g
           id="g3369"
           transform="translate(418.467,404.1063)">
          <path
             inkscape:connector-curvature="0"
             d="m 0,0 -6.002,5.992 0,7.963 c 0,1.582 -0.64,3.117 -1.761,4.232 -1.371,1.37 -3.356,2.006 -5.266,1.674 -1.184,-0.207 -2.295,-0.779 -3.158,-1.611 -0.36,-0.348 -0.647,-0.748 -0.93,-1.162 l -4.301,4.293 c 0.467,0.527 0.936,1.062 1.457,1.539 0.807,0.738 1.733,1.342 2.717,1.816 1.633,0.783 3.43,1.203 5.242,1.203 3.162,-0.002 6.248,-1.277 8.483,-3.511 C -1.281,20.195 0,17.115 0,13.955 L 0,0"
             style="fill:#231f20;fill-opacity:1;fill-rule:evenodd;stroke:none"
             id="path3371" />
        </g>
        <g
           id="g3373"
           transform="translate(404.155,411.5903)">
          <path
             inkscape:connector-curvature="0"
             d="M 0,0 1.394,-1.394 C 1.367,-1.48 1.344,-1.566 1.308,-1.652 1.281,-1.72 1.238,-1.785 1.193,-1.845 l -7.896,-11.45 -7.92,11.481 c -0.121,0.178 -0.174,0.435 -0.164,0.652 0.015,0.569 0.375,1.039 0.945,1.155 0.195,0.041 0.398,0.031 0.586,-0.026 l 3.531,-1.082 0.018,7.586 c 0.004,0.49 0.035,0.981 0.092,1.465 0.06,0.48 0.154,0.947 0.261,1.416 l 5.666,-5.664 0,-4.836 3.514,1.115 c 0.021,0.006 0.062,0.012 0.08,0.016 C -0.063,-0.009 -0.031,-0.006 0,0"
             style="fill:#231f20;fill-opacity:1;fill-rule:evenodd;stroke:none"
             id="path3375" />
        </g>
        <g
           id="g3377"
           transform="translate(417.456,398.2953)">
          <path
             inkscape:connector-curvature="0"
             d="m 0,0 -4.991,0 0,4.991 L 0,0 z"
             style="fill:#231f20;fill-opacity:1;fill-rule:evenodd;stroke:none"
             id="path3379" />
        </g>
      </g>
    </g>
  </g>
</svg>
