<?xml version="1.0" encoding="UTF-8" standalone="no"?>
<!-- Created with Inkscape (http://www.inkscape.org/) -->

<svg
   xmlns:dc="http://purl.org/dc/elements/1.1/"
   xmlns:cc="http://creativecommons.org/ns#"
   xmlns:rdf="http://www.w3.org/1999/02/22-rdf-syntax-ns#"
   xmlns:svg="http://www.w3.org/2000/svg"
   xmlns="http://www.w3.org/2000/svg"
   xmlns:sodipodi="http://sodipodi.sourceforge.net/DTD/sodipodi-0.dtd"
   xmlns:inkscape="http://www.inkscape.org/namespaces/inkscape"
   width="90.625"
   height="108.63281"
   id="svg7186"
   version="1.1"
   inkscape:version="0.48.3.1 r9886"
   sodipodi:docname="New document 42">
  <defs
     id="defs7188">
    <clipPath
       clipPathUnits="userSpaceOnUse"
       id="clipPath3213">
      <path
         inkscape:connector-curvature="0"
         d="m 27,68.027 513.674,0 0,669.974 -513.674,0 0,-669.974 z"
         id="path3215" />
    </clipPath>
    <clipPath
       clipPathUnits="userSpaceOnUse"
       id="clipPath3201">
      <path
         inkscape:connector-curvature="0"
         d="m 31.5,68.027 505.023,0 0,669.974 -505.023,0 0,-669.974 z"
         id="path3203" />
    </clipPath>
    <clipPath
       clipPathUnits="userSpaceOnUse"
       id="clipPath3189">
      <path
         inkscape:connector-curvature="0"
         d="m 27,68.027 513.674,0 0,669.974 -513.674,0 0,-669.974 z"
         id="path3191" />
    </clipPath>
  </defs>
  <sodipodi:namedview
     id="base"
     pagecolor="#ffffff"
     bordercolor="#666666"
     borderopacity="1.0"
     inkscape:pageopacity="0.0"
     inkscape:pageshadow="2"
     inkscape:zoom="0.35"
     inkscape:cx="45.329375"
     inkscape:cy="54.312492"
     inkscape:document-units="px"
     inkscape:current-layer="layer1"
     showgrid="false"
     fit-margin-top="0"
     fit-margin-left="0"
     fit-margin-right="0"
     fit-margin-bottom="0"
     inkscape:window-width="451"
     inkscape:window-height="415"
     inkscape:window-x="125"
     inkscape:window-y="125"
     inkscape:window-maximized="0" />
  <metadata
     id="metadata7191">
    <rdf:RDF>
      <cc:Work
         rdf:about="">
        <dc:format>image/svg+xml</dc:format>
        <dc:type
           rdf:resource="http://purl.org/dc/dcmitype/StillImage" />
        <dc:title></dc:title>
      </cc:Work>
    </rdf:RDF>
  </metadata>
  <g
     inkscape:label="Layer 1"
     inkscape:groupmode="layer"
     id="layer1"
     transform="translate(-329.67062,-478.04186)">
    <g
       transform="matrix(1.25,0,0,-1.25,-250.0925,1066.1488)"
       id="g3185">
      <g
         id="g3187"
         clip-path="url(#clipPath3189)">
        <g
           id="g3193"
           transform="translate(468.873,383.8293)">
          <path
             inkscape:connector-curvature="0"
             d="m 0,0 0,0 62.398,0 c 2.65,0 4.803,2.145 4.803,4.797 l 0,76.802 c 0,2.649 -2.153,4.801 -4.803,4.801 l -62.33,0 -0.068,0 c -2.655,0 -4.799,-2.152 -4.799,-4.801 l 0,-76.802 C -4.799,2.149 -2.649,0 0,0"
             style="fill:#ffffff;fill-opacity:1;fill-rule:evenodd;stroke:none"
             id="path3195" />
        </g>
      </g>
    </g>
    <g
       transform="matrix(1.25,0,0,-1.25,-250.0925,1066.1488)"
       id="g3197">
      <g
         id="g3199"
         clip-path="url(#clipPath3201)">
        <g
           id="g3205"
           transform="translate(468.873,383.8293)">
          <path
             inkscape:connector-curvature="0"
             d="m 0,0 0,0 62.398,0 c 2.65,0 4.803,2.145 4.803,4.797 l 0,76.802 c 0,2.649 -2.153,4.801 -4.803,4.801 l -62.33,0 -0.068,0 c -2.655,0 -4.799,-2.152 -4.799,-4.801 l 0,-76.802 C -4.799,2.149 -2.649,0 0,0 z"
             style="fill:none;stroke:#231f20;stroke-width:0.5;stroke-linecap:butt;stroke-linejoin:miter;stroke-miterlimit:2.61299992;stroke-opacity:1;stroke-dasharray:none"
             id="path3207" />
        </g>
      </g>
    </g>
    <g
       transform="matrix(1.25,0,0,-1.25,-250.0925,1066.1488)"
       id="g3209">
      <g
         id="g3211"
         clip-path="url(#clipPath3213)">
        <g
           id="g3217"
           transform="translate(468.888,384.8293)">
          <path
             inkscape:connector-curvature="0"
             d="m 0,0 0,0 62.367,0 c 2.12,0 3.838,1.715 3.838,3.836 l 0,76.808 c 0,2.12 -1.718,3.839 -3.838,3.839 L 0,84.483 c -2.119,0 -3.836,-1.719 -3.836,-3.839 l 0,-76.808 C -3.836,1.719 -2.117,0 0,0"
             style="fill:#231f20;fill-opacity:1;fill-rule:evenodd;stroke:none"
             id="path3219" />
        </g>
        <g
           id="g3221"
           transform="translate(468.892,386.2633)">
          <path
             inkscape:connector-curvature="0"
             d="m 0,0 0,0 62.361,0 c 1.325,0 2.397,1.072 2.397,2.394 l 0,76.812 c 0,1.327 -1.072,2.399 -2.397,2.399 L 0,81.605 c -1.324,0 -2.394,-1.072 -2.394,-2.399 l 0,-76.812 C -2.394,1.07 -1.324,0 0,0"
             style="fill:#ffffff;fill-opacity:1;fill-rule:evenodd;stroke:none"
             id="path3223" />
        </g>
        <g
           id="g3225"
           transform="translate(518.291,425.4923)">
          <path
             inkscape:connector-curvature="0"
             d="M 0,0 0.054,-10.496 -8.696,-10.5 -8.702,0.049 c -0.002,3.822 -1.265,7.619 -3.588,10.662 -2.101,2.755 -5.101,4.896 -8.476,5.767 l -3.746,0.969 0.244,-5.445 c 0.008,-0.161 -0.045,-0.336 -0.094,-0.485 -0.248,-0.769 -0.883,-1.351 -1.734,-1.277 -0.438,0.035 -0.936,0.199 -1.233,0.547 l -13.185,15.5 19.154,6.765 c 0.326,0.118 0.641,0.145 0.971,0.049 0.799,-0.22 1.365,-0.982 1.318,-1.814 -0.015,-0.184 -0.129,-0.629 -0.244,-0.813 l -3.162,-4.953 3.893,-1.023 c 5.273,-1.377 9.99,-4.578 13.304,-8.899 2.229,-2.906 3.94,-6.375 4.674,-9.986 C -0.227,3.769 -0.114,1.871 0,0"
             style="fill:#231f20;fill-opacity:1;fill-rule:evenodd;stroke:none"
             id="path3227" />
        </g>
        <g
           id="g3229"
           transform="translate(523.134,410.2243)">
          <path
             inkscape:connector-curvature="0"
             d="m 0,0 -2.693,-0.002 -3.502,-5.588 -3.457,5.586 -2.744,0 5.084,-8.179 0.004,-6.299 2.285,0.002 -0.004,6.298 L 0,0 z m -10.459,-14.482 0,2.134 -6.705,-0.003 -0.008,12.343 -2.285,-0.002 0.008,-14.478 8.99,0.006 z m -12.392,-0.006 -0.008,14.478 -2.285,0 0.004,-9.248 -5.287,9.244 -2.286,-0.002 0.006,-14.478 2.285,0.002 -0.004,9.805 5.542,-9.803 2.033,0.002 z m -15.295,7.205 c 0.002,-1.117 -0.252,-2.539 -0.557,-3.301 -0.508,-1.269 -1.168,-1.83 -2.234,-1.83 -0.914,0 -1.524,0.356 -1.981,1.117 -0.56,0.914 -0.865,2.489 -0.867,4.012 0,1.221 0.203,2.541 0.557,3.404 0.508,1.27 1.22,1.828 2.338,1.778 0.863,-0.051 1.422,-0.354 1.879,-1.116 0.56,-0.964 0.865,-2.437 0.865,-4.064 m 2.287,0 c -0.002,1.83 -0.358,3.658 -0.969,4.928 -0.914,1.781 -2.183,2.591 -4.014,2.589 -1.675,0 -2.843,-0.507 -3.707,-1.626 -0.964,-1.374 -1.574,-3.506 -1.572,-5.895 0,-1.727 0.408,-3.656 1.018,-4.875 0.865,-1.779 2.135,-2.598 4.168,-2.598 1.523,0.002 2.691,0.518 3.504,1.637 1.015,1.27 1.572,3.555 1.572,5.84"
             style="fill:#231f20;fill-opacity:1;fill-rule:evenodd;stroke:none"
             id="path3231" />
        </g>
      </g>
    </g>
  </g>
</svg>
