<?xml version="1.0" encoding="UTF-8" standalone="no"?>
<!-- Created with Inkscape (http://www.inkscape.org/) -->

<svg
   xmlns:dc="http://purl.org/dc/elements/1.1/"
   xmlns:cc="http://creativecommons.org/ns#"
   xmlns:rdf="http://www.w3.org/1999/02/22-rdf-syntax-ns#"
   xmlns:svg="http://www.w3.org/2000/svg"
   xmlns="http://www.w3.org/2000/svg"
   xmlns:sodipodi="http://sodipodi.sourceforge.net/DTD/sodipodi-0.dtd"
   xmlns:inkscape="http://www.inkscape.org/namespaces/inkscape"
   width="90.625"
   height="90.625"
   id="svg7479"
   version="1.1"
   inkscape:version="0.48.3.1 r9886"
   sodipodi:docname="New document 48">
  <defs
     id="defs7481">
    <clipPath
       clipPathUnits="userSpaceOnUse"
       id="clipPath4221">
      <path
         inkscape:connector-curvature="0"
         d="m 27,68.027 513.674,0 0,669.974 -513.674,0 0,-669.974 z"
         id="path4223" />
    </clipPath>
  </defs>
  <sodipodi:namedview
     id="base"
     pagecolor="#ffffff"
     bordercolor="#666666"
     borderopacity="1.0"
     inkscape:pageopacity="0.0"
     inkscape:pageshadow="2"
     inkscape:zoom="0.35"
     inkscape:cx="45.3125"
     inkscape:cy="45.312502"
     inkscape:document-units="px"
     inkscape:current-layer="layer1"
     showgrid="false"
     fit-margin-top="0"
     fit-margin-left="0"
     fit-margin-right="0"
     fit-margin-bottom="0"
     inkscape:window-width="451"
     inkscape:window-height="415"
     inkscape:window-x="75"
     inkscape:window-y="75"
     inkscape:window-maximized="0" />
  <metadata
     id="metadata7484">
    <rdf:RDF>
      <cc:Work
         rdf:about="">
        <dc:format>image/svg+xml</dc:format>
        <dc:type
           rdf:resource="http://purl.org/dc/dcmitype/StillImage" />
        <dc:title></dc:title>
      </cc:Work>
    </rdf:RDF>
  </metadata>
  <g
     inkscape:label="Layer 1"
     inkscape:groupmode="layer"
     id="layer1"
     transform="translate(-329.6875,-487.04969)">
    <g
       transform="matrix(1.25,0,0,-1.25,2.095,916.07631)"
       id="g4217">
      <g
         id="g4219"
         clip-path="url(#clipPath4221)">
        <g
           id="g4225"
           transform="translate(266.824,342.9713)">
          <path
             inkscape:connector-curvature="0"
             d="m 0,0 63,0 c 2.478,0 4.5,-2.022 4.5,-4.502 l 0,-62.998 c 0,-2.479 -2.022,-4.5 -4.5,-4.5 l -63,0 c -2.479,0 -4.5,2.021 -4.5,4.5 l 0,62.998 C -4.5,-2.022 -2.479,0 0,0"
             style="fill:#ffffff;fill-opacity:1;fill-rule:nonzero;stroke:none"
             id="path4227" />
        </g>
        <g
           id="g4229"
           transform="translate(266.824,342.9713)">
          <path
             inkscape:connector-curvature="0"
             d="m 0,0 63,0 c 2.478,0 4.5,-2.022 4.5,-4.502 l 0,-62.998 c 0,-2.479 -2.022,-4.5 -4.5,-4.5 l -63,0 c -2.479,0 -4.5,2.021 -4.5,4.5 l 0,62.998 C -4.5,-2.022 -2.479,0 0,0 z"
             style="fill:none;stroke:#231f20;stroke-width:0.5;stroke-linecap:butt;stroke-linejoin:miter;stroke-miterlimit:4;stroke-opacity:1;stroke-dasharray:none"
             id="path4231" />
        </g>
        <g
           id="g4233"
           transform="translate(266.839,341.7703)">
          <path
             inkscape:connector-curvature="0"
             d="m 0,0 24.254,0 34.678,0 c 1.783,0 4.562,0.49 6.086,-0.706 1.693,-1.33 1.268,-3.771 1.268,-5.664 l 0,-33.699 0,-26.131 c 0,-2.261 -1.809,-3.398 -3.866,-3.398 l -10.474,0 -37.481,0 -12.722,0 c -2.008,0 -4.254,0.019 -4.932,2.398 -0.192,0.678 -0.127,1.432 -0.127,2.131 l 0,4.633 0,16.279 0,35.588 c 0,2.754 -1.01,8.551 3.316,8.569"
             style="fill:#231f20;fill-opacity:1;fill-rule:evenodd;stroke:none"
             id="path4235" />
        </g>
        <g
           id="g4237"
           transform="translate(266.863,339.9713)">
          <path
             inkscape:connector-curvature="0"
             d="m 0,0 24.318,0 34.658,0 3.549,0 c 0.502,0 0.975,-0.006 1.385,-0.344 1.029,-0.848 0.551,-3.248 0.551,-4.352 l 0,-33.877 0,-25.836 C 64.461,-66.1 62.812,-66 61.59,-66 l -17.032,0 -7.949,0 -1.928,0 -2.324,0 -1.912,0 -30.389,0 c -1.386,0 -1.595,1.162 -1.595,2.269 l 0,10.959 0,37.574 0,12.252 c 0,1.098 -0.201,2.694 1.271,2.926 C -0.18,-0.006 -0.09,0 0,0"
             style="fill:#ffffff;fill-opacity:1;fill-rule:evenodd;stroke:none"
             id="path4239" />
        </g>
        <path
           inkscape:connector-curvature="0"
           d="m 299.703,305.084 1.798,0 0,-31.109 -1.798,0 0,31.109 z"
           style="fill:#231f20;fill-opacity:1;fill-rule:evenodd;stroke:none"
           id="path4241" />
        <g
           id="g4243"
           transform="translate(320.14,326.8773)">
          <path
             inkscape:connector-curvature="0"
             d="m 0,0 0,-44.566 -5.113,0 0,13.824 c 0,4.677 -1.367,9.322 -3.852,13.318 -2.16,3.42 -5.004,6.336 -8.134,8.891 l -1.909,1.584 -1.007,-3.203 c -0.038,-0.108 -0.073,-0.18 -0.11,-0.252 -0.287,-0.397 -0.791,-0.577 -1.223,-0.36 -0.216,0.073 -0.503,0.287 -0.541,0.504 L -26.027,0.9 -14.221,0.828 c 0.18,0 0.432,-0.072 0.577,-0.217 0.396,-0.287 0.576,-0.791 0.359,-1.222 -0.07,-0.182 -0.18,-0.289 -0.322,-0.397 l -2.342,-1.836 1.873,-1.224 c 2.375,-1.549 4.463,-3.455 6.301,-5.58 1.008,-1.116 1.836,-2.305 2.662,-3.528 l 0,13.176 -3.059,-0.973 c -0.037,0 -0.109,0 -0.179,-0.035 l -0.11,0 c -0.179,0.035 -0.359,0.072 -0.539,0.18 -0.324,0.217 -0.504,0.611 -0.469,0.972 0.037,0.143 0.073,0.323 0.145,0.432 l 6.767,9.791 6.698,-9.756 C 4.248,0.396 4.32,0.215 4.32,0 c 0,-0.504 -0.361,-0.9 -0.865,-1.008 -0.142,-0.037 -0.324,0 -0.467,0.035 L 0,0 z"
             style="fill:#231f20;fill-opacity:1;fill-rule:evenodd;stroke:none"
             id="path4245" />
        </g>
        <g
           id="g4247"
           transform="translate(291.232,298.7623)">
          <path
             inkscape:connector-curvature="0"
             d="m 0,0 -0.035,-7.451 -5.258,0 0,7.451 c 0,1.906 -0.504,3.779 -1.475,5.398 -1.117,1.908 -2.808,3.457 -4.789,4.393 -0.863,0.396 -1.763,0.611 -2.664,0.828 l 0,-3.168 c 0,-0.108 0,-0.217 -0.035,-0.324 -0.18,-0.504 -0.611,-0.828 -1.117,-0.756 -0.252,0 -0.504,0.107 -0.647,0.287 l -7.812,9.756 11.808,3.709 c 0.18,0.072 0.432,0.072 0.647,0 0.469,-0.145 0.793,-0.649 0.721,-1.153 0,-0.179 -0.108,-0.359 -0.217,-0.539 l -1.836,-2.664 c 1.693,-0.504 3.42,-1.008 4.934,-1.945 1.584,-1.008 3.023,-2.268 4.21,-3.744 C -2.088,8.242 -0.936,6.011 -0.432,3.672 -0.145,2.482 -0.072,1.222 0,0"
             style="fill:#231f20;fill-opacity:1;fill-rule:evenodd;stroke:none"
             id="path4249" />
        </g>
        <g
           id="g4251"
           transform="translate(298.503,287.7813)">
          <path
             inkscape:connector-curvature="0"
             d="m 0,0 -1.763,0 -2.34,-3.707 -2.34,3.707 -1.836,0 3.42,-5.435 0,-4.211 1.512,0 0,4.211 L 0,0 z m -8.459,-9.646 0,1.402 -4.464,0 0,8.244 -1.512,0 0,-9.646 5.976,0 z m -7.705,0 0,9.646 -1.511,0 0,-6.156 -3.528,6.156 -1.549,0 0,-9.646 1.549,0 0,6.551 3.672,-6.551 1.367,0 z m -9.648,4.822 c 0,-0.756 -0.18,-1.727 -0.359,-2.23 -0.36,-0.829 -0.791,-1.225 -1.512,-1.225 -0.612,0 -1.008,0.252 -1.332,0.756 -0.36,0.611 -0.576,1.656 -0.576,2.699 0,0.793 0.144,1.693 0.396,2.27 0.324,0.828 0.791,1.222 1.547,1.187 0.576,-0.037 0.937,-0.252 1.262,-0.756 0.359,-0.648 0.574,-1.621 0.574,-2.701 m 1.514,0 c 0,1.225 -0.217,2.412 -0.649,3.277 -0.576,1.188 -1.439,1.729 -2.664,1.729 -1.117,0 -1.908,-0.324 -2.484,-1.08 -0.649,-0.938 -1.043,-2.342 -1.043,-3.926 0,-1.187 0.252,-2.447 0.683,-3.275 0.577,-1.188 1.405,-1.729 2.772,-1.729 1.008,0 1.801,0.324 2.34,1.08 0.683,0.865 1.045,2.377 1.045,3.924"
             style="fill:#231f20;fill-opacity:1;fill-rule:evenodd;stroke:none"
             id="path4253" />
        </g>
      </g>
    </g>
  </g>
</svg>
