<?xml version="1.0" encoding="UTF-8" standalone="no"?>
<!-- Created with Inkscape (http://www.inkscape.org/) -->

<svg
   xmlns:dc="http://purl.org/dc/elements/1.1/"
   xmlns:cc="http://creativecommons.org/ns#"
   xmlns:rdf="http://www.w3.org/1999/02/22-rdf-syntax-ns#"
   xmlns:svg="http://www.w3.org/2000/svg"
   xmlns="http://www.w3.org/2000/svg"
   xmlns:sodipodi="http://sodipodi.sourceforge.net/DTD/sodipodi-0.dtd"
   xmlns:inkscape="http://www.inkscape.org/namespaces/inkscape"
   width="108.63281"
   height="72.65625"
   id="svg8272"
   version="1.1"
   inkscape:version="0.48.3.1 r9886"
   sodipodi:docname="New document 66">
  <defs
     id="defs8274">
    <clipPath
       clipPathUnits="userSpaceOnUse"
       id="clipPath4009">
      <path
         inkscape:connector-curvature="0"
         d="m 27,68.027 513.674,0 0,669.974 -513.674,0 0,-669.974 z"
         id="path4011" />
    </clipPath>
  </defs>
  <sodipodi:namedview
     id="base"
     pagecolor="#ffffff"
     bordercolor="#666666"
     borderopacity="1.0"
     inkscape:pageopacity="0.0"
     inkscape:pageshadow="2"
     inkscape:zoom="0.35"
     inkscape:cx="54.320943"
     inkscape:cy="36.328127"
     inkscape:document-units="px"
     inkscape:current-layer="layer1"
     showgrid="false"
     fit-margin-top="0"
     fit-margin-left="0"
     fit-margin-right="0"
     fit-margin-bottom="0"
     inkscape:window-width="451"
     inkscape:window-height="415"
     inkscape:window-x="125"
     inkscape:window-y="125"
     inkscape:window-maximized="0" />
  <metadata
     id="metadata8277">
    <rdf:RDF>
      <cc:Work
         rdf:about="">
        <dc:format>image/svg+xml</dc:format>
        <dc:type
           rdf:resource="http://purl.org/dc/dcmitype/StillImage" />
        <dc:title></dc:title>
      </cc:Work>
    </rdf:RDF>
  </metadata>
  <g
     inkscape:label="Layer 1"
     inkscape:groupmode="layer"
     id="layer1"
     transform="translate(-320.67906,-496.03406)">
    <g
       transform="matrix(1.25,0,0,-1.25,280.60762,671.83506)"
       id="g4005">
      <g
         id="g4007"
         clip-path="url(#clipPath4009)">
        <g
           id="g4013"
           transform="translate(118.7134,87.5783)">
          <path
             inkscape:connector-curvature="0"
             d="m 0,0 0,0 0,48 c 0,2.651 -2.146,4.801 -4.798,4.801 l -76.801,0 c -2.65,0 -4.8,-2.15 -4.8,-4.801 l 0,-47.933 0,-0.067 c 0,-2.654 2.15,-4.801 4.8,-4.801 l 76.801,0 C -2.149,-4.801 0,-2.65 0,0"
             style="fill:#ffffff;fill-opacity:1;fill-rule:evenodd;stroke:none"
             id="path4015" />
        </g>
        <g
           id="g4017"
           transform="translate(118.7134,87.5783)">
          <path
             inkscape:connector-curvature="0"
             d="m 0,0 0,0 0,48 c 0,2.651 -2.146,4.801 -4.798,4.801 l -76.801,0 c -2.65,0 -4.8,-2.15 -4.8,-4.801 l 0,-47.933 0,-0.067 c 0,-2.654 2.15,-4.801 4.8,-4.801 l 76.801,0 C -2.149,-4.801 0,-2.65 0,0 z"
             style="fill:none;stroke:#231f20;stroke-width:0.5;stroke-linecap:butt;stroke-linejoin:miter;stroke-miterlimit:2.61299992;stroke-opacity:1;stroke-dasharray:none"
             id="path4019" />
        </g>
        <g
           id="g4021"
           transform="translate(117.7554,87.5963)">
          <path
             inkscape:connector-curvature="0"
             d="m 0,0 0,0 0,47.965 c 0,2.121 -1.717,3.837 -3.836,3.837 l -76.809,0 c -2.121,0 -3.838,-1.716 -3.838,-3.837 l 0,-47.965 c 0,-2.123 1.717,-3.838 3.838,-3.838 l 76.809,0 C -1.719,-3.838 0,-2.119 0,0"
             style="fill:#bf2519;fill-opacity:1;fill-rule:evenodd;stroke:none"
             id="path4023" />
        </g>
        <g
           id="g4025"
           transform="translate(66.7788,93.4773)">
          <path
             inkscape:connector-curvature="0"
             d="m 0,0 2.03,14.394 -2.282,0 -1.064,-7.646 -1.885,7.646 -2.113,0 -1.899,-7.744 -1.086,7.744 -2.265,0 L -8.566,0 -6.516,0 -4.25,9.25 -2.001,0 0,0 z"
             style="fill:#ffffff;fill-opacity:1;fill-rule:evenodd;stroke:none"
             id="path4027" />
        </g>
        <g
           id="g4029"
           transform="translate(54.1792,115.0593)">
          <path
             inkscape:connector-curvature="0"
             d="m 0,0 2.029,14.394 -2.281,0 -1.064,-7.644 -1.885,7.644 -2.114,0 -1.902,-7.746 -1.082,7.746 -2.266,0 L -8.566,0 -6.516,0 -4.25,9.248 -2.002,0 0,0 z"
             style="fill:#ffffff;fill-opacity:1;fill-rule:evenodd;stroke:none"
             id="path4031" />
        </g>
        <g
           id="g4033"
           transform="translate(89.8403,99.7733)">
          <path
             inkscape:connector-curvature="0"
             d="m 0,0 4.942,8.098 -2.638,0 -3.44,-5.6 -3.437,5.6 -2.637,0 4.957,-8.115 0,-6.283 L 0,-6.3 0,0 z"
             style="fill:#ffffff;fill-opacity:1;fill-rule:evenodd;stroke:none"
             id="path4035" />
        </g>
        <g
           id="g4037"
           transform="translate(74.6528,107.8712)">
          <path
             inkscape:connector-curvature="0"
             d="m 0,0 -4.95,-14.398 2.383,0 1.584,4.65 4.132,0 1.569,-4.65 2.367,0 L 2.216,0 0,0 z"
             style="fill:#ffffff;fill-opacity:1;fill-rule:evenodd;stroke:none"
             id="path4039" />
        </g>
        <g
           id="g4041"
           transform="translate(76.2856,129.6843)">
          <path
             inkscape:connector-curvature="0"
             d="m 0,0 c -1.526,0 -2.858,-0.549 -3.691,-1.868 -1.013,-1.605 -1.372,-3.693 -1.372,-5.562 0,-1.867 0.355,-3.949 1.365,-5.549 0.847,-1.336 2.144,-1.881 3.698,-1.881 1.531,0 2.853,0.545 3.688,1.867 1.016,1.604 1.376,3.688 1.376,5.563 0,1.933 -0.376,4.008 -1.423,5.666 C 2.874,-0.553 1.383,0 0,0"
             style="fill:#ffffff;fill-opacity:1;fill-rule:evenodd;stroke:none"
             id="path4043" />
        </g>
        <g
           id="g4045"
           transform="translate(107.4136,119.4553)">
          <path
             inkscape:connector-curvature="0"
             d="m 0,0 0,2.9 -4.74,0 0,-2.359 2.478,0 0,-0.541 c 0,-1.115 -0.82,-2.105 -1.912,-2.324 -1.226,-0.246 -2.375,0.492 -2.773,1.652 -0.383,1.11 -0.5,2.326 -0.5,3.487 0.003,1.179 0.174,2.378 0.552,3.5 0.271,0.808 0.912,1.431 1.756,1.615 0.843,0.181 1.741,-0.114 2.305,-0.772 0.275,-0.32 0.422,-0.672 0.523,-1.078 l 2.157,0.713 C -0.313,7.275 -0.473,7.74 -0.757,8.162 -2.025,10.059 -4.46,10.742 -6.539,9.822 -7.737,9.291 -8.667,8.268 -9.059,7.018 -9.293,6.264 -9.455,5.477 -9.569,4.693 -9.775,3.311 -9.752,1.879 -9.504,0.498 c 0.287,-1.603 0.693,-3.144 2.071,-4.176 1.301,-0.976 3.07,-1.203 4.576,-0.59 C -1.148,-3.568 0,-1.846 0,0"
             style="fill:#ffffff;fill-opacity:1;fill-rule:evenodd;stroke:none"
             id="path4047" />
        </g>
        <g
           id="g4049"
           transform="translate(68.5815,115.0533)">
          <path
             inkscape:connector-curvature="0"
             d="m 0,0 -2.551,6.668 c 0.735,0.386 1.223,0.754 1.69,1.476 C 0,9.482 -0.01,11.259 -0.892,12.584 -1.64,13.705 -2.918,14.4 -4.267,14.4 l -5.399,0 0,-14.4 2.25,0 0,6.301 2.58,0 L -2.416,0 0,0 z"
             style="fill:#ffffff;fill-opacity:1;fill-rule:evenodd;stroke:none"
             id="path4051" />
        </g>
        <g
           id="g4053"
           transform="translate(87.0034,129.4102)">
          <path
             inkscape:connector-curvature="0"
             d="m 0,0 -2.217,0 0,-14.357 2.248,0 0,9.656 5.416,-9.656 2,0 0,14.392 -2.248,0 0,-9.324 L 0,0 z"
             style="fill:#ffffff;fill-opacity:1;fill-rule:evenodd;stroke:none"
             id="path4055" />
        </g>
        <g
           id="g4057"
           transform="translate(76.2856,127.4373)">
          <path
             inkscape:connector-curvature="0"
             d="m 0,0 c 0.929,0 1.64,-0.488 2.052,-1.308 0.581,-1.154 0.763,-2.6 0.763,-3.875 0,-1.438 -0.304,-4.42 -1.913,-5.02 -0.788,-0.293 -1.811,-0.222 -2.423,0.403 -1.28,1.306 -1.421,4.248 -1.216,5.963 0.135,1.103 0.396,2.443 1.216,3.267 C -1.125,-0.171 -0.552,0 0,0"
             style="fill:#bf2519;fill-opacity:1;fill-rule:evenodd;stroke:none"
             id="path4059" />
        </g>
        <g
           id="g4061"
           transform="translate(61.1655,123.6023)">
          <path
             inkscape:connector-curvature="0"
             d="M 0,0 0,3.599 3.149,3.585 C 3.746,3.582 4.309,3.289 4.639,2.789 5.03,2.199 5.025,1.396 4.637,0.808 4.313,0.312 3.744,0 3.149,0 L 0,0 z"
             style="fill:#bf2519;fill-opacity:1;fill-rule:evenodd;stroke:none"
             id="path4063" />
        </g>
        <g
           id="g4065"
           transform="translate(75.7515,104.1563)">
          <path
             inkscape:connector-curvature="0"
             d="m 0,0 1.285,-3.783 -2.586,0 L 0,0 z"
             style="fill:#bf2519;fill-opacity:1;fill-rule:evenodd;stroke:none"
             id="path4067" />
        </g>
      </g>
    </g>
  </g>
</svg>
