<?xml version="1.0" encoding="UTF-8" standalone="no"?>
<!-- Created with Inkscape (http://www.inkscape.org/) -->

<svg
   xmlns:dc="http://purl.org/dc/elements/1.1/"
   xmlns:cc="http://creativecommons.org/ns#"
   xmlns:rdf="http://www.w3.org/1999/02/22-rdf-syntax-ns#"
   xmlns:svg="http://www.w3.org/2000/svg"
   xmlns="http://www.w3.org/2000/svg"
   xmlns:sodipodi="http://sodipodi.sourceforge.net/DTD/sodipodi-0.dtd"
   xmlns:inkscape="http://www.inkscape.org/namespaces/inkscape"
   width="72.617188"
   height="36.367188"
   id="svg4204"
   version="1.1"
   inkscape:version="0.48.3.1 r9886"
   sodipodi:docname="New document 7">
  <defs
     id="defs4206">
    <clipPath
       clipPathUnits="userSpaceOnUse"
       id="clipPath3353">
      <path
         inkscape:connector-curvature="0"
         d="m 63,426.809 513.25,0 0,311.191 L 63,738 63,426.809 z"
         id="path3355" />
    </clipPath>
  </defs>
  <sodipodi:namedview
     id="base"
     pagecolor="#ffffff"
     bordercolor="#666666"
     borderopacity="1.0"
     inkscape:pageopacity="0.0"
     inkscape:pageshadow="2"
     inkscape:zoom="0.35"
     inkscape:cx="36.304683"
     inkscape:cy="18.179655"
     inkscape:document-units="px"
     inkscape:current-layer="layer1"
     showgrid="false"
     fit-margin-top="0"
     fit-margin-left="0"
     fit-margin-right="0"
     fit-margin-bottom="0"
     inkscape:window-width="451"
     inkscape:window-height="415"
     inkscape:window-x="125"
     inkscape:window-y="125"
     inkscape:window-maximized="0" />
  <metadata
     id="metadata4209">
    <rdf:RDF>
      <cc:Work
         rdf:about="">
        <dc:format>image/svg+xml</dc:format>
        <dc:type
           rdf:resource="http://purl.org/dc/dcmitype/StillImage" />
        <dc:title></dc:title>
      </cc:Work>
    </rdf:RDF>
  </metadata>
  <g
     inkscape:label="Layer 1"
     inkscape:groupmode="layer"
     id="layer1"
     transform="translate(-338.69532,-514.17465)">
    <g
       transform="matrix(1.25,0,0,-1.25,126.71963,1354.8174)"
       id="g3349">
      <g
         id="g3351"
         clip-path="url(#clipPath3353)">
        <g
           id="g3357"
           transform="translate(173.4243,672.2642)">
          <path
             inkscape:connector-curvature="0"
             d="M 0,0 50.4,0 C 52.383,0 54,-1.617 54,-3.6 L 54,-25 c 0,-1.983 -1.617,-3.6 -3.6,-3.6 l -50.4,0 c -1.982,0 -3.6,1.617 -3.6,3.6 l 0,21.4 C -3.6,-1.617 -1.982,0 0,0"
             style="fill:#ffffff;fill-opacity:1;fill-rule:nonzero;stroke:none"
             id="path3359" />
        </g>
        <g
           id="g3361"
           transform="translate(173.4243,672.2642)">
          <path
             inkscape:connector-curvature="0"
             d="M 0,0 50.4,0 C 52.383,0 54,-1.617 54,-3.6 L 54,-25 c 0,-1.983 -1.617,-3.6 -3.6,-3.6 l -50.4,0 c -1.982,0 -3.6,1.617 -3.6,3.6 l 0,21.4 C -3.6,-1.617 -1.982,0 0,0 z"
             style="fill:none;stroke:#231f20;stroke-width:0.5;stroke-linecap:butt;stroke-linejoin:miter;stroke-miterlimit:4;stroke-opacity:1;stroke-dasharray:none"
             id="path3363" />
        </g>
        <g
           id="g3365"
           transform="translate(173.437,671.3047)">
          <path
             inkscape:connector-curvature="0"
             d="m 0,0 19.404,0 27.741,0 c 1.428,0 3.651,0.392 4.87,-0.565 1.355,-1.063 1.014,-3.016 1.014,-4.53 l 0,-2.961 0,-15.905 c 0,-1.809 -1.448,-2.719 -3.093,-2.719 l -8.379,0 -29.985,0 -10.178,0 c -1.606,0 -3.404,0.016 -3.946,1.919 -0.153,0.542 -0.1,1.145 -0.1,1.705 l 0,3.708 0,8.021 0,4.473 c 0,2.203 -0.809,6.84 2.652,6.854"
             style="fill:#231f20;fill-opacity:1;fill-rule:evenodd;stroke:none"
             id="path3367" />
        </g>
        <g
           id="g3369"
           transform="translate(173.4556,669.8643)">
          <path
             inkscape:connector-curvature="0"
             d="m 0,0 19.455,0 27.727,0 2.839,0 c 0.401,0 0.78,-0.003 1.108,-0.274 0.823,-0.679 0.44,-2.598 0.44,-3.481 l 0,-3.103 0,-15.669 c 0,-1.062 -0.875,-1.273 -1.741,-1.273 l -8.587,0 -30.044,0 -9.967,0 c -0.89,0 -2.18,-0.2 -2.436,0.959 -0.096,0.438 -0.024,0.955 -0.024,1.397 l 0,3.867 0,8.22 0,4.279 0,3.805 C -1.23,-0.581 -0.719,0.011 0,0"
             style="fill:#ffffff;fill-opacity:1;fill-rule:evenodd;stroke:none"
             id="path3371" />
        </g>
        <g
           id="g3373"
           transform="translate(221.8695,665.5674)">
          <path
             inkscape:connector-curvature="0"
             d="M 0,0 C 0,-0.37 -0.034,-0.707 -0.068,-1.01 -0.136,-1.38 -0.354,-1.7 -0.758,-1.7 l -0.571,0 0,3.451 0.571,0 c 0.304,0 0.505,-0.152 0.622,-0.488 C -0.051,1.06 0,0.538 0,0 m 0.672,0.034 c 0,0.37 -0.05,0.79 -0.117,1.144 -0.084,0.489 -0.285,0.859 -0.571,1.06 -0.169,0.136 -0.371,0.186 -0.776,0.186 l -1.227,0 0,-4.798 1.329,0 c 0.268,0 0.505,0.068 0.674,0.219 0.469,0.371 0.688,1.078 0.688,2.189 m -3.5,-2.408 0,0.674 -1.748,0 0,1.582 0.992,0 0,0.656 -0.992,0 0,1.213 1.564,0 0,0.673 -2.254,0 0,-4.798 2.438,0 z m -3.246,1.314 c 0,0.69 -0.403,1.211 -1.328,1.75 -0.356,0.202 -0.455,0.336 -0.455,0.573 0,0.319 0.252,0.555 0.572,0.555 0.303,0 0.537,-0.219 0.555,-0.555 l 0.656,0 c -0.018,0.724 -0.538,1.245 -1.211,1.245 -0.691,0 -1.229,-0.556 -1.229,-1.245 0,-0.422 0.202,-0.792 0.589,-1.061 0.976,-0.657 0.706,-0.471 0.808,-0.572 0.286,-0.219 0.387,-0.422 0.387,-0.69 0,-0.388 -0.304,-0.724 -0.672,-0.724 -0.473,0 -0.674,0.421 -0.674,0.825 l -0.674,0 c 0,-0.792 0.505,-1.501 1.348,-1.501 0.738,0 1.328,0.625 1.328,1.4 m -4.055,1.094 c 0,-0.556 -0.033,-0.842 -0.152,-1.229 -0.117,-0.404 -0.303,-0.589 -0.589,-0.589 -0.303,0 -0.487,0.185 -0.604,0.589 -0.102,0.387 -0.152,0.69 -0.152,1.212 0,0.539 0.032,0.859 0.152,1.229 0.117,0.403 0.301,0.589 0.604,0.589 0.286,0 0.472,-0.186 0.589,-0.606 0.101,-0.353 0.152,-0.656 0.152,-1.195 m 0.656,0 c 0,0.723 -0.067,1.178 -0.269,1.65 -0.235,0.588 -0.571,0.824 -1.128,0.824 -0.555,0 -0.891,-0.236 -1.144,-0.808 -0.201,-0.454 -0.268,-0.943 -0.268,-1.666 0,-0.741 0.067,-1.196 0.268,-1.667 0.237,-0.573 0.573,-0.827 1.144,-0.827 0.539,0 0.893,0.254 1.128,0.827 0.202,0.455 0.269,0.926 0.269,1.667 m -3.381,-2.408 0,0.641 -1.75,0 0,4.157 -0.691,0 0,-4.798 2.441,0 z m -3.383,3.519 c -0.05,0.437 -0.117,0.639 -0.303,0.875 -0.219,0.32 -0.555,0.488 -0.942,0.488 -0.943,0 -1.43,-0.824 -1.43,-2.373 0,-1.768 0.455,-2.595 1.481,-2.595 0.672,0 1.178,0.575 1.194,1.365 l -0.689,0 c 0,-0.353 -0.101,-0.689 -0.505,-0.689 -0.588,0 -0.825,0.555 -0.825,1.935 0,1.246 0.201,1.684 0.758,1.684 0.318,0 0.505,-0.219 0.572,-0.69 l 0.689,0 z m -5.771,-3.519 -1.11,3.115 0.992,1.683 -0.791,0 -1.094,-1.919 0,1.919 -0.688,0 0,-4.798 0.688,0 0,1.533 0.438,0.807 0.843,-2.34 0.722,0 z m -3.347,0 0,0.641 -1.75,0 0,4.157 -0.691,0 0,-4.798 2.441,0 z m -4.291,1.987 -0.69,0 0.336,1.38 0.354,-1.38 z m 1.194,-1.987 -1.194,4.798 -0.674,0 -1.194,-4.798 0.69,0 0.32,1.314 1.026,0 0.337,-1.314 0.689,0 z m -3.349,4.798 -0.672,0 -0.42,-2.559 -0.455,2.559 -0.539,0 -0.47,-2.559 -0.405,2.559 -0.671,0 0.755,-4.798 0.607,0 0.454,2.509 0.454,-2.509 0.589,0 0.773,4.798 z m -4.07,-4.798 0,0.674 -1.75,0 0,1.582 0.992,0 0,0.656 -0.992,0 0,1.213 1.564,0 0,0.673 -2.255,0 0,-4.798 2.441,0 z M -39.927,0 c 0,-0.37 -0.034,-0.707 -0.067,-1.01 -0.067,-0.37 -0.286,-0.69 -0.689,-0.69 l -0.573,0 0,3.451 0.573,0 c 0.302,0 0.503,-0.152 0.622,-0.488 0.084,-0.203 0.134,-0.725 0.134,-1.263 m 0.673,0.034 c 0,0.37 -0.051,0.79 -0.117,1.144 -0.085,0.489 -0.286,0.859 -0.572,1.06 -0.169,0.136 -0.37,0.186 -0.775,0.186 l -1.227,0 0,-4.798 1.328,0 c 0.269,0 0.505,0.068 0.674,0.219 0.47,0.371 0.689,1.078 0.689,2.189 m -3.734,2.39 -0.674,0 0,-4.798 0.674,0 0,4.798 z M -44.47,-1.06 c 0,0.69 -0.403,1.211 -1.329,1.75 -0.353,0.202 -0.454,0.336 -0.454,0.573 0,0.319 0.252,0.555 0.573,0.555 0.302,0 0.538,-0.219 0.554,-0.555 l 0.656,0 c -0.016,0.724 -0.538,1.245 -1.21,1.245 -0.691,0 -1.229,-0.556 -1.229,-1.245 0,-0.422 0.202,-0.792 0.589,-1.061 0.975,-0.657 0.707,-0.471 0.807,-0.572 0.287,-0.219 0.387,-0.422 0.387,-0.69 0,-0.388 -0.303,-0.724 -0.673,-0.724 -0.47,0 -0.673,0.421 -0.673,0.825 l -0.672,0 c 0,-0.792 0.503,-1.501 1.345,-1.501 0.741,0 1.329,0.625 1.329,1.4"
             style="fill:#231f20;fill-opacity:1;fill-rule:evenodd;stroke:none"
             id="path3375" />
        </g>
        <g
           id="g3377"
           transform="translate(220.2495,647.6392)">
          <path
             inkscape:connector-curvature="0"
             d="m 0,0 0,0.673 -1.75,0 0,1.582 0.992,0 0,0.657 -0.992,0 0,1.213 1.564,0 0,0.673 -2.254,0 L -2.44,0 0,0 z m -4.055,2.373 c 0,-0.37 -0.034,-0.706 -0.068,-1.01 -0.067,-0.37 -0.286,-0.69 -0.689,-0.69 l -0.572,0 0,3.452 0.572,0 c 0.303,0 0.504,-0.152 0.622,-0.489 0.084,-0.202 0.135,-0.724 0.135,-1.263 m 0.672,0.034 c 0,0.37 -0.05,0.791 -0.117,1.145 -0.084,0.488 -0.286,0.858 -0.571,1.06 -0.169,0.135 -0.371,0.186 -0.774,0.186 l -1.23,0 0,-4.798 1.33,0 c 0.268,0 0.505,0.067 0.674,0.219 0.469,0.37 0.688,1.077 0.688,2.188 m -3.734,2.391 -0.673,0 0,-4.798 0.673,0 0,4.798 z M -8.599,1.313 c 0,0.69 -0.402,1.211 -1.328,1.75 -0.354,0.203 -0.454,0.337 -0.454,0.573 0,0.32 0.251,0.555 0.571,0.555 0.304,0 0.539,-0.218 0.555,-0.555 l 0.656,0 c -0.016,0.723 -0.537,1.245 -1.211,1.245 -0.69,0 -1.227,-0.555 -1.227,-1.245 0,-0.421 0.201,-0.791 0.589,-1.06 0.974,-0.657 0.706,-0.472 0.807,-0.573 0.287,-0.219 0.386,-0.421 0.386,-0.69 0,-0.387 -0.303,-0.724 -0.672,-0.724 -0.471,0 -0.673,0.421 -0.673,0.825 l -0.673,0 c 0,-0.792 0.504,-1.5 1.346,-1.5 0.74,0 1.328,0.625 1.328,1.399 m -6.292,2.205 c 0,-0.388 -0.218,-0.606 -0.623,-0.606 l -0.706,0 0,1.213 0.706,0 c 0.37,0 0.623,-0.237 0.623,-0.607 M -14.217,0 l -0.69,2.356 c 0.454,0.168 0.69,0.59 0.69,1.162 0,0.774 -0.505,1.28 -1.262,1.28 l -1.43,0 0,-4.798 0.689,0 0,2.255 0.657,0 0.638,-2.255 0.708,0 z m -3.5,0 0,0.673 -1.75,0 0,1.582 0.992,0 0,0.657 -0.992,0 0,1.213 1.564,0 0,0.673 -2.253,0 0,-4.798 2.439,0 z m -3.467,0 0,4.798 -0.689,0 0,-1.953 -1.313,0 0,1.953 -0.69,0 0,-4.798 0.69,0 0,2.171 1.313,0 0,-2.171 0.689,0 z m -3.347,4.157 0,0.641 -2.441,0 0,-0.641 0.875,0 0,-4.157 0.691,0 0,4.157 0.875,0 z m -3.685,-1.75 c 0,-0.555 -0.034,-0.842 -0.152,-1.229 -0.117,-0.404 -0.302,-0.589 -0.588,-0.589 -0.303,0 -0.489,0.185 -0.606,0.589 -0.102,0.387 -0.152,0.69 -0.152,1.212 0,0.539 0.033,0.858 0.152,1.229 0.117,0.404 0.303,0.589 0.606,0.589 0.286,0 0.471,-0.185 0.588,-0.606 0.101,-0.354 0.152,-0.656 0.152,-1.195 m 0.656,0 c 0,0.723 -0.068,1.178 -0.269,1.65 -0.236,0.589 -0.572,0.824 -1.127,0.824 -0.557,0 -0.893,-0.235 -1.146,-0.807 -0.201,-0.455 -0.268,-0.944 -0.268,-1.667 0,-0.74 0.067,-1.195 0.268,-1.666 0.237,-0.573 0.574,-0.827 1.146,-0.827 0.537,0 0.891,0.254 1.127,0.827 0.201,0.454 0.269,0.926 0.269,1.666 M -33.819,0 l 0,0.673 -1.749,0 0,1.582 0.992,0 0,0.657 -0.992,0 0,1.213 1.563,0 0,0.673 -2.254,0 0,-4.798 2.44,0 z m -3.248,1.313 c 0,0.69 -0.403,1.211 -1.329,1.75 -0.353,0.203 -0.454,0.337 -0.454,0.573 0,0.32 0.252,0.555 0.572,0.555 0.303,0 0.539,-0.218 0.555,-0.555 l 0.656,0 c -0.016,0.723 -0.537,1.245 -1.211,1.245 -0.69,0 -1.228,-0.555 -1.228,-1.245 0,-0.421 0.201,-0.791 0.589,-1.06 0.976,-0.657 0.706,-0.472 0.808,-0.573 0.286,-0.219 0.386,-0.421 0.386,-0.69 0,-0.387 -0.302,-0.724 -0.673,-0.724 -0.471,0 -0.672,0.421 -0.672,0.825 l -0.674,0 c 0,-0.792 0.505,-1.5 1.346,-1.5 0.741,0 1.329,0.625 1.329,1.399 m -3.465,0.118 0,3.367 -0.69,0 0,-3.452 c 0,-0.454 -0.27,-0.757 -0.639,-0.757 -0.405,0 -0.673,0.303 -0.673,0.757 l 0,3.452 -0.691,0 0,-3.367 c 0,-0.388 0.051,-0.59 0.186,-0.842 0.235,-0.404 0.706,-0.675 1.178,-0.675 0.454,0 0.908,0.289 1.144,0.675 0.134,0.252 0.185,0.454 0.185,0.842"
             style="fill:#231f20;fill-opacity:1;fill-rule:evenodd;stroke:none"
             id="path3379" />
        </g>
        <g
           id="g3381"
           transform="translate(216.7595,655.918)">
          <path
             inkscape:connector-curvature="0"
             d="m 0,0 -0.297,-1.014 c -0.06,-0.213 -0.085,-0.369 0.028,-0.533 0.157,-0.234 0.48,-0.295 0.714,-0.136 L 5.756,1.911 0.445,5.51 C 0.211,5.669 -0.112,5.608 -0.269,5.373 -0.375,5.217 -0.357,5.056 -0.308,4.863 L 0,3.82 l -36.294,0 0.306,1.043 c 0.05,0.193 0.069,0.354 -0.038,0.51 -0.159,0.235 -0.479,0.296 -0.713,0.137 l -5.313,-3.599 5.313,-3.594 c 0.234,-0.159 0.554,-0.098 0.713,0.136 0.112,0.164 0.086,0.32 0.028,0.533 L -36.294,0 0,0 z"
             style="fill:#231f20;fill-opacity:1;fill-rule:evenodd;stroke:none"
             id="path3383" />
        </g>
      </g>
    </g>
  </g>
</svg>
