<?xml version="1.0" encoding="UTF-8" standalone="no"?>
<!-- Created with Inkscape (http://www.inkscape.org/) -->

<svg
   xmlns:dc="http://purl.org/dc/elements/1.1/"
   xmlns:cc="http://creativecommons.org/ns#"
   xmlns:rdf="http://www.w3.org/1999/02/22-rdf-syntax-ns#"
   xmlns:svg="http://www.w3.org/2000/svg"
   xmlns="http://www.w3.org/2000/svg"
   xmlns:sodipodi="http://sodipodi.sourceforge.net/DTD/sodipodi-0.dtd"
   xmlns:inkscape="http://www.inkscape.org/namespaces/inkscape"
   width="73.203125"
   height="55.078125"
   id="svg4328"
   version="1.1"
   inkscape:version="0.48.3.1 r9886"
   sodipodi:docname="New document 9">
  <defs
     id="defs4330" />
  <sodipodi:namedview
     id="base"
     pagecolor="#ffffff"
     bordercolor="#666666"
     borderopacity="1.0"
     inkscape:pageopacity="0.0"
     inkscape:pageshadow="2"
     inkscape:zoom="3.959798"
     inkscape:cx="32.31485"
     inkscape:cy="20.426945"
     inkscape:document-units="px"
     inkscape:current-layer="layer1"
     showgrid="false"
     fit-margin-top="0"
     fit-margin-left="0"
     fit-margin-right="0"
     fit-margin-bottom="0"
     inkscape:window-width="451"
     inkscape:window-height="415"
     inkscape:window-x="175"
     inkscape:window-y="175"
     inkscape:window-maximized="0" />
  <metadata
     id="metadata4333">
    <rdf:RDF>
      <cc:Work
         rdf:about="">
        <dc:format>image/svg+xml</dc:format>
        <dc:type
           rdf:resource="http://purl.org/dc/dcmitype/StillImage" />
        <dc:title></dc:title>
      </cc:Work>
    </rdf:RDF>
  </metadata>
  <g
     inkscape:label="Layer 1"
     inkscape:groupmode="layer"
     id="layer1"
     transform="translate(-338.40312,-504.83218)">
    <g
       id="g3517"
       transform="matrix(1.25,0,0,-1.25,343.24687,505.14468)">
      <path
         d="m 0,0 50.805,0 c 2,0 3.629,-1.63 3.629,-3.629 l 0,-36.29 c 0,-1.999 -1.629,-3.629 -3.629,-3.629 l -50.805,0 c -1.999,0 -3.629,1.63 -3.629,3.629 l 0,36.29 C -3.629,-1.63 -1.999,0 0,0"
         style="fill:#ffffff;fill-opacity:1;fill-rule:nonzero;stroke:none"
         id="path3519"
         inkscape:connector-curvature="0" />
    </g>
    <g
       id="g3521"
       transform="matrix(1.25,0,0,-1.25,343.24687,505.14468)">
      <path
         d="m 0,0 50.805,0 c 2,0 3.629,-1.63 3.629,-3.629 l 0,-36.29 c 0,-1.999 -1.629,-3.629 -3.629,-3.629 l -50.805,0 c -1.999,0 -3.629,1.63 -3.629,3.629 l 0,36.29 C -3.629,-1.63 -1.999,0 0,0 z"
         style="fill:none;stroke:#231f20;stroke-width:0.5;stroke-linecap:butt;stroke-linejoin:miter;stroke-miterlimit:10;stroke-opacity:1;stroke-dasharray:none"
         id="path3523"
         inkscape:connector-curvature="0" />
    </g>
    <g
       id="g3525"
       transform="matrix(1.25,0,0,-1.25,343.26188,506.27868)">
      <path
         d="m 0,0 9.189,0 19.45,0 17.532,0 4.239,0 c 1.506,0 2.969,-0.82 3.094,-2.479 0.084,-1.112 0.012,-2.252 0.012,-3.365 l 0,-8.111 0,-19.359 0,-5.302 c 0,-0.499 -0.014,-0.98 -0.215,-1.452 -0.432,-1.019 -1.428,-1.64 -2.52,-1.666 -3.058,-0.071 -6.128,0 -9.189,0 l -19.449,0 -17.531,0 -4.241,0 c -1.505,0 -2.966,0.82 -3.093,2.48 -0.085,1.111 -0.012,2.251 -0.012,3.364 l 0,8.111 0,19.36 0,5.252 c 0,0.448 -0.003,0.882 0.145,1.315 0.356,1.048 1.335,1.784 2.437,1.848"
         style="fill:#231f20;fill-opacity:1;fill-rule:evenodd;stroke:none"
         id="path3527"
         inkscape:connector-curvature="0" />
    </g>
    <g
       id="g3529"
       transform="matrix(1.25,0,0,-1.25,343.28564,508.16893)">
      <path
         d="m 0,0 9.183,0 19.435,0 17.518,0 4.238,0 c 0.775,0 1.586,-0.258 1.609,-1.193 0.098,-3.889 0.002,-7.791 0.002,-11.68 l 0,-19.28 0,-5.039 c 0,-0.795 -0.359,-1.517 -1.264,-1.517 l -9.904,0 -19.611,0 -17.145,0 -3.847,0 c -0.778,0 -1.454,0.403 -1.454,1.265 l 0,12.49 0,19.062 0,4.354 c 0,0.737 0.283,1.491 1.147,1.536"
         style="fill:#ffffff;fill-opacity:1;fill-rule:evenodd;stroke:none"
         id="path3531"
         inkscape:connector-curvature="0" />
    </g>
    <g
       id="g3533"
       transform="matrix(1.25,0,0,-1.25,346.46438,520.37418)">
      <path
         d="m 0,0 c -0.848,0 -1.357,0.713 -1.357,1.51 l 0.679,0 c 0,-0.407 0.203,-0.831 0.678,-0.831 0.373,0 0.679,0.339 0.679,0.729 0,0.272 -0.102,0.476 -0.391,0.696 -0.101,0.102 0.17,-0.084 -0.814,0.577 -0.39,0.272 -0.594,0.645 -0.594,1.069 0,0.696 0.543,1.256 1.238,1.256 0.679,0 1.205,-0.527 1.222,-1.256 l -0.661,0 C 0.661,4.089 0.424,4.31 0.118,4.31 -0.204,4.31 -0.458,4.072 -0.458,3.75 -0.458,3.513 -0.356,3.377 0,3.173 0.933,2.63 1.34,2.104 1.34,1.408 1.34,0.628 0.746,0 0,0"
         style="fill:#231f20;fill-opacity:1;fill-rule:nonzero;stroke:none"
         id="path3535"
         inkscape:connector-curvature="0" />
    </g>
    <path
       d="m 349.15751,514.22268 0.84749,0 0,6.045 -0.84749,0 0,-6.045 z"
       style="fill:#231f20;fill-opacity:1;fill-rule:nonzero;stroke:none"
       id="path3537"
       inkscape:connector-curvature="0" />
    <g
       id="g3539"
       transform="matrix(1.25,0,0,-1.25,353.71814,515.68668)">
      <path
         d="m 0,0 c -0.119,0.339 -0.322,0.492 -0.628,0.492 l -0.577,0 0,-3.478 0.577,0 c 0.407,0 0.628,0.322 0.695,0.696 0.035,0.305 0.069,0.644 0.069,1.018 C 0.136,-0.729 0.085,-0.204 0,0 m 0.118,-3.444 c -0.169,-0.153 -0.407,-0.221 -0.679,-0.221 l -1.339,0 0,4.836 1.238,0 c 0.407,0 0.611,-0.051 0.78,-0.187 0.289,-0.204 0.492,-0.577 0.577,-1.069 0.069,-0.356 0.119,-0.78 0.119,-1.154 0,-1.119 -0.22,-1.832 -0.696,-2.205"
         style="fill:#231f20;fill-opacity:1;fill-rule:nonzero;stroke:none"
         id="path3541"
         inkscape:connector-curvature="0" />
    </g>
    <g
       id="g3543"
       transform="matrix(1.25,0,0,-1.25,355.92437,520.26793)">
      <path
         d="m 0,0 0,4.836 2.273,0 0,-0.679 -1.578,0 0,-1.222 1.001,0 0,-0.662 -1.001,0 0,-1.594 1.765,0 L 2.46,0 0,0 z"
         style="fill:#231f20;fill-opacity:1;fill-rule:nonzero;stroke:none"
         id="path3545"
         inkscape:connector-curvature="0" />
    </g>
    <g
       id="g3547"
       transform="matrix(1.25,0,0,-1.25,363.15562,520.26793)">
      <path
         d="M 0,0 -0.594,0 -1.052,2.528 -1.51,0 l -0.611,0 -0.763,4.836 0.679,0 0.407,-2.579 0.475,2.579 0.542,0 0.458,-2.579 0.425,2.579 0.679,0 L 0,0 z"
         style="fill:#231f20;fill-opacity:1;fill-rule:nonzero;stroke:none"
         id="path3549"
         inkscape:connector-curvature="0" />
    </g>
    <g
       id="g3551"
       transform="matrix(1.25,0,0,-1.25,366.39938,516.02605)">
      <path
         d="m 0,0 -0.338,-1.392 0.695,0 L 0,0 z m 0.867,-3.393 -0.34,1.323 -1.035,0 -0.323,-1.323 -0.695,0 1.204,4.835 0.679,0 1.205,-4.835 -0.695,0 z"
         style="fill:#231f20;fill-opacity:1;fill-rule:nonzero;stroke:none"
         id="path3553"
         inkscape:connector-curvature="0" />
    </g>
    <g
       id="g3555"
       transform="matrix(1.25,0,0,-1.25,369.178,520.26793)">
      <path
         d="m 0,0 0,4.836 0.696,0 0,-4.192 1.765,0 L 2.461,0 0,0 z"
         style="fill:#231f20;fill-opacity:1;fill-rule:nonzero;stroke:none"
         id="path3557"
         inkscape:connector-curvature="0" />
    </g>
    <g
       id="g3559"
       transform="matrix(1.25,0,0,-1.25,375.58312,520.26793)">
      <path
         d="m 0,0 -0.848,2.358 -0.441,-0.814 0,-1.544 -0.695,0 0,4.836 0.695,0 0,-1.935 1.103,1.935 0.797,0 L -0.39,3.139 0.731,0 0,0 z"
         style="fill:#231f20;fill-opacity:1;fill-rule:nonzero;stroke:none"
         id="path3561"
         inkscape:connector-curvature="0" />
    </g>
    <g
       id="g3563"
       transform="matrix(1.25,0,0,-1.25,383.13437,515.83493)">
      <path
         d="m 0,0 c -0.068,0.475 -0.255,0.696 -0.577,0.696 -0.56,0 -0.764,-0.442 -0.764,-1.698 0,-1.391 0.238,-1.951 0.832,-1.951 0.408,0 0.509,0.34 0.509,0.696 l 0.695,0 C 0.679,-3.054 0.17,-3.631 -0.509,-3.631 c -1.035,0 -1.493,0.831 -1.493,2.613 0,1.561 0.491,2.393 1.442,2.393 0.39,0 0.73,-0.17 0.951,-0.493 C 0.577,0.644 0.645,0.441 0.695,0 L 0,0 z"
         style="fill:#231f20;fill-opacity:1;fill-rule:nonzero;stroke:none"
         id="path3565"
         inkscape:connector-curvature="0" />
    </g>
    <g
       id="g3567"
       transform="matrix(1.25,0,0,-1.25,385.213,520.26793)">
      <path
         d="m 0,0 0,4.836 0.696,0 0,-4.192 1.764,0 L 2.46,0 0,0 z"
         style="fill:#231f20;fill-opacity:1;fill-rule:nonzero;stroke:none"
         id="path3569"
         inkscape:connector-curvature="0" />
    </g>
    <g
       id="g3571"
       transform="matrix(1.25,0,0,-1.25,391.55439,515.72943)">
      <path
         d="m 0,0 c -0.119,0.424 -0.305,0.611 -0.593,0.611 -0.306,0 -0.492,-0.187 -0.612,-0.594 -0.119,-0.373 -0.152,-0.696 -0.152,-1.239 0,-0.525 0.051,-0.831 0.152,-1.221 0.12,-0.408 0.306,-0.594 0.612,-0.594 0.288,0 0.474,0.186 0.593,0.594 0.12,0.39 0.153,0.678 0.153,1.238 C 0.153,-0.662 0.102,-0.356 0,0 m 0.543,-2.884 c -0.237,-0.577 -0.593,-0.832 -1.136,-0.832 -0.577,0 -0.916,0.255 -1.155,0.832 -0.203,0.475 -0.271,0.933 -0.271,1.679 0,0.73 0.068,1.222 0.271,1.681 0.255,0.576 0.594,0.814 1.155,0.814 0.559,0 0.899,-0.238 1.136,-0.832 0.204,-0.475 0.272,-0.933 0.272,-1.663 0,-0.746 -0.068,-1.221 -0.272,-1.679"
         style="fill:#231f20;fill-opacity:1;fill-rule:nonzero;stroke:none"
         id="path3573"
         inkscape:connector-curvature="0" />
    </g>
    <g
       id="g3575"
       transform="matrix(1.25,0,0,-1.25,395.18188,520.37418)">
      <path
         d="m 0,0 c -0.849,0 -1.358,0.713 -1.358,1.51 l 0.679,0 c 0,-0.407 0.203,-0.831 0.679,-0.831 0.373,0 0.678,0.339 0.678,0.729 0,0.272 -0.102,0.476 -0.391,0.696 -0.102,0.102 0.17,-0.084 -0.814,0.577 -0.39,0.272 -0.593,0.645 -0.593,1.069 0,0.696 0.543,1.256 1.237,1.256 0.68,0 1.205,-0.527 1.223,-1.256 l -0.662,0 C 0.66,4.089 0.424,4.31 0.117,4.31 -0.205,4.31 -0.458,4.072 -0.458,3.75 -0.458,3.513 -0.357,3.377 0,3.173 0.931,2.63 1.34,2.104 1.34,1.408 1.34,0.628 0.746,0 0,0"
         style="fill:#231f20;fill-opacity:1;fill-rule:nonzero;stroke:none"
         id="path3577"
         inkscape:connector-curvature="0" />
    </g>
    <g
       id="g3579"
       transform="matrix(1.25,0,0,-1.25,397.87439,520.26793)">
      <path
         d="m 0,0 0,4.836 2.274,0 0,-0.679 -1.579,0 0,-1.222 1.002,0 0,-0.662 -1.002,0 0,-1.594 1.766,0 L 2.461,0 0,0 z"
         style="fill:#231f20;fill-opacity:1;fill-rule:nonzero;stroke:none"
         id="path3581"
         inkscape:connector-curvature="0" />
    </g>
    <g
       id="g3583"
       transform="matrix(1.25,0,0,-1.25,404.34438,515.68668)">
      <path
         d="m 0,0 c -0.119,0.339 -0.324,0.492 -0.629,0.492 l -0.576,0 0,-3.478 0.576,0 c 0.408,0 0.629,0.322 0.695,0.696 0.035,0.305 0.069,0.644 0.069,1.018 C 0.135,-0.729 0.084,-0.204 0,0 m 0.117,-3.444 c -0.17,-0.153 -0.406,-0.221 -0.678,-0.221 l -1.341,0 0,4.836 1.24,0 c 0.406,0 0.609,-0.051 0.779,-0.187 0.289,-0.204 0.492,-0.577 0.578,-1.069 0.066,-0.356 0.117,-0.78 0.117,-1.154 0,-1.119 -0.219,-1.832 -0.695,-2.205"
         style="fill:#231f20;fill-opacity:1;fill-rule:nonzero;stroke:none"
         id="path3585"
         inkscape:connector-curvature="0" />
    </g>
    <g
       id="g3587"
       transform="matrix(1.25,0,0,-1.25,366.398,526.66693)">
      <path
         d="m 0,0 -0.338,-1.392 0.695,0 L 0,0 z m 0.866,-3.394 -0.339,1.324 -1.035,0 -0.323,-1.324 -0.696,0 1.205,4.836 0.679,0 1.204,-4.836 -0.695,0 z"
         style="fill:#231f20;fill-opacity:1;fill-rule:nonzero;stroke:none"
         id="path3589"
         inkscape:connector-curvature="0" />
    </g>
    <g
       id="g3591"
       transform="matrix(1.25,0,0,-1.25,371.70188,530.90881)">
      <path
         d="m 0,0 0,2.189 -1.325,0 0,-2.189 -0.695,0 0,4.836 0.695,0 0,-1.968 1.325,0 0,1.968 0.695,0 L 0.695,0 0,0 z"
         style="fill:#231f20;fill-opacity:1;fill-rule:nonzero;stroke:none"
         id="path3593"
         inkscape:connector-curvature="0" />
    </g>
    <g
       id="g3595"
       transform="matrix(1.25,0,0,-1.25,373.88562,530.90881)">
      <path
         d="m 0,0 0,4.836 2.273,0 0,-0.679 -1.578,0 0,-1.221 1.001,0 0,-0.662 -1.001,0 0,-1.595 1.765,0 L 2.46,0 0,0 z"
         style="fill:#231f20;fill-opacity:1;fill-rule:nonzero;stroke:none"
         id="path3597"
         inkscape:connector-curvature="0" />
    </g>
    <g
       id="g3599"
       transform="matrix(1.25,0,0,-1.25,379.42062,526.66693)">
      <path
         d="m 0,0 -0.339,-1.392 0.695,0 L 0,0 z m 0.866,-3.394 -0.34,1.324 -1.035,0 -0.323,-1.324 -0.695,0 1.205,4.836 0.678,0 1.205,-4.836 -0.695,0 z"
         style="fill:#231f20;fill-opacity:1;fill-rule:nonzero;stroke:none"
         id="path3601"
         inkscape:connector-curvature="0" />
    </g>
    <g
       id="g3603"
       transform="matrix(1.25,0,0,-1.25,384.57562,526.32755)">
      <path
         d="m 0,0 c -0.12,0.339 -0.324,0.492 -0.628,0.492 l -0.578,0 0,-3.478 0.578,0 c 0.407,0 0.628,0.322 0.695,0.695 0.034,0.306 0.068,0.645 0.068,1.019 C 0.135,-0.729 0.083,-0.204 0,0 M 0.118,-3.444 C -0.051,-3.597 -0.29,-3.665 -0.561,-3.665 l -1.341,0 0,4.836 1.239,0 c 0.408,0 0.612,-0.051 0.781,-0.187 0.289,-0.204 0.492,-0.577 0.577,-1.069 0.068,-0.356 0.119,-0.78 0.119,-1.153 0,-1.12 -0.221,-1.833 -0.696,-2.206"
         style="fill:#231f20;fill-opacity:1;fill-rule:nonzero;stroke:none"
         id="path3605"
         inkscape:connector-curvature="0" />
    </g>
    <g
       id="g3607"
       transform="matrix(1.25,0,0,-1.25,356.92687,546.1188)">
      <path
         d="m 0,0 c -0.068,0.475 -0.255,0.696 -0.577,0.696 -0.56,0 -0.763,-0.442 -0.763,-1.697 0,-1.392 0.237,-1.951 0.831,-1.951 0.407,0 0.509,0.339 0.509,0.695 l 0.696,0 c -0.017,-0.797 -0.527,-1.374 -1.205,-1.374 -1.036,0 -1.494,0.831 -1.494,2.613 0,1.561 0.493,2.393 1.443,2.393 0.39,0 0.729,-0.17 0.95,-0.493 C 0.577,0.645 0.645,0.441 0.696,0 L 0,0 z"
         style="fill:#231f20;fill-opacity:1;fill-rule:nonzero;stroke:none"
         id="path3609"
         inkscape:connector-curvature="0" />
    </g>
    <g
       id="g3611"
       transform="matrix(1.25,0,0,-1.25,360.76562,545.3553)">
      <path
         d="m 0,0 -0.712,0 0,-1.222 0.712,0 c 0.407,0 0.628,0.221 0.628,0.611 C 0.628,-0.238 0.374,0 0,0 m 0.593,-4.157 -0.644,2.274 -0.661,0 0,-2.274 -0.697,0 0,4.836 1.443,0 c 0.764,0 1.272,-0.51 1.272,-1.29 0,-0.577 -0.237,-1.001 -0.695,-1.171 l 0.695,-2.375 -0.713,0 z"
         style="fill:#231f20;fill-opacity:1;fill-rule:nonzero;stroke:none"
         id="path3613"
         inkscape:connector-curvature="0" />
    </g>
    <g
       id="g3615"
       transform="matrix(1.25,0,0,-1.25,365.83438,546.01255)">
      <path
         d="m 0,0 c -0.119,0.424 -0.305,0.611 -0.593,0.611 -0.306,0 -0.493,-0.187 -0.612,-0.594 -0.118,-0.374 -0.152,-0.696 -0.152,-1.239 0,-0.526 0.051,-0.831 0.152,-1.221 0.119,-0.408 0.306,-0.594 0.612,-0.594 0.288,0 0.474,0.186 0.593,0.594 0.118,0.39 0.153,0.678 0.153,1.238 C 0.153,-0.662 0.102,-0.357 0,0 m 0.543,-2.885 c -0.237,-0.576 -0.593,-0.831 -1.136,-0.831 -0.578,0 -0.917,0.255 -1.155,0.831 -0.203,0.475 -0.271,0.934 -0.271,1.68 0,0.73 0.068,1.222 0.271,1.68 0.255,0.577 0.594,0.814 1.155,0.814 0.559,0 0.899,-0.237 1.136,-0.831 0.203,-0.475 0.272,-0.933 0.272,-1.663 0,-0.746 -0.069,-1.222 -0.272,-1.68"
         style="fill:#231f20;fill-opacity:1;fill-rule:nonzero;stroke:none"
         id="path3617"
         inkscape:connector-curvature="0" />
    </g>
    <g
       id="g3619"
       transform="matrix(1.25,0,0,-1.25,369.46188,550.65793)">
      <path
         d="m 0,0 c -0.849,0 -1.358,0.713 -1.358,1.51 l 0.679,0 c 0,-0.407 0.203,-0.831 0.679,-0.831 0.373,0 0.678,0.339 0.678,0.73 0,0.271 -0.101,0.475 -0.39,0.695 -0.102,0.102 0.17,-0.085 -0.815,0.577 -0.389,0.272 -0.593,0.645 -0.593,1.069 0,0.696 0.543,1.256 1.238,1.256 0.679,0 1.205,-0.526 1.222,-1.256 l -0.662,0 C 0.661,4.089 0.424,4.31 0.118,4.31 -0.204,4.31 -0.458,4.073 -0.458,3.75 -0.458,3.513 -0.357,3.377 0,3.173 0.932,2.63 1.34,2.104 1.34,1.409 1.34,0.628 0.746,0 0,0"
         style="fill:#231f20;fill-opacity:1;fill-rule:nonzero;stroke:none"
         id="path3621"
         inkscape:connector-curvature="0" />
    </g>
    <g
       id="g3623"
       transform="matrix(1.25,0,0,-1.25,373.55437,550.65793)">
      <path
         d="m 0,0 c -0.849,0 -1.357,0.713 -1.357,1.51 l 0.678,0 c 0,-0.407 0.204,-0.831 0.679,-0.831 0.373,0 0.679,0.339 0.679,0.73 0,0.271 -0.102,0.475 -0.391,0.695 -0.101,0.102 0.17,-0.085 -0.814,0.577 -0.39,0.272 -0.594,0.645 -0.594,1.069 0,0.696 0.543,1.256 1.239,1.256 0.679,0 1.204,-0.526 1.222,-1.256 l -0.662,0 C 0.662,4.089 0.424,4.31 0.119,4.31 -0.203,4.31 -0.458,4.073 -0.458,3.75 -0.458,3.513 -0.356,3.377 0,3.173 0.934,2.63 1.341,2.104 1.341,1.409 1.341,0.628 0.747,0 0,0"
         style="fill:#231f20;fill-opacity:1;fill-rule:nonzero;stroke:none"
         id="path3625"
         inkscape:connector-curvature="0" />
    </g>
    <g
       id="g3627"
       transform="matrix(1.25,0,0,-1.25,381.78314,550.5518)">
      <path
         d="m 0,0 0,2.189 -1.323,0 0,-2.189 -0.695,0 0,4.836 0.695,0 0,-1.968 1.323,0 0,1.968 0.696,0 L 0.696,0 0,0 z"
         style="fill:#231f20;fill-opacity:1;fill-rule:nonzero;stroke:none"
         id="path3629"
         inkscape:connector-curvature="0" />
    </g>
    <g
       id="g3631"
       transform="matrix(1.25,0,0,-1.25,383.96814,550.5518)">
      <path
         d="m 0,0 0,4.836 2.274,0 0,-0.679 -1.579,0 0,-1.221 1.001,0 0,-0.662 -1.001,0 0,-1.595 1.765,0 L 2.46,0 0,0 z"
         style="fill:#231f20;fill-opacity:1;fill-rule:nonzero;stroke:none"
         id="path3633"
         inkscape:connector-curvature="0" />
    </g>
    <g
       id="g3635"
       transform="matrix(1.25,0,0,-1.25,389.82188,545.3553)">
      <path
         d="m 0,0 -0.713,0 0,-1.222 0.713,0 c 0.407,0 0.628,0.221 0.628,0.611 C 0.628,-0.238 0.373,0 0,0 m 0.594,-4.157 -0.645,2.274 -0.662,0 0,-2.274 -0.695,0 0,4.836 1.442,0 c 0.764,0 1.272,-0.51 1.272,-1.29 0,-0.577 -0.237,-1.001 -0.695,-1.171 l 0.695,-2.375 -0.712,0 z"
         style="fill:#231f20;fill-opacity:1;fill-rule:nonzero;stroke:none"
         id="path3637"
         inkscape:connector-curvature="0" />
    </g>
    <g
       id="g3639"
       transform="matrix(1.25,0,0,-1.25,392.47312,550.5518)">
      <path
         d="m 0,0 0,4.836 2.272,0 0,-0.679 -1.577,0 0,-1.221 1.002,0 0,-0.662 -1.002,0 0,-1.595 1.765,0 L 2.46,0 0,0 z"
         style="fill:#231f20;fill-opacity:1;fill-rule:nonzero;stroke:none"
         id="path3641"
         inkscape:connector-curvature="0" />
    </g>
    <g
       id="g3643"
       transform="matrix(1.25,0,0,-1.25,405.33062,539.14555)">
      <path
         d="m 0,0 -43.599,0 0.409,-1.359 c 0.042,-0.168 0.059,-0.309 -0.034,-0.445 -0.138,-0.204 -0.419,-0.257 -0.622,-0.118 l -4.629,3.135 4.629,3.131 c 0.203,0.139 0.484,0.086 0.622,-0.118 0.097,-0.143 0.076,-0.279 0.024,-0.464 L -43.599,2.425 0,2.425 0,0 z"
         style="fill:#231f20;fill-opacity:1;fill-rule:evenodd;stroke:none"
         id="path3645"
         inkscape:connector-curvature="0" />
    </g>
  </g>
</svg>
