<?xml version="1.0" encoding="UTF-8" standalone="no"?>
<!-- Created with Inkscape (http://www.inkscape.org/) -->

<svg
   xmlns:dc="http://purl.org/dc/elements/1.1/"
   xmlns:cc="http://creativecommons.org/ns#"
   xmlns:rdf="http://www.w3.org/1999/02/22-rdf-syntax-ns#"
   xmlns:svg="http://www.w3.org/2000/svg"
   xmlns="http://www.w3.org/2000/svg"
   xmlns:sodipodi="http://sodipodi.sourceforge.net/DTD/sodipodi-0.dtd"
   xmlns:inkscape="http://www.inkscape.org/namespaces/inkscape"
   width="108.63281"
   height="54.648438"
   id="svg8606"
   version="1.1"
   inkscape:version="0.48.3.1 r9886"
   sodipodi:docname="New document 74">
  <defs
     id="defs8608">
    <clipPath
       clipPathUnits="userSpaceOnUse"
       id="clipPath3833">
      <path
         inkscape:connector-curvature="0"
         d="m 27,68.027 513.674,0 0,669.974 -513.674,0 0,-669.974 z"
         id="path3835" />
    </clipPath>
  </defs>
  <sodipodi:namedview
     id="base"
     pagecolor="#ffffff"
     bordercolor="#666666"
     borderopacity="1.0"
     inkscape:pageopacity="0.0"
     inkscape:pageshadow="2"
     inkscape:zoom="0.35"
     inkscape:cx="54.319693"
     inkscape:cy="27.330627"
     inkscape:document-units="px"
     inkscape:current-layer="layer1"
     showgrid="false"
     fit-margin-top="0"
     fit-margin-left="0"
     fit-margin-right="0"
     fit-margin-bottom="0"
     inkscape:window-width="451"
     inkscape:window-height="415"
     inkscape:window-x="125"
     inkscape:window-y="125"
     inkscape:window-maximized="0" />
  <metadata
     id="metadata8611">
    <rdf:RDF>
      <cc:Work
         rdf:about="">
        <dc:format>image/svg+xml</dc:format>
        <dc:type
           rdf:resource="http://purl.org/dc/dcmitype/StillImage" />
        <dc:title></dc:title>
      </cc:Work>
    </rdf:RDF>
  </metadata>
  <g
     inkscape:label="Layer 1"
     inkscape:groupmode="layer"
     id="layer1"
     transform="translate(-320.68031,-505.04437)">
    <g
       transform="matrix(1.25,0,0,-1.25,-240.21563,662.83506)"
       id="g3829">
      <g
         id="g3831"
         clip-path="url(#clipPath3833)">
        <g
           id="g3837"
           transform="translate(535.373,87.5763)">
          <path
             inkscape:connector-curvature="0"
             d="m 0,0 0,0 0,33.6 c 0,2.65 -2.145,4.803 -4.799,4.803 l -76.799,0 c -2.652,0 -4.803,-2.153 -4.803,-4.803 l 0,-33.531 0,-0.069 c 0,-2.652 2.151,-4.799 4.803,-4.799 l 76.799,0 C -2.151,-4.799 0,-2.648 0,0"
             style="fill:#ffffff;fill-opacity:1;fill-rule:evenodd;stroke:none"
             id="path3839" />
        </g>
        <g
           id="g3841"
           transform="translate(535.373,87.5763)">
          <path
             inkscape:connector-curvature="0"
             d="m 0,0 0,0 0,33.6 c 0,2.65 -2.145,4.803 -4.799,4.803 l -76.799,0 c -2.652,0 -4.803,-2.153 -4.803,-4.803 l 0,-33.531 0,-0.069 c 0,-2.652 2.151,-4.799 4.803,-4.799 l 76.799,0 C -2.151,-4.799 0,-2.648 0,0 z"
             style="fill:none;stroke:#231f20;stroke-width:0.5;stroke-linecap:butt;stroke-linejoin:miter;stroke-miterlimit:2.61299992;stroke-opacity:1;stroke-dasharray:none"
             id="path3843" />
        </g>
        <g
           id="g3845"
           transform="translate(534.3729,87.5943)">
          <path
             inkscape:connector-curvature="0"
             d="m 0,0 0,0 0,33.566 c 0,2.119 -1.715,3.836 -3.836,3.836 l -76.809,0 c -2.121,0 -3.838,-1.717 -3.838,-3.836 l 0,-33.566 c 0,-2.121 1.717,-3.836 3.838,-3.836 l 76.809,0 C -1.719,-3.836 0,-2.119 0,0"
             style="fill:#231f20;fill-opacity:1;fill-rule:evenodd;stroke:none"
             id="path3847" />
        </g>
        <g
           id="g3849"
           transform="translate(532.939,87.5963)">
          <path
             inkscape:connector-curvature="0"
             d="m 0,0 0,0 0,33.56 c 0,1.326 -1.072,2.399 -2.397,2.399 l -76.812,0 c -1.324,0 -2.397,-1.073 -2.397,-2.399 l 0,-33.56 c 0,-1.323 1.073,-2.397 2.397,-2.397 l 76.812,0 C -1.07,-2.397 0,-1.325 0,0"
             style="fill:#ffffff;fill-opacity:1;fill-rule:evenodd;stroke:none"
             id="path3851" />
        </g>
        <g
           id="g3853"
           transform="translate(526.7219,107.4962)">
          <path
             inkscape:connector-curvature="0"
             d="m 0,0 0,10.793 -1.551,0 0,-6.477 -2.955,6.477 -1.554,0 0,-10.793 1.554,0 0,7.233 L -1.172,0 0,0 z m -10.226,4.467 -1.555,0 0.76,3.107 0.795,-3.107 z M -7.537,0 l -2.689,10.793 -1.516,0 L -14.431,0 l 1.554,0 0.719,2.953 2.311,0 L -9.09,0 -7.537,0 z m -8.41,10.793 -1.514,0 0,-10.793 1.514,0 0,10.793 z M -20.76,7.914 c 0,-0.871 -0.492,-1.363 -1.402,-1.363 l -1.588,0 0,2.726 1.588,0 c 0.834,0 1.402,-0.529 1.402,-1.363 M -19.242,0 -20.797,5.301 c 1.024,0.379 1.555,1.326 1.555,2.613 0,1.742 -1.139,2.879 -2.842,2.879 l -3.221,0 0,-10.793 1.555,0 0,5.074 1.477,0 1.437,-5.074 1.594,0 z m -7.541,9.354 0,1.439 -5.49,0 0,-1.439 1.968,0 0,-9.354 1.553,0 0,9.354 1.969,0 z m -6.479,-6.401 c 0,1.553 -0.91,2.727 -2.992,3.94 -0.795,0.455 -1.021,0.757 -1.021,1.287 0,0.719 0.566,1.25 1.285,1.25 0.684,0 1.215,-0.492 1.252,-1.25 l 1.476,0 c -0.037,1.629 -1.21,2.803 -2.728,2.803 -1.553,0 -2.764,-1.25 -2.764,-2.803 0,-0.947 0.455,-1.78 1.324,-2.387 2.2,-1.477 1.594,-1.06 1.821,-1.287 0.644,-0.492 0.871,-0.947 0.871,-1.553 0,-0.871 -0.682,-1.629 -1.516,-1.629 -1.058,0 -1.513,0.948 -1.513,1.856 l -1.518,0 c 0,-1.78 1.137,-3.377 3.031,-3.377 1.668,0 2.992,1.408 2.992,3.15 M -40.572,0 l 0,1.514 -3.942,0 0,3.56 2.237,0 0,1.477 -2.237,0 0,2.726 3.526,0 0,1.516 -5.076,0 0,-10.793 5.492,0 z m -9.131,5.34 c 0,-0.834 -0.076,-1.592 -0.15,-2.274 -0.155,-0.832 -0.647,-1.552 -1.555,-1.552 l -1.287,0 0,7.763 1.287,0 c 0.682,0 1.137,-0.339 1.4,-1.097 0.192,-0.455 0.305,-1.629 0.305,-2.84 m 1.516,0.074 c 0,0.834 -0.114,1.781 -0.266,2.576 -0.189,1.1 -0.644,1.932 -1.289,2.385 -0.377,0.305 -0.832,0.418 -1.742,0.418 l -2.766,0 0,-10.793 2.994,0 c 0.608,0 1.137,0.15 1.514,0.492 1.062,0.832 1.555,2.424 1.555,4.922 M -56.068,0 l 0,1.514 -3.94,0 0,3.56 2.235,0 0,1.477 -2.235,0 0,2.726 3.524,0 0,1.516 -5.078,0 0,-10.793 5.494,0 z m -8.487,7.762 c 0,-0.985 -0.492,-1.551 -1.4,-1.551 l -1.592,0 0,3.066 1.592,0 c 0.834,0 1.4,-0.605 1.4,-1.515 m 1.516,0 c 0,1.82 -1.135,3.031 -2.84,3.031 l -3.22,0 0,-10.793 1.552,0 0,4.733 1.668,0 c 1.817,0 2.84,1.06 2.84,3.029"
             style="fill:#231f20;fill-opacity:1;fill-rule:evenodd;stroke:none"
             id="path3855" />
        </g>
        <g
           id="g3857"
           transform="translate(526.32,90.4733)">
          <path
             inkscape:connector-curvature="0"
             d="m 0,0 -2.5,7.006 2.236,3.787 -1.781,0 -2.461,-4.317 0,4.317 -1.555,0 0,-10.793 1.555,0 0,3.445 0.984,1.818 L -1.629,0 0,0 z m -7.537,0 0,1.439 -3.94,0 0,9.354 -1.554,0 0,-10.793 5.494,0 z m -9.662,4.468 -1.553,0 0.756,3.106 0.797,-3.106 z M -14.51,0 l -2.689,10.793 -1.516,0 L -21.403,0 l 1.551,0 0.721,2.953 2.311,0 0.759,-2.953 1.551,0 z m -7.537,10.793 -1.518,0 -0.947,-5.758 -1.021,5.758 -1.213,0 -1.061,-5.758 -0.908,5.758 -1.516,0 1.705,-10.793 1.366,0 1.021,5.642 1.024,-5.642 1.324,0 1.744,10.793 z m -9.168,-7.84 c 0,1.553 -0.91,2.726 -2.994,3.939 -0.795,0.453 -1.024,0.758 -1.024,1.287 0,0.721 0.569,1.25 1.289,1.25 0.682,0 1.213,-0.492 1.252,-1.25 l 1.477,0 c -0.039,1.629 -1.213,2.803 -2.729,2.803 -1.552,0 -2.765,-1.25 -2.765,-2.803 0,-0.945 0.455,-1.779 1.326,-2.384 2.197,-1.479 1.59,-1.063 1.818,-1.289 0.645,-0.493 0.873,-0.948 0.873,-1.553 0,-0.871 -0.683,-1.629 -1.517,-1.629 -1.061,0 -1.516,0.947 -1.516,1.857 l -1.513,0 c 0,-1.781 1.134,-3.377 3.029,-3.377 1.666,0 2.994,1.407 2.994,3.149 m -7.313,0 c 0,1.553 -0.91,2.726 -2.994,3.939 -0.795,0.453 -1.021,0.758 -1.021,1.287 0,0.721 0.566,1.25 1.287,1.25 0.682,0 1.213,-0.492 1.252,-1.25 l 1.476,0 c -0.039,1.629 -1.212,2.803 -2.728,2.803 -1.553,0 -2.766,-1.25 -2.766,-2.803 0,-0.945 0.455,-1.779 1.327,-2.384 2.199,-1.479 1.589,-1.063 1.818,-1.289 0.644,-0.493 0.873,-0.948 0.873,-1.553 0,-0.871 -0.684,-1.629 -1.518,-1.629 -1.06,0 -1.513,0.947 -1.513,1.857 l -1.516,0 c 0,-1.781 1.135,-3.377 3.029,-3.377 1.666,0 2.994,1.407 2.994,3.149 m -9.132,2.461 c 0,-1.248 -0.075,-1.893 -0.338,-2.762 -0.266,-0.91 -0.684,-1.328 -1.326,-1.328 -0.684,0 -1.102,0.418 -1.366,1.328 -0.228,0.869 -0.339,1.551 -0.339,2.725 0,1.212 0.074,1.931 0.339,2.765 0.264,0.908 0.682,1.324 1.366,1.324 0.642,0 1.06,-0.416 1.326,-1.361 0.226,-0.797 0.338,-1.478 0.338,-2.691 m 1.478,0 c 0,1.629 -0.15,2.652 -0.605,3.713 -0.53,1.324 -1.287,1.855 -2.537,1.855 -1.25,0 -2.01,-0.531 -2.579,-1.818 -0.453,-1.022 -0.605,-2.121 -0.605,-3.75 0,-1.666 0.152,-2.688 0.605,-3.748 0.532,-1.287 1.29,-1.862 2.579,-1.862 1.211,0 2.007,0.575 2.537,1.862 0.455,1.023 0.605,2.082 0.605,3.748 m -9.431,2.502 c 0,-0.873 -0.493,-1.366 -1.403,-1.366 l -1.59,0 0,2.727 1.59,0 c 0.832,0 1.403,-0.529 1.403,-1.361 M -54.1,0 -55.653,5.302 c 1.024,0.377 1.553,1.325 1.553,2.614 0,1.74 -1.135,2.877 -2.842,2.877 l -3.218,0 0,-10.793 1.554,0 0,5.074 1.477,0 L -55.69,0 -54.1,0 z m -8.181,7.916 c -0.114,0.984 -0.266,1.439 -0.684,1.968 -0.492,0.719 -1.25,1.098 -2.119,1.098 -2.123,0 -3.221,-1.855 -3.221,-5.34 0,-3.976 1.022,-5.838 3.332,-5.838 1.516,0 2.654,1.293 2.692,3.075 l -1.555,0 c 0,-0.797 -0.227,-1.555 -1.137,-1.555 -1.324,0 -1.855,1.25 -1.855,4.355 0,2.803 0.455,3.787 1.705,3.787 0.72,0 1.136,-0.492 1.287,-1.55 l 1.555,0 z"
             style="fill:#231f20;fill-opacity:1;fill-rule:evenodd;stroke:none"
             id="path3859" />
        </g>
      </g>
    </g>
  </g>
</svg>
