<?xml version="1.0" encoding="UTF-8" standalone="no"?>
<!-- Created with Inkscape (http://www.inkscape.org/) -->

<svg
   xmlns:dc="http://purl.org/dc/elements/1.1/"
   xmlns:cc="http://creativecommons.org/ns#"
   xmlns:rdf="http://www.w3.org/1999/02/22-rdf-syntax-ns#"
   xmlns:svg="http://www.w3.org/2000/svg"
   xmlns="http://www.w3.org/2000/svg"
   xmlns:sodipodi="http://sodipodi.sourceforge.net/DTD/sodipodi-0.dtd"
   xmlns:inkscape="http://www.inkscape.org/namespaces/inkscape"
   width="90.632301"
   height="90.628113"
   id="svg4437"
   version="1.1"
   inkscape:version="0.48.3.1 r9886"
   sodipodi:docname="New document 7">
  <defs
     id="defs4439">
    <clipPath
       clipPathUnits="userSpaceOnUse"
       id="clipPath3139">
      <path
         inkscape:connector-curvature="0"
         d="m 27,56.527 513,0 L 540,738 27,738 27,56.527 z"
         id="path3141" />
    </clipPath>
  </defs>
  <sodipodi:namedview
     id="base"
     pagecolor="#ffffff"
     bordercolor="#666666"
     borderopacity="1.0"
     inkscape:pageopacity="0.0"
     inkscape:pageshadow="2"
     inkscape:zoom="0.35"
     inkscape:cx="45.324604"
     inkscape:cy="45.32848"
     inkscape:document-units="px"
     inkscape:current-layer="layer1"
     showgrid="false"
     fit-margin-top="0"
     fit-margin-left="0"
     fit-margin-right="0"
     fit-margin-bottom="0"
     inkscape:window-width="451"
     inkscape:window-height="415"
     inkscape:window-x="150"
     inkscape:window-y="150"
     inkscape:window-maximized="0" />
  <metadata
     id="metadata4442">
    <rdf:RDF>
      <cc:Work
         rdf:about="">
        <dc:format>image/svg+xml</dc:format>
        <dc:type
           rdf:resource="http://purl.org/dc/dcmitype/StillImage" />
        <dc:title></dc:title>
      </cc:Work>
    </rdf:RDF>
  </metadata>
  <g
     inkscape:label="Layer 1"
     inkscape:groupmode="layer"
     id="layer1"
     transform="translate(-329.6754,-487.06255)">
    <g
       transform="matrix(1.25,0,0,-1.25,160.36997,1364.2246)"
       id="g3135">
      <g
         id="g3137"
         clip-path="url(#clipPath3139)">
        <g
           id="g3143"
           transform="translate(136.6664,667.8209)">
          <path
             inkscape:connector-curvature="0"
             d="m 0,0 32.706,32.707 c 1.282,1.282 3.38,1.282 4.664,0 L 70.076,0 c 1.282,-1.282 1.282,-3.38 0,-4.663 L 37.37,-37.369 c -1.284,-1.282 -3.382,-1.282 -4.664,0 L 0,-4.663 C -1.283,-3.38 -1.283,-1.282 0,0"
             style="fill:#f48412;fill-opacity:1;fill-rule:nonzero;stroke:none"
             id="path3145" />
        </g>
        <g
           id="g3147"
           transform="translate(136.6664,667.8209)">
          <path
             inkscape:connector-curvature="0"
             d="m 0,0 32.706,32.707 c 1.282,1.282 3.38,1.282 4.664,0 L 70.076,0 c 1.282,-1.282 1.282,-3.38 0,-4.663 L 37.37,-37.369 c -1.284,-1.282 -3.382,-1.282 -4.664,0 L 0,-4.663 C -1.283,-3.38 -1.283,-1.282 0,0 z"
             style="fill:none;stroke:#231f20;stroke-width:0.5;stroke-linecap:butt;stroke-linejoin:miter;stroke-miterlimit:4;stroke-opacity:1;stroke-dasharray:none"
             id="path3149" />
        </g>
        <g
           id="g3151"
           transform="translate(137.2884,667.1978)">
          <path
             inkscape:connector-curvature="0"
             d="m 0,0 32.707,32.707 c 0.94,0.939 2.478,0.939 3.418,0 L 68.832,0 c 0.939,-0.939 0.939,-2.477 0,-3.417 L 36.125,-36.124 c -0.94,-0.939 -2.478,-0.939 -3.418,0 L 0,-3.417 C -0.939,-2.477 -0.939,-0.939 0,0"
             style="fill:#231f20;fill-opacity:1;fill-rule:evenodd;stroke:none"
             id="path3153" />
        </g>
        <g
           id="g3155"
           transform="translate(138.2234,666.2642)">
          <path
             inkscape:connector-curvature="0"
             d="m 0,0 32.706,32.706 c 0.426,0.427 1.123,0.427 1.549,0 L 66.961,0 c 0.427,-0.427 0.427,-1.123 0,-1.549 L 34.255,-34.255 c -0.426,-0.427 -1.123,-0.427 -1.549,0 L 0,-1.549 C -0.427,-1.123 -0.427,-0.427 0,0"
             style="fill:#f48412;fill-opacity:1;fill-rule:evenodd;stroke:none"
             id="path3157" />
        </g>
        <g
           id="g3159"
           transform="translate(174.0944,669.0522)">
          <path
             inkscape:connector-curvature="0"
             d="m 0,0 c 0.341,-1.134 0.683,-2.268 1.024,-3.401 0.133,-0.446 0.234,-0.944 0.47,-1.349 0.512,-0.88 1.747,-1.044 2.459,-0.299 0.394,0.411 0.608,1.015 0.855,1.517 0.506,1.025 1.011,2.052 1.516,3.078 2.091,4.24 4.182,8.48 6.272,12.721 -4.733,0.001 -9.466,0.002 -14.199,0.003 l -3.377,0 c -0.594,0 -1.263,0.063 -1.843,-0.089 -0.965,-0.254 -1.604,-1.348 -0.936,-2.244 0.309,-0.414 0.727,-0.792 1.076,-1.177 0.795,-0.879 1.59,-1.758 2.384,-2.637 -3.662,-1.662 -7.223,-4.217 -9.393,-7.662 -2.162,-3.43 -2.504,-7.153 -2.496,-11.1 0.006,-2.828 0.011,-5.656 0.017,-8.484 0,-0.057 -0.033,-0.445 0.028,-0.445 l 1.249,0 4.649,0 c 0.39,0 1.761,-0.267 1.761,0.223 10e-4,1.15 0.002,2.299 0.003,3.448 0.002,2.397 -0.018,4.795 0.005,7.192 0.018,1.893 0.435,3.673 1.459,5.279 C -5.428,-2.937 -2.52,-1.318 0,0"
             style="fill:#231f20;fill-opacity:1;fill-rule:evenodd;stroke:none"
             id="path3161" />
        </g>
      </g>
    </g>
  </g>
</svg>
