<?xml version="1.0" encoding="UTF-8" standalone="no"?>
<!-- Created with Inkscape (http://www.inkscape.org/) -->

<svg
   xmlns:dc="http://purl.org/dc/elements/1.1/"
   xmlns:cc="http://creativecommons.org/ns#"
   xmlns:rdf="http://www.w3.org/1999/02/22-rdf-syntax-ns#"
   xmlns:svg="http://www.w3.org/2000/svg"
   xmlns="http://www.w3.org/2000/svg"
   xmlns:sodipodi="http://sodipodi.sourceforge.net/DTD/sodipodi-0.dtd"
   xmlns:inkscape="http://www.inkscape.org/namespaces/inkscape"
   width="72.124481"
   height="72.117119"
   id="svg7406"
   version="1.1"
   inkscape:version="0.48.3.1 r9886"
   sodipodi:docname="New document 58">
  <defs
     id="defs7408">
    <clipPath
       clipPathUnits="userSpaceOnUse"
       id="clipPath4063">
      <path
         inkscape:connector-curvature="0"
         d="m 63,56.527 513,0 L 576,738 63,738 63,56.527 z"
         id="path4065" />
    </clipPath>
  </defs>
  <sodipodi:namedview
     id="base"
     pagecolor="#ffffff"
     bordercolor="#666666"
     borderopacity="1.0"
     inkscape:pageopacity="0.0"
     inkscape:pageshadow="2"
     inkscape:zoom="0.35"
     inkscape:cx="36.051302"
     inkscape:cy="36.07391"
     inkscape:document-units="px"
     inkscape:current-layer="layer1"
     showgrid="false"
     fit-margin-top="0"
     fit-margin-left="0"
     fit-margin-right="0"
     fit-margin-bottom="0"
     inkscape:window-width="451"
     inkscape:window-height="415"
     inkscape:window-x="75"
     inkscape:window-y="75"
     inkscape:window-maximized="0" />
  <metadata
     id="metadata7411">
    <rdf:RDF>
      <cc:Work
         rdf:about="">
        <dc:format>image/svg+xml</dc:format>
        <dc:type
           rdf:resource="http://purl.org/dc/dcmitype/StillImage" />
        <dc:title></dc:title>
      </cc:Work>
    </rdf:RDF>
  </metadata>
  <g
     inkscape:label="Layer 1"
     inkscape:groupmode="layer"
     id="layer1"
     transform="translate(-338.9487,-496.31897)">
    <g
       transform="matrix(1.25,0,0,-1.25,26.429,775.76178)"
       id="g4059">
      <g
         id="g4061"
         clip-path="url(#clipPath4063)">
        <g
           id="g4067"
           transform="translate(276.5218,167.0793)">
          <path
             inkscape:connector-curvature="0"
             d="m 0,0 -25.299,25.299 c -1.287,1.287 -1.287,3.385 0,4.672 L 0,55.268 c 1.285,1.287 3.385,1.287 4.672,0 L 29.969,29.971 c 1.287,-1.287 1.287,-3.385 0,-4.672 L 4.672,0 C 3.399,-1.269 1.27,-1.271 0,0"
             style="fill:#f48412;fill-opacity:1;fill-rule:nonzero;stroke:#231f20;stroke-width:0.5;stroke-linecap:butt;stroke-linejoin:miter;stroke-miterlimit:4;stroke-opacity:1;stroke-dasharray:none"
             id="path4069" />
        </g>
        <g
           id="g4071"
           transform="translate(277.1608,167.7373)">
          <path
             inkscape:connector-curvature="0"
             d="m 0,0 -25.281,25.282 c -0.926,0.927 -0.924,2.462 0,3.39 L 0.002,53.953 c 0.926,0.928 2.461,0.924 3.39,0 l 25.28,-25.281 c 0.926,-0.93 0.927,-2.461 0,-3.39 L 3.391,0 C 2.463,-0.924 0.928,-0.927 0,0"
             style="fill:#231f20;fill-opacity:1;fill-rule:evenodd;stroke:none"
             id="path4073" />
        </g>
        <g
           id="g4075"
           transform="translate(278.0568,168.6573)">
          <path
             inkscape:connector-curvature="0"
             d="m 0,0 -25.257,25.258 c -0.448,0.432 -0.446,1.166 0,1.598 L 0.002,52.114 c 0.43,0.445 1.166,0.447 1.596,0 L 26.856,26.856 c 0.447,-0.432 0.447,-1.168 0,-1.598 L 1.598,0 C 1.168,-0.447 0.432,-0.445 0,0"
             style="fill:#f48412;fill-opacity:1;fill-rule:evenodd;stroke:none"
             id="path4077" />
        </g>
        <g
           id="g4079"
           transform="translate(273.8388,191.1424)">
          <path
             inkscape:connector-curvature="0"
             d="m 0,0 -12.493,-3.563 1.336,12.93 c 0.057,0.57 0.571,0.988 1.141,0.929 0.381,-0.039 0.607,-0.279 0.842,-0.605 L -7.366,6.933 -1.246,14.22 3.07,10.595 -3.047,3.308 -0.071,2.019 C 0.336,1.836 0.611,1.67 0.718,1.283 0.875,0.732 0.552,0.154 0,0"
             style="fill:#231f20;fill-opacity:1;fill-rule:evenodd;stroke:none"
             id="path4081" />
        </g>
        <g
           id="g4083"
           transform="translate(283.8718,191.1424)">
          <path
             inkscape:connector-curvature="0"
             d="m 0,0 12.494,-3.563 -1.336,12.93 c -0.059,0.57 -0.572,0.988 -1.143,0.929 C 9.635,10.257 9.408,10.017 9.174,9.691 L 7.365,6.933 1.246,14.22 -3.07,10.595 3.047,3.308 0.07,2.019 C -0.334,1.836 -0.612,1.67 -0.721,1.283 -0.875,0.732 -0.553,0.154 0,0"
             style="fill:#231f20;fill-opacity:1;fill-rule:evenodd;stroke:none"
             id="path4085" />
        </g>
      </g>
    </g>
  </g>
</svg>
