<?xml version="1.0" encoding="UTF-8" standalone="no"?>
<!-- Created with Inkscape (http://www.inkscape.org/) -->

<svg
   xmlns:dc="http://purl.org/dc/elements/1.1/"
   xmlns:cc="http://creativecommons.org/ns#"
   xmlns:rdf="http://www.w3.org/1999/02/22-rdf-syntax-ns#"
   xmlns:svg="http://www.w3.org/2000/svg"
   xmlns="http://www.w3.org/2000/svg"
   xmlns:sodipodi="http://sodipodi.sourceforge.net/DTD/sodipodi-0.dtd"
   xmlns:inkscape="http://www.inkscape.org/namespaces/inkscape"
   width="53.632816"
   height="53.59375"
   id="svg7565"
   version="1.1"
   inkscape:version="0.48.3.1 r9886"
   sodipodi:docname="New document 62">
  <defs
     id="defs7567" />
  <sodipodi:namedview
     id="base"
     pagecolor="#ffffff"
     bordercolor="#666666"
     borderopacity="1.0"
     inkscape:pageopacity="0.0"
     inkscape:pageshadow="2"
     inkscape:zoom="0.35"
     inkscape:cx="26.82031"
     inkscape:cy="26.803127"
     inkscape:document-units="px"
     inkscape:current-layer="layer1"
     showgrid="false"
     fit-margin-top="0"
     fit-margin-left="0"
     fit-margin-right="0"
     fit-margin-bottom="0"
     inkscape:window-width="451"
     inkscape:window-height="415"
     inkscape:window-x="175"
     inkscape:window-y="175"
     inkscape:window-maximized="0" />
  <metadata
     id="metadata7570">
    <rdf:RDF>
      <cc:Work
         rdf:about="">
        <dc:format>image/svg+xml</dc:format>
        <dc:type
           rdf:resource="http://purl.org/dc/dcmitype/StillImage" />
        <dc:title></dc:title>
      </cc:Work>
    </rdf:RDF>
  </metadata>
  <g
     inkscape:label="Layer 1"
     inkscape:groupmode="layer"
     id="layer1"
     transform="translate(-348.17969,-505.57156)">
    <g
       id="g4217"
       transform="matrix(1.25,0,0,-1.25,397.35938,558.85281)">
      <path
         d="m 0,0 -35.775,0 c -1.82,0 -3.305,1.485 -3.305,3.305 l 0,35.776 c -0.002,1.82 1.485,3.304 3.305,3.304 l 35.775,0 c 1.821,0 3.303,-1.484 3.303,-3.304 L 3.305,3.305 C 3.301,1.506 1.797,0 0,0"
         style="fill:#f48412;fill-opacity:1;fill-rule:nonzero;stroke:#231f20;stroke-width:0.5;stroke-linecap:butt;stroke-linejoin:miter;stroke-miterlimit:4;stroke-opacity:1;stroke-dasharray:none"
         id="path4219"
         inkscape:connector-curvature="0" />
    </g>
    <g
       id="g4221"
       transform="matrix(1.25,0,0,-1.25,397.34562,557.70531)">
      <path
         d="m 0,0 -35.754,0 c -1.311,0 -2.395,1.088 -2.399,2.397 l 0.002,35.754 c 0,1.312 1.086,2.394 2.399,2.398 l 35.75,0 C 1.31,40.545 2.394,39.463 2.396,38.151 l 0,-35.754 C 2.392,1.088 1.312,0 0,0"
         style="fill:#231f20;fill-opacity:1;fill-rule:evenodd;stroke:none"
         id="path4223"
         inkscape:connector-curvature="0" />
    </g>
    <g
       id="g4225"
       transform="matrix(1.25,0,0,-1.25,397.32325,556.1003)">
      <path
         d="m 0,0 -35.721,0 c -0.619,-0.01 -1.138,0.511 -1.129,1.131 l 0.002,35.72 c -0.011,0.619 0.508,1.141 1.127,1.129 L 0,37.98 c 0.621,0.012 1.143,-0.508 1.129,-1.131 L 1.131,1.129 C 1.141,0.511 0.621,-0.01 0,0"
         style="fill:#f48412;fill-opacity:1;fill-rule:evenodd;stroke:none"
         id="path4227"
         inkscape:connector-curvature="0" />
    </g>
    <g
       id="g4229"
       transform="matrix(1.25,0,0,-1.25,395.64325,528.68155)">
      <path
         d="m 0,0 c 0,3.897 -3.105,6.805 -7.398,6.805 -1.19,0 -2.114,-0.133 -3.633,-0.463 l 0.197,2.709 9.315,0 0.066,3.301 -12.551,0 -0.593,-8.852 3.369,-0.857 c 1.386,0.527 2.377,0.726 3.633,0.726 1.386,0 2.376,-0.263 3.037,-0.793 C -3.832,1.983 -3.369,0.99 -3.369,0 c 0,-2.113 -1.717,-3.369 -4.557,-3.369 -1.916,0 -3.832,0.529 -5.484,1.52 l -1.783,-2.84 c 2.379,-1.453 4.691,-2.125 7.267,-2.125 C -3.303,-6.814 0,-3.963 0,0 m -17.836,-0.595 c 0,1.783 -0.527,2.775 -2.377,4.427 1.121,1.453 1.518,2.313 1.518,3.567 0,3.039 -2.774,5.285 -6.539,5.285 -2.707,0 -5.02,-0.99 -6.869,-2.906 l 2.509,-2.313 c 1.124,1.19 2.577,1.85 4.163,1.85 1.982,0 3.302,-0.86 3.302,-1.983 0,-1.056 -1.058,-1.849 -2.511,-1.849 l -0.791,0 0,-3.37 0.923,0 c 0.727,0 1.321,-0.13 1.85,-0.396 0.859,-0.461 1.453,-1.518 1.453,-2.443 0,-1.586 -1.584,-2.643 -3.896,-2.643 -2.18,0 -3.899,0.727 -5.219,2.443 l -2.709,-2.046 c 0.66,-0.793 0.99,-1.123 1.453,-1.52 1.652,-1.52 3.965,-2.322 6.275,-2.322 4.229,0 7.465,2.719 7.465,6.219"
         style="fill:#231f20;fill-opacity:1;fill-rule:evenodd;stroke:none"
         id="path4231"
         inkscape:connector-curvature="0" />
    </g>
    <g
       id="g4233"
       transform="matrix(1.25,0,0,-1.25,390.65075,551.58405)">
      <path
         d="m 0,0 0,7.059 -1.264,0 0,-2.725 -3.17,0 0,2.725 -1.263,0 0,-7.059 1.263,0 0,3.07 3.17,0.026 L -1.264,0 0,0 z m -9.973,4.904 c 0,-0.521 -0.421,-0.867 -1.041,-0.867 l -2.056,0 0,1.758 2.056,0 c 0.62,0 1.041,-0.346 1.041,-0.891 m 1.262,0 c 0,0.793 -0.42,1.487 -1.09,1.858 -0.396,0.222 -0.718,0.297 -1.263,0.297 l -3.295,0 0,-7.059 1.289,0 0,2.773 2.006,0 c 0.545,0 0.867,0.051 1.263,0.274 0.67,0.371 1.09,1.113 1.09,1.857 M -18.041,0 l 0,7.059 -1.238,0 -2.08,-4.186 -2.057,4.186 -1.238,0 0,-7.059 1.238,0 0,4.31 2.057,-4.31 2.08,4.31 0,-4.31 1.238,0 z"
         style="fill:#231f20;fill-opacity:1;fill-rule:evenodd;stroke:none"
         id="path4235"
         inkscape:connector-curvature="0" />
    </g>
  </g>
</svg>
