<?xml version="1.0" encoding="UTF-8" standalone="no"?>
<!-- Created with Inkscape (http://www.inkscape.org/) -->

<svg
   xmlns:dc="http://purl.org/dc/elements/1.1/"
   xmlns:cc="http://creativecommons.org/ns#"
   xmlns:rdf="http://www.w3.org/1999/02/22-rdf-syntax-ns#"
   xmlns:svg="http://www.w3.org/2000/svg"
   xmlns="http://www.w3.org/2000/svg"
   xmlns:sodipodi="http://sodipodi.sourceforge.net/DTD/sodipodi-0.dtd"
   xmlns:inkscape="http://www.inkscape.org/namespaces/inkscape"
   width="97.344124"
   height="81.105743"
   id="svg4906"
   version="1.1"
   inkscape:version="0.48.3.1 r9886"
   sodipodi:docname="New document 7">
  <defs
     id="defs4908">
    <clipPath
       clipPathUnits="userSpaceOnUse"
       id="clipPath4364">
      <path
         inkscape:connector-curvature="0"
         d="m 31.054,50.993 504.275,0 0,687.007 -504.275,0 0,-687.007 z"
         id="path4366" />
    </clipPath>
    <clipPath
       clipPathUnits="userSpaceOnUse"
       id="clipPath4352">
      <path
         inkscape:connector-curvature="0"
         d="m 26.691,37.035 513,0 0,700.965 -513,0 0,-700.965 z"
         id="path4354" />
    </clipPath>
  </defs>
  <sodipodi:namedview
     id="base"
     pagecolor="#ffffff"
     bordercolor="#666666"
     borderopacity="1.0"
     inkscape:pageopacity="0.0"
     inkscape:pageshadow="2"
     inkscape:zoom="0.35"
     inkscape:cx="92.24887"
     inkscape:cy="109.13484"
     inkscape:document-units="px"
     inkscape:current-layer="layer1"
     showgrid="false"
     fit-margin-top="0"
     fit-margin-left="0"
     fit-margin-right="0"
     fit-margin-bottom="0"
     inkscape:window-width="451"
     inkscape:window-height="415"
     inkscape:window-x="25"
     inkscape:window-y="25"
     inkscape:window-maximized="0" />
  <metadata
     id="metadata4911">
    <rdf:RDF>
      <cc:Work
         rdf:about="">
        <dc:format>image/svg+xml</dc:format>
        <dc:type
           rdf:resource="http://purl.org/dc/dcmitype/StillImage" />
        <dc:title></dc:title>
      </cc:Work>
    </rdf:RDF>
  </metadata>
  <g
     inkscape:label="Layer 1"
     inkscape:groupmode="layer"
     id="layer1"
     transform="translate(-282.75113,-560.39128)">
    <g
       transform="matrix(1.25,0,0,-1.25,243.92613,1429.7644)"
       id="g4348">
      <g
         id="g4350"
         clip-path="url(#clipPath4352)">
        <g
           id="g4356"
           transform="translate(37.935,694.8013)">
          <path
             inkscape:connector-curvature="0"
             d="m 0,0 67.79,-27.462 c 3.99,-1.435 3.941,-7.356 -0.108,-8.681 L -0.232,-63.576 c -2.981,-1.251 -6.385,1.003 -6.385,4.232 l 0,55.219 C -6.617,-0.784 -3.002,1.459 0,0"
             style="fill:#f48412;fill-opacity:1;fill-rule:nonzero;stroke:none"
             id="path4358" />
        </g>
      </g>
    </g>
    <g
       transform="matrix(1.25,0,0,-1.25,243.92613,1429.7644)"
       id="g4360">
      <g
         id="g4362"
         clip-path="url(#clipPath4364)">
        <g
           id="g4368"
           transform="translate(37.935,694.8013)">
          <path
             inkscape:connector-curvature="0"
             d="m 0,0 67.79,-27.462 c 3.99,-1.435 3.941,-7.356 -0.108,-8.681 L -0.232,-63.576 c -2.981,-1.251 -6.385,1.003 -6.385,4.232 l 0,55.219 C -6.617,-0.784 -3.002,1.459 0,0"
             style="fill:none;stroke:#231f20;stroke-width:0.5;stroke-linecap:butt;stroke-linejoin:miter;stroke-miterlimit:4;stroke-opacity:1;stroke-dasharray:none"
             id="path4370" />
        </g>
      </g>
    </g>
    <g
       id="g4380"
       transform="matrix(1.25,0,0,-1.25,375.55875,596.92557)">
      <path
         d="m 0,0 c 2.983,-1.153 3.022,-5.518 -0.092,-6.538 l -67.994,-27.465 c -2.266,-0.903 -4.73,0.792 -4.754,3.203 l 0.006,55.383 c 0.186,2.407 2.686,3.961 4.92,2.935 L 0,0"
         style="fill:#231f20;fill-opacity:1;fill-rule:evenodd;stroke:none"
         id="path4382"
         inkscape:connector-curvature="0" />
    </g>
    <g
       id="g4384"
       transform="matrix(1.25,0,0,-1.25,375.03875,599.30483)">
      <path
         d="m 0,0 c 1.188,-0.686 0.961,-2.461 -0.35,-2.844 l -68.035,-27.483 c -1.051,-0.414 -2.097,0.369 -2.127,1.456 l 0.004,55.26 c 0.069,1.153 1.328,1.768 2.32,1.242 L -0.148,0.071 C -0.098,0.048 -0.047,0.023 0,0"
         style="fill:#f48412;fill-opacity:1;fill-rule:evenodd;stroke:none"
         id="path4386"
         inkscape:connector-curvature="0" />
    </g>
    <g
       id="g4388"
       transform="matrix(1.25,0,0,-1.25,305.9055,581.27007)">
      <path
         d="m 0,0 c 0,-1.107 -0.066,-1.678 -0.303,-2.449 -0.234,-0.805 -0.601,-1.173 -1.174,-1.173 -0.603,0 -0.972,0.368 -1.207,1.173 -0.203,0.771 -0.3,1.376 -0.3,2.416 0,1.073 0.064,1.711 0.3,2.448 0.235,0.806 0.604,1.174 1.207,1.174 0.573,0 0.94,-0.368 1.174,-1.208 C -0.1,1.678 0,1.073 0,0 m 1.307,0 c 0,1.442 -0.133,2.348 -0.536,3.288 -0.47,1.173 -1.14,1.643 -2.248,1.643 -1.107,0 -1.777,-0.47 -2.281,-1.611 -0.4,-0.905 -0.535,-1.878 -0.535,-3.32 0,-1.476 0.135,-2.382 0.535,-3.321 0.471,-1.141 1.141,-1.649 2.281,-1.649 1.075,0 1.778,0.508 2.248,1.649 0.403,0.905 0.536,1.845 0.536,3.321 m -7.479,-4.797 0,9.561 -1.375,0 0,-5.737 -2.617,5.737 -1.375,0 0,-9.561 1.375,0 0,6.407 2.953,-6.407 1.039,0 z"
         style="fill:#231f20;fill-opacity:1;fill-rule:evenodd;stroke:none"
         id="path4390"
         inkscape:connector-curvature="0" />
    </g>
    <g
       id="g4392"
       transform="matrix(1.25,0,0,-1.25,344.382,600.66833)">
      <path
         d="m 0,0 0,1.979 -2.447,0 0,-1.341 1.074,0 0,-0.638 c 0,-1.007 -0.338,-1.477 -1.041,-1.477 -0.738,0 -1.207,0.504 -1.41,1.443 -0.133,0.738 -0.201,1.577 -0.201,2.383 0,1.139 0.168,2.213 0.437,2.682 0.233,0.47 0.604,0.704 1.074,0.704 0.67,0 1.106,-0.435 1.141,-1.073 l 1.373,0 c -0.066,1.408 -1.107,2.416 -2.48,2.416 -1.108,0 -2.08,-0.738 -2.417,-1.745 -0.335,-0.905 -0.437,-1.879 -0.437,-3.22 0,-1.242 0.201,-2.583 0.504,-3.288 0.469,-1.073 1.308,-1.649 2.449,-1.649 0.973,0 1.744,0.509 2.111,1.347 C -0.066,-1.074 0,-0.672 0,0 m -7.211,-2.65 0,9.56 -1.377,0 0,-5.736 -2.615,5.736 -1.377,0 0,-9.56 1.377,0 0,6.407 2.951,-6.407 1.041,0 z m -7.447,9.56 -1.34,0 0,-9.561 1.34,0 0,9.561 z m -2.951,-6.944 c 0,1.375 -0.805,2.416 -2.649,3.488 -0.707,0.403 -0.908,0.671 -0.908,1.141 0,0.637 0.504,1.107 1.141,1.107 0.605,0 1.074,-0.435 1.107,-1.107 l 1.309,0 c -0.034,1.443 -1.075,2.483 -2.416,2.483 -1.373,0 -2.448,-1.107 -2.448,-2.483 0,-0.838 0.403,-1.576 1.174,-2.113 1.945,-1.308 1.408,-0.939 1.61,-1.141 0.572,-0.436 0.771,-0.838 0.771,-1.375 0,-0.772 -0.604,-1.443 -1.34,-1.443 -0.941,0 -1.344,0.839 -1.344,1.645 l -1.341,0 c 0,-1.578 1.005,-2.992 2.685,-2.992 1.475,0 2.649,1.247 2.649,2.79 m -6.475,0 c 0,1.375 -0.805,2.416 -2.648,3.488 -0.707,0.403 -0.907,0.671 -0.907,1.141 0,0.637 0.502,1.107 1.141,1.107 0.603,0 1.072,-0.435 1.105,-1.107 l 1.309,0 c -0.033,1.443 -1.074,2.483 -2.414,2.483 -1.375,0 -2.449,-1.107 -2.449,-2.483 0,-0.838 0.402,-1.576 1.174,-2.113 1.945,-1.308 1.408,-0.939 1.609,-1.141 0.572,-0.436 0.771,-0.838 0.771,-1.375 0,-0.772 -0.603,-1.443 -1.339,-1.443 -0.94,0 -1.342,0.839 -1.342,1.645 l -1.344,0 c 0,-1.578 1.006,-2.992 2.686,-2.992 1.474,0 2.648,1.247 2.648,2.79 m -8.555,1.342 -1.373,0 0.67,2.751 0.703,-2.751 z m 2.383,-3.958 -2.383,9.56 -1.34,0 -2.382,-9.56 1.377,0 0.636,2.616 2.045,0 0.672,-2.616 1.375,0 z m -8.016,6.877 c 0,-0.872 -0.437,-1.375 -1.242,-1.375 l -1.41,0 0,2.715 1.41,0 c 0.739,0 1.242,-0.536 1.242,-1.34 m 1.34,0 c 0,1.61 -1.006,2.683 -2.515,2.683 l -2.85,0 0,-9.56 1.373,0 0,4.193 1.477,0 c 1.609,0 2.515,0.939 2.515,2.684"
         style="fill:#231f20;fill-opacity:1;fill-rule:evenodd;stroke:none"
         id="path4394"
         inkscape:connector-curvature="0" />
    </g>
    <g
       id="g4396"
       transform="matrix(1.25,0,0,-1.25,323.49575,620.78057)">
      <path
         d="m 0,0 0,1.342 -3.488,0 0,3.152 1.978,0 0,1.31 -1.978,0 0,2.414 3.119,0 0,1.342 -4.496,0 0,-9.56 L 0,0 z m -6.582,0 0,9.56 -1.377,0 0,-5.737 -2.617,5.737 -1.373,0 0,-9.56 1.373,0 0,6.406 L -7.625,0 -6.582,0 z m -8.264,4.796 c 0,-1.106 -0.066,-1.677 -0.302,-2.448 -0.235,-0.805 -0.602,-1.175 -1.174,-1.175 -0.602,0 -0.973,0.37 -1.207,1.175 -0.199,0.771 -0.301,1.375 -0.301,2.415 0,1.073 0.066,1.711 0.301,2.449 0.234,0.805 0.605,1.174 1.207,1.174 0.572,0 0.939,-0.369 1.174,-1.208 0.203,-0.704 0.302,-1.309 0.302,-2.382 m 1.309,0 c 0,1.443 -0.133,2.349 -0.537,3.288 -0.469,1.174 -1.141,1.644 -2.248,1.644 -1.108,0 -1.778,-0.47 -2.282,-1.611 -0.4,-0.905 -0.535,-1.878 -0.535,-3.321 0,-1.476 0.135,-2.381 0.535,-3.32 0.471,-1.141 1.141,-1.649 2.282,-1.649 1.074,0 1.779,0.508 2.248,1.649 0.404,0.905 0.537,1.844 0.537,3.32 M -20.256,0 l 0,1.308 -3.857,0 3.857,7.414 0,0.871 -4.896,0 0,-1.341 3.185,0 -3.556,-6.776 0,-1.476 5.267,0 z"
         style="fill:#231f20;fill-opacity:1;fill-rule:evenodd;stroke:none"
         id="path4398"
         inkscape:connector-curvature="0" />
    </g>
  </g>
</svg>
