<?xml version="1.0" encoding="UTF-8" standalone="no"?>
<!-- Created with Inkscape (http://www.inkscape.org/) -->

<svg
   xmlns:dc="http://purl.org/dc/elements/1.1/"
   xmlns:cc="http://creativecommons.org/ns#"
   xmlns:rdf="http://www.w3.org/1999/02/22-rdf-syntax-ns#"
   xmlns:svg="http://www.w3.org/2000/svg"
   xmlns="http://www.w3.org/2000/svg"
   xmlns:sodipodi="http://sodipodi.sourceforge.net/DTD/sodipodi-0.dtd"
   xmlns:inkscape="http://www.inkscape.org/namespaces/inkscape"
   width="109.58533"
   height="109.57981"
   id="svg5175"
   version="1.1"
   inkscape:version="0.48.3.1 r9886"
   sodipodi:docname="New document 12">
  <defs
     id="defs5177">
    <clipPath
       clipPathUnits="userSpaceOnUse"
       id="clipPath4232">
      <path
         inkscape:connector-curvature="0"
         d="m 26.691,37.035 513,0 0,700.965 -513,0 0,-700.965 z"
         id="path4234" />
    </clipPath>
  </defs>
  <sodipodi:namedview
     id="base"
     pagecolor="#ffffff"
     bordercolor="#666666"
     borderopacity="1.0"
     inkscape:pageopacity="0.0"
     inkscape:pageshadow="2"
     inkscape:zoom="0.35"
     inkscape:cx="54.801932"
     inkscape:cy="54.80483"
     inkscape:document-units="px"
     inkscape:current-layer="layer1"
     showgrid="false"
     fit-margin-top="0"
     fit-margin-left="0"
     fit-margin-right="0"
     fit-margin-bottom="0"
     inkscape:window-width="451"
     inkscape:window-height="415"
     inkscape:window-x="100"
     inkscape:window-y="100"
     inkscape:window-maximized="0" />
  <metadata
     id="metadata5180">
    <rdf:RDF>
      <cc:Work
         rdf:about="">
        <dc:format>image/svg+xml</dc:format>
        <dc:type
           rdf:resource="http://purl.org/dc/dcmitype/StillImage" />
        <dc:title></dc:title>
      </cc:Work>
    </rdf:RDF>
  </metadata>
  <g
     inkscape:label="Layer 1"
     inkscape:groupmode="layer"
     id="layer1"
     transform="translate(-320.19807,-477.5872)">
    <g
       transform="matrix(1.25,0,0,-1.25,-106.10213,1375.1742)"
       id="g4228">
      <g
         id="g4230"
         clip-path="url(#clipPath4232)">
        <g
           id="g4236"
           transform="translate(382.5462,631.6245)">
          <path
             inkscape:connector-curvature="0"
             d="m 0,0 -40.283,40.282 c -1.287,1.287 -1.287,3.385 0,4.672 L 0,85.235 c 1.287,1.29 3.385,1.29 4.672,0.002 L 44.953,44.952 c 1.287,-1.287 1.289,-3.383 0.002,-4.67 L 4.672,0 C 3.401,-1.269 1.272,-1.271 0,0"
             style="fill:#f48412;fill-opacity:1;fill-rule:nonzero;stroke:#231f20;stroke-width:0.5;stroke-linecap:butt;stroke-linejoin:miter;stroke-miterlimit:4;stroke-opacity:1;stroke-dasharray:none"
             id="path4238" />
        </g>
        <g
           id="g4240"
           transform="translate(383.1872,632.2805)">
          <path
             inkscape:connector-curvature="0"
             d="m 0,0 -40.268,40.267 c -0.926,0.928 -0.924,2.463 0,3.391 L 0,83.923 c 0.928,0.928 2.461,0.926 3.39,0 L 43.656,43.656 c 0.926,-0.928 0.928,-2.459 0,-3.389 L 3.39,0 C 2.461,-0.922 0.928,-0.925 0,0"
             style="fill:#231f20;fill-opacity:1;fill-rule:evenodd;stroke:none"
             id="path4242" />
        </g>
        <g
           id="g4244"
           transform="translate(384.0852,633.2006)">
          <path
             inkscape:connector-curvature="0"
             d="m 0,0 -40.246,40.243 c -0.445,0.432 -0.445,1.166 0,1.598 l 40.244,40.242 c 0.43,0.446 1.166,0.446 1.598,0 L 41.838,41.841 c 0.445,-0.432 0.445,-1.168 0,-1.6 L 1.596,0 C 1.164,-0.445 0.432,-0.445 0,0"
             style="fill:#f48412;fill-opacity:1;fill-rule:evenodd;stroke:none"
             id="path4246" />
        </g>
        <g
           id="g4248"
           transform="translate(398.2362,690.9576)">
          <path
             inkscape:connector-curvature="0"
             d="m 0,0 c 0,-1.176 -0.28,-2.137 -0.807,-2.662 -0.246,-0.248 -0.525,-0.342 -0.99,-0.342 l -1.393,0 0,6.008 1.58,0 c 0.369,0 0.68,-0.156 0.897,-0.371 C -0.28,2.166 0,1.176 0,0 m 1.421,0 c 0,1.732 -0.523,3.127 -1.453,3.932 -0.464,0.371 -0.804,0.464 -1.703,0.464 l -2.847,0 0,-8.824 2.693,0 0.494,0 c 0.465,0.032 0.93,0.186 1.27,0.494 0.992,0.776 1.546,2.168 1.546,3.934 m -10.185,-0.525 -1.764,0 0.897,2.474 0.867,-2.474 z m 2.848,-3.903 -3.034,8.824 -1.394,0 -3.031,-8.824 1.484,0 0.867,2.477 2.758,0 0.863,-2.477 1.487,0 z m -9.998,4.397 c 0,-0.682 -0.155,-1.549 -0.342,-2.012 -0.311,-0.773 -0.713,-1.115 -1.362,-1.115 -0.558,0 -0.929,0.217 -1.207,0.681 -0.343,0.557 -0.527,1.518 -0.527,2.446 0,0.742 0.123,1.547 0.342,2.074 0.308,0.773 0.742,1.115 1.422,1.084 0.527,-0.031 0.867,-0.217 1.146,-0.682 0.34,-0.588 0.528,-1.486 0.528,-2.476 m 1.392,0 c 0,1.115 -0.217,2.23 -0.588,3.004 -0.558,1.084 -1.332,1.578 -2.447,1.578 -1.022,0 -1.732,-0.311 -2.26,-0.991 -0.588,-0.835 -0.959,-2.136 -0.959,-3.591 0,-1.053 0.246,-2.229 0.619,-2.973 0.526,-1.084 1.301,-1.584 2.539,-1.584 0.928,0 1.641,0.315 2.135,0.996 0.621,0.776 0.961,2.166 0.961,3.561 m -9.103,1.951 c 0,-0.371 -0.215,-0.744 -0.559,-0.93 -0.215,-0.123 -0.369,-0.154 -0.803,-0.154 l -1.672,0 0,2.168 1.672,0 c 0.463,0 0.588,-0.031 0.803,-0.156 0.344,-0.186 0.559,-0.557 0.559,-0.928 m 1.58,-6.348 -1.549,4.119 c 0.805,0.372 1.363,1.299 1.363,2.229 0,0.896 -0.558,1.826 -1.332,2.197 -0.433,0.217 -0.896,0.279 -1.578,0.279 l -2.912,0 0,-8.824 1.394,0 0,3.84 1.672,0 1.424,-3.84 1.518,0 z"
             style="fill:#231f20;fill-opacity:1;fill-rule:evenodd;stroke:none"
             id="path4250" />
        </g>
        <g
           id="g4252"
           transform="translate(404.6972,675.9498)">
          <path
             inkscape:connector-curvature="0"
             d="M 0,0 C 0,-1.178 -0.278,-2.137 -0.803,-2.662 -1.051,-2.91 -1.331,-3.004 -1.795,-3.004 l -1.393,0 0,6.008 1.578,0 c 0.373,0 0.682,-0.156 0.899,-0.373 C -0.278,2.168 0,1.176 0,0 m 1.425,0 c 0,1.734 -0.527,3.127 -1.455,3.932 -0.465,0.373 -0.804,0.464 -1.705,0.464 l -2.847,0 0,-8.822 2.693,0 0.498,0 c 0.463,0.03 0.928,0.184 1.268,0.494 0.99,0.774 1.548,2.166 1.548,3.932 m -7.463,-4.426 0,1.422 -4.087,0 0,2.416 2.572,0 0,1.424 -2.572,0 0,2.168 3.808,0 0,1.392 -5.199,0 0,-8.822 5.478,0 z m -6.935,2.537 c 0,3.469 -4.149,2.385 -4.272,4.026 -0.06,0.804 0.713,1.052 1.362,1.021 0.992,-0.031 1.301,-0.773 1.301,-0.773 l 1.24,0.371 c -0.434,1.084 -1.272,1.795 -2.508,1.795 -1.58,0 -2.756,-0.651 -2.756,-2.383 0,-1.455 1.176,-1.983 1.701,-2.199 1.147,-0.463 2.51,-0.651 2.51,-1.826 0,-0.745 -0.559,-1.301 -1.363,-1.301 -0.836,0 -1.518,0.465 -1.891,1.301 l -1.33,-0.497 c 0.588,-1.33 1.703,-2.234 3.221,-2.234 0.742,0 1.424,0.252 1.918,0.686 0.558,0.498 0.867,1.209 0.867,2.013 m -8.699,1.858 c 0,-0.68 -0.155,-1.547 -0.34,-2.012 -0.309,-0.773 -0.713,-1.115 -1.363,-1.115 -0.557,0 -0.93,0.217 -1.207,0.681 -0.34,0.557 -0.526,1.516 -0.526,2.446 0,0.744 0.123,1.549 0.34,2.074 0.309,0.775 0.742,1.115 1.424,1.084 0.525,-0.031 0.867,-0.217 1.144,-0.68 0.342,-0.59 0.528,-1.488 0.528,-2.478 m 1.394,0 c 0,1.115 -0.219,2.228 -0.588,3.004 -0.558,1.082 -1.334,1.578 -2.447,1.578 -1.021,0 -1.734,-0.309 -2.26,-0.99 -0.588,-0.836 -0.961,-2.137 -0.961,-3.592 0,-1.053 0.248,-2.231 0.619,-2.973 0.528,-1.082 1.301,-1.584 2.54,-1.584 0.929,0 1.642,0.317 2.136,0.996 0.619,0.776 0.961,2.168 0.961,3.561 m -7.369,-4.395 0,1.299 -4.088,0 0,7.523 -1.394,0 0,-8.822 5.482,0 z m -7.4,1.795 -1.332,0.494 c -0.34,-0.713 -0.774,-1.021 -1.362,-1.021 -0.619,0 -1.021,0.217 -1.332,0.681 -0.34,0.557 -0.556,1.516 -0.556,2.477 0,0.742 0.123,1.518 0.341,2.043 0.309,0.775 0.774,1.084 1.487,1.084 0.679,0 0.957,-0.186 1.453,-0.93 l 1.301,0.559 c -0.59,1.238 -1.424,1.795 -2.754,1.795 -0.992,0 -1.735,-0.34 -2.262,-0.99 -0.619,-0.774 -0.992,-2.168 -0.992,-3.561 0,-1.115 0.248,-2.229 0.652,-3.004 0.557,-1.082 1.391,-1.584 2.692,-1.584 1.271,0 2.138,0.656 2.664,1.957"
             style="fill:#231f20;fill-opacity:1;fill-rule:evenodd;stroke:none"
             id="path4254" />
        </g>
        <g
           id="g4256"
           transform="translate(366.5972,656.3151)">
          <path
             inkscape:connector-curvature="0"
             d="m 0,0 0,7.301 -0.561,0 0,0.967 c 0.5,0.033 0.813,0.25 1,0.625 l 0.84,0 L 1.279,0 0,0 z"
             style="fill:#231f20;fill-opacity:1;fill-rule:nonzero;stroke:none"
             id="path4258" />
        </g>
        <g
           id="g4260"
           transform="translate(373.4001,662.9927)">
          <path
             inkscape:connector-curvature="0"
             d="m 0,0 c -0.219,0.779 -0.563,1.123 -1.094,1.123 -0.559,0 -0.904,-0.344 -1.121,-1.092 -0.219,-0.687 -0.281,-1.279 -0.281,-2.279 0,-0.967 0.093,-1.527 0.281,-2.246 0.217,-0.748 0.562,-1.09 1.121,-1.09 0.531,0 0.875,0.342 1.094,1.09 0.216,0.719 0.281,1.248 0.281,2.279 C 0.281,-1.217 0.187,-0.656 0,0 m 0.998,-5.305 c -0.436,-1.06 -1.092,-1.527 -2.092,-1.527 -1.059,0 -1.684,0.467 -2.121,1.527 -0.375,0.875 -0.498,1.715 -0.498,3.09 0,1.342 0.123,2.246 0.498,3.088 0.469,1.061 1.094,1.498 2.121,1.498 1.029,0 1.656,-0.437 2.092,-1.529 0.375,-0.873 0.498,-1.715 0.498,-3.057 0,-1.375 -0.123,-2.248 -0.498,-3.09"
             style="fill:#231f20;fill-opacity:1;fill-rule:nonzero;stroke:none"
             id="path4262" />
        </g>
        <g
           id="g4264"
           transform="translate(380.2321,662.9927)">
          <path
             inkscape:connector-curvature="0"
             d="m 0,0 c -0.219,0.779 -0.561,1.123 -1.094,1.123 -0.559,0 -0.904,-0.344 -1.121,-1.092 -0.219,-0.687 -0.281,-1.279 -0.281,-2.279 0,-0.967 0.093,-1.527 0.281,-2.246 0.217,-0.748 0.562,-1.09 1.121,-1.09 0.533,0 0.875,0.342 1.094,1.09 0.218,0.719 0.281,1.248 0.281,2.279 C 0.281,-1.217 0.187,-0.656 0,0 m 0.998,-5.305 c -0.436,-1.06 -1.092,-1.527 -2.092,-1.527 -1.059,0 -1.682,0.467 -2.121,1.527 -0.375,0.875 -0.498,1.715 -0.498,3.09 0,1.342 0.123,2.246 0.498,3.088 0.469,1.061 1.094,1.498 2.121,1.498 1.031,0 1.656,-0.437 2.092,-1.529 0.375,-0.873 0.498,-1.715 0.498,-3.057 0,-1.375 -0.123,-2.248 -0.498,-3.09"
             style="fill:#231f20;fill-opacity:1;fill-rule:nonzero;stroke:none"
             id="path4266" />
        </g>
        <g
           id="g4268"
           transform="translate(387.0662,662.9927)">
          <path
             inkscape:connector-curvature="0"
             d="m 0,0 c -0.221,0.779 -0.563,1.123 -1.092,1.123 -0.563,0 -0.906,-0.344 -1.125,-1.092 -0.219,-0.687 -0.279,-1.279 -0.279,-2.279 0,-0.967 0.093,-1.527 0.279,-2.246 0.219,-0.748 0.562,-1.09 1.125,-1.09 0.529,0 0.871,0.342 1.092,1.09 0.216,0.719 0.279,1.248 0.279,2.279 C 0.279,-1.217 0.185,-0.656 0,0 m 0.998,-5.305 c -0.438,-1.06 -1.092,-1.527 -2.09,-1.527 -1.063,0 -1.686,0.467 -2.125,1.527 -0.371,0.875 -0.498,1.715 -0.498,3.09 0,1.342 0.127,2.246 0.498,3.088 0.469,1.061 1.094,1.498 2.125,1.498 1.027,0 1.652,-0.437 2.09,-1.529 0.373,-0.873 0.5,-1.715 0.5,-3.057 0,-1.375 -0.127,-2.248 -0.5,-3.09"
             style="fill:#231f20;fill-opacity:1;fill-rule:nonzero;stroke:none"
             id="path4270" />
        </g>
        <g
           id="g4272"
           transform="translate(396.0482,663.9595)">
          <path
             inkscape:connector-curvature="0"
             d="m 0,0 0,-2.246 1.779,0 0,-1.217 -1.779,0 0,-4.181 -1.277,0 0,8.892 4.523,0 L 3.246,0 0,0 z"
             style="fill:#231f20;fill-opacity:1;fill-rule:nonzero;stroke:none"
             id="path4274" />
        </g>
        <g
           id="g4276"
           transform="translate(402.7572,664.022)">
          <path
             inkscape:connector-curvature="0"
             d="m 0,0 0,-7.707 -1.277,0 0,7.707 -1.625,0 0,1.186 4.525,0 L 1.623,0 0,0 z"
             style="fill:#231f20;fill-opacity:1;fill-rule:nonzero;stroke:none"
             id="path4278" />
        </g>
      </g>
    </g>
  </g>
</svg>
