<?xml version="1.0" encoding="UTF-8" standalone="no"?>
<!-- Created with Inkscape (http://www.inkscape.org/) -->

<svg
   xmlns:dc="http://purl.org/dc/elements/1.1/"
   xmlns:cc="http://creativecommons.org/ns#"
   xmlns:rdf="http://www.w3.org/1999/02/22-rdf-syntax-ns#"
   xmlns:svg="http://www.w3.org/2000/svg"
   xmlns="http://www.w3.org/2000/svg"
   xmlns:sodipodi="http://sodipodi.sourceforge.net/DTD/sodipodi-0.dtd"
   xmlns:inkscape="http://www.inkscape.org/namespaces/inkscape"
   width="90.647636"
   height="90.636322"
   id="svg7174"
   version="1.1"
   inkscape:version="0.48.3.1 r9886"
   sodipodi:docname="New document 42">
  <defs
     id="defs7176" />
  <sodipodi:namedview
     id="base"
     pagecolor="#ffffff"
     bordercolor="#666666"
     borderopacity="1.0"
     inkscape:pageopacity="0.0"
     inkscape:pageshadow="2"
     inkscape:zoom="0.35"
     inkscape:cx="45.325351"
     inkscape:cy="45.315467"
     inkscape:document-units="px"
     inkscape:current-layer="layer1"
     showgrid="false"
     fit-margin-top="0"
     fit-margin-left="0"
     fit-margin-right="0"
     fit-margin-bottom="0"
     inkscape:window-width="451"
     inkscape:window-height="415"
     inkscape:window-x="175"
     inkscape:window-y="175"
     inkscape:window-maximized="0" />
  <metadata
     id="metadata7179">
    <rdf:RDF>
      <cc:Work
         rdf:about="">
        <dc:format>image/svg+xml</dc:format>
        <dc:type
           rdf:resource="http://purl.org/dc/dcmitype/StillImage" />
        <dc:title></dc:title>
      </cc:Work>
    </rdf:RDF>
  </metadata>
  <g
     inkscape:label="Layer 1"
     inkscape:groupmode="layer"
     id="layer1"
     transform="translate(-329.67465,-487.04133)">
    <g
       id="g3210"
       transform="matrix(1.25,0,0,-1.25,331.28656,529.24015)">
      <path
         d="m 0,0 32.473,32.472 c 1.373,1.374 3.621,1.374 4.996,0 L 69.94,0 c 1.375,-1.374 1.375,-3.622 0,-4.996 L 37.469,-37.468 c -1.375,-1.373 -3.623,-1.373 -4.996,0 L 0,-4.996 C -1.373,-3.622 -1.373,-1.374 0,0"
         style="fill:#f48412;fill-opacity:1;fill-rule:nonzero;stroke:none"
         id="path3212"
         inkscape:connector-curvature="0" />
    </g>
    <g
       id="g3214"
       transform="matrix(1.25,0,0,-1.25,331.28656,529.24015)">
      <path
         d="m 0,0 32.473,32.472 c 1.373,1.374 3.621,1.374 4.996,0 L 69.94,0 c 1.375,-1.374 1.375,-3.622 0,-4.996 L 37.469,-37.468 c -1.375,-1.373 -3.623,-1.373 -4.996,0 L 0,-4.996 C -1.373,-3.622 -1.373,-1.374 0,0 z"
         style="fill:none;stroke:#231f20;stroke-width:0.5;stroke-linecap:butt;stroke-linejoin:miter;stroke-miterlimit:2.61299992;stroke-opacity:1;stroke-dasharray:none"
         id="path3216"
         inkscape:connector-curvature="0" />
    </g>
    <g
       id="g3218"
       transform="matrix(1.25,0,0,-1.25,332.26531,529.88514)">
      <path
         d="m 0,0 32.205,32.204 c 1.09,1.09 2.873,1.09 3.965,0 L 68.373,0 c 1.09,-1.091 1.09,-2.874 0,-3.964 L 36.17,-36.169 c -1.092,-1.09 -2.875,-1.09 -3.965,0 L 0,-3.964 C -1.09,-2.874 -1.09,-1.091 0,0"
         style="fill:#231f20;fill-opacity:1;fill-rule:evenodd;stroke:none"
         id="path3220"
         inkscape:connector-curvature="0" />
    </g>
    <g
       id="g3222"
       transform="matrix(1.25,0,0,-1.25,333.52531,531.12514)">
      <path
         d="m 0,0 32.19,32.189 c 0.544,0.545 1.435,0.545 1.98,0 L 66.359,0 c 0.545,-0.545 0.545,-1.436 0,-1.98 L 34.17,-34.169 c -0.545,-0.545 -1.436,-0.545 -1.98,0 L 0,-1.98 C -0.545,-1.436 -0.545,-0.545 0,0"
         style="fill:#f48412;fill-opacity:1;fill-rule:evenodd;stroke:none"
         id="path3224"
         inkscape:connector-curvature="0" />
    </g>
    <g
       id="g3226"
       transform="matrix(1.25,0,0,-1.25,398.85531,521.10765)">
      <path
         d="m 0,0 c 0,-0.571 -0.323,-0.892 -0.918,-0.892 l -1.039,0 0,1.783 1.039,0 C -0.371,0.891 0,0.545 0,0 m 0.99,-5.178 -1.016,3.469 C 0.644,-1.462 0.99,-0.842 0.99,0 c 0,1.139 -0.742,1.883 -1.857,1.883 l -2.106,0 0,-7.061 1.016,0 0,3.319 0.965,0 0.941,-3.319 1.041,0 z m -5.152,0 0,0.99 -2.578,0 0,2.329 1.462,0 0,0.967 -1.462,0 0,1.783 2.304,0 0,0.992 -3.32,0 0,-7.061 3.594,0 z m -5.973,3.493 c 0,-0.545 -0.049,-1.041 -0.098,-1.486 -0.099,-0.546 -0.422,-1.017 -1.015,-1.017 l -0.844,0 0,5.079 0.844,0 c 0.445,0 0.742,-0.222 0.916,-0.717 0.123,-0.298 0.197,-1.066 0.197,-1.859 m 0.992,0.05 c 0,0.545 -0.074,1.164 -0.174,1.685 -0.123,0.717 -0.422,1.263 -0.841,1.56 -0.248,0.198 -0.545,0.273 -1.141,0.273 l -1.809,0 0,-7.061 1.957,0 c 0.397,0 0.745,0.099 0.993,0.322 0.693,0.545 1.015,1.585 1.015,3.221 m -4.931,-3.543 0,0.941 -2.577,0 0,6.12 -1.015,0 0,-7.061 3.592,0 z m -5.104,2.105 0,4.956 -1.016,0 0,-5.08 c 0,-0.669 -0.396,-1.114 -0.941,-1.114 -0.594,0 -0.99,0.445 -0.99,1.114 l 0,5.08 -1.016,0 0,-4.956 c 0,-0.57 0.074,-0.867 0.272,-1.238 0.347,-0.595 1.041,-0.996 1.734,-0.996 0.67,0 1.338,0.426 1.686,0.996 0.197,0.371 0.271,0.668 0.271,1.238 m -6.342,1.438 c 0,-0.818 -0.049,-1.239 -0.222,-1.809 -0.174,-0.595 -0.448,-0.867 -0.868,-0.867 -0.447,0 -0.718,0.272 -0.892,0.867 -0.149,0.57 -0.223,1.016 -0.223,1.784 0,0.793 0.049,1.263 0.223,1.808 0.174,0.595 0.445,0.867 0.892,0.867 0.42,0 0.694,-0.272 0.868,-0.891 0.148,-0.521 0.222,-0.966 0.222,-1.759 m 0.967,0 c 0,1.064 -0.1,1.734 -0.396,2.428 -0.348,0.867 -0.844,1.214 -1.661,1.214 -0.818,0 -1.314,-0.347 -1.685,-1.19 -0.297,-0.669 -0.397,-1.388 -0.397,-2.452 0,-1.091 0.1,-1.76 0.397,-2.453 0.347,-0.843 0.842,-1.219 1.685,-1.219 0.793,0 1.313,0.376 1.661,1.219 0.296,0.669 0.396,1.362 0.396,2.453 m -5.525,-3.543 0,7.061 -1.016,0 0,-2.875 -1.934,0 0,2.875 -1.015,0 0,-7.061 1.015,0 0,3.195 1.934,0 0,-3.195 1.016,0 z m -5.155,1.932 c 0,1.016 -0.593,1.784 -1.957,2.577 -0.519,0.298 -0.668,0.495 -0.668,0.843 0,0.47 0.371,0.817 0.842,0.817 0.445,0 0.793,-0.322 0.818,-0.817 l 0.965,0 c -0.023,1.065 -0.793,1.833 -1.783,1.833 -1.015,0 -1.808,-0.818 -1.808,-1.833 0,-0.62 0.296,-1.166 0.867,-1.562 1.437,-0.966 1.041,-0.693 1.189,-0.842 0.42,-0.322 0.57,-0.62 0.57,-1.016 0,-0.57 -0.447,-1.065 -0.992,-1.065 -0.693,0 -0.99,0.619 -0.99,1.214 l -0.992,0 c 0,-1.165 0.744,-2.21 1.982,-2.21 1.09,0 1.957,0.922 1.957,2.061"
         style="fill:#231f20;fill-opacity:1;fill-rule:evenodd;stroke:none"
         id="path3228"
         inkscape:connector-curvature="0" />
    </g>
    <g
       id="g3230"
       transform="matrix(1.25,0,0,-1.25,388.36656,506.68389)">
      <path
         d="m 0,0 0,0.941 -3.592,0 0,-0.941 1.289,0 0,-6.119 1.016,0 0,6.119 L 0,0 z m -4.558,-6.119 0,7.06 -1.016,0 0,-2.874 -1.932,0 0,2.874 -1.015,0 0,-7.06 1.015,0 0,3.195 1.932,0 0,-3.195 1.016,0 z m -5.352,1.957 0,1.461 -1.809,0 0,-0.991 0.793,0 0,-0.47 c 0,-0.744 -0.248,-1.091 -0.767,-1.091 -0.545,0 -0.893,0.372 -1.041,1.065 -0.1,0.545 -0.149,1.165 -0.149,1.76 0,0.842 0.125,1.635 0.323,1.981 0.173,0.347 0.445,0.521 0.793,0.521 0.496,0 0.818,-0.322 0.841,-0.793 l 1.016,0 c -0.049,1.041 -0.816,1.784 -1.832,1.784 -0.818,0 -1.537,-0.545 -1.785,-1.288 -0.248,-0.669 -0.322,-1.388 -0.322,-2.379 0,-0.917 0.15,-1.908 0.373,-2.428 0.345,-0.793 0.964,-1.218 1.808,-1.218 0.719,0 1.287,0.376 1.561,0.995 0.148,0.298 0.197,0.595 0.197,1.091 m -5.352,5.103 -0.99,0 0,-7.06 0.99,0 0,7.06 z m -3.146,-1.883 c 0,-0.57 -0.322,-0.892 -0.916,-0.892 l -1.041,0 0,1.784 1.041,0 c 0.545,0 0.916,-0.347 0.916,-0.892 m 0.992,-5.177 -1.016,3.467 c 0.668,0.248 1.016,0.868 1.016,1.71 0,1.14 -0.744,1.883 -1.859,1.883 l -2.106,0 0,-7.06 1.016,0 0,3.319 0.967,0 0.941,-3.319 1.041,0 z"
         style="fill:#231f20;fill-opacity:1;fill-rule:evenodd;stroke:none"
         id="path3232"
         inkscape:connector-curvature="0" />
    </g>
    <g
       id="g3234"
       transform="matrix(1.25,0,0,-1.25,391.80156,536.45139)">
      <path
         d="m 0,0 c 0,-0.545 -0.051,-1.041 -0.099,-1.486 -0.1,-0.545 -0.422,-1.016 -1.016,-1.016 l -0.842,0 0,5.079 0.842,0 c 0.445,0 0.742,-0.223 0.916,-0.718 C -0.074,1.561 0,0.793 0,0 M 0.99,0.05 C 0.99,0.595 0.916,1.214 0.817,1.735 0.694,2.453 0.397,2.998 -0.025,3.296 -0.273,3.493 -0.57,3.568 -1.166,3.568 l -1.808,0 0,-7.061 1.959,0 c 0.396,0 0.742,0.099 0.99,0.322 0.693,0.545 1.015,1.585 1.015,3.221 m -5.152,-3.543 0,0.991 -2.578,0 0,2.329 1.463,0 0,0.966 -1.463,0 0,1.784 2.305,0 0,0.991 -3.321,0 0,-7.061 3.594,0 z m -4.783,1.933 c 0,1.015 -0.594,1.783 -1.957,2.576 -0.52,0.298 -0.668,0.496 -0.668,0.843 0,0.47 0.371,0.817 0.842,0.817 0.445,0 0.793,-0.322 0.818,-0.817 l 0.965,0 c -0.024,1.065 -0.793,1.833 -1.783,1.833 -1.016,0 -1.809,-0.818 -1.809,-1.833 0,-0.619 0.297,-1.165 0.867,-1.561 1.438,-0.967 1.041,-0.694 1.19,-0.843 0.42,-0.322 0.57,-0.619 0.57,-1.015 0,-0.571 -0.447,-1.066 -0.992,-1.066 -0.694,0 -0.99,0.619 -0.99,1.214 l -0.993,0 c 0,-1.165 0.745,-2.209 1.983,-2.209 1.09,0 1.957,0.921 1.957,2.061 m -5.971,1.61 c 0,-0.817 -0.049,-1.239 -0.222,-1.809 -0.174,-0.594 -0.446,-0.867 -0.868,-0.867 -0.445,0 -0.718,0.273 -0.892,0.867 -0.149,0.57 -0.223,1.016 -0.223,1.784 0,0.793 0.051,1.263 0.223,1.808 0.174,0.595 0.447,0.867 0.892,0.867 0.422,0 0.694,-0.272 0.868,-0.891 0.148,-0.521 0.222,-0.966 0.222,-1.759 m 0.967,0 c 0,1.066 -0.1,1.734 -0.397,2.428 -0.347,0.867 -0.841,1.214 -1.66,1.214 -0.818,0 -1.312,-0.347 -1.685,-1.189 -0.297,-0.67 -0.397,-1.387 -0.397,-2.453 0,-1.091 0.1,-1.76 0.397,-2.453 0.347,-0.843 0.844,-1.218 1.685,-1.218 0.793,0 1.313,0.375 1.66,1.218 0.297,0.669 0.397,1.362 0.397,2.453 m -4.981,-3.543 0,0.942 -2.576,0 0,6.119 -1.015,0 0,-7.061 3.591,0 z m -4.98,5.178 c -0.074,0.644 -0.172,0.941 -0.445,1.289 -0.323,0.471 -0.819,0.718 -1.387,0.718 -1.389,0 -2.107,-1.214 -2.107,-3.493 0,-2.602 0.669,-3.82 2.181,-3.82 0.99,0 1.735,0.847 1.758,2.011 l -1.016,0 c 0,-0.521 -0.148,-1.016 -0.742,-1.016 -0.867,0 -1.215,0.818 -1.215,2.849 0,1.834 0.297,2.477 1.116,2.477 0.47,0 0.744,-0.321 0.841,-1.015 l 1.016,0 z"
         style="fill:#231f20;fill-opacity:1;fill-rule:evenodd;stroke:none"
         id="path3236"
         inkscape:connector-curvature="0" />
    </g>
    <g
       id="g3238"
       transform="matrix(1.25,0,0,-1.25,394.04281,546.42389)">
      <path
         d="m 0,0 0,0.941 -3.592,0 0,-0.941 1.287,0 0,-6.12 1.016,0 0,6.12 L 0,0 z m -4.014,-0.05 0,0.991 -3.591,0 0,-7.061 1.015,0 0,3.32 1.412,0 0,0.966 -1.412,0 0,1.784 2.576,0 z m -9.49,-2.527 c 0,-0.818 -0.049,-1.239 -0.222,-1.809 -0.172,-0.595 -0.446,-0.867 -0.868,-0.867 -0.445,0 -0.716,0.272 -0.89,0.867 -0.149,0.57 -0.223,1.016 -0.223,1.784 0,0.793 0.049,1.264 0.223,1.809 0.174,0.595 0.445,0.867 0.89,0.867 0.422,0 0.696,-0.272 0.868,-0.892 0.148,-0.52 0.222,-0.966 0.222,-1.759 m 0.967,0 c 0,1.065 -0.1,1.734 -0.396,2.428 -0.346,0.868 -0.842,1.214 -1.661,1.214 -0.816,0 -1.312,-0.346 -1.683,-1.189 -0.297,-0.669 -0.397,-1.388 -0.397,-2.453 0,-1.09 0.1,-1.759 0.397,-2.453 0.346,-0.842 0.842,-1.218 1.683,-1.218 0.793,0 1.315,0.376 1.661,1.218 0.296,0.669 0.396,1.363 0.396,2.453 m -6.393,0 c 0,-0.818 -0.048,-1.239 -0.222,-1.809 -0.172,-0.595 -0.446,-0.867 -0.867,-0.867 -0.446,0 -0.719,0.272 -0.891,0.867 -0.148,0.57 -0.225,1.016 -0.225,1.784 0,0.793 0.051,1.264 0.225,1.809 0.172,0.595 0.445,0.867 0.891,0.867 0.421,0 0.695,-0.272 0.867,-0.892 0.148,-0.52 0.222,-0.966 0.222,-1.759 m 0.967,0 c 0,1.065 -0.099,1.734 -0.396,2.428 -0.346,0.868 -0.842,1.214 -1.66,1.214 -0.817,0 -1.313,-0.346 -1.684,-1.189 -0.299,-0.669 -0.396,-1.388 -0.396,-2.453 0,-1.09 0.097,-1.759 0.396,-2.453 0.346,-0.842 0.842,-1.218 1.684,-1.218 0.793,0 1.314,0.376 1.66,1.218 0.297,0.669 0.396,1.363 0.396,2.453 m -6.392,0 c 0,-0.818 -0.049,-1.239 -0.223,-1.809 -0.174,-0.595 -0.445,-0.867 -0.867,-0.867 -0.445,0 -0.719,0.272 -0.891,0.867 -0.15,0.57 -0.224,1.016 -0.224,1.784 0,0.793 0.05,1.264 0.224,1.809 0.172,0.595 0.446,0.867 0.891,0.867 0.422,0 0.693,-0.272 0.867,-0.892 0.148,-0.52 0.223,-0.966 0.223,-1.759 m 0.966,0 c 0,1.065 -0.099,1.734 -0.396,2.428 -0.346,0.868 -0.842,1.214 -1.66,1.214 -0.817,0 -1.313,-0.346 -1.684,-1.189 -0.299,-0.669 -0.396,-1.388 -0.396,-2.453 0,-1.09 0.097,-1.759 0.396,-2.453 0.346,-0.842 0.842,-1.218 1.684,-1.218 0.793,0 1.314,0.376 1.66,1.218 0.297,0.669 0.396,1.363 0.396,2.453 m -5.548,-3.543 0,7.061 -0.67,0 C -29.756,0.643 -30.004,0.47 -30.4,0.446 l 0,-0.768 0.445,0 0,-5.798 1.018,0 z"
         style="fill:#231f20;fill-opacity:1;fill-rule:evenodd;stroke:none"
         id="path3240"
         inkscape:connector-curvature="0" />
    </g>
  </g>
</svg>
