<?xml version="1.0" encoding="UTF-8" standalone="no"?>
<!-- Created with Inkscape (http://www.inkscape.org/) -->

<svg
   xmlns:dc="http://purl.org/dc/elements/1.1/"
   xmlns:cc="http://creativecommons.org/ns#"
   xmlns:rdf="http://www.w3.org/1999/02/22-rdf-syntax-ns#"
   xmlns:svg="http://www.w3.org/2000/svg"
   xmlns="http://www.w3.org/2000/svg"
   xmlns:sodipodi="http://sodipodi.sourceforge.net/DTD/sodipodi-0.dtd"
   xmlns:inkscape="http://www.inkscape.org/namespaces/inkscape"
   width="90.647636"
   height="90.637291"
   id="svg7058"
   version="1.1"
   inkscape:version="0.48.3.1 r9886"
   sodipodi:docname="New document 38">
  <defs
     id="defs7060" />
  <sodipodi:namedview
     id="base"
     pagecolor="#ffffff"
     bordercolor="#666666"
     borderopacity="1.0"
     inkscape:pageopacity="0.0"
     inkscape:pageshadow="2"
     inkscape:zoom="0.35"
     inkscape:cx="45.325412"
     inkscape:cy="45.314687"
     inkscape:document-units="px"
     inkscape:current-layer="layer1"
     showgrid="false"
     fit-margin-top="0"
     fit-margin-left="0"
     fit-margin-right="0"
     fit-margin-bottom="0"
     inkscape:window-width="451"
     inkscape:window-height="415"
     inkscape:window-x="75"
     inkscape:window-y="75"
     inkscape:window-maximized="0" />
  <metadata
     id="metadata7063">
    <rdf:RDF>
      <cc:Work
         rdf:about="">
        <dc:format>image/svg+xml</dc:format>
        <dc:type
           rdf:resource="http://purl.org/dc/dcmitype/StillImage" />
        <dc:title></dc:title>
      </cc:Work>
    </rdf:RDF>
  </metadata>
  <g
     inkscape:label="Layer 1"
     inkscape:groupmode="layer"
     id="layer1"
     transform="translate(-329.67459,-487.03958)">
    <g
       id="g3242"
       transform="matrix(1.25,0,0,-1.25,331.28844,529.23937)">
      <path
         d="m 0,0 32.471,32.471 c 1.375,1.375 3.623,1.375 4.996,0 L 69.94,0 c 1.373,-1.375 1.373,-3.623 0,-4.996 L 37.467,-37.469 c -1.373,-1.373 -3.621,-1.373 -4.996,0 L 0,-4.996 C -1.375,-3.623 -1.375,-1.375 0,0"
         style="fill:#f48412;fill-opacity:1;fill-rule:nonzero;stroke:none"
         id="path3244"
         inkscape:connector-curvature="0" />
    </g>
    <g
       id="g3246"
       transform="matrix(1.25,0,0,-1.25,331.28844,529.23937)">
      <path
         d="m 0,0 32.471,32.471 c 1.375,1.375 3.623,1.375 4.996,0 L 69.94,0 c 1.373,-1.375 1.373,-3.623 0,-4.996 L 37.467,-37.469 c -1.373,-1.373 -3.621,-1.373 -4.996,0 L 0,-4.996 C -1.375,-3.623 -1.375,-1.375 0,0 z"
         style="fill:none;stroke:#231f20;stroke-width:0.5;stroke-linecap:butt;stroke-linejoin:miter;stroke-miterlimit:2.61299992;stroke-opacity:1;stroke-dasharray:none"
         id="path3248"
         inkscape:connector-curvature="0" />
    </g>
    <g
       id="g3250"
       transform="matrix(1.25,0,0,-1.25,332.26469,529.88687)">
      <path
         d="m 0,0 32.207,32.205 c 1.09,1.09 2.873,1.09 3.963,0 L 68.375,0 c 1.09,-1.09 1.09,-2.873 0,-3.963 L 36.17,-36.168 c -1.09,-1.09 -2.873,-1.09 -3.963,0 L 0,-3.963 C -1.09,-2.873 -1.09,-1.09 0,0"
         style="fill:#231f20;fill-opacity:1;fill-rule:evenodd;stroke:none"
         id="path3252"
         inkscape:connector-curvature="0" />
    </g>
    <g
       id="g3254"
       transform="matrix(1.25,0,0,-1.25,333.52469,531.12437)">
      <path
         d="m 0,0 32.19,32.19 c 0.545,0.544 1.437,0.544 1.98,0 L 66.36,0 c 0.544,-0.545 0.544,-1.437 0,-1.98 L 34.17,-34.17 c -0.543,-0.545 -1.435,-0.545 -1.98,0 L 0,-1.98 C -0.545,-1.437 -0.545,-0.545 0,0"
         style="fill:#f48412;fill-opacity:1;fill-rule:evenodd;stroke:none"
         id="path3256"
         inkscape:connector-curvature="0" />
    </g>
    <g
       id="g3258"
       transform="matrix(1.25,0,0,-1.25,404.79719,527.96812)">
      <path
         d="m 0,0 c 0,-0.712 -0.403,-1.115 -1.147,-1.115 l -1.301,0 0,2.231 1.301,0 C -0.465,1.116 0,0.682 0,0 m 1.238,-6.472 -1.27,4.336 c 0.836,0.31 1.27,1.084 1.27,2.136 0,1.426 -0.93,2.354 -2.322,2.354 l -2.633,0 0,-8.826 1.269,0 0,4.15 1.209,0 1.176,-4.15 1.301,0 z m -6.441,0 0,1.238 -3.221,0 0,2.912 1.826,0 0,1.207 -1.826,0 0,2.231 2.879,0 0,1.238 -4.149,0 0,-8.826 4.491,0 z m -7.465,4.367 c 0,-0.682 -0.061,-1.301 -0.123,-1.857 -0.123,-0.682 -0.528,-1.272 -1.27,-1.272 l -1.053,0 0,6.35 1.053,0 c 0.557,0 0.93,-0.28 1.147,-0.899 0.154,-0.371 0.246,-1.332 0.246,-2.322 m 1.24,0.062 c 0,0.68 -0.094,1.456 -0.217,2.106 -0.156,0.898 -0.527,1.58 -1.053,1.951 -0.31,0.248 -0.681,0.34 -1.425,0.34 l -2.26,0 0,-8.826 2.445,0 c 0.496,0 0.93,0.125 1.24,0.402 0.868,0.682 1.27,1.983 1.27,4.027 m -6.164,-4.429 0,1.178 -3.221,0 0,7.648 -1.269,0 0,-8.826 4.49,0 z m -6.379,2.633 0,6.193 -1.27,0 0,-6.348 c 0,-0.836 -0.496,-1.394 -1.177,-1.394 -0.742,0 -1.239,0.558 -1.239,1.394 l 0,6.348 -1.269,0 0,-6.193 c 0,-0.713 0.094,-1.084 0.34,-1.549 0.433,-0.742 1.301,-1.244 2.168,-1.244 0.838,0 1.674,0.531 2.107,1.244 0.246,0.465 0.34,0.836 0.34,1.549 m -7.928,1.796 c 0,-1.023 -0.062,-1.548 -0.279,-2.261 -0.217,-0.742 -0.557,-1.084 -1.084,-1.084 -0.557,0 -0.898,0.342 -1.115,1.084 -0.186,0.713 -0.28,1.269 -0.28,2.23 0,0.99 0.063,1.578 0.28,2.26 0.217,0.744 0.558,1.084 1.115,1.084 0.527,0 0.867,-0.34 1.084,-1.115 0.186,-0.651 0.279,-1.207 0.279,-2.198 m 1.207,0 c 0,1.331 -0.123,2.168 -0.496,3.036 -0.433,1.084 -1.053,1.517 -2.074,1.517 -1.021,0 -1.641,-0.433 -2.105,-1.488 -0.374,-0.836 -0.497,-1.734 -0.497,-3.065 0,-1.363 0.123,-2.199 0.497,-3.066 0.433,-1.053 1.052,-1.523 2.105,-1.523 0.99,0 1.641,0.47 2.074,1.523 0.373,0.836 0.496,1.703 0.496,3.066 m -6.906,-4.429 0,8.826 -1.269,0 0,-3.592 -2.416,0 0,3.592 -1.27,0 0,-8.826 1.27,0 0,3.996 2.416,0 0,-3.996 1.269,0 z m -6.441,2.416 c 0,1.269 -0.744,2.23 -2.448,3.221 -0.65,0.371 -0.836,0.619 -0.836,1.052 0,0.588 0.465,1.022 1.053,1.022 0.559,0 0.992,-0.403 1.022,-1.022 l 1.209,0 c -0.032,1.332 -0.991,2.293 -2.231,2.293 -1.269,0 -2.26,-1.023 -2.26,-2.293 0,-0.773 0.372,-1.455 1.084,-1.951 1.795,-1.207 1.301,-0.867 1.487,-1.053 0.525,-0.402 0.711,-0.773 0.711,-1.269 0,-0.713 -0.557,-1.332 -1.239,-1.332 -0.867,0 -1.238,0.775 -1.238,1.517 l -1.238,0 c 0,-1.455 0.928,-2.761 2.476,-2.761 1.364,0 2.448,1.152 2.448,2.576"
         style="fill:#231f20;fill-opacity:1;fill-rule:evenodd;stroke:none"
         id="path3260"
         inkscape:connector-curvature="0" />
    </g>
    <g
       id="g3262"
       transform="matrix(1.25,0,0,-1.25,391.31594,553.72563)">
      <path
         d="m 0,0 -2.043,5.729 1.826,3.098 -1.455,0 -2.014,-3.531 0,3.531 -1.27,0 0,-8.827 1.27,0 0,2.819 0.805,1.487 L -1.332,0 0,0 z m -7.649,6.474 c 0,-0.713 -0.404,-1.116 -1.146,-1.116 l -1.301,0 0,2.231 1.301,0 c 0.681,0 1.146,-0.434 1.146,-1.115 M -6.411,0 -7.68,4.337 c 0.836,0.309 1.269,1.084 1.269,2.137 0,1.423 -0.929,2.353 -2.322,2.353 l -2.633,0 0,-8.827 1.27,0 0,4.151 1.207,0 1.178,-4.151 1.3,0 z m -7.927,4.429 c 0,-1.022 -0.063,-1.547 -0.28,-2.26 -0.216,-0.744 -0.556,-1.084 -1.084,-1.084 -0.556,0 -0.898,0.34 -1.115,1.084 -0.185,0.713 -0.277,1.269 -0.277,2.23 0,0.991 0.06,1.579 0.277,2.26 0.217,0.744 0.559,1.084 1.115,1.084 0.528,0 0.868,-0.34 1.084,-1.115 0.186,-0.65 0.28,-1.207 0.28,-2.199 m 1.207,0 c 0,1.332 -0.123,2.168 -0.494,3.035 -0.436,1.084 -1.055,1.517 -2.077,1.517 -1.021,0 -1.64,-0.433 -2.105,-1.486 -0.371,-0.836 -0.496,-1.734 -0.496,-3.066 0,-1.362 0.125,-2.198 0.496,-3.065 0.434,-1.052 1.053,-1.524 2.105,-1.524 0.993,0 1.641,0.472 2.077,1.524 0.371,0.836 0.494,1.703 0.494,3.065 m -6.225,4.398 -1.238,0 -0.776,-4.707 -0.836,4.707 -0.99,0 -0.867,-4.707 -0.744,4.707 -1.238,0 1.394,-8.827 1.113,0 0.838,4.616 0.836,-4.616 1.084,0 1.424,8.827 z"
         style="fill:#231f20;fill-opacity:1;fill-rule:evenodd;stroke:none"
         id="path3264"
         inkscape:connector-curvature="0" />
    </g>
  </g>
</svg>
