<?xml version="1.0" encoding="UTF-8" standalone="no"?>
<!-- Created with Inkscape (http://www.inkscape.org/) -->

<svg
   xmlns:dc="http://purl.org/dc/elements/1.1/"
   xmlns:cc="http://creativecommons.org/ns#"
   xmlns:rdf="http://www.w3.org/1999/02/22-rdf-syntax-ns#"
   xmlns:svg="http://www.w3.org/2000/svg"
   xmlns="http://www.w3.org/2000/svg"
   xmlns:sodipodi="http://sodipodi.sourceforge.net/DTD/sodipodi-0.dtd"
   xmlns:inkscape="http://www.inkscape.org/namespaces/inkscape"
   width="77.65625"
   height="66.640633"
   id="svg7608"
   version="1.1"
   inkscape:version="0.48.3.1 r9886"
   sodipodi:docname="New document 52">
  <defs
     id="defs7610">
    <clipPath
       clipPathUnits="userSpaceOnUse"
       id="clipPath3586">
      <path
         inkscape:connector-curvature="0"
         d="m 26.691,37.035 513,0 0,700.965 -513,0 0,-700.965 z"
         id="path3588" />
    </clipPath>
  </defs>
  <sodipodi:namedview
     id="base"
     pagecolor="#ffffff"
     bordercolor="#666666"
     borderopacity="1.0"
     inkscape:pageopacity="0.0"
     inkscape:pageshadow="2"
     inkscape:zoom="0.35"
     inkscape:cx="38.818123"
     inkscape:cy="33.323437"
     inkscape:document-units="px"
     inkscape:current-layer="layer1"
     showgrid="false"
     fit-margin-top="0"
     fit-margin-left="0"
     fit-margin-right="0"
     fit-margin-bottom="0"
     inkscape:window-width="451"
     inkscape:window-height="398"
     inkscape:window-x="25"
     inkscape:window-y="25"
     inkscape:window-maximized="0" />
  <metadata
     id="metadata7613">
    <rdf:RDF>
      <cc:Work
         rdf:about="">
        <dc:format>image/svg+xml</dc:format>
        <dc:type
           rdf:resource="http://purl.org/dc/dcmitype/StillImage" />
        <dc:title></dc:title>
      </cc:Work>
    </rdf:RDF>
  </metadata>
  <g
     inkscape:label="Layer 1"
     inkscape:groupmode="layer"
     id="layer1"
     transform="translate(-336.18188,-499.04499)">
    <g
       transform="matrix(1.25,0,0,-1.25,-134.52837,905.72593)"
       id="g3582">
      <g
         id="g3584"
         clip-path="url(#clipPath3586)">
        <g
           id="g3590"
           transform="translate(376.8182,275.8135)">
          <path
             inkscape:connector-curvature="0"
             d="m 0,0 -0.002,45.755 c -0.002,1.944 1.588,3.534 3.533,3.534 l 54.547,-0.004 c 1.943,0.002 3.533,-1.588 3.533,-3.532 l 0,-45.752 c 0,-1.945 -1.59,-3.535 -3.533,-3.533 L 3.533,-3.534 C 1.589,-3.532 0,-1.942 0,0"
             style="fill:#f48412;fill-opacity:1;fill-rule:nonzero;stroke:none"
             id="path3592" />
        </g>
        <g
           id="g3594"
           transform="translate(376.8182,275.8135)">
          <path
             inkscape:connector-curvature="0"
             d="m 0,0 -0.002,45.755 c -0.002,1.944 1.588,3.534 3.533,3.534 l 54.547,-0.004 c 1.943,0.002 3.533,-1.588 3.533,-3.532 l 0,-45.752 c 0,-1.945 -1.59,-3.535 -3.533,-3.533 L 3.533,-3.534 C 1.589,-3.532 0,-1.942 0,0 z"
             style="fill:none;stroke:#231f20;stroke-width:0.5;stroke-linecap:butt;stroke-linejoin:miter;stroke-miterlimit:4;stroke-opacity:1;stroke-dasharray:none"
             id="path3596" />
        </g>
        <g
           id="g3598"
           transform="translate(377.7362,276.0026)">
          <path
             inkscape:connector-curvature="0"
             d="m 0,0 -0.002,45.379 c 0,1.541 1.261,2.801 2.802,2.803 l 54.17,-0.004 c 1.543,0 2.803,-1.26 2.803,-2.801 L 59.775,0 C 59.773,-1.541 58.511,-2.803 56.97,-2.803 l -54.168,0 C 1.261,-2.803 0,-1.543 0,0"
             style="fill:#231f20;fill-opacity:1;fill-rule:evenodd;stroke:none"
             id="path3600" />
        </g>
        <g
           id="g3602"
           transform="translate(379.1502,276.0125)">
          <path
             inkscape:connector-curvature="0"
             d="m 0,0 -0.002,45.357 c -0.002,0.77 0.629,1.401 1.4,1.401 l 54.149,-0.002 c 0.771,0 1.4,-0.631 1.4,-1.401 L 56.947,0 c 0,-0.77 -0.631,-1.403 -1.4,-1.401 l -54.147,0 C 0.631,-1.401 0,-0.77 0,0"
             style="fill:#f48412;fill-opacity:1;fill-rule:evenodd;stroke:none"
             id="path3604" />
        </g>
        <g
           id="g3606"
           transform="translate(392.3242,284.2705)">
          <path
             inkscape:connector-curvature="0"
             d="m 0,0 c -0.073,0.503 -0.27,0.738 -0.614,0.738 -0.594,0 -0.808,-0.469 -0.808,-1.801 0,-1.476 0.252,-2.07 0.88,-2.07 0.434,0 0.542,0.359 0.542,0.738 l 0.738,0 c -0.018,-0.846 -0.559,-1.459 -1.28,-1.459 -1.097,0 -1.583,0.883 -1.583,2.773 0,1.657 0.521,2.54 1.531,2.54 0.414,0 0.773,-0.18 1.008,-0.524 C 0.611,0.683 0.683,0.468 0.738,0 L 0,0 z"
             style="fill:#231f20;fill-opacity:1;fill-rule:nonzero;stroke:none"
             id="path3608" />
        </g>
        <g
           id="g3610"
           transform="translate(394.0702,280.5065)">
          <path
             inkscape:connector-curvature="0"
             d="m 0,0 0,5.133 2.412,0 0,-0.721 -1.674,0 0,-1.297 1.062,0 0,-0.701 -1.062,0 0,-1.693 1.873,0 L 2.611,0 0,0 z"
             style="fill:#231f20;fill-opacity:1;fill-rule:nonzero;stroke:none"
             id="path3612" />
        </g>
        <g
           id="g3614"
           transform="translate(397.5272,280.5065)">
          <path
             inkscape:connector-curvature="0"
             d="m 0,0 0,5.133 0.738,0 0,-4.448 1.873,0 L 2.611,0 0,0 z"
             style="fill:#231f20;fill-opacity:1;fill-rule:nonzero;stroke:none"
             id="path3616" />
        </g>
        <g
           id="g3618"
           transform="translate(400.8392,280.5065)">
          <path
             inkscape:connector-curvature="0"
             d="m 0,0 0,5.133 0.738,0 0,-4.448 1.873,0 L 2.611,0 0,0 z"
             style="fill:#231f20;fill-opacity:1;fill-rule:nonzero;stroke:none"
             id="path3620" />
        </g>
        <g
           id="g3622"
           transform="translate(409.5722,284.1976)">
          <path
             inkscape:connector-curvature="0"
             d="m 0,0 c 0,0.866 -0.541,1.442 -1.35,1.442 l -1.531,0 0,-5.133 0.738,0 0,2.252 0.793,0 C -0.487,-1.439 0,-0.935 0,0 m -0.721,0 c 0,-0.468 -0.235,-0.738 -0.666,-0.738 l -0.756,0 0,1.459 0.756,0 c 0.396,0 0.666,-0.289 0.666,-0.721"
             style="fill:#231f20;fill-opacity:1;fill-rule:nonzero;stroke:none"
             id="path3624" />
        </g>
        <g
           id="g3626"
           transform="translate(412.3982,280.5065)">
          <path
             inkscape:connector-curvature="0"
             d="m 0,0 0,2.324 -1.405,0 0,-2.324 -0.738,0 0,5.133 0.738,0 0,-2.09 1.405,0 0,2.09 0.738,0 L 0.738,0 0,0 z"
             style="fill:#231f20;fill-opacity:1;fill-rule:nonzero;stroke:none"
             id="path3628" />
        </g>
        <g
           id="g3630"
           transform="translate(417.1522,283.0825)">
          <path
             inkscape:connector-curvature="0"
             d="M 0,0 C 0,0.774 -0.073,1.26 -0.289,1.764 -0.541,2.395 -0.901,2.647 -1.495,2.647 -2.09,2.647 -2.45,2.395 -2.719,1.781 -2.936,1.295 -3.008,0.774 -3.008,0 c 0,-0.793 0.072,-1.279 0.289,-1.783 0.252,-0.611 0.611,-0.883 1.224,-0.883 0.577,0 0.954,0.272 1.206,0.883 C -0.073,-1.297 0,-0.793 0,0 m -0.703,0 c 0,-0.596 -0.036,-0.9 -0.163,-1.314 -0.125,-0.434 -0.324,-0.631 -0.629,-0.631 -0.324,0 -0.523,0.197 -0.648,0.631 -0.109,0.414 -0.162,0.738 -0.162,1.295 0,0.576 0.035,0.919 0.162,1.314 0.125,0.434 0.324,0.631 0.648,0.631 0.305,0 0.504,-0.197 0.629,-0.649 C -0.756,0.9 -0.703,0.576 -0.703,0"
             style="fill:#231f20;fill-opacity:1;fill-rule:nonzero;stroke:none"
             id="path3632" />
        </g>
        <g
           id="g3634"
           transform="translate(420.4822,280.5065)">
          <path
             inkscape:connector-curvature="0"
             d="m 0,0 -1.584,3.439 0,-3.439 -0.739,0 0,5.133 0.739,0 1.404,-3.08 0,3.08 0.738,0 L 0.558,0 0,0 z"
             style="fill:#231f20;fill-opacity:1;fill-rule:nonzero;stroke:none"
             id="path3636" />
        </g>
        <g
           id="g3638"
           transform="translate(422.1382,280.5065)">
          <path
             inkscape:connector-curvature="0"
             d="m 0,0 0,5.133 2.412,0 0,-0.721 -1.674,0 0,-1.297 1.063,0 0,-0.701 -1.063,0 0,-1.693 1.873,0 L 2.611,0 0,0 z"
             style="fill:#231f20;fill-opacity:1;fill-rule:nonzero;stroke:none"
             id="path3640" />
        </g>
        <g
           id="g3642"
           transform="translate(389.6132,297.6215)">
          <path
             inkscape:connector-curvature="0"
             d="M 0,0 C 0.037,0.703 0.089,0.955 0.252,1.404 0.468,1.945 0.738,2.36 1.08,2.684 1.207,2.791 1.314,2.881 1.728,3.17 2.07,3.404 2.16,3.529 2.16,3.781 2.16,4.178 1.836,4.502 1.441,4.502 1.044,4.502 0.72,4.178 0.72,3.781 L 0,3.781 C 0.017,4.592 0.63,5.223 1.441,5.223 2.232,5.223 2.863,4.574 2.863,3.781 2.863,3.367 2.718,3.043 2.431,2.774 2.377,2.738 2.322,2.701 2.269,2.647 L 2.087,2.522 1.908,2.395 1.711,2.252 C 1.386,2.018 1.044,1.549 0.9,1.117 0.845,0.99 0.828,0.901 0.793,0.721 l 2.07,0 L 2.863,0 0,0 z"
             style="fill:#231f20;fill-opacity:1;fill-rule:nonzero;stroke:none"
             id="path3644" />
        </g>
        <path
           inkscape:connector-curvature="0"
           d="m 392.943,300.413 1.8,0 0,-0.683 -1.8,0 0,0.683 z"
           style="fill:#231f20;fill-opacity:1;fill-rule:nonzero;stroke:none"
           id="path3646" />
        <g
           id="g3648"
           transform="translate(398.1282,297.6215)">
          <path
             inkscape:connector-curvature="0"
             d="M 0,0 -0.629,0 -1.115,2.684 -1.601,0 -2.25,0 l -0.81,5.133 0.72,0 0.432,-2.738 0.504,2.738 0.576,0 0.486,-2.738 0.452,2.738 0.718,0 L 0,0 z"
             style="fill:#231f20;fill-opacity:1;fill-rule:nonzero;stroke:none"
             id="path3650" />
        </g>
        <g
           id="g3652"
           transform="translate(400.8842,301.2236)">
          <path
             inkscape:connector-curvature="0"
             d="m 0,0 -0.361,-1.477 0.738,0 L 0,0 z m 0.918,-3.602 -0.361,1.404 -1.098,0 -0.342,-1.404 -0.738,0 1.277,5.133 0.721,0 1.279,-5.133 -0.738,0 z"
             style="fill:#231f20;fill-opacity:1;fill-rule:nonzero;stroke:none"
             id="path3654" />
        </g>
        <g
           id="g3656"
           transform="translate(404.4682,299.9456)">
          <path
             inkscape:connector-curvature="0"
             d="m 0,0 0,-2.324 -0.738,0 0,2.324 -1.26,2.809 0.773,0 0.864,-1.856 0.847,1.856 0.791,0 L 0,0 z"
             style="fill:#231f20;fill-opacity:1;fill-rule:nonzero;stroke:none"
             id="path3658" />
        </g>
        <g
           id="g3660"
           transform="translate(411.8862,297.6215)">
          <path
             inkscape:connector-curvature="0"
             d="M 0,0 -0.738,2.522 C -0.252,2.701 0,3.152 0,3.764 0,4.592 -0.541,5.133 -1.352,5.133 l -1.529,0 0,-5.133 0.738,0 0,2.414 0.702,0 L -0.756,0 0,0 z m -0.721,3.764 c 0,-0.414 -0.234,-0.649 -0.666,-0.649 l -0.756,0 0,1.297 0.756,0 c 0.397,0 0.666,-0.252 0.666,-0.648"
             style="fill:#231f20;fill-opacity:1;fill-rule:nonzero;stroke:none"
             id="path3662" />
        </g>
        <g
           id="g3664"
           transform="translate(415.6302,297.6215)">
          <path
             inkscape:connector-curvature="0"
             d="m 0,0 -1.277,5.133 -0.721,0 L -3.277,0 l 0.738,0 0.342,1.404 1.099,0 L -0.738,0 0,0 z m -1.277,2.125 -0.738,0 0.359,1.477 0.379,-1.477 z"
             style="fill:#231f20;fill-opacity:1;fill-rule:nonzero;stroke:none"
             id="path3666" />
        </g>
        <g
           id="g3668"
           transform="translate(419.2122,300.1976)">
          <path
             inkscape:connector-curvature="0"
             d="m 0,0 c 0,0.395 -0.053,0.846 -0.125,1.223 -0.09,0.523 -0.306,0.92 -0.613,1.135 -0.18,0.144 -0.395,0.199 -0.828,0.199 l -1.315,0 0,-5.133 1.424,0 c 0.287,0 0.539,0.072 0.719,0.235 C -0.232,-1.945 0,-1.189 0,0 m -0.719,-0.037 c 0,-0.396 -0.037,-0.756 -0.072,-1.08 -0.072,-0.396 -0.306,-0.738 -0.738,-0.738 l -0.613,0 0,3.691 0.613,0 c 0.324,0 0.539,-0.162 0.666,-0.521 0.09,-0.217 0.144,-0.776 0.144,-1.352"
             style="fill:#231f20;fill-opacity:1;fill-rule:nonzero;stroke:none"
             id="path3670" />
        </g>
        <path
           inkscape:connector-curvature="0"
           d="m 420.222,302.755 0.719,0 0,-5.133 -0.719,0 0,5.133 z"
           style="fill:#231f20;fill-opacity:1;fill-rule:nonzero;stroke:none"
           id="path3672" />
        <g
           id="g3674"
           transform="translate(424.9912,300.1976)">
          <path
             inkscape:connector-curvature="0"
             d="M 0,0 C 0,0.774 -0.07,1.26 -0.287,1.764 -0.539,2.395 -0.9,2.647 -1.494,2.647 -2.087,2.647 -2.447,2.395 -2.718,1.782 -2.933,1.295 -3.005,0.774 -3.005,0 c 0,-0.793 0.072,-1.279 0.287,-1.783 0.252,-0.611 0.613,-0.883 1.224,-0.883 0.577,0 0.955,0.272 1.207,0.883 C -0.07,-1.297 0,-0.793 0,0 m -0.701,0 c 0,-0.595 -0.037,-0.9 -0.162,-1.314 -0.127,-0.434 -0.324,-0.631 -0.631,-0.631 -0.324,0 -0.521,0.197 -0.648,0.631 -0.108,0.414 -0.162,0.738 -0.162,1.295 0,0.576 0.037,0.92 0.162,1.314 0.127,0.434 0.324,0.631 0.648,0.631 0.307,0 0.504,-0.197 0.631,-0.648 C -0.755,0.901 -0.701,0.576 -0.701,0"
             style="fill:#231f20;fill-opacity:1;fill-rule:nonzero;stroke:none"
             id="path3676" />
        </g>
        <g
           id="g3678"
           transform="translate(405.1892,289.0646)">
          <path
             inkscape:connector-curvature="0"
             d="m 0,0 -1.278,5.131 -0.72,0 L -3.276,0 l 0.739,0 0.341,1.405 1.098,0 L -0.739,0 0,0 z m -1.278,2.125 -0.738,0 0.359,1.477 0.379,-1.477 z"
             style="fill:#231f20;fill-opacity:1;fill-rule:nonzero;stroke:none"
             id="path3680" />
        </g>
        <g
           id="g3682"
           transform="translate(408.1972,289.0646)">
          <path
             inkscape:connector-curvature="0"
             d="m 0,0 -1.586,3.44 0,-3.44 -0.737,0 0,5.131 0.737,0 1.406,-3.078 0,3.078 0.738,0 L 0.558,0 0,0 z"
             style="fill:#231f20;fill-opacity:1;fill-rule:nonzero;stroke:none"
             id="path3684" />
        </g>
        <g
           id="g3686"
           transform="translate(412.7342,291.6395)">
          <path
             inkscape:connector-curvature="0"
             d="m 0,0 c 0,0.396 -0.055,0.845 -0.127,1.224 -0.09,0.522 -0.307,0.918 -0.612,1.135 -0.181,0.143 -0.396,0.197 -0.828,0.197 l -1.314,0 0,-5.131 1.422,0 c 0.287,0 0.539,0.073 0.72,0.235 C -0.235,-1.944 0,-1.188 0,0 m -0.721,-0.035 c 0,-0.397 -0.037,-0.756 -0.072,-1.081 -0.073,-0.396 -0.307,-0.738 -0.739,-0.738 l -0.611,0 0,3.69 0.611,0 c 0.325,0 0.541,-0.162 0.666,-0.522 0.09,-0.217 0.145,-0.773 0.145,-1.349"
             style="fill:#231f20;fill-opacity:1;fill-rule:nonzero;stroke:none"
             id="path3688" />
        </g>
        <g
           id="g3690"
           transform="translate(387.3722,315.6376)">
          <path
             inkscape:connector-curvature="0"
             d="m 0,0 0,-7.416 -1.23,0 0,7.416 -1.563,0 0,1.14 4.356,0 L 1.563,0 0,0 z"
             style="fill:#231f20;fill-opacity:1;fill-rule:nonzero;stroke:none"
             id="path3692" />
        </g>
        <g
           id="g3694"
           transform="translate(394.5482,309.2725)">
          <path
             inkscape:connector-curvature="0"
             d="m 0,0 c -0.42,-0.692 -1.23,-1.202 -2.041,-1.202 -0.842,0 -1.682,0.481 -2.101,1.202 -0.241,0.449 -0.331,0.81 -0.331,1.5 l 0,6.005 1.231,0 0,-6.156 C -3.242,0.539 -2.762,0 -2.041,0 -1.381,0 -0.9,0.539 -0.9,1.349 l 0,6.156 1.23,0 0,-6.005 C 0.33,0.81 0.24,0.449 0,0"
             style="fill:#231f20;fill-opacity:1;fill-rule:nonzero;stroke:none"
             id="path3696" />
        </g>
        <g
           id="g3698"
           transform="translate(401.5132,308.2215)">
          <path
             inkscape:connector-curvature="0"
             d="M 0,0 -1.231,4.203 C -0.42,4.504 0,5.254 0,6.275 0,7.656 -0.9,8.556 -2.252,8.556 l -2.551,0 0,-8.556 1.231,0 0,4.023 1.172,0 L -1.26,0 0,0 z m -1.199,6.275 c 0,-0.691 -0.391,-1.082 -1.112,-1.082 l -1.261,0 0,2.162 1.261,0 c 0.661,0 1.112,-0.42 1.112,-1.08"
             style="fill:#231f20;fill-opacity:1;fill-rule:nonzero;stroke:none"
             id="path3700" />
        </g>
        <g
           id="g3702"
           transform="translate(406.7982,308.2215)">
          <path
             inkscape:connector-curvature="0"
             d="m 0,0 -2.642,5.734 0,-5.734 -1.231,0 0,8.556 1.231,0 2.341,-5.134 0,5.134 1.233,0 L 0.932,0 0,0 z"
             style="fill:#231f20;fill-opacity:1;fill-rule:nonzero;stroke:none"
             id="path3704" />
        </g>
        <g
           id="g3706"
           transform="translate(418.6572,312.5145)">
          <path
             inkscape:connector-curvature="0"
             d="m 0,0 c 0,1.291 -0.119,2.101 -0.48,2.943 -0.42,1.051 -1.021,1.471 -2.012,1.471 -0.99,0 -1.591,-0.42 -2.041,-1.442 -0.361,-0.81 -0.48,-1.681 -0.48,-2.972 0,-1.321 0.119,-2.133 0.48,-2.973 0.42,-1.021 1.02,-1.471 2.041,-1.471 0.961,0 1.592,0.45 2.012,1.471 C -0.119,-2.162 0,-1.321 0,0 m -1.169,0 c 0,-0.991 -0.061,-1.502 -0.272,-2.192 -0.209,-0.72 -0.541,-1.05 -1.051,-1.05 -0.541,0 -0.871,0.33 -1.08,1.05 -0.181,0.69 -0.271,1.231 -0.271,2.162 0,0.961 0.06,1.532 0.271,2.192 0.209,0.721 0.539,1.051 1.08,1.051 0.51,0 0.842,-0.33 1.051,-1.082 0.18,-0.629 0.272,-1.17 0.272,-2.131"
             style="fill:#231f20;fill-opacity:1;fill-rule:nonzero;stroke:none"
             id="path3708" />
        </g>
        <g
           id="g3710"
           transform="translate(421.5702,315.5765)">
          <path
             inkscape:connector-curvature="0"
             d="m 0,0 0,-2.162 1.711,0 0,-1.17 -1.711,0 0,-4.023 -1.231,0 0,8.556 4.354,0 L 3.123,0 0,0 z"
             style="fill:#231f20;fill-opacity:1;fill-rule:nonzero;stroke:none"
             id="path3712" />
        </g>
        <g
           id="g3714"
           transform="translate(427.0952,315.5765)">
          <path
             inkscape:connector-curvature="0"
             d="m 0,0 0,-2.162 1.711,0 0,-1.17 -1.711,0 0,-4.023 -1.232,0 0,8.556 4.355,0 L 3.123,0 0,0 z"
             style="fill:#231f20;fill-opacity:1;fill-rule:nonzero;stroke:none"
             id="path3716" />
        </g>
      </g>
    </g>
  </g>
</svg>
