<?xml version="1.0" encoding="UTF-8" standalone="no"?>
<!-- Created with Inkscape (http://www.inkscape.org/) -->

<svg
   xmlns:dc="http://purl.org/dc/elements/1.1/"
   xmlns:cc="http://creativecommons.org/ns#"
   xmlns:rdf="http://www.w3.org/1999/02/22-rdf-syntax-ns#"
   xmlns:svg="http://www.w3.org/2000/svg"
   xmlns="http://www.w3.org/2000/svg"
   xmlns:sodipodi="http://sodipodi.sourceforge.net/DTD/sodipodi-0.dtd"
   xmlns:inkscape="http://www.inkscape.org/namespaces/inkscape"
   width="88.671883"
   height="44.648441"
   id="svg7888"
   version="1.1"
   inkscape:version="0.48.3.1 r9886"
   sodipodi:docname="New document 56">
  <defs
     id="defs7890">
    <clipPath
       clipPathUnits="userSpaceOnUse"
       id="clipPath3980">
      <path
         inkscape:connector-curvature="0"
         d="m 26.691,37.035 513,0 0,700.965 -513,0 0,-700.965 z"
         id="path3982" />
    </clipPath>
    <clipPath
       clipPathUnits="userSpaceOnUse"
       id="clipPath3964">
      <path
         inkscape:connector-curvature="0"
         d="m 31.054,50.993 504.275,0 0,687.007 -504.275,0 0,-687.007 z"
         id="path3966" />
    </clipPath>
  </defs>
  <sodipodi:namedview
     id="base"
     pagecolor="#ffffff"
     bordercolor="#666666"
     borderopacity="1.0"
     inkscape:pageopacity="0.0"
     inkscape:pageshadow="2"
     inkscape:zoom="0.35"
     inkscape:cx="44.33719"
     inkscape:cy="22.31688"
     inkscape:document-units="px"
     inkscape:current-layer="layer1"
     showgrid="false"
     fit-margin-top="0"
     fit-margin-left="0"
     fit-margin-right="0"
     fit-margin-bottom="0"
     inkscape:window-width="451"
     inkscape:window-height="398"
     inkscape:window-x="125"
     inkscape:window-y="125"
     inkscape:window-maximized="0" />
  <metadata
     id="metadata7893">
    <rdf:RDF>
      <cc:Work
         rdf:about="">
        <dc:format>image/svg+xml</dc:format>
        <dc:type
           rdf:resource="http://purl.org/dc/dcmitype/StillImage" />
        <dc:title></dc:title>
      </cc:Work>
    </rdf:RDF>
  </metadata>
  <g
     inkscape:label="Layer 1"
     inkscape:groupmode="layer"
     id="layer1"
     transform="translate(-330.66281,-510.03062)">
    <g
       transform="matrix(1.25,0,0,-1.25,291.828,756.91106)"
       id="g3960">
      <g
         id="g3962"
         clip-path="url(#clipPath3964)">
        <g
           id="g3968"
           transform="translate(98.2241,162.0356)">
          <path
             inkscape:connector-curvature="0"
             d="m 0,0 -63.373,-0.002 c -1.943,-0.002 -3.531,1.588 -3.533,3.533 l 0.004,28.145 c -0.002,1.943 1.588,3.533 3.533,3.533 l 63.367,0 c 1.945,0 3.535,-1.59 3.533,-3.533 L 3.533,3.533 C 3.531,1.59 1.941,0 0,0"
             style="fill:#f48412;fill-opacity:1;fill-rule:nonzero;stroke:none"
             id="path3970" />
        </g>
        <g
           id="g3972"
           transform="translate(98.2241,162.0356)">
          <path
             inkscape:connector-curvature="0"
             d="m 0,0 -63.373,-0.002 c -1.943,-0.002 -3.531,1.588 -3.533,3.533 l 0.004,28.145 c -0.002,1.943 1.588,3.533 3.533,3.533 l 63.367,0 c 1.945,0 3.535,-1.59 3.533,-3.533 L 3.533,3.533 C 3.531,1.59 1.941,0 0,0 z"
             style="fill:none;stroke:#231f20;stroke-width:0.5;stroke-linecap:butt;stroke-linejoin:miter;stroke-miterlimit:4;stroke-opacity:1;stroke-dasharray:none"
             id="path3974" />
        </g>
      </g>
    </g>
    <g
       transform="matrix(1.25,0,0,-1.25,291.828,756.91106)"
       id="g3976">
      <g
         id="g3978"
         clip-path="url(#clipPath3980)">
        <g
           id="g3984"
           transform="translate(98.0346,162.9536)">
          <path
             inkscape:connector-curvature="0"
             d="m 0,0 -62.994,-0.002 c -1.541,0 -2.803,1.262 -2.805,2.805 l 0.004,27.766 c 0,1.542 1.262,2.802 2.803,2.802 L 0,33.373 C 1.541,33.371 2.803,32.11 2.803,30.569 l 0,-27.766 C 2.803,1.262 1.543,0 0,0"
             style="fill:#231f20;fill-opacity:1;fill-rule:evenodd;stroke:none"
             id="path3986" />
        </g>
        <g
           id="g3988"
           transform="translate(98.0249,164.3675)">
          <path
             inkscape:connector-curvature="0"
             d="m 0,0 -62.975,-0.002 c -0.769,-0.002 -1.4,0.631 -1.4,1.401 l 0.004,27.746 c 0,0.771 0.629,1.4 1.4,1.4 l 62.971,0 c 0.77,0 1.402,-0.631 1.4,-1.4 L 1.4,1.401 C 1.4,0.631 0.77,0 0,0"
             style="fill:#f48412;fill-opacity:1;fill-rule:evenodd;stroke:none"
             id="path3990" />
        </g>
        <g
           id="g3992"
           transform="translate(94.7807,187.9695)">
          <path
             inkscape:connector-curvature="0"
             d="m 0,0 c -0.076,0.67 -0.18,0.978 -0.463,1.34 -0.336,0.49 -0.851,0.748 -1.443,0.748 -1.444,0 -2.192,-1.264 -2.192,-3.635 0,-2.705 0.698,-3.973 2.268,-3.973 1.031,0 1.805,0.881 1.83,2.092 l -1.057,0 c 0,-0.541 -0.154,-1.057 -0.773,-1.057 -0.9,0 -1.262,0.85 -1.262,2.963 0,1.909 0.309,2.578 1.158,2.578 0.491,0 0.774,-0.336 0.877,-1.056 L 0,0 z m -5.566,1.957 -1.031,0 0,-7.344 1.031,0 0,7.344 z m -2.036,-1.029 0,1.029 -3.736,0 0,-7.344 1.057,0 0,3.453 1.468,0 0,1.006 -1.468,0 0,1.856 2.679,0 z m -4.742,0 0,1.029 -3.738,0 0,-7.344 1.059,0 0,3.453 1.468,0 0,1.006 -1.468,0 0,1.856 2.679,0 z m -6.57,-3.274 -1.059,0 0.516,2.113 0.543,-2.113 z m 1.828,-3.041 -1.828,7.344 -1.033,0 -1.83,-7.344 1.058,0 0.489,2.01 1.574,0 0.513,-2.01 1.057,0 z M -23.451,0 c 0,-0.592 -0.336,-0.928 -0.953,-0.928 l -1.082,0 0,1.856 1.082,0 c 0.566,0 0.953,-0.362 0.953,-0.928 m 1.031,-5.387 -1.056,3.607 c 0.695,0.258 1.056,0.903 1.056,1.78 0,1.185 -0.773,1.957 -1.934,1.957 l -2.189,0 0,-7.344 1.057,0 0,3.453 1.006,0 0.976,-3.453 1.084,0 z m -5.129,6.365 0,0.979 -3.736,0 0,-0.979 1.34,0 0,-6.365 1.056,0 0,6.365 1.34,0 z m -7.834,0.979 -1.031,0 -0.645,-3.916 -0.695,3.916 -0.824,0 -0.723,-3.916 -0.617,3.916 -1.031,0 1.16,-7.344 0.928,0 0.695,3.84 0.695,-3.84 0.903,0 1.185,7.344 z m -7.474,-3.658 c 0,-0.85 -0.051,-1.289 -0.231,-1.881 -0.181,-0.619 -0.465,-0.903 -0.902,-0.903 -0.465,0 -0.748,0.284 -0.928,0.903 -0.154,0.592 -0.232,1.056 -0.232,1.855 0,0.824 0.052,1.315 0.232,1.881 0.18,0.619 0.463,0.902 0.928,0.902 0.437,0 0.721,-0.283 0.902,-0.927 0.154,-0.541 0.231,-1.006 0.231,-1.83 m 1.006,0 c 0,1.109 -0.104,1.804 -0.413,2.525 -0.361,0.902 -0.877,1.264 -1.726,1.264 -0.852,0 -1.367,-0.362 -1.752,-1.239 -0.311,-0.695 -0.412,-1.441 -0.412,-2.55 0,-1.135 0.101,-1.83 0.412,-2.551 0.361,-0.877 0.875,-1.268 1.752,-1.268 0.824,0 1.365,0.391 1.726,1.268 0.309,0.695 0.413,1.416 0.413,2.551 m -5.18,-3.686 0,0.979 -2.682,0 0,6.365 -1.055,0 0,-7.344 3.737,0 z m -4.975,2.01 c 0,1.056 -0.619,1.855 -2.035,2.681 -0.541,0.309 -0.695,0.514 -0.695,0.875 0,0.491 0.386,0.852 0.875,0.852 0.465,0 0.826,-0.336 0.851,-0.852 l 1.004,0 c -0.025,1.108 -0.824,1.909 -1.855,1.909 -1.057,0 -1.881,-0.852 -1.881,-1.909 0,-0.644 0.308,-1.21 0.902,-1.623 1.494,-1.005 1.082,-0.722 1.236,-0.877 0.44,-0.334 0.594,-0.644 0.594,-1.056 0,-0.592 -0.465,-1.108 -1.031,-1.108 -0.723,0 -1.031,0.645 -1.031,1.262 l -1.032,0 c 0,-1.211 0.774,-2.297 2.063,-2.297 1.133,0 2.035,0.957 2.035,2.143"
             style="fill:#231f20;fill-opacity:1;fill-rule:evenodd;stroke:none"
             id="path3994" />
        </g>
        <g
           id="g3996"
           transform="translate(78.48,172.9866)">
          <path
             inkscape:connector-curvature="0"
             d="M 0,0 C 0,-0.566 -0.053,-1.082 -0.104,-1.545 -0.207,-2.111 -0.541,-2.601 -1.16,-2.601 l -0.877,0 0,5.281 0.877,0 c 0.465,0 0.773,-0.23 0.953,-0.746 C -0.076,1.623 0,0.827 0,0 M 1.031,0.053 C 1.031,0.62 0.953,1.264 0.85,1.805 0.721,2.553 0.412,3.12 -0.025,3.43 -0.283,3.635 -0.594,3.713 -1.213,3.713 l -1.879,0 0,-7.347 2.035,0 c 0.412,0 0.774,0.103 1.032,0.336 0.722,0.568 1.056,1.65 1.056,3.351 m -6.959,-0.644 -1.056,0 0.515,2.113 0.541,-2.113 z m 1.83,-3.043 -1.83,7.347 -1.029,0 -1.83,-7.347 1.057,0 0.49,2.011 1.57,0 0.516,-2.011 1.056,0 z m -5.359,0 0,1.033 -2.682,0 0,2.422 1.522,0 0,1.006 -1.522,0 0,1.853 2.399,0 0,1.033 -3.455,0 0,-7.347 3.738,0 z m -5.311,0 0,7.347 -1.056,0 0,-2.99 -2.01,0 0,2.99 -1.057,0 0,-7.347 1.057,0 0,3.326 2.01,0 0,-3.326 1.056,0 z m -6.957,3.043 -1.056,0 0.515,2.113 0.541,-2.113 z m 1.83,-3.043 -1.83,7.347 -1.031,0 -1.83,-7.347 1.057,0 0.49,2.011 1.572,0 0.516,-2.011 1.056,0 z"
             style="fill:#231f20;fill-opacity:1;fill-rule:evenodd;stroke:none"
             id="path3998" />
        </g>
      </g>
    </g>
  </g>
</svg>
