<?xml version="1.0" encoding="UTF-8" standalone="no"?>
<!-- Created with Inkscape (http://www.inkscape.org/) -->

<svg
   xmlns:dc="http://purl.org/dc/elements/1.1/"
   xmlns:cc="http://creativecommons.org/ns#"
   xmlns:rdf="http://www.w3.org/1999/02/22-rdf-syntax-ns#"
   xmlns:svg="http://www.w3.org/2000/svg"
   xmlns="http://www.w3.org/2000/svg"
   xmlns:sodipodi="http://sodipodi.sourceforge.net/DTD/sodipodi-0.dtd"
   xmlns:inkscape="http://www.inkscape.org/namespaces/inkscape"
   width="89.998749"
   height="90"
   id="svg8337"
   version="1.1"
   inkscape:version="0.48.3.1 r9886"
   sodipodi:docname="New document 62">
  <defs
     id="defs8339" />
  <sodipodi:namedview
     id="base"
     pagecolor="#ffffff"
     bordercolor="#666666"
     borderopacity="1.0"
     inkscape:pageopacity="0.0"
     inkscape:pageshadow="2"
     inkscape:zoom="0.35"
     inkscape:cx="44.99938"
     inkscape:cy="44.999997"
     inkscape:document-units="px"
     inkscape:current-layer="layer1"
     showgrid="false"
     fit-margin-top="0"
     fit-margin-left="0"
     fit-margin-right="0"
     fit-margin-bottom="0"
     inkscape:window-width="451"
     inkscape:window-height="398"
     inkscape:window-x="75"
     inkscape:window-y="75"
     inkscape:window-maximized="0" />
  <metadata
     id="metadata8342">
    <rdf:RDF>
      <cc:Work
         rdf:about="">
        <dc:format>image/svg+xml</dc:format>
        <dc:type
           rdf:resource="http://purl.org/dc/dcmitype/StillImage" />
        <dc:title></dc:title>
      </cc:Work>
    </rdf:RDF>
  </metadata>
  <g
     inkscape:label="Layer 1"
     inkscape:groupmode="layer"
     id="layer1"
     transform="translate(-330.00062,-487.36218)">
    <g
       id="g4160"
       transform="matrix(1.25,0,0,-1.25,331.28937,529.23968)">
      <path
         d="m 0,0 16.236,16.237 16.235,16.236 c 0.686,0.688 1.592,1.029 2.498,1.029 0.905,0 1.812,-0.341 2.498,-1.029 L 53.703,16.237 69.937,0 c 0.688,-0.685 1.031,-1.591 1.031,-2.496 0,-0.906 -0.343,-1.812 -1.031,-2.5 L 53.703,-21.23 37.467,-37.466 c -0.686,-0.688 -1.593,-1.032 -2.498,-1.032 -0.906,0 -1.812,0.344 -2.498,1.032 L 16.236,-21.23 0,-4.996 c -0.687,0.688 -1.031,1.594 -1.031,2.5 0,0.905 0.344,1.811 1.031,2.496"
         style="fill:#f48412;fill-opacity:1;fill-rule:nonzero;stroke:none"
         id="path4162"
         inkscape:connector-curvature="0" />
    </g>
    <g
       id="g4168"
       transform="matrix(1.25,0,0,-1.25,332.26562,529.8833)">
      <path
         d="m 0,0 32.206,32.205 c 1.089,1.09 2.875,1.09 3.964,0 L 68.375,0 c 1.09,-1.09 1.09,-2.873 0,-3.965 L 36.17,-36.168 c -1.089,-1.092 -2.875,-1.092 -3.964,0 L 0,-3.965 C -1.089,-2.873 -1.089,-1.09 0,0"
         style="fill:#231f20;fill-opacity:1;fill-rule:evenodd;stroke:none"
         id="path4170"
         inkscape:connector-curvature="0" />
    </g>
    <g
       id="g4172"
       transform="matrix(1.25,0,0,-1.25,333.52562,531.1233)">
      <path
         d="m 0,0 32.19,32.191 c 0.545,0.543 1.435,0.543 1.98,0 L 66.359,0 c 0.545,-0.545 0.545,-1.436 0,-1.981 L 34.17,-34.17 c -0.545,-0.545 -1.435,-0.545 -1.98,0 L 0,-1.981 C -0.545,-1.436 -0.545,-0.545 0,0"
         style="fill:#f48412;fill-opacity:1;fill-rule:evenodd;stroke:none"
         id="path4174"
         inkscape:connector-curvature="0" />
    </g>
    <g
       id="g4176"
       transform="matrix(1.25,0,0,-1.25,380.11063,539.62468)">
      <path
         d="m 0,0 c -0.004,-0.748 -0.428,-1.444 -1.072,-1.815 l -7.17,-4.953 c -1.432,-0.988 -2.061,-2.904 -2.061,-4.668 l -0.006,-4.904 4.241,0 10e-4,4.879 c 0,0.672 0.325,1.308 0.862,1.705 l 6.308,4.291 c 1.912,1.117 3.129,3.252 3.129,5.486 0,0 0,0.026 0,0 -0.002,2.629 -0.002,5.256 0,7.885 l 0,-0.002 c 0,2.234 -1.217,4.371 -3.129,5.488 l -6.308,4.291 c -0.537,0.397 -0.862,1.034 -0.862,1.705 l -10e-4,1.899 2.335,-0.697 c 0.325,-0.09 0.563,-0.129 0.813,0.041 0.355,0.242 0.449,0.73 0.207,1.088 l -5.475,8.091 -5.48,-8.091 c -0.244,-0.358 -0.15,-0.846 0.207,-1.088 0.236,-0.162 0.484,-0.133 0.777,-0.059 l 2.375,0.715 0.006,-1.924 c 0,-1.764 0.629,-3.68 2.061,-4.668 l 7.17,-4.953 C -0.428,9.369 -0.004,8.674 0,7.926 0.004,5.285 0.004,2.642 0,0"
         style="fill:#231f20;fill-opacity:1;fill-rule:evenodd;stroke:none"
         id="path4178"
         inkscape:connector-curvature="0" />
    </g>
  </g>
</svg>
