<?xml version="1.0" encoding="UTF-8" standalone="no"?>
<!-- Created with Inkscape (http://www.inkscape.org/) -->

<svg
   xmlns:dc="http://purl.org/dc/elements/1.1/"
   xmlns:cc="http://creativecommons.org/ns#"
   xmlns:rdf="http://www.w3.org/1999/02/22-rdf-syntax-ns#"
   xmlns:svg="http://www.w3.org/2000/svg"
   xmlns="http://www.w3.org/2000/svg"
   xmlns:sodipodi="http://sodipodi.sourceforge.net/DTD/sodipodi-0.dtd"
   xmlns:inkscape="http://www.inkscape.org/namespaces/inkscape"
   width="109.58528"
   height="109.57893"
   id="svg4902"
   version="1.1"
   inkscape:version="0.48.3.1 r9886"
   sodipodi:docname="New document 21">
  <defs
     id="defs4904" />
  <sodipodi:namedview
     id="base"
     pagecolor="#ffffff"
     bordercolor="#666666"
     borderopacity="1.0"
     inkscape:pageopacity="0.0"
     inkscape:pageshadow="2"
     inkscape:zoom="0.35"
     inkscape:cx="54.801302"
     inkscape:cy="54.805315"
     inkscape:document-units="px"
     inkscape:current-layer="layer1"
     showgrid="false"
     fit-margin-top="0"
     fit-margin-left="0"
     fit-margin-right="0"
     fit-margin-bottom="0"
     inkscape:window-width="451"
     inkscape:window-height="415"
     inkscape:window-x="125"
     inkscape:window-y="125"
     inkscape:window-maximized="0" />
  <metadata
     id="metadata4907">
    <rdf:RDF>
      <cc:Work
         rdf:about="">
        <dc:format>image/svg+xml</dc:format>
        <dc:type
           rdf:resource="http://purl.org/dc/dcmitype/StillImage" />
        <dc:title></dc:title>
      </cc:Work>
    </rdf:RDF>
  </metadata>
  <g
     inkscape:label="Layer 1"
     inkscape:groupmode="layer"
     id="layer1"
     transform="translate(-320.1987,-477.58857)">
    <g
       id="g3319"
       transform="matrix(1.25,0,0,-1.25,372.08125,585.64406)">
      <path
         d="m 0,0 -40.283,40.283 c -1.287,1.287 -1.287,3.385 0,4.672 l 40.281,40.282 c 1.287,1.288 3.387,1.289 4.674,0.001 L 44.953,44.953 c 1.287,-1.287 1.287,-3.383 0,-4.671 L 4.672,0 C 3.4,-1.269 1.271,-1.271 0,0"
         style="fill:#f48412;fill-opacity:1;fill-rule:nonzero;stroke:#231f20;stroke-width:0.5;stroke-linecap:butt;stroke-linejoin:miter;stroke-miterlimit:4;stroke-opacity:1;stroke-dasharray:none"
         id="path3321"
         inkscape:connector-curvature="0" />
    </g>
    <g
       id="g3323"
       transform="matrix(1.25,0,0,-1.25,372.8825,584.82406)">
      <path
         d="m 0,0 -40.268,40.268 c -0.926,0.928 -0.924,2.463 0,3.391 l 40.266,40.265 c 0.927,0.928 2.461,0.926 3.392,0 L 43.654,43.657 c 0.926,-0.928 0.928,-2.46 0,-3.389 L 3.39,0 C 2.461,-0.921 0.927,-0.925 0,0"
         style="fill:#231f20;fill-opacity:1;fill-rule:evenodd;stroke:none"
         id="path3325"
         inkscape:connector-curvature="0" />
    </g>
    <g
       id="g3327"
       transform="matrix(1.25,0,0,-1.25,374.0025,583.67406)">
      <path
         d="m 0,0 -40.244,40.244 c -0.445,0.432 -0.445,1.167 0,1.598 L 0,82.084 c 0.43,0.446 1.164,0.446 1.596,0 L 41.84,41.842 c 0.445,-0.432 0.445,-1.168 -0.002,-1.599 L 1.598,0 C 1.166,-0.445 0.432,-0.445 0,0"
         style="fill:#f48412;fill-opacity:1;fill-rule:evenodd;stroke:none"
         id="path3329"
         inkscape:connector-curvature="0" />
    </g>
    <g
       id="g3331"
       transform="matrix(1.25,0,0,-1.25,353.885,538.32406)">
      <path
         d="m 0,0 9.887,9.889 13.979,0 9.898,-9.889 0,-13.989 -9.898,-9.886 -13.979,0 L 0,-13.989 0,0 z"
         style="fill:#ffffff;fill-opacity:1;fill-rule:evenodd;stroke:none"
         id="path3333"
         inkscape:connector-curvature="0" />
    </g>
    <g
       id="g3335"
       transform="matrix(1.25,0,0,-1.25,354.91137,538.7628)">
      <path
         d="m 0,0 0,-13.301 9.42,-9.408 13.283,0 9.406,9.408 0,13.301 -9.406,9.403 -13.283,0 L 0,0 z"
         style="fill:#c4122e;fill-opacity:1;fill-rule:evenodd;stroke:none"
         id="path3337"
         inkscape:connector-curvature="0" />
    </g>
    <g
       id="g3339"
       transform="matrix(1.25,0,0,-1.25,381.56125,515.66893)">
      <path
         d="m 0,0 -10.643,-0.011 -0.025,9.877 -9.359,-1.965 c -0.305,-0.063 -0.428,-0.1 -0.53,-0.1 -0.627,10e-4 -1.205,0.606 -1.203,1.235 0,0.251 -0.019,0.438 0.278,0.703 L -5.354,24.092 10.73,9.711 C 10.984,9.483 11.006,9.258 11.006,9.007 11.004,8.352 10.426,7.776 9.771,7.777 9.672,7.777 9.652,7.799 9.42,7.852 L -0.025,9.996 0,0 z"
         style="fill:#231f20;fill-opacity:1;fill-rule:evenodd;stroke:none"
         id="path3341"
         inkscape:connector-curvature="0" />
    </g>
  </g>
</svg>
