<?xml version="1.0" encoding="UTF-8" standalone="no"?>
<!-- Created with Inkscape (http://www.inkscape.org/) -->

<svg
   xmlns:dc="http://purl.org/dc/elements/1.1/"
   xmlns:cc="http://creativecommons.org/ns#"
   xmlns:rdf="http://www.w3.org/1999/02/22-rdf-syntax-ns#"
   xmlns:svg="http://www.w3.org/2000/svg"
   xmlns="http://www.w3.org/2000/svg"
   xmlns:sodipodi="http://sodipodi.sourceforge.net/DTD/sodipodi-0.dtd"
   xmlns:inkscape="http://www.inkscape.org/namespaces/inkscape"
   width="109.58514"
   height="109.57941"
   id="svg5065"
   version="1.1"
   inkscape:version="0.48.3.1 r9886"
   sodipodi:docname="New document 25">
  <defs
     id="defs5067">
    <clipPath
       clipPathUnits="userSpaceOnUse"
       id="clipPath3515">
      <path
         inkscape:connector-curvature="0"
         d="m 27,56.527 513,0 L 540,738 27,738 27,56.527 z"
         id="path3517" />
    </clipPath>
    <clipPath
       clipPathUnits="userSpaceOnUse"
       id="clipPath3503">
      <path
         inkscape:connector-curvature="0"
         d="m 31.209,56.527 504.581,0 0,681.473 -504.581,0 0,-681.473 z"
         id="path3505" />
    </clipPath>
  </defs>
  <sodipodi:namedview
     id="base"
     pagecolor="#ffffff"
     bordercolor="#666666"
     borderopacity="1.0"
     inkscape:pageopacity="0.0"
     inkscape:pageshadow="2"
     inkscape:zoom="0.35"
     inkscape:cx="-244.48451"
     inkscape:cy="146.23303"
     inkscape:document-units="px"
     inkscape:current-layer="layer1"
     showgrid="false"
     fit-margin-top="0"
     fit-margin-left="0"
     fit-margin-right="0"
     fit-margin-bottom="0"
     inkscape:window-width="451"
     inkscape:window-height="415"
     inkscape:window-x="25"
     inkscape:window-y="25"
     inkscape:window-maximized="0" />
  <metadata
     id="metadata5070">
    <rdf:RDF>
      <cc:Work
         rdf:about="">
        <dc:format>image/svg+xml</dc:format>
        <dc:type
           rdf:resource="http://purl.org/dc/dcmitype/StillImage" />
        <dc:title></dc:title>
      </cc:Work>
    </rdf:RDF>
  </metadata>
  <g
     inkscape:label="Layer 1"
     inkscape:groupmode="layer"
     id="layer1"
     transform="translate(-619.48451,-569.0158)">
    <g
       transform="matrix(1.25,0,0,-1.25,580.43009,1186.5674)"
       id="g3499">
      <g
         id="g3501"
         clip-path="url(#clipPath3503)">
        <g
           id="g3507"
           transform="translate(72.7495,407.5965)">
          <path
             inkscape:connector-curvature="0"
             d="m 0,0 -40.283,40.282 c -1.287,1.288 -1.287,3.385 0,4.672 l 40.281,40.282 c 1.287,1.289 3.387,1.289 4.674,10e-4 L 44.953,44.952 c 1.287,-1.287 1.287,-3.382 0,-4.67 L 4.672,0 C 3.4,-1.27 1.271,-1.272 0,0"
             style="fill:#f48412;fill-opacity:1;fill-rule:nonzero;stroke:#231f20;stroke-width:0.5;stroke-linecap:butt;stroke-linejoin:miter;stroke-miterlimit:4;stroke-opacity:1;stroke-dasharray:none"
             id="path3509" />
        </g>
      </g>
    </g>
    <g
       transform="matrix(1.25,0,0,-1.25,580.43009,1186.5674)"
       id="g3511">
      <g
         id="g3513"
         clip-path="url(#clipPath3515)">
        <g
           id="g3519"
           transform="translate(73.3901,408.2525)">
          <path
             inkscape:connector-curvature="0"
             d="m 0,0 -40.268,40.267 c -0.925,0.928 -0.923,2.463 0,3.391 l 40.266,40.265 c 0.928,0.928 2.461,0.926 3.393,0 L 43.654,43.656 c 0.926,-0.928 0.928,-2.459 0,-3.389 L 3.391,0 C 2.461,-0.922 0.928,-0.926 0,0"
             style="fill:#231f20;fill-opacity:1;fill-rule:evenodd;stroke:none"
             id="path3521" />
        </g>
        <g
           id="g3523"
           transform="translate(74.2865,409.1725)">
          <path
             inkscape:connector-curvature="0"
             d="m 0,0 -40.244,40.244 c -0.445,0.431 -0.445,1.166 0,1.597 L 0,82.083 c 0.43,0.446 1.164,0.446 1.596,0 L 41.84,41.841 c 0.445,-0.431 0.445,-1.168 -0.002,-1.599 L 1.598,0 C 1.166,-0.445 0.432,-0.445 0,0"
             style="fill:#f48412;fill-opacity:1;fill-rule:evenodd;stroke:none"
             id="path3525" />
        </g>
        <path
           inkscape:connector-curvature="0"
           d="m 64.421,479.693 21.328,0 0,-58.649 -21.328,0 0,58.649 z"
           style="fill:#231f20;fill-opacity:1;fill-rule:evenodd;stroke:none"
           id="path3527" />
        <g
           id="g3529"
           transform="translate(75.0663,476.9146)">
          <path
             inkscape:connector-curvature="0"
             d="m 0,0 c 4.405,0 7.996,-3.591 7.996,-7.997 0,-4.405 -3.591,-7.999 -7.996,-7.999 -4.405,0 -7.998,3.594 -7.998,7.999 C -7.998,-3.591 -4.405,0 0,0"
             style="fill:#c4122e;fill-opacity:1;fill-rule:evenodd;stroke:none"
             id="path3531" />
        </g>
        <g
           id="g3533"
           transform="translate(75.0566,458.3586)">
          <path
             inkscape:connector-curvature="0"
             d="m 0,0 c 4.405,0 7.997,-3.592 7.997,-7.997 0,-4.405 -3.592,-7.999 -7.997,-7.999 -4.405,0 -7.997,3.594 -7.997,7.999 C -7.997,-3.592 -4.405,0 0,0"
             style="fill:#fcd006;fill-opacity:1;fill-rule:evenodd;stroke:none"
             id="path3535" />
        </g>
        <g
           id="g3537"
           transform="translate(75.0663,439.6405)">
          <path
             inkscape:connector-curvature="0"
             d="m 0,0 c 4.405,0 7.996,-3.594 7.996,-7.999 0,-4.405 -3.591,-7.997 -7.996,-7.997 -4.405,0 -7.998,3.592 -7.998,7.997 C -7.998,-3.594 -4.405,0 0,0"
             style="fill:#00674c;fill-opacity:1;fill-rule:evenodd;stroke:none"
             id="path3539" />
        </g>
      </g>
    </g>
  </g>
</svg>
