<?xml version="1.0" encoding="UTF-8" standalone="no"?>
<!-- Created with Inkscape (http://www.inkscape.org/) -->

<svg
   xmlns:dc="http://purl.org/dc/elements/1.1/"
   xmlns:cc="http://creativecommons.org/ns#"
   xmlns:rdf="http://www.w3.org/1999/02/22-rdf-syntax-ns#"
   xmlns:svg="http://www.w3.org/2000/svg"
   xmlns="http://www.w3.org/2000/svg"
   xmlns:sodipodi="http://sodipodi.sourceforge.net/DTD/sodipodi-0.dtd"
   xmlns:inkscape="http://www.inkscape.org/namespaces/inkscape"
   width="109.57031"
   height="109.57031"
   id="svg5247"
   version="1.1"
   inkscape:version="0.48.3.1 r9886"
   sodipodi:docname="New document 29">
  <defs
     id="defs5249">
    <clipPath
       clipPathUnits="userSpaceOnUse"
       id="clipPath3015">
      <path
         inkscape:connector-curvature="0"
         d="m 27,56.527 513,0 L 540,738 27,738 27,56.527 z"
         id="path3017" />
    </clipPath>
    <clipPath
       clipPathUnits="userSpaceOnUse"
       id="clipPath3015-4">
      <path
         inkscape:connector-curvature="0"
         d="m 27,56.527 513,0 L 540,738 27,738 27,56.527 z"
         id="path3017-0" />
    </clipPath>
  </defs>
  <sodipodi:namedview
     id="base"
     pagecolor="#ffffff"
     bordercolor="#666666"
     borderopacity="1.0"
     inkscape:pageopacity="0.0"
     inkscape:pageshadow="2"
     inkscape:zoom="0.35"
     inkscape:cx="41.217321"
     inkscape:cy="91.91753"
     inkscape:document-units="px"
     inkscape:current-layer="layer1"
     showgrid="false"
     fit-margin-top="0"
     fit-margin-left="0"
     fit-margin-right="0"
     fit-margin-bottom="0"
     inkscape:window-width="451"
     inkscape:window-height="415"
     inkscape:window-x="125"
     inkscape:window-y="125"
     inkscape:window-maximized="0" />
  <metadata
     id="metadata5252">
    <rdf:RDF>
      <cc:Work
         rdf:about="">
        <dc:format>image/svg+xml</dc:format>
        <dc:type
           rdf:resource="http://purl.org/dc/dcmitype/StillImage" />
        <dc:title></dc:title>
      </cc:Work>
    </rdf:RDF>
  </metadata>
  <g
     inkscape:label="Layer 1"
     inkscape:groupmode="layer"
     id="layer1"
     transform="translate(-333.78268,-514.7094)">
    <g
       transform="matrix(1.25,0,0,-1.25,34.190929,1132.2819)"
       id="g3011">
      <g
         id="g3013"
         clip-path="url(#clipPath3015-4)">
        <g
           id="g3019"
           transform="translate(241.1734,453.2455)">
          <path
             inkscape:connector-curvature="0"
             d="m 0,0 19.653,19.653 19.654,19.653 c 0.831,0.832 1.926,1.248 3.023,1.248 1.096,0 2.192,-0.416 3.024,-1.248 L 65.008,19.653 84.661,0 c 0.832,-0.832 1.248,-1.928 1.248,-3.025 0,-1.096 -0.416,-2.192 -1.248,-3.023 L 65.008,-25.702 45.354,-45.355 c -0.832,-0.831 -1.928,-1.247 -3.024,-1.247 -1.097,0 -2.192,0.416 -3.023,1.247 L 19.653,-25.702 0,-6.048 c -0.831,0.831 -1.247,1.927 -1.247,3.023 0,1.097 0.416,2.193 1.247,3.025"
             style="fill:#f48412;fill-opacity:1;fill-rule:nonzero;stroke:none"
             id="path3021" />
        </g>
        <g
           id="g3023"
           transform="translate(241.1734,453.2455)">
          <path
             inkscape:connector-curvature="0"
             d="m 0,0 19.653,19.653 19.654,19.653 c 0.831,0.832 1.926,1.248 3.023,1.248 1.096,0 2.192,-0.416 3.024,-1.248 L 65.008,19.653 84.661,0 c 0.832,-0.832 1.248,-1.928 1.248,-3.025 0,-1.096 -0.416,-2.192 -1.248,-3.023 L 65.008,-25.702 45.354,-45.355 c -0.832,-0.831 -1.928,-1.247 -3.024,-1.247 -1.097,0 -2.192,0.416 -3.023,1.247 L 19.653,-25.702 0,-6.048 c -0.831,0.831 -1.247,1.927 -1.247,3.023 0,1.097 0.416,2.193 1.247,3.025 z"
             style="fill:none;stroke:#231f20;stroke-width:0.5;stroke-linecap:butt;stroke-linejoin:miter;stroke-miterlimit:4;stroke-opacity:1;stroke-dasharray:none"
             id="path3025" />
        </g>
        <g
           id="g3027"
           transform="translate(242.1204,452.6205)">
          <path
             inkscape:connector-curvature="0"
             d="m 0,0 38.984,38.983 c 1.32,1.319 3.478,1.319 4.799,0 L 82.766,0 c 1.319,-1.32 1.319,-3.479 0,-4.798 L 43.783,-43.782 c -1.321,-1.319 -3.479,-1.319 -4.799,0 L 0,-4.798 C -1.319,-3.479 -1.319,-1.32 0,0"
             style="fill:#231f20;fill-opacity:1;fill-rule:evenodd;stroke:none"
             id="path3029" />
        </g>
        <g
           id="g3031"
           transform="translate(243.3394,451.4196)">
          <path
             inkscape:connector-curvature="0"
             d="m 0,0 38.966,38.965 c 0.659,0.66 1.738,0.66 2.397,0 L 80.329,0 c 0.658,-0.658 0.658,-1.738 0,-2.397 L 41.363,-41.362 c -0.659,-0.66 -1.738,-0.66 -2.397,0 L 0,-2.397 C -0.659,-1.738 -0.659,-0.658 0,0"
             style="fill:#f48412;fill-opacity:1;fill-rule:evenodd;stroke:none"
             id="path3033" />
        </g>
        <g
           id="g3035"
           transform="translate(270.1774,466.3275)">
          <path
             inkscape:connector-curvature="0"
             d="m 0,0 26.657,0 c 1.468,0 2.665,-1.197 2.665,-2.666 l 0,-37.318 c 0,-1.469 -1.197,-2.666 -2.665,-2.666 L 0,-42.65 c -1.467,0 -2.665,1.197 -2.665,2.666 l 0,37.318 C -2.665,-1.197 -1.467,0 0,0"
             style="fill:#ffffff;fill-opacity:1;fill-rule:evenodd;stroke:none"
             id="path3037" />
        </g>
        <g
           id="g3039"
           transform="translate(270.1864,465.6615)">
          <path
             inkscape:connector-curvature="0"
             d="m 0,0 0.8,0 2.163,0 3.171,0 3.82,0 4.112,0 4.047,0 3.627,0 2.848,0 1.715,0 0.32,0 c 0.309,0 0.603,-0.068 0.884,-0.196 0.702,-0.319 1.14,-1.064 1.14,-1.822 l 0,-0.73 0,-1.755 0,-2.594 0,-3.253 0,-3.731 0,-4.025 0,-4.138 0,-4.066 0,-3.816 0,-3.382 0,-2.766 0,-1.968 0,-0.987 c 0,-0.588 -0.199,-1.13 -0.629,-1.541 -0.419,-0.4 -0.951,-0.547 -1.516,-0.547 l -1.395,0 -2.614,0 -3.477,0 -3.98,0 -4.129,0 -3.921,0 -3.354,0 -2.432,0 -1.153,0 c -0.682,0 -1.348,0.314 -1.722,0.9 -0.214,0.333 -0.332,0.711 -0.332,1.108 l 0,0.171 0,1.166 0,2.116 0,2.884 0,3.469 0,3.871 0,4.093 0,4.13 0,3.988 0,3.662 0,3.154 0,2.464 0,1.593 c 0,0.217 -0.002,0.432 0.002,0.647 0.021,0.864 0.695,1.652 1.529,1.844 C -0.319,-0.02 -0.162,-0.004 0,0"
             style="fill:#231f20;fill-opacity:1;fill-rule:evenodd;stroke:none"
             id="path3041" />
        </g>
        <g
           id="g3043"
           transform="translate(270.2004,464.5505)">
          <path
             inkscape:connector-curvature="0"
             d="m 0,0 0.802,0 2.165,0 3.172,0 3.821,0 4.112,0 4.046,0 3.622,0 2.842,0 1.702,0 0.313,0 c 0.278,0 0.551,-0.108 0.725,-0.332 0.212,-0.27 0.2,-0.568 0.2,-0.886 l 0,-1.357 0,-2.274 0,-3.007 0,-3.558 0,-3.927 0,-4.113 0,-4.118 0,-3.94 0,-3.579 0,-3.035 0,-2.31 0,-1.402 c 0,-0.29 0.026,-0.588 -0.139,-0.843 -0.174,-0.267 -0.462,-0.415 -0.778,-0.415 l -0.277,0 -1.642,0 -2.798,0 -3.595,0 -4.034,0 -4.118,0 -3.841,0 -3.209,0 -2.219,0 -0.87,0 c -0.332,0 -0.655,0.174 -0.809,0.476 -0.08,0.155 -0.104,0.318 -0.104,0.49 l 0,0.918 0,1.911 0,2.72 0,3.35 0,3.793 0,4.058 0,4.139 0,4.036 0,3.752 0,3.286 0,2.637 0,1.806 0,0.792 c 0,0.525 0.389,0.919 0.911,0.932"
             style="fill:#ffffff;fill-opacity:1;fill-rule:evenodd;stroke:none"
             id="path3045" />
        </g>
        <g
           id="g3047"
           transform="translate(274.6874,457.7415)">
          <path
             inkscape:connector-curvature="0"
             d="m 0,0 c -0.374,-0.224 -0.86,-0.355 -1.346,-0.355 -0.916,0 -1.609,0.336 -2.206,1.028 l 0.766,0.598 c 0.393,-0.467 0.823,-0.673 1.42,-0.673 0.674,0 1.159,0.3 1.159,0.692 0,0.206 -0.111,0.374 -0.335,0.487 -0.187,0.073 -0.393,0.148 -0.636,0.205 l -0.243,0.074 -0.243,0.057 -0.261,0.074 c -0.543,0.131 -0.824,0.262 -1.048,0.524 -0.224,0.243 -0.336,0.56 -0.336,0.898 0,0.878 0.747,1.477 1.832,1.477 0.785,0 1.439,-0.263 1.981,-0.823 L -0.207,3.627 c -0.335,0.355 -0.765,0.523 -1.27,0.523 -0.542,0 -0.86,-0.205 -0.86,-0.541 0,-0.3 0.187,-0.431 0.84,-0.58 0.711,-0.15 1.179,-0.3 1.479,-0.45 C 0.449,2.337 0.748,1.832 0.748,1.252 0.748,0.71 0.504,0.299 0,0"
             style="fill:#231f20;fill-opacity:1;fill-rule:nonzero;stroke:none"
             id="path3049" />
        </g>
        <g
           id="g3051"
           transform="translate(279.0234,461.8175)">
          <path
             inkscape:connector-curvature="0"
             d="m 0,0 -1.55,0 0,-1.328 1.55,0 c 0.468,0 0.787,0.261 0.787,0.654 C 0.787,-0.262 0.468,0 0,0 M 0.916,-2.076 C 0.618,-2.244 0.374,-2.281 -0.037,-2.281 l -1.513,0 0,-2.095 -0.973,0 0,5.329 2.486,0 c 0.411,0 0.655,-0.056 0.953,-0.224 0.506,-0.28 0.824,-0.804 0.824,-1.403 0,-0.56 -0.318,-1.121 -0.824,-1.402"
             style="fill:#231f20;fill-opacity:1;fill-rule:nonzero;stroke:none"
             id="path3053" />
        </g>
        <g
           id="g3055"
           transform="translate(281.6594,457.4415)">
          <path
             inkscape:connector-curvature="0"
             d="m 0,0 0,5.329 3.889,0 0,-0.953 -2.916,0 0,-0.991 1.589,0 0,-0.972 -1.589,0 0,-1.459 3.01,0 L 3.983,0 0,0 z"
             style="fill:#231f20;fill-opacity:1;fill-rule:nonzero;stroke:none"
             id="path3057" />
        </g>
        <g
           id="g3059"
           transform="translate(286.7074,457.4415)">
          <path
             inkscape:connector-curvature="0"
             d="m 0,0 0,5.329 3.89,0 0,-0.953 -2.917,0 0,-0.991 1.589,0 0,-0.972 -1.589,0 0,-1.459 3.009,0 L 3.982,0 0,0 z"
             style="fill:#231f20;fill-opacity:1;fill-rule:nonzero;stroke:none"
             id="path3061" />
        </g>
        <g
           id="g3063"
           transform="translate(294.2784,461.6115)">
          <path
             inkscape:connector-curvature="0"
             d="m 0,0 c -0.243,0.131 -0.523,0.206 -0.803,0.206 l -0.748,0 0,-3.422 0.748,0 c 0.28,0 0.542,0.075 0.766,0.206 0.562,0.299 0.822,0.785 0.822,1.515 C 0.785,-0.785 0.525,-0.299 0,0 M 0.45,-3.851 C 0.076,-4.057 -0.374,-4.17 -0.803,-4.17 l -1.72,0 0,5.329 1.72,0 c 0.449,0 0.879,-0.112 1.271,-0.337 C 1.29,0.355 1.74,-0.449 1.74,-1.495 1.74,-2.562 1.29,-3.384 0.45,-3.851"
             style="fill:#231f20;fill-opacity:1;fill-rule:nonzero;stroke:none"
             id="path3065" />
        </g>
        <g
           id="g3067"
           transform="translate(273.7904,450.3345)">
          <path
             inkscape:connector-curvature="0"
             d="m 0,0 0,5.328 0.953,0 0,-4.506 3.029,0 L 3.982,0 0,0 z"
             style="fill:#231f20;fill-opacity:1;fill-rule:nonzero;stroke:none"
             id="path3069" />
        </g>
        <path
           inkscape:connector-curvature="0"
           d="m 278.688,455.663 0.954,0 0,-5.328 -0.954,0 0,5.328 z"
           style="fill:#231f20;fill-opacity:1;fill-rule:nonzero;stroke:none"
           id="path3071" />
        <g
           id="g3073"
           transform="translate(285.0634,450.3345)">
          <path
             inkscape:connector-curvature="0"
             d="M 0,0 0,3.252 -1.571,0 l -1.552,3.252 0,-3.252 -0.934,0 0,5.328 0.934,0 1.552,-3.16 1.571,3.16 0.935,0 L 0.935,0 0,0 z"
             style="fill:#231f20;fill-opacity:1;fill-rule:nonzero;stroke:none"
             id="path3075" />
        </g>
        <path
           inkscape:connector-curvature="0"
           d="m 287.381,455.663 0.954,0 0,-5.328 -0.954,0 0,5.328 z"
           style="fill:#231f20;fill-opacity:1;fill-rule:nonzero;stroke:none"
           id="path3077" />
        <g
           id="g3079"
           transform="translate(291.6814,454.7275)">
          <path
             inkscape:connector-curvature="0"
             d="m 0,0 0,-4.393 -0.935,0 0,4.393 -1.533,0 0,0.935 4.001,0 L 1.533,0 0,0 z"
             style="fill:#231f20;fill-opacity:1;fill-rule:nonzero;stroke:none"
             id="path3081" />
        </g>
        <g
           id="g3083"
           transform="translate(299.1574,473.8325)">
          <path
             inkscape:connector-curvature="0"
             d="M 0,0 -15.738,15.681 -31.517,0.028 c -0.277,-0.274 -0.272,-0.443 -0.272,-0.688 -10e-4,-0.615 0.564,-1.207 1.179,-1.208 0.099,0 0.219,0.035 0.516,0.097 l 9.202,1.923 -0.02,-5.838 10.369,-0.01 0.019,5.975 9.241,-2.097 c 0.228,-0.051 0.247,-0.074 0.345,-0.075 0.639,-10e-4 1.206,0.564 1.208,1.204 C 0.27,-0.443 0.238,-0.236 0,0"
             style="fill:#231f20;fill-opacity:1;fill-rule:evenodd;stroke:none"
             id="path3085" />
        </g>
        <g
           id="g3087"
           transform="translate(289.8554,427.0645)">
          <path
             inkscape:connector-curvature="0"
             d="m 0,0 c -1.878,0 -3.681,0.674 -5.26,1.871 l 2.029,2.17 c 1.052,-0.749 1.878,-1.047 2.931,-1.047 2.328,0 3.982,2.094 3.982,5.012 0,2.32 -1.127,3.741 -2.931,3.741 -0.977,0 -1.803,-0.374 -2.554,-1.048 l -2.931,0.375 0.526,10.624 10.069,0 0,-2.992 -7.214,0 -0.225,-4.49 c 1.052,0.374 1.578,0.449 2.405,0.449 3.456,0 5.86,-2.769 5.86,-6.809 C 6.687,3.367 3.832,0 0,0"
             style="fill:#231f20;fill-opacity:1;fill-rule:nonzero;stroke:none"
             id="path3089" />
        </g>
      </g>
    </g>
    <g
       id="g3099"
       transform="matrix(1.25,0,0,-1.25,383.10768,577.96879)">
      <path
         d="M 0,0 -5.11,-8.006 0,-8.006 0,0 z m 3.081,-10.849 0,-5.163 -3.081,0 0,5.163 -8.867,0 0,2.17 L 0,5.312 l 3.081,0 0,-13.318 1.277,0 0,-2.843 -1.277,0 z"
         style="fill:#231f20;fill-opacity:1;fill-rule:nonzero;stroke:none"
         id="path3101"
         inkscape:connector-curvature="0" />
    </g>
  </g>
</svg>
