<?xml version="1.0" encoding="UTF-8" standalone="no"?>
<!-- Created with Inkscape (http://www.inkscape.org/) -->

<svg
   xmlns:dc="http://purl.org/dc/elements/1.1/"
   xmlns:cc="http://creativecommons.org/ns#"
   xmlns:rdf="http://www.w3.org/1999/02/22-rdf-syntax-ns#"
   xmlns:svg="http://www.w3.org/2000/svg"
   xmlns="http://www.w3.org/2000/svg"
   xmlns:sodipodi="http://sodipodi.sourceforge.net/DTD/sodipodi-0.dtd"
   xmlns:inkscape="http://www.inkscape.org/namespaces/inkscape"
   width="109.58533"
   height="109.57883"
   id="svg5871"
   version="1.1"
   inkscape:version="0.48.3.1 r9886"
   sodipodi:docname="New document 40">
  <defs
     id="defs5873">
    <clipPath
       clipPathUnits="userSpaceOnUse"
       id="clipPath3653">
      <path
         inkscape:connector-curvature="0"
         d="m 27,56.527 513,0 L 540,738 27,738 27,56.527 z"
         id="path3655" />
    </clipPath>
  </defs>
  <sodipodi:namedview
     id="base"
     pagecolor="#ffffff"
     bordercolor="#666666"
     borderopacity="1.0"
     inkscape:pageopacity="0.0"
     inkscape:pageshadow="2"
     inkscape:zoom="0.35"
     inkscape:cx="106.94416"
     inkscape:cy="89.09024"
     inkscape:document-units="px"
     inkscape:current-layer="layer1"
     showgrid="false"
     fit-margin-top="0"
     fit-margin-left="0"
     fit-margin-right="0"
     fit-margin-bottom="0"
     inkscape:window-width="451"
     inkscape:window-height="415"
     inkscape:window-x="125"
     inkscape:window-y="125"
     inkscape:window-maximized="0" />
  <metadata
     id="metadata5876">
    <rdf:RDF>
      <cc:Work
         rdf:about="">
        <dc:format>image/svg+xml</dc:format>
        <dc:type
           rdf:resource="http://purl.org/dc/dcmitype/StillImage" />
        <dc:title></dc:title>
      </cc:Work>
    </rdf:RDF>
  </metadata>
  <g
     inkscape:label="Layer 1"
     inkscape:groupmode="layer"
     id="layer1"
     transform="translate(-268.05584,-511.87359)">
    <g
       transform="matrix(1.25,0,0,-1.25,83.826646,989.35211)"
       id="g3649">
      <g
         id="g3651"
         clip-path="url(#clipPath3653)">
        <g
           id="g3657"
           transform="translate(188.8894,295.5385)">
          <path
             inkscape:connector-curvature="0"
             d="m 0,0 -40.283,40.283 c -1.287,1.287 -1.287,3.385 0,4.672 l 40.281,40.281 c 1.287,1.289 3.386,1.289 4.674,0.002 L 44.953,44.953 c 1.287,-1.287 1.287,-3.383 0,-4.67 L 4.672,0 C 3.4,-1.27 1.271,-1.272 0,0"
             style="fill:#f48412;fill-opacity:1;fill-rule:nonzero;stroke:#231f20;stroke-width:0.5;stroke-linecap:butt;stroke-linejoin:miter;stroke-miterlimit:4;stroke-opacity:1;stroke-dasharray:none"
             id="path3659" />
        </g>
        <g
           id="g3661"
           transform="translate(189.5294,296.1945)">
          <path
             inkscape:connector-curvature="0"
             d="m 0,0 -40.266,40.267 c -0.926,0.928 -0.924,2.463 0,3.391 l 40.264,40.266 c 0.928,0.927 2.461,0.925 3.393,0 L 43.655,43.656 c 0.925,-0.928 0.927,-2.459 0,-3.389 L 3.391,0 C 2.461,-0.922 0.928,-0.926 0,0"
             style="fill:#231f20;fill-opacity:1;fill-rule:evenodd;stroke:none"
             id="path3663" />
        </g>
        <g
           id="g3665"
           transform="translate(190.4264,297.1145)">
          <path
             inkscape:connector-curvature="0"
             d="m 0,0 -40.243,40.244 c -0.446,0.432 -0.446,1.166 0,1.598 L 0,82.084 c 0.429,0.445 1.164,0.445 1.596,0 L 41.84,41.842 c 0.445,-0.432 0.445,-1.168 -0.002,-1.6 L 1.597,0 C 1.166,-0.446 0.431,-0.446 0,0"
             style="fill:#f48412;fill-opacity:1;fill-rule:evenodd;stroke:none"
             id="path3667" />
        </g>
        <g
           id="g3669"
           transform="translate(220.2134,329.5775)">
          <path
             inkscape:connector-curvature="0"
             d="M 0,0 -5.18,-5.192 -15.492,5.119 c -1.465,1.469 -2.582,3.283 -3.182,5.271 -0.355,1.18 -0.533,2.408 -0.533,3.641 l 0,3.492 -4.256,-1.291 c -0.105,-0.033 -0.209,-0.037 -0.316,-0.049 -0.321,-0.035 -0.618,0.061 -0.885,0.237 -0.313,0.205 -0.529,0.529 -0.598,0.896 -0.076,0.414 0.004,0.781 0.25,1.115 l 9.463,12.957 9.449,-12.957 c 0.18,-0.248 0.28,-0.525 0.278,-0.83 -0.008,-0.713 -0.465,-1.252 -1.161,-1.402 -0.208,-0.045 -0.46,-0.029 -0.667,0.033 l -4.233,1.291 0,-3.457 c 0,-0.793 0.164,-1.588 0.516,-2.303 0.222,-0.447 0.494,-0.89 0.847,-1.246 L 0,0 z"
             style="fill:#231f20;fill-opacity:1;fill-rule:evenodd;stroke:none"
             id="path3671" />
        </g>
        <g
           id="g3673"
           transform="translate(181.6824,347.0616)">
          <path
             inkscape:connector-curvature="0"
             d="m 0,0 0,-31.385 -7.319,0 0,31.385 -4.254,-1.293 c -0.101,-0.031 -0.209,-0.047 -0.314,-0.051 -0.305,-0.008 -0.611,0.051 -0.867,0.223 -0.315,0.213 -0.545,0.547 -0.621,0.924 -0.075,0.39 0.021,0.783 0.256,1.101 L -3.657,13.867 5.787,0.904 C 5.922,0.717 6.017,0.521 6.06,0.293 6.125,-0.066 6.039,-0.42 5.832,-0.723 5.631,-1.023 5.322,-1.248 4.965,-1.312 4.73,-1.354 4.466,-1.363 4.234,-1.293 L 0,0 z"
             style="fill:#231f20;fill-opacity:1;fill-rule:evenodd;stroke:none"
             id="path3675" />
        </g>
        <g
           id="g3677"
           transform="translate(209.1174,318.3345)">
          <path
             inkscape:connector-curvature="0"
             d="m 0,0 -1.916,-1.919 -9.226,9.22 c -0.467,0.469 -0.936,0.938 -1.403,1.406 -0.049,0.049 -0.093,0.096 -0.138,0.143 -0.817,0.879 -1.551,1.838 -2.219,2.83 -0.572,0.854 -1.061,1.74 -1.543,2.647 l 0,-26.436 -2.666,0 0,37.268 2.642,0 c 0.043,-0.83 0.1,-1.659 0.17,-2.487 0.037,-0.412 0.088,-0.822 0.151,-1.23 0.41,-2.565 1.375,-5.053 2.703,-7.279 0.539,-0.901 1.162,-1.758 1.883,-2.522 0.752,-0.801 1.515,-1.588 2.291,-2.363 L 0,0 z"
             style="fill:#231f20;fill-opacity:1;fill-rule:evenodd;stroke:none"
             id="path3679" />
        </g>
        <path
           inkscape:connector-curvature="0"
           d="m 190.006,371.58 2.666,0 0,-5.321 -2.666,0 0,5.321 z"
           style="fill:#231f20;fill-opacity:1;fill-rule:evenodd;stroke:none"
           id="path3681" />
        <path
           inkscape:connector-curvature="0"
           d="m 190.006,362.259 2.666,0 0,-5.324 -2.666,0 0,5.324 z"
           style="fill:#231f20;fill-opacity:1;fill-rule:evenodd;stroke:none"
           id="path3683" />
        <path
           inkscape:connector-curvature="0"
           d="m 190.006,352.945 2.666,0 0,-5.322 -2.666,0 0,5.322 z"
           style="fill:#231f20;fill-opacity:1;fill-rule:evenodd;stroke:none"
           id="path3685" />
      </g>
    </g>
  </g>
</svg>
