<?xml version="1.0" encoding="UTF-8" standalone="no"?>
<!-- Created with Inkscape (http://www.inkscape.org/) -->

<svg
   xmlns:dc="http://purl.org/dc/elements/1.1/"
   xmlns:cc="http://creativecommons.org/ns#"
   xmlns:rdf="http://www.w3.org/1999/02/22-rdf-syntax-ns#"
   xmlns:svg="http://www.w3.org/2000/svg"
   xmlns="http://www.w3.org/2000/svg"
   xmlns:sodipodi="http://sodipodi.sourceforge.net/DTD/sodipodi-0.dtd"
   xmlns:inkscape="http://www.inkscape.org/namespaces/inkscape"
   width="90.626465"
   height="90.632454"
   id="svg6195"
   version="1.1"
   inkscape:version="0.48.3.1 r9886"
   sodipodi:docname="New document 48">
  <defs
     id="defs6197">
    <clipPath
       clipPathUnits="userSpaceOnUse"
       id="clipPath4065">
      <path
         inkscape:connector-curvature="0"
         d="m 27,56.527 513,0 L 540,738 27,738 27,56.527 z"
         id="path4067" />
    </clipPath>
  </defs>
  <sodipodi:namedview
     id="base"
     pagecolor="#ffffff"
     bordercolor="#666666"
     borderopacity="1.0"
     inkscape:pageopacity="0.0"
     inkscape:pageshadow="2"
     inkscape:zoom="0.35"
     inkscape:cx="97.462644"
     inkscape:cy="53.892995"
     inkscape:document-units="px"
     inkscape:current-layer="layer1"
     showgrid="false"
     fit-margin-top="0"
     fit-margin-left="0"
     fit-margin-right="0"
     fit-margin-bottom="0"
     inkscape:window-width="451"
     inkscape:window-height="415"
     inkscape:window-x="125"
     inkscape:window-y="125"
     inkscape:window-maximized="0" />
  <metadata
     id="metadata6200">
    <rdf:RDF>
      <cc:Work
         rdf:about="">
        <dc:format>image/svg+xml</dc:format>
        <dc:type
           rdf:resource="http://purl.org/dc/dcmitype/StillImage" />
        <dc:title></dc:title>
      </cc:Work>
    </rdf:RDF>
  </metadata>
  <g
     inkscape:label="Layer 1"
     inkscape:groupmode="layer"
     id="layer1"
     transform="translate(-277.53736,-495.62272)">
    <g
       transform="matrix(1.25,0,0,-1.25,94.481799,675.03999)"
       id="g4061">
      <g
         id="g4063"
         clip-path="url(#clipPath4065)">
        <g
           id="g4069"
           transform="translate(147.6584,109.6216)">
          <path
             inkscape:connector-curvature="0"
             d="m 0,0 32.699,32.699 c 1.288,1.287 3.385,1.287 4.672,0 L 70.071,0 c 1.287,-1.288 1.287,-3.385 0,-4.672 l -32.7,-32.7 c -1.287,-1.287 -3.384,-1.287 -4.672,0 L 0,-4.672 c -1.269,1.271 -1.271,3.4 0,4.672"
             style="fill:#f48412;fill-opacity:1;fill-rule:nonzero;stroke:#231f20;stroke-width:0.5;stroke-linecap:butt;stroke-linejoin:miter;stroke-miterlimit:4;stroke-opacity:1;stroke-dasharray:none"
             id="path4071" />
        </g>
        <g
           id="g4073"
           transform="translate(148.3144,108.9806)">
          <path
             inkscape:connector-curvature="0"
             d="m 0,0 32.684,32.684 c 0.928,0.925 2.463,0.923 3.391,0 L 68.757,0 c 0.928,-0.928 0.924,-2.461 0,-3.391 L 36.075,-36.072 c -0.93,-0.926 -2.461,-0.928 -3.391,0 L 0,-3.391 C -0.922,-2.461 -0.926,-0.928 0,0"
             style="fill:#231f20;fill-opacity:1;fill-rule:evenodd;stroke:none"
             id="path4075" />
        </g>
        <g
           id="g4077"
           transform="translate(149.2344,108.0835)">
          <path
             inkscape:connector-curvature="0"
             d="m 0,0 32.661,32.661 c 0.431,0.445 1.166,0.445 1.597,0 L 66.917,0 c 0.447,-0.431 0.447,-1.166 0,-1.597 L 34.258,-34.255 c -0.431,-0.448 -1.167,-0.448 -1.597,0 L 0,-1.597 C -0.445,-1.166 -0.445,-0.431 0,0"
             style="fill:#f48412;fill-opacity:1;fill-rule:evenodd;stroke:none"
             id="path4079" />
        </g>
        <g
           id="g4081"
           transform="translate(178.2684,102.1075)">
          <path
             inkscape:connector-curvature="0"
             d="M 0,0 4.029,1.191 C 4.142,1.225 4.277,1.246 4.394,1.248 4.964,1.266 5.491,0.801 5.591,0.25 5.651,-0.086 5.593,-0.422 5.401,-0.705 l -8.698,-12.756 -8.699,12.756 c -0.147,0.215 -0.242,0.445 -0.244,0.705 -0.003,0.592 0.449,1.107 1.021,1.228 0.233,0.049 0.408,-0.005 0.625,-0.068 l 4,-1.16 0,24.998 6.594,0 L 0,0 z"
             style="fill:#231f20;fill-opacity:1;fill-rule:evenodd;stroke:none"
             id="path4083" />
        </g>
        <g
           id="g4085"
           transform="translate(193.7074,112.4646)">
          <path
             inkscape:connector-curvature="0"
             d="M 0,0 4.029,-1.189 C 4.143,-1.224 4.277,-1.246 4.395,-1.248 4.965,-1.265 5.491,-0.8 5.592,-0.25 5.651,0.086 5.594,0.424 5.401,0.705 L -3.297,13.461 -11.996,0.705 C -12.144,0.493 -12.237,0.26 -12.239,0 c -0.003,-0.591 0.448,-1.107 1.02,-1.228 0.234,-0.049 0.409,0.006 0.625,0.068 l 4,1.16 0,-24.998 6.594,0 L 0,0 z"
             style="fill:#231f20;fill-opacity:1;fill-rule:evenodd;stroke:none"
             id="path4087" />
        </g>
      </g>
    </g>
  </g>
</svg>
