<?xml version="1.0" encoding="UTF-8" standalone="no"?>
<!-- Created with Inkscape (http://www.inkscape.org/) -->

<svg
   xmlns:dc="http://purl.org/dc/elements/1.1/"
   xmlns:cc="http://creativecommons.org/ns#"
   xmlns:rdf="http://www.w3.org/1999/02/22-rdf-syntax-ns#"
   xmlns:svg="http://www.w3.org/2000/svg"
   xmlns="http://www.w3.org/2000/svg"
   xmlns:sodipodi="http://sodipodi.sourceforge.net/DTD/sodipodi-0.dtd"
   xmlns:inkscape="http://www.inkscape.org/namespaces/inkscape"
   width="27.109377"
   height="40.390625"
   id="svg6297"
   version="1.1"
   inkscape:version="0.48.3.1 r9886"
   sodipodi:docname="New document 50">
  <defs
     id="defs6299" />
  <sodipodi:namedview
     id="base"
     pagecolor="#ffffff"
     bordercolor="#666666"
     borderopacity="1.0"
     inkscape:pageopacity="0.0"
     inkscape:pageshadow="2"
     inkscape:zoom="0.35"
     inkscape:cx="13.555003"
     inkscape:cy="20.193122"
     inkscape:document-units="px"
     inkscape:current-layer="layer1"
     showgrid="false"
     fit-margin-top="0"
     fit-margin-left="0"
     fit-margin-right="0"
     fit-margin-bottom="0"
     inkscape:window-width="451"
     inkscape:window-height="415"
     inkscape:window-x="175"
     inkscape:window-y="175"
     inkscape:window-maximized="0" />
  <metadata
     id="metadata6302">
    <rdf:RDF>
      <cc:Work
         rdf:about="">
        <dc:format>image/svg+xml</dc:format>
        <dc:type
           rdf:resource="http://purl.org/dc/dcmitype/StillImage" />
        <dc:title></dc:title>
      </cc:Work>
    </rdf:RDF>
  </metadata>
  <g
     inkscape:label="Layer 1"
     inkscape:groupmode="layer"
     id="layer1"
     transform="translate(-361.445,-512.16468)">
    <g
       id="g4101"
       transform="matrix(1.25,0,0,-1.25,361.7575,548.10218)">
      <path
         d="m 0,0 -0.002,25.182 c 0,1.82 1.484,3.305 3.304,3.304 l 14.583,0 c 1.821,10e-4 3.303,-1.484 3.303,-3.304 L 21.19,0 c 0,-1.819 -1.484,-3.302 -3.305,-3.302 l -14.583,0 C 1.506,-3.3 -0.002,-1.796 0,0"
         style="fill:#f48412;fill-opacity:1;fill-rule:nonzero;stroke:#231f20;stroke-width:0.5;stroke-linecap:butt;stroke-linejoin:miter;stroke-miterlimit:4;stroke-opacity:1;stroke-dasharray:none"
         id="path4103"
         inkscape:connector-curvature="0" />
    </g>
    <g
       id="g4105"
       transform="matrix(1.25,0,0,-1.25,362.9025,548.08719)">
      <path
         d="m 0,0 0,25.159 c 0.002,1.311 1.088,2.395 2.398,2.398 l 14.56,-10e-4 c 1.312,10e-4 2.394,-1.087 2.398,-2.398 L 19.354,0.002 C 19.352,-1.31 18.27,-2.394 16.958,-2.396 L 2.398,-2.397 C 1.088,-2.392 0,-1.31 0,0"
         style="fill:#231f20;fill-opacity:1;fill-rule:evenodd;stroke:none"
         id="path4107"
         inkscape:connector-curvature="0" />
    </g>
    <g
       id="g4109"
       transform="matrix(1.25,0,0,-1.25,364.50875,548.06593)">
      <path
         d="m 0,0 0,25.126 c -0.012,0.621 0.51,1.138 1.129,1.129 l 14.528,0 c 0.619,0.011 1.139,-0.509 1.129,-1.129 l 0,-25.125 c 0.01,-0.621 -0.51,-1.141 -1.131,-1.129 L 1.129,-1.129 C 0.508,-1.14 -0.01,-0.62 0,0"
         style="fill:#f48412;fill-opacity:1;fill-rule:evenodd;stroke:none"
         id="path4111"
         inkscape:connector-curvature="0" />
    </g>
    <g
       id="g4113"
       transform="matrix(1.25,0,0,-1.25,375.6375,539.90468)">
      <path
         d="M 0,0 -3.871,-5.726 -7.751,0 c -0.172,0.252 -0.106,0.598 0.147,0.77 0.168,0.114 0.342,0.094 0.551,0.04 l 1.68,-0.504 0,17.487 3,0 0,-17.487 1.652,0.493 C -0.492,0.862 -0.322,0.89 -0.146,0.77 0.106,0.598 0.172,0.252 0,0"
         style="fill:#231f20;fill-opacity:1;fill-rule:evenodd;stroke:none"
         id="path4115"
         inkscape:connector-curvature="0" />
    </g>
    <g
       id="g4117"
       transform="matrix(1.25,0,0,-1.25,374.36375,524.84844)">
      <path
         d="M 0,0 3.873,5.726 7.75,0 C 7.922,-0.251 7.855,-0.597 7.603,-0.769 7.435,-0.884 7.261,-0.862 7.052,-0.81 l -1.679,0.504 0,-17.392 -3,0 0,17.392 L 0.72,-0.798 C 0.492,-0.862 0.322,-0.889 0.146,-0.769 -0.106,-0.597 -0.17,-0.251 0,0"
         style="fill:#231f20;fill-opacity:1;fill-rule:evenodd;stroke:none"
         id="path4119"
         inkscape:connector-curvature="0" />
    </g>
  </g>
</svg>
