<?xml version="1.0" encoding="UTF-8" standalone="no"?>
<!-- Created with Inkscape (http://www.inkscape.org/) -->

<svg
   xmlns:dc="http://purl.org/dc/elements/1.1/"
   xmlns:cc="http://creativecommons.org/ns#"
   xmlns:rdf="http://www.w3.org/1999/02/22-rdf-syntax-ns#"
   xmlns:svg="http://www.w3.org/2000/svg"
   xmlns="http://www.w3.org/2000/svg"
   xmlns:sodipodi="http://sodipodi.sourceforge.net/DTD/sodipodi-0.dtd"
   xmlns:inkscape="http://www.inkscape.org/namespaces/inkscape"
   width="110.19766"
   height="110.15432"
   id="svg6408"
   version="1.1"
   inkscape:version="0.48.3.1 r9886"
   sodipodi:docname="New document 39">
  <defs
     id="defs6410" />
  <sodipodi:namedview
     id="base"
     pagecolor="#ffffff"
     bordercolor="#666666"
     borderopacity="1.0"
     inkscape:pageopacity="0.0"
     inkscape:pageshadow="2"
     inkscape:zoom="0.35"
     inkscape:cx="55.090255"
     inkscape:cy="55.07891"
     inkscape:document-units="px"
     inkscape:current-layer="layer1"
     showgrid="false"
     fit-margin-top="0"
     fit-margin-left="0"
     fit-margin-right="0"
     fit-margin-bottom="0"
     inkscape:window-width="451"
     inkscape:window-height="415"
     inkscape:window-x="175"
     inkscape:window-y="175"
     inkscape:window-maximized="0" />
  <metadata
     id="metadata6413">
    <rdf:RDF>
      <cc:Work
         rdf:about="">
        <dc:format>image/svg+xml</dc:format>
        <dc:type
           rdf:resource="http://purl.org/dc/dcmitype/StillImage" />
        <dc:title></dc:title>
      </cc:Work>
    </rdf:RDF>
  </metadata>
  <g
     inkscape:label="Layer 1"
     inkscape:groupmode="layer"
     id="layer1"
     transform="translate(-319.90975,-477.28677)">
    <g
       id="g3721"
       transform="matrix(1.25,0,0,-1.25,428.30984,528.80828)">
      <path
         d="m 0,0 c 1.572,-1.572 1.572,-4.116 0,-5.687 l -39.805,-39.806 c -1.57,-1.568 -4.117,-1.568 -5.686,0 l -39.804,39.806 c -1.573,1.571 -1.573,4.115 0,5.687 l 39.804,39.806 c 1.569,1.569 4.116,1.569 5.686,0 L 0,0 z"
         style="fill:#f48412;fill-opacity:1;fill-rule:nonzero;stroke:none"
         id="path3723"
         inkscape:connector-curvature="0" />
    </g>
    <g
       id="g3725"
       transform="matrix(1.25,0,0,-1.25,428.30984,528.80828)">
      <path
         d="m 0,0 c 1.572,-1.572 1.572,-4.116 0,-5.687 l -39.805,-39.806 c -1.57,-1.568 -4.117,-1.568 -5.686,0 l -39.804,39.806 c -1.573,1.571 -1.573,4.115 0,5.687 l 39.804,39.806 c 1.569,1.569 4.116,1.569 5.686,0 L 0,0 z"
         style="fill:none;stroke:#231f20;stroke-width:0.5;stroke-linecap:butt;stroke-linejoin:miter;stroke-miterlimit:4;stroke-opacity:1;stroke-dasharray:none"
         id="path3727"
         inkscape:connector-curvature="0" />
    </g>
    <g
       id="g3729"
       transform="matrix(1.25,0,0,-1.25,425.94097,533.54953)">
      <path
         d="m 0,0 -39.807,-39.805 c -0.521,-0.52 -1.371,-0.52 -1.894,0 L -81.506,0 c -0.523,0.524 -0.523,1.375 0,1.898 l 39.805,39.805 c 0.523,0.522 1.373,0.522 1.894,0 L 0,1.898 C 0.523,1.375 0.523,0.524 0,0 M 1.106,3.004 -38.701,42.81 c -1.131,1.132 -2.973,1.132 -4.106,0 L -82.611,3.004 c -1.133,-1.135 -1.133,-2.974 0,-4.109 l 39.804,-39.805 c 1.133,-1.131 2.975,-1.131 4.106,0 L 1.106,-1.105 c 1.13,1.135 1.13,2.974 0,4.109"
         style="fill:#231f20;fill-opacity:1;fill-rule:nonzero;stroke:none"
         id="path3731"
         inkscape:connector-curvature="0" />
    </g>
    <g
       id="g3733"
       transform="matrix(1.25,0,0,-1.25,362.13484,507.09952)">
      <path
         d="m 0,0 c 0,0.887 -0.369,1.353 -1.105,1.396 l -1.899,0 0,-2.792 1.899,0 C -0.369,-1.353 0,-0.889 0,0 m 1.5,-7.825 -1.555,0 -1.414,4.927 -1.535,0 0,-4.927 -1.502,0 0,10.724 3.324,0 C -0.609,2.849 -0.287,2.815 -0.217,2.801 0.277,2.687 0.664,2.452 0.943,2.092 1.315,1.615 1.5,0.918 1.5,0.002 1.5,-1.32 1.004,-2.192 0.008,-2.613 L 1.5,-7.825 z"
         style="fill:#231f20;fill-opacity:1;fill-rule:nonzero;stroke:none"
         id="path3735"
         inkscape:connector-curvature="0" />
    </g>
    <g
       id="g3737"
       transform="matrix(1.25,0,0,-1.25,372.05984,510.17952)">
      <path
         d="m 0,0 c 0,0.917 -0.096,1.712 -0.282,2.393 -0.277,1.053 -0.74,1.578 -1.384,1.578 -0.643,0 -1.106,-0.525 -1.383,-1.578 C -3.235,1.712 -3.327,0.917 -3.327,0 c 0,-0.915 0.092,-1.713 0.278,-2.394 0.277,-1.051 0.74,-1.576 1.383,-1.576 0.644,0 1.107,0.525 1.384,1.576 C -0.096,-1.713 0,-0.915 0,0 m 1.5,0 c 0,-1.317 -0.151,-2.408 -0.45,-3.273 -0.515,-1.468 -1.42,-2.2 -2.716,-2.2 -1.293,0 -2.2,0.732 -2.713,2.2 C -4.68,-2.408 -4.83,-1.317 -4.83,0 c 0,3.648 1.056,5.474 3.164,5.474 C 0.443,5.474 1.5,3.648 1.5,0"
         style="fill:#231f20;fill-opacity:1;fill-rule:nonzero;stroke:none"
         id="path3739"
         inkscape:connector-curvature="0" />
    </g>
    <g
       id="g3741"
       transform="matrix(1.25,0,0,-1.25,380.86984,511.38827)">
      <path
         d="M 0,0 -0.836,3.488 -1.683,0 0,0 z m 2.594,-4.394 -1.533,0 -0.695,2.892 -2.412,0 -0.698,-2.892 -1.523,0 L -1.673,6.33 0,6.33 2.594,-4.394 z"
         style="fill:#231f20;fill-opacity:1;fill-rule:nonzero;stroke:none"
         id="path3743"
         inkscape:connector-curvature="0" />
    </g>
    <g
       id="g3745"
       transform="matrix(1.25,0,0,-1.25,391.62221,510.18702)">
      <path
         d="m 0,0 c 0,2.577 -0.609,3.866 -1.824,3.866 l -1.18,0 0,-7.733 1.18,0 C -0.609,-3.867 0,-2.577 0,0 M 1.5,0.005 C 1.5,-2.14 1.078,-3.66 0.234,-4.551 -0.281,-5.096 -0.889,-5.367 -1.59,-5.367 l -0.234,0 -2.682,0 0,10.736 2.797,0 c 0.703,0 1.305,-0.231 1.803,-0.688 C 1.031,3.823 1.5,2.265 1.5,0.005"
         style="fill:#231f20;fill-opacity:1;fill-rule:nonzero;stroke:none"
         id="path3747"
         inkscape:connector-curvature="0" />
    </g>
    <g
       id="g3749"
       transform="matrix(1.25,0,0,-1.25,369.90109,536.98452)">
      <path
         d="m 0,0 -1.5,0 0,6.004 L -3.535,0 -5.57,6.004 -5.57,0 l -1.504,0 0,10.721 1.5,0 2.035,-6.004 2.039,6.004 1.5,0 L 0,0 z"
         style="fill:#231f20;fill-opacity:1;fill-rule:nonzero;stroke:none"
         id="path3751"
         inkscape:connector-curvature="0" />
    </g>
    <g
       id="g3753"
       transform="matrix(1.25,0,0,-1.25,377.11734,531.49452)">
      <path
         d="M 0,0 -0.835,3.488 -1.683,0 0,0 z m 2.596,-4.392 -1.533,0 -0.697,2.891 -2.414,0 -0.696,-2.891 -1.525,0 2.598,10.721 1.671,0 2.596,-10.721 z"
         style="fill:#231f20;fill-opacity:1;fill-rule:nonzero;stroke:none"
         id="path3755"
         inkscape:connector-curvature="0" />
    </g>
    <g
       id="g3757"
       transform="matrix(1.25,0,0,-1.25,389.74234,523.58327)">
      <path
         d="m 0,0 -2.68,-5.777 0,-4.944 -1.5,0 0,4.944 L -6.861,0 -5.242,0 -3.432,-3.88 -1.629,0 0,0 z"
         style="fill:#231f20;fill-opacity:1;fill-rule:nonzero;stroke:none"
         id="path3759"
         inkscape:connector-curvature="0" />
    </g>
    <g
       id="g3761"
       transform="matrix(1.25,0,0,-1.25,359.04859,545.56578)">
      <path
         d="m 0,0 -3.964,0 0,-2.791 2.355,0 0,-1.503 -2.355,0 0,-4.927 -1.504,0 0,10.724 L 0,1.503 0,0 z"
         style="fill:#231f20;fill-opacity:1;fill-rule:nonzero;stroke:none"
         id="path3763"
         inkscape:connector-curvature="0" />
    </g>
    <g
       id="g3765"
       transform="matrix(1.25,0,0,-1.25,367.75984,557.09202)">
      <path
         d="m 0,0 -5.469,0 0,10.724 1.504,0 0,-9.221 L 0,1.503 0,0 z"
         style="fill:#231f20;fill-opacity:1;fill-rule:nonzero;stroke:none"
         id="path3767"
         inkscape:connector-curvature="0" />
    </g>
    <g
       id="g3769"
       transform="matrix(1.25,0,0,-1.25,375.40859,550.38828)">
      <path
         d="M 0,0 C 0,0.915 -0.093,1.713 -0.279,2.394 -0.558,3.445 -1.021,3.97 -1.666,3.97 -2.306,3.97 -2.767,3.445 -3.049,2.394 -3.234,1.713 -3.326,0.915 -3.326,0 c 0,-0.916 0.092,-1.715 0.277,-2.395 0.282,-1.051 0.743,-1.576 1.383,-1.576 0.645,0 1.108,0.525 1.387,1.576 C -0.093,-1.715 0,-0.916 0,0 m 1.502,0 c 0,-1.318 -0.152,-2.41 -0.451,-3.275 -0.516,-1.465 -1.42,-2.199 -2.717,-2.199 -1.293,0 -2.195,0.734 -2.713,2.199 -0.298,0.865 -0.449,1.957 -0.449,3.275 0,3.647 1.055,5.473 3.162,5.473 2.114,0 3.168,-1.826 3.168,-5.473"
         style="fill:#231f20;fill-opacity:1;fill-rule:nonzero;stroke:none"
         id="path3771"
         inkscape:connector-curvature="0" />
    </g>
    <g
       id="g3773"
       transform="matrix(1.25,0,0,-1.25,385.72609,550.38828)">
      <path
         d="M 0,0 C 0,0.915 -0.092,1.713 -0.277,2.394 -0.555,3.445 -1.017,3.97 -1.66,3.97 -2.305,3.97 -2.767,3.445 -3.045,2.394 -3.23,1.713 -3.326,0.915 -3.326,0 c 0,-0.916 0.096,-1.715 0.281,-2.395 0.278,-1.051 0.74,-1.576 1.385,-1.576 0.643,0 1.105,0.525 1.383,1.576 C -0.092,-1.715 0,-0.916 0,0 m 1.504,0 c 0,-1.318 -0.15,-2.41 -0.451,-3.275 -0.514,-1.465 -1.42,-2.199 -2.713,-2.199 -1.297,0 -2.201,0.734 -2.717,2.199 -0.299,0.865 -0.449,1.957 -0.449,3.275 0,3.647 1.057,5.473 3.166,5.473 2.107,0 3.164,-1.826 3.164,-5.473"
         style="fill:#231f20;fill-opacity:1;fill-rule:nonzero;stroke:none"
         id="path3775"
         inkscape:connector-curvature="0" />
    </g>
    <g
       id="g3777"
       transform="matrix(1.25,0,0,-1.25,395.90972,550.39703)">
      <path
         d="m 0,0 c 0,2.577 -0.608,3.865 -1.823,3.865 l -1.183,0 0,-7.732 1.183,0 C -0.608,-3.867 0,-2.578 0,0 M 1.5,0.007 C 1.5,-2.141 1.08,-3.658 0.236,-4.552 -0.28,-5.096 -0.887,-5.367 -1.588,-5.367 l -0.235,0 -2.683,0 0,10.735 2.799,0 c 0.701,0 1.302,-0.228 1.802,-0.687 C 1.033,3.823 1.5,2.265 1.5,0.007"
         style="fill:#231f20;fill-opacity:1;fill-rule:nonzero;stroke:none"
         id="path3779"
         inkscape:connector-curvature="0" />
    </g>
  </g>
</svg>
