<?xml version="1.0" encoding="UTF-8" standalone="no"?>
<!-- Created with Inkscape (http://www.inkscape.org/) -->

<svg
   xmlns:dc="http://purl.org/dc/elements/1.1/"
   xmlns:cc="http://creativecommons.org/ns#"
   xmlns:rdf="http://www.w3.org/1999/02/22-rdf-syntax-ns#"
   xmlns:svg="http://www.w3.org/2000/svg"
   xmlns="http://www.w3.org/2000/svg"
   xmlns:sodipodi="http://sodipodi.sourceforge.net/DTD/sodipodi-0.dtd"
   xmlns:inkscape="http://www.inkscape.org/namespaces/inkscape"
   width="110.15625"
   height="110.19531"
   id="svg5906"
   version="1.1"
   inkscape:version="0.48.3.1 r9886"
   sodipodi:docname="New document 33">
  <defs
     id="defs5908" />
  <sodipodi:namedview
     id="base"
     pagecolor="#ffffff"
     bordercolor="#666666"
     borderopacity="1.0"
     inkscape:pageopacity="0.0"
     inkscape:pageshadow="2"
     inkscape:zoom="0.35"
     inkscape:cx="55.078442"
     inkscape:cy="55.107502"
     inkscape:document-units="px"
     inkscape:current-layer="layer1"
     showgrid="false"
     fit-margin-top="0"
     fit-margin-left="0"
     fit-margin-right="0"
     fit-margin-bottom="0"
     inkscape:window-width="451"
     inkscape:window-height="415"
     inkscape:window-x="25"
     inkscape:window-y="25"
     inkscape:window-maximized="0" />
  <metadata
     id="metadata5911">
    <rdf:RDF>
      <cc:Work
         rdf:about="">
        <dc:format>image/svg+xml</dc:format>
        <dc:type
           rdf:resource="http://purl.org/dc/dcmitype/StillImage" />
        <dc:title></dc:title>
      </cc:Work>
    </rdf:RDF>
  </metadata>
  <g
     inkscape:label="Layer 1"
     inkscape:groupmode="layer"
     id="layer1"
     transform="translate(-319.92156,-477.27437)">
    <g
       id="g4257"
       transform="matrix(1.25,0,0,-1.25,378.55437,585.67281)">
      <path
         d="m 0,0 c -0.786,-0.785 -1.813,-1.179 -2.843,-1.179 -1.03,0 -2.059,0.394 -2.843,1.179 L -25.59,19.902 -45.493,39.805 c -0.786,0.786 -1.177,1.815 -1.177,2.845 0,1.028 0.391,2.058 1.177,2.842 l 19.903,19.903 19.904,19.904 c 0.784,0.784 1.813,1.177 2.843,1.177 1.03,0 2.057,-0.393 2.843,-1.177 L 19.903,65.395 39.806,45.492 c 0.785,-0.784 1.177,-1.814 1.177,-2.842 0,-1.03 -0.392,-2.059 -1.177,-2.845 L 19.903,19.902 0,0 z"
         style="fill:#f48412;fill-opacity:1;fill-rule:nonzero;stroke:none"
         id="path4259"
         inkscape:connector-curvature="0" />
    </g>
    <g
       id="g4261"
       transform="matrix(1.25,0,0,-1.25,378.55437,585.67281)">
      <path
         d="m 0,0 c -0.786,-0.785 -1.813,-1.179 -2.843,-1.179 -1.03,0 -2.059,0.394 -2.843,1.179 L -25.59,19.902 -45.493,39.805 c -0.786,0.786 -1.177,1.815 -1.177,2.845 0,1.028 0.391,2.058 1.177,2.842 l 19.903,19.903 19.904,19.904 c 0.784,0.784 1.813,1.177 2.843,1.177 1.03,0 2.057,-0.393 2.843,-1.177 L 19.903,65.395 39.806,45.492 c 0.785,-0.784 1.177,-1.814 1.177,-2.842 0,-1.03 -0.392,-2.059 -1.177,-2.845 L 19.903,19.902 0,0 z"
         style="fill:none;stroke:#231f20;stroke-width:0.5;stroke-linecap:butt;stroke-linejoin:miter;stroke-miterlimit:4;stroke-opacity:1;stroke-dasharray:none"
         id="path4263"
         inkscape:connector-curvature="0" />
    </g>
    <g
       id="g4265"
       transform="matrix(1.25,0,0,-1.25,376.18438,583.30531)">
      <path
         d="M 0,0 C -0.522,-0.522 -1.372,-0.522 -1.895,0 L -41.7,39.806 c -0.523,0.525 -0.523,1.375 0,1.897 L -1.895,81.51 c 0.523,0.522 1.373,0.522 1.895,0 L 39.806,41.703 c 0.523,-0.522 0.523,-1.372 0,-1.897 L 0,0 z M 40.945,42.839 1.139,82.646 c -1.151,1.149 -3.022,1.149 -4.171,0 L -42.839,42.839 c -1.15,-1.149 -1.15,-3.018 0,-4.169 L -3.032,-1.135 c 1.149,-1.151 3.02,-1.151 4.171,0 L 40.945,38.67 c 1.149,1.151 1.149,3.02 0,4.169"
         style="fill:#231f20;fill-opacity:1;fill-rule:nonzero;stroke:none"
         id="path4267"
         inkscape:connector-curvature="0" />
    </g>
    <g
       id="g4269"
       transform="matrix(1.25,0,0,-1.25,383.69062,547.43407)">
      <path
         d="m 0,0 0,6.696 -40.259,0 8.578,-8.577 49.458,0 L 19.657,0 0,0 z"
         style="fill:#231f20;fill-opacity:1;fill-rule:nonzero;stroke:none"
         id="path4271"
         inkscape:connector-curvature="0" />
    </g>
    <g
       id="g4273"
       transform="matrix(1.25,0,0,-1.25,371.48687,514.17531)">
      <path
         d="m 0,0 c -0.004,0.211 0.029,0.423 -0.06,0.625 -0.09,0.208 -0.177,0.394 -0.368,0.533 -0.174,0.129 -0.342,0.238 -0.561,0.278 -0.217,0.037 -0.457,0.077 -0.632,0.222 -0.164,0.137 -0.302,0.262 -0.424,0.44 -0.114,0.159 0.128,0.35 0.231,0.441 0.123,0.108 0.283,0.294 0.312,0.46 0.019,0.106 0.01,0.208 0.05,0.311 0.037,0.094 0.096,0.176 0.129,0.274 0.071,0.202 0.012,0.407 0.061,0.605 0.047,0.188 0.103,0.365 0.084,0.568 C -1.218,5.225 -1.453,5.51 -1.799,5.798 -2.425,6.319 -3.663,6.083 -4.068,5.378 -4.296,4.984 -4.404,4.563 -4.409,4.106 -4.413,3.672 -4.18,3.272 -4.184,2.856 -4.185,2.785 -4.159,2.628 -4.19,2.565 -4.239,2.468 -4.345,2.534 -4.436,2.573 -4.587,2.643 -4.873,2.646 -5.031,2.6 -5.218,2.542 -5.412,2.502 -5.611,2.539 -5.806,2.573 -5.988,2.72 -6.185,2.725 -6.978,2.751 -7.484,2.197 -7.616,1.446 L -9.301,1.743 -8.035,7.192 14.792,3.179 14.194,-2.496 0,0 z m 16.271,-13.684 c -0.016,0.101 -0.045,0.195 -0.068,0.294 -0.014,0.058 0.106,0.229 0.131,0.294 0.179,0.443 0.148,0.842 0,1.287 -0.054,0.165 0.037,0.449 0.086,0.614 0.04,0.145 0.061,0.291 0.087,0.436 0.176,0.993 0.356,1.983 0.498,2.979 0.117,0.822 0.213,1.689 -0.065,2.485 -0.142,0.413 -0.386,0.744 -0.682,1.059 -0.089,0.093 -0.149,0.108 -0.143,0.227 0.005,0.132 0.011,0.263 0.017,0.395 0.055,1.172 0.105,2.347 0.158,3.52 0.05,1.107 0.1,2.214 0.15,3.324 0.011,0.253 0.011,0.451 -0.063,0.699 -0.124,0.42 -0.532,0.711 -0.941,0.81 C 15.15,4.811 -6.208,8.545 -7.843,8.833 -8.262,8.907 -8.706,8.984 -9.087,8.717 -9.347,8.537 -9.531,8.317 -9.626,8.012 -9.734,7.664 -9.843,7.315 -9.951,6.965 c -0.636,-2.043 -1.27,-4.086 -1.906,-6.132 -0.024,-0.077 -0.37,-0.159 -0.448,-0.214 -0.169,-0.12 -0.358,-0.222 -0.509,-0.365 -0.327,-0.305 -0.522,-0.67 -0.72,-1.064 -0.178,-0.354 -0.277,-0.801 -0.361,-1.19 -0.093,-0.439 -0.176,-0.882 -0.269,-1.323 -0.189,-0.905 -0.314,-1.821 -0.474,-2.728 -0.012,-0.074 -0.004,-0.188 -0.029,-0.254 -0.03,-0.086 -0.16,-0.182 -0.214,-0.262 -0.129,-0.186 -0.206,-0.383 -0.246,-0.606 -0.04,-0.227 -0.034,-0.441 0.009,-0.667 0.015,-0.071 -0.103,-0.157 -0.139,-0.222 -0.055,-0.103 -0.099,-0.201 -0.138,-0.314 -0.083,-0.249 -0.083,-0.517 -0.008,-0.768 0.037,-0.123 0.093,-0.203 0.074,-0.334 -0.025,-0.171 -0.052,-0.339 -0.077,-0.51 l 2.12,-0.357 -0.554,-3.218 c 0,-0.685 0.625,-1.335 1.207,-1.592 0.133,-0.058 0.382,-0.123 0.565,-0.155 0.181,-0.034 0.438,-0.056 0.582,-0.048 0.695,0.048 1.544,0.334 1.677,1.085 l 0.566,3.217 18.827,-3.309 -0.566,-3.218 c -0.13,-0.754 0.57,-1.31 1.207,-1.593 0.132,-0.056 0.381,-0.122 0.563,-0.153 0.183,-0.032 0.44,-0.058 0.583,-0.046 0.637,0.043 1.445,0.439 1.68,1.084 l 0.573,3.198 2.131,-0.374 c 0.02,0.109 0.04,0.217 0.059,0.325 0.018,0.104 0.012,0.247 0.086,0.327 0.146,0.15 0.25,0.316 0.318,0.512 0.071,0.212 0.085,0.4 0.053,0.619"
         style="fill:#231f20;fill-opacity:1;fill-rule:nonzero;stroke:none"
         id="path4275"
         inkscape:connector-curvature="0" />
    </g>
    <g
       id="g4277"
       transform="matrix(1.25,0,0,-1.25,361.11937,507.39906)">
      <path
         d="m 0,0 -0.162,-0.696 1.475,-2.04 c 0.161,0.091 0.342,0.151 0.537,0.177 L 0,0 z"
         style="fill:#231f20;fill-opacity:1;fill-rule:nonzero;stroke:none"
         id="path4279"
         inkscape:connector-curvature="0" />
    </g>
  </g>
</svg>
