<?xml version="1.0" encoding="UTF-8" standalone="no"?>
<!-- Created with Inkscape (http://www.inkscape.org/) -->

<svg
   xmlns:dc="http://purl.org/dc/elements/1.1/"
   xmlns:cc="http://creativecommons.org/ns#"
   xmlns:rdf="http://www.w3.org/1999/02/22-rdf-syntax-ns#"
   xmlns:svg="http://www.w3.org/2000/svg"
   xmlns="http://www.w3.org/2000/svg"
   xmlns:sodipodi="http://sodipodi.sourceforge.net/DTD/sodipodi-0.dtd"
   xmlns:inkscape="http://www.inkscape.org/namespaces/inkscape"
   width="90.626465"
   height="90.632454"
   id="svg6486"
   version="1.1"
   inkscape:version="0.48.3.1 r9886"
   sodipodi:docname="New document 56">
  <defs
     id="defs6488">
    <clipPath
       clipPathUnits="userSpaceOnUse"
       id="clipPath4173">
      <path
         inkscape:connector-curvature="0"
         d="m 27,56.527 513,0 L 540,738 27,738 27,56.527 z"
         id="path4175" />
    </clipPath>
    <clipPath
       clipPathUnits="userSpaceOnUse"
       id="clipPath4161">
      <path
         inkscape:connector-curvature="0"
         d="m 31.209,56.527 504.581,0 0,681.473 -504.581,0 0,-681.473 z"
         id="path4163" />
    </clipPath>
    <clipPath
       clipPathUnits="userSpaceOnUse"
       id="clipPath4149">
      <path
         inkscape:connector-curvature="0"
         d="m 27,56.527 513,0 L 540,738 27,738 27,56.527 z"
         id="path4151" />
    </clipPath>
  </defs>
  <sodipodi:namedview
     id="base"
     pagecolor="#ffffff"
     bordercolor="#666666"
     borderopacity="1.0"
     inkscape:pageopacity="0.0"
     inkscape:pageshadow="2"
     inkscape:zoom="0.35"
     inkscape:cx="45.320413"
     inkscape:cy="45.321565"
     inkscape:document-units="px"
     inkscape:current-layer="layer1"
     showgrid="false"
     fit-margin-top="0"
     fit-margin-left="0"
     fit-margin-right="0"
     fit-margin-bottom="0"
     inkscape:window-width="451"
     inkscape:window-height="415"
     inkscape:window-x="125"
     inkscape:window-y="125"
     inkscape:window-maximized="0" />
  <metadata
     id="metadata6491">
    <rdf:RDF>
      <cc:Work
         rdf:about="">
        <dc:format>image/svg+xml</dc:format>
        <dc:type
           rdf:resource="http://purl.org/dc/dcmitype/StillImage" />
        <dc:title></dc:title>
      </cc:Work>
    </rdf:RDF>
  </metadata>
  <g
     inkscape:label="Layer 1"
     inkscape:groupmode="layer"
     id="layer1"
     transform="translate(-329.67959,-487.05129)">
    <g
       transform="matrix(1.25,0,0,-1.25,-248.72722,666.46856)"
       id="g4145">
      <g
         id="g4147"
         clip-path="url(#clipPath4149)">
        <g
           id="g4153"
           transform="translate(463.9394,109.6216)">
          <path
             inkscape:connector-curvature="0"
             d="m 0,0 32.701,32.699 c 1.287,1.287 3.384,1.287 4.672,0 L 70.072,0 c 1.287,-1.288 1.287,-3.385 0,-4.672 l -32.699,-32.7 c -1.288,-1.287 -3.385,-1.287 -4.672,0 L 0,-4.672 c -1.269,1.271 -1.271,3.4 0,4.672"
             style="fill:#f48412;fill-opacity:1;fill-rule:nonzero;stroke:none"
             id="path4155" />
        </g>
      </g>
    </g>
    <g
       transform="matrix(1.25,0,0,-1.25,-248.72722,666.46856)"
       id="g4157">
      <g
         id="g4159"
         clip-path="url(#clipPath4161)">
        <g
           id="g4165"
           transform="translate(463.9394,109.6216)">
          <path
             inkscape:connector-curvature="0"
             d="m 0,0 32.701,32.699 c 1.287,1.287 3.384,1.287 4.672,0 L 70.072,0 c 1.287,-1.288 1.287,-3.385 0,-4.672 l -32.699,-32.7 c -1.288,-1.287 -3.385,-1.287 -4.672,0 L 0,-4.672 c -1.269,1.271 -1.271,3.4 0,4.672"
             style="fill:none;stroke:#231f20;stroke-width:0.5;stroke-linecap:butt;stroke-linejoin:miter;stroke-miterlimit:4;stroke-opacity:1;stroke-dasharray:none"
             id="path4167" />
        </g>
      </g>
    </g>
    <g
       transform="matrix(1.25,0,0,-1.25,-248.72722,666.46856)"
       id="g4169">
      <g
         id="g4171"
         clip-path="url(#clipPath4173)">
        <g
           id="g4177"
           transform="translate(464.5964,108.9806)">
          <path
             inkscape:connector-curvature="0"
             d="m 0,0 32.684,32.684 c 0.928,0.925 2.463,0.923 3.391,0 L 68.757,0 c 0.927,-0.928 0.923,-2.461 0,-3.391 L 36.075,-36.072 c -0.93,-0.926 -2.461,-0.928 -3.391,0 L 0,-3.391 C -0.924,-2.461 -0.928,-0.928 0,0"
             style="fill:#231f20;fill-opacity:1;fill-rule:evenodd;stroke:none"
             id="path4179" />
        </g>
        <g
           id="g4181"
           transform="translate(465.5164,108.0835)">
          <path
             inkscape:connector-curvature="0"
             d="m 0,0 32.661,32.661 c 0.431,0.445 1.166,0.445 1.597,0 L 66.915,0 c 0.449,-0.431 0.449,-1.166 0,-1.597 L 34.258,-34.255 c -0.431,-0.448 -1.168,-0.448 -1.597,0 L 0,-1.597 C -0.446,-1.166 -0.446,-0.431 0,0"
             style="fill:#f48412;fill-opacity:1;fill-rule:evenodd;stroke:none"
             id="path4183" />
        </g>
        <g
           id="g4185"
           transform="translate(523.0304,110.5076)">
          <path
             inkscape:connector-curvature="0"
             d="M 0,0 C 0,-0.619 -0.359,-1.287 -0.875,-1.545 -1.287,-1.75 -1.543,-1.802 -2.263,-1.802 l -3.039,0 0,3.603 3.039,0 c 0.72,0 0.976,-0.051 1.388,-0.258 C -0.359,1.235 0,0.617 0,0 m 2.369,0 c 0,1.492 -0.978,3.037 -2.265,3.655 -0.721,0.361 -1.492,0.462 -2.678,0.462 l -5.045,0 0,-14.671 2.317,0 0,6.384 2.728,0 c 1.133,0 2.008,0.205 2.678,0.514 C 1.391,-3.09 2.369,-1.545 2.369,0 m -13.662,-10.554 0,14.671 -2.316,0 -3.399,-8.236 -3.396,8.236 -2.316,0 0,-14.671 2.316,0 0,8.494 3.396,-8.494 3.399,8.494 0,-8.494 2.316,0 z m -15.05,5.252 0,9.419 -2.317,0 0,-9.419 c 0,-1.905 -1.082,-3.141 -2.678,-3.141 -1.595,0 -2.675,1.236 -2.675,3.141 l 0,9.419 -2.317,0 0,-9.419 c 0,-1.133 0.256,-2.163 0.668,-3.038 0.774,-1.441 2.524,-2.48 4.324,-2.48 1.803,0 3.553,1.039 4.325,2.48 0.412,0.875 0.67,1.905 0.67,3.038 m -14.951,-1.184 c 0,-1.133 -0.617,-1.699 -1.8,-1.699 l -3.502,0 0,4.015 2.935,0 c 0.514,0 0.67,0 0.979,-0.103 0.822,-0.309 1.388,-1.236 1.388,-2.213 m -0.308,6.795 c 0,-0.67 -0.309,-1.287 -0.824,-1.699 -0.411,-0.309 -0.721,-0.412 -1.389,-0.412 l -2.781,0 0,3.603 3.398,0 c 1.029,0 1.596,-0.514 1.596,-1.492 m 2.677,-6.744 c 0,1.595 -0.875,2.832 -2.419,3.552 1.39,0.772 2.058,1.854 2.058,3.295 0,2.11 -1.75,3.705 -4.066,3.705 l -5.561,0 0,-14.671 5.561,0 c 0.67,0 1.545,0.154 2.058,0.361 1.391,0.566 2.369,2.162 2.369,3.758"
             style="fill:#231f20;fill-opacity:1;fill-rule:evenodd;stroke:none"
             id="path4187" />
        </g>
      </g>
    </g>
  </g>
</svg>
