<?xml version="1.0" encoding="UTF-8" standalone="no"?>
<!-- Created with Inkscape (http://www.inkscape.org/) -->

<svg
   xmlns:dc="http://purl.org/dc/elements/1.1/"
   xmlns:cc="http://creativecommons.org/ns#"
   xmlns:rdf="http://www.w3.org/1999/02/22-rdf-syntax-ns#"
   xmlns:svg="http://www.w3.org/2000/svg"
   xmlns="http://www.w3.org/2000/svg"
   xmlns:sodipodi="http://sodipodi.sourceforge.net/DTD/sodipodi-0.dtd"
   xmlns:inkscape="http://www.inkscape.org/namespaces/inkscape"
   width="90.606705"
   height="90.634895"
   id="svg5327"
   version="1.1"
   inkscape:version="0.48.3.1 r9886"
   sodipodi:docname="New document 26">
  <defs
     id="defs5329">
    <clipPath
       clipPathUnits="userSpaceOnUse"
       id="clipPath3601">
      <path
         inkscape:connector-curvature="0"
         d="m 66.989,151.194 509.011,0 0,586.806 -509.011,0 0,-586.806 z"
         id="path3603" />
    </clipPath>
  </defs>
  <sodipodi:namedview
     id="base"
     pagecolor="#ffffff"
     bordercolor="#666666"
     borderopacity="1.0"
     inkscape:pageopacity="0.0"
     inkscape:pageshadow="2"
     inkscape:zoom="0.35"
     inkscape:cx="45.293494"
     inkscape:cy="45.31343"
     inkscape:document-units="px"
     inkscape:current-layer="layer1"
     showgrid="false"
     fit-margin-top="0"
     fit-margin-left="0"
     fit-margin-right="0"
     fit-margin-bottom="0"
     inkscape:window-width="451"
     inkscape:window-height="415"
     inkscape:window-x="75"
     inkscape:window-y="75"
     inkscape:window-maximized="0" />
  <metadata
     id="metadata5332">
    <rdf:RDF>
      <cc:Work
         rdf:about="">
        <dc:format>image/svg+xml</dc:format>
        <dc:type
           rdf:resource="http://purl.org/dc/dcmitype/StillImage" />
        <dc:title></dc:title>
      </cc:Work>
    </rdf:RDF>
  </metadata>
  <g
     inkscape:label="Layer 1"
     inkscape:groupmode="layer"
     id="layer1"
     transform="translate(-329.70651,-487.04071)">
    <g
       transform="matrix(1.25,0,0,-1.25,245.91328,1074.0563)"
       id="g3597">
      <g
         id="g3599"
         clip-path="url(#clipPath3601)">
        <g
           id="g3605"
           transform="translate(105.605,398.3233)">
          <path
             inkscape:connector-curvature="0"
             d="m 0,0 c -1.29,-1.29 -3.382,-1.29 -4.672,0 l -32.696,32.696 c -1.29,1.29 -1.29,3.382 0,4.672 l 32.696,32.696 c 1.29,1.29 3.382,1.29 4.672,0 L 32.696,37.368 c 1.291,-1.29 1.291,-3.382 0,-4.672 L 0,0 z"
             style="fill:#f48412;fill-opacity:1;fill-rule:nonzero;stroke:none"
             id="path3607" />
        </g>
        <g
           id="g3609"
           transform="translate(105.605,398.3233)">
          <path
             inkscape:connector-curvature="0"
             d="m 0,0 c -1.29,-1.29 -3.382,-1.29 -4.672,0 l -32.696,32.696 c -1.29,1.29 -1.29,3.382 0,4.672 l 32.696,32.696 c 1.29,1.29 3.382,1.29 4.672,0 L 32.696,37.368 c 1.291,-1.29 1.291,-3.382 0,-4.672 L 0,0 z"
             style="fill:none;stroke:#231f20;stroke-width:0.5;stroke-linecap:butt;stroke-linejoin:miter;stroke-miterlimit:4;stroke-opacity:1;stroke-dasharray:none"
             id="path3611" />
        </g>
      </g>
    </g>
    <g
       id="g3621"
       transform="matrix(1.25,0,0,-1.25,375.97253,574.20843)">
      <path
         d="m 0,0 c -0.429,-0.428 -1.128,-0.428 -1.557,0 l -32.697,32.698 c -0.43,0.43 -0.43,1.129 0,1.557 l 32.697,32.698 c 0.429,0.428 1.128,0.428 1.557,0 L 32.698,34.255 c 0.429,-0.428 0.429,-1.127 0,-1.557 L 0,0 z M 33.632,35.189 0.935,67.887 c -0.945,0.944 -2.481,0.944 -3.426,0 L -35.189,35.189 c -0.944,-0.944 -0.944,-2.481 0,-3.425 L -2.491,-0.933 c 0.945,-0.945 2.481,-0.945 3.426,0 l 32.697,32.697 c 0.944,0.944 0.944,2.481 0,3.425"
         style="fill:#231f20;fill-opacity:1;fill-rule:nonzero;stroke:none"
         id="path3623"
         inkscape:connector-curvature="0" />
    </g>
    <g
       id="g3625"
       transform="matrix(1.25,0,0,-1.25,356.02991,519.84968)">
      <path
         d="m 0,0 -1.188,0 c -0.183,0.561 -0.49,0.843 -0.917,0.843 -0.479,0 -0.822,-0.4 -1.028,-1.2 -0.126,-0.497 -0.189,-1.075 -0.189,-1.736 0,-0.662 0.063,-1.241 0.19,-1.739 0.207,-0.798 0.55,-1.198 1.031,-1.198 0.339,0 0.604,0.194 0.794,0.582 0.132,0.269 0.2,0.532 0.2,0.786 l 0,0.222 -0.992,0 0,1.108 2.099,0 0,-1.443 c 0,-0.37 -0.102,-0.766 -0.303,-1.189 -0.364,-0.781 -0.965,-1.173 -1.799,-1.173 -0.957,0 -1.626,0.543 -2.006,1.625 -0.222,0.64 -0.333,1.446 -0.333,2.419 0,2.695 0.778,4.043 2.334,4.043 0.745,0 1.32,-0.326 1.726,-0.976 C -0.213,0.705 -0.086,0.38 0,0"
         style="fill:#231f20;fill-opacity:1;fill-rule:nonzero;stroke:none"
         id="path3627"
         inkscape:connector-curvature="0" />
    </g>
    <g
       id="g3629"
       transform="matrix(1.25,0,0,-1.25,362.17741,520.18468)">
      <path
         d="m 0,0 c 0,0.655 -0.275,0.999 -0.819,1.03 l -1.409,0 0,-2.061 1.409,0 C -0.275,-0.999 0,-0.656 0,0 m 1.105,-5.789 -1.15,0 -1.048,3.651 -1.135,0 0,-3.651 -1.106,0 0,7.927 2.457,0 C -0.454,2.101 -0.216,2.077 -0.162,2.067 0.202,1.982 0.487,1.808 0.693,1.542 0.969,1.189 1.105,0.673 1.105,-0.002 1.105,-0.98 0.737,-1.625 0.003,-1.936 l 1.102,-3.853 z"
         style="fill:#231f20;fill-opacity:1;fill-rule:nonzero;stroke:none"
         id="path3631"
         inkscape:connector-curvature="0" />
    </g>
    <g
       id="g3633"
       transform="matrix(1.25,0,0,-1.25,369.50878,522.46593)">
      <path
         d="m 0,0 c 0,0.676 -0.069,1.266 -0.207,1.77 -0.206,0.776 -0.549,1.166 -1.025,1.166 -0.477,0 -0.82,-0.39 -1.026,-1.166 C -2.396,1.266 -2.465,0.676 -2.465,0 c 0,-0.678 0.069,-1.268 0.207,-1.77 0.206,-0.778 0.549,-1.167 1.026,-1.167 0.476,0 0.819,0.389 1.025,1.167 C -0.069,-1.268 0,-0.678 0,0 m 1.106,0 c 0,-0.973 -0.11,-1.779 -0.333,-2.419 -0.38,-1.082 -1.048,-1.625 -2.005,-1.625 -0.957,0 -1.626,0.543 -2.006,1.625 -0.223,0.64 -0.334,1.446 -0.334,2.419 0,2.695 0.78,4.043 2.34,4.043 1.559,0 2.338,-1.348 2.338,-4.043"
         style="fill:#231f20;fill-opacity:1;fill-rule:nonzero;stroke:none"
         id="path3635"
         inkscape:connector-curvature="0" />
    </g>
    <g
       id="g3637"
       transform="matrix(1.25,0,0,-1.25,377.13953,522.46593)">
      <path
         d="M 0,0 C 0,0.676 -0.069,1.266 -0.208,1.77 -0.414,2.546 -0.756,2.936 -1.233,2.936 -1.71,2.936 -2.052,2.546 -2.26,1.77 -2.396,1.266 -2.466,0.676 -2.466,0 c 0,-0.678 0.07,-1.268 0.206,-1.77 0.208,-0.778 0.55,-1.167 1.027,-1.167 0.477,0 0.819,0.389 1.025,1.167 C -0.069,-1.268 0,-0.678 0,0 m 1.105,0 c 0,-0.973 -0.11,-1.779 -0.332,-2.419 -0.38,-1.082 -1.05,-1.625 -2.006,-1.625 -0.957,0 -1.626,0.543 -2.007,1.625 -0.222,0.64 -0.333,1.446 -0.333,2.419 0,2.695 0.78,4.043 2.34,4.043 1.559,0 2.338,-1.348 2.338,-4.043"
         style="fill:#231f20;fill-opacity:1;fill-rule:nonzero;stroke:none"
         id="path3639"
         inkscape:connector-curvature="0" />
    </g>
    <g
       id="g3641"
       transform="matrix(1.25,0,0,-1.25,385.85653,517.51218)">
      <path
         d="m 0,0 -1.926,-7.927 -1.061,0 L -4.914,0 -3.781,0 -2.457,-5.47 -1.133,0 0,0 z"
         style="fill:#231f20;fill-opacity:1;fill-rule:nonzero;stroke:none"
         id="path3643"
         inkscape:connector-curvature="0" />
    </g>
    <g
       id="g3645"
       transform="matrix(1.25,0,0,-1.25,392.29328,527.42843)">
      <path
         d="m 0,0 -4.043,0.006 0,7.927 4.043,0 0,-1.108 -2.936,0 0,-2.061 1.747,0 0,-1.107 -1.747,0 0,-2.543 L 0,1.114 0,0 z"
         style="fill:#231f20;fill-opacity:1;fill-rule:nonzero;stroke:none"
         id="path3647"
         inkscape:connector-curvature="0" />
    </g>
    <g
       id="g3649"
       transform="matrix(1.25,0,0,-1.25,398.14415,522.47093)">
      <path
         d="m 0,0 c 0,1.907 -0.451,2.859 -1.352,2.859 l -0.874,0 0,-5.719 0.874,0 C -0.451,-2.86 0,-1.906 0,0 m 1.106,0.004 c 0,-1.584 -0.311,-2.707 -0.934,-3.368 -0.381,-0.402 -0.831,-0.602 -1.35,-0.602 l -0.173,0 -1.982,0 0,7.933 2.069,0 c 0.518,0 0.962,-0.169 1.332,-0.508 C 0.761,2.825 1.106,1.674 1.106,0.004"
         style="fill:#231f20;fill-opacity:1;fill-rule:nonzero;stroke:none"
         id="path3651"
         inkscape:connector-curvature="0" />
    </g>
    <g
       id="g3653"
       transform="matrix(1.25,0,0,-1.25,351.47303,535.20594)">
      <path
         d="m 0,0 c 0,0.692 -0.273,1.078 -0.819,1.158 l -1.408,0 0,-2.301 1.408,0 C -0.273,-1.116 0,-0.736 0,0 m 1.107,0 c 0,-0.929 -0.328,-1.582 -0.984,-1.957 -0.339,-0.195 -0.672,-0.293 -1,-0.293 l -1.35,0 0,-3.413 -1.107,0 0,7.928 2.458,0 c 0.333,0 0.667,-0.096 1,-0.286 C 0.779,1.604 1.107,0.944 1.107,0"
         style="fill:#231f20;fill-opacity:1;fill-rule:nonzero;stroke:none"
         id="path3655"
         inkscape:connector-curvature="0" />
    </g>
    <g
       id="g3657"
       transform="matrix(1.25,0,0,-1.25,357.99141,538.22468)">
      <path
         d="M 0,0 -0.617,2.579 -1.244,0 0,0 z m 1.919,-3.248 -1.134,0 -0.515,2.141 -1.784,0 -0.514,-2.141 -1.126,0 1.919,7.928 1.235,0 1.919,-7.928 z"
         style="fill:#231f20;fill-opacity:1;fill-rule:nonzero;stroke:none"
         id="path3659"
         inkscape:connector-curvature="0" />
    </g>
    <g
       id="g3661"
       transform="matrix(1.25,0,0,-1.25,367.12841,532.37468)">
      <path
         d="m 0,0 -1.926,-7.928 -1.063,0 L -4.915,0 -3.781,0 -2.458,-5.47 -1.134,0 0,0 z"
         style="fill:#231f20;fill-opacity:1;fill-rule:nonzero;stroke:none"
         id="path3663"
         inkscape:connector-curvature="0" />
    </g>
    <g
       id="g3665"
       transform="matrix(1.25,0,0,-1.25,373.56403,542.29219)">
      <path
         d="m 0,0 -4.043,0.006 0,7.928 4.043,0 0,-1.107 -2.936,0 0,-2.062 1.747,0 0,-1.107 -1.747,0 0,-2.545 L 0,1.113 0,0 z"
         style="fill:#231f20;fill-opacity:1;fill-rule:nonzero;stroke:none"
         id="path3667"
         inkscape:connector-curvature="0" />
    </g>
    <g
       id="g3669"
       transform="matrix(1.25,0,0,-1.25,381.78553,542.28469)">
      <path
         d="m 0,0 -1.107,0 0,4.439 L -2.616,0 -4.123,4.439 -4.123,0 -5.23,0 l 0,7.928 1.11,0 1.507,-4.44 1.506,4.44 L 0,7.928 0,0 z"
         style="fill:#231f20;fill-opacity:1;fill-rule:nonzero;stroke:none"
         id="path3671"
         inkscape:connector-curvature="0" />
    </g>
    <g
       id="g3673"
       transform="matrix(1.25,0,0,-1.25,389.02053,542.29219)">
      <path
         d="m 0,0 -4.042,0.006 0,7.928 4.042,0 0,-1.107 -2.936,0 0,-2.062 1.747,0 0,-1.107 -1.747,0 0,-2.545 L 0,1.113 0,0 z"
         style="fill:#231f20;fill-opacity:1;fill-rule:nonzero;stroke:none"
         id="path3675"
         inkscape:connector-curvature="0" />
    </g>
    <g
       id="g3677"
       transform="matrix(1.25,0,0,-1.25,396.2569,542.28469)">
      <path
         d="m 0,0 -1.107,0 -2.227,5.129 0,-5.129 -1.107,0 0,7.928 1.109,0 2.22,-5.122 0.005,5.122 L 0,7.928 0,0 z"
         style="fill:#231f20;fill-opacity:1;fill-rule:nonzero;stroke:none"
         id="path3679"
         inkscape:connector-curvature="0" />
    </g>
    <g
       id="g3681"
       transform="matrix(1.25,0,0,-1.25,402.69978,533.75844)">
      <path
         d="m 0,0 -1.468,0 0,-6.821 -1.106,0 0,6.821 -1.469,0 0,1.107 L 0,1.107 0,0 z"
         style="fill:#231f20;fill-opacity:1;fill-rule:nonzero;stroke:none"
         id="path3683"
         inkscape:connector-curvature="0" />
    </g>
  </g>
</svg>
