<?xml version="1.0" encoding="UTF-8" standalone="no"?>
<!-- Created with Inkscape (http://www.inkscape.org/) -->

<svg
   xmlns:dc="http://purl.org/dc/elements/1.1/"
   xmlns:cc="http://creativecommons.org/ns#"
   xmlns:rdf="http://www.w3.org/1999/02/22-rdf-syntax-ns#"
   xmlns:svg="http://www.w3.org/2000/svg"
   xmlns="http://www.w3.org/2000/svg"
   xmlns:sodipodi="http://sodipodi.sourceforge.net/DTD/sodipodi-0.dtd"
   xmlns:inkscape="http://www.inkscape.org/namespaces/inkscape"
   width="110.15625"
   height="159.74687"
   id="svg6136"
   version="1.1"
   inkscape:version="0.48.3.1 r9886"
   sodipodi:docname="New document 37">
  <defs
     id="defs6138" />
  <sodipodi:namedview
     id="base"
     pagecolor="#ffffff"
     bordercolor="#666666"
     borderopacity="1.0"
     inkscape:pageopacity="0.0"
     inkscape:pageshadow="2"
     inkscape:zoom="0.35"
     inkscape:cx="55.078442"
     inkscape:cy="79.879685"
     inkscape:document-units="px"
     inkscape:current-layer="layer1"
     showgrid="false"
     fit-margin-top="0"
     fit-margin-left="0"
     fit-margin-right="0"
     fit-margin-bottom="0"
     inkscape:window-width="451"
     inkscape:window-height="415"
     inkscape:window-x="125"
     inkscape:window-y="125"
     inkscape:window-maximized="0" />
  <metadata
     id="metadata6141">
    <rdf:RDF>
      <cc:Work
         rdf:about="">
        <dc:format>image/svg+xml</dc:format>
        <dc:type
           rdf:resource="http://purl.org/dc/dcmitype/StillImage" />
        <dc:title></dc:title>
      </cc:Work>
    </rdf:RDF>
  </metadata>
  <g
     inkscape:label="Layer 1"
     inkscape:groupmode="layer"
     id="layer1"
     transform="translate(-319.92156,-452.49499)">
    <g
       id="g3105"
       transform="matrix(1.25,0,0,-1.25,407.88312,607.90593)">
      <path
         d="m 0,0 c 0,-1.775 -1.442,-3.216 -3.217,-3.216 l -45.036,0 c -1.776,0 -3.217,1.441 -3.217,3.216 l 0,32.167 c 0,1.777 1.441,3.514 3.217,3.217 l 45.036,0 C -1.442,35.681 0,33.944 0,32.167 L 0,0 z"
         style="fill:#f48412;fill-opacity:1;fill-rule:nonzero;stroke:none"
         id="path3107"
         inkscape:connector-curvature="0" />
    </g>
    <g
       id="g3109"
       transform="matrix(1.25,0,0,-1.25,407.88312,607.90593)">
      <path
         d="m 0,0 c 0,-1.775 -1.442,-3.216 -3.217,-3.216 l -45.036,0 c -1.776,0 -3.217,1.441 -3.217,3.216 l 0,32.167 c 0,1.777 1.441,3.514 3.217,3.217 l 45.036,0 C -1.442,35.681 0,33.944 0,32.167 L 0,0 z"
         style="fill:none;stroke:#231f20;stroke-width:0.5;stroke-linecap:butt;stroke-linejoin:miter;stroke-miterlimit:4;stroke-opacity:1;stroke-dasharray:none"
         id="path3111"
         inkscape:connector-curvature="0" />
    </g>
    <g
       id="g3113"
       transform="matrix(1.25,0,0,-1.25,405.20188,607.90593)">
      <path
         d="m 0,0 c 0,-0.589 -0.48,-1.072 -1.072,-1.072 l -45.036,0 c -0.592,0 -1.071,0.483 -1.071,1.072 l 0,32.167 c 0,0.592 0.479,1.072 1.071,1.072 l 45.036,0 C -0.48,33.239 0,32.759 0,32.167 L 0,0 z m -1.072,34.579 -45.036,0 c -1.329,0 -2.412,-1.083 -2.412,-2.412 L -48.52,0 c 0,-1.33 1.083,-2.412 2.412,-2.412 l 45.036,0 c 1.33,0 2.412,1.082 2.412,2.412 l 0,32.167 c 0,1.329 -1.082,2.412 -2.412,2.412"
         style="fill:#231f20;fill-opacity:1;fill-rule:nonzero;stroke:none"
         id="path3115"
         inkscape:connector-curvature="0" />
    </g>
    <g
       id="g3117"
       transform="matrix(1.25,0,0,-1.25,355.16313,581.21844)">
      <path
         d="m 0,0 c 0,-0.531 -0.136,-0.988 -0.412,-1.375 -0.356,-0.5 -0.882,-0.75 -1.574,-0.75 -0.782,0 -1.363,0.25 -1.749,0.75 -0.309,0.397 -0.464,0.895 -0.464,1.494 l 1.048,0 c 0,-0.435 0.14,-0.758 0.415,-0.969 0.205,-0.15 0.455,-0.224 0.75,-0.224 0.6,0 0.898,0.357 0.898,1.072 0,0.561 -0.243,1.02 -0.727,1.375 -0.45,0.279 -0.903,0.557 -1.358,0.832 -0.485,0.375 -0.729,0.865 -0.729,1.471 0,0.396 0.111,0.757 0.329,1.087 0.341,0.512 0.888,0.766 1.638,0.766 0.791,0 1.349,-0.294 1.679,-0.884 C -0.119,4.4 -0.036,4.102 0,3.752 l -1.05,0 c 0,0.125 -0.041,0.25 -0.127,0.375 -0.151,0.236 -0.404,0.354 -0.758,0.354 -0.606,0 -0.908,-0.268 -0.908,-0.803 0,-0.295 0.244,-0.592 0.733,-0.887 0.732,-0.43 1.191,-0.734 1.374,-0.916 C -0.247,1.391 0,0.766 0,0"
         style="fill:#231f20;fill-opacity:1;fill-rule:nonzero;stroke:none"
         id="path3119"
         inkscape:connector-curvature="0" />
    </g>
    <g
       id="g3121"
       transform="matrix(1.25,0,0,-1.25,361.73424,583.78218)">
      <path
         d="m 0,0 -1.048,0 0,3.455 -2.099,0 0,-3.455 -1.051,0 0,7.507 1.051,0 0,-3.001 2.099,0 0,3.001 L 0,7.507 0,0 z"
         style="fill:#231f20;fill-opacity:1;fill-rule:nonzero;stroke:none"
         id="path3123"
         inkscape:connector-curvature="0" />
    </g>
    <g
       id="g3125"
       transform="matrix(1.25,0,0,-1.25,367.55313,579.08968)">
      <path
         d="m 0,0 c 0,0.641 -0.064,1.197 -0.195,1.674 -0.195,0.734 -0.519,1.104 -0.97,1.104 -0.453,0 -0.774,-0.37 -0.97,-1.104 C -2.265,1.197 -2.331,0.641 -2.331,0 c 0,-0.64 0.066,-1.199 0.196,-1.674 0.196,-0.736 0.517,-1.103 0.97,-1.103 0.451,0 0.775,0.367 0.97,1.103 C -0.064,-1.199 0,-0.64 0,0 m 1.051,0 c 0,-0.922 -0.106,-1.683 -0.316,-2.289 -0.36,-1.025 -0.995,-1.539 -1.9,-1.539 -0.908,0 -1.541,0.514 -1.899,1.539 -0.212,0.606 -0.316,1.367 -0.316,2.289 0,2.551 0.737,3.826 2.215,3.826 1.477,0 2.216,-1.275 2.216,-3.826"
         style="fill:#231f20;fill-opacity:1;fill-rule:nonzero;stroke:none"
         id="path3127"
         inkscape:connector-curvature="0" />
    </g>
    <g
       id="g3129"
       transform="matrix(1.25,0,0,-1.25,375.71438,581.24719)">
      <path
         d="m 0,0 c 0,-0.58 -0.202,-1.077 -0.61,-1.487 -0.408,-0.41 -0.904,-0.615 -1.489,-0.615 -0.581,0 -1.074,0.205 -1.485,0.615 -0.409,0.41 -0.614,0.907 -0.614,1.487 l 0,5.479 1.05,0 0,-5.479 c 0,-0.291 0.1,-0.539 0.303,-0.745 0.202,-0.205 0.451,-0.306 0.746,-0.306 0.285,0 0.531,0.101 0.739,0.306 0.208,0.206 0.312,0.454 0.312,0.745 l 0,5.479 L 0,5.479 0,0 z"
         style="fill:#231f20;fill-opacity:1;fill-rule:nonzero;stroke:none"
         id="path3131"
         inkscape:connector-curvature="0" />
    </g>
    <g
       id="g3133"
       transform="matrix(1.25,0,0,-1.25,382.28813,583.78218)">
      <path
         d="m 0,0 -3.828,0 0,7.507 1.05,0 0,-6.456 L 0,1.051 0,0 z"
         style="fill:#231f20;fill-opacity:1;fill-rule:nonzero;stroke:none"
         id="path3135"
         inkscape:connector-curvature="0" />
    </g>
    <g
       id="g3137"
       transform="matrix(1.25,0,0,-1.25,387.25562,579.09468)">
      <path
         d="m 0,0 c 0,1.805 -0.424,2.708 -1.274,2.708 l -0.826,0 0,-5.415 0.826,0 C -0.424,-2.707 0,-1.804 0,0 m 1.051,0.004 c 0,-1.502 -0.295,-2.564 -0.885,-3.189 -0.36,-0.381 -0.785,-0.571 -1.276,-0.571 l -0.164,0 -1.874,0 0,7.513 1.956,0 c 0.491,0 0.911,-0.161 1.26,-0.481 0.654,-0.6 0.983,-1.692 0.983,-3.272"
         style="fill:#231f20;fill-opacity:1;fill-rule:nonzero;stroke:none"
         id="path3139"
         inkscape:connector-curvature="0" />
    </g>
    <g
       id="g3141"
       transform="matrix(1.25,0,0,-1.25,394.95312,583.78968)">
      <path
         d="m 0,0 -3.828,0.006 0,7.507 3.828,0 0,-1.049 -2.777,0 0,-1.952 1.652,0 0,-1.051 -1.652,0 0,-2.404 L 0,1.057 0,0 z"
         style="fill:#231f20;fill-opacity:1;fill-rule:nonzero;stroke:none"
         id="path3143"
         inkscape:connector-curvature="0" />
    </g>
    <g
       id="g3145"
       transform="matrix(1.25,0,0,-1.25,400.20425,576.93094)">
      <path
         d="m 0,0 c 0,0.621 -0.258,0.945 -0.773,0.977 l -1.328,0 0,-1.952 1.328,0 C -0.258,-0.946 0,-0.619 0,0 m 1.049,-5.481 -1.088,0 -0.99,3.455 -1.072,0 0,-3.455 -1.049,0 0,7.507 2.324,0 C -0.426,1.99 -0.201,1.969 -0.15,1.959 0.194,1.878 0.465,1.713 0.658,1.463 0.918,1.127 1.049,0.64 1.049,0 1.049,-0.926 0.703,-1.537 0.01,-1.832 l 1.039,-3.649 z"
         style="fill:#231f20;fill-opacity:1;fill-rule:nonzero;stroke:none"
         id="path3147"
         inkscape:connector-curvature="0" />
    </g>
    <g
       id="g3149"
       transform="matrix(1.25,0,0,-1.25,355.87437,596.51594)">
      <path
         d="m 0,0 c 0,1.804 -0.426,2.705 -1.276,2.705 l -0.824,0 0,-5.412 0.824,0 C -0.426,-2.707 0,-1.805 0,0 m 1.05,0.002 c 0,-1.5 -0.295,-2.563 -0.887,-3.188 -0.359,-0.381 -0.782,-0.572 -1.273,-0.572 l -0.166,0 -1.875,0 0,7.514 1.957,0 c 0.49,0 0.911,-0.161 1.261,-0.481 C 0.721,2.676 1.05,1.584 1.05,0.002"
         style="fill:#231f20;fill-opacity:1;fill-rule:nonzero;stroke:none"
         id="path3151"
         inkscape:connector-curvature="0" />
    </g>
    <g
       id="g3153"
       transform="matrix(1.25,0,0,-1.25,362.72187,594.35343)">
      <path
         d="m 0,0 c 0,0.621 -0.258,0.946 -0.771,0.975 l -1.328,0 0,-1.949 1.328,0 C -0.258,-0.945 0,-0.619 0,0 m 1.051,-5.48 -1.088,0 -0.991,3.455 -1.071,0 0,-3.455 -1.05,0 0,7.506 2.325,0 C -0.424,1.99 -0.199,1.969 -0.149,1.959 0.196,1.879 0.464,1.713 0.659,1.463 0.92,1.127 1.051,0.641 1.051,0 1.051,-0.926 0.703,-1.537 0.012,-1.832 L 1.051,-5.48 z"
         style="fill:#231f20;fill-opacity:1;fill-rule:nonzero;stroke:none"
         id="path3155"
         inkscape:connector-curvature="0" />
    </g>
    <g
       id="g3157"
       transform="matrix(1.25,0,0,-1.25,369.38188,596.51344)">
      <path
         d="M 0,0 C 0,0.64 -0.065,1.199 -0.195,1.674 -0.39,2.41 -0.713,2.779 -1.165,2.779 -1.615,2.779 -1.94,2.41 -2.135,1.674 -2.264,1.199 -2.331,0.64 -2.331,0 c 0,-0.639 0.067,-1.198 0.196,-1.672 0.195,-0.737 0.52,-1.104 0.97,-1.104 0.452,0 0.775,0.367 0.97,1.104 C -0.065,-1.198 0,-0.639 0,0 m 1.051,0 c 0,-0.922 -0.106,-1.682 -0.315,-2.287 -0.361,-1.026 -0.993,-1.539 -1.901,-1.539 -0.905,0 -1.538,0.513 -1.9,1.539 -0.211,0.605 -0.313,1.365 -0.313,2.287 0,2.552 0.738,3.828 2.213,3.828 1.478,0 2.216,-1.276 2.216,-3.828"
         style="fill:#231f20;fill-opacity:1;fill-rule:nonzero;stroke:none"
         id="path3159"
         inkscape:connector-curvature="0" />
    </g>
    <g
       id="g3161"
       transform="matrix(1.25,0,0,-1.25,376.233,594.50219)">
      <path
         d="m 0,0 c 0,0.654 -0.258,1.02 -0.772,1.094 l -1.328,0 0,-2.174 1.328,0 C -0.258,-1.055 0,-0.695 0,0 m 1.051,0 c 0,-0.879 -0.311,-1.498 -0.93,-1.851 -0.32,-0.186 -0.638,-0.278 -0.945,-0.278 l -1.276,0 0,-3.232 -1.05,0 0,7.506 2.326,0 c 0.314,0 0.629,-0.09 0.945,-0.27 C 0.74,1.52 1.051,0.895 1.051,0"
         style="fill:#231f20;fill-opacity:1;fill-rule:nonzero;stroke:none"
         id="path3163"
         inkscape:connector-curvature="0" />
    </g>
    <path
       d="m 381.67588,597.54631 -3.28625,0 0,-1.3125 3.28625,0 0,1.3125 z"
       style="fill:#231f20;fill-opacity:1;fill-rule:nonzero;stroke:none"
       id="path3165"
       inkscape:connector-curvature="0" />
    <g
       id="g3167"
       transform="matrix(1.25,0,0,-1.25,386.74049,596.51344)">
      <path
         d="M 0,0 C 0,0.64 -0.067,1.199 -0.196,1.674 -0.391,2.41 -0.715,2.779 -1.166,2.779 -1.618,2.779 -1.939,2.41 -2.135,1.674 -2.265,1.199 -2.332,0.64 -2.332,0 c 0,-0.639 0.067,-1.198 0.197,-1.672 0.196,-0.737 0.517,-1.104 0.969,-1.104 0.451,0 0.775,0.367 0.97,1.104 C -0.067,-1.198 0,-0.639 0,0 m 1.048,0 c 0,-0.922 -0.103,-1.682 -0.314,-2.287 -0.361,-1.026 -0.994,-1.539 -1.9,-1.539 -0.906,0 -1.54,0.513 -1.901,1.539 -0.209,0.605 -0.314,1.365 -0.314,2.287 0,2.552 0.738,3.828 2.215,3.828 C 0.31,3.828 1.048,2.552 1.048,0"
         style="fill:#231f20;fill-opacity:1;fill-rule:nonzero;stroke:none"
         id="path3169"
         inkscape:connector-curvature="0" />
    </g>
    <g
       id="g3171"
       transform="matrix(1.25,0,0,-1.25,394.43813,593.13468)">
      <path
         d="m 0,0 -2.779,0 0,-1.949 1.652,0 0,-1.051 -1.652,0 0,-3.455 -1.049,0 0,7.506 L 0,1.051 0,0 z"
         style="fill:#231f20;fill-opacity:1;fill-rule:nonzero;stroke:none"
         id="path3173"
         inkscape:connector-curvature="0" />
    </g>
    <g
       id="g3175"
       transform="matrix(1.25,0,0,-1.25,400.25312,593.13468)">
      <path
         d="m 0,0 -2.777,0 0,-1.949 1.652,0 0,-1.051 -1.652,0 0,-3.455 -1.051,0 0,7.506 L 0,1.051 0,0 z"
         style="fill:#231f20;fill-opacity:1;fill-rule:nonzero;stroke:none"
         id="path3177"
         inkscape:connector-curvature="0" />
    </g>
    <g
       id="g4257"
       transform="matrix(1.25,0,0,-1.25,378.55437,560.89343)">
      <path
         d="m 0,0 c -0.786,-0.785 -1.813,-1.179 -2.843,-1.179 -1.03,0 -2.059,0.394 -2.843,1.179 L -25.59,19.902 -45.493,39.805 c -0.786,0.786 -1.177,1.815 -1.177,2.845 0,1.028 0.391,2.058 1.177,2.842 l 19.903,19.903 19.904,19.904 c 0.784,0.784 1.813,1.177 2.843,1.177 1.03,0 2.057,-0.393 2.843,-1.177 L 19.903,65.395 39.806,45.492 c 0.785,-0.784 1.177,-1.814 1.177,-2.842 0,-1.03 -0.392,-2.059 -1.177,-2.845 L 19.903,19.902 0,0 z"
         style="fill:#f48412;fill-opacity:1;fill-rule:nonzero;stroke:none"
         id="path4259"
         inkscape:connector-curvature="0" />
    </g>
    <g
       id="g4261"
       transform="matrix(1.25,0,0,-1.25,378.55437,560.89343)">
      <path
         d="m 0,0 c -0.786,-0.785 -1.813,-1.179 -2.843,-1.179 -1.03,0 -2.059,0.394 -2.843,1.179 L -25.59,19.902 -45.493,39.805 c -0.786,0.786 -1.177,1.815 -1.177,2.845 0,1.028 0.391,2.058 1.177,2.842 l 19.903,19.903 19.904,19.904 c 0.784,0.784 1.813,1.177 2.843,1.177 1.03,0 2.057,-0.393 2.843,-1.177 L 19.903,65.395 39.806,45.492 c 0.785,-0.784 1.177,-1.814 1.177,-2.842 0,-1.03 -0.392,-2.059 -1.177,-2.845 L 19.903,19.902 0,0 z"
         style="fill:none;stroke:#231f20;stroke-width:0.5;stroke-linecap:butt;stroke-linejoin:miter;stroke-miterlimit:4;stroke-opacity:1;stroke-dasharray:none"
         id="path4263"
         inkscape:connector-curvature="0" />
    </g>
    <g
       id="g4265"
       transform="matrix(1.25,0,0,-1.25,376.18438,558.52593)">
      <path
         d="M 0,0 C -0.522,-0.522 -1.372,-0.522 -1.895,0 L -41.7,39.806 c -0.523,0.525 -0.523,1.375 0,1.897 L -1.895,81.51 c 0.523,0.522 1.373,0.522 1.895,0 L 39.806,41.703 c 0.523,-0.522 0.523,-1.372 0,-1.897 L 0,0 z M 40.945,42.839 1.139,82.646 c -1.151,1.149 -3.022,1.149 -4.171,0 L -42.839,42.839 c -1.15,-1.149 -1.15,-3.018 0,-4.169 L -3.032,-1.135 c 1.149,-1.151 3.02,-1.151 4.171,0 L 40.945,38.67 c 1.149,1.151 1.149,3.02 0,4.169"
         style="fill:#231f20;fill-opacity:1;fill-rule:nonzero;stroke:none"
         id="path4267"
         inkscape:connector-curvature="0" />
    </g>
    <g
       id="g4269"
       transform="matrix(1.25,0,0,-1.25,383.69062,522.65469)">
      <path
         d="m 0,0 0,6.696 -40.259,0 8.578,-8.577 49.458,0 L 19.657,0 0,0 z"
         style="fill:#231f20;fill-opacity:1;fill-rule:nonzero;stroke:none"
         id="path4271"
         inkscape:connector-curvature="0" />
    </g>
    <g
       id="g4273"
       transform="matrix(1.25,0,0,-1.25,371.48687,489.39593)">
      <path
         d="m 0,0 c -0.004,0.211 0.029,0.423 -0.06,0.625 -0.09,0.208 -0.177,0.394 -0.368,0.533 -0.174,0.129 -0.342,0.238 -0.561,0.278 -0.217,0.037 -0.457,0.077 -0.632,0.222 -0.164,0.137 -0.302,0.262 -0.424,0.44 -0.114,0.159 0.128,0.35 0.231,0.441 0.123,0.108 0.283,0.294 0.312,0.46 0.019,0.106 0.01,0.208 0.05,0.311 0.037,0.094 0.096,0.176 0.129,0.274 0.071,0.202 0.012,0.407 0.061,0.605 0.047,0.188 0.103,0.365 0.084,0.568 C -1.218,5.225 -1.453,5.51 -1.799,5.798 -2.425,6.319 -3.663,6.083 -4.068,5.378 -4.296,4.984 -4.404,4.563 -4.409,4.106 -4.413,3.672 -4.18,3.272 -4.184,2.856 -4.185,2.785 -4.159,2.628 -4.19,2.565 -4.239,2.468 -4.345,2.534 -4.436,2.573 -4.587,2.643 -4.873,2.646 -5.031,2.6 -5.218,2.542 -5.412,2.502 -5.611,2.539 -5.806,2.573 -5.988,2.72 -6.185,2.725 -6.978,2.751 -7.484,2.197 -7.616,1.446 L -9.301,1.743 -8.035,7.192 14.792,3.179 14.194,-2.496 0,0 z m 16.271,-13.684 c -0.016,0.101 -0.045,0.195 -0.068,0.294 -0.014,0.058 0.106,0.229 0.131,0.294 0.179,0.443 0.148,0.842 0,1.287 -0.054,0.165 0.037,0.449 0.086,0.614 0.04,0.145 0.061,0.291 0.087,0.436 0.176,0.993 0.356,1.983 0.498,2.979 0.117,0.822 0.213,1.689 -0.065,2.485 -0.142,0.413 -0.386,0.744 -0.682,1.059 -0.089,0.093 -0.149,0.108 -0.143,0.227 0.005,0.132 0.011,0.263 0.017,0.395 0.055,1.172 0.105,2.347 0.158,3.52 0.05,1.107 0.1,2.214 0.15,3.324 0.011,0.253 0.011,0.451 -0.063,0.699 -0.124,0.42 -0.532,0.711 -0.941,0.81 C 15.15,4.811 -6.208,8.545 -7.843,8.833 -8.262,8.907 -8.706,8.984 -9.087,8.717 -9.347,8.537 -9.531,8.317 -9.626,8.012 -9.734,7.664 -9.843,7.315 -9.951,6.965 c -0.636,-2.043 -1.27,-4.086 -1.906,-6.132 -0.024,-0.077 -0.37,-0.159 -0.448,-0.214 -0.169,-0.12 -0.358,-0.222 -0.509,-0.365 -0.327,-0.305 -0.522,-0.67 -0.72,-1.064 -0.178,-0.354 -0.277,-0.801 -0.361,-1.19 -0.093,-0.439 -0.176,-0.882 -0.269,-1.323 -0.189,-0.905 -0.314,-1.821 -0.474,-2.728 -0.012,-0.074 -0.004,-0.188 -0.029,-0.254 -0.03,-0.086 -0.16,-0.182 -0.214,-0.262 -0.129,-0.186 -0.206,-0.383 -0.246,-0.606 -0.04,-0.227 -0.034,-0.441 0.009,-0.667 0.015,-0.071 -0.103,-0.157 -0.139,-0.222 -0.055,-0.103 -0.099,-0.201 -0.138,-0.314 -0.083,-0.249 -0.083,-0.517 -0.008,-0.768 0.037,-0.123 0.093,-0.203 0.074,-0.334 -0.025,-0.171 -0.052,-0.339 -0.077,-0.51 l 2.12,-0.357 -0.554,-3.218 c 0,-0.685 0.625,-1.335 1.207,-1.592 0.133,-0.058 0.382,-0.123 0.565,-0.155 0.181,-0.034 0.438,-0.056 0.582,-0.048 0.695,0.048 1.544,0.334 1.677,1.085 l 0.566,3.217 18.827,-3.309 -0.566,-3.218 c -0.13,-0.754 0.57,-1.31 1.207,-1.593 0.132,-0.056 0.381,-0.122 0.563,-0.153 0.183,-0.032 0.44,-0.058 0.583,-0.046 0.637,0.043 1.445,0.439 1.68,1.084 l 0.573,3.198 2.131,-0.374 c 0.02,0.109 0.04,0.217 0.059,0.325 0.018,0.104 0.012,0.247 0.086,0.327 0.146,0.15 0.25,0.316 0.318,0.512 0.071,0.212 0.085,0.4 0.053,0.619"
         style="fill:#231f20;fill-opacity:1;fill-rule:nonzero;stroke:none"
         id="path4275"
         inkscape:connector-curvature="0" />
    </g>
    <g
       id="g4277"
       transform="matrix(1.25,0,0,-1.25,361.11937,482.61968)">
      <path
         d="m 0,0 -0.162,-0.696 1.475,-2.04 c 0.161,0.091 0.342,0.151 0.537,0.177 L 0,0 z"
         style="fill:#231f20;fill-opacity:1;fill-rule:nonzero;stroke:none"
         id="path4279"
         inkscape:connector-curvature="0" />
    </g>
  </g>
</svg>
