<?xml version="1.0" encoding="UTF-8" standalone="no"?>
<!-- Created with Inkscape (http://www.inkscape.org/) -->

<svg
   xmlns:dc="http://purl.org/dc/elements/1.1/"
   xmlns:cc="http://creativecommons.org/ns#"
   xmlns:rdf="http://www.w3.org/1999/02/22-rdf-syntax-ns#"
   xmlns:svg="http://www.w3.org/2000/svg"
   xmlns="http://www.w3.org/2000/svg"
   xmlns:sodipodi="http://sodipodi.sourceforge.net/DTD/sodipodi-0.dtd"
   xmlns:inkscape="http://www.inkscape.org/namespaces/inkscape"
   width="90.622772"
   height="90.631668"
   id="svg4311"
   version="1.1"
   inkscape:version="0.48.3.1 r9886"
   sodipodi:docname="New document 4">
  <defs
     id="defs4313">
    <clipPath
       clipPathUnits="userSpaceOnUse"
       id="clipPath3207">
      <path
         inkscape:connector-curvature="0"
         d="m 63,56.527 513,0 L 576,738 63,738 63,56.527 z"
         id="path3209" />
    </clipPath>
    <clipPath
       clipPathUnits="userSpaceOnUse"
       id="clipPath3195">
      <path
         inkscape:connector-curvature="0"
         d="m 66.989,151.194 509.011,0 0,586.806 -509.011,0 0,-586.806 z"
         id="path3197" />
    </clipPath>
  </defs>
  <sodipodi:namedview
     id="base"
     pagecolor="#ffffff"
     bordercolor="#666666"
     borderopacity="1.0"
     inkscape:pageopacity="0.0"
     inkscape:pageshadow="2"
     inkscape:zoom="0.35"
     inkscape:cx="45.318514"
     inkscape:cy="45.322955"
     inkscape:document-units="px"
     inkscape:current-layer="layer1"
     showgrid="false"
     fit-margin-top="0"
     fit-margin-left="0"
     fit-margin-right="0"
     fit-margin-bottom="0"
     inkscape:window-width="451"
     inkscape:window-height="415"
     inkscape:window-x="175"
     inkscape:window-y="175"
     inkscape:window-maximized="0" />
  <metadata
     id="metadata4316">
    <rdf:RDF>
      <cc:Work
         rdf:about="">
        <dc:format>image/svg+xml</dc:format>
        <dc:type
           rdf:resource="http://purl.org/dc/dcmitype/StillImage" />
        <dc:title></dc:title>
      </cc:Work>
    </rdf:RDF>
  </metadata>
  <g
     inkscape:label="Layer 1"
     inkscape:groupmode="layer"
     id="layer1"
     transform="translate(-329.68149,-487.05347)">
    <g
       transform="matrix(1.25,0,0,-1.25,245.88516,1364.3322)"
       id="g3191">
      <g
         id="g3193"
         clip-path="url(#clipPath3195)">
        <g
           id="g3199"
           transform="translate(68.2495,667.9114)">
          <path
             inkscape:connector-curvature="0"
             d="m 0,0 32.699,32.7 c 1.287,1.286 3.387,1.286 4.674,0 L 70.072,0 c 1.285,-1.286 1.285,-3.384 0,-4.671 L 37.373,-37.37 c -1.287,-1.287 -3.387,-1.287 -4.674,0 L 0,-4.671 C -1.268,-3.4 -1.268,-1.271 0,0"
             style="fill:#f48412;fill-opacity:1;fill-rule:nonzero;stroke:#231f20;stroke-width:0.5;stroke-linecap:butt;stroke-linejoin:miter;stroke-miterlimit:4;stroke-opacity:1;stroke-dasharray:none"
             id="path3201" />
        </g>
      </g>
    </g>
    <g
       transform="matrix(1.25,0,0,-1.25,245.88516,1364.3322)"
       id="g3203">
      <g
         id="g3205"
         clip-path="url(#clipPath3207)">
        <g
           id="g3211"
           transform="translate(68.9077,667.2708)">
          <path
             inkscape:connector-curvature="0"
             d="m 0,0 32.684,32.684 c 0.927,0.926 2.464,0.924 3.39,0 L 68.758,0 c 0.928,-0.928 0.924,-2.461 0,-3.39 L 36.074,-36.073 c -0.929,-0.924 -2.463,-0.927 -3.39,0 L 0,-3.39 C -0.922,-2.461 -0.926,-0.928 0,0"
             style="fill:#231f20;fill-opacity:1;fill-rule:evenodd;stroke:none"
             id="path3213" />
        </g>
        <g
           id="g3215"
           transform="translate(69.8276,666.3743)">
          <path
             inkscape:connector-curvature="0"
             d="m 0,0 32.662,32.66 c 0.43,0.446 1.164,0.446 1.596,0 L 66.916,0 c 0.447,-0.431 0.447,-1.166 0,-1.597 L 34.258,-34.256 c -0.43,-0.446 -1.166,-0.447 -1.596,0 L 0,-1.597 C -0.445,-1.165 -0.445,-0.431 0,0"
             style="fill:#f48412;fill-opacity:1;fill-rule:evenodd;stroke:none"
             id="path3217" />
        </g>
        <g
           id="g3219"
           transform="translate(120.4312,668.4378)">
          <path
             inkscape:connector-curvature="0"
             d="m 0,0 c 0,-1.081 -0.875,-1.802 -2.162,-1.802 l -4.272,0 0,3.656 4.272,0 C -0.875,1.854 0,1.133 0,0 m 2.625,0 c 0,1.648 -0.875,3.089 -2.266,3.861 -0.822,0.463 -1.492,0.618 -2.625,0.618 l -6.845,0 0,-14.672 2.677,0 0,5.765 4.168,0 c 1.133,0 1.803,0.104 2.625,0.567 C 1.75,-3.089 2.625,-1.545 2.625,0 m -17.508,4.479 -2.625,0 0,-14.672 2.625,0 0,14.672 z M -25.49,-2.832 c 0,-2.007 -0.721,-3.346 -2.264,-4.169 -0.617,-0.36 -1.338,-0.566 -2.111,-0.566 l -2.059,0 0,9.421 2.059,0 c 0.773,0 1.545,-0.206 2.215,-0.567 1.439,-0.824 2.16,-2.162 2.16,-4.119 m 2.625,0 c 0,2.884 -1.235,5.097 -3.5,6.384 -1.08,0.618 -2.264,0.927 -3.5,0.927 l -4.739,0 0,-14.672 4.739,0 c 1.183,0 2.42,0.308 3.449,0.875 2.316,1.287 3.551,3.552 3.551,6.486"
             style="fill:#231f20;fill-opacity:1;fill-rule:evenodd;stroke:none"
             id="path3221" />
        </g>
      </g>
    </g>
  </g>
</svg>
