<?xml version="1.0" encoding="UTF-8" standalone="no"?>
<!-- Created with Inkscape (http://www.inkscape.org/) -->

<svg
   xmlns:dc="http://purl.org/dc/elements/1.1/"
   xmlns:cc="http://creativecommons.org/ns#"
   xmlns:rdf="http://www.w3.org/1999/02/22-rdf-syntax-ns#"
   xmlns:svg="http://www.w3.org/2000/svg"
   xmlns="http://www.w3.org/2000/svg"
   xmlns:sodipodi="http://sodipodi.sourceforge.net/DTD/sodipodi-0.dtd"
   xmlns:inkscape="http://www.inkscape.org/namespaces/inkscape"
   width="109.59046"
   height="109.56267"
   id="svg6521"
   version="1.1"
   inkscape:version="0.48.3.1 r9886"
   sodipodi:docname="New document 41">
  <defs
     id="defs6523">
    <clipPath
       clipPathUnits="userSpaceOnUse"
       id="clipPath3535">
      <path
         inkscape:connector-curvature="0"
         d="m 63,56.527 513,0 L 576,738 63,738 63,56.527 z"
         id="path3537" />
    </clipPath>
  </defs>
  <sodipodi:namedview
     id="base"
     pagecolor="#ffffff"
     bordercolor="#666666"
     borderopacity="1.0"
     inkscape:pageopacity="0.0"
     inkscape:pageshadow="2"
     inkscape:zoom="0.35"
     inkscape:cx="54.794948"
     inkscape:cy="54.788605"
     inkscape:document-units="px"
     inkscape:current-layer="layer1"
     showgrid="false"
     fit-margin-top="0"
     fit-margin-left="0"
     fit-margin-right="0"
     fit-margin-bottom="0"
     inkscape:window-width="451"
     inkscape:window-height="415"
     inkscape:window-x="25"
     inkscape:window-y="25"
     inkscape:window-maximized="0" />
  <metadata
     id="metadata6526">
    <rdf:RDF>
      <cc:Work
         rdf:about="">
        <dc:format>image/svg+xml</dc:format>
        <dc:type
           rdf:resource="http://purl.org/dc/dcmitype/StillImage" />
        <dc:title></dc:title>
      </cc:Work>
    </rdf:RDF>
  </metadata>
  <g
     inkscape:label="Layer 1"
     inkscape:groupmode="layer"
     id="layer1"
     transform="translate(-320.20505,-477.58812)">
    <g
       transform="matrix(1.25,0,0,-1.25,-285.22194,1061.1871)"
       id="g3531">
      <g
         id="g3533"
         clip-path="url(#clipPath3535)">
        <g
           id="g3539"
           transform="translate(570.5848,425.8853)">
          <path
             inkscape:connector-curvature="0"
             d="m 0,0 c 1.56,-1.56 1.56,-4.092 0,-5.654 l -39.58,-39.579 c -1.561,-1.56 -4.092,-1.56 -5.655,0 l -39.578,39.579 c -1.562,1.562 -1.562,4.094 0,5.654 l 39.578,39.58 c 1.563,1.563 4.094,1.563 5.655,0 L 0,0 z"
             style="fill:#f48412;fill-opacity:1;fill-rule:nonzero;stroke:none"
             id="path3541" />
        </g>
        <g
           id="g3543"
           transform="translate(570.5848,425.8853)">
          <path
             inkscape:connector-curvature="0"
             d="m 0,0 c 1.56,-1.56 1.56,-4.092 0,-5.654 l -39.58,-39.579 c -1.561,-1.56 -4.092,-1.56 -5.655,0 l -39.578,39.579 c -1.562,1.562 -1.562,4.094 0,5.654 l 39.578,39.58 c 1.563,1.563 4.094,1.563 5.655,0 L 0,0 z"
             style="fill:none;stroke:#231f20;stroke-width:0.5;stroke-linecap:butt;stroke-linejoin:miter;stroke-miterlimit:4;stroke-opacity:1;stroke-dasharray:none"
             id="path3545" />
        </g>
        <g
           id="g3547"
           transform="translate(568.6998,422.1163)">
          <path
             inkscape:connector-curvature="0"
             d="m 0,0 -39.58,-39.579 c -0.52,-0.519 -1.365,-0.519 -1.885,0 L -81.043,0 c -0.522,0.519 -0.522,1.365 0,1.884 l 39.578,39.581 c 0.52,0.518 1.365,0.518 1.885,0 L 0,1.884 C 0.519,1.365 0.519,0.519 0,0 m 1.1,2.983 -39.581,39.581 c -1.125,1.125 -2.957,1.125 -4.084,0 L -82.143,2.983 c -1.127,-1.125 -1.127,-2.957 0,-4.083 l 39.578,-39.577 c 1.127,-1.127 2.959,-1.127 4.084,0 L 1.1,-1.1 c 1.125,1.126 1.125,2.958 0,4.083"
             style="fill:#231f20;fill-opacity:1;fill-rule:nonzero;stroke:none"
             id="path3549" />
        </g>
        <g
           id="g3551"
           transform="translate(526.2448,431.0673)">
          <path
             inkscape:connector-curvature="0"
             d="m 0,0 -1.494,0 -2.987,6.896 0,-6.896 -1.492,0 0,10.66 1.492,0 2.985,-6.887 0.002,6.887 L 0,10.66 0,0 z"
             style="fill:#231f20;fill-opacity:1;fill-rule:nonzero;stroke:none"
             id="path3553" />
        </g>
        <g
           id="g3555"
           transform="translate(533.1768,436.3973)">
          <path
             inkscape:connector-curvature="0"
             d="m 0,0 c 0,0.91 -0.092,1.703 -0.278,2.379 -0.277,1.047 -0.734,1.57 -1.375,1.57 -0.64,0 -1.099,-0.523 -1.375,-1.57 C -3.213,1.703 -3.307,0.91 -3.307,0 c 0,-0.91 0.094,-1.705 0.279,-2.381 0.276,-1.045 0.735,-1.568 1.375,-1.568 0.641,0 1.098,0.523 1.375,1.568 C -0.092,-1.705 0,-0.91 0,0 m 1.494,0 c 0,-1.309 -0.151,-2.394 -0.45,-3.255 -0.511,-1.459 -1.41,-2.186 -2.697,-2.186 -1.287,0 -2.185,0.727 -2.699,2.186 -0.297,0.861 -0.447,1.946 -0.447,3.255 0,3.627 1.049,5.441 3.146,5.441 2.098,0 3.147,-1.814 3.147,-5.441"
             style="fill:#231f20;fill-opacity:1;fill-rule:nonzero;stroke:none"
             id="path3557" />
        </g>
        <g
           id="g3559"
           transform="translate(502.8967,415.3173)">
          <path
             inkscape:connector-curvature="0"
             d="m 0,0 c 0,-0.754 -0.195,-1.404 -0.586,-1.953 -0.506,-0.711 -1.252,-1.067 -2.24,-1.067 -1.109,0 -1.937,0.356 -2.484,1.067 -0.442,0.562 -0.662,1.271 -0.662,2.125 l 1.494,0 c 0,-0.619 0.195,-1.078 0.588,-1.379 0.291,-0.213 0.646,-0.32 1.066,-0.32 0.855,0 1.283,0.509 1.283,1.527 0,0.797 -0.346,1.447 -1.035,1.953 -0.641,0.397 -1.283,0.793 -1.93,1.184 -0.689,0.533 -1.033,1.229 -1.033,2.09 0,0.563 0.154,1.08 0.469,1.548 0.482,0.727 1.256,1.088 2.322,1.088 1.121,0 1.918,-0.42 2.387,-1.261 C -0.17,6.254 -0.049,5.83 0,5.332 l -1.492,0 c 0,0.18 -0.061,0.357 -0.182,0.534 -0.214,0.337 -0.574,0.505 -1.08,0.505 -0.861,0 -1.293,-0.381 -1.293,-1.144 0,-0.419 0.35,-0.838 1.047,-1.256 C -1.961,3.357 -1.308,2.924 -1.047,2.668 -0.347,1.977 0,1.088 0,0"
             style="fill:#231f20;fill-opacity:1;fill-rule:nonzero;stroke:none"
             id="path3561" />
        </g>
        <g
           id="g3563"
           transform="translate(510.6778,412.4093)">
          <path
             inkscape:connector-curvature="0"
             d="m 0,0 -1.494,0 0,4.898 -2.986,0 0,-4.898 -1.492,0 0,10.662 1.492,0 0,-4.272 2.986,0 0,4.272 1.494,0 L 0,0 z"
             style="fill:#231f20;fill-opacity:1;fill-rule:nonzero;stroke:none"
             id="path3565" />
        </g>
        <g
           id="g3567"
           transform="translate(517.6118,417.7393)">
          <path
             inkscape:connector-curvature="0"
             d="M 0,0 C 0,0.91 -0.092,1.705 -0.277,2.381 -0.555,3.426 -1.014,3.949 -1.654,3.949 -2.293,3.949 -2.752,3.426 -3.029,2.381 -3.215,1.705 -3.307,0.91 -3.307,0 c 0,-0.91 0.092,-1.703 0.278,-2.379 0.277,-1.047 0.736,-1.57 1.375,-1.57 0.64,0 1.099,0.523 1.377,1.57 C -0.092,-1.703 0,-0.91 0,0 m 1.494,0 c 0,-1.309 -0.15,-2.393 -0.449,-3.254 -0.512,-1.459 -1.412,-2.188 -2.699,-2.188 -1.287,0 -2.186,0.729 -2.698,2.188 -0.298,0.861 -0.449,1.945 -0.449,3.254 0,3.629 1.049,5.441 3.147,5.441 2.099,0 3.148,-1.812 3.148,-5.441"
             style="fill:#231f20;fill-opacity:1;fill-rule:nonzero;stroke:none"
             id="path3569" />
        </g>
        <g
           id="g3571"
           transform="translate(527.2037,415.2843)">
          <path
             inkscape:connector-curvature="0"
             d="m 0,0 c 0,-0.825 -0.289,-1.53 -0.869,-2.112 -0.58,-0.584 -1.285,-0.875 -2.117,-0.875 -0.825,0 -1.53,0.291 -2.112,0.875 C -5.682,-1.53 -5.973,-0.825 -5.973,0 l 0,7.787 1.492,0 0,-7.787 c 0,-0.412 0.145,-0.767 0.434,-1.057 0.287,-0.291 0.641,-0.437 1.061,-0.437 0.404,0 0.755,0.146 1.05,0.437 0.295,0.29 0.442,0.645 0.442,1.057 l 0,7.787 L 0,7.787 0,0 z"
             style="fill:#231f20;fill-opacity:1;fill-rule:nonzero;stroke:none"
             id="path3573" />
        </g>
        <g
           id="g3575"
           transform="translate(534.9827,412.4093)">
          <path
             inkscape:connector-curvature="0"
             d="m 0,0 -5.435,0 0,10.662 1.492,0 0,-9.17 L 0,1.492 0,0 z"
             style="fill:#231f20;fill-opacity:1;fill-rule:nonzero;stroke:none"
             id="path3577" />
        </g>
        <g
           id="g3579"
           transform="translate(540.9557,417.7323)">
          <path
             inkscape:connector-curvature="0"
             d="m 0,0 c 0,2.562 -0.606,3.845 -1.815,3.845 l -1.172,0 0,-7.688 1.172,0 C -0.606,-3.843 0,-2.563 0,0 m 1.494,0.007 c 0,-2.133 -0.42,-3.645 -1.26,-4.533 -0.512,-0.539 -1.115,-0.811 -1.812,-0.811 l -0.237,0 -2.666,0 0,10.676 2.785,0 C -1,5.339 -0.403,5.11 0.096,4.655 1.027,3.802 1.494,2.253 1.494,0.007"
             style="fill:#231f20;fill-opacity:1;fill-rule:nonzero;stroke:none"
             id="path3581" />
        </g>
        <g
           id="g3583"
           transform="translate(550.0157,412.3953)">
          <path
             inkscape:connector-curvature="0"
             d="m 0,0 -5.437,0.014 0,10.662 5.437,0 0,-1.494 -3.945,0 0,-2.778 2.346,0 0,-1.492 -2.346,0 0,-3.406 L 0,1.506 0,0 z"
             style="fill:#231f20;fill-opacity:1;fill-rule:nonzero;stroke:none"
             id="path3585" />
        </g>
        <g
           id="g3587"
           transform="translate(556.3068,420.1883)">
          <path
             inkscape:connector-curvature="0"
             d="m 0,0 c 0,0.883 -0.365,1.346 -1.097,1.389 l -1.889,0 0,-2.778 1.889,0 C -0.365,-1.346 0,-0.883 0,0 m 1.495,-7.779 -1.547,0 -1.409,4.898 -1.525,0 0,-4.898 -1.492,0 0,10.662 3.306,0 C -0.603,2.832 -0.283,2.801 -0.211,2.785 0.278,2.672 0.662,2.437 0.94,2.082 1.309,1.605 1.495,0.911 1.495,0.004 1.495,-1.313 1,-2.18 0.01,-2.598 l 1.485,-5.181 z"
             style="fill:#231f20;fill-opacity:1;fill-rule:nonzero;stroke:none"
             id="path3589" />
        </g>
      </g>
    </g>
  </g>
</svg>
