<?xml version="1.0" encoding="UTF-8" standalone="no"?>
<!-- Created with Inkscape (http://www.inkscape.org/) -->

<svg
   xmlns:dc="http://purl.org/dc/elements/1.1/"
   xmlns:cc="http://creativecommons.org/ns#"
   xmlns:rdf="http://www.w3.org/1999/02/22-rdf-syntax-ns#"
   xmlns:svg="http://www.w3.org/2000/svg"
   xmlns="http://www.w3.org/2000/svg"
   xmlns:sodipodi="http://sodipodi.sourceforge.net/DTD/sodipodi-0.dtd"
   xmlns:inkscape="http://www.inkscape.org/namespaces/inkscape"
   width="90.627144"
   height="90.631668"
   id="svg4762"
   version="1.1"
   inkscape:version="0.48.3.1 r9886"
   sodipodi:docname="New document 16">
  <defs
     id="defs4764">
    <clipPath
       clipPathUnits="userSpaceOnUse"
       id="clipPath3371">
      <path
         inkscape:connector-curvature="0"
         d="m 63,56.527 513,0 L 576,738 63,738 63,56.527 z"
         id="path3373" />
    </clipPath>
    <clipPath
       clipPathUnits="userSpaceOnUse"
       id="clipPath3359">
      <path
         inkscape:connector-curvature="0"
         d="m 66.989,151.194 509.011,0 0,586.806 -509.011,0 0,-586.806 z"
         id="path3361" />
    </clipPath>
  </defs>
  <sodipodi:namedview
     id="base"
     pagecolor="#ffffff"
     bordercolor="#666666"
     borderopacity="1.0"
     inkscape:pageopacity="0.0"
     inkscape:pageshadow="2"
     inkscape:zoom="0.35"
     inkscape:cx="45.321388"
     inkscape:cy="45.32173"
     inkscape:document-units="px"
     inkscape:current-layer="layer1"
     showgrid="false"
     fit-margin-top="0"
     fit-margin-left="0"
     fit-margin-right="0"
     fit-margin-bottom="0"
     inkscape:window-width="451"
     inkscape:window-height="415"
     inkscape:window-x="25"
     inkscape:window-y="25"
     inkscape:window-maximized="0" />
  <metadata
     id="metadata4767">
    <rdf:RDF>
      <cc:Work
         rdf:about="">
        <dc:format>image/svg+xml</dc:format>
        <dc:type
           rdf:resource="http://purl.org/dc/dcmitype/StillImage" />
        <dc:title></dc:title>
      </cc:Work>
    </rdf:RDF>
  </metadata>
  <g
     inkscape:label="Layer 1"
     inkscape:groupmode="layer"
     id="layer1"
     transform="translate(-329.67861,-487.05225)">
    <g
       transform="matrix(1.25,0,0,-1.25,245.90739,1224.4396)"
       id="g3355">
      <g
         id="g3357"
         clip-path="url(#clipPath3359)">
        <g
           id="g3363"
           transform="translate(68.2314,555.9983)">
          <path
             inkscape:connector-curvature="0"
             d="m 0,0 32.7,32.699 c 1.287,1.286 3.387,1.286 4.674,0 L 70.073,0 c 1.287,-1.287 1.287,-3.385 0,-4.672 L 37.374,-37.371 c -1.287,-1.287 -3.387,-1.287 -4.674,0 L 0,-4.672 C -1.27,-3.401 -1.271,-1.271 0,0"
             style="fill:#f48412;fill-opacity:1;fill-rule:nonzero;stroke:#231f20;stroke-width:0.5;stroke-linecap:butt;stroke-linejoin:miter;stroke-miterlimit:4;stroke-opacity:1;stroke-dasharray:none"
             id="path3365" />
        </g>
      </g>
    </g>
    <g
       transform="matrix(1.25,0,0,-1.25,245.90739,1224.4396)"
       id="g3367">
      <g
         id="g3369"
         clip-path="url(#clipPath3371)">
        <g
           id="g3375"
           transform="translate(68.8877,555.3573)">
          <path
             inkscape:connector-curvature="0"
             d="m 0,0 32.685,32.683 c 0.927,0.927 2.464,0.925 3.392,0 L 68.759,0 c 0.927,-0.928 0.924,-2.461 0,-3.39 L 36.077,-36.073 c -0.93,-0.924 -2.463,-0.926 -3.392,0 L 0,-3.39 C -0.922,-2.461 -0.926,-0.927 0,0"
             style="fill:#231f20;fill-opacity:1;fill-rule:evenodd;stroke:none"
             id="path3377" />
        </g>
        <g
           id="g3379"
           transform="translate(69.8076,554.4613)">
          <path
             inkscape:connector-curvature="0"
             d="m 0,0 32.661,32.659 c 0.434,0.446 1.168,0.446 1.6,0 L 66.919,0 c 0.447,-0.432 0.447,-1.166 0,-1.598 L 34.261,-34.257 c -0.432,-0.446 -1.168,-0.448 -1.6,0 L 0,-1.598 C -0.445,-1.166 -0.445,-0.432 0,0"
             style="fill:#f48412;fill-opacity:1;fill-rule:evenodd;stroke:none"
             id="path3381" />
        </g>
        <g
           id="g3383"
           transform="translate(122.1543,555.1353)">
          <path
             inkscape:connector-curvature="0"
             d="m 0,0 0,8.803 -1.391,0 0,-3.551 -3.212,0 0,3.551 -1.389,0 0,-8.803 1.389,0 0,3.83 3.212,0 0,-3.83 L 0,0 z m -8.057,2.626 0,1.76 -2.996,0 0,-1.39 1.608,0 0,-0.37 c 0,-0.804 -0.651,-1.359 -1.545,-1.359 -0.526,0 -0.928,0.215 -1.205,0.709 -0.278,0.557 -0.432,1.484 -0.432,2.41 0,0.742 0.123,1.545 0.34,2.07 0.308,0.772 0.771,1.081 1.482,1.081 0.68,0 1.049,-0.277 1.42,-1.051 l 1.328,0.525 c -0.586,1.391 -1.388,1.947 -2.748,1.947 -0.988,0 -1.73,-0.339 -2.256,-0.989 -0.585,-0.772 -0.988,-2.162 -0.988,-3.583 0,-1.081 0.217,-2.162 0.588,-2.934 0.526,-1.112 1.297,-1.611 2.625,-1.611 1.606,0 2.779,1.178 2.779,2.785 m -8.023,0.524 0,5.653 -1.391,0 0,-5.653 c 0,-1.142 -0.648,-1.883 -1.605,-1.883 -0.961,0 -1.61,0.741 -1.61,1.883 l 0,5.653 -1.388,0 0,-5.653 c 0,-0.679 0.154,-1.297 0.4,-1.822 0.465,-0.864 1.514,-1.487 2.598,-1.487 1.08,0 2.131,0.623 2.594,1.487 0.248,0.525 0.402,1.143 0.402,1.822 m -9.447,1.236 c 0,-0.679 -0.155,-1.544 -0.34,-2.007 -0.309,-0.773 -0.711,-1.112 -1.359,-1.112 -0.557,0 -0.926,0.215 -1.206,0.679 -0.339,0.556 -0.525,1.514 -0.525,2.44 0,0.742 0.125,1.545 0.34,2.07 0.308,0.772 0.742,1.112 1.422,1.081 0.525,-0.031 0.865,-0.216 1.142,-0.68 0.34,-0.586 0.526,-1.482 0.526,-2.471 m 1.388,0 c 0,1.112 -0.215,2.225 -0.586,2.997 -0.556,1.081 -1.328,1.575 -2.439,1.575 -1.02,0 -1.73,-0.309 -2.256,-0.989 -0.586,-0.833 -0.957,-2.131 -0.957,-3.583 0,-1.05 0.246,-2.224 0.617,-2.964 0.526,-1.082 1.297,-1.581 2.534,-1.581 0.925,0 1.636,0.313 2.13,0.993 0.618,0.772 0.957,2.162 0.957,3.552 m -9.228,1.946 c 0,-0.37 -0.217,-0.74 -0.555,-0.926 -0.217,-0.123 -0.371,-0.154 -0.804,-0.154 l -1.667,0 0,2.162 1.667,0 c 0.464,0 0.587,-0.031 0.804,-0.154 0.338,-0.186 0.555,-0.557 0.555,-0.928 M -31.791,0 -33.336,4.109 c 0.803,0.37 1.36,1.297 1.36,2.223 0,0.896 -0.557,1.823 -1.329,2.193 -0.433,0.217 -0.896,0.278 -1.576,0.278 l -2.902,0 0,-8.803 1.39,0 0,3.83 1.667,0 1.421,-3.83 1.514,0 z"
             style="fill:#231f20;fill-opacity:1;fill-rule:evenodd;stroke:none"
             id="path3385" />
        </g>
        <g
           id="g3387"
           transform="translate(117.1855,543.4053)">
          <path
             inkscape:connector-curvature="0"
             d="m 0,0 c 0,-1.174 -0.277,-2.133 -0.803,-2.656 -0.246,-0.249 -0.525,-0.342 -0.988,-0.342 l -1.389,0 0,5.994 1.575,0 c 0.371,0 0.679,-0.154 0.896,-0.371 C -0.277,2.162 0,1.174 0,0 m 1.422,0 c 0,1.728 -0.525,3.119 -1.451,3.921 -0.465,0.371 -0.805,0.464 -1.699,0.464 l -2.842,0 0,-8.803 2.687,0 0.494,0 c 0.463,0.031 0.926,0.185 1.266,0.494 0.988,0.771 1.545,2.162 1.545,3.924 m -10.436,-0.526 -1.759,0 0.894,2.471 0.865,-2.471 z m 2.842,-3.892 -3.027,8.803 -1.389,0 -3.027,-8.803 1.482,0 0.865,2.471 2.748,0 0.866,-2.471 1.482,0 z m -10.252,4.387 c 0,-0.68 -0.154,-1.545 -0.34,-2.008 -0.308,-0.774 -0.711,-1.114 -1.359,-1.114 -0.555,0 -0.926,0.217 -1.203,0.68 -0.34,0.557 -0.526,1.514 -0.526,2.442 0,0.74 0.124,1.543 0.34,2.068 0.309,0.773 0.741,1.113 1.42,1.082 0.526,-0.031 0.865,-0.217 1.143,-0.68 0.34,-0.588 0.525,-1.482 0.525,-2.47 m 1.391,0 c 0,1.111 -0.217,2.222 -0.588,2.996 -0.555,1.08 -1.328,1.574 -2.44,1.574 -1.019,0 -1.73,-0.308 -2.255,-0.988 -0.586,-0.834 -0.957,-2.131 -0.957,-3.582 0,-1.051 0.248,-2.225 0.617,-2.967 0.525,-1.08 1.299,-1.58 2.533,-1.58 0.928,0 1.637,0.314 2.131,0.994 0.619,0.771 0.959,2.162 0.959,3.553 m -9.356,1.945 c 0,-0.371 -0.214,-0.74 -0.554,-0.926 -0.217,-0.125 -0.371,-0.154 -0.803,-0.154 l -1.668,0 0,2.162 1.668,0 c 0.463,0 0.586,-0.031 0.803,-0.154 0.34,-0.186 0.554,-0.557 0.554,-0.928 m 1.576,-6.332 -1.544,4.107 c 0.802,0.371 1.359,1.299 1.359,2.225 0,0.896 -0.557,1.822 -1.328,2.193 -0.432,0.217 -0.897,0.278 -1.576,0.278 l -2.903,0 0,-8.803 1.391,0 0,3.83 1.668,0 1.42,-3.83 1.513,0 z"
             style="fill:#231f20;fill-opacity:1;fill-rule:evenodd;stroke:none"
             id="path3389" />
        </g>
      </g>
    </g>
  </g>
</svg>
