<?xml version="1.0" encoding="UTF-8" standalone="no"?>
<!-- Created with Inkscape (http://www.inkscape.org/) -->

<svg
   xmlns:dc="http://purl.org/dc/elements/1.1/"
   xmlns:cc="http://creativecommons.org/ns#"
   xmlns:rdf="http://www.w3.org/1999/02/22-rdf-syntax-ns#"
   xmlns:svg="http://www.w3.org/2000/svg"
   xmlns="http://www.w3.org/2000/svg"
   xmlns:sodipodi="http://sodipodi.sourceforge.net/DTD/sodipodi-0.dtd"
   xmlns:inkscape="http://www.inkscape.org/namespaces/inkscape"
   width="90.627632"
   height="90.631485"
   id="svg4835"
   version="1.1"
   inkscape:version="0.48.3.1 r9886"
   sodipodi:docname="New document 18">
  <defs
     id="defs4837">
    <clipPath
       clipPathUnits="userSpaceOnUse"
       id="clipPath3399">
      <path
         inkscape:connector-curvature="0"
         d="m 63,56.527 513,0 L 576,738 63,738 63,56.527 z"
         id="path3401" />
    </clipPath>
  </defs>
  <sodipodi:namedview
     id="base"
     pagecolor="#ffffff"
     bordercolor="#666666"
     borderopacity="1.0"
     inkscape:pageopacity="0.0"
     inkscape:pageshadow="2"
     inkscape:zoom="0.35"
     inkscape:cx="45.319765"
     inkscape:cy="45.32173"
     inkscape:document-units="px"
     inkscape:current-layer="layer1"
     showgrid="false"
     fit-margin-top="0"
     fit-margin-left="0"
     fit-margin-right="0"
     fit-margin-bottom="0"
     inkscape:window-width="451"
     inkscape:window-height="415"
     inkscape:window-x="75"
     inkscape:window-y="75"
     inkscape:window-maximized="0" />
  <metadata
     id="metadata4840">
    <rdf:RDF>
      <cc:Work
         rdf:about="">
        <dc:format>image/svg+xml</dc:format>
        <dc:type
           rdf:resource="http://purl.org/dc/dcmitype/StillImage" />
        <dc:title></dc:title>
      </cc:Work>
    </rdf:RDF>
  </metadata>
  <g
     inkscape:label="Layer 1"
     inkscape:groupmode="layer"
     id="layer1"
     transform="translate(-329.68024,-487.05243)">
    <g
       transform="matrix(1.25,0,0,-1.25,120.249,1224.4396)"
       id="g3395">
      <g
         id="g3397"
         clip-path="url(#clipPath3399)">
        <g
           id="g3403"
           transform="translate(168.7598,555.9983)">
          <path
             inkscape:connector-curvature="0"
             d="m 0,0 32.699,32.699 c 1.287,1.286 3.384,1.286 4.672,0 L 70.07,0 c 1.287,-1.287 1.287,-3.385 0,-4.672 L 37.371,-37.371 c -1.288,-1.287 -3.385,-1.287 -4.672,0 L 0,-4.672 C -1.27,-3.401 -1.272,-1.271 0,0"
             style="fill:#f48412;fill-opacity:1;fill-rule:nonzero;stroke:#231f20;stroke-width:0.5;stroke-linecap:butt;stroke-linejoin:miter;stroke-miterlimit:4;stroke-opacity:1;stroke-dasharray:none"
             id="path3405" />
        </g>
        <g
           id="g3407"
           transform="translate(169.4158,555.3573)">
          <path
             inkscape:connector-curvature="0"
             d="m 0,0 32.683,32.683 c 0.928,0.927 2.463,0.925 3.391,0 L 68.756,0 c 0.929,-0.928 0.925,-2.461 0,-3.39 L 36.074,-36.073 c -0.93,-0.924 -2.461,-0.926 -3.391,0 L 0,-3.39 C -0.922,-2.461 -0.926,-0.927 0,0"
             style="fill:#231f20;fill-opacity:1;fill-rule:evenodd;stroke:none"
             id="path3409" />
        </g>
        <g
           id="g3411"
           transform="translate(170.3358,554.4613)">
          <path
             inkscape:connector-curvature="0"
             d="m 0,0 32.66,32.659 c 0.431,0.446 1.166,0.446 1.597,0 L 66.916,0 c 0.449,-0.432 0.449,-1.166 0,-1.598 L 34.257,-34.257 c -0.431,-0.446 -1.166,-0.448 -1.597,0 L 0,-1.598 C -0.446,-1.166 -0.446,-0.432 0,0"
             style="fill:#f48412;fill-opacity:1;fill-rule:evenodd;stroke:none"
             id="path3413" />
        </g>
        <g
           id="g3415"
           transform="translate(213.7668,569.0763)">
          <path
             inkscape:connector-curvature="0"
             d="M 0,0 -1.236,0 -2.007,-4.694 -2.841,0 -3.832,0 -4.695,-4.694 -5.437,0 l -1.235,0 1.389,-8.803 1.111,0 0.836,4.603 0.834,-4.603 1.08,0 L 0,0 z m -9.277,-4.386 c 0,-1.018 -0.063,-1.544 -0.279,-2.254 -0.215,-0.742 -0.555,-1.082 -1.08,-1.082 -0.557,0 -0.897,0.34 -1.114,1.082 -0.185,0.71 -0.277,1.266 -0.277,2.224 0,0.988 0.062,1.574 0.277,2.254 0.217,0.742 0.557,1.082 1.114,1.082 0.525,0 0.865,-0.34 1.08,-1.112 0.185,-0.65 0.279,-1.205 0.279,-2.194 m 1.205,0 c 0,1.329 -0.125,2.163 -0.496,3.028 -0.432,1.081 -1.049,1.512 -2.068,1.512 -1.02,0 -1.637,-0.431 -2.102,-1.482 -0.371,-0.834 -0.494,-1.729 -0.494,-3.058 0,-1.358 0.123,-2.192 0.494,-3.057 0.434,-1.051 1.051,-1.52 2.102,-1.52 0.988,0 1.636,0.469 2.068,1.52 0.371,0.834 0.496,1.699 0.496,3.057 m -6.529,-4.417 0,1.174 -3.213,0 0,7.629 -1.266,0 0,-8.803 4.479,0 z"
             style="fill:#231f20;fill-opacity:1;fill-rule:evenodd;stroke:none"
             id="path3417" />
        </g>
        <g
           id="g3419"
           transform="translate(225.7088,552.7833)">
          <path
             inkscape:connector-curvature="0"
             d="m 0,0 c 0,-0.711 -0.401,-1.113 -1.141,-1.113 l -1.299,0 0,2.225 1.299,0 C -0.463,1.112 0,0.68 0,0 m 1.238,-6.456 -1.27,4.324 c 0.836,0.31 1.27,1.081 1.27,2.132 0,1.42 -0.93,2.347 -2.316,2.347 l -2.629,0 0,-8.803 1.267,0 0,4.139 1.203,0 1.174,-4.139 1.301,0 z m -6.062,0 0,1.235 -3.213,0 0,2.904 1.822,0 0,1.204 -1.822,0 0,2.225 2.873,0 0,1.235 -4.139,0 0,-8.803 4.479,0 z m -7.079,4.355 c 0,-0.679 -0.062,-1.297 -0.125,-1.853 -0.123,-0.68 -0.523,-1.267 -1.265,-1.267 l -1.051,0 0,6.333 1.051,0 c 0.556,0 0.926,-0.278 1.142,-0.896 0.155,-0.371 0.248,-1.329 0.248,-2.317 m 1.235,0.062 c 0,0.68 -0.092,1.451 -0.215,2.1 -0.154,0.896 -0.525,1.576 -1.051,1.947 -0.308,0.246 -0.68,0.339 -1.422,0.339 l -2.254,0 0,-8.803 2.44,0 c 0.494,0 0.928,0.125 1.236,0.402 0.865,0.679 1.266,1.976 1.266,4.015 m -5.781,-4.417 0,1.174 -3.211,0 0,7.629 -1.268,0 0,-8.803 4.479,0 z m -5.999,2.626 0,6.177 -1.265,0 0,-6.332 c 0,-0.834 -0.494,-1.39 -1.174,-1.39 -0.742,0 -1.236,0.556 -1.236,1.39 l 0,6.332 -1.266,0 0,-6.177 c 0,-0.711 0.092,-1.082 0.34,-1.545 0.432,-0.741 1.297,-1.24 2.162,-1.24 0.834,0 1.668,0.53 2.1,1.24 0.248,0.463 0.339,0.834 0.339,1.545 m -7.541,1.791 c 0,-1.019 -0.062,-1.545 -0.279,-2.255 -0.215,-0.741 -0.555,-1.081 -1.08,-1.081 -0.557,0 -0.896,0.34 -1.113,1.081 -0.186,0.71 -0.278,1.267 -0.278,2.224 0,0.988 0.063,1.576 0.278,2.256 0.217,0.74 0.556,1.08 1.113,1.08 0.525,0 0.865,-0.34 1.08,-1.112 0.186,-0.648 0.279,-1.205 0.279,-2.193 m 1.204,0 c 0,1.328 -0.123,2.162 -0.495,3.027 -0.431,1.081 -1.048,1.514 -2.068,1.514 -1.019,0 -1.639,-0.433 -2.101,-1.483 -0.372,-0.833 -0.495,-1.73 -0.495,-3.058 0,-1.359 0.123,-2.193 0.495,-3.058 0.433,-1.051 1.05,-1.518 2.101,-1.518 0.988,0 1.637,0.467 2.068,1.518 0.372,0.834 0.495,1.699 0.495,3.058 m -6.522,-4.417 0,8.803 -1.267,0 0,-3.583 -2.411,0 0,3.583 -1.265,0 0,-8.803 1.265,0 0,3.985 2.411,0 0,-3.985 1.267,0 z m -6.06,2.409 c 0,1.267 -0.743,2.225 -2.44,3.213 -0.65,0.37 -0.834,0.617 -0.834,1.05 0,0.587 0.463,1.019 1.049,1.019 0.557,0 0.988,-0.401 1.019,-1.019 l 1.206,0 c -0.032,1.328 -0.989,2.286 -2.225,2.286 -1.266,0 -2.254,-1.019 -2.254,-2.286 0,-0.772 0.369,-1.452 1.08,-1.946 1.793,-1.205 1.299,-0.866 1.483,-1.05 0.525,-0.401 0.71,-0.773 0.71,-1.267 0,-0.711 -0.554,-1.328 -1.234,-1.328 -0.865,0 -1.236,0.772 -1.236,1.514 l -1.237,0 c 0,-1.452 0.928,-2.754 2.473,-2.754 1.358,0 2.44,1.147 2.44,2.568"
             style="fill:#231f20;fill-opacity:1;fill-rule:evenodd;stroke:none"
             id="path3421" />
        </g>
      </g>
    </g>
  </g>
</svg>
