<?xml version="1.0" encoding="UTF-8" standalone="no"?>
<!-- Created with Inkscape (http://www.inkscape.org/) -->

<svg
   xmlns:dc="http://purl.org/dc/elements/1.1/"
   xmlns:cc="http://creativecommons.org/ns#"
   xmlns:rdf="http://www.w3.org/1999/02/22-rdf-syntax-ns#"
   xmlns:svg="http://www.w3.org/2000/svg"
   xmlns="http://www.w3.org/2000/svg"
   xmlns:sodipodi="http://sodipodi.sourceforge.net/DTD/sodipodi-0.dtd"
   xmlns:inkscape="http://www.inkscape.org/namespaces/inkscape"
   width="109.58553"
   height="109.57776"
   id="svg7195"
   version="1.1"
   inkscape:version="0.48.3.1 r9886"
   sodipodi:docname="New document 52">
  <defs
     id="defs7197">
    <clipPath
       clipPathUnits="userSpaceOnUse"
       id="clipPath3463">
      <path
         inkscape:connector-curvature="0"
         d="m 63,56.527 513,0 L 576,738 63,738 63,56.527 z"
         id="path3465" />
    </clipPath>
  </defs>
  <sodipodi:namedview
     id="base"
     pagecolor="#ffffff"
     bordercolor="#666666"
     borderopacity="1.0"
     inkscape:pageopacity="0.0"
     inkscape:pageshadow="2"
     inkscape:zoom="0.35"
     inkscape:cx="54.803858"
     inkscape:cy="54.80516"
     inkscape:document-units="px"
     inkscape:current-layer="layer1"
     showgrid="false"
     fit-margin-top="0"
     fit-margin-left="0"
     fit-margin-right="0"
     fit-margin-bottom="0"
     inkscape:window-width="451"
     inkscape:window-height="415"
     inkscape:window-x="100"
     inkscape:window-y="100"
     inkscape:window-maximized="0" />
  <metadata
     id="metadata7200">
    <rdf:RDF>
      <cc:Work
         rdf:about="">
        <dc:format>image/svg+xml</dc:format>
        <dc:type
           rdf:resource="http://purl.org/dc/dcmitype/StillImage" />
        <dc:title></dc:title>
      </cc:Work>
    </rdf:RDF>
  </metadata>
  <g
     inkscape:label="Layer 1"
     inkscape:groupmode="layer"
     id="layer1"
     transform="translate(-320.19614,-477.58958)">
    <g
       transform="matrix(1.25,0,0,-1.25,-154.89451,919.14928)"
       id="g3459">
      <g
         id="g3461"
         clip-path="url(#clipPath3463)">
        <g
           id="g3467"
           transform="translate(421.5788,266.8043)">
          <path
             inkscape:connector-curvature="0"
             d="m 0,0 -40.279,40.283 c -1.288,1.289 -1.291,3.385 -0.004,4.672 L 0,85.238 c 1.289,1.287 3.387,1.287 4.674,0 L 44.955,44.955 c 1.287,-1.287 1.287,-3.383 0,-4.672 L 4.674,0 C 3.4,-1.27 1.271,-1.27 0,0"
             style="fill:#f48412;fill-opacity:1;fill-rule:nonzero;stroke:#231f20;stroke-width:0.5;stroke-linecap:butt;stroke-linejoin:miter;stroke-miterlimit:4;stroke-opacity:1;stroke-dasharray:none"
             id="path3469" />
        </g>
        <g
           id="g3471"
           transform="translate(422.2208,267.4603)">
          <path
             inkscape:connector-curvature="0"
             d="m 0,0 -40.267,40.269 c -0.924,0.926 -0.924,2.463 0,3.389 L 0,83.924 c 0.928,0.929 2.461,0.926 3.391,0 L 43.657,43.656 c 0.925,-0.928 0.927,-2.457 0,-3.387 L 3.391,0 C 2.461,-0.922 0.928,-0.926 0,0"
             style="fill:#231f20;fill-opacity:1;fill-rule:evenodd;stroke:none"
             id="path3473" />
        </g>
        <g
           id="g3475"
           transform="translate(423.1198,268.3803)">
          <path
             inkscape:connector-curvature="0"
             d="m 0,0 -40.244,40.246 c -0.448,0.43 -0.446,1.166 0,1.596 l 40.242,40.242 c 0.428,0.445 1.166,0.445 1.598,0 L 41.838,41.842 c 0.445,-0.43 0.445,-1.168 0,-1.6 L 1.596,0 C 1.164,-0.445 0.43,-0.445 0,0"
             style="fill:#f48412;fill-opacity:1;fill-rule:evenodd;stroke:none"
             id="path3477" />
        </g>
        <g
           id="g3479"
           transform="translate(449.3968,315.7003)">
          <path
             inkscape:connector-curvature="0"
             d="m 0,0 c 0,1.221 -0.715,2.143 -2.349,3.092 -0.623,0.357 -0.803,0.596 -0.803,1.01 0,0.566 0.445,0.982 1.01,0.982 0.537,0 0.953,-0.387 0.982,-0.982 l 1.16,0 c -0.029,1.281 -0.951,2.203 -2.142,2.203 -1.217,0 -2.17,-0.984 -2.17,-2.203 0,-0.742 0.357,-1.397 1.041,-1.871 1.724,-1.16 1.25,-0.832 1.427,-1.01 C -1.338,0.834 -1.16,0.477 -1.16,0 c 0,-0.683 -0.535,-1.279 -1.189,-1.279 -0.832,0 -1.19,0.746 -1.19,1.459 l -1.187,0 c 0,-1.397 0.89,-2.651 2.377,-2.651 C -1.039,-2.471 0,-1.367 0,0 m -7.166,1.875 c 0,-0.654 -0.06,-1.25 -0.119,-1.783 -0.117,-0.654 -0.504,-1.221 -1.217,-1.221 l -1.013,0 0,6.096 1.013,0 c 0.533,0 0.889,-0.27 1.1,-0.865 0.146,-0.356 0.236,-1.278 0.236,-2.227 m 1.19,0.059 c 0,0.654 -0.088,1.396 -0.207,2.021 -0.149,0.862 -0.506,1.516 -1.012,1.875 -0.297,0.235 -0.652,0.328 -1.369,0.328 l -2.17,0 0,-8.478 2.349,0 c 0.475,0 0.893,0.121 1.19,0.387 0.832,0.654 1.219,1.904 1.219,3.867 m -6.571,-4.254 0,8.478 -1.22,0 0,-5.087 -2.317,5.087 -1.219,0 0,-8.478 1.219,0 0,5.68 2.615,-5.68 0.922,0 z m -6.183,0 0,1.191 -3.092,0 0,2.793 1.754,0 0,1.16 -1.754,0 0,2.143 2.764,0 0,1.191 -3.985,0 0,-8.478 4.313,0 z m -9.961,0 0,1.191 -3.092,0 0,2.793 1.754,0 0,1.16 -1.754,0 0,2.143 2.766,0 0,1.191 -3.985,0 0,-8.478 4.311,0 z m -6.125,0 0,8.478 -1.219,0 0,-5.087 -2.318,5.087 -1.219,0 0,-8.478 1.219,0 0,5.68 2.615,-5.68 0.922,0 z m -8.028,3.512 -1.218,0 0.595,2.437 0.623,-2.437 z m 2.114,-3.512 -2.114,8.478 -1.187,0 -2.111,-8.478 1.216,0 0.567,2.32 1.812,0 0.596,-2.32 1.221,0 z m -5.92,0 0,1.133 -3.092,0 0,7.345 -1.217,0 0,-8.478 4.309,0 z"
             style="fill:#231f20;fill-opacity:1;fill-rule:evenodd;stroke:none"
             id="path3481" />
        </g>
        <g
           id="g3483"
           transform="translate(438.8438,298.5503)">
          <path
             inkscape:connector-curvature="0"
             d="m 0,0 0,1.189 -3.091,0 0,2.795 1.754,0 0,1.162 -1.754,0 0,2.137 2.765,0 0,1.191 -3.984,0 L -4.31,0 0,0 z m -5.976,2.347 0,1.758 -2.17,0 0,-1.193 0.951,0 0,-0.565 c 0,-0.888 -0.297,-1.304 -0.922,-1.304 -0.654,0 -1.07,0.445 -1.248,1.277 -0.119,0.654 -0.179,1.397 -0.179,2.109 0,1.012 0.15,1.963 0.386,2.379 0.209,0.416 0.535,0.625 0.953,0.625 0.594,0 0.981,-0.386 1.01,-0.949 l 1.219,0 c -0.059,1.246 -0.981,2.141 -2.199,2.141 -0.983,0 -1.844,-0.656 -2.141,-1.549 -0.299,-0.801 -0.387,-1.664 -0.387,-2.854 0,-1.101 0.18,-2.289 0.448,-2.914 0.416,-0.953 1.158,-1.461 2.17,-1.461 0.861,0 1.544,0.45 1.871,1.196 0.179,0.353 0.238,0.713 0.238,1.304 m -7.166,3.866 c 0,-0.682 -0.385,-1.067 -1.098,-1.067 l -1.25,0 0,2.137 1.25,0 c 0.653,0 1.098,-0.412 1.098,-1.07 M -11.951,0 -13.169,4.162 c 0.8,0.297 1.218,1.043 1.218,2.051 0,1.371 -0.892,2.261 -2.23,2.261 l -2.528,0 0,-8.474 1.219,0 0,3.984 1.16,0 1.129,-3.984 1.25,0 z m -6.185,0 0,1.189 -3.092,0 0,2.795 1.756,0 0,1.162 -1.756,0 0,2.137 2.766,0 0,1.191 -3.985,0 0,-8.474 4.311,0 z m -6.153,0 0,8.474 -1.22,0 -1.576,-4.757 -1.575,4.757 -1.22,0 0,-8.474 1.22,0 0,4.758 1.575,-4.758 1.576,4.758 0,-4.758 1.22,0 z"
             style="fill:#231f20;fill-opacity:1;fill-rule:evenodd;stroke:none"
             id="path3485" />
        </g>
        <g
           id="g3487"
           transform="translate(434.0958,291.0633)">
          <path
             inkscape:connector-curvature="0"
             d="m 0,0 0,1.129 -4.312,0 0,-1.129 1.547,0 0,-7.341 1.219,0 0,7.341 L 0,0 z m -4.816,-0.058 0,1.187 -4.311,0 0,-8.47 1.219,0 0,3.982 1.694,0 0,1.158 -1.694,0 0,2.143 3.092,0 z m -5.738,-7.283 0,1.187 -3.092,0 0,2.795 1.754,0 0,1.158 -1.754,0 0,2.143 2.766,0 0,1.187 -3.985,0 0,-8.47 4.311,0 z m -5.471,0 0,1.129 -3.092,0 0,7.341 -1.22,0 0,-8.47 4.312,0 z"
             style="fill:#231f20;fill-opacity:1;fill-rule:evenodd;stroke:none"
             id="path3489" />
        </g>
      </g>
    </g>
  </g>
</svg>
