<?xml version="1.0" encoding="UTF-8" standalone="no"?>
<!-- Created with Inkscape (http://www.inkscape.org/) -->

<svg
   xmlns:dc="http://purl.org/dc/elements/1.1/"
   xmlns:cc="http://creativecommons.org/ns#"
   xmlns:rdf="http://www.w3.org/1999/02/22-rdf-syntax-ns#"
   xmlns:svg="http://www.w3.org/2000/svg"
   xmlns="http://www.w3.org/2000/svg"
   xmlns:sodipodi="http://sodipodi.sourceforge.net/DTD/sodipodi-0.dtd"
   xmlns:inkscape="http://www.inkscape.org/namespaces/inkscape"
   width="90.625"
   height="270.625"
   id="svg5882"
   version="1.1"
   inkscape:version="0.48.2 r9819"
   sodipodi:docname="New document 31">
  <defs
     id="defs5884" />
  <sodipodi:namedview
     id="base"
     pagecolor="#ffffff"
     bordercolor="#666666"
     borderopacity="1.0"
     inkscape:pageopacity="0.0"
     inkscape:pageshadow="2"
     inkscape:zoom="0.35"
     inkscape:cx="100.3125"
     inkscape:cy="21.026787"
     inkscape:document-units="px"
     inkscape:current-layer="layer1"
     showgrid="false"
     fit-margin-top="0"
     fit-margin-left="0"
     fit-margin-right="0"
     fit-margin-bottom="0"
     inkscape:window-width="469"
     inkscape:window-height="425"
     inkscape:window-x="1441"
     inkscape:window-y="75"
     inkscape:window-maximized="0" />
  <metadata
     id="metadata5887">
    <rdf:RDF>
      <cc:Work
         rdf:about="">
        <dc:format>image/svg+xml</dc:format>
        <dc:type
           rdf:resource="http://purl.org/dc/dcmitype/StillImage" />
        <dc:title></dc:title>
      </cc:Work>
    </rdf:RDF>
  </metadata>
  <g
     inkscape:label="Layer 1"
     inkscape:groupmode="layer"
     id="layer1"
     transform="translate(-274.6875,-282.76397)">
    <g
       id="g3563"
       transform="matrix(1.25,0,0,-1.25,365,541.82647)">
      <path
         d="m 0,0 c 0,-4.97 -4.03,-9 -9,-9 l -54,0 c -4.971,0 -9,4.03 -9,9 l 0,198 c 0,4.971 4.029,9 9,9 l 54,0 c 4.97,0 9,-4.029 9,-9 L 0,0 z"
         style="fill:#b5dc17;fill-opacity:1;fill-rule:evenodd;stroke:none"
         id="path3565"
         inkscape:connector-curvature="0" />
    </g>
    <g
       id="g3567"
       transform="matrix(1.25,0,0,-1.25,365,541.82647)">
      <path
         d="m 0,0 c 0,-4.97 -4.03,-9 -9,-9 l -54,0 c -4.971,0 -9,4.03 -9,9 l 0,198 c 0,4.971 4.029,9 9,9 l 54,0 c 4.97,0 9,-4.029 9,-9 L 0,0 z"
         style="fill:none;stroke:#231f20;stroke-width:0.5;stroke-linecap:butt;stroke-linejoin:miter;stroke-miterlimit:4;stroke-opacity:1;stroke-dasharray:none"
         id="path3569"
         inkscape:connector-curvature="0" />
    </g>
    <g
       id="g3571"
       transform="matrix(1.25,0,0,-1.25,289.99999,331.86522)">
      <path
         d="m 0,0 48,0 c 3.304,0 6,-2.696 6,-6 l 0,-132.002 c 0,-3.303 -2.696,-6 -6,-6 l -48,0 c -3.305,0 -6,2.697 -6,6 L -6,-6 c 0,3.304 2.695,6 6,6"
         style="fill:#231f20;fill-opacity:1;fill-rule:evenodd;stroke:none"
         id="path3573"
         inkscape:connector-curvature="0" />
    </g>
    <g
       id="g3575"
       transform="matrix(1.25,0,0,-1.25,290.02374,333.74022)">
      <path
         d="m 0,0 11.852,0 22.484,0 13.518,0 c 2.08,0 4.014,-1.362 4.498,-3.435 0.156,-0.676 0.129,-1.357 0.129,-2.044 l 0,-8.956 0,-16.26 0,-20.97 0,-23.09 0,-22.616 0,-19.553 0,-13.894 0,-5.645 c 0,-2.201 -1.627,-4.15 -3.817,-4.486 -1.123,-0.172 -2.338,-0.053 -3.467,-0.053 l -19.062,0 -20.875,0 -4.992,0 c -1.909,0 -3.664,0.942 -4.434,2.756 -0.348,0.818 -0.353,1.652 -0.353,2.514 l 0,3.172 0,12.562 0,18.701 0,22.245 0,23.198 0,21.558 0,17.326 0,10.502 0,1.883 c 0,1.98 1.234,3.723 3.111,4.363 C -0.955,-0.067 -0.476,-0.005 0,0"
         style="fill:#ffffff;fill-opacity:1;fill-rule:evenodd;stroke:none"
         id="path3577"
         inkscape:connector-curvature="0" />
    </g>
    <g
       id="g3579"
       transform="matrix(1.25,0,0,-1.25,300.91499,304.71148)">
      <path
         d="m 0,0 c -0.666,-0.59 -1.582,-0.926 -2.582,-0.926 -2.042,0 -3.541,1.22 -4.333,3.03 l 1.792,0.673 c 0.499,-1.136 1.416,-1.767 2.541,-1.767 1.082,0 1.832,0.757 1.832,1.767 0,1.599 -1.832,1.852 -3.374,2.483 -0.708,0.294 -2.291,1.01 -2.291,2.987 0,2.357 1.583,3.241 3.708,3.241 1.666,0 2.791,-0.968 3.374,-2.441 L -1,8.542 c 0,0 -0.416,1.01 -1.749,1.052 C -3.624,9.636 -4.666,9.3 -4.582,8.205 -4.416,5.975 1.167,7.448 1.167,2.735 1.167,1.641 0.75,0.673 0,0"
         style="fill:#231f20;fill-opacity:1;fill-rule:nonzero;stroke:none"
         id="path3581"
         inkscape:connector-curvature="0" />
    </g>
    <g
       id="g3583"
       transform="matrix(1.25,0,0,-1.25,309.24762,292.71897)">
      <path
         d="m 0,0 0,-10.31 -1.875,0 0,10.31 -2.707,0 0,1.683 7.332,0 L 2.75,0 0,0 z"
         style="fill:#231f20;fill-opacity:1;fill-rule:nonzero;stroke:none"
         id="path3585"
         inkscape:connector-curvature="0" />
    </g>
    <g
       id="g3587"
       transform="matrix(1.25,0,0,-1.25,319.87,294.77022)">
      <path
         d="m 0,0 -1.209,-3.366 2.375,0 L 0,0 z m 3,-8.669 -1.167,3.367 -3.708,0 -1.166,-3.367 -2,0 4.082,11.993 1.875,0 4.083,-11.993 -1.999,0 z"
         style="fill:#231f20;fill-opacity:1;fill-rule:nonzero;stroke:none"
         id="path3589"
         inkscape:connector-curvature="0" />
    </g>
    <g
       id="g3591"
       transform="matrix(1.25,0,0,-1.25,332.78499,292.71897)">
      <path
         d="m 0,0 0,-10.31 -1.875,0 0,10.31 -2.708,0 0,1.683 7.332,0 L 2.749,0 0,0 z"
         style="fill:#231f20;fill-opacity:1;fill-rule:nonzero;stroke:none"
         id="path3593"
         inkscape:connector-curvature="0" />
    </g>
    <g
       id="g3595"
       transform="matrix(1.25,0,0,-1.25,338.40875,305.60648)">
      <path
         d="m 0,0 0,11.993 6.999,0 0,-1.893 -5.125,0 0,-2.946 3.459,0 0,-1.936 -3.459,0 0,-3.282 5.5,0 L 7.374,0 0,0 z"
         style="fill:#231f20;fill-opacity:1;fill-rule:nonzero;stroke:none"
         id="path3597"
         inkscape:connector-curvature="0" />
    </g>
    <g
       id="g3599"
       transform="matrix(1.25,0,0,-1.25,289.02374,537.40523)">
      <path
         d="m 0,0 c -0.126,0.883 -0.473,1.293 -1.073,1.293 -1.041,0 -1.42,-0.82 -1.42,-3.156 0,-2.588 0.442,-3.629 1.547,-3.629 0.758,0 0.946,0.631 0.946,1.293 l 1.294,0 c -0.031,-1.482 -0.978,-2.554 -2.24,-2.554 -1.926,0 -2.777,1.544 -2.777,4.859 0,2.904 0.915,4.449 2.681,4.449 0.727,0 1.358,-0.314 1.768,-0.914 C 1.074,1.2 1.2,0.821 1.294,0 L 0,0 z"
         style="fill:#231f20;fill-opacity:1;fill-rule:nonzero;stroke:none"
         id="path3601"
         inkscape:connector-curvature="0" />
    </g>
    <g
       id="g3603"
       transform="matrix(1.25,0,0,-1.25,296.16375,535.98648)">
      <path
         d="m 0,0 -1.325,0 0,-2.271 1.325,0 c 0.758,0 1.168,0.41 1.168,1.136 C 1.168,-0.441 0.695,0 0,0 m 1.106,-7.732 -1.2,4.23 -1.231,0 0,-4.23 -1.294,0 0,8.996 2.683,0 c 1.421,0 2.367,-0.947 2.367,-2.399 0,-1.074 -0.443,-1.863 -1.294,-2.177 l 1.294,-4.42 -1.325,0 z"
         style="fill:#231f20;fill-opacity:1;fill-rule:nonzero;stroke:none"
         id="path3605"
         inkscape:connector-curvature="0" />
    </g>
    <g
       id="g3607"
       transform="matrix(1.25,0,0,-1.25,305.59249,537.20898)">
      <path
         d="m 0,0 c -0.221,0.789 -0.568,1.136 -1.104,1.136 -0.568,0 -0.915,-0.347 -1.136,-1.105 -0.221,-0.693 -0.285,-1.293 -0.285,-2.303 0,-0.978 0.095,-1.547 0.285,-2.271 0.221,-0.758 0.568,-1.106 1.136,-1.106 0.536,0 0.883,0.348 1.104,1.106 0.221,0.724 0.284,1.261 0.284,2.302 C 0.284,-1.231 0.19,-0.662 0,0 M 1.01,-5.366 C 0.569,-6.438 -0.095,-6.91 -1.104,-6.91 c -1.074,0 -1.704,0.472 -2.146,1.544 -0.379,0.885 -0.506,1.737 -0.506,3.125 0,1.358 0.127,2.272 0.506,3.125 0.473,1.073 1.104,1.514 2.146,1.514 1.042,0 1.673,-0.441 2.114,-1.545 0.379,-0.885 0.506,-1.736 0.506,-3.094 0,-1.388 -0.127,-2.271 -0.506,-3.125"
         style="fill:#231f20;fill-opacity:1;fill-rule:nonzero;stroke:none"
         id="path3609"
         inkscape:connector-curvature="0" />
    </g>
    <g
       id="g3611"
       transform="matrix(1.25,0,0,-1.25,312.33875,545.84647)">
      <path
         d="m 0,0 c -1.578,0 -2.526,1.324 -2.526,2.808 l 1.264,0 c 0,-0.758 0.378,-1.547 1.262,-1.547 0.694,0 1.261,0.631 1.261,1.358 0,0.504 -0.188,0.883 -0.724,1.293 -0.19,0.189 0.314,-0.159 -1.516,1.074 -0.725,0.504 -1.104,1.199 -1.104,1.988 0,1.293 1.01,2.334 2.303,2.334 1.263,0 2.242,-0.978 2.273,-2.334 l -1.232,0 C 1.23,7.605 0.789,8.015 0.22,8.015 -0.379,8.015 -0.852,7.574 -0.852,6.974 -0.852,6.531 -0.662,6.279 0,5.9 1.736,4.89 2.493,3.912 2.493,2.619 2.493,1.166 1.388,0 0,0"
         style="fill:#231f20;fill-opacity:1;fill-rule:nonzero;stroke:none"
         id="path3613"
         inkscape:connector-curvature="0" />
    </g>
    <g
       id="g3615"
       transform="matrix(1.25,0,0,-1.25,319.95137,545.84647)">
      <path
         d="m 0,0 c -1.577,0 -2.524,1.324 -2.524,2.808 l 1.262,0 c 0,-0.758 0.379,-1.547 1.262,-1.547 0.695,0 1.263,0.631 1.263,1.358 0,0.504 -0.189,0.883 -0.726,1.293 -0.19,0.189 0.316,-0.159 -1.514,1.074 -0.727,0.504 -1.106,1.199 -1.106,1.988 0,1.293 1.01,2.334 2.305,2.334 1.262,0 2.24,-0.978 2.272,-2.334 l -1.231,0 C 1.232,7.605 0.79,8.015 0.222,8.015 -0.377,8.015 -0.852,7.574 -0.852,6.974 -0.852,6.531 -0.663,6.279 0,5.9 1.736,4.89 2.494,3.912 2.494,2.619 2.494,1.166 1.39,0 0,0"
         style="fill:#231f20;fill-opacity:1;fill-rule:nonzero;stroke:none"
         id="path3617"
         inkscape:connector-curvature="0" />
    </g>
    <g
       id="g3619"
       transform="matrix(1.25,0,0,-1.25,330.80012,545.65147)">
      <path
         d="M 0,0 -1.104,0 -1.957,4.703 -2.808,0 l -1.137,0 -1.42,8.996 1.263,0 0.756,-4.799 0.885,4.799 1.01,0 0.852,-4.799 0.789,4.799 1.261,0 L 0,0 z"
         style="fill:#231f20;fill-opacity:1;fill-rule:nonzero;stroke:none"
         id="path3621"
         inkscape:connector-curvature="0" />
    </g>
    <g
       id="g3623"
       transform="matrix(1.25,0,0,-1.25,336.835,537.76147)">
      <path
         d="m 0,0 -0.631,-2.588 1.293,0 L 0,0 z m 1.61,-6.312 -0.631,2.463 -1.926,0 -0.6,-2.463 -1.293,0 2.241,8.996 1.261,0 2.242,-8.996 -1.294,0 z"
         style="fill:#231f20;fill-opacity:1;fill-rule:nonzero;stroke:none"
         id="path3625"
         inkscape:connector-curvature="0" />
    </g>
    <g
       id="g3627"
       transform="matrix(1.25,0,0,-1.25,342.00374,545.65147)">
      <path
         d="m 0,0 0,8.996 1.293,0 0,-7.797 3.283,0 L 4.576,0 0,0 z"
         style="fill:#231f20;fill-opacity:1;fill-rule:nonzero;stroke:none"
         id="path3629"
         inkscape:connector-curvature="0" />
    </g>
    <g
       id="g3631"
       transform="matrix(1.25,0,0,-1.25,353.91637,545.65147)">
      <path
         d="m 0,0 -1.577,4.387 -0.821,-1.514 0,-2.873 -1.294,0 0,8.996 1.294,0 0,-3.598 2.052,3.598 1.482,0 L -0.725,5.84 1.357,0 0,0 z"
         style="fill:#231f20;fill-opacity:1;fill-rule:nonzero;stroke:none"
         id="path3633"
         inkscape:connector-curvature="0" />
    </g>
    <g
       id="g3635"
       transform="matrix(1.25,0,0,-1.25,301.58375,326.21148)">
      <path
         d="m 0,0 0,11.992 1.895,0 0,-10.225 5.554,0 L 7.449,0 0,0 z"
         style="fill:#231f20;fill-opacity:1;fill-rule:nonzero;stroke:none"
         id="path3637"
         inkscape:connector-curvature="0" />
    </g>
    <g
       id="g3639"
       transform="matrix(1.25,0,0,-1.25,318.15387,315.37647)">
      <path
         d="m 0,0 -1.221,-3.366 2.399,0 L 0,0 z m 3.029,-8.668 -1.177,3.366 -3.747,0 -1.177,-3.366 -2.02,0 4.123,11.992 1.895,0 4.123,-11.992 -2.02,0 z"
         style="fill:#231f20;fill-opacity:1;fill-rule:nonzero;stroke:none"
         id="path3641"
         inkscape:connector-curvature="0" />
    </g>
    <g
       id="g3643"
       transform="matrix(1.25,0,0,-1.25,336.51125,326.21148)">
      <path
         d="M 0,0 -1.684,0 -3.579,7.7 -5.43,0 l -1.683,0 -1.766,11.992 1.935,0 0.926,-6.312 1.514,6.312 1.851,0 1.558,-6.312 0.926,6.312 1.935,0 L 0,0 z"
         style="fill:#231f20;fill-opacity:1;fill-rule:nonzero;stroke:none"
         id="path3645"
         inkscape:connector-curvature="0" />
    </g>
    <g
       id="g3647"
       transform="matrix(1.25,0,0,-1.25,306.98374,528.76647)">
      <path
         d="M 0,0 -1.105,0 -1.957,4.701 -2.808,0 l -1.137,0 -1.42,8.994 1.262,0 0.758,-4.797 0.884,4.797 1.01,0 0.852,-4.797 0.789,4.797 1.262,0 L 0,0 z"
         style="fill:#231f20;fill-opacity:1;fill-rule:nonzero;stroke:none"
         id="path3649"
         inkscape:connector-curvature="0" />
    </g>
    <path
       d="m 310.33662,517.5241 1.58,0 0,11.2425 -1.58,0 0,-11.2425 z"
       style="fill:#231f20;fill-opacity:1;fill-rule:nonzero;stroke:none"
       id="path3651"
       inkscape:connector-curvature="0" />
    <g
       id="g3653"
       transform="matrix(1.25,0,0,-1.25,317.20124,519.02273)">
      <path
         d="m 0,0 0,-7.795 -1.295,0 0,7.795 -1.64,0 0,1.199 4.576,0 L 1.641,0 0,0 z"
         style="fill:#231f20;fill-opacity:1;fill-rule:nonzero;stroke:none"
         id="path3655"
         inkscape:connector-curvature="0" />
    </g>
    <g
       id="g3657"
       transform="matrix(1.25,0,0,-1.25,325.485,528.76647)">
      <path
         d="m 0,0 0,4.07 -2.462,0 0,-4.07 -1.294,0 0,8.994 1.294,0 0,-3.662 2.462,0 0,3.662 1.294,0 L 1.294,0 0,0 z"
         style="fill:#231f20;fill-opacity:1;fill-rule:nonzero;stroke:none"
         id="path3659"
         inkscape:connector-curvature="0" />
    </g>
    <path
       d="m 329.54787,517.5241 1.5775,0 0,11.2425 -1.5775,0 0,-11.2425 z"
       style="fill:#231f20;fill-opacity:1;fill-rule:nonzero;stroke:none"
       id="path3661"
       inkscape:connector-curvature="0" />
    <g
       id="g3663"
       transform="matrix(1.25,0,0,-1.25,338.7,528.76647)">
      <path
         d="m 0,0 -2.777,6.027 0,-6.027 -1.294,0 0,8.994 1.294,0 2.461,-5.397 0,5.397 1.295,0 L 0.979,0 0,0 z"
         style="fill:#231f20;fill-opacity:1;fill-rule:nonzero;stroke:none"
         id="path3665"
         inkscape:connector-curvature="0" />
    </g>
    <g
       id="g3667"
       transform="matrix(1.25,0,0,-1.25,331.29375,439.46772)">
      <path
         d="m 0,0 c -0.034,-1.275 -0.561,-2.344 -1.622,-3.077 -1.233,-0.851 -2.882,-0.824 -4.115,0.018 -1.005,0.686 -1.623,1.841 -1.621,3.059 0,1.481 0.907,2.83 2.263,3.412 1.142,0.487 2.453,0.365 3.48,-0.335 C -0.615,2.394 0.029,1.218 0,0"
         style="fill:#231f20;fill-opacity:1;fill-rule:evenodd;stroke:none"
         id="path3669"
         inkscape:connector-curvature="0" />
    </g>
    <g
       id="g3671"
       transform="matrix(1.25,0,0,-1.25,312.46762,447.80285)">
      <path
         d="m 0,0 c -0.043,-1.433 -0.867,-2.666 -2.193,-3.233 -1.55,-0.662 -3.338,-0.064 -4.256,1.331 -0.897,1.362 -0.688,3.243 0.458,4.392 1.145,1.151 3.03,1.342 4.392,0.453 C -0.648,2.319 0.034,1.156 0,0"
         style="fill:#231f20;fill-opacity:1;fill-rule:evenodd;stroke:none"
         id="path3673"
         inkscape:connector-curvature="0" />
    </g>
    <g
       id="g3675"
       transform="matrix(1.25,0,0,-1.25,333.61262,453.99272)">
      <path
         d="M 0,0 2.477,-3.782 1.858,-6.118 1.031,-6.327 0,0 z m -16.09,-8.46 -0.757,-0.135 0.689,3.096 0.618,-1.307 -0.55,-1.654 z m 17.878,-3.916 5.64,1.648 -1.516,5.5 -1.441,-0.203 0.48,2.957 -4.609,8.733 -2.475,1.099 -0.411,0.96 C -2.853,8.071 -3.176,7.86 -3.541,7.709 -3.913,7.558 -4.318,7.454 -4.721,7.436 -5.008,7.424 -5.287,7.442 -5.568,7.496 l -0.139,-0.827 -1.927,-1.787 -2.405,-8.113 -3.506,-1.446 -1.995,4.4 -3.024,1.719 c -0.246,-0.139 -0.494,-0.268 -0.766,-0.348 -0.252,-0.071 -0.512,-0.14 -0.777,-0.142 -0.386,-0.006 -0.77,0.044 -1.141,0.148 l -0.07,0 -2.129,-2.268 -2.133,-6.808 -4.055,-3.851 1.168,-1.1 4.813,3.164 0.619,2.541 0.757,-2.338 -3.095,-9.554 1.1,-0.348 -3.233,-12.17 1.723,-0.619 4.603,12.17 1.858,-0.139 5.09,-11.822 1.787,0.549 -3.645,11.482 c 0.369,0.082 0.733,0.186 1.104,0.268 0.325,0.074 0.644,0.178 0.961,0.281 l -1.856,5.709 4.604,1.1 -0.961,4.677 -1.099,0 0.753,1.17 -0.135,0.272 3.987,1.103 1.029,1.787 1.516,-6.326 -2.956,-9.353 -0.828,-14.235 3.233,-0.277 1.17,11.828 1.994,4.402 1.51,-6.05 5.639,-10.522 2.956,1.447 -5.293,10.932 0.55,9.422 z"
         style="fill:#231f20;fill-opacity:1;fill-rule:evenodd;stroke:none"
         id="path3677"
         inkscape:connector-curvature="0" />
    </g>
    <g
       id="g3679"
       transform="matrix(1.25,0,0,-1.25,290.5,364.0041)">
      <path
         d="m 0,0 13.695,13.69 19.34,0 L 46.75,0 l 0,-19.369 -13.715,-13.69 -19.34,0 L 0,-19.369 0,0 z"
         style="fill:#bf2519;fill-opacity:1;fill-rule:evenodd;stroke:none"
         id="path3681"
         inkscape:connector-curvature="0" />
    </g>
    <g
       id="g3683"
       transform="matrix(1.25,0,0,-1.25,298.58625,386.70773)">
      <path
         d="m 0,0 c -2.871,0 -4.594,2.412 -4.594,5.11 l 2.297,0 c 0,-1.377 0.689,-2.813 2.297,-2.813 1.263,0 2.297,1.148 2.297,2.469 0,0.919 -0.344,1.608 -1.321,2.355 -0.344,0.344 0.574,-0.287 -2.757,1.952 -1.321,0.919 -2.009,2.182 -2.009,3.618 0,2.354 1.837,4.25 4.192,4.25 2.297,0 4.077,-1.781 4.135,-4.25 l -2.24,0 c -0.057,1.148 -0.862,1.895 -1.895,1.895 -1.092,0 -1.953,-0.804 -1.953,-1.895 0,-0.804 0.345,-1.263 1.551,-1.953 C 3.158,8.901 4.537,7.121 4.537,4.766 4.537,2.125 2.527,0 0,0"
         style="fill:#ffffff;fill-opacity:1;fill-rule:nonzero;stroke:none"
         id="path3685"
         inkscape:connector-curvature="0" />
    </g>
    <g
       id="g3687"
       transform="matrix(1.25,0,0,-1.25,312.79875,368.61897)">
      <path
         d="m 0,0 0,-14.184 -2.355,0 0,14.184 -2.986,0 0,2.182 8.327,0 L 2.986,0 0,0 z"
         style="fill:#ffffff;fill-opacity:1;fill-rule:nonzero;stroke:none"
         id="path3689"
         inkscape:connector-curvature="0" />
    </g>
    <g
       id="g3691"
       transform="matrix(1.25,0,0,-1.25,327.51374,370.98773)">
      <path
         d="m 0,0 c -0.402,1.436 -1.034,2.068 -2.01,2.068 -1.034,0 -1.666,-0.632 -2.068,-2.01 -0.402,-1.264 -0.516,-2.355 -0.516,-4.193 0,-1.78 0.172,-2.813 0.516,-4.134 0.402,-1.379 1.034,-2.01 2.068,-2.01 0.976,0 1.608,0.631 2.01,2.01 0.402,1.321 0.516,2.297 0.516,4.192 C 0.516,-2.239 0.344,-1.206 0,0 m 1.837,-9.762 c -0.804,-1.953 -2.01,-2.814 -3.847,-2.814 -1.953,0 -3.101,0.861 -3.906,2.814 -0.688,1.607 -0.918,3.158 -0.918,5.685 0,2.469 0.23,4.135 0.918,5.685 0.862,1.953 2.01,2.757 3.906,2.757 1.895,0 3.043,-0.804 3.847,-2.814 0.69,-1.608 0.919,-3.159 0.919,-5.628 0,-2.527 -0.229,-4.135 -0.919,-5.685"
         style="fill:#ffffff;fill-opacity:1;fill-rule:nonzero;stroke:none"
         id="path3693"
         inkscape:connector-curvature="0" />
    </g>
    <g
       id="g3695"
       transform="matrix(1.25,0,0,-1.25,341.0075,368.76147)">
      <path
         d="m 0,0 -2.411,0 0,-4.652 2.411,0 c 1.379,0 2.125,0.861 2.125,2.354 C 2.125,-0.919 1.264,0 0,0 m 0.115,-6.892 -2.526,0 0,-7.178 -2.354,0 0,16.366 4.88,0 c 2.584,0 4.307,-1.837 4.307,-4.594 0,-2.986 -1.55,-4.594 -4.307,-4.594"
         style="fill:#ffffff;fill-opacity:1;fill-rule:nonzero;stroke:none"
         id="path3697"
         inkscape:connector-curvature="0" />
    </g>
    <g
       id="g3699"
       transform="matrix(1.25,0,0,-1.25,306.72499,425.60522)">
      <path
         d="m 0,0 0,9 5.58,0 0,-1.438 -4.142,0 0,-2.166 2.701,0 0,-1.438 -2.701,0 L 1.438,0 0,0 z"
         style="fill:#231f20;fill-opacity:1;fill-rule:nonzero;stroke:none"
         id="path3701"
         inkscape:connector-curvature="0" />
    </g>
    <g
       id="g3703"
       transform="matrix(1.25,0,0,-1.25,321.35012,419.98022)">
      <path
         d="M 0,0 C 0,0.92 -0.135,1.656 -0.405,2.209 -0.711,2.841 -1.161,3.156 -1.754,3.156 -2.355,3.156 -2.805,2.841 -3.105,2.209 -3.375,1.662 -3.51,0.926 -3.51,0 c 0,-0.92 0.135,-1.656 0.405,-2.209 0.306,-0.631 0.756,-0.947 1.351,-0.947 0.593,0 1.043,0.316 1.349,0.947 C -0.135,-1.656 0,-0.92 0,0 m 1.437,0 c 0,-1.213 -0.215,-2.225 -0.646,-3.035 -0.559,-1.039 -1.407,-1.559 -2.545,-1.559 -1.147,0 -1.994,0.52 -2.546,1.559 -0.432,0.804 -0.648,1.816 -0.648,3.035 0,1.219 0.216,2.231 0.648,3.036 0.552,1.038 1.399,1.558 2.546,1.558 1.138,0 1.986,-0.52 2.545,-1.558 C 1.222,2.225 1.437,1.213 1.437,0"
         style="fill:#231f20;fill-opacity:1;fill-rule:nonzero;stroke:none"
         id="path3705"
         inkscape:connector-curvature="0" />
    </g>
    <g
       id="g3707"
       transform="matrix(1.25,0,0,-1.25,331.32762,417.48397)">
      <path
         d="m 0,0 c 0,0.301 -0.101,0.554 -0.302,0.759 -0.201,0.204 -0.452,0.306 -0.752,0.306 l -2.071,0 0,-2.166 2.071,0 c 0.3,0 0.551,0.107 0.752,0.32 C -0.101,-0.567 0,-0.307 0,0 m 1.557,-6.497 -1.522,0 -1.449,3.958 -1.711,0 0,-3.958 -1.437,0 0,9 3.499,0 c 0.689,0 1.278,-0.245 1.767,-0.733 0.489,-0.489 0.734,-1.079 0.734,-1.769 0,-1.008 -0.477,-1.764 -1.428,-2.268 l 1.547,-4.23 z"
         style="fill:#231f20;fill-opacity:1;fill-rule:nonzero;stroke:none"
         id="path3709"
         inkscape:connector-curvature="0" />
    </g>
  </g>
</svg>
