<?xml version="1.0" encoding="UTF-8" standalone="no"?>
<!-- Created with Inkscape (http://www.inkscape.org/) -->

<svg
   xmlns:dc="http://purl.org/dc/elements/1.1/"
   xmlns:cc="http://creativecommons.org/ns#"
   xmlns:rdf="http://www.w3.org/1999/02/22-rdf-syntax-ns#"
   xmlns:svg="http://www.w3.org/2000/svg"
   xmlns="http://www.w3.org/2000/svg"
   xmlns:sodipodi="http://sodipodi.sourceforge.net/DTD/sodipodi-0.dtd"
   xmlns:inkscape="http://www.inkscape.org/namespaces/inkscape"
   width="60.625"
   height="45.625"
   id="svg9625"
   version="1.1"
   inkscape:version="0.48.3.1 r9886"
   sodipodi:docname="New document 63">
  <defs
     id="defs9627" />
  <sodipodi:namedview
     id="base"
     pagecolor="#ffffff"
     bordercolor="#666666"
     borderopacity="1.0"
     inkscape:pageopacity="0.0"
     inkscape:pageshadow="2"
     inkscape:zoom="0.35"
     inkscape:cx="30.31125"
     inkscape:cy="22.812497"
     inkscape:document-units="px"
     inkscape:current-layer="layer1"
     showgrid="false"
     fit-margin-top="0"
     fit-margin-left="0"
     fit-margin-right="0"
     fit-margin-bottom="0"
     inkscape:window-width="451"
     inkscape:window-height="398"
     inkscape:window-x="25"
     inkscape:window-y="25"
     inkscape:window-maximized="0" />
  <metadata
     id="metadata9630">
    <rdf:RDF>
      <cc:Work
         rdf:about="">
        <dc:format>image/svg+xml</dc:format>
        <dc:type
           rdf:resource="http://purl.org/dc/dcmitype/StillImage" />
        <dc:title></dc:title>
      </cc:Work>
    </rdf:RDF>
  </metadata>
  <g
     inkscape:label="Layer 1"
     inkscape:groupmode="layer"
     id="layer1"
     transform="translate(-344.68875,-509.54968)">
    <g
       id="g4453"
       transform="matrix(1.25,0,0,-1.25,405.00125,552.36218)">
      <path
         d="m 0,0 c 0,-1.105 -0.896,-2.001 -2,-2.001 l -44.002,0 c -1.103,0 -2,0.896 -2,2.001 l 0,32.001 c 0,1.103 0.897,2 2,2 l 44.002,0 c 1.104,0 2,-0.897 2,-2 L 0,0 z"
         style="fill:#ffffff;fill-opacity:1;fill-rule:nonzero;stroke:none"
         id="path4455"
         inkscape:connector-curvature="0" />
    </g>
    <g
       id="g4457"
       transform="matrix(1.25,0,0,-1.25,405.00125,552.36218)">
      <path
         d="m 0,0 c 0,-1.105 -0.896,-2.001 -2,-2.001 l -44.002,0 c -1.103,0 -2,0.896 -2,2.001 l 0,32.001 c 0,1.103 0.897,2 2,2 l 44.002,0 c 1.104,0 2,-0.897 2,-2 L 0,0 z"
         style="fill:none;stroke:#231f20;stroke-width:0.5;stroke-linecap:butt;stroke-linejoin:miter;stroke-miterlimit:4;stroke-opacity:1;stroke-dasharray:none"
         id="path4459"
         inkscape:connector-curvature="0" />
    </g>
    <g
       id="g4461"
       transform="matrix(1.25,0,0,-1.25,403.12625,552.36218)">
      <path
         d="m 0,0 c 0,-0.277 -0.226,-0.501 -0.5,-0.501 l -44.002,0 c -0.274,0 -0.5,0.224 -0.5,0.501 l 0,32.001 c 0,0.274 0.226,0.5 0.5,0.5 l 44.002,0 c 0.274,0 0.5,-0.226 0.5,-0.5 L 0,0 z m -0.5,33.251 -44.002,0 c -0.689,0 -1.25,-0.561 -1.25,-1.25 l 0,-32.001 c 0,-0.69 0.561,-1.251 1.25,-1.251 l 44.002,0 c 0.689,0 1.25,0.561 1.25,1.251 l 0,32.001 c 0,0.689 -0.561,1.25 -1.25,1.25"
         style="fill:#231f20;fill-opacity:1;fill-rule:nonzero;stroke:none"
         id="path4463"
         inkscape:connector-curvature="0" />
    </g>
    <g
       id="g4465"
       transform="matrix(1.25,0,0,-1.25,359.1565,518.90967)">
      <path
         d="m 0,0 0,-1.963 2.329,0 0,-1.29 -2.329,0 0,-3.478 -1.262,0 0,7.994 4.965,0 L 3.703,0 0,0 z"
         style="fill:#231f20;fill-opacity:1;fill-rule:nonzero;stroke:none"
         id="path4467"
         inkscape:connector-curvature="0" />
    </g>
    <path
       d="m 365.25725,517.3308 1.61375,0 0,9.9925 -1.61375,0 0,-9.9925 z"
       style="fill:#231f20;fill-opacity:1;fill-rule:nonzero;stroke:none"
       id="path4469"
       inkscape:connector-curvature="0" />
    <g
       id="g4471"
       transform="matrix(1.25,0,0,-1.25,374.657,527.32355)">
      <path
         d="m 0,0 -3.058,5.413 0,-5.413 -1.263,0 0,7.994 1.263,0 2.917,-5.105 0,5.105 1.263,0 L 1.122,0 0,0 z"
         style="fill:#231f20;fill-opacity:1;fill-rule:nonzero;stroke:none"
         id="path4473"
         inkscape:connector-curvature="0" />
    </g>
    <g
       id="g4475"
       transform="matrix(1.25,0,0,-1.25,378.44237,527.32355)">
      <path
         d="m 0,0 0,7.994 4.715,0 0,-1.263 -3.451,0 0,-1.963 2.327,0 0,-1.29 -2.327,0 0,-2.188 3.703,0 L 4.967,0 0,0 z"
         style="fill:#231f20;fill-opacity:1;fill-rule:nonzero;stroke:none"
         id="path4477"
         inkscape:connector-curvature="0" />
    </g>
    <g
       id="g4479"
       transform="matrix(1.25,0,0,-1.25,391.45387,526.72718)">
      <path
         d="m 0,0 c -0.45,-0.394 -1.066,-0.619 -1.74,-0.619 -1.375,0 -2.384,0.814 -2.917,2.021 l 1.205,0.448 c 0.337,-0.757 0.955,-1.179 1.712,-1.179 0.728,0 1.235,0.506 1.235,1.179 0,1.066 -1.235,1.235 -2.272,1.655 -0.479,0.198 -1.544,0.674 -1.544,1.993 0,1.57 1.065,2.159 2.496,2.159 1.123,0 1.881,-0.644 2.273,-1.627 L -0.675,5.693 c 0,0 -0.28,0.674 -1.177,0.702 C -2.44,6.423 -3.143,6.2 -3.087,5.469 -2.974,3.983 0.785,4.964 0.785,1.822 0.785,1.093 0.504,0.448 0,0"
         style="fill:#231f20;fill-opacity:1;fill-rule:nonzero;stroke:none"
         id="path4481"
         inkscape:connector-curvature="0" />
    </g>
    <g
       id="g4483"
       transform="matrix(1.25,0,0,-1.25,357.30963,547.39217)">
      <path
         d="m 0,0 0,3.479 -2.917,0 0,-3.479 -1.263,0 0,7.995 1.263,0 0,-3.225 2.917,0 0,3.225 1.262,0 L 1.262,0 0,0 z"
         style="fill:#231f20;fill-opacity:1;fill-rule:nonzero;stroke:none"
         id="path4485"
         inkscape:connector-curvature="0" />
    </g>
    <path
       d="m 361.271,537.3983 1.615,0 0,9.99375 -1.615,0 0,-9.99375 z"
       style="fill:#231f20;fill-opacity:1;fill-rule:nonzero;stroke:none"
       id="path4487"
       inkscape:connector-curvature="0" />
    <g
       id="g4489"
       transform="matrix(1.25,0,0,-1.25,368.70612,547.56717)">
      <path
         d="m 0,0 c -1.207,0 -1.907,0.449 -2.384,1.459 -0.337,0.7 -0.534,1.683 -0.534,2.664 0,1.292 0.365,2.553 0.897,3.256 0.479,0.588 1.151,0.896 2.049,0.896 1.236,0 1.964,-0.505 2.497,-1.767 L 1.318,6.031 c -0.336,0.702 -0.673,0.954 -1.29,0.954 -0.645,0 -1.066,-0.28 -1.346,-0.981 -0.196,-0.478 -0.309,-1.206 -0.309,-1.881 0,-0.841 0.141,-1.683 0.394,-2.188 0.252,-0.448 0.616,-0.645 1.093,-0.645 0.814,0 1.404,0.506 1.404,1.234 l 0,0.337 -1.46,0 0,1.262 2.721,0 0,-1.599 C 2.525,1.065 1.459,0 0,0"
         style="fill:#231f20;fill-opacity:1;fill-rule:nonzero;stroke:none"
         id="path4491"
         inkscape:connector-curvature="0" />
    </g>
    <g
       id="g4493"
       transform="matrix(1.25,0,0,-1.25,379.2615,547.39217)">
      <path
         d="m 0,0 0,3.479 -2.918,0 0,-3.479 -1.262,0 0,7.995 1.262,0 0,-3.225 2.918,0 0,3.225 1.262,0 L 1.262,0 0,0 z"
         style="fill:#231f20;fill-opacity:1;fill-rule:nonzero;stroke:none"
         id="path4495"
         inkscape:connector-curvature="0" />
    </g>
    <g
       id="g4497"
       transform="matrix(1.25,0,0,-1.25,383.22387,547.39217)">
      <path
         d="m 0,0 0,7.995 4.713,0 0,-1.262 -3.451,0 0,-1.963 2.329,0 0,-1.291 -2.329,0 0,-2.189 3.703,0 L 4.965,0 0,0 z"
         style="fill:#231f20;fill-opacity:1;fill-rule:nonzero;stroke:none"
         id="path4499"
         inkscape:connector-curvature="0" />
    </g>
    <g
       id="g4501"
       transform="matrix(1.25,0,0,-1.25,395.49562,539.15092)">
      <path
         d="m 0,0 c -0.195,0.111 -0.308,0.14 -0.729,0.14 l -1.515,0 0,-1.963 1.515,0 c 0.394,0 0.534,0.026 0.729,0.139 0.309,0.168 0.506,0.505 0.506,0.842 C 0.506,-0.505 0.309,-0.168 0,0 m 0.561,-6.593 -1.29,3.479 -1.515,0 0,-3.479 -1.262,0 0,7.995 2.638,0 c 0.616,0 1.037,-0.056 1.429,-0.252 0.703,-0.336 1.208,-1.178 1.208,-1.992 0,-0.842 -0.505,-1.683 -1.236,-2.02 l 1.403,-3.731 -1.375,0 z"
         style="fill:#231f20;fill-opacity:1;fill-rule:nonzero;stroke:none"
         id="path4503"
         inkscape:connector-curvature="0" />
    </g>
  </g>
</svg>
