<?xml version="1.0" encoding="UTF-8" standalone="no"?>
<!-- Created with Inkscape (http://www.inkscape.org/) -->

<svg
   xmlns:dc="http://purl.org/dc/elements/1.1/"
   xmlns:cc="http://creativecommons.org/ns#"
   xmlns:rdf="http://www.w3.org/1999/02/22-rdf-syntax-ns#"
   xmlns:svg="http://www.w3.org/2000/svg"
   xmlns="http://www.w3.org/2000/svg"
   xmlns:sodipodi="http://sodipodi.sourceforge.net/DTD/sodipodi-0.dtd"
   xmlns:inkscape="http://www.inkscape.org/namespaces/inkscape"
   width="90.641747"
   height="135.61188"
   id="svg3938"
   version="1.1"
   inkscape:version="0.48.2 r9819"
   sodipodi:docname="New document 4">
  <defs
     id="defs3940">
    <clipPath
       clipPathUnits="userSpaceOnUse"
       id="clipPath3239-4">
      <path
         inkscape:connector-curvature="0"
         d="m 63,255.16 512.875,0 0,482.84 L 63,738 63,255.16 z"
         id="path3241-0" />
    </clipPath>
  </defs>
  <sodipodi:namedview
     id="base"
     pagecolor="#ffffff"
     bordercolor="#666666"
     borderopacity="1.0"
     inkscape:pageopacity="0.0"
     inkscape:pageshadow="2"
     inkscape:zoom="0.35"
     inkscape:cx="-11.116134"
     inkscape:cy="-3.6161076"
     inkscape:document-units="px"
     inkscape:current-layer="layer1"
     showgrid="false"
     fit-margin-top="0"
     fit-margin-left="0"
     fit-margin-right="0"
     fit-margin-bottom="0"
     inkscape:window-width="469"
     inkscape:window-height="425"
     inkscape:window-x="1515"
     inkscape:window-y="76"
     inkscape:window-maximized="0" />
  <metadata
     id="metadata3943">
    <rdf:RDF>
      <cc:Work
         rdf:about="">
        <dc:format>image/svg+xml</dc:format>
        <dc:type
           rdf:resource="http://purl.org/dc/dcmitype/StillImage" />
        <dc:title></dc:title>
      </cc:Work>
    </rdf:RDF>
  </metadata>
  <g
     inkscape:label="Layer 1"
     inkscape:groupmode="layer"
     id="layer1"
     transform="translate(-386.11613,-393.1342)">
    <g
       transform="matrix(1.25,0,0,-1.25,56.530134,1270.4262)"
       id="g3235">
      <g
         id="g3237"
         clip-path="url(#clipPath3239-4)">
        <g
           id="g3243"
           transform="translate(265.4947,669.1461)">
          <path
             inkscape:connector-curvature="0"
             d="m 0,0 30.817,30.816 c 0.9,1.013 2.232,1.631 3.599,1.631 1.369,0 2.719,-0.599 3.619,-1.631 L 68.85,0 c 0.994,-0.899 1.574,-2.212 1.574,-3.562 l 0,-31.191 c 0,-2.643 -2.156,-4.799 -4.799,-4.799 l -62.4,0 c -2.645,0 -4.801,2.156 -4.801,4.799 l 0,31.191 c 0,1.35 0.582,2.663 1.576,3.562"
             style="fill:#b5dc17;fill-opacity:1;fill-rule:nonzero;stroke:none"
             id="path3245" />
        </g>
        <g
           id="g3247"
           transform="translate(265.4947,669.1461)">
          <path
             inkscape:connector-curvature="0"
             d="m 0,0 30.817,30.816 c 0.9,1.013 2.232,1.631 3.599,1.631 1.369,0 2.719,-0.599 3.619,-1.631 L 68.85,0 c 0.994,-0.899 1.574,-2.212 1.574,-3.562 l 0,-31.191 c 0,-2.643 -2.156,-4.799 -4.799,-4.799 l -62.4,0 c -2.645,0 -4.801,2.156 -4.801,4.799 l 0,31.191 c 0,1.35 0.582,2.663 1.576,3.562 z"
             style="fill:none;stroke:#231f20;stroke-width:0.5;stroke-linecap:butt;stroke-linejoin:miter;stroke-miterlimit:4;stroke-opacity:1;stroke-dasharray:none"
             id="path3249" />
        </g>
        <g
           id="g3251"
           transform="translate(297.2137,699.1002)">
          <path
             inkscape:connector-curvature="0"
             d="m 0,0 0.158,0.17 c 0.395,0.387 0.83,0.664 1.346,0.86 0.09,0.031 0.178,0.06 0.27,0.087 0.599,0.158 1.164,0.165 1.767,0.026 L 3.725,1.092 C 4.344,0.897 4.867,0.582 5.315,0.11 l 30.949,-30.962 0.162,-0.154 c 0.375,-0.389 0.64,-0.818 0.826,-1.324 0.102,-0.3 0.166,-0.593 0.195,-0.908 0.006,-0.096 0.01,-0.19 0.01,-0.287 l -0.004,-31.364 c -0.013,-0.182 -0.035,-0.354 -0.068,-0.531 -0.039,-0.174 -0.086,-0.336 -0.143,-0.504 -0.109,-0.276 -0.232,-0.516 -0.392,-0.764 -0.1,-0.142 -0.203,-0.273 -0.317,-0.404 -0.203,-0.213 -0.406,-0.389 -0.646,-0.559 -0.147,-0.095 -0.291,-0.178 -0.446,-0.258 -0.273,-0.123 -0.531,-0.211 -0.822,-0.277 -0.178,-0.033 -0.349,-0.055 -0.531,-0.068 l -62.566,-0.004 c -0.19,0.004 -0.368,0.015 -0.555,0.041 -0.176,0.031 -0.342,0.068 -0.514,0.117 -0.281,0.096 -0.527,0.207 -0.783,0.355 -0.146,0.094 -0.283,0.192 -0.42,0.299 -0.223,0.192 -0.408,0.387 -0.59,0.617 -0.099,0.143 -0.189,0.284 -0.277,0.434 -0.137,0.266 -0.234,0.516 -0.317,0.803 -0.041,0.176 -0.07,0.344 -0.093,0.521 l -0.02,0.379 0.002,31.268 0.01,0.186 c 0.059,0.636 0.26,1.202 0.611,1.734 0.143,0.205 0.297,0.388 0.475,0.563 L 0,0 z"
             style="fill:#231f20;fill-opacity:1;fill-rule:evenodd;stroke:none"
             id="path3253" />
        </g>
        <g
           id="g3255"
           transform="translate(298.6027,697.7729)">
          <path
             inkscape:connector-curvature="0"
             d="M 0,0 0.135,0.146 C 0.414,0.421 0.761,0.595 1.15,0.644 1.654,0.692 2.166,0.502 2.515,0.135 l 31.028,-31.042 0.131,-0.123 c 0.312,-0.324 0.468,-0.731 0.474,-1.18 l -0.002,-31.254 -0.017,-0.164 c -0.075,-0.415 -0.262,-0.735 -0.58,-1.01 -0.196,-0.155 -0.387,-0.254 -0.627,-0.323 -0.153,-0.035 -0.289,-0.046 -0.446,-0.05 l -62.445,0.002 -0.162,0.017 c -0.414,0.074 -0.734,0.262 -1.01,0.578 -0.154,0.198 -0.254,0.389 -0.322,0.629 -0.035,0.153 -0.049,0.289 -0.053,0.446 l 0.002,31.192 c 0.018,0.435 0.191,0.839 0.504,1.145 L 0,0 z"
             style="fill:#b5dc17;fill-opacity:1;fill-rule:evenodd;stroke:none"
             id="path3257" />
        </g>
        <g
           id="g3259"
           transform="translate(297.7687,665.608)">
          <path
             inkscape:connector-curvature="0"
             d="m 0,0 0.129,-0.264 -0.729,-1.13 1.065,0 0.931,-4.532 -4.461,-1.064 1.799,-5.529 c -0.306,-0.1 -0.615,-0.202 -0.93,-0.274 -0.359,-0.078 -0.712,-0.18 -1.07,-0.258 l 3.529,-11.119 -1.73,-0.531 -4.93,11.449 -1.797,0.135 -4.459,-11.787 -1.669,0.599 3.13,11.786 -1.062,0.335 2.996,9.254 -0.734,2.264 -0.6,-2.461 -4.66,-3.062 -1.131,1.064 3.926,3.731 2.066,6.591 2.063,2.197 0.066,0 c 0.361,-0.101 0.732,-0.15 1.106,-0.144 0.257,0.002 0.507,0.069 0.753,0.139 0.264,0.076 0.502,0.201 0.741,0.336 l 2.929,-1.664 1.932,-4.263 3.395,1.4 2.33,7.859 1.865,1.73 0.135,0.801 c 0.273,-0.053 0.545,-0.069 0.822,-0.058 0.389,0.017 0.781,0.118 1.14,0.264 0.356,0.146 0.667,0.35 0.967,0.59 l 0.399,-0.93 2.396,-1.064 4.463,-8.458 -0.465,-2.863 1.397,0.197 1.467,-5.326 -5.461,-1.598 -0.534,-9.123 5.127,-10.588 -2.863,-1.399 -5.461,10.188 -1.463,5.859 -1.931,-4.261 -1.131,-11.456 -3.131,0.268 0.799,13.785 2.863,9.057 L 4.857,2.8 3.859,1.069 0,0 z"
             style="fill:#231f20;fill-opacity:1;fill-rule:evenodd;stroke:none"
             id="path3261" />
        </g>
        <g
           id="g3263"
           transform="translate(308.2877,683.1899)">
          <path
             inkscape:connector-curvature="0"
             d="m 0,0 c -0.031,-1.234 -0.541,-2.271 -1.57,-2.98 -1.193,-0.825 -2.791,-0.798 -3.984,0.017 -0.973,0.664 -1.573,1.783 -1.571,2.963 0,1.434 0.877,2.74 2.192,3.304 1.105,0.471 2.375,0.354 3.371,-0.323 C -0.593,2.318 0.03,1.18 0,0"
             style="fill:#231f20;fill-opacity:1;fill-rule:evenodd;stroke:none"
             id="path3265" />
        </g>
        <g
           id="g3267"
           transform="translate(293.7017,676.7311)">
          <path
             inkscape:connector-curvature="0"
             d="m 0,0 c -0.039,-1.388 -0.838,-2.581 -2.123,-3.131 -1.5,-0.64 -3.232,-0.062 -4.121,1.29 -0.867,1.32 -0.666,3.141 0.444,4.253 1.109,1.115 2.933,1.3 4.252,0.44 C -0.627,2.247 0.036,1.12 0,0"
             style="fill:#231f20;fill-opacity:1;fill-rule:evenodd;stroke:none"
             id="path3269" />
        </g>
        <g
           id="g3271"
           transform="translate(311.0828,665.8092)">
          <path
             inkscape:connector-curvature="0"
             d="M 0,0 0.801,0.201 1.401,2.465 -0.996,6.128 0,0 z"
             style="fill:#b5dc17;fill-opacity:1;fill-rule:evenodd;stroke:none"
             id="path3273" />
        </g>
        <g
           id="g3275"
           transform="translate(293.7707,663.6139)">
          <path
             inkscape:connector-curvature="0"
             d="M 0,0 0.732,0.129 1.265,1.73 0.666,2.996 0,0 z"
             style="fill:#b5dc17;fill-opacity:1;fill-rule:evenodd;stroke:none"
             id="path3277" />
        </g>
        <g
           id="g3279"
           transform="translate(269.9188,629.5941)">
          <path
             inkscape:connector-curvature="0"
             d="m 0,0 60,0 c 3.305,0 6,-2.696 6,-6 l 0,-24 c 0,-3.304 -2.695,-5.999 -6,-5.999 L 0.216,-35.968 C 0.144,-35.971 0.072,-35.973 0,-35.973 c -3.305,0 -6,2.695 -6,6 L -6,-6 c 0,3.304 2.695,6 6,6"
             style="fill:#b5dc17;fill-opacity:1;fill-rule:nonzero;stroke:none"
             id="path3281" />
        </g>
        <g
           id="g3283"
           transform="translate(269.9188,629.5941)">
          <path
             inkscape:connector-curvature="0"
             d="m 0,0 60,0 c 3.305,0 6,-2.696 6,-6 l 0,-24 c 0,-3.304 -2.695,-5.999 -6,-5.999 L 0.216,-35.968 C 0.144,-35.971 0.072,-35.973 0,-35.973 c -3.305,0 -6,2.695 -6,6 L -6,-6 c 0,3.304 2.695,6 6,6 z"
             style="fill:none;stroke:#231f20;stroke-width:0.5;stroke-linecap:butt;stroke-linejoin:miter;stroke-miterlimit:4;stroke-opacity:1;stroke-dasharray:none"
             id="path3285" />
        </g>
        <g
           id="g3287"
           transform="translate(269.9087,628.3951)">
          <path
             inkscape:connector-curvature="0"
             d="m 0,0 60.02,0 c 2.639,0 4.789,-2.153 4.789,-4.791 l 0,-24.02 c 0,-2.638 -2.15,-4.79 -4.789,-4.79 l -60.02,0 c -2.638,0 -4.79,2.152 -4.79,4.79 l 0,24.02 C -4.79,-2.153 -2.638,0 0,0"
             style="fill:#231f20;fill-opacity:1;fill-rule:evenodd;stroke:none"
             id="path3289" />
        </g>
        <g
           id="g3291"
           transform="translate(269.9207,626.5941)">
          <path
             inkscape:connector-curvature="0"
             d="m 0,0 59.996,0 c 1.653,0 3.002,-1.349 3.002,-3.002 l 0,-23.995 C 62.998,-28.651 61.649,-30 59.996,-30 L 0,-30 c -1.653,0 -3.002,1.349 -3.002,3.003 l 0,23.995 C -3.002,-1.349 -1.653,0 0,0"
             style="fill:#b5dc17;fill-opacity:1;fill-rule:evenodd;stroke:none"
             id="path3293" />
        </g>
        <g
           id="g3295"
           transform="translate(323.7117,611.6151)">
          <path
             inkscape:connector-curvature="0"
             d="M 0,0 C 0,-1.599 -0.379,-2.903 -1.094,-3.619 -1.432,-3.956 -1.81,-4.082 -2.441,-4.082 l -1.893,0 0,8.164 2.147,0 c 0.504,0 0.925,-0.211 1.218,-0.505 C -0.379,2.946 0,1.599 0,0 m 1.936,0 c 0,2.357 -0.715,4.25 -1.979,5.344 -0.631,0.506 -1.094,0.632 -2.314,0.632 l -3.871,0 0,-11.993 3.662,0 0.672,0 c 0.632,0.042 1.263,0.252 1.726,0.673 1.346,1.052 2.104,2.946 2.104,5.344 m -13.846,-0.716 -2.398,0 1.22,3.368 1.178,-3.368 z m 3.873,-5.301 -4.125,11.993 -1.893,0 -4.125,-11.993 2.02,0 1.18,3.366 3.744,0 1.178,-3.366 2.021,0 z m -11.068,0 0,1.935 -5.556,0 0,3.282 3.495,0 0,1.936 -3.495,0 0,2.946 5.177,0 0,1.894 -7.07,0 0,-11.993 7.449,0 z m -10.269,0 0,11.993 -1.892,0 0,-4.84 -4.377,0 0,4.84 -1.894,0 0,-11.993 1.894,0 0,5.217 4.377,0 0,-5.217 1.892,0 z m -13.844,5.301 -2.398,0 1.22,3.368 1.178,-3.368 z m 3.871,-5.301 -4.124,11.993 -1.893,0 -4.124,-11.993 2.02,0 1.178,3.366 3.745,0 1.179,-3.366 2.019,0 z"
             style="fill:#231f20;fill-opacity:1;fill-rule:evenodd;stroke:none"
             id="path3297" />
        </g>
      </g>
    </g>
  </g>
</svg>
