<?xml version="1.0" encoding="UTF-8" standalone="no"?>
<!-- Created with Inkscape (http://www.inkscape.org/) -->

<svg
   xmlns:dc="http://purl.org/dc/elements/1.1/"
   xmlns:cc="http://creativecommons.org/ns#"
   xmlns:rdf="http://www.w3.org/1999/02/22-rdf-syntax-ns#"
   xmlns:svg="http://www.w3.org/2000/svg"
   xmlns="http://www.w3.org/2000/svg"
   xmlns:sodipodi="http://sodipodi.sourceforge.net/DTD/sodipodi-0.dtd"
   xmlns:inkscape="http://www.inkscape.org/namespaces/inkscape"
   width="60.625"
   height="25.625"
   id="svg8008"
   version="1.1"
   inkscape:version="0.48.3.1 r9886"
   sodipodi:docname="New document 41">
  <defs
     id="defs8010" />
  <sodipodi:namedview
     id="base"
     pagecolor="#ffffff"
     bordercolor="#666666"
     borderopacity="1.0"
     inkscape:pageopacity="0.0"
     inkscape:pageshadow="2"
     inkscape:zoom="0.35"
     inkscape:cx="30.329375"
     inkscape:cy="12.812497"
     inkscape:document-units="px"
     inkscape:current-layer="layer1"
     showgrid="false"
     fit-margin-top="0"
     fit-margin-left="0"
     fit-margin-right="0"
     fit-margin-bottom="0"
     inkscape:window-width="451"
     inkscape:window-height="398"
     inkscape:window-x="25"
     inkscape:window-y="25"
     inkscape:window-maximized="0" />
  <metadata
     id="metadata8013">
    <rdf:RDF>
      <cc:Work
         rdf:about="">
        <dc:format>image/svg+xml</dc:format>
        <dc:type
           rdf:resource="http://purl.org/dc/dcmitype/StillImage" />
        <dc:title></dc:title>
      </cc:Work>
    </rdf:RDF>
  </metadata>
  <g
     inkscape:label="Layer 1"
     inkscape:groupmode="layer"
     id="layer1"
     transform="translate(-344.67062,-519.54968)">
    <g
       id="g3151"
       transform="matrix(1.25,0,0,-1.25,350.99875,519.86218)">
      <path
         d="m 0,0 38.4,0 c 2.645,0 4.801,-2.156 4.801,-4.799 l 0,-10.4 C 43.201,-17.844 41.045,-20 38.4,-20 L 0.174,-19.975 C 0.115,-19.977 0.059,-19.979 0,-19.979 c -2.643,0 -4.799,2.157 -4.799,4.801 l 0,10.379 C -4.799,-2.156 -2.643,0 0,0"
         style="fill:#ffffff;fill-opacity:1;fill-rule:nonzero;stroke:none"
         id="path3153"
         inkscape:connector-curvature="0" />
    </g>
    <g
       id="g3155"
       transform="matrix(1.25,0,0,-1.25,350.99875,519.86218)">
      <path
         d="m 0,0 38.4,0 c 2.645,0 4.801,-2.156 4.801,-4.799 l 0,-10.4 C 43.201,-17.844 41.045,-20 38.4,-20 L 0.174,-19.975 C 0.115,-19.977 0.059,-19.979 0,-19.979 c -2.643,0 -4.799,2.157 -4.799,4.801 l 0,10.379 C -4.799,-2.156 -2.643,0 0,0 z"
         style="fill:none;stroke:#231f20;stroke-width:0.5;stroke-linecap:butt;stroke-linejoin:miter;stroke-miterlimit:4;stroke-opacity:1;stroke-dasharray:none"
         id="path3157"
         inkscape:connector-curvature="0" />
    </g>
    <g
       id="g3159"
       transform="matrix(1.25,0,0,-1.25,350.98875,521.06105)">
      <path
         d="m 0,0 38.416,0 c 2.112,0 3.832,-1.721 3.832,-3.832 l 0,-10.416 c 0,-2.111 -1.72,-3.832 -3.832,-3.832 L 0,-18.08 c -2.109,0 -3.832,1.721 -3.832,3.832 l 0,10.416 C -3.832,-1.721 -2.109,0 0,0"
         style="fill:#231f20;fill-opacity:1;fill-rule:evenodd;stroke:none"
         id="path3161"
         inkscape:connector-curvature="0" />
    </g>
    <g
       id="g3163"
       transform="matrix(1.25,0,0,-1.25,351.00125,522.85967)">
      <path
         d="m 0,0 38.396,0 c 1.323,0 2.403,-1.081 2.403,-2.403 l 0,-10.396 c 0,-1.323 -1.08,-2.403 -2.403,-2.403 l -38.396,0 c -1.322,0 -2.4,1.08 -2.4,2.403 l 0,10.396 C -2.4,-1.081 -1.322,0 0,0"
         style="fill:#ffffff;fill-opacity:1;fill-rule:evenodd;stroke:none"
         id="path3165"
         inkscape:connector-curvature="0" />
    </g>
    <g
       id="g3167"
       transform="matrix(1.25,0,0,-1.25,352.44625,526.61218)">
      <path
         d="m 0,0 c -0.433,-0.727 -0.763,-1.559 -0.92,-2.356 -0.068,-0.418 -0.103,-0.728 -0.103,-1.215 l -0.797,0 c 0.017,1.145 0.224,2.098 0.711,3.139 0.174,0.381 0.381,0.744 0.555,1.021 l -2.358,0 0,0.782 3.346,0 0,-0.782 C 0.26,0.365 0.156,0.261 0,0"
         style="fill:#231f20;fill-opacity:1;fill-rule:nonzero;stroke:none"
         id="path3169"
         inkscape:connector-curvature="0" />
    </g>
    <g
       id="g3171"
       transform="matrix(1.25,0,0,-1.25,354.89237,530.61855)">
      <path
         d="m 0,0 c 0,0.224 -0.207,0.431 -0.431,0.431 -0.245,0 -0.452,-0.207 -0.452,-0.431 0,-0.245 0.207,-0.452 0.452,-0.452 C -0.189,-0.452 0,-0.245 0,0 m 0,2.062 c 0,0.242 -0.207,0.434 -0.431,0.434 -0.245,0 -0.452,-0.192 -0.452,-0.434 0,-0.244 0.207,-0.451 0.452,-0.451 C -0.189,1.611 0,1.818 0,2.062"
         style="fill:#231f20;fill-opacity:1;fill-rule:nonzero;stroke:none"
         id="path3173"
         inkscape:connector-curvature="0" />
    </g>
    <g
       id="g3175"
       transform="matrix(1.25,0,0,-1.25,357.84,531.18343)">
      <path
         d="m 0,0 c -0.797,0 -1.438,0.52 -1.647,1.317 l 0.764,0.226 C -0.762,1.057 -0.432,0.797 0.035,0.797 0.554,0.797 0.92,1.16 0.92,1.664 0.92,1.924 0.816,2.166 0.642,2.289 0.521,2.375 0.504,2.375 0.138,2.393 l -0.086,0 0,0.797 0,-0.018 0.018,0 0.018,0 0.156,0 c 0.31,0 0.484,0.174 0.484,0.485 0,0.382 -0.312,0.66 -0.711,0.66 -0.328,0 -0.572,-0.157 -0.744,-0.487 L -1.455,4.108 C -1.196,4.733 -0.641,5.114 0,5.114 0.832,5.114 1.509,4.438 1.509,3.606 1.509,3.311 1.439,3.102 1.232,2.791 1.595,2.461 1.699,2.202 1.699,1.715 1.699,0.711 1.006,0 0,0"
         style="fill:#231f20;fill-opacity:1;fill-rule:nonzero;stroke:none"
         id="path3177"
         inkscape:connector-curvature="0" />
    </g>
    <g
       id="g3179"
       transform="matrix(1.25,0,0,-1.25,365.57613,527.99967)">
      <path
         d="M 0,0 C 0,0.625 -0.121,1.25 -0.33,1.682 -0.642,2.289 -1.076,2.567 -1.699,2.567 -2.271,2.567 -2.67,2.393 -2.965,2.012 -3.295,1.543 -3.502,0.817 -3.502,0 c 0,-0.588 0.139,-1.246 0.346,-1.664 0.295,-0.605 0.728,-0.883 1.422,-0.883 0.519,0 0.92,0.174 1.197,0.555 C -0.191,-1.558 0,-0.779 0,0 m -0.781,0 c 0,-0.381 -0.086,-0.865 -0.19,-1.125 -0.173,-0.433 -0.398,-0.625 -0.763,-0.625 -0.313,0 -0.52,0.121 -0.676,0.383 -0.191,0.311 -0.295,0.848 -0.295,1.367 0,0.418 0.07,0.867 0.191,1.162 0.174,0.434 0.416,0.625 0.797,0.608 C -1.422,1.752 -1.23,1.649 -1.076,1.387 -0.885,1.059 -0.781,0.555 -0.781,0"
         style="fill:#231f20;fill-opacity:1;fill-rule:nonzero;stroke:none"
         id="path3181"
         inkscape:connector-curvature="0" />
    </g>
    <path
       d="m 366.39825,527.5433 2.16625,0 0,0.97375 -2.16625,0 0,-0.97375 z"
       style="fill:#231f20;fill-opacity:1;fill-rule:nonzero;stroke:none"
       id="path3183"
       inkscape:connector-curvature="0" />
    <g
       id="g3185"
       transform="matrix(1.25,0,0,-1.25,372.59487,529.12467)">
      <path
         d="m 0,0 c 0,-0.467 -0.398,-0.85 -0.902,-0.85 -0.484,0 -0.883,0.383 -0.883,0.85 0,0.416 0.399,0.746 0.883,0.746 C -0.416,0.746 0,0.416 0,0 m 0.78,0.017 c 0,0.452 -0.19,0.85 -0.573,1.145 0.245,0.26 0.383,0.555 0.383,0.9 0,0.764 -0.693,1.405 -1.492,1.405 -0.797,0 -1.473,-0.641 -1.473,-1.405 0,-0.345 0.121,-0.64 0.364,-0.9 -0.364,-0.295 -0.571,-0.676 -0.571,-1.145 0,-0.902 0.78,-1.664 1.68,-1.664 0.902,0 1.682,0.762 1.682,1.664 M -0.209,2.08 c 0,-0.295 -0.31,-0.537 -0.693,-0.537 -0.381,0 -0.693,0.242 -0.693,0.537 0,0.33 0.312,0.59 0.693,0.59 0.383,0 0.693,-0.26 0.693,-0.59"
         style="fill:#231f20;fill-opacity:1;fill-rule:nonzero;stroke:none"
         id="path3187"
         inkscape:connector-curvature="0" />
    </g>
    <g
       id="g3189"
       transform="matrix(1.25,0,0,-1.25,375.65,528.04093)">
      <path
         d="m 0,0 c 0,0.242 -0.207,0.434 -0.434,0.434 -0.242,0 -0.449,-0.192 -0.449,-0.434 0,-0.244 0.207,-0.451 0.449,-0.451 C -0.19,-0.451 0,-0.244 0,0 m 0,-2.062 c 0,0.224 -0.207,0.431 -0.434,0.431 -0.242,0 -0.449,-0.207 -0.449,-0.431 0,-0.245 0.207,-0.452 0.449,-0.452 0.244,0 0.434,0.207 0.434,0.452"
         style="fill:#231f20;fill-opacity:1;fill-rule:nonzero;stroke:none"
         id="path3191"
         inkscape:connector-curvature="0" />
    </g>
    <g
       id="g3193"
       transform="matrix(1.25,0,0,-1.25,378.59625,531.18343)">
      <path
         d="m 0,0 c -0.797,0 -1.437,0.52 -1.646,1.317 l 0.763,0.226 c 0.121,-0.486 0.45,-0.746 0.918,-0.746 0.52,0 0.885,0.363 0.885,0.867 0,0.26 -0.105,0.502 -0.277,0.625 C 0.52,2.375 0.504,2.375 0.139,2.393 l -0.086,0 0,0.797 0,-0.018 0.017,0 0.018,0 0.154,0 c 0.313,0 0.487,0.174 0.487,0.485 0,0.382 -0.313,0.66 -0.711,0.66 -0.33,0 -0.573,-0.157 -0.746,-0.487 L -1.455,4.108 C -1.195,4.733 -0.641,5.114 0,5.114 0.832,5.114 1.508,4.438 1.508,3.606 1.508,3.311 1.44,3.102 1.231,2.791 1.596,2.461 1.699,2.202 1.699,1.715 1.699,0.711 1.006,0 0,0"
         style="fill:#231f20;fill-opacity:1;fill-rule:nonzero;stroke:none"
         id="path3195"
         inkscape:connector-curvature="0" />
    </g>
    <g
       id="g3197"
       transform="matrix(1.25,0,0,-1.25,386.33113,527.99967)">
      <path
         d="M 0,0 C 0,0.625 -0.121,1.25 -0.329,1.682 -0.641,2.289 -1.075,2.567 -1.698,2.567 -2.27,2.567 -2.668,2.393 -2.963,2.012 -3.293,1.543 -3.5,0.817 -3.5,0 c 0,-0.588 0.138,-1.246 0.345,-1.664 0.295,-0.605 0.729,-0.883 1.422,-0.883 0.52,0 0.918,0.174 1.196,0.555 C -0.19,-1.558 0,-0.779 0,0 m -0.78,0 c 0,-0.381 -0.086,-0.865 -0.191,-1.125 -0.172,-0.433 -0.399,-0.625 -0.762,-0.625 -0.312,0 -0.519,0.121 -0.676,0.383 -0.191,0.311 -0.295,0.848 -0.295,1.367 0,0.418 0.069,0.867 0.192,1.162 0.172,0.434 0.416,0.625 0.797,0.608 C -1.42,1.752 -1.231,1.649 -1.075,1.387 -0.883,1.059 -0.78,0.555 -0.78,0"
         style="fill:#231f20;fill-opacity:1;fill-rule:nonzero;stroke:none"
         id="path3199"
         inkscape:connector-curvature="0" />
    </g>
    <g
       id="g3201"
       transform="matrix(1.25,0,0,-1.25,392.85375,526.61218)">
      <path
         d="m 0,0 -0.504,-1.387 0.989,0 L 0,0 z m 1.246,-3.571 -0.484,1.387 -1.543,0 -0.484,-1.387 -0.832,0 1.697,4.942 0.781,0 1.697,-4.942 -0.832,0 z"
         style="fill:#231f20;fill-opacity:1;fill-rule:nonzero;stroke:none"
         id="path3203"
         inkscape:connector-curvature="0" />
    </g>
    <g
       id="g3205"
       transform="matrix(1.25,0,0,-1.25,400.22,531.07593)">
      <path
         d="M 0,0 0,2.862 -1.145,0 l -1.144,2.862 0,-2.862 -0.779,0 0,4.942 0.779,0 L -1.145,2.168 0,4.942 0.779,4.942 0.779,0 0,0 z"
         style="fill:#231f20;fill-opacity:1;fill-rule:nonzero;stroke:none"
         id="path3207"
         inkscape:connector-curvature="0" />
    </g>
    <g
       id="g3209"
       transform="matrix(1.25,0,0,-1.25,348.98,539.82593)">
      <path
         d="M 0,0 C 0.017,0.573 0.138,1.041 0.416,1.508 0.623,1.891 0.935,2.203 1.283,2.461 1.369,2.514 1.437,2.567 1.508,2.617 L 1.767,2.756 2.01,2.895 2.254,3.033 c 0.189,0.124 0.328,0.331 0.328,0.538 0,0.365 -0.416,0.66 -0.901,0.66 -0.504,0 -0.814,-0.242 -0.902,-0.694 L 0,3.711 C 0.174,4.526 0.814,5.028 1.681,5.028 2.617,5.028 3.363,4.369 3.363,3.555 3.363,3.172 3.189,2.791 2.859,2.496 2.791,2.446 2.72,2.393 2.652,2.358 L 2.408,2.203 2.148,2.063 1.906,1.926 C 1.437,1.649 1.177,1.352 0.935,0.797 l 2.428,0 L 3.363,0 0,0 z"
         style="fill:#231f20;fill-opacity:1;fill-rule:nonzero;stroke:none"
         id="path3211"
         inkscape:connector-curvature="0" />
    </g>
    <g
       id="g3213"
       transform="matrix(1.25,0,0,-1.25,354.7225,539.93343)">
      <path
         d="m 0,0 c -0.245,0 -0.452,0.207 -0.452,0.452 0,0.224 0.207,0.431 0.452,0.431 0.224,0 0.431,-0.207 0.431,-0.431 C 0.431,0.207 0.242,0 0,0 m 0,2.063 c -0.245,0 -0.452,0.207 -0.452,0.451 0,0.242 0.207,0.434 0.452,0.434 0.224,0 0.431,-0.192 0.431,-0.434 C 0.431,2.27 0.242,2.063 0,2.063"
         style="fill:#231f20;fill-opacity:1;fill-rule:nonzero;stroke:none"
         id="path3215"
         inkscape:connector-curvature="0" />
    </g>
    <g
       id="g3217"
       transform="matrix(1.25,0,0,-1.25,358.20875,539.93343)">
      <path
         d="m 0,0 c -0.797,0 -1.438,0.52 -1.647,1.317 l 0.764,0.226 c 0.121,-0.486 0.451,-0.746 0.918,-0.746 0.519,0 0.884,0.363 0.884,0.867 0,0.26 -0.103,0.502 -0.277,0.625 C 0.521,2.375 0.503,2.375 0.138,2.393 l -0.086,0 0,0.797 0,-0.018 0.018,0 0.017,0 0.157,0 c 0.31,0 0.484,0.174 0.484,0.485 0,0.382 -0.312,0.66 -0.711,0.66 -0.328,0 -0.572,-0.157 -0.744,-0.487 L -1.456,4.108 C -1.196,4.733 -0.641,5.114 0,5.114 0.832,5.114 1.509,4.438 1.509,3.606 1.509,3.311 1.439,3.102 1.232,2.791 1.595,2.461 1.699,2.202 1.699,1.715 1.699,0.711 1.005,0 0,0"
         style="fill:#231f20;fill-opacity:1;fill-rule:nonzero;stroke:none"
         id="path3219"
         inkscape:connector-curvature="0" />
    </g>
    <g
       id="g3221"
       transform="matrix(1.25,0,0,-1.25,365.945,536.74967)">
      <path
         d="M 0,0 C 0,0.625 -0.121,1.25 -0.33,1.682 -0.643,2.289 -1.076,2.567 -1.699,2.567 -2.271,2.567 -2.67,2.393 -2.965,2.012 -3.295,1.543 -3.502,0.817 -3.502,0 c 0,-0.588 0.139,-1.246 0.346,-1.664 0.295,-0.605 0.728,-0.883 1.422,-0.883 0.519,0 0.92,0.174 1.197,0.555 C -0.191,-1.558 0,-0.779 0,0 m -0.781,0 c 0,-0.381 -0.086,-0.865 -0.19,-1.125 -0.174,-0.433 -0.398,-0.625 -0.763,-0.625 -0.313,0 -0.52,0.121 -0.676,0.383 -0.192,0.311 -0.295,0.848 -0.295,1.367 0,0.418 0.07,0.867 0.191,1.162 0.174,0.434 0.416,0.625 0.797,0.608 C -1.422,1.752 -1.23,1.649 -1.076,1.387 -0.885,1.059 -0.781,0.555 -0.781,0"
         style="fill:#231f20;fill-opacity:1;fill-rule:nonzero;stroke:none"
         id="path3223"
         inkscape:connector-curvature="0" />
    </g>
    <path
       d="m 366.767,536.2933 2.16625,0 0,0.97375 -2.16625,0 0,-0.97375 z"
       style="fill:#231f20;fill-opacity:1;fill-rule:nonzero;stroke:none"
       id="path3225"
       inkscape:connector-curvature="0" />
    <g
       id="g3227"
       transform="matrix(1.25,0,0,-1.25,371.685,539.93343)">
      <path
         d="m 0,0 c -0.797,0 -1.438,0.52 -1.647,1.317 l 0.764,0.226 c 0.121,-0.486 0.449,-0.746 0.918,-0.746 0.52,0 0.885,0.363 0.885,0.867 0,0.26 -0.106,0.502 -0.278,0.625 C 0.521,2.375 0.504,2.375 0.138,2.393 l -0.085,0 0,0.797 0,-0.018 0.017,0 0.018,0 0.156,0 c 0.311,0 0.484,0.174 0.484,0.485 0,0.382 -0.312,0.66 -0.711,0.66 -0.328,0 -0.572,-0.157 -0.744,-0.487 L -1.455,4.108 C -1.195,4.733 -0.641,5.114 0,5.114 0.832,5.114 1.508,4.438 1.508,3.606 1.508,3.311 1.439,3.102 1.23,2.791 1.596,2.461 1.699,2.202 1.699,1.715 1.699,0.711 1.006,0 0,0"
         style="fill:#231f20;fill-opacity:1;fill-rule:nonzero;stroke:none"
         id="path3229"
         inkscape:connector-curvature="0" />
    </g>
    <g
       id="g3231"
       transform="matrix(1.25,0,0,-1.25,375.91125,539.36855)">
      <path
         d="m 0,0 c 0,0.224 -0.209,0.431 -0.434,0.431 -0.242,0 -0.451,-0.207 -0.451,-0.431 0,-0.245 0.209,-0.452 0.451,-0.452 C -0.192,-0.452 0,-0.245 0,0 m 0,2.062 c 0,0.242 -0.209,0.434 -0.434,0.434 -0.242,0 -0.451,-0.192 -0.451,-0.434 0,-0.244 0.209,-0.451 0.451,-0.451 C -0.192,1.611 0,1.818 0,2.062"
         style="fill:#231f20;fill-opacity:1;fill-rule:nonzero;stroke:none"
         id="path3233"
         inkscape:connector-curvature="0" />
    </g>
    <g
       id="g3235"
       transform="matrix(1.25,0,0,-1.25,378.8575,539.93343)">
      <path
         d="m 0,0 c -0.799,0 -1.439,0.52 -1.646,1.317 l 0.761,0.226 c 0.121,-0.486 0.452,-0.746 0.918,-0.746 0.522,0 0.885,0.363 0.885,0.867 0,0.26 -0.103,0.502 -0.277,0.625 C 0.52,2.375 0.502,2.375 0.139,2.393 l -0.088,0 0,0.797 0,-0.018 0.017,0 0.018,0 0.156,0 c 0.313,0 0.485,0.174 0.485,0.485 0,0.382 -0.311,0.66 -0.709,0.66 -0.33,0 -0.573,-0.157 -0.746,-0.487 L -1.457,4.108 C -1.197,4.733 -0.642,5.114 0,5.114 0.832,5.114 1.508,4.438 1.508,3.606 1.508,3.311 1.438,3.102 1.231,2.791 1.594,2.461 1.697,2.202 1.697,1.715 1.697,0.711 1.004,0 0,0"
         style="fill:#231f20;fill-opacity:1;fill-rule:nonzero;stroke:none"
         id="path3237"
         inkscape:connector-curvature="0" />
    </g>
    <g
       id="g3239"
       transform="matrix(1.25,0,0,-1.25,386.59237,536.74967)">
      <path
         d="M 0,0 C 0,0.625 -0.121,1.25 -0.33,1.682 -0.641,2.289 -1.075,2.567 -1.7,2.567 -2.272,2.567 -2.67,2.393 -2.965,2.012 -3.293,1.543 -3.502,0.817 -3.502,0 c 0,-0.588 0.138,-1.246 0.347,-1.664 0.295,-0.605 0.727,-0.883 1.42,-0.883 0.522,0 0.92,0.174 1.197,0.555 C -0.192,-1.558 0,-0.779 0,0 m -0.78,0 c 0,-0.381 -0.088,-0.865 -0.191,-1.125 -0.174,-0.433 -0.399,-0.625 -0.764,-0.625 -0.31,0 -0.519,0.121 -0.676,0.383 -0.189,0.311 -0.294,0.848 -0.294,1.367 0,0.418 0.07,0.867 0.191,1.162 0.174,0.434 0.416,0.625 0.797,0.608 C -1.422,1.752 -1.231,1.649 -1.075,1.387 -0.885,1.059 -0.78,0.555 -0.78,0"
         style="fill:#231f20;fill-opacity:1;fill-rule:nonzero;stroke:none"
         id="path3241"
         inkscape:connector-curvature="0" />
    </g>
    <g
       id="g3243"
       transform="matrix(1.25,0,0,-1.25,395.23738,535.38217)">
      <path
         d="m 0,0 c 0,0.502 -0.33,1.021 -0.764,1.23 -0.242,0.122 -0.502,0.157 -0.9,0.157 l -1.7,0 0,-4.942 0.78,0 0,2.151 0.92,0 c 0.38,0 0.675,0.068 0.9,0.173 C -0.33,-1.041 0,-0.522 0,0 m -0.797,0 c 0,-0.209 -0.123,-0.434 -0.295,-0.522 -0.139,-0.068 -0.227,-0.085 -0.469,-0.085 l -1.023,0 0,1.212 1.023,0 c 0.242,0 0.33,-0.017 0.469,-0.086 C -0.92,0.416 -0.797,0.207 -0.797,0"
         style="fill:#231f20;fill-opacity:1;fill-rule:nonzero;stroke:none"
         id="path3245"
         inkscape:connector-curvature="0" />
    </g>
    <g
       id="g3247"
       transform="matrix(1.25,0,0,-1.25,399.9825,539.82593)">
      <path
         d="M 0,0 0,2.862 -1.144,0 -2.289,2.862 -2.289,0 -3.07,0 l 0,4.942 0.781,0 L -1.144,2.168 0,4.942 0.78,4.942 0.78,0 0,0 z"
         style="fill:#231f20;fill-opacity:1;fill-rule:nonzero;stroke:none"
         id="path3249"
         inkscape:connector-curvature="0" />
    </g>
  </g>
</svg>
