<?xml version="1.0" encoding="UTF-8" standalone="no"?>
<!-- Created with Inkscape (http://www.inkscape.org/) -->

<svg
   xmlns:dc="http://purl.org/dc/elements/1.1/"
   xmlns:cc="http://creativecommons.org/ns#"
   xmlns:rdf="http://www.w3.org/1999/02/22-rdf-syntax-ns#"
   xmlns:svg="http://www.w3.org/2000/svg"
   xmlns="http://www.w3.org/2000/svg"
   xmlns:sodipodi="http://sodipodi.sourceforge.net/DTD/sodipodi-0.dtd"
   xmlns:inkscape="http://www.inkscape.org/namespaces/inkscape"
   width="90.624626"
   height="300.60876"
   id="svg4434"
   version="1.1"
   inkscape:version="0.48.2 r9819"
   sodipodi:docname="New document 14">
  <defs
     id="defs4436">
    <clipPath
       clipPathUnits="userSpaceOnUse"
       id="clipPath3209">
      <path
         inkscape:connector-curvature="0"
         d="m 63,255.16 512.875,0 0,482.84 L 63,738 63,255.16 z"
         id="path3211" />
    </clipPath>
    <clipPath
       clipPathUnits="userSpaceOnUse"
       id="clipPath3197">
      <path
         inkscape:connector-curvature="0"
         d="m 67.509,255.16 503.857,0 0,482.84 -503.857,0 0,-482.84 z"
         id="path3199" />
    </clipPath>
    <clipPath
       clipPathUnits="userSpaceOnUse"
       id="clipPath3137">
      <path
         inkscape:connector-curvature="0"
         d="m 63,255.16 512.875,0 0,482.84 L 63,738 63,255.16 z"
         id="path3139" />
    </clipPath>
    <clipPath
       clipPathUnits="userSpaceOnUse"
       id="clipPath3125">
      <path
         inkscape:connector-curvature="0"
         d="m 67.509,255.16 503.857,0 0,482.84 -503.857,0 0,-482.84 z"
         id="path3127" />
    </clipPath>
    <clipPath
       clipPathUnits="userSpaceOnUse"
       id="clipPath3113">
      <path
         inkscape:connector-curvature="0"
         d="m 63,255.16 512.875,0 0,482.84 L 63,738 63,255.16 z"
         id="path3115" />
    </clipPath>
  </defs>
  <sodipodi:namedview
     id="base"
     pagecolor="#ffffff"
     bordercolor="#666666"
     borderopacity="1.0"
     inkscape:pageopacity="0.0"
     inkscape:pageshadow="2"
     inkscape:zoom="0.35"
     inkscape:cx="160.31231"
     inkscape:cy="78.870842"
     inkscape:document-units="px"
     inkscape:current-layer="layer1"
     showgrid="false"
     fit-margin-top="0"
     fit-margin-left="0"
     fit-margin-right="0"
     fit-margin-bottom="0"
     inkscape:window-width="469"
     inkscape:window-height="425"
     inkscape:window-x="1391"
     inkscape:window-y="25"
     inkscape:window-maximized="0" />
  <metadata
     id="metadata4439">
    <rdf:RDF>
      <cc:Work
         rdf:about="">
        <dc:format>image/svg+xml</dc:format>
        <dc:type
           rdf:resource="http://purl.org/dc/dcmitype/StillImage" />
        <dc:title></dc:title>
      </cc:Work>
    </rdf:RDF>
  </metadata>
  <g
     inkscape:label="Layer 1"
     inkscape:groupmode="layer"
     id="layer1"
     transform="translate(-214.68769,-310.62427)">
    <g
       transform="matrix(1.25,0,0,-1.25,130.30144,1006.4019)"
       id="g3109">
      <g
         id="g3111"
         clip-path="url(#clipPath3113)">
        <g
           id="g3117"
           transform="translate(76.7587,532.3851)">
          <path
             inkscape:connector-curvature="0"
             d="m 0,0 54,0 c 4.957,0 9,-4.044 9,-9 l 0,-198.008 c 0,-4.957 -4.043,-9 -9,-9 l -54,0 c -4.957,0 -9,4.043 -9,9 L -9,-9 c 0,4.956 4.043,9 9,9"
             style="fill:#b5dc17;fill-opacity:1;fill-rule:evenodd;stroke:none"
             id="path3119" />
        </g>
      </g>
    </g>
    <g
       transform="matrix(1.25,0,0,-1.25,130.30144,1006.4019)"
       id="g3121">
      <g
         id="g3123"
         clip-path="url(#clipPath3125)">
        <g
           id="g3129"
           transform="translate(76.7587,532.3851)">
          <path
             inkscape:connector-curvature="0"
             d="m 0,0 54,0 c 4.957,0 9,-4.044 9,-9 l 0,-198.008 c 0,-4.957 -4.043,-9 -9,-9 l -54,0 c -4.957,0 -9,4.043 -9,9 L -9,-9 c 0,4.956 4.043,9 9,9 z"
             style="fill:none;stroke:#231f20;stroke-width:0.5;stroke-linecap:butt;stroke-linejoin:miter;stroke-miterlimit:4;stroke-opacity:1;stroke-dasharray:none"
             id="path3131" />
        </g>
      </g>
    </g>
    <g
       transform="matrix(1.25,0,0,-1.25,130.30144,1006.4019)"
       id="g3133">
      <g
         id="g3135"
         clip-path="url(#clipPath3137)">
        <g
           id="g3141"
           transform="translate(79.7587,493.3531)">
          <path
             inkscape:connector-curvature="0"
             d="m 0,0 48,0 c 3.304,0 6,-2.696 6,-6 l 0,-132.007 c 0,-3.305 -2.696,-6 -6,-6 l -48,0 c -3.305,0 -6,2.695 -6,6 L -6,-6 c 0,3.304 2.695,6 6,6"
             style="fill:#231f20;fill-opacity:1;fill-rule:evenodd;stroke:none"
             id="path3143" />
        </g>
        <g
           id="g3145"
           transform="translate(79.7773,491.8531)">
          <path
             inkscape:connector-curvature="0"
             d="M 0,0 27.962,0 44.41,0 c 2.574,0 5.631,0.477 7.301,-1.991 0.957,-1.414 0.77,-3.124 0.77,-4.742 l 0,-8.815 0,-31.618 0,-39.387 0,-34.103 0,-15.754 c 0,-2.892 -2.328,-4.597 -5.034,-4.597 l -12.276,0 -33.681,0 c -0.94,0 -1.933,-0.08 -2.843,0.203 -1.789,0.558 -3.044,2.205 -3.159,4.064 -0.079,1.283 -0.007,2.592 -0.007,3.875 l 0,25.051 0,37.91 0,37.716 0,24.461 0,3.129 c 0,2.501 1.991,4.59 4.519,4.598"
             style="fill:#ffffff;fill-opacity:1;fill-rule:evenodd;stroke:none"
             id="path3147" />
        </g>
        <g
           id="g3149"
           transform="translate(78.1308,475.2631)">
          <path
             inkscape:connector-curvature="0"
             d="M 0,0 C -1.218,2.383 0.063,5.381 2.72,5.992 3.221,6.108 3.714,6.102 4.221,6.102 5.813,6.101 7.405,6.101 8.998,6.101 14.984,6.099 20.972,6.097 26.958,6.096 32.655,6.095 38.351,6.093 44.049,6.092 c 1.23,-10e-4 2.461,-10e-4 3.69,-10e-4 3.164,0 5.091,-3.561 3.547,-6.248 -5.107,-8.886 -10.215,-17.773 -15.322,-26.66 -2.133,-3.711 -4.265,-7.42 -6.398,-11.13 -1.227,-2.136 -3.777,-3.213 -6.02,-1.803 -1.169,0.734 -1.782,2.115 -2.455,3.277 C 15.365,-26.572 9.64,-16.67 3.914,-6.77 2.609,-4.514 1.305,-2.257 0,0"
             style="fill:#bf2519;fill-opacity:1;fill-rule:evenodd;stroke:none"
             id="path3151" />
        </g>
        <g
           id="g3153"
           transform="translate(105.7421,449.2291)">
          <path
             inkscape:connector-curvature="0"
             d="m 0,0 c -0.363,-0.667 -1.091,-1.107 -1.859,-1.107 -0.769,0 -1.496,0.44 -1.86,1.107 l -12.44,21.497 c -0.19,0.322 -0.297,0.711 -0.297,1.09 0,1.165 0.95,2.117 2.115,2.117 l 24.566,0 c 1.482,0 2.433,-0.952 2.433,-2.117 0,-0.379 -0.116,-0.776 -0.306,-1.098 L 0,0 z"
             style="fill:#ffffff;fill-opacity:1;fill-rule:evenodd;stroke:none"
             id="path3155" />
        </g>
        <g
           id="g3157"
           transform="translate(111.1503,467.5361)">
          <path
             inkscape:connector-curvature="0"
             d="M 0,0 C 0,-0.41 -0.038,-0.783 -0.075,-1.119 -0.15,-1.529 -0.393,-1.885 -0.84,-1.885 l -0.635,0 0,3.827 0.635,0 c 0.336,0 0.56,-0.168 0.69,-0.541 C -0.057,1.176 0,0.598 0,0 M 0.746,0.038 C 0.746,0.449 0.69,0.915 0.615,1.307 0.522,1.848 0.298,2.258 -0.019,2.483 -0.205,2.632 -0.43,2.688 -0.877,2.688 l -1.363,0 0,-5.319 1.474,0 c 0.299,0 0.561,0.075 0.747,0.243 0.523,0.412 0.765,1.195 0.765,2.426 m -3.713,-2.669 0,0.709 -1.941,0 0,4.61 -0.766,0 0,-5.319 2.707,0 z m -3.601,0 0,0.746 -1.942,0 0,1.755 1.102,0 0,0.728 -1.102,0 0,1.344 1.737,0 0,0.746 -2.501,0 0,-5.319 2.706,0 z m -3.864,5.319 -0.746,0 0,-5.319 0.746,0 0,5.319 z m -1.474,0 -0.821,0 -0.876,-1.922 -0.897,1.922 -0.802,0 1.306,-2.911 0,-2.408 0.766,0 0,2.408 1.324,2.911 z"
             style="fill:#bf2519;fill-opacity:1;fill-rule:evenodd;stroke:none"
             id="path3159" />
        </g>
        <g
           id="g3161"
           transform="translate(125.8983,514.3601)">
          <path
             inkscape:connector-curvature="0"
             d="m 0,0 -7.373,0 0,11.994 6.999,0 0,-1.894 -5.124,0 0,-2.945 3.457,0 0,-1.936 -3.457,0 0,-3.283 L 0,1.936 0,0 z m -9.122,10.311 -2.749,0 0,-10.311 -1.875,0 0,10.311 -2.707,0 0,1.683 7.331,0 0,-1.683 z m -11.914,-5.008 -1.167,3.365 -1.207,-3.365 2.374,0 z M -17.203,0 l -2,0 -1.166,3.368 -3.708,0 -1.167,-3.368 -1.999,0 4.083,11.994 1.874,0 L -17.203,0 z m -10.748,10.311 -2.75,0 0,-10.311 -1.874,0 0,10.311 -2.708,0 0,1.683 7.332,0 0,-1.683 z m -8.29,-6.859 c 0,-1.151 -0.368,-2.049 -1.104,-2.694 -0.736,-0.644 -1.618,-0.969 -2.645,-0.969 -2.028,0 -3.472,1.011 -4.332,3.032 l 1.791,0.672 c 0.527,-1.178 1.375,-1.767 2.541,-1.767 1.221,0 1.833,0.589 1.833,1.767 0,0.673 -0.362,1.207 -1.083,1.599 -0.75,0.281 -1.514,0.575 -2.291,0.884 -1.527,0.645 -2.291,1.642 -2.291,2.987 0,2.16 1.235,3.24 3.707,3.24 1.611,0 2.735,-0.812 3.374,-2.44 -0.666,-0.224 -1.222,-0.393 -1.666,-0.505 -0.362,0.701 -0.945,1.053 -1.749,1.053 -1.279,0 -1.889,-0.463 -1.834,-1.389 0.057,-0.59 0.57,-1.053 1.542,-1.388 1.499,-0.478 2.416,-0.829 2.749,-1.053 0.972,-0.645 1.458,-1.654 1.458,-3.029"
             style="fill:#231f20;fill-opacity:1;fill-rule:evenodd;stroke:none"
             id="path3163" />
        </g>
        <g
           id="g3165"
           transform="translate(108.8827,422.8421)">
          <path
             inkscape:connector-curvature="0"
             d="M 0,0 C 0,1.073 -0.178,1.914 -0.535,2.526 -0.788,2.967 -1.178,3.198 -1.703,3.219 -2.377,3.262 -2.859,2.893 -3.154,2.115 -3.386,1.526 -3.502,0.821 -3.502,0 c 0,-1.075 0.18,-1.906 0.537,-2.495 0.274,-0.462 0.684,-0.693 1.231,-0.693 0.631,0 1.093,0.379 1.388,1.135 C -0.115,-1.486 0,-0.802 0,0 m 1.42,0 c 0,-1.559 -0.326,-2.767 -0.978,-3.63 -0.483,-0.673 -1.21,-1.009 -2.176,-1.009 -1.2,0 -2.062,0.535 -2.588,1.609 -0.42,0.84 -0.631,1.85 -0.631,3.03 0,1.557 0.326,2.778 0.978,3.66 0.504,0.674 1.273,1.011 2.303,1.011 1.115,0 1.946,-0.536 2.493,-1.61 C 1.221,2.22 1.42,1.2 1.42,0 m -7.514,3.25 -2.083,0 0,-7.732 -1.42,0 0,7.732 -2.05,0 0,1.264 5.553,0 0,-1.264 z"
             style="fill:#231f20;fill-opacity:1;fill-rule:evenodd;stroke:none"
             id="path3167" />
        </g>
        <g
           id="g3169"
           transform="translate(101.1718,410.8921)">
          <path
             inkscape:connector-curvature="0"
             d="m 0,0 c 1.994,0 3.621,-1.627 3.621,-3.622 0,-1.995 -1.627,-3.622 -3.621,-3.622 -1.995,0 -3.622,1.627 -3.622,3.622 C -3.622,-1.627 -1.995,0 0,0"
             style="fill:#231f20;fill-opacity:1;fill-rule:evenodd;stroke:none"
             id="path3171" />
        </g>
        <g
           id="g3173"
           transform="translate(90.205,388.0511)">
          <path
             inkscape:connector-curvature="0"
             d="m 0,0 7.598,5.068 c 0.351,1.484 1.808,8.075 4.73,9.6 2.895,1.913 13.568,-5.948 13.629,-6.012 l 0,-11.475 -2.314,0.403 -0.905,9.159 c -0.873,0.176 -1.744,0.351 -2.616,0.526 1.905,-4.929 2.605,-9.675 1.509,-12.804 l 4.629,-18.916 -3.119,-2.213 -6.742,17.508 -3.119,-3.323 -4.326,-13.179 -4.125,1.509 3.723,13.883 4.326,7.75 L 11.22,3.201 9.457,0.904 1.207,-1.811 0,0 z"
             style="fill:#231f20;fill-opacity:1;fill-rule:evenodd;stroke:none"
             id="path3175" />
        </g>
        <g
           id="g3177"
           transform="translate(132.2992,322.3181)">
          <path
             inkscape:connector-curvature="0"
             d="m 0,0 -1.357,0 -1.579,4.387 -0.82,-1.516 0,-2.871 -1.295,0 0,8.994 1.295,0 0,-3.597 2.051,3.597 1.484,0 L -2.084,5.838 0,0 z m -6.314,0 -4.577,0 0,8.994 1.294,0 0,-7.794 3.283,0 0,-1.2 z m -8.05,3.725 -0.664,2.588 -0.631,-2.588 1.295,0 z M -12.122,0 l -1.294,0 -0.632,2.461 -1.926,0 -0.6,-2.461 -1.294,0 2.241,8.994 1.263,0 L -12.122,0 z M -18.405,8.994 -19.858,0 -20.961,0 -21.815,4.703 -22.667,0 l -1.136,0 -1.421,8.994 1.263,0 0.757,-4.796 0.884,4.796 1.011,0 0.851,-4.796 0.79,4.796 1.263,0 z m -7.64,-6.533 c 0,-0.715 -0.243,-1.33 -0.726,-1.845 -0.484,-0.516 -1.073,-0.774 -1.769,-0.774 -0.756,0 -1.367,0.274 -1.83,0.82 -0.462,0.547 -0.695,1.211 -0.695,1.989 l 1.264,0 c 0,-1.032 0.42,-1.545 1.261,-1.545 0.338,0 0.632,0.137 0.885,0.41 0.252,0.273 0.379,0.588 0.379,0.945 0,0.463 -0.242,0.895 -0.726,1.295 0.105,-0.062 -0.4,0.295 -1.516,1.072 -0.736,0.528 -1.104,1.19 -1.104,1.989 0,0.652 0.22,1.205 0.663,1.658 0.441,0.451 0.989,0.678 1.641,0.678 0.632,0 1.163,-0.221 1.595,-0.662 0.431,-0.444 0.657,-1 0.678,-1.674 l -1.231,0 c -0.043,0.695 -0.389,1.043 -1.042,1.043 -0.295,0 -0.548,-0.102 -0.758,-0.301 -0.21,-0.199 -0.315,-0.447 -0.315,-0.742 0,-0.399 0.284,-0.756 0.851,-1.073 1.664,-0.968 2.495,-2.062 2.495,-3.283 m -6.093,0 c 0,-0.715 -0.242,-1.33 -0.726,-1.845 -0.484,-0.516 -1.074,-0.774 -1.768,-0.774 -0.757,0 -1.368,0.274 -1.831,0.82 -0.463,0.547 -0.695,1.211 -0.695,1.989 l 1.263,0 c 0,-1.032 0.421,-1.545 1.263,-1.545 0.337,0 0.631,0.137 0.884,0.41 0.252,0.273 0.378,0.588 0.378,0.945 0,0.463 -0.242,0.895 -0.725,1.295 0.105,-0.062 -0.401,0.295 -1.516,1.072 -0.736,0.528 -1.104,1.19 -1.104,1.989 0,0.652 0.22,1.205 0.662,1.658 0.442,0.451 0.99,0.678 1.642,0.678 0.631,0 1.163,-0.221 1.594,-0.662 0.432,-0.444 0.658,-1 0.679,-1.674 l -1.232,0 c -0.042,0.695 -0.388,1.043 -1.041,1.043 -0.294,0 -0.547,-0.102 -0.757,-0.301 -0.211,-0.199 -0.317,-0.447 -0.317,-0.742 0,-0.399 0.285,-0.756 0.853,-1.073 1.663,-0.968 2.494,-2.062 2.494,-3.283 m -7.609,2.053 c 0,0.904 -0.094,1.65 -0.284,2.24 -0.231,0.758 -0.599,1.137 -1.104,1.137 -0.547,0 -0.926,-0.369 -1.137,-1.105 -0.189,-0.61 -0.284,-1.377 -0.284,-2.303 0,-0.864 0.095,-1.621 0.284,-2.274 0.211,-0.736 0.59,-1.103 1.137,-1.103 0.526,0 0.894,0.367 1.104,1.103 0.19,0.631 0.284,1.401 0.284,2.305 m 1.232,0 c 0,-1.283 -0.168,-2.326 -0.505,-3.125 -0.421,-1.031 -1.126,-1.547 -2.115,-1.547 -1.011,0 -1.726,0.516 -2.147,1.547 -0.337,0.799 -0.506,1.842 -0.506,3.125 0,1.305 0.169,2.346 0.506,3.123 0.442,1.012 1.158,1.516 2.147,1.516 0.989,0 1.694,-0.516 2.115,-1.547 0.337,-0.799 0.505,-1.83 0.505,-3.092 m -7.893,2.082 c 0,0.758 -0.389,1.137 -1.168,1.137 l -1.326,0 0,-2.274 1.326,0 c 0.779,0 1.168,0.379 1.168,1.137 M -45.145,0 l -1.326,0 -1.199,4.229 -1.232,0 0,-4.229 -1.294,0 0,8.994 2.684,0 c 0.715,0 1.289,-0.214 1.721,-0.646 0.431,-0.432 0.646,-1.016 0.646,-1.752 0,-1.115 -0.432,-1.84 -1.294,-2.178 L -45.145,0 z m -6.851,6.596 -1.294,0 c -0.105,0.863 -0.462,1.295 -1.074,1.295 -0.525,0 -0.893,-0.232 -1.104,-0.695 -0.21,-0.463 -0.316,-1.284 -0.316,-2.461 0,-2.42 0.516,-3.629 1.547,-3.629 0.631,0 0.947,0.43 0.947,1.293 l 1.294,0 c -0.02,-0.758 -0.242,-1.373 -0.663,-1.846 -0.421,-0.475 -0.947,-0.711 -1.578,-0.711 -1.852,0 -2.778,1.621 -2.778,4.861 0,2.967 0.894,4.45 2.684,4.45 0.757,0 1.346,-0.305 1.767,-0.916 0.295,-0.377 0.484,-0.926 0.568,-1.641"
             style="fill:#231f20;fill-opacity:1;fill-rule:evenodd;stroke:none"
             id="path3179" />
        </g>
        <g
           id="g3181"
           transform="translate(118.7294,509.8681)">
          <path
             inkscape:connector-curvature="0"
             d="m 0,0 -1.767,-11.992 -1.683,0 -1.894,7.7 -1.851,-7.7 -1.683,0 L -10.645,0 -8.71,0 -7.784,-6.312 -6.27,0 -4.418,0 -2.861,-6.312 -1.936,0 0,0 z m -15.274,-6.69 -1.178,3.366 -1.221,-3.366 2.399,0 z m 3.871,-5.302 -2.02,0 -1.178,3.365 -3.745,0 -1.178,-3.365 -2.02,0 4.124,11.992 1.894,0 4.123,-11.992 z m -10.857,0 -7.447,0 0,11.992 1.894,0 0,-10.224 5.553,0 0,-1.768 z"
             style="fill:#231f20;fill-opacity:1;fill-rule:evenodd;stroke:none"
             id="path3183" />
        </g>
        <g
           id="g3185"
           transform="translate(119.664,335.8241)">
          <path
             inkscape:connector-curvature="0"
             d="m 0,0 -0.978,0 -2.777,6.028 0,-6.028 -1.294,0 0,8.994 1.294,0 2.462,-5.396 0,5.396 L 0,8.994 0,0 z m -7.031,0 -1.262,0 0,8.994 1.262,0 0,-8.994 z m -3.223,0 -1.294,0 0,4.072 -2.461,0 0,-4.072 -1.294,0 0,8.994 1.294,0 0,-3.66 2.461,0 0,3.66 1.294,0 0,-8.994 z m -6.279,7.795 -1.641,0 0,-7.795 -1.294,0 0,7.795 -1.64,0 0,1.199 4.575,0 0,-1.199 z M -22.396,0 l -1.262,0 0,8.994 1.262,0 0,-8.994 z M -24.895,8.994 -26.346,0 -27.45,0 -28.302,4.703 -29.154,0 l -1.136,0 -1.42,8.994 1.263,0 0.756,-4.797 0.884,4.797 1.01,0 0.852,-4.797 0.789,4.797 1.261,0 z"
             style="fill:#231f20;fill-opacity:1;fill-rule:evenodd;stroke:none"
             id="path3187" />
        </g>
        <g
           id="g3189"
           transform="translate(72.5566,556.3721)">
          <path
             inkscape:connector-curvature="0"
             d="m 0,0 62.403,-0.028 c 2.642,0 4.799,-2.155 4.799,-4.796 l 0,-14.367 c 0,-2.642 -2.157,-4.796 -4.799,-4.796 l -62.375,0 c -2.642,0 -4.798,2.154 -4.798,4.796 L -4.798,-4.796 C -4.798,-2.155 -2.643,0 0,0"
             style="fill:#b5dc17;fill-opacity:1;fill-rule:nonzero;stroke:none"
             id="path3191" />
        </g>
      </g>
    </g>
    <g
       transform="matrix(1.25,0,0,-1.25,130.30144,1006.4019)"
       id="g3193">
      <g
         id="g3195"
         clip-path="url(#clipPath3197)">
        <g
           id="g3201"
           transform="translate(72.5566,556.3721)">
          <path
             inkscape:connector-curvature="0"
             d="m 0,0 62.403,-0.028 c 2.642,0 4.799,-2.155 4.799,-4.796 l 0,-14.367 c 0,-2.642 -2.157,-4.796 -4.799,-4.796 l -62.375,0 c -2.642,0 -4.798,2.154 -4.798,4.796 L -4.798,-4.796 C -4.798,-2.155 -2.643,0 0,0 z"
             style="fill:none;stroke:#231f20;stroke-width:0.5;stroke-linecap:butt;stroke-linejoin:miter;stroke-miterlimit:4;stroke-opacity:1;stroke-dasharray:none"
             id="path3203" />
        </g>
      </g>
    </g>
    <g
       transform="matrix(1.25,0,0,-1.25,130.30144,1006.4019)"
       id="g3205">
      <g
         id="g3207"
         clip-path="url(#clipPath3209)">
        <g
           id="g3213"
           transform="translate(72.372,555.1571)">
          <path
             inkscape:connector-curvature="0"
             d="m 0,0 0.085,0 62.631,0 0.014,0 c 1.912,-0.007 3.471,-1.569 3.471,-3.484 0,-0.073 -0.004,-0.147 -0.008,-0.219 l 0.008,-0.008 0,-14.381 0,-0.011 c 0,-1.865 -1.479,-3.396 -3.325,-3.48 l -0.004,-0.004 -0.156,0 -62.631,0 -0.157,0 -0.004,0.004 c -1.8,0.082 -3.251,1.542 -3.32,3.345 l -0.003,0.003 0,0.132 0,14.619 0,0.131 0.003,0.003 c 0.069,1.829 1.56,3.304 3.394,3.349 L 0,0 z"
             style="fill:#231f20;fill-opacity:1;fill-rule:evenodd;stroke:none"
             id="path3215" />
        </g>
        <g
           id="g3217"
           transform="translate(72.4541,553.1571)">
          <path
             inkscape:connector-curvature="0"
             d="m 0,0 62.636,0 0.002,0 c 0.815,0 1.481,-0.664 1.481,-1.479 0,-0.031 -0.002,-0.061 -0.004,-0.09 l 0.004,-0.004 0,-14.534 0,-0.052 -0.002,-0.001 c -0.026,-0.741 -0.602,-1.346 -1.33,-1.419 l -0.006,-0.008 -0.143,0 -62.638,0 -0.002,0 c -0.797,0 -1.45,0.636 -1.478,1.427 l -0.001,0.001 0,0.052 0,14.534 0.002,0.004 c -10e-4,0.029 -0.002,0.059 -0.002,0.09 0,0.815 0.665,1.479 1.479,1.479 L 0,0 z"
             style="fill:#b5dc17;fill-opacity:1;fill-rule:evenodd;stroke:none"
             id="path3219" />
        </g>
        <g
           id="g3221"
           transform="translate(134.8285,538.368)">
          <path
             inkscape:connector-curvature="0"
             d="m 0,0 0,1.767 -5.555,0 0,10.225 -1.892,0 L -7.447,0 0,0 z m -11.95,5.975 c 0,-0.926 -0.21,-2.104 -0.463,-2.735 -0.42,-1.052 -0.967,-1.515 -1.85,-1.515 -0.758,0 -1.263,0.295 -1.642,0.926 -0.463,0.757 -0.716,2.062 -0.716,3.324 0,1.01 0.168,2.104 0.463,2.819 0.422,1.052 1.01,1.515 1.936,1.473 0.716,-0.042 1.179,-0.295 1.557,-0.926 0.462,-0.799 0.715,-2.02 0.715,-3.366 m 1.894,0 c 0,1.515 -0.295,3.03 -0.799,4.082 -0.758,1.472 -1.81,2.145 -3.324,2.145 -1.389,0 -2.358,-0.421 -3.072,-1.346 -0.799,-1.136 -1.305,-2.904 -1.305,-4.881 0,-1.431 0.337,-3.03 0.842,-4.04 0.715,-1.472 1.767,-2.153 3.451,-2.153 1.262,0 2.229,0.428 2.902,1.354 0.842,1.052 1.305,2.945 1.305,4.839 m -12.75,0 c 0,-0.926 -0.21,-2.104 -0.463,-2.735 -0.42,-1.052 -0.967,-1.515 -1.852,-1.515 -0.756,0 -1.261,0.295 -1.64,0.926 -0.463,0.757 -0.715,2.062 -0.715,3.324 0,1.01 0.168,2.104 0.463,2.819 0.42,1.052 1.01,1.515 1.935,1.473 0.715,-0.042 1.178,-0.295 1.557,-0.926 0.463,-0.799 0.715,-2.02 0.715,-3.366 m 1.894,0 c 0,1.515 -0.294,3.03 -0.8,4.082 -0.757,1.472 -1.809,2.145 -3.325,2.145 -1.388,0 -2.355,-0.421 -3.071,-1.346 -0.8,-1.136 -1.304,-2.904 -1.304,-4.881 0,-1.431 0.336,-3.03 0.841,-4.04 0.716,-1.472 1.768,-2.153 3.45,-2.153 1.263,0 2.231,0.428 2.905,1.354 0.842,1.052 1.304,2.945 1.304,4.839 M -31.979,0 l 0,11.992 -1.893,0 0,-4.839 -4.376,0 0,4.839 -1.894,0 0,-11.992 1.894,0 0,5.217 4.376,0 0,-5.217 1.893,0 z m -10.772,2.44 -1.809,0.673 c -0.463,-0.967 -1.053,-1.388 -1.852,-1.388 -0.841,0 -1.388,0.295 -1.809,0.926 -0.463,0.757 -0.758,2.062 -0.758,3.366 0,1.01 0.169,2.062 0.463,2.777 0.421,1.052 1.052,1.473 2.019,1.473 0.926,0 1.305,-0.252 1.978,-1.262 l 1.768,0.757 c -0.799,1.683 -1.936,2.44 -3.746,2.44 -1.346,0 -2.356,-0.463 -3.071,-1.346 -0.842,-1.052 -1.346,-2.946 -1.346,-4.839 0,-1.515 0.336,-3.03 0.883,-4.082 0.758,-1.472 1.894,-2.153 3.66,-2.153 1.726,0 2.905,0.891 3.62,2.658 m -9.889,1.01 c 0,4.713 -5.639,3.241 -5.807,5.47 -0.084,1.095 0.968,1.431 1.852,1.389 1.347,-0.042 1.767,-1.052 1.767,-1.052 l 1.683,0.505 c -0.589,1.473 -1.726,2.44 -3.408,2.44 -2.146,0 -3.745,-0.883 -3.745,-3.239 0,-1.978 1.599,-2.693 2.314,-2.988 1.557,-0.631 3.408,-0.884 3.408,-2.483 0,-1.009 -0.757,-1.767 -1.851,-1.767 -1.136,0 -2.062,0.631 -2.567,1.767 l -1.809,-0.673 c 0.8,-1.81 2.314,-3.037 4.376,-3.037 1.01,0 1.935,0.344 2.609,0.933 0.758,0.673 1.178,1.641 1.178,2.735"
             style="fill:#231f20;fill-opacity:1;fill-rule:evenodd;stroke:none"
             id="path3223" />
        </g>
      </g>
    </g>
  </g>
</svg>
