<?xml version="1.0" encoding="UTF-8" standalone="no"?>
<!-- Created with Inkscape (http://www.inkscape.org/) -->

<svg
   xmlns:dc="http://purl.org/dc/elements/1.1/"
   xmlns:cc="http://creativecommons.org/ns#"
   xmlns:rdf="http://www.w3.org/1999/02/22-rdf-syntax-ns#"
   xmlns:svg="http://www.w3.org/2000/svg"
   xmlns="http://www.w3.org/2000/svg"
   xmlns:sodipodi="http://sodipodi.sourceforge.net/DTD/sodipodi-0.dtd"
   xmlns:inkscape="http://www.inkscape.org/namespaces/inkscape"
   width="90.644379"
   height="300.60876"
   id="svg4976"
   version="1.1"
   inkscape:version="0.48.2 r9819"
   sodipodi:docname="New document 24">
  <defs
     id="defs4978">
    <clipPath
       clipPathUnits="userSpaceOnUse"
       id="clipPath3723">
      <path
         inkscape:connector-curvature="0"
         d="m 63,255.16 512.875,0 0,482.84 L 63,738 63,255.16 z"
         id="path3725" />
    </clipPath>
  </defs>
  <sodipodi:namedview
     id="base"
     pagecolor="#ffffff"
     bordercolor="#666666"
     borderopacity="1.0"
     inkscape:pageopacity="0.0"
     inkscape:pageshadow="2"
     inkscape:zoom="0.35"
     inkscape:cx="117.47411"
     inkscape:cy="167.44159"
     inkscape:document-units="px"
     inkscape:current-layer="layer1"
     showgrid="false"
     fit-margin-top="0"
     fit-margin-left="0"
     fit-margin-right="0"
     fit-margin-bottom="0"
     inkscape:window-width="469"
     inkscape:window-height="425"
     inkscape:window-x="1516"
     inkscape:window-y="150"
     inkscape:window-maximized="0" />
  <metadata
     id="metadata4981">
    <rdf:RDF>
      <cc:Work
         rdf:about="">
        <dc:format>image/svg+xml</dc:format>
        <dc:type
           rdf:resource="http://purl.org/dc/dcmitype/StillImage" />
        <dc:title></dc:title>
      </cc:Work>
    </rdf:RDF>
  </metadata>
  <g
     inkscape:label="Layer 1"
     inkscape:groupmode="layer"
     id="layer1"
     transform="translate(-257.52589,-399.19502)">
    <g
       transform="matrix(1.25,0,0,-1.25,38.414393,1094.9714)"
       id="g3719">
      <g
         id="g3721"
         clip-path="url(#clipPath3723)">
        <g
           id="g3727"
           transform="translate(184.5547,532.3841)">
          <path
             inkscape:connector-curvature="0"
             d="m 0,0 54,0 c 4.957,0 9,-4.044 9,-9 l 0,-198.009 c 0,-4.957 -4.043,-9 -9,-9 l -54,0 c -4.957,0 -9,4.043 -9,9 L -9,-9 c 0,4.956 4.043,9 9,9"
             style="fill:#b5dc17;fill-opacity:1;fill-rule:evenodd;stroke:none"
             id="path3729" />
        </g>
        <g
           id="g3731"
           transform="translate(184.5547,532.3841)">
          <path
             inkscape:connector-curvature="0"
             d="m 0,0 54,0 c 4.957,0 9,-4.044 9,-9 l 0,-198.009 c 0,-4.957 -4.043,-9 -9,-9 l -54,0 c -4.957,0 -9,4.043 -9,9 L -9,-9 c 0,4.956 4.043,9 9,9 z"
             style="fill:none;stroke:#231f20;stroke-width:0.5;stroke-linecap:butt;stroke-linejoin:miter;stroke-miterlimit:4;stroke-opacity:1;stroke-dasharray:none"
             id="path3733" />
        </g>
        <g
           id="g3735"
           transform="translate(187.5547,493.3521)">
          <path
             inkscape:connector-curvature="0"
             d="m 0,0 47.999,0 c 3.305,0 6,-2.696 6,-5.999 l 0,-132.007 c 0,-3.305 -2.695,-6 -6,-6 l -47.999,0 c -3.304,0 -6,2.695 -6,6 L -6,-5.999 C -6,-2.696 -3.304,0 0,0"
             style="fill:#231f20;fill-opacity:1;fill-rule:evenodd;stroke:none"
             id="path3737" />
        </g>
        <g
           id="g3739"
           transform="translate(187.5737,491.8531)">
          <path
             inkscape:connector-curvature="0"
             d="M 0,0 27.961,0 44.41,0 c 2.574,0 5.631,0.476 7.301,-1.991 0.957,-1.415 0.769,-3.124 0.769,-4.743 l 0,-8.815 0,-31.617 0,-39.386 0,-34.104 0,-15.754 c 0,-2.89 -2.33,-4.597 -5.033,-4.597 l -12.277,0 -33.68,0 c -0.939,0 -1.934,-0.08 -2.843,0.203 -1.789,0.56 -3.044,2.207 -3.159,4.066 -0.08,1.283 -0.007,2.59 -0.007,3.873 l 0,25.051 0,37.909 0,37.717 0,24.461 0,3.128 C -4.519,-2.096 -2.527,-0.01 0,0"
             style="fill:#ffffff;fill-opacity:1;fill-rule:evenodd;stroke:none"
             id="path3741" />
        </g>
        <g
           id="g3743"
           transform="translate(233.6947,514.3591)">
          <path
             inkscape:connector-curvature="0"
             d="m 0,0 -7.373,0 0,11.994 6.998,0 0,-1.894 -5.123,0 0,-2.945 3.457,0 0,-1.936 -3.457,0 0,-3.282 L 0,1.937 0,0 z m -9.123,10.311 -2.748,0 0,-10.311 -1.875,0 0,10.311 -2.707,0 0,1.683 7.33,0 0,-1.683 z m -11.914,-5.008 -1.166,3.366 -1.207,-3.366 2.373,0 z M -17.203,0 l -2,0 -1.166,3.368 -3.709,0 -1.166,-3.368 -1.999,0 4.083,11.994 1.873,0 L -17.203,0 z m -10.748,10.311 -2.75,0 0,-10.311 -1.874,0 0,10.311 -2.708,0 0,1.683 7.332,0 0,-1.683 z m -8.29,-6.859 c 0,-1.151 -0.368,-2.048 -1.104,-2.694 -0.736,-0.644 -1.618,-0.968 -2.645,-0.968 -2.028,0 -3.472,1.01 -4.332,3.031 l 1.791,0.673 c 0.527,-1.179 1.375,-1.767 2.541,-1.767 1.221,0 1.833,0.588 1.833,1.767 0,0.672 -0.362,1.206 -1.083,1.598 -0.75,0.281 -1.514,0.576 -2.291,0.885 -1.528,0.644 -2.291,1.641 -2.291,2.987 0,2.16 1.235,3.24 3.707,3.24 1.611,0 2.735,-0.814 3.374,-2.44 -0.666,-0.225 -1.222,-0.394 -1.666,-0.506 -0.362,0.701 -0.945,1.053 -1.749,1.053 -1.279,0 -1.889,-0.463 -1.834,-1.389 0.056,-0.59 0.57,-1.052 1.542,-1.388 1.499,-0.477 2.416,-0.829 2.749,-1.053 0.972,-0.645 1.458,-1.654 1.458,-3.029"
             style="fill:#231f20;fill-opacity:1;fill-rule:evenodd;stroke:none"
             id="path3745" />
        </g>
        <g
           id="g3747"
           transform="translate(208.9677,410.8931)">
          <path
             inkscape:connector-curvature="0"
             d="m 0,0 c 1.995,0 3.622,-1.629 3.622,-3.623 0,-1.994 -1.627,-3.621 -3.622,-3.621 -1.995,0 -3.622,1.627 -3.622,3.621 C -3.622,-1.629 -1.995,0 0,0"
             style="fill:#231f20;fill-opacity:1;fill-rule:evenodd;stroke:none"
             id="path3749" />
        </g>
        <g
           id="g3751"
           transform="translate(198.0017,388.0511)">
          <path
             inkscape:connector-curvature="0"
             d="m 0,0 7.597,5.068 c 0.352,1.485 1.809,8.075 4.731,9.6 2.894,1.914 13.568,-5.949 13.629,-6.013 l 0,-11.472 -2.315,0.403 -0.904,9.158 c -0.873,0.174 -1.744,0.35 -2.617,0.526 1.906,-4.928 2.605,-9.676 1.51,-12.803 l 4.628,-18.916 -3.119,-2.215 -6.742,17.508 -3.119,-3.321 -4.325,-13.181 -4.125,1.509 3.722,13.885 4.326,7.748 L 11.218,3.203 9.457,0.906 1.207,-1.811 0,0 z"
             style="fill:#231f20;fill-opacity:1;fill-rule:evenodd;stroke:none"
             id="path3753" />
        </g>
        <g
           id="g3755"
           transform="translate(240.0947,322.3181)">
          <path
             inkscape:connector-curvature="0"
             d="m 0,0 -1.357,0 -1.578,4.389 -0.82,-1.516 0,-2.873 -1.295,0 0,8.996 1.295,0 0,-3.597 2.05,3.597 1.485,0 L -2.084,5.84 0,0 z m -6.314,0 -4.576,0 0,8.996 1.293,0 0,-7.796 3.283,0 0,-1.2 z m -8.049,3.725 -0.664,2.588 -0.631,-2.588 1.295,0 z m 2.24,-3.725 -1.293,0 -0.632,2.463 -1.926,0 -0.6,-2.463 -1.293,0 2.24,8.996 1.264,0 L -12.123,0 z M -18.404,8.996 -19.857,0 -20.961,0 -21.814,4.703 -22.666,0 l -1.136,0 -1.422,8.996 1.263,0 0.758,-4.796 0.883,4.796 1.012,0 0.851,-4.796 0.789,4.796 1.264,0 z m -7.64,-6.533 c 0,-0.715 -0.243,-1.33 -0.727,-1.845 -0.484,-0.516 -1.072,-0.774 -1.768,-0.774 -0.757,0 -1.367,0.274 -1.83,0.82 -0.463,0.547 -0.695,1.209 -0.695,1.989 l 1.264,0 c 0,-1.032 0.42,-1.547 1.261,-1.547 0.338,0 0.631,0.137 0.885,0.41 0.252,0.273 0.379,0.59 0.379,0.947 0,0.463 -0.242,0.895 -0.727,1.293 0.106,-0.062 -0.4,0.295 -1.515,1.074 -0.736,0.526 -1.106,1.188 -1.106,1.989 0,0.652 0.221,1.203 0.664,1.656 0.442,0.453 0.989,0.68 1.641,0.68 0.633,0 1.164,-0.223 1.596,-0.664 0.429,-0.442 0.656,-1 0.678,-1.672 l -1.231,0 c -0.043,0.693 -0.391,1.041 -1.043,1.041 -0.295,0 -0.547,-0.1 -0.758,-0.301 -0.209,-0.199 -0.314,-0.445 -0.314,-0.74 0,-0.401 0.283,-0.758 0.851,-1.075 1.662,-0.966 2.495,-2.06 2.495,-3.281 m -6.093,0 c 0,-0.715 -0.242,-1.33 -0.726,-1.845 -0.484,-0.516 -1.074,-0.774 -1.768,-0.774 -0.757,0 -1.369,0.274 -1.831,0.82 -0.463,0.547 -0.695,1.209 -0.695,1.989 l 1.263,0 c 0,-1.032 0.421,-1.547 1.263,-1.547 0.337,0 0.631,0.137 0.883,0.41 0.253,0.273 0.379,0.59 0.379,0.947 0,0.463 -0.242,0.895 -0.725,1.293 0.105,-0.062 -0.401,0.295 -1.516,1.074 -0.736,0.526 -1.104,1.188 -1.104,1.989 0,0.652 0.22,1.203 0.662,1.656 0.442,0.453 0.99,0.68 1.642,0.68 0.631,0 1.162,-0.223 1.594,-0.664 0.432,-0.442 0.658,-1 0.679,-1.672 l -1.232,0 c -0.042,0.693 -0.388,1.041 -1.041,1.041 -0.295,0 -0.548,-0.1 -0.758,-0.301 -0.21,-0.199 -0.316,-0.445 -0.316,-0.74 0,-0.401 0.285,-0.758 0.853,-1.075 1.663,-0.966 2.494,-2.06 2.494,-3.281 m -7.609,2.051 c 0,0.904 -0.094,1.652 -0.284,2.24 -0.231,0.758 -0.599,1.137 -1.104,1.137 -0.547,0 -0.926,-0.367 -1.137,-1.104 -0.19,-0.611 -0.284,-1.378 -0.284,-2.304 0,-0.864 0.094,-1.619 0.284,-2.272 0.211,-0.736 0.59,-1.105 1.137,-1.105 0.526,0 0.894,0.369 1.104,1.105 0.19,0.631 0.284,1.399 0.284,2.303 m 1.232,0 c 0,-1.283 -0.168,-2.324 -0.505,-3.123 -0.421,-1.031 -1.126,-1.547 -2.115,-1.547 -1.011,0 -1.726,0.516 -2.147,1.547 -0.337,0.799 -0.506,1.84 -0.506,3.123 0,1.305 0.169,2.346 0.506,3.125 0.442,1.01 1.157,1.516 2.147,1.516 0.989,0 1.694,-0.516 2.115,-1.547 0.337,-0.801 0.505,-1.83 0.505,-3.094 m -7.893,2.084 c 0,0.756 -0.389,1.135 -1.168,1.135 l -1.326,0 0,-2.272 1.326,0 c 0.779,0 1.168,0.379 1.168,1.137 M -45.144,0 l -1.326,0 -1.199,4.231 -1.232,0 0,-4.231 -1.294,0 0,8.996 2.684,0 c 0.715,0 1.289,-0.216 1.72,-0.648 0.432,-0.43 0.647,-1.014 0.647,-1.75 0,-1.115 -0.432,-1.842 -1.294,-2.178 L -45.144,0 z m -6.851,6.598 -1.294,0 c -0.105,0.861 -0.463,1.293 -1.074,1.293 -0.525,0 -0.893,-0.23 -1.104,-0.693 -0.21,-0.463 -0.316,-1.284 -0.316,-2.463 0,-2.42 0.516,-3.629 1.547,-3.629 0.631,0 0.947,0.431 0.947,1.295 l 1.294,0 c -0.02,-0.758 -0.242,-1.373 -0.663,-1.848 -0.421,-0.473 -0.947,-0.709 -1.578,-0.709 -1.852,0 -2.778,1.619 -2.778,4.859 0,2.967 0.894,4.452 2.683,4.452 0.758,0 1.347,-0.307 1.768,-0.916 0.295,-0.379 0.484,-0.926 0.568,-1.641"
             style="fill:#231f20;fill-opacity:1;fill-rule:evenodd;stroke:none"
             id="path3757" />
        </g>
        <g
           id="g3759"
           transform="translate(226.5247,509.8671)">
          <path
             inkscape:connector-curvature="0"
             d="m 0,0 -1.766,-11.992 -1.683,0 -1.895,7.701 -1.851,-7.701 -1.682,0 L -10.644,0 -8.709,0 -7.783,-6.311 -6.269,0 -4.418,0 -2.861,-6.311 -1.935,0 0,0 z m -15.273,-6.69 -1.178,3.366 -1.221,-3.366 2.399,0 z m 3.871,-5.302 -2.02,0 -1.177,3.366 -3.746,0 -1.178,-3.366 -2.02,0 4.123,11.992 1.895,0 4.123,-11.992 z m -10.857,0 -7.447,0 0,11.992 1.894,0 0,-10.224 5.553,0 0,-1.768 z"
             style="fill:#231f20;fill-opacity:1;fill-rule:evenodd;stroke:none"
             id="path3761" />
        </g>
        <g
           id="g3763"
           transform="translate(227.4607,335.8261)">
          <path
             inkscape:connector-curvature="0"
             d="m 0,0 -0.979,0 -2.777,6.028 0,-6.028 -1.293,0 0,8.994 1.293,0 2.463,-5.396 0,5.396 L 0,8.994 0,0 z m -7.032,0 -1.261,0 0,8.994 1.261,0 0,-8.994 z m -3.222,0 -1.295,0 0,4.07 -2.461,0 0,-4.07 -1.293,0 0,8.994 1.293,0 0,-3.662 2.461,0 0,3.662 1.295,0 0,-8.994 z m -6.28,7.795 -1.64,0 0,-7.795 -1.294,0 0,7.795 -1.641,0 0,1.199 4.575,0 0,-1.199 z M -22.397,0 l -1.262,0 0,8.994 1.262,0 0,-8.994 z M -24.895,8.994 -26.346,0 -27.451,0 -28.302,4.701 -29.155,0 l -1.135,0 -1.42,8.994 1.262,0 0.757,-4.797 0.884,4.797 1.01,0 0.851,-4.797 0.789,4.797 1.262,0 z"
             style="fill:#231f20;fill-opacity:1;fill-rule:evenodd;stroke:none"
             id="path3765" />
        </g>
        <g
           id="g3767"
           transform="translate(220.7867,424.886)">
          <path
             inkscape:connector-curvature="0"
             d="m 0,0 c 0,0.543 -0.262,0.887 -0.783,1.033 -0.125,0.041 -0.323,0.063 -0.594,0.063 l -1.69,0 0,-2.19 1.69,0 c 0.375,0 0.646,0.051 0.812,0.157 C -0.188,-0.75 0,-0.437 0,0 m 1.594,-6.415 -1.532,0 -1.439,3.881 -1.69,0 0,-3.881 -1.408,0 0,8.919 2.942,0 c 0.646,0 1.177,-0.094 1.595,-0.281 C 0.959,1.783 1.406,1.043 1.406,0 c 0,-1.064 -0.459,-1.814 -1.375,-2.252 l 1.563,-4.163 z m -9.44,4.445 c 0,1.064 -0.178,1.898 -0.533,2.503 -0.25,0.438 -0.635,0.666 -1.156,0.688 -0.668,0.041 -1.149,-0.324 -1.44,-1.096 -0.23,-0.584 -0.344,-1.283 -0.344,-2.095 0,-1.067 0.178,-1.89 0.532,-2.476 0.271,-0.455 0.677,-0.686 1.22,-0.686 0.625,0 1.084,0.375 1.375,1.126 0.231,0.562 0.346,1.241 0.346,2.036 m 1.406,0 c 0,-1.546 -0.322,-2.745 -0.968,-3.599 -0.481,-0.668 -1.2,-1.002 -2.159,-1.002 -1.189,0 -2.044,0.533 -2.565,1.596 -0.417,0.832 -0.625,1.834 -0.625,3.005 0,1.542 0.323,2.753 0.97,3.628 0.5,0.668 1.259,1.002 2.283,1.002 1.105,0 1.928,-0.533 2.471,-1.595 0.396,-0.834 0.593,-1.846 0.593,-3.035 m -7.449,3.066 -4.129,0 0,-2.19 2.597,0 0,-1.44 -2.597,0 0,-3.881 -1.407,0 0,8.919 5.536,0 0,-1.408 z"
             style="fill:#231f20;fill-opacity:1;fill-rule:evenodd;stroke:none"
             id="path3769" />
        </g>
        <g
           id="g3771"
           transform="translate(187.9597,467.6431)">
          <path
             inkscape:connector-curvature="0"
             d="m 0,0 13.691,13.689 19.345,0 13.713,-13.691 0,-19.368 -13.713,-13.691 -19.345,0 L 0,-19.37 0,0 z"
             style="fill:#bf2519;fill-opacity:1;fill-rule:evenodd;stroke:none"
             id="path3773" />
        </g>
        <g
           id="g3775"
           transform="translate(230.8158,461.8141)">
          <path
             inkscape:connector-curvature="0"
             d="m 0,0 c 0,-1.471 -0.736,-2.321 -2.096,-2.321 l -2.377,0 0,4.587 2.377,0 C -0.849,2.266 0,1.36 0,0 m 2.266,0 c 0,2.718 -1.699,4.53 -4.248,4.53 l -4.813,0 0,-16.137 2.322,0 0,7.078 2.491,0 c 2.718,0 4.248,1.585 4.248,4.529 M -12.23,-3.51 c 0,-1.868 -0.114,-2.831 -0.51,-4.134 -0.397,-1.358 -1.02,-1.982 -1.983,-1.982 -1.019,0 -1.64,0.624 -2.037,1.982 -0.339,1.303 -0.509,2.322 -0.509,4.077 0,1.813 0.113,2.888 0.509,4.134 0.397,1.359 1.018,1.981 2.037,1.981 0.963,0 1.586,-0.622 1.983,-2.038 0.34,-1.189 0.51,-2.209 0.51,-4.02 m 2.209,0 c 0,2.434 -0.227,3.964 -0.907,5.55 -0.793,1.981 -1.925,2.773 -3.795,2.773 -1.867,0 -3,-0.792 -3.849,-2.717 -0.68,-1.529 -0.906,-3.172 -0.906,-5.606 0,-2.492 0.226,-4.021 0.906,-5.606 0.793,-1.925 1.926,-2.784 3.849,-2.784 1.813,0 3.002,0.859 3.795,2.784 0.68,1.529 0.907,3.114 0.907,5.606 m -11.383,5.888 0,2.152 -8.209,0 0,-2.152 2.944,0 0,-13.985 2.321,0 0,13.985 2.944,0 z m -9.682,-9.569 c 0,2.322 -1.359,4.077 -4.472,5.889 -1.19,0.679 -1.53,1.133 -1.53,1.925 0,1.077 0.85,1.869 1.926,1.869 1.019,0 1.812,-0.736 1.868,-1.869 l 2.208,0 c -0.056,2.435 -1.811,4.19 -4.076,4.19 -2.322,0 -4.134,-1.868 -4.134,-4.19 0,-1.416 0.679,-2.661 1.982,-3.567 3.284,-2.208 2.378,-1.585 2.717,-1.925 0.963,-0.736 1.303,-1.416 1.303,-2.322 0,-1.302 -1.019,-2.435 -2.264,-2.435 -1.586,0 -2.266,1.416 -2.266,2.775 l -2.265,0 c 0,-2.661 1.699,-5.049 4.531,-5.049 2.491,0 4.472,2.105 4.472,4.709"
             style="fill:#ffffff;fill-opacity:1;fill-rule:evenodd;stroke:none"
             id="path3777" />
        </g>
        <g
           id="g3779"
           transform="translate(180.3517,556.3711)">
          <path
             inkscape:connector-curvature="0"
             d="m 0,0 62.404,-0.028 c 2.642,0 4.799,-2.155 4.799,-4.796 l 0,-14.367 c 0,-2.642 -2.157,-4.796 -4.799,-4.796 l -62.375,0 c -2.643,0 -4.799,2.154 -4.799,4.796 L -4.798,-4.796 C -4.798,-2.155 -2.642,0 0,0"
             style="fill:#b5dc17;fill-opacity:1;fill-rule:nonzero;stroke:none"
             id="path3781" />
        </g>
        <g
           id="g3783"
           transform="translate(180.3517,556.3711)">
          <path
             inkscape:connector-curvature="0"
             d="m 0,0 62.404,-0.028 c 2.642,0 4.799,-2.155 4.799,-4.796 l 0,-14.367 c 0,-2.642 -2.157,-4.796 -4.799,-4.796 l -62.375,0 c -2.643,0 -4.799,2.154 -4.799,4.796 L -4.798,-4.796 C -4.798,-2.155 -2.642,0 0,0 z"
             style="fill:none;stroke:#231f20;stroke-width:0.5;stroke-linecap:butt;stroke-linejoin:miter;stroke-miterlimit:4;stroke-opacity:1;stroke-dasharray:none"
             id="path3785" />
        </g>
        <g
           id="g3787"
           transform="translate(180.1677,555.1561)">
          <path
             inkscape:connector-curvature="0"
             d="m 0,0 0.085,0 62.631,0 0.014,0 c 1.912,-0.007 3.471,-1.569 3.471,-3.484 0,-0.073 -0.004,-0.147 -0.008,-0.219 l 0.008,-0.008 0,-14.381 -10e-4,0 c 0,-0.004 10e-4,-0.007 10e-4,-0.011 0,-1.865 -1.48,-3.396 -3.324,-3.48 l -0.004,-0.004 -0.157,0 -62.631,0 -0.158,0 -0.003,0.004 c -1.8,0.082 -3.251,1.542 -3.321,3.345 l -0.003,0.003 0,0.132 0,14.619 0,0.131 0.003,0.003 c 0.07,1.829 1.561,3.304 3.395,3.349 L 0,0 z"
             style="fill:#231f20;fill-opacity:1;fill-rule:evenodd;stroke:none"
             id="path3789" />
        </g>
        <g
           id="g3791"
           transform="translate(180.2497,553.1561)">
          <path
             inkscape:connector-curvature="0"
             d="m 0,0 62.636,0 0.002,0 c 0.815,0 1.481,-0.664 1.481,-1.479 0,-0.031 -0.002,-0.061 -0.004,-0.09 l 0.004,-0.004 0,-14.534 0,-0.052 -0.002,-0.001 c -0.026,-0.741 -0.602,-1.346 -1.33,-1.419 l -0.007,-0.008 -0.142,0 -62.638,0 -0.002,0 c -0.797,0 -1.45,0.636 -1.479,1.427 l -10e-4,0.001 0,0.052 0,14.534 0.003,0.004 c -0.002,0.029 -0.003,0.059 -0.003,0.09 0,0.815 0.665,1.479 1.48,1.479 L 0,0 z"
             style="fill:#b5dc17;fill-opacity:1;fill-rule:evenodd;stroke:none"
             id="path3793" />
        </g>
        <g
           id="g3795"
           transform="translate(242.6247,538.3671)">
          <path
             inkscape:connector-curvature="0"
             d="m 0,0 0,1.767 -5.555,0 0,10.225 -1.893,0 L -7.448,0 0,0 z m -11.95,5.975 c 0,-0.926 -0.21,-2.104 -0.463,-2.735 -0.421,-1.052 -0.968,-1.515 -1.851,-1.515 -0.758,0 -1.263,0.295 -1.642,0.926 -0.462,0.757 -0.715,2.062 -0.715,3.324 0,1.01 0.168,2.104 0.463,2.819 0.421,1.052 1.009,1.515 1.935,1.473 0.716,-0.042 1.179,-0.295 1.557,-0.926 0.463,-0.799 0.716,-2.02 0.716,-3.366 m 1.893,0 c 0,1.515 -0.295,3.03 -0.799,4.082 -0.758,1.472 -1.81,2.145 -3.324,2.145 -1.389,0 -2.357,-0.421 -3.072,-1.346 -0.799,-1.136 -1.305,-2.904 -1.305,-4.881 0,-1.431 0.337,-3.03 0.842,-4.04 0.715,-1.472 1.767,-2.153 3.451,-2.153 1.262,0 2.23,0.428 2.902,1.354 0.842,1.052 1.305,2.945 1.305,4.839 m -12.75,0 c 0,-0.926 -0.21,-2.104 -0.463,-2.735 -0.42,-1.052 -0.967,-1.515 -1.851,-1.515 -0.757,0 -1.262,0.295 -1.641,0.926 -0.463,0.757 -0.715,2.062 -0.715,3.324 0,1.01 0.168,2.104 0.463,2.819 0.42,1.052 1.01,1.515 1.936,1.473 0.714,-0.042 1.177,-0.295 1.556,-0.926 0.463,-0.799 0.715,-2.02 0.715,-3.366 m 1.895,0 c 0,1.515 -0.295,3.03 -0.801,4.082 -0.757,1.472 -1.809,2.145 -3.324,2.145 -1.389,0 -2.356,-0.421 -3.072,-1.346 -0.799,-1.136 -1.303,-2.904 -1.303,-4.881 0,-1.431 0.336,-3.03 0.84,-4.04 0.716,-1.472 1.768,-2.153 3.451,-2.153 1.262,0 2.23,0.428 2.904,1.354 0.842,1.052 1.305,2.945 1.305,4.839 M -31.98,0 l 0,11.992 -1.893,0 0,-4.839 -4.376,0 0,4.839 -1.894,0 0,-11.992 1.894,0 0,5.217 4.376,0 0,-5.217 1.893,0 z m -10.772,2.44 -1.809,0.673 c -0.463,-0.967 -1.053,-1.388 -1.851,-1.388 -0.842,0 -1.389,0.295 -1.81,0.926 -0.463,0.757 -0.758,2.062 -0.758,3.366 0,1.01 0.169,2.062 0.463,2.777 0.421,1.052 1.052,1.473 2.02,1.473 0.925,0 1.304,-0.252 1.977,-1.262 l 1.768,0.757 c -0.799,1.683 -1.936,2.44 -3.745,2.44 -1.347,0 -2.357,-0.463 -3.072,-1.346 -0.841,-1.052 -1.346,-2.946 -1.346,-4.839 0,-1.515 0.337,-3.03 0.883,-4.082 0.758,-1.472 1.894,-2.153 3.661,-2.153 1.725,0 2.904,0.891 3.619,2.658 m -9.889,1.01 c 0,4.713 -5.639,3.241 -5.807,5.47 -0.084,1.095 0.968,1.431 1.852,1.389 1.347,-0.042 1.768,-1.052 1.768,-1.052 l 1.682,0.505 c -0.589,1.473 -1.725,2.44 -3.408,2.44 -2.145,0 -3.745,-0.883 -3.745,-3.239 0,-1.978 1.6,-2.693 2.314,-2.988 1.557,-0.631 3.409,-0.884 3.409,-2.483 0,-1.009 -0.757,-1.767 -1.852,-1.767 -1.136,0 -2.062,0.631 -2.566,1.767 l -1.81,-0.673 c 0.8,-1.81 2.314,-3.037 4.376,-3.037 1.01,0 1.936,0.344 2.609,0.933 0.758,0.673 1.178,1.641 1.178,2.735"
             style="fill:#231f20;fill-opacity:1;fill-rule:evenodd;stroke:none"
             id="path3797" />
        </g>
      </g>
    </g>
  </g>
</svg>
