<?xml version="1.0" encoding="UTF-8" standalone="no"?>
<!-- Created with Inkscape (http://www.inkscape.org/) -->

<svg
   xmlns:dc="http://purl.org/dc/elements/1.1/"
   xmlns:cc="http://creativecommons.org/ns#"
   xmlns:rdf="http://www.w3.org/1999/02/22-rdf-syntax-ns#"
   xmlns:svg="http://www.w3.org/2000/svg"
   xmlns="http://www.w3.org/2000/svg"
   xmlns:sodipodi="http://sodipodi.sourceforge.net/DTD/sodipodi-0.dtd"
   xmlns:inkscape="http://www.inkscape.org/namespaces/inkscape"
   width="60.625"
   height="75.625"
   id="svg9940"
   version="1.1"
   inkscape:version="0.48.3.1 r9886"
   sodipodi:docname="New document 69">
  <defs
     id="defs9942">
    <clipPath
       clipPathUnits="userSpaceOnUse"
       id="clipPath3609">
      <path
         inkscape:connector-curvature="0"
         d="m 63,127.718 513,0 0,610.282 -513,0 0,-610.282 z"
         id="path3611" />
    </clipPath>
  </defs>
  <sodipodi:namedview
     id="base"
     pagecolor="#ffffff"
     bordercolor="#666666"
     borderopacity="1.0"
     inkscape:pageopacity="0.0"
     inkscape:pageshadow="2"
     inkscape:zoom="0.35"
     inkscape:cx="-344.7048"
     inkscape:cy="288.15514"
     inkscape:document-units="px"
     inkscape:current-layer="layer1"
     showgrid="false"
     fit-margin-top="0"
     fit-margin-left="0"
     fit-margin-right="0"
     fit-margin-bottom="0"
     inkscape:window-width="451"
     inkscape:window-height="398"
     inkscape:window-x="50"
     inkscape:window-y="50"
     inkscape:window-maximized="0" />
  <metadata
     id="metadata9945">
    <rdf:RDF>
      <cc:Work
         rdf:about="">
        <dc:format>image/svg+xml</dc:format>
        <dc:type
           rdf:resource="http://purl.org/dc/dcmitype/StillImage" />
        <dc:title></dc:title>
      </cc:Work>
    </rdf:RDF>
  </metadata>
  <g
     inkscape:label="Layer 1"
     inkscape:groupmode="layer"
     id="layer1"
     transform="translate(-719.7048,-585.25378)">
    <g
       transform="matrix(1.25,0,0,-1.25,437.46805,838.88615)"
       id="g3605">
      <g
         id="g3607"
         clip-path="url(#clipPath3609)">
        <g
           id="g3613"
           transform="translate(274.0394,145.6559)">
          <path
             inkscape:connector-curvature="0"
             d="m 0,0 c 0,-1.656 -1.344,-3 -3.001,-3 l -42.002,0 c -1.656,0 -3,1.344 -3,3 l 0,54.003 c 0,1.657 1.344,3 3,3 l 42.002,0 c 1.657,0 3.001,-1.343 3.001,-3 L 0,0 z"
             style="fill:#ffffff;fill-opacity:1;fill-rule:nonzero;stroke:none"
             id="path3615" />
        </g>
        <g
           id="g3617"
           transform="translate(274.0394,145.6559)">
          <path
             inkscape:connector-curvature="0"
             d="m 0,0 c 0,-1.656 -1.344,-3 -3.001,-3 l -42.002,0 c -1.656,0 -3,1.344 -3,3 l 0,54.003 c 0,1.657 1.344,3 3,3 l 42.002,0 c 1.657,0 3.001,-1.343 3.001,-3 L 0,0 z"
             style="fill:none;stroke:#231f20;stroke-width:0.5;stroke-linecap:butt;stroke-linejoin:miter;stroke-miterlimit:4;stroke-opacity:1;stroke-dasharray:none"
             id="path3619" />
        </g>
        <g
           id="g3621"
           transform="translate(272.0384,145.6559)">
          <path
             inkscape:connector-curvature="0"
             d="m 0,0 c 0,-0.551 -0.448,-1 -1,-1 l -42.002,0 c -0.551,0 -1,0.449 -1,1 l 0,54.003 c 0,0.551 0.449,1 1,1 l 42.002,0 c 0.552,0 1,-0.449 1,-1 L 0,0 z m -1,56.253 -42.002,0 c -1.24,0 -2.25,-1.01 -2.25,-2.25 l 0,-54.003 c 0,-1.24 1.01,-2.25 2.25,-2.25 l 42.002,0 c 1.241,0 2.251,1.01 2.251,2.25 l 0,54.003 c 0,1.24 -1.01,2.25 -2.251,2.25"
             style="fill:#231f20;fill-opacity:1;fill-rule:nonzero;stroke:none"
             id="path3623" />
        </g>
        <g
           id="g3625"
           transform="translate(267.1484,168.6729)">
          <path
             inkscape:connector-curvature="0"
             d="m 0,0 0,1.067 -2.914,0 0,6.922 -1.15,0 L -4.064,0 0,0 z m -6.753,4.008 c 0,-0.924 -0.057,-1.4 -0.252,-2.045 -0.198,-0.674 -0.506,-0.982 -0.983,-0.982 -0.504,0 -0.812,0.308 -1.008,0.982 -0.168,0.645 -0.254,1.149 -0.254,2.018 0,0.896 0.057,1.43 0.254,2.047 0.196,0.672 0.504,0.98 1.008,0.98 0.477,0 0.785,-0.308 0.983,-1.01 0.168,-0.587 0.252,-1.091 0.252,-1.99 m 1.091,0 c 0,1.207 -0.111,1.963 -0.447,2.748 -0.392,0.981 -0.953,1.373 -1.879,1.373 -0.924,0 -1.484,-0.392 -1.906,-1.345 -0.336,-0.756 -0.447,-1.569 -0.447,-2.776 0,-1.232 0.111,-1.988 0.447,-2.773 0.393,-0.953 0.953,-1.379 1.906,-1.379 0.897,0 1.487,0.426 1.879,1.379 0.336,0.756 0.447,1.541 0.447,2.773 m -7.23,0 c 0,-0.924 -0.057,-1.4 -0.252,-2.045 -0.197,-0.674 -0.506,-0.982 -0.982,-0.982 -0.504,0 -0.813,0.308 -1.008,0.982 -0.168,0.645 -0.252,1.149 -0.252,2.018 0,0.896 0.054,1.43 0.252,2.047 0.195,0.672 0.504,0.98 1.008,0.98 0.476,0 0.785,-0.308 0.982,-1.01 0.168,-0.587 0.252,-1.091 0.252,-1.99 m 1.094,0 c 0,1.207 -0.114,1.963 -0.45,2.748 -0.392,0.981 -0.953,1.373 -1.878,1.373 -0.924,0 -1.485,-0.392 -1.905,-1.345 -0.338,-0.756 -0.449,-1.569 -0.449,-2.776 0,-1.232 0.111,-1.988 0.449,-2.773 0.393,-0.953 0.953,-1.379 1.905,-1.379 0.898,0 1.486,0.426 1.878,1.379 0.336,0.756 0.45,1.541 0.45,2.773 M -18.05,0 l 0,7.989 -1.149,0 0,-3.25 -2.185,0 0,3.25 -1.151,0 0,-7.989 1.151,0 0,3.618 2.185,0 0,-3.618 1.149,0 z m -6.053,5.86 c -0.086,0.728 -0.197,1.064 -0.506,1.457 -0.363,0.531 -0.924,0.812 -1.568,0.812 -1.571,0 -2.383,-1.373 -2.383,-3.953 0,-2.941 0.756,-4.32 2.467,-4.32 1.121,0 1.961,0.957 1.99,2.275 l -1.15,0 c 0,-0.588 -0.168,-1.15 -0.84,-1.15 -0.983,0 -1.373,0.926 -1.373,3.224 0,2.075 0.336,2.803 1.259,2.803 0.534,0 0.842,-0.363 0.954,-1.148 l 1.15,0 z m -5.662,-3.672 c 0,1.148 -0.674,2.017 -2.215,2.914 -0.588,0.336 -0.756,0.56 -0.756,0.953 0,0.533 0.42,0.926 0.953,0.926 0.504,0 0.897,-0.365 0.924,-0.926 l 1.094,0 c -0.029,1.205 -0.897,2.074 -2.018,2.074 -1.15,0 -2.047,-0.926 -2.047,-2.074 0,-0.701 0.336,-1.316 0.981,-1.766 1.625,-1.093 1.178,-0.785 1.346,-0.953 0.476,-0.363 0.644,-0.701 0.644,-1.148 0,-0.645 -0.504,-1.207 -1.121,-1.207 -0.785,0 -1.121,0.701 -1.121,1.375 l -1.121,0 c 0,-1.319 0.842,-2.5 2.242,-2.5 1.232,0 2.215,1.043 2.215,2.332"
             style="fill:#231f20;fill-opacity:1;fill-rule:evenodd;stroke:none"
             id="path3627" />
        </g>
        <g
           id="g3629"
           transform="translate(256.9774,186.5909)">
          <path
             inkscape:connector-curvature="0"
             d="M 0,0 C 0,-0.615 -0.057,-1.175 -0.112,-1.681 -0.225,-2.297 -0.588,-2.83 -1.262,-2.83 l -0.953,0 0,5.746 0.953,0 c 0.506,0 0.842,-0.252 1.037,-0.812 C -0.084,1.766 0,0.899 0,0 m 1.121,0.057 c 0,0.617 -0.084,1.318 -0.196,1.906 -0.14,0.813 -0.476,1.43 -0.953,1.766 -0.281,0.224 -0.617,0.308 -1.289,0.308 l -2.047,0 0,-7.988 2.215,0 c 0.447,0 0.84,0.111 1.121,0.365 0.785,0.616 1.149,1.793 1.149,3.643 m -6.194,-4.008 0,7.988 -1.15,0 0,-4.793 -2.186,4.793 -1.148,0 0,-7.988 1.148,0 0,5.354 2.467,-5.354 0.869,0 z m -5.83,0 0,1.121 -2.916,0 0,2.635 1.655,0 0,1.094 -1.655,0 0,2.017 2.608,0 0,1.121 -3.756,0 0,-7.988 4.064,0 z"
             style="fill:#231f20;fill-opacity:1;fill-rule:evenodd;stroke:none"
             id="path3631" />
        </g>
        <g
           id="g3633"
           transform="translate(261.1064,154.6659)">
          <path
             inkscape:connector-curvature="0"
             d="m 0,0 0,1.121 -2.916,0 0,2.636 1.654,0 0,1.092 -1.654,0 0,2.018 2.607,0 0,1.121 -3.756,0 L -4.065,0 0,0 z m -5.776,0 0,7.988 -1.148,0 0,-4.793 -2.186,4.793 -1.15,0 0,-7.988 1.15,0 0,5.355 L -6.643,0 -5.776,0 z m -7.174,4.009 c 0,-0.925 -0.056,-1.402 -0.252,-2.047 -0.197,-0.671 -0.506,-0.98 -0.982,-0.98 -0.504,0 -0.813,0.309 -1.008,0.98 -0.168,0.645 -0.252,1.151 -0.252,2.018 0,0.898 0.055,1.43 0.252,2.047 0.195,0.672 0.504,0.98 1.008,0.98 0.476,0 0.785,-0.308 0.982,-1.007 0.168,-0.59 0.252,-1.094 0.252,-1.991 m 1.092,0 c 0,1.205 -0.111,1.961 -0.447,2.746 -0.393,0.983 -0.953,1.373 -1.879,1.373 -0.924,0 -1.484,-0.39 -1.906,-1.343 -0.336,-0.758 -0.448,-1.571 -0.448,-2.776 0,-1.234 0.112,-1.99 0.448,-2.775 0.392,-0.953 0.953,-1.379 1.906,-1.379 0.896,0 1.486,0.426 1.879,1.379 0.336,0.758 0.447,1.541 0.447,2.775 M -17.743,0 l 0,1.093 -3.224,0 3.224,6.196 0,0.728 -4.091,0 0,-1.121 2.662,0 -2.971,-5.662 0,-1.234 4.4,0 z"
             style="fill:#231f20;fill-opacity:1;fill-rule:evenodd;stroke:none"
             id="path3635" />
        </g>
      </g>
    </g>
  </g>
</svg>
