<?xml version="1.0" encoding="UTF-8" standalone="no"?>
<!-- Created with Inkscape (http://www.inkscape.org/) -->

<svg
   xmlns:dc="http://purl.org/dc/elements/1.1/"
   xmlns:cc="http://creativecommons.org/ns#"
   xmlns:rdf="http://www.w3.org/1999/02/22-rdf-syntax-ns#"
   xmlns:svg="http://www.w3.org/2000/svg"
   xmlns="http://www.w3.org/2000/svg"
   xmlns:sodipodi="http://sodipodi.sourceforge.net/DTD/sodipodi-0.dtd"
   xmlns:inkscape="http://www.inkscape.org/namespaces/inkscape"
   width="90.625"
   height="116.86186"
   id="svg5873"
   version="1.1"
   inkscape:version="0.48.3.1 r9886"
   sodipodi:docname="New document 21">
  <defs
     id="defs5875" />
  <sodipodi:namedview
     id="base"
     pagecolor="#ffffff"
     bordercolor="#666666"
     borderopacity="1.0"
     inkscape:pageopacity="0.0"
     inkscape:pageshadow="2"
     inkscape:zoom="0.35"
     inkscape:cx="45.295625"
     inkscape:cy="58.438117"
     inkscape:document-units="px"
     inkscape:current-layer="layer1"
     showgrid="false"
     fit-margin-top="0"
     fit-margin-left="0"
     fit-margin-right="0"
     fit-margin-bottom="0"
     inkscape:window-width="451"
     inkscape:window-height="398"
     inkscape:window-x="125"
     inkscape:window-y="125"
     inkscape:window-maximized="0" />
  <metadata
     id="metadata5878">
    <rdf:RDF>
      <cc:Work
         rdf:about="">
        <dc:format>image/svg+xml</dc:format>
        <dc:type
           rdf:resource="http://purl.org/dc/dcmitype/StillImage" />
        <dc:title></dc:title>
      </cc:Work>
    </rdf:RDF>
  </metadata>
  <g
     inkscape:label="Layer 1"
     inkscape:groupmode="layer"
     id="layer1"
     transform="translate(-329.70438,-473.93844)">
    <g
       id="g3401"
       transform="matrix(1.25,0,0,-1.25,354.0025,564.2378)">
      <path
         d="m 0,0 33.596,0 c 2.313,0 4.2,-1.887 4.2,-4.199 l 0,-12.6 c 0,-2.313 -1.887,-4.199 -4.2,-4.199 L 0.152,-20.976 C 0.101,-20.977 0.051,-20.979 0,-20.979 c -2.312,0 -4.199,1.887 -4.199,4.199 l 0,12.581 C -4.199,-1.887 -2.312,0 0,0"
         style="fill:#b5dc17;fill-opacity:1;fill-rule:nonzero;stroke:none"
         id="path3403"
         inkscape:connector-curvature="0" />
    </g>
    <g
       id="g3405"
       transform="matrix(1.25,0,0,-1.25,354.0025,564.2378)">
      <path
         d="m 0,0 33.596,0 c 2.313,0 4.2,-1.887 4.2,-4.199 l 0,-12.6 c 0,-2.313 -1.887,-4.199 -4.2,-4.199 L 0.152,-20.976 C 0.101,-20.977 0.051,-20.979 0,-20.979 c -2.312,0 -4.199,1.887 -4.199,4.199 l 0,12.581 C -4.199,-1.887 -2.312,0 0,0 z"
         style="fill:none;stroke:#231f20;stroke-width:0.5;stroke-linecap:butt;stroke-linejoin:miter;stroke-miterlimit:4;stroke-opacity:1;stroke-dasharray:none"
         id="path3407"
         inkscape:connector-curvature="0" />
    </g>
    <g
       id="g3409"
       transform="matrix(1.25,0,0,-1.25,353.99375,565.28655)">
      <path
         d="m 0,0 33.61,0 c 1.847,0 3.352,-1.506 3.352,-3.354 l 0,-12.612 c 0,-1.847 -1.505,-3.353 -3.352,-3.353 l -33.61,0 c -1.846,0 -3.352,1.506 -3.352,3.353 l 0,12.612 C -3.352,-1.506 -1.846,0 0,0"
         style="fill:#231f20;fill-opacity:1;fill-rule:evenodd;stroke:none"
         id="path3411"
         inkscape:connector-curvature="0" />
    </g>
    <g
       id="g3413"
       transform="matrix(1.25,0,0,-1.25,354.005,566.86155)">
      <path
         d="m 0,0 33.593,0 c 1.157,0 2.101,-0.945 2.101,-2.101 l 0,-12.597 c 0,-1.157 -0.944,-2.102 -2.101,-2.102 L 0,-16.8 c -1.157,0 -2.101,0.945 -2.101,2.102 l 0,12.597 C -2.101,-0.945 -1.157,0 0,0"
         style="fill:#b5dc17;fill-opacity:1;fill-rule:evenodd;stroke:none"
         id="path3415"
         inkscape:connector-curvature="0" />
    </g>
    <g
       id="g3417"
       transform="matrix(1.25,0,0,-1.25,384.4925,568.34906)">
      <path
         d="m 0,0 -10.216,-5.94 -0.577,2.949 c -0.002,0.176 -0.071,0.35 -0.139,0.517 -0.2,0.501 -0.924,0.667 -1.422,0.38 -0.232,-0.134 -0.406,-0.361 -0.481,-0.616 l -4.944,-10.516 11.706,-1.195 c 0.257,-0.064 0.542,-0.026 0.774,0.108 0.497,0.287 0.712,0.952 0.381,1.423 -0.103,0.146 -0.226,0.287 -0.378,0.378 l -2.316,2.061 10.204,5.96 L 0,0 z"
         style="fill:#231f20;fill-opacity:1;fill-rule:evenodd;stroke:none"
         id="path3419"
         inkscape:connector-curvature="0" />
    </g>
    <g
       id="g3421"
       transform="matrix(1.25,0,0,-1.25,331.97,514.79781)">
      <path
         d="m 0,0 30.817,30.816 c 0.899,1.013 2.232,1.631 3.6,1.631 1.369,0 2.718,-0.599 3.619,-1.631 L 68.849,0 c 0.994,-0.899 1.575,-2.212 1.575,-3.562 l 0,-31.191 c 0,-2.643 -2.156,-4.799 -4.799,-4.799 l -62.401,0 c -2.643,0 -4.8,2.156 -4.8,4.799 l 0,31.191 c 0,1.35 0.583,2.663 1.576,3.562"
         style="fill:#b5dc17;fill-opacity:1;fill-rule:nonzero;stroke:none"
         id="path3423"
         inkscape:connector-curvature="0" />
    </g>
    <g
       id="g3425"
       transform="matrix(1.25,0,0,-1.25,331.97,514.79781)">
      <path
         d="m 0,0 30.817,30.816 c 0.899,1.013 2.232,1.631 3.6,1.631 1.369,0 2.718,-0.599 3.619,-1.631 L 68.849,0 c 0.994,-0.899 1.575,-2.212 1.575,-3.562 l 0,-31.191 c 0,-2.643 -2.156,-4.799 -4.799,-4.799 l -62.401,0 c -2.643,0 -4.8,2.156 -4.8,4.799 l 0,31.191 c 0,1.35 0.583,2.663 1.576,3.562 z"
         style="fill:none;stroke:#231f20;stroke-width:0.5;stroke-linecap:butt;stroke-linejoin:miter;stroke-miterlimit:4;stroke-opacity:1;stroke-dasharray:none"
         id="path3427"
         inkscape:connector-curvature="0" />
    </g>
    <g
       id="g3429"
       transform="matrix(1.25,0,0,-1.25,371.61875,477.35518)">
      <path
         d="m 0,0 0.159,0.17 c 0.393,0.387 0.829,0.664 1.344,0.86 0.09,0.032 0.179,0.06 0.27,0.087 0.599,0.158 1.165,0.165 1.768,0.026 L 3.725,1.092 C 4.344,0.898 4.867,0.582 5.314,0.11 l 30.95,-30.962 0.161,-0.154 c 0.375,-0.388 0.641,-0.818 0.827,-1.324 0.102,-0.3 0.165,-0.593 0.195,-0.908 0.006,-0.096 0.009,-0.19 0.01,-0.287 l -0.004,-31.364 c -0.014,-0.182 -0.036,-0.354 -0.068,-0.531 -0.04,-0.174 -0.087,-0.336 -0.143,-0.504 -0.109,-0.276 -0.232,-0.516 -0.392,-0.764 -0.101,-0.142 -0.204,-0.273 -0.317,-0.404 -0.203,-0.213 -0.407,-0.389 -0.646,-0.559 -0.147,-0.095 -0.292,-0.177 -0.446,-0.258 -0.273,-0.123 -0.53,-0.21 -0.821,-0.277 -0.179,-0.033 -0.35,-0.055 -0.532,-0.068 l -62.566,-0.004 c -0.19,0.004 -0.368,0.015 -0.556,0.041 -0.176,0.031 -0.342,0.068 -0.513,0.117 -0.281,0.096 -0.527,0.207 -0.784,0.356 -0.146,0.093 -0.282,0.191 -0.419,0.298 -0.222,0.192 -0.408,0.387 -0.589,0.618 -0.101,0.142 -0.191,0.283 -0.278,0.433 -0.136,0.266 -0.235,0.516 -0.317,0.803 -0.04,0.176 -0.07,0.344 -0.093,0.521 l -0.019,0.379 10e-4,31.268 0.01,0.186 c 0.059,0.636 0.26,1.202 0.612,1.734 0.142,0.205 0.296,0.388 0.474,0.563 L 0,0 z"
         style="fill:#231f20;fill-opacity:1;fill-rule:evenodd;stroke:none"
         id="path3431"
         inkscape:connector-curvature="0" />
    </g>
    <g
       id="g3433"
       transform="matrix(1.25,0,0,-1.25,373.35375,479.01405)">
      <path
         d="M 0,0 0.136,0.146 C 0.414,0.421 0.762,0.595 1.15,0.643 1.654,0.692 2.167,0.502 2.516,0.135 l 31.027,-31.042 0.131,-0.123 c 0.313,-0.324 0.47,-0.731 0.476,-1.18 l -0.003,-31.254 -0.017,-0.164 c -0.074,-0.414 -0.263,-0.735 -0.58,-1.01 -0.195,-0.154 -0.388,-0.254 -0.628,-0.322 -0.152,-0.036 -0.288,-0.047 -0.444,-0.051 l -62.446,0.002 -0.163,0.017 c -0.414,0.075 -0.734,0.262 -1.01,0.578 -0.154,0.198 -0.253,0.389 -0.322,0.629 -0.035,0.153 -0.048,0.289 -0.052,0.446 l 0.001,31.191 c 0.018,0.436 0.193,0.839 0.504,1.146 L 0,0 z"
         style="fill:#b5dc17;fill-opacity:1;fill-rule:evenodd;stroke:none"
         id="path3435"
         inkscape:connector-curvature="0" />
    </g>
    <g
       id="g3437"
       transform="matrix(1.25,0,0,-1.25,372.3125,519.2203)">
      <path
         d="m 0,0 0.129,-0.264 -0.729,-1.131 1.065,0 0.931,-4.531 -4.46,-1.064 1.797,-5.53 c -0.306,-0.099 -0.615,-0.201 -0.929,-0.273 -0.36,-0.078 -0.712,-0.18 -1.07,-0.258 l 3.53,-11.119 -1.732,-0.531 -4.928,11.449 -1.798,0.135 -4.459,-11.787 -1.669,0.599 3.131,11.785 -1.064,0.336 2.996,9.254 -0.733,2.264 -0.6,-2.461 -4.66,-3.062 -1.132,1.064 3.927,3.73 2.066,6.592 2.062,2.196 0.067,0 c 0.361,-0.1 0.732,-0.149 1.106,-0.143 0.257,0.002 0.508,0.069 0.753,0.139 0.263,0.076 0.503,0.201 0.74,0.336 l 2.93,-1.664 1.932,-4.263 3.395,1.4 2.33,7.859 1.865,1.73 0.134,0.801 c 0.273,-0.053 0.545,-0.07 0.822,-0.058 0.389,0.017 0.782,0.118 1.142,0.264 0.354,0.146 0.666,0.351 0.966,0.59 l 0.398,-0.93 2.398,-1.064 4.462,-8.458 -0.464,-2.863 1.395,0.197 1.467,-5.327 -5.461,-1.597 -0.532,-9.123 5.126,-10.588 -2.863,-1.399 -5.462,10.188 -1.461,5.859 -1.933,-4.261 -1.131,-11.456 -3.131,0.268 0.8,13.785 2.863,9.057 L 4.857,2.8 3.859,1.069 0,0 z"
         style="fill:#231f20;fill-opacity:1;fill-rule:evenodd;stroke:none"
         id="path3439"
         inkscape:connector-curvature="0" />
    </g>
    <g
       id="g3441"
       transform="matrix(1.25,0,0,-1.25,385.4625,497.2428)">
      <path
         d="m 0,0 c -0.032,-1.234 -0.542,-2.271 -1.571,-2.981 -1.194,-0.824 -2.791,-0.797 -3.984,0.018 -0.974,0.664 -1.573,1.783 -1.57,2.963 0,1.434 0.877,2.74 2.191,3.304 1.105,0.471 2.375,0.354 3.37,-0.324 C -0.595,2.318 0.028,1.18 0,0"
         style="fill:#231f20;fill-opacity:1;fill-rule:evenodd;stroke:none"
         id="path3443"
         inkscape:connector-curvature="0" />
    </g>
    <g
       id="g3445"
       transform="matrix(1.25,0,0,-1.25,367.23,505.31655)">
      <path
         d="m 0,0 c -0.04,-1.388 -0.839,-2.581 -2.124,-3.131 -1.5,-0.64 -3.232,-0.062 -4.121,1.29 -0.868,1.319 -0.666,3.141 0.443,4.253 1.11,1.115 2.935,1.3 4.253,0.44 C -0.628,2.247 0.034,1.12 0,0"
         style="fill:#231f20;fill-opacity:1;fill-rule:evenodd;stroke:none"
         id="path3447"
         inkscape:connector-curvature="0" />
    </g>
    <g
       id="g3449"
       transform="matrix(1.25,0,0,-1.25,388.95625,518.96893)">
      <path
         d="M 0,0 0.8,0.201 1.4,2.465 -0.998,6.128 0,0 z"
         style="fill:#b5dc17;fill-opacity:1;fill-rule:evenodd;stroke:none"
         id="path3451"
         inkscape:connector-curvature="0" />
    </g>
    <g
       id="g3453"
       transform="matrix(1.25,0,0,-1.25,367.31375,521.71306)">
      <path
         d="M 0,0 0.733,0.129 1.266,1.731 0.666,2.996 0,0 z"
         style="fill:#b5dc17;fill-opacity:1;fill-rule:evenodd;stroke:none"
         id="path3455"
         inkscape:connector-curvature="0" />
    </g>
  </g>
</svg>
