<?xml version="1.0" encoding="UTF-8" standalone="no"?>
<!-- Created with Inkscape (http://www.inkscape.org/) -->

<svg
   xmlns:dc="http://purl.org/dc/elements/1.1/"
   xmlns:cc="http://creativecommons.org/ns#"
   xmlns:rdf="http://www.w3.org/1999/02/22-rdf-syntax-ns#"
   xmlns:svg="http://www.w3.org/2000/svg"
   xmlns="http://www.w3.org/2000/svg"
   xmlns:sodipodi="http://sodipodi.sourceforge.net/DTD/sodipodi-0.dtd"
   xmlns:inkscape="http://www.inkscape.org/namespaces/inkscape"
   width="60.664478"
   height="45.626026"
   id="svg5745"
   version="1.1"
   inkscape:version="0.48.3.1 r9886"
   sodipodi:docname="New document 19">
  <defs
     id="defs5747" />
  <sodipodi:namedview
     id="base"
     pagecolor="#ffffff"
     bordercolor="#666666"
     borderopacity="1.0"
     inkscape:pageopacity="0.0"
     inkscape:pageshadow="2"
     inkscape:zoom="0.35"
     inkscape:cx="30.331665"
     inkscape:cy="22.811247"
     inkscape:document-units="px"
     inkscape:current-layer="layer1"
     showgrid="false"
     fit-margin-top="0"
     fit-margin-left="0"
     fit-margin-right="0"
     fit-margin-bottom="0"
     inkscape:window-width="451"
     inkscape:window-height="398"
     inkscape:window-x="75"
     inkscape:window-y="75"
     inkscape:window-maximized="0" />
  <metadata
     id="metadata5750">
    <rdf:RDF>
      <cc:Work
         rdf:about="">
        <dc:format>image/svg+xml</dc:format>
        <dc:type
           rdf:resource="http://purl.org/dc/dcmitype/StillImage" />
        <dc:title></dc:title>
      </cc:Work>
    </rdf:RDF>
  </metadata>
  <g
     inkscape:label="Layer 1"
     inkscape:groupmode="layer"
     id="layer1"
     transform="translate(-344.66833,-509.54741)">
    <g
       id="g4015"
       transform="matrix(1.25,0,0,-1.25,350.1375,509.86093)">
      <path
         d="m 0,0 39.891,0 0.172,0 0.004,-0.004 c 2.066,-0.092 3.734,-1.761 3.82,-3.828 l 0.004,-0.004 0,-0.164 0,-28.002 0,-0.035 -0.002,0 c -0.016,-2.024 -1.551,-3.698 -3.516,-3.936 l -0.025,-0.029 -0.457,0 -40.002,0 -0.103,0 -0.001,0.002 c -2.096,0.052 -3.799,1.73 -3.892,3.817 l -0.004,0.004 0,0.177 0,27.811 0.004,0.004 c -0.002,0.063 -0.004,0.124 -0.004,0.187 0,2.203 1.797,4 4,4 0.037,0 0.073,0 0.109,-0.002 L 0,0 z"
         style="fill:#b5dc17;fill-opacity:1;fill-rule:nonzero;stroke:none"
         id="path4017"
         inkscape:connector-curvature="0" />
    </g>
    <g
       id="g4019"
       transform="matrix(1.25,0,0,-1.25,350.1375,509.86093)">
      <path
         d="m 0,0 39.891,0 0.172,0 0.004,-0.004 c 2.066,-0.092 3.734,-1.761 3.82,-3.828 l 0.004,-0.004 0,-0.164 0,-28.002 0,-0.035 -0.002,0 c -0.016,-2.024 -1.551,-3.698 -3.516,-3.936 l -0.025,-0.029 -0.457,0 -40.002,0 -0.103,0 -0.001,0.002 c -2.096,0.052 -3.799,1.73 -3.892,3.817 l -0.004,0.004 0,0.177 0,27.811 0.004,0.004 c -0.002,0.063 -0.004,0.124 -0.004,0.187 0,2.203 1.797,4 4,4 0.037,0 0.073,0 0.109,-0.002 L 0,0 z"
         style="fill:none;stroke:#231f20;stroke-width:0.5;stroke-linecap:butt;stroke-linejoin:miter;stroke-miterlimit:4;stroke-opacity:1;stroke-dasharray:none"
         id="path4021"
         inkscape:connector-curvature="0" />
    </g>
    <g
       id="g4023"
       transform="matrix(1.25,0,0,-1.25,350.49888,510.86093)">
      <path
         d="m 0,0 39.2,0 c 1.984,0 3.601,-1.617 3.601,-3.601 l 0,-27.201 c 0,-1.982 -1.617,-3.6 -3.601,-3.6 l -39.2,0 c -1.983,0 -3.601,1.618 -3.601,3.6 l 0,27.201 C -3.601,-1.617 -1.983,0 0,0"
         style="fill:#231f20;fill-opacity:1;fill-rule:evenodd;stroke:none"
         id="path4025"
         inkscape:connector-curvature="0" />
    </g>
    <g
       id="g4027"
       transform="matrix(1.25,0,0,-1.25,350.54288,512.34719)">
      <path
         d="m 0,0 39.131,0 c 1.351,0 2.455,-1.103 2.455,-2.455 l 0,-27.127 c 0,-1.353 -1.104,-2.457 -2.455,-2.457 l -39.131,0 c -1.354,0 -2.456,1.104 -2.456,2.457 l 0,27.127 C -2.456,-1.103 -1.354,0 0,0"
         style="fill:#b5dc17;fill-opacity:1;fill-rule:evenodd;stroke:none"
         id="path4029"
         inkscape:connector-curvature="0" />
    </g>
    <g
       id="g4031"
       transform="matrix(1.25,0,0,-1.25,387.35675,530.05843)">
      <path
         d="m 0,0 0.002,-13.659 5.142,0 0,17.477 c 0,1.414 -1.153,2.554 -2.566,2.554 l -19.018,-0.007 0.957,2.791 c 0.085,0.151 0.11,0.332 0.135,0.507 0.076,0.526 -0.459,1.022 -1.022,1.022 -0.263,0 -0.523,-0.107 -0.711,-0.287 l -9.365,-6.515 9.365,-6.761 c 0.188,-0.179 0.448,-0.287 0.711,-0.287 0.563,0 1.073,0.459 1.022,1.022 -0.014,0.176 -0.05,0.355 -0.135,0.508 l -0.957,2.888 15.157,0.03 C -0.675,1.283 0,0.787 0,0"
         style="fill:#231f20;fill-opacity:1;fill-rule:evenodd;stroke:none"
         id="path4033"
         inkscape:connector-curvature="0" />
    </g>
  </g>
</svg>
