<?xml version="1.0" encoding="UTF-8" standalone="no"?>
<!-- Created with Inkscape (http://www.inkscape.org/) -->

<svg
   xmlns:dc="http://purl.org/dc/elements/1.1/"
   xmlns:cc="http://creativecommons.org/ns#"
   xmlns:rdf="http://www.w3.org/1999/02/22-rdf-syntax-ns#"
   xmlns:svg="http://www.w3.org/2000/svg"
   xmlns="http://www.w3.org/2000/svg"
   xmlns:sodipodi="http://sodipodi.sourceforge.net/DTD/sodipodi-0.dtd"
   xmlns:inkscape="http://www.inkscape.org/namespaces/inkscape"
   width="90"
   height="89.998749"
   id="svg5243"
   version="1.1"
   inkscape:version="0.48.3.1 r9886"
   sodipodi:docname="New document 29">
  <defs
     id="defs5245">
    <clipPath
       clipPathUnits="userSpaceOnUse"
       id="clipPath3611">
      <path
         inkscape:connector-curvature="0"
         d="m 63,299.972 513,0 0,437.279 -513,0 0,-437.279 z"
         id="path3613" />
    </clipPath>
    <clipPath
       clipPathUnits="userSpaceOnUse"
       id="clipPath3587">
      <path
         inkscape:connector-curvature="0"
         d="m 63,299.972 513,0 0,437.279 -513,0 0,-437.279 z"
         id="path3589" />
    </clipPath>
  </defs>
  <sodipodi:namedview
     id="base"
     pagecolor="#ffffff"
     bordercolor="#666666"
     borderopacity="1.0"
     inkscape:pageopacity="0.0"
     inkscape:pageshadow="2"
     inkscape:zoom="0.35"
     inkscape:cx="44.999995"
     inkscape:cy="44.999417"
     inkscape:document-units="px"
     inkscape:current-layer="layer1"
     showgrid="false"
     fit-margin-top="0"
     fit-margin-left="0"
     fit-margin-right="0"
     fit-margin-bottom="0"
     inkscape:window-width="451"
     inkscape:window-height="398"
     inkscape:window-x="175"
     inkscape:window-y="175"
     inkscape:window-maximized="0" />
  <metadata
     id="metadata5248">
    <rdf:RDF>
      <cc:Work
         rdf:about="">
        <dc:format>image/svg+xml</dc:format>
        <dc:type
           rdf:resource="http://purl.org/dc/dcmitype/StillImage" />
        <dc:title></dc:title>
      </cc:Work>
    </rdf:RDF>
  </metadata>
  <g
     inkscape:label="Layer 1"
     inkscape:groupmode="layer"
     id="layer1"
     transform="translate(-330,-487.36285)">
    <g
       transform="matrix(1.25,0,0,-1.25,-294.54887,1248.2136)"
       id="g3583">
      <g
         id="g3585"
         clip-path="url(#clipPath3587)">
        <g
           id="g3591"
           transform="translate(505.6391,536.6816)">
          <path
             inkscape:connector-curvature="0"
             d="m 0,0 60,0 c 1.58,0 3.125,0.64 4.244,1.76 C 65.361,2.876 66,4.42 66,6 l 0,59.999 c 0,1.58 -0.639,3.124 -1.756,4.244 C 63.125,71.36 61.58,71.999 60,71.999 l -60,0 c -1.578,0 -3.123,-0.639 -4.24,-1.756 C -5.36,69.123 -6,67.579 -6,65.999 L -6,6 C -6,3.943 -4.908,2 -3.176,0.896 -2.188,0.268 -1.143,0.12 0,0"
             style="fill:#ffffff;fill-opacity:1;fill-rule:nonzero;stroke:none"
             id="path3593" />
        </g>
      </g>
    </g>
    <g
       transform="matrix(1.25,0,0,-1.25,-294.54887,1248.2136)"
       id="g3607">
      <g
         id="g3609"
         clip-path="url(#clipPath3611)">
        <g
           id="g3615"
           transform="translate(505.6391,538.1816)">
          <path
             inkscape:connector-curvature="0"
             d="M 0,0 C -0.893,0 -1.647,0.201 -2.369,0.66 -3.68,1.494 -4.5,2.967 -4.5,4.5 l 0,59.999 c 0,1.183 0.48,2.344 1.32,3.184 0.834,0.834 1.998,1.316 3.18,1.316 l 60,0 c 1.185,0 2.349,-0.479 3.183,-1.316 0.838,-0.834 1.317,-1.998 1.317,-3.184 L 64.5,4.5 C 64.5,3.318 64.017,2.154 63.183,1.32 62.344,0.48 61.183,0 60,0 L 0,0 z"
             style="fill:#713907;fill-opacity:1;fill-rule:evenodd;stroke:none"
             id="path3617" />
        </g>
        <g
           id="g3619"
           transform="translate(548.7621,591.0056)">
          <path
             inkscape:connector-curvature="0"
             d="m 0,0 c 2.334,0 4.221,1.889 4.221,4.219 0,2.334 -1.887,4.22 -4.221,4.22 -2.33,0 -4.219,-1.886 -4.219,-4.22 C -4.219,1.889 -2.33,0 0,0"
             style="fill:#ffffff;fill-opacity:1;fill-rule:nonzero;stroke:none"
             id="path3621" />
        </g>
        <g
           id="g3623"
           transform="translate(551.899,590.0526)">
          <path
             inkscape:connector-curvature="0"
             d="m 0,0 -6.163,0 -10.509,10.511 c -0.821,0.864 -2.19,0.897 -3.051,0.071 -0.865,-0.821 -0.898,-2.186 -0.078,-3.049 l 10.978,-10.994 0.004,-36.455 c 0,-1.313 1.063,-2.373 2.369,-2.373 1.313,0 2.373,1.06 2.373,2.373 l 0.004,19.775 1.916,0 0.02,-19.775 c 0,-1.313 1.064,-2.373 2.377,-2.373 1.31,0 2.373,1.06 2.373,2.373 L 2.595,-3.461 13.572,7.533 c 0.822,0.863 0.787,2.228 -0.076,3.049 -0.864,0.826 -2.231,0.793 -3.051,-0.071 L 0,0 z"
             style="fill:#ffffff;fill-opacity:1;fill-rule:nonzero;stroke:none"
             id="path3625" />
        </g>
        <g
           id="g3627"
           transform="translate(529.5551,573.9786)">
          <path
             inkscape:connector-curvature="0"
             d="m 0,0 c -0.633,0.646 -1.516,1.039 -2.49,1.039 l -8.844,0 c -0.975,0 -1.858,-0.393 -2.49,-1.039 l -8.86,-8.874 c -0.824,-0.865 -0.793,-2.232 0.071,-3.05 0.867,-0.825 2.232,-0.791 3.052,0.072 l 6.864,6.875 0,-9.19 -7.704,0.004 c -1.418,0 -2.566,-1.148 -2.566,-2.566 0,-0.73 0.283,-1.389 0.777,-1.857 l 8.686,-8.692 c 0.766,-1.125 2.281,-1.488 3.478,-0.797 1.254,0.725 1.68,2.326 0.959,3.578 l -4.96,4.944 0.099,-0.008 14.238,0 -4.961,-4.947 c -0.722,-1.252 -0.294,-2.854 0.957,-3.576 1.2,-0.694 2.717,-0.331 3.479,0.798 l 8.688,8.688 c 0.494,0.469 0.777,1.127 0.777,1.861 0,1.418 -1.149,2.565 -2.565,2.565 l -7.703,-0.004 0,9.09 6.754,-6.776 c 0.822,-0.863 2.188,-0.898 3.053,-0.076 0.863,0.824 0.896,2.191 0.076,3.055 L 0,0 z"
             style="fill:#ffffff;fill-opacity:1;fill-rule:nonzero;stroke:none"
             id="path3629" />
        </g>
        <g
           id="g3631"
           transform="translate(522.7271,575.9257)">
          <path
             inkscape:connector-curvature="0"
             d="M 0,0 C 2.33,0 4.22,1.888 4.22,4.219 4.22,6.551 2.33,8.437 0,8.437 -2.332,8.437 -4.223,6.551 -4.223,4.219 -4.223,1.888 -2.332,0 0,0"
             style="fill:#ffffff;fill-opacity:1;fill-rule:nonzero;stroke:none"
             id="path3633" />
        </g>
      </g>
    </g>
  </g>
</svg>
