<?xml version="1.0" encoding="UTF-8" standalone="no"?>
<!-- Created with Inkscape (http://www.inkscape.org/) -->

<svg
   xmlns:dc="http://purl.org/dc/elements/1.1/"
   xmlns:cc="http://creativecommons.org/ns#"
   xmlns:rdf="http://www.w3.org/1999/02/22-rdf-syntax-ns#"
   xmlns:svg="http://www.w3.org/2000/svg"
   xmlns="http://www.w3.org/2000/svg"
   xmlns:sodipodi="http://sodipodi.sourceforge.net/DTD/sodipodi-0.dtd"
   xmlns:inkscape="http://www.inkscape.org/namespaces/inkscape"
   width="90.625"
   height="90.625"
   id="svg5482"
   version="1.1"
   inkscape:version="0.48.3.1 r9886"
   sodipodi:docname="New document 33">
  <defs
     id="defs5484">
    <clipPath
       clipPathUnits="userSpaceOnUse"
       id="clipPath3601">
      <path
         inkscape:connector-curvature="0"
         d="m 63,178.034 513,0 0,559.966 -513,0 0,-559.966 z"
         id="path3603" />
    </clipPath>
  </defs>
  <sodipodi:namedview
     id="base"
     pagecolor="#ffffff"
     bordercolor="#666666"
     borderopacity="1.0"
     inkscape:pageopacity="0.0"
     inkscape:pageshadow="2"
     inkscape:zoom="0.35"
     inkscape:cx="45.31125"
     inkscape:cy="45.311892"
     inkscape:document-units="px"
     inkscape:current-layer="layer1"
     showgrid="false"
     fit-margin-top="0"
     fit-margin-left="0"
     fit-margin-right="0"
     fit-margin-bottom="0"
     inkscape:window-width="451"
     inkscape:window-height="398"
     inkscape:window-x="175"
     inkscape:window-y="175"
     inkscape:window-maximized="0" />
  <metadata
     id="metadata5487">
    <rdf:RDF>
      <cc:Work
         rdf:about="">
        <dc:format>image/svg+xml</dc:format>
        <dc:type
           rdf:resource="http://purl.org/dc/dcmitype/StillImage" />
        <dc:title></dc:title>
      </cc:Work>
    </rdf:RDF>
  </metadata>
  <g
     inkscape:label="Layer 1"
     inkscape:groupmode="layer"
     id="layer1"
     transform="translate(-329.68875,-487.04908)">
    <g
       transform="matrix(1.25,0,0,-1.25,137.77225,1098.7402)"
       id="g3597">
      <g
         id="g3599"
         clip-path="url(#clipPath3601)">
        <g
           id="g3605"
           transform="translate(159.7832,417.1029)">
          <path
             inkscape:connector-curvature="0"
             d="m 0,0 59.998,0 c 1.581,0 3.125,0.639 4.244,1.759 1.117,1.117 1.756,2.66 1.756,4.241 l 0,59.999 c 0,1.58 -0.639,3.124 -1.756,4.244 -1.119,1.116 -2.663,1.756 -4.244,1.756 L 0,71.999 c -1.58,0 -3.125,-0.64 -4.24,-1.756 C -5.359,69.123 -6,67.579 -6,65.999 L -6,6 C -6,3.943 -4.908,2 -3.176,0.895 -2.188,0.267 -1.145,0.12 0,0"
             style="fill:#ffffff;fill-opacity:1;fill-rule:nonzero;stroke:none"
             id="path3607" />
        </g>
        <g
           id="g3609"
           transform="translate(159.7832,417.1029)">
          <path
             inkscape:connector-curvature="0"
             d="m 0,0 59.998,0 c 1.581,0 3.125,0.639 4.244,1.759 1.117,1.117 1.756,2.66 1.756,4.241 l 0,59.999 c 0,1.58 -0.639,3.124 -1.756,4.244 -1.119,1.116 -2.663,1.756 -4.244,1.756 L 0,71.999 c -1.58,0 -3.125,-0.64 -4.24,-1.756 C -5.359,69.123 -6,67.579 -6,65.999 L -6,6 C -6,3.943 -4.908,2 -3.176,0.895 -2.188,0.267 -1.145,0.12 0,0 z"
             style="fill:none;stroke:#231f20;stroke-width:0.5;stroke-linecap:butt;stroke-linejoin:miter;stroke-miterlimit:4;stroke-opacity:1;stroke-dasharray:none"
             id="path3611" />
        </g>
        <g
           id="g3613"
           transform="translate(159.7832,418.6029)">
          <path
             inkscape:connector-curvature="0"
             d="M 0,0 C -0.895,0 -1.647,0.201 -2.371,0.66 -3.682,1.494 -4.5,2.966 -4.5,4.5 l 0,59.999 c 0,1.182 0.48,2.343 1.32,3.183 0.834,0.834 1.998,1.317 3.18,1.317 l 59.998,0 c 1.185,0 2.349,-0.48 3.183,-1.317 0.838,-0.834 1.317,-1.998 1.317,-3.183 l 0,-59.999 C 64.498,3.318 64.015,2.154 63.181,1.32 62.341,0.479 61.182,0 59.998,0 L 0,0 z"
             style="fill:#713907;fill-opacity:1;fill-rule:evenodd;stroke:none"
             id="path3615" />
        </g>
        <g
           id="g3617"
           transform="translate(183.2346,471.8999)">
          <path
             inkscape:connector-curvature="0"
             d="m 0,0 c -4.426,-1.105 -5.916,-3.414 -7.244,-5.295 -1.327,-1.882 -3.911,-0.306 -2.971,1.577 0.678,1.972 4.107,5.213 6.664,6.158 -0.645,0.387 -1.375,1.525 -1.375,2.797 0,2.679 2.059,4.457 4.334,4.457 2.336,0 3.978,-1.942 3.978,-3.453 l 1.936,0 0,-2.434 6.697,0 0,1.551 16.469,2.392 0,-11.3 -16.469,2.488 0,1.439 -6.728,0 -0.01,-2.326 c 1.848,-0.346 6.697,-3.306 6.697,-9.062 l 0,-33.438 c 0,-0.828 -0.387,-2.213 -2.047,-2.213 l -14.728,0 c -1.66,0 -2.047,1.385 -2.047,2.213 l 0,33.438 c 0,5.756 5.025,8.716 6.852,9.062 L 0,0 z m -0.655,3.571 c 1.053,0 1.909,0.853 1.909,1.906 0,1.055 -0.856,1.906 -1.909,1.906 -1.052,0 -1.906,-0.851 -1.906,-1.906 0,-1.053 0.854,-1.906 1.906,-1.906"
             style="fill:#ffffff;fill-opacity:1;fill-rule:nonzero;stroke:none"
             id="path3619" />
        </g>
      </g>
    </g>
  </g>
</svg>
