<?xml version="1.0" encoding="UTF-8" standalone="no"?>
<!-- Created with Inkscape (http://www.inkscape.org/) -->

<svg
   xmlns:dc="http://purl.org/dc/elements/1.1/"
   xmlns:cc="http://creativecommons.org/ns#"
   xmlns:rdf="http://www.w3.org/1999/02/22-rdf-syntax-ns#"
   xmlns:svg="http://www.w3.org/2000/svg"
   xmlns="http://www.w3.org/2000/svg"
   xmlns:sodipodi="http://sodipodi.sourceforge.net/DTD/sodipodi-0.dtd"
   xmlns:inkscape="http://www.inkscape.org/namespaces/inkscape"
   width="90.624626"
   height="90.625"
   id="svg5775"
   version="1.1"
   inkscape:version="0.48.3.1 r9886"
   sodipodi:docname="New document 30">
  <defs
     id="defs5777">
    <clipPath
       clipPathUnits="userSpaceOnUse"
       id="clipPath3791">
      <path
         inkscape:connector-curvature="0"
         d="m 27,45 513,0 0,693 -513,0 0,-693 z"
         id="path3793" />
    </clipPath>
    <clipPath
       clipPathUnits="userSpaceOnUse"
       id="clipPath3779">
      <path
         inkscape:connector-curvature="0"
         d="m 31.095,173.447 504.811,0 0,563.803 -504.811,0 0,-563.803 z"
         id="path3781" />
    </clipPath>
    <clipPath
       clipPathUnits="userSpaceOnUse"
       id="clipPath3767">
      <path
         inkscape:connector-curvature="0"
         d="m 27,45 513,0 0,693 -513,0 0,-693 z"
         id="path3769" />
    </clipPath>
  </defs>
  <sodipodi:namedview
     id="base"
     pagecolor="#ffffff"
     bordercolor="#666666"
     borderopacity="1.0"
     inkscape:pageopacity="0.0"
     inkscape:pageshadow="2"
     inkscape:zoom="0.35"
     inkscape:cx="45.31169"
     inkscape:cy="45.311867"
     inkscape:document-units="px"
     inkscape:current-layer="layer1"
     showgrid="false"
     fit-margin-top="0"
     fit-margin-left="0"
     fit-margin-right="0"
     fit-margin-bottom="0"
     inkscape:window-width="451"
     inkscape:window-height="398"
     inkscape:window-x="175"
     inkscape:window-y="175"
     inkscape:window-maximized="0" />
  <metadata
     id="metadata5780">
    <rdf:RDF>
      <cc:Work
         rdf:about="">
        <dc:format>image/svg+xml</dc:format>
        <dc:type
           rdf:resource="http://purl.org/dc/dcmitype/StillImage" />
        <dc:title></dc:title>
      </cc:Work>
    </rdf:RDF>
  </metadata>
  <g
     inkscape:label="Layer 1"
     inkscape:groupmode="layer"
     id="layer1"
     transform="translate(-329.68831,-487.04905)">
    <g
       transform="matrix(1.25,0,0,-1.25,290.81956,1114.4243)"
       id="g3763">
      <g
         id="g3765"
         clip-path="url(#clipPath3767)">
        <g
           id="g3771"
           transform="translate(37.3447,429.6502)">
          <path
             inkscape:connector-curvature="0"
             d="m 0,0 59.999,0 c 1.58,0 3.125,0.64 4.244,1.76 1.117,1.116 1.756,2.66 1.756,4.24 l 0,59.999 c 0,1.58 -0.639,3.124 -1.756,4.244 -1.119,1.116 -2.664,1.756 -4.244,1.756 L 0,71.999 c -1.579,0 -3.124,-0.64 -4.24,-1.756 C -5.359,69.123 -6,67.579 -6,65.999 L -6,6 C -6,3.943 -4.908,2 -3.176,0.895 -2.187,0.267 -1.144,0.12 0,0"
             style="fill:#ffffff;fill-opacity:1;fill-rule:nonzero;stroke:none"
             id="path3773" />
        </g>
      </g>
    </g>
    <g
       transform="matrix(1.25,0,0,-1.25,290.81956,1114.4243)"
       id="g3775">
      <g
         id="g3777"
         clip-path="url(#clipPath3779)">
        <g
           id="g3783"
           transform="translate(37.3447,429.6502)">
          <path
             inkscape:connector-curvature="0"
             d="m 0,0 59.999,0 c 1.58,0 3.125,0.64 4.244,1.76 1.117,1.116 1.756,2.66 1.756,4.24 l 0,59.999 c 0,1.58 -0.639,3.124 -1.756,4.244 -1.119,1.116 -2.664,1.756 -4.244,1.756 L 0,71.999 c -1.579,0 -3.124,-0.64 -4.24,-1.756 C -5.359,69.123 -6,67.579 -6,65.999 L -6,6 C -6,3.943 -4.908,2 -3.176,0.895 -2.187,0.267 -1.144,0.12 0,0 z"
             style="fill:none;stroke:#231f20;stroke-width:0.5;stroke-linecap:butt;stroke-linejoin:miter;stroke-miterlimit:4;stroke-opacity:1;stroke-dasharray:none"
             id="path3785" />
        </g>
      </g>
    </g>
    <g
       transform="matrix(1.25,0,0,-1.25,290.81956,1114.4243)"
       id="g3787">
      <g
         id="g3789"
         clip-path="url(#clipPath3791)">
        <g
           id="g3795"
           transform="translate(37.3447,431.1502)">
          <path
             inkscape:connector-curvature="0"
             d="M 0,0 C -0.894,0 -1.646,0.201 -2.37,0.66 -3.681,1.494 -4.5,2.967 -4.5,4.5 l 0,59.999 c 0,1.183 0.48,2.344 1.32,3.184 0.834,0.834 1.998,1.316 3.18,1.316 l 59.999,0 c 1.186,0 2.35,-0.48 3.184,-1.316 0.838,-0.834 1.316,-1.999 1.316,-3.184 l 0,-59.999 C 64.499,3.318 64.017,2.154 63.183,1.32 62.343,0.479 61.183,0 59.999,0 L 0,0 z"
             style="fill:#713907;fill-opacity:1;fill-rule:evenodd;stroke:none"
             id="path3797" />
        </g>
      </g>
    </g>
    <g
       id="g4137"
       transform="matrix(1.25,0,0,-1.25,364.61594,515.24906)">
      <path
         d="m 0,0 c 2.863,0 5.184,2.322 5.184,5.185 0,2.866 -2.321,5.188 -5.184,5.188 -2.865,0 -5.187,-2.322 -5.187,-5.188 C -5.187,2.322 -2.865,0 0,0"
         style="fill:#ffffff;fill-opacity:1;fill-rule:nonzero;stroke:none"
         id="path4139"
         inkscape:connector-curvature="0" />
    </g>
    <g
       id="g4141"
       transform="matrix(1.25,0,0,-1.25,340.69744,550.69906)">
      <path
         d="m 0,0 c 1.221,0 2.381,0.284 3.428,0.754 1.072,0.498 2.285,0.791 3.547,0.791 1.261,0 2.468,-0.293 3.545,-0.791 1.046,-0.47 2.22,-0.746 3.445,-0.746 1.225,0 2.396,0.276 3.439,0.746 1.076,0.498 2.286,0.791 3.551,0.791 1.262,0 2.469,-0.293 3.545,-0.791 1.043,-0.47 2.221,-0.746 3.445,-0.746 1.221,0 2.393,0.276 3.44,0.746 1.076,0.498 2.285,0.791 3.547,0.791 1.261,0 2.472,-0.293 3.545,-0.791 1.047,-0.47 2.224,-0.746 3.445,-0.746 1.225,0 2.392,0.276 3.443,0.746 1.072,0.498 2.285,0.791 3.547,0.791 1.076,0 2.127,-0.209 3.072,-0.582 1.541,1.682 2.491,3.926 2.491,6.385 0,5.217 -4.229,9.447 -9.442,9.447 L 43.969,16.68 c -1.153,-4.713 -5.867,-4.906 -5.867,-4.906 l -21.575,0.006 -1.798,1.056 4.339,7.303 4.762,-2.752 c 2.858,-1.851 4.34,0.74 4.34,0.74 l 4.773,7.786 c 2.077,3.38 -2.33,6.086 -4.394,2.699 l -3.34,-5.459 -7.939,4.394 C 11.766,30.616 9.436,25.536 9.436,25.536 L 3.191,14.848 C 2.133,12.625 3.086,11.672 3.086,11.672 L -0.004,11.676 0,0 z"
         style="fill:#ffffff;fill-opacity:1;fill-rule:nonzero;stroke:none"
         id="path4143"
         inkscape:connector-curvature="0" />
    </g>
    <g
       id="g4145"
       transform="matrix(1.25,0,0,-1.25,410.57544,559.64406)">
      <path
         d="M 0,0 C -1.225,0 -2.399,0.276 -3.445,0.746 -4.521,1.244 -5.729,1.537 -6.99,1.537 -8.252,1.537 -9.465,1.244 -10.537,0.746 -11.588,0.276 -12.756,0 -13.98,0 c -1.221,0 -2.399,0.276 -3.446,0.746 -1.072,0.498 -2.283,0.791 -3.545,0.791 -1.261,0 -2.47,-0.293 -3.547,-0.791 C -25.565,0.276 -26.736,0 -27.957,0 c -1.225,0 -2.402,0.276 -3.445,0.746 -1.077,0.498 -2.284,0.791 -3.545,0.791 -1.266,0 -2.475,-0.293 -3.551,-0.791 C -39.541,0.276 -40.713,0 -41.938,0 c -1.224,0 -2.398,0.276 -3.445,0.746 -1.076,0.498 -2.283,0.791 -3.545,0.791 -1.262,0 -2.474,-0.293 -3.547,-0.791 C -53.521,0.276 -54.693,0 -55.918,0 l 0,5.16 c 1.225,0 2.397,0.276 3.443,0.746 1.073,0.499 2.285,0.791 3.547,0.791 1.262,0 2.469,-0.292 3.545,-0.791 1.047,-0.47 2.221,-0.746 3.445,-0.746 1.225,0 2.397,0.276 3.44,0.746 1.076,0.499 2.285,0.791 3.551,0.791 1.261,0 2.468,-0.292 3.545,-0.791 1.043,-0.47 2.22,-0.746 3.445,-0.746 1.221,0 2.392,0.276 3.439,0.746 1.077,0.499 2.286,0.791 3.547,0.791 1.262,0 2.473,-0.292 3.545,-0.791 1.047,-0.47 2.225,-0.746 3.446,-0.746 1.224,0 2.392,0.276 3.443,0.746 1.072,0.499 2.285,0.791 3.547,0.791 1.261,0 2.469,-0.292 3.545,-0.791 C -2.399,5.436 -1.225,5.16 0,5.16 L 0,0 z"
         style="fill:#ffffff;fill-opacity:1;fill-rule:nonzero;stroke:none"
         id="path4147"
         inkscape:connector-curvature="0" />
    </g>
  </g>
</svg>
