<?xml version="1.0" encoding="UTF-8" standalone="no"?>
<!-- Created with Inkscape (http://www.inkscape.org/) -->

<svg
   xmlns:dc="http://purl.org/dc/elements/1.1/"
   xmlns:cc="http://creativecommons.org/ns#"
   xmlns:rdf="http://www.w3.org/1999/02/22-rdf-syntax-ns#"
   xmlns:svg="http://www.w3.org/2000/svg"
   xmlns="http://www.w3.org/2000/svg"
   xmlns:sodipodi="http://sodipodi.sourceforge.net/DTD/sodipodi-0.dtd"
   xmlns:inkscape="http://www.inkscape.org/namespaces/inkscape"
   width="90.624123"
   height="90.625"
   id="svg5684"
   version="1.1"
   inkscape:version="0.48.3.1 r9886"
   sodipodi:docname="New document 28">
  <defs
     id="defs5686">
    <clipPath
       clipPathUnits="userSpaceOnUse"
       id="clipPath3697">
      <path
         inkscape:connector-curvature="0"
         d="m 27,45 513,0 0,693 -513,0 0,-693 z"
         id="path3699" />
    </clipPath>
    <clipPath
       clipPathUnits="userSpaceOnUse"
       id="clipPath3685">
      <path
         inkscape:connector-curvature="0"
         d="m 31.095,173.447 504.811,0 0,563.803 -504.811,0 0,-563.803 z"
         id="path3687" />
    </clipPath>
    <clipPath
       clipPathUnits="userSpaceOnUse"
       id="clipPath3673">
      <path
         inkscape:connector-curvature="0"
         d="m 27,45 513,0 0,693 -513,0 0,-693 z"
         id="path3675" />
    </clipPath>
  </defs>
  <sodipodi:namedview
     id="base"
     pagecolor="#ffffff"
     bordercolor="#666666"
     borderopacity="1.0"
     inkscape:pageopacity="0.0"
     inkscape:pageshadow="2"
     inkscape:zoom="0.35"
     inkscape:cx="-88.259555"
     inkscape:cy="111.02612"
     inkscape:document-units="px"
     inkscape:current-layer="layer1"
     showgrid="false"
     fit-margin-top="0"
     fit-margin-left="0"
     fit-margin-right="0"
     fit-margin-bottom="0"
     inkscape:window-width="451"
     inkscape:window-height="398"
     inkscape:window-x="125"
     inkscape:window-y="125"
     inkscape:window-maximized="0" />
  <metadata
     id="metadata5689">
    <rdf:RDF>
      <cc:Work
         rdf:about="">
        <dc:format>image/svg+xml</dc:format>
        <dc:type
           rdf:resource="http://purl.org/dc/dcmitype/StillImage" />
        <dc:title></dc:title>
      </cc:Work>
    </rdf:RDF>
  </metadata>
  <g
     inkscape:label="Layer 1"
     inkscape:groupmode="layer"
     id="layer1"
     transform="translate(-463.25955,-552.7633)">
    <g
       transform="matrix(1.25,0,0,-1.25,-115.99882,1313.4648)"
       id="g3669">
      <g
         id="g3671"
         clip-path="url(#clipPath3673)">
        <g
           id="g3677"
           transform="translate(469.6567,536.3112)">
          <path
             inkscape:connector-curvature="0"
             d="m 0,0 59.999,0 c 1.58,0 3.125,0.639 4.244,1.759 1.117,1.117 1.756,2.66 1.756,4.241 l 0,59.999 c 0,1.58 -0.639,3.124 -1.756,4.244 -1.119,1.116 -2.664,1.756 -4.244,1.756 L 0,71.999 c -1.58,0 -3.124,-0.64 -4.241,-1.756 C -5.36,69.123 -6,67.579 -6,65.999 L -6,6 C -6,3.943 -4.909,2 -3.176,0.895 -2.188,0.267 -1.144,0.12 0,0"
             style="fill:#ffffff;fill-opacity:1;fill-rule:nonzero;stroke:none"
             id="path3679" />
        </g>
      </g>
    </g>
    <g
       transform="matrix(1.25,0,0,-1.25,-115.99882,1313.4648)"
       id="g3681">
      <g
         id="g3683"
         clip-path="url(#clipPath3685)">
        <g
           id="g3689"
           transform="translate(469.6567,536.3112)">
          <path
             inkscape:connector-curvature="0"
             d="m 0,0 59.999,0 c 1.58,0 3.125,0.639 4.244,1.759 1.117,1.117 1.756,2.66 1.756,4.241 l 0,59.999 c 0,1.58 -0.639,3.124 -1.756,4.244 -1.119,1.116 -2.664,1.756 -4.244,1.756 L 0,71.999 c -1.58,0 -3.124,-0.64 -4.241,-1.756 C -5.36,69.123 -6,67.579 -6,65.999 L -6,6 C -6,3.943 -4.909,2 -3.176,0.895 -2.188,0.267 -1.144,0.12 0,0 z"
             style="fill:none;stroke:#231f20;stroke-width:0.5;stroke-linecap:butt;stroke-linejoin:miter;stroke-miterlimit:4;stroke-opacity:1;stroke-dasharray:none"
             id="path3691" />
        </g>
      </g>
    </g>
    <g
       transform="matrix(1.25,0,0,-1.25,-115.99882,1313.4648)"
       id="g3693">
      <g
         id="g3695"
         clip-path="url(#clipPath3697)">
        <g
           id="g3701"
           transform="translate(469.6567,537.8112)">
          <path
             inkscape:connector-curvature="0"
             d="M 0,0 C -0.894,0 -1.647,0.201 -2.371,0.66 -3.681,1.494 -4.5,2.966 -4.5,4.5 l 0,59.999 c 0,1.182 0.48,2.343 1.32,3.183 0.834,0.834 1.998,1.317 3.18,1.317 l 59.999,0 c 1.185,0 2.349,-0.48 3.183,-1.317 0.838,-0.834 1.317,-1.998 1.317,-3.183 l 0,-59.999 C 64.499,3.318 64.016,2.154 63.182,1.32 62.342,0.479 61.182,0 59.999,0 L 0,0 z"
             style="fill:#713907;fill-opacity:1;fill-rule:evenodd;stroke:none"
             id="path3703" />
        </g>
      </g>
    </g>
    <g
       id="g4129"
       transform="matrix(1.25,0,0,-1.25,543.64317,629.76459)">
      <path
         d="m 0,0 c -13.572,-0.203 -27.75,2.391 -38.617,11.117 -0.066,0.067 -0.094,0.145 -0.094,0.246 0,0.201 0.16,0.365 0.365,0.365 l 10.7,-0.011 c 0.515,0 0.943,0.422 0.943,0.941 0,0.395 -0.178,0.664 -0.592,0.873 l -9.676,4.619 c -0.185,0.11 -0.308,0.313 -0.308,0.543 0,0.174 0.072,0.332 0.187,0.448 0,0 11.789,10.42 37.092,10.189 L 0,0 z m -22.689,16.51 c 1.261,0 2.287,1.025 2.287,2.291 0,1.263 -1.026,2.287 -2.287,2.287 -1.264,0 -2.293,-1.024 -2.293,-2.287 0,-1.266 1.029,-2.291 2.293,-2.291"
         style="fill:#ffffff;fill-opacity:1;fill-rule:nonzero;stroke:none"
         id="path4131"
         inkscape:connector-curvature="0" />
    </g>
    <g
       id="g4133"
       transform="matrix(1.25,0,0,-1.25,484.82329,600.67834)">
      <path
         d="m 0,0 0.003,-0.001 c -1.99,-1.807 -5.064,-1.661 -6.869,0.33 -1.804,1.986 -1.654,5.06 0.334,6.865 0,0 0.557,0.699 1.967,1.187 l 4.557,1.553 -4.371,-4.965 0.004,1.787 C -4.79,6.612 -5.174,6.385 -5.52,6.075 -6.887,4.831 -6.987,2.713 -5.747,1.346 c 1.247,-1.371 3.372,-1.469 4.741,-0.224 4.361,3.933 8.961,8.664 13.904,13.074 -0.123,0.279 -0.19,0.601 -0.19,0.926 0,1.263 1.022,2.289 2.29,2.289 0.423,0 0.837,-0.121 1.179,-0.325 7.531,6.204 15.94,11.133 25.715,11.245 1.69,0.017 3.102,-0.161 5.164,-0.602 l 0,-1.354 c -2.062,0.442 -3.373,0.672 -5.062,0.653 C 32.71,26.92 24.472,22.006 17.123,15.942 c 0.105,-0.262 0.16,-0.522 0.16,-0.82 0,-1.266 -1.022,-2.291 -2.285,-2.291 -0.42,0 -0.827,0.097 -1.168,0.294 C 8.798,8.624 4.203,3.813 0.056,0.071"
         style="fill:#ffffff;fill-opacity:1;fill-rule:nonzero;stroke:none"
         id="path4135"
         inkscape:connector-curvature="0" />
    </g>
  </g>
</svg>
