<?xml version="1.0" encoding="UTF-8" standalone="no"?>
<!-- Created with Inkscape (http://www.inkscape.org/) -->

<svg
   xmlns:dc="http://purl.org/dc/elements/1.1/"
   xmlns:cc="http://creativecommons.org/ns#"
   xmlns:rdf="http://www.w3.org/1999/02/22-rdf-syntax-ns#"
   xmlns:svg="http://www.w3.org/2000/svg"
   xmlns="http://www.w3.org/2000/svg"
   xmlns:sodipodi="http://sodipodi.sourceforge.net/DTD/sodipodi-0.dtd"
   xmlns:inkscape="http://www.inkscape.org/namespaces/inkscape"
   width="90.625"
   height="90.625"
   id="svg4213"
   version="1.1"
   inkscape:version="0.48.3.1 r9886"
   sodipodi:docname="New document 4">
  <defs
     id="defs4215">
    <clipPath
       clipPathUnits="userSpaceOnUse"
       id="clipPath3133">
      <path
         inkscape:connector-curvature="0"
         d="m 63,299.972 513,0 0,437.279 -513,0 0,-437.279 z"
         id="path3135" />
    </clipPath>
    <clipPath
       clipPathUnits="userSpaceOnUse"
       id="clipPath3121">
      <path
         inkscape:connector-curvature="0"
         d="m 67.111,299.972 504.778,0 0,437.278 -504.778,0 0,-437.278 z"
         id="path3123" />
    </clipPath>
    <clipPath
       clipPathUnits="userSpaceOnUse"
       id="clipPath3109">
      <path
         inkscape:connector-curvature="0"
         d="m 63,299.972 513,0 0,437.279 -513,0 0,-437.279 z"
         id="path3111" />
    </clipPath>
  </defs>
  <sodipodi:namedview
     id="base"
     pagecolor="#ffffff"
     bordercolor="#666666"
     borderopacity="1.0"
     inkscape:pageopacity="0.0"
     inkscape:pageshadow="2"
     inkscape:zoom="0.35"
     inkscape:cx="45.31188"
     inkscape:cy="45.311917"
     inkscape:document-units="px"
     inkscape:current-layer="layer1"
     showgrid="false"
     fit-margin-top="0"
     fit-margin-left="0"
     fit-margin-right="0"
     fit-margin-bottom="0"
     inkscape:window-width="451"
     inkscape:window-height="398"
     inkscape:window-x="100"
     inkscape:window-y="100"
     inkscape:window-maximized="0" />
  <metadata
     id="metadata4218">
    <rdf:RDF>
      <cc:Work
         rdf:about="">
        <dc:format>image/svg+xml</dc:format>
        <dc:type
           rdf:resource="http://purl.org/dc/dcmitype/StillImage" />
        <dc:title></dc:title>
      </cc:Work>
    </rdf:RDF>
  </metadata>
  <g
     inkscape:label="Layer 1"
     inkscape:groupmode="layer"
     id="layer1"
     transform="translate(-329.68812,-487.0491)">
    <g
       transform="matrix(1.25,0,0,-1.25,245.79937,1381.0171)"
       id="g3105">
      <g
         id="g3107"
         clip-path="url(#clipPath3109)">
        <g
           id="g3113"
           transform="translate(73.361,642.9244)">
          <path
             inkscape:connector-curvature="0"
             d="m 0,0 59.999,0 c 1.58,0 3.125,0.64 4.244,1.76 1.117,1.116 1.756,2.66 1.756,4.24 l 0,59.999 c 0,1.58 -0.639,3.124 -1.756,4.244 -1.119,1.116 -2.664,1.756 -4.244,1.756 L 0,71.999 c -1.579,0 -3.124,-0.64 -4.24,-1.756 C -5.359,69.123 -6,67.579 -6,65.999 L -6,6 C -6,3.943 -4.908,2 -3.176,0.896 -2.187,0.268 -1.144,0.12 0,0"
             style="fill:#ffffff;fill-opacity:1;fill-rule:nonzero;stroke:none"
             id="path3115" />
        </g>
      </g>
    </g>
    <g
       transform="matrix(1.25,0,0,-1.25,245.79937,1381.0171)"
       id="g3117">
      <g
         id="g3119"
         clip-path="url(#clipPath3121)">
        <g
           id="g3125"
           transform="translate(73.361,642.9244)">
          <path
             inkscape:connector-curvature="0"
             d="m 0,0 59.999,0 c 1.58,0 3.125,0.64 4.244,1.76 1.117,1.116 1.756,2.66 1.756,4.24 l 0,59.999 c 0,1.58 -0.639,3.124 -1.756,4.244 -1.119,1.116 -2.664,1.756 -4.244,1.756 L 0,71.999 c -1.579,0 -3.124,-0.64 -4.24,-1.756 C -5.359,69.123 -6,67.579 -6,65.999 L -6,6 C -6,3.943 -4.908,2 -3.176,0.896 -2.187,0.268 -1.144,0.12 0,0 z"
             style="fill:none;stroke:#231f20;stroke-width:0.5;stroke-linecap:butt;stroke-linejoin:miter;stroke-miterlimit:4;stroke-opacity:1;stroke-dasharray:none"
             id="path3127" />
        </g>
      </g>
    </g>
    <g
       transform="matrix(1.25,0,0,-1.25,245.79937,1381.0171)"
       id="g3129">
      <g
         id="g3131"
         clip-path="url(#clipPath3133)">
        <g
           id="g3137"
           transform="translate(73.361,644.4244)">
          <path
             inkscape:connector-curvature="0"
             d="M 0,0 C -0.894,0 -1.646,0.201 -2.37,0.66 -3.681,1.494 -4.5,2.967 -4.5,4.5 l 0,59.999 c 0,1.183 0.48,2.344 1.32,3.184 0.834,0.834 1.998,1.316 3.18,1.316 l 59.999,0 c 1.186,0 2.35,-0.479 3.184,-1.316 0.838,-0.834 1.316,-1.998 1.316,-3.184 l 0,-59.999 C 64.499,3.318 64.017,2.154 63.183,1.32 62.343,0.479 61.183,0 59.999,0 L 0,0 z"
             style="fill:#713907;fill-opacity:1;fill-rule:evenodd;stroke:none"
             id="path3139" />
        </g>
        <g
           id="g3141"
           transform="translate(93.7516,704.2521)">
          <path
             inkscape:connector-curvature="0"
             d="M 0,0 C 0,2.236 1.815,4.047 4.049,4.047 6.283,4.047 8.098,2.236 8.098,0 8.098,-2.236 6.283,-4.047 4.049,-4.047 1.815,-4.047 0,-2.236 0,0"
             style="fill:#ffffff;fill-opacity:1;fill-rule:nonzero;stroke:none"
             id="path3143" />
        </g>
        <g
           id="g3145"
           transform="translate(75.1872,680.1934)">
          <path
             inkscape:connector-curvature="0"
             d="m 0,0 c 0,3.287 2.658,5.957 5.943,5.957 l 12.547,0 0,9.008 c 0,2.234 1.813,4.047 4.047,4.047 2.236,0 4.051,-1.813 4.051,-4.047 l 0.004,-1.393 5.965,-1.531 c 1.05,-0.236 1.709,-1.279 1.472,-2.33 C 33.793,8.662 32.75,8.002 31.699,8.238 l -5.109,1.196 -0.002,-3.477 6.016,0 16.449,17.027 -0.481,-4.423 8.096,-5.399 C 58.014,12.4 58.498,10.682 57.736,9.336 57.133,8.272 55.939,7.754 54.803,7.959 L 54.145,8.08 C 53.373,4.932 50.523,2.602 47.137,2.602 c -0.67,0 -1.319,0.099 -1.934,0.269 L 39.061,-9.676 39.055,-26.881 c 0,-1.478 -1.2,-2.679 -2.678,-2.679 -1.479,0 -2.678,1.201 -2.678,2.679 l 0,17.598 -13.549,0 -2.418,-4.155 5.075,-12.083 c 0.728,-1.288 0.277,-2.92 -1.01,-3.649 -1.287,-0.728 -2.922,-0.275 -3.652,1.014 l -5.918,13.939 0,4.446 -2.647,-4.168 0,-12.94 c 0,-1.478 -1.199,-2.678 -2.676,-2.678 -1.482,0 -2.681,1.2 -2.681,2.678 l 0,14.945 2.213,3.465 0,11.733 -2.204,-3.369 0,-9.766 L 0,-9.871 0,0 z M 52.662,8.365 48.369,9.18 45.883,4.227 c 0.402,-0.09 0.822,-0.137 1.254,-0.137 2.66,0 4.886,1.814 5.525,4.275"
             style="fill:#ffffff;fill-opacity:1;fill-rule:nonzero;stroke:none"
             id="path3147" />
        </g>
      </g>
    </g>
  </g>
</svg>
