<?xml version="1.0" encoding="UTF-8" standalone="no"?>
<!-- Created with Inkscape (http://www.inkscape.org/) -->

<svg
   xmlns:dc="http://purl.org/dc/elements/1.1/"
   xmlns:cc="http://creativecommons.org/ns#"
   xmlns:rdf="http://www.w3.org/1999/02/22-rdf-syntax-ns#"
   xmlns:svg="http://www.w3.org/2000/svg"
   xmlns="http://www.w3.org/2000/svg"
   xmlns:sodipodi="http://sodipodi.sourceforge.net/DTD/sodipodi-0.dtd"
   xmlns:inkscape="http://www.inkscape.org/namespaces/inkscape"
   width="90.623123"
   height="90.625"
   id="svg7071"
   version="1.1"
   inkscape:version="0.48.3.1 r9886"
   sodipodi:docname="New document 58">
  <defs
     id="defs7073">
    <clipPath
       clipPathUnits="userSpaceOnUse"
       id="clipPath4239">
      <path
         inkscape:connector-curvature="0"
         d="m 27,32 511.888,0 0,459.994 L 27,491.994 27,32 z"
         id="path4241" />
    </clipPath>
    <clipPath
       clipPathUnits="userSpaceOnUse"
       id="clipPath4227">
      <path
         inkscape:connector-curvature="0"
         d="m 30.556,43.282 504.778,0 0,437.431 -504.778,0 0,-437.431 z"
         id="path4229" />
    </clipPath>
    <clipPath
       clipPathUnits="userSpaceOnUse"
       id="clipPath4215">
      <path
         inkscape:connector-curvature="0"
         d="m 27,32 511.888,0 0,459.994 L 27,491.994 27,32 z"
         id="path4217" />
    </clipPath>
  </defs>
  <sodipodi:namedview
     id="base"
     pagecolor="#ffffff"
     bordercolor="#666666"
     borderopacity="1.0"
     inkscape:pageopacity="0.0"
     inkscape:pageshadow="2"
     inkscape:zoom="0.35"
     inkscape:cx="45.311255"
     inkscape:cy="45.312502"
     inkscape:document-units="px"
     inkscape:current-layer="layer1"
     showgrid="false"
     fit-margin-top="0"
     fit-margin-left="0"
     fit-margin-right="0"
     fit-margin-bottom="0"
     inkscape:window-width="451"
     inkscape:window-height="398"
     inkscape:window-x="175"
     inkscape:window-y="175"
     inkscape:window-maximized="0" />
  <metadata
     id="metadata7076">
    <rdf:RDF>
      <cc:Work
         rdf:about="">
        <dc:format>image/svg+xml</dc:format>
        <dc:type
           rdf:resource="http://purl.org/dc/dcmitype/StillImage" />
        <dc:title></dc:title>
      </cc:Work>
    </rdf:RDF>
  </metadata>
  <g
     inkscape:label="Layer 1"
     inkscape:groupmode="layer"
     id="layer1"
     transform="translate(-329.68875,-487.04968)">
    <g
       transform="matrix(1.25,0,0,-1.25,-248.85563,794.64406)"
       id="g4211">
      <g
         id="g4213"
         clip-path="url(#clipPath4215)">
        <g
           id="g4219"
           transform="translate(469.0855,173.8255)">
          <path
             inkscape:connector-curvature="0"
             d="m 0,0 59.998,0 c 1.58,0 3.125,0.641 4.244,1.76 1.117,1.117 1.756,2.66 1.756,4.24 l 0,60 c 0,1.58 -0.639,3.124 -1.756,4.244 C 63.123,71.36 61.578,72 59.998,72 L 0,72 C -1.58,72 -3.125,71.36 -4.24,70.244 -5.36,69.124 -6,67.58 -6,66 L -6,6 C -6,3.944 -4.908,2 -3.176,0.897 -2.188,0.268 -1.145,0.121 0,0"
             style="fill:#ffffff;fill-opacity:1;fill-rule:nonzero;stroke:none"
             id="path4221" />
        </g>
      </g>
    </g>
    <g
       transform="matrix(1.25,0,0,-1.25,-248.85563,794.64406)"
       id="g4223">
      <g
         id="g4225"
         clip-path="url(#clipPath4227)">
        <g
           id="g4231"
           transform="translate(469.0855,173.8255)">
          <path
             inkscape:connector-curvature="0"
             d="m 0,0 59.998,0 c 1.58,0 3.125,0.641 4.244,1.76 1.117,1.117 1.756,2.66 1.756,4.24 l 0,60 c 0,1.58 -0.639,3.124 -1.756,4.244 C 63.123,71.36 61.578,72 59.998,72 L 0,72 C -1.58,72 -3.125,71.36 -4.24,70.244 -5.36,69.124 -6,67.58 -6,66 L -6,6 C -6,3.944 -4.908,2 -3.176,0.897 -2.188,0.268 -1.145,0.121 0,0 z"
             style="fill:none;stroke:#231f20;stroke-width:0.5;stroke-linecap:butt;stroke-linejoin:miter;stroke-miterlimit:4;stroke-opacity:1;stroke-dasharray:none"
             id="path4233" />
        </g>
      </g>
    </g>
    <g
       transform="matrix(1.25,0,0,-1.25,-248.85563,794.64406)"
       id="g4235">
      <g
         id="g4237"
         clip-path="url(#clipPath4239)">
        <g
           id="g4243"
           transform="translate(469.0855,175.3255)">
          <path
             inkscape:connector-curvature="0"
             d="M 0,0 C -0.895,0 -1.647,0.201 -2.371,0.66 -3.682,1.494 -4.5,2.967 -4.5,4.5 l 0,60 c 0,1.182 0.48,2.344 1.32,3.183 C -2.346,68.517 -1.182,69 0,69 l 59.998,0 c 1.185,0 2.349,-0.48 3.183,-1.317 0.838,-0.834 1.317,-1.998 1.317,-3.183 l 0,-60 C 64.498,3.319 64.015,2.155 63.181,1.321 62.342,0.481 61.181,0 59.998,0 L 0,0 z"
             style="fill:#713907;fill-opacity:1;fill-rule:evenodd;stroke:none"
             id="path4245" />
        </g>
        <g
           id="g4247"
           transform="translate(515.9075,230.1735)">
          <path
             inkscape:connector-curvature="0"
             d="M 0,0 C 2.604,0 4.713,2.111 4.713,4.715 4.713,7.316 2.604,9.427 0,9.427 -2.605,9.427 -4.715,7.316 -4.715,4.715 -4.715,2.111 -2.605,0 0,0"
             style="fill:#ffffff;fill-opacity:1;fill-rule:nonzero;stroke:none"
             id="path4249" />
        </g>
        <g
           id="g4251"
           transform="translate(502.9545,218.8825)">
          <path
             inkscape:connector-curvature="0"
             d="m 0,0 -7.094,0 c -2.812,0 -2.812,-3.715 0,-3.715 l 8.115,0.016 c 0.596,0.009 1.227,0.33 1.696,1.074 L 6.791,3.807 6.785,-34.42 c 0,-1.461 1.184,-2.643 2.643,-2.643 1.461,0 2.642,1.182 2.642,2.643 l 0.002,22.174 1.774,0 -0.008,-22.174 c 0,-1.461 1.183,-2.643 2.644,-2.643 1.457,0 2.643,1.182 2.643,2.643 l 0.01,38.227 1.754,0 0,-14.086 c 0,-2.836 3.695,-2.836 3.687,0 l 0,14.386 c 0,3.131 -2.432,6.202 -6.098,6.202 L 9.775,10.312 C 7.662,10.312 5.812,9.223 4.738,7.566 L 0,0 z"
             style="fill:#ffffff;fill-opacity:1;fill-rule:nonzero;stroke:none"
             id="path4253" />
        </g>
        <g
           id="g4255"
           transform="translate(474.6436,195.2105)">
          <path
             inkscape:connector-curvature="0"
             d="m 0,0 c 4.246,0 7.688,-3.441 7.688,-7.687 l -0.07,-5.219 9.041,0 8.183,23.099 0.039,7.817 L -2.588,18 -2.605,0.02 0,0 z"
             style="fill:#ffffff;fill-opacity:1;fill-rule:nonzero;stroke:none"
             id="path4257" />
        </g>
        <g
           id="g4259"
           transform="translate(468.7375,187.5235)">
          <path
             inkscape:connector-curvature="0"
             d="m 0,0 c 0,3.207 2.598,5.806 5.805,5.806 3.207,0 5.806,-2.599 5.806,-5.806 0,-3.204 -2.599,-5.805 -5.806,-5.805 C 2.598,-5.805 0,-3.204 0,0 m 5.805,-2.516 c 1.39,0 2.517,1.127 2.517,2.516 0,1.39 -1.127,2.517 -2.517,2.517 C 4.416,2.517 3.289,1.39 3.289,0 c 0,-1.389 1.127,-2.516 2.516,-2.516"
             style="fill:#ffffff;fill-opacity:1;fill-rule:nonzero;stroke:none"
             id="path4261" />
        </g>
        <g
           id="g4263"
           transform="translate(494.4625,225.0425)">
          <path
             inkscape:connector-curvature="0"
             d="m 0,0 0,0 -1.084,-0.527 -0.518,1.074 0.002,0 -1.074,-0.52 -0.52,1.073 0.004,0 -1.074,-0.52 -0.518,1.074 0.002,0 -1.074,-0.519 -0.517,1.074 0.002,-0.004 -1.075,-0.515 -0.521,1.087 -3.254,-9.281 c -0.262,-0.754 0.135,-1.578 0.887,-1.84 l 5.261,-1.814 c 0.752,-0.262 1.575,0.137 1.836,0.889 L 0,0 z"
             style="fill:#ffffff;fill-opacity:1;fill-rule:nonzero;stroke:none"
             id="path4265" />
        </g>
        <g
           id="g4267"
           transform="translate(489.8585,234.4505)">
          <path
             inkscape:connector-curvature="0"
             d="M 0,0 -1.523,1.278 -19.379,-19.883 -17.855,-21.16 0,0 z"
             style="fill:#ffffff;fill-opacity:1;fill-rule:nonzero;stroke:none"
             id="path4269" />
        </g>
      </g>
    </g>
  </g>
</svg>
