<?xml version="1.0" encoding="UTF-8" standalone="no"?>
<!-- Created with Inkscape (http://www.inkscape.org/) -->

<svg
   xmlns:dc="http://purl.org/dc/elements/1.1/"
   xmlns:cc="http://creativecommons.org/ns#"
   xmlns:rdf="http://www.w3.org/1999/02/22-rdf-syntax-ns#"
   xmlns:svg="http://www.w3.org/2000/svg"
   xmlns="http://www.w3.org/2000/svg"
   xmlns:sodipodi="http://sodipodi.sourceforge.net/DTD/sodipodi-0.dtd"
   xmlns:inkscape="http://www.inkscape.org/namespaces/inkscape"
   width="90.624626"
   height="90.625"
   id="svg5299"
   version="1.1"
   inkscape:version="0.48.3.1 r9886"
   sodipodi:docname="New document 18">
  <defs
     id="defs5301">
    <clipPath
       clipPathUnits="userSpaceOnUse"
       id="clipPath3655">
      <path
         inkscape:connector-curvature="0"
         d="m 27,45 513,0 0,693 -513,0 0,-693 z"
         id="path3657" />
    </clipPath>
    <clipPath
       clipPathUnits="userSpaceOnUse"
       id="clipPath3643">
      <path
         inkscape:connector-curvature="0"
         d="m 31.095,173.447 504.811,0 0,563.803 -504.811,0 0,-563.803 z"
         id="path3645" />
    </clipPath>
    <clipPath
       clipPathUnits="userSpaceOnUse"
       id="clipPath3631">
      <path
         inkscape:connector-curvature="0"
         d="m 27,45 513,0 0,693 -513,0 0,-693 z"
         id="path3633" />
    </clipPath>
  </defs>
  <sodipodi:namedview
     id="base"
     pagecolor="#ffffff"
     bordercolor="#666666"
     borderopacity="1.0"
     inkscape:pageopacity="0.0"
     inkscape:pageshadow="2"
     inkscape:zoom="0.35"
     inkscape:cx="45.31169"
     inkscape:cy="45.311917"
     inkscape:document-units="px"
     inkscape:current-layer="layer1"
     showgrid="false"
     fit-margin-top="0"
     fit-margin-left="0"
     fit-margin-right="0"
     fit-margin-bottom="0"
     inkscape:window-width="451"
     inkscape:window-height="398"
     inkscape:window-x="75"
     inkscape:window-y="75"
     inkscape:window-maximized="0" />
  <metadata
     id="metadata5304">
    <rdf:RDF>
      <cc:Work
         rdf:about="">
        <dc:format>image/svg+xml</dc:format>
        <dc:type
           rdf:resource="http://purl.org/dc/dcmitype/StillImage" />
        <dc:title></dc:title>
      </cc:Work>
    </rdf:RDF>
  </metadata>
  <g
     inkscape:label="Layer 1"
     inkscape:groupmode="layer"
     id="layer1"
     transform="translate(-329.68831,-487.0491)">
    <g
       transform="matrix(1.25,0,0,-1.25,290.81956,1247.7506)"
       id="g3627">
      <g
         id="g3629"
         clip-path="url(#clipPath3631)">
        <g
           id="g3635"
           transform="translate(37.3447,536.3112)">
          <path
             inkscape:connector-curvature="0"
             d="m 0,0 59.999,0 c 1.58,0 3.125,0.639 4.244,1.759 1.117,1.117 1.756,2.66 1.756,4.241 l 0,59.999 c 0,1.58 -0.639,3.124 -1.756,4.244 -1.119,1.116 -2.664,1.756 -4.244,1.756 L 0,71.999 c -1.579,0 -3.124,-0.64 -4.24,-1.756 C -5.359,69.123 -6,67.579 -6,65.999 L -6,6 C -6,3.943 -4.908,2 -3.176,0.895 -2.187,0.267 -1.144,0.12 0,0"
             style="fill:#ffffff;fill-opacity:1;fill-rule:nonzero;stroke:none"
             id="path3637" />
        </g>
      </g>
    </g>
    <g
       transform="matrix(1.25,0,0,-1.25,290.81956,1247.7506)"
       id="g3639">
      <g
         id="g3641"
         clip-path="url(#clipPath3643)">
        <g
           id="g3647"
           transform="translate(37.3447,536.3112)">
          <path
             inkscape:connector-curvature="0"
             d="m 0,0 59.999,0 c 1.58,0 3.125,0.639 4.244,1.759 1.117,1.117 1.756,2.66 1.756,4.241 l 0,59.999 c 0,1.58 -0.639,3.124 -1.756,4.244 -1.119,1.116 -2.664,1.756 -4.244,1.756 L 0,71.999 c -1.579,0 -3.124,-0.64 -4.24,-1.756 C -5.359,69.123 -6,67.579 -6,65.999 L -6,6 C -6,3.943 -4.908,2 -3.176,0.895 -2.187,0.267 -1.144,0.12 0,0 z"
             style="fill:none;stroke:#231f20;stroke-width:0.5;stroke-linecap:butt;stroke-linejoin:miter;stroke-miterlimit:4;stroke-opacity:1;stroke-dasharray:none"
             id="path3649" />
        </g>
      </g>
    </g>
    <g
       transform="matrix(1.25,0,0,-1.25,290.81956,1247.7506)"
       id="g3651">
      <g
         id="g3653"
         clip-path="url(#clipPath3655)">
        <g
           id="g3659"
           transform="translate(37.3447,537.8112)">
          <path
             inkscape:connector-curvature="0"
             d="M 0,0 C -0.894,0 -1.646,0.201 -2.37,0.66 -3.681,1.494 -4.5,2.966 -4.5,4.5 l 0,59.999 c 0,1.182 0.48,2.343 1.32,3.183 0.834,0.834 1.998,1.317 3.18,1.317 l 59.999,0 c 1.186,0 2.35,-0.48 3.184,-1.317 0.838,-0.834 1.316,-1.998 1.316,-3.183 l 0,-59.999 C 64.499,3.318 64.017,2.154 63.183,1.32 62.343,0.479 61.183,0 59.999,0 L 0,0 z"
             style="fill:#713907;fill-opacity:1;fill-rule:evenodd;stroke:none"
             id="path3661" />
        </g>
      </g>
    </g>
    <g
       id="g4003"
       transform="matrix(1.25,0,0,-1.25,382.41744,559.37656)">
      <path
         d="m 0,0 c 0.402,0.06 0.814,0.092 1.232,0.092 1.262,0 2.471,-0.291 3.545,-0.791 1.049,-0.469 2.221,-0.745 3.444,-0.745 1.222,0 2.398,0.276 3.445,0.745 1.074,0.5 2.283,0.791 3.545,0.791 1.264,0 2.473,-0.291 3.547,-0.791 1.047,-0.469 2.219,-0.745 3.443,-0.745 l 0,-5.16 c -1.224,0 -2.396,0.274 -3.443,0.742 -1.074,0.5 -2.283,0.793 -3.547,0.793 -1.262,0 -2.471,-0.293 -3.545,-0.793 -1.047,-0.468 -2.223,-0.742 -3.445,-0.742 -1.223,0 -2.395,0.274 -3.444,0.742 -1.074,0.5 -2.283,0.793 -3.545,0.793 -1.263,0 -2.472,-0.293 -3.547,-0.793 -1.046,-0.468 -2.22,-0.742 -3.443,-0.742 -1.221,0 -2.394,0.274 -3.443,0.742 -1.074,0.5 -2.283,0.793 -3.547,0.793 -1.262,0 -2.471,-0.293 -3.545,-0.793 -1.047,-0.468 -2.223,-0.742 -3.443,-0.742 -1.223,0 -2.397,0.274 -3.444,0.742 -1.074,0.5 -2.285,0.793 -3.547,0.793 -1.263,0 -2.47,-0.293 -3.546,-0.793 -1.047,-0.468 -2.221,-0.742 -3.442,-0.742 l 0,5.16 c 1.221,0 2.395,0.276 3.442,0.745 1.076,0.5 2.283,0.791 3.546,0.791 1.262,0 2.473,-0.291 3.547,-0.791 1.047,-0.469 2.221,-0.745 3.444,-0.745 1.22,0 2.396,0.276 3.443,0.745 0.602,0.279 1.246,0.494 1.916,0.628 l 32.578,5.797 c 1.059,0.248 2.485,0.996 2.988,2.252 0.1,0.248 0.454,0.307 0.743,0.291 0.533,-0.025 0.916,-0.48 0.916,-1.011 C 22.85,6.418 22.207,4.092 18.646,3.359 L 0,0 z"
         style="fill:#ffffff;fill-opacity:1;fill-rule:nonzero;stroke:none"
         id="path4005"
         inkscape:connector-curvature="0" />
    </g>
    <g
       id="g4007"
       transform="matrix(1.25,0,0,-1.25,347.08294,508.21281)">
      <path
         d="M 0,0 C 2.604,0 4.717,2.114 4.717,4.717 4.717,7.321 2.604,9.43 0,9.43 -2.601,9.43 -4.711,7.321 -4.711,4.717 -4.711,2.114 -2.601,0 0,0"
         style="fill:#ffffff;fill-opacity:1;fill-rule:nonzero;stroke:none"
         id="path4009"
         inkscape:connector-curvature="0" />
    </g>
    <g
       id="g4011"
       transform="matrix(1.25,0,0,-1.25,364.22406,555.81531)">
      <path
         d="M 0,0 C 0.238,-1.041 1.506,-2.052 2.83,-2.052 L 2.805,-2.068 c 1.662,0 3.011,1.348 3.011,3.01 L 5.764,1.426 2.176,16.834 C 1.859,17.83 0.93,18.768 -0.035,19.151 l -5.291,3.174 -2.404,10.39 14.851,0.018 c 1.211,0 2.194,0.984 2.194,2.195 0,1.215 -0.983,2.197 -2.194,2.197 l -21.439,0.004 c -2.141,0 -3.127,-1.537 -2.877,-2.875 l 3.035,-13.763 c 0.234,-1.301 1.082,-2.389 2.234,-2.952 l 0.057,-0.025 8.851,-5.195 L 0,0 z"
         style="fill:#ffffff;fill-opacity:1;fill-rule:nonzero;stroke:none"
         id="path4013"
         inkscape:connector-curvature="0" />
    </g>
    <path
       d="m 377.00956,512.87806 33.235,0 0,2.04375 -33.235,0 0,-2.04375 z"
       style="fill:#ffffff;fill-opacity:1;fill-rule:nonzero;stroke:none"
       id="path4015"
       inkscape:connector-curvature="0" />
  </g>
</svg>
