<?xml version="1.0" encoding="UTF-8" standalone="no"?>
<!-- Created with Inkscape (http://www.inkscape.org/) -->

<svg
   xmlns:dc="http://purl.org/dc/elements/1.1/"
   xmlns:cc="http://creativecommons.org/ns#"
   xmlns:rdf="http://www.w3.org/1999/02/22-rdf-syntax-ns#"
   xmlns:svg="http://www.w3.org/2000/svg"
   xmlns="http://www.w3.org/2000/svg"
   xmlns:sodipodi="http://sodipodi.sourceforge.net/DTD/sodipodi-0.dtd"
   xmlns:inkscape="http://www.inkscape.org/namespaces/inkscape"
   width="89.998749"
   height="89.998749"
   id="svg4279"
   version="1.1"
   inkscape:version="0.48.3.1 r9886"
   sodipodi:docname="New document 14">
  <defs
     id="defs4281">
    <clipPath
       clipPathUnits="userSpaceOnUse"
       id="clipPath3397">
      <path
         inkscape:connector-curvature="0"
         d="m 62,407.724 513,0 0,330.276 -513,0 0,-330.276 z"
         id="path3399" />
    </clipPath>
  </defs>
  <sodipodi:namedview
     id="base"
     pagecolor="#ffffff"
     bordercolor="#666666"
     borderopacity="1.0"
     inkscape:pageopacity="0.0"
     inkscape:pageshadow="2"
     inkscape:zoom="0.35"
     inkscape:cx="2.856515"
     inkscape:cy="190.71367"
     inkscape:document-units="px"
     inkscape:current-layer="layer1"
     showgrid="false"
     fit-margin-top="0"
     fit-margin-left="0"
     fit-margin-right="0"
     fit-margin-bottom="0"
     inkscape:window-width="451"
     inkscape:window-height="415"
     inkscape:window-x="175"
     inkscape:window-y="175"
     inkscape:window-maximized="0" />
  <metadata
     id="metadata4284">
    <rdf:RDF>
      <cc:Work
         rdf:about="">
        <dc:format>image/svg+xml</dc:format>
        <dc:type
           rdf:resource="http://purl.org/dc/dcmitype/StillImage" />
        <dc:title></dc:title>
      </cc:Work>
    </rdf:RDF>
  </metadata>
  <g
     inkscape:label="Layer 1"
     inkscape:groupmode="layer"
     id="layer1"
     transform="translate(-372.14348,-633.0771)">
    <g
       transform="matrix(1.25,0,0,-1.25,-253.69214,1527.7006)"
       id="g3393">
      <g
         id="g3395"
         clip-path="url(#clipPath3397)">
        <g
           id="g3401"
           transform="translate(506.6685,643.6998)">
          <path
             inkscape:connector-curvature="0"
             d="m 0,0 59.999,0 c 1.58,0 3.125,0.64 4.244,1.76 1.117,1.116 1.756,2.66 1.756,4.24 l 0,59.999 c 0,1.58 -0.639,3.124 -1.756,4.244 -1.119,1.116 -2.664,1.756 -4.244,1.756 L 0,71.999 c -1.579,0 -3.124,-0.64 -4.24,-1.756 C -5.359,69.123 -6,67.579 -6,65.999 L -6,6 C -6,3.943 -4.908,2 -3.176,0.896 -2.188,0.268 -1.144,0.12 0,0"
             style="fill:#ffffff;fill-opacity:1;fill-rule:nonzero;stroke:none"
             id="path3403" />
        </g>
      </g>
    </g>
    <g
       id="g3425"
       transform="matrix(1.25,0,0,-1.25,379.64347,721.20084)">
      <path
         d="M 0,0 C -0.894,0 -1.647,0.201 -2.37,0.66 -3.681,1.494 -4.5,2.967 -4.5,4.5 l 0,59.999 c 0,1.183 0.48,2.344 1.32,3.184 0.834,0.834 1.998,1.316 3.18,1.316 l 59.999,0 c 1.186,0 2.35,-0.479 3.184,-1.316 0.837,-0.834 1.316,-1.998 1.316,-3.184 l 0,-59.999 C 64.499,3.318 64.017,2.154 63.183,1.32 62.343,0.479 61.183,0 59.999,0 L 0,0 z"
         style="fill:#713907;fill-opacity:1;fill-rule:evenodd;stroke:none"
         id="path3427"
         inkscape:connector-curvature="0" />
    </g>
    <g
       id="g3571"
       transform="matrix(1.25,0,0,-1.25,378.26723,707.14571)">
      <path
         d="M 0,0 22.418,0"
         style="fill:#ffffff;fill-opacity:1;fill-rule:nonzero;stroke:none"
         id="path3573"
         inkscape:connector-curvature="0" />
    </g>
    <g
       id="g3575"
       transform="matrix(1.25,0,0,-1.25,404.46847,652.63396)">
      <path
         d="M 0,0 C 0,2.604 2.112,4.715 4.715,4.715 7.321,4.715 9.43,2.604 9.43,0 9.43,-2.606 7.321,-4.717 4.715,-4.717 2.112,-4.717 0,-2.606 0,0"
         style="fill:#ffffff;fill-opacity:1;fill-rule:nonzero;stroke:none"
         id="path3577"
         inkscape:connector-curvature="0" />
    </g>
    <g
       id="g3579"
       transform="matrix(1.25,0,0,-1.25,417.29098,702.75597)">
      <path
         d="m 0,0 22.418,0 c 0,0 1.443,-0.098 4.328,2.211 l 4.908,3.752 0,-4.233 -5.004,-3.752 c 0,0 -1.492,-1.203 -3.996,-1.49 l -24.529,0 L 0,0 z"
         style="fill:#ffffff;fill-opacity:1;fill-rule:nonzero;stroke:none"
         id="path3581"
         inkscape:connector-curvature="0" />
    </g>
    <g
       id="g3583"
       transform="matrix(1.25,0,0,-1.25,378.26723,707.14571)">
      <path
         d="m 0,0 22.418,0 1.873,3.512 -0.189,0 -22.416,0 L -0.191,0 0,0 z"
         style="fill:#ffffff;fill-opacity:1;fill-rule:nonzero;stroke:none"
         id="path3585"
         inkscape:connector-curvature="0" />
    </g>
    <g
       id="g3587"
       transform="matrix(1.25,0,0,-1.25,413.38723,665.24134)">
      <path
         d="M 0,0 C 0,2.609 -2.111,4.721 -4.717,4.721 -7.322,4.721 -9.435,2.609 -9.435,0 l 0,-11.541 c 0,-1.467 0.718,-2.828 1.769,-3.693 l -10.564,0 -5.702,-10.354 c -0.125,-0.236 -0.179,-0.494 -0.179,-0.781 0,-0.949 0.767,-1.729 1.717,-1.729 l 38.927,0.008 c 0,0 1.672,-0.263 4.192,1.715 l 10.095,7.43 -3.81,6.666 c 0,0 -0.856,1.621 -4.096,2.097 l -7.619,1.284 -4.09,6.832 -0.053,0.07 c -0.591,0.683 -1.619,0.76 -2.302,0.172 L 8.842,-1.84 C 8.363,-2.287 8.18,-3 8.441,-3.646 l 3.045,-5.073 -0.002,-0.035 -3.808,-6.48 -7.676,2.921 0.004,2.872 6.6,0.003 c 0.296,-0.015 0.599,0.034 0.892,0.147 1.151,0.441 1.723,1.732 1.283,2.879 -0.338,0.879 -1.168,1.42 -2.052,1.432 L -0.008,-4.973 0,0 z"
         style="fill:#ffffff;fill-opacity:1;fill-rule:nonzero;stroke:none"
         id="path3589"
         inkscape:connector-curvature="0" />
    </g>
  </g>
</svg>
