<?xml version="1.0" encoding="UTF-8" standalone="no"?>
<!-- Created with Inkscape (http://www.inkscape.org/) -->

<svg
   xmlns:dc="http://purl.org/dc/elements/1.1/"
   xmlns:cc="http://creativecommons.org/ns#"
   xmlns:rdf="http://www.w3.org/1999/02/22-rdf-syntax-ns#"
   xmlns:svg="http://www.w3.org/2000/svg"
   xmlns="http://www.w3.org/2000/svg"
   xmlns:sodipodi="http://sodipodi.sourceforge.net/DTD/sodipodi-0.dtd"
   xmlns:inkscape="http://www.inkscape.org/namespaces/inkscape"
   width="90.624252"
   height="90.625"
   id="svg5298"
   version="1.1"
   inkscape:version="0.48.3.1 r9886"
   sodipodi:docname="New document 29">
  <defs
     id="defs5300">
    <clipPath
       clipPathUnits="userSpaceOnUse"
       id="clipPath3509">
      <path
         inkscape:connector-curvature="0"
         d="m 63,178.034 513,0 0,559.966 -513,0 0,-559.966 z"
         id="path3511" />
    </clipPath>
    <clipPath
       clipPathUnits="userSpaceOnUse"
       id="clipPath3497">
      <path
         inkscape:connector-curvature="0"
         d="m 67.055,180.004 504.891,0 0,557.996 -504.891,0 0,-557.996 z"
         id="path3499" />
    </clipPath>
    <clipPath
       clipPathUnits="userSpaceOnUse"
       id="clipPath3485">
      <path
         inkscape:connector-curvature="0"
         d="m 63,178.034 513,0 0,559.966 -513,0 0,-559.966 z"
         id="path3487" />
    </clipPath>
  </defs>
  <sodipodi:namedview
     id="base"
     pagecolor="#ffffff"
     bordercolor="#666666"
     borderopacity="1.0"
     inkscape:pageopacity="0.0"
     inkscape:pageshadow="2"
     inkscape:zoom="0.35"
     inkscape:cx="45.31188"
     inkscape:cy="45.312542"
     inkscape:document-units="px"
     inkscape:current-layer="layer1"
     showgrid="false"
     fit-margin-top="0"
     fit-margin-left="0"
     fit-margin-right="0"
     fit-margin-bottom="0"
     inkscape:window-width="451"
     inkscape:window-height="398"
     inkscape:window-x="75"
     inkscape:window-y="75"
     inkscape:window-maximized="0" />
  <metadata
     id="metadata5303">
    <rdf:RDF>
      <cc:Work
         rdf:about="">
        <dc:format>image/svg+xml</dc:format>
        <dc:type
           rdf:resource="http://purl.org/dc/dcmitype/StillImage" />
        <dc:title></dc:title>
      </cc:Work>
    </rdf:RDF>
  </metadata>
  <g
     inkscape:label="Layer 1"
     inkscape:groupmode="layer"
     id="layer1"
     transform="translate(-329.68812,-487.04972)">
    <g
       transform="matrix(1.25,0,0,-1.25,-294.62013,1231.5546)"
       id="g3481">
      <g
         id="g3483"
         clip-path="url(#clipPath3485)">
        <g
           id="g3489"
           transform="translate(505.6966,523.3539)">
          <path
             inkscape:connector-curvature="0"
             d="m 0,0 59.999,0 c 1.58,0 3.125,0.64 4.244,1.76 1.117,1.116 1.756,2.66 1.756,4.24 l 0,60 c 0,1.58 -0.639,3.124 -1.756,4.244 C 63.124,71.36 61.579,72 59.999,72 L 0,72 C -1.579,72 -3.124,71.36 -4.241,70.244 -5.36,69.124 -6,67.58 -6,66 L -6,6 C -6,3.944 -4.909,2 -3.176,0.896 -2.188,0.268 -1.144,0.121 0,0"
             style="fill:#ffffff;fill-opacity:1;fill-rule:nonzero;stroke:none"
             id="path3491" />
        </g>
      </g>
    </g>
    <g
       transform="matrix(1.25,0,0,-1.25,-294.62013,1231.5546)"
       id="g3493">
      <g
         id="g3495"
         clip-path="url(#clipPath3497)">
        <g
           id="g3501"
           transform="translate(505.6966,523.3539)">
          <path
             inkscape:connector-curvature="0"
             d="m 0,0 59.999,0 c 1.58,0 3.125,0.64 4.244,1.76 1.117,1.116 1.756,2.66 1.756,4.24 l 0,60 c 0,1.58 -0.639,3.124 -1.756,4.244 C 63.124,71.36 61.579,72 59.999,72 L 0,72 C -1.579,72 -3.124,71.36 -4.241,70.244 -5.36,69.124 -6,67.58 -6,66 L -6,6 C -6,3.944 -4.909,2 -3.176,0.896 -2.188,0.268 -1.144,0.121 0,0 z"
             style="fill:none;stroke:#231f20;stroke-width:0.5;stroke-linecap:butt;stroke-linejoin:miter;stroke-miterlimit:4;stroke-opacity:1;stroke-dasharray:none"
             id="path3503" />
        </g>
      </g>
    </g>
    <g
       transform="matrix(1.25,0,0,-1.25,-294.62013,1231.5546)"
       id="g3505">
      <g
         id="g3507"
         clip-path="url(#clipPath3509)">
        <g
           id="g3513"
           transform="translate(505.6966,524.8539)">
          <path
             inkscape:connector-curvature="0"
             d="M 0,0 C -0.894,0 -1.647,0.202 -2.371,0.661 -3.681,1.495 -4.5,2.967 -4.5,4.5 l 0,60 c 0,1.182 0.48,2.343 1.32,3.183 C -2.346,68.517 -1.182,69 0,69 l 59.999,0 c 1.185,0 2.349,-0.48 3.183,-1.317 0.838,-0.834 1.317,-1.998 1.317,-3.183 l 0,-60 C 64.499,3.319 64.016,2.155 63.182,1.321 62.342,0.48 61.182,0 59.999,0 L 0,0 z"
             style="fill:#713907;fill-opacity:1;fill-rule:evenodd;stroke:none"
             id="path3515" />
        </g>
        <g
           id="g3517"
           transform="translate(513.3617,547.7869)">
          <path
             inkscape:connector-curvature="0"
             d="m 0,0 -5.203,0 -0.002,-11.299 c 0,-3.474 2.818,-6.293 6.293,-6.293 l 41.293,0 c 3.476,0 6.292,2.819 6.292,6.293 L 48.672,0 l -5.204,0 0,-10.109 c 0,-1.27 -1.029,-2.297 -2.296,-2.297 l -38.875,0 c -1.268,0 -2.295,1.027 -2.295,2.297 L 0,0 z"
             style="fill:#ffffff;fill-opacity:1;fill-rule:nonzero;stroke:none"
             id="path3519" />
        </g>
        <g
           id="g3521"
           transform="translate(552.4867,538.3359)">
          <path
             inkscape:connector-curvature="0"
             d="m 0,0 0,8.016 -34.821,11.625 0,-8.018 L 0,0 z"
             style="fill:#ffffff;fill-opacity:1;fill-rule:nonzero;stroke:none"
             id="path3523" />
        </g>
        <g
           id="g3525"
           transform="translate(527.4727,556.7109)">
          <path
             inkscape:connector-curvature="0"
             d="m 0,0 c -1.201,1.353 -9.156,10.553 -1.127,18.514 6.695,6.638 7.666,12.218 5.41,14.931 0,0 17.039,-7.011 7.016,-23.25 C 9.592,7.434 5.307,4.174 7.541,-2.529 L 0,0 z"
             style="fill:#ffffff;fill-opacity:1;fill-rule:nonzero;stroke:none"
             id="path3527" />
        </g>
        <g
           id="g3529"
           transform="translate(536.8417,554.7829)">
          <path
             inkscape:connector-curvature="0"
             d="m 0,0 c -0.365,1.362 -2.002,4.321 2.983,10.221 2.664,3.154 3.666,7.808 3.908,9.57 0,0 8.824,-5.062 0.049,-17.437 L 0,0 z"
             style="fill:#ffffff;fill-opacity:1;fill-rule:nonzero;stroke:none"
             id="path3531" />
        </g>
        <g
           id="g3533"
           transform="translate(538.0347,553.1539)">
          <path
             inkscape:connector-curvature="0"
             d="m 0,0 14.452,4.823 0,-8.018 L 11.999,-3.998 0,0 z"
             style="fill:#ffffff;fill-opacity:1;fill-rule:nonzero;stroke:none"
             id="path3535" />
        </g>
        <g
           id="g3537"
           transform="translate(532.1176,543.1579)">
          <path
             inkscape:connector-curvature="0"
             d="m 0,0 -14.452,-4.822 0,8.016 2.453,0.804 L 0,0 z"
             style="fill:#ffffff;fill-opacity:1;fill-rule:nonzero;stroke:none"
             id="path3539" />
        </g>
      </g>
    </g>
  </g>
</svg>
