<?xml version="1.0" encoding="UTF-8" standalone="no"?>
<!-- Created with Inkscape (http://www.inkscape.org/) -->

<svg
   xmlns:dc="http://purl.org/dc/elements/1.1/"
   xmlns:cc="http://creativecommons.org/ns#"
   xmlns:rdf="http://www.w3.org/1999/02/22-rdf-syntax-ns#"
   xmlns:svg="http://www.w3.org/2000/svg"
   xmlns="http://www.w3.org/2000/svg"
   xmlns:sodipodi="http://sodipodi.sourceforge.net/DTD/sodipodi-0.dtd"
   xmlns:inkscape="http://www.inkscape.org/namespaces/inkscape"
   width="90.625"
   height="90.625"
   id="svg5114"
   version="1.1"
   inkscape:version="0.48.3.1 r9886"
   sodipodi:docname="New document 14">
  <defs
     id="defs5116">
    <clipPath
       clipPathUnits="userSpaceOnUse"
       id="clipPath3579">
      <path
         inkscape:connector-curvature="0"
         d="m 27,45 513,0 0,693 -513,0 0,-693 z"
         id="path3581" />
    </clipPath>
  </defs>
  <sodipodi:namedview
     id="base"
     pagecolor="#ffffff"
     bordercolor="#666666"
     borderopacity="1.0"
     inkscape:pageopacity="0.0"
     inkscape:pageshadow="2"
     inkscape:zoom="0.35"
     inkscape:cx="-31.117321"
     inkscape:cy="156.74042"
     inkscape:document-units="px"
     inkscape:current-layer="layer1"
     showgrid="false"
     fit-margin-top="0"
     fit-margin-left="0"
     fit-margin-right="0"
     fit-margin-bottom="0"
     inkscape:window-width="451"
     inkscape:window-height="398"
     inkscape:window-x="175"
     inkscape:window-y="175"
     inkscape:window-maximized="0" />
  <metadata
     id="metadata5119">
    <rdf:RDF>
      <cc:Work
         rdf:about="">
        <dc:format>image/svg+xml</dc:format>
        <dc:type
           rdf:resource="http://purl.org/dc/dcmitype/StillImage" />
        <dc:title></dc:title>
      </cc:Work>
    </rdf:RDF>
  </metadata>
  <g
     inkscape:label="Layer 1"
     inkscape:groupmode="layer"
     id="layer1"
     transform="translate(-406.11732,-598.4776)">
    <g
       transform="matrix(1.25,0,0,-1.25,-65.063554,1492.3981)"
       id="g3575">
      <g
         id="g3577"
         clip-path="url(#clipPath3579)">
        <g
           id="g3583"
           transform="translate(383.1947,642.8864)">
          <path
             inkscape:connector-curvature="0"
             d="m 0,0 59.998,0 c 1.58,0 3.125,0.64 4.244,1.76 1.117,1.116 1.756,2.66 1.756,4.24 l 0,59.999 c 0,1.58 -0.639,3.124 -1.756,4.244 -1.119,1.116 -2.664,1.756 -4.244,1.756 L 0,71.999 c -1.58,0 -3.125,-0.64 -4.241,-1.756 C -5.36,69.123 -6,67.579 -6,65.999 L -6,6 C -6,3.943 -4.909,2 -3.176,0.896 -2.188,0.268 -1.145,0.12 0,0"
             style="fill:#ffffff;fill-opacity:1;fill-rule:nonzero;stroke:none"
             id="path3585" />
        </g>
        <g
           id="g3587"
           transform="translate(383.1947,642.8864)">
          <path
             inkscape:connector-curvature="0"
             d="m 0,0 59.998,0 c 1.58,0 3.125,0.64 4.244,1.76 1.117,1.116 1.756,2.66 1.756,4.24 l 0,59.999 c 0,1.58 -0.639,3.124 -1.756,4.244 -1.119,1.116 -2.664,1.756 -4.244,1.756 L 0,71.999 c -1.58,0 -3.125,-0.64 -4.241,-1.756 C -5.36,69.123 -6,67.579 -6,65.999 L -6,6 C -6,3.943 -4.909,2 -3.176,0.896 -2.188,0.268 -1.145,0.12 0,0 z"
             style="fill:none;stroke:#231f20;stroke-width:0.5;stroke-linecap:butt;stroke-linejoin:miter;stroke-miterlimit:4;stroke-opacity:1;stroke-dasharray:none"
             id="path3589" />
        </g>
        <g
           id="g3591"
           transform="translate(383.1947,644.3864)">
          <path
             inkscape:connector-curvature="0"
             d="M 0,0 C -0.895,0 -1.647,0.201 -2.371,0.66 -3.682,1.494 -4.5,2.967 -4.5,4.5 l 0,59.999 c 0,1.183 0.48,2.344 1.32,3.184 0.834,0.834 1.998,1.316 3.18,1.316 l 59.998,0 c 1.185,0 2.349,-0.479 3.183,-1.316 0.838,-0.834 1.317,-1.998 1.317,-3.184 l 0,-59.999 C 64.498,3.318 64.015,2.154 63.181,1.32 62.341,0.48 61.181,0 59.998,0 L 0,0 z"
             style="fill:#713907;fill-opacity:1;fill-rule:evenodd;stroke:none"
             id="path3593" />
        </g>
      </g>
    </g>
    <g
       id="g3971"
       transform="matrix(1.25,0,0,-1.25,486.59482,679.06476)">
      <path
         d="M 0,0 C -1.224,0 -2.398,0.275 -3.443,0.746 -4.517,1.244 -5.728,1.537 -6.99,1.537 -8.253,1.537 -9.462,1.244 -10.537,0.746 -11.584,0.275 -12.757,0 -13.982,0 c -1.219,0 -2.393,0.275 -3.439,0.746 -1.077,0.498 -2.284,0.791 -3.547,0.791 -1.262,0 -2.473,-0.293 -3.545,-0.791 C -25.564,0.275 -26.738,0 -27.961,0 c -1.22,0 -2.394,0.275 -3.441,0.746 -1.074,0.498 -2.283,0.791 -3.545,0.791 -1.264,0 -2.472,-0.293 -3.547,-0.791 C -39.543,0.275 -40.714,0 -41.937,0 c -1.225,0 -2.399,0.275 -3.445,0.746 -1.073,0.498 -2.284,0.791 -3.547,0.791 -1.262,0 -2.469,-0.293 -3.545,-0.791 C -53.521,0.275 -54.695,0 -55.919,0 l 0,5.162 c 1.224,0 2.398,0.274 3.445,0.744 1.076,0.5 2.283,0.791 3.545,0.791 1.263,0 2.474,-0.291 3.547,-0.791 1.046,-0.47 2.22,-0.744 3.445,-0.744 1.223,0 2.394,0.274 3.443,0.744 1.075,0.5 2.283,0.791 3.547,0.791 1.262,0 2.471,-0.291 3.545,-0.791 1.047,-0.47 2.221,-0.744 3.441,-0.744 1.223,0 2.397,0.274 3.448,0.744 1.072,0.5 2.283,0.791 3.545,0.791 1.263,0 2.47,-0.291 3.547,-0.791 1.046,-0.47 2.22,-0.744 3.439,-0.744 1.225,0 2.398,0.274 3.445,0.744 1.075,0.5 2.284,0.791 3.547,0.791 1.262,0 2.473,-0.291 3.547,-0.791 C -2.398,5.436 -1.224,5.162 0,5.162 L 0,0 z"
         style="fill:#ffffff;fill-opacity:1;fill-rule:nonzero;stroke:none"
         id="path3973"
         inkscape:connector-curvature="0" />
    </g>
    <g
       id="g3975"
       transform="matrix(1.25,0,0,-1.25,456.36107,606.865)">
      <path
         d="m 0,0 0,-39.25 -27.131,0 L 0,0 z"
         style="fill:#ffffff;fill-opacity:1;fill-rule:nonzero;stroke:none"
         id="path3977"
         inkscape:connector-curvature="0" />
    </g>
    <g
       id="g3979"
       transform="matrix(1.25,0,0,-1.25,486.59482,670.10725)">
      <path
         d="M 0,0 C -1.224,0 -2.398,0.273 -3.443,0.744 -4.517,1.242 -5.728,1.537 -6.99,1.537 -8.253,1.537 -9.462,1.242 -10.537,0.744 -11.584,0.273 -12.757,0 -13.982,0 c -1.219,0 -2.393,0.273 -3.439,0.744 -1.077,0.498 -2.284,0.793 -3.547,0.793 -1.262,0 -2.473,-0.295 -3.545,-0.793 C -25.564,0.273 -26.738,0 -27.961,0 c -1.22,0 -2.394,0.273 -3.441,0.744 -1.074,0.498 -2.283,0.793 -3.545,0.793 -1.264,0 -2.472,-0.295 -3.547,-0.793 C -39.543,0.273 -40.714,0 -41.937,0 c -1.225,0 -2.399,0.273 -3.445,0.744 -1.073,0.498 -2.284,0.793 -3.547,0.793 -1.262,0 -2.469,-0.295 -3.545,-0.793 C -53.521,0.273 -54.695,0 -55.919,0 l 0,5.158 c 1.224,0 2.398,0.28 3.445,0.746 1.076,0.498 2.283,0.793 3.545,0.793 1.263,0 2.474,-0.295 3.547,-0.793 1.046,-0.466 2.22,-0.746 3.445,-0.746 1.223,0 2.394,0.28 3.443,0.746 1.075,0.498 2.283,0.793 3.547,0.793 1.262,0 2.471,-0.295 3.545,-0.793 1.047,-0.466 2.221,-0.746 3.441,-0.746 1.223,0 2.397,0.28 3.448,0.746 1.072,0.498 2.283,0.793 3.545,0.793 1.263,0 2.47,-0.295 3.547,-0.793 1.046,-0.466 2.22,-0.746 3.439,-0.746 1.225,0 2.398,0.28 3.445,0.746 1.075,0.498 2.284,0.793 3.547,0.793 1.262,0 2.473,-0.295 3.547,-0.793 C -2.398,5.438 -1.224,5.158 0,5.158 L 0,0 z"
         style="fill:#ffffff;fill-opacity:1;fill-rule:nonzero;stroke:none"
         id="path3981"
         inkscape:connector-curvature="0" />
    </g>
    <g
       id="g3983"
       transform="matrix(1.25,0,0,-1.25,458.82733,618.16388)">
      <path
         d="M 0,0 C 9.457,-4.42 17.832,-16.141 16.367,-30.213 L 0.002,-30.211 0,0 z"
         style="fill:#ffffff;fill-opacity:1;fill-rule:nonzero;stroke:none"
         id="path3985"
         inkscape:connector-curvature="0" />
    </g>
  </g>
</svg>
