<?xml version="1.0" encoding="UTF-8" standalone="no"?>
<!-- Created with Inkscape (http://www.inkscape.org/) -->

<svg
   xmlns:dc="http://purl.org/dc/elements/1.1/"
   xmlns:cc="http://creativecommons.org/ns#"
   xmlns:rdf="http://www.w3.org/1999/02/22-rdf-syntax-ns#"
   xmlns:svg="http://www.w3.org/2000/svg"
   xmlns="http://www.w3.org/2000/svg"
   xmlns:sodipodi="http://sodipodi.sourceforge.net/DTD/sodipodi-0.dtd"
   xmlns:inkscape="http://www.inkscape.org/namespaces/inkscape"
   width="90.624123"
   height="90.625"
   id="svg5199"
   version="1.1"
   inkscape:version="0.48.3.1 r9886"
   sodipodi:docname="New document 16">
  <defs
     id="defs5201">
    <clipPath
       clipPathUnits="userSpaceOnUse"
       id="clipPath3509">
      <path
         inkscape:connector-curvature="0"
         d="m 27,45 513,0 0,693 -513,0 0,-693 z"
         id="path3511" />
    </clipPath>
    <clipPath
       clipPathUnits="userSpaceOnUse"
       id="clipPath3497">
      <path
         inkscape:connector-curvature="0"
         d="m 31.095,173.447 504.811,0 0,563.803 -504.811,0 0,-563.803 z"
         id="path3499" />
    </clipPath>
    <clipPath
       clipPathUnits="userSpaceOnUse"
       id="clipPath3485">
      <path
         inkscape:connector-curvature="0"
         d="m 27,45 513,0 0,693 -513,0 0,-693 z"
         id="path3487" />
    </clipPath>
  </defs>
  <sodipodi:namedview
     id="base"
     pagecolor="#ffffff"
     bordercolor="#666666"
     borderopacity="1.0"
     inkscape:pageopacity="0.0"
     inkscape:pageshadow="2"
     inkscape:zoom="0.35"
     inkscape:cx="91.740445"
     inkscape:cy="93.883317"
     inkscape:document-units="px"
     inkscape:current-layer="layer1"
     showgrid="false"
     fit-margin-top="0"
     fit-margin-left="0"
     fit-margin-right="0"
     fit-margin-bottom="0"
     inkscape:window-width="451"
     inkscape:window-height="398"
     inkscape:window-x="25"
     inkscape:window-y="25"
     inkscape:window-maximized="0" />
  <metadata
     id="metadata5204">
    <rdf:RDF>
      <cc:Work
         rdf:about="">
        <dc:format>image/svg+xml</dc:format>
        <dc:type
           rdf:resource="http://purl.org/dc/dcmitype/StillImage" />
        <dc:title></dc:title>
      </cc:Work>
    </rdf:RDF>
  </metadata>
  <g
     inkscape:label="Layer 1"
     inkscape:groupmode="layer"
     id="layer1"
     transform="translate(-283.25955,-535.6205)">
    <g
       transform="matrix(1.25,0,0,-1.25,-295.99882,1429.541)"
       id="g3481">
      <g
         id="g3483"
         clip-path="url(#clipPath3485)">
        <g
           id="g3489"
           transform="translate(469.6567,642.8864)">
          <path
             inkscape:connector-curvature="0"
             d="m 0,0 59.999,0 c 1.58,0 3.125,0.64 4.244,1.76 1.117,1.116 1.756,2.66 1.756,4.24 l 0,59.999 c 0,1.58 -0.639,3.124 -1.756,4.244 -1.119,1.116 -2.664,1.756 -4.244,1.756 L 0,71.999 c -1.58,0 -3.124,-0.64 -4.241,-1.756 C -5.36,69.123 -6,67.579 -6,65.999 L -6,6 C -6,3.943 -4.909,2 -3.176,0.896 -2.188,0.268 -1.144,0.12 0,0"
             style="fill:#ffffff;fill-opacity:1;fill-rule:nonzero;stroke:none"
             id="path3491" />
        </g>
      </g>
    </g>
    <g
       transform="matrix(1.25,0,0,-1.25,-295.99882,1429.541)"
       id="g3493">
      <g
         id="g3495"
         clip-path="url(#clipPath3497)">
        <g
           id="g3501"
           transform="translate(469.6567,642.8864)">
          <path
             inkscape:connector-curvature="0"
             d="m 0,0 59.999,0 c 1.58,0 3.125,0.64 4.244,1.76 1.117,1.116 1.756,2.66 1.756,4.24 l 0,59.999 c 0,1.58 -0.639,3.124 -1.756,4.244 -1.119,1.116 -2.664,1.756 -4.244,1.756 L 0,71.999 c -1.58,0 -3.124,-0.64 -4.241,-1.756 C -5.36,69.123 -6,67.579 -6,65.999 L -6,6 C -6,3.943 -4.909,2 -3.176,0.896 -2.188,0.268 -1.144,0.12 0,0 z"
             style="fill:none;stroke:#231f20;stroke-width:0.5;stroke-linecap:butt;stroke-linejoin:miter;stroke-miterlimit:4;stroke-opacity:1;stroke-dasharray:none"
             id="path3503" />
        </g>
      </g>
    </g>
    <g
       transform="matrix(1.25,0,0,-1.25,-295.99882,1429.541)"
       id="g3505">
      <g
         id="g3507"
         clip-path="url(#clipPath3509)">
        <g
           id="g3513"
           transform="translate(469.6567,644.3864)">
          <path
             inkscape:connector-curvature="0"
             d="M 0,0 C -0.894,0 -1.647,0.201 -2.371,0.66 -3.681,1.494 -4.5,2.967 -4.5,4.5 l 0,59.999 c 0,1.183 0.48,2.344 1.32,3.184 0.834,0.834 1.998,1.316 3.18,1.316 l 59.999,0 c 1.185,0 2.349,-0.479 3.183,-1.316 0.838,-0.834 1.317,-1.998 1.317,-3.184 l 0,-59.999 C 64.499,3.318 64.016,2.154 63.182,1.32 62.342,0.48 61.182,0 59.999,0 L 0,0 z"
             style="fill:#713907;fill-opacity:1;fill-rule:evenodd;stroke:none"
             id="path3515" />
        </g>
      </g>
    </g>
    <g
       id="g3987"
       transform="matrix(1.25,0,0,-1.25,338.74829,564.76112)">
      <path
         d="m 0,0 c 2.867,0 5.188,2.32 5.188,5.184 0,2.865 -2.321,5.185 -5.188,5.185 -2.861,0 -5.183,-2.32 -5.183,-5.185 C -5.183,2.32 -2.861,0 0,0"
         style="fill:#ffffff;fill-opacity:1;fill-rule:nonzero;stroke:none"
         id="path3989"
         inkscape:connector-curvature="0" />
    </g>
    <g
       id="g3991"
       transform="matrix(1.25,0,0,-1.25,364.0808,608.21324)">
      <path
         d="M 0,0 C -1.223,0 -2.397,0.275 -3.444,0.746 -4.516,1.244 -5.727,1.537 -6.99,1.537 -8.252,1.537 -9.463,1.244 -10.535,0.746 -11.582,0.275 -12.756,0 -13.981,0 c -1.222,0 -2.396,0.275 -3.443,0.746 -1.072,0.498 -2.285,0.791 -3.547,0.791 -1.262,0 -2.473,-0.293 -3.545,-0.791 C -25.563,0.275 -26.737,0 -27.961,0 c -1.219,0 -2.393,0.275 -3.444,0.746 -1.072,0.498 -2.279,0.791 -3.546,0.791 -1.262,0 -2.469,-0.293 -3.541,-0.791 C -39.543,0.275 -40.717,0 -41.938,0 c -1.222,0 -2.396,0.275 -3.443,0.746 -1.076,0.498 -2.285,0.791 -3.547,0.791 -1.262,0 -2.469,-0.293 -3.545,-0.791 C -53.52,0.275 -54.694,0 -55.918,0 l 0,5.162 c 1.224,0 2.398,0.274 3.445,0.744 1.076,0.498 2.283,0.791 3.545,0.791 1.262,0 2.471,-0.293 3.547,-0.791 1.047,-0.47 2.221,-0.744 3.443,-0.744 1.221,0 2.395,0.274 3.446,0.744 1.072,0.498 2.279,0.791 3.541,0.791 1.267,0 2.474,-0.293 3.546,-0.791 1.051,-0.47 2.225,-0.744 3.444,-0.744 1.224,0 2.398,0.274 3.445,0.744 1.072,0.498 2.283,0.791 3.545,0.791 1.262,0 2.475,-0.293 3.547,-0.791 1.047,-0.47 2.221,-0.744 3.443,-0.744 1.225,0 2.399,0.274 3.446,0.744 1.072,0.498 2.283,0.791 3.545,0.791 1.263,0 2.474,-0.293 3.546,-0.791 C -2.397,5.436 -1.223,5.162 0,5.162 L 0,0 z"
         style="fill:#ffffff;fill-opacity:1;fill-rule:nonzero;stroke:none"
         id="path3993"
         inkscape:connector-curvature="0" />
    </g>
    <g
       id="g3995"
       transform="matrix(1.25,0,0,-1.25,298.6358,598.32312)">
      <path
         d="m 0,0 c 1.047,0.469 2.209,0.74 3.428,0.74 1.262,0 2.471,-0.293 3.547,-0.795 1.047,-0.467 2.221,-0.744 3.443,-0.744 1.221,0 2.395,0.277 3.446,0.744 1.072,0.502 2.279,0.795 3.541,0.795 1.267,0 2.474,-0.293 3.546,-0.795 1.051,-0.467 2.225,-0.744 3.444,-0.744 1.224,0 2.398,0.277 3.445,0.744 0.676,0.317 1.385,0.532 2.145,0.66 l 8.927,10.221 -11.494,0.002 4.766,8.176 10.43,-5.707 c 3.453,-1.953 5.998,2.547 2.541,4.49 l -14.952,8.266 c -5.503,3.068 -7.83,-2.012 -7.83,-2.012 L 14.666,11.012 -5.656,11.018 C -5.013,7.309 -1.683,2.326 0,0"
         style="fill:#ffffff;fill-opacity:1;fill-rule:nonzero;stroke:none"
         id="path3997"
         inkscape:connector-curvature="0" />
    </g>
    <g
       id="g3999"
       transform="matrix(1.25,0,0,-1.25,339.46579,597.52236)">
      <path
         d="m 0,0 c 0.799,-0.127 1.563,-0.365 2.268,-0.695 1.047,-0.467 2.221,-0.744 3.443,-0.744 1.225,0 2.399,0.277 3.446,0.744 1.072,0.502 2.283,0.795 3.545,0.795 1.263,0 2.474,-0.293 3.546,-0.795 1.047,-0.467 2.221,-0.744 3.444,-0.744 L 19.666,10.186 8.903,10.197 0,0 z"
         style="fill:#ffffff;fill-opacity:1;fill-rule:nonzero;stroke:none"
         id="path4001"
         inkscape:connector-curvature="0" />
    </g>
  </g>
</svg>
