<?xml version="1.0" encoding="UTF-8" standalone="no"?>
<!-- Created with Inkscape (http://www.inkscape.org/) -->

<svg
   xmlns:dc="http://purl.org/dc/elements/1.1/"
   xmlns:cc="http://creativecommons.org/ns#"
   xmlns:rdf="http://www.w3.org/1999/02/22-rdf-syntax-ns#"
   xmlns:svg="http://www.w3.org/2000/svg"
   xmlns="http://www.w3.org/2000/svg"
   xmlns:sodipodi="http://sodipodi.sourceforge.net/DTD/sodipodi-0.dtd"
   xmlns:inkscape="http://www.inkscape.org/namespaces/inkscape"
   width="90.624496"
   height="90.625"
   id="svg5403"
   version="1.1"
   inkscape:version="0.48.3.1 r9886"
   sodipodi:docname="New document 31">
  <defs
     id="defs5405">
    <clipPath
       clipPathUnits="userSpaceOnUse"
       id="clipPath3575">
      <path
         inkscape:connector-curvature="0"
         d="m 63,178.034 513,0 0,559.966 -513,0 0,-559.966 z"
         id="path3577" />
    </clipPath>
    <clipPath
       clipPathUnits="userSpaceOnUse"
       id="clipPath3563">
      <path
         inkscape:connector-curvature="0"
         d="m 67.055,180.004 504.891,0 0,557.996 -504.891,0 0,-557.996 z"
         id="path3565" />
    </clipPath>
    <clipPath
       clipPathUnits="userSpaceOnUse"
       id="clipPath3551">
      <path
         inkscape:connector-curvature="0"
         d="m 63,178.034 513,0 0,559.966 -513,0 0,-559.966 z"
         id="path3553" />
    </clipPath>
  </defs>
  <sodipodi:namedview
     id="base"
     pagecolor="#ffffff"
     bordercolor="#666666"
     borderopacity="1.0"
     inkscape:pageopacity="0.0"
     inkscape:pageshadow="2"
     inkscape:zoom="0.35"
     inkscape:cx="45.31162"
     inkscape:cy="45.311892"
     inkscape:document-units="px"
     inkscape:current-layer="layer1"
     showgrid="false"
     fit-margin-top="0"
     fit-margin-left="0"
     fit-margin-right="0"
     fit-margin-bottom="0"
     inkscape:window-width="451"
     inkscape:window-height="398"
     inkscape:window-x="125"
     inkscape:window-y="125"
     inkscape:window-maximized="0" />
  <metadata
     id="metadata5408">
    <rdf:RDF>
      <cc:Work
         rdf:about="">
        <dc:format>image/svg+xml</dc:format>
        <dc:type
           rdf:resource="http://purl.org/dc/dcmitype/StillImage" />
        <dc:title></dc:title>
      </cc:Work>
    </rdf:RDF>
  </metadata>
  <g
     inkscape:label="Layer 1"
     inkscape:groupmode="layer"
     id="layer1"
     transform="translate(-329.68838,-487.04908)">
    <g
       transform="matrix(1.25,0,0,-1.25,245.86963,1098.7402)"
       id="g3547">
      <g
         id="g3549"
         clip-path="url(#clipPath3551)">
        <g
           id="g3555"
           transform="translate(73.3046,417.1029)">
          <path
             inkscape:connector-curvature="0"
             d="m 0,0 59.999,0 c 1.58,0 3.125,0.639 4.244,1.759 1.117,1.117 1.756,2.66 1.756,4.241 l 0,59.999 c 0,1.58 -0.639,3.124 -1.756,4.244 -1.119,1.116 -2.664,1.756 -4.244,1.756 L 0,71.999 c -1.579,0 -3.124,-0.64 -4.24,-1.756 C -5.359,69.123 -6,67.579 -6,65.999 L -6,6 C -6,3.943 -4.908,2 -3.176,0.895 -2.187,0.267 -1.144,0.12 0,0"
             style="fill:#ffffff;fill-opacity:1;fill-rule:nonzero;stroke:none"
             id="path3557" />
        </g>
      </g>
    </g>
    <g
       transform="matrix(1.25,0,0,-1.25,245.86963,1098.7402)"
       id="g3559">
      <g
         id="g3561"
         clip-path="url(#clipPath3563)">
        <g
           id="g3567"
           transform="translate(73.3046,417.1029)">
          <path
             inkscape:connector-curvature="0"
             d="m 0,0 59.999,0 c 1.58,0 3.125,0.639 4.244,1.759 1.117,1.117 1.756,2.66 1.756,4.241 l 0,59.999 c 0,1.58 -0.639,3.124 -1.756,4.244 -1.119,1.116 -2.664,1.756 -4.244,1.756 L 0,71.999 c -1.579,0 -3.124,-0.64 -4.24,-1.756 C -5.359,69.123 -6,67.579 -6,65.999 L -6,6 C -6,3.943 -4.908,2 -3.176,0.895 -2.187,0.267 -1.144,0.12 0,0 z"
             style="fill:none;stroke:#231f20;stroke-width:0.5;stroke-linecap:butt;stroke-linejoin:miter;stroke-miterlimit:4;stroke-opacity:1;stroke-dasharray:none"
             id="path3569" />
        </g>
      </g>
    </g>
    <g
       transform="matrix(1.25,0,0,-1.25,245.86963,1098.7402)"
       id="g3571">
      <g
         id="g3573"
         clip-path="url(#clipPath3575)">
        <g
           id="g3579"
           transform="translate(73.3046,418.6029)">
          <path
             inkscape:connector-curvature="0"
             d="M 0,0 C -0.894,0 -1.646,0.201 -2.37,0.66 -3.681,1.494 -4.5,2.966 -4.5,4.5 l 0,59.999 c 0,1.182 0.48,2.343 1.32,3.183 0.834,0.834 1.998,1.317 3.18,1.317 l 59.999,0 c 1.186,0 2.35,-0.48 3.184,-1.317 0.838,-0.834 1.316,-1.998 1.316,-3.183 l 0,-59.999 C 64.499,3.318 64.017,2.154 63.183,1.32 62.343,0.479 61.183,0 59.999,0 L 0,0 z"
             style="fill:#713907;fill-opacity:1;fill-rule:evenodd;stroke:none"
             id="path3581" />
        </g>
        <g
           id="g3583"
           transform="translate(104.2636,448.5059)">
          <path
             inkscape:connector-curvature="0"
             d="m 0,0 c -1.01,1.008 -1.01,2.646 0,3.658 1.01,1.008 2.648,1.008 3.658,0 l 5.16,-5.16 0,7.297 c 0,1.428 1.159,2.586 2.586,2.586 1.428,0 2.586,-1.158 2.586,-2.586 l 0,-7.297 5.16,5.16 c 1.01,1.008 2.647,1.008 3.657,0 1.011,-1.012 1.011,-2.648 0,-3.658 L 17.66,-5.147 24.943,-5.16 c 1.43,0 2.588,-1.159 2.588,-2.586 0,-1.428 -1.158,-2.588 -2.588,-2.588 l -7.289,0 5.153,-5.158 c 1.011,-1.01 1.011,-2.647 0,-3.659 -1.01,-1.007 -2.647,-1.007 -3.657,0 l -5.148,5.147 -0.012,-7.281 c 0,-1.43 -1.158,-2.588 -2.586,-2.588 -1.427,0 -2.586,1.158 -2.586,2.588 l 0,7.295 -5.16,-5.161 c -1.01,-1.007 -2.648,-1.007 -3.658,0 -1.01,1.012 -1.01,2.649 0,3.659 l 5.16,5.158 -7.297,0 c -1.427,0 -2.586,1.16 -2.586,2.588 0,1.427 1.159,2.586 2.586,2.586 l 7.289,0 L 0,0 z"
             style="fill:#ffffff;fill-opacity:1;fill-rule:nonzero;stroke:none"
             id="path3585" />
        </g>
        <g
           id="g3587"
           transform="translate(101.3691,474.5919)">
          <path
             inkscape:connector-curvature="0"
             d="M 0,0 C 0,1.429 -1.158,2.588 -2.586,2.588 -4.016,2.588 -5.174,1.429 -5.174,0 l 0,-10.703 -15.129,15.129 c -1.009,1.011 -2.648,1.011 -3.658,0 -1.01,-1.008 -1.01,-2.647 0,-3.657 l 15.125,-15.131 -10.699,0 c -1.428,0 -2.586,-1.158 -2.586,-2.585 0,-1.428 1.158,-2.588 2.586,-2.588 l 16.939,0.009 c 0.664,0 1.325,0.252 1.83,0.758 0.504,0.502 0.754,1.162 0.758,1.821 L 0,0 z"
             style="fill:#ffffff;fill-opacity:1;fill-rule:nonzero;stroke:none"
             id="path3589" />
        </g>
      </g>
    </g>
  </g>
</svg>
