<?xml version="1.0" encoding="UTF-8" standalone="no"?>
<!-- Created with Inkscape (http://www.inkscape.org/) -->

<svg
   xmlns:dc="http://purl.org/dc/elements/1.1/"
   xmlns:cc="http://creativecommons.org/ns#"
   xmlns:rdf="http://www.w3.org/1999/02/22-rdf-syntax-ns#"
   xmlns:svg="http://www.w3.org/2000/svg"
   xmlns="http://www.w3.org/2000/svg"
   xmlns:sodipodi="http://sodipodi.sourceforge.net/DTD/sodipodi-0.dtd"
   xmlns:inkscape="http://www.inkscape.org/namespaces/inkscape"
   width="90.625"
   height="90.625"
   id="svg4031"
   version="1.1"
   inkscape:version="0.48.3.1 r9886"
   sodipodi:docname="New document 6">
  <defs
     id="defs4033" />
  <sodipodi:namedview
     id="base"
     pagecolor="#ffffff"
     bordercolor="#666666"
     borderopacity="1.0"
     inkscape:pageopacity="0.0"
     inkscape:pageshadow="2"
     inkscape:zoom="0.35"
     inkscape:cx="45.31187"
     inkscape:cy="45.311877"
     inkscape:document-units="px"
     inkscape:current-layer="layer1"
     showgrid="false"
     fit-margin-top="0"
     fit-margin-left="0"
     fit-margin-right="0"
     fit-margin-bottom="0"
     inkscape:window-width="451"
     inkscape:window-height="415"
     inkscape:window-x="175"
     inkscape:window-y="175"
     inkscape:window-maximized="0" />
  <metadata
     id="metadata4036">
    <rdf:RDF>
      <cc:Work
         rdf:about="">
        <dc:format>image/svg+xml</dc:format>
        <dc:type
           rdf:resource="http://purl.org/dc/dcmitype/StillImage" />
        <dc:title></dc:title>
      </cc:Work>
    </rdf:RDF>
  </metadata>
  <g
     inkscape:label="Layer 1"
     inkscape:groupmode="layer"
     id="layer1"
     transform="translate(-329.68813,-487.04906)">
    <g
       id="g3363"
       transform="matrix(1.25,0,0,-1.25,337.50063,577.36156)">
      <path
         d="m 0,0 59.999,0 c 1.58,0 3.125,0.64 4.244,1.76 1.118,1.116 1.756,2.66 1.756,4.24 l 0,59.999 c 0,1.58 -0.638,3.124 -1.756,4.244 -1.119,1.116 -2.664,1.756 -4.244,1.756 L 0,71.999 c -1.579,0 -3.124,-0.64 -4.24,-1.756 C -5.359,69.123 -6,67.579 -6,65.999 L -6,6 C -6,3.943 -4.908,2 -3.176,0.896 -2.188,0.268 -1.143,0.12 0,0"
         style="fill:#ffffff;fill-opacity:1;fill-rule:nonzero;stroke:none"
         id="path3365"
         inkscape:connector-curvature="0" />
    </g>
    <g
       id="g3367"
       transform="matrix(1.25,0,0,-1.25,337.50063,577.36156)">
      <path
         d="m 0,0 59.999,0 c 1.58,0 3.125,0.64 4.244,1.76 1.118,1.116 1.756,2.66 1.756,4.24 l 0,59.999 c 0,1.58 -0.638,3.124 -1.756,4.244 -1.119,1.116 -2.664,1.756 -4.244,1.756 L 0,71.999 c -1.579,0 -3.124,-0.64 -4.24,-1.756 C -5.359,69.123 -6,67.579 -6,65.999 L -6,6 C -6,3.943 -4.908,2 -3.176,0.896 -2.188,0.268 -1.143,0.12 0,0 z"
         style="fill:none;stroke:#231f20;stroke-width:0.5;stroke-linecap:butt;stroke-linejoin:miter;stroke-miterlimit:4;stroke-opacity:1;stroke-dasharray:none"
         id="path3369"
         inkscape:connector-curvature="0" />
    </g>
    <g
       id="g3371"
       transform="matrix(1.25,0,0,-1.25,337.50063,575.48656)">
      <path
         d="M 0,0 C -0.893,0 -1.646,0.201 -2.37,0.66 -3.681,1.494 -4.5,2.967 -4.5,4.5 l 0,59.999 c 0,1.183 0.48,2.344 1.32,3.184 0.834,0.834 1.998,1.316 3.18,1.316 l 59.999,0 c 1.186,0 2.35,-0.479 3.184,-1.316 0.838,-0.834 1.316,-1.998 1.316,-3.184 l 0,-59.999 C 64.499,3.318 64.017,2.154 63.183,1.32 62.343,0.479 61.183,0 59.999,0 L 0,0 z"
         style="fill:#713907;fill-opacity:1;fill-rule:evenodd;stroke:none"
         id="path3373"
         inkscape:connector-curvature="0" />
    </g>
    <g
       id="g3465"
       transform="matrix(1.25,0,0,-1.25,403.91525,524.58993)">
      <path
         d="M 0,0 C 2.607,0 4.716,2.111 4.716,4.717 4.716,7.318 2.607,9.43 0,9.43 -2.602,9.43 -4.713,7.318 -4.713,4.717 -4.713,2.111 -2.602,0 0,0"
         style="fill:#ffffff;fill-opacity:1;fill-rule:nonzero;stroke:none"
         id="path3467"
         inkscape:connector-curvature="0" />
    </g>
    <g
       id="g3469"
       transform="matrix(1.25,0,0,-1.25,401.00774,567.04119)">
      <path
         d="M 0,0 C 2.273,-1.357 5.214,-0.617 6.568,1.658 L 4.919,2.646 C 4.115,1.289 2.345,0.852 0.99,1.66 L -48.655,30.809 -49.631,29.152 0,0 z"
         style="fill:#ffffff;fill-opacity:1;fill-rule:nonzero;stroke:none"
         id="path3471"
         inkscape:connector-curvature="0" />
    </g>
    <g
       id="g3473"
       transform="matrix(1.25,0,0,-1.25,378.54149,502.04356)">
      <path
         d="m 0,0 c -2.869,1.932 -6.748,1.168 -8.678,-1.701 -1.066,-1.584 -1.359,-3.567 -0.84,-5.184 l 3.307,-10.799 -9.959,-3.173 c -1.244,-0.512 -2.203,-1.676 -2.373,-3.106 -0.256,-2.103 1.312,-3.492 3.416,-3.746 0.484,-0.057 0.803,0.076 1.25,0.195 l 13.588,4.494 c 0.996,0.358 2.084,1.354 2.189,2.217 0.076,0.627 0.281,1.157 0.145,1.528 l -2.065,7.384 8.172,-4.849 0.985,-7.09 c 0.086,-1.236 0.652,-2.135 1.603,-2.656 l 10.674,-6.237 c 1.176,-0.646 2.644,-0.207 3.287,0.971 0.65,1.176 0.215,2.654 -0.961,3.301 l -8.441,4.93 -0.975,12.63 c -0.148,1.506 -0.971,2.864 -2.162,3.7 L 0,0 z"
         style="fill:#ffffff;fill-opacity:1;fill-rule:nonzero;stroke:none"
         id="path3475"
         inkscape:connector-curvature="0" />
    </g>
  </g>
</svg>
