<?xml version="1.0" encoding="UTF-8" standalone="no"?>
<!-- Created with Inkscape (http://www.inkscape.org/) -->

<svg
   xmlns:dc="http://purl.org/dc/elements/1.1/"
   xmlns:cc="http://creativecommons.org/ns#"
   xmlns:rdf="http://www.w3.org/1999/02/22-rdf-syntax-ns#"
   xmlns:svg="http://www.w3.org/2000/svg"
   xmlns="http://www.w3.org/2000/svg"
   xmlns:sodipodi="http://sodipodi.sourceforge.net/DTD/sodipodi-0.dtd"
   xmlns:inkscape="http://www.inkscape.org/namespaces/inkscape"
   width="90.625"
   height="90.625"
   id="svg5977"
   version="1.1"
   inkscape:version="0.48.3.1 r9886"
   sodipodi:docname="New document 34">
  <defs
     id="defs5979">
    <clipPath
       clipPathUnits="userSpaceOnUse"
       id="clipPath3851">
      <path
         inkscape:connector-curvature="0"
         d="m 27,45 513,0 0,693 -513,0 0,-693 z"
         id="path3853" />
    </clipPath>
  </defs>
  <sodipodi:namedview
     id="base"
     pagecolor="#ffffff"
     bordercolor="#666666"
     borderopacity="1.0"
     inkscape:pageopacity="0.0"
     inkscape:pageshadow="2"
     inkscape:zoom="0.35"
     inkscape:cx="-11.116695"
     inkscape:cy="56.740467"
     inkscape:document-units="px"
     inkscape:current-layer="layer1"
     showgrid="false"
     fit-margin-top="0"
     fit-margin-left="0"
     fit-margin-right="0"
     fit-margin-bottom="0"
     inkscape:window-width="451"
     inkscape:window-height="415"
     inkscape:window-x="75"
     inkscape:window-y="75"
     inkscape:window-maximized="0" />
  <metadata
     id="metadata5982">
    <rdf:RDF>
      <cc:Work
         rdf:about="">
        <dc:format>image/svg+xml</dc:format>
        <dc:type
           rdf:resource="http://purl.org/dc/dcmitype/StillImage" />
        <dc:title></dc:title>
      </cc:Work>
    </rdf:RDF>
  </metadata>
  <g
     inkscape:label="Layer 1"
     inkscape:groupmode="layer"
     id="layer1"
     transform="translate(-386.1167,-498.47765)">
    <g
       transform="matrix(1.25,0,0,-1.25,131.09207,1125.8529)"
       id="g3847">
      <g
         id="g3849"
         clip-path="url(#clipPath3851)">
        <g
           id="g3855"
           transform="translate(210.2697,429.6502)">
          <path
             inkscape:connector-curvature="0"
             d="m 0,0 59.999,0 c 1.58,0 3.125,0.64 4.244,1.76 1.117,1.116 1.756,2.66 1.756,4.24 l 0,59.999 c 0,1.58 -0.639,3.124 -1.756,4.244 -1.119,1.116 -2.664,1.756 -4.244,1.756 L 0,71.999 c -1.579,0 -3.124,-0.64 -4.24,-1.756 C -5.36,69.123 -6,67.579 -6,65.999 L -6,6 C -6,3.943 -4.908,2 -3.176,0.895 -2.188,0.267 -1.144,0.12 0,0"
             style="fill:#ffffff;fill-opacity:1;fill-rule:nonzero;stroke:none"
             id="path3857" />
        </g>
        <g
           id="g3859"
           transform="translate(210.2697,429.6502)">
          <path
             inkscape:connector-curvature="0"
             d="m 0,0 59.999,0 c 1.58,0 3.125,0.64 4.244,1.76 1.117,1.116 1.756,2.66 1.756,4.24 l 0,59.999 c 0,1.58 -0.639,3.124 -1.756,4.244 -1.119,1.116 -2.664,1.756 -4.244,1.756 L 0,71.999 c -1.579,0 -3.124,-0.64 -4.24,-1.756 C -5.36,69.123 -6,67.579 -6,65.999 L -6,6 C -6,3.943 -4.908,2 -3.176,0.895 -2.188,0.267 -1.144,0.12 0,0 z"
             style="fill:none;stroke:#231f20;stroke-width:0.5;stroke-linecap:butt;stroke-linejoin:miter;stroke-miterlimit:4;stroke-opacity:1;stroke-dasharray:none"
             id="path3861" />
        </g>
        <g
           id="g3863"
           transform="translate(210.2697,431.1502)">
          <path
             inkscape:connector-curvature="0"
             d="M 0,0 C -0.894,0 -1.647,0.201 -2.37,0.66 -3.681,1.494 -4.5,2.967 -4.5,4.5 l 0,59.999 c 0,1.183 0.48,2.344 1.32,3.184 0.834,0.834 1.998,1.316 3.18,1.316 l 59.999,0 c 1.185,0 2.349,-0.48 3.183,-1.316 0.838,-0.834 1.317,-1.999 1.317,-3.184 l 0,-59.999 C 64.499,3.318 64.016,2.154 63.182,1.32 62.343,0.479 61.182,0 59.999,0 L 0,0 z"
             style="fill:#713907;fill-opacity:1;fill-rule:evenodd;stroke:none"
             id="path3865" />
        </g>
      </g>
    </g>
    <g
       id="g4189"
       transform="matrix(1.25,0,0,-1.25,431.3217,520.37887)">
      <path
         d="m 0,0 c 3.146,0 5.703,2.553 5.703,5.704 0,3.152 -2.557,5.705 -5.703,5.705 -3.152,0 -5.707,-2.553 -5.707,-5.705 C -5.707,2.553 -3.152,0 0,0"
         style="fill:#ffffff;fill-opacity:1;fill-rule:nonzero;stroke:none"
         id="path4191"
         inkscape:connector-curvature="0" />
    </g>
    <g
       id="g4193"
       transform="matrix(1.25,0,0,-1.25,466.35296,579.04762)">
      <path
         d="m 0,0 c -1.222,0 -2.394,0.275 -3.441,0.746 -1.072,0.498 -2.283,0.793 -3.547,0.793 -1.26,0 -2.473,-0.295 -3.545,-0.793 C -11.58,0.275 -12.754,0 -13.976,0 c -1.221,0 -2.397,0.275 -3.444,0.746 -1.074,0.498 -2.285,0.793 -3.547,0.793 -1.259,0 -2.472,-0.295 -3.546,-0.793 C -25.56,0.275 -26.728,0 -27.953,0 c -1.224,0 -2.398,0.275 -3.445,0.746 -1.076,0.498 -2.287,0.793 -3.545,0.793 -1.262,0 -2.475,-0.295 -3.551,-0.793 C -39.541,0.275 -40.709,0 -41.933,0 c -1.223,0 -2.399,0.275 -3.446,0.746 -1.074,0.498 -2.283,0.793 -3.545,0.793 -1.261,0 -2.474,-0.295 -3.548,-0.793 C -53.517,0.275 -54.689,0 -55.912,0 l 0,5.16 c 1.223,0 2.395,0.275 3.44,0.746 1.074,0.5 2.287,0.793 3.548,0.793 1.262,0 2.471,-0.293 3.545,-0.793 1.047,-0.471 2.223,-0.746 3.446,-0.746 1.224,0 2.392,0.275 3.439,0.746 1.076,0.5 2.289,0.793 3.551,0.793 1.258,0 2.469,-0.293 3.545,-0.793 1.047,-0.471 2.221,-0.746 3.445,-0.746 1.225,0 2.393,0.275 3.44,0.746 1.074,0.5 2.287,0.793 3.546,0.793 1.262,0 2.473,-0.293 3.547,-0.793 1.047,-0.471 2.223,-0.746 3.444,-0.746 1.222,0 2.396,0.275 3.443,0.746 1.072,0.5 2.285,0.793 3.545,0.793 1.264,0 2.475,-0.293 3.547,-0.793 C -2.394,5.435 -1.222,5.16 0,5.16 L 0,0 z"
         style="fill:#ffffff;fill-opacity:1;fill-rule:nonzero;stroke:none"
         id="path4195"
         inkscape:connector-curvature="0" />
    </g>
    <g
       id="g4197"
       transform="matrix(1.25,0,0,-1.25,439.0317,568.25387)">
      <path
         d="M 0,0 C -0.942,-0.104 -1.832,-0.368 -2.656,-0.75 -3.442,-1.102 -4.305,-1.33 -5.197,-1.43 L -5.201,12.658 -0.01,16.074 0,0 z"
         style="fill:#ffffff;fill-opacity:1;fill-rule:nonzero;stroke:none"
         id="path4199"
         inkscape:connector-curvature="0" />
    </g>
    <g
       id="g4201"
       transform="matrix(1.25,0,0,-1.25,430.11795,570.08012)">
      <path
         d="M 0,0 C -0.85,0.107 -1.664,0.377 -2.41,0.711 -3.297,1.123 -4.268,1.396 -5.289,1.48 l 0.006,4.459 -7.237,0 -1.552,6.985 c -0.028,0.23 -0.055,0.423 -0.055,0.66 0,2.263 1.426,4.189 3.422,4.939 l 0.006,14.168 c 0,3.397 2.687,6.119 6.023,6.119 l 11.16,-0.008 c 3.664,0 6.1,-3.066 6.1,-6.197 l 0,-15.291 c 0.008,-2.836 -3.689,-2.836 -3.689,0 l 0,14.188 -1.752,0 -0.012,-9.87 -12.34,0 0.006,9.87 -1.777,0 0.007,-12.996 c 0.381,-0.147 0.75,-0.327 1.076,-0.549 L 0.006,14.119 0,0 z m -12.145,13.584 6.59,0 c 0,1.195 -0.633,2.234 -1.582,2.812 -0.615,-1.592 -2.816,-1.594 -3.412,0.018 -0.957,-0.578 -1.596,-1.631 -1.596,-2.83"
         style="fill:#ffffff;fill-opacity:1;fill-rule:nonzero;stroke:none"
         id="path4203"
         inkscape:connector-curvature="0" />
    </g>
  </g>
</svg>
