<?xml version="1.0" encoding="UTF-8" standalone="no"?>
<!-- Created with Inkscape (http://www.inkscape.org/) -->

<svg
   xmlns:dc="http://purl.org/dc/elements/1.1/"
   xmlns:cc="http://creativecommons.org/ns#"
   xmlns:rdf="http://www.w3.org/1999/02/22-rdf-syntax-ns#"
   xmlns:svg="http://www.w3.org/2000/svg"
   xmlns="http://www.w3.org/2000/svg"
   xmlns:sodipodi="http://sodipodi.sourceforge.net/DTD/sodipodi-0.dtd"
   xmlns:inkscape="http://www.inkscape.org/namespaces/inkscape"
   width="90.625"
   height="90.625"
   id="svg4960"
   version="1.1"
   inkscape:version="0.48.3.1 r9886"
   sodipodi:docname="New document 10">
  <defs
     id="defs4962">
    <clipPath
       clipPathUnits="userSpaceOnUse"
       id="clipPath3527">
      <path
         inkscape:connector-curvature="0"
         d="m 27,45 513,0 0,693 -513,0 0,-693 z"
         id="path3529" />
    </clipPath>
  </defs>
  <sodipodi:namedview
     id="base"
     pagecolor="#ffffff"
     bordercolor="#666666"
     borderopacity="1.0"
     inkscape:pageopacity="0.0"
     inkscape:pageshadow="2"
     inkscape:zoom="0.35"
     inkscape:cx="45.311875"
     inkscape:cy="45.311917"
     inkscape:document-units="px"
     inkscape:current-layer="layer1"
     showgrid="false"
     fit-margin-top="0"
     fit-margin-left="0"
     fit-margin-right="0"
     fit-margin-bottom="0"
     inkscape:window-width="451"
     inkscape:window-height="398"
     inkscape:window-x="75"
     inkscape:window-y="75"
     inkscape:window-maximized="0" />
  <metadata
     id="metadata4965">
    <rdf:RDF>
      <cc:Work
         rdf:about="">
        <dc:format>image/svg+xml</dc:format>
        <dc:type
           rdf:resource="http://purl.org/dc/dcmitype/StillImage" />
        <dc:title></dc:title>
      </cc:Work>
    </rdf:RDF>
  </metadata>
  <g
     inkscape:label="Layer 1"
     inkscape:groupmode="layer"
     id="layer1"
     transform="translate(-329.68813,-487.0491)">
    <g
       transform="matrix(1.25,0,0,-1.25,74.6635,1380.9696)"
       id="g3523">
      <g
         id="g3525"
         clip-path="url(#clipPath3527)">
        <g
           id="g3531"
           transform="translate(210.2697,642.8864)">
          <path
             inkscape:connector-curvature="0"
             d="m 0,0 59.999,0 c 1.58,0 3.125,0.64 4.244,1.76 1.117,1.116 1.756,2.66 1.756,4.24 l 0,59.999 c 0,1.58 -0.639,3.124 -1.756,4.244 -1.119,1.116 -2.664,1.756 -4.244,1.756 L 0,71.999 c -1.579,0 -3.124,-0.64 -4.24,-1.756 C -5.36,69.123 -6,67.579 -6,65.999 L -6,6 C -6,3.943 -4.908,2 -3.176,0.896 -2.188,0.268 -1.144,0.12 0,0"
             style="fill:#ffffff;fill-opacity:1;fill-rule:nonzero;stroke:none"
             id="path3533" />
        </g>
        <g
           id="g3535"
           transform="translate(210.2697,642.8864)">
          <path
             inkscape:connector-curvature="0"
             d="m 0,0 59.999,0 c 1.58,0 3.125,0.64 4.244,1.76 1.117,1.116 1.756,2.66 1.756,4.24 l 0,59.999 c 0,1.58 -0.639,3.124 -1.756,4.244 -1.119,1.116 -2.664,1.756 -4.244,1.756 L 0,71.999 c -1.579,0 -3.124,-0.64 -4.24,-1.756 C -5.36,69.123 -6,67.579 -6,65.999 L -6,6 C -6,3.943 -4.908,2 -3.176,0.896 -2.188,0.268 -1.144,0.12 0,0 z"
             style="fill:none;stroke:#231f20;stroke-width:0.5;stroke-linecap:butt;stroke-linejoin:miter;stroke-miterlimit:4;stroke-opacity:1;stroke-dasharray:none"
             id="path3537" />
        </g>
        <g
           id="g3539"
           transform="translate(210.2697,644.3864)">
          <path
             inkscape:connector-curvature="0"
             d="M 0,0 C -0.894,0 -1.647,0.201 -2.37,0.66 -3.681,1.494 -4.5,2.967 -4.5,4.5 l 0,59.999 c 0,1.183 0.48,2.344 1.32,3.184 0.834,0.834 1.998,1.316 3.18,1.316 l 59.999,0 c 1.185,0 2.349,-0.479 3.183,-1.316 0.838,-0.834 1.317,-1.998 1.317,-3.184 l 0,-59.999 C 64.499,3.318 64.016,2.154 63.182,1.32 62.343,0.48 61.182,0 59.999,0 L 0,0 z"
             style="fill:#713907;fill-opacity:1;fill-rule:evenodd;stroke:none"
             id="path3541" />
        </g>
      </g>
    </g>
    <g
       id="g3939"
       transform="matrix(1.25,0,0,-1.25,351.52188,509.11019)">
      <path
         d="m 0,0 11.296,-3.074 6.27,4.349 2.178,-0.529 -6.205,-4.359 34.23,-9.389 -2.504,-9.191 -34.357,9.365 C -2.411,-8.873 0.019,0.006 0.019,0.006"
         style="fill:#ffffff;fill-opacity:1;fill-rule:nonzero;stroke:none"
         id="path3941"
         inkscape:connector-curvature="0" />
    </g>
    <g
       id="g3943"
       transform="matrix(1.25,0,0,-1.25,388.63312,536.70781)">
      <path
         d="M 0,0 C -0.037,0.766 -0.189,1.5 -0.434,2.189 L 15.061,-2.123 14.561,-4.027 0,0 z"
         style="fill:#ffffff;fill-opacity:1;fill-rule:nonzero;stroke:none"
         id="path3945"
         inkscape:connector-curvature="0" />
    </g>
    <g
       id="g3947"
       transform="matrix(1.25,0,0,-1.25,371.05563,531.85431)">
      <path
         d="m 0,0 c 0.414,0.611 0.91,1.162 1.476,1.631 l -25.844,7.133 0,-2.053 L 0,0 z"
         style="fill:#ffffff;fill-opacity:1;fill-rule:nonzero;stroke:none"
         id="path3949"
         inkscape:connector-curvature="0" />
    </g>
    <g
       id="g3951"
       transform="matrix(1.25,0,0,-1.25,410.57187,559.63506)">
      <path
         d="M 0,0 C -1.223,0 -2.397,0.275 -3.444,0.746 -4.52,1.244 -5.727,1.537 -6.99,1.537 -8.25,1.537 -9.463,1.244 -10.535,0.746 -11.582,0.275 -12.758,0 -13.979,0 c -1.222,0 -2.396,0.275 -3.445,0.746 -1.072,0.498 -2.283,0.791 -3.545,0.791 -1.262,0 -2.471,-0.293 -3.547,-0.791 C -25.563,0.275 -26.736,0 -27.957,0 c -1.223,0 -2.397,0.275 -3.446,0.746 -1.074,0.498 -2.283,0.791 -3.544,0.791 -1.26,0 -2.473,-0.293 -3.549,-0.791 C -39.541,0.275 -40.717,0 -41.936,0 c -1.222,0 -2.398,0.275 -3.445,0.746 -1.074,0.498 -2.283,0.791 -3.545,0.791 -1.262,0 -2.471,-0.293 -3.547,-0.791 C -53.52,0.275 -54.694,0 -55.916,0 l -0.072,20.516 28.252,-7.788 c -1.944,0.938 -3.297,2.911 -3.297,5.215 0,3.207 2.601,5.805 5.806,5.805 3.207,0 5.805,-2.598 5.805,-5.805 0,-3.207 -2.598,-5.806 -5.805,-5.806 -0.195,0 -0.381,0.039 -0.574,0.056 L -0.045,5.096 0,0 z m -25.227,15.426 c 1.389,0 2.516,1.125 2.516,2.517 0,1.389 -1.127,2.518 -2.516,2.518 -1.39,0 -2.517,-1.129 -2.517,-2.518 0,-1.392 1.127,-2.517 2.517,-2.517"
         style="fill:#ffffff;fill-opacity:1;fill-rule:nonzero;stroke:none"
         id="path3953"
         inkscape:connector-curvature="0" />
    </g>
  </g>
</svg>
