<?xml version="1.0" encoding="UTF-8" standalone="no"?>
<!-- Created with Inkscape (http://www.inkscape.org/) -->

<svg
   xmlns:dc="http://purl.org/dc/elements/1.1/"
   xmlns:cc="http://creativecommons.org/ns#"
   xmlns:rdf="http://www.w3.org/1999/02/22-rdf-syntax-ns#"
   xmlns:svg="http://www.w3.org/2000/svg"
   xmlns="http://www.w3.org/2000/svg"
   xmlns:sodipodi="http://sodipodi.sourceforge.net/DTD/sodipodi-0.dtd"
   xmlns:inkscape="http://www.inkscape.org/namespaces/inkscape"
   width="90.625"
   height="90.625"
   id="svg4533"
   version="1.1"
   inkscape:version="0.48.3.1 r9886"
   sodipodi:docname="drawing.svg">
  <defs
     id="defs4535">
    <clipPath
       clipPathUnits="userSpaceOnUse"
       id="clipPath3087">
      <path
         inkscape:connector-curvature="0"
         d="m 63,178.034 513,0 0,559.966 -513,0 0,-559.966 z"
         id="path3089" />
    </clipPath>
  </defs>
  <sodipodi:namedview
     id="base"
     pagecolor="#ffffff"
     bordercolor="#666666"
     borderopacity="1.0"
     inkscape:pageopacity="0.0"
     inkscape:pageshadow="2"
     inkscape:zoom="0.35"
     inkscape:cx="45.31125"
     inkscape:cy="45.312542"
     inkscape:document-units="px"
     inkscape:current-layer="layer1"
     showgrid="false"
     fit-margin-top="0"
     fit-margin-left="0"
     fit-margin-right="0"
     fit-margin-bottom="0"
     inkscape:window-width="451"
     inkscape:window-height="398"
     inkscape:window-x="150"
     inkscape:window-y="150"
     inkscape:window-maximized="0" />
  <metadata
     id="metadata4538">
    <rdf:RDF>
      <cc:Work
         rdf:about="">
        <dc:format>image/svg+xml</dc:format>
        <dc:type
           rdf:resource="http://purl.org/dc/dcmitype/StillImage" />
        <dc:title></dc:title>
      </cc:Work>
    </rdf:RDF>
  </metadata>
  <g
     inkscape:label="Layer 1"
     inkscape:groupmode="layer"
     id="layer1"
     transform="translate(-329.68875,-487.04972)">
    <g
       transform="matrix(1.25,0,0,-1.25,137.77225,1364.4221)"
       id="g3083">
      <g
         id="g3085"
         clip-path="url(#clipPath3087)">
        <g
           id="g3091"
           transform="translate(159.7832,629.6479)">
          <path
             inkscape:connector-curvature="0"
             d="m 0,0 59.998,0 c 1.581,0 3.125,0.64 4.244,1.76 1.117,1.116 1.756,2.66 1.756,4.24 l 0,60 c 0,1.58 -0.639,3.124 -1.756,4.244 C 63.123,71.36 61.579,72 59.998,72 L 0,72 C -1.58,72 -3.125,71.36 -4.24,70.244 -5.359,69.124 -6,67.58 -6,66 L -6,6 C -6,3.944 -4.908,2 -3.176,0.896 -2.188,0.268 -1.145,0.121 0,0"
             style="fill:#ffffff;fill-opacity:1;fill-rule:nonzero;stroke:none"
             id="path3093" />
        </g>
        <g
           id="g3095"
           transform="translate(159.7832,629.6479)">
          <path
             inkscape:connector-curvature="0"
             d="m 0,0 59.998,0 c 1.581,0 3.125,0.64 4.244,1.76 1.117,1.116 1.756,2.66 1.756,4.24 l 0,60 c 0,1.58 -0.639,3.124 -1.756,4.244 C 63.123,71.36 61.579,72 59.998,72 L 0,72 C -1.58,72 -3.125,71.36 -4.24,70.244 -5.359,69.124 -6,67.58 -6,66 L -6,6 C -6,3.944 -4.908,2 -3.176,0.896 -2.188,0.268 -1.145,0.121 0,0 z"
             style="fill:none;stroke:#231f20;stroke-width:0.5;stroke-linecap:butt;stroke-linejoin:miter;stroke-miterlimit:4;stroke-opacity:1;stroke-dasharray:none"
             id="path3097" />
        </g>
        <g
           id="g3099"
           transform="translate(159.7832,631.1479)">
          <path
             inkscape:connector-curvature="0"
             d="M 0,0 C -0.895,0 -1.647,0.202 -2.371,0.661 -3.682,1.495 -4.5,2.967 -4.5,4.5 l 0,60 c 0,1.182 0.48,2.343 1.32,3.183 C -2.346,68.517 -1.182,69 0,69 l 59.998,0 c 1.185,0 2.349,-0.48 3.183,-1.317 0.838,-0.834 1.317,-1.998 1.317,-3.183 l 0,-60 C 64.498,3.319 64.015,2.155 63.181,1.321 62.341,0.48 61.182,0 59.998,0 L 0,0 z"
             style="fill:#713907;fill-opacity:1;fill-rule:evenodd;stroke:none"
             id="path3101" />
        </g>
        <g
           id="g3103"
           transform="translate(182.3356,656.3539)">
          <path
             inkscape:connector-curvature="0"
             d="m 0,0 0,9.428 c 0,3.834 3.106,6.939 6.938,6.939 3.832,0 6.939,-3.105 6.939,-6.939 L 13.877,0 0,0 z"
             style="fill:#ffffff;fill-opacity:1;fill-rule:nonzero;stroke:none"
             id="path3105" />
        </g>
        <g
           id="g3107"
           transform="translate(189.7816,687.7191)">
          <path
             inkscape:connector-curvature="0"
             d="m 0,0 c 10.078,0 18.252,-8.166 18.252,-18.242 l -0.006,-23.524 5.195,-0.009 -0.018,23.533 C 23.423,-5.309 12.933,5.172 0,5.172 c -12.932,0 -23.424,-10.49 -23.424,-23.422 l -0.016,-23.533 5.195,0.01 -0.007,23.523 C -18.252,-8.174 -10.077,0 0,0"
             style="fill:#ffffff;fill-opacity:1;fill-rule:nonzero;stroke:none"
             id="path3109" />
        </g>
        <g
           id="g3111"
           transform="translate(190.6917,654.3383)">
          <path
             inkscape:connector-curvature="0"
             d="m 0,0 -2.83,0 -0.352,-1.979 3.531,0 L 0,0 z"
             style="fill:#ffffff;fill-opacity:1;fill-rule:nonzero;stroke:none"
             id="path3113" />
        </g>
        <g
           id="g3115"
           transform="translate(191.5686,649.3285)">
          <path
             inkscape:connector-curvature="0"
             d="m 0,0 -4.561,0 -0.525,-2.969 5.588,0 L 0,0 z"
             style="fill:#ffffff;fill-opacity:1;fill-rule:nonzero;stroke:none"
             id="path3117" />
        </g>
        <g
           id="g3119"
           transform="translate(192.7456,642.3617)">
          <path
             inkscape:connector-curvature="0"
             d="m 0,0 -6.939,0 -0.678,-3.957 8.319,0 L 0,0 z"
             style="fill:#ffffff;fill-opacity:1;fill-rule:nonzero;stroke:none"
             id="path3121" />
        </g>
      </g>
    </g>
  </g>
</svg>
