<?xml version="1.0" encoding="UTF-8" standalone="no"?>
<!-- Created with Inkscape (http://www.inkscape.org/) -->

<svg
   xmlns:dc="http://purl.org/dc/elements/1.1/"
   xmlns:cc="http://creativecommons.org/ns#"
   xmlns:rdf="http://www.w3.org/1999/02/22-rdf-syntax-ns#"
   xmlns:svg="http://www.w3.org/2000/svg"
   xmlns="http://www.w3.org/2000/svg"
   xmlns:sodipodi="http://sodipodi.sourceforge.net/DTD/sodipodi-0.dtd"
   xmlns:inkscape="http://www.inkscape.org/namespaces/inkscape"
   width="90.625"
   height="90.625"
   id="svg6401"
   version="1.1"
   inkscape:version="0.48.3.1 r9886"
   sodipodi:docname="New document 42">
  <defs
     id="defs6403">
    <clipPath
       clipPathUnits="userSpaceOnUse"
       id="clipPath3927">
      <path
         inkscape:connector-curvature="0"
         d="m 27,32 511.888,0 0,459.994 L 27,491.994 27,32 z"
         id="path3929" />
    </clipPath>
  </defs>
  <sodipodi:namedview
     id="base"
     pagecolor="#ffffff"
     bordercolor="#666666"
     borderopacity="1.0"
     inkscape:pageopacity="0.0"
     inkscape:pageshadow="2"
     inkscape:zoom="0.35"
     inkscape:cx="14.598214"
     inkscape:cy="131.02619"
     inkscape:document-units="px"
     inkscape:current-layer="layer1"
     showgrid="false"
     fit-margin-top="0"
     fit-margin-left="0"
     fit-margin-right="0"
     fit-margin-bottom="0"
     inkscape:window-width="451"
     inkscape:window-height="398"
     inkscape:window-x="175"
     inkscape:window-y="175"
     inkscape:window-maximized="0" />
  <metadata
     id="metadata6406">
    <rdf:RDF>
      <cc:Work
         rdf:about="">
        <dc:format>image/svg+xml</dc:format>
        <dc:type
           rdf:resource="http://purl.org/dc/dcmitype/StillImage" />
        <dc:title></dc:title>
      </cc:Work>
    </rdf:RDF>
  </metadata>
  <g
     inkscape:label="Layer 1"
     inkscape:groupmode="layer"
     id="layer1"
     transform="translate(-360.40179,-572.76337)">
    <g
       transform="matrix(1.25,0,0,-1.25,-2.0025893,1013.219)"
       id="g3923">
      <g
         id="g3925"
         clip-path="url(#clipPath3927)">
        <g
           id="g3931"
           transform="translate(296.1735,280.1145)">
          <path
             inkscape:connector-curvature="0"
             d="m 0,0 60,0 c 1.58,0 3.125,0.64 4.244,1.76 C 65.361,2.876 66,4.42 66,6 l 0,59.999 c 0,1.58 -0.639,3.124 -1.756,4.245 C 63.125,71.36 61.58,71.999 60,71.999 l -60,0 c -1.578,0 -3.123,-0.639 -4.241,-1.755 C -5.36,69.123 -6,67.579 -6,65.999 L -6,6 C -6,3.944 -4.909,2 -3.176,0.896 -2.188,0.268 -1.143,0.12 0,0"
             style="fill:#ffffff;fill-opacity:1;fill-rule:nonzero;stroke:none"
             id="path3933" />
        </g>
        <g
           id="g3935"
           transform="translate(296.1735,280.1145)">
          <path
             inkscape:connector-curvature="0"
             d="m 0,0 60,0 c 1.58,0 3.125,0.64 4.244,1.76 C 65.361,2.876 66,4.42 66,6 l 0,59.999 c 0,1.58 -0.639,3.124 -1.756,4.245 C 63.125,71.36 61.58,71.999 60,71.999 l -60,0 c -1.578,0 -3.123,-0.639 -4.241,-1.755 C -5.36,69.123 -6,67.579 -6,65.999 L -6,6 C -6,3.944 -4.909,2 -3.176,0.896 -2.188,0.268 -1.143,0.12 0,0 z"
             style="fill:none;stroke:#231f20;stroke-width:0.5;stroke-linecap:butt;stroke-linejoin:miter;stroke-miterlimit:4;stroke-opacity:1;stroke-dasharray:none"
             id="path3937" />
        </g>
        <g
           id="g3939"
           transform="translate(296.1735,281.6145)">
          <path
             inkscape:connector-curvature="0"
             d="M 0,0 C -0.893,0 -1.647,0.202 -2.369,0.66 -3.68,1.494 -4.5,2.967 -4.5,4.5 l 0,59.999 c 0,1.183 0.48,2.344 1.32,3.184 0.834,0.834 1.998,1.316 3.18,1.316 l 60,0 c 1.185,0 2.349,-0.479 3.183,-1.316 0.838,-0.834 1.317,-1.998 1.317,-3.184 L 64.5,4.5 C 64.5,3.319 64.017,2.155 63.183,1.321 62.343,0.48 61.183,0 60,0 L 0,0 z"
             style="fill:#713907;fill-opacity:1;fill-rule:evenodd;stroke:none"
             id="path3941" />
        </g>
        <g
           id="g3943"
           transform="translate(320.8915,314.2815)">
          <path
             inkscape:connector-curvature="0"
             d="m 0,0 -10.005,-0.002 c -3.469,0 -6.282,2.808 -6.282,6.279 l -0.011,10.975 c 0,4.705 3.816,8.521 8.523,8.521 l 28.973,0 c 4.705,0 8.519,-3.816 8.519,-8.521 l 0.014,-15.5 4.432,0 c 0.962,0 1.738,-0.785 1.738,-1.748 L 13.407,0 C 13.182,3.523 10.282,6.318 6.704,6.318 3.123,6.318 0.225,3.523 0,0 m 22.727,13.951 c 0.971,0 1.758,0.787 1.758,1.76 l 0,2.912 c 0,0.973 -0.787,1.762 -1.758,1.762 l -6.111,0 c -0.973,0 -1.76,-0.789 -1.76,-1.762 l 0,-2.912 c 0,-0.973 0.787,-1.76 1.76,-1.76 l 6.111,0 z M 5.248,13.941 c 0.973,0 1.76,0.787 1.76,1.758 l 0,2.924 c 0,0.973 -0.787,1.762 -1.76,1.762 l -13.236,0 c -0.971,0 -1.758,-0.789 -1.758,-1.762 l 0,-2.924 c 0,-0.971 0.787,-1.758 1.758,-1.758 l 13.236,0 z"
             style="fill:#ffffff;fill-opacity:1;fill-rule:nonzero;stroke:none"
             id="path3945" />
        </g>
        <g
           id="g3947"
           transform="translate(356.8645,308.8795)">
          <path
             inkscape:connector-curvature="0"
             d="m 0,0 -0.021,-17.844 c 0,-1.305 -1.057,-2.364 -2.364,-2.364 l -56.441,0 c -1.307,0 -2.365,1.059 -2.365,2.364 l 0.004,17.797 13.871,0 0,-3.006 -9.842,-0.008 c -0.422,0 -0.772,-0.305 -0.838,-0.705 l 0,-11.859 c 0,-0.893 0.723,-1.616 1.613,-1.616 l 24.856,0 c 0.892,0 1.58,0.723 1.58,1.616 l 0.002,11.716 c 0,0.471 -0.381,0.852 -0.852,0.852 l -10.81,0.004 0,3.053 11.254,0 c -2.291,0.498 -4.01,2.531 -4.01,4.972 0,2.815 2.279,5.098 5.094,5.098 2.814,0 5.095,-2.283 5.095,-5.098 0,-2.441 -1.72,-4.474 -4.011,-4.972 L 0,0 z m -29.269,2.763 c 1.218,0 2.209,0.992 2.209,2.209 0,1.221 -0.991,2.211 -2.209,2.211 -1.219,0 -2.209,-0.99 -2.209,-2.211 0,-1.217 0.99,-2.209 2.209,-2.209"
             style="fill:#ffffff;fill-opacity:1;fill-rule:nonzero;stroke:none"
             id="path3949" />
        </g>
        <g
           id="g3951"
           transform="translate(311.3275,312.3325)">
          <path
             inkscape:connector-curvature="0"
             d="m 0,0 2.139,0 0,-11.508 1.035,0 c 0,0 0.793,-0.168 0.529,-1.037 l -1.935,-2.344 c 0,0 -0.235,-0.336 -0.657,-0.342 -0.42,0.006 -0.656,0.342 -0.656,0.342 l -2.019,2.344 c -0.266,0.869 0.529,1.037 0.529,1.037 L 0,-11.508 0,0 z"
             style="fill:#ffffff;fill-opacity:1;fill-rule:nonzero;stroke:none"
             id="path3953" />
        </g>
      </g>
    </g>
  </g>
</svg>
