<?xml version="1.0" encoding="UTF-8" standalone="no"?>
<!-- Created with Inkscape (http://www.inkscape.org/) -->

<svg
   xmlns:dc="http://purl.org/dc/elements/1.1/"
   xmlns:cc="http://creativecommons.org/ns#"
   xmlns:rdf="http://www.w3.org/1999/02/22-rdf-syntax-ns#"
   xmlns:svg="http://www.w3.org/2000/svg"
   xmlns="http://www.w3.org/2000/svg"
   xmlns:sodipodi="http://sodipodi.sourceforge.net/DTD/sodipodi-0.dtd"
   xmlns:inkscape="http://www.inkscape.org/namespaces/inkscape"
   width="90.623749"
   height="90.625"
   id="svg4973"
   version="1.1"
   inkscape:version="0.48.3.1 r9886"
   sodipodi:docname="New document 12">
  <defs
     id="defs4975">
    <clipPath
       clipPathUnits="userSpaceOnUse"
       id="clipPath3219">
      <path
         inkscape:connector-curvature="0"
         d="m 27,504.994 513.013,0 0,232.257 -513.013,0 0,-232.257 z"
         id="path3221" />
    </clipPath>
    <clipPath
       clipPathUnits="userSpaceOnUse"
       id="clipPath3207">
      <path
         inkscape:connector-curvature="0"
         d="m 30.875,504.994 505.264,0 0,232.256 -505.264,0 0,-232.256 z"
         id="path3209" />
    </clipPath>
    <clipPath
       clipPathUnits="userSpaceOnUse"
       id="clipPath3195">
      <path
         inkscape:connector-curvature="0"
         d="m 27,504.994 513.013,0 0,232.257 -513.013,0 0,-232.257 z"
         id="path3197" />
    </clipPath>
  </defs>
  <sodipodi:namedview
     id="base"
     pagecolor="#ffffff"
     bordercolor="#666666"
     borderopacity="1.0"
     inkscape:pageopacity="0.0"
     inkscape:pageshadow="2"
     inkscape:zoom="0.35"
     inkscape:cx="45.31187"
     inkscape:cy="45.311842"
     inkscape:document-units="px"
     inkscape:current-layer="layer1"
     showgrid="false"
     fit-margin-top="0"
     fit-margin-left="0"
     fit-margin-right="0"
     fit-margin-bottom="0"
     inkscape:window-width="451"
     inkscape:window-height="398"
     inkscape:window-x="25"
     inkscape:window-y="25"
     inkscape:window-maximized="0" />
  <metadata
     id="metadata4978">
    <rdf:RDF>
      <cc:Work
         rdf:about="">
        <dc:format>image/svg+xml</dc:format>
        <dc:type
           rdf:resource="http://purl.org/dc/dcmitype/StillImage" />
        <dc:title></dc:title>
      </cc:Work>
    </rdf:RDF>
  </metadata>
  <g
     inkscape:label="Layer 1"
     inkscape:groupmode="layer"
     id="layer1"
     transform="translate(-329.68813,-487.04903)">
    <g
       transform="matrix(1.25,0,0,-1.25,-249.86187,1381.0829)"
       id="g3191">
      <g
         id="g3193"
         clip-path="url(#clipPath3195)">
        <g
           id="g3199"
           transform="translate(469.89,642.9771)">
          <path
             inkscape:connector-curvature="0"
             d="m 0,0 59.999,0 c 1.58,0 3.125,0.64 4.244,1.76 1.117,1.116 1.756,2.66 1.756,4.24 l 0,59.999 c 0,1.58 -0.639,3.124 -1.756,4.244 -1.119,1.116 -2.664,1.756 -4.244,1.756 L 0,71.999 c -1.579,0 -3.124,-0.64 -4.241,-1.756 C -5.36,69.123 -6,67.579 -6,65.999 L -6,6 C -6,3.943 -4.909,2 -3.176,0.896 -2.188,0.268 -1.144,0.12 0,0"
             style="fill:#ffffff;fill-opacity:1;fill-rule:nonzero;stroke:none"
             id="path3201" />
        </g>
      </g>
    </g>
    <g
       transform="matrix(1.25,0,0,-1.25,-249.86187,1381.0829)"
       id="g3203">
      <g
         id="g3205"
         clip-path="url(#clipPath3207)">
        <g
           id="g3211"
           transform="translate(469.89,642.9771)">
          <path
             inkscape:connector-curvature="0"
             d="m 0,0 59.999,0 c 1.58,0 3.125,0.64 4.244,1.76 1.117,1.116 1.756,2.66 1.756,4.24 l 0,59.999 c 0,1.58 -0.639,3.124 -1.756,4.244 -1.119,1.116 -2.664,1.756 -4.244,1.756 L 0,71.999 c -1.579,0 -3.124,-0.64 -4.241,-1.756 C -5.36,69.123 -6,67.579 -6,65.999 L -6,6 C -6,3.943 -4.909,2 -3.176,0.896 -2.188,0.268 -1.144,0.12 0,0 z"
             style="fill:none;stroke:#231f20;stroke-width:0.5;stroke-linecap:butt;stroke-linejoin:miter;stroke-miterlimit:4;stroke-opacity:1;stroke-dasharray:none"
             id="path3213" />
        </g>
      </g>
    </g>
    <g
       transform="matrix(1.25,0,0,-1.25,-249.86187,1381.0829)"
       id="g3215">
      <g
         id="g3217"
         clip-path="url(#clipPath3219)">
        <g
           id="g3223"
           transform="translate(469.89,644.4771)">
          <path
             inkscape:connector-curvature="0"
             d="M 0,0 C -0.894,0 -1.647,0.201 -2.37,0.66 -3.681,1.494 -4.5,2.967 -4.5,4.5 l 0,59.999 c 0,1.183 0.48,2.344 1.32,3.184 0.834,0.834 1.998,1.316 3.18,1.316 l 59.999,0 c 1.185,0 2.349,-0.479 3.183,-1.316 0.838,-0.834 1.317,-1.998 1.317,-3.184 l 0,-59.999 C 64.499,3.318 64.016,2.154 63.182,1.32 62.342,0.48 61.182,0 59.999,0 L 0,0 z"
             style="fill:#713907;fill-opacity:1;fill-rule:evenodd;stroke:none"
             id="path3225" />
        </g>
        <g
           id="g3227"
           transform="translate(488.768,670.6031)">
          <path
             inkscape:connector-curvature="0"
             d="M 0,0 C 0,2.145 1.74,3.883 3.884,3.883 6.029,3.883 7.767,2.145 7.767,0 7.767,-2.144 6.029,-3.885 3.884,-3.885 1.74,-3.885 0,-2.144 0,0"
             style="fill:#ffffff;fill-opacity:1;fill-rule:nonzero;stroke:none"
             id="path3229" />
        </g>
        <g
           id="g3231"
           transform="translate(523.961,672.9801)">
          <path
             inkscape:connector-curvature="0"
             d="m 0,0 c 1.699,0 3.078,-1.373 3.094,-3.068 l 0.008,-8.157 -24.1,0 0,11.215 L 0,0 z"
             style="fill:#ffffff;fill-opacity:1;fill-rule:nonzero;stroke:none"
             id="path3233" />
        </g>
        <g
           id="g3235"
           transform="translate(477.063,654.5797)">
          <path
             inkscape:connector-curvature="0"
             d="m 0,0 50.025,0 0,5.195 -44.83,0 0,19.674 44.83,20.25 0,5.395 -55.606,-25.108 0,-5.396 L 0,22.514 0,0 z"
             style="fill:#ffffff;fill-opacity:1;fill-rule:nonzero;stroke:none"
             id="path3237" />
        </g>
        <g
           id="g3239"
           transform="translate(497.734,665.5777)">
          <path
             inkscape:connector-curvature="0"
             d="m 0,0 -6.966,0.002 c -1.057,0 -1.913,-0.857 -1.913,-1.912 0,-1.057 0.856,-1.91 1.913,-1.91 l 8.871,0 c 1.054,0 1.91,0.853 1.91,1.91 l 0,7.68 c 0,1.058 -0.856,1.91 -1.91,1.91 -1.057,0 -1.912,-0.852 -1.912,-1.91 L 0,0 z"
             style="fill:#ffffff;fill-opacity:1;fill-rule:nonzero;stroke:none"
             id="path3241" />
        </g>
      </g>
    </g>
  </g>
</svg>
