<?xml version="1.0" encoding="UTF-8" standalone="no"?>
<!-- Created with Inkscape (http://www.inkscape.org/) -->

<svg
   xmlns:dc="http://purl.org/dc/elements/1.1/"
   xmlns:cc="http://creativecommons.org/ns#"
   xmlns:rdf="http://www.w3.org/1999/02/22-rdf-syntax-ns#"
   xmlns:svg="http://www.w3.org/2000/svg"
   xmlns="http://www.w3.org/2000/svg"
   xmlns:sodipodi="http://sodipodi.sourceforge.net/DTD/sodipodi-0.dtd"
   xmlns:inkscape="http://www.inkscape.org/namespaces/inkscape"
   width="90.625"
   height="90.625"
   id="svg6050"
   version="1.1"
   inkscape:version="0.48.3.1 r9886"
   sodipodi:docname="New document 36">
  <defs
     id="defs6052">
    <clipPath
       clipPathUnits="userSpaceOnUse"
       id="clipPath3877">
      <path
         inkscape:connector-curvature="0"
         d="m 27,45 513,0 0,693 -513,0 0,-693 z"
         id="path3879" />
    </clipPath>
  </defs>
  <sodipodi:namedview
     id="base"
     pagecolor="#ffffff"
     bordercolor="#666666"
     borderopacity="1.0"
     inkscape:pageopacity="0.0"
     inkscape:pageshadow="2"
     inkscape:zoom="0.35"
     inkscape:cx="60.31125"
     inkscape:cy="28.169067"
     inkscape:document-units="px"
     inkscape:current-layer="layer1"
     showgrid="false"
     fit-margin-top="0"
     fit-margin-left="0"
     fit-margin-right="0"
     fit-margin-bottom="0"
     inkscape:window-width="451"
     inkscape:window-height="415"
     inkscape:window-x="125"
     inkscape:window-y="125"
     inkscape:window-maximized="0" />
  <metadata
     id="metadata6055">
    <rdf:RDF>
      <cc:Work
         rdf:about="">
        <dc:format>image/svg+xml</dc:format>
        <dc:type
           rdf:resource="http://purl.org/dc/dcmitype/StillImage" />
        <dc:title></dc:title>
      </cc:Work>
    </rdf:RDF>
  </metadata>
  <g
     inkscape:label="Layer 1"
     inkscape:groupmode="layer"
     id="layer1"
     transform="translate(-314.68875,-469.90625)">
    <g
       transform="matrix(1.25,0,0,-1.25,-48.414625,1097.2815)"
       id="g3873">
      <g
         id="g3875"
         clip-path="url(#clipPath3877)">
        <g
           id="g3881"
           transform="translate(296.7327,429.6502)">
          <path
             inkscape:connector-curvature="0"
             d="m 0,0 59.998,0 c 1.58,0 3.125,0.64 4.244,1.76 1.117,1.116 1.756,2.66 1.756,4.24 l 0,59.999 c 0,1.58 -0.639,3.124 -1.756,4.244 -1.119,1.116 -2.664,1.756 -4.244,1.756 L 0,71.999 c -1.58,0 -3.125,-0.64 -4.241,-1.756 C -5.36,69.123 -6,67.579 -6,65.999 L -6,6 C -6,3.943 -4.909,2 -3.176,0.895 -2.188,0.267 -1.145,0.12 0,0"
             style="fill:#ffffff;fill-opacity:1;fill-rule:nonzero;stroke:none"
             id="path3883" />
        </g>
        <g
           id="g3885"
           transform="translate(296.7327,429.6502)">
          <path
             inkscape:connector-curvature="0"
             d="m 0,0 59.998,0 c 1.58,0 3.125,0.64 4.244,1.76 1.117,1.116 1.756,2.66 1.756,4.24 l 0,59.999 c 0,1.58 -0.639,3.124 -1.756,4.244 -1.119,1.116 -2.664,1.756 -4.244,1.756 L 0,71.999 c -1.58,0 -3.125,-0.64 -4.241,-1.756 C -5.36,69.123 -6,67.579 -6,65.999 L -6,6 C -6,3.943 -4.909,2 -3.176,0.895 -2.188,0.267 -1.145,0.12 0,0 z"
             style="fill:none;stroke:#231f20;stroke-width:0.5;stroke-linecap:butt;stroke-linejoin:miter;stroke-miterlimit:4;stroke-opacity:1;stroke-dasharray:none"
             id="path3887" />
        </g>
        <g
           id="g3889"
           transform="translate(296.7327,431.1502)">
          <path
             inkscape:connector-curvature="0"
             d="M 0,0 C -0.895,0 -1.647,0.201 -2.371,0.66 -3.682,1.494 -4.5,2.967 -4.5,4.5 l 0,59.999 c 0,1.183 0.48,2.344 1.32,3.184 0.834,0.834 1.998,1.316 3.18,1.316 l 59.998,0 c 1.185,0 2.349,-0.48 3.183,-1.316 0.838,-0.834 1.317,-1.999 1.317,-3.184 l 0,-59.999 C 64.498,3.318 64.015,2.154 63.181,1.32 62.341,0.479 61.181,0 59.998,0 L 0,0 z"
             style="fill:#713907;fill-opacity:1;fill-rule:evenodd;stroke:none"
             id="path3891" />
        </g>
      </g>
    </g>
    <g
       id="g4205"
       transform="matrix(1.25,0,0,-1.25,335.1975,499.7412)">
      <path
         d="m 0,0 c 1.603,0 2.906,-1.299 2.906,-2.905 l 0.004,-4.16 c 0,-4.48 3.633,-8.111 8.113,-8.111 l 6.813,-0.006 c 1.603,0 2.906,-1.301 2.906,-2.906 l 0.006,-4.156 c 0,-4.483 3.631,-8.114 8.113,-8.114 l 6.864,-0.006 c 1.605,0 2.904,-1.3 2.904,-2.906 l 0,-8.015 5.209,0 0,8.015 c 0,4.483 -3.633,8.113 -8.113,8.113 l -6.817,0.008 c -1.601,0 -2.904,1.299 -2.904,2.905 l -0.055,4.156 c 0,4.482 -3.631,8.113 -8.113,8.113 l -6.813,0.006 c -1.603,0 -2.904,1.303 -2.904,2.904 l -0.006,4.16 C 8.113,1.576 4.48,5.209 0,5.209 L -9.057,5.205 -9.057,0.01 0,0 z"
         style="fill:#ffffff;fill-opacity:1;fill-rule:nonzero;stroke:none"
         id="path4207"
         inkscape:connector-curvature="0" />
    </g>
    <g
       id="g4209"
       transform="matrix(1.25,0,0,-1.25,351.83375,483.2837)">
      <path
         d="m 0,0 c -0.112,0.113 -0.18,0.269 -0.18,0.441 0,0.278 0.199,0.516 0.447,0.596 1.879,0.486 9.998,2.465 20.149,-5.094 l 4.138,0.723 4.153,-5.715 -2.727,-0.484 c 4.08,-6.043 4.025,-13.868 3.687,-16.989 l 4.305,-6.996 c 0.033,-0.068 0.053,-0.146 0.053,-0.228 0,-0.297 -0.242,-0.539 -0.541,-0.539 -0.102,0 -0.199,0.029 -0.279,0.078 l -6.018,2.584 -6.014,-2.584 c -0.082,-0.049 -0.179,-0.078 -0.281,-0.078 -0.299,0 -0.539,0.242 -0.539,0.539 0,0.082 0.018,0.16 0.051,0.228 l 4.305,6.996 c 0,7.358 -8.336,10.717 -10.516,11.448 -4.338,1.459 -14.195,7.82 -16.276,13.125 -0.033,0.076 -0.05,0.179 -0.05,0.265 0,0.344 0.273,0.627 0.619,0.627 0.17,0 0.279,-0.025 0.418,-0.135 L 1.707,-3.25 c 0.066,-0.065 0.154,-0.106 0.25,-0.106 0.193,0 0.353,0.158 0.353,0.352 0,0.111 -0.053,0.211 -0.133,0.273 L 0,0 z m 4.99,-2.283 c 0.556,0 1.01,0.449 1.01,1.009 0,0.557 -0.454,1.01 -1.01,1.01 -0.561,0 -1.012,-0.453 -1.012,-1.01 0,-0.56 0.451,-1.009 1.012,-1.009"
         style="fill:#ffffff;fill-opacity:1;fill-rule:nonzero;stroke:none"
         id="path4211"
         inkscape:connector-curvature="0" />
    </g>
  </g>
</svg>
