<?xml version="1.0" encoding="UTF-8" standalone="no"?>
<!-- Created with Inkscape (http://www.inkscape.org/) -->

<svg
   xmlns:dc="http://purl.org/dc/elements/1.1/"
   xmlns:cc="http://creativecommons.org/ns#"
   xmlns:rdf="http://www.w3.org/1999/02/22-rdf-syntax-ns#"
   xmlns:svg="http://www.w3.org/2000/svg"
   xmlns="http://www.w3.org/2000/svg"
   xmlns:sodipodi="http://sodipodi.sourceforge.net/DTD/sodipodi-0.dtd"
   xmlns:inkscape="http://www.inkscape.org/namespaces/inkscape"
   width="90.625"
   height="90.625"
   id="svg4955"
   version="1.1"
   inkscape:version="0.48.3.1 r9886"
   sodipodi:docname="New document 19">
  <defs
     id="defs4957">
    <clipPath
       clipPathUnits="userSpaceOnUse"
       id="clipPath3315">
      <path
         inkscape:connector-curvature="0"
         d="m 63,178.034 513,0 0,559.966 -513,0 0,-559.966 z"
         id="path3317" />
    </clipPath>
  </defs>
  <sodipodi:namedview
     id="base"
     pagecolor="#ffffff"
     bordercolor="#666666"
     borderopacity="1.0"
     inkscape:pageopacity="0.0"
     inkscape:pageshadow="2"
     inkscape:zoom="0.35"
     inkscape:cx="45.31188"
     inkscape:cy="45.312542"
     inkscape:document-units="px"
     inkscape:current-layer="layer1"
     showgrid="false"
     fit-margin-top="0"
     fit-margin-left="0"
     fit-margin-right="0"
     fit-margin-bottom="0"
     inkscape:window-width="451"
     inkscape:window-height="398"
     inkscape:window-x="25"
     inkscape:window-y="25"
     inkscape:window-maximized="0" />
  <metadata
     id="metadata4960">
    <rdf:RDF>
      <cc:Work
         rdf:about="">
        <dc:format>image/svg+xml</dc:format>
        <dc:type
           rdf:resource="http://purl.org/dc/dcmitype/StillImage" />
        <dc:title></dc:title>
      </cc:Work>
    </rdf:RDF>
  </metadata>
  <g
     inkscape:label="Layer 1"
     inkscape:groupmode="layer"
     id="layer1"
     transform="translate(-329.68812,-487.04972)">
    <g
       transform="matrix(1.25,0,0,-1.25,244.37137,1231.5546)"
       id="g3311">
      <g
         id="g3313"
         clip-path="url(#clipPath3315)">
        <g
           id="g3319"
           transform="translate(74.5034,523.3539)">
          <path
             inkscape:connector-curvature="0"
             d="m 0,0 59.999,0 c 1.58,0 3.125,0.64 4.244,1.76 1.117,1.116 1.756,2.66 1.756,4.24 l 0,60 c 0,1.58 -0.639,3.124 -1.756,4.244 C 63.124,71.36 61.579,72 59.999,72 L 0,72 C -1.579,72 -3.124,71.36 -4.24,70.244 -5.359,69.124 -6,67.58 -6,66 L -6,6 C -6,3.944 -4.908,2 -3.176,0.896 -2.188,0.268 -1.144,0.121 0,0"
             style="fill:#ffffff;fill-opacity:1;fill-rule:nonzero;stroke:none"
             id="path3321" />
        </g>
        <g
           id="g3323"
           transform="translate(74.5034,523.3539)">
          <path
             inkscape:connector-curvature="0"
             d="m 0,0 59.999,0 c 1.58,0 3.125,0.64 4.244,1.76 1.117,1.116 1.756,2.66 1.756,4.24 l 0,60 c 0,1.58 -0.639,3.124 -1.756,4.244 C 63.124,71.36 61.579,72 59.999,72 L 0,72 C -1.579,72 -3.124,71.36 -4.24,70.244 -5.359,69.124 -6,67.58 -6,66 L -6,6 C -6,3.944 -4.908,2 -3.176,0.896 -2.188,0.268 -1.144,0.121 0,0 z"
             style="fill:none;stroke:#231f20;stroke-width:0.5;stroke-linecap:butt;stroke-linejoin:miter;stroke-miterlimit:4;stroke-opacity:1;stroke-dasharray:none"
             id="path3325" />
        </g>
        <g
           id="g3327"
           transform="translate(74.5034,524.8539)">
          <path
             inkscape:connector-curvature="0"
             d="M 0,0 C -0.894,0 -1.646,0.202 -2.37,0.661 -3.681,1.495 -4.5,2.967 -4.5,4.5 l 0,60 c 0,1.182 0.48,2.343 1.32,3.183 C -2.346,68.517 -1.182,69 0,69 l 59.999,0 c 1.186,0 2.35,-0.48 3.184,-1.317 0.837,-0.834 1.316,-1.998 1.316,-3.183 l 0,-60 C 64.499,3.319 64.017,2.155 63.183,1.321 62.343,0.48 61.183,0 59.999,0 L 0,0 z"
             style="fill:#713907;fill-opacity:1;fill-rule:evenodd;stroke:none"
             id="path3329" />
        </g>
        <g
           id="g3331"
           transform="translate(119.559,580.1489)">
          <path
             inkscape:connector-curvature="0"
             d="m 0,0 5.273,0.008 c 0.704,0 1.276,-0.571 1.276,-1.278 0,-0.703 -0.572,-1.273 -1.276,-1.273 l -5.222,0.006 c -0.332,0.002 -0.664,-0.121 -0.914,-0.373 -0.393,-0.391 -0.483,-0.969 -0.26,-1.444 0.189,-0.41 0.459,-0.847 0.742,-1.205 l 3.01,0.004 c 0.23,-0.01 0.471,-0.066 0.684,-0.17 l 7.078,-3.791 c 0.586,-0.367 0.976,-1.019 0.976,-1.759 0,-1.147 -0.929,-2.075 -2.074,-2.075 l -4.594,0 -6.193,-15.152 -3.969,-3.971 0,-14.5 c 0,-1.472 -1.193,-2.664 -2.664,-2.664 -1.473,0 -2.666,1.192 -2.666,2.664 l 0.002,15.596 -10.707,0 -2.402,-3.654 5.908,-10.303 c 0.726,-1.281 0.273,-2.906 -1.008,-3.631 -1.281,-0.725 -2.906,-0.271 -3.631,1.008 l -6.08,10.426 0,4.615 -3.016,-4.051 0,-9.814 c 0,-1.471 -1.193,-2.664 -2.666,-2.664 -1.47,0 -2.662,1.193 -2.662,2.664 l -0.013,10.402 2.492,3.943 0,4.713 -1.936,-3.027 c -0.045,-0.107 -0.15,-0.182 -0.275,-0.182 -0.164,0 -0.297,0.133 -0.297,0.297 l -0.002,10.486 c 0.094,2.051 1.824,3.77 3.895,3.77 l 26.214,0.004 4.159,6.393 -3.444,3.439 c -0.111,0.098 -0.183,0.242 -0.183,0.402 0,0.295 0.238,0.532 0.531,0.532 l 2.523,-0.01 c -0.634,1.303 -0.99,2.767 -0.99,4.314 0,5.449 4.43,9.867 9.879,9.867 0.705,0 1.287,-0.57 1.287,-1.275 0,-0.705 -0.582,-1.293 -1.287,-1.293 -3.728,0 -6.814,-2.82 -7.242,-6.435 C -1.225,-0.145 -0.641,0 0,0"
             style="fill:#ffffff;fill-opacity:1;fill-rule:nonzero;stroke:none"
             id="path3333" />
        </g>
      </g>
    </g>
  </g>
</svg>
