<?xml version="1.0" encoding="UTF-8" standalone="no"?>
<!-- Created with Inkscape (http://www.inkscape.org/) -->

<svg
   xmlns:dc="http://purl.org/dc/elements/1.1/"
   xmlns:cc="http://creativecommons.org/ns#"
   xmlns:rdf="http://www.w3.org/1999/02/22-rdf-syntax-ns#"
   xmlns:svg="http://www.w3.org/2000/svg"
   xmlns="http://www.w3.org/2000/svg"
   xmlns:sodipodi="http://sodipodi.sourceforge.net/DTD/sodipodi-0.dtd"
   xmlns:inkscape="http://www.inkscape.org/namespaces/inkscape"
   width="90.625"
   height="90.625"
   id="svg5077"
   version="1.1"
   inkscape:version="0.48.3.1 r9886"
   sodipodi:docname="RS-012_Pets_on_Leash.svg">
  <defs
     id="defs5079">
    <clipPath
       clipPathUnits="userSpaceOnUse"
       id="clipPath3375">
      <path
         inkscape:connector-curvature="0"
         d="m 63,178.034 513,0 0,559.966 -513,0 0,-559.966 z"
         id="path3377" />
    </clipPath>
  </defs>
  <sodipodi:namedview
     id="base"
     pagecolor="#ffffff"
     bordercolor="#666666"
     borderopacity="1.0"
     inkscape:pageopacity="0.0"
     inkscape:pageshadow="2"
     inkscape:zoom="0.35"
     inkscape:cx="45.31125"
     inkscape:cy="45.312542"
     inkscape:document-units="px"
     inkscape:current-layer="layer1"
     showgrid="false"
     inkscape:window-width="451"
     inkscape:window-height="398"
     inkscape:window-x="125"
     inkscape:window-y="125"
     inkscape:window-maximized="0"
     fit-margin-top="0"
     fit-margin-left="0"
     fit-margin-right="0"
     fit-margin-bottom="0" />
  <metadata
     id="metadata5082">
    <rdf:RDF>
      <cc:Work
         rdf:about="">
        <dc:format>image/svg+xml</dc:format>
        <dc:type
           rdf:resource="http://purl.org/dc/dcmitype/StillImage" />
        <dc:title />
      </cc:Work>
    </rdf:RDF>
  </metadata>
  <g
     inkscape:label="Layer 1"
     inkscape:groupmode="layer"
     id="layer1"
     transform="translate(-329.68875,-487.04972)">
    <g
       transform="matrix(1.25,0,0,-1.25,26.44925,1231.5546)"
       id="g3371">
      <g
         id="g3373"
         clip-path="url(#clipPath3375)">
        <g
           id="g3379"
           transform="translate(248.8416,523.3539)">
          <path
             inkscape:connector-curvature="0"
             d="m 0,0 59.998,0 c 1.58,0 3.125,0.64 4.244,1.76 1.117,1.116 1.756,2.66 1.756,4.24 l 0,60 c 0,1.58 -0.639,3.124 -1.756,4.244 C 63.123,71.36 61.578,72 59.998,72 L 0,72 C -1.58,72 -3.125,71.36 -4.241,70.244 -5.36,69.124 -6,67.58 -6,66 L -6,6 C -6,3.944 -4.909,2 -3.176,0.896 -2.188,0.268 -1.145,0.121 0,0"
             style="fill:#ffffff;fill-opacity:1;fill-rule:nonzero;stroke:none"
             id="path3381" />
        </g>
        <g
           id="g3383"
           transform="translate(248.8416,523.3539)">
          <path
             inkscape:connector-curvature="0"
             d="m 0,0 59.998,0 c 1.58,0 3.125,0.64 4.244,1.76 1.117,1.116 1.756,2.66 1.756,4.24 l 0,60 c 0,1.58 -0.639,3.124 -1.756,4.244 C 63.123,71.36 61.578,72 59.998,72 L 0,72 C -1.58,72 -3.125,71.36 -4.241,70.244 -5.36,69.124 -6,67.58 -6,66 L -6,6 C -6,3.944 -4.909,2 -3.176,0.896 -2.188,0.268 -1.145,0.121 0,0 z"
             style="fill:none;stroke:#231f20;stroke-width:0.5;stroke-linecap:butt;stroke-linejoin:miter;stroke-miterlimit:4;stroke-opacity:1;stroke-dasharray:none"
             id="path3385" />
        </g>
        <g
           id="g3387"
           transform="translate(248.8416,524.8539)">
          <path
             inkscape:connector-curvature="0"
             d="M 0,0 C -0.895,0 -1.647,0.202 -2.371,0.661 -3.682,1.495 -4.5,2.967 -4.5,4.5 l 0,60 c 0,1.182 0.48,2.343 1.32,3.183 C -2.346,68.517 -1.182,69 0,69 l 59.998,0 c 1.185,0 2.349,-0.48 3.183,-1.317 0.838,-0.834 1.317,-1.998 1.317,-3.183 l 0,-60 C 64.498,3.319 64.015,2.155 63.181,1.321 62.341,0.48 61.181,0 59.998,0 L 0,0 z"
             style="fill:#713907;fill-opacity:1;fill-rule:evenodd;stroke:none"
             id="path3389" />
        </g>
        <g
           id="g3391"
           transform="translate(284.0126,564.6949)">
          <path
             inkscape:connector-curvature="0"
             d="m 0,0 -29.435,13.981 0,2.787 L 0.979,2.196 0,0 z"
             style="fill:#ffffff;fill-opacity:1;fill-rule:nonzero;stroke:none"
             id="path3393" />
        </g>
        <g
           id="g3395"
           transform="translate(273.9566,549.3219)">
          <path
             inkscape:connector-curvature="0"
             d="m 0,0 12.877,0 0,-11.496 c 0,-1.881 1.523,-3.404 3.402,-3.404 1.881,0 3.404,1.523 3.404,3.404 l 0,11.496 c 1.022,0 1.123,0.672 1.123,1.444 l 0,8.58 -10.761,5.263 -22.881,-0.007 -2.951,1.677 c -0.946,0.539 -2.149,0.205 -2.686,-0.74 -0.537,-0.945 -0.203,-2.148 0.742,-2.685 l 4.659,-2.674 0.002,-22.354 c 0,-1.881 1.521,-3.404 3.402,-3.404 1.879,0 3.402,1.523 3.402,3.404 l -0.002,8.758 6.164,-10.418 c 0.963,-1.613 3.051,-2.141 4.666,-1.18 1.614,0.965 2.143,3.055 1.18,4.668 L 0,0 z"
             style="fill:#ffffff;fill-opacity:1;fill-rule:nonzero;stroke:none"
             id="path3397" />
        </g>
        <g
           id="g3399"
           transform="translate(285.0557,566.9449)">
          <path
             inkscape:connector-curvature="0"
             d="m 0,0 9.682,-4.609 0,1.816 7.899,0.008 2.892,6.229 L 0,13.198 0,0 z"
             style="fill:#ffffff;fill-opacity:1;fill-rule:nonzero;stroke:none"
             id="path3401" />
        </g>
      </g>
    </g>
  </g>
</svg>
