<?xml version="1.0" encoding="UTF-8" standalone="no"?>
<!-- Created with Inkscape (http://www.inkscape.org/) -->

<svg
   xmlns:dc="http://purl.org/dc/elements/1.1/"
   xmlns:cc="http://creativecommons.org/ns#"
   xmlns:rdf="http://www.w3.org/1999/02/22-rdf-syntax-ns#"
   xmlns:svg="http://www.w3.org/2000/svg"
   xmlns="http://www.w3.org/2000/svg"
   xmlns:sodipodi="http://sodipodi.sourceforge.net/DTD/sodipodi-0.dtd"
   xmlns:inkscape="http://www.inkscape.org/namespaces/inkscape"
   width="90.624878"
   height="90.625"
   id="svg4654"
   version="1.1"
   inkscape:version="0.48.3.1 r9886"
   sodipodi:docname="New document 16">
  <defs
     id="defs4656">
    <clipPath
       clipPathUnits="userSpaceOnUse"
       id="clipPath3315">
      <path
         inkscape:connector-curvature="0"
         d="m 63,299.972 513,0 0,437.279 -513,0 0,-437.279 z"
         id="path3317" />
    </clipPath>
    <clipPath
       clipPathUnits="userSpaceOnUse"
       id="clipPath3303">
      <path
         inkscape:connector-curvature="0"
         d="m 67.111,299.972 504.778,0 0,437.278 -504.778,0 0,-437.278 z"
         id="path3305" />
    </clipPath>
    <clipPath
       clipPathUnits="userSpaceOnUse"
       id="clipPath3291">
      <path
         inkscape:connector-curvature="0"
         d="m 63,299.972 513,0 0,437.279 -513,0 0,-437.279 z"
         id="path3293" />
    </clipPath>
  </defs>
  <sodipodi:namedview
     id="base"
     pagecolor="#ffffff"
     bordercolor="#666666"
     borderopacity="1.0"
     inkscape:pageopacity="0.0"
     inkscape:pageshadow="2"
     inkscape:zoom="0.35"
     inkscape:cx="26.026725"
     inkscape:cy="79.597617"
     inkscape:document-units="px"
     inkscape:current-layer="layer1"
     showgrid="false"
     fit-margin-top="0"
     fit-margin-left="0"
     fit-margin-right="0"
     fit-margin-bottom="0"
     inkscape:window-width="451"
     inkscape:window-height="398"
     inkscape:window-x="25"
     inkscape:window-y="25"
     inkscape:window-maximized="0" />
  <metadata
     id="metadata4659">
    <rdf:RDF>
      <cc:Work
         rdf:about="">
        <dc:format>image/svg+xml</dc:format>
        <dc:type
           rdf:resource="http://purl.org/dc/dcmitype/StillImage" />
        <dc:title></dc:title>
      </cc:Work>
    </rdf:RDF>
  </metadata>
  <g
     inkscape:label="Layer 1"
     inkscape:groupmode="layer"
     id="layer1"
     transform="translate(-348.97327,-521.3348)">
    <g
       transform="matrix(1.25,0,0,-1.25,-275.2631,1415.3028)"
       id="g3287">
      <g
         id="g3289"
         clip-path="url(#clipPath3291)">
        <g
           id="g3295"
           transform="translate(505.6391,642.9244)">
          <path
             inkscape:connector-curvature="0"
             d="m 0,0 60,0 c 1.58,0 3.125,0.64 4.244,1.76 C 65.361,2.876 66,4.42 66,6 l 0,59.999 c 0,1.58 -0.639,3.124 -1.756,4.244 -1.119,1.116 -2.664,1.756 -4.244,1.756 l -60,0 c -1.578,0 -3.123,-0.64 -4.24,-1.756 C -5.36,69.123 -6,67.579 -6,65.999 L -6,6 C -6,3.943 -4.908,2 -3.176,0.896 -2.188,0.268 -1.143,0.12 0,0"
             style="fill:#ffffff;fill-opacity:1;fill-rule:nonzero;stroke:none"
             id="path3297" />
        </g>
      </g>
    </g>
    <g
       transform="matrix(1.25,0,0,-1.25,-275.2631,1415.3028)"
       id="g3299">
      <g
         id="g3301"
         clip-path="url(#clipPath3303)">
        <g
           id="g3307"
           transform="translate(505.6391,642.9244)">
          <path
             inkscape:connector-curvature="0"
             d="m 0,0 60,0 c 1.58,0 3.125,0.64 4.244,1.76 C 65.361,2.876 66,4.42 66,6 l 0,59.999 c 0,1.58 -0.639,3.124 -1.756,4.244 -1.119,1.116 -2.664,1.756 -4.244,1.756 l -60,0 c -1.578,0 -3.123,-0.64 -4.24,-1.756 C -5.36,69.123 -6,67.579 -6,65.999 L -6,6 C -6,3.943 -4.908,2 -3.176,0.896 -2.188,0.268 -1.143,0.12 0,0 z"
             style="fill:none;stroke:#231f20;stroke-width:0.5;stroke-linecap:butt;stroke-linejoin:miter;stroke-miterlimit:4;stroke-opacity:1;stroke-dasharray:none"
             id="path3309" />
        </g>
      </g>
    </g>
    <g
       transform="matrix(1.25,0,0,-1.25,-275.2631,1415.3028)"
       id="g3311">
      <g
         id="g3313"
         clip-path="url(#clipPath3315)">
        <g
           id="g3319"
           transform="translate(505.6391,644.4244)">
          <path
             inkscape:connector-curvature="0"
             d="M 0,0 C -0.893,0 -1.647,0.201 -2.369,0.66 -3.68,1.494 -4.5,2.967 -4.5,4.5 l 0,59.999 c 0,1.183 0.48,2.344 1.32,3.184 0.834,0.834 1.998,1.316 3.18,1.316 l 60,0 c 1.185,0 2.349,-0.479 3.183,-1.316 0.838,-0.834 1.317,-1.998 1.317,-3.184 L 64.5,4.5 C 64.5,3.318 64.017,2.154 63.183,1.32 62.344,0.479 61.183,0 60,0 L 0,0 z"
             style="fill:#713907;fill-opacity:1;fill-rule:evenodd;stroke:none"
             id="path3321" />
        </g>
        <g
           id="g3323"
           transform="translate(535.619,668.8575)">
          <path
             inkscape:connector-curvature="0"
             d="m 0,0 c -0.595,-0.225 -1.259,-0.348 -1.937,-0.348 -0.746,0 -1.473,0.084 -2.137,0.274 l -7.572,-17.399 c -0.701,-1.599 -2.608,-2.138 -4.262,-1.207 -1.652,0.928 -2.43,2.979 -1.73,4.578 l 9.289,21.286 11.836,0 0,1.986 5.982,2.787 c 1.574,0.76 3.609,-0.539 4.025,-2.207 L 16.43,-2.018 c 0.418,-1.67 -0.6,-3.359 -2.271,-3.775 -1.67,-0.42 -3.362,0.6 -3.78,2.266 L 8.506,3.975 0,0 z"
             style="fill:#ffffff;fill-opacity:1;fill-rule:nonzero;stroke:none"
             id="path3325" />
        </g>
        <g
           id="g3327"
           transform="translate(541.084,681.0509)">
          <path
             inkscape:connector-curvature="0"
             d="m 0,0 c 12.959,6.434 17.985,28.459 17.985,30.295 l -1.786,0 C 15.535,25.699 9.969,7.32 0,1.988 L 0,0 z"
             style="fill:#ffffff;fill-opacity:1;fill-rule:nonzero;stroke:none"
             id="path3329" />
        </g>
        <g
           id="g3331"
           transform="translate(517.156,685.8712)">
          <path
             inkscape:connector-curvature="0"
             d="m 0,0 c 0.678,-1.07 2.039,-1.531 3.25,-1.039 l 6.868,2.689 -0.004,-9.502 11.836,0 0.004,11.006 10.597,16.967 c 0.787,1.242 0.416,2.889 -0.824,3.676 -1.246,0.787 -2.893,0.416 -3.584,-0.791 L 19.135,8.59 13.704,8.568 C 13.356,8.574 13.004,8.51 12.663,8.371 L 3.28,4.699 -1.543,12.016 c -0.796,1.236 -2.447,1.595 -3.685,0.8 -1.236,-0.798 -1.594,-2.449 -0.799,-3.685 L 0,0 z"
             style="fill:#ffffff;fill-opacity:1;fill-rule:nonzero;stroke:none"
             id="path3333" />
        </g>
        <g
           id="g3335"
           transform="translate(532.381,695.4122)">
          <path
             inkscape:connector-curvature="0"
             d="M 0,0 C 2.604,0 4.715,2.109 4.715,4.713 4.715,7.314 2.604,9.426 0,9.426 -2.602,9.426 -4.715,7.314 -4.715,4.713 -4.715,2.109 -2.602,0 0,0"
             style="fill:#ffffff;fill-opacity:1;fill-rule:nonzero;stroke:none"
             id="path3337" />
        </g>
        <g
           id="g3339"
           transform="translate(539.1061,647.2833)">
          <path
             inkscape:connector-curvature="0"
             d="M 0,0 0,21.227 -1.989,20.297 -1.989,0 0,0 z"
             style="fill:#ffffff;fill-opacity:1;fill-rule:nonzero;stroke:none"
             id="path3341" />
        </g>
      </g>
    </g>
  </g>
</svg>
