<?xml version="1.0" encoding="UTF-8" standalone="no"?>
<!-- Created with Inkscape (http://www.inkscape.org/) -->

<svg
   xmlns:dc="http://purl.org/dc/elements/1.1/"
   xmlns:cc="http://creativecommons.org/ns#"
   xmlns:rdf="http://www.w3.org/1999/02/22-rdf-syntax-ns#"
   xmlns:svg="http://www.w3.org/2000/svg"
   xmlns="http://www.w3.org/2000/svg"
   xmlns:sodipodi="http://sodipodi.sourceforge.net/DTD/sodipodi-0.dtd"
   xmlns:inkscape="http://www.inkscape.org/namespaces/inkscape"
   width="90.624123"
   height="90.625"
   id="svg6188"
   version="1.1"
   inkscape:version="0.48.3.1 r9886"
   sodipodi:docname="New document 40">
  <defs
     id="defs6190">
    <clipPath
       clipPathUnits="userSpaceOnUse"
       id="clipPath3833">
      <path
         inkscape:connector-curvature="0"
         d="m 27,45 513,0 0,693 -513,0 0,-693 z"
         id="path3835" />
    </clipPath>
    <clipPath
       clipPathUnits="userSpaceOnUse"
       id="clipPath3821">
      <path
         inkscape:connector-curvature="0"
         d="m 31.095,173.447 504.811,0 0,563.803 -504.811,0 0,-563.803 z"
         id="path3823" />
    </clipPath>
    <clipPath
       clipPathUnits="userSpaceOnUse"
       id="clipPath3809">
      <path
         inkscape:connector-curvature="0"
         d="m 27,45 513,0 0,693 -513,0 0,-693 z"
         id="path3811" />
    </clipPath>
  </defs>
  <sodipodi:namedview
     id="base"
     pagecolor="#ffffff"
     bordercolor="#666666"
     borderopacity="1.0"
     inkscape:pageopacity="0.0"
     inkscape:pageshadow="2"
     inkscape:zoom="0.35"
     inkscape:cx="-42.545265"
     inkscape:cy="5.3118674"
     inkscape:document-units="px"
     inkscape:current-layer="layer1"
     showgrid="false"
     fit-margin-top="0"
     fit-margin-left="0"
     fit-margin-right="0"
     fit-margin-bottom="0"
     inkscape:window-width="451"
     inkscape:window-height="415"
     inkscape:window-x="25"
     inkscape:window-y="25"
     inkscape:window-maximized="0" />
  <metadata
     id="metadata6193">
    <rdf:RDF>
      <cc:Work
         rdf:about="">
        <dc:format>image/svg+xml</dc:format>
        <dc:type
           rdf:resource="http://purl.org/dc/dcmitype/StillImage" />
        <dc:title></dc:title>
      </cc:Work>
    </rdf:RDF>
  </metadata>
  <g
     inkscape:label="Layer 1"
     inkscape:groupmode="layer"
     id="layer1"
     transform="translate(-417.54526,-447.04905)">
    <g
       transform="matrix(1.25,0,0,-1.25,-161.71311,1074.4243)"
       id="g3805">
      <g
         id="g3807"
         clip-path="url(#clipPath3809)">
        <g
           id="g3813"
           transform="translate(469.6567,429.6502)">
          <path
             inkscape:connector-curvature="0"
             d="m 0,0 59.999,0 c 1.58,0 3.125,0.64 4.244,1.76 1.117,1.116 1.756,2.66 1.756,4.24 l 0,59.999 c 0,1.58 -0.639,3.124 -1.756,4.244 -1.119,1.116 -2.664,1.756 -4.244,1.756 L 0,71.999 c -1.58,0 -3.124,-0.64 -4.241,-1.756 C -5.36,69.123 -6,67.579 -6,65.999 L -6,6 C -6,3.943 -4.909,2 -3.176,0.895 -2.188,0.267 -1.144,0.12 0,0"
             style="fill:#ffffff;fill-opacity:1;fill-rule:nonzero;stroke:none"
             id="path3815" />
        </g>
      </g>
    </g>
    <g
       transform="matrix(1.25,0,0,-1.25,-161.71311,1074.4243)"
       id="g3817">
      <g
         id="g3819"
         clip-path="url(#clipPath3821)">
        <g
           id="g3825"
           transform="translate(469.6567,429.6502)">
          <path
             inkscape:connector-curvature="0"
             d="m 0,0 59.999,0 c 1.58,0 3.125,0.64 4.244,1.76 1.117,1.116 1.756,2.66 1.756,4.24 l 0,59.999 c 0,1.58 -0.639,3.124 -1.756,4.244 -1.119,1.116 -2.664,1.756 -4.244,1.756 L 0,71.999 c -1.58,0 -3.124,-0.64 -4.241,-1.756 C -5.36,69.123 -6,67.579 -6,65.999 L -6,6 C -6,3.943 -4.909,2 -3.176,0.895 -2.188,0.267 -1.144,0.12 0,0 z"
             style="fill:none;stroke:#231f20;stroke-width:0.5;stroke-linecap:butt;stroke-linejoin:miter;stroke-miterlimit:4;stroke-opacity:1;stroke-dasharray:none"
             id="path3827" />
        </g>
      </g>
    </g>
    <g
       transform="matrix(1.25,0,0,-1.25,-161.71311,1074.4243)"
       id="g3829">
      <g
         id="g3831"
         clip-path="url(#clipPath3833)">
        <g
           id="g3837"
           transform="translate(469.6567,431.1502)">
          <path
             inkscape:connector-curvature="0"
             d="M 0,0 C -0.894,0 -1.647,0.201 -2.371,0.66 -3.681,1.494 -4.5,2.967 -4.5,4.5 l 0,59.999 c 0,1.183 0.48,2.344 1.32,3.184 0.834,0.834 1.998,1.316 3.18,1.316 l 59.999,0 c 1.185,0 2.349,-0.48 3.183,-1.316 0.838,-0.834 1.317,-1.999 1.317,-3.184 l 0,-59.999 C 64.499,3.318 64.016,2.154 63.182,1.32 62.342,0.479 61.182,0 59.999,0 L 0,0 z"
             style="fill:#713907;fill-opacity:1;fill-rule:evenodd;stroke:none"
             id="path3839" />
        </g>
      </g>
    </g>
    <g
       id="g4225"
       transform="matrix(1.25,0,0,-1.25,461.57277,502.26281)">
      <path
         d="m 0,0 0,-10.969 c 0,0 0.383,-2.886 -3.24,-2.886 l -14.283,0 c -3.621,0 -3.24,2.886 -3.24,2.886 L -20.763,0 0,0 z"
         style="fill:#ffffff;fill-opacity:1;fill-rule:nonzero;stroke:none"
         id="path4227"
         inkscape:connector-curvature="0" />
    </g>
    <g
       id="g4229"
       transform="matrix(1.25,0,0,-1.25,453.35276,465.15281)">
      <path
         d="M 0,0 C -0.5,0.806 -1.393,1.341 -2.412,1.341 L -7.018,1.33 c -1.615,0 -2.925,-1.311 -2.925,-2.926 0,-0.569 0.16,-1.096 0.439,-1.545 l 0.035,-0.051 c 1.36,-1.924 2.155,-4.267 2.155,-6.799 0,-4.297 -2.293,-8.056 -5.725,-10.119 l -0.035,-0.023 c -0.66,-0.416 -1.102,-1.139 -1.102,-1.981 l 0,-3.486 20.772,0 0,12.795 c 0,0 0.023,1.18 -0.772,2.646 L 0,0 z"
         style="fill:#ffffff;fill-opacity:1;fill-rule:nonzero;stroke:none"
         id="path4231"
         inkscape:connector-curvature="0" />
    </g>
    <g
       id="g4233"
       transform="matrix(1.25,0,0,-1.25,472.24151,465.15281)">
      <path
         d="M 0,0 C 0.502,0.806 1.395,1.341 2.412,1.341 L 7.02,1.33 c 1.615,0 2.926,-1.311 2.926,-2.926 0,-0.569 -0.162,-1.096 -0.44,-1.545 L 9.469,-3.192 C 8.114,-5.116 7.317,-7.459 7.317,-9.991 c 0,-4.297 2.295,-8.056 5.724,-10.119 l 0.032,-0.023 c 0.666,-0.416 1.107,-1.139 1.107,-1.981 l 0,-3.486 -20.771,0 0,12.795 c 0,0 -0.028,1.18 0.769,2.646 L 0,0 z"
         style="fill:#ffffff;fill-opacity:1;fill-rule:nonzero;stroke:none"
         id="path4235"
         inkscape:connector-curvature="0" />
    </g>
    <g
       id="g4237"
       transform="matrix(1.25,0,0,-1.25,489.95151,502.26281)">
      <path
         d="m 0,0 0,-10.969 c 0,0 0.383,-2.886 -3.236,-2.886 l -14.287,0 c -3.619,0 -3.238,2.886 -3.238,2.886 L -20.761,0 0,0 z"
         style="fill:#ffffff;fill-opacity:1;fill-rule:nonzero;stroke:none"
         id="path4239"
         inkscape:connector-curvature="0" />
    </g>
    <g
       id="g4241"
       transform="matrix(1.25,0,0,-1.25,464.99402,500.99031)">
      <path
         d="M 0,0 C 0.541,0 0.978,0.437 0.978,0.976 0.978,1.517 0.541,1.955 0,1.955 l -3.319,0 c -0.541,0 -0.98,-0.438 -0.98,-0.979 C -4.299,0.437 -3.86,0 -3.319,0 L 0,0 z"
         style="fill:#ffffff;fill-opacity:1;fill-rule:nonzero;stroke:none"
         id="path4243"
         inkscape:connector-curvature="0" />
    </g>
  </g>
</svg>
