<?xml version="1.0" encoding="UTF-8" standalone="no"?>
<!-- Created with Inkscape (http://www.inkscape.org/) -->

<svg
   xmlns:dc="http://purl.org/dc/elements/1.1/"
   xmlns:cc="http://creativecommons.org/ns#"
   xmlns:rdf="http://www.w3.org/1999/02/22-rdf-syntax-ns#"
   xmlns:svg="http://www.w3.org/2000/svg"
   xmlns="http://www.w3.org/2000/svg"
   xmlns:sodipodi="http://sodipodi.sourceforge.net/DTD/sodipodi-0.dtd"
   xmlns:inkscape="http://www.inkscape.org/namespaces/inkscape"
   width="90.624374"
   height="90.625"
   id="svg6622"
   version="1.1"
   inkscape:version="0.48.3.1 r9886"
   sodipodi:docname="New document 48">
  <defs
     id="defs6624">
    <clipPath
       clipPathUnits="userSpaceOnUse"
       id="clipPath4065">
      <path
         inkscape:connector-curvature="0"
         d="m 27,32 511.888,0 0,459.994 L 27,491.994 27,32 z"
         id="path4067" />
    </clipPath>
    <clipPath
       clipPathUnits="userSpaceOnUse"
       id="clipPath4053">
      <path
         inkscape:connector-curvature="0"
         d="m 30.556,43.282 504.778,0 0,437.431 -504.778,0 0,-437.431 z"
         id="path4055" />
    </clipPath>
    <clipPath
       clipPathUnits="userSpaceOnUse"
       id="clipPath4041">
      <path
         inkscape:connector-curvature="0"
         d="m 27,32 511.888,0 0,459.994 L 27,491.994 27,32 z"
         id="path4043" />
    </clipPath>
  </defs>
  <sodipodi:namedview
     id="base"
     pagecolor="#ffffff"
     bordercolor="#666666"
     borderopacity="1.0"
     inkscape:pageopacity="0.0"
     inkscape:pageshadow="2"
     inkscape:zoom="0.35"
     inkscape:cx="45.31094"
     inkscape:cy="45.311872"
     inkscape:document-units="px"
     inkscape:current-layer="layer1"
     showgrid="false"
     fit-margin-top="0"
     fit-margin-left="0"
     fit-margin-right="0"
     fit-margin-bottom="0"
     inkscape:window-width="451"
     inkscape:window-height="398"
     inkscape:window-x="125"
     inkscape:window-y="125"
     inkscape:window-maximized="0" />
  <metadata
     id="metadata6627">
    <rdf:RDF>
      <cc:Work
         rdf:about="">
        <dc:format>image/svg+xml</dc:format>
        <dc:type
           rdf:resource="http://purl.org/dc/dcmitype/StillImage" />
        <dc:title></dc:title>
      </cc:Work>
    </rdf:RDF>
  </metadata>
  <g
     inkscape:label="Layer 1"
     inkscape:groupmode="layer"
     id="layer1"
     transform="translate(-329.68906,-487.04905)">
    <g
       transform="matrix(1.25,0,0,-1.25,291.49406,794.64468)"
       id="g4037">
      <g
         id="g4039"
         clip-path="url(#clipPath4041)">
        <g
           id="g4045"
           transform="translate(36.8055,173.8265)">
          <path
             inkscape:connector-curvature="0"
             d="m 0,0 59.998,0 c 1.58,0 3.125,0.64 4.244,1.76 1.117,1.116 1.756,2.66 1.756,4.24 l 0,59.999 c 0,1.58 -0.639,3.124 -1.756,4.244 -1.119,1.117 -2.664,1.756 -4.244,1.756 L 0,71.999 c -1.58,0 -3.125,-0.639 -4.24,-1.756 C -5.359,69.123 -6,67.579 -6,65.999 L -6,6 C -6,3.944 -4.908,2 -3.176,0.896 -2.187,0.268 -1.145,0.12 0,0"
             style="fill:#ffffff;fill-opacity:1;fill-rule:nonzero;stroke:none"
             id="path4047" />
        </g>
      </g>
    </g>
    <g
       transform="matrix(1.25,0,0,-1.25,291.49406,794.64468)"
       id="g4049">
      <g
         id="g4051"
         clip-path="url(#clipPath4053)">
        <g
           id="g4057"
           transform="translate(36.8055,173.8265)">
          <path
             inkscape:connector-curvature="0"
             d="m 0,0 59.998,0 c 1.58,0 3.125,0.64 4.244,1.76 1.117,1.116 1.756,2.66 1.756,4.24 l 0,59.999 c 0,1.58 -0.639,3.124 -1.756,4.244 -1.119,1.117 -2.664,1.756 -4.244,1.756 L 0,71.999 c -1.58,0 -3.125,-0.639 -4.24,-1.756 C -5.359,69.123 -6,67.579 -6,65.999 L -6,6 C -6,3.944 -4.908,2 -3.176,0.896 -2.187,0.268 -1.145,0.12 0,0 z"
             style="fill:none;stroke:#231f20;stroke-width:0.5;stroke-linecap:butt;stroke-linejoin:miter;stroke-miterlimit:4;stroke-opacity:1;stroke-dasharray:none"
             id="path4059" />
        </g>
      </g>
    </g>
    <g
       transform="matrix(1.25,0,0,-1.25,291.49406,794.64468)"
       id="g4061">
      <g
         id="g4063"
         clip-path="url(#clipPath4065)">
        <g
           id="g4069"
           transform="translate(36.8055,175.3265)">
          <path
             inkscape:connector-curvature="0"
             d="M 0,0 C -0.895,0 -1.646,0.201 -2.371,0.66 -3.682,1.494 -4.5,2.967 -4.5,4.5 l 0,59.999 c 0,1.183 0.48,2.344 1.32,3.184 0.834,0.834 1.998,1.316 3.18,1.316 l 59.998,0 c 1.186,0 2.35,-0.479 3.184,-1.316 0.838,-0.834 1.316,-1.998 1.316,-3.184 l 0,-59.999 C 64.498,3.319 64.016,2.155 63.182,1.321 62.342,0.48 61.182,0 59.998,0 L 0,0 z"
             style="fill:#713907;fill-opacity:1;fill-rule:evenodd;stroke:none"
             id="path4071" />
        </g>
        <g
           id="g4073"
           transform="translate(43.9012,185.4545)">
          <path
             inkscape:connector-curvature="0"
             d="m 0,0 50.025,0 0,5.193 -44.83,0 0,19.676 44.83,20.25 0,5.396 -55.605,-25.109 0,-5.397 L 0,22.509 0,0 z"
             style="fill:#ffffff;fill-opacity:1;fill-rule:nonzero;stroke:none"
             id="path4075" />
        </g>
        <g
           id="g4077"
           transform="translate(69.5321,201.7275)">
          <path
             inkscape:connector-curvature="0"
             d="m 0,0 7.871,0 0,-7.031 c 0,-1.149 0.932,-2.08 2.08,-2.08 1.15,0 2.08,0.931 2.08,2.08 l 0,7.031 c 0.625,0 0.688,0.408 0.688,0.879 l 0,5.246 -6.58,3.219 -13.985,-0.008 -1.804,1.029 c -0.579,0.328 -1.313,0.121 -1.641,-0.455 -0.328,-0.578 -0.125,-1.314 0.453,-1.638 l 2.848,-1.635 0,-13.668 c 0,-1.149 0.931,-2.08 2.08,-2.08 1.15,0 2.08,0.931 2.08,2.08 l -0.002,5.355 3.768,-6.369 C 0.525,-9.031 1.803,-9.353 2.789,-8.765 3.775,-8.176 4.1,-6.9 3.51,-5.912 L 0,0 z"
             style="fill:#ffffff;fill-opacity:1;fill-rule:nonzero;stroke:none"
             id="path4079" />
        </g>
        <g
           id="g4081"
           transform="translate(76.3172,212.4975)">
          <path
             inkscape:connector-curvature="0"
             d="m 0,0 5.918,-2.815 0,1.108 4.828,0.005 1.77,3.809 L 0,8.068 0,0 z"
             style="fill:#ffffff;fill-opacity:1;fill-rule:nonzero;stroke:none"
             id="path4083" />
        </g>
      </g>
    </g>
  </g>
</svg>
