<?xml version="1.0" encoding="UTF-8" standalone="no"?>
<!-- Created with Inkscape (http://www.inkscape.org/) -->

<svg
   xmlns:dc="http://purl.org/dc/elements/1.1/"
   xmlns:cc="http://creativecommons.org/ns#"
   xmlns:rdf="http://www.w3.org/1999/02/22-rdf-syntax-ns#"
   xmlns:svg="http://www.w3.org/2000/svg"
   xmlns="http://www.w3.org/2000/svg"
   xmlns:sodipodi="http://sodipodi.sourceforge.net/DTD/sodipodi-0.dtd"
   xmlns:inkscape="http://www.inkscape.org/namespaces/inkscape"
   width="90.625"
   height="90.625"
   id="svg5209"
   version="1.1"
   inkscape:version="0.48.3.1 r9886"
   sodipodi:docname="New document 27">
  <defs
     id="defs5211">
    <clipPath
       clipPathUnits="userSpaceOnUse"
       id="clipPath3443">
      <path
         inkscape:connector-curvature="0"
         d="m 63,178.034 513,0 0,559.966 -513,0 0,-559.966 z"
         id="path3445" />
    </clipPath>
  </defs>
  <sodipodi:namedview
     id="base"
     pagecolor="#ffffff"
     bordercolor="#666666"
     borderopacity="1.0"
     inkscape:pageopacity="0.0"
     inkscape:pageshadow="2"
     inkscape:zoom="0.35"
     inkscape:cx="45.3125"
     inkscape:cy="45.312542"
     inkscape:document-units="px"
     inkscape:current-layer="layer1"
     showgrid="false"
     fit-margin-top="0"
     fit-margin-left="0"
     fit-margin-right="0"
     fit-margin-bottom="0"
     inkscape:window-width="451"
     inkscape:window-height="398"
     inkscape:window-x="25"
     inkscape:window-y="25"
     inkscape:window-maximized="0" />
  <metadata
     id="metadata5214">
    <rdf:RDF>
      <cc:Work
         rdf:about="">
        <dc:format>image/svg+xml</dc:format>
        <dc:type
           rdf:resource="http://purl.org/dc/dcmitype/StillImage" />
        <dc:title></dc:title>
      </cc:Work>
    </rdf:RDF>
  </metadata>
  <g
     inkscape:label="Layer 1"
     inkscape:groupmode="layer"
     id="layer1"
     transform="translate(-329.6875,-487.04972)">
    <g
       transform="matrix(1.25,0,0,-1.25,-187.59575,1231.5546)"
       id="g3439">
      <g
         id="g3441"
         clip-path="url(#clipPath3443)">
        <g
           id="g3447"
           transform="translate(420.0766,523.3539)">
          <path
             inkscape:connector-curvature="0"
             d="m 0,0 60,0 c 1.581,0 3.125,0.64 4.245,1.76 C 65.362,2.876 66,4.42 66,6 l 0,60 c 0,1.58 -0.638,3.124 -1.755,4.244 C 63.125,71.36 61.581,72 60,72 L 0,72 C -1.578,72 -3.123,71.36 -4.24,70.244 -5.359,69.124 -6,67.58 -6,66 L -6,6 C -6,3.944 -4.908,2 -3.175,0.896 -2.187,0.268 -1.142,0.121 0,0"
             style="fill:#ffffff;fill-opacity:1;fill-rule:nonzero;stroke:none"
             id="path3449" />
        </g>
        <g
           id="g3451"
           transform="translate(420.0766,523.3539)">
          <path
             inkscape:connector-curvature="0"
             d="m 0,0 60,0 c 1.581,0 3.125,0.64 4.245,1.76 C 65.362,2.876 66,4.42 66,6 l 0,60 c 0,1.58 -0.638,3.124 -1.755,4.244 C 63.125,71.36 61.581,72 60,72 L 0,72 C -1.578,72 -3.123,71.36 -4.24,70.244 -5.359,69.124 -6,67.58 -6,66 L -6,6 C -6,3.944 -4.908,2 -3.175,0.896 -2.187,0.268 -1.142,0.121 0,0 z"
             style="fill:none;stroke:#231f20;stroke-width:0.5;stroke-linecap:butt;stroke-linejoin:miter;stroke-miterlimit:4;stroke-opacity:1;stroke-dasharray:none"
             id="path3453" />
        </g>
        <g
           id="g3455"
           transform="translate(420.0766,524.8539)">
          <path
             inkscape:connector-curvature="0"
             d="M 0,0 C -0.892,0 -1.646,0.202 -2.369,0.661 -3.679,1.495 -4.5,2.967 -4.5,4.5 l 0,60 c 0,1.182 0.481,2.343 1.321,3.183 C -2.345,68.517 -1.181,69 0,69 l 60,0 c 1.186,0 2.35,-0.48 3.184,-1.317 C 64.022,66.849 64.5,65.685 64.5,64.5 l 0,-60 C 64.5,3.319 64.018,2.155 63.184,1.321 62.344,0.48 61.184,0 60,0 L 0,0 z"
             style="fill:#713907;fill-opacity:1;fill-rule:evenodd;stroke:none"
             id="path3457" />
        </g>
        <g
           id="g3459"
           transform="translate(426.5437,582.9859)">
          <path
             inkscape:connector-curvature="0"
             d="m 0,0 19.002,0 0,-1.985 -1.982,0 0,-2.179 L 0,-5.774 0,0 z"
             style="fill:#ffffff;fill-opacity:1;fill-rule:nonzero;stroke:none"
             id="path3461" />
        </g>
        <g
           id="g3463"
           transform="translate(452.6947,577.0719)">
          <path
             inkscape:connector-curvature="0"
             d="M 0,0 C 2.603,0 4.714,2.109 4.714,4.715 4.714,7.316 2.603,9.428 0,9.428 -2.602,9.428 -4.713,7.316 -4.713,4.715 -4.713,2.109 -2.602,0 0,0"
             style="fill:#ffffff;fill-opacity:1;fill-rule:nonzero;stroke:none"
             id="path3465" />
        </g>
        <g
           id="g3467"
           transform="translate(456.2707,577.3389)">
          <path
             inkscape:connector-curvature="0"
             d="M 0,0 C 1.344,1.342 3.517,1.342 4.861,0 L 15.06,-10.177 c 0.387,-0.387 0.627,-0.922 0.627,-1.512 l 0,-30.537 c 0,-2.102 -1.703,-3.805 -3.804,-3.805 -2.1,0 -3.828,1.703 -3.828,3.805 l 0.003,25.191 -9.5,9.502 -3.795,-3.791 c -0.427,-0.519 -1.08,-0.853 -1.808,-0.853 -0.688,0 -1.307,0.295 -1.734,0.769 l -6.536,6.551 c -0.834,0.994 -0.775,2.498 0.217,3.332 0.992,0.832 2.461,0.689 3.295,-0.301 L -6.828,-6.812 0,0 z"
             style="fill:#ffffff;fill-opacity:1;fill-rule:nonzero;stroke:none"
             id="path3469" />
        </g>
        <g
           id="g3471"
           transform="translate(437.8716,575.8959)">
          <path
             inkscape:connector-curvature="0"
             d="m 0,0 c -0.091,0.451 -0.492,0.791 -0.972,0.791 -0.489,0 -0.893,-0.352 -0.975,-0.816 l -1.58,-9.094 -0.012,-35.233 13.451,0 0,4.997 -8.255,0 L 1.608,-9.119 0,0 z"
             style="fill:#ffffff;fill-opacity:1;fill-rule:nonzero;stroke:none"
             id="path3473" />
        </g>
      </g>
    </g>
  </g>
</svg>
