<?xml version="1.0" encoding="UTF-8" standalone="no"?>
<!-- Created with Inkscape (http://www.inkscape.org/) -->

<svg
   xmlns:dc="http://purl.org/dc/elements/1.1/"
   xmlns:cc="http://creativecommons.org/ns#"
   xmlns:rdf="http://www.w3.org/1999/02/22-rdf-syntax-ns#"
   xmlns:svg="http://www.w3.org/2000/svg"
   xmlns="http://www.w3.org/2000/svg"
   xmlns:sodipodi="http://sodipodi.sourceforge.net/DTD/sodipodi-0.dtd"
   xmlns:inkscape="http://www.inkscape.org/namespaces/inkscape"
   width="90.625"
   height="90.625"
   id="svg4369"
   version="1.1"
   inkscape:version="0.48.3.1 r9886"
   sodipodi:docname="New document 8">
  <defs
     id="defs4371">
    <clipPath
       clipPathUnits="userSpaceOnUse"
       id="clipPath3159">
      <path
         inkscape:connector-curvature="0"
         d="m 63,299.972 513,0 0,437.279 -513,0 0,-437.279 z"
         id="path3161" />
    </clipPath>
  </defs>
  <sodipodi:namedview
     id="base"
     pagecolor="#ffffff"
     bordercolor="#666666"
     borderopacity="1.0"
     inkscape:pageopacity="0.0"
     inkscape:pageshadow="2"
     inkscape:zoom="0.35"
     inkscape:cx="45.31125"
     inkscape:cy="45.311917"
     inkscape:document-units="px"
     inkscape:current-layer="layer1"
     showgrid="false"
     fit-margin-top="0"
     fit-margin-left="0"
     fit-margin-right="0"
     fit-margin-bottom="0"
     inkscape:window-width="451"
     inkscape:window-height="398"
     inkscape:window-x="25"
     inkscape:window-y="25"
     inkscape:window-maximized="0" />
  <metadata
     id="metadata4374">
    <rdf:RDF>
      <cc:Work
         rdf:about="">
        <dc:format>image/svg+xml</dc:format>
        <dc:type
           rdf:resource="http://purl.org/dc/dcmitype/StillImage" />
        <dc:title></dc:title>
      </cc:Work>
    </rdf:RDF>
  </metadata>
  <g
     inkscape:label="Layer 1"
     inkscape:groupmode="layer"
     id="layer1"
     transform="translate(-329.68875,-487.0491)">
    <g
       transform="matrix(1.25,0,0,-1.25,29.66,1381.0171)"
       id="g3155">
      <g
         id="g3157"
         clip-path="url(#clipPath3159)">
        <g
           id="g3163"
           transform="translate(246.273,642.9244)">
          <path
             inkscape:connector-curvature="0"
             d="m 0,0 59.998,0 c 1.58,0 3.125,0.64 4.244,1.76 1.117,1.116 1.756,2.66 1.756,4.24 l 0,59.999 c 0,1.58 -0.639,3.124 -1.756,4.244 -1.119,1.116 -2.664,1.756 -4.244,1.756 L 0,71.999 c -1.58,0 -3.125,-0.64 -4.24,-1.756 C -5.359,69.123 -6,67.579 -6,65.999 L -6,6 C -6,3.943 -4.908,2 -3.176,0.896 -2.187,0.268 -1.144,0.12 0,0"
             style="fill:#ffffff;fill-opacity:1;fill-rule:nonzero;stroke:none"
             id="path3165" />
        </g>
        <g
           id="g3167"
           transform="translate(246.273,642.9244)">
          <path
             inkscape:connector-curvature="0"
             d="m 0,0 59.998,0 c 1.58,0 3.125,0.64 4.244,1.76 1.117,1.116 1.756,2.66 1.756,4.24 l 0,59.999 c 0,1.58 -0.639,3.124 -1.756,4.244 -1.119,1.116 -2.664,1.756 -4.244,1.756 L 0,71.999 c -1.58,0 -3.125,-0.64 -4.24,-1.756 C -5.359,69.123 -6,67.579 -6,65.999 L -6,6 C -6,3.943 -4.908,2 -3.176,0.896 -2.187,0.268 -1.144,0.12 0,0 z"
             style="fill:none;stroke:#231f20;stroke-width:0.5;stroke-linecap:butt;stroke-linejoin:miter;stroke-miterlimit:4;stroke-opacity:1;stroke-dasharray:none"
             id="path3169" />
        </g>
        <g
           id="g3171"
           transform="translate(246.273,644.4244)">
          <path
             inkscape:connector-curvature="0"
             d="M 0,0 C -0.894,0 -1.646,0.201 -2.371,0.66 -3.682,1.494 -4.5,2.967 -4.5,4.5 l 0,59.999 c 0,1.183 0.481,2.344 1.32,3.184 0.834,0.834 1.998,1.316 3.18,1.316 l 59.998,0 c 1.186,0 2.35,-0.479 3.184,-1.316 0.838,-0.834 1.316,-1.998 1.316,-3.184 l 0,-59.999 C 64.498,3.318 64.016,2.154 63.182,1.32 62.342,0.479 61.182,0 59.998,0 L 0,0 z"
             style="fill:#713907;fill-opacity:1;fill-rule:evenodd;stroke:none"
             id="path3173" />
        </g>
        <g
           id="g3175"
           transform="translate(277.0601,699.4727)">
          <path
             inkscape:connector-curvature="0"
             d="M 0,0 C 2.606,0 4.715,2.109 4.715,4.715 4.715,7.316 2.606,9.428 0,9.428 -2.603,9.428 -4.715,7.316 -4.715,4.715 -4.715,2.109 -2.603,0 0,0"
             style="fill:#ffffff;fill-opacity:1;fill-rule:nonzero;stroke:none"
             id="path3177" />
        </g>
        <g
           id="g3179"
           transform="translate(269.808,698.6934)">
          <path
             inkscape:connector-curvature="0"
             d="M 0,0 C 0.178,0.721 -0.269,1.449 -0.992,1.625 L -4.918,2.572 C -5.642,2.748 -6.369,2.303 -6.543,1.58 L -9.84,-12.074 c -0.175,-0.723 0.272,-1.451 0.993,-1.625 l 3.929,-0.949 c 0.723,-0.174 1.45,0.271 1.627,0.994 L 0,0 z"
             style="fill:#ffffff;fill-opacity:1;fill-rule:nonzero;stroke:none"
             id="path3181" />
        </g>
        <g
           id="g3183"
           transform="translate(286.1501,650.1193)">
          <path
             inkscape:connector-curvature="0"
             d="m 0,0 c 0,-0.025 -0.006,-0.049 -0.006,-0.072 0,-0.596 0.487,-1.078 1.076,-1.078 0.549,0 1.006,0.412 1.073,0.945 l 7.916,42.896 c 0.004,0.024 0.004,0.049 0.004,0.071 0,0.597 -0.481,1.08 -1.077,1.08 -0.548,0 -0.966,-0.426 -1.068,-0.947 L 0,0 z"
             style="fill:#ffffff;fill-opacity:1;fill-rule:nonzero;stroke:none"
             id="path3185" />
        </g>
        <g
           id="g3187"
           transform="translate(260.924,652.9298)">
          <path
             inkscape:connector-curvature="0"
             d="m 0,0 c -0.047,-0.215 -0.069,-0.439 -0.069,-0.666 0,-1.83 1.483,-3.314 3.315,-3.314 1.502,0 2.773,1.001 3.177,2.376 l 5.7,23.563 5.419,-23.43 c 0.36,-1.441 1.659,-2.509 3.213,-2.509 1.832,0 3.313,1.484 3.313,3.314 0,0.25 -0.029,0.492 -0.08,0.725 l -7.442,31.134 0.625,2.743 0.481,-2.166 c 0.457,-1.405 1.736,-1.538 1.736,-1.538 l 7.674,-1.955 c 0.146,-0.031 0.299,-0.047 0.455,-0.047 1.254,0 2.268,1.014 2.268,2.268 0,1.072 -0.741,1.969 -1.741,2.207 l -6.638,1.666 -1.828,7.404 c -0.866,4.139 -4.813,4.041 -4.813,4.041 -3.846,0.098 -4.808,-3.943 -4.808,-3.943 L 0,0 z"
             style="fill:#ffffff;fill-opacity:1;fill-rule:nonzero;stroke:none"
             id="path3189" />
        </g>
      </g>
    </g>
  </g>
</svg>
