<?xml version="1.0" encoding="UTF-8" standalone="no"?>
<!-- Created with Inkscape (http://www.inkscape.org/) -->

<svg
   xmlns:dc="http://purl.org/dc/elements/1.1/"
   xmlns:cc="http://creativecommons.org/ns#"
   xmlns:rdf="http://www.w3.org/1999/02/22-rdf-syntax-ns#"
   xmlns:svg="http://www.w3.org/2000/svg"
   xmlns="http://www.w3.org/2000/svg"
   xmlns:sodipodi="http://sodipodi.sourceforge.net/DTD/sodipodi-0.dtd"
   xmlns:inkscape="http://www.inkscape.org/namespaces/inkscape"
   width="90.625"
   height="90.625"
   id="svg5000"
   version="1.1"
   inkscape:version="0.48.3.1 r9886"
   sodipodi:docname="New document 23">
  <defs
     id="defs5002">
    <clipPath
       clipPathUnits="userSpaceOnUse"
       id="clipPath3453">
      <path
         inkscape:connector-curvature="0"
         d="m 63,299.972 513,0 0,437.279 -513,0 0,-437.279 z"
         id="path3455" />
    </clipPath>
  </defs>
  <sodipodi:namedview
     id="base"
     pagecolor="#ffffff"
     bordercolor="#666666"
     borderopacity="1.0"
     inkscape:pageopacity="0.0"
     inkscape:pageshadow="2"
     inkscape:zoom="0.35"
     inkscape:cx="45.31125"
     inkscape:cy="45.311917"
     inkscape:document-units="px"
     inkscape:current-layer="layer1"
     showgrid="false"
     fit-margin-top="0"
     fit-margin-left="0"
     fit-margin-right="0"
     fit-margin-bottom="0"
     inkscape:window-width="451"
     inkscape:window-height="398"
     inkscape:window-x="25"
     inkscape:window-y="25"
     inkscape:window-maximized="0" />
  <metadata
     id="metadata5005">
    <rdf:RDF>
      <cc:Work
         rdf:about="">
        <dc:format>image/svg+xml</dc:format>
        <dc:type
           rdf:resource="http://purl.org/dc/dcmitype/StillImage" />
        <dc:title></dc:title>
      </cc:Work>
    </rdf:RDF>
  </metadata>
  <g
     inkscape:label="Layer 1"
     inkscape:groupmode="layer"
     id="layer1"
     transform="translate(-329.68875,-487.0491)">
    <g
       transform="matrix(1.25,0,0,-1.25,29.66,1248.2136)"
       id="g3449">
      <g
         id="g3451"
         clip-path="url(#clipPath3453)">
        <g
           id="g3457"
           transform="translate(246.273,536.6816)">
          <path
             inkscape:connector-curvature="0"
             d="m 0,0 59.998,0 c 1.58,0 3.125,0.64 4.244,1.76 1.117,1.116 1.756,2.66 1.756,4.24 l 0,59.999 c 0,1.58 -0.639,3.124 -1.756,4.244 -1.119,1.117 -2.664,1.756 -4.244,1.756 L 0,71.999 c -1.58,0 -3.125,-0.639 -4.24,-1.756 C -5.359,69.123 -6,67.579 -6,65.999 L -6,6 C -6,3.943 -4.908,2 -3.176,0.896 -2.187,0.268 -1.144,0.12 0,0"
             style="fill:#ffffff;fill-opacity:1;fill-rule:nonzero;stroke:none"
             id="path3459" />
        </g>
        <g
           id="g3461"
           transform="translate(246.273,536.6816)">
          <path
             inkscape:connector-curvature="0"
             d="m 0,0 59.998,0 c 1.58,0 3.125,0.64 4.244,1.76 1.117,1.116 1.756,2.66 1.756,4.24 l 0,59.999 c 0,1.58 -0.639,3.124 -1.756,4.244 -1.119,1.117 -2.664,1.756 -4.244,1.756 L 0,71.999 c -1.58,0 -3.125,-0.639 -4.24,-1.756 C -5.359,69.123 -6,67.579 -6,65.999 L -6,6 C -6,3.943 -4.908,2 -3.176,0.896 -2.187,0.268 -1.144,0.12 0,0 z"
             style="fill:none;stroke:#231f20;stroke-width:0.5;stroke-linecap:butt;stroke-linejoin:miter;stroke-miterlimit:4;stroke-opacity:1;stroke-dasharray:none"
             id="path3463" />
        </g>
        <g
           id="g3465"
           transform="translate(246.273,538.1816)">
          <path
             inkscape:connector-curvature="0"
             d="M 0,0 C -0.894,0 -1.646,0.201 -2.371,0.66 -3.682,1.494 -4.5,2.967 -4.5,4.5 l 0,59.999 c 0,1.183 0.481,2.344 1.32,3.184 0.834,0.834 1.998,1.316 3.18,1.316 l 59.998,0 c 1.186,0 2.35,-0.479 3.184,-1.316 0.838,-0.834 1.316,-1.998 1.316,-3.184 l 0,-59.999 C 64.498,3.318 64.016,2.154 63.182,1.32 62.342,0.48 61.182,0 59.998,0 L 0,0 z"
             style="fill:#713907;fill-opacity:1;fill-rule:evenodd;stroke:none"
             id="path3467" />
        </g>
        <g
           id="g3469"
           transform="translate(286.968,593.3446)">
          <path
             inkscape:connector-curvature="0"
             d="m 0,0 c 0,-2.609 -2.115,-4.722 -4.724,-4.722 -1.6,0 -3.014,0.796 -3.867,2.017 l 1.49,-0.002 c 0.992,0 1.853,0.58 2.26,1.42 l 0.636,1.371 C -4.169,0.18 -4.078,0.25 -3.97,0.25 L 0,0.25 0,0 z"
             style="fill:#ffffff;fill-opacity:1;fill-rule:nonzero;stroke:none"
             id="path3471" />
        </g>
        <g
           id="g3473"
           transform="translate(287.871,594.7957)">
          <path
             inkscape:connector-curvature="0"
             d="m 0,0 c -0.641,2.508 -2.918,4.358 -5.627,4.358 -3.207,0 -5.807,-2.6 -5.807,-5.809 0,-0.523 0.067,-1.033 0.197,-1.515 l 3.233,0.003 c 0.519,0 0.973,0.305 1.183,0.745 l 0.625,1.367 C -5.969,-0.349 -5.461,0 -4.873,0 L 0,0 z"
             style="fill:#ffffff;fill-opacity:1;fill-rule:nonzero;stroke:none"
             id="path3475" />
        </g>
        <g
           id="g3477"
           transform="translate(271.1541,590.5946)">
          <path
             inkscape:connector-curvature="0"
             d="m 0,0 c 0.576,0.471 0.664,1.319 0.195,1.895 l -2.55,3.135 c -0.467,0.578 -1.321,0.662 -1.897,0.197 l -10.893,-8.865 c -0.58,-0.471 -0.666,-1.319 -0.197,-1.895 l 2.551,-3.135 c 0.471,-0.578 1.316,-0.662 1.894,-0.195 L 0,0 z"
             style="fill:#ffffff;fill-opacity:1;fill-rule:nonzero;stroke:none"
             id="path3479" />
        </g>
        <g
           id="g3481"
           transform="translate(260.3961,578.0636)">
          <path
             inkscape:connector-curvature="0"
             d="m 0,0 c -0.617,-0.469 -1.148,-1.068 -1.558,-1.785 -0.383,-0.678 -0.625,-1.399 -0.727,-2.127 l -3.104,-13.377 -8.562,-8.234 c -0.234,-0.221 -0.443,-0.479 -0.607,-0.774 -0.901,-1.574 -0.352,-3.58 1.224,-4.476 1.272,-0.727 2.826,-0.506 3.848,0.431 l 9.515,9.199 c 0.143,0.164 0.272,0.346 0.387,0.539 0.141,0.248 0.244,0.504 0.317,0.764 l 1.939,8.479 6.369,-6.346 -0.017,-10.709 c 0.005,-1.137 0.599,-2.24 1.658,-2.844 1.576,-0.896 3.582,-0.347 4.48,1.227 0.317,0.56 0.451,1.17 0.426,1.769 l 0.01,11.899 c 0.027,0.849 -0.276,1.683 -0.858,2.322 l -6.865,6.773 7.897,6.473 1.814,-5.053 c 0.16,-0.334 0.389,-0.632 0.688,-0.875 l 7.539,-5.718 c 1.023,-0.621 2.381,-0.465 3.232,0.445 0.977,1.045 0.92,2.682 -0.123,3.658 -0.035,0.033 -0.066,0.061 -0.103,0.092 l -6.608,5.055 -3.055,8.976 C 18.666,6.959 17.797,7.992 16.602,8.67 14.567,9.832 12.135,9.658 10.319,8.437 L 0,0 z"
             style="fill:#ffffff;fill-opacity:1;fill-rule:nonzero;stroke:none"
             id="path3483" />
        </g>
        <g
           id="g3485"
           transform="translate(289.666,594.7476)">
          <path
             inkscape:connector-curvature="0"
             d="m 0,0 c -0.213,0.197 -0.346,0.48 -0.346,0.794 0,0.602 0.488,1.092 1.088,1.092 L 17.088,1.871 c 1.646,-0.004 2.671,-4.688 1.552,-8.356 -1.049,-3.424 -4.142,-7.812 -5.613,-6.33 L 0,0 z"
             style="fill:#ffffff;fill-opacity:1;fill-rule:nonzero;stroke:none"
             id="path3487" />
        </g>
      </g>
    </g>
  </g>
</svg>
