<?xml version="1.0" encoding="UTF-8" standalone="no"?>
<!-- Created with Inkscape (http://www.inkscape.org/) -->

<svg
   xmlns:dc="http://purl.org/dc/elements/1.1/"
   xmlns:cc="http://creativecommons.org/ns#"
   xmlns:rdf="http://www.w3.org/1999/02/22-rdf-syntax-ns#"
   xmlns:svg="http://www.w3.org/2000/svg"
   xmlns="http://www.w3.org/2000/svg"
   xmlns:sodipodi="http://sodipodi.sourceforge.net/DTD/sodipodi-0.dtd"
   xmlns:inkscape="http://www.inkscape.org/namespaces/inkscape"
   width="90.625"
   height="90.625"
   id="svg6141"
   version="1.1"
   inkscape:version="0.48.3.1 r9886"
   sodipodi:docname="New document 38">
  <defs
     id="defs6143">
    <clipPath
       clipPathUnits="userSpaceOnUse"
       id="clipPath3731">
      <path
         inkscape:connector-curvature="0"
         d="m 27,32 511.888,0 0,459.994 L 27,491.994 27,32 z"
         id="path3733" />
    </clipPath>
  </defs>
  <sodipodi:namedview
     id="base"
     pagecolor="#ffffff"
     bordercolor="#666666"
     borderopacity="1.0"
     inkscape:pageopacity="0.0"
     inkscape:pageshadow="2"
     inkscape:zoom="0.35"
     inkscape:cx="45.31187"
     inkscape:cy="45.311872"
     inkscape:document-units="px"
     inkscape:current-layer="layer1"
     showgrid="false"
     fit-margin-top="0"
     fit-margin-left="0"
     fit-margin-right="0"
     fit-margin-bottom="0"
     inkscape:window-width="451"
     inkscape:window-height="398"
     inkscape:window-x="75"
     inkscape:window-y="75"
     inkscape:window-maximized="0" />
  <metadata
     id="metadata6146">
    <rdf:RDF>
      <cc:Work
         rdf:about="">
        <dc:format>image/svg+xml</dc:format>
        <dc:type
           rdf:resource="http://purl.org/dc/dcmitype/StillImage" />
        <dc:title></dc:title>
      </cc:Work>
    </rdf:RDF>
  </metadata>
  <g
     inkscape:label="Layer 1"
     inkscape:groupmode="layer"
     id="layer1"
     transform="translate(-329.68813,-487.04905)">
    <g
       transform="matrix(1.25,0,0,-1.25,183.42363,927.50468)"
       id="g3727">
      <g
         id="g3729"
         clip-path="url(#clipPath3731)">
        <g
           id="g3735"
           transform="translate(123.2616,280.1145)">
          <path
             inkscape:connector-curvature="0"
             d="m 0,0 59.999,0 c 1.58,0 3.125,0.64 4.244,1.76 1.117,1.116 1.756,2.66 1.756,4.24 l 0,59.999 c 0,1.58 -0.639,3.124 -1.756,4.245 -1.119,1.116 -2.664,1.755 -4.244,1.755 L 0,71.999 c -1.579,0 -3.124,-0.639 -4.24,-1.755 C -5.359,69.123 -6,67.579 -6,65.999 L -6,6 C -6,3.944 -4.908,2 -3.176,0.896 -2.188,0.268 -1.144,0.12 0,0"
             style="fill:#ffffff;fill-opacity:1;fill-rule:nonzero;stroke:none"
             id="path3737" />
        </g>
        <g
           id="g3739"
           transform="translate(123.2616,280.1145)">
          <path
             inkscape:connector-curvature="0"
             d="m 0,0 59.999,0 c 1.58,0 3.125,0.64 4.244,1.76 1.117,1.116 1.756,2.66 1.756,4.24 l 0,59.999 c 0,1.58 -0.639,3.124 -1.756,4.245 -1.119,1.116 -2.664,1.755 -4.244,1.755 L 0,71.999 c -1.579,0 -3.124,-0.639 -4.24,-1.755 C -5.359,69.123 -6,67.579 -6,65.999 L -6,6 C -6,3.944 -4.908,2 -3.176,0.896 -2.188,0.268 -1.144,0.12 0,0 z"
             style="fill:none;stroke:#231f20;stroke-width:0.5;stroke-linecap:butt;stroke-linejoin:miter;stroke-miterlimit:4;stroke-opacity:1;stroke-dasharray:none"
             id="path3741" />
        </g>
        <g
           id="g3743"
           transform="translate(123.2616,281.6145)">
          <path
             inkscape:connector-curvature="0"
             d="M 0,0 C -0.894,0 -1.646,0.202 -2.37,0.66 -3.681,1.494 -4.5,2.967 -4.5,4.5 l 0,59.999 c 0,1.183 0.48,2.344 1.32,3.184 0.834,0.834 1.998,1.316 3.18,1.316 l 59.999,0 c 1.186,0 2.35,-0.479 3.184,-1.316 0.838,-0.834 1.316,-1.998 1.316,-3.184 l 0,-59.999 C 64.499,3.319 64.017,2.155 63.183,1.321 62.343,0.48 61.183,0 59.999,0 L 0,0 z"
             style="fill:#713907;fill-opacity:1;fill-rule:evenodd;stroke:none"
             id="path3745" />
        </g>
        <g
           id="g3747"
           transform="translate(154.9025,314.0525)">
          <path
             inkscape:connector-curvature="0"
             d="m 0,0 c 3.869,0 7.007,3.139 7.007,7.008 0,3.869 -3.138,7.008 -7.007,7.008 -3.869,0 -7.006,-3.139 -7.006,-7.008 C -7.006,3.139 -3.869,0 0,0"
             style="fill:#ffffff;fill-opacity:1;fill-rule:nonzero;stroke:none"
             id="path3749" />
        </g>
        <g
           id="g3751"
           transform="translate(145.3705,311.8225)">
          <path
             inkscape:connector-curvature="0"
             d="m 0,0 c 0.748,0.711 1.764,1.15 2.879,1.15 l 13.807,0.004 13.902,13.93 c 2.973,2.998 6.869,-0.889 3.889,-3.879 l -15.234,-15.289 0.005,-19.967 -18.279,0 0,9.236 -8.26,-0.003 c -1.722,0 -3.119,1.396 -3.119,3.119 0,0.734 0.254,1.41 0.68,1.941 L 0,0 z m 2.936,-14.793 c 0,-0.748 0.603,-1.369 1.365,-1.369 l 0.004,0.004 3.225,0 0.006,-0.004 c 0.759,0 1.378,0.603 1.378,1.351 l 0,5.965 c 0,0.746 -0.619,1.352 -1.378,1.352 l -3.235,0 c -0.715,0 -1.291,-0.549 -1.361,-1.233 4.652,0.004 4.623,-6.06 -0.004,-6.066"
             style="fill:#ffffff;fill-opacity:1;fill-rule:nonzero;stroke:none"
             id="path3753" />
        </g>
        <g
           id="g3755"
           transform="translate(127.283,338.5625)">
          <path
             inkscape:connector-curvature="0"
             d="M 0,0 1.406,-1.406 7.034,4.221 5.626,5.627 3.27,5.178 1.863,6.584 -0.957,3.764 0.447,2.359 0,0 z"
             style="fill:#ffffff;fill-opacity:1;fill-rule:nonzero;stroke:none"
             id="path3757" />
        </g>
        <g
           id="g3759"
           transform="translate(133.2815,337.0725)">
          <path
             inkscape:connector-curvature="0"
             d="m 0,0 c 0.646,0 1.17,0.523 1.17,1.168 0,0.646 -0.524,1.17 -1.17,1.17 -0.647,0 -1.168,-0.524 -1.168,-1.17 C -1.168,0.523 -0.647,0 0,0"
             style="fill:#ffffff;fill-opacity:1;fill-rule:nonzero;stroke:none"
             id="path3761" />
        </g>
        <g
           id="g3763"
           transform="translate(132.5075,336.1425)">
          <path
             inkscape:connector-curvature="0"
             d="m 0,0 c -0.094,-0.64 -0.685,-1.084 -1.324,-0.992 -0.639,0.096 -1.082,0.686 -0.988,1.326 0.091,0.641 0.683,1.082 1.324,0.992 C -0.349,1.233 0.092,0.639 0,0"
             style="fill:#ffffff;fill-opacity:1;fill-rule:nonzero;stroke:none"
             id="path3765" />
        </g>
        <g
           id="g3767"
           transform="translate(139.4785,313.9725)">
          <path
             inkscape:connector-curvature="0"
             d="m 0,0 c -0.092,-0.636 0.351,-1.232 0.99,-1.324 0.639,-0.094 1.233,0.35 1.324,0.988 C 2.406,0.307 1.963,0.899 1.324,0.989 0.685,1.086 0.092,0.639 0,0"
             style="fill:#ffffff;fill-opacity:1;fill-rule:nonzero;stroke:none"
             id="path3769" />
        </g>
        <g
           id="g3771"
           transform="translate(137.5385,318.6775)">
          <path
             inkscape:connector-curvature="0"
             d="m 0,0 c -0.093,-0.636 0.35,-1.232 0.989,-1.326 0.64,-0.09 1.232,0.354 1.324,0.99 C 2.407,0.307 1.965,0.897 1.325,0.991 0.686,1.082 0.092,0.639 0,0"
             style="fill:#ffffff;fill-opacity:1;fill-rule:nonzero;stroke:none"
             id="path3773" />
        </g>
        <g
           id="g3775"
           transform="translate(135.8555,322.8635)">
          <path
             inkscape:connector-curvature="0"
             d="m 0,0 c -0.092,-0.637 0.351,-1.233 0.99,-1.326 0.639,-0.09 1.232,0.353 1.324,0.992 C 2.408,0.303 1.965,0.898 1.324,0.99 0.687,1.08 0.094,0.639 0,0"
             style="fill:#ffffff;fill-opacity:1;fill-rule:nonzero;stroke:none"
             id="path3777" />
        </g>
        <g
           id="g3779"
           transform="translate(134.2695,326.7465)">
          <path
             inkscape:connector-curvature="0"
             d="m 0,0 c -0.094,-0.639 0.349,-1.233 0.988,-1.325 0.639,-0.093 1.231,0.35 1.324,0.989 C 2.406,0.304 1.963,0.894 1.324,0.988 0.683,1.084 0.092,0.638 0,0"
             style="fill:#ffffff;fill-opacity:1;fill-rule:nonzero;stroke:none"
             id="path3781" />
        </g>
        <g
           id="g3783"
           transform="translate(132.7735,330.3265)">
          <path
             inkscape:connector-curvature="0"
             d="m 0,0 c -0.092,-0.637 0.351,-1.233 0.99,-1.326 0.639,-0.09 1.232,0.353 1.324,0.992 C 2.408,0.304 1.965,0.896 1.326,0.99 0.685,1.08 0.094,0.64 0,0"
             style="fill:#ffffff;fill-opacity:1;fill-rule:nonzero;stroke:none"
             id="path3785" />
        </g>
        <g
           id="g3787"
           transform="translate(131.3745,333.6035)">
          <path
             inkscape:connector-curvature="0"
             d="m 0,0 c -0.091,-0.637 0.352,-1.23 0.991,-1.322 0.638,-0.094 1.23,0.349 1.324,0.988 C 2.407,0.307 1.963,0.897 1.325,0.992 0.686,1.086 0.094,0.643 0,0"
             style="fill:#ffffff;fill-opacity:1;fill-rule:nonzero;stroke:none"
             id="path3789" />
        </g>
        <g
           id="g3791"
           transform="translate(135.4065,339.0395)">
          <path
             inkscape:connector-curvature="0"
             d="M 0,0 C 0.636,0.091 1.08,0.685 0.988,1.324 0.896,1.966 0.302,2.41 -0.336,2.316 -0.975,2.222 -1.418,1.629 -1.327,0.988 -1.233,0.349 -0.641,-0.094 0,0"
             style="fill:#ffffff;fill-opacity:1;fill-rule:nonzero;stroke:none"
             id="path3793" />
        </g>
        <g
           id="g3795"
           transform="translate(144.9955,319.2385)">
          <path
             inkscape:connector-curvature="0"
             d="M 0,0 C 0.639,-0.045 1.12,-0.602 1.073,-1.238 1.028,-1.879 0.471,-2.359 -0.168,-2.313 -0.806,-2.268 -1.287,-1.711 -1.24,-1.072 -1.195,-0.434 -0.638,0.047 0,0"
             style="fill:#ffffff;fill-opacity:1;fill-rule:nonzero;stroke:none"
             id="path3797" />
        </g>
        <g
           id="g3799"
           transform="translate(157.5745,332.0705)">
          <path
             inkscape:connector-curvature="0"
             d="m 0,0 c 0.638,0.09 1.23,-0.352 1.324,-0.99 0.094,-0.641 -0.35,-1.231 -0.99,-1.326 -0.639,-0.092 -1.233,0.351 -1.325,0.99 C -1.082,-0.688 -0.639,-0.094 0,0"
             style="fill:#ffffff;fill-opacity:1;fill-rule:nonzero;stroke:none"
             id="path3801" />
        </g>
        <g
           id="g3803"
           transform="translate(142.3635,323.2545)">
          <path
             inkscape:connector-curvature="0"
             d="M 0,0 C 0.64,-0.047 1.121,-0.602 1.076,-1.243 1.029,-1.879 0.472,-2.362 -0.166,-2.317 -0.805,-2.27 -1.286,-1.713 -1.239,-1.075 -1.194,-0.436 -0.637,0.046 0,0"
             style="fill:#ffffff;fill-opacity:1;fill-rule:nonzero;stroke:none"
             id="path3805" />
        </g>
        <g
           id="g3807"
           transform="translate(145.8655,326.8395)">
          <path
             inkscape:connector-curvature="0"
             d="M 0,0 C 0.64,0 1.158,-0.519 1.158,-1.156 1.158,-1.798 0.64,-2.314 0,-2.314 c -0.639,0 -1.157,0.516 -1.157,1.158 C -1.157,-0.519 -0.639,0 0,0"
             style="fill:#ffffff;fill-opacity:1;fill-rule:nonzero;stroke:none"
             id="path3809" />
        </g>
        <g
           id="g3811"
           transform="translate(149.3675,330.4235)">
          <path
             inkscape:connector-curvature="0"
             d="M 0,0 C 0.64,0.045 1.195,-0.435 1.242,-1.072 1.287,-1.712 0.806,-2.267 0.167,-2.314 -0.471,-2.363 -1.026,-1.878 -1.075,-1.242 -1.12,-0.601 -0.639,-0.046 0,0"
             style="fill:#ffffff;fill-opacity:1;fill-rule:nonzero;stroke:none"
             id="path3813" />
        </g>
        <g
           id="g3815"
           transform="translate(152.8685,334.0095)">
          <path
             inkscape:connector-curvature="0"
             d="m 0,0 c 0.639,0.09 1.233,-0.353 1.325,-0.99 0.093,-0.637 -0.35,-1.232 -0.989,-1.326 -0.64,-0.09 -1.234,0.352 -1.324,0.99 C -1.082,-0.687 -0.638,-0.093 0,0"
             style="fill:#ffffff;fill-opacity:1;fill-rule:nonzero;stroke:none"
             id="path3817" />
        </g>
        <g
           id="g3819"
           transform="translate(140.0565,326.8125)">
          <path
             inkscape:connector-curvature="0"
             d="M 0,0 C 0.639,-0.045 1.119,-0.601 1.074,-1.242 1.025,-1.881 0.473,-2.359 -0.168,-2.314 -0.807,-2.267 -1.287,-1.713 -1.242,-1.072 -1.193,-0.433 -0.639,0.047 0,0"
             style="fill:#ffffff;fill-opacity:1;fill-rule:nonzero;stroke:none"
             id="path3821" />
        </g>
        <g
           id="g3823"
           transform="translate(142.9335,329.7735)">
          <path
             inkscape:connector-curvature="0"
             d="m 0,0 c 0.639,0 1.156,-0.519 1.156,-1.156 0,-0.643 -0.517,-1.16 -1.156,-1.16 -0.639,0 -1.158,0.517 -1.158,1.16 C -1.158,-0.519 -0.639,0 0,0"
             style="fill:#ffffff;fill-opacity:1;fill-rule:nonzero;stroke:none"
             id="path3825" />
        </g>
        <g
           id="g3827"
           transform="translate(145.8085,332.7325)">
          <path
             inkscape:connector-curvature="0"
             d="M 0,0 C 0.639,0.047 1.195,-0.436 1.24,-1.072 1.287,-1.715 0.807,-2.27 0.166,-2.312 -0.473,-2.359 -1.027,-1.883 -1.074,-1.242 -1.119,-0.603 -0.639,-0.047 0,0"
             style="fill:#ffffff;fill-opacity:1;fill-rule:nonzero;stroke:none"
             id="path3829" />
        </g>
        <g
           id="g3831"
           transform="translate(148.6835,335.6915)">
          <path
             inkscape:connector-curvature="0"
             d="M 0,0 C 0.641,0.092 1.232,-0.35 1.324,-0.992 1.418,-1.629 0.975,-2.223 0.336,-2.312 -0.303,-2.406 -0.897,-1.963 -0.988,-1.326 -1.082,-0.684 -0.639,-0.094 0,0"
             style="fill:#ffffff;fill-opacity:1;fill-rule:nonzero;stroke:none"
             id="path3833" />
        </g>
        <g
           id="g3835"
           transform="translate(137.8945,330.1195)">
          <path
             inkscape:connector-curvature="0"
             d="M 0,0 C 0.64,-0.043 1.119,-0.6 1.074,-1.237 1.027,-1.879 0.473,-2.36 -0.168,-2.313 -0.807,-2.268 -1.287,-1.709 -1.24,-1.073 -1.193,-0.43 -0.639,0.047 0,0"
             style="fill:#ffffff;fill-opacity:1;fill-rule:nonzero;stroke:none"
             id="path3837" />
        </g>
        <g
           id="g3839"
           transform="translate(140.1975,332.5075)">
          <path
             inkscape:connector-curvature="0"
             d="m 0,0 c 0.638,0 1.156,-0.517 1.156,-1.158 0,-0.637 -0.518,-1.156 -1.156,-1.156 -0.639,0 -1.159,0.519 -1.159,1.156 C -1.159,-0.517 -0.639,0 0,0"
             style="fill:#ffffff;fill-opacity:1;fill-rule:nonzero;stroke:none"
             id="path3841" />
        </g>
        <g
           id="g3843"
           transform="translate(142.4995,334.8925)">
          <path
             inkscape:connector-curvature="0"
             d="M 0,0 C 0.639,0.047 1.196,-0.433 1.241,-1.072 1.285,-1.713 0.805,-2.265 0.166,-2.312 -0.472,-2.359 -1.027,-1.877 -1.074,-1.24 -1.121,-0.603 -0.64,-0.043 0,0"
             style="fill:#ffffff;fill-opacity:1;fill-rule:nonzero;stroke:none"
             id="path3845" />
        </g>
        <g
           id="g3847"
           transform="translate(144.8025,337.2815)">
          <path
             inkscape:connector-curvature="0"
             d="M 0,0 C 0.639,0.09 1.231,-0.352 1.324,-0.99 1.416,-1.631 0.973,-2.223 0.334,-2.317 -0.305,-2.408 -0.898,-1.965 -0.99,-1.326 -1.082,-0.688 -0.641,-0.096 0,0"
             style="fill:#ffffff;fill-opacity:1;fill-rule:nonzero;stroke:none"
             id="path3849" />
        </g>
        <g
           id="g3851"
           transform="translate(135.8785,333.1795)">
          <path
             inkscape:connector-curvature="0"
             d="M 0,0 C 0.641,-0.047 1.119,-0.599 1.074,-1.24 1.028,-1.879 0.473,-2.359 -0.166,-2.312 -0.804,-2.267 -1.285,-1.711 -1.24,-1.074 -1.193,-0.433 -0.638,0.047 0,0"
             style="fill:#ffffff;fill-opacity:1;fill-rule:nonzero;stroke:none"
             id="path3853" />
        </g>
        <g
           id="g3855"
           transform="translate(137.6595,335.0435)">
          <path
             inkscape:connector-curvature="0"
             d="m 0,0 c 0.639,0 1.157,-0.516 1.157,-1.157 0,-0.638 -0.518,-1.154 -1.157,-1.154 -0.638,0 -1.158,0.516 -1.158,1.154 C -1.158,-0.516 -0.638,0 0,0"
             style="fill:#ffffff;fill-opacity:1;fill-rule:nonzero;stroke:none"
             id="path3857" />
        </g>
        <g
           id="g3859"
           transform="translate(139.4415,336.9065)">
          <path
             inkscape:connector-curvature="0"
             d="M 0,0 C 0.638,0.051 1.193,-0.43 1.24,-1.072 1.287,-1.711 0.806,-2.266 0.166,-2.311 -0.473,-2.36 -1.03,-1.877 -1.074,-1.24 -1.121,-0.6 -0.639,-0.041 0,0"
             style="fill:#ffffff;fill-opacity:1;fill-rule:nonzero;stroke:none"
             id="path3861" />
        </g>
        <g
           id="g3863"
           transform="translate(141.2205,338.7735)">
          <path
             inkscape:connector-curvature="0"
             d="M 0,0 C 0.639,0.092 1.232,-0.352 1.324,-0.988 1.416,-1.631 0.975,-2.221 0.336,-2.314 -0.305,-2.406 -0.896,-1.963 -0.99,-1.326 -1.082,-0.687 -0.639,-0.094 0,0"
             style="fill:#ffffff;fill-opacity:1;fill-rule:nonzero;stroke:none"
             id="path3865" />
        </g>
        <g
           id="g3867"
           transform="translate(134.4475,336.4535)">
          <path
             inkscape:connector-curvature="0"
             d="M 0,0 C 0.638,-0.032 1.132,-0.574 1.101,-1.213 1.07,-1.852 0.529,-2.346 -0.112,-2.315 -0.752,-2.283 -1.245,-1.739 -1.213,-1.1 -1.182,-0.463 -0.639,0.031 0,0"
             style="fill:#ffffff;fill-opacity:1;fill-rule:nonzero;stroke:none"
             id="path3869" />
        </g>
        <g
           id="g3871"
           transform="translate(136.1955,338.3125)">
          <path
             inkscape:connector-curvature="0"
             d="M 0,0 C 0.638,0.029 1.181,-0.463 1.213,-1.1 1.244,-1.738 0.75,-2.283 0.111,-2.312 -0.528,-2.346 -1.071,-1.853 -1.102,-1.211 -1.131,-0.574 -0.639,-0.029 0,0"
             style="fill:#ffffff;fill-opacity:1;fill-rule:nonzero;stroke:none"
             id="path3873" />
        </g>
        <g
           id="g3875"
           transform="translate(137.9415,340.1715)">
          <path
             inkscape:connector-curvature="0"
             d="M 0,0 C 0.64,0.094 1.232,-0.349 1.326,-0.99 1.418,-1.63 0.974,-2.222 0.336,-2.312 -0.303,-2.408 -0.897,-1.964 -0.989,-1.326 -1.08,-0.685 -0.637,-0.089 0,0"
             style="fill:#ffffff;fill-opacity:1;fill-rule:nonzero;stroke:none"
             id="path3877" />
        </g>
        <g
           id="g3879"
           transform="translate(162.4335,330.0135)">
          <path
             inkscape:connector-curvature="0"
             d="M 0,0 C 0.641,0.094 1.232,-0.349 1.324,-0.988 1.418,-1.627 0.975,-2.22 0.334,-2.312 -0.305,-2.406 -0.897,-1.963 -0.988,-1.32 -1.082,-0.683 -0.639,-0.093 0,0"
             style="fill:#ffffff;fill-opacity:1;fill-rule:nonzero;stroke:none"
             id="path3881" />
        </g>
      </g>
    </g>
  </g>
</svg>
