<?xml version="1.0" encoding="UTF-8" standalone="no"?>
<!-- Created with Inkscape (http://www.inkscape.org/) -->

<svg
   xmlns:dc="http://purl.org/dc/elements/1.1/"
   xmlns:cc="http://creativecommons.org/ns#"
   xmlns:rdf="http://www.w3.org/1999/02/22-rdf-syntax-ns#"
   xmlns:svg="http://www.w3.org/2000/svg"
   xmlns="http://www.w3.org/2000/svg"
   xmlns:sodipodi="http://sodipodi.sourceforge.net/DTD/sodipodi-0.dtd"
   xmlns:inkscape="http://www.inkscape.org/namespaces/inkscape"
   width="90.625"
   height="90.625"
   id="svg4844"
   version="1.1"
   inkscape:version="0.48.3.1 r9886"
   sodipodi:docname="New document 19">
  <defs
     id="defs4846">
    <clipPath
       clipPathUnits="userSpaceOnUse"
       id="clipPath3411">
      <path
         inkscape:connector-curvature="0"
         d="m 63,299.972 513,0 0,437.279 -513,0 0,-437.279 z"
         id="path3413" />
    </clipPath>
  </defs>
  <sodipodi:namedview
     id="base"
     pagecolor="#ffffff"
     bordercolor="#666666"
     borderopacity="1.0"
     inkscape:pageopacity="0.0"
     inkscape:pageshadow="2"
     inkscape:zoom="0.35"
     inkscape:cx="45.31125"
     inkscape:cy="45.311917"
     inkscape:document-units="px"
     inkscape:current-layer="layer1"
     showgrid="false"
     fit-margin-top="0"
     fit-margin-left="0"
     fit-margin-right="0"
     fit-margin-bottom="0"
     inkscape:window-width="451"
     inkscape:window-height="398"
     inkscape:window-x="75"
     inkscape:window-y="75"
     inkscape:window-maximized="0" />
  <metadata
     id="metadata4849">
    <rdf:RDF>
      <cc:Work
         rdf:about="">
        <dc:format>image/svg+xml</dc:format>
        <dc:type
           rdf:resource="http://purl.org/dc/dcmitype/StillImage" />
        <dc:title></dc:title>
      </cc:Work>
    </rdf:RDF>
  </metadata>
  <g
     inkscape:label="Layer 1"
     inkscape:groupmode="layer"
     id="layer1"
     transform="translate(-329.68875,-487.0491)">
    <g
       transform="matrix(1.25,0,0,-1.25,137.72925,1248.2136)"
       id="g3407">
      <g
         id="g3409"
         clip-path="url(#clipPath3411)">
        <g
           id="g3415"
           transform="translate(159.8176,536.6816)">
          <path
             inkscape:connector-curvature="0"
             d="m 0,0 59.998,0 c 1.581,0 3.125,0.64 4.244,1.76 1.117,1.116 1.756,2.66 1.756,4.24 l 0,59.999 c 0,1.58 -0.639,3.124 -1.756,4.244 -1.119,1.117 -2.663,1.756 -4.244,1.756 L 0,71.999 c -1.58,0 -3.125,-0.639 -4.24,-1.756 C -5.359,69.123 -6,67.579 -6,65.999 L -6,6 C -6,3.943 -4.908,2 -3.176,0.896 -2.188,0.268 -1.145,0.12 0,0"
             style="fill:#ffffff;fill-opacity:1;fill-rule:nonzero;stroke:none"
             id="path3417" />
        </g>
        <g
           id="g3419"
           transform="translate(159.8176,536.6816)">
          <path
             inkscape:connector-curvature="0"
             d="m 0,0 59.998,0 c 1.581,0 3.125,0.64 4.244,1.76 1.117,1.116 1.756,2.66 1.756,4.24 l 0,59.999 c 0,1.58 -0.639,3.124 -1.756,4.244 -1.119,1.117 -2.663,1.756 -4.244,1.756 L 0,71.999 c -1.58,0 -3.125,-0.639 -4.24,-1.756 C -5.359,69.123 -6,67.579 -6,65.999 L -6,6 C -6,3.943 -4.908,2 -3.176,0.896 -2.188,0.268 -1.145,0.12 0,0 z"
             style="fill:none;stroke:#231f20;stroke-width:0.5;stroke-linecap:butt;stroke-linejoin:miter;stroke-miterlimit:4;stroke-opacity:1;stroke-dasharray:none"
             id="path3421" />
        </g>
        <g
           id="g3423"
           transform="translate(159.8176,538.1816)">
          <path
             inkscape:connector-curvature="0"
             d="M 0,0 C -0.895,0 -1.646,0.201 -2.371,0.66 -3.682,1.494 -4.5,2.967 -4.5,4.5 l 0,59.999 c 0,1.183 0.48,2.344 1.32,3.184 0.834,0.834 1.998,1.316 3.18,1.316 l 59.998,0 c 1.185,0 2.349,-0.479 3.183,-1.316 0.838,-0.834 1.317,-1.998 1.317,-3.184 l 0,-59.999 C 64.498,3.318 64.015,2.154 63.181,1.32 62.341,0.48 61.181,0 59.998,0 L 0,0 z"
             style="fill:#713907;fill-opacity:1;fill-rule:evenodd;stroke:none"
             id="path3425" />
        </g>
        <g
           id="g3427"
           transform="translate(198.923,562.5977)">
          <path
             inkscape:connector-curvature="0"
             d="M 0,0 2.742,-2.326 7.525,3.311 1.887,8.094 -0.461,5.324 0,0 z"
             style="fill:#ffffff;fill-opacity:1;fill-rule:nonzero;stroke:none"
             id="path3429" />
        </g>
        <g
           id="g3431"
           transform="translate(214.659,558.9987)">
          <path
             inkscape:connector-curvature="0"
             d="m 0,0 -10.621,0.017 -0.013,-10.824 7.23,-0.012 L 0,-7.145 0,0 z"
             style="fill:#ffffff;fill-opacity:1;fill-rule:nonzero;stroke:none"
             id="path3433" />
        </g>
        <g
           id="g3435"
           transform="translate(195.47,547.6136)">
          <path
             inkscape:connector-curvature="0"
             d="M 0,0 3.59,1.068 0.367,11.879 -7.309,9.59 -8.795,3.136 0,0 z"
             style="fill:#ffffff;fill-opacity:1;fill-rule:nonzero;stroke:none"
             id="path3437" />
        </g>
        <g
           id="g3439"
           transform="translate(188.081,594.9586)">
          <path
             inkscape:connector-curvature="0"
             d="m 0,0 c -8.304,4.868 -12.672,5.032 -20.215,5.899 l -0.281,-1.42 c 9.365,-2.174 11.75,-4.367 18.19,-8.277 l 0.888,-4.262 -21.273,-35.049 c -0.217,-0.416 -0.34,-0.887 -0.35,-1.387 -0.027,-1.73 1.35,-3.152 3.08,-3.179 1.137,-0.016 2.143,0.574 2.705,1.472 l 20.959,34.252 8.516,-5.453 4.385,7.229 L 0,0 z"
             style="fill:#ffffff;fill-opacity:1;fill-rule:nonzero;stroke:none"
             id="path3441" />
        </g>
      </g>
    </g>
  </g>
</svg>
