<?xml version="1.0" encoding="UTF-8" standalone="no"?>
<!-- Created with Inkscape (http://www.inkscape.org/) -->

<svg
   xmlns:dc="http://purl.org/dc/elements/1.1/"
   xmlns:cc="http://creativecommons.org/ns#"
   xmlns:rdf="http://www.w3.org/1999/02/22-rdf-syntax-ns#"
   xmlns:svg="http://www.w3.org/2000/svg"
   xmlns="http://www.w3.org/2000/svg"
   xmlns:sodipodi="http://sodipodi.sourceforge.net/DTD/sodipodi-0.dtd"
   xmlns:inkscape="http://www.inkscape.org/namespaces/inkscape"
   width="90.625"
   height="90.625"
   id="svg4206"
   version="1.1"
   inkscape:version="0.48.3.1 r9886"
   sodipodi:docname="New document 12">
  <defs
     id="defs4208" />
  <sodipodi:namedview
     id="base"
     pagecolor="#ffffff"
     bordercolor="#666666"
     borderopacity="1.0"
     inkscape:pageopacity="0.0"
     inkscape:pageshadow="2"
     inkscape:zoom="0.35"
     inkscape:cx="-33.97447"
     inkscape:cy="-14.688123"
     inkscape:document-units="px"
     inkscape:current-layer="layer1"
     showgrid="false"
     fit-margin-top="0"
     fit-margin-left="0"
     fit-margin-right="0"
     fit-margin-bottom="0"
     inkscape:window-width="451"
     inkscape:window-height="415"
     inkscape:window-x="125"
     inkscape:window-y="125"
     inkscape:window-maximized="0" />
  <metadata
     id="metadata4211">
    <rdf:RDF>
      <cc:Work
         rdf:about="">
        <dc:format>image/svg+xml</dc:format>
        <dc:type
           rdf:resource="http://purl.org/dc/dcmitype/StillImage" />
        <dc:title></dc:title>
      </cc:Work>
    </rdf:RDF>
  </metadata>
  <g
     inkscape:label="Layer 1"
     inkscape:groupmode="layer"
     id="layer1"
     transform="translate(-408.97447,-427.04906)">
    <g
       id="g3453"
       transform="matrix(1.25,0,0,-1.25,416.78697,517.36156)">
      <path
         d="m 0,0 59.998,0 c 1.58,0 3.125,0.64 4.244,1.76 1.117,1.116 1.756,2.66 1.756,4.24 l 0,59.999 c 0,1.58 -0.639,3.124 -1.756,4.244 -1.119,1.116 -2.664,1.756 -4.244,1.756 L 0,71.999 c -1.58,0 -3.125,-0.64 -4.24,-1.756 C -5.359,69.123 -6,67.579 -6,65.999 L -6,6 C -6,3.943 -4.908,2 -3.176,0.896 -2.187,0.268 -1.145,0.12 0,0"
         style="fill:#ffffff;fill-opacity:1;fill-rule:nonzero;stroke:none"
         id="path3455"
         inkscape:connector-curvature="0" />
    </g>
    <g
       id="g3457"
       transform="matrix(1.25,0,0,-1.25,416.78697,517.36156)">
      <path
         d="m 0,0 59.998,0 c 1.58,0 3.125,0.64 4.244,1.76 1.117,1.116 1.756,2.66 1.756,4.24 l 0,59.999 c 0,1.58 -0.639,3.124 -1.756,4.244 -1.119,1.116 -2.664,1.756 -4.244,1.756 L 0,71.999 c -1.58,0 -3.125,-0.64 -4.24,-1.756 C -5.359,69.123 -6,67.579 -6,65.999 L -6,6 C -6,3.943 -4.908,2 -3.176,0.896 -2.187,0.268 -1.145,0.12 0,0 z"
         style="fill:none;stroke:#231f20;stroke-width:0.5;stroke-linecap:butt;stroke-linejoin:miter;stroke-miterlimit:4;stroke-opacity:1;stroke-dasharray:none"
         id="path3459"
         inkscape:connector-curvature="0" />
    </g>
    <g
       id="g3461"
       transform="matrix(1.25,0,0,-1.25,416.78697,515.48656)">
      <path
         d="M 0,0 C -0.895,0 -1.646,0.201 -2.371,0.66 -3.682,1.494 -4.5,2.967 -4.5,4.5 l 0,59.999 c 0,1.183 0.48,2.344 1.32,3.184 0.834,0.834 1.998,1.316 3.18,1.316 l 59.998,0 c 1.186,0 2.35,-0.479 3.184,-1.316 0.838,-0.834 1.316,-1.998 1.316,-3.184 l 0,-59.999 C 64.498,3.318 64.016,2.154 63.182,1.32 62.342,0.479 61.182,0 59.998,0 L 0,0 z"
         style="fill:#713907;fill-opacity:1;fill-rule:evenodd;stroke:none"
         id="path3463"
         inkscape:connector-curvature="0" />
    </g>
    <g
       id="g3551"
       transform="matrix(1.25,0,0,-1.25,476.43946,450.18631)">
      <path
         d="M 0,0 C 2.603,0 4.715,2.115 4.715,4.715 4.715,7.318 2.603,9.43 0,9.43 -2.602,9.43 -4.715,7.318 -4.715,4.715 -4.715,2.115 -2.602,0 0,0"
         style="fill:#ffffff;fill-opacity:1;fill-rule:nonzero;stroke:none"
         id="path3553"
         inkscape:connector-curvature="0" />
    </g>
    <g
       id="g3555"
       transform="matrix(1.25,0,0,-1.25,459.70821,500.43531)">
      <path
         d="m 0,0 12.17,0 c 0,0 0.916,-0.096 0.916,0.867 l 0,0.961 1.803,0 c 0,0 0.408,-3.295 -2.043,-3.605 L 0,-1.777 0,0 z"
         style="fill:#ffffff;fill-opacity:1;fill-rule:nonzero;stroke:none"
         id="path3557"
         inkscape:connector-curvature="0" />
    </g>
    <g
       id="g3559"
       transform="matrix(1.25,0,0,-1.25,421.74946,488.66281)">
      <path
         d="m 0,0 8.607,-8.607 c 0,0 0.576,-0.713 1.256,-0.034 l 0.682,0.682 1.273,-1.275 c 0,0 -2.041,-2.62 -3.994,-1.108 L -1.258,-1.26 0,0 z"
         style="fill:#ffffff;fill-opacity:1;fill-rule:nonzero;stroke:none"
         id="path3561"
         inkscape:connector-curvature="0" />
    </g>
    <g
       id="g3563"
       transform="matrix(1.25,0,0,-1.25,463.28446,484.92256)">
      <path
         d="m 0,0 0.012,-8.533 c 0,-1.606 1.301,-2.907 2.906,-2.907 1.471,0 2.905,1.702 2.905,2.907 l 0,11.877 c 0,0.824 -0.348,1.574 -0.905,2.101 l -6.969,6.95 9.249,9.244 c 1.73,2.166 0.814,4.761 0.814,4.761 -0.957,2.887 -4.229,2.989 -4.229,2.989 l -23.814,0.004 c -1.273,0 -2.303,-1.03 -2.303,-2.301 0,-1.276 1.03,-2.303 2.303,-2.303 l 16.443,-0.023 -6.921,-6.893 c -0.989,-1.014 -1.497,-2.156 -1.497,-3.646 0,-1.432 0.577,-2.713 1.522,-3.647 L 0,0 z"
         style="fill:#ffffff;fill-opacity:1;fill-rule:nonzero;stroke:none"
         id="path3565"
         inkscape:connector-curvature="0" />
    </g>
    <g
       id="g3567"
       transform="matrix(1.25,0,0,-1.25,448.32822,473.32344)">
      <path
         d="m 0,0 c -0.212,0.215 -0.412,0.447 -0.591,0.688 l -13.75,-13.768 c -1.036,-0.834 -1.379,-2.303 -0.752,-3.531 0.718,-1.407 2.441,-1.961 3.847,-1.241 0.194,0.102 0.373,0.219 0.534,0.35 L 3.393,-3.371 0,0 z"
         style="fill:#ffffff;fill-opacity:1;fill-rule:nonzero;stroke:none"
         id="path3569"
         inkscape:connector-curvature="0" />
    </g>
  </g>
</svg>
