<?xml version="1.0" encoding="UTF-8" standalone="no"?>
<!-- Created with Inkscape (http://www.inkscape.org/) -->

<svg
   xmlns:dc="http://purl.org/dc/elements/1.1/"
   xmlns:cc="http://creativecommons.org/ns#"
   xmlns:rdf="http://www.w3.org/1999/02/22-rdf-syntax-ns#"
   xmlns:svg="http://www.w3.org/2000/svg"
   xmlns="http://www.w3.org/2000/svg"
   xmlns:sodipodi="http://sodipodi.sourceforge.net/DTD/sodipodi-0.dtd"
   xmlns:inkscape="http://www.inkscape.org/namespaces/inkscape"
   width="90.624496"
   height="90.625"
   id="svg4357"
   version="1.1"
   inkscape:version="0.48.3.1 r9886"
   sodipodi:docname="New document 5">
  <defs
     id="defs4359">
    <clipPath
       clipPathUnits="userSpaceOnUse"
       id="clipPath3055">
      <path
         inkscape:connector-curvature="0"
         d="m 63,178.034 513,0 0,559.966 -513,0 0,-559.966 z"
         id="path3057" />
    </clipPath>
    <clipPath
       clipPathUnits="userSpaceOnUse"
       id="clipPath3043">
      <path
         inkscape:connector-curvature="0"
         d="m 67.055,180.004 504.891,0 0,557.996 -504.891,0 0,-557.996 z"
         id="path3045" />
    </clipPath>
    <clipPath
       clipPathUnits="userSpaceOnUse"
       id="clipPath3031">
      <path
         inkscape:connector-curvature="0"
         d="m 63,178.034 513,0 0,559.966 -513,0 0,-559.966 z"
         id="path3033" />
    </clipPath>
  </defs>
  <sodipodi:namedview
     id="base"
     pagecolor="#ffffff"
     bordercolor="#666666"
     borderopacity="1.0"
     inkscape:pageopacity="0.0"
     inkscape:pageshadow="2"
     inkscape:zoom="0.35"
     inkscape:cx="45.31162"
     inkscape:cy="45.312542"
     inkscape:document-units="px"
     inkscape:current-layer="layer1"
     showgrid="false"
     fit-margin-top="0"
     fit-margin-left="0"
     fit-margin-right="0"
     fit-margin-bottom="0"
     inkscape:window-width="451"
     inkscape:window-height="398"
     inkscape:window-x="50"
     inkscape:window-y="50"
     inkscape:window-maximized="0" />
  <metadata
     id="metadata4362">
    <rdf:RDF>
      <cc:Work
         rdf:about="">
        <dc:format>image/svg+xml</dc:format>
        <dc:type
           rdf:resource="http://purl.org/dc/dcmitype/StillImage" />
        <dc:title></dc:title>
      </cc:Work>
    </rdf:RDF>
  </metadata>
  <g
     inkscape:label="Layer 1"
     inkscape:groupmode="layer"
     id="layer1"
     transform="translate(-329.68838,-487.04972)">
    <g
       transform="matrix(1.25,0,0,-1.25,245.86963,1364.4221)"
       id="g3027">
      <g
         id="g3029"
         clip-path="url(#clipPath3031)">
        <g
           id="g3035"
           transform="translate(73.3046,629.6479)">
          <path
             inkscape:connector-curvature="0"
             d="m 0,0 59.999,0 c 1.58,0 3.125,0.64 4.244,1.76 1.117,1.116 1.756,2.66 1.756,4.24 l 0,60 c 0,1.58 -0.639,3.124 -1.756,4.244 C 63.124,71.36 61.579,72 59.999,72 L 0,72 C -1.579,72 -3.124,71.36 -4.24,70.244 -5.359,69.124 -6,67.58 -6,66 L -6,6 C -6,3.944 -4.908,2 -3.176,0.896 -2.187,0.268 -1.144,0.121 0,0"
             style="fill:#ffffff;fill-opacity:1;fill-rule:nonzero;stroke:none"
             id="path3037" />
        </g>
      </g>
    </g>
    <g
       transform="matrix(1.25,0,0,-1.25,245.86963,1364.4221)"
       id="g3039">
      <g
         id="g3041"
         clip-path="url(#clipPath3043)">
        <g
           id="g3047"
           transform="translate(73.3046,629.6479)">
          <path
             inkscape:connector-curvature="0"
             d="m 0,0 59.999,0 c 1.58,0 3.125,0.64 4.244,1.76 1.117,1.116 1.756,2.66 1.756,4.24 l 0,60 c 0,1.58 -0.639,3.124 -1.756,4.244 C 63.124,71.36 61.579,72 59.999,72 L 0,72 C -1.579,72 -3.124,71.36 -4.24,70.244 -5.359,69.124 -6,67.58 -6,66 L -6,6 C -6,3.944 -4.908,2 -3.176,0.896 -2.187,0.268 -1.144,0.121 0,0 z"
             style="fill:none;stroke:#231f20;stroke-width:0.5;stroke-linecap:butt;stroke-linejoin:miter;stroke-miterlimit:4;stroke-opacity:1;stroke-dasharray:none"
             id="path3049" />
        </g>
      </g>
    </g>
    <g
       transform="matrix(1.25,0,0,-1.25,245.86963,1364.4221)"
       id="g3051">
      <g
         id="g3053"
         clip-path="url(#clipPath3055)">
        <g
           id="g3059"
           transform="translate(73.3046,631.1479)">
          <path
             inkscape:connector-curvature="0"
             d="M 0,0 C -0.894,0 -1.646,0.202 -2.37,0.661 -3.681,1.495 -4.5,2.967 -4.5,4.5 l 0,60 c 0,1.182 0.48,2.343 1.32,3.183 C -2.346,68.517 -1.182,69 0,69 l 59.999,0 c 1.186,0 2.35,-0.48 3.184,-1.317 0.838,-0.834 1.316,-1.998 1.316,-3.183 l 0,-60 C 64.499,3.319 64.017,2.155 63.183,1.321 62.343,0.48 61.183,0 59.999,0 L 0,0 z"
             style="fill:#713907;fill-opacity:1;fill-rule:evenodd;stroke:none"
             id="path3061" />
        </g>
        <path
           inkscape:connector-curvature="0"
           d="m 77.475,653.236 43.335,0 0,-7.668 -43.335,0 0,7.668 z"
           style="fill:#ffffff;fill-opacity:1;fill-rule:nonzero;stroke:none"
           id="path3063" />
        <path
           inkscape:connector-curvature="0"
           d="m 122.847,653.207 2.188,0 0,-7.646 -2.188,0 0,7.646 z"
           style="fill:#ffffff;fill-opacity:1;fill-rule:nonzero;stroke:none"
           id="path3065" />
        <path
           inkscape:connector-curvature="0"
           d="m 126.946,653.207 2.188,0 0,-7.646 -2.188,0 0,7.646 z"
           style="fill:#ffffff;fill-opacity:1;fill-rule:nonzero;stroke:none"
           id="path3067" />
        <g
           id="g3069"
           transform="translate(111.7978,662.9159)">
          <path
             inkscape:connector-curvature="0"
             d="m 0,0 c -3.305,0 -5.984,2.678 -5.984,5.98 0,0.622 0.099,1.225 0.273,1.788 -4.09,0.074 -7.377,3.42 -7.377,7.529 0,4.125 3.32,7.476 7.438,7.521 l 0,-2.164 c -2.92,-0.045 -5.276,-2.425 -5.276,-5.357 0,-2.961 2.399,-5.359 5.358,-5.359 0.371,0 0.728,0.039 1.076,0.111 0.097,0.023 0.197,0.039 0.303,0.039 0.699,0 1.265,-0.568 1.265,-1.268 0,-0.261 -0.086,-0.509 -0.222,-0.711 C -3.555,7.502 -3.801,6.77 -3.801,5.98 -3.801,3.883 -2.1,2.182 0,2.182 l 7.854,0.002 c 2.97,0 5.376,-2.409 5.376,-5.379 l 0.006,-4.293 -2.187,0 0,4.293 C 11.049,-1.43 9.617,0 7.854,0 L 0,0 z"
             style="fill:#ffffff;fill-opacity:1;fill-rule:nonzero;stroke:none"
             id="path3071" />
        </g>
        <g
           id="g3073"
           transform="translate(113.5439,671.2362)">
          <path
             inkscape:connector-curvature="0"
             d="m 0,0 c 0.797,1.043 1.273,2.336 1.273,3.752 0,3.422 -2.775,6.195 -6.197,6.195 l -0.482,0.004 0,2.188 0.482,-0.008 c 4.627,0 8.379,-3.752 8.379,-8.379 C 3.455,2.51 3.176,1.34 2.691,0.279 l 1.535,0.006 c 6.274,0 11.36,-5.086 11.36,-11.359 l 0.004,-4.735 -2.188,0 0.002,4.735 c 0,5.068 -4.109,9.178 -9.178,9.178 l -3.197,0.005 c -0.677,0 -1.228,0.555 -1.228,1.233 0,0.248 0.074,0.465 0.199,0.658"
             style="fill:#ffffff;fill-opacity:1;fill-rule:nonzero;stroke:none"
             id="path3075" />
        </g>
      </g>
    </g>
  </g>
</svg>
