<?xml version="1.0" encoding="UTF-8" standalone="no"?>
<!-- Created with Inkscape (http://www.inkscape.org/) -->

<svg
   xmlns:dc="http://purl.org/dc/elements/1.1/"
   xmlns:cc="http://creativecommons.org/ns#"
   xmlns:rdf="http://www.w3.org/1999/02/22-rdf-syntax-ns#"
   xmlns:svg="http://www.w3.org/2000/svg"
   xmlns="http://www.w3.org/2000/svg"
   xmlns:sodipodi="http://sodipodi.sourceforge.net/DTD/sodipodi-0.dtd"
   xmlns:inkscape="http://www.inkscape.org/namespaces/inkscape"
   width="90.625"
   height="90.625"
   id="svg4411"
   version="1.1"
   inkscape:version="0.48.3.1 r9886"
   sodipodi:docname="New document 18">
  <defs
     id="defs4413">
    <clipPath
       clipPathUnits="userSpaceOnUse"
       id="clipPath3139">
      <path
         inkscape:connector-curvature="0"
         d="m 62,407.724 513,0 0,330.276 -513,0 0,-330.276 z"
         id="path3141" />
    </clipPath>
  </defs>
  <sodipodi:namedview
     id="base"
     pagecolor="#ffffff"
     bordercolor="#666666"
     borderopacity="1.0"
     inkscape:pageopacity="0.0"
     inkscape:pageshadow="2"
     inkscape:zoom="0.35"
     inkscape:cx="45.311875"
     inkscape:cy="45.311892"
     inkscape:document-units="px"
     inkscape:current-layer="layer1"
     showgrid="false"
     fit-margin-top="0"
     fit-margin-left="0"
     fit-margin-right="0"
     fit-margin-bottom="0"
     inkscape:window-width="451"
     inkscape:window-height="415"
     inkscape:window-x="75"
     inkscape:window-y="75"
     inkscape:window-maximized="0" />
  <metadata
     id="metadata4416">
    <rdf:RDF>
      <cc:Work
         rdf:about="">
        <dc:format>image/svg+xml</dc:format>
        <dc:type
           rdf:resource="http://purl.org/dc/dcmitype/StillImage" />
        <dc:title></dc:title>
      </cc:Work>
    </rdf:RDF>
  </metadata>
  <g
     inkscape:label="Layer 1"
     inkscape:groupmode="layer"
     id="layer1"
     transform="translate(-329.68813,-487.04908)">
    <g
       transform="matrix(1.25,0,0,-1.25,82.4375,1249.1437)"
       id="g3135">
      <g
         id="g3137"
         clip-path="url(#clipPath3139)">
        <g
           id="g3143"
           transform="translate(204.0505,537.4257)">
          <path
             inkscape:connector-curvature="0"
             d="m 0,0 59.999,0 c 1.58,0 3.125,0.639 4.244,1.76 1.117,1.116 1.756,2.66 1.756,4.24 l 0,59.999 c 0,1.58 -0.639,3.124 -1.756,4.244 -1.119,1.116 -2.664,1.756 -4.244,1.756 L 0,71.999 c -1.579,0 -3.124,-0.64 -4.24,-1.756 C -5.36,69.123 -6,67.579 -6,65.999 L -6,6 C -6,3.943 -4.908,2 -3.176,0.895 -2.188,0.267 -1.144,0.12 0,0"
             style="fill:#ffffff;fill-opacity:1;fill-rule:nonzero;stroke:none"
             id="path3145" />
        </g>
        <g
           id="g3147"
           transform="translate(204.0505,537.4257)">
          <path
             inkscape:connector-curvature="0"
             d="m 0,0 59.999,0 c 1.58,0 3.125,0.639 4.244,1.76 1.117,1.116 1.756,2.66 1.756,4.24 l 0,59.999 c 0,1.58 -0.639,3.124 -1.756,4.244 -1.119,1.116 -2.664,1.756 -4.244,1.756 L 0,71.999 c -1.579,0 -3.124,-0.64 -4.24,-1.756 C -5.36,69.123 -6,67.579 -6,65.999 L -6,6 C -6,3.943 -4.908,2 -3.176,0.895 -2.188,0.267 -1.144,0.12 0,0 z"
             style="fill:none;stroke:#231f20;stroke-width:0.5;stroke-linecap:butt;stroke-linejoin:miter;stroke-miterlimit:4;stroke-opacity:1;stroke-dasharray:none"
             id="path3149" />
        </g>
        <g
           id="g3151"
           transform="translate(204.0505,538.9257)">
          <path
             inkscape:connector-curvature="0"
             d="M 0,0 C -0.894,0 -1.647,0.201 -2.37,0.66 -3.681,1.494 -4.5,2.967 -4.5,4.5 l 0,59.999 c 0,1.182 0.48,2.344 1.32,3.183 0.834,0.834 1.998,1.317 3.18,1.317 l 59.999,0 c 1.185,0 2.349,-0.48 3.183,-1.317 0.838,-0.834 1.317,-1.998 1.317,-3.183 l 0,-59.999 C 64.499,3.318 64.016,2.154 63.182,1.32 62.343,0.479 61.182,0 59.999,0 L 0,0 z"
             style="fill:#713907;fill-opacity:1;fill-rule:evenodd;stroke:none"
             id="path3153" />
        </g>
      </g>
    </g>
    <g
       id="g3277"
       transform="matrix(1.25,0,0,-1.25,387.88437,507.05419)">
      <path
         d="M 0,0 C 2.603,0 4.715,2.112 4.715,4.713 4.715,7.317 2.603,9.428 0,9.428 -2.602,9.428 -4.713,7.317 -4.713,4.713 -4.713,2.112 -2.602,0 0,0"
         style="fill:#ffffff;fill-opacity:1;fill-rule:nonzero;stroke:none"
         id="path3279"
         inkscape:connector-curvature="0" />
    </g>
    <g
       id="g3281"
       transform="matrix(1.25,0,0,-1.25,403.70188,529.56544)">
      <path
         d="m 0,0 c -0.814,-1.893 -2.564,-1.321 -2.564,-1.321 l -7.381,2.793 c -0.738,0.258 -1.305,0.867 -1.51,1.625 l -1.67,4.867 -2.596,-7.168 7.711,-8.023 c 0.963,-1.686 0.868,-2.934 0.868,-2.934 l 0.005,-11.078 c 2.731,0 4.946,-2.211 4.946,-4.941 0,-2.731 -2.215,-4.943 -4.946,-4.943 -0.392,0 -0.783,0.048 -1.15,0.136 l -16.226,3.614 0,2.386 12.167,2.707 0.008,10.096 -8.193,8.168 -1.25,-8.561 c -0.203,-1.087 -0.99,-2.109 -1.432,-2.609 l -5.677,-6.582 c -0.092,0.07 -0.204,0.076 -0.309,0.053 l 0.309,-0.053 c 1.474,-1.152 2.238,-3.09 1.777,-5.029 -0.631,-2.66 -3.293,-4.301 -5.947,-3.67 -0.385,0.09 -0.752,0.226 -1.092,0.394 l -14.953,7.258 0.549,2.322 13.718,-0.187 6.518,7.537 2.016,14.805 4.236,11.209 -5.863,-3.369 -3.495,-6.852 c -1.056,-2.166 -2.962,-1.025 -2.962,-1.025 -1.733,0.99 -1.059,2.658 -1.059,2.658 l 3.572,7.238 c 0.963,1.83 1.733,2.115 1.733,2.115 l 8.361,4.575 c 1.83,1.25 3.941,0.287 3.941,0.287 l 4.813,-1.825 c 2.406,-0.867 2.504,-2.216 2.504,-2.216 L -7.543,4.925 -1.121,2.65 C -1.121,2.65 0.604,1.908 0,0 m -7.51,-28.883 c 0.127,-0.016 0.248,-0.028 0.373,-0.028 1.51,0 2.731,1.223 2.731,2.731 0,1.506 -1.221,2.728 -2.731,2.728 l 0,-0.564 c 0,-1.439 -1.162,-2.607 -2.601,-2.607 -1.268,0 -2.272,0.918 -2.508,2.109 l -7.578,-1.666 12.314,-2.703 z m -25.398,0.679 c 0.111,-0.044 0.23,-0.08 0.355,-0.109 1.467,-0.348 2.936,0.557 3.286,2.025 0.263,1.11 -0.198,2.221 -1.071,2.846 l -1.115,-1.293 c -0.947,-1.09 -2.596,-1.203 -3.68,-0.26 -0.636,0.557 -0.896,1.346 -0.849,2.127 l -8.287,0.133 11.361,-5.469 z"
         style="fill:#ffffff;fill-opacity:1;fill-rule:nonzero;stroke:none"
         id="path3283"
         inkscape:connector-curvature="0" />
    </g>
  </g>
</svg>
