<?xml version="1.0" encoding="UTF-8" standalone="no"?>
<!-- Created with Inkscape (http://www.inkscape.org/) -->

<svg
   xmlns:dc="http://purl.org/dc/elements/1.1/"
   xmlns:cc="http://creativecommons.org/ns#"
   xmlns:rdf="http://www.w3.org/1999/02/22-rdf-syntax-ns#"
   xmlns:svg="http://www.w3.org/2000/svg"
   xmlns="http://www.w3.org/2000/svg"
   xmlns:sodipodi="http://sodipodi.sourceforge.net/DTD/sodipodi-0.dtd"
   xmlns:inkscape="http://www.inkscape.org/namespaces/inkscape"
   width="90.625"
   height="90.625"
   id="svg4895"
   version="1.1"
   inkscape:version="0.48.3.1 r9886"
   sodipodi:docname="New document 8">
  <defs
     id="defs4897">
    <clipPath
       clipPathUnits="userSpaceOnUse"
       id="clipPath3417">
      <path
         inkscape:connector-curvature="0"
         d="m 27,45 513,0 0,693 -513,0 0,-693 z"
         id="path3419" />
    </clipPath>
  </defs>
  <sodipodi:namedview
     id="base"
     pagecolor="#ffffff"
     bordercolor="#666666"
     borderopacity="1.0"
     inkscape:pageopacity="0.0"
     inkscape:pageshadow="2"
     inkscape:zoom="0.35"
     inkscape:cx="-113.97384"
     inkscape:cy="256.74042"
     inkscape:document-units="px"
     inkscape:current-layer="layer1"
     showgrid="false"
     fit-margin-top="0"
     fit-margin-left="0"
     fit-margin-right="0"
     fit-margin-bottom="0"
     inkscape:window-width="451"
     inkscape:window-height="398"
     inkscape:window-x="25"
     inkscape:window-y="25"
     inkscape:window-maximized="0" />
  <metadata
     id="metadata4900">
    <rdf:RDF>
      <cc:Work
         rdf:about="">
        <dc:format>image/svg+xml</dc:format>
        <dc:type
           rdf:resource="http://purl.org/dc/dcmitype/StillImage" />
        <dc:title></dc:title>
      </cc:Work>
    </rdf:RDF>
  </metadata>
  <g
     inkscape:label="Layer 1"
     inkscape:groupmode="layer"
     id="layer1"
     transform="translate(-488.97384,-698.4776)">
    <g
       transform="matrix(1.25,0,0,-1.25,342.02809,1592.3981)"
       id="g3413">
      <g
         id="g3415"
         clip-path="url(#clipPath3417)">
        <g
           id="g3421"
           transform="translate(123.8066,642.8864)">
          <path
             inkscape:connector-curvature="0"
             d="m 0,0 59.999,0 c 1.58,0 3.125,0.64 4.244,1.76 1.117,1.116 1.756,2.66 1.756,4.24 l 0,59.999 c 0,1.58 -0.639,3.124 -1.756,4.244 -1.119,1.116 -2.664,1.756 -4.244,1.756 L 0,71.999 c -1.579,0 -3.124,-0.64 -4.24,-1.756 C -5.359,69.123 -6,67.579 -6,65.999 L -6,6 C -6,3.943 -4.908,2 -3.176,0.896 -2.188,0.268 -1.143,0.12 0,0"
             style="fill:#ffffff;fill-opacity:1;fill-rule:nonzero;stroke:none"
             id="path3423" />
        </g>
        <g
           id="g3425"
           transform="translate(123.8066,642.8864)">
          <path
             inkscape:connector-curvature="0"
             d="m 0,0 59.999,0 c 1.58,0 3.125,0.64 4.244,1.76 1.117,1.116 1.756,2.66 1.756,4.24 l 0,59.999 c 0,1.58 -0.639,3.124 -1.756,4.244 -1.119,1.116 -2.664,1.756 -4.244,1.756 L 0,71.999 c -1.579,0 -3.124,-0.64 -4.24,-1.756 C -5.359,69.123 -6,67.579 -6,65.999 L -6,6 C -6,3.943 -4.908,2 -3.176,0.896 -2.188,0.268 -1.143,0.12 0,0 z"
             style="fill:none;stroke:#231f20;stroke-width:0.5;stroke-linecap:butt;stroke-linejoin:miter;stroke-miterlimit:4;stroke-opacity:1;stroke-dasharray:none"
             id="path3427" />
        </g>
        <g
           id="g3429"
           transform="translate(123.8066,644.3864)">
          <path
             inkscape:connector-curvature="0"
             d="M 0,0 C -0.893,0 -1.646,0.201 -2.37,0.66 -3.681,1.494 -4.5,2.967 -4.5,4.5 l 0,59.999 c 0,1.183 0.48,2.344 1.32,3.184 0.834,0.834 1.998,1.316 3.18,1.316 l 59.999,0 c 1.185,0 2.35,-0.479 3.184,-1.316 0.837,-0.834 1.316,-1.998 1.316,-3.184 l 0,-59.999 C 64.499,3.318 64.017,2.154 63.183,1.32 62.343,0.48 61.183,0 59.999,0 L 0,0 z"
             style="fill:#713907;fill-opacity:1;fill-rule:evenodd;stroke:none"
             id="path3431" />
        </g>
      </g>
    </g>
    <g
       id="g3935"
       transform="matrix(1.25,0,0,-1.25,538.12771,770.8775)">
      <path
         d="m 0,0 c 5.674,1.121 10.291,5.186 12.192,10.539 l -1.967,0.656 c -0.211,0.074 -0.414,0.18 -0.604,0.319 -1.01,0.746 -1.224,2.166 -0.482,3.176 0.111,0.148 0.232,0.277 0.363,0.39 l 7.83,7.328 c 0.393,0.428 0.955,0.694 1.574,0.694 1.039,0 1.905,-0.745 2.1,-1.729 l 1.691,-10.584 c 0.039,-0.172 0.065,-0.348 0.065,-0.529 0,-1.256 -1.018,-2.274 -2.272,-2.274 -0.236,0 -0.464,0.037 -0.675,0.104 L 17.979,8.693 C 15.063,-0.199 6.692,-6.623 -3.181,-6.623 c -9.87,0 -18.241,6.42 -21.163,15.311 L -26.172,8.09 c -0.211,-0.067 -0.437,-0.104 -0.67,-0.104 -1.258,0 -2.275,1.018 -2.275,2.274 0,0.181 0.021,0.357 0.062,0.529 l 1.694,10.584 c 0.189,0.984 1.054,1.729 2.097,1.729 0.625,0 1.186,-0.266 1.575,-0.694 l 7.83,-7.328 c 0.131,-0.113 0.254,-0.242 0.363,-0.39 0.744,-1.01 0.527,-2.43 -0.48,-3.176 -0.19,-0.139 -0.393,-0.245 -0.604,-0.319 l -1.976,-0.658 c 1.933,-5.443 6.728,-9.556 12.537,-10.594 l -0.008,34.774 c -2.781,1.176 -4.762,3.933 -4.762,7.144 0,4.285 3.475,7.756 7.754,7.756 4.285,0 7.754,-3.471 7.754,-7.756 0,-3.209 -1.924,-5.965 -4.705,-7.142 L 0,0 z m -3.035,39.482 c 1.318,0 2.381,1.065 2.381,2.379 0,1.317 -1.063,2.383 -2.381,2.383 -1.312,0 -2.381,-1.066 -2.381,-2.383 0,-1.314 1.069,-2.379 2.381,-2.379"
         style="fill:#ffffff;fill-opacity:1;fill-rule:nonzero;stroke:none"
         id="path3937"
         inkscape:connector-curvature="0" />
    </g>
  </g>
</svg>
