<?xml version="1.0" encoding="UTF-8" standalone="no"?>
<!-- Created with Inkscape (http://www.inkscape.org/) -->

<svg
   xmlns:dc="http://purl.org/dc/elements/1.1/"
   xmlns:cc="http://creativecommons.org/ns#"
   xmlns:rdf="http://www.w3.org/1999/02/22-rdf-syntax-ns#"
   xmlns:svg="http://www.w3.org/2000/svg"
   xmlns="http://www.w3.org/2000/svg"
   xmlns:sodipodi="http://sodipodi.sourceforge.net/DTD/sodipodi-0.dtd"
   xmlns:inkscape="http://www.inkscape.org/namespaces/inkscape"
   width="90.625"
   height="90.625"
   id="svg5776"
   version="1.1"
   inkscape:version="0.48.3.1 r9886"
   sodipodi:docname="New document 30">
  <defs
     id="defs5778">
    <clipPath
       clipPathUnits="userSpaceOnUse"
       id="clipPath3627">
      <path
         inkscape:connector-curvature="0"
         d="m 27,32 511.888,0 0,459.994 L 27,491.994 27,32 z"
         id="path3629" />
    </clipPath>
  </defs>
  <sodipodi:namedview
     id="base"
     pagecolor="#ffffff"
     bordercolor="#666666"
     borderopacity="1.0"
     inkscape:pageopacity="0.0"
     inkscape:pageshadow="2"
     inkscape:zoom="0.35"
     inkscape:cx="45.311875"
     inkscape:cy="45.311892"
     inkscape:document-units="px"
     inkscape:current-layer="layer1"
     showgrid="false"
     fit-margin-top="0"
     fit-margin-left="0"
     fit-margin-right="0"
     fit-margin-bottom="0"
     inkscape:window-width="451"
     inkscape:window-height="398"
     inkscape:window-x="75"
     inkscape:window-y="75"
     inkscape:window-maximized="0" />
  <metadata
     id="metadata5781">
    <rdf:RDF>
      <cc:Work
         rdf:about="">
        <dc:format>image/svg+xml</dc:format>
        <dc:type
           rdf:resource="http://purl.org/dc/dcmitype/StillImage" />
        <dc:title></dc:title>
      </cc:Work>
    </rdf:RDF>
  </metadata>
  <g
     inkscape:label="Layer 1"
     inkscape:groupmode="layer"
     id="layer1"
     transform="translate(-329.68813,-487.04908)">
    <g
       transform="matrix(1.25,0,0,-1.25,-32.72625,1060.3262)"
       id="g3623">
      <g
         id="g3625"
         clip-path="url(#clipPath3627)">
        <g
           id="g3631"
           transform="translate(296.1815,386.3717)">
          <path
             inkscape:connector-curvature="0"
             d="m 0,0 59.999,0 c 1.58,0 3.125,0.64 4.244,1.76 1.117,1.116 1.756,2.66 1.756,4.24 l 0,59.999 c 0,1.58 -0.639,3.124 -1.756,4.244 -1.119,1.116 -2.664,1.756 -4.244,1.756 L 0,71.999 c -1.58,0 -3.125,-0.64 -4.24,-1.756 C -5.359,69.123 -6,67.579 -6,65.999 L -6,6 C -6,3.943 -4.908,2 -3.175,0.895 -2.187,0.268 -1.144,0.12 0,0"
             style="fill:#ffffff;fill-opacity:1;fill-rule:nonzero;stroke:none"
             id="path3633" />
        </g>
        <g
           id="g3635"
           transform="translate(296.1815,386.3717)">
          <path
             inkscape:connector-curvature="0"
             d="m 0,0 59.999,0 c 1.58,0 3.125,0.64 4.244,1.76 1.117,1.116 1.756,2.66 1.756,4.24 l 0,59.999 c 0,1.58 -0.639,3.124 -1.756,4.244 -1.119,1.116 -2.664,1.756 -4.244,1.756 L 0,71.999 c -1.58,0 -3.125,-0.64 -4.24,-1.756 C -5.359,69.123 -6,67.579 -6,65.999 L -6,6 C -6,3.943 -4.908,2 -3.175,0.895 -2.187,0.268 -1.144,0.12 0,0 z"
             style="fill:none;stroke:#231f20;stroke-width:0.5;stroke-linecap:butt;stroke-linejoin:miter;stroke-miterlimit:4;stroke-opacity:1;stroke-dasharray:none"
             id="path3637" />
        </g>
        <g
           id="g3639"
           transform="translate(296.1815,387.8717)">
          <path
             inkscape:connector-curvature="0"
             d="M 0,0 C -0.894,0 -1.646,0.201 -2.371,0.66 -3.681,1.494 -4.5,2.967 -4.5,4.5 l 0,59.999 c 0,1.183 0.481,2.344 1.321,3.184 0.834,0.834 1.998,1.316 3.179,1.316 l 59.999,0 c 1.185,0 2.349,-0.479 3.183,-1.316 0.838,-0.834 1.317,-1.999 1.317,-3.184 l 0,-59.999 C 64.499,3.318 64.016,2.154 63.182,1.32 62.342,0.479 61.182,0 59.999,0 L 0,0 z"
             style="fill:#713907;fill-opacity:1;fill-rule:evenodd;stroke:none"
             id="path3641" />
        </g>
        <g
           id="g3643"
           transform="translate(318.4765,400.7716)">
          <path
             inkscape:connector-curvature="0"
             d="m 0,0 14.444,0 -0.014,14.432 14.441,0 0,14.441 -14.441,0 0.014,14.428 -14.444,0 0.014,-14.428 -14.443,0 0,-14.441 14.443,0 L 0,0 z"
             style="fill:#ffffff;fill-opacity:1;fill-rule:nonzero;stroke:none"
             id="path3645" />
        </g>
      </g>
    </g>
  </g>
</svg>
