<?xml version="1.0" encoding="UTF-8" standalone="no"?>
<!-- Created with Inkscape (http://www.inkscape.org/) -->

<svg
   xmlns:dc="http://purl.org/dc/elements/1.1/"
   xmlns:cc="http://creativecommons.org/ns#"
   xmlns:rdf="http://www.w3.org/1999/02/22-rdf-syntax-ns#"
   xmlns:svg="http://www.w3.org/2000/svg"
   xmlns="http://www.w3.org/2000/svg"
   xmlns:sodipodi="http://sodipodi.sourceforge.net/DTD/sodipodi-0.dtd"
   xmlns:inkscape="http://www.inkscape.org/namespaces/inkscape"
   width="90.624374"
   height="90.625"
   id="svg5526"
   version="1.1"
   inkscape:version="0.48.3.1 r9886"
   sodipodi:docname="New document 24">
  <defs
     id="defs5528">
    <clipPath
       clipPathUnits="userSpaceOnUse"
       id="clipPath3527">
      <path
         inkscape:connector-curvature="0"
         d="m 27,32 511.888,0 0,459.994 L 27,491.994 27,32 z"
         id="path3529" />
    </clipPath>
    <clipPath
       clipPathUnits="userSpaceOnUse"
       id="clipPath3515">
      <path
         inkscape:connector-curvature="0"
         d="m 30.556,43.282 504.778,0 0,437.431 -504.778,0 0,-437.431 z"
         id="path3517" />
    </clipPath>
    <clipPath
       clipPathUnits="userSpaceOnUse"
       id="clipPath3503">
      <path
         inkscape:connector-curvature="0"
         d="m 27,32 511.888,0 0,459.994 L 27,491.994 27,32 z"
         id="path3505" />
    </clipPath>
  </defs>
  <sodipodi:namedview
     id="base"
     pagecolor="#ffffff"
     bordercolor="#666666"
     borderopacity="1.0"
     inkscape:pageopacity="0.0"
     inkscape:pageshadow="2"
     inkscape:zoom="0.35"
     inkscape:cx="45.31156"
     inkscape:cy="45.311892"
     inkscape:document-units="px"
     inkscape:current-layer="layer1"
     showgrid="false"
     fit-margin-top="0"
     fit-margin-left="0"
     fit-margin-right="0"
     fit-margin-bottom="0"
     inkscape:window-width="451"
     inkscape:window-height="398"
     inkscape:window-x="125"
     inkscape:window-y="125"
     inkscape:window-maximized="0" />
  <metadata
     id="metadata5531">
    <rdf:RDF>
      <cc:Work
         rdf:about="">
        <dc:format>image/svg+xml</dc:format>
        <dc:type
           rdf:resource="http://purl.org/dc/dcmitype/StillImage" />
        <dc:title></dc:title>
      </cc:Work>
    </rdf:RDF>
  </metadata>
  <g
     inkscape:label="Layer 1"
     inkscape:groupmode="layer"
     id="layer1"
     transform="translate(-329.68844,-487.04908)">
    <g
       transform="matrix(1.25,0,0,-1.25,291.49344,1060.3262)"
       id="g3499">
      <g
         id="g3501"
         clip-path="url(#clipPath3503)">
        <g
           id="g3507"
           transform="translate(36.8055,386.3717)">
          <path
             inkscape:connector-curvature="0"
             d="m 0,0 59.999,0 c 1.58,0 3.125,0.64 4.244,1.76 1.117,1.116 1.756,2.66 1.756,4.24 l 0,59.999 c 0,1.58 -0.639,3.124 -1.756,4.244 -1.119,1.116 -2.664,1.756 -4.244,1.756 L 0,71.999 c -1.579,0 -3.124,-0.64 -4.24,-1.756 C -5.359,69.123 -6,67.579 -6,65.999 L -6,6 C -6,3.943 -4.908,2 -3.176,0.895 -2.187,0.268 -1.144,0.12 0,0"
             style="fill:#ffffff;fill-opacity:1;fill-rule:nonzero;stroke:none"
             id="path3509" />
        </g>
      </g>
    </g>
    <g
       transform="matrix(1.25,0,0,-1.25,291.49344,1060.3262)"
       id="g3511">
      <g
         id="g3513"
         clip-path="url(#clipPath3515)">
        <g
           id="g3519"
           transform="translate(36.8055,386.3717)">
          <path
             inkscape:connector-curvature="0"
             d="m 0,0 59.999,0 c 1.58,0 3.125,0.64 4.244,1.76 1.117,1.116 1.756,2.66 1.756,4.24 l 0,59.999 c 0,1.58 -0.639,3.124 -1.756,4.244 -1.119,1.116 -2.664,1.756 -4.244,1.756 L 0,71.999 c -1.579,0 -3.124,-0.64 -4.24,-1.756 C -5.359,69.123 -6,67.579 -6,65.999 L -6,6 C -6,3.943 -4.908,2 -3.176,0.895 -2.187,0.268 -1.144,0.12 0,0 z"
             style="fill:none;stroke:#231f20;stroke-width:0.5;stroke-linecap:butt;stroke-linejoin:miter;stroke-miterlimit:4;stroke-opacity:1;stroke-dasharray:none"
             id="path3521" />
        </g>
      </g>
    </g>
    <g
       transform="matrix(1.25,0,0,-1.25,291.49344,1060.3262)"
       id="g3523">
      <g
         id="g3525"
         clip-path="url(#clipPath3527)">
        <g
           id="g3531"
           transform="translate(36.8055,387.8717)">
          <path
             inkscape:connector-curvature="0"
             d="M 0,0 C -0.894,0 -1.646,0.201 -2.37,0.66 -3.681,1.494 -4.5,2.967 -4.5,4.5 l 0,59.999 c 0,1.183 0.48,2.344 1.32,3.184 0.834,0.834 1.998,1.316 3.18,1.316 l 59.999,0 c 1.186,0 2.35,-0.479 3.184,-1.316 0.838,-0.834 1.316,-1.999 1.316,-3.184 l 0,-59.999 C 64.499,3.318 64.017,2.154 63.183,1.32 62.343,0.479 61.183,0 59.999,0 L 0,0 z"
             style="fill:#713907;fill-opacity:1;fill-rule:evenodd;stroke:none"
             id="path3533" />
        </g>
        <g
           id="g3535"
           transform="translate(78.9534,438.3731)">
          <path
             inkscape:connector-curvature="0"
             d="m 0,0 c -0.912,-0.887 -2.158,-1.232 -3.531,-1.232 -1.748,0 -3.334,0.709 -4.246,2.056 -0.905,-1.375 -2.504,-2.056 -4.272,-2.056 -1.75,0 -3.322,0.726 -4.232,2.072 -0.902,-1.393 -2.502,-2.072 -4.285,-2.072 -1.297,0 -2.481,0.285 -3.375,1.088 l -0.674,4.837 c 0.924,-1.224 2.394,-2.017 4.049,-2.017 1.783,0 3.383,0.881 4.285,2.271 0.91,-1.345 2.482,-2.271 4.232,-2.271 1.768,0 3.367,0.883 4.272,2.254 0.912,-1.346 2.498,-2.254 4.246,-2.254 1.783,0 3.351,0.92 4.254,2.312 L 0,0 z"
             style="fill:#ffffff;fill-opacity:1;fill-rule:nonzero;stroke:none"
             id="path3537" />
        </g>
        <g
           id="g3539"
           transform="translate(80.2425,397.4552)">
          <path
             inkscape:connector-curvature="0"
             d="M 0,0 7.016,49.268 1.82,49.217 -4.492,5.193 l -17.492,0 -6.313,44.024 -5.195,0.051 L -26.477,0 0,0 z"
             style="fill:#ffffff;fill-opacity:1;fill-rule:nonzero;stroke:none"
             id="path3541" />
        </g>
      </g>
    </g>
    <g
       id="g5583"
       transform="matrix(1.25,0,0,-1.25,291.49344,1060.3262)">
      <g
         clip-path="url(#clipPath3503)"
         id="g5585">
        <g
           transform="translate(36.8055,386.3717)"
           id="g5587">
          <path
             id="path5589"
             style="fill:#ffffff;fill-opacity:1;fill-rule:nonzero;stroke:none"
             d="m 0,0 59.999,0 c 1.58,0 3.125,0.64 4.244,1.76 1.117,1.116 1.756,2.66 1.756,4.24 l 0,59.999 c 0,1.58 -0.639,3.124 -1.756,4.244 -1.119,1.116 -2.664,1.756 -4.244,1.756 L 0,71.999 c -1.579,0 -3.124,-0.64 -4.24,-1.756 C -5.359,69.123 -6,67.579 -6,65.999 L -6,6 C -6,3.943 -4.908,2 -3.176,0.895 -2.187,0.268 -1.144,0.12 0,0"
             inkscape:connector-curvature="0" />
        </g>
      </g>
    </g>
    <g
       id="g5591"
       transform="matrix(1.25,0,0,-1.25,291.49344,1060.3262)">
      <g
         clip-path="url(#clipPath3515)"
         id="g5593">
        <g
           transform="translate(36.8055,386.3717)"
           id="g5595">
          <path
             id="path5597"
             style="fill:none;stroke:#231f20;stroke-width:0.5;stroke-linecap:butt;stroke-linejoin:miter;stroke-miterlimit:4;stroke-opacity:1;stroke-dasharray:none"
             d="m 0,0 59.999,0 c 1.58,0 3.125,0.64 4.244,1.76 1.117,1.116 1.756,2.66 1.756,4.24 l 0,59.999 c 0,1.58 -0.639,3.124 -1.756,4.244 -1.119,1.116 -2.664,1.756 -4.244,1.756 L 0,71.999 c -1.579,0 -3.124,-0.64 -4.24,-1.756 C -5.359,69.123 -6,67.579 -6,65.999 L -6,6 C -6,3.943 -4.908,2 -3.176,0.895 -2.187,0.268 -1.144,0.12 0,0 z"
             inkscape:connector-curvature="0" />
        </g>
      </g>
    </g>
    <g
       id="g5599"
       transform="matrix(1.25,0,0,-1.25,291.49344,1060.3262)">
      <g
         clip-path="url(#clipPath3527)"
         id="g5601">
        <g
           transform="translate(36.8055,387.8717)"
           id="g5603">
          <path
             id="path5605"
             style="fill:#713907;fill-opacity:1;fill-rule:evenodd;stroke:none"
             d="M 0,0 C -0.894,0 -1.646,0.201 -2.37,0.66 -3.681,1.494 -4.5,2.967 -4.5,4.5 l 0,59.999 c 0,1.183 0.48,2.344 1.32,3.184 0.834,0.834 1.998,1.316 3.18,1.316 l 59.999,0 c 1.186,0 2.35,-0.479 3.184,-1.316 0.838,-0.834 1.316,-1.999 1.316,-3.184 l 0,-59.999 C 64.499,3.318 64.017,2.154 63.183,1.32 62.343,0.479 61.183,0 59.999,0 L 0,0 z"
             inkscape:connector-curvature="0" />
        </g>
        <g
           transform="translate(78.9534,438.3731)"
           id="g5607">
          <path
             id="path5609"
             style="fill:#ffffff;fill-opacity:1;fill-rule:nonzero;stroke:none"
             d="m 0,0 c -0.912,-0.887 -2.158,-1.232 -3.531,-1.232 -1.748,0 -3.334,0.709 -4.246,2.056 -0.905,-1.375 -2.504,-2.056 -4.272,-2.056 -1.75,0 -3.322,0.726 -4.232,2.072 -0.902,-1.393 -2.502,-2.072 -4.285,-2.072 -1.297,0 -2.481,0.285 -3.375,1.088 l -0.674,4.837 c 0.924,-1.224 2.394,-2.017 4.049,-2.017 1.783,0 3.383,0.881 4.285,2.271 0.91,-1.345 2.482,-2.271 4.232,-2.271 1.768,0 3.367,0.883 4.272,2.254 0.912,-1.346 2.498,-2.254 4.246,-2.254 1.783,0 3.351,0.92 4.254,2.312 L 0,0 z"
             inkscape:connector-curvature="0" />
        </g>
        <g
           transform="translate(80.2425,397.4552)"
           id="g5611">
          <path
             id="path5613"
             style="fill:#ffffff;fill-opacity:1;fill-rule:nonzero;stroke:none"
             d="M 0,0 7.016,49.268 1.82,49.217 -4.492,5.193 l -17.492,0 -6.313,44.024 -5.195,0.051 L -26.477,0 0,0 z"
             inkscape:connector-curvature="0" />
        </g>
      </g>
    </g>
  </g>
</svg>
