<?xml version="1.0" encoding="UTF-8" standalone="no"?>
<!-- Created with Inkscape (http://www.inkscape.org/) -->

<svg
   xmlns:dc="http://purl.org/dc/elements/1.1/"
   xmlns:cc="http://creativecommons.org/ns#"
   xmlns:rdf="http://www.w3.org/1999/02/22-rdf-syntax-ns#"
   xmlns:svg="http://www.w3.org/2000/svg"
   xmlns="http://www.w3.org/2000/svg"
   xmlns:sodipodi="http://sodipodi.sourceforge.net/DTD/sodipodi-0.dtd"
   xmlns:inkscape="http://www.inkscape.org/namespaces/inkscape"
   width="90.625"
   height="90.625"
   id="svg4448"
   version="1.1"
   inkscape:version="0.48.3.1 r9886"
   sodipodi:docname="New document 10">
  <defs
     id="defs4450">
    <clipPath
       clipPathUnits="userSpaceOnUse"
       id="clipPath3201">
      <path
         inkscape:connector-curvature="0"
         d="m 63,299.972 513,0 0,437.279 -513,0 0,-437.279 z"
         id="path3203" />
    </clipPath>
  </defs>
  <sodipodi:namedview
     id="base"
     pagecolor="#ffffff"
     bordercolor="#666666"
     borderopacity="1.0"
     inkscape:pageopacity="0.0"
     inkscape:pageshadow="2"
     inkscape:zoom="0.35"
     inkscape:cx="45.31125"
     inkscape:cy="45.311917"
     inkscape:document-units="px"
     inkscape:current-layer="layer1"
     showgrid="false"
     fit-margin-top="0"
     fit-margin-left="0"
     fit-margin-right="0"
     fit-margin-bottom="0"
     inkscape:window-width="451"
     inkscape:window-height="398"
     inkscape:window-x="75"
     inkscape:window-y="75"
     inkscape:window-maximized="0" />
  <metadata
     id="metadata4453">
    <rdf:RDF>
      <cc:Work
         rdf:about="">
        <dc:format>image/svg+xml</dc:format>
        <dc:type
           rdf:resource="http://purl.org/dc/dcmitype/StillImage" />
        <dc:title></dc:title>
      </cc:Work>
    </rdf:RDF>
  </metadata>
  <g
     inkscape:label="Layer 1"
     inkscape:groupmode="layer"
     id="layer1"
     transform="translate(-329.68875,-487.0491)">
    <g
       transform="matrix(1.25,0,0,-1.25,-78.40875,1381.0171)"
       id="g3197">
      <g
         id="g3199"
         clip-path="url(#clipPath3201)">
        <g
           id="g3205"
           transform="translate(332.728,642.9244)">
          <path
             inkscape:connector-curvature="0"
             d="m 0,0 59.998,0 c 1.58,0 3.125,0.64 4.244,1.76 1.117,1.116 1.756,2.66 1.756,4.24 l 0,59.999 c 0,1.58 -0.639,3.124 -1.756,4.244 -1.119,1.116 -2.664,1.756 -4.244,1.756 L 0,71.999 c -1.58,0 -3.125,-0.64 -4.241,-1.756 C -5.36,69.123 -6,67.579 -6,65.999 L -6,6 C -6,3.943 -4.909,2 -3.176,0.896 -2.188,0.268 -1.145,0.12 0,0"
             style="fill:#ffffff;fill-opacity:1;fill-rule:nonzero;stroke:none"
             id="path3207" />
        </g>
        <g
           id="g3209"
           transform="translate(332.728,642.9244)">
          <path
             inkscape:connector-curvature="0"
             d="m 0,0 59.998,0 c 1.58,0 3.125,0.64 4.244,1.76 1.117,1.116 1.756,2.66 1.756,4.24 l 0,59.999 c 0,1.58 -0.639,3.124 -1.756,4.244 -1.119,1.116 -2.664,1.756 -4.244,1.756 L 0,71.999 c -1.58,0 -3.125,-0.64 -4.241,-1.756 C -5.36,69.123 -6,67.579 -6,65.999 L -6,6 C -6,3.943 -4.909,2 -3.176,0.896 -2.188,0.268 -1.145,0.12 0,0 z"
             style="fill:none;stroke:#231f20;stroke-width:0.5;stroke-linecap:butt;stroke-linejoin:miter;stroke-miterlimit:4;stroke-opacity:1;stroke-dasharray:none"
             id="path3211" />
        </g>
        <g
           id="g3213"
           transform="translate(332.728,644.4244)">
          <path
             inkscape:connector-curvature="0"
             d="M 0,0 C -0.895,0 -1.647,0.201 -2.371,0.66 -3.682,1.494 -4.5,2.967 -4.5,4.5 l 0,59.999 c 0,1.183 0.48,2.344 1.32,3.184 0.834,0.834 1.998,1.316 3.18,1.316 l 59.998,0 c 1.185,0 2.349,-0.479 3.183,-1.316 0.838,-0.834 1.317,-1.998 1.317,-3.184 l 0,-59.999 C 64.498,3.318 64.015,2.154 63.181,1.32 62.341,0.479 61.181,0 59.998,0 L 0,0 z"
             style="fill:#713907;fill-opacity:1;fill-rule:evenodd;stroke:none"
             id="path3215" />
        </g>
        <g
           id="g3217"
           transform="translate(362.6941,699.7281)">
          <path
             inkscape:connector-curvature="0"
             d="M 0,0 C 1.854,0 3.362,1.502 3.362,3.357 3.362,5.223 1.854,6.732 0,6.732 -1.861,6.732 -3.369,5.223 -3.369,3.357 -3.369,1.502 -1.861,0 0,0"
             style="fill:#ffffff;fill-opacity:1;fill-rule:nonzero;stroke:none"
             id="path3219" />
        </g>
        <g
           id="g3221"
           transform="translate(367.4311,698.6324)">
          <path
             inkscape:connector-curvature="0"
             d="m 0,0 -9.526,0 c -2.38,0 -4.3,-1.943 -4.3,-4.363 l 0,-8.065 c 0,-2.002 2.656,-2.002 2.656,0 l 0,7.787 2.105,0 0,-9.82 c 1.407,-0.326 2.846,-0.578 4.364,-0.578 1.502,0 2.927,0.242 4.328,0.572 l 0,9.826 2.092,0 0,-7.787 c 0,-2.015 2.636,-2.015 2.636,0 l 0,8.012 C 4.355,-2.197 2.619,0 0,0"
             style="fill:#ffffff;fill-opacity:1;fill-rule:nonzero;stroke:none"
             id="path3223" />
        </g>
        <g
           id="g3225"
           transform="translate(377.495,684.8922)">
          <path
             inkscape:connector-curvature="0"
             d="m 0,0 c -4.218,-2.881 -9.328,-4.572 -14.828,-4.572 -5.451,0 -10.519,1.664 -14.73,4.504 l -3.317,-4.93 c 5.153,-3.484 11.366,-5.514 18.047,-5.514 6.731,0 12.977,2.057 18.149,5.574 L 0,0 z"
             style="fill:#ffffff;fill-opacity:1;fill-rule:nonzero;stroke:none"
             id="path3227" />
        </g>
        <g
           id="g3229"
           transform="translate(383.8141,675.5367)">
          <path
             inkscape:connector-curvature="0"
             d="m 0,0 c -6.02,-4.094 -13.286,-6.475 -21.114,-6.475 -7.785,0 -15.023,2.362 -21.027,6.414 l -3.354,-4.816 c 6.956,-4.721 15.35,-7.482 24.381,-7.482 9.053,0 17.453,2.773 24.416,7.494 L 0,0 z"
             style="fill:#ffffff;fill-opacity:1;fill-rule:nonzero;stroke:none"
             id="path3231" />
        </g>
        <g
           id="g3233"
           transform="translate(390.093,666.2692)">
          <path
             inkscape:connector-curvature="0"
             d="m 0,0 c -7.818,-5.311 -17.25,-8.41 -27.41,-8.41 -10.145,0 -19.561,3.092 -27.367,8.39 l -3.274,-4.884 c 8.74,-5.926 19.287,-9.385 30.641,-9.385 11.381,0 21.963,3.486 30.724,9.439 L 0,0 z"
             style="fill:#ffffff;fill-opacity:1;fill-rule:nonzero;stroke:none"
             id="path3235" />
        </g>
      </g>
    </g>
  </g>
</svg>
