<?xml version="1.0" encoding="UTF-8" standalone="no"?>
<!-- Created with Inkscape (http://www.inkscape.org/) -->

<svg
   xmlns:dc="http://purl.org/dc/elements/1.1/"
   xmlns:cc="http://creativecommons.org/ns#"
   xmlns:rdf="http://www.w3.org/1999/02/22-rdf-syntax-ns#"
   xmlns:svg="http://www.w3.org/2000/svg"
   xmlns="http://www.w3.org/2000/svg"
   xmlns:sodipodi="http://sodipodi.sourceforge.net/DTD/sodipodi-0.dtd"
   xmlns:inkscape="http://www.inkscape.org/namespaces/inkscape"
   width="90.625"
   height="90.625"
   id="svg6768"
   version="1.1"
   inkscape:version="0.48.3.1 r9886"
   sodipodi:docname="New document 50">
  <defs
     id="defs6770" />
  <sodipodi:namedview
     id="base"
     pagecolor="#ffffff"
     bordercolor="#666666"
     borderopacity="1.0"
     inkscape:pageopacity="0.0"
     inkscape:pageshadow="2"
     inkscape:zoom="0.35"
     inkscape:cx="45.31187"
     inkscape:cy="45.312497"
     inkscape:document-units="px"
     inkscape:current-layer="layer1"
     showgrid="false"
     fit-margin-top="0"
     fit-margin-left="0"
     fit-margin-right="0"
     fit-margin-bottom="0"
     inkscape:window-width="451"
     inkscape:window-height="398"
     inkscape:window-x="175"
     inkscape:window-y="175"
     inkscape:window-maximized="0" />
  <metadata
     id="metadata6773">
    <rdf:RDF>
      <cc:Work
         rdf:about="">
        <dc:format>image/svg+xml</dc:format>
        <dc:type
           rdf:resource="http://purl.org/dc/dcmitype/StillImage" />
        <dc:title></dc:title>
      </cc:Work>
    </rdf:RDF>
  </metadata>
  <g
     inkscape:label="Layer 1"
     inkscape:groupmode="layer"
     id="layer1"
     transform="translate(-329.68813,-487.04968)">
    <g
       id="g4475"
       transform="matrix(1.25,0,0,-1.25,337.50063,577.36218)">
      <path
         d="m 0,0 59.999,0 c 1.58,0 3.125,0.641 4.244,1.76 1.117,1.117 1.756,2.66 1.756,4.24 l 0,60 c 0,1.58 -0.639,3.124 -1.756,4.244 C 63.124,71.36 61.579,72 59.999,72 L 0,72 C -1.579,72 -3.124,71.36 -4.24,70.244 -5.359,69.124 -6,67.58 -6,66 L -6,6 C -6,3.944 -4.908,2 -3.176,0.897 -2.188,0.268 -1.144,0.121 0,0"
         style="fill:#ffffff;fill-opacity:1;fill-rule:nonzero;stroke:none"
         id="path4477"
         inkscape:connector-curvature="0" />
    </g>
    <g
       id="g4479"
       transform="matrix(1.25,0,0,-1.25,337.50063,577.36218)">
      <path
         d="m 0,0 59.999,0 c 1.58,0 3.125,0.641 4.244,1.76 1.117,1.117 1.756,2.66 1.756,4.24 l 0,60 c 0,1.58 -0.639,3.124 -1.756,4.244 C 63.124,71.36 61.579,72 59.999,72 L 0,72 C -1.579,72 -3.124,71.36 -4.24,70.244 -5.359,69.124 -6,67.58 -6,66 L -6,6 C -6,3.944 -4.908,2 -3.176,0.897 -2.188,0.268 -1.144,0.121 0,0 z"
         style="fill:none;stroke:#231f20;stroke-width:0.5;stroke-linecap:butt;stroke-linejoin:miter;stroke-miterlimit:4;stroke-opacity:1;stroke-dasharray:none"
         id="path4481"
         inkscape:connector-curvature="0" />
    </g>
    <g
       id="g4483"
       transform="matrix(1.25,0,0,-1.25,337.50063,575.48718)">
      <path
         d="M 0,0 C -0.894,0 -1.646,0.201 -2.37,0.66 -3.681,1.494 -4.5,2.967 -4.5,4.5 l 0,60 c 0,1.182 0.48,2.344 1.32,3.183 C -2.346,68.517 -1.182,69 0,69 l 59.999,0 c 1.186,0 2.35,-0.48 3.184,-1.317 0.838,-0.834 1.316,-1.998 1.316,-3.183 l 0,-60 C 64.499,3.319 64.017,2.155 63.183,1.321 62.343,0.481 61.183,0 59.999,0 L 0,0 z"
         style="fill:#713907;fill-opacity:1;fill-rule:evenodd;stroke:none"
         id="path4485"
         inkscape:connector-curvature="0" />
    </g>
    <g
       id="g4487"
       transform="matrix(1.25,0,0,-1.25,410.96924,501.12218)">
      <path
         d="m 0,0 0,1.987 -58.804,-22.246 0,-1.987 L 0,0 z"
         style="fill:#ffffff;fill-opacity:1;fill-rule:nonzero;stroke:none"
         id="path4489"
         inkscape:connector-curvature="0" />
    </g>
    <g
       id="g4491"
       transform="matrix(1.25,0,0,-1.25,369.69799,511.85844)">
      <path
         d="M 0,0 C 1.766,0 3.197,1.431 3.197,3.197 3.197,4.963 1.766,6.394 0,6.394 -1.766,6.394 -3.199,4.963 -3.199,3.197 -3.199,1.431 -1.766,0 0,0"
         style="fill:#ffffff;fill-opacity:1;fill-rule:nonzero;stroke:none"
         id="path4493"
         inkscape:connector-curvature="0" />
    </g>
    <g
       id="g4495"
       transform="matrix(1.25,0,0,-1.25,394.473,530.80719)">
      <path
         d="m 0,0 -14.26,0 0,11.557 -1.988,-0.805 0,-10.752 -14.387,0 c -1.128,0 -2.044,-0.916 -2.044,-2.046 l 0,-21.454 c 0,-1.128 0.916,-2.045 2.044,-2.045 l 30.635,0 c 1.129,0 2.045,0.917 2.045,2.045 l 0,21.454 C 2.045,-0.916 1.129,0 0,0 m -21.746,-11.66 c 0,-0.611 -0.498,-1.109 -1.109,-1.109 l -6.729,0 c -0.613,0 -1.109,0.498 -1.109,1.109 l 0,6.731 c 0,0.611 0.496,1.109 1.109,1.109 l 6.729,0 c 0.611,0 1.109,-0.498 1.109,-1.109 l 0,-6.731 z m 10.949,0.094 c 0,-0.617 -0.498,-1.111 -1.111,-1.111 l -6.729,0 c -0.613,0 -1.109,0.494 -1.109,1.111 l 0,6.729 c 0,0.611 0.496,1.107 1.109,1.107 l 6.729,0 c 0.613,0 1.111,-0.496 1.111,-1.107 l 0,-6.729 z m 10.879,0 c 0,-0.617 -0.496,-1.111 -1.109,-1.111 l -6.729,0 c -0.613,0 -1.111,0.494 -1.111,1.111 l 0,6.729 c 0,0.611 0.498,1.107 1.111,1.107 l 6.729,0 c 0.613,0 1.109,-0.496 1.109,-1.107 l 0,-6.729 z"
         style="fill:#ffffff;fill-opacity:1;fill-rule:nonzero;stroke:none"
         id="path4497"
         inkscape:connector-curvature="0" />
    </g>
    <g
       id="g4499"
       transform="matrix(1.25,0,0,-1.25,379.24925,508.28719)">
      <path
         d="M 0,0 C 1.765,0 3.197,1.43 3.197,3.197 3.197,4.961 1.765,6.395 0,6.395 -1.766,6.395 -3.198,4.961 -3.198,3.197 -3.198,1.43 -1.766,0 0,0"
         style="fill:#ffffff;fill-opacity:1;fill-rule:nonzero;stroke:none"
         id="path4501"
         inkscape:connector-curvature="0" />
    </g>
  </g>
</svg>
