<?xml version="1.0" encoding="UTF-8" standalone="no"?>
<!-- Created with Inkscape (http://www.inkscape.org/) -->

<svg
   xmlns:dc="http://purl.org/dc/elements/1.1/"
   xmlns:cc="http://creativecommons.org/ns#"
   xmlns:rdf="http://www.w3.org/1999/02/22-rdf-syntax-ns#"
   xmlns:svg="http://www.w3.org/2000/svg"
   xmlns="http://www.w3.org/2000/svg"
   xmlns:sodipodi="http://sodipodi.sourceforge.net/DTD/sodipodi-0.dtd"
   xmlns:inkscape="http://www.inkscape.org/namespaces/inkscape"
   width="90.625"
   height="90.625"
   id="svg5607"
   version="1.1"
   inkscape:version="0.48.3.1 r9886"
   sodipodi:docname="New document 26">
  <defs
     id="defs5609">
    <clipPath
       clipPathUnits="userSpaceOnUse"
       id="clipPath3715">
      <path
         inkscape:connector-curvature="0"
         d="m 27,45 513,0 0,693 -513,0 0,-693 z"
         id="path3717" />
    </clipPath>
  </defs>
  <sodipodi:namedview
     id="base"
     pagecolor="#ffffff"
     bordercolor="#666666"
     borderopacity="1.0"
     inkscape:pageopacity="0.0"
     inkscape:pageshadow="2"
     inkscape:zoom="0.35"
     inkscape:cx="45.311245"
     inkscape:cy="45.311917"
     inkscape:document-units="px"
     inkscape:current-layer="layer1"
     showgrid="false"
     fit-margin-top="0"
     fit-margin-left="0"
     fit-margin-right="0"
     fit-margin-bottom="0"
     inkscape:window-width="451"
     inkscape:window-height="398"
     inkscape:window-x="75"
     inkscape:window-y="75"
     inkscape:window-maximized="0" />
  <metadata
     id="metadata5612">
    <rdf:RDF>
      <cc:Work
         rdf:about="">
        <dc:format>image/svg+xml</dc:format>
        <dc:type
           rdf:resource="http://purl.org/dc/dcmitype/StillImage" />
        <dc:title></dc:title>
      </cc:Work>
    </rdf:RDF>
  </metadata>
  <g
     inkscape:label="Layer 1"
     inkscape:groupmode="layer"
     id="layer1"
     transform="translate(-329.68876,-487.0491)">
    <g
       transform="matrix(1.25,0,0,-1.25,-141.49212,1247.7506)"
       id="g3711">
      <g
         id="g3713"
         clip-path="url(#clipPath3715)">
        <g
           id="g3719"
           transform="translate(383.1947,536.3112)">
          <path
             inkscape:connector-curvature="0"
             d="m 0,0 59.998,0 c 1.58,0 3.125,0.639 4.244,1.759 1.117,1.117 1.756,2.66 1.756,4.241 l 0,59.999 c 0,1.58 -0.639,3.124 -1.756,4.244 -1.119,1.116 -2.664,1.756 -4.244,1.756 L 0,71.999 c -1.58,0 -3.125,-0.64 -4.241,-1.756 C -5.36,69.123 -6,67.579 -6,65.999 L -6,6 C -6,3.943 -4.909,2 -3.176,0.895 -2.188,0.267 -1.145,0.12 0,0"
             style="fill:#ffffff;fill-opacity:1;fill-rule:nonzero;stroke:none"
             id="path3721" />
        </g>
        <g
           id="g3723"
           transform="translate(383.1947,536.3112)">
          <path
             inkscape:connector-curvature="0"
             d="m 0,0 59.998,0 c 1.58,0 3.125,0.639 4.244,1.759 1.117,1.117 1.756,2.66 1.756,4.241 l 0,59.999 c 0,1.58 -0.639,3.124 -1.756,4.244 -1.119,1.116 -2.664,1.756 -4.244,1.756 L 0,71.999 c -1.58,0 -3.125,-0.64 -4.241,-1.756 C -5.36,69.123 -6,67.579 -6,65.999 L -6,6 C -6,3.943 -4.909,2 -3.176,0.895 -2.188,0.267 -1.145,0.12 0,0 z"
             style="fill:none;stroke:#231f20;stroke-width:0.5;stroke-linecap:butt;stroke-linejoin:miter;stroke-miterlimit:4;stroke-opacity:1;stroke-dasharray:none"
             id="path3725" />
        </g>
        <g
           id="g3727"
           transform="translate(383.1947,537.8112)">
          <path
             inkscape:connector-curvature="0"
             d="M 0,0 C -0.895,0 -1.647,0.201 -2.371,0.66 -3.682,1.494 -4.5,2.966 -4.5,4.5 l 0,59.999 c 0,1.182 0.48,2.343 1.32,3.183 0.834,0.834 1.998,1.317 3.18,1.317 l 59.998,0 c 1.185,0 2.349,-0.48 3.183,-1.317 0.838,-0.834 1.317,-1.998 1.317,-3.183 l 0,-59.999 C 64.498,3.318 64.015,2.154 63.181,1.32 62.341,0.479 61.181,0 59.998,0 L 0,0 z"
             style="fill:#713907;fill-opacity:1;fill-rule:evenodd;stroke:none"
             id="path3729" />
        </g>
      </g>
    </g>
    <g
       id="g4117"
       transform="matrix(1.25,0,0,-1.25,410.165,567.63531)">
      <path
         d="M 0,0 C -1.224,0 -2.398,0.276 -3.445,0.746 -4.517,1.244 -5.728,1.537 -6.99,1.537 -8.252,1.537 -9.46,1.244 -10.537,0.746 -11.584,0.276 -12.755,0 -13.98,0 c -1.223,0 -2.395,0.276 -3.441,0.746 -1.077,0.498 -2.286,0.791 -3.549,0.791 -1.26,0 -2.471,-0.293 -3.545,-0.791 C -25.564,0.276 -26.732,0 -27.957,0 c -1.224,0 -2.398,0.276 -3.445,0.746 -1.076,0.498 -2.283,0.791 -3.545,0.791 -1.262,0 -2.472,-0.293 -3.547,-0.791 C -39.541,0.276 -40.712,0 -41.937,0 c -1.223,0 -2.395,0.276 -3.445,0.746 -1.073,0.498 -2.284,0.791 -3.543,0.791 -1.264,0 -2.473,-0.293 -3.549,-0.791 C -53.521,0.276 -54.695,0 -55.916,0 l 0,5.162 c 1.221,0 2.395,0.274 3.442,0.745 1.076,0.5 2.285,0.791 3.549,0.791 1.259,0 2.47,-0.291 3.543,-0.791 1.05,-0.471 2.222,-0.745 3.445,-0.745 1.225,0 2.396,0.274 3.443,0.745 1.075,0.5 2.285,0.791 3.547,0.791 1.262,0 2.469,-0.291 3.545,-0.791 1.047,-0.471 2.221,-0.745 3.445,-0.745 1.225,0 2.393,0.274 3.442,0.745 1.074,0.5 2.285,0.791 3.545,0.791 1.263,0 2.472,-0.291 3.549,-0.791 1.046,-0.471 2.218,-0.745 3.441,-0.745 1.225,0 2.396,0.274 3.443,0.745 1.077,0.5 2.285,0.791 3.547,0.791 1.262,0 2.473,-0.291 3.545,-0.791 C -2.398,5.436 -1.224,5.162 0,5.162 L 0,0 z"
         style="fill:#ffffff;fill-opacity:1;fill-rule:nonzero;stroke:none"
         id="path4119"
         inkscape:connector-curvature="0" />
    </g>
    <g
       id="g4121"
       transform="matrix(1.25,0,0,-1.25,360.04876,536.87781)">
      <path
         d="M 0,0 C 2.601,0 4.713,2.111 4.713,4.715 4.713,7.318 2.601,9.431 0,9.431 -2.604,9.431 -4.717,7.318 -4.717,4.715 -4.717,2.111 -2.604,0 0,0"
         style="fill:#ffffff;fill-opacity:1;fill-rule:nonzero;stroke:none"
         id="path4123"
         inkscape:connector-curvature="0" />
    </g>
    <g
       id="g4125"
       transform="matrix(1.25,0,0,-1.25,360.88125,557.27156)">
      <path
         d="M 0,0 C -0.742,-1.267 -2.371,-1.691 -3.637,-0.949 -4.905,-0.207 -5.328,1.42 -4.588,2.686 L 6.349,21.528 c 0.403,0.699 0.985,1.283 1.686,1.683 l 14.051,8.512 9.562,16.268 c 0.904,1.582 2.922,2.125 4.504,1.216 1.578,-0.91 2.123,-2.925 1.213,-4.506 L 25.927,25.223 c -0.4,-0.701 -0.982,-1.283 -1.683,-1.684 L 7.65,13.229 0,0 z"
         style="fill:#ffffff;fill-opacity:1;fill-rule:nonzero;stroke:none"
         id="path4127"
         inkscape:connector-curvature="0" />
    </g>
  </g>
</svg>
