<?xml version="1.0" encoding="UTF-8" standalone="no"?>
<!-- Created with Inkscape (http://www.inkscape.org/) -->

<svg
   xmlns:dc="http://purl.org/dc/elements/1.1/"
   xmlns:cc="http://creativecommons.org/ns#"
   xmlns:rdf="http://www.w3.org/1999/02/22-rdf-syntax-ns#"
   xmlns:svg="http://www.w3.org/2000/svg"
   xmlns="http://www.w3.org/2000/svg"
   xmlns:sodipodi="http://sodipodi.sourceforge.net/DTD/sodipodi-0.dtd"
   xmlns:inkscape="http://www.inkscape.org/namespaces/inkscape"
   width="90.624374"
   height="90.625"
   id="svg5988"
   version="1.1"
   inkscape:version="0.48.3.1 r9886"
   sodipodi:docname="New document 36">
  <defs
     id="defs5990">
    <clipPath
       clipPathUnits="userSpaceOnUse"
       id="clipPath4541">
      <path
         inkscape:connector-curvature="0"
         d="m 27,32 511.888,0 0,459.994 L 27,491.994 27,32 z"
         id="path4543" />
    </clipPath>
    <clipPath
       clipPathUnits="userSpaceOnUse"
       id="clipPath4529">
      <path
         inkscape:connector-curvature="0"
         d="m 30.556,43.282 504.778,0 0,437.431 -504.778,0 0,-437.431 z"
         id="path4531" />
    </clipPath>
    <clipPath
       clipPathUnits="userSpaceOnUse"
       id="clipPath4517">
      <path
         inkscape:connector-curvature="0"
         d="m 27,32 511.888,0 0,459.994 L 27,491.994 27,32 z"
         id="path4519" />
    </clipPath>
  </defs>
  <sodipodi:namedview
     id="base"
     pagecolor="#ffffff"
     bordercolor="#666666"
     borderopacity="1.0"
     inkscape:pageopacity="0.0"
     inkscape:pageshadow="2"
     inkscape:zoom="0.35"
     inkscape:cx="45.31156"
     inkscape:cy="45.311872"
     inkscape:document-units="px"
     inkscape:current-layer="layer1"
     showgrid="false"
     fit-margin-top="0"
     fit-margin-left="0"
     fit-margin-right="0"
     fit-margin-bottom="0"
     inkscape:window-width="451"
     inkscape:window-height="398"
     inkscape:window-x="25"
     inkscape:window-y="25"
     inkscape:window-maximized="0" />
  <metadata
     id="metadata5993">
    <rdf:RDF>
      <cc:Work
         rdf:about="">
        <dc:format>image/svg+xml</dc:format>
        <dc:type
           rdf:resource="http://purl.org/dc/dcmitype/StillImage" />
        <dc:title></dc:title>
      </cc:Work>
    </rdf:RDF>
  </metadata>
  <g
     inkscape:label="Layer 1"
     inkscape:groupmode="layer"
     id="layer1"
     transform="translate(-329.68844,-487.04905)">
    <g
       transform="matrix(1.25,0,0,-1.25,291.49344,927.50468)"
       id="g4513">
      <g
         id="g4515"
         clip-path="url(#clipPath4517)">
        <g
           id="g4521"
           transform="translate(36.8055,280.1145)">
          <path
             inkscape:connector-curvature="0"
             d="m 0,0 59.999,0 c 1.58,0 3.125,0.64 4.244,1.76 1.117,1.116 1.756,2.66 1.756,4.24 l 0,59.999 c 0,1.58 -0.639,3.124 -1.756,4.245 -1.119,1.116 -2.664,1.755 -4.244,1.755 L 0,71.999 c -1.58,0 -3.125,-0.639 -4.24,-1.755 C -5.359,69.123 -6,67.579 -6,65.999 L -6,6 C -6,3.944 -4.908,2 -3.176,0.896 -2.187,0.268 -1.145,0.12 0,0"
             style="fill:#ffffff;fill-opacity:1;fill-rule:nonzero;stroke:none"
             id="path4523" />
        </g>
      </g>
    </g>
    <g
       transform="matrix(1.25,0,0,-1.25,291.49344,927.50468)"
       id="g4525">
      <g
         id="g4527"
         clip-path="url(#clipPath4529)">
        <g
           id="g4533"
           transform="translate(36.8055,280.1145)">
          <path
             inkscape:connector-curvature="0"
             d="m 0,0 59.999,0 c 1.58,0 3.125,0.64 4.244,1.76 1.117,1.116 1.756,2.66 1.756,4.24 l 0,59.999 c 0,1.58 -0.639,3.124 -1.756,4.245 -1.119,1.116 -2.664,1.755 -4.244,1.755 L 0,71.999 c -1.58,0 -3.125,-0.639 -4.24,-1.755 C -5.359,69.123 -6,67.579 -6,65.999 L -6,6 C -6,3.944 -4.908,2 -3.176,0.896 -2.187,0.268 -1.145,0.12 0,0 z"
             style="fill:none;stroke:#231f20;stroke-width:0.5;stroke-linecap:butt;stroke-linejoin:miter;stroke-miterlimit:4;stroke-opacity:1;stroke-dasharray:none"
             id="path4535" />
        </g>
      </g>
    </g>
    <g
       transform="matrix(1.25,0,0,-1.25,291.49344,927.50468)"
       id="g4537">
      <g
         id="g4539"
         clip-path="url(#clipPath4541)">
        <g
           id="g4545"
           transform="translate(36.8055,281.6145)">
          <path
             inkscape:connector-curvature="0"
             d="M 0,0 C -0.895,0 -1.646,0.202 -2.371,0.66 -3.682,1.494 -4.5,2.967 -4.5,4.5 l 0,59.999 c 0,1.183 0.48,2.344 1.32,3.184 0.834,0.834 1.998,1.316 3.18,1.316 l 59.999,0 c 1.186,0 2.35,-0.479 3.184,-1.316 0.838,-0.834 1.316,-1.998 1.316,-3.184 l 0,-59.999 C 64.499,3.319 64.017,2.155 63.183,1.321 62.343,0.48 61.183,0 59.999,0 L 0,0 z"
             style="fill:#713907;fill-opacity:1;fill-rule:evenodd;stroke:none"
             id="path4547" />
        </g>
        <g
           id="g4549"
           transform="translate(76.9862,333.0835)">
          <path
             inkscape:connector-curvature="0"
             d="M 0,0 -1.705,1.727 -3.371,0.043 -5.01,1.701 -6.648,0.043 -8.285,1.701 -10.416,-0.455 -13.152,-0.48 c -1.176,-2.077 -3.379,-3.5 -5.934,-3.5 -3.781,0 -6.846,3.064 -6.846,6.845 0,3.784 3.065,6.846 6.846,6.846 2.522,0 4.699,-1.389 5.889,-3.422 L 0.588,6.264 2.895,3.926 C 3.256,3.559 3.236,3.25 2.908,2.916 L 0.041,0.012 m -22.119,1.121 c 1.016,0 1.84,0.826 1.84,1.84 0,1.013 -0.824,1.84 -1.84,1.84 -1.016,0 -1.838,-0.827 -1.838,-1.84 0,-1.014 0.822,-1.84 1.838,-1.84"
             style="fill:#ffffff;fill-opacity:1;fill-rule:nonzero;stroke:none"
             id="path4551" />
        </g>
        <path
           inkscape:connector-curvature="0"
           d="m 87.912,289.808 -45.106,0 0,36.133 45.106,0 0,-36.133 z M 48,295.003 l 34.701,0 0,25.725 -34.701,0 0,-25.725 z"
           style="fill:#ffffff;fill-opacity:1;fill-rule:nonzero;stroke:none"
           id="path4553" />
        <g
           id="g4555"
           transform="translate(57.4559,298.7695)">
          <path
             inkscape:connector-curvature="0"
             d="m 0,0 -1.746,0 c -1.203,0 -2.371,0.89 -2.371,2.435 l 0,11.051 c 0,1.381 1.14,2.422 2.371,2.422 L 0,15.908 0,0 z"
             style="fill:#ffffff;fill-opacity:1;fill-rule:nonzero;stroke:none"
             id="path4557" />
        </g>
        <g
           id="g4559"
           transform="translate(74.3797,298.7695)">
          <path
             inkscape:connector-curvature="0"
             d="m 0,0 1.744,0 c 1.205,0 2.373,0.89 2.373,2.435 l 0,11.051 c 0,1.381 -1.14,2.422 -2.373,2.422 L 0,15.908 0,0 z"
             style="fill:#ffffff;fill-opacity:1;fill-rule:nonzero;stroke:none"
             id="path4561" />
        </g>
        <path
           inkscape:connector-curvature="0"
           d="m 68.001,314.65 -4.254,0 0,2.303 4.254,0 0,-2.303 z m 1.207,0 0,2.234 c 0,0.834 -0.731,1.361 -1.613,1.361 l -3.391,0 c -0.885,0 -1.627,-0.527 -1.627,-1.361 l 0,-2.234 -3.176,0 0,-15.91 13.012,0 0,15.91 -3.205,0 z"
           style="fill:#ffffff;fill-opacity:1;fill-rule:nonzero;stroke:none"
           id="path4563" />
      </g>
    </g>
  </g>
</svg>
