<?xml version="1.0" encoding="UTF-8" standalone="no"?>
<!-- Created with Inkscape (http://www.inkscape.org/) -->

<svg
   xmlns:dc="http://purl.org/dc/elements/1.1/"
   xmlns:cc="http://creativecommons.org/ns#"
   xmlns:rdf="http://www.w3.org/1999/02/22-rdf-syntax-ns#"
   xmlns:svg="http://www.w3.org/2000/svg"
   xmlns="http://www.w3.org/2000/svg"
   xmlns:sodipodi="http://sodipodi.sourceforge.net/DTD/sodipodi-0.dtd"
   xmlns:inkscape="http://www.inkscape.org/namespaces/inkscape"
   width="90.625"
   height="90.625"
   id="svg5532"
   version="1.1"
   inkscape:version="0.48.3.1 r9886"
   sodipodi:docname="New document 24">
  <defs
     id="defs5534">
    <clipPath
       clipPathUnits="userSpaceOnUse"
       id="clipPath4039">
      <path
         inkscape:connector-curvature="0"
         d="m 27,45 513,0 0,693 -513,0 0,-693 z"
         id="path4041" />
    </clipPath>
  </defs>
  <sodipodi:namedview
     id="base"
     pagecolor="#ffffff"
     bordercolor="#666666"
     borderopacity="1.0"
     inkscape:pageopacity="0.0"
     inkscape:pageshadow="2"
     inkscape:zoom="0.35"
     inkscape:cx="45.311875"
     inkscape:cy="45.311917"
     inkscape:document-units="px"
     inkscape:current-layer="layer1"
     showgrid="false"
     fit-margin-top="0"
     fit-margin-left="0"
     fit-margin-right="0"
     fit-margin-bottom="0"
     inkscape:window-width="451"
     inkscape:window-height="398"
     inkscape:window-x="25"
     inkscape:window-y="25"
     inkscape:window-maximized="0" />
  <metadata
     id="metadata5537">
    <rdf:RDF>
      <cc:Work
         rdf:about="">
        <dc:format>image/svg+xml</dc:format>
        <dc:type
           rdf:resource="http://purl.org/dc/dcmitype/StillImage" />
        <dc:title></dc:title>
      </cc:Work>
    </rdf:RDF>
  </metadata>
  <g
     inkscape:label="Layer 1"
     inkscape:groupmode="layer"
     id="layer1"
     transform="translate(-329.68813,-487.0491)">
    <g
       transform="matrix(1.25,0,0,-1.25,-33.414,1247.7506)"
       id="g4035">
      <g
         id="g4037"
         clip-path="url(#clipPath4039)">
        <g
           id="g4043"
           transform="translate(296.7317,536.3112)">
          <path
             inkscape:connector-curvature="0"
             d="m 0,0 59.999,0 c 1.58,0 3.125,0.639 4.244,1.759 1.117,1.117 1.756,2.66 1.756,4.241 l 0,59.999 c 0,1.58 -0.639,3.124 -1.756,4.244 -1.119,1.116 -2.664,1.756 -4.244,1.756 L 0,71.999 c -1.579,0 -3.124,-0.64 -4.241,-1.756 C -5.36,69.123 -6,67.579 -6,65.999 L -6,6 C -6,3.943 -4.908,2 -3.176,0.895 -2.188,0.267 -1.144,0.12 0,0"
             style="fill:#ffffff;fill-opacity:1;fill-rule:nonzero;stroke:none"
             id="path4045" />
        </g>
        <g
           id="g4047"
           transform="translate(296.7317,536.3112)">
          <path
             inkscape:connector-curvature="0"
             d="m 0,0 59.999,0 c 1.58,0 3.125,0.639 4.244,1.759 1.117,1.117 1.756,2.66 1.756,4.241 l 0,59.999 c 0,1.58 -0.639,3.124 -1.756,4.244 -1.119,1.116 -2.664,1.756 -4.244,1.756 L 0,71.999 c -1.579,0 -3.124,-0.64 -4.241,-1.756 C -5.36,69.123 -6,67.579 -6,65.999 L -6,6 C -6,3.943 -4.908,2 -3.176,0.895 -2.188,0.267 -1.144,0.12 0,0 z"
             style="fill:none;stroke:#231f20;stroke-width:0.5;stroke-linecap:butt;stroke-linejoin:miter;stroke-miterlimit:4;stroke-opacity:1;stroke-dasharray:none"
             id="path4049" />
        </g>
        <g
           id="g4051"
           transform="translate(296.7317,537.8112)">
          <path
             inkscape:connector-curvature="0"
             d="M 0,0 C -0.894,0 -1.647,0.201 -2.37,0.66 -3.681,1.494 -4.5,2.966 -4.5,4.5 l 0,59.999 c 0,1.182 0.48,2.343 1.32,3.183 0.834,0.834 1.998,1.317 3.18,1.317 l 59.999,0 c 1.185,0 2.349,-0.48 3.183,-1.317 0.838,-0.834 1.317,-1.998 1.317,-3.183 l 0,-59.999 C 64.499,3.318 64.016,2.154 63.182,1.32 62.342,0.479 61.182,0 59.999,0 L 0,0 z"
             style="fill:#713907;fill-opacity:1;fill-rule:evenodd;stroke:none"
             id="path4053" />
        </g>
        <g
           id="g4055"
           transform="translate(355.1917,550.4852)">
          <path
             inkscape:connector-curvature="0"
             d="M 0,0 C -1.223,0 -2.397,0.276 -3.448,0.744 -4.52,1.243 -5.729,1.536 -6.991,1.536 -8.254,1.536 -9.463,1.243 -10.537,0.744 -11.584,0.276 -12.76,0 -13.981,0 c -1.222,0 -2.396,0.276 -3.443,0.744 -1.076,0.499 -2.283,0.792 -3.547,0.792 -1.262,0 -2.471,-0.293 -3.545,-0.792 C -25.563,0.276 -26.739,0 -27.961,0 c -1.221,0 -2.393,0.276 -3.444,0.744 -1.072,0.499 -2.283,0.792 -3.546,0.792 -1.262,0 -2.469,-0.293 -3.545,-0.792 C -39.543,0.276 -40.717,0 -41.942,0 c -1.218,0 -2.392,0.276 -3.441,0.744 -1.072,0.499 -2.283,0.792 -3.549,0.792 -1.26,0 -2.469,-0.293 -3.543,-0.792 C -53.522,0.276 -54.698,0 -55.918,0 l 0,5.161 c 1.22,0 2.396,0.275 3.443,0.744 1.074,0.5 2.283,0.791 3.543,0.791 1.266,0 2.477,-0.291 3.549,-0.791 1.049,-0.469 2.223,-0.744 3.441,-0.744 1.225,0 2.399,0.275 3.446,0.744 1.076,0.5 2.283,0.791 3.545,0.791 1.263,0 2.474,-0.291 3.546,-0.791 1.051,-0.469 2.223,-0.744 3.444,-0.744 1.222,0 2.398,0.275 3.445,0.744 1.074,0.5 2.283,0.791 3.545,0.791 1.264,0 2.471,-0.291 3.547,-0.791 1.047,-0.469 2.221,-0.744 3.443,-0.744 1.221,0 2.397,0.275 3.444,0.744 1.074,0.5 2.283,0.791 3.546,0.791 1.262,0 2.471,-0.291 3.543,-0.791 C -2.397,5.436 -1.223,5.161 0,5.161 L 0,0 z"
             style="fill:#ffffff;fill-opacity:1;fill-rule:nonzero;stroke:none"
             id="path4057" />
        </g>
        <g
           id="g4059"
           transform="translate(346.3787,562.6142)">
          <path
             inkscape:connector-curvature="0"
             d="m 0,0 c 3.676,0 6.656,2.983 6.656,6.657 0,3.677 -2.98,6.656 -6.656,6.656 -3.678,0 -6.658,-2.979 -6.658,-6.656 C -6.658,2.983 -3.943,0 0,0"
             style="fill:#ffffff;fill-opacity:1;fill-rule:nonzero;stroke:none"
             id="path4061" />
        </g>
        <g
           id="g4063"
           transform="translate(346.3787,562.6142)">
          <path
             inkscape:connector-curvature="0"
             d="m 0,0 c 3.676,0 6.656,2.983 6.656,6.657 0,3.677 -2.98,6.656 -6.656,6.656 -3.678,0 -6.658,-2.979 -6.658,-6.656 C -6.658,2.983 -3.943,0 0,0 z"
             style="fill:none;stroke:#231f20;stroke-width:0.055;stroke-linecap:butt;stroke-linejoin:miter;stroke-miterlimit:10;stroke-opacity:1;stroke-dasharray:none"
             id="path4065" />
        </g>
        <g
           id="g4067"
           transform="translate(308.3497,558.8682)">
          <path
             inkscape:connector-curvature="0"
             d="m 0,0 c 0.506,-0.131 0.996,-0.308 1.459,-0.525 1.049,-0.469 2.223,-0.744 3.441,-0.744 1.225,0 2.399,0.275 3.446,0.744 1.076,0.5 2.283,0.793 3.545,0.793 1.263,0 2.474,-0.293 3.546,-0.793 1.051,-0.469 2.223,-0.744 3.444,-0.744 1.222,0 2.398,0.275 3.445,0.744 1.074,0.5 2.283,0.793 3.545,0.793 1.264,0 2.471,-0.293 3.547,-0.793 1.047,-0.469 2.221,-0.744 3.443,-0.744 0.891,0 1.754,0.146 2.565,0.408 L 24.336,19.158 37.24,21.52 c 1.891,0.361 3.258,1.841 3.258,3.756 0,2.095 -1.699,3.793 -3.795,3.793 -0.145,0 -0.291,-0.008 -0.434,-0.026 L 16.342,25.418 c -1.403,-0.326 -3.256,-2.369 -2.207,-4.89 0.056,-0.137 0.109,-0.27 0.175,-0.399 L 19.506,10.731 0,0 z"
             style="fill:#ffffff;fill-opacity:1;fill-rule:nonzero;stroke:none"
             id="path4069" />
        </g>
      </g>
    </g>
  </g>
</svg>
