<?xml version="1.0" encoding="UTF-8" standalone="no"?>
<!-- Created with Inkscape (http://www.inkscape.org/) -->

<svg
   xmlns:dc="http://purl.org/dc/elements/1.1/"
   xmlns:cc="http://creativecommons.org/ns#"
   xmlns:rdf="http://www.w3.org/1999/02/22-rdf-syntax-ns#"
   xmlns:svg="http://www.w3.org/2000/svg"
   xmlns="http://www.w3.org/2000/svg"
   xmlns:sodipodi="http://sodipodi.sourceforge.net/DTD/sodipodi-0.dtd"
   xmlns:inkscape="http://www.inkscape.org/namespaces/inkscape"
   width="90.625"
   height="90.625"
   id="svg5037"
   version="1.1"
   inkscape:version="0.48.3.1 r9886"
   sodipodi:docname="New document 12">
  <defs
     id="defs5039">
    <clipPath
       clipPathUnits="userSpaceOnUse"
       id="clipPath3553">
      <path
         inkscape:connector-curvature="0"
         d="m 27,45 513,0 0,693 -513,0 0,-693 z"
         id="path3555" />
    </clipPath>
  </defs>
  <sodipodi:namedview
     id="base"
     pagecolor="#ffffff"
     bordercolor="#666666"
     borderopacity="1.0"
     inkscape:pageopacity="0.0"
     inkscape:pageshadow="2"
     inkscape:zoom="0.35"
     inkscape:cx="-73.974464"
     inkscape:cy="39.597617"
     inkscape:document-units="px"
     inkscape:current-layer="layer1"
     showgrid="false"
     fit-margin-top="0"
     fit-margin-left="0"
     fit-margin-right="0"
     fit-margin-bottom="0"
     inkscape:window-width="451"
     inkscape:window-height="398"
     inkscape:window-x="125"
     inkscape:window-y="125"
     inkscape:window-maximized="0" />
  <metadata
     id="metadata5042">
    <rdf:RDF>
      <cc:Work
         rdf:about="">
        <dc:format>image/svg+xml</dc:format>
        <dc:type
           rdf:resource="http://purl.org/dc/dcmitype/StillImage" />
        <dc:title></dc:title>
      </cc:Work>
    </rdf:RDF>
  </metadata>
  <g
     inkscape:label="Layer 1"
     inkscape:groupmode="layer"
     id="layer1"
     transform="translate(-448.97446,-481.3348)">
    <g
       transform="matrix(1.25,0,0,-1.25,85.871089,1375.2553)"
       id="g3549">
      <g
         id="g3551"
         clip-path="url(#clipPath3553)">
        <g
           id="g3557"
           transform="translate(296.7327,642.8864)">
          <path
             inkscape:connector-curvature="0"
             d="m 0,0 59.998,0 c 1.58,0 3.125,0.64 4.244,1.76 1.117,1.116 1.756,2.66 1.756,4.24 l 0,59.999 c 0,1.58 -0.639,3.124 -1.756,4.244 -1.119,1.116 -2.664,1.756 -4.244,1.756 L 0,71.999 c -1.58,0 -3.125,-0.64 -4.241,-1.756 C -5.36,69.123 -6,67.579 -6,65.999 L -6,6 C -6,3.943 -4.909,2 -3.176,0.896 -2.188,0.268 -1.145,0.12 0,0"
             style="fill:#ffffff;fill-opacity:1;fill-rule:nonzero;stroke:none"
             id="path3559" />
        </g>
        <g
           id="g3561"
           transform="translate(296.7327,642.8864)">
          <path
             inkscape:connector-curvature="0"
             d="m 0,0 59.998,0 c 1.58,0 3.125,0.64 4.244,1.76 1.117,1.116 1.756,2.66 1.756,4.24 l 0,59.999 c 0,1.58 -0.639,3.124 -1.756,4.244 -1.119,1.116 -2.664,1.756 -4.244,1.756 L 0,71.999 c -1.58,0 -3.125,-0.64 -4.241,-1.756 C -5.36,69.123 -6,67.579 -6,65.999 L -6,6 C -6,3.943 -4.909,2 -3.176,0.896 -2.188,0.268 -1.145,0.12 0,0 z"
             style="fill:none;stroke:#231f20;stroke-width:0.5;stroke-linecap:butt;stroke-linejoin:miter;stroke-miterlimit:4;stroke-opacity:1;stroke-dasharray:none"
             id="path3563" />
        </g>
        <g
           id="g3565"
           transform="translate(296.7327,644.3864)">
          <path
             inkscape:connector-curvature="0"
             d="M 0,0 C -0.895,0 -1.647,0.201 -2.371,0.66 -3.682,1.494 -4.5,2.967 -4.5,4.5 l 0,59.999 c 0,1.183 0.48,2.344 1.32,3.184 0.834,0.834 1.998,1.316 3.18,1.316 l 59.998,0 c 1.185,0 2.349,-0.479 3.183,-1.316 0.838,-0.834 1.317,-1.998 1.317,-3.184 l 0,-59.999 C 64.498,3.318 64.015,2.154 63.181,1.32 62.341,0.48 61.181,0 59.998,0 L 0,0 z"
             style="fill:#713907;fill-opacity:1;fill-rule:evenodd;stroke:none"
             id="path3567" />
        </g>
      </g>
    </g>
    <g
       id="g3955"
       transform="matrix(1.25,0,0,-1.25,532.05197,542.03115)">
      <path
         d="m 0,0 c -1.225,0 -2.399,0.277 -3.446,0.744 -1.076,0.502 -2.283,0.793 -3.545,0.793 -1.261,0 -2.474,-0.291 -3.546,-0.793 C -11.588,0.277 -12.756,0 -13.981,0 c -1.223,0 -2.398,0.277 -3.445,0.744 -1.074,0.502 -2.281,0.793 -3.545,0.793 -1.262,0 -2.475,-0.291 -3.545,-0.793 C -25.565,0.277 -26.737,0 -27.959,0 c -1.223,0 -2.399,0.277 -3.446,0.744 -1.074,0.502 -2.281,0.793 -3.543,0.793 -1.263,0 -2.472,-0.291 -3.547,-0.793 C -39.545,0.277 -40.715,0 -41.938,0 c -1.224,0 -2.398,0.277 -3.445,0.744 -1.076,0.502 -2.283,0.793 -3.545,0.793 -1.262,0 -2.471,-0.291 -3.547,-0.793 C -53.526,0.277 -54.694,0 -55.918,0 l 0,5.162 c 1.224,0 2.392,0.273 3.443,0.744 1.076,0.5 2.285,0.791 3.547,0.791 1.262,0 2.469,-0.291 3.545,-0.791 1.047,-0.471 2.221,-0.744 3.445,-0.744 1.223,0 2.393,0.273 3.443,0.744 1.075,0.5 2.284,0.791 3.547,0.791 1.262,0 2.469,-0.291 3.543,-0.791 1.047,-0.471 2.223,-0.744 3.446,-0.744 1.222,0 2.394,0.273 3.443,0.744 1.07,0.5 2.283,0.791 3.545,0.791 1.264,0 2.471,-0.291 3.545,-0.791 1.047,-0.471 2.222,-0.744 3.445,-0.744 1.225,0 2.393,0.273 3.444,0.744 1.072,0.5 2.285,0.791 3.546,0.791 1.262,0 2.469,-0.291 3.545,-0.791 C -2.399,5.435 -1.225,5.162 0,5.162 L 0,0 z"
         style="fill:#ffffff;fill-opacity:1;fill-rule:nonzero;stroke:none"
         id="path3957"
         inkscape:connector-curvature="0" />
    </g>
    <g
       id="g3959"
       transform="matrix(1.25,0,0,-1.25,514.48572,520.26839)">
      <path
         d="M 0,0 10.162,-0.793 9.392,4.402 1.937,4.93 C -0.084,5.027 0.205,3.006 0.205,3.006 L 0,0 z"
         style="fill:#ffffff;fill-opacity:1;fill-rule:nonzero;stroke:none"
         id="path3961"
         inkscape:connector-curvature="0" />
    </g>
    <g
       id="g3963"
       transform="matrix(1.25,0,0,-1.25,490.92071,518.78652)">
      <path
         d="M 0,0 C 1.862,0 3.364,1.508 3.364,3.369 3.364,5.229 1.862,6.736 0,6.736 -1.861,6.736 -3.369,5.229 -3.369,3.369 -3.369,1.508 -1.861,0 0,0"
         style="fill:#ffffff;fill-opacity:1;fill-rule:nonzero;stroke:none"
         id="path3965"
         inkscape:connector-curvature="0" />
    </g>
    <g
       id="g3967"
       transform="matrix(1.25,0,0,-1.25,464.91071,532.79039)">
      <path
         d="m 0,0 c 0.427,0.119 0.842,0.289 1.238,0.467 1.076,0.5 2.285,0.793 3.547,0.793 1.262,0 2.469,-0.293 3.545,-0.793 1.047,-0.469 2.221,-0.744 3.445,-0.744 1.223,0 2.393,0.275 3.443,0.744 1.075,0.5 2.284,0.793 3.547,0.793 1.262,0 2.469,-0.293 3.543,-0.793 1.047,-0.469 2.223,-0.744 3.446,-0.744 1.222,0 2.394,0.275 3.443,0.744 1.07,0.5 2.283,0.793 3.545,0.793 1.264,0 2.471,-0.293 3.545,-0.793 1.047,-0.469 2.222,-0.744 3.445,-0.744 1.225,0 2.393,0.275 3.444,0.744 1.072,0.5 2.285,0.793 3.546,0.793 1.262,0 2.469,-0.293 3.545,-0.793 1.047,-0.469 2.213,-0.744 3.438,-0.744 l -1.149,7.433 -42.242,3.529 6.367,6.432 -2.789,0.246 L 7.519,10.93 -6.324,12.062 C -6.408,7.348 -1.147,1.271 0,0"
         style="fill:#ffffff;fill-opacity:1;fill-rule:nonzero;stroke:none"
         id="path3969"
         inkscape:connector-curvature="0" />
    </g>
  </g>
</svg>
