<?xml version="1.0" encoding="UTF-8" standalone="no"?>
<!-- Created with Inkscape (http://www.inkscape.org/) -->

<svg
   xmlns:dc="http://purl.org/dc/elements/1.1/"
   xmlns:cc="http://creativecommons.org/ns#"
   xmlns:rdf="http://www.w3.org/1999/02/22-rdf-syntax-ns#"
   xmlns:svg="http://www.w3.org/2000/svg"
   xmlns="http://www.w3.org/2000/svg"
   xmlns:sodipodi="http://sodipodi.sourceforge.net/DTD/sodipodi-0.dtd"
   xmlns:inkscape="http://www.inkscape.org/namespaces/inkscape"
   width="90.625"
   height="90.625"
   id="svg6055"
   version="1.1"
   inkscape:version="0.48.3.1 r9886"
   sodipodi:docname="New document 49">
  <defs
     id="defs6057">
    <clipPath
       clipPathUnits="userSpaceOnUse"
       id="clipPath3841">
      <path
         inkscape:connector-curvature="0"
         d="m 63,178.034 513,0 0,559.966 -513,0 0,-559.966 z"
         id="path3843" />
    </clipPath>
  </defs>
  <sodipodi:namedview
     id="base"
     pagecolor="#ffffff"
     bordercolor="#666666"
     borderopacity="1.0"
     inkscape:pageopacity="0.0"
     inkscape:pageshadow="2"
     inkscape:zoom="0.35"
     inkscape:cx="45.311875"
     inkscape:cy="45.312502"
     inkscape:document-units="px"
     inkscape:current-layer="layer1"
     showgrid="false"
     fit-margin-top="0"
     fit-margin-left="0"
     fit-margin-right="0"
     fit-margin-bottom="0"
     inkscape:window-width="451"
     inkscape:window-height="398"
     inkscape:window-x="175"
     inkscape:window-y="175"
     inkscape:window-maximized="0" />
  <metadata
     id="metadata6060">
    <rdf:RDF>
      <cc:Work
         rdf:about="">
        <dc:format>image/svg+xml</dc:format>
        <dc:type
           rdf:resource="http://purl.org/dc/dcmitype/StillImage" />
        <dc:title></dc:title>
      </cc:Work>
    </rdf:RDF>
  </metadata>
  <g
     inkscape:label="Layer 1"
     inkscape:groupmode="layer"
     id="layer1"
     transform="translate(-329.68813,-487.04968)">
    <g
       transform="matrix(1.25,0,0,-1.25,31.944875,965.83706)"
       id="g3837">
      <g
         id="g3839"
         clip-path="url(#clipPath3841)">
        <g
           id="g3845"
           transform="translate(244.4446,310.7799)">
          <path
             inkscape:connector-curvature="0"
             d="m 0,0 59.999,0 c 1.58,0 3.125,0.639 4.244,1.76 1.117,1.115 1.756,2.66 1.756,4.24 l 0,59.998 c 0,1.58 -0.639,3.125 -1.756,4.244 C 63.124,71.36 61.579,72 59.999,72 L 0,72 C -1.579,72 -3.124,71.36 -4.241,70.242 -5.36,69.123 -6,67.578 -6,65.998 L -6,6 C -6,3.944 -4.909,2 -3.176,0.895 -2.188,0.268 -1.144,0.119 0,0"
             style="fill:#ffffff;fill-opacity:1;fill-rule:nonzero;stroke:none"
             id="path3847" />
        </g>
        <g
           id="g3849"
           transform="translate(244.4446,310.7799)">
          <path
             inkscape:connector-curvature="0"
             d="m 0,0 59.999,0 c 1.58,0 3.125,0.639 4.244,1.76 1.117,1.115 1.756,2.66 1.756,4.24 l 0,59.998 c 0,1.58 -0.639,3.125 -1.756,4.244 C 63.124,71.36 61.579,72 59.999,72 L 0,72 C -1.579,72 -3.124,71.36 -4.241,70.242 -5.36,69.123 -6,67.578 -6,65.998 L -6,6 C -6,3.944 -4.909,2 -3.176,0.895 -2.188,0.268 -1.144,0.119 0,0 z"
             style="fill:none;stroke:#231f20;stroke-width:0.5;stroke-linecap:butt;stroke-linejoin:miter;stroke-miterlimit:4;stroke-opacity:1;stroke-dasharray:none"
             id="path3851" />
        </g>
        <g
           id="g3853"
           transform="translate(244.4446,312.2799)">
          <path
             inkscape:connector-curvature="0"
             d="M 0,0 C -0.894,0 -1.647,0.201 -2.37,0.66 -3.681,1.494 -4.5,2.967 -4.5,4.5 l 0,59.998 c 0,1.184 0.48,2.344 1.32,3.184 0.834,0.834 1.998,1.316 3.18,1.316 l 59.999,0 c 1.185,0 2.349,-0.478 3.183,-1.316 0.838,-0.834 1.317,-1.998 1.317,-3.184 l 0,-59.998 C 64.499,3.319 64.016,2.155 63.182,1.321 62.342,0.479 61.182,0 59.999,0 L 0,0 z"
             style="fill:#713907;fill-opacity:1;fill-rule:evenodd;stroke:none"
             id="path3855" />
        </g>
        <g
           id="g3857"
           transform="translate(267.2107,366.9789)">
          <path
             inkscape:connector-curvature="0"
             d="m 0,0 c -2.631,0 -4.765,2.135 -4.765,4.77 0,2.633 2.134,4.766 4.765,4.766 2.635,0 4.768,-2.133 4.768,-4.766 C 4.768,2.135 2.635,0 0,0"
             style="fill:#ffffff;fill-opacity:1;fill-rule:nonzero;stroke:none"
             id="path3859" />
        </g>
        <g
           id="g3861"
           transform="translate(288.8616,357.4949)">
          <path
             inkscape:connector-curvature="0"
             d="m 0,0 -7.444,0 c -0.808,0.811 -5.506,5.504 -6.675,6.674 -0.079,0.08 -0.465,0.439 -0.555,0.502 -1.037,0.822 -2.338,1.32 -3.762,1.32 l -8.801,-0.004 c -3.705,0 -6.166,-3.105 -6.166,-6.267 l 0,-14.551 c -0.008,-2.867 3.731,-2.867 3.731,0 l 0,14.246 1.773,0 0.01,-38.66 c 0,-1.475 1.195,-2.67 2.672,-2.67 1.476,0 2.672,1.195 2.672,2.67 l -0.004,22.422 1.789,0 0.002,-22.422 c 0,-1.475 1.197,-2.67 2.672,-2.67 1.478,0 2.674,1.195 2.674,2.67 l -0.004,39.514 5.912,-5.915 c 0.343,-0.345 0.812,-0.537 1.299,-0.537 l 8.205,0 c 1.015,0 1.839,0.825 1.839,1.836 C 1.839,-0.824 1.015,0 0,0"
             style="fill:#ffffff;fill-opacity:1;fill-rule:nonzero;stroke:none"
             id="path3863" />
        </g>
        <g
           id="g3865"
           transform="translate(261.0606,351.4779)">
          <path
             inkscape:connector-curvature="0"
             d="m 0,0 -11.764,-11.766 c -0.32,-0.32 -0.32,-0.842 0,-1.164 0.321,-0.32 0.842,-0.324 1.164,0 l 2.66,2.66 0,-2.832 -3.089,-3.09 c -0.194,-0.195 -0.194,-0.51 0,-0.707 0.195,-0.193 0.507,-0.189 0.705,0.004 l 2.388,2.393 0.008,-7.196 c 0.004,-0.24 0.197,-0.435 0.44,-0.435 0.244,0 0.441,0.199 0.441,0.441 l -0.018,3.643 1.868,-1.867 c 0.129,-0.125 0.336,-0.122 0.461,0.003 0.126,0.127 0.126,0.331 0,0.459 l -1.887,1.887 0,8.615 7.787,7.787 L 0,0 z"
             style="fill:#ffffff;fill-opacity:1;fill-rule:nonzero;stroke:none"
             id="path3867" />
        </g>
        <g
           id="g3869"
           transform="translate(302.5667,360.1749)">
          <path
             inkscape:connector-curvature="0"
             d="m 0,0 c 0.203,0.203 0.203,0.531 0,0.734 -0.203,0.203 -0.532,0.203 -0.735,0 l -3.084,-3.084 0,3.119 c 0,0.217 -0.168,0.393 -0.386,0.393 -0.217,0 -0.393,-0.176 -0.393,-0.393 l 0,-3.154 -7.199,-7.197 -6.094,0 c 0,0 6.348,6.344 6.734,6.732 0.389,0.387 0.401,0.988 0.401,0.988 l 0,3.418 5.236,4.145 3.619,0 c 0.203,0 0.366,0.162 0.366,0.363 0,0.199 -0.163,0.385 -0.366,0.385 l -3.506,0 3.346,2.744 c 0.197,0.195 0.223,0.49 0.026,0.686 -0.196,0.197 -0.516,0.197 -0.711,0 l -5.223,-4.182 0,5.904 c 0,0.264 -0.189,0.469 -0.453,0.469 -0.262,0 -0.475,-0.205 -0.475,-0.469 l 0,-6.591 -2.535,-2.145 0,3.813 c 0,0.355 -0.269,0.648 -0.625,0.648 -0.355,0 -0.644,-0.293 -0.644,-0.648 l 0,-7.772 -12.51,-12.508 1.652,-1.65 3.723,3.723 15.381,0 c 0.416,0 0.756,0.335 0.756,0.753 0,0.418 -0.34,0.758 -0.756,0.758 l -5.592,-0.015 2.818,2.812 5.158,0 c 0.325,0 0.588,0.26 0.588,0.582 0,0.326 -0.261,0.584 -0.584,0.588 L -6.063,-6.049 0,0 z"
             style="fill:#ffffff;fill-opacity:1;fill-rule:nonzero;stroke:none"
             id="path3871" />
        </g>
      </g>
    </g>
  </g>
</svg>
