<?xml version="1.0" encoding="UTF-8" standalone="no"?>
<!-- Created with Inkscape (http://www.inkscape.org/) -->

<svg
   xmlns:dc="http://purl.org/dc/elements/1.1/"
   xmlns:cc="http://creativecommons.org/ns#"
   xmlns:rdf="http://www.w3.org/1999/02/22-rdf-syntax-ns#"
   xmlns:svg="http://www.w3.org/2000/svg"
   xmlns="http://www.w3.org/2000/svg"
   xmlns:sodipodi="http://sodipodi.sourceforge.net/DTD/sodipodi-0.dtd"
   xmlns:inkscape="http://www.inkscape.org/namespaces/inkscape"
   width="90.625"
   height="90.625"
   id="svg6766"
   version="1.1"
   inkscape:version="0.48.3.1 r9886"
   sodipodi:docname="New document 54">
  <defs
     id="defs6768">
    <clipPath
       clipPathUnits="userSpaceOnUse"
       id="clipPath3363">
      <path
         inkscape:connector-curvature="0"
         d="m 31.095,173.447 504.811,0 0,563.803 -504.811,0 0,-563.803 z"
         id="path3365" />
    </clipPath>
    <clipPath
       clipPathUnits="userSpaceOnUse"
       id="clipPath3351">
      <path
         inkscape:connector-curvature="0"
         d="m 27,45 513,0 0,693 -513,0 0,-693 z"
         id="path3353" />
    </clipPath>
  </defs>
  <sodipodi:namedview
     id="base"
     pagecolor="#ffffff"
     bordercolor="#666666"
     borderopacity="1.0"
     inkscape:pageopacity="0.0"
     inkscape:pageshadow="2"
     inkscape:zoom="0.35"
     inkscape:cx="-2.545895"
     inkscape:cy="-131.83035"
     inkscape:document-units="px"
     inkscape:current-layer="layer1"
     showgrid="false"
     fit-margin-top="0"
     fit-margin-left="0"
     fit-margin-right="0"
     fit-margin-bottom="0"
     inkscape:window-width="451"
     inkscape:window-height="415"
     inkscape:window-x="175"
     inkscape:window-y="175"
     inkscape:window-maximized="0" />
  <metadata
     id="metadata6771">
    <rdf:RDF>
      <cc:Work
         rdf:about="">
        <dc:format>image/svg+xml</dc:format>
        <dc:type
           rdf:resource="http://purl.org/dc/dcmitype/StillImage" />
        <dc:title></dc:title>
      </cc:Work>
    </rdf:RDF>
  </metadata>
  <g
     inkscape:label="Layer 1"
     inkscape:groupmode="layer"
     id="layer1"
     transform="translate(-377.54589,-309.90683)">
    <g
       transform="matrix(1.25,0,0,-1.25,-201.64373,804.37833)"
       id="g3347">
      <g
         id="g3349"
         clip-path="url(#clipPath3351)">
        <g
           id="g3355"
           transform="translate(469.6017,323.3272)">
          <path
             inkscape:connector-curvature="0"
             d="m 0,0 59.998,0 c 1.58,0 3.125,0.641 4.244,1.76 1.117,1.117 1.756,2.66 1.756,4.24 l 0,60 c 0,1.58 -0.639,3.123 -1.756,4.244 C 63.123,71.36 61.578,72 59.998,72 L 0,72 C -1.58,72 -3.125,71.36 -4.24,70.244 -5.36,69.123 -6,67.58 -6,66 L -6,6 C -6,3.944 -4.908,2 -3.176,0.897 -2.188,0.268 -1.145,0.121 0,0"
             style="fill:#ffffff;fill-opacity:1;fill-rule:nonzero;stroke:none"
             id="path3357" />
        </g>
      </g>
    </g>
    <g
       transform="matrix(1.25,0,0,-1.25,-201.64373,804.37833)"
       id="g3359">
      <g
         id="g3361"
         clip-path="url(#clipPath3363)">
        <g
           id="g3367"
           transform="translate(469.6017,323.3272)">
          <path
             inkscape:connector-curvature="0"
             d="m 0,0 59.998,0 c 1.58,0 3.125,0.641 4.244,1.76 1.117,1.117 1.756,2.66 1.756,4.24 l 0,60 c 0,1.58 -0.639,3.123 -1.756,4.244 C 63.123,71.36 61.578,72 59.998,72 L 0,72 C -1.58,72 -3.125,71.36 -4.24,70.244 -5.36,69.123 -6,67.58 -6,66 L -6,6 C -6,3.944 -4.908,2 -3.176,0.897 -2.188,0.268 -1.145,0.121 0,0 z"
             style="fill:none;stroke:#231f20;stroke-width:0.5;stroke-linecap:butt;stroke-linejoin:miter;stroke-miterlimit:4;stroke-opacity:1;stroke-dasharray:none"
             id="path3369" />
        </g>
      </g>
    </g>
    <g
       id="g3379"
       transform="matrix(1.25,0,0,-1.25,385.35838,398.34433)">
      <path
         d="M 0,0 C -0.895,0 -1.647,0.201 -2.371,0.66 -3.682,1.494 -4.5,2.967 -4.5,4.5 l 0,60 c 0,1.182 0.48,2.344 1.32,3.184 C -2.346,68.518 -1.182,69 0,69 l 59.998,0 c 1.185,0 2.349,-0.48 3.183,-1.316 0.838,-0.834 1.317,-1.998 1.317,-3.184 l 0,-60 C 64.498,3.319 64.015,2.154 63.181,1.32 62.342,0.481 61.181,0 59.998,0 L 0,0 z"
         style="fill:#713907;fill-opacity:1;fill-rule:evenodd;stroke:none"
         id="path3381"
         inkscape:connector-curvature="0" />
    </g>
    <g
       id="g3383"
       transform="matrix(1.25,0,0,-1.25,422.97589,326.86683)">
      <path
         d="M 0,0 C 2.154,0 3.896,1.74 3.896,3.894 3.896,6.045 2.154,7.787 0,7.787 -2.151,7.787 -3.895,6.045 -3.895,3.894 -3.895,1.74 -2.151,0 0,0"
         style="fill:#ffffff;fill-opacity:1;fill-rule:nonzero;stroke:none"
         id="path3385"
         inkscape:connector-curvature="0" />
    </g>
    <g
       id="g3387"
       transform="matrix(1.25,0,0,-1.25,453.53713,382.71683)">
      <path
         d="m 0,0 c -1.074,0.498 -2.287,0.791 -3.547,0.791 -1.264,0 -2.477,-0.293 -3.551,-0.791 -1.051,-0.473 -2.223,-0.748 -3.447,-0.748 -1.225,0 -2.402,0.275 -3.449,0.748 -1.075,0.498 -2.284,0.791 -3.551,0.791 -1.264,0 -2.473,-0.293 -3.549,-0.791 -1.053,-0.473 -2.223,-0.748 -3.449,-0.748 -1.225,0 -2.401,0.275 -3.449,0.748 -1.077,0.498 -2.286,0.791 -3.551,0.791 -1.264,0 -2.473,-0.293 -3.549,-0.791 -1.051,-0.473 -2.225,-0.748 -3.449,-0.748 -1.225,0 -2.397,0.275 -3.449,0.748 -1.077,0.498 -2.286,0.791 -3.549,0.791 -1.266,0 -2.475,-0.293 -3.551,-0.791 -1.049,-0.473 -2.225,-0.748 -3.449,-0.748 l 0,-5.166 c 1.224,0 2.4,0.273 3.449,0.744 1.076,0.502 2.285,0.795 3.551,0.795 1.263,0 2.472,-0.293 3.549,-0.795 1.052,-0.471 2.224,-0.744 3.449,-0.744 1.224,0 2.398,0.273 3.449,0.744 1.076,0.502 2.285,0.795 3.549,0.795 1.265,0 2.474,-0.293 3.551,-0.795 1.048,-0.471 2.224,-0.744 3.449,-0.744 1.226,0 2.396,0.273 3.449,0.744 1.076,0.502 2.285,0.795 3.549,0.795 1.267,0 2.476,-0.293 3.551,-0.795 1.047,-0.471 2.224,-0.744 3.449,-0.744 1.224,0 2.396,0.273 3.447,0.744 1.074,0.502 2.287,0.795 3.551,0.795 1.26,0 2.473,-0.293 3.547,-0.795 1.049,-0.471 2.226,-0.744 3.451,-0.744 l 0,5.166 C 2.226,-0.748 1.049,-0.473 0,0"
         style="fill:#ffffff;fill-opacity:1;fill-rule:nonzero;stroke:none"
         id="path3389"
         inkscape:connector-curvature="0" />
    </g>
    <g
       id="g3391"
       transform="matrix(1.25,0,0,-1.25,453.64714,316.93808)">
      <path
         d="m 0,0 c -0.28,0.115 -0.598,0.051 -0.811,-0.162 l -14.207,-14.207 c -0.221,0.09 -0.463,0.145 -0.717,0.145 l -5.384,0 c -0.932,0.931 -5.801,5.804 -5.801,5.804 -0.25,0.252 -0.563,0.389 -0.883,0.471 -1.117,0.978 -2.803,0.963 -3.867,-0.102 l -8.428,-8.41 c -0.32,-0.318 -0.518,-0.762 -0.518,-1.248 l 0,-6.178 -11.832,0 0,-1.959 11.832,0 -10e-4,-13.8 c 0,-1.737 1.408,-3.147 3.142,-3.147 1.738,0 3.166,1.41 3.166,3.147 l -0.004,13.8 9.537,0 0,-18.289 -27.672,0 0,-3.339 29.631,0 0,21.628 3.408,0 0,1.959 -14.904,0 0,1.76 7.85,7.85 3.201,-3.205 c 0.359,-0.36 0.844,-0.561 1.352,-0.561 l 6.175,0 c 1.055,0 1.909,0.856 1.909,1.91 0,0.252 -0.057,0.491 -0.145,0.711 3.373,3.373 11.266,11.268 12.941,12.944 l 0,-45.059 1.487,0 0,46.852 C 0.457,-0.385 0.275,-0.115 0,0"
         style="fill:#ffffff;fill-opacity:1;fill-rule:nonzero;stroke:none"
         id="path3393"
         inkscape:connector-curvature="0" />
    </g>
  </g>
</svg>
