<?xml version="1.0" encoding="UTF-8" standalone="no"?>
<!-- Created with Inkscape (http://www.inkscape.org/) -->

<svg
   xmlns:dc="http://purl.org/dc/elements/1.1/"
   xmlns:cc="http://creativecommons.org/ns#"
   xmlns:rdf="http://www.w3.org/1999/02/22-rdf-syntax-ns#"
   xmlns:svg="http://www.w3.org/2000/svg"
   xmlns="http://www.w3.org/2000/svg"
   xmlns:sodipodi="http://sodipodi.sourceforge.net/DTD/sodipodi-0.dtd"
   xmlns:inkscape="http://www.inkscape.org/namespaces/inkscape"
   width="90.625"
   height="90.625"
   id="svg5252"
   version="1.1"
   inkscape:version="0.48.3.1 r9886"
   sodipodi:docname="New document 18">
  <defs
     id="defs5254" />
  <sodipodi:namedview
     id="base"
     pagecolor="#ffffff"
     bordercolor="#666666"
     borderopacity="1.0"
     inkscape:pageopacity="0.0"
     inkscape:pageshadow="2"
     inkscape:zoom="0.35"
     inkscape:cx="45.31187"
     inkscape:cy="45.311877"
     inkscape:document-units="px"
     inkscape:current-layer="layer1"
     showgrid="false"
     fit-margin-top="0"
     fit-margin-left="0"
     fit-margin-right="0"
     fit-margin-bottom="0"
     inkscape:window-width="451"
     inkscape:window-height="398"
     inkscape:window-x="175"
     inkscape:window-y="175"
     inkscape:window-maximized="0" />
  <metadata
     id="metadata5257">
    <rdf:RDF>
      <cc:Work
         rdf:about="">
        <dc:format>image/svg+xml</dc:format>
        <dc:type
           rdf:resource="http://purl.org/dc/dcmitype/StillImage" />
        <dc:title></dc:title>
      </cc:Work>
    </rdf:RDF>
  </metadata>
  <g
     inkscape:label="Layer 1"
     inkscape:groupmode="layer"
     id="layer1"
     transform="translate(-329.68813,-487.04906)">
    <g
       id="g3259"
       transform="matrix(1.25,0,0,-1.25,337.50063,577.36156)">
      <path
         d="m 0,0 59.999,0 c 1.581,0 3.125,0.639 4.245,1.759 1.117,1.117 1.755,2.661 1.755,4.241 l 0,59.999 c 0,1.58 -0.638,3.124 -1.755,4.244 -1.12,1.116 -2.664,1.756 -4.245,1.756 L 0,71.999 c -1.579,0 -3.124,-0.64 -4.24,-1.756 C -5.359,69.123 -6,67.579 -6,65.999 L -6,6 C -6,3.943 -4.908,2 -3.175,0.895 -2.187,0.267 -1.143,0.12 0,0"
         style="fill:#ffffff;fill-opacity:1;fill-rule:nonzero;stroke:none"
         id="path3261"
         inkscape:connector-curvature="0" />
    </g>
    <g
       id="g3263"
       transform="matrix(1.25,0,0,-1.25,337.50063,577.36156)">
      <path
         d="m 0,0 59.999,0 c 1.581,0 3.125,0.639 4.245,1.759 1.117,1.117 1.755,2.661 1.755,4.241 l 0,59.999 c 0,1.58 -0.638,3.124 -1.755,4.244 -1.12,1.116 -2.664,1.756 -4.245,1.756 L 0,71.999 c -1.579,0 -3.124,-0.64 -4.24,-1.756 C -5.359,69.123 -6,67.579 -6,65.999 L -6,6 C -6,3.943 -4.908,2 -3.175,0.895 -2.187,0.267 -1.143,0.12 0,0 z"
         style="fill:none;stroke:#231f20;stroke-width:0.5;stroke-linecap:butt;stroke-linejoin:miter;stroke-miterlimit:4;stroke-opacity:1;stroke-dasharray:none"
         id="path3265"
         inkscape:connector-curvature="0" />
    </g>
    <g
       id="g3267"
       transform="matrix(1.25,0,0,-1.25,337.50063,575.48656)">
      <path
         d="M 0,0 C -0.893,0 -1.646,0.201 -2.37,0.66 -3.68,1.494 -4.5,2.966 -4.5,4.5 l 0,59.999 c 0,1.182 0.481,2.343 1.321,3.183 0.834,0.834 1.998,1.317 3.179,1.317 l 59.999,0 c 1.186,0 2.35,-0.48 3.184,-1.317 0.838,-0.834 1.316,-1.998 1.316,-3.183 l 0,-59.999 C 64.499,3.318 64.017,2.154 63.183,1.32 62.343,0.479 61.183,0 59.999,0 L 0,0 z"
         style="fill:#713907;fill-opacity:1;fill-rule:evenodd;stroke:none"
         id="path3269"
         inkscape:connector-curvature="0" />
    </g>
    <g
       id="g3271"
       transform="matrix(1.25,0,0,-1.25,385.52188,505.38644)">
      <path
         d="m 0,0 c 0,2.469 -1.998,4.463 -4.464,4.463 -2.469,0 -4.467,-1.994 -4.467,-4.463 0,-2.469 1.998,-4.469 4.467,-4.469 2.466,0 4.464,2 4.464,4.469"
         style="fill:#ffffff;fill-opacity:1;fill-rule:nonzero;stroke:none"
         id="path3273"
         inkscape:connector-curvature="0" />
    </g>
    <g
       id="g3275"
       transform="matrix(1.25,0,0,-1.25,351.52562,528.27644)">
      <path
         d="m 0,0 c -0.008,1.099 0.41,2.197 1.248,3.035 l 11.184,11.182 c 1.668,1.673 4.375,1.673 6.043,0 0.855,-0.85 1.267,-1.973 1.248,-3.088 l 0,-7.557 c 0.988,-0.99 4.972,-4.975 4.972,-4.975 0.418,-0.416 0.623,-0.964 0.623,-1.509 0,-0.549 -0.205,-1.094 -0.623,-1.514 -0.835,-0.834 -2.187,-0.834 -3.023,0 l -5.6,5.6 C 15.67,1.572 15.443,2.117 15.443,2.683 l 0,2.465 -8.687,-8.664 0,-22.742 c 0,-1.869 -1.516,-3.387 -3.383,-3.387 -1.871,0 -3.388,1.518 -3.388,3.387 l 0,26.137 c 0,0.043 0.011,0.08 0.015,0.121"
         style="fill:#ffffff;fill-opacity:1;fill-rule:nonzero;stroke:none"
         id="path3277"
         inkscape:connector-curvature="0" />
    </g>
    <g
       id="g3279"
       transform="matrix(1.25,0,0,-1.25,388.26438,542.93519)">
      <path
         d="m 0,0 0,7.117 c 0,0.787 -0.641,1.426 -1.426,1.426 -0.787,0 -1.424,-0.639 -1.424,-1.426 l 0,-4.828 -6.017,0 0.824,0.828 c 0.625,0.625 0.625,1.641 0,2.264 l -4.01,4.01 c -0.625,0.627 -1.639,0.627 -2.268,0 -0.312,-0.313 -0.466,-0.723 -0.466,-1.133 0,-0.412 0.154,-0.822 0.466,-1.137 0,0 1.711,-1.705 2.875,-2.871 -1.125,-1.127 -2.578,-2.603 -2.578,-2.603 -0.002,-0.002 -0.004,-0.004 -0.007,-0.004 -0.436,-0.424 -0.713,-1.01 -0.713,-1.668 0,-1.281 1.037,-2.319 2.316,-2.319 l 10.113,0 C -1.037,-2.344 0,-1.306 0,-0.025 L 0,0 z"
         style="fill:#ffffff;fill-opacity:1;fill-rule:nonzero;stroke:none"
         id="path3281"
         inkscape:connector-curvature="0" />
    </g>
    <g
       id="g3283"
       transform="matrix(1.25,0,0,-1.25,398.15937,541.40394)">
      <path
         d="m 0,0 c 0,1.918 -1.557,3.47 -3.473,3.47 -1.92,0 -3.474,-1.552 -3.474,-3.47 0,-1.92 1.554,-3.481 3.474,-3.481 C -1.557,-3.481 0,-1.92 0,0"
         style="fill:#ffffff;fill-opacity:1;fill-rule:nonzero;stroke:none"
         id="path3285"
         inkscape:connector-curvature="0" />
    </g>
    <path
       d="m 370.16563,552.89844 29.61499,0 0,-4.45375 -29.61499,0 0,4.45375 z"
       style="fill:#ffffff;fill-opacity:1;fill-rule:nonzero;stroke:none"
       id="path3287"
       inkscape:connector-curvature="0" />
  </g>
</svg>
