<?xml version="1.0" encoding="UTF-8" standalone="no"?>
<!-- Created with Inkscape (http://www.inkscape.org/) -->

<svg
   xmlns:dc="http://purl.org/dc/elements/1.1/"
   xmlns:cc="http://creativecommons.org/ns#"
   xmlns:rdf="http://www.w3.org/1999/02/22-rdf-syntax-ns#"
   xmlns:svg="http://www.w3.org/2000/svg"
   xmlns="http://www.w3.org/2000/svg"
   xmlns:sodipodi="http://sodipodi.sourceforge.net/DTD/sodipodi-0.dtd"
   xmlns:inkscape="http://www.inkscape.org/namespaces/inkscape"
   width="90.625"
   height="90.625"
   id="svg6897"
   version="1.1"
   inkscape:version="0.48.3.1 r9886"
   sodipodi:docname="New document 40">
  <defs
     id="defs6899" />
  <sodipodi:namedview
     id="base"
     pagecolor="#ffffff"
     bordercolor="#666666"
     borderopacity="1.0"
     inkscape:pageopacity="0.0"
     inkscape:pageshadow="2"
     inkscape:zoom="0.35"
     inkscape:cx="45.3125"
     inkscape:cy="45.312497"
     inkscape:document-units="px"
     inkscape:current-layer="layer1"
     showgrid="false"
     fit-margin-top="0"
     fit-margin-left="0"
     fit-margin-right="0"
     fit-margin-bottom="0"
     inkscape:window-width="451"
     inkscape:window-height="398"
     inkscape:window-x="25"
     inkscape:window-y="25"
     inkscape:window-maximized="0" />
  <metadata
     id="metadata6902">
    <rdf:RDF>
      <cc:Work
         rdf:about="">
        <dc:format>image/svg+xml</dc:format>
        <dc:type
           rdf:resource="http://purl.org/dc/dcmitype/StillImage" />
        <dc:title></dc:title>
      </cc:Work>
    </rdf:RDF>
  </metadata>
  <g
     inkscape:label="Layer 1"
     inkscape:groupmode="layer"
     id="layer1"
     transform="translate(-329.6875,-487.04968)">
    <g
       id="g3697"
       transform="matrix(1.25,0,0,-1.25,337.5,577.36218)">
      <path
         d="m 0,0 60,0 c 1.58,0 3.125,0.639 4.244,1.76 C 65.362,2.875 66,4.42 66,6 l 0,59.999 c 0,1.58 -0.638,3.124 -1.756,4.244 C 63.125,71.36 61.58,72 60,72 L 0,72 C -1.578,72 -3.123,71.36 -4.24,70.243 -5.359,69.123 -6,67.579 -6,65.999 L -6,6 C -6,3.944 -4.908,2 -3.175,0.895 -2.187,0.268 -1.142,0.119 0,0"
         style="fill:#ffffff;fill-opacity:1;fill-rule:nonzero;stroke:none"
         id="path3699"
         inkscape:connector-curvature="0" />
    </g>
    <g
       id="g3701"
       transform="matrix(1.25,0,0,-1.25,337.5,577.36218)">
      <path
         d="m 0,0 60,0 c 1.58,0 3.125,0.639 4.244,1.76 C 65.362,2.875 66,4.42 66,6 l 0,59.999 c 0,1.58 -0.638,3.124 -1.756,4.244 C 63.125,71.36 61.58,72 60,72 L 0,72 C -1.578,72 -3.123,71.36 -4.24,70.243 -5.359,69.123 -6,67.579 -6,65.999 L -6,6 C -6,3.944 -4.908,2 -3.175,0.895 -2.187,0.268 -1.142,0.119 0,0 z"
         style="fill:none;stroke:#231f20;stroke-width:0.5;stroke-linecap:butt;stroke-linejoin:miter;stroke-miterlimit:4;stroke-opacity:1;stroke-dasharray:none"
         id="path3703"
         inkscape:connector-curvature="0" />
    </g>
    <g
       id="g3705"
       transform="matrix(1.25,0,0,-1.25,337.5,575.48718)">
      <path
         d="M 0,0 C -0.892,0 -1.646,0.201 -2.369,0.66 -3.679,1.494 -4.5,2.967 -4.5,4.5 l 0,59.999 c 0,1.183 0.481,2.344 1.321,3.184 0.834,0.834 1.998,1.316 3.179,1.316 l 60,0 c 1.186,0 2.35,-0.479 3.184,-1.316 0.838,-0.834 1.316,-1.998 1.316,-3.184 L 64.5,4.5 C 64.5,3.319 64.018,2.155 63.184,1.321 62.344,0.479 61.184,0 60,0 L 0,0 z"
         style="fill:#713907;fill-opacity:1;fill-rule:evenodd;stroke:none"
         id="path3707"
         inkscape:connector-curvature="0" />
    </g>
    <g
       id="g3709"
       transform="matrix(1.25,0,0,-1.25,387.94512,497.46593)">
      <path
         d="m 0,0 c -2.578,0 -4.674,-2.093 -4.674,-4.679 0,-2.584 2.096,-4.677 4.674,-4.677 2.586,0 4.681,2.093 4.681,4.677 C 4.681,-2.093 2.586,0 0,0"
         style="fill:#ffffff;fill-opacity:1;fill-rule:nonzero;stroke:none"
         id="path3711"
         inkscape:connector-curvature="0" />
    </g>
    <g
       id="g3713"
       transform="matrix(1.25,0,0,-1.25,343.79637,537.77468)">
      <path
         d="M 0,0 C -0.404,0.649 -1.255,0.846 -1.9,0.44 -2.546,0.037 -2.746,-0.814 -2.339,-1.461 -1.935,-2.107 -1.082,-2.306 -0.437,-1.902 0.209,-1.498 0.405,-0.644 0,0"
         style="fill:#ffffff;fill-opacity:1;fill-rule:nonzero;stroke:none"
         id="path3715"
         inkscape:connector-curvature="0" />
    </g>
    <g
       id="g3717"
       transform="matrix(1.25,0,0,-1.25,344.9925,542.54968)">
      <path
         d="M 0,0 C -0.406,0.646 -1.253,0.844 -1.902,0.439 -2.55,0.035 -2.744,-0.818 -2.341,-1.463 -1.935,-2.109 -1.085,-2.307 -0.439,-1.902 0.209,-1.498 0.405,-0.645 0,0"
         style="fill:#ffffff;fill-opacity:1;fill-rule:nonzero;stroke:none"
         id="path3719"
         inkscape:connector-curvature="0" />
    </g>
    <g
       id="g3721"
       transform="matrix(1.25,0,0,-1.25,346.18887,547.32718)">
      <path
         d="m 0,0 c -0.406,0.65 -1.259,0.847 -1.904,0.441 -0.646,-0.404 -0.847,-1.258 -0.439,-1.908 0.402,-0.645 1.26,-0.84 1.906,-0.434 C 0.208,-1.498 0.405,-0.645 0,0"
         style="fill:#ffffff;fill-opacity:1;fill-rule:nonzero;stroke:none"
         id="path3723"
         inkscape:connector-curvature="0" />
    </g>
    <g
       id="g3725"
       transform="matrix(1.25,0,0,-1.25,347.38125,552.09843)">
      <path
         d="M 0,0 C -0.405,0.645 -1.256,0.84 -1.903,0.438 -2.549,0.033 -2.745,-0.82 -2.34,-1.465 -1.934,-2.115 -1.084,-2.312 -0.436,-1.908 0.213,-1.504 0.406,-0.65 0,0"
         style="fill:#ffffff;fill-opacity:1;fill-rule:nonzero;stroke:none"
         id="path3727"
         inkscape:connector-curvature="0" />
    </g>
    <g
       id="g3729"
       transform="matrix(1.25,0,0,-1.25,375.4375,561.83468)">
      <path
         d="m 0,0 c -0.727,-0.234 -1.131,-1.013 -0.897,-1.738 0.235,-0.727 1.012,-1.127 1.737,-0.897 0.73,0.233 1.131,1.012 0.9,1.739 C 1.506,-0.17 0.726,0.233 0,0"
         style="fill:#ffffff;fill-opacity:1;fill-rule:nonzero;stroke:none"
         id="path3731"
         inkscape:connector-curvature="0" />
    </g>
    <g
       id="g3733"
       transform="matrix(1.25,0,0,-1.25,380.36125,561.85593)">
      <path
         d="M 0,0 C -0.726,-0.233 -1.13,-1.01 -0.896,-1.737 -0.664,-2.465 0.116,-2.866 0.84,-2.633 1.569,-2.399 1.969,-1.62 1.735,-0.895 1.502,-0.168 0.725,0.232 0,0"
         style="fill:#ffffff;fill-opacity:1;fill-rule:nonzero;stroke:none"
         id="path3735"
         inkscape:connector-curvature="0" />
    </g>
    <g
       id="g3737"
       transform="matrix(1.25,0,0,-1.25,385.28637,561.87593)">
      <path
         d="m 0,0 c -0.733,-0.232 -1.129,-1.012 -0.895,-1.738 0.231,-0.725 1.006,-1.129 1.733,-0.895 0.726,0.229 1.131,1.008 0.898,1.738 C 1.506,-0.17 0.724,0.232 0,0"
         style="fill:#ffffff;fill-opacity:1;fill-rule:nonzero;stroke:none"
         id="path3739"
         inkscape:connector-curvature="0" />
    </g>
    <g
       id="g3741"
       transform="matrix(1.25,0,0,-1.25,390.20512,561.90093)">
      <path
         d="m 0,0 c -0.724,-0.23 -1.129,-1.005 -0.894,-1.734 0.232,-0.73 1.012,-1.127 1.738,-0.894 0.725,0.234 1.127,1.005 0.895,1.734 C 1.504,-0.164 0.727,0.233 0,0"
         style="fill:#ffffff;fill-opacity:1;fill-rule:nonzero;stroke:none"
         id="path3743"
         inkscape:connector-curvature="0" />
    </g>
    <g
       id="g3745"
       transform="matrix(1.25,0,0,-1.25,401.94125,523.37468)">
      <path
         d="m 0,0 -8.168,0 -3.752,8.511 c -0.051,0.131 -0.127,0.321 -0.172,0.405 -0.008,0.019 -0.023,0.033 -0.031,0.051 l -0.068,0.156 c -0.002,-0.006 -0.008,-0.016 -0.01,-0.022 -0.705,1.477 -2.162,2.545 -3.885,2.614 -0.33,0.009 -0.637,-0.022 -0.951,-0.094 L -37.562,6.804 c -1.245,-0.279 -2.02,-1.513 -1.737,-2.757 0.281,-1.239 1.516,-2.012 2.754,-1.733 l 13.699,3.254 -10.408,-17.178 -7.586,0 c -0.004,0 -0.006,-0.002 -0.01,-0.002 l -3.554,0 2.47,-9.699 c 0.073,-0.283 0.073,-0.353 0.172,-0.515 0.346,-0.569 1.088,-0.745 1.653,-0.401 0.304,0.188 0.498,0.483 0.556,0.801 l 1.469,4.5 0.053,0.18 c 0,0 6.826,0.029 6.883,0.031 1.359,0 2.533,0.369 3.224,1.514 l 3.168,5.24 7.024,-7.004 -2.977,-11.731 c 0,0 10.275,-0.007 10.32,-0.007 0.668,0 1.204,0.543 1.204,1.205 0,0.508 -0.321,0.875 -0.721,1.099 l -4.459,2.465 2.148,8.426 c 0,0 0.532,1.785 -1.16,3.428 l -5.75,5.759 c 0,0 3.078,5.061 5.049,8.297 l 2.293,-5.187 c 0.183,-0.422 0.484,-0.758 0.846,-0.99 0.005,-0.008 0.023,-0.018 0.031,-0.026 0.006,0 0.006,0 0.006,-0.002 0.359,-0.24 0.793,-0.373 1.265,-0.373 l 9.604,0 C 1.238,-4.615 2.279,-3.574 2.285,-2.305 2.295,-1.031 1.268,-0.008 0,0"
         style="fill:#ffffff;fill-opacity:1;fill-rule:nonzero;stroke:none"
         id="path3747"
         inkscape:connector-curvature="0" />
    </g>
  </g>
</svg>
