<?xml version="1.0" encoding="UTF-8" standalone="no"?>
<!-- Created with Inkscape (http://www.inkscape.org/) -->

<svg
   xmlns:dc="http://purl.org/dc/elements/1.1/"
   xmlns:cc="http://creativecommons.org/ns#"
   xmlns:rdf="http://www.w3.org/1999/02/22-rdf-syntax-ns#"
   xmlns:svg="http://www.w3.org/2000/svg"
   xmlns="http://www.w3.org/2000/svg"
   xmlns:sodipodi="http://sodipodi.sourceforge.net/DTD/sodipodi-0.dtd"
   xmlns:inkscape="http://www.inkscape.org/namespaces/inkscape"
   width="90.624496"
   height="90.625"
   id="svg5901"
   version="1.1"
   inkscape:version="0.48.3.1 r9886"
   sodipodi:docname="New document 45">
  <defs
     id="defs5903">
    <clipPath
       clipPathUnits="userSpaceOnUse"
       id="clipPath3999">
      <path
         inkscape:connector-curvature="0"
         d="m 63,178.034 513,0 0,559.966 -513,0 0,-559.966 z"
         id="path4001" />
    </clipPath>
    <clipPath
       clipPathUnits="userSpaceOnUse"
       id="clipPath3987">
      <path
         inkscape:connector-curvature="0"
         d="m 67.055,180.004 504.891,0 0,557.996 -504.891,0 0,-557.996 z"
         id="path3989" />
    </clipPath>
    <clipPath
       clipPathUnits="userSpaceOnUse"
       id="clipPath3975">
      <path
         inkscape:connector-curvature="0"
         d="m 63,178.034 513,0 0,559.966 -513,0 0,-559.966 z"
         id="path3977" />
    </clipPath>
  </defs>
  <sodipodi:namedview
     id="base"
     pagecolor="#ffffff"
     bordercolor="#666666"
     borderopacity="1.0"
     inkscape:pageopacity="0.0"
     inkscape:pageshadow="2"
     inkscape:zoom="0.35"
     inkscape:cx="45.31162"
     inkscape:cy="45.311872"
     inkscape:document-units="px"
     inkscape:current-layer="layer1"
     showgrid="false"
     fit-margin-top="0"
     fit-margin-left="0"
     fit-margin-right="0"
     fit-margin-bottom="0"
     inkscape:window-width="451"
     inkscape:window-height="398"
     inkscape:window-x="75"
     inkscape:window-y="75"
     inkscape:window-maximized="0" />
  <metadata
     id="metadata5906">
    <rdf:RDF>
      <cc:Work
         rdf:about="">
        <dc:format>image/svg+xml</dc:format>
        <dc:type
           rdf:resource="http://purl.org/dc/dcmitype/StillImage" />
        <dc:title></dc:title>
      </cc:Work>
    </rdf:RDF>
  </metadata>
  <g
     inkscape:label="Layer 1"
     inkscape:groupmode="layer"
     id="layer1"
     transform="translate(-329.68838,-487.04905)">
    <g
       transform="matrix(1.25,0,0,-1.25,245.86963,965.83768)"
       id="g3971">
      <g
         id="g3973"
         clip-path="url(#clipPath3975)">
        <g
           id="g3979"
           transform="translate(73.3046,310.7809)">
          <path
             inkscape:connector-curvature="0"
             d="m 0,0 59.999,0 c 1.58,0 3.125,0.639 4.244,1.76 1.117,1.115 1.756,2.66 1.756,4.24 l 0,59.998 c 0,1.58 -0.639,3.125 -1.756,4.244 -1.119,1.118 -2.664,1.757 -4.244,1.757 L 0,71.999 c -1.579,0 -3.124,-0.639 -4.24,-1.757 C -5.359,69.123 -6,67.578 -6,65.998 L -6,6 C -6,3.944 -4.908,2 -3.176,0.895 -2.187,0.268 -1.144,0.119 0,0"
             style="fill:#ffffff;fill-opacity:1;fill-rule:nonzero;stroke:none"
             id="path3981" />
        </g>
      </g>
    </g>
    <g
       transform="matrix(1.25,0,0,-1.25,245.86963,965.83768)"
       id="g3983">
      <g
         id="g3985"
         clip-path="url(#clipPath3987)">
        <g
           id="g3991"
           transform="translate(73.3046,310.7809)">
          <path
             inkscape:connector-curvature="0"
             d="m 0,0 59.999,0 c 1.58,0 3.125,0.639 4.244,1.76 1.117,1.115 1.756,2.66 1.756,4.24 l 0,59.998 c 0,1.58 -0.639,3.125 -1.756,4.244 -1.119,1.118 -2.664,1.757 -4.244,1.757 L 0,71.999 c -1.579,0 -3.124,-0.639 -4.24,-1.757 C -5.359,69.123 -6,67.578 -6,65.998 L -6,6 C -6,3.944 -4.908,2 -3.176,0.895 -2.187,0.268 -1.144,0.119 0,0 z"
             style="fill:none;stroke:#231f20;stroke-width:0.5;stroke-linecap:butt;stroke-linejoin:miter;stroke-miterlimit:4;stroke-opacity:1;stroke-dasharray:none"
             id="path3993" />
        </g>
      </g>
    </g>
    <g
       transform="matrix(1.25,0,0,-1.25,245.86963,965.83768)"
       id="g3995">
      <g
         id="g3997"
         clip-path="url(#clipPath3999)">
        <g
           id="g4003"
           transform="translate(73.3046,312.2809)">
          <path
             inkscape:connector-curvature="0"
             d="M 0,0 C -0.894,0 -1.646,0.201 -2.37,0.66 -3.681,1.494 -4.5,2.967 -4.5,4.5 l 0,59.998 c 0,1.184 0.48,2.344 1.32,3.184 0.834,0.834 1.998,1.316 3.18,1.316 l 59.999,0 c 1.186,0 2.35,-0.478 3.184,-1.316 0.838,-0.834 1.316,-1.998 1.316,-3.184 l 0,-59.998 C 64.499,3.319 64.017,2.155 63.183,1.321 62.343,0.479 61.183,0 59.999,0 L 0,0 z"
             style="fill:#713907;fill-opacity:1;fill-rule:evenodd;stroke:none"
             id="path4005" />
        </g>
        <g
           id="g4007"
           transform="translate(95.0645,346.5329)">
          <path
             inkscape:connector-curvature="0"
             d="m 0,0 -5.197,-4.123 -6.662,-5.101 c -1.895,-1.487 -3.442,0.302 -3.442,0.302 -1.476,1.936 0.221,3.205 0.221,3.205 l 8.293,6.487 c 0,0 0.908,0.955 3.291,0.271 L 0,0 z"
             style="fill:#ffffff;fill-opacity:1;fill-rule:nonzero;stroke:none"
             id="path4009" />
        </g>
        <g
           id="g4011"
           transform="translate(104.7929,354.8159)">
          <path
             inkscape:connector-curvature="0"
             d="M 0,0 C -2.603,0 -4.715,2.112 -4.715,4.715 -4.715,7.319 -2.603,9.43 0,9.43 2.604,9.43 4.715,7.319 4.715,4.715 4.715,2.112 2.604,0 0,0"
             style="fill:#ffffff;fill-opacity:1;fill-rule:nonzero;stroke:none"
             id="path4013" />
        </g>
        <g
           id="g4015"
           transform="translate(87.5274,333.9819)">
          <path
             inkscape:connector-curvature="0"
             d="m 0,0 c -0.322,0.887 -0.463,1.866 -0.233,2.854 0.256,1.101 0.86,2.035 1.667,2.711 L 36.307,33.33 c 0.839,0.631 1.886,1.006 3.019,1.006 2.779,0 5.029,-2.252 5.029,-5.031 0,-1.611 -0.738,-3.062 -1.918,-3.984 -0.418,-0.354 -1.025,-0.319 -1.378,0.099 -0.356,0.418 -0.305,1.053 0.113,1.407 0.752,0.56 1.234,1.468 1.234,2.478 0,1.703 -1.379,3.082 -3.08,3.082 -0.705,0 -1.355,-0.236 -1.873,-0.633 L 27.326,23.674 22.025,8.34 25.236,0.698 c 0.381,0.078 0.783,0.15 1.188,0.15 3.207,0 5.806,-2.598 5.806,-5.805 0,-3.207 -2.599,-5.806 -5.806,-5.806 -3.207,0 -5.807,2.599 -5.807,5.806 0,2.075 1.084,3.897 2.721,4.922 L 21.035,5.481 20.838,4.905 C 20.123,2.733 17.783,1.553 15.611,2.268 L 4.863,5.817 2.76,4.143 C 2.254,3.725 1.875,3.147 1.717,2.461 1.572,1.84 1.666,1.245 1.879,0.692 2.256,0.77 2.674,0.848 3.074,0.848 c 3.207,0 5.807,-2.598 5.807,-5.805 0,-3.207 -2.6,-5.806 -5.807,-5.806 -3.207,0 -5.807,2.599 -5.807,5.806 0,2.106 1.059,3.94 2.733,4.957 m 28.939,-4.957 c 0,1.391 -1.127,2.518 -2.515,2.518 -1.391,0 -2.518,-1.127 -2.518,-2.518 0,-1.388 1.127,-2.515 2.518,-2.515 1.388,0 2.515,1.127 2.515,2.515 m -23.347,0 c 0,1.391 -1.127,2.518 -2.518,2.518 -1.39,0 -2.517,-1.127 -2.517,-2.518 0,-1.388 1.127,-2.515 2.517,-2.515 1.391,0 2.518,1.127 2.518,2.515"
             style="fill:#ffffff;fill-opacity:1;fill-rule:nonzero;stroke:none"
             id="path4017" />
        </g>
      </g>
    </g>
  </g>
</svg>
