<?xml version="1.0" encoding="UTF-8" standalone="no"?>
<!-- Created with Inkscape (http://www.inkscape.org/) -->

<svg
   xmlns:dc="http://purl.org/dc/elements/1.1/"
   xmlns:cc="http://creativecommons.org/ns#"
   xmlns:rdf="http://www.w3.org/1999/02/22-rdf-syntax-ns#"
   xmlns:svg="http://www.w3.org/2000/svg"
   xmlns="http://www.w3.org/2000/svg"
   xmlns:sodipodi="http://sodipodi.sourceforge.net/DTD/sodipodi-0.dtd"
   xmlns:inkscape="http://www.inkscape.org/namespaces/inkscape"
   width="90.625"
   height="90.625"
   id="svg5662"
   version="1.1"
   inkscape:version="0.48.3.1 r9886"
   sodipodi:docname="New document 39">
  <defs
     id="defs5664">
    <clipPath
       clipPathUnits="userSpaceOnUse"
       id="clipPath3677">
      <path
         inkscape:connector-curvature="0"
         d="m 63,178.034 513,0 0,559.966 -513,0 0,-559.966 z"
         id="path3679" />
    </clipPath>
  </defs>
  <sodipodi:namedview
     id="base"
     pagecolor="#ffffff"
     bordercolor="#666666"
     borderopacity="1.0"
     inkscape:pageopacity="0.0"
     inkscape:pageshadow="2"
     inkscape:zoom="0.35"
     inkscape:cx="45.311875"
     inkscape:cy="45.311242"
     inkscape:document-units="px"
     inkscape:current-layer="layer1"
     showgrid="false"
     fit-margin-top="0"
     fit-margin-left="0"
     fit-margin-right="0"
     fit-margin-bottom="0"
     inkscape:window-width="451"
     inkscape:window-height="398"
     inkscape:window-x="100"
     inkscape:window-y="100"
     inkscape:window-maximized="0" />
  <metadata
     id="metadata5667">
    <rdf:RDF>
      <cc:Work
         rdf:about="">
        <dc:format>image/svg+xml</dc:format>
        <dc:type
           rdf:resource="http://purl.org/dc/dcmitype/StillImage" />
        <dc:title></dc:title>
      </cc:Work>
    </rdf:RDF>
  </metadata>
  <g
     inkscape:label="Layer 1"
     inkscape:groupmode="layer"
     id="layer1"
     transform="translate(-329.68812,-487.04843)">
    <g
       transform="matrix(1.25,0,0,-1.25,-78.423875,1098.7408)"
       id="g3673">
      <g
         id="g3675"
         clip-path="url(#clipPath3677)">
        <g
           id="g3681"
           transform="translate(332.7396,417.1039)">
          <path
             inkscape:connector-curvature="0"
             d="m 0,0 59.999,0 c 1.58,0 3.125,0.638 4.244,1.759 1.117,1.116 1.756,2.66 1.756,4.241 l 0,59.998 c 0,1.58 -0.639,3.125 -1.756,4.244 -1.119,1.117 -2.664,1.756 -4.244,1.756 L 0,71.998 c -1.58,0 -3.124,-0.639 -4.241,-1.756 C -5.36,69.123 -6,67.578 -6,65.998 L -6,6 C -6,3.943 -4.909,2 -3.176,0.894 -2.188,0.267 -1.144,0.119 0,0"
             style="fill:#ffffff;fill-opacity:1;fill-rule:nonzero;stroke:none"
             id="path3683" />
        </g>
        <g
           id="g3685"
           transform="translate(332.7396,417.1039)">
          <path
             inkscape:connector-curvature="0"
             d="m 0,0 59.999,0 c 1.58,0 3.125,0.638 4.244,1.759 1.117,1.116 1.756,2.66 1.756,4.241 l 0,59.998 c 0,1.58 -0.639,3.125 -1.756,4.244 -1.119,1.117 -2.664,1.756 -4.244,1.756 L 0,71.998 c -1.58,0 -3.124,-0.639 -4.241,-1.756 C -5.36,69.123 -6,67.578 -6,65.998 L -6,6 C -6,3.943 -4.909,2 -3.176,0.894 -2.188,0.267 -1.144,0.119 0,0 z"
             style="fill:none;stroke:#231f20;stroke-width:0.5;stroke-linecap:butt;stroke-linejoin:miter;stroke-miterlimit:4;stroke-opacity:1;stroke-dasharray:none"
             id="path3687" />
        </g>
        <g
           id="g3689"
           transform="translate(332.7396,418.6039)">
          <path
             inkscape:connector-curvature="0"
             d="M 0,0 C -0.894,0 -1.647,0.201 -2.371,0.66 -3.681,1.494 -4.5,2.966 -4.5,4.5 l 0,59.998 c 0,1.183 0.48,2.343 1.32,3.183 0.834,0.834 1.998,1.317 3.18,1.317 l 59.999,0 c 1.185,0 2.349,-0.479 3.183,-1.317 0.838,-0.834 1.317,-1.998 1.317,-3.183 l 0,-59.998 C 64.499,3.318 64.016,2.154 63.182,1.32 62.342,0.478 61.182,0 59.999,0 L 0,0 z"
             style="fill:#713907;fill-opacity:1;fill-rule:evenodd;stroke:none"
             id="path3691" />
        </g>
        <g
           id="g3693"
           transform="translate(372.9217,478.2639)">
          <path
             inkscape:connector-curvature="0"
             d="m 0,0 c -0.494,0.072 -0.873,0.498 -0.873,1.011 0,0.379 0.213,0.709 0.522,0.885 -0.315,0.176 -0.522,0.51 -0.522,0.895 0,0.564 0.457,1.021 1.022,1.021 l 5.103,0 C 5.815,3.812 6.274,3.355 6.274,2.791 6.274,2.396 6.057,2.066 5.729,1.896 6.049,1.724 6.274,1.4 6.274,1.011 6.274,0.498 5.895,0.072 5.403,0 l 6.185,-16.733 c 0.381,-1.086 0.574,-2.297 0.574,-3.504 l 0,-29.664 c 0,-1.117 -0.906,-2.019 -2.021,-2.019 l -14.881,0 c -1.117,0 -2.022,0.902 -2.022,2.019 l 0,29.664 c 0,1.207 0.192,2.418 0.575,3.504 L 0,0 z"
             style="fill:#ffffff;fill-opacity:1;fill-rule:nonzero;stroke:none"
             id="path3695" />
        </g>
        <g
           id="g3697"
           transform="translate(347.2516,461.0509)">
          <path
             inkscape:connector-curvature="0"
             d="m 0,0 c 0.071,-0.166 0.108,-0.348 0.108,-0.539 0,-0.764 -0.617,-1.383 -1.381,-1.383 -0.287,0 -0.553,0.09 -0.774,0.238 l -3.355,2.778 c -0.363,0.427 -0.584,0.982 -0.584,1.585 0,1.352 1.096,2.446 2.445,2.446 1.012,0 1.883,-0.615 2.252,-1.492 L 0,0 z m -2.775,0.363 c 0.133,-0.119 0.307,-0.191 0.498,-0.191 0.412,0 0.746,0.332 0.746,0.742 0,0.133 -0.035,0.256 -0.096,0.363 l -0.838,1.947 c -0.199,0.393 -0.605,0.662 -1.076,0.662 -0.664,0 -1.205,-0.541 -1.205,-1.207 0,-0.318 0.125,-0.609 0.328,-0.826 l 1.643,-1.49 z"
             style="fill:#ffffff;fill-opacity:1;fill-rule:nonzero;stroke:none"
             id="path3699" />
        </g>
        <g
           id="g3701"
           transform="translate(358.0096,458.5919)">
          <path
             inkscape:connector-curvature="0"
             d="m 0,0 c 0.406,0 0.734,-0.328 0.734,-0.733 l 0,-1.146 C 0.734,-2.283 0.406,-2.612 0,-2.612 l -0.68,0.03 c 0.821,-0.52 1.414,-1.408 1.414,-2.451 l 0.008,-24.938 c 0,-1.273 -1.029,-2.303 -2.302,-2.303 l -13.227,0 c -1.272,0 -2.303,1.03 -2.303,2.303 l 0.01,24.938 c 0,1.043 0.592,1.931 1.414,2.451 l -0.682,-0.03 c -0.404,0 -0.732,0.329 -0.732,0.733 l 0,1.146 c 0,0.405 0.328,0.733 0.732,0.733 L 0,0 z"
             style="fill:#ffffff;fill-opacity:1;fill-rule:nonzero;stroke:none"
             id="path3703" />
        </g>
      </g>
    </g>
  </g>
</svg>
