<?xml version="1.0" encoding="UTF-8" standalone="no"?>
<!-- Created with Inkscape (http://www.inkscape.org/) -->

<svg
   xmlns:dc="http://purl.org/dc/elements/1.1/"
   xmlns:cc="http://creativecommons.org/ns#"
   xmlns:rdf="http://www.w3.org/1999/02/22-rdf-syntax-ns#"
   xmlns:svg="http://www.w3.org/2000/svg"
   xmlns="http://www.w3.org/2000/svg"
   xmlns:sodipodi="http://sodipodi.sourceforge.net/DTD/sodipodi-0.dtd"
   xmlns:inkscape="http://www.inkscape.org/namespaces/inkscape"
   width="90.625"
   height="90.625"
   id="svg6516"
   version="1.1"
   inkscape:version="0.48.3.1 r9886"
   sodipodi:docname="New document 48">
  <defs
     id="defs6518">
    <clipPath
       clipPathUnits="userSpaceOnUse"
       id="clipPath3117">
      <path
         inkscape:connector-curvature="0"
         d="m 27,45 513,0 0,693 -513,0 0,-693 z"
         id="path3119" />
    </clipPath>
  </defs>
  <sodipodi:namedview
     id="base"
     pagecolor="#ffffff"
     bordercolor="#666666"
     borderopacity="1.0"
     inkscape:pageopacity="0.0"
     inkscape:pageshadow="2"
     inkscape:zoom="0.35"
     inkscape:cx="45.31125"
     inkscape:cy="45.311877"
     inkscape:document-units="px"
     inkscape:current-layer="layer1"
     showgrid="false"
     fit-margin-top="0"
     fit-margin-left="0"
     fit-margin-right="0"
     fit-margin-bottom="0"
     inkscape:window-width="451"
     inkscape:window-height="415"
     inkscape:window-x="25"
     inkscape:window-y="25"
     inkscape:window-maximized="0" />
  <metadata
     id="metadata6521">
    <rdf:RDF>
      <cc:Work
         rdf:about="">
        <dc:format>image/svg+xml</dc:format>
        <dc:type
           rdf:resource="http://purl.org/dc/dcmitype/StillImage" />
        <dc:title></dc:title>
      </cc:Work>
    </rdf:RDF>
  </metadata>
  <g
     inkscape:label="Layer 1"
     inkscape:groupmode="layer"
     id="layer1"
     transform="translate(-329.68875,-487.04906)">
    <g
       transform="matrix(1.25,0,0,-1.25,-33.507125,981.09806)"
       id="g3113">
      <g
         id="g3115"
         clip-path="url(#clipPath3117)">
        <g
           id="g3121"
           transform="translate(296.8067,322.9892)">
          <path
             inkscape:connector-curvature="0"
             d="m 0,0 59.998,0 c 1.58,0 3.125,0.639 4.244,1.76 1.117,1.115 1.756,2.66 1.756,4.24 l 0,59.999 c 0,1.58 -0.639,3.124 -1.756,4.244 -1.119,1.116 -2.664,1.756 -4.244,1.756 L 0,71.999 c -1.58,0 -3.125,-0.64 -4.24,-1.756 C -5.359,69.123 -6,67.579 -6,65.999 L -6,6 C -6,3.944 -4.908,2 -3.176,0.895 -2.188,0.268 -1.145,0.119 0,0"
             style="fill:#ffffff;fill-opacity:1;fill-rule:nonzero;stroke:none"
             id="path3123" />
        </g>
        <g
           id="g3125"
           transform="translate(296.8067,322.9892)">
          <path
             inkscape:connector-curvature="0"
             d="m 0,0 59.998,0 c 1.58,0 3.125,0.639 4.244,1.76 1.117,1.115 1.756,2.66 1.756,4.24 l 0,59.999 c 0,1.58 -0.639,3.124 -1.756,4.244 -1.119,1.116 -2.664,1.756 -4.244,1.756 L 0,71.999 c -1.58,0 -3.125,-0.64 -4.24,-1.756 C -5.359,69.123 -6,67.579 -6,65.999 L -6,6 C -6,3.944 -4.908,2 -3.176,0.895 -2.188,0.268 -1.145,0.119 0,0 z"
             style="fill:none;stroke:#231f20;stroke-width:0.5;stroke-linecap:butt;stroke-linejoin:miter;stroke-miterlimit:4;stroke-opacity:1;stroke-dasharray:none"
             id="path3127" />
        </g>
        <g
           id="g3129"
           transform="translate(296.8067,324.4892)">
          <path
             inkscape:connector-curvature="0"
             d="M 0,0 C -0.895,0 -1.647,0.201 -2.371,0.66 -3.682,1.494 -4.5,2.967 -4.5,4.5 l 0,59.999 c 0,1.182 0.48,2.344 1.32,3.183 0.834,0.834 1.998,1.317 3.18,1.317 l 59.998,0 c 1.186,0 2.35,-0.48 3.184,-1.317 0.837,-0.834 1.316,-1.998 1.316,-3.183 l 0,-59.999 C 64.498,3.319 64.016,2.155 63.182,1.321 62.342,0.479 61.182,0 59.998,0 L 0,0 z"
             style="fill:#713907;fill-opacity:1;fill-rule:evenodd;stroke:none"
             id="path3131" />
        </g>
      </g>
    </g>
    <g
       id="g3187"
       transform="matrix(1.25,0,0,-1.25,367.54249,509.29031)">
      <path
         d="M 0,0 C 1.932,0.19 3.346,1.907 3.158,3.836 2.967,5.766 1.248,7.18 -0.682,6.992 -2.611,6.805 -4.023,5.084 -3.834,3.155 -3.646,1.223 -1.93,-0.187 0,0"
         style="fill:#ffffff;fill-opacity:1;fill-rule:nonzero;stroke:none"
         id="path3189"
         inkscape:connector-curvature="0" />
    </g>
    <g
       id="g3191"
       transform="matrix(1.25,0,0,-1.25,376.285,522.81781)">
      <path
         d="m 0,0 -9.021,10.002 c -0.131,0.146 -0.367,0.367 -0.531,0.459 -1.192,0.978 -2.909,1.164 -4.299,0.314 l -8.35,-5.089 c -1.1,-0.67 -1.728,-1.817 -1.783,-3.014 -0.029,-0.24 -0.014,-0.475 0.035,-0.719 0.004,-0.014 0.01,-0.025 0.012,-0.039 0.035,-0.148 0.041,-0.301 0.109,-0.443 l 0.004,-0.01 c 0.092,-0.309 0.207,-0.611 0.383,-0.9 0.033,-0.055 0.08,-0.1 0.115,-0.155 l 2.02,-4.269 -4.354,-5.481 c -0.756,-0.949 -0.598,-2.334 0.356,-3.088 0.949,-0.755 2.334,-0.597 3.089,0.354 l 5.204,6.551 c 0.07,0.086 0.091,0.191 0.146,0.283 0.08,0.141 0.166,0.271 0.215,0.424 0.043,0.136 0.047,0.275 0.064,0.416 0.016,0.138 0.043,0.271 0.032,0.414 -0.012,0.162 -0.069,0.308 -0.114,0.463 -0.004,0.006 -0.004,0.009 -0.004,0.013 1.184,-0.875 2.313,-1.709 2.858,-2.113 -0.035,-1.758 -0.158,-8.381 -0.158,-8.396 0,-1.196 0.957,-2.174 2.156,-2.198 1.215,-0.023 2.219,0.942 2.242,2.159 l 0.178,9.488 c 0.013,0.711 -0.319,1.385 -0.893,1.808 l -5.172,3.825 6.369,3.912 6.536,-7.272 c 0.634,-0.707 1.72,-0.763 2.427,-0.129 C 0.578,-1.795 0.637,-0.705 0,0"
         style="fill:#ffffff;fill-opacity:1;fill-rule:nonzero;stroke:none"
         id="path3193"
         inkscape:connector-curvature="0" />
    </g>
    <g
       id="g3195"
       transform="matrix(1.25,0,0,-1.25,340.81374,564.26281)">
      <path
         d="m 0,0 c 1.225,0 2.397,0.275 3.448,0.746 1.072,0.5 2.283,0.791 3.548,0.791 1.264,0 2.471,-0.291 3.547,-0.791 C 11.59,0.275 12.766,0 13.991,0 c 1.222,0 2.394,0.275 3.445,0.746 1.072,0.5 2.285,0.791 3.549,0.791 1.259,0 2.47,-0.291 3.547,-0.791 C 25.578,0.275 26.754,0 27.979,0 c 1.224,0 2.396,0.275 3.443,0.746 1.076,0.5 2.287,0.791 3.551,0.791 1.26,0 2.473,-0.291 3.549,-0.791 C 39.569,0.275 40.744,0 41.967,0 c 1.221,0 2.397,0.275 3.445,0.746 1.075,0.5 2.286,0.791 3.551,0.791 1.26,0 2.471,-0.291 3.547,-0.791 C 53.557,0.275 54.733,0 55.957,0 l 0,5.162 c -1.224,0 -2.4,0.279 -3.447,0.748 -1.076,0.5 -2.287,0.791 -3.547,0.791 -1.265,0 -2.476,-0.291 -3.551,-0.791 -1.048,-0.469 -2.224,-0.748 -3.445,-0.748 -1.223,0 -2.398,0.279 -3.445,0.748 -1.076,0.5 -2.289,0.791 -3.549,0.791 -1.264,0 -2.475,-0.291 -3.551,-0.791 -1.047,-0.469 -2.219,-0.748 -3.443,-0.748 -1.225,0 -2.401,0.279 -3.447,0.748 -1.077,0.5 -2.288,0.791 -3.547,0.791 C 19.721,6.701 18.508,6.41 17.436,5.91 16.385,5.441 15.213,5.162 13.991,5.162 12.766,5.162 11.59,5.441 10.543,5.91 9.467,6.41 8.26,6.701 6.996,6.701 5.731,6.701 4.52,6.41 3.448,5.91 2.397,5.441 1.225,5.162 0,5.162 L 0,0 z"
         style="fill:#ffffff;fill-opacity:1;fill-rule:nonzero;stroke:none"
         id="path3197"
         inkscape:connector-curvature="0" />
    </g>
    <g
       id="g3199"
       transform="matrix(1.25,0,0,-1.25,340.81374,555.51281)">
      <path
         d="M 0,0 C 0.92,0 1.828,0.197 2.674,0.576 4.026,1.205 5.52,1.535 6.996,1.535 8.485,1.535 9.94,1.213 11.297,0.586 12.147,0.201 13.08,0 13.991,0 c 0.919,0 1.828,0.197 2.673,0.576 1.35,0.629 2.846,0.959 4.321,0.959 1.468,0 2.963,-0.33 4.3,-0.949 C 26.137,0.201 27.069,0 27.979,0 c 0.92,0 1.826,0.197 2.672,0.578 0.881,0.406 1.822,0.674 2.775,0.822 L 28.713,4.789 21.926,4.972 17.157,8.275 8.164,11.76 -0.201,12.861 -0.156,0 0,0 z"
         style="fill:#ffffff;fill-opacity:1;fill-rule:nonzero;stroke:none"
         id="path3201"
         inkscape:connector-curvature="0" />
    </g>
    <g
       id="g3203"
       transform="matrix(1.25,0,0,-1.25,340.81374,564.26281)">
      <path
         d="m 0,0 c 1.225,0 2.397,0.275 3.448,0.746 1.072,0.5 2.283,0.791 3.548,0.791 1.264,0 2.471,-0.291 3.547,-0.791 C 11.59,0.275 12.766,0 13.991,0 c 1.222,0 2.394,0.275 3.445,0.746 1.072,0.5 2.285,0.791 3.549,0.791 1.259,0 2.47,-0.291 3.547,-0.791 C 25.578,0.275 26.754,0 27.979,0 c 1.224,0 2.396,0.275 3.443,0.746 1.076,0.5 2.287,0.791 3.551,0.791 1.26,0 2.473,-0.291 3.549,-0.791 C 39.569,0.275 40.744,0 41.967,0 c 1.221,0 2.397,0.275 3.445,0.746 1.075,0.5 2.286,0.791 3.551,0.791 1.26,0 2.471,-0.291 3.547,-0.791 C 53.557,0.275 54.733,0 55.957,0 l 0,5.162 c -1.224,0 -2.4,0.279 -3.447,0.748 -1.076,0.5 -2.287,0.791 -3.547,0.791 -1.265,0 -2.476,-0.291 -3.551,-0.791 -1.048,-0.469 -2.224,-0.748 -3.445,-0.748 -1.223,0 -2.398,0.279 -3.445,0.748 -1.076,0.5 -2.289,0.791 -3.549,0.791 -1.264,0 -2.475,-0.291 -3.551,-0.791 -1.047,-0.469 -2.219,-0.748 -3.443,-0.748 -1.225,0 -2.401,0.279 -3.447,0.748 -1.077,0.5 -2.288,0.791 -3.547,0.791 C 19.721,6.701 18.508,6.41 17.436,5.91 16.385,5.441 15.213,5.162 13.991,5.162 12.766,5.162 11.59,5.441 10.543,5.91 9.467,6.41 8.26,6.701 6.996,6.701 5.731,6.701 4.52,6.41 3.448,5.91 2.397,5.441 1.225,5.162 0,5.162 L 0,0 z"
         style="fill:#ffffff;fill-opacity:1;fill-rule:nonzero;stroke:none"
         id="path3205"
         inkscape:connector-curvature="0" />
    </g>
    <g
       id="g3207"
       transform="matrix(1.25,0,0,-1.25,409.35375,544.89031)">
      <path
         d="m 0,0 -12.373,5.883 c 0.762,0.16 1.346,0.804 1.346,1.613 0,0.93 -0.752,1.68 -1.682,1.68 -0.927,0 -1.679,-0.75 -1.679,-1.68 0,-0.272 0.08,-0.52 0.195,-0.748 l -12.51,5.949 c -2.006,0.953 -4.383,0.133 -5.396,-1.818 L 1.998,-5.326 C 2.866,-3.309 2.002,-0.951 0,0 m -13.502,7.496 c 0,0.439 0.356,0.793 0.793,0.793 0.44,0 0.795,-0.354 0.795,-0.793 0,-0.438 -0.355,-0.795 -0.795,-0.795 -0.437,0 -0.793,0.357 -0.793,0.795"
         style="fill:#ffffff;fill-opacity:1;fill-rule:nonzero;stroke:none"
         id="path3209"
         inkscape:connector-curvature="0" />
    </g>
    <g
       id="g3211"
       transform="matrix(1.25,0,0,-1.25,368.72374,532.81781)">
      <path
         d="M 0,0 C -0.293,-1.764 0.575,-3.578 2.272,-4.383 L 28.975,-17.08 c 1.695,-0.807 3.652,-0.336 4.834,1.004 L 0,0 z"
         style="fill:#ffffff;fill-opacity:1;fill-rule:nonzero;stroke:none"
         id="path3213"
         inkscape:connector-curvature="0" />
    </g>
  </g>
</svg>
