<?xml version="1.0" encoding="UTF-8" standalone="no"?>
<!-- Created with Inkscape (http://www.inkscape.org/) -->

<svg
   xmlns:dc="http://purl.org/dc/elements/1.1/"
   xmlns:cc="http://creativecommons.org/ns#"
   xmlns:rdf="http://www.w3.org/1999/02/22-rdf-syntax-ns#"
   xmlns:svg="http://www.w3.org/2000/svg"
   xmlns="http://www.w3.org/2000/svg"
   xmlns:sodipodi="http://sodipodi.sourceforge.net/DTD/sodipodi-0.dtd"
   xmlns:inkscape="http://www.inkscape.org/namespaces/inkscape"
   width="90.625"
   height="90.625"
   id="svg6310"
   version="1.1"
   inkscape:version="0.48.3.1 r9886"
   sodipodi:docname="New document 55">
  <defs
     id="defs6312">
    <clipPath
       clipPathUnits="userSpaceOnUse"
       id="clipPath4087">
      <path
         inkscape:connector-curvature="0"
         d="m 63,178.034 513,0 0,559.966 -513,0 0,-559.966 z"
         id="path4089" />
    </clipPath>
    <clipPath
       clipPathUnits="userSpaceOnUse"
       id="clipPath4075">
      <path
         inkscape:connector-curvature="0"
         d="m 67.055,180.004 504.891,0 0,557.996 -504.891,0 0,-557.996 z"
         id="path4077" />
    </clipPath>
    <clipPath
       clipPathUnits="userSpaceOnUse"
       id="clipPath4063">
      <path
         inkscape:connector-curvature="0"
         d="m 63,178.034 513,0 0,559.966 -513,0 0,-559.966 z"
         id="path4065" />
    </clipPath>
  </defs>
  <sodipodi:namedview
     id="base"
     pagecolor="#ffffff"
     bordercolor="#666666"
     borderopacity="1.0"
     inkscape:pageopacity="0.0"
     inkscape:pageshadow="2"
     inkscape:zoom="0.35"
     inkscape:cx="45.3125"
     inkscape:cy="45.312507"
     inkscape:document-units="px"
     inkscape:current-layer="layer1"
     showgrid="false"
     fit-margin-top="0"
     fit-margin-left="0"
     fit-margin-right="0"
     fit-margin-bottom="0"
     inkscape:window-width="451"
     inkscape:window-height="398"
     inkscape:window-x="125"
     inkscape:window-y="125"
     inkscape:window-maximized="0" />
  <metadata
     id="metadata6315">
    <rdf:RDF>
      <cc:Work
         rdf:about="">
        <dc:format>image/svg+xml</dc:format>
        <dc:type
           rdf:resource="http://purl.org/dc/dcmitype/StillImage" />
        <dc:title></dc:title>
      </cc:Work>
    </rdf:RDF>
  </metadata>
  <g
     inkscape:label="Layer 1"
     inkscape:groupmode="layer"
     id="layer1"
     transform="translate(-329.6875,-487.04968)">
    <g
       transform="matrix(1.25,0,0,-1.25,-294.6195,965.83706)"
       id="g4059">
      <g
         id="g4061"
         clip-path="url(#clipPath4063)">
        <g
           id="g4067"
           transform="translate(505.6956,310.7799)">
          <path
             inkscape:connector-curvature="0"
             d="m 0,0 60,0 c 1.58,0 3.125,0.641 4.244,1.76 C 65.361,2.877 66,4.42 66,6 l 0,60 c 0,1.58 -0.639,3.123 -1.756,4.244 C 63.125,71.36 61.58,72 60,72 L 0,72 C -1.578,72 -3.123,71.36 -4.241,70.244 -5.36,69.123 -6,67.58 -6,66 L -6,6 C -6,3.944 -4.909,2 -3.176,0.897 -2.188,0.268 -1.143,0.121 0,0"
             style="fill:#ffffff;fill-opacity:1;fill-rule:nonzero;stroke:none"
             id="path4069" />
        </g>
      </g>
    </g>
    <g
       transform="matrix(1.25,0,0,-1.25,-294.6195,965.83706)"
       id="g4071">
      <g
         id="g4073"
         clip-path="url(#clipPath4075)">
        <g
           id="g4079"
           transform="translate(505.6956,310.7799)">
          <path
             inkscape:connector-curvature="0"
             d="m 0,0 60,0 c 1.58,0 3.125,0.641 4.244,1.76 C 65.361,2.877 66,4.42 66,6 l 0,60 c 0,1.58 -0.639,3.123 -1.756,4.244 C 63.125,71.36 61.58,72 60,72 L 0,72 C -1.578,72 -3.123,71.36 -4.241,70.244 -5.36,69.123 -6,67.58 -6,66 L -6,6 C -6,3.944 -4.909,2 -3.176,0.897 -2.188,0.268 -1.143,0.121 0,0 z"
             style="fill:none;stroke:#231f20;stroke-width:0.5;stroke-linecap:butt;stroke-linejoin:miter;stroke-miterlimit:4;stroke-opacity:1;stroke-dasharray:none"
             id="path4081" />
        </g>
      </g>
    </g>
    <g
       transform="matrix(1.25,0,0,-1.25,-294.6195,965.83706)"
       id="g4083">
      <g
         id="g4085"
         clip-path="url(#clipPath4087)">
        <g
           id="g4091"
           transform="translate(505.6956,312.2799)">
          <path
             inkscape:connector-curvature="0"
             d="M 0,0 C -0.893,0 -1.647,0.201 -2.37,0.66 -3.68,1.494 -4.5,2.967 -4.5,4.5 l 0,60 c 0,1.182 0.48,2.344 1.32,3.184 C -2.346,68.518 -1.182,69 0,69 l 60,0 c 1.185,0 2.349,-0.48 3.183,-1.316 C 64.021,66.85 64.5,65.686 64.5,64.5 l 0,-60 C 64.5,3.319 64.017,2.155 63.183,1.321 62.343,0.481 61.183,0 60,0 L 0,0 z"
             style="fill:#713907;fill-opacity:1;fill-rule:evenodd;stroke:none"
             id="path4093" />
        </g>
        <g
           id="g4095"
           transform="translate(524.1516,340.9929)">
          <path
             inkscape:connector-curvature="0"
             d="m 0,0 c -0.509,3.05 -3.161,5.368 -6.35,5.368 -3.008,0 -5.528,-2.054 -6.237,-4.839 l -4.582,0.432 c -0.466,0.042 -0.869,0.411 -0.856,0.898 l 0.167,6.231 c 0.034,0.975 0.912,1.636 1.852,1.643 L 7.372,9.907 c 0.181,2.36 0.404,4.366 0.814,6.524 0.084,0.41 0.46,0.654 0.857,0.717 2.631,0.362 5.292,0.306 7.93,0.048 0.738,-0.077 1.476,-0.286 2.018,-0.793 l 5.772,-5.828 C 31.614,9.99 40.992,10.144 41.048,7.944 l 0.055,-8.404 -1.755,0.022 c -0.354,3.216 -3.084,5.716 -6.398,5.716 -3.189,0 -5.834,-2.319 -6.349,-5.361 L 6.955,-0.02 0,0 z"
             style="fill:#ffffff;fill-opacity:1;fill-rule:nonzero;stroke:none"
             id="path4097" />
        </g>
        <g
           id="g4099"
           transform="translate(545.2947,352.0199)">
          <path
             inkscape:connector-curvature="0"
             d="M 0,0 -3.766,4.768 C -4.017,5.095 -4.435,5.2 -4.832,5.228 l -5.012,0.007 c -0.55,0 -0.912,-0.265 -0.975,-1.003 l -0.348,-4.399 c -0.028,-0.398 0.243,-0.781 0.661,-0.781 l 9.955,-0.013 C -0.055,-0.961 0.334,-0.418 0,0"
             style="fill:#713907;fill-opacity:1;fill-rule:nonzero;stroke:none"
             id="path4101" />
        </g>
        <g
           id="g4103"
           transform="translate(517.8086,344.6209)">
          <path
             inkscape:connector-curvature="0"
             d="m 0,0 c 2.598,0 4.699,-2.102 4.699,-4.699 0,-2.598 -2.101,-4.7 -4.699,-4.7 -2.597,0 -4.699,2.102 -4.699,4.7 C -4.699,-2.102 -2.597,0 0,0"
             style="fill:#ffffff;fill-opacity:1;fill-rule:nonzero;stroke:none"
             id="path4105" />
        </g>
        <g
           id="g4107"
           transform="translate(557.1096,344.5319)">
          <path
             inkscape:connector-curvature="0"
             d="m 0,0 c 2.596,0 4.699,-2.102 4.699,-4.699 0,-2.597 -2.103,-4.7 -4.699,-4.7 -2.597,0 -4.7,2.103 -4.7,4.7 C -4.7,-2.102 -2.597,0 0,0"
             style="fill:#ffffff;fill-opacity:1;fill-rule:nonzero;stroke:none"
             id="path4109" />
        </g>
        <g
           id="g4111"
           transform="translate(557.1106,342.4439)">
          <path
             inkscape:connector-curvature="0"
             d="m 0,0 c -1.442,0 -2.612,-1.17 -2.612,-2.611 0,-1.44 1.17,-2.61 2.612,-2.61 1.44,0 2.61,1.17 2.61,2.61 C 2.61,-1.17 1.44,0 0,0"
             style="fill:#713907;fill-opacity:1;fill-rule:nonzero;stroke:none"
             id="path4113" />
        </g>
        <g
           id="g4115"
           transform="translate(517.8097,342.5329)">
          <path
             inkscape:connector-curvature="0"
             d="m 0,0 c -1.442,0 -2.61,-1.17 -2.61,-2.611 0,-1.442 1.168,-2.61 2.61,-2.61 1.44,0 2.61,1.168 2.61,2.61 C 2.61,-1.17 1.44,0 0,0"
             style="fill:#713907;fill-opacity:1;fill-rule:nonzero;stroke:none"
             id="path4117" />
        </g>
      </g>
    </g>
  </g>
</svg>
