<?xml version="1.0" encoding="UTF-8" standalone="no"?>
<!-- Created with Inkscape (http://www.inkscape.org/) -->

<svg
   xmlns:dc="http://purl.org/dc/elements/1.1/"
   xmlns:cc="http://creativecommons.org/ns#"
   xmlns:rdf="http://www.w3.org/1999/02/22-rdf-syntax-ns#"
   xmlns:svg="http://www.w3.org/2000/svg"
   xmlns="http://www.w3.org/2000/svg"
   xmlns:sodipodi="http://sodipodi.sourceforge.net/DTD/sodipodi-0.dtd"
   xmlns:inkscape="http://www.inkscape.org/namespaces/inkscape"
   width="90.625"
   height="90.625"
   id="svg7118"
   version="1.1"
   inkscape:version="0.48.3.1 r9886"
   sodipodi:docname="New document 46">
  <defs
     id="defs7120">
    <clipPath
       clipPathUnits="userSpaceOnUse"
       id="clipPath4063">
      <path
         inkscape:connector-curvature="0"
         d="m 63,299.972 513,0 0,437.279 -513,0 0,-437.279 z"
         id="path4065" />
    </clipPath>
  </defs>
  <sodipodi:namedview
     id="base"
     pagecolor="#ffffff"
     bordercolor="#666666"
     borderopacity="1.0"
     inkscape:pageopacity="0.0"
     inkscape:pageshadow="2"
     inkscape:zoom="0.35"
     inkscape:cx="-88.260179"
     inkscape:cy="-117.54527"
     inkscape:document-units="px"
     inkscape:current-layer="layer1"
     showgrid="false"
     fit-margin-top="0"
     fit-margin-left="0"
     fit-margin-right="0"
     fit-margin-bottom="0"
     inkscape:window-width="451"
     inkscape:window-height="398"
     inkscape:window-x="175"
     inkscape:window-y="175"
     inkscape:window-maximized="0" />
  <metadata
     id="metadata7123">
    <rdf:RDF>
      <cc:Work
         rdf:about="">
        <dc:format>image/svg+xml</dc:format>
        <dc:type
           rdf:resource="http://purl.org/dc/dcmitype/StillImage" />
        <dc:title></dc:title>
      </cc:Work>
    </rdf:RDF>
  </metadata>
  <g
     inkscape:label="Layer 1"
     inkscape:groupmode="layer"
     id="layer1"
     transform="translate(-463.26018,-324.19191)">
    <g
       transform="matrix(1.25,0,0,-1.25,55.160179,819.77141)"
       id="g4059">
      <g
         id="g4061"
         clip-path="url(#clipPath4063)">
        <g
           id="g4067"
           transform="translate(332.73,324.2136)">
          <path
             inkscape:connector-curvature="0"
             d="m 0,0 59.998,0 c 1.58,0 3.125,0.639 4.244,1.76 1.117,1.115 1.756,2.66 1.756,4.24 l 0,59.998 c 0,1.58 -0.639,3.124 -1.756,4.245 -1.119,1.116 -2.664,1.756 -4.244,1.756 L 0,71.999 c -1.58,0 -3.125,-0.64 -4.241,-1.756 C -5.36,69.122 -6,67.578 -6,65.998 L -6,6 C -6,3.943 -4.909,2 -3.176,0.894 -2.188,0.267 -1.145,0.119 0,0"
             style="fill:#ffffff;fill-opacity:1;fill-rule:nonzero;stroke:none"
             id="path4069" />
        </g>
        <g
           id="g4071"
           transform="translate(332.73,324.2136)">
          <path
             inkscape:connector-curvature="0"
             d="m 0,0 59.998,0 c 1.58,0 3.125,0.639 4.244,1.76 1.117,1.115 1.756,2.66 1.756,4.24 l 0,59.998 c 0,1.58 -0.639,3.124 -1.756,4.245 -1.119,1.116 -2.664,1.756 -4.244,1.756 L 0,71.999 c -1.58,0 -3.125,-0.64 -4.241,-1.756 C -5.36,69.122 -6,67.578 -6,65.998 L -6,6 C -6,3.943 -4.909,2 -3.176,0.894 -2.188,0.267 -1.145,0.119 0,0 z"
             style="fill:none;stroke:#231f20;stroke-width:0.5;stroke-linecap:butt;stroke-linejoin:miter;stroke-miterlimit:4;stroke-opacity:1;stroke-dasharray:none"
             id="path4073" />
        </g>
        <g
           id="g4075"
           transform="translate(332.73,325.7136)">
          <path
             inkscape:connector-curvature="0"
             d="M 0,0 C -0.895,0 -1.647,0.201 -2.371,0.66 -3.682,1.494 -4.5,2.967 -4.5,4.5 l 0,59.998 c 0,1.183 0.48,2.344 1.32,3.184 0.834,0.834 1.998,1.316 3.18,1.316 l 59.998,0 c 1.185,0 2.349,-0.479 3.183,-1.316 0.838,-0.834 1.317,-1.998 1.317,-3.184 l 0,-59.998 C 64.498,3.318 64.015,2.154 63.181,1.32 62.341,0.478 61.181,0 59.998,0 L 0,0 z"
             style="fill:#713907;fill-opacity:1;fill-rule:evenodd;stroke:none"
             id="path4077" />
        </g>
        <g
           id="g4079"
           transform="translate(337.6591,359.6956)">
          <path
             inkscape:connector-curvature="0"
             d="M 0,0 C 0,1.157 0.938,2.094 2.092,2.094 3.248,2.094 4.186,1.157 4.186,0 4.186,-1.154 3.248,-2.092 2.092,-2.092 0.938,-2.092 0,-1.154 0,0"
             style="fill:#ffffff;fill-opacity:1;fill-rule:nonzero;stroke:none"
             id="path4081" />
        </g>
        <g
           id="g4083"
           transform="translate(368.9,379.2916)">
          <path
             inkscape:connector-curvature="0"
             d="M 0,0 C 2.519,0 4.556,2.041 4.556,4.557 4.556,7.077 2.519,9.118 0,9.118 -2.518,9.118 -4.557,7.077 -4.557,4.557 -4.557,2.041 -2.518,0 0,0"
             style="fill:#ffffff;fill-opacity:1;fill-rule:nonzero;stroke:none"
             id="path4085" />
        </g>
        <g
           id="g4087"
           transform="translate(388.4951,338.6846)">
          <path
             inkscape:connector-curvature="0"
             d="m 0,0 -7.412,8.748 c 0,0 -2.301,13.496 -2.306,13.531 -0.002,0.01 -0.342,1.523 -0.342,1.523 0.002,-0.009 -0.938,4.266 -1.668,7.6 1.168,-0.662 2.207,-1.258 2.258,-1.287 0.062,-0.121 3.931,-7.485 3.931,-7.485 0.287,-0.546 0.772,-0.949 1.362,-1.132 0.591,-0.184 1.218,-0.125 1.765,0.162 0.549,0.287 0.953,0.771 1.135,1.363 0.185,0.59 0.127,1.217 -0.16,1.764 l -4.248,8.08 c 0,0.004 -0.162,0.295 -0.391,0.525 -0.307,0.307 -0.965,0.674 -0.965,0.674 0,0 -8.248,4.697 -8.248,4.695 -1.039,0.526 -2.203,0.703 -3.357,0.459 -0.463,-0.101 -0.912,-0.277 -1.414,-0.558 -0.055,-0.02 -1.887,-0.819 -2.938,-3.305 l -4.24,-8.518 c 0,0 -6.432,-1.244 -6.662,-1.296 -0.053,-0.012 -0.108,-0.028 -0.158,-0.045 l -6.02,4.254 c -1.357,0.949 -1.523,3.781 -1.533,3.902 -0.168,1.943 -1.283,3.779 -3.065,5.047 -1.619,1.148 -3.564,1.632 -5.343,1.333 -1.391,-0.236 -2.571,-0.95 -3.324,-2.009 -0.583,-0.818 -0.891,-1.811 -0.891,-2.867 0,-0.018 0.078,-0.928 0.078,-0.928 0.305,-1.789 1.406,-3.465 3.025,-4.613 1.623,-1.153 3.567,-1.643 5.342,-1.344 0.008,0.004 0.42,0.094 0.42,0.094 0.041,0.015 2.717,0.836 4.02,-0.055 0.007,-0.006 4.511,-3.176 5.716,-4.027 -0.126,-0.201 -0.355,-0.627 -0.345,-1.074 0.004,-0.141 0.015,-0.286 0.043,-0.424 0.242,-1.254 1.463,-2.076 2.717,-1.832 l 7.986,1.552 c 0.006,0 0.685,0.213 0.986,0.424 0.367,0.26 0.645,0.817 0.645,0.817 0,0.002 2.111,4.242 2.111,4.242 0,0 1.447,-6.848 1.473,-6.963 -0.164,-0.174 -6.557,-6.945 -6.557,-6.945 0,-0.004 -0.111,-0.143 -0.111,-0.143 -0.627,-0.568 -0.975,-1.326 -0.975,-2.113 l 0,-14.365 c 0,-1.53 1.246,-2.774 2.776,-2.774 1.529,0 2.773,1.244 2.773,2.774 l 0,11.99 c 0.584,0.613 5.492,5.777 6.799,7.15 0.14,-0.818 1.404,-8.088 1.404,-8.088 0.111,-0.644 0.41,-1.23 0.871,-1.699 0.006,-0.016 8.807,-10.4 8.807,-10.4 0.478,-0.563 1.146,-0.909 1.887,-0.971 0.74,-0.061 1.457,0.172 2.021,0.648 0.645,0.549 0.979,1.332 0.979,2.12 C 0.657,-1.157 0.444,-0.518 0,0 m -43.918,31.326 c -0.486,-0.688 -1.238,-1.133 -2.172,-1.291 -1.31,-0.221 -2.767,0.156 -4.005,1.035 -1.239,0.881 -2.075,2.135 -2.295,3.443 l -0.059,0.656 c 0,0.682 0.19,1.295 0.561,1.821 1.209,1.701 3.98,1.816 6.179,0.254 2.198,-1.565 2.998,-4.217 1.791,-5.918"
             style="fill:#ffffff;fill-opacity:1;fill-rule:nonzero;stroke:none"
             id="path4089" />
        </g>
      </g>
    </g>
  </g>
</svg>
