<?xml version="1.0" encoding="UTF-8" standalone="no"?>
<!-- Created with Inkscape (http://www.inkscape.org/) -->

<svg
   xmlns:dc="http://purl.org/dc/elements/1.1/"
   xmlns:cc="http://creativecommons.org/ns#"
   xmlns:rdf="http://www.w3.org/1999/02/22-rdf-syntax-ns#"
   xmlns:svg="http://www.w3.org/2000/svg"
   xmlns="http://www.w3.org/2000/svg"
   xmlns:sodipodi="http://sodipodi.sourceforge.net/DTD/sodipodi-0.dtd"
   xmlns:inkscape="http://www.inkscape.org/namespaces/inkscape"
   width="90.625"
   height="90.625"
   id="svg7443"
   version="1.1"
   inkscape:version="0.48.3.1 r9886"
   sodipodi:docname="New document 66">
  <defs
     id="defs7445" />
  <sodipodi:namedview
     id="base"
     pagecolor="#ffffff"
     bordercolor="#666666"
     borderopacity="1.0"
     inkscape:pageopacity="0.0"
     inkscape:pageshadow="2"
     inkscape:zoom="0.35"
     inkscape:cx="45.31125"
     inkscape:cy="45.312497"
     inkscape:document-units="px"
     inkscape:current-layer="layer1"
     showgrid="false"
     fit-margin-top="0"
     fit-margin-left="0"
     fit-margin-right="0"
     fit-margin-bottom="0"
     inkscape:window-width="451"
     inkscape:window-height="398"
     inkscape:window-x="175"
     inkscape:window-y="175"
     inkscape:window-maximized="0" />
  <metadata
     id="metadata7448">
    <rdf:RDF>
      <cc:Work
         rdf:about="">
        <dc:format>image/svg+xml</dc:format>
        <dc:type
           rdf:resource="http://purl.org/dc/dcmitype/StillImage" />
        <dc:title></dc:title>
      </cc:Work>
    </rdf:RDF>
  </metadata>
  <g
     inkscape:label="Layer 1"
     inkscape:groupmode="layer"
     id="layer1"
     transform="translate(-329.68875,-487.04968)">
    <g
       id="g4443"
       transform="matrix(1.25,0,0,-1.25,337.50125,577.36218)">
      <path
         d="m 0,0 59.998,0 c 1.58,0 3.125,0.64 4.244,1.76 1.117,1.117 1.756,2.66 1.756,4.24 l 0,60 c 0,1.58 -0.639,3.123 -1.756,4.244 C 63.123,71.36 61.578,72 59.998,72 L 0,72 C -1.58,72 -3.125,71.36 -4.24,70.244 -5.359,69.123 -6,67.58 -6,66 L -6,6 C -6,3.943 -4.908,2 -3.176,0.896 -2.188,0.267 -1.145,0.121 0,0"
         style="fill:#ffffff;fill-opacity:1;fill-rule:nonzero;stroke:none"
         id="path4445"
         inkscape:connector-curvature="0" />
    </g>
    <g
       id="g4447"
       transform="matrix(1.25,0,0,-1.25,337.50125,577.36218)">
      <path
         d="m 0,0 59.998,0 c 1.58,0 3.125,0.64 4.244,1.76 1.117,1.117 1.756,2.66 1.756,4.24 l 0,60 c 0,1.58 -0.639,3.123 -1.756,4.244 C 63.123,71.36 61.578,72 59.998,72 L 0,72 C -1.58,72 -3.125,71.36 -4.24,70.244 -5.359,69.123 -6,67.58 -6,66 L -6,6 C -6,3.943 -4.908,2 -3.176,0.896 -2.188,0.267 -1.145,0.121 0,0 z"
         style="fill:none;stroke:#231f20;stroke-width:0.5;stroke-linecap:butt;stroke-linejoin:miter;stroke-miterlimit:4;stroke-opacity:1;stroke-dasharray:none"
         id="path4449"
         inkscape:connector-curvature="0" />
    </g>
    <g
       id="g4451"
       transform="matrix(1.25,0,0,-1.25,337.50125,575.48718)">
      <path
         d="M 0,0 C -0.895,0 -1.647,0.201 -2.371,0.66 -3.682,1.494 -4.5,2.967 -4.5,4.5 l 0,60 c 0,1.182 0.48,2.344 1.32,3.184 C -2.346,68.518 -1.182,69 0,69 l 59.998,0 c 1.185,0 2.35,-0.48 3.184,-1.316 0.837,-0.834 1.316,-1.998 1.316,-3.184 l 0,-60 C 64.498,3.318 64.016,2.154 63.182,1.32 62.342,0.48 61.182,0 59.998,0 L 0,0 z"
         style="fill:#713907;fill-opacity:1;fill-rule:evenodd;stroke:none"
         id="path4453"
         inkscape:connector-curvature="0" />
    </g>
    <g
       id="g4455"
       transform="matrix(1.25,0,0,-1.25,368.43375,547.76719)">
      <path
         d="m 0,0 11.082,0.011 0.527,-0.361 0.498,-0.387 0.481,-0.42 0.445,-0.447 0.422,-0.473 0.393,-0.5 0.361,-0.519 0.33,-0.551 0.289,-0.564 0.262,-0.586 0.222,-0.61 0.186,-0.619 0.15,-0.642 0.106,-0.651 0.064,-0.67 0.02,-0.677 -0.02,-0.676 -0.064,-0.67 -0.106,-0.65 -0.15,-0.645 -0.186,-0.617 -0.222,-0.612 -0.262,-0.583 -0.289,-0.565 -0.33,-0.553 -0.361,-0.517 -0.393,-0.5 -0.422,-0.473 -0.445,-0.447 -0.481,-0.42 -0.498,-0.389 -0.527,-0.361 L 0,-17.33 l -0.525,0.361 -0.498,0.389 -0.473,0.419 -0.447,0.448 -0.42,0.472 -0.389,0.498 -0.361,0.526 -0.328,0.547 -0.289,0.564 -0.262,0.584 -0.217,0.606 -0.191,0.623 -0.145,0.636 -0.105,0.651 -0.065,0.664 -0.019,0.676 0.019,0.677 0.065,0.662 0.105,0.651 0.145,0.639 0.191,0.623 0.217,0.605 0.262,0.584 0.289,0.564 0.328,0.545 0.361,0.526 0.389,0.5 0.42,0.472 0.447,0.448 0.473,0.42 0.498,0.388 L 0,0 z"
         style="fill:#ffffff;fill-opacity:1;fill-rule:nonzero;stroke:none"
         id="path4457"
         inkscape:connector-curvature="0" />
    </g>
    <g
       id="g4459"
       transform="matrix(1.25,0,0,-1.25,382.3375,530.70968)">
      <path
         d="m 0,0 -0.006,-7.182 -2.056,0 0,7.188 L -3.447,0 l 0.019,-8.73 -0.047,-0.414 -0.117,-0.381 -0.191,-0.356 -0.256,-0.302 -0.309,-0.249 -0.347,-0.191 -0.389,-0.125 -0.414,-0.039 -0.414,0.039 -0.381,0.125 -0.348,0.191 -0.302,0.249 -0.248,0.302 -0.192,0.356 -0.119,0.381 -0.045,0.414 -0.019,8.73 -1.373,0 0.019,-7.182 -2.057,0 0.008,7.182 -3.613,0 0,8.967 0.039,0.82 0.111,0.801 0.178,0.783 0.242,0.748 0.309,0.723 0.369,0.689 0.42,0.651 0.48,0.617 0.526,0.566 0.57,0.526 0.611,0.472 0.657,0.414 0.691,0.362 0.721,0.301 0.756,0.236 0.783,0.172 0,10.286 3.086,0 0,-10.286 0.783,-0.178 0.754,-0.236 0.723,-0.303 0.689,-0.354 0.658,-0.421 0.617,-0.465 0.573,-0.514 0.525,-0.564 0.473,-0.612 0.42,-0.642 0.367,-0.692 0.308,-0.715 0.245,-0.75 L 3.279,10.621 3.391,9.82 3.424,8.992 3.424,0 0,0 z"
         style="fill:#ffffff;fill-opacity:1;fill-rule:nonzero;stroke:none"
         id="path4461"
         inkscape:connector-curvature="0" />
    </g>
    <g
       id="g4463"
       transform="matrix(1.25,0,0,-1.25,378.68751,563.52468)">
      <path
         d="M 0,0 0,0 -0.014,0.262 -0.053,0.518 -0.117,0.768 -0.203,1.004 -0.308,1.227 -0.439,1.438 -0.592,1.635 -0.756,1.819 -0.939,1.983 -1.137,2.135 -1.346,2.266 -1.57,2.371 -1.807,2.455 -2.049,2.522 -2.305,2.561 -2.568,2.574 -2.832,2.561 -3.088,2.522 -3.33,2.455 -3.566,2.371 -3.791,2.258 -4.008,2.127 -4.205,1.983 -4.389,1.813 -4.553,1.629 -4.703,1.432 -4.834,1.221 -4.939,0.99 -5.025,0.754 -5.092,0.512 -5.131,0.256 -5.142,-0.008 -5.142,-2.57 0,-2.57 0,0 z"
         style="fill:#713907;fill-opacity:1;fill-rule:nonzero;stroke:none"
         id="path4465"
         inkscape:connector-curvature="0" />
    </g>
    <g
       id="g4467"
       transform="matrix(1.25,0,0,-1.25,367.9725,551.07344)">
      <path
         d="m 0,0 0,0 0,-7.199 3.094,0 L 3.094,0 0,0 z"
         style="fill:#713907;fill-opacity:1;fill-rule:nonzero;stroke:none"
         id="path4469"
         inkscape:connector-curvature="0" />
    </g>
    <g
       id="g4471"
       transform="matrix(1.25,0,0,-1.25,379.10751,551.71343)">
      <path
         d="m 0,0 0,0 0,-6.175 3.094,0 L 3.094,0 0,0 z"
         style="fill:#713907;fill-opacity:1;fill-rule:nonzero;stroke:none"
         id="path4473"
         inkscape:connector-curvature="0" />
    </g>
  </g>
</svg>
