<?xml version="1.0" encoding="UTF-8" standalone="no"?>
<!-- Created with Inkscape (http://www.inkscape.org/) -->

<svg
   xmlns:dc="http://purl.org/dc/elements/1.1/"
   xmlns:cc="http://creativecommons.org/ns#"
   xmlns:rdf="http://www.w3.org/1999/02/22-rdf-syntax-ns#"
   xmlns:svg="http://www.w3.org/2000/svg"
   xmlns="http://www.w3.org/2000/svg"
   xmlns:sodipodi="http://sodipodi.sourceforge.net/DTD/sodipodi-0.dtd"
   xmlns:inkscape="http://www.inkscape.org/namespaces/inkscape"
   width="90.623749"
   height="90.625"
   id="svg5421"
   version="1.1"
   inkscape:version="0.48.3.1 r9886"
   sodipodi:docname="New document 22">
  <defs
     id="defs5423">
    <clipPath
       clipPathUnits="userSpaceOnUse"
       id="clipPath3461">
      <path
         inkscape:connector-curvature="0"
         d="m 27,504.994 513.013,0 0,232.257 -513.013,0 0,-232.257 z"
         id="path3463" />
    </clipPath>
    <clipPath
       clipPathUnits="userSpaceOnUse"
       id="clipPath3449">
      <path
         inkscape:connector-curvature="0"
         d="m 30.875,504.994 505.264,0 0,232.256 -505.264,0 0,-232.256 z"
         id="path3451" />
    </clipPath>
    <clipPath
       clipPathUnits="userSpaceOnUse"
       id="clipPath3437">
      <path
         inkscape:connector-curvature="0"
         d="m 27,504.994 513.013,0 0,232.257 -513.013,0 0,-232.257 z"
         id="path3439" />
    </clipPath>
  </defs>
  <sodipodi:namedview
     id="base"
     pagecolor="#ffffff"
     bordercolor="#666666"
     borderopacity="1.0"
     inkscape:pageopacity="0.0"
     inkscape:pageshadow="2"
     inkscape:zoom="0.35"
     inkscape:cx="3.16902"
     inkscape:cy="211.02614"
     inkscape:document-units="px"
     inkscape:current-layer="layer1"
     showgrid="false"
     fit-margin-top="0"
     fit-margin-left="0"
     fit-margin-right="0"
     fit-margin-bottom="0"
     inkscape:window-width="451"
     inkscape:window-height="398"
     inkscape:window-x="75"
     inkscape:window-y="75"
     inkscape:window-maximized="0" />
  <metadata
     id="metadata5426">
    <rdf:RDF>
      <cc:Work
         rdf:about="">
        <dc:format>image/svg+xml</dc:format>
        <dc:type
           rdf:resource="http://purl.org/dc/dcmitype/StillImage" />
        <dc:title></dc:title>
      </cc:Work>
    </rdf:RDF>
  </metadata>
  <g
     inkscape:label="Layer 1"
     inkscape:groupmode="layer"
     id="layer1"
     transform="translate(-371.83098,-652.76332)">
    <g
       transform="matrix(1.25,0,0,-1.25,-207.71902,1416.5302)"
       id="g3433">
      <g
         id="g3435"
         clip-path="url(#clipPath3437)">
        <g
           id="g3441"
           transform="translate(469.89,538.7635)">
          <path
             inkscape:connector-curvature="0"
             d="m 0,0 59.999,0 c 1.58,0 3.125,0.639 4.244,1.759 C 65.36,2.876 65.999,4.42 65.999,6 l 0,59.999 c 0,1.58 -0.639,3.124 -1.756,4.244 -1.119,1.116 -2.664,1.756 -4.244,1.756 L 0,71.999 c -1.579,0 -3.124,-0.64 -4.241,-1.756 C -5.36,69.123 -6,67.579 -6,65.999 L -6,6 C -6,3.943 -4.909,2 -3.176,0.895 -2.188,0.267 -1.144,0.12 0,0"
             style="fill:#ffffff;fill-opacity:1;fill-rule:nonzero;stroke:none"
             id="path3443" />
        </g>
      </g>
    </g>
    <g
       transform="matrix(1.25,0,0,-1.25,-207.71902,1416.5302)"
       id="g3445">
      <g
         id="g3447"
         clip-path="url(#clipPath3449)">
        <g
           id="g3453"
           transform="translate(469.89,538.7635)">
          <path
             inkscape:connector-curvature="0"
             d="m 0,0 59.999,0 c 1.58,0 3.125,0.639 4.244,1.759 C 65.36,2.876 65.999,4.42 65.999,6 l 0,59.999 c 0,1.58 -0.639,3.124 -1.756,4.244 -1.119,1.116 -2.664,1.756 -4.244,1.756 L 0,71.999 c -1.579,0 -3.124,-0.64 -4.241,-1.756 C -5.36,69.123 -6,67.579 -6,65.999 L -6,6 C -6,3.943 -4.909,2 -3.176,0.895 -2.188,0.267 -1.144,0.12 0,0 z"
             style="fill:none;stroke:#231f20;stroke-width:0.5;stroke-linecap:butt;stroke-linejoin:miter;stroke-miterlimit:4;stroke-opacity:1;stroke-dasharray:none"
             id="path3455" />
        </g>
      </g>
    </g>
    <g
       transform="matrix(1.25,0,0,-1.25,-207.71902,1416.5302)"
       id="g3457">
      <g
         id="g3459"
         clip-path="url(#clipPath3461)">
        <g
           id="g3465"
           transform="translate(469.89,540.2635)">
          <path
             inkscape:connector-curvature="0"
             d="M 0,0 C -0.894,0 -1.647,0.201 -2.37,0.66 -3.681,1.494 -4.5,2.966 -4.5,4.5 l 0,59.999 c 0,1.182 0.48,2.343 1.32,3.183 0.834,0.834 1.998,1.317 3.18,1.317 l 59.999,0 c 1.185,0 2.349,-0.48 3.183,-1.317 0.838,-0.834 1.317,-1.998 1.317,-3.183 l 0,-59.999 C 64.499,3.318 64.016,2.154 63.182,1.32 62.342,0.479 61.182,0 59.999,0 L 0,0 z"
             style="fill:#713907;fill-opacity:1;fill-rule:evenodd;stroke:none"
             id="path3467" />
        </g>
        <g
           id="g3469"
           transform="translate(493.589,579.8566)">
          <path
             inkscape:connector-curvature="0"
             d="m 0,0 0,0 0,2.249 3.365,0 13.568,22.328 13.551,-22.293 3.379,0 L 33.863,0 0,0 z"
             style="fill:#ffffff;fill-opacity:1;fill-rule:nonzero;stroke:none"
             id="path3471" />
        </g>
        <g
           id="g3473"
           transform="translate(494.991,569.1336)">
          <path
             inkscape:connector-curvature="0"
             d="M 0,0 C 1.309,0.706 2.655,1.376 4.035,2.009 4.227,1.8 4.717,1.202 4.914,0.993 1.721,-0.448 -1.25,-2.081 -4.043,-3.856 -3.9,-4.204 -3.767,-4.574 -3.631,-4.999 l 1.508,-6.362 -1.92,-0.556 -1.746,6.111 -0.443,0.503 c -0.682,-0.473 -1.346,-0.933 -2.002,-1.423 l -2.339,-5.454 -1.536,1.219 0.466,1.472 c -4.001,-3.444 -7.386,-7.218 -10.094,-11.225 -0.204,0.132 -0.67,0.533 -0.873,0.67 3.05,4.563 6.966,8.886 11.661,12.738 l 1.764,5.614 c -0.36,0.903 -0.318,2.016 0.023,2.984 l 0.676,1.932 C -8.767,3.146 -9.179,3.098 -9.7,3.079 -9.754,1.824 -9.855,1.202 -10.19,-1.189 l -1.256,-0.204 0.239,5.281 4.664,2.26 c 0.27,0.132 0.569,0.155 0.862,0.119 2.068,-0.227 2.23,-2.445 2.935,-4.245 L 0,0 z"
             style="fill:#ffffff;fill-opacity:1;fill-rule:nonzero;stroke:none"
             id="path3475" />
        </g>
        <g
           id="g3477"
           transform="translate(489.085,545.8687)">
          <path
             inkscape:connector-curvature="0"
             d="M 0,0 C 3.922,9.065 11.516,18.184 22.508,25.713 22.764,25.581 23.637,25.222 23.9,25.09 12.91,17.64 5.352,8.455 1.404,-0.563 1.148,-0.496 0.262,-0.072 0,0"
             style="fill:#ffffff;fill-opacity:1;fill-rule:nonzero;stroke:none"
             id="path3479" />
        </g>
        <g
           id="g3481"
           transform="translate(504.507,582.1426)">
          <path
             inkscape:connector-curvature="0"
             d="M 0,0 0,0 12.019,0 6.021,10.065 0,0 z"
             style="fill:#713907;fill-opacity:1;fill-rule:nonzero;stroke:none"
             id="path3483" />
        </g>
        <g
           id="g3485"
           transform="translate(493.562,568.3336)">
          <path
             inkscape:connector-curvature="0"
             d="m 0,0 -2.141,0.849 -0.926,1.507 c -0.18,-0.711 -0.646,-1.645 -1.191,-2.428 0.443,-0.681 0.802,-1.25 1.113,-1.847 C -2.129,-1.267 -1.077,-0.61 0,0"
             style="fill:#713907;fill-opacity:1;fill-rule:nonzero;stroke:none"
             id="path3487" />
        </g>
        <g
           id="g3489"
           transform="translate(490.798,578.8076)">
          <path
             inkscape:connector-curvature="0"
             d="m 0,0 c 0.873,0 1.584,-0.712 1.584,-1.584 0,-0.874 -0.711,-1.585 -1.584,-1.585 -0.873,0 -1.586,0.711 -1.586,1.585 C -1.586,-0.712 -0.873,0 0,0"
             style="fill:#ffffff;fill-opacity:1;fill-rule:nonzero;stroke:none"
             id="path3491" />
        </g>
      </g>
    </g>
  </g>
</svg>
