<?xml version="1.0" encoding="UTF-8" standalone="no"?>
<!-- Created with Inkscape (http://www.inkscape.org/) -->

<svg
   xmlns:dc="http://purl.org/dc/elements/1.1/"
   xmlns:cc="http://creativecommons.org/ns#"
   xmlns:rdf="http://www.w3.org/1999/02/22-rdf-syntax-ns#"
   xmlns:svg="http://www.w3.org/2000/svg"
   xmlns="http://www.w3.org/2000/svg"
   xmlns:sodipodi="http://sodipodi.sourceforge.net/DTD/sodipodi-0.dtd"
   xmlns:inkscape="http://www.inkscape.org/namespaces/inkscape"
   width="90.626251"
   height="90.625"
   id="svg4634"
   version="1.1"
   inkscape:version="0.48.3.1 r9886"
   sodipodi:docname="New document 24">
  <defs
     id="defs4636" />
  <sodipodi:namedview
     id="base"
     pagecolor="#ffffff"
     bordercolor="#666666"
     borderopacity="1.0"
     inkscape:pageopacity="0.0"
     inkscape:pageshadow="2"
     inkscape:zoom="0.49497475"
     inkscape:cx="-82.36076"
     inkscape:cy="65.600021"
     inkscape:document-units="px"
     inkscape:current-layer="layer1"
     showgrid="false"
     fit-margin-top="0"
     fit-margin-left="0"
     fit-margin-right="0"
     fit-margin-bottom="0"
     inkscape:window-width="451"
     inkscape:window-height="415"
     inkscape:window-x="25"
     inkscape:window-y="25"
     inkscape:window-maximized="0" />
  <metadata
     id="metadata4639">
    <rdf:RDF>
      <cc:Work
         rdf:about="">
        <dc:format>image/svg+xml</dc:format>
        <dc:type
           rdf:resource="http://purl.org/dc/dcmitype/StillImage" />
        <dc:title></dc:title>
      </cc:Work>
    </rdf:RDF>
  </metadata>
  <g
     inkscape:label="Layer 1"
     inkscape:groupmode="layer"
     id="layer1"
     transform="translate(-352.6876,-693.90177)">
    <g
       id="g3249"
       transform="matrix(1.25,0,0,-1.25,360.50135,784.21427)">
      <path
         d="m 0,0 59.999,0 c 1.58,0 3.125,0.639 4.244,1.76 1.117,1.116 1.756,2.66 1.756,4.24 l 0,59.999 c 0,1.58 -0.639,3.124 -1.756,4.244 -1.119,1.116 -2.664,1.756 -4.244,1.756 L 0,71.999 c -1.58,0 -3.125,-0.64 -4.24,-1.756 C -5.359,69.123 -6,67.579 -6,65.999 L -6,6 C -6,3.943 -4.908,2 -3.175,0.895 -2.187,0.267 -1.144,0.12 0,0"
         style="fill:#ffffff;fill-opacity:1;fill-rule:nonzero;stroke:none"
         id="path3251"
         inkscape:connector-curvature="0" />
    </g>
    <g
       id="g3253"
       transform="matrix(1.25,0,0,-1.25,360.50135,784.21427)">
      <path
         d="m 0,0 59.999,0 c 1.58,0 3.125,0.639 4.244,1.76 1.117,1.116 1.756,2.66 1.756,4.24 l 0,59.999 c 0,1.58 -0.639,3.124 -1.756,4.244 -1.119,1.116 -2.664,1.756 -4.244,1.756 L 0,71.999 c -1.58,0 -3.125,-0.64 -4.24,-1.756 C -5.359,69.123 -6,67.579 -6,65.999 L -6,6 C -6,3.943 -4.908,2 -3.175,0.895 -2.187,0.267 -1.144,0.12 0,0 z"
         style="fill:none;stroke:#231f20;stroke-width:0.5;stroke-linecap:butt;stroke-linejoin:miter;stroke-miterlimit:4;stroke-opacity:1;stroke-dasharray:none"
         id="path3255"
         inkscape:connector-curvature="0" />
    </g>
    <g
       id="g3257"
       transform="matrix(1.25,0,0,-1.25,360.50135,782.33927)">
      <path
         d="M 0,0 C -0.894,0 -1.646,0.201 -2.371,0.66 -3.681,1.494 -4.5,2.967 -4.5,4.5 l 0,59.999 c 0,1.182 0.481,2.344 1.321,3.183 0.834,0.834 1.998,1.317 3.179,1.317 l 59.999,0 c 1.185,0 2.349,-0.48 3.183,-1.317 0.838,-0.834 1.317,-1.998 1.317,-3.183 l 0,-59.999 C 64.499,3.318 64.016,2.154 63.182,1.32 62.342,0.479 61.182,0 59.999,0 L 0,0 z"
         style="fill:#713907;fill-opacity:1;fill-rule:evenodd;stroke:none"
         id="path3259"
         inkscape:connector-curvature="0" />
    </g>
    <g
       id="g3261"
       transform="matrix(1.25,0,0,-1.25,360.5001,784.21427)">
      <path
         d="m 0,0 60,0 c 1.58,0 3.125,0.639 4.244,1.76 C 65.361,2.876 66,4.42 66,6 l 0,59.999 c 0,1.58 -0.639,3.124 -1.756,4.244 -1.119,1.116 -2.664,1.756 -4.244,1.756 l -60,0 c -1.579,0 -3.124,-0.64 -4.24,-1.756 C -5.359,69.123 -6,67.579 -6,65.999 L -6,6 C -6,3.943 -4.908,2 -3.175,0.895 -2.187,0.267 -1.143,0.12 0,0"
         style="fill:#ffffff;fill-opacity:1;fill-rule:nonzero;stroke:none"
         id="path3263"
         inkscape:connector-curvature="0" />
    </g>
    <g
       id="g3265"
       transform="matrix(1.25,0,0,-1.25,360.5001,784.21427)">
      <path
         d="m 0,0 60,0 c 1.58,0 3.125,0.639 4.244,1.76 C 65.361,2.876 66,4.42 66,6 l 0,59.999 c 0,1.58 -0.639,3.124 -1.756,4.244 -1.119,1.116 -2.664,1.756 -4.244,1.756 l -60,0 c -1.579,0 -3.124,-0.64 -4.24,-1.756 C -5.359,69.123 -6,67.579 -6,65.999 L -6,6 C -6,3.943 -4.908,2 -3.175,0.895 -2.187,0.267 -1.143,0.12 0,0 z"
         style="fill:none;stroke:#231f20;stroke-width:0.5;stroke-linecap:butt;stroke-linejoin:miter;stroke-miterlimit:4;stroke-opacity:1;stroke-dasharray:none"
         id="path3267"
         inkscape:connector-curvature="0" />
    </g>
    <g
       id="g3269"
       transform="matrix(1.25,0,0,-1.25,360.5001,782.33927)">
      <path
         d="M 0,0 C -0.893,0 -1.646,0.201 -2.37,0.66 -3.68,1.494 -4.5,2.967 -4.5,4.5 l 0,59.999 c 0,1.182 0.481,2.344 1.321,3.183 0.834,0.834 1.998,1.317 3.179,1.317 l 60,0 c 1.185,0 2.349,-0.48 3.183,-1.317 0.838,-0.834 1.317,-1.998 1.317,-3.183 L 64.5,4.5 C 64.5,3.318 64.017,2.154 63.183,1.32 62.343,0.479 61.183,0 60,0 L 0,0 z"
         style="fill:#713907;fill-opacity:1;fill-rule:evenodd;stroke:none"
         id="path3271"
         inkscape:connector-curvature="0" />
    </g>
    <g
       id="g3317"
       transform="matrix(1.25,0,0,-1.25,416.92386,717.26814)">
      <path
         d="m 0,0 c 2.604,0 4.719,2.115 4.719,4.717 0,2.605 -2.115,4.72 -4.719,4.72 -2.605,0 -4.717,-2.115 -4.717,-4.72 C -4.717,2.115 -2.605,0 0,0"
         style="fill:#ffffff;fill-opacity:1;fill-rule:nonzero;stroke:none"
         id="path3319"
         inkscape:connector-curvature="0" />
    </g>
    <g
       id="g3321"
       transform="matrix(1.25,0,0,-1.25,402.49261,733.14939)">
      <path
         d="m 0,0 10.028,4.941 9.318,-8.576 c 0.41,-0.404 0.975,-0.654 1.6,-0.65 1.246,0.013 2.25,1.025 2.234,2.275 -0.002,0.672 -0.299,1.266 -0.766,1.678 L 9.117,11.889 C 8.674,12.316 8.158,12.666 7.586,12.91 l -10.351,3.691 -4.711,6.823 c -0.358,0.49 -0.914,0.838 -1.569,0.914 -1.24,0.14 -2.355,-0.746 -2.5,-1.987 -0.058,-0.523 0.067,-1.025 0.325,-1.443 l 4.804,-6.955 c 0.221,-0.285 0.506,-0.516 0.838,-0.67 L -0.004,11.088 -9.168,6.414 C -10.437,5.681 -11.355,4.41 -11.603,2.912 l 0.054,-8.369 -8.47,-3.819 c -0.955,-0.451 -1.633,-1.4 -1.682,-2.527 -0.068,-1.615 1.188,-2.98 2.801,-3.047 0.506,-0.019 0.982,0.088 1.41,0.293 l 10.361,4.684 c 0.743,0.396 1.299,1.107 1.479,1.961 l -0.02,5.211 7.198,-6.426 -1.327,-10.975 c -0.007,-0.066 -0.011,-0.133 -0.015,-0.203 -0.071,-1.611 1.181,-2.974 2.801,-3.045 1.519,-0.064 2.818,1.045 3.019,2.526 l 1.545,12.505 c 0.01,0.057 0.014,0.112 0.014,0.172 0.039,0.873 -0.313,1.678 -0.905,2.237 L 0,0 z"
         style="fill:#ffffff;fill-opacity:1;fill-rule:nonzero;stroke:none"
         id="path3323"
         inkscape:connector-curvature="0" />
    </g>
    <g
       id="g3325"
       transform="matrix(1.25,0,0,-1.25,364.17885,745.72314)">
      <path
         d="m 0,0 c -0.47,-0.159 -0.723,-0.669 -0.564,-1.139 0.667,-1.972 2.166,-3.529 4.114,-4.271 0.001,0 39.604,-15.072 39.604,-15.072 1.943,-0.742 4.097,-0.577 5.908,0.453 0.432,0.245 0.582,0.794 0.337,1.226 -0.245,0.431 -0.794,0.582 -1.225,0.336 -1.343,-0.763 -2.94,-0.885 -4.38,-0.335 C 43.793,-18.802 4.189,-3.73 4.189,-3.73 2.746,-3.179 1.634,-2.025 1.14,-0.563 0.98,-0.093 0.471,0.159 0,0"
         style="fill:#ffffff;fill-opacity:1;fill-rule:nonzero;stroke:none"
         id="path3327"
         inkscape:connector-curvature="0" />
    </g>
  </g>
</svg>
