<?xml version="1.0" encoding="UTF-8" standalone="no"?>
<!-- Created with Inkscape (http://www.inkscape.org/) -->

<svg
   xmlns:dc="http://purl.org/dc/elements/1.1/"
   xmlns:cc="http://creativecommons.org/ns#"
   xmlns:rdf="http://www.w3.org/1999/02/22-rdf-syntax-ns#"
   xmlns:svg="http://www.w3.org/2000/svg"
   xmlns="http://www.w3.org/2000/svg"
   xmlns:sodipodi="http://sodipodi.sourceforge.net/DTD/sodipodi-0.dtd"
   xmlns:inkscape="http://www.inkscape.org/namespaces/inkscape"
   width="90.625"
   height="90.625"
   id="svg6364"
   version="1.1"
   inkscape:version="0.48.3.1 r9886"
   sodipodi:docname="New document 44">
  <defs
     id="defs6366">
    <clipPath
       clipPathUnits="userSpaceOnUse"
       id="clipPath3021">
      <path
         inkscape:connector-curvature="0"
         d="m 27,45 513,0 0,693 -513,0 0,-693 z"
         id="path3023" />
    </clipPath>
  </defs>
  <sodipodi:namedview
     id="base"
     pagecolor="#ffffff"
     bordercolor="#666666"
     borderopacity="1.0"
     inkscape:pageopacity="0.0"
     inkscape:pageshadow="2"
     inkscape:zoom="0.35"
     inkscape:cx="154.59759"
     inkscape:cy="302.45472"
     inkscape:document-units="px"
     inkscape:current-layer="layer1"
     showgrid="false"
     fit-margin-top="0"
     fit-margin-left="0"
     fit-margin-right="0"
     fit-margin-bottom="0"
     inkscape:window-width="451"
     inkscape:window-height="415"
     inkscape:window-x="125"
     inkscape:window-y="125"
     inkscape:window-maximized="0" />
  <metadata
     id="metadata6369">
    <rdf:RDF>
      <cc:Work
         rdf:about="">
        <dc:format>image/svg+xml</dc:format>
        <dc:type
           rdf:resource="http://purl.org/dc/dcmitype/StillImage" />
        <dc:title></dc:title>
      </cc:Work>
    </rdf:RDF>
  </metadata>
  <g
     inkscape:label="Layer 1"
     inkscape:groupmode="layer"
     id="layer1"
     transform="translate(-220.40241,-744.1919)">
    <g
       transform="matrix(1.25,0,0,-1.25,73.364536,1238.2409)"
       id="g3017">
      <g
         id="g3019"
         clip-path="url(#clipPath3021)">
        <g
           id="g3025"
           transform="translate(123.8803,322.9892)">
          <path
             inkscape:connector-curvature="0"
             d="m 0,0 59.999,0 c 1.58,0 3.125,0.639 4.244,1.76 1.117,1.115 1.756,2.66 1.756,4.24 l 0,59.999 c 0,1.58 -0.639,3.124 -1.756,4.244 -1.119,1.116 -2.664,1.756 -4.244,1.756 L 0,71.999 c -1.579,0 -3.124,-0.64 -4.24,-1.756 C -5.359,69.123 -6,67.579 -6,65.999 L -6,6 C -6,3.944 -4.908,2 -3.176,0.895 -2.188,0.268 -1.144,0.119 0,0"
             style="fill:#ffffff;fill-opacity:1;fill-rule:nonzero;stroke:none"
             id="path3027" />
        </g>
        <g
           id="g3029"
           transform="translate(123.8803,322.9892)">
          <path
             inkscape:connector-curvature="0"
             d="m 0,0 59.999,0 c 1.58,0 3.125,0.639 4.244,1.76 1.117,1.115 1.756,2.66 1.756,4.24 l 0,59.999 c 0,1.58 -0.639,3.124 -1.756,4.244 -1.119,1.116 -2.664,1.756 -4.244,1.756 L 0,71.999 c -1.579,0 -3.124,-0.64 -4.24,-1.756 C -5.359,69.123 -6,67.579 -6,65.999 L -6,6 C -6,3.944 -4.908,2 -3.176,0.895 -2.188,0.268 -1.144,0.119 0,0 z"
             style="fill:none;stroke:#231f20;stroke-width:0.5;stroke-linecap:butt;stroke-linejoin:miter;stroke-miterlimit:4;stroke-opacity:1;stroke-dasharray:none"
             id="path3031" />
        </g>
        <g
           id="g3033"
           transform="translate(123.8803,324.4892)">
          <path
             inkscape:connector-curvature="0"
             d="M 0,0 C -0.894,0 -1.646,0.201 -2.37,0.66 -3.681,1.494 -4.5,2.967 -4.5,4.5 l 0,59.999 c 0,1.182 0.48,2.344 1.32,3.183 0.834,0.834 1.998,1.317 3.18,1.317 l 59.999,0 c 1.185,0 2.349,-0.48 3.183,-1.317 0.838,-0.834 1.317,-1.998 1.317,-3.183 l 0,-59.999 C 64.499,3.319 64.016,2.155 63.182,1.321 62.342,0.479 61.182,0 59.999,0 L 0,0 z"
             style="fill:#713907;fill-opacity:1;fill-rule:evenodd;stroke:none"
             id="path3035" />
        </g>
      </g>
    </g>
    <g
       id="g3163"
       transform="matrix(1.25,0,0,-1.25,300.87792,824.77566)">
      <path
         d="m 0,0 c -1.221,0 -2.393,0.276 -3.44,0.743 -1.074,0.502 -2.285,0.795 -3.551,0.795 -1.258,0 -2.468,-0.293 -3.543,-0.795 C -11.581,0.276 -12.756,0 -13.979,0 c -1.221,0 -2.395,0.276 -3.441,0.743 -1.073,0.502 -2.284,0.795 -3.549,0.795 -1.26,0 -2.469,-0.293 -3.543,-0.795 C -25.559,0.276 -26.735,0 -27.958,0 c -1.222,0 -2.394,0.276 -3.439,0.743 -1.076,0.502 -2.289,0.795 -3.551,0.795 -1.26,0 -2.468,-0.293 -3.545,-0.795 C -39.54,0.276 -40.713,0 -41.938,0 c -1.219,0 -2.393,0.276 -3.439,0.743 -1.077,0.502 -2.288,0.795 -3.551,0.795 -1.258,0 -2.469,-0.293 -3.543,-0.795 C -53.518,0.276 -54.694,0 -55.918,0 l 0,5.161 c 1.224,0 2.4,0.275 3.447,0.746 1.074,0.498 2.285,0.789 3.543,0.789 1.263,0 2.474,-0.291 3.551,-0.789 1.046,-0.471 2.22,-0.746 3.439,-0.746 1.225,0 2.398,0.275 3.445,0.746 1.077,0.498 2.285,0.789 3.545,0.789 1.262,0 2.475,-0.291 3.551,-0.789 1.045,-0.471 2.217,-0.746 3.439,-0.746 1.223,0 2.399,0.275 3.446,0.746 1.074,0.498 2.283,0.789 3.543,0.789 1.265,0 2.476,-0.291 3.549,-0.789 1.046,-0.471 2.22,-0.746 3.441,-0.746 1.223,0 2.398,0.275 3.445,0.746 1.075,0.498 2.285,0.789 3.543,0.789 1.266,0 2.477,-0.291 3.551,-0.789 C -2.393,5.436 -1.221,5.161 0,5.161 L 0,0 z"
         style="fill:#ffffff;fill-opacity:1;fill-rule:nonzero;stroke:none"
         id="path3165"
         inkscape:connector-curvature="0" />
    </g>
    <g
       id="g3167"
       transform="matrix(1.25,0,0,-1.25,272.65916,814.11316)">
      <path
         d="m 0,0 c 0.524,0.103 1.057,0.17 1.606,0.17 1.265,0 2.476,-0.291 3.549,-0.789 1.046,-0.471 2.22,-0.746 3.441,-0.746 1.223,0 2.398,0.275 3.445,0.746 0.744,0.343 1.532,0.597 2.379,0.716 -0.463,13.852 -14.902,26.207 -15.594,26.846 -0.701,0.651 -1.355,2.055 -0.9,3.707 l 3.457,11.424 c 0.602,1.756 0.301,4.135 -0.551,4.835 -0.478,0.391 -1.511,0.67 -2.205,-0.125 l -9.345,-10.597 c -2.051,-2.166 -0.34,-4.496 -0.375,-4.482 -3.18,1.142 -6.903,0.383 -9.168,-0.553 l -7.719,-3.908 c -0.77,-0.326 -1.096,-1.293 -0.703,-1.953 1.283,-2.041 5.535,-2.053 14.386,-1.104 C 0.006,25.722 0.022,2.824 0,0"
         style="fill:#ffffff;fill-opacity:1;fill-rule:nonzero;stroke:none"
         id="path3169"
         inkscape:connector-curvature="0" />
    </g>
  </g>
</svg>
