<?xml version="1.0" encoding="UTF-8" standalone="no"?>
<!-- Created with Inkscape (http://www.inkscape.org/) -->

<svg
   xmlns:dc="http://purl.org/dc/elements/1.1/"
   xmlns:cc="http://creativecommons.org/ns#"
   xmlns:rdf="http://www.w3.org/1999/02/22-rdf-syntax-ns#"
   xmlns:svg="http://www.w3.org/2000/svg"
   xmlns="http://www.w3.org/2000/svg"
   xmlns:sodipodi="http://sodipodi.sourceforge.net/DTD/sodipodi-0.dtd"
   xmlns:inkscape="http://www.inkscape.org/namespaces/inkscape"
   width="90.625"
   height="90.625"
   id="svg6138"
   version="1.1"
   inkscape:version="0.48.3.1 r9886"
   sodipodi:docname="New document 51">
  <defs
     id="defs6140">
    <clipPath
       clipPathUnits="userSpaceOnUse"
       id="clipPath3883">
      <path
         inkscape:connector-curvature="0"
         d="m 63,178.034 513,0 0,559.966 -513,0 0,-559.966 z"
         id="path3885" />
    </clipPath>
  </defs>
  <sodipodi:namedview
     id="base"
     pagecolor="#ffffff"
     bordercolor="#666666"
     borderopacity="1.0"
     inkscape:pageopacity="0.0"
     inkscape:pageshadow="2"
     inkscape:zoom="0.35"
     inkscape:cx="45.311875"
     inkscape:cy="45.312502"
     inkscape:document-units="px"
     inkscape:current-layer="layer1"
     showgrid="false"
     fit-margin-top="0"
     fit-margin-left="0"
     fit-margin-right="0"
     fit-margin-bottom="0"
     inkscape:window-width="451"
     inkscape:window-height="398"
     inkscape:window-x="25"
     inkscape:window-y="25"
     inkscape:window-maximized="0" />
  <metadata
     id="metadata6143">
    <rdf:RDF>
      <cc:Work
         rdf:about="">
        <dc:format>image/svg+xml</dc:format>
        <dc:type
           rdf:resource="http://purl.org/dc/dcmitype/StillImage" />
        <dc:title></dc:title>
      </cc:Work>
    </rdf:RDF>
  </metadata>
  <g
     inkscape:label="Layer 1"
     inkscape:groupmode="layer"
     id="layer1"
     transform="translate(-329.68813,-487.04968)">
    <g
       transform="matrix(1.25,0,0,-1.25,-77.85025,965.83706)"
       id="g3879">
      <g
         id="g3881"
         clip-path="url(#clipPath3883)">
        <g
           id="g3887"
           transform="translate(332.2807,310.7799)">
          <path
             inkscape:connector-curvature="0"
             d="m 0,0 59.999,0 c 1.58,0 3.125,0.641 4.244,1.76 1.117,1.117 1.756,2.66 1.756,4.24 l 0,60 c 0,1.58 -0.639,3.123 -1.756,4.244 C 63.124,71.36 61.579,72 59.999,72 L 0,72 C -1.58,72 -3.124,71.36 -4.241,70.244 -5.36,69.123 -6,67.58 -6,66 L -6,6 C -6,3.944 -4.909,2 -3.176,0.897 -2.188,0.268 -1.144,0.121 0,0"
             style="fill:#ffffff;fill-opacity:1;fill-rule:nonzero;stroke:none"
             id="path3889" />
        </g>
        <g
           id="g3891"
           transform="translate(332.2807,310.7799)">
          <path
             inkscape:connector-curvature="0"
             d="m 0,0 59.999,0 c 1.58,0 3.125,0.641 4.244,1.76 1.117,1.117 1.756,2.66 1.756,4.24 l 0,60 c 0,1.58 -0.639,3.123 -1.756,4.244 C 63.124,71.36 61.579,72 59.999,72 L 0,72 C -1.58,72 -3.124,71.36 -4.241,70.244 -5.36,69.123 -6,67.58 -6,66 L -6,6 C -6,3.944 -4.909,2 -3.176,0.897 -2.188,0.268 -1.144,0.121 0,0 z"
             style="fill:none;stroke:#231f20;stroke-width:0.5;stroke-linecap:butt;stroke-linejoin:miter;stroke-miterlimit:4;stroke-opacity:1;stroke-dasharray:none"
             id="path3893" />
        </g>
        <g
           id="g3895"
           transform="translate(332.2807,312.2799)">
          <path
             inkscape:connector-curvature="0"
             d="M 0,0 C -0.894,0 -1.647,0.201 -2.371,0.66 -3.681,1.494 -4.5,2.967 -4.5,4.5 l 0,60 c 0,1.182 0.48,2.344 1.32,3.184 C -2.346,68.518 -1.182,69 0,69 l 59.999,0 c 1.185,0 2.349,-0.48 3.183,-1.316 0.838,-0.834 1.317,-1.998 1.317,-3.184 l 0,-60 C 64.499,3.319 64.016,2.155 63.182,1.321 62.342,0.481 61.182,0 59.999,0 L 0,0 z"
             style="fill:#713907;fill-opacity:1;fill-rule:evenodd;stroke:none"
             id="path3897" />
        </g>
        <g
           id="g3899"
           transform="translate(363.5856,367.9989)">
          <path
             inkscape:connector-curvature="0"
             d="M 0,0 C 2.014,-0.158 3.778,1.35 3.934,3.363 4.09,5.377 2.59,7.141 0.576,7.297 -1.439,7.455 -3.201,5.953 -3.355,3.939 -3.517,1.928 -2.013,0.16 0,0"
             style="fill:#ffffff;fill-opacity:1;fill-rule:nonzero;stroke:none"
             id="path3901" />
        </g>
        <g
           id="g3903"
           transform="translate(360.4886,366.4969)">
          <path
             inkscape:connector-curvature="0"
             d="M 0,0 C 0.716,0.502 1.601,0.84 2.564,0.76 3.82,0.664 4.857,-0.115 5.476,-1.066 l 3.697,-7.321 5.036,-3.466 c 0.427,-0.331 0.687,-0.864 0.64,-1.448 -0.074,-0.906 -0.865,-1.584 -1.775,-1.511 -0.274,0.023 -0.488,0.127 -0.754,0.246 l -5.486,3.781 c -0.172,0.135 -0.311,0.305 -0.418,0.492 l -1.387,2.734 -1.65,-7.294 6.49,-7.67 c 0.14,-0.239 0.242,-0.504 0.297,-0.786 l 1.754,-9.265 c -0.008,-0.201 0.023,-0.33 0.007,-0.5 -0.107,-1.369 -1.298,-2.383 -2.662,-2.279 -1.123,0.091 -1.969,0.929 -2.234,1.966 l -1.654,8.676 -5.266,5.776 -1.236,-5.631 c -0.034,-0.256 -0.381,-0.819 -0.489,-1.047 l -5.056,-8.528 c -0.504,-0.779 -1.35,-1.277 -2.323,-1.201 -1.365,0.108 -2.384,1.299 -2.277,2.664 0.035,0.391 0.197,0.784 0.336,1.063 l 4.707,7.898 3.918,17.383 -2.561,-2.074 -1.357,-6.195 c -0.182,-0.788 -0.904,-1.44 -1.76,-1.37 -0.908,0.071 -1.59,0.866 -1.519,1.776 0.006,0.078 0.019,0.148 0.033,0.222 l 1.615,7.223 c 0.092,0.317 0.268,0.59 0.508,0.797 L 0,0 z"
             style="fill:#ffffff;fill-opacity:1;fill-rule:nonzero;stroke:none"
             id="path3905" />
        </g>
        <path
           inkscape:connector-curvature="0"
           d="m 343.346,323.329 4.76,0 0,-6.728 -4.76,0 0,6.728 z"
           style="fill:#ffffff;fill-opacity:1;fill-rule:evenodd;stroke:none"
           id="path3907" />
        <path
           inkscape:connector-curvature="0"
           d="m 376.424,323.329 4.756,0 0,-6.728 -4.756,0 0,6.728 z"
           style="fill:#ffffff;fill-opacity:1;fill-rule:evenodd;stroke:none"
           id="path3909" />
        <path
           inkscape:connector-curvature="0"
           d="m 333.217,328.614 5.801,0 0,-3.222 -5.801,0 0,3.222 z"
           style="fill:#ffffff;fill-opacity:1;fill-rule:evenodd;stroke:none"
           id="path3911" />
        <path
           inkscape:connector-curvature="0"
           d="m 377.912,328.614 5.801,0 0,-3.222 -5.801,0 0,3.222 z"
           style="fill:#ffffff;fill-opacity:1;fill-rule:evenodd;stroke:none"
           id="path3913" />
        <path
           inkscape:connector-curvature="0"
           d="m 385.541,328.614 5.799,0 0,-3.222 -5.799,0 0,3.222 z"
           style="fill:#ffffff;fill-opacity:1;fill-rule:evenodd;stroke:none"
           id="path3915" />
        <path
           inkscape:connector-curvature="0"
           d="m 370.463,328.614 5.799,0 0,-3.222 -5.799,0 0,3.222 z"
           style="fill:#ffffff;fill-opacity:1;fill-rule:evenodd;stroke:none"
           id="path3917" />
        <path
           inkscape:connector-curvature="0"
           d="m 363.016,328.614 5.799,0 0,-3.222 -5.799,0 0,3.222 z"
           style="fill:#ffffff;fill-opacity:1;fill-rule:evenodd;stroke:none"
           id="path3919" />
        <path
           inkscape:connector-curvature="0"
           d="m 355.567,328.614 5.799,0 0,-3.222 -5.799,0 0,3.222 z"
           style="fill:#ffffff;fill-opacity:1;fill-rule:evenodd;stroke:none"
           id="path3921" />
        <path
           inkscape:connector-curvature="0"
           d="m 348.116,328.614 5.8,0 0,-3.222 -5.8,0 0,3.222 z"
           style="fill:#ffffff;fill-opacity:1;fill-rule:evenodd;stroke:none"
           id="path3923" />
        <path
           inkscape:connector-curvature="0"
           d="m 340.668,328.614 5.801,0 0,-3.222 -5.801,0 0,3.222 z"
           style="fill:#ffffff;fill-opacity:1;fill-rule:evenodd;stroke:none"
           id="path3925" />
      </g>
    </g>
  </g>
</svg>
