<?xml version="1.0" encoding="UTF-8" standalone="no"?>
<!-- Created with Inkscape (http://www.inkscape.org/) -->

<svg
   xmlns:dc="http://purl.org/dc/elements/1.1/"
   xmlns:cc="http://creativecommons.org/ns#"
   xmlns:rdf="http://www.w3.org/1999/02/22-rdf-syntax-ns#"
   xmlns:svg="http://www.w3.org/2000/svg"
   xmlns="http://www.w3.org/2000/svg"
   xmlns:sodipodi="http://sodipodi.sourceforge.net/DTD/sodipodi-0.dtd"
   xmlns:inkscape="http://www.inkscape.org/namespaces/inkscape"
   width="90.625"
   height="90.625"
   id="svg7051"
   version="1.1"
   inkscape:version="0.48.3.1 r9886"
   sodipodi:docname="New document 44">
  <defs
     id="defs7053">
    <clipPath
       clipPathUnits="userSpaceOnUse"
       id="clipPath4029">
      <path
         inkscape:connector-curvature="0"
         d="m 63,299.972 513,0 0,437.279 -513,0 0,-437.279 z"
         id="path4031" />
    </clipPath>
  </defs>
  <sodipodi:namedview
     id="base"
     pagecolor="#ffffff"
     bordercolor="#666666"
     borderopacity="1.0"
     inkscape:pageopacity="0.0"
     inkscape:pageshadow="2"
     inkscape:zoom="0.35"
     inkscape:cx="45.31125"
     inkscape:cy="45.311877"
     inkscape:document-units="px"
     inkscape:current-layer="layer1"
     showgrid="false"
     fit-margin-top="0"
     fit-margin-left="0"
     fit-margin-right="0"
     fit-margin-bottom="0"
     inkscape:window-width="451"
     inkscape:window-height="398"
     inkscape:window-x="125"
     inkscape:window-y="125"
     inkscape:window-maximized="0" />
  <metadata
     id="metadata7056">
    <rdf:RDF>
      <cc:Work
         rdf:about="">
        <dc:format>image/svg+xml</dc:format>
        <dc:type
           rdf:resource="http://purl.org/dc/dcmitype/StillImage" />
        <dc:title></dc:title>
      </cc:Work>
    </rdf:RDF>
  </metadata>
  <g
     inkscape:label="Layer 1"
     inkscape:groupmode="layer"
     id="layer1"
     transform="translate(-329.68875,-487.04906)">
    <g
       transform="matrix(1.25,0,0,-1.25,29.657375,982.62856)"
       id="g4025">
      <g
         id="g4027"
         clip-path="url(#clipPath4029)">
        <g
           id="g4033"
           transform="translate(246.2751,324.2136)">
          <path
             inkscape:connector-curvature="0"
             d="m 0,0 59.998,0 c 1.58,0 3.125,0.639 4.244,1.76 1.117,1.115 1.756,2.66 1.756,4.24 l 0,59.998 c 0,1.58 -0.639,3.124 -1.756,4.245 -1.119,1.116 -2.664,1.756 -4.244,1.756 L 0,71.999 c -1.581,0 -3.125,-0.64 -4.241,-1.756 C -5.36,69.122 -6,67.578 -6,65.998 L -6,6 C -6,3.943 -4.909,2 -3.176,0.894 -2.188,0.267 -1.145,0.119 0,0"
             style="fill:#ffffff;fill-opacity:1;fill-rule:nonzero;stroke:none"
             id="path4035" />
        </g>
        <g
           id="g4037"
           transform="translate(246.2751,324.2136)">
          <path
             inkscape:connector-curvature="0"
             d="m 0,0 59.998,0 c 1.58,0 3.125,0.639 4.244,1.76 1.117,1.115 1.756,2.66 1.756,4.24 l 0,59.998 c 0,1.58 -0.639,3.124 -1.756,4.245 -1.119,1.116 -2.664,1.756 -4.244,1.756 L 0,71.999 c -1.581,0 -3.125,-0.64 -4.241,-1.756 C -5.36,69.122 -6,67.578 -6,65.998 L -6,6 C -6,3.943 -4.909,2 -3.176,0.894 -2.188,0.267 -1.145,0.119 0,0 z"
             style="fill:none;stroke:#231f20;stroke-width:0.5;stroke-linecap:butt;stroke-linejoin:miter;stroke-miterlimit:4;stroke-opacity:1;stroke-dasharray:none"
             id="path4039" />
        </g>
        <g
           id="g4041"
           transform="translate(246.2751,325.7136)">
          <path
             inkscape:connector-curvature="0"
             d="M 0,0 C -0.895,0 -1.647,0.201 -2.372,0.66 -3.682,1.494 -4.5,2.967 -4.5,4.5 l 0,59.998 c 0,1.183 0.48,2.344 1.32,3.184 0.834,0.834 1.998,1.316 3.18,1.316 l 59.998,0 c 1.185,0 2.349,-0.479 3.183,-1.316 0.838,-0.834 1.317,-1.998 1.317,-3.184 l 0,-59.998 C 64.498,3.318 64.015,2.154 63.181,1.32 62.341,0.478 61.181,0 59.998,0 L 0,0 z"
             style="fill:#713907;fill-opacity:1;fill-rule:evenodd;stroke:none"
             id="path4043" />
        </g>
        <g
           id="g4045"
           transform="translate(272.251,379.5736)">
          <path
             inkscape:connector-curvature="0"
             d="m 0,0 c -2.418,0 -4.381,-1.936 -4.381,-4.323 0,-2.389 1.963,-4.324 4.381,-4.324 2.42,0 4.381,1.935 4.381,4.324 C 4.381,-1.936 2.42,0 0,0"
             style="fill:#ffffff;fill-opacity:1;fill-rule:nonzero;stroke:none"
             id="path4047" />
        </g>
        <g
           id="g4049"
           transform="translate(294.484,371.0216)">
          <path
             inkscape:connector-curvature="0"
             d="m 0,0 c -0.168,0.926 -0.928,1.467 -0.969,1.495 l -25.756,16.971 -2.395,-3.457 c -0.445,-0.682 -0.253,-1.596 0.428,-2.041 0.682,-0.448 1.594,-0.256 2.039,0.424 l 1.397,1.996 L -4.338,1.59 -21.481,-1.494 c -1.205,-0.213 -2.09,-1.42 -1.812,-2.601 l 3.724,-14.422 -12.062,-18.09 c -0.719,-1.236 -0.282,-2.816 0.968,-3.523 1.254,-0.709 2.854,-0.284 3.577,0.955 0,0 12.58,18.918 12.625,19.035 0,0 0.654,-2.625 0.656,-2.633 L -15.7,-36.97 c -0.238,-1.406 0.725,-2.739 2.151,-2.973 1.427,-0.234 2.775,0.715 3.013,2.121 l 1.952,14.592 c 0.06,0.367 -0.018,1.195 -0.102,1.555 l -4.297,17.095 11.184,2.022 C -0.598,-2.349 0.212,-1.203 0,0"
             style="fill:#ffffff;fill-opacity:1;fill-rule:nonzero;stroke:none"
             id="path4051" />
        </g>
      </g>
    </g>
  </g>
</svg>
