<?xml version="1.0" encoding="UTF-8" standalone="no"?>
<!-- Created with Inkscape (http://www.inkscape.org/) -->

<svg
   xmlns:dc="http://purl.org/dc/elements/1.1/"
   xmlns:cc="http://creativecommons.org/ns#"
   xmlns:rdf="http://www.w3.org/1999/02/22-rdf-syntax-ns#"
   xmlns:svg="http://www.w3.org/2000/svg"
   xmlns="http://www.w3.org/2000/svg"
   xmlns:sodipodi="http://sodipodi.sourceforge.net/DTD/sodipodi-0.dtd"
   xmlns:inkscape="http://www.inkscape.org/namespaces/inkscape"
   width="90.624252"
   height="90.625"
   id="svg5814"
   version="1.1"
   inkscape:version="0.48.3.1 r9886"
   sodipodi:docname="New document 43">
  <defs
     id="defs5816">
    <clipPath
       clipPathUnits="userSpaceOnUse"
       id="clipPath3781">
      <path
         inkscape:connector-curvature="0"
         d="m 63,178.034 513,0 0,559.966 -513,0 0,-559.966 z"
         id="path3783" />
    </clipPath>
    <clipPath
       clipPathUnits="userSpaceOnUse"
       id="clipPath3769">
      <path
         inkscape:connector-curvature="0"
         d="m 67.055,180.004 504.891,0 0,557.996 -504.891,0 0,-557.996 z"
         id="path3771" />
    </clipPath>
    <clipPath
       clipPathUnits="userSpaceOnUse"
       id="clipPath3757">
      <path
         inkscape:connector-curvature="0"
         d="m 63,178.034 513,0 0,559.966 -513,0 0,-559.966 z"
         id="path3759" />
    </clipPath>
  </defs>
  <sodipodi:namedview
     id="base"
     pagecolor="#ffffff"
     bordercolor="#666666"
     borderopacity="1.0"
     inkscape:pageopacity="0.0"
     inkscape:pageshadow="2"
     inkscape:zoom="0.35"
     inkscape:cx="45.31125"
     inkscape:cy="45.311892"
     inkscape:document-units="px"
     inkscape:current-layer="layer1"
     showgrid="false"
     fit-margin-top="0"
     fit-margin-left="0"
     fit-margin-right="0"
     fit-margin-bottom="0"
     inkscape:window-width="451"
     inkscape:window-height="398"
     inkscape:window-x="25"
     inkscape:window-y="25"
     inkscape:window-maximized="0" />
  <metadata
     id="metadata5819">
    <rdf:RDF>
      <cc:Work
         rdf:about="">
        <dc:format>image/svg+xml</dc:format>
        <dc:type
           rdf:resource="http://purl.org/dc/dcmitype/StillImage" />
        <dc:title></dc:title>
      </cc:Work>
    </rdf:RDF>
  </metadata>
  <g
     inkscape:label="Layer 1"
     inkscape:groupmode="layer"
     id="layer1"
     transform="translate(-329.68875,-487.04908)">
    <g
       transform="matrix(1.25,0,0,-1.25,-294.6195,1098.7402)"
       id="g3753">
      <g
         id="g3755"
         clip-path="url(#clipPath3757)">
        <g
           id="g3761"
           transform="translate(505.6966,417.1029)">
          <path
             inkscape:connector-curvature="0"
             d="m 0,0 59.998,0 c 1.58,0 3.125,0.638 4.244,1.759 1.117,1.116 1.756,2.66 1.756,4.241 l 0,59.998 c 0,1.58 -0.639,3.125 -1.756,4.244 -1.119,1.117 -2.664,1.757 -4.244,1.757 L 0,71.999 c -1.58,0 -3.125,-0.64 -4.241,-1.757 C -5.36,69.123 -6,67.578 -6,65.998 L -6,6 C -6,3.943 -4.909,2 -3.176,0.894 -2.188,0.267 -1.145,0.119 0,0"
             style="fill:#ffffff;fill-opacity:1;fill-rule:nonzero;stroke:none"
             id="path3763" />
        </g>
      </g>
    </g>
    <g
       transform="matrix(1.25,0,0,-1.25,-294.6195,1098.7402)"
       id="g3765">
      <g
         id="g3767"
         clip-path="url(#clipPath3769)">
        <g
           id="g3773"
           transform="translate(505.6966,417.1029)">
          <path
             inkscape:connector-curvature="0"
             d="m 0,0 59.998,0 c 1.58,0 3.125,0.638 4.244,1.759 1.117,1.116 1.756,2.66 1.756,4.241 l 0,59.998 c 0,1.58 -0.639,3.125 -1.756,4.244 -1.119,1.117 -2.664,1.757 -4.244,1.757 L 0,71.999 c -1.58,0 -3.125,-0.64 -4.241,-1.757 C -5.36,69.123 -6,67.578 -6,65.998 L -6,6 C -6,3.943 -4.909,2 -3.176,0.894 -2.188,0.267 -1.145,0.119 0,0 z"
             style="fill:none;stroke:#231f20;stroke-width:0.5;stroke-linecap:butt;stroke-linejoin:miter;stroke-miterlimit:4;stroke-opacity:1;stroke-dasharray:none"
             id="path3775" />
        </g>
      </g>
    </g>
    <g
       transform="matrix(1.25,0,0,-1.25,-294.6195,1098.7402)"
       id="g3777">
      <g
         id="g3779"
         clip-path="url(#clipPath3781)">
        <g
           id="g3785"
           transform="translate(505.6966,418.6029)">
          <path
             inkscape:connector-curvature="0"
             d="M 0,0 C -0.895,0 -1.647,0.201 -2.371,0.66 -3.682,1.494 -4.5,2.966 -4.5,4.5 l 0,59.998 c 0,1.183 0.48,2.343 1.32,3.183 0.834,0.834 1.998,1.317 3.18,1.317 l 59.998,0 c 1.185,0 2.349,-0.479 3.183,-1.317 0.838,-0.834 1.317,-1.998 1.317,-3.183 l 0,-59.998 C 64.498,3.318 64.015,2.154 63.181,1.32 62.341,0.478 61.181,0 59.998,0 L 0,0 z"
             style="fill:#713907;fill-opacity:1;fill-rule:evenodd;stroke:none"
             id="path3787" />
        </g>
        <g
           id="g3789"
           transform="translate(552.6866,461.8209)">
          <path
             inkscape:connector-curvature="0"
             d="m 0,0 9.26,0 0,-21.824 -52.913,0 0,21.824 9.479,0 0.008,4.717 c 0,1.762 1.43,3.188 3.191,3.188 l 27.758,0 c 1.76,0 3.188,-1.426 3.188,-3.188 L 0,0 z m -3.197,5.182 -27.78,0 0,-5.182 27.78,0 0,5.182 z m -7.938,-8.488 -12.004,0 0,-8.008 12.004,0 0,8.008 z m -22.023,-15.987 c 4.431,0 8.027,3.594 8.027,8.03 0,4.433 -3.596,8.027 -8.027,8.027 -4.436,0 -8.03,-3.594 -8.03,-8.027 0,-4.436 3.594,-8.03 8.03,-8.03 m 32.015,0 c 4.434,0 8.03,3.594 8.03,8.03 0,4.433 -3.596,8.027 -8.03,8.027 -4.433,0 -8.027,-3.594 -8.027,-8.027 0,-4.436 3.594,-8.03 8.027,-8.03"
             style="fill:#ffffff;fill-opacity:1;fill-rule:nonzero;stroke:none"
             id="path3791" />
        </g>
      </g>
    </g>
  </g>
</svg>
