<?xml version="1.0" encoding="UTF-8" standalone="no"?>
<!-- Created with Inkscape (http://www.inkscape.org/) -->

<svg
   xmlns:dc="http://purl.org/dc/elements/1.1/"
   xmlns:cc="http://creativecommons.org/ns#"
   xmlns:rdf="http://www.w3.org/1999/02/22-rdf-syntax-ns#"
   xmlns:svg="http://www.w3.org/2000/svg"
   xmlns="http://www.w3.org/2000/svg"
   xmlns:sodipodi="http://sodipodi.sourceforge.net/DTD/sodipodi-0.dtd"
   xmlns:inkscape="http://www.inkscape.org/namespaces/inkscape"
   width="90.625"
   height="90.625"
   id="svg4746"
   version="1.1"
   inkscape:version="0.48.3.1 r9886"
   sodipodi:docname="New document 26">
  <defs
     id="defs4748" />
  <sodipodi:namedview
     id="base"
     pagecolor="#ffffff"
     bordercolor="#666666"
     borderopacity="1.0"
     inkscape:pageopacity="0.0"
     inkscape:pageshadow="2"
     inkscape:zoom="0.35"
     inkscape:cx="45.31187"
     inkscape:cy="45.311877"
     inkscape:document-units="px"
     inkscape:current-layer="layer1"
     showgrid="false"
     fit-margin-top="0"
     fit-margin-left="0"
     fit-margin-right="0"
     fit-margin-bottom="0"
     inkscape:window-width="451"
     inkscape:window-height="415"
     inkscape:window-x="75"
     inkscape:window-y="75"
     inkscape:window-maximized="0" />
  <metadata
     id="metadata4751">
    <rdf:RDF>
      <cc:Work
         rdf:about="">
        <dc:format>image/svg+xml</dc:format>
        <dc:type
           rdf:resource="http://purl.org/dc/dcmitype/StillImage" />
        <dc:title></dc:title>
      </cc:Work>
    </rdf:RDF>
  </metadata>
  <g
     inkscape:label="Layer 1"
     inkscape:groupmode="layer"
     id="layer1"
     transform="translate(-329.68813,-487.04906)">
    <g
       id="g3531"
       transform="matrix(1.25,0,0,-1.25,337.50063,577.36156)">
      <path
         d="m 0,0 59.999,0 c 1.58,0 3.125,0.64 4.245,1.76 1.117,1.116 1.755,2.66 1.755,4.24 l 0,59.999 c 0,1.58 -0.638,3.124 -1.755,4.244 -1.12,1.117 -2.665,1.756 -4.245,1.756 L 0,71.999 c -1.579,0 -3.124,-0.639 -4.24,-1.756 C -5.359,69.123 -6,67.579 -6,65.999 L -6,6 C -6,3.944 -4.908,2 -3.175,0.896 -2.187,0.268 -1.143,0.12 0,0"
         style="fill:#ffffff;fill-opacity:1;fill-rule:nonzero;stroke:none"
         id="path3533"
         inkscape:connector-curvature="0" />
    </g>
    <g
       id="g3535"
       transform="matrix(1.25,0,0,-1.25,337.50063,577.36156)">
      <path
         d="m 0,0 59.999,0 c 1.58,0 3.125,0.64 4.245,1.76 1.117,1.116 1.755,2.66 1.755,4.24 l 0,59.999 c 0,1.58 -0.638,3.124 -1.755,4.244 -1.12,1.117 -2.665,1.756 -4.245,1.756 L 0,71.999 c -1.579,0 -3.124,-0.639 -4.24,-1.756 C -5.359,69.123 -6,67.579 -6,65.999 L -6,6 C -6,3.944 -4.908,2 -3.175,0.896 -2.187,0.268 -1.143,0.12 0,0 z"
         style="fill:none;stroke:#231f20;stroke-width:0.5;stroke-linecap:butt;stroke-linejoin:miter;stroke-miterlimit:4;stroke-opacity:1;stroke-dasharray:none"
         id="path3537"
         inkscape:connector-curvature="0" />
    </g>
    <g
       id="g3539"
       transform="matrix(1.25,0,0,-1.25,337.50063,575.48656)">
      <path
         d="M 0,0 C -0.893,0 -1.646,0.201 -2.37,0.66 -3.68,1.494 -4.5,2.967 -4.5,4.5 l 0,59.999 c 0,1.183 0.481,2.344 1.321,3.184 0.834,0.834 1.998,1.316 3.179,1.316 l 59.999,0 c 1.186,0 2.35,-0.479 3.184,-1.316 0.838,-0.834 1.316,-1.998 1.316,-3.184 l 0,-59.999 C 64.499,3.319 64.017,2.154 63.183,1.32 62.343,0.48 61.183,0 59.999,0 L 0,0 z"
         style="fill:#713907;fill-opacity:1;fill-rule:evenodd;stroke:none"
         id="path3541"
         inkscape:connector-curvature="0" />
    </g>
    <g
       id="g3633"
       transform="matrix(1.25,0,0,-1.25,379.02813,543.42031)">
      <path
         d="m 0,0 c 0.035,-3.147 -2.455,-4.584 -5.075,-4.584 l -24.296,0 0,1.601 12.579,-0.007 -1.182,15.041 1.075,0.058 11.361,-11.775 5.005,0 0.74,0.626 0.84,0.364 2.342,0.712 3.601,0.833 1.717,0.833 1.266,0.548 c 1.054,0.455 2.656,0.427 3.168,-0.42 1.736,0.511 3.595,0.505 5.402,0.612 l 3.83,0.227 0.293,0.03 c 0.305,0.027 0.604,0.105 0.897,0.213 0.341,0.128 0.974,0.349 0.043,0.768 l -0.229,0.15 c -0.135,0.092 -0.334,0.263 -0.07,0.406 l 0.39,-0.1 0.506,-0.121 0.512,-0.114 0.514,-0.1 0.511,-0.085 c 0.334,-0.056 0.684,-0.064 0.975,-0.25 l 0.18,-0.113 0.07,-0.27 C 27.172,4.292 27.762,3.68 28.496,3.345 L 28.9,3.16 28.895,3.089 C 28.83,2.419 28.047,2.527 27.557,2.676 L 27.164,2.797 C 26.887,2.882 26.195,3.181 26.723,2.349 l 0.25,-0.307 c 0.17,-0.212 0.867,-0.39 0.441,-0.697 -0.371,-0.263 -0.799,0 -1.154,0.171 -0.555,0.263 -1.231,0.306 -1.715,-0.114 -0.307,-0.27 -0.584,-0.569 -0.861,-0.868 -0.535,-0.577 -1.139,-1.103 -1.852,-1.452 -0.221,-0.107 -0.754,-0.171 -0.512,-0.506 0.299,-0.412 0.862,-0.426 1.266,-0.69 0.613,-0.398 0.258,-1.154 -0.141,-1.595 -0.463,-0.512 -1.046,-0.983 -1.765,-0.983 -0.25,0 -0.506,0.086 -0.662,0.293 -0.536,0.697 0.533,0.883 1.052,0.91 0.256,0.016 0.563,0.293 0.307,0.514 -0.406,0.348 -0.697,0.875 -1.225,1.053 -0.562,0.192 -1.146,0.306 -1.714,0.491 -0.485,0.157 -0.862,0.534 -1.338,0.712 l -0.364,0.135 c -0.712,-1.088 -0.328,-1.524 -0.298,-2.306 0.019,-0.534 0.304,-1.054 0.818,-1.253 0.726,-0.277 1.43,-0.649 2.213,-0.727 0.584,-0.056 0.392,-0.768 -0.022,-0.939 -0.789,-0.327 -1.593,0.078 -2.277,0.498 -0.42,0.257 -0.904,0.35 -1.359,0.527 -0.485,0.193 -0.897,0.584 -0.961,1.117 -0.094,0.77 -0.235,1.596 -0.856,2.122 -0.818,0.698 -1.273,0.968 -1.715,2.663 L 11.938,1.068 11.518,0.947 11.068,0.783 10.891,0.734 10.984,0.925 9.768,0.484 9.938,0.769 9.547,0.583 8.998,0.328 8.828,0.263 8.414,0.22 8.699,0.377 8.941,0.619 8.371,0.462 7.852,0.356 7.389,0.256 7.162,0.263 6.899,0.285 6.656,0.313 6.791,0.377 6.982,0.47 7.033,0.505 7.133,0.619 6.606,0.548 6.215,0.519 5.838,0.484 C 5.744,0.477 5.688,0.583 5.602,0.583 L 4.293,0.613 4.527,0.748 4.734,0.861 4.92,1.046 4.856,1.068 4.684,1.089 4.399,1.118 l 3.544,0.675 0.592,0.05 0.356,0.065 0.777,0.199 0.719,0.249 c 0.818,0.284 1.806,0.876 2.22,1.296 -0.955,0.519 -1.445,0.433 -2.128,0.106 L 9.76,3.416 8.436,2.769 7.141,2.142 5.461,1.779 3.666,1.289 1.596,0.791 0,0 z"
         style="fill:#ffffff;fill-opacity:1;fill-rule:nonzero;stroke:none"
         id="path3635"
         inkscape:connector-curvature="0" />
    </g>
    <g
       id="g3637"
       transform="matrix(1.25,0,0,-1.25,345.86813,528.99406)">
      <path
         d="m 0,0 0,0 1.695,-1.774 1.779,-1.857 1.132,-2.172 0.399,-3.545 0.32,-4.754 -1.26,-0.42 -0.213,0.804 c -0.285,1.061 -0.705,2.079 -1.054,3.118 -0.277,0.805 -0.519,1.623 -0.619,2.47 l -0.171,1.481 -4.058,4.014 -0.035,-2.99 c -0.014,-1.024 -0.199,-2.079 -0.834,-2.911 l -4.584,-5.972 -1.125,1.052 3.709,6.92 -0.32,4.598 c -0.057,0.783 0.15,1.553 0.478,2.258 0.975,2.107 1.907,4.242 3.145,6.214 L -0.156,8.855 5.09,4.939 9.503,1.878 8.927,1.224 5.04,3.209 3.809,3.488 2.378,4 0,0 z"
         style="fill:#ffffff;fill-opacity:1;fill-rule:nonzero;stroke:none"
         id="path3639"
         inkscape:connector-curvature="0" />
    </g>
    <g
       id="g3641"
       transform="matrix(1.25,0,0,-1.25,349.58312,513.70406)">
      <path
         d="m 0,0 c 1.12,0 2.028,-0.909 2.028,-2.029 0,-1.12 -0.908,-2.03 -2.028,-2.03 -1.12,0 -2.028,0.91 -2.028,2.03 C -2.028,-0.909 -1.12,0 0,0"
         style="fill:#ffffff;fill-opacity:1;fill-rule:nonzero;stroke:none"
         id="path3643"
         inkscape:connector-curvature="0" />
    </g>
  </g>
</svg>
