<?xml version="1.0" encoding="UTF-8" standalone="no"?>
<!-- Created with Inkscape (http://www.inkscape.org/) -->

<svg
   xmlns:dc="http://purl.org/dc/elements/1.1/"
   xmlns:cc="http://creativecommons.org/ns#"
   xmlns:rdf="http://www.w3.org/1999/02/22-rdf-syntax-ns#"
   xmlns:svg="http://www.w3.org/2000/svg"
   xmlns="http://www.w3.org/2000/svg"
   xmlns:sodipodi="http://sodipodi.sourceforge.net/DTD/sodipodi-0.dtd"
   xmlns:inkscape="http://www.inkscape.org/namespaces/inkscape"
   width="90.625"
   height="90.625"
   id="svg6613"
   version="1.1"
   inkscape:version="0.48.3.1 r9886"
   sodipodi:docname="New document 59">
  <defs
     id="defs6615" />
  <sodipodi:namedview
     id="base"
     pagecolor="#ffffff"
     bordercolor="#666666"
     borderopacity="1.0"
     inkscape:pageopacity="0.0"
     inkscape:pageshadow="2"
     inkscape:zoom="0.35"
     inkscape:cx="45.3125"
     inkscape:cy="45.312497"
     inkscape:document-units="px"
     inkscape:current-layer="layer1"
     showgrid="false"
     fit-margin-top="0"
     fit-margin-left="0"
     fit-margin-right="0"
     fit-margin-bottom="0"
     inkscape:window-width="451"
     inkscape:window-height="398"
     inkscape:window-x="25"
     inkscape:window-y="25"
     inkscape:window-maximized="0" />
  <metadata
     id="metadata6618">
    <rdf:RDF>
      <cc:Work
         rdf:about="">
        <dc:format>image/svg+xml</dc:format>
        <dc:type
           rdf:resource="http://purl.org/dc/dcmitype/StillImage" />
        <dc:title></dc:title>
      </cc:Work>
    </rdf:RDF>
  </metadata>
  <g
     inkscape:label="Layer 1"
     inkscape:groupmode="layer"
     id="layer1"
     transform="translate(-329.6875,-487.04968)">
    <g
       id="g4181"
       transform="matrix(1.25,0,0,-1.25,337.5,577.36218)">
      <path
         d="m 0,0 60,0 c 1.58,0 3.125,0.64 4.244,1.759 C 65.361,2.877 66,4.42 66,6 l 0,60 c 0,1.58 -0.639,3.123 -1.756,4.244 C 63.125,71.359 61.58,72 60,72 L 0,72 C -1.578,72 -3.123,71.359 -4.24,70.244 -5.359,69.123 -6,67.58 -6,66 L -6,6 C -6,3.943 -4.908,2 -3.176,0.896 -2.188,0.267 -1.143,0.121 0,0"
         style="fill:#ffffff;fill-opacity:1;fill-rule:nonzero;stroke:none"
         id="path4183"
         inkscape:connector-curvature="0" />
    </g>
    <g
       id="g4185"
       transform="matrix(1.25,0,0,-1.25,337.5,577.36218)">
      <path
         d="m 0,0 60,0 c 1.58,0 3.125,0.64 4.244,1.759 C 65.361,2.877 66,4.42 66,6 l 0,60 c 0,1.58 -0.639,3.123 -1.756,4.244 C 63.125,71.359 61.58,72 60,72 L 0,72 C -1.578,72 -3.123,71.359 -4.24,70.244 -5.359,69.123 -6,67.58 -6,66 L -6,6 C -6,3.943 -4.908,2 -3.176,0.896 -2.188,0.267 -1.143,0.121 0,0 z"
         style="fill:none;stroke:#231f20;stroke-width:0.5;stroke-linecap:butt;stroke-linejoin:miter;stroke-miterlimit:4;stroke-opacity:1;stroke-dasharray:none"
         id="path4187"
         inkscape:connector-curvature="0" />
    </g>
    <g
       id="g4189"
       transform="matrix(1.25,0,0,-1.25,337.5,575.48718)">
      <path
         d="M 0,0 C -0.893,0 -1.647,0.201 -2.369,0.66 -3.68,1.494 -4.5,2.966 -4.5,4.5 l 0,60 c 0,1.181 0.48,2.343 1.32,3.183 C -2.346,68.517 -1.182,69 0,69 l 60,0 c 1.185,0 2.35,-0.481 3.184,-1.317 C 64.021,66.849 64.5,65.685 64.5,64.5 l 0,-60 C 64.5,3.318 64.017,2.154 63.184,1.32 62.344,0.48 61.184,0 60,0 L 0,0 z"
         style="fill:#713907;fill-opacity:1;fill-rule:evenodd;stroke:none"
         id="path4191"
         inkscape:connector-curvature="0" />
    </g>
    <g
       id="g4193"
       transform="matrix(1.25,0,0,-1.25,385.06874,552.31967)">
      <path
         d="m 0,0 c -3.975,-4.193 -9.607,-6.825 -15.839,-6.825 -12.03,0 -21.792,9.762 -21.792,21.793 0,12.037 9.762,21.792 21.792,21.792 3.609,0 7,-0.873 9.998,-2.433 0.088,0.226 0.253,0.428 0.488,0.559 0.907,0.295 1.508,-0.584 2.267,-0.899 0.697,-0.296 1.185,-0.906 1.778,-1.359 0.994,-0.785 2.389,-1.212 3.513,-0.462 0.915,0.6 1.882,1.978 0.201,2.649 -0.994,0.393 -1.317,1.534 -2.023,2.258 -1.447,1.482 0.087,3.652 1.961,3.435 l 4.498,-0.54 1.683,0.007 4.271,0.506 c 1.857,0.227 3.74,-1.821 2.197,-3.399 -0.706,-0.724 -1.029,-1.874 -2.023,-2.267 -1.682,-0.671 -0.715,-2.039 0.192,-2.64 1.125,-0.75 2.519,-0.332 3.522,0.453 0.592,0.453 1.08,1.063 1.778,1.359 0.707,0.305 1.307,1.012 2.197,0.828 0.775,-0.348 0.575,-1.516 0.113,-2.423 -0.235,-0.479 -0.079,-0.932 0.061,-1.316 0.157,-0.437 0.201,-1.02 -0.174,-1.508 -0.419,-0.575 -0.906,-1.316 -0.497,-1.796 0.2,-0.235 0.2,-0.619 0.296,-0.932 0.13,-0.411 0.305,-0.785 0.558,-1.099 0.271,-0.34 1.02,-0.357 -0.148,-1.352 -0.733,-0.609 -1.186,-1.586 -0.453,-2.003 0.671,-0.375 0.148,-1.161 -0.349,-1.727 -0.584,-0.671 -1.046,-1.621 -0.104,-1.918 0.95,-0.287 0.375,-1.15 -0.297,-1.69 -0.462,-0.384 -1.064,-0.908 -0.576,-1.264 0.297,-0.253 0.593,-0.506 0.899,-0.75 0.427,-0.218 -0.149,-0.628 -0.506,-0.89 -0.253,-0.2 -0.654,-0.366 -0.663,-0.627 -0.148,-0.332 -0.305,-0.672 -0.462,-1.011 0.802,-1.892 0.497,-2.441 0.018,-2.711 C 17.991,9.684 17.974,9.405 17.73,9.222 17.111,8.743 16.545,8.185 16.945,7.653 17.59,6.904 17.146,6.285 16.692,5.971 16.283,5.666 15.846,5.387 15.428,5.117 14.879,4.777 15.664,4.411 16.004,4.123 16.431,3.749 16.204,3.295 15.803,2.921 15.385,2.528 15.289,2.1 15.306,1.665 15.306,1.429 15.159,1.203 15.237,0.976 15.35,0.636 15.846,0.253 15.219,0 c -0.872,-0.375 -2.222,-0.54 -2.406,-1.142 0.341,-0.662 1.168,-1.83 -0.296,-2.144 -0.392,-0.078 -1.046,-0.489 -1.15,-0.689 -0.306,-0.723 -0.82,-0.766 -1.012,-1.552 -0.183,-0.235 0.515,-0.636 0.34,-0.932 C 10.555,-6.695 9.789,-7.287 9.606,-7.488 8.987,-8.455 8.168,-8.83 7.644,-8.786 7.06,-8.848 6.467,-8.534 5.744,-7.627 5.57,-7.401 4.899,-6.895 4.715,-6.59 4.288,-6.346 4.986,-5.631 4.837,-5.361 4.68,-4.585 4.541,-4.821 3.852,-3.975 3.748,-3.775 3.199,-2.903 2.797,-2.824 1.342,-2.501 2.213,-1.761 2.406,-1.142 2.231,-0.54 0.872,-0.375 0,0"
         style="fill:#ffffff;fill-opacity:1;fill-rule:nonzero;stroke:none"
         id="path4195"
         inkscape:connector-curvature="0" />
    </g>
    <g
       id="g4197"
       transform="matrix(1.25,0,0,-1.25,358.81999,532.40217)">
      <path
         d="m 0,0 c 0.139,0.742 0.418,1.421 0.836,2.023 l -9.615,10.164 c -3.111,-3.304 -5.073,-7.706 -5.22,-12.57 L 0,0 z"
         style="fill:#713907;fill-opacity:1;fill-rule:nonzero;stroke:none"
         id="path4199"
         inkscape:connector-curvature="0" />
    </g>
    <g
       id="g4201"
       transform="matrix(1.25,0,0,-1.25,359.85487,537.34842)">
      <path
         d="m 0,0 c -0.418,0.602 -0.715,1.299 -0.846,2.049 l -13.99,0.392 c 0.148,-4.873 2.074,-9.283 5.178,-12.587 L 0,0 z"
         style="fill:#713907;fill-opacity:1;fill-rule:nonzero;stroke:none"
         id="path4203"
         inkscape:connector-curvature="0" />
    </g>
    <g
       id="g4205"
       transform="matrix(1.25,0,0,-1.25,364.11499,540.09467)">
      <path
         d="m 0,0 c -0.758,0.131 -1.456,0.428 -2.066,0.855 l -10.172,-9.607 c 3.539,-3.355 8.054,-5.099 12.613,-5.221 L 0,0 z"
         style="fill:#713907;fill-opacity:1;fill-rule:nonzero;stroke:none"
         id="path4207"
         inkscape:connector-curvature="0" />
    </g>
    <g
       id="g4209"
       transform="matrix(1.25,0,0,-1.25,369.03,539.00467)">
      <path
         d="m 0,0 c -0.593,-0.418 -1.29,-0.724 -2.04,-0.863 l -0.384,-13.982 c 4.542,0.14 9.049,1.874 12.578,5.221 L 0,0 z"
         style="fill:#713907;fill-opacity:1;fill-rule:nonzero;stroke:none"
         id="path4211"
         inkscape:connector-curvature="0" />
    </g>
    <g
       id="g4213"
       transform="matrix(1.25,0,0,-1.25,361.56487,528.19718)">
      <path
         d="M 0,0 C 0.592,0.407 1.275,0.696 2.011,0.834 L 2.412,14.838 C -2.457,14.693 -6.873,12.741 -10.172,9.62 L 0,0 z"
         style="fill:#713907;fill-opacity:1;fill-rule:nonzero;stroke:none"
         id="path4215"
         inkscape:connector-curvature="0" />
    </g>
    <g
       id="g4217"
       transform="matrix(1.25,0,0,-1.25,371.73112,534.79968)">
      <path
         d="m 0,0 c -0.131,-0.731 -0.418,-1.42 -0.828,-2.013 l 9.632,-10.172 c 0.384,0.409 0.758,0.837 1.107,1.281 -0.279,0.331 -0.383,0.697 -0.026,1.011 0.34,0.288 1.124,0.654 0.576,0.994 -0.419,0.27 -0.855,0.549 -1.265,0.854 -1.08,0.41 -0.34,1.569 -0.243,1.682 0.4,0.532 -0.175,1.09 -0.794,1.569 -0.244,0.183 -0.262,0.462 -0.645,0.576 -0.663,0.401 -0.663,0.819 0.018,2.711 C 7.375,-1.168 7.226,-0.828 7.078,-0.496 7.061,-0.235 6.66,-0.069 6.416,0.131 6.398,0.149 6.372,0.158 6.354,0.175 L 0,0 z"
         style="fill:#713907;fill-opacity:1;fill-rule:nonzero;stroke:none"
         id="path4219"
         inkscape:connector-curvature="0" />
    </g>
    <g
       id="g4221"
       transform="matrix(1.25,0,0,-1.25,368.96374,528.20593)">
      <path
         d="m 0,0 7.453,7.034 c 0.069,0.166 0.14,0.34 0.191,0.515 0.106,0.313 0.097,0.697 0.297,0.932 0.409,0.48 -0.078,1.221 -0.497,1.796 -0.375,0.488 -0.331,1.071 -0.166,1.508 0.009,0.026 0.018,0.06 0.027,0.087 -2.816,1.796 -6.137,2.868 -9.694,2.973 L -1.987,0.837 C -1.264,0.697 -0.593,0.4 0,0"
         style="fill:#713907;fill-opacity:1;fill-rule:nonzero;stroke:none"
         id="path4223"
         inkscape:connector-curvature="0" />
    </g>
    <g
       id="g4225"
       transform="matrix(1.25,0,0,-1.25,370.66237,529.88468)">
      <path
         d="m 0,0 c 0.419,-0.593 0.707,-1.281 0.846,-2.014 l 6.756,-0.2 c 0.017,0.018 0.035,0.034 0.052,0.053 0.489,0.356 -0.113,0.88 -0.575,1.264 C 6.407,-0.357 5.832,0.506 6.782,0.793 7.724,1.09 7.271,2.04 6.687,2.711 6.181,3.277 5.658,4.063 6.329,4.438 7.018,4.829 6.669,5.719 6.007,6.328 L 0,0 z"
         style="fill:#713907;fill-opacity:1;fill-rule:nonzero;stroke:none"
         id="path4227"
         inkscape:connector-curvature="0" />
    </g>
    <g
       id="g4229"
       transform="matrix(1.25,0,0,-1.25,365.26987,531.43092)">
      <path
         d="m 0,0 c -0.967,0 -1.743,-0.777 -1.743,-1.743 0,-0.968 0.776,-1.745 1.743,-1.745 0.968,0 1.744,0.777 1.744,1.745 C 1.744,-0.777 0.968,0 0,0"
         style="fill:#713907;fill-opacity:1;fill-rule:nonzero;stroke:none"
         id="path4231"
         inkscape:connector-curvature="0" />
    </g>
  </g>
</svg>
