<?xml version="1.0" encoding="UTF-8" standalone="no"?>
<!-- Created with Inkscape (http://www.inkscape.org/) -->

<svg
   xmlns:dc="http://purl.org/dc/elements/1.1/"
   xmlns:cc="http://creativecommons.org/ns#"
   xmlns:rdf="http://www.w3.org/1999/02/22-rdf-syntax-ns#"
   xmlns:svg="http://www.w3.org/2000/svg"
   xmlns="http://www.w3.org/2000/svg"
   xmlns:sodipodi="http://sodipodi.sourceforge.net/DTD/sodipodi-0.dtd"
   xmlns:inkscape="http://www.inkscape.org/namespaces/inkscape"
   width="90.625"
   height="90.625"
   id="svg6603"
   version="1.1"
   inkscape:version="0.48.3.1 r9886"
   sodipodi:docname="New document 50">
  <defs
     id="defs6605" />
  <sodipodi:namedview
     id="base"
     pagecolor="#ffffff"
     bordercolor="#666666"
     borderopacity="1.0"
     inkscape:pageopacity="0.0"
     inkscape:pageshadow="2"
     inkscape:zoom="0.35"
     inkscape:cx="28.88268"
     inkscape:cy="79.597587"
     inkscape:document-units="px"
     inkscape:current-layer="layer1"
     showgrid="false"
     fit-margin-top="0"
     fit-margin-left="0"
     fit-margin-right="0"
     fit-margin-bottom="0"
     inkscape:window-width="451"
     inkscape:window-height="415"
     inkscape:window-x="75"
     inkscape:window-y="75"
     inkscape:window-maximized="0" />
  <metadata
     id="metadata6608">
    <rdf:RDF>
      <cc:Work
         rdf:about="">
        <dc:format>image/svg+xml</dc:format>
        <dc:type
           rdf:resource="http://purl.org/dc/dcmitype/StillImage" />
        <dc:title></dc:title>
      </cc:Work>
    </rdf:RDF>
  </metadata>
  <g
     inkscape:label="Layer 1"
     inkscape:groupmode="layer"
     id="layer1"
     transform="translate(-346.11732,-521.33477)">
    <g
       id="g3147"
       transform="matrix(1.25,0,0,-1.25,353.92982,611.64727)"
       inkscape:transform-center-x="60"
       inkscape:transform-center-y="45.311875">
      <path
         d="m 0,0 59.998,0 c 1.58,0 3.125,0.639 4.244,1.76 1.117,1.115 1.756,2.66 1.756,4.24 l 0,59.999 c 0,1.58 -0.639,3.124 -1.756,4.244 -1.119,1.116 -2.664,1.756 -4.244,1.756 L 0,71.999 c -1.58,0 -3.125,-0.64 -4.24,-1.756 C -5.36,69.123 -6,67.579 -6,65.999 L -6,6 C -6,3.944 -4.908,2 -3.176,0.895 -2.188,0.268 -1.145,0.119 0,0"
         style="fill:#ffffff;fill-opacity:1;fill-rule:nonzero;stroke:none"
         id="path3149"
         inkscape:connector-curvature="0" />
    </g>
    <g
       id="g3151"
       transform="matrix(1.25,0,0,-1.25,353.92982,611.64727)"
       inkscape:transform-center-x="60"
       inkscape:transform-center-y="45.311875">
      <path
         d="m 0,0 59.998,0 c 1.58,0 3.125,0.639 4.244,1.76 1.117,1.115 1.756,2.66 1.756,4.24 l 0,59.999 c 0,1.58 -0.639,3.124 -1.756,4.244 -1.119,1.116 -2.664,1.756 -4.244,1.756 L 0,71.999 c -1.58,0 -3.125,-0.64 -4.24,-1.756 C -5.36,69.123 -6,67.579 -6,65.999 L -6,6 C -6,3.944 -4.908,2 -3.176,0.895 -2.188,0.268 -1.145,0.119 0,0 z"
         style="fill:none;stroke:#231f20;stroke-width:0.5;stroke-linecap:butt;stroke-linejoin:miter;stroke-miterlimit:4;stroke-opacity:1;stroke-dasharray:none"
         id="path3153"
         inkscape:connector-curvature="0" />
    </g>
    <g
       id="g3155"
       transform="matrix(1.25,0,0,-1.25,353.92982,609.77227)"
       inkscape:transform-center-x="60"
       inkscape:transform-center-y="45.311875">
      <path
         d="M 0,0 C -0.895,0 -1.647,0.201 -2.371,0.66 -3.682,1.494 -4.5,2.967 -4.5,4.5 l 0,59.999 c 0,1.182 0.48,2.344 1.32,3.183 0.834,0.834 1.998,1.317 3.18,1.317 l 59.998,0 c 1.185,0 2.35,-0.48 3.183,-1.317 0.838,-0.834 1.317,-1.998 1.317,-3.183 l 0,-59.999 C 64.498,3.319 64.015,2.155 63.181,1.321 62.342,0.479 61.181,0 59.998,0 L 0,0 z"
         style="fill:#713907;fill-opacity:1;fill-rule:evenodd;stroke:none"
         id="path3157"
         inkscape:connector-curvature="0" />
    </g>
    <g
       id="g3215"
       transform="matrix(1.25,0,0,-1.25,426.41982,583.83977)"
       inkscape:transform-center-x="60"
       inkscape:transform-center-y="58.313125">
      <path
         d="M 0,0 C -1.225,0 -2.4,0.278 -3.451,0.748 -4.527,1.248 -5.738,1.539 -7,1.539 -8.264,1.539 -9.475,1.248 -10.549,0.748 -11.602,0.278 -12.771,0 -13.996,0 c -1.227,0 -2.402,0.278 -3.449,0.748 -1.076,0.5 -2.287,0.791 -3.549,0.791 -1.268,0 -2.477,-0.291 -3.551,-0.791 C -25.598,0.278 -26.769,0 -27.994,0 c -1.225,0 -2.402,0.278 -3.449,0.748 -1.076,0.5 -2.285,0.791 -3.549,0.791 -1.268,0 -2.475,-0.291 -3.551,-0.791 C -39.594,0.278 -40.768,0 -41.992,0 c -1.223,0 -2.397,0.278 -3.447,0.748 -1.077,0.5 -2.288,0.791 -3.549,0.791 -1.266,0 -2.475,-0.291 -3.549,-0.791 C -53.586,0.278 -54.762,0 -55.986,0 l 0,5.17 c 1.224,0 2.4,0.274 3.449,0.744 1.074,0.5 2.283,0.791 3.549,0.791 1.261,0 2.472,-0.291 3.549,-0.791 1.05,-0.47 2.224,-0.744 3.447,-0.744 1.224,0 2.398,0.274 3.449,0.744 1.076,0.5 2.283,0.791 3.551,0.791 1.264,0 2.473,-0.291 3.549,-0.791 1.047,-0.47 2.224,-0.744 3.449,-0.744 1.225,0 2.396,0.274 3.449,0.744 1.074,0.5 2.283,0.791 3.551,0.791 1.262,0 2.473,-0.291 3.549,-0.791 1.047,-0.47 2.222,-0.744 3.449,-0.744 1.225,0 2.394,0.274 3.447,0.744 1.074,0.5 2.285,0.791 3.549,0.791 1.262,0 2.473,-0.291 3.549,-0.791 C -2.4,5.444 -1.225,5.17 0,5.17 L 0,0 z"
         style="fill:#ffffff;fill-opacity:1;fill-rule:nonzero;stroke:none"
         id="path3217"
         inkscape:connector-curvature="0" />
    </g>
    <g
       id="g3219"
       transform="matrix(1.25,0,0,-1.25,417.63608,575.45852)"
       inkscape:transform-center-x="60.750771"
       inkscape:transform-center-y="68.065781">
      <path
         d="m 0,0 c -1.266,0 -2.477,-0.291 -3.549,-0.791 -1.055,-0.47 -2.225,-0.744 -3.449,-0.744 -1.225,0 -2.401,0.274 -3.45,0.744 -1.076,0.5 -2.283,0.791 -3.55,0.791 -1.264,0 -2.473,-0.291 -3.549,-0.791 -1.051,-0.47 -2.225,-0.744 -3.449,-0.744 -1.225,0 -2.401,0.274 -3.45,0.744 -1.076,0.5 -2.283,0.791 -3.548,0.791 -1.262,0 -2.473,-0.291 -3.549,-0.791 -1.053,-0.47 -2.225,-0.744 -3.449,-0.744 -1.225,0 -2.397,0.274 -3.45,0.744 -1.074,0.5 -2.283,0.791 -3.549,0.791 -1.263,0 -2.472,-0.291 -3.55,-0.791 -1.047,-0.47 -2.225,-0.744 -3.448,-0.744 l 0,-5.17 c 1.223,0 2.401,0.278 3.448,0.748 1.078,0.5 2.287,0.791 3.55,0.791 1.266,0 2.475,-0.291 3.549,-0.791 0.889,-0.396 1.871,-0.615 2.891,-0.687 l -4.291,-4.291 c -1.358,0.859 -3.17,0.703 -4.352,-0.477 l -4.914,-4.914 c -1.367,-1.369 -1.367,-3.588 0,-4.955 1.371,-1.371 3.588,-1.371 4.959,0 l 4.912,4.91 c 1.114,1.116 1.305,2.785 0.606,4.11 l 5.922,5.918 c 0.396,0.113 0.795,0.22 1.166,0.386 1.076,0.5 2.287,0.791 3.549,0.791 1.265,0 2.472,-0.291 3.548,-0.791 1.049,-0.47 2.225,-0.748 3.45,-0.748 1.224,0 2.398,0.278 3.449,0.748 1.076,0.5 2.285,0.791 3.549,0.791 1.267,0 2.474,-0.291 3.55,-0.791 1.049,-0.47 2.225,-0.748 3.45,-0.748 1.224,0 2.394,0.278 3.449,0.748 1.072,0.5 2.283,0.791 3.549,0.791 1.261,0 2.472,-0.291 3.549,-0.791 C 4.597,-6.427 5.775,-6.705 7,-6.705 l 0,5.17 c -1.225,0 -2.403,0.274 -3.451,0.744 C 2.472,-0.291 1.261,0 0,0"
         style="fill:#ffffff;fill-opacity:1;fill-rule:nonzero;stroke:none"
         id="path3221"
         inkscape:connector-curvature="0" />
    </g>
    <g
       id="g3223"
       transform="matrix(1.25,0,0,-1.25,424.92607,566.69852)"
       inkscape:transform-center-x="59.269219"
       inkscape:transform-center-y="31.419219">
      <path
         d="m 0,0 -25.19,0 7.125,7.125 0.948,-0.349 c 1.199,-0.444 2.527,0.17 2.968,1.367 0.319,0.855 0.078,1.767 -0.511,2.387 l 6.982,6.982 c 1.322,-0.697 2.992,-0.506 4.104,0.607 l 4.916,4.914 c 1.371,1.368 1.371,3.588 0,4.96 -1.37,1.367 -3.59,1.367 -4.958,0 L -8.53,23.078 C -9.713,21.895 -9.867,20.08 -9.006,18.725 l -7.317,-7.315 -12.138,4.489 c -0.324,0.181 -0.664,0.338 -1.033,0.449 -2.649,0.793 -5.44,-0.713 -6.233,-3.361 L -39.465,0.496 C -39.52,0.315 -39.532,0.164 -39.561,0 l -15.236,0 0,-6.705 c 0.904,0.004 1.83,0.201 2.65,0.57 1.356,0.631 2.852,0.963 4.324,0.963 1.475,0 2.971,-0.332 4.297,-0.951 0.869,-0.387 1.778,-0.586 2.702,-0.586 0.923,0 1.83,0.199 2.675,0.574 1.354,0.631 2.848,0.963 4.323,0.963 1.494,0 2.947,-0.322 4.3,-0.951 0.854,-0.383 1.784,-0.586 2.698,-0.586 0.923,0 1.832,0.199 2.673,0.574 1.356,0.631 2.852,0.963 4.325,0.963 1.496,0 2.949,-0.322 4.302,-0.951 0.852,-0.383 1.784,-0.586 2.698,-0.586 0.922,0 1.83,0.199 2.672,0.574 1.353,0.631 2.847,0.963 4.326,0.963 0.258,0 0.513,-0.023 0.771,-0.043 2.547,1.17 4.391,2.18 5.512,2.813 C 1.754,-1.67 1.822,0 0,0 M -26.133,10.108 -19.92,7.813 -27.731,0 l -1.427,0 3.025,10.108 z"
         style="fill:#ffffff;fill-opacity:1;fill-rule:nonzero;stroke:none"
         id="path3225"
         inkscape:connector-curvature="0" />
    </g>
    <g
       id="g3227"
       transform="matrix(1.25,0,0,-1.25,390.31107,538.59977)"
       inkscape:transform-center-x="61.233125"
       inkscape:transform-center-y="20.17625">
      <path
         d="M 0,0 -0.638,-1.377 C -1.047,-2.221 -1.91,-2.803 -2.906,-2.803 l -1.496,0 c 0.857,-1.221 2.277,-2.021 3.883,-2.021 2.615,0 4.736,2.123 4.736,4.738 l 0,0.25 -3.982,0 C 0.129,0.164 0.035,0.095 0,0"
         style="fill:#ffffff;fill-opacity:1;fill-rule:nonzero;stroke:none"
         id="path3229"
         inkscape:connector-curvature="0" />
    </g>
    <g
       id="g3231"
       transform="matrix(1.25,0,0,-1.25,386.67857,540.59977)"
       inkscape:transform-center-x="61.88125"
       inkscape:transform-center-y="14.6775">
      <path
         d="m 0,0 c 0.52,0 0.975,0.303 1.186,0.742 l 0.627,1.373 c 0.23,0.506 0.736,0.858 1.328,0.858 l 4.89,0 C 7.387,5.486 5.102,7.344 2.387,7.344 c -3.221,0 -5.828,-2.609 -5.828,-5.83 0,-0.524 0.066,-1.037 0.199,-1.52 L 0,0 z"
         style="fill:#ffffff;fill-opacity:1;fill-rule:nonzero;stroke:none"
         id="path3233"
         inkscape:connector-curvature="0" />
    </g>
  </g>
</svg>
