<?xml version="1.0" encoding="UTF-8" standalone="no"?>
<!-- Created with Inkscape (http://www.inkscape.org/) -->

<svg
   xmlns:dc="http://purl.org/dc/elements/1.1/"
   xmlns:cc="http://creativecommons.org/ns#"
   xmlns:rdf="http://www.w3.org/1999/02/22-rdf-syntax-ns#"
   xmlns:svg="http://www.w3.org/2000/svg"
   xmlns="http://www.w3.org/2000/svg"
   xmlns:sodipodi="http://sodipodi.sourceforge.net/DTD/sodipodi-0.dtd"
   xmlns:inkscape="http://www.inkscape.org/namespaces/inkscape"
   width="88.928627"
   height="66.875"
   id="svg3743"
   version="1.1"
   inkscape:version="0.48.3.1 r9886"
   sodipodi:docname="New document 10">
  <defs
     id="defs3745">
    <clipPath
       clipPathUnits="userSpaceOnUse"
       id="clipPath3377">
      <path
         inkscape:connector-curvature="0"
         d="m 62.75,568.19 513.25,0 0,169.81 -513.25,0 0,-169.81 z"
         id="path3379" />
    </clipPath>
    <clipPath
       clipPathUnits="userSpaceOnUse"
       id="clipPath3365">
      <path
         inkscape:connector-curvature="0"
         d="m 117.371,568.19 404.009,0 0,169.81 -404.009,0 0,-169.81 z"
         id="path3367" />
    </clipPath>
    <clipPath
       clipPathUnits="userSpaceOnUse"
       id="clipPath3353">
      <path
         inkscape:connector-curvature="0"
         d="m 62.75,568.19 513.25,0 0,169.81 -513.25,0 0,-169.81 z"
         id="path3355" />
    </clipPath>
  </defs>
  <sodipodi:namedview
     id="base"
     pagecolor="#ffffff"
     bordercolor="#666666"
     borderopacity="1.0"
     inkscape:pageopacity="0.0"
     inkscape:pageshadow="2"
     inkscape:zoom="0.35"
     inkscape:cx="44.456255"
     inkscape:cy="33.441892"
     inkscape:document-units="px"
     inkscape:current-layer="layer1"
     showgrid="false"
     fit-margin-top="0"
     fit-margin-left="0"
     fit-margin-right="0"
     fit-margin-bottom="0"
     inkscape:window-width="451"
     inkscape:window-height="398"
     inkscape:window-x="125"
     inkscape:window-y="125"
     inkscape:window-maximized="0" />
  <metadata
     id="metadata3748">
    <rdf:RDF>
      <cc:Work
         rdf:about="">
        <dc:format>image/svg+xml</dc:format>
        <dc:type
           rdf:resource="http://purl.org/dc/dcmitype/StillImage" />
        <dc:title></dc:title>
      </cc:Work>
    </rdf:RDF>
  </metadata>
  <g
     inkscape:label="Layer 1"
     inkscape:groupmode="layer"
     id="layer1"
     transform="translate(-330.54374,-498.92907)">
    <g
       transform="matrix(1.25,0,0,-1.25,-232.25263,1369.7572)"
       id="g3349">
      <g
         id="g3351"
         clip-path="url(#clipPath3353)">
        <g
           id="g3357"
           transform="translate(454.6746,696.4125)">
          <path
             inkscape:connector-curvature="0"
             d="m 0,0 62.256,0 c 2.312,0 4.199,-1.887 4.199,-4.2 l 0,-44.593 c 0,-2.313 -1.887,-4.2 -4.199,-4.2 l -62.256,0 c -2.313,0 -4.2,1.887 -4.2,4.2 l 0,44.593 C -4.2,-1.887 -2.313,0 0,0"
             style="fill:#f03e78;fill-opacity:1;fill-rule:nonzero;stroke:none"
             id="path3359" />
        </g>
      </g>
    </g>
    <g
       transform="matrix(1.25,0,0,-1.25,-232.25263,1369.7572)"
       id="g3361">
      <g
         id="g3363"
         clip-path="url(#clipPath3365)">
        <g
           id="g3369"
           transform="translate(454.6746,696.4125)">
          <path
             inkscape:connector-curvature="0"
             d="m 0,0 62.256,0 c 2.312,0 4.199,-1.887 4.199,-4.2 l 0,-44.593 c 0,-2.313 -1.887,-4.2 -4.199,-4.2 l -62.256,0 c -2.313,0 -4.2,1.887 -4.2,4.2 l 0,44.593 C -4.2,-1.887 -2.313,0 0,0 z"
             style="fill:none;stroke:#231f20;stroke-width:0.5;stroke-linecap:butt;stroke-linejoin:miter;stroke-miterlimit:4;stroke-opacity:1;stroke-dasharray:none"
             id="path3371" />
        </g>
      </g>
    </g>
    <g
       transform="matrix(1.25,0,0,-1.25,-232.25263,1369.7572)"
       id="g3373">
      <g
         id="g3375"
         clip-path="url(#clipPath3377)">
        <g
           id="g3381"
           transform="translate(454.6746,695.2123)">
          <path
             inkscape:connector-curvature="0"
             d="m 0,0 62.254,0 c 1.654,0 3.002,-1.348 3.002,-3 l 0,-44.591 c 0,-1.653 -1.348,-3 -3.002,-3 l -62.254,0 c -1.653,0 -3,1.347 -3,3 L -3,-3 c 0,1.652 1.347,3 3,3"
             style="fill:#231f20;fill-opacity:1;fill-rule:evenodd;stroke:none"
             id="path3383" />
        </g>
        <g
           id="g3385"
           transform="translate(516.9066,693.4125)">
          <path
             inkscape:connector-curvature="0"
             d="M 0,0 0.147,-0.007 C 0.35,-0.033 0.516,-0.094 0.69,-0.205 l 0.093,-0.07 c 0.186,-0.161 0.307,-0.338 0.385,-0.571 0.029,-0.099 0.045,-0.19 0.053,-0.292 l 0.002,-44.63 -0.006,-0.146 C 1.19,-46.12 1.129,-46.286 1.018,-46.459 l -0.071,-0.092 c -0.16,-0.188 -0.337,-0.309 -0.57,-0.387 -0.1,-0.029 -0.189,-0.045 -0.293,-0.053 l -62.293,-0.002 -0.146,0.008 c -0.205,0.026 -0.369,0.086 -0.543,0.197 l -0.094,0.071 c -0.186,0.16 -0.307,0.338 -0.387,0.57 -0.027,0.1 -0.043,0.191 -0.051,0.293 l -0.002,44.63 0.006,0.147 c 0.026,0.205 0.088,0.37 0.2,0.543 l 0.068,0.094 c 0.162,0.186 0.34,0.307 0.572,0.386 0.098,0.028 0.19,0.044 0.291,0.052 L 0,0 z"
             style="fill:#f03e78;fill-opacity:1;fill-rule:evenodd;stroke:none"
             id="path3387" />
        </g>
        <g
           id="g3389"
           transform="translate(503.8036,684.0429)">
          <path
             inkscape:connector-curvature="0"
             d="m 0,0 0,2.065 -8.838,0 0,-2.065 3.386,0 0,-9.704 2.065,0 0,9.704 L 0,0 z m -10.778,2.065 -2.107,0 0,-11.768 2.107,0 0,11.768 z m -4.461,-11.769 -3.84,6.194 3.469,5.575 -2.517,0 -2.231,-3.592 -2.23,3.592 -2.518,0 3.51,-5.575 -3.84,-6.194 2.477,0 2.601,4.171 2.643,-4.171 2.476,0 z m -11.849,0 0,2.106 -6.649,0 0,3.221 3.51,0 0,2.148 -3.51,0 0,2.188 6.442,0 0,2.106 -8.588,0 0,-11.769 8.795,0 z"
             style="fill:#231f20;fill-opacity:1;fill-rule:evenodd;stroke:none"
             id="path3391" />
        </g>
        <g
           id="g3393"
           transform="translate(512.2286,659.6357)">
          <path
             inkscape:connector-curvature="0"
             d="m 0,0 c 0,-1.568 -0.373,-2.849 -1.074,-3.55 -0.332,-0.331 -0.701,-0.454 -1.322,-0.454 l -1.858,0 0,8.01 2.106,0 c 0.496,0 0.908,-0.207 1.197,-0.495 C -0.373,2.891 0,1.57 0,0 m 1.899,0 c 0,2.313 -0.701,4.171 -1.942,5.244 -0.619,0.497 -1.072,0.62 -2.269,0.62 l -3.799,0 0,-11.768 3.592,0 0.66,0 c 0.619,0.041 1.238,0.248 1.693,0.66 1.323,1.032 2.065,2.89 2.065,5.244 m -9.951,-5.904 0,1.9 -5.452,0 0,3.22 3.428,0 0,1.9 -3.428,0 0,2.89 5.081,0 0,1.858 -6.938,0 0,-11.768 7.309,0 z m -9.25,3.385 c 0,4.625 -5.534,3.181 -5.698,5.369 -0.082,1.073 0.952,1.403 1.817,1.363 1.322,-0.042 1.734,-1.033 1.734,-1.033 l 1.653,0.496 c -0.579,1.445 -1.694,2.394 -3.346,2.394 -2.106,0 -3.674,-0.866 -3.674,-3.179 0,-1.94 1.568,-2.643 2.27,-2.931 1.529,-0.62 3.345,-0.867 3.345,-2.437 0,-0.991 -0.744,-1.735 -1.816,-1.735 -1.115,0 -2.024,0.62 -2.52,1.735 l -1.775,-0.661 c 0.785,-1.775 2.271,-2.98 4.295,-2.98 0.99,0 1.898,0.337 2.56,0.916 0.743,0.661 1.155,1.61 1.155,2.683 m -11.602,2.479 c 0,-0.909 -0.207,-2.065 -0.455,-2.684 -0.412,-1.033 -0.949,-1.488 -1.816,-1.488 -0.745,0 -1.239,0.29 -1.61,0.909 -0.455,0.744 -0.703,2.024 -0.703,3.263 0,0.991 0.166,2.064 0.455,2.765 0.412,1.034 0.99,1.488 1.899,1.446 0.703,-0.041 1.156,-0.29 1.527,-0.909 0.455,-0.783 0.703,-1.982 0.703,-3.302 m 1.858,0 c 0,1.485 -0.29,2.973 -0.786,4.005 -0.742,1.445 -1.775,2.105 -3.261,2.105 -1.364,0 -2.311,-0.412 -3.014,-1.32 -0.785,-1.116 -1.281,-2.851 -1.281,-4.79 0,-1.405 0.332,-2.973 0.826,-3.964 0.703,-1.445 1.734,-2.114 3.387,-2.114 1.238,0 2.189,0.419 2.849,1.328 0.824,1.033 1.28,2.89 1.28,4.75 m -9.829,-5.864 0,1.735 -5.449,0 0,10.033 -1.857,0 0,-11.768 7.306,0 z m -9.867,2.394 -1.775,0.661 c -0.455,-0.95 -1.033,-1.363 -1.817,-1.363 -0.826,0 -1.363,0.29 -1.777,0.909 -0.453,0.744 -0.742,2.024 -0.742,3.303 0,0.991 0.166,2.024 0.455,2.725 0.412,1.034 1.031,1.446 1.98,1.446 0.911,0 1.28,-0.248 1.94,-1.238 l 1.736,0.743 c -0.785,1.652 -1.9,2.394 -3.676,2.394 -1.32,0 -2.312,-0.454 -3.013,-1.32 -0.826,-1.034 -1.321,-2.891 -1.321,-4.75 0,-1.486 0.329,-2.973 0.866,-4.004 0.744,-1.445 1.859,-2.114 3.591,-2.114 1.696,0 2.85,0.874 3.553,2.608"
             style="fill:#231f20;fill-opacity:1;fill-rule:evenodd;stroke:none"
             id="path3395" />
        </g>
      </g>
    </g>
  </g>
</svg>
