<?xml version="1.0" encoding="UTF-8" standalone="no"?>
<!-- Created with Inkscape (http://www.inkscape.org/) -->

<svg
   xmlns:dc="http://purl.org/dc/elements/1.1/"
   xmlns:cc="http://creativecommons.org/ns#"
   xmlns:rdf="http://www.w3.org/1999/02/22-rdf-syntax-ns#"
   xmlns:svg="http://www.w3.org/2000/svg"
   xmlns="http://www.w3.org/2000/svg"
   xmlns:sodipodi="http://sodipodi.sourceforge.net/DTD/sodipodi-0.dtd"
   xmlns:inkscape="http://www.inkscape.org/namespaces/inkscape"
   width="27.109375"
   height="13.867188"
   id="svg5697"
   version="1.1"
   inkscape:version="0.48.3.1 r9886"
   sodipodi:docname="New document 47">
  <defs
     id="defs5699">
    <clipPath
       clipPathUnits="userSpaceOnUse"
       id="clipPath3883">
      <path
         inkscape:connector-curvature="0"
         d="M 27.125,45 540,45 l 0,450.094 -512.875,0 0,-450.094 z"
         id="path3885" />
    </clipPath>
  </defs>
  <sodipodi:namedview
     id="base"
     pagecolor="#ffffff"
     bordercolor="#666666"
     borderopacity="1.0"
     inkscape:pageopacity="0.0"
     inkscape:pageshadow="2"
     inkscape:zoom="0.35"
     inkscape:cx="13.554375"
     inkscape:cy="6.9234349"
     inkscape:document-units="px"
     inkscape:current-layer="layer1"
     showgrid="false"
     fit-margin-top="0"
     fit-margin-left="0"
     fit-margin-right="0"
     fit-margin-bottom="0"
     inkscape:window-width="451"
     inkscape:window-height="398"
     inkscape:window-x="125"
     inkscape:window-y="125"
     inkscape:window-maximized="0" />
  <metadata
     id="metadata5702">
    <rdf:RDF>
      <cc:Work
         rdf:about="">
        <dc:format>image/svg+xml</dc:format>
        <dc:type
           rdf:resource="http://purl.org/dc/dcmitype/StillImage" />
        <dc:title></dc:title>
      </cc:Work>
    </rdf:RDF>
  </metadata>
  <g
     inkscape:label="Layer 1"
     inkscape:groupmode="layer"
     id="layer1"
     transform="translate(-361.44562,-525.41843)">
    <g
       transform="matrix(1.25,0,0,-1.25,-273.3205,771.99893)"
       id="g3879">
      <g
         id="g3881"
         clip-path="url(#clipPath3883)">
        <g
           id="g3887"
           transform="translate(529.2504,194.8894)">
          <path
             inkscape:connector-curvature="0"
             d="m 0,0 0,-6.357 c 0,-1.168 -0.952,-2.12 -2.12,-2.12 l -16.95,0 c -1.167,0 -2.118,0.952 -2.118,2.12 l 0,6.357 c 0,1.166 0.951,2.117 2.118,2.117 l 16.95,0 C -0.952,2.117 0,1.166 0,0"
             style="fill:#fccf34;fill-opacity:1;fill-rule:nonzero;stroke:none"
             id="path3889" />
        </g>
        <g
           id="g3891"
           transform="translate(529.2504,194.8894)">
          <path
             inkscape:connector-curvature="0"
             d="m 0,0 0,-6.357 c 0,-1.168 -0.952,-2.12 -2.12,-2.12 l -16.95,0 c -1.167,0 -2.118,0.952 -2.118,2.12 l 0,6.357 c 0,1.166 0.951,2.117 2.118,2.117 l 16.95,0 C -0.952,2.117 0,1.166 0,0 z"
             style="fill:none;stroke:#231f20;stroke-width:0.5;stroke-linecap:butt;stroke-linejoin:miter;stroke-miterlimit:2.61299992;stroke-opacity:1;stroke-dasharray:none"
             id="path3893" />
        </g>
      </g>
    </g>
  </g>
</svg>
