<?xml version="1.0" encoding="UTF-8" standalone="no"?>
<!-- Created with Inkscape (http://www.inkscape.org/) -->

<svg
   xmlns:dc="http://purl.org/dc/elements/1.1/"
   xmlns:cc="http://creativecommons.org/ns#"
   xmlns:rdf="http://www.w3.org/1999/02/22-rdf-syntax-ns#"
   xmlns:svg="http://www.w3.org/2000/svg"
   xmlns="http://www.w3.org/2000/svg"
   xmlns:sodipodi="http://sodipodi.sourceforge.net/DTD/sodipodi-0.dtd"
   xmlns:inkscape="http://www.inkscape.org/namespaces/inkscape"
   width="27.109375"
   height="80.117188"
   id="svg5916"
   version="1.1"
   inkscape:version="0.48.3.1 r9886"
   sodipodi:docname="New document 53">
  <defs
     id="defs5918">
    <clipPath
       clipPathUnits="userSpaceOnUse"
       id="clipPath3989">
      <path
         inkscape:connector-curvature="0"
         d="M 27.125,45 540,45 l 0,450.094 -512.875,0 0,-450.094 z"
         id="path3991" />
    </clipPath>
  </defs>
  <sodipodi:namedview
     id="base"
     pagecolor="#ffffff"
     bordercolor="#666666"
     borderopacity="1.0"
     inkscape:pageopacity="0.0"
     inkscape:pageshadow="2"
     inkscape:zoom="0.35"
     inkscape:cx="13.5525"
     inkscape:cy="40.055315"
     inkscape:document-units="px"
     inkscape:current-layer="layer1"
     showgrid="false"
     fit-margin-top="0"
     fit-margin-left="0"
     fit-margin-right="0"
     fit-margin-bottom="0"
     inkscape:window-width="451"
     inkscape:window-height="398"
     inkscape:window-x="75"
     inkscape:window-y="75"
     inkscape:window-maximized="0" />
  <metadata
     id="metadata5921">
    <rdf:RDF>
      <cc:Work
         rdf:about="">
        <dc:format>image/svg+xml</dc:format>
        <dc:type
           rdf:resource="http://purl.org/dc/dcmitype/StillImage" />
        <dc:title></dc:title>
      </cc:Work>
    </rdf:RDF>
  </metadata>
  <g
     inkscape:label="Layer 1"
     inkscape:groupmode="layer"
     id="layer1"
     transform="translate(-361.4475,-492.30031)">
    <g
       transform="matrix(1.25,0,0,-1.25,63.523875,648.02006)"
       id="g3985">
      <g
         id="g3987"
         clip-path="url(#clipPath3989)">
        <g
           id="g3993"
           transform="translate(259.7764,63.3883)">
          <path
             inkscape:connector-curvature="0"
             d="m 0,0 c 0,-0.732 -0.295,-1.394 -0.775,-1.873 -0.479,-0.48 -1.142,-0.775 -1.873,-0.775 l -7.947,0 -7.948,0 c -0.73,0 -1.392,0.295 -1.871,0.775 -0.481,0.479 -0.777,1.141 -0.777,1.873 l 0,29.137 0,29.138 c 0,0.731 0.296,1.395 0.777,1.873 0.479,0.479 1.141,0.776 1.871,0.776 l 7.948,0 7.947,0 c 0.731,0 1.394,-0.297 1.873,-0.776 C -0.295,59.67 0,59.006 0,58.275 L 0,29.137 0,0 z"
             style="fill:#fccf34;fill-opacity:1;fill-rule:nonzero;stroke:none"
             id="path3995" />
        </g>
        <g
           id="g3997"
           transform="translate(259.7764,63.3883)">
          <path
             inkscape:connector-curvature="0"
             d="m 0,0 c 0,-0.732 -0.295,-1.394 -0.775,-1.873 -0.479,-0.48 -1.142,-0.775 -1.873,-0.775 l -7.947,0 -7.948,0 c -0.73,0 -1.392,0.295 -1.871,0.775 -0.481,0.479 -0.777,1.141 -0.777,1.873 l 0,29.137 0,29.138 c 0,0.731 0.296,1.395 0.777,1.873 0.479,0.479 1.141,0.776 1.871,0.776 l 7.948,0 7.947,0 c 0.731,0 1.394,-0.297 1.873,-0.776 C -0.295,59.67 0,59.006 0,58.275 L 0,29.137 0,0 z"
             style="fill:none;stroke:#231f20;stroke-width:0.5;stroke-linecap:butt;stroke-linejoin:miter;stroke-miterlimit:4;stroke-opacity:1;stroke-dasharray:none"
             id="path3999" />
        </g>
        <g
           id="g4001"
           transform="translate(241.2334,124.3124)">
          <path
             inkscape:connector-curvature="0"
             d="m 0,0 c -0.73,0 -1.392,-0.297 -1.872,-0.776 -0.48,-0.478 -0.776,-1.142 -0.776,-1.873 l 0,-6.019 L 6.019,0 0,0 z"
             style="fill:#231f20;fill-opacity:1;fill-rule:nonzero;stroke:none"
             id="path4003" />
        </g>
        <g
           id="g4005"
           transform="translate(259.0014,123.5363)">
          <path
             inkscape:connector-curvature="0"
             d="m 0,0 c -0.479,0.479 -1.142,0.776 -1.873,0.776 l -2.383,0 -16.16,-16.16 0,-7.491 L 0.77,-1.691 C 0.725,-1.033 0.439,-0.439 0,0"
             style="fill:#231f20;fill-opacity:1;fill-rule:nonzero;stroke:none"
             id="path4007" />
        </g>
        <g
           id="g4009"
           transform="translate(259.7764,114.3594)">
          <path
             inkscape:connector-curvature="0"
             d="m 0,0 -21.191,-21.192 0,-0.642 0,-6.85 L 0,-7.492 0,0 z"
             style="fill:#231f20;fill-opacity:1;fill-rule:nonzero;stroke:none"
             id="path4011" />
        </g>
        <g
           id="g4013"
           transform="translate(259.7764,92.5254)">
          <path
             inkscape:connector-curvature="0"
             d="m 0,0 0,6.849 -21.191,-21.189 0,-7.492 L 0,-0.643 0,0 z"
             style="fill:#231f20;fill-opacity:1;fill-rule:nonzero;stroke:none"
             id="path4015" />
        </g>
        <g
           id="g4017"
           transform="translate(259.7764,84.3904)">
          <path
             inkscape:connector-curvature="0"
             d="m 0,0 -21.184,-21.184 c 0.044,-0.66 0.329,-1.252 0.769,-1.691 0.48,-0.48 1.142,-0.775 1.872,-0.775 l 2.384,0 L 0,-7.492 0,0 z"
             style="fill:#231f20;fill-opacity:1;fill-rule:nonzero;stroke:none"
             id="path4019" />
        </g>
        <g
           id="g4021"
           transform="translate(259.0014,61.5154)">
          <path
             inkscape:connector-curvature="0"
             d="m 0,0 c 0.48,0.479 0.775,1.141 0.775,1.873 l 0,6.018 -8.667,-8.666 6.019,0 C -1.142,-0.775 -0.479,-0.48 0,0"
             style="fill:#231f20;fill-opacity:1;fill-rule:nonzero;stroke:none"
             id="path4023" />
        </g>
      </g>
    </g>
  </g>
</svg>
