<?xml version="1.0" encoding="UTF-8" standalone="no"?>
<!-- Created with Inkscape (http://www.inkscape.org/) -->

<svg
   xmlns:dc="http://purl.org/dc/elements/1.1/"
   xmlns:cc="http://creativecommons.org/ns#"
   xmlns:rdf="http://www.w3.org/1999/02/22-rdf-syntax-ns#"
   xmlns:svg="http://www.w3.org/2000/svg"
   xmlns="http://www.w3.org/2000/svg"
   xmlns:sodipodi="http://sodipodi.sourceforge.net/DTD/sodipodi-0.dtd"
   xmlns:inkscape="http://www.inkscape.org/namespaces/inkscape"
   width="744.09448819"
   height="1052.3622047"
   id="svg5833"
   version="1.1"
   inkscape:version="0.48.3.1 r9886"
   sodipodi:docname="New document 51">
  <defs
     id="defs5835">
    <clipPath
       clipPathUnits="userSpaceOnUse"
       id="clipPath4033">
      <path
         inkscape:connector-curvature="0"
         d="M 27.125,45 540,45 l 0,450.094 -512.875,0 0,-450.094 z"
         id="path4035" />
    </clipPath>
  </defs>
  <sodipodi:namedview
     id="base"
     pagecolor="#ffffff"
     bordercolor="#666666"
     borderopacity="1.0"
     inkscape:pageopacity="0.0"
     inkscape:pageshadow="2"
     inkscape:zoom="0.35"
     inkscape:cx="375"
     inkscape:cy="520"
     inkscape:document-units="px"
     inkscape:current-layer="layer1"
     showgrid="false"
     inkscape:window-width="451"
     inkscape:window-height="398"
     inkscape:window-x="199"
     inkscape:window-y="168"
     inkscape:window-maximized="0" />
  <metadata
     id="metadata5838">
    <rdf:RDF>
      <cc:Work
         rdf:about="">
        <dc:format>image/svg+xml</dc:format>
        <dc:type
           rdf:resource="http://purl.org/dc/dcmitype/StillImage" />
        <dc:title></dc:title>
      </cc:Work>
    </rdf:RDF>
  </metadata>
  <g
     inkscape:label="Layer 1"
     inkscape:groupmode="layer"
     id="layer1">
    <g
       transform="matrix(1.25,0,0,-1.25,71.163343,610.87732)"
       id="g4029">
      <g
         id="g4031"
         clip-path="url(#clipPath4033)">
        <g
           id="g4037"
           transform="translate(157.0934,121.6634)">
          <path
             inkscape:connector-curvature="0"
             d="m 0,0 c 0,0.731 -0.296,1.395 -0.776,1.873 -0.479,0.479 -1.141,0.776 -1.873,0.776 l -7.947,0 -7.946,0 c -0.731,0 -1.394,-0.297 -1.874,-0.776 C -20.894,1.395 -21.191,0.731 -21.191,0 l 0,-29.138 0,-29.137 c 0,-0.732 0.297,-1.394 0.775,-1.873 0.48,-0.48 1.143,-0.775 1.874,-0.775 l 7.946,0 7.947,0 c 0.732,0 1.394,0.295 1.873,0.775 0.48,0.479 0.776,1.141 0.776,1.873 L 0,-29.138 0,0 z"
             style="fill:#fccf34;fill-opacity:1;fill-rule:nonzero;stroke:none"
             id="path4039" />
        </g>
        <g
           id="g4041"
           transform="translate(157.0934,121.6634)">
          <path
             inkscape:connector-curvature="0"
             d="m 0,0 c 0,0.731 -0.296,1.395 -0.776,1.873 -0.479,0.479 -1.141,0.776 -1.873,0.776 l -7.947,0 -7.946,0 c -0.731,0 -1.394,-0.297 -1.874,-0.776 C -20.894,1.395 -21.191,0.731 -21.191,0 l 0,-29.138 0,-29.137 c 0,-0.732 0.297,-1.394 0.775,-1.873 0.48,-0.48 1.143,-0.775 1.874,-0.775 l 7.946,0 7.947,0 c 0.732,0 1.394,0.295 1.873,0.775 0.48,0.479 0.776,1.141 0.776,1.873 L 0,-29.138 0,0 z"
             style="fill:none;stroke:#231f20;stroke-width:0.5;stroke-linecap:butt;stroke-linejoin:miter;stroke-miterlimit:4;stroke-opacity:1;stroke-dasharray:none"
             id="path4043" />
        </g>
        <g
           id="g4045"
           transform="translate(156.3174,61.5154)">
          <path
             inkscape:connector-curvature="0"
             d="M 0,0 C 0.44,0.439 0.725,1.031 0.77,1.691 L -9.82,12.281 -20.408,1.691 c 0.044,-0.66 0.33,-1.252 0.768,-1.691 0.48,-0.48 1.143,-0.775 1.874,-0.775 l 2.383,0 5.563,5.562 5.565,-5.562 2.382,0 C -1.141,-0.775 -0.479,-0.48 0,0"
             style="fill:#231f20;fill-opacity:1;fill-rule:nonzero;stroke:none"
             id="path4047" />
        </g>
        <g
           id="g4049"
           transform="translate(146.4974,81.2864)">
          <path
             inkscape:connector-curvature="0"
             d="m 0,0 10.596,-10.595 0,7.494 L 0,7.493 -10.595,-3.101 l 0,-7.494 L 0,0 z"
             style="fill:#231f20;fill-opacity:1;fill-rule:nonzero;stroke:none"
             id="path4051" />
        </g>
        <g
           id="g4053"
           transform="translate(146.4974,96.2714)">
          <path
             inkscape:connector-curvature="0"
             d="m 0,0 10.596,-10.596 0,7.492 L 0,7.492 -10.595,-3.104 l 0,-7.492 L 0,0 z"
             style="fill:#231f20;fill-opacity:1;fill-rule:nonzero;stroke:none"
             id="path4055" />
        </g>
        <g
           id="g4057"
           transform="translate(146.4974,111.2554)">
          <path
             inkscape:connector-curvature="0"
             d="m 0,0 10.596,-10.594 0,7.491 L 0,7.492 -10.595,-3.103 l 0,-7.491 L 0,0 z"
             style="fill:#231f20;fill-opacity:1;fill-rule:nonzero;stroke:none"
             id="path4059" />
        </g>
        <g
           id="g4061"
           transform="translate(157.0934,115.6443)">
          <path
             inkscape:connector-curvature="0"
             d="M 0,0 0,6.019 C 0,6.75 -0.296,7.414 -0.776,7.892 -1.255,8.371 -1.917,8.668 -2.649,8.668 l -6.018,0 L 0,0 z"
             style="fill:#231f20;fill-opacity:1;fill-rule:nonzero;stroke:none"
             id="path4063" />
        </g>
        <g
           id="g4065"
           transform="translate(144.5704,124.3124)">
          <path
             inkscape:connector-curvature="0"
             d="M 0,0 -6.019,0 C -6.75,0 -7.413,-0.297 -7.893,-0.776 -8.371,-1.254 -8.668,-1.918 -8.668,-2.649 l 0,-6.019 L 0,0 z"
             style="fill:#231f20;fill-opacity:1;fill-rule:nonzero;stroke:none"
             id="path4067" />
        </g>
      </g>
    </g>
  </g>
</svg>
