<?xml version="1.0" encoding="UTF-8" standalone="no"?>
<!-- Created with Inkscape (http://www.inkscape.org/) -->

<svg
   xmlns:dc="http://purl.org/dc/elements/1.1/"
   xmlns:cc="http://creativecommons.org/ns#"
   xmlns:rdf="http://www.w3.org/1999/02/22-rdf-syntax-ns#"
   xmlns:svg="http://www.w3.org/2000/svg"
   xmlns="http://www.w3.org/2000/svg"
   xmlns:sodipodi="http://sodipodi.sourceforge.net/DTD/sodipodi-0.dtd"
   xmlns:inkscape="http://www.inkscape.org/namespaces/inkscape"
   width="27.270552"
   height="56.232594"
   id="svg4649"
   version="1.1"
   inkscape:version="0.48.3.1 r9886"
   sodipodi:docname="New document 18">
  <defs
     id="defs4651">
    <clipPath
       clipPathUnits="userSpaceOnUse"
       id="clipPath3341">
      <path
         inkscape:connector-curvature="0"
         d="m 30.9,45.985 505.326,0 0,449.11 -505.326,0 0,-449.11 z"
         id="path3343" />
    </clipPath>
    <clipPath
       clipPathUnits="userSpaceOnUse"
       id="clipPath3329">
      <path
         inkscape:connector-curvature="0"
         d="M 27.125,45 540,45 l 0,450.094 -512.875,0 0,-450.094 z"
         id="path3331" />
    </clipPath>
  </defs>
  <sodipodi:namedview
     id="base"
     pagecolor="#ffffff"
     bordercolor="#666666"
     borderopacity="1.0"
     inkscape:pageopacity="0.0"
     inkscape:pageshadow="2"
     inkscape:zoom="0.35"
     inkscape:cx="-222.79128"
     inkscape:cy="228.11615"
     inkscape:document-units="px"
     inkscape:current-layer="layer1"
     showgrid="false"
     fit-margin-top="0"
     fit-margin-left="0"
     fit-margin-right="0"
     fit-margin-bottom="0"
     inkscape:window-width="451"
     inkscape:window-height="398"
     inkscape:window-x="25"
     inkscape:window-y="25"
     inkscape:window-maximized="0" />
  <metadata
     id="metadata4654">
    <rdf:RDF>
      <cc:Work
         rdf:about="">
        <dc:format>image/svg+xml</dc:format>
        <dc:type
           rdf:resource="http://purl.org/dc/dcmitype/StillImage" />
        <dc:title></dc:title>
      </cc:Work>
    </rdf:RDF>
  </metadata>
  <g
     inkscape:label="Layer 1"
     inkscape:groupmode="layer"
     id="layer1"
     transform="translate(-597.79128,-704.24574)">
    <text
       style="font-size:15px"
       y="760.341"
       x="598.67822"
       id="text3321">
      <tspan
         style="font-size:11.25px;font-variant:normal;font-weight:normal;font-stretch:normal;writing-mode:lr-tb;fill:#231f20;fill-opacity:1;fill-rule:nonzero;stroke:none;font-family:Helvetica;-inkscape-font-specification:Helvetica"
         x="598.67822 609.29822 615.55322 619.2995"
         y="760.341"
         sodipodi:role="line"
         id="tspan3323">W1-8</tspan>
    </text>
    <g
       transform="matrix(1.25,0,0,-1.25,559.15359,1107.9903)"
       id="g3325">
      <g
         id="g3327"
         clip-path="url(#clipPath3329)">
        <g
           id="g3333"
           transform="translate(33.5664,290.9644)">
          <path
             inkscape:connector-curvature="0"
             d="m 0,0 16.379,0 c 1.31,0.002 2.405,1.092 2.405,2.404 l 0,26.975 c -0.002,1.31 -1.096,2.402 -2.405,2.402 L 0,31.781 c -1.309,0 -2.403,-1.094 -2.403,-2.402 l 0,-26.975 C -2.402,1.003 -1.307,0.13 0,0"
             style="fill:#fccf34;fill-opacity:1;fill-rule:nonzero;stroke:none"
             id="path3335" />
        </g>
      </g>
    </g>
    <g
       transform="matrix(1.25,0,0,-1.25,559.15359,1107.9903)"
       clip-path="url(#clipPath3341)"
       id="g3339">
      <g
         transform="translate(33.5664,290.9644)"
         id="g3345">
        <path
           inkscape:connector-curvature="0"
           id="path3347"
           style="fill:none;stroke:#231f20;stroke-width:0.5;stroke-linecap:butt;stroke-linejoin:miter;stroke-miterlimit:4;stroke-opacity:1;stroke-dasharray:none"
           d="m 0,0 16.379,0 c 1.31,0.002 2.405,1.092 2.405,2.404 l 0,26.975 c -0.002,1.31 -1.096,2.402 -2.405,2.402 L 0,31.781 c -1.309,0 -2.403,-1.094 -2.403,-2.402 l 0,-26.975 C -2.402,1.003 -1.307,0.13 0,0" />
      </g>
    </g>
    <g
       id="g3357"
       transform="matrix(1.25,0,0,-1.25,611.34722,705.98602)">
      <path
         d="M 0,0 -9.72,-14.778 0,-29.492 9.724,-29.496 0.004,-14.775 9.664,0 0,0 z"
         style="fill:#231f20;fill-opacity:1;fill-rule:evenodd;stroke:none"
         id="path3359"
         inkscape:connector-curvature="0" />
    </g>
  </g>
</svg>
