<?xml version="1.0" encoding="UTF-8" standalone="no"?>
<!-- Created with Inkscape (http://www.inkscape.org/) -->

<svg
   xmlns:dc="http://purl.org/dc/elements/1.1/"
   xmlns:cc="http://creativecommons.org/ns#"
   xmlns:rdf="http://www.w3.org/1999/02/22-rdf-syntax-ns#"
   xmlns:svg="http://www.w3.org/2000/svg"
   xmlns="http://www.w3.org/2000/svg"
   xmlns:sodipodi="http://sodipodi.sourceforge.net/DTD/sodipodi-0.dtd"
   xmlns:inkscape="http://www.inkscape.org/namespaces/inkscape"
   width="71.897736"
   height="71.885345"
   id="svg5821"
   version="1.1"
   inkscape:version="0.48.3.1 r9886"
   sodipodi:docname="New document 27">
  <defs
     id="defs5823">
    <clipPath
       clipPathUnits="userSpaceOnUse"
       id="clipPath3141">
      <path
         inkscape:connector-curvature="0"
         d="m 27,45 513.125,0 0,693.25 L 27,738.25 27,45 z"
         id="path3143" />
    </clipPath>
    <clipPath
       clipPathUnits="userSpaceOnUse"
       id="clipPath3125">
      <path
         inkscape:connector-curvature="0"
         d="m 31.275,147.705 504.574,0 0,590.544 -504.574,0 0,-590.544 z"
         id="path3127" />
    </clipPath>
  </defs>
  <sodipodi:namedview
     id="base"
     pagecolor="#ffffff"
     bordercolor="#666666"
     borderopacity="1.0"
     inkscape:pageopacity="0.0"
     inkscape:pageshadow="2"
     inkscape:zoom="0.35"
     inkscape:cx="42.370533"
     inkscape:cy="-15.491045"
     inkscape:document-units="px"
     inkscape:current-layer="layer1"
     showgrid="false"
     fit-margin-top="0"
     fit-margin-left="0"
     fit-margin-right="0"
     fit-margin-bottom="0"
     inkscape:window-width="451"
     inkscape:window-height="415"
     inkscape:window-x="175"
     inkscape:window-y="175"
     inkscape:window-maximized="0" />
  <metadata
     id="metadata5826">
    <rdf:RDF>
      <cc:Work
         rdf:about="">
        <dc:format>image/svg+xml</dc:format>
        <dc:type
           rdf:resource="http://purl.org/dc/dcmitype/StillImage" />
        <dc:title></dc:title>
      </cc:Work>
    </rdf:RDF>
  </metadata>
  <g
     inkscape:label="Layer 1"
     inkscape:groupmode="layer"
     id="layer1"
     transform="translate(-332.62947,-444.98579)">
    <g
       transform="matrix(1.25,0,0,-1.25,-265.22801,1200.7877)"
       id="g3121">
      <g
         id="g3123"
         clip-path="url(#clipPath3125)">
        <g
           id="g3129"
           transform="translate(504.5443,548.4145)">
          <path
             inkscape:connector-curvature="0"
             d="m 0,0 -24.977,24.971 c -1.373,1.374 -1.373,3.622 0,4.995 L 0,54.939 c 1.373,1.373 3.621,1.373 4.996,0 l 24.97,-24.973 c 1.375,-1.374 1.375,-3.622 0,-4.995 L 4.996,-0.002 C 3.621,-1.375 1.373,-1.374 0,0"
             style="fill:#fccf34;fill-opacity:1;fill-rule:nonzero;stroke:none"
             id="path3131" />
        </g>
        <g
           id="g3133"
           transform="translate(504.5443,548.4145)">
          <path
             inkscape:connector-curvature="0"
             d="m 0,0 -24.977,24.971 c -1.373,1.374 -1.373,3.622 0,4.995 L 0,54.939 c 1.373,1.373 3.621,1.373 4.996,0 l 24.97,-24.973 c 1.375,-1.374 1.375,-3.622 0,-4.995 L 4.996,-0.002 C 3.621,-1.375 1.373,-1.374 0,0 z"
             style="fill:none;stroke:#231f20;stroke-width:0.5;stroke-linecap:butt;stroke-linejoin:miter;stroke-miterlimit:4;stroke-opacity:1;stroke-dasharray:none"
             id="path3135" />
        </g>
      </g>
    </g>
    <g
       transform="matrix(1.25,0,0,-1.25,-265.22801,1200.7877)"
       id="g3137">
      <g
         id="g3139"
         clip-path="url(#clipPath3141)">
        <g
           id="g3145"
           transform="translate(505.0593,549.1965)">
          <path
             inkscape:connector-curvature="0"
             d="m 0,0 -24.709,24.704 c -1.09,1.092 -1.09,2.875 0,3.965 L 0,53.374 c 1.09,1.09 2.873,1.09 3.963,0 L 28.668,28.67 c 1.09,-1.092 1.09,-2.875 0,-3.966 L 3.963,-0.001 C 2.873,-1.091 1.09,-1.09 0,0"
             style="fill:#231f20;fill-opacity:1;fill-rule:evenodd;stroke:none"
             id="path3147" />
        </g>
        <g
           id="g3149"
           transform="translate(506.0513,550.2035)">
          <path
             inkscape:connector-curvature="0"
             d="m 0,0 -24.693,24.69 c -0.545,0.544 -0.545,1.437 0,1.98 L 0,51.359 c 0.545,0.545 1.436,0.545 1.981,0 L 26.67,26.67 c 0.545,-0.543 0.545,-1.436 0,-1.981 L 1.981,0 C 1.436,-0.545 0.545,-0.545 0,0"
             style="fill:#fccf34;fill-opacity:1;fill-rule:evenodd;stroke:none"
             id="path3151" />
        </g>
        <g
           id="g3153"
           transform="translate(496.8623,572.4985)">
          <path
             inkscape:connector-curvature="0"
             d="m 0,0 c -0.127,-0.03 -0.668,0.95 -1.344,1.519 -0.306,0.258 -0.254,0.262 -0.271,0.782 -0.037,1.202 0.205,1.185 -0.534,2.481 -0.066,0.12 -0.345,0.579 -0.201,0.835 0.092,0.163 0.186,0.277 0.254,0.387 0.27,0.443 0.594,0.208 1.057,0.094 0.723,-0.177 1.746,-0.481 2.42,-0.727 0.197,0.948 0.388,1.789 0.851,2.498 0.813,1.248 0.621,0.904 0.539,2.419 -0.033,0.625 0,1.216 0.1,1.837 -0.164,0.402 -0.686,0.523 -1.076,0.534 -0.131,0.004 -0.451,0.23 -0.561,0.34 -0.113,0.114 -0.441,0.05 -0.527,0.234 -0.117,0.248 -0.096,0.431 0.031,0.578 0.069,0.078 0.162,0.148 0.274,0.211 0.111,0.063 0.242,0.121 0.379,0.173 0.459,0.172 1.013,0.286 1.33,0.388 0.865,0.238 1.07,0.217 2.002,0.29 0.468,0.035 0.609,0.162 0.839,0.339 0.178,0.14 0.377,0.356 0.332,0.612 -0.046,0.256 -0.375,0.345 -0.789,0.292 -0.683,-0.089 -1.539,-0.242 -2.048,0.383 -0.315,0.382 -0.268,0.614 -0.401,0.92 0.129,-0.231 0.449,-0.663 0.822,-0.885 0.321,-0.192 0.666,-0.269 0.926,-0.112 0.322,0.194 -0.398,0.63 -0.015,1.381 -0.112,-1.015 0.933,-1.367 1.375,-1.159 0.574,0.268 0.234,2.139 -0.592,2.541 0.918,-0.003 0.988,-0.989 1.23,-1.638 0.133,-0.359 0.485,-0.257 0.68,0.006 0.367,0.502 0.793,1.638 -0.359,2.507 0.919,-0.356 1.285,-1.016 1.029,-2.012 -0.42,-1.032 -1.42,-1.937 -1.551,-3.099 0.358,0.256 0.713,0.334 1.166,0.184 C 6.98,14.515 6.951,14.17 6.246,13.965 6.301,13.277 6.402,12.569 6.25,11.89 6.16,11.492 6.121,11.304 6.168,10.945 6.412,9.004 6.076,8.691 7.92,6.553 8.66,5.695 9.84,5.339 10.785,4.687 c 0.662,-0.456 0.805,-0.506 1.6,-0.628 1.33,-0.204 1.91,-0.263 3.039,-1.389 0.836,0.074 1.037,0.439 1.306,0.66 0.33,0.463 0.5,0.943 0.506,1.78 C 17.633,4.709 17.918,4.19 17.988,3.714 18.053,3.257 17.769,2.955 17.344,2.624 16.875,2.317 16.486,2.009 15.84,1.996 c 0.211,-0.621 0.297,-1.208 0.152,-1.813 -0.09,-1.421 -0.924,-2.579 0.246,-3.867 0.496,-0.629 1.369,-1.397 1.488,-1.889 0.12,-0.492 -0.167,-1.091 0.016,-3.023 0.205,-0.469 0.004,-0.647 0.906,-1.166 0.02,-0.441 0.041,-0.879 0.061,-1.32 -0.768,0.308 -0.916,0.712 -1.258,0.967 -0.846,0.628 -0.851,1.519 -0.93,3.407 -0.056,1.434 -3.97,3.585 -4.519,4.221 -0.615,0.712 -0.768,1.577 -1.342,2.025 C 8.611,1.132 5.305,0.527 2.594,2.286 2.252,2.425 1.846,2.5 1.504,2.637 0.705,3.17 0.158,3.953 -0.828,4.296 -0.627,3.482 -0.676,2.793 -0.598,2.041 -0.502,1.551 0.037,1.483 0.152,1.105 0.123,0.92 0.092,0.736 0.06,0.551 0.041,0.367 0.144,0.033 0,0"
             style="fill:#231f20;fill-opacity:1;fill-rule:evenodd;stroke:none"
             id="path3155" />
        </g>
      </g>
    </g>
  </g>
</svg>
