<?xml version="1.0" encoding="UTF-8" standalone="no"?>
<!-- Created with Inkscape (http://www.inkscape.org/) -->

<svg
   xmlns:dc="http://purl.org/dc/elements/1.1/"
   xmlns:cc="http://creativecommons.org/ns#"
   xmlns:rdf="http://www.w3.org/1999/02/22-rdf-syntax-ns#"
   xmlns:svg="http://www.w3.org/2000/svg"
   xmlns="http://www.w3.org/2000/svg"
   xmlns:sodipodi="http://sodipodi.sourceforge.net/DTD/sodipodi-0.dtd"
   xmlns:inkscape="http://www.inkscape.org/namespaces/inkscape"
   width="71.897827"
   height="71.885834"
   id="svg5983"
   version="1.1"
   inkscape:version="0.48.3.1 r9886"
   sodipodi:docname="New document 31">
  <defs
     id="defs5985">
    <clipPath
       clipPathUnits="userSpaceOnUse"
       id="clipPath3213">
      <path
         inkscape:connector-curvature="0"
         d="m 27,45 513.125,0 0,693.25 L 27,738.25 27,45 z"
         id="path3215" />
    </clipPath>
  </defs>
  <sodipodi:namedview
     id="base"
     pagecolor="#ffffff"
     bordercolor="#666666"
     borderopacity="1.0"
     inkscape:pageopacity="0.0"
     inkscape:pageshadow="2"
     inkscape:zoom="0.35"
     inkscape:cx="35.942674"
     inkscape:cy="35.937209"
     inkscape:document-units="px"
     inkscape:current-layer="layer1"
     showgrid="false"
     fit-margin-top="0"
     fit-margin-left="0"
     fit-margin-right="0"
     fit-margin-bottom="0"
     inkscape:window-width="451"
     inkscape:window-height="415"
     inkscape:window-x="75"
     inkscape:window-y="75"
     inkscape:window-maximized="0" />
  <metadata
     id="metadata5988">
    <rdf:RDF>
      <cc:Work
         rdf:about="">
        <dc:format>image/svg+xml</dc:format>
        <dc:type
           rdf:resource="http://purl.org/dc/dcmitype/StillImage" />
        <dc:title></dc:title>
      </cc:Work>
    </rdf:RDF>
  </metadata>
  <g
     inkscape:label="Layer 1"
     inkscape:groupmode="layer"
     id="layer1"
     transform="translate(-339.05733,-496.41355)">
    <g
       transform="matrix(1.25,0,0,-1.25,185.96369,1148.4322)"
       id="g3209">
      <g
         id="g3211"
         clip-path="url(#clipPath3213)">
        <g
           id="g3217"
           transform="translate(148.7333,465.3875)">
          <path
             inkscape:connector-curvature="0"
             d="m 0,0 -24.977,24.971 c -1.373,1.373 -1.373,3.622 0,4.995 L 0,54.938 c 1.373,1.373 3.621,1.374 4.996,0 L 29.967,29.966 c 1.375,-1.374 1.375,-3.622 0,-4.995 L 4.996,-0.002 C 3.621,-1.375 1.373,-1.374 0,0"
             style="fill:#fccf34;fill-opacity:1;fill-rule:nonzero;stroke:none"
             id="path3219" />
        </g>
        <g
           id="g3221"
           transform="translate(148.7333,465.3875)">
          <path
             inkscape:connector-curvature="0"
             d="m 0,0 -24.977,24.971 c -1.373,1.373 -1.373,3.622 0,4.995 L 0,54.938 c 1.373,1.373 3.621,1.374 4.996,0 L 29.967,29.966 c 1.375,-1.374 1.375,-3.622 0,-4.995 L 4.996,-0.002 C 3.621,-1.375 1.373,-1.374 0,0 z"
             style="fill:none;stroke:#231f20;stroke-width:0.5;stroke-linecap:butt;stroke-linejoin:miter;stroke-miterlimit:4;stroke-opacity:1;stroke-dasharray:none"
             id="path3223" />
        </g>
        <g
           id="g3225"
           transform="translate(149.2493,466.1695)">
          <path
             inkscape:connector-curvature="0"
             d="m 0,0 -24.709,24.704 c -1.09,1.091 -1.09,2.874 0,3.965 L 0,53.374 c 1.089,1.089 2.873,1.09 3.963,0 L 28.668,28.67 c 1.089,-1.092 1.089,-2.875 0,-3.966 L 3.963,-0.001 C 2.873,-1.091 1.089,-1.09 0,0"
             style="fill:#231f20;fill-opacity:1;fill-rule:evenodd;stroke:none"
             id="path3227" />
        </g>
        <g
           id="g3229"
           transform="translate(150.2413,467.1765)">
          <path
             inkscape:connector-curvature="0"
             d="m 0,0 -24.693,24.69 c -0.545,0.543 -0.545,1.437 0,1.979 L 0,51.359 c 0.545,0.545 1.435,0.545 1.98,0 L 26.67,26.67 c 0.545,-0.543 0.545,-1.436 0,-1.981 L 1.98,0 C 1.435,-0.545 0.545,-0.545 0,0"
             style="fill:#fccf34;fill-opacity:1;fill-rule:evenodd;stroke:none"
             id="path3231" />
        </g>
        <g
           id="g3233"
           transform="translate(155.8813,482.4215)">
          <path
             inkscape:connector-curvature="0"
             d="m 0,0 c -0.404,0.073 -0.431,-0.039 -0.742,-0.293 -0.164,-0.133 -0.281,-0.037 -0.482,0.021 -0.211,0.061 -0.358,0.036 -0.414,0.248 C -1.748,0.393 -1.72,0.503 -2.107,0.693 -2.267,0.701 -2.562,0.482 -2.709,0.416 -2.814,0.365 -3.111,0.613 -3.207,0.668 -3.585,0.89 -3.209,1.745 -3.757,1.64 -4.4,1.517 -4.406,1.594 -4.875,2.05 c -0.078,0.077 0.088,0.491 0.114,0.593 0.103,0.425 -0.324,0.396 -0.608,0.41 -0.234,0.012 -0.832,0.429 -0.683,0.715 0.066,0.13 0.332,0.466 0.316,0.607 -0.164,0.342 -0.398,0.322 -0.758,0.422 -0.25,0.07 -0.031,0.539 -0.377,0.539 l -1.464,0 -3.225,0 c -0.617,0 -0.967,1.027 -1.637,1.027 -0.357,0 -2.814,0.115 -2.814,-0.103 0,-0.195 0.722,-0.522 0.908,-0.68 0.324,-0.281 0.598,-0.623 0.803,-1 0.42,-0.773 0.539,-1.693 0.33,-2.547 -0.424,-1.734 -2.133,-2.916 -3.905,-2.702 -1.767,0.214 -3.142,1.768 -3.142,3.548 0,1.826 1.443,3.404 3.262,3.561 -0.737,1.743 -1.473,3.488 -2.211,5.234 -0.387,0.914 -0.772,1.828 -1.159,2.742 -0.259,0.617 0.545,1.09 0.95,1.549 0.103,0.116 0.836,0.014 0.984,0.014 l 1.885,0 c 0.367,0 0.332,-0.034 0.332,0.333 l 0,1.848 c 0,0.147 -0.094,0.827 0.078,0.827 0.129,0 1.346,0.011 1.346,-0.011 l 0,-2.908 c 0,-0.185 5.439,-0.089 5.978,-0.089 0.656,0 1.551,0.165 2.18,-0.053 0.469,-0.162 0.654,0.358 0.951,0.717 0.322,0.39 0.645,0.779 0.967,1.167 -0.324,0.266 -2.078,1.202 -1.168,1.707 0.537,0.295 0.848,-0.812 1.332,-0.452 0.629,0.468 1.719,0.277 2.459,0.327 0.379,0.025 1.041,-0.058 1.322,0.27 0.246,0.287 0.221,0.936 0.283,1.295 0.18,1.023 0.627,1.516 1.252,2.291 0.401,0.496 -0.144,0.642 -0.433,0.966 -0.321,0.356 -0.483,0.817 -0.614,1.268 -0.058,0.201 -0.111,0.405 -0.168,0.608 -0.089,0.318 -0.209,0.16 -0.478,0.09 -0.121,-0.032 -0.787,-0.196 -0.834,0.048 -0.082,0.431 1.049,0.655 1.277,0.829 0.575,0.439 0.557,2.187 1.522,2.005 0.51,-0.095 1.316,-0.372 1.527,-0.864 0.217,-0.501 0.434,-1.005 0.651,-1.508 0.357,-0.828 1.011,0.513 1.416,0.219 C 4.143,26.713 3.592,26.148 3.459,26.041 3.143,25.784 2.745,25.662 2.346,25.625 1.342,25.531 2.682,23.823 2.87,23.511 3.516,22.428 3.248,21.67 3.032,20.473 2.924,19.883 2.784,19.297 2.866,18.691 2.954,18.065 3.29,17.474 3.407,16.844 c 0.013,-0.083 0.027,-0.168 0.041,-0.25 0.47,0.088 0.877,0.456 1.363,0.463 0,-0.465 0.166,-0.812 -0.309,-0.954 -0.279,-0.085 -0.468,-0.619 -0.703,-0.853 0.364,-0.119 0.371,-0.115 0.699,0.058 0.17,0.09 0.28,0.218 0.454,0.129 0.138,-0.07 0.5,-0.173 0.586,-0.3 0.121,-0.173 -0.059,-0.545 0.046,-0.729 0.375,-0.236 0.373,-0.257 0.784,-0.146 0.259,0.069 0.25,0.082 0.453,-0.088 0.08,-0.069 0.42,-0.273 0.402,-0.383 -0.06,-0.354 -0.182,-0.562 0.059,-0.836 0.23,-0.262 0.379,-0.19 0.722,-0.187 0.209,0.003 0.243,-0.145 0.364,-0.315 0.123,-0.176 0.255,-0.25 0.17,-0.447 C 8.342,11.57 8.293,11.543 8.5,11.103 8.635,10.994 8.981,10.974 9.149,10.928 9.264,10.898 9.331,10.519 9.368,10.417 9.459,10.166 9.452,10.183 9.28,9.976 9.151,9.82 8.809,9.441 9.139,9.256 9.731,8.925 9.75,8.926 9.815,8.256 9.85,7.902 8.801,7.713 9.325,7.232 9.797,6.799 9.791,6.792 9.706,6.151 9.663,5.84 8.538,5.799 8.877,5.262 9.239,4.695 9.25,4.689 8.993,4.072 8.844,3.719 7.819,4.094 8.057,3.385 8.264,2.764 8.19,2.748 7.799,2.222 7.608,1.965 6.733,2.635 6.788,1.89 6.831,1.269 6.799,1.276 6.315,0.887 6.094,0.709 5.329,1.357 5.239,0.862 5.133,0.269 5.17,0.214 4.631,-0.033 4.385,-0.146 4.405,-0.133 4.176,0.025 3.848,0.253 3.85,0.267 3.456,0.159 3.043,-0.178 3.385,-0.453 2.778,-0.568 2.565,-0.608 2.444,-0.697 2.299,-0.533 2.112,-0.32 2.022,-0.1 1.731,-0.113 1.301,-0.131 1.346,-0.676 0.885,-0.658 0.268,-0.637 0.299,-0.547 0,0"
             style="fill:#231f20;fill-opacity:1;fill-rule:evenodd;stroke:none"
             id="path3235" />
        </g>
      </g>
    </g>
  </g>
</svg>
