<?xml version="1.0" encoding="UTF-8" standalone="no"?>
<!-- Created with Inkscape (http://www.inkscape.org/) -->

<svg
   xmlns:dc="http://purl.org/dc/elements/1.1/"
   xmlns:cc="http://creativecommons.org/ns#"
   xmlns:rdf="http://www.w3.org/1999/02/22-rdf-syntax-ns#"
   xmlns:svg="http://www.w3.org/2000/svg"
   xmlns="http://www.w3.org/2000/svg"
   xmlns:sodipodi="http://sodipodi.sourceforge.net/DTD/sodipodi-0.dtd"
   xmlns:inkscape="http://www.inkscape.org/namespaces/inkscape"
   width="72.020561"
   height="72.005936"
   id="svg6192"
   version="1.1"
   inkscape:version="0.48.3.1 r9886"
   sodipodi:docname="New document 37">
  <defs
     id="defs6194" />
  <sodipodi:namedview
     id="base"
     pagecolor="#ffffff"
     bordercolor="#666666"
     borderopacity="1.0"
     inkscape:pageopacity="0.0"
     inkscape:pageshadow="2"
     inkscape:zoom="0.35"
     inkscape:cx="111.01233"
     inkscape:cy="124.5819"
     inkscape:document-units="px"
     inkscape:current-layer="layer1"
     showgrid="false"
     fit-margin-top="0"
     fit-margin-left="0"
     fit-margin-right="0"
     fit-margin-bottom="0"
     inkscape:window-width="451"
     inkscape:window-height="415"
     inkscape:window-x="25"
     inkscape:window-y="25"
     inkscape:window-maximized="0" />
  <metadata
     id="metadata6197">
    <rdf:RDF>
      <cc:Work
         rdf:about="">
        <dc:format>image/svg+xml</dc:format>
        <dc:type
           rdf:resource="http://purl.org/dc/dcmitype/StillImage" />
        <dc:title></dc:title>
      </cc:Work>
    </rdf:RDF>
  </metadata>
  <g
     inkscape:label="Layer 1"
     inkscape:groupmode="layer"
     id="layer1"
     transform="translate(-263.98767,-584.93815)">
    <g
       id="g4221"
       transform="matrix(1.25,0,0,-1.25,265.33047,618.46752)">
      <path
         d="m 0,0 25.763,25.764 c 1.085,1.085 2.86,1.085 3.946,0 L 55.472,0 c 1.085,-1.086 1.085,-2.86 0,-3.945 L 29.709,-29.709 c -1.086,-1.086 -2.861,-1.086 -3.946,0 L 0,-3.945 C -1.086,-2.86 -1.086,-1.086 0,0"
         style="fill:#fccf34;fill-opacity:1;fill-rule:evenodd;stroke:none"
         id="path4223"
         inkscape:connector-curvature="0" />
    </g>
    <g
       id="g4225"
       transform="matrix(1.25,0,0,-1.25,265.33047,618.46752)">
      <path
         d="m 0,0 25.763,25.764 c 1.085,1.085 2.86,1.085 3.946,0 L 55.472,0 c 1.085,-1.086 1.085,-2.86 0,-3.945 L 29.709,-29.709 c -1.086,-1.086 -2.861,-1.086 -3.946,0 L 0,-3.945 C -1.086,-2.86 -1.086,-1.086 0,0 z"
         style="fill:none;stroke:#231f20;stroke-width:0.5;stroke-linecap:butt;stroke-linejoin:miter;stroke-miterlimit:10;stroke-opacity:1;stroke-dasharray:none"
         id="path4227"
         inkscape:connector-curvature="0" />
    </g>
    <g
       id="g4229"
       transform="matrix(1.25,0,0,-1.25,266.26797,618.76752)">
      <path
         d="m 0,0 25.254,25.254 c 0.953,0.953 2.511,0.953 3.464,0 L 53.972,0 c 0.954,-0.953 0.954,-2.512 0,-3.465 L 28.718,-28.721 c -0.953,-0.951 -2.511,-0.951 -3.464,0 L 0,-3.465 C -0.953,-2.512 -0.953,-0.953 0,0"
         style="fill:#231f20;fill-opacity:1;fill-rule:evenodd;stroke:none"
         id="path4231"
         inkscape:connector-curvature="0" />
    </g>
    <g
       id="g4233"
       transform="matrix(1.25,0,0,-1.25,267.40548,619.48627)">
      <path
         d="m 0,0 24.918,24.918 c 0.637,0.637 1.68,0.637 2.316,0 L 52.152,0 c 0.637,-0.636 0.637,-1.679 0,-2.316 L 27.234,-27.233 c -0.636,-0.637 -1.679,-0.637 -2.316,0 L 0,-2.316 C -0.637,-1.679 -0.637,-0.636 0,0"
         style="fill:#fccf34;fill-opacity:1;fill-rule:evenodd;stroke:none"
         id="path4235"
         inkscape:connector-curvature="0" />
    </g>
    <g
       id="g4237"
       transform="matrix(1.25,0,0,-1.25,299.03923,597.58378)">
      <path
         d="m 0,0 c 0.865,0 1.569,-0.704 1.569,-1.569 0,-0.865 -0.704,-1.57 -1.569,-1.57 -0.865,0 -1.57,0.705 -1.57,1.57 C -1.57,-0.704 -0.865,0 0,0"
         style="fill:#231f20;fill-opacity:1;fill-rule:evenodd;stroke:none"
         id="path4239"
         inkscape:connector-curvature="0" />
    </g>
    <g
       id="g4241"
       transform="matrix(1.25,0,0,-1.25,293.44797,609.96878)">
      <path
         d="m 0,0 c 1.144,0.881 2.29,1.763 3.434,2.644 0.117,0.08 0.19,0.226 0.22,0.437 0.227,1.153 0.453,2.308 0.681,3.462 0.561,0.009 1.091,0.23 1.608,0.546 1.654,-2.105 1.817,-4.992 1.718,-8.017 1.645,-1.047 3.655,-0.73 5.616,-0.599 3.894,-0.105 5.675,-1.759 5.344,-4.962 -0.068,-1.675 0.249,-3.175 0.955,-4.499 -0.943,0.005 -1.843,0.429 -2.644,1.773 -0.083,-0.128 -0.165,-0.256 -0.247,-0.382 0.457,-1.024 1.01,-1.808 1.61,-2.481 0.09,-0.237 0.18,-0.473 0.272,-0.709 0.019,-1.932 0.372,-3.655 0.954,-5.235 0.237,-0.136 0.473,-0.273 0.709,-0.41 -0.091,-0.535 -0.181,-1.071 -0.273,-1.607 -0.445,0.314 -0.891,0.638 -1.336,1.035 -0.091,0.082 -0.182,0.164 -0.272,0.246 -0.087,0.363 -0.306,0.726 -0.519,1.09 -0.119,0.142 -0.222,0.295 -0.218,0.518 -0.136,0.765 -0.272,1.528 -0.409,2.29 -0.182,0.537 -0.309,1.127 -0.708,1.446 -1.118,1.036 -2.235,2.072 -3.354,3.107 -0.369,-0.42 -0.64,-1.133 -0.844,-2.044 -0.01,-0.245 -0.02,-0.491 -0.028,-0.736 0.014,-0.383 -0.056,-0.749 -0.246,-1.091 -0.119,-0.136 -0.236,-0.272 -0.354,-0.408 -0.73,-1.076 -1.399,-2.195 -1.636,-3.6 -0.006,-0.134 -0.033,-0.207 -0.082,-0.219 -0.182,-0.107 -0.363,-0.216 -0.545,-0.326 -0.14,-0.203 -0.256,-0.41 -0.191,-0.654 -0.737,0.01 -1.472,0.018 -2.208,0.027 -0.081,0.089 -0.204,0.167 -0.11,0.3 0.244,0.457 0.764,0.845 1.201,1.254 0.478,0.531 0.761,1.091 0.954,1.663 0.988,2.293 1.137,4.51 0.817,6.68 -1.438,-0.793 -3.873,-1.05 -6.761,-1.063 0.208,-0.773 0.322,-1.545 0.409,-2.318 0.086,-0.327 0.213,-0.654 0.381,-0.981 0.406,-0.929 0.957,-1.756 1.773,-2.4 0.073,-0.09 0.145,-0.182 0.218,-0.271 0.072,-0.147 0.145,-0.291 0.218,-0.437 0.082,-0.092 0.162,-0.183 0.244,-0.272 0.192,-0.192 0.383,-0.383 0.574,-0.574 0.049,-0.099 0.059,-0.2 0.027,-0.299 -0.491,-0.409 -0.981,-0.819 -1.473,-1.228 -0.094,-0.065 -0.149,-0.028 -0.163,0.109 -0.063,0.454 -0.127,0.91 -0.191,1.364 -0.043,0.112 -0.107,0.202 -0.19,0.272 -0.218,0.102 -0.397,0.24 -0.492,0.464 -2.023,1.978 -3.29,4.171 -4.416,6.435 -1.701,-1.751 -1.385,-1.811 -1.472,-2.209 -0.041,-0.233 -0.123,-0.422 -0.246,-0.573 -1.313,-1.443 -1.905,-2.946 -2.236,-4.471 -0.032,-0.164 -0.075,-0.314 -0.19,-0.355 -0.532,-0.258 -0.846,-0.614 -0.845,-1.117 -0.082,-0.064 -0.164,-0.127 -0.246,-0.191 l -1.908,0 c -0.121,0.041 -0.204,0.08 -0.164,0.246 0.512,0.707 1.307,1.302 1.693,2.101 0.569,1.18 1.085,2.428 1.7,3.737 0.069,0.144 0.102,0.304 0.152,0.459 0.172,1.164 0.344,2.328 0.518,3.491 -0.016,0.254 -0.041,0.509 -0.137,0.762 -0.201,0.672 -0.4,1.346 -0.6,2.018 -0.132,0.219 -0.304,0.437 -0.517,0.654 -0.301,0.301 -0.6,0.6 -0.9,0.901 -1.272,-0.764 -2.545,-1.528 -3.819,-2.29 -0.204,-0.11 -0.431,-0.11 -0.68,0 -0.288,0.169 -0.564,0.353 -0.763,0.653 -0.101,-0.018 -0.201,-0.035 -0.301,-0.055 -0.441,0.235 -0.873,0.491 -1.226,0.901 -0.127,0.166 -0.229,0.336 -0.137,0.545 0.441,1.636 1.287,3.587 2.127,5.535 -0.127,0.363 -0.254,0.726 -0.381,1.09 0.018,0.127 0.035,0.254 0.055,0.382 0.144,-0.091 0.29,-0.182 0.435,-0.273 0.073,0.072 0.145,0.145 0.218,0.219 0.38,-0.301 0.64,-0.601 0.845,-0.901 2.598,-0.333 5.287,-0.935 8.015,-1.662 0.274,0.244 0.546,0.49 0.819,0.736 0.273,-0.201 0.545,-0.4 0.818,-0.601 -0.118,-0.126 -0.236,-0.254 -0.355,-0.381 0.31,-0.109 0.619,-0.218 0.927,-0.327 0.491,0.3 0.982,0.601 1.473,0.899 0.145,0.069 0.254,0.241 0.327,0.519 0.045,0.263 0.091,0.526 0.136,0.79 C 2.453,0.136 1.744,-0.3 1.036,-0.737 0.689,-0.491 0.345,-0.245 0,0"
         style="fill:#231f20;fill-opacity:1;fill-rule:evenodd;stroke:none"
         id="path4243"
         inkscape:connector-curvature="0" />
    </g>
    <g
       id="g4245"
       transform="matrix(1.25,0,0,-1.25,280.61547,618.21628)">
      <path
         d="M 0,0 C 0.002,-0.259 0.121,-0.473 0.442,-0.573 0.653,-0.696 0.836,-0.652 1.014,-0.585 2.235,0.119 3.455,0.823 4.676,1.526 4.577,1.574 4.477,1.621 4.378,1.67 3.461,1.037 2.541,0.406 1.528,-0.132 1.177,-0.319 0.828,-0.365 0.478,-0.203 0.291,-0.155 0.188,-0.048 0,0"
         style="fill:#fccf34;fill-opacity:1;fill-rule:evenodd;stroke:none"
         id="path4247"
         inkscape:connector-curvature="0" />
    </g>
    <g
       id="g4249"
       transform="matrix(1.25,0,0,-1.25,283.79172,615.30878)">
      <path
         d="M 0,0 C 0.6,-0.008 1.138,-0.191 1.611,-0.549 0.903,-1.068 0.18,-1.56 -0.56,-2.015 c -0.524,-0.264 -1.047,-0.51 -1.539,-0.228 -0.119,0.064 -0.191,0.159 -0.215,0.286 0.183,0.259 0.365,0.518 0.549,0.776 C -1.097,-0.978 -0.509,-0.585 0,0"
         style="fill:#fccf34;fill-opacity:1;fill-rule:evenodd;stroke:none"
         id="path4251"
         inkscape:connector-curvature="0" />
    </g>
  </g>
</svg>
