<?xml version="1.0" encoding="UTF-8" standalone="no"?>
<!-- Created with Inkscape (http://www.inkscape.org/) -->

<svg
   xmlns:dc="http://purl.org/dc/elements/1.1/"
   xmlns:cc="http://creativecommons.org/ns#"
   xmlns:rdf="http://www.w3.org/1999/02/22-rdf-syntax-ns#"
   xmlns:svg="http://www.w3.org/2000/svg"
   xmlns="http://www.w3.org/2000/svg"
   xmlns:sodipodi="http://sodipodi.sourceforge.net/DTD/sodipodi-0.dtd"
   xmlns:inkscape="http://www.inkscape.org/namespaces/inkscape"
   width="71.899368"
   height="71.886276"
   id="svg6273"
   version="1.1"
   inkscape:version="0.48.3.1 r9886"
   sodipodi:docname="New document 39">
  <defs
     id="defs6275">
    <clipPath
       clipPathUnits="userSpaceOnUse"
       id="clipPath3849">
      <path
         inkscape:connector-curvature="0"
         d="m 31.275,147.705 504.574,0 0,590.544 -504.574,0 0,-590.544 z"
         id="path3851" />
    </clipPath>
  </defs>
  <sodipodi:namedview
     id="base"
     pagecolor="#ffffff"
     bordercolor="#666666"
     borderopacity="1.0"
     inkscape:pageopacity="0.0"
     inkscape:pageshadow="2"
     inkscape:zoom="0.35"
     inkscape:cx="35.944804"
     inkscape:cy="35.936607"
     inkscape:document-units="px"
     inkscape:current-layer="layer1"
     showgrid="false"
     fit-margin-top="0"
     fit-margin-left="0"
     fit-margin-right="0"
     fit-margin-bottom="0"
     inkscape:window-width="451"
     inkscape:window-height="415"
     inkscape:window-x="75"
     inkscape:window-y="75"
     inkscape:window-maximized="0" />
  <metadata
     id="metadata6278">
    <rdf:RDF>
      <cc:Work
         rdf:about="">
        <dc:format>image/svg+xml</dc:format>
        <dc:type
           rdf:resource="http://purl.org/dc/dcmitype/StillImage" />
        <dc:title></dc:title>
      </cc:Work>
    </rdf:RDF>
  </metadata>
  <g
     inkscape:label="Layer 1"
     inkscape:groupmode="layer"
     id="layer1"
     transform="translate(-339.0552,-496.41251)">
    <g
       transform="matrix(1.25,0,0,-1.25,-258.75733,1148.4316)"
       id="g3845">
      <g
         id="g3847"
         clip-path="url(#clipPath3849)">
        <g
           id="g3853"
           transform="translate(504.5093,465.3875)">
          <path
             inkscape:connector-curvature="0"
             d="m 0,0 -24.975,24.971 c -1.374,1.373 -1.374,3.623 0,4.994 L 0.001,54.937 c 1.373,1.373 3.62,1.375 4.995,0 l 24.971,-24.97 c 1.376,-1.375 1.375,-3.623 0,-4.996 L 4.996,-0.002 C 3.621,-1.375 1.374,-1.375 0,0"
             style="fill:#fccf34;fill-opacity:1;fill-rule:nonzero;stroke:none"
             id="path3855" />
        </g>
        <g
           id="g3857"
           transform="translate(504.5093,465.3875)">
          <path
             inkscape:connector-curvature="0"
             d="m 0,0 -24.975,24.971 c -1.374,1.373 -1.374,3.623 0,4.994 L 0.001,54.937 c 1.373,1.373 3.62,1.375 4.995,0 l 24.971,-24.97 c 1.376,-1.375 1.375,-3.623 0,-4.996 L 4.996,-0.002 C 3.621,-1.375 1.374,-1.375 0,0 z"
             style="fill:none;stroke:#231f20;stroke-width:0.5;stroke-linecap:butt;stroke-linejoin:miter;stroke-miterlimit:4;stroke-opacity:1;stroke-dasharray:none"
             id="path3859" />
        </g>
      </g>
    </g>
    <g
       id="g3869"
       transform="matrix(1.25,0,0,-1.25,372.5243,565.72094)">
      <path
         d="m 0,0 -24.708,24.706 c -1.09,1.089 -1.09,2.873 0,3.964 L 0,53.374 c 1.09,1.088 2.874,1.09 3.964,0 L 28.669,28.67 c 1.09,-1.091 1.09,-2.875 0,-3.964 L 3.964,0 C 2.874,-1.089 1.09,-1.089 0,0"
         style="fill:#231f20;fill-opacity:1;fill-rule:evenodd;stroke:none"
         id="path3871"
         inkscape:connector-curvature="0" />
    </g>
    <g
       id="g3873"
       transform="matrix(1.25,0,0,-1.25,373.76554,564.46094)">
      <path
         d="m 0,0 -24.694,24.69 c -0.545,0.543 -0.545,1.437 0,1.978 L 0,51.359 c 0.545,0.545 1.436,0.545 1.981,0 L 26.67,26.67 c 0.544,-0.543 0.545,-1.435 0,-1.98 L 1.981,0 C 1.436,-0.545 0.545,-0.545 0,0"
         style="fill:#fccf34;fill-opacity:1;fill-rule:evenodd;stroke:none"
         id="path3875"
         inkscape:connector-curvature="0" />
    </g>
    <g
       id="g3877"
       transform="matrix(1.25,0,0,-1.25,350.69304,535.68844)">
      <path
         d="M 0,0 0,1.068 0.955,1.053 C 1.092,1.049 1.225,1.064 1.33,1.154 1.438,1.246 1.504,1.387 1.518,1.525 l 0.324,3.699 c 0.012,0.143 0.107,0.28 0.22,0.37 0.085,0.068 0.196,0.101 0.305,0.113 0.108,0.015 0.217,0.027 0.327,0.041 l 6.546,0.832 0.289,2.17 0.444,0 -0.102,-2.375 0.307,-1.406 1.227,0 0.101,0.543 c 0.049,0.238 0.088,0.48 0.143,0.716 0.027,0.118 0.061,0.235 0.097,0.352 0.035,0.09 0.076,0.174 0.131,0.254 0.061,0.088 0.135,0.17 0.217,0.242 0.07,0.059 0.15,0.104 0.232,0.148 -0.121,0.065 -0.238,0.137 -0.334,0.237 -0.118,0.127 -0.166,0.312 -0.141,0.484 0.018,0.127 0.063,0.246 0.117,0.365 -0.097,0.018 -0.194,0.034 -0.29,0.049 -0.045,0.004 -0.088,0.008 -0.131,0.012 -0.053,0.008 -0.107,0.014 -0.158,0.021 l 0,0.086 0.375,0 0.306,0 0.067,0.459 0,0.016 c 0.096,0 0.183,-0.008 0.275,-0.025 0.154,-0.036 0.298,-0.11 0.422,-0.206 0.164,-0.126 0.311,-0.287 0.416,-0.464 0.053,-0.088 0.097,-0.176 0.132,-0.27 L 13.809,7.631 13.758,7.512 13.297,7.851 C 13.291,7.765 13.276,7.68 13.241,7.599 13.199,7.496 13.137,7.418 13.047,7.349 12.985,7.297 12.914,7.265 12.838,7.242 12.936,7.203 13.028,7.154 13.115,7.094 13.331,6.939 13.43,6.646 13.452,6.392 l 0.117,-1.355 0.205,1.596 c 0.045,0.349 0.109,0.72 0.393,0.964 0.285,0.243 0.669,0.223 1.023,0.237 l 0.818,0.035 0,0.643 2.353,0 0,-3.051 2.766,0 0,0.437 -2.142,0 0,0.592 0.4,0 -0.002,1.971 -0.324,0 0,0.56 17.9,0 0,-0.543 -0.647,0 0.016,-2.006 0.612,0.018 0,-0.592 -2.519,0 0,-0.437 2.519,0 1.043,-4.393 0.904,0 0,-1.068 -8.678,0 c 0.111,-0.418 0.225,-0.877 0.127,-1.311 -0.137,-0.617 -0.514,-1.176 -1.049,-1.517 -0.412,-0.262 -0.83,-0.315 -1.311,-0.36 -0.419,0.053 -0.878,0.119 -1.236,0.362 -0.521,0.353 -0.897,0.896 -1.025,1.513 -0.094,0.451 0.008,0.875 0.129,1.313 L 7.789,0 C 7.875,-0.42 7.957,-0.877 7.842,-1.301 7.676,-1.904 7.285,-2.445 6.744,-2.77 6.335,-3.016 5.929,-3.065 5.455,-3.104 5.043,-3.051 4.593,-2.985 4.236,-2.752 3.719,-2.416 3.334,-1.893 3.18,-1.295 3.069,-0.858 3.147,-0.438 3.24,0 L 0,0 z"
         style="fill:#231f20;fill-opacity:1;fill-rule:evenodd;stroke:none"
         id="path3879"
         inkscape:connector-curvature="0" />
    </g>
    <path
       d="m 377.62642,528.86156 15.6375,0 0,-0.54625 -15.6375,0 0,0.54625 z"
       style="fill:#fccf34;fill-opacity:1;fill-rule:evenodd;stroke:none"
       id="path3881"
       inkscape:connector-curvature="0" />
    <g
       id="g3883"
       transform="matrix(1.25,0,0,-1.25,375.38929,525.11218)">
      <path
         d="m 0,0 0,-1.971 1.37,0 L 1.366,0 0,0 z"
         style="fill:#fccf34;fill-opacity:1;fill-rule:evenodd;stroke:none"
         id="path3885"
         inkscape:connector-curvature="0" />
    </g>
    <g
       id="g3887"
       transform="matrix(1.25,0,0,-1.25,377.62929,525.11218)">
      <path
         d="m 0,0 -0.002,-1.971 1.369,0 L 1.363,0 0,0 z"
         style="fill:#fccf34;fill-opacity:1;fill-rule:evenodd;stroke:none"
         id="path3889"
         inkscape:connector-curvature="0" />
    </g>
    <path
       d="m 379.95017,527.57031 1.7075,0 0,-2.45875 -1.7075,0 0,2.45875 z"
       style="fill:#fccf34;fill-opacity:1;fill-rule:evenodd;stroke:none"
       id="path3891"
       inkscape:connector-curvature="0" />
    <path
       d="m 382.27392,527.57031 1.7075,0 0,-2.45875 -1.7075,0 0,2.45875 z"
       style="fill:#fccf34;fill-opacity:1;fill-rule:evenodd;stroke:none"
       id="path3893"
       inkscape:connector-curvature="0" />
    <path
       d="m 384.57767,527.57031 1.70375,0 0,-2.45875 -1.70375,0 0,2.45875 z"
       style="fill:#fccf34;fill-opacity:1;fill-rule:evenodd;stroke:none"
       id="path3895"
       inkscape:connector-curvature="0" />
    <path
       d="m 386.87642,527.57031 1.705,0 0,-2.45875 -1.705,0 0,2.45875 z"
       style="fill:#fccf34;fill-opacity:1;fill-rule:evenodd;stroke:none"
       id="path3897"
       inkscape:connector-curvature="0" />
    <path
       d="m 389.15892,527.57031 1.7025,0 0,-2.45875 -1.7025,0 0,2.45875 z"
       style="fill:#fccf34;fill-opacity:1;fill-rule:evenodd;stroke:none"
       id="path3899"
       inkscape:connector-curvature="0" />
    <path
       d="m 391.45892,527.57031 1.70375,0 0,-2.45875 -1.70375,0 0,2.45875 z"
       style="fill:#fccf34;fill-opacity:1;fill-rule:evenodd;stroke:none"
       id="path3901"
       inkscape:connector-curvature="0" />
    <path
       d="m 393.78142,527.57031 1.705,0 0,-2.45875 -1.705,0 0,2.45875 z"
       style="fill:#fccf34;fill-opacity:1;fill-rule:evenodd;stroke:none"
       id="path3903"
       inkscape:connector-curvature="0" />
    <g
       id="g6338"
       transform="matrix(1.25,0,0,-1.25,-258.75733,1148.4316)">
      <g
         clip-path="url(#clipPath3849)"
         id="g6340">
        <g
           transform="translate(504.5093,465.3875)"
           id="g6342">
          <path
             id="path6344"
             style="fill:#fccf34;fill-opacity:1;fill-rule:nonzero;stroke:none"
             d="m 0,0 -24.975,24.971 c -1.374,1.373 -1.374,3.623 0,4.994 L 0.001,54.937 c 1.373,1.373 3.62,1.375 4.995,0 l 24.971,-24.97 c 1.376,-1.375 1.375,-3.623 0,-4.996 L 4.996,-0.002 C 3.621,-1.375 1.374,-1.375 0,0"
             inkscape:connector-curvature="0" />
        </g>
        <g
           transform="translate(504.5093,465.3875)"
           id="g6346">
          <path
             id="path6348"
             style="fill:none;stroke:#231f20;stroke-width:0.5;stroke-linecap:butt;stroke-linejoin:miter;stroke-miterlimit:4;stroke-opacity:1;stroke-dasharray:none"
             d="m 0,0 -24.975,24.971 c -1.374,1.373 -1.374,3.623 0,4.994 L 0.001,54.937 c 1.373,1.373 3.62,1.375 4.995,0 l 24.971,-24.97 c 1.376,-1.375 1.375,-3.623 0,-4.996 L 4.996,-0.002 C 3.621,-1.375 1.374,-1.375 0,0 z"
             inkscape:connector-curvature="0" />
        </g>
      </g>
    </g>
    <g
       transform="matrix(1.25,0,0,-1.25,372.5243,565.72094)"
       id="g6350">
      <path
         inkscape:connector-curvature="0"
         id="path6352"
         style="fill:#231f20;fill-opacity:1;fill-rule:evenodd;stroke:none"
         d="m 0,0 -24.708,24.706 c -1.09,1.089 -1.09,2.873 0,3.964 L 0,53.374 c 1.09,1.088 2.874,1.09 3.964,0 L 28.669,28.67 c 1.09,-1.091 1.09,-2.875 0,-3.964 L 3.964,0 C 2.874,-1.089 1.09,-1.089 0,0" />
    </g>
    <g
       transform="matrix(1.25,0,0,-1.25,373.76554,564.46094)"
       id="g6354">
      <path
         inkscape:connector-curvature="0"
         id="path6356"
         style="fill:#fccf34;fill-opacity:1;fill-rule:evenodd;stroke:none"
         d="m 0,0 -24.694,24.69 c -0.545,0.543 -0.545,1.437 0,1.978 L 0,51.359 c 0.545,0.545 1.436,0.545 1.981,0 L 26.67,26.67 c 0.544,-0.543 0.545,-1.435 0,-1.98 L 1.981,0 C 1.436,-0.545 0.545,-0.545 0,0" />
    </g>
    <g
       transform="matrix(1.25,0,0,-1.25,350.69304,535.68844)"
       id="g6358">
      <path
         inkscape:connector-curvature="0"
         id="path6360"
         style="fill:#231f20;fill-opacity:1;fill-rule:evenodd;stroke:none"
         d="M 0,0 0,1.068 0.955,1.053 C 1.092,1.049 1.225,1.064 1.33,1.154 1.438,1.246 1.504,1.387 1.518,1.525 l 0.324,3.699 c 0.012,0.143 0.107,0.28 0.22,0.37 0.085,0.068 0.196,0.101 0.305,0.113 0.108,0.015 0.217,0.027 0.327,0.041 l 6.546,0.832 0.289,2.17 0.444,0 -0.102,-2.375 0.307,-1.406 1.227,0 0.101,0.543 c 0.049,0.238 0.088,0.48 0.143,0.716 0.027,0.118 0.061,0.235 0.097,0.352 0.035,0.09 0.076,0.174 0.131,0.254 0.061,0.088 0.135,0.17 0.217,0.242 0.07,0.059 0.15,0.104 0.232,0.148 -0.121,0.065 -0.238,0.137 -0.334,0.237 -0.118,0.127 -0.166,0.312 -0.141,0.484 0.018,0.127 0.063,0.246 0.117,0.365 -0.097,0.018 -0.194,0.034 -0.29,0.049 -0.045,0.004 -0.088,0.008 -0.131,0.012 -0.053,0.008 -0.107,0.014 -0.158,0.021 l 0,0.086 0.375,0 0.306,0 0.067,0.459 0,0.016 c 0.096,0 0.183,-0.008 0.275,-0.025 0.154,-0.036 0.298,-0.11 0.422,-0.206 0.164,-0.126 0.311,-0.287 0.416,-0.464 0.053,-0.088 0.097,-0.176 0.132,-0.27 L 13.809,7.631 13.758,7.512 13.297,7.851 C 13.291,7.765 13.276,7.68 13.241,7.599 13.199,7.496 13.137,7.418 13.047,7.349 12.985,7.297 12.914,7.265 12.838,7.242 12.936,7.203 13.028,7.154 13.115,7.094 13.331,6.939 13.43,6.646 13.452,6.392 l 0.117,-1.355 0.205,1.596 c 0.045,0.349 0.109,0.72 0.393,0.964 0.285,0.243 0.669,0.223 1.023,0.237 l 0.818,0.035 0,0.643 2.353,0 0,-3.051 2.766,0 0,0.437 -2.142,0 0,0.592 0.4,0 -0.002,1.971 -0.324,0 0,0.56 17.9,0 0,-0.543 -0.647,0 0.016,-2.006 0.612,0.018 0,-0.592 -2.519,0 0,-0.437 2.519,0 1.043,-4.393 0.904,0 0,-1.068 -8.678,0 c 0.111,-0.418 0.225,-0.877 0.127,-1.311 -0.137,-0.617 -0.514,-1.176 -1.049,-1.517 -0.412,-0.262 -0.83,-0.315 -1.311,-0.36 -0.419,0.053 -0.878,0.119 -1.236,0.362 -0.521,0.353 -0.897,0.896 -1.025,1.513 -0.094,0.451 0.008,0.875 0.129,1.313 L 7.789,0 C 7.875,-0.42 7.957,-0.877 7.842,-1.301 7.676,-1.904 7.285,-2.445 6.744,-2.77 6.335,-3.016 5.929,-3.065 5.455,-3.104 5.043,-3.051 4.593,-2.985 4.236,-2.752 3.719,-2.416 3.334,-1.893 3.18,-1.295 3.069,-0.858 3.147,-0.438 3.24,0 L 0,0 z" />
    </g>
    <path
       inkscape:connector-curvature="0"
       id="path6362"
       style="fill:#fccf34;fill-opacity:1;fill-rule:evenodd;stroke:none"
       d="m 377.62642,528.86156 15.6375,0 0,-0.54625 -15.6375,0 0,0.54625 z" />
    <g
       transform="matrix(1.25,0,0,-1.25,375.38929,525.11218)"
       id="g6364">
      <path
         inkscape:connector-curvature="0"
         id="path6366"
         style="fill:#fccf34;fill-opacity:1;fill-rule:evenodd;stroke:none"
         d="m 0,0 0,-1.971 1.37,0 L 1.366,0 0,0 z" />
    </g>
    <g
       transform="matrix(1.25,0,0,-1.25,377.62929,525.11218)"
       id="g6368">
      <path
         inkscape:connector-curvature="0"
         id="path6370"
         style="fill:#fccf34;fill-opacity:1;fill-rule:evenodd;stroke:none"
         d="m 0,0 -0.002,-1.971 1.369,0 L 1.363,0 0,0 z" />
    </g>
    <path
       inkscape:connector-curvature="0"
       id="path6372"
       style="fill:#fccf34;fill-opacity:1;fill-rule:evenodd;stroke:none"
       d="m 379.95017,527.57031 1.7075,0 0,-2.45875 -1.7075,0 0,2.45875 z" />
    <path
       inkscape:connector-curvature="0"
       id="path6374"
       style="fill:#fccf34;fill-opacity:1;fill-rule:evenodd;stroke:none"
       d="m 382.27392,527.57031 1.7075,0 0,-2.45875 -1.7075,0 0,2.45875 z" />
    <path
       inkscape:connector-curvature="0"
       id="path6376"
       style="fill:#fccf34;fill-opacity:1;fill-rule:evenodd;stroke:none"
       d="m 384.57767,527.57031 1.70375,0 0,-2.45875 -1.70375,0 0,2.45875 z" />
    <path
       inkscape:connector-curvature="0"
       id="path6378"
       style="fill:#fccf34;fill-opacity:1;fill-rule:evenodd;stroke:none"
       d="m 386.87642,527.57031 1.705,0 0,-2.45875 -1.705,0 0,2.45875 z" />
    <path
       inkscape:connector-curvature="0"
       id="path6380"
       style="fill:#fccf34;fill-opacity:1;fill-rule:evenodd;stroke:none"
       d="m 389.15892,527.57031 1.7025,0 0,-2.45875 -1.7025,0 0,2.45875 z" />
    <path
       inkscape:connector-curvature="0"
       id="path6382"
       style="fill:#fccf34;fill-opacity:1;fill-rule:evenodd;stroke:none"
       d="m 391.45892,527.57031 1.70375,0 0,-2.45875 -1.70375,0 0,2.45875 z" />
    <path
       inkscape:connector-curvature="0"
       id="path6384"
       style="fill:#fccf34;fill-opacity:1;fill-rule:evenodd;stroke:none"
       d="m 393.78142,527.57031 1.705,0 0,-2.45875 -1.705,0 0,2.45875 z" />
  </g>
</svg>
