<?xml version="1.0" encoding="UTF-8" standalone="no"?>
<!-- Created with Inkscape (http://www.inkscape.org/) -->

<svg
   xmlns:dc="http://purl.org/dc/elements/1.1/"
   xmlns:cc="http://creativecommons.org/ns#"
   xmlns:rdf="http://www.w3.org/1999/02/22-rdf-syntax-ns#"
   xmlns:svg="http://www.w3.org/2000/svg"
   xmlns="http://www.w3.org/2000/svg"
   xmlns:sodipodi="http://sodipodi.sourceforge.net/DTD/sodipodi-0.dtd"
   xmlns:inkscape="http://www.inkscape.org/namespaces/inkscape"
   width="71.859573"
   height="71.866791"
   id="svg6811"
   version="1.1"
   inkscape:version="0.48.3.1 r9886"
   sodipodi:docname="New document 51">
  <defs
     id="defs6813">
    <clipPath
       clipPathUnits="userSpaceOnUse"
       id="clipPath3957">
      <path
         inkscape:connector-curvature="0"
         d="m 27,45 513.125,0 0,693.25 L 27,738.25 27,45 z"
         id="path3959" />
    </clipPath>
  </defs>
  <sodipodi:namedview
     id="base"
     pagecolor="#ffffff"
     bordercolor="#666666"
     borderopacity="1.0"
     inkscape:pageopacity="0.0"
     inkscape:pageshadow="2"
     inkscape:zoom="0.35"
     inkscape:cx="35.922639"
     inkscape:cy="35.920492"
     inkscape:document-units="px"
     inkscape:current-layer="layer1"
     showgrid="false"
     fit-margin-top="0"
     fit-margin-left="0"
     fit-margin-right="0"
     fit-margin-bottom="0"
     inkscape:window-width="451"
     inkscape:window-height="415"
     inkscape:window-x="175"
     inkscape:window-y="175"
     inkscape:window-maximized="0" />
  <metadata
     id="metadata6816">
    <rdf:RDF>
      <cc:Work
         rdf:about="">
        <dc:format>image/svg+xml</dc:format>
        <dc:type
           rdf:resource="http://purl.org/dc/dcmitype/StillImage" />
        <dc:title></dc:title>
      </cc:Work>
    </rdf:RDF>
  </metadata>
  <g
     inkscape:label="Layer 1"
     inkscape:groupmode="layer"
     id="layer1"
     transform="translate(-339.07736,-496.41588)">
    <g
       transform="matrix(1.25,0,0,-1.25,-165.70256,1045.8833)"
       id="g3953">
      <g
         id="g3955"
         clip-path="url(#clipPath3957)">
        <g
           id="g3961"
           transform="translate(434.4123,383.0805)">
          <path
             inkscape:connector-curvature="0"
             d="m 0,0 c -1.022,-1.02 -2.676,-1.02 -3.699,0 l -25.887,25.888 c -1.022,1.019 -1.022,2.676 0,3.697 l 25.887,25.887 c 1.023,1.021 2.677,1.021 3.699,0 L 25.887,29.585 c 1.02,-1.021 1.02,-2.678 0,-3.697 L 0,0 z"
             style="fill:#fccf34;fill-opacity:1;fill-rule:nonzero;stroke:none"
             id="path3963" />
        </g>
        <g
           id="g3965"
           transform="translate(434.4123,383.0805)">
          <path
             inkscape:connector-curvature="0"
             d="m 0,0 c -1.022,-1.02 -2.676,-1.02 -3.699,0 l -25.887,25.888 c -1.022,1.019 -1.022,2.676 0,3.697 l 25.887,25.887 c 1.023,1.021 2.677,1.021 3.699,0 L 25.887,29.585 c 1.02,-1.021 1.02,-2.678 0,-3.697 L 0,0 z"
             style="fill:none;stroke:#231f20;stroke-width:0.5;stroke-linecap:butt;stroke-linejoin:miter;stroke-miterlimit:4;stroke-opacity:1;stroke-dasharray:none"
             id="path3967" />
        </g>
        <g
           id="g3969"
           transform="translate(433.1793,384.3145)">
          <path
             inkscape:connector-curvature="0"
             d="m 0,0 c -0.34,-0.34 -0.892,-0.342 -1.232,-0.002 l -25.889,25.888 c -0.338,0.34 -0.338,0.893 0,1.233 l 25.889,25.886 c 0.34,0.34 0.892,0.34 1.232,0 L 25.886,27.119 c 0.342,-0.34 0.342,-0.893 0,-1.233 L 0,0 z M 26.626,27.857 0.739,53.746 c -0.748,0.748 -1.963,0.748 -2.711,0 L -27.861,27.857 c -0.746,-0.746 -0.746,-1.963 0,-2.711 L -1.972,-0.74 c 0.748,-0.748 1.963,-0.748 2.711,0 l 25.887,25.886 c 0.748,0.748 0.748,1.965 0,2.711"
             style="fill:#231f20;fill-opacity:1;fill-rule:nonzero;stroke:none"
             id="path3971" />
        </g>
        <g
           id="g3973"
           transform="translate(446.4913,402.3475)">
          <path
             inkscape:connector-curvature="0"
             d="m 0,0 c -0.069,0.136 -0.135,0.269 -0.188,0.414 -0.054,0.144 0.024,0.3 0.076,0.429 0.057,0.135 0.12,0.258 0.163,0.399 0.033,0.113 -0.127,0.277 -0.198,0.371 -0.041,0.057 -0.08,0.113 -0.119,0.172 -0.054,0.084 -0.056,0.109 -0.056,0.211 0,0.045 0.097,0.136 0.127,0.174 0.037,0.048 0.111,0.064 0.15,0.115 0.051,0.066 0.109,0.117 0.109,0.201 0,0.086 -0.062,0.143 -0.111,0.213 -0.039,0.053 -0.074,0.107 -0.111,0.162 -0.014,0.021 -0.121,0.139 -0.121,0.156 0,0.151 0.015,0.297 0.021,0.447 0.002,0.063 0.002,0.127 -0.006,0.188 -0.008,0.07 0.01,0.146 -0.014,0.197 -0.029,0.067 -0.054,0.141 -0.091,0.203 -0.055,0.092 -0.061,0.108 -0.045,0.213 0.023,0.157 0.052,0.311 0.086,0.469 0.013,0.064 0.013,0.104 0.045,0.166 0.035,0.068 0.048,0.154 0.072,0.229 0.037,0.117 0.027,0.275 -0.047,0.38 -0.039,0.057 -0.119,0.104 -0.17,0.149 -0.055,0.047 -0.096,0.131 -0.139,0.189 -0.072,0.1 -0.117,0.248 -0.097,0.371 0.019,0.114 0.062,0.188 0.129,0.282 0.043,0.06 0.168,0.195 0.168,0.267 0,0.119 -0.041,0.227 -0.075,0.34 -0.011,0.043 -0.009,0.082 -0.009,0.127 0,0.057 -0.024,0.107 -0.041,0.162 -0.075,0.219 -0.041,0.418 0.004,0.641 0.041,0.203 0.175,0.367 0.294,0.529 l 0,-0.043 c 0.043,0.041 0.092,0.082 0.124,0.133 0.031,0.053 0.113,0.141 0.113,0.205 0,0.057 0.021,0.158 -0.004,0.209 -0.043,0.084 -0.084,0.168 -0.127,0.254 -0.135,0.269 0.146,0.572 0.295,0.775 0.06,0.078 -0.008,0.256 -0.037,0.348 -0.041,0.123 -0.127,0.275 -0.127,0.408 0,0.311 0.01,0.619 -0.033,0.928 -0.036,0.271 -0.135,0.555 -0.288,0.783 -0.166,0.25 -0.365,0.479 -0.556,0.709 -0.092,0.109 -0.26,0.191 -0.375,0.273 -0.104,0.077 -0.207,0.125 -0.322,0.182 -0.293,0.141 -0.571,0.24 -0.88,0.338 -0.266,0.084 -0.51,0.141 -0.784,0.189 -0.273,0.047 -0.564,0.133 -0.843,0.145 -0.362,0.012 -0.725,0.025 -1.086,0.037 -0.238,0.01 -0.481,0.033 -0.719,0.024 -1.217,-0.059 -2.432,-0.125 -3.648,-0.166 -1.227,-0.041 -2.448,-0.172 -3.67,-0.274 -0.547,-0.047 -1.1,-0.057 -1.629,0.102 -0.561,0.164 -1.121,0.422 -1.557,0.82 -0.221,0.203 -0.431,0.41 -0.617,0.648 -0.186,0.243 -0.326,0.51 -0.469,0.778 -0.123,0.23 -0.213,0.539 -0.258,0.793 -0.015,0.088 -0.031,0.175 -0.046,0.261 -0.01,0.059 0.128,0.061 0.175,0.071 0.117,0.025 0.284,0.109 0.383,0.176 0.223,0.146 0.399,0.357 0.537,0.582 0.037,0.056 0.072,0.113 0.106,0.168 0.006,0.009 -0.147,0.123 -0.162,0.136 -0.09,0.073 -0.194,0.145 -0.297,0.196 -0.252,0.127 -0.492,0.232 -0.768,0.296 -0.277,0.065 -0.531,0.086 -0.814,0.086 0.002,-0.019 -0.006,-0.033 -0.022,-0.043 -0.002,0.104 -0.127,0.274 -0.176,0.37 -0.064,0.13 -0.13,0.259 -0.236,0.365 -0.203,0.201 -0.396,0.375 -0.652,0.508 -0.262,0.138 -0.52,0.269 -0.811,0.337 -0.281,0.069 -0.584,0.155 -0.877,0.141 -0.146,-0.008 -0.297,-0.002 -0.441,-0.021 -0.153,-0.022 -0.324,-0.022 -0.469,-0.065 -0.301,-0.092 -0.572,-0.193 -0.859,-0.322 l 0.021,0 c -0.346,-0.174 -0.666,-0.4 -0.947,-0.668 -0.088,-0.084 -0.785,-0.859 -0.69,-0.924 -0.302,0.029 -0.58,0.016 -0.876,-0.043 -0.137,-0.027 -0.286,-0.115 -0.411,-0.172 -0.14,-0.062 -0.255,-0.136 -0.379,-0.23 -0.043,-0.03 0.372,-0.649 0.44,-0.719 0.098,-0.1 0.262,-0.174 0.379,-0.252 0.099,-0.066 0.222,-0.187 0.338,-0.225 0.156,-0.048 0.312,-0.097 0.467,-0.148 -0.102,-0.289 -0.2,-0.58 -0.293,-0.875 -0.038,-0.111 -0.071,-0.256 -0.137,-0.352 -0.094,-0.132 -0.186,-0.265 -0.279,-0.398 -0.073,-0.103 -0.196,-0.225 -0.225,-0.348 -0.024,-0.088 -0.035,-0.132 -0.016,-0.218 0.018,-0.084 0.039,-0.141 0.076,-0.217 0.032,-0.063 0.053,-0.135 0.11,-0.176 0.025,-0.016 0.082,-0.037 0.096,-0.062 0.027,-0.043 0.011,-0.059 -0.008,-0.11 -0.045,-0.138 0.006,-0.275 0.078,-0.392 0.074,-0.125 0.158,-0.213 0.295,-0.268 0.095,-0.039 0.066,-0.088 0.066,-0.187 0,-0.069 0.014,-0.131 0.026,-0.2 0.015,-0.082 0.015,-0.091 0.084,-0.142 0.044,-0.033 0.085,-0.073 0.14,-0.09 0.168,-0.051 0.334,-0.104 0.502,-0.154 0.111,-0.036 0.281,0.015 0.397,0.025 0.121,0.012 0.22,0.055 0.336,0.098 0.123,0.045 0.304,0.076 0.412,0.15 0.121,0.086 0.242,0.172 0.363,0.258 0.019,-0.084 0.18,-0.131 0.248,-0.166 0.078,-0.043 0.146,-0.115 0.217,-0.172 0.144,-0.115 0.248,-0.264 0.351,-0.414 0.225,-0.322 0.239,-0.701 0.239,-1.078 l 0.021,0 c -0.019,-0.664 -0.041,-1.328 -0.06,-1.992 l -0.024,-0.78 c -0.004,-0.109 0.055,-0.244 0.08,-0.349 0.037,-0.159 0.074,-0.317 0.112,-0.473 0.017,-0.068 0.011,-0.146 0.017,-0.217 0.006,-0.074 0.033,-0.127 0.068,-0.193 0.04,-0.069 0.059,-0.104 0.125,-0.137 0.069,-0.035 0.17,-0.06 0.217,-0.123 0.086,-0.117 0.106,-0.275 0.133,-0.418 0.029,-0.164 0.094,-0.269 0.186,-0.408 0.031,-0.047 0.144,-0.066 0.195,-0.086 0.068,-0.029 0.144,-0.037 0.219,-0.055 0.043,-0.009 0.099,-0.117 0.133,-0.15 0.052,-0.053 0.126,-0.094 0.171,-0.152 0.082,-0.106 0.123,-0.27 0.174,-0.391 0.069,-0.158 0.135,-0.238 0.305,-0.287 0.094,-0.026 0.148,-0.049 0.23,-0.108 0.088,-0.062 0.088,-0.091 0.088,-0.199 0,-0.082 -0.004,-0.154 -0.021,-0.236 -0.01,-0.057 -0.057,-0.176 0.021,-0.207 0.076,-0.031 0.16,-0.102 0.237,-0.121 0.027,-0.008 0.093,0.017 0.113,-0.006 0.029,-0.041 0.057,-0.076 0.076,-0.123 0.039,-0.096 0.008,-0.178 -0.01,-0.278 -0.013,-0.087 -0.008,-0.173 -0.008,-0.261 0.051,-0.002 0.098,-0.063 0.135,-0.094 0.078,-0.062 0.155,-0.127 0.231,-0.189 0.035,-0.028 0.117,-0.067 0.131,-0.104 0.021,-0.055 -0.049,-0.141 -0.073,-0.187 -0.14,-0.282 -0.23,-0.588 -0.334,-0.885 -0.047,-0.129 -0.023,-0.322 -0.033,-0.459 -0.008,-0.113 -0.016,-0.229 -0.021,-0.344 -0.012,-0.186 -0.024,-0.373 -0.034,-0.561 -0.005,-0.093 -0.201,-0.16 -0.281,-0.218 -0.486,-0.364 -0.889,-0.869 -0.99,-1.479 0.641,0 1.283,-0.029 1.924,-0.043 0.074,-0.002 0.213,0.002 0.24,0.071 0.037,0.086 0.074,0.173 0.111,0.259 0.006,0.022 0.049,0.16 0.076,0.166 0.067,0.012 0.122,0.02 0.186,0.02 0.055,0 0.203,-0.027 0.246,0.006 0.078,0.056 0.08,0.066 0.08,0.162 l 0,0.238 c 0,0.037 -0.021,0.192 0,0.219 0.02,0.027 0.053,0.006 0.069,0.025 0.027,0.035 0.054,0.067 0.082,0.104 0.093,0.125 0.107,0.238 0.107,0.396 0,0.141 0.006,0.285 0.025,0.424 0.014,0.09 0.026,0.178 0.038,0.266 0.007,0.058 0.084,0.109 0.109,0.162 0.014,0.027 0.006,0.068 0.043,0.064 0.031,-0.004 0.037,-0.08 0.041,-0.099 0.014,-0.049 -0.043,-0.182 -0.055,-0.231 -0.027,-0.125 -0.008,-0.269 -0.008,-0.398 0,-0.153 0.006,-0.291 0.024,-0.442 0.015,-0.136 0.017,-0.285 0.06,-0.414 0.022,-0.066 0.09,-0.392 0.155,-0.396 l -0.024,-0.022 0,0.022 c -0.32,-0.16 -0.582,-0.348 -0.836,-0.602 -0.109,-0.109 -0.211,-0.295 -0.283,-0.431 -0.084,-0.161 -0.129,-0.321 -0.172,-0.495 0.615,0.006 1.231,0.014 1.846,0.02 0.057,0.002 0.09,0.008 0.144,0.025 0.04,0.014 0.079,0.026 0.116,0.039 0.015,0.006 0,0.092 0.004,0.11 0.029,0.133 0.127,0.269 0.175,0.4 0.024,0.065 0.063,0.114 0.102,0.17 0.07,0.1 0.059,0.082 0.176,0.096 0.138,0.017 0.299,0.068 0.429,0.109 0.053,0.016 0.106,0.039 0.159,0.059 0.035,0.012 0.033,0.094 0.039,0.125 0.021,0.109 -0.016,0.174 -0.026,0.283 -0.023,0.229 -0.078,0.436 -0.17,0.647 -0.164,0.384 -0.195,0.824 -0.216,1.232 l 0.021,-0.15 c 0,0.273 0.201,0.543 0.475,0.597 0.05,0.01 0.095,0.067 0.134,0.098 0.073,0.06 0.147,0.121 0.219,0.181 0.053,0.043 0.016,0.084 -0.006,0.149 -0.027,0.08 -0.025,0.146 -0.025,0.23 0,0.075 -0.022,0.141 -0.039,0.211 -0.008,0.034 -0.022,0.145 -0.004,0.168 0.08,0.106 0.291,-0.009 0.377,0.076 0.049,0.049 0.113,0.09 0.123,0.159 0.014,0.086 0.031,0.15 0.064,0.23 0.026,0.065 0.043,0.119 0.102,0.16 0.043,0.03 0.16,0.1 0.174,0.022 0.088,0.09 0.168,0.166 0.232,0.273 0.072,0.121 0.028,0.217 -0.013,0.336 -0.043,0.129 0.097,0.147 0.107,0.254 0.006,0.07 0.012,0.141 0.018,0.211 0.003,0.053 0.066,0.096 0.064,0.154 0.037,0.002 0.172,-0.308 0.209,-0.361 0.033,-0.043 -0.014,-0.125 0.018,-0.174 0.056,-0.086 0.087,-0.119 0.177,-0.172 0.043,-0.027 0.155,0.006 0.201,0.014 0.081,0.014 0.102,0.096 0.139,0.16 0.029,0.051 0.119,0.084 0.168,0.115 0.045,0.028 0.178,-0.033 0.227,-0.045 0.125,-0.031 0.207,-0.168 0.343,-0.187 0.168,-0.024 0.299,-0.008 0.465,0.023 0.045,0.008 0.071,0.102 0.102,0.135 0.078,0.076 0.111,0.09 0.217,0.115 0.082,0.022 0.078,-0.07 0.101,-0.119 0.024,-0.047 0.09,-0.146 0.133,-0.176 0.053,-0.031 0.105,-0.064 0.158,-0.095 0.039,-0.026 0.072,-0.028 0.117,-0.051 0.082,-0.041 0.09,-0.043 0.176,-0.014 0.053,0.018 0.1,0.045 0.149,0.071 0.105,0.058 0.205,0.095 0.32,0.134 0.115,0.039 0.209,0.014 0.32,-0.019 0.1,-0.028 0.184,-0.11 0.283,-0.143 0.096,-0.033 0.247,-0.025 0.332,0.039 0.059,0.045 0.098,0.067 0.168,0.09 0.061,0.02 0.114,-0.006 0.176,-0.019 0.106,-0.028 0.223,-0.065 0.317,-0.118 l 0,0.02 c 0.029,0 0.13,-0.014 0.154,0.002 0.062,0.045 0.127,0.09 0.191,0.133 0.096,0.068 0.188,0.14 0.289,0.197 0.217,0.125 0.434,0.32 0.7,0.314 L -6.823,4.82 C -6.763,4.726 -6.702,4.632 -6.642,4.537 -6.597,4.466 -6.63,4.351 -6.556,4.306 -6.446,4.244 -6.37,4.228 -6.245,4.207 -6.142,4.189 -6.07,4.125 -5.984,4.068 -6.058,3.959 -6.081,3.888 -6.111,3.761 -6.132,3.664 -6.085,3.529 -6.071,3.431 -6.064,3.365 -5.943,3.273 -5.9,3.211 -5.831,3.117 -5.771,3.006 -5.685,2.925 -5.769,2.869 -5.81,2.843 -5.857,2.752 -5.876,2.714 -5.958,2.564 -5.939,2.537 -5.845,2.386 -5.753,2.244 -5.64,2.109 -5.763,2.058 -5.79,2.004 -5.868,1.892 -5.941,1.785 -5.941,1.746 -5.941,1.613 l -0.043,0.043 c 0,-0.121 -0.037,-0.301 0.002,-0.414 0.055,-0.164 0.108,-0.326 0.162,-0.488 0.018,-0.055 0.034,-0.112 0.051,-0.168 0.03,-0.098 -0.013,-0.098 -0.097,-0.163 -0.102,-0.08 -0.205,-0.189 -0.311,-0.24 -0.268,-0.135 -0.506,-0.312 -0.668,-0.572 -0.158,-0.25 -0.225,-0.543 -0.25,-0.832 -0.004,-0.031 -0.006,-0.063 -0.01,-0.094 0.114,0 0.221,-0.004 0.33,0.016 0.137,0.023 0.266,0.049 0.403,0.049 l -0.022,-0.022 c 0.36,0.018 0.715,0.022 1.076,0.022 l 0,-0.043 c 0.127,0.095 0.245,0.174 0.338,0.3 0.1,0.131 0.137,0.252 0.137,0.415 0,0.07 -0.014,0.113 0.039,0.164 0.076,0.076 0.076,0.089 0.184,0.08 0.162,-0.014 0.246,-0.061 0.384,-0.145 0.106,-0.062 0.245,-0.242 0.366,-0.121 0.021,0.023 0.133,0.111 0.123,0.15 -0.016,0.075 -0.024,0.155 -0.057,0.221 -0.031,0.061 -0.072,0.115 -0.072,0.184 0,0.107 0.015,0.127 0.082,0.215 0.043,0.058 0.092,0.115 0.139,0.171 0.062,0.073 0.089,0.073 0.039,0.163 -0.043,0.076 -0.051,0.132 -0.065,0.22 -0.008,0.061 -0.07,0.133 -0.086,0.199 -0.039,0.157 -0.008,0.28 0.043,0.432 l 0,-0.021 c 0.063,0.152 0.096,0.281 0.123,0.447 0.01,0.053 -0.031,0.1 -0.041,0.152 -0.011,0.071 -0.039,0.149 -0.039,0.217 0,0.125 0.041,0.289 0.16,0.352 0.076,0.041 0.149,0.082 0.225,0.121 0.012,0.006 0.141,-0.168 0.156,-0.186 0.074,-0.092 0.149,-0.252 0.149,-0.371 0,-0.16 -0.09,-0.31 -0.151,-0.459 C -3.189,1.488 -3.036,1.349 -2.974,1.248 -2.946,1.209 -2.87,1.16 -2.862,1.113 -2.845,1.007 -2.843,0.984 -2.89,0.89 -2.917,0.838 -3.019,0.699 -2.948,0.644 -2.862,0.576 -2.777,0.509 -2.691,0.443 -2.64,0.402 -2.48,0.318 -2.454,0.256 -2.429,0.193 -2.527,0.029 -2.562,-0.024 l 0,0.024 c -0.009,-0.1 -0.033,-0.172 0.012,-0.258 0.041,-0.088 0.09,-0.172 0.137,-0.258 0.051,-0.092 -0.08,-0.146 -0.135,-0.186 -0.066,-0.048 -0.131,-0.105 -0.189,-0.164 -0.262,-0.261 -0.448,-0.552 -0.579,-0.902 0.274,-0.025 0.549,-0.068 0.823,-0.059 0.321,0.01 0.643,0.022 0.964,0.041 0.085,0.006 0.173,0.01 0.257,0.016 0.073,0.004 0.08,0.022 0.125,0.082 0.043,0.057 0.098,0.102 0.139,0.156 0.045,0.059 0.074,0.133 0.113,0.196 0.03,0.049 0.127,0.334 0.168,0.322 0.133,-0.045 0.282,-0.086 0.422,-0.086 0.059,0 0.143,-0.025 0.17,0.033 0.023,0.047 0.061,0.086 0.076,0.137 0.016,0.055 0.035,0.109 0.041,0.166 0.006,0.045 -0.004,0.135 0.026,0.17 0.05,0.053 0.097,0.109 0.146,0.162 0.033,0.039 0.018,0.096 0.018,0.145 C 0.172,-0.198 0.062,-0.065 0,0"
             style="fill:#231f20;fill-opacity:1;fill-rule:evenodd;stroke:none"
             id="path3975" />
        </g>
      </g>
    </g>
  </g>
</svg>
