<?xml version="1.0" encoding="UTF-8" standalone="no"?>
<!-- Created with Inkscape (http://www.inkscape.org/) -->

<svg
   xmlns:dc="http://purl.org/dc/elements/1.1/"
   xmlns:cc="http://creativecommons.org/ns#"
   xmlns:rdf="http://www.w3.org/1999/02/22-rdf-syntax-ns#"
   xmlns:svg="http://www.w3.org/2000/svg"
   xmlns="http://www.w3.org/2000/svg"
   xmlns:sodipodi="http://sodipodi.sourceforge.net/DTD/sodipodi-0.dtd"
   xmlns:inkscape="http://www.inkscape.org/namespaces/inkscape"
   width="71.860046"
   height="71.867165"
   id="svg7196"
   version="1.1"
   inkscape:version="0.48.3.1 r9886"
   sodipodi:docname="New document 63">
  <defs
     id="defs7198">
    <clipPath
       clipPathUnits="userSpaceOnUse"
       id="clipPath3821">
      <path
         inkscape:connector-curvature="0"
         d="m 27,45 513.125,0 0,693.25 L 27,738.25 27,45 z"
         id="path3823" />
    </clipPath>
  </defs>
  <sodipodi:namedview
     id="base"
     pagecolor="#ffffff"
     bordercolor="#666666"
     borderopacity="1.0"
     inkscape:pageopacity="0.0"
     inkscape:pageshadow="2"
     inkscape:zoom="0.35"
     inkscape:cx="35.924108"
     inkscape:cy="35.920152"
     inkscape:document-units="px"
     inkscape:current-layer="layer1"
     showgrid="false"
     fit-margin-top="0"
     fit-margin-left="0"
     fit-margin-right="0"
     fit-margin-bottom="0"
     inkscape:window-width="451"
     inkscape:window-height="415"
     inkscape:window-x="25"
     inkscape:window-y="25"
     inkscape:window-maximized="0" />
  <metadata
     id="metadata7201">
    <rdf:RDF>
      <cc:Work
         rdf:about="">
        <dc:format>image/svg+xml</dc:format>
        <dc:type
           rdf:resource="http://purl.org/dc/dcmitype/StillImage" />
        <dc:title></dc:title>
      </cc:Work>
    </rdf:RDF>
  </metadata>
  <g
     inkscape:label="Layer 1"
     inkscape:groupmode="layer"
     id="layer1"
     transform="translate(-339.07589,-496.41517)">
    <g
       transform="matrix(1.25,0,0,-1.25,-12.621781,923.67921)"
       id="g3817">
      <g
         id="g3819"
         clip-path="url(#clipPath3821)">
        <g
           id="g3825"
           transform="translate(311.9463,285.3175)">
          <path
             inkscape:connector-curvature="0"
             d="m 0,0 c -1.022,-1.022 -2.678,-1.022 -3.697,0 l -25.887,25.887 c -1.022,1.021 -1.022,2.677 0,3.699 l 25.887,25.887 c 1.019,1.021 2.675,1.021 3.697,0 L 25.887,29.586 c 1.021,-1.022 1.021,-2.678 0,-3.699 L 0,0 z"
             style="fill:#fccf34;fill-opacity:1;fill-rule:nonzero;stroke:none"
             id="path3827" />
        </g>
        <g
           id="g3829"
           transform="translate(311.9463,285.3175)">
          <path
             inkscape:connector-curvature="0"
             d="m 0,0 c -1.022,-1.022 -2.678,-1.022 -3.697,0 l -25.887,25.887 c -1.022,1.021 -1.022,2.677 0,3.699 l 25.887,25.887 c 1.019,1.021 2.675,1.021 3.697,0 L 25.887,29.586 c 1.021,-1.022 1.021,-2.678 0,-3.699 L 0,0 z"
             style="fill:none;stroke:#231f20;stroke-width:0.5;stroke-linecap:butt;stroke-linejoin:miter;stroke-miterlimit:4;stroke-opacity:1;stroke-dasharray:none"
             id="path3831" />
        </g>
        <g
           id="g3833"
           transform="translate(310.7133,286.5495)">
          <path
             inkscape:connector-curvature="0"
             d="m 0,0 c -0.339,-0.34 -0.892,-0.34 -1.232,0 l -25.887,25.887 c -0.34,0.34 -0.34,0.893 0,1.232 l 25.887,25.889 c 0.34,0.34 0.893,0.34 1.232,0 L 25.887,27.119 c 0.34,-0.339 0.34,-0.892 0,-1.232 L 0,0 z M 26.627,27.86 0.741,53.748 c -0.748,0.746 -1.965,0.746 -2.713,0 L -27.859,27.86 c -0.748,-0.746 -0.748,-1.965 0,-2.711 L -1.972,-0.738 c 0.748,-0.748 1.965,-0.748 2.713,0 l 25.886,25.887 c 0.748,0.746 0.748,1.965 0,2.711"
             style="fill:#231f20;fill-opacity:1;fill-rule:nonzero;stroke:none"
             id="path3835" />
        </g>
        <g
           id="g3837"
           transform="translate(325.2083,304.0925)">
          <path
             inkscape:connector-curvature="0"
             d="M 0,0 C -0.047,0.131 -0.086,0.27 -0.141,0.399 -0.196,0.526 -0.233,0.672 -0.33,0.772 -0.395,0.836 -0.457,0.899 -0.522,0.963 -0.563,1.004 -0.668,1 -0.725,1.01 -0.836,1.032 -1.022,0.983 -1.112,0.916 -1.178,0.867 -1.229,0.846 -1.309,0.821 -1.346,0.807 -1.457,0.864 -1.473,0.901 -1.5,0.967 -1.541,1.02 -1.524,1.092 c 0.018,0.061 0.069,0.158 0.057,0.223 -0.016,0.08 -0.029,0.16 -0.045,0.24 -0.012,0.062 -0.102,0.146 -0.137,0.199 -0.088,0.125 -0.207,0.231 -0.31,0.342 -0.164,0.174 -0.309,0.41 -0.412,0.627 -0.124,0.264 -0.27,0.523 -0.37,0.795 -0.127,0.344 -0.252,0.687 -0.379,1.031 -0.093,0.256 -0.144,0.531 -0.214,0.795 -0.075,0.285 -0.151,0.563 -0.192,0.854 -0.019,0.136 -0.021,0.304 -0.146,0.388 -0.131,0.086 -0.307,0.129 -0.451,0.186 -0.264,0.105 -0.526,0.222 -0.758,0.385 -0.266,0.183 -0.41,0.427 -0.576,0.699 -0.139,0.226 -0.077,0.603 -0.077,0.855 0,0.113 0.034,0.235 0.049,0.344 0.03,0.207 0.061,0.412 0.09,0.619 0.078,0.527 0.106,1.066 0.127,1.598 0.023,0.562 0.084,1.136 -0.018,1.693 -0.048,0.274 -0.152,0.522 -0.25,0.781 -0.031,0.088 -0.052,0.196 -0.107,0.272 -0.088,0.125 -0.176,0.248 -0.264,0.373 0.155,-0.045 0.309,-0.088 0.465,-0.133 0.135,-0.039 0.268,-0.135 0.393,-0.199 0.133,-0.07 0.179,-0.143 0.269,-0.264 0.075,-0.097 0.178,-0.197 0.215,-0.314 0.09,-0.291 0.209,-0.573 0.229,-0.875 0.011,-0.172 0.023,-0.344 0.035,-0.516 0.008,-0.113 -0.035,-0.25 -0.053,-0.361 -0.035,-0.256 -0.096,-0.52 -0.111,-0.78 -0.016,-0.269 0.013,-0.55 0.021,-0.822 0.006,-0.238 0.028,-0.476 0.041,-0.715 0.016,-0.218 0.078,-0.433 0.125,-0.646 l 0.139,0.486 c 0.037,-0.16 0.074,-0.322 0.111,-0.484 0.03,-0.121 0.073,-0.184 0.145,-0.287 0.109,-0.158 0.219,-0.317 0.326,-0.475 0.074,-0.107 0.105,-0.252 0.15,-0.373 0.047,-0.127 0.082,-0.223 0.096,-0.355 0.02,-0.17 0.037,-0.34 0.055,-0.512 0.017,-0.154 0.047,-0.311 0.07,-0.467 C -3.18,6.252 -3.182,6.18 -3.162,6.137 -3.141,6.09 -3.084,6.045 -3.053,6.004 -2.934,5.864 -2.817,5.721 -2.698,5.58 -2.774,5.774 -2.85,5.965 -2.926,6.16 -2.985,6.311 -2.983,6.487 -3,6.649 l 0.302,-0.35 C -2.743,6.446 -2.789,6.59 -2.834,6.735 -2.871,6.854 -2.854,7.012 -2.86,7.137 -2.786,7.035 -2.682,6.94 -2.666,6.813 -2.645,6.649 -2.625,6.487 -2.604,6.323 l 0.139,0.513 C -2.418,6.52 -2.377,6.207 -2.34,5.891 -2.325,5.75 -2.356,5.67 -2.401,5.532 -2.454,5.369 -2.506,5.207 -2.557,5.045 l 0.463,0.559 -0.139,-0.512 0.256,0.232 0.07,-0.441 0.303,0.742 C -1.627,5.389 -1.651,5.153 -1.674,4.916 -1.682,4.83 -1.741,4.733 -1.772,4.653 -1.817,4.535 -1.862,4.418 -1.907,4.301 l 0.348,0.441 C -1.582,4.594 -1.592,4.434 -1.639,4.289 -1.698,4.108 -1.756,3.924 -1.813,3.742 c 0.135,0.188 0.27,0.377 0.406,0.565 0.043,0.062 0.053,0.162 0.075,0.232 0.033,0.116 0.066,0.229 0.099,0.344 L -1.209,4.487 -1,5.022 -1,4.58 c 0.089,0.139 0.181,0.28 0.271,0.42 0.068,0.102 0.045,0.26 0.053,0.379 0.008,0.119 0.051,0.287 0.019,0.404 -0.047,0.18 -0.091,0.36 -0.138,0.54 -0.076,0.292 -0.229,0.56 -0.358,0.835 -0.119,0.25 -0.252,0.495 -0.381,0.741 -0.162,0.316 -0.259,0.64 -0.349,0.982 l 0.347,-0.162 c -0.085,0.143 -0.171,0.285 -0.257,0.43 -0.063,0.103 -0.059,0.263 -0.077,0.381 -0.05,0.304 -0.07,0.593 -0.085,0.9 -0.03,0.65 -0.112,1.293 -0.182,1.939 -0.027,0.252 -0.094,0.479 -0.16,0.721 -0.041,0.147 -0.082,0.293 -0.121,0.44 -0.034,0.121 -0.149,0.253 -0.213,0.361 -0.084,0.142 -0.166,0.285 -0.25,0.426 -0.02,0.031 -0.071,0.06 -0.1,0.082 -0.086,0.07 -0.172,0.14 -0.258,0.209 -0.244,0.197 -0.529,0.338 -0.8,0.494 -0.096,0.055 -0.188,0.088 -0.291,0.123 -0.147,0.053 -0.307,0.139 -0.459,0.166 -0.143,0.025 -0.315,0 -0.459,0 -0.125,0 -0.274,0.021 -0.397,-0.004 -0.139,-0.031 -0.297,-0.09 -0.441,-0.09 -0.137,0 -0.303,-0.027 -0.436,0.004 -0.178,0.039 -0.353,0.08 -0.529,0.121 -0.104,0.024 -0.219,0.049 -0.307,0.108 -0.129,0.08 -0.267,0.199 -0.408,0.255 -0.125,0.049 -0.25,0.1 -0.373,0.149 -0.266,0.103 -0.535,0.246 -0.815,0.308 -0.195,0.045 -0.39,0.088 -0.585,0.133 -0.1,0.022 -0.206,0.059 -0.309,0.063 -0.191,0.011 -0.385,0.021 -0.576,0.031 -0.125,0.008 -0.233,0.018 -0.354,-0.008 -0.334,-0.07 -0.644,-0.174 -0.968,-0.281 -0.166,-0.055 -0.329,-0.111 -0.504,-0.123 -0.717,-0.047 -1.434,-0.094 -2.151,-0.143 -0.644,-0.041 -1.289,-0.084 -1.935,-0.127 -0.045,-0.002 -0.088,0.01 -0.133,0.02 -0.188,0.039 -0.373,0.076 -0.559,0.115 -0.289,0.061 -0.586,0.082 -0.84,0.233 -0.082,0.046 -0.162,0.093 -0.244,0.142 0.254,-0.025 0.496,-0.082 0.744,-0.14 -0.13,0.132 -0.263,0.265 -0.394,0.396 -0.108,0.107 -0.305,0.127 -0.445,0.172 -0.153,0.049 -0.293,0.182 -0.426,0.269 -0.125,0.082 -0.256,0.155 -0.385,0.233 l 0.606,-0.047 c -0.237,0.086 -0.473,0.174 -0.709,0.256 -0.1,0.035 -0.215,0.058 -0.305,0.117 -0.119,0.076 -0.238,0.154 -0.36,0.232 0.249,-0.05 0.497,-0.093 0.745,-0.14 -0.139,0.125 -0.278,0.25 -0.416,0.375 -0.116,0.105 -0.295,0.14 -0.44,0.195 -0.152,0.059 -0.295,0.18 -0.433,0.27 -0.127,0.078 -0.256,0.152 -0.385,0.23 l 0.629,-0.047 c -0.092,0.047 -0.174,0.078 -0.244,0.151 -0.09,0.089 -0.18,0.177 -0.268,0.267 l 0.533,-0.092 c -0.133,0.141 -0.265,0.282 -0.398,0.422 -0.082,0.088 -0.162,0.174 -0.244,0.26 -0.051,0.055 -0.096,0.115 -0.161,0.15 -0.378,0.2 -0.761,0.381 -1.148,0.563 0.166,-0.037 0.33,-0.072 0.496,-0.107 0.121,-0.028 0.293,0.07 0.41,0.107 -0.16,0.049 -0.322,0.098 -0.482,0.146 -0.135,0.041 -0.25,0.161 -0.362,0.243 -0.111,0.082 -0.228,0.152 -0.341,0.226 -0.106,0.07 -0.211,0.154 -0.326,0.209 -0.266,0.125 -0.528,0.266 -0.801,0.375 -0.178,0.07 -0.354,0.141 -0.532,0.211 -0.117,0.049 -0.222,0.096 -0.347,0.113 -0.076,0.01 -0.153,0.022 -0.229,0.032 -0.041,0.005 -0.064,0.056 -0.09,0.088 -0.085,0.107 -0.164,0.187 -0.267,0.275 -0.088,0.072 -0.154,0.133 -0.221,0.223 -0.078,0.107 -0.15,0.222 -0.234,0.326 -0.043,0.051 -0.16,0.254 -0.223,0.254 -0.045,0 -0.156,0.021 -0.195,0 -0.026,-0.016 -0.086,-0.135 -0.092,-0.164 -0.01,-0.049 0.016,-0.125 0.022,-0.174 0.007,-0.057 0.007,-0.123 0.025,-0.178 0.037,-0.123 0.076,-0.246 0.115,-0.369 -0.066,0.029 -0.133,0.058 -0.199,0.088 -0.051,0.021 -0.139,0.041 -0.18,0.082 -0.101,0.101 -0.199,0.207 -0.308,0.299 -0.065,0.052 -0.129,0.103 -0.194,0.158 -0.009,0.006 -0.076,-0.037 -0.088,-0.043 -0.017,-0.008 -0.007,-0.07 -0.007,-0.088 0,-0.072 -0.018,-0.17 0,-0.24 0.019,-0.076 0.086,-0.16 0.125,-0.231 0.046,-0.088 0.462,-0.658 0.421,-0.683 -0.25,-0.159 -0.5,-0.317 -0.742,-0.487 -0.146,-0.103 -0.295,-0.207 -0.441,-0.31 -0.098,-0.069 -0.238,-0.106 -0.315,-0.197 -0.043,-0.053 -0.091,-0.09 -0.099,-0.159 -0.004,-0.045 0.008,-0.185 -0.024,-0.215 -0.123,-0.125 -0.248,-0.25 -0.373,-0.375 -0.197,-0.195 -0.406,-0.378 -0.611,-0.566 -0.225,-0.203 -0.426,-0.424 -0.695,-0.56 -0.141,-0.071 -0.266,-0.149 -0.399,-0.233 -0.043,-0.027 -0.064,-0.144 -0.084,-0.191 -0.027,-0.071 -0.017,-0.139 -0.017,-0.213 0,-0.141 -0.047,-0.274 -0.047,-0.414 0,-0.129 -0.02,-0.313 0.037,-0.426 0.033,-0.066 0.047,-0.152 0.123,-0.164 0.115,-0.02 0.103,-0.039 0.141,-0.15 0.007,-0.026 0.146,-0.051 0.171,-0.059 0.088,-0.029 0.176,-0.055 0.264,-0.084 0.131,-0.041 0.233,-0.135 0.369,-0.168 0.035,-0.01 0.147,-0.043 0.18,-0.039 0.115,0.01 0.275,0.185 0.342,0.252 0.072,0.072 0.14,0.262 0.234,0.285 0.184,0.045 0.365,0.088 0.547,0.133 0.127,0.029 0.252,0.062 0.379,0.086 0.066,0.011 0.135,0.019 0.199,0.043 0.059,0.021 0.121,0.06 0.184,0.052 0.187,-0.019 0.377,-0.039 0.566,-0.056 0.137,-0.016 0.274,0.023 0.408,0.047 0.139,0.023 0.274,0.068 0.409,0.105 0.097,0.028 0.105,0.078 0.154,-0.021 0.021,-0.043 0.035,-0.092 0.051,-0.139 0.138,-0.42 0.281,-0.838 0.425,-1.256 0.047,-0.137 0.17,-0.474 0.219,-0.609 0.113,-0.324 0.227,-0.647 0.338,-0.969 0.102,-0.287 0.217,-0.566 0.324,-0.85 0.065,-0.171 0.131,-0.343 0.198,-0.517 0.041,-0.108 0.037,-0.186 0.037,-0.305 0,-0.123 0.007,-0.234 -0.022,-0.353 -0.045,-0.18 -0.09,-0.36 -0.135,-0.539 -0.07,-0.28 -0.05,-0.588 -0.013,-0.872 0.011,-0.08 0.056,-0.14 0.097,-0.21 0.092,-0.165 0.184,-0.331 0.278,-0.495 0.179,-0.32 0.359,-0.638 0.539,-0.959 0.107,-0.189 -0.203,-0.505 -0.305,-0.654 C -23.36,8.561 -23.493,8.367 -23.625,8.174 -23.86,7.828 -24.094,7.483 -24.329,7.139 -24.452,6.961 -24.571,6.744 -24.723,6.592 -24.84,6.475 -24.961,6.362 -25.082,6.25 -25.19,6.153 -25.26,6.028 -25.34,5.907 -25.368,5.864 -25.37,5.774 -25.379,5.725 -25.397,5.637 -25.416,5.551 -25.434,5.465 -25.457,5.358 -25.481,5.25 -25.502,5.141 -25.627,4.563 -25.735,3.975 -25.924,3.412 -26.039,3.074 -26.155,2.739 -26.268,2.401 -26.315,2.268 -26.311,2.098 -26.33,1.957 -26.35,1.815 -26.34,1.67 -26.34,1.526 c 0,-0.118 0.015,-0.282 -0.026,-0.389 -0.056,-0.15 -0.109,-0.291 -0.191,-0.428 -0.07,-0.117 -0.086,-0.217 -0.113,-0.353 -0.039,-0.198 -0.078,-0.397 -0.119,-0.594 -0.024,-0.121 -0.03,-0.242 -0.04,-0.363 -10e-4,-0.018 0.172,-0.08 0.196,-0.09 0.047,-0.022 0.154,0.037 0.199,0.053 0.26,0.08 0.539,0.177 0.754,0.347 0.08,0.065 0.16,0.131 0.242,0.194 0.037,0.031 0.098,0.062 0.125,0.103 0.047,0.07 0.094,0.141 0.141,0.211 0.029,0.045 0.09,0.102 0.084,0.156 -0.012,0.159 -0.026,0.295 -0.065,0.448 -0.023,0.086 -0.045,0.169 -0.068,0.255 -0.014,0.051 -0.111,0.067 -0.121,0.114 -0.014,0.08 -0.029,0.158 -0.043,0.24 -0.01,0.051 0.064,0.146 0.088,0.193 0.027,0.055 0.092,0.09 0.119,0.145 0.037,0.07 0.047,0.172 0.066,0.25 0.075,0.279 0.096,0.566 0.096,0.855 0,0.313 0.062,0.612 0.113,0.92 0.02,0.119 0.094,0.242 0.139,0.354 0.057,0.135 0.1,0.283 0.168,0.412 0.146,0.281 0.295,0.549 0.467,0.816 0.146,0.225 0.406,0.397 0.615,0.561 0.234,0.181 0.463,0.381 0.707,0.551 0.232,0.16 0.486,0.293 0.732,0.431 0.155,0.086 0.344,0.16 0.481,0.27 0.166,0.131 0.332,0.263 0.498,0.394 0.17,0.137 0.342,0.272 0.512,0.408 0.064,0.051 0.132,0.098 0.199,0.145 0.088,0.064 0.074,0.123 0.09,0.234 0.066,-0.023 0.136,-0.045 0.205,-0.068 0.015,-0.006 0.025,-0.078 0.029,-0.092 0.055,-0.183 0.109,-0.367 0.164,-0.551 0.076,-0.259 0.166,-0.513 0.207,-0.781 0.047,-0.301 0.094,-0.599 0.137,-0.9 0.029,-0.192 0.058,-0.385 0.086,-0.578 0.017,-0.117 0.025,-0.242 0.062,-0.356 0.049,-0.148 0.049,-0.32 0.067,-0.474 0.015,-0.125 0.029,-0.248 0.043,-0.373 0.031,-0.278 0.035,-0.623 0.195,-0.864 0.092,-0.138 0.162,-0.22 0.287,-0.326 0.098,-0.08 0.193,-0.162 0.291,-0.242 0.266,-0.221 0.531,-0.441 0.795,-0.662 0.229,-0.192 0.42,-0.447 0.621,-0.666 0.194,-0.205 0.385,-0.408 0.584,-0.608 0.391,-0.39 0.967,-0.697 1.502,-0.828 0.158,-0.039 0.332,-0.045 0.492,-0.066 0.145,-0.02 0.278,-0.027 0.422,-0.027 0.356,0 0.051,0.541 -0.017,0.699 -0.047,0.111 -0.081,0.248 -0.163,0.34 -0.119,0.132 -0.238,0.265 -0.357,0.398 -0.037,0.041 -0.1,0.07 -0.144,0.102 -0.051,0.035 -0.116,0.101 -0.178,0.115 -0.045,0.01 -0.162,0.06 -0.203,0.037 -0.078,-0.043 -0.157,-0.084 -0.237,-0.129 -0.052,-0.029 -0.099,-0.078 -0.146,-0.117 -0.018,-0.016 -0.172,-0.016 -0.192,-0.002 -0.029,0.021 -0.154,0.084 -0.16,0.117 -0.015,0.088 -0.029,0.178 -0.045,0.266 -0.045,0.273 -0.324,0.459 -0.541,0.601 -0.277,0.18 -0.543,0.365 -0.806,0.565 -0.217,0.164 -0.459,0.324 -0.588,0.566 -0.137,0.258 -0.256,0.535 -0.252,0.836 0.008,0.34 0.014,0.68 0.019,1.018 0.01,0.533 0.11,1.058 0.147,1.589 0.015,0.215 0.031,0.43 0.047,0.645 0.004,0.074 -0.014,0.275 0.043,0.305 0.029,0.015 0.105,0 0.134,0 l 0.323,0 c 0.131,0 0.279,-0.02 0.408,0.002 0.281,0.045 0.588,0.058 0.861,0.138 0.311,0.092 0.621,0.184 0.932,0.274 0.598,0.176 1.195,0.351 1.795,0.527 0.226,0.068 0.451,0.137 0.676,0.215 0.291,0.103 0.599,0.185 0.88,0.314 0.338,0.153 0.674,0.307 1.012,0.459 0.008,-0.332 0.014,-0.666 0.022,-1 0.006,-0.285 0.103,-0.576 0.162,-0.855 0.111,-0.533 0.363,-1.012 0.57,-1.512 C -9.977,6.117 -9.842,5.821 -9.745,5.508 -9.731,5.461 -9.69,5.389 -9.696,5.338 -9.705,5.246 -9.715,5.155 -9.725,5.061 -9.739,4.932 -9.758,4.815 -9.838,4.707 -10.207,4.215 -10.582,3.731 -10.989,3.27 -11.385,2.823 -11.864,2.44 -12.313,2.043 -12.422,1.948 -12.508,1.84 -12.6,1.727 -12.678,1.633 -12.657,1.416 -12.668,1.297 -12.684,1.158 -12.655,1.055 -12.717,0.93 -12.789,0.785 -12.864,0.643 -12.94,0.5 c -0.146,-0.273 -0.195,-0.56 -0.267,-0.859 -0.028,-0.121 -0.092,-0.268 -0.092,-0.391 0,-0.097 -0.026,-0.127 0.068,-0.154 0.065,-0.02 0.133,-0.057 0.201,-0.039 0.282,0.074 0.545,0.172 0.789,0.34 0.161,0.111 0.319,0.22 0.479,0.332 0.027,0.017 0.088,0.043 0.094,0.078 0.007,0.074 0.015,0.15 0.031,0.225 0.016,0.068 0.043,0.13 0.023,0.199 -0.017,0.066 -0.025,0.168 -0.066,0.222 -0.065,0.086 -0.254,0.278 -0.201,0.383 0.037,0.074 0.115,0.059 0.193,0.069 0.065,0.007 0.137,0.076 0.192,0.111 0.085,0.055 0.156,0.226 0.212,0.318 0.174,0.283 0.366,0.539 0.569,0.801 0.187,0.242 0.422,0.457 0.631,0.682 0.152,0.162 0.338,0.297 0.505,0.441 0.317,0.272 0.633,0.543 0.95,0.813 0.183,0.158 0.365,0.314 0.547,0.472 0.113,0.098 0.212,0.156 0.222,0.317 0.006,0.058 -0.043,0.144 -0.015,0.197 0.031,0.064 -0.008,0.146 -0.022,0.217 -0.047,0.222 -0.113,0.41 -0.197,0.623 -0.037,0.093 -0.074,0.189 -0.113,0.285 -0.034,0.084 -0.03,0.201 -0.043,0.289 -0.032,0.211 -0.051,0.4 -0.051,0.613 l 0,0.373 c 0,0.09 0.049,0.196 0.07,0.285 0.217,-0.168 0.43,-0.341 0.66,-0.492 0.242,-0.156 0.492,-0.297 0.707,-0.488 0.477,-0.426 0.952,-0.854 1.43,-1.279 0.096,-0.086 0.191,-0.172 0.287,-0.258 0.115,-0.102 0.262,-0.201 0.358,-0.32 0.203,-0.254 0.382,-0.508 0.558,-0.78 0.164,-0.252 0.289,-0.537 0.43,-0.801 0.142,-0.273 0.275,-0.552 0.414,-0.83 0.258,-0.515 0.469,-1.06 0.67,-1.601 0.037,-0.104 0.138,-0.221 0.23,-0.281 0.053,-0.036 0.125,-0.11 0.188,-0.125 0.088,-0.022 0.176,-0.043 0.263,-0.067 0.307,-0.076 0.44,-0.344 0.594,-0.582 0.037,-0.06 0.106,-0.207 0.168,-0.236 0.08,-0.037 0.158,-0.076 0.238,-0.113 0.286,-0.139 0.573,-0.278 0.86,-0.415 0.027,-0.015 0.139,-0.089 0.162,-0.062 0.021,0.025 0.105,0.098 0.105,0.131 l 0,0.197 C 0.091,-0.437 0.037,-0.218 0,0"
             style="fill:#231f20;fill-opacity:1;fill-rule:evenodd;stroke:none"
             id="path3839" />
        </g>
      </g>
    </g>
  </g>
</svg>
