<?xml version="1.0" encoding="UTF-8" standalone="no"?>
<!-- Created with Inkscape (http://www.inkscape.org/) -->

<svg
   xmlns:dc="http://purl.org/dc/elements/1.1/"
   xmlns:cc="http://creativecommons.org/ns#"
   xmlns:rdf="http://www.w3.org/1999/02/22-rdf-syntax-ns#"
   xmlns:svg="http://www.w3.org/2000/svg"
   xmlns="http://www.w3.org/2000/svg"
   xmlns:sodipodi="http://sodipodi.sourceforge.net/DTD/sodipodi-0.dtd"
   xmlns:inkscape="http://www.inkscape.org/namespaces/inkscape"
   width="71.858017"
   height="71.867165"
   id="svg6560"
   version="1.1"
   inkscape:version="0.48.3.1 r9886"
   sodipodi:docname="New document 45">
  <defs
     id="defs6562">
    <clipPath
       clipPathUnits="userSpaceOnUse"
       id="clipPath4459">
      <path
         inkscape:connector-curvature="0"
         d="m 27,45 513.125,0 0,693.25 L 27,738.25 27,45 z"
         id="path4461" />
    </clipPath>
  </defs>
  <sodipodi:namedview
     id="base"
     pagecolor="#ffffff"
     bordercolor="#666666"
     borderopacity="1.0"
     inkscape:pageopacity="0.0"
     inkscape:pageshadow="2"
     inkscape:zoom="0.35"
     inkscape:cx="35.92369"
     inkscape:cy="35.918242"
     inkscape:document-units="px"
     inkscape:current-layer="layer1"
     showgrid="false"
     fit-margin-top="0"
     fit-margin-left="0"
     fit-margin-right="0"
     fit-margin-bottom="0"
     inkscape:window-width="451"
     inkscape:window-height="415"
     inkscape:window-x="25"
     inkscape:window-y="25"
     inkscape:window-maximized="0" />
  <metadata
     id="metadata6565">
    <rdf:RDF>
      <cc:Work
         rdf:about="">
        <dc:format>image/svg+xml</dc:format>
        <dc:type
           rdf:resource="http://purl.org/dc/dcmitype/StillImage" />
        <dc:title></dc:title>
      </cc:Work>
    </rdf:RDF>
  </metadata>
  <g
     inkscape:label="Layer 1"
     inkscape:groupmode="layer"
     id="layer1"
     transform="translate(-339.07631,-496.41326)">
    <g
       transform="matrix(1.25,0,0,-1.25,113.61759,1045.8798)"
       id="g4455">
      <g
         id="g4457"
         clip-path="url(#clipPath4459)">
        <g
           id="g4463"
           transform="translate(210.9543,383.0795)">
          <path
             inkscape:connector-curvature="0"
             d="m 0,0 c -1.02,-1.022 -2.676,-1.022 -3.697,0 l -25.886,25.885 c -1.021,1.022 -1.021,2.678 0,3.7 L -3.697,55.47 c 1.021,1.021 2.677,1.021 3.697,0 L 25.887,29.584 c 1.02,-1.021 1.02,-2.677 0,-3.699 L 0,0 z"
             style="fill:#fccf34;fill-opacity:1;fill-rule:nonzero;stroke:none"
             id="path4465" />
        </g>
        <g
           id="g4467"
           transform="translate(210.9543,383.0795)">
          <path
             inkscape:connector-curvature="0"
             d="m 0,0 c -1.02,-1.022 -2.676,-1.022 -3.697,0 l -25.886,25.885 c -1.021,1.022 -1.021,2.678 0,3.7 L -3.697,55.47 c 1.021,1.021 2.677,1.021 3.697,0 L 25.887,29.584 c 1.02,-1.021 1.02,-2.677 0,-3.699 L 0,0 z"
             style="fill:none;stroke:#231f20;stroke-width:0.5;stroke-linecap:butt;stroke-linejoin:miter;stroke-miterlimit:4;stroke-opacity:1;stroke-dasharray:none"
             id="path4469" />
        </g>
        <g
           id="g4471"
           transform="translate(209.7223,384.3125)">
          <path
             inkscape:connector-curvature="0"
             d="m 0,0 c -0.34,-0.34 -0.893,-0.34 -1.233,0 l -25.886,25.885 c -0.34,0.341 -0.34,0.894 0,1.233 l 25.886,25.886 c 0.34,0.341 0.893,0.341 1.233,0 L 25.886,27.118 c 0.34,-0.339 0.34,-0.892 0,-1.233 L 0,0 z M 26.625,27.857 0.74,53.744 c -0.748,0.748 -1.965,0.748 -2.713,0 L -27.858,27.857 c -0.748,-0.746 -0.748,-1.963 0,-2.711 L -1.973,-0.74 c 0.748,-0.748 1.965,-0.748 2.713,0 l 25.885,25.886 c 0.748,0.748 0.748,1.965 0,2.711"
             style="fill:#231f20;fill-opacity:1;fill-rule:nonzero;stroke:none"
             id="path4473" />
        </g>
        <g
           id="g4475"
           transform="translate(212.3433,400.5625)">
          <path
             inkscape:connector-curvature="0"
             d="m 0,0 0.075,0.364 c 0.351,1.777 -0.25,2.757 -0.726,4.394 L 0.464,4.632 1.04,0.638 2.129,0.364 1.966,5.409 l -4.847,2.356 -0.112,0.036 -0.175,0.025 -0.15,0.012 -0.25,0 C -3.916,7.85 -4.5,7.55 -4.672,7.238 -5.483,6.201 -5.863,4.85 -6.086,3.568 L -9.278,1.303 -8.717,0.377 -5.309,1.729 -4.42,3.181 C -4.067,2.383 -3.71,1.637 -3.28,0.875 L -5.209,-3.02 -6.7,-9.191 l 1.84,-0.528 1.604,5.7 0.025,0.126 0.038,0.061 0.025,0.062 0.024,0.048 0.038,0.028 0.026,0.039 1.152,1.262 3.281,-7.575 1.452,1.14 L 0,0 z"
             style="fill:#231f20;fill-opacity:1;fill-rule:evenodd;stroke:none"
             id="path4477" />
        </g>
        <g
           id="g4479"
           transform="translate(206.1403,410.0375)">
          <path
             inkscape:connector-curvature="0"
             d="m 0,0 c 0.002,-0.038 0.004,-0.073 0.007,-0.108 0.003,-0.023 0.007,-0.049 0.01,-0.074 0,-0.01 0,-0.018 0.003,-0.025 0.198,-1.297 1.843,-1.651 2.579,-0.69 0.18,0.217 0.281,0.467 0.31,0.725 0.001,0 0.001,10e-4 0.001,10e-4 l 0,0.002 c 0.002,0.014 0.002,0.03 0.004,0.046 l 0.009,0.14 C 2.922,0.046 2.918,0.073 2.916,0.098 2.916,0.107 2.914,0.113 2.914,0.121 2.91,0.154 2.906,0.189 2.901,0.222 2.898,0.24 2.895,0.259 2.89,0.279 2.885,0.312 2.879,0.344 2.871,0.375 2.871,0.379 2.869,0.38 2.869,0.382 2.795,0.673 2.652,0.908 2.465,1.083 2.228,1.315 1.91,1.465 1.529,1.474 1.023,1.5 0.504,1.271 0.213,0.777 0.113,0.617 0.05,0.447 0.02,0.274 0.015,0.252 0.01,0.23 0.006,0.203 0.002,0.16 0,0.117 0,0.076 0,0.064 -0.001,0.052 -0.001,0.044 -0.001,0.028 0,0.013 0,0"
             style="fill:#231f20;fill-opacity:1;fill-rule:evenodd;stroke:none"
             id="path4481" />
        </g>
        <g
           id="g4483"
           transform="translate(213.0943,417.9435)">
          <path
             inkscape:connector-curvature="0"
             d="M 0,0 3.377,0.551 1.249,3.316 C 0.144,2.354 0.008,1.198 0,0 m -0.929,-0.202 c -0.006,0.12 -0.026,0.312 -0.026,0.446 0,1.369 0.444,2.699 1.644,3.805 l -1.251,1.497 -1.937,-5.907 1.57,0.159 z m -7.433,5.878 0.107,0.329 6.897,0.009 -1.835,-5.561 -0.08,0.579 0.212,0 -0.026,0.37 -0.923,0 0.026,-0.344 0.237,0 0.053,-0.631 c 0,0 -4.641,5.223 -4.668,5.249 m -3.054,-5.342 c 0.926,0.736 1.647,1.437 2.167,2.841 0.82,-0.745 1.288,-1.822 1.288,-2.931 0,-2.2 -1.796,-3.994 -3.994,-3.994 -2.2,0 -3.996,1.794 -3.996,3.994 0,2.201 1.796,3.996 3.996,3.996 0.7,0 1.419,-0.203 1.997,-0.545 -0.391,-1.239 -0.772,-1.877 -1.977,-2.847 -0.293,-0.012 -0.516,-0.247 -0.516,-0.528 0,-0.29 0.237,-0.527 0.528,-0.527 0.29,0 0.507,0.237 0.507,0.541 M 0.141,-0.849 C 0.593,-2.531 2.2,-3.75 3.979,-3.75 6.18,-3.75 7.973,-1.956 7.973,0.244 7.973,2.445 6.18,4.24 3.979,4.24 3.277,4.24 2.464,4.074 1.872,3.727 L 4.04,0.848 C 4.305,0.846 4.535,0.607 4.535,0.32 c 0,-0.29 -0.237,-0.527 -0.526,-0.527 -0.08,0 -0.165,0.021 -0.237,0.055 L 0.141,-0.849 z m -9.813,5.468 1.416,3.904 -0.45,0.765 0.896,0.976 1.926,0 0.027,-0.553 -1.688,0 -0.344,-0.369 0.396,-0.713 -0.497,-1.764 6.911,0 0.105,0.322 C -1.529,7.26 -2.487,7.603 -2.716,7.802 -2.944,8 -2.744,8.182 -2.486,8.191 -1.121,8.248 0.906,8.363 1.292,8.365 1.677,8.367 1.716,8.174 1.458,7.892 1.2,7.61 0.975,7.355 -0.001,7.204 L -0.266,6.492 1.37,4.467 c 0.771,0.468 1.703,0.711 2.609,0.711 2.717,0 4.932,-2.215 4.932,-4.934 0,-2.717 -2.215,-4.932 -4.932,-4.932 -2.236,0 -4.202,1.541 -4.779,3.67 L -2.304,-1.287 C -2.366,-1.464 -2.517,-1.6 -2.696,-1.705 l 0.268,-1.271 0.343,0 0.025,-0.343 -1.079,-0.053 0,0.37 0.263,0 -0.327,1.268 c -0.486,0.082 -0.741,0.497 -0.597,0.91 l -4.906,5.55 -0.221,-0.593 c 1.191,-0.94 1.904,-2.385 1.904,-3.889 0,-2.717 -2.216,-4.932 -4.932,-4.932 -2.718,0 -4.933,2.215 -4.933,4.932 0,2.719 2.215,4.934 4.933,4.934 0.789,0 1.598,-0.193 2.283,-0.559"
             style="fill:#231f20;fill-opacity:1;fill-rule:evenodd;stroke:none"
             id="path4485" />
        </g>
      </g>
    </g>
  </g>
</svg>
