<?xml version="1.0" encoding="UTF-8" standalone="no"?>
<!-- Created with Inkscape (http://www.inkscape.org/) -->

<svg
   xmlns:dc="http://purl.org/dc/elements/1.1/"
   xmlns:cc="http://creativecommons.org/ns#"
   xmlns:rdf="http://www.w3.org/1999/02/22-rdf-syntax-ns#"
   xmlns:svg="http://www.w3.org/2000/svg"
   xmlns="http://www.w3.org/2000/svg"
   xmlns:sodipodi="http://sodipodi.sourceforge.net/DTD/sodipodi-0.dtd"
   xmlns:inkscape="http://www.inkscape.org/namespaces/inkscape"
   width="71.875"
   height="71.914062"
   id="svg7114"
   version="1.1"
   inkscape:version="0.48.3.1 r9886"
   sodipodi:docname="New document 60">
  <defs
     id="defs7116" />
  <sodipodi:namedview
     id="base"
     pagecolor="#ffffff"
     bordercolor="#666666"
     borderopacity="1.0"
     inkscape:pageopacity="0.0"
     inkscape:pageshadow="2"
     inkscape:zoom="0.35"
     inkscape:cx="48.075047"
     inkscape:cy="44.52924"
     inkscape:document-units="px"
     inkscape:current-layer="layer1"
     showgrid="false"
     fit-margin-top="0"
     fit-margin-left="0"
     fit-margin-right="0"
     fit-margin-bottom="0"
     inkscape:window-width="451"
     inkscape:window-height="415"
     inkscape:window-x="175"
     inkscape:window-y="175"
     inkscape:window-maximized="0" />
  <metadata
     id="metadata7119">
    <rdf:RDF>
      <cc:Work
         rdf:about="">
        <dc:format>image/svg+xml</dc:format>
        <dc:type
           rdf:resource="http://purl.org/dc/dcmitype/StillImage" />
        <dc:title></dc:title>
      </cc:Work>
    </rdf:RDF>
  </metadata>
  <g
     inkscape:label="Layer 1"
     inkscape:groupmode="layer"
     id="layer1"
     transform="translate(-326.92495,-504.97736)">
    <g
       id="g4527"
       transform="matrix(1.25,0,0,-1.25,365.16714,575.60236)">
      <path
         d="m 0,0 c -0.51,-0.511 -1.179,-0.766 -1.848,-0.766 -0.669,0 -1.339,0.255 -1.849,0.766 L -16.64,12.942 -29.584,25.887 c -0.51,0.509 -0.765,1.178 -0.765,1.848 0,0.669 0.255,1.338 0.765,1.849 L -16.64,42.527 -3.697,55.47 c 0.51,0.51 1.18,0.766 1.849,0.766 0.669,0 1.338,-0.256 1.848,-0.766 L 12.946,42.527 25.888,29.584 c 0.51,-0.512 0.765,-1.18 0.765,-1.849 0,-0.67 -0.255,-1.339 -0.765,-1.848 L 12.946,12.942 0,0 z"
         style="fill:#fccf34;fill-opacity:1;fill-rule:nonzero;stroke:none"
         id="path4529"
         inkscape:connector-curvature="0" />
    </g>
    <g
       id="g4531"
       transform="matrix(1.25,0,0,-1.25,365.16714,575.60236)">
      <path
         d="m 0,0 c -0.51,-0.511 -1.179,-0.766 -1.848,-0.766 -0.669,0 -1.339,0.255 -1.849,0.766 L -16.64,12.942 -29.584,25.887 c -0.51,0.509 -0.765,1.178 -0.765,1.848 0,0.669 0.255,1.338 0.765,1.849 L -16.64,42.527 -3.697,55.47 c 0.51,0.51 1.18,0.766 1.849,0.766 0.669,0 1.338,-0.256 1.848,-0.766 L 12.946,42.527 25.888,29.584 c 0.51,-0.512 0.765,-1.18 0.765,-1.849 0,-0.67 -0.255,-1.339 -0.765,-1.848 L 12.946,12.942 0,0 z"
         style="fill:none;stroke:#231f20;stroke-width:0.5;stroke-linecap:butt;stroke-linejoin:miter;stroke-miterlimit:4;stroke-opacity:1;stroke-dasharray:none"
         id="path4533"
         inkscape:connector-curvature="0" />
    </g>
    <g
       id="g4535"
       transform="matrix(1.25,0,0,-1.25,363.62713,574.06236)">
      <path
         d="m 0,0 c -0.34,-0.34 -0.893,-0.34 -1.233,0 l -25.886,25.887 c -0.34,0.34 -0.34,0.893 0,1.232 l 25.886,25.886 c 0.34,0.341 0.893,0.341 1.233,0 L 25.887,27.119 c 0.34,-0.339 0.34,-0.892 0,-1.232 L 0,0 z M 26.627,27.86 0.74,53.744 c -0.748,0.748 -1.965,0.748 -2.713,0 L -27.859,27.86 c -0.746,-0.748 -0.746,-1.965 0,-2.713 L -1.973,-0.74 c 0.748,-0.748 1.965,-0.748 2.713,0 l 25.887,25.887 c 0.748,0.748 0.748,1.965 0,2.713"
         style="fill:#231f20;fill-opacity:1;fill-rule:nonzero;stroke:none"
         id="path4537"
         inkscape:connector-curvature="0" />
    </g>
    <g
       id="g4539"
       transform="matrix(1.25,0,0,-1.25,354.92338,532.85361)">
      <path
         d="m 0,0 c 0.063,-0.217 0.379,-0.214 0.551,-0.181 0.295,0.056 0.587,0.082 0.883,0.118 0.267,0.032 0.488,0.165 0.732,0.267 0.243,0.103 0.455,0.206 0.629,0.412 0.16,0.193 0.324,0.421 0.548,0.544 0.246,0.135 0.49,0.223 0.705,0.41 0.21,0.182 0.423,0.377 0.617,0.577 0.189,0.19 0.28,0.412 0.392,0.649 C 5.17,3.035 5.317,3.217 5.324,3.49 5.326,3.562 5.299,4.065 5.212,4.063 5.148,4.062 5.067,3.494 5.045,3.416 4.969,3.154 4.873,2.906 4.738,2.667 4.609,2.432 4.416,2.217 4.254,2.002 4.134,1.844 3.897,1.619 3.688,1.596 3.399,1.563 4.012,2.76 3.879,2.793 3.777,2.819 3.544,2.351 3.508,2.273 3.389,2.027 3.313,1.768 3.2,1.519 3.094,1.281 2.919,1.047 2.715,0.886 2.525,0.737 2.248,0.754 2.234,1.035 2.229,1.168 2.266,1.293 2.244,1.428 2.222,1.565 2.178,1.697 2.131,1.826 2.084,1.959 2.016,2.17 2.001,1.904 1.972,1.393 2.024,0.821 1.651,0.4 1.369,0.082 1.25,0.291 1.209,0.615 1.196,0.715 1.039,1.272 0.967,0.99 0.885,0.662 1.103,0.433 0.778,0.188 0.639,0.081 0.531,0.055 0.358,0.067 0.269,0.074 0.027,0.131 0,0 m -2.754,0.224 c 0.063,0.212 -0.183,0.311 -0.348,0.303 -0.269,-0.011 -0.517,0.012 -0.785,0.042 -0.238,0.027 -0.437,0.101 -0.554,0.324 -0.071,0.135 -0.156,0.631 -0.371,0.634 -0.143,0.004 0.017,-0.408 0.05,-0.499 0.066,-0.185 0.259,-0.485 0.135,-0.68 -0.129,-0.201 -0.464,-0.155 -0.646,-0.077 -0.11,0.045 -0.201,0.108 -0.282,0.194 -0.06,0.066 -0.103,0.236 -0.184,0.271 -0.193,0.085 -0.103,-0.21 -0.064,-0.295 0.093,-0.194 0.174,-0.466 -0.119,-0.532 -0.24,-0.054 -0.465,0.147 -0.662,0.244 -0.101,0.049 -0.519,0.1 -0.361,-0.126 0.158,-0.226 0.371,-0.306 0.627,-0.371 0.277,-0.07 0.455,-0.158 0.736,-0.045 0.275,0.111 0.547,0.227 0.827,0.323 0.268,0.091 0.55,0.099 0.823,0.159 0.208,0.045 0.414,0.126 0.628,0.134 0.138,0.005 0.449,-0.112 0.55,-0.003 M 3.265,0.735 C 3.84,0.772 4.399,0.854 4.976,0.815 5.531,0.778 6.045,0.574 6.539,0.333 7.081,0.066 7.612,-0.223 8.162,-0.475 8.697,-0.721 9.265,-0.844 9.83,-1.003 c 0.535,-0.151 1.012,-0.225 1.568,-0.151 0.571,0.078 1.172,0.123 1.729,0.273 0.549,0.151 1.023,0.362 1.607,0.311 0.557,-0.047 1.081,-0.149 1.547,-0.473 0.915,-0.636 1.723,-1.635 2.131,-2.667 0.196,-0.492 0.424,-1.071 0.23,-1.583 -0.206,-0.536 -0.052,-1.127 0.057,-1.666 0.114,-0.544 0.217,-1.096 0.264,-1.65 0.043,-0.529 -0.068,-1.188 0.18,-1.671 0.238,-0.464 0.749,-0.814 0.822,-1.362 0.039,-0.285 -0.041,-0.565 -0.02,-0.85 0.02,-0.266 0.094,-0.52 0.14,-0.781 0.105,-0.589 0.201,-1.186 0.36,-1.763 0.08,-0.281 0.178,-0.548 0.305,-0.812 0.108,-0.22 0.279,-0.466 0.241,-0.722 -0.034,-0.22 -0.253,-0.357 -0.29,-0.592 -0.04,-0.26 0.012,-0.508 0.065,-0.76 0.101,-0.492 -0.465,-0.922 -0.925,-0.857 -0.167,0.023 -0.562,-0.039 -0.679,0.095 -0.14,0.167 -0.011,0.532 0.028,0.716 0.111,0.513 0.511,0.908 0.559,1.439 0.05,0.553 -0.245,1.094 -0.397,1.613 -0.171,0.574 -0.33,1.151 -0.506,1.725 -0.082,0.269 -0.168,0.507 -0.334,0.738 -0.165,0.229 -0.331,0.436 -0.428,0.706 -0.094,0.264 -0.081,0.562 -0.191,0.819 -0.115,0.263 -0.274,0.454 -0.477,0.655 -0.394,0.388 -0.703,0.833 -0.984,1.312 -0.105,0.176 -0.614,1.313 -0.915,0.901 -0.111,-0.153 -0.064,-0.541 -0.064,-0.718 0,-0.281 0.005,-0.566 0.045,-0.846 0.084,-0.584 0.186,-1.113 0.526,-1.604 0.14,-0.206 0.382,-0.413 0.388,-0.674 0.006,-0.239 -0.138,-0.479 -0.219,-0.698 -0.209,-0.57 -0.351,-1.143 -0.451,-1.742 -0.046,-0.277 -0.083,-0.554 -0.123,-0.832 -0.039,-0.279 -0.113,-0.56 -0.115,-0.843 -0.002,-0.307 0.019,-0.553 -0.16,-0.817 -0.144,-0.216 -0.412,-0.344 -0.417,-0.627 -0.007,-0.297 0.034,-0.484 -0.142,-0.75 -0.11,-0.164 -0.419,-0.342 -0.611,-0.387 -0.195,-0.044 -0.577,-0.133 -0.714,0.041 -0.049,0.063 -0.043,0.18 -0.142,0.179 -0.072,-0.001 -0.101,-0.1 -0.194,-0.081 -0.217,0.045 -0.141,0.304 -0.04,0.414 0.199,0.219 0.404,0.426 0.59,0.659 0.304,0.382 0.727,0.851 0.777,1.358 0.058,0.604 0.086,1.214 0.124,1.821 0.033,0.533 0.072,1.09 -0.059,1.613 -0.141,0.549 -0.388,1.065 -0.682,1.544 -0.279,0.452 -0.666,0.888 -0.82,1.4 -0.039,0.128 -0.07,0.257 -0.098,0.387 -0.008,0.038 -0.004,0.162 -0.029,0.182 -0.03,0.022 -0.219,-0.03 -0.258,-0.035 -0.271,-0.037 -0.545,-0.075 -0.818,-0.093 -0.615,-0.041 -1.197,0.012 -1.807,0.072 C 9.436,-9.08 8.905,-9.202 8.367,-9.377 8.104,-9.463 7.821,-9.577 7.54,-9.59 7.261,-9.603 6.983,-9.56 6.705,-9.576 6.473,-9.59 6.293,-9.723 6.277,-9.959 6.258,-10.24 6.29,-10.476 6.18,-10.746 c -0.215,-0.523 -0.466,-0.932 -0.369,-1.521 0.09,-0.542 0.329,-1.071 0.498,-1.59 0.187,-0.575 0.343,-1.155 0.511,-1.733 0.082,-0.285 0.164,-0.572 0.266,-0.851 0.065,-0.18 0.288,-0.418 0.274,-0.606 -0.007,-0.105 -0.093,-0.221 -0.128,-0.319 -0.051,-0.132 -0.054,-0.284 -0.05,-0.423 0.007,-0.191 0.136,-0.633 0.007,-0.787 -0.131,-0.158 -0.467,-0.198 -0.66,-0.195 -0.293,0.004 -0.354,-0.046 -0.48,-0.323 -0.246,-0.545 -0.703,-0.554 -1.232,-0.578 -0.172,-0.008 -0.439,-0.132 -0.509,0.079 -0.097,0.288 -0.154,0.054 -0.349,0.109 -0.356,0.099 0.37,1.07 0.513,1.167 0.21,0.141 0.547,0.184 0.694,0.399 0.135,0.197 0.124,0.494 0.131,0.723 0.015,0.601 -0.047,1.185 -0.137,1.778 -0.171,1.136 -0.334,2.296 -0.607,3.413 -0.137,0.557 -0.296,1.105 -0.381,1.673 -0.041,0.287 0.145,0.526 0.123,0.791 -0.019,0.245 -0.161,0.539 -0.344,0.708 -0.172,0.16 -0.367,0.315 -0.496,0.521 C 3.401,-8.225 3.283,-7.789 3.131,-7.834 2.975,-7.881 3.142,-8.319 3.192,-8.404 3.323,-8.637 3.546,-8.801 3.709,-9.013 3.822,-9.162 4.1,-9.422 4.09,-9.62 4.077,-9.844 3.868,-9.848 3.726,-9.752 c -0.224,0.149 -0.375,0.38 -0.585,0.537 -0.193,0.143 -0.475,0.087 -0.635,0.257 -0.377,0.403 0.01,1.009 -0.377,1.396 -0.174,0.173 -0.059,-0.457 -0.053,-0.514 0.018,-0.18 0.119,-0.543 -0.041,-0.68 -0.216,-0.183 -0.474,0.142 -0.574,0.3 -0.152,0.241 -0.157,0.504 -0.209,0.774 -0.051,0.261 -0.166,0.553 -0.257,0.804 -0.085,0.234 -0.38,0.433 -0.568,0.581 -0.464,0.36 -0.616,0.998 -0.837,1.524 -0.09,0.215 -0.206,0.343 0.046,0.447 0.245,0.099 0.444,0.293 0.534,0.551 0.026,0.072 0.057,0.44 -0.061,0.402 -0.044,-0.014 -0.113,-0.285 -0.143,-0.342 -0.062,-0.107 -0.143,-0.21 -0.237,-0.291 -0.196,-0.167 -0.461,-0.24 -0.664,-0.402 -0.225,-0.178 -0.252,-0.332 -0.183,-0.604 0.05,-0.195 0.102,-0.427 -0.024,-0.606 -0.143,-0.194 -0.437,-0.212 -0.635,-0.335 -0.213,-0.133 -0.414,-0.348 -0.688,-0.275 -0.269,0.07 -0.437,0.261 -0.74,0.234 -0.268,-0.023 -0.287,-0.051 -0.386,0.221 -0.046,0.128 -0.085,0.206 -0.208,0.268 -0.106,0.052 -0.217,0.066 -0.285,0.173 -0.137,0.221 0.056,0.526 0.076,0.758 0.024,0.265 -0.019,0.533 0.008,0.797 0.027,0.264 0.129,0.525 0.252,0.76 0.136,0.255 0.281,0.41 0.288,0.711 0.005,0.263 0.122,0.513 0.189,0.764 0.074,0.282 0.017,0.571 0.055,0.858 0.015,0.116 0.251,0.51 0.199,0.586 -0.082,0.121 -0.592,-0.094 -0.704,-0.112 -0.132,-0.02 -0.264,0.01 -0.394,0.012 -0.154,0.001 -0.279,-0.052 -0.426,-0.079 -0.297,-0.055 -0.565,-0.149 -0.844,-0.261 -0.244,-0.099 -0.491,-0.202 -0.756,-0.143 -0.234,0.052 -0.524,0.126 -0.724,0.258 -0.211,0.141 -0.433,0.248 -0.645,0.382 -0.112,0.07 -0.205,0.162 -0.324,0.223 -0.105,0.054 -0.233,0.086 -0.295,0.198 -0.111,0.202 0.022,0.441 0.229,0.509 0.242,0.078 0.41,-0.111 0.605,-0.211 0.112,-0.055 0.231,-0.092 0.343,-0.143 0.113,-0.052 0.257,-0.153 0.38,-0.167 0.084,-0.009 0.068,-0.042 0.08,0.013 0.016,0.064 -0.143,0.293 -0.184,0.348 C -6.998,1.142 -7.344,1.561 -7.629,2.006 -7.805,2.279 -7.843,2.545 -7.898,2.859 -7.92,2.977 -7.926,3.098 -7.953,3.213 -7.978,3.316 -8.047,3.4 -8.07,3.5 c -0.028,0.116 0.002,0.227 -0.043,0.344 -0.049,0.132 -0.129,0.247 -0.158,0.385 -0.028,0.13 -0.059,0.49 0.148,0.495 0.074,10e-4 0.165,-0.088 0.225,-0.12 0.07,-0.038 0.136,-0.015 0.207,-0.032 0.215,-0.047 0.3,-0.271 0.297,-0.472 -0.003,-0.094 -0.065,-0.206 -0.025,-0.297 0.036,-0.088 0.153,-0.144 0.212,-0.217 0.113,-0.143 0.334,-0.458 0.276,-0.082 -0.04,0.258 -0.085,0.493 -0.202,0.729 -0.065,0.127 -0.14,0.255 -0.191,0.388 -0.029,0.076 -0.1,0.267 -0.098,0.34 10e-4,0.123 0.199,0.368 0.328,0.336 0.162,-0.041 0.287,-0.494 0.35,-0.631 0.043,-0.092 0.237,-0.36 0.303,-0.133 0.058,0.201 -0.043,0.575 -0.103,0.774 -0.07,0.234 -0.515,1.127 0.11,1.019 0.51,-0.087 0.376,-0.859 0.793,-1.063 0.153,-0.073 0.025,0.301 0.03,0.37 0.006,0.111 -0.027,0.454 0.11,0.504 0.209,0.076 0.327,-0.113 0.327,-0.297 0.002,-0.087 0.047,-0.467 0.191,-0.242 0.092,0.142 -0.11,0.385 -0.068,0.564 0.065,0.283 0.17,0.143 0.332,0.039 0.153,-0.097 0.254,0.051 0.404,-0.004 0.19,-0.068 0.174,-0.375 0.27,-0.518 0.084,0.106 -0.026,0.411 0.149,0.467 C -3.704,6.203 -3.613,5.811 -3.578,5.7 -3.498,5.447 -3.411,5.227 -3.454,4.957 -3.494,4.705 -3.54,4.449 -3.584,4.198 -3.629,3.945 -3.816,3.756 -3.887,3.512 -3.961,3.264 -3.985,3.014 -4,2.756 -4.014,2.556 -4.087,2.233 -3.986,2.05 c 0.109,-0.202 0.062,-0.438 0.13,-0.65 0.024,-0.076 0.231,-0.479 0.358,-0.341 0.047,0.054 -0.037,0.162 -0.051,0.208 -0.034,0.114 -0.037,0.249 -0.042,0.367 -0.01,0.268 -0.049,0.526 0.023,0.789 0.023,0.08 0.066,0.159 0.068,0.243 0.003,0.113 -0.08,0.209 -0.029,0.326 0.074,0.171 0.399,0.174 0.549,0.115 0.253,-0.101 0.338,-0.337 0.489,-0.539 0.157,-0.207 0.239,-0.421 0.338,-0.66 0.043,-0.103 0.052,-0.217 0.1,-0.32 0.029,-0.064 0.161,-0.27 0.237,-0.287 0.084,-0.022 0.105,0.047 0.173,0.092 0.063,0.041 0.127,0.032 0.195,0.043 0.212,0.032 0.352,0.147 0.579,0.15 0.115,0.002 0.209,-0.008 0.32,-0.035 0.1,-0.026 0.085,0.053 0.102,0.125 0.045,0.182 0.068,0.394 0.123,0.568 0.024,0.084 0.097,0.127 0.135,0.205 0.043,0.088 0.034,0.183 0.106,0.258 C 0.059,2.855 0.057,3.12 0.188,3.292 0.381,3.548 1.002,4.307 1.293,3.734 1.395,3.533 1.188,3.314 1.246,3.094 1.275,2.986 1.356,2.904 1.393,2.803 1.441,2.674 1.451,2.533 1.469,2.398 1.506,2.152 1.569,1.904 1.449,1.674 1.396,1.569 1.331,1.502 1.347,1.378 1.355,1.32 1.42,1.127 1.506,1.137 1.568,1.143 1.647,1.322 1.674,1.368 1.749,1.498 1.719,1.631 1.725,1.774 1.736,2.035 1.764,2.272 1.707,2.532 1.67,2.705 1.58,3.047 1.827,3.132 2.106,3.227 2.033,2.881 2.043,2.747 2.053,2.597 2.109,2.243 2.307,2.227 2.597,2.201 2.641,2.639 2.653,2.828 2.662,2.953 2.597,3.055 2.572,3.174 2.547,3.297 2.565,3.424 2.533,3.545 2.469,3.805 2.33,4.053 2.294,4.316 c -0.04,0.303 0.017,0.558 0.112,0.845 0.032,0.096 0.034,0.18 0.039,0.28 0.004,0.11 0.063,0.192 0.09,0.295 0.028,0.11 0.016,0.227 0.04,0.337 C 2.597,6.175 2.683,6.268 2.727,6.36 2.779,6.468 2.782,6.6 2.913,6.565 2.998,6.541 3.117,6.356 3.17,6.282 3.285,6.124 3.34,6.547 3.366,6.58 3.504,6.754 3.791,6.682 3.988,6.734 4.206,6.792 4.432,6.85 4.52,6.568 4.588,6.344 4.338,6.424 4.327,6.266 4.321,6.17 4.463,6.005 4.488,6.16 4.506,6.274 4.69,6.565 4.832,6.496 5.311,6.266 4.813,5.44 4.787,5.102 4.768,4.858 4.986,4.873 5.091,5.043 5.14,5.121 5.134,5.175 5.221,5.221 5.292,5.259 5.37,5.231 5.414,5.308 5.447,5.365 5.405,5.47 5.414,5.535 5.428,5.637 5.481,5.768 5.558,5.836 5.716,5.977 5.802,5.824 5.858,5.666 6.046,5.126 5.818,4.522 5.731,3.973 5.645,3.426 5.472,2.869 5.182,2.396 4.959,2.029 4.609,1.747 4.309,1.449 4.166,1.307 3.938,1.268 3.766,1.17 3.568,1.058 3.423,0.894 3.265,0.735 M 0.883,2.807 C 0.457,3.049 0.342,2.08 0.348,1.848 0.352,1.779 0.385,1.389 0.502,1.412 0.634,1.44 0.537,1.822 0.561,1.908 0.709,2.443 1.006,1.578 1.137,1.645 1.239,1.695 1.116,2.1 1.084,2.18 1.015,2.351 1.024,2.69 0.883,2.807 M -3.312,2.152 C -3.473,1.938 -3.361,1.503 -3.332,1.244 -3.309,1.041 -3.262,1.07 -3.13,0.979 -3.031,0.908 -2.984,0.705 -2.859,0.694 -2.828,0.692 -2.762,0.628 -2.741,0.635 -2.703,0.648 -2.687,0.8 -2.689,0.834 -2.7,1.082 -2.961,1.35 -3.052,1.569 -3.135,1.771 -3.217,1.955 -3.312,2.152 m 2.488,-3.263 c -0.157,0.111 -0.283,0.113 -0.447,0.019 -0.12,-0.069 -0.22,-0.181 -0.125,-0.326 0.172,-0.264 0.554,0.091 0.572,0.307 m 6.766,-14.238 c 0.052,0.164 -0.077,0.152 -0.104,0 -0.044,-0.243 0.049,-0.564 0.07,-0.809 0.028,-0.299 0.153,-0.581 0.267,-0.845 0.013,-0.028 0.115,-0.29 0.143,-0.175 0.045,0.201 -0.074,0.534 -0.117,0.732 -0.072,0.324 -0.312,0.759 -0.259,1.097 m -7.793,10.418 c -0.141,0.073 -0.225,0.013 -0.251,-0.131 -0.009,-0.052 -0.04,-0.1 0.014,-0.133 0.055,-0.034 0.065,0.041 0.11,0.034 0.074,-0.011 0.179,-0.146 0.25,-0.042 0.05,0.074 -0.077,0.221 -0.123,0.272 M -2.362,0.536 C -2.092,0.443 -2.131,1 -2.254,1.094 -2.353,1.166 -2.354,1.106 -2.355,0.985 -2.357,0.875 -2.44,0.617 -2.362,0.536"
         style="fill:#231f20;fill-opacity:1;fill-rule:evenodd;stroke:none"
         id="path4541"
         inkscape:connector-curvature="0" />
    </g>
  </g>
</svg>
