<?xml version="1.0" encoding="UTF-8" standalone="no"?>
<!-- Created with Inkscape (http://www.inkscape.org/) -->

<svg
   xmlns:dc="http://purl.org/dc/elements/1.1/"
   xmlns:cc="http://creativecommons.org/ns#"
   xmlns:rdf="http://www.w3.org/1999/02/22-rdf-syntax-ns#"
   xmlns:svg="http://www.w3.org/2000/svg"
   xmlns="http://www.w3.org/2000/svg"
   xmlns:sodipodi="http://sodipodi.sourceforge.net/DTD/sodipodi-0.dtd"
   xmlns:inkscape="http://www.inkscape.org/namespaces/inkscape"
   width="53.59375"
   height="43.007812"
   id="svg7867"
   version="1.1"
   inkscape:version="0.48.3.1 r9886"
   sodipodi:docname="New document 76">
  <defs
     id="defs7869" />
  <sodipodi:namedview
     id="base"
     pagecolor="#ffffff"
     bordercolor="#666666"
     borderopacity="1.0"
     inkscape:pageopacity="0.0"
     inkscape:pageshadow="2"
     inkscape:zoom="0.35"
     inkscape:cx="-49.639825"
     inkscape:cy="-21.35621"
     inkscape:document-units="px"
     inkscape:current-layer="layer1"
     showgrid="false"
     fit-margin-top="0"
     fit-margin-left="0"
     fit-margin-right="0"
     fit-margin-bottom="0"
     inkscape:window-width="451"
     inkscape:window-height="415"
     inkscape:window-x="175"
     inkscape:window-y="175"
     inkscape:window-maximized="0" />
  <metadata
     id="metadata7872">
    <rdf:RDF>
      <cc:Work
         rdf:about="">
        <dc:format>image/svg+xml</dc:format>
        <dc:type
           rdf:resource="http://purl.org/dc/dcmitype/StillImage" />
        <dc:title></dc:title>
      </cc:Work>
    </rdf:RDF>
  </metadata>
  <g
     inkscape:label="Layer 1"
     inkscape:groupmode="layer"
     id="layer1"
     transform="translate(-424.63982,-467.99816)">
    <g
       id="g4571"
       transform="matrix(1.25,0,0,-1.25,428.46795,468.31066)">
      <path
         d="m 0,0 36.735,0 c 1.557,0 2.827,-1.27 2.827,-2.827 l 0,-28.257 c 0,-1.557 -1.27,-2.827 -2.827,-2.827 l -36.735,0 c -1.556,0 -2.825,1.27 -2.825,2.827 l 0,28.257 C -2.825,-1.27 -1.556,0 0,0"
         style="fill:#fccf34;fill-opacity:1;fill-rule:nonzero;stroke:none"
         id="path4573"
         inkscape:connector-curvature="0" />
    </g>
    <g
       id="g4575"
       transform="matrix(1.25,0,0,-1.25,428.46795,468.31066)">
      <path
         d="m 0,0 36.735,0 c 1.557,0 2.827,-1.27 2.827,-2.827 l 0,-28.257 c 0,-1.557 -1.27,-2.827 -2.827,-2.827 l -36.735,0 c -1.556,0 -2.825,1.27 -2.825,2.827 l 0,28.257 C -2.825,-1.27 -1.556,0 0,0 z"
         style="fill:none;stroke:#231f20;stroke-width:0.5;stroke-linecap:butt;stroke-linejoin:miter;stroke-miterlimit:4;stroke-opacity:1;stroke-dasharray:none"
         id="path4577"
         inkscape:connector-curvature="0" />
    </g>
    <g
       id="g4579"
       transform="matrix(1.25,0,0,-1.25,428.67045,469.22942)">
      <path
         d="m 0,0 36.411,0 c 1.242,0 2.253,-1.011 2.253,-2.249 l 0,-27.943 c 0,-1.238 -1.011,-2.249 -2.253,-2.249 l -36.411,0 c -1.24,0 -2.253,1.011 -2.253,2.249 l 0,27.943 C -2.253,-1.011 -1.24,0 0,0"
         style="fill:#231f20;fill-opacity:1;fill-rule:evenodd;stroke:none"
         id="path4581"
         inkscape:connector-curvature="0" />
    </g>
    <g
       id="g4583"
       transform="matrix(1.25,0,0,-1.25,428.7017,470.64316)">
      <path
         d="m 0,0 36.362,0 c 0.632,0 1.147,-0.514 1.147,-1.144 l 0,-27.891 c 0,-0.63 -0.515,-1.144 -1.147,-1.144 l -36.362,0 c -0.631,0 -1.147,0.514 -1.147,1.144 l 0,27.891 C -1.147,-0.514 -0.631,0 0,0"
         style="fill:#fccf34;fill-opacity:1;fill-rule:evenodd;stroke:none"
         id="path4585"
         inkscape:connector-curvature="0" />
    </g>
    <g
       id="g4587"
       transform="matrix(1.25,0,0,-1.25,462.90045,481.37692)">
      <path
         d="m 0,0 c 0,-0.654 -0.148,-1.486 -0.327,-1.932 -0.296,-0.742 -0.684,-1.07 -1.308,-1.07 -0.535,0 -0.891,0.209 -1.159,0.655 -0.327,0.535 -0.505,1.456 -0.505,2.347 0,0.715 0.118,1.488 0.326,1.993 0.298,0.743 0.714,1.07 1.368,1.04 0.505,-0.03 0.833,-0.208 1.1,-0.655 C -0.178,1.814 0,0.952 0,0 M 1.338,0 C 1.338,1.072 1.13,2.141 0.773,2.884 0.238,3.925 -0.505,4.4 -1.575,4.4 -2.557,4.4 -3.24,4.103 -3.745,3.449 -4.31,2.647 -4.667,1.398 -4.667,0 c 0,-1.01 0.237,-2.139 0.595,-2.853 0.505,-1.04 1.249,-1.522 2.437,-1.522 0.892,0 1.576,0.303 2.052,0.957 C 1.011,-2.674 1.338,-1.336 1.338,0 M -7.67,0 c 0,-0.654 -0.147,-1.486 -0.326,-1.932 -0.298,-0.742 -0.684,-1.07 -1.308,-1.07 -0.536,0 -0.892,0.209 -1.16,0.655 -0.327,0.535 -0.505,1.456 -0.505,2.347 0,0.715 0.118,1.488 0.326,1.993 0.298,0.743 0.714,1.07 1.369,1.04 0.504,-0.03 0.832,-0.208 1.1,-0.655 C -7.848,1.814 -7.67,0.952 -7.67,0 m 1.339,0 c 0,1.072 -0.208,2.141 -0.566,2.884 C -7.432,3.925 -8.174,4.4 -9.245,4.4 -10.226,4.4 -10.909,4.103 -11.415,3.449 -11.98,2.647 -12.337,1.398 -12.337,0 c 0,-1.01 0.238,-2.139 0.595,-2.853 0.506,-1.04 1.249,-1.522 2.438,-1.522 0.892,0 1.575,0.303 2.051,0.957 0.594,0.744 0.922,2.082 0.922,3.418 m -7.67,-1.099 c 0,1.546 -1.278,2.853 -2.824,2.853 -0.416,0 -0.684,-0.058 -1.308,-0.237 l 0.089,1.398 3.567,0 0,1.336 -4.875,0 -0.209,-4.369 1.338,-0.387 c 0.506,0.713 0.774,0.892 1.368,0.892 0.833,0 1.516,-0.654 1.516,-1.486 0,-1.1 -0.951,-1.903 -2.17,-1.903 -0.624,0 -1.249,0.119 -1.605,0.297 l -0.655,-1.188 c 0.595,-0.297 1.338,-0.482 2.081,-0.482 2.141,0 3.687,1.404 3.687,3.276"
         style="fill:#231f20;fill-opacity:1;fill-rule:evenodd;stroke:none"
         id="path4589"
         inkscape:connector-curvature="0" />
    </g>
    <g
       id="g4591"
       transform="matrix(1.25,0,0,-1.25,466.66045,493.83804)">
      <path
         d="m 0,0 0,1.189 -5.232,0 0,-1.189 1.933,0 0,-7.284 1.337,0 0,7.284 L 0,0 z m -5.886,-7.284 0,1.368 -3.924,0 0,2.318 2.468,0 0,1.368 -2.468,0 0,2.08 3.657,0 0,1.339 -4.995,0 0,-8.473 5.262,0 z m -6.659,0 0,1.368 -3.923,0 0,2.318 2.467,0 0,1.368 -2.467,0 0,2.08 3.656,0 0,1.339 -4.995,0 0,-8.473 5.262,0 z m -6.51,7.134 0,1.339 -5.262,0 0,-8.473 1.338,0 0,3.686 2.468,0 0,1.368 -2.468,0 0,2.08 3.924,0 z"
         style="fill:#231f20;fill-opacity:1;fill-rule:evenodd;stroke:none"
         id="path4593"
         inkscape:connector-curvature="0" />
    </g>
  </g>
</svg>
