<?xml version="1.0" encoding="UTF-8" standalone="no"?>
<!-- Created with Inkscape (http://www.inkscape.org/) -->

<svg
   xmlns:dc="http://purl.org/dc/elements/1.1/"
   xmlns:cc="http://creativecommons.org/ns#"
   xmlns:rdf="http://www.w3.org/1999/02/22-rdf-syntax-ns#"
   xmlns:svg="http://www.w3.org/2000/svg"
   xmlns="http://www.w3.org/2000/svg"
   xmlns:sodipodi="http://sodipodi.sourceforge.net/DTD/sodipodi-0.dtd"
   xmlns:inkscape="http://www.inkscape.org/namespaces/inkscape"
   width="53.594059"
   height="27.148438"
   id="svg7924"
   version="1.1"
   inkscape:version="0.48.3.1 r9886"
   sodipodi:docname="New document 78">
  <defs
     id="defs7926" />
  <sodipodi:namedview
     id="base"
     pagecolor="#ffffff"
     bordercolor="#666666"
     borderopacity="1.0"
     inkscape:pageopacity="0.0"
     inkscape:pageshadow="2"
     inkscape:zoom="0.35"
     inkscape:cx="26.79719"
     inkscape:cy="13.579065"
     inkscape:document-units="px"
     inkscape:current-layer="layer1"
     showgrid="false"
     fit-margin-top="0"
     fit-margin-left="0"
     fit-margin-right="0"
     fit-margin-bottom="0"
     inkscape:window-width="451"
     inkscape:window-height="415"
     inkscape:window-x="25"
     inkscape:window-y="25"
     inkscape:window-maximized="0" />
  <metadata
     id="metadata7929">
    <rdf:RDF>
      <cc:Work
         rdf:about="">
        <dc:format>image/svg+xml</dc:format>
        <dc:type
           rdf:resource="http://purl.org/dc/dcmitype/StillImage" />
        <dc:title></dc:title>
      </cc:Work>
    </rdf:RDF>
  </metadata>
  <g
     inkscape:label="Layer 1"
     inkscape:groupmode="layer"
     id="layer1"
     transform="translate(-348.20281,-518.79281)">
    <g
       id="g4595"
       transform="matrix(1.25,0,0,-1.25,353.04687,519.10531)">
      <path
         d="m 0,0 35.223,0 0.152,0 0.004,-0.003 c 1.824,-0.081 3.297,-1.556 3.373,-3.381 l 0.004,-0.003 0,-0.145 0,-14.146 0,-0.031 c -0.018,-1.787 -1.387,-3.28 -3.123,-3.492 l -0.008,-0.01 -35.723,0 -0.09,0 -0.001,10e-4 c -1.85,0.048 -3.358,1.534 -3.442,3.374 l 0,10e-4 0,0.157 0,13.976 0.004,0.005 c -0.004,0.055 -0.004,0.109 -0.004,0.165 0,1.945 1.586,3.532 3.533,3.532 0.032,0 0.065,-0.001 0.096,-0.001 L 0,0 z"
         style="fill:#fccf34;fill-opacity:1;fill-rule:nonzero;stroke:none"
         id="path4597"
         inkscape:connector-curvature="0" />
    </g>
    <g
       id="g4599"
       transform="matrix(1.25,0,0,-1.25,353.04687,519.10531)">
      <path
         d="m 0,0 35.223,0 0.152,0 0.004,-0.003 c 1.824,-0.081 3.297,-1.556 3.373,-3.381 l 0.004,-0.003 0,-0.145 0,-14.146 0,-0.031 c -0.018,-1.787 -1.387,-3.28 -3.123,-3.492 l -0.008,-0.01 -35.723,0 -0.09,0 -0.001,10e-4 c -1.85,0.048 -3.358,1.534 -3.442,3.374 l 0,10e-4 0,0.157 0,13.976 0.004,0.005 c -0.004,0.055 -0.004,0.109 -0.004,0.165 0,1.945 1.586,3.532 3.533,3.532 0.032,0 0.065,-0.001 0.096,-0.001 L 0,0 z"
         style="fill:none;stroke:#231f20;stroke-width:0.5;stroke-linecap:butt;stroke-linejoin:miter;stroke-miterlimit:4;stroke-opacity:1;stroke-dasharray:none"
         id="path4601"
         inkscape:connector-curvature="0" />
    </g>
    <g
       id="g4603"
       transform="matrix(1.25,0,0,-1.25,353.36437,519.98906)">
      <path
         d="m 0,0 34.615,0 c 1.752,0 3.18,-1.428 3.18,-3.178 l 0,-13.439 c 0,-1.751 -1.428,-3.18 -3.18,-3.18 l -34.615,0 c -1.75,0 -3.178,1.429 -3.178,3.18 l 0,13.439 C -3.178,-1.428 -1.75,0 0,0"
         style="fill:#231f20;fill-opacity:1;fill-rule:evenodd;stroke:none"
         id="path4605"
         inkscape:connector-curvature="0" />
    </g>
    <g
       id="g4607"
       transform="matrix(1.25,0,0,-1.25,353.40312,521.30031)">
      <path
         d="m 0,0 34.553,0 c 1.195,0 2.168,-0.973 2.168,-2.168 l 0,-13.309 c 0,-1.193 -0.973,-2.168 -2.168,-2.168 l -34.553,0 c -1.193,0 -2.168,0.975 -2.168,2.168 l 0,13.309 C -2.168,-0.973 -1.193,0 0,0"
         style="fill:#fccf34;fill-opacity:1;fill-rule:evenodd;stroke:none"
         id="path4609"
         inkscape:connector-curvature="0" />
    </g>
    <g
       id="g4611"
       transform="matrix(1.25,0,0,-1.25,384.62436,522.91157)">
      <path
         d="m 0,0 -10.303,-5.998 -0.582,2.978 c -0.002,0.179 -0.072,0.353 -0.139,0.521 -0.203,0.507 -0.935,0.675 -1.437,0.385 -0.235,-0.136 -0.41,-0.365 -0.485,-0.622 l -4.992,-10.616 11.811,-1.206 c 0.258,-0.065 0.545,-0.027 0.779,0.109 0.502,0.29 0.719,0.96 0.385,1.437 -0.104,0.146 -0.229,0.29 -0.381,0.382 l -2.33,2.079 L 2.619,-4.533 0,0 z"
         style="fill:#231f20;fill-opacity:1;fill-rule:evenodd;stroke:none"
         id="path4613"
         inkscape:connector-curvature="0" />
    </g>
  </g>
</svg>
