<?xml version="1.0" encoding="UTF-8" standalone="no"?>
<!-- Created with Inkscape (http://www.inkscape.org/) -->

<svg
   xmlns:dc="http://purl.org/dc/elements/1.1/"
   xmlns:cc="http://creativecommons.org/ns#"
   xmlns:rdf="http://www.w3.org/1999/02/22-rdf-syntax-ns#"
   xmlns:svg="http://www.w3.org/2000/svg"
   xmlns="http://www.w3.org/2000/svg"
   xmlns:sodipodi="http://sodipodi.sourceforge.net/DTD/sodipodi-0.dtd"
   xmlns:inkscape="http://www.inkscape.org/namespaces/inkscape"
   width="53.59375"
   height="27.109375"
   id="svg7977"
   version="1.1"
   inkscape:version="0.48.3.1 r9886"
   sodipodi:docname="New document 80">
  <defs
     id="defs7979" />
  <sodipodi:namedview
     id="base"
     pagecolor="#ffffff"
     bordercolor="#666666"
     borderopacity="1.0"
     inkscape:pageopacity="0.0"
     inkscape:pageshadow="2"
     inkscape:zoom="0.98994949"
     inkscape:cx="-35.989174"
     inkscape:cy="-1.6743304"
     inkscape:document-units="px"
     inkscape:current-layer="layer1"
     showgrid="false"
     fit-margin-top="0"
     fit-margin-left="0"
     fit-margin-right="0"
     fit-margin-bottom="0"
     inkscape:window-width="1366"
     inkscape:window-height="706"
     inkscape:window-x="-8"
     inkscape:window-y="-8"
     inkscape:window-maximized="1" />
  <metadata
     id="metadata7982">
    <rdf:RDF>
      <cc:Work
         rdf:about="">
        <dc:format>image/svg+xml</dc:format>
        <dc:type
           rdf:resource="http://purl.org/dc/dcmitype/StillImage" />
        <dc:title></dc:title>
      </cc:Work>
    </rdf:RDF>
  </metadata>
  <g
     inkscape:label="Layer 1"
     inkscape:groupmode="layer"
     id="layer1"
     transform="translate(-348.19657,-518.80343)">
    <g
       id="g4615"
       transform="matrix(1.25,0,0,-1.25,352.92313,519.11593)">
      <path
         d="m 0,0 35.324,0 c 1.945,0 3.531,-1.546 3.531,-3.441 l 0,-14.312 c 0,-1.895 -1.586,-3.441 -3.531,-3.441 l -35.324,0 c -1.946,0 -3.532,1.546 -3.532,3.441 l 0,14.312 C -3.532,-1.546 -1.946,0 0,0"
         style="fill:#fccf34;fill-opacity:1;fill-rule:nonzero;stroke:none"
         id="path4617"
         inkscape:connector-curvature="0" />
    </g>
    <g
       id="g4619"
       transform="matrix(1.25,0,0,-1.25,352.92313,519.11593)">
      <path
         d="m 0,0 35.324,0 c 1.945,0 3.531,-1.546 3.531,-3.441 l 0,-14.312 c 0,-1.895 -1.586,-3.441 -3.531,-3.441 l -35.324,0 c -1.946,0 -3.532,1.546 -3.532,3.441 l 0,14.312 C -3.532,-1.546 -1.946,0 0,0 z"
         style="fill:none;stroke:#231f20;stroke-width:0.5;stroke-linecap:butt;stroke-linejoin:miter;stroke-miterlimit:4;stroke-opacity:1;stroke-dasharray:none"
         id="path4621"
         inkscape:connector-curvature="0" />
    </g>
    <g
       id="g4623"
       transform="matrix(1.25,0,0,-1.25,397.06562,519.99968)">
      <path
         d="m 0,0 c 1.535,-0.037 2.795,-1.183 2.834,-2.743 0.008,-0.242 0,-0.486 0,-0.728 0,-1.504 -0.002,-3.009 -0.002,-4.515 0,-3.033 0,-6.066 -0.002,-9.099 0,-1.554 -1.392,-2.691 -2.877,-2.691 l -2.086,0 c -2.996,-0.001 -5.992,-0.001 -8.986,-0.001 -7.037,-0.002 -14.072,-0.002 -21.108,-0.003 -1.964,0 -4.941,-0.492 -5.763,1.867 -0.299,0.859 -0.149,1.965 -0.149,2.854 0,1.768 0,3.534 0.002,5.302 l 0,5.268 c 0,1.16 -0.172,2.386 0.555,3.38 1.256,1.558 3.783,1.106 5.557,1.106 7.099,0.001 14.199,0.002 21.298,0.002 C -7.15,0 -3.574,0 0,0"
         style="fill:#231f20;fill-opacity:1;fill-rule:evenodd;stroke:none"
         id="path4625"
         inkscape:connector-curvature="0" />
    </g>
    <g
       id="g4627"
       transform="matrix(1.25,0,0,-1.25,352.92313,521.32469)">
      <path
         d="m 0,0 35.324,0 c 0.972,0 1.765,-0.793 1.765,-1.765 l 0,-14.129 c 0,-0.973 -0.793,-1.766 -1.765,-1.766 L 0,-17.66 c -0.973,0 -1.766,0.793 -1.766,1.766 l 0,14.129 C -1.766,-0.793 -0.973,0 0,0"
         style="fill:#fccf34;fill-opacity:1;fill-rule:evenodd;stroke:none"
         id="path4629"
         inkscape:connector-curvature="0" />
    </g>
    <g
       id="g4631"
       transform="matrix(1.25,0,0,-1.25,392.50936,533.08093)">
      <path
         d="m 0,0 c 0,-0.941 -0.224,-1.708 -0.644,-2.13 -0.197,-0.198 -0.42,-0.272 -0.793,-0.272 l -1.115,0 0,4.805 1.263,0 c 0.297,0 0.545,-0.124 0.719,-0.297 C -0.224,1.734 0,0.942 0,0 m 1.139,0 c 0,1.388 -0.42,2.502 -1.164,3.146 -0.371,0.298 -0.644,0.372 -1.361,0.372 l -2.281,0 0,-7.06 2.156,0 0.396,0 c 0.371,0.025 0.744,0.148 1.016,0.396 0.793,0.621 1.238,1.734 1.238,3.146 m -8.15,-0.421 -1.412,0 0.718,1.982 0.694,-1.982 z m 2.279,-3.121 -2.428,7.06 -1.115,0 -2.428,-7.06 1.19,0 0.693,1.982 2.205,0 0.694,-1.982 1.189,0 z m -6.516,0 0,1.14 -3.269,0 0,1.932 2.057,0 0,1.14 -2.057,0 0,1.733 3.047,0 0,1.115 -4.162,0 0,-7.06 4.384,0 z m -6.044,0 0,7.06 -1.114,0 0,-2.848 -2.578,0 0,2.848 -1.115,0 0,-7.06 1.115,0 0,3.072 2.578,0 0,-3.072 1.114,0 z m -8.151,3.121 -1.412,0 0.719,1.982 0.693,-1.982 z m 2.279,-3.121 -2.427,7.06 -1.116,0 -2.427,-7.06 1.189,0 0.694,1.982 2.205,0 0.693,-1.982 1.189,0 z"
         style="fill:#231f20;fill-opacity:1;fill-rule:evenodd;stroke:none"
         id="path4633"
         inkscape:connector-curvature="0" />
    </g>
  </g>
</svg>
