<?xml version="1.0" encoding="UTF-8" standalone="no"?>
<!-- Created with Inkscape (http://www.inkscape.org/) -->

<svg
   xmlns:dc="http://purl.org/dc/elements/1.1/"
   xmlns:cc="http://creativecommons.org/ns#"
   xmlns:rdf="http://www.w3.org/1999/02/22-rdf-syntax-ns#"
   xmlns:svg="http://www.w3.org/2000/svg"
   xmlns="http://www.w3.org/2000/svg"
   xmlns:sodipodi="http://sodipodi.sourceforge.net/DTD/sodipodi-0.dtd"
   xmlns:inkscape="http://www.inkscape.org/namespaces/inkscape"
   width="89.694153"
   height="89.667809"
   id="svg8058"
   version="1.1"
   inkscape:version="0.48.3.1 r9886"
   sodipodi:docname="New document 82">
  <defs
     id="defs8060">
    <clipPath
       clipPathUnits="userSpaceOnUse"
       id="clipPath3289">
      <path
         inkscape:connector-curvature="0"
         d="m 31.275,147.705 504.574,0 0,590.544 -504.574,0 0,-590.544 z"
         id="path3291" />
    </clipPath>
  </defs>
  <sodipodi:namedview
     id="base"
     pagecolor="#ffffff"
     bordercolor="#666666"
     borderopacity="1.0"
     inkscape:pageopacity="0.0"
     inkscape:pageshadow="2"
     inkscape:zoom="0.35"
     inkscape:cx="-34.42604"
     inkscape:cy="-201.50708"
     inkscape:document-units="px"
     inkscape:current-layer="layer1"
     showgrid="false"
     fit-margin-top="0"
     fit-margin-left="0"
     fit-margin-right="0"
     fit-margin-bottom="0"
     inkscape:window-width="451"
     inkscape:window-height="415"
     inkscape:window-x="125"
     inkscape:window-y="125"
     inkscape:window-maximized="0" />
  <metadata
     id="metadata8063">
    <rdf:RDF>
      <cc:Work
         rdf:about="">
        <dc:format>image/svg+xml</dc:format>
        <dc:type
           rdf:resource="http://purl.org/dc/dcmitype/StillImage" />
        <dc:title></dc:title>
      </cc:Work>
    </rdf:RDF>
  </metadata>
  <g
     inkscape:label="Layer 1"
     inkscape:groupmode="layer"
     id="layer1"
     transform="translate(-409.42604,-664.66944)">
    <g
       transform="matrix(1.25,0,0,-1.25,-170.46075,988.95756)"
       id="g3285">
      <g
         id="g3287"
         clip-path="url(#clipPath3289)">
        <g
           id="g3293"
           transform="translate(496.6773,189.2275)">
          <path
             inkscape:connector-curvature="0"
             d="m 0,0 -31.216,31.212 c -1.719,1.718 -1.719,4.528 0,6.244 L 0,68.67 c 1.717,1.716 4.526,1.716 6.244,0 L 37.455,37.456 c 1.721,-1.716 1.719,-4.526 0,-6.242 L 6.244,-0.002 C 4.526,-1.718 1.717,-1.716 0,0"
             style="fill:#fccf34;fill-opacity:1;fill-rule:nonzero;stroke:none"
             id="path3295" />
        </g>
        <g
           id="g3297"
           transform="translate(496.6773,189.2275)">
          <path
             inkscape:connector-curvature="0"
             d="m 0,0 -31.216,31.212 c -1.719,1.718 -1.719,4.528 0,6.244 L 0,68.67 c 1.717,1.716 4.526,1.716 6.244,0 L 37.455,37.456 c 1.721,-1.716 1.719,-4.526 0,-6.242 L 6.244,-0.002 C 4.526,-1.718 1.717,-1.716 0,0 z"
             style="fill:none;stroke:#231f20;stroke-width:0.5;stroke-linecap:butt;stroke-linejoin:miter;stroke-miterlimit:4;stroke-opacity:1;stroke-dasharray:none"
             id="path3299" />
        </g>
      </g>
    </g>
    <g
       id="g3309"
       transform="matrix(1.25,0,0,-1.25,451.19212,751.19818)">
      <path
         d="m 0,0 -30.883,30.876 c -1.363,1.365 -1.363,3.593 0,4.956 L 0,66.71 c 1.361,1.363 3.592,1.363 4.953,0 L 35.834,35.832 c 1.361,-1.363 1.361,-3.591 0,-4.956 L 4.953,-0.003 C 3.592,-1.365 1.361,-1.363 0,0"
         style="fill:#231f20;fill-opacity:1;fill-rule:evenodd;stroke:none"
         id="path3311"
         inkscape:connector-curvature="0" />
    </g>
    <g
       id="g3313"
       transform="matrix(1.25,0,0,-1.25,452.74212,749.62817)">
      <path
         d="m 0,0 -30.865,30.863 c -0.682,0.678 -0.682,1.794 0,2.472 L 0,64.195 c 0.682,0.681 1.795,0.681 2.477,0 l 30.859,-30.86 c 0.68,-0.678 0.682,-1.794 0,-2.475 L 2.477,0 C 1.795,-0.68 0.682,-0.68 0,0"
         style="fill:#fccf34;fill-opacity:1;fill-rule:evenodd;stroke:none"
         id="path3315"
         inkscape:connector-curvature="0" />
    </g>
    <g
       id="g3317"
       transform="matrix(1.25,0,0,-1.25,451.91213,696.32567)">
      <path
         d="m 0,0 -2.853,5.053 0,-5.053 -1.178,0 0,7.462 1.178,0 2.724,-4.765 0,4.765 1.178,0 L 1.049,0 0,0 z"
         style="fill:#231f20;fill-opacity:1;fill-rule:nonzero;stroke:none"
         id="path3319"
         inkscape:connector-curvature="0" />
    </g>
    <g
       id="g3321"
       transform="matrix(1.25,0,0,-1.25,461.86088,691.67817)">
      <path
         d="m 0,0 c 0,0.942 -0.184,1.884 -0.496,2.539 -0.473,0.917 -1.125,1.335 -2.07,1.335 -0.862,0 -1.465,-0.262 -1.911,-0.837 C -4.975,2.331 -5.287,1.23 -5.287,0 c 0,-0.892 0.209,-1.885 0.523,-2.513 0.444,-0.917 1.1,-1.335 2.147,-1.335 0.785,0 1.387,0.262 1.805,0.837 C -0.287,-2.357 0,-1.18 0,0 m -1.178,0 c 0,-0.576 -0.131,-1.309 -0.287,-1.702 -0.262,-0.655 -0.603,-0.943 -1.152,-0.943 -0.473,0 -0.785,0.184 -1.022,0.576 -0.287,0.472 -0.445,1.283 -0.445,2.069 0,0.627 0.106,1.308 0.287,1.755 0.264,0.654 0.629,0.942 1.205,0.916 C -2.146,2.643 -1.857,2.487 -1.621,2.094 -1.336,1.596 -1.178,0.837 -1.178,0"
         style="fill:#231f20;fill-opacity:1;fill-rule:nonzero;stroke:none"
         id="path3323"
         inkscape:connector-curvature="0" />
    </g>
    <g
       id="g3325"
       transform="matrix(1.25,0,0,-1.25,433.70212,704.18067)">
      <path
         d="m 0,0 0,-6.415 -1.178,0 0,6.415 -1.701,0 0,1.047 4.607,0 L 1.728,0 0,0 z"
         style="fill:#231f20;fill-opacity:1;fill-rule:nonzero;stroke:none"
         id="path3327"
         inkscape:connector-curvature="0" />
    </g>
    <g
       id="g3329"
       transform="matrix(1.25,0,0,-1.25,443.58463,712.19942)">
      <path
         d="m 0,0 -1.309,3.483 c 0.682,0.313 1.153,1.099 1.153,1.885 0,0.759 -0.471,1.545 -1.125,1.857 -0.369,0.183 -0.76,0.237 -1.336,0.237 l -2.461,0 0,-7.462 1.178,0 0,3.246 1.414,0 L -1.281,0 0,0 z m -1.334,5.368 c 0,-0.316 -0.184,-0.63 -0.473,-0.786 C -1.988,4.476 -2.121,4.45 -2.486,4.45 l -1.414,0 0,1.833 1.414,0 c 0.392,0 0.498,-0.026 0.679,-0.129 0.289,-0.159 0.473,-0.474 0.473,-0.786"
         style="fill:#231f20;fill-opacity:1;fill-rule:nonzero;stroke:none"
         id="path3331"
         inkscape:connector-curvature="0" />
    </g>
    <g
       id="g3333"
       transform="matrix(1.25,0,0,-1.25,452.22463,712.19942)">
      <path
         d="m 0,0 -2.566,7.462 -1.178,0 L -6.31,0 l 1.257,0 0.733,2.093 2.33,0 L -1.258,0 0,0 z M -2.408,3.3 -3.9,3.3 -3.143,5.394 -2.408,3.3 z"
         style="fill:#231f20;fill-opacity:1;fill-rule:nonzero;stroke:none"
         id="path3335"
         inkscape:connector-curvature="0" />
    </g>
    <g
       id="g3337"
       transform="matrix(1.25,0,0,-1.25,455.10337,704.34567)">
      <path
         d="m 0,0 0,-1.833 2.174,0 0,-1.204 -2.174,0 0,-3.246 -1.178,0 0,7.462 4.633,0 L 3.455,0 0,0 z"
         style="fill:#231f20;fill-opacity:1;fill-rule:nonzero;stroke:none"
         id="path3339"
         inkscape:connector-curvature="0" />
    </g>
    <g
       id="g3341"
       transform="matrix(1.25,0,0,-1.25,462.27087,704.34567)">
      <path
         d="m 0,0 0,-1.833 2.172,0 0,-1.204 -2.172,0 0,-3.246 -1.18,0 0,7.462 4.635,0 L 3.455,0 0,0 z"
         style="fill:#231f20;fill-opacity:1;fill-rule:nonzero;stroke:none"
         id="path3343"
         inkscape:connector-curvature="0" />
    </g>
    <path
       d="m 467.96425,702.87255 1.50625,0 0,9.3275 -1.50625,0 0,-9.3275 z"
       style="fill:#231f20;fill-opacity:1;fill-rule:nonzero;stroke:none"
       id="path3345"
       inkscape:connector-curvature="0" />
    <g
       id="g3347"
       transform="matrix(1.25,0,0,-1.25,475.03213,712.36193)">
      <path
         d="m 0,0 c -1.099,0 -1.806,0.417 -2.277,1.335 -0.34,0.654 -0.551,1.596 -0.551,2.539 0,1.177 0.316,2.356 0.84,3.01 0.443,0.549 1.072,0.838 1.91,0.838 1.127,0 1.832,-0.472 2.33,-1.519 l -1.1,-0.471 c -0.419,0.63 -0.654,0.786 -1.23,0.786 -0.602,0 -0.996,-0.261 -1.256,-0.916 -0.183,-0.446 -0.289,-1.1 -0.289,-1.728 0,-0.813 0.184,-1.623 0.471,-2.095 0.263,-0.392 0.601,-0.576 1.127,-0.576 0.498,0 0.863,0.262 1.152,0.864 L 2.252,1.647 C 1.807,0.549 1.074,0 0,0"
         style="fill:#231f20;fill-opacity:1;fill-rule:nonzero;stroke:none"
         id="path3349"
         inkscape:connector-curvature="0" />
    </g>
    <g
       id="g3351"
       transform="matrix(1.25,0,0,-1.25,442.66962,727.51568)">
      <path
         d="m 0,0 c -0.42,-0.366 -0.997,-0.576 -1.624,-0.576 -1.283,0 -2.226,0.758 -2.722,1.884 l 1.125,0.42 c 0.314,-0.708 0.89,-1.101 1.597,-1.101 0.68,0 1.153,0.471 1.153,1.101 0,0.993 -1.153,1.15 -2.121,1.543 -0.446,0.183 -1.44,0.63 -1.44,1.861 0,1.464 0.994,2.013 2.33,2.013 1.047,0 1.754,-0.6 2.119,-1.518 L -0.629,5.314 c 0,0 -0.262,0.627 -1.1,0.655 C -2.278,5.995 -2.932,5.785 -2.879,5.104 -2.776,3.718 0.732,4.634 0.732,1.701 0.732,1.02 0.47,0.417 0,0"
         style="fill:#231f20;fill-opacity:1;fill-rule:nonzero;stroke:none"
         id="path3353"
         inkscape:connector-curvature="0" />
    </g>
    <path
       d="m 445.15425,718.7463 1.50625,0 0,9.3275 -1.50625,0 0,-9.3275 z"
       style="fill:#231f20;fill-opacity:1;fill-rule:nonzero;stroke:none"
       id="path3355"
       inkscape:connector-curvature="0" />
    <g
       id="g3357"
       transform="matrix(1.25,0,0,-1.25,452.09337,728.23568)">
      <path
         d="m 0,0 c -1.125,0 -1.78,0.417 -2.225,1.359 -0.314,0.657 -0.498,1.572 -0.498,2.488 0,1.206 0.34,2.383 0.838,3.036 0.445,0.55 1.074,0.838 1.91,0.838 1.152,0 1.834,-0.471 2.33,-1.647 L 1.23,5.627 c -0.314,0.657 -0.629,0.89 -1.205,0.89 -0.602,0 -0.994,-0.261 -1.256,-0.915 -0.183,-0.446 -0.287,-1.125 -0.287,-1.755 0,-0.784 0.131,-1.57 0.365,-2.041 0.237,-0.42 0.576,-0.603 1.022,-0.603 0.759,0 1.308,0.471 1.308,1.152 l 0,0.316 -1.361,0 0,1.176 2.539,0 0,-1.492 C 2.355,0.993 1.361,0 0,0"
         style="fill:#231f20;fill-opacity:1;fill-rule:nonzero;stroke:none"
         id="path3359"
         inkscape:connector-curvature="0" />
    </g>
    <g
       id="g3361"
       transform="matrix(1.25,0,0,-1.25,462.10712,728.07442)">
      <path
         d="m 0,0 -2.853,5.053 0,-5.053 -1.18,0 0,7.462 1.18,0 2.722,-4.764 0,4.764 1.178,0 L 1.047,0 0,0 z"
         style="fill:#231f20;fill-opacity:1;fill-rule:nonzero;stroke:none"
         id="path3363"
         inkscape:connector-curvature="0" />
    </g>
    <g
       id="g3365"
       transform="matrix(1.25,0,0,-1.25,470.41838,727.51568)">
      <path
         d="m 0,0 c -0.418,-0.366 -0.994,-0.576 -1.623,-0.576 -1.284,0 -2.225,0.758 -2.721,1.884 l 1.125,0.42 c 0.312,-0.708 0.889,-1.101 1.596,-1.101 0.681,0 1.152,0.471 1.152,1.101 0,0.993 -1.152,1.15 -2.119,1.543 -0.445,0.183 -1.442,0.63 -1.442,1.861 0,1.464 0.997,2.013 2.331,2.013 1.046,0 1.753,-0.6 2.121,-1.518 L -0.627,5.314 c 0,0 -0.262,0.627 -1.1,0.655 C -2.278,5.995 -2.932,5.785 -2.879,5.104 -2.776,3.718 0.732,4.634 0.732,1.701 0.732,1.02 0.472,0.417 0,0"
         style="fill:#231f20;fill-opacity:1;fill-rule:nonzero;stroke:none"
         id="path3367"
         inkscape:connector-curvature="0" />
    </g>
  </g>
</svg>
