<?xml version="1.0" encoding="UTF-8" standalone="no"?>
<!-- Created with Inkscape (http://www.inkscape.org/) -->

<svg
   xmlns:dc="http://purl.org/dc/elements/1.1/"
   xmlns:cc="http://creativecommons.org/ns#"
   xmlns:rdf="http://www.w3.org/1999/02/22-rdf-syntax-ns#"
   xmlns:svg="http://www.w3.org/2000/svg"
   xmlns="http://www.w3.org/2000/svg"
   xmlns:sodipodi="http://sodipodi.sourceforge.net/DTD/sodipodi-0.dtd"
   xmlns:inkscape="http://www.inkscape.org/namespaces/inkscape"
   width="90.639328"
   height="90.631638"
   id="svg4750"
   version="1.1"
   inkscape:version="0.48.3.1 r9886"
   sodipodi:docname="New document 21">
  <defs
     id="defs4752">
    <clipPath
       clipPathUnits="userSpaceOnUse"
       id="clipPath3461">
      <path
         inkscape:connector-curvature="0"
         d="M 27.125,45 540,45 l 0,450.094 -512.875,0 0,-450.094 z"
         id="path3463" />
    </clipPath>
  </defs>
  <sodipodi:namedview
     id="base"
     pagecolor="#ffffff"
     bordercolor="#666666"
     borderopacity="1.0"
     inkscape:pageopacity="0.0"
     inkscape:pageshadow="2"
     inkscape:zoom="0.35"
     inkscape:cx="45.324956"
     inkscape:cy="45.325627"
     inkscape:document-units="px"
     inkscape:current-layer="layer1"
     showgrid="false"
     fit-margin-top="0"
     fit-margin-left="0"
     fit-margin-right="0"
     fit-margin-bottom="0"
     inkscape:window-width="451"
     inkscape:window-height="398"
     inkscape:window-x="75"
     inkscape:window-y="75"
     inkscape:window-maximized="0" />
  <metadata
     id="metadata4755">
    <rdf:RDF>
      <cc:Work
         rdf:about="">
        <dc:format>image/svg+xml</dc:format>
        <dc:type
           rdf:resource="http://purl.org/dc/dcmitype/StillImage" />
        <dc:title></dc:title>
      </cc:Work>
    </rdf:RDF>
  </metadata>
  <g
     inkscape:label="Layer 1"
     inkscape:groupmode="layer"
     id="layer1"
     transform="translate(-329.67504,-487.05617)">
    <g
       transform="matrix(1.25,0,0,-1.25,260.33791,940.95456)"
       id="g3457">
      <g
         id="g3459"
         clip-path="url(#clipPath3461)">
        <g
           id="g3465"
           transform="translate(56.7563,329.3634)">
          <path
             inkscape:connector-curvature="0"
             d="m 0,0 32.483,32.483 c 1.369,1.369 3.609,1.369 4.978,0 L 69.946,0 c 1.37,-1.369 1.37,-3.61 0,-4.979 L 37.461,-37.462 c -1.369,-1.369 -3.609,-1.369 -4.978,0 L 0,-4.979 C -1.369,-3.61 -1.369,-1.369 0,0"
             style="fill:#fccf34;fill-opacity:1;fill-rule:nonzero;stroke:none"
             id="path3467" />
        </g>
        <g
           id="g3469"
           transform="translate(56.7563,329.3634)">
          <path
             inkscape:connector-curvature="0"
             d="m 0,0 32.483,32.483 c 1.369,1.369 3.609,1.369 4.978,0 L 69.946,0 c 1.37,-1.369 1.37,-3.61 0,-4.979 L 37.461,-37.462 c -1.369,-1.369 -3.609,-1.369 -4.978,0 L 0,-4.979 C -1.369,-3.61 -1.369,-1.369 0,0 z"
             style="fill:none;stroke:#1f1a17;stroke-width:0.5;stroke-linecap:butt;stroke-linejoin:miter;stroke-miterlimit:4;stroke-opacity:1;stroke-dasharray:none"
             id="path3471" />
        </g>
        <g
           id="g3473"
           transform="translate(57.6997,329.0583)">
          <path
             inkscape:connector-curvature="0"
             d="m 0,0 31.844,31.845 c 1.203,1.201 3.168,1.201 4.369,0 L 68.06,0 c 1.201,-1.202 1.201,-3.167 0,-4.369 L 36.213,-36.214 c -1.201,-1.201 -3.166,-1.201 -4.369,0 L 0,-4.369 C -1.201,-3.167 -1.201,-1.202 0,0"
             style="fill:#231f20;fill-opacity:1;fill-rule:evenodd;stroke:none"
             id="path3475" />
        </g>
        <g
           id="g3477"
           transform="translate(58.9438,328.2214)">
          <path
             inkscape:connector-curvature="0"
             d="m 0,0 31.437,31.438 c 0.741,0.741 1.954,0.741 2.696,0 L 65.571,0 c 0.741,-0.742 0.741,-1.954 0,-2.695 L 34.133,-34.133 c -0.742,-0.74 -1.955,-0.74 -2.696,0 L 0,-2.695 C -0.741,-1.954 -0.741,-0.742 0,0"
             style="fill:#fccf34;fill-opacity:1;fill-rule:evenodd;stroke:none"
             id="path3479" />
        </g>
        <g
           id="g3481"
           transform="translate(74.0727,322.4234)">
          <path
             inkscape:connector-curvature="0"
             d="m 0,0 0,8.861 13.289,0 0,13.289 8.859,0 0,-13.289 13.29,0 0,-8.861 -13.29,0 0,-13.289 -8.859,0 L 13.289,0 0,0 z"
             style="fill:#231f20;fill-opacity:1;fill-rule:nonzero;stroke:none"
             id="path3483" />
        </g>
      </g>
    </g>
  </g>
</svg>
