<?xml version="1.0" encoding="UTF-8" standalone="no"?>
<!-- Created with Inkscape (http://www.inkscape.org/) -->

<svg
   xmlns:dc="http://purl.org/dc/elements/1.1/"
   xmlns:cc="http://creativecommons.org/ns#"
   xmlns:rdf="http://www.w3.org/1999/02/22-rdf-syntax-ns#"
   xmlns:svg="http://www.w3.org/2000/svg"
   xmlns="http://www.w3.org/2000/svg"
   xmlns:sodipodi="http://sodipodi.sourceforge.net/DTD/sodipodi-0.dtd"
   xmlns:inkscape="http://www.inkscape.org/namespaces/inkscape"
   width="90.620514"
   height="90.621277"
   id="svg4823"
   version="1.1"
   inkscape:version="0.48.3.1 r9886"
   sodipodi:docname="New document 23">
  <defs
     id="defs4825">
    <clipPath
       clipPathUnits="userSpaceOnUse"
       id="clipPath3493">
      <path
         inkscape:connector-curvature="0"
         d="M 27.125,45 540,45 l 0,450.094 -512.875,0 0,-450.094 z"
         id="path3495" />
    </clipPath>
  </defs>
  <sodipodi:namedview
     id="base"
     pagecolor="#ffffff"
     bordercolor="#666666"
     borderopacity="1.0"
     inkscape:pageopacity="0.0"
     inkscape:pageshadow="2"
     inkscape:zoom="0.35"
     inkscape:cx="108.89636"
     inkscape:cy="-46.121073"
     inkscape:document-units="px"
     inkscape:current-layer="layer1"
     showgrid="false"
     fit-margin-top="0"
     fit-margin-left="0"
     fit-margin-right="0"
     fit-margin-bottom="0"
     inkscape:window-width="451"
     inkscape:window-height="398"
     inkscape:window-x="125"
     inkscape:window-y="125"
     inkscape:window-maximized="0" />
  <metadata
     id="metadata4828">
    <rdf:RDF>
      <cc:Work
         rdf:about="">
        <dc:format>image/svg+xml</dc:format>
        <dc:type
           rdf:resource="http://purl.org/dc/dcmitype/StillImage" />
        <dc:title></dc:title>
      </cc:Work>
    </rdf:RDF>
  </metadata>
  <g
     inkscape:label="Layer 1"
     inkscape:groupmode="layer"
     id="layer1"
     transform="translate(-266.10364,-395.61983)">
    <g
       transform="matrix(1.25,0,0,-1.25,103.50573,849.52661)"
       id="g3489">
      <g
         id="g3491"
         clip-path="url(#clipPath3493)">
        <g
           id="g3497"
           transform="translate(131.7324,330.2534)">
          <path
             inkscape:connector-curvature="0"
             d="m 0,0 31.227,31.227 c 1.859,1.858 4.9,1.858 6.759,0 L 69.211,0 c 1.86,-1.859 1.86,-4.9 0,-6.758 L 37.986,-37.985 c -1.859,-1.858 -4.9,-1.858 -6.759,0 L 0,-6.758 C -1.859,-4.9 -1.859,-1.859 0,0"
             style="fill:#f4f016;fill-opacity:1;fill-rule:evenodd;stroke:none"
             id="path3499" />
        </g>
        <g
           id="g3501"
           transform="translate(131.7324,330.2534)">
          <path
             inkscape:connector-curvature="0"
             d="m 0,0 31.227,31.227 c 1.859,1.858 4.9,1.858 6.759,0 L 69.211,0 c 1.86,-1.859 1.86,-4.9 0,-6.758 L 37.986,-37.985 c -1.859,-1.858 -4.9,-1.858 -6.759,0 L 0,-6.758 C -1.859,-4.9 -1.859,-1.859 0,0"
             style="fill:#fccf34;fill-opacity:1;fill-rule:nonzero;stroke:none"
             id="path3503" />
        </g>
        <g
           id="g3505"
           transform="translate(131.7324,330.2534)">
          <path
             inkscape:connector-curvature="0"
             d="m 0,0 31.227,31.227 c 1.859,1.858 4.9,1.858 6.759,0 L 69.211,0 c 1.86,-1.859 1.86,-4.9 0,-6.758 L 37.986,-37.985 c -1.859,-1.858 -4.9,-1.858 -6.759,0 L 0,-6.758 C -1.859,-4.9 -1.859,-1.859 0,0 z"
             style="fill:none;stroke:#1f1a17;stroke-width:0.5;stroke-linecap:butt;stroke-linejoin:miter;stroke-miterlimit:4;stroke-opacity:1;stroke-dasharray:none"
             id="path3507" />
        </g>
        <g
           id="g3509"
           transform="translate(132.9904,329.8244)">
          <path
             inkscape:connector-curvature="0"
             d="m 0,0 30.399,30.398 c 1.623,1.622 4.277,1.622 5.898,0 L 66.696,0 c 1.623,-1.623 1.623,-4.277 0,-5.9 L 36.297,-36.297 c -1.621,-1.623 -4.275,-1.623 -5.898,0 L 0,-5.9 c -1.621,1.623 -1.621,4.277 0,5.9"
             style="fill:#1f1a17;fill-opacity:1;fill-rule:evenodd;stroke:none"
             id="path3511" />
        </g>
        <g
           id="g3513"
           transform="translate(132.9904,329.8244)">
          <path
             inkscape:connector-curvature="0"
             d="m 0,0 30.399,30.398 c 1.623,1.622 4.277,1.622 5.898,0 L 66.696,0 c 1.623,-1.623 1.623,-4.277 0,-5.9 L 36.297,-36.297 c -1.621,-1.623 -4.275,-1.623 -5.898,0 L 0,-5.9 c -1.621,1.623 -1.621,4.277 0,5.9 z"
             style="fill:none;stroke:#1f1a17;stroke-width:0.21600001;stroke-linecap:butt;stroke-linejoin:miter;stroke-miterlimit:10;stroke-opacity:1;stroke-dasharray:none"
             id="path3515" />
        </g>
        <g
           id="g3517"
           transform="translate(134.5714,328.8714)">
          <path
             inkscape:connector-curvature="0"
             d="m 0,0 29.77,29.77 c 1.099,1.099 2.896,1.099 3.995,0 L 63.535,0 c 1.099,-1.098 1.099,-2.896 0,-3.995 l -29.77,-29.769 c -1.099,-1.099 -2.896,-1.099 -3.995,0 L 0,-3.995 C -1.098,-2.896 -1.098,-1.098 0,0"
             style="fill:#fccf34;fill-opacity:1;fill-rule:evenodd;stroke:none"
             id="path3519" />
        </g>
        <g
           id="g3521"
           transform="translate(134.5714,328.8714)">
          <path
             inkscape:connector-curvature="0"
             d="m 0,0 29.77,29.77 c 1.099,1.099 2.896,1.099 3.995,0 L 63.535,0 c 1.099,-1.098 1.099,-2.896 0,-3.995 l -29.77,-29.769 c -1.099,-1.099 -2.896,-1.099 -3.995,0 L 0,-3.995 C -1.098,-2.896 -1.098,-1.098 0,0 z"
             style="fill:none;stroke:#1f1a17;stroke-width:0.21600001;stroke-linecap:butt;stroke-linejoin:miter;stroke-miterlimit:10;stroke-opacity:1;stroke-dasharray:none"
             id="path3523" />
        </g>
        <g
           id="g3525"
           transform="translate(157.4584,344.6284)">
          <path
             inkscape:connector-curvature="0"
             d="m 0,0 8.859,0 0,-13.289 13.29,0 0,-8.859 -13.29,0 0,-13.29 -8.859,0 L 0,0 z"
             style="fill:#1f1a17;fill-opacity:1;fill-rule:evenodd;stroke:none"
             id="path3527" />
        </g>
        <g
           id="g3529"
           transform="translate(157.4584,344.6284)">
          <path
             inkscape:connector-curvature="0"
             d="m 0,0 8.859,0 0,-13.289 13.29,0 0,-8.859 -13.29,0 0,-13.29 -8.859,0 L 0,0 z"
             style="fill:none;stroke:#1f1a17;stroke-width:0.21600001;stroke-linecap:butt;stroke-linejoin:miter;stroke-miterlimit:10;stroke-opacity:1;stroke-dasharray:none"
             id="path3531" />
        </g>
      </g>
    </g>
  </g>
</svg>
