<?xml version="1.0" encoding="UTF-8" standalone="no"?>
<!-- Created with Inkscape (http://www.inkscape.org/) -->

<svg
   xmlns:dc="http://purl.org/dc/elements/1.1/"
   xmlns:cc="http://creativecommons.org/ns#"
   xmlns:rdf="http://www.w3.org/1999/02/22-rdf-syntax-ns#"
   xmlns:svg="http://www.w3.org/2000/svg"
   xmlns="http://www.w3.org/2000/svg"
   xmlns:sodipodi="http://sodipodi.sourceforge.net/DTD/sodipodi-0.dtd"
   xmlns:inkscape="http://www.inkscape.org/namespaces/inkscape"
   width="90.617691"
   height="106.40258"
   id="svg4904"
   version="1.1"
   inkscape:version="0.48.3.1 r9886"
   sodipodi:docname="New document 25">
  <defs
     id="defs4906" />
  <sodipodi:namedview
     id="base"
     pagecolor="#ffffff"
     bordercolor="#666666"
     borderopacity="1.0"
     inkscape:pageopacity="0.0"
     inkscape:pageshadow="2"
     inkscape:zoom="0.35"
     inkscape:cx="45.323527"
     inkscape:cy="53.199707"
     inkscape:document-units="px"
     inkscape:current-layer="layer1"
     showgrid="false"
     fit-margin-top="0"
     fit-margin-left="0"
     fit-margin-right="0"
     fit-margin-bottom="0"
     inkscape:window-width="451"
     inkscape:window-height="398"
     inkscape:window-x="175"
     inkscape:window-y="175"
     inkscape:window-maximized="0" />
  <metadata
     id="metadata4909">
    <rdf:RDF>
      <cc:Work
         rdf:about="">
        <dc:format>image/svg+xml</dc:format>
        <dc:type
           rdf:resource="http://purl.org/dc/dcmitype/StillImage" />
        <dc:title></dc:title>
      </cc:Work>
    </rdf:RDF>
  </metadata>
  <g
     inkscape:label="Layer 1"
     inkscape:groupmode="layer"
     id="layer1"
     transform="translate(-329.67647,-479.15931)">
    <text
       style="font-size:15px"
       y="585.41907"
       x="361.56064"
       id="text3533">
      <tspan
         style="font-size:11.25px;font-variant:normal;font-weight:normal;font-stretch:normal;writing-mode:lr-tb;fill:#231f20;fill-opacity:1;fill-rule:nonzero;stroke:none;font-family:Helvetica;-inkscape-font-specification:Helvetica"
         x="361.56064 372.18063 378.43564 382.18188"
         y="585.41907"
         sodipodi:role="line"
         id="tspan3535">W2-3</tspan>
    </text>
    <g
       id="g3545"
       transform="matrix(1.25,0,0,-1.25,331.74313,520.2503)">
      <path
         d="m 0,0 31.227,31.226 c 1.858,1.859 4.899,1.859 6.759,0 L 69.211,0 c 1.858,-1.859 1.858,-4.901 0,-6.759 L 37.986,-37.986 c -1.86,-1.859 -4.901,-1.859 -6.759,0 L 0,-6.759 c -1.858,1.858 -1.858,4.9 0,6.759"
         style="fill:#fccf34;fill-opacity:1;fill-rule:evenodd;stroke:none"
         id="path3547"
         inkscape:connector-curvature="0" />
    </g>
    <g
       id="g3549"
       transform="matrix(1.25,0,0,-1.25,331.74313,520.2503)">
      <path
         d="m 0,0 31.227,31.226 c 1.858,1.859 4.899,1.859 6.759,0 L 69.211,0 c 1.858,-1.859 1.858,-4.901 0,-6.759 L 37.986,-37.986 c -1.86,-1.859 -4.901,-1.859 -6.759,0 L 0,-6.759 c -1.858,1.858 -1.858,4.9 0,6.759 z"
         style="fill:none;stroke:#1f1a17;stroke-width:0.5;stroke-linecap:butt;stroke-linejoin:miter;stroke-miterlimit:10;stroke-opacity:1;stroke-dasharray:none"
         id="path3551"
         inkscape:connector-curvature="0" />
    </g>
    <g
       id="g3553"
       transform="matrix(1.25,0,0,-1.25,333.31688,520.7878)">
      <path
         d="m 0,0 30.398,30.398 c 1.622,1.622 4.276,1.622 5.899,0 L 66.693,0 c 1.622,-1.622 1.622,-4.277 0,-5.899 L 36.297,-36.298 c -1.623,-1.622 -4.277,-1.622 -5.899,0 L 0,-5.899 C -1.623,-4.277 -1.623,-1.622 0,0"
         style="fill:#1f1a17;fill-opacity:1;fill-rule:evenodd;stroke:none"
         id="path3555"
         inkscape:connector-curvature="0" />
    </g>
    <g
       id="g3557"
       transform="matrix(1.25,0,0,-1.25,333.31688,520.7878)">
      <path
         d="m 0,0 30.398,30.398 c 1.622,1.622 4.276,1.622 5.899,0 L 66.693,0 c 1.622,-1.622 1.622,-4.277 0,-5.899 L 36.297,-36.298 c -1.623,-1.622 -4.277,-1.622 -5.899,0 L 0,-5.899 C -1.623,-4.277 -1.623,-1.622 0,0 z"
         style="fill:none;stroke:#1f1a17;stroke-width:0.21600001;stroke-linecap:butt;stroke-linejoin:miter;stroke-miterlimit:10;stroke-opacity:1;stroke-dasharray:none"
         id="path3559"
         inkscape:connector-curvature="0" />
    </g>
    <g
       id="g3561"
       transform="matrix(1.25,0,0,-1.25,335.29187,521.9778)">
      <path
         d="m 0,0 29.77,29.769 c 1.098,1.099 2.896,1.099 3.994,0 L 63.533,0 c 1.099,-1.099 1.099,-2.897 0,-3.995 l -29.769,-29.77 c -1.098,-1.098 -2.896,-1.098 -3.994,0 L 0,-3.995 C -1.098,-2.897 -1.098,-1.099 0,0"
         style="fill:#fccf34;fill-opacity:1;fill-rule:evenodd;stroke:none"
         id="path3563"
         inkscape:connector-curvature="0" />
    </g>
    <g
       id="g3565"
       transform="matrix(1.25,0,0,-1.25,366.93938,502.28155)">
      <path
         d="m 0,0 8.86,0 0,-11.876 10.608,10.667 6.41,-6.412 L 8.862,-24.639 8.86,-35.438 0,-35.438 0,0 z"
         style="fill:#1f1a17;fill-opacity:1;fill-rule:evenodd;stroke:none"
         id="path3567"
         inkscape:connector-curvature="0" />
    </g>
  </g>
</svg>
