<?xml version="1.0" encoding="UTF-8" standalone="no"?>
<!-- Created with Inkscape (http://www.inkscape.org/) -->

<svg
   xmlns:dc="http://purl.org/dc/elements/1.1/"
   xmlns:cc="http://creativecommons.org/ns#"
   xmlns:rdf="http://www.w3.org/1999/02/22-rdf-syntax-ns#"
   xmlns:svg="http://www.w3.org/2000/svg"
   xmlns="http://www.w3.org/2000/svg"
   xmlns:sodipodi="http://sodipodi.sourceforge.net/DTD/sodipodi-0.dtd"
   xmlns:inkscape="http://www.inkscape.org/namespaces/inkscape"
   width="90.647636"
   height="106.26635"
   id="svg4967"
   version="1.1"
   inkscape:version="0.48.3.1 r9886"
   sodipodi:docname="New document 27">
  <defs
     id="defs4969" />
  <sodipodi:namedview
     id="base"
     pagecolor="#ffffff"
     bordercolor="#666666"
     borderopacity="1.0"
     inkscape:pageopacity="0.0"
     inkscape:pageshadow="2"
     inkscape:zoom="0.35"
     inkscape:cx="45.324792"
     inkscape:cy="53.129089"
     inkscape:document-units="px"
     inkscape:current-layer="layer1"
     showgrid="false"
     fit-margin-top="0"
     fit-margin-left="0"
     fit-margin-right="0"
     fit-margin-bottom="0"
     inkscape:window-width="451"
     inkscape:window-height="398"
     inkscape:window-x="25"
     inkscape:window-y="25"
     inkscape:window-maximized="0" />
  <metadata
     id="metadata4972">
    <rdf:RDF>
      <cc:Work
         rdf:about="">
        <dc:format>image/svg+xml</dc:format>
        <dc:type
           rdf:resource="http://purl.org/dc/dcmitype/StillImage" />
        <dc:title></dc:title>
      </cc:Work>
    </rdf:RDF>
  </metadata>
  <g
     inkscape:label="Layer 1"
     inkscape:groupmode="layer"
     id="layer1"
     transform="translate(-329.67521,-479.22492)">
    <g
       id="g3361"
       transform="matrix(1.25,0,0,-1.25,331.28906,521.42374)">
      <path
         d="m 0,0 32.47,32.472 c 1.375,1.374 3.623,1.374 4.996,0 L 69.939,0 c 1.373,-1.374 1.373,-3.622 0,-4.996 L 37.466,-37.468 c -1.373,-1.375 -3.621,-1.375 -4.996,0 L 0,-4.996 C -1.375,-3.622 -1.375,-1.374 0,0"
         style="fill:#fccf34;fill-opacity:1;fill-rule:nonzero;stroke:none"
         id="path3363"
         inkscape:connector-curvature="0" />
    </g>
    <g
       id="g3365"
       transform="matrix(1.25,0,0,-1.25,331.28906,521.42374)">
      <path
         d="m 0,0 32.47,32.472 c 1.375,1.374 3.623,1.374 4.996,0 L 69.939,0 c 1.373,-1.374 1.373,-3.622 0,-4.996 L 37.466,-37.468 c -1.373,-1.375 -3.621,-1.375 -4.996,0 L 0,-4.996 C -1.375,-3.622 -1.375,-1.374 0,0 z"
         style="fill:none;stroke:#231f20;stroke-width:0.5;stroke-linecap:butt;stroke-linejoin:miter;stroke-miterlimit:4;stroke-opacity:1;stroke-dasharray:none"
         id="path3367"
         inkscape:connector-curvature="0" />
    </g>
    <g
       id="g3369"
       transform="matrix(1.25,0,0,-1.25,332.26531,522.06999)">
      <path
         d="m 0,0 32.205,32.205 c 1.092,1.09 2.875,1.09 3.965,0 L 68.375,0 c 1.09,-1.09 1.09,-2.873 0,-3.963 L 36.17,-36.168 c -1.09,-1.089 -2.873,-1.089 -3.965,0 L 0,-3.963 C -1.09,-2.873 -1.09,-1.09 0,0"
         style="fill:#231f20;fill-opacity:1;fill-rule:evenodd;stroke:none"
         id="path3371"
         inkscape:connector-curvature="0" />
    </g>
    <g
       id="g3373"
       transform="matrix(1.25,0,0,-1.25,333.52531,523.30874)">
      <path
         d="m 0,0 32.189,32.19 c 0.545,0.544 1.438,0.544 1.981,0 L 66.359,0 c 0.545,-0.544 0.545,-1.436 0,-1.98 L 34.17,-34.171 c -0.543,-0.545 -1.436,-0.545 -1.981,0 L 0,-1.98 C -0.545,-1.436 -0.545,-0.544 0,0"
         style="fill:#fccf34;fill-opacity:1;fill-rule:evenodd;stroke:none"
         id="path3375"
         inkscape:connector-curvature="0" />
    </g>
    <g
       id="g3377"
       transform="matrix(1.25,0,0,-1.25,352.88531,521.03137)">
      <path
         d="m 0,0 0,8.831 35.385,0 0,-8.831 -13.278,0 0,-27.596 -8.83,0 L 13.277,0 0,0 z"
         style="fill:#231f20;fill-opacity:1;fill-rule:evenodd;stroke:none"
         id="path3379"
         inkscape:connector-curvature="0" />
    </g>
    <text
       style="font-size:15px"
       y="585.49127"
       x="361.37531"
       id="text3381">
      <tspan
         style="font-size:11.25px;font-variant:normal;font-weight:normal;font-stretch:normal;writing-mode:lr-tb;fill:#231f20;fill-opacity:1;fill-rule:nonzero;stroke:none;font-family:Helvetica;-inkscape-font-specification:Helvetica"
         x="361.37531 371.9953 378.25031 381.99655"
         y="585.49127"
         sodipodi:role="line"
         id="tspan3383">W2-4</tspan>
    </text>
  </g>
</svg>
