<?xml version="1.0" encoding="UTF-8" standalone="no"?>
<!-- Created with Inkscape (http://www.inkscape.org/) -->

<svg
   xmlns:dc="http://purl.org/dc/elements/1.1/"
   xmlns:cc="http://creativecommons.org/ns#"
   xmlns:rdf="http://www.w3.org/1999/02/22-rdf-syntax-ns#"
   xmlns:svg="http://www.w3.org/2000/svg"
   xmlns="http://www.w3.org/2000/svg"
   xmlns:sodipodi="http://sodipodi.sourceforge.net/DTD/sodipodi-0.dtd"
   xmlns:inkscape="http://www.inkscape.org/namespaces/inkscape"
   width="90.627197"
   height="90.631096"
   id="svg4811"
   version="1.1"
   inkscape:version="0.48.3.1 r9886"
   sodipodi:docname="New document 8">
  <defs
     id="defs4813">
    <clipPath
       clipPathUnits="userSpaceOnUse"
       id="clipPath3569">
      <path
         inkscape:connector-curvature="0"
         d="m 27,45 513.125,0 0,693.25 L 27,738.25 27,45 z"
         id="path3571" />
    </clipPath>
  </defs>
  <sodipodi:namedview
     id="base"
     pagecolor="#ffffff"
     bordercolor="#666666"
     borderopacity="1.0"
     inkscape:pageopacity="0.0"
     inkscape:pageshadow="2"
     inkscape:zoom="0.35"
     inkscape:cx="-213.9662"
     inkscape:cy="151.03643"
     inkscape:document-units="px"
     inkscape:current-layer="layer1"
     showgrid="false"
     fit-margin-top="0"
     fit-margin-left="0"
     fit-margin-right="0"
     fit-margin-bottom="0"
     inkscape:window-width="451"
     inkscape:window-height="398"
     inkscape:window-x="125"
     inkscape:window-y="125"
     inkscape:window-maximized="0" />
  <metadata
     id="metadata4816">
    <rdf:RDF>
      <cc:Work
         rdf:about="">
        <dc:format>image/svg+xml</dc:format>
        <dc:type
           rdf:resource="http://purl.org/dc/dcmitype/StillImage" />
        <dc:title></dc:title>
      </cc:Work>
    </rdf:RDF>
  </metadata>
  <g
     inkscape:label="Layer 1"
     inkscape:groupmode="layer"
     id="layer1"
     transform="translate(-588.9662,-592.76752)">
    <g
       transform="matrix(1.25,0,0,-1.25,311.47635,1488.0513)"
       id="g3565">
      <g
         id="g3567"
         clip-path="url(#clipPath3569)">
        <g
           id="g3573"
           transform="translate(223.2063,682.3159)">
          <path
             inkscape:connector-curvature="0"
             d="m 0,0 32.699,32.7 c 1.287,1.285 3.385,1.286 4.672,0 L 70.07,0 c 1.287,-1.286 1.287,-3.384 0,-4.671 l -32.699,-32.7 c -1.287,-1.287 -3.385,-1.287 -4.672,0 L 0,-4.672 C -1.27,-3.401 -1.271,-1.271 0,0"
             style="fill:#fccf34;fill-opacity:1;fill-rule:nonzero;stroke:#231f20;stroke-width:0.5;stroke-linecap:butt;stroke-linejoin:miter;stroke-miterlimit:4;stroke-opacity:1;stroke-dasharray:none"
             id="path3575" />
        </g>
        <g
           id="g3577"
           transform="translate(223.8623,681.6748)">
          <path
             inkscape:connector-curvature="0"
             d="m 0,0 32.684,32.683 c 0.926,0.927 2.462,0.925 3.39,0 L 68.757,0.001 c 0.927,-0.929 0.924,-2.462 0,-3.391 L 36.074,-36.072 c -0.93,-0.925 -2.462,-0.927 -3.391,-10e-4 L 0,-3.39 C -0.923,-2.461 -0.927,-0.927 0,0"
             style="fill:#231f20;fill-opacity:1;fill-rule:evenodd;stroke:none"
             id="path3579" />
        </g>
        <g
           id="g3581"
           transform="translate(224.7823,680.7788)">
          <path
             inkscape:connector-curvature="0"
             d="m 0,0 32.66,32.66 c 0.432,0.446 1.166,0.446 1.598,0 L 66.916,0 c 0.447,-0.431 0.447,-1.166 0.001,-1.597 L 34.258,-34.256 c -0.432,-0.447 -1.167,-0.448 -1.598,0 L 0,-1.597 C -0.445,-1.165 -0.445,-0.431 0,0"
             style="fill:#fccf34;fill-opacity:1;fill-rule:evenodd;stroke:none"
             id="path3583" />
        </g>
        <g
           id="g3585"
           transform="translate(281.1863,689.8462)">
          <path
             inkscape:connector-curvature="0"
             d="M 0,0 -1.422,0.001 -2.101,-4.634 -3.244,0 -4.603,0.001 -5.715,-4.633 -6.394,0 l -1.42,0.001 1.297,-8.804 1.235,0 1.359,5.652 1.39,-5.652 1.235,0 L 0,0 z m -10.348,-4.417 c 0,-0.68 -0.154,-1.544 -0.339,-2.008 -0.309,-0.772 -0.711,-1.111 -1.36,-1.112 -0.555,0.001 -0.926,0.216 -1.205,0.68 -0.34,0.557 -0.524,1.514 -0.524,2.44 0,0.741 0.124,1.544 0.34,2.07 0.309,0.771 0.741,1.112 1.421,1.081 0.525,-0.031 0.865,-0.216 1.142,-0.68 0.34,-0.587 0.525,-1.482 0.525,-2.471 m 1.39,0 c 0,1.112 -0.216,2.223 -0.587,2.996 -0.555,1.081 -1.328,1.576 -2.439,1.575 -1.02,0.001 -1.731,-0.308 -2.256,-0.988 -0.587,-0.833 -0.957,-2.131 -0.957,-3.583 0,-1.051 0.247,-2.225 0.617,-2.965 0.525,-1.081 1.298,-1.58 2.533,-1.58 0.926,-10e-4 1.637,0.314 2.131,0.993 0.618,0.772 0.958,2.162 0.958,3.552 m -9.081,1.946 c 0,-0.37 -0.216,-0.741 -0.556,-0.927 -0.215,-0.123 -0.37,-0.154 -0.803,-0.154 l -1.667,0 0,2.163 1.667,0 c 0.465,0 0.588,-0.032 0.803,-0.155 0.34,-0.185 0.557,-0.557 0.556,-0.927 m 1.576,-6.331 -1.545,4.108 c 0.803,0.37 1.36,1.296 1.36,2.223 0,0.895 -0.557,1.822 -1.328,2.193 -0.434,0.217 -0.897,0.279 -1.577,0.278 l -2.902,0.001 0,-8.804 1.39,0 0,3.83 1.667,0 1.422,-3.829 1.513,0 z m -9.02,6.331 c 0,-0.37 -0.216,-0.741 -0.555,-0.927 -0.217,-0.123 -0.371,-0.154 -0.804,-0.154 l -1.668,0 0,2.162 1.668,0 c 0.464,0 0.587,-0.03 0.804,-0.154 0.339,-0.185 0.556,-0.556 0.555,-0.927 m 1.576,-6.333 -1.545,4.109 c 0.803,0.371 1.359,1.297 1.359,2.224 0,0.895 -0.556,1.823 -1.328,2.193 -0.433,0.216 -0.895,0.278 -1.575,0.279 L -29.899,0 l 0,-8.803 1.389,0 0,3.83 1.668,0 1.421,-3.831 1.514,0 z m -10.162,3.893 -1.761,0 0.896,2.471 0.865,-2.471 z m 2.842,-3.892 -3.028,8.804 -1.389,0 -3.027,-8.804 1.482,-10e-4 0.865,2.472 2.749,0 0.865,-2.471 1.483,0 z m -8.742,0 10e-4,8.803 -1.391,0.001 0,-5.623 -3.212,5.623 -1.39,0 0,-8.804 1.39,0 10e-4,5.962 3.366,-5.962 1.235,0 z"
             style="fill:#231f20;fill-opacity:1;fill-rule:evenodd;stroke:none"
             id="path3587" />
        </g>
        <g
           id="g3589"
           transform="translate(277.3203,667.874)">
          <path
             inkscape:connector-curvature="0"
             d="m 0,0 0,1.421 -4.077,0 0,2.409 2.563,0 0,1.421 -2.563,0 0,2.162 3.799,0 0,1.391 L -5.469,8.803 -5.468,0 0,0 z m -7.136,2.626 0,1.76 -2.996,-0.001 0,-1.389 1.607,0 0,-0.371 c 0,-0.803 -0.649,-1.358 -1.544,-1.358 -0.526,0 -0.927,0.216 -1.205,0.711 -0.278,0.554 -0.432,1.482 -0.432,2.408 0,0.742 0.123,1.545 0.34,2.071 0.308,0.771 0.771,1.079 1.482,1.079 0.68,0 1.05,-0.278 1.42,-1.048 l 1.328,0.523 c -0.586,1.39 -1.389,1.946 -2.748,1.946 -0.988,0 -1.73,-0.34 -2.256,-0.987 -0.586,-0.773 -0.988,-2.162 -0.988,-3.584 0,-1.08 0.217,-2.162 0.588,-2.934 0.525,-1.112 1.297,-1.611 2.625,-1.611 1.605,0 2.779,1.178 2.779,2.785 m -8.894,1.791 c 0,-1.174 -0.279,-2.131 -0.804,-2.656 -0.247,-0.247 -0.524,-0.34 -0.988,-0.341 l -1.39,0.001 0,5.992 1.574,0 c 0.371,0 0.68,-0.154 0.897,-0.371 0.432,-0.463 0.711,-1.451 0.711,-2.625 m 1.42,0 c 0,1.731 -0.526,3.119 -1.452,3.923 -0.462,0.371 -0.802,0.463 -1.699,0.464 l -2.842,0 0.001,-8.804 2.687,0 0.494,0 c 0.463,0.03 0.927,0.186 1.267,0.494 0.988,0.773 1.544,2.162 1.544,3.923 M -22.425,0 l 0,8.803 -1.422,10e-4 0.001,-8.804 1.421,0 z m -4.201,6.332 c 0,-0.37 -0.216,-0.741 -0.555,-0.927 -0.217,-0.123 -0.372,-0.154 -0.803,-0.155 l -1.668,0.001 0,2.162 1.668,0 c 0.463,0 0.586,-0.031 0.803,-0.154 0.34,-0.186 0.555,-0.556 0.555,-0.927 M -25.05,0 -26.595,4.108 c 0.804,0.371 1.36,1.297 1.36,2.224 0,0.896 -0.556,1.823 -1.328,2.193 -0.433,0.216 -0.897,0.279 -1.575,0.279 l -2.905,0 0,-8.804 1.39,0 10e-4,3.83 1.668,0 1.421,-3.83 1.513,0 z m -8.618,2.44 c -10e-4,-0.679 -0.371,-1.019 -1.081,-1.019 l -2.1,-0.001 0,2.41 1.761,0 c 0.309,0 0.401,0 0.586,-0.061 0.494,-0.186 0.834,-0.743 0.834,-1.329 m -0.185,4.078 c 0,-0.402 -0.186,-0.773 -0.494,-1.02 -0.247,-0.185 -0.433,-0.247 -0.834,-0.248 l -1.668,0.001 0,2.162 2.038,0 c 0.618,0 0.958,-0.309 0.958,-0.895 m 1.606,-4.046 c 0,0.957 -0.525,1.698 -1.451,2.131 0.833,0.462 1.235,1.111 1.235,1.976 0,1.266 -1.051,2.225 -2.44,2.225 l -3.336,0 0,-8.804 3.336,0 c 0.401,0 0.926,0.093 1.235,0.216 0.834,0.34 1.421,1.298 1.421,2.256"
             style="fill:#231f20;fill-opacity:1;fill-rule:evenodd;stroke:none"
             id="path3591" />
        </g>
      </g>
    </g>
  </g>
</svg>
