<?xml version="1.0" encoding="UTF-8" standalone="no"?>
<!-- Created with Inkscape (http://www.inkscape.org/) -->

<svg
   xmlns:dc="http://purl.org/dc/elements/1.1/"
   xmlns:cc="http://creativecommons.org/ns#"
   xmlns:rdf="http://www.w3.org/1999/02/22-rdf-syntax-ns#"
   xmlns:svg="http://www.w3.org/2000/svg"
   xmlns="http://www.w3.org/2000/svg"
   xmlns:sodipodi="http://sodipodi.sourceforge.net/DTD/sodipodi-0.dtd"
   xmlns:inkscape="http://www.inkscape.org/namespaces/inkscape"
   width="90.627739"
   height="90.631577"
   id="svg4878"
   version="1.1"
   inkscape:version="0.48.3.1 r9886"
   sodipodi:docname="New document 10">
  <defs
     id="defs4880">
    <clipPath
       clipPathUnits="userSpaceOnUse"
       id="clipPath3601">
      <path
         inkscape:connector-curvature="0"
         d="m 27,45 513.125,0 0,693.25 L 27,738.25 27,45 z"
         id="path3603" />
    </clipPath>
  </defs>
  <sodipodi:namedview
     id="base"
     pagecolor="#ffffff"
     bordercolor="#666666"
     borderopacity="1.0"
     inkscape:pageopacity="0.0"
     inkscape:pageshadow="2"
     inkscape:zoom="0.35"
     inkscape:cx="-5.3945027"
     inkscape:cy="-286.10627"
     inkscape:document-units="px"
     inkscape:current-layer="layer1"
     showgrid="false"
     fit-margin-top="0"
     fit-margin-left="0"
     fit-margin-right="0"
     fit-margin-bottom="0"
     inkscape:window-width="451"
     inkscape:window-height="398"
     inkscape:window-x="175"
     inkscape:window-y="175"
     inkscape:window-maximized="0" />
  <metadata
     id="metadata4883">
    <rdf:RDF>
      <cc:Work
         rdf:about="">
        <dc:format>image/svg+xml</dc:format>
        <dc:type
           rdf:resource="http://purl.org/dc/dcmitype/StillImage" />
        <dc:title></dc:title>
      </cc:Work>
    </rdf:RDF>
  </metadata>
  <g
     inkscape:label="Layer 1"
     inkscape:groupmode="layer"
     id="layer1"
     transform="translate(-380.3945,-155.62433)">
    <g
       transform="matrix(1.25,0,0,-1.25,-16.239527,1050.9086)"
       id="g3597">
      <g
         id="g3599"
         clip-path="url(#clipPath3601)">
        <g
           id="g3605"
           transform="translate(318.5213,682.3159)">
          <path
             inkscape:connector-curvature="0"
             d="m 0,0 32.699,32.7 c 1.287,1.286 3.385,1.286 4.672,0 L 70.07,0 c 1.288,-1.286 1.288,-3.384 0,-4.671 l -32.699,-32.7 c -1.287,-1.287 -3.385,-1.287 -4.672,0 L 0,-4.671 c -1.269,1.27 -1.271,3.4 0,4.671"
             style="fill:#fccf34;fill-opacity:1;fill-rule:nonzero;stroke:#231f20;stroke-width:0.5;stroke-linecap:butt;stroke-linejoin:miter;stroke-miterlimit:4;stroke-opacity:1;stroke-dasharray:none"
             id="path3607" />
        </g>
        <g
           id="g3609"
           transform="translate(319.1773,681.6753)">
          <path
             inkscape:connector-curvature="0"
             d="m 0,0 32.684,32.683 c 0.928,0.927 2.463,0.925 3.391,0 L 68.757,0 c 0.928,-0.928 0.924,-2.461 0,-3.39 L 36.075,-36.073 c -0.93,-0.925 -2.461,-0.927 -3.391,0 L 0,-3.39 C -0.923,-2.461 -0.926,-0.928 0,0"
             style="fill:#231f20;fill-opacity:1;fill-rule:evenodd;stroke:none"
             id="path3611" />
        </g>
        <g
           id="g3613"
           transform="translate(320.0973,680.7788)">
          <path
             inkscape:connector-curvature="0"
             d="m 0,0 32.66,32.66 c 0.432,0.446 1.166,0.446 1.598,0 L 66.917,0 c 0.447,-0.431 0.447,-1.166 0,-1.597 L 34.258,-34.256 c -0.432,-0.447 -1.167,-0.448 -1.598,0 L 0,-1.597 C -0.445,-1.165 -0.445,-0.431 0,0"
             style="fill:#fccf34;fill-opacity:1;fill-rule:evenodd;stroke:none"
             id="path3615" />
        </g>
        <g
           id="g3617"
           transform="translate(348.3083,679.9424)">
          <path
             inkscape:connector-curvature="0"
             d="m 0,0 0,1.235 -3.212,0 0,2.904 1.823,0 0,1.204 -1.823,0 0,2.224 2.873,0 0,1.236 -4.139,0 L -4.478,0 0,0 z m -6.363,0 0,8.803 -1.266,0 0,-5.282 -2.41,5.282 -1.265,0 0,-8.803 1.265,0 0,5.899 L -7.32,0 -6.363,0 z m -7.907,4.417 c 0,-1.02 -0.062,-1.545 -0.279,-2.255 -0.216,-0.741 -0.556,-1.081 -1.081,-1.081 -0.555,0 -0.895,0.34 -1.112,1.081 -0.186,0.71 -0.277,1.266 -0.277,2.224 0,0.988 0.06,1.575 0.277,2.255 0.217,0.741 0.557,1.081 1.112,1.081 0.525,0 0.865,-0.34 1.081,-1.112 0.186,-0.649 0.279,-1.205 0.279,-2.193 m 1.204,0 c 0,1.328 -0.123,2.162 -0.494,3.027 -0.432,1.081 -1.051,1.513 -2.07,1.513 -1.019,0 -1.637,-0.432 -2.1,-1.482 -0.371,-0.834 -0.494,-1.73 -0.494,-3.058 0,-1.359 0.123,-2.193 0.494,-3.058 0.432,-1.05 1.051,-1.519 2.1,-1.519 0.989,0 1.638,0.469 2.07,1.519 0.371,0.834 0.494,1.699 0.494,3.058"
             style="fill:#231f20;fill-opacity:1;fill-rule:evenodd;stroke:none"
             id="path3619" />
        </g>
        <g
           id="g3621"
           transform="translate(370.5483,665.3047)">
          <path
             inkscape:connector-curvature="0"
             d="m 0,0 0,1.236 -3.212,0 0,2.903 1.822,0 0,1.205 -1.822,0 0,2.224 2.873,0 0,1.236 -4.141,0 L -4.48,0 0,0 z m -6.266,2.44 0,1.823 -2.255,0 0,-1.236 0.988,0 0,-0.587 c 0,-0.926 -0.308,-1.358 -0.957,-1.358 -0.679,0 -1.113,0.463 -1.299,1.328 -0.123,0.68 -0.184,1.451 -0.184,2.193 0,1.049 0.154,2.038 0.401,2.471 0.217,0.432 0.557,0.649 0.988,0.649 0.619,0 1.02,-0.403 1.051,-0.989 l 1.267,0 c -0.062,1.297 -1.02,2.224 -2.286,2.224 -1.02,0 -1.915,-0.68 -2.225,-1.606 -0.308,-0.834 -0.4,-1.73 -0.4,-2.965 0,-1.143 0.184,-2.379 0.463,-3.028 0.431,-0.988 1.205,-1.518 2.254,-1.518 0.896,0 1.607,0.468 1.947,1.241 0.185,0.37 0.247,0.74 0.247,1.358 m -7.78,1.915 c 0,-0.679 -0.062,-1.296 -0.123,-1.853 -0.125,-0.68 -0.526,-1.266 -1.267,-1.266 l -1.05,0 0,6.332 1.05,0 c 0.556,0 0.927,-0.278 1.142,-0.896 0.156,-0.37 0.248,-1.328 0.248,-2.317 m 1.236,0.063 c 0,0.679 -0.094,1.451 -0.217,2.1 -0.154,0.896 -0.525,1.576 -1.051,1.946 -0.308,0.247 -0.678,0.34 -1.42,0.34 l -2.255,0 0,-8.804 2.441,0 c 0.494,0 0.926,0.124 1.234,0.402 0.866,0.68 1.268,1.977 1.268,4.016 m -6.916,4.386 -1.234,0 0,-8.804 1.234,0 0,8.804 z m -3.98,-2.348 c 0,-0.71 -0.401,-1.112 -1.143,-1.112 l -1.297,0 0,2.224 1.297,0 c 0.68,0 1.143,-0.433 1.143,-1.112 M -22.47,0 -23.736,4.324 c 0.834,0.309 1.266,1.082 1.266,2.132 0,1.421 -0.927,2.348 -2.317,2.348 l -2.626,0 0,-8.804 1.267,0 0,4.139 1.205,0 1.174,-4.139 1.297,0 z m -7.688,2.502 c 0,-0.772 -0.463,-1.266 -1.174,-1.266 l -1.265,0 0,2.748 1.265,0 c 0.65,0 1.174,-0.648 1.174,-1.482 m -0.154,4.016 c 0,-0.803 -0.37,-1.297 -0.957,-1.297 l -1.328,0 0,2.347 1.328,0 c 0.68,0 0.957,-0.308 0.957,-1.05 m 1.391,-4.108 c 0,0.895 -0.403,1.637 -1.082,2.193 0.71,0.741 0.927,1.112 0.927,1.915 0,1.359 -0.834,2.286 -2.008,2.286 l -2.781,0 0,-8.804 2.596,0 c 1.297,0 2.348,1.082 2.348,2.41"
             style="fill:#231f20;fill-opacity:1;fill-rule:evenodd;stroke:none"
             id="path3623" />
        </g>
        <g
           id="g3625"
           transform="translate(375.9513,679.9853)">
          <path
             inkscape:connector-curvature="0"
             d="m 0,0 0,1.236 -3.213,0 0,2.903 1.823,0 0,1.205 -1.823,0 0,2.224 2.873,0 0,1.235 -4.139,0 L -4.479,0 0,0 z m -6.363,0 0,8.803 -1.267,0 0,-5.282 -2.409,5.282 -1.267,0 0,-8.803 1.267,0 0,5.9 2.718,-5.9 0.958,0 z m -8.34,3.645 -1.268,0 0.619,2.533 0.649,-2.533 z M -12.51,0 l -2.193,8.803 -1.237,0 -2.193,-8.803 1.267,0 0.586,2.409 1.885,0 0.617,-2.409 1.268,0 z m -6.148,0 0,1.174 -3.212,0 0,7.629 -1.267,0 0,-8.803 4.479,0 z"
             style="fill:#231f20;fill-opacity:1;fill-rule:evenodd;stroke:none"
             id="path3627" />
        </g>
      </g>
    </g>
  </g>
</svg>
