<?xml version="1.0" encoding="UTF-8" standalone="no"?>
<!-- Created with Inkscape (http://www.inkscape.org/) -->

<svg
   xmlns:dc="http://purl.org/dc/elements/1.1/"
   xmlns:cc="http://creativecommons.org/ns#"
   xmlns:rdf="http://www.w3.org/1999/02/22-rdf-syntax-ns#"
   xmlns:svg="http://www.w3.org/2000/svg"
   xmlns="http://www.w3.org/2000/svg"
   xmlns:sodipodi="http://sodipodi.sourceforge.net/DTD/sodipodi-0.dtd"
   xmlns:inkscape="http://www.inkscape.org/namespaces/inkscape"
   width="53.593754"
   height="40.351562"
   id="svg5032"
   version="1.1"
   inkscape:version="0.48.3.1 r9886"
   sodipodi:docname="New document 14">
  <defs
     id="defs5034">
    <clipPath
       clipPathUnits="userSpaceOnUse"
       id="clipPath3693">
      <path
         inkscape:connector-curvature="0"
         d="m 27,45 513.125,0 0,693.25 L 27,738.25 27,45 z"
         id="path3695" />
    </clipPath>
    <clipPath
       clipPathUnits="userSpaceOnUse"
       id="clipPath3681">
      <path
         inkscape:connector-curvature="0"
         d="m 31.275,147.705 504.574,0 0,590.544 -504.574,0 0,-590.544 z"
         id="path3683" />
    </clipPath>
    <clipPath
       clipPathUnits="userSpaceOnUse"
       id="clipPath3669">
      <path
         inkscape:connector-curvature="0"
         d="m 27,45 513.125,0 0,693.25 L 27,738.25 27,45 z"
         id="path3671" />
    </clipPath>
  </defs>
  <sodipodi:namedview
     id="base"
     pagecolor="#ffffff"
     bordercolor="#666666"
     borderopacity="1.0"
     inkscape:pageopacity="0.0"
     inkscape:pageshadow="2"
     inkscape:zoom="0.35"
     inkscape:cx="26.797935"
     inkscape:cy="20.174655"
     inkscape:document-units="px"
     inkscape:current-layer="layer1"
     showgrid="false"
     fit-margin-top="0"
     fit-margin-left="0"
     fit-margin-right="0"
     fit-margin-bottom="0"
     inkscape:window-width="451"
     inkscape:window-height="415"
     inkscape:window-x="75"
     inkscape:window-y="75"
     inkscape:window-maximized="0" />
  <metadata
     id="metadata5037">
    <rdf:RDF>
      <cc:Work
         rdf:about="">
        <dc:format>image/svg+xml</dc:format>
        <dc:type
           rdf:resource="http://purl.org/dc/dcmitype/StillImage" />
        <dc:title></dc:title>
      </cc:Work>
    </rdf:RDF>
  </metadata>
  <g
     inkscape:label="Layer 1"
     inkscape:groupmode="layer"
     id="layer1"
     transform="translate(-348.20206,-512.18527)">
    <g
       transform="matrix(1.25,0,0,-1.25,-268.00831,1357.1999)"
       id="g3665">
      <g
         id="g3667"
         clip-path="url(#clipPath3669)">
        <g
           id="g3673"
           transform="translate(493.2183,647.5117)">
          <path
             inkscape:connector-curvature="0"
             d="m 0,0 -0.004,24.716 c 0.002,1.942 1.592,3.532 3.534,3.532 l 35.316,-0.003 c 1.941,10e-4 3.535,-1.589 3.535,-3.532 l 0,-24.711 c 0.002,-1.943 -1.592,-3.533 -3.537,-3.533 l -35.31,0 C 1.59,-3.531 0,-1.941 0,0"
             style="fill:#fccf34;fill-opacity:1;fill-rule:nonzero;stroke:none"
             id="path3675" />
        </g>
      </g>
    </g>
    <g
       transform="matrix(1.25,0,0,-1.25,-268.00831,1357.1999)"
       id="g3677">
      <g
         id="g3679"
         clip-path="url(#clipPath3681)">
        <g
           id="g3685"
           transform="translate(493.2183,647.5117)">
          <path
             inkscape:connector-curvature="0"
             d="m 0,0 -0.004,24.716 c 0.002,1.942 1.592,3.532 3.534,3.532 l 35.316,-0.003 c 1.941,10e-4 3.535,-1.589 3.535,-3.532 l 0,-24.711 c 0.002,-1.943 -1.592,-3.533 -3.537,-3.533 l -35.31,0 C 1.59,-3.531 0,-1.941 0,0 z"
             style="fill:none;stroke:#231f20;stroke-width:0.5;stroke-linecap:butt;stroke-linejoin:miter;stroke-miterlimit:4;stroke-opacity:1;stroke-dasharray:none"
             id="path3687" />
        </g>
      </g>
    </g>
    <g
       transform="matrix(1.25,0,0,-1.25,-268.00831,1357.1999)"
       id="g3689">
      <g
         id="g3691"
         clip-path="url(#clipPath3693)">
        <g
           id="g3697"
           transform="translate(494.1363,647.7012)">
          <path
             inkscape:connector-curvature="0"
             d="m 0,0 -0.002,24.337 c 0,1.542 1.262,2.804 2.803,2.804 l 34.938,-0.004 c 1.541,0 2.804,-1.26 2.806,-2.802 l 0,-24.333 c 0,-1.543 -1.265,-2.803 -2.806,-2.803 L 2.803,-2.803 C 1.262,-2.801 0,-1.541 0,0"
             style="fill:#231f20;fill-opacity:1;fill-rule:evenodd;stroke:none"
             id="path3699" />
        </g>
        <g
           id="g3701"
           transform="translate(495.5503,647.7109)">
          <path
             inkscape:connector-curvature="0"
             d="m 0,0 -0.002,24.316 c -0.002,0.771 0.629,1.403 1.401,1.401 l 34.916,-0.002 c 0.769,0 1.4,-0.629 1.4,-1.4 l 0,-24.313 c 0,-0.772 -0.631,-1.402 -1.4,-1.4 L 1.401,-1.4 C 0.629,-1.398 0,-0.77 0,0"
             style="fill:#fccf34;fill-opacity:1;fill-rule:evenodd;stroke:none"
             id="path3703" />
        </g>
        <g
           id="g3705"
           transform="translate(529.1323,651.0645)">
          <path
             inkscape:connector-curvature="0"
             d="m 0,0 0,1.139 -3.269,0 0,1.932 2.057,0 0,1.139 -2.057,0 0,1.735 3.047,0 0,1.115 -4.16,0 0,-7.06 L 0,0 z m -7.058,3.542 c 0,-0.941 -0.223,-1.709 -0.645,-2.13 C -7.902,1.213 -8.125,1.139 -8.496,1.139 l -1.113,0 0,4.806 1.262,0 c 0.297,0 0.545,-0.124 0.719,-0.298 0.347,-0.371 0.57,-1.164 0.57,-2.105 m 1.139,0 c 0,1.387 -0.422,2.502 -1.165,3.146 -0.371,0.297 -0.644,0.372 -1.363,0.372 l -2.279,0 0,-7.06 2.156,0 0.397,0 c 0.371,0.024 0.744,0.148 1.015,0.396 0.793,0.619 1.239,1.734 1.239,3.146 m -8.149,-0.421 -1.414,0 0.719,1.982 0.695,-1.982 z M -11.791,0 l -2.427,7.06 -1.114,0 -2.427,-7.06 1.187,0 0.695,1.981 2.204,0 0.695,-1.981 1.187,0 z m -7.777,5.077 c 0,-0.296 -0.174,-0.594 -0.445,-0.743 -0.174,-0.098 -0.299,-0.124 -0.645,-0.124 l -1.338,0 0,1.735 1.338,0 c 0.371,0 0.471,-0.025 0.645,-0.124 0.271,-0.148 0.445,-0.446 0.445,-0.744 M -18.304,0 -19.543,3.294 c 0.643,0.298 1.09,1.04 1.09,1.783 0,0.719 -0.447,1.463 -1.066,1.759 -0.346,0.174 -0.719,0.224 -1.264,0.224 l -2.328,0 0,-7.06 1.115,0 0,3.071 1.338,0 1.139,-3.071 1.215,0 z m -6.342,2.105 0,1.412 -2.402,0 0,-1.114 1.287,0 0,-0.298 c 0,-0.644 -0.52,-1.09 -1.239,-1.09 -0.421,0 -0.742,0.174 -0.966,0.57 -0.223,0.445 -0.346,1.189 -0.346,1.932 0,0.594 0.1,1.238 0.271,1.66 0.248,0.619 0.62,0.867 1.19,0.867 0.545,0 0.842,-0.223 1.14,-0.842 l 1.065,0.42 c -0.471,1.115 -1.115,1.562 -2.205,1.562 -0.793,0 -1.387,-0.273 -1.809,-0.794 -0.47,-0.619 -0.791,-1.734 -0.791,-2.873 0,-0.867 0.172,-1.734 0.469,-2.353 0.422,-0.892 1.041,-1.293 2.105,-1.293 1.29,0 2.231,0.946 2.231,2.234"
             style="fill:#231f20;fill-opacity:1;fill-rule:evenodd;stroke:none"
             id="path3707" />
        </g>
        <g
           id="g3709"
           transform="translate(510.4183,666.6499)">
          <path
             inkscape:connector-curvature="0"
             d="m 0,0 c 0,-0.569 -0.571,-1.015 -1.289,-1.015 -0.694,0 -1.264,0.446 -1.264,1.015 0,0.57 0.57,1.016 1.264,1.016 C -0.596,1.016 0,0.545 0,0 m 1.113,-0.099 c 0,1.288 -1.039,2.254 -2.402,2.254 -1.338,0 -2.403,-0.941 -2.403,-2.155 0,-1.188 1.09,-2.155 2.403,-2.155 0.273,0 0.445,0.025 0.841,0.099 -0.42,-0.916 -0.867,-1.486 -1.709,-2.155 l 0.545,-0.945 c 1.635,1.118 2.725,3.125 2.725,5.057"
             style="fill:#231f20;fill-opacity:1;fill-rule:evenodd;stroke:none"
             id="path3711" />
        </g>
        <g
           id="g3713"
           transform="translate(516.5933,666.6001)">
          <path
             inkscape:connector-curvature="0"
             d="M 0,0 C 0,0.535 -0.105,1.07 -0.283,1.442 -0.55,1.962 -0.922,2.2 -1.457,2.2 -1.947,2.2 -2.289,2.051 -2.543,1.724 -2.824,1.323 -3.004,0.698 -3.004,0 c 0,-0.505 0.12,-1.07 0.299,-1.427 0.252,-0.52 0.623,-0.76 1.219,-0.76 0.445,0 0.787,0.151 1.025,0.478 C -0.164,-1.338 0,-0.669 0,0"
             style="fill:#231f20;fill-opacity:1;fill-rule:evenodd;stroke:none"
             id="path3715" />
        </g>
        <g
           id="g3717"
           transform="translate(520.4513,668.6904)">
          <path
             inkscape:connector-curvature="0"
             d="m 0,0 -1.018,0 -4.08,-7.072 1.018,0 L 0,0 z"
             style="fill:#231f20;fill-opacity:1;fill-rule:evenodd;stroke:none"
             id="path3719" />
        </g>
        <g
           id="g3721"
           transform="translate(515.8023,666.6025)">
          <path
             inkscape:connector-curvature="0"
             d="m 0,0 c 0,-0.279 -0.064,-0.633 -0.14,-0.823 -0.125,-0.316 -0.291,-0.455 -0.557,-0.455 -0.228,0 -0.379,0.088 -0.494,0.278 -0.139,0.228 -0.215,0.62 -0.215,1 0,0.303 0.051,0.632 0.141,0.848 0.125,0.316 0.302,0.455 0.582,0.443 C -0.468,1.278 -0.33,1.202 -0.216,1.012 -0.076,0.772 0,0.405 0,0"
             style="fill:#fccf34;fill-opacity:1;fill-rule:evenodd;stroke:none"
             id="path3723" />
        </g>
        <g
           id="g3725"
           transform="translate(521.9903,663.6753)">
          <path
             inkscape:connector-curvature="0"
             d="m 0,0 c 0,0.535 -0.106,1.07 -0.283,1.441 -0.268,0.52 -0.639,0.758 -1.174,0.758 -0.49,0 -0.832,-0.148 -1.086,-0.475 C -2.824,1.322 -3.004,0.698 -3.004,0 c 0,-0.506 0.119,-1.07 0.299,-1.427 0.252,-0.52 0.623,-0.761 1.219,-0.761 0.445,0 0.787,0.151 1.025,0.479 C -0.164,-1.338 0,-0.669 0,0"
             style="fill:#231f20;fill-opacity:1;fill-rule:evenodd;stroke:none"
             id="path3727" />
        </g>
        <g
           id="g3729"
           transform="translate(521.1973,663.6772)">
          <path
             inkscape:connector-curvature="0"
             d="m 0,0 c 0,-0.279 -0.063,-0.633 -0.139,-0.823 -0.127,-0.316 -0.291,-0.455 -0.556,-0.455 -0.229,0 -0.379,0.089 -0.493,0.278 -0.14,0.228 -0.216,0.62 -0.216,1 0,0.304 0.05,0.632 0.14,0.848 0.125,0.316 0.303,0.455 0.582,0.443 C -0.467,1.278 -0.328,1.202 -0.215,1.012 -0.074,0.772 0,0.405 0,0"
             style="fill:#fccf34;fill-opacity:1;fill-rule:evenodd;stroke:none"
             id="path3731" />
        </g>
      </g>
    </g>
  </g>
</svg>
