<?xml version="1.0" encoding="UTF-8" standalone="no"?>
<!-- Created with Inkscape (http://www.inkscape.org/) -->

<svg
   xmlns:dc="http://purl.org/dc/elements/1.1/"
   xmlns:cc="http://creativecommons.org/ns#"
   xmlns:rdf="http://www.w3.org/1999/02/22-rdf-syntax-ns#"
   xmlns:svg="http://www.w3.org/2000/svg"
   xmlns="http://www.w3.org/2000/svg"
   xmlns:sodipodi="http://sodipodi.sourceforge.net/DTD/sodipodi-0.dtd"
   xmlns:inkscape="http://www.inkscape.org/namespaces/inkscape"
   width="53.593754"
   height="40.351562"
   id="svg5135"
   version="1.1"
   inkscape:version="0.48.3.1 r9886"
   sodipodi:docname="New document 16">
  <defs
     id="defs5137">
    <clipPath
       clipPathUnits="userSpaceOnUse"
       id="clipPath3441">
      <path
         inkscape:connector-curvature="0"
         d="m 31.275,147.705 504.574,0 0,590.544 -504.574,0 0,-590.544 z"
         id="path3443" />
    </clipPath>
    <clipPath
       clipPathUnits="userSpaceOnUse"
       id="clipPath3429">
      <path
         inkscape:connector-curvature="0"
         d="m 27,45 513.125,0 0,693.25 L 27,738.25 27,45 z"
         id="path3431" />
    </clipPath>
    <clipPath
       clipPathUnits="userSpaceOnUse"
       id="clipPath3441-4">
      <path
         inkscape:connector-curvature="0"
         d="m 31.275,147.705 504.574,0 0,590.544 -504.574,0 0,-590.544 z"
         id="path3443-0" />
    </clipPath>
    <clipPath
       clipPathUnits="userSpaceOnUse"
       id="clipPath3429-9">
      <path
         inkscape:connector-curvature="0"
         d="m 27,45 513.125,0 0,693.25 L 27,738.25 27,45 z"
         id="path3431-4" />
    </clipPath>
  </defs>
  <sodipodi:namedview
     id="base"
     pagecolor="#ffffff"
     bordercolor="#666666"
     borderopacity="1.0"
     inkscape:pageopacity="0.0"
     inkscape:pageshadow="2"
     inkscape:zoom="0.35"
     inkscape:cx="44.654645"
     inkscape:cy="23.031255"
     inkscape:document-units="px"
     inkscape:current-layer="layer1"
     showgrid="false"
     fit-margin-top="0"
     fit-margin-left="0"
     fit-margin-right="0"
     fit-margin-bottom="0"
     inkscape:window-width="451"
     inkscape:window-height="415"
     inkscape:window-x="125"
     inkscape:window-y="125"
     inkscape:window-maximized="0" />
  <metadata
     id="metadata5140">
    <rdf:RDF>
      <cc:Work
         rdf:about="">
        <dc:format>image/svg+xml</dc:format>
        <dc:type
           rdf:resource="http://purl.org/dc/dcmitype/StillImage" />
        <dc:title></dc:title>
      </cc:Work>
    </rdf:RDF>
  </metadata>
  <g
     inkscape:label="Layer 1"
     inkscape:groupmode="layer"
     id="layer1"
     transform="translate(-330.34536,-515.04187)">
    <g
       transform="matrix(1.25,0,0,-1.25,291.15973,1239.31)"
       id="g3425">
      <g
         id="g3427"
         clip-path="url(#clipPath3429-9)">
        <g
           id="g3433"
           transform="translate(31.5985,550.9145)">
          <path
             inkscape:connector-curvature="0"
             d="m 0,0 -0.004,24.715 c 0.002,1.943 1.592,3.533 3.533,3.533 l 35.317,-0.003 c 1.941,10e-4 3.534,-1.589 3.534,-3.533 l 0,-24.71 c 0.002,-1.944 -1.591,-3.534 -3.536,-3.534 l -35.311,0 C 1.59,-3.532 0,-1.942 0,0"
             style="fill:#fccf34;fill-opacity:1;fill-rule:nonzero;stroke:none"
             id="path3435" />
        </g>
      </g>
    </g>
    <g
       transform="matrix(1.25,0,0,-1.25,291.15973,1239.31)"
       id="g3437">
      <g
         id="g3439"
         clip-path="url(#clipPath3441-4)">
        <g
           id="g3445"
           transform="translate(31.5985,550.9145)">
          <path
             inkscape:connector-curvature="0"
             d="m 0,0 -0.004,24.715 c 0.002,1.943 1.592,3.533 3.533,3.533 l 35.317,-0.003 c 1.941,10e-4 3.534,-1.589 3.534,-3.533 l 0,-24.71 c 0.002,-1.944 -1.591,-3.534 -3.536,-3.534 l -35.311,0 C 1.59,-3.532 0,-1.942 0,0 z"
             style="fill:none;stroke:#231f20;stroke-width:0.5;stroke-linecap:butt;stroke-linejoin:miter;stroke-miterlimit:4;stroke-opacity:1;stroke-dasharray:none"
             id="path3447" />
        </g>
      </g>
    </g>
    <g
       id="g3457"
       transform="matrix(1.25,0,0,-1.25,331.80536,550.43058)">
      <path
         d="m 0,0 -0.002,24.337 c 0,1.542 1.262,2.804 2.803,2.804 l 34.937,-0.004 c 1.541,0 2.804,-1.26 2.806,-2.802 l 0,-24.333 c 0,-1.543 -1.265,-2.803 -2.806,-2.803 L 2.803,-2.803 C 1.262,-2.801 0,-1.541 0,0"
         style="fill:#231f20;fill-opacity:1;fill-rule:evenodd;stroke:none"
         id="path3459"
         inkscape:connector-curvature="0" />
    </g>
    <g
       id="g3461"
       transform="matrix(1.25,0,0,-1.25,333.57298,550.41808)">
      <path
         d="m 0,0 -0.002,24.316 c -0.002,0.771 0.629,1.403 1.4,1.401 l 34.916,-0.002 c 0.77,0 1.401,-0.629 1.401,-1.401 l 0,-24.312 c 0,-0.772 -0.631,-1.403 -1.401,-1.401 L 1.4,-1.401 C 0.629,-1.399 0,-0.77 0,0"
         style="fill:#fccf34;fill-opacity:1;fill-rule:evenodd;stroke:none"
         id="path3463"
         inkscape:connector-curvature="0" />
    </g>
    <g
       id="g3465"
       transform="matrix(1.25,0,0,-1.25,368.21473,524.68559)">
      <path
         d="m 0,0 0,0.941 -3.592,0 0,-0.941 1.288,0 0,-6.119 1.016,0 0,6.119 L 0,0 z m -4.013,-6.119 -1.536,3.666 1.412,3.394 -1.066,0 -0.891,-2.131 -0.892,2.131 -1.065,0 1.437,-3.394 -1.536,-3.666 1.065,0 0.991,2.402 0.991,-2.402 1.09,0 z m -4.781,0 0,0.991 -2.577,0 0,2.328 1.462,0 0,0.966 -1.462,0 0,1.784 2.304,0 0,0.991 -3.32,0 0,-7.06 3.593,0 z m -5.103,0 0,7.06 -1.016,0 0,-4.236 -1.932,4.236 -1.016,0 0,-7.06 1.016,0 0,4.731 2.179,-4.731 0.769,0 z"
         style="fill:#231f20;fill-opacity:1;fill-rule:evenodd;stroke:none"
         id="path3467"
         inkscape:connector-curvature="0" />
    </g>
    <g
       id="g3469"
       transform="matrix(1.25,0,0,-1.25,376.20173,544.35308)">
      <path
         d="m 0,0 c 0,1.016 -0.594,1.784 -1.956,2.576 -0.521,0.298 -0.67,0.496 -0.67,0.843 0,0.47 0.372,0.818 0.842,0.818 0.447,0 0.793,-0.323 0.818,-0.818 l 0.966,0 c -0.024,1.065 -0.792,1.832 -1.784,1.832 -1.015,0 -1.808,-0.817 -1.808,-1.832 0,-0.62 0.298,-1.165 0.867,-1.561 1.437,-0.966 1.041,-0.694 1.189,-0.842 0.422,-0.322 0.57,-0.619 0.57,-1.016 0,-0.569 -0.446,-1.065 -0.99,-1.065 -0.694,0 -0.992,0.619 -0.992,1.213 l -0.991,0 c 0,-1.163 0.744,-2.208 1.983,-2.208 C -0.867,-2.06 0,-1.139 0,0 m -4.781,-1.931 0,0.989 -2.576,0 0,2.33 1.462,0 0,0.966 -1.462,0 0,1.783 2.303,0 0,0.991 -3.319,0 0,-7.059 3.592,0 z m -4.558,0 0,0.94 -2.576,0 0,6.119 -1.016,0 0,-7.059 3.592,0 z m -5.128,7.059 -0.991,0 0,-7.059 0.991,0 0,7.059 z m -2.527,-7.059 0,7.059 -1.015,0 -1.313,-3.964 -1.313,3.964 -1.016,0 0,-7.059 1.016,0 0,3.963 1.313,-3.963 1.313,3.963 0,-3.963 1.015,0 z m -9.562,6.068 0,0.991 -3.939,0 0,-0.991 2.651,0 c -0.694,-1.114 -1.065,-1.957 -1.363,-3.097 -0.247,-0.941 -0.42,-2.105 -0.42,-2.823 l 0,-0.148 0.99,0 c 0.05,1.287 0.198,2.229 0.57,3.319 0.396,1.139 0.892,2.031 1.511,2.749"
         style="fill:#231f20;fill-opacity:1;fill-rule:evenodd;stroke:none"
         id="path3471"
         inkscape:connector-curvature="0" />
    </g>
  </g>
</svg>
